%TF.GenerationSoftware,KiCad,Pcbnew,6.0.4-6f826c9f35~116~ubuntu20.04.1*%
%TF.CreationDate,2022-03-30T10:56:56+00:00*%
%TF.ProjectId,TFHT01B,54464854-3031-4422-9e6b-696361645f70,rev?*%
%TF.SameCoordinates,Original*%
%TF.FileFunction,Soldermask,Bot*%
%TF.FilePolarity,Negative*%
%FSLAX46Y46*%
G04 Gerber Fmt 4.6, Leading zero omitted, Abs format (unit mm)*
G04 Created by KiCad (PCBNEW 6.0.4-6f826c9f35~116~ubuntu20.04.1) date 2022-03-30 10:56:56*
%MOMM*%
%LPD*%
G01*
G04 APERTURE LIST*
G04 Aperture macros list*
%AMRoundRect*
0 Rectangle with rounded corners*
0 $1 Rounding radius*
0 $2 $3 $4 $5 $6 $7 $8 $9 X,Y pos of 4 corners*
0 Add a 4 corners polygon primitive as box body*
4,1,4,$2,$3,$4,$5,$6,$7,$8,$9,$2,$3,0*
0 Add four circle primitives for the rounded corners*
1,1,$1+$1,$2,$3*
1,1,$1+$1,$4,$5*
1,1,$1+$1,$6,$7*
1,1,$1+$1,$8,$9*
0 Add four rect primitives between the rounded corners*
20,1,$1+$1,$2,$3,$4,$5,0*
20,1,$1+$1,$4,$5,$6,$7,0*
20,1,$1+$1,$6,$7,$8,$9,0*
20,1,$1+$1,$8,$9,$2,$3,0*%
%AMFreePoly0*
4,1,41,0.636777,0.930194,0.706366,0.874698,0.744986,0.794504,0.750000,0.750000,0.750000,-0.750000,0.730194,-0.836777,0.674698,-0.906366,0.594504,-0.944986,0.550000,-0.950000,0.000000,-0.950000,-0.023504,-0.944635,-0.083606,-0.943534,-0.139582,-0.934468,-0.274897,-0.892193,-0.326080,-0.867780,-0.444090,-0.789225,-0.486362,-0.751429,-0.577582,-0.642910,-0.607548,-0.594768,-0.664643,-0.465009,
-0.679893,-0.410393,-0.697476,-0.275933,-0.697084,-0.275882,-0.700000,-0.250000,-0.700000,0.250000,-0.697921,0.259109,-0.697582,0.286880,-0.675771,0.426957,-0.659192,0.481183,-0.598944,0.609508,-0.567811,0.656904,-0.473967,0.763162,-0.430783,0.799915,-0.310888,0.875563,-0.259125,0.898717,-0.122818,0.937674,-0.066635,0.945370,-0.042411,0.945222,0.000000,0.950000,0.550000,0.950000,
0.636777,0.930194,0.636777,0.930194,$1*%
%AMFreePoly1*
4,1,41,0.022678,0.944824,0.075125,0.944504,0.131210,0.936123,0.267031,0.895504,0.318507,0.871718,0.437469,0.794611,0.480202,0.757333,0.572740,0.649936,0.603290,0.602165,0.661967,0.473113,0.677883,0.418686,0.697980,0.278353,0.700000,0.250000,0.700000,-0.250000,0.699985,-0.252439,0.699836,-0.264655,0.697079,-0.295398,0.673559,-0.435199,0.656318,-0.489221,0.594506,-0.616800,
0.562797,-0.663810,0.467662,-0.768914,0.424032,-0.805137,0.303222,-0.879314,0.251181,-0.901834,0.114408,-0.939123,0.058135,-0.946132,0.037663,-0.945757,0.000000,-0.950000,-0.550000,-0.950000,-0.636777,-0.930194,-0.706366,-0.874698,-0.744986,-0.794504,-0.750000,-0.750000,-0.750000,0.750000,-0.730194,0.836777,-0.674698,0.906366,-0.594504,0.944986,-0.550000,0.950000,0.000000,0.950000,
0.022678,0.944824,0.022678,0.944824,$1*%
%AMFreePoly2*
4,1,22,0.586777,1.030194,0.656366,0.974698,0.694986,0.894504,0.700000,0.850000,0.700000,-0.850000,0.680194,-0.936777,0.624698,-1.006366,0.544504,-1.044986,0.500000,-1.050000,-0.200000,-1.050000,-0.286777,-1.030194,-0.341421,-0.991421,-0.641421,-0.691421,-0.688777,-0.616056,-0.700000,-0.550000,-0.700000,0.850000,-0.680194,0.936777,-0.624698,1.006366,-0.544504,1.044986,-0.500000,1.050000,
0.500000,1.050000,0.586777,1.030194,0.586777,1.030194,$1*%
G04 Aperture macros list end*
%ADD10C,2.000000*%
%ADD11C,3.000000*%
%ADD12C,1.400000*%
%ADD13C,1.000000*%
%ADD14C,1.200000*%
%ADD15FreePoly0,180.000000*%
%ADD16RoundRect,0.200000X0.500000X0.750000X-0.500000X0.750000X-0.500000X-0.750000X0.500000X-0.750000X0*%
%ADD17FreePoly1,180.000000*%
%ADD18C,2.700000*%
%ADD19RoundRect,0.200000X-0.475000X-0.750000X0.475000X-0.750000X0.475000X0.750000X-0.475000X0.750000X0*%
%ADD20RoundRect,0.418750X0.256250X-0.218750X0.256250X0.218750X-0.256250X0.218750X-0.256250X-0.218750X0*%
%ADD21RoundRect,0.200000X0.125000X-0.275000X0.125000X0.275000X-0.125000X0.275000X-0.125000X-0.275000X0*%
%ADD22RoundRect,0.200000X-0.125000X0.275000X-0.125000X-0.275000X0.125000X-0.275000X0.125000X0.275000X0*%
%ADD23FreePoly2,90.000000*%
%ADD24RoundRect,0.200000X-0.350000X0.300000X-0.350000X-0.300000X0.350000X-0.300000X0.350000X0.300000X0*%
%ADD25RoundRect,0.350000X0.700000X-0.150000X0.700000X0.150000X-0.700000X0.150000X-0.700000X-0.150000X0*%
%ADD26RoundRect,0.450000X1.100000X-0.250000X1.100000X0.250000X-1.100000X0.250000X-1.100000X-0.250000X0*%
%ADD27RoundRect,0.418750X0.218750X0.256250X-0.218750X0.256250X-0.218750X-0.256250X0.218750X-0.256250X0*%
%ADD28RoundRect,0.418750X-0.218750X-0.256250X0.218750X-0.256250X0.218750X0.256250X-0.218750X0.256250X0*%
%ADD29RoundRect,0.200000X0.450000X0.400000X-0.450000X0.400000X-0.450000X-0.400000X0.450000X-0.400000X0*%
%ADD30RoundRect,0.200000X0.698500X-0.444500X0.698500X0.444500X-0.698500X0.444500X-0.698500X-0.444500X0*%
%ADD31RoundRect,0.200000X0.325000X-0.530000X0.325000X0.530000X-0.325000X0.530000X-0.325000X-0.530000X0*%
%ADD32RoundRect,0.418750X-0.256250X0.218750X-0.256250X-0.218750X0.256250X-0.218750X0.256250X0.218750X0*%
G04 APERTURE END LIST*
D10*
%TO.C,REF\u002A\u002A*%
X21900000Y11600000D03*
%TD*%
D11*
%TO.C,M4*%
X12500000Y15000000D03*
%TD*%
%TO.C,M2*%
X12500000Y0D03*
%TD*%
D12*
%TO.C,H1*%
X22100000Y4975000D03*
%TD*%
D13*
%TO.C,REF\u002A\u002A*%
X22000000Y7100000D03*
%TD*%
%TO.C,REF\u002A\u002A*%
X22000000Y9100000D03*
%TD*%
D14*
%TO.C,REF\u002A\u002A*%
X22475000Y3000000D03*
%TD*%
D11*
%TO.C,M6*%
X2500000Y15000000D03*
%TD*%
%TO.C,M5*%
X22500000Y0D03*
%TD*%
%TO.C,M1*%
X22500000Y15000000D03*
%TD*%
%TO.C,M3*%
X2500000Y0D03*
%TD*%
D15*
%TO.C,JP1*%
X19334000Y2032000D03*
D16*
X18034000Y2032000D03*
D17*
X16734000Y2032000D03*
%TD*%
D18*
%TO.C,D2*%
X8500000Y13000000D03*
D19*
X10575000Y13000000D03*
X6425000Y13000000D03*
%TD*%
D20*
%TO.C,C4*%
X11811000Y4572000D03*
X11811000Y6147000D03*
%TD*%
D21*
%TO.C,U1*%
X26950000Y6325000D03*
X26450000Y6325000D03*
X25950000Y6325000D03*
D22*
X25450000Y6325000D03*
D21*
X25450000Y8675000D03*
X25950000Y8675000D03*
X26450000Y8675000D03*
X26950000Y8675000D03*
D23*
X26200000Y7500000D03*
%TD*%
D24*
%TO.C,D1*%
X9071000Y9075000D03*
X9071000Y10475000D03*
%TD*%
D18*
%TO.C,D3*%
X8500000Y2000000D03*
D19*
X10575000Y2000000D03*
X6425000Y2000000D03*
%TD*%
D25*
%TO.C,J1*%
X4650000Y5625000D03*
X4650000Y6875000D03*
X4650000Y8125000D03*
X4650000Y9375000D03*
D26*
X1450000Y3775000D03*
X1450000Y11225000D03*
%TD*%
D27*
%TO.C,R2*%
X19177000Y5334000D03*
X17602000Y5334000D03*
%TD*%
D28*
%TO.C,C5*%
X25412500Y11594000D03*
X26987500Y11594000D03*
%TD*%
%TO.C,R4*%
X12522000Y2667000D03*
X14097000Y2667000D03*
%TD*%
D20*
%TO.C,C1*%
X12896000Y8962500D03*
X12896000Y10537500D03*
%TD*%
D29*
%TO.C,Q1*%
X15859000Y6665000D03*
X15859000Y4765000D03*
X13859000Y5715000D03*
%TD*%
D30*
%TO.C,C3*%
X10821000Y8947500D03*
X10821000Y10852500D03*
%TD*%
D31*
%TO.C,U3*%
X9967000Y4996000D03*
X9017000Y4996000D03*
X8067000Y4996000D03*
X8067000Y7196000D03*
X9967000Y7196000D03*
%TD*%
D32*
%TO.C,R3*%
X17780000Y11074500D03*
X17780000Y9499500D03*
%TD*%
%TO.C,R10*%
X15494000Y11049000D03*
X15494000Y9474000D03*
%TD*%
D20*
%TO.C,R1*%
X7421000Y9062500D03*
X7421000Y10637500D03*
%TD*%
D13*
%TO.C,M7*%
X23650000Y4950000D03*
X28750000Y4950000D03*
X28750000Y10050000D03*
X23650000Y10050000D03*
%TD*%
M02*
