%TF.GenerationSoftware,KiCad,Pcbnew,6.0.2+dfsg-1~bpo11+1*%
%TF.CreationDate,2022-03-16T18:02:24+00:00*%
%TF.ProjectId,TFHT01B,54464854-3031-4422-9e6b-696361645f70,rev?*%
%TF.SameCoordinates,PX78dfd90PY8290510*%
%TF.FileFunction,Copper,L1,Top*%
%TF.FilePolarity,Positive*%
%FSLAX46Y46*%
G04 Gerber Fmt 4.6, Leading zero omitted, Abs format (unit mm)*
G04 Created by KiCad (PCBNEW 6.0.2+dfsg-1~bpo11+1) date 2022-03-16 18:02:24*
%MOMM*%
%LPD*%
G01*
G04 APERTURE LIST*
G04 Aperture macros list*
%AMRoundRect*
0 Rectangle with rounded corners*
0 $1 Rounding radius*
0 $2 $3 $4 $5 $6 $7 $8 $9 X,Y pos of 4 corners*
0 Add a 4 corners polygon primitive as box body*
4,1,4,$2,$3,$4,$5,$6,$7,$8,$9,$2,$3,0*
0 Add four circle primitives for the rounded corners*
1,1,$1+$1,$2,$3*
1,1,$1+$1,$4,$5*
1,1,$1+$1,$6,$7*
1,1,$1+$1,$8,$9*
0 Add four rect primitives between the rounded corners*
20,1,$1+$1,$2,$3,$4,$5,0*
20,1,$1+$1,$4,$5,$6,$7,0*
20,1,$1+$1,$6,$7,$8,$9,0*
20,1,$1+$1,$8,$9,$2,$3,0*%
G04 Aperture macros list end*
%TA.AperFunction,SMDPad,CuDef*%
%ADD10RoundRect,0.150000X-0.700000X0.150000X-0.700000X-0.150000X0.700000X-0.150000X0.700000X0.150000X0*%
%TD*%
%TA.AperFunction,SMDPad,CuDef*%
%ADD11RoundRect,0.250000X-1.100000X0.250000X-1.100000X-0.250000X1.100000X-0.250000X1.100000X0.250000X0*%
%TD*%
%TA.AperFunction,ViaPad*%
%ADD12C,0.800000*%
%TD*%
%TA.AperFunction,Conductor*%
%ADD13C,0.400000*%
%TD*%
%TA.AperFunction,Conductor*%
%ADD14C,0.300000*%
%TD*%
G04 APERTURE END LIST*
D10*
%TO.P,J2,1*%
%TO.N,+5V*%
X-122096000Y146281000D03*
%TO.P,J2,2*%
%TO.N,/SCL*%
X-122096000Y145031000D03*
%TO.P,J2,3*%
%TO.N,/SDA*%
X-122096000Y143781000D03*
%TO.P,J2,4*%
%TO.N,GND*%
X-122096000Y142531000D03*
D11*
%TO.P,J2,MP*%
X-125296000Y148131000D03*
X-125296000Y140681000D03*
%TD*%
D12*
%TO.N,GND*%
X-122555000Y141224000D03*
X-125603000Y149733000D03*
X-107315000Y150876000D03*
X-113792000Y141351000D03*
X-107442000Y146431000D03*
X-106426000Y149606000D03*
X-109728000Y149606000D03*
X-110490000Y140462000D03*
X-122809000Y148971000D03*
X-124587000Y149733000D03*
X-123571000Y149733000D03*
X-107823000Y149606000D03*
X-125603000Y142367000D03*
X-125603000Y139192000D03*
X-111379000Y138176000D03*
X-111633000Y149606000D03*
X-111633000Y150876000D03*
X-125095000Y146685000D03*
X-108712000Y150876000D03*
X-123317000Y139192000D03*
X-110109000Y150876000D03*
X-122555000Y140081000D03*
X-125730000Y145796000D03*
X-124460000Y139192000D03*
X-105156000Y149606000D03*
X-121666000Y147574000D03*
X-110109000Y146431000D03*
X-125730000Y144653000D03*
X-105029000Y146431000D03*
X-99250000Y147050000D03*
X-105283000Y139192000D03*
X-106172000Y146431000D03*
X-125730000Y143510000D03*
X-122682000Y147574000D03*
%TO.N,Net-(D3-Pad1)*%
X-120269000Y140208000D03*
X-115062000Y140208000D03*
%TO.N,+5V*%
X-123952000Y146304000D03*
X-120396000Y146304000D03*
%TO.N,/SDA*%
X-124079000Y143764000D03*
X-119634000Y145034000D03*
X-111252000Y145034000D03*
X-98550000Y141150000D03*
%TO.N,/SCL*%
X-120396000Y143764000D03*
X-108966000Y143764000D03*
%TO.N,Net-(JP1-Pad2)*%
X-101600000Y140000000D03*
X-108712000Y140589000D03*
%TD*%
D13*
%TO.N,GND*%
X-100200000Y148000000D02*
X-99250000Y147050000D01*
X-106172000Y146431000D02*
X-106172000Y147447000D01*
X-106172000Y147447000D02*
X-103253000Y147447000D01*
X-103253000Y147447000D02*
X-102100000Y148000000D01*
X-102100000Y148000000D02*
X-100200000Y148000000D01*
%TO.N,Net-(D3-Pad1)*%
X-120015000Y141097000D02*
X-120269000Y140843000D01*
X-115951000Y141097000D02*
X-120015000Y141097000D01*
X-120269000Y140843000D02*
X-120269000Y140208000D01*
X-115062000Y140208000D02*
X-115951000Y141097000D01*
%TO.N,+5V*%
X-122119000Y146304000D02*
X-122096000Y146281000D01*
X-120419000Y146281000D02*
X-120396000Y146304000D01*
X-122096000Y146281000D02*
X-120419000Y146281000D01*
X-123952000Y146304000D02*
X-122119000Y146304000D01*
D14*
%TO.N,/SDA*%
X-104250000Y142150000D02*
X-104812000Y142150000D01*
X-102875000Y142650000D02*
X-100050000Y142650000D01*
X-111252000Y145034000D02*
X-119634000Y145034000D01*
D13*
X-122096000Y143781000D02*
X-124062000Y143781000D01*
D14*
X-100050000Y142650000D02*
X-98550000Y141150000D01*
D13*
X-124062000Y143781000D02*
X-124079000Y143764000D01*
D14*
X-107696000Y145034000D02*
X-111252000Y145034000D01*
X-104812000Y142150000D02*
X-107696000Y145034000D01*
X-104250000Y142150000D02*
X-103375000Y142150000D01*
X-103375000Y142150000D02*
X-102875000Y142650000D01*
D13*
%TO.N,/SCL*%
X-120647000Y145031000D02*
X-120396000Y144780000D01*
D14*
X-108966000Y143764000D02*
X-120396000Y143764000D01*
D13*
X-120396000Y144780000D02*
X-120396000Y143764000D01*
X-122096000Y145031000D02*
X-120647000Y145031000D01*
D14*
%TO.N,Net-(JP1-Pad2)*%
X-108712000Y140589000D02*
X-108127800Y141173200D01*
X-102773200Y141173200D02*
X-101600000Y140000000D01*
X-108127800Y141173200D02*
X-102773200Y141173200D01*
%TD*%
%TA.AperFunction,Conductor*%
%TO.N,GND*%
G36*
X-125877634Y151388687D02*
G01*
X-125855127Y151355787D01*
X-125824914Y151266784D01*
X-125814759Y151236867D01*
X-125813464Y151234374D01*
X-125732810Y151079110D01*
X-125695495Y151007275D01*
X-125693842Y151005013D01*
X-125693840Y151005009D01*
X-125588404Y150860685D01*
X-125542875Y150798364D01*
X-125540896Y150796375D01*
X-125414058Y150668871D01*
X-125360411Y150614942D01*
X-125152302Y150461230D01*
X-125127572Y150448219D01*
X-124925830Y150342077D01*
X-124925823Y150342074D01*
X-124923337Y150340766D01*
X-124678785Y150256321D01*
X-124676024Y150255817D01*
X-124676021Y150255816D01*
X-124581705Y150238591D01*
X-124424274Y150209839D01*
X-124421912Y150209715D01*
X-124421910Y150209715D01*
X-124342442Y150205550D01*
X-124342428Y150205550D01*
X-124341481Y150205500D01*
X-124180218Y150205500D01*
X-124107941Y150210998D01*
X-123990818Y150219907D01*
X-123990812Y150219908D01*
X-123988024Y150220120D01*
X-123735985Y150278539D01*
X-123733378Y150279579D01*
X-123733372Y150279581D01*
X-123498290Y150373369D01*
X-123498284Y150373372D01*
X-123495682Y150374410D01*
X-123493263Y150375832D01*
X-123493259Y150375834D01*
X-123275071Y150504101D01*
X-123275067Y150504104D01*
X-123272646Y150505527D01*
X-123072009Y150668871D01*
X-122898387Y150860685D01*
X-122896837Y150863031D01*
X-122896834Y150863035D01*
X-122757333Y151074199D01*
X-122757332Y151074200D01*
X-122755778Y151076553D01*
X-122722100Y151149605D01*
X-122648636Y151308962D01*
X-122648635Y151308964D01*
X-122647462Y151311509D01*
X-122646686Y151314206D01*
X-122646682Y151314217D01*
X-122635680Y151352459D01*
X-122605892Y151393385D01*
X-122564565Y151406000D01*
X-119030163Y151406000D01*
X-118982597Y151388687D01*
X-118957287Y151344850D01*
X-118966077Y151295000D01*
X-118990730Y151269382D01*
X-119177808Y151151573D01*
X-119180040Y151149605D01*
X-119344052Y151005009D01*
X-119364965Y150986572D01*
X-119366854Y150984272D01*
X-119521447Y150796068D01*
X-119521450Y150796063D01*
X-119523334Y150793770D01*
X-119648840Y150578128D01*
X-119649902Y150575361D01*
X-119649905Y150575355D01*
X-119726494Y150375834D01*
X-119738255Y150345195D01*
X-119738862Y150342288D01*
X-119788671Y150103869D01*
X-119788672Y150103863D01*
X-119789278Y150100961D01*
X-119789412Y150098000D01*
X-119789413Y150097996D01*
X-119792429Y150031565D01*
X-119800596Y149851712D01*
X-119800255Y149848766D01*
X-119800255Y149848763D01*
X-119792362Y149780543D01*
X-119771919Y149603860D01*
X-119703983Y149363781D01*
X-119598538Y149137652D01*
X-119596872Y149135201D01*
X-119596870Y149135197D01*
X-119505393Y149000594D01*
X-119458294Y148931290D01*
X-119456253Y148929132D01*
X-119456250Y148929128D01*
X-119389059Y148858076D01*
X-119286862Y148750006D01*
X-119088651Y148598462D01*
X-119086038Y148597061D01*
X-119086032Y148597057D01*
X-118981314Y148540908D01*
X-118868761Y148480557D01*
X-118865944Y148479587D01*
X-118635661Y148400294D01*
X-118635654Y148400292D01*
X-118632848Y148399326D01*
X-118386983Y148356858D01*
X-118384666Y148356753D01*
X-118384659Y148356752D01*
X-118367580Y148355977D01*
X-118357078Y148355500D01*
X-118183309Y148355500D01*
X-118181835Y148355619D01*
X-118181825Y148355619D01*
X-118067545Y148364814D01*
X-117997298Y148370466D01*
X-117754994Y148429982D01*
X-117632529Y148481965D01*
X-117528067Y148526306D01*
X-117528064Y148526307D01*
X-117525323Y148527471D01*
X-117314192Y148660427D01*
X-117214626Y148748206D01*
X-117129267Y148823460D01*
X-117129266Y148823462D01*
X-117127035Y148825428D01*
X-117040079Y148931290D01*
X-116970553Y149015932D01*
X-116970550Y149015937D01*
X-116968666Y149018230D01*
X-116843160Y149233872D01*
X-116842098Y149236639D01*
X-116842095Y149236645D01*
X-116754809Y149464033D01*
X-116754809Y149464034D01*
X-116753745Y149466805D01*
X-116717573Y149639949D01*
X-116703329Y149708131D01*
X-116703328Y149708137D01*
X-116702722Y149711039D01*
X-116691404Y149960288D01*
X-116720081Y150208140D01*
X-116788017Y150448219D01*
X-116893462Y150674348D01*
X-116976183Y150796068D01*
X-117032033Y150878249D01*
X-117032036Y150878253D01*
X-117033706Y150880710D01*
X-117035747Y150882868D01*
X-117035750Y150882872D01*
X-117203100Y151059839D01*
X-117203101Y151059840D01*
X-117205138Y151061994D01*
X-117403349Y151213538D01*
X-117502652Y151266785D01*
X-117536391Y151304519D01*
X-117537981Y151355113D01*
X-117506678Y151394892D01*
X-117467683Y151406000D01*
X-115925200Y151406000D01*
X-115877634Y151388687D01*
X-115855127Y151355787D01*
X-115824914Y151266784D01*
X-115814759Y151236867D01*
X-115813464Y151234374D01*
X-115732810Y151079110D01*
X-115695495Y151007275D01*
X-115693842Y151005013D01*
X-115693840Y151005009D01*
X-115588404Y150860685D01*
X-115542875Y150798364D01*
X-115540896Y150796375D01*
X-115414058Y150668871D01*
X-115360411Y150614942D01*
X-115152302Y150461230D01*
X-115127572Y150448219D01*
X-114925830Y150342077D01*
X-114925823Y150342074D01*
X-114923337Y150340766D01*
X-114678785Y150256321D01*
X-114676024Y150255817D01*
X-114676021Y150255816D01*
X-114581705Y150238591D01*
X-114424274Y150209839D01*
X-114421912Y150209715D01*
X-114421910Y150209715D01*
X-114342442Y150205550D01*
X-114342428Y150205550D01*
X-114341481Y150205500D01*
X-114180218Y150205500D01*
X-114107941Y150210998D01*
X-113990818Y150219907D01*
X-113990812Y150219908D01*
X-113988024Y150220120D01*
X-113735985Y150278539D01*
X-113733378Y150279579D01*
X-113733372Y150279581D01*
X-113498290Y150373369D01*
X-113498284Y150373372D01*
X-113495682Y150374410D01*
X-113493263Y150375832D01*
X-113493259Y150375834D01*
X-113275071Y150504101D01*
X-113275067Y150504104D01*
X-113272646Y150505527D01*
X-113072009Y150668871D01*
X-112898387Y150860685D01*
X-112896837Y150863031D01*
X-112896834Y150863035D01*
X-112757333Y151074199D01*
X-112757332Y151074200D01*
X-112755778Y151076553D01*
X-112722100Y151149605D01*
X-112648636Y151308962D01*
X-112648635Y151308964D01*
X-112647462Y151311509D01*
X-112646686Y151314206D01*
X-112646682Y151314217D01*
X-112635680Y151352459D01*
X-112605892Y151393385D01*
X-112564565Y151406000D01*
X-105925200Y151406000D01*
X-105877634Y151388687D01*
X-105855127Y151355787D01*
X-105824914Y151266784D01*
X-105814759Y151236867D01*
X-105813464Y151234374D01*
X-105732810Y151079110D01*
X-105695495Y151007275D01*
X-105693842Y151005013D01*
X-105693840Y151005009D01*
X-105588404Y150860685D01*
X-105542875Y150798364D01*
X-105540896Y150796375D01*
X-105414058Y150668871D01*
X-105360411Y150614942D01*
X-105152302Y150461230D01*
X-105127572Y150448219D01*
X-104925830Y150342077D01*
X-104925823Y150342074D01*
X-104923337Y150340766D01*
X-104678785Y150256321D01*
X-104676024Y150255817D01*
X-104676021Y150255816D01*
X-104581705Y150238591D01*
X-104538023Y150213014D01*
X-104521000Y150165795D01*
X-104521000Y145995463D01*
X-104525288Y145970640D01*
X-104530281Y145956618D01*
X-104551545Y145778291D01*
X-104532773Y145599684D01*
X-104531442Y145595775D01*
X-104531441Y145595769D01*
X-104524948Y145576697D01*
X-104521000Y145552850D01*
X-104521000Y143262130D01*
X-104525288Y143237307D01*
X-104530281Y143223285D01*
X-104551545Y143044958D01*
X-104532773Y142866351D01*
X-104531442Y142862442D01*
X-104531441Y142862436D01*
X-104524948Y142843364D01*
X-104521000Y142819517D01*
X-104521000Y142574500D01*
X-104538313Y142526934D01*
X-104582150Y142501624D01*
X-104595000Y142500500D01*
X-104636166Y142500500D01*
X-104683732Y142517813D01*
X-104688492Y142522174D01*
X-107416134Y145249816D01*
X-107425975Y145262002D01*
X-107429855Y145268011D01*
X-107429857Y145268013D01*
X-107433175Y145273152D01*
X-107459486Y145293894D01*
X-107465999Y145299681D01*
X-107468746Y145302428D01*
X-107471224Y145304199D01*
X-107471229Y145304203D01*
X-107484080Y145313386D01*
X-107486843Y145315460D01*
X-107524811Y145345392D01*
X-107530580Y145347418D01*
X-107531617Y145347988D01*
X-107532320Y145348430D01*
X-107532860Y145348711D01*
X-107533617Y145349028D01*
X-107534693Y145349555D01*
X-107539669Y145353111D01*
X-107585977Y145366960D01*
X-107589293Y145368037D01*
X-107604955Y145373537D01*
X-107634906Y145384055D01*
X-107640044Y145384500D01*
X-107641381Y145384500D01*
X-107645912Y145384884D01*
X-107651464Y145386544D01*
X-107657574Y145386304D01*
X-107657575Y145386304D01*
X-107702037Y145384557D01*
X-107704942Y145384500D01*
X-110727542Y145384500D01*
X-110775108Y145401813D01*
X-110786250Y145413452D01*
X-110788700Y145416646D01*
X-110823718Y145462282D01*
X-110897650Y145519012D01*
X-110945311Y145555584D01*
X-110945315Y145555586D01*
X-110949159Y145558536D01*
X-111095238Y145619044D01*
X-111100040Y145619676D01*
X-111100043Y145619677D01*
X-111247192Y145639049D01*
X-111252000Y145639682D01*
X-111256808Y145639049D01*
X-111403957Y145619677D01*
X-111403960Y145619676D01*
X-111408762Y145619044D01*
X-111554841Y145558536D01*
X-111558685Y145555586D01*
X-111558689Y145555584D01*
X-111606350Y145519012D01*
X-111680282Y145462282D01*
X-111715299Y145416646D01*
X-111717750Y145413452D01*
X-111760441Y145386254D01*
X-111776458Y145384500D01*
X-119109542Y145384500D01*
X-119157108Y145401813D01*
X-119168250Y145413452D01*
X-119170700Y145416646D01*
X-119205718Y145462282D01*
X-119279650Y145519012D01*
X-119327311Y145555584D01*
X-119327315Y145555586D01*
X-119331159Y145558536D01*
X-119477238Y145619044D01*
X-119482040Y145619676D01*
X-119482043Y145619677D01*
X-119629192Y145639049D01*
X-119634000Y145639682D01*
X-119638808Y145639049D01*
X-119785957Y145619677D01*
X-119785960Y145619676D01*
X-119790762Y145619044D01*
X-119936841Y145558536D01*
X-119940685Y145555586D01*
X-119940689Y145555584D01*
X-119988350Y145519012D01*
X-120062282Y145462282D01*
X-120065237Y145458431D01*
X-120155584Y145340689D01*
X-120155586Y145340685D01*
X-120158536Y145336841D01*
X-120160390Y145332366D01*
X-120160393Y145332360D01*
X-120182908Y145278002D01*
X-120217105Y145240681D01*
X-120267291Y145234074D01*
X-120303601Y145253994D01*
X-120386091Y145336484D01*
X-120386095Y145336487D01*
X-120408658Y145359050D01*
X-120413847Y145361694D01*
X-120431902Y145370894D01*
X-120441802Y145376961D01*
X-120458196Y145388872D01*
X-120458201Y145388874D01*
X-120462910Y145392296D01*
X-120468448Y145394095D01*
X-120468449Y145394096D01*
X-120487722Y145400358D01*
X-120498450Y145404802D01*
X-120516503Y145414000D01*
X-120521696Y145416646D01*
X-120539912Y145419531D01*
X-120547463Y145420727D01*
X-120558754Y145423438D01*
X-120578026Y145429700D01*
X-120578029Y145429700D01*
X-120583567Y145431500D01*
X-121120175Y145431500D01*
X-121167741Y145448813D01*
X-121172455Y145453128D01*
X-121185321Y145465972D01*
X-121185322Y145465973D01*
X-121189650Y145470293D01*
X-121195147Y145472980D01*
X-121289318Y145519012D01*
X-121289319Y145519012D01*
X-121294482Y145521536D01*
X-121362782Y145531500D01*
X-122829218Y145531500D01*
X-122831901Y145531105D01*
X-122892423Y145522196D01*
X-122892426Y145522195D01*
X-122898112Y145521358D01*
X-122903272Y145518825D01*
X-122903274Y145518824D01*
X-122949117Y145496316D01*
X-123002855Y145469932D01*
X-123007176Y145465603D01*
X-123007178Y145465602D01*
X-123072308Y145400358D01*
X-123085293Y145387350D01*
X-123087980Y145381853D01*
X-123121447Y145313386D01*
X-123136536Y145282518D01*
X-123146500Y145214218D01*
X-123146500Y144847782D01*
X-123146105Y144845099D01*
X-123137196Y144784577D01*
X-123137195Y144784574D01*
X-123136358Y144778888D01*
X-123084932Y144674145D01*
X-123080603Y144669824D01*
X-123080602Y144669822D01*
X-123006679Y144596028D01*
X-123002350Y144591707D01*
X-122996853Y144589020D01*
X-122903066Y144543176D01*
X-122897518Y144540464D01*
X-122829218Y144530500D01*
X-121362782Y144530500D01*
X-121356637Y144531405D01*
X-121299577Y144539804D01*
X-121299574Y144539805D01*
X-121293888Y144540642D01*
X-121288728Y144543175D01*
X-121288726Y144543176D01*
X-121242883Y144565684D01*
X-121189145Y144592068D01*
X-121184821Y144596400D01*
X-121184819Y144596401D01*
X-121172461Y144608780D01*
X-121126604Y144630213D01*
X-121120090Y144630500D01*
X-120870500Y144630500D01*
X-120822934Y144613187D01*
X-120797624Y144569350D01*
X-120796500Y144556500D01*
X-120796500Y144249821D01*
X-120813813Y144202255D01*
X-120818172Y144197497D01*
X-120820434Y144195234D01*
X-120824282Y144192282D01*
X-120827236Y144188432D01*
X-120917584Y144070689D01*
X-120917586Y144070685D01*
X-120920536Y144066841D01*
X-120922391Y144062362D01*
X-120922392Y144062360D01*
X-120927292Y144050531D01*
X-120961489Y144013211D01*
X-121011675Y144006603D01*
X-121054367Y144033800D01*
X-121062085Y144046235D01*
X-121074091Y144070689D01*
X-121107068Y144137855D01*
X-121111397Y144142176D01*
X-121111398Y144142178D01*
X-121185321Y144215972D01*
X-121185323Y144215973D01*
X-121189650Y144220293D01*
X-121195147Y144222980D01*
X-121289318Y144269012D01*
X-121289319Y144269012D01*
X-121294482Y144271536D01*
X-121362782Y144281500D01*
X-122829218Y144281500D01*
X-122831901Y144281105D01*
X-122892423Y144272196D01*
X-122892426Y144272195D01*
X-122898112Y144271358D01*
X-122903272Y144268825D01*
X-122903274Y144268824D01*
X-122941978Y144249821D01*
X-123002855Y144219932D01*
X-123007179Y144215600D01*
X-123007181Y144215599D01*
X-123019539Y144203220D01*
X-123065396Y144181787D01*
X-123071910Y144181500D01*
X-123611548Y144181500D01*
X-123656596Y144196792D01*
X-123657514Y144197497D01*
X-123776159Y144288536D01*
X-123922238Y144349044D01*
X-123927040Y144349676D01*
X-123927043Y144349677D01*
X-124074192Y144369049D01*
X-124079000Y144369682D01*
X-124083808Y144369049D01*
X-124230957Y144349677D01*
X-124230960Y144349676D01*
X-124235762Y144349044D01*
X-124381841Y144288536D01*
X-124385685Y144285586D01*
X-124385689Y144285584D01*
X-124471248Y144219932D01*
X-124507282Y144192282D01*
X-124510236Y144188432D01*
X-124510237Y144188431D01*
X-124600584Y144070689D01*
X-124600586Y144070685D01*
X-124603536Y144066841D01*
X-124664044Y143920762D01*
X-124664676Y143915960D01*
X-124664677Y143915957D01*
X-124676667Y143824880D01*
X-124684682Y143764000D01*
X-124684049Y143759192D01*
X-124671464Y143663602D01*
X-124664044Y143607238D01*
X-124603536Y143461159D01*
X-124600586Y143457315D01*
X-124600584Y143457311D01*
X-124528360Y143363187D01*
X-124507282Y143335718D01*
X-124503431Y143332763D01*
X-124385689Y143242416D01*
X-124385685Y143242414D01*
X-124381841Y143239464D01*
X-124235762Y143178956D01*
X-124230960Y143178324D01*
X-124230957Y143178323D01*
X-124083808Y143158951D01*
X-124079000Y143158318D01*
X-124074192Y143158951D01*
X-123927043Y143178323D01*
X-123927040Y143178324D01*
X-123922238Y143178956D01*
X-123776159Y143239464D01*
X-123772315Y143242414D01*
X-123772311Y143242416D01*
X-123654569Y143332763D01*
X-123650718Y143335718D01*
X-123638570Y143351549D01*
X-123595879Y143378746D01*
X-123579863Y143380500D01*
X-123176335Y143380500D01*
X-123128769Y143363187D01*
X-123103459Y143319350D01*
X-123112249Y143269500D01*
X-123138666Y143242805D01*
X-123198489Y143207426D01*
X-123205791Y143201762D01*
X-123316762Y143090791D01*
X-123322426Y143083489D01*
X-123402313Y142948407D01*
X-123405980Y142939932D01*
X-123447353Y142797529D01*
X-123446648Y142786917D01*
X-123445474Y142785693D01*
X-123442498Y142785000D01*
X-120754055Y142785000D01*
X-120744059Y142788638D01*
X-120743212Y142790106D01*
X-120743377Y142793159D01*
X-120786020Y142939932D01*
X-120789687Y142948407D01*
X-120869574Y143083489D01*
X-120875238Y143090791D01*
X-120986209Y143201762D01*
X-120993511Y143207426D01*
X-121118995Y143281636D01*
X-121151124Y143320751D01*
X-121150595Y143371367D01*
X-121133698Y143397610D01*
X-121111031Y143420317D01*
X-121111027Y143420322D01*
X-121106707Y143424650D01*
X-121069803Y143500148D01*
X-121033362Y143535277D01*
X-120982863Y143538765D01*
X-120941937Y143508976D01*
X-120934955Y143495969D01*
X-120920536Y143461159D01*
X-120917586Y143457315D01*
X-120917584Y143457311D01*
X-120845360Y143363187D01*
X-120824282Y143335718D01*
X-120820431Y143332763D01*
X-120702689Y143242416D01*
X-120702685Y143242414D01*
X-120698841Y143239464D01*
X-120552762Y143178956D01*
X-120547960Y143178324D01*
X-120547957Y143178323D01*
X-120400808Y143158951D01*
X-120396000Y143158318D01*
X-120391192Y143158951D01*
X-120244043Y143178323D01*
X-120244040Y143178324D01*
X-120239238Y143178956D01*
X-120093159Y143239464D01*
X-120089315Y143242414D01*
X-120089311Y143242416D01*
X-119971569Y143332763D01*
X-119967718Y143335718D01*
X-119930249Y143384549D01*
X-119887559Y143411746D01*
X-119871542Y143413500D01*
X-109490458Y143413500D01*
X-109442892Y143396187D01*
X-109431752Y143384550D01*
X-109394282Y143335718D01*
X-109390431Y143332763D01*
X-109272689Y143242416D01*
X-109272685Y143242414D01*
X-109268841Y143239464D01*
X-109122762Y143178956D01*
X-109117960Y143178324D01*
X-109117957Y143178323D01*
X-108970808Y143158951D01*
X-108966000Y143158318D01*
X-108961192Y143158951D01*
X-108814043Y143178323D01*
X-108814040Y143178324D01*
X-108809238Y143178956D01*
X-108663159Y143239464D01*
X-108659315Y143242414D01*
X-108659311Y143242416D01*
X-108541569Y143332763D01*
X-108537718Y143335718D01*
X-108516640Y143363187D01*
X-108444416Y143457311D01*
X-108444414Y143457315D01*
X-108441464Y143461159D01*
X-108380956Y143607238D01*
X-108373535Y143663602D01*
X-108360951Y143759192D01*
X-108360318Y143764000D01*
X-108368333Y143824880D01*
X-108380323Y143915957D01*
X-108380324Y143915960D01*
X-108380956Y143920762D01*
X-108441464Y144066841D01*
X-108444414Y144070685D01*
X-108444416Y144070689D01*
X-108534763Y144188431D01*
X-108534764Y144188432D01*
X-108537718Y144192282D01*
X-108573752Y144219932D01*
X-108659311Y144285584D01*
X-108659315Y144285586D01*
X-108663159Y144288536D01*
X-108809238Y144349044D01*
X-108814040Y144349676D01*
X-108814043Y144349677D01*
X-108961192Y144369049D01*
X-108966000Y144369682D01*
X-108970808Y144369049D01*
X-109117957Y144349677D01*
X-109117960Y144349676D01*
X-109122762Y144349044D01*
X-109268841Y144288536D01*
X-109272685Y144285586D01*
X-109272689Y144285584D01*
X-109358248Y144219932D01*
X-109394282Y144192282D01*
X-109397236Y144188432D01*
X-109397237Y144188431D01*
X-109431750Y144143452D01*
X-109474441Y144116254D01*
X-109490458Y144114500D01*
X-119871542Y144114500D01*
X-119919108Y144131813D01*
X-119930250Y144143452D01*
X-119964764Y144188432D01*
X-119967718Y144192282D01*
X-119971566Y144195234D01*
X-119973828Y144197497D01*
X-119995219Y144243374D01*
X-119995500Y144249821D01*
X-119995500Y144423012D01*
X-119978187Y144470578D01*
X-119934350Y144495888D01*
X-119893182Y144491379D01*
X-119795243Y144450812D01*
X-119790762Y144448956D01*
X-119785960Y144448324D01*
X-119785957Y144448323D01*
X-119638808Y144428951D01*
X-119634000Y144428318D01*
X-119629192Y144428951D01*
X-119482043Y144448323D01*
X-119482040Y144448324D01*
X-119477238Y144448956D01*
X-119331159Y144509464D01*
X-119327315Y144512414D01*
X-119327311Y144512416D01*
X-119209569Y144602763D01*
X-119205718Y144605718D01*
X-119168249Y144654549D01*
X-119125559Y144681746D01*
X-119109542Y144683500D01*
X-111776458Y144683500D01*
X-111728892Y144666187D01*
X-111717752Y144654550D01*
X-111680282Y144605718D01*
X-111676431Y144602763D01*
X-111558689Y144512416D01*
X-111558685Y144512414D01*
X-111554841Y144509464D01*
X-111408762Y144448956D01*
X-111403960Y144448324D01*
X-111403957Y144448323D01*
X-111256808Y144428951D01*
X-111252000Y144428318D01*
X-111247192Y144428951D01*
X-111100043Y144448323D01*
X-111100040Y144448324D01*
X-111095238Y144448956D01*
X-110949159Y144509464D01*
X-110945315Y144512414D01*
X-110945311Y144512416D01*
X-110827569Y144602763D01*
X-110823718Y144605718D01*
X-110786249Y144654549D01*
X-110743559Y144681746D01*
X-110727542Y144683500D01*
X-107871834Y144683500D01*
X-107824268Y144666187D01*
X-107819508Y144661826D01*
X-105091868Y141934187D01*
X-105082027Y141922001D01*
X-105078145Y141915989D01*
X-105074825Y141910848D01*
X-105070023Y141907062D01*
X-105070019Y141907058D01*
X-105048505Y141890098D01*
X-105041992Y141884311D01*
X-105039253Y141881572D01*
X-105036773Y141879800D01*
X-105036771Y141879798D01*
X-105023932Y141870623D01*
X-105021170Y141868550D01*
X-104983189Y141838608D01*
X-104977419Y141836582D01*
X-104976383Y141836012D01*
X-104975680Y141835570D01*
X-104975140Y141835289D01*
X-104974383Y141834972D01*
X-104973307Y141834445D01*
X-104968331Y141830889D01*
X-104962469Y141829136D01*
X-104922023Y141817040D01*
X-104918707Y141815963D01*
X-104911374Y141813388D01*
X-104873094Y141799945D01*
X-104867956Y141799500D01*
X-104866619Y141799500D01*
X-104862088Y141799116D01*
X-104856536Y141797456D01*
X-104850426Y141797696D01*
X-104850425Y141797696D01*
X-104805963Y141799443D01*
X-104803058Y141799500D01*
X-104595000Y141799500D01*
X-104547434Y141782187D01*
X-104522124Y141738350D01*
X-104521000Y141725500D01*
X-104521000Y141597700D01*
X-104538313Y141550134D01*
X-104582150Y141524824D01*
X-104595000Y141523700D01*
X-108082508Y141523700D01*
X-108098082Y141525358D01*
X-108111060Y141528152D01*
X-108117135Y141527433D01*
X-108117136Y141527433D01*
X-108144341Y141524213D01*
X-108153039Y141523700D01*
X-108156915Y141523700D01*
X-108174494Y141520774D01*
X-108175485Y141520609D01*
X-108178934Y141520118D01*
X-108226938Y141514437D01*
X-108232452Y141511789D01*
X-108233594Y141511457D01*
X-108234392Y141511275D01*
X-108234990Y141511086D01*
X-108235752Y141510774D01*
X-108236867Y141510392D01*
X-108242903Y141509388D01*
X-108248285Y141506484D01*
X-108285444Y141486434D01*
X-108288539Y141484857D01*
X-108332126Y141463927D01*
X-108336074Y141460608D01*
X-108337019Y141459663D01*
X-108340493Y141456730D01*
X-108345594Y141453978D01*
X-108349748Y141449484D01*
X-108379940Y141416823D01*
X-108381954Y141414728D01*
X-108588993Y141207689D01*
X-108634869Y141186297D01*
X-108650975Y141186648D01*
X-108712000Y141194682D01*
X-108716808Y141194049D01*
X-108863957Y141174677D01*
X-108863960Y141174676D01*
X-108868762Y141174044D01*
X-109014841Y141113536D01*
X-109018685Y141110586D01*
X-109018689Y141110584D01*
X-109121357Y141031804D01*
X-109140282Y141017282D01*
X-109143237Y141013431D01*
X-109233584Y140895689D01*
X-109233586Y140895685D01*
X-109236536Y140891841D01*
X-109297044Y140745762D01*
X-109297676Y140740960D01*
X-109297677Y140740957D01*
X-109311068Y140639237D01*
X-109317682Y140589000D01*
X-109317049Y140584192D01*
X-109298174Y140440825D01*
X-109297044Y140432238D01*
X-109236536Y140286159D01*
X-109233586Y140282315D01*
X-109233584Y140282311D01*
X-109143237Y140164569D01*
X-109140282Y140160718D01*
X-109136431Y140157763D01*
X-109018689Y140067416D01*
X-109018685Y140067414D01*
X-109014841Y140064464D01*
X-108868762Y140003956D01*
X-108863960Y140003324D01*
X-108863957Y140003323D01*
X-108716808Y139983951D01*
X-108712000Y139983318D01*
X-108707192Y139983951D01*
X-108560043Y140003323D01*
X-108560040Y140003324D01*
X-108555238Y140003956D01*
X-108409159Y140064464D01*
X-108405315Y140067414D01*
X-108405311Y140067416D01*
X-108287569Y140157763D01*
X-108283718Y140160718D01*
X-108280763Y140164569D01*
X-108190416Y140282311D01*
X-108190414Y140282315D01*
X-108187464Y140286159D01*
X-108126956Y140432238D01*
X-108125825Y140440825D01*
X-108106951Y140584192D01*
X-108106318Y140589000D01*
X-108114352Y140650023D01*
X-108103396Y140699441D01*
X-108093311Y140712007D01*
X-108004292Y140801026D01*
X-107958416Y140822418D01*
X-107951966Y140822700D01*
X-104595000Y140822700D01*
X-104547434Y140805387D01*
X-104522124Y140761550D01*
X-104521000Y140748700D01*
X-104521000Y138646744D01*
X-104538313Y138599178D01*
X-104578291Y138574655D01*
X-104660159Y138555679D01*
X-104756015Y138533461D01*
X-104758622Y138532421D01*
X-104758628Y138532419D01*
X-104993710Y138438631D01*
X-104993716Y138438628D01*
X-104996318Y138437590D01*
X-104998737Y138436168D01*
X-104998741Y138436166D01*
X-105216929Y138307899D01*
X-105216933Y138307896D01*
X-105219354Y138306473D01*
X-105419991Y138143129D01*
X-105593613Y137951315D01*
X-105595163Y137948969D01*
X-105595166Y137948965D01*
X-105676778Y137825428D01*
X-105736222Y137735447D01*
X-105737400Y137732892D01*
X-105737401Y137732890D01*
X-105810128Y137575133D01*
X-105844538Y137500491D01*
X-105845314Y137497794D01*
X-105845318Y137497783D01*
X-105856320Y137459541D01*
X-105886108Y137418615D01*
X-105927435Y137406000D01*
X-112566800Y137406000D01*
X-112614366Y137423313D01*
X-112636873Y137456213D01*
X-112676338Y137572473D01*
X-112676338Y137572474D01*
X-112677241Y137575133D01*
X-112690296Y137600265D01*
X-112795212Y137802236D01*
X-112795212Y137802237D01*
X-112796505Y137804725D01*
X-112810191Y137823460D01*
X-112947468Y138011368D01*
X-112947469Y138011369D01*
X-112949125Y138013636D01*
X-113075167Y138140340D01*
X-113129607Y138195066D01*
X-113129610Y138195068D01*
X-113131589Y138197058D01*
X-113339698Y138350770D01*
X-113386213Y138375242D01*
X-113566170Y138469923D01*
X-113566177Y138469926D01*
X-113568663Y138471234D01*
X-113813215Y138555679D01*
X-113815976Y138556183D01*
X-113815979Y138556184D01*
X-113920226Y138575223D01*
X-114067726Y138602161D01*
X-114070088Y138602285D01*
X-114070090Y138602285D01*
X-114149558Y138606450D01*
X-114149572Y138606450D01*
X-114150519Y138606500D01*
X-114311782Y138606500D01*
X-114383247Y138601064D01*
X-114501182Y138592093D01*
X-114501188Y138592092D01*
X-114503976Y138591880D01*
X-114756015Y138533461D01*
X-114758622Y138532421D01*
X-114758628Y138532419D01*
X-114993710Y138438631D01*
X-114993716Y138438628D01*
X-114996318Y138437590D01*
X-114998737Y138436168D01*
X-114998741Y138436166D01*
X-115216929Y138307899D01*
X-115216933Y138307896D01*
X-115219354Y138306473D01*
X-115419991Y138143129D01*
X-115593613Y137951315D01*
X-115595163Y137948969D01*
X-115595166Y137948965D01*
X-115676778Y137825428D01*
X-115736222Y137735447D01*
X-115737400Y137732892D01*
X-115737401Y137732890D01*
X-115810128Y137575133D01*
X-115844538Y137500491D01*
X-115845314Y137497794D01*
X-115845318Y137497783D01*
X-115856320Y137459541D01*
X-115886108Y137418615D01*
X-115927435Y137406000D01*
X-117461837Y137406000D01*
X-117509403Y137423313D01*
X-117534713Y137467150D01*
X-117525923Y137517000D01*
X-117501270Y137542618D01*
X-117414820Y137597058D01*
X-117314192Y137660427D01*
X-117214626Y137748206D01*
X-117129267Y137823460D01*
X-117129266Y137823462D01*
X-117127035Y137825428D01*
X-117040079Y137931290D01*
X-116970553Y138015932D01*
X-116970550Y138015937D01*
X-116968666Y138018230D01*
X-116843160Y138233872D01*
X-116842098Y138236639D01*
X-116842095Y138236645D01*
X-116754809Y138464033D01*
X-116754809Y138464034D01*
X-116753745Y138466805D01*
X-116727748Y138591247D01*
X-116703329Y138708131D01*
X-116703328Y138708137D01*
X-116702722Y138711039D01*
X-116702010Y138726703D01*
X-116691539Y138957321D01*
X-116691404Y138960288D01*
X-116697159Y139010033D01*
X-116719740Y139205192D01*
X-116720081Y139208140D01*
X-116788017Y139448219D01*
X-116893462Y139674348D01*
X-116895130Y139676803D01*
X-117032033Y139878249D01*
X-117032036Y139878253D01*
X-117033706Y139880710D01*
X-117035747Y139882868D01*
X-117035750Y139882872D01*
X-117203100Y140059839D01*
X-117203101Y140059840D01*
X-117205138Y140061994D01*
X-117403349Y140213538D01*
X-117405962Y140214939D01*
X-117405968Y140214943D01*
X-117547139Y140290638D01*
X-117623239Y140331443D01*
X-117626056Y140332413D01*
X-117856339Y140411706D01*
X-117856346Y140411708D01*
X-117859152Y140412674D01*
X-118105017Y140455142D01*
X-118107334Y140455247D01*
X-118107341Y140455248D01*
X-118124420Y140456023D01*
X-118134922Y140456500D01*
X-118308691Y140456500D01*
X-118310165Y140456381D01*
X-118310175Y140456381D01*
X-118424455Y140447186D01*
X-118494702Y140441534D01*
X-118737006Y140382018D01*
X-118851841Y140333274D01*
X-118963933Y140285694D01*
X-118963936Y140285693D01*
X-118966677Y140284529D01*
X-118969197Y140282942D01*
X-118969199Y140282941D01*
X-118992401Y140268330D01*
X-119177808Y140151573D01*
X-119180040Y140149605D01*
X-119279415Y140061994D01*
X-119364965Y139986572D01*
X-119366854Y139984272D01*
X-119521447Y139796068D01*
X-119521450Y139796063D01*
X-119523334Y139793770D01*
X-119648840Y139578128D01*
X-119649902Y139575361D01*
X-119649905Y139575355D01*
X-119722224Y139386957D01*
X-119738255Y139345195D01*
X-119738862Y139342288D01*
X-119788671Y139103869D01*
X-119788672Y139103863D01*
X-119789278Y139100961D01*
X-119800596Y138851712D01*
X-119771919Y138603860D01*
X-119703983Y138363781D01*
X-119598538Y138137652D01*
X-119596872Y138135201D01*
X-119596870Y138135197D01*
X-119471903Y137951315D01*
X-119458294Y137931290D01*
X-119456253Y137929132D01*
X-119456250Y137929128D01*
X-119360360Y137827728D01*
X-119286862Y137750006D01*
X-119088651Y137598462D01*
X-119040182Y137572473D01*
X-118989348Y137545216D01*
X-118955609Y137507481D01*
X-118954019Y137456887D01*
X-118985322Y137417108D01*
X-119024317Y137406000D01*
X-122566800Y137406000D01*
X-122614366Y137423313D01*
X-122636873Y137456213D01*
X-122676338Y137572473D01*
X-122676338Y137572474D01*
X-122677241Y137575133D01*
X-122690296Y137600265D01*
X-122795212Y137802236D01*
X-122795212Y137802237D01*
X-122796505Y137804725D01*
X-122810191Y137823460D01*
X-122947468Y138011368D01*
X-122947469Y138011369D01*
X-122949125Y138013636D01*
X-123075167Y138140340D01*
X-123129607Y138195066D01*
X-123129610Y138195068D01*
X-123131589Y138197058D01*
X-123339698Y138350770D01*
X-123386213Y138375242D01*
X-123566170Y138469923D01*
X-123566177Y138469926D01*
X-123568663Y138471234D01*
X-123813215Y138555679D01*
X-123815976Y138556183D01*
X-123815979Y138556184D01*
X-123920226Y138575223D01*
X-124067726Y138602161D01*
X-124070088Y138602285D01*
X-124070090Y138602285D01*
X-124149558Y138606450D01*
X-124149572Y138606450D01*
X-124150519Y138606500D01*
X-124311782Y138606500D01*
X-124383247Y138601064D01*
X-124501182Y138592093D01*
X-124501188Y138592092D01*
X-124503976Y138591880D01*
X-124756015Y138533461D01*
X-124758622Y138532421D01*
X-124758628Y138532419D01*
X-124993710Y138438631D01*
X-124993716Y138438628D01*
X-124996318Y138437590D01*
X-124998737Y138436168D01*
X-124998741Y138436166D01*
X-125216929Y138307899D01*
X-125216933Y138307896D01*
X-125219354Y138306473D01*
X-125419991Y138143129D01*
X-125593613Y137951315D01*
X-125595163Y137948969D01*
X-125595166Y137948965D01*
X-125676778Y137825428D01*
X-125736222Y137735447D01*
X-125737400Y137732892D01*
X-125737401Y137732890D01*
X-125810128Y137575133D01*
X-125844538Y137500491D01*
X-125845314Y137497794D01*
X-125845318Y137497783D01*
X-125856320Y137459541D01*
X-125886108Y137418615D01*
X-125927435Y137406000D01*
X-126172000Y137406000D01*
X-126219566Y137423313D01*
X-126244876Y137467150D01*
X-126246000Y137480000D01*
X-126246000Y139599000D01*
X-126228687Y139646566D01*
X-126184850Y139671876D01*
X-126172000Y139673000D01*
X-125563048Y139673000D01*
X-125553052Y139676638D01*
X-125550000Y139681925D01*
X-125550000Y139686049D01*
X-125042000Y139686049D01*
X-125038362Y139676053D01*
X-125033075Y139673001D01*
X-124147546Y139673001D01*
X-124143741Y139673198D01*
X-124043966Y139683550D01*
X-124036092Y139685251D01*
X-123876350Y139738544D01*
X-123868611Y139742169D01*
X-123725623Y139830653D01*
X-123718924Y139835964D01*
X-123600132Y139954962D01*
X-123594832Y139961672D01*
X-123506597Y140104816D01*
X-123502989Y140112555D01*
X-123471331Y140208000D01*
X-120874682Y140208000D01*
X-120874049Y140203192D01*
X-120855176Y140059839D01*
X-120854044Y140051238D01*
X-120793536Y139905159D01*
X-120790586Y139901315D01*
X-120790584Y139901311D01*
X-120706092Y139791199D01*
X-120697282Y139779718D01*
X-120693431Y139776763D01*
X-120575689Y139686416D01*
X-120575685Y139686414D01*
X-120571841Y139683464D01*
X-120425762Y139622956D01*
X-120420960Y139622324D01*
X-120420957Y139622323D01*
X-120273808Y139602951D01*
X-120269000Y139602318D01*
X-120264192Y139602951D01*
X-120117043Y139622323D01*
X-120117040Y139622324D01*
X-120112238Y139622956D01*
X-119966159Y139683464D01*
X-119962315Y139686414D01*
X-119962311Y139686416D01*
X-119844569Y139776763D01*
X-119840718Y139779718D01*
X-119831908Y139791199D01*
X-119747416Y139901311D01*
X-119747414Y139901315D01*
X-119744464Y139905159D01*
X-119683956Y140051238D01*
X-119682823Y140059839D01*
X-119663951Y140203192D01*
X-119663318Y140208000D01*
X-119668639Y140248421D01*
X-119683323Y140359957D01*
X-119683324Y140359960D01*
X-119683956Y140364762D01*
X-119744464Y140510841D01*
X-119747414Y140514685D01*
X-119747416Y140514689D01*
X-119795576Y140577452D01*
X-119810798Y140625728D01*
X-119791426Y140672494D01*
X-119746527Y140695867D01*
X-119736868Y140696500D01*
X-116147545Y140696500D01*
X-116099979Y140679187D01*
X-116095219Y140674826D01*
X-115688723Y140268330D01*
X-115667331Y140222454D01*
X-115667049Y140216004D01*
X-115667049Y140212808D01*
X-115667682Y140208000D01*
X-115667049Y140203192D01*
X-115648176Y140059839D01*
X-115647044Y140051238D01*
X-115586536Y139905159D01*
X-115583586Y139901315D01*
X-115583584Y139901311D01*
X-115499092Y139791199D01*
X-115490282Y139779718D01*
X-115486431Y139776763D01*
X-115368689Y139686416D01*
X-115368685Y139686414D01*
X-115364841Y139683464D01*
X-115218762Y139622956D01*
X-115213960Y139622324D01*
X-115213957Y139622323D01*
X-115066808Y139602951D01*
X-115062000Y139602318D01*
X-115057192Y139602951D01*
X-114910043Y139622323D01*
X-114910040Y139622324D01*
X-114905238Y139622956D01*
X-114759159Y139683464D01*
X-114755315Y139686414D01*
X-114755311Y139686416D01*
X-114637569Y139776763D01*
X-114633718Y139779718D01*
X-114624908Y139791199D01*
X-114540416Y139901311D01*
X-114540414Y139901315D01*
X-114537464Y139905159D01*
X-114476956Y140051238D01*
X-114475823Y140059839D01*
X-114456951Y140203192D01*
X-114456318Y140208000D01*
X-114461639Y140248421D01*
X-114476323Y140359957D01*
X-114476324Y140359960D01*
X-114476956Y140364762D01*
X-114537464Y140510841D01*
X-114540414Y140514685D01*
X-114540416Y140514689D01*
X-114630763Y140632431D01*
X-114630764Y140632432D01*
X-114633718Y140636282D01*
X-114661500Y140657600D01*
X-114755311Y140729584D01*
X-114755315Y140729586D01*
X-114759159Y140732536D01*
X-114905238Y140793044D01*
X-114910040Y140793676D01*
X-114910043Y140793677D01*
X-115057192Y140813049D01*
X-115062000Y140813682D01*
X-115066808Y140813049D01*
X-115070004Y140813049D01*
X-115117570Y140830362D01*
X-115122330Y140834723D01*
X-115690090Y141402483D01*
X-115690099Y141402491D01*
X-115712658Y141425050D01*
X-115717847Y141427694D01*
X-115735902Y141436894D01*
X-115745802Y141442961D01*
X-115762196Y141454872D01*
X-115762201Y141454874D01*
X-115766910Y141458296D01*
X-115772448Y141460095D01*
X-115772449Y141460096D01*
X-115791722Y141466358D01*
X-115802450Y141470802D01*
X-115820503Y141480000D01*
X-115825696Y141482646D01*
X-115844417Y141485611D01*
X-115851463Y141486727D01*
X-115862754Y141489438D01*
X-115882026Y141495700D01*
X-115882029Y141495700D01*
X-115887567Y141497500D01*
X-120046519Y141497500D01*
X-120046523Y141497499D01*
X-120078433Y141497499D01*
X-120083972Y141495699D01*
X-120083974Y141495699D01*
X-120093606Y141492569D01*
X-120103243Y141489438D01*
X-120114527Y141486729D01*
X-120140304Y141482646D01*
X-120145497Y141480000D01*
X-120163552Y141470801D01*
X-120174280Y141466357D01*
X-120199090Y141458296D01*
X-120216019Y141445996D01*
X-120220197Y141442961D01*
X-120230094Y141436895D01*
X-120253342Y141425050D01*
X-120275909Y141402483D01*
X-120574484Y141103909D01*
X-120574487Y141103905D01*
X-120597050Y141081342D01*
X-120599694Y141076154D01*
X-120599694Y141076153D01*
X-120608894Y141058098D01*
X-120614961Y141048198D01*
X-120626872Y141031804D01*
X-120626874Y141031799D01*
X-120630296Y141027090D01*
X-120632095Y141021552D01*
X-120632096Y141021551D01*
X-120638358Y141002278D01*
X-120642802Y140991550D01*
X-120647026Y140983259D01*
X-120654646Y140968304D01*
X-120655557Y140962551D01*
X-120658727Y140942537D01*
X-120661438Y140931246D01*
X-120667700Y140911974D01*
X-120669500Y140906433D01*
X-120669500Y140693821D01*
X-120686813Y140646255D01*
X-120691172Y140641497D01*
X-120693434Y140639234D01*
X-120697282Y140636282D01*
X-120700236Y140632432D01*
X-120790584Y140514689D01*
X-120790586Y140514685D01*
X-120793536Y140510841D01*
X-120854044Y140364762D01*
X-120854676Y140359960D01*
X-120854677Y140359957D01*
X-120869361Y140248421D01*
X-120874682Y140208000D01*
X-123471331Y140208000D01*
X-123449969Y140272402D01*
X-123448284Y140280263D01*
X-123438193Y140378758D01*
X-123438000Y140382529D01*
X-123438000Y140413952D01*
X-123441638Y140423948D01*
X-123446925Y140427000D01*
X-125028952Y140427000D01*
X-125038948Y140423362D01*
X-125042000Y140418075D01*
X-125042000Y139686049D01*
X-125550000Y139686049D01*
X-125550000Y140948048D01*
X-125042000Y140948048D01*
X-125038362Y140938052D01*
X-125033075Y140935000D01*
X-123451049Y140935000D01*
X-123441053Y140938638D01*
X-123438001Y140943925D01*
X-123438001Y140979454D01*
X-123438198Y140983259D01*
X-123448550Y141083034D01*
X-123450251Y141090908D01*
X-123503544Y141250650D01*
X-123507169Y141258389D01*
X-123595653Y141401377D01*
X-123600964Y141408076D01*
X-123719962Y141526868D01*
X-123726672Y141532168D01*
X-123869816Y141620403D01*
X-123877555Y141624011D01*
X-124037402Y141677031D01*
X-124045263Y141678716D01*
X-124143758Y141688807D01*
X-124147529Y141689000D01*
X-125028952Y141689000D01*
X-125038948Y141685362D01*
X-125042000Y141680075D01*
X-125042000Y140948048D01*
X-125550000Y140948048D01*
X-125550000Y141675951D01*
X-125553638Y141685947D01*
X-125558925Y141688999D01*
X-126172000Y141688999D01*
X-126219566Y141706312D01*
X-126244876Y141750149D01*
X-126246000Y141762999D01*
X-126246000Y142271894D01*
X-123448788Y142271894D01*
X-123448623Y142268841D01*
X-123405980Y142122068D01*
X-123402313Y142113593D01*
X-123322426Y141978511D01*
X-123316762Y141971209D01*
X-123205791Y141860238D01*
X-123198489Y141854574D01*
X-123063407Y141774687D01*
X-123054932Y141771020D01*
X-122903379Y141726989D01*
X-122895985Y141725639D01*
X-122863904Y141723114D01*
X-122861005Y141723000D01*
X-122363048Y141723000D01*
X-122353052Y141726638D01*
X-122350000Y141731925D01*
X-122350000Y141736049D01*
X-121842000Y141736049D01*
X-121838362Y141726053D01*
X-121833075Y141723001D01*
X-121330998Y141723001D01*
X-121328093Y141723115D01*
X-121296022Y141725638D01*
X-121288616Y141726990D01*
X-121137068Y141771020D01*
X-121128593Y141774687D01*
X-120993511Y141854574D01*
X-120986209Y141860238D01*
X-120875238Y141971209D01*
X-120869574Y141978511D01*
X-120789687Y142113593D01*
X-120786020Y142122068D01*
X-120744647Y142264471D01*
X-120745352Y142275083D01*
X-120746526Y142276307D01*
X-120749502Y142277000D01*
X-121828952Y142277000D01*
X-121838948Y142273362D01*
X-121842000Y142268075D01*
X-121842000Y141736049D01*
X-122350000Y141736049D01*
X-122350000Y142263952D01*
X-122353638Y142273948D01*
X-122358925Y142277000D01*
X-123437945Y142277000D01*
X-123447941Y142273362D01*
X-123448788Y142271894D01*
X-126246000Y142271894D01*
X-126246000Y146304000D01*
X-124557682Y146304000D01*
X-124537044Y146147238D01*
X-124476536Y146001159D01*
X-124473586Y145997315D01*
X-124473584Y145997311D01*
X-124445353Y145960520D01*
X-124380282Y145875718D01*
X-124376432Y145872764D01*
X-124376431Y145872763D01*
X-124258689Y145782416D01*
X-124258685Y145782414D01*
X-124254841Y145779464D01*
X-124108762Y145718956D01*
X-124103960Y145718324D01*
X-124103957Y145718323D01*
X-123956808Y145698951D01*
X-123952000Y145698318D01*
X-123947192Y145698951D01*
X-123800043Y145718323D01*
X-123800040Y145718324D01*
X-123795238Y145718956D01*
X-123649159Y145779464D01*
X-123645315Y145782414D01*
X-123645311Y145782416D01*
X-123527568Y145872764D01*
X-123523718Y145875718D01*
X-123520766Y145879566D01*
X-123518503Y145881828D01*
X-123472626Y145903219D01*
X-123466179Y145903500D01*
X-123094865Y145903500D01*
X-123047299Y145886187D01*
X-123042585Y145881871D01*
X-123006682Y145846031D01*
X-123002350Y145841707D01*
X-122996853Y145839020D01*
X-122903066Y145793176D01*
X-122897518Y145790464D01*
X-122829218Y145780500D01*
X-121362782Y145780500D01*
X-121349875Y145782400D01*
X-121299577Y145789804D01*
X-121299574Y145789805D01*
X-121293888Y145790642D01*
X-121288728Y145793175D01*
X-121288726Y145793176D01*
X-121242883Y145815684D01*
X-121189145Y145842068D01*
X-121184821Y145846400D01*
X-121184819Y145846401D01*
X-121172461Y145858780D01*
X-121126604Y145880213D01*
X-121120090Y145880500D01*
X-120855633Y145880500D01*
X-120810585Y145865208D01*
X-120702689Y145782416D01*
X-120702685Y145782414D01*
X-120698841Y145779464D01*
X-120552762Y145718956D01*
X-120547960Y145718324D01*
X-120547957Y145718323D01*
X-120400808Y145698951D01*
X-120396000Y145698318D01*
X-120391192Y145698951D01*
X-120244043Y145718323D01*
X-120244040Y145718324D01*
X-120239238Y145718956D01*
X-120093159Y145779464D01*
X-120089315Y145782414D01*
X-120089311Y145782416D01*
X-119971569Y145872763D01*
X-119971568Y145872764D01*
X-119967718Y145875718D01*
X-119902647Y145960520D01*
X-119874416Y145997311D01*
X-119874414Y145997315D01*
X-119871464Y146001159D01*
X-119810956Y146147238D01*
X-119790318Y146304000D01*
X-119810956Y146460762D01*
X-119871464Y146606841D01*
X-119874414Y146610685D01*
X-119874416Y146610689D01*
X-119964763Y146728431D01*
X-119967718Y146732282D01*
X-119971569Y146735237D01*
X-120089311Y146825584D01*
X-120089315Y146825586D01*
X-120093159Y146828536D01*
X-120239238Y146889044D01*
X-120244040Y146889676D01*
X-120244043Y146889677D01*
X-120391192Y146909049D01*
X-120396000Y146909682D01*
X-120400808Y146909049D01*
X-120547957Y146889677D01*
X-120547960Y146889676D01*
X-120552762Y146889044D01*
X-120698841Y146828536D01*
X-120702685Y146825586D01*
X-120702689Y146825584D01*
X-120820431Y146735237D01*
X-120824282Y146732282D01*
X-120836797Y146715972D01*
X-120841033Y146710451D01*
X-120883725Y146683254D01*
X-120899741Y146681500D01*
X-121120175Y146681500D01*
X-121167741Y146698813D01*
X-121172455Y146703128D01*
X-121185321Y146715972D01*
X-121185322Y146715973D01*
X-121189650Y146720293D01*
X-121220222Y146735237D01*
X-121289318Y146769012D01*
X-121289319Y146769012D01*
X-121294482Y146771536D01*
X-121362782Y146781500D01*
X-122829218Y146781500D01*
X-122831901Y146781105D01*
X-122892423Y146772196D01*
X-122892426Y146772195D01*
X-122898112Y146771358D01*
X-122903272Y146768825D01*
X-122903274Y146768824D01*
X-122949117Y146746316D01*
X-123002855Y146719932D01*
X-123004967Y146717816D01*
X-123046444Y146704500D01*
X-123466179Y146704500D01*
X-123513745Y146721813D01*
X-123518503Y146726172D01*
X-123520766Y146728434D01*
X-123523718Y146732282D01*
X-123554838Y146756161D01*
X-123645311Y146825584D01*
X-123645315Y146825586D01*
X-123649159Y146828536D01*
X-123795238Y146889044D01*
X-123800040Y146889676D01*
X-123800043Y146889677D01*
X-123947192Y146909049D01*
X-123952000Y146909682D01*
X-123956808Y146909049D01*
X-124103957Y146889677D01*
X-124103960Y146889676D01*
X-124108762Y146889044D01*
X-124254841Y146828536D01*
X-124258685Y146825586D01*
X-124258689Y146825584D01*
X-124376431Y146735237D01*
X-124380282Y146732282D01*
X-124383237Y146728431D01*
X-124473584Y146610689D01*
X-124473586Y146610685D01*
X-124476536Y146606841D01*
X-124537044Y146460762D01*
X-124557682Y146304000D01*
X-126246000Y146304000D01*
X-126246000Y147049000D01*
X-126228687Y147096566D01*
X-126184850Y147121876D01*
X-126172000Y147123000D01*
X-125563048Y147123000D01*
X-125553052Y147126638D01*
X-125550000Y147131925D01*
X-125550000Y147136049D01*
X-125042000Y147136049D01*
X-125038362Y147126053D01*
X-125033075Y147123001D01*
X-124147546Y147123001D01*
X-124143741Y147123198D01*
X-124043966Y147133550D01*
X-124036092Y147135251D01*
X-123876350Y147188544D01*
X-123868611Y147192169D01*
X-123725623Y147280653D01*
X-123718924Y147285964D01*
X-123600132Y147404962D01*
X-123594832Y147411672D01*
X-123506597Y147554816D01*
X-123502989Y147562555D01*
X-123449969Y147722402D01*
X-123448284Y147730263D01*
X-123438193Y147828758D01*
X-123438000Y147832529D01*
X-123438000Y147863952D01*
X-123441638Y147873948D01*
X-123446925Y147877000D01*
X-125028952Y147877000D01*
X-125038948Y147873362D01*
X-125042000Y147868075D01*
X-125042000Y147136049D01*
X-125550000Y147136049D01*
X-125550000Y148398048D01*
X-125042000Y148398048D01*
X-125038362Y148388052D01*
X-125033075Y148385000D01*
X-123451049Y148385000D01*
X-123441053Y148388638D01*
X-123438001Y148393925D01*
X-123438001Y148429454D01*
X-123438198Y148433259D01*
X-123448550Y148533034D01*
X-123450251Y148540908D01*
X-123503544Y148700650D01*
X-123507169Y148708389D01*
X-123595653Y148851377D01*
X-123600964Y148858076D01*
X-123719962Y148976868D01*
X-123726672Y148982168D01*
X-123869816Y149070403D01*
X-123877555Y149074011D01*
X-124037402Y149127031D01*
X-124045263Y149128716D01*
X-124143758Y149138807D01*
X-124147529Y149139000D01*
X-125028952Y149139000D01*
X-125038948Y149135362D01*
X-125042000Y149130075D01*
X-125042000Y148398048D01*
X-125550000Y148398048D01*
X-125550000Y149125951D01*
X-125553638Y149135947D01*
X-125558925Y149138999D01*
X-126172000Y149138999D01*
X-126219566Y149156312D01*
X-126244876Y149200149D01*
X-126246000Y149212999D01*
X-126246000Y151332000D01*
X-126228687Y151379566D01*
X-126184850Y151404876D01*
X-126172000Y151406000D01*
X-125925200Y151406000D01*
X-125877634Y151388687D01*
G37*
%TD.AperFunction*%
%TD*%
M02*
