G04 #@! TF.GenerationSoftware,KiCad,Pcbnew,(5.99.0-10394-g2e15de97e0)*
G04 #@! TF.CreationDate,2021-04-26T16:11:07+02:00*
G04 #@! TF.ProjectId,TFHT01A,54464854-3031-4412-9e6b-696361645f70,REV*
G04 #@! TF.SameCoordinates,PX78dfd90PY8290510*
G04 #@! TF.FileFunction,Legend,Bot*
G04 #@! TF.FilePolarity,Positive*
%FSLAX46Y46*%
G04 Gerber Fmt 4.6, Leading zero omitted, Abs format (unit mm)*
G04 Created by KiCad (PCBNEW (5.99.0-10394-g2e15de97e0)) date 2021-04-26 16:11:07*
%MOMM*%
%LPD*%
G01*
G04 APERTURE LIST*
%ADD10C,0.150000*%
%ADD11C,0.120000*%
G04 APERTURE END LIST*
D10*
G04 #@! TO.C,JP1*
X-107878667Y141285619D02*
X-107878667Y140571333D01*
X-107831048Y140428476D01*
X-107735810Y140333238D01*
X-107592953Y140285619D01*
X-107497715Y140285619D01*
X-108354858Y140285619D02*
X-108354858Y141285619D01*
X-108735810Y141285619D01*
X-108831048Y141238000D01*
X-108878667Y141190380D01*
X-108926286Y141095142D01*
X-108926286Y140952285D01*
X-108878667Y140857047D01*
X-108831048Y140809428D01*
X-108735810Y140761809D01*
X-108354858Y140761809D01*
X-109878667Y140285619D02*
X-109307239Y140285619D01*
X-109592953Y140285619D02*
X-109592953Y141285619D01*
X-109497715Y141142761D01*
X-109402477Y141047523D01*
X-109307239Y140999904D01*
G04 #@! TO.C,J1*
X-122594620Y139271333D02*
X-121880334Y139271333D01*
X-121737477Y139318952D01*
X-121642239Y139414190D01*
X-121594620Y139557047D01*
X-121594620Y139652285D01*
X-121594620Y138271333D02*
X-121594620Y138842761D01*
X-121594620Y138557047D02*
X-122594620Y138557047D01*
X-122451762Y138652285D01*
X-122356524Y138747523D01*
X-122308905Y138842761D01*
G04 #@! TO.C,U1*
X-98218620Y145167904D02*
X-97409096Y145167904D01*
X-97313858Y145120285D01*
X-97266239Y145072666D01*
X-97218620Y144977428D01*
X-97218620Y144786952D01*
X-97266239Y144691714D01*
X-97313858Y144644095D01*
X-97409096Y144596476D01*
X-98218620Y144596476D01*
X-97218620Y143596476D02*
X-97218620Y144167904D01*
X-97218620Y143882190D02*
X-98218620Y143882190D01*
X-98075762Y143977428D01*
X-97980524Y144072666D01*
X-97932905Y144167904D01*
D11*
G04 #@! TO.C,JP1*
X-107512000Y137738000D02*
X-107812000Y137438000D01*
X-107512000Y137738000D02*
X-107212000Y137438000D01*
X-106662000Y138638000D02*
X-106662000Y139238000D01*
X-110762000Y139238000D02*
X-110762000Y138638000D01*
X-110112000Y137938000D02*
X-107312000Y137938000D01*
X-107212000Y137438000D02*
X-107812000Y137438000D01*
X-107312000Y139938000D02*
X-110112000Y139938000D01*
X-107362000Y137938000D02*
G75*
G03*
X-106662000Y138638000I0J700000D01*
G01*
X-110762000Y138638000D02*
G75*
G03*
X-110062000Y137938000I700000J0D01*
G01*
X-106662000Y139238000D02*
G75*
G03*
X-107362000Y139938000I-700000J0D01*
G01*
X-110062000Y139938000D02*
G75*
G03*
X-110762000Y139238000I0J-700000D01*
G01*
G04 #@! TO.C,C4*
X-114425000Y142102721D02*
X-114425000Y142428279D01*
X-115445000Y142102721D02*
X-115445000Y142428279D01*
G04 #@! TO.C,D1*
X-119980000Y147701000D02*
X-119980000Y145851000D01*
X-118780000Y145851000D02*
X-119980000Y145851000D01*
X-118780000Y147701000D02*
X-118780000Y145851000D01*
G04 #@! TO.C,J1*
X-122236000Y141971000D02*
X-121246000Y141971000D01*
X-122236000Y140171000D02*
X-122236000Y141971000D01*
X-122236000Y148641000D02*
X-122236000Y146841000D01*
X-123686000Y148641000D02*
X-122236000Y148641000D01*
X-126506000Y141441000D02*
X-126506000Y147371000D01*
X-123686000Y140171000D02*
X-122236000Y140171000D01*
G04 #@! TO.C,R2*
X-108193721Y141730000D02*
X-108519279Y141730000D01*
X-108193721Y142750000D02*
X-108519279Y142750000D01*
D10*
G04 #@! TO.C,U1*
X-100946000Y143206000D02*
X-100946000Y145606000D01*
X-98546000Y143206000D02*
X-98546000Y145606000D01*
D11*
G04 #@! TO.C,C5*
X-100010279Y147445000D02*
X-99684721Y147445000D01*
X-100010279Y148465000D02*
X-99684721Y148465000D01*
G04 #@! TO.C,R4*
X-113599279Y140083000D02*
X-113273721Y140083000D01*
X-113599279Y139063000D02*
X-113273721Y139063000D01*
G04 #@! TO.C,C1*
X-114933000Y146242721D02*
X-114933000Y146568279D01*
X-115953000Y146242721D02*
X-115953000Y146568279D01*
G04 #@! TO.C,Q1*
X-112647000Y141041000D02*
X-112647000Y141971000D01*
X-112647000Y144201000D02*
X-110487000Y144201000D01*
X-112647000Y141041000D02*
X-111187000Y141041000D01*
X-112647000Y144201000D02*
X-112647000Y143271000D01*
G04 #@! TO.C,C3*
X-116459000Y146367500D02*
X-116459000Y147129500D01*
X-117983000Y146367500D02*
X-117983000Y147129500D01*
D10*
X-117983000Y145224500D02*
X-116459000Y145224500D01*
X-116459000Y148272500D02*
X-117983000Y148272500D01*
D11*
G04 #@! TO.C,U3*
X-116119000Y143902000D02*
X-116119000Y141452000D01*
X-119339000Y142102000D02*
X-119339000Y143902000D01*
G04 #@! TO.C,R3*
X-108456000Y147355779D02*
X-108456000Y147030221D01*
X-109476000Y147355779D02*
X-109476000Y147030221D01*
G04 #@! TO.C,R10*
X-110742000Y147330279D02*
X-110742000Y147004721D01*
X-111762000Y147330279D02*
X-111762000Y147004721D01*
G04 #@! TO.C,R1*
X-112901000Y147055721D02*
X-112901000Y147381279D01*
X-113921000Y147055721D02*
X-113921000Y147381279D01*
G04 #@! TD*
M02*
