%TF.GenerationSoftware,KiCad,Pcbnew,6.0.2+dfsg-1~bpo11+1*%
%TF.CreationDate,2022-03-16T18:02:24+00:00*%
%TF.ProjectId,TFHT01B,54464854-3031-4422-9e6b-696361645f70,rev?*%
%TF.SameCoordinates,PX78dfd90PY8290510*%
%TF.FileFunction,Plated,1,2,PTH,Drill*%
%TF.FilePolarity,Positive*%
%FSLAX46Y46*%
G04 Gerber Fmt 4.6, Leading zero omitted, Abs format (unit mm)*
G04 Created by KiCad (PCBNEW 6.0.2+dfsg-1~bpo11+1) date 2022-03-16 18:02:24*
%MOMM*%
%LPD*%
G01*
G04 APERTURE LIST*
%TA.AperFunction,ViaDrill*%
%ADD10C,0.400000*%
%TD*%
G04 APERTURE END LIST*
D10*
X-125730000Y145796000D03*
X-125730000Y144653000D03*
X-125730000Y143510000D03*
X-125603000Y149733000D03*
X-125603000Y142367000D03*
X-125603000Y139192000D03*
X-125095000Y146685000D03*
X-124587000Y149733000D03*
X-124460000Y139192000D03*
X-124079000Y143764000D03*
X-123952000Y146304000D03*
X-123571000Y149733000D03*
X-123317000Y139192000D03*
X-122809000Y148971000D03*
X-122682000Y147574000D03*
X-122555000Y141224000D03*
X-122555000Y140081000D03*
X-121666000Y147574000D03*
X-120396000Y146304000D03*
X-120396000Y143764000D03*
X-120269000Y140208000D03*
X-119634000Y145034000D03*
X-115062000Y140208000D03*
X-113792000Y141351000D03*
X-111633000Y150876000D03*
X-111633000Y149606000D03*
X-111379000Y138176000D03*
X-111252000Y145034000D03*
X-110490000Y140462000D03*
X-110109000Y150876000D03*
X-110109000Y146431000D03*
X-109728000Y149606000D03*
X-108966000Y143764000D03*
X-108712000Y150876000D03*
X-108712000Y140589000D03*
X-107823000Y149606000D03*
X-107442000Y146431000D03*
X-107315000Y150876000D03*
X-106426000Y149606000D03*
X-106172000Y146431000D03*
X-105283000Y139192000D03*
X-105156000Y149606000D03*
X-105029000Y146431000D03*
X-101600000Y140000000D03*
X-99250000Y147050000D03*
X-98550000Y141150000D03*
M02*
