%TF.GenerationSoftware,KiCad,Pcbnew,6.0.2+dfsg-1~bpo11+1*%
%TF.CreationDate,2022-03-16T17:45:54+00:00*%
%TF.ProjectId,TFHT01B,54464854-3031-4422-9e6b-696361645f70,rev?*%
%TF.SameCoordinates,PX78dfd90PY8290510*%
%TF.FileFunction,Legend,Bot*%
%TF.FilePolarity,Positive*%
%FSLAX46Y46*%
G04 Gerber Fmt 4.6, Leading zero omitted, Abs format (unit mm)*
G04 Created by KiCad (PCBNEW 6.0.2+dfsg-1~bpo11+1) date 2022-03-16 17:45:54*
%MOMM*%
%LPD*%
G01*
G04 APERTURE LIST*
%ADD10C,0.150000*%
%ADD11C,0.120000*%
G04 APERTURE END LIST*
D10*
%TO.C,JP1*%
X-107878667Y141285619D02*
X-107878667Y140571333D01*
X-107831048Y140428476D01*
X-107735810Y140333238D01*
X-107592953Y140285619D01*
X-107497715Y140285619D01*
X-108354858Y140285619D02*
X-108354858Y141285619D01*
X-108735810Y141285619D01*
X-108831048Y141238000D01*
X-108878667Y141190380D01*
X-108926286Y141095142D01*
X-108926286Y140952285D01*
X-108878667Y140857047D01*
X-108831048Y140809428D01*
X-108735810Y140761809D01*
X-108354858Y140761809D01*
X-109878667Y140285619D02*
X-109307239Y140285619D01*
X-109592953Y140285619D02*
X-109592953Y141285619D01*
X-109497715Y141142761D01*
X-109402477Y141047523D01*
X-109307239Y140999904D01*
%TO.C,J1*%
X-122594620Y139271333D02*
X-121880334Y139271333D01*
X-121737477Y139318952D01*
X-121642239Y139414190D01*
X-121594620Y139557047D01*
X-121594620Y139652285D01*
X-121594620Y138271333D02*
X-121594620Y138842761D01*
X-121594620Y138557047D02*
X-122594620Y138557047D01*
X-122451762Y138652285D01*
X-122356524Y138747523D01*
X-122308905Y138842761D01*
%TO.C,U1*%
X-98243620Y145167904D02*
X-97434096Y145167904D01*
X-97338858Y145120285D01*
X-97291239Y145072666D01*
X-97243620Y144977428D01*
X-97243620Y144786952D01*
X-97291239Y144691714D01*
X-97338858Y144644095D01*
X-97434096Y144596476D01*
X-98243620Y144596476D01*
X-97243620Y143596476D02*
X-97243620Y144167904D01*
X-97243620Y143882190D02*
X-98243620Y143882190D01*
X-98100762Y143977428D01*
X-98005524Y144072666D01*
X-97957905Y144167904D01*
%TO.C,M7*%
X-99136477Y144453619D02*
X-99136477Y145453619D01*
X-99469810Y144739333D01*
X-99803143Y145453619D01*
X-99803143Y144453619D01*
X-100184096Y145453619D02*
X-100850762Y145453619D01*
X-100422191Y144453619D01*
D11*
%TO.C,JP1*%
X-107512000Y137738000D02*
X-107812000Y137438000D01*
X-107512000Y137738000D02*
X-107212000Y137438000D01*
X-106662000Y138638000D02*
X-106662000Y139238000D01*
X-110762000Y139238000D02*
X-110762000Y138638000D01*
X-110112000Y137938000D02*
X-107312000Y137938000D01*
X-107212000Y137438000D02*
X-107812000Y137438000D01*
X-107312000Y139938000D02*
X-110112000Y139938000D01*
X-107362000Y137938000D02*
G75*
G03*
X-106662000Y138638000I1J699999D01*
G01*
X-110762000Y138638000D02*
G75*
G03*
X-110062000Y137938000I699999J-1D01*
G01*
X-106662000Y139238000D02*
G75*
G03*
X-107362000Y139938000I-699999J1D01*
G01*
X-110062000Y139938000D02*
G75*
G03*
X-110762000Y139238000I-1J-699999D01*
G01*
%TO.C,C4*%
X-114425000Y142102721D02*
X-114425000Y142428279D01*
X-115445000Y142102721D02*
X-115445000Y142428279D01*
%TO.C,D1*%
X-119980000Y147701000D02*
X-119980000Y145851000D01*
X-118780000Y145851000D02*
X-119980000Y145851000D01*
X-118780000Y147701000D02*
X-118780000Y145851000D01*
%TO.C,J1*%
X-122236000Y141971000D02*
X-121246000Y141971000D01*
X-122236000Y140171000D02*
X-122236000Y141971000D01*
X-122236000Y148641000D02*
X-122236000Y146841000D01*
X-123686000Y148641000D02*
X-122236000Y148641000D01*
X-126506000Y141441000D02*
X-126506000Y147371000D01*
X-123686000Y140171000D02*
X-122236000Y140171000D01*
%TO.C,R2*%
X-108193721Y141730000D02*
X-108519279Y141730000D01*
X-108193721Y142750000D02*
X-108519279Y142750000D01*
%TO.C,U1*%
X-98536000Y143316000D02*
X-98536000Y145056000D01*
X-101356000Y143756000D02*
X-101356000Y145056000D01*
%TO.C,C5*%
X-100112779Y147990000D02*
X-99787221Y147990000D01*
X-100112779Y149010000D02*
X-99787221Y149010000D01*
%TO.C,R4*%
X-113599279Y140083000D02*
X-113273721Y140083000D01*
X-113599279Y139063000D02*
X-113273721Y139063000D01*
%TO.C,C1*%
X-114933000Y146242721D02*
X-114933000Y146568279D01*
X-115953000Y146242721D02*
X-115953000Y146568279D01*
%TO.C,Q1*%
X-112647000Y141041000D02*
X-112647000Y141971000D01*
X-112647000Y144201000D02*
X-110487000Y144201000D01*
X-112647000Y141041000D02*
X-111187000Y141041000D01*
X-112647000Y144201000D02*
X-112647000Y143271000D01*
%TO.C,C3*%
X-116459000Y146367500D02*
X-116459000Y147129500D01*
X-117983000Y146367500D02*
X-117983000Y147129500D01*
D10*
X-117983000Y145224500D02*
X-116459000Y145224500D01*
X-116459000Y148272500D02*
X-117983000Y148272500D01*
D11*
%TO.C,U3*%
X-116119000Y143902000D02*
X-116119000Y141452000D01*
X-119339000Y142102000D02*
X-119339000Y143902000D01*
%TO.C,R3*%
X-108456000Y147355779D02*
X-108456000Y147030221D01*
X-109476000Y147355779D02*
X-109476000Y147030221D01*
%TO.C,R10*%
X-110742000Y147330279D02*
X-110742000Y147004721D01*
X-111762000Y147330279D02*
X-111762000Y147004721D01*
%TO.C,R1*%
X-112901000Y147055721D02*
X-112901000Y147381279D01*
X-113921000Y147055721D02*
X-113921000Y147381279D01*
%TO.C,M7*%
X-97946000Y146406000D02*
X-101946000Y146406000D01*
X-101946000Y146406000D02*
X-101946000Y142406000D01*
X-101946000Y142406000D02*
X-97946000Y142406000D01*
X-97946000Y142406000D02*
X-97946000Y146406000D01*
X-96946000Y147406000D02*
X-102946000Y147406000D01*
X-102946000Y147406000D02*
X-102946000Y141406000D01*
X-102946000Y141406000D02*
X-96946000Y141406000D01*
X-96946000Y141406000D02*
X-96946000Y147406000D01*
X-96746000Y144406000D02*
G75*
G03*
X-96746000Y144406000I-3200000J0D01*
G01*
%TD*%
M02*
