%TF.GenerationSoftware,KiCad,Pcbnew,6.0.4-6f826c9f35~116~ubuntu20.04.1*%
%TF.CreationDate,2022-03-30T11:23:09+00:00*%
%TF.ProjectId,TFHT01B,54464854-3031-4422-9e6b-696361645f70,rev?*%
%TF.SameCoordinates,Original*%
%TF.FileFunction,Copper,L2,Bot*%
%TF.FilePolarity,Positive*%
%FSLAX46Y46*%
G04 Gerber Fmt 4.6, Leading zero omitted, Abs format (unit mm)*
G04 Created by KiCad (PCBNEW 6.0.4-6f826c9f35~116~ubuntu20.04.1) date 2022-03-30 11:23:09*
%MOMM*%
%LPD*%
G01*
G04 APERTURE LIST*
G04 Aperture macros list*
%AMRoundRect*
0 Rectangle with rounded corners*
0 $1 Rounding radius*
0 $2 $3 $4 $5 $6 $7 $8 $9 X,Y pos of 4 corners*
0 Add a 4 corners polygon primitive as box body*
4,1,4,$2,$3,$4,$5,$6,$7,$8,$9,$2,$3,0*
0 Add four circle primitives for the rounded corners*
1,1,$1+$1,$2,$3*
1,1,$1+$1,$4,$5*
1,1,$1+$1,$6,$7*
1,1,$1+$1,$8,$9*
0 Add four rect primitives between the rounded corners*
20,1,$1+$1,$2,$3,$4,$5,0*
20,1,$1+$1,$4,$5,$6,$7,0*
20,1,$1+$1,$6,$7,$8,$9,0*
20,1,$1+$1,$8,$9,$2,$3,0*%
%AMFreePoly0*
4,1,22,0.550000,-0.750000,0.000000,-0.750000,0.000000,-0.745033,-0.079941,-0.743568,-0.215256,-0.701293,-0.333266,-0.622738,-0.424486,-0.514219,-0.481581,-0.384460,-0.499164,-0.250000,-0.500000,-0.250000,-0.500000,0.250000,-0.499164,0.250000,-0.499963,0.256109,-0.478152,0.396186,-0.417904,0.524511,-0.324060,0.630769,-0.204165,0.706417,-0.067858,0.745374,0.000000,0.744959,0.000000,0.750000,
0.550000,0.750000,0.550000,-0.750000,0.550000,-0.750000,$1*%
%AMFreePoly1*
4,1,20,0.000000,0.744959,0.073905,0.744508,0.209726,0.703889,0.328688,0.626782,0.421226,0.519385,0.479903,0.390333,0.500000,0.250000,0.500000,-0.250000,0.499851,-0.262216,0.476331,-0.402017,0.414519,-0.529596,0.319384,-0.634700,0.198574,-0.708877,0.061801,-0.746166,0.000000,-0.745033,0.000000,-0.750000,-0.550000,-0.750000,-0.550000,0.750000,0.000000,0.750000,0.000000,0.744959,
0.000000,0.744959,$1*%
%AMFreePoly2*
4,1,6,0.500000,-0.850000,-0.200000,-0.850000,-0.500000,-0.550000,-0.500000,0.850000,0.500000,0.850000,0.500000,-0.850000,0.500000,-0.850000,$1*%
G04 Aperture macros list end*
%TA.AperFunction,SMDPad,CuDef*%
%ADD10FreePoly0,180.000000*%
%TD*%
%TA.AperFunction,SMDPad,CuDef*%
%ADD11R,1.000000X1.500000*%
%TD*%
%TA.AperFunction,SMDPad,CuDef*%
%ADD12FreePoly1,180.000000*%
%TD*%
%TA.AperFunction,SMDPad,CuDef*%
%ADD13R,0.950000X1.500000*%
%TD*%
%TA.AperFunction,SMDPad,CuDef*%
%ADD14RoundRect,0.218750X0.256250X-0.218750X0.256250X0.218750X-0.256250X0.218750X-0.256250X-0.218750X0*%
%TD*%
%TA.AperFunction,SMDPad,CuDef*%
%ADD15R,0.250000X0.550000*%
%TD*%
%TA.AperFunction,SMDPad,CuDef*%
%ADD16FreePoly2,90.000000*%
%TD*%
%TA.AperFunction,SMDPad,CuDef*%
%ADD17R,0.700000X0.600000*%
%TD*%
%TA.AperFunction,SMDPad,CuDef*%
%ADD18RoundRect,0.150000X0.700000X-0.150000X0.700000X0.150000X-0.700000X0.150000X-0.700000X-0.150000X0*%
%TD*%
%TA.AperFunction,SMDPad,CuDef*%
%ADD19RoundRect,0.250000X1.100000X-0.250000X1.100000X0.250000X-1.100000X0.250000X-1.100000X-0.250000X0*%
%TD*%
%TA.AperFunction,SMDPad,CuDef*%
%ADD20RoundRect,0.218750X0.218750X0.256250X-0.218750X0.256250X-0.218750X-0.256250X0.218750X-0.256250X0*%
%TD*%
%TA.AperFunction,SMDPad,CuDef*%
%ADD21RoundRect,0.218750X-0.218750X-0.256250X0.218750X-0.256250X0.218750X0.256250X-0.218750X0.256250X0*%
%TD*%
%TA.AperFunction,SMDPad,CuDef*%
%ADD22R,0.900000X0.800000*%
%TD*%
%TA.AperFunction,SMDPad,CuDef*%
%ADD23R,1.397000X0.889000*%
%TD*%
%TA.AperFunction,SMDPad,CuDef*%
%ADD24R,0.650000X1.060000*%
%TD*%
%TA.AperFunction,SMDPad,CuDef*%
%ADD25RoundRect,0.218750X-0.256250X0.218750X-0.256250X-0.218750X0.256250X-0.218750X0.256250X0.218750X0*%
%TD*%
%TA.AperFunction,ViaPad*%
%ADD26C,0.800000*%
%TD*%
%TA.AperFunction,Conductor*%
%ADD27C,0.400000*%
%TD*%
%TA.AperFunction,Conductor*%
%ADD28C,0.300000*%
%TD*%
G04 APERTURE END LIST*
%TO.C,JP1*%
G36*
X18934000Y1732000D02*
G01*
X18434000Y1732000D01*
X18434000Y2332000D01*
X18934000Y2332000D01*
X18934000Y1732000D01*
G37*
%TD*%
D10*
%TO.P,JP1,1,A*%
%TO.N,GND*%
X19334000Y2032000D03*
D11*
%TO.P,JP1,2,C*%
%TO.N,Net-(JP1-Pad2)*%
X18034000Y2032000D03*
D12*
%TO.P,JP1,3,B*%
%TO.N,+3V3*%
X16734000Y2032000D03*
%TD*%
D13*
%TO.P,D2,1,K*%
%TO.N,GND*%
X10575000Y13000000D03*
%TO.P,D2,2,A*%
%TO.N,Net-(D2-Pad2)*%
X6425000Y13000000D03*
%TD*%
D14*
%TO.P,C4,1*%
%TO.N,+5V*%
X11811000Y4572000D03*
%TO.P,C4,2*%
%TO.N,GND*%
X11811000Y6147000D03*
%TD*%
D15*
%TO.P,U1,1,SDA*%
%TO.N,/SDA*%
X26950000Y6325000D03*
%TO.P,U1,2,ADDR*%
%TO.N,Net-(JP1-Pad2)*%
X26450000Y6325000D03*
%TO.P,U1,3,ALERT*%
%TO.N,/ALERT*%
X25950000Y6325000D03*
%TO.P,U1,4,SCL*%
%TO.N,/SCL*%
X25450000Y6325000D03*
%TO.P,U1,5,VDD*%
%TO.N,+3V3*%
X25450000Y8675000D03*
%TO.P,U1,6,~{RESET}*%
%TO.N,unconnected-(U1-Pad6)*%
X25950000Y8675000D03*
%TO.P,U1,7,R*%
%TO.N,GND*%
X26450000Y8675000D03*
%TO.P,U1,8,VSS*%
X26950000Y8675000D03*
D16*
%TO.P,U1,9,VSS*%
X26200000Y7500000D03*
%TD*%
D17*
%TO.P,D1,1,K*%
%TO.N,+5V*%
X9071000Y9075000D03*
%TO.P,D1,2,A*%
%TO.N,GND*%
X9071000Y10475000D03*
%TD*%
D13*
%TO.P,D3,1,K*%
%TO.N,Net-(D3-Pad1)*%
X10575000Y2000000D03*
%TO.P,D3,2,A*%
%TO.N,+5V*%
X6425000Y2000000D03*
%TD*%
D18*
%TO.P,J1,1*%
%TO.N,+5V*%
X4650000Y5625000D03*
%TO.P,J1,2*%
%TO.N,/SCL*%
X4650000Y6875000D03*
%TO.P,J1,3*%
%TO.N,/SDA*%
X4650000Y8125000D03*
%TO.P,J1,4*%
%TO.N,GND*%
X4650000Y9375000D03*
D19*
%TO.P,J1,MP*%
X1450000Y3775000D03*
X1450000Y11225000D03*
%TD*%
D20*
%TO.P,R2,1*%
%TO.N,/ALERT*%
X19177000Y5334000D03*
%TO.P,R2,2*%
%TO.N,Net-(Q1-Pad1)*%
X17602000Y5334000D03*
%TD*%
D21*
%TO.P,C5,1*%
%TO.N,+3V3*%
X25412500Y11594000D03*
%TO.P,C5,2*%
%TO.N,GND*%
X26987500Y11594000D03*
%TD*%
%TO.P,R4,1*%
%TO.N,Net-(D3-Pad1)*%
X12522000Y2667000D03*
%TO.P,R4,2*%
%TO.N,Net-(Q1-Pad3)*%
X14097000Y2667000D03*
%TD*%
D14*
%TO.P,C1,1*%
%TO.N,+3V3*%
X12896000Y8962500D03*
%TO.P,C1,2*%
%TO.N,GND*%
X12896000Y10537500D03*
%TD*%
D22*
%TO.P,Q1,1,B*%
%TO.N,Net-(Q1-Pad1)*%
X15859000Y6665000D03*
%TO.P,Q1,2,E*%
%TO.N,GND*%
X15859000Y4765000D03*
%TO.P,Q1,3,C*%
%TO.N,Net-(Q1-Pad3)*%
X13859000Y5715000D03*
%TD*%
D23*
%TO.P,C3,1*%
%TO.N,+5V*%
X10821000Y8947500D03*
%TO.P,C3,2*%
%TO.N,GND*%
X10821000Y10852500D03*
%TD*%
D24*
%TO.P,U3,1,VIN*%
%TO.N,+5V*%
X9967000Y4996000D03*
%TO.P,U3,2,GND*%
%TO.N,GND*%
X9017000Y4996000D03*
%TO.P,U3,3,EN*%
%TO.N,+5V*%
X8067000Y4996000D03*
%TO.P,U3,4,NC*%
%TO.N,unconnected-(U3-Pad4)*%
X8067000Y7196000D03*
%TO.P,U3,5,VOUT*%
%TO.N,+3V3*%
X9967000Y7196000D03*
%TD*%
D25*
%TO.P,R3,1*%
%TO.N,+3V3*%
X17780000Y11074500D03*
%TO.P,R3,2*%
%TO.N,/SCL*%
X17780000Y9499500D03*
%TD*%
%TO.P,R10,1*%
%TO.N,+3V3*%
X15494000Y11049000D03*
%TO.P,R10,2*%
%TO.N,/SDA*%
X15494000Y9474000D03*
%TD*%
D14*
%TO.P,R1,1*%
%TO.N,+5V*%
X7421000Y9062500D03*
%TO.P,R1,2*%
%TO.N,Net-(D2-Pad2)*%
X7421000Y10637500D03*
%TD*%
D26*
%TO.N,GND*%
X14096000Y10875000D03*
X4191000Y4318000D03*
X1143000Y12827000D03*
X3937000Y12065000D03*
X2159000Y12827000D03*
X3175000Y12827000D03*
X1143000Y5461000D03*
X15850000Y5500000D03*
X13025000Y4725000D03*
X1143000Y2286000D03*
X1651000Y9779000D03*
X3429000Y2286000D03*
X4191000Y3175000D03*
X1016000Y8890000D03*
X2286000Y2286000D03*
X5080000Y10668000D03*
X1016000Y7747000D03*
X9046000Y11125000D03*
X26950000Y9875000D03*
X9121000Y5875000D03*
X1016000Y6604000D03*
X4064000Y10668000D03*
%TO.N,+5V*%
X2794000Y9398000D03*
X6350000Y9398000D03*
%TO.N,/SDA*%
X2850000Y6875000D03*
X6771000Y7950000D03*
X15494000Y8128000D03*
X27225000Y5000000D03*
%TO.N,/SCL*%
X6350000Y6858000D03*
X25200500Y5370686D03*
X17780000Y6858000D03*
%TO.N,Net-(JP1-Pad2)*%
X25146000Y3094000D03*
X18034000Y3600500D03*
%TD*%
D27*
%TO.N,GND*%
X9071000Y10475000D02*
X9448500Y10852500D01*
D28*
X26950000Y8675000D02*
X26950000Y9875000D01*
D27*
X9121000Y5875000D02*
X9393000Y6147000D01*
X26987500Y9912500D02*
X26950000Y9875000D01*
X15859000Y4765000D02*
X15850000Y4774000D01*
X9448500Y10852500D02*
X10821000Y10852500D01*
X15859000Y4765000D02*
X16224000Y4400000D01*
X13758500Y10537500D02*
X12896000Y10537500D01*
X14096000Y10875000D02*
X13758500Y10537500D01*
X4627000Y9398000D02*
X4650000Y9375000D01*
X9017000Y5771000D02*
X9121000Y5875000D01*
X11811000Y6147000D02*
X13025000Y4933000D01*
X19334000Y3737000D02*
X19334000Y2032000D01*
X26987500Y11594000D02*
X26987500Y9912500D01*
X10575000Y11098500D02*
X10821000Y10852500D01*
X9071000Y11100000D02*
X9046000Y11125000D01*
X11768500Y10852500D02*
X12096000Y10525000D01*
X12096000Y10525000D02*
X12883500Y10525000D01*
D28*
X26450000Y9475000D02*
X26850000Y9875000D01*
D27*
X9393000Y6147000D02*
X11811000Y6147000D01*
D28*
X26850000Y9875000D02*
X26950000Y9875000D01*
X26450000Y8675000D02*
X26450000Y7750000D01*
D27*
X16224000Y4400000D02*
X18671000Y4400000D01*
X10575000Y13000000D02*
X10575000Y11098500D01*
D28*
X26450000Y7750000D02*
X26200000Y7500000D01*
D27*
X12883500Y10525000D02*
X12896000Y10537500D01*
X18671000Y4400000D02*
X19334000Y3737000D01*
X9017000Y4996000D02*
X9017000Y5771000D01*
X15850000Y4774000D02*
X15850000Y5500000D01*
X9071000Y10475000D02*
X9071000Y11100000D01*
X10821000Y10852500D02*
X11768500Y10852500D01*
D28*
X26450000Y8675000D02*
X26450000Y9475000D01*
D27*
X13025000Y4933000D02*
X13025000Y4725000D01*
D28*
%TO.N,Net-(D2-Pad2)*%
X6425000Y11633500D02*
X7421000Y10637500D01*
X6425000Y13000000D02*
X6425000Y11633500D01*
%TO.N,Net-(D3-Pad1)*%
X11888000Y2667000D02*
X12522000Y2667000D01*
X11221000Y2000000D02*
X11888000Y2667000D01*
X10575000Y2000000D02*
X11221000Y2000000D01*
D27*
%TO.N,+3V3*%
X9967000Y7196000D02*
X11767000Y7196000D01*
X14850000Y6613000D02*
X14196000Y7267000D01*
X17754500Y11049000D02*
X17780000Y11074500D01*
X15748000Y2032000D02*
X15240000Y2540000D01*
X12896000Y8962500D02*
X14108500Y8962500D01*
X19947800Y10075000D02*
X22402884Y10075000D01*
X14108500Y8962500D02*
X14196000Y9050000D01*
X12896000Y8325000D02*
X12896000Y8962500D01*
X15240000Y3429000D02*
X14850000Y3819000D01*
X17780000Y11074500D02*
X18948300Y11074500D01*
X14196000Y7267000D02*
X14196000Y9050000D01*
X15494000Y11049000D02*
X17754500Y11049000D01*
X18948300Y11074500D02*
X19947800Y10075000D01*
X22402884Y10075000D02*
X23921884Y11594000D01*
X23921884Y11594000D02*
X25412500Y11594000D01*
X16734000Y2032000D02*
X15748000Y2032000D01*
X14196000Y9751000D02*
X15494000Y11049000D01*
X14196000Y9050000D02*
X14196000Y9751000D01*
X15240000Y2540000D02*
X15240000Y3429000D01*
X25412500Y9537500D02*
X25450000Y9500000D01*
X11767000Y7196000D02*
X12896000Y8325000D01*
X25412500Y11594000D02*
X25412500Y9537500D01*
D28*
X25450000Y8675000D02*
X25450000Y9500000D01*
D27*
X14850000Y3819000D02*
X14850000Y6613000D01*
%TO.N,+5V*%
X9071000Y9075000D02*
X10693500Y9075000D01*
X4650000Y5625000D02*
X2757000Y5625000D01*
X9058500Y9062500D02*
X9071000Y9075000D01*
X9711000Y3810000D02*
X10287000Y3810000D01*
X8067000Y4996000D02*
X8067000Y4125000D01*
X9711000Y3810000D02*
X9967000Y4066000D01*
X8382000Y3810000D02*
X9711000Y3810000D01*
X6425000Y4606000D02*
X6815000Y4996000D01*
X4650000Y5625000D02*
X6186000Y5625000D01*
X7085500Y9398000D02*
X7421000Y9062500D01*
X10668000Y3810000D02*
X11049000Y3810000D01*
X1975000Y6407000D02*
X1975000Y8579000D01*
X6186000Y5625000D02*
X6815000Y4996000D01*
X10693500Y9075000D02*
X10821000Y8947500D01*
X7421000Y9062500D02*
X9058500Y9062500D01*
X8067000Y4125000D02*
X8382000Y3810000D01*
X2757000Y5625000D02*
X1975000Y6407000D01*
X1975000Y8579000D02*
X2794000Y9398000D01*
X10287000Y3810000D02*
X10668000Y3810000D01*
X9967000Y4257000D02*
X9967000Y4130000D01*
X6350000Y9398000D02*
X7085500Y9398000D01*
X9967000Y4066000D02*
X9967000Y4257000D01*
X9967000Y4130000D02*
X10287000Y3810000D01*
X9967000Y4257000D02*
X9967000Y4996000D01*
X11811000Y4572000D02*
X11049000Y3810000D01*
X6815000Y4996000D02*
X8067000Y4996000D01*
X6425000Y2000000D02*
X6425000Y4606000D01*
D28*
%TO.N,/SDA*%
X26950000Y5275000D02*
X27225000Y5000000D01*
X26950000Y6325000D02*
X26950000Y5275000D01*
D27*
X6596000Y8125000D02*
X6771000Y7950000D01*
X3045000Y8125000D02*
X2850000Y7930000D01*
X4650000Y8125000D02*
X3045000Y8125000D01*
X2850000Y7930000D02*
X2850000Y6875000D01*
X15494000Y9474000D02*
X15494000Y8128000D01*
X4650000Y8125000D02*
X6596000Y8125000D01*
%TO.N,/SCL*%
X6350000Y6858000D02*
X6333000Y6875000D01*
D28*
X25450000Y6325000D02*
X25450000Y5620186D01*
D27*
X17780000Y9499500D02*
X17780000Y6858000D01*
X6333000Y6875000D02*
X4650000Y6875000D01*
D28*
X25450000Y5620186D02*
X25200500Y5370686D01*
D27*
%TO.N,Net-(Q1-Pad1)*%
X15941000Y6665000D02*
X16573500Y6032500D01*
X17602000Y5334000D02*
X17602000Y5385000D01*
X16954500Y6032500D02*
X16573500Y6032500D01*
X15859000Y6665000D02*
X15941000Y6665000D01*
X17602000Y5385000D02*
X16954500Y6032500D01*
D28*
%TO.N,Net-(JP1-Pad2)*%
X18034000Y2032000D02*
X18034000Y3600500D01*
X25146000Y3096000D02*
X25146000Y3094000D01*
X26450000Y6325000D02*
X26450000Y4400000D01*
X26450000Y4400000D02*
X25146000Y3096000D01*
D27*
%TO.N,Net-(Q1-Pad3)*%
X13859000Y5715000D02*
X13859000Y2905000D01*
X13859000Y2905000D02*
X14097000Y2667000D01*
D28*
%TO.N,/ALERT*%
X25950000Y6325000D02*
X25950000Y4606416D01*
X25950000Y4606416D02*
X25287584Y3944000D01*
X25287584Y3944000D02*
X24296000Y3944000D01*
X24290479Y3949521D02*
X20561479Y3949521D01*
X20561479Y3949521D02*
X19177000Y5334000D01*
X24296000Y3944000D02*
X24290479Y3949521D01*
%TD*%
%TA.AperFunction,Conductor*%
%TO.N,GND*%
G36*
X793970Y14782187D02*
G01*
X819269Y14738414D01*
X848078Y14575858D01*
X848981Y14573198D01*
X848982Y14573194D01*
X914667Y14379694D01*
X931241Y14330867D01*
X932537Y14328373D01*
X932537Y14328372D01*
X1013190Y14173110D01*
X1050505Y14101275D01*
X1052158Y14099013D01*
X1052160Y14099009D01*
X1157596Y13954685D01*
X1203125Y13892364D01*
X1205104Y13890375D01*
X1331942Y13762871D01*
X1385589Y13708942D01*
X1593698Y13555230D01*
X1596192Y13553918D01*
X1820170Y13436077D01*
X1820177Y13436074D01*
X1822663Y13434766D01*
X2067215Y13350321D01*
X2069976Y13349817D01*
X2069979Y13349816D01*
X2174226Y13330777D01*
X2321726Y13303839D01*
X2324088Y13303715D01*
X2324090Y13303715D01*
X2403558Y13299550D01*
X2403572Y13299550D01*
X2404519Y13299500D01*
X2565782Y13299500D01*
X2637247Y13304936D01*
X2755182Y13313907D01*
X2755188Y13313908D01*
X2757976Y13314120D01*
X3010015Y13372539D01*
X3012622Y13373579D01*
X3012628Y13373581D01*
X3247710Y13467369D01*
X3247716Y13467372D01*
X3250318Y13468410D01*
X3252737Y13469832D01*
X3252741Y13469834D01*
X3470929Y13598101D01*
X3470933Y13598104D01*
X3473354Y13599527D01*
X3673991Y13762871D01*
X3847613Y13954685D01*
X3849163Y13957031D01*
X3849166Y13957035D01*
X3988667Y14168199D01*
X3988668Y14168200D01*
X3990222Y14170553D01*
X4023900Y14243605D01*
X4097364Y14402962D01*
X4097365Y14402964D01*
X4098538Y14405509D01*
X4140251Y14550500D01*
X4169292Y14651448D01*
X4170068Y14654145D01*
X4179270Y14725483D01*
X4180494Y14734968D01*
X4203750Y14779928D01*
X4253886Y14799500D01*
X8422978Y14799500D01*
X8470544Y14782187D01*
X8495854Y14738350D01*
X8496978Y14725483D01*
X8496954Y14623568D01*
X8479630Y14576005D01*
X8435787Y14550706D01*
X8428889Y14549823D01*
X8313899Y14540571D01*
X8251298Y14535534D01*
X8008994Y14476018D01*
X7894159Y14427274D01*
X7782067Y14379694D01*
X7782064Y14379693D01*
X7779323Y14378529D01*
X7568192Y14245573D01*
X7565960Y14243605D01*
X7401948Y14099009D01*
X7381035Y14080572D01*
X7379146Y14078272D01*
X7224553Y13890068D01*
X7224550Y13890063D01*
X7222666Y13887770D01*
X7201484Y13851375D01*
X7162596Y13818975D01*
X7111977Y13819151D01*
X7076001Y13847487D01*
X7048602Y13888491D01*
X7044552Y13894552D01*
X6978231Y13938867D01*
X6933705Y13947724D01*
X6923318Y13949790D01*
X6923317Y13949790D01*
X6919748Y13950500D01*
X5930252Y13950500D01*
X5926683Y13949790D01*
X5926682Y13949790D01*
X5916295Y13947724D01*
X5871769Y13938867D01*
X5805448Y13894552D01*
X5801398Y13888491D01*
X5774000Y13847487D01*
X5761133Y13828231D01*
X5749500Y13769748D01*
X5749500Y12230252D01*
X5761133Y12171769D01*
X5805448Y12105448D01*
X5811509Y12101398D01*
X5857200Y12070868D01*
X5871769Y12061133D01*
X5916295Y12052276D01*
X5926682Y12050210D01*
X5926683Y12050210D01*
X5930252Y12049500D01*
X6000500Y12049500D01*
X6048066Y12032187D01*
X6073376Y11988350D01*
X6074500Y11975500D01*
X6074500Y11678787D01*
X6072842Y11663212D01*
X6070049Y11650239D01*
X6070768Y11644164D01*
X6070768Y11644163D01*
X6073987Y11616967D01*
X6074500Y11608269D01*
X6074500Y11604385D01*
X6075002Y11601371D01*
X6075002Y11601367D01*
X6077593Y11585799D01*
X6078084Y11582349D01*
X6079121Y11573587D01*
X6083764Y11534362D01*
X6086411Y11528850D01*
X6086741Y11527713D01*
X6086925Y11526905D01*
X6087110Y11526320D01*
X6087418Y11525568D01*
X6087808Y11524429D01*
X6088812Y11518397D01*
X6091717Y11513014D01*
X6111766Y11475855D01*
X6113348Y11472749D01*
X6132255Y11433375D01*
X6132262Y11433365D01*
X6134274Y11429174D01*
X6137592Y11425226D01*
X6138545Y11424273D01*
X6141468Y11420810D01*
X6144222Y11415706D01*
X6148717Y11411551D01*
X6181377Y11381360D01*
X6183472Y11379346D01*
X6723826Y10838992D01*
X6745218Y10793116D01*
X6745500Y10786666D01*
X6745500Y10385754D01*
X6745955Y10382881D01*
X6760137Y10293335D01*
X6760138Y10293332D01*
X6761049Y10287580D01*
X6763695Y10282387D01*
X6818696Y10174441D01*
X6818698Y10174439D01*
X6821342Y10169249D01*
X6915249Y10075342D01*
X6920439Y10072698D01*
X6920441Y10072696D01*
X7024597Y10019626D01*
X7033580Y10015049D01*
X7039332Y10014138D01*
X7039335Y10014137D01*
X7128881Y9999955D01*
X7131754Y9999500D01*
X7710246Y9999500D01*
X7713119Y9999955D01*
X7802665Y10014137D01*
X7802668Y10014138D01*
X7808420Y10015049D01*
X7817403Y10019626D01*
X7921559Y10072696D01*
X7921561Y10072698D01*
X7926751Y10075342D01*
X8020658Y10169249D01*
X8023302Y10174439D01*
X8023304Y10174441D01*
X8073067Y10272107D01*
X8110087Y10306629D01*
X8160637Y10309279D01*
X8201063Y10278815D01*
X8213001Y10238512D01*
X8213001Y10128923D01*
X8213219Y10124909D01*
X8219247Y10069406D01*
X8221376Y10060450D01*
X8268977Y9933475D01*
X8273991Y9924317D01*
X8354931Y9816319D01*
X8362319Y9808931D01*
X8466149Y9731115D01*
X8493830Y9688735D01*
X8495770Y9671882D01*
X8495738Y9536982D01*
X8478414Y9489420D01*
X8434571Y9464121D01*
X8421738Y9463000D01*
X8100526Y9463000D01*
X8052960Y9480313D01*
X8034592Y9503404D01*
X8023302Y9525561D01*
X8020658Y9530751D01*
X7926751Y9624658D01*
X7921561Y9627302D01*
X7921559Y9627304D01*
X7813613Y9682305D01*
X7808420Y9684951D01*
X7802668Y9685862D01*
X7802665Y9685863D01*
X7713119Y9700045D01*
X7710246Y9700500D01*
X7380044Y9700500D01*
X7332478Y9717813D01*
X7328064Y9721857D01*
X7327958Y9721934D01*
X7323842Y9726050D01*
X7318653Y9728694D01*
X7300598Y9737894D01*
X7290698Y9743961D01*
X7274304Y9755872D01*
X7274299Y9755874D01*
X7269590Y9759296D01*
X7264052Y9761095D01*
X7264051Y9761096D01*
X7244778Y9767358D01*
X7234050Y9771802D01*
X7215997Y9781000D01*
X7210804Y9783646D01*
X7195044Y9786142D01*
X7185037Y9787727D01*
X7173746Y9790438D01*
X7154474Y9796700D01*
X7154471Y9796700D01*
X7148933Y9798500D01*
X6835821Y9798500D01*
X6788255Y9815813D01*
X6783497Y9820172D01*
X6781234Y9822434D01*
X6778282Y9826282D01*
X6702025Y9884796D01*
X6656689Y9919584D01*
X6656685Y9919586D01*
X6652841Y9922536D01*
X6506762Y9983044D01*
X6501960Y9983676D01*
X6501957Y9983677D01*
X6354808Y10003049D01*
X6350000Y10003682D01*
X6345192Y10003049D01*
X6198043Y9983677D01*
X6198040Y9983676D01*
X6193238Y9983044D01*
X6047159Y9922536D01*
X6043315Y9919586D01*
X6043311Y9919584D01*
X5997975Y9884796D01*
X5949699Y9869574D01*
X5902933Y9888946D01*
X5889232Y9905835D01*
X5876426Y9927489D01*
X5870762Y9934791D01*
X5759791Y10045762D01*
X5752489Y10051426D01*
X5617407Y10131313D01*
X5608932Y10134980D01*
X5457379Y10179011D01*
X5449985Y10180361D01*
X5417904Y10182886D01*
X5415004Y10183000D01*
X4917048Y10183000D01*
X4907052Y10179362D01*
X4904000Y10174075D01*
X4904000Y9195000D01*
X4886687Y9147434D01*
X4842850Y9122124D01*
X4830000Y9121000D01*
X4470000Y9121000D01*
X4422434Y9138313D01*
X4397124Y9182150D01*
X4396000Y9195000D01*
X4396000Y10169951D01*
X4392362Y10179947D01*
X4387075Y10182999D01*
X3884998Y10182999D01*
X3882093Y10182885D01*
X3850022Y10180362D01*
X3842616Y10179010D01*
X3691068Y10134980D01*
X3682593Y10131313D01*
X3547511Y10051426D01*
X3540209Y10045762D01*
X3429238Y9934791D01*
X3423574Y9927489D01*
X3357900Y9816439D01*
X3318785Y9784310D01*
X3268169Y9784839D01*
X3235498Y9809058D01*
X3222282Y9826282D01*
X3146025Y9884796D01*
X3100689Y9919584D01*
X3100685Y9919586D01*
X3096841Y9922536D01*
X2950762Y9983044D01*
X2945960Y9983676D01*
X2945957Y9983677D01*
X2798808Y10003049D01*
X2794000Y10003682D01*
X2789192Y10003049D01*
X2642043Y9983677D01*
X2642040Y9983676D01*
X2637238Y9983044D01*
X2491159Y9922536D01*
X2487315Y9919586D01*
X2487311Y9919584D01*
X2441975Y9884796D01*
X2365718Y9826282D01*
X2362763Y9822431D01*
X2272416Y9704689D01*
X2272414Y9704685D01*
X2269464Y9700841D01*
X2208956Y9554762D01*
X2208324Y9549960D01*
X2208323Y9549957D01*
X2197023Y9464121D01*
X2188318Y9398000D01*
X2188951Y9393192D01*
X2188951Y9389996D01*
X2171638Y9342430D01*
X2167277Y9337670D01*
X1669516Y8839909D01*
X1669513Y8839905D01*
X1646950Y8817342D01*
X1644306Y8812154D01*
X1644306Y8812153D01*
X1635106Y8794098D01*
X1629039Y8784198D01*
X1617128Y8767804D01*
X1617126Y8767799D01*
X1613704Y8763090D01*
X1611905Y8757552D01*
X1611904Y8757551D01*
X1605642Y8738278D01*
X1601198Y8727550D01*
X1596503Y8718335D01*
X1589354Y8704304D01*
X1588443Y8698551D01*
X1585273Y8678537D01*
X1582562Y8667246D01*
X1576300Y8647974D01*
X1574500Y8642433D01*
X1574500Y6343567D01*
X1576300Y6338029D01*
X1576300Y6338026D01*
X1582562Y6318754D01*
X1585273Y6307463D01*
X1589354Y6281696D01*
X1592000Y6276503D01*
X1601198Y6258450D01*
X1605642Y6247722D01*
X1613704Y6222910D01*
X1617126Y6218201D01*
X1617128Y6218196D01*
X1629039Y6201802D01*
X1635106Y6191902D01*
X1644306Y6173847D01*
X1646950Y6168658D01*
X1669513Y6146095D01*
X1669516Y6146091D01*
X2496091Y5319516D01*
X2496095Y5319513D01*
X2518658Y5296950D01*
X2523846Y5294306D01*
X2523847Y5294306D01*
X2541902Y5285106D01*
X2551802Y5279039D01*
X2568196Y5267128D01*
X2568201Y5267126D01*
X2572910Y5263704D01*
X2578448Y5261905D01*
X2578449Y5261904D01*
X2597722Y5255642D01*
X2608450Y5251198D01*
X2626299Y5242104D01*
X2631696Y5239354D01*
X2647456Y5236858D01*
X2657463Y5235273D01*
X2668754Y5232562D01*
X2688026Y5226300D01*
X2688029Y5226300D01*
X2693567Y5224500D01*
X3674175Y5224500D01*
X3721741Y5207187D01*
X3726455Y5202872D01*
X3738948Y5190401D01*
X3743650Y5185707D01*
X3749147Y5183020D01*
X3842934Y5137176D01*
X3848482Y5134464D01*
X3916782Y5124500D01*
X5383218Y5124500D01*
X5389363Y5125405D01*
X5446423Y5133804D01*
X5446426Y5133805D01*
X5452112Y5134642D01*
X5457272Y5137175D01*
X5457274Y5137176D01*
X5503117Y5159684D01*
X5556855Y5186068D01*
X5561179Y5190400D01*
X5561181Y5190401D01*
X5573539Y5202780D01*
X5619396Y5224213D01*
X5625910Y5224500D01*
X5989455Y5224500D01*
X6037021Y5207187D01*
X6041781Y5202826D01*
X6196281Y5048326D01*
X6217673Y5002450D01*
X6204572Y4953555D01*
X6196281Y4943674D01*
X6119516Y4866909D01*
X6119513Y4866905D01*
X6096950Y4844342D01*
X6094306Y4839154D01*
X6094306Y4839153D01*
X6085106Y4821098D01*
X6079039Y4811198D01*
X6067128Y4794804D01*
X6067126Y4794799D01*
X6063704Y4790090D01*
X6061905Y4784552D01*
X6061904Y4784551D01*
X6055642Y4765278D01*
X6051198Y4754550D01*
X6042104Y4736701D01*
X6039354Y4731304D01*
X6038443Y4725551D01*
X6035273Y4705537D01*
X6032562Y4694246D01*
X6026300Y4674974D01*
X6024500Y4669433D01*
X6024500Y3024500D01*
X6007187Y2976934D01*
X5963350Y2951624D01*
X5950500Y2950500D01*
X5930252Y2950500D01*
X5926683Y2949790D01*
X5926682Y2949790D01*
X5916295Y2947724D01*
X5871769Y2938867D01*
X5865707Y2934816D01*
X5865706Y2934816D01*
X5811509Y2898602D01*
X5805448Y2894552D01*
X5801398Y2888491D01*
X5774000Y2847487D01*
X5761133Y2828231D01*
X5749500Y2769748D01*
X5749500Y1230252D01*
X5761133Y1171769D01*
X5805448Y1105448D01*
X5871769Y1061133D01*
X5916295Y1052276D01*
X5926682Y1050210D01*
X5926683Y1050210D01*
X5930252Y1049500D01*
X6919748Y1049500D01*
X6923317Y1050210D01*
X6923318Y1050210D01*
X6933705Y1052276D01*
X6978231Y1061133D01*
X7044552Y1105448D01*
X7077085Y1154137D01*
X7117905Y1184066D01*
X7168416Y1180755D01*
X7199816Y1154616D01*
X7272681Y1047399D01*
X7287706Y1025290D01*
X7289747Y1023132D01*
X7289750Y1023128D01*
X7387815Y919428D01*
X7459138Y844006D01*
X7657349Y692462D01*
X7659962Y691061D01*
X7659968Y691057D01*
X7787255Y622806D01*
X7877239Y574557D01*
X7880056Y573587D01*
X8110339Y494294D01*
X8110346Y494292D01*
X8113152Y493326D01*
X8359017Y450858D01*
X8361334Y450753D01*
X8361341Y450752D01*
X8378420Y449977D01*
X8388922Y449500D01*
X8419547Y449500D01*
X8467113Y432187D01*
X8492423Y388350D01*
X8493547Y375483D01*
X8493524Y274483D01*
X8476200Y226921D01*
X8432357Y201621D01*
X8419524Y200500D01*
X4253596Y200500D01*
X4206030Y217813D01*
X4180731Y261586D01*
X4165318Y348552D01*
X4151922Y424142D01*
X4143314Y449500D01*
X4069664Y666468D01*
X4069662Y666472D01*
X4068759Y669133D01*
X4024452Y754427D01*
X3950788Y896236D01*
X3950788Y896237D01*
X3949495Y898725D01*
X3934371Y919428D01*
X3798532Y1105368D01*
X3798531Y1105369D01*
X3796875Y1107636D01*
X3678451Y1226682D01*
X3616393Y1289066D01*
X3616390Y1289068D01*
X3614411Y1291058D01*
X3406302Y1444770D01*
X3359787Y1469242D01*
X3179830Y1563923D01*
X3179823Y1563926D01*
X3177337Y1565234D01*
X2932785Y1649679D01*
X2930024Y1650183D01*
X2930021Y1650184D01*
X2825774Y1669223D01*
X2678274Y1696161D01*
X2675912Y1696285D01*
X2675910Y1696285D01*
X2596442Y1700450D01*
X2596428Y1700450D01*
X2595481Y1700500D01*
X2434218Y1700500D01*
X2362753Y1695064D01*
X2244818Y1686093D01*
X2244812Y1686092D01*
X2242024Y1685880D01*
X1989985Y1627461D01*
X1987378Y1626421D01*
X1987372Y1626419D01*
X1752290Y1532631D01*
X1752284Y1532628D01*
X1749682Y1531590D01*
X1747263Y1530168D01*
X1747259Y1530166D01*
X1529071Y1401899D01*
X1529067Y1401896D01*
X1526646Y1400473D01*
X1326009Y1237129D01*
X1152387Y1045315D01*
X1150837Y1042969D01*
X1150834Y1042965D01*
X1069222Y919428D01*
X1009778Y829447D01*
X1008600Y826892D01*
X1008599Y826890D01*
X935872Y669133D01*
X901462Y594491D01*
X900688Y591800D01*
X900686Y591795D01*
X854769Y432187D01*
X829932Y345855D01*
X829573Y343070D01*
X819506Y265032D01*
X796250Y220072D01*
X746114Y200500D01*
X274500Y200500D01*
X226934Y217813D01*
X201624Y261650D01*
X200500Y274500D01*
X200500Y2695188D01*
X217813Y2742754D01*
X261650Y2768064D01*
X282043Y2768803D01*
X297760Y2767192D01*
X301529Y2767000D01*
X1182952Y2767000D01*
X1192948Y2770638D01*
X1196000Y2775925D01*
X1196000Y2780049D01*
X1704000Y2780049D01*
X1707638Y2770053D01*
X1712925Y2767001D01*
X2598454Y2767001D01*
X2602259Y2767198D01*
X2702034Y2777550D01*
X2709908Y2779251D01*
X2869650Y2832544D01*
X2877389Y2836169D01*
X3020377Y2924653D01*
X3027076Y2929964D01*
X3145868Y3048962D01*
X3151168Y3055672D01*
X3239403Y3198816D01*
X3243011Y3206555D01*
X3296031Y3366402D01*
X3297716Y3374263D01*
X3307807Y3472758D01*
X3308000Y3476529D01*
X3308000Y3507952D01*
X3304362Y3517948D01*
X3299075Y3521000D01*
X1717048Y3521000D01*
X1707052Y3517362D01*
X1704000Y3512075D01*
X1704000Y2780049D01*
X1196000Y2780049D01*
X1196000Y4042048D01*
X1704000Y4042048D01*
X1707638Y4032052D01*
X1712925Y4029000D01*
X3294951Y4029000D01*
X3304947Y4032638D01*
X3307999Y4037925D01*
X3307999Y4073454D01*
X3307802Y4077259D01*
X3297450Y4177034D01*
X3295749Y4184908D01*
X3242456Y4344650D01*
X3238831Y4352389D01*
X3150347Y4495377D01*
X3145036Y4502076D01*
X3026038Y4620868D01*
X3019328Y4626168D01*
X2876184Y4714403D01*
X2868445Y4718011D01*
X2708598Y4771031D01*
X2700737Y4772716D01*
X2602242Y4782807D01*
X2598471Y4783000D01*
X1717048Y4783000D01*
X1707052Y4779362D01*
X1704000Y4774075D01*
X1704000Y4042048D01*
X1196000Y4042048D01*
X1196000Y4769951D01*
X1192362Y4779947D01*
X1187075Y4782999D01*
X301546Y4782999D01*
X297744Y4782802D01*
X282138Y4781183D01*
X233039Y4793494D01*
X203340Y4834485D01*
X200500Y4854788D01*
X200500Y10145188D01*
X217813Y10192754D01*
X261650Y10218064D01*
X282043Y10218803D01*
X297760Y10217192D01*
X301529Y10217000D01*
X1182952Y10217000D01*
X1192948Y10220638D01*
X1196000Y10225925D01*
X1196000Y10230049D01*
X1704000Y10230049D01*
X1707638Y10220053D01*
X1712925Y10217001D01*
X2598454Y10217001D01*
X2602259Y10217198D01*
X2702034Y10227550D01*
X2709908Y10229251D01*
X2869650Y10282544D01*
X2877389Y10286169D01*
X3020377Y10374653D01*
X3027076Y10379964D01*
X3145868Y10498962D01*
X3151168Y10505672D01*
X3239403Y10648816D01*
X3243011Y10656555D01*
X3296031Y10816402D01*
X3297716Y10824263D01*
X3307807Y10922758D01*
X3308000Y10926529D01*
X3308000Y10957952D01*
X3304362Y10967948D01*
X3299075Y10971000D01*
X1717048Y10971000D01*
X1707052Y10967362D01*
X1704000Y10962075D01*
X1704000Y10230049D01*
X1196000Y10230049D01*
X1196000Y11492048D01*
X1704000Y11492048D01*
X1707638Y11482052D01*
X1712925Y11479000D01*
X3294951Y11479000D01*
X3304947Y11482638D01*
X3307999Y11487925D01*
X3307999Y11523454D01*
X3307802Y11527259D01*
X3297450Y11627034D01*
X3295749Y11634908D01*
X3242456Y11794650D01*
X3238831Y11802389D01*
X3150347Y11945377D01*
X3145036Y11952076D01*
X3026038Y12070868D01*
X3019328Y12076168D01*
X2876184Y12164403D01*
X2868445Y12168011D01*
X2708598Y12221031D01*
X2700737Y12222716D01*
X2602242Y12232807D01*
X2598471Y12233000D01*
X1717048Y12233000D01*
X1707052Y12229362D01*
X1704000Y12224075D01*
X1704000Y11492048D01*
X1196000Y11492048D01*
X1196000Y12219951D01*
X1192362Y12229947D01*
X1187075Y12232999D01*
X301546Y12232999D01*
X297744Y12232802D01*
X282138Y12231183D01*
X233039Y12243494D01*
X203340Y12284485D01*
X200500Y12304788D01*
X200500Y14725500D01*
X217813Y14773066D01*
X261650Y14798376D01*
X274500Y14799500D01*
X746404Y14799500D01*
X793970Y14782187D01*
G37*
%TD.AperFunction*%
%TD*%
M02*
