M48
; DRILL file {KiCad 6.0.2+dfsg-1~bpo11+1} date Fri Mar 18 20:58:49 2022
; FORMAT={-:-/ absolute / metric / decimal}
; #@! TF.CreationDate,2022-03-18T20:58:49+00:00
; #@! TF.GenerationSoftware,Kicad,Pcbnew,6.0.2+dfsg-1~bpo11+1
; #@! TF.FileFunction,Plated,1,2,PTH
FMAT,2
METRIC
; #@! TA.AperFunction,Plated,PTH,ViaDrill
T1C0.400
%
G90
G05
T1
X1.016Y8.89
X1.016Y7.747
X1.016Y6.604
X1.143Y12.827
X1.143Y5.461
X1.143Y2.286
X1.651Y9.779
X2.159Y12.827
X2.286Y2.286
X2.667Y6.858
X2.794Y9.398
X3.175Y12.827
X3.429Y2.286
X3.937Y12.065
X4.064Y10.668
X4.191Y4.318
X4.191Y3.175
X5.08Y10.668
X6.35Y9.398
X6.35Y6.858
X6.771Y7.95
X9.046Y11.125
X9.121Y5.875
X12.809Y6.0
X14.096Y10.875
X15.494Y8.128
X15.971Y3.85
X17.78Y6.858
X18.034Y3.66
X25.146Y3.094
X27.496Y10.144
X28.196Y4.244
T0
M30
