%TF.GenerationSoftware,KiCad,Pcbnew,6.0.4-6f826c9f35~116~ubuntu20.04.1*%
%TF.CreationDate,2023-06-22T08:31:25+00:00*%
%TF.ProjectId,TFHT01B,54464854-3031-4422-9e6b-696361645f70,rev?*%
%TF.SameCoordinates,Original*%
%TF.FileFunction,Copper,L1,Top*%
%TF.FilePolarity,Positive*%
%FSLAX46Y46*%
G04 Gerber Fmt 4.6, Leading zero omitted, Abs format (unit mm)*
G04 Created by KiCad (PCBNEW 6.0.4-6f826c9f35~116~ubuntu20.04.1) date 2023-06-22 08:31:25*
%MOMM*%
%LPD*%
G01*
G04 APERTURE LIST*
G04 Aperture macros list*
%AMRoundRect*
0 Rectangle with rounded corners*
0 $1 Rounding radius*
0 $2 $3 $4 $5 $6 $7 $8 $9 X,Y pos of 4 corners*
0 Add a 4 corners polygon primitive as box body*
4,1,4,$2,$3,$4,$5,$6,$7,$8,$9,$2,$3,0*
0 Add four circle primitives for the rounded corners*
1,1,$1+$1,$2,$3*
1,1,$1+$1,$4,$5*
1,1,$1+$1,$6,$7*
1,1,$1+$1,$8,$9*
0 Add four rect primitives between the rounded corners*
20,1,$1+$1,$2,$3,$4,$5,0*
20,1,$1+$1,$4,$5,$6,$7,0*
20,1,$1+$1,$6,$7,$8,$9,0*
20,1,$1+$1,$8,$9,$2,$3,0*%
G04 Aperture macros list end*
%TA.AperFunction,SMDPad,CuDef*%
%ADD10RoundRect,0.150000X-0.700000X0.150000X-0.700000X-0.150000X0.700000X-0.150000X0.700000X0.150000X0*%
%TD*%
%TA.AperFunction,SMDPad,CuDef*%
%ADD11RoundRect,0.250000X-1.100000X0.250000X-1.100000X-0.250000X1.100000X-0.250000X1.100000X0.250000X0*%
%TD*%
%TA.AperFunction,ViaPad*%
%ADD12C,0.800000*%
%TD*%
%TA.AperFunction,Conductor*%
%ADD13C,0.400000*%
%TD*%
%TA.AperFunction,Conductor*%
%ADD14C,0.300000*%
%TD*%
G04 APERTURE END LIST*
D10*
%TO.P,J2,1*%
%TO.N,+5V*%
X4650000Y9375000D03*
%TO.P,J2,2*%
%TO.N,/SCL*%
X4650000Y8125000D03*
%TO.P,J2,3*%
%TO.N,/SDA*%
X4650000Y6875000D03*
%TO.P,J2,4*%
%TO.N,GND*%
X4650000Y5625000D03*
D11*
%TO.P,J2,MP*%
X1450000Y11225000D03*
X1450000Y3775000D03*
%TD*%
D12*
%TO.N,GND*%
X14096000Y10875000D03*
X4191000Y4318000D03*
X1143000Y12827000D03*
X3937000Y12065000D03*
X2159000Y12827000D03*
X3175000Y12827000D03*
X1143000Y5461000D03*
X15850000Y5500000D03*
X13025000Y4725000D03*
X1143000Y2286000D03*
X1651000Y9779000D03*
X3429000Y2286000D03*
X4191000Y3175000D03*
X1016000Y8890000D03*
X2286000Y2286000D03*
X5080000Y10668000D03*
X1016000Y7747000D03*
X9046000Y11125000D03*
X26950000Y9875000D03*
X9121000Y5875000D03*
X1016000Y6604000D03*
X4064000Y10668000D03*
%TO.N,+5V*%
X2794000Y9398000D03*
X6350000Y9398000D03*
%TO.N,/SDA*%
X2850000Y6875000D03*
X6771000Y7950000D03*
X15494000Y8128000D03*
X27225000Y5000000D03*
%TO.N,/SCL*%
X6350000Y6858000D03*
X25200500Y5370686D03*
X17780000Y6858000D03*
%TO.N,Net-(JP1-Pad2)*%
X25146000Y3094000D03*
X18034000Y3600500D03*
%TD*%
D13*
%TO.N,GND*%
X5537000Y11125000D02*
X5080000Y10668000D01*
X16321479Y13100479D02*
X23724521Y13100479D01*
X6796000Y5625000D02*
X4650000Y5625000D01*
X23724521Y13100479D02*
X26950000Y9875000D01*
X9046000Y11125000D02*
X5537000Y11125000D01*
X9121000Y5875000D02*
X7046000Y5875000D01*
X15075000Y4725000D02*
X13025000Y4725000D01*
X7046000Y5875000D02*
X6796000Y5625000D01*
X14096000Y10875000D02*
X16321479Y13100479D01*
X15850000Y5500000D02*
X15075000Y4725000D01*
%TO.N,+5V*%
X4627000Y9398000D02*
X4650000Y9375000D01*
X6327000Y9375000D02*
X6350000Y9398000D01*
X4650000Y9375000D02*
X6327000Y9375000D01*
X2794000Y9398000D02*
X4627000Y9398000D01*
%TO.N,/SDA*%
X4650000Y6875000D02*
X2850000Y6875000D01*
D14*
X6949000Y8128000D02*
X6771000Y7950000D01*
X24312000Y8128000D02*
X27225000Y5215000D01*
X15494000Y8128000D02*
X6949000Y8128000D01*
X15494000Y8128000D02*
X24312000Y8128000D01*
X27225000Y5215000D02*
X27225000Y5000000D01*
D13*
%TO.N,/SCL*%
X4650000Y8125000D02*
X5465334Y8125000D01*
D14*
X17780000Y6858000D02*
X6350000Y6858000D01*
X19617000Y6858000D02*
X20500000Y5975000D01*
X20500000Y5975000D02*
X24596186Y5975000D01*
D13*
X6350000Y7240334D02*
X6350000Y6858000D01*
D14*
X24596186Y5975000D02*
X25200500Y5370686D01*
D13*
X5465334Y8125000D02*
X6350000Y7240334D01*
D14*
X17780000Y6858000D02*
X19617000Y6858000D01*
%TO.N,Net-(JP1-Pad2)*%
X19609021Y2025479D02*
X24077479Y2025479D01*
X24077479Y2025479D02*
X25146000Y3094000D01*
X18034000Y3600500D02*
X19609021Y2025479D01*
%TD*%
%TA.AperFunction,Conductor*%
%TO.N,GND*%
G36*
X793970Y14782187D02*
G01*
X819269Y14738414D01*
X848078Y14575858D01*
X848981Y14573198D01*
X848982Y14573194D01*
X914667Y14379694D01*
X931241Y14330867D01*
X932537Y14328373D01*
X932537Y14328372D01*
X1013190Y14173110D01*
X1050505Y14101275D01*
X1052158Y14099013D01*
X1052160Y14099009D01*
X1157596Y13954685D01*
X1203125Y13892364D01*
X1205104Y13890375D01*
X1331942Y13762871D01*
X1385589Y13708942D01*
X1593698Y13555230D01*
X1596192Y13553918D01*
X1820170Y13436077D01*
X1820177Y13436074D01*
X1822663Y13434766D01*
X2067215Y13350321D01*
X2069976Y13349817D01*
X2069979Y13349816D01*
X2174226Y13330777D01*
X2321726Y13303839D01*
X2324088Y13303715D01*
X2324090Y13303715D01*
X2403558Y13299550D01*
X2403572Y13299550D01*
X2404519Y13299500D01*
X2565782Y13299500D01*
X2637247Y13304936D01*
X2755182Y13313907D01*
X2755188Y13313908D01*
X2757976Y13314120D01*
X3010015Y13372539D01*
X3012622Y13373579D01*
X3012628Y13373581D01*
X3247710Y13467369D01*
X3247716Y13467372D01*
X3250318Y13468410D01*
X3252737Y13469832D01*
X3252741Y13469834D01*
X3470929Y13598101D01*
X3470933Y13598104D01*
X3473354Y13599527D01*
X3673991Y13762871D01*
X3847613Y13954685D01*
X3849163Y13957031D01*
X3849166Y13957035D01*
X3988667Y14168199D01*
X3988668Y14168200D01*
X3990222Y14170553D01*
X4023900Y14243605D01*
X4097364Y14402962D01*
X4097365Y14402964D01*
X4098538Y14405509D01*
X4140251Y14550500D01*
X4169292Y14651448D01*
X4170068Y14654145D01*
X4179270Y14725483D01*
X4180494Y14734968D01*
X4203750Y14779928D01*
X4253886Y14799500D01*
X8422978Y14799500D01*
X8470544Y14782187D01*
X8495854Y14738350D01*
X8496978Y14725483D01*
X8496954Y14623568D01*
X8479630Y14576005D01*
X8435787Y14550706D01*
X8428889Y14549823D01*
X8313899Y14540571D01*
X8251298Y14535534D01*
X8008994Y14476018D01*
X7894159Y14427274D01*
X7782067Y14379694D01*
X7782064Y14379693D01*
X7779323Y14378529D01*
X7568192Y14245573D01*
X7565960Y14243605D01*
X7401948Y14099009D01*
X7381035Y14080572D01*
X7379146Y14078272D01*
X7224553Y13890068D01*
X7224550Y13890063D01*
X7222666Y13887770D01*
X7097160Y13672128D01*
X7096098Y13669361D01*
X7096095Y13669355D01*
X7052287Y13555230D01*
X7007745Y13439195D01*
X7007138Y13436288D01*
X6957329Y13197869D01*
X6957328Y13197863D01*
X6956722Y13194961D01*
X6945404Y12945712D01*
X6974081Y12697860D01*
X7042017Y12457781D01*
X7147462Y12231652D01*
X7149128Y12229201D01*
X7149130Y12229197D01*
X7193165Y12164403D01*
X7287706Y12025290D01*
X7289747Y12023132D01*
X7289750Y12023128D01*
X7356941Y11952076D01*
X7459138Y11844006D01*
X7657349Y11692462D01*
X7659962Y11691061D01*
X7659968Y11691057D01*
X7764686Y11634908D01*
X7877239Y11574557D01*
X7880056Y11573587D01*
X8110339Y11494294D01*
X8110346Y11494292D01*
X8113152Y11493326D01*
X8359017Y11450858D01*
X8361334Y11450753D01*
X8361341Y11450752D01*
X8378420Y11449977D01*
X8388922Y11449500D01*
X8422177Y11449500D01*
X8469743Y11432187D01*
X8495053Y11388350D01*
X8496177Y11375482D01*
X8495895Y10192754D01*
X8495504Y8555049D01*
X8495503Y8552482D01*
X8478179Y8504920D01*
X8434336Y8479621D01*
X8421503Y8478500D01*
X7078991Y8478500D01*
X7050672Y8484133D01*
X6932240Y8533189D01*
X6932241Y8533189D01*
X6927762Y8535044D01*
X6922960Y8535676D01*
X6922957Y8535677D01*
X6775808Y8555049D01*
X6771000Y8555682D01*
X6766192Y8555049D01*
X6619043Y8535677D01*
X6619040Y8535676D01*
X6614238Y8535044D01*
X6468159Y8474536D01*
X6464315Y8471586D01*
X6464311Y8471584D01*
X6347149Y8381682D01*
X6342718Y8378282D01*
X6339763Y8374431D01*
X6249416Y8256689D01*
X6249414Y8256685D01*
X6246464Y8252841D01*
X6206302Y8155880D01*
X6188507Y8112920D01*
X6154309Y8075600D01*
X6104124Y8068993D01*
X6067814Y8088913D01*
X5726243Y8430484D01*
X5726239Y8430487D01*
X5703676Y8453050D01*
X5698487Y8455694D01*
X5680432Y8464894D01*
X5670532Y8470961D01*
X5654138Y8482872D01*
X5654133Y8482874D01*
X5649424Y8486296D01*
X5643885Y8488096D01*
X5638697Y8490739D01*
X5638932Y8491201D01*
X5614726Y8506019D01*
X5560679Y8559972D01*
X5560677Y8559973D01*
X5556350Y8564293D01*
X5550853Y8566980D01*
X5456682Y8613012D01*
X5456681Y8613012D01*
X5451518Y8615536D01*
X5383218Y8625500D01*
X3916782Y8625500D01*
X3914099Y8625105D01*
X3853577Y8616196D01*
X3853574Y8616195D01*
X3847888Y8615358D01*
X3842728Y8612825D01*
X3842726Y8612824D01*
X3796883Y8590316D01*
X3743145Y8563932D01*
X3738824Y8559603D01*
X3738822Y8559602D01*
X3665644Y8486296D01*
X3660707Y8481350D01*
X3658020Y8475853D01*
X3635847Y8430491D01*
X3609464Y8376518D01*
X3599500Y8308218D01*
X3599500Y7941782D01*
X3599895Y7939099D01*
X3608804Y7878577D01*
X3608805Y7878574D01*
X3609642Y7872888D01*
X3661068Y7768145D01*
X3665397Y7763824D01*
X3665398Y7763822D01*
X3739321Y7690028D01*
X3743650Y7685707D01*
X3749147Y7683020D01*
X3822511Y7647159D01*
X3848482Y7634464D01*
X3916782Y7624500D01*
X5368789Y7624500D01*
X5416355Y7607187D01*
X5421115Y7602826D01*
X5542710Y7481231D01*
X5564102Y7435355D01*
X5551001Y7386460D01*
X5509537Y7357426D01*
X5462369Y7361989D01*
X5462162Y7361318D01*
X5458910Y7362323D01*
X5457889Y7362422D01*
X5456682Y7363012D01*
X5456681Y7363012D01*
X5451518Y7365536D01*
X5383218Y7375500D01*
X3916782Y7375500D01*
X3914099Y7375105D01*
X3853577Y7366196D01*
X3853574Y7366195D01*
X3847888Y7365358D01*
X3842728Y7362825D01*
X3842726Y7362824D01*
X3813792Y7348618D01*
X3743145Y7313932D01*
X3738821Y7309600D01*
X3738819Y7309599D01*
X3726461Y7297220D01*
X3680604Y7275787D01*
X3674090Y7275500D01*
X3335821Y7275500D01*
X3288255Y7292813D01*
X3283497Y7297172D01*
X3281234Y7299434D01*
X3278282Y7303282D01*
X3202648Y7361318D01*
X3156689Y7396584D01*
X3156685Y7396586D01*
X3152841Y7399536D01*
X3006762Y7460044D01*
X3001960Y7460676D01*
X3001957Y7460677D01*
X2854808Y7480049D01*
X2850000Y7480682D01*
X2845192Y7480049D01*
X2698043Y7460677D01*
X2698040Y7460676D01*
X2693238Y7460044D01*
X2547159Y7399536D01*
X2543315Y7396586D01*
X2543311Y7396584D01*
X2497352Y7361318D01*
X2421718Y7303282D01*
X2418763Y7299431D01*
X2328416Y7181689D01*
X2328414Y7181685D01*
X2325464Y7177841D01*
X2264956Y7031762D01*
X2244318Y6875000D01*
X2264956Y6718238D01*
X2325464Y6572159D01*
X2328414Y6568315D01*
X2328416Y6568311D01*
X2375078Y6507500D01*
X2421718Y6446718D01*
X2425568Y6443764D01*
X2425569Y6443763D01*
X2543311Y6353416D01*
X2543315Y6353414D01*
X2547159Y6350464D01*
X2693238Y6289956D01*
X2698040Y6289324D01*
X2698043Y6289323D01*
X2845192Y6269951D01*
X2850000Y6269318D01*
X2854808Y6269951D01*
X3001957Y6289323D01*
X3001960Y6289324D01*
X3006762Y6289956D01*
X3152841Y6350464D01*
X3156685Y6353414D01*
X3156689Y6353416D01*
X3263932Y6435707D01*
X3278282Y6446718D01*
X3281234Y6450566D01*
X3283497Y6452828D01*
X3329374Y6474219D01*
X3335821Y6474500D01*
X3569665Y6474500D01*
X3617231Y6457187D01*
X3642541Y6413350D01*
X3633751Y6363500D01*
X3607334Y6336805D01*
X3547511Y6301426D01*
X3540209Y6295762D01*
X3429238Y6184791D01*
X3423574Y6177489D01*
X3343687Y6042407D01*
X3340020Y6033932D01*
X3298647Y5891529D01*
X3299352Y5880917D01*
X3300526Y5879693D01*
X3303502Y5879000D01*
X5991945Y5879000D01*
X6001941Y5882638D01*
X6002788Y5884106D01*
X6002623Y5887159D01*
X5959980Y6033932D01*
X5956313Y6042407D01*
X5876426Y6177489D01*
X5870762Y6184791D01*
X5759791Y6295762D01*
X5752489Y6301426D01*
X5627005Y6375636D01*
X5594876Y6414751D01*
X5595405Y6465367D01*
X5612302Y6491610D01*
X5634969Y6514317D01*
X5634973Y6514322D01*
X5639293Y6518650D01*
X5676197Y6594148D01*
X5712638Y6629277D01*
X5763137Y6632765D01*
X5804063Y6602976D01*
X5811045Y6589969D01*
X5825464Y6555159D01*
X5828414Y6551315D01*
X5828416Y6551311D01*
X5908673Y6446718D01*
X5921718Y6429718D01*
X5925569Y6426763D01*
X6043311Y6336416D01*
X6043315Y6336414D01*
X6047159Y6333464D01*
X6193238Y6272956D01*
X6198040Y6272324D01*
X6198043Y6272323D01*
X6345192Y6252951D01*
X6350000Y6252318D01*
X6354808Y6252951D01*
X6501957Y6272323D01*
X6501960Y6272324D01*
X6506762Y6272956D01*
X6652841Y6333464D01*
X6656685Y6336414D01*
X6656689Y6336416D01*
X6774431Y6426763D01*
X6778282Y6429718D01*
X6815751Y6478549D01*
X6858441Y6505746D01*
X6874458Y6507500D01*
X8420996Y6507500D01*
X8468562Y6490187D01*
X8493872Y6446350D01*
X8494996Y6433482D01*
X8494324Y3623355D01*
X8477000Y3575793D01*
X8433157Y3550494D01*
X8426259Y3549611D01*
X8392889Y3546926D01*
X8251298Y3535534D01*
X8008994Y3476018D01*
X8001314Y3472758D01*
X7782067Y3379694D01*
X7782064Y3379693D01*
X7779323Y3378529D01*
X7776803Y3376942D01*
X7776801Y3376941D01*
X7666591Y3307538D01*
X7568192Y3245573D01*
X7565960Y3243605D01*
X7466585Y3155994D01*
X7381035Y3080572D01*
X7379146Y3078272D01*
X7224553Y2890068D01*
X7224550Y2890063D01*
X7222666Y2887770D01*
X7097160Y2672128D01*
X7096098Y2669361D01*
X7096095Y2669355D01*
X7047292Y2542219D01*
X7007745Y2439195D01*
X7007138Y2436288D01*
X6957329Y2197869D01*
X6957328Y2197863D01*
X6956722Y2194961D01*
X6945404Y1945712D01*
X6974081Y1697860D01*
X7042017Y1457781D01*
X7147462Y1231652D01*
X7149128Y1229201D01*
X7149130Y1229197D01*
X7274097Y1045315D01*
X7287706Y1025290D01*
X7289747Y1023132D01*
X7289750Y1023128D01*
X7387815Y919428D01*
X7459138Y844006D01*
X7657349Y692462D01*
X7659962Y691061D01*
X7659968Y691057D01*
X7787255Y622806D01*
X7877239Y574557D01*
X7880056Y573587D01*
X8110339Y494294D01*
X8110346Y494292D01*
X8113152Y493326D01*
X8359017Y450858D01*
X8361334Y450753D01*
X8361341Y450752D01*
X8378420Y449977D01*
X8388922Y449500D01*
X8419547Y449500D01*
X8467113Y432187D01*
X8492423Y388350D01*
X8493547Y375483D01*
X8493524Y274483D01*
X8476200Y226921D01*
X8432357Y201621D01*
X8419524Y200500D01*
X4253596Y200500D01*
X4206030Y217813D01*
X4180731Y261586D01*
X4165318Y348552D01*
X4151922Y424142D01*
X4143314Y449500D01*
X4069664Y666468D01*
X4069662Y666472D01*
X4068759Y669133D01*
X4024452Y754427D01*
X3950788Y896236D01*
X3950788Y896237D01*
X3949495Y898725D01*
X3934371Y919428D01*
X3798532Y1105368D01*
X3798531Y1105369D01*
X3796875Y1107636D01*
X3670833Y1234340D01*
X3616393Y1289066D01*
X3616390Y1289068D01*
X3614411Y1291058D01*
X3406302Y1444770D01*
X3359787Y1469242D01*
X3179830Y1563923D01*
X3179823Y1563926D01*
X3177337Y1565234D01*
X2932785Y1649679D01*
X2930024Y1650183D01*
X2930021Y1650184D01*
X2825774Y1669223D01*
X2678274Y1696161D01*
X2675912Y1696285D01*
X2675910Y1696285D01*
X2596442Y1700450D01*
X2596428Y1700450D01*
X2595481Y1700500D01*
X2434218Y1700500D01*
X2362753Y1695064D01*
X2244818Y1686093D01*
X2244812Y1686092D01*
X2242024Y1685880D01*
X1989985Y1627461D01*
X1987378Y1626421D01*
X1987372Y1626419D01*
X1752290Y1532631D01*
X1752284Y1532628D01*
X1749682Y1531590D01*
X1747263Y1530168D01*
X1747259Y1530166D01*
X1529071Y1401899D01*
X1529067Y1401896D01*
X1526646Y1400473D01*
X1326009Y1237129D01*
X1152387Y1045315D01*
X1150837Y1042969D01*
X1150834Y1042965D01*
X1069222Y919428D01*
X1009778Y829447D01*
X1008600Y826892D01*
X1008599Y826890D01*
X935872Y669133D01*
X901462Y594491D01*
X900688Y591800D01*
X900686Y591795D01*
X854769Y432187D01*
X829932Y345855D01*
X829573Y343070D01*
X819506Y265032D01*
X796250Y220072D01*
X746114Y200500D01*
X274500Y200500D01*
X226934Y217813D01*
X201624Y261650D01*
X200500Y274500D01*
X200500Y2695188D01*
X217813Y2742754D01*
X261650Y2768064D01*
X282043Y2768803D01*
X297760Y2767192D01*
X301529Y2767000D01*
X1182952Y2767000D01*
X1192948Y2770638D01*
X1196000Y2775925D01*
X1196000Y2780049D01*
X1704000Y2780049D01*
X1707638Y2770053D01*
X1712925Y2767001D01*
X2598454Y2767001D01*
X2602259Y2767198D01*
X2702034Y2777550D01*
X2709908Y2779251D01*
X2869650Y2832544D01*
X2877389Y2836169D01*
X3020377Y2924653D01*
X3027076Y2929964D01*
X3145868Y3048962D01*
X3151168Y3055672D01*
X3239403Y3198816D01*
X3243011Y3206555D01*
X3296031Y3366402D01*
X3297716Y3374263D01*
X3307807Y3472758D01*
X3308000Y3476529D01*
X3308000Y3507952D01*
X3304362Y3517948D01*
X3299075Y3521000D01*
X1717048Y3521000D01*
X1707052Y3517362D01*
X1704000Y3512075D01*
X1704000Y2780049D01*
X1196000Y2780049D01*
X1196000Y4042048D01*
X1704000Y4042048D01*
X1707638Y4032052D01*
X1712925Y4029000D01*
X3294951Y4029000D01*
X3304947Y4032638D01*
X3307999Y4037925D01*
X3307999Y4073454D01*
X3307802Y4077259D01*
X3297450Y4177034D01*
X3295749Y4184908D01*
X3242456Y4344650D01*
X3238831Y4352389D01*
X3150347Y4495377D01*
X3145036Y4502076D01*
X3026038Y4620868D01*
X3019328Y4626168D01*
X2876184Y4714403D01*
X2868445Y4718011D01*
X2708598Y4771031D01*
X2700737Y4772716D01*
X2602242Y4782807D01*
X2598471Y4783000D01*
X1717048Y4783000D01*
X1707052Y4779362D01*
X1704000Y4774075D01*
X1704000Y4042048D01*
X1196000Y4042048D01*
X1196000Y4769951D01*
X1192362Y4779947D01*
X1187075Y4782999D01*
X301546Y4782999D01*
X297744Y4782802D01*
X282138Y4781183D01*
X233039Y4793494D01*
X203340Y4834485D01*
X200500Y4854788D01*
X200500Y5365894D01*
X3297212Y5365894D01*
X3297377Y5362841D01*
X3340020Y5216068D01*
X3343687Y5207593D01*
X3423574Y5072511D01*
X3429238Y5065209D01*
X3540209Y4954238D01*
X3547511Y4948574D01*
X3682593Y4868687D01*
X3691068Y4865020D01*
X3842621Y4820989D01*
X3850015Y4819639D01*
X3882096Y4817114D01*
X3884995Y4817000D01*
X4382952Y4817000D01*
X4392948Y4820638D01*
X4396000Y4825925D01*
X4396000Y4830049D01*
X4904000Y4830049D01*
X4907638Y4820053D01*
X4912925Y4817001D01*
X5415002Y4817001D01*
X5417907Y4817115D01*
X5449978Y4819638D01*
X5457384Y4820990D01*
X5608932Y4865020D01*
X5617407Y4868687D01*
X5752489Y4948574D01*
X5759791Y4954238D01*
X5870762Y5065209D01*
X5876426Y5072511D01*
X5956313Y5207593D01*
X5959980Y5216068D01*
X6001353Y5358471D01*
X6000648Y5369083D01*
X5999474Y5370307D01*
X5996498Y5371000D01*
X4917048Y5371000D01*
X4907052Y5367362D01*
X4904000Y5362075D01*
X4904000Y4830049D01*
X4396000Y4830049D01*
X4396000Y5357952D01*
X4392362Y5367948D01*
X4387075Y5371000D01*
X3308055Y5371000D01*
X3298059Y5367362D01*
X3297212Y5365894D01*
X200500Y5365894D01*
X200500Y9398000D01*
X2188318Y9398000D01*
X2208956Y9241238D01*
X2269464Y9095159D01*
X2272414Y9091315D01*
X2272416Y9091311D01*
X2344400Y8997500D01*
X2365718Y8969718D01*
X2369568Y8966764D01*
X2369569Y8966763D01*
X2487311Y8876416D01*
X2487315Y8876414D01*
X2491159Y8873464D01*
X2637238Y8812956D01*
X2642040Y8812324D01*
X2642043Y8812323D01*
X2789192Y8792951D01*
X2794000Y8792318D01*
X2798808Y8792951D01*
X2945957Y8812323D01*
X2945960Y8812324D01*
X2950762Y8812956D01*
X3096841Y8873464D01*
X3100685Y8876414D01*
X3100689Y8876416D01*
X3218432Y8966764D01*
X3222282Y8969718D01*
X3225234Y8973566D01*
X3227497Y8975828D01*
X3273374Y8997219D01*
X3279821Y8997500D01*
X3651135Y8997500D01*
X3698701Y8980187D01*
X3703415Y8975871D01*
X3739318Y8940031D01*
X3743650Y8935707D01*
X3749147Y8933020D01*
X3842934Y8887176D01*
X3848482Y8884464D01*
X3916782Y8874500D01*
X5383218Y8874500D01*
X5389363Y8875405D01*
X5446423Y8883804D01*
X5446426Y8883805D01*
X5452112Y8884642D01*
X5457272Y8887175D01*
X5457274Y8887176D01*
X5503117Y8909684D01*
X5556855Y8936068D01*
X5561179Y8940400D01*
X5561181Y8940401D01*
X5573539Y8952780D01*
X5619396Y8974213D01*
X5625910Y8974500D01*
X5890367Y8974500D01*
X5935415Y8959208D01*
X6043311Y8876416D01*
X6043315Y8876414D01*
X6047159Y8873464D01*
X6193238Y8812956D01*
X6198040Y8812324D01*
X6198043Y8812323D01*
X6345192Y8792951D01*
X6350000Y8792318D01*
X6354808Y8792951D01*
X6501957Y8812323D01*
X6501960Y8812324D01*
X6506762Y8812956D01*
X6652841Y8873464D01*
X6656685Y8876414D01*
X6656689Y8876416D01*
X6774431Y8966763D01*
X6774432Y8966764D01*
X6778282Y8969718D01*
X6799600Y8997500D01*
X6871584Y9091311D01*
X6871586Y9091315D01*
X6874536Y9095159D01*
X6935044Y9241238D01*
X6955682Y9398000D01*
X6935044Y9554762D01*
X6874536Y9700841D01*
X6871586Y9704685D01*
X6871584Y9704689D01*
X6781237Y9822431D01*
X6778282Y9826282D01*
X6774431Y9829237D01*
X6656689Y9919584D01*
X6656685Y9919586D01*
X6652841Y9922536D01*
X6506762Y9983044D01*
X6501960Y9983676D01*
X6501957Y9983677D01*
X6354808Y10003049D01*
X6350000Y10003682D01*
X6345192Y10003049D01*
X6198043Y9983677D01*
X6198040Y9983676D01*
X6193238Y9983044D01*
X6047159Y9922536D01*
X6043315Y9919586D01*
X6043311Y9919584D01*
X5925569Y9829237D01*
X5921718Y9826282D01*
X5909203Y9809972D01*
X5904967Y9804451D01*
X5862275Y9777254D01*
X5846259Y9775500D01*
X5625825Y9775500D01*
X5578259Y9792813D01*
X5573545Y9797128D01*
X5560679Y9809972D01*
X5560678Y9809973D01*
X5556350Y9814293D01*
X5525778Y9829237D01*
X5456682Y9863012D01*
X5456681Y9863012D01*
X5451518Y9865536D01*
X5383218Y9875500D01*
X3916782Y9875500D01*
X3914099Y9875105D01*
X3853577Y9866196D01*
X3853574Y9866195D01*
X3847888Y9865358D01*
X3842728Y9862825D01*
X3842726Y9862824D01*
X3796883Y9840316D01*
X3743145Y9813932D01*
X3741033Y9811816D01*
X3699556Y9798500D01*
X3279821Y9798500D01*
X3232255Y9815813D01*
X3227497Y9820172D01*
X3225234Y9822434D01*
X3222282Y9826282D01*
X3191162Y9850161D01*
X3100689Y9919584D01*
X3100685Y9919586D01*
X3096841Y9922536D01*
X2950762Y9983044D01*
X2945960Y9983676D01*
X2945957Y9983677D01*
X2798808Y10003049D01*
X2794000Y10003682D01*
X2789192Y10003049D01*
X2642043Y9983677D01*
X2642040Y9983676D01*
X2637238Y9983044D01*
X2491159Y9922536D01*
X2487315Y9919586D01*
X2487311Y9919584D01*
X2369569Y9829237D01*
X2365718Y9826282D01*
X2362763Y9822431D01*
X2272416Y9704689D01*
X2272414Y9704685D01*
X2269464Y9700841D01*
X2208956Y9554762D01*
X2188318Y9398000D01*
X200500Y9398000D01*
X200500Y10145188D01*
X217813Y10192754D01*
X261650Y10218064D01*
X282043Y10218803D01*
X297760Y10217192D01*
X301529Y10217000D01*
X1182952Y10217000D01*
X1192948Y10220638D01*
X1196000Y10225925D01*
X1196000Y10230049D01*
X1704000Y10230049D01*
X1707638Y10220053D01*
X1712925Y10217001D01*
X2598454Y10217001D01*
X2602259Y10217198D01*
X2702034Y10227550D01*
X2709908Y10229251D01*
X2869650Y10282544D01*
X2877389Y10286169D01*
X3020377Y10374653D01*
X3027076Y10379964D01*
X3145868Y10498962D01*
X3151168Y10505672D01*
X3239403Y10648816D01*
X3243011Y10656555D01*
X3296031Y10816402D01*
X3297716Y10824263D01*
X3307807Y10922758D01*
X3308000Y10926529D01*
X3308000Y10957952D01*
X3304362Y10967948D01*
X3299075Y10971000D01*
X1717048Y10971000D01*
X1707052Y10967362D01*
X1704000Y10962075D01*
X1704000Y10230049D01*
X1196000Y10230049D01*
X1196000Y11492048D01*
X1704000Y11492048D01*
X1707638Y11482052D01*
X1712925Y11479000D01*
X3294951Y11479000D01*
X3304947Y11482638D01*
X3307999Y11487925D01*
X3307999Y11523454D01*
X3307802Y11527259D01*
X3297450Y11627034D01*
X3295749Y11634908D01*
X3242456Y11794650D01*
X3238831Y11802389D01*
X3150347Y11945377D01*
X3145036Y11952076D01*
X3026038Y12070868D01*
X3019328Y12076168D01*
X2876184Y12164403D01*
X2868445Y12168011D01*
X2708598Y12221031D01*
X2700737Y12222716D01*
X2602242Y12232807D01*
X2598471Y12233000D01*
X1717048Y12233000D01*
X1707052Y12229362D01*
X1704000Y12224075D01*
X1704000Y11492048D01*
X1196000Y11492048D01*
X1196000Y12219951D01*
X1192362Y12229947D01*
X1187075Y12232999D01*
X301546Y12232999D01*
X297744Y12232802D01*
X282138Y12231183D01*
X233039Y12243494D01*
X203340Y12284485D01*
X200500Y12304788D01*
X200500Y14725500D01*
X217813Y14773066D01*
X261650Y14798376D01*
X274500Y14799500D01*
X746404Y14799500D01*
X793970Y14782187D01*
G37*
%TD.AperFunction*%
%TD*%
M02*
