M48
; DRILL file {KiCad (5.99.0-10394-g2e15de97e0)} date Mon Apr 26 16:11:11 2021
; FORMAT={3:3/ absolute / metric / suppress leading zeros}
; #@! TF.CreationDate,2021-04-26T16:11:11+02:00
; #@! TF.GenerationSoftware,Kicad,Pcbnew,(5.99.0-10394-g2e15de97e0)
; #@! TF.FileFunction,Plated,1,2,PTH
FMAT,2
METRIC,TZ
; #@! TA.AperFunction,Plated,PTH,ViaDrill
T1C0.400
%
G90
G05
T1
X-125730Y145796
X-125730Y144653
X-125730Y143510
X-125603Y149733
X-125603Y142367
X-125603Y139192
X-125095Y146685
X-124587Y149733
X-124460Y139192
X-124079Y143764
X-123952Y146304
X-123571Y149733
X-123317Y139192
X-122809Y148971
X-122682Y147574
X-122555Y141224
X-122555Y140081
X-121666Y147574
X-120396Y146304
X-120396Y143764
X-120269Y140208
X-119634Y145034
X-115062Y140208
X-113792Y141351
X-111633Y150876
X-111633Y149606
X-111379Y138176
X-111252Y145034
X-110490Y140462
X-110109Y150876
X-110109Y146431
X-109728Y149606
X-108966Y143764
X-108712Y150876
X-108712Y140589
X-107823Y149606
X-107442Y146431
X-107315Y150876
X-106426Y149606
X-106172Y146431
X-105283Y139192
X-105156Y149606
X-105029Y146431
X-99441Y140970
X-99060Y146812
X-98298Y141732
T0
M30
