G04 #@! TF.GenerationSoftware,KiCad,Pcbnew,(5.99.0-10394-g2e15de97e0)*
G04 #@! TF.CreationDate,2021-04-26T16:11:07+02:00*
G04 #@! TF.ProjectId,TFHT01A,54464854-3031-4412-9e6b-696361645f70,REV*
G04 #@! TF.SameCoordinates,PX78dfd90PY8290510*
G04 #@! TF.FileFunction,Copper,L2,Bot*
G04 #@! TF.FilePolarity,Positive*
%FSLAX46Y46*%
G04 Gerber Fmt 4.6, Leading zero omitted, Abs format (unit mm)*
G04 Created by KiCad (PCBNEW (5.99.0-10394-g2e15de97e0)) date 2021-04-26 16:11:07*
%MOMM*%
%LPD*%
G01*
G04 APERTURE LIST*
G04 Aperture macros list*
%AMRoundRect*
0 Rectangle with rounded corners*
0 $1 Rounding radius*
0 $2 $3 $4 $5 $6 $7 $8 $9 X,Y pos of 4 corners*
0 Add a 4 corners polygon primitive as box body*
4,1,4,$2,$3,$4,$5,$6,$7,$8,$9,$2,$3,0*
0 Add four circle primitives for the rounded corners*
1,1,$1+$1,$2,$3*
1,1,$1+$1,$4,$5*
1,1,$1+$1,$6,$7*
1,1,$1+$1,$8,$9*
0 Add four rect primitives between the rounded corners*
20,1,$1+$1,$2,$3,$4,$5,0*
20,1,$1+$1,$4,$5,$6,$7,0*
20,1,$1+$1,$6,$7,$8,$9,0*
20,1,$1+$1,$8,$9,$2,$3,0*%
%AMFreePoly0*
4,1,22,0.550000,-0.750000,0.000000,-0.750000,0.000000,-0.745033,-0.079941,-0.743568,-0.215256,-0.701293,-0.333266,-0.622738,-0.424486,-0.514219,-0.481581,-0.384460,-0.499164,-0.250000,-0.500000,-0.250000,-0.500000,0.250000,-0.499164,0.250000,-0.499963,0.256109,-0.478152,0.396186,-0.417904,0.524511,-0.324060,0.630769,-0.204165,0.706417,-0.067858,0.745374,0.000000,0.744959,0.000000,0.750000,
0.550000,0.750000,0.550000,-0.750000,0.550000,-0.750000,$1*%
%AMFreePoly1*
4,1,20,0.000000,0.744959,0.073905,0.744508,0.209726,0.703889,0.328688,0.626782,0.421226,0.519385,0.479903,0.390333,0.500000,0.250000,0.500000,-0.250000,0.499851,-0.262216,0.476331,-0.402017,0.414519,-0.529596,0.319384,-0.634700,0.198574,-0.708877,0.061801,-0.746166,0.000000,-0.745033,0.000000,-0.750000,-0.550000,-0.750000,-0.550000,0.750000,0.000000,0.750000,0.000000,0.744959,
0.000000,0.744959,$1*%
G04 Aperture macros list end*
G04 #@! TA.AperFunction,SMDPad,CuDef*
%ADD10FreePoly0,180.000000*%
G04 #@! TD*
G04 #@! TA.AperFunction,SMDPad,CuDef*
%ADD11R,1.000000X1.500000*%
G04 #@! TD*
G04 #@! TA.AperFunction,SMDPad,CuDef*
%ADD12FreePoly1,180.000000*%
G04 #@! TD*
G04 #@! TA.AperFunction,SMDPad,CuDef*
%ADD13R,0.950000X1.500000*%
G04 #@! TD*
G04 #@! TA.AperFunction,SMDPad,CuDef*
%ADD14RoundRect,0.218750X0.256250X-0.218750X0.256250X0.218750X-0.256250X0.218750X-0.256250X-0.218750X0*%
G04 #@! TD*
G04 #@! TA.AperFunction,SMDPad,CuDef*
%ADD15R,0.700000X0.600000*%
G04 #@! TD*
G04 #@! TA.AperFunction,SMDPad,CuDef*
%ADD16RoundRect,0.150000X0.700000X-0.150000X0.700000X0.150000X-0.700000X0.150000X-0.700000X-0.150000X0*%
G04 #@! TD*
G04 #@! TA.AperFunction,SMDPad,CuDef*
%ADD17RoundRect,0.250000X1.100000X-0.250000X1.100000X0.250000X-1.100000X0.250000X-1.100000X-0.250000X0*%
G04 #@! TD*
G04 #@! TA.AperFunction,SMDPad,CuDef*
%ADD18RoundRect,0.218750X0.218750X0.256250X-0.218750X0.256250X-0.218750X-0.256250X0.218750X-0.256250X0*%
G04 #@! TD*
G04 #@! TA.AperFunction,SMDPad,CuDef*
%ADD19R,0.300000X0.600000*%
G04 #@! TD*
G04 #@! TA.AperFunction,SMDPad,CuDef*
%ADD20R,1.700000X1.000000*%
G04 #@! TD*
G04 #@! TA.AperFunction,SMDPad,CuDef*
%ADD21RoundRect,0.218750X-0.218750X-0.256250X0.218750X-0.256250X0.218750X0.256250X-0.218750X0.256250X0*%
G04 #@! TD*
G04 #@! TA.AperFunction,SMDPad,CuDef*
%ADD22R,0.900000X0.800000*%
G04 #@! TD*
G04 #@! TA.AperFunction,SMDPad,CuDef*
%ADD23R,1.397000X0.889000*%
G04 #@! TD*
G04 #@! TA.AperFunction,SMDPad,CuDef*
%ADD24R,0.650000X1.060000*%
G04 #@! TD*
G04 #@! TA.AperFunction,SMDPad,CuDef*
%ADD25RoundRect,0.218750X-0.256250X0.218750X-0.256250X-0.218750X0.256250X-0.218750X0.256250X0.218750X0*%
G04 #@! TD*
G04 #@! TA.AperFunction,ViaPad*
%ADD26C,0.800000*%
G04 #@! TD*
G04 #@! TA.AperFunction,Conductor*
%ADD27C,0.300000*%
G04 #@! TD*
G04 #@! TA.AperFunction,Conductor*
%ADD28C,0.250000*%
G04 #@! TD*
G04 #@! TA.AperFunction,Conductor*
%ADD29C,0.400000*%
G04 #@! TD*
G04 APERTURE END LIST*
G04 #@! TO.C,JP1*
G36*
X-107812000Y138638000D02*
G01*
X-108312000Y138638000D01*
X-108312000Y139238000D01*
X-107812000Y139238000D01*
X-107812000Y138638000D01*
G37*
G04 #@! TD*
D10*
G04 #@! TO.P,JP1,1,A*
G04 #@! TO.N,GND*
X-107412000Y138938000D03*
D11*
G04 #@! TO.P,JP1,2,C*
G04 #@! TO.N,Net-(JP1-Pad2)*
X-108712000Y138938000D03*
D12*
G04 #@! TO.P,JP1,3,B*
G04 #@! TO.N,+3V3*
X-110012000Y138938000D03*
G04 #@! TD*
D13*
G04 #@! TO.P,D2,1,K*
G04 #@! TO.N,GND*
X-120321000Y149906000D03*
G04 #@! TO.P,D2,2,A*
G04 #@! TO.N,Net-(D2-Pad2)*
X-116171000Y149906000D03*
G04 #@! TD*
D14*
G04 #@! TO.P,C4,1*
G04 #@! TO.N,+5V*
X-114935000Y141478000D03*
G04 #@! TO.P,C4,2*
G04 #@! TO.N,GND*
X-114935000Y143053000D03*
G04 #@! TD*
D15*
G04 #@! TO.P,D1,1,K*
G04 #@! TO.N,+5V*
X-119380000Y146301000D03*
G04 #@! TO.P,D1,2,A*
G04 #@! TO.N,GND*
X-119380000Y147701000D03*
G04 #@! TD*
D13*
G04 #@! TO.P,D3,1,K*
G04 #@! TO.N,Net-(D3-Pad1)*
X-120321000Y138906000D03*
G04 #@! TO.P,D3,2,A*
G04 #@! TO.N,+5V*
X-116171000Y138906000D03*
G04 #@! TD*
D16*
G04 #@! TO.P,J1,1*
G04 #@! TO.N,+5V*
X-122096000Y142531000D03*
G04 #@! TO.P,J1,2*
G04 #@! TO.N,/SCL*
X-122096000Y143781000D03*
G04 #@! TO.P,J1,3*
G04 #@! TO.N,/SDA*
X-122096000Y145031000D03*
G04 #@! TO.P,J1,4*
G04 #@! TO.N,GND*
X-122096000Y146281000D03*
D17*
G04 #@! TO.P,J1,MP*
X-125296000Y140681000D03*
X-125296000Y148131000D03*
G04 #@! TD*
D18*
G04 #@! TO.P,R2,1*
G04 #@! TO.N,/ALERT*
X-107569000Y142240000D03*
G04 #@! TO.P,R2,2*
G04 #@! TO.N,Net-(Q1-Pad1)*
X-109144000Y142240000D03*
G04 #@! TD*
D19*
G04 #@! TO.P,U1,1,SDA*
G04 #@! TO.N,/SDA*
X-98996000Y143206000D03*
G04 #@! TO.P,U1,2,ADDR*
G04 #@! TO.N,Net-(JP1-Pad2)*
X-99496000Y143206000D03*
G04 #@! TO.P,U1,3,ALERT*
G04 #@! TO.N,/ALERT*
X-99996000Y143206000D03*
G04 #@! TO.P,U1,4,SCL*
G04 #@! TO.N,/SCL*
X-100496000Y143206000D03*
G04 #@! TO.P,U1,5,VDD*
G04 #@! TO.N,+3V3*
X-100496000Y145606000D03*
G04 #@! TO.P,U1,6,nRESET*
G04 #@! TO.N,unconnected-(U1-Pad6)*
X-99996000Y145606000D03*
G04 #@! TO.P,U1,7,GND*
G04 #@! TO.N,GND*
X-99496000Y145606000D03*
G04 #@! TO.P,U1,8,GND*
X-98996000Y145606000D03*
D20*
G04 #@! TO.P,U1,9,GND*
X-99746000Y144406000D03*
G04 #@! TD*
D21*
G04 #@! TO.P,C5,1*
G04 #@! TO.N,+3V3*
X-100635000Y147955000D03*
G04 #@! TO.P,C5,2*
G04 #@! TO.N,GND*
X-99060000Y147955000D03*
G04 #@! TD*
G04 #@! TO.P,R4,1*
G04 #@! TO.N,Net-(D3-Pad1)*
X-114224000Y139573000D03*
G04 #@! TO.P,R4,2*
G04 #@! TO.N,Net-(Q1-Pad3)*
X-112649000Y139573000D03*
G04 #@! TD*
D14*
G04 #@! TO.P,C1,1*
G04 #@! TO.N,+3V3*
X-115443000Y145618000D03*
G04 #@! TO.P,C1,2*
G04 #@! TO.N,GND*
X-115443000Y147193000D03*
G04 #@! TD*
D22*
G04 #@! TO.P,Q1,1,B*
G04 #@! TO.N,Net-(Q1-Pad1)*
X-110887000Y143571000D03*
G04 #@! TO.P,Q1,2,E*
G04 #@! TO.N,GND*
X-110887000Y141671000D03*
G04 #@! TO.P,Q1,3,C*
G04 #@! TO.N,Net-(Q1-Pad3)*
X-112887000Y142621000D03*
G04 #@! TD*
D23*
G04 #@! TO.P,C3,1*
G04 #@! TO.N,+5V*
X-117221000Y145796000D03*
G04 #@! TO.P,C3,2*
G04 #@! TO.N,GND*
X-117221000Y147701000D03*
G04 #@! TD*
D24*
G04 #@! TO.P,U3,1,VIN*
G04 #@! TO.N,+5V*
X-116779000Y141902000D03*
G04 #@! TO.P,U3,2,GND*
G04 #@! TO.N,GND*
X-117729000Y141902000D03*
G04 #@! TO.P,U3,3,EN*
G04 #@! TO.N,+5V*
X-118679000Y141902000D03*
G04 #@! TO.P,U3,4,NC*
G04 #@! TO.N,unconnected-(U3-Pad4)*
X-118679000Y144102000D03*
G04 #@! TO.P,U3,5,VOUT*
G04 #@! TO.N,+3V3*
X-116779000Y144102000D03*
G04 #@! TD*
D25*
G04 #@! TO.P,R3,1*
G04 #@! TO.N,+3V3*
X-108966000Y147980500D03*
G04 #@! TO.P,R3,2*
G04 #@! TO.N,/SCL*
X-108966000Y146405500D03*
G04 #@! TD*
G04 #@! TO.P,R10,1*
G04 #@! TO.N,+3V3*
X-111252000Y147955000D03*
G04 #@! TO.P,R10,2*
G04 #@! TO.N,/SDA*
X-111252000Y146380000D03*
G04 #@! TD*
D14*
G04 #@! TO.P,R1,1*
G04 #@! TO.N,+5V*
X-113411000Y146431000D03*
G04 #@! TO.P,R1,2*
G04 #@! TO.N,Net-(D2-Pad2)*
X-113411000Y148006000D03*
G04 #@! TD*
D26*
G04 #@! TO.N,GND*
X-122555000Y141224000D03*
X-125603000Y149733000D03*
X-107315000Y150876000D03*
X-113792000Y141351000D03*
X-99060000Y146812000D03*
X-107442000Y146431000D03*
X-106426000Y149606000D03*
X-109728000Y149606000D03*
X-110490000Y140462000D03*
X-122809000Y148971000D03*
X-124587000Y149733000D03*
X-123571000Y149733000D03*
X-107823000Y149606000D03*
X-125603000Y142367000D03*
X-125603000Y139192000D03*
X-111379000Y138176000D03*
X-111633000Y149606000D03*
X-111633000Y150876000D03*
X-125095000Y146685000D03*
X-108712000Y150876000D03*
X-123317000Y139192000D03*
X-110109000Y150876000D03*
X-122555000Y140081000D03*
X-125730000Y145796000D03*
X-124460000Y139192000D03*
X-105156000Y149606000D03*
X-121666000Y147574000D03*
X-110109000Y146431000D03*
X-125730000Y144653000D03*
X-105029000Y146431000D03*
X-105283000Y139192000D03*
X-106172000Y146431000D03*
X-125730000Y143510000D03*
X-122682000Y147574000D03*
G04 #@! TO.N,Net-(D3-Pad1)*
X-120269000Y140208000D03*
X-115062000Y140208000D03*
G04 #@! TO.N,+5V*
X-123952000Y146304000D03*
X-120396000Y146304000D03*
G04 #@! TO.N,/SDA*
X-124079000Y143764000D03*
X-119634000Y145034000D03*
X-111252000Y145034000D03*
X-98298000Y141732000D03*
G04 #@! TO.N,/SCL*
X-120396000Y143764000D03*
X-108966000Y143764000D03*
G04 #@! TO.N,Net-(JP1-Pad2)*
X-99441000Y140970000D03*
X-108712000Y140589000D03*
G04 #@! TD*
D27*
G04 #@! TO.N,GND*
X-99496000Y144656000D02*
X-99746000Y144406000D01*
D28*
X-98996000Y146367000D02*
X-99487000Y146367000D01*
D29*
X-116713000Y147193000D02*
X-117221000Y147701000D01*
D27*
X-107823000Y149606000D02*
X-109728000Y149606000D01*
X-107061000Y148844000D02*
X-107823000Y149606000D01*
X-105156000Y149606000D02*
X-106426000Y149606000D01*
D29*
X-119380000Y147701000D02*
X-117221000Y147701000D01*
D27*
X-98996000Y147891000D02*
X-99060000Y147955000D01*
X-106299000Y148844000D02*
X-107061000Y148844000D01*
D29*
X-115443000Y147193000D02*
X-116713000Y147193000D01*
X-122119000Y146304000D02*
X-122096000Y146281000D01*
D28*
X-99496000Y146376000D02*
X-99060000Y146812000D01*
D27*
X-99060000Y147955000D02*
X-99060000Y148082000D01*
X-109728000Y149606000D02*
X-111633000Y149606000D01*
X-98996000Y146367000D02*
X-98996000Y146748000D01*
X-99496000Y145606000D02*
X-99496000Y144656000D01*
D28*
X-99496000Y145606000D02*
X-99496000Y146376000D01*
D27*
X-98996000Y146748000D02*
X-99060000Y146812000D01*
X-106426000Y149606000D02*
X-107823000Y149606000D01*
X-99060000Y147955000D02*
X-99060000Y146812000D01*
D28*
X-99487000Y146367000D02*
X-99496000Y146376000D01*
D27*
X-106172000Y148971000D02*
X-106299000Y148844000D01*
D28*
X-98996000Y145606000D02*
X-98996000Y146367000D01*
D29*
G04 #@! TO.N,Net-(D2-Pad2)*
X-116171000Y149906000D02*
X-115311000Y149906000D01*
X-115311000Y149906000D02*
X-113411000Y148006000D01*
G04 #@! TO.N,Net-(D3-Pad1)*
X-114224000Y139573000D02*
X-114427000Y139573000D01*
X-120269000Y140208000D02*
X-120269000Y138958000D01*
X-114427000Y139573000D02*
X-115062000Y140208000D01*
X-120269000Y138958000D02*
X-120321000Y138906000D01*
D27*
G04 #@! TO.N,+3V3*
X-100496000Y147816000D02*
X-100635000Y147955000D01*
D29*
X-101168400Y147421600D02*
X-100635000Y147955000D01*
X-108991500Y147955000D02*
X-108966000Y147980500D01*
X-112827980Y145593980D02*
X-112268000Y146153960D01*
X-111506000Y140335000D02*
X-111506000Y139446000D01*
X-107797700Y147980500D02*
X-107238800Y147421600D01*
D28*
X-100496000Y145606000D02*
X-100496000Y147816000D01*
D29*
X-107238800Y147421600D02*
X-101168400Y147421600D01*
X-112827980Y144450980D02*
X-112037489Y143660489D01*
X-112037489Y140866489D02*
X-111506000Y140335000D01*
X-111252000Y147955000D02*
X-108991500Y147955000D01*
X-115443000Y145618000D02*
X-115418980Y145593980D01*
X-112268000Y146153960D02*
X-112268000Y146939000D01*
X-116779000Y144102000D02*
X-116779000Y144282000D01*
X-112827980Y145593980D02*
X-112827980Y144450980D01*
X-112268000Y146939000D02*
X-111252000Y147955000D01*
X-108966000Y147980500D02*
X-107797700Y147980500D01*
X-110998000Y138938000D02*
X-110012000Y138938000D01*
X-112037489Y143660489D02*
X-112037489Y140866489D01*
X-115418980Y145593980D02*
X-112827980Y145593980D01*
X-111506000Y139446000D02*
X-110998000Y138938000D01*
X-116779000Y144282000D02*
X-115443000Y145618000D01*
G04 #@! TO.N,+5V*
X-119380000Y146301000D02*
X-117726000Y146301000D01*
X-124878511Y145377489D02*
X-123952000Y146304000D01*
D27*
X-117221000Y145796000D02*
X-116967000Y145796000D01*
D29*
X-119383000Y146304000D02*
X-119380000Y146301000D01*
D27*
X-113411000Y146431000D02*
X-113436020Y146405980D01*
D29*
X-117035000Y140716000D02*
X-116459000Y140716000D01*
X-118679000Y141902000D02*
X-118679000Y141031000D01*
X-117035000Y140716000D02*
X-116779000Y140972000D01*
X-118364000Y140716000D02*
X-117035000Y140716000D01*
X-122096000Y142531000D02*
X-120560000Y142531000D01*
D27*
X-113436020Y146405980D02*
X-116357020Y146405980D01*
D29*
X-116078000Y140716000D02*
X-115697000Y140716000D01*
X-120560000Y142531000D02*
X-119931000Y141902000D01*
X-118679000Y141031000D02*
X-118364000Y140716000D01*
X-117726000Y146301000D02*
X-117221000Y145796000D01*
X-116459000Y140716000D02*
X-116078000Y140716000D01*
X-122096000Y142531000D02*
X-123989000Y142531000D01*
X-120396000Y146304000D02*
X-119383000Y146304000D01*
X-116779000Y141163000D02*
X-116779000Y141036000D01*
D27*
X-116967000Y145796000D02*
X-116357020Y146405980D01*
D29*
X-116171000Y140623000D02*
X-116078000Y140716000D01*
X-123989000Y142531000D02*
X-124878511Y143420511D01*
X-116779000Y140972000D02*
X-116779000Y141163000D01*
X-116779000Y141036000D02*
X-116459000Y140716000D01*
X-116171000Y138906000D02*
X-116171000Y140623000D01*
X-116779000Y141163000D02*
X-116779000Y141902000D01*
X-114935000Y141478000D02*
X-115697000Y140716000D01*
X-119931000Y141902000D02*
X-118679000Y141902000D01*
X-124878511Y143420511D02*
X-124878511Y145377489D01*
D27*
G04 #@! TO.N,/SDA*
X-98996000Y142454805D02*
X-98298000Y141756805D01*
D29*
X-123701000Y145031000D02*
X-122096000Y145031000D01*
X-124079000Y144653000D02*
X-123701000Y145031000D01*
D28*
X-98996000Y143206000D02*
X-98996000Y142454805D01*
D29*
X-111252000Y146380000D02*
X-111252000Y145034000D01*
X-119637000Y145031000D02*
X-122096000Y145031000D01*
X-119634000Y145034000D02*
X-119637000Y145031000D01*
D27*
X-98298000Y141756805D02*
X-98298000Y141732000D01*
D29*
X-124079000Y143764000D02*
X-124079000Y144653000D01*
G04 #@! TO.N,/SCL*
X-120396000Y143764000D02*
X-120413000Y143781000D01*
D27*
X-100496000Y141820000D02*
X-100634800Y141681200D01*
D29*
X-108966000Y146405500D02*
X-108966000Y143764000D01*
D27*
X-106781600Y143764000D02*
X-108966000Y143764000D01*
D28*
X-100496000Y143206000D02*
X-100496000Y141820000D01*
D27*
X-100634800Y141681200D02*
X-104698800Y141681200D01*
D29*
X-120413000Y143781000D02*
X-122096000Y143781000D01*
D27*
X-104698800Y141681200D02*
X-106781600Y143764000D01*
D29*
G04 #@! TO.N,Net-(Q1-Pad1)*
X-110805000Y143571000D02*
X-110172500Y142938500D01*
X-109144000Y142240000D02*
X-109144000Y142291000D01*
X-109791500Y142938500D02*
X-110172500Y142938500D01*
X-110887000Y143571000D02*
X-110805000Y143571000D01*
X-109144000Y142291000D02*
X-109791500Y142938500D01*
D27*
G04 #@! TO.N,Net-(JP1-Pad2)*
X-99496000Y141025000D02*
X-99441000Y140970000D01*
X-108712000Y138938000D02*
X-108712000Y140589000D01*
D28*
X-99496000Y143206000D02*
X-99496000Y141025000D01*
D29*
G04 #@! TO.N,Net-(Q1-Pad3)*
X-112887000Y142621000D02*
X-112887000Y139811000D01*
X-112887000Y139811000D02*
X-112649000Y139573000D01*
D28*
G04 #@! TO.N,/ALERT*
X-99996000Y141939000D02*
X-99996000Y141832216D01*
X-100021481Y141623447D02*
X-100197664Y141447264D01*
D27*
X-100471728Y141173200D02*
X-106502200Y141173200D01*
D28*
X-99996000Y141648928D02*
X-100197664Y141447264D01*
D27*
X-100197664Y141447264D02*
X-100471728Y141173200D01*
D29*
X-107569000Y142113000D02*
X-107569000Y142240000D01*
D28*
X-99996000Y143206000D02*
X-99996000Y141939000D01*
X-99996000Y143206000D02*
X-99996000Y141648928D01*
D27*
X-106502200Y141173200D02*
X-107569000Y142240000D01*
D28*
X-99996000Y141685000D02*
X-99996000Y141939000D01*
G04 #@! TD*
G04 #@! TA.AperFunction,Conductor*
G04 #@! TO.N,GND*
G36*
X-107946678Y147562687D02*
G01*
X-107941918Y147558326D01*
X-107566884Y147183292D01*
X-107566863Y147183268D01*
X-107566856Y147183253D01*
X-107477147Y147093544D01*
X-107471961Y147090902D01*
X-107471956Y147090898D01*
X-107453902Y147081699D01*
X-107444001Y147075632D01*
X-107427607Y147063721D01*
X-107427602Y147063719D01*
X-107422893Y147060297D01*
X-107417356Y147058498D01*
X-107417354Y147058497D01*
X-107398080Y147052235D01*
X-107387352Y147047791D01*
X-107369300Y147038593D01*
X-107369297Y147038592D01*
X-107364106Y147035947D01*
X-107344560Y147032851D01*
X-107338337Y147031865D01*
X-107327050Y147029155D01*
X-107307772Y147022892D01*
X-107307770Y147022892D01*
X-107302234Y147021093D01*
X-107175366Y147021093D01*
X-107175351Y147021098D01*
X-107175321Y147021100D01*
X-104595000Y147021100D01*
X-104547434Y147003787D01*
X-104522124Y146959950D01*
X-104521000Y146947100D01*
X-104521000Y142177734D01*
X-104538313Y142130168D01*
X-104582150Y142104858D01*
X-104632000Y142113648D01*
X-104647326Y142125408D01*
X-106501224Y143979306D01*
X-106511065Y143991491D01*
X-106518661Y144003256D01*
X-106546006Y144024813D01*
X-106552519Y144030601D01*
X-106555000Y144033082D01*
X-106557478Y144034853D01*
X-106557483Y144034857D01*
X-106569584Y144043504D01*
X-106572374Y144045599D01*
X-106585185Y144055699D01*
X-106599203Y144066750D01*
X-106605533Y144071740D01*
X-106605534Y144071740D01*
X-106610337Y144075527D01*
X-106616106Y144077553D01*
X-106617159Y144078132D01*
X-106617854Y144078569D01*
X-106618390Y144078848D01*
X-106619138Y144079161D01*
X-106620229Y144079695D01*
X-106625202Y144083249D01*
X-106631059Y144085001D01*
X-106631060Y144085001D01*
X-106671538Y144097106D01*
X-106674855Y144098184D01*
X-106716090Y144112665D01*
X-106716092Y144112666D01*
X-106720479Y144114206D01*
X-106723873Y144114500D01*
X-106725469Y144114500D01*
X-106725772Y144114513D01*
X-106731314Y144114982D01*
X-106737044Y144116696D01*
X-106743154Y144116456D01*
X-106791498Y144114557D01*
X-106794403Y144114500D01*
X-108441770Y144114500D01*
X-108489336Y144131813D01*
X-108500478Y144143452D01*
X-108534892Y144188302D01*
X-108537847Y144192153D01*
X-108541698Y144195108D01*
X-108543826Y144197236D01*
X-108565218Y144243112D01*
X-108565500Y144249562D01*
X-108565500Y145744617D01*
X-108548187Y145792183D01*
X-108525096Y145810551D01*
X-108495020Y145825876D01*
X-108460382Y145843525D01*
X-108366525Y145937382D01*
X-108363881Y145942572D01*
X-108363879Y145942574D01*
X-108308910Y146050457D01*
X-108306264Y146055650D01*
X-108305353Y146061402D01*
X-108305352Y146061405D01*
X-108290955Y146152308D01*
X-108290500Y146155181D01*
X-108290500Y146655819D01*
X-108294702Y146682350D01*
X-108305352Y146749595D01*
X-108305353Y146749598D01*
X-108306264Y146755350D01*
X-108316369Y146775183D01*
X-108363879Y146868426D01*
X-108363881Y146868428D01*
X-108366525Y146873618D01*
X-108460382Y146967475D01*
X-108465572Y146970119D01*
X-108465574Y146970121D01*
X-108573457Y147025090D01*
X-108578650Y147027736D01*
X-108584402Y147028647D01*
X-108584405Y147028648D01*
X-108675308Y147043045D01*
X-108678181Y147043500D01*
X-109253819Y147043500D01*
X-109256692Y147043045D01*
X-109347595Y147028648D01*
X-109347598Y147028647D01*
X-109353350Y147027736D01*
X-109358543Y147025090D01*
X-109466426Y146970121D01*
X-109466428Y146970119D01*
X-109471618Y146967475D01*
X-109565475Y146873618D01*
X-109568119Y146868428D01*
X-109568121Y146868426D01*
X-109615631Y146775183D01*
X-109625736Y146755350D01*
X-109626647Y146749598D01*
X-109626648Y146749595D01*
X-109637298Y146682350D01*
X-109641500Y146655819D01*
X-109641500Y146155181D01*
X-109641045Y146152308D01*
X-109626648Y146061405D01*
X-109626647Y146061402D01*
X-109625736Y146055650D01*
X-109623090Y146050457D01*
X-109568121Y145942574D01*
X-109568119Y145942572D01*
X-109565475Y145937382D01*
X-109471618Y145843525D01*
X-109436980Y145825876D01*
X-109406904Y145810551D01*
X-109372382Y145773531D01*
X-109366500Y145744617D01*
X-109366500Y144249562D01*
X-109383813Y144201996D01*
X-109388174Y144197236D01*
X-109390302Y144195108D01*
X-109394153Y144192153D01*
X-109397108Y144188302D01*
X-109487426Y144070598D01*
X-109487428Y144070594D01*
X-109490378Y144066750D01*
X-109550868Y143920715D01*
X-109551500Y143915913D01*
X-109551501Y143915910D01*
X-109568631Y143785795D01*
X-109571500Y143764000D01*
X-109550868Y143607285D01*
X-109490378Y143461250D01*
X-109487428Y143457406D01*
X-109487426Y143457402D01*
X-109411337Y143358241D01*
X-109394153Y143335847D01*
X-109390302Y143332892D01*
X-109272598Y143242574D01*
X-109272594Y143242572D01*
X-109268750Y143239622D01*
X-109122715Y143179132D01*
X-109117913Y143178500D01*
X-109117910Y143178499D01*
X-108970808Y143159133D01*
X-108966000Y143158500D01*
X-108961192Y143159133D01*
X-108814090Y143178499D01*
X-108814087Y143178500D01*
X-108809285Y143179132D01*
X-108663250Y143239622D01*
X-108659406Y143242572D01*
X-108659402Y143242574D01*
X-108541698Y143332892D01*
X-108537847Y143335847D01*
X-108500477Y143384549D01*
X-108457787Y143411746D01*
X-108441770Y143413500D01*
X-106957434Y143413500D01*
X-106909868Y143396187D01*
X-106905108Y143391826D01*
X-105163308Y141650026D01*
X-105141916Y141604150D01*
X-105155017Y141555255D01*
X-105196481Y141526221D01*
X-105215634Y141523700D01*
X-106326366Y141523700D01*
X-106373932Y141541013D01*
X-106378692Y141545374D01*
X-106909326Y142076008D01*
X-106930718Y142121884D01*
X-106931000Y142128334D01*
X-106931000Y142527819D01*
X-106932926Y142539980D01*
X-106945852Y142621595D01*
X-106945853Y142621598D01*
X-106946764Y142627350D01*
X-106964352Y142661869D01*
X-107004379Y142740426D01*
X-107004381Y142740428D01*
X-107007025Y142745618D01*
X-107100882Y142839475D01*
X-107106072Y142842119D01*
X-107106074Y142842121D01*
X-107213957Y142897090D01*
X-107219150Y142899736D01*
X-107224902Y142900647D01*
X-107224905Y142900648D01*
X-107315808Y142915045D01*
X-107318681Y142915500D01*
X-107819319Y142915500D01*
X-107822192Y142915045D01*
X-107913095Y142900648D01*
X-107913098Y142900647D01*
X-107918850Y142899736D01*
X-107924043Y142897090D01*
X-108031926Y142842121D01*
X-108031928Y142842119D01*
X-108037118Y142839475D01*
X-108130975Y142745618D01*
X-108133619Y142740428D01*
X-108133621Y142740426D01*
X-108173648Y142661869D01*
X-108191236Y142627350D01*
X-108192147Y142621598D01*
X-108192148Y142621595D01*
X-108205074Y142539980D01*
X-108207000Y142527819D01*
X-108207000Y141952181D01*
X-108206545Y141949308D01*
X-108192148Y141858405D01*
X-108192147Y141858402D01*
X-108191236Y141852650D01*
X-108188590Y141847457D01*
X-108133621Y141739574D01*
X-108133619Y141739572D01*
X-108130975Y141734382D01*
X-108037118Y141640525D01*
X-108031928Y141637881D01*
X-108031926Y141637879D01*
X-107927012Y141584423D01*
X-107918850Y141580264D01*
X-107913098Y141579353D01*
X-107913095Y141579352D01*
X-107822192Y141564955D01*
X-107819319Y141564500D01*
X-107419834Y141564500D01*
X-107372268Y141547187D01*
X-107367508Y141542826D01*
X-106782576Y140957894D01*
X-106772737Y140945712D01*
X-106765139Y140933944D01*
X-106760339Y140930160D01*
X-106760338Y140930159D01*
X-106737794Y140912387D01*
X-106731281Y140906599D01*
X-106728800Y140904118D01*
X-106726322Y140902347D01*
X-106726317Y140902343D01*
X-106714216Y140893696D01*
X-106711433Y140891606D01*
X-106673463Y140861673D01*
X-106667694Y140859647D01*
X-106666641Y140859068D01*
X-106665946Y140858631D01*
X-106665410Y140858352D01*
X-106664662Y140858039D01*
X-106663571Y140857505D01*
X-106658598Y140853951D01*
X-106652741Y140852199D01*
X-106652740Y140852199D01*
X-106612262Y140840094D01*
X-106608945Y140839016D01*
X-106567710Y140824535D01*
X-106567708Y140824534D01*
X-106563321Y140822994D01*
X-106559927Y140822700D01*
X-106558331Y140822700D01*
X-106558028Y140822687D01*
X-106552486Y140822218D01*
X-106546756Y140820504D01*
X-106540646Y140820744D01*
X-106492302Y140822643D01*
X-106489397Y140822700D01*
X-104595000Y140822700D01*
X-104547434Y140805387D01*
X-104522124Y140761550D01*
X-104521000Y140748700D01*
X-104521000Y138646740D01*
X-104538313Y138599174D01*
X-104578291Y138574651D01*
X-104696058Y138547354D01*
X-104756014Y138533457D01*
X-104758625Y138532415D01*
X-104758626Y138532415D01*
X-104993708Y138438627D01*
X-104993714Y138438624D01*
X-104996316Y138437586D01*
X-104998735Y138436164D01*
X-104998739Y138436162D01*
X-105216927Y138307896D01*
X-105216931Y138307893D01*
X-105219352Y138306470D01*
X-105221531Y138304696D01*
X-105353747Y138197055D01*
X-105419989Y138143126D01*
X-105421876Y138141041D01*
X-105565375Y137982505D01*
X-105593609Y137951313D01*
X-105736219Y137735445D01*
X-105844534Y137500490D01*
X-105845309Y137497794D01*
X-105845313Y137497785D01*
X-105856316Y137459540D01*
X-105886105Y137418615D01*
X-105927431Y137406000D01*
X-112566804Y137406000D01*
X-112614370Y137423313D01*
X-112636877Y137456213D01*
X-112651907Y137500490D01*
X-112677244Y137575131D01*
X-112796508Y137804723D01*
X-112811656Y137825459D01*
X-112947471Y138011366D01*
X-112947472Y138011367D01*
X-112949128Y138013634D01*
X-113051463Y138116506D01*
X-113129609Y138195063D01*
X-113129612Y138195065D01*
X-113131591Y138197055D01*
X-113339700Y138350766D01*
X-113568664Y138471231D01*
X-113571320Y138472148D01*
X-113571322Y138472149D01*
X-113810557Y138554757D01*
X-113810559Y138554757D01*
X-113813216Y138555675D01*
X-113815977Y138556179D01*
X-113815980Y138556180D01*
X-113947064Y138580120D01*
X-114067727Y138602157D01*
X-114070089Y138602281D01*
X-114070091Y138602281D01*
X-114149634Y138606450D01*
X-114149648Y138606450D01*
X-114150595Y138606500D01*
X-114311729Y138606500D01*
X-114383223Y138601061D01*
X-114501181Y138592089D01*
X-114501187Y138592088D01*
X-114503975Y138591876D01*
X-114756014Y138533457D01*
X-114758625Y138532415D01*
X-114758626Y138532415D01*
X-114993708Y138438627D01*
X-114993714Y138438624D01*
X-114996316Y138437586D01*
X-114998735Y138436164D01*
X-114998739Y138436162D01*
X-115216927Y138307896D01*
X-115216931Y138307893D01*
X-115219352Y138306470D01*
X-115221531Y138304696D01*
X-115369780Y138184003D01*
X-115417598Y138167398D01*
X-115464902Y138185415D01*
X-115489558Y138229623D01*
X-115490500Y138241390D01*
X-115490500Y139630057D01*
X-115473187Y139677623D01*
X-115429350Y139702933D01*
X-115379500Y139694143D01*
X-115371459Y139688770D01*
X-115364750Y139683622D01*
X-115218715Y139623132D01*
X-115213913Y139622500D01*
X-115213910Y139622499D01*
X-115096561Y139607050D01*
X-115062000Y139602500D01*
X-115057192Y139603133D01*
X-115054177Y139603133D01*
X-115006611Y139585820D01*
X-115001851Y139581459D01*
X-114883674Y139463282D01*
X-114862282Y139417406D01*
X-114862000Y139410956D01*
X-114862000Y139285181D01*
X-114861545Y139282308D01*
X-114847148Y139191405D01*
X-114847147Y139191402D01*
X-114846236Y139185650D01*
X-114843590Y139180457D01*
X-114788621Y139072574D01*
X-114788619Y139072572D01*
X-114785975Y139067382D01*
X-114692118Y138973525D01*
X-114686928Y138970881D01*
X-114686926Y138970879D01*
X-114582012Y138917423D01*
X-114573850Y138913264D01*
X-114568098Y138912353D01*
X-114568095Y138912352D01*
X-114477192Y138897955D01*
X-114474319Y138897500D01*
X-113973681Y138897500D01*
X-113970808Y138897955D01*
X-113879905Y138912352D01*
X-113879902Y138912353D01*
X-113874150Y138913264D01*
X-113865988Y138917423D01*
X-113761074Y138970879D01*
X-113761072Y138970881D01*
X-113755882Y138973525D01*
X-113662025Y139067382D01*
X-113659381Y139072572D01*
X-113659379Y139072574D01*
X-113604410Y139180457D01*
X-113601764Y139185650D01*
X-113600853Y139191402D01*
X-113600852Y139191405D01*
X-113586455Y139282308D01*
X-113586000Y139285181D01*
X-113586000Y139860819D01*
X-113587610Y139870985D01*
X-113600852Y139954595D01*
X-113600853Y139954598D01*
X-113601764Y139960350D01*
X-113622263Y140000582D01*
X-113659379Y140073426D01*
X-113659381Y140073428D01*
X-113662025Y140078618D01*
X-113755882Y140172475D01*
X-113761072Y140175119D01*
X-113761074Y140175121D01*
X-113868957Y140230090D01*
X-113874150Y140232736D01*
X-113879902Y140233647D01*
X-113879905Y140233648D01*
X-113970808Y140248045D01*
X-113973681Y140248500D01*
X-114396936Y140248500D01*
X-114444502Y140265813D01*
X-114470303Y140312842D01*
X-114476499Y140359909D01*
X-114476500Y140359911D01*
X-114477132Y140364715D01*
X-114537622Y140510750D01*
X-114540572Y140514594D01*
X-114540574Y140514598D01*
X-114630892Y140632302D01*
X-114633847Y140636153D01*
X-114638681Y140639862D01*
X-114726557Y140707292D01*
X-114753755Y140749984D01*
X-114747148Y140800169D01*
X-114709828Y140834367D01*
X-114681509Y140840000D01*
X-114647181Y140840000D01*
X-114644308Y140840455D01*
X-114553405Y140854852D01*
X-114553402Y140854853D01*
X-114547650Y140855764D01*
X-114485814Y140887271D01*
X-114434574Y140913379D01*
X-114434572Y140913381D01*
X-114429382Y140916025D01*
X-114335525Y141009882D01*
X-114332881Y141015072D01*
X-114332879Y141015074D01*
X-114277910Y141122957D01*
X-114275264Y141128150D01*
X-114274353Y141133902D01*
X-114274352Y141133905D01*
X-114259955Y141224808D01*
X-114259500Y141227681D01*
X-114259500Y141728319D01*
X-114264993Y141763000D01*
X-114274352Y141822095D01*
X-114274353Y141822098D01*
X-114275264Y141827850D01*
X-114322449Y141920456D01*
X-114332879Y141940926D01*
X-114332881Y141940928D01*
X-114335525Y141946118D01*
X-114429020Y142039613D01*
X-114450412Y142085489D01*
X-114437311Y142134384D01*
X-114401944Y142161498D01*
X-114355146Y142178485D01*
X-114347503Y142182313D01*
X-114212966Y142270519D01*
X-114206410Y142276001D01*
X-114095771Y142392794D01*
X-114090658Y142399628D01*
X-114009849Y142538750D01*
X-114006445Y142546578D01*
X-113959667Y142701030D01*
X-113958227Y142708455D01*
X-113952147Y142776579D01*
X-113952000Y142779881D01*
X-113952000Y142785952D01*
X-113955638Y142795948D01*
X-113960925Y142799000D01*
X-115904952Y142799000D01*
X-115914948Y142795362D01*
X-115917819Y142790389D01*
X-115917752Y142789234D01*
X-115903872Y142670182D01*
X-115901907Y142661869D01*
X-115847016Y142510648D01*
X-115843187Y142503003D01*
X-115754981Y142368466D01*
X-115749499Y142361910D01*
X-115632706Y142251271D01*
X-115625872Y142246158D01*
X-115486750Y142165349D01*
X-115478922Y142161945D01*
X-115474129Y142160494D01*
X-115433621Y142130139D01*
X-115422103Y142080848D01*
X-115443249Y142037344D01*
X-115534475Y141946118D01*
X-115537119Y141940928D01*
X-115537121Y141940926D01*
X-115547551Y141920456D01*
X-115594736Y141827850D01*
X-115595647Y141822098D01*
X-115595648Y141822095D01*
X-115605007Y141763000D01*
X-115610500Y141728319D01*
X-115610500Y141399544D01*
X-115627813Y141351978D01*
X-115632174Y141347218D01*
X-115841218Y141138174D01*
X-115887094Y141116782D01*
X-115893544Y141116500D01*
X-116014515Y141116500D01*
X-116014549Y141116503D01*
X-116014566Y141116508D01*
X-116141434Y141116508D01*
X-116141451Y141116503D01*
X-116141485Y141116500D01*
X-116243872Y141116500D01*
X-116291438Y141133813D01*
X-116316748Y141177650D01*
X-116305401Y141231612D01*
X-116268191Y141287301D01*
X-116264143Y141293359D01*
X-116253429Y141347218D01*
X-116249210Y141368430D01*
X-116249210Y141368431D01*
X-116248500Y141372000D01*
X-116248500Y142432000D01*
X-116262427Y142502014D01*
X-116262721Y142503494D01*
X-116262722Y142503496D01*
X-116264143Y142510641D01*
X-116292344Y142552847D01*
X-116304640Y142571249D01*
X-116308690Y142577310D01*
X-116318558Y142583904D01*
X-116358278Y142610444D01*
X-116375359Y142621857D01*
X-116382504Y142623278D01*
X-116382506Y142623279D01*
X-116450430Y142636790D01*
X-116450431Y142636790D01*
X-116454000Y142637500D01*
X-116892062Y142637500D01*
X-116939628Y142654813D01*
X-116954315Y142671493D01*
X-117013439Y142763492D01*
X-117020300Y142771410D01*
X-117122654Y142860099D01*
X-117131461Y142865760D01*
X-117254656Y142922021D01*
X-117264712Y142924973D01*
X-117401380Y142944623D01*
X-117406649Y142945000D01*
X-117461952Y142945000D01*
X-117471948Y142941362D01*
X-117475000Y142936075D01*
X-117475000Y141722000D01*
X-117492313Y141674434D01*
X-117536150Y141649124D01*
X-117549000Y141648000D01*
X-117909000Y141648000D01*
X-117956566Y141665313D01*
X-117981876Y141709150D01*
X-117983000Y141722000D01*
X-117983000Y142931952D01*
X-117986638Y142941948D01*
X-117991925Y142945000D01*
X-118052665Y142945000D01*
X-118055338Y142944904D01*
X-118123049Y142940061D01*
X-118130816Y142938660D01*
X-118262024Y142900134D01*
X-118271564Y142895778D01*
X-118385492Y142822561D01*
X-118393410Y142815700D01*
X-118482097Y142713349D01*
X-118487762Y142704534D01*
X-118498619Y142680760D01*
X-118534127Y142644684D01*
X-118565932Y142637500D01*
X-119004000Y142637500D01*
X-119007569Y142636790D01*
X-119007570Y142636790D01*
X-119075494Y142623279D01*
X-119075496Y142623278D01*
X-119082641Y142621857D01*
X-119099722Y142610444D01*
X-119139441Y142583904D01*
X-119149310Y142577310D01*
X-119153360Y142571249D01*
X-119165656Y142552847D01*
X-119193857Y142510641D01*
X-119195278Y142503496D01*
X-119195279Y142503494D01*
X-119195573Y142502014D01*
X-119209500Y142432000D01*
X-119209500Y142376500D01*
X-119226813Y142328934D01*
X-119270650Y142303624D01*
X-119283500Y142302500D01*
X-119734455Y142302500D01*
X-119782021Y142319813D01*
X-119786781Y142324174D01*
X-120231916Y142769308D01*
X-120231937Y142769332D01*
X-120231944Y142769347D01*
X-120321653Y142859056D01*
X-120326839Y142861698D01*
X-120326844Y142861702D01*
X-120344898Y142870901D01*
X-120354799Y142876968D01*
X-120371193Y142888879D01*
X-120371198Y142888881D01*
X-120375907Y142892303D01*
X-120381444Y142894102D01*
X-120381446Y142894103D01*
X-120400720Y142900365D01*
X-120411448Y142904809D01*
X-120429500Y142914007D01*
X-120429503Y142914008D01*
X-120434694Y142916653D01*
X-120454240Y142919749D01*
X-120460463Y142920735D01*
X-120471750Y142923445D01*
X-120491028Y142929708D01*
X-120491030Y142929708D01*
X-120496566Y142931507D01*
X-120623434Y142931507D01*
X-120623449Y142931502D01*
X-120623479Y142931500D01*
X-121121416Y142931500D01*
X-121171648Y142951161D01*
X-121173825Y142953174D01*
X-121200822Y142978130D01*
X-121260842Y143004664D01*
X-121302666Y143023154D01*
X-121302668Y143023154D01*
X-121307591Y143025331D01*
X-121356422Y143031500D01*
X-122826039Y143031500D01*
X-122875083Y143023337D01*
X-122905123Y143018337D01*
X-122905125Y143018336D01*
X-122911153Y143017333D01*
X-123013888Y142961900D01*
X-123018042Y142957406D01*
X-123020020Y142955267D01*
X-123022342Y142954071D01*
X-123022872Y142953660D01*
X-123022949Y142953759D01*
X-123065022Y142932091D01*
X-123074358Y142931500D01*
X-123792455Y142931500D01*
X-123840021Y142948813D01*
X-123844781Y142953174D01*
X-123949253Y143057646D01*
X-123970645Y143103522D01*
X-123957544Y143152417D01*
X-123921633Y143177559D01*
X-123922285Y143179132D01*
X-123855467Y143206809D01*
X-123776250Y143239622D01*
X-123772406Y143242572D01*
X-123772402Y143242574D01*
X-123654698Y143332892D01*
X-123650847Y143335847D01*
X-123633663Y143358241D01*
X-123557574Y143457402D01*
X-123557572Y143457406D01*
X-123554622Y143461250D01*
X-123494132Y143607285D01*
X-123473500Y143764000D01*
X-123476369Y143785795D01*
X-123493499Y143915910D01*
X-123493500Y143915913D01*
X-123494132Y143920715D01*
X-123514786Y143970578D01*
X-123146500Y143970578D01*
X-123146500Y143600961D01*
X-123132333Y143515847D01*
X-123076900Y143413112D01*
X-123041860Y143380721D01*
X-122997479Y143339695D01*
X-122991178Y143333870D01*
X-122931158Y143307336D01*
X-122889334Y143288846D01*
X-122889332Y143288846D01*
X-122884409Y143286669D01*
X-122835578Y143280500D01*
X-121365961Y143280500D01*
X-121315819Y143288846D01*
X-121286877Y143293663D01*
X-121286875Y143293664D01*
X-121280847Y143294667D01*
X-121178112Y143350100D01*
X-121173131Y143355488D01*
X-121171980Y143356733D01*
X-121169658Y143357929D01*
X-121169128Y143358340D01*
X-121169051Y143358241D01*
X-121126978Y143379909D01*
X-121117642Y143380500D01*
X-120894909Y143380500D01*
X-120847343Y143363187D01*
X-120836203Y143351551D01*
X-120824153Y143335847D01*
X-120820302Y143332892D01*
X-120702598Y143242574D01*
X-120702594Y143242572D01*
X-120698750Y143239622D01*
X-120552715Y143179132D01*
X-120547913Y143178500D01*
X-120547910Y143178499D01*
X-120400808Y143159133D01*
X-120396000Y143158500D01*
X-120391192Y143159133D01*
X-120244090Y143178499D01*
X-120244087Y143178500D01*
X-120239285Y143179132D01*
X-120093250Y143239622D01*
X-120089406Y143242572D01*
X-120089402Y143242574D01*
X-119980525Y143326119D01*
X-115918000Y143326119D01*
X-115918000Y143320048D01*
X-115914362Y143310052D01*
X-115909075Y143307000D01*
X-115202048Y143307000D01*
X-115192052Y143310638D01*
X-115189000Y143315925D01*
X-115189000Y143985452D01*
X-115190501Y143989575D01*
X-114681000Y143989575D01*
X-114681000Y143320048D01*
X-114677362Y143310052D01*
X-114672075Y143307000D01*
X-113965048Y143307000D01*
X-113955052Y143310638D01*
X-113952181Y143315611D01*
X-113952248Y143316766D01*
X-113966128Y143435818D01*
X-113968093Y143444131D01*
X-114022984Y143595352D01*
X-114026813Y143602997D01*
X-114115019Y143737534D01*
X-114120501Y143744090D01*
X-114237294Y143854729D01*
X-114244128Y143859842D01*
X-114383250Y143940651D01*
X-114391078Y143944055D01*
X-114545530Y143990833D01*
X-114552955Y143992273D01*
X-114621079Y143998353D01*
X-114624381Y143998500D01*
X-114667952Y143998500D01*
X-114677948Y143994862D01*
X-114681000Y143989575D01*
X-115190501Y143989575D01*
X-115192638Y143995448D01*
X-115197925Y143998500D01*
X-115231995Y143998500D01*
X-115236266Y143998252D01*
X-115355318Y143984372D01*
X-115363631Y143982407D01*
X-115514852Y143927516D01*
X-115522497Y143923687D01*
X-115657034Y143835481D01*
X-115663590Y143829999D01*
X-115774229Y143713206D01*
X-115779342Y143706372D01*
X-115860151Y143567250D01*
X-115863555Y143559422D01*
X-115910333Y143404970D01*
X-115911773Y143397545D01*
X-115917853Y143329421D01*
X-115918000Y143326119D01*
X-119980525Y143326119D01*
X-119971698Y143332892D01*
X-119967847Y143335847D01*
X-119950663Y143358241D01*
X-119874574Y143457402D01*
X-119874572Y143457406D01*
X-119871622Y143461250D01*
X-119811132Y143607285D01*
X-119790500Y143764000D01*
X-119793369Y143785795D01*
X-119810499Y143915910D01*
X-119810500Y143915913D01*
X-119811132Y143920715D01*
X-119871622Y144066750D01*
X-119874572Y144070594D01*
X-119874574Y144070598D01*
X-119964892Y144188302D01*
X-119967847Y144192153D01*
X-119995500Y144213372D01*
X-120089402Y144285426D01*
X-120089406Y144285428D01*
X-120093250Y144288378D01*
X-120239285Y144348868D01*
X-120244087Y144349500D01*
X-120244090Y144349501D01*
X-120391192Y144368867D01*
X-120396000Y144369500D01*
X-120400808Y144368867D01*
X-120547910Y144349501D01*
X-120547913Y144349500D01*
X-120552715Y144348868D01*
X-120698750Y144288378D01*
X-120817528Y144197236D01*
X-120818107Y144196792D01*
X-120863155Y144181500D01*
X-121121416Y144181500D01*
X-121171648Y144201161D01*
X-121178404Y144207407D01*
X-121200822Y144228130D01*
X-121260842Y144254664D01*
X-121302666Y144273154D01*
X-121302668Y144273154D01*
X-121307591Y144275331D01*
X-121356422Y144281500D01*
X-122826039Y144281500D01*
X-122875083Y144273337D01*
X-122905123Y144268337D01*
X-122905125Y144268336D01*
X-122911153Y144267333D01*
X-123013888Y144211900D01*
X-123032142Y144192153D01*
X-123064814Y144156809D01*
X-123093130Y144126178D01*
X-123114054Y144078848D01*
X-123136748Y144027513D01*
X-123140331Y144019409D01*
X-123146500Y143970578D01*
X-123514786Y143970578D01*
X-123554622Y144066750D01*
X-123557572Y144070594D01*
X-123557574Y144070598D01*
X-123647892Y144188302D01*
X-123650847Y144192153D01*
X-123654698Y144195108D01*
X-123656826Y144197236D01*
X-123678218Y144243112D01*
X-123678500Y144249562D01*
X-123678500Y144456456D01*
X-123661187Y144504022D01*
X-123656826Y144508782D01*
X-123556782Y144608826D01*
X-123510906Y144630218D01*
X-123504456Y144630500D01*
X-123070584Y144630500D01*
X-123020353Y144610839D01*
X-122991178Y144583870D01*
X-122931158Y144557336D01*
X-122889334Y144538846D01*
X-122889332Y144538846D01*
X-122884409Y144536669D01*
X-122835578Y144530500D01*
X-121365961Y144530500D01*
X-121315819Y144538846D01*
X-121286877Y144543663D01*
X-121286875Y144543664D01*
X-121280847Y144544667D01*
X-121178112Y144600100D01*
X-121171981Y144606733D01*
X-121169658Y144607929D01*
X-121169128Y144608340D01*
X-121169051Y144608241D01*
X-121126978Y144629909D01*
X-121117642Y144630500D01*
X-120116562Y144630500D01*
X-120068996Y144613187D01*
X-120064919Y144609452D01*
X-120062153Y144605847D01*
X-120058302Y144602892D01*
X-119940598Y144512574D01*
X-119940594Y144512572D01*
X-119936750Y144509622D01*
X-119790715Y144449132D01*
X-119785913Y144448500D01*
X-119785910Y144448499D01*
X-119638808Y144429133D01*
X-119634000Y144428500D01*
X-119629192Y144429133D01*
X-119482090Y144448499D01*
X-119482087Y144448500D01*
X-119477285Y144449132D01*
X-119331250Y144509622D01*
X-119327402Y144512575D01*
X-119323203Y144514999D01*
X-119322413Y144513631D01*
X-119280267Y144526916D01*
X-119233502Y144507542D01*
X-119210132Y144462641D01*
X-119209500Y144452987D01*
X-119209500Y143572000D01*
X-119208790Y143568431D01*
X-119208790Y143568430D01*
X-119198330Y143515847D01*
X-119193857Y143493359D01*
X-119149310Y143426690D01*
X-119143249Y143422640D01*
X-119129570Y143413500D01*
X-119082641Y143382143D01*
X-119075496Y143380722D01*
X-119075494Y143380721D01*
X-119007570Y143367210D01*
X-119007569Y143367210D01*
X-119004000Y143366500D01*
X-118354000Y143366500D01*
X-118350431Y143367210D01*
X-118350430Y143367210D01*
X-118282506Y143380721D01*
X-118282504Y143380722D01*
X-118275359Y143382143D01*
X-118228430Y143413500D01*
X-118214751Y143422640D01*
X-118208690Y143426690D01*
X-118164143Y143493359D01*
X-118159669Y143515847D01*
X-118149210Y143568430D01*
X-118149210Y143568431D01*
X-118148500Y143572000D01*
X-118148500Y144632000D01*
X-118164143Y144710641D01*
X-118208690Y144777310D01*
X-118275359Y144821857D01*
X-118282504Y144823278D01*
X-118282506Y144823279D01*
X-118350430Y144836790D01*
X-118350431Y144836790D01*
X-118354000Y144837500D01*
X-118969989Y144837500D01*
X-119017555Y144854813D01*
X-119042865Y144898650D01*
X-119043356Y144921159D01*
X-119041082Y144938427D01*
X-119028500Y145034000D01*
X-119031942Y145060144D01*
X-119048499Y145185910D01*
X-119048500Y145185913D01*
X-119049132Y145190715D01*
X-119109622Y145336750D01*
X-119112572Y145340594D01*
X-119112574Y145340598D01*
X-119202892Y145458302D01*
X-119205847Y145462153D01*
X-119225588Y145477301D01*
X-119327402Y145555426D01*
X-119327406Y145555428D01*
X-119331250Y145558378D01*
X-119477285Y145618868D01*
X-119482087Y145619500D01*
X-119482090Y145619501D01*
X-119629192Y145638867D01*
X-119634000Y145639500D01*
X-119638808Y145638867D01*
X-119785910Y145619501D01*
X-119785913Y145619500D01*
X-119790715Y145618868D01*
X-119936750Y145558378D01*
X-119940594Y145555428D01*
X-119940598Y145555426D01*
X-120042412Y145477301D01*
X-120062153Y145462153D01*
X-120065108Y145458302D01*
X-120068535Y145454875D01*
X-120069967Y145456307D01*
X-120106144Y145433255D01*
X-120122166Y145431500D01*
X-121011963Y145431500D01*
X-121059529Y145448813D01*
X-121084839Y145492650D01*
X-121076049Y145542500D01*
X-121055459Y145565367D01*
X-120945913Y145644957D01*
X-120939177Y145651282D01*
X-120839180Y145772158D01*
X-120833354Y145781339D01*
X-120793250Y145812225D01*
X-120742676Y145810106D01*
X-120725828Y145800400D01*
X-120698750Y145779622D01*
X-120552715Y145719132D01*
X-120547913Y145718500D01*
X-120547910Y145718499D01*
X-120400808Y145699133D01*
X-120396000Y145698500D01*
X-120391192Y145699133D01*
X-120244090Y145718499D01*
X-120244087Y145718500D01*
X-120239285Y145719132D01*
X-120093250Y145779622D01*
X-119977240Y145868639D01*
X-119928965Y145883861D01*
X-119879869Y145862259D01*
X-119879358Y145861748D01*
X-119875310Y145855690D01*
X-119808641Y145811143D01*
X-119801496Y145809722D01*
X-119801494Y145809721D01*
X-119733570Y145796210D01*
X-119733569Y145796210D01*
X-119730000Y145795500D01*
X-119030000Y145795500D01*
X-119026431Y145796210D01*
X-119026430Y145796210D01*
X-118958506Y145809721D01*
X-118958504Y145809722D01*
X-118951359Y145811143D01*
X-118884690Y145855690D01*
X-118876724Y145867612D01*
X-118835902Y145897544D01*
X-118815195Y145900500D01*
X-118199000Y145900500D01*
X-118151434Y145883187D01*
X-118126124Y145839350D01*
X-118125000Y145826500D01*
X-118125000Y145351500D01*
X-118124290Y145347931D01*
X-118124290Y145347930D01*
X-118122831Y145340598D01*
X-118109357Y145272859D01*
X-118105309Y145266801D01*
X-118079724Y145228511D01*
X-118064810Y145206190D01*
X-117998141Y145161643D01*
X-117990996Y145160222D01*
X-117990994Y145160221D01*
X-117923070Y145146710D01*
X-117923069Y145146710D01*
X-117919500Y145146000D01*
X-116660044Y145146000D01*
X-116612478Y145128687D01*
X-116587168Y145084850D01*
X-116595958Y145035000D01*
X-116607718Y145019674D01*
X-116768218Y144859174D01*
X-116814094Y144837782D01*
X-116820544Y144837500D01*
X-117104000Y144837500D01*
X-117107569Y144836790D01*
X-117107570Y144836790D01*
X-117175494Y144823279D01*
X-117175496Y144823278D01*
X-117182641Y144821857D01*
X-117249310Y144777310D01*
X-117293857Y144710641D01*
X-117309500Y144632000D01*
X-117309500Y143572000D01*
X-117308790Y143568431D01*
X-117308790Y143568430D01*
X-117298330Y143515847D01*
X-117293857Y143493359D01*
X-117249310Y143426690D01*
X-117243249Y143422640D01*
X-117229570Y143413500D01*
X-117182641Y143382143D01*
X-117175496Y143380722D01*
X-117175494Y143380721D01*
X-117107570Y143367210D01*
X-117107569Y143367210D01*
X-117104000Y143366500D01*
X-116454000Y143366500D01*
X-116450431Y143367210D01*
X-116450430Y143367210D01*
X-116382506Y143380721D01*
X-116382504Y143380722D01*
X-116375359Y143382143D01*
X-116328430Y143413500D01*
X-116314751Y143422640D01*
X-116308690Y143426690D01*
X-116264143Y143493359D01*
X-116259669Y143515847D01*
X-116249210Y143568430D01*
X-116249210Y143568431D01*
X-116248500Y143572000D01*
X-116248500Y144215456D01*
X-116231187Y144263022D01*
X-116226826Y144267782D01*
X-115536281Y144958326D01*
X-115490404Y144979718D01*
X-115483955Y144980000D01*
X-115155181Y144980000D01*
X-115148728Y144981022D01*
X-115061405Y144994852D01*
X-115061402Y144994853D01*
X-115055650Y144995764D01*
X-115047488Y144999923D01*
X-114942574Y145053379D01*
X-114942572Y145053381D01*
X-114937382Y145056025D01*
X-114843525Y145149882D01*
X-114840883Y145155068D01*
X-114837457Y145159783D01*
X-114835910Y145158659D01*
X-114804876Y145187598D01*
X-114775963Y145193480D01*
X-113302480Y145193480D01*
X-113254914Y145176167D01*
X-113229604Y145132330D01*
X-113228480Y145119480D01*
X-113228480Y144514459D01*
X-113228482Y144514429D01*
X-113228487Y144514414D01*
X-113228487Y144387546D01*
X-113226688Y144382010D01*
X-113226688Y144382008D01*
X-113220425Y144362730D01*
X-113217715Y144351443D01*
X-113213633Y144325674D01*
X-113210988Y144320483D01*
X-113210987Y144320480D01*
X-113201789Y144302428D01*
X-113197345Y144291700D01*
X-113191319Y144273154D01*
X-113189283Y144266887D01*
X-113185861Y144262178D01*
X-113185859Y144262173D01*
X-113173948Y144245779D01*
X-113167881Y144235878D01*
X-113158682Y144217824D01*
X-113158678Y144217819D01*
X-113156036Y144212633D01*
X-113066327Y144122924D01*
X-113066312Y144122917D01*
X-113066288Y144122896D01*
X-112459663Y143516271D01*
X-112438271Y143470395D01*
X-112437989Y143463945D01*
X-112437989Y143300500D01*
X-112455302Y143252934D01*
X-112499139Y143227624D01*
X-112511989Y143226500D01*
X-113337000Y143226500D01*
X-113340569Y143225790D01*
X-113340570Y143225790D01*
X-113408494Y143212279D01*
X-113408496Y143212278D01*
X-113415641Y143210857D01*
X-113421700Y143206809D01*
X-113421699Y143206809D01*
X-113466489Y143176881D01*
X-113482310Y143166310D01*
X-113486360Y143160249D01*
X-113491593Y143152417D01*
X-113526857Y143099641D01*
X-113528278Y143092496D01*
X-113528279Y143092494D01*
X-113541790Y143024570D01*
X-113542500Y143021000D01*
X-113542500Y142221000D01*
X-113541790Y142217431D01*
X-113541790Y142217430D01*
X-113529807Y142157191D01*
X-113526857Y142142359D01*
X-113482310Y142075690D01*
X-113415641Y142031143D01*
X-113408496Y142029722D01*
X-113408494Y142029721D01*
X-113375837Y142023225D01*
X-113347062Y142017502D01*
X-113303789Y141991242D01*
X-113287500Y141944924D01*
X-113287500Y139874479D01*
X-113287502Y139874449D01*
X-113287507Y139874434D01*
X-113287507Y139747566D01*
X-113287170Y139746530D01*
X-113287000Y139744365D01*
X-113287000Y139285181D01*
X-113286545Y139282308D01*
X-113272148Y139191405D01*
X-113272147Y139191402D01*
X-113271236Y139185650D01*
X-113268590Y139180457D01*
X-113213621Y139072574D01*
X-113213619Y139072572D01*
X-113210975Y139067382D01*
X-113117118Y138973525D01*
X-113111928Y138970881D01*
X-113111926Y138970879D01*
X-113007012Y138917423D01*
X-112998850Y138913264D01*
X-112993098Y138912353D01*
X-112993095Y138912352D01*
X-112902192Y138897955D01*
X-112899319Y138897500D01*
X-112398681Y138897500D01*
X-112395808Y138897955D01*
X-112304905Y138912352D01*
X-112304902Y138912353D01*
X-112299150Y138913264D01*
X-112290988Y138917423D01*
X-112186074Y138970879D01*
X-112186072Y138970881D01*
X-112180882Y138973525D01*
X-112087025Y139067382D01*
X-112084381Y139072572D01*
X-112084379Y139072574D01*
X-112029410Y139180457D01*
X-112026764Y139185650D01*
X-112025853Y139191402D01*
X-112025852Y139191405D01*
X-112014605Y139262419D01*
X-111990064Y139306691D01*
X-111942807Y139324832D01*
X-111894946Y139308352D01*
X-111871138Y139273710D01*
X-111867303Y139261907D01*
X-111863881Y139257198D01*
X-111863879Y139257193D01*
X-111851968Y139240799D01*
X-111845901Y139230898D01*
X-111836702Y139212844D01*
X-111836698Y139212839D01*
X-111834056Y139207653D01*
X-111744347Y139117944D01*
X-111744332Y139117937D01*
X-111744308Y139117916D01*
X-111326084Y138699691D01*
X-111326063Y138699667D01*
X-111326056Y138699653D01*
X-111236347Y138609944D01*
X-111231161Y138607302D01*
X-111231156Y138607298D01*
X-111213096Y138598096D01*
X-111203196Y138592030D01*
X-111182093Y138576698D01*
X-111176556Y138574899D01*
X-111157284Y138568637D01*
X-111146556Y138564193D01*
X-111128501Y138554993D01*
X-111128496Y138554991D01*
X-111123306Y138552347D01*
X-111097530Y138548264D01*
X-111086249Y138545556D01*
X-111061434Y138537493D01*
X-110934567Y138537493D01*
X-110934552Y138537498D01*
X-110934522Y138537500D01*
X-110761543Y138537500D01*
X-110713977Y138520187D01*
X-110690518Y138484271D01*
X-110683773Y138461206D01*
X-110624509Y138330864D01*
X-110593118Y138281779D01*
X-110499654Y138173308D01*
X-110455747Y138135006D01*
X-110453545Y138133579D01*
X-110453540Y138133575D01*
X-110427205Y138116506D01*
X-110335596Y138057128D01*
X-110282704Y138032688D01*
X-110145525Y137991663D01*
X-110087899Y137983051D01*
X-110013255Y137982595D01*
X-110013262Y137981451D01*
X-110012000Y137981605D01*
X-110012000Y137982500D01*
X-109998025Y137982500D01*
X-109997573Y137982499D01*
X-109947345Y137982192D01*
X-109947344Y137982192D01*
X-109944720Y137982176D01*
X-109943020Y137982409D01*
X-109940206Y137982500D01*
X-109462000Y137982500D01*
X-109458431Y137983210D01*
X-109458430Y137983210D01*
X-109390506Y137996721D01*
X-109390504Y137996722D01*
X-109383359Y137998143D01*
X-109377301Y138002191D01*
X-109370565Y138004981D01*
X-109370006Y138003632D01*
X-109328944Y138013680D01*
X-109303646Y138004472D01*
X-109303435Y138004981D01*
X-109296699Y138002191D01*
X-109290641Y137998143D01*
X-109283496Y137996722D01*
X-109283494Y137996721D01*
X-109215570Y137983210D01*
X-109215569Y137983210D01*
X-109212000Y137982500D01*
X-108212000Y137982500D01*
X-108208431Y137983210D01*
X-108208430Y137983210D01*
X-108140506Y137996721D01*
X-108140504Y137996722D01*
X-108133359Y137998143D01*
X-108066690Y138042690D01*
X-108022143Y138109359D01*
X-108006500Y138188000D01*
X-108006500Y138364000D01*
X-107989187Y138411566D01*
X-107945350Y138436876D01*
X-107932500Y138438000D01*
X-107790081Y138438000D01*
X-107789767Y138438071D01*
X-107789013Y138438114D01*
X-107779522Y138438105D01*
X-107774912Y138438101D01*
X-107774911Y138438101D01*
X-107766583Y138438094D01*
X-107759075Y138441699D01*
X-107759071Y138441700D01*
X-107753169Y138444534D01*
X-107737604Y138449970D01*
X-107723100Y138453279D01*
X-107711656Y138462398D01*
X-107697578Y138471230D01*
X-107684384Y138477565D01*
X-107675093Y138489183D01*
X-107663421Y138500835D01*
X-107651788Y138510105D01*
X-107645430Y138523286D01*
X-107636574Y138537350D01*
X-107627435Y138548778D01*
X-107624102Y138563272D01*
X-107618636Y138578837D01*
X-107615795Y138584727D01*
X-107612174Y138592234D01*
X-107612155Y138614610D01*
X-107612107Y138615432D01*
X-107612000Y138615899D01*
X-107612000Y139259919D01*
X-107612071Y139260233D01*
X-107612114Y139260987D01*
X-107612094Y139283417D01*
X-107615699Y139290925D01*
X-107615700Y139290929D01*
X-107618534Y139296831D01*
X-107623970Y139312396D01*
X-107627279Y139326900D01*
X-107636398Y139338344D01*
X-107645230Y139352422D01*
X-107651565Y139365616D01*
X-107663183Y139374907D01*
X-107674835Y139386579D01*
X-107677562Y139390001D01*
X-107684105Y139398212D01*
X-107697286Y139404570D01*
X-107711350Y139413426D01*
X-107722778Y139422565D01*
X-107730899Y139424432D01*
X-107730900Y139424433D01*
X-107737272Y139425898D01*
X-107752837Y139431364D01*
X-107758727Y139434205D01*
X-107766234Y139437826D01*
X-107788610Y139437845D01*
X-107789432Y139437893D01*
X-107789899Y139438000D01*
X-107932500Y139438000D01*
X-107980066Y139455313D01*
X-108005376Y139499150D01*
X-108006500Y139512000D01*
X-108006500Y139688000D01*
X-108014356Y139727494D01*
X-108020721Y139759494D01*
X-108020722Y139759496D01*
X-108022143Y139766641D01*
X-108066690Y139833310D01*
X-108079409Y139841809D01*
X-108112450Y139863886D01*
X-108133359Y139877857D01*
X-108140504Y139879278D01*
X-108140506Y139879279D01*
X-108208430Y139892790D01*
X-108208431Y139892790D01*
X-108212000Y139893500D01*
X-108287500Y139893500D01*
X-108335066Y139910813D01*
X-108360376Y139954650D01*
X-108361500Y139967500D01*
X-108361500Y140064770D01*
X-108344187Y140112336D01*
X-108332550Y140123476D01*
X-108283847Y140160847D01*
X-108277508Y140169108D01*
X-108190574Y140282402D01*
X-108190572Y140282406D01*
X-108187622Y140286250D01*
X-108127132Y140432285D01*
X-108120382Y140483552D01*
X-108107133Y140584192D01*
X-108106500Y140589000D01*
X-108113196Y140639862D01*
X-108126499Y140740910D01*
X-108126500Y140740913D01*
X-108127132Y140745715D01*
X-108187622Y140891750D01*
X-108190572Y140895594D01*
X-108190574Y140895598D01*
X-108280892Y141013302D01*
X-108283847Y141017153D01*
X-108287698Y141020108D01*
X-108405402Y141110426D01*
X-108405406Y141110428D01*
X-108409250Y141113378D01*
X-108555285Y141173868D01*
X-108560087Y141174500D01*
X-108560090Y141174501D01*
X-108707192Y141193867D01*
X-108712000Y141194500D01*
X-108716808Y141193867D01*
X-108863910Y141174501D01*
X-108863913Y141174500D01*
X-108868715Y141173868D01*
X-109014750Y141113378D01*
X-109018594Y141110428D01*
X-109018598Y141110426D01*
X-109136302Y141020108D01*
X-109140153Y141017153D01*
X-109143108Y141013302D01*
X-109233426Y140895598D01*
X-109233428Y140895594D01*
X-109236378Y140891750D01*
X-109296868Y140745715D01*
X-109297500Y140740913D01*
X-109297501Y140740910D01*
X-109310804Y140639862D01*
X-109317500Y140589000D01*
X-109316867Y140584192D01*
X-109303617Y140483552D01*
X-109296868Y140432285D01*
X-109236378Y140286250D01*
X-109233428Y140282406D01*
X-109233426Y140282402D01*
X-109146492Y140169108D01*
X-109140153Y140160847D01*
X-109091451Y140123477D01*
X-109064254Y140080787D01*
X-109062500Y140064770D01*
X-109062500Y139967500D01*
X-109079813Y139919934D01*
X-109123650Y139894624D01*
X-109136500Y139893500D01*
X-109212000Y139893500D01*
X-109215569Y139892790D01*
X-109215570Y139892790D01*
X-109283494Y139879279D01*
X-109283496Y139879278D01*
X-109290641Y139877857D01*
X-109296699Y139873809D01*
X-109303435Y139871019D01*
X-109303994Y139872368D01*
X-109345056Y139862320D01*
X-109370354Y139871528D01*
X-109370565Y139871019D01*
X-109377301Y139873809D01*
X-109383359Y139877857D01*
X-109390504Y139879278D01*
X-109390506Y139879279D01*
X-109458430Y139892790D01*
X-109458431Y139892790D01*
X-109462000Y139893500D01*
X-110010316Y139893500D01*
X-110011672Y139893512D01*
X-110068024Y139894545D01*
X-110068027Y139894545D01*
X-110070653Y139894593D01*
X-110073262Y139894268D01*
X-110073263Y139894268D01*
X-110125858Y139887718D01*
X-110125862Y139887717D01*
X-110128473Y139887392D01*
X-110175837Y139874479D01*
X-110264073Y139850423D01*
X-110264076Y139850422D01*
X-110266614Y139849730D01*
X-110269024Y139848687D01*
X-110269027Y139848686D01*
X-110275564Y139845857D01*
X-110320086Y139826590D01*
X-110322323Y139825217D01*
X-110322324Y139825216D01*
X-110417723Y139766641D01*
X-110442104Y139751671D01*
X-110486934Y139714452D01*
X-110488701Y139712500D01*
X-110488704Y139712497D01*
X-110557860Y139636094D01*
X-110583020Y139608297D01*
X-110615601Y139559994D01*
X-110678031Y139431139D01*
X-110678831Y139428632D01*
X-110691160Y139390001D01*
X-110722115Y139349950D01*
X-110761657Y139338500D01*
X-110801455Y139338500D01*
X-110849021Y139355813D01*
X-110853781Y139360174D01*
X-111083826Y139590218D01*
X-111105218Y139636094D01*
X-111105500Y139642544D01*
X-111105500Y140271521D01*
X-111105498Y140271551D01*
X-111105493Y140271566D01*
X-111105493Y140398434D01*
X-111108174Y140406686D01*
X-111113555Y140423250D01*
X-111116265Y140434537D01*
X-111119436Y140454553D01*
X-111120347Y140460306D01*
X-111122992Y140465497D01*
X-111122993Y140465500D01*
X-111132191Y140483552D01*
X-111136635Y140494280D01*
X-111142897Y140513554D01*
X-111142898Y140513556D01*
X-111144697Y140519093D01*
X-111148119Y140523802D01*
X-111148121Y140523807D01*
X-111160032Y140540201D01*
X-111166099Y140550102D01*
X-111175298Y140568156D01*
X-111175302Y140568161D01*
X-111177944Y140573347D01*
X-111236271Y140631674D01*
X-111257663Y140677550D01*
X-111244562Y140726445D01*
X-111203098Y140755479D01*
X-111183945Y140758000D01*
X-111154048Y140758000D01*
X-111144052Y140761638D01*
X-111141000Y140766925D01*
X-111141000Y141408075D01*
X-110633000Y141408075D01*
X-110633000Y140771048D01*
X-110629362Y140761052D01*
X-110624075Y140758000D01*
X-110438335Y140758000D01*
X-110435662Y140758096D01*
X-110367951Y140762939D01*
X-110360184Y140764340D01*
X-110228976Y140802866D01*
X-110219436Y140807222D01*
X-110105508Y140880439D01*
X-110097590Y140887300D01*
X-110008901Y140989654D01*
X-110003240Y140998461D01*
X-109946979Y141121656D01*
X-109944027Y141131712D01*
X-109924377Y141268380D01*
X-109924000Y141273649D01*
X-109924000Y141403952D01*
X-109927638Y141413948D01*
X-109932925Y141417000D01*
X-110619952Y141417000D01*
X-110629948Y141413362D01*
X-110633000Y141408075D01*
X-111141000Y141408075D01*
X-111141000Y142570952D01*
X-111144638Y142580948D01*
X-111149925Y142584000D01*
X-111335665Y142584000D01*
X-111338338Y142583904D01*
X-111406049Y142579061D01*
X-111413816Y142577660D01*
X-111542141Y142539980D01*
X-111592658Y142543190D01*
X-111629292Y142578121D01*
X-111636989Y142610982D01*
X-111636989Y143013238D01*
X-111619676Y143060804D01*
X-111575839Y143086114D01*
X-111525989Y143077324D01*
X-111501460Y143054350D01*
X-111482310Y143025690D01*
X-111476249Y143021640D01*
X-111469803Y143017333D01*
X-111415641Y142981143D01*
X-111408496Y142979722D01*
X-111408494Y142979721D01*
X-111340570Y142966210D01*
X-111340569Y142966210D01*
X-111337000Y142965500D01*
X-110796544Y142965500D01*
X-110748978Y142948187D01*
X-110744218Y142943826D01*
X-110510718Y142710326D01*
X-110489326Y142664450D01*
X-110502427Y142615555D01*
X-110543891Y142586521D01*
X-110563044Y142584000D01*
X-110619952Y142584000D01*
X-110629948Y142580362D01*
X-110633000Y142575075D01*
X-110633000Y141938048D01*
X-110629362Y141928052D01*
X-110624075Y141925000D01*
X-109937048Y141925000D01*
X-109927052Y141928638D01*
X-109915209Y141949151D01*
X-109912232Y141947432D01*
X-109903253Y141966684D01*
X-109857375Y141988073D01*
X-109808482Y141974968D01*
X-109779451Y141933501D01*
X-109777843Y141925935D01*
X-109766236Y141852650D01*
X-109763590Y141847457D01*
X-109708621Y141739574D01*
X-109708619Y141739572D01*
X-109705975Y141734382D01*
X-109612118Y141640525D01*
X-109606928Y141637881D01*
X-109606926Y141637879D01*
X-109502012Y141584423D01*
X-109493850Y141580264D01*
X-109488098Y141579353D01*
X-109488095Y141579352D01*
X-109397192Y141564955D01*
X-109394319Y141564500D01*
X-108893681Y141564500D01*
X-108890808Y141564955D01*
X-108799905Y141579352D01*
X-108799902Y141579353D01*
X-108794150Y141580264D01*
X-108785988Y141584423D01*
X-108681074Y141637879D01*
X-108681072Y141637881D01*
X-108675882Y141640525D01*
X-108582025Y141734382D01*
X-108579381Y141739572D01*
X-108579379Y141739574D01*
X-108524410Y141847457D01*
X-108521764Y141852650D01*
X-108520853Y141858402D01*
X-108520852Y141858405D01*
X-108506455Y141949308D01*
X-108506000Y141952181D01*
X-108506000Y142527819D01*
X-108507926Y142539980D01*
X-108520852Y142621595D01*
X-108520853Y142621598D01*
X-108521764Y142627350D01*
X-108539352Y142661869D01*
X-108579379Y142740426D01*
X-108579381Y142740428D01*
X-108582025Y142745618D01*
X-108675882Y142839475D01*
X-108681072Y142842119D01*
X-108681074Y142842121D01*
X-108788957Y142897090D01*
X-108794150Y142899736D01*
X-108799902Y142900647D01*
X-108799905Y142900648D01*
X-108890808Y142915045D01*
X-108893681Y142915500D01*
X-109171456Y142915500D01*
X-109219022Y142932813D01*
X-109223782Y142937174D01*
X-109463416Y143176808D01*
X-109463437Y143176832D01*
X-109463444Y143176847D01*
X-109553153Y143266556D01*
X-109558339Y143269198D01*
X-109558344Y143269202D01*
X-109576398Y143278401D01*
X-109586299Y143284468D01*
X-109602693Y143296379D01*
X-109602698Y143296381D01*
X-109607407Y143299803D01*
X-109612944Y143301602D01*
X-109612946Y143301603D01*
X-109632220Y143307865D01*
X-109642948Y143312309D01*
X-109661000Y143321507D01*
X-109661003Y143321508D01*
X-109666194Y143324153D01*
X-109685740Y143327249D01*
X-109691963Y143328235D01*
X-109703250Y143330945D01*
X-109722528Y143337208D01*
X-109722530Y143337208D01*
X-109728066Y143339007D01*
X-109854934Y143339007D01*
X-109854949Y143339002D01*
X-109854979Y143339000D01*
X-109975956Y143339000D01*
X-110023522Y143356313D01*
X-110028282Y143360674D01*
X-110209826Y143542218D01*
X-110231218Y143588094D01*
X-110231500Y143594544D01*
X-110231500Y143971000D01*
X-110234992Y143988556D01*
X-110245721Y144042494D01*
X-110245722Y144042496D01*
X-110247143Y144049641D01*
X-110279191Y144097604D01*
X-110287640Y144110249D01*
X-110291690Y144116310D01*
X-110301546Y144122896D01*
X-110352301Y144156809D01*
X-110352300Y144156809D01*
X-110358359Y144160857D01*
X-110365504Y144162278D01*
X-110365506Y144162279D01*
X-110433430Y144175790D01*
X-110433431Y144175790D01*
X-110437000Y144176500D01*
X-111337000Y144176500D01*
X-111340569Y144175790D01*
X-111340570Y144175790D01*
X-111408494Y144162279D01*
X-111408496Y144162278D01*
X-111415641Y144160857D01*
X-111421700Y144156809D01*
X-111421699Y144156809D01*
X-111472453Y144122896D01*
X-111482310Y144116310D01*
X-111486360Y144110249D01*
X-111494809Y144097604D01*
X-111526857Y144049641D01*
X-111528278Y144042496D01*
X-111528279Y144042494D01*
X-111539008Y143988556D01*
X-111542500Y143971000D01*
X-111542500Y143888328D01*
X-111559813Y143840762D01*
X-111603650Y143815452D01*
X-111653500Y143824242D01*
X-111676368Y143844832D01*
X-111691522Y143865690D01*
X-111697588Y143875591D01*
X-111706787Y143893645D01*
X-111706791Y143893650D01*
X-111709433Y143898836D01*
X-111799142Y143988545D01*
X-111799157Y143988552D01*
X-111799181Y143988573D01*
X-112405806Y144595198D01*
X-112427198Y144641074D01*
X-112427480Y144647524D01*
X-112427480Y145397436D01*
X-112410167Y145445002D01*
X-112405806Y145449762D01*
X-112029691Y145825876D01*
X-112029667Y145825897D01*
X-112029653Y145825904D01*
X-111949901Y145905656D01*
X-111904025Y145927048D01*
X-111855130Y145913947D01*
X-111845249Y145905656D01*
X-111757618Y145818025D01*
X-111714804Y145796210D01*
X-111692904Y145785051D01*
X-111658382Y145748031D01*
X-111652500Y145719117D01*
X-111652500Y145519562D01*
X-111669813Y145471996D01*
X-111674174Y145467236D01*
X-111676302Y145465108D01*
X-111680153Y145462153D01*
X-111683108Y145458302D01*
X-111773426Y145340598D01*
X-111773428Y145340594D01*
X-111776378Y145336750D01*
X-111836868Y145190715D01*
X-111837500Y145185913D01*
X-111837501Y145185910D01*
X-111854058Y145060144D01*
X-111857500Y145034000D01*
X-111856867Y145029192D01*
X-111838719Y144891347D01*
X-111836868Y144877285D01*
X-111776378Y144731250D01*
X-111773428Y144727406D01*
X-111773426Y144727402D01*
X-111683108Y144609698D01*
X-111680153Y144605847D01*
X-111676302Y144602892D01*
X-111558598Y144512574D01*
X-111558594Y144512572D01*
X-111554750Y144509622D01*
X-111408715Y144449132D01*
X-111403913Y144448500D01*
X-111403910Y144448499D01*
X-111256808Y144429133D01*
X-111252000Y144428500D01*
X-111247192Y144429133D01*
X-111100090Y144448499D01*
X-111100087Y144448500D01*
X-111095285Y144449132D01*
X-110949250Y144509622D01*
X-110945406Y144512572D01*
X-110945402Y144512574D01*
X-110827698Y144602892D01*
X-110823847Y144605847D01*
X-110820892Y144609698D01*
X-110730574Y144727402D01*
X-110730572Y144727406D01*
X-110727622Y144731250D01*
X-110667132Y144877285D01*
X-110665280Y144891347D01*
X-110647133Y145029192D01*
X-110646500Y145034000D01*
X-110649942Y145060144D01*
X-110666499Y145185910D01*
X-110666500Y145185913D01*
X-110667132Y145190715D01*
X-110727622Y145336750D01*
X-110730572Y145340594D01*
X-110730574Y145340598D01*
X-110820892Y145458302D01*
X-110823847Y145462153D01*
X-110827698Y145465108D01*
X-110829826Y145467236D01*
X-110851218Y145513112D01*
X-110851500Y145519562D01*
X-110851500Y145719117D01*
X-110834187Y145766683D01*
X-110811096Y145785051D01*
X-110789196Y145796210D01*
X-110746382Y145818025D01*
X-110652525Y145911882D01*
X-110649881Y145917072D01*
X-110649879Y145917074D01*
X-110594910Y146024957D01*
X-110592264Y146030150D01*
X-110591353Y146035902D01*
X-110591352Y146035905D01*
X-110576955Y146126808D01*
X-110576500Y146129681D01*
X-110576500Y146630319D01*
X-110582020Y146665174D01*
X-110591352Y146724095D01*
X-110591353Y146724098D01*
X-110592264Y146729850D01*
X-110603767Y146752425D01*
X-110649879Y146842926D01*
X-110649881Y146842928D01*
X-110652525Y146848118D01*
X-110746382Y146941975D01*
X-110751572Y146944619D01*
X-110751574Y146944621D01*
X-110859457Y146999590D01*
X-110864650Y147002236D01*
X-110870402Y147003147D01*
X-110870405Y147003148D01*
X-110961308Y147017545D01*
X-110964181Y147018000D01*
X-111443956Y147018000D01*
X-111491522Y147035313D01*
X-111516832Y147079150D01*
X-111508042Y147129000D01*
X-111496282Y147144326D01*
X-111345282Y147295326D01*
X-111299406Y147316718D01*
X-111292956Y147317000D01*
X-110964181Y147317000D01*
X-110961308Y147317455D01*
X-110870405Y147331852D01*
X-110870402Y147331853D01*
X-110864650Y147332764D01*
X-110844649Y147342955D01*
X-110751574Y147390379D01*
X-110751572Y147390381D01*
X-110746382Y147393025D01*
X-110652525Y147486882D01*
X-110641629Y147508266D01*
X-110638658Y147514096D01*
X-110601638Y147548618D01*
X-110572724Y147554500D01*
X-109632283Y147554500D01*
X-109584717Y147537187D01*
X-109572378Y147521677D01*
X-109571543Y147522283D01*
X-109568117Y147517568D01*
X-109565475Y147512382D01*
X-109471618Y147418525D01*
X-109466428Y147415881D01*
X-109466426Y147415879D01*
X-109373351Y147368455D01*
X-109353350Y147358264D01*
X-109347598Y147357353D01*
X-109347595Y147357352D01*
X-109256692Y147342955D01*
X-109253819Y147342500D01*
X-108678181Y147342500D01*
X-108675308Y147342955D01*
X-108584405Y147357352D01*
X-108584402Y147357353D01*
X-108578650Y147358264D01*
X-108558649Y147368455D01*
X-108465574Y147415879D01*
X-108465572Y147415881D01*
X-108460382Y147418525D01*
X-108366525Y147512382D01*
X-108361480Y147522283D01*
X-108352658Y147539596D01*
X-108315638Y147574118D01*
X-108286724Y147580000D01*
X-107994244Y147580000D01*
X-107946678Y147562687D01*
G37*
G04 #@! TD.AperFunction*
G04 #@! TA.AperFunction,Conductor*
G36*
X-125877630Y151388687D02*
G01*
X-125855123Y151355787D01*
X-125814756Y151236869D01*
X-125813460Y151234375D01*
X-125813460Y151234374D01*
X-125712334Y151039700D01*
X-125695492Y151007277D01*
X-125693839Y151005015D01*
X-125693837Y151005011D01*
X-125547970Y150805344D01*
X-125542872Y150798366D01*
X-125453406Y150708431D01*
X-125398614Y150653351D01*
X-125360409Y150614945D01*
X-125152300Y150461234D01*
X-124923336Y150340769D01*
X-124920680Y150339852D01*
X-124920678Y150339851D01*
X-124710577Y150267303D01*
X-124678784Y150256325D01*
X-124676023Y150255821D01*
X-124676020Y150255820D01*
X-124621708Y150245901D01*
X-124424273Y150209843D01*
X-124421911Y150209719D01*
X-124421909Y150209719D01*
X-124342366Y150205550D01*
X-124342352Y150205550D01*
X-124341405Y150205500D01*
X-124180271Y150205500D01*
X-124108777Y150210939D01*
X-123990819Y150219911D01*
X-123990813Y150219912D01*
X-123988025Y150220124D01*
X-123735986Y150278543D01*
X-123709758Y150289007D01*
X-123498292Y150373373D01*
X-123498286Y150373376D01*
X-123495684Y150374414D01*
X-123493265Y150375836D01*
X-123493261Y150375838D01*
X-123275073Y150504104D01*
X-123275069Y150504107D01*
X-123272648Y150505530D01*
X-123139451Y150613969D01*
X-123091078Y150653351D01*
X-121309000Y150653351D01*
X-121309000Y150173048D01*
X-121305362Y150163052D01*
X-121300075Y150160000D01*
X-120588048Y150160000D01*
X-120578052Y150163638D01*
X-120575000Y150168925D01*
X-120575000Y151155952D01*
X-120578638Y151165948D01*
X-120583925Y151169000D01*
X-120794665Y151169000D01*
X-120797338Y151168904D01*
X-120865049Y151164061D01*
X-120872816Y151162660D01*
X-121004024Y151124134D01*
X-121013564Y151119778D01*
X-121127492Y151046561D01*
X-121135410Y151039700D01*
X-121224099Y150937346D01*
X-121229760Y150928539D01*
X-121286021Y150805344D01*
X-121288973Y150795288D01*
X-121308623Y150658620D01*
X-121309000Y150653351D01*
X-123091078Y150653351D01*
X-123074190Y150667100D01*
X-123072011Y150668874D01*
X-122898391Y150860687D01*
X-122755781Y151076555D01*
X-122647466Y151311510D01*
X-122646691Y151314206D01*
X-122646687Y151314215D01*
X-122635684Y151352460D01*
X-122605895Y151393385D01*
X-122564569Y151406000D01*
X-119030081Y151406000D01*
X-118982515Y151388687D01*
X-118957205Y151344850D01*
X-118965995Y151295000D01*
X-118990648Y151269382D01*
X-119177781Y151151538D01*
X-119359789Y150991076D01*
X-119406918Y150972606D01*
X-119454893Y150988751D01*
X-119458263Y150991987D01*
X-119458300Y150991944D01*
X-119564654Y151084099D01*
X-119573461Y151089760D01*
X-119696656Y151146021D01*
X-119706712Y151148973D01*
X-119843380Y151168623D01*
X-119848649Y151169000D01*
X-120053952Y151169000D01*
X-120063948Y151165362D01*
X-120067000Y151160075D01*
X-120067000Y148656048D01*
X-120063362Y148646052D01*
X-120058075Y148643000D01*
X-119860569Y148643000D01*
X-119813003Y148625687D01*
X-119787693Y148581850D01*
X-119796483Y148532000D01*
X-119839721Y148497997D01*
X-119938031Y148469131D01*
X-119947564Y148464778D01*
X-120061492Y148391561D01*
X-120069410Y148384700D01*
X-120158099Y148282346D01*
X-120163760Y148273539D01*
X-120220021Y148150344D01*
X-120222973Y148140288D01*
X-120242623Y148003620D01*
X-120243000Y147998351D01*
X-120243000Y147968048D01*
X-120239362Y147958052D01*
X-120234075Y147955000D01*
X-119647048Y147955000D01*
X-119637052Y147958638D01*
X-119634000Y147963925D01*
X-119634000Y148500952D01*
X-119637638Y148510948D01*
X-119642925Y148514000D01*
X-119715431Y148514000D01*
X-119762997Y148531313D01*
X-119788307Y148575150D01*
X-119779517Y148625000D01*
X-119736279Y148659003D01*
X-119637969Y148687869D01*
X-119628436Y148692222D01*
X-119514508Y148765439D01*
X-119506590Y148772300D01*
X-119465105Y148820176D01*
X-119420872Y148844786D01*
X-119371168Y148835207D01*
X-119355414Y148822561D01*
X-119286833Y148750038D01*
X-119247087Y148719650D01*
X-119128780Y148629198D01*
X-119101508Y148586554D01*
X-119109640Y148533411D01*
X-119126000Y148505075D01*
X-119126000Y147521000D01*
X-119143313Y147473434D01*
X-119187150Y147448124D01*
X-119200000Y147447000D01*
X-120229952Y147447000D01*
X-120239948Y147443362D01*
X-120243000Y147438075D01*
X-120243000Y147402335D01*
X-120242904Y147399662D01*
X-120238061Y147331951D01*
X-120236660Y147324184D01*
X-120198134Y147192976D01*
X-120193778Y147183436D01*
X-120120561Y147069508D01*
X-120113700Y147061590D01*
X-120011346Y146972901D01*
X-120002539Y146967240D01*
X-119879344Y146910979D01*
X-119869287Y146908026D01*
X-119866232Y146907587D01*
X-119864341Y146906574D01*
X-119864212Y146906536D01*
X-119864220Y146906509D01*
X-119821613Y146883682D01*
X-119802798Y146836690D01*
X-119818592Y146788598D01*
X-119835648Y146772812D01*
X-119869248Y146750361D01*
X-119869249Y146750360D01*
X-119875310Y146746310D01*
X-119877863Y146742489D01*
X-119922347Y146721746D01*
X-119973845Y146736756D01*
X-120089402Y146825426D01*
X-120089407Y146825429D01*
X-120093250Y146828378D01*
X-120239285Y146888868D01*
X-120244087Y146889500D01*
X-120244090Y146889501D01*
X-120391192Y146908867D01*
X-120396000Y146909500D01*
X-120400808Y146908867D01*
X-120547910Y146889501D01*
X-120547913Y146889500D01*
X-120552715Y146888868D01*
X-120698750Y146828378D01*
X-120739794Y146796884D01*
X-120749504Y146789433D01*
X-120797781Y146774212D01*
X-120844546Y146793584D01*
X-120854419Y146804646D01*
X-120909957Y146881087D01*
X-120916282Y146887823D01*
X-121037157Y146987820D01*
X-121044961Y146992772D01*
X-121186908Y147059567D01*
X-121195696Y147062423D01*
X-121331592Y147088347D01*
X-121338501Y147089000D01*
X-121828952Y147089000D01*
X-121838948Y147085362D01*
X-121842000Y147080075D01*
X-121842000Y146101000D01*
X-121859313Y146053434D01*
X-121903150Y146028124D01*
X-121916000Y146027000D01*
X-122276000Y146027000D01*
X-122323566Y146044313D01*
X-122348876Y146088150D01*
X-122350000Y146101000D01*
X-122350000Y147075952D01*
X-122353638Y147085948D01*
X-122358925Y147089000D01*
X-122833261Y147089000D01*
X-122837877Y147088710D01*
X-122956266Y147073754D01*
X-122965210Y147071457D01*
X-123111072Y147013706D01*
X-123119171Y147009253D01*
X-123246087Y146917043D01*
X-123252823Y146910718D01*
X-123352820Y146789843D01*
X-123357772Y146782039D01*
X-123383735Y146726865D01*
X-123419653Y146691197D01*
X-123470094Y146686962D01*
X-123509400Y146713325D01*
X-123515861Y146721746D01*
X-123523847Y146732153D01*
X-123554078Y146755350D01*
X-123645402Y146825426D01*
X-123645407Y146825429D01*
X-123649250Y146828378D01*
X-123795285Y146888868D01*
X-123800087Y146889500D01*
X-123800090Y146889501D01*
X-123947192Y146908867D01*
X-123952000Y146909500D01*
X-123956808Y146908867D01*
X-124103910Y146889501D01*
X-124103913Y146889500D01*
X-124108715Y146888868D01*
X-124254750Y146828378D01*
X-124258593Y146825429D01*
X-124258598Y146825426D01*
X-124349922Y146755350D01*
X-124380153Y146732153D01*
X-124383108Y146728302D01*
X-124473426Y146610598D01*
X-124473428Y146610594D01*
X-124476378Y146606750D01*
X-124536868Y146460715D01*
X-124537500Y146455913D01*
X-124537501Y146455910D01*
X-124555413Y146319853D01*
X-124557500Y146304000D01*
X-124556867Y146299192D01*
X-124556867Y146296177D01*
X-124574180Y146248611D01*
X-124578541Y146243851D01*
X-125116819Y145705573D01*
X-125116843Y145705552D01*
X-125116858Y145705545D01*
X-125206567Y145615836D01*
X-125209209Y145610650D01*
X-125209213Y145610645D01*
X-125218412Y145592591D01*
X-125224479Y145582690D01*
X-125236390Y145566296D01*
X-125236392Y145566291D01*
X-125239814Y145561582D01*
X-125241613Y145556045D01*
X-125241614Y145556043D01*
X-125247876Y145536769D01*
X-125252320Y145526041D01*
X-125261518Y145507989D01*
X-125261519Y145507986D01*
X-125264164Y145502795D01*
X-125265075Y145497042D01*
X-125268246Y145477026D01*
X-125270956Y145465739D01*
X-125276455Y145448813D01*
X-125279018Y145440923D01*
X-125279018Y145314055D01*
X-125279013Y145314040D01*
X-125279011Y145314010D01*
X-125279011Y143483990D01*
X-125279013Y143483960D01*
X-125279018Y143483945D01*
X-125279018Y143357077D01*
X-125277219Y143351541D01*
X-125277219Y143351539D01*
X-125270956Y143332261D01*
X-125268246Y143320974D01*
X-125264164Y143295205D01*
X-125261519Y143290014D01*
X-125261518Y143290011D01*
X-125252320Y143271959D01*
X-125247876Y143261231D01*
X-125239814Y143236418D01*
X-125236392Y143231709D01*
X-125236390Y143231704D01*
X-125224479Y143215310D01*
X-125218412Y143205409D01*
X-125209213Y143187355D01*
X-125209209Y143187350D01*
X-125206567Y143182164D01*
X-125116858Y143092455D01*
X-125116843Y143092448D01*
X-125116819Y143092427D01*
X-124317082Y142292690D01*
X-124317063Y142292667D01*
X-124317056Y142292653D01*
X-124227347Y142202944D01*
X-124222165Y142200304D01*
X-124222163Y142200302D01*
X-124204099Y142191098D01*
X-124194201Y142185032D01*
X-124173093Y142169697D01*
X-124167561Y142167899D01*
X-124167558Y142167898D01*
X-124148279Y142161634D01*
X-124137553Y142157191D01*
X-124119495Y142147990D01*
X-124119490Y142147988D01*
X-124114306Y142145347D01*
X-124108558Y142144436D01*
X-124108556Y142144436D01*
X-124095441Y142142359D01*
X-124088539Y142141266D01*
X-124077255Y142138557D01*
X-124052434Y142130492D01*
X-123925566Y142130492D01*
X-123925549Y142130497D01*
X-123925515Y142130500D01*
X-123070584Y142130500D01*
X-123020353Y142110839D01*
X-122991178Y142083870D01*
X-122931158Y142057336D01*
X-122889334Y142038846D01*
X-122889332Y142038846D01*
X-122884409Y142036669D01*
X-122835578Y142030500D01*
X-121365961Y142030500D01*
X-121309036Y142039975D01*
X-121286877Y142043663D01*
X-121286875Y142043664D01*
X-121280847Y142044667D01*
X-121178112Y142100100D01*
X-121171981Y142106733D01*
X-121169658Y142107929D01*
X-121169128Y142108340D01*
X-121169051Y142108241D01*
X-121126978Y142129909D01*
X-121117642Y142130500D01*
X-120756544Y142130500D01*
X-120708978Y142113187D01*
X-120704218Y142108826D01*
X-120259082Y141663690D01*
X-120259063Y141663667D01*
X-120259056Y141663653D01*
X-120169347Y141573944D01*
X-120164161Y141571302D01*
X-120164156Y141571298D01*
X-120146096Y141562096D01*
X-120136196Y141556030D01*
X-120115093Y141540698D01*
X-120109556Y141538899D01*
X-120090284Y141532637D01*
X-120079556Y141528193D01*
X-120061501Y141518993D01*
X-120061496Y141518991D01*
X-120056306Y141516347D01*
X-120030530Y141512264D01*
X-120019249Y141509556D01*
X-119994434Y141501493D01*
X-119867566Y141501493D01*
X-119867551Y141501498D01*
X-119867521Y141501500D01*
X-119283500Y141501500D01*
X-119235934Y141484187D01*
X-119210624Y141440350D01*
X-119209500Y141427500D01*
X-119209500Y141372000D01*
X-119208790Y141368431D01*
X-119208790Y141368430D01*
X-119204570Y141347218D01*
X-119193857Y141293359D01*
X-119149310Y141226690D01*
X-119143249Y141222640D01*
X-119143248Y141222639D01*
X-119112387Y141202018D01*
X-119082456Y141161197D01*
X-119079500Y141140490D01*
X-119079500Y141094479D01*
X-119079502Y141094449D01*
X-119079507Y141094434D01*
X-119079507Y140967566D01*
X-119077708Y140962030D01*
X-119077708Y140962028D01*
X-119071445Y140942750D01*
X-119068735Y140931463D01*
X-119068491Y140929923D01*
X-119064653Y140905694D01*
X-119062008Y140900503D01*
X-119062007Y140900500D01*
X-119052809Y140882448D01*
X-119048365Y140871720D01*
X-119042884Y140854852D01*
X-119040303Y140846907D01*
X-119036881Y140842198D01*
X-119036879Y140842193D01*
X-119024968Y140825799D01*
X-119018901Y140815898D01*
X-119009702Y140797844D01*
X-119009698Y140797839D01*
X-119007056Y140792653D01*
X-118917347Y140702944D01*
X-118917332Y140702937D01*
X-118917308Y140702916D01*
X-118715850Y140501457D01*
X-118694458Y140455580D01*
X-118707559Y140406686D01*
X-118739262Y140381014D01*
X-118963913Y140285655D01*
X-118963915Y140285654D01*
X-118966657Y140284490D01*
X-118969177Y140282903D01*
X-118969179Y140282902D01*
X-119023808Y140248500D01*
X-119177781Y140151538D01*
X-119271357Y140069039D01*
X-119291495Y140051285D01*
X-119364933Y139986541D01*
X-119387003Y139959673D01*
X-119521411Y139796043D01*
X-119521414Y139796038D01*
X-119523298Y139793745D01*
X-119524794Y139791174D01*
X-119543900Y139758347D01*
X-119582789Y139725945D01*
X-119633408Y139726121D01*
X-119669384Y139754457D01*
X-119700690Y139801310D01*
X-119706751Y139805360D01*
X-119706752Y139805361D01*
X-119718595Y139813274D01*
X-119748527Y139854095D01*
X-119745227Y139904461D01*
X-119744622Y139905250D01*
X-119724182Y139954595D01*
X-119694895Y140025302D01*
X-119684132Y140051285D01*
X-119683010Y140059801D01*
X-119664133Y140203192D01*
X-119663500Y140208000D01*
X-119671866Y140271544D01*
X-119683499Y140359910D01*
X-119683500Y140359913D01*
X-119684132Y140364715D01*
X-119744622Y140510750D01*
X-119747572Y140514594D01*
X-119747574Y140514598D01*
X-119837892Y140632302D01*
X-119840847Y140636153D01*
X-119845681Y140639862D01*
X-119962402Y140729426D01*
X-119962406Y140729428D01*
X-119966250Y140732378D01*
X-120112285Y140792868D01*
X-120117087Y140793500D01*
X-120117090Y140793501D01*
X-120264192Y140812867D01*
X-120269000Y140813500D01*
X-120273808Y140812867D01*
X-120420910Y140793501D01*
X-120420913Y140793500D01*
X-120425715Y140792868D01*
X-120571750Y140732378D01*
X-120575594Y140729428D01*
X-120575598Y140729426D01*
X-120692319Y140639862D01*
X-120697153Y140636153D01*
X-120700108Y140632302D01*
X-120790426Y140514598D01*
X-120790428Y140514594D01*
X-120793378Y140510750D01*
X-120853868Y140364715D01*
X-120854500Y140359913D01*
X-120854501Y140359910D01*
X-120866134Y140271544D01*
X-120874500Y140208000D01*
X-120873867Y140203192D01*
X-120854989Y140059801D01*
X-120853868Y140051285D01*
X-120852013Y140046807D01*
X-120811342Y139948618D01*
X-120809134Y139898047D01*
X-120839949Y139857888D01*
X-120865268Y139847721D01*
X-120874641Y139845857D01*
X-120902490Y139827249D01*
X-120935247Y139805361D01*
X-120941310Y139801310D01*
X-120985857Y139734641D01*
X-120987278Y139727496D01*
X-120987279Y139727494D01*
X-120998342Y139671876D01*
X-121001500Y139656000D01*
X-121001500Y138156000D01*
X-121000790Y138152431D01*
X-121000790Y138152430D01*
X-120987547Y138085856D01*
X-120985857Y138077359D01*
X-120941310Y138010690D01*
X-120935249Y138006640D01*
X-120922532Y137998143D01*
X-120874641Y137966143D01*
X-120867496Y137964722D01*
X-120867494Y137964721D01*
X-120799570Y137951210D01*
X-120799569Y137951210D01*
X-120796000Y137950500D01*
X-119846000Y137950500D01*
X-119842431Y137951210D01*
X-119842430Y137951210D01*
X-119774506Y137964721D01*
X-119774504Y137964722D01*
X-119767359Y137966143D01*
X-119719468Y137998143D01*
X-119706751Y138006640D01*
X-119700690Y138010690D01*
X-119668253Y138059235D01*
X-119627431Y138089167D01*
X-119576920Y138085856D01*
X-119545520Y138059717D01*
X-119458260Y137931318D01*
X-119286833Y137750038D01*
X-119088627Y137598499D01*
X-119049699Y137577626D01*
X-118989255Y137545216D01*
X-118955516Y137507481D01*
X-118953926Y137456887D01*
X-118985229Y137417108D01*
X-119024224Y137406000D01*
X-122566804Y137406000D01*
X-122614370Y137423313D01*
X-122636877Y137456213D01*
X-122651907Y137500490D01*
X-122677244Y137575131D01*
X-122796508Y137804723D01*
X-122811656Y137825459D01*
X-122947471Y138011366D01*
X-122947472Y138011367D01*
X-122949128Y138013634D01*
X-123051463Y138116506D01*
X-123129609Y138195063D01*
X-123129612Y138195065D01*
X-123131591Y138197055D01*
X-123339700Y138350766D01*
X-123568664Y138471231D01*
X-123571320Y138472148D01*
X-123571322Y138472149D01*
X-123810557Y138554757D01*
X-123810559Y138554757D01*
X-123813216Y138555675D01*
X-123815977Y138556179D01*
X-123815980Y138556180D01*
X-123947064Y138580120D01*
X-124067727Y138602157D01*
X-124070089Y138602281D01*
X-124070091Y138602281D01*
X-124149634Y138606450D01*
X-124149648Y138606450D01*
X-124150595Y138606500D01*
X-124311729Y138606500D01*
X-124383223Y138601061D01*
X-124501181Y138592089D01*
X-124501187Y138592088D01*
X-124503975Y138591876D01*
X-124756014Y138533457D01*
X-124758625Y138532415D01*
X-124758626Y138532415D01*
X-124993708Y138438627D01*
X-124993714Y138438624D01*
X-124996316Y138437586D01*
X-124998735Y138436164D01*
X-124998739Y138436162D01*
X-125216927Y138307896D01*
X-125216931Y138307893D01*
X-125219352Y138306470D01*
X-125221531Y138304696D01*
X-125353747Y138197055D01*
X-125419989Y138143126D01*
X-125421876Y138141041D01*
X-125565375Y137982505D01*
X-125593609Y137951313D01*
X-125736219Y137735445D01*
X-125844534Y137500490D01*
X-125845309Y137497794D01*
X-125845313Y137497785D01*
X-125856316Y137459540D01*
X-125886105Y137418615D01*
X-125927431Y137406000D01*
X-126172000Y137406000D01*
X-126219566Y137423313D01*
X-126244876Y137467150D01*
X-126246000Y137480000D01*
X-126246000Y139599000D01*
X-126228687Y139646566D01*
X-126184850Y139671876D01*
X-126172000Y139673000D01*
X-125563048Y139673000D01*
X-125553052Y139676638D01*
X-125550000Y139681925D01*
X-125550000Y140418075D01*
X-125042000Y140418075D01*
X-125042000Y139686048D01*
X-125038362Y139676052D01*
X-125033075Y139673000D01*
X-124155257Y139673000D01*
X-124150987Y139673248D01*
X-124024744Y139687967D01*
X-124016428Y139689933D01*
X-123858406Y139747291D01*
X-123850761Y139751120D01*
X-123710171Y139843295D01*
X-123703615Y139848777D01*
X-123587998Y139970825D01*
X-123582885Y139977659D01*
X-123498441Y140123039D01*
X-123495037Y140130867D01*
X-123446161Y140292246D01*
X-123444721Y140299671D01*
X-123438147Y140373329D01*
X-123438000Y140376631D01*
X-123438000Y140413952D01*
X-123441638Y140423948D01*
X-123446925Y140427000D01*
X-125028952Y140427000D01*
X-125038948Y140423362D01*
X-125042000Y140418075D01*
X-125550000Y140418075D01*
X-125550000Y141675952D01*
X-125551501Y141680075D01*
X-125042000Y141680075D01*
X-125042000Y140948048D01*
X-125038362Y140938052D01*
X-125033075Y140935000D01*
X-123451048Y140935000D01*
X-123441052Y140938638D01*
X-123438000Y140943925D01*
X-123438000Y140971743D01*
X-123438248Y140976013D01*
X-123452967Y141102256D01*
X-123454933Y141110572D01*
X-123512291Y141268594D01*
X-123516120Y141276239D01*
X-123608295Y141416829D01*
X-123613777Y141423385D01*
X-123735825Y141539002D01*
X-123742659Y141544115D01*
X-123888039Y141628559D01*
X-123895867Y141631963D01*
X-124057246Y141680839D01*
X-124064671Y141682279D01*
X-124138329Y141688853D01*
X-124141631Y141689000D01*
X-125028952Y141689000D01*
X-125038948Y141685362D01*
X-125042000Y141680075D01*
X-125551501Y141680075D01*
X-125553638Y141685948D01*
X-125558925Y141689000D01*
X-126172000Y141689000D01*
X-126219566Y141706313D01*
X-126244876Y141750150D01*
X-126246000Y141763000D01*
X-126246000Y147049000D01*
X-126228687Y147096566D01*
X-126184850Y147121876D01*
X-126172000Y147123000D01*
X-125563048Y147123000D01*
X-125553052Y147126638D01*
X-125550000Y147131925D01*
X-125550000Y147868075D01*
X-125042000Y147868075D01*
X-125042000Y147136048D01*
X-125038362Y147126052D01*
X-125033075Y147123000D01*
X-124155257Y147123000D01*
X-124150987Y147123248D01*
X-124024744Y147137967D01*
X-124016428Y147139933D01*
X-123858406Y147197291D01*
X-123850761Y147201120D01*
X-123710171Y147293295D01*
X-123703615Y147298777D01*
X-123587998Y147420825D01*
X-123582885Y147427659D01*
X-123498441Y147573039D01*
X-123495037Y147580867D01*
X-123446161Y147742246D01*
X-123444721Y147749671D01*
X-123438147Y147823329D01*
X-123438000Y147826631D01*
X-123438000Y147863952D01*
X-123441638Y147873948D01*
X-123446925Y147877000D01*
X-125028952Y147877000D01*
X-125038948Y147873362D01*
X-125042000Y147868075D01*
X-125550000Y147868075D01*
X-125550000Y149125952D01*
X-125551501Y149130075D01*
X-125042000Y149130075D01*
X-125042000Y148398048D01*
X-125038362Y148388052D01*
X-125033075Y148385000D01*
X-123451048Y148385000D01*
X-123441052Y148388638D01*
X-123438000Y148393925D01*
X-123438000Y148421743D01*
X-123438248Y148426013D01*
X-123452967Y148552256D01*
X-123454933Y148560572D01*
X-123512291Y148718594D01*
X-123516120Y148726239D01*
X-123608295Y148866829D01*
X-123613777Y148873385D01*
X-123735825Y148989002D01*
X-123742659Y148994115D01*
X-123888039Y149078559D01*
X-123895867Y149081963D01*
X-124057246Y149130839D01*
X-124064671Y149132279D01*
X-124138329Y149138853D01*
X-124141631Y149139000D01*
X-125028952Y149139000D01*
X-125038948Y149135362D01*
X-125042000Y149130075D01*
X-125551501Y149130075D01*
X-125553638Y149135948D01*
X-125558925Y149139000D01*
X-126172000Y149139000D01*
X-126219566Y149156313D01*
X-126244876Y149200150D01*
X-126246000Y149213000D01*
X-126246000Y149643075D01*
X-121309000Y149643075D01*
X-121309000Y149157335D01*
X-121308904Y149154662D01*
X-121304061Y149086951D01*
X-121302660Y149079184D01*
X-121264134Y148947976D01*
X-121259778Y148938436D01*
X-121186561Y148824508D01*
X-121179700Y148816590D01*
X-121077346Y148727901D01*
X-121068539Y148722240D01*
X-120945344Y148665979D01*
X-120935288Y148663027D01*
X-120798620Y148643377D01*
X-120793351Y148643000D01*
X-120588048Y148643000D01*
X-120578052Y148646638D01*
X-120575000Y148651925D01*
X-120575000Y149638952D01*
X-120578638Y149648948D01*
X-120583925Y149652000D01*
X-121295952Y149652000D01*
X-121305948Y149648362D01*
X-121309000Y149643075D01*
X-126246000Y149643075D01*
X-126246000Y151332000D01*
X-126228687Y151379566D01*
X-126184850Y151404876D01*
X-126172000Y151406000D01*
X-125925196Y151406000D01*
X-125877630Y151388687D01*
G37*
G04 #@! TD.AperFunction*
G04 #@! TA.AperFunction,Conductor*
G36*
X-116993434Y147937687D02*
G01*
X-116968124Y147893850D01*
X-116967000Y147881000D01*
X-116967000Y146756548D01*
X-116963362Y146746552D01*
X-116958075Y146743500D01*
X-116693834Y146743500D01*
X-116646268Y146726187D01*
X-116620958Y146682350D01*
X-116629748Y146632500D01*
X-116641508Y146617174D01*
X-116791008Y146467674D01*
X-116836884Y146446282D01*
X-116843334Y146446000D01*
X-117273956Y146446000D01*
X-117321522Y146463313D01*
X-117326282Y146467674D01*
X-117397916Y146539308D01*
X-117397937Y146539332D01*
X-117397944Y146539347D01*
X-117487653Y146629056D01*
X-117486131Y146630578D01*
X-117509473Y146665174D01*
X-117504188Y146715517D01*
X-117486376Y146732722D01*
X-117475000Y146752425D01*
X-117475000Y147881000D01*
X-117457687Y147928566D01*
X-117413850Y147953876D01*
X-117401000Y147955000D01*
X-117041000Y147955000D01*
X-116993434Y147937687D01*
G37*
G04 #@! TD.AperFunction*
G04 #@! TA.AperFunction,Conductor*
G36*
X-105877630Y151388687D02*
G01*
X-105855123Y151355787D01*
X-105814756Y151236869D01*
X-105813460Y151234375D01*
X-105813460Y151234374D01*
X-105712334Y151039700D01*
X-105695492Y151007277D01*
X-105693839Y151005015D01*
X-105693837Y151005011D01*
X-105547970Y150805344D01*
X-105542872Y150798366D01*
X-105453406Y150708431D01*
X-105398614Y150653351D01*
X-105360409Y150614945D01*
X-105152300Y150461234D01*
X-104923336Y150340769D01*
X-104920680Y150339852D01*
X-104920678Y150339851D01*
X-104710577Y150267303D01*
X-104678784Y150256325D01*
X-104581704Y150238595D01*
X-104538024Y150213020D01*
X-104521000Y150165800D01*
X-104521000Y147896100D01*
X-104538313Y147848534D01*
X-104582150Y147823224D01*
X-104595000Y147822100D01*
X-107042256Y147822100D01*
X-107089822Y147839413D01*
X-107094582Y147843774D01*
X-107469616Y148218808D01*
X-107469637Y148218832D01*
X-107469644Y148218847D01*
X-107559353Y148308556D01*
X-107564539Y148311198D01*
X-107564544Y148311202D01*
X-107582598Y148320401D01*
X-107592499Y148326468D01*
X-107608893Y148338379D01*
X-107608898Y148338381D01*
X-107613607Y148341803D01*
X-107619144Y148343602D01*
X-107619146Y148343603D01*
X-107638420Y148349865D01*
X-107649148Y148354309D01*
X-107667200Y148363507D01*
X-107667203Y148363508D01*
X-107672394Y148366153D01*
X-107691940Y148369249D01*
X-107698163Y148370235D01*
X-107709450Y148372945D01*
X-107728728Y148379208D01*
X-107728730Y148379208D01*
X-107734266Y148381007D01*
X-107861134Y148381007D01*
X-107861149Y148381002D01*
X-107861179Y148381000D01*
X-108286724Y148381000D01*
X-108334290Y148398313D01*
X-108352658Y148421404D01*
X-108363881Y148443429D01*
X-108366525Y148448618D01*
X-108460382Y148542475D01*
X-108465572Y148545119D01*
X-108465574Y148545121D01*
X-108573457Y148600090D01*
X-108578650Y148602736D01*
X-108584402Y148603647D01*
X-108584405Y148603648D01*
X-108675308Y148618045D01*
X-108678181Y148618500D01*
X-109253819Y148618500D01*
X-109256692Y148618045D01*
X-109347595Y148603648D01*
X-109347598Y148603647D01*
X-109353350Y148602736D01*
X-109358543Y148600090D01*
X-109466426Y148545121D01*
X-109466428Y148545119D01*
X-109471618Y148542475D01*
X-109565475Y148448618D01*
X-109591107Y148398313D01*
X-109592334Y148395904D01*
X-109629354Y148361382D01*
X-109658268Y148355500D01*
X-110572724Y148355500D01*
X-110620290Y148372813D01*
X-110638658Y148395904D01*
X-110649881Y148417929D01*
X-110652525Y148423118D01*
X-110746382Y148516975D01*
X-110751572Y148519619D01*
X-110751574Y148519621D01*
X-110859457Y148574590D01*
X-110864650Y148577236D01*
X-110870402Y148578147D01*
X-110870405Y148578148D01*
X-110961308Y148592545D01*
X-110964181Y148593000D01*
X-111539819Y148593000D01*
X-111542692Y148592545D01*
X-111633595Y148578148D01*
X-111633598Y148578147D01*
X-111639350Y148577236D01*
X-111644543Y148574590D01*
X-111752426Y148519621D01*
X-111752428Y148519619D01*
X-111757618Y148516975D01*
X-111851475Y148423118D01*
X-111854119Y148417929D01*
X-111854121Y148417926D01*
X-111894652Y148338379D01*
X-111911736Y148304850D01*
X-111912647Y148299098D01*
X-111912648Y148299095D01*
X-111919883Y148253410D01*
X-111927500Y148205319D01*
X-111927500Y147876544D01*
X-111944813Y147828978D01*
X-111949174Y147824218D01*
X-112506308Y147267084D01*
X-112506332Y147267063D01*
X-112506347Y147267056D01*
X-112596056Y147177347D01*
X-112598698Y147172161D01*
X-112598702Y147172156D01*
X-112607901Y147154102D01*
X-112613968Y147144201D01*
X-112625879Y147127807D01*
X-112625881Y147127802D01*
X-112629303Y147123093D01*
X-112631102Y147117556D01*
X-112631103Y147117554D01*
X-112637365Y147098280D01*
X-112641809Y147087552D01*
X-112651007Y147069500D01*
X-112651008Y147069497D01*
X-112653653Y147064306D01*
X-112656269Y147047791D01*
X-112657735Y147038537D01*
X-112660445Y147027250D01*
X-112666292Y147009253D01*
X-112668507Y147002434D01*
X-112668507Y146926660D01*
X-112685820Y146879094D01*
X-112729657Y146853784D01*
X-112779507Y146862574D01*
X-112805064Y146889507D01*
X-112805460Y146889219D01*
X-112807644Y146892225D01*
X-112808441Y146893064D01*
X-112808849Y146893866D01*
X-112808881Y146893929D01*
X-112811525Y146899118D01*
X-112905382Y146992975D01*
X-112910572Y146995619D01*
X-112910574Y146995621D01*
X-113018457Y147050590D01*
X-113023650Y147053236D01*
X-113029402Y147054147D01*
X-113029405Y147054148D01*
X-113120308Y147068545D01*
X-113123181Y147069000D01*
X-113698819Y147069000D01*
X-113701692Y147068545D01*
X-113792595Y147054148D01*
X-113792598Y147054147D01*
X-113798350Y147053236D01*
X-113803543Y147050590D01*
X-113911426Y146995621D01*
X-113911428Y146995619D01*
X-113916618Y146992975D01*
X-114010475Y146899118D01*
X-114058611Y146804646D01*
X-114062566Y146796884D01*
X-114099586Y146762362D01*
X-114128500Y146756480D01*
X-114394334Y146756480D01*
X-114441900Y146773793D01*
X-114467210Y146817630D01*
X-114466980Y146844570D01*
X-114466227Y146848450D01*
X-114460147Y146916579D01*
X-114460000Y146919881D01*
X-114460000Y146925952D01*
X-114463638Y146935948D01*
X-114468925Y146939000D01*
X-115623000Y146939000D01*
X-115670566Y146956313D01*
X-115695876Y147000150D01*
X-115697000Y147013000D01*
X-115697000Y148125452D01*
X-115698501Y148129575D01*
X-115189000Y148129575D01*
X-115189000Y147460048D01*
X-115185362Y147450052D01*
X-115180075Y147447000D01*
X-114473048Y147447000D01*
X-114463052Y147450638D01*
X-114460181Y147455611D01*
X-114460248Y147456766D01*
X-114474128Y147575818D01*
X-114476093Y147584131D01*
X-114530984Y147735352D01*
X-114534813Y147742997D01*
X-114623019Y147877534D01*
X-114628501Y147884090D01*
X-114745294Y147994729D01*
X-114752128Y147999842D01*
X-114891250Y148080651D01*
X-114899078Y148084055D01*
X-115053530Y148130833D01*
X-115060955Y148132273D01*
X-115129079Y148138353D01*
X-115132381Y148138500D01*
X-115175952Y148138500D01*
X-115185948Y148134862D01*
X-115189000Y148129575D01*
X-115698501Y148129575D01*
X-115700638Y148135448D01*
X-115705925Y148138500D01*
X-115739995Y148138500D01*
X-115744266Y148138252D01*
X-115863318Y148124372D01*
X-115871631Y148122407D01*
X-115912329Y148107634D01*
X-115962948Y148107678D01*
X-116001696Y148140249D01*
X-116011389Y148171913D01*
X-116014439Y148214549D01*
X-116015840Y148222316D01*
X-116054366Y148353524D01*
X-116058722Y148363064D01*
X-116131939Y148476992D01*
X-116138800Y148484910D01*
X-116241154Y148573599D01*
X-116249961Y148579260D01*
X-116373156Y148635521D01*
X-116383212Y148638473D01*
X-116519880Y148658123D01*
X-116525149Y148658500D01*
X-117120610Y148658500D01*
X-117168176Y148675813D01*
X-117193486Y148719650D01*
X-117184696Y148769500D01*
X-117169547Y148788008D01*
X-117129299Y148823491D01*
X-117129298Y148823493D01*
X-117127067Y148825459D01*
X-117026430Y148947976D01*
X-116970589Y149015957D01*
X-116970586Y149015962D01*
X-116968702Y149018255D01*
X-116948100Y149053653D01*
X-116909211Y149086055D01*
X-116858592Y149085879D01*
X-116822616Y149057543D01*
X-116791310Y149010690D01*
X-116785249Y149006640D01*
X-116766504Y148994115D01*
X-116724641Y148966143D01*
X-116717496Y148964722D01*
X-116717494Y148964721D01*
X-116649570Y148951210D01*
X-116649569Y148951210D01*
X-116646000Y148950500D01*
X-115696000Y148950500D01*
X-115692431Y148951210D01*
X-115692430Y148951210D01*
X-115624506Y148964721D01*
X-115624504Y148964722D01*
X-115617359Y148966143D01*
X-115575496Y148994115D01*
X-115556751Y149006640D01*
X-115550690Y149010690D01*
X-115506143Y149077359D01*
X-115495218Y149132279D01*
X-115491210Y149152430D01*
X-115491210Y149152431D01*
X-115490500Y149156000D01*
X-115490500Y149340456D01*
X-115473187Y149388022D01*
X-115429350Y149413332D01*
X-115379500Y149404542D01*
X-115364174Y149392782D01*
X-114108174Y148136782D01*
X-114086782Y148090906D01*
X-114086500Y148084456D01*
X-114086500Y147755681D01*
X-114086045Y147752808D01*
X-114071648Y147661905D01*
X-114071647Y147661902D01*
X-114070736Y147656150D01*
X-114068090Y147650957D01*
X-114013121Y147543074D01*
X-114013119Y147543072D01*
X-114010475Y147537882D01*
X-113916618Y147444025D01*
X-113911428Y147441381D01*
X-113911426Y147441379D01*
X-113824610Y147397144D01*
X-113798350Y147383764D01*
X-113792598Y147382853D01*
X-113792595Y147382852D01*
X-113701692Y147368455D01*
X-113698819Y147368000D01*
X-113123181Y147368000D01*
X-113120308Y147368455D01*
X-113029405Y147382852D01*
X-113029402Y147382853D01*
X-113023650Y147383764D01*
X-112997390Y147397144D01*
X-112910574Y147441379D01*
X-112910572Y147441381D01*
X-112905382Y147444025D01*
X-112811525Y147537882D01*
X-112808881Y147543072D01*
X-112808879Y147543074D01*
X-112753910Y147650957D01*
X-112751264Y147656150D01*
X-112750353Y147661902D01*
X-112750352Y147661905D01*
X-112735955Y147752808D01*
X-112735500Y147755681D01*
X-112735500Y148256319D01*
X-112742275Y148299095D01*
X-112750352Y148350095D01*
X-112750353Y148350098D01*
X-112751264Y148355850D01*
X-112764082Y148381007D01*
X-112808879Y148468926D01*
X-112808881Y148468928D01*
X-112811525Y148474118D01*
X-112905382Y148567975D01*
X-112910572Y148570619D01*
X-112910574Y148570621D01*
X-113018457Y148625590D01*
X-113023650Y148628236D01*
X-113029402Y148629147D01*
X-113029405Y148629148D01*
X-113120308Y148643545D01*
X-113123181Y148644000D01*
X-113451956Y148644000D01*
X-113499522Y148661313D01*
X-113504282Y148665674D01*
X-114982916Y150144308D01*
X-114982937Y150144332D01*
X-114982944Y150144347D01*
X-115072653Y150234056D01*
X-115077839Y150236698D01*
X-115077844Y150236702D01*
X-115095898Y150245901D01*
X-115105799Y150251968D01*
X-115122193Y150263879D01*
X-115122198Y150263881D01*
X-115126907Y150267303D01*
X-115132444Y150269102D01*
X-115132446Y150269103D01*
X-115151720Y150275365D01*
X-115162448Y150279809D01*
X-115180500Y150289007D01*
X-115180503Y150289008D01*
X-115185694Y150291653D01*
X-115205240Y150294749D01*
X-115211463Y150295735D01*
X-115222750Y150298445D01*
X-115242028Y150304708D01*
X-115242030Y150304708D01*
X-115247566Y150306507D01*
X-115374434Y150306507D01*
X-115374449Y150306502D01*
X-115374479Y150306500D01*
X-115416500Y150306500D01*
X-115464066Y150323813D01*
X-115489376Y150367650D01*
X-115490500Y150380500D01*
X-115490500Y150566403D01*
X-115473187Y150613969D01*
X-115429350Y150639279D01*
X-115379500Y150630489D01*
X-115364038Y150618592D01*
X-115362398Y150616943D01*
X-115362391Y150616937D01*
X-115360409Y150614945D01*
X-115152300Y150461234D01*
X-114923336Y150340769D01*
X-114920680Y150339852D01*
X-114920678Y150339851D01*
X-114710577Y150267303D01*
X-114678784Y150256325D01*
X-114676023Y150255821D01*
X-114676020Y150255820D01*
X-114621708Y150245901D01*
X-114424273Y150209843D01*
X-114421911Y150209719D01*
X-114421909Y150209719D01*
X-114342366Y150205550D01*
X-114342352Y150205550D01*
X-114341405Y150205500D01*
X-114180271Y150205500D01*
X-114108777Y150210939D01*
X-113990819Y150219911D01*
X-113990813Y150219912D01*
X-113988025Y150220124D01*
X-113735986Y150278543D01*
X-113709758Y150289007D01*
X-113498292Y150373373D01*
X-113498286Y150373376D01*
X-113495684Y150374414D01*
X-113493265Y150375836D01*
X-113493261Y150375838D01*
X-113275073Y150504104D01*
X-113275069Y150504107D01*
X-113272648Y150505530D01*
X-113139451Y150613969D01*
X-113074190Y150667100D01*
X-113072011Y150668874D01*
X-112898391Y150860687D01*
X-112755781Y151076555D01*
X-112647466Y151311510D01*
X-112646691Y151314206D01*
X-112646687Y151314215D01*
X-112635684Y151352460D01*
X-112605895Y151393385D01*
X-112564569Y151406000D01*
X-105925196Y151406000D01*
X-105877630Y151388687D01*
G37*
G04 #@! TD.AperFunction*
G04 #@! TD*
M02*
