%TF.GenerationSoftware,KiCad,Pcbnew,6.0.2+dfsg-1~bpo11+1*%
%TF.CreationDate,2022-03-16T18:02:24+00:00*%
%TF.ProjectId,TFHT01B,54464854-3031-4422-9e6b-696361645f70,rev?*%
%TF.SameCoordinates,PX78dfd90PY8290510*%
%TF.FileFunction,Legend,Top*%
%TF.FilePolarity,Positive*%
%FSLAX46Y46*%
G04 Gerber Fmt 4.6, Leading zero omitted, Abs format (unit mm)*
G04 Created by KiCad (PCBNEW 6.0.2+dfsg-1~bpo11+1) date 2022-03-16 18:02:24*
%MOMM*%
%LPD*%
G01*
G04 APERTURE LIST*
%ADD10C,0.300000*%
%ADD11C,0.150000*%
%ADD12C,0.120000*%
G04 APERTURE END LIST*
D10*
X-119894658Y146743028D02*
X-119894658Y148243028D01*
X-119323229Y148243028D01*
X-119180372Y148171600D01*
X-119108943Y148100171D01*
X-119037515Y147957314D01*
X-119037515Y147743028D01*
X-119108943Y147600171D01*
X-119180372Y147528742D01*
X-119323229Y147457314D01*
X-119894658Y147457314D01*
X-118537515Y148243028D02*
X-118180372Y146743028D01*
X-117894658Y147814457D01*
X-117608943Y146743028D01*
X-117251800Y148243028D01*
X-115823229Y146743028D02*
X-116323229Y147457314D01*
X-116680372Y146743028D02*
X-116680372Y148243028D01*
X-116108943Y148243028D01*
X-115966086Y148171600D01*
X-115894658Y148100171D01*
X-115823229Y147957314D01*
X-115823229Y147743028D01*
X-115894658Y147600171D01*
X-115966086Y147528742D01*
X-116108943Y147457314D01*
X-116680372Y147457314D01*
X-109787429Y139692857D02*
X-109787429Y140550000D01*
X-108287429Y140121428D02*
X-109787429Y140121428D01*
X-109073143Y141550000D02*
X-109073143Y141050000D01*
X-108287429Y141050000D02*
X-109787429Y141050000D01*
X-109787429Y141764285D01*
X-108287429Y142335714D02*
X-109787429Y142335714D01*
X-109073143Y142335714D02*
X-109073143Y143192857D01*
X-108287429Y143192857D02*
X-109787429Y143192857D01*
X-109787429Y143692857D02*
X-109787429Y144550000D01*
X-108287429Y144121428D02*
X-109787429Y144121428D01*
X-109787429Y145335714D02*
X-109787429Y145478571D01*
X-109716000Y145621428D01*
X-109644572Y145692857D01*
X-109501715Y145764285D01*
X-109216000Y145835714D01*
X-108858858Y145835714D01*
X-108573143Y145764285D01*
X-108430286Y145692857D01*
X-108358858Y145621428D01*
X-108287429Y145478571D01*
X-108287429Y145335714D01*
X-108358858Y145192857D01*
X-108430286Y145121428D01*
X-108573143Y145050000D01*
X-108858858Y144978571D01*
X-109216000Y144978571D01*
X-109501715Y145050000D01*
X-109644572Y145121428D01*
X-109716000Y145192857D01*
X-109787429Y145335714D01*
X-108287429Y147264285D02*
X-108287429Y146407142D01*
X-108287429Y146835714D02*
X-109787429Y146835714D01*
X-109573143Y146692857D01*
X-109430286Y146550000D01*
X-109358858Y146407142D01*
X-109073143Y148407142D02*
X-109001715Y148621428D01*
X-108930286Y148692857D01*
X-108787429Y148764285D01*
X-108573143Y148764285D01*
X-108430286Y148692857D01*
X-108358858Y148621428D01*
X-108287429Y148478571D01*
X-108287429Y147907142D01*
X-109787429Y147907142D01*
X-109787429Y148407142D01*
X-109716000Y148550000D01*
X-109644572Y148621428D01*
X-109501715Y148692857D01*
X-109358858Y148692857D01*
X-109216000Y148621428D01*
X-109144572Y148550000D01*
X-109073143Y148407142D01*
X-109073143Y147907142D01*
X-120372486Y141304200D02*
X-119658200Y141304200D01*
X-120515343Y140875628D02*
X-120015343Y142375628D01*
X-119515343Y140875628D01*
X-118301058Y140875628D02*
X-119015343Y140875628D01*
X-119015343Y142375628D01*
X-117801058Y141661342D02*
X-117301058Y141661342D01*
X-117086772Y140875628D02*
X-117801058Y140875628D01*
X-117801058Y142375628D01*
X-117086772Y142375628D01*
X-115586772Y140875628D02*
X-116086772Y141589914D01*
X-116443915Y140875628D02*
X-116443915Y142375628D01*
X-115872486Y142375628D01*
X-115729629Y142304200D01*
X-115658200Y142232771D01*
X-115586772Y142089914D01*
X-115586772Y141875628D01*
X-115658200Y141732771D01*
X-115729629Y141661342D01*
X-115872486Y141589914D01*
X-116443915Y141589914D01*
X-115158200Y142375628D02*
X-114301058Y142375628D01*
X-114729629Y140875628D02*
X-114729629Y142375628D01*
D11*
%TO.C,J2*%
X-122594620Y138350666D02*
X-121880334Y138350666D01*
X-121737477Y138303047D01*
X-121642239Y138207809D01*
X-121594620Y138064952D01*
X-121594620Y137969714D01*
X-122499381Y138779238D02*
X-122547000Y138826857D01*
X-122594620Y138922095D01*
X-122594620Y139160190D01*
X-122547000Y139255428D01*
X-122499381Y139303047D01*
X-122404143Y139350666D01*
X-122308905Y139350666D01*
X-122166048Y139303047D01*
X-121594620Y138731619D01*
X-121594620Y139350666D01*
%TO.C,G\u002A\u002A\u002A*%
G36*
X-97871599Y147935320D02*
G01*
X-97762815Y147916211D01*
X-97657410Y147897687D01*
X-97557085Y147880047D01*
X-97463540Y147863591D01*
X-97378476Y147848618D01*
X-97303594Y147835428D01*
X-97240594Y147824319D01*
X-97191176Y147815592D01*
X-97157041Y147809546D01*
X-97143852Y147807195D01*
X-97058909Y147791958D01*
X-97058909Y147659890D01*
X-97059015Y147608269D01*
X-97059607Y147572221D01*
X-97061100Y147548952D01*
X-97063911Y147535670D01*
X-97068453Y147529580D01*
X-97075143Y147527891D01*
X-97078531Y147527822D01*
X-97090200Y147529362D01*
X-97118082Y147533789D01*
X-97160514Y147540811D01*
X-97215827Y147550137D01*
X-97282358Y147561474D01*
X-97358439Y147574532D01*
X-97442406Y147589019D01*
X-97532592Y147604643D01*
X-97627332Y147621112D01*
X-97724960Y147638136D01*
X-97823810Y147655423D01*
X-97922216Y147672680D01*
X-98018513Y147689618D01*
X-98111036Y147705943D01*
X-98198117Y147721364D01*
X-98278092Y147735591D01*
X-98349295Y147748331D01*
X-98410059Y147759293D01*
X-98458720Y147768185D01*
X-98493611Y147774715D01*
X-98513067Y147778593D01*
X-98516638Y147779525D01*
X-98517487Y147789223D01*
X-98517886Y147813957D01*
X-98517828Y147850405D01*
X-98517305Y147895243D01*
X-98516953Y147915299D01*
X-98514405Y148048209D01*
X-97871599Y147935320D01*
G37*
G36*
X-100325535Y144325273D02*
G01*
X-100324215Y144414126D01*
X-100322894Y144486837D01*
X-100321440Y144545629D01*
X-100319721Y144592727D01*
X-100317606Y144630353D01*
X-100314961Y144660730D01*
X-100311655Y144686083D01*
X-100307557Y144708635D01*
X-100302533Y144730608D01*
X-100301133Y144736209D01*
X-100264815Y144845723D01*
X-100214510Y144943641D01*
X-100150798Y145029376D01*
X-100074254Y145102339D01*
X-99985458Y145161944D01*
X-99884986Y145207603D01*
X-99817146Y145228633D01*
X-99731823Y145244998D01*
X-99637420Y145253184D01*
X-99540723Y145253119D01*
X-99448522Y145244732D01*
X-99387155Y145233121D01*
X-99279432Y145198367D01*
X-99181825Y145149257D01*
X-99095454Y145086666D01*
X-99021436Y145011474D01*
X-98960891Y144924557D01*
X-98937641Y144880396D01*
X-98922397Y144848062D01*
X-98909801Y144819386D01*
X-98899580Y144792211D01*
X-98891461Y144764379D01*
X-98885171Y144733735D01*
X-98880438Y144698120D01*
X-98876989Y144655380D01*
X-98874551Y144603355D01*
X-98872851Y144539891D01*
X-98871617Y144462830D01*
X-98870577Y144370015D01*
X-98870357Y144348230D01*
X-98866780Y143992392D01*
X-100330184Y143992392D01*
X-100326465Y144258697D01*
X-100080095Y144258697D01*
X-99106704Y144258697D01*
X-99106704Y144428129D01*
X-99107270Y144485979D01*
X-99108840Y144541037D01*
X-99111221Y144589236D01*
X-99114219Y144626510D01*
X-99117037Y144646224D01*
X-99142474Y144724384D01*
X-99183075Y144792705D01*
X-99238042Y144850430D01*
X-99306574Y144896802D01*
X-99387874Y144931063D01*
X-99429725Y144942638D01*
X-99485798Y144951690D01*
X-99552969Y144956119D01*
X-99624582Y144956000D01*
X-99693981Y144951410D01*
X-99754510Y144942422D01*
X-99770255Y144938800D01*
X-99833823Y144919641D01*
X-99885109Y144896734D01*
X-99930188Y144866891D01*
X-99965107Y144836601D01*
X-99999244Y144801101D01*
X-100026175Y144764681D01*
X-100046671Y144724641D01*
X-100061505Y144678287D01*
X-100071449Y144622920D01*
X-100077275Y144555845D01*
X-100079756Y144474364D01*
X-100079986Y144435468D01*
X-100080095Y144258697D01*
X-100326465Y144258697D01*
X-100325535Y144325273D01*
G37*
G36*
X-98498335Y150140651D02*
G01*
X-98486144Y150138354D01*
X-98457310Y150133157D01*
X-98413282Y150125317D01*
X-98355509Y150115089D01*
X-98285440Y150102727D01*
X-98204526Y150088488D01*
X-98114214Y150072627D01*
X-98015955Y150055399D01*
X-97911198Y150037059D01*
X-97801393Y150017862D01*
X-97793544Y150016491D01*
X-97683299Y149997222D01*
X-97577896Y149978777D01*
X-97478798Y149961413D01*
X-97387467Y149945387D01*
X-97305364Y149930957D01*
X-97233953Y149918379D01*
X-97174694Y149907912D01*
X-97129050Y149899812D01*
X-97098484Y149894337D01*
X-97084457Y149891743D01*
X-97084163Y149891683D01*
X-97058909Y149886377D01*
X-97058909Y149753954D01*
X-97059329Y149698821D01*
X-97060703Y149660028D01*
X-97063206Y149635567D01*
X-97067011Y149623430D01*
X-97070388Y149621191D01*
X-97081033Y149622689D01*
X-97108378Y149627132D01*
X-97151036Y149634281D01*
X-97207619Y149643898D01*
X-97276740Y149655744D01*
X-97357012Y149669580D01*
X-97447047Y149685167D01*
X-97545458Y149702267D01*
X-97650856Y149720641D01*
X-97761856Y149740050D01*
X-97800432Y149746809D01*
X-98518996Y149872766D01*
X-98518996Y150145308D01*
X-98498335Y150140651D01*
G37*
G36*
X-98867948Y143478166D02*
G01*
X-99360424Y143149866D01*
X-99852899Y142821567D01*
X-99360424Y142819192D01*
X-98867948Y142816816D01*
X-98867948Y142550671D01*
X-100328035Y142550671D01*
X-100328030Y142681527D01*
X-100328025Y142812384D01*
X-99862935Y143120013D01*
X-99397844Y143427641D01*
X-99863184Y143430021D01*
X-100328525Y143432401D01*
X-100323443Y143703129D01*
X-99595695Y143705480D01*
X-98867948Y143707831D01*
X-98867948Y143478166D01*
G37*
G36*
X-100322708Y146944705D02*
G01*
X-100322308Y147040918D01*
X-100321418Y147120945D01*
X-100319786Y147186966D01*
X-100317158Y147241159D01*
X-100313282Y147285705D01*
X-100307904Y147322782D01*
X-100300772Y147354568D01*
X-100291632Y147383244D01*
X-100280231Y147410988D01*
X-100266316Y147439980D01*
X-100264853Y147442880D01*
X-100218843Y147515581D01*
X-100161839Y147573592D01*
X-100093920Y147616846D01*
X-100021782Y147643573D01*
X-99973929Y147652129D01*
X-99915749Y147656259D01*
X-99853493Y147656091D01*
X-99793413Y147651753D01*
X-99741760Y147643373D01*
X-99720137Y147637403D01*
X-99643043Y147602019D01*
X-99576028Y147551390D01*
X-99519663Y147485983D01*
X-99502113Y147458950D01*
X-99488525Y147436522D01*
X-99479370Y147421709D01*
X-99477535Y147418908D01*
X-99469180Y147422350D01*
X-99446484Y147433600D01*
X-99411252Y147451714D01*
X-99365288Y147475749D01*
X-99310398Y147504760D01*
X-99248386Y147537803D01*
X-99181058Y147573934D01*
X-99179045Y147575018D01*
X-99111294Y147611480D01*
X-99048590Y147645174D01*
X-98992784Y147675111D01*
X-98945724Y147700301D01*
X-98909259Y147719754D01*
X-98885239Y147732480D01*
X-98875513Y147737490D01*
X-98875491Y147737499D01*
X-98872986Y147729875D01*
X-98870833Y147706832D01*
X-98869181Y147671316D01*
X-98868181Y147626271D01*
X-98867948Y147589064D01*
X-98867948Y147437567D01*
X-99131957Y147300715D01*
X-99395967Y147163863D01*
X-99401049Y146894199D01*
X-98867948Y146894199D01*
X-98867948Y146618601D01*
X-99595695Y146620952D01*
X-99627975Y146621056D01*
X-100323443Y146623303D01*
X-100322823Y146894199D01*
X-100100810Y146894199D01*
X-99627975Y146894199D01*
X-99632361Y147043422D01*
X-99635036Y147111027D01*
X-99638741Y147162748D01*
X-99643731Y147201049D01*
X-99650261Y147228396D01*
X-99651985Y147233337D01*
X-99680884Y147290484D01*
X-99719552Y147332460D01*
X-99768888Y147359869D01*
X-99829794Y147373316D01*
X-99863393Y147374988D01*
X-99931726Y147368170D01*
X-99988779Y147347249D01*
X-100034093Y147312509D01*
X-100067209Y147264234D01*
X-100076270Y147243021D01*
X-100083080Y147218047D01*
X-100088369Y147182834D01*
X-100092386Y147134941D01*
X-100095380Y147071923D01*
X-100096167Y147048013D01*
X-100100810Y146894199D01*
X-100322823Y146894199D01*
X-100322708Y146944705D01*
G37*
G36*
X-98867948Y140521242D02*
G01*
X-99492387Y140521242D01*
X-99492387Y139860070D01*
X-98867948Y139860070D01*
X-98867948Y139593765D01*
X-100328035Y139593765D01*
X-100328035Y139860070D01*
X-99749510Y139860070D01*
X-99749510Y140520980D01*
X-100036476Y140523407D01*
X-100323443Y140525833D01*
X-100325984Y140661282D01*
X-100328526Y140796730D01*
X-98867948Y140796730D01*
X-98867948Y140521242D01*
G37*
G36*
X-102093704Y148671458D02*
G01*
X-102079249Y148668943D01*
X-102048182Y148663505D01*
X-102001981Y148655403D01*
X-101942121Y148644897D01*
X-101870080Y148632246D01*
X-101787335Y148617710D01*
X-101695361Y148601547D01*
X-101595636Y148584018D01*
X-101489636Y148565381D01*
X-101378838Y148545896D01*
X-101365706Y148543587D01*
X-100672395Y148421644D01*
X-100669853Y148286953D01*
X-100669175Y148232220D01*
X-100669638Y148193622D01*
X-100671393Y148168951D01*
X-100674591Y148156004D01*
X-100679036Y148152552D01*
X-100689722Y148154155D01*
X-100717103Y148158711D01*
X-100759790Y148165977D01*
X-100816393Y148175713D01*
X-100885521Y148187678D01*
X-100965783Y148201629D01*
X-101055791Y148217327D01*
X-101154153Y148234528D01*
X-101259480Y148252993D01*
X-101370381Y148272479D01*
X-101407030Y148278928D01*
X-102123299Y148405014D01*
X-102128391Y148677388D01*
X-102093704Y148671458D01*
G37*
G36*
X-99104408Y149690871D02*
G01*
X-99086275Y149687327D01*
X-99055499Y149681687D01*
X-99017545Y149674943D01*
X-99001100Y149672076D01*
X-98961031Y149665058D01*
X-98925161Y149658643D01*
X-98899308Y149653875D01*
X-98893201Y149652688D01*
X-98867948Y149647621D01*
X-98867948Y149262667D01*
X-98868058Y149164544D01*
X-98868416Y149083438D01*
X-98869062Y149018003D01*
X-98870035Y148966892D01*
X-98871377Y148928756D01*
X-98873127Y148902250D01*
X-98875325Y148886026D01*
X-98878012Y148878737D01*
X-98879426Y148878013D01*
X-98890073Y148879619D01*
X-98917415Y148884178D01*
X-98960064Y148891450D01*
X-99016630Y148901194D01*
X-99085724Y148913167D01*
X-99165955Y148927128D01*
X-99255936Y148942836D01*
X-99354275Y148960049D01*
X-99459584Y148978526D01*
X-99570473Y148998025D01*
X-99607174Y149004488D01*
X-100323443Y149130663D01*
X-100325984Y149265902D01*
X-100326502Y149313363D01*
X-100326228Y149353543D01*
X-100325240Y149383240D01*
X-100323616Y149399252D01*
X-100322677Y149401141D01*
X-100312233Y149399590D01*
X-100285559Y149395157D01*
X-100244507Y149388165D01*
X-100190931Y149378941D01*
X-100126683Y149367811D01*
X-100053616Y149355100D01*
X-99973584Y149341134D01*
X-99888438Y149326238D01*
X-99800033Y149310739D01*
X-99710221Y149294961D01*
X-99620855Y149279231D01*
X-99533787Y149263874D01*
X-99450872Y149249215D01*
X-99373961Y149235582D01*
X-99304907Y149223298D01*
X-99245565Y149212690D01*
X-99197786Y149204084D01*
X-99163423Y149197805D01*
X-99144329Y149194179D01*
X-99141140Y149193478D01*
X-99136392Y149193078D01*
X-99132681Y149196346D01*
X-99129880Y149205243D01*
X-99127862Y149221729D01*
X-99126500Y149247766D01*
X-99125667Y149285314D01*
X-99125237Y149336334D01*
X-99125083Y149402788D01*
X-99125070Y149442020D01*
X-99125070Y149695344D01*
X-99104408Y149690871D01*
G37*
G36*
X-102111092Y150768415D02*
G01*
X-102084463Y150764004D01*
X-102042488Y150756891D01*
X-101986539Y150747313D01*
X-101917986Y150735505D01*
X-101838201Y150721706D01*
X-101748556Y150706152D01*
X-101650422Y150689080D01*
X-101545171Y150670727D01*
X-101434173Y150651330D01*
X-101390959Y150643767D01*
X-100667803Y150517160D01*
X-100667803Y150244511D01*
X-100693056Y150249793D01*
X-100706000Y150252194D01*
X-100735574Y150257492D01*
X-100780317Y150265431D01*
X-100838767Y150275753D01*
X-100909461Y150288202D01*
X-100990938Y150302520D01*
X-101081735Y150318450D01*
X-101180390Y150335734D01*
X-101285441Y150354116D01*
X-101395427Y150373339D01*
X-101402438Y150374563D01*
X-101512543Y150393808D01*
X-101617702Y150412216D01*
X-101716464Y150429531D01*
X-101807380Y150445498D01*
X-101889000Y150459861D01*
X-101959876Y150472365D01*
X-102018558Y150482755D01*
X-102063597Y150490776D01*
X-102093543Y150496171D01*
X-102106947Y150498686D01*
X-102107228Y150498748D01*
X-102115282Y150501228D01*
X-102120914Y150506319D01*
X-102124556Y150516905D01*
X-102126641Y150535872D01*
X-102127604Y150566108D01*
X-102127877Y150610498D01*
X-102127890Y150636420D01*
X-102127442Y150683514D01*
X-102126209Y150723345D01*
X-102124360Y150752666D01*
X-102122061Y150768231D01*
X-102121003Y150769886D01*
X-102111092Y150768415D01*
G37*
G36*
X-98867948Y145461661D02*
G01*
X-100328035Y145461661D01*
X-100328035Y146398321D01*
X-100061729Y146398321D01*
X-100061729Y145737149D01*
X-99758983Y145737149D01*
X-99756542Y145991976D01*
X-99754101Y146246802D01*
X-99492387Y146251898D01*
X-99492387Y145737149D01*
X-99125070Y145737149D01*
X-99125070Y146416687D01*
X-98867948Y146416687D01*
X-98867948Y145461661D01*
G37*
G36*
X-99820677Y142272952D02*
G01*
X-99711158Y142272237D01*
X-99618378Y142271554D01*
X-99540713Y142270836D01*
X-99476535Y142270015D01*
X-99424219Y142269021D01*
X-99382139Y142267789D01*
X-99348669Y142266248D01*
X-99322183Y142264333D01*
X-99301056Y142261974D01*
X-99283662Y142259103D01*
X-99268373Y142255653D01*
X-99253566Y142251556D01*
X-99244598Y142248869D01*
X-99144588Y142210453D01*
X-99057695Y142160128D01*
X-98984497Y142098437D01*
X-98925570Y142025922D01*
X-98881495Y141943126D01*
X-98862989Y141890695D01*
X-98854728Y141855619D01*
X-98846665Y141809671D01*
X-98839670Y141759394D01*
X-98834608Y141711329D01*
X-98832347Y141672017D01*
X-98832423Y141660167D01*
X-98834134Y141633983D01*
X-98837395Y141597902D01*
X-98841016Y141564053D01*
X-98860899Y141463738D01*
X-98895817Y141372681D01*
X-98945038Y141291961D01*
X-99007830Y141222657D01*
X-99083460Y141165848D01*
X-99127782Y141141524D01*
X-99163077Y141125215D01*
X-99198233Y141111255D01*
X-99234927Y141099481D01*
X-99274835Y141089730D01*
X-99319637Y141081838D01*
X-99371008Y141075643D01*
X-99430627Y141070980D01*
X-99500172Y141067688D01*
X-99581318Y141065603D01*
X-99675745Y141064562D01*
X-99785129Y141064401D01*
X-99911147Y141064958D01*
X-99914802Y141064982D01*
X-100323443Y141067627D01*
X-100325984Y141203075D01*
X-100328526Y141338523D01*
X-99897347Y141338523D01*
X-99793747Y141338747D01*
X-99698211Y141339395D01*
X-99612393Y141340436D01*
X-99537951Y141341837D01*
X-99476540Y141343565D01*
X-99429815Y141345587D01*
X-99399434Y141347872D01*
X-99395100Y141348408D01*
X-99310508Y141365550D01*
X-99241466Y141391804D01*
X-99187095Y141428069D01*
X-99146516Y141475249D01*
X-99118852Y141534245D01*
X-99103221Y141605959D01*
X-99099408Y141651780D01*
X-99101225Y141735530D01*
X-99115268Y141806046D01*
X-99142334Y141864472D01*
X-99183218Y141911950D01*
X-99238715Y141949621D01*
X-99309622Y141978628D01*
X-99331662Y141985164D01*
X-99347447Y141989205D01*
X-99364301Y141992619D01*
X-99383931Y141995474D01*
X-99408040Y141997841D01*
X-99438332Y141999787D01*
X-99476513Y142001383D01*
X-99524287Y142002697D01*
X-99583358Y142003799D01*
X-99655432Y142004756D01*
X-99742212Y142005639D01*
X-99845404Y142006517D01*
X-99862001Y142006649D01*
X-100328035Y142010339D01*
X-100328035Y142276180D01*
X-99820677Y142272952D01*
G37*
G36*
X-101457536Y149601970D02*
G01*
X-101347643Y149582636D01*
X-101241727Y149564012D01*
X-101141379Y149546377D01*
X-101048191Y149530011D01*
X-100963755Y149515191D01*
X-100889662Y149502198D01*
X-100827503Y149491311D01*
X-100778872Y149482809D01*
X-100745359Y149476972D01*
X-100729788Y149474286D01*
X-100667803Y149463762D01*
X-100667803Y149189583D01*
X-100688465Y149194539D01*
X-100700604Y149196880D01*
X-100729409Y149202135D01*
X-100773457Y149210051D01*
X-100831323Y149220378D01*
X-100901583Y149232861D01*
X-100982813Y149247248D01*
X-101073589Y149263287D01*
X-101172486Y149280726D01*
X-101278081Y149299312D01*
X-101388949Y149318791D01*
X-101415649Y149323478D01*
X-101527032Y149343055D01*
X-101633092Y149361760D01*
X-101732450Y149379344D01*
X-101823729Y149395561D01*
X-101905549Y149410164D01*
X-101976532Y149422907D01*
X-102035300Y149433541D01*
X-102080475Y149441822D01*
X-102110677Y149447500D01*
X-102124529Y149450331D01*
X-102125284Y149450571D01*
X-102126222Y149460361D01*
X-102126695Y149485177D01*
X-102126690Y149521684D01*
X-102126193Y149566550D01*
X-102125847Y149586406D01*
X-102123299Y149719128D01*
X-101457536Y149601970D01*
G37*
G36*
X-100287890Y148950587D02*
G01*
X-100251872Y148945415D01*
X-100208226Y148938214D01*
X-100196885Y148936214D01*
X-100151661Y148928224D01*
X-100113021Y148921554D01*
X-100084520Y148916807D01*
X-100069715Y148914585D01*
X-100068617Y148914495D01*
X-100066955Y148905659D01*
X-100065437Y148880618D01*
X-100064114Y148841529D01*
X-100063034Y148790553D01*
X-100062249Y148729849D01*
X-100061808Y148661575D01*
X-100061729Y148616651D01*
X-100061729Y148318856D01*
X-100013519Y148309300D01*
X-99981481Y148303186D01*
X-99939159Y148295424D01*
X-99894375Y148287443D01*
X-99882662Y148285399D01*
X-99843339Y148278479D01*
X-99808946Y148272255D01*
X-99784943Y148267723D01*
X-99779354Y148266580D01*
X-99758693Y148262107D01*
X-99758693Y148491855D01*
X-99758488Y148566153D01*
X-99757820Y148623767D01*
X-99756604Y148666374D01*
X-99754757Y148695654D01*
X-99752193Y148713284D01*
X-99748831Y148720942D01*
X-99747214Y148721589D01*
X-99734570Y148720004D01*
X-99708225Y148715773D01*
X-99672522Y148709671D01*
X-99631804Y148702470D01*
X-99590417Y148694945D01*
X-99552702Y148687868D01*
X-99523004Y148682012D01*
X-99513049Y148679901D01*
X-99492387Y148675339D01*
X-99492387Y148216892D01*
X-99471726Y148212204D01*
X-99457395Y148209443D01*
X-99427568Y148204059D01*
X-99384855Y148196509D01*
X-99331865Y148187252D01*
X-99271208Y148176746D01*
X-99207716Y148165831D01*
X-99140273Y148154230D01*
X-99076282Y148143133D01*
X-99018741Y148133067D01*
X-98970646Y148124558D01*
X-98934994Y148118133D01*
X-98916158Y148114595D01*
X-98867948Y148105045D01*
X-98867948Y147972543D01*
X-98868175Y147920192D01*
X-98869053Y147883526D01*
X-98870881Y147859871D01*
X-98873954Y147846550D01*
X-98878571Y147840885D01*
X-98882656Y147840042D01*
X-98894378Y147841598D01*
X-98922353Y147846071D01*
X-98964909Y147853165D01*
X-99020372Y147862585D01*
X-99087071Y147874036D01*
X-99163332Y147887224D01*
X-99247483Y147901853D01*
X-99337852Y147917628D01*
X-99432765Y147934255D01*
X-99530550Y147951438D01*
X-99629535Y147968882D01*
X-99728047Y147986293D01*
X-99824413Y148003374D01*
X-99916961Y148019833D01*
X-100004018Y148035372D01*
X-100083911Y148049698D01*
X-100154968Y148062515D01*
X-100215516Y148073529D01*
X-100263882Y148082444D01*
X-100298395Y148088965D01*
X-100317381Y148092798D01*
X-100320583Y148093642D01*
X-100321983Y148103360D01*
X-100323256Y148129232D01*
X-100324394Y148169046D01*
X-100325391Y148220591D01*
X-100326241Y148281656D01*
X-100326936Y148350028D01*
X-100327470Y148423497D01*
X-100327838Y148499851D01*
X-100328031Y148576879D01*
X-100328043Y148652368D01*
X-100327868Y148724108D01*
X-100327500Y148789887D01*
X-100326930Y148847493D01*
X-100326154Y148894715D01*
X-100325164Y148929342D01*
X-100323954Y148949162D01*
X-100323150Y148953000D01*
X-100312807Y148953270D01*
X-100287890Y148950587D01*
G37*
G36*
X-100061729Y139033606D02*
G01*
X-98867948Y139033606D01*
X-98867948Y138767301D01*
X-100061729Y138767301D01*
X-100061729Y138354069D01*
X-100328035Y138354069D01*
X-100328035Y139446838D01*
X-100061729Y139446838D01*
X-100061729Y139033606D01*
G37*
G36*
X-99928577Y150640161D02*
G01*
X-99853544Y150582158D01*
X-99782339Y150527308D01*
X-99716383Y150476691D01*
X-99657094Y150431385D01*
X-99605891Y150392473D01*
X-99564193Y150361033D01*
X-99533418Y150338145D01*
X-99514987Y150324889D01*
X-99510753Y150322162D01*
X-99496314Y150317656D01*
X-99466115Y150310599D01*
X-99422513Y150301463D01*
X-99367864Y150290716D01*
X-99304526Y150278826D01*
X-99234854Y150266264D01*
X-99193942Y150259108D01*
X-99122172Y150246636D01*
X-99055757Y150234983D01*
X-98996980Y150224558D01*
X-98948127Y150215771D01*
X-98911481Y150209031D01*
X-98889327Y150204748D01*
X-98884018Y150203551D01*
X-98877683Y150199967D01*
X-98873255Y150191681D01*
X-98870399Y150175857D01*
X-98868785Y150149659D01*
X-98868080Y150110250D01*
X-98867948Y150066285D01*
X-98868319Y150019324D01*
X-98869339Y149979680D01*
X-98870869Y149950590D01*
X-98872770Y149935288D01*
X-98873634Y149933751D01*
X-98883699Y149935284D01*
X-98909748Y149939643D01*
X-98949680Y149946465D01*
X-99001392Y149955387D01*
X-99062782Y149966047D01*
X-99131747Y149978082D01*
X-99193980Y149988987D01*
X-99508640Y150044223D01*
X-99913488Y149874200D01*
X-99994671Y149840149D01*
X-100070629Y149808373D01*
X-100139698Y149779563D01*
X-100200210Y149754409D01*
X-100250501Y149733603D01*
X-100288905Y149717836D01*
X-100313755Y149707798D01*
X-100323387Y149704180D01*
X-100323418Y149704177D01*
X-100325001Y149712839D01*
X-100326060Y149736751D01*
X-100326540Y149772804D01*
X-100326385Y149817889D01*
X-100325972Y149847591D01*
X-100323443Y149991004D01*
X-100036689Y150107009D01*
X-99968710Y150134641D01*
X-99906492Y150160188D01*
X-99852000Y150182820D01*
X-99807202Y150201711D01*
X-99774064Y150216033D01*
X-99754552Y150224960D01*
X-99750041Y150227605D01*
X-99757197Y150233895D01*
X-99777551Y150249865D01*
X-99809509Y150274310D01*
X-99851476Y150306026D01*
X-99901857Y150343808D01*
X-99959057Y150386453D01*
X-100021481Y150432756D01*
X-100035586Y150443188D01*
X-100099142Y150490344D01*
X-100157969Y150534330D01*
X-100210442Y150573906D01*
X-100254937Y150607831D01*
X-100289829Y150634866D01*
X-100313493Y150653769D01*
X-100324305Y150663301D01*
X-100324786Y150663982D01*
X-100325947Y150676222D01*
X-100326615Y150703317D01*
X-100326760Y150741759D01*
X-100326354Y150788043D01*
X-100325995Y150809857D01*
X-100323443Y150945930D01*
X-99928577Y150640161D01*
G37*
G36*
X-98497078Y149087015D02*
G01*
X-98469697Y149082455D01*
X-98427011Y149075183D01*
X-98370409Y149065439D01*
X-98301283Y149053465D01*
X-98221021Y149039503D01*
X-98131015Y149023794D01*
X-98032655Y149006580D01*
X-97927329Y148988102D01*
X-97816430Y148968602D01*
X-97779770Y148962146D01*
X-97063501Y148835971D01*
X-97058409Y148563795D01*
X-97093095Y148569743D01*
X-97107551Y148572260D01*
X-97138618Y148577697D01*
X-97184821Y148585794D01*
X-97244682Y148596294D01*
X-97316725Y148608936D01*
X-97399473Y148623461D01*
X-97491449Y148639610D01*
X-97591176Y148657125D01*
X-97697178Y148675745D01*
X-97807979Y148695211D01*
X-97821093Y148697516D01*
X-98514405Y148819340D01*
X-98516946Y148954130D01*
X-98517624Y149008883D01*
X-98517162Y149047502D01*
X-98515410Y149072191D01*
X-98512216Y149085155D01*
X-98507763Y149088621D01*
X-98497078Y149087015D01*
G37*
D12*
%TO.C,J2*%
X-123686000Y148641000D02*
X-122236000Y148641000D01*
X-126506000Y147371000D02*
X-126506000Y141441000D01*
X-122236000Y148641000D02*
X-122236000Y146841000D01*
X-122236000Y146841000D02*
X-121246000Y146841000D01*
X-122236000Y140171000D02*
X-122236000Y141971000D01*
X-123686000Y140171000D02*
X-122236000Y140171000D01*
%TD*%
M02*
