M48
; DRILL file {KiCad 6.0.4-6f826c9f35~116~ubuntu20.04.1} date Tue Mar 29 18:05:50 2022
; FORMAT={-:-/ absolute / metric / decimal}
; #@! TF.CreationDate,2022-03-29T18:05:50+00:00
; #@! TF.GenerationSoftware,Kicad,Pcbnew,6.0.4-6f826c9f35~116~ubuntu20.04.1
; #@! TF.FileFunction,Plated,1,2,PTH
FMAT,2
METRIC
; #@! TA.AperFunction,Plated,PTH,ViaDrill
T1C0.400
%
G90
G05
T1
X1.016Y8.89
X1.016Y7.747
X1.016Y6.604
X1.143Y12.827
X1.143Y5.461
X1.143Y2.286
X1.651Y9.779
X2.159Y12.827
X2.286Y2.286
X2.794Y9.398
X2.85Y6.875
X3.175Y12.827
X3.429Y2.286
X3.937Y12.065
X4.064Y10.668
X4.191Y4.318
X4.191Y3.175
X5.08Y10.668
X6.35Y9.398
X6.35Y6.858
X6.771Y7.95
X9.046Y11.125
X9.121Y5.875
X13.025Y4.725
X14.096Y10.875
X15.494Y8.128
X15.85Y5.5
X17.78Y6.858
X18.034Y3.6
X25.146Y3.094
X25.2Y5.371
X26.95Y9.875
X27.225Y5.0
T0
M30
