%TF.GenerationSoftware,KiCad,Pcbnew,6.0.2+dfsg-1~bpo11+1*%
%TF.CreationDate,2022-03-16T17:29:41+00:00*%
%TF.ProjectId,TFHT01B,54464854-3031-4422-9e6b-696361645f70,rev?*%
%TF.SameCoordinates,PX78dfd90PY8290510*%
%TF.FileFunction,Copper,L2,Bot*%
%TF.FilePolarity,Positive*%
%FSLAX46Y46*%
G04 Gerber Fmt 4.6, Leading zero omitted, Abs format (unit mm)*
G04 Created by KiCad (PCBNEW 6.0.2+dfsg-1~bpo11+1) date 2022-03-16 17:29:41*
%MOMM*%
%LPD*%
G01*
G04 APERTURE LIST*
G04 Aperture macros list*
%AMRoundRect*
0 Rectangle with rounded corners*
0 $1 Rounding radius*
0 $2 $3 $4 $5 $6 $7 $8 $9 X,Y pos of 4 corners*
0 Add a 4 corners polygon primitive as box body*
4,1,4,$2,$3,$4,$5,$6,$7,$8,$9,$2,$3,0*
0 Add four circle primitives for the rounded corners*
1,1,$1+$1,$2,$3*
1,1,$1+$1,$4,$5*
1,1,$1+$1,$6,$7*
1,1,$1+$1,$8,$9*
0 Add four rect primitives between the rounded corners*
20,1,$1+$1,$2,$3,$4,$5,0*
20,1,$1+$1,$4,$5,$6,$7,0*
20,1,$1+$1,$6,$7,$8,$9,0*
20,1,$1+$1,$8,$9,$2,$3,0*%
%AMFreePoly0*
4,1,22,0.550000,-0.750000,0.000000,-0.750000,0.000000,-0.745033,-0.079941,-0.743568,-0.215256,-0.701293,-0.333266,-0.622738,-0.424486,-0.514219,-0.481581,-0.384460,-0.499164,-0.250000,-0.500000,-0.250000,-0.500000,0.250000,-0.499164,0.250000,-0.499963,0.256109,-0.478152,0.396186,-0.417904,0.524511,-0.324060,0.630769,-0.204165,0.706417,-0.067858,0.745374,0.000000,0.744959,0.000000,0.750000,
0.550000,0.750000,0.550000,-0.750000,0.550000,-0.750000,$1*%
%AMFreePoly1*
4,1,20,0.000000,0.744959,0.073905,0.744508,0.209726,0.703889,0.328688,0.626782,0.421226,0.519385,0.479903,0.390333,0.500000,0.250000,0.500000,-0.250000,0.499851,-0.262216,0.476331,-0.402017,0.414519,-0.529596,0.319384,-0.634700,0.198574,-0.708877,0.061801,-0.746166,0.000000,-0.745033,0.000000,-0.750000,-0.550000,-0.750000,-0.550000,0.750000,0.000000,0.750000,0.000000,0.744959,
0.000000,0.744959,$1*%
%AMFreePoly2*
4,1,6,0.500000,-0.850000,-0.200000,-0.850000,-0.500000,-0.550000,-0.500000,0.850000,0.500000,0.850000,0.500000,-0.850000,0.500000,-0.850000,$1*%
G04 Aperture macros list end*
%TA.AperFunction,SMDPad,CuDef*%
%ADD10FreePoly0,180.000000*%
%TD*%
%TA.AperFunction,SMDPad,CuDef*%
%ADD11R,1.000000X1.500000*%
%TD*%
%TA.AperFunction,SMDPad,CuDef*%
%ADD12FreePoly1,180.000000*%
%TD*%
%TA.AperFunction,SMDPad,CuDef*%
%ADD13R,0.950000X1.500000*%
%TD*%
%TA.AperFunction,SMDPad,CuDef*%
%ADD14RoundRect,0.218750X0.256250X-0.218750X0.256250X0.218750X-0.256250X0.218750X-0.256250X-0.218750X0*%
%TD*%
%TA.AperFunction,SMDPad,CuDef*%
%ADD15R,0.700000X0.600000*%
%TD*%
%TA.AperFunction,SMDPad,CuDef*%
%ADD16RoundRect,0.150000X0.700000X-0.150000X0.700000X0.150000X-0.700000X0.150000X-0.700000X-0.150000X0*%
%TD*%
%TA.AperFunction,SMDPad,CuDef*%
%ADD17RoundRect,0.250000X1.100000X-0.250000X1.100000X0.250000X-1.100000X0.250000X-1.100000X-0.250000X0*%
%TD*%
%TA.AperFunction,SMDPad,CuDef*%
%ADD18RoundRect,0.218750X0.218750X0.256250X-0.218750X0.256250X-0.218750X-0.256250X0.218750X-0.256250X0*%
%TD*%
%TA.AperFunction,SMDPad,CuDef*%
%ADD19R,0.250000X0.550000*%
%TD*%
%TA.AperFunction,SMDPad,CuDef*%
%ADD20FreePoly2,90.000000*%
%TD*%
%TA.AperFunction,SMDPad,CuDef*%
%ADD21RoundRect,0.218750X-0.218750X-0.256250X0.218750X-0.256250X0.218750X0.256250X-0.218750X0.256250X0*%
%TD*%
%TA.AperFunction,SMDPad,CuDef*%
%ADD22R,0.900000X0.800000*%
%TD*%
%TA.AperFunction,SMDPad,CuDef*%
%ADD23R,1.397000X0.889000*%
%TD*%
%TA.AperFunction,SMDPad,CuDef*%
%ADD24R,0.650000X1.060000*%
%TD*%
%TA.AperFunction,SMDPad,CuDef*%
%ADD25RoundRect,0.218750X-0.256250X0.218750X-0.256250X-0.218750X0.256250X-0.218750X0.256250X0.218750X0*%
%TD*%
%TA.AperFunction,ViaPad*%
%ADD26C,0.800000*%
%TD*%
%TA.AperFunction,Conductor*%
%ADD27C,0.400000*%
%TD*%
%TA.AperFunction,Conductor*%
%ADD28C,0.300000*%
%TD*%
%TA.AperFunction,Conductor*%
%ADD29C,0.250000*%
%TD*%
G04 APERTURE END LIST*
%TO.C,JP1*%
G36*
X-107812000Y138638000D02*
G01*
X-108312000Y138638000D01*
X-108312000Y139238000D01*
X-107812000Y139238000D01*
X-107812000Y138638000D01*
G37*
%TD*%
D10*
%TO.P,JP1,1,A*%
%TO.N,GND*%
X-107412000Y138938000D03*
D11*
%TO.P,JP1,2,C*%
%TO.N,Net-(JP1-Pad2)*%
X-108712000Y138938000D03*
D12*
%TO.P,JP1,3,B*%
%TO.N,+3V3*%
X-110012000Y138938000D03*
%TD*%
D13*
%TO.P,D2,1,K*%
%TO.N,GND*%
X-120321000Y149906000D03*
%TO.P,D2,2,A*%
%TO.N,Net-(D2-Pad2)*%
X-116171000Y149906000D03*
%TD*%
D14*
%TO.P,C4,1*%
%TO.N,+5V*%
X-114935000Y141478000D03*
%TO.P,C4,2*%
%TO.N,GND*%
X-114935000Y143053000D03*
%TD*%
D15*
%TO.P,D1,1,K*%
%TO.N,+5V*%
X-119380000Y146301000D03*
%TO.P,D1,2,A*%
%TO.N,GND*%
X-119380000Y147701000D03*
%TD*%
D13*
%TO.P,D3,1,K*%
%TO.N,Net-(D3-Pad1)*%
X-120321000Y138906000D03*
%TO.P,D3,2,A*%
%TO.N,+5V*%
X-116171000Y138906000D03*
%TD*%
D16*
%TO.P,J1,1*%
%TO.N,+5V*%
X-122096000Y142531000D03*
%TO.P,J1,2*%
%TO.N,/SCL*%
X-122096000Y143781000D03*
%TO.P,J1,3*%
%TO.N,/SDA*%
X-122096000Y145031000D03*
%TO.P,J1,4*%
%TO.N,GND*%
X-122096000Y146281000D03*
D17*
%TO.P,J1,MP*%
X-125296000Y140681000D03*
X-125296000Y148131000D03*
%TD*%
D18*
%TO.P,R2,1*%
%TO.N,/ALERT*%
X-107569000Y142240000D03*
%TO.P,R2,2*%
%TO.N,Net-(Q1-Pad1)*%
X-109144000Y142240000D03*
%TD*%
D19*
%TO.P,U1,1,SDA*%
%TO.N,/SDA*%
X-99196000Y143231000D03*
%TO.P,U1,2,ADDR*%
%TO.N,Net-(JP1-Pad2)*%
X-99696000Y143231000D03*
%TO.P,U1,3,ALERT*%
%TO.N,/ALERT*%
X-100196000Y143231000D03*
%TO.P,U1,4,SCL*%
%TO.N,/SCL*%
X-100696000Y143231000D03*
%TO.P,U1,5,VDD*%
%TO.N,+3V3*%
X-100696000Y145581000D03*
%TO.P,U1,6,nRESET*%
%TO.N,unconnected-(U1-Pad6)*%
X-100196000Y145581000D03*
%TO.P,U1,7,GND*%
%TO.N,GND*%
X-99696000Y145581000D03*
%TO.P,U1,8,GND*%
X-99196000Y145581000D03*
D20*
%TO.P,U1,9,GND*%
X-99946000Y144406000D03*
%TD*%
D21*
%TO.P,C5,1*%
%TO.N,+3V3*%
X-100737500Y148500000D03*
%TO.P,C5,2*%
%TO.N,GND*%
X-99162500Y148500000D03*
%TD*%
%TO.P,R4,1*%
%TO.N,Net-(D3-Pad1)*%
X-114224000Y139573000D03*
%TO.P,R4,2*%
%TO.N,Net-(Q1-Pad3)*%
X-112649000Y139573000D03*
%TD*%
D14*
%TO.P,C1,1*%
%TO.N,+3V3*%
X-115443000Y145618000D03*
%TO.P,C1,2*%
%TO.N,GND*%
X-115443000Y147193000D03*
%TD*%
D22*
%TO.P,Q1,1,B*%
%TO.N,Net-(Q1-Pad1)*%
X-110887000Y143571000D03*
%TO.P,Q1,2,E*%
%TO.N,GND*%
X-110887000Y141671000D03*
%TO.P,Q1,3,C*%
%TO.N,Net-(Q1-Pad3)*%
X-112887000Y142621000D03*
%TD*%
D23*
%TO.P,C3,1*%
%TO.N,+5V*%
X-117221000Y145796000D03*
%TO.P,C3,2*%
%TO.N,GND*%
X-117221000Y147701000D03*
%TD*%
D24*
%TO.P,U3,1,VIN*%
%TO.N,+5V*%
X-116779000Y141902000D03*
%TO.P,U3,2,GND*%
%TO.N,GND*%
X-117729000Y141902000D03*
%TO.P,U3,3,EN*%
%TO.N,+5V*%
X-118679000Y141902000D03*
%TO.P,U3,4,NC*%
%TO.N,unconnected-(U3-Pad4)*%
X-118679000Y144102000D03*
%TO.P,U3,5,VOUT*%
%TO.N,+3V3*%
X-116779000Y144102000D03*
%TD*%
D25*
%TO.P,R3,1*%
%TO.N,+3V3*%
X-108966000Y147980500D03*
%TO.P,R3,2*%
%TO.N,/SCL*%
X-108966000Y146405500D03*
%TD*%
%TO.P,R10,1*%
%TO.N,+3V3*%
X-111252000Y147955000D03*
%TO.P,R10,2*%
%TO.N,/SDA*%
X-111252000Y146380000D03*
%TD*%
D14*
%TO.P,R1,1*%
%TO.N,+5V*%
X-113411000Y146431000D03*
%TO.P,R1,2*%
%TO.N,Net-(D2-Pad2)*%
X-113411000Y148006000D03*
%TD*%
D26*
%TO.N,GND*%
X-122555000Y141224000D03*
X-125603000Y149733000D03*
X-107315000Y150876000D03*
X-113792000Y141351000D03*
X-107442000Y146431000D03*
X-106426000Y149606000D03*
X-109728000Y149606000D03*
X-110490000Y140462000D03*
X-122809000Y148971000D03*
X-124587000Y149733000D03*
X-123571000Y149733000D03*
X-107823000Y149606000D03*
X-125603000Y142367000D03*
X-125603000Y139192000D03*
X-111379000Y138176000D03*
X-111633000Y149606000D03*
X-111633000Y150876000D03*
X-125095000Y146685000D03*
X-108712000Y150876000D03*
X-123317000Y139192000D03*
X-110109000Y150876000D03*
X-122555000Y140081000D03*
X-125730000Y145796000D03*
X-124460000Y139192000D03*
X-105156000Y149606000D03*
X-121666000Y147574000D03*
X-110109000Y146431000D03*
X-125730000Y144653000D03*
X-105029000Y146431000D03*
X-99250000Y147050000D03*
X-105283000Y139192000D03*
X-106172000Y146431000D03*
X-125730000Y143510000D03*
X-122682000Y147574000D03*
%TO.N,Net-(D3-Pad1)*%
X-120269000Y140208000D03*
X-115062000Y140208000D03*
%TO.N,+5V*%
X-123952000Y146304000D03*
X-120396000Y146304000D03*
%TO.N,/SDA*%
X-124079000Y143764000D03*
X-119634000Y145034000D03*
X-111252000Y145034000D03*
X-98550000Y141150000D03*
%TO.N,/SCL*%
X-120396000Y143764000D03*
X-108966000Y143764000D03*
%TO.N,Net-(JP1-Pad2)*%
X-101600000Y140000000D03*
X-108712000Y140589000D03*
%TD*%
D27*
%TO.N,GND*%
X-99250000Y147050000D02*
X-99250000Y146400000D01*
X-116713000Y147193000D02*
X-117221000Y147701000D01*
D28*
X-107823000Y149606000D02*
X-109728000Y149606000D01*
X-99696000Y145606000D02*
X-99696000Y146646000D01*
X-107061000Y148844000D02*
X-107823000Y149606000D01*
X-99162500Y148500000D02*
X-99157500Y148500000D01*
X-105156000Y149606000D02*
X-106426000Y149606000D01*
D27*
X-119380000Y147701000D02*
X-117221000Y147701000D01*
D28*
X-106299000Y148844000D02*
X-107061000Y148844000D01*
D27*
X-99300000Y147050000D02*
X-99250000Y147050000D01*
X-115443000Y147193000D02*
X-116713000Y147193000D01*
X-122119000Y146304000D02*
X-122096000Y146281000D01*
X-99137500Y148500000D02*
X-99162500Y148500000D01*
D28*
X-109728000Y149606000D02*
X-111633000Y149606000D01*
D27*
X-99250000Y147050000D02*
X-99250000Y148412500D01*
D28*
X-99196000Y145606000D02*
X-99196000Y146346000D01*
X-99700000Y144656000D02*
X-99950000Y144406000D01*
D27*
X-99250000Y148412500D02*
X-99162500Y148500000D01*
D29*
X-99696000Y146646000D02*
X-99700000Y146650000D01*
D28*
X-99700000Y145606000D02*
X-99700000Y144656000D01*
D29*
X-99196000Y146346000D02*
X-99250000Y146400000D01*
D27*
X-99050000Y148412500D02*
X-99137500Y148500000D01*
X-99700000Y146650000D02*
X-99300000Y147050000D01*
D28*
X-106426000Y149606000D02*
X-107823000Y149606000D01*
X-106172000Y148971000D02*
X-106299000Y148844000D01*
X-99157500Y148500000D02*
X-99060000Y148402500D01*
D27*
%TO.N,Net-(D2-Pad2)*%
X-116171000Y149906000D02*
X-115311000Y149906000D01*
X-115311000Y149906000D02*
X-113411000Y148006000D01*
%TO.N,Net-(D3-Pad1)*%
X-114224000Y139573000D02*
X-114427000Y139573000D01*
X-120269000Y140208000D02*
X-120269000Y138958000D01*
X-114427000Y139573000D02*
X-115062000Y140208000D01*
X-120269000Y138958000D02*
X-120321000Y138906000D01*
D28*
%TO.N,+3V3*%
X-100696000Y145606000D02*
X-100696000Y146446000D01*
D27*
X-102100000Y148000000D02*
X-101600000Y148500000D01*
X-108991500Y147955000D02*
X-108966000Y147980500D01*
X-112827980Y145593980D02*
X-112268000Y146153960D01*
X-111506000Y140335000D02*
X-111506000Y139446000D01*
D29*
X-100696000Y146446000D02*
X-100700000Y146450000D01*
D27*
X-107797700Y147980500D02*
X-107238800Y147421600D01*
X-101600000Y148500000D02*
X-100737500Y148500000D01*
X-112827980Y144450980D02*
X-112037489Y143660489D01*
X-112037489Y140866489D02*
X-111506000Y140335000D01*
X-111252000Y147955000D02*
X-108991500Y147955000D01*
X-100737500Y148500000D02*
X-100737500Y146487500D01*
X-115443000Y145618000D02*
X-115418980Y145593980D01*
X-112268000Y146153960D02*
X-112268000Y146939000D01*
X-116779000Y144102000D02*
X-116779000Y144282000D01*
X-112827980Y145593980D02*
X-112827980Y144450980D01*
X-112268000Y146939000D02*
X-111252000Y147955000D01*
X-107238800Y147421600D02*
X-103328400Y147421600D01*
X-110998000Y138938000D02*
X-110012000Y138938000D01*
X-103328400Y147421600D02*
X-102100000Y148000000D01*
X-112037489Y143660489D02*
X-112037489Y140866489D01*
X-108966000Y147980500D02*
X-107797700Y147980500D01*
X-100737500Y146487500D02*
X-100700000Y146450000D01*
X-115418980Y145593980D02*
X-112827980Y145593980D01*
X-111506000Y139446000D02*
X-110998000Y138938000D01*
X-116779000Y144282000D02*
X-115443000Y145618000D01*
%TO.N,+5V*%
X-119380000Y146301000D02*
X-117726000Y146301000D01*
X-124878511Y145377489D02*
X-123952000Y146304000D01*
D28*
X-117221000Y145796000D02*
X-116967000Y145796000D01*
D27*
X-119383000Y146304000D02*
X-119380000Y146301000D01*
D28*
X-113411000Y146431000D02*
X-113436020Y146405980D01*
D27*
X-117035000Y140716000D02*
X-116459000Y140716000D01*
X-118679000Y141902000D02*
X-118679000Y141031000D01*
X-117035000Y140716000D02*
X-116779000Y140972000D01*
X-118364000Y140716000D02*
X-117035000Y140716000D01*
X-122096000Y142531000D02*
X-120560000Y142531000D01*
D28*
X-113436020Y146405980D02*
X-116357020Y146405980D01*
D27*
X-116078000Y140716000D02*
X-115697000Y140716000D01*
X-120560000Y142531000D02*
X-119931000Y141902000D01*
X-118679000Y141031000D02*
X-118364000Y140716000D01*
X-117726000Y146301000D02*
X-117221000Y145796000D01*
X-116459000Y140716000D02*
X-116078000Y140716000D01*
X-122096000Y142531000D02*
X-123989000Y142531000D01*
X-120396000Y146304000D02*
X-119383000Y146304000D01*
X-116779000Y141163000D02*
X-116779000Y141036000D01*
D28*
X-116967000Y145796000D02*
X-116357020Y146405980D01*
D27*
X-116171000Y140623000D02*
X-116078000Y140716000D01*
X-123989000Y142531000D02*
X-124878511Y143420511D01*
X-116779000Y140972000D02*
X-116779000Y141163000D01*
X-116779000Y141036000D02*
X-116459000Y140716000D01*
X-116171000Y138906000D02*
X-116171000Y140623000D01*
X-116779000Y141163000D02*
X-116779000Y141902000D01*
X-114935000Y141478000D02*
X-115697000Y140716000D01*
X-119931000Y141902000D02*
X-118679000Y141902000D01*
X-124878511Y143420511D02*
X-124878511Y145377489D01*
D28*
%TO.N,/SDA*%
X-98550000Y141150000D02*
X-98550000Y141750000D01*
X-98550000Y141750000D02*
X-99196000Y142396000D01*
D27*
X-123701000Y145031000D02*
X-122096000Y145031000D01*
D28*
X-99196000Y142396000D02*
X-99196000Y143206000D01*
D27*
X-124079000Y144653000D02*
X-123701000Y145031000D01*
X-111252000Y146380000D02*
X-111252000Y145034000D01*
X-119637000Y145031000D02*
X-122096000Y145031000D01*
X-119634000Y145034000D02*
X-119637000Y145031000D01*
X-124079000Y143764000D02*
X-124079000Y144653000D01*
%TO.N,/SCL*%
X-120396000Y143764000D02*
X-120413000Y143781000D01*
D28*
X-102175000Y142725000D02*
X-101750000Y142300000D01*
X-100696000Y142704000D02*
X-100696000Y143206000D01*
X-103433800Y142066200D02*
X-102775000Y142725000D01*
D27*
X-108966000Y146405500D02*
X-108966000Y143764000D01*
D28*
X-106781600Y143764000D02*
X-105083800Y142066200D01*
D27*
X-120413000Y143781000D02*
X-122096000Y143781000D01*
D28*
X-101750000Y142300000D02*
X-101100000Y142300000D01*
X-108966000Y143764000D02*
X-106781600Y143764000D01*
X-102775000Y142725000D02*
X-102175000Y142725000D01*
X-105083800Y142066200D02*
X-103433800Y142066200D01*
X-101100000Y142300000D02*
X-100696000Y142704000D01*
D27*
%TO.N,Net-(Q1-Pad1)*%
X-110805000Y143571000D02*
X-110172500Y142938500D01*
X-109144000Y142240000D02*
X-109144000Y142291000D01*
X-109791500Y142938500D02*
X-110172500Y142938500D01*
X-110887000Y143571000D02*
X-110805000Y143571000D01*
X-109144000Y142291000D02*
X-109791500Y142938500D01*
D28*
%TO.N,Net-(JP1-Pad2)*%
X-99696000Y140825000D02*
X-99696000Y142492351D01*
X-99696978Y142493329D02*
X-99696978Y142605022D01*
X-108712000Y138938000D02*
X-108712000Y140589000D01*
X-99696978Y142605022D02*
X-99696000Y142606000D01*
X-100521000Y140000000D02*
X-99696000Y140825000D01*
X-99696000Y142606000D02*
X-99696000Y143206000D01*
X-101600000Y140000000D02*
X-100521000Y140000000D01*
X-99696000Y142492351D02*
X-99696978Y142493329D01*
D27*
%TO.N,Net-(Q1-Pad3)*%
X-112887000Y142621000D02*
X-112887000Y139811000D01*
X-112887000Y139811000D02*
X-112649000Y139573000D01*
D28*
%TO.N,/ALERT*%
X-107569000Y142240000D02*
X-106502200Y141173200D01*
X-106502200Y141173200D02*
X-102773200Y141173200D01*
X-100199022Y142494562D02*
X-100196489Y142497096D01*
X-100196489Y142816342D02*
X-100196000Y142816831D01*
D27*
X-107569000Y142113000D02*
X-107569000Y142240000D01*
D28*
X-102773200Y141173200D02*
X-102450000Y140850000D01*
X-101335213Y140850000D02*
X-100199022Y141986191D01*
X-100196489Y142497096D02*
X-100196489Y142816342D01*
X-102450000Y140850000D02*
X-101335213Y140850000D01*
X-100196000Y142816831D02*
X-100196000Y143206000D01*
X-100199022Y141986191D02*
X-100199022Y142494562D01*
%TD*%
%TA.AperFunction,Conductor*%
%TO.N,GND*%
G36*
X-107946679Y147562687D02*
G01*
X-107941919Y147558326D01*
X-107499709Y147116116D01*
X-107499705Y147116113D01*
X-107477142Y147093550D01*
X-107471954Y147090906D01*
X-107471953Y147090906D01*
X-107453898Y147081706D01*
X-107443998Y147075639D01*
X-107427604Y147063728D01*
X-107427599Y147063726D01*
X-107422890Y147060304D01*
X-107417352Y147058505D01*
X-107417351Y147058504D01*
X-107398078Y147052242D01*
X-107387350Y147047798D01*
X-107378914Y147043500D01*
X-107364104Y147035954D01*
X-107348344Y147033458D01*
X-107338337Y147031873D01*
X-107327046Y147029162D01*
X-107307774Y147022900D01*
X-107307771Y147022900D01*
X-107302233Y147021100D01*
X-104595000Y147021100D01*
X-104547434Y147003787D01*
X-104522124Y146959950D01*
X-104521000Y146947100D01*
X-104521000Y145995463D01*
X-104525288Y145970640D01*
X-104526177Y145968142D01*
X-104530281Y145956618D01*
X-104551545Y145778291D01*
X-104551113Y145774181D01*
X-104551113Y145774179D01*
X-104545242Y145718323D01*
X-104532773Y145599684D01*
X-104531442Y145595775D01*
X-104531441Y145595769D01*
X-104524948Y145576697D01*
X-104521000Y145552850D01*
X-104521000Y143262130D01*
X-104525288Y143237307D01*
X-104525603Y143236421D01*
X-104530281Y143223285D01*
X-104551545Y143044958D01*
X-104551113Y143040848D01*
X-104551113Y143040846D01*
X-104533205Y142870460D01*
X-104532773Y142866351D01*
X-104531442Y142862442D01*
X-104531441Y142862436D01*
X-104524948Y142843364D01*
X-104521000Y142819517D01*
X-104521000Y142490700D01*
X-104538313Y142443134D01*
X-104582150Y142417824D01*
X-104595000Y142416700D01*
X-104907966Y142416700D01*
X-104955532Y142434013D01*
X-104960292Y142438374D01*
X-106501734Y143979816D01*
X-106511575Y143992002D01*
X-106515455Y143998011D01*
X-106515457Y143998013D01*
X-106518775Y144003152D01*
X-106545086Y144023894D01*
X-106551599Y144029681D01*
X-106554346Y144032428D01*
X-106556824Y144034199D01*
X-106556829Y144034203D01*
X-106569680Y144043386D01*
X-106572443Y144045460D01*
X-106610411Y144075392D01*
X-106616180Y144077418D01*
X-106617217Y144077988D01*
X-106617920Y144078430D01*
X-106618460Y144078711D01*
X-106619217Y144079028D01*
X-106620293Y144079555D01*
X-106625269Y144083111D01*
X-106671577Y144096960D01*
X-106674893Y144098037D01*
X-106682226Y144100612D01*
X-106720506Y144114055D01*
X-106725644Y144114500D01*
X-106726981Y144114500D01*
X-106731512Y144114884D01*
X-106737064Y144116544D01*
X-106743174Y144116304D01*
X-106743175Y144116304D01*
X-106787637Y144114557D01*
X-106790542Y144114500D01*
X-108441542Y144114500D01*
X-108489108Y144131813D01*
X-108500250Y144143452D01*
X-108512845Y144159867D01*
X-108537718Y144192282D01*
X-108541566Y144195234D01*
X-108543828Y144197497D01*
X-108565219Y144243374D01*
X-108565500Y144249821D01*
X-108565500Y145744367D01*
X-108548187Y145791933D01*
X-108525096Y145810301D01*
X-108524291Y145810711D01*
X-108460249Y145843342D01*
X-108366342Y145937249D01*
X-108363698Y145942439D01*
X-108363696Y145942441D01*
X-108308695Y146050387D01*
X-108306049Y146055580D01*
X-108305138Y146061332D01*
X-108305137Y146061335D01*
X-108290955Y146150881D01*
X-108290500Y146153754D01*
X-108290500Y146657246D01*
X-108295268Y146687351D01*
X-108305137Y146749665D01*
X-108305138Y146749668D01*
X-108306049Y146755420D01*
X-108324858Y146792335D01*
X-108363696Y146868559D01*
X-108363698Y146868561D01*
X-108366342Y146873751D01*
X-108460249Y146967658D01*
X-108465439Y146970302D01*
X-108465441Y146970304D01*
X-108573387Y147025305D01*
X-108578580Y147027951D01*
X-108584332Y147028862D01*
X-108584335Y147028863D01*
X-108673881Y147043045D01*
X-108676754Y147043500D01*
X-109255246Y147043500D01*
X-109258119Y147043045D01*
X-109347665Y147028863D01*
X-109347668Y147028862D01*
X-109353420Y147027951D01*
X-109358613Y147025305D01*
X-109466559Y146970304D01*
X-109466561Y146970302D01*
X-109471751Y146967658D01*
X-109565658Y146873751D01*
X-109568302Y146868561D01*
X-109568304Y146868559D01*
X-109607142Y146792335D01*
X-109625951Y146755420D01*
X-109626862Y146749668D01*
X-109626863Y146749665D01*
X-109636732Y146687351D01*
X-109641500Y146657246D01*
X-109641500Y146153754D01*
X-109641045Y146150881D01*
X-109626863Y146061335D01*
X-109626862Y146061332D01*
X-109625951Y146055580D01*
X-109623305Y146050387D01*
X-109568304Y145942441D01*
X-109568302Y145942439D01*
X-109565658Y145937249D01*
X-109471751Y145843342D01*
X-109407709Y145810711D01*
X-109406904Y145810301D01*
X-109372383Y145773281D01*
X-109366500Y145744367D01*
X-109366500Y144249821D01*
X-109383813Y144202255D01*
X-109388172Y144197497D01*
X-109390434Y144195234D01*
X-109394282Y144192282D01*
X-109410773Y144170790D01*
X-109487584Y144070689D01*
X-109487586Y144070685D01*
X-109490536Y144066841D01*
X-109551044Y143920762D01*
X-109551676Y143915960D01*
X-109551677Y143915957D01*
X-109563667Y143824880D01*
X-109571682Y143764000D01*
X-109571049Y143759192D01*
X-109558464Y143663602D01*
X-109551044Y143607238D01*
X-109490536Y143461159D01*
X-109487586Y143457315D01*
X-109487584Y143457311D01*
X-109411978Y143358780D01*
X-109394282Y143335718D01*
X-109390431Y143332763D01*
X-109272689Y143242416D01*
X-109272685Y143242414D01*
X-109268841Y143239464D01*
X-109122762Y143178956D01*
X-109117960Y143178324D01*
X-109117957Y143178323D01*
X-108970808Y143158951D01*
X-108966000Y143158318D01*
X-108961192Y143158951D01*
X-108814043Y143178323D01*
X-108814040Y143178324D01*
X-108809238Y143178956D01*
X-108663159Y143239464D01*
X-108659315Y143242414D01*
X-108659311Y143242416D01*
X-108541569Y143332763D01*
X-108537718Y143335718D01*
X-108500249Y143384549D01*
X-108457559Y143411746D01*
X-108441542Y143413500D01*
X-106957434Y143413500D01*
X-106909868Y143396187D01*
X-106905108Y143391826D01*
X-105363668Y141850387D01*
X-105353827Y141838201D01*
X-105349945Y141832189D01*
X-105346625Y141827048D01*
X-105341823Y141823262D01*
X-105341819Y141823258D01*
X-105320305Y141806298D01*
X-105313792Y141800511D01*
X-105311053Y141797772D01*
X-105308573Y141796000D01*
X-105308571Y141795998D01*
X-105295732Y141786823D01*
X-105292970Y141784750D01*
X-105254989Y141754808D01*
X-105249219Y141752782D01*
X-105248183Y141752212D01*
X-105247480Y141751770D01*
X-105246940Y141751489D01*
X-105246183Y141751172D01*
X-105245107Y141750645D01*
X-105240131Y141747089D01*
X-105234269Y141745336D01*
X-105193823Y141733240D01*
X-105190507Y141732163D01*
X-105183624Y141729746D01*
X-105144894Y141716145D01*
X-105139756Y141715700D01*
X-105138419Y141715700D01*
X-105133888Y141715316D01*
X-105128336Y141713656D01*
X-105122226Y141713896D01*
X-105122225Y141713896D01*
X-105077763Y141715643D01*
X-105074858Y141715700D01*
X-104595000Y141715700D01*
X-104547434Y141698387D01*
X-104522124Y141654550D01*
X-104521000Y141641700D01*
X-104521000Y141597700D01*
X-104538313Y141550134D01*
X-104582150Y141524824D01*
X-104595000Y141523700D01*
X-106326366Y141523700D01*
X-106373932Y141541013D01*
X-106378692Y141545374D01*
X-106909326Y142076008D01*
X-106930718Y142121884D01*
X-106931000Y142128334D01*
X-106931000Y142529246D01*
X-106937034Y142567342D01*
X-106945637Y142621665D01*
X-106945638Y142621668D01*
X-106946549Y142627420D01*
X-106977747Y142688650D01*
X-107004196Y142740559D01*
X-107004198Y142740561D01*
X-107006842Y142745751D01*
X-107100749Y142839658D01*
X-107105939Y142842302D01*
X-107105941Y142842304D01*
X-107213887Y142897305D01*
X-107219080Y142899951D01*
X-107224832Y142900862D01*
X-107224835Y142900863D01*
X-107314381Y142915045D01*
X-107317254Y142915500D01*
X-107820746Y142915500D01*
X-107823619Y142915045D01*
X-107913165Y142900863D01*
X-107913168Y142900862D01*
X-107918920Y142899951D01*
X-107924113Y142897305D01*
X-108032059Y142842304D01*
X-108032061Y142842302D01*
X-108037251Y142839658D01*
X-108131158Y142745751D01*
X-108133802Y142740561D01*
X-108133804Y142740559D01*
X-108160253Y142688650D01*
X-108191451Y142627420D01*
X-108192362Y142621668D01*
X-108192363Y142621665D01*
X-108200966Y142567342D01*
X-108207000Y142529246D01*
X-108207000Y141950754D01*
X-108206545Y141947881D01*
X-108192363Y141858335D01*
X-108192362Y141858332D01*
X-108191451Y141852580D01*
X-108188805Y141847387D01*
X-108133804Y141739441D01*
X-108133802Y141739439D01*
X-108131158Y141734249D01*
X-108037251Y141640342D01*
X-108032061Y141637698D01*
X-108032059Y141637696D01*
X-107998119Y141620403D01*
X-107918920Y141580049D01*
X-107913168Y141579138D01*
X-107913165Y141579137D01*
X-107823619Y141564955D01*
X-107820746Y141564500D01*
X-107419834Y141564500D01*
X-107372268Y141547187D01*
X-107367508Y141542826D01*
X-106782066Y140957384D01*
X-106772225Y140945198D01*
X-106768345Y140939189D01*
X-106768343Y140939187D01*
X-106765025Y140934048D01*
X-106760220Y140930260D01*
X-106738714Y140913306D01*
X-106732201Y140907519D01*
X-106729454Y140904772D01*
X-106726976Y140903001D01*
X-106726971Y140902997D01*
X-106714120Y140893814D01*
X-106711357Y140891740D01*
X-106673389Y140861808D01*
X-106667620Y140859782D01*
X-106666583Y140859212D01*
X-106665880Y140858770D01*
X-106665340Y140858489D01*
X-106664583Y140858172D01*
X-106663507Y140857645D01*
X-106658531Y140854089D01*
X-106652669Y140852336D01*
X-106612223Y140840240D01*
X-106608907Y140839163D01*
X-106563294Y140823145D01*
X-106558156Y140822700D01*
X-106556819Y140822700D01*
X-106552288Y140822316D01*
X-106546736Y140820656D01*
X-106540626Y140820896D01*
X-106540625Y140820896D01*
X-106496163Y140822643D01*
X-106493258Y140822700D01*
X-104595000Y140822700D01*
X-104547434Y140805387D01*
X-104522124Y140761550D01*
X-104521000Y140748700D01*
X-104521000Y138646744D01*
X-104538313Y138599178D01*
X-104578291Y138574655D01*
X-104660159Y138555679D01*
X-104756015Y138533461D01*
X-104758622Y138532421D01*
X-104758628Y138532419D01*
X-104993710Y138438631D01*
X-104993716Y138438628D01*
X-104996318Y138437590D01*
X-104998737Y138436168D01*
X-104998741Y138436166D01*
X-105216929Y138307899D01*
X-105216933Y138307896D01*
X-105219354Y138306473D01*
X-105419991Y138143129D01*
X-105593613Y137951315D01*
X-105595163Y137948969D01*
X-105595166Y137948965D01*
X-105676778Y137825428D01*
X-105736222Y137735447D01*
X-105737400Y137732892D01*
X-105737401Y137732890D01*
X-105810128Y137575133D01*
X-105844538Y137500491D01*
X-105845314Y137497794D01*
X-105845318Y137497783D01*
X-105856320Y137459541D01*
X-105886108Y137418615D01*
X-105927435Y137406000D01*
X-112566800Y137406000D01*
X-112614366Y137423313D01*
X-112636873Y137456213D01*
X-112676338Y137572473D01*
X-112676338Y137572474D01*
X-112677241Y137575133D01*
X-112690296Y137600265D01*
X-112795212Y137802236D01*
X-112795212Y137802237D01*
X-112796505Y137804725D01*
X-112810191Y137823460D01*
X-112947468Y138011368D01*
X-112947469Y138011369D01*
X-112949125Y138013636D01*
X-113044756Y138109769D01*
X-113129607Y138195066D01*
X-113129610Y138195068D01*
X-113131589Y138197058D01*
X-113281655Y138307899D01*
X-113337434Y138349098D01*
X-113337436Y138349099D01*
X-113339698Y138350770D01*
X-113455252Y138411566D01*
X-113566170Y138469923D01*
X-113566177Y138469926D01*
X-113568663Y138471234D01*
X-113793047Y138548715D01*
X-113810556Y138554761D01*
X-113810558Y138554762D01*
X-113813215Y138555679D01*
X-113815976Y138556183D01*
X-113815979Y138556184D01*
X-113972097Y138584696D01*
X-114067726Y138602161D01*
X-114070088Y138602285D01*
X-114070090Y138602285D01*
X-114149558Y138606450D01*
X-114149572Y138606450D01*
X-114150519Y138606500D01*
X-114311782Y138606500D01*
X-114383247Y138601064D01*
X-114501182Y138592093D01*
X-114501188Y138592092D01*
X-114503976Y138591880D01*
X-114756015Y138533461D01*
X-114758622Y138532421D01*
X-114758628Y138532419D01*
X-114993710Y138438631D01*
X-114993716Y138438628D01*
X-114996318Y138437590D01*
X-114998737Y138436168D01*
X-114998741Y138436166D01*
X-115216929Y138307899D01*
X-115216933Y138307896D01*
X-115219354Y138306473D01*
X-115374781Y138179936D01*
X-115422598Y138163331D01*
X-115469902Y138181348D01*
X-115494558Y138225555D01*
X-115495500Y138237323D01*
X-115495500Y139633665D01*
X-115478187Y139681231D01*
X-115434350Y139706541D01*
X-115384500Y139697751D01*
X-115376453Y139692374D01*
X-115364841Y139683464D01*
X-115218762Y139622956D01*
X-115213960Y139622324D01*
X-115213957Y139622323D01*
X-115085988Y139605476D01*
X-115062000Y139602318D01*
X-115057192Y139602951D01*
X-115053996Y139602951D01*
X-115006430Y139585638D01*
X-115001670Y139581277D01*
X-114883674Y139463281D01*
X-114862282Y139417405D01*
X-114862000Y139410955D01*
X-114862000Y139283754D01*
X-114861545Y139280881D01*
X-114847363Y139191335D01*
X-114847362Y139191332D01*
X-114846451Y139185580D01*
X-114843805Y139180387D01*
X-114788804Y139072441D01*
X-114788802Y139072439D01*
X-114786158Y139067249D01*
X-114692251Y138973342D01*
X-114687061Y138970698D01*
X-114687059Y138970696D01*
X-114582903Y138917626D01*
X-114573920Y138913049D01*
X-114568168Y138912138D01*
X-114568165Y138912137D01*
X-114478619Y138897955D01*
X-114475746Y138897500D01*
X-113972254Y138897500D01*
X-113969381Y138897955D01*
X-113879835Y138912137D01*
X-113879832Y138912138D01*
X-113874080Y138913049D01*
X-113865097Y138917626D01*
X-113760941Y138970696D01*
X-113760939Y138970698D01*
X-113755749Y138973342D01*
X-113661842Y139067249D01*
X-113659198Y139072439D01*
X-113659196Y139072441D01*
X-113604195Y139180387D01*
X-113601549Y139185580D01*
X-113600638Y139191332D01*
X-113600637Y139191335D01*
X-113586455Y139280881D01*
X-113586000Y139283754D01*
X-113586000Y139862246D01*
X-113586925Y139868089D01*
X-113600637Y139954665D01*
X-113600638Y139954668D01*
X-113601549Y139960420D01*
X-113624560Y140005582D01*
X-113659196Y140073559D01*
X-113659198Y140073561D01*
X-113661842Y140078751D01*
X-113755749Y140172658D01*
X-113760939Y140175302D01*
X-113760941Y140175304D01*
X-113868887Y140230305D01*
X-113874080Y140232951D01*
X-113879832Y140233862D01*
X-113879835Y140233863D01*
X-113969381Y140248045D01*
X-113972254Y140248500D01*
X-114396754Y140248500D01*
X-114444320Y140265813D01*
X-114470121Y140312842D01*
X-114476323Y140359956D01*
X-114476324Y140359958D01*
X-114476956Y140364762D01*
X-114537464Y140510841D01*
X-114540414Y140514685D01*
X-114540416Y140514689D01*
X-114630763Y140632431D01*
X-114633718Y140636282D01*
X-114726260Y140707292D01*
X-114753458Y140749983D01*
X-114746851Y140800169D01*
X-114709531Y140834367D01*
X-114681212Y140840000D01*
X-114645754Y140840000D01*
X-114642881Y140840455D01*
X-114553335Y140854637D01*
X-114553332Y140854638D01*
X-114547580Y140855549D01*
X-114494784Y140882450D01*
X-114434441Y140913196D01*
X-114434439Y140913198D01*
X-114429249Y140915842D01*
X-114335342Y141009749D01*
X-114332698Y141014939D01*
X-114332696Y141014941D01*
X-114277695Y141122887D01*
X-114275049Y141128080D01*
X-114274138Y141133832D01*
X-114274137Y141133835D01*
X-114259955Y141223381D01*
X-114259500Y141226254D01*
X-114259500Y141729746D01*
X-114260213Y141734249D01*
X-114274137Y141822165D01*
X-114274138Y141822168D01*
X-114275049Y141827920D01*
X-114326069Y141928052D01*
X-114332696Y141941059D01*
X-114332698Y141941061D01*
X-114335342Y141946251D01*
X-114427974Y142038883D01*
X-114449366Y142084759D01*
X-114436265Y142133654D01*
X-114399067Y142161405D01*
X-114372447Y142170286D01*
X-114364708Y142173911D01*
X-114227912Y142258563D01*
X-114221222Y142263865D01*
X-114107567Y142377718D01*
X-114102275Y142384419D01*
X-114017865Y142521358D01*
X-114014252Y142529107D01*
X-113963528Y142682036D01*
X-113961845Y142689887D01*
X-113952192Y142784091D01*
X-113952085Y142786186D01*
X-113955638Y142795948D01*
X-113960925Y142799000D01*
X-115904952Y142799000D01*
X-115914948Y142795362D01*
X-115918000Y142790075D01*
X-115918000Y142787876D01*
X-115917803Y142784072D01*
X-115907902Y142688650D01*
X-115906201Y142680776D01*
X-115855214Y142527947D01*
X-115851589Y142520208D01*
X-115766937Y142383412D01*
X-115761635Y142376722D01*
X-115647782Y142263067D01*
X-115641081Y142257775D01*
X-115504142Y142173365D01*
X-115496395Y142169753D01*
X-115471129Y142161372D01*
X-115431432Y142129964D01*
X-115421211Y142080388D01*
X-115442100Y142038809D01*
X-115534658Y141946251D01*
X-115537302Y141941061D01*
X-115537304Y141941059D01*
X-115543931Y141928052D01*
X-115594951Y141827920D01*
X-115595862Y141822168D01*
X-115595863Y141822165D01*
X-115609787Y141734249D01*
X-115610500Y141729746D01*
X-115610500Y141399545D01*
X-115627813Y141351979D01*
X-115632174Y141347219D01*
X-115841219Y141138174D01*
X-115887095Y141116782D01*
X-115893545Y141116500D01*
X-116245137Y141116500D01*
X-116292703Y141133813D01*
X-116318013Y141177650D01*
X-116306665Y141231613D01*
X-116269184Y141287706D01*
X-116269184Y141287707D01*
X-116265133Y141293769D01*
X-116253500Y141352252D01*
X-116253500Y142451748D01*
X-116265133Y142510231D01*
X-116269205Y142516326D01*
X-116305398Y142570491D01*
X-116309448Y142576552D01*
X-116315509Y142580602D01*
X-116369706Y142616816D01*
X-116369707Y142616816D01*
X-116375769Y142620867D01*
X-116420295Y142629724D01*
X-116430682Y142631790D01*
X-116430683Y142631790D01*
X-116434252Y142632500D01*
X-116885666Y142632500D01*
X-116933232Y142649813D01*
X-116950574Y142670962D01*
X-116956992Y142682683D01*
X-117037931Y142790681D01*
X-117045319Y142798069D01*
X-117153317Y142879009D01*
X-117162475Y142884023D01*
X-117289447Y142931623D01*
X-117298407Y142933753D01*
X-117353911Y142939783D01*
X-117357921Y142940000D01*
X-117461952Y142940000D01*
X-117471948Y142936362D01*
X-117475000Y142931075D01*
X-117475000Y141722000D01*
X-117492313Y141674434D01*
X-117536150Y141649124D01*
X-117549000Y141648000D01*
X-117909000Y141648000D01*
X-117956566Y141665313D01*
X-117981876Y141709150D01*
X-117983000Y141722000D01*
X-117983000Y142926951D01*
X-117986638Y142936947D01*
X-117991925Y142939999D01*
X-118100077Y142939999D01*
X-118104091Y142939781D01*
X-118159594Y142933753D01*
X-118168550Y142931624D01*
X-118295525Y142884023D01*
X-118304683Y142879009D01*
X-118412681Y142798069D01*
X-118420069Y142790681D01*
X-118501008Y142682683D01*
X-118507426Y142670962D01*
X-118545455Y142637554D01*
X-118572334Y142632500D01*
X-119023748Y142632500D01*
X-119027317Y142631790D01*
X-119027318Y142631790D01*
X-119037705Y142629724D01*
X-119082231Y142620867D01*
X-119088293Y142616816D01*
X-119088294Y142616816D01*
X-119142491Y142580602D01*
X-119148552Y142576552D01*
X-119152602Y142570491D01*
X-119188794Y142516326D01*
X-119192867Y142510231D01*
X-119204500Y142451748D01*
X-119204500Y142376500D01*
X-119221813Y142328934D01*
X-119265650Y142303624D01*
X-119278500Y142302500D01*
X-119734456Y142302500D01*
X-119782022Y142319813D01*
X-119786782Y142324174D01*
X-120032682Y142570075D01*
X-120299091Y142836484D01*
X-120299095Y142836487D01*
X-120321658Y142859050D01*
X-120326847Y142861694D01*
X-120344902Y142870894D01*
X-120354802Y142876961D01*
X-120371196Y142888872D01*
X-120371201Y142888874D01*
X-120375910Y142892296D01*
X-120381448Y142894095D01*
X-120381449Y142894096D01*
X-120400722Y142900358D01*
X-120411450Y142904802D01*
X-120429503Y142914000D01*
X-120434696Y142916646D01*
X-120450456Y142919142D01*
X-120460463Y142920727D01*
X-120471754Y142923438D01*
X-120491026Y142929700D01*
X-120491029Y142929700D01*
X-120496567Y142931500D01*
X-121120175Y142931500D01*
X-121167741Y142948813D01*
X-121172455Y142953128D01*
X-121185321Y142965972D01*
X-121185322Y142965973D01*
X-121189650Y142970293D01*
X-121213872Y142982133D01*
X-121289318Y143019012D01*
X-121289319Y143019012D01*
X-121294482Y143021536D01*
X-121362782Y143031500D01*
X-122829218Y143031500D01*
X-122831901Y143031105D01*
X-122892423Y143022196D01*
X-122892426Y143022195D01*
X-122898112Y143021358D01*
X-122903272Y143018825D01*
X-122903274Y143018824D01*
X-122949117Y142996316D01*
X-123002855Y142969932D01*
X-123007179Y142965600D01*
X-123007181Y142965599D01*
X-123019539Y142953220D01*
X-123065396Y142931787D01*
X-123071910Y142931500D01*
X-123792455Y142931500D01*
X-123840021Y142948813D01*
X-123844781Y142953174D01*
X-123949104Y143057497D01*
X-123970496Y143103373D01*
X-123957395Y143152268D01*
X-123921573Y143177350D01*
X-123922238Y143178956D01*
X-123901954Y143187358D01*
X-123776159Y143239464D01*
X-123772315Y143242414D01*
X-123772311Y143242416D01*
X-123654569Y143332763D01*
X-123650718Y143335718D01*
X-123633022Y143358780D01*
X-123557416Y143457311D01*
X-123557414Y143457315D01*
X-123554464Y143461159D01*
X-123497873Y143597782D01*
X-123146500Y143597782D01*
X-123146105Y143595099D01*
X-123137196Y143534577D01*
X-123137195Y143534574D01*
X-123136358Y143528888D01*
X-123133825Y143523728D01*
X-123133824Y143523726D01*
X-123119522Y143494597D01*
X-123084932Y143424145D01*
X-123080603Y143419824D01*
X-123080602Y143419822D01*
X-123006679Y143346028D01*
X-123002350Y143341707D01*
X-122996853Y143339020D01*
X-122903066Y143293176D01*
X-122897518Y143290464D01*
X-122829218Y143280500D01*
X-121362782Y143280500D01*
X-121356637Y143281405D01*
X-121299577Y143289804D01*
X-121299574Y143289805D01*
X-121293888Y143290642D01*
X-121288728Y143293175D01*
X-121288726Y143293176D01*
X-121242392Y143315925D01*
X-121189145Y143342068D01*
X-121184821Y143346400D01*
X-121184819Y143346401D01*
X-121172461Y143358780D01*
X-121126604Y143380213D01*
X-121120090Y143380500D01*
X-120895137Y143380500D01*
X-120847571Y143363187D01*
X-120836431Y143351551D01*
X-120824282Y143335718D01*
X-120820431Y143332763D01*
X-120702689Y143242416D01*
X-120702685Y143242414D01*
X-120698841Y143239464D01*
X-120552762Y143178956D01*
X-120547960Y143178324D01*
X-120547957Y143178323D01*
X-120400808Y143158951D01*
X-120396000Y143158318D01*
X-120391192Y143158951D01*
X-120244043Y143178323D01*
X-120244040Y143178324D01*
X-120239238Y143178956D01*
X-120093159Y143239464D01*
X-120089315Y143242414D01*
X-120089311Y143242416D01*
X-119988444Y143319814D01*
X-115917915Y143319814D01*
X-115914362Y143310052D01*
X-115909075Y143307000D01*
X-115202048Y143307000D01*
X-115192052Y143310638D01*
X-115189000Y143315925D01*
X-115189000Y143320048D01*
X-114681000Y143320048D01*
X-114677362Y143310052D01*
X-114672075Y143307000D01*
X-113965048Y143307000D01*
X-113955052Y143310638D01*
X-113952000Y143315925D01*
X-113952000Y143318124D01*
X-113952197Y143321928D01*
X-113962098Y143417350D01*
X-113963799Y143425224D01*
X-114014786Y143578053D01*
X-114018411Y143585792D01*
X-114103063Y143722588D01*
X-114108365Y143729278D01*
X-114222218Y143842933D01*
X-114228919Y143848225D01*
X-114365858Y143932635D01*
X-114373607Y143936248D01*
X-114526536Y143986972D01*
X-114534387Y143988655D01*
X-114628591Y143998308D01*
X-114632359Y143998500D01*
X-114667952Y143998500D01*
X-114677948Y143994862D01*
X-114681000Y143989575D01*
X-114681000Y143320048D01*
X-115189000Y143320048D01*
X-115189000Y143985452D01*
X-115192638Y143995448D01*
X-115197925Y143998500D01*
X-115237624Y143998500D01*
X-115241428Y143998303D01*
X-115336850Y143988402D01*
X-115344724Y143986701D01*
X-115497553Y143935714D01*
X-115505292Y143932089D01*
X-115642088Y143847437D01*
X-115648778Y143842135D01*
X-115762433Y143728282D01*
X-115767725Y143721581D01*
X-115852135Y143584642D01*
X-115855748Y143576893D01*
X-115906472Y143423964D01*
X-115908155Y143416113D01*
X-115917808Y143321909D01*
X-115917915Y143319814D01*
X-119988444Y143319814D01*
X-119971569Y143332763D01*
X-119967718Y143335718D01*
X-119950022Y143358780D01*
X-119874416Y143457311D01*
X-119874414Y143457315D01*
X-119871464Y143461159D01*
X-119810956Y143607238D01*
X-119803535Y143663602D01*
X-119790951Y143759192D01*
X-119790318Y143764000D01*
X-119798333Y143824880D01*
X-119810323Y143915957D01*
X-119810324Y143915960D01*
X-119810956Y143920762D01*
X-119871464Y144066841D01*
X-119874414Y144070685D01*
X-119874416Y144070689D01*
X-119964763Y144188431D01*
X-119964764Y144188432D01*
X-119967718Y144192282D01*
X-119988882Y144208522D01*
X-120089311Y144285584D01*
X-120089315Y144285586D01*
X-120093159Y144288536D01*
X-120239238Y144349044D01*
X-120244040Y144349676D01*
X-120244043Y144349677D01*
X-120391192Y144369049D01*
X-120396000Y144369682D01*
X-120400808Y144369049D01*
X-120547957Y144349677D01*
X-120547960Y144349676D01*
X-120552762Y144349044D01*
X-120698841Y144288536D01*
X-120817485Y144197497D01*
X-120818404Y144196792D01*
X-120863452Y144181500D01*
X-121120175Y144181500D01*
X-121167741Y144198813D01*
X-121172455Y144203128D01*
X-121185321Y144215972D01*
X-121185322Y144215973D01*
X-121189650Y144220293D01*
X-121232231Y144241107D01*
X-121289318Y144269012D01*
X-121289319Y144269012D01*
X-121294482Y144271536D01*
X-121362782Y144281500D01*
X-122829218Y144281500D01*
X-122831901Y144281105D01*
X-122892423Y144272196D01*
X-122892426Y144272195D01*
X-122898112Y144271358D01*
X-122903272Y144268825D01*
X-122903274Y144268824D01*
X-122941978Y144249821D01*
X-123002855Y144219932D01*
X-123007176Y144215603D01*
X-123007178Y144215602D01*
X-123079202Y144143452D01*
X-123085293Y144137350D01*
X-123087980Y144131853D01*
X-123130732Y144044391D01*
X-123136536Y144032518D01*
X-123146500Y143964218D01*
X-123146500Y143597782D01*
X-123497873Y143597782D01*
X-123493956Y143607238D01*
X-123486535Y143663602D01*
X-123473951Y143759192D01*
X-123473318Y143764000D01*
X-123481333Y143824880D01*
X-123493323Y143915957D01*
X-123493324Y143915960D01*
X-123493956Y143920762D01*
X-123554464Y144066841D01*
X-123557414Y144070685D01*
X-123557416Y144070689D01*
X-123634227Y144170790D01*
X-123650718Y144192282D01*
X-123654566Y144195234D01*
X-123656828Y144197497D01*
X-123678219Y144243374D01*
X-123678500Y144249821D01*
X-123678500Y144456455D01*
X-123661187Y144504021D01*
X-123656826Y144508781D01*
X-123556781Y144608826D01*
X-123510905Y144630218D01*
X-123504455Y144630500D01*
X-123071825Y144630500D01*
X-123024259Y144613187D01*
X-123019545Y144608872D01*
X-123007052Y144596401D01*
X-123002350Y144591707D01*
X-122996853Y144589020D01*
X-122903066Y144543176D01*
X-122897518Y144540464D01*
X-122829218Y144530500D01*
X-121362782Y144530500D01*
X-121356637Y144531405D01*
X-121299577Y144539804D01*
X-121299574Y144539805D01*
X-121293888Y144540642D01*
X-121288728Y144543175D01*
X-121288726Y144543176D01*
X-121242883Y144565684D01*
X-121189145Y144592068D01*
X-121184821Y144596400D01*
X-121184819Y144596401D01*
X-121172461Y144608780D01*
X-121126604Y144630213D01*
X-121120090Y144630500D01*
X-120116820Y144630500D01*
X-120069254Y144613187D01*
X-120065076Y144609359D01*
X-120062282Y144605718D01*
X-120058431Y144602763D01*
X-119940689Y144512416D01*
X-119940685Y144512414D01*
X-119936841Y144509464D01*
X-119790762Y144448956D01*
X-119785960Y144448324D01*
X-119785957Y144448323D01*
X-119638808Y144428951D01*
X-119634000Y144428318D01*
X-119629192Y144428951D01*
X-119482043Y144448323D01*
X-119482040Y144448324D01*
X-119477238Y144448956D01*
X-119331159Y144509464D01*
X-119323546Y144515306D01*
X-119275271Y144530526D01*
X-119228506Y144511154D01*
X-119205133Y144466254D01*
X-119204500Y144456596D01*
X-119204500Y143552252D01*
X-119192867Y143493769D01*
X-119188816Y143487707D01*
X-119188816Y143487706D01*
X-119168506Y143457311D01*
X-119148552Y143427448D01*
X-119142491Y143423398D01*
X-119101767Y143396187D01*
X-119082231Y143383133D01*
X-119037705Y143374276D01*
X-119027318Y143372210D01*
X-119027317Y143372210D01*
X-119023748Y143371500D01*
X-118334252Y143371500D01*
X-118330683Y143372210D01*
X-118330682Y143372210D01*
X-118320295Y143374276D01*
X-118275769Y143383133D01*
X-118256232Y143396187D01*
X-118215509Y143423398D01*
X-118209448Y143427448D01*
X-118189494Y143457311D01*
X-118169184Y143487706D01*
X-118169184Y143487707D01*
X-118165133Y143493769D01*
X-118153500Y143552252D01*
X-118153500Y144651748D01*
X-118165133Y144710231D01*
X-118176545Y144727311D01*
X-118205398Y144770491D01*
X-118209448Y144776552D01*
X-118275769Y144820867D01*
X-118320295Y144829724D01*
X-118330682Y144831790D01*
X-118330683Y144831790D01*
X-118334252Y144832500D01*
X-118970465Y144832500D01*
X-119018031Y144849813D01*
X-119043341Y144893650D01*
X-119043832Y144916159D01*
X-119028951Y145029192D01*
X-119028318Y145034000D01*
X-119035671Y145089850D01*
X-119048323Y145185957D01*
X-119048324Y145185960D01*
X-119048956Y145190762D01*
X-119109464Y145336841D01*
X-119112414Y145340685D01*
X-119112416Y145340689D01*
X-119202763Y145458431D01*
X-119202764Y145458432D01*
X-119205718Y145462282D01*
X-119238215Y145487218D01*
X-119327311Y145555584D01*
X-119327315Y145555586D01*
X-119331159Y145558536D01*
X-119477238Y145619044D01*
X-119482040Y145619676D01*
X-119482043Y145619677D01*
X-119629192Y145639049D01*
X-119634000Y145639682D01*
X-119638808Y145639049D01*
X-119785957Y145619677D01*
X-119785960Y145619676D01*
X-119790762Y145619044D01*
X-119936841Y145558536D01*
X-119940685Y145555586D01*
X-119940689Y145555584D01*
X-120022706Y145492650D01*
X-120062282Y145462282D01*
X-120065235Y145458434D01*
X-120068666Y145455003D01*
X-120070056Y145456393D01*
X-120106379Y145433254D01*
X-120122395Y145431500D01*
X-121015665Y145431500D01*
X-121063231Y145448813D01*
X-121088541Y145492650D01*
X-121079751Y145542500D01*
X-121053334Y145569195D01*
X-120993511Y145604574D01*
X-120986209Y145610238D01*
X-120875238Y145721209D01*
X-120869572Y145728514D01*
X-120838056Y145781806D01*
X-120798942Y145813936D01*
X-120748326Y145813407D01*
X-120729313Y145802846D01*
X-120698841Y145779464D01*
X-120552762Y145718956D01*
X-120547960Y145718324D01*
X-120547957Y145718323D01*
X-120400808Y145698951D01*
X-120396000Y145698318D01*
X-120391192Y145698951D01*
X-120244043Y145718323D01*
X-120244040Y145718324D01*
X-120239238Y145718956D01*
X-120093159Y145779464D01*
X-120089315Y145782414D01*
X-120089311Y145782416D01*
X-119976253Y145869168D01*
X-119927977Y145884390D01*
X-119878879Y145862786D01*
X-119878602Y145862509D01*
X-119874552Y145856448D01*
X-119868491Y145852398D01*
X-119822939Y145821961D01*
X-119808231Y145812133D01*
X-119763705Y145803276D01*
X-119753318Y145801210D01*
X-119753317Y145801210D01*
X-119749748Y145800500D01*
X-119010252Y145800500D01*
X-119006683Y145801210D01*
X-119006682Y145801210D01*
X-118996295Y145803276D01*
X-118951769Y145812133D01*
X-118937060Y145821961D01*
X-118891509Y145852398D01*
X-118885448Y145856448D01*
X-118879099Y145865949D01*
X-118877989Y145867611D01*
X-118837168Y145897543D01*
X-118816460Y145900500D01*
X-118194000Y145900500D01*
X-118146434Y145883187D01*
X-118121124Y145839350D01*
X-118120000Y145826500D01*
X-118120000Y145331752D01*
X-118108367Y145273269D01*
X-118064052Y145206948D01*
X-118057991Y145202898D01*
X-118032637Y145185957D01*
X-117997731Y145162633D01*
X-117953205Y145153776D01*
X-117942818Y145151710D01*
X-117942817Y145151710D01*
X-117939248Y145151000D01*
X-116655044Y145151000D01*
X-116607478Y145133687D01*
X-116582168Y145089850D01*
X-116590958Y145040000D01*
X-116602717Y145024676D01*
X-116773219Y144854174D01*
X-116819096Y144832782D01*
X-116825545Y144832500D01*
X-117123748Y144832500D01*
X-117127317Y144831790D01*
X-117127318Y144831790D01*
X-117137705Y144829724D01*
X-117182231Y144820867D01*
X-117248552Y144776552D01*
X-117252602Y144770491D01*
X-117281454Y144727311D01*
X-117292867Y144710231D01*
X-117304500Y144651748D01*
X-117304500Y143552252D01*
X-117292867Y143493769D01*
X-117288816Y143487707D01*
X-117288816Y143487706D01*
X-117268506Y143457311D01*
X-117248552Y143427448D01*
X-117242491Y143423398D01*
X-117201767Y143396187D01*
X-117182231Y143383133D01*
X-117137705Y143374276D01*
X-117127318Y143372210D01*
X-117127317Y143372210D01*
X-117123748Y143371500D01*
X-116434252Y143371500D01*
X-116430683Y143372210D01*
X-116430682Y143372210D01*
X-116420295Y143374276D01*
X-116375769Y143383133D01*
X-116356232Y143396187D01*
X-116315509Y143423398D01*
X-116309448Y143427448D01*
X-116289494Y143457311D01*
X-116269184Y143487706D01*
X-116269184Y143487707D01*
X-116265133Y143493769D01*
X-116253500Y143552252D01*
X-116253500Y144210455D01*
X-116236187Y144258021D01*
X-116231826Y144262781D01*
X-115536282Y144958326D01*
X-115490406Y144979718D01*
X-115483956Y144980000D01*
X-115153754Y144980000D01*
X-115150881Y144980455D01*
X-115061335Y144994637D01*
X-115061332Y144994638D01*
X-115055580Y144995549D01*
X-114989552Y145029192D01*
X-114942441Y145053196D01*
X-114942439Y145053198D01*
X-114937249Y145055842D01*
X-114843342Y145149749D01*
X-114840699Y145154935D01*
X-114837274Y145159650D01*
X-114835770Y145158557D01*
X-114804621Y145187600D01*
X-114775712Y145193480D01*
X-113302480Y145193480D01*
X-113254914Y145176167D01*
X-113229604Y145132330D01*
X-113228480Y145119480D01*
X-113228480Y144387547D01*
X-113226680Y144382009D01*
X-113226680Y144382006D01*
X-113220418Y144362734D01*
X-113217707Y144351443D01*
X-113213626Y144325676D01*
X-113210980Y144320483D01*
X-113201782Y144302430D01*
X-113197338Y144291702D01*
X-113193897Y144281113D01*
X-113189276Y144266890D01*
X-113185854Y144262181D01*
X-113185852Y144262176D01*
X-113173941Y144245782D01*
X-113167874Y144235882D01*
X-113158674Y144217827D01*
X-113156030Y144212638D01*
X-113133467Y144190075D01*
X-113133464Y144190071D01*
X-112786325Y143842933D01*
X-112459663Y143516271D01*
X-112438271Y143470395D01*
X-112437989Y143463945D01*
X-112437989Y143295500D01*
X-112455302Y143247934D01*
X-112499139Y143222624D01*
X-112511989Y143221500D01*
X-113356748Y143221500D01*
X-113360317Y143220790D01*
X-113360318Y143220790D01*
X-113368452Y143219172D01*
X-113415231Y143209867D01*
X-113421293Y143205816D01*
X-113421294Y143205816D01*
X-113475491Y143169602D01*
X-113481552Y143165552D01*
X-113525867Y143099231D01*
X-113537500Y143040748D01*
X-113537500Y142201252D01*
X-113525867Y142142769D01*
X-113521816Y142136707D01*
X-113521816Y142136706D01*
X-113487105Y142084759D01*
X-113481552Y142076448D01*
X-113475491Y142072398D01*
X-113425222Y142038809D01*
X-113415231Y142032133D01*
X-113370705Y142023276D01*
X-113360318Y142021210D01*
X-113360317Y142021210D01*
X-113356748Y142020500D01*
X-113354013Y142020500D01*
X-113308606Y141998719D01*
X-113287716Y141952612D01*
X-113287500Y141946968D01*
X-113287500Y139747567D01*
X-113287168Y139746545D01*
X-113287000Y139744410D01*
X-113287000Y139283754D01*
X-113286545Y139280881D01*
X-113272363Y139191335D01*
X-113272362Y139191332D01*
X-113271451Y139185580D01*
X-113268805Y139180387D01*
X-113213804Y139072441D01*
X-113213802Y139072439D01*
X-113211158Y139067249D01*
X-113117251Y138973342D01*
X-113112061Y138970698D01*
X-113112059Y138970696D01*
X-113007903Y138917626D01*
X-112998920Y138913049D01*
X-112993168Y138912138D01*
X-112993165Y138912137D01*
X-112903619Y138897955D01*
X-112900746Y138897500D01*
X-112397254Y138897500D01*
X-112394381Y138897955D01*
X-112304835Y138912137D01*
X-112304832Y138912138D01*
X-112299080Y138913049D01*
X-112290097Y138917626D01*
X-112185941Y138970696D01*
X-112185939Y138970698D01*
X-112180749Y138973342D01*
X-112086842Y139067249D01*
X-112084198Y139072439D01*
X-112084196Y139072441D01*
X-112029195Y139180387D01*
X-112026549Y139185580D01*
X-112014450Y139261969D01*
X-111989911Y139306240D01*
X-111942654Y139324381D01*
X-111894793Y139307901D01*
X-111870985Y139273262D01*
X-111867296Y139261910D01*
X-111863874Y139257201D01*
X-111863872Y139257196D01*
X-111851961Y139240802D01*
X-111845894Y139230902D01*
X-111836694Y139212847D01*
X-111834050Y139207658D01*
X-111811487Y139185095D01*
X-111811484Y139185091D01*
X-111326050Y138699658D01*
X-111236342Y138609950D01*
X-111221055Y138602161D01*
X-111213095Y138598105D01*
X-111203197Y138592039D01*
X-111182090Y138576704D01*
X-111176553Y138574905D01*
X-111157280Y138568643D01*
X-111146552Y138564199D01*
X-111130821Y138556184D01*
X-111123304Y138552354D01*
X-111097527Y138548271D01*
X-111086243Y138545562D01*
X-111076606Y138542431D01*
X-111066974Y138539301D01*
X-111066972Y138539301D01*
X-111061433Y138537501D01*
X-111029523Y138537501D01*
X-111029519Y138537500D01*
X-110760585Y138537500D01*
X-110713019Y138520187D01*
X-110689559Y138484269D01*
X-110682933Y138461610D01*
X-110681847Y138459221D01*
X-110681846Y138459219D01*
X-110676742Y138447993D01*
X-110623653Y138331231D01*
X-110592426Y138282402D01*
X-110590712Y138280413D01*
X-110518889Y138197058D01*
X-110498936Y138173901D01*
X-110455258Y138135798D01*
X-110335073Y138057898D01*
X-110282455Y138033586D01*
X-110279932Y138032831D01*
X-110279928Y138032830D01*
X-110147759Y137993304D01*
X-110147756Y137993303D01*
X-110145237Y137992550D01*
X-110142635Y137992161D01*
X-110142630Y137992160D01*
X-110111447Y137987500D01*
X-110087914Y137983983D01*
X-110029963Y137983629D01*
X-109947324Y137983124D01*
X-109947323Y137983124D01*
X-109944693Y137983108D01*
X-109942321Y137983433D01*
X-109938032Y137983572D01*
X-109462000Y137983572D01*
X-109458431Y137984282D01*
X-109458430Y137984282D01*
X-109444002Y137987152D01*
X-109383769Y137999133D01*
X-109377706Y138003184D01*
X-109370976Y138005972D01*
X-109370482Y138004780D01*
X-109328942Y138014944D01*
X-109303190Y138005571D01*
X-109303024Y138005972D01*
X-109296294Y138003184D01*
X-109290231Y137999133D01*
X-109255175Y137992160D01*
X-109235318Y137988210D01*
X-109235317Y137988210D01*
X-109231748Y137987500D01*
X-108192252Y137987500D01*
X-108188683Y137988210D01*
X-108188682Y137988210D01*
X-108168825Y137992160D01*
X-108133769Y137999133D01*
X-108125317Y138004780D01*
X-108073509Y138039398D01*
X-108067448Y138043448D01*
X-108056298Y138060135D01*
X-108027184Y138103706D01*
X-108027184Y138103707D01*
X-108023133Y138109769D01*
X-108011500Y138168252D01*
X-108011500Y138364000D01*
X-107994187Y138411566D01*
X-107950350Y138436876D01*
X-107937500Y138438000D01*
X-107817877Y138438000D01*
X-107774883Y138437962D01*
X-107774882Y138437962D01*
X-107766551Y138437955D01*
X-107753130Y138444400D01*
X-107737551Y138449840D01*
X-107723038Y138453150D01*
X-107711584Y138462277D01*
X-107697504Y138471110D01*
X-107684295Y138477453D01*
X-107674993Y138489085D01*
X-107663318Y138500739D01*
X-107651677Y138510015D01*
X-107645313Y138523209D01*
X-107636457Y138537272D01*
X-107627306Y138548715D01*
X-107623969Y138563227D01*
X-107618502Y138578795D01*
X-107615655Y138584696D01*
X-107615654Y138584698D01*
X-107612035Y138592202D01*
X-107612015Y138615213D01*
X-107612000Y138615277D01*
X-107612000Y138632517D01*
X-107611955Y138683449D01*
X-107611994Y138683531D01*
X-107612000Y138683583D01*
X-107612000Y139232123D01*
X-107611962Y139275117D01*
X-107611962Y139275118D01*
X-107611955Y139283449D01*
X-107618400Y139296871D01*
X-107623840Y139312450D01*
X-107625297Y139318837D01*
X-107627150Y139326962D01*
X-107636277Y139338416D01*
X-107645112Y139352499D01*
X-107651453Y139365705D01*
X-107663085Y139375007D01*
X-107674741Y139386684D01*
X-107674958Y139386957D01*
X-107684015Y139398323D01*
X-107697209Y139404687D01*
X-107711272Y139413543D01*
X-107722715Y139422694D01*
X-107730835Y139424561D01*
X-107730837Y139424562D01*
X-107737227Y139426031D01*
X-107752795Y139431498D01*
X-107758696Y139434345D01*
X-107758698Y139434346D01*
X-107766202Y139437965D01*
X-107789107Y139437985D01*
X-107789214Y139437985D01*
X-107789277Y139438000D01*
X-107806123Y139438000D01*
X-107857182Y139438045D01*
X-107857449Y139438045D01*
X-107857531Y139438006D01*
X-107857583Y139438000D01*
X-107937500Y139438000D01*
X-107985066Y139455313D01*
X-108010376Y139499150D01*
X-108011500Y139512000D01*
X-108011500Y139707748D01*
X-108023133Y139766231D01*
X-108067448Y139832552D01*
X-108086999Y139845616D01*
X-108127706Y139872816D01*
X-108127707Y139872816D01*
X-108133769Y139876867D01*
X-108183821Y139886823D01*
X-108188682Y139887790D01*
X-108188683Y139887790D01*
X-108192252Y139888500D01*
X-108287500Y139888500D01*
X-108335066Y139905813D01*
X-108360376Y139949650D01*
X-108361500Y139962500D01*
X-108361500Y140064542D01*
X-108344187Y140112108D01*
X-108332550Y140123248D01*
X-108283718Y140160718D01*
X-108260650Y140190781D01*
X-108190416Y140282311D01*
X-108190414Y140282315D01*
X-108187464Y140286159D01*
X-108126956Y140432238D01*
X-108124176Y140453350D01*
X-108106951Y140584192D01*
X-108106318Y140589000D01*
X-108112932Y140639237D01*
X-108126323Y140740957D01*
X-108126324Y140740960D01*
X-108126956Y140745762D01*
X-108187464Y140891841D01*
X-108190414Y140895685D01*
X-108190416Y140895689D01*
X-108280763Y141013431D01*
X-108283718Y141017282D01*
X-108303397Y141032382D01*
X-108405311Y141110584D01*
X-108405315Y141110586D01*
X-108409159Y141113536D01*
X-108555238Y141174044D01*
X-108560040Y141174676D01*
X-108560043Y141174677D01*
X-108707192Y141194049D01*
X-108712000Y141194682D01*
X-108716808Y141194049D01*
X-108863957Y141174677D01*
X-108863960Y141174676D01*
X-108868762Y141174044D01*
X-109014841Y141113536D01*
X-109018685Y141110586D01*
X-109018689Y141110584D01*
X-109120603Y141032382D01*
X-109140282Y141017282D01*
X-109143237Y141013431D01*
X-109233584Y140895689D01*
X-109233586Y140895685D01*
X-109236536Y140891841D01*
X-109297044Y140745762D01*
X-109297676Y140740960D01*
X-109297677Y140740957D01*
X-109311068Y140639237D01*
X-109317682Y140589000D01*
X-109317049Y140584192D01*
X-109299823Y140453350D01*
X-109297044Y140432238D01*
X-109236536Y140286159D01*
X-109233586Y140282315D01*
X-109233584Y140282311D01*
X-109163350Y140190781D01*
X-109140282Y140160718D01*
X-109091451Y140123249D01*
X-109064254Y140080559D01*
X-109062500Y140064542D01*
X-109062500Y139962500D01*
X-109079813Y139914934D01*
X-109123650Y139889624D01*
X-109136500Y139888500D01*
X-109231748Y139888500D01*
X-109235317Y139887790D01*
X-109235318Y139887790D01*
X-109240179Y139886823D01*
X-109290231Y139876867D01*
X-109296294Y139872816D01*
X-109303024Y139870028D01*
X-109303518Y139871220D01*
X-109345058Y139861056D01*
X-109370810Y139870429D01*
X-109370976Y139870028D01*
X-109377706Y139872816D01*
X-109383769Y139876867D01*
X-109447903Y139889624D01*
X-109458430Y139891718D01*
X-109458431Y139891718D01*
X-109462000Y139892428D01*
X-110002617Y139892428D01*
X-110003973Y139892440D01*
X-110068053Y139893615D01*
X-110068058Y139893615D01*
X-110070689Y139893663D01*
X-110128208Y139886498D01*
X-110130739Y139885808D01*
X-110130744Y139885807D01*
X-110250778Y139853081D01*
X-110266388Y139848825D01*
X-110268798Y139847782D01*
X-110268801Y139847781D01*
X-110294633Y139836602D01*
X-110319581Y139825806D01*
X-110441633Y139750866D01*
X-110486228Y139713843D01*
X-110487994Y139711892D01*
X-110521977Y139674348D01*
X-110582342Y139607659D01*
X-110614755Y139559605D01*
X-110677202Y139430713D01*
X-110678696Y139426031D01*
X-110690195Y139390001D01*
X-110721151Y139349950D01*
X-110760692Y139338500D01*
X-110801456Y139338500D01*
X-110849022Y139355813D01*
X-110853782Y139360174D01*
X-111083826Y139590219D01*
X-111105218Y139636096D01*
X-111105500Y139642545D01*
X-111105500Y140398433D01*
X-111108192Y140406719D01*
X-111113562Y140423246D01*
X-111116273Y140434537D01*
X-111119443Y140454551D01*
X-111120354Y140460304D01*
X-111129196Y140477658D01*
X-111132198Y140483550D01*
X-111136642Y140494278D01*
X-111142904Y140513551D01*
X-111142905Y140513552D01*
X-111144704Y140519090D01*
X-111148126Y140523799D01*
X-111148128Y140523804D01*
X-111160039Y140540198D01*
X-111166106Y140550098D01*
X-111175306Y140568153D01*
X-111175306Y140568154D01*
X-111177950Y140573342D01*
X-111200513Y140595905D01*
X-111200516Y140595909D01*
X-111241281Y140636674D01*
X-111262673Y140682550D01*
X-111249572Y140731445D01*
X-111208108Y140760479D01*
X-111188955Y140763000D01*
X-111154048Y140763000D01*
X-111144052Y140766638D01*
X-111141000Y140771925D01*
X-111141000Y140776049D01*
X-110633000Y140776049D01*
X-110629362Y140766053D01*
X-110624075Y140763001D01*
X-110390923Y140763001D01*
X-110386909Y140763219D01*
X-110331406Y140769247D01*
X-110322450Y140771376D01*
X-110195475Y140818977D01*
X-110186317Y140823991D01*
X-110078319Y140904931D01*
X-110070931Y140912319D01*
X-109989991Y141020317D01*
X-109984977Y141029475D01*
X-109937377Y141156447D01*
X-109935247Y141165407D01*
X-109929217Y141220911D01*
X-109929000Y141224921D01*
X-109929000Y141403952D01*
X-109932638Y141413948D01*
X-109937925Y141417000D01*
X-110619952Y141417000D01*
X-110629948Y141413362D01*
X-110633000Y141408075D01*
X-110633000Y140776049D01*
X-111141000Y140776049D01*
X-111141000Y142565951D01*
X-111144638Y142575947D01*
X-111149925Y142578999D01*
X-111383077Y142578999D01*
X-111387091Y142578781D01*
X-111442594Y142572753D01*
X-111451550Y142570624D01*
X-111537013Y142538585D01*
X-111587629Y142538099D01*
X-111626717Y142570262D01*
X-111636989Y142607876D01*
X-111636989Y143015130D01*
X-111619676Y143062696D01*
X-111575839Y143088006D01*
X-111525989Y143079216D01*
X-111501461Y143056243D01*
X-111485602Y143032509D01*
X-111481552Y143026448D01*
X-111475491Y143022398D01*
X-111470423Y143019012D01*
X-111415231Y142982133D01*
X-111370705Y142973276D01*
X-111360318Y142971210D01*
X-111360317Y142971210D01*
X-111356748Y142970500D01*
X-110801545Y142970500D01*
X-110753979Y142953187D01*
X-110749219Y142948826D01*
X-110505719Y142705326D01*
X-110484327Y142659450D01*
X-110497428Y142610555D01*
X-110538892Y142581521D01*
X-110558045Y142579000D01*
X-110619952Y142579000D01*
X-110629948Y142575362D01*
X-110633000Y142570075D01*
X-110633000Y141938048D01*
X-110629362Y141928052D01*
X-110624075Y141925000D01*
X-109942049Y141925000D01*
X-109932053Y141928638D01*
X-109929001Y141933925D01*
X-109929001Y141938622D01*
X-109911688Y141986188D01*
X-109867851Y142011498D01*
X-109818001Y142002708D01*
X-109785464Y141963931D01*
X-109781912Y141950198D01*
X-109767363Y141858335D01*
X-109767362Y141858332D01*
X-109766451Y141852580D01*
X-109763805Y141847387D01*
X-109708804Y141739441D01*
X-109708802Y141739439D01*
X-109706158Y141734249D01*
X-109612251Y141640342D01*
X-109607061Y141637698D01*
X-109607059Y141637696D01*
X-109573119Y141620403D01*
X-109493920Y141580049D01*
X-109488168Y141579138D01*
X-109488165Y141579137D01*
X-109398619Y141564955D01*
X-109395746Y141564500D01*
X-108892254Y141564500D01*
X-108889381Y141564955D01*
X-108799835Y141579137D01*
X-108799832Y141579138D01*
X-108794080Y141580049D01*
X-108714881Y141620403D01*
X-108680941Y141637696D01*
X-108680939Y141637698D01*
X-108675749Y141640342D01*
X-108581842Y141734249D01*
X-108579198Y141739439D01*
X-108579196Y141739441D01*
X-108524195Y141847387D01*
X-108521549Y141852580D01*
X-108520638Y141858332D01*
X-108520637Y141858335D01*
X-108506455Y141947881D01*
X-108506000Y141950754D01*
X-108506000Y142529246D01*
X-108512034Y142567342D01*
X-108520637Y142621665D01*
X-108520638Y142621668D01*
X-108521549Y142627420D01*
X-108552747Y142688650D01*
X-108579196Y142740559D01*
X-108579198Y142740561D01*
X-108581842Y142745751D01*
X-108675749Y142839658D01*
X-108680939Y142842302D01*
X-108680941Y142842304D01*
X-108788887Y142897305D01*
X-108794080Y142899951D01*
X-108799832Y142900862D01*
X-108799835Y142900863D01*
X-108889381Y142915045D01*
X-108892254Y142915500D01*
X-109171455Y142915500D01*
X-109219021Y142932813D01*
X-109223781Y142937174D01*
X-109530591Y143243984D01*
X-109530595Y143243987D01*
X-109553158Y143266550D01*
X-109558347Y143269194D01*
X-109576402Y143278394D01*
X-109586302Y143284461D01*
X-109602696Y143296372D01*
X-109602701Y143296374D01*
X-109607410Y143299796D01*
X-109612948Y143301595D01*
X-109612949Y143301596D01*
X-109632222Y143307858D01*
X-109642950Y143312302D01*
X-109661003Y143321500D01*
X-109666196Y143324146D01*
X-109682493Y143326727D01*
X-109691963Y143328227D01*
X-109703254Y143330938D01*
X-109722526Y143337200D01*
X-109722529Y143337200D01*
X-109728067Y143339000D01*
X-109975955Y143339000D01*
X-110023521Y143356313D01*
X-110028281Y143360674D01*
X-110214826Y143547219D01*
X-110236218Y143593095D01*
X-110236500Y143599545D01*
X-110236500Y143990748D01*
X-110248133Y144049231D01*
X-110265613Y144075392D01*
X-110288398Y144109491D01*
X-110292448Y144115552D01*
X-110331549Y144141679D01*
X-110352706Y144155816D01*
X-110352707Y144155816D01*
X-110358769Y144159867D01*
X-110403295Y144168724D01*
X-110413682Y144170790D01*
X-110413683Y144170790D01*
X-110417252Y144171500D01*
X-111356748Y144171500D01*
X-111360317Y144170790D01*
X-111360318Y144170790D01*
X-111370705Y144168724D01*
X-111415231Y144159867D01*
X-111421293Y144155816D01*
X-111421294Y144155816D01*
X-111442451Y144141679D01*
X-111481552Y144115552D01*
X-111485602Y144109491D01*
X-111508386Y144075392D01*
X-111525867Y144049231D01*
X-111537500Y143990748D01*
X-111537500Y143878603D01*
X-111554813Y143831037D01*
X-111598650Y143805727D01*
X-111648500Y143814517D01*
X-111675759Y143843243D01*
X-111676193Y143844579D01*
X-111691528Y143865686D01*
X-111697594Y143875584D01*
X-111706797Y143893645D01*
X-111709439Y143898831D01*
X-112102310Y144291702D01*
X-112405806Y144595199D01*
X-112427198Y144641075D01*
X-112427480Y144647525D01*
X-112427480Y145397435D01*
X-112410167Y145445001D01*
X-112405806Y145449761D01*
X-111962517Y145893051D01*
X-111950064Y145905504D01*
X-111904188Y145926896D01*
X-111855293Y145913795D01*
X-111845418Y145905509D01*
X-111757751Y145817842D01*
X-111692904Y145784801D01*
X-111658383Y145747781D01*
X-111652500Y145718867D01*
X-111652500Y145519821D01*
X-111669813Y145472255D01*
X-111674172Y145467497D01*
X-111676434Y145465234D01*
X-111680282Y145462282D01*
X-111683236Y145458432D01*
X-111773584Y145340689D01*
X-111773586Y145340685D01*
X-111776536Y145336841D01*
X-111837044Y145190762D01*
X-111837676Y145185960D01*
X-111837677Y145185957D01*
X-111850329Y145089850D01*
X-111857682Y145034000D01*
X-111857049Y145029192D01*
X-111841871Y144913905D01*
X-111837044Y144877238D01*
X-111776536Y144731159D01*
X-111773586Y144727315D01*
X-111773584Y144727311D01*
X-111699078Y144630213D01*
X-111680282Y144605718D01*
X-111676431Y144602763D01*
X-111558689Y144512416D01*
X-111558685Y144512414D01*
X-111554841Y144509464D01*
X-111408762Y144448956D01*
X-111403960Y144448324D01*
X-111403957Y144448323D01*
X-111256808Y144428951D01*
X-111252000Y144428318D01*
X-111247192Y144428951D01*
X-111100043Y144448323D01*
X-111100040Y144448324D01*
X-111095238Y144448956D01*
X-110949159Y144509464D01*
X-110945315Y144512414D01*
X-110945311Y144512416D01*
X-110827569Y144602763D01*
X-110823718Y144605718D01*
X-110804922Y144630213D01*
X-110730416Y144727311D01*
X-110730414Y144727315D01*
X-110727464Y144731159D01*
X-110666956Y144877238D01*
X-110662128Y144913905D01*
X-110646951Y145029192D01*
X-110646318Y145034000D01*
X-110653671Y145089850D01*
X-110666323Y145185957D01*
X-110666324Y145185960D01*
X-110666956Y145190762D01*
X-110727464Y145336841D01*
X-110730414Y145340685D01*
X-110730416Y145340689D01*
X-110820764Y145458432D01*
X-110823718Y145462282D01*
X-110827566Y145465234D01*
X-110829828Y145467497D01*
X-110851219Y145513374D01*
X-110851500Y145519821D01*
X-110851500Y145718867D01*
X-110834187Y145766433D01*
X-110811096Y145784801D01*
X-110746249Y145817842D01*
X-110652342Y145911749D01*
X-110649698Y145916939D01*
X-110649696Y145916941D01*
X-110594695Y146024887D01*
X-110592049Y146030080D01*
X-110591138Y146035832D01*
X-110591137Y146035835D01*
X-110576955Y146125381D01*
X-110576500Y146128254D01*
X-110576500Y146631746D01*
X-110578367Y146643537D01*
X-110591137Y146724165D01*
X-110591138Y146724168D01*
X-110592049Y146729920D01*
X-110600862Y146747216D01*
X-110649696Y146843059D01*
X-110649698Y146843061D01*
X-110652342Y146848251D01*
X-110746249Y146942158D01*
X-110751439Y146944802D01*
X-110751441Y146944804D01*
X-110859387Y146999805D01*
X-110864580Y147002451D01*
X-110870332Y147003362D01*
X-110870335Y147003363D01*
X-110959881Y147017545D01*
X-110962754Y147018000D01*
X-111443955Y147018000D01*
X-111491521Y147035313D01*
X-111516831Y147079150D01*
X-111508041Y147129000D01*
X-111496281Y147144326D01*
X-111345281Y147295326D01*
X-111299405Y147316718D01*
X-111292955Y147317000D01*
X-110962754Y147317000D01*
X-110959881Y147317455D01*
X-110870335Y147331637D01*
X-110870332Y147331638D01*
X-110864580Y147332549D01*
X-110844157Y147342955D01*
X-110751441Y147390196D01*
X-110751439Y147390198D01*
X-110746249Y147392842D01*
X-110652342Y147486749D01*
X-110638408Y147514096D01*
X-110601387Y147548618D01*
X-110572474Y147554500D01*
X-109632533Y147554500D01*
X-109584967Y147537187D01*
X-109572534Y147521559D01*
X-109571723Y147522148D01*
X-109568304Y147517441D01*
X-109565658Y147512249D01*
X-109471751Y147418342D01*
X-109466561Y147415698D01*
X-109466559Y147415696D01*
X-109373843Y147368455D01*
X-109353420Y147358049D01*
X-109347668Y147357138D01*
X-109347665Y147357137D01*
X-109258119Y147342955D01*
X-109255246Y147342500D01*
X-108676754Y147342500D01*
X-108673881Y147342955D01*
X-108584335Y147357137D01*
X-108584332Y147357138D01*
X-108578580Y147358049D01*
X-108558157Y147368455D01*
X-108465441Y147415696D01*
X-108465439Y147415698D01*
X-108460249Y147418342D01*
X-108366342Y147512249D01*
X-108352408Y147539596D01*
X-108315387Y147574118D01*
X-108286474Y147580000D01*
X-107994245Y147580000D01*
X-107946679Y147562687D01*
G37*
%TD.AperFunction*%
%TA.AperFunction,Conductor*%
G36*
X-125877634Y151388687D02*
G01*
X-125855127Y151355787D01*
X-125824914Y151266784D01*
X-125814759Y151236867D01*
X-125813464Y151234374D01*
X-125732810Y151079110D01*
X-125695495Y151007275D01*
X-125693842Y151005013D01*
X-125693840Y151005009D01*
X-125585346Y150856500D01*
X-125542875Y150798364D01*
X-125540896Y150796375D01*
X-125414058Y150668871D01*
X-125360411Y150614942D01*
X-125358150Y150613272D01*
X-125301492Y150571424D01*
X-125152302Y150461230D01*
X-125149808Y150459918D01*
X-124925830Y150342077D01*
X-124925823Y150342074D01*
X-124923337Y150340766D01*
X-124678785Y150256321D01*
X-124676024Y150255817D01*
X-124676021Y150255816D01*
X-124581705Y150238591D01*
X-124424274Y150209839D01*
X-124421912Y150209715D01*
X-124421910Y150209715D01*
X-124342442Y150205550D01*
X-124342428Y150205550D01*
X-124341481Y150205500D01*
X-124180218Y150205500D01*
X-124108753Y150210936D01*
X-123990818Y150219907D01*
X-123990812Y150219908D01*
X-123988024Y150220120D01*
X-123735985Y150278539D01*
X-123733378Y150279579D01*
X-123733372Y150279581D01*
X-123498290Y150373369D01*
X-123498284Y150373372D01*
X-123495682Y150374410D01*
X-123493263Y150375832D01*
X-123493259Y150375834D01*
X-123275071Y150504101D01*
X-123275067Y150504104D01*
X-123272646Y150505527D01*
X-123072009Y150668871D01*
X-122898387Y150860685D01*
X-122896837Y150863031D01*
X-122896834Y150863035D01*
X-122757333Y151074199D01*
X-122757332Y151074200D01*
X-122755778Y151076553D01*
X-122743581Y151103009D01*
X-122648636Y151308962D01*
X-122648635Y151308964D01*
X-122647462Y151311509D01*
X-122646686Y151314206D01*
X-122646682Y151314217D01*
X-122635680Y151352459D01*
X-122605892Y151393385D01*
X-122564565Y151406000D01*
X-119030163Y151406000D01*
X-118982597Y151388687D01*
X-118957287Y151344850D01*
X-118966077Y151295000D01*
X-118990730Y151269382D01*
X-119177808Y151151573D01*
X-119361406Y150989710D01*
X-119408534Y150971240D01*
X-119456509Y150987385D01*
X-119469557Y151000838D01*
X-119479934Y151014684D01*
X-119487319Y151022069D01*
X-119595317Y151103009D01*
X-119604475Y151108023D01*
X-119731447Y151155623D01*
X-119740407Y151157753D01*
X-119795911Y151163783D01*
X-119799921Y151164000D01*
X-120053952Y151164000D01*
X-120063948Y151160362D01*
X-120067000Y151155075D01*
X-120067000Y148661049D01*
X-120063362Y148651053D01*
X-120058075Y148648001D01*
X-119855844Y148648001D01*
X-119808278Y148630688D01*
X-119788421Y148596296D01*
X-119784242Y148619999D01*
X-119745465Y148652536D01*
X-119737272Y148654992D01*
X-119731450Y148656376D01*
X-119604475Y148703977D01*
X-119595317Y148708991D01*
X-119487318Y148789932D01*
X-119479936Y148797313D01*
X-119467006Y148814565D01*
X-119424625Y148842244D01*
X-119374367Y148836206D01*
X-119354024Y148821028D01*
X-119300567Y148764499D01*
X-119286862Y148750006D01*
X-119284501Y148748201D01*
X-119124591Y148625940D01*
X-119097319Y148583295D01*
X-119103839Y148533098D01*
X-119110119Y148527582D01*
X-119126000Y148500075D01*
X-119126000Y147521000D01*
X-119143313Y147473434D01*
X-119187150Y147448124D01*
X-119200000Y147447000D01*
X-120224951Y147447000D01*
X-120234947Y147443362D01*
X-120237999Y147438075D01*
X-120237999Y147354923D01*
X-120237781Y147350909D01*
X-120231753Y147295406D01*
X-120229624Y147286450D01*
X-120182023Y147159475D01*
X-120177009Y147150317D01*
X-120096069Y147042319D01*
X-120088681Y147034931D01*
X-119980683Y146953991D01*
X-119971524Y146948977D01*
X-119849493Y146903229D01*
X-119811031Y146870321D01*
X-119802720Y146820389D01*
X-119828449Y146776796D01*
X-119834345Y146772418D01*
X-119874552Y146745552D01*
X-119876987Y146741907D01*
X-119921361Y146721216D01*
X-119972857Y146736225D01*
X-120093159Y146828536D01*
X-120239238Y146889044D01*
X-120244040Y146889676D01*
X-120244043Y146889677D01*
X-120391192Y146909049D01*
X-120396000Y146909682D01*
X-120400808Y146909049D01*
X-120547957Y146889677D01*
X-120547960Y146889676D01*
X-120552762Y146889044D01*
X-120698841Y146828536D01*
X-120702685Y146825586D01*
X-120702689Y146825584D01*
X-120748025Y146790796D01*
X-120796301Y146775574D01*
X-120843067Y146794946D01*
X-120856768Y146811835D01*
X-120869574Y146833489D01*
X-120875238Y146840791D01*
X-120986209Y146951762D01*
X-120993511Y146957426D01*
X-121128593Y147037313D01*
X-121137068Y147040980D01*
X-121288621Y147085011D01*
X-121296015Y147086361D01*
X-121328096Y147088886D01*
X-121330996Y147089000D01*
X-121828952Y147089000D01*
X-121838948Y147085362D01*
X-121842000Y147080075D01*
X-121842000Y146101000D01*
X-121859313Y146053434D01*
X-121903150Y146028124D01*
X-121916000Y146027000D01*
X-122276000Y146027000D01*
X-122323566Y146044313D01*
X-122348876Y146088150D01*
X-122350000Y146101000D01*
X-122350000Y147075951D01*
X-122353638Y147085947D01*
X-122358925Y147088999D01*
X-122861002Y147088999D01*
X-122863907Y147088885D01*
X-122895978Y147086362D01*
X-122903384Y147085010D01*
X-123054932Y147040980D01*
X-123063407Y147037313D01*
X-123198489Y146957426D01*
X-123205791Y146951762D01*
X-123316762Y146840791D01*
X-123322426Y146833489D01*
X-123388100Y146722439D01*
X-123427215Y146690310D01*
X-123477831Y146690839D01*
X-123510502Y146715058D01*
X-123523718Y146732282D01*
X-123546372Y146749665D01*
X-123645311Y146825584D01*
X-123645315Y146825586D01*
X-123649159Y146828536D01*
X-123795238Y146889044D01*
X-123800040Y146889676D01*
X-123800043Y146889677D01*
X-123947192Y146909049D01*
X-123952000Y146909682D01*
X-123956808Y146909049D01*
X-124103957Y146889677D01*
X-124103960Y146889676D01*
X-124108762Y146889044D01*
X-124254841Y146828536D01*
X-124258685Y146825586D01*
X-124258689Y146825584D01*
X-124357628Y146749665D01*
X-124380282Y146732282D01*
X-124383237Y146728431D01*
X-124473584Y146610689D01*
X-124473586Y146610685D01*
X-124476536Y146606841D01*
X-124537044Y146460762D01*
X-124557682Y146304000D01*
X-124557049Y146299192D01*
X-124557049Y146295995D01*
X-124574362Y146248429D01*
X-124578723Y146243669D01*
X-125183995Y145638398D01*
X-125183998Y145638394D01*
X-125206561Y145615831D01*
X-125209205Y145610643D01*
X-125209205Y145610642D01*
X-125218405Y145592587D01*
X-125224472Y145582687D01*
X-125236383Y145566293D01*
X-125236385Y145566288D01*
X-125239807Y145561579D01*
X-125241606Y145556041D01*
X-125241607Y145556040D01*
X-125247869Y145536767D01*
X-125252313Y145526039D01*
X-125254607Y145521536D01*
X-125264157Y145502793D01*
X-125265068Y145497040D01*
X-125268238Y145477026D01*
X-125270949Y145465735D01*
X-125273322Y145458431D01*
X-125279011Y145440922D01*
X-125279011Y143357078D01*
X-125277211Y143351540D01*
X-125277211Y143351537D01*
X-125270949Y143332265D01*
X-125268238Y143320974D01*
X-125267438Y143315925D01*
X-125264157Y143295207D01*
X-125261511Y143290014D01*
X-125252313Y143271961D01*
X-125247869Y143261233D01*
X-125242264Y143243984D01*
X-125239807Y143236421D01*
X-125236385Y143231712D01*
X-125236383Y143231707D01*
X-125224472Y143215313D01*
X-125218405Y143205413D01*
X-125209205Y143187358D01*
X-125206561Y143182169D01*
X-125183998Y143159606D01*
X-125183995Y143159602D01*
X-124249909Y142225516D01*
X-124249905Y142225513D01*
X-124227342Y142202950D01*
X-124204097Y142191106D01*
X-124194199Y142185040D01*
X-124173089Y142169703D01*
X-124167552Y142167904D01*
X-124148276Y142161641D01*
X-124137547Y142157197D01*
X-124114304Y142145354D01*
X-124088534Y142141273D01*
X-124077251Y142138564D01*
X-124052433Y142130500D01*
X-123071825Y142130500D01*
X-123024259Y142113187D01*
X-123019545Y142108872D01*
X-123007052Y142096401D01*
X-123002350Y142091707D01*
X-122996853Y142089020D01*
X-122903066Y142043176D01*
X-122897518Y142040464D01*
X-122829218Y142030500D01*
X-121362782Y142030500D01*
X-121351689Y142032133D01*
X-121299577Y142039804D01*
X-121299574Y142039805D01*
X-121293888Y142040642D01*
X-121288728Y142043175D01*
X-121288726Y142043176D01*
X-121237753Y142068203D01*
X-121189145Y142092068D01*
X-121184821Y142096400D01*
X-121184819Y142096401D01*
X-121172461Y142108780D01*
X-121126604Y142130213D01*
X-121120090Y142130500D01*
X-120756545Y142130500D01*
X-120708979Y142113187D01*
X-120704219Y142108826D01*
X-120259050Y141663658D01*
X-120169342Y141573950D01*
X-120146095Y141562105D01*
X-120136197Y141556039D01*
X-120115090Y141540704D01*
X-120109553Y141538905D01*
X-120090280Y141532643D01*
X-120079552Y141528199D01*
X-120069848Y141523255D01*
X-120056304Y141516354D01*
X-120030527Y141512271D01*
X-120019243Y141509562D01*
X-120009607Y141506431D01*
X-119999974Y141503301D01*
X-119999972Y141503301D01*
X-119994433Y141501501D01*
X-119962523Y141501501D01*
X-119962519Y141501500D01*
X-119278500Y141501500D01*
X-119230934Y141484187D01*
X-119205624Y141440350D01*
X-119204500Y141427500D01*
X-119204500Y141352252D01*
X-119192867Y141293769D01*
X-119188816Y141287707D01*
X-119188816Y141287706D01*
X-119164055Y141250650D01*
X-119148552Y141227448D01*
X-119112385Y141203282D01*
X-119082456Y141162462D01*
X-119079500Y141141755D01*
X-119079500Y140967567D01*
X-119077700Y140962029D01*
X-119077700Y140962026D01*
X-119071438Y140942754D01*
X-119068727Y140931463D01*
X-119064646Y140905696D01*
X-119062000Y140900503D01*
X-119052802Y140882450D01*
X-119048358Y140871722D01*
X-119040296Y140846910D01*
X-119036874Y140842201D01*
X-119036872Y140842196D01*
X-119024961Y140825802D01*
X-119018894Y140815902D01*
X-119016039Y140810300D01*
X-119007050Y140792658D01*
X-118984487Y140770095D01*
X-118984484Y140770091D01*
X-118842539Y140628147D01*
X-118715882Y140501490D01*
X-118694490Y140455614D01*
X-118707591Y140406719D01*
X-118739294Y140381047D01*
X-118963933Y140285694D01*
X-118963936Y140285693D01*
X-118966677Y140284529D01*
X-118969197Y140282942D01*
X-118969199Y140282941D01*
X-119060641Y140225357D01*
X-119177808Y140151573D01*
X-119180040Y140149605D01*
X-119350362Y139999446D01*
X-119364965Y139986572D01*
X-119379436Y139968955D01*
X-119521447Y139796068D01*
X-119521450Y139796063D01*
X-119523334Y139793770D01*
X-119544516Y139757375D01*
X-119583404Y139724975D01*
X-119634023Y139725151D01*
X-119669999Y139753487D01*
X-119697398Y139794491D01*
X-119701448Y139800552D01*
X-119718972Y139812261D01*
X-119748903Y139853081D01*
X-119745592Y139903592D01*
X-119745447Y139903878D01*
X-119744464Y139905159D01*
X-119683956Y140051238D01*
X-119682823Y140059839D01*
X-119663951Y140203192D01*
X-119663318Y140208000D01*
X-119670929Y140265813D01*
X-119683323Y140359957D01*
X-119683324Y140359960D01*
X-119683956Y140364762D01*
X-119744464Y140510841D01*
X-119747414Y140514685D01*
X-119747416Y140514689D01*
X-119837763Y140632431D01*
X-119840718Y140636282D01*
X-119900819Y140682399D01*
X-119962311Y140729584D01*
X-119962315Y140729586D01*
X-119966159Y140732536D01*
X-120112238Y140793044D01*
X-120117040Y140793676D01*
X-120117043Y140793677D01*
X-120264192Y140813049D01*
X-120269000Y140813682D01*
X-120273808Y140813049D01*
X-120420957Y140793677D01*
X-120420960Y140793676D01*
X-120425762Y140793044D01*
X-120571841Y140732536D01*
X-120575685Y140729586D01*
X-120575689Y140729584D01*
X-120637181Y140682399D01*
X-120697282Y140636282D01*
X-120700237Y140632431D01*
X-120790584Y140514689D01*
X-120790586Y140514685D01*
X-120793536Y140510841D01*
X-120854044Y140364762D01*
X-120854676Y140359960D01*
X-120854677Y140359957D01*
X-120867071Y140265813D01*
X-120874682Y140208000D01*
X-120874049Y140203192D01*
X-120855176Y140059839D01*
X-120854044Y140051238D01*
X-120811964Y139949650D01*
X-120811112Y139947592D01*
X-120808904Y139897021D01*
X-120839719Y139856862D01*
X-120865041Y139846695D01*
X-120874231Y139844867D01*
X-120880293Y139840816D01*
X-120880294Y139840816D01*
X-120904809Y139824435D01*
X-120940552Y139800552D01*
X-120944602Y139794491D01*
X-120978065Y139744410D01*
X-120984867Y139734231D01*
X-120996500Y139675748D01*
X-120996500Y138136252D01*
X-120984867Y138077769D01*
X-120980816Y138071707D01*
X-120980816Y138071706D01*
X-120954839Y138032830D01*
X-120940552Y138011448D01*
X-120934491Y138007398D01*
X-120898833Y137983572D01*
X-120874231Y137967133D01*
X-120829705Y137958276D01*
X-120819318Y137956210D01*
X-120819317Y137956210D01*
X-120815748Y137955500D01*
X-119826252Y137955500D01*
X-119822683Y137956210D01*
X-119822682Y137956210D01*
X-119812295Y137958276D01*
X-119767769Y137967133D01*
X-119743166Y137983572D01*
X-119707509Y138007398D01*
X-119701448Y138011448D01*
X-119668915Y138060137D01*
X-119628095Y138090066D01*
X-119577584Y138086755D01*
X-119546184Y138060616D01*
X-119462981Y137938187D01*
X-119458294Y137931290D01*
X-119456253Y137929132D01*
X-119456250Y137929128D01*
X-119423362Y137894350D01*
X-119286862Y137750006D01*
X-119088651Y137598462D01*
X-119040182Y137572473D01*
X-118989348Y137545216D01*
X-118955609Y137507481D01*
X-118954019Y137456887D01*
X-118985322Y137417108D01*
X-119024317Y137406000D01*
X-122566800Y137406000D01*
X-122614366Y137423313D01*
X-122636873Y137456213D01*
X-122676338Y137572473D01*
X-122676338Y137572474D01*
X-122677241Y137575133D01*
X-122690296Y137600265D01*
X-122795212Y137802236D01*
X-122795212Y137802237D01*
X-122796505Y137804725D01*
X-122810191Y137823460D01*
X-122947468Y138011368D01*
X-122947469Y138011369D01*
X-122949125Y138013636D01*
X-123044756Y138109769D01*
X-123129607Y138195066D01*
X-123129610Y138195068D01*
X-123131589Y138197058D01*
X-123281655Y138307899D01*
X-123337434Y138349098D01*
X-123337436Y138349099D01*
X-123339698Y138350770D01*
X-123455252Y138411566D01*
X-123566170Y138469923D01*
X-123566177Y138469926D01*
X-123568663Y138471234D01*
X-123793047Y138548715D01*
X-123810556Y138554761D01*
X-123810558Y138554762D01*
X-123813215Y138555679D01*
X-123815976Y138556183D01*
X-123815979Y138556184D01*
X-123972097Y138584696D01*
X-124067726Y138602161D01*
X-124070088Y138602285D01*
X-124070090Y138602285D01*
X-124149558Y138606450D01*
X-124149572Y138606450D01*
X-124150519Y138606500D01*
X-124311782Y138606500D01*
X-124383247Y138601064D01*
X-124501182Y138592093D01*
X-124501188Y138592092D01*
X-124503976Y138591880D01*
X-124756015Y138533461D01*
X-124758622Y138532421D01*
X-124758628Y138532419D01*
X-124993710Y138438631D01*
X-124993716Y138438628D01*
X-124996318Y138437590D01*
X-124998737Y138436168D01*
X-124998741Y138436166D01*
X-125216929Y138307899D01*
X-125216933Y138307896D01*
X-125219354Y138306473D01*
X-125419991Y138143129D01*
X-125593613Y137951315D01*
X-125595163Y137948969D01*
X-125595166Y137948965D01*
X-125676778Y137825428D01*
X-125736222Y137735447D01*
X-125737400Y137732892D01*
X-125737401Y137732890D01*
X-125810128Y137575133D01*
X-125844538Y137500491D01*
X-125845314Y137497794D01*
X-125845318Y137497783D01*
X-125856320Y137459541D01*
X-125886108Y137418615D01*
X-125927435Y137406000D01*
X-126172000Y137406000D01*
X-126219566Y137423313D01*
X-126244876Y137467150D01*
X-126246000Y137480000D01*
X-126246000Y139599000D01*
X-126228687Y139646566D01*
X-126184850Y139671876D01*
X-126172000Y139673000D01*
X-125563048Y139673000D01*
X-125553052Y139676638D01*
X-125550000Y139681925D01*
X-125550000Y139686049D01*
X-125042000Y139686049D01*
X-125038362Y139676053D01*
X-125033075Y139673001D01*
X-124147546Y139673001D01*
X-124143741Y139673198D01*
X-124043966Y139683550D01*
X-124036092Y139685251D01*
X-123876350Y139738544D01*
X-123868611Y139742169D01*
X-123725623Y139830653D01*
X-123718924Y139835964D01*
X-123600132Y139954962D01*
X-123594832Y139961672D01*
X-123506597Y140104816D01*
X-123502989Y140112555D01*
X-123449969Y140272402D01*
X-123448284Y140280263D01*
X-123438193Y140378758D01*
X-123438000Y140382529D01*
X-123438000Y140413952D01*
X-123441638Y140423948D01*
X-123446925Y140427000D01*
X-125028952Y140427000D01*
X-125038948Y140423362D01*
X-125042000Y140418075D01*
X-125042000Y139686049D01*
X-125550000Y139686049D01*
X-125550000Y140948048D01*
X-125042000Y140948048D01*
X-125038362Y140938052D01*
X-125033075Y140935000D01*
X-123451049Y140935000D01*
X-123441053Y140938638D01*
X-123438001Y140943925D01*
X-123438001Y140979454D01*
X-123438198Y140983259D01*
X-123448550Y141083034D01*
X-123450251Y141090908D01*
X-123503544Y141250650D01*
X-123507169Y141258389D01*
X-123595653Y141401377D01*
X-123600964Y141408076D01*
X-123719962Y141526868D01*
X-123726672Y141532168D01*
X-123869816Y141620403D01*
X-123877555Y141624011D01*
X-124037402Y141677031D01*
X-124045263Y141678716D01*
X-124143758Y141688807D01*
X-124147529Y141689000D01*
X-125028952Y141689000D01*
X-125038948Y141685362D01*
X-125042000Y141680075D01*
X-125042000Y140948048D01*
X-125550000Y140948048D01*
X-125550000Y141675951D01*
X-125553638Y141685947D01*
X-125558925Y141688999D01*
X-126172000Y141688999D01*
X-126219566Y141706312D01*
X-126244876Y141750149D01*
X-126246000Y141762999D01*
X-126246000Y147049000D01*
X-126228687Y147096566D01*
X-126184850Y147121876D01*
X-126172000Y147123000D01*
X-125563048Y147123000D01*
X-125553052Y147126638D01*
X-125550000Y147131925D01*
X-125550000Y147136049D01*
X-125042000Y147136049D01*
X-125038362Y147126053D01*
X-125033075Y147123001D01*
X-124147546Y147123001D01*
X-124143741Y147123198D01*
X-124043966Y147133550D01*
X-124036092Y147135251D01*
X-123876350Y147188544D01*
X-123868611Y147192169D01*
X-123725623Y147280653D01*
X-123718924Y147285964D01*
X-123600132Y147404962D01*
X-123594832Y147411672D01*
X-123506597Y147554816D01*
X-123502989Y147562555D01*
X-123449969Y147722402D01*
X-123448284Y147730263D01*
X-123438193Y147828758D01*
X-123438000Y147832529D01*
X-123438000Y147863952D01*
X-123441638Y147873948D01*
X-123446925Y147877000D01*
X-125028952Y147877000D01*
X-125038948Y147873362D01*
X-125042000Y147868075D01*
X-125042000Y147136049D01*
X-125550000Y147136049D01*
X-125550000Y147968048D01*
X-120238000Y147968048D01*
X-120234362Y147958052D01*
X-120229075Y147955000D01*
X-119647048Y147955000D01*
X-119637052Y147958638D01*
X-119634000Y147963925D01*
X-119634000Y148495951D01*
X-119637638Y148505947D01*
X-119642925Y148508999D01*
X-119720156Y148508999D01*
X-119767722Y148526312D01*
X-119787579Y148560704D01*
X-119791758Y148537001D01*
X-119830535Y148504464D01*
X-119838728Y148502008D01*
X-119844550Y148500624D01*
X-119971525Y148453023D01*
X-119980683Y148448009D01*
X-120088681Y148367069D01*
X-120096069Y148359681D01*
X-120177009Y148251683D01*
X-120182023Y148242525D01*
X-120229623Y148115553D01*
X-120231753Y148106593D01*
X-120237783Y148051089D01*
X-120238000Y148047079D01*
X-120238000Y147968048D01*
X-125550000Y147968048D01*
X-125550000Y148398048D01*
X-125042000Y148398048D01*
X-125038362Y148388052D01*
X-125033075Y148385000D01*
X-123451049Y148385000D01*
X-123441053Y148388638D01*
X-123438001Y148393925D01*
X-123438001Y148429454D01*
X-123438198Y148433259D01*
X-123448550Y148533034D01*
X-123450251Y148540908D01*
X-123503544Y148700650D01*
X-123507169Y148708389D01*
X-123595653Y148851377D01*
X-123600964Y148858076D01*
X-123719962Y148976868D01*
X-123726672Y148982168D01*
X-123869816Y149070403D01*
X-123877555Y149074011D01*
X-123985824Y149109923D01*
X-121303999Y149109923D01*
X-121303781Y149105909D01*
X-121297753Y149050406D01*
X-121295624Y149041450D01*
X-121248023Y148914475D01*
X-121243009Y148905317D01*
X-121162069Y148797319D01*
X-121154681Y148789931D01*
X-121046683Y148708991D01*
X-121037525Y148703977D01*
X-120910553Y148656377D01*
X-120901593Y148654247D01*
X-120846089Y148648217D01*
X-120842079Y148648000D01*
X-120588048Y148648000D01*
X-120578052Y148651638D01*
X-120575000Y148656925D01*
X-120575000Y149638952D01*
X-120578638Y149648948D01*
X-120583925Y149652000D01*
X-121290951Y149652000D01*
X-121300947Y149648362D01*
X-121303999Y149643075D01*
X-121303999Y149109923D01*
X-123985824Y149109923D01*
X-124037402Y149127031D01*
X-124045263Y149128716D01*
X-124143758Y149138807D01*
X-124147529Y149139000D01*
X-125028952Y149139000D01*
X-125038948Y149135362D01*
X-125042000Y149130075D01*
X-125042000Y148398048D01*
X-125550000Y148398048D01*
X-125550000Y149125951D01*
X-125553638Y149135947D01*
X-125558925Y149138999D01*
X-126172000Y149138999D01*
X-126219566Y149156312D01*
X-126244876Y149200149D01*
X-126246000Y149212999D01*
X-126246000Y150173048D01*
X-121304000Y150173048D01*
X-121300362Y150163052D01*
X-121295075Y150160000D01*
X-120588048Y150160000D01*
X-120578052Y150163638D01*
X-120575000Y150168925D01*
X-120575000Y151150951D01*
X-120578638Y151160947D01*
X-120583925Y151163999D01*
X-120842077Y151163999D01*
X-120846091Y151163781D01*
X-120901594Y151157753D01*
X-120910550Y151155624D01*
X-121037525Y151108023D01*
X-121046683Y151103009D01*
X-121154681Y151022069D01*
X-121162069Y151014681D01*
X-121243009Y150906683D01*
X-121248023Y150897525D01*
X-121295623Y150770553D01*
X-121297753Y150761593D01*
X-121303783Y150706089D01*
X-121304000Y150702079D01*
X-121304000Y150173048D01*
X-126246000Y150173048D01*
X-126246000Y151332000D01*
X-126228687Y151379566D01*
X-126184850Y151404876D01*
X-126172000Y151406000D01*
X-125925200Y151406000D01*
X-125877634Y151388687D01*
G37*
%TD.AperFunction*%
%TA.AperFunction,Conductor*%
G36*
X-116993434Y147937687D02*
G01*
X-116968124Y147893850D01*
X-116967000Y147881000D01*
X-116967000Y146761549D01*
X-116963362Y146751553D01*
X-116958075Y146748501D01*
X-116688833Y146748501D01*
X-116641267Y146731188D01*
X-116615957Y146687351D01*
X-116624747Y146637501D01*
X-116636507Y146622175D01*
X-116796008Y146462674D01*
X-116841884Y146441282D01*
X-116848334Y146441000D01*
X-117268955Y146441000D01*
X-117316521Y146458313D01*
X-117321281Y146462674D01*
X-117465091Y146606484D01*
X-117465095Y146606487D01*
X-117487658Y146629050D01*
X-117487534Y146629174D01*
X-117514068Y146668508D01*
X-117508780Y146718850D01*
X-117482767Y146743973D01*
X-117475000Y146757425D01*
X-117475000Y147881000D01*
X-117457687Y147928566D01*
X-117413850Y147953876D01*
X-117401000Y147955000D01*
X-117041000Y147955000D01*
X-116993434Y147937687D01*
G37*
%TD.AperFunction*%
%TA.AperFunction,Conductor*%
G36*
X-105877634Y151388687D02*
G01*
X-105855127Y151355787D01*
X-105824914Y151266784D01*
X-105814759Y151236867D01*
X-105813464Y151234374D01*
X-105732810Y151079110D01*
X-105695495Y151007275D01*
X-105693842Y151005013D01*
X-105693840Y151005009D01*
X-105585346Y150856500D01*
X-105542875Y150798364D01*
X-105540896Y150796375D01*
X-105414058Y150668871D01*
X-105360411Y150614942D01*
X-105358150Y150613272D01*
X-105301492Y150571424D01*
X-105152302Y150461230D01*
X-105149808Y150459918D01*
X-104925830Y150342077D01*
X-104925823Y150342074D01*
X-104923337Y150340766D01*
X-104678785Y150256321D01*
X-104676024Y150255817D01*
X-104676021Y150255816D01*
X-104581705Y150238591D01*
X-104538023Y150213014D01*
X-104521000Y150165795D01*
X-104521000Y147896100D01*
X-104538313Y147848534D01*
X-104582150Y147823224D01*
X-104595000Y147822100D01*
X-107042255Y147822100D01*
X-107089821Y147839413D01*
X-107094581Y147843774D01*
X-107536791Y148285984D01*
X-107536795Y148285987D01*
X-107559358Y148308550D01*
X-107564547Y148311194D01*
X-107582602Y148320394D01*
X-107592502Y148326461D01*
X-107608896Y148338372D01*
X-107608901Y148338374D01*
X-107613610Y148341796D01*
X-107619148Y148343595D01*
X-107619149Y148343596D01*
X-107638422Y148349858D01*
X-107649150Y148354302D01*
X-107667203Y148363500D01*
X-107672396Y148366146D01*
X-107688156Y148368642D01*
X-107698163Y148370227D01*
X-107709454Y148372938D01*
X-107728726Y148379200D01*
X-107728729Y148379200D01*
X-107734267Y148381000D01*
X-108286474Y148381000D01*
X-108334040Y148398313D01*
X-108352408Y148421404D01*
X-108356779Y148429982D01*
X-108366342Y148448751D01*
X-108460249Y148542658D01*
X-108465439Y148545302D01*
X-108465441Y148545304D01*
X-108573387Y148600305D01*
X-108578580Y148602951D01*
X-108584332Y148603862D01*
X-108584335Y148603863D01*
X-108673881Y148618045D01*
X-108676754Y148618500D01*
X-109255246Y148618500D01*
X-109258119Y148618045D01*
X-109347665Y148603863D01*
X-109347668Y148603862D01*
X-109353420Y148602951D01*
X-109358613Y148600305D01*
X-109466559Y148545304D01*
X-109466561Y148545302D01*
X-109471751Y148542658D01*
X-109565658Y148448751D01*
X-109575221Y148429982D01*
X-109592585Y148395904D01*
X-109629606Y148361382D01*
X-109658519Y148355500D01*
X-110572474Y148355500D01*
X-110620040Y148372813D01*
X-110638408Y148395904D01*
X-110649698Y148418061D01*
X-110652342Y148423251D01*
X-110746249Y148517158D01*
X-110751439Y148519802D01*
X-110751441Y148519804D01*
X-110859387Y148574805D01*
X-110864580Y148577451D01*
X-110870332Y148578362D01*
X-110870335Y148578363D01*
X-110959881Y148592545D01*
X-110962754Y148593000D01*
X-111541246Y148593000D01*
X-111544119Y148592545D01*
X-111633665Y148578363D01*
X-111633668Y148578362D01*
X-111639420Y148577451D01*
X-111644613Y148574805D01*
X-111752559Y148519804D01*
X-111752561Y148519802D01*
X-111757751Y148517158D01*
X-111851658Y148423251D01*
X-111854302Y148418061D01*
X-111854304Y148418059D01*
X-111893162Y148341796D01*
X-111911951Y148304920D01*
X-111912862Y148299168D01*
X-111912863Y148299165D01*
X-111927045Y148209619D01*
X-111927500Y148206746D01*
X-111927500Y147876545D01*
X-111944813Y147828979D01*
X-111949174Y147824219D01*
X-112573484Y147199909D01*
X-112573487Y147199905D01*
X-112596050Y147177342D01*
X-112598694Y147172154D01*
X-112598694Y147172153D01*
X-112607894Y147154098D01*
X-112613961Y147144198D01*
X-112625872Y147127804D01*
X-112625874Y147127799D01*
X-112629296Y147123090D01*
X-112631095Y147117552D01*
X-112631096Y147117551D01*
X-112637358Y147098278D01*
X-112641802Y147087550D01*
X-112650896Y147069701D01*
X-112653646Y147064304D01*
X-112655220Y147054363D01*
X-112657727Y147038537D01*
X-112660438Y147027246D01*
X-112666700Y147007974D01*
X-112668500Y147002433D01*
X-112668500Y146927139D01*
X-112685813Y146879573D01*
X-112729650Y146854263D01*
X-112779500Y146863053D01*
X-112804792Y146889704D01*
X-112805277Y146889352D01*
X-112807952Y146893034D01*
X-112808432Y146893540D01*
X-112811342Y146899251D01*
X-112905249Y146993158D01*
X-112910439Y146995802D01*
X-112910441Y146995804D01*
X-113018387Y147050805D01*
X-113023580Y147053451D01*
X-113029332Y147054362D01*
X-113029335Y147054363D01*
X-113118881Y147068545D01*
X-113121754Y147069000D01*
X-113700246Y147069000D01*
X-113703119Y147068545D01*
X-113792665Y147054363D01*
X-113792668Y147054362D01*
X-113798420Y147053451D01*
X-113803613Y147050805D01*
X-113911559Y146995804D01*
X-113911561Y146995802D01*
X-113916751Y146993158D01*
X-114010658Y146899251D01*
X-114062818Y146796883D01*
X-114099836Y146762363D01*
X-114128750Y146756480D01*
X-114395396Y146756480D01*
X-114442962Y146773793D01*
X-114468272Y146817630D01*
X-114469011Y146838023D01*
X-114460192Y146924091D01*
X-114460085Y146926186D01*
X-114463638Y146935948D01*
X-114468925Y146939000D01*
X-115623000Y146939000D01*
X-115670566Y146956313D01*
X-115695876Y147000150D01*
X-115697000Y147013000D01*
X-115697000Y147460048D01*
X-115189000Y147460048D01*
X-115185362Y147450052D01*
X-115180075Y147447000D01*
X-114473048Y147447000D01*
X-114463052Y147450638D01*
X-114460000Y147455925D01*
X-114460000Y147458124D01*
X-114460197Y147461928D01*
X-114470098Y147557350D01*
X-114471799Y147565224D01*
X-114522786Y147718053D01*
X-114526411Y147725792D01*
X-114611063Y147862588D01*
X-114616365Y147869278D01*
X-114730218Y147982933D01*
X-114736919Y147988225D01*
X-114873858Y148072635D01*
X-114881607Y148076248D01*
X-115034536Y148126972D01*
X-115042387Y148128655D01*
X-115136591Y148138308D01*
X-115140359Y148138500D01*
X-115175952Y148138500D01*
X-115185948Y148134862D01*
X-115189000Y148129575D01*
X-115189000Y147460048D01*
X-115697000Y147460048D01*
X-115697000Y148125452D01*
X-115700638Y148135448D01*
X-115705925Y148138500D01*
X-115745624Y148138500D01*
X-115749428Y148138303D01*
X-115844850Y148128402D01*
X-115852724Y148126701D01*
X-115917082Y148105230D01*
X-115967682Y148106599D01*
X-116005564Y148140173D01*
X-116014501Y148175426D01*
X-116014501Y148191577D01*
X-116014719Y148195591D01*
X-116020747Y148251094D01*
X-116022876Y148260050D01*
X-116070477Y148387025D01*
X-116075491Y148396183D01*
X-116156431Y148504181D01*
X-116163819Y148511569D01*
X-116271817Y148592509D01*
X-116280975Y148597523D01*
X-116407947Y148645123D01*
X-116416907Y148647253D01*
X-116472411Y148653283D01*
X-116476421Y148653500D01*
X-117126215Y148653499D01*
X-117173781Y148670812D01*
X-117199091Y148714649D01*
X-117190301Y148764499D01*
X-117175152Y148783007D01*
X-117129267Y148823460D01*
X-117129266Y148823462D01*
X-117127035Y148825428D01*
X-117081055Y148881406D01*
X-116970553Y149015932D01*
X-116970550Y149015937D01*
X-116968666Y149018230D01*
X-116947484Y149054625D01*
X-116908596Y149087025D01*
X-116857977Y149086849D01*
X-116822001Y149058513D01*
X-116810599Y149041450D01*
X-116790552Y149011448D01*
X-116784491Y149007398D01*
X-116738800Y148976868D01*
X-116724231Y148967133D01*
X-116679705Y148958276D01*
X-116669318Y148956210D01*
X-116669317Y148956210D01*
X-116665748Y148955500D01*
X-115676252Y148955500D01*
X-115672683Y148956210D01*
X-115672682Y148956210D01*
X-115662295Y148958276D01*
X-115617769Y148967133D01*
X-115603199Y148976868D01*
X-115557509Y149007398D01*
X-115551448Y149011448D01*
X-115531401Y149041450D01*
X-115511184Y149071706D01*
X-115511184Y149071707D01*
X-115507133Y149077769D01*
X-115495500Y149136252D01*
X-115495500Y149345455D01*
X-115478187Y149393021D01*
X-115434350Y149418331D01*
X-115384500Y149409541D01*
X-115369174Y149397781D01*
X-114108174Y148136781D01*
X-114086782Y148090905D01*
X-114086500Y148084455D01*
X-114086500Y147754254D01*
X-114086045Y147751381D01*
X-114071863Y147661835D01*
X-114071862Y147661832D01*
X-114070951Y147656080D01*
X-114068305Y147650887D01*
X-114013304Y147542941D01*
X-114013302Y147542939D01*
X-114010658Y147537749D01*
X-113916751Y147443842D01*
X-113911561Y147441198D01*
X-113911559Y147441196D01*
X-113811465Y147390196D01*
X-113798420Y147383549D01*
X-113792668Y147382638D01*
X-113792665Y147382637D01*
X-113703119Y147368455D01*
X-113700246Y147368000D01*
X-113121754Y147368000D01*
X-113118881Y147368455D01*
X-113029335Y147382637D01*
X-113029332Y147382638D01*
X-113023580Y147383549D01*
X-113010535Y147390196D01*
X-112910441Y147441196D01*
X-112910439Y147441198D01*
X-112905249Y147443842D01*
X-112811342Y147537749D01*
X-112808698Y147542939D01*
X-112808696Y147542941D01*
X-112753695Y147650887D01*
X-112751049Y147656080D01*
X-112750138Y147661832D01*
X-112750137Y147661835D01*
X-112735955Y147751381D01*
X-112735500Y147754254D01*
X-112735500Y148257746D01*
X-112739973Y148285987D01*
X-112750137Y148350165D01*
X-112750138Y148350168D01*
X-112751049Y148355920D01*
X-112762911Y148379200D01*
X-112808696Y148469059D01*
X-112808698Y148469061D01*
X-112811342Y148474251D01*
X-112905249Y148568158D01*
X-112910439Y148570802D01*
X-112910441Y148570804D01*
X-113018387Y148625805D01*
X-113023580Y148628451D01*
X-113029332Y148629362D01*
X-113029335Y148629363D01*
X-113118881Y148643545D01*
X-113121754Y148644000D01*
X-113451955Y148644000D01*
X-113499521Y148661313D01*
X-113504281Y148665674D01*
X-115050091Y150211484D01*
X-115050095Y150211487D01*
X-115072658Y150234050D01*
X-115081570Y150238591D01*
X-115095902Y150245894D01*
X-115105802Y150251961D01*
X-115122196Y150263872D01*
X-115122201Y150263874D01*
X-115126910Y150267296D01*
X-115132448Y150269095D01*
X-115132449Y150269096D01*
X-115151722Y150275358D01*
X-115162450Y150279802D01*
X-115180503Y150289000D01*
X-115185696Y150291646D01*
X-115201456Y150294142D01*
X-115211463Y150295727D01*
X-115222754Y150298438D01*
X-115242026Y150304700D01*
X-115242029Y150304700D01*
X-115247567Y150306500D01*
X-115421500Y150306500D01*
X-115469066Y150323813D01*
X-115494376Y150367650D01*
X-115495500Y150380500D01*
X-115495500Y150571424D01*
X-115478187Y150618990D01*
X-115434350Y150644300D01*
X-115384500Y150635510D01*
X-115369038Y150623614D01*
X-115360411Y150614942D01*
X-115358150Y150613272D01*
X-115301492Y150571424D01*
X-115152302Y150461230D01*
X-115149808Y150459918D01*
X-114925830Y150342077D01*
X-114925823Y150342074D01*
X-114923337Y150340766D01*
X-114678785Y150256321D01*
X-114676024Y150255817D01*
X-114676021Y150255816D01*
X-114581705Y150238591D01*
X-114424274Y150209839D01*
X-114421912Y150209715D01*
X-114421910Y150209715D01*
X-114342442Y150205550D01*
X-114342428Y150205550D01*
X-114341481Y150205500D01*
X-114180218Y150205500D01*
X-114108753Y150210936D01*
X-113990818Y150219907D01*
X-113990812Y150219908D01*
X-113988024Y150220120D01*
X-113735985Y150278539D01*
X-113733378Y150279579D01*
X-113733372Y150279581D01*
X-113498290Y150373369D01*
X-113498284Y150373372D01*
X-113495682Y150374410D01*
X-113493263Y150375832D01*
X-113493259Y150375834D01*
X-113275071Y150504101D01*
X-113275067Y150504104D01*
X-113272646Y150505527D01*
X-113072009Y150668871D01*
X-112898387Y150860685D01*
X-112896837Y150863031D01*
X-112896834Y150863035D01*
X-112757333Y151074199D01*
X-112757332Y151074200D01*
X-112755778Y151076553D01*
X-112743581Y151103009D01*
X-112648636Y151308962D01*
X-112648635Y151308964D01*
X-112647462Y151311509D01*
X-112646686Y151314206D01*
X-112646682Y151314217D01*
X-112635680Y151352459D01*
X-112605892Y151393385D01*
X-112564565Y151406000D01*
X-105925200Y151406000D01*
X-105877634Y151388687D01*
G37*
%TD.AperFunction*%
%TD*%
M02*
