M48
; DRILL file {KiCad 6.0.2+dfsg-1~bpo11+1} date Wed Mar 16 17:45:54 2022
; FORMAT={-:-/ absolute / metric / decimal}
; #@! TF.CreationDate,2022-03-16T17:45:54+00:00
; #@! TF.GenerationSoftware,Kicad,Pcbnew,6.0.2+dfsg-1~bpo11+1
; #@! TF.FileFunction,Plated,1,2,PTH
FMAT,2
METRIC
; #@! TA.AperFunction,Plated,PTH,ViaDrill
T1C0.400
%
G90
G05
T1
X-125.73Y145.796
X-125.73Y144.653
X-125.73Y143.51
X-125.603Y149.733
X-125.603Y142.367
X-125.603Y139.192
X-125.095Y146.685
X-124.587Y149.733
X-124.46Y139.192
X-124.079Y143.764
X-123.952Y146.304
X-123.571Y149.733
X-123.317Y139.192
X-122.809Y148.971
X-122.682Y147.574
X-122.555Y141.224
X-122.555Y140.081
X-121.666Y147.574
X-120.396Y146.304
X-120.396Y143.764
X-120.269Y140.208
X-119.634Y145.034
X-115.062Y140.208
X-113.792Y141.351
X-111.633Y150.876
X-111.633Y149.606
X-111.379Y138.176
X-111.252Y145.034
X-110.49Y140.462
X-110.109Y150.876
X-110.109Y146.431
X-109.728Y149.606
X-108.966Y143.764
X-108.712Y150.876
X-108.712Y140.589
X-107.823Y149.606
X-107.442Y146.431
X-107.315Y150.876
X-106.426Y149.606
X-106.172Y146.431
X-105.283Y139.192
X-105.156Y149.606
X-105.029Y146.431
X-101.6Y140.0
X-99.25Y147.05
X-98.55Y141.15
T0
M30
