  0
SECTION
  2
HEADER
  9
$ANGBASE
  50
0.0
  9
$ANGDIR
  70
1
  9
$MEASUREMENT
  70
0
  0
ENDSEC
  0
SECTION
  2
TABLES
  0
TABLE
  2
LTYPE
  70
4
  0
LTYPE
  5
40F
  2
CONTINUOUS
  70
0
  3
Solid line
  72
65
  73
0
  40
0.0
  0
LTYPE
  5
410
  2
DASHDOT
 70
0
  3
Dash Dot ____ _ ____ _
 72
65
 73
4
 40
2.0
 49
1.25
 49
-0.25
 49
0.25
 49
-0.25
  0
LTYPE
  5
411
  2
DASHED
 70
0
  3
Dashed __ __ __ __ __
 72
65
 73
2
 40
0.75
 49
0.5
 49
-0.25
  0
LTYPE
  5
43B
  2
DOTTED
 70
0
  3
Dotted .  .  .  .
 72
65
 73
2
 40
0.2
 49
0.0
 49
-0.2
  0
ENDTAB
  0
TABLE
  2
STYLE
  70
4
  0
STYLE
  2
KICAD
  70
0
  40
0
  41
1
  42
1
  50
0
  71
0
  3
isocp.shx
  0
STYLE
  2
KICADB
  70
0
  40
0
  41
1
  42
1
  50
0
  71
0
  3
isocp.shx
  0
STYLE
  2
KICADI
  70
0
  40
0
  41
1
  42
1
  50
15
  71
0
  3
isocp.shx
  0
STYLE
  2
KICADBI
  70
0
  40
0
  41
1
  42
1
  50
15
  71
0
  3
isocp.shx
  0
ENDTAB
  0
TABLE
  2
LAYER
  70
1
  0
LAYER
  2
BLACK
  70
0
  62
7
  6
CONTINUOUS
  0
ENDTAB
  0
ENDSEC
  0
SECTION
  2
ENTITIES
0
LINE
8
BLACK
6
CONTINUOUS
10
0.5049
20
0.123045
11
0.507694
21
0.121178
0
LINE
8
BLACK
6
CONTINUOUS
10
0.507694
20
0.121178
11
0.509561
21
0.118384
0
LINE
8
BLACK
6
CONTINUOUS
10
0.509561
20
0.118384
11
0.510217
21
0.115089
0
LINE
8
BLACK
6
CONTINUOUS
10
0.510217
20
0.115089
11
0.510217
21
0.0949114
0
LINE
8
BLACK
6
CONTINUOUS
10
0.510217
20
0.0949114
11
0.509561
21
0.0916157
0
LINE
8
BLACK
6
CONTINUOUS
10
0.509561
20
0.0916157
11
0.507694
21
0.0888217
0
LINE
8
BLACK
6
CONTINUOUS
10
0.507694
20
0.0888217
11
0.5049
21
0.0869548
0
LINE
8
BLACK
6
CONTINUOUS
10
0.5049
20
0.0869548
11
0.501604
21
0.0862992
0
LINE
8
BLACK
6
CONTINUOUS
10
0.501604
20
0.0862992
11
0.48438
21
0.0862992
0
LINE
8
BLACK
6
CONTINUOUS
10
0.48438
20
0.0862992
11
0.481084
21
0.0869548
0
LINE
8
BLACK
6
CONTINUOUS
10
0.481084
20
0.0869548
11
0.47829
21
0.0888217
0
LINE
8
BLACK
6
CONTINUOUS
10
0.47829
20
0.0888217
11
0.476423
21
0.0916157
0
LINE
8
BLACK
6
CONTINUOUS
10
0.476423
20
0.0916157
11
0.475768
21
0.0949114
0
LINE
8
BLACK
6
CONTINUOUS
10
0.475768
20
0.0949114
11
0.475768
21
0.0990945
0
LINE
8
BLACK
6
CONTINUOUS
10
0.475768
20
0.0990945
11
0.470478
21
0.0990945
0
LINE
8
BLACK
6
CONTINUOUS
10
0.470478
20
0.0990945
11
0.445947
21
0.0745643
0
LINE
8
BLACK
6
CONTINUOUS
10
0.445947
20
0.0745643
11
0.445274
21
0.0741756
0
LINE
8
BLACK
6
CONTINUOUS
10
0.445274
20
0.0741756
11
0.444724
21
0.0736258
0
LINE
8
BLACK
6
CONTINUOUS
10
0.444724
20
0.0736258
11
0.443973
21
0.0734246
0
LINE
8
BLACK
6
CONTINUOUS
10
0.443973
20
0.0734246
11
0.4433
21
0.0730359
0
LINE
8
BLACK
6
CONTINUOUS
10
0.4433
20
0.0730359
11
0.442523
21
0.0730359
0
LINE
8
BLACK
6
CONTINUOUS
10
0.442523
20
0.0730359
11
0.441772
21
0.0728346
0
LINE
8
BLACK
6
CONTINUOUS
10
0.441772
20
0.0728346
11
0.435039
21
0.0728346
0
LINE
8
BLACK
6
CONTINUOUS
10
0.435039
20
0.0728346
11
0.435039
21
0.0492126
0
LINE
8
BLACK
6
CONTINUOUS
10
0.435039
20
0.0492126
11
0.397638
21
0.0492126
0
LINE
8
BLACK
6
CONTINUOUS
10
0.397638
20
0.0492126
11
0.397638
21
0.108268
0
LINE
8
BLACK
6
CONTINUOUS
10
0.397638
20
0.108268
11
0.435039
21
0.108268
0
LINE
8
BLACK
6
CONTINUOUS
10
0.435039
20
0.108268
11
0.435039
21
0.0846457
0
LINE
8
BLACK
6
CONTINUOUS
10
0.435039
20
0.0846457
11
0.439326
21
0.0846457
0
LINE
8
BLACK
6
CONTINUOUS
10
0.439326
20
0.0846457
11
0.463856
21
0.109176
0
LINE
8
BLACK
6
CONTINUOUS
10
0.463856
20
0.109176
11
0.464529
21
0.109565
0
LINE
8
BLACK
6
CONTINUOUS
10
0.464529
20
0.109565
11
0.465079
21
0.110114
0
LINE
8
BLACK
6
CONTINUOUS
10
0.465079
20
0.110114
11
0.46583
21
0.110316
0
LINE
8
BLACK
6
CONTINUOUS
10
0.46583
20
0.110316
11
0.466503
21
0.110704
0
LINE
8
BLACK
6
CONTINUOUS
10
0.466503
20
0.110704
11
0.467281
21
0.110704
0
LINE
8
BLACK
6
CONTINUOUS
10
0.467281
20
0.110704
11
0.468031
21
0.110906
0
LINE
8
BLACK
6
CONTINUOUS
10
0.468031
20
0.110906
11
0.475768
21
0.110906
0
LINE
8
BLACK
6
CONTINUOUS
10
0.475768
20
0.110906
11
0.475768
21
0.115089
0
LINE
8
BLACK
6
CONTINUOUS
10
0.475768
20
0.115089
11
0.476423
21
0.118384
0
LINE
8
BLACK
6
CONTINUOUS
10
0.476423
20
0.118384
11
0.47829
21
0.121178
0
LINE
8
BLACK
6
CONTINUOUS
10
0.47829
20
0.121178
11
0.481084
21
0.123045
0
LINE
8
BLACK
6
CONTINUOUS
10
0.481084
20
0.123045
11
0.48438
21
0.123701
0
LINE
8
BLACK
6
CONTINUOUS
10
0.48438
20
0.123701
11
0.501604
21
0.123701
0
LINE
8
BLACK
6
CONTINUOUS
10
0.501604
20
0.123701
11
0.5049
21
0.123045
0
LINE
8
BLACK
6
CONTINUOUS
10
0.379606
20
0.175827
11
0.379606
21
0.217559
0
LINE
8
BLACK
6
CONTINUOUS
10
0.379606
20
0.217559
11
0.405197
21
0.217559
0
LINE
8
BLACK
6
CONTINUOUS
10
0.405197
20
0.217559
11
0.405197
21
0.175827
0
LINE
8
BLACK
6
CONTINUOUS
10
0.405197
20
0.175827
11
0.400276
21
0.175827
0
LINE
8
BLACK
6
CONTINUOUS
10
0.400276
20
0.175827
11
0.400276
21
0.16586
0
LINE
8
BLACK
6
CONTINUOUS
10
0.400276
20
0.16586
11
0.408262
21
0.157874
0
LINE
8
BLACK
6
CONTINUOUS
10
0.408262
20
0.157874
11
0.431739
21
0.157874
0
LINE
8
BLACK
6
CONTINUOUS
10
0.431739
20
0.157874
11
0.446299
21
0.172435
0
LINE
8
BLACK
6
CONTINUOUS
10
0.446299
20
0.172435
11
0.446299
21
0.188612
0
LINE
8
BLACK
6
CONTINUOUS
10
0.446299
20
0.188612
11
0.446955
21
0.191908
0
LINE
8
BLACK
6
CONTINUOUS
10
0.446955
20
0.191908
11
0.448822
21
0.194702
0
LINE
8
BLACK
6
CONTINUOUS
10
0.448822
20
0.194702
11
0.451616
21
0.196569
0
LINE
8
BLACK
6
CONTINUOUS
10
0.451616
20
0.196569
11
0.454911
21
0.197224
0
LINE
8
BLACK
6
CONTINUOUS
10
0.454911
20
0.197224
11
0.475089
21
0.197224
0
LINE
8
BLACK
6
CONTINUOUS
10
0.475089
20
0.197224
11
0.478384
21
0.196569
0
LINE
8
BLACK
6
CONTINUOUS
10
0.478384
20
0.196569
11
0.481178
21
0.194702
0
LINE
8
BLACK
6
CONTINUOUS
10
0.481178
20
0.194702
11
0.483045
21
0.191908
0
LINE
8
BLACK
6
CONTINUOUS
10
0.483045
20
0.191908
11
0.483701
21
0.188612
0
LINE
8
BLACK
6
CONTINUOUS
10
0.483701
20
0.188612
11
0.483701
21
0.171388
0
LINE
8
BLACK
6
CONTINUOUS
10
0.483701
20
0.171388
11
0.483045
21
0.168092
0
LINE
8
BLACK
6
CONTINUOUS
10
0.483045
20
0.168092
11
0.481178
21
0.165298
0
LINE
8
BLACK
6
CONTINUOUS
10
0.481178
20
0.165298
11
0.478384
21
0.163431
0
LINE
8
BLACK
6
CONTINUOUS
10
0.478384
20
0.163431
11
0.475089
21
0.162776
0
LINE
8
BLACK
6
CONTINUOUS
10
0.475089
20
0.162776
11
0.458911
21
0.162776
0
LINE
8
BLACK
6
CONTINUOUS
10
0.458911
20
0.162776
11
0.440558
21
0.144423
0
LINE
8
BLACK
6
CONTINUOUS
10
0.440558
20
0.144423
11
0.439443
21
0.143724
0
LINE
8
BLACK
6
CONTINUOUS
10
0.439443
20
0.143724
11
0.438415
21
0.142905
0
LINE
8
BLACK
6
CONTINUOUS
10
0.438415
20
0.142905
11
0.437973
21
0.142804
0
LINE
8
BLACK
6
CONTINUOUS
10
0.437973
20
0.142804
11
0.43759
21
0.142564
0
LINE
8
BLACK
6
CONTINUOUS
10
0.43759
20
0.142564
11
0.436282
21
0.142418
0
LINE
8
BLACK
6
CONTINUOUS
10
0.436282
20
0.142418
11
0.435
21
0.142126
0
LINE
8
BLACK
6
CONTINUOUS
10
0.435
20
0.142126
11
0.423262
21
0.142126
0
LINE
8
BLACK
6
CONTINUOUS
10
0.423262
20
0.142126
11
0.421897
21
0.140761
0
LINE
8
BLACK
6
CONTINUOUS
10
0.421897
20
0.140761
11
0.418928
21
0.138903
0
LINE
8
BLACK
6
CONTINUOUS
10
0.418928
20
0.138903
11
0.415447
21
0.138515
0
LINE
8
BLACK
6
CONTINUOUS
10
0.415447
20
0.138515
11
0.412143
21
0.139676
0
LINE
8
BLACK
6
CONTINUOUS
10
0.412143
20
0.139676
11
0.409697
21
0.142126
0
LINE
8
BLACK
6
CONTINUOUS
10
0.409697
20
0.142126
11
0.329986
21
0.142126
0
LINE
8
BLACK
6
CONTINUOUS
10
0.329986
20
0.142126
11
0.328704
21
0.142421
0
LINE
8
BLACK
6
CONTINUOUS
10
0.328704
20
0.142421
11
0.327398
21
0.142569
0
LINE
8
BLACK
6
CONTINUOUS
10
0.327398
20
0.142569
11
0.327014
21
0.142809
0
LINE
8
BLACK
6
CONTINUOUS
10
0.327014
20
0.142809
11
0.326573
21
0.142911
0
LINE
8
BLACK
6
CONTINUOUS
10
0.326573
20
0.142911
11
0.325546
21
0.143732
0
LINE
8
BLACK
6
CONTINUOUS
10
0.325546
20
0.143732
11
0.324432
21
0.144432
0
LINE
8
BLACK
6
CONTINUOUS
10
0.324432
20
0.144432
11
0.312021
21
0.156844
0
LINE
8
BLACK
6
CONTINUOUS
10
0.312021
20
0.156844
11
0.311323
21
0.157958
0
LINE
8
BLACK
6
CONTINUOUS
10
0.311323
20
0.157958
11
0.310503
21
0.158987
0
LINE
8
BLACK
6
CONTINUOUS
10
0.310503
20
0.158987
11
0.310403
21
0.159428
0
LINE
8
BLACK
6
CONTINUOUS
10
0.310403
20
0.159428
11
0.310162
21
0.159812
0
LINE
8
BLACK
6
CONTINUOUS
10
0.310162
20
0.159812
11
0.310017
21
0.161119
0
LINE
8
BLACK
6
CONTINUOUS
10
0.310017
20
0.161119
11
0.309724
21
0.162402
0
LINE
8
BLACK
6
CONTINUOUS
10
0.309724
20
0.162402
11
0.309724
21
0.175827
0
LINE
8
BLACK
6
CONTINUOUS
10
0.309724
20
0.175827
11
0.304803
21
0.175827
0
LINE
8
BLACK
6
CONTINUOUS
10
0.304803
20
0.175827
11
0.304803
21
0.188819
0
LINE
8
BLACK
6
CONTINUOUS
10
0.304803
20
0.188819
11
0.271569
21
0.188819
0
LINE
8
BLACK
6
CONTINUOUS
10
0.271569
20
0.188819
11
0.260827
21
0.178077
0
LINE
8
BLACK
6
CONTINUOUS
10
0.260827
20
0.178077
11
0.260827
21
0.108268
0
LINE
8
BLACK
6
CONTINUOUS
10
0.260827
20
0.108268
11
0.271654
21
0.108268
0
LINE
8
BLACK
6
CONTINUOUS
10
0.271654
20
0.108268
11
0.271654
21
0.0492126
0
LINE
8
BLACK
6
CONTINUOUS
10
0.271654
20
0.0492126
11
0.234252
21
0.0492126
0
LINE
8
BLACK
6
CONTINUOUS
10
0.234252
20
0.0492126
11
0.234252
21
0.108268
0
LINE
8
BLACK
6
CONTINUOUS
10
0.234252
20
0.108268
11
0.245079
21
0.108268
0
LINE
8
BLACK
6
CONTINUOUS
10
0.245079
20
0.108268
11
0.245079
21
0.181352
0
LINE
8
BLACK
6
CONTINUOUS
10
0.245079
20
0.181352
11
0.245374
21
0.182634
0
LINE
8
BLACK
6
CONTINUOUS
10
0.245374
20
0.182634
11
0.245521
21
0.183941
0
LINE
8
BLACK
6
CONTINUOUS
10
0.245521
20
0.183941
11
0.245762
21
0.184324
0
LINE
8
BLACK
6
CONTINUOUS
10
0.245762
20
0.184324
11
0.245864
21
0.184766
0
LINE
8
BLACK
6
CONTINUOUS
10
0.245864
20
0.184766
11
0.246685
21
0.185793
0
LINE
8
BLACK
6
CONTINUOUS
10
0.246685
20
0.185793
11
0.247385
21
0.186906
0
LINE
8
BLACK
6
CONTINUOUS
10
0.247385
20
0.186906
11
0.257172
21
0.196693
0
LINE
8
BLACK
6
CONTINUOUS
10
0.257172
20
0.196693
11
0.240282
21
0.213583
0
LINE
8
BLACK
6
CONTINUOUS
10
0.240282
20
0.213583
11
0.216144
21
0.213583
0
LINE
8
BLACK
6
CONTINUOUS
10
0.216144
20
0.213583
11
0.216086
21
0.213291
0
LINE
8
BLACK
6
CONTINUOUS
10
0.216086
20
0.213291
11
0.214806
21
0.211375
0
LINE
8
BLACK
6
CONTINUOUS
10
0.214806
20
0.211375
11
0.21289
21
0.210095
0
LINE
8
BLACK
6
CONTINUOUS
10
0.21289
20
0.210095
11
0.21063
21
0.209646
0
LINE
8
BLACK
6
CONTINUOUS
10
0.21063
20
0.209646
11
0.155512
21
0.209646
0
LINE
8
BLACK
6
CONTINUOUS
10
0.155512
20
0.209646
11
0.153252
21
0.210095
0
LINE
8
BLACK
6
CONTINUOUS
10
0.153252
20
0.210095
11
0.151336
21
0.211375
0
LINE
8
BLACK
6
CONTINUOUS
10
0.151336
20
0.211375
11
0.150056
21
0.213291
0
LINE
8
BLACK
6
CONTINUOUS
10
0.150056
20
0.213291
11
0.149998
21
0.213583
0
LINE
8
BLACK
6
CONTINUOUS
10
0.149998
20
0.213583
11
0.10853
21
0.213583
0
LINE
8
BLACK
6
CONTINUOUS
10
0.10853
20
0.213583
11
0.107248
21
0.213877
0
LINE
8
BLACK
6
CONTINUOUS
10
0.107248
20
0.213877
11
0.105941
21
0.214025
0
LINE
8
BLACK
6
CONTINUOUS
10
0.105941
20
0.214025
11
0.105558
21
0.214266
0
LINE
8
BLACK
6
CONTINUOUS
10
0.105558
20
0.214266
11
0.105116
21
0.214368
0
LINE
8
BLACK
6
CONTINUOUS
10
0.105116
20
0.214368
11
0.104089
21
0.215189
0
LINE
8
BLACK
6
CONTINUOUS
10
0.104089
20
0.215189
11
0.102976
21
0.215889
0
LINE
8
BLACK
6
CONTINUOUS
10
0.102976
20
0.215889
11
0.0679457
21
0.250919
0
LINE
8
BLACK
6
CONTINUOUS
10
0.0679457
20
0.250919
11
0.0672477
21
0.252034
0
LINE
8
BLACK
6
CONTINUOUS
10
0.0672477
20
0.252034
11
0.0664281
21
0.253062
0
LINE
8
BLACK
6
CONTINUOUS
10
0.0664281
20
0.253062
11
0.0663274
21
0.253504
0
LINE
8
BLACK
6
CONTINUOUS
10
0.0663274
20
0.253504
11
0.0660872
21
0.253887
0
LINE
8
BLACK
6
CONTINUOUS
10
0.0660872
20
0.253887
11
0.0659417
21
0.255195
0
LINE
8
BLACK
6
CONTINUOUS
10
0.0659417
20
0.255195
11
0.0656492
21
0.256477
0
LINE
8
BLACK
6
CONTINUOUS
10
0.0656492
20
0.256477
11
0.0656492
21
0.333537
0
LINE
8
BLACK
6
CONTINUOUS
10
0.0656492
20
0.333537
11
0.0659439
21
0.334819
0
LINE
8
BLACK
6
CONTINUOUS
10
0.0659439
20
0.334819
11
0.0660917
21
0.336126
0
LINE
8
BLACK
6
CONTINUOUS
10
0.0660917
20
0.336126
11
0.0663326
21
0.336509
0
LINE
8
BLACK
6
CONTINUOUS
10
0.0663326
20
0.336509
11
0.0664341
21
0.33695
0
LINE
8
BLACK
6
CONTINUOUS
10
0.0664341
20
0.33695
11
0.0672557
21
0.337978
0
LINE
8
BLACK
6
CONTINUOUS
10
0.0672557
20
0.337978
11
0.0679554
21
0.339091
0
LINE
8
BLACK
6
CONTINUOUS
10
0.0679554
20
0.339091
11
0.0948826
21
0.366018
0
LINE
8
BLACK
6
CONTINUOUS
10
0.0948826
20
0.366018
11
0.094252
21
0.37
0
LINE
8
BLACK
6
CONTINUOUS
10
0.094252
20
0.37
11
0.0950227
21
0.374866
0
LINE
8
BLACK
6
CONTINUOUS
10
0.0950227
20
0.374866
11
0.0972596
21
0.379256
0
LINE
8
BLACK
6
CONTINUOUS
10
0.0972596
20
0.379256
11
0.100744
21
0.38274
0
LINE
8
BLACK
6
CONTINUOUS
10
0.100744
20
0.38274
11
0.105134
21
0.384977
0
LINE
8
BLACK
6
CONTINUOUS
10
0.105134
20
0.384977
11
0.11
21
0.385748
0
LINE
8
BLACK
6
CONTINUOUS
10
0.11
20
0.385748
11
0.114866
21
0.384977
0
LINE
8
BLACK
6
CONTINUOUS
10
0.114866
20
0.384977
11
0.119256
21
0.38274
0
LINE
8
BLACK
6
CONTINUOUS
10
0.119256
20
0.38274
11
0.12274
21
0.379256
0
LINE
8
BLACK
6
CONTINUOUS
10
0.12274
20
0.379256
11
0.124977
21
0.374866
0
LINE
8
BLACK
6
CONTINUOUS
10
0.124977
20
0.374866
11
0.125748
21
0.37
0
LINE
8
BLACK
6
CONTINUOUS
10
0.125748
20
0.37
11
0.124977
21
0.365134
0
LINE
8
BLACK
6
CONTINUOUS
10
0.124977
20
0.365134
11
0.12274
21
0.360744
0
LINE
8
BLACK
6
CONTINUOUS
10
0.12274
20
0.360744
11
0.119256
21
0.35726
0
LINE
8
BLACK
6
CONTINUOUS
10
0.119256
20
0.35726
11
0.114866
21
0.355023
0
LINE
8
BLACK
6
CONTINUOUS
10
0.114866
20
0.355023
11
0.11
21
0.354252
0
LINE
8
BLACK
6
CONTINUOUS
10
0.11
20
0.354252
11
0.106018
21
0.354883
0
LINE
8
BLACK
6
CONTINUOUS
10
0.106018
20
0.354883
11
0.0813972
21
0.330262
0
LINE
8
BLACK
6
CONTINUOUS
10
0.0813972
20
0.330262
11
0.0813972
21
0.259738
0
LINE
8
BLACK
6
CONTINUOUS
10
0.0813972
20
0.259738
11
0.111805
21
0.229331
0
LINE
8
BLACK
6
CONTINUOUS
10
0.111805
20
0.229331
11
0.149998
21
0.229331
0
LINE
8
BLACK
6
CONTINUOUS
10
0.149998
20
0.229331
11
0.150056
21
0.229622
0
LINE
8
BLACK
6
CONTINUOUS
10
0.150056
20
0.229622
11
0.151336
21
0.231538
0
LINE
8
BLACK
6
CONTINUOUS
10
0.151336
20
0.231538
11
0.153252
21
0.232818
0
LINE
8
BLACK
6
CONTINUOUS
10
0.153252
20
0.232818
11
0.155512
21
0.233268
0
LINE
8
BLACK
6
CONTINUOUS
10
0.155512
20
0.233268
11
0.21063
21
0.233268
0
LINE
8
BLACK
6
CONTINUOUS
10
0.21063
20
0.233268
11
0.21289
21
0.232818
0
LINE
8
BLACK
6
CONTINUOUS
10
0.21289
20
0.232818
11
0.214806
21
0.231538
0
LINE
8
BLACK
6
CONTINUOUS
10
0.214806
20
0.231538
11
0.216086
21
0.229622
0
LINE
8
BLACK
6
CONTINUOUS
10
0.216086
20
0.229622
11
0.216144
21
0.229331
0
LINE
8
BLACK
6
CONTINUOUS
10
0.216144
20
0.229331
11
0.243557
21
0.229331
0
LINE
8
BLACK
6
CONTINUOUS
10
0.243557
20
0.229331
11
0.244839
21
0.229036
0
LINE
8
BLACK
6
CONTINUOUS
10
0.244839
20
0.229036
11
0.246146
21
0.228888
0
LINE
8
BLACK
6
CONTINUOUS
10
0.246146
20
0.228888
11
0.246529
21
0.228647
0
LINE
8
BLACK
6
CONTINUOUS
10
0.246529
20
0.228647
11
0.24697
21
0.228546
0
LINE
8
BLACK
6
CONTINUOUS
10
0.24697
20
0.228546
11
0.247998
21
0.227724
0
LINE
8
BLACK
6
CONTINUOUS
10
0.247998
20
0.227724
11
0.249111
21
0.227024
0
LINE
8
BLACK
6
CONTINUOUS
10
0.249111
20
0.227024
11
0.271569
21
0.204567
0
LINE
8
BLACK
6
CONTINUOUS
10
0.271569
20
0.204567
11
0.304803
21
0.204567
0
LINE
8
BLACK
6
CONTINUOUS
10
0.304803
20
0.204567
11
0.304803
21
0.217559
0
LINE
8
BLACK
6
CONTINUOUS
10
0.304803
20
0.217559
11
0.330394
21
0.217559
0
LINE
8
BLACK
6
CONTINUOUS
10
0.330394
20
0.217559
11
0.330394
21
0.175827
0
LINE
8
BLACK
6
CONTINUOUS
10
0.330394
20
0.175827
11
0.325472
21
0.175827
0
LINE
8
BLACK
6
CONTINUOUS
10
0.325472
20
0.175827
11
0.325472
21
0.165663
0
LINE
8
BLACK
6
CONTINUOUS
10
0.325472
20
0.165663
11
0.333262
21
0.157874
0
LINE
8
BLACK
6
CONTINUOUS
10
0.333262
20
0.157874
11
0.379061
21
0.157874
0
LINE
8
BLACK
6
CONTINUOUS
10
0.379061
20
0.157874
11
0.384528
21
0.16334
0
LINE
8
BLACK
6
CONTINUOUS
10
0.384528
20
0.16334
11
0.384528
21
0.175827
0
LINE
8
BLACK
6
CONTINUOUS
10
0.384528
20
0.175827
11
0.379606
21
0.175827
0
LINE
8
BLACK
6
CONTINUOUS
10
0.642087
20
0.183444
11
0.732751
21
0.183444
0
LINE
8
BLACK
6
CONTINUOUS
10
0.732751
20
0.183444
11
0.734033
21
0.183149
0
LINE
8
BLACK
6
CONTINUOUS
10
0.734033
20
0.183149
11
0.735339
21
0.183002
0
LINE
8
BLACK
6
CONTINUOUS
10
0.735339
20
0.183002
11
0.735723
21
0.182761
0
LINE
8
BLACK
6
CONTINUOUS
10
0.735723
20
0.182761
11
0.736164
21
0.182659
0
LINE
8
BLACK
6
CONTINUOUS
10
0.736164
20
0.182659
11
0.737191
21
0.181838
0
LINE
8
BLACK
6
CONTINUOUS
10
0.737191
20
0.181838
11
0.738305
21
0.181138
0
LINE
8
BLACK
6
CONTINUOUS
10
0.738305
20
0.181138
11
0.766759
21
0.152684
0
LINE
8
BLACK
6
CONTINUOUS
10
0.766759
20
0.152684
11
0.767457
21
0.151569
0
LINE
8
BLACK
6
CONTINUOUS
10
0.767457
20
0.151569
11
0.768276
21
0.150541
0
LINE
8
BLACK
6
CONTINUOUS
10
0.768276
20
0.150541
11
0.768377
21
0.150099
0
LINE
8
BLACK
6
CONTINUOUS
10
0.768377
20
0.150099
11
0.768617
21
0.149716
0
LINE
8
BLACK
6
CONTINUOUS
10
0.768617
20
0.149716
11
0.768763
21
0.148408
0
LINE
8
BLACK
6
CONTINUOUS
10
0.768763
20
0.148408
11
0.769055
21
0.147126
0
LINE
8
BLACK
6
CONTINUOUS
10
0.769055
20
0.147126
11
0.769055
21
0.107798
0
LINE
8
BLACK
6
CONTINUOUS
10
0.769055
20
0.107798
11
0.769656
21
0.10761
0
LINE
8
BLACK
6
CONTINUOUS
10
0.769656
20
0.10761
11
0.774302
21
0.104517
0
LINE
8
BLACK
6
CONTINUOUS
10
0.774302
20
0.104517
11
0.777893
21
0.100245
0
LINE
8
BLACK
6
CONTINUOUS
10
0.777893
20
0.100245
11
0.780141
21
0.0951362
0
LINE
8
BLACK
6
CONTINUOUS
10
0.780141
20
0.0951362
11
0.780833
21
0.0898425
0
LINE
8
BLACK
6
CONTINUOUS
10
0.780833
20
0.0898425
11
0.780866
21
0.0898425
0
LINE
8
BLACK
6
CONTINUOUS
10
0.780866
20
0.0898425
11
0.780866
21
0.0701575
0
LINE
8
BLACK
6
CONTINUOUS
10
0.780866
20
0.0701575
11
0.780833
21
0.0701575
0
LINE
8
BLACK
6
CONTINUOUS
10
0.780833
20
0.0701575
11
0.780865
21
0.069917
0
LINE
8
BLACK
6
CONTINUOUS
10
0.780865
20
0.069917
11
0.780006
21
0.0644021
0
LINE
8
BLACK
6
CONTINUOUS
10
0.780006
20
0.0644021
11
0.777634
21
0.05935
0
LINE
8
BLACK
6
CONTINUOUS
10
0.777634
20
0.05935
11
0.773939
21
0.0551666
0
LINE
8
BLACK
6
CONTINUOUS
10
0.773939
20
0.0551666
11
0.769219
21
0.0521883
0
LINE
8
BLACK
6
CONTINUOUS
10
0.769219
20
0.0521883
11
0.763853
21
0.0506546
0
LINE
8
BLACK
6
CONTINUOUS
10
0.763853
20
0.0506546
11
0.761181
21
0.0506709
0
LINE
8
BLACK
6
CONTINUOUS
10
0.761181
20
0.0506709
11
0.761181
21
0.0504724
0
LINE
8
BLACK
6
CONTINUOUS
10
0.761181
20
0.0504724
11
0.739528
21
0.0504724
0
LINE
8
BLACK
6
CONTINUOUS
10
0.739528
20
0.0504724
11
0.739528
21
0.068189
0
LINE
8
BLACK
6
CONTINUOUS
10
0.739528
20
0.068189
11
0.729685
21
0.068189
0
LINE
8
BLACK
6
CONTINUOUS
10
0.729685
20
0.068189
11
0.729685
21
0.0504724
0
LINE
8
BLACK
6
CONTINUOUS
10
0.729685
20
0.0504724
11
0.690315
21
0.0504724
0
LINE
8
BLACK
6
CONTINUOUS
10
0.690315
20
0.0504724
11
0.690315
21
0.109528
0
LINE
8
BLACK
6
CONTINUOUS
10
0.690315
20
0.109528
11
0.704094
21
0.109528
0
LINE
8
BLACK
6
CONTINUOUS
10
0.704094
20
0.109528
11
0.704094
21
0.129646
0
LINE
8
BLACK
6
CONTINUOUS
10
0.704094
20
0.129646
11
0.700744
21
0.131353
0
LINE
8
BLACK
6
CONTINUOUS
10
0.700744
20
0.131353
11
0.69726
21
0.134837
0
LINE
8
BLACK
6
CONTINUOUS
10
0.69726
20
0.134837
11
0.695023
21
0.139227
0
LINE
8
BLACK
6
CONTINUOUS
10
0.695023
20
0.139227
11
0.694252
21
0.144094
0
LINE
8
BLACK
6
CONTINUOUS
10
0.694252
20
0.144094
11
0.695023
21
0.14896
0
LINE
8
BLACK
6
CONTINUOUS
10
0.695023
20
0.14896
11
0.69726
21
0.15335
0
LINE
8
BLACK
6
CONTINUOUS
10
0.69726
20
0.15335
11
0.700744
21
0.156834
0
LINE
8
BLACK
6
CONTINUOUS
10
0.700744
20
0.156834
11
0.705134
21
0.159071
0
LINE
8
BLACK
6
CONTINUOUS
10
0.705134
20
0.159071
11
0.71
21
0.159842
0
LINE
8
BLACK
6
CONTINUOUS
10
0.71
20
0.159842
11
0.714866
21
0.159071
0
LINE
8
BLACK
6
CONTINUOUS
10
0.714866
20
0.159071
11
0.719256
21
0.156834
0
LINE
8
BLACK
6
CONTINUOUS
10
0.719256
20
0.156834
11
0.72274
21
0.15335
0
LINE
8
BLACK
6
CONTINUOUS
10
0.72274
20
0.15335
11
0.724977
21
0.14896
0
LINE
8
BLACK
6
CONTINUOUS
10
0.724977
20
0.14896
11
0.725748
21
0.144094
0
LINE
8
BLACK
6
CONTINUOUS
10
0.725748
20
0.144094
11
0.724977
21
0.139227
0
LINE
8
BLACK
6
CONTINUOUS
10
0.724977
20
0.139227
11
0.72274
21
0.134837
0
LINE
8
BLACK
6
CONTINUOUS
10
0.72274
20
0.134837
11
0.719256
21
0.131353
0
LINE
8
BLACK
6
CONTINUOUS
10
0.719256
20
0.131353
11
0.715906
21
0.129646
0
LINE
8
BLACK
6
CONTINUOUS
10
0.715906
20
0.129646
11
0.715906
21
0.109528
0
LINE
8
BLACK
6
CONTINUOUS
10
0.715906
20
0.109528
11
0.729685
21
0.109528
0
LINE
8
BLACK
6
CONTINUOUS
10
0.729685
20
0.109528
11
0.729685
21
0.091811
0
LINE
8
BLACK
6
CONTINUOUS
10
0.729685
20
0.091811
11
0.739528
21
0.091811
0
LINE
8
BLACK
6
CONTINUOUS
10
0.739528
20
0.091811
11
0.739528
21
0.109528
0
LINE
8
BLACK
6
CONTINUOUS
10
0.739528
20
0.109528
11
0.753307
21
0.109528
0
LINE
8
BLACK
6
CONTINUOUS
10
0.753307
20
0.109528
11
0.753307
21
0.143864
0
LINE
8
BLACK
6
CONTINUOUS
10
0.753307
20
0.143864
11
0.729475
21
0.167696
0
LINE
8
BLACK
6
CONTINUOUS
10
0.729475
20
0.167696
11
0.636385
21
0.167696
0
LINE
8
BLACK
6
CONTINUOUS
10
0.636385
20
0.167696
11
0.635103
21
0.167991
0
LINE
8
BLACK
6
CONTINUOUS
10
0.635103
20
0.167991
11
0.633796
21
0.168139
0
LINE
8
BLACK
6
CONTINUOUS
10
0.633796
20
0.168139
11
0.633413
21
0.168379
0
LINE
8
BLACK
6
CONTINUOUS
10
0.633413
20
0.168379
11
0.632971
21
0.168481
0
LINE
8
BLACK
6
CONTINUOUS
10
0.632971
20
0.168481
11
0.632244
21
0.169063
0
LINE
8
BLACK
6
CONTINUOUS
10
0.632244
20
0.169063
11
0.632244
21
0.166774
0
LINE
8
BLACK
6
CONTINUOUS
10
0.632244
20
0.166774
11
0.633646
21
0.166552
0
LINE
8
BLACK
6
CONTINUOUS
10
0.633646
20
0.166552
11
0.638036
21
0.164315
0
LINE
8
BLACK
6
CONTINUOUS
10
0.638036
20
0.164315
11
0.64152
21
0.160831
0
LINE
8
BLACK
6
CONTINUOUS
10
0.64152
20
0.160831
11
0.643757
21
0.156441
0
LINE
8
BLACK
6
CONTINUOUS
10
0.643757
20
0.156441
11
0.644528
21
0.151575
0
LINE
8
BLACK
6
CONTINUOUS
10
0.644528
20
0.151575
11
0.643757
21
0.146708
0
LINE
8
BLACK
6
CONTINUOUS
10
0.643757
20
0.146708
11
0.64152
21
0.142318
0
LINE
8
BLACK
6
CONTINUOUS
10
0.64152
20
0.142318
11
0.638036
21
0.138834
0
LINE
8
BLACK
6
CONTINUOUS
10
0.638036
20
0.138834
11
0.633646
21
0.136598
0
LINE
8
BLACK
6
CONTINUOUS
10
0.633646
20
0.136598
11
0.62878
21
0.135827
0
LINE
8
BLACK
6
CONTINUOUS
10
0.62878
20
0.135827
11
0.623913
21
0.136598
0
LINE
8
BLACK
6
CONTINUOUS
10
0.623913
20
0.136598
11
0.619523
21
0.138834
0
LINE
8
BLACK
6
CONTINUOUS
10
0.619523
20
0.138834
11
0.616039
21
0.142318
0
LINE
8
BLACK
6
CONTINUOUS
10
0.616039
20
0.142318
11
0.613802
21
0.146708
0
LINE
8
BLACK
6
CONTINUOUS
10
0.613802
20
0.146708
11
0.613031
21
0.151575
0
LINE
8
BLACK
6
CONTINUOUS
10
0.613031
20
0.151575
11
0.613802
21
0.156441
0
LINE
8
BLACK
6
CONTINUOUS
10
0.613802
20
0.156441
11
0.616039
21
0.160831
0
LINE
8
BLACK
6
CONTINUOUS
10
0.616039
20
0.160831
11
0.616496
21
0.161288
0
LINE
8
BLACK
6
CONTINUOUS
10
0.616496
20
0.161288
11
0.616496
21
0.17185
0
LINE
8
BLACK
6
CONTINUOUS
10
0.616496
20
0.17185
11
0.606654
21
0.17185
0
LINE
8
BLACK
6
CONTINUOUS
10
0.606654
20
0.17185
11
0.606654
21
0.203346
0
LINE
8
BLACK
6
CONTINUOUS
10
0.606654
20
0.203346
11
0.642087
21
0.203346
0
LINE
8
BLACK
6
CONTINUOUS
10
0.642087
20
0.203346
11
0.642087
21
0.183444
0
LINE
8
BLACK
6
CONTINUOUS
10
0.584653
20
0.271483
11
0.585351
21
0.270368
0
LINE
8
BLACK
6
CONTINUOUS
10
0.585351
20
0.270368
11
0.58617
21
0.269339
0
LINE
8
BLACK
6
CONTINUOUS
10
0.58617
20
0.269339
11
0.586271
21
0.268898
0
LINE
8
BLACK
6
CONTINUOUS
10
0.586271
20
0.268898
11
0.586511
21
0.268514
0
LINE
8
BLACK
6
CONTINUOUS
10
0.586511
20
0.268514
11
0.586657
21
0.267207
0
LINE
8
BLACK
6
CONTINUOUS
10
0.586657
20
0.267207
11
0.586949
21
0.265925
0
LINE
8
BLACK
6
CONTINUOUS
10
0.586949
20
0.265925
11
0.586949
21
0.159186
0
LINE
8
BLACK
6
CONTINUOUS
10
0.586949
20
0.159186
11
0.605577
21
0.140558
0
LINE
8
BLACK
6
CONTINUOUS
10
0.605577
20
0.140558
11
0.606276
21
0.139443
0
LINE
8
BLACK
6
CONTINUOUS
10
0.606276
20
0.139443
11
0.607095
21
0.138415
0
LINE
8
BLACK
6
CONTINUOUS
10
0.607095
20
0.138415
11
0.607196
21
0.137973
0
LINE
8
BLACK
6
CONTINUOUS
10
0.607196
20
0.137973
11
0.607436
21
0.13759
0
LINE
8
BLACK
6
CONTINUOUS
10
0.607436
20
0.13759
11
0.607582
21
0.136282
0
LINE
8
BLACK
6
CONTINUOUS
10
0.607582
20
0.136282
11
0.607874
21
0.135
0
LINE
8
BLACK
6
CONTINUOUS
10
0.607874
20
0.135
11
0.607874
21
0.103261
0
LINE
8
BLACK
6
CONTINUOUS
10
0.607874
20
0.103261
11
0.623262
21
0.087874
0
LINE
8
BLACK
6
CONTINUOUS
10
0.623262
20
0.087874
11
0.639134
21
0.087874
0
LINE
8
BLACK
6
CONTINUOUS
10
0.639134
20
0.087874
11
0.639134
21
0.0898425
0
LINE
8
BLACK
6
CONTINUOUS
10
0.639134
20
0.0898425
11
0.63914
21
0.0903235
0
LINE
8
BLACK
6
CONTINUOUS
10
0.63914
20
0.0903235
11
0.640066
21
0.0958274
0
LINE
8
BLACK
6
CONTINUOUS
10
0.640066
20
0.0958274
11
0.642499
21
0.10085
0
LINE
8
BLACK
6
CONTINUOUS
10
0.642499
20
0.10085
11
0.646245
21
0.104988
0
LINE
8
BLACK
6
CONTINUOUS
10
0.646245
20
0.104988
11
0.651001
21
0.107909
0
LINE
8
BLACK
6
CONTINUOUS
10
0.651001
20
0.107909
11
0.656386
21
0.109377
0
LINE
8
BLACK
6
CONTINUOUS
10
0.656386
20
0.109377
11
0.658819
21
0.109332
0
LINE
8
BLACK
6
CONTINUOUS
10
0.658819
20
0.109332
11
0.658819
21
0.109528
0
LINE
8
BLACK
6
CONTINUOUS
10
0.658819
20
0.109528
11
0.680472
21
0.109528
0
LINE
8
BLACK
6
CONTINUOUS
10
0.680472
20
0.109528
11
0.680472
21
0.0504724
0
LINE
8
BLACK
6
CONTINUOUS
10
0.680472
20
0.0504724
11
0.658819
21
0.0504724
0
LINE
8
BLACK
6
CONTINUOUS
10
0.658819
20
0.0504724
11
0.658819
21
0.0506709
0
LINE
8
BLACK
6
CONTINUOUS
10
0.658819
20
0.0506709
11
0.655909
21
0.0506887
0
LINE
8
BLACK
6
CONTINUOUS
10
0.655909
20
0.0506887
11
0.650562
21
0.0522878
0
LINE
8
BLACK
6
CONTINUOUS
10
0.650562
20
0.0522878
11
0.645878
21
0.0553235
0
LINE
8
BLACK
6
CONTINUOUS
10
0.645878
20
0.0553235
11
0.642235
21
0.0595518
0
LINE
8
BLACK
6
CONTINUOUS
10
0.642235
20
0.0595518
11
0.639925
21
0.0646326
0
LINE
8
BLACK
6
CONTINUOUS
10
0.639925
20
0.0646326
11
0.639134
21
0.0701575
0
LINE
8
BLACK
6
CONTINUOUS
10
0.639134
20
0.0701575
11
0.639134
21
0.072126
0
LINE
8
BLACK
6
CONTINUOUS
10
0.639134
20
0.072126
11
0.619986
21
0.072126
0
LINE
8
BLACK
6
CONTINUOUS
10
0.619986
20
0.072126
11
0.618704
21
0.0724208
0
LINE
8
BLACK
6
CONTINUOUS
10
0.618704
20
0.0724208
11
0.617398
21
0.0725685
0
LINE
8
BLACK
6
CONTINUOUS
10
0.617398
20
0.0725685
11
0.617014
21
0.0728094
0
LINE
8
BLACK
6
CONTINUOUS
10
0.617014
20
0.0728094
11
0.616573
21
0.0729109
0
LINE
8
BLACK
6
CONTINUOUS
10
0.616573
20
0.0729109
11
0.615546
21
0.0737324
0
LINE
8
BLACK
6
CONTINUOUS
10
0.615546
20
0.0737324
11
0.614432
21
0.0744322
0
LINE
8
BLACK
6
CONTINUOUS
10
0.614432
20
0.0744322
11
0.594423
21
0.0944419
0
LINE
8
BLACK
6
CONTINUOUS
10
0.594423
20
0.0944419
11
0.593724
21
0.0955569
0
LINE
8
BLACK
6
CONTINUOUS
10
0.593724
20
0.0955569
11
0.592905
21
0.0965854
0
LINE
8
BLACK
6
CONTINUOUS
10
0.592905
20
0.0965854
11
0.592804
21
0.0970267
0
LINE
8
BLACK
6
CONTINUOUS
10
0.592804
20
0.0970267
11
0.592564
21
0.0974105
0
LINE
8
BLACK
6
CONTINUOUS
10
0.592564
20
0.0974105
11
0.592418
21
0.0987178
0
LINE
8
BLACK
6
CONTINUOUS
10
0.592418
20
0.0987178
11
0.592126
21
0.1
0
LINE
8
BLACK
6
CONTINUOUS
10
0.592126
20
0.1
11
0.592126
21
0.131739
0
LINE
8
BLACK
6
CONTINUOUS
10
0.592126
20
0.131739
11
0.573498
21
0.150367
0
LINE
8
BLACK
6
CONTINUOUS
10
0.573498
20
0.150367
11
0.5728
21
0.151482
0
LINE
8
BLACK
6
CONTINUOUS
10
0.5728
20
0.151482
11
0.57198
21
0.15251
0
LINE
8
BLACK
6
CONTINUOUS
10
0.57198
20
0.15251
11
0.571879
21
0.152951
0
LINE
8
BLACK
6
CONTINUOUS
10
0.571879
20
0.152951
11
0.571639
21
0.153335
0
LINE
8
BLACK
6
CONTINUOUS
10
0.571639
20
0.153335
11
0.571494
21
0.154643
0
LINE
8
BLACK
6
CONTINUOUS
10
0.571494
20
0.154643
11
0.571201
21
0.155925
0
LINE
8
BLACK
6
CONTINUOUS
10
0.571201
20
0.155925
11
0.571201
21
0.262663
0
LINE
8
BLACK
6
CONTINUOUS
10
0.571201
20
0.262663
11
0.55332
21
0.280544
0
LINE
8
BLACK
6
CONTINUOUS
10
0.55332
20
0.280544
11
0.552622
21
0.281659
0
LINE
8
BLACK
6
CONTINUOUS
10
0.552622
20
0.281659
11
0.551803
21
0.282688
0
LINE
8
BLACK
6
CONTINUOUS
10
0.551803
20
0.282688
11
0.551702
21
0.283129
0
LINE
8
BLACK
6
CONTINUOUS
10
0.551702
20
0.283129
11
0.551462
21
0.283513
0
LINE
8
BLACK
6
CONTINUOUS
10
0.551462
20
0.283513
11
0.551316
21
0.28482
0
LINE
8
BLACK
6
CONTINUOUS
10
0.551316
20
0.28482
11
0.551024
21
0.286102
0
LINE
8
BLACK
6
CONTINUOUS
10
0.551024
20
0.286102
11
0.551024
21
0.34498
0
LINE
8
BLACK
6
CONTINUOUS
10
0.551024
20
0.34498
11
0.526417
21
0.34498
0
LINE
8
BLACK
6
CONTINUOUS
10
0.526417
20
0.34498
11
0.526417
21
0.344242
0
LINE
8
BLACK
6
CONTINUOUS
10
0.526417
20
0.344242
11
0.525762
21
0.340946
0
LINE
8
BLACK
6
CONTINUOUS
10
0.525762
20
0.340946
11
0.523895
21
0.338152
0
LINE
8
BLACK
6
CONTINUOUS
10
0.523895
20
0.338152
11
0.521101
21
0.336285
0
LINE
8
BLACK
6
CONTINUOUS
10
0.521101
20
0.336285
11
0.517805
21
0.33563
0
LINE
8
BLACK
6
CONTINUOUS
10
0.517805
20
0.33563
11
0.515591
21
0.33563
0
LINE
8
BLACK
6
CONTINUOUS
10
0.515591
20
0.33563
11
0.515591
21
0.327742
0
LINE
8
BLACK
6
CONTINUOUS
10
0.515591
20
0.327742
11
0.515296
21
0.32646
0
LINE
8
BLACK
6
CONTINUOUS
10
0.515296
20
0.32646
11
0.515148
21
0.325153
0
LINE
8
BLACK
6
CONTINUOUS
10
0.515148
20
0.325153
11
0.514907
21
0.32477
0
LINE
8
BLACK
6
CONTINUOUS
10
0.514907
20
0.32477
11
0.514806
21
0.324329
0
LINE
8
BLACK
6
CONTINUOUS
10
0.514806
20
0.324329
11
0.513984
21
0.323302
0
LINE
8
BLACK
6
CONTINUOUS
10
0.513984
20
0.323302
11
0.513284
21
0.322188
0
LINE
8
BLACK
6
CONTINUOUS
10
0.513284
20
0.322188
11
0.468826
21
0.27773
0
LINE
8
BLACK
6
CONTINUOUS
10
0.468826
20
0.27773
11
0.467711
21
0.277032
0
LINE
8
BLACK
6
CONTINUOUS
10
0.467711
20
0.277032
11
0.466682
21
0.276212
0
LINE
8
BLACK
6
CONTINUOUS
10
0.466682
20
0.276212
11
0.466241
21
0.276111
0
LINE
8
BLACK
6
CONTINUOUS
10
0.466241
20
0.276111
11
0.465857
21
0.275871
0
LINE
8
BLACK
6
CONTINUOUS
10
0.465857
20
0.275871
11
0.46455
21
0.275726
0
LINE
8
BLACK
6
CONTINUOUS
10
0.46455
20
0.275726
11
0.463268
21
0.275433
0
LINE
8
BLACK
6
CONTINUOUS
10
0.463268
20
0.275433
11
0.405197
21
0.275433
0
LINE
8
BLACK
6
CONTINUOUS
10
0.405197
20
0.275433
11
0.405197
21
0.262441
0
LINE
8
BLACK
6
CONTINUOUS
10
0.405197
20
0.262441
11
0.379606
21
0.262441
0
LINE
8
BLACK
6
CONTINUOUS
10
0.379606
20
0.262441
11
0.379606
21
0.304173
0
LINE
8
BLACK
6
CONTINUOUS
10
0.379606
20
0.304173
11
0.405197
21
0.304173
0
LINE
8
BLACK
6
CONTINUOUS
10
0.405197
20
0.304173
11
0.405197
21
0.291181
0
LINE
8
BLACK
6
CONTINUOUS
10
0.405197
20
0.291181
11
0.460006
21
0.291181
0
LINE
8
BLACK
6
CONTINUOUS
10
0.460006
20
0.291181
11
0.499843
21
0.331017
0
LINE
8
BLACK
6
CONTINUOUS
10
0.499843
20
0.331017
11
0.499843
21
0.33563
0
LINE
8
BLACK
6
CONTINUOUS
10
0.499843
20
0.33563
11
0.497628
21
0.33563
0
LINE
8
BLACK
6
CONTINUOUS
10
0.497628
20
0.33563
11
0.494332
21
0.336285
0
LINE
8
BLACK
6
CONTINUOUS
10
0.494332
20
0.336285
11
0.491538
21
0.338152
0
LINE
8
BLACK
6
CONTINUOUS
10
0.491538
20
0.338152
11
0.489671
21
0.340946
0
LINE
8
BLACK
6
CONTINUOUS
10
0.489671
20
0.340946
11
0.489016
21
0.344242
0
LINE
8
BLACK
6
CONTINUOUS
10
0.489016
20
0.344242
11
0.489016
21
0.361467
0
LINE
8
BLACK
6
CONTINUOUS
10
0.489016
20
0.361467
11
0.489671
21
0.364762
0
LINE
8
BLACK
6
CONTINUOUS
10
0.489671
20
0.364762
11
0.491538
21
0.367556
0
LINE
8
BLACK
6
CONTINUOUS
10
0.491538
20
0.367556
11
0.494332
21
0.369423
0
LINE
8
BLACK
6
CONTINUOUS
10
0.494332
20
0.369423
11
0.497628
21
0.370079
0
LINE
8
BLACK
6
CONTINUOUS
10
0.497628
20
0.370079
11
0.517805
21
0.370079
0
LINE
8
BLACK
6
CONTINUOUS
10
0.517805
20
0.370079
11
0.521101
21
0.369423
0
LINE
8
BLACK
6
CONTINUOUS
10
0.521101
20
0.369423
11
0.523895
21
0.367556
0
LINE
8
BLACK
6
CONTINUOUS
10
0.523895
20
0.367556
11
0.525762
21
0.364762
0
LINE
8
BLACK
6
CONTINUOUS
10
0.525762
20
0.364762
11
0.526417
21
0.361467
0
LINE
8
BLACK
6
CONTINUOUS
10
0.526417
20
0.361467
11
0.526417
21
0.360728
0
LINE
8
BLACK
6
CONTINUOUS
10
0.526417
20
0.360728
11
0.551024
21
0.360728
0
LINE
8
BLACK
6
CONTINUOUS
10
0.551024
20
0.360728
11
0.551024
21
0.383911
0
LINE
8
BLACK
6
CONTINUOUS
10
0.551024
20
0.383911
11
0.551318
21
0.385193
0
LINE
8
BLACK
6
CONTINUOUS
10
0.551318
20
0.385193
11
0.551466
21
0.3865
0
LINE
8
BLACK
6
CONTINUOUS
10
0.551466
20
0.3865
11
0.551707
21
0.386883
0
LINE
8
BLACK
6
CONTINUOUS
10
0.551707
20
0.386883
11
0.551809
21
0.387325
0
LINE
8
BLACK
6
CONTINUOUS
10
0.551809
20
0.387325
11
0.55263
21
0.388352
0
LINE
8
BLACK
6
CONTINUOUS
10
0.55263
20
0.388352
11
0.55333
21
0.389465
0
LINE
8
BLACK
6
CONTINUOUS
10
0.55333
20
0.389465
11
0.591299
21
0.427435
0
LINE
8
BLACK
6
CONTINUOUS
10
0.591299
20
0.427435
11
0.591299
21
0.443612
0
LINE
8
BLACK
6
CONTINUOUS
10
0.591299
20
0.443612
11
0.591955
21
0.446908
0
LINE
8
BLACK
6
CONTINUOUS
10
0.591955
20
0.446908
11
0.593822
21
0.449702
0
LINE
8
BLACK
6
CONTINUOUS
10
0.593822
20
0.449702
11
0.596616
21
0.451569
0
LINE
8
BLACK
6
CONTINUOUS
10
0.596616
20
0.451569
11
0.599911
21
0.452224
0
LINE
8
BLACK
6
CONTINUOUS
10
0.599911
20
0.452224
11
0.620089
21
0.452224
0
LINE
8
BLACK
6
CONTINUOUS
10
0.620089
20
0.452224
11
0.623384
21
0.451569
0
LINE
8
BLACK
6
CONTINUOUS
10
0.623384
20
0.451569
11
0.626178
21
0.449702
0
LINE
8
BLACK
6
CONTINUOUS
10
0.626178
20
0.449702
11
0.628045
21
0.446908
0
LINE
8
BLACK
6
CONTINUOUS
10
0.628045
20
0.446908
11
0.628701
21
0.443612
0
LINE
8
BLACK
6
CONTINUOUS
10
0.628701
20
0.443612
11
0.628701
21
0.442874
0
LINE
8
BLACK
6
CONTINUOUS
10
0.628701
20
0.442874
11
0.681299
21
0.442874
0
LINE
8
BLACK
6
CONTINUOUS
10
0.681299
20
0.442874
11
0.681299
21
0.444616
0
LINE
8
BLACK
6
CONTINUOUS
10
0.681299
20
0.444616
11
0.681955
21
0.447912
0
LINE
8
BLACK
6
CONTINUOUS
10
0.681955
20
0.447912
11
0.683822
21
0.450706
0
LINE
8
BLACK
6
CONTINUOUS
10
0.683822
20
0.450706
11
0.686616
21
0.452573
0
LINE
8
BLACK
6
CONTINUOUS
10
0.686616
20
0.452573
11
0.689911
21
0.453228
0
LINE
8
BLACK
6
CONTINUOUS
10
0.689911
20
0.453228
11
0.710089
21
0.453228
0
LINE
8
BLACK
6
CONTINUOUS
10
0.710089
20
0.453228
11
0.713384
21
0.452573
0
LINE
8
BLACK
6
CONTINUOUS
10
0.713384
20
0.452573
11
0.716178
21
0.450706
0
LINE
8
BLACK
6
CONTINUOUS
10
0.716178
20
0.450706
11
0.718045
21
0.447912
0
LINE
8
BLACK
6
CONTINUOUS
10
0.718045
20
0.447912
11
0.718701
21
0.444616
0
LINE
8
BLACK
6
CONTINUOUS
10
0.718701
20
0.444616
11
0.718701
21
0.443878
0
LINE
8
BLACK
6
CONTINUOUS
10
0.718701
20
0.443878
11
0.74601
21
0.443878
0
LINE
8
BLACK
6
CONTINUOUS
10
0.74601
20
0.443878
11
0.747292
21
0.443583
0
LINE
8
BLACK
6
CONTINUOUS
10
0.747292
20
0.443583
11
0.748599
21
0.443435
0
LINE
8
BLACK
6
CONTINUOUS
10
0.748599
20
0.443435
11
0.748982
21
0.443195
0
LINE
8
BLACK
6
CONTINUOUS
10
0.748982
20
0.443195
11
0.749423
21
0.443093
0
LINE
8
BLACK
6
CONTINUOUS
10
0.749423
20
0.443093
11
0.75045
21
0.442271
0
LINE
8
BLACK
6
CONTINUOUS
10
0.75045
20
0.442271
11
0.751564
21
0.441572
0
LINE
8
BLACK
6
CONTINUOUS
10
0.751564
20
0.441572
11
0.771262
21
0.421874
0
LINE
8
BLACK
6
CONTINUOUS
10
0.771262
20
0.421874
11
0.920192
21
0.421874
0
LINE
8
BLACK
6
CONTINUOUS
10
0.920192
20
0.421874
11
0.965718
21
0.443311
0
LINE
8
BLACK
6
CONTINUOUS
10
0.965718
20
0.443311
11
0.984442
21
0.462034
0
LINE
8
BLACK
6
CONTINUOUS
10
0.984442
20
0.462034
11
0.985557
21
0.462732
0
LINE
8
BLACK
6
CONTINUOUS
10
0.985557
20
0.462732
11
0.986585
21
0.463552
0
LINE
8
BLACK
6
CONTINUOUS
10
0.986585
20
0.463552
11
0.987027
21
0.463652
0
LINE
8
BLACK
6
CONTINUOUS
10
0.987027
20
0.463652
11
0.98741
21
0.463893
0
LINE
8
BLACK
6
CONTINUOUS
10
0.98741
20
0.463893
11
0.988718
21
0.464038
0
LINE
8
BLACK
6
CONTINUOUS
10
0.988718
20
0.464038
11
0.99
21
0.464331
0
LINE
8
BLACK
6
CONTINUOUS
10
0.99
20
0.464331
11
1.00673
21
0.464331
0
LINE
8
BLACK
6
CONTINUOUS
10
1.00673
20
0.464331
11
1.00673
21
0.466545
0
LINE
8
BLACK
6
CONTINUOUS
10
1.00673
20
0.466545
11
1.00739
21
0.469841
0
LINE
8
BLACK
6
CONTINUOUS
10
1.00739
20
0.469841
11
1.00925
21
0.472635
0
LINE
8
BLACK
6
CONTINUOUS
10
1.00925
20
0.472635
11
1.01205
21
0.474502
0
LINE
8
BLACK
6
CONTINUOUS
10
1.01205
20
0.474502
11
1.01534
21
0.475157
0
LINE
8
BLACK
6
CONTINUOUS
10
1.01534
20
0.475157
11
1.03257
21
0.475157
0
LINE
8
BLACK
6
CONTINUOUS
10
1.03257
20
0.475157
11
1.03586
21
0.474502
0
LINE
8
BLACK
6
CONTINUOUS
10
1.03586
20
0.474502
11
1.03866
21
0.472635
0
LINE
8
BLACK
6
CONTINUOUS
10
1.03866
20
0.472635
11
1.04053
21
0.469841
0
LINE
8
BLACK
6
CONTINUOUS
10
1.04053
20
0.469841
11
1.04118
21
0.466545
0
LINE
8
BLACK
6
CONTINUOUS
10
1.04118
20
0.466545
11
1.04118
21
0.446368
0
LINE
8
BLACK
6
CONTINUOUS
10
1.04118
20
0.446368
11
1.04053
21
0.443072
0
LINE
8
BLACK
6
CONTINUOUS
10
1.04053
20
0.443072
11
1.03866
21
0.440278
0
LINE
8
BLACK
6
CONTINUOUS
10
1.03866
20
0.440278
11
1.03586
21
0.438411
0
LINE
8
BLACK
6
CONTINUOUS
10
1.03586
20
0.438411
11
1.03257
21
0.437756
0
LINE
8
BLACK
6
CONTINUOUS
10
1.03257
20
0.437756
11
1.03183
21
0.437756
0
LINE
8
BLACK
6
CONTINUOUS
10
1.03183
20
0.437756
11
1.03183
21
0.379996
0
LINE
8
BLACK
6
CONTINUOUS
10
1.03183
20
0.379996
11
1.03287
21
0.378338
0
LINE
8
BLACK
6
CONTINUOUS
10
1.03287
20
0.378338
11
1.03326
21
0.374857
0
LINE
8
BLACK
6
CONTINUOUS
10
1.03326
20
0.374857
11
1.0321
21
0.371552
0
LINE
8
BLACK
6
CONTINUOUS
10
1.0321
20
0.371552
11
1.0315
21
0.370953
0
LINE
8
BLACK
6
CONTINUOUS
10
1.0315
20
0.370953
11
1.0315
21
0.34252
0
LINE
8
BLACK
6
CONTINUOUS
10
1.0315
20
0.34252
11
1.0307
21
0.339567
0
LINE
8
BLACK
6
CONTINUOUS
10
1.0307
20
0.339567
11
1.03051
21
0.339374
0
LINE
8
BLACK
6
CONTINUOUS
10
1.03051
20
0.339374
11
1.03051
21
0.330709
0
LINE
8
BLACK
6
CONTINUOUS
10
1.03051
20
0.330709
11
1.02067
21
0.330709
0
LINE
8
BLACK
6
CONTINUOUS
10
1.02067
20
0.330709
11
1.02067
21
0.339374
0
LINE
8
BLACK
6
CONTINUOUS
10
1.02067
20
0.339374
11
1.02048
21
0.339567
0
LINE
8
BLACK
6
CONTINUOUS
10
1.02048
20
0.339567
11
1.01969
21
0.34252
0
LINE
8
BLACK
6
CONTINUOUS
10
1.01969
20
0.34252
11
1.01969
21
0.370361
0
LINE
8
BLACK
6
CONTINUOUS
10
1.01969
20
0.370361
11
1.01838
21
0.371666
0
LINE
8
BLACK
6
CONTINUOUS
10
1.01838
20
0.371666
11
1.01768
21
0.372781
0
LINE
8
BLACK
6
CONTINUOUS
10
1.01768
20
0.372781
11
1.01686
21
0.37381
0
LINE
8
BLACK
6
CONTINUOUS
10
1.01686
20
0.37381
11
1.01676
21
0.374251
0
LINE
8
BLACK
6
CONTINUOUS
10
1.01676
20
0.374251
11
1.01652
21
0.374635
0
LINE
8
BLACK
6
CONTINUOUS
10
1.01652
20
0.374635
11
1.01638
21
0.375942
0
LINE
8
BLACK
6
CONTINUOUS
10
1.01638
20
0.375942
11
1.01608
21
0.377224
0
LINE
8
BLACK
6
CONTINUOUS
10
1.01608
20
0.377224
11
1.01608
21
0.437756
0
LINE
8
BLACK
6
CONTINUOUS
10
1.01608
20
0.437756
11
1.01534
21
0.437756
0
LINE
8
BLACK
6
CONTINUOUS
10
1.01534
20
0.437756
11
1.01205
21
0.438411
0
LINE
8
BLACK
6
CONTINUOUS
10
1.01205
20
0.438411
11
1.00925
21
0.440278
0
LINE
8
BLACK
6
CONTINUOUS
10
1.00925
20
0.440278
11
1.00739
21
0.443072
0
LINE
8
BLACK
6
CONTINUOUS
10
1.00739
20
0.443072
11
1.00673
21
0.446368
0
LINE
8
BLACK
6
CONTINUOUS
10
1.00673
20
0.446368
11
1.00673
21
0.448583
0
LINE
8
BLACK
6
CONTINUOUS
10
1.00673
20
0.448583
11
0.993262
21
0.448583
0
LINE
8
BLACK
6
CONTINUOUS
10
0.993262
20
0.448583
11
0.975873
21
0.431194
0
LINE
8
BLACK
6
CONTINUOUS
10
0.975873
20
0.431194
11
0.97473
21
0.430479
0
LINE
8
BLACK
6
CONTINUOUS
10
0.97473
20
0.430479
11
0.973669
21
0.429648
0
LINE
8
BLACK
6
CONTINUOUS
10
0.973669
20
0.429648
11
0.925295
21
0.40687
0
LINE
8
BLACK
6
CONTINUOUS
10
0.925295
20
0.40687
11
0.923619
21
0.406506
0
LINE
8
BLACK
6
CONTINUOUS
10
0.923619
20
0.406506
11
0.921953
21
0.406126
0
LINE
8
BLACK
6
CONTINUOUS
10
0.921953
20
0.406126
11
0.767986
21
0.406126
0
LINE
8
BLACK
6
CONTINUOUS
10
0.767986
20
0.406126
11
0.766704
21
0.406421
0
LINE
8
BLACK
6
CONTINUOUS
10
0.766704
20
0.406421
11
0.765398
21
0.406569
0
LINE
8
BLACK
6
CONTINUOUS
10
0.765398
20
0.406569
11
0.765014
21
0.406809
0
LINE
8
BLACK
6
CONTINUOUS
10
0.765014
20
0.406809
11
0.764573
21
0.406911
0
LINE
8
BLACK
6
CONTINUOUS
10
0.764573
20
0.406911
11
0.763546
21
0.407732
0
LINE
8
BLACK
6
CONTINUOUS
10
0.763546
20
0.407732
11
0.762432
21
0.408432
0
LINE
8
BLACK
6
CONTINUOUS
10
0.762432
20
0.408432
11
0.742735
21
0.42813
0
LINE
8
BLACK
6
CONTINUOUS
10
0.742735
20
0.42813
11
0.718701
21
0.42813
0
LINE
8
BLACK
6
CONTINUOUS
10
0.718701
20
0.42813
11
0.718701
21
0.427392
0
LINE
8
BLACK
6
CONTINUOUS
10
0.718701
20
0.427392
11
0.718045
21
0.424096
0
LINE
8
BLACK
6
CONTINUOUS
10
0.718045
20
0.424096
11
0.716178
21
0.421302
0
LINE
8
BLACK
6
CONTINUOUS
10
0.716178
20
0.421302
11
0.713384
21
0.419435
0
LINE
8
BLACK
6
CONTINUOUS
10
0.713384
20
0.419435
11
0.710089
21
0.41878
0
LINE
8
BLACK
6
CONTINUOUS
10
0.710089
20
0.41878
11
0.689911
21
0.41878
0
LINE
8
BLACK
6
CONTINUOUS
10
0.689911
20
0.41878
11
0.686616
21
0.419435
0
LINE
8
BLACK
6
CONTINUOUS
10
0.686616
20
0.419435
11
0.683822
21
0.421302
0
LINE
8
BLACK
6
CONTINUOUS
10
0.683822
20
0.421302
11
0.681955
21
0.424096
0
LINE
8
BLACK
6
CONTINUOUS
10
0.681955
20
0.424096
11
0.681352
21
0.427126
0
LINE
8
BLACK
6
CONTINUOUS
10
0.681352
20
0.427126
11
0.628701
21
0.427126
0
LINE
8
BLACK
6
CONTINUOUS
10
0.628701
20
0.427126
11
0.628701
21
0.426388
0
LINE
8
BLACK
6
CONTINUOUS
10
0.628701
20
0.426388
11
0.628045
21
0.423092
0
LINE
8
BLACK
6
CONTINUOUS
10
0.628045
20
0.423092
11
0.626178
21
0.420298
0
LINE
8
BLACK
6
CONTINUOUS
10
0.626178
20
0.420298
11
0.623384
21
0.418431
0
LINE
8
BLACK
6
CONTINUOUS
10
0.623384
20
0.418431
11
0.620089
21
0.417776
0
LINE
8
BLACK
6
CONTINUOUS
10
0.620089
20
0.417776
11
0.603911
21
0.417776
0
LINE
8
BLACK
6
CONTINUOUS
10
0.603911
20
0.417776
11
0.566772
21
0.380636
0
LINE
8
BLACK
6
CONTINUOUS
10
0.566772
20
0.380636
11
0.566772
21
0.289364
0
LINE
8
BLACK
6
CONTINUOUS
10
0.566772
20
0.289364
11
0.584653
21
0.271483
0
LINE
8
BLACK
6
CONTINUOUS
10
0.563346
20
0.209252
11
0.553504
21
0.209252
0
LINE
8
BLACK
6
CONTINUOUS
10
0.553504
20
0.209252
11
0.553504
21
0.123701
0
LINE
8
BLACK
6
CONTINUOUS
10
0.553504
20
0.123701
11
0.563612
21
0.123701
0
LINE
8
BLACK
6
CONTINUOUS
10
0.563612
20
0.123701
11
0.566908
21
0.123045
0
LINE
8
BLACK
6
CONTINUOUS
10
0.566908
20
0.123045
11
0.569702
21
0.121178
0
LINE
8
BLACK
6
CONTINUOUS
10
0.569702
20
0.121178
11
0.571569
21
0.118384
0
LINE
8
BLACK
6
CONTINUOUS
10
0.571569
20
0.118384
11
0.572224
21
0.115089
0
LINE
8
BLACK
6
CONTINUOUS
10
0.572224
20
0.115089
11
0.572224
21
0.0949114
0
LINE
8
BLACK
6
CONTINUOUS
10
0.572224
20
0.0949114
11
0.571569
21
0.0916157
0
LINE
8
BLACK
6
CONTINUOUS
10
0.571569
20
0.0916157
11
0.569702
21
0.0888217
0
LINE
8
BLACK
6
CONTINUOUS
10
0.569702
20
0.0888217
11
0.566908
21
0.0869548
0
LINE
8
BLACK
6
CONTINUOUS
10
0.566908
20
0.0869548
11
0.563612
21
0.0862992
0
LINE
8
BLACK
6
CONTINUOUS
10
0.563612
20
0.0862992
11
0.546388
21
0.0862992
0
LINE
8
BLACK
6
CONTINUOUS
10
0.546388
20
0.0862992
11
0.543092
21
0.0869548
0
LINE
8
BLACK
6
CONTINUOUS
10
0.543092
20
0.0869548
11
0.540298
21
0.0888217
0
LINE
8
BLACK
6
CONTINUOUS
10
0.540298
20
0.0888217
11
0.538431
21
0.0916157
0
LINE
8
BLACK
6
CONTINUOUS
10
0.538431
20
0.0916157
11
0.537776
21
0.0949114
0
LINE
8
BLACK
6
CONTINUOUS
10
0.537776
20
0.0949114
11
0.537776
21
0.114284
0
LINE
8
BLACK
6
CONTINUOUS
10
0.537776
20
0.114284
11
0.537756
21
0.11437
0
LINE
8
BLACK
6
CONTINUOUS
10
0.537756
20
0.11437
11
0.537756
21
0.209252
0
LINE
8
BLACK
6
CONTINUOUS
10
0.537756
20
0.209252
11
0.527913
21
0.209252
0
LINE
8
BLACK
6
CONTINUOUS
10
0.527913
20
0.209252
11
0.527913
21
0.240748
0
LINE
8
BLACK
6
CONTINUOUS
10
0.527913
20
0.240748
11
0.563346
21
0.240748
0
LINE
8
BLACK
6
CONTINUOUS
10
0.563346
20
0.240748
11
0.563346
21
0.209252
0
LINE
8
BLACK
6
CONTINUOUS
10
1.06988
20
0.251177
11
1.07007
21
0.250984
0
LINE
8
BLACK
6
CONTINUOUS
10
1.07007
20
0.250984
11
1.07087
21
0.248031
0
LINE
8
BLACK
6
CONTINUOUS
10
1.07087
20
0.248031
11
1.07087
21
0.224409
0
LINE
8
BLACK
6
CONTINUOUS
10
1.07087
20
0.224409
11
1.07083
21
0.224266
0
LINE
8
BLACK
6
CONTINUOUS
10
1.07083
20
0.224266
11
1.07083
21
0.220079
0
LINE
8
BLACK
6
CONTINUOUS
10
1.07083
20
0.220079
11
1.07087
21
0.219935
0
LINE
8
BLACK
6
CONTINUOUS
10
1.07087
20
0.219935
11
1.07087
21
0.154291
0
LINE
8
BLACK
6
CONTINUOUS
10
1.07087
20
0.154291
11
1.07066
21
0.15354
0
LINE
8
BLACK
6
CONTINUOUS
10
1.07066
20
0.15354
11
1.07066
21
0.152763
0
LINE
8
BLACK
6
CONTINUOUS
10
1.07066
20
0.152763
11
1.07028
21
0.15209
0
LINE
8
BLACK
6
CONTINUOUS
10
1.07028
20
0.15209
11
1.07007
21
0.151339
0
LINE
8
BLACK
6
CONTINUOUS
10
1.07007
20
0.151339
11
1.06953
21
0.150789
0
LINE
8
BLACK
6
CONTINUOUS
10
1.06953
20
0.150789
11
1.06914
21
0.150116
0
LINE
8
BLACK
6
CONTINUOUS
10
1.06914
20
0.150116
11
1.03666
21
0.117635
0
LINE
8
BLACK
6
CONTINUOUS
10
1.03666
20
0.117635
11
1.03598
21
0.117246
0
LINE
8
BLACK
6
CONTINUOUS
10
1.03598
20
0.117246
11
1.03543
21
0.116697
0
LINE
8
BLACK
6
CONTINUOUS
10
1.03543
20
0.116697
11
1.03468
21
0.116495
0
LINE
8
BLACK
6
CONTINUOUS
10
1.03468
20
0.116495
11
1.03401
21
0.116107
0
LINE
8
BLACK
6
CONTINUOUS
10
1.03401
20
0.116107
11
1.03323
21
0.116107
0
LINE
8
BLACK
6
CONTINUOUS
10
1.03323
20
0.116107
11
1.03248
21
0.115906
0
LINE
8
BLACK
6
CONTINUOUS
10
1.03248
20
0.115906
11
1.00445
21
0.115906
0
LINE
8
BLACK
6
CONTINUOUS
10
1.00445
20
0.115906
11
1.00274
21
0.112555
0
LINE
8
BLACK
6
CONTINUOUS
10
1.00274
20
0.112555
11
0.999256
21
0.109071
0
LINE
8
BLACK
6
CONTINUOUS
10
0.999256
20
0.109071
11
0.994866
21
0.106834
0
LINE
8
BLACK
6
CONTINUOUS
10
0.994866
20
0.106834
11
0.99
21
0.106063
0
LINE
8
BLACK
6
CONTINUOUS
10
0.99
20
0.106063
11
0.985134
21
0.106834
0
LINE
8
BLACK
6
CONTINUOUS
10
0.985134
20
0.106834
11
0.980744
21
0.109071
0
LINE
8
BLACK
6
CONTINUOUS
10
0.980744
20
0.109071
11
0.97726
21
0.112555
0
LINE
8
BLACK
6
CONTINUOUS
10
0.97726
20
0.112555
11
0.975023
21
0.116945
0
LINE
8
BLACK
6
CONTINUOUS
10
0.975023
20
0.116945
11
0.974252
21
0.121811
0
LINE
8
BLACK
6
CONTINUOUS
10
0.974252
20
0.121811
11
0.975023
21
0.126677
0
LINE
8
BLACK
6
CONTINUOUS
10
0.975023
20
0.126677
11
0.97726
21
0.131067
0
LINE
8
BLACK
6
CONTINUOUS
10
0.97726
20
0.131067
11
0.980744
21
0.134551
0
LINE
8
BLACK
6
CONTINUOUS
10
0.980744
20
0.134551
11
0.985134
21
0.136788
0
LINE
8
BLACK
6
CONTINUOUS
10
0.985134
20
0.136788
11
0.99
21
0.137559
0
LINE
8
BLACK
6
CONTINUOUS
10
0.99
20
0.137559
11
0.994866
21
0.136788
0
LINE
8
BLACK
6
CONTINUOUS
10
0.994866
20
0.136788
11
0.999256
21
0.134551
0
LINE
8
BLACK
6
CONTINUOUS
10
0.999256
20
0.134551
11
1.00274
21
0.131067
0
LINE
8
BLACK
6
CONTINUOUS
10
1.00274
20
0.131067
11
1.00445
21
0.127717
0
LINE
8
BLACK
6
CONTINUOUS
10
1.00445
20
0.127717
11
1.03003
21
0.127717
0
LINE
8
BLACK
6
CONTINUOUS
10
1.03003
20
0.127717
11
1.05906
21
0.156737
0
LINE
8
BLACK
6
CONTINUOUS
10
1.05906
20
0.156737
11
1.05906
21
0.21983
0
LINE
8
BLACK
6
CONTINUOUS
10
1.05906
20
0.21983
11
1.05902
21
0.219974
0
LINE
8
BLACK
6
CONTINUOUS
10
1.05902
20
0.219974
11
1.05902
21
0.224371
0
LINE
8
BLACK
6
CONTINUOUS
10
1.05902
20
0.224371
11
1.05906
21
0.224515
0
LINE
8
BLACK
6
CONTINUOUS
10
1.05906
20
0.224515
11
1.05906
21
0.248031
0
LINE
8
BLACK
6
CONTINUOUS
10
1.05906
20
0.248031
11
1.05985
21
0.250984
0
LINE
8
BLACK
6
CONTINUOUS
10
1.05985
20
0.250984
11
1.06004
21
0.251177
0
LINE
8
BLACK
6
CONTINUOUS
10
1.06004
20
0.251177
11
1.06004
21
0.259843
0
LINE
8
BLACK
6
CONTINUOUS
10
1.06004
20
0.259843
11
1.06988
21
0.259843
0
LINE
8
BLACK
6
CONTINUOUS
10
1.06988
20
0.259843
11
1.06988
21
0.251177
0
LINE
8
BLACK
6
CONTINUOUS
10
1.0502
20
0.251177
11
1.05039
21
0.250984
0
LINE
8
BLACK
6
CONTINUOUS
10
1.05039
20
0.250984
11
1.05118
21
0.248031
0
LINE
8
BLACK
6
CONTINUOUS
10
1.05118
20
0.248031
11
1.05118
21
0.23271
0
LINE
8
BLACK
6
CONTINUOUS
10
1.05118
20
0.23271
11
1.05116
21
0.232638
0
LINE
8
BLACK
6
CONTINUOUS
10
1.05116
20
0.232638
11
1.05116
21
0.220122
0
LINE
8
BLACK
6
CONTINUOUS
10
1.05116
20
0.220122
11
1.05106
21
0.21975
0
LINE
8
BLACK
6
CONTINUOUS
10
1.05106
20
0.21975
11
1.05106
21
0.200008
0
LINE
8
BLACK
6
CONTINUOUS
10
1.05106
20
0.200008
11
1.05086
21
0.199257
0
LINE
8
BLACK
6
CONTINUOUS
10
1.05086
20
0.199257
11
1.05086
21
0.198479
0
LINE
8
BLACK
6
CONTINUOUS
10
1.05086
20
0.198479
11
1.05047
21
0.197806
0
LINE
8
BLACK
6
CONTINUOUS
10
1.05047
20
0.197806
11
1.05027
21
0.197055
0
LINE
8
BLACK
6
CONTINUOUS
10
1.05027
20
0.197055
11
1.04972
21
0.196505
0
LINE
8
BLACK
6
CONTINUOUS
10
1.04972
20
0.196505
11
1.04933
21
0.195832
0
LINE
8
BLACK
6
CONTINUOUS
10
1.04933
20
0.195832
11
1.0046
21
0.1511
0
LINE
8
BLACK
6
CONTINUOUS
10
1.0046
20
0.1511
11
1.00393
21
0.150711
0
LINE
8
BLACK
6
CONTINUOUS
10
1.00393
20
0.150711
11
1.00338
21
0.150161
0
LINE
8
BLACK
6
CONTINUOUS
10
1.00338
20
0.150161
11
1.00263
21
0.14996
0
LINE
8
BLACK
6
CONTINUOUS
10
1.00263
20
0.14996
11
1.00195
21
0.149571
0
LINE
8
BLACK
6
CONTINUOUS
10
1.00195
20
0.149571
11
1.00118
21
0.149571
0
LINE
8
BLACK
6
CONTINUOUS
10
1.00118
20
0.149571
11
1.00042
21
0.14937
0
LINE
8
BLACK
6
CONTINUOUS
10
1.00042
20
0.14937
11
0.956535
21
0.14937
0
LINE
8
BLACK
6
CONTINUOUS
10
0.956535
20
0.14937
11
0.955784
21
0.149571
0
LINE
8
BLACK
6
CONTINUOUS
10
0.955784
20
0.149571
11
0.955007
21
0.149571
0
LINE
8
BLACK
6
CONTINUOUS
10
0.955007
20
0.149571
11
0.954334
21
0.14996
0
LINE
8
BLACK
6
CONTINUOUS
10
0.954334
20
0.14996
11
0.953583
21
0.150161
0
LINE
8
BLACK
6
CONTINUOUS
10
0.953583
20
0.150161
11
0.953033
21
0.150711
0
LINE
8
BLACK
6
CONTINUOUS
10
0.953033
20
0.150711
11
0.95236
21
0.1511
0
LINE
8
BLACK
6
CONTINUOUS
10
0.95236
20
0.1511
11
0.941365
21
0.162094
0
LINE
8
BLACK
6
CONTINUOUS
10
0.941365
20
0.162094
11
0.797
21
0.162094
0
LINE
8
BLACK
6
CONTINUOUS
10
0.797
20
0.162094
11
0.796249
21
0.162296
0
LINE
8
BLACK
6
CONTINUOUS
10
0.796249
20
0.162296
11
0.795472
21
0.162296
0
LINE
8
BLACK
6
CONTINUOUS
10
0.795472
20
0.162296
11
0.794798
21
0.162684
0
LINE
8
BLACK
6
CONTINUOUS
10
0.794798
20
0.162684
11
0.794047
21
0.162886
0
LINE
8
BLACK
6
CONTINUOUS
10
0.794047
20
0.162886
11
0.793497
21
0.163435
0
LINE
8
BLACK
6
CONTINUOUS
10
0.793497
20
0.163435
11
0.792824
21
0.163824
0
LINE
8
BLACK
6
CONTINUOUS
10
0.792824
20
0.163824
11
0.765061
21
0.191587
0
LINE
8
BLACK
6
CONTINUOUS
10
0.765061
20
0.191587
11
0.763612
21
0.191299
0
LINE
8
BLACK
6
CONTINUOUS
10
0.763612
20
0.191299
11
0.746388
21
0.191299
0
LINE
8
BLACK
6
CONTINUOUS
10
0.746388
20
0.191299
11
0.743092
21
0.191955
0
LINE
8
BLACK
6
CONTINUOUS
10
0.743092
20
0.191955
11
0.740298
21
0.193822
0
LINE
8
BLACK
6
CONTINUOUS
10
0.740298
20
0.193822
11
0.738431
21
0.196616
0
LINE
8
BLACK
6
CONTINUOUS
10
0.738431
20
0.196616
11
0.737776
21
0.199911
0
LINE
8
BLACK
6
CONTINUOUS
10
0.737776
20
0.199911
11
0.737776
21
0.220089
0
LINE
8
BLACK
6
CONTINUOUS
10
0.737776
20
0.220089
11
0.738431
21
0.223384
0
LINE
8
BLACK
6
CONTINUOUS
10
0.738431
20
0.223384
11
0.740298
21
0.226178
0
LINE
8
BLACK
6
CONTINUOUS
10
0.740298
20
0.226178
11
0.743092
21
0.228045
0
LINE
8
BLACK
6
CONTINUOUS
10
0.743092
20
0.228045
11
0.746388
21
0.228701
0
LINE
8
BLACK
6
CONTINUOUS
10
0.746388
20
0.228701
11
0.763612
21
0.228701
0
LINE
8
BLACK
6
CONTINUOUS
10
0.763612
20
0.228701
11
0.766908
21
0.228045
0
LINE
8
BLACK
6
CONTINUOUS
10
0.766908
20
0.228045
11
0.769702
21
0.226178
0
LINE
8
BLACK
6
CONTINUOUS
10
0.769702
20
0.226178
11
0.771569
21
0.223384
0
LINE
8
BLACK
6
CONTINUOUS
10
0.771569
20
0.223384
11
0.772224
21
0.220089
0
LINE
8
BLACK
6
CONTINUOUS
10
0.772224
20
0.220089
11
0.772224
21
0.201127
0
LINE
8
BLACK
6
CONTINUOUS
10
0.772224
20
0.201127
11
0.799446
21
0.173906
0
LINE
8
BLACK
6
CONTINUOUS
10
0.799446
20
0.173906
11
0.943811
21
0.173906
0
LINE
8
BLACK
6
CONTINUOUS
10
0.943811
20
0.173906
11
0.944562
21
0.173704
0
LINE
8
BLACK
6
CONTINUOUS
10
0.944562
20
0.173704
11
0.945339
21
0.173704
0
LINE
8
BLACK
6
CONTINUOUS
10
0.945339
20
0.173704
11
0.946013
21
0.173316
0
LINE
8
BLACK
6
CONTINUOUS
10
0.946013
20
0.173316
11
0.946764
21
0.173114
0
LINE
8
BLACK
6
CONTINUOUS
10
0.946764
20
0.173114
11
0.947314
21
0.172565
0
LINE
8
BLACK
6
CONTINUOUS
10
0.947314
20
0.172565
11
0.947987
21
0.172176
0
LINE
8
BLACK
6
CONTINUOUS
10
0.947987
20
0.172176
11
0.958982
21
0.161181
0
LINE
8
BLACK
6
CONTINUOUS
10
0.958982
20
0.161181
11
0.997979
21
0.161181
0
LINE
8
BLACK
6
CONTINUOUS
10
0.997979
20
0.161181
11
1.03925
21
0.202454
0
LINE
8
BLACK
6
CONTINUOUS
10
1.03925
20
0.202454
11
1.03925
21
0.220022
0
LINE
8
BLACK
6
CONTINUOUS
10
1.03925
20
0.220022
11
1.03935
21
0.220394
0
LINE
8
BLACK
6
CONTINUOUS
10
1.03935
20
0.220394
11
1.03935
21
0.232691
0
LINE
8
BLACK
6
CONTINUOUS
10
1.03935
20
0.232691
11
1.03937
21
0.232762
0
LINE
8
BLACK
6
CONTINUOUS
10
1.03937
20
0.232762
11
1.03937
21
0.248031
0
LINE
8
BLACK
6
CONTINUOUS
10
1.03937
20
0.248031
11
1.04016
21
0.250984
0
LINE
8
BLACK
6
CONTINUOUS
10
1.04016
20
0.250984
11
1.04035
21
0.251177
0
LINE
8
BLACK
6
CONTINUOUS
10
1.04035
20
0.251177
11
1.04035
21
0.259843
0
LINE
8
BLACK
6
CONTINUOUS
10
1.04035
20
0.259843
11
1.0502
21
0.259843
0
LINE
8
BLACK
6
CONTINUOUS
10
1.0502
20
0.259843
11
1.0502
21
0.251177
0
LINE
8
BLACK
6
CONTINUOUS
10
1.08957
20
0.251177
11
1.08976
21
0.250984
0
LINE
8
BLACK
6
CONTINUOUS
10
1.08976
20
0.250984
11
1.09055
21
0.248031
0
LINE
8
BLACK
6
CONTINUOUS
10
1.09055
20
0.248031
11
1.09055
21
0.218588
0
LINE
8
BLACK
6
CONTINUOUS
10
1.09055
20
0.218588
11
1.11425
21
0.194884
0
LINE
8
BLACK
6
CONTINUOUS
10
1.11425
20
0.194884
11
1.11464
21
0.194211
0
LINE
8
BLACK
6
CONTINUOUS
10
1.11464
20
0.194211
11
1.11519
21
0.193661
0
LINE
8
BLACK
6
CONTINUOUS
10
1.11519
20
0.193661
11
1.11539
21
0.19291
0
LINE
8
BLACK
6
CONTINUOUS
10
1.11539
20
0.19291
11
1.11578
21
0.192237
0
LINE
8
BLACK
6
CONTINUOUS
10
1.11578
20
0.192237
11
1.11578
21
0.19146
0
LINE
8
BLACK
6
CONTINUOUS
10
1.11578
20
0.19146
11
1.11598
21
0.190709
0
LINE
8
BLACK
6
CONTINUOUS
10
1.11598
20
0.190709
11
1.11598
21
0.181534
0
LINE
8
BLACK
6
CONTINUOUS
10
1.11598
20
0.181534
11
1.11934
21
0.179827
0
LINE
8
BLACK
6
CONTINUOUS
10
1.11934
20
0.179827
11
1.12282
21
0.176343
0
LINE
8
BLACK
6
CONTINUOUS
10
1.12282
20
0.176343
11
1.12506
21
0.171953
0
LINE
8
BLACK
6
CONTINUOUS
10
1.12506
20
0.171953
11
1.12583
21
0.167087
0
LINE
8
BLACK
6
CONTINUOUS
10
1.12583
20
0.167087
11
1.12506
21
0.16222
0
LINE
8
BLACK
6
CONTINUOUS
10
1.12506
20
0.16222
11
1.12282
21
0.15783
0
LINE
8
BLACK
6
CONTINUOUS
10
1.12282
20
0.15783
11
1.11934
21
0.154346
0
LINE
8
BLACK
6
CONTINUOUS
10
1.11934
20
0.154346
11
1.11495
21
0.152109
0
LINE
8
BLACK
6
CONTINUOUS
10
1.11495
20
0.152109
11
1.11008
21
0.151339
0
LINE
8
BLACK
6
CONTINUOUS
10
1.11008
20
0.151339
11
1.10521
21
0.152109
0
LINE
8
BLACK
6
CONTINUOUS
10
1.10521
20
0.152109
11
1.10082
21
0.154346
0
LINE
8
BLACK
6
CONTINUOUS
10
1.10082
20
0.154346
11
1.09734
21
0.15783
0
LINE
8
BLACK
6
CONTINUOUS
10
1.09734
20
0.15783
11
1.0951
21
0.16222
0
LINE
8
BLACK
6
CONTINUOUS
10
1.0951
20
0.16222
11
1.09433
21
0.167087
0
LINE
8
BLACK
6
CONTINUOUS
10
1.09433
20
0.167087
11
1.0951
21
0.171953
0
LINE
8
BLACK
6
CONTINUOUS
10
1.0951
20
0.171953
11
1.09734
21
0.176343
0
LINE
8
BLACK
6
CONTINUOUS
10
1.09734
20
0.176343
11
1.10082
21
0.179827
0
LINE
8
BLACK
6
CONTINUOUS
10
1.10082
20
0.179827
11
1.10417
21
0.181534
0
LINE
8
BLACK
6
CONTINUOUS
10
1.10417
20
0.181534
11
1.10417
21
0.188263
0
LINE
8
BLACK
6
CONTINUOUS
10
1.10417
20
0.188263
11
1.08047
21
0.211966
0
LINE
8
BLACK
6
CONTINUOUS
10
1.08047
20
0.211966
11
1.08008
21
0.212639
0
LINE
8
BLACK
6
CONTINUOUS
10
1.08008
20
0.212639
11
1.07953
21
0.213189
0
LINE
8
BLACK
6
CONTINUOUS
10
1.07953
20
0.213189
11
1.07933
21
0.21394
0
LINE
8
BLACK
6
CONTINUOUS
10
1.07933
20
0.21394
11
1.07894
21
0.214613
0
LINE
8
BLACK
6
CONTINUOUS
10
1.07894
20
0.214613
11
1.07894
21
0.215391
0
LINE
8
BLACK
6
CONTINUOUS
10
1.07894
20
0.215391
11
1.07874
21
0.216142
0
LINE
8
BLACK
6
CONTINUOUS
10
1.07874
20
0.216142
11
1.07874
21
0.248031
0
LINE
8
BLACK
6
CONTINUOUS
10
1.07874
20
0.248031
11
1.07953
21
0.250984
0
LINE
8
BLACK
6
CONTINUOUS
10
1.07953
20
0.250984
11
1.07972
21
0.251177
0
LINE
8
BLACK
6
CONTINUOUS
10
1.07972
20
0.251177
11
1.07972
21
0.259843
0
LINE
8
BLACK
6
CONTINUOUS
10
1.07972
20
0.259843
11
1.08957
21
0.259843
0
LINE
8
BLACK
6
CONTINUOUS
10
1.08957
20
0.259843
11
1.08957
21
0.251177
0
LINE
8
BLACK
6
CONTINUOUS
10
0.478384
20
0.258577
11
0.481178
21
0.25671
0
LINE
8
BLACK
6
CONTINUOUS
10
0.481178
20
0.25671
11
0.483045
21
0.253916
0
LINE
8
BLACK
6
CONTINUOUS
10
0.483045
20
0.253916
11
0.483701
21
0.25062
0
LINE
8
BLACK
6
CONTINUOUS
10
0.483701
20
0.25062
11
0.483701
21
0.244094
0
LINE
8
BLACK
6
CONTINUOUS
10
0.483701
20
0.244094
11
0.490866
21
0.244094
0
LINE
8
BLACK
6
CONTINUOUS
10
0.490866
20
0.244094
11
0.491571
21
0.245477
0
LINE
8
BLACK
6
CONTINUOUS
10
0.491571
20
0.245477
11
0.495054
21
0.248961
0
LINE
8
BLACK
6
CONTINUOUS
10
0.495054
20
0.248961
11
0.499445
21
0.251198
0
LINE
8
BLACK
6
CONTINUOUS
10
0.499445
20
0.251198
11
0.504311
21
0.251969
0
LINE
8
BLACK
6
CONTINUOUS
10
0.504311
20
0.251969
11
0.509177
21
0.251198
0
LINE
8
BLACK
6
CONTINUOUS
10
0.509177
20
0.251198
11
0.513567
21
0.248961
0
LINE
8
BLACK
6
CONTINUOUS
10
0.513567
20
0.248961
11
0.517051
21
0.245477
0
LINE
8
BLACK
6
CONTINUOUS
10
0.517051
20
0.245477
11
0.519288
21
0.241087
0
LINE
8
BLACK
6
CONTINUOUS
10
0.519288
20
0.241087
11
0.520059
21
0.23622
0
LINE
8
BLACK
6
CONTINUOUS
10
0.520059
20
0.23622
11
0.519288
21
0.231354
0
LINE
8
BLACK
6
CONTINUOUS
10
0.519288
20
0.231354
11
0.517051
21
0.226964
0
LINE
8
BLACK
6
CONTINUOUS
10
0.517051
20
0.226964
11
0.513567
21
0.22348
0
LINE
8
BLACK
6
CONTINUOUS
10
0.513567
20
0.22348
11
0.509177
21
0.221243
0
LINE
8
BLACK
6
CONTINUOUS
10
0.509177
20
0.221243
11
0.504311
21
0.220472
0
LINE
8
BLACK
6
CONTINUOUS
10
0.504311
20
0.220472
11
0.499445
21
0.221243
0
LINE
8
BLACK
6
CONTINUOUS
10
0.499445
20
0.221243
11
0.495054
21
0.22348
0
LINE
8
BLACK
6
CONTINUOUS
10
0.495054
20
0.22348
11
0.491571
21
0.226964
0
LINE
8
BLACK
6
CONTINUOUS
10
0.491571
20
0.226964
11
0.490866
21
0.228346
0
LINE
8
BLACK
6
CONTINUOUS
10
0.490866
20
0.228346
11
0.481874
21
0.228346
0
LINE
8
BLACK
6
CONTINUOUS
10
0.481874
20
0.228346
11
0.481178
21
0.227306
0
LINE
8
BLACK
6
CONTINUOUS
10
0.481178
20
0.227306
11
0.478384
21
0.225439
0
LINE
8
BLACK
6
CONTINUOUS
10
0.478384
20
0.225439
11
0.475089
21
0.224783
0
LINE
8
BLACK
6
CONTINUOUS
10
0.475089
20
0.224783
11
0.454911
21
0.224783
0
LINE
8
BLACK
6
CONTINUOUS
10
0.454911
20
0.224783
11
0.451616
21
0.225439
0
LINE
8
BLACK
6
CONTINUOUS
10
0.451616
20
0.225439
11
0.448822
21
0.227306
0
LINE
8
BLACK
6
CONTINUOUS
10
0.448822
20
0.227306
11
0.446955
21
0.2301
0
LINE
8
BLACK
6
CONTINUOUS
10
0.446955
20
0.2301
11
0.446299
21
0.233396
0
LINE
8
BLACK
6
CONTINUOUS
10
0.446299
20
0.233396
11
0.446299
21
0.234134
0
LINE
8
BLACK
6
CONTINUOUS
10
0.446299
20
0.234134
11
0.374394
21
0.234134
0
LINE
8
BLACK
6
CONTINUOUS
10
0.374394
20
0.234134
11
0.374843
21
0.231299
0
LINE
8
BLACK
6
CONTINUOUS
10
0.374843
20
0.231299
11
0.374072
21
0.226433
0
LINE
8
BLACK
6
CONTINUOUS
10
0.374072
20
0.226433
11
0.371835
21
0.222043
0
LINE
8
BLACK
6
CONTINUOUS
10
0.371835
20
0.222043
11
0.368351
21
0.218559
0
LINE
8
BLACK
6
CONTINUOUS
10
0.368351
20
0.218559
11
0.366389
21
0.217559
0
LINE
8
BLACK
6
CONTINUOUS
10
0.366389
20
0.217559
11
0.367795
21
0.217559
0
LINE
8
BLACK
6
CONTINUOUS
10
0.367795
20
0.217559
11
0.367795
21
0.175827
0
LINE
8
BLACK
6
CONTINUOUS
10
0.367795
20
0.175827
11
0.342205
21
0.175827
0
LINE
8
BLACK
6
CONTINUOUS
10
0.342205
20
0.175827
11
0.342205
21
0.217559
0
LINE
8
BLACK
6
CONTINUOUS
10
0.342205
20
0.217559
11
0.347126
21
0.217559
0
LINE
8
BLACK
6
CONTINUOUS
10
0.347126
20
0.217559
11
0.347126
21
0.221271
0
LINE
8
BLACK
6
CONTINUOUS
10
0.347126
20
0.221271
11
0.346354
21
0.222043
0
LINE
8
BLACK
6
CONTINUOUS
10
0.346354
20
0.222043
11
0.344117
21
0.226433
0
LINE
8
BLACK
6
CONTINUOUS
10
0.344117
20
0.226433
11
0.343346
21
0.231299
0
LINE
8
BLACK
6
CONTINUOUS
10
0.343346
20
0.231299
11
0.344117
21
0.236166
0
LINE
8
BLACK
6
CONTINUOUS
10
0.344117
20
0.236166
11
0.346354
21
0.240556
0
LINE
8
BLACK
6
CONTINUOUS
10
0.346354
20
0.240556
11
0.349838
21
0.24404
0
LINE
8
BLACK
6
CONTINUOUS
10
0.349838
20
0.24404
11
0.354228
21
0.246276
0
LINE
8
BLACK
6
CONTINUOUS
10
0.354228
20
0.246276
11
0.359094
21
0.247047
0
LINE
8
BLACK
6
CONTINUOUS
10
0.359094
20
0.247047
11
0.363076
21
0.246417
0
LINE
8
BLACK
6
CONTINUOUS
10
0.363076
20
0.246417
11
0.364245
21
0.247585
0
LINE
8
BLACK
6
CONTINUOUS
10
0.364245
20
0.247585
11
0.36536
21
0.248283
0
LINE
8
BLACK
6
CONTINUOUS
10
0.36536
20
0.248283
11
0.366389
21
0.249103
0
LINE
8
BLACK
6
CONTINUOUS
10
0.366389
20
0.249103
11
0.36683
21
0.249204
0
LINE
8
BLACK
6
CONTINUOUS
10
0.36683
20
0.249204
11
0.367214
21
0.249444
0
LINE
8
BLACK
6
CONTINUOUS
10
0.367214
20
0.249444
11
0.368521
21
0.249589
0
LINE
8
BLACK
6
CONTINUOUS
10
0.368521
20
0.249589
11
0.369803
21
0.249882
0
LINE
8
BLACK
6
CONTINUOUS
10
0.369803
20
0.249882
11
0.446299
21
0.249882
0
LINE
8
BLACK
6
CONTINUOUS
10
0.446299
20
0.249882
11
0.446299
21
0.25062
0
LINE
8
BLACK
6
CONTINUOUS
10
0.446299
20
0.25062
11
0.446955
21
0.253916
0
LINE
8
BLACK
6
CONTINUOUS
10
0.446955
20
0.253916
11
0.448822
21
0.25671
0
LINE
8
BLACK
6
CONTINUOUS
10
0.448822
20
0.25671
11
0.451616
21
0.258577
0
LINE
8
BLACK
6
CONTINUOUS
10
0.451616
20
0.258577
11
0.454911
21
0.259232
0
LINE
8
BLACK
6
CONTINUOUS
10
0.454911
20
0.259232
11
0.475089
21
0.259232
0
LINE
8
BLACK
6
CONTINUOUS
10
0.475089
20
0.259232
11
0.478384
21
0.258577
0
LINE
8
BLACK
6
CONTINUOUS
10
0.642087
20
0.259049
11
0.655762
21
0.245374
0
LINE
8
BLACK
6
CONTINUOUS
10
0.655762
20
0.245374
11
0.667514
21
0.245374
0
LINE
8
BLACK
6
CONTINUOUS
10
0.667514
20
0.245374
11
0.668796
21
0.245079
0
LINE
8
BLACK
6
CONTINUOUS
10
0.668796
20
0.245079
11
0.670102
21
0.244931
0
LINE
8
BLACK
6
CONTINUOUS
10
0.670102
20
0.244931
11
0.670486
21
0.244691
0
LINE
8
BLACK
6
CONTINUOUS
10
0.670486
20
0.244691
11
0.670927
21
0.244589
0
LINE
8
BLACK
6
CONTINUOUS
10
0.670927
20
0.244589
11
0.671954
21
0.243768
0
LINE
8
BLACK
6
CONTINUOUS
10
0.671954
20
0.243768
11
0.673068
21
0.243068
0
LINE
8
BLACK
6
CONTINUOUS
10
0.673068
20
0.243068
11
0.687435
21
0.228701
0
LINE
8
BLACK
6
CONTINUOUS
10
0.687435
20
0.228701
11
0.701604
21
0.228701
0
LINE
8
BLACK
6
CONTINUOUS
10
0.701604
20
0.228701
11
0.7049
21
0.228045
0
LINE
8
BLACK
6
CONTINUOUS
10
0.7049
20
0.228045
11
0.707694
21
0.226178
0
LINE
8
BLACK
6
CONTINUOUS
10
0.707694
20
0.226178
11
0.709561
21
0.223384
0
LINE
8
BLACK
6
CONTINUOUS
10
0.709561
20
0.223384
11
0.710217
21
0.220089
0
LINE
8
BLACK
6
CONTINUOUS
10
0.710217
20
0.220089
11
0.710217
21
0.199911
0
LINE
8
BLACK
6
CONTINUOUS
10
0.710217
20
0.199911
11
0.709561
21
0.196616
0
LINE
8
BLACK
6
CONTINUOUS
10
0.709561
20
0.196616
11
0.707694
21
0.193822
0
LINE
8
BLACK
6
CONTINUOUS
10
0.707694
20
0.193822
11
0.7049
21
0.191955
0
LINE
8
BLACK
6
CONTINUOUS
10
0.7049
20
0.191955
11
0.701604
21
0.191299
0
LINE
8
BLACK
6
CONTINUOUS
10
0.701604
20
0.191299
11
0.68438
21
0.191299
0
LINE
8
BLACK
6
CONTINUOUS
10
0.68438
20
0.191299
11
0.681084
21
0.191955
0
LINE
8
BLACK
6
CONTINUOUS
10
0.681084
20
0.191955
11
0.67829
21
0.193822
0
LINE
8
BLACK
6
CONTINUOUS
10
0.67829
20
0.193822
11
0.676423
21
0.196616
0
LINE
8
BLACK
6
CONTINUOUS
10
0.676423
20
0.196616
11
0.675768
21
0.199911
0
LINE
8
BLACK
6
CONTINUOUS
10
0.675768
20
0.199911
11
0.675768
21
0.218097
0
LINE
8
BLACK
6
CONTINUOUS
10
0.675768
20
0.218097
11
0.664238
21
0.229626
0
LINE
8
BLACK
6
CONTINUOUS
10
0.664238
20
0.229626
11
0.652486
21
0.229626
0
LINE
8
BLACK
6
CONTINUOUS
10
0.652486
20
0.229626
11
0.651204
21
0.229921
0
LINE
8
BLACK
6
CONTINUOUS
10
0.651204
20
0.229921
11
0.649898
21
0.230069
0
LINE
8
BLACK
6
CONTINUOUS
10
0.649898
20
0.230069
11
0.649514
21
0.230309
0
LINE
8
BLACK
6
CONTINUOUS
10
0.649514
20
0.230309
11
0.649073
21
0.230411
0
LINE
8
BLACK
6
CONTINUOUS
10
0.649073
20
0.230411
11
0.648046
21
0.231232
0
LINE
8
BLACK
6
CONTINUOUS
10
0.648046
20
0.231232
11
0.646932
21
0.231932
0
LINE
8
BLACK
6
CONTINUOUS
10
0.646932
20
0.231932
11
0.632211
21
0.246654
0
LINE
8
BLACK
6
CONTINUOUS
10
0.632211
20
0.246654
11
0.606654
21
0.246654
0
LINE
8
BLACK
6
CONTINUOUS
10
0.606654
20
0.246654
11
0.606654
21
0.27815
0
LINE
8
BLACK
6
CONTINUOUS
10
0.606654
20
0.27815
11
0.642087
21
0.27815
0
LINE
8
BLACK
6
CONTINUOUS
10
0.642087
20
0.27815
11
0.642087
21
0.259049
0
LINE
8
BLACK
6
CONTINUOUS
10
0.713384
20
0.390565
11
0.716178
21
0.388698
0
LINE
8
BLACK
6
CONTINUOUS
10
0.716178
20
0.388698
11
0.718045
21
0.385904
0
LINE
8
BLACK
6
CONTINUOUS
10
0.718045
20
0.385904
11
0.718701
21
0.382608
0
LINE
8
BLACK
6
CONTINUOUS
10
0.718701
20
0.382608
11
0.718701
21
0.365384
0
LINE
8
BLACK
6
CONTINUOUS
10
0.718701
20
0.365384
11
0.718045
21
0.362088
0
LINE
8
BLACK
6
CONTINUOUS
10
0.718045
20
0.362088
11
0.716178
21
0.359294
0
LINE
8
BLACK
6
CONTINUOUS
10
0.716178
20
0.359294
11
0.713384
21
0.357427
0
LINE
8
BLACK
6
CONTINUOUS
10
0.713384
20
0.357427
11
0.710089
21
0.356772
0
LINE
8
BLACK
6
CONTINUOUS
10
0.710089
20
0.356772
11
0.707874
21
0.356772
0
LINE
8
BLACK
6
CONTINUOUS
10
0.707874
20
0.356772
11
0.707874
21
0.283445
0
LINE
8
BLACK
6
CONTINUOUS
10
0.707874
20
0.283445
11
0.709256
21
0.28274
0
LINE
8
BLACK
6
CONTINUOUS
10
0.709256
20
0.28274
11
0.71274
21
0.279256
0
LINE
8
BLACK
6
CONTINUOUS
10
0.71274
20
0.279256
11
0.714448
21
0.275906
0
LINE
8
BLACK
6
CONTINUOUS
10
0.714448
20
0.275906
11
0.786
21
0.275906
0
LINE
8
BLACK
6
CONTINUOUS
10
0.786
20
0.275906
11
0.786751
21
0.275704
0
LINE
8
BLACK
6
CONTINUOUS
10
0.786751
20
0.275704
11
0.787528
21
0.275704
0
LINE
8
BLACK
6
CONTINUOUS
10
0.787528
20
0.275704
11
0.788202
21
0.275316
0
LINE
8
BLACK
6
CONTINUOUS
10
0.788202
20
0.275316
11
0.788953
21
0.275114
0
LINE
8
BLACK
6
CONTINUOUS
10
0.788953
20
0.275114
11
0.789503
21
0.274565
0
LINE
8
BLACK
6
CONTINUOUS
10
0.789503
20
0.274565
11
0.790176
21
0.274176
0
LINE
8
BLACK
6
CONTINUOUS
10
0.790176
20
0.274176
11
0.855289
21
0.209063
0
LINE
8
BLACK
6
CONTINUOUS
10
0.855289
20
0.209063
11
0.915357
21
0.209063
0
LINE
8
BLACK
6
CONTINUOUS
10
0.915357
20
0.209063
11
0.939564
21
0.23327
0
LINE
8
BLACK
6
CONTINUOUS
10
0.939564
20
0.23327
11
0.940238
21
0.233659
0
LINE
8
BLACK
6
CONTINUOUS
10
0.940238
20
0.233659
11
0.940787
21
0.234209
0
LINE
8
BLACK
6
CONTINUOUS
10
0.940787
20
0.234209
11
0.941538
21
0.23441
0
LINE
8
BLACK
6
CONTINUOUS
10
0.941538
20
0.23441
11
0.942212
21
0.234799
0
LINE
8
BLACK
6
CONTINUOUS
10
0.942212
20
0.234799
11
0.942989
21
0.234799
0
LINE
8
BLACK
6
CONTINUOUS
10
0.942989
20
0.234799
11
0.94374
21
0.235
0
LINE
8
BLACK
6
CONTINUOUS
10
0.94374
20
0.235
11
0.967362
21
0.235
0
LINE
8
BLACK
6
CONTINUOUS
10
0.967362
20
0.235
11
0.968113
21
0.234799
0
LINE
8
BLACK
6
CONTINUOUS
10
0.968113
20
0.234799
11
0.968891
21
0.234799
0
LINE
8
BLACK
6
CONTINUOUS
10
0.968891
20
0.234799
11
0.969564
21
0.23441
0
LINE
8
BLACK
6
CONTINUOUS
10
0.969564
20
0.23441
11
0.970315
21
0.234209
0
LINE
8
BLACK
6
CONTINUOUS
10
0.970315
20
0.234209
11
0.970865
21
0.233659
0
LINE
8
BLACK
6
CONTINUOUS
10
0.970865
20
0.233659
11
0.971538
21
0.23327
0
LINE
8
BLACK
6
CONTINUOUS
10
0.971538
20
0.23327
11
0.986541
21
0.218268
0
LINE
8
BLACK
6
CONTINUOUS
10
0.986541
20
0.218268
11
1.00724
21
0.218268
0
LINE
8
BLACK
6
CONTINUOUS
10
1.00724
20
0.218268
11
1.01969
21
0.230714
0
LINE
8
BLACK
6
CONTINUOUS
10
1.01969
20
0.230714
11
1.01969
21
0.248031
0
LINE
8
BLACK
6
CONTINUOUS
10
1.01969
20
0.248031
11
1.02048
21
0.250984
0
LINE
8
BLACK
6
CONTINUOUS
10
1.02048
20
0.250984
11
1.02067
21
0.251177
0
LINE
8
BLACK
6
CONTINUOUS
10
1.02067
20
0.251177
11
1.02067
21
0.259843
0
LINE
8
BLACK
6
CONTINUOUS
10
1.02067
20
0.259843
11
1.03051
21
0.259843
0
LINE
8
BLACK
6
CONTINUOUS
10
1.03051
20
0.259843
11
1.03051
21
0.251177
0
LINE
8
BLACK
6
CONTINUOUS
10
1.03051
20
0.251177
11
1.0307
21
0.250984
0
LINE
8
BLACK
6
CONTINUOUS
10
1.0307
20
0.250984
11
1.0315
21
0.248031
0
LINE
8
BLACK
6
CONTINUOUS
10
1.0315
20
0.248031
11
1.0315
21
0.228268
0
LINE
8
BLACK
6
CONTINUOUS
10
1.0315
20
0.228268
11
1.03129
21
0.227517
0
LINE
8
BLACK
6
CONTINUOUS
10
1.03129
20
0.227517
11
1.03129
21
0.226739
0
LINE
8
BLACK
6
CONTINUOUS
10
1.03129
20
0.226739
11
1.03091
21
0.226066
0
LINE
8
BLACK
6
CONTINUOUS
10
1.03091
20
0.226066
11
1.0307
21
0.225315
0
LINE
8
BLACK
6
CONTINUOUS
10
1.0307
20
0.225315
11
1.03016
21
0.224765
0
LINE
8
BLACK
6
CONTINUOUS
10
1.03016
20
0.224765
11
1.02977
21
0.224092
0
LINE
8
BLACK
6
CONTINUOUS
10
1.02977
20
0.224092
11
1.01386
21
0.208186
0
LINE
8
BLACK
6
CONTINUOUS
10
1.01386
20
0.208186
11
1.01319
21
0.207798
0
LINE
8
BLACK
6
CONTINUOUS
10
1.01319
20
0.207798
11
1.01264
21
0.207248
0
LINE
8
BLACK
6
CONTINUOUS
10
1.01264
20
0.207248
11
1.01189
21
0.207047
0
LINE
8
BLACK
6
CONTINUOUS
10
1.01189
20
0.207047
11
1.01121
21
0.206658
0
LINE
8
BLACK
6
CONTINUOUS
10
1.01121
20
0.206658
11
1.01044
21
0.206658
0
LINE
8
BLACK
6
CONTINUOUS
10
1.01044
20
0.206658
11
1.00969
21
0.206457
0
LINE
8
BLACK
6
CONTINUOUS
10
1.00969
20
0.206457
11
0.984094
21
0.206457
0
LINE
8
BLACK
6
CONTINUOUS
10
0.984094
20
0.206457
11
0.983344
21
0.206658
0
LINE
8
BLACK
6
CONTINUOUS
10
0.983344
20
0.206658
11
0.982566
21
0.206658
0
LINE
8
BLACK
6
CONTINUOUS
10
0.982566
20
0.206658
11
0.981893
21
0.207047
0
LINE
8
BLACK
6
CONTINUOUS
10
0.981893
20
0.207047
11
0.981142
21
0.207248
0
LINE
8
BLACK
6
CONTINUOUS
10
0.981142
20
0.207248
11
0.980592
21
0.207798
0
LINE
8
BLACK
6
CONTINUOUS
10
0.980592
20
0.207798
11
0.979919
21
0.208186
0
LINE
8
BLACK
6
CONTINUOUS
10
0.979919
20
0.208186
11
0.964916
21
0.223189
0
LINE
8
BLACK
6
CONTINUOUS
10
0.964916
20
0.223189
11
0.946186
21
0.223189
0
LINE
8
BLACK
6
CONTINUOUS
10
0.946186
20
0.223189
11
0.921979
21
0.198982
0
LINE
8
BLACK
6
CONTINUOUS
10
0.921979
20
0.198982
11
0.921306
21
0.198593
0
LINE
8
BLACK
6
CONTINUOUS
10
0.921306
20
0.198593
11
0.920756
21
0.198043
0
LINE
8
BLACK
6
CONTINUOUS
10
0.920756
20
0.198043
11
0.920005
21
0.197842
0
LINE
8
BLACK
6
CONTINUOUS
10
0.920005
20
0.197842
11
0.919332
21
0.197453
0
LINE
8
BLACK
6
CONTINUOUS
10
0.919332
20
0.197453
11
0.918554
21
0.197453
0
LINE
8
BLACK
6
CONTINUOUS
10
0.918554
20
0.197453
11
0.917803
21
0.197252
0
LINE
8
BLACK
6
CONTINUOUS
10
0.917803
20
0.197252
11
0.852843
21
0.197252
0
LINE
8
BLACK
6
CONTINUOUS
10
0.852843
20
0.197252
11
0.852092
21
0.197453
0
LINE
8
BLACK
6
CONTINUOUS
10
0.852092
20
0.197453
11
0.851314
21
0.197453
0
LINE
8
BLACK
6
CONTINUOUS
10
0.851314
20
0.197453
11
0.850641
21
0.197842
0
LINE
8
BLACK
6
CONTINUOUS
10
0.850641
20
0.197842
11
0.84989
21
0.198043
0
LINE
8
BLACK
6
CONTINUOUS
10
0.84989
20
0.198043
11
0.84934
21
0.198593
0
LINE
8
BLACK
6
CONTINUOUS
10
0.84934
20
0.198593
11
0.848667
21
0.198982
0
LINE
8
BLACK
6
CONTINUOUS
10
0.848667
20
0.198982
11
0.783554
21
0.264094
0
LINE
8
BLACK
6
CONTINUOUS
10
0.783554
20
0.264094
11
0.714448
21
0.264094
0
LINE
8
BLACK
6
CONTINUOUS
10
0.714448
20
0.264094
11
0.71274
21
0.260744
0
LINE
8
BLACK
6
CONTINUOUS
10
0.71274
20
0.260744
11
0.709256
21
0.25726
0
LINE
8
BLACK
6
CONTINUOUS
10
0.709256
20
0.25726
11
0.704866
21
0.255023
0
LINE
8
BLACK
6
CONTINUOUS
10
0.704866
20
0.255023
11
0.7
21
0.254252
0
LINE
8
BLACK
6
CONTINUOUS
10
0.7
20
0.254252
11
0.695134
21
0.255023
0
LINE
8
BLACK
6
CONTINUOUS
10
0.695134
20
0.255023
11
0.690744
21
0.25726
0
LINE
8
BLACK
6
CONTINUOUS
10
0.690744
20
0.25726
11
0.68726
21
0.260744
0
LINE
8
BLACK
6
CONTINUOUS
10
0.68726
20
0.260744
11
0.685023
21
0.265134
0
LINE
8
BLACK
6
CONTINUOUS
10
0.685023
20
0.265134
11
0.684252
21
0.27
0
LINE
8
BLACK
6
CONTINUOUS
10
0.684252
20
0.27
11
0.685023
21
0.274866
0
LINE
8
BLACK
6
CONTINUOUS
10
0.685023
20
0.274866
11
0.68726
21
0.279256
0
LINE
8
BLACK
6
CONTINUOUS
10
0.68726
20
0.279256
11
0.690744
21
0.28274
0
LINE
8
BLACK
6
CONTINUOUS
10
0.690744
20
0.28274
11
0.692126
21
0.283445
0
LINE
8
BLACK
6
CONTINUOUS
10
0.692126
20
0.283445
11
0.692126
21
0.356772
0
LINE
8
BLACK
6
CONTINUOUS
10
0.692126
20
0.356772
11
0.689911
21
0.356772
0
LINE
8
BLACK
6
CONTINUOUS
10
0.689911
20
0.356772
11
0.686616
21
0.357427
0
LINE
8
BLACK
6
CONTINUOUS
10
0.686616
20
0.357427
11
0.683822
21
0.359294
0
LINE
8
BLACK
6
CONTINUOUS
10
0.683822
20
0.359294
11
0.681955
21
0.362088
0
LINE
8
BLACK
6
CONTINUOUS
10
0.681955
20
0.362088
11
0.681299
21
0.365384
0
LINE
8
BLACK
6
CONTINUOUS
10
0.681299
20
0.365384
11
0.681299
21
0.382608
0
LINE
8
BLACK
6
CONTINUOUS
10
0.681299
20
0.382608
11
0.681955
21
0.385904
0
LINE
8
BLACK
6
CONTINUOUS
10
0.681955
20
0.385904
11
0.683822
21
0.388698
0
LINE
8
BLACK
6
CONTINUOUS
10
0.683822
20
0.388698
11
0.686616
21
0.390565
0
LINE
8
BLACK
6
CONTINUOUS
10
0.686616
20
0.390565
11
0.689911
21
0.39122
0
LINE
8
BLACK
6
CONTINUOUS
10
0.689911
20
0.39122
11
0.710089
21
0.39122
0
LINE
8
BLACK
6
CONTINUOUS
10
0.710089
20
0.39122
11
0.713384
21
0.390565
0
LINE
8
BLACK
6
CONTINUOUS
10
0.254866
20
0.284977
11
0.259256
21
0.28274
0
LINE
8
BLACK
6
CONTINUOUS
10
0.259256
20
0.28274
11
0.26274
21
0.279256
0
LINE
8
BLACK
6
CONTINUOUS
10
0.26274
20
0.279256
11
0.264977
21
0.274866
0
LINE
8
BLACK
6
CONTINUOUS
10
0.264977
20
0.274866
11
0.265748
21
0.27
0
LINE
8
BLACK
6
CONTINUOUS
10
0.265748
20
0.27
11
0.264977
21
0.265134
0
LINE
8
BLACK
6
CONTINUOUS
10
0.264977
20
0.265134
11
0.26274
21
0.260744
0
LINE
8
BLACK
6
CONTINUOUS
10
0.26274
20
0.260744
11
0.259256
21
0.25726
0
LINE
8
BLACK
6
CONTINUOUS
10
0.259256
20
0.25726
11
0.254866
21
0.255023
0
LINE
8
BLACK
6
CONTINUOUS
10
0.254866
20
0.255023
11
0.25
21
0.254252
0
LINE
8
BLACK
6
CONTINUOUS
10
0.25
20
0.254252
11
0.245134
21
0.255023
0
LINE
8
BLACK
6
CONTINUOUS
10
0.245134
20
0.255023
11
0.240744
21
0.25726
0
LINE
8
BLACK
6
CONTINUOUS
10
0.240744
20
0.25726
11
0.23726
21
0.260744
0
LINE
8
BLACK
6
CONTINUOUS
10
0.23726
20
0.260744
11
0.236214
21
0.262795
0
LINE
8
BLACK
6
CONTINUOUS
10
0.236214
20
0.262795
11
0.216144
21
0.262795
0
LINE
8
BLACK
6
CONTINUOUS
10
0.216144
20
0.262795
11
0.216086
21
0.262504
0
LINE
8
BLACK
6
CONTINUOUS
10
0.216086
20
0.262504
11
0.214806
21
0.260588
0
LINE
8
BLACK
6
CONTINUOUS
10
0.214806
20
0.260588
11
0.21289
21
0.259308
0
LINE
8
BLACK
6
CONTINUOUS
10
0.21289
20
0.259308
11
0.21063
21
0.258858
0
LINE
8
BLACK
6
CONTINUOUS
10
0.21063
20
0.258858
11
0.155512
21
0.258858
0
LINE
8
BLACK
6
CONTINUOUS
10
0.155512
20
0.258858
11
0.153252
21
0.259308
0
LINE
8
BLACK
6
CONTINUOUS
10
0.153252
20
0.259308
11
0.151336
21
0.260588
0
LINE
8
BLACK
6
CONTINUOUS
10
0.151336
20
0.260588
11
0.150056
21
0.262504
0
LINE
8
BLACK
6
CONTINUOUS
10
0.150056
20
0.262504
11
0.149606
21
0.264764
0
LINE
8
BLACK
6
CONTINUOUS
10
0.149606
20
0.264764
11
0.149606
21
0.276575
0
LINE
8
BLACK
6
CONTINUOUS
10
0.149606
20
0.276575
11
0.150056
21
0.278835
0
LINE
8
BLACK
6
CONTINUOUS
10
0.150056
20
0.278835
11
0.151336
21
0.280751
0
LINE
8
BLACK
6
CONTINUOUS
10
0.151336
20
0.280751
11
0.153252
21
0.282031
0
LINE
8
BLACK
6
CONTINUOUS
10
0.153252
20
0.282031
11
0.155512
21
0.28248
0
LINE
8
BLACK
6
CONTINUOUS
10
0.155512
20
0.28248
11
0.21063
21
0.28248
0
LINE
8
BLACK
6
CONTINUOUS
10
0.21063
20
0.28248
11
0.21289
21
0.282031
0
LINE
8
BLACK
6
CONTINUOUS
10
0.21289
20
0.282031
11
0.214806
21
0.280751
0
LINE
8
BLACK
6
CONTINUOUS
10
0.214806
20
0.280751
11
0.216086
21
0.278835
0
LINE
8
BLACK
6
CONTINUOUS
10
0.216086
20
0.278835
11
0.216144
21
0.278543
0
LINE
8
BLACK
6
CONTINUOUS
10
0.216144
20
0.278543
11
0.236896
21
0.278543
0
LINE
8
BLACK
6
CONTINUOUS
10
0.236896
20
0.278543
11
0.23726
21
0.279256
0
LINE
8
BLACK
6
CONTINUOUS
10
0.23726
20
0.279256
11
0.240744
21
0.28274
0
LINE
8
BLACK
6
CONTINUOUS
10
0.240744
20
0.28274
11
0.245134
21
0.284977
0
LINE
8
BLACK
6
CONTINUOUS
10
0.245134
20
0.284977
11
0.25
21
0.285748
0
LINE
8
BLACK
6
CONTINUOUS
10
0.25
20
0.285748
11
0.254866
21
0.284977
0
LINE
8
BLACK
6
CONTINUOUS
10
0.21289
20
0.331243
11
0.214806
21
0.329963
0
LINE
8
BLACK
6
CONTINUOUS
10
0.214806
20
0.329963
11
0.216086
21
0.328047
0
LINE
8
BLACK
6
CONTINUOUS
10
0.216086
20
0.328047
11
0.216144
21
0.327756
0
LINE
8
BLACK
6
CONTINUOUS
10
0.216144
20
0.327756
11
0.259699
21
0.327756
0
LINE
8
BLACK
6
CONTINUOUS
10
0.259699
20
0.327756
11
0.260795
21
0.327504
0
LINE
8
BLACK
6
CONTINUOUS
10
0.260795
20
0.327504
11
0.261708
21
0.327969
0
LINE
8
BLACK
6
CONTINUOUS
10
0.261708
20
0.327969
11
0.266575
21
0.32874
0
LINE
8
BLACK
6
CONTINUOUS
10
0.266575
20
0.32874
11
0.271441
21
0.327969
0
LINE
8
BLACK
6
CONTINUOUS
10
0.271441
20
0.327969
11
0.275831
21
0.325733
0
LINE
8
BLACK
6
CONTINUOUS
10
0.275831
20
0.325733
11
0.279315
21
0.322249
0
LINE
8
BLACK
6
CONTINUOUS
10
0.279315
20
0.322249
11
0.281552
21
0.317859
0
LINE
8
BLACK
6
CONTINUOUS
10
0.281552
20
0.317859
11
0.282323
21
0.312992
0
LINE
8
BLACK
6
CONTINUOUS
10
0.282323
20
0.312992
11
0.281552
21
0.308126
0
LINE
8
BLACK
6
CONTINUOUS
10
0.281552
20
0.308126
11
0.279315
21
0.303736
0
LINE
8
BLACK
6
CONTINUOUS
10
0.279315
20
0.303736
11
0.275831
21
0.300252
0
LINE
8
BLACK
6
CONTINUOUS
10
0.275831
20
0.300252
11
0.271441
21
0.298015
0
LINE
8
BLACK
6
CONTINUOUS
10
0.271441
20
0.298015
11
0.266575
21
0.297244
0
LINE
8
BLACK
6
CONTINUOUS
10
0.266575
20
0.297244
11
0.261708
21
0.298015
0
LINE
8
BLACK
6
CONTINUOUS
10
0.261708
20
0.298015
11
0.257318
21
0.300252
0
LINE
8
BLACK
6
CONTINUOUS
10
0.257318
20
0.300252
11
0.253834
21
0.303736
0
LINE
8
BLACK
6
CONTINUOUS
10
0.253834
20
0.303736
11
0.251598
21
0.308126
0
LINE
8
BLACK
6
CONTINUOUS
10
0.251598
20
0.308126
11
0.250983
21
0.312008
0
LINE
8
BLACK
6
CONTINUOUS
10
0.250983
20
0.312008
11
0.216144
21
0.312008
0
LINE
8
BLACK
6
CONTINUOUS
10
0.216144
20
0.312008
11
0.216086
21
0.311716
0
LINE
8
BLACK
6
CONTINUOUS
10
0.216086
20
0.311716
11
0.214806
21
0.309801
0
LINE
8
BLACK
6
CONTINUOUS
10
0.214806
20
0.309801
11
0.21289
21
0.30852
0
LINE
8
BLACK
6
CONTINUOUS
10
0.21289
20
0.30852
11
0.21063
21
0.308071
0
LINE
8
BLACK
6
CONTINUOUS
10
0.21063
20
0.308071
11
0.155512
21
0.308071
0
LINE
8
BLACK
6
CONTINUOUS
10
0.155512
20
0.308071
11
0.153252
21
0.30852
0
LINE
8
BLACK
6
CONTINUOUS
10
0.153252
20
0.30852
11
0.151336
21
0.309801
0
LINE
8
BLACK
6
CONTINUOUS
10
0.151336
20
0.309801
11
0.150056
21
0.311716
0
LINE
8
BLACK
6
CONTINUOUS
10
0.150056
20
0.311716
11
0.149998
21
0.312008
0
LINE
8
BLACK
6
CONTINUOUS
10
0.149998
20
0.312008
11
0.123143
21
0.312008
0
LINE
8
BLACK
6
CONTINUOUS
10
0.123143
20
0.312008
11
0.112874
21
0.301738
0
LINE
8
BLACK
6
CONTINUOUS
10
0.112874
20
0.301738
11
0.112874
21
0.283445
0
LINE
8
BLACK
6
CONTINUOUS
10
0.112874
20
0.283445
11
0.114256
21
0.28274
0
LINE
8
BLACK
6
CONTINUOUS
10
0.114256
20
0.28274
11
0.11774
21
0.279256
0
LINE
8
BLACK
6
CONTINUOUS
10
0.11774
20
0.279256
11
0.119977
21
0.274866
0
LINE
8
BLACK
6
CONTINUOUS
10
0.119977
20
0.274866
11
0.120748
21
0.27
0
LINE
8
BLACK
6
CONTINUOUS
10
0.120748
20
0.27
11
0.119977
21
0.265134
0
LINE
8
BLACK
6
CONTINUOUS
10
0.119977
20
0.265134
11
0.11774
21
0.260744
0
LINE
8
BLACK
6
CONTINUOUS
10
0.11774
20
0.260744
11
0.114256
21
0.25726
0
LINE
8
BLACK
6
CONTINUOUS
10
0.114256
20
0.25726
11
0.109866
21
0.255023
0
LINE
8
BLACK
6
CONTINUOUS
10
0.109866
20
0.255023
11
0.105
21
0.254252
0
LINE
8
BLACK
6
CONTINUOUS
10
0.105
20
0.254252
11
0.100134
21
0.255023
0
LINE
8
BLACK
6
CONTINUOUS
10
0.100134
20
0.255023
11
0.0957435
21
0.25726
0
LINE
8
BLACK
6
CONTINUOUS
10
0.0957435
20
0.25726
11
0.0922596
21
0.260744
0
LINE
8
BLACK
6
CONTINUOUS
10
0.0922596
20
0.260744
11
0.0900227
21
0.265134
0
LINE
8
BLACK
6
CONTINUOUS
10
0.0900227
20
0.265134
11
0.089252
21
0.27
0
LINE
8
BLACK
6
CONTINUOUS
10
0.089252
20
0.27
11
0.0900227
21
0.274866
0
LINE
8
BLACK
6
CONTINUOUS
10
0.0900227
20
0.274866
11
0.0922596
21
0.279256
0
LINE
8
BLACK
6
CONTINUOUS
10
0.0922596
20
0.279256
11
0.0957435
21
0.28274
0
LINE
8
BLACK
6
CONTINUOUS
10
0.0957435
20
0.28274
11
0.097126
21
0.283445
0
LINE
8
BLACK
6
CONTINUOUS
10
0.097126
20
0.283445
11
0.097126
21
0.305014
0
LINE
8
BLACK
6
CONTINUOUS
10
0.097126
20
0.305014
11
0.0974207
21
0.306296
0
LINE
8
BLACK
6
CONTINUOUS
10
0.0974207
20
0.306296
11
0.0975685
21
0.307602
0
LINE
8
BLACK
6
CONTINUOUS
10
0.0975685
20
0.307602
11
0.0978094
21
0.307986
0
LINE
8
BLACK
6
CONTINUOUS
10
0.0978094
20
0.307986
11
0.0979109
21
0.308427
0
LINE
8
BLACK
6
CONTINUOUS
10
0.0979109
20
0.308427
11
0.0987325
21
0.309454
0
LINE
8
BLACK
6
CONTINUOUS
10
0.0987325
20
0.309454
11
0.0994322
21
0.310568
0
LINE
8
BLACK
6
CONTINUOUS
10
0.0994322
20
0.310568
11
0.114324
21
0.325459
0
LINE
8
BLACK
6
CONTINUOUS
10
0.114324
20
0.325459
11
0.115439
21
0.326157
0
LINE
8
BLACK
6
CONTINUOUS
10
0.115439
20
0.326157
11
0.116467
21
0.326977
0
LINE
8
BLACK
6
CONTINUOUS
10
0.116467
20
0.326977
11
0.116909
21
0.327078
0
LINE
8
BLACK
6
CONTINUOUS
10
0.116909
20
0.327078
11
0.117292
21
0.327318
0
LINE
8
BLACK
6
CONTINUOUS
10
0.117292
20
0.327318
11
0.1186
21
0.327463
0
LINE
8
BLACK
6
CONTINUOUS
10
0.1186
20
0.327463
11
0.119882
21
0.327756
0
LINE
8
BLACK
6
CONTINUOUS
10
0.119882
20
0.327756
11
0.149998
21
0.327756
0
LINE
8
BLACK
6
CONTINUOUS
10
0.149998
20
0.327756
11
0.150056
21
0.328047
0
LINE
8
BLACK
6
CONTINUOUS
10
0.150056
20
0.328047
11
0.151336
21
0.329963
0
LINE
8
BLACK
6
CONTINUOUS
10
0.151336
20
0.329963
11
0.153252
21
0.331243
0
LINE
8
BLACK
6
CONTINUOUS
10
0.153252
20
0.331243
11
0.155512
21
0.331693
0
LINE
8
BLACK
6
CONTINUOUS
10
0.155512
20
0.331693
11
0.21063
21
0.331693
0
LINE
8
BLACK
6
CONTINUOUS
10
0.21063
20
0.331693
11
0.21289
21
0.331243
0
LINE
8
BLACK
6
CONTINUOUS
10
0.330394
20
0.262441
11
0.304803
21
0.262441
0
LINE
8
BLACK
6
CONTINUOUS
10
0.304803
20
0.262441
11
0.304803
21
0.304173
0
LINE
8
BLACK
6
CONTINUOUS
10
0.304803
20
0.304173
11
0.330394
21
0.304173
0
LINE
8
BLACK
6
CONTINUOUS
10
0.330394
20
0.304173
11
0.330394
21
0.262441
0
LINE
8
BLACK
6
CONTINUOUS
10
1.09787
20
0.474502
11
1.10067
21
0.472635
0
LINE
8
BLACK
6
CONTINUOUS
10
1.10067
20
0.472635
11
1.10253
21
0.469841
0
LINE
8
BLACK
6
CONTINUOUS
10
1.10253
20
0.469841
11
1.10319
21
0.466545
0
LINE
8
BLACK
6
CONTINUOUS
10
1.10319
20
0.466545
11
1.10319
21
0.446368
0
LINE
8
BLACK
6
CONTINUOUS
10
1.10319
20
0.446368
11
1.10253
21
0.443072
0
LINE
8
BLACK
6
CONTINUOUS
10
1.10253
20
0.443072
11
1.10067
21
0.440278
0
LINE
8
BLACK
6
CONTINUOUS
10
1.10067
20
0.440278
11
1.09787
21
0.438411
0
LINE
8
BLACK
6
CONTINUOUS
10
1.09787
20
0.438411
11
1.09458
21
0.437756
0
LINE
8
BLACK
6
CONTINUOUS
10
1.09458
20
0.437756
11
1.09039
21
0.437756
0
LINE
8
BLACK
6
CONTINUOUS
10
1.09039
20
0.437756
11
1.09039
21
0.412815
0
LINE
8
BLACK
6
CONTINUOUS
10
1.09039
20
0.412815
11
1.09178
21
0.412111
0
LINE
8
BLACK
6
CONTINUOUS
10
1.09178
20
0.412111
11
1.09526
21
0.408627
0
LINE
8
BLACK
6
CONTINUOUS
10
1.09526
20
0.408627
11
1.0975
21
0.404236
0
LINE
8
BLACK
6
CONTINUOUS
10
1.0975
20
0.404236
11
1.09827
21
0.39937
0
LINE
8
BLACK
6
CONTINUOUS
10
1.09827
20
0.39937
11
1.0975
21
0.394504
0
LINE
8
BLACK
6
CONTINUOUS
10
1.0975
20
0.394504
11
1.09526
21
0.390114
0
LINE
8
BLACK
6
CONTINUOUS
10
1.09526
20
0.390114
11
1.09178
21
0.38663
0
LINE
8
BLACK
6
CONTINUOUS
10
1.09178
20
0.38663
11
1.09039
21
0.385925
0
LINE
8
BLACK
6
CONTINUOUS
10
1.09039
20
0.385925
11
1.09039
21
0.373766
0
LINE
8
BLACK
6
CONTINUOUS
10
1.09039
20
0.373766
11
1.09021
21
0.372945
0
LINE
8
BLACK
6
CONTINUOUS
10
1.09021
20
0.372945
11
1.09055
21
0.371654
0
LINE
8
BLACK
6
CONTINUOUS
10
1.09055
20
0.371654
11
1.09055
21
0.34252
0
LINE
8
BLACK
6
CONTINUOUS
10
1.09055
20
0.34252
11
1.08976
21
0.339567
0
LINE
8
BLACK
6
CONTINUOUS
10
1.08976
20
0.339567
11
1.08957
21
0.339374
0
LINE
8
BLACK
6
CONTINUOUS
10
1.08957
20
0.339374
11
1.08957
21
0.330709
0
LINE
8
BLACK
6
CONTINUOUS
10
1.08957
20
0.330709
11
1.07972
21
0.330709
0
LINE
8
BLACK
6
CONTINUOUS
10
1.07972
20
0.330709
11
1.07972
21
0.339374
0
LINE
8
BLACK
6
CONTINUOUS
10
1.07972
20
0.339374
11
1.07953
21
0.339567
0
LINE
8
BLACK
6
CONTINUOUS
10
1.07953
20
0.339567
11
1.07874
21
0.34252
0
LINE
8
BLACK
6
CONTINUOUS
10
1.07874
20
0.34252
11
1.07874
21
0.367079
0
LINE
8
BLACK
6
CONTINUOUS
10
1.07874
20
0.367079
11
1.07761
21
0.367626
0
LINE
8
BLACK
6
CONTINUOUS
10
1.07761
20
0.367626
11
1.07542
21
0.370365
0
LINE
8
BLACK
6
CONTINUOUS
10
1.07542
20
0.370365
11
1.07465
21
0.37378
0
LINE
8
BLACK
6
CONTINUOUS
10
1.07465
20
0.37378
11
1.07465
21
0.382329
0
LINE
8
BLACK
6
CONTINUOUS
10
1.07465
20
0.382329
11
1.07087
21
0.378549
0
LINE
8
BLACK
6
CONTINUOUS
10
1.07087
20
0.378549
11
1.07087
21
0.34252
0
LINE
8
BLACK
6
CONTINUOUS
10
1.07087
20
0.34252
11
1.07073
21
0.342028
0
LINE
8
BLACK
6
CONTINUOUS
10
1.07073
20
0.342028
11
1.07087
21
0.341535
0
LINE
8
BLACK
6
CONTINUOUS
10
1.07087
20
0.341535
11
1.07087
21
0.314961
0
LINE
8
BLACK
6
CONTINUOUS
10
1.07087
20
0.314961
11
1.08858
21
0.314961
0
LINE
8
BLACK
6
CONTINUOUS
10
1.08858
20
0.314961
11
1.08858
21
0.287402
0
LINE
8
BLACK
6
CONTINUOUS
10
1.08858
20
0.287402
11
1.07677
21
0.275591
0
LINE
8
BLACK
6
CONTINUOUS
10
1.07677
20
0.275591
11
1.02165
21
0.275591
0
LINE
8
BLACK
6
CONTINUOUS
10
1.02165
20
0.275591
11
1.02165
21
0.314961
0
LINE
8
BLACK
6
CONTINUOUS
10
1.02165
20
0.314961
11
1.05906
21
0.314961
0
LINE
8
BLACK
6
CONTINUOUS
10
1.05906
20
0.314961
11
1.05906
21
0.341535
0
LINE
8
BLACK
6
CONTINUOUS
10
1.05906
20
0.341535
11
1.05919
21
0.342028
0
LINE
8
BLACK
6
CONTINUOUS
10
1.05919
20
0.342028
11
1.05906
21
0.34252
0
LINE
8
BLACK
6
CONTINUOUS
10
1.05906
20
0.34252
11
1.05906
21
0.378514
0
LINE
8
BLACK
6
CONTINUOUS
10
1.05906
20
0.378514
11
1.05813
21
0.379438
0
LINE
8
BLACK
6
CONTINUOUS
10
1.05813
20
0.379438
11
1.05698
21
0.382744
0
LINE
8
BLACK
6
CONTINUOUS
10
1.05698
20
0.382744
11
1.05737
21
0.386224
0
LINE
8
BLACK
6
CONTINUOUS
10
1.05737
20
0.386224
11
1.05924
21
0.38919
0
LINE
8
BLACK
6
CONTINUOUS
10
1.05924
20
0.38919
11
1.06713
21
0.397088
0
LINE
8
BLACK
6
CONTINUOUS
10
1.06713
20
0.397088
11
1.06677
21
0.39937
0
LINE
8
BLACK
6
CONTINUOUS
10
1.06677
20
0.39937
11
1.06754
21
0.404236
0
LINE
8
BLACK
6
CONTINUOUS
10
1.06754
20
0.404236
11
1.06978
21
0.408627
0
LINE
8
BLACK
6
CONTINUOUS
10
1.06978
20
0.408627
11
1.07326
21
0.412111
0
LINE
8
BLACK
6
CONTINUOUS
10
1.07326
20
0.412111
11
1.07465
21
0.412815
0
LINE
8
BLACK
6
CONTINUOUS
10
1.07465
20
0.412815
11
1.07465
21
0.438294
0
LINE
8
BLACK
6
CONTINUOUS
10
1.07465
20
0.438294
11
1.07406
21
0.438411
0
LINE
8
BLACK
6
CONTINUOUS
10
1.07406
20
0.438411
11
1.07126
21
0.440278
0
LINE
8
BLACK
6
CONTINUOUS
10
1.07126
20
0.440278
11
1.0694
21
0.443072
0
LINE
8
BLACK
6
CONTINUOUS
10
1.0694
20
0.443072
11
1.06874
21
0.446368
0
LINE
8
BLACK
6
CONTINUOUS
10
1.06874
20
0.446368
11
1.06874
21
0.466545
0
LINE
8
BLACK
6
CONTINUOUS
10
1.06874
20
0.466545
11
1.0694
21
0.469841
0
LINE
8
BLACK
6
CONTINUOUS
10
1.0694
20
0.469841
11
1.07126
21
0.472635
0
LINE
8
BLACK
6
CONTINUOUS
10
1.07126
20
0.472635
11
1.07406
21
0.474502
0
LINE
8
BLACK
6
CONTINUOUS
10
1.07406
20
0.474502
11
1.07735
21
0.475157
0
LINE
8
BLACK
6
CONTINUOUS
10
1.07735
20
0.475157
11
1.09458
21
0.475157
0
LINE
8
BLACK
6
CONTINUOUS
10
1.09458
20
0.475157
11
1.09787
21
0.474502
0
LINE
8
BLACK
6
CONTINUOUS
10
0.623384
20
0.389561
11
0.626178
21
0.387694
0
LINE
8
BLACK
6
CONTINUOUS
10
0.626178
20
0.387694
11
0.628045
21
0.3849
0
LINE
8
BLACK
6
CONTINUOUS
10
0.628045
20
0.3849
11
0.628701
21
0.381604
0
LINE
8
BLACK
6
CONTINUOUS
10
0.628701
20
0.381604
11
0.628701
21
0.36438
0
LINE
8
BLACK
6
CONTINUOUS
10
0.628701
20
0.36438
11
0.628045
21
0.361084
0
LINE
8
BLACK
6
CONTINUOUS
10
0.628045
20
0.361084
11
0.626178
21
0.35829
0
LINE
8
BLACK
6
CONTINUOUS
10
0.626178
20
0.35829
11
0.623384
21
0.356423
0
LINE
8
BLACK
6
CONTINUOUS
10
0.623384
20
0.356423
11
0.620089
21
0.355768
0
LINE
8
BLACK
6
CONTINUOUS
10
0.620089
20
0.355768
11
0.617874
21
0.355768
0
LINE
8
BLACK
6
CONTINUOUS
10
0.617874
20
0.355768
11
0.617874
21
0.333445
0
LINE
8
BLACK
6
CONTINUOUS
10
0.617874
20
0.333445
11
0.619256
21
0.33274
0
LINE
8
BLACK
6
CONTINUOUS
10
0.619256
20
0.33274
11
0.62274
21
0.329256
0
LINE
8
BLACK
6
CONTINUOUS
10
0.62274
20
0.329256
11
0.624977
21
0.324866
0
LINE
8
BLACK
6
CONTINUOUS
10
0.624977
20
0.324866
11
0.625748
21
0.32
0
LINE
8
BLACK
6
CONTINUOUS
10
0.625748
20
0.32
11
0.624977
21
0.315134
0
LINE
8
BLACK
6
CONTINUOUS
10
0.624977
20
0.315134
11
0.62274
21
0.310744
0
LINE
8
BLACK
6
CONTINUOUS
10
0.62274
20
0.310744
11
0.619256
21
0.30726
0
LINE
8
BLACK
6
CONTINUOUS
10
0.619256
20
0.30726
11
0.614866
21
0.305023
0
LINE
8
BLACK
6
CONTINUOUS
10
0.614866
20
0.305023
11
0.61
21
0.304252
0
LINE
8
BLACK
6
CONTINUOUS
10
0.61
20
0.304252
11
0.605134
21
0.305023
0
LINE
8
BLACK
6
CONTINUOUS
10
0.605134
20
0.305023
11
0.600744
21
0.30726
0
LINE
8
BLACK
6
CONTINUOUS
10
0.600744
20
0.30726
11
0.59726
21
0.310744
0
LINE
8
BLACK
6
CONTINUOUS
10
0.59726
20
0.310744
11
0.595023
21
0.315134
0
LINE
8
BLACK
6
CONTINUOUS
10
0.595023
20
0.315134
11
0.594252
21
0.32
0
LINE
8
BLACK
6
CONTINUOUS
10
0.594252
20
0.32
11
0.595023
21
0.324866
0
LINE
8
BLACK
6
CONTINUOUS
10
0.595023
20
0.324866
11
0.59726
21
0.329256
0
LINE
8
BLACK
6
CONTINUOUS
10
0.59726
20
0.329256
11
0.600744
21
0.33274
0
LINE
8
BLACK
6
CONTINUOUS
10
0.600744
20
0.33274
11
0.602126
21
0.333445
0
LINE
8
BLACK
6
CONTINUOUS
10
0.602126
20
0.333445
11
0.602126
21
0.355768
0
LINE
8
BLACK
6
CONTINUOUS
10
0.602126
20
0.355768
11
0.599911
21
0.355768
0
LINE
8
BLACK
6
CONTINUOUS
10
0.599911
20
0.355768
11
0.596616
21
0.356423
0
LINE
8
BLACK
6
CONTINUOUS
10
0.596616
20
0.356423
11
0.593822
21
0.35829
0
LINE
8
BLACK
6
CONTINUOUS
10
0.593822
20
0.35829
11
0.591955
21
0.361084
0
LINE
8
BLACK
6
CONTINUOUS
10
0.591955
20
0.361084
11
0.591299
21
0.36438
0
LINE
8
BLACK
6
CONTINUOUS
10
0.591299
20
0.36438
11
0.591299
21
0.381604
0
LINE
8
BLACK
6
CONTINUOUS
10
0.591299
20
0.381604
11
0.591955
21
0.3849
0
LINE
8
BLACK
6
CONTINUOUS
10
0.591955
20
0.3849
11
0.593822
21
0.387694
0
LINE
8
BLACK
6
CONTINUOUS
10
0.593822
20
0.387694
11
0.596616
21
0.389561
0
LINE
8
BLACK
6
CONTINUOUS
10
0.596616
20
0.389561
11
0.599911
21
0.390217
0
LINE
8
BLACK
6
CONTINUOUS
10
0.599911
20
0.390217
11
0.620089
21
0.390217
0
LINE
8
BLACK
6
CONTINUOUS
10
0.620089
20
0.390217
11
0.623384
21
0.389561
0
LINE
8
BLACK
6
CONTINUOUS
10
1.0502
20
0.330709
11
1.04035
21
0.330709
0
LINE
8
BLACK
6
CONTINUOUS
10
1.04035
20
0.330709
11
1.04035
21
0.352362
0
LINE
8
BLACK
6
CONTINUOUS
10
1.04035
20
0.352362
11
1.0502
21
0.352362
0
LINE
8
BLACK
6
CONTINUOUS
10
1.0502
20
0.352362
11
1.0502
21
0.330709
0
LINE
8
BLACK
6
CONTINUOUS
10
0.254866
20
0.384977
11
0.259256
21
0.38274
0
LINE
8
BLACK
6
CONTINUOUS
10
0.259256
20
0.38274
11
0.26274
21
0.379256
0
LINE
8
BLACK
6
CONTINUOUS
10
0.26274
20
0.379256
11
0.263445
21
0.377874
0
LINE
8
BLACK
6
CONTINUOUS
10
0.263445
20
0.377874
11
0.27897
21
0.377874
0
LINE
8
BLACK
6
CONTINUOUS
10
0.27897
20
0.377874
11
0.280252
21
0.377579
0
LINE
8
BLACK
6
CONTINUOUS
10
0.280252
20
0.377579
11
0.281559
21
0.377431
0
LINE
8
BLACK
6
CONTINUOUS
10
0.281559
20
0.377431
11
0.281942
21
0.377191
0
LINE
8
BLACK
6
CONTINUOUS
10
0.281942
20
0.377191
11
0.282384
21
0.377089
0
LINE
8
BLACK
6
CONTINUOUS
10
0.282384
20
0.377089
11
0.283411
21
0.376268
0
LINE
8
BLACK
6
CONTINUOUS
10
0.283411
20
0.376268
11
0.284524
21
0.375568
0
LINE
8
BLACK
6
CONTINUOUS
10
0.284524
20
0.375568
11
0.286076
21
0.374016
0
LINE
8
BLACK
6
CONTINUOUS
10
0.286076
20
0.374016
11
0.302254
21
0.374016
0
LINE
8
BLACK
6
CONTINUOUS
10
0.302254
20
0.374016
11
0.30555
21
0.37336
0
LINE
8
BLACK
6
CONTINUOUS
10
0.30555
20
0.37336
11
0.308344
21
0.371493
0
LINE
8
BLACK
6
CONTINUOUS
10
0.308344
20
0.371493
11
0.310211
21
0.368699
0
LINE
8
BLACK
6
CONTINUOUS
10
0.310211
20
0.368699
11
0.310866
21
0.365404
0
LINE
8
BLACK
6
CONTINUOUS
10
0.310866
20
0.365404
11
0.310866
21
0.364665
0
LINE
8
BLACK
6
CONTINUOUS
10
0.310866
20
0.364665
11
0.343346
21
0.364665
0
LINE
8
BLACK
6
CONTINUOUS
10
0.343346
20
0.364665
11
0.343346
21
0.369094
0
LINE
8
BLACK
6
CONTINUOUS
10
0.343346
20
0.369094
11
0.370906
21
0.369094
0
LINE
8
BLACK
6
CONTINUOUS
10
0.370906
20
0.369094
11
0.370906
21
0.365157
0
LINE
8
BLACK
6
CONTINUOUS
10
0.370906
20
0.365157
11
0.398524
21
0.365157
0
LINE
8
BLACK
6
CONTINUOUS
10
0.398524
20
0.365157
11
0.398524
21
0.369764
0
LINE
8
BLACK
6
CONTINUOUS
10
0.398524
20
0.369764
11
0.453524
21
0.369764
0
LINE
8
BLACK
6
CONTINUOUS
10
0.453524
20
0.369764
11
0.453524
21
0.334764
0
LINE
8
BLACK
6
CONTINUOUS
10
0.453524
20
0.334764
11
0.398524
21
0.334764
0
LINE
8
BLACK
6
CONTINUOUS
10
0.398524
20
0.334764
11
0.398524
21
0.349409
0
LINE
8
BLACK
6
CONTINUOUS
10
0.398524
20
0.349409
11
0.370906
21
0.349409
0
LINE
8
BLACK
6
CONTINUOUS
10
0.370906
20
0.349409
11
0.370906
21
0.345472
0
LINE
8
BLACK
6
CONTINUOUS
10
0.370906
20
0.345472
11
0.343346
21
0.345472
0
LINE
8
BLACK
6
CONTINUOUS
10
0.343346
20
0.345472
11
0.343346
21
0.348917
0
LINE
8
BLACK
6
CONTINUOUS
10
0.343346
20
0.348917
11
0.310866
21
0.348917
0
LINE
8
BLACK
6
CONTINUOUS
10
0.310866
20
0.348917
11
0.310866
21
0.348179
0
LINE
8
BLACK
6
CONTINUOUS
10
0.310866
20
0.348179
11
0.310211
21
0.344883
0
LINE
8
BLACK
6
CONTINUOUS
10
0.310211
20
0.344883
11
0.308344
21
0.342089
0
LINE
8
BLACK
6
CONTINUOUS
10
0.308344
20
0.342089
11
0.30555
21
0.340222
0
LINE
8
BLACK
6
CONTINUOUS
10
0.30555
20
0.340222
11
0.302254
21
0.339567
0
LINE
8
BLACK
6
CONTINUOUS
10
0.302254
20
0.339567
11
0.282077
21
0.339567
0
LINE
8
BLACK
6
CONTINUOUS
10
0.282077
20
0.339567
11
0.278781
21
0.340222
0
LINE
8
BLACK
6
CONTINUOUS
10
0.278781
20
0.340222
11
0.275987
21
0.342089
0
LINE
8
BLACK
6
CONTINUOUS
10
0.275987
20
0.342089
11
0.27412
21
0.344883
0
LINE
8
BLACK
6
CONTINUOUS
10
0.27412
20
0.344883
11
0.273465
21
0.348179
0
LINE
8
BLACK
6
CONTINUOUS
10
0.273465
20
0.348179
11
0.273465
21
0.362126
0
LINE
8
BLACK
6
CONTINUOUS
10
0.273465
20
0.362126
11
0.263445
21
0.362126
0
LINE
8
BLACK
6
CONTINUOUS
10
0.263445
20
0.362126
11
0.26274
21
0.360744
0
LINE
8
BLACK
6
CONTINUOUS
10
0.26274
20
0.360744
11
0.259256
21
0.35726
0
LINE
8
BLACK
6
CONTINUOUS
10
0.259256
20
0.35726
11
0.254866
21
0.355023
0
LINE
8
BLACK
6
CONTINUOUS
10
0.254866
20
0.355023
11
0.25
21
0.354252
0
LINE
8
BLACK
6
CONTINUOUS
10
0.25
20
0.354252
11
0.245134
21
0.355023
0
LINE
8
BLACK
6
CONTINUOUS
10
0.245134
20
0.355023
11
0.240744
21
0.35726
0
LINE
8
BLACK
6
CONTINUOUS
10
0.240744
20
0.35726
11
0.23726
21
0.360744
0
LINE
8
BLACK
6
CONTINUOUS
10
0.23726
20
0.360744
11
0.235023
21
0.365134
0
LINE
8
BLACK
6
CONTINUOUS
10
0.235023
20
0.365134
11
0.234252
21
0.37
0
LINE
8
BLACK
6
CONTINUOUS
10
0.234252
20
0.37
11
0.235023
21
0.374866
0
LINE
8
BLACK
6
CONTINUOUS
10
0.235023
20
0.374866
11
0.23726
21
0.379256
0
LINE
8
BLACK
6
CONTINUOUS
10
0.23726
20
0.379256
11
0.240744
21
0.38274
0
LINE
8
BLACK
6
CONTINUOUS
10
0.240744
20
0.38274
11
0.245134
21
0.384977
0
LINE
8
BLACK
6
CONTINUOUS
10
0.245134
20
0.384977
11
0.25
21
0.385748
0
LINE
8
BLACK
6
CONTINUOUS
10
0.25
20
0.385748
11
0.254866
21
0.384977
0
LINE
8
BLACK
6
CONTINUOUS
10
0.435039
20
0.482283
11
0.424213
21
0.482283
0
LINE
8
BLACK
6
CONTINUOUS
10
0.424213
20
0.482283
11
0.424213
21
0.444764
0
LINE
8
BLACK
6
CONTINUOUS
10
0.424213
20
0.444764
11
0.453524
21
0.444764
0
LINE
8
BLACK
6
CONTINUOUS
10
0.453524
20
0.444764
11
0.453524
21
0.435138
0
LINE
8
BLACK
6
CONTINUOUS
10
0.453524
20
0.435138
11
0.463341
21
0.435138
0
LINE
8
BLACK
6
CONTINUOUS
10
0.463341
20
0.435138
11
0.464622
21
0.434843
0
LINE
8
BLACK
6
CONTINUOUS
10
0.464622
20
0.434843
11
0.465929
21
0.434695
0
LINE
8
BLACK
6
CONTINUOUS
10
0.465929
20
0.434695
11
0.466312
21
0.434454
0
LINE
8
BLACK
6
CONTINUOUS
10
0.466312
20
0.434454
11
0.466754
21
0.434353
0
LINE
8
BLACK
6
CONTINUOUS
10
0.466754
20
0.434353
11
0.467781
21
0.433531
0
LINE
8
BLACK
6
CONTINUOUS
10
0.467781
20
0.433531
11
0.468895
21
0.432832
0
LINE
8
BLACK
6
CONTINUOUS
10
0.468895
20
0.432832
11
0.479482
21
0.422244
0
LINE
8
BLACK
6
CONTINUOUS
10
0.479482
20
0.422244
11
0.489016
21
0.422244
0
LINE
8
BLACK
6
CONTINUOUS
10
0.489016
20
0.422244
11
0.489016
21
0.423474
0
LINE
8
BLACK
6
CONTINUOUS
10
0.489016
20
0.423474
11
0.489671
21
0.42677
0
LINE
8
BLACK
6
CONTINUOUS
10
0.489671
20
0.42677
11
0.491538
21
0.429564
0
LINE
8
BLACK
6
CONTINUOUS
10
0.491538
20
0.429564
11
0.494332
21
0.431431
0
LINE
8
BLACK
6
CONTINUOUS
10
0.494332
20
0.431431
11
0.497628
21
0.432087
0
LINE
8
BLACK
6
CONTINUOUS
10
0.497628
20
0.432087
11
0.517805
21
0.432087
0
LINE
8
BLACK
6
CONTINUOUS
10
0.517805
20
0.432087
11
0.521101
21
0.431431
0
LINE
8
BLACK
6
CONTINUOUS
10
0.521101
20
0.431431
11
0.523895
21
0.429564
0
LINE
8
BLACK
6
CONTINUOUS
10
0.523895
20
0.429564
11
0.525762
21
0.42677
0
LINE
8
BLACK
6
CONTINUOUS
10
0.525762
20
0.42677
11
0.526417
21
0.423474
0
LINE
8
BLACK
6
CONTINUOUS
10
0.526417
20
0.423474
11
0.526417
21
0.422736
0
LINE
8
BLACK
6
CONTINUOUS
10
0.526417
20
0.422736
11
0.538412
21
0.422736
0
LINE
8
BLACK
6
CONTINUOUS
10
0.538412
20
0.422736
11
0.539843
21
0.424168
0
LINE
8
BLACK
6
CONTINUOUS
10
0.539843
20
0.424168
11
0.539213
21
0.42815
0
LINE
8
BLACK
6
CONTINUOUS
10
0.539213
20
0.42815
11
0.539983
21
0.433016
0
LINE
8
BLACK
6
CONTINUOUS
10
0.539983
20
0.433016
11
0.54222
21
0.437406
0
LINE
8
BLACK
6
CONTINUOUS
10
0.54222
20
0.437406
11
0.545704
21
0.44089
0
LINE
8
BLACK
6
CONTINUOUS
10
0.545704
20
0.44089
11
0.550094
21
0.443127
0
LINE
8
BLACK
6
CONTINUOUS
10
0.550094
20
0.443127
11
0.554961
21
0.443898
0
LINE
8
BLACK
6
CONTINUOUS
10
0.554961
20
0.443898
11
0.559827
21
0.443127
0
LINE
8
BLACK
6
CONTINUOUS
10
0.559827
20
0.443127
11
0.564217
21
0.44089
0
LINE
8
BLACK
6
CONTINUOUS
10
0.564217
20
0.44089
11
0.567701
21
0.437406
0
LINE
8
BLACK
6
CONTINUOUS
10
0.567701
20
0.437406
11
0.569938
21
0.433016
0
LINE
8
BLACK
6
CONTINUOUS
10
0.569938
20
0.433016
11
0.570709
21
0.42815
0
LINE
8
BLACK
6
CONTINUOUS
10
0.570709
20
0.42815
11
0.569938
21
0.423283
0
LINE
8
BLACK
6
CONTINUOUS
10
0.569938
20
0.423283
11
0.567701
21
0.418893
0
LINE
8
BLACK
6
CONTINUOUS
10
0.567701
20
0.418893
11
0.564217
21
0.415409
0
LINE
8
BLACK
6
CONTINUOUS
10
0.564217
20
0.415409
11
0.559827
21
0.413172
0
LINE
8
BLACK
6
CONTINUOUS
10
0.559827
20
0.413172
11
0.554961
21
0.412402
0
LINE
8
BLACK
6
CONTINUOUS
10
0.554961
20
0.412402
11
0.550979
21
0.413032
0
LINE
8
BLACK
6
CONTINUOUS
10
0.550979
20
0.413032
11
0.547231
21
0.409285
0
LINE
8
BLACK
6
CONTINUOUS
10
0.547231
20
0.409285
11
0.546116
21
0.408587
0
LINE
8
BLACK
6
CONTINUOUS
10
0.546116
20
0.408587
11
0.545088
21
0.407767
0
LINE
8
BLACK
6
CONTINUOUS
10
0.545088
20
0.407767
11
0.544646
21
0.407666
0
LINE
8
BLACK
6
CONTINUOUS
10
0.544646
20
0.407666
11
0.544263
21
0.407426
0
LINE
8
BLACK
6
CONTINUOUS
10
0.544263
20
0.407426
11
0.542955
21
0.407281
0
LINE
8
BLACK
6
CONTINUOUS
10
0.542955
20
0.407281
11
0.541673
21
0.406988
0
LINE
8
BLACK
6
CONTINUOUS
10
0.541673
20
0.406988
11
0.526417
21
0.406988
0
LINE
8
BLACK
6
CONTINUOUS
10
0.526417
20
0.406988
11
0.526417
21
0.40625
0
LINE
8
BLACK
6
CONTINUOUS
10
0.526417
20
0.40625
11
0.525762
21
0.402954
0
LINE
8
BLACK
6
CONTINUOUS
10
0.525762
20
0.402954
11
0.523895
21
0.40016
0
LINE
8
BLACK
6
CONTINUOUS
10
0.523895
20
0.40016
11
0.521101
21
0.398293
0
LINE
8
BLACK
6
CONTINUOUS
10
0.521101
20
0.398293
11
0.517805
21
0.397638
0
LINE
8
BLACK
6
CONTINUOUS
10
0.517805
20
0.397638
11
0.497628
21
0.397638
0
LINE
8
BLACK
6
CONTINUOUS
10
0.497628
20
0.397638
11
0.494332
21
0.398293
0
LINE
8
BLACK
6
CONTINUOUS
10
0.494332
20
0.398293
11
0.491538
21
0.40016
0
LINE
8
BLACK
6
CONTINUOUS
10
0.491538
20
0.40016
11
0.489671
21
0.402954
0
LINE
8
BLACK
6
CONTINUOUS
10
0.489671
20
0.402954
11
0.489016
21
0.40625
0
LINE
8
BLACK
6
CONTINUOUS
10
0.489016
20
0.40625
11
0.489016
21
0.406496
0
LINE
8
BLACK
6
CONTINUOUS
10
0.489016
20
0.406496
11
0.476207
21
0.406496
0
LINE
8
BLACK
6
CONTINUOUS
10
0.476207
20
0.406496
11
0.474925
21
0.406791
0
LINE
8
BLACK
6
CONTINUOUS
10
0.474925
20
0.406791
11
0.473618
21
0.406939
0
LINE
8
BLACK
6
CONTINUOUS
10
0.473618
20
0.406939
11
0.473235
21
0.407179
0
LINE
8
BLACK
6
CONTINUOUS
10
0.473235
20
0.407179
11
0.472793
21
0.407281
0
LINE
8
BLACK
6
CONTINUOUS
10
0.472793
20
0.407281
11
0.471766
21
0.408103
0
LINE
8
BLACK
6
CONTINUOUS
10
0.471766
20
0.408103
11
0.470653
21
0.408802
0
LINE
8
BLACK
6
CONTINUOUS
10
0.470653
20
0.408802
11
0.460065
21
0.41939
0
LINE
8
BLACK
6
CONTINUOUS
10
0.460065
20
0.41939
11
0.453524
21
0.41939
0
LINE
8
BLACK
6
CONTINUOUS
10
0.453524
20
0.41939
11
0.453524
21
0.409764
0
LINE
8
BLACK
6
CONTINUOUS
10
0.453524
20
0.409764
11
0.398524
21
0.409764
0
LINE
8
BLACK
6
CONTINUOUS
10
0.398524
20
0.409764
11
0.398524
21
0.41939
0
LINE
8
BLACK
6
CONTINUOUS
10
0.398524
20
0.41939
11
0.37525
21
0.41939
0
LINE
8
BLACK
6
CONTINUOUS
10
0.37525
20
0.41939
11
0.370906
21
0.415046
0
LINE
8
BLACK
6
CONTINUOUS
10
0.370906
20
0.415046
11
0.370906
21
0.400591
0
LINE
8
BLACK
6
CONTINUOUS
10
0.370906
20
0.400591
11
0.343346
21
0.400591
0
LINE
8
BLACK
6
CONTINUOUS
10
0.343346
20
0.400591
11
0.343346
21
0.424213
0
LINE
8
BLACK
6
CONTINUOUS
10
0.343346
20
0.424213
11
0.348925
21
0.424213
0
LINE
8
BLACK
6
CONTINUOUS
10
0.348925
20
0.424213
11
0.346885
21
0.425252
0
LINE
8
BLACK
6
CONTINUOUS
10
0.346885
20
0.425252
11
0.343401
21
0.428736
0
LINE
8
BLACK
6
CONTINUOUS
10
0.343401
20
0.428736
11
0.341164
21
0.433126
0
LINE
8
BLACK
6
CONTINUOUS
10
0.341164
20
0.433126
11
0.340394
21
0.437992
0
LINE
8
BLACK
6
CONTINUOUS
10
0.340394
20
0.437992
11
0.341164
21
0.442859
0
LINE
8
BLACK
6
CONTINUOUS
10
0.341164
20
0.442859
11
0.343401
21
0.447249
0
LINE
8
BLACK
6
CONTINUOUS
10
0.343401
20
0.447249
11
0.346885
21
0.450733
0
LINE
8
BLACK
6
CONTINUOUS
10
0.346885
20
0.450733
11
0.351275
21
0.452969
0
LINE
8
BLACK
6
CONTINUOUS
10
0.351275
20
0.452969
11
0.356142
21
0.45374
0
LINE
8
BLACK
6
CONTINUOUS
10
0.356142
20
0.45374
11
0.361008
21
0.452969
0
LINE
8
BLACK
6
CONTINUOUS
10
0.361008
20
0.452969
11
0.365398
21
0.450733
0
LINE
8
BLACK
6
CONTINUOUS
10
0.365398
20
0.450733
11
0.368882
21
0.447249
0
LINE
8
BLACK
6
CONTINUOUS
10
0.368882
20
0.447249
11
0.371119
21
0.442859
0
LINE
8
BLACK
6
CONTINUOUS
10
0.371119
20
0.442859
11
0.37189
21
0.437992
0
LINE
8
BLACK
6
CONTINUOUS
10
0.37189
20
0.437992
11
0.371417
21
0.435008
0
LINE
8
BLACK
6
CONTINUOUS
10
0.371417
20
0.435008
11
0.371988
21
0.435138
0
LINE
8
BLACK
6
CONTINUOUS
10
0.371988
20
0.435138
11
0.398524
21
0.435138
0
LINE
8
BLACK
6
CONTINUOUS
10
0.398524
20
0.435138
11
0.398524
21
0.444764
0
LINE
8
BLACK
6
CONTINUOUS
10
0.398524
20
0.444764
11
0.408465
21
0.444764
0
LINE
8
BLACK
6
CONTINUOUS
10
0.408465
20
0.444764
11
0.408465
21
0.482283
0
LINE
8
BLACK
6
CONTINUOUS
10
0.408465
20
0.482283
11
0.397638
21
0.482283
0
LINE
8
BLACK
6
CONTINUOUS
10
0.397638
20
0.482283
11
0.397638
21
0.541339
0
LINE
8
BLACK
6
CONTINUOUS
10
0.397638
20
0.541339
11
0.435039
21
0.541339
0
LINE
8
BLACK
6
CONTINUOUS
10
0.435039
20
0.541339
11
0.435039
21
0.482283
0
LINE
8
BLACK
6
CONTINUOUS
10
0.0137795
20
0.128937
11
0.010013
21
0.129686
0
LINE
8
BLACK
6
CONTINUOUS
10
0.010013
20
0.129686
11
0.0068198
21
0.13182
0
LINE
8
BLACK
6
CONTINUOUS
10
0.0068198
20
0.13182
11
0.00468622
21
0.135013
0
LINE
8
BLACK
6
CONTINUOUS
10
0.00468622
20
0.135013
11
0.00393701
21
0.13878
0
LINE
8
BLACK
6
CONTINUOUS
10
0.00393701
20
0.13878
11
0.00393701
21
0.158465
0
LINE
8
BLACK
6
CONTINUOUS
10
0.00393701
20
0.158465
11
0.00468622
21
0.162231
0
LINE
8
BLACK
6
CONTINUOUS
10
0.00468622
20
0.162231
11
0.0068198
21
0.165424
0
LINE
8
BLACK
6
CONTINUOUS
10
0.0068198
20
0.165424
11
0.010013
21
0.167558
0
LINE
8
BLACK
6
CONTINUOUS
10
0.010013
20
0.167558
11
0.0137795
21
0.168307
0
LINE
8
BLACK
6
CONTINUOUS
10
0.0137795
20
0.168307
11
0.0470866
21
0.168307
0
LINE
8
BLACK
6
CONTINUOUS
10
0.0470866
20
0.168307
11
0.0470866
21
0.187793
0
LINE
8
BLACK
6
CONTINUOUS
10
0.0470866
20
0.187793
11
0.0469434
21
0.188187
0
LINE
8
BLACK
6
CONTINUOUS
10
0.0469434
20
0.188187
11
0.0467352
21
0.188307
0
LINE
8
BLACK
6
CONTINUOUS
10
0.0467352
20
0.188307
11
0.0118719
21
0.188307
0
LINE
8
BLACK
6
CONTINUOUS
10
0.0118719
20
0.188307
11
0.0117222
21
0.188299
0
LINE
8
BLACK
6
CONTINUOUS
10
0.0117222
20
0.188299
11
0.0111078
21
0.188236
0
LINE
8
BLACK
6
CONTINUOUS
10
0.0111078
20
0.188236
11
0.00917476
21
0.18872
0
LINE
8
BLACK
6
CONTINUOUS
10
0.00917476
20
0.18872
11
0.00800551
21
0.190334
0
LINE
8
BLACK
6
CONTINUOUS
10
0.00800551
20
0.190334
11
0.0078937
21
0.191133
0
LINE
8
BLACK
6
CONTINUOUS
10
0.0078937
20
0.191133
11
0.0078937
21
0.399417
0
LINE
8
BLACK
6
CONTINUOUS
10
0.0078937
20
0.399417
11
0.00857531
21
0.40129
0
LINE
8
BLACK
6
CONTINUOUS
10
0.00857531
20
0.40129
11
0.0103012
21
0.402286
0
LINE
8
BLACK
6
CONTINUOUS
10
0.0103012
20
0.402286
11
0.0111041
21
0.402315
0
LINE
8
BLACK
6
CONTINUOUS
10
0.0111041
20
0.402315
11
0.0117228
21
0.402252
0
LINE
8
BLACK
6
CONTINUOUS
10
0.0117228
20
0.402252
11
0.0118712
21
0.402244
0
LINE
8
BLACK
6
CONTINUOUS
10
0.0118712
20
0.402244
11
0.0465729
21
0.402244
0
LINE
8
BLACK
6
CONTINUOUS
10
0.0465729
20
0.402244
11
0.0469665
21
0.402387
0
LINE
8
BLACK
6
CONTINUOUS
10
0.0469665
20
0.402387
11
0.0470866
21
0.402595
0
LINE
8
BLACK
6
CONTINUOUS
10
0.0470866
20
0.402595
11
0.0470866
21
0.422244
0
LINE
8
BLACK
6
CONTINUOUS
10
0.0470866
20
0.422244
11
0.0137795
21
0.422244
0
LINE
8
BLACK
6
CONTINUOUS
10
0.0137795
20
0.422244
11
0.010013
21
0.422993
0
LINE
8
BLACK
6
CONTINUOUS
10
0.010013
20
0.422993
11
0.0068198
21
0.425127
0
LINE
8
BLACK
6
CONTINUOUS
10
0.0068198
20
0.425127
11
0.00468622
21
0.42832
0
LINE
8
BLACK
6
CONTINUOUS
10
0.00468622
20
0.42832
11
0.00393701
21
0.432087
0
LINE
8
BLACK
6
CONTINUOUS
10
0.00393701
20
0.432087
11
0.00393701
21
0.451772
0
LINE
8
BLACK
6
CONTINUOUS
10
0.00393701
20
0.451772
11
0.00468622
21
0.455538
0
LINE
8
BLACK
6
CONTINUOUS
10
0.00468622
20
0.455538
11
0.0068198
21
0.458731
0
LINE
8
BLACK
6
CONTINUOUS
10
0.0068198
20
0.458731
11
0.010013
21
0.460865
0
LINE
8
BLACK
6
CONTINUOUS
10
0.010013
20
0.460865
11
0.0137795
21
0.461614
0
LINE
8
BLACK
6
CONTINUOUS
10
0.0137795
20
0.461614
11
0.0470866
21
0.461614
0
LINE
8
BLACK
6
CONTINUOUS
10
0.0470866
20
0.461614
11
0.0470866
21
0.4811
0
LINE
8
BLACK
6
CONTINUOUS
10
0.0470866
20
0.4811
11
0.0469434
21
0.481494
0
LINE
8
BLACK
6
CONTINUOUS
10
0.0469434
20
0.481494
11
0.0467352
21
0.481614
0
LINE
8
BLACK
6
CONTINUOUS
10
0.0467352
20
0.481614
11
0.0118719
21
0.481614
0
LINE
8
BLACK
6
CONTINUOUS
10
0.0118719
20
0.481614
11
0.0117222
21
0.481606
0
LINE
8
BLACK
6
CONTINUOUS
10
0.0117222
20
0.481606
11
0.0111078
21
0.481543
0
LINE
8
BLACK
6
CONTINUOUS
10
0.0111078
20
0.481543
11
0.00917476
21
0.482027
0
LINE
8
BLACK
6
CONTINUOUS
10
0.00917476
20
0.482027
11
0.00800551
21
0.483641
0
LINE
8
BLACK
6
CONTINUOUS
10
0.00800551
20
0.483641
11
0.0078937
21
0.48444
0
LINE
8
BLACK
6
CONTINUOUS
10
0.0078937
20
0.48444
11
0.0078937
21
0.579744
0
LINE
8
BLACK
6
CONTINUOUS
10
0.0078937
20
0.579744
11
0.00857531
21
0.581617
0
LINE
8
BLACK
6
CONTINUOUS
10
0.00857531
20
0.581617
11
0.0103012
21
0.582613
0
LINE
8
BLACK
6
CONTINUOUS
10
0.0103012
20
0.582613
11
0.0108071
21
0.582657
0
LINE
8
BLACK
6
CONTINUOUS
10
0.0108071
20
0.582657
11
0.029386
21
0.582657
0
LINE
8
BLACK
6
CONTINUOUS
10
0.029386
20
0.582657
11
0.0312587
21
0.581976
0
LINE
8
BLACK
6
CONTINUOUS
10
0.0312587
20
0.581976
11
0.0322547
21
0.580253
0
LINE
8
BLACK
6
CONTINUOUS
10
0.0322547
20
0.580253
11
0.0333889
21
0.573853
0
LINE
8
BLACK
6
CONTINUOUS
10
0.0333889
20
0.573853
11
0.0334244
21
0.573748
0
LINE
8
BLACK
6
CONTINUOUS
10
0.0334244
20
0.573748
11
0.0334245
21
0.573748
0
LINE
8
BLACK
6
CONTINUOUS
10
0.0334245
20
0.573748
11
0.0360105
21
0.56613
0
LINE
8
BLACK
6
CONTINUOUS
10
0.0360105
20
0.56613
11
0.036663
21
0.564207
0
LINE
8
BLACK
6
CONTINUOUS
10
0.036663
20
0.564207
11
0.0367141
21
0.564109
0
LINE
8
BLACK
6
CONTINUOUS
10
0.0367141
20
0.564109
11
0.0367141
21
0.564109
0
LINE
8
BLACK
6
CONTINUOUS
10
0.0367141
20
0.564109
11
0.0398894
21
0.557996
0
LINE
8
BLACK
6
CONTINUOUS
10
0.0398894
20
0.557996
11
0.0413585
21
0.555168
0
LINE
8
BLACK
6
CONTINUOUS
10
0.0413585
20
0.555168
11
0.0414235
21
0.555079
0
LINE
8
BLACK
6
CONTINUOUS
10
0.0414235
20
0.555079
11
0.0414236
21
0.555079
0
LINE
8
BLACK
6
CONTINUOUS
10
0.0414236
20
0.555079
11
0.0455746
21
0.549397
0
LINE
8
BLACK
6
CONTINUOUS
10
0.0455746
20
0.549397
11
0.0473671
21
0.546943
0
LINE
8
BLACK
6
CONTINUOUS
10
0.0473671
20
0.546943
11
0.047445
21
0.546865
0
LINE
8
BLACK
6
CONTINUOUS
10
0.047445
20
0.546865
11
0.0524387
21
0.541845
0
LINE
8
BLACK
6
CONTINUOUS
10
0.0524387
20
0.541845
11
0.0545507
21
0.539722
0
LINE
8
BLACK
6
CONTINUOUS
10
0.0545507
20
0.539722
11
0.062744
21
0.53367
0
LINE
8
BLACK
6
CONTINUOUS
10
0.062744
20
0.53367
11
0.0628422
21
0.533619
0
LINE
8
BLACK
6
CONTINUOUS
10
0.0628422
20
0.533619
11
0.0716602
21
0.528979
0
LINE
8
BLACK
6
CONTINUOUS
10
0.0716602
20
0.528979
11
0.0716605
21
0.528979
0
LINE
8
BLACK
6
CONTINUOUS
10
0.0716605
20
0.528979
11
0.0717584
21
0.528928
0
LINE
8
BLACK
6
CONTINUOUS
10
0.0717584
20
0.528928
11
0.0813864
21
0.525603
0
LINE
8
BLACK
6
CONTINUOUS
10
0.0813864
20
0.525603
11
0.0814951
21
0.525583
0
LINE
8
BLACK
6
CONTINUOUS
10
0.0814951
20
0.525583
11
0.0814952
21
0.525583
0
LINE
8
BLACK
6
CONTINUOUS
10
0.0814952
20
0.525583
11
0.0855994
21
0.524834
0
LINE
8
BLACK
6
CONTINUOUS
10
0.0855994
20
0.524834
11
0.0914065
21
0.523773
0
LINE
8
BLACK
6
CONTINUOUS
10
0.0914065
20
0.523773
11
0.0914995
21
0.523768
0
LINE
8
BLACK
6
CONTINUOUS
10
0.0914995
20
0.523768
11
0.0914996
21
0.523768
0
LINE
8
BLACK
6
CONTINUOUS
10
0.0914996
20
0.523768
11
0.0946283
21
0.523604
0
LINE
8
BLACK
6
CONTINUOUS
10
0.0946283
20
0.523604
11
0.0946288
21
0.523604
0
LINE
8
BLACK
6
CONTINUOUS
10
0.0946288
20
0.523604
11
0.0946661
21
0.523602
0
LINE
8
BLACK
6
CONTINUOUS
10
0.0946661
20
0.523602
11
0.101015
21
0.523602
0
LINE
8
BLACK
6
CONTINUOUS
10
0.101015
20
0.523602
11
0.103829
21
0.523816
0
LINE
8
BLACK
6
CONTINUOUS
10
0.103829
20
0.523816
11
0.108472
21
0.52417
0
LINE
8
BLACK
6
CONTINUOUS
10
0.108472
20
0.52417
11
0.108472
21
0.52417
0
LINE
8
BLACK
6
CONTINUOUS
10
0.108472
20
0.52417
11
0.108582
21
0.524178
0
LINE
8
BLACK
6
CONTINUOUS
10
0.108582
20
0.524178
11
0.118505
21
0.526478
0
LINE
8
BLACK
6
CONTINUOUS
10
0.118505
20
0.526478
11
0.118607
21
0.526519
0
LINE
8
BLACK
6
CONTINUOUS
10
0.118607
20
0.526519
11
0.118607
21
0.526519
0
LINE
8
BLACK
6
CONTINUOUS
10
0.118607
20
0.526519
11
0.127863
21
0.530211
0
LINE
8
BLACK
6
CONTINUOUS
10
0.127863
20
0.530211
11
0.127863
21
0.530211
0
LINE
8
BLACK
6
CONTINUOUS
10
0.127863
20
0.530211
11
0.127965
21
0.530252
0
LINE
8
BLACK
6
CONTINUOUS
10
0.127965
20
0.530252
11
0.128061
21
0.530308
0
LINE
8
BLACK
6
CONTINUOUS
10
0.128061
20
0.530308
11
0.128061
21
0.530308
0
LINE
8
BLACK
6
CONTINUOUS
10
0.128061
20
0.530308
11
0.136651
21
0.535358
0
LINE
8
BLACK
6
CONTINUOUS
10
0.136651
20
0.535358
11
0.136651
21
0.535358
0
LINE
8
BLACK
6
CONTINUOUS
10
0.136651
20
0.535358
11
0.136746
21
0.535414
0
LINE
8
BLACK
6
CONTINUOUS
10
0.136746
20
0.535414
11
0.144645
21
0.541845
0
LINE
8
BLACK
6
CONTINUOUS
10
0.144645
20
0.541845
11
0.151481
21
0.549397
0
LINE
8
BLACK
6
CONTINUOUS
10
0.151481
20
0.549397
11
0.151542
21
0.549489
0
LINE
8
BLACK
6
CONTINUOUS
10
0.151542
20
0.549489
11
0.151542
21
0.54949
0
LINE
8
BLACK
6
CONTINUOUS
10
0.151542
20
0.54949
11
0.157034
21
0.557803
0
LINE
8
BLACK
6
CONTINUOUS
10
0.157034
20
0.557803
11
0.157034
21
0.557803
0
LINE
8
BLACK
6
CONTINUOUS
10
0.157034
20
0.557803
11
0.157095
21
0.557896
0
LINE
8
BLACK
6
CONTINUOUS
10
0.157095
20
0.557896
11
0.158421
21
0.560772
0
LINE
8
BLACK
6
CONTINUOUS
10
0.158421
20
0.560772
11
0.161314
21
0.567046
0
LINE
8
BLACK
6
CONTINUOUS
10
0.161314
20
0.567046
11
0.161314
21
0.567046
0
LINE
8
BLACK
6
CONTINUOUS
10
0.161314
20
0.567046
11
0.16136
21
0.567146
0
LINE
8
BLACK
6
CONTINUOUS
10
0.16136
20
0.567146
11
0.163002
21
0.572854
0
LINE
8
BLACK
6
CONTINUOUS
10
0.163002
20
0.572854
11
0.164145
21
0.576829
0
LINE
8
BLACK
6
CONTINUOUS
10
0.164145
20
0.576829
11
0.164176
21
0.576935
0
LINE
8
BLACK
6
CONTINUOUS
10
0.164176
20
0.576935
11
0.164538
21
0.579743
0
LINE
8
BLACK
6
CONTINUOUS
10
0.164538
20
0.579743
11
0.164586
21
0.580117
0
LINE
8
BLACK
6
CONTINUOUS
10
0.164586
20
0.580117
11
0.165502
21
0.581887
0
LINE
8
BLACK
6
CONTINUOUS
10
0.165502
20
0.581887
11
0.167476
21
0.582657
0
LINE
8
BLACK
6
CONTINUOUS
10
0.167476
20
0.582657
11
0.331613
21
0.582657
0
LINE
8
BLACK
6
CONTINUOUS
10
0.331613
20
0.582657
11
0.333486
21
0.581976
0
LINE
8
BLACK
6
CONTINUOUS
10
0.333486
20
0.581976
11
0.334482
21
0.58025
0
LINE
8
BLACK
6
CONTINUOUS
10
0.334482
20
0.58025
11
0.334527
21
0.579743
0
LINE
8
BLACK
6
CONTINUOUS
10
0.334527
20
0.579743
11
0.334526
21
0.575731
0
LINE
8
BLACK
6
CONTINUOUS
10
0.334526
20
0.575731
11
0.333844
21
0.573858
0
LINE
8
BLACK
6
CONTINUOUS
10
0.333844
20
0.573858
11
0.332118
21
0.572862
0
LINE
8
BLACK
6
CONTINUOUS
10
0.332118
20
0.572862
11
0.331846
21
0.572828
0
LINE
8
BLACK
6
CONTINUOUS
10
0.331846
20
0.572828
11
0.327319
21
0.572463
0
LINE
8
BLACK
6
CONTINUOUS
10
0.327319
20
0.572463
11
0.324854
21
0.572265
0
LINE
8
BLACK
6
CONTINUOUS
10
0.324854
20
0.572265
11
0.315315
21
0.569922
0
LINE
8
BLACK
6
CONTINUOUS
10
0.315315
20
0.569922
11
0.310794
21
0.568003
0
LINE
8
BLACK
6
CONTINUOUS
10
0.310794
20
0.568003
11
0.306381
21
0.56613
0
LINE
8
BLACK
6
CONTINUOUS
10
0.306381
20
0.56613
11
0.30638
21
0.56613
0
LINE
8
BLACK
6
CONTINUOUS
10
0.30638
20
0.56613
11
0.306273
21
0.566084
0
LINE
8
BLACK
6
CONTINUOUS
10
0.306273
20
0.566084
11
0.29796
21
0.560849
0
LINE
8
BLACK
6
CONTINUOUS
10
0.29796
20
0.560849
11
0.297872
21
0.560772
0
LINE
8
BLACK
6
CONTINUOUS
10
0.297872
20
0.560772
11
0.291415
21
0.555079
0
LINE
8
BLACK
6
CONTINUOUS
10
0.291415
20
0.555079
11
0.290592
21
0.554353
0
LINE
8
BLACK
6
CONTINUOUS
10
0.290592
20
0.554353
11
0.290518
21
0.554263
0
LINE
8
BLACK
6
CONTINUOUS
10
0.290518
20
0.554263
11
0.284431
21
0.546853
0
LINE
8
BLACK
6
CONTINUOUS
10
0.284431
20
0.546853
11
0.284431
21
0.546853
0
LINE
8
BLACK
6
CONTINUOUS
10
0.284431
20
0.546853
11
0.284357
21
0.546763
0
LINE
8
BLACK
6
CONTINUOUS
10
0.284357
20
0.546763
11
0.283523
21
0.54533
0
LINE
8
BLACK
6
CONTINUOUS
10
0.283523
20
0.54533
11
0.281992
21
0.544054
0
LINE
8
BLACK
6
CONTINUOUS
10
0.281992
20
0.544054
11
0.279999
21
0.544061
0
LINE
8
BLACK
6
CONTINUOUS
10
0.279999
20
0.544061
11
0.278583
21
0.545177
0
LINE
8
BLACK
6
CONTINUOUS
10
0.278583
20
0.545177
11
0.277504
21
0.546791
0
LINE
8
BLACK
6
CONTINUOUS
10
0.277504
20
0.546791
11
0.277345
21
0.54703
0
LINE
8
BLACK
6
CONTINUOUS
10
0.277345
20
0.54703
11
0.274734
21
0.548774
0
LINE
8
BLACK
6
CONTINUOUS
10
0.274734
20
0.548774
11
0.272981
21
0.549123
0
LINE
8
BLACK
6
CONTINUOUS
10
0.272981
20
0.549123
11
0.272572
21
0.549204
0
LINE
8
BLACK
6
CONTINUOUS
10
0.272572
20
0.549204
11
0.272572
21
0.549204
0
LINE
8
BLACK
6
CONTINUOUS
10
0.272572
20
0.549204
11
0.272431
21
0.549232
0
LINE
8
BLACK
6
CONTINUOUS
10
0.272431
20
0.549232
11
0.233474
21
0.549232
0
LINE
8
BLACK
6
CONTINUOUS
10
0.233474
20
0.549232
11
0.233334
21
0.549204
0
LINE
8
BLACK
6
CONTINUOUS
10
0.233334
20
0.549204
11
0.233334
21
0.549204
0
LINE
8
BLACK
6
CONTINUOUS
10
0.233334
20
0.549204
11
0.232925
21
0.549123
0
LINE
8
BLACK
6
CONTINUOUS
10
0.232925
20
0.549123
11
0.231172
21
0.548774
0
LINE
8
BLACK
6
CONTINUOUS
10
0.231172
20
0.548774
11
0.228561
21
0.54703
0
LINE
8
BLACK
6
CONTINUOUS
10
0.228561
20
0.54703
11
0.228401
21
0.546791
0
LINE
8
BLACK
6
CONTINUOUS
10
0.228401
20
0.546791
11
0.227323
21
0.545177
0
LINE
8
BLACK
6
CONTINUOUS
10
0.227323
20
0.545177
11
0.226816
21
0.544419
0
LINE
8
BLACK
6
CONTINUOUS
10
0.226816
20
0.544419
11
0.226358
21
0.542116
0
LINE
8
BLACK
6
CONTINUOUS
10
0.226358
20
0.542116
11
0.226358
21
0.481506
0
LINE
8
BLACK
6
CONTINUOUS
10
0.226358
20
0.481506
11
0.226816
21
0.479204
0
LINE
8
BLACK
6
CONTINUOUS
10
0.226816
20
0.479204
11
0.228561
21
0.476592
0
LINE
8
BLACK
6
CONTINUOUS
10
0.228561
20
0.476592
11
0.2288
21
0.476433
0
LINE
8
BLACK
6
CONTINUOUS
10
0.2288
20
0.476433
11
0.230598
21
0.475231
0
LINE
8
BLACK
6
CONTINUOUS
10
0.230598
20
0.475231
11
0.231172
21
0.474848
0
LINE
8
BLACK
6
CONTINUOUS
10
0.231172
20
0.474848
11
0.232925
21
0.474499
0
LINE
8
BLACK
6
CONTINUOUS
10
0.232925
20
0.474499
11
0.233334
21
0.474418
0
LINE
8
BLACK
6
CONTINUOUS
10
0.233334
20
0.474418
11
0.233334
21
0.474418
0
LINE
8
BLACK
6
CONTINUOUS
10
0.233334
20
0.474418
11
0.233474
21
0.47439
0
LINE
8
BLACK
6
CONTINUOUS
10
0.233474
20
0.47439
11
0.23624
21
0.47439
0
LINE
8
BLACK
6
CONTINUOUS
10
0.23624
20
0.47439
11
0.238113
21
0.473708
0
LINE
8
BLACK
6
CONTINUOUS
10
0.238113
20
0.473708
11
0.239109
21
0.471982
0
LINE
8
BLACK
6
CONTINUOUS
10
0.239109
20
0.471982
11
0.239154
21
0.471476
0
LINE
8
BLACK
6
CONTINUOUS
10
0.239154
20
0.471476
11
0.239154
21
0.459795
0
LINE
8
BLACK
6
CONTINUOUS
10
0.239154
20
0.459795
11
0.239088
21
0.459182
0
LINE
8
BLACK
6
CONTINUOUS
10
0.239088
20
0.459182
11
0.238978
21
0.458671
0
LINE
8
BLACK
6
CONTINUOUS
10
0.238978
20
0.458671
11
0.239007
21
0.458432
0
LINE
8
BLACK
6
CONTINUOUS
10
0.239007
20
0.458432
11
0.239007
21
0.458432
0
LINE
8
BLACK
6
CONTINUOUS
10
0.239007
20
0.458432
11
0.239133
21
0.457361
0
LINE
8
BLACK
6
CONTINUOUS
10
0.239133
20
0.457361
11
0.239154
21
0.457018
0
LINE
8
BLACK
6
CONTINUOUS
10
0.239154
20
0.457018
11
0.239154
21
0.456866
0
LINE
8
BLACK
6
CONTINUOUS
10
0.239154
20
0.456866
11
0.239173
21
0.456747
0
LINE
8
BLACK
6
CONTINUOUS
10
0.239173
20
0.456747
11
0.239173
21
0.456747
0
LINE
8
BLACK
6
CONTINUOUS
10
0.239173
20
0.456747
11
0.239275
21
0.456134
0
LINE
8
BLACK
6
CONTINUOUS
10
0.239275
20
0.456134
11
0.239295
21
0.455998
0
LINE
8
BLACK
6
CONTINUOUS
10
0.239295
20
0.455998
11
0.239335
21
0.455653
0
LINE
8
BLACK
6
CONTINUOUS
10
0.239335
20
0.455653
11
0.239518
21
0.454109
0
LINE
8
BLACK
6
CONTINUOUS
10
0.239518
20
0.454109
11
0.239622
21
0.453892
0
LINE
8
BLACK
6
CONTINUOUS
10
0.239622
20
0.453892
11
0.239635
21
0.453847
0
LINE
8
BLACK
6
CONTINUOUS
10
0.239635
20
0.453847
11
0.239643
21
0.453815
0
LINE
8
BLACK
6
CONTINUOUS
10
0.239643
20
0.453815
11
0.23965
21
0.453792
0
LINE
8
BLACK
6
CONTINUOUS
10
0.23965
20
0.453792
11
0.239662
21
0.453763
0
LINE
8
BLACK
6
CONTINUOUS
10
0.239662
20
0.453763
11
0.239677
21
0.453718
0
LINE
8
BLACK
6
CONTINUOUS
10
0.239677
20
0.453718
11
0.239717
21
0.45348
0
LINE
8
BLACK
6
CONTINUOUS
10
0.239717
20
0.45348
11
0.239831
21
0.453268
0
LINE
8
BLACK
6
CONTINUOUS
10
0.239831
20
0.453268
11
0.240621
21
0.451805
0
LINE
8
BLACK
6
CONTINUOUS
10
0.240621
20
0.451805
11
0.240683
21
0.451683
0
LINE
8
BLACK
6
CONTINUOUS
10
0.240683
20
0.451683
11
0.241427
21
0.450133
0
LINE
8
BLACK
6
CONTINUOUS
10
0.241427
20
0.450133
11
0.241428
21
0.450132
0
LINE
8
BLACK
6
CONTINUOUS
10
0.241428
20
0.450132
11
0.241507
21
0.449967
0
LINE
8
BLACK
6
CONTINUOUS
10
0.241507
20
0.449967
11
0.241637
21
0.449812
0
LINE
8
BLACK
6
CONTINUOUS
10
0.241637
20
0.449812
11
0.241675
21
0.449775
0
LINE
8
BLACK
6
CONTINUOUS
10
0.241675
20
0.449775
11
0.24179
21
0.449638
0
LINE
8
BLACK
6
CONTINUOUS
10
0.24179
20
0.449638
11
0.241899
21
0.449437
0
LINE
8
BLACK
6
CONTINUOUS
10
0.241899
20
0.449437
11
0.242075
21
0.449274
0
LINE
8
BLACK
6
CONTINUOUS
10
0.242075
20
0.449274
11
0.243361
21
0.448085
0
LINE
8
BLACK
6
CONTINUOUS
10
0.243361
20
0.448085
11
0.243444
21
0.448006
0
LINE
8
BLACK
6
CONTINUOUS
10
0.243444
20
0.448006
11
0.264718
21
0.426732
0
LINE
8
BLACK
6
CONTINUOUS
10
0.264718
20
0.426732
11
0.26556
21
0.424926
0
LINE
8
BLACK
6
CONTINUOUS
10
0.26556
20
0.424926
11
0.265571
21
0.424672
0
LINE
8
BLACK
6
CONTINUOUS
10
0.265571
20
0.424672
11
0.265571
21
0.408888
0
LINE
8
BLACK
6
CONTINUOUS
10
0.265571
20
0.408888
11
0.265589
21
0.408775
0
LINE
8
BLACK
6
CONTINUOUS
10
0.265589
20
0.408775
11
0.266147
21
0.405249
0
LINE
8
BLACK
6
CONTINUOUS
10
0.266147
20
0.405249
11
0.266147
21
0.405249
0
LINE
8
BLACK
6
CONTINUOUS
10
0.266147
20
0.405249
11
0.266183
21
0.405023
0
LINE
8
BLACK
6
CONTINUOUS
10
0.266183
20
0.405023
11
0.266287
21
0.404818
0
LINE
8
BLACK
6
CONTINUOUS
10
0.266287
20
0.404818
11
0.268453
21
0.400569
0
LINE
8
BLACK
6
CONTINUOUS
10
0.268453
20
0.400569
11
0.268453
21
0.400568
0
LINE
8
BLACK
6
CONTINUOUS
10
0.268453
20
0.400568
11
0.268557
21
0.400364
0
LINE
8
BLACK
6
CONTINUOUS
10
0.268557
20
0.400364
11
0.272254
21
0.396667
0
LINE
8
BLACK
6
CONTINUOUS
10
0.272254
20
0.396667
11
0.272458
21
0.396563
0
LINE
8
BLACK
6
CONTINUOUS
10
0.272458
20
0.396563
11
0.272458
21
0.396563
0
LINE
8
BLACK
6
CONTINUOUS
10
0.272458
20
0.396563
11
0.276559
21
0.394473
0
LINE
8
BLACK
6
CONTINUOUS
10
0.276559
20
0.394473
11
0.276913
21
0.394293
0
LINE
8
BLACK
6
CONTINUOUS
10
0.276913
20
0.394293
11
0.277139
21
0.394257
0
LINE
8
BLACK
6
CONTINUOUS
10
0.277139
20
0.394257
11
0.277139
21
0.394257
0
LINE
8
BLACK
6
CONTINUOUS
10
0.277139
20
0.394257
11
0.280665
21
0.393699
0
LINE
8
BLACK
6
CONTINUOUS
10
0.280665
20
0.393699
11
0.280778
21
0.393681
0
LINE
8
BLACK
6
CONTINUOUS
10
0.280778
20
0.393681
11
0.303553
21
0.393681
0
LINE
8
BLACK
6
CONTINUOUS
10
0.303553
20
0.393681
11
0.303666
21
0.393699
0
LINE
8
BLACK
6
CONTINUOUS
10
0.303666
20
0.393699
11
0.307192
21
0.394257
0
LINE
8
BLACK
6
CONTINUOUS
10
0.307192
20
0.394257
11
0.307192
21
0.394257
0
LINE
8
BLACK
6
CONTINUOUS
10
0.307192
20
0.394257
11
0.307418
21
0.394293
0
LINE
8
BLACK
6
CONTINUOUS
10
0.307418
20
0.394293
11
0.307772
21
0.394473
0
LINE
8
BLACK
6
CONTINUOUS
10
0.307772
20
0.394473
11
0.311872
21
0.396563
0
LINE
8
BLACK
6
CONTINUOUS
10
0.311872
20
0.396563
11
0.311872
21
0.396563
0
LINE
8
BLACK
6
CONTINUOUS
10
0.311872
20
0.396563
11
0.312077
21
0.396667
0
LINE
8
BLACK
6
CONTINUOUS
10
0.312077
20
0.396667
11
0.315774
21
0.400364
0
LINE
8
BLACK
6
CONTINUOUS
10
0.315774
20
0.400364
11
0.315878
21
0.400568
0
LINE
8
BLACK
6
CONTINUOUS
10
0.315878
20
0.400568
11
0.315878
21
0.400569
0
LINE
8
BLACK
6
CONTINUOUS
10
0.315878
20
0.400569
11
0.317837
21
0.404414
0
LINE
8
BLACK
6
CONTINUOUS
10
0.317837
20
0.404414
11
0.319295
21
0.405773
0
LINE
8
BLACK
6
CONTINUOUS
10
0.319295
20
0.405773
11
0.321285
21
0.405877
0
LINE
8
BLACK
6
CONTINUOUS
10
0.321285
20
0.405877
11
0.322876
21
0.404678
0
LINE
8
BLACK
6
CONTINUOUS
10
0.322876
20
0.404678
11
0.323346
21
0.403091
0
LINE
8
BLACK
6
CONTINUOUS
10
0.323346
20
0.403091
11
0.323346
21
0.398776
0
LINE
8
BLACK
6
CONTINUOUS
10
0.323346
20
0.398776
11
0.323355
21
0.398618
0
LINE
8
BLACK
6
CONTINUOUS
10
0.323355
20
0.398618
11
0.323592
21
0.396433
0
LINE
8
BLACK
6
CONTINUOUS
10
0.323592
20
0.396433
11
0.323676
21
0.396081
0
LINE
8
BLACK
6
CONTINUOUS
10
0.323676
20
0.396081
11
0.32555
21
0.391082
0
LINE
8
BLACK
6
CONTINUOUS
10
0.32555
20
0.391082
11
0.325748
21
0.390721
0
LINE
8
BLACK
6
CONTINUOUS
10
0.325748
20
0.390721
11
0.328934
21
0.386469
0
LINE
8
BLACK
6
CONTINUOUS
10
0.328934
20
0.386469
11
0.329225
21
0.386178
0
LINE
8
BLACK
6
CONTINUOUS
10
0.329225
20
0.386178
11
0.333313
21
0.383115
0
LINE
8
BLACK
6
CONTINUOUS
10
0.333313
20
0.383115
11
0.334403
21
0.381446
0
LINE
8
BLACK
6
CONTINUOUS
10
0.334403
20
0.381446
11
0.334479
21
0.380783
0
LINE
8
BLACK
6
CONTINUOUS
10
0.334479
20
0.380783
11
0.334478
21
0.375472
0
LINE
8
BLACK
6
CONTINUOUS
10
0.334478
20
0.375472
11
0.333796
21
0.373599
0
LINE
8
BLACK
6
CONTINUOUS
10
0.333796
20
0.373599
11
0.33207
21
0.372603
0
LINE
8
BLACK
6
CONTINUOUS
10
0.33207
20
0.372603
11
0.331564
21
0.372559
0
LINE
8
BLACK
6
CONTINUOUS
10
0.331564
20
0.372559
11
0.318918
21
0.372559
0
LINE
8
BLACK
6
CONTINUOUS
10
0.318918
20
0.372559
11
0.317046
21
0.373241
0
LINE
8
BLACK
6
CONTINUOUS
10
0.317046
20
0.373241
11
0.316323
21
0.37415
0
LINE
8
BLACK
6
CONTINUOUS
10
0.316323
20
0.37415
11
0.315878
21
0.375022
0
LINE
8
BLACK
6
CONTINUOUS
10
0.315878
20
0.375022
11
0.315774
21
0.375226
0
LINE
8
BLACK
6
CONTINUOUS
10
0.315774
20
0.375226
11
0.312077
21
0.378924
0
LINE
8
BLACK
6
CONTINUOUS
10
0.312077
20
0.378924
11
0.311872
21
0.379028
0
LINE
8
BLACK
6
CONTINUOUS
10
0.311872
20
0.379028
11
0.311872
21
0.379028
0
LINE
8
BLACK
6
CONTINUOUS
10
0.311872
20
0.379028
11
0.307623
21
0.381193
0
LINE
8
BLACK
6
CONTINUOUS
10
0.307623
20
0.381193
11
0.307418
21
0.381297
0
LINE
8
BLACK
6
CONTINUOUS
10
0.307418
20
0.381297
11
0.307192
21
0.381333
0
LINE
8
BLACK
6
CONTINUOUS
10
0.307192
20
0.381333
11
0.307192
21
0.381333
0
LINE
8
BLACK
6
CONTINUOUS
10
0.307192
20
0.381333
11
0.303666
21
0.381892
0
LINE
8
BLACK
6
CONTINUOUS
10
0.303666
20
0.381892
11
0.303553
21
0.381909
0
LINE
8
BLACK
6
CONTINUOUS
10
0.303553
20
0.381909
11
0.290553
21
0.381909
0
LINE
8
BLACK
6
CONTINUOUS
10
0.290553
20
0.381909
11
0.28868
21
0.382591
0
LINE
8
BLACK
6
CONTINUOUS
10
0.28868
20
0.382591
11
0.288506
21
0.38275
0
LINE
8
BLACK
6
CONTINUOUS
10
0.288506
20
0.38275
11
0.288502
21
0.382753
0
LINE
8
BLACK
6
CONTINUOUS
10
0.288502
20
0.382753
11
0.28834
21
0.382915
0
LINE
8
BLACK
6
CONTINUOUS
10
0.28834
20
0.382915
11
0.288136
21
0.383019
0
LINE
8
BLACK
6
CONTINUOUS
10
0.288136
20
0.383019
11
0.287425
21
0.383382
0
LINE
8
BLACK
6
CONTINUOUS
10
0.287425
20
0.383382
11
0.287035
21
0.383621
0
LINE
8
BLACK
6
CONTINUOUS
10
0.287035
20
0.383621
11
0.28639
21
0.384089
0
LINE
8
BLACK
6
CONTINUOUS
10
0.28639
20
0.384089
11
0.28639
21
0.38409
0
LINE
8
BLACK
6
CONTINUOUS
10
0.28639
20
0.38409
11
0.286204
21
0.384224
0
LINE
8
BLACK
6
CONTINUOUS
10
0.286204
20
0.384224
11
0.285986
21
0.384295
0
LINE
8
BLACK
6
CONTINUOUS
10
0.285986
20
0.384295
11
0.285986
21
0.384295
0
LINE
8
BLACK
6
CONTINUOUS
10
0.285986
20
0.384295
11
0.285227
21
0.384542
0
LINE
8
BLACK
6
CONTINUOUS
10
0.285227
20
0.384542
11
0.284805
21
0.384717
0
LINE
8
BLACK
6
CONTINUOUS
10
0.284805
20
0.384717
11
0.284094
21
0.385079
0
LINE
8
BLACK
6
CONTINUOUS
10
0.284094
20
0.385079
11
0.28389
21
0.385183
0
LINE
8
BLACK
6
CONTINUOUS
10
0.28389
20
0.385183
11
0.283269
21
0.385281
0
LINE
8
BLACK
6
CONTINUOUS
10
0.283269
20
0.385281
11
0.282875
21
0.385344
0
LINE
8
BLACK
6
CONTINUOUS
10
0.282875
20
0.385344
11
0.282431
21
0.38545
0
LINE
8
BLACK
6
CONTINUOUS
10
0.282431
20
0.38545
11
0.281672
21
0.385697
0
LINE
8
BLACK
6
CONTINUOUS
10
0.281672
20
0.385697
11
0.281672
21
0.385697
0
LINE
8
BLACK
6
CONTINUOUS
10
0.281672
20
0.385697
11
0.281454
21
0.385768
0
LINE
8
BLACK
6
CONTINUOUS
10
0.281454
20
0.385768
11
0.269127
21
0.385768
0
LINE
8
BLACK
6
CONTINUOUS
10
0.269127
20
0.385768
11
0.267254
21
0.386449
0
LINE
8
BLACK
6
CONTINUOUS
10
0.267254
20
0.386449
11
0.267067
21
0.386621
0
LINE
8
BLACK
6
CONTINUOUS
10
0.267067
20
0.386621
11
0.266978
21
0.38671
0
LINE
8
BLACK
6
CONTINUOUS
10
0.266978
20
0.38671
11
0.266861
21
0.386861
0
LINE
8
BLACK
6
CONTINUOUS
10
0.266861
20
0.386861
11
0.263859
21
0.389165
0
LINE
8
BLACK
6
CONTINUOUS
10
0.263859
20
0.389165
11
0.262074
21
0.390535
0
LINE
8
BLACK
6
CONTINUOUS
10
0.262074
20
0.390535
11
0.262074
21
0.390535
0
LINE
8
BLACK
6
CONTINUOUS
10
0.262074
20
0.390535
11
0.261923
21
0.390651
0
LINE
8
BLACK
6
CONTINUOUS
10
0.261923
20
0.390651
11
0.256172
21
0.393033
0
LINE
8
BLACK
6
CONTINUOUS
10
0.256172
20
0.393033
11
0.255983
21
0.393058
0
LINE
8
BLACK
6
CONTINUOUS
10
0.255983
20
0.393058
11
0.255983
21
0.393058
0
LINE
8
BLACK
6
CONTINUOUS
10
0.255983
20
0.393058
11
0.250189
21
0.393821
0
LINE
8
BLACK
6
CONTINUOUS
10
0.250189
20
0.393821
11
0.25
21
0.393846
0
LINE
8
BLACK
6
CONTINUOUS
10
0.25
20
0.393846
11
0.249811
21
0.393821
0
LINE
8
BLACK
6
CONTINUOUS
10
0.249811
20
0.393821
11
0.244017
21
0.393058
0
LINE
8
BLACK
6
CONTINUOUS
10
0.244017
20
0.393058
11
0.244017
21
0.393058
0
LINE
8
BLACK
6
CONTINUOUS
10
0.244017
20
0.393058
11
0.243828
21
0.393033
0
LINE
8
BLACK
6
CONTINUOUS
10
0.243828
20
0.393033
11
0.238077
21
0.390651
0
LINE
8
BLACK
6
CONTINUOUS
10
0.238077
20
0.390651
11
0.237926
21
0.390535
0
LINE
8
BLACK
6
CONTINUOUS
10
0.237926
20
0.390535
11
0.237926
21
0.390535
0
LINE
8
BLACK
6
CONTINUOUS
10
0.237926
20
0.390535
11
0.236141
21
0.389165
0
LINE
8
BLACK
6
CONTINUOUS
10
0.236141
20
0.389165
11
0.23424
21
0.388566
0
LINE
8
BLACK
6
CONTINUOUS
10
0.23424
20
0.388566
11
0.232399
21
0.389329
0
LINE
8
BLACK
6
CONTINUOUS
10
0.232399
20
0.389329
11
0.23186
21
0.389994
0
LINE
8
BLACK
6
CONTINUOUS
10
0.23186
20
0.389994
11
0.231355
21
0.390846
0
LINE
8
BLACK
6
CONTINUOUS
10
0.231355
20
0.390846
11
0.231132
21
0.391134
0
LINE
8
BLACK
6
CONTINUOUS
10
0.231132
20
0.391134
11
0.226763
21
0.395502
0
LINE
8
BLACK
6
CONTINUOUS
10
0.226763
20
0.395502
11
0.226476
21
0.395725
0
LINE
8
BLACK
6
CONTINUOUS
10
0.226476
20
0.395725
11
0.221158
21
0.398871
0
LINE
8
BLACK
6
CONTINUOUS
10
0.221158
20
0.398871
11
0.220824
21
0.399015
0
LINE
8
BLACK
6
CONTINUOUS
10
0.220824
20
0.399015
11
0.214857
21
0.400748
0
LINE
8
BLACK
6
CONTINUOUS
10
0.214857
20
0.400748
11
0.214566
21
0.400802
0
LINE
8
BLACK
6
CONTINUOUS
10
0.214566
20
0.400802
11
0.213303
21
0.400901
0
LINE
8
BLACK
6
CONTINUOUS
10
0.213303
20
0.400901
11
0.213189
21
0.400906
0
LINE
8
BLACK
6
CONTINUOUS
10
0.213189
20
0.400906
11
0.193585
21
0.400906
0
LINE
8
BLACK
6
CONTINUOUS
10
0.193585
20
0.400906
11
0.193191
21
0.400762
0
LINE
8
BLACK
6
CONTINUOUS
10
0.193191
20
0.400762
11
0.193071
21
0.400554
0
LINE
8
BLACK
6
CONTINUOUS
10
0.193071
20
0.400554
11
0.193071
21
0.380906
0
LINE
8
BLACK
6
CONTINUOUS
10
0.193071
20
0.380906
11
0.21063
21
0.380906
0
LINE
8
BLACK
6
CONTINUOUS
10
0.21063
20
0.380906
11
0.21289
21
0.380456
0
LINE
8
BLACK
6
CONTINUOUS
10
0.21289
20
0.380456
11
0.214806
21
0.379176
0
LINE
8
BLACK
6
CONTINUOUS
10
0.214806
20
0.379176
11
0.216086
21
0.37726
0
LINE
8
BLACK
6
CONTINUOUS
10
0.216086
20
0.37726
11
0.216535
21
0.375
0
LINE
8
BLACK
6
CONTINUOUS
10
0.216535
20
0.375
11
0.216535
21
0.363189
0
LINE
8
BLACK
6
CONTINUOUS
10
0.216535
20
0.363189
11
0.216086
21
0.360929
0
LINE
8
BLACK
6
CONTINUOUS
10
0.216086
20
0.360929
11
0.214806
21
0.359013
0
LINE
8
BLACK
6
CONTINUOUS
10
0.214806
20
0.359013
11
0.21289
21
0.357733
0
LINE
8
BLACK
6
CONTINUOUS
10
0.21289
20
0.357733
11
0.21063
21
0.357283
0
LINE
8
BLACK
6
CONTINUOUS
10
0.21063
20
0.357283
11
0.155512
21
0.357283
0
LINE
8
BLACK
6
CONTINUOUS
10
0.155512
20
0.357283
11
0.153252
21
0.357733
0
LINE
8
BLACK
6
CONTINUOUS
10
0.153252
20
0.357733
11
0.151336
21
0.359013
0
LINE
8
BLACK
6
CONTINUOUS
10
0.151336
20
0.359013
11
0.150056
21
0.360929
0
LINE
8
BLACK
6
CONTINUOUS
10
0.150056
20
0.360929
11
0.149606
21
0.363189
0
LINE
8
BLACK
6
CONTINUOUS
10
0.149606
20
0.363189
11
0.149606
21
0.375
0
LINE
8
BLACK
6
CONTINUOUS
10
0.149606
20
0.375
11
0.150056
21
0.37726
0
LINE
8
BLACK
6
CONTINUOUS
10
0.150056
20
0.37726
11
0.151336
21
0.379176
0
LINE
8
BLACK
6
CONTINUOUS
10
0.151336
20
0.379176
11
0.153252
21
0.380456
0
LINE
8
BLACK
6
CONTINUOUS
10
0.153252
20
0.380456
11
0.155512
21
0.380906
0
LINE
8
BLACK
6
CONTINUOUS
10
0.155512
20
0.380906
11
0.173071
21
0.380906
0
LINE
8
BLACK
6
CONTINUOUS
10
0.173071
20
0.380906
11
0.173071
21
0.400392
0
LINE
8
BLACK
6
CONTINUOUS
10
0.173071
20
0.400392
11
0.172928
21
0.400785
0
LINE
8
BLACK
6
CONTINUOUS
10
0.172928
20
0.400785
11
0.172719
21
0.400905
0
LINE
8
BLACK
6
CONTINUOUS
10
0.172719
20
0.400905
11
0.152953
21
0.400905
0
LINE
8
BLACK
6
CONTINUOUS
10
0.152953
20
0.400905
11
0.152838
21
0.400901
0
LINE
8
BLACK
6
CONTINUOUS
10
0.152838
20
0.400901
11
0.151576
21
0.400802
0
LINE
8
BLACK
6
CONTINUOUS
10
0.151576
20
0.400802
11
0.151284
21
0.400748
0
LINE
8
BLACK
6
CONTINUOUS
10
0.151284
20
0.400748
11
0.145318
21
0.399015
0
LINE
8
BLACK
6
CONTINUOUS
10
0.145318
20
0.399015
11
0.144984
21
0.398871
0
LINE
8
BLACK
6
CONTINUOUS
10
0.144984
20
0.398871
11
0.139666
21
0.395725
0
LINE
8
BLACK
6
CONTINUOUS
10
0.139666
20
0.395725
11
0.139378
21
0.395502
0
LINE
8
BLACK
6
CONTINUOUS
10
0.139378
20
0.395502
11
0.135009
21
0.391134
0
LINE
8
BLACK
6
CONTINUOUS
10
0.135009
20
0.391134
11
0.134786
21
0.390846
0
LINE
8
BLACK
6
CONTINUOUS
10
0.134786
20
0.390846
11
0.132201
21
0.386474
0
LINE
8
BLACK
6
CONTINUOUS
10
0.132201
20
0.386474
11
0.130661
21
0.385209
0
LINE
8
BLACK
6
CONTINUOUS
10
0.130661
20
0.385209
11
0.128668
21
0.38523
0
LINE
8
BLACK
6
CONTINUOUS
10
0.128668
20
0.38523
11
0.127382
21
0.386183
0
LINE
8
BLACK
6
CONTINUOUS
10
0.127382
20
0.386183
11
0.126861
21
0.386861
0
LINE
8
BLACK
6
CONTINUOUS
10
0.126861
20
0.386861
11
0.123859
21
0.389165
0
LINE
8
BLACK
6
CONTINUOUS
10
0.123859
20
0.389165
11
0.122074
21
0.390535
0
LINE
8
BLACK
6
CONTINUOUS
10
0.122074
20
0.390535
11
0.122074
21
0.390535
0
LINE
8
BLACK
6
CONTINUOUS
10
0.122074
20
0.390535
11
0.121923
21
0.390651
0
LINE
8
BLACK
6
CONTINUOUS
10
0.121923
20
0.390651
11
0.116172
21
0.393033
0
LINE
8
BLACK
6
CONTINUOUS
10
0.116172
20
0.393033
11
0.115983
21
0.393058
0
LINE
8
BLACK
6
CONTINUOUS
10
0.115983
20
0.393058
11
0.115983
21
0.393058
0
LINE
8
BLACK
6
CONTINUOUS
10
0.115983
20
0.393058
11
0.110189
21
0.393821
0
LINE
8
BLACK
6
CONTINUOUS
10
0.110189
20
0.393821
11
0.11
21
0.393846
0
LINE
8
BLACK
6
CONTINUOUS
10
0.11
20
0.393846
11
0.109811
21
0.393821
0
LINE
8
BLACK
6
CONTINUOUS
10
0.109811
20
0.393821
11
0.104017
21
0.393058
0
LINE
8
BLACK
6
CONTINUOUS
10
0.104017
20
0.393058
11
0.104017
21
0.393058
0
LINE
8
BLACK
6
CONTINUOUS
10
0.104017
20
0.393058
11
0.103828
21
0.393033
0
LINE
8
BLACK
6
CONTINUOUS
10
0.103828
20
0.393033
11
0.0980771
21
0.390651
0
LINE
8
BLACK
6
CONTINUOUS
10
0.0980771
20
0.390651
11
0.0979258
21
0.390535
0
LINE
8
BLACK
6
CONTINUOUS
10
0.0979258
20
0.390535
11
0.0979256
21
0.390535
0
LINE
8
BLACK
6
CONTINUOUS
10
0.0979256
20
0.390535
11
0.0961407
21
0.389165
0
LINE
8
BLACK
6
CONTINUOUS
10
0.0961407
20
0.389165
11
0.0931385
21
0.386861
0
LINE
8
BLACK
6
CONTINUOUS
10
0.0931385
20
0.386861
11
0.0930222
21
0.38671
0
LINE
8
BLACK
6
CONTINUOUS
10
0.0930222
20
0.38671
11
0.0894652
21
0.382074
0
LINE
8
BLACK
6
CONTINUOUS
10
0.0894652
20
0.382074
11
0.0894651
21
0.382074
0
LINE
8
BLACK
6
CONTINUOUS
10
0.0894651
20
0.382074
11
0.089349
21
0.381923
0
LINE
8
BLACK
6
CONTINUOUS
10
0.089349
20
0.381923
11
0.0869668
21
0.376172
0
LINE
8
BLACK
6
CONTINUOUS
10
0.0869668
20
0.376172
11
0.0869419
21
0.375983
0
LINE
8
BLACK
6
CONTINUOUS
10
0.0869419
20
0.375983
11
0.0869419
21
0.375983
0
LINE
8
BLACK
6
CONTINUOUS
10
0.0869419
20
0.375983
11
0.086497
21
0.372603
0
LINE
8
BLACK
6
CONTINUOUS
10
0.086497
20
0.372603
11
0.0861543
21
0.37
0
LINE
8
BLACK
6
CONTINUOUS
10
0.0861543
20
0.37
11
0.0861792
21
0.369811
0
LINE
8
BLACK
6
CONTINUOUS
10
0.0861792
20
0.369811
11
0.0861792
21
0.369685
0
LINE
8
BLACK
6
CONTINUOUS
10
0.0861792
20
0.369685
11
0.0854976
21
0.367812
0
LINE
8
BLACK
6
CONTINUOUS
10
0.0854976
20
0.367812
11
0.0853259
21
0.367625
0
LINE
8
BLACK
6
CONTINUOUS
10
0.0853259
20
0.367625
11
0.0614963
21
0.343795
0
LINE
8
BLACK
6
CONTINUOUS
10
0.0614963
20
0.343795
11
0.0614961
21
0.343795
0
LINE
8
BLACK
6
CONTINUOUS
10
0.0614961
20
0.343795
11
0.0606078
21
0.342907
0
LINE
8
BLACK
6
CONTINUOUS
10
0.0606078
20
0.342907
11
0.0605037
21
0.342702
0
LINE
8
BLACK
6
CONTINUOUS
10
0.0605037
20
0.342702
11
0.0605037
21
0.342702
0
LINE
8
BLACK
6
CONTINUOUS
10
0.0605037
20
0.342702
11
0.0601415
21
0.341992
0
LINE
8
BLACK
6
CONTINUOUS
10
0.0601415
20
0.341992
11
0.0599027
21
0.341602
0
LINE
8
BLACK
6
CONTINUOUS
10
0.0599027
20
0.341602
11
0.0594337
21
0.340956
0
LINE
8
BLACK
6
CONTINUOUS
10
0.0594337
20
0.340956
11
0.0594337
21
0.340956
0
LINE
8
BLACK
6
CONTINUOUS
10
0.0594337
20
0.340956
11
0.0592989
21
0.340771
0
LINE
8
BLACK
6
CONTINUOUS
10
0.0592989
20
0.340771
11
0.0592281
21
0.340553
0
LINE
8
BLACK
6
CONTINUOUS
10
0.0592281
20
0.340553
11
0.0592281
21
0.340553
0
LINE
8
BLACK
6
CONTINUOUS
10
0.0592281
20
0.340553
11
0.0589815
21
0.339794
0
LINE
8
BLACK
6
CONTINUOUS
10
0.0589815
20
0.339794
11
0.0588066
21
0.339372
0
LINE
8
BLACK
6
CONTINUOUS
10
0.0588066
20
0.339372
11
0.0587163
21
0.339194
0
LINE
8
BLACK
6
CONTINUOUS
10
0.0587163
20
0.339194
11
0.0583403
21
0.338456
0
LINE
8
BLACK
6
CONTINUOUS
10
0.0583403
20
0.338456
11
0.0583044
21
0.33823
0
LINE
8
BLACK
6
CONTINUOUS
10
0.0583044
20
0.33823
11
0.0581796
21
0.337442
0
LINE
8
BLACK
6
CONTINUOUS
10
0.0581796
20
0.337442
11
0.0580729
21
0.336997
0
LINE
8
BLACK
6
CONTINUOUS
10
0.0580729
20
0.336997
11
0.0578263
21
0.336239
0
LINE
8
BLACK
6
CONTINUOUS
10
0.0578263
20
0.336239
11
0.0577555
21
0.336021
0
LINE
8
BLACK
6
CONTINUOUS
10
0.0577555
20
0.336021
11
0.0577555
21
0.253979
0
LINE
8
BLACK
6
CONTINUOUS
10
0.0577555
20
0.253979
11
0.0578263
21
0.253761
0
LINE
8
BLACK
6
CONTINUOUS
10
0.0578263
20
0.253761
11
0.0578263
21
0.253761
0
LINE
8
BLACK
6
CONTINUOUS
10
0.0578263
20
0.253761
11
0.0580729
21
0.253003
0
LINE
8
BLACK
6
CONTINUOUS
10
0.0580729
20
0.253003
11
0.0581796
21
0.252558
0
LINE
8
BLACK
6
CONTINUOUS
10
0.0581796
20
0.252558
11
0.0583403
21
0.251544
0
LINE
8
BLACK
6
CONTINUOUS
10
0.0583403
20
0.251544
11
0.0584444
21
0.251339
0
LINE
8
BLACK
6
CONTINUOUS
10
0.0584444
20
0.251339
11
0.0588066
21
0.250628
0
LINE
8
BLACK
6
CONTINUOUS
10
0.0588066
20
0.250628
11
0.0589815
21
0.250206
0
LINE
8
BLACK
6
CONTINUOUS
10
0.0589815
20
0.250206
11
0.0592989
21
0.249229
0
LINE
8
BLACK
6
CONTINUOUS
10
0.0592989
20
0.249229
11
0.0594337
21
0.249044
0
LINE
8
BLACK
6
CONTINUOUS
10
0.0594337
20
0.249044
11
0.0594337
21
0.249044
0
LINE
8
BLACK
6
CONTINUOUS
10
0.0594337
20
0.249044
11
0.0599027
21
0.248398
0
LINE
8
BLACK
6
CONTINUOUS
10
0.0599027
20
0.248398
11
0.0601415
21
0.248008
0
LINE
8
BLACK
6
CONTINUOUS
10
0.0601415
20
0.248008
11
0.0605037
21
0.247298
0
LINE
8
BLACK
6
CONTINUOUS
10
0.0605037
20
0.247298
11
0.0606078
21
0.247093
0
LINE
8
BLACK
6
CONTINUOUS
10
0.0606078
20
0.247093
11
0.0614961
21
0.246205
0
LINE
8
BLACK
6
CONTINUOUS
10
0.0614961
20
0.246205
11
0.0614963
21
0.246205
0
LINE
8
BLACK
6
CONTINUOUS
10
0.0614963
20
0.246205
11
0.0982713
21
0.20943
0
LINE
8
BLACK
6
CONTINUOUS
10
0.0982713
20
0.20943
11
0.0982715
21
0.20943
0
LINE
8
BLACK
6
CONTINUOUS
10
0.0982715
20
0.20943
11
0.0991598
21
0.208541
0
LINE
8
BLACK
6
CONTINUOUS
10
0.0991598
20
0.208541
11
0.100075
21
0.208075
0
LINE
8
BLACK
6
CONTINUOUS
10
0.100075
20
0.208075
11
0.100465
21
0.207836
0
LINE
8
BLACK
6
CONTINUOUS
10
0.100465
20
0.207836
11
0.101296
21
0.207232
0
LINE
8
BLACK
6
CONTINUOUS
10
0.101296
20
0.207232
11
0.101514
21
0.207162
0
LINE
8
BLACK
6
CONTINUOUS
10
0.101514
20
0.207162
11
0.102273
21
0.206915
0
LINE
8
BLACK
6
CONTINUOUS
10
0.102273
20
0.206915
11
0.102695
21
0.20674
0
LINE
8
BLACK
6
CONTINUOUS
10
0.102695
20
0.20674
11
0.10361
21
0.206274
0
LINE
8
BLACK
6
CONTINUOUS
10
0.10361
20
0.206274
11
0.104625
21
0.206113
0
LINE
8
BLACK
6
CONTINUOUS
10
0.104625
20
0.206113
11
0.105069
21
0.206006
0
LINE
8
BLACK
6
CONTINUOUS
10
0.105069
20
0.206006
11
0.106046
21
0.205689
0
LINE
8
BLACK
6
CONTINUOUS
10
0.106046
20
0.205689
11
0.144653
21
0.205689
0
LINE
8
BLACK
6
CONTINUOUS
10
0.144653
20
0.205689
11
0.146525
21
0.205007
0
LINE
8
BLACK
6
CONTINUOUS
10
0.146525
20
0.205007
11
0.146711
21
0.204837
0
LINE
8
BLACK
6
CONTINUOUS
10
0.146711
20
0.204837
11
0.147203
21
0.204346
0
LINE
8
BLACK
6
CONTINUOUS
10
0.147203
20
0.204346
11
0.147388
21
0.204162
0
LINE
8
BLACK
6
CONTINUOUS
10
0.147388
20
0.204162
11
0.147604
21
0.204056
0
LINE
8
BLACK
6
CONTINUOUS
10
0.147604
20
0.204056
11
0.151297
21
0.202251
0
LINE
8
BLACK
6
CONTINUOUS
10
0.151297
20
0.202251
11
0.151515
21
0.202144
0
LINE
8
BLACK
6
CONTINUOUS
10
0.151515
20
0.202144
11
0.154204
21
0.201752
0
LINE
8
BLACK
6
CONTINUOUS
10
0.154204
20
0.201752
11
0.211938
21
0.201752
0
LINE
8
BLACK
6
CONTINUOUS
10
0.211938
20
0.201752
11
0.21218
21
0.201788
0
LINE
8
BLACK
6
CONTINUOUS
10
0.21218
20
0.201788
11
0.214426
21
0.202118
0
LINE
8
BLACK
6
CONTINUOUS
10
0.214426
20
0.202118
11
0.214426
21
0.202118
0
LINE
8
BLACK
6
CONTINUOUS
10
0.214426
20
0.202118
11
0.21465
21
0.202151
0
LINE
8
BLACK
6
CONTINUOUS
10
0.21465
20
0.202151
11
0.214853
21
0.202251
0
LINE
8
BLACK
6
CONTINUOUS
10
0.214853
20
0.202251
11
0.214853
21
0.202251
0
LINE
8
BLACK
6
CONTINUOUS
10
0.214853
20
0.202251
11
0.216658
21
0.203137
0
LINE
8
BLACK
6
CONTINUOUS
10
0.216658
20
0.203137
11
0.218774
21
0.204176
0
LINE
8
BLACK
6
CONTINUOUS
10
0.218774
20
0.204176
11
0.218944
21
0.204346
0
LINE
8
BLACK
6
CONTINUOUS
10
0.218944
20
0.204346
11
0.218944
21
0.204346
0
LINE
8
BLACK
6
CONTINUOUS
10
0.218944
20
0.204346
11
0.219431
21
0.204834
0
LINE
8
BLACK
6
CONTINUOUS
10
0.219431
20
0.204834
11
0.221236
21
0.205678
0
LINE
8
BLACK
6
CONTINUOUS
10
0.221236
20
0.205678
11
0.221493
21
0.205689
0
LINE
8
BLACK
6
CONTINUOUS
10
0.221493
20
0.205689
11
0.235805
21
0.205689
0
LINE
8
BLACK
6
CONTINUOUS
10
0.235805
20
0.205689
11
0.237678
21
0.205007
0
LINE
8
BLACK
6
CONTINUOUS
10
0.237678
20
0.205007
11
0.237865
21
0.204836
0
LINE
8
BLACK
6
CONTINUOUS
10
0.237865
20
0.204836
11
0.243948
21
0.198753
0
LINE
8
BLACK
6
CONTINUOUS
10
0.243948
20
0.198753
11
0.24479
21
0.196947
0
LINE
8
BLACK
6
CONTINUOUS
10
0.24479
20
0.196947
11
0.244274
21
0.195022
0
LINE
8
BLACK
6
CONTINUOUS
10
0.244274
20
0.195022
11
0.243948
21
0.194633
0
LINE
8
BLACK
6
CONTINUOUS
10
0.243948
20
0.194633
11
0.240926
21
0.191611
0
LINE
8
BLACK
6
CONTINUOUS
10
0.240926
20
0.191611
11
0.240926
21
0.19161
0
LINE
8
BLACK
6
CONTINUOUS
10
0.240926
20
0.19161
11
0.240037
21
0.190722
0
LINE
8
BLACK
6
CONTINUOUS
10
0.240037
20
0.190722
11
0.239933
21
0.190518
0
LINE
8
BLACK
6
CONTINUOUS
10
0.239933
20
0.190518
11
0.239933
21
0.190518
0
LINE
8
BLACK
6
CONTINUOUS
10
0.239933
20
0.190518
11
0.239571
21
0.189807
0
LINE
8
BLACK
6
CONTINUOUS
10
0.239571
20
0.189807
11
0.239332
21
0.189417
0
LINE
8
BLACK
6
CONTINUOUS
10
0.239332
20
0.189417
11
0.238863
21
0.188772
0
LINE
8
BLACK
6
CONTINUOUS
10
0.238863
20
0.188772
11
0.238863
21
0.188772
0
LINE
8
BLACK
6
CONTINUOUS
10
0.238863
20
0.188772
11
0.238729
21
0.188586
0
LINE
8
BLACK
6
CONTINUOUS
10
0.238729
20
0.188586
11
0.238658
21
0.188368
0
LINE
8
BLACK
6
CONTINUOUS
10
0.238658
20
0.188368
11
0.238658
21
0.188368
0
LINE
8
BLACK
6
CONTINUOUS
10
0.238658
20
0.188368
11
0.238411
21
0.187609
0
LINE
8
BLACK
6
CONTINUOUS
10
0.238411
20
0.187609
11
0.238236
21
0.187187
0
LINE
8
BLACK
6
CONTINUOUS
10
0.238236
20
0.187187
11
0.237878
21
0.186484
0
LINE
8
BLACK
6
CONTINUOUS
10
0.237878
20
0.186484
11
0.23777
21
0.186272
0
LINE
8
BLACK
6
CONTINUOUS
10
0.23777
20
0.186272
11
0.237734
21
0.186045
0
LINE
8
BLACK
6
CONTINUOUS
10
0.237734
20
0.186045
11
0.237609
21
0.185257
0
LINE
8
BLACK
6
CONTINUOUS
10
0.237609
20
0.185257
11
0.237502
21
0.184813
0
LINE
8
BLACK
6
CONTINUOUS
10
0.237502
20
0.184813
11
0.237256
21
0.184054
0
LINE
8
BLACK
6
CONTINUOUS
10
0.237256
20
0.184054
11
0.237185
21
0.183836
0
LINE
8
BLACK
6
CONTINUOUS
10
0.237185
20
0.183836
11
0.237185
21
0.119075
0
LINE
8
BLACK
6
CONTINUOUS
10
0.237185
20
0.119075
11
0.236503
21
0.117202
0
LINE
8
BLACK
6
CONTINUOUS
10
0.236503
20
0.117202
11
0.234778
21
0.116206
0
LINE
8
BLACK
6
CONTINUOUS
10
0.234778
20
0.116206
11
0.234272
21
0.116161
0
LINE
8
BLACK
6
CONTINUOUS
10
0.234272
20
0.116161
11
0.233474
21
0.116161
0
LINE
8
BLACK
6
CONTINUOUS
10
0.233474
20
0.116161
11
0.233334
21
0.116133
0
LINE
8
BLACK
6
CONTINUOUS
10
0.233334
20
0.116133
11
0.233334
21
0.116133
0
LINE
8
BLACK
6
CONTINUOUS
10
0.233334
20
0.116133
11
0.232925
21
0.116052
0
LINE
8
BLACK
6
CONTINUOUS
10
0.232925
20
0.116052
11
0.231172
21
0.115703
0
LINE
8
BLACK
6
CONTINUOUS
10
0.231172
20
0.115703
11
0.230933
21
0.115544
0
LINE
8
BLACK
6
CONTINUOUS
10
0.230933
20
0.115544
11
0.230933
21
0.115544
0
LINE
8
BLACK
6
CONTINUOUS
10
0.230933
20
0.115544
11
0.2288
21
0.114118
0
LINE
8
BLACK
6
CONTINUOUS
10
0.2288
20
0.114118
11
0.228561
21
0.113959
0
LINE
8
BLACK
6
CONTINUOUS
10
0.228561
20
0.113959
11
0.228401
21
0.11372
0
LINE
8
BLACK
6
CONTINUOUS
10
0.228401
20
0.11372
11
0.227323
21
0.112106
0
LINE
8
BLACK
6
CONTINUOUS
10
0.227323
20
0.112106
11
0.226816
21
0.111348
0
LINE
8
BLACK
6
CONTINUOUS
10
0.226816
20
0.111348
11
0.226358
21
0.109045
0
LINE
8
BLACK
6
CONTINUOUS
10
0.226358
20
0.109045
11
0.226358
21
0.0484351
0
LINE
8
BLACK
6
CONTINUOUS
10
0.226358
20
0.0484351
11
0.226816
21
0.0461326
0
LINE
8
BLACK
6
CONTINUOUS
10
0.226816
20
0.0461326
11
0.228561
21
0.0435216
0
LINE
8
BLACK
6
CONTINUOUS
10
0.228561
20
0.0435216
11
0.231172
21
0.0417769
0
LINE
8
BLACK
6
CONTINUOUS
10
0.231172
20
0.0417769
11
0.232925
21
0.0414282
0
LINE
8
BLACK
6
CONTINUOUS
10
0.232925
20
0.0414282
11
0.233334
21
0.0413469
0
LINE
8
BLACK
6
CONTINUOUS
10
0.233334
20
0.0413469
11
0.233334
21
0.0413469
0
LINE
8
BLACK
6
CONTINUOUS
10
0.233334
20
0.0413469
11
0.233474
21
0.0413189
0
LINE
8
BLACK
6
CONTINUOUS
10
0.233474
20
0.0413189
11
0.272431
21
0.0413189
0
LINE
8
BLACK
6
CONTINUOUS
10
0.272431
20
0.0413189
11
0.272572
21
0.0413469
0
LINE
8
BLACK
6
CONTINUOUS
10
0.272572
20
0.0413469
11
0.272572
21
0.0413469
0
LINE
8
BLACK
6
CONTINUOUS
10
0.272572
20
0.0413469
11
0.272981
21
0.0414282
0
LINE
8
BLACK
6
CONTINUOUS
10
0.272981
20
0.0414282
11
0.274734
21
0.0417769
0
LINE
8
BLACK
6
CONTINUOUS
10
0.274734
20
0.0417769
11
0.277345
21
0.0435216
0
LINE
8
BLACK
6
CONTINUOUS
10
0.277345
20
0.0435216
11
0.278625
21
0.0454385
0
LINE
8
BLACK
6
CONTINUOUS
10
0.278625
20
0.0454385
11
0.280232
21
0.0466168
0
LINE
8
BLACK
6
CONTINUOUS
10
0.280232
20
0.0466168
11
0.282221
21
0.0464864
0
LINE
8
BLACK
6
CONTINUOUS
10
0.282221
20
0.0464864
11
0.283457
21
0.0454573
0
LINE
8
BLACK
6
CONTINUOUS
10
0.283457
20
0.0454573
11
0.286326
21
0.0412362
0
LINE
8
BLACK
6
CONTINUOUS
10
0.286326
20
0.0412362
11
0.286918
21
0.0403657
0
LINE
8
BLACK
6
CONTINUOUS
10
0.286918
20
0.0403657
11
0.286998
21
0.0402808
0
LINE
8
BLACK
6
CONTINUOUS
10
0.286998
20
0.0402808
11
0.286998
21
0.0402806
0
LINE
8
BLACK
6
CONTINUOUS
10
0.286998
20
0.0402806
11
0.290859
21
0.036198
0
LINE
8
BLACK
6
CONTINUOUS
10
0.290859
20
0.036198
11
0.293667
21
0.0332286
0
LINE
8
BLACK
6
CONTINUOUS
10
0.293667
20
0.0332286
11
0.30147
21
0.0272623
0
LINE
8
BLACK
6
CONTINUOUS
10
0.30147
20
0.0272623
11
0.301573
21
0.0272071
0
LINE
8
BLACK
6
CONTINUOUS
10
0.301573
20
0.0272071
11
0.301574
21
0.027207
0
LINE
8
BLACK
6
CONTINUOUS
10
0.301574
20
0.027207
11
0.306585
21
0.0245199
0
LINE
8
BLACK
6
CONTINUOUS
10
0.306585
20
0.0245199
11
0.310128
21
0.0226204
0
LINE
8
BLACK
6
CONTINUOUS
10
0.310128
20
0.0226204
11
0.310238
21
0.0225822
0
LINE
8
BLACK
6
CONTINUOUS
10
0.310238
20
0.0225822
11
0.319305
21
0.0194604
0
LINE
8
BLACK
6
CONTINUOUS
10
0.319305
20
0.0194604
11
0.319305
21
0.0194603
0
LINE
8
BLACK
6
CONTINUOUS
10
0.319305
20
0.0194603
11
0.319415
21
0.0194223
0
LINE
8
BLACK
6
CONTINUOUS
10
0.319415
20
0.0194223
11
0.329095
21
0.0177503
0
LINE
8
BLACK
6
CONTINUOUS
10
0.329095
20
0.0177503
11
0.329186
21
0.0177462
0
LINE
8
BLACK
6
CONTINUOUS
10
0.329186
20
0.0177462
11
0.329187
21
0.0177461
0
LINE
8
BLACK
6
CONTINUOUS
10
0.329187
20
0.0177461
11
0.329859
21
0.0177156
0
LINE
8
BLACK
6
CONTINUOUS
10
0.329859
20
0.0177156
11
0.330273
21
0.0176969
0
LINE
8
BLACK
6
CONTINUOUS
10
0.330273
20
0.0176969
11
0.331478
21
0.0176969
0
LINE
8
BLACK
6
CONTINUOUS
10
0.331478
20
0.0176969
11
0.333351
21
0.0170152
0
LINE
8
BLACK
6
CONTINUOUS
10
0.333351
20
0.0170152
11
0.334347
21
0.0152894
0
LINE
8
BLACK
6
CONTINUOUS
10
0.334347
20
0.0152894
11
0.334392
21
0.0147828
0
LINE
8
BLACK
6
CONTINUOUS
10
0.334392
20
0.0147828
11
0.334391
21
0.0108064
0
LINE
8
BLACK
6
CONTINUOUS
10
0.334391
20
0.0108064
11
0.333709
21
0.0089339
0
LINE
8
BLACK
6
CONTINUOUS
10
0.333709
20
0.0089339
11
0.331983
21
0.00793783
0
LINE
8
BLACK
6
CONTINUOUS
10
0.331983
20
0.00793783
11
0.331477
21
0.0078937
0
LINE
8
BLACK
6
CONTINUOUS
10
0.331477
20
0.0078937
11
0.167464
21
0.0078937
0
LINE
8
BLACK
6
CONTINUOUS
10
0.167464
20
0.0078937
11
0.165592
21
0.00857531
0
LINE
8
BLACK
6
CONTINUOUS
10
0.165592
20
0.00857531
11
0.164596
21
0.0102987
0
LINE
8
BLACK
6
CONTINUOUS
10
0.164596
20
0.0102987
11
0.163989
21
0.0137225
0
LINE
8
BLACK
6
CONTINUOUS
10
0.163989
20
0.0137225
11
0.163461
21
0.0166985
0
LINE
8
BLACK
6
CONTINUOUS
10
0.163461
20
0.0166985
11
0.163123
21
0.0176969
0
LINE
8
BLACK
6
CONTINUOUS
10
0.163123
20
0.0176969
11
0.160223
21
0.0262389
0
LINE
8
BLACK
6
CONTINUOUS
10
0.160223
20
0.0262389
11
0.160223
21
0.0262391
0
LINE
8
BLACK
6
CONTINUOUS
10
0.160223
20
0.0262391
11
0.160187
21
0.0263438
0
LINE
8
BLACK
6
CONTINUOUS
10
0.160187
20
0.0263438
11
0.158443
21
0.0297019
0
LINE
8
BLACK
6
CONTINUOUS
10
0.158443
20
0.0297019
11
0.155543
21
0.0352849
0
LINE
8
BLACK
6
CONTINUOUS
10
0.155543
20
0.0352849
11
0.155543
21
0.0352849
0
LINE
8
BLACK
6
CONTINUOUS
10
0.155543
20
0.0352849
11
0.155492
21
0.0353829
0
LINE
8
BLACK
6
CONTINUOUS
10
0.155492
20
0.0353829
11
0.154896
21
0.036198
0
LINE
8
BLACK
6
CONTINUOUS
10
0.154896
20
0.036198
11
0.149549
21
0.0435184
0
LINE
8
BLACK
6
CONTINUOUS
10
0.149549
20
0.0435184
11
0.149548
21
0.0435185
0
LINE
8
BLACK
6
CONTINUOUS
10
0.149548
20
0.0435185
11
0.149483
21
0.0436077
0
LINE
8
BLACK
6
CONTINUOUS
10
0.149483
20
0.0436077
11
0.144821
21
0.0482946
0
LINE
8
BLACK
6
CONTINUOUS
10
0.144821
20
0.0482946
11
0.142378
21
0.0507506
0
LINE
8
BLACK
6
CONTINUOUS
10
0.142378
20
0.0507506
11
0.142378
21
0.0507507
0
LINE
8
BLACK
6
CONTINUOUS
10
0.142378
20
0.0507507
11
0.1423
21
0.0508291
0
LINE
8
BLACK
6
CONTINUOUS
10
0.1423
20
0.0508291
11
0.134106
21
0.0568807
0
LINE
8
BLACK
6
CONTINUOUS
10
0.134106
20
0.0568807
11
0.132275
21
0.0578442
0
LINE
8
BLACK
6
CONTINUOUS
10
0.132275
20
0.0578442
11
0.12519
21
0.0615718
0
LINE
8
BLACK
6
CONTINUOUS
10
0.12519
20
0.0615718
11
0.12519
21
0.0615719
0
LINE
8
BLACK
6
CONTINUOUS
10
0.12519
20
0.0615719
11
0.125092
21
0.0616234
0
LINE
8
BLACK
6
CONTINUOUS
10
0.125092
20
0.0616234
11
0.115464
21
0.064948
0
LINE
8
BLACK
6
CONTINUOUS
10
0.115464
20
0.064948
11
0.115355
21
0.0649678
0
LINE
8
BLACK
6
CONTINUOUS
10
0.115355
20
0.0649678
11
0.115355
21
0.0649679
0
LINE
8
BLACK
6
CONTINUOUS
10
0.115355
20
0.0649679
11
0.111251
21
0.0657174
0
LINE
8
BLACK
6
CONTINUOUS
10
0.111251
20
0.0657174
11
0.105444
21
0.066778
0
LINE
8
BLACK
6
CONTINUOUS
10
0.105444
20
0.066778
11
0.105351
21
0.0667829
0
LINE
8
BLACK
6
CONTINUOUS
10
0.105351
20
0.0667829
11
0.105351
21
0.0667829
0
LINE
8
BLACK
6
CONTINUOUS
10
0.105351
20
0.0667829
11
0.102222
21
0.0669469
0
LINE
8
BLACK
6
CONTINUOUS
10
0.102222
20
0.0669469
11
0.102222
21
0.0669469
0
LINE
8
BLACK
6
CONTINUOUS
10
0.102222
20
0.0669469
11
0.102184
21
0.0669488
0
LINE
8
BLACK
6
CONTINUOUS
10
0.102184
20
0.0669488
11
0.0958354
21
0.0669488
0
LINE
8
BLACK
6
CONTINUOUS
10
0.0958354
20
0.0669488
11
0.0930218
21
0.0667348
0
LINE
8
BLACK
6
CONTINUOUS
10
0.0930218
20
0.0667348
11
0.0883787
21
0.0663816
0
LINE
8
BLACK
6
CONTINUOUS
10
0.0883787
20
0.0663816
11
0.0883784
21
0.0663816
0
LINE
8
BLACK
6
CONTINUOUS
10
0.0883784
20
0.0663816
11
0.0882687
21
0.0663732
0
LINE
8
BLACK
6
CONTINUOUS
10
0.0882687
20
0.0663732
11
0.0783459
21
0.0640733
0
LINE
8
BLACK
6
CONTINUOUS
10
0.0783459
20
0.0640733
11
0.0782432
21
0.0640323
0
LINE
8
BLACK
6
CONTINUOUS
10
0.0782432
20
0.0640323
11
0.078243
21
0.0640322
0
LINE
8
BLACK
6
CONTINUOUS
10
0.078243
20
0.0640322
11
0.0689878
21
0.0603398
0
LINE
8
BLACK
6
CONTINUOUS
10
0.0689878
20
0.0603398
11
0.0689876
21
0.0603397
0
LINE
8
BLACK
6
CONTINUOUS
10
0.0689876
20
0.0603397
11
0.0688851
21
0.0602988
0
LINE
8
BLACK
6
CONTINUOUS
10
0.0688851
20
0.0602988
11
0.0687899
21
0.0602428
0
LINE
8
BLACK
6
CONTINUOUS
10
0.0687899
20
0.0602428
11
0.0687897
21
0.0602428
0
LINE
8
BLACK
6
CONTINUOUS
10
0.0687897
20
0.0602428
11
0.0601996
21
0.0551929
0
LINE
8
BLACK
6
CONTINUOUS
10
0.0601996
20
0.0551929
11
0.0601995
21
0.0551928
0
LINE
8
BLACK
6
CONTINUOUS
10
0.0601995
20
0.0551928
11
0.0601042
21
0.0551367
0
LINE
8
BLACK
6
CONTINUOUS
10
0.0601042
20
0.0551367
11
0.0522051
21
0.0487059
0
LINE
8
BLACK
6
CONTINUOUS
10
0.0522051
20
0.0487059
11
0.0453696
21
0.0411541
0
LINE
8
BLACK
6
CONTINUOUS
10
0.0453696
20
0.0411541
11
0.0453085
21
0.0410618
0
LINE
8
BLACK
6
CONTINUOUS
10
0.0453085
20
0.0410618
11
0.0453084
21
0.0410616
0
LINE
8
BLACK
6
CONTINUOUS
10
0.0453084
20
0.0410616
11
0.0420954
21
0.036198
0
LINE
8
BLACK
6
CONTINUOUS
10
0.0420954
20
0.036198
11
0.039755
21
0.0326554
0
LINE
8
BLACK
6
CONTINUOUS
10
0.039755
20
0.0326554
11
0.0397087
21
0.0325548
0
LINE
8
BLACK
6
CONTINUOUS
10
0.0397087
20
0.0325548
11
0.0397086
21
0.0325547
0
LINE
8
BLACK
6
CONTINUOUS
10
0.0397086
20
0.0325547
11
0.0368454
21
0.0263438
0
LINE
8
BLACK
6
CONTINUOUS
10
0.0368454
20
0.0263438
11
0.0354906
21
0.0234052
0
LINE
8
BLACK
6
CONTINUOUS
10
0.0354906
20
0.0234052
11
0.0354602
21
0.0232992
0
LINE
8
BLACK
6
CONTINUOUS
10
0.0354602
20
0.0232992
11
0.0354601
21
0.023299
0
LINE
8
BLACK
6
CONTINUOUS
10
0.0354601
20
0.023299
11
0.0336523
21
0.0170152
0
LINE
8
BLACK
6
CONTINUOUS
10
0.0336523
20
0.0170152
11
0.0326745
21
0.0136163
0
LINE
8
BLACK
6
CONTINUOUS
10
0.0326745
20
0.0136163
11
0.0326604
21
0.0135067
0
LINE
8
BLACK
6
CONTINUOUS
10
0.0326604
20
0.0135067
11
0.032264
21
0.0104343
0
LINE
8
BLACK
6
CONTINUOUS
10
0.032264
20
0.0104343
11
0.0313484
21
0.00866425
0
LINE
8
BLACK
6
CONTINUOUS
10
0.0313484
20
0.00866425
11
0.0293746
21
0.0078937
0
LINE
8
BLACK
6
CONTINUOUS
10
0.0293746
20
0.0078937
11
0.0108071
21
0.0078937
0
LINE
8
BLACK
6
CONTINUOUS
10
0.0108071
20
0.0078937
11
0.00893441
21
0.00857531
0
LINE
8
BLACK
6
CONTINUOUS
10
0.00893441
20
0.00857531
11
0.00793795
21
0.0103012
0
LINE
8
BLACK
6
CONTINUOUS
10
0.00793795
20
0.0103012
11
0.0078937
21
0.0108071
0
LINE
8
BLACK
6
CONTINUOUS
10
0.0078937
20
0.0108071
11
0.0078937
21
0.10611
0
LINE
8
BLACK
6
CONTINUOUS
10
0.0078937
20
0.10611
11
0.00857531
21
0.107982
0
LINE
8
BLACK
6
CONTINUOUS
10
0.00857531
20
0.107982
11
0.0103012
21
0.108979
0
LINE
8
BLACK
6
CONTINUOUS
10
0.0103012
20
0.108979
11
0.0111041
21
0.109008
0
LINE
8
BLACK
6
CONTINUOUS
10
0.0111041
20
0.109008
11
0.0117228
21
0.108945
0
LINE
8
BLACK
6
CONTINUOUS
10
0.0117228
20
0.108945
11
0.0118712
21
0.108937
0
LINE
8
BLACK
6
CONTINUOUS
10
0.0118712
20
0.108937
11
0.0465729
21
0.108937
0
LINE
8
BLACK
6
CONTINUOUS
10
0.0465729
20
0.108937
11
0.0469665
21
0.10908
0
LINE
8
BLACK
6
CONTINUOUS
10
0.0469665
20
0.10908
11
0.0470866
21
0.109288
0
LINE
8
BLACK
6
CONTINUOUS
10
0.0470866
20
0.109288
11
0.0470866
21
0.128937
0
LINE
8
BLACK
6
CONTINUOUS
10
0.0470866
20
0.128937
11
0.0137795
21
0.128937
0
LINE
8
BLACK
6
CONTINUOUS
10
0.067438
20
0.108937
11
0.102301
21
0.108937
0
LINE
8
BLACK
6
CONTINUOUS
10
0.102301
20
0.108937
11
0.102451
21
0.108945
0
LINE
8
BLACK
6
CONTINUOUS
10
0.102451
20
0.108945
11
0.106379
21
0.109352
0
LINE
8
BLACK
6
CONTINUOUS
10
0.106379
20
0.109352
11
0.106689
21
0.109419
0
LINE
8
BLACK
6
CONTINUOUS
10
0.106689
20
0.109419
11
0.112978
21
0.111517
0
LINE
8
BLACK
6
CONTINUOUS
10
0.112978
20
0.111517
11
0.113283
21
0.11166
0
LINE
8
BLACK
6
CONTINUOUS
10
0.113283
20
0.11166
11
0.118912
21
0.115144
0
LINE
8
BLACK
6
CONTINUOUS
10
0.118912
20
0.115144
11
0.119176
21
0.115353
0
LINE
8
BLACK
6
CONTINUOUS
10
0.119176
20
0.115353
11
0.123853
21
0.120038
0
LINE
8
BLACK
6
CONTINUOUS
10
0.123853
20
0.120038
11
0.124062
21
0.120302
0
LINE
8
BLACK
6
CONTINUOUS
10
0.124062
20
0.120302
11
0.127536
21
0.125938
0
LINE
8
BLACK
6
CONTINUOUS
10
0.127536
20
0.125938
11
0.127678
21
0.126242
0
LINE
8
BLACK
6
CONTINUOUS
10
0.127678
20
0.126242
11
0.129765
21
0.132536
0
LINE
8
BLACK
6
CONTINUOUS
10
0.129765
20
0.132536
11
0.129831
21
0.132845
0
LINE
8
BLACK
6
CONTINUOUS
10
0.129831
20
0.132845
11
0.130229
21
0.136723
0
LINE
8
BLACK
6
CONTINUOUS
10
0.130229
20
0.136723
11
0.130236
21
0.136871
0
LINE
8
BLACK
6
CONTINUOUS
10
0.130236
20
0.136871
11
0.130236
21
0.138108
0
LINE
8
BLACK
6
CONTINUOUS
10
0.130236
20
0.138108
11
0.130093
21
0.138502
0
LINE
8
BLACK
6
CONTINUOUS
10
0.130093
20
0.138502
11
0.129885
21
0.138622
0
LINE
8
BLACK
6
CONTINUOUS
10
0.129885
20
0.138622
11
0.110205
21
0.138622
0
LINE
8
BLACK
6
CONTINUOUS
10
0.110205
20
0.138622
11
0.109487
21
0.135013
0
LINE
8
BLACK
6
CONTINUOUS
10
0.109487
20
0.135013
11
0.107353
21
0.13182
0
LINE
8
BLACK
6
CONTINUOUS
10
0.107353
20
0.13182
11
0.10416
21
0.129686
0
LINE
8
BLACK
6
CONTINUOUS
10
0.10416
20
0.129686
11
0.100394
21
0.128937
0
LINE
8
BLACK
6
CONTINUOUS
10
0.100394
20
0.128937
11
0.0670866
21
0.128937
0
LINE
8
BLACK
6
CONTINUOUS
10
0.0670866
20
0.128937
11
0.0670866
21
0.109451
0
LINE
8
BLACK
6
CONTINUOUS
10
0.0670866
20
0.109451
11
0.0672298
21
0.109057
0
LINE
8
BLACK
6
CONTINUOUS
10
0.0672298
20
0.109057
11
0.067438
21
0.108937
0
LINE
8
BLACK
6
CONTINUOUS
10
0.0676003
20
0.188307
11
0.0672068
21
0.188164
0
LINE
8
BLACK
6
CONTINUOUS
10
0.0672068
20
0.188164
11
0.0670866
21
0.187956
0
LINE
8
BLACK
6
CONTINUOUS
10
0.0670866
20
0.187956
11
0.0670866
21
0.168307
0
LINE
8
BLACK
6
CONTINUOUS
10
0.0670866
20
0.168307
11
0.100394
21
0.168307
0
LINE
8
BLACK
6
CONTINUOUS
10
0.100394
20
0.168307
11
0.10416
21
0.167558
0
LINE
8
BLACK
6
CONTINUOUS
10
0.10416
20
0.167558
11
0.107353
21
0.165424
0
LINE
8
BLACK
6
CONTINUOUS
10
0.107353
20
0.165424
11
0.109487
21
0.162231
0
LINE
8
BLACK
6
CONTINUOUS
10
0.109487
20
0.162231
11
0.110205
21
0.158622
0
LINE
8
BLACK
6
CONTINUOUS
10
0.110205
20
0.158622
11
0.129722
21
0.158622
0
LINE
8
BLACK
6
CONTINUOUS
10
0.129722
20
0.158622
11
0.130116
21
0.158765
0
LINE
8
BLACK
6
CONTINUOUS
10
0.130116
20
0.158765
11
0.130236
21
0.158973
0
LINE
8
BLACK
6
CONTINUOUS
10
0.130236
20
0.158973
11
0.130236
21
0.160372
0
LINE
8
BLACK
6
CONTINUOUS
10
0.130236
20
0.160372
11
0.130228
21
0.160522
0
LINE
8
BLACK
6
CONTINUOUS
10
0.130228
20
0.160522
11
0.129821
21
0.16445
0
LINE
8
BLACK
6
CONTINUOUS
10
0.129821
20
0.16445
11
0.129754
21
0.16476
0
LINE
8
BLACK
6
CONTINUOUS
10
0.129754
20
0.16476
11
0.127656
21
0.171049
0
LINE
8
BLACK
6
CONTINUOUS
10
0.127656
20
0.171049
11
0.127513
21
0.171354
0
LINE
8
BLACK
6
CONTINUOUS
10
0.127513
20
0.171354
11
0.124029
21
0.176983
0
LINE
8
BLACK
6
CONTINUOUS
10
0.124029
20
0.176983
11
0.12382
21
0.177247
0
LINE
8
BLACK
6
CONTINUOUS
10
0.12382
20
0.177247
11
0.119135
21
0.181924
0
LINE
8
BLACK
6
CONTINUOUS
10
0.119135
20
0.181924
11
0.118871
21
0.182133
0
LINE
8
BLACK
6
CONTINUOUS
10
0.118871
20
0.182133
11
0.113236
21
0.185606
0
LINE
8
BLACK
6
CONTINUOUS
10
0.113236
20
0.185606
11
0.112931
21
0.185748
0
LINE
8
BLACK
6
CONTINUOUS
10
0.112931
20
0.185748
11
0.106638
21
0.187836
0
LINE
8
BLACK
6
CONTINUOUS
10
0.106638
20
0.187836
11
0.106328
21
0.187902
0
LINE
8
BLACK
6
CONTINUOUS
10
0.106328
20
0.187902
11
0.10245
21
0.188299
0
LINE
8
BLACK
6
CONTINUOUS
10
0.10245
20
0.188299
11
0.102302
21
0.188307
0
LINE
8
BLACK
6
CONTINUOUS
10
0.102302
20
0.188307
11
0.0676003
21
0.188307
0
LINE
8
BLACK
6
CONTINUOUS
10
0.0676003
20
0.481614
11
0.0672068
21
0.481471
0
LINE
8
BLACK
6
CONTINUOUS
10
0.0672068
20
0.481471
11
0.0670866
21
0.481263
0
LINE
8
BLACK
6
CONTINUOUS
10
0.0670866
20
0.481263
11
0.0670866
21
0.461614
0
LINE
8
BLACK
6
CONTINUOUS
10
0.0670866
20
0.461614
11
0.100394
21
0.461614
0
LINE
8
BLACK
6
CONTINUOUS
10
0.100394
20
0.461614
11
0.10416
21
0.460865
0
LINE
8
BLACK
6
CONTINUOUS
10
0.10416
20
0.460865
11
0.107353
21
0.458731
0
LINE
8
BLACK
6
CONTINUOUS
10
0.107353
20
0.458731
11
0.109487
21
0.455538
0
LINE
8
BLACK
6
CONTINUOUS
10
0.109487
20
0.455538
11
0.110205
21
0.451929
0
LINE
8
BLACK
6
CONTINUOUS
10
0.110205
20
0.451929
11
0.129722
21
0.451929
0
LINE
8
BLACK
6
CONTINUOUS
10
0.129722
20
0.451929
11
0.130116
21
0.452072
0
LINE
8
BLACK
6
CONTINUOUS
10
0.130116
20
0.452072
11
0.130236
21
0.452281
0
LINE
8
BLACK
6
CONTINUOUS
10
0.130236
20
0.452281
11
0.130236
21
0.453679
0
LINE
8
BLACK
6
CONTINUOUS
10
0.130236
20
0.453679
11
0.130228
21
0.453829
0
LINE
8
BLACK
6
CONTINUOUS
10
0.130228
20
0.453829
11
0.129821
21
0.457757
0
LINE
8
BLACK
6
CONTINUOUS
10
0.129821
20
0.457757
11
0.129754
21
0.458067
0
LINE
8
BLACK
6
CONTINUOUS
10
0.129754
20
0.458067
11
0.127656
21
0.464356
0
LINE
8
BLACK
6
CONTINUOUS
10
0.127656
20
0.464356
11
0.127513
21
0.464661
0
LINE
8
BLACK
6
CONTINUOUS
10
0.127513
20
0.464661
11
0.124029
21
0.47029
0
LINE
8
BLACK
6
CONTINUOUS
10
0.124029
20
0.47029
11
0.12382
21
0.470554
0
LINE
8
BLACK
6
CONTINUOUS
10
0.12382
20
0.470554
11
0.119135
21
0.475231
0
LINE
8
BLACK
6
CONTINUOUS
10
0.119135
20
0.475231
11
0.118871
21
0.47544
0
LINE
8
BLACK
6
CONTINUOUS
10
0.118871
20
0.47544
11
0.113236
21
0.478914
0
LINE
8
BLACK
6
CONTINUOUS
10
0.113236
20
0.478914
11
0.112931
21
0.479056
0
LINE
8
BLACK
6
CONTINUOUS
10
0.112931
20
0.479056
11
0.106638
21
0.481143
0
LINE
8
BLACK
6
CONTINUOUS
10
0.106638
20
0.481143
11
0.106328
21
0.481209
0
LINE
8
BLACK
6
CONTINUOUS
10
0.106328
20
0.481209
11
0.10245
21
0.481607
0
LINE
8
BLACK
6
CONTINUOUS
10
0.10245
20
0.481607
11
0.102302
21
0.481614
0
LINE
8
BLACK
6
CONTINUOUS
10
0.102302
20
0.481614
11
0.0676003
21
0.481614
0
LINE
8
BLACK
6
CONTINUOUS
10
0.067438
20
0.402244
11
0.102301
21
0.402244
0
LINE
8
BLACK
6
CONTINUOUS
10
0.102301
20
0.402244
11
0.102451
21
0.402252
0
LINE
8
BLACK
6
CONTINUOUS
10
0.102451
20
0.402252
11
0.106379
21
0.402659
0
LINE
8
BLACK
6
CONTINUOUS
10
0.106379
20
0.402659
11
0.106689
21
0.402726
0
LINE
8
BLACK
6
CONTINUOUS
10
0.106689
20
0.402726
11
0.112978
21
0.404825
0
LINE
8
BLACK
6
CONTINUOUS
10
0.112978
20
0.404825
11
0.113283
21
0.404967
0
LINE
8
BLACK
6
CONTINUOUS
10
0.113283
20
0.404967
11
0.118912
21
0.408451
0
LINE
8
BLACK
6
CONTINUOUS
10
0.118912
20
0.408451
11
0.119176
21
0.40866
0
LINE
8
BLACK
6
CONTINUOUS
10
0.119176
20
0.40866
11
0.123853
21
0.413345
0
LINE
8
BLACK
6
CONTINUOUS
10
0.123853
20
0.413345
11
0.124062
21
0.413609
0
LINE
8
BLACK
6
CONTINUOUS
10
0.124062
20
0.413609
11
0.127536
21
0.419245
0
LINE
8
BLACK
6
CONTINUOUS
10
0.127536
20
0.419245
11
0.127678
21
0.419549
0
LINE
8
BLACK
6
CONTINUOUS
10
0.127678
20
0.419549
11
0.129765
21
0.425843
0
LINE
8
BLACK
6
CONTINUOUS
10
0.129765
20
0.425843
11
0.129831
21
0.426152
0
LINE
8
BLACK
6
CONTINUOUS
10
0.129831
20
0.426152
11
0.130229
21
0.43003
0
LINE
8
BLACK
6
CONTINUOUS
10
0.130229
20
0.43003
11
0.130236
21
0.430178
0
LINE
8
BLACK
6
CONTINUOUS
10
0.130236
20
0.430178
11
0.130236
21
0.431415
0
LINE
8
BLACK
6
CONTINUOUS
10
0.130236
20
0.431415
11
0.130093
21
0.431809
0
LINE
8
BLACK
6
CONTINUOUS
10
0.130093
20
0.431809
11
0.129885
21
0.431929
0
LINE
8
BLACK
6
CONTINUOUS
10
0.129885
20
0.431929
11
0.110205
21
0.431929
0
LINE
8
BLACK
6
CONTINUOUS
10
0.110205
20
0.431929
11
0.109487
21
0.42832
0
LINE
8
BLACK
6
CONTINUOUS
10
0.109487
20
0.42832
11
0.107353
21
0.425127
0
LINE
8
BLACK
6
CONTINUOUS
10
0.107353
20
0.425127
11
0.10416
21
0.422993
0
LINE
8
BLACK
6
CONTINUOUS
10
0.10416
20
0.422993
11
0.100394
21
0.422244
0
LINE
8
BLACK
6
CONTINUOUS
10
0.100394
20
0.422244
11
0.0670866
21
0.422244
0
LINE
8
BLACK
6
CONTINUOUS
10
0.0670866
20
0.422244
11
0.0670866
21
0.402758
0
LINE
8
BLACK
6
CONTINUOUS
10
0.0670866
20
0.402758
11
0.0672298
21
0.402364
0
LINE
8
BLACK
6
CONTINUOUS
10
0.0672298
20
0.402364
11
0.067438
21
0.402244
0
LINE
8
BLACK
6
CONTINUOUS
10
0.271654
20
0.482283
11
0.258858
21
0.482283
0
LINE
8
BLACK
6
CONTINUOUS
10
0.258858
20
0.482283
11
0.258858
21
0.460458
0
LINE
8
BLACK
6
CONTINUOUS
10
0.258858
20
0.460458
11
0.283293
21
0.436024
0
LINE
8
BLACK
6
CONTINUOUS
10
0.283293
20
0.436024
11
0.302254
21
0.436024
0
LINE
8
BLACK
6
CONTINUOUS
10
0.302254
20
0.436024
11
0.30555
21
0.435368
0
LINE
8
BLACK
6
CONTINUOUS
10
0.30555
20
0.435368
11
0.308344
21
0.433501
0
LINE
8
BLACK
6
CONTINUOUS
10
0.308344
20
0.433501
11
0.310211
21
0.430707
0
LINE
8
BLACK
6
CONTINUOUS
10
0.310211
20
0.430707
11
0.310866
21
0.427411
0
LINE
8
BLACK
6
CONTINUOUS
10
0.310866
20
0.427411
11
0.310866
21
0.410187
0
LINE
8
BLACK
6
CONTINUOUS
10
0.310866
20
0.410187
11
0.310211
21
0.406891
0
LINE
8
BLACK
6
CONTINUOUS
10
0.310211
20
0.406891
11
0.308344
21
0.404097
0
LINE
8
BLACK
6
CONTINUOUS
10
0.308344
20
0.404097
11
0.30555
21
0.40223
0
LINE
8
BLACK
6
CONTINUOUS
10
0.30555
20
0.40223
11
0.302254
21
0.401575
0
LINE
8
BLACK
6
CONTINUOUS
10
0.302254
20
0.401575
11
0.282077
21
0.401575
0
LINE
8
BLACK
6
CONTINUOUS
10
0.282077
20
0.401575
11
0.278781
21
0.40223
0
LINE
8
BLACK
6
CONTINUOUS
10
0.278781
20
0.40223
11
0.275987
21
0.404097
0
LINE
8
BLACK
6
CONTINUOUS
10
0.275987
20
0.404097
11
0.27412
21
0.406891
0
LINE
8
BLACK
6
CONTINUOUS
10
0.27412
20
0.406891
11
0.273465
21
0.410187
0
LINE
8
BLACK
6
CONTINUOUS
10
0.273465
20
0.410187
11
0.273465
21
0.427411
0
LINE
8
BLACK
6
CONTINUOUS
10
0.273465
20
0.427411
11
0.273753
21
0.42886
0
LINE
8
BLACK
6
CONTINUOUS
10
0.273753
20
0.42886
11
0.248777
21
0.453836
0
LINE
8
BLACK
6
CONTINUOUS
10
0.248777
20
0.453836
11
0.248388
21
0.454509
0
LINE
8
BLACK
6
CONTINUOUS
10
0.248388
20
0.454509
11
0.247838
21
0.455059
0
LINE
8
BLACK
6
CONTINUOUS
10
0.247838
20
0.455059
11
0.247637
21
0.45581
0
LINE
8
BLACK
6
CONTINUOUS
10
0.247637
20
0.45581
11
0.247248
21
0.456483
0
LINE
8
BLACK
6
CONTINUOUS
10
0.247248
20
0.456483
11
0.247248
21
0.457261
0
LINE
8
BLACK
6
CONTINUOUS
10
0.247248
20
0.457261
11
0.247047
21
0.458012
0
LINE
8
BLACK
6
CONTINUOUS
10
0.247047
20
0.458012
11
0.247047
21
0.482283
0
LINE
8
BLACK
6
CONTINUOUS
10
0.247047
20
0.482283
11
0.234252
21
0.482283
0
LINE
8
BLACK
6
CONTINUOUS
10
0.234252
20
0.482283
11
0.234252
21
0.541339
0
LINE
8
BLACK
6
CONTINUOUS
10
0.234252
20
0.541339
11
0.271654
21
0.541339
0
LINE
8
BLACK
6
CONTINUOUS
10
0.271654
20
0.541339
11
0.271654
21
0.482283
0
CIRCLE
8
BLACK
10
0.554961
20
0.42815
40
0.00787402
0
CIRCLE
8
BLACK
10
0.165
20
0.17
40
0.00787402
0
CIRCLE
8
BLACK
10
0.045
20
0.505
40
0.00787402
0
CIRCLE
8
BLACK
10
0.155
20
0.475
40
0.00787402
0
CIRCLE
8
BLACK
10
0.085
20
0.505
40
0.00787402
0
CIRCLE
8
BLACK
10
0.125
20
0.505
40
0.00787402
0
CIRCLE
8
BLACK
10
0.045
20
0.215
40
0.00787402
0
CIRCLE
8
BLACK
10
0.62878
20
0.151575
40
0.00787402
0
CIRCLE
8
BLACK
10
0.504311
20
0.23622
40
0.00787402
0
CIRCLE
8
BLACK
10
0.045
20
0.09
40
0.00787402
0
CIRCLE
8
BLACK
10
0.065
20
0.385
40
0.00787402
0
CIRCLE
8
BLACK
10
0.135
20
0.09
40
0.00787402
0
CIRCLE
8
BLACK
10
0.165
20
0.125
40
0.00787402
0
CIRCLE
8
BLACK
10
0.04
20
0.35
40
0.00787402
0
CIRCLE
8
BLACK
10
0.09
20
0.09
40
0.00787402
0
CIRCLE
8
BLACK
10
0.2
20
0.42
40
0.00787402
0
CIRCLE
8
BLACK
10
0.04
20
0.305
40
0.00787402
0
CIRCLE
8
BLACK
10
0.356142
20
0.437992
40
0.00787402
0
CIRCLE
8
BLACK
10
1.08252
20
0.39937
40
0.00787402
0
CIRCLE
8
BLACK
10
0.359094
20
0.231299
40
0.00787402
0
CIRCLE
8
BLACK
10
0.04
20
0.26
40
0.00787402
0
CIRCLE
8
BLACK
10
0.16
20
0.42
40
0.00787402
0
CIRCLE
8
BLACK
10
0.11
20
0.37
40
0.00787402
0
CIRCLE
8
BLACK
10
0.25
20
0.37
40
0.00787402
0
CIRCLE
8
BLACK
10
0.105
20
0.27
40
0.00787402
0
CIRCLE
8
BLACK
10
0.266575
20
0.312992
40
0.00787402
0
CIRCLE
8
BLACK
10
0.61
20
0.32
40
0.00787402
0
CIRCLE
8
BLACK
10
1.11008
20
0.167087
40
0.00787402
0
CIRCLE
8
BLACK
10
0.25
20
0.27
40
0.00787402
0
CIRCLE
8
BLACK
10
0.7
20
0.27
40
0.00787402
0
CIRCLE
8
BLACK
10
0.99
20
0.121811
40
0.00787402
0
CIRCLE
8
BLACK
10
0.71
20
0.144094
40
0.00787402
  0
ENDSEC
  0
EOF
