  0
SECTION
  2
HEADER
  9
$ANGBASE
  50
0.0
  9
$ANGDIR
  70
1
  9
$MEASUREMENT
  70
0
  0
ENDSEC
  0
SECTION
  2
TABLES
  0
TABLE
  2
LTYPE
  70
4
  0
LTYPE
  5
40F
  2
CONTINUOUS
  70
0
  3
Solid line
  72
65
  73
0
  40
0.0
  0
LTYPE
  5
410
  2
DASHDOT
 70
0
  3
Dash Dot ____ _ ____ _
 72
65
 73
4
 40
2.0
 49
1.25
 49
-0.25
 49
0.25
 49
-0.25
  0
LTYPE
  5
411
  2
DASHED
 70
0
  3
Dashed __ __ __ __ __
 72
65
 73
2
 40
0.75
 49
0.5
 49
-0.25
  0
LTYPE
  5
43B
  2
DOTTED
 70
0
  3
Dotted .  .  .  .
 72
65
 73
2
 40
0.2
 49
0.0
 49
-0.2
  0
ENDTAB
  0
TABLE
  2
STYLE
  70
4
  0
STYLE
  2
KICAD
  70
0
  40
0
  41
1
  42
1
  50
0
  71
0
  3
isocp.shx
  0
STYLE
  2
KICADB
  70
0
  40
0
  41
1
  42
1
  50
0
  71
0
  3
isocp.shx
  0
STYLE
  2
KICADI
  70
0
  40
0
  41
1
  42
1
  50
15
  71
0
  3
isocp.shx
  0
STYLE
  2
KICADBI
  70
0
  40
0
  41
1
  42
1
  50
15
  71
0
  3
isocp.shx
  0
ENDTAB
  0
TABLE
  2
LAYER
  70
1
  0
LAYER
  2
BLACK
  70
0
  62
7
  6
CONTINUOUS
  0
ENDTAB
  0
ENDSEC
  0
SECTION
  2
ENTITIES
0
LINE
8
BLACK
6
CONTINUOUS
10
-4.37125
20
5.42009
11
-4.37154
21
5.42079
0
LINE
8
BLACK
6
CONTINUOUS
10
-4.37154
20
5.42079
11
-4.37154
21
5.51921
0
LINE
8
BLACK
6
CONTINUOUS
10
-4.37154
20
5.51921
11
-4.37125
21
5.51991
0
LINE
8
BLACK
6
CONTINUOUS
10
-4.37125
20
5.51991
11
-4.37055
21
5.5202
0
LINE
8
BLACK
6
CONTINUOUS
10
-4.37055
20
5.5202
11
-4.18945
21
5.5202
0
LINE
8
BLACK
6
CONTINUOUS
10
-4.18945
20
5.5202
11
-4.18875
21
5.51991
0
LINE
8
BLACK
6
CONTINUOUS
10
-4.18875
20
5.51991
11
-4.18846
21
5.51921
0
LINE
8
BLACK
6
CONTINUOUS
10
-4.18846
20
5.51921
11
-4.18846
21
5.42079
0
LINE
8
BLACK
6
CONTINUOUS
10
-4.18846
20
5.42079
11
-4.18875
21
5.42009
0
LINE
8
BLACK
6
CONTINUOUS
10
-4.18875
20
5.42009
11
-4.18945
21
5.4198
0
LINE
8
BLACK
6
CONTINUOUS
10
-4.18945
20
5.4198
11
-4.37055
21
5.4198
0
LINE
8
BLACK
6
CONTINUOUS
10
-4.37055
20
5.4198
11
-4.37125
21
5.42009
0
LINE
8
BLACK
6
CONTINUOUS
10
-4.36957
20
5.51823
11
-4.36957
21
5.42177
0
LINE
8
BLACK
6
CONTINUOUS
10
-4.36957
20
5.42177
11
-4.19043
21
5.42177
0
LINE
8
BLACK
6
CONTINUOUS
10
-4.19043
20
5.42177
11
-4.19043
21
5.51823
0
LINE
8
BLACK
6
CONTINUOUS
10
-4.19043
20
5.51823
11
-4.36957
21
5.51823
0
LINE
8
BLACK
6
CONTINUOUS
10
-4.52497
20
5.46556
11
-4.52526
21
5.46626
0
LINE
8
BLACK
6
CONTINUOUS
10
-4.52526
20
5.46626
11
-4.52526
21
5.52374
0
LINE
8
BLACK
6
CONTINUOUS
10
-4.52526
20
5.52374
11
-4.52497
21
5.52444
0
LINE
8
BLACK
6
CONTINUOUS
10
-4.52497
20
5.52444
11
-4.52427
21
5.52472
0
LINE
8
BLACK
6
CONTINUOUS
10
-4.52427
20
5.52472
11
-4.40774
21
5.52472
0
LINE
8
BLACK
6
CONTINUOUS
10
-4.40774
20
5.52472
11
-4.40704
21
5.52444
0
LINE
8
BLACK
6
CONTINUOUS
10
-4.40704
20
5.52444
11
-4.40675
21
5.52374
0
LINE
8
BLACK
6
CONTINUOUS
10
-4.40675
20
5.52374
11
-4.40675
21
5.46626
0
LINE
8
BLACK
6
CONTINUOUS
10
-4.40675
20
5.46626
11
-4.40704
21
5.46556
0
LINE
8
BLACK
6
CONTINUOUS
10
-4.40704
20
5.46556
11
-4.40774
21
5.46528
0
LINE
8
BLACK
6
CONTINUOUS
10
-4.40774
20
5.46528
11
-4.52427
21
5.46528
0
LINE
8
BLACK
6
CONTINUOUS
10
-4.52427
20
5.46528
11
-4.52497
21
5.46556
0
LINE
8
BLACK
6
CONTINUOUS
10
-4.52329
20
5.52276
11
-4.52329
21
5.46724
0
LINE
8
BLACK
6
CONTINUOUS
10
-4.52329
20
5.46724
11
-4.40872
21
5.46724
0
LINE
8
BLACK
6
CONTINUOUS
10
-4.40872
20
5.46724
11
-4.40872
21
5.52276
0
LINE
8
BLACK
6
CONTINUOUS
10
-4.40872
20
5.52276
11
-4.52329
21
5.52276
0
LINE
8
BLACK
6
CONTINUOUS
10
-5.00644
20
5.49875
11
-5.00673
21
5.49945
0
LINE
8
BLACK
6
CONTINUOUS
10
-5.00673
20
5.49945
11
-5.00673
21
5.8711
0
LINE
8
BLACK
6
CONTINUOUS
10
-5.00673
20
5.8711
11
-5.00644
21
5.8718
0
LINE
8
BLACK
6
CONTINUOUS
10
-5.00644
20
5.8718
11
-5.00575
21
5.87209
0
LINE
8
BLACK
6
CONTINUOUS
10
-5.00575
20
5.87209
11
-4.75378
21
5.87209
0
LINE
8
BLACK
6
CONTINUOUS
10
-4.75378
20
5.87209
11
-4.75308
21
5.8718
0
LINE
8
BLACK
6
CONTINUOUS
10
-4.75308
20
5.8718
11
-4.7528
21
5.8711
0
LINE
8
BLACK
6
CONTINUOUS
10
-4.7528
20
5.8711
11
-4.7528
21
5.49945
0
LINE
8
BLACK
6
CONTINUOUS
10
-4.7528
20
5.49945
11
-4.75308
21
5.49875
0
LINE
8
BLACK
6
CONTINUOUS
10
-4.75308
20
5.49875
11
-4.75378
21
5.49846
0
LINE
8
BLACK
6
CONTINUOUS
10
-4.75378
20
5.49846
11
-5.00575
21
5.49846
0
LINE
8
BLACK
6
CONTINUOUS
10
-5.00575
20
5.49846
11
-5.00644
21
5.49875
0
LINE
8
BLACK
6
CONTINUOUS
10
-5.00476
20
5.87012
11
-5.00476
21
5.50043
0
LINE
8
BLACK
6
CONTINUOUS
10
-5.00476
20
5.50043
11
-4.75476
21
5.50043
0
LINE
8
BLACK
6
CONTINUOUS
10
-4.75476
20
5.50043
11
-4.75476
21
5.87012
0
LINE
8
BLACK
6
CONTINUOUS
10
-4.75476
20
5.87012
11
-5.00476
21
5.87012
0
LINE
8
BLACK
6
CONTINUOUS
10
-4.55444
20
5.54204
11
-4.55472
21
5.54274
0
LINE
8
BLACK
6
CONTINUOUS
10
-4.55472
20
5.54274
11
-4.55472
21
5.65927
0
LINE
8
BLACK
6
CONTINUOUS
10
-4.55472
20
5.65927
11
-4.55444
21
5.65997
0
LINE
8
BLACK
6
CONTINUOUS
10
-4.55444
20
5.65997
11
-4.55374
21
5.66026
0
LINE
8
BLACK
6
CONTINUOUS
10
-4.55374
20
5.66026
11
-4.49626
21
5.66026
0
LINE
8
BLACK
6
CONTINUOUS
10
-4.49626
20
5.66026
11
-4.49556
21
5.65997
0
LINE
8
BLACK
6
CONTINUOUS
10
-4.49556
20
5.65997
11
-4.49528
21
5.65927
0
LINE
8
BLACK
6
CONTINUOUS
10
-4.49528
20
5.65927
11
-4.49528
21
5.54274
0
LINE
8
BLACK
6
CONTINUOUS
10
-4.49528
20
5.54274
11
-4.49556
21
5.54204
0
LINE
8
BLACK
6
CONTINUOUS
10
-4.49556
20
5.54204
11
-4.49626
21
5.54175
0
LINE
8
BLACK
6
CONTINUOUS
10
-4.49626
20
5.54175
11
-4.55374
21
5.54175
0
LINE
8
BLACK
6
CONTINUOUS
10
-4.55374
20
5.54175
11
-4.55444
21
5.54204
0
LINE
8
BLACK
6
CONTINUOUS
10
-4.55276
20
5.65829
11
-4.55276
21
5.54372
0
LINE
8
BLACK
6
CONTINUOUS
10
-4.55276
20
5.54372
11
-4.49724
21
5.54372
0
LINE
8
BLACK
6
CONTINUOUS
10
-4.49724
20
5.54372
11
-4.49724
21
5.65829
0
LINE
8
BLACK
6
CONTINUOUS
10
-4.49724
20
5.65829
11
-4.55276
21
5.65829
0
LINE
8
BLACK
6
CONTINUOUS
10
-4.47263
20
5.54541
11
-4.47291
21
5.5461
0
LINE
8
BLACK
6
CONTINUOUS
10
-4.47291
20
5.5461
11
-4.47291
21
5.6839
0
LINE
8
BLACK
6
CONTINUOUS
10
-4.47291
20
5.6839
11
-4.47263
21
5.68459
0
LINE
8
BLACK
6
CONTINUOUS
10
-4.47263
20
5.68459
11
-4.47193
21
5.68488
0
LINE
8
BLACK
6
CONTINUOUS
10
-4.47193
20
5.68488
11
-4.33807
21
5.68488
0
LINE
8
BLACK
6
CONTINUOUS
10
-4.33807
20
5.68488
11
-4.33737
21
5.68459
0
LINE
8
BLACK
6
CONTINUOUS
10
-4.33737
20
5.68459
11
-4.33709
21
5.6839
0
LINE
8
BLACK
6
CONTINUOUS
10
-4.33709
20
5.6839
11
-4.33709
21
5.5461
0
LINE
8
BLACK
6
CONTINUOUS
10
-4.33709
20
5.5461
11
-4.33737
21
5.54541
0
LINE
8
BLACK
6
CONTINUOUS
10
-4.33737
20
5.54541
11
-4.33807
21
5.54512
0
LINE
8
BLACK
6
CONTINUOUS
10
-4.33807
20
5.54512
11
-4.47193
21
5.54512
0
LINE
8
BLACK
6
CONTINUOUS
10
-4.47193
20
5.54512
11
-4.47263
21
5.54541
0
LINE
8
BLACK
6
CONTINUOUS
10
-4.47094
20
5.68291
11
-4.47094
21
5.54709
0
LINE
8
BLACK
6
CONTINUOUS
10
-4.47094
20
5.54709
11
-4.33906
21
5.54709
0
LINE
8
BLACK
6
CONTINUOUS
10
-4.33906
20
5.54709
11
-4.33906
21
5.68291
0
LINE
8
BLACK
6
CONTINUOUS
10
-4.33906
20
5.68291
11
-4.47094
21
5.68291
0
LINE
8
BLACK
6
CONTINUOUS
10
-4.56315
20
5.5552
11
-4.56344
21
5.5545
0
LINE
8
BLACK
6
CONTINUOUS
10
-4.56344
20
5.5545
11
-4.56413
21
5.55421
0
LINE
8
BLACK
6
CONTINUOUS
10
-4.56413
20
5.55421
11
-4.70587
21
5.55421
0
LINE
8
BLACK
6
CONTINUOUS
10
-4.70587
20
5.55421
11
-4.70656
21
5.5545
0
LINE
8
BLACK
6
CONTINUOUS
10
-4.70656
20
5.5545
11
-4.70685
21
5.5552
0
LINE
8
BLACK
6
CONTINUOUS
10
-4.70685
20
5.5552
11
-4.70685
21
5.7048
0
LINE
8
BLACK
6
CONTINUOUS
10
-4.70685
20
5.7048
11
-4.70656
21
5.7055
0
LINE
8
BLACK
6
CONTINUOUS
10
-4.70656
20
5.7055
11
-4.70587
21
5.70579
0
LINE
8
BLACK
6
CONTINUOUS
10
-4.70587
20
5.70579
11
-4.57472
21
5.70579
0
LINE
8
BLACK
6
CONTINUOUS
10
-4.57472
20
5.70579
11
-4.57472
21
5.82226
0
LINE
8
BLACK
6
CONTINUOUS
10
-4.57472
20
5.82226
11
-4.57444
21
5.82296
0
LINE
8
BLACK
6
CONTINUOUS
10
-4.57444
20
5.82296
11
-4.57374
21
5.82325
0
LINE
8
BLACK
6
CONTINUOUS
10
-4.57374
20
5.82325
11
-4.51626
21
5.82325
0
LINE
8
BLACK
6
CONTINUOUS
10
-4.51626
20
5.82325
11
-4.51556
21
5.82296
0
LINE
8
BLACK
6
CONTINUOUS
10
-4.51556
20
5.82296
11
-4.51528
21
5.82226
0
LINE
8
BLACK
6
CONTINUOUS
10
-4.51528
20
5.82226
11
-4.51528
21
5.70573
0
LINE
8
BLACK
6
CONTINUOUS
10
-4.51528
20
5.70573
11
-4.51556
21
5.70503
0
LINE
8
BLACK
6
CONTINUOUS
10
-4.51556
20
5.70503
11
-4.51626
21
5.70474
0
LINE
8
BLACK
6
CONTINUOUS
10
-4.51626
20
5.70474
11
-4.56315
21
5.70474
0
LINE
8
BLACK
6
CONTINUOUS
10
-4.56315
20
5.70474
11
-4.56315
21
5.5552
0
LINE
8
BLACK
6
CONTINUOUS
10
-4.70488
20
5.70382
11
-4.70488
21
5.55618
0
LINE
8
BLACK
6
CONTINUOUS
10
-4.70488
20
5.55618
11
-4.56512
21
5.55618
0
LINE
8
BLACK
6
CONTINUOUS
10
-4.56512
20
5.55618
11
-4.56512
21
5.70382
0
LINE
8
BLACK
6
CONTINUOUS
10
-4.56512
20
5.70382
11
-4.70488
21
5.70382
0
LINE
8
BLACK
6
CONTINUOUS
10
-4.57276
20
5.82128
11
-4.57276
21
5.70671
0
LINE
8
BLACK
6
CONTINUOUS
10
-4.57276
20
5.70671
11
-4.51724
21
5.70671
0
LINE
8
BLACK
6
CONTINUOUS
10
-4.51724
20
5.70671
11
-4.51724
21
5.82128
0
LINE
8
BLACK
6
CONTINUOUS
10
-4.51724
20
5.82128
11
-4.57276
21
5.82128
0
LINE
8
BLACK
6
CONTINUOUS
10
-4.32497
20
5.57056
11
-4.32526
21
5.57126
0
LINE
8
BLACK
6
CONTINUOUS
10
-4.32526
20
5.57126
11
-4.32526
21
5.62874
0
LINE
8
BLACK
6
CONTINUOUS
10
-4.32526
20
5.62874
11
-4.32497
21
5.62944
0
LINE
8
BLACK
6
CONTINUOUS
10
-4.32497
20
5.62944
11
-4.32427
21
5.62972
0
LINE
8
BLACK
6
CONTINUOUS
10
-4.32427
20
5.62972
11
-4.20774
21
5.62972
0
LINE
8
BLACK
6
CONTINUOUS
10
-4.20774
20
5.62972
11
-4.20704
21
5.62944
0
LINE
8
BLACK
6
CONTINUOUS
10
-4.20704
20
5.62944
11
-4.20675
21
5.62874
0
LINE
8
BLACK
6
CONTINUOUS
10
-4.20675
20
5.62874
11
-4.20675
21
5.57126
0
LINE
8
BLACK
6
CONTINUOUS
10
-4.20675
20
5.57126
11
-4.20704
21
5.57056
0
LINE
8
BLACK
6
CONTINUOUS
10
-4.20704
20
5.57056
11
-4.20774
21
5.57028
0
LINE
8
BLACK
6
CONTINUOUS
10
-4.20774
20
5.57028
11
-4.32427
21
5.57028
0
LINE
8
BLACK
6
CONTINUOUS
10
-4.32427
20
5.57028
11
-4.32497
21
5.57056
0
LINE
8
BLACK
6
CONTINUOUS
10
-4.32329
20
5.62776
11
-4.32329
21
5.57224
0
LINE
8
BLACK
6
CONTINUOUS
10
-4.32329
20
5.57224
11
-4.20872
21
5.57224
0
LINE
8
BLACK
6
CONTINUOUS
10
-4.20872
20
5.57224
11
-4.20872
21
5.62776
0
LINE
8
BLACK
6
CONTINUOUS
10
-4.20872
20
5.62776
11
-4.32329
21
5.62776
0
LINE
8
BLACK
6
CONTINUOUS
10
-3.99463
20
5.61765
11
-3.99492
21
5.61835
0
LINE
8
BLACK
6
CONTINUOUS
10
-3.99492
20
5.61835
11
-3.99492
21
5.7522
0
LINE
8
BLACK
6
CONTINUOUS
10
-3.99492
20
5.7522
11
-3.99463
21
5.7529
0
LINE
8
BLACK
6
CONTINUOUS
10
-3.99463
20
5.7529
11
-3.99394
21
5.75319
0
LINE
8
BLACK
6
CONTINUOUS
10
-3.99394
20
5.75319
11
-3.87583
21
5.75319
0
LINE
8
BLACK
6
CONTINUOUS
10
-3.87583
20
5.75319
11
-3.87513
21
5.7529
0
LINE
8
BLACK
6
CONTINUOUS
10
-3.87513
20
5.7529
11
-3.87484
21
5.7522
0
LINE
8
BLACK
6
CONTINUOUS
10
-3.87484
20
5.7522
11
-3.87484
21
5.61835
0
LINE
8
BLACK
6
CONTINUOUS
10
-3.87484
20
5.61835
11
-3.87513
21
5.61765
0
LINE
8
BLACK
6
CONTINUOUS
10
-3.87513
20
5.61765
11
-3.87583
21
5.61736
0
LINE
8
BLACK
6
CONTINUOUS
10
-3.87583
20
5.61736
11
-3.99394
21
5.61736
0
LINE
8
BLACK
6
CONTINUOUS
10
-3.99394
20
5.61736
11
-3.99463
21
5.61765
0
LINE
8
BLACK
6
CONTINUOUS
10
-3.99295
20
5.75122
11
-3.99295
21
5.61933
0
LINE
8
BLACK
6
CONTINUOUS
10
-3.99295
20
5.61933
11
-3.87681
21
5.61933
0
LINE
8
BLACK
6
CONTINUOUS
10
-3.87681
20
5.61933
11
-3.87681
21
5.75122
0
LINE
8
BLACK
6
CONTINUOUS
10
-3.87681
20
5.75122
11
-3.99295
21
5.75122
0
LINE
8
BLACK
6
CONTINUOUS
10
-4.40944
20
5.73503
11
-4.40972
21
5.73573
0
LINE
8
BLACK
6
CONTINUOUS
10
-4.40972
20
5.73573
11
-4.40972
21
5.85226
0
LINE
8
BLACK
6
CONTINUOUS
10
-4.40972
20
5.85226
11
-4.40944
21
5.85296
0
LINE
8
BLACK
6
CONTINUOUS
10
-4.40944
20
5.85296
11
-4.40874
21
5.85325
0
LINE
8
BLACK
6
CONTINUOUS
10
-4.40874
20
5.85325
11
-4.35126
21
5.85325
0
LINE
8
BLACK
6
CONTINUOUS
10
-4.35126
20
5.85325
11
-4.35056
21
5.85296
0
LINE
8
BLACK
6
CONTINUOUS
10
-4.35056
20
5.85296
11
-4.35028
21
5.85226
0
LINE
8
BLACK
6
CONTINUOUS
10
-4.35028
20
5.85226
11
-4.35028
21
5.73573
0
LINE
8
BLACK
6
CONTINUOUS
10
-4.35028
20
5.73573
11
-4.35056
21
5.73503
0
LINE
8
BLACK
6
CONTINUOUS
10
-4.35056
20
5.73503
11
-4.35126
21
5.73474
0
LINE
8
BLACK
6
CONTINUOUS
10
-4.35126
20
5.73474
11
-4.40874
21
5.73474
0
LINE
8
BLACK
6
CONTINUOUS
10
-4.40874
20
5.73474
11
-4.40944
21
5.73503
0
LINE
8
BLACK
6
CONTINUOUS
10
-4.40776
20
5.85128
11
-4.40776
21
5.73671
0
LINE
8
BLACK
6
CONTINUOUS
10
-4.40776
20
5.73671
11
-4.35224
21
5.73671
0
LINE
8
BLACK
6
CONTINUOUS
10
-4.35224
20
5.73671
11
-4.35224
21
5.85128
0
LINE
8
BLACK
6
CONTINUOUS
10
-4.35224
20
5.85128
11
-4.40776
21
5.85128
0
LINE
8
BLACK
6
CONTINUOUS
10
-4.31944
20
5.73604
11
-4.31972
21
5.73673
0
LINE
8
BLACK
6
CONTINUOUS
10
-4.31972
20
5.73673
11
-4.31972
21
5.85327
0
LINE
8
BLACK
6
CONTINUOUS
10
-4.31972
20
5.85327
11
-4.31944
21
5.85396
0
LINE
8
BLACK
6
CONTINUOUS
10
-4.31944
20
5.85396
11
-4.31874
21
5.85425
0
LINE
8
BLACK
6
CONTINUOUS
10
-4.31874
20
5.85425
11
-4.26126
21
5.85425
0
LINE
8
BLACK
6
CONTINUOUS
10
-4.26126
20
5.85425
11
-4.26056
21
5.85396
0
LINE
8
BLACK
6
CONTINUOUS
10
-4.26056
20
5.85396
11
-4.26028
21
5.85327
0
LINE
8
BLACK
6
CONTINUOUS
10
-4.26028
20
5.85327
11
-4.26028
21
5.73673
0
LINE
8
BLACK
6
CONTINUOUS
10
-4.26028
20
5.73673
11
-4.26056
21
5.73604
0
LINE
8
BLACK
6
CONTINUOUS
10
-4.26056
20
5.73604
11
-4.26126
21
5.73575
0
LINE
8
BLACK
6
CONTINUOUS
10
-4.26126
20
5.73575
11
-4.31874
21
5.73575
0
LINE
8
BLACK
6
CONTINUOUS
10
-4.31874
20
5.73575
11
-4.31944
21
5.73604
0
LINE
8
BLACK
6
CONTINUOUS
10
-4.31776
20
5.85228
11
-4.31776
21
5.73772
0
LINE
8
BLACK
6
CONTINUOUS
10
-4.31776
20
5.73772
11
-4.26224
21
5.73772
0
LINE
8
BLACK
6
CONTINUOUS
10
-4.26224
20
5.73772
11
-4.26224
21
5.85228
0
LINE
8
BLACK
6
CONTINUOUS
10
-4.26224
20
5.85228
11
-4.31776
21
5.85228
0
LINE
8
BLACK
6
CONTINUOUS
10
-4.49444
20
5.73704
11
-4.49472
21
5.73774
0
LINE
8
BLACK
6
CONTINUOUS
10
-4.49472
20
5.73774
11
-4.49472
21
5.85427
0
LINE
8
BLACK
6
CONTINUOUS
10
-4.49472
20
5.85427
11
-4.49444
21
5.85497
0
LINE
8
BLACK
6
CONTINUOUS
10
-4.49444
20
5.85497
11
-4.49374
21
5.85526
0
LINE
8
BLACK
6
CONTINUOUS
10
-4.49374
20
5.85526
11
-4.43626
21
5.85526
0
LINE
8
BLACK
6
CONTINUOUS
10
-4.43626
20
5.85526
11
-4.43556
21
5.85497
0
LINE
8
BLACK
6
CONTINUOUS
10
-4.43556
20
5.85497
11
-4.43528
21
5.85427
0
LINE
8
BLACK
6
CONTINUOUS
10
-4.43528
20
5.85427
11
-4.43528
21
5.73774
0
LINE
8
BLACK
6
CONTINUOUS
10
-4.43528
20
5.73774
11
-4.43556
21
5.73704
0
LINE
8
BLACK
6
CONTINUOUS
10
-4.43556
20
5.73704
11
-4.43626
21
5.73675
0
LINE
8
BLACK
6
CONTINUOUS
10
-4.43626
20
5.73675
11
-4.49374
21
5.73675
0
LINE
8
BLACK
6
CONTINUOUS
10
-4.49374
20
5.73675
11
-4.49444
21
5.73704
0
LINE
8
BLACK
6
CONTINUOUS
10
-4.49276
20
5.85329
11
-4.49276
21
5.73872
0
LINE
8
BLACK
6
CONTINUOUS
10
-4.49276
20
5.73872
11
-4.43724
21
5.73872
0
LINE
8
BLACK
6
CONTINUOUS
10
-4.43724
20
5.73872
11
-4.43724
21
5.85329
0
LINE
8
BLACK
6
CONTINUOUS
10
-4.43724
20
5.85329
11
-4.49276
21
5.85329
0
LINE
8
BLACK
6
CONTINUOUS
10
-4.72826
20
5.73753
11
-4.72854
21
5.73823
0
LINE
8
BLACK
6
CONTINUOUS
10
-4.72854
20
5.73823
11
-4.72854
21
5.83665
0
LINE
8
BLACK
6
CONTINUOUS
10
-4.72854
20
5.83665
11
-4.72826
21
5.83735
0
LINE
8
BLACK
6
CONTINUOUS
10
-4.72826
20
5.83735
11
-4.72756
21
5.83764
0
LINE
8
BLACK
6
CONTINUOUS
10
-4.72756
20
5.83764
11
-4.67244
21
5.83764
0
LINE
8
BLACK
6
CONTINUOUS
10
-4.67244
20
5.83764
11
-4.67174
21
5.83735
0
LINE
8
BLACK
6
CONTINUOUS
10
-4.67174
20
5.83735
11
-4.67146
21
5.83665
0
LINE
8
BLACK
6
CONTINUOUS
10
-4.67146
20
5.83665
11
-4.67146
21
5.73823
0
LINE
8
BLACK
6
CONTINUOUS
10
-4.67146
20
5.73823
11
-4.67174
21
5.73753
0
LINE
8
BLACK
6
CONTINUOUS
10
-4.67174
20
5.73753
11
-4.67244
21
5.73724
0
LINE
8
BLACK
6
CONTINUOUS
10
-4.67244
20
5.73724
11
-4.72756
21
5.73724
0
LINE
8
BLACK
6
CONTINUOUS
10
-4.72756
20
5.73724
11
-4.72826
21
5.73753
0
LINE
8
BLACK
6
CONTINUOUS
10
-4.72657
20
5.83567
11
-4.72657
21
5.73921
0
LINE
8
BLACK
6
CONTINUOUS
10
-4.72657
20
5.73921
11
-4.67343
21
5.73921
0
LINE
8
BLACK
6
CONTINUOUS
10
-4.67343
20
5.73921
11
-4.67343
21
5.83567
0
LINE
8
BLACK
6
CONTINUOUS
10
-4.67343
20
5.83567
11
-4.72657
21
5.83567
0
LINE
8
BLACK
6
CONTINUOUS
10
-3.994
20
5.81702
11
-3.99429
21
5.81772
0
LINE
8
BLACK
6
CONTINUOUS
10
-3.99429
20
5.81772
11
-3.99429
21
5.8752
0
LINE
8
BLACK
6
CONTINUOUS
10
-3.99429
20
5.8752
11
-3.994
21
5.87589
0
LINE
8
BLACK
6
CONTINUOUS
10
-3.994
20
5.87589
11
-3.99331
21
5.87618
0
LINE
8
BLACK
6
CONTINUOUS
10
-3.99331
20
5.87618
11
-3.87677
21
5.87618
0
LINE
8
BLACK
6
CONTINUOUS
10
-3.87677
20
5.87618
11
-3.87608
21
5.87589
0
LINE
8
BLACK
6
CONTINUOUS
10
-3.87608
20
5.87589
11
-3.87579
21
5.8752
0
LINE
8
BLACK
6
CONTINUOUS
10
-3.87579
20
5.8752
11
-3.87579
21
5.81772
0
LINE
8
BLACK
6
CONTINUOUS
10
-3.87579
20
5.81772
11
-3.87608
21
5.81702
0
LINE
8
BLACK
6
CONTINUOUS
10
-3.87608
20
5.81702
11
-3.87677
21
5.81673
0
LINE
8
BLACK
6
CONTINUOUS
10
-3.87677
20
5.81673
11
-3.99331
21
5.81673
0
LINE
8
BLACK
6
CONTINUOUS
10
-3.99331
20
5.81673
11
-3.994
21
5.81702
0
LINE
8
BLACK
6
CONTINUOUS
10
-3.99232
20
5.87421
11
-3.99232
21
5.8187
0
LINE
8
BLACK
6
CONTINUOUS
10
-3.99232
20
5.8187
11
-3.87776
21
5.8187
0
LINE
8
BLACK
6
CONTINUOUS
10
-3.87776
20
5.8187
11
-3.87776
21
5.87421
0
LINE
8
BLACK
6
CONTINUOUS
10
-3.87776
20
5.87421
11
-3.99232
21
5.87421
  0
ENDSEC
  0
EOF
