  0
SECTION
  2
HEADER
  9
$ANGBASE
  50
0.0
  9
$ANGDIR
  70
1
  9
$MEASUREMENT
  70
0
  0
ENDSEC
  0
SECTION
  2
TABLES
  0
TABLE
  2
LTYPE
  70
4
  0
LTYPE
  5
40F
  2
CONTINUOUS
  70
0
  3
Solid line
  72
65
  73
0
  40
0.0
  0
LTYPE
  5
410
  2
DASHDOT
 70
0
  3
Dash Dot ____ _ ____ _
 72
65
 73
4
 40
2.0
 49
1.25
 49
-0.25
 49
0.25
 49
-0.25
  0
LTYPE
  5
411
  2
DASHED
 70
0
  3
Dashed __ __ __ __ __
 72
65
 73
2
 40
0.75
 49
0.5
 49
-0.25
  0
LTYPE
  5
43B
  2
DOTTED
 70
0
  3
Dotted .  .  .  .
 72
65
 73
2
 40
0.2
 49
0.0
 49
-0.2
  0
ENDTAB
  0
TABLE
  2
STYLE
  70
4
  0
STYLE
  2
KICAD
  70
0
  40
0
  41
1
  42
1
  50
0
  71
0
  3
isocp.shx
  0
STYLE
  2
KICADB
  70
0
  40
0
  41
1
  42
1
  50
0
  71
0
  3
isocp.shx
  0
STYLE
  2
KICADI
  70
0
  40
0
  41
1
  42
1
  50
15
  71
0
  3
isocp.shx
  0
STYLE
  2
KICADBI
  70
0
  40
0
  41
1
  42
1
  50
15
  71
0
  3
isocp.shx
  0
ENDTAB
  0
TABLE
  2
LAYER
  70
1
  0
LAYER
  2
BLACK
  70
0
  62
7
  6
CONTINUOUS
  0
ENDTAB
  0
ENDSEC
  0
SECTION
  2
ENTITIES
0
LINE
8
BLACK
6
CONTINUOUS
10
-4.55734
20
5.52751
11
-4.55721
21
5.52741
0
LINE
8
BLACK
6
CONTINUOUS
10
-4.55721
20
5.52741
11
-4.55584
21
5.52765
0
LINE
8
BLACK
6
CONTINUOUS
10
-4.55584
20
5.52765
11
-4.55409
21
5.52664
0
LINE
8
BLACK
6
CONTINUOUS
10
-4.55409
20
5.52664
11
-4.5534
21
5.52474
0
LINE
8
BLACK
6
CONTINUOUS
10
-4.5534
20
5.52474
11
-4.5534
21
5.41274
0
LINE
8
BLACK
6
CONTINUOUS
10
-4.5534
20
5.41274
11
-4.55347
21
5.41236
0
LINE
8
BLACK
6
CONTINUOUS
10
-4.55347
20
5.41236
11
-4.55345
21
5.41223
0
LINE
8
BLACK
6
CONTINUOUS
10
-4.55345
20
5.41223
11
-4.55351
21
5.41211
0
LINE
8
BLACK
6
CONTINUOUS
10
-4.55351
20
5.41211
11
-4.55358
21
5.41173
0
LINE
8
BLACK
6
CONTINUOUS
10
-4.55358
20
5.41173
11
-4.55407
21
5.41114
0
LINE
8
BLACK
6
CONTINUOUS
10
-4.55407
20
5.41114
11
-4.55446
21
5.41048
0
LINE
8
BLACK
6
CONTINUOUS
10
-4.55446
20
5.41048
11
-4.55471
21
5.41039
0
LINE
8
BLACK
6
CONTINUOUS
10
-4.55471
20
5.41039
11
-4.55488
21
5.41018
0
LINE
8
BLACK
6
CONTINUOUS
10
-4.55488
20
5.41018
11
-4.55563
21
5.41005
0
LINE
8
BLACK
6
CONTINUOUS
10
-4.55563
20
5.41005
11
-4.55635
21
5.40979
0
LINE
8
BLACK
6
CONTINUOUS
10
-4.55635
20
5.40979
11
-4.75135
21
5.40979
0
LINE
8
BLACK
6
CONTINUOUS
10
-4.75135
20
5.40979
11
-4.75236
21
5.40997
0
LINE
8
BLACK
6
CONTINUOUS
10
-4.75236
20
5.40997
11
-4.75277
21
5.41031
0
LINE
8
BLACK
6
CONTINUOUS
10
-4.75277
20
5.41031
11
-4.75288
21
5.41018
0
LINE
8
BLACK
6
CONTINUOUS
10
-4.75288
20
5.41018
11
-4.75487
21
5.40983
0
LINE
8
BLACK
6
CONTINUOUS
10
-4.75487
20
5.40983
11
-4.75662
21
5.41084
0
LINE
8
BLACK
6
CONTINUOUS
10
-4.75662
20
5.41084
11
-4.75731
21
5.41274
0
LINE
8
BLACK
6
CONTINUOUS
10
-4.75731
20
5.41274
11
-4.75731
21
5.52474
0
LINE
8
BLACK
6
CONTINUOUS
10
-4.75731
20
5.52474
11
-4.75713
21
5.52575
0
LINE
8
BLACK
6
CONTINUOUS
10
-4.75713
20
5.52575
11
-4.75583
21
5.5273
0
LINE
8
BLACK
6
CONTINUOUS
10
-4.75583
20
5.5273
11
-4.75384
21
5.52765
0
LINE
8
BLACK
6
CONTINUOUS
10
-4.75384
20
5.52765
11
-4.7537
21
5.52757
0
LINE
8
BLACK
6
CONTINUOUS
10
-4.7537
20
5.52757
11
-4.75335
21
5.52769
0
LINE
8
BLACK
6
CONTINUOUS
10
-4.75335
20
5.52769
11
-4.55835
21
5.52769
0
LINE
8
BLACK
6
CONTINUOUS
10
-4.55835
20
5.52769
11
-4.55734
21
5.52751
0
LINE
8
BLACK
6
CONTINUOUS
10
-4.7514
20
5.52179
11
-4.7514
21
5.41568
0
LINE
8
BLACK
6
CONTINUOUS
10
-4.7514
20
5.41568
11
-4.75135
21
5.41569
0
LINE
8
BLACK
6
CONTINUOUS
10
-4.75135
20
5.41569
11
-4.55931
21
5.41569
0
LINE
8
BLACK
6
CONTINUOUS
10
-4.55931
20
5.41569
11
-4.55931
21
5.52179
0
LINE
8
BLACK
6
CONTINUOUS
10
-4.55931
20
5.52179
11
-4.7514
21
5.52179
0
LINE
8
BLACK
6
CONTINUOUS
10
-4.74174
20
5.49621
11
-4.71821
21
5.47268
0
LINE
8
BLACK
6
CONTINUOUS
10
-4.71821
20
5.47268
11
-4.71821
21
5.49412
0
LINE
8
BLACK
6
CONTINUOUS
10
-4.71821
20
5.49412
11
-4.71803
21
5.49513
0
LINE
8
BLACK
6
CONTINUOUS
10
-4.71803
20
5.49513
11
-4.71674
21
5.49668
0
LINE
8
BLACK
6
CONTINUOUS
10
-4.71674
20
5.49668
11
-4.71475
21
5.49703
0
LINE
8
BLACK
6
CONTINUOUS
10
-4.71475
20
5.49703
11
-4.713
21
5.49602
0
LINE
8
BLACK
6
CONTINUOUS
10
-4.713
20
5.49602
11
-4.71231
21
5.49412
0
LINE
8
BLACK
6
CONTINUOUS
10
-4.71231
20
5.49412
11
-4.71231
21
5.44412
0
LINE
8
BLACK
6
CONTINUOUS
10
-4.71231
20
5.44412
11
-4.71248
21
5.44311
0
LINE
8
BLACK
6
CONTINUOUS
10
-4.71248
20
5.44311
11
-4.71378
21
5.44156
0
LINE
8
BLACK
6
CONTINUOUS
10
-4.71378
20
5.44156
11
-4.71577
21
5.44121
0
LINE
8
BLACK
6
CONTINUOUS
10
-4.71577
20
5.44121
11
-4.71752
21
5.44222
0
LINE
8
BLACK
6
CONTINUOUS
10
-4.71752
20
5.44222
11
-4.71821
21
5.44412
0
LINE
8
BLACK
6
CONTINUOUS
10
-4.71821
20
5.44412
11
-4.71821
21
5.46433
0
LINE
8
BLACK
6
CONTINUOUS
10
-4.71821
20
5.46433
11
-4.72208
21
5.4682
0
LINE
8
BLACK
6
CONTINUOUS
10
-4.72208
20
5.4682
11
-4.74147
21
5.44235
0
LINE
8
BLACK
6
CONTINUOUS
10
-4.74147
20
5.44235
11
-4.74222
21
5.44165
0
LINE
8
BLACK
6
CONTINUOUS
10
-4.74222
20
5.44165
11
-4.74418
21
5.44119
0
LINE
8
BLACK
6
CONTINUOUS
10
-4.74418
20
5.44119
11
-4.74599
21
5.4421
0
LINE
8
BLACK
6
CONTINUOUS
10
-4.74599
20
5.4421
11
-4.74678
21
5.44396
0
LINE
8
BLACK
6
CONTINUOUS
10
-4.74678
20
5.44396
11
-4.74619
21
5.44589
0
LINE
8
BLACK
6
CONTINUOUS
10
-4.74619
20
5.44589
11
-4.7263
21
5.47242
0
LINE
8
BLACK
6
CONTINUOUS
10
-4.7263
20
5.47242
11
-4.74592
21
5.49203
0
LINE
8
BLACK
6
CONTINUOUS
10
-4.74592
20
5.49203
11
-4.74651
21
5.49287
0
LINE
8
BLACK
6
CONTINUOUS
10
-4.74651
20
5.49287
11
-4.74668
21
5.49489
0
LINE
8
BLACK
6
CONTINUOUS
10
-4.74668
20
5.49489
11
-4.74552
21
5.49654
0
LINE
8
BLACK
6
CONTINUOUS
10
-4.74552
20
5.49654
11
-4.74357
21
5.49706
0
LINE
8
BLACK
6
CONTINUOUS
10
-4.74357
20
5.49706
11
-4.74174
21
5.49621
0
LINE
8
BLACK
6
CONTINUOUS
10
-4.66268
20
5.4989
11
-4.66113
21
5.4976
0
LINE
8
BLACK
6
CONTINUOUS
10
-4.66113
20
5.4976
11
-4.66078
21
5.49561
0
LINE
8
BLACK
6
CONTINUOUS
10
-4.66078
20
5.49561
11
-4.66179
21
5.49386
0
LINE
8
BLACK
6
CONTINUOUS
10
-4.66179
20
5.49386
11
-4.66369
21
5.49317
0
LINE
8
BLACK
6
CONTINUOUS
10
-4.66369
20
5.49317
11
-4.68813
21
5.49317
0
LINE
8
BLACK
6
CONTINUOUS
10
-4.68813
20
5.49317
11
-4.67575
21
5.47902
0
LINE
8
BLACK
6
CONTINUOUS
10
-4.67575
20
5.47902
11
-4.67552
21
5.47864
0
LINE
8
BLACK
6
CONTINUOUS
10
-4.67552
20
5.47864
11
-4.67542
21
5.47855
0
LINE
8
BLACK
6
CONTINUOUS
10
-4.67542
20
5.47855
11
-4.67539
21
5.47843
0
LINE
8
BLACK
6
CONTINUOUS
10
-4.67539
20
5.47843
11
-4.67522
21
5.47814
0
LINE
8
BLACK
6
CONTINUOUS
10
-4.67522
20
5.47814
11
-4.6752
21
5.47734
0
LINE
8
BLACK
6
CONTINUOUS
10
-4.6752
20
5.47734
11
-4.67507
21
5.47656
0
LINE
8
BLACK
6
CONTINUOUS
10
-4.67507
20
5.47656
11
-4.67518
21
5.47636
0
LINE
8
BLACK
6
CONTINUOUS
10
-4.67518
20
5.47636
11
-4.67518
21
5.47612
0
LINE
8
BLACK
6
CONTINUOUS
10
-4.67518
20
5.47612
11
-4.67568
21
5.4755
0
LINE
8
BLACK
6
CONTINUOUS
10
-4.67568
20
5.4755
11
-4.67608
21
5.47481
0
LINE
8
BLACK
6
CONTINUOUS
10
-4.67608
20
5.47481
11
-4.6763
21
5.47473
0
LINE
8
BLACK
6
CONTINUOUS
10
-4.6763
20
5.47473
11
-4.67644
21
5.47455
0
LINE
8
BLACK
6
CONTINUOUS
10
-4.67644
20
5.47455
11
-4.67723
21
5.47439
0
LINE
8
BLACK
6
CONTINUOUS
10
-4.67723
20
5.47439
11
-4.67797
21
5.47412
0
LINE
8
BLACK
6
CONTINUOUS
10
-4.67797
20
5.47412
11
-4.68442
21
5.47412
0
LINE
8
BLACK
6
CONTINUOUS
10
-4.68442
20
5.47412
11
-4.68813
21
5.47227
0
LINE
8
BLACK
6
CONTINUOUS
10
-4.68813
20
5.47227
11
-4.68983
21
5.47056
0
LINE
8
BLACK
6
CONTINUOUS
10
-4.68983
20
5.47056
11
-4.69169
21
5.46685
0
LINE
8
BLACK
6
CONTINUOUS
10
-4.69169
20
5.46685
11
-4.69169
21
5.45634
0
LINE
8
BLACK
6
CONTINUOUS
10
-4.69169
20
5.45634
11
-4.68983
21
5.45263
0
LINE
8
BLACK
6
CONTINUOUS
10
-4.68983
20
5.45263
11
-4.68813
21
5.45093
0
LINE
8
BLACK
6
CONTINUOUS
10
-4.68813
20
5.45093
11
-4.68442
21
5.44907
0
LINE
8
BLACK
6
CONTINUOUS
10
-4.68442
20
5.44907
11
-4.67153
21
5.44907
0
LINE
8
BLACK
6
CONTINUOUS
10
-4.67153
20
5.44907
11
-4.66782
21
5.45093
0
LINE
8
BLACK
6
CONTINUOUS
10
-4.66782
20
5.45093
11
-4.66578
21
5.45297
0
LINE
8
BLACK
6
CONTINUOUS
10
-4.66578
20
5.45297
11
-4.66494
21
5.45356
0
LINE
8
BLACK
6
CONTINUOUS
10
-4.66494
20
5.45356
11
-4.66292
21
5.45374
0
LINE
8
BLACK
6
CONTINUOUS
10
-4.66292
20
5.45374
11
-4.66127
21
5.45258
0
LINE
8
BLACK
6
CONTINUOUS
10
-4.66127
20
5.45258
11
-4.66075
21
5.45063
0
LINE
8
BLACK
6
CONTINUOUS
10
-4.66075
20
5.45063
11
-4.6616
21
5.4488
0
LINE
8
BLACK
6
CONTINUOUS
10
-4.6616
20
5.4488
11
-4.66398
21
5.44641
0
LINE
8
BLACK
6
CONTINUOUS
10
-4.66398
20
5.44641
11
-4.6647
21
5.44591
0
LINE
8
BLACK
6
CONTINUOUS
10
-4.6647
20
5.44591
11
-4.66475
21
5.44586
0
LINE
8
BLACK
6
CONTINUOUS
10
-4.66475
20
5.44586
11
-4.66951
21
5.44348
0
LINE
8
BLACK
6
CONTINUOUS
10
-4.66951
20
5.44348
11
-4.67049
21
5.44319
0
LINE
8
BLACK
6
CONTINUOUS
10
-4.67049
20
5.44319
11
-4.67066
21
5.44323
0
LINE
8
BLACK
6
CONTINUOUS
10
-4.67066
20
5.44323
11
-4.67083
21
5.44317
0
LINE
8
BLACK
6
CONTINUOUS
10
-4.67083
20
5.44317
11
-4.68512
21
5.44317
0
LINE
8
BLACK
6
CONTINUOUS
10
-4.68512
20
5.44317
11
-4.68613
21
5.44335
0
LINE
8
BLACK
6
CONTINUOUS
10
-4.68613
20
5.44335
11
-4.68626
21
5.44346
0
LINE
8
BLACK
6
CONTINUOUS
10
-4.68626
20
5.44346
11
-4.68644
21
5.44348
0
LINE
8
BLACK
6
CONTINUOUS
10
-4.68644
20
5.44348
11
-4.6912
21
5.44586
0
LINE
8
BLACK
6
CONTINUOUS
10
-4.6912
20
5.44586
11
-4.69191
21
5.44639
0
LINE
8
BLACK
6
CONTINUOUS
10
-4.69191
20
5.44639
11
-4.69197
21
5.44641
0
LINE
8
BLACK
6
CONTINUOUS
10
-4.69197
20
5.44641
11
-4.69435
21
5.4488
0
LINE
8
BLACK
6
CONTINUOUS
10
-4.69435
20
5.4488
11
-4.69485
21
5.44952
0
LINE
8
BLACK
6
CONTINUOUS
10
-4.69485
20
5.44952
11
-4.6949
21
5.44956
0
LINE
8
BLACK
6
CONTINUOUS
10
-4.6949
20
5.44956
11
-4.69728
21
5.45432
0
LINE
8
BLACK
6
CONTINUOUS
10
-4.69728
20
5.45432
11
-4.69757
21
5.45531
0
LINE
8
BLACK
6
CONTINUOUS
10
-4.69757
20
5.45531
11
-4.69753
21
5.45548
0
LINE
8
BLACK
6
CONTINUOUS
10
-4.69753
20
5.45548
11
-4.69759
21
5.45564
0
LINE
8
BLACK
6
CONTINUOUS
10
-4.69759
20
5.45564
11
-4.69759
21
5.46755
0
LINE
8
BLACK
6
CONTINUOUS
10
-4.69759
20
5.46755
11
-4.69741
21
5.46856
0
LINE
8
BLACK
6
CONTINUOUS
10
-4.69741
20
5.46856
11
-4.6973
21
5.46869
0
LINE
8
BLACK
6
CONTINUOUS
10
-4.6973
20
5.46869
11
-4.69728
21
5.46887
0
LINE
8
BLACK
6
CONTINUOUS
10
-4.69728
20
5.46887
11
-4.6949
21
5.47363
0
LINE
8
BLACK
6
CONTINUOUS
10
-4.6949
20
5.47363
11
-4.69437
21
5.47434
0
LINE
8
BLACK
6
CONTINUOUS
10
-4.69437
20
5.47434
11
-4.69435
21
5.4744
0
LINE
8
BLACK
6
CONTINUOUS
10
-4.69435
20
5.4744
11
-4.69197
21
5.47678
0
LINE
8
BLACK
6
CONTINUOUS
10
-4.69197
20
5.47678
11
-4.69124
21
5.47729
0
LINE
8
BLACK
6
CONTINUOUS
10
-4.69124
20
5.47729
11
-4.6912
21
5.47733
0
LINE
8
BLACK
6
CONTINUOUS
10
-4.6912
20
5.47733
11
-4.68644
21
5.47971
0
LINE
8
BLACK
6
CONTINUOUS
10
-4.68644
20
5.47971
11
-4.68545
21
5.48001
0
LINE
8
BLACK
6
CONTINUOUS
10
-4.68545
20
5.48001
11
-4.68528
21
5.47997
0
LINE
8
BLACK
6
CONTINUOUS
10
-4.68528
20
5.47997
11
-4.68512
21
5.48003
0
LINE
8
BLACK
6
CONTINUOUS
10
-4.68512
20
5.48003
11
-4.68448
21
5.48003
0
LINE
8
BLACK
6
CONTINUOUS
10
-4.68448
20
5.48003
11
-4.69686
21
5.49418
0
LINE
8
BLACK
6
CONTINUOUS
10
-4.69686
20
5.49418
11
-4.69709
21
5.49456
0
LINE
8
BLACK
6
CONTINUOUS
10
-4.69709
20
5.49456
11
-4.6972
21
5.49464
0
LINE
8
BLACK
6
CONTINUOUS
10
-4.6972
20
5.49464
11
-4.69722
21
5.49477
0
LINE
8
BLACK
6
CONTINUOUS
10
-4.69722
20
5.49477
11
-4.69739
21
5.49505
0
LINE
8
BLACK
6
CONTINUOUS
10
-4.69739
20
5.49505
11
-4.69741
21
5.49585
0
LINE
8
BLACK
6
CONTINUOUS
10
-4.69741
20
5.49585
11
-4.69755
21
5.49663
0
LINE
8
BLACK
6
CONTINUOUS
10
-4.69755
20
5.49663
11
-4.69743
21
5.49684
0
LINE
8
BLACK
6
CONTINUOUS
10
-4.69743
20
5.49684
11
-4.69744
21
5.49707
0
LINE
8
BLACK
6
CONTINUOUS
10
-4.69744
20
5.49707
11
-4.69694
21
5.49769
0
LINE
8
BLACK
6
CONTINUOUS
10
-4.69694
20
5.49769
11
-4.69654
21
5.49838
0
LINE
8
BLACK
6
CONTINUOUS
10
-4.69654
20
5.49838
11
-4.69632
21
5.49846
0
LINE
8
BLACK
6
CONTINUOUS
10
-4.69632
20
5.49846
11
-4.69617
21
5.49865
0
LINE
8
BLACK
6
CONTINUOUS
10
-4.69617
20
5.49865
11
-4.69539
21
5.4988
0
LINE
8
BLACK
6
CONTINUOUS
10
-4.69539
20
5.4988
11
-4.69464
21
5.49907
0
LINE
8
BLACK
6
CONTINUOUS
10
-4.69464
20
5.49907
11
-4.66369
21
5.49907
0
LINE
8
BLACK
6
CONTINUOUS
10
-4.66369
20
5.49907
11
-4.66268
21
5.4989
0
LINE
8
BLACK
6
CONTINUOUS
10
-4.61807
20
5.49901
11
-4.61794
21
5.49903
0
LINE
8
BLACK
6
CONTINUOUS
10
-4.61794
20
5.49903
11
-4.61782
21
5.49896
0
LINE
8
BLACK
6
CONTINUOUS
10
-4.61782
20
5.49896
11
-4.61744
21
5.4989
0
LINE
8
BLACK
6
CONTINUOUS
10
-4.61744
20
5.4989
11
-4.61685
21
5.4984
0
LINE
8
BLACK
6
CONTINUOUS
10
-4.61685
20
5.4984
11
-4.61619
21
5.49802
0
LINE
8
BLACK
6
CONTINUOUS
10
-4.61619
20
5.49802
11
-4.6161
21
5.49777
0
LINE
8
BLACK
6
CONTINUOUS
10
-4.6161
20
5.49777
11
-4.61589
21
5.4976
0
LINE
8
BLACK
6
CONTINUOUS
10
-4.61589
20
5.4976
11
-4.61576
21
5.49684
0
LINE
8
BLACK
6
CONTINUOUS
10
-4.61576
20
5.49684
11
-4.6155
21
5.49612
0
LINE
8
BLACK
6
CONTINUOUS
10
-4.6155
20
5.49612
11
-4.6155
21
5.44612
0
LINE
8
BLACK
6
CONTINUOUS
10
-4.6155
20
5.44612
11
-4.61556
21
5.44574
0
LINE
8
BLACK
6
CONTINUOUS
10
-4.61556
20
5.44574
11
-4.61554
21
5.44561
0
LINE
8
BLACK
6
CONTINUOUS
10
-4.61554
20
5.44561
11
-4.61561
21
5.44549
0
LINE
8
BLACK
6
CONTINUOUS
10
-4.61561
20
5.44549
11
-4.61567
21
5.44511
0
LINE
8
BLACK
6
CONTINUOUS
10
-4.61567
20
5.44511
11
-4.61617
21
5.44452
0
LINE
8
BLACK
6
CONTINUOUS
10
-4.61617
20
5.44452
11
-4.61655
21
5.44386
0
LINE
8
BLACK
6
CONTINUOUS
10
-4.61655
20
5.44386
11
-4.6168
21
5.44377
0
LINE
8
BLACK
6
CONTINUOUS
10
-4.6168
20
5.44377
11
-4.61697
21
5.44356
0
LINE
8
BLACK
6
CONTINUOUS
10
-4.61697
20
5.44356
11
-4.61773
21
5.44343
0
LINE
8
BLACK
6
CONTINUOUS
10
-4.61773
20
5.44343
11
-4.61845
21
5.44317
0
LINE
8
BLACK
6
CONTINUOUS
10
-4.61845
20
5.44317
11
-4.63035
21
5.44317
0
LINE
8
BLACK
6
CONTINUOUS
10
-4.63035
20
5.44317
11
-4.63122
21
5.44332
0
LINE
8
BLACK
6
CONTINUOUS
10
-4.63122
20
5.44332
11
-4.63129
21
5.44332
0
LINE
8
BLACK
6
CONTINUOUS
10
-4.63129
20
5.44332
11
-4.63843
21
5.4457
0
LINE
8
BLACK
6
CONTINUOUS
10
-4.63843
20
5.4457
11
-4.63933
21
5.44619
0
LINE
8
BLACK
6
CONTINUOUS
10
-4.63933
20
5.44619
11
-4.63943
21
5.44634
0
LINE
8
BLACK
6
CONTINUOUS
10
-4.63943
20
5.44634
11
-4.63959
21
5.44641
0
LINE
8
BLACK
6
CONTINUOUS
10
-4.63959
20
5.44641
11
-4.64435
21
5.45118
0
LINE
8
BLACK
6
CONTINUOUS
10
-4.64435
20
5.45118
11
-4.64485
21
5.4519
0
LINE
8
BLACK
6
CONTINUOUS
10
-4.64485
20
5.4519
11
-4.6449
21
5.45194
0
LINE
8
BLACK
6
CONTINUOUS
10
-4.6449
20
5.45194
11
-4.64728
21
5.45671
0
LINE
8
BLACK
6
CONTINUOUS
10
-4.64728
20
5.45671
11
-4.64743
21
5.45719
0
LINE
8
BLACK
6
CONTINUOUS
10
-4.64743
20
5.45719
11
-4.6475
21
5.45731
0
LINE
8
BLACK
6
CONTINUOUS
10
-4.6475
20
5.45731
11
-4.64989
21
5.46683
0
LINE
8
BLACK
6
CONTINUOUS
10
-4.64989
20
5.46683
11
-4.64993
21
5.46742
0
LINE
8
BLACK
6
CONTINUOUS
10
-4.64993
20
5.46742
11
-4.64997
21
5.46755
0
LINE
8
BLACK
6
CONTINUOUS
10
-4.64997
20
5.46755
11
-4.64997
21
5.47469
0
LINE
8
BLACK
6
CONTINUOUS
10
-4.64997
20
5.47469
11
-4.64987
21
5.47527
0
LINE
8
BLACK
6
CONTINUOUS
10
-4.64987
20
5.47527
11
-4.64989
21
5.47541
0
LINE
8
BLACK
6
CONTINUOUS
10
-4.64989
20
5.47541
11
-4.6475
21
5.48493
0
LINE
8
BLACK
6
CONTINUOUS
10
-4.6475
20
5.48493
11
-4.6473
21
5.4854
0
LINE
8
BLACK
6
CONTINUOUS
10
-4.6473
20
5.4854
11
-4.64728
21
5.48554
0
LINE
8
BLACK
6
CONTINUOUS
10
-4.64728
20
5.48554
11
-4.6449
21
5.4903
0
LINE
8
BLACK
6
CONTINUOUS
10
-4.6449
20
5.4903
11
-4.64437
21
5.49101
0
LINE
8
BLACK
6
CONTINUOUS
10
-4.64437
20
5.49101
11
-4.64435
21
5.49107
0
LINE
8
BLACK
6
CONTINUOUS
10
-4.64435
20
5.49107
11
-4.63959
21
5.49583
0
LINE
8
BLACK
6
CONTINUOUS
10
-4.63959
20
5.49583
11
-4.63875
21
5.49642
0
LINE
8
BLACK
6
CONTINUOUS
10
-4.63875
20
5.49642
11
-4.63857
21
5.49643
0
LINE
8
BLACK
6
CONTINUOUS
10
-4.63857
20
5.49643
11
-4.63843
21
5.49654
0
LINE
8
BLACK
6
CONTINUOUS
10
-4.63843
20
5.49654
11
-4.63129
21
5.49892
0
LINE
8
BLACK
6
CONTINUOUS
10
-4.63129
20
5.49892
11
-4.63041
21
5.49905
0
LINE
8
BLACK
6
CONTINUOUS
10
-4.63041
20
5.49905
11
-4.63035
21
5.49907
0
LINE
8
BLACK
6
CONTINUOUS
10
-4.63035
20
5.49907
11
-4.61845
21
5.49907
0
LINE
8
BLACK
6
CONTINUOUS
10
-4.61845
20
5.49907
11
-4.61807
21
5.49901
0
LINE
8
BLACK
6
CONTINUOUS
10
-4.62988
20
5.49317
11
-4.6359
21
5.49116
0
LINE
8
BLACK
6
CONTINUOUS
10
-4.6359
20
5.49116
11
-4.63983
21
5.48723
0
LINE
8
BLACK
6
CONTINUOUS
10
-4.63983
20
5.48723
11
-4.64185
21
5.48319
0
LINE
8
BLACK
6
CONTINUOUS
10
-4.64185
20
5.48319
11
-4.64407
21
5.47433
0
LINE
8
BLACK
6
CONTINUOUS
10
-4.64407
20
5.47433
11
-4.64407
21
5.46791
0
LINE
8
BLACK
6
CONTINUOUS
10
-4.64407
20
5.46791
11
-4.64185
21
5.45906
0
LINE
8
BLACK
6
CONTINUOUS
10
-4.64185
20
5.45906
11
-4.63983
21
5.45501
0
LINE
8
BLACK
6
CONTINUOUS
10
-4.63983
20
5.45501
11
-4.6359
21
5.45108
0
LINE
8
BLACK
6
CONTINUOUS
10
-4.6359
20
5.45108
11
-4.62988
21
5.44907
0
LINE
8
BLACK
6
CONTINUOUS
10
-4.62988
20
5.44907
11
-4.6214
21
5.44907
0
LINE
8
BLACK
6
CONTINUOUS
10
-4.6214
20
5.44907
11
-4.6214
21
5.49317
0
LINE
8
BLACK
6
CONTINUOUS
10
-4.6214
20
5.49317
11
-4.62988
21
5.49317
0
LINE
8
BLACK
6
CONTINUOUS
10
-4.49889
20
5.47786
11
-4.49947
21
5.47925
0
LINE
8
BLACK
6
CONTINUOUS
10
-4.49947
20
5.47925
11
-4.49947
21
5.51075
0
LINE
8
BLACK
6
CONTINUOUS
10
-4.49947
20
5.51075
11
-4.49889
21
5.51214
0
LINE
8
BLACK
6
CONTINUOUS
10
-4.49889
20
5.51214
11
-4.4975
21
5.51272
0
LINE
8
BLACK
6
CONTINUOUS
10
-4.4975
20
5.51272
11
-4.43451
21
5.51272
0
LINE
8
BLACK
6
CONTINUOUS
10
-4.43451
20
5.51272
11
-4.43312
21
5.51214
0
LINE
8
BLACK
6
CONTINUOUS
10
-4.43312
20
5.51214
11
-4.43254
21
5.51075
0
LINE
8
BLACK
6
CONTINUOUS
10
-4.43254
20
5.51075
11
-4.43254
21
5.47925
0
LINE
8
BLACK
6
CONTINUOUS
10
-4.43254
20
5.47925
11
-4.43312
21
5.47786
0
LINE
8
BLACK
6
CONTINUOUS
10
-4.43312
20
5.47786
11
-4.43451
21
5.47728
0
LINE
8
BLACK
6
CONTINUOUS
10
-4.43451
20
5.47728
11
-4.4975
21
5.47728
0
LINE
8
BLACK
6
CONTINUOUS
10
-4.4975
20
5.47728
11
-4.49889
21
5.47786
0
LINE
8
BLACK
6
CONTINUOUS
10
-4.49553
20
5.50878
11
-4.49553
21
5.48122
0
LINE
8
BLACK
6
CONTINUOUS
10
-4.49553
20
5.48122
11
-4.43648
21
5.48122
0
LINE
8
BLACK
6
CONTINUOUS
10
-4.43648
20
5.48122
11
-4.43648
21
5.50878
0
LINE
8
BLACK
6
CONTINUOUS
10
-4.43648
20
5.50878
11
-4.49553
21
5.50878
0
LINE
8
BLACK
6
CONTINUOUS
10
-4.45355
20
5.50446
11
-4.4532
21
5.50362
0
LINE
8
BLACK
6
CONTINUOUS
10
-4.4532
20
5.50362
11
-4.4532
21
5.48788
0
LINE
8
BLACK
6
CONTINUOUS
10
-4.4532
20
5.48788
11
-4.45355
21
5.48704
0
LINE
8
BLACK
6
CONTINUOUS
10
-4.45355
20
5.48704
11
-4.45438
21
5.48669
0
LINE
8
BLACK
6
CONTINUOUS
10
-4.45438
20
5.48669
11
-4.45522
21
5.48704
0
LINE
8
BLACK
6
CONTINUOUS
10
-4.45522
20
5.48704
11
-4.45556
21
5.48788
0
LINE
8
BLACK
6
CONTINUOUS
10
-4.45556
20
5.48788
11
-4.45556
21
5.49419
0
LINE
8
BLACK
6
CONTINUOUS
10
-4.45556
20
5.49419
11
-4.45751
21
5.49419
0
LINE
8
BLACK
6
CONTINUOUS
10
-4.45751
20
5.49419
11
-4.46241
21
5.4872
0
LINE
8
BLACK
6
CONTINUOUS
10
-4.46241
20
5.4872
11
-4.46317
21
5.48671
0
LINE
8
BLACK
6
CONTINUOUS
10
-4.46317
20
5.48671
11
-4.46406
21
5.48691
0
LINE
8
BLACK
6
CONTINUOUS
10
-4.46406
20
5.48691
11
-4.46454
21
5.48767
0
LINE
8
BLACK
6
CONTINUOUS
10
-4.46454
20
5.48767
11
-4.46435
21
5.48855
0
LINE
8
BLACK
6
CONTINUOUS
10
-4.46435
20
5.48855
11
-4.46039
21
5.4942
0
LINE
8
BLACK
6
CONTINUOUS
10
-4.46039
20
5.4942
11
-4.46063
21
5.4943
0
LINE
8
BLACK
6
CONTINUOUS
10
-4.46063
20
5.4943
11
-4.46091
21
5.49432
0
LINE
8
BLACK
6
CONTINUOUS
10
-4.46091
20
5.49432
11
-4.46241
21
5.49507
0
LINE
8
BLACK
6
CONTINUOUS
10
-4.46241
20
5.49507
11
-4.46254
21
5.49522
0
LINE
8
BLACK
6
CONTINUOUS
10
-4.46254
20
5.49522
11
-4.46271
21
5.49529
0
LINE
8
BLACK
6
CONTINUOUS
10
-4.46271
20
5.49529
11
-4.46346
21
5.49604
0
LINE
8
BLACK
6
CONTINUOUS
10
-4.46346
20
5.49604
11
-4.46354
21
5.49622
0
LINE
8
BLACK
6
CONTINUOUS
10
-4.46354
20
5.49622
11
-4.46369
21
5.49635
0
LINE
8
BLACK
6
CONTINUOUS
10
-4.46369
20
5.49635
11
-4.46444
21
5.49785
0
LINE
8
BLACK
6
CONTINUOUS
10
-4.46444
20
5.49785
11
-4.46446
21
5.49812
0
LINE
8
BLACK
6
CONTINUOUS
10
-4.46446
20
5.49812
11
-4.46456
21
5.49837
0
LINE
8
BLACK
6
CONTINUOUS
10
-4.46456
20
5.49837
11
-4.46456
21
5.50062
0
LINE
8
BLACK
6
CONTINUOUS
10
-4.46456
20
5.50062
11
-4.46446
21
5.50088
0
LINE
8
BLACK
6
CONTINUOUS
10
-4.46446
20
5.50088
11
-4.46444
21
5.50115
0
LINE
8
BLACK
6
CONTINUOUS
10
-4.46444
20
5.50115
11
-4.46369
21
5.50265
0
LINE
8
BLACK
6
CONTINUOUS
10
-4.46369
20
5.50265
11
-4.46354
21
5.50278
0
LINE
8
BLACK
6
CONTINUOUS
10
-4.46354
20
5.50278
11
-4.46346
21
5.50296
0
LINE
8
BLACK
6
CONTINUOUS
10
-4.46346
20
5.50296
11
-4.46271
21
5.50371
0
LINE
8
BLACK
6
CONTINUOUS
10
-4.46271
20
5.50371
11
-4.46254
21
5.50378
0
LINE
8
BLACK
6
CONTINUOUS
10
-4.46254
20
5.50378
11
-4.46241
21
5.50393
0
LINE
8
BLACK
6
CONTINUOUS
10
-4.46241
20
5.50393
11
-4.46091
21
5.50468
0
LINE
8
BLACK
6
CONTINUOUS
10
-4.46091
20
5.50468
11
-4.46063
21
5.5047
0
LINE
8
BLACK
6
CONTINUOUS
10
-4.46063
20
5.5047
11
-4.46038
21
5.50481
0
LINE
8
BLACK
6
CONTINUOUS
10
-4.46038
20
5.50481
11
-4.45438
21
5.50481
0
LINE
8
BLACK
6
CONTINUOUS
10
-4.45438
20
5.50481
11
-4.45355
21
5.50446
0
LINE
8
BLACK
6
CONTINUOUS
10
-4.4601
20
5.50244
11
-4.46118
21
5.5019
0
LINE
8
BLACK
6
CONTINUOUS
10
-4.46118
20
5.5019
11
-4.46166
21
5.50142
0
LINE
8
BLACK
6
CONTINUOUS
10
-4.46166
20
5.50142
11
-4.4622
21
5.50035
0
LINE
8
BLACK
6
CONTINUOUS
10
-4.4622
20
5.50035
11
-4.4622
21
5.49865
0
LINE
8
BLACK
6
CONTINUOUS
10
-4.4622
20
5.49865
11
-4.46166
21
5.49757
0
LINE
8
BLACK
6
CONTINUOUS
10
-4.46166
20
5.49757
11
-4.46118
21
5.4971
0
LINE
8
BLACK
6
CONTINUOUS
10
-4.46118
20
5.4971
11
-4.4601
21
5.49656
0
LINE
8
BLACK
6
CONTINUOUS
10
-4.4601
20
5.49656
11
-4.45556
21
5.49656
0
LINE
8
BLACK
6
CONTINUOUS
10
-4.45556
20
5.49656
11
-4.45556
21
5.50244
0
LINE
8
BLACK
6
CONTINUOUS
10
-4.45556
20
5.50244
11
-4.4601
21
5.50244
0
LINE
8
BLACK
6
CONTINUOUS
10
-4.4726
20
5.50543
11
-4.47201
21
5.50475
0
LINE
8
BLACK
6
CONTINUOUS
10
-4.47201
20
5.50475
11
-4.46826
21
5.4935
0
LINE
8
BLACK
6
CONTINUOUS
10
-4.46826
20
5.4935
11
-4.46827
21
5.4933
0
LINE
8
BLACK
6
CONTINUOUS
10
-4.46827
20
5.4933
11
-4.4682
21
5.49313
0
LINE
8
BLACK
6
CONTINUOUS
10
-4.4682
20
5.49313
11
-4.4683
21
5.49287
0
LINE
8
BLACK
6
CONTINUOUS
10
-4.4683
20
5.49287
11
-4.46832
21
5.4926
0
LINE
8
BLACK
6
CONTINUOUS
10
-4.46832
20
5.4926
11
-4.46847
21
5.49247
0
LINE
8
BLACK
6
CONTINUOUS
10
-4.46847
20
5.49247
11
-4.46854
21
5.49229
0
LINE
8
BLACK
6
CONTINUOUS
10
-4.46854
20
5.49229
11
-4.4688
21
5.49218
0
LINE
8
BLACK
6
CONTINUOUS
10
-4.4688
20
5.49218
11
-4.46901
21
5.492
0
LINE
8
BLACK
6
CONTINUOUS
10
-4.46901
20
5.492
11
-4.4692
21
5.49202
0
LINE
8
BLACK
6
CONTINUOUS
10
-4.4692
20
5.49202
11
-4.46938
21
5.49194
0
LINE
8
BLACK
6
CONTINUOUS
10
-4.46938
20
5.49194
11
-4.4757
21
5.49194
0
LINE
8
BLACK
6
CONTINUOUS
10
-4.4757
20
5.49194
11
-4.4757
21
5.48788
0
LINE
8
BLACK
6
CONTINUOUS
10
-4.4757
20
5.48788
11
-4.47604
21
5.48704
0
LINE
8
BLACK
6
CONTINUOUS
10
-4.47604
20
5.48704
11
-4.47688
21
5.48669
0
LINE
8
BLACK
6
CONTINUOUS
10
-4.47688
20
5.48669
11
-4.47771
21
5.48704
0
LINE
8
BLACK
6
CONTINUOUS
10
-4.47771
20
5.48704
11
-4.47806
21
5.48788
0
LINE
8
BLACK
6
CONTINUOUS
10
-4.47806
20
5.48788
11
-4.47806
21
5.49194
0
LINE
8
BLACK
6
CONTINUOUS
10
-4.47806
20
5.49194
11
-4.47913
21
5.49194
0
LINE
8
BLACK
6
CONTINUOUS
10
-4.47913
20
5.49194
11
-4.47996
21
5.49229
0
LINE
8
BLACK
6
CONTINUOUS
10
-4.47996
20
5.49229
11
-4.48031
21
5.49313
0
LINE
8
BLACK
6
CONTINUOUS
10
-4.48031
20
5.49313
11
-4.47996
21
5.49396
0
LINE
8
BLACK
6
CONTINUOUS
10
-4.47996
20
5.49396
11
-4.47913
21
5.49431
0
LINE
8
BLACK
6
CONTINUOUS
10
-4.47913
20
5.49431
11
-4.47806
21
5.49431
0
LINE
8
BLACK
6
CONTINUOUS
10
-4.47806
20
5.49431
11
-4.47806
21
5.49837
0
LINE
8
BLACK
6
CONTINUOUS
10
-4.47806
20
5.49837
11
-4.47771
21
5.49921
0
LINE
8
BLACK
6
CONTINUOUS
10
-4.47771
20
5.49921
11
-4.47688
21
5.49956
0
LINE
8
BLACK
6
CONTINUOUS
10
-4.47688
20
5.49956
11
-4.47604
21
5.49921
0
LINE
8
BLACK
6
CONTINUOUS
10
-4.47604
20
5.49921
11
-4.4757
21
5.49837
0
LINE
8
BLACK
6
CONTINUOUS
10
-4.4757
20
5.49837
11
-4.4757
21
5.49431
0
LINE
8
BLACK
6
CONTINUOUS
10
-4.4757
20
5.49431
11
-4.47102
21
5.49431
0
LINE
8
BLACK
6
CONTINUOUS
10
-4.47102
20
5.49431
11
-4.47425
21
5.504
0
LINE
8
BLACK
6
CONTINUOUS
10
-4.47425
20
5.504
11
-4.47418
21
5.5049
0
LINE
8
BLACK
6
CONTINUOUS
10
-4.47418
20
5.5049
11
-4.4735
21
5.50549
0
LINE
8
BLACK
6
CONTINUOUS
10
-4.4735
20
5.50549
11
-4.4726
21
5.50543
0
LINE
8
BLACK
6
CONTINUOUS
10
-3.99102
20
5.54107
11
-3.99089
21
5.54095
0
LINE
8
BLACK
6
CONTINUOUS
10
-3.99089
20
5.54095
11
-3.99071
21
5.54093
0
LINE
8
BLACK
6
CONTINUOUS
10
-3.99071
20
5.54093
11
-3.98696
21
5.53906
0
LINE
8
BLACK
6
CONTINUOUS
10
-3.98696
20
5.53906
11
-3.98625
21
5.53853
0
LINE
8
BLACK
6
CONTINUOUS
10
-3.98625
20
5.53853
11
-3.98619
21
5.53851
0
LINE
8
BLACK
6
CONTINUOUS
10
-3.98619
20
5.53851
11
-3.98432
21
5.53663
0
LINE
8
BLACK
6
CONTINUOUS
10
-3.98432
20
5.53663
11
-3.98381
21
5.53591
0
LINE
8
BLACK
6
CONTINUOUS
10
-3.98381
20
5.53591
11
-3.98377
21
5.53586
0
LINE
8
BLACK
6
CONTINUOUS
10
-3.98377
20
5.53586
11
-3.98189
21
5.53211
0
LINE
8
BLACK
6
CONTINUOUS
10
-3.98189
20
5.53211
11
-3.9816
21
5.53113
0
LINE
8
BLACK
6
CONTINUOUS
10
-3.9816
20
5.53113
11
-3.98164
21
5.53096
0
LINE
8
BLACK
6
CONTINUOUS
10
-3.98164
20
5.53096
11
-3.98158
21
5.53079
0
LINE
8
BLACK
6
CONTINUOUS
10
-3.98158
20
5.53079
11
-3.98158
21
5.52704
0
LINE
8
BLACK
6
CONTINUOUS
10
-3.98158
20
5.52704
11
-3.98176
21
5.52603
0
LINE
8
BLACK
6
CONTINUOUS
10
-3.98176
20
5.52603
11
-3.98187
21
5.5259
0
LINE
8
BLACK
6
CONTINUOUS
10
-3.98187
20
5.5259
11
-3.98189
21
5.52572
0
LINE
8
BLACK
6
CONTINUOUS
10
-3.98189
20
5.52572
11
-3.98377
21
5.52197
0
LINE
8
BLACK
6
CONTINUOUS
10
-3.98377
20
5.52197
11
-3.98429
21
5.52126
0
LINE
8
BLACK
6
CONTINUOUS
10
-3.98429
20
5.52126
11
-3.98432
21
5.52121
0
LINE
8
BLACK
6
CONTINUOUS
10
-3.98432
20
5.52121
11
-3.98619
21
5.51933
0
LINE
8
BLACK
6
CONTINUOUS
10
-3.98619
20
5.51933
11
-3.98692
21
5.51882
0
LINE
8
BLACK
6
CONTINUOUS
10
-3.98692
20
5.51882
11
-3.98696
21
5.51878
0
LINE
8
BLACK
6
CONTINUOUS
10
-3.98696
20
5.51878
11
-3.99071
21
5.5169
0
LINE
8
BLACK
6
CONTINUOUS
10
-3.99071
20
5.5169
11
-3.9912
21
5.51676
0
LINE
8
BLACK
6
CONTINUOUS
10
-3.9912
20
5.51676
11
-3.99132
21
5.51668
0
LINE
8
BLACK
6
CONTINUOUS
10
-3.99132
20
5.51668
11
-3.9985
21
5.51488
0
LINE
8
BLACK
6
CONTINUOUS
10
-3.9985
20
5.51488
11
-4.00153
21
5.51337
0
LINE
8
BLACK
6
CONTINUOUS
10
-4.00153
20
5.51337
11
-4.00273
21
5.51217
0
LINE
8
BLACK
6
CONTINUOUS
10
-4.00273
20
5.51217
11
-4.00408
21
5.50947
0
LINE
8
BLACK
6
CONTINUOUS
10
-4.00408
20
5.50947
11
-4.00408
21
5.50712
0
LINE
8
BLACK
6
CONTINUOUS
10
-4.00408
20
5.50712
11
-4.00273
21
5.50442
0
LINE
8
BLACK
6
CONTINUOUS
10
-4.00273
20
5.50442
11
-4.00153
21
5.50322
0
LINE
8
BLACK
6
CONTINUOUS
10
-4.00153
20
5.50322
11
-3.99883
21
5.50187
0
LINE
8
BLACK
6
CONTINUOUS
10
-3.99883
20
5.50187
11
-3.99064
21
5.50187
0
LINE
8
BLACK
6
CONTINUOUS
10
-3.99064
20
5.50187
11
-3.98547
21
5.5036
0
LINE
8
BLACK
6
CONTINUOUS
10
-3.98547
20
5.5036
11
-3.98445
21
5.50375
0
LINE
8
BLACK
6
CONTINUOUS
10
-3.98445
20
5.50375
11
-3.98257
21
5.50301
0
LINE
8
BLACK
6
CONTINUOUS
10
-3.98257
20
5.50301
11
-3.98161
21
5.50123
0
LINE
8
BLACK
6
CONTINUOUS
10
-3.98161
20
5.50123
11
-3.98202
21
5.49925
0
LINE
8
BLACK
6
CONTINUOUS
10
-3.98202
20
5.49925
11
-3.9836
21
5.498
0
LINE
8
BLACK
6
CONTINUOUS
10
-3.9836
20
5.498
11
-3.98922
21
5.49612
0
LINE
8
BLACK
6
CONTINUOUS
10
-3.98922
20
5.49612
11
-3.9901
21
5.49599
0
LINE
8
BLACK
6
CONTINUOUS
10
-3.9901
20
5.49599
11
-3.99016
21
5.49597
0
LINE
8
BLACK
6
CONTINUOUS
10
-3.99016
20
5.49597
11
-3.99953
21
5.49597
0
LINE
8
BLACK
6
CONTINUOUS
10
-3.99953
20
5.49597
11
-4.00054
21
5.49615
0
LINE
8
BLACK
6
CONTINUOUS
10
-4.00054
20
5.49615
11
-4.00068
21
5.49626
0
LINE
8
BLACK
6
CONTINUOUS
10
-4.00068
20
5.49626
11
-4.00085
21
5.49628
0
LINE
8
BLACK
6
CONTINUOUS
10
-4.00085
20
5.49628
11
-4.0046
21
5.49816
0
LINE
8
BLACK
6
CONTINUOUS
10
-4.0046
20
5.49816
11
-4.00531
21
5.49868
0
LINE
8
BLACK
6
CONTINUOUS
10
-4.00531
20
5.49868
11
-4.00537
21
5.49871
0
LINE
8
BLACK
6
CONTINUOUS
10
-4.00537
20
5.49871
11
-4.00724
21
5.50058
0
LINE
8
BLACK
6
CONTINUOUS
10
-4.00724
20
5.50058
11
-4.00775
21
5.50131
0
LINE
8
BLACK
6
CONTINUOUS
10
-4.00775
20
5.50131
11
-4.0078
21
5.50135
0
LINE
8
BLACK
6
CONTINUOUS
10
-4.0078
20
5.50135
11
-4.00967
21
5.5051
0
LINE
8
BLACK
6
CONTINUOUS
10
-4.00967
20
5.5051
11
-4.00996
21
5.50608
0
LINE
8
BLACK
6
CONTINUOUS
10
-4.00996
20
5.50608
11
-4.00992
21
5.50626
0
LINE
8
BLACK
6
CONTINUOUS
10
-4.00992
20
5.50626
11
-4.00998
21
5.50642
0
LINE
8
BLACK
6
CONTINUOUS
10
-4.00998
20
5.50642
11
-4.00998
21
5.51017
0
LINE
8
BLACK
6
CONTINUOUS
10
-4.00998
20
5.51017
11
-4.00981
21
5.51118
0
LINE
8
BLACK
6
CONTINUOUS
10
-4.00981
20
5.51118
11
-4.00969
21
5.51132
0
LINE
8
BLACK
6
CONTINUOUS
10
-4.00969
20
5.51132
11
-4.00967
21
5.51149
0
LINE
8
BLACK
6
CONTINUOUS
10
-4.00967
20
5.51149
11
-4.0078
21
5.51524
0
LINE
8
BLACK
6
CONTINUOUS
10
-4.0078
20
5.51524
11
-4.00727
21
5.51595
0
LINE
8
BLACK
6
CONTINUOUS
10
-4.00727
20
5.51595
11
-4.00724
21
5.51601
0
LINE
8
BLACK
6
CONTINUOUS
10
-4.00724
20
5.51601
11
-4.00537
21
5.51788
0
LINE
8
BLACK
6
CONTINUOUS
10
-4.00537
20
5.51788
11
-4.00465
21
5.51839
0
LINE
8
BLACK
6
CONTINUOUS
10
-4.00465
20
5.51839
11
-4.0046
21
5.51844
0
LINE
8
BLACK
6
CONTINUOUS
10
-4.0046
20
5.51844
11
-4.00085
21
5.52031
0
LINE
8
BLACK
6
CONTINUOUS
10
-4.00085
20
5.52031
11
-4.00036
21
5.52046
0
LINE
8
BLACK
6
CONTINUOUS
10
-4.00036
20
5.52046
11
-4.00025
21
5.52053
0
LINE
8
BLACK
6
CONTINUOUS
10
-4.00025
20
5.52053
11
-3.99306
21
5.52233
0
LINE
8
BLACK
6
CONTINUOUS
10
-3.99306
20
5.52233
11
-3.99003
21
5.52385
0
LINE
8
BLACK
6
CONTINUOUS
10
-3.99003
20
5.52385
11
-3.98883
21
5.52504
0
LINE
8
BLACK
6
CONTINUOUS
10
-3.98883
20
5.52504
11
-3.98749
21
5.52774
0
LINE
8
BLACK
6
CONTINUOUS
10
-3.98749
20
5.52774
11
-3.98749
21
5.5301
0
LINE
8
BLACK
6
CONTINUOUS
10
-3.98749
20
5.5301
11
-3.98883
21
5.53279
0
LINE
8
BLACK
6
CONTINUOUS
10
-3.98883
20
5.53279
11
-3.99003
21
5.53399
0
LINE
8
BLACK
6
CONTINUOUS
10
-3.99003
20
5.53399
11
-3.99273
21
5.53534
0
LINE
8
BLACK
6
CONTINUOUS
10
-3.99273
20
5.53534
11
-4.00093
21
5.53534
0
LINE
8
BLACK
6
CONTINUOUS
10
-4.00093
20
5.53534
11
-4.0061
21
5.53362
0
LINE
8
BLACK
6
CONTINUOUS
10
-4.0061
20
5.53362
11
-4.00711
21
5.53347
0
LINE
8
BLACK
6
CONTINUOUS
10
-4.00711
20
5.53347
11
-4.00899
21
5.53421
0
LINE
8
BLACK
6
CONTINUOUS
10
-4.00899
20
5.53421
11
-4.00995
21
5.53598
0
LINE
8
BLACK
6
CONTINUOUS
10
-4.00995
20
5.53598
11
-4.00955
21
5.53796
0
LINE
8
BLACK
6
CONTINUOUS
10
-4.00955
20
5.53796
11
-4.00796
21
5.53922
0
LINE
8
BLACK
6
CONTINUOUS
10
-4.00796
20
5.53922
11
-4.00234
21
5.54109
0
LINE
8
BLACK
6
CONTINUOUS
10
-4.00234
20
5.54109
11
-4.00147
21
5.54122
0
LINE
8
BLACK
6
CONTINUOUS
10
-4.00147
20
5.54122
11
-4.00141
21
5.54124
0
LINE
8
BLACK
6
CONTINUOUS
10
-4.00141
20
5.54124
11
-3.99203
21
5.54124
0
LINE
8
BLACK
6
CONTINUOUS
10
-3.99203
20
5.54124
11
-3.99102
21
5.54107
0
LINE
8
BLACK
6
CONTINUOUS
10
-3.83556
20
5.54109
11
-3.83549
21
5.54109
0
LINE
8
BLACK
6
CONTINUOUS
10
-3.83549
20
5.54109
11
-3.82987
21
5.53922
0
LINE
8
BLACK
6
CONTINUOUS
10
-3.82987
20
5.53922
11
-3.82897
21
5.53873
0
LINE
8
BLACK
6
CONTINUOUS
10
-3.82897
20
5.53873
11
-3.82887
21
5.53858
0
LINE
8
BLACK
6
CONTINUOUS
10
-3.82887
20
5.53858
11
-3.82871
21
5.53851
0
LINE
8
BLACK
6
CONTINUOUS
10
-3.82871
20
5.53851
11
-3.82496
21
5.53476
0
LINE
8
BLACK
6
CONTINUOUS
10
-3.82496
20
5.53476
11
-3.82446
21
5.53403
0
LINE
8
BLACK
6
CONTINUOUS
10
-3.82446
20
5.53403
11
-3.82441
21
5.53399
0
LINE
8
BLACK
6
CONTINUOUS
10
-3.82441
20
5.53399
11
-3.82254
21
5.53024
0
LINE
8
BLACK
6
CONTINUOUS
10
-3.82254
20
5.53024
11
-3.82239
21
5.52975
0
LINE
8
BLACK
6
CONTINUOUS
10
-3.82239
20
5.52975
11
-3.82231
21
5.52963
0
LINE
8
BLACK
6
CONTINUOUS
10
-3.82231
20
5.52963
11
-3.82044
21
5.52214
0
LINE
8
BLACK
6
CONTINUOUS
10
-3.82044
20
5.52214
11
-3.8204
21
5.52155
0
LINE
8
BLACK
6
CONTINUOUS
10
-3.8204
20
5.52155
11
-3.82035
21
5.52142
0
LINE
8
BLACK
6
CONTINUOUS
10
-3.82035
20
5.52142
11
-3.82035
21
5.51579
0
LINE
8
BLACK
6
CONTINUOUS
10
-3.82035
20
5.51579
11
-3.82045
21
5.51521
0
LINE
8
BLACK
6
CONTINUOUS
10
-3.82045
20
5.51521
11
-3.82044
21
5.51508
0
LINE
8
BLACK
6
CONTINUOUS
10
-3.82044
20
5.51508
11
-3.82231
21
5.50758
0
LINE
8
BLACK
6
CONTINUOUS
10
-3.82231
20
5.50758
11
-3.82252
21
5.50711
0
LINE
8
BLACK
6
CONTINUOUS
10
-3.82252
20
5.50711
11
-3.82254
21
5.50698
0
LINE
8
BLACK
6
CONTINUOUS
10
-3.82254
20
5.50698
11
-3.82441
21
5.50323
0
LINE
8
BLACK
6
CONTINUOUS
10
-3.82441
20
5.50323
11
-3.82494
21
5.50252
0
LINE
8
BLACK
6
CONTINUOUS
10
-3.82494
20
5.50252
11
-3.82496
21
5.50246
0
LINE
8
BLACK
6
CONTINUOUS
10
-3.82496
20
5.50246
11
-3.82871
21
5.49871
0
LINE
8
BLACK
6
CONTINUOUS
10
-3.82871
20
5.49871
11
-3.82955
21
5.49812
0
LINE
8
BLACK
6
CONTINUOUS
10
-3.82955
20
5.49812
11
-3.82973
21
5.49811
0
LINE
8
BLACK
6
CONTINUOUS
10
-3.82973
20
5.49811
11
-3.82987
21
5.498
0
LINE
8
BLACK
6
CONTINUOUS
10
-3.82987
20
5.498
11
-3.83549
21
5.49612
0
LINE
8
BLACK
6
CONTINUOUS
10
-3.83549
20
5.49612
11
-3.83637
21
5.49599
0
LINE
8
BLACK
6
CONTINUOUS
10
-3.83637
20
5.49599
11
-3.83643
21
5.49597
0
LINE
8
BLACK
6
CONTINUOUS
10
-3.83643
20
5.49597
11
-3.84018
21
5.49597
0
LINE
8
BLACK
6
CONTINUOUS
10
-3.84018
20
5.49597
11
-3.84105
21
5.49612
0
LINE
8
BLACK
6
CONTINUOUS
10
-3.84105
20
5.49612
11
-3.84111
21
5.49612
0
LINE
8
BLACK
6
CONTINUOUS
10
-3.84111
20
5.49612
11
-3.84673
21
5.498
0
LINE
8
BLACK
6
CONTINUOUS
10
-3.84673
20
5.498
11
-3.84764
21
5.49848
0
LINE
8
BLACK
6
CONTINUOUS
10
-3.84764
20
5.49848
11
-3.84773
21
5.49863
0
LINE
8
BLACK
6
CONTINUOUS
10
-3.84773
20
5.49863
11
-3.84789
21
5.49871
0
LINE
8
BLACK
6
CONTINUOUS
10
-3.84789
20
5.49871
11
-3.84976
21
5.50058
0
LINE
8
BLACK
6
CONTINUOUS
10
-3.84976
20
5.50058
11
-3.85035
21
5.50142
0
LINE
8
BLACK
6
CONTINUOUS
10
-3.85035
20
5.50142
11
-3.85053
21
5.50344
0
LINE
8
BLACK
6
CONTINUOUS
10
-3.85053
20
5.50344
11
-3.84937
21
5.50509
0
LINE
8
BLACK
6
CONTINUOUS
10
-3.84937
20
5.50509
11
-3.84742
21
5.50561
0
LINE
8
BLACK
6
CONTINUOUS
10
-3.84742
20
5.50561
11
-3.84559
21
5.50476
0
LINE
8
BLACK
6
CONTINUOUS
10
-3.84559
20
5.50476
11
-3.84421
21
5.50338
0
LINE
8
BLACK
6
CONTINUOUS
10
-3.84421
20
5.50338
11
-3.8397
21
5.50187
0
LINE
8
BLACK
6
CONTINUOUS
10
-3.8397
20
5.50187
11
-3.83691
21
5.50187
0
LINE
8
BLACK
6
CONTINUOUS
10
-3.83691
20
5.50187
11
-3.8324
21
5.50338
0
LINE
8
BLACK
6
CONTINUOUS
10
-3.8324
20
5.50338
11
-3.82948
21
5.5063
0
LINE
8
BLACK
6
CONTINUOUS
10
-3.82948
20
5.5063
11
-3.82796
21
5.50933
0
LINE
8
BLACK
6
CONTINUOUS
10
-3.82796
20
5.50933
11
-3.82626
21
5.51616
0
LINE
8
BLACK
6
CONTINUOUS
10
-3.82626
20
5.51616
11
-3.82626
21
5.52106
0
LINE
8
BLACK
6
CONTINUOUS
10
-3.82626
20
5.52106
11
-3.82796
21
5.52789
0
LINE
8
BLACK
6
CONTINUOUS
10
-3.82796
20
5.52789
11
-3.82948
21
5.53092
0
LINE
8
BLACK
6
CONTINUOUS
10
-3.82948
20
5.53092
11
-3.8324
21
5.53384
0
LINE
8
BLACK
6
CONTINUOUS
10
-3.8324
20
5.53384
11
-3.83691
21
5.53534
0
LINE
8
BLACK
6
CONTINUOUS
10
-3.83691
20
5.53534
11
-3.8397
21
5.53534
0
LINE
8
BLACK
6
CONTINUOUS
10
-3.8397
20
5.53534
11
-3.84421
21
5.53384
0
LINE
8
BLACK
6
CONTINUOUS
10
-3.84421
20
5.53384
11
-3.84559
21
5.53245
0
LINE
8
BLACK
6
CONTINUOUS
10
-3.84559
20
5.53245
11
-3.84643
21
5.53187
0
LINE
8
BLACK
6
CONTINUOUS
10
-3.84643
20
5.53187
11
-3.84844
21
5.53169
0
LINE
8
BLACK
6
CONTINUOUS
10
-3.84844
20
5.53169
11
-3.85009
21
5.53285
0
LINE
8
BLACK
6
CONTINUOUS
10
-3.85009
20
5.53285
11
-3.85062
21
5.5348
0
LINE
8
BLACK
6
CONTINUOUS
10
-3.85062
20
5.5348
11
-3.84976
21
5.53663
0
LINE
8
BLACK
6
CONTINUOUS
10
-3.84976
20
5.53663
11
-3.84789
21
5.53851
0
LINE
8
BLACK
6
CONTINUOUS
10
-3.84789
20
5.53851
11
-3.84705
21
5.53909
0
LINE
8
BLACK
6
CONTINUOUS
10
-3.84705
20
5.53909
11
-3.84687
21
5.53911
0
LINE
8
BLACK
6
CONTINUOUS
10
-3.84687
20
5.53911
11
-3.84673
21
5.53922
0
LINE
8
BLACK
6
CONTINUOUS
10
-3.84673
20
5.53922
11
-3.84111
21
5.54109
0
LINE
8
BLACK
6
CONTINUOUS
10
-3.84111
20
5.54109
11
-3.84024
21
5.54122
0
LINE
8
BLACK
6
CONTINUOUS
10
-3.84024
20
5.54122
11
-3.84018
21
5.54124
0
LINE
8
BLACK
6
CONTINUOUS
10
-3.84018
20
5.54124
11
-3.83643
21
5.54124
0
LINE
8
BLACK
6
CONTINUOUS
10
-3.83643
20
5.54124
11
-3.83556
21
5.54109
0
LINE
8
BLACK
6
CONTINUOUS
10
-4.06039
20
5.54107
11
-4.06025
21
5.54095
0
LINE
8
BLACK
6
CONTINUOUS
10
-4.06025
20
5.54095
11
-4.06008
21
5.54093
0
LINE
8
BLACK
6
CONTINUOUS
10
-4.06008
20
5.54093
11
-4.05633
21
5.53906
0
LINE
8
BLACK
6
CONTINUOUS
10
-4.05633
20
5.53906
11
-4.05562
21
5.53853
0
LINE
8
BLACK
6
CONTINUOUS
10
-4.05562
20
5.53853
11
-4.05556
21
5.53851
0
LINE
8
BLACK
6
CONTINUOUS
10
-4.05556
20
5.53851
11
-4.05369
21
5.53663
0
LINE
8
BLACK
6
CONTINUOUS
10
-4.05369
20
5.53663
11
-4.0531
21
5.53579
0
LINE
8
BLACK
6
CONTINUOUS
10
-4.0531
20
5.53579
11
-4.05292
21
5.53378
0
LINE
8
BLACK
6
CONTINUOUS
10
-4.05292
20
5.53378
11
-4.05408
21
5.53212
0
LINE
8
BLACK
6
CONTINUOUS
10
-4.05408
20
5.53212
11
-4.05603
21
5.5316
0
LINE
8
BLACK
6
CONTINUOUS
10
-4.05603
20
5.5316
11
-4.05786
21
5.53245
0
LINE
8
BLACK
6
CONTINUOUS
10
-4.05786
20
5.53245
11
-4.0594
21
5.53399
0
LINE
8
BLACK
6
CONTINUOUS
10
-4.0594
20
5.53399
11
-4.0621
21
5.53534
0
LINE
8
BLACK
6
CONTINUOUS
10
-4.0621
20
5.53534
11
-4.07008
21
5.53534
0
LINE
8
BLACK
6
CONTINUOUS
10
-4.07008
20
5.53534
11
-4.07277
21
5.53399
0
LINE
8
BLACK
6
CONTINUOUS
10
-4.07277
20
5.53399
11
-4.07397
21
5.53279
0
LINE
8
BLACK
6
CONTINUOUS
10
-4.07397
20
5.53279
11
-4.07532
21
5.5301
0
LINE
8
BLACK
6
CONTINUOUS
10
-4.07532
20
5.5301
11
-4.07532
21
5.52752
0
LINE
8
BLACK
6
CONTINUOUS
10
-4.07532
20
5.52752
11
-4.07382
21
5.52301
0
LINE
8
BLACK
6
CONTINUOUS
10
-4.07382
20
5.52301
11
-4.05181
21
5.50101
0
LINE
8
BLACK
6
CONTINUOUS
10
-4.05181
20
5.50101
11
-4.05144
21
5.50048
0
LINE
8
BLACK
6
CONTINUOUS
10
-4.05144
20
5.50048
11
-4.05134
21
5.5004
0
LINE
8
BLACK
6
CONTINUOUS
10
-4.05134
20
5.5004
11
-4.05133
21
5.50032
0
LINE
8
BLACK
6
CONTINUOUS
10
-4.05133
20
5.50032
11
-4.05122
21
5.50017
0
LINE
8
BLACK
6
CONTINUOUS
10
-4.05122
20
5.50017
11
-4.05115
21
5.49928
0
LINE
8
BLACK
6
CONTINUOUS
10
-4.05115
20
5.49928
11
-4.05099
21
5.49841
0
LINE
8
BLACK
6
CONTINUOUS
10
-4.05099
20
5.49841
11
-4.05106
21
5.49829
0
LINE
8
BLACK
6
CONTINUOUS
10
-4.05106
20
5.49829
11
-4.05105
21
5.49816
0
LINE
8
BLACK
6
CONTINUOUS
10
-4.05105
20
5.49816
11
-4.05156
21
5.49743
0
LINE
8
BLACK
6
CONTINUOUS
10
-4.05156
20
5.49743
11
-4.052
21
5.49666
0
LINE
8
BLACK
6
CONTINUOUS
10
-4.052
20
5.49666
11
-4.05213
21
5.49661
0
LINE
8
BLACK
6
CONTINUOUS
10
-4.05213
20
5.49661
11
-4.05221
21
5.4965
0
LINE
8
BLACK
6
CONTINUOUS
10
-4.05221
20
5.4965
11
-4.05306
21
5.49627
0
LINE
8
BLACK
6
CONTINUOUS
10
-4.05306
20
5.49627
11
-4.0539
21
5.49597
0
LINE
8
BLACK
6
CONTINUOUS
10
-4.0539
20
5.49597
11
-4.07827
21
5.49597
0
LINE
8
BLACK
6
CONTINUOUS
10
-4.07827
20
5.49597
11
-4.07928
21
5.49615
0
LINE
8
BLACK
6
CONTINUOUS
10
-4.07928
20
5.49615
11
-4.08083
21
5.49745
0
LINE
8
BLACK
6
CONTINUOUS
10
-4.08083
20
5.49745
11
-4.08118
21
5.49943
0
LINE
8
BLACK
6
CONTINUOUS
10
-4.08118
20
5.49943
11
-4.08017
21
5.50118
0
LINE
8
BLACK
6
CONTINUOUS
10
-4.08017
20
5.50118
11
-4.07827
21
5.50187
0
LINE
8
BLACK
6
CONTINUOUS
10
-4.07827
20
5.50187
11
-4.06103
21
5.50187
0
LINE
8
BLACK
6
CONTINUOUS
10
-4.06103
20
5.50187
11
-4.07848
21
5.51933
0
LINE
8
BLACK
6
CONTINUOUS
10
-4.07848
20
5.51933
11
-4.07907
21
5.52017
0
LINE
8
BLACK
6
CONTINUOUS
10
-4.07907
20
5.52017
11
-4.07909
21
5.52035
0
LINE
8
BLACK
6
CONTINUOUS
10
-4.07909
20
5.52035
11
-4.0792
21
5.52049
0
LINE
8
BLACK
6
CONTINUOUS
10
-4.0792
20
5.52049
11
-4.08107
21
5.52611
0
LINE
8
BLACK
6
CONTINUOUS
10
-4.08107
20
5.52611
11
-4.0812
21
5.52698
0
LINE
8
BLACK
6
CONTINUOUS
10
-4.0812
20
5.52698
11
-4.08122
21
5.52704
0
LINE
8
BLACK
6
CONTINUOUS
10
-4.08122
20
5.52704
11
-4.08122
21
5.53079
0
LINE
8
BLACK
6
CONTINUOUS
10
-4.08122
20
5.53079
11
-4.08105
21
5.5318
0
LINE
8
BLACK
6
CONTINUOUS
10
-4.08105
20
5.5318
11
-4.08093
21
5.53194
0
LINE
8
BLACK
6
CONTINUOUS
10
-4.08093
20
5.53194
11
-4.08091
21
5.53211
0
LINE
8
BLACK
6
CONTINUOUS
10
-4.08091
20
5.53211
11
-4.07904
21
5.53586
0
LINE
8
BLACK
6
CONTINUOUS
10
-4.07904
20
5.53586
11
-4.07851
21
5.53657
0
LINE
8
BLACK
6
CONTINUOUS
10
-4.07851
20
5.53657
11
-4.07848
21
5.53663
0
LINE
8
BLACK
6
CONTINUOUS
10
-4.07848
20
5.53663
11
-4.07661
21
5.53851
0
LINE
8
BLACK
6
CONTINUOUS
10
-4.07661
20
5.53851
11
-4.07589
21
5.53901
0
LINE
8
BLACK
6
CONTINUOUS
10
-4.07589
20
5.53901
11
-4.07584
21
5.53906
0
LINE
8
BLACK
6
CONTINUOUS
10
-4.07584
20
5.53906
11
-4.07209
21
5.54093
0
LINE
8
BLACK
6
CONTINUOUS
10
-4.07209
20
5.54093
11
-4.07111
21
5.54123
0
LINE
8
BLACK
6
CONTINUOUS
10
-4.07111
20
5.54123
11
-4.07094
21
5.54118
0
LINE
8
BLACK
6
CONTINUOUS
10
-4.07094
20
5.54118
11
-4.07077
21
5.54124
0
LINE
8
BLACK
6
CONTINUOUS
10
-4.07077
20
5.54124
11
-4.0614
21
5.54124
0
LINE
8
BLACK
6
CONTINUOUS
10
-4.0614
20
5.54124
11
-4.06039
21
5.54107
0
LINE
8
BLACK
6
CONTINUOUS
10
-3.87157
20
5.54103
11
-3.87064
21
5.54089
0
LINE
8
BLACK
6
CONTINUOUS
10
-3.87064
20
5.54089
11
-3.87058
21
5.54082
0
LINE
8
BLACK
6
CONTINUOUS
10
-3.87058
20
5.54082
11
-3.8705
21
5.54081
0
LINE
8
BLACK
6
CONTINUOUS
10
-3.8705
20
5.54081
11
-3.86992
21
5.54008
0
LINE
8
BLACK
6
CONTINUOUS
10
-3.86992
20
5.54008
11
-3.8693
21
5.53938
0
LINE
8
BLACK
6
CONTINUOUS
10
-3.8693
20
5.53938
11
-3.8693
21
5.53929
0
LINE
8
BLACK
6
CONTINUOUS
10
-3.8693
20
5.53929
11
-3.86925
21
5.53923
0
LINE
8
BLACK
6
CONTINUOUS
10
-3.86925
20
5.53923
11
-3.85612
21
5.49986
0
LINE
8
BLACK
6
CONTINUOUS
10
-3.85612
20
5.49986
11
-3.85597
21
5.49884
0
LINE
8
BLACK
6
CONTINUOUS
10
-3.85597
20
5.49884
11
-3.85671
21
5.49696
0
LINE
8
BLACK
6
CONTINUOUS
10
-3.85671
20
5.49696
11
-3.85849
21
5.496
0
LINE
8
BLACK
6
CONTINUOUS
10
-3.85849
20
5.496
11
-3.86047
21
5.49641
0
LINE
8
BLACK
6
CONTINUOUS
10
-3.86047
20
5.49641
11
-3.86173
21
5.49799
0
LINE
8
BLACK
6
CONTINUOUS
10
-3.86173
20
5.49799
11
-3.8648
21
5.50722
0
LINE
8
BLACK
6
CONTINUOUS
10
-3.8648
20
5.50722
11
-3.87929
21
5.50722
0
LINE
8
BLACK
6
CONTINUOUS
10
-3.87929
20
5.50722
11
-3.88237
21
5.49799
0
LINE
8
BLACK
6
CONTINUOUS
10
-3.88237
20
5.49799
11
-3.88286
21
5.49709
0
LINE
8
BLACK
6
CONTINUOUS
10
-3.88286
20
5.49709
11
-3.88458
21
5.49603
0
LINE
8
BLACK
6
CONTINUOUS
10
-3.88458
20
5.49603
11
-3.88658
21
5.49633
0
LINE
8
BLACK
6
CONTINUOUS
10
-3.88658
20
5.49633
11
-3.88792
21
5.49784
0
LINE
8
BLACK
6
CONTINUOUS
10
-3.88792
20
5.49784
11
-3.88797
21
5.49986
0
LINE
8
BLACK
6
CONTINUOUS
10
-3.88797
20
5.49986
11
-3.87485
21
5.53923
0
LINE
8
BLACK
6
CONTINUOUS
10
-3.87485
20
5.53923
11
-3.87436
21
5.54013
0
LINE
8
BLACK
6
CONTINUOUS
10
-3.87436
20
5.54013
11
-3.87429
21
5.54017
0
LINE
8
BLACK
6
CONTINUOUS
10
-3.87429
20
5.54017
11
-3.87426
21
5.54025
0
LINE
8
BLACK
6
CONTINUOUS
10
-3.87426
20
5.54025
11
-3.87344
21
5.5407
0
LINE
8
BLACK
6
CONTINUOUS
10
-3.87344
20
5.5407
11
-3.87264
21
5.54118
0
LINE
8
BLACK
6
CONTINUOUS
10
-3.87264
20
5.54118
11
-3.87256
21
5.54117
0
LINE
8
BLACK
6
CONTINUOUS
10
-3.87256
20
5.54117
11
-3.87248
21
5.54121
0
LINE
8
BLACK
6
CONTINUOUS
10
-3.87248
20
5.54121
11
-3.87157
21
5.54103
0
LINE
8
BLACK
6
CONTINUOUS
10
-3.87732
20
5.51312
11
-3.86677
21
5.51312
0
LINE
8
BLACK
6
CONTINUOUS
10
-3.86677
20
5.51312
11
-3.87205
21
5.52895
0
LINE
8
BLACK
6
CONTINUOUS
10
-3.87205
20
5.52895
11
-3.87732
21
5.51312
0
LINE
8
BLACK
6
CONTINUOUS
10
-3.89791
20
5.54118
11
-3.89778
21
5.5412
0
LINE
8
BLACK
6
CONTINUOUS
10
-3.89778
20
5.5412
11
-3.89767
21
5.54113
0
LINE
8
BLACK
6
CONTINUOUS
10
-3.89767
20
5.54113
11
-3.89728
21
5.54107
0
LINE
8
BLACK
6
CONTINUOUS
10
-3.89728
20
5.54107
11
-3.8967
21
5.54057
0
LINE
8
BLACK
6
CONTINUOUS
10
-3.8967
20
5.54057
11
-3.89603
21
5.54019
0
LINE
8
BLACK
6
CONTINUOUS
10
-3.89603
20
5.54019
11
-3.89594
21
5.53994
0
LINE
8
BLACK
6
CONTINUOUS
10
-3.89594
20
5.53994
11
-3.89574
21
5.53977
0
LINE
8
BLACK
6
CONTINUOUS
10
-3.89574
20
5.53977
11
-3.8956
21
5.53901
0
LINE
8
BLACK
6
CONTINUOUS
10
-3.8956
20
5.53901
11
-3.89534
21
5.53829
0
LINE
8
BLACK
6
CONTINUOUS
10
-3.89534
20
5.53829
11
-3.89534
21
5.49892
0
LINE
8
BLACK
6
CONTINUOUS
10
-3.89534
20
5.49892
11
-3.89552
21
5.49791
0
LINE
8
BLACK
6
CONTINUOUS
10
-3.89552
20
5.49791
11
-3.89682
21
5.49636
0
LINE
8
BLACK
6
CONTINUOUS
10
-3.89682
20
5.49636
11
-3.89881
21
5.49601
0
LINE
8
BLACK
6
CONTINUOUS
10
-3.89881
20
5.49601
11
-3.90056
21
5.49702
0
LINE
8
BLACK
6
CONTINUOUS
10
-3.90056
20
5.49702
11
-3.90125
21
5.49892
0
LINE
8
BLACK
6
CONTINUOUS
10
-3.90125
20
5.49892
11
-3.90125
21
5.51472
0
LINE
8
BLACK
6
CONTINUOUS
10
-3.90125
20
5.51472
11
-3.91329
21
5.51472
0
LINE
8
BLACK
6
CONTINUOUS
10
-3.91329
20
5.51472
11
-3.9143
21
5.51489
0
LINE
8
BLACK
6
CONTINUOUS
10
-3.9143
20
5.51489
11
-3.91444
21
5.51501
0
LINE
8
BLACK
6
CONTINUOUS
10
-3.91444
20
5.51501
11
-3.91461
21
5.51503
0
LINE
8
BLACK
6
CONTINUOUS
10
-3.91461
20
5.51503
11
-3.91836
21
5.5169
0
LINE
8
BLACK
6
CONTINUOUS
10
-3.91836
20
5.5169
11
-3.91907
21
5.51743
0
LINE
8
BLACK
6
CONTINUOUS
10
-3.91907
20
5.51743
11
-3.91913
21
5.51746
0
LINE
8
BLACK
6
CONTINUOUS
10
-3.91913
20
5.51746
11
-3.921
21
5.51933
0
LINE
8
BLACK
6
CONTINUOUS
10
-3.921
20
5.51933
11
-3.92151
21
5.52005
0
LINE
8
BLACK
6
CONTINUOUS
10
-3.92151
20
5.52005
11
-3.92156
21
5.5201
0
LINE
8
BLACK
6
CONTINUOUS
10
-3.92156
20
5.5201
11
-3.92343
21
5.52385
0
LINE
8
BLACK
6
CONTINUOUS
10
-3.92343
20
5.52385
11
-3.92372
21
5.52483
0
LINE
8
BLACK
6
CONTINUOUS
10
-3.92372
20
5.52483
11
-3.92368
21
5.525
0
LINE
8
BLACK
6
CONTINUOUS
10
-3.92368
20
5.525
11
-3.92374
21
5.52517
0
LINE
8
BLACK
6
CONTINUOUS
10
-3.92374
20
5.52517
11
-3.92374
21
5.53079
0
LINE
8
BLACK
6
CONTINUOUS
10
-3.92374
20
5.53079
11
-3.92357
21
5.5318
0
LINE
8
BLACK
6
CONTINUOUS
10
-3.92357
20
5.5318
11
-3.92345
21
5.53194
0
LINE
8
BLACK
6
CONTINUOUS
10
-3.92345
20
5.53194
11
-3.92343
21
5.53211
0
LINE
8
BLACK
6
CONTINUOUS
10
-3.92343
20
5.53211
11
-3.92156
21
5.53586
0
LINE
8
BLACK
6
CONTINUOUS
10
-3.92156
20
5.53586
11
-3.92103
21
5.53657
0
LINE
8
BLACK
6
CONTINUOUS
10
-3.92103
20
5.53657
11
-3.921
21
5.53663
0
LINE
8
BLACK
6
CONTINUOUS
10
-3.921
20
5.53663
11
-3.91913
21
5.53851
0
LINE
8
BLACK
6
CONTINUOUS
10
-3.91913
20
5.53851
11
-3.91841
21
5.53901
0
LINE
8
BLACK
6
CONTINUOUS
10
-3.91841
20
5.53901
11
-3.91836
21
5.53906
0
LINE
8
BLACK
6
CONTINUOUS
10
-3.91836
20
5.53906
11
-3.91461
21
5.54093
0
LINE
8
BLACK
6
CONTINUOUS
10
-3.91461
20
5.54093
11
-3.91363
21
5.54123
0
LINE
8
BLACK
6
CONTINUOUS
10
-3.91363
20
5.54123
11
-3.91346
21
5.54118
0
LINE
8
BLACK
6
CONTINUOUS
10
-3.91346
20
5.54118
11
-3.91329
21
5.54124
0
LINE
8
BLACK
6
CONTINUOUS
10
-3.91329
20
5.54124
11
-3.89829
21
5.54124
0
LINE
8
BLACK
6
CONTINUOUS
10
-3.89829
20
5.54124
11
-3.89791
21
5.54118
0
LINE
8
BLACK
6
CONTINUOUS
10
-3.9126
20
5.53534
11
-3.91529
21
5.53399
0
LINE
8
BLACK
6
CONTINUOUS
10
-3.91529
20
5.53399
11
-3.91649
21
5.53279
0
LINE
8
BLACK
6
CONTINUOUS
10
-3.91649
20
5.53279
11
-3.91784
21
5.5301
0
LINE
8
BLACK
6
CONTINUOUS
10
-3.91784
20
5.5301
11
-3.91784
21
5.52587
0
LINE
8
BLACK
6
CONTINUOUS
10
-3.91784
20
5.52587
11
-3.91649
21
5.52317
0
LINE
8
BLACK
6
CONTINUOUS
10
-3.91649
20
5.52317
11
-3.91529
21
5.52197
0
LINE
8
BLACK
6
CONTINUOUS
10
-3.91529
20
5.52197
11
-3.9126
21
5.52062
0
LINE
8
BLACK
6
CONTINUOUS
10
-3.9126
20
5.52062
11
-3.90125
21
5.52062
0
LINE
8
BLACK
6
CONTINUOUS
10
-3.90125
20
5.52062
11
-3.90125
21
5.53534
0
LINE
8
BLACK
6
CONTINUOUS
10
-3.90125
20
5.53534
11
-3.9126
21
5.53534
0
LINE
8
BLACK
6
CONTINUOUS
10
-4.02352
20
5.54118
11
-4.02339
21
5.5412
0
LINE
8
BLACK
6
CONTINUOUS
10
-4.02339
20
5.5412
11
-4.02328
21
5.54113
0
LINE
8
BLACK
6
CONTINUOUS
10
-4.02328
20
5.54113
11
-4.02289
21
5.54107
0
LINE
8
BLACK
6
CONTINUOUS
10
-4.02289
20
5.54107
11
-4.02231
21
5.54057
0
LINE
8
BLACK
6
CONTINUOUS
10
-4.02231
20
5.54057
11
-4.02164
21
5.54019
0
LINE
8
BLACK
6
CONTINUOUS
10
-4.02164
20
5.54019
11
-4.02155
21
5.53994
0
LINE
8
BLACK
6
CONTINUOUS
10
-4.02155
20
5.53994
11
-4.02135
21
5.53977
0
LINE
8
BLACK
6
CONTINUOUS
10
-4.02135
20
5.53977
11
-4.02121
21
5.53901
0
LINE
8
BLACK
6
CONTINUOUS
10
-4.02121
20
5.53901
11
-4.02095
21
5.53829
0
LINE
8
BLACK
6
CONTINUOUS
10
-4.02095
20
5.53829
11
-4.02095
21
5.49892
0
LINE
8
BLACK
6
CONTINUOUS
10
-4.02095
20
5.49892
11
-4.02113
21
5.49791
0
LINE
8
BLACK
6
CONTINUOUS
10
-4.02113
20
5.49791
11
-4.02243
21
5.49636
0
LINE
8
BLACK
6
CONTINUOUS
10
-4.02243
20
5.49636
11
-4.02442
21
5.49601
0
LINE
8
BLACK
6
CONTINUOUS
10
-4.02442
20
5.49601
11
-4.02617
21
5.49702
0
LINE
8
BLACK
6
CONTINUOUS
10
-4.02617
20
5.49702
11
-4.02686
21
5.49892
0
LINE
8
BLACK
6
CONTINUOUS
10
-4.02686
20
5.49892
11
-4.02686
21
5.51659
0
LINE
8
BLACK
6
CONTINUOUS
10
-4.02686
20
5.51659
11
-4.03703
21
5.51659
0
LINE
8
BLACK
6
CONTINUOUS
10
-4.03703
20
5.51659
11
-4.03804
21
5.51677
0
LINE
8
BLACK
6
CONTINUOUS
10
-4.03804
20
5.51677
11
-4.03958
21
5.51807
0
LINE
8
BLACK
6
CONTINUOUS
10
-4.03958
20
5.51807
11
-4.03993
21
5.52006
0
LINE
8
BLACK
6
CONTINUOUS
10
-4.03993
20
5.52006
11
-4.03892
21
5.52181
0
LINE
8
BLACK
6
CONTINUOUS
10
-4.03892
20
5.52181
11
-4.03703
21
5.5225
0
LINE
8
BLACK
6
CONTINUOUS
10
-4.03703
20
5.5225
11
-4.02686
21
5.5225
0
LINE
8
BLACK
6
CONTINUOUS
10
-4.02686
20
5.5225
11
-4.02686
21
5.53534
0
LINE
8
BLACK
6
CONTINUOUS
10
-4.02686
20
5.53534
11
-4.04265
21
5.53534
0
LINE
8
BLACK
6
CONTINUOUS
10
-4.04265
20
5.53534
11
-4.04366
21
5.53552
0
LINE
8
BLACK
6
CONTINUOUS
10
-4.04366
20
5.53552
11
-4.04521
21
5.53682
0
LINE
8
BLACK
6
CONTINUOUS
10
-4.04521
20
5.53682
11
-4.04556
21
5.5388
0
LINE
8
BLACK
6
CONTINUOUS
10
-4.04556
20
5.5388
11
-4.04455
21
5.54055
0
LINE
8
BLACK
6
CONTINUOUS
10
-4.04455
20
5.54055
11
-4.04265
21
5.54124
0
LINE
8
BLACK
6
CONTINUOUS
10
-4.04265
20
5.54124
11
-4.0239
21
5.54124
0
LINE
8
BLACK
6
CONTINUOUS
10
-4.0239
20
5.54124
11
-4.02352
21
5.54118
0
LINE
8
BLACK
6
CONTINUOUS
10
-3.93665
20
5.51669
11
-3.93511
21
5.5154
0
LINE
8
BLACK
6
CONTINUOUS
10
-3.93511
20
5.5154
11
-3.93476
21
5.51341
0
LINE
8
BLACK
6
CONTINUOUS
10
-3.93476
20
5.51341
11
-3.93577
21
5.51166
0
LINE
8
BLACK
6
CONTINUOUS
10
-3.93577
20
5.51166
11
-3.93766
21
5.51097
0
LINE
8
BLACK
6
CONTINUOUS
10
-3.93766
20
5.51097
11
-3.96766
21
5.51097
0
LINE
8
BLACK
6
CONTINUOUS
10
-3.96766
20
5.51097
11
-3.96867
21
5.51115
0
LINE
8
BLACK
6
CONTINUOUS
10
-3.96867
20
5.51115
11
-3.97022
21
5.51244
0
LINE
8
BLACK
6
CONTINUOUS
10
-3.97022
20
5.51244
11
-3.97057
21
5.51443
0
LINE
8
BLACK
6
CONTINUOUS
10
-3.97057
20
5.51443
11
-3.96956
21
5.51618
0
LINE
8
BLACK
6
CONTINUOUS
10
-3.96956
20
5.51618
11
-3.96766
21
5.51687
0
LINE
8
BLACK
6
CONTINUOUS
10
-3.96766
20
5.51687
11
-3.93766
21
5.51687
0
LINE
8
BLACK
6
CONTINUOUS
10
-3.93766
20
5.51687
11
-3.93665
21
5.51669
0
LINE
8
BLACK
6
CONTINUOUS
10
-4.97761
20
5.52148
11
-4.97819
21
5.52287
0
LINE
8
BLACK
6
CONTINUOUS
10
-4.97819
20
5.52287
11
-4.97819
21
5.84768
0
LINE
8
BLACK
6
CONTINUOUS
10
-4.97819
20
5.84768
11
-4.97761
21
5.84907
0
LINE
8
BLACK
6
CONTINUOUS
10
-4.97761
20
5.84907
11
-4.97622
21
5.84965
0
LINE
8
BLACK
6
CONTINUOUS
10
-4.97622
20
5.84965
11
-4.81677
21
5.84965
0
LINE
8
BLACK
6
CONTINUOUS
10
-4.81677
20
5.84965
11
-4.81538
21
5.84907
0
LINE
8
BLACK
6
CONTINUOUS
10
-4.81538
20
5.84907
11
-4.8148
21
5.84768
0
LINE
8
BLACK
6
CONTINUOUS
10
-4.8148
20
5.84768
11
-4.8148
21
5.52287
0
LINE
8
BLACK
6
CONTINUOUS
10
-4.8148
20
5.52287
11
-4.81538
21
5.52148
0
LINE
8
BLACK
6
CONTINUOUS
10
-4.81538
20
5.52148
11
-4.81677
21
5.52091
0
LINE
8
BLACK
6
CONTINUOUS
10
-4.81677
20
5.52091
11
-4.97622
21
5.52091
0
LINE
8
BLACK
6
CONTINUOUS
10
-4.97622
20
5.52091
11
-4.97761
21
5.52148
0
LINE
8
BLACK
6
CONTINUOUS
10
-4.97425
20
5.84571
11
-4.97425
21
5.52484
0
LINE
8
BLACK
6
CONTINUOUS
10
-4.97425
20
5.52484
11
-4.81874
21
5.52484
0
LINE
8
BLACK
6
CONTINUOUS
10
-4.81874
20
5.52484
11
-4.81874
21
5.59075
0
LINE
8
BLACK
6
CONTINUOUS
10
-4.81874
20
5.59075
11
-4.84575
21
5.60985
0
LINE
8
BLACK
6
CONTINUOUS
10
-4.84575
20
5.60985
11
-4.84593
21
5.61014
0
LINE
8
BLACK
6
CONTINUOUS
10
-4.84593
20
5.61014
11
-4.84622
21
5.61032
0
LINE
8
BLACK
6
CONTINUOUS
10
-4.84622
20
5.61032
11
-4.84632
21
5.61075
0
LINE
8
BLACK
6
CONTINUOUS
10
-4.84632
20
5.61075
11
-4.84655
21
5.61112
0
LINE
8
BLACK
6
CONTINUOUS
10
-4.84655
20
5.61112
11
-4.84648
21
5.61146
0
LINE
8
BLACK
6
CONTINUOUS
10
-4.84648
20
5.61146
11
-4.84655
21
5.61179
0
LINE
8
BLACK
6
CONTINUOUS
10
-4.84655
20
5.61179
11
-4.84632
21
5.61216
0
LINE
8
BLACK
6
CONTINUOUS
10
-4.84632
20
5.61216
11
-4.84622
21
5.61259
0
LINE
8
BLACK
6
CONTINUOUS
10
-4.84622
20
5.61259
11
-4.84593
21
5.61278
0
LINE
8
BLACK
6
CONTINUOUS
10
-4.84593
20
5.61278
11
-4.84575
21
5.61306
0
LINE
8
BLACK
6
CONTINUOUS
10
-4.84575
20
5.61306
11
-4.81874
21
5.63216
0
LINE
8
BLACK
6
CONTINUOUS
10
-4.81874
20
5.63216
11
-4.81874
21
5.84571
0
LINE
8
BLACK
6
CONTINUOUS
10
-4.81874
20
5.84571
11
-4.97425
21
5.84571
0
LINE
8
BLACK
6
CONTINUOUS
10
-4.8412
20
5.61146
11
-4.81874
21
5.59557
0
LINE
8
BLACK
6
CONTINUOUS
10
-4.81874
20
5.59557
11
-4.81874
21
5.62734
0
LINE
8
BLACK
6
CONTINUOUS
10
-4.81874
20
5.62734
11
-4.8412
21
5.61146
0
LINE
8
BLACK
6
CONTINUOUS
10
-4.88832
20
5.6839
11
-4.8872
21
5.68221
0
LINE
8
BLACK
6
CONTINUOUS
10
-4.8872
20
5.68221
11
-4.88743
21
5.68021
0
LINE
8
BLACK
6
CONTINUOUS
10
-4.88743
20
5.68021
11
-4.88931
21
5.67646
0
LINE
8
BLACK
6
CONTINUOUS
10
-4.88931
20
5.67646
11
-4.88983
21
5.67575
0
LINE
8
BLACK
6
CONTINUOUS
10
-4.88983
20
5.67575
11
-4.88986
21
5.67569
0
LINE
8
BLACK
6
CONTINUOUS
10
-4.88986
20
5.67569
11
-4.89232
21
5.67323
0
LINE
8
BLACK
6
CONTINUOUS
10
-4.89232
20
5.67323
11
-4.86491
21
5.67323
0
LINE
8
BLACK
6
CONTINUOUS
10
-4.86491
20
5.67323
11
-4.86491
21
5.68153
0
LINE
8
BLACK
6
CONTINUOUS
10
-4.86491
20
5.68153
11
-4.86473
21
5.68254
0
LINE
8
BLACK
6
CONTINUOUS
10
-4.86473
20
5.68254
11
-4.86343
21
5.68408
0
LINE
8
BLACK
6
CONTINUOUS
10
-4.86343
20
5.68408
11
-4.86144
21
5.68443
0
LINE
8
BLACK
6
CONTINUOUS
10
-4.86144
20
5.68443
11
-4.85969
21
5.68342
0
LINE
8
BLACK
6
CONTINUOUS
10
-4.85969
20
5.68342
11
-4.859
21
5.68153
0
LINE
8
BLACK
6
CONTINUOUS
10
-4.859
20
5.68153
11
-4.859
21
5.65903
0
LINE
8
BLACK
6
CONTINUOUS
10
-4.859
20
5.65903
11
-4.85918
21
5.65802
0
LINE
8
BLACK
6
CONTINUOUS
10
-4.85918
20
5.65802
11
-4.86048
21
5.65647
0
LINE
8
BLACK
6
CONTINUOUS
10
-4.86048
20
5.65647
11
-4.86247
21
5.65612
0
LINE
8
BLACK
6
CONTINUOUS
10
-4.86247
20
5.65612
11
-4.86422
21
5.65713
0
LINE
8
BLACK
6
CONTINUOUS
10
-4.86422
20
5.65713
11
-4.86491
21
5.65903
0
LINE
8
BLACK
6
CONTINUOUS
10
-4.86491
20
5.65903
11
-4.86491
21
5.66732
0
LINE
8
BLACK
6
CONTINUOUS
10
-4.86491
20
5.66732
11
-4.90132
21
5.66732
0
LINE
8
BLACK
6
CONTINUOUS
10
-4.90132
20
5.66732
11
-4.90233
21
5.6675
0
LINE
8
BLACK
6
CONTINUOUS
10
-4.90233
20
5.6675
11
-4.90246
21
5.66761
0
LINE
8
BLACK
6
CONTINUOUS
10
-4.90246
20
5.66761
11
-4.90263
21
5.66763
0
LINE
8
BLACK
6
CONTINUOUS
10
-4.90263
20
5.66763
11
-4.90322
21
5.66825
0
LINE
8
BLACK
6
CONTINUOUS
10
-4.90322
20
5.66825
11
-4.90388
21
5.6688
0
LINE
8
BLACK
6
CONTINUOUS
10
-4.90388
20
5.6688
11
-4.90391
21
5.66897
0
LINE
8
BLACK
6
CONTINUOUS
10
-4.90391
20
5.66897
11
-4.90403
21
5.66909
0
LINE
8
BLACK
6
CONTINUOUS
10
-4.90403
20
5.66909
11
-4.90408
21
5.66995
0
LINE
8
BLACK
6
CONTINUOUS
10
-4.90408
20
5.66995
11
-4.90423
21
5.67079
0
LINE
8
BLACK
6
CONTINUOUS
10
-4.90423
20
5.67079
11
-4.90415
21
5.67094
0
LINE
8
BLACK
6
CONTINUOUS
10
-4.90415
20
5.67094
11
-4.90416
21
5.67111
0
LINE
8
BLACK
6
CONTINUOUS
10
-4.90416
20
5.67111
11
-4.90365
21
5.6718
0
LINE
8
BLACK
6
CONTINUOUS
10
-4.90365
20
5.6718
11
-4.90322
21
5.67254
0
LINE
8
BLACK
6
CONTINUOUS
10
-4.90322
20
5.67254
11
-4.90306
21
5.6726
0
LINE
8
BLACK
6
CONTINUOUS
10
-4.90306
20
5.6726
11
-4.90296
21
5.67273
0
LINE
8
BLACK
6
CONTINUOUS
10
-4.90296
20
5.67273
11
-4.89758
21
5.67632
0
LINE
8
BLACK
6
CONTINUOUS
10
-4.89758
20
5.67632
11
-4.89438
21
5.67953
0
LINE
8
BLACK
6
CONTINUOUS
10
-4.89438
20
5.67953
11
-4.89272
21
5.68285
0
LINE
8
BLACK
6
CONTINUOUS
10
-4.89272
20
5.68285
11
-4.89211
21
5.68367
0
LINE
8
BLACK
6
CONTINUOUS
10
-4.89211
20
5.68367
11
-4.89025
21
5.68447
0
LINE
8
BLACK
6
CONTINUOUS
10
-4.89025
20
5.68447
11
-4.88832
21
5.6839
0
LINE
8
BLACK
6
CONTINUOUS
10
-4.85969
20
5.7153
11
-4.859
21
5.7134
0
LINE
8
BLACK
6
CONTINUOUS
10
-4.859
20
5.7134
11
-4.859
21
5.70965
0
LINE
8
BLACK
6
CONTINUOUS
10
-4.859
20
5.70965
11
-4.85915
21
5.70878
0
LINE
8
BLACK
6
CONTINUOUS
10
-4.85915
20
5.70878
11
-4.85915
21
5.70871
0
LINE
8
BLACK
6
CONTINUOUS
10
-4.85915
20
5.70871
11
-4.86103
21
5.70309
0
LINE
8
BLACK
6
CONTINUOUS
10
-4.86103
20
5.70309
11
-4.86152
21
5.70219
0
LINE
8
BLACK
6
CONTINUOUS
10
-4.86152
20
5.70219
11
-4.86167
21
5.7021
0
LINE
8
BLACK
6
CONTINUOUS
10
-4.86167
20
5.7021
11
-4.86174
21
5.70194
0
LINE
8
BLACK
6
CONTINUOUS
10
-4.86174
20
5.70194
11
-4.86549
21
5.69819
0
LINE
8
BLACK
6
CONTINUOUS
10
-4.86549
20
5.69819
11
-4.86633
21
5.6976
0
LINE
8
BLACK
6
CONTINUOUS
10
-4.86633
20
5.6976
11
-4.86651
21
5.69758
0
LINE
8
BLACK
6
CONTINUOUS
10
-4.86651
20
5.69758
11
-4.86664
21
5.69747
0
LINE
8
BLACK
6
CONTINUOUS
10
-4.86664
20
5.69747
11
-4.87227
21
5.6956
0
LINE
8
BLACK
6
CONTINUOUS
10
-4.87227
20
5.6956
11
-4.87314
21
5.69547
0
LINE
8
BLACK
6
CONTINUOUS
10
-4.87314
20
5.69547
11
-4.8732
21
5.69545
0
LINE
8
BLACK
6
CONTINUOUS
10
-4.8732
20
5.69545
11
-4.90132
21
5.69545
0
LINE
8
BLACK
6
CONTINUOUS
10
-4.90132
20
5.69545
11
-4.90233
21
5.69562
0
LINE
8
BLACK
6
CONTINUOUS
10
-4.90233
20
5.69562
11
-4.90388
21
5.69692
0
LINE
8
BLACK
6
CONTINUOUS
10
-4.90388
20
5.69692
11
-4.90423
21
5.69891
0
LINE
8
BLACK
6
CONTINUOUS
10
-4.90423
20
5.69891
11
-4.90322
21
5.70066
0
LINE
8
BLACK
6
CONTINUOUS
10
-4.90322
20
5.70066
11
-4.90132
21
5.70135
0
LINE
8
BLACK
6
CONTINUOUS
10
-4.90132
20
5.70135
11
-4.87368
21
5.70135
0
LINE
8
BLACK
6
CONTINUOUS
10
-4.87368
20
5.70135
11
-4.86917
21
5.70285
0
LINE
8
BLACK
6
CONTINUOUS
10
-4.86917
20
5.70285
11
-4.86641
21
5.70562
0
LINE
8
BLACK
6
CONTINUOUS
10
-4.86641
20
5.70562
11
-4.86491
21
5.71013
0
LINE
8
BLACK
6
CONTINUOUS
10
-4.86491
20
5.71013
11
-4.86491
21
5.7134
0
LINE
8
BLACK
6
CONTINUOUS
10
-4.86491
20
5.7134
11
-4.86473
21
5.71441
0
LINE
8
BLACK
6
CONTINUOUS
10
-4.86473
20
5.71441
11
-4.86343
21
5.71595
0
LINE
8
BLACK
6
CONTINUOUS
10
-4.86343
20
5.71595
11
-4.86144
21
5.7163
0
LINE
8
BLACK
6
CONTINUOUS
10
-4.86144
20
5.7163
11
-4.85969
21
5.7153
0
LINE
8
BLACK
6
CONTINUOUS
10
-4.39908
20
5.6768
11
-4.39906
21
5.67681
0
LINE
8
BLACK
6
CONTINUOUS
10
-4.39906
20
5.67681
11
-4.39838
21
5.67652
0
LINE
8
BLACK
6
CONTINUOUS
10
-4.39838
20
5.67652
11
-4.3977
21
5.67623
0
LINE
8
BLACK
6
CONTINUOUS
10
-4.3977
20
5.67623
11
-4.3977
21
5.67622
0
LINE
8
BLACK
6
CONTINUOUS
10
-4.3977
20
5.67622
11
-4.39768
21
5.67621
0
LINE
8
BLACK
6
CONTINUOUS
10
-4.39768
20
5.67621
11
-4.37602
21
5.65377
0
LINE
8
BLACK
6
CONTINUOUS
10
-4.37602
20
5.65377
11
-4.37575
21
5.65308
0
LINE
8
BLACK
6
CONTINUOUS
10
-4.37575
20
5.65308
11
-4.37547
21
5.6524
0
LINE
8
BLACK
6
CONTINUOUS
10
-4.37547
20
5.6524
11
-4.37547
21
5.55594
0
LINE
8
BLACK
6
CONTINUOUS
10
-4.37547
20
5.55594
11
-4.37564
21
5.55555
0
LINE
8
BLACK
6
CONTINUOUS
10
-4.37564
20
5.55555
11
-4.37547
21
5.55516
0
LINE
8
BLACK
6
CONTINUOUS
10
-4.37547
20
5.55516
11
-4.37605
21
5.55377
0
LINE
8
BLACK
6
CONTINUOUS
10
-4.37605
20
5.55377
11
-4.37744
21
5.55319
0
LINE
8
BLACK
6
CONTINUOUS
10
-4.37744
20
5.55319
11
-4.43256
21
5.55319
0
LINE
8
BLACK
6
CONTINUOUS
10
-4.43256
20
5.55319
11
-4.43395
21
5.55377
0
LINE
8
BLACK
6
CONTINUOUS
10
-4.43395
20
5.55377
11
-4.43453
21
5.55516
0
LINE
8
BLACK
6
CONTINUOUS
10
-4.43453
20
5.55516
11
-4.43453
21
5.67484
0
LINE
8
BLACK
6
CONTINUOUS
10
-4.43453
20
5.67484
11
-4.43395
21
5.67623
0
LINE
8
BLACK
6
CONTINUOUS
10
-4.43395
20
5.67623
11
-4.43256
21
5.67681
0
LINE
8
BLACK
6
CONTINUOUS
10
-4.43256
20
5.67681
11
-4.39909
21
5.67681
0
LINE
8
BLACK
6
CONTINUOUS
10
-4.39909
20
5.67681
11
-4.39908
21
5.6768
0
LINE
8
BLACK
6
CONTINUOUS
10
-4.43059
20
5.67287
11
-4.43059
21
5.55713
0
LINE
8
BLACK
6
CONTINUOUS
10
-4.43059
20
5.55713
11
-4.37941
21
5.55713
0
LINE
8
BLACK
6
CONTINUOUS
10
-4.37941
20
5.55713
11
-4.37941
21
5.65161
0
LINE
8
BLACK
6
CONTINUOUS
10
-4.37941
20
5.65161
11
-4.39993
21
5.67287
0
LINE
8
BLACK
6
CONTINUOUS
10
-4.39993
20
5.67287
11
-4.43059
21
5.67287
0
LINE
8
BLACK
6
CONTINUOUS
10
-4.39505
20
5.61136
11
-4.39462
21
5.61031
0
LINE
8
BLACK
6
CONTINUOUS
10
-4.39462
20
5.61031
11
-4.39462
21
5.59906
0
LINE
8
BLACK
6
CONTINUOUS
10
-4.39462
20
5.59906
11
-4.39505
21
5.59802
0
LINE
8
BLACK
6
CONTINUOUS
10
-4.39505
20
5.59802
11
-4.39609
21
5.59759
0
LINE
8
BLACK
6
CONTINUOUS
10
-4.39609
20
5.59759
11
-4.39714
21
5.59802
0
LINE
8
BLACK
6
CONTINUOUS
10
-4.39714
20
5.59802
11
-4.39757
21
5.59906
0
LINE
8
BLACK
6
CONTINUOUS
10
-4.39757
20
5.59906
11
-4.39757
21
5.60321
0
LINE
8
BLACK
6
CONTINUOUS
10
-4.39757
20
5.60321
11
-4.41578
21
5.60321
0
LINE
8
BLACK
6
CONTINUOUS
10
-4.41578
20
5.60321
11
-4.41592
21
5.60327
0
LINE
8
BLACK
6
CONTINUOUS
10
-4.41592
20
5.60327
11
-4.41607
21
5.60324
0
LINE
8
BLACK
6
CONTINUOUS
10
-4.41607
20
5.60324
11
-4.41643
21
5.60348
0
LINE
8
BLACK
6
CONTINUOUS
10
-4.41643
20
5.60348
11
-4.41682
21
5.60364
0
LINE
8
BLACK
6
CONTINUOUS
10
-4.41682
20
5.60364
11
-4.41688
21
5.60379
0
LINE
8
BLACK
6
CONTINUOUS
10
-4.41688
20
5.60379
11
-4.41701
21
5.60387
0
LINE
8
BLACK
6
CONTINUOUS
10
-4.41701
20
5.60387
11
-4.41709
21
5.60429
0
LINE
8
BLACK
6
CONTINUOUS
10
-4.41709
20
5.60429
11
-4.41726
21
5.60469
0
LINE
8
BLACK
6
CONTINUOUS
10
-4.41726
20
5.60469
11
-4.4172
21
5.60483
0
LINE
8
BLACK
6
CONTINUOUS
10
-4.4172
20
5.60483
11
-4.41723
21
5.60498
0
LINE
8
BLACK
6
CONTINUOUS
10
-4.41723
20
5.60498
11
-4.41699
21
5.60534
0
LINE
8
BLACK
6
CONTINUOUS
10
-4.41699
20
5.60534
11
-4.41682
21
5.60573
0
LINE
8
BLACK
6
CONTINUOUS
10
-4.41682
20
5.60573
11
-4.41668
21
5.60579
0
LINE
8
BLACK
6
CONTINUOUS
10
-4.41668
20
5.60579
11
-4.4166
21
5.60592
0
LINE
8
BLACK
6
CONTINUOUS
10
-4.4166
20
5.60592
11
-4.41391
21
5.60771
0
LINE
8
BLACK
6
CONTINUOUS
10
-4.41391
20
5.60771
11
-4.41231
21
5.60931
0
LINE
8
BLACK
6
CONTINUOUS
10
-4.41231
20
5.60931
11
-4.41148
21
5.61097
0
LINE
8
BLACK
6
CONTINUOUS
10
-4.41148
20
5.61097
11
-4.41062
21
5.61171
0
LINE
8
BLACK
6
CONTINUOUS
10
-4.41062
20
5.61171
11
-4.4095
21
5.61163
0
LINE
8
BLACK
6
CONTINUOUS
10
-4.4095
20
5.61163
11
-4.40876
21
5.61078
0
LINE
8
BLACK
6
CONTINUOUS
10
-4.40876
20
5.61078
11
-4.40884
21
5.60965
0
LINE
8
BLACK
6
CONTINUOUS
10
-4.40884
20
5.60965
11
-4.40977
21
5.60778
0
LINE
8
BLACK
6
CONTINUOUS
10
-4.40977
20
5.60778
11
-4.40996
21
5.60762
0
LINE
8
BLACK
6
CONTINUOUS
10
-4.40996
20
5.60762
11
-4.41005
21
5.60739
0
LINE
8
BLACK
6
CONTINUOUS
10
-4.41005
20
5.60739
11
-4.41128
21
5.60617
0
LINE
8
BLACK
6
CONTINUOUS
10
-4.41128
20
5.60617
11
-4.39757
21
5.60617
0
LINE
8
BLACK
6
CONTINUOUS
10
-4.39757
20
5.60617
11
-4.39757
21
5.61031
0
LINE
8
BLACK
6
CONTINUOUS
10
-4.39757
20
5.61031
11
-4.39714
21
5.61136
0
LINE
8
BLACK
6
CONTINUOUS
10
-4.39714
20
5.61136
11
-4.39609
21
5.61179
0
LINE
8
BLACK
6
CONTINUOUS
10
-4.39609
20
5.61179
11
-4.39505
21
5.61136
0
LINE
8
BLACK
6
CONTINUOUS
10
-4.40248
20
5.63234
11
-4.4023
21
5.63237
0
LINE
8
BLACK
6
CONTINUOUS
10
-4.4023
20
5.63237
11
-4.39855
21
5.63143
0
LINE
8
BLACK
6
CONTINUOUS
10
-4.39855
20
5.63143
11
-4.39823
21
5.63119
0
LINE
8
BLACK
6
CONTINUOUS
10
-4.39823
20
5.63119
11
-4.39786
21
5.63104
0
LINE
8
BLACK
6
CONTINUOUS
10
-4.39786
20
5.63104
11
-4.39599
21
5.62917
0
LINE
8
BLACK
6
CONTINUOUS
10
-4.39599
20
5.62917
11
-4.3959
21
5.62894
0
LINE
8
BLACK
6
CONTINUOUS
10
-4.3959
20
5.62894
11
-4.39571
21
5.62878
0
LINE
8
BLACK
6
CONTINUOUS
10
-4.39571
20
5.62878
11
-4.39477
21
5.62691
0
LINE
8
BLACK
6
CONTINUOUS
10
-4.39477
20
5.62691
11
-4.39475
21
5.62657
0
LINE
8
BLACK
6
CONTINUOUS
10
-4.39475
20
5.62657
11
-4.39462
21
5.62625
0
LINE
8
BLACK
6
CONTINUOUS
10
-4.39462
20
5.62625
11
-4.39462
21
5.6225
0
LINE
8
BLACK
6
CONTINUOUS
10
-4.39462
20
5.6225
11
-4.39475
21
5.62218
0
LINE
8
BLACK
6
CONTINUOUS
10
-4.39475
20
5.62218
11
-4.39477
21
5.62184
0
LINE
8
BLACK
6
CONTINUOUS
10
-4.39477
20
5.62184
11
-4.39524
21
5.62092
0
LINE
8
BLACK
6
CONTINUOUS
10
-4.39524
20
5.62092
11
-4.39411
21
5.61979
0
LINE
8
BLACK
6
CONTINUOUS
10
-4.39411
20
5.61979
11
-4.39402
21
5.61957
0
LINE
8
BLACK
6
CONTINUOUS
10
-4.39402
20
5.61957
11
-4.39384
21
5.61941
0
LINE
8
BLACK
6
CONTINUOUS
10
-4.39384
20
5.61941
11
-4.3929
21
5.61754
0
LINE
8
BLACK
6
CONTINUOUS
10
-4.3929
20
5.61754
11
-4.39282
21
5.61641
0
LINE
8
BLACK
6
CONTINUOUS
10
-4.39282
20
5.61641
11
-4.39356
21
5.61555
0
LINE
8
BLACK
6
CONTINUOUS
10
-4.39356
20
5.61555
11
-4.39469
21
5.61547
0
LINE
8
BLACK
6
CONTINUOUS
10
-4.39469
20
5.61547
11
-4.39554
21
5.61621
0
LINE
8
BLACK
6
CONTINUOUS
10
-4.39554
20
5.61621
11
-4.39637
21
5.61787
0
LINE
8
BLACK
6
CONTINUOUS
10
-4.39637
20
5.61787
11
-4.39703
21
5.61854
0
LINE
8
BLACK
6
CONTINUOUS
10
-4.39703
20
5.61854
11
-4.39786
21
5.61771
0
LINE
8
BLACK
6
CONTINUOUS
10
-4.39786
20
5.61771
11
-4.39823
21
5.61755
0
LINE
8
BLACK
6
CONTINUOUS
10
-4.39823
20
5.61755
11
-4.39855
21
5.61732
0
LINE
8
BLACK
6
CONTINUOUS
10
-4.39855
20
5.61732
11
-4.4023
21
5.61638
0
LINE
8
BLACK
6
CONTINUOUS
10
-4.4023
20
5.61638
11
-4.40248
21
5.61641
0
LINE
8
BLACK
6
CONTINUOUS
10
-4.40248
20
5.61641
11
-4.40266
21
5.61634
0
LINE
8
BLACK
6
CONTINUOUS
10
-4.40266
20
5.61634
11
-4.40922
21
5.61634
0
LINE
8
BLACK
6
CONTINUOUS
10
-4.40922
20
5.61634
11
-4.40939
21
5.61641
0
LINE
8
BLACK
6
CONTINUOUS
10
-4.40939
20
5.61641
11
-4.40958
21
5.61638
0
LINE
8
BLACK
6
CONTINUOUS
10
-4.40958
20
5.61638
11
-4.41333
21
5.61732
0
LINE
8
BLACK
6
CONTINUOUS
10
-4.41333
20
5.61732
11
-4.41364
21
5.61755
0
LINE
8
BLACK
6
CONTINUOUS
10
-4.41364
20
5.61755
11
-4.41401
21
5.61771
0
LINE
8
BLACK
6
CONTINUOUS
10
-4.41401
20
5.61771
11
-4.41589
21
5.61958
0
LINE
8
BLACK
6
CONTINUOUS
10
-4.41589
20
5.61958
11
-4.41598
21
5.6198
0
LINE
8
BLACK
6
CONTINUOUS
10
-4.41598
20
5.6198
11
-4.41616
21
5.61996
0
LINE
8
BLACK
6
CONTINUOUS
10
-4.41616
20
5.61996
11
-4.4171
21
5.62184
0
LINE
8
BLACK
6
CONTINUOUS
10
-4.4171
20
5.62184
11
-4.41712
21
5.62218
0
LINE
8
BLACK
6
CONTINUOUS
10
-4.41712
20
5.62218
11
-4.41726
21
5.6225
0
LINE
8
BLACK
6
CONTINUOUS
10
-4.41726
20
5.6225
11
-4.41726
21
5.62625
0
LINE
8
BLACK
6
CONTINUOUS
10
-4.41726
20
5.62625
11
-4.41712
21
5.62657
0
LINE
8
BLACK
6
CONTINUOUS
10
-4.41712
20
5.62657
11
-4.4171
21
5.62691
0
LINE
8
BLACK
6
CONTINUOUS
10
-4.4171
20
5.62691
11
-4.41616
21
5.62878
0
LINE
8
BLACK
6
CONTINUOUS
10
-4.41616
20
5.62878
11
-4.41598
21
5.62894
0
LINE
8
BLACK
6
CONTINUOUS
10
-4.41598
20
5.62894
11
-4.41589
21
5.62917
0
LINE
8
BLACK
6
CONTINUOUS
10
-4.41589
20
5.62917
11
-4.41401
21
5.63104
0
LINE
8
BLACK
6
CONTINUOUS
10
-4.41401
20
5.63104
11
-4.41364
21
5.63119
0
LINE
8
BLACK
6
CONTINUOUS
10
-4.41364
20
5.63119
11
-4.41333
21
5.63143
0
LINE
8
BLACK
6
CONTINUOUS
10
-4.41333
20
5.63143
11
-4.40958
21
5.63237
0
LINE
8
BLACK
6
CONTINUOUS
10
-4.40958
20
5.63237
11
-4.40939
21
5.63234
0
LINE
8
BLACK
6
CONTINUOUS
10
-4.40939
20
5.63234
11
-4.40922
21
5.63241
0
LINE
8
BLACK
6
CONTINUOUS
10
-4.40922
20
5.63241
11
-4.40266
21
5.63241
0
LINE
8
BLACK
6
CONTINUOUS
10
-4.40266
20
5.63241
11
-4.40248
21
5.63234
0
LINE
8
BLACK
6
CONTINUOUS
10
-4.40904
20
5.62946
11
-4.41221
21
5.62866
0
LINE
8
BLACK
6
CONTINUOUS
10
-4.41221
20
5.62866
11
-4.41363
21
5.62725
0
LINE
8
BLACK
6
CONTINUOUS
10
-4.41363
20
5.62725
11
-4.4143
21
5.6259
0
LINE
8
BLACK
6
CONTINUOUS
10
-4.4143
20
5.6259
11
-4.4143
21
5.62285
0
LINE
8
BLACK
6
CONTINUOUS
10
-4.4143
20
5.62285
11
-4.41363
21
5.6215
0
LINE
8
BLACK
6
CONTINUOUS
10
-4.41363
20
5.6215
11
-4.41221
21
5.62008
0
LINE
8
BLACK
6
CONTINUOUS
10
-4.41221
20
5.62008
11
-4.40904
21
5.61929
0
LINE
8
BLACK
6
CONTINUOUS
10
-4.40904
20
5.61929
11
-4.40284
21
5.61929
0
LINE
8
BLACK
6
CONTINUOUS
10
-4.40284
20
5.61929
11
-4.39966
21
5.62008
0
LINE
8
BLACK
6
CONTINUOUS
10
-4.39966
20
5.62008
11
-4.39912
21
5.62062
0
LINE
8
BLACK
6
CONTINUOUS
10
-4.39912
20
5.62062
11
-4.40089
21
5.62239
0
LINE
8
BLACK
6
CONTINUOUS
10
-4.40089
20
5.62239
11
-4.40098
21
5.62262
0
LINE
8
BLACK
6
CONTINUOUS
10
-4.40098
20
5.62262
11
-4.40116
21
5.62278
0
LINE
8
BLACK
6
CONTINUOUS
10
-4.40116
20
5.62278
11
-4.4021
21
5.62465
0
LINE
8
BLACK
6
CONTINUOUS
10
-4.4021
20
5.62465
11
-4.40213
21
5.62499
0
LINE
8
BLACK
6
CONTINUOUS
10
-4.40213
20
5.62499
11
-4.40226
21
5.62531
0
LINE
8
BLACK
6
CONTINUOUS
10
-4.40226
20
5.62531
11
-4.40226
21
5.62719
0
LINE
8
BLACK
6
CONTINUOUS
10
-4.40226
20
5.62719
11
-4.40183
21
5.62823
0
LINE
8
BLACK
6
CONTINUOUS
10
-4.40183
20
5.62823
11
-4.40078
21
5.62866
0
LINE
8
BLACK
6
CONTINUOUS
10
-4.40078
20
5.62866
11
-4.39974
21
5.62823
0
LINE
8
BLACK
6
CONTINUOUS
10
-4.39974
20
5.62823
11
-4.39931
21
5.62719
0
LINE
8
BLACK
6
CONTINUOUS
10
-4.39931
20
5.62719
11
-4.39931
21
5.62566
0
LINE
8
BLACK
6
CONTINUOUS
10
-4.39931
20
5.62566
11
-4.39863
21
5.62431
0
LINE
8
BLACK
6
CONTINUOUS
10
-4.39863
20
5.62431
11
-4.39757
21
5.62325
0
LINE
8
BLACK
6
CONTINUOUS
10
-4.39757
20
5.62325
11
-4.39757
21
5.6259
0
LINE
8
BLACK
6
CONTINUOUS
10
-4.39757
20
5.6259
11
-4.39825
21
5.62725
0
LINE
8
BLACK
6
CONTINUOUS
10
-4.39825
20
5.62725
11
-4.39966
21
5.62867
0
LINE
8
BLACK
6
CONTINUOUS
10
-4.39966
20
5.62867
11
-4.40284
21
5.62946
0
LINE
8
BLACK
6
CONTINUOUS
10
-4.40284
20
5.62946
11
-4.40904
21
5.62946
0
LINE
8
BLACK
6
CONTINUOUS
10
-4.54214
20
5.56812
11
-4.54272
21
5.56951
0
LINE
8
BLACK
6
CONTINUOUS
10
-4.54272
20
5.56951
11
-4.54272
21
5.6325
0
LINE
8
BLACK
6
CONTINUOUS
10
-4.54272
20
5.6325
11
-4.54214
21
5.63389
0
LINE
8
BLACK
6
CONTINUOUS
10
-4.54214
20
5.63389
11
-4.54075
21
5.63447
0
LINE
8
BLACK
6
CONTINUOUS
10
-4.54075
20
5.63447
11
-4.50925
21
5.63447
0
LINE
8
BLACK
6
CONTINUOUS
10
-4.50925
20
5.63447
11
-4.50786
21
5.63389
0
LINE
8
BLACK
6
CONTINUOUS
10
-4.50786
20
5.63389
11
-4.50728
21
5.6325
0
LINE
8
BLACK
6
CONTINUOUS
10
-4.50728
20
5.6325
11
-4.50728
21
5.56951
0
LINE
8
BLACK
6
CONTINUOUS
10
-4.50728
20
5.56951
11
-4.50786
21
5.56812
0
LINE
8
BLACK
6
CONTINUOUS
10
-4.50786
20
5.56812
11
-4.50925
21
5.56754
0
LINE
8
BLACK
6
CONTINUOUS
10
-4.50925
20
5.56754
11
-4.54075
21
5.56754
0
LINE
8
BLACK
6
CONTINUOUS
10
-4.54075
20
5.56754
11
-4.54214
21
5.56812
0
LINE
8
BLACK
6
CONTINUOUS
10
-4.53878
20
5.63053
11
-4.53878
21
5.57148
0
LINE
8
BLACK
6
CONTINUOUS
10
-4.53878
20
5.57148
11
-4.51122
21
5.57148
0
LINE
8
BLACK
6
CONTINUOUS
10
-4.51122
20
5.57148
11
-4.51122
21
5.63053
0
LINE
8
BLACK
6
CONTINUOUS
10
-4.51122
20
5.63053
11
-4.53878
21
5.63053
0
LINE
8
BLACK
6
CONTINUOUS
10
-4.52287
20
5.59871
11
-4.5226
21
5.59869
0
LINE
8
BLACK
6
CONTINUOUS
10
-4.5226
20
5.59869
11
-4.52247
21
5.59854
0
LINE
8
BLACK
6
CONTINUOUS
10
-4.52247
20
5.59854
11
-4.52229
21
5.59846
0
LINE
8
BLACK
6
CONTINUOUS
10
-4.52229
20
5.59846
11
-4.52218
21
5.59821
0
LINE
8
BLACK
6
CONTINUOUS
10
-4.52218
20
5.59821
11
-4.522
21
5.598
0
LINE
8
BLACK
6
CONTINUOUS
10
-4.522
20
5.598
11
-4.52202
21
5.59781
0
LINE
8
BLACK
6
CONTINUOUS
10
-4.52202
20
5.59781
11
-4.52194
21
5.59763
0
LINE
8
BLACK
6
CONTINUOUS
10
-4.52194
20
5.59763
11
-4.52194
21
5.59131
0
LINE
8
BLACK
6
CONTINUOUS
10
-4.52194
20
5.59131
11
-4.51788
21
5.59131
0
LINE
8
BLACK
6
CONTINUOUS
10
-4.51788
20
5.59131
11
-4.51704
21
5.59097
0
LINE
8
BLACK
6
CONTINUOUS
10
-4.51704
20
5.59097
11
-4.51669
21
5.59013
0
LINE
8
BLACK
6
CONTINUOUS
10
-4.51669
20
5.59013
11
-4.51704
21
5.5893
0
LINE
8
BLACK
6
CONTINUOUS
10
-4.51704
20
5.5893
11
-4.51788
21
5.58895
0
LINE
8
BLACK
6
CONTINUOUS
10
-4.51788
20
5.58895
11
-4.52194
21
5.58895
0
LINE
8
BLACK
6
CONTINUOUS
10
-4.52194
20
5.58895
11
-4.52194
21
5.58788
0
LINE
8
BLACK
6
CONTINUOUS
10
-4.52194
20
5.58788
11
-4.52229
21
5.58705
0
LINE
8
BLACK
6
CONTINUOUS
10
-4.52229
20
5.58705
11
-4.52313
21
5.5867
0
LINE
8
BLACK
6
CONTINUOUS
10
-4.52313
20
5.5867
11
-4.52396
21
5.58705
0
LINE
8
BLACK
6
CONTINUOUS
10
-4.52396
20
5.58705
11
-4.52431
21
5.58788
0
LINE
8
BLACK
6
CONTINUOUS
10
-4.52431
20
5.58788
11
-4.52431
21
5.58895
0
LINE
8
BLACK
6
CONTINUOUS
10
-4.52431
20
5.58895
11
-4.52837
21
5.58895
0
LINE
8
BLACK
6
CONTINUOUS
10
-4.52837
20
5.58895
11
-4.52921
21
5.5893
0
LINE
8
BLACK
6
CONTINUOUS
10
-4.52921
20
5.5893
11
-4.52956
21
5.59013
0
LINE
8
BLACK
6
CONTINUOUS
10
-4.52956
20
5.59013
11
-4.52921
21
5.59097
0
LINE
8
BLACK
6
CONTINUOUS
10
-4.52921
20
5.59097
11
-4.52837
21
5.59131
0
LINE
8
BLACK
6
CONTINUOUS
10
-4.52837
20
5.59131
11
-4.52431
21
5.59131
0
LINE
8
BLACK
6
CONTINUOUS
10
-4.52431
20
5.59131
11
-4.52431
21
5.59599
0
LINE
8
BLACK
6
CONTINUOUS
10
-4.52431
20
5.59599
11
-4.534
21
5.59276
0
LINE
8
BLACK
6
CONTINUOUS
10
-4.534
20
5.59276
11
-4.5349
21
5.59282
0
LINE
8
BLACK
6
CONTINUOUS
10
-4.5349
20
5.59282
11
-4.53549
21
5.59351
0
LINE
8
BLACK
6
CONTINUOUS
10
-4.53549
20
5.59351
11
-4.53543
21
5.59441
0
LINE
8
BLACK
6
CONTINUOUS
10
-4.53543
20
5.59441
11
-4.53475
21
5.595
0
LINE
8
BLACK
6
CONTINUOUS
10
-4.53475
20
5.595
11
-4.5235
21
5.59875
0
LINE
8
BLACK
6
CONTINUOUS
10
-4.5235
20
5.59875
11
-4.5233
21
5.59874
0
LINE
8
BLACK
6
CONTINUOUS
10
-4.5233
20
5.59874
11
-4.52313
21
5.59881
0
LINE
8
BLACK
6
CONTINUOUS
10
-4.52313
20
5.59881
11
-4.52287
21
5.59871
0
LINE
8
BLACK
6
CONTINUOUS
10
-4.52449
20
5.6145
11
-4.52434
21
5.61452
0
LINE
8
BLACK
6
CONTINUOUS
10
-4.52434
20
5.61452
11
-4.52134
21
5.61377
0
LINE
8
BLACK
6
CONTINUOUS
10
-4.52134
20
5.61377
11
-4.52123
21
5.61369
0
LINE
8
BLACK
6
CONTINUOUS
10
-4.52123
20
5.61369
11
-4.5211
21
5.61368
0
LINE
8
BLACK
6
CONTINUOUS
10
-4.5211
20
5.61368
11
-4.5196
21
5.61293
0
LINE
8
BLACK
6
CONTINUOUS
10
-4.5196
20
5.61293
11
-4.51947
21
5.61279
0
LINE
8
BLACK
6
CONTINUOUS
10
-4.51947
20
5.61279
11
-4.51929
21
5.61271
0
LINE
8
BLACK
6
CONTINUOUS
10
-4.51929
20
5.61271
11
-4.51779
21
5.61121
0
LINE
8
BLACK
6
CONTINUOUS
10
-4.51779
20
5.61121
11
-4.51769
21
5.61096
0
LINE
8
BLACK
6
CONTINUOUS
10
-4.51769
20
5.61096
11
-4.51751
21
5.61075
0
LINE
8
BLACK
6
CONTINUOUS
10
-4.51751
20
5.61075
11
-4.51676
21
5.6085
0
LINE
8
BLACK
6
CONTINUOUS
10
-4.51676
20
5.6085
11
-4.51677
21
5.60831
0
LINE
8
BLACK
6
CONTINUOUS
10
-4.51677
20
5.60831
11
-4.51669
21
5.60813
0
LINE
8
BLACK
6
CONTINUOUS
10
-4.51669
20
5.60813
11
-4.51669
21
5.60663
0
LINE
8
BLACK
6
CONTINUOUS
10
-4.51669
20
5.60663
11
-4.51677
21
5.60645
0
LINE
8
BLACK
6
CONTINUOUS
10
-4.51677
20
5.60645
11
-4.51676
21
5.60625
0
LINE
8
BLACK
6
CONTINUOUS
10
-4.51676
20
5.60625
11
-4.51751
21
5.604
0
LINE
8
BLACK
6
CONTINUOUS
10
-4.51751
20
5.604
11
-4.51769
21
5.6038
0
LINE
8
BLACK
6
CONTINUOUS
10
-4.51769
20
5.6038
11
-4.51779
21
5.60354
0
LINE
8
BLACK
6
CONTINUOUS
10
-4.51779
20
5.60354
11
-4.51854
21
5.60279
0
LINE
8
BLACK
6
CONTINUOUS
10
-4.51854
20
5.60279
11
-4.51938
21
5.60245
0
LINE
8
BLACK
6
CONTINUOUS
10
-4.51938
20
5.60245
11
-4.52021
21
5.60279
0
LINE
8
BLACK
6
CONTINUOUS
10
-4.52021
20
5.60279
11
-4.52056
21
5.60363
0
LINE
8
BLACK
6
CONTINUOUS
10
-4.52056
20
5.60363
11
-4.52021
21
5.60446
0
LINE
8
BLACK
6
CONTINUOUS
10
-4.52021
20
5.60446
11
-4.51966
21
5.60502
0
LINE
8
BLACK
6
CONTINUOUS
10
-4.51966
20
5.60502
11
-4.51906
21
5.60682
0
LINE
8
BLACK
6
CONTINUOUS
10
-4.51906
20
5.60682
11
-4.51906
21
5.60794
0
LINE
8
BLACK
6
CONTINUOUS
10
-4.51906
20
5.60794
11
-4.51966
21
5.60974
0
LINE
8
BLACK
6
CONTINUOUS
10
-4.51966
20
5.60974
11
-4.52083
21
5.61091
0
LINE
8
BLACK
6
CONTINUOUS
10
-4.52083
20
5.61091
11
-4.52204
21
5.61151
0
LINE
8
BLACK
6
CONTINUOUS
10
-4.52204
20
5.61151
11
-4.52477
21
5.6122
0
LINE
8
BLACK
6
CONTINUOUS
10
-4.52477
20
5.6122
11
-4.52673
21
5.6122
0
LINE
8
BLACK
6
CONTINUOUS
10
-4.52673
20
5.6122
11
-4.52946
21
5.61151
0
LINE
8
BLACK
6
CONTINUOUS
10
-4.52946
20
5.61151
11
-4.53067
21
5.61091
0
LINE
8
BLACK
6
CONTINUOUS
10
-4.53067
20
5.61091
11
-4.53184
21
5.60974
0
LINE
8
BLACK
6
CONTINUOUS
10
-4.53184
20
5.60974
11
-4.53244
21
5.60794
0
LINE
8
BLACK
6
CONTINUOUS
10
-4.53244
20
5.60794
11
-4.53244
21
5.60682
0
LINE
8
BLACK
6
CONTINUOUS
10
-4.53244
20
5.60682
11
-4.53184
21
5.60502
0
LINE
8
BLACK
6
CONTINUOUS
10
-4.53184
20
5.60502
11
-4.53129
21
5.60446
0
LINE
8
BLACK
6
CONTINUOUS
10
-4.53129
20
5.60446
11
-4.53094
21
5.60363
0
LINE
8
BLACK
6
CONTINUOUS
10
-4.53094
20
5.60363
11
-4.53129
21
5.60279
0
LINE
8
BLACK
6
CONTINUOUS
10
-4.53129
20
5.60279
11
-4.53212
21
5.60245
0
LINE
8
BLACK
6
CONTINUOUS
10
-4.53212
20
5.60245
11
-4.53296
21
5.60279
0
LINE
8
BLACK
6
CONTINUOUS
10
-4.53296
20
5.60279
11
-4.53371
21
5.60354
0
LINE
8
BLACK
6
CONTINUOUS
10
-4.53371
20
5.60354
11
-4.53381
21
5.6038
0
LINE
8
BLACK
6
CONTINUOUS
10
-4.53381
20
5.6038
11
-4.53399
21
5.604
0
LINE
8
BLACK
6
CONTINUOUS
10
-4.53399
20
5.604
11
-4.53474
21
5.60625
0
LINE
8
BLACK
6
CONTINUOUS
10
-4.53474
20
5.60625
11
-4.53473
21
5.60645
0
LINE
8
BLACK
6
CONTINUOUS
10
-4.53473
20
5.60645
11
-4.53481
21
5.60663
0
LINE
8
BLACK
6
CONTINUOUS
10
-4.53481
20
5.60663
11
-4.53481
21
5.60813
0
LINE
8
BLACK
6
CONTINUOUS
10
-4.53481
20
5.60813
11
-4.53473
21
5.60831
0
LINE
8
BLACK
6
CONTINUOUS
10
-4.53473
20
5.60831
11
-4.53474
21
5.6085
0
LINE
8
BLACK
6
CONTINUOUS
10
-4.53474
20
5.6085
11
-4.53399
21
5.61075
0
LINE
8
BLACK
6
CONTINUOUS
10
-4.53399
20
5.61075
11
-4.53381
21
5.61096
0
LINE
8
BLACK
6
CONTINUOUS
10
-4.53381
20
5.61096
11
-4.53371
21
5.61121
0
LINE
8
BLACK
6
CONTINUOUS
10
-4.53371
20
5.61121
11
-4.53221
21
5.61271
0
LINE
8
BLACK
6
CONTINUOUS
10
-4.53221
20
5.61271
11
-4.53203
21
5.61279
0
LINE
8
BLACK
6
CONTINUOUS
10
-4.53203
20
5.61279
11
-4.5319
21
5.61293
0
LINE
8
BLACK
6
CONTINUOUS
10
-4.5319
20
5.61293
11
-4.5304
21
5.61368
0
LINE
8
BLACK
6
CONTINUOUS
10
-4.5304
20
5.61368
11
-4.53027
21
5.61369
0
LINE
8
BLACK
6
CONTINUOUS
10
-4.53027
20
5.61369
11
-4.53016
21
5.61377
0
LINE
8
BLACK
6
CONTINUOUS
10
-4.53016
20
5.61377
11
-4.52716
21
5.61452
0
LINE
8
BLACK
6
CONTINUOUS
10
-4.52716
20
5.61452
11
-4.52701
21
5.6145
0
LINE
8
BLACK
6
CONTINUOUS
10
-4.52701
20
5.6145
11
-4.52687
21
5.61456
0
LINE
8
BLACK
6
CONTINUOUS
10
-4.52687
20
5.61456
11
-4.52463
21
5.61456
0
LINE
8
BLACK
6
CONTINUOUS
10
-4.52463
20
5.61456
11
-4.52449
21
5.6145
0
LINE
8
BLACK
6
CONTINUOUS
10
-4.29889
20
5.58286
11
-4.29947
21
5.58425
0
LINE
8
BLACK
6
CONTINUOUS
10
-4.29947
20
5.58425
11
-4.29947
21
5.61575
0
LINE
8
BLACK
6
CONTINUOUS
10
-4.29947
20
5.61575
11
-4.29889
21
5.61714
0
LINE
8
BLACK
6
CONTINUOUS
10
-4.29889
20
5.61714
11
-4.2975
21
5.61772
0
LINE
8
BLACK
6
CONTINUOUS
10
-4.2975
20
5.61772
11
-4.23451
21
5.61772
0
LINE
8
BLACK
6
CONTINUOUS
10
-4.23451
20
5.61772
11
-4.23312
21
5.61714
0
LINE
8
BLACK
6
CONTINUOUS
10
-4.23312
20
5.61714
11
-4.23254
21
5.61575
0
LINE
8
BLACK
6
CONTINUOUS
10
-4.23254
20
5.61575
11
-4.23254
21
5.58425
0
LINE
8
BLACK
6
CONTINUOUS
10
-4.23254
20
5.58425
11
-4.23312
21
5.58286
0
LINE
8
BLACK
6
CONTINUOUS
10
-4.23312
20
5.58286
11
-4.23451
21
5.58228
0
LINE
8
BLACK
6
CONTINUOUS
10
-4.23451
20
5.58228
11
-4.2975
21
5.58228
0
LINE
8
BLACK
6
CONTINUOUS
10
-4.2975
20
5.58228
11
-4.29889
21
5.58286
0
LINE
8
BLACK
6
CONTINUOUS
10
-4.29553
20
5.61378
11
-4.29553
21
5.58622
0
LINE
8
BLACK
6
CONTINUOUS
10
-4.29553
20
5.58622
11
-4.23648
21
5.58622
0
LINE
8
BLACK
6
CONTINUOUS
10
-4.23648
20
5.58622
11
-4.23648
21
5.61378
0
LINE
8
BLACK
6
CONTINUOUS
10
-4.23648
20
5.61378
11
-4.29553
21
5.61378
0
LINE
8
BLACK
6
CONTINUOUS
10
-4.27921
20
5.59204
11
-4.27956
21
5.59288
0
LINE
8
BLACK
6
CONTINUOUS
10
-4.27956
20
5.59288
11
-4.27921
21
5.59371
0
LINE
8
BLACK
6
CONTINUOUS
10
-4.27921
20
5.59371
11
-4.27838
21
5.59406
0
LINE
8
BLACK
6
CONTINUOUS
10
-4.27838
20
5.59406
11
-4.27148
21
5.59406
0
LINE
8
BLACK
6
CONTINUOUS
10
-4.27148
20
5.59406
11
-4.27846
21
5.60104
0
LINE
8
BLACK
6
CONTINUOUS
10
-4.27846
20
5.60104
11
-4.27857
21
5.60129
0
LINE
8
BLACK
6
CONTINUOUS
10
-4.27857
20
5.60129
11
-4.27875
21
5.6015
0
LINE
8
BLACK
6
CONTINUOUS
10
-4.27875
20
5.6015
11
-4.2795
21
5.60375
0
LINE
8
BLACK
6
CONTINUOUS
10
-4.2795
20
5.60375
11
-4.27948
21
5.60394
0
LINE
8
BLACK
6
CONTINUOUS
10
-4.27948
20
5.60394
11
-4.27956
21
5.60412
0
LINE
8
BLACK
6
CONTINUOUS
10
-4.27956
20
5.60412
11
-4.27956
21
5.60562
0
LINE
8
BLACK
6
CONTINUOUS
10
-4.27956
20
5.60562
11
-4.27945
21
5.60588
0
LINE
8
BLACK
6
CONTINUOUS
10
-4.27945
20
5.60588
11
-4.27943
21
5.60615
0
LINE
8
BLACK
6
CONTINUOUS
10
-4.27943
20
5.60615
11
-4.27868
21
5.60765
0
LINE
8
BLACK
6
CONTINUOUS
10
-4.27868
20
5.60765
11
-4.27854
21
5.60778
0
LINE
8
BLACK
6
CONTINUOUS
10
-4.27854
20
5.60778
11
-4.27846
21
5.60796
0
LINE
8
BLACK
6
CONTINUOUS
10
-4.27846
20
5.60796
11
-4.27771
21
5.60871
0
LINE
8
BLACK
6
CONTINUOUS
10
-4.27771
20
5.60871
11
-4.27753
21
5.60878
0
LINE
8
BLACK
6
CONTINUOUS
10
-4.27753
20
5.60878
11
-4.27741
21
5.60893
0
LINE
8
BLACK
6
CONTINUOUS
10
-4.27741
20
5.60893
11
-4.27591
21
5.60968
0
LINE
8
BLACK
6
CONTINUOUS
10
-4.27591
20
5.60968
11
-4.27563
21
5.6097
0
LINE
8
BLACK
6
CONTINUOUS
10
-4.27563
20
5.6097
11
-4.27538
21
5.6098
0
LINE
8
BLACK
6
CONTINUOUS
10
-4.27538
20
5.6098
11
-4.27163
21
5.6098
0
LINE
8
BLACK
6
CONTINUOUS
10
-4.27163
20
5.6098
11
-4.27137
21
5.6097
0
LINE
8
BLACK
6
CONTINUOUS
10
-4.27137
20
5.6097
11
-4.2711
21
5.60968
0
LINE
8
BLACK
6
CONTINUOUS
10
-4.2711
20
5.60968
11
-4.2696
21
5.60893
0
LINE
8
BLACK
6
CONTINUOUS
10
-4.2696
20
5.60893
11
-4.26947
21
5.60878
0
LINE
8
BLACK
6
CONTINUOUS
10
-4.26947
20
5.60878
11
-4.26929
21
5.60871
0
LINE
8
BLACK
6
CONTINUOUS
10
-4.26929
20
5.60871
11
-4.26854
21
5.60796
0
LINE
8
BLACK
6
CONTINUOUS
10
-4.26854
20
5.60796
11
-4.2682
21
5.60712
0
LINE
8
BLACK
6
CONTINUOUS
10
-4.2682
20
5.60712
11
-4.26854
21
5.60629
0
LINE
8
BLACK
6
CONTINUOUS
10
-4.26854
20
5.60629
11
-4.26938
21
5.60594
0
LINE
8
BLACK
6
CONTINUOUS
10
-4.26938
20
5.60594
11
-4.27021
21
5.60629
0
LINE
8
BLACK
6
CONTINUOUS
10
-4.27021
20
5.60629
11
-4.27083
21
5.6069
0
LINE
8
BLACK
6
CONTINUOUS
10
-4.27083
20
5.6069
11
-4.27191
21
5.60744
0
LINE
8
BLACK
6
CONTINUOUS
10
-4.27191
20
5.60744
11
-4.2751
21
5.60744
0
LINE
8
BLACK
6
CONTINUOUS
10
-4.2751
20
5.60744
11
-4.27618
21
5.6069
0
LINE
8
BLACK
6
CONTINUOUS
10
-4.27618
20
5.6069
11
-4.27666
21
5.60642
0
LINE
8
BLACK
6
CONTINUOUS
10
-4.27666
20
5.60642
11
-4.2772
21
5.60535
0
LINE
8
BLACK
6
CONTINUOUS
10
-4.2772
20
5.60535
11
-4.2772
21
5.60432
0
LINE
8
BLACK
6
CONTINUOUS
10
-4.2772
20
5.60432
11
-4.2766
21
5.60251
0
LINE
8
BLACK
6
CONTINUOUS
10
-4.2766
20
5.60251
11
-4.26779
21
5.59371
0
LINE
8
BLACK
6
CONTINUOUS
10
-4.26779
20
5.59371
11
-4.26745
21
5.59288
0
LINE
8
BLACK
6
CONTINUOUS
10
-4.26745
20
5.59288
11
-4.26779
21
5.59204
0
LINE
8
BLACK
6
CONTINUOUS
10
-4.26779
20
5.59204
11
-4.26863
21
5.59169
0
LINE
8
BLACK
6
CONTINUOUS
10
-4.26863
20
5.59169
11
-4.27838
21
5.59169
0
LINE
8
BLACK
6
CONTINUOUS
10
-4.27838
20
5.59169
11
-4.27921
21
5.59204
0
LINE
8
BLACK
6
CONTINUOUS
10
-4.25355
20
5.60946
11
-4.2532
21
5.60862
0
LINE
8
BLACK
6
CONTINUOUS
10
-4.2532
20
5.60862
11
-4.2532
21
5.59288
0
LINE
8
BLACK
6
CONTINUOUS
10
-4.2532
20
5.59288
11
-4.25355
21
5.59204
0
LINE
8
BLACK
6
CONTINUOUS
10
-4.25355
20
5.59204
11
-4.25438
21
5.59169
0
LINE
8
BLACK
6
CONTINUOUS
10
-4.25438
20
5.59169
11
-4.25522
21
5.59204
0
LINE
8
BLACK
6
CONTINUOUS
10
-4.25522
20
5.59204
11
-4.25556
21
5.59288
0
LINE
8
BLACK
6
CONTINUOUS
10
-4.25556
20
5.59288
11
-4.25556
21
5.59919
0
LINE
8
BLACK
6
CONTINUOUS
10
-4.25556
20
5.59919
11
-4.25751
21
5.59919
0
LINE
8
BLACK
6
CONTINUOUS
10
-4.25751
20
5.59919
11
-4.26241
21
5.5922
0
LINE
8
BLACK
6
CONTINUOUS
10
-4.26241
20
5.5922
11
-4.26317
21
5.59171
0
LINE
8
BLACK
6
CONTINUOUS
10
-4.26317
20
5.59171
11
-4.26406
21
5.59191
0
LINE
8
BLACK
6
CONTINUOUS
10
-4.26406
20
5.59191
11
-4.26454
21
5.59267
0
LINE
8
BLACK
6
CONTINUOUS
10
-4.26454
20
5.59267
11
-4.26435
21
5.59355
0
LINE
8
BLACK
6
CONTINUOUS
10
-4.26435
20
5.59355
11
-4.26039
21
5.5992
0
LINE
8
BLACK
6
CONTINUOUS
10
-4.26039
20
5.5992
11
-4.26063
21
5.5993
0
LINE
8
BLACK
6
CONTINUOUS
10
-4.26063
20
5.5993
11
-4.26091
21
5.59932
0
LINE
8
BLACK
6
CONTINUOUS
10
-4.26091
20
5.59932
11
-4.26241
21
5.60007
0
LINE
8
BLACK
6
CONTINUOUS
10
-4.26241
20
5.60007
11
-4.26254
21
5.60022
0
LINE
8
BLACK
6
CONTINUOUS
10
-4.26254
20
5.60022
11
-4.26271
21
5.60029
0
LINE
8
BLACK
6
CONTINUOUS
10
-4.26271
20
5.60029
11
-4.26346
21
5.60104
0
LINE
8
BLACK
6
CONTINUOUS
10
-4.26346
20
5.60104
11
-4.26354
21
5.60122
0
LINE
8
BLACK
6
CONTINUOUS
10
-4.26354
20
5.60122
11
-4.26369
21
5.60135
0
LINE
8
BLACK
6
CONTINUOUS
10
-4.26369
20
5.60135
11
-4.26444
21
5.60285
0
LINE
8
BLACK
6
CONTINUOUS
10
-4.26444
20
5.60285
11
-4.26446
21
5.60312
0
LINE
8
BLACK
6
CONTINUOUS
10
-4.26446
20
5.60312
11
-4.26456
21
5.60337
0
LINE
8
BLACK
6
CONTINUOUS
10
-4.26456
20
5.60337
11
-4.26456
21
5.60562
0
LINE
8
BLACK
6
CONTINUOUS
10
-4.26456
20
5.60562
11
-4.26446
21
5.60588
0
LINE
8
BLACK
6
CONTINUOUS
10
-4.26446
20
5.60588
11
-4.26444
21
5.60615
0
LINE
8
BLACK
6
CONTINUOUS
10
-4.26444
20
5.60615
11
-4.26369
21
5.60765
0
LINE
8
BLACK
6
CONTINUOUS
10
-4.26369
20
5.60765
11
-4.26354
21
5.60778
0
LINE
8
BLACK
6
CONTINUOUS
10
-4.26354
20
5.60778
11
-4.26346
21
5.60796
0
LINE
8
BLACK
6
CONTINUOUS
10
-4.26346
20
5.60796
11
-4.26271
21
5.60871
0
LINE
8
BLACK
6
CONTINUOUS
10
-4.26271
20
5.60871
11
-4.26254
21
5.60878
0
LINE
8
BLACK
6
CONTINUOUS
10
-4.26254
20
5.60878
11
-4.26241
21
5.60893
0
LINE
8
BLACK
6
CONTINUOUS
10
-4.26241
20
5.60893
11
-4.26091
21
5.60968
0
LINE
8
BLACK
6
CONTINUOUS
10
-4.26091
20
5.60968
11
-4.26063
21
5.6097
0
LINE
8
BLACK
6
CONTINUOUS
10
-4.26063
20
5.6097
11
-4.26038
21
5.6098
0
LINE
8
BLACK
6
CONTINUOUS
10
-4.26038
20
5.6098
11
-4.25438
21
5.6098
0
LINE
8
BLACK
6
CONTINUOUS
10
-4.25438
20
5.6098
11
-4.25355
21
5.60946
0
LINE
8
BLACK
6
CONTINUOUS
10
-4.2601
20
5.60744
11
-4.26118
21
5.6069
0
LINE
8
BLACK
6
CONTINUOUS
10
-4.26118
20
5.6069
11
-4.26166
21
5.60642
0
LINE
8
BLACK
6
CONTINUOUS
10
-4.26166
20
5.60642
11
-4.2622
21
5.60535
0
LINE
8
BLACK
6
CONTINUOUS
10
-4.2622
20
5.60535
11
-4.2622
21
5.60365
0
LINE
8
BLACK
6
CONTINUOUS
10
-4.2622
20
5.60365
11
-4.26166
21
5.60257
0
LINE
8
BLACK
6
CONTINUOUS
10
-4.26166
20
5.60257
11
-4.26118
21
5.6021
0
LINE
8
BLACK
6
CONTINUOUS
10
-4.26118
20
5.6021
11
-4.2601
21
5.60156
0
LINE
8
BLACK
6
CONTINUOUS
10
-4.2601
20
5.60156
11
-4.25556
21
5.60156
0
LINE
8
BLACK
6
CONTINUOUS
10
-4.25556
20
5.60156
11
-4.25556
21
5.60744
0
LINE
8
BLACK
6
CONTINUOUS
10
-4.25556
20
5.60744
11
-4.2601
21
5.60744
0
LINE
8
BLACK
6
CONTINUOUS
10
-4.69742
20
5.59317
11
-4.69799
21
5.59457
0
LINE
8
BLACK
6
CONTINUOUS
10
-4.69799
20
5.59457
11
-4.69799
21
5.66543
0
LINE
8
BLACK
6
CONTINUOUS
10
-4.69799
20
5.66543
11
-4.69742
21
5.66683
0
LINE
8
BLACK
6
CONTINUOUS
10
-4.69742
20
5.66683
11
-4.69602
21
5.6674
0
LINE
8
BLACK
6
CONTINUOUS
10
-4.69602
20
5.6674
11
-4.57398
21
5.6674
0
LINE
8
BLACK
6
CONTINUOUS
10
-4.57398
20
5.6674
11
-4.57258
21
5.66683
0
LINE
8
BLACK
6
CONTINUOUS
10
-4.57258
20
5.66683
11
-4.57201
21
5.66543
0
LINE
8
BLACK
6
CONTINUOUS
10
-4.57201
20
5.66543
11
-4.57201
21
5.62016
0
LINE
8
BLACK
6
CONTINUOUS
10
-4.57201
20
5.62016
11
-4.57258
21
5.61877
0
LINE
8
BLACK
6
CONTINUOUS
10
-4.57258
20
5.61877
11
-4.59817
21
5.59317
0
LINE
8
BLACK
6
CONTINUOUS
10
-4.59817
20
5.59317
11
-4.59957
21
5.5926
0
LINE
8
BLACK
6
CONTINUOUS
10
-4.59957
20
5.5926
11
-4.69602
21
5.5926
0
LINE
8
BLACK
6
CONTINUOUS
10
-4.69602
20
5.5926
11
-4.69742
21
5.59317
0
LINE
8
BLACK
6
CONTINUOUS
10
-4.69406
20
5.66346
11
-4.69406
21
5.59654
0
LINE
8
BLACK
6
CONTINUOUS
10
-4.69406
20
5.59654
11
-4.60038
21
5.59654
0
LINE
8
BLACK
6
CONTINUOUS
10
-4.60038
20
5.59654
11
-4.57594
21
5.62097
0
LINE
8
BLACK
6
CONTINUOUS
10
-4.57594
20
5.62097
11
-4.57594
21
5.66346
0
LINE
8
BLACK
6
CONTINUOUS
10
-4.57594
20
5.66346
11
-4.69406
21
5.66346
0
LINE
8
BLACK
6
CONTINUOUS
10
-4.63771
20
5.64182
11
-4.63727
21
5.64078
0
LINE
8
BLACK
6
CONTINUOUS
10
-4.63727
20
5.64078
11
-4.63771
21
5.63974
0
LINE
8
BLACK
6
CONTINUOUS
10
-4.63771
20
5.63974
11
-4.63875
21
5.6393
0
LINE
8
BLACK
6
CONTINUOUS
10
-4.63875
20
5.6393
11
-4.64768
21
5.6393
0
LINE
8
BLACK
6
CONTINUOUS
10
-4.64768
20
5.6393
11
-4.64326
21
5.63425
0
LINE
8
BLACK
6
CONTINUOUS
10
-4.64326
20
5.63425
11
-4.6431
21
5.63376
0
LINE
8
BLACK
6
CONTINUOUS
10
-4.6431
20
5.63376
11
-4.6429
21
5.63328
0
LINE
8
BLACK
6
CONTINUOUS
10
-4.6429
20
5.63328
11
-4.64292
21
5.63323
0
LINE
8
BLACK
6
CONTINUOUS
10
-4.64292
20
5.63323
11
-4.6429
21
5.63318
0
LINE
8
BLACK
6
CONTINUOUS
10
-4.6429
20
5.63318
11
-4.64313
21
5.63272
0
LINE
8
BLACK
6
CONTINUOUS
10
-4.64313
20
5.63272
11
-4.64333
21
5.63224
0
LINE
8
BLACK
6
CONTINUOUS
10
-4.64333
20
5.63224
11
-4.64338
21
5.63222
0
LINE
8
BLACK
6
CONTINUOUS
10
-4.64338
20
5.63222
11
-4.6434
21
5.63217
0
LINE
8
BLACK
6
CONTINUOUS
10
-4.6434
20
5.63217
11
-4.64389
21
5.632
0
LINE
8
BLACK
6
CONTINUOUS
10
-4.64389
20
5.632
11
-4.64437
21
5.6318
0
LINE
8
BLACK
6
CONTINUOUS
10
-4.64437
20
5.6318
11
-4.64684
21
5.6318
0
LINE
8
BLACK
6
CONTINUOUS
10
-4.64684
20
5.6318
11
-4.64819
21
5.63113
0
LINE
8
BLACK
6
CONTINUOUS
10
-4.64819
20
5.63113
11
-4.64878
21
5.63053
0
LINE
8
BLACK
6
CONTINUOUS
10
-4.64878
20
5.63053
11
-4.64946
21
5.62918
0
LINE
8
BLACK
6
CONTINUOUS
10
-4.64946
20
5.62918
11
-4.64946
21
5.62519
0
LINE
8
BLACK
6
CONTINUOUS
10
-4.64946
20
5.62519
11
-4.64878
21
5.62384
0
LINE
8
BLACK
6
CONTINUOUS
10
-4.64878
20
5.62384
11
-4.64819
21
5.62325
0
LINE
8
BLACK
6
CONTINUOUS
10
-4.64819
20
5.62325
11
-4.64684
21
5.62257
0
LINE
8
BLACK
6
CONTINUOUS
10
-4.64684
20
5.62257
11
-4.64191
21
5.62257
0
LINE
8
BLACK
6
CONTINUOUS
10
-4.64191
20
5.62257
11
-4.64056
21
5.62325
0
LINE
8
BLACK
6
CONTINUOUS
10
-4.64056
20
5.62325
11
-4.63979
21
5.62401
0
LINE
8
BLACK
6
CONTINUOUS
10
-4.63979
20
5.62401
11
-4.63875
21
5.62445
0
LINE
8
BLACK
6
CONTINUOUS
10
-4.63875
20
5.62445
11
-4.63771
21
5.62401
0
LINE
8
BLACK
6
CONTINUOUS
10
-4.63771
20
5.62401
11
-4.63727
21
5.62297
0
LINE
8
BLACK
6
CONTINUOUS
10
-4.63727
20
5.62297
11
-4.63771
21
5.62193
0
LINE
8
BLACK
6
CONTINUOUS
10
-4.63771
20
5.62193
11
-4.63864
21
5.62099
0
LINE
8
BLACK
6
CONTINUOUS
10
-4.63864
20
5.62099
11
-4.63887
21
5.6209
0
LINE
8
BLACK
6
CONTINUOUS
10
-4.63887
20
5.6209
11
-4.63903
21
5.62071
0
LINE
8
BLACK
6
CONTINUOUS
10
-4.63903
20
5.62071
11
-4.6409
21
5.61977
0
LINE
8
BLACK
6
CONTINUOUS
10
-4.6409
20
5.61977
11
-4.64124
21
5.61975
0
LINE
8
BLACK
6
CONTINUOUS
10
-4.64124
20
5.61975
11
-4.64156
21
5.61962
0
LINE
8
BLACK
6
CONTINUOUS
10
-4.64156
20
5.61962
11
-4.64719
21
5.61962
0
LINE
8
BLACK
6
CONTINUOUS
10
-4.64719
20
5.61962
11
-4.6475
21
5.61975
0
LINE
8
BLACK
6
CONTINUOUS
10
-4.6475
20
5.61975
11
-4.64785
21
5.61977
0
LINE
8
BLACK
6
CONTINUOUS
10
-4.64785
20
5.61977
11
-4.64972
21
5.62071
0
LINE
8
BLACK
6
CONTINUOUS
10
-4.64972
20
5.62071
11
-4.64988
21
5.6209
0
LINE
8
BLACK
6
CONTINUOUS
10
-4.64988
20
5.6209
11
-4.6501
21
5.62099
0
LINE
8
BLACK
6
CONTINUOUS
10
-4.6501
20
5.62099
11
-4.65104
21
5.62193
0
LINE
8
BLACK
6
CONTINUOUS
10
-4.65104
20
5.62193
11
-4.65114
21
5.62215
0
LINE
8
BLACK
6
CONTINUOUS
10
-4.65114
20
5.62215
11
-4.65132
21
5.62231
0
LINE
8
BLACK
6
CONTINUOUS
10
-4.65132
20
5.62231
11
-4.65226
21
5.62418
0
LINE
8
BLACK
6
CONTINUOUS
10
-4.65226
20
5.62418
11
-4.65228
21
5.62453
0
LINE
8
BLACK
6
CONTINUOUS
10
-4.65228
20
5.62453
11
-4.65241
21
5.62484
0
LINE
8
BLACK
6
CONTINUOUS
10
-4.65241
20
5.62484
11
-4.65241
21
5.62953
0
LINE
8
BLACK
6
CONTINUOUS
10
-4.65241
20
5.62953
11
-4.65228
21
5.62985
0
LINE
8
BLACK
6
CONTINUOUS
10
-4.65228
20
5.62985
11
-4.65226
21
5.63019
0
LINE
8
BLACK
6
CONTINUOUS
10
-4.65226
20
5.63019
11
-4.65132
21
5.63207
0
LINE
8
BLACK
6
CONTINUOUS
10
-4.65132
20
5.63207
11
-4.65114
21
5.63223
0
LINE
8
BLACK
6
CONTINUOUS
10
-4.65114
20
5.63223
11
-4.65104
21
5.63245
0
LINE
8
BLACK
6
CONTINUOUS
10
-4.65104
20
5.63245
11
-4.6501
21
5.63339
0
LINE
8
BLACK
6
CONTINUOUS
10
-4.6501
20
5.63339
11
-4.64988
21
5.63348
0
LINE
8
BLACK
6
CONTINUOUS
10
-4.64988
20
5.63348
11
-4.64972
21
5.63366
0
LINE
8
BLACK
6
CONTINUOUS
10
-4.64972
20
5.63366
11
-4.64785
21
5.6346
0
LINE
8
BLACK
6
CONTINUOUS
10
-4.64785
20
5.6346
11
-4.64751
21
5.63463
0
LINE
8
BLACK
6
CONTINUOUS
10
-4.64751
20
5.63463
11
-4.65205
21
5.63981
0
LINE
8
BLACK
6
CONTINUOUS
10
-4.65205
20
5.63981
11
-4.65221
21
5.6403
0
LINE
8
BLACK
6
CONTINUOUS
10
-4.65221
20
5.6403
11
-4.65241
21
5.64078
0
LINE
8
BLACK
6
CONTINUOUS
10
-4.65241
20
5.64078
11
-4.65239
21
5.64083
0
LINE
8
BLACK
6
CONTINUOUS
10
-4.65239
20
5.64083
11
-4.65241
21
5.64088
0
LINE
8
BLACK
6
CONTINUOUS
10
-4.65241
20
5.64088
11
-4.65218
21
5.64134
0
LINE
8
BLACK
6
CONTINUOUS
10
-4.65218
20
5.64134
11
-4.65198
21
5.64182
0
LINE
8
BLACK
6
CONTINUOUS
10
-4.65198
20
5.64182
11
-4.65193
21
5.64184
0
LINE
8
BLACK
6
CONTINUOUS
10
-4.65193
20
5.64184
11
-4.65191
21
5.64189
0
LINE
8
BLACK
6
CONTINUOUS
10
-4.65191
20
5.64189
11
-4.65142
21
5.64206
0
LINE
8
BLACK
6
CONTINUOUS
10
-4.65142
20
5.64206
11
-4.65094
21
5.64226
0
LINE
8
BLACK
6
CONTINUOUS
10
-4.65094
20
5.64226
11
-4.63875
21
5.64226
0
LINE
8
BLACK
6
CONTINUOUS
10
-4.63875
20
5.64226
11
-4.63771
21
5.64182
0
LINE
8
BLACK
6
CONTINUOUS
10
-4.61896
20
5.64182
11
-4.61853
21
5.64078
0
LINE
8
BLACK
6
CONTINUOUS
10
-4.61853
20
5.64078
11
-4.61853
21
5.62484
0
LINE
8
BLACK
6
CONTINUOUS
10
-4.61853
20
5.62484
11
-4.61866
21
5.62453
0
LINE
8
BLACK
6
CONTINUOUS
10
-4.61866
20
5.62453
11
-4.61868
21
5.62418
0
LINE
8
BLACK
6
CONTINUOUS
10
-4.61868
20
5.62418
11
-4.61962
21
5.62231
0
LINE
8
BLACK
6
CONTINUOUS
10
-4.61962
20
5.62231
11
-4.6198
21
5.62215
0
LINE
8
BLACK
6
CONTINUOUS
10
-4.6198
20
5.62215
11
-4.6199
21
5.62193
0
LINE
8
BLACK
6
CONTINUOUS
10
-4.6199
20
5.62193
11
-4.62083
21
5.62099
0
LINE
8
BLACK
6
CONTINUOUS
10
-4.62083
20
5.62099
11
-4.62106
21
5.6209
0
LINE
8
BLACK
6
CONTINUOUS
10
-4.62106
20
5.6209
11
-4.62122
21
5.62071
0
LINE
8
BLACK
6
CONTINUOUS
10
-4.62122
20
5.62071
11
-4.62309
21
5.61977
0
LINE
8
BLACK
6
CONTINUOUS
10
-4.62309
20
5.61977
11
-4.62343
21
5.61975
0
LINE
8
BLACK
6
CONTINUOUS
10
-4.62343
20
5.61975
11
-4.62375
21
5.61962
0
LINE
8
BLACK
6
CONTINUOUS
10
-4.62375
20
5.61962
11
-4.6275
21
5.61962
0
LINE
8
BLACK
6
CONTINUOUS
10
-4.6275
20
5.61962
11
-4.62782
21
5.61975
0
LINE
8
BLACK
6
CONTINUOUS
10
-4.62782
20
5.61975
11
-4.62816
21
5.61977
0
LINE
8
BLACK
6
CONTINUOUS
10
-4.62816
20
5.61977
11
-4.63004
21
5.62071
0
LINE
8
BLACK
6
CONTINUOUS
10
-4.63004
20
5.62071
11
-4.6302
21
5.6209
0
LINE
8
BLACK
6
CONTINUOUS
10
-4.6302
20
5.6209
11
-4.63042
21
5.62099
0
LINE
8
BLACK
6
CONTINUOUS
10
-4.63042
20
5.62099
11
-4.63136
21
5.62193
0
LINE
8
BLACK
6
CONTINUOUS
10
-4.63136
20
5.62193
11
-4.63145
21
5.62215
0
LINE
8
BLACK
6
CONTINUOUS
10
-4.63145
20
5.62215
11
-4.63163
21
5.62231
0
LINE
8
BLACK
6
CONTINUOUS
10
-4.63163
20
5.62231
11
-4.63257
21
5.62418
0
LINE
8
BLACK
6
CONTINUOUS
10
-4.63257
20
5.62418
11
-4.6326
21
5.62453
0
LINE
8
BLACK
6
CONTINUOUS
10
-4.6326
20
5.62453
11
-4.63273
21
5.62484
0
LINE
8
BLACK
6
CONTINUOUS
10
-4.63273
20
5.62484
11
-4.63273
21
5.64078
0
LINE
8
BLACK
6
CONTINUOUS
10
-4.63273
20
5.64078
11
-4.63229
21
5.64182
0
LINE
8
BLACK
6
CONTINUOUS
10
-4.63229
20
5.64182
11
-4.63125
21
5.64226
0
LINE
8
BLACK
6
CONTINUOUS
10
-4.63125
20
5.64226
11
-4.63021
21
5.64182
0
LINE
8
BLACK
6
CONTINUOUS
10
-4.63021
20
5.64182
11
-4.62977
21
5.64078
0
LINE
8
BLACK
6
CONTINUOUS
10
-4.62977
20
5.64078
11
-4.62977
21
5.62519
0
LINE
8
BLACK
6
CONTINUOUS
10
-4.62977
20
5.62519
11
-4.6291
21
5.62384
0
LINE
8
BLACK
6
CONTINUOUS
10
-4.6291
20
5.62384
11
-4.6285
21
5.62325
0
LINE
8
BLACK
6
CONTINUOUS
10
-4.6285
20
5.62325
11
-4.62715
21
5.62257
0
LINE
8
BLACK
6
CONTINUOUS
10
-4.62715
20
5.62257
11
-4.6241
21
5.62257
0
LINE
8
BLACK
6
CONTINUOUS
10
-4.6241
20
5.62257
11
-4.62275
21
5.62325
0
LINE
8
BLACK
6
CONTINUOUS
10
-4.62275
20
5.62325
11
-4.62215
21
5.62384
0
LINE
8
BLACK
6
CONTINUOUS
10
-4.62215
20
5.62384
11
-4.62148
21
5.62519
0
LINE
8
BLACK
6
CONTINUOUS
10
-4.62148
20
5.62519
11
-4.62148
21
5.64078
0
LINE
8
BLACK
6
CONTINUOUS
10
-4.62148
20
5.64078
11
-4.62105
21
5.64182
0
LINE
8
BLACK
6
CONTINUOUS
10
-4.62105
20
5.64182
11
-4.62
21
5.64226
0
LINE
8
BLACK
6
CONTINUOUS
10
-4.62
20
5.64226
11
-4.61896
21
5.64182
0
LINE
8
BLACK
6
CONTINUOUS
10
-3.98549
20
5.63467
11
-3.98606
21
5.63606
0
LINE
8
BLACK
6
CONTINUOUS
10
-3.98606
20
5.63606
11
-3.98606
21
5.73449
0
LINE
8
BLACK
6
CONTINUOUS
10
-3.98606
20
5.73449
11
-3.98549
21
5.73588
0
LINE
8
BLACK
6
CONTINUOUS
10
-3.98549
20
5.73588
11
-3.98409
21
5.73646
0
LINE
8
BLACK
6
CONTINUOUS
10
-3.98409
20
5.73646
11
-3.88567
21
5.73646
0
LINE
8
BLACK
6
CONTINUOUS
10
-3.88567
20
5.73646
11
-3.88428
21
5.73588
0
LINE
8
BLACK
6
CONTINUOUS
10
-3.88428
20
5.73588
11
-3.8837
21
5.73449
0
LINE
8
BLACK
6
CONTINUOUS
10
-3.8837
20
5.73449
11
-3.8837
21
5.65575
0
LINE
8
BLACK
6
CONTINUOUS
10
-3.8837
20
5.65575
11
-3.88428
21
5.65436
0
LINE
8
BLACK
6
CONTINUOUS
10
-3.88428
20
5.65436
11
-3.90396
21
5.63467
0
LINE
8
BLACK
6
CONTINUOUS
10
-3.90396
20
5.63467
11
-3.90535
21
5.63409
0
LINE
8
BLACK
6
CONTINUOUS
10
-3.90535
20
5.63409
11
-3.98409
21
5.63409
0
LINE
8
BLACK
6
CONTINUOUS
10
-3.98409
20
5.63409
11
-3.98549
21
5.63467
0
LINE
8
BLACK
6
CONTINUOUS
10
-3.98213
20
5.73252
11
-3.98213
21
5.63803
0
LINE
8
BLACK
6
CONTINUOUS
10
-3.98213
20
5.63803
11
-3.90617
21
5.63803
0
LINE
8
BLACK
6
CONTINUOUS
10
-3.90617
20
5.63803
11
-3.88764
21
5.65656
0
LINE
8
BLACK
6
CONTINUOUS
10
-3.88764
20
5.65656
11
-3.88764
21
5.73252
0
LINE
8
BLACK
6
CONTINUOUS
10
-3.88764
20
5.73252
11
-3.98213
21
5.73252
0
LINE
8
BLACK
6
CONTINUOUS
10
-3.92692
20
5.68236
11
-3.92658
21
5.68153
0
LINE
8
BLACK
6
CONTINUOUS
10
-3.92658
20
5.68153
11
-3.92658
21
5.67253
0
LINE
8
BLACK
6
CONTINUOUS
10
-3.92658
20
5.67253
11
-3.92692
21
5.67169
0
LINE
8
BLACK
6
CONTINUOUS
10
-3.92692
20
5.67169
11
-3.92776
21
5.67135
0
LINE
8
BLACK
6
CONTINUOUS
10
-3.92776
20
5.67135
11
-3.92859
21
5.67169
0
LINE
8
BLACK
6
CONTINUOUS
10
-3.92859
20
5.67169
11
-3.92894
21
5.67253
0
LINE
8
BLACK
6
CONTINUOUS
10
-3.92894
20
5.67253
11
-3.92894
21
5.67585
0
LINE
8
BLACK
6
CONTINUOUS
10
-3.92894
20
5.67585
11
-3.94351
21
5.67585
0
LINE
8
BLACK
6
CONTINUOUS
10
-3.94351
20
5.67585
11
-3.94362
21
5.67589
0
LINE
8
BLACK
6
CONTINUOUS
10
-3.94362
20
5.67589
11
-3.94374
21
5.67587
0
LINE
8
BLACK
6
CONTINUOUS
10
-3.94374
20
5.67587
11
-3.94402
21
5.67606
0
LINE
8
BLACK
6
CONTINUOUS
10
-3.94402
20
5.67606
11
-3.94434
21
5.67619
0
LINE
8
BLACK
6
CONTINUOUS
10
-3.94434
20
5.67619
11
-3.94439
21
5.6763
0
LINE
8
BLACK
6
CONTINUOUS
10
-3.94439
20
5.6763
11
-3.94449
21
5.67637
0
LINE
8
BLACK
6
CONTINUOUS
10
-3.94449
20
5.67637
11
-3.94456
21
5.67671
0
LINE
8
BLACK
6
CONTINUOUS
10
-3.94456
20
5.67671
11
-3.94469
21
5.67703
0
LINE
8
BLACK
6
CONTINUOUS
10
-3.94469
20
5.67703
11
-3.94464
21
5.67714
0
LINE
8
BLACK
6
CONTINUOUS
10
-3.94464
20
5.67714
11
-3.94466
21
5.67726
0
LINE
8
BLACK
6
CONTINUOUS
10
-3.94466
20
5.67726
11
-3.94447
21
5.67754
0
LINE
8
BLACK
6
CONTINUOUS
10
-3.94447
20
5.67754
11
-3.94434
21
5.67786
0
LINE
8
BLACK
6
CONTINUOUS
10
-3.94434
20
5.67786
11
-3.94423
21
5.67791
0
LINE
8
BLACK
6
CONTINUOUS
10
-3.94423
20
5.67791
11
-3.94416
21
5.67801
0
LINE
8
BLACK
6
CONTINUOUS
10
-3.94416
20
5.67801
11
-3.94201
21
5.67944
0
LINE
8
BLACK
6
CONTINUOUS
10
-3.94201
20
5.67944
11
-3.94073
21
5.68073
0
LINE
8
BLACK
6
CONTINUOUS
10
-3.94073
20
5.68073
11
-3.94006
21
5.68205
0
LINE
8
BLACK
6
CONTINUOUS
10
-3.94006
20
5.68205
11
-3.93938
21
5.68265
0
LINE
8
BLACK
6
CONTINUOUS
10
-3.93938
20
5.68265
11
-3.93848
21
5.68258
0
LINE
8
BLACK
6
CONTINUOUS
10
-3.93848
20
5.68258
11
-3.93789
21
5.6819
0
LINE
8
BLACK
6
CONTINUOUS
10
-3.93789
20
5.6819
11
-3.93795
21
5.681
0
LINE
8
BLACK
6
CONTINUOUS
10
-3.93795
20
5.681
11
-3.9387
21
5.6795
0
LINE
8
BLACK
6
CONTINUOUS
10
-3.9387
20
5.6795
11
-3.93885
21
5.67937
0
LINE
8
BLACK
6
CONTINUOUS
10
-3.93885
20
5.67937
11
-3.93892
21
5.67919
0
LINE
8
BLACK
6
CONTINUOUS
10
-3.93892
20
5.67919
11
-3.9399
21
5.67821
0
LINE
8
BLACK
6
CONTINUOUS
10
-3.9399
20
5.67821
11
-3.92894
21
5.67821
0
LINE
8
BLACK
6
CONTINUOUS
10
-3.92894
20
5.67821
11
-3.92894
21
5.68153
0
LINE
8
BLACK
6
CONTINUOUS
10
-3.92894
20
5.68153
11
-3.92859
21
5.68236
0
LINE
8
BLACK
6
CONTINUOUS
10
-3.92859
20
5.68236
11
-3.92776
21
5.68271
0
LINE
8
BLACK
6
CONTINUOUS
10
-3.92776
20
5.68271
11
-3.92692
21
5.68236
0
LINE
8
BLACK
6
CONTINUOUS
10
-3.9305
20
5.69835
11
-3.93023
21
5.69833
0
LINE
8
BLACK
6
CONTINUOUS
10
-3.93023
20
5.69833
11
-3.92873
21
5.69758
0
LINE
8
BLACK
6
CONTINUOUS
10
-3.92873
20
5.69758
11
-3.9286
21
5.69743
0
LINE
8
BLACK
6
CONTINUOUS
10
-3.9286
20
5.69743
11
-3.92842
21
5.69736
0
LINE
8
BLACK
6
CONTINUOUS
10
-3.92842
20
5.69736
11
-3.92767
21
5.69661
0
LINE
8
BLACK
6
CONTINUOUS
10
-3.92767
20
5.69661
11
-3.9276
21
5.69643
0
LINE
8
BLACK
6
CONTINUOUS
10
-3.9276
20
5.69643
11
-3.92745
21
5.6963
0
LINE
8
BLACK
6
CONTINUOUS
10
-3.92745
20
5.6963
11
-3.9267
21
5.6948
0
LINE
8
BLACK
6
CONTINUOUS
10
-3.9267
20
5.6948
11
-3.92668
21
5.69453
0
LINE
8
BLACK
6
CONTINUOUS
10
-3.92668
20
5.69453
11
-3.92658
21
5.69427
0
LINE
8
BLACK
6
CONTINUOUS
10
-3.92658
20
5.69427
11
-3.92658
21
5.69127
0
LINE
8
BLACK
6
CONTINUOUS
10
-3.92658
20
5.69127
11
-3.92668
21
5.69102
0
LINE
8
BLACK
6
CONTINUOUS
10
-3.92668
20
5.69102
11
-3.9267
21
5.69075
0
LINE
8
BLACK
6
CONTINUOUS
10
-3.9267
20
5.69075
11
-3.92745
21
5.68925
0
LINE
8
BLACK
6
CONTINUOUS
10
-3.92745
20
5.68925
11
-3.9276
21
5.68912
0
LINE
8
BLACK
6
CONTINUOUS
10
-3.9276
20
5.68912
11
-3.92767
21
5.68894
0
LINE
8
BLACK
6
CONTINUOUS
10
-3.92767
20
5.68894
11
-3.92842
21
5.68819
0
LINE
8
BLACK
6
CONTINUOUS
10
-3.92842
20
5.68819
11
-3.9286
21
5.68812
0
LINE
8
BLACK
6
CONTINUOUS
10
-3.9286
20
5.68812
11
-3.92873
21
5.68797
0
LINE
8
BLACK
6
CONTINUOUS
10
-3.92873
20
5.68797
11
-3.93023
21
5.68722
0
LINE
8
BLACK
6
CONTINUOUS
10
-3.93023
20
5.68722
11
-3.9305
21
5.6872
0
LINE
8
BLACK
6
CONTINUOUS
10
-3.9305
20
5.6872
11
-3.93076
21
5.68709
0
LINE
8
BLACK
6
CONTINUOUS
10
-3.93076
20
5.68709
11
-3.94351
21
5.68709
0
LINE
8
BLACK
6
CONTINUOUS
10
-3.94351
20
5.68709
11
-3.94434
21
5.68744
0
LINE
8
BLACK
6
CONTINUOUS
10
-3.94434
20
5.68744
11
-3.94469
21
5.68828
0
LINE
8
BLACK
6
CONTINUOUS
10
-3.94469
20
5.68828
11
-3.94434
21
5.68911
0
LINE
8
BLACK
6
CONTINUOUS
10
-3.94434
20
5.68911
11
-3.94351
21
5.68946
0
LINE
8
BLACK
6
CONTINUOUS
10
-3.94351
20
5.68946
11
-3.93104
21
5.68946
0
LINE
8
BLACK
6
CONTINUOUS
10
-3.93104
20
5.68946
11
-3.92996
21
5.69
0
LINE
8
BLACK
6
CONTINUOUS
10
-3.92996
20
5.69
11
-3.92948
21
5.69047
0
LINE
8
BLACK
6
CONTINUOUS
10
-3.92948
20
5.69047
11
-3.92894
21
5.69155
0
LINE
8
BLACK
6
CONTINUOUS
10
-3.92894
20
5.69155
11
-3.92894
21
5.694
0
LINE
8
BLACK
6
CONTINUOUS
10
-3.92894
20
5.694
11
-3.92948
21
5.69507
0
LINE
8
BLACK
6
CONTINUOUS
10
-3.92948
20
5.69507
11
-3.92996
21
5.69555
0
LINE
8
BLACK
6
CONTINUOUS
10
-3.92996
20
5.69555
11
-3.93104
21
5.69609
0
LINE
8
BLACK
6
CONTINUOUS
10
-3.93104
20
5.69609
11
-3.94351
21
5.69609
0
LINE
8
BLACK
6
CONTINUOUS
10
-3.94351
20
5.69609
11
-3.94434
21
5.69644
0
LINE
8
BLACK
6
CONTINUOUS
10
-3.94434
20
5.69644
11
-3.94469
21
5.69727
0
LINE
8
BLACK
6
CONTINUOUS
10
-3.94469
20
5.69727
11
-3.94434
21
5.69811
0
LINE
8
BLACK
6
CONTINUOUS
10
-3.94434
20
5.69811
11
-3.94351
21
5.69846
0
LINE
8
BLACK
6
CONTINUOUS
10
-3.94351
20
5.69846
11
-3.93076
21
5.69846
0
LINE
8
BLACK
6
CONTINUOUS
10
-3.93076
20
5.69846
11
-3.9305
21
5.69835
0
LINE
8
BLACK
6
CONTINUOUS
10
-4.58274
20
5.7594
11
-4.58205
21
5.7575
0
LINE
8
BLACK
6
CONTINUOUS
10
-4.58205
20
5.7575
11
-4.58205
21
5.7175
0
LINE
8
BLACK
6
CONTINUOUS
10
-4.58205
20
5.7175
11
-4.58211
21
5.71712
0
LINE
8
BLACK
6
CONTINUOUS
10
-4.58211
20
5.71712
11
-4.58209
21
5.71699
0
LINE
8
BLACK
6
CONTINUOUS
10
-4.58209
20
5.71699
11
-4.58216
21
5.71687
0
LINE
8
BLACK
6
CONTINUOUS
10
-4.58216
20
5.71687
11
-4.58223
21
5.71649
0
LINE
8
BLACK
6
CONTINUOUS
10
-4.58223
20
5.71649
11
-4.58272
21
5.7159
0
LINE
8
BLACK
6
CONTINUOUS
10
-4.58272
20
5.7159
11
-4.5831
21
5.71524
0
LINE
8
BLACK
6
CONTINUOUS
10
-4.5831
20
5.71524
11
-4.58335
21
5.71515
0
LINE
8
BLACK
6
CONTINUOUS
10
-4.58335
20
5.71515
11
-4.58352
21
5.71494
0
LINE
8
BLACK
6
CONTINUOUS
10
-4.58352
20
5.71494
11
-4.58428
21
5.71481
0
LINE
8
BLACK
6
CONTINUOUS
10
-4.58428
20
5.71481
11
-4.585
21
5.71455
0
LINE
8
BLACK
6
CONTINUOUS
10
-4.585
20
5.71455
11
-4.645
21
5.71455
0
LINE
8
BLACK
6
CONTINUOUS
10
-4.645
20
5.71455
11
-4.64538
21
5.71461
0
LINE
8
BLACK
6
CONTINUOUS
10
-4.64538
20
5.71461
11
-4.64551
21
5.71459
0
LINE
8
BLACK
6
CONTINUOUS
10
-4.64551
20
5.71459
11
-4.64563
21
5.71466
0
LINE
8
BLACK
6
CONTINUOUS
10
-4.64563
20
5.71466
11
-4.64601
21
5.71473
0
LINE
8
BLACK
6
CONTINUOUS
10
-4.64601
20
5.71473
11
-4.6466
21
5.71522
0
LINE
8
BLACK
6
CONTINUOUS
10
-4.6466
20
5.71522
11
-4.64726
21
5.7156
0
LINE
8
BLACK
6
CONTINUOUS
10
-4.64726
20
5.7156
11
-4.64735
21
5.71585
0
LINE
8
BLACK
6
CONTINUOUS
10
-4.64735
20
5.71585
11
-4.64756
21
5.71602
0
LINE
8
BLACK
6
CONTINUOUS
10
-4.64756
20
5.71602
11
-4.64769
21
5.71678
0
LINE
8
BLACK
6
CONTINUOUS
10
-4.64769
20
5.71678
11
-4.64795
21
5.7175
0
LINE
8
BLACK
6
CONTINUOUS
10
-4.64795
20
5.7175
11
-4.64795
21
5.7575
0
LINE
8
BLACK
6
CONTINUOUS
10
-4.64795
20
5.7575
11
-4.64777
21
5.75851
0
LINE
8
BLACK
6
CONTINUOUS
10
-4.64777
20
5.75851
11
-4.64648
21
5.76006
0
LINE
8
BLACK
6
CONTINUOUS
10
-4.64648
20
5.76006
11
-4.64449
21
5.76041
0
LINE
8
BLACK
6
CONTINUOUS
10
-4.64449
20
5.76041
11
-4.64274
21
5.7594
0
LINE
8
BLACK
6
CONTINUOUS
10
-4.64274
20
5.7594
11
-4.64205
21
5.7575
0
LINE
8
BLACK
6
CONTINUOUS
10
-4.64205
20
5.7575
11
-4.64205
21
5.72045
0
LINE
8
BLACK
6
CONTINUOUS
10
-4.64205
20
5.72045
11
-4.58795
21
5.72045
0
LINE
8
BLACK
6
CONTINUOUS
10
-4.58795
20
5.72045
11
-4.58795
21
5.7575
0
LINE
8
BLACK
6
CONTINUOUS
10
-4.58795
20
5.7575
11
-4.58777
21
5.75851
0
LINE
8
BLACK
6
CONTINUOUS
10
-4.58777
20
5.75851
11
-4.58648
21
5.76006
0
LINE
8
BLACK
6
CONTINUOUS
10
-4.58648
20
5.76006
11
-4.58449
21
5.76041
0
LINE
8
BLACK
6
CONTINUOUS
10
-4.58449
20
5.76041
11
-4.58274
21
5.7594
0
LINE
8
BLACK
6
CONTINUOUS
10
-4.56214
20
5.73111
11
-4.56272
21
5.7325
0
LINE
8
BLACK
6
CONTINUOUS
10
-4.56272
20
5.7325
11
-4.56272
21
5.79549
0
LINE
8
BLACK
6
CONTINUOUS
10
-4.56272
20
5.79549
11
-4.56214
21
5.79688
0
LINE
8
BLACK
6
CONTINUOUS
10
-4.56214
20
5.79688
11
-4.56075
21
5.79746
0
LINE
8
BLACK
6
CONTINUOUS
10
-4.56075
20
5.79746
11
-4.52925
21
5.79746
0
LINE
8
BLACK
6
CONTINUOUS
10
-4.52925
20
5.79746
11
-4.52786
21
5.79688
0
LINE
8
BLACK
6
CONTINUOUS
10
-4.52786
20
5.79688
11
-4.52728
21
5.79549
0
LINE
8
BLACK
6
CONTINUOUS
10
-4.52728
20
5.79549
11
-4.52728
21
5.7325
0
LINE
8
BLACK
6
CONTINUOUS
10
-4.52728
20
5.7325
11
-4.52786
21
5.73111
0
LINE
8
BLACK
6
CONTINUOUS
10
-4.52786
20
5.73111
11
-4.52925
21
5.73053
0
LINE
8
BLACK
6
CONTINUOUS
10
-4.52925
20
5.73053
11
-4.56075
21
5.73053
0
LINE
8
BLACK
6
CONTINUOUS
10
-4.56075
20
5.73053
11
-4.56214
21
5.73111
0
LINE
8
BLACK
6
CONTINUOUS
10
-4.55878
20
5.79352
11
-4.55878
21
5.73447
0
LINE
8
BLACK
6
CONTINUOUS
10
-4.55878
20
5.73447
11
-4.53122
21
5.73447
0
LINE
8
BLACK
6
CONTINUOUS
10
-4.53122
20
5.73447
11
-4.53122
21
5.79352
0
LINE
8
BLACK
6
CONTINUOUS
10
-4.53122
20
5.79352
11
-4.55878
21
5.79352
0
LINE
8
BLACK
6
CONTINUOUS
10
-4.53704
20
5.76146
11
-4.53669
21
5.76062
0
LINE
8
BLACK
6
CONTINUOUS
10
-4.53669
20
5.76062
11
-4.53669
21
5.75162
0
LINE
8
BLACK
6
CONTINUOUS
10
-4.53669
20
5.75162
11
-4.53704
21
5.75079
0
LINE
8
BLACK
6
CONTINUOUS
10
-4.53704
20
5.75079
11
-4.53788
21
5.75044
0
LINE
8
BLACK
6
CONTINUOUS
10
-4.53788
20
5.75044
11
-4.53871
21
5.75079
0
LINE
8
BLACK
6
CONTINUOUS
10
-4.53871
20
5.75079
11
-4.53906
21
5.75162
0
LINE
8
BLACK
6
CONTINUOUS
10
-4.53906
20
5.75162
11
-4.53906
21
5.75494
0
LINE
8
BLACK
6
CONTINUOUS
10
-4.53906
20
5.75494
11
-4.55362
21
5.75494
0
LINE
8
BLACK
6
CONTINUOUS
10
-4.55362
20
5.75494
11
-4.55374
21
5.75499
0
LINE
8
BLACK
6
CONTINUOUS
10
-4.55374
20
5.75499
11
-4.55386
21
5.75496
0
LINE
8
BLACK
6
CONTINUOUS
10
-4.55386
20
5.75496
11
-4.55414
21
5.75516
0
LINE
8
BLACK
6
CONTINUOUS
10
-4.55414
20
5.75516
11
-4.55446
21
5.75529
0
LINE
8
BLACK
6
CONTINUOUS
10
-4.55446
20
5.75529
11
-4.55451
21
5.7554
0
LINE
8
BLACK
6
CONTINUOUS
10
-4.55451
20
5.7554
11
-4.55461
21
5.75547
0
LINE
8
BLACK
6
CONTINUOUS
10
-4.55461
20
5.75547
11
-4.55467
21
5.7558
0
LINE
8
BLACK
6
CONTINUOUS
10
-4.55467
20
5.7558
11
-4.55481
21
5.75612
0
LINE
8
BLACK
6
CONTINUOUS
10
-4.55481
20
5.75612
11
-4.55476
21
5.75623
0
LINE
8
BLACK
6
CONTINUOUS
10
-4.55476
20
5.75623
11
-4.55478
21
5.75635
0
LINE
8
BLACK
6
CONTINUOUS
10
-4.55478
20
5.75635
11
-4.55459
21
5.75664
0
LINE
8
BLACK
6
CONTINUOUS
10
-4.55459
20
5.75664
11
-4.55446
21
5.75696
0
LINE
8
BLACK
6
CONTINUOUS
10
-4.55446
20
5.75696
11
-4.55435
21
5.757
0
LINE
8
BLACK
6
CONTINUOUS
10
-4.55435
20
5.757
11
-4.55428
21
5.7571
0
LINE
8
BLACK
6
CONTINUOUS
10
-4.55428
20
5.7571
11
-4.55213
21
5.75854
0
LINE
8
BLACK
6
CONTINUOUS
10
-4.55213
20
5.75854
11
-4.55085
21
5.75982
0
LINE
8
BLACK
6
CONTINUOUS
10
-4.55085
20
5.75982
11
-4.55018
21
5.76115
0
LINE
8
BLACK
6
CONTINUOUS
10
-4.55018
20
5.76115
11
-4.5495
21
5.76174
0
LINE
8
BLACK
6
CONTINUOUS
10
-4.5495
20
5.76174
11
-4.5486
21
5.76168
0
LINE
8
BLACK
6
CONTINUOUS
10
-4.5486
20
5.76168
11
-4.548
21
5.76099
0
LINE
8
BLACK
6
CONTINUOUS
10
-4.548
20
5.76099
11
-4.54807
21
5.76009
0
LINE
8
BLACK
6
CONTINUOUS
10
-4.54807
20
5.76009
11
-4.54882
21
5.75859
0
LINE
8
BLACK
6
CONTINUOUS
10
-4.54882
20
5.75859
11
-4.54896
21
5.75847
0
LINE
8
BLACK
6
CONTINUOUS
10
-4.54896
20
5.75847
11
-4.54904
21
5.75829
0
LINE
8
BLACK
6
CONTINUOUS
10
-4.54904
20
5.75829
11
-4.55002
21
5.7573
0
LINE
8
BLACK
6
CONTINUOUS
10
-4.55002
20
5.7573
11
-4.53906
21
5.7573
0
LINE
8
BLACK
6
CONTINUOUS
10
-4.53906
20
5.7573
11
-4.53906
21
5.76062
0
LINE
8
BLACK
6
CONTINUOUS
10
-4.53906
20
5.76062
11
-4.53871
21
5.76146
0
LINE
8
BLACK
6
CONTINUOUS
10
-4.53871
20
5.76146
11
-4.53788
21
5.7618
0
LINE
8
BLACK
6
CONTINUOUS
10
-4.53788
20
5.7618
11
-4.53704
21
5.76146
0
LINE
8
BLACK
6
CONTINUOUS
10
-4.54449
20
5.77749
11
-4.54434
21
5.77752
0
LINE
8
BLACK
6
CONTINUOUS
10
-4.54434
20
5.77752
11
-4.54134
21
5.77677
0
LINE
8
BLACK
6
CONTINUOUS
10
-4.54134
20
5.77677
11
-4.54123
21
5.77669
0
LINE
8
BLACK
6
CONTINUOUS
10
-4.54123
20
5.77669
11
-4.5411
21
5.77668
0
LINE
8
BLACK
6
CONTINUOUS
10
-4.5411
20
5.77668
11
-4.5396
21
5.77593
0
LINE
8
BLACK
6
CONTINUOUS
10
-4.5396
20
5.77593
11
-4.53947
21
5.77578
0
LINE
8
BLACK
6
CONTINUOUS
10
-4.53947
20
5.77578
11
-4.53929
21
5.7757
0
LINE
8
BLACK
6
CONTINUOUS
10
-4.53929
20
5.7757
11
-4.53779
21
5.77421
0
LINE
8
BLACK
6
CONTINUOUS
10
-4.53779
20
5.77421
11
-4.53769
21
5.77395
0
LINE
8
BLACK
6
CONTINUOUS
10
-4.53769
20
5.77395
11
-4.53751
21
5.77374
0
LINE
8
BLACK
6
CONTINUOUS
10
-4.53751
20
5.77374
11
-4.53676
21
5.77149
0
LINE
8
BLACK
6
CONTINUOUS
10
-4.53676
20
5.77149
11
-4.53677
21
5.7713
0
LINE
8
BLACK
6
CONTINUOUS
10
-4.53677
20
5.7713
11
-4.53669
21
5.77112
0
LINE
8
BLACK
6
CONTINUOUS
10
-4.53669
20
5.77112
11
-4.53669
21
5.76962
0
LINE
8
BLACK
6
CONTINUOUS
10
-4.53669
20
5.76962
11
-4.53677
21
5.76944
0
LINE
8
BLACK
6
CONTINUOUS
10
-4.53677
20
5.76944
11
-4.53676
21
5.76925
0
LINE
8
BLACK
6
CONTINUOUS
10
-4.53676
20
5.76925
11
-4.53751
21
5.767
0
LINE
8
BLACK
6
CONTINUOUS
10
-4.53751
20
5.767
11
-4.53769
21
5.76679
0
LINE
8
BLACK
6
CONTINUOUS
10
-4.53769
20
5.76679
11
-4.53779
21
5.76654
0
LINE
8
BLACK
6
CONTINUOUS
10
-4.53779
20
5.76654
11
-4.53854
21
5.76579
0
LINE
8
BLACK
6
CONTINUOUS
10
-4.53854
20
5.76579
11
-4.53938
21
5.76544
0
LINE
8
BLACK
6
CONTINUOUS
10
-4.53938
20
5.76544
11
-4.54021
21
5.76579
0
LINE
8
BLACK
6
CONTINUOUS
10
-4.54021
20
5.76579
11
-4.54056
21
5.76662
0
LINE
8
BLACK
6
CONTINUOUS
10
-4.54056
20
5.76662
11
-4.54021
21
5.76746
0
LINE
8
BLACK
6
CONTINUOUS
10
-4.54021
20
5.76746
11
-4.53966
21
5.76801
0
LINE
8
BLACK
6
CONTINUOUS
10
-4.53966
20
5.76801
11
-4.53906
21
5.76981
0
LINE
8
BLACK
6
CONTINUOUS
10
-4.53906
20
5.76981
11
-4.53906
21
5.77093
0
LINE
8
BLACK
6
CONTINUOUS
10
-4.53906
20
5.77093
11
-4.53966
21
5.77273
0
LINE
8
BLACK
6
CONTINUOUS
10
-4.53966
20
5.77273
11
-4.54083
21
5.7739
0
LINE
8
BLACK
6
CONTINUOUS
10
-4.54083
20
5.7739
11
-4.54204
21
5.77451
0
LINE
8
BLACK
6
CONTINUOUS
10
-4.54204
20
5.77451
11
-4.54477
21
5.77519
0
LINE
8
BLACK
6
CONTINUOUS
10
-4.54477
20
5.77519
11
-4.54673
21
5.77519
0
LINE
8
BLACK
6
CONTINUOUS
10
-4.54673
20
5.77519
11
-4.54946
21
5.77451
0
LINE
8
BLACK
6
CONTINUOUS
10
-4.54946
20
5.77451
11
-4.55067
21
5.7739
0
LINE
8
BLACK
6
CONTINUOUS
10
-4.55067
20
5.7739
11
-4.55184
21
5.77273
0
LINE
8
BLACK
6
CONTINUOUS
10
-4.55184
20
5.77273
11
-4.55244
21
5.77093
0
LINE
8
BLACK
6
CONTINUOUS
10
-4.55244
20
5.77093
11
-4.55244
21
5.76981
0
LINE
8
BLACK
6
CONTINUOUS
10
-4.55244
20
5.76981
11
-4.55184
21
5.76801
0
LINE
8
BLACK
6
CONTINUOUS
10
-4.55184
20
5.76801
11
-4.55129
21
5.76746
0
LINE
8
BLACK
6
CONTINUOUS
10
-4.55129
20
5.76746
11
-4.55094
21
5.76662
0
LINE
8
BLACK
6
CONTINUOUS
10
-4.55094
20
5.76662
11
-4.55129
21
5.76579
0
LINE
8
BLACK
6
CONTINUOUS
10
-4.55129
20
5.76579
11
-4.55212
21
5.76544
0
LINE
8
BLACK
6
CONTINUOUS
10
-4.55212
20
5.76544
11
-4.55296
21
5.76579
0
LINE
8
BLACK
6
CONTINUOUS
10
-4.55296
20
5.76579
11
-4.55371
21
5.76654
0
LINE
8
BLACK
6
CONTINUOUS
10
-4.55371
20
5.76654
11
-4.55381
21
5.76679
0
LINE
8
BLACK
6
CONTINUOUS
10
-4.55381
20
5.76679
11
-4.55399
21
5.767
0
LINE
8
BLACK
6
CONTINUOUS
10
-4.55399
20
5.767
11
-4.55474
21
5.76925
0
LINE
8
BLACK
6
CONTINUOUS
10
-4.55474
20
5.76925
11
-4.55473
21
5.76944
0
LINE
8
BLACK
6
CONTINUOUS
10
-4.55473
20
5.76944
11
-4.55481
21
5.76962
0
LINE
8
BLACK
6
CONTINUOUS
10
-4.55481
20
5.76962
11
-4.55481
21
5.77112
0
LINE
8
BLACK
6
CONTINUOUS
10
-4.55481
20
5.77112
11
-4.55473
21
5.7713
0
LINE
8
BLACK
6
CONTINUOUS
10
-4.55473
20
5.7713
11
-4.55474
21
5.77149
0
LINE
8
BLACK
6
CONTINUOUS
10
-4.55474
20
5.77149
11
-4.55399
21
5.77374
0
LINE
8
BLACK
6
CONTINUOUS
10
-4.55399
20
5.77374
11
-4.55381
21
5.77395
0
LINE
8
BLACK
6
CONTINUOUS
10
-4.55381
20
5.77395
11
-4.55371
21
5.77421
0
LINE
8
BLACK
6
CONTINUOUS
10
-4.55371
20
5.77421
11
-4.55221
21
5.7757
0
LINE
8
BLACK
6
CONTINUOUS
10
-4.55221
20
5.7757
11
-4.55203
21
5.77578
0
LINE
8
BLACK
6
CONTINUOUS
10
-4.55203
20
5.77578
11
-4.5519
21
5.77593
0
LINE
8
BLACK
6
CONTINUOUS
10
-4.5519
20
5.77593
11
-4.5504
21
5.77668
0
LINE
8
BLACK
6
CONTINUOUS
10
-4.5504
20
5.77668
11
-4.55027
21
5.77669
0
LINE
8
BLACK
6
CONTINUOUS
10
-4.55027
20
5.77669
11
-4.55016
21
5.77677
0
LINE
8
BLACK
6
CONTINUOUS
10
-4.55016
20
5.77677
11
-4.54716
21
5.77752
0
LINE
8
BLACK
6
CONTINUOUS
10
-4.54716
20
5.77752
11
-4.54701
21
5.77749
0
LINE
8
BLACK
6
CONTINUOUS
10
-4.54701
20
5.77749
11
-4.54687
21
5.77755
0
LINE
8
BLACK
6
CONTINUOUS
10
-4.54687
20
5.77755
11
-4.54463
21
5.77755
0
LINE
8
BLACK
6
CONTINUOUS
10
-4.54463
20
5.77755
11
-4.54449
21
5.77749
0
LINE
8
BLACK
6
CONTINUOUS
10
-4.75265
20
5.7774
11
-4.75153
21
5.77571
0
LINE
8
BLACK
6
CONTINUOUS
10
-4.75153
20
5.77571
11
-4.75176
21
5.77371
0
LINE
8
BLACK
6
CONTINUOUS
10
-4.75176
20
5.77371
11
-4.75364
21
5.76996
0
LINE
8
BLACK
6
CONTINUOUS
10
-4.75364
20
5.76996
11
-4.75417
21
5.76925
0
LINE
8
BLACK
6
CONTINUOUS
10
-4.75417
20
5.76925
11
-4.75419
21
5.76919
0
LINE
8
BLACK
6
CONTINUOUS
10
-4.75419
20
5.76919
11
-4.75665
21
5.76673
0
LINE
8
BLACK
6
CONTINUOUS
10
-4.75665
20
5.76673
11
-4.72924
21
5.76673
0
LINE
8
BLACK
6
CONTINUOUS
10
-4.72924
20
5.76673
11
-4.72924
21
5.77503
0
LINE
8
BLACK
6
CONTINUOUS
10
-4.72924
20
5.77503
11
-4.72906
21
5.77604
0
LINE
8
BLACK
6
CONTINUOUS
10
-4.72906
20
5.77604
11
-4.72776
21
5.77759
0
LINE
8
BLACK
6
CONTINUOUS
10
-4.72776
20
5.77759
11
-4.72577
21
5.77794
0
LINE
8
BLACK
6
CONTINUOUS
10
-4.72577
20
5.77794
11
-4.72402
21
5.77693
0
LINE
8
BLACK
6
CONTINUOUS
10
-4.72402
20
5.77693
11
-4.72333
21
5.77503
0
LINE
8
BLACK
6
CONTINUOUS
10
-4.72333
20
5.77503
11
-4.72333
21
5.75253
0
LINE
8
BLACK
6
CONTINUOUS
10
-4.72333
20
5.75253
11
-4.72351
21
5.75152
0
LINE
8
BLACK
6
CONTINUOUS
10
-4.72351
20
5.75152
11
-4.72481
21
5.74997
0
LINE
8
BLACK
6
CONTINUOUS
10
-4.72481
20
5.74997
11
-4.7268
21
5.74962
0
LINE
8
BLACK
6
CONTINUOUS
10
-4.7268
20
5.74962
11
-4.72855
21
5.75063
0
LINE
8
BLACK
6
CONTINUOUS
10
-4.72855
20
5.75063
11
-4.72924
21
5.75253
0
LINE
8
BLACK
6
CONTINUOUS
10
-4.72924
20
5.75253
11
-4.72924
21
5.76083
0
LINE
8
BLACK
6
CONTINUOUS
10
-4.72924
20
5.76083
11
-4.76565
21
5.76083
0
LINE
8
BLACK
6
CONTINUOUS
10
-4.76565
20
5.76083
11
-4.76666
21
5.761
0
LINE
8
BLACK
6
CONTINUOUS
10
-4.76666
20
5.761
11
-4.76679
21
5.76111
0
LINE
8
BLACK
6
CONTINUOUS
10
-4.76679
20
5.76111
11
-4.76696
21
5.76113
0
LINE
8
BLACK
6
CONTINUOUS
10
-4.76696
20
5.76113
11
-4.76756
21
5.76175
0
LINE
8
BLACK
6
CONTINUOUS
10
-4.76756
20
5.76175
11
-4.76821
21
5.7623
0
LINE
8
BLACK
6
CONTINUOUS
10
-4.76821
20
5.7623
11
-4.76824
21
5.76247
0
LINE
8
BLACK
6
CONTINUOUS
10
-4.76824
20
5.76247
11
-4.76836
21
5.76259
0
LINE
8
BLACK
6
CONTINUOUS
10
-4.76836
20
5.76259
11
-4.76841
21
5.76345
0
LINE
8
BLACK
6
CONTINUOUS
10
-4.76841
20
5.76345
11
-4.76856
21
5.76429
0
LINE
8
BLACK
6
CONTINUOUS
10
-4.76856
20
5.76429
11
-4.76848
21
5.76444
0
LINE
8
BLACK
6
CONTINUOUS
10
-4.76848
20
5.76444
11
-4.76849
21
5.76461
0
LINE
8
BLACK
6
CONTINUOUS
10
-4.76849
20
5.76461
11
-4.76798
21
5.7653
0
LINE
8
BLACK
6
CONTINUOUS
10
-4.76798
20
5.7653
11
-4.76755
21
5.76604
0
LINE
8
BLACK
6
CONTINUOUS
10
-4.76755
20
5.76604
11
-4.76739
21
5.7661
0
LINE
8
BLACK
6
CONTINUOUS
10
-4.76739
20
5.7661
11
-4.76729
21
5.76624
0
LINE
8
BLACK
6
CONTINUOUS
10
-4.76729
20
5.76624
11
-4.76191
21
5.76982
0
LINE
8
BLACK
6
CONTINUOUS
10
-4.76191
20
5.76982
11
-4.75871
21
5.77303
0
LINE
8
BLACK
6
CONTINUOUS
10
-4.75871
20
5.77303
11
-4.75705
21
5.77635
0
LINE
8
BLACK
6
CONTINUOUS
10
-4.75705
20
5.77635
11
-4.75644
21
5.77717
0
LINE
8
BLACK
6
CONTINUOUS
10
-4.75644
20
5.77717
11
-4.75458
21
5.77798
0
LINE
8
BLACK
6
CONTINUOUS
10
-4.75458
20
5.77798
11
-4.75265
21
5.7774
0
LINE
8
BLACK
6
CONTINUOUS
10
-4.60562
20
5.77383
11
-4.60468
21
5.77289
0
LINE
8
BLACK
6
CONTINUOUS
10
-4.60468
20
5.77289
11
-4.60454
21
5.77256
0
LINE
8
BLACK
6
CONTINUOUS
10
-4.60454
20
5.77256
11
-4.60428
21
5.77233
0
LINE
8
BLACK
6
CONTINUOUS
10
-4.60428
20
5.77233
11
-4.60334
21
5.77045
0
LINE
8
BLACK
6
CONTINUOUS
10
-4.60334
20
5.77045
11
-4.6033
21
5.76996
0
LINE
8
BLACK
6
CONTINUOUS
10
-4.6033
20
5.76996
11
-4.60311
21
5.76949
0
LINE
8
BLACK
6
CONTINUOUS
10
-4.60311
20
5.76949
11
-4.60311
21
5.76386
0
LINE
8
BLACK
6
CONTINUOUS
10
-4.60311
20
5.76386
11
-4.6033
21
5.7634
0
LINE
8
BLACK
6
CONTINUOUS
10
-4.6033
20
5.7634
11
-4.60334
21
5.7629
0
LINE
8
BLACK
6
CONTINUOUS
10
-4.60334
20
5.7629
11
-4.60428
21
5.76103
0
LINE
8
BLACK
6
CONTINUOUS
10
-4.60428
20
5.76103
11
-4.60454
21
5.76079
0
LINE
8
BLACK
6
CONTINUOUS
10
-4.60454
20
5.76079
11
-4.60468
21
5.76047
0
LINE
8
BLACK
6
CONTINUOUS
10
-4.60468
20
5.76047
11
-4.60562
21
5.75953
0
LINE
8
BLACK
6
CONTINUOUS
10
-4.60562
20
5.75953
11
-4.60594
21
5.75939
0
LINE
8
BLACK
6
CONTINUOUS
10
-4.60594
20
5.75939
11
-4.60618
21
5.75913
0
LINE
8
BLACK
6
CONTINUOUS
10
-4.60618
20
5.75913
11
-4.60805
21
5.75819
0
LINE
8
BLACK
6
CONTINUOUS
10
-4.60805
20
5.75819
11
-4.60855
21
5.75815
0
LINE
8
BLACK
6
CONTINUOUS
10
-4.60855
20
5.75815
11
-4.60901
21
5.75796
0
LINE
8
BLACK
6
CONTINUOUS
10
-4.60901
20
5.75796
11
-4.6137
21
5.75796
0
LINE
8
BLACK
6
CONTINUOUS
10
-4.6137
20
5.75796
11
-4.61417
21
5.75815
0
LINE
8
BLACK
6
CONTINUOUS
10
-4.61417
20
5.75815
11
-4.61467
21
5.75819
0
LINE
8
BLACK
6
CONTINUOUS
10
-4.61467
20
5.75819
11
-4.61654
21
5.75913
0
LINE
8
BLACK
6
CONTINUOUS
10
-4.61654
20
5.75913
11
-4.61677
21
5.75939
0
LINE
8
BLACK
6
CONTINUOUS
10
-4.61677
20
5.75939
11
-4.6171
21
5.75953
0
LINE
8
BLACK
6
CONTINUOUS
10
-4.6171
20
5.75953
11
-4.61804
21
5.76047
0
LINE
8
BLACK
6
CONTINUOUS
10
-4.61804
20
5.76047
11
-4.61817
21
5.76079
0
LINE
8
BLACK
6
CONTINUOUS
10
-4.61817
20
5.76079
11
-4.61844
21
5.76103
0
LINE
8
BLACK
6
CONTINUOUS
10
-4.61844
20
5.76103
11
-4.61911
21
5.76237
0
LINE
8
BLACK
6
CONTINUOUS
10
-4.61911
20
5.76237
11
-4.62355
21
5.75849
0
LINE
8
BLACK
6
CONTINUOUS
10
-4.62355
20
5.75849
11
-4.62426
21
5.75825
0
LINE
8
BLACK
6
CONTINUOUS
10
-4.62426
20
5.75825
11
-4.62496
21
5.75796
0
LINE
8
BLACK
6
CONTINUOUS
10
-4.62496
20
5.75796
11
-4.62503
21
5.75799
0
LINE
8
BLACK
6
CONTINUOUS
10
-4.62503
20
5.75799
11
-4.6251
21
5.75797
0
LINE
8
BLACK
6
CONTINUOUS
10
-4.6251
20
5.75797
11
-4.62578
21
5.7583
0
LINE
8
BLACK
6
CONTINUOUS
10
-4.62578
20
5.7583
11
-4.62648
21
5.75859
0
LINE
8
BLACK
6
CONTINUOUS
10
-4.62648
20
5.75859
11
-4.62651
21
5.75866
0
LINE
8
BLACK
6
CONTINUOUS
10
-4.62651
20
5.75866
11
-4.62658
21
5.7587
0
LINE
8
BLACK
6
CONTINUOUS
10
-4.62658
20
5.7587
11
-4.62682
21
5.75941
0
LINE
8
BLACK
6
CONTINUOUS
10
-4.62682
20
5.75941
11
-4.62711
21
5.76011
0
LINE
8
BLACK
6
CONTINUOUS
10
-4.62711
20
5.76011
11
-4.62711
21
5.77231
0
LINE
8
BLACK
6
CONTINUOUS
10
-4.62711
20
5.77231
11
-4.62648
21
5.77383
0
LINE
8
BLACK
6
CONTINUOUS
10
-4.62648
20
5.77383
11
-4.62496
21
5.77446
0
LINE
8
BLACK
6
CONTINUOUS
10
-4.62496
20
5.77446
11
-4.62344
21
5.77383
0
LINE
8
BLACK
6
CONTINUOUS
10
-4.62344
20
5.77383
11
-4.62281
21
5.77231
0
LINE
8
BLACK
6
CONTINUOUS
10
-4.62281
20
5.77231
11
-4.62281
21
5.76485
0
LINE
8
BLACK
6
CONTINUOUS
10
-4.62281
20
5.76485
11
-4.61887
21
5.7683
0
LINE
8
BLACK
6
CONTINUOUS
10
-4.61887
20
5.7683
11
-4.61816
21
5.76854
0
LINE
8
BLACK
6
CONTINUOUS
10
-4.61816
20
5.76854
11
-4.61746
21
5.76883
0
LINE
8
BLACK
6
CONTINUOUS
10
-4.61746
20
5.76883
11
-4.61739
21
5.7688
0
LINE
8
BLACK
6
CONTINUOUS
10
-4.61739
20
5.7688
11
-4.61731
21
5.76882
0
LINE
8
BLACK
6
CONTINUOUS
10
-4.61731
20
5.76882
11
-4.61664
21
5.76849
0
LINE
8
BLACK
6
CONTINUOUS
10
-4.61664
20
5.76849
11
-4.61594
21
5.7682
0
LINE
8
BLACK
6
CONTINUOUS
10
-4.61594
20
5.7682
11
-4.61591
21
5.76813
0
LINE
8
BLACK
6
CONTINUOUS
10
-4.61591
20
5.76813
11
-4.61584
21
5.76809
0
LINE
8
BLACK
6
CONTINUOUS
10
-4.61584
20
5.76809
11
-4.6156
21
5.76738
0
LINE
8
BLACK
6
CONTINUOUS
10
-4.6156
20
5.76738
11
-4.61531
21
5.76668
0
LINE
8
BLACK
6
CONTINUOUS
10
-4.61531
20
5.76668
11
-4.61531
21
5.76437
0
LINE
8
BLACK
6
CONTINUOUS
10
-4.61531
20
5.76437
11
-4.61475
21
5.76326
0
LINE
8
BLACK
6
CONTINUOUS
10
-4.61475
20
5.76326
11
-4.61431
21
5.76282
0
LINE
8
BLACK
6
CONTINUOUS
10
-4.61431
20
5.76282
11
-4.6132
21
5.76226
0
LINE
8
BLACK
6
CONTINUOUS
10
-4.6132
20
5.76226
11
-4.60952
21
5.76226
0
LINE
8
BLACK
6
CONTINUOUS
10
-4.60952
20
5.76226
11
-4.60841
21
5.76282
0
LINE
8
BLACK
6
CONTINUOUS
10
-4.60841
20
5.76282
11
-4.60797
21
5.76326
0
LINE
8
BLACK
6
CONTINUOUS
10
-4.60797
20
5.76326
11
-4.60741
21
5.76437
0
LINE
8
BLACK
6
CONTINUOUS
10
-4.60741
20
5.76437
11
-4.60741
21
5.76899
0
LINE
8
BLACK
6
CONTINUOUS
10
-4.60741
20
5.76899
11
-4.60797
21
5.7701
0
LINE
8
BLACK
6
CONTINUOUS
10
-4.60797
20
5.7701
11
-4.60866
21
5.77079
0
LINE
8
BLACK
6
CONTINUOUS
10
-4.60866
20
5.77079
11
-4.60929
21
5.77231
0
LINE
8
BLACK
6
CONTINUOUS
10
-4.60929
20
5.77231
11
-4.60866
21
5.77383
0
LINE
8
BLACK
6
CONTINUOUS
10
-4.60866
20
5.77383
11
-4.60714
21
5.77446
0
LINE
8
BLACK
6
CONTINUOUS
10
-4.60714
20
5.77446
11
-4.60562
21
5.77383
0
LINE
8
BLACK
6
CONTINUOUS
10
-4.71911
20
5.76046
11
-4.71969
21
5.76185
0
LINE
8
BLACK
6
CONTINUOUS
10
-4.71969
20
5.76185
11
-4.71969
21
5.81303
0
LINE
8
BLACK
6
CONTINUOUS
10
-4.71969
20
5.81303
11
-4.71911
21
5.81442
0
LINE
8
BLACK
6
CONTINUOUS
10
-4.71911
20
5.81442
11
-4.71772
21
5.815
0
LINE
8
BLACK
6
CONTINUOUS
10
-4.71772
20
5.815
11
-4.68228
21
5.815
0
LINE
8
BLACK
6
CONTINUOUS
10
-4.68228
20
5.815
11
-4.68089
21
5.81442
0
LINE
8
BLACK
6
CONTINUOUS
10
-4.68089
20
5.81442
11
-4.68031
21
5.81303
0
LINE
8
BLACK
6
CONTINUOUS
10
-4.68031
20
5.81303
11
-4.68031
21
5.76185
0
LINE
8
BLACK
6
CONTINUOUS
10
-4.68031
20
5.76185
11
-4.68089
21
5.76046
0
LINE
8
BLACK
6
CONTINUOUS
10
-4.68089
20
5.76046
11
-4.68228
21
5.75988
0
LINE
8
BLACK
6
CONTINUOUS
10
-4.68228
20
5.75988
11
-4.71772
21
5.75988
0
LINE
8
BLACK
6
CONTINUOUS
10
-4.71772
20
5.75988
11
-4.71911
21
5.76046
0
LINE
8
BLACK
6
CONTINUOUS
10
-4.71575
20
5.81106
11
-4.71575
21
5.76382
0
LINE
8
BLACK
6
CONTINUOUS
10
-4.71575
20
5.76382
11
-4.68425
21
5.76382
0
LINE
8
BLACK
6
CONTINUOUS
10
-4.68425
20
5.76382
11
-4.68425
21
5.81106
0
LINE
8
BLACK
6
CONTINUOUS
10
-4.68425
20
5.81106
11
-4.71575
21
5.81106
0
LINE
8
BLACK
6
CONTINUOUS
10
-4.69861
20
5.79868
11
-4.69803
21
5.79728
0
LINE
8
BLACK
6
CONTINUOUS
10
-4.69803
20
5.79728
11
-4.69803
21
5.79335
0
LINE
8
BLACK
6
CONTINUOUS
10
-4.69803
20
5.79335
11
-4.69213
21
5.79335
0
LINE
8
BLACK
6
CONTINUOUS
10
-4.69213
20
5.79335
11
-4.6916
21
5.79313
0
LINE
8
BLACK
6
CONTINUOUS
10
-4.6916
20
5.79313
11
-4.69103
21
5.79302
0
LINE
8
BLACK
6
CONTINUOUS
10
-4.69103
20
5.79302
11
-4.69092
21
5.79285
0
LINE
8
BLACK
6
CONTINUOUS
10
-4.69092
20
5.79285
11
-4.69073
21
5.79277
0
LINE
8
BLACK
6
CONTINUOUS
10
-4.69073
20
5.79277
11
-4.69051
21
5.79224
0
LINE
8
BLACK
6
CONTINUOUS
10
-4.69051
20
5.79224
11
-4.6902
21
5.79176
0
LINE
8
BLACK
6
CONTINUOUS
10
-4.6902
20
5.79176
11
-4.69024
21
5.79157
0
LINE
8
BLACK
6
CONTINUOUS
10
-4.69024
20
5.79157
11
-4.69016
21
5.79138
0
LINE
8
BLACK
6
CONTINUOUS
10
-4.69016
20
5.79138
11
-4.69038
21
5.79085
0
LINE
8
BLACK
6
CONTINUOUS
10
-4.69038
20
5.79085
11
-4.69049
21
5.79029
0
LINE
8
BLACK
6
CONTINUOUS
10
-4.69049
20
5.79029
11
-4.69632
21
5.78154
0
LINE
8
BLACK
6
CONTINUOUS
10
-4.69632
20
5.78154
11
-4.69213
21
5.78154
0
LINE
8
BLACK
6
CONTINUOUS
10
-4.69213
20
5.78154
11
-4.69073
21
5.78096
0
LINE
8
BLACK
6
CONTINUOUS
10
-4.69073
20
5.78096
11
-4.69016
21
5.77957
0
LINE
8
BLACK
6
CONTINUOUS
10
-4.69016
20
5.77957
11
-4.69073
21
5.77818
0
LINE
8
BLACK
6
CONTINUOUS
10
-4.69073
20
5.77818
11
-4.69213
21
5.7776
0
LINE
8
BLACK
6
CONTINUOUS
10
-4.69213
20
5.7776
11
-4.69803
21
5.7776
0
LINE
8
BLACK
6
CONTINUOUS
10
-4.69803
20
5.7776
11
-4.69803
21
5.77366
0
LINE
8
BLACK
6
CONTINUOUS
10
-4.69803
20
5.77366
11
-4.69861
21
5.77227
0
LINE
8
BLACK
6
CONTINUOUS
10
-4.69861
20
5.77227
11
-4.7
21
5.77169
0
LINE
8
BLACK
6
CONTINUOUS
10
-4.7
20
5.77169
11
-4.70139
21
5.77227
0
LINE
8
BLACK
6
CONTINUOUS
10
-4.70139
20
5.77227
11
-4.70197
21
5.77366
0
LINE
8
BLACK
6
CONTINUOUS
10
-4.70197
20
5.77366
11
-4.70197
21
5.7776
0
LINE
8
BLACK
6
CONTINUOUS
10
-4.70197
20
5.7776
11
-4.70787
21
5.7776
0
LINE
8
BLACK
6
CONTINUOUS
10
-4.70787
20
5.7776
11
-4.70927
21
5.77818
0
LINE
8
BLACK
6
CONTINUOUS
10
-4.70927
20
5.77818
11
-4.70984
21
5.77957
0
LINE
8
BLACK
6
CONTINUOUS
10
-4.70984
20
5.77957
11
-4.70927
21
5.78096
0
LINE
8
BLACK
6
CONTINUOUS
10
-4.70927
20
5.78096
11
-4.70787
21
5.78154
0
LINE
8
BLACK
6
CONTINUOUS
10
-4.70787
20
5.78154
11
-4.70368
21
5.78154
0
LINE
8
BLACK
6
CONTINUOUS
10
-4.70368
20
5.78154
11
-4.70951
21
5.79029
0
LINE
8
BLACK
6
CONTINUOUS
10
-4.70951
20
5.79029
11
-4.70962
21
5.79085
0
LINE
8
BLACK
6
CONTINUOUS
10
-4.70962
20
5.79085
11
-4.70984
21
5.79138
0
LINE
8
BLACK
6
CONTINUOUS
10
-4.70984
20
5.79138
11
-4.70976
21
5.79157
0
LINE
8
BLACK
6
CONTINUOUS
10
-4.70976
20
5.79157
11
-4.7098
21
5.79176
0
LINE
8
BLACK
6
CONTINUOUS
10
-4.7098
20
5.79176
11
-4.70949
21
5.79224
0
LINE
8
BLACK
6
CONTINUOUS
10
-4.70949
20
5.79224
11
-4.70927
21
5.79277
0
LINE
8
BLACK
6
CONTINUOUS
10
-4.70927
20
5.79277
11
-4.70908
21
5.79285
0
LINE
8
BLACK
6
CONTINUOUS
10
-4.70908
20
5.79285
11
-4.70897
21
5.79302
0
LINE
8
BLACK
6
CONTINUOUS
10
-4.70897
20
5.79302
11
-4.7084
21
5.79313
0
LINE
8
BLACK
6
CONTINUOUS
10
-4.7084
20
5.79313
11
-4.70787
21
5.79335
0
LINE
8
BLACK
6
CONTINUOUS
10
-4.70787
20
5.79335
11
-4.70197
21
5.79335
0
LINE
8
BLACK
6
CONTINUOUS
10
-4.70197
20
5.79335
11
-4.70197
21
5.79728
0
LINE
8
BLACK
6
CONTINUOUS
10
-4.70197
20
5.79728
11
-4.70139
21
5.79868
0
LINE
8
BLACK
6
CONTINUOUS
10
-4.70139
20
5.79868
11
-4.7
21
5.79925
0
LINE
8
BLACK
6
CONTINUOUS
10
-4.7
20
5.79925
11
-4.69861
21
5.79868
0
LINE
8
BLACK
6
CONTINUOUS
10
-4.7
20
5.78312
11
-4.6958
21
5.78941
0
LINE
8
BLACK
6
CONTINUOUS
10
-4.6958
20
5.78941
11
-4.7042
21
5.78941
0
LINE
8
BLACK
6
CONTINUOUS
10
-4.7042
20
5.78941
11
-4.7
21
5.78312
0
LINE
8
BLACK
6
CONTINUOUS
10
-4.39714
20
5.76111
11
-4.39772
21
5.7625
0
LINE
8
BLACK
6
CONTINUOUS
10
-4.39772
20
5.7625
11
-4.39772
21
5.82549
0
LINE
8
BLACK
6
CONTINUOUS
10
-4.39772
20
5.82549
11
-4.39714
21
5.82688
0
LINE
8
BLACK
6
CONTINUOUS
10
-4.39714
20
5.82688
11
-4.39575
21
5.82746
0
LINE
8
BLACK
6
CONTINUOUS
10
-4.39575
20
5.82746
11
-4.36425
21
5.82746
0
LINE
8
BLACK
6
CONTINUOUS
10
-4.36425
20
5.82746
11
-4.36286
21
5.82688
0
LINE
8
BLACK
6
CONTINUOUS
10
-4.36286
20
5.82688
11
-4.36228
21
5.82549
0
LINE
8
BLACK
6
CONTINUOUS
10
-4.36228
20
5.82549
11
-4.36228
21
5.7625
0
LINE
8
BLACK
6
CONTINUOUS
10
-4.36228
20
5.7625
11
-4.36286
21
5.76111
0
LINE
8
BLACK
6
CONTINUOUS
10
-4.36286
20
5.76111
11
-4.36425
21
5.76053
0
LINE
8
BLACK
6
CONTINUOUS
10
-4.36425
20
5.76053
11
-4.39575
21
5.76053
0
LINE
8
BLACK
6
CONTINUOUS
10
-4.39575
20
5.76053
11
-4.39714
21
5.76111
0
LINE
8
BLACK
6
CONTINUOUS
10
-4.39378
20
5.82352
11
-4.39378
21
5.76447
0
LINE
8
BLACK
6
CONTINUOUS
10
-4.39378
20
5.76447
11
-4.36622
21
5.76447
0
LINE
8
BLACK
6
CONTINUOUS
10
-4.36622
20
5.76447
11
-4.36622
21
5.82352
0
LINE
8
BLACK
6
CONTINUOUS
10
-4.36622
20
5.82352
11
-4.39378
21
5.82352
0
LINE
8
BLACK
6
CONTINUOUS
10
-4.37874
20
5.78425
11
-4.37859
21
5.78427
0
LINE
8
BLACK
6
CONTINUOUS
10
-4.37859
20
5.78427
11
-4.37559
21
5.78352
0
LINE
8
BLACK
6
CONTINUOUS
10
-4.37559
20
5.78352
11
-4.37548
21
5.78344
0
LINE
8
BLACK
6
CONTINUOUS
10
-4.37548
20
5.78344
11
-4.37535
21
5.78343
0
LINE
8
BLACK
6
CONTINUOUS
10
-4.37535
20
5.78343
11
-4.37385
21
5.78268
0
LINE
8
BLACK
6
CONTINUOUS
10
-4.37385
20
5.78268
11
-4.37372
21
5.78253
0
LINE
8
BLACK
6
CONTINUOUS
10
-4.37372
20
5.78253
11
-4.37354
21
5.78246
0
LINE
8
BLACK
6
CONTINUOUS
10
-4.37354
20
5.78246
11
-4.37279
21
5.78171
0
LINE
8
BLACK
6
CONTINUOUS
10
-4.37279
20
5.78171
11
-4.37272
21
5.78153
0
LINE
8
BLACK
6
CONTINUOUS
10
-4.37272
20
5.78153
11
-4.37257
21
5.7814
0
LINE
8
BLACK
6
CONTINUOUS
10
-4.37257
20
5.7814
11
-4.37182
21
5.7799
0
LINE
8
BLACK
6
CONTINUOUS
10
-4.37182
20
5.7799
11
-4.3718
21
5.77963
0
LINE
8
BLACK
6
CONTINUOUS
10
-4.3718
20
5.77963
11
-4.37169
21
5.77937
0
LINE
8
BLACK
6
CONTINUOUS
10
-4.37169
20
5.77937
11
-4.37169
21
5.77787
0
LINE
8
BLACK
6
CONTINUOUS
10
-4.37169
20
5.77787
11
-4.3718
21
5.77762
0
LINE
8
BLACK
6
CONTINUOUS
10
-4.3718
20
5.77762
11
-4.37182
21
5.77734
0
LINE
8
BLACK
6
CONTINUOUS
10
-4.37182
20
5.77734
11
-4.37257
21
5.77585
0
LINE
8
BLACK
6
CONTINUOUS
10
-4.37257
20
5.77585
11
-4.37272
21
5.77572
0
LINE
8
BLACK
6
CONTINUOUS
10
-4.37272
20
5.77572
11
-4.37279
21
5.77554
0
LINE
8
BLACK
6
CONTINUOUS
10
-4.37279
20
5.77554
11
-4.37354
21
5.77479
0
LINE
8
BLACK
6
CONTINUOUS
10
-4.37354
20
5.77479
11
-4.37372
21
5.77471
0
LINE
8
BLACK
6
CONTINUOUS
10
-4.37372
20
5.77471
11
-4.37385
21
5.77457
0
LINE
8
BLACK
6
CONTINUOUS
10
-4.37385
20
5.77457
11
-4.37535
21
5.77382
0
LINE
8
BLACK
6
CONTINUOUS
10
-4.37535
20
5.77382
11
-4.37548
21
5.77381
0
LINE
8
BLACK
6
CONTINUOUS
10
-4.37548
20
5.77381
11
-4.37559
21
5.77373
0
LINE
8
BLACK
6
CONTINUOUS
10
-4.37559
20
5.77373
11
-4.37859
21
5.77298
0
LINE
8
BLACK
6
CONTINUOUS
10
-4.37859
20
5.77298
11
-4.37874
21
5.773
0
LINE
8
BLACK
6
CONTINUOUS
10
-4.37874
20
5.773
11
-4.37888
21
5.77294
0
LINE
8
BLACK
6
CONTINUOUS
10
-4.37888
20
5.77294
11
-4.38262
21
5.77294
0
LINE
8
BLACK
6
CONTINUOUS
10
-4.38262
20
5.77294
11
-4.38276
21
5.773
0
LINE
8
BLACK
6
CONTINUOUS
10
-4.38276
20
5.773
11
-4.38291
21
5.77298
0
LINE
8
BLACK
6
CONTINUOUS
10
-4.38291
20
5.77298
11
-4.38591
21
5.77373
0
LINE
8
BLACK
6
CONTINUOUS
10
-4.38591
20
5.77373
11
-4.38602
21
5.77381
0
LINE
8
BLACK
6
CONTINUOUS
10
-4.38602
20
5.77381
11
-4.38615
21
5.77382
0
LINE
8
BLACK
6
CONTINUOUS
10
-4.38615
20
5.77382
11
-4.38765
21
5.77457
0
LINE
8
BLACK
6
CONTINUOUS
10
-4.38765
20
5.77457
11
-4.38778
21
5.77471
0
LINE
8
BLACK
6
CONTINUOUS
10
-4.38778
20
5.77471
11
-4.38796
21
5.77479
0
LINE
8
BLACK
6
CONTINUOUS
10
-4.38796
20
5.77479
11
-4.38871
21
5.77554
0
LINE
8
BLACK
6
CONTINUOUS
10
-4.38871
20
5.77554
11
-4.38878
21
5.77572
0
LINE
8
BLACK
6
CONTINUOUS
10
-4.38878
20
5.77572
11
-4.38893
21
5.77584
0
LINE
8
BLACK
6
CONTINUOUS
10
-4.38893
20
5.77584
11
-4.38968
21
5.77734
0
LINE
8
BLACK
6
CONTINUOUS
10
-4.38968
20
5.77734
11
-4.3897
21
5.77762
0
LINE
8
BLACK
6
CONTINUOUS
10
-4.3897
20
5.77762
11
-4.38981
21
5.77787
0
LINE
8
BLACK
6
CONTINUOUS
10
-4.38981
20
5.77787
11
-4.38981
21
5.77937
0
LINE
8
BLACK
6
CONTINUOUS
10
-4.38981
20
5.77937
11
-4.3897
21
5.77963
0
LINE
8
BLACK
6
CONTINUOUS
10
-4.3897
20
5.77963
11
-4.38968
21
5.7799
0
LINE
8
BLACK
6
CONTINUOUS
10
-4.38968
20
5.7799
11
-4.38893
21
5.7814
0
LINE
8
BLACK
6
CONTINUOUS
10
-4.38893
20
5.7814
11
-4.38878
21
5.78153
0
LINE
8
BLACK
6
CONTINUOUS
10
-4.38878
20
5.78153
11
-4.38871
21
5.78171
0
LINE
8
BLACK
6
CONTINUOUS
10
-4.38871
20
5.78171
11
-4.38796
21
5.78246
0
LINE
8
BLACK
6
CONTINUOUS
10
-4.38796
20
5.78246
11
-4.38778
21
5.78253
0
LINE
8
BLACK
6
CONTINUOUS
10
-4.38778
20
5.78253
11
-4.38765
21
5.78268
0
LINE
8
BLACK
6
CONTINUOUS
10
-4.38765
20
5.78268
11
-4.38615
21
5.78343
0
LINE
8
BLACK
6
CONTINUOUS
10
-4.38615
20
5.78343
11
-4.38602
21
5.78344
0
LINE
8
BLACK
6
CONTINUOUS
10
-4.38602
20
5.78344
11
-4.38591
21
5.78352
0
LINE
8
BLACK
6
CONTINUOUS
10
-4.38591
20
5.78352
11
-4.38291
21
5.78427
0
LINE
8
BLACK
6
CONTINUOUS
10
-4.38291
20
5.78427
11
-4.38276
21
5.78425
0
LINE
8
BLACK
6
CONTINUOUS
10
-4.38276
20
5.78425
11
-4.38262
21
5.7843
0
LINE
8
BLACK
6
CONTINUOUS
10
-4.38262
20
5.7843
11
-4.37888
21
5.7843
0
LINE
8
BLACK
6
CONTINUOUS
10
-4.37888
20
5.7843
11
-4.37874
21
5.78425
0
LINE
8
BLACK
6
CONTINUOUS
10
-4.38248
20
5.78194
11
-4.38521
21
5.78126
0
LINE
8
BLACK
6
CONTINUOUS
10
-4.38521
20
5.78126
11
-4.38642
21
5.78065
0
LINE
8
BLACK
6
CONTINUOUS
10
-4.38642
20
5.78065
11
-4.3869
21
5.78017
0
LINE
8
BLACK
6
CONTINUOUS
10
-4.3869
20
5.78017
11
-4.38744
21
5.77909
0
LINE
8
BLACK
6
CONTINUOUS
10
-4.38744
20
5.77909
11
-4.38744
21
5.77815
0
LINE
8
BLACK
6
CONTINUOUS
10
-4.38744
20
5.77815
11
-4.3869
21
5.77707
0
LINE
8
BLACK
6
CONTINUOUS
10
-4.3869
20
5.77707
11
-4.38642
21
5.77659
0
LINE
8
BLACK
6
CONTINUOUS
10
-4.38642
20
5.77659
11
-4.38521
21
5.77599
0
LINE
8
BLACK
6
CONTINUOUS
10
-4.38521
20
5.77599
11
-4.38248
21
5.7753
0
LINE
8
BLACK
6
CONTINUOUS
10
-4.38248
20
5.7753
11
-4.37902
21
5.7753
0
LINE
8
BLACK
6
CONTINUOUS
10
-4.37902
20
5.7753
11
-4.37629
21
5.77599
0
LINE
8
BLACK
6
CONTINUOUS
10
-4.37629
20
5.77599
11
-4.37508
21
5.77659
0
LINE
8
BLACK
6
CONTINUOUS
10
-4.37508
20
5.77659
11
-4.3746
21
5.77707
0
LINE
8
BLACK
6
CONTINUOUS
10
-4.3746
20
5.77707
11
-4.37406
21
5.77815
0
LINE
8
BLACK
6
CONTINUOUS
10
-4.37406
20
5.77815
11
-4.37406
21
5.77909
0
LINE
8
BLACK
6
CONTINUOUS
10
-4.37406
20
5.77909
11
-4.3746
21
5.78017
0
LINE
8
BLACK
6
CONTINUOUS
10
-4.3746
20
5.78017
11
-4.37508
21
5.78065
0
LINE
8
BLACK
6
CONTINUOUS
10
-4.37508
20
5.78065
11
-4.37629
21
5.78126
0
LINE
8
BLACK
6
CONTINUOUS
10
-4.37629
20
5.78126
11
-4.37902
21
5.78194
0
LINE
8
BLACK
6
CONTINUOUS
10
-4.37902
20
5.78194
11
-4.38248
21
5.78194
0
LINE
8
BLACK
6
CONTINUOUS
10
-4.37204
20
5.79896
11
-4.37169
21
5.79812
0
LINE
8
BLACK
6
CONTINUOUS
10
-4.37169
20
5.79812
11
-4.37169
21
5.78912
0
LINE
8
BLACK
6
CONTINUOUS
10
-4.37169
20
5.78912
11
-4.37204
21
5.78829
0
LINE
8
BLACK
6
CONTINUOUS
10
-4.37204
20
5.78829
11
-4.37288
21
5.78794
0
LINE
8
BLACK
6
CONTINUOUS
10
-4.37288
20
5.78794
11
-4.37371
21
5.78829
0
LINE
8
BLACK
6
CONTINUOUS
10
-4.37371
20
5.78829
11
-4.37406
21
5.78912
0
LINE
8
BLACK
6
CONTINUOUS
10
-4.37406
20
5.78912
11
-4.37406
21
5.79244
0
LINE
8
BLACK
6
CONTINUOUS
10
-4.37406
20
5.79244
11
-4.38862
21
5.79244
0
LINE
8
BLACK
6
CONTINUOUS
10
-4.38862
20
5.79244
11
-4.38874
21
5.79249
0
LINE
8
BLACK
6
CONTINUOUS
10
-4.38874
20
5.79249
11
-4.38886
21
5.79246
0
LINE
8
BLACK
6
CONTINUOUS
10
-4.38886
20
5.79246
11
-4.38914
21
5.79265
0
LINE
8
BLACK
6
CONTINUOUS
10
-4.38914
20
5.79265
11
-4.38946
21
5.79279
0
LINE
8
BLACK
6
CONTINUOUS
10
-4.38946
20
5.79279
11
-4.38951
21
5.7929
0
LINE
8
BLACK
6
CONTINUOUS
10
-4.38951
20
5.7929
11
-4.38961
21
5.79297
0
LINE
8
BLACK
6
CONTINUOUS
10
-4.38961
20
5.79297
11
-4.38967
21
5.7933
0
LINE
8
BLACK
6
CONTINUOUS
10
-4.38967
20
5.7933
11
-4.38981
21
5.79362
0
LINE
8
BLACK
6
CONTINUOUS
10
-4.38981
20
5.79362
11
-4.38976
21
5.79373
0
LINE
8
BLACK
6
CONTINUOUS
10
-4.38976
20
5.79373
11
-4.38978
21
5.79385
0
LINE
8
BLACK
6
CONTINUOUS
10
-4.38978
20
5.79385
11
-4.38959
21
5.79414
0
LINE
8
BLACK
6
CONTINUOUS
10
-4.38959
20
5.79414
11
-4.38946
21
5.79446
0
LINE
8
BLACK
6
CONTINUOUS
10
-4.38946
20
5.79446
11
-4.38935
21
5.7945
0
LINE
8
BLACK
6
CONTINUOUS
10
-4.38935
20
5.7945
11
-4.38928
21
5.7946
0
LINE
8
BLACK
6
CONTINUOUS
10
-4.38928
20
5.7946
11
-4.38713
21
5.79604
0
LINE
8
BLACK
6
CONTINUOUS
10
-4.38713
20
5.79604
11
-4.38585
21
5.79732
0
LINE
8
BLACK
6
CONTINUOUS
10
-4.38585
20
5.79732
11
-4.38518
21
5.79865
0
LINE
8
BLACK
6
CONTINUOUS
10
-4.38518
20
5.79865
11
-4.3845
21
5.79924
0
LINE
8
BLACK
6
CONTINUOUS
10
-4.3845
20
5.79924
11
-4.3836
21
5.79918
0
LINE
8
BLACK
6
CONTINUOUS
10
-4.3836
20
5.79918
11
-4.383
21
5.79849
0
LINE
8
BLACK
6
CONTINUOUS
10
-4.383
20
5.79849
11
-4.38307
21
5.79759
0
LINE
8
BLACK
6
CONTINUOUS
10
-4.38307
20
5.79759
11
-4.38382
21
5.79609
0
LINE
8
BLACK
6
CONTINUOUS
10
-4.38382
20
5.79609
11
-4.38396
21
5.79597
0
LINE
8
BLACK
6
CONTINUOUS
10
-4.38396
20
5.79597
11
-4.38404
21
5.79579
0
LINE
8
BLACK
6
CONTINUOUS
10
-4.38404
20
5.79579
11
-4.38502
21
5.7948
0
LINE
8
BLACK
6
CONTINUOUS
10
-4.38502
20
5.7948
11
-4.37406
21
5.7948
0
LINE
8
BLACK
6
CONTINUOUS
10
-4.37406
20
5.7948
11
-4.37406
21
5.79812
0
LINE
8
BLACK
6
CONTINUOUS
10
-4.37406
20
5.79812
11
-4.37371
21
5.79896
0
LINE
8
BLACK
6
CONTINUOUS
10
-4.37371
20
5.79896
11
-4.37288
21
5.7993
0
LINE
8
BLACK
6
CONTINUOUS
10
-4.37288
20
5.7993
11
-4.37204
21
5.79896
0
LINE
8
BLACK
6
CONTINUOUS
10
-4.37204
20
5.81395
11
-4.37169
21
5.81312
0
LINE
8
BLACK
6
CONTINUOUS
10
-4.37169
20
5.81312
11
-4.37204
21
5.81228
0
LINE
8
BLACK
6
CONTINUOUS
10
-4.37204
20
5.81228
11
-4.37288
21
5.81194
0
LINE
8
BLACK
6
CONTINUOUS
10
-4.37288
20
5.81194
11
-4.37919
21
5.81194
0
LINE
8
BLACK
6
CONTINUOUS
10
-4.37919
20
5.81194
11
-4.37919
21
5.80998
0
LINE
8
BLACK
6
CONTINUOUS
10
-4.37919
20
5.80998
11
-4.3722
21
5.80509
0
LINE
8
BLACK
6
CONTINUOUS
10
-4.3722
20
5.80509
11
-4.37171
21
5.80432
0
LINE
8
BLACK
6
CONTINUOUS
10
-4.37171
20
5.80432
11
-4.37191
21
5.80344
0
LINE
8
BLACK
6
CONTINUOUS
10
-4.37191
20
5.80344
11
-4.37267
21
5.80296
0
LINE
8
BLACK
6
CONTINUOUS
10
-4.37267
20
5.80296
11
-4.37355
21
5.80315
0
LINE
8
BLACK
6
CONTINUOUS
10
-4.37355
20
5.80315
11
-4.3792
21
5.8071
0
LINE
8
BLACK
6
CONTINUOUS
10
-4.3792
20
5.8071
11
-4.3793
21
5.80687
0
LINE
8
BLACK
6
CONTINUOUS
10
-4.3793
20
5.80687
11
-4.37932
21
5.80659
0
LINE
8
BLACK
6
CONTINUOUS
10
-4.37932
20
5.80659
11
-4.38007
21
5.80509
0
LINE
8
BLACK
6
CONTINUOUS
10
-4.38007
20
5.80509
11
-4.38022
21
5.80496
0
LINE
8
BLACK
6
CONTINUOUS
10
-4.38022
20
5.80496
11
-4.38029
21
5.80478
0
LINE
8
BLACK
6
CONTINUOUS
10
-4.38029
20
5.80478
11
-4.38104
21
5.80403
0
LINE
8
BLACK
6
CONTINUOUS
10
-4.38104
20
5.80403
11
-4.38122
21
5.80396
0
LINE
8
BLACK
6
CONTINUOUS
10
-4.38122
20
5.80396
11
-4.38135
21
5.80381
0
LINE
8
BLACK
6
CONTINUOUS
10
-4.38135
20
5.80381
11
-4.38285
21
5.80306
0
LINE
8
BLACK
6
CONTINUOUS
10
-4.38285
20
5.80306
11
-4.38312
21
5.80304
0
LINE
8
BLACK
6
CONTINUOUS
10
-4.38312
20
5.80304
11
-4.38337
21
5.80294
0
LINE
8
BLACK
6
CONTINUOUS
10
-4.38337
20
5.80294
11
-4.38562
21
5.80294
0
LINE
8
BLACK
6
CONTINUOUS
10
-4.38562
20
5.80294
11
-4.38588
21
5.80304
0
LINE
8
BLACK
6
CONTINUOUS
10
-4.38588
20
5.80304
11
-4.38615
21
5.80306
0
LINE
8
BLACK
6
CONTINUOUS
10
-4.38615
20
5.80306
11
-4.38765
21
5.80381
0
LINE
8
BLACK
6
CONTINUOUS
10
-4.38765
20
5.80381
11
-4.38778
21
5.80396
0
LINE
8
BLACK
6
CONTINUOUS
10
-4.38778
20
5.80396
11
-4.38796
21
5.80403
0
LINE
8
BLACK
6
CONTINUOUS
10
-4.38796
20
5.80403
11
-4.38871
21
5.80478
0
LINE
8
BLACK
6
CONTINUOUS
10
-4.38871
20
5.80478
11
-4.38878
21
5.80496
0
LINE
8
BLACK
6
CONTINUOUS
10
-4.38878
20
5.80496
11
-4.38893
21
5.80509
0
LINE
8
BLACK
6
CONTINUOUS
10
-4.38893
20
5.80509
11
-4.38968
21
5.80659
0
LINE
8
BLACK
6
CONTINUOUS
10
-4.38968
20
5.80659
11
-4.3897
21
5.80687
0
LINE
8
BLACK
6
CONTINUOUS
10
-4.3897
20
5.80687
11
-4.38981
21
5.80712
0
LINE
8
BLACK
6
CONTINUOUS
10
-4.38981
20
5.80712
11
-4.38981
21
5.81312
0
LINE
8
BLACK
6
CONTINUOUS
10
-4.38981
20
5.81312
11
-4.38946
21
5.81395
0
LINE
8
BLACK
6
CONTINUOUS
10
-4.38946
20
5.81395
11
-4.38862
21
5.8143
0
LINE
8
BLACK
6
CONTINUOUS
10
-4.38862
20
5.8143
11
-4.37288
21
5.8143
0
LINE
8
BLACK
6
CONTINUOUS
10
-4.37288
20
5.8143
11
-4.37204
21
5.81395
0
LINE
8
BLACK
6
CONTINUOUS
10
-4.38744
20
5.81194
11
-4.38744
21
5.8074
0
LINE
8
BLACK
6
CONTINUOUS
10
-4.38744
20
5.8074
11
-4.3869
21
5.80632
0
LINE
8
BLACK
6
CONTINUOUS
10
-4.3869
20
5.80632
11
-4.38642
21
5.80584
0
LINE
8
BLACK
6
CONTINUOUS
10
-4.38642
20
5.80584
11
-4.38535
21
5.8053
0
LINE
8
BLACK
6
CONTINUOUS
10
-4.38535
20
5.8053
11
-4.38365
21
5.8053
0
LINE
8
BLACK
6
CONTINUOUS
10
-4.38365
20
5.8053
11
-4.38257
21
5.80584
0
LINE
8
BLACK
6
CONTINUOUS
10
-4.38257
20
5.80584
11
-4.3821
21
5.80632
0
LINE
8
BLACK
6
CONTINUOUS
10
-4.3821
20
5.80632
11
-4.38156
21
5.8074
0
LINE
8
BLACK
6
CONTINUOUS
10
-4.38156
20
5.8074
11
-4.38156
21
5.81194
0
LINE
8
BLACK
6
CONTINUOUS
10
-4.38156
20
5.81194
11
-4.38744
21
5.81194
0
LINE
8
BLACK
6
CONTINUOUS
10
-4.30714
20
5.76211
11
-4.30772
21
5.7635
0
LINE
8
BLACK
6
CONTINUOUS
10
-4.30772
20
5.7635
11
-4.30772
21
5.8265
0
LINE
8
BLACK
6
CONTINUOUS
10
-4.30772
20
5.8265
11
-4.30714
21
5.82789
0
LINE
8
BLACK
6
CONTINUOUS
10
-4.30714
20
5.82789
11
-4.30575
21
5.82846
0
LINE
8
BLACK
6
CONTINUOUS
10
-4.30575
20
5.82846
11
-4.27425
21
5.82846
0
LINE
8
BLACK
6
CONTINUOUS
10
-4.27425
20
5.82846
11
-4.27286
21
5.82789
0
LINE
8
BLACK
6
CONTINUOUS
10
-4.27286
20
5.82789
11
-4.27228
21
5.8265
0
LINE
8
BLACK
6
CONTINUOUS
10
-4.27228
20
5.8265
11
-4.27228
21
5.7635
0
LINE
8
BLACK
6
CONTINUOUS
10
-4.27228
20
5.7635
11
-4.27286
21
5.76211
0
LINE
8
BLACK
6
CONTINUOUS
10
-4.27286
20
5.76211
11
-4.27425
21
5.76154
0
LINE
8
BLACK
6
CONTINUOUS
10
-4.27425
20
5.76154
11
-4.30575
21
5.76154
0
LINE
8
BLACK
6
CONTINUOUS
10
-4.30575
20
5.76154
11
-4.30714
21
5.76211
0
LINE
8
BLACK
6
CONTINUOUS
10
-4.30378
20
5.82453
11
-4.30378
21
5.76547
0
LINE
8
BLACK
6
CONTINUOUS
10
-4.30378
20
5.76547
11
-4.27622
21
5.76547
0
LINE
8
BLACK
6
CONTINUOUS
10
-4.27622
20
5.76547
11
-4.27622
21
5.82453
0
LINE
8
BLACK
6
CONTINUOUS
10
-4.27622
20
5.82453
11
-4.30378
21
5.82453
0
LINE
8
BLACK
6
CONTINUOUS
10
-4.28354
20
5.79321
11
-4.28279
21
5.79246
0
LINE
8
BLACK
6
CONTINUOUS
10
-4.28279
20
5.79246
11
-4.28272
21
5.79228
0
LINE
8
BLACK
6
CONTINUOUS
10
-4.28272
20
5.79228
11
-4.28257
21
5.79215
0
LINE
8
BLACK
6
CONTINUOUS
10
-4.28257
20
5.79215
11
-4.28182
21
5.79065
0
LINE
8
BLACK
6
CONTINUOUS
10
-4.28182
20
5.79065
11
-4.2818
21
5.79038
0
LINE
8
BLACK
6
CONTINUOUS
10
-4.2818
20
5.79038
11
-4.28169
21
5.79013
0
LINE
8
BLACK
6
CONTINUOUS
10
-4.28169
20
5.79013
11
-4.28169
21
5.78563
0
LINE
8
BLACK
6
CONTINUOUS
10
-4.28169
20
5.78563
11
-4.2818
21
5.78537
0
LINE
8
BLACK
6
CONTINUOUS
10
-4.2818
20
5.78537
11
-4.28182
21
5.7851
0
LINE
8
BLACK
6
CONTINUOUS
10
-4.28182
20
5.7851
11
-4.28257
21
5.7836
0
LINE
8
BLACK
6
CONTINUOUS
10
-4.28257
20
5.7836
11
-4.28272
21
5.78347
0
LINE
8
BLACK
6
CONTINUOUS
10
-4.28272
20
5.78347
11
-4.28279
21
5.78329
0
LINE
8
BLACK
6
CONTINUOUS
10
-4.28279
20
5.78329
11
-4.28354
21
5.78254
0
LINE
8
BLACK
6
CONTINUOUS
10
-4.28354
20
5.78254
11
-4.28372
21
5.78247
0
LINE
8
BLACK
6
CONTINUOUS
10
-4.28372
20
5.78247
11
-4.28385
21
5.78232
0
LINE
8
BLACK
6
CONTINUOUS
10
-4.28385
20
5.78232
11
-4.28535
21
5.78157
0
LINE
8
BLACK
6
CONTINUOUS
10
-4.28535
20
5.78157
11
-4.28562
21
5.78155
0
LINE
8
BLACK
6
CONTINUOUS
10
-4.28562
20
5.78155
11
-4.28588
21
5.78145
0
LINE
8
BLACK
6
CONTINUOUS
10
-4.28588
20
5.78145
11
-4.28963
21
5.78145
0
LINE
8
BLACK
6
CONTINUOUS
10
-4.28963
20
5.78145
11
-4.28988
21
5.78155
0
LINE
8
BLACK
6
CONTINUOUS
10
-4.28988
20
5.78155
11
-4.29015
21
5.78157
0
LINE
8
BLACK
6
CONTINUOUS
10
-4.29015
20
5.78157
11
-4.29165
21
5.78232
0
LINE
8
BLACK
6
CONTINUOUS
10
-4.29165
20
5.78232
11
-4.29178
21
5.78247
0
LINE
8
BLACK
6
CONTINUOUS
10
-4.29178
20
5.78247
11
-4.29196
21
5.78254
0
LINE
8
BLACK
6
CONTINUOUS
10
-4.29196
20
5.78254
11
-4.29271
21
5.78329
0
LINE
8
BLACK
6
CONTINUOUS
10
-4.29271
20
5.78329
11
-4.29278
21
5.78347
0
LINE
8
BLACK
6
CONTINUOUS
10
-4.29278
20
5.78347
11
-4.29293
21
5.7836
0
LINE
8
BLACK
6
CONTINUOUS
10
-4.29293
20
5.7836
11
-4.29368
21
5.7851
0
LINE
8
BLACK
6
CONTINUOUS
10
-4.29368
20
5.7851
11
-4.2937
21
5.78537
0
LINE
8
BLACK
6
CONTINUOUS
10
-4.2937
20
5.78537
11
-4.29785
21
5.78174
0
LINE
8
BLACK
6
CONTINUOUS
10
-4.29785
20
5.78174
11
-4.29824
21
5.7816
0
LINE
8
BLACK
6
CONTINUOUS
10
-4.29824
20
5.7816
11
-4.29862
21
5.78145
0
LINE
8
BLACK
6
CONTINUOUS
10
-4.29862
20
5.78145
11
-4.29866
21
5.78146
0
LINE
8
BLACK
6
CONTINUOUS
10
-4.29866
20
5.78146
11
-4.2987
21
5.78145
0
LINE
8
BLACK
6
CONTINUOUS
10
-4.2987
20
5.78145
11
-4.29908
21
5.78163
0
LINE
8
BLACK
6
CONTINUOUS
10
-4.29908
20
5.78163
11
-4.29946
21
5.78179
0
LINE
8
BLACK
6
CONTINUOUS
10
-4.29946
20
5.78179
11
-4.29948
21
5.78183
0
LINE
8
BLACK
6
CONTINUOUS
10
-4.29948
20
5.78183
11
-4.29951
21
5.78185
0
LINE
8
BLACK
6
CONTINUOUS
10
-4.29951
20
5.78185
11
-4.29965
21
5.78224
0
LINE
8
BLACK
6
CONTINUOUS
10
-4.29965
20
5.78224
11
-4.29981
21
5.78263
0
LINE
8
BLACK
6
CONTINUOUS
10
-4.29981
20
5.78263
11
-4.29981
21
5.79238
0
LINE
8
BLACK
6
CONTINUOUS
10
-4.29981
20
5.79238
11
-4.29946
21
5.79321
0
LINE
8
BLACK
6
CONTINUOUS
10
-4.29946
20
5.79321
11
-4.29862
21
5.79356
0
LINE
8
BLACK
6
CONTINUOUS
10
-4.29862
20
5.79356
11
-4.29779
21
5.79321
0
LINE
8
BLACK
6
CONTINUOUS
10
-4.29779
20
5.79321
11
-4.29744
21
5.79238
0
LINE
8
BLACK
6
CONTINUOUS
10
-4.29744
20
5.79238
11
-4.29744
21
5.78523
0
LINE
8
BLACK
6
CONTINUOUS
10
-4.29744
20
5.78523
11
-4.2934
21
5.78876
0
LINE
8
BLACK
6
CONTINUOUS
10
-4.2934
20
5.78876
11
-4.29301
21
5.7889
0
LINE
8
BLACK
6
CONTINUOUS
10
-4.29301
20
5.7889
11
-4.29262
21
5.78906
0
LINE
8
BLACK
6
CONTINUOUS
10
-4.29262
20
5.78906
11
-4.29259
21
5.78904
0
LINE
8
BLACK
6
CONTINUOUS
10
-4.29259
20
5.78904
11
-4.29255
21
5.78905
0
LINE
8
BLACK
6
CONTINUOUS
10
-4.29255
20
5.78905
11
-4.29217
21
5.78887
0
LINE
8
BLACK
6
CONTINUOUS
10
-4.29217
20
5.78887
11
-4.29179
21
5.78871
0
LINE
8
BLACK
6
CONTINUOUS
10
-4.29179
20
5.78871
11
-4.29177
21
5.78867
0
LINE
8
BLACK
6
CONTINUOUS
10
-4.29177
20
5.78867
11
-4.29174
21
5.78865
0
LINE
8
BLACK
6
CONTINUOUS
10
-4.29174
20
5.78865
11
-4.2916
21
5.78826
0
LINE
8
BLACK
6
CONTINUOUS
10
-4.2916
20
5.78826
11
-4.29144
21
5.78788
0
LINE
8
BLACK
6
CONTINUOUS
10
-4.29144
20
5.78788
11
-4.29144
21
5.7859
0
LINE
8
BLACK
6
CONTINUOUS
10
-4.29144
20
5.7859
11
-4.2909
21
5.78483
0
LINE
8
BLACK
6
CONTINUOUS
10
-4.2909
20
5.78483
11
-4.29043
21
5.78435
0
LINE
8
BLACK
6
CONTINUOUS
10
-4.29043
20
5.78435
11
-4.28935
21
5.78381
0
LINE
8
BLACK
6
CONTINUOUS
10
-4.28935
20
5.78381
11
-4.28615
21
5.78381
0
LINE
8
BLACK
6
CONTINUOUS
10
-4.28615
20
5.78381
11
-4.28508
21
5.78435
0
LINE
8
BLACK
6
CONTINUOUS
10
-4.28508
20
5.78435
11
-4.2846
21
5.78483
0
LINE
8
BLACK
6
CONTINUOUS
10
-4.2846
20
5.78483
11
-4.28406
21
5.7859
0
LINE
8
BLACK
6
CONTINUOUS
10
-4.28406
20
5.7859
11
-4.28406
21
5.78985
0
LINE
8
BLACK
6
CONTINUOUS
10
-4.28406
20
5.78985
11
-4.2846
21
5.79093
0
LINE
8
BLACK
6
CONTINUOUS
10
-4.2846
20
5.79093
11
-4.28521
21
5.79154
0
LINE
8
BLACK
6
CONTINUOUS
10
-4.28521
20
5.79154
11
-4.28556
21
5.79238
0
LINE
8
BLACK
6
CONTINUOUS
10
-4.28556
20
5.79238
11
-4.28521
21
5.79321
0
LINE
8
BLACK
6
CONTINUOUS
10
-4.28521
20
5.79321
11
-4.28438
21
5.79356
0
LINE
8
BLACK
6
CONTINUOUS
10
-4.28438
20
5.79356
11
-4.28354
21
5.79321
0
LINE
8
BLACK
6
CONTINUOUS
10
-4.28204
20
5.80746
11
-4.28169
21
5.80662
0
LINE
8
BLACK
6
CONTINUOUS
10
-4.28169
20
5.80662
11
-4.28204
21
5.80579
0
LINE
8
BLACK
6
CONTINUOUS
10
-4.28204
20
5.80579
11
-4.28288
21
5.80544
0
LINE
8
BLACK
6
CONTINUOUS
10
-4.28288
20
5.80544
11
-4.28919
21
5.80544
0
LINE
8
BLACK
6
CONTINUOUS
10
-4.28919
20
5.80544
11
-4.28919
21
5.80349
0
LINE
8
BLACK
6
CONTINUOUS
10
-4.28919
20
5.80349
11
-4.2822
21
5.79859
0
LINE
8
BLACK
6
CONTINUOUS
10
-4.2822
20
5.79859
11
-4.28171
21
5.79783
0
LINE
8
BLACK
6
CONTINUOUS
10
-4.28171
20
5.79783
11
-4.28191
21
5.79695
0
LINE
8
BLACK
6
CONTINUOUS
10
-4.28191
20
5.79695
11
-4.28267
21
5.79646
0
LINE
8
BLACK
6
CONTINUOUS
10
-4.28267
20
5.79646
11
-4.28355
21
5.79666
0
LINE
8
BLACK
6
CONTINUOUS
10
-4.28355
20
5.79666
11
-4.2892
21
5.80061
0
LINE
8
BLACK
6
CONTINUOUS
10
-4.2892
20
5.80061
11
-4.2893
21
5.80037
0
LINE
8
BLACK
6
CONTINUOUS
10
-4.2893
20
5.80037
11
-4.28932
21
5.8001
0
LINE
8
BLACK
6
CONTINUOUS
10
-4.28932
20
5.8001
11
-4.29007
21
5.7986
0
LINE
8
BLACK
6
CONTINUOUS
10
-4.29007
20
5.7986
11
-4.29022
21
5.79847
0
LINE
8
BLACK
6
CONTINUOUS
10
-4.29022
20
5.79847
11
-4.29029
21
5.79829
0
LINE
8
BLACK
6
CONTINUOUS
10
-4.29029
20
5.79829
11
-4.29104
21
5.79754
0
LINE
8
BLACK
6
CONTINUOUS
10
-4.29104
20
5.79754
11
-4.29122
21
5.79746
0
LINE
8
BLACK
6
CONTINUOUS
10
-4.29122
20
5.79746
11
-4.29135
21
5.79732
0
LINE
8
BLACK
6
CONTINUOUS
10
-4.29135
20
5.79732
11
-4.29285
21
5.79657
0
LINE
8
BLACK
6
CONTINUOUS
10
-4.29285
20
5.79657
11
-4.29312
21
5.79655
0
LINE
8
BLACK
6
CONTINUOUS
10
-4.29312
20
5.79655
11
-4.29337
21
5.79644
0
LINE
8
BLACK
6
CONTINUOUS
10
-4.29337
20
5.79644
11
-4.29562
21
5.79644
0
LINE
8
BLACK
6
CONTINUOUS
10
-4.29562
20
5.79644
11
-4.29588
21
5.79655
0
LINE
8
BLACK
6
CONTINUOUS
10
-4.29588
20
5.79655
11
-4.29615
21
5.79657
0
LINE
8
BLACK
6
CONTINUOUS
10
-4.29615
20
5.79657
11
-4.29765
21
5.79732
0
LINE
8
BLACK
6
CONTINUOUS
10
-4.29765
20
5.79732
11
-4.29778
21
5.79746
0
LINE
8
BLACK
6
CONTINUOUS
10
-4.29778
20
5.79746
11
-4.29796
21
5.79754
0
LINE
8
BLACK
6
CONTINUOUS
10
-4.29796
20
5.79754
11
-4.29871
21
5.79829
0
LINE
8
BLACK
6
CONTINUOUS
10
-4.29871
20
5.79829
11
-4.29878
21
5.79847
0
LINE
8
BLACK
6
CONTINUOUS
10
-4.29878
20
5.79847
11
-4.29893
21
5.7986
0
LINE
8
BLACK
6
CONTINUOUS
10
-4.29893
20
5.7986
11
-4.29968
21
5.8001
0
LINE
8
BLACK
6
CONTINUOUS
10
-4.29968
20
5.8001
11
-4.2997
21
5.80037
0
LINE
8
BLACK
6
CONTINUOUS
10
-4.2997
20
5.80037
11
-4.29981
21
5.80062
0
LINE
8
BLACK
6
CONTINUOUS
10
-4.29981
20
5.80062
11
-4.29981
21
5.80662
0
LINE
8
BLACK
6
CONTINUOUS
10
-4.29981
20
5.80662
11
-4.29946
21
5.80746
0
LINE
8
BLACK
6
CONTINUOUS
10
-4.29946
20
5.80746
11
-4.29862
21
5.8078
0
LINE
8
BLACK
6
CONTINUOUS
10
-4.29862
20
5.8078
11
-4.28288
21
5.8078
0
LINE
8
BLACK
6
CONTINUOUS
10
-4.28288
20
5.8078
11
-4.28204
21
5.80746
0
LINE
8
BLACK
6
CONTINUOUS
10
-4.29744
20
5.80544
11
-4.29744
21
5.8009
0
LINE
8
BLACK
6
CONTINUOUS
10
-4.29744
20
5.8009
11
-4.2969
21
5.79982
0
LINE
8
BLACK
6
CONTINUOUS
10
-4.2969
20
5.79982
11
-4.29642
21
5.79935
0
LINE
8
BLACK
6
CONTINUOUS
10
-4.29642
20
5.79935
11
-4.29535
21
5.79881
0
LINE
8
BLACK
6
CONTINUOUS
10
-4.29535
20
5.79881
11
-4.29365
21
5.79881
0
LINE
8
BLACK
6
CONTINUOUS
10
-4.29365
20
5.79881
11
-4.29257
21
5.79935
0
LINE
8
BLACK
6
CONTINUOUS
10
-4.29257
20
5.79935
11
-4.2921
21
5.79982
0
LINE
8
BLACK
6
CONTINUOUS
10
-4.2921
20
5.79982
11
-4.29156
21
5.8009
0
LINE
8
BLACK
6
CONTINUOUS
10
-4.29156
20
5.8009
11
-4.29156
21
5.80544
0
LINE
8
BLACK
6
CONTINUOUS
10
-4.29156
20
5.80544
11
-4.29744
21
5.80544
0
LINE
8
BLACK
6
CONTINUOUS
10
-4.48214
20
5.76312
11
-4.48272
21
5.76451
0
LINE
8
BLACK
6
CONTINUOUS
10
-4.48272
20
5.76451
11
-4.48272
21
5.8275
0
LINE
8
BLACK
6
CONTINUOUS
10
-4.48272
20
5.8275
11
-4.48214
21
5.82889
0
LINE
8
BLACK
6
CONTINUOUS
10
-4.48214
20
5.82889
11
-4.48075
21
5.82947
0
LINE
8
BLACK
6
CONTINUOUS
10
-4.48075
20
5.82947
11
-4.44925
21
5.82947
0
LINE
8
BLACK
6
CONTINUOUS
10
-4.44925
20
5.82947
11
-4.44786
21
5.82889
0
LINE
8
BLACK
6
CONTINUOUS
10
-4.44786
20
5.82889
11
-4.44728
21
5.8275
0
LINE
8
BLACK
6
CONTINUOUS
10
-4.44728
20
5.8275
11
-4.44728
21
5.76451
0
LINE
8
BLACK
6
CONTINUOUS
10
-4.44728
20
5.76451
11
-4.44786
21
5.76312
0
LINE
8
BLACK
6
CONTINUOUS
10
-4.44786
20
5.76312
11
-4.44925
21
5.76254
0
LINE
8
BLACK
6
CONTINUOUS
10
-4.44925
20
5.76254
11
-4.48075
21
5.76254
0
LINE
8
BLACK
6
CONTINUOUS
10
-4.48075
20
5.76254
11
-4.48214
21
5.76312
0
LINE
8
BLACK
6
CONTINUOUS
10
-4.47878
20
5.82553
11
-4.47878
21
5.76648
0
LINE
8
BLACK
6
CONTINUOUS
10
-4.47878
20
5.76648
11
-4.45122
21
5.76648
0
LINE
8
BLACK
6
CONTINUOUS
10
-4.45122
20
5.76648
11
-4.45122
21
5.82553
0
LINE
8
BLACK
6
CONTINUOUS
10
-4.45122
20
5.82553
11
-4.47878
21
5.82553
0
LINE
8
BLACK
6
CONTINUOUS
10
-4.45704
20
5.79346
11
-4.45669
21
5.79263
0
LINE
8
BLACK
6
CONTINUOUS
10
-4.45669
20
5.79263
11
-4.45669
21
5.78363
0
LINE
8
BLACK
6
CONTINUOUS
10
-4.45669
20
5.78363
11
-4.45704
21
5.7828
0
LINE
8
BLACK
6
CONTINUOUS
10
-4.45704
20
5.7828
11
-4.45788
21
5.78245
0
LINE
8
BLACK
6
CONTINUOUS
10
-4.45788
20
5.78245
11
-4.45871
21
5.7828
0
LINE
8
BLACK
6
CONTINUOUS
10
-4.45871
20
5.7828
11
-4.45906
21
5.78363
0
LINE
8
BLACK
6
CONTINUOUS
10
-4.45906
20
5.78363
11
-4.45906
21
5.78695
0
LINE
8
BLACK
6
CONTINUOUS
10
-4.45906
20
5.78695
11
-4.47362
21
5.78695
0
LINE
8
BLACK
6
CONTINUOUS
10
-4.47362
20
5.78695
11
-4.47374
21
5.787
0
LINE
8
BLACK
6
CONTINUOUS
10
-4.47374
20
5.787
11
-4.47386
21
5.78697
0
LINE
8
BLACK
6
CONTINUOUS
10
-4.47386
20
5.78697
11
-4.47414
21
5.78716
0
LINE
8
BLACK
6
CONTINUOUS
10
-4.47414
20
5.78716
11
-4.47446
21
5.78729
0
LINE
8
BLACK
6
CONTINUOUS
10
-4.47446
20
5.78729
11
-4.47451
21
5.78741
0
LINE
8
BLACK
6
CONTINUOUS
10
-4.47451
20
5.78741
11
-4.47461
21
5.78747
0
LINE
8
BLACK
6
CONTINUOUS
10
-4.47461
20
5.78747
11
-4.47467
21
5.78781
0
LINE
8
BLACK
6
CONTINUOUS
10
-4.47467
20
5.78781
11
-4.47481
21
5.78813
0
LINE
8
BLACK
6
CONTINUOUS
10
-4.47481
20
5.78813
11
-4.47476
21
5.78824
0
LINE
8
BLACK
6
CONTINUOUS
10
-4.47476
20
5.78824
11
-4.47478
21
5.78836
0
LINE
8
BLACK
6
CONTINUOUS
10
-4.47478
20
5.78836
11
-4.47459
21
5.78865
0
LINE
8
BLACK
6
CONTINUOUS
10
-4.47459
20
5.78865
11
-4.47446
21
5.78897
0
LINE
8
BLACK
6
CONTINUOUS
10
-4.47446
20
5.78897
11
-4.47435
21
5.78901
0
LINE
8
BLACK
6
CONTINUOUS
10
-4.47435
20
5.78901
11
-4.47428
21
5.78911
0
LINE
8
BLACK
6
CONTINUOUS
10
-4.47428
20
5.78911
11
-4.47213
21
5.79055
0
LINE
8
BLACK
6
CONTINUOUS
10
-4.47213
20
5.79055
11
-4.47085
21
5.79183
0
LINE
8
BLACK
6
CONTINUOUS
10
-4.47085
20
5.79183
11
-4.47018
21
5.79316
0
LINE
8
BLACK
6
CONTINUOUS
10
-4.47018
20
5.79316
11
-4.4695
21
5.79375
0
LINE
8
BLACK
6
CONTINUOUS
10
-4.4695
20
5.79375
11
-4.4686
21
5.79369
0
LINE
8
BLACK
6
CONTINUOUS
10
-4.4686
20
5.79369
11
-4.468
21
5.793
0
LINE
8
BLACK
6
CONTINUOUS
10
-4.468
20
5.793
11
-4.46807
21
5.7921
0
LINE
8
BLACK
6
CONTINUOUS
10
-4.46807
20
5.7921
11
-4.46882
21
5.7906
0
LINE
8
BLACK
6
CONTINUOUS
10
-4.46882
20
5.7906
11
-4.46896
21
5.79047
0
LINE
8
BLACK
6
CONTINUOUS
10
-4.46896
20
5.79047
11
-4.46904
21
5.79029
0
LINE
8
BLACK
6
CONTINUOUS
10
-4.46904
20
5.79029
11
-4.47002
21
5.78931
0
LINE
8
BLACK
6
CONTINUOUS
10
-4.47002
20
5.78931
11
-4.45906
21
5.78931
0
LINE
8
BLACK
6
CONTINUOUS
10
-4.45906
20
5.78931
11
-4.45906
21
5.79263
0
LINE
8
BLACK
6
CONTINUOUS
10
-4.45906
20
5.79263
11
-4.45871
21
5.79346
0
LINE
8
BLACK
6
CONTINUOUS
10
-4.45871
20
5.79346
11
-4.45788
21
5.79381
0
LINE
8
BLACK
6
CONTINUOUS
10
-4.45788
20
5.79381
11
-4.45704
21
5.79346
0
LINE
8
BLACK
6
CONTINUOUS
10
-4.45704
20
5.80846
11
-4.45669
21
5.80763
0
LINE
8
BLACK
6
CONTINUOUS
10
-4.45669
20
5.80763
11
-4.45704
21
5.80679
0
LINE
8
BLACK
6
CONTINUOUS
10
-4.45704
20
5.80679
11
-4.45788
21
5.80645
0
LINE
8
BLACK
6
CONTINUOUS
10
-4.45788
20
5.80645
11
-4.46419
21
5.80645
0
LINE
8
BLACK
6
CONTINUOUS
10
-4.46419
20
5.80645
11
-4.46419
21
5.80449
0
LINE
8
BLACK
6
CONTINUOUS
10
-4.46419
20
5.80449
11
-4.4572
21
5.7996
0
LINE
8
BLACK
6
CONTINUOUS
10
-4.4572
20
5.7996
11
-4.45671
21
5.79883
0
LINE
8
BLACK
6
CONTINUOUS
10
-4.45671
20
5.79883
11
-4.45691
21
5.79795
0
LINE
8
BLACK
6
CONTINUOUS
10
-4.45691
20
5.79795
11
-4.45767
21
5.79747
0
LINE
8
BLACK
6
CONTINUOUS
10
-4.45767
20
5.79747
11
-4.45855
21
5.79766
0
LINE
8
BLACK
6
CONTINUOUS
10
-4.45855
20
5.79766
11
-4.4642
21
5.80161
0
LINE
8
BLACK
6
CONTINUOUS
10
-4.4642
20
5.80161
11
-4.4643
21
5.80137
0
LINE
8
BLACK
6
CONTINUOUS
10
-4.4643
20
5.80137
11
-4.46432
21
5.8011
0
LINE
8
BLACK
6
CONTINUOUS
10
-4.46432
20
5.8011
11
-4.46507
21
5.7996
0
LINE
8
BLACK
6
CONTINUOUS
10
-4.46507
20
5.7996
11
-4.46522
21
5.79947
0
LINE
8
BLACK
6
CONTINUOUS
10
-4.46522
20
5.79947
11
-4.46529
21
5.79929
0
LINE
8
BLACK
6
CONTINUOUS
10
-4.46529
20
5.79929
11
-4.46604
21
5.79854
0
LINE
8
BLACK
6
CONTINUOUS
10
-4.46604
20
5.79854
11
-4.46622
21
5.79847
0
LINE
8
BLACK
6
CONTINUOUS
10
-4.46622
20
5.79847
11
-4.46635
21
5.79832
0
LINE
8
BLACK
6
CONTINUOUS
10
-4.46635
20
5.79832
11
-4.46785
21
5.79757
0
LINE
8
BLACK
6
CONTINUOUS
10
-4.46785
20
5.79757
11
-4.46812
21
5.79755
0
LINE
8
BLACK
6
CONTINUOUS
10
-4.46812
20
5.79755
11
-4.46837
21
5.79745
0
LINE
8
BLACK
6
CONTINUOUS
10
-4.46837
20
5.79745
11
-4.47062
21
5.79745
0
LINE
8
BLACK
6
CONTINUOUS
10
-4.47062
20
5.79745
11
-4.47088
21
5.79755
0
LINE
8
BLACK
6
CONTINUOUS
10
-4.47088
20
5.79755
11
-4.47115
21
5.79757
0
LINE
8
BLACK
6
CONTINUOUS
10
-4.47115
20
5.79757
11
-4.47265
21
5.79832
0
LINE
8
BLACK
6
CONTINUOUS
10
-4.47265
20
5.79832
11
-4.47278
21
5.79847
0
LINE
8
BLACK
6
CONTINUOUS
10
-4.47278
20
5.79847
11
-4.47296
21
5.79854
0
LINE
8
BLACK
6
CONTINUOUS
10
-4.47296
20
5.79854
11
-4.47371
21
5.79929
0
LINE
8
BLACK
6
CONTINUOUS
10
-4.47371
20
5.79929
11
-4.47378
21
5.79947
0
LINE
8
BLACK
6
CONTINUOUS
10
-4.47378
20
5.79947
11
-4.47393
21
5.7996
0
LINE
8
BLACK
6
CONTINUOUS
10
-4.47393
20
5.7996
11
-4.47468
21
5.8011
0
LINE
8
BLACK
6
CONTINUOUS
10
-4.47468
20
5.8011
11
-4.4747
21
5.80137
0
LINE
8
BLACK
6
CONTINUOUS
10
-4.4747
20
5.80137
11
-4.47481
21
5.80163
0
LINE
8
BLACK
6
CONTINUOUS
10
-4.47481
20
5.80163
11
-4.47481
21
5.80763
0
LINE
8
BLACK
6
CONTINUOUS
10
-4.47481
20
5.80763
11
-4.47446
21
5.80846
0
LINE
8
BLACK
6
CONTINUOUS
10
-4.47446
20
5.80846
11
-4.47362
21
5.80881
0
LINE
8
BLACK
6
CONTINUOUS
10
-4.47362
20
5.80881
11
-4.45788
21
5.80881
0
LINE
8
BLACK
6
CONTINUOUS
10
-4.45788
20
5.80881
11
-4.45704
21
5.80846
0
LINE
8
BLACK
6
CONTINUOUS
10
-4.47244
20
5.80645
11
-4.47244
21
5.80191
0
LINE
8
BLACK
6
CONTINUOUS
10
-4.47244
20
5.80191
11
-4.4719
21
5.80083
0
LINE
8
BLACK
6
CONTINUOUS
10
-4.4719
20
5.80083
11
-4.47142
21
5.80035
0
LINE
8
BLACK
6
CONTINUOUS
10
-4.47142
20
5.80035
11
-4.47035
21
5.79981
0
LINE
8
BLACK
6
CONTINUOUS
10
-4.47035
20
5.79981
11
-4.46865
21
5.79981
0
LINE
8
BLACK
6
CONTINUOUS
10
-4.46865
20
5.79981
11
-4.46757
21
5.80035
0
LINE
8
BLACK
6
CONTINUOUS
10
-4.46757
20
5.80035
11
-4.4671
21
5.80083
0
LINE
8
BLACK
6
CONTINUOUS
10
-4.4671
20
5.80083
11
-4.46656
21
5.80191
0
LINE
8
BLACK
6
CONTINUOUS
10
-4.46656
20
5.80191
11
-4.46656
21
5.80645
0
LINE
8
BLACK
6
CONTINUOUS
10
-4.46656
20
5.80645
11
-4.47244
21
5.80645
0
LINE
8
BLACK
6
CONTINUOUS
10
-4.61345
20
5.79311
11
-4.61318
21
5.79315
0
LINE
8
BLACK
6
CONTINUOUS
10
-4.61318
20
5.79315
11
-4.60943
21
5.79222
0
LINE
8
BLACK
6
CONTINUOUS
10
-4.60943
20
5.79222
11
-4.60923
21
5.79207
0
LINE
8
BLACK
6
CONTINUOUS
10
-4.60923
20
5.79207
11
-4.60899
21
5.79205
0
LINE
8
BLACK
6
CONTINUOUS
10
-4.60899
20
5.79205
11
-4.60711
21
5.79112
0
LINE
8
BLACK
6
CONTINUOUS
10
-4.60711
20
5.79112
11
-4.60688
21
5.79085
0
LINE
8
BLACK
6
CONTINUOUS
10
-4.60688
20
5.79085
11
-4.60656
21
5.79071
0
LINE
8
BLACK
6
CONTINUOUS
10
-4.60656
20
5.79071
11
-4.60468
21
5.78884
0
LINE
8
BLACK
6
CONTINUOUS
10
-4.60468
20
5.78884
11
-4.60449
21
5.78837
0
LINE
8
BLACK
6
CONTINUOUS
10
-4.60449
20
5.78837
11
-4.60416
21
5.788
0
LINE
8
BLACK
6
CONTINUOUS
10
-4.60416
20
5.788
11
-4.60322
21
5.78518
0
LINE
8
BLACK
6
CONTINUOUS
10
-4.60322
20
5.78518
11
-4.60325
21
5.78483
0
LINE
8
BLACK
6
CONTINUOUS
10
-4.60325
20
5.78483
11
-4.60311
21
5.7845
0
LINE
8
BLACK
6
CONTINUOUS
10
-4.60311
20
5.7845
11
-4.60311
21
5.78263
0
LINE
8
BLACK
6
CONTINUOUS
10
-4.60311
20
5.78263
11
-4.60325
21
5.7823
0
LINE
8
BLACK
6
CONTINUOUS
10
-4.60325
20
5.7823
11
-4.60322
21
5.78195
0
LINE
8
BLACK
6
CONTINUOUS
10
-4.60322
20
5.78195
11
-4.60416
21
5.77913
0
LINE
8
BLACK
6
CONTINUOUS
10
-4.60416
20
5.77913
11
-4.60449
21
5.77875
0
LINE
8
BLACK
6
CONTINUOUS
10
-4.60449
20
5.77875
11
-4.60468
21
5.77829
0
LINE
8
BLACK
6
CONTINUOUS
10
-4.60468
20
5.77829
11
-4.60562
21
5.77735
0
LINE
8
BLACK
6
CONTINUOUS
10
-4.60562
20
5.77735
11
-4.60714
21
5.77672
0
LINE
8
BLACK
6
CONTINUOUS
10
-4.60714
20
5.77672
11
-4.60866
21
5.77735
0
LINE
8
BLACK
6
CONTINUOUS
10
-4.60866
20
5.77735
11
-4.60929
21
5.77887
0
LINE
8
BLACK
6
CONTINUOUS
10
-4.60929
20
5.77887
11
-4.60866
21
5.78039
0
LINE
8
BLACK
6
CONTINUOUS
10
-4.60866
20
5.78039
11
-4.60808
21
5.78097
0
LINE
8
BLACK
6
CONTINUOUS
10
-4.60808
20
5.78097
11
-4.60741
21
5.78298
0
LINE
8
BLACK
6
CONTINUOUS
10
-4.60741
20
5.78298
11
-4.60741
21
5.78415
0
LINE
8
BLACK
6
CONTINUOUS
10
-4.60741
20
5.78415
11
-4.60808
21
5.78616
0
LINE
8
BLACK
6
CONTINUOUS
10
-4.60808
20
5.78616
11
-4.60935
21
5.78743
0
LINE
8
BLACK
6
CONTINUOUS
10
-4.60935
20
5.78743
11
-4.6107
21
5.7881
0
LINE
8
BLACK
6
CONTINUOUS
10
-4.6107
20
5.7881
11
-4.61397
21
5.78892
0
LINE
8
BLACK
6
CONTINUOUS
10
-4.61397
20
5.78892
11
-4.61625
21
5.78892
0
LINE
8
BLACK
6
CONTINUOUS
10
-4.61625
20
5.78892
11
-4.61952
21
5.7881
0
LINE
8
BLACK
6
CONTINUOUS
10
-4.61952
20
5.7881
11
-4.62087
21
5.78743
0
LINE
8
BLACK
6
CONTINUOUS
10
-4.62087
20
5.78743
11
-4.62214
21
5.78616
0
LINE
8
BLACK
6
CONTINUOUS
10
-4.62214
20
5.78616
11
-4.62281
21
5.78415
0
LINE
8
BLACK
6
CONTINUOUS
10
-4.62281
20
5.78415
11
-4.62281
21
5.78298
0
LINE
8
BLACK
6
CONTINUOUS
10
-4.62281
20
5.78298
11
-4.62214
21
5.78097
0
LINE
8
BLACK
6
CONTINUOUS
10
-4.62214
20
5.78097
11
-4.62156
21
5.78039
0
LINE
8
BLACK
6
CONTINUOUS
10
-4.62156
20
5.78039
11
-4.62094
21
5.77887
0
LINE
8
BLACK
6
CONTINUOUS
10
-4.62094
20
5.77887
11
-4.62156
21
5.77735
0
LINE
8
BLACK
6
CONTINUOUS
10
-4.62156
20
5.77735
11
-4.62309
21
5.77672
0
LINE
8
BLACK
6
CONTINUOUS
10
-4.62309
20
5.77672
11
-4.62461
21
5.77735
0
LINE
8
BLACK
6
CONTINUOUS
10
-4.62461
20
5.77735
11
-4.62554
21
5.77829
0
LINE
8
BLACK
6
CONTINUOUS
10
-4.62554
20
5.77829
11
-4.62574
21
5.77875
0
LINE
8
BLACK
6
CONTINUOUS
10
-4.62574
20
5.77875
11
-4.62606
21
5.77913
0
LINE
8
BLACK
6
CONTINUOUS
10
-4.62606
20
5.77913
11
-4.627
21
5.78195
0
LINE
8
BLACK
6
CONTINUOUS
10
-4.627
20
5.78195
11
-4.62698
21
5.7823
0
LINE
8
BLACK
6
CONTINUOUS
10
-4.62698
20
5.7823
11
-4.62711
21
5.78263
0
LINE
8
BLACK
6
CONTINUOUS
10
-4.62711
20
5.78263
11
-4.62711
21
5.7845
0
LINE
8
BLACK
6
CONTINUOUS
10
-4.62711
20
5.7845
11
-4.62698
21
5.78483
0
LINE
8
BLACK
6
CONTINUOUS
10
-4.62698
20
5.78483
11
-4.627
21
5.78518
0
LINE
8
BLACK
6
CONTINUOUS
10
-4.627
20
5.78518
11
-4.62606
21
5.788
0
LINE
8
BLACK
6
CONTINUOUS
10
-4.62606
20
5.788
11
-4.62573
21
5.78837
0
LINE
8
BLACK
6
CONTINUOUS
10
-4.62573
20
5.78837
11
-4.62554
21
5.78884
0
LINE
8
BLACK
6
CONTINUOUS
10
-4.62554
20
5.78884
11
-4.62367
21
5.79071
0
LINE
8
BLACK
6
CONTINUOUS
10
-4.62367
20
5.79071
11
-4.62334
21
5.79085
0
LINE
8
BLACK
6
CONTINUOUS
10
-4.62334
20
5.79085
11
-4.62311
21
5.79112
0
LINE
8
BLACK
6
CONTINUOUS
10
-4.62311
20
5.79112
11
-4.62123
21
5.79205
0
LINE
8
BLACK
6
CONTINUOUS
10
-4.62123
20
5.79205
11
-4.62099
21
5.79207
0
LINE
8
BLACK
6
CONTINUOUS
10
-4.62099
20
5.79207
11
-4.62079
21
5.79222
0
LINE
8
BLACK
6
CONTINUOUS
10
-4.62079
20
5.79222
11
-4.61704
21
5.79315
0
LINE
8
BLACK
6
CONTINUOUS
10
-4.61704
20
5.79315
11
-4.61677
21
5.79311
0
LINE
8
BLACK
6
CONTINUOUS
10
-4.61677
20
5.79311
11
-4.61652
21
5.79322
0
LINE
8
BLACK
6
CONTINUOUS
10
-4.61652
20
5.79322
11
-4.6137
21
5.79322
0
LINE
8
BLACK
6
CONTINUOUS
10
-4.6137
20
5.79322
11
-4.61345
21
5.79311
0
LINE
8
BLACK
6
CONTINUOUS
10
-4.7259
20
5.81541
11
-4.72577
21
5.81543
0
LINE
8
BLACK
6
CONTINUOUS
10
-4.72577
20
5.81543
11
-4.72566
21
5.81537
0
LINE
8
BLACK
6
CONTINUOUS
10
-4.72566
20
5.81537
11
-4.72527
21
5.8153
0
LINE
8
BLACK
6
CONTINUOUS
10
-4.72527
20
5.8153
11
-4.72469
21
5.8148
0
LINE
8
BLACK
6
CONTINUOUS
10
-4.72469
20
5.8148
11
-4.72402
21
5.81442
0
LINE
8
BLACK
6
CONTINUOUS
10
-4.72402
20
5.81442
11
-4.72393
21
5.81417
0
LINE
8
BLACK
6
CONTINUOUS
10
-4.72393
20
5.81417
11
-4.72373
21
5.814
0
LINE
8
BLACK
6
CONTINUOUS
10
-4.72373
20
5.814
11
-4.72359
21
5.81324
0
LINE
8
BLACK
6
CONTINUOUS
10
-4.72359
20
5.81324
11
-4.72333
21
5.81252
0
LINE
8
BLACK
6
CONTINUOUS
10
-4.72333
20
5.81252
11
-4.72333
21
5.80315
0
LINE
8
BLACK
6
CONTINUOUS
10
-4.72333
20
5.80315
11
-4.72348
21
5.80228
0
LINE
8
BLACK
6
CONTINUOUS
10
-4.72348
20
5.80228
11
-4.72348
21
5.80222
0
LINE
8
BLACK
6
CONTINUOUS
10
-4.72348
20
5.80222
11
-4.72536
21
5.79659
0
LINE
8
BLACK
6
CONTINUOUS
10
-4.72536
20
5.79659
11
-4.72585
21
5.79569
0
LINE
8
BLACK
6
CONTINUOUS
10
-4.72585
20
5.79569
11
-4.726
21
5.7956
0
LINE
8
BLACK
6
CONTINUOUS
10
-4.726
20
5.7956
11
-4.72607
21
5.79544
0
LINE
8
BLACK
6
CONTINUOUS
10
-4.72607
20
5.79544
11
-4.72982
21
5.79169
0
LINE
8
BLACK
6
CONTINUOUS
10
-4.72982
20
5.79169
11
-4.73054
21
5.79118
0
LINE
8
BLACK
6
CONTINUOUS
10
-4.73054
20
5.79118
11
-4.73059
21
5.79113
0
LINE
8
BLACK
6
CONTINUOUS
10
-4.73059
20
5.79113
11
-4.73434
21
5.78926
0
LINE
8
BLACK
6
CONTINUOUS
10
-4.73434
20
5.78926
11
-4.73483
21
5.78911
0
LINE
8
BLACK
6
CONTINUOUS
10
-4.73483
20
5.78911
11
-4.73494
21
5.78904
0
LINE
8
BLACK
6
CONTINUOUS
10
-4.73494
20
5.78904
11
-4.74244
21
5.78716
0
LINE
8
BLACK
6
CONTINUOUS
10
-4.74244
20
5.78716
11
-4.74303
21
5.78712
0
LINE
8
BLACK
6
CONTINUOUS
10
-4.74303
20
5.78712
11
-4.74316
21
5.78707
0
LINE
8
BLACK
6
CONTINUOUS
10
-4.74316
20
5.78707
11
-4.74878
21
5.78707
0
LINE
8
BLACK
6
CONTINUOUS
10
-4.74878
20
5.78707
11
-4.74936
21
5.78718
0
LINE
8
BLACK
6
CONTINUOUS
10
-4.74936
20
5.78718
11
-4.7495
21
5.78716
0
LINE
8
BLACK
6
CONTINUOUS
10
-4.7495
20
5.78716
11
-4.757
21
5.78904
0
LINE
8
BLACK
6
CONTINUOUS
10
-4.757
20
5.78904
11
-4.75746
21
5.78924
0
LINE
8
BLACK
6
CONTINUOUS
10
-4.75746
20
5.78924
11
-4.7576
21
5.78926
0
LINE
8
BLACK
6
CONTINUOUS
10
-4.7576
20
5.78926
11
-4.76135
21
5.79113
0
LINE
8
BLACK
6
CONTINUOUS
10
-4.76135
20
5.79113
11
-4.76206
21
5.79166
0
LINE
8
BLACK
6
CONTINUOUS
10
-4.76206
20
5.79166
11
-4.76212
21
5.79169
0
LINE
8
BLACK
6
CONTINUOUS
10
-4.76212
20
5.79169
11
-4.76587
21
5.79544
0
LINE
8
BLACK
6
CONTINUOUS
10
-4.76587
20
5.79544
11
-4.76646
21
5.79628
0
LINE
8
BLACK
6
CONTINUOUS
10
-4.76646
20
5.79628
11
-4.76647
21
5.79645
0
LINE
8
BLACK
6
CONTINUOUS
10
-4.76647
20
5.79645
11
-4.76658
21
5.79659
0
LINE
8
BLACK
6
CONTINUOUS
10
-4.76658
20
5.79659
11
-4.76846
21
5.80222
0
LINE
8
BLACK
6
CONTINUOUS
10
-4.76846
20
5.80222
11
-4.76859
21
5.80309
0
LINE
8
BLACK
6
CONTINUOUS
10
-4.76859
20
5.80309
11
-4.76861
21
5.80315
0
LINE
8
BLACK
6
CONTINUOUS
10
-4.76861
20
5.80315
11
-4.76861
21
5.81252
0
LINE
8
BLACK
6
CONTINUOUS
10
-4.76861
20
5.81252
11
-4.76854
21
5.81291
0
LINE
8
BLACK
6
CONTINUOUS
10
-4.76854
20
5.81291
11
-4.76856
21
5.81304
0
LINE
8
BLACK
6
CONTINUOUS
10
-4.76856
20
5.81304
11
-4.7685
21
5.81315
0
LINE
8
BLACK
6
CONTINUOUS
10
-4.7685
20
5.81315
11
-4.76843
21
5.81353
0
LINE
8
BLACK
6
CONTINUOUS
10
-4.76843
20
5.81353
11
-4.76794
21
5.81412
0
LINE
8
BLACK
6
CONTINUOUS
10
-4.76794
20
5.81412
11
-4.76755
21
5.81479
0
LINE
8
BLACK
6
CONTINUOUS
10
-4.76755
20
5.81479
11
-4.7673
21
5.81488
0
LINE
8
BLACK
6
CONTINUOUS
10
-4.7673
20
5.81488
11
-4.76713
21
5.81508
0
LINE
8
BLACK
6
CONTINUOUS
10
-4.76713
20
5.81508
11
-4.76638
21
5.81521
0
LINE
8
BLACK
6
CONTINUOUS
10
-4.76638
20
5.81521
11
-4.76565
21
5.81548
0
LINE
8
BLACK
6
CONTINUOUS
10
-4.76565
20
5.81548
11
-4.72628
21
5.81548
0
LINE
8
BLACK
6
CONTINUOUS
10
-4.72628
20
5.81548
11
-4.7259
21
5.81541
0
LINE
8
BLACK
6
CONTINUOUS
10
-4.7627
20
5.80957
11
-4.7627
21
5.80363
0
LINE
8
BLACK
6
CONTINUOUS
10
-4.7627
20
5.80363
11
-4.7612
21
5.79912
0
LINE
8
BLACK
6
CONTINUOUS
10
-4.7612
20
5.79912
11
-4.75828
21
5.7962
0
LINE
8
BLACK
6
CONTINUOUS
10
-4.75828
20
5.7962
11
-4.75525
21
5.79469
0
LINE
8
BLACK
6
CONTINUOUS
10
-4.75525
20
5.79469
11
-4.74842
21
5.79298
0
LINE
8
BLACK
6
CONTINUOUS
10
-4.74842
20
5.79298
11
-4.74352
21
5.79298
0
LINE
8
BLACK
6
CONTINUOUS
10
-4.74352
20
5.79298
11
-4.73669
21
5.79469
0
LINE
8
BLACK
6
CONTINUOUS
10
-4.73669
20
5.79469
11
-4.73366
21
5.7962
0
LINE
8
BLACK
6
CONTINUOUS
10
-4.73366
20
5.7962
11
-4.73074
21
5.79912
0
LINE
8
BLACK
6
CONTINUOUS
10
-4.73074
20
5.79912
11
-4.72924
21
5.80363
0
LINE
8
BLACK
6
CONTINUOUS
10
-4.72924
20
5.80363
11
-4.72924
21
5.80957
0
LINE
8
BLACK
6
CONTINUOUS
10
-4.72924
20
5.80957
11
-4.7627
21
5.80957
0
LINE
8
BLACK
6
CONTINUOUS
10
-4.58462
20
5.84039
11
-4.58449
21
5.84041
0
LINE
8
BLACK
6
CONTINUOUS
10
-4.58449
20
5.84041
11
-4.58437
21
5.84034
0
LINE
8
BLACK
6
CONTINUOUS
10
-4.58437
20
5.84034
11
-4.58399
21
5.84027
0
LINE
8
BLACK
6
CONTINUOUS
10
-4.58399
20
5.84027
11
-4.5834
21
5.83978
0
LINE
8
BLACK
6
CONTINUOUS
10
-4.5834
20
5.83978
11
-4.58274
21
5.8394
0
LINE
8
BLACK
6
CONTINUOUS
10
-4.58274
20
5.8394
11
-4.58265
21
5.83915
0
LINE
8
BLACK
6
CONTINUOUS
10
-4.58265
20
5.83915
11
-4.58244
21
5.83898
0
LINE
8
BLACK
6
CONTINUOUS
10
-4.58244
20
5.83898
11
-4.58231
21
5.83822
0
LINE
8
BLACK
6
CONTINUOUS
10
-4.58231
20
5.83822
11
-4.58205
21
5.8375
0
LINE
8
BLACK
6
CONTINUOUS
10
-4.58205
20
5.8375
11
-4.58205
21
5.7975
0
LINE
8
BLACK
6
CONTINUOUS
10
-4.58205
20
5.7975
11
-4.58223
21
5.79649
0
LINE
8
BLACK
6
CONTINUOUS
10
-4.58223
20
5.79649
11
-4.58352
21
5.79494
0
LINE
8
BLACK
6
CONTINUOUS
10
-4.58352
20
5.79494
11
-4.58551
21
5.79459
0
LINE
8
BLACK
6
CONTINUOUS
10
-4.58551
20
5.79459
11
-4.58726
21
5.7956
0
LINE
8
BLACK
6
CONTINUOUS
10
-4.58726
20
5.7956
11
-4.58795
21
5.7975
0
LINE
8
BLACK
6
CONTINUOUS
10
-4.58795
20
5.7975
11
-4.58795
21
5.83455
0
LINE
8
BLACK
6
CONTINUOUS
10
-4.58795
20
5.83455
11
-4.64205
21
5.83455
0
LINE
8
BLACK
6
CONTINUOUS
10
-4.64205
20
5.83455
11
-4.64205
21
5.7975
0
LINE
8
BLACK
6
CONTINUOUS
10
-4.64205
20
5.7975
11
-4.64223
21
5.79649
0
LINE
8
BLACK
6
CONTINUOUS
10
-4.64223
20
5.79649
11
-4.64352
21
5.79494
0
LINE
8
BLACK
6
CONTINUOUS
10
-4.64352
20
5.79494
11
-4.64551
21
5.79459
0
LINE
8
BLACK
6
CONTINUOUS
10
-4.64551
20
5.79459
11
-4.64726
21
5.7956
0
LINE
8
BLACK
6
CONTINUOUS
10
-4.64726
20
5.7956
11
-4.64795
21
5.7975
0
LINE
8
BLACK
6
CONTINUOUS
10
-4.64795
20
5.7975
11
-4.64795
21
5.8375
0
LINE
8
BLACK
6
CONTINUOUS
10
-4.64795
20
5.8375
11
-4.64789
21
5.83788
0
LINE
8
BLACK
6
CONTINUOUS
10
-4.64789
20
5.83788
11
-4.64791
21
5.83801
0
LINE
8
BLACK
6
CONTINUOUS
10
-4.64791
20
5.83801
11
-4.64784
21
5.83813
0
LINE
8
BLACK
6
CONTINUOUS
10
-4.64784
20
5.83813
11
-4.64777
21
5.83851
0
LINE
8
BLACK
6
CONTINUOUS
10
-4.64777
20
5.83851
11
-4.64728
21
5.8391
0
LINE
8
BLACK
6
CONTINUOUS
10
-4.64728
20
5.8391
11
-4.6469
21
5.83976
0
LINE
8
BLACK
6
CONTINUOUS
10
-4.6469
20
5.83976
11
-4.64665
21
5.83985
0
LINE
8
BLACK
6
CONTINUOUS
10
-4.64665
20
5.83985
11
-4.64648
21
5.84006
0
LINE
8
BLACK
6
CONTINUOUS
10
-4.64648
20
5.84006
11
-4.64572
21
5.84019
0
LINE
8
BLACK
6
CONTINUOUS
10
-4.64572
20
5.84019
11
-4.645
21
5.84045
0
LINE
8
BLACK
6
CONTINUOUS
10
-4.645
20
5.84045
11
-4.585
21
5.84045
0
LINE
8
BLACK
6
CONTINUOUS
10
-4.585
20
5.84045
11
-4.58462
21
5.84039
0
LINE
8
BLACK
6
CONTINUOUS
10
-3.96793
20
5.82932
11
-3.9685
21
5.83071
0
LINE
8
BLACK
6
CONTINUOUS
10
-3.9685
20
5.83071
11
-3.9685
21
5.8622
0
LINE
8
BLACK
6
CONTINUOUS
10
-3.9685
20
5.8622
11
-3.96793
21
5.8636
0
LINE
8
BLACK
6
CONTINUOUS
10
-3.96793
20
5.8636
11
-3.96654
21
5.86417
0
LINE
8
BLACK
6
CONTINUOUS
10
-3.96654
20
5.86417
11
-3.90354
21
5.86417
0
LINE
8
BLACK
6
CONTINUOUS
10
-3.90354
20
5.86417
11
-3.90215
21
5.8636
0
LINE
8
BLACK
6
CONTINUOUS
10
-3.90215
20
5.8636
11
-3.90157
21
5.8622
0
LINE
8
BLACK
6
CONTINUOUS
10
-3.90157
20
5.8622
11
-3.90157
21
5.83071
0
LINE
8
BLACK
6
CONTINUOUS
10
-3.90157
20
5.83071
11
-3.90215
21
5.82932
0
LINE
8
BLACK
6
CONTINUOUS
10
-3.90215
20
5.82932
11
-3.90354
21
5.82874
0
LINE
8
BLACK
6
CONTINUOUS
10
-3.90354
20
5.82874
11
-3.96654
21
5.82874
0
LINE
8
BLACK
6
CONTINUOUS
10
-3.96654
20
5.82874
11
-3.96793
21
5.82932
0
LINE
8
BLACK
6
CONTINUOUS
10
-3.96457
20
5.86024
11
-3.96457
21
5.83268
0
LINE
8
BLACK
6
CONTINUOUS
10
-3.96457
20
5.83268
11
-3.90551
21
5.83268
0
LINE
8
BLACK
6
CONTINUOUS
10
-3.90551
20
5.83268
11
-3.90551
21
5.86024
0
LINE
8
BLACK
6
CONTINUOUS
10
-3.90551
20
5.86024
11
-3.96457
21
5.86024
0
LINE
8
BLACK
6
CONTINUOUS
10
-3.9388
20
5.85611
11
-3.93842
21
5.85599
0
LINE
8
BLACK
6
CONTINUOUS
10
-3.93842
20
5.85599
11
-3.93839
21
5.85594
0
LINE
8
BLACK
6
CONTINUOUS
10
-3.93839
20
5.85594
11
-3.93833
21
5.85592
0
LINE
8
BLACK
6
CONTINUOUS
10
-3.93833
20
5.85592
11
-3.93818
21
5.85555
0
LINE
8
BLACK
6
CONTINUOUS
10
-3.93818
20
5.85555
11
-3.93799
21
5.8552
0
LINE
8
BLACK
6
CONTINUOUS
10
-3.93799
20
5.8552
11
-3.93724
21
5.8477
0
LINE
8
BLACK
6
CONTINUOUS
10
-3.93724
20
5.8477
11
-3.93726
21
5.84764
0
LINE
8
BLACK
6
CONTINUOUS
10
-3.93726
20
5.84764
11
-3.93723
21
5.84758
0
LINE
8
BLACK
6
CONTINUOUS
10
-3.93723
20
5.84758
11
-3.93739
21
5.84721
0
LINE
8
BLACK
6
CONTINUOUS
10
-3.93739
20
5.84721
11
-3.9375
21
5.84683
0
LINE
8
BLACK
6
CONTINUOUS
10
-3.9375
20
5.84683
11
-3.93755
21
5.8468
0
LINE
8
BLACK
6
CONTINUOUS
10
-3.93755
20
5.8468
11
-3.93758
21
5.84675
0
LINE
8
BLACK
6
CONTINUOUS
10
-3.93758
20
5.84675
11
-3.93795
21
5.84659
0
LINE
8
BLACK
6
CONTINUOUS
10
-3.93795
20
5.84659
11
-3.9383
21
5.84641
0
LINE
8
BLACK
6
CONTINUOUS
10
-3.9383
20
5.84641
11
-3.93836
21
5.84642
0
LINE
8
BLACK
6
CONTINUOUS
10
-3.93836
20
5.84642
11
-3.93841
21
5.8464
0
LINE
8
BLACK
6
CONTINUOUS
10
-3.93841
20
5.8464
11
-3.93878
21
5.84655
0
LINE
8
BLACK
6
CONTINUOUS
10
-3.93878
20
5.84655
11
-3.93916
21
5.84667
0
LINE
8
BLACK
6
CONTINUOUS
10
-3.93916
20
5.84667
11
-3.93919
21
5.84672
0
LINE
8
BLACK
6
CONTINUOUS
10
-3.93919
20
5.84672
11
-3.93925
21
5.84675
0
LINE
8
BLACK
6
CONTINUOUS
10
-3.93925
20
5.84675
11
-3.93986
21
5.84736
0
LINE
8
BLACK
6
CONTINUOUS
10
-3.93986
20
5.84736
11
-3.94094
21
5.8479
0
LINE
8
BLACK
6
CONTINUOUS
10
-3.94094
20
5.8479
11
-3.94413
21
5.8479
0
LINE
8
BLACK
6
CONTINUOUS
10
-3.94413
20
5.8479
11
-3.94521
21
5.84736
0
LINE
8
BLACK
6
CONTINUOUS
10
-3.94521
20
5.84736
11
-3.94569
21
5.84688
0
LINE
8
BLACK
6
CONTINUOUS
10
-3.94569
20
5.84688
11
-3.94623
21
5.8458
0
LINE
8
BLACK
6
CONTINUOUS
10
-3.94623
20
5.8458
11
-3.94623
21
5.84261
0
LINE
8
BLACK
6
CONTINUOUS
10
-3.94623
20
5.84261
11
-3.94569
21
5.84153
0
LINE
8
BLACK
6
CONTINUOUS
10
-3.94569
20
5.84153
11
-3.94521
21
5.84105
0
LINE
8
BLACK
6
CONTINUOUS
10
-3.94521
20
5.84105
11
-3.94413
21
5.84051
0
LINE
8
BLACK
6
CONTINUOUS
10
-3.94413
20
5.84051
11
-3.94094
21
5.84051
0
LINE
8
BLACK
6
CONTINUOUS
10
-3.94094
20
5.84051
11
-3.93986
21
5.84105
0
LINE
8
BLACK
6
CONTINUOUS
10
-3.93986
20
5.84105
11
-3.93925
21
5.84167
0
LINE
8
BLACK
6
CONTINUOUS
10
-3.93925
20
5.84167
11
-3.93841
21
5.84201
0
LINE
8
BLACK
6
CONTINUOUS
10
-3.93841
20
5.84201
11
-3.93758
21
5.84167
0
LINE
8
BLACK
6
CONTINUOUS
10
-3.93758
20
5.84167
11
-3.93723
21
5.84083
0
LINE
8
BLACK
6
CONTINUOUS
10
-3.93723
20
5.84083
11
-3.93758
21
5.84
0
LINE
8
BLACK
6
CONTINUOUS
10
-3.93758
20
5.84
11
-3.93833
21
5.83925
0
LINE
8
BLACK
6
CONTINUOUS
10
-3.93833
20
5.83925
11
-3.93851
21
5.83917
0
LINE
8
BLACK
6
CONTINUOUS
10
-3.93851
20
5.83917
11
-3.93864
21
5.83903
0
LINE
8
BLACK
6
CONTINUOUS
10
-3.93864
20
5.83903
11
-3.94014
21
5.83828
0
LINE
8
BLACK
6
CONTINUOUS
10
-3.94014
20
5.83828
11
-3.94041
21
5.83826
0
LINE
8
BLACK
6
CONTINUOUS
10
-3.94041
20
5.83826
11
-3.94066
21
5.83815
0
LINE
8
BLACK
6
CONTINUOUS
10
-3.94066
20
5.83815
11
-3.94441
21
5.83815
0
LINE
8
BLACK
6
CONTINUOUS
10
-3.94441
20
5.83815
11
-3.94467
21
5.83826
0
LINE
8
BLACK
6
CONTINUOUS
10
-3.94467
20
5.83826
11
-3.94494
21
5.83828
0
LINE
8
BLACK
6
CONTINUOUS
10
-3.94494
20
5.83828
11
-3.94644
21
5.83903
0
LINE
8
BLACK
6
CONTINUOUS
10
-3.94644
20
5.83903
11
-3.94657
21
5.83917
0
LINE
8
BLACK
6
CONTINUOUS
10
-3.94657
20
5.83917
11
-3.94675
21
5.83925
0
LINE
8
BLACK
6
CONTINUOUS
10
-3.94675
20
5.83925
11
-3.9475
21
5.84
0
LINE
8
BLACK
6
CONTINUOUS
10
-3.9475
20
5.84
11
-3.94757
21
5.84018
0
LINE
8
BLACK
6
CONTINUOUS
10
-3.94757
20
5.84018
11
-3.94772
21
5.8403
0
LINE
8
BLACK
6
CONTINUOUS
10
-3.94772
20
5.8403
11
-3.94847
21
5.8418
0
LINE
8
BLACK
6
CONTINUOUS
10
-3.94847
20
5.8418
11
-3.94849
21
5.84208
0
LINE
8
BLACK
6
CONTINUOUS
10
-3.94849
20
5.84208
11
-3.94859
21
5.84233
0
LINE
8
BLACK
6
CONTINUOUS
10
-3.94859
20
5.84233
11
-3.94859
21
5.84608
0
LINE
8
BLACK
6
CONTINUOUS
10
-3.94859
20
5.84608
11
-3.94849
21
5.84634
0
LINE
8
BLACK
6
CONTINUOUS
10
-3.94849
20
5.84634
11
-3.94847
21
5.84661
0
LINE
8
BLACK
6
CONTINUOUS
10
-3.94847
20
5.84661
11
-3.94772
21
5.84811
0
LINE
8
BLACK
6
CONTINUOUS
10
-3.94772
20
5.84811
11
-3.94757
21
5.84824
0
LINE
8
BLACK
6
CONTINUOUS
10
-3.94757
20
5.84824
11
-3.9475
21
5.84842
0
LINE
8
BLACK
6
CONTINUOUS
10
-3.9475
20
5.84842
11
-3.94675
21
5.84917
0
LINE
8
BLACK
6
CONTINUOUS
10
-3.94675
20
5.84917
11
-3.94657
21
5.84924
0
LINE
8
BLACK
6
CONTINUOUS
10
-3.94657
20
5.84924
11
-3.94644
21
5.84939
0
LINE
8
BLACK
6
CONTINUOUS
10
-3.94644
20
5.84939
11
-3.94494
21
5.85014
0
LINE
8
BLACK
6
CONTINUOUS
10
-3.94494
20
5.85014
11
-3.94467
21
5.85016
0
LINE
8
BLACK
6
CONTINUOUS
10
-3.94467
20
5.85016
11
-3.94441
21
5.85026
0
LINE
8
BLACK
6
CONTINUOUS
10
-3.94441
20
5.85026
11
-3.94066
21
5.85026
0
LINE
8
BLACK
6
CONTINUOUS
10
-3.94066
20
5.85026
11
-3.94041
21
5.85016
0
LINE
8
BLACK
6
CONTINUOUS
10
-3.94041
20
5.85016
11
-3.94014
21
5.85014
0
LINE
8
BLACK
6
CONTINUOUS
10
-3.94014
20
5.85014
11
-3.93984
21
5.84999
0
LINE
8
BLACK
6
CONTINUOUS
10
-3.93984
20
5.84999
11
-3.94023
21
5.8539
0
LINE
8
BLACK
6
CONTINUOUS
10
-3.94023
20
5.8539
11
-3.94666
21
5.8539
0
LINE
8
BLACK
6
CONTINUOUS
10
-3.94666
20
5.8539
11
-3.9475
21
5.85425
0
LINE
8
BLACK
6
CONTINUOUS
10
-3.9475
20
5.85425
11
-3.94784
21
5.85508
0
LINE
8
BLACK
6
CONTINUOUS
10
-3.94784
20
5.85508
11
-3.9475
21
5.85592
0
LINE
8
BLACK
6
CONTINUOUS
10
-3.9475
20
5.85592
11
-3.94666
21
5.85626
0
LINE
8
BLACK
6
CONTINUOUS
10
-3.94666
20
5.85626
11
-3.93916
21
5.85626
0
LINE
8
BLACK
6
CONTINUOUS
10
-3.93916
20
5.85626
11
-3.9388
21
5.85611
0
LINE
8
BLACK
6
CONTINUOUS
10
-3.92774
20
5.85619
11
-3.92754
21
5.8562
0
LINE
8
BLACK
6
CONTINUOUS
10
-3.92754
20
5.8562
11
-3.92529
21
5.85545
0
LINE
8
BLACK
6
CONTINUOUS
10
-3.92529
20
5.85545
11
-3.92508
21
5.85527
0
LINE
8
BLACK
6
CONTINUOUS
10
-3.92508
20
5.85527
11
-3.92483
21
5.85517
0
LINE
8
BLACK
6
CONTINUOUS
10
-3.92483
20
5.85517
11
-3.92333
21
5.85367
0
LINE
8
BLACK
6
CONTINUOUS
10
-3.92333
20
5.85367
11
-3.92326
21
5.85349
0
LINE
8
BLACK
6
CONTINUOUS
10
-3.92326
20
5.85349
11
-3.92311
21
5.85336
0
LINE
8
BLACK
6
CONTINUOUS
10
-3.92311
20
5.85336
11
-3.92236
21
5.85186
0
LINE
8
BLACK
6
CONTINUOUS
10
-3.92236
20
5.85186
11
-3.92235
21
5.85173
0
LINE
8
BLACK
6
CONTINUOUS
10
-3.92235
20
5.85173
11
-3.92227
21
5.85162
0
LINE
8
BLACK
6
CONTINUOUS
10
-3.92227
20
5.85162
11
-3.92152
21
5.84862
0
LINE
8
BLACK
6
CONTINUOUS
10
-3.92152
20
5.84862
11
-3.92154
21
5.84847
0
LINE
8
BLACK
6
CONTINUOUS
10
-3.92154
20
5.84847
11
-3.92148
21
5.84833
0
LINE
8
BLACK
6
CONTINUOUS
10
-3.92148
20
5.84833
11
-3.92148
21
5.84608
0
LINE
8
BLACK
6
CONTINUOUS
10
-3.92148
20
5.84608
11
-3.92154
21
5.84594
0
LINE
8
BLACK
6
CONTINUOUS
10
-3.92154
20
5.84594
11
-3.92152
21
5.8458
0
LINE
8
BLACK
6
CONTINUOUS
10
-3.92152
20
5.8458
11
-3.92227
21
5.8428
0
LINE
8
BLACK
6
CONTINUOUS
10
-3.92227
20
5.8428
11
-3.92235
21
5.84269
0
LINE
8
BLACK
6
CONTINUOUS
10
-3.92235
20
5.84269
11
-3.92236
21
5.84255
0
LINE
8
BLACK
6
CONTINUOUS
10
-3.92236
20
5.84255
11
-3.92311
21
5.84105
0
LINE
8
BLACK
6
CONTINUOUS
10
-3.92311
20
5.84105
11
-3.92326
21
5.84093
0
LINE
8
BLACK
6
CONTINUOUS
10
-3.92326
20
5.84093
11
-3.92333
21
5.84075
0
LINE
8
BLACK
6
CONTINUOUS
10
-3.92333
20
5.84075
11
-3.92483
21
5.83925
0
LINE
8
BLACK
6
CONTINUOUS
10
-3.92483
20
5.83925
11
-3.92508
21
5.83914
0
LINE
8
BLACK
6
CONTINUOUS
10
-3.92508
20
5.83914
11
-3.92529
21
5.83896
0
LINE
8
BLACK
6
CONTINUOUS
10
-3.92529
20
5.83896
11
-3.92754
21
5.83821
0
LINE
8
BLACK
6
CONTINUOUS
10
-3.92754
20
5.83821
11
-3.92774
21
5.83823
0
LINE
8
BLACK
6
CONTINUOUS
10
-3.92774
20
5.83823
11
-3.92792
21
5.83815
0
LINE
8
BLACK
6
CONTINUOUS
10
-3.92792
20
5.83815
11
-3.92942
21
5.83815
0
LINE
8
BLACK
6
CONTINUOUS
10
-3.92942
20
5.83815
11
-3.92959
21
5.83823
0
LINE
8
BLACK
6
CONTINUOUS
10
-3.92959
20
5.83823
11
-3.92979
21
5.83821
0
LINE
8
BLACK
6
CONTINUOUS
10
-3.92979
20
5.83821
11
-3.93204
21
5.83896
0
LINE
8
BLACK
6
CONTINUOUS
10
-3.93204
20
5.83896
11
-3.93225
21
5.83914
0
LINE
8
BLACK
6
CONTINUOUS
10
-3.93225
20
5.83914
11
-3.9325
21
5.83925
0
LINE
8
BLACK
6
CONTINUOUS
10
-3.9325
20
5.83925
11
-3.93325
21
5.84
0
LINE
8
BLACK
6
CONTINUOUS
10
-3.93325
20
5.84
11
-3.9336
21
5.84083
0
LINE
8
BLACK
6
CONTINUOUS
10
-3.9336
20
5.84083
11
-3.93325
21
5.84167
0
LINE
8
BLACK
6
CONTINUOUS
10
-3.93325
20
5.84167
11
-3.93241
21
5.84201
0
LINE
8
BLACK
6
CONTINUOUS
10
-3.93241
20
5.84201
11
-3.93158
21
5.84167
0
LINE
8
BLACK
6
CONTINUOUS
10
-3.93158
20
5.84167
11
-3.93103
21
5.84111
0
LINE
8
BLACK
6
CONTINUOUS
10
-3.93103
20
5.84111
11
-3.92922
21
5.84051
0
LINE
8
BLACK
6
CONTINUOUS
10
-3.92922
20
5.84051
11
-3.92811
21
5.84051
0
LINE
8
BLACK
6
CONTINUOUS
10
-3.92811
20
5.84051
11
-3.9263
21
5.84111
0
LINE
8
BLACK
6
CONTINUOUS
10
-3.9263
20
5.84111
11
-3.92514
21
5.84228
0
LINE
8
BLACK
6
CONTINUOUS
10
-3.92514
20
5.84228
11
-3.92453
21
5.84349
0
LINE
8
BLACK
6
CONTINUOUS
10
-3.92453
20
5.84349
11
-3.92385
21
5.84623
0
LINE
8
BLACK
6
CONTINUOUS
10
-3.92385
20
5.84623
11
-3.92385
21
5.84819
0
LINE
8
BLACK
6
CONTINUOUS
10
-3.92385
20
5.84819
11
-3.92453
21
5.85092
0
LINE
8
BLACK
6
CONTINUOUS
10
-3.92453
20
5.85092
11
-3.92514
21
5.85213
0
LINE
8
BLACK
6
CONTINUOUS
10
-3.92514
20
5.85213
11
-3.9263
21
5.8533
0
LINE
8
BLACK
6
CONTINUOUS
10
-3.9263
20
5.8533
11
-3.92811
21
5.8539
0
LINE
8
BLACK
6
CONTINUOUS
10
-3.92811
20
5.8539
11
-3.92922
21
5.8539
0
LINE
8
BLACK
6
CONTINUOUS
10
-3.92922
20
5.8539
11
-3.93103
21
5.8533
0
LINE
8
BLACK
6
CONTINUOUS
10
-3.93103
20
5.8533
11
-3.93158
21
5.85275
0
LINE
8
BLACK
6
CONTINUOUS
10
-3.93158
20
5.85275
11
-3.93241
21
5.8524
0
LINE
8
BLACK
6
CONTINUOUS
10
-3.93241
20
5.8524
11
-3.93325
21
5.85275
0
LINE
8
BLACK
6
CONTINUOUS
10
-3.93325
20
5.85275
11
-3.9336
21
5.85358
0
LINE
8
BLACK
6
CONTINUOUS
10
-3.9336
20
5.85358
11
-3.93325
21
5.85442
0
LINE
8
BLACK
6
CONTINUOUS
10
-3.93325
20
5.85442
11
-3.9325
21
5.85517
0
LINE
8
BLACK
6
CONTINUOUS
10
-3.9325
20
5.85517
11
-3.93225
21
5.85527
0
LINE
8
BLACK
6
CONTINUOUS
10
-3.93225
20
5.85527
11
-3.93204
21
5.85545
0
LINE
8
BLACK
6
CONTINUOUS
10
-3.93204
20
5.85545
11
-3.92979
21
5.8562
0
LINE
8
BLACK
6
CONTINUOUS
10
-3.92979
20
5.8562
11
-3.92959
21
5.85619
0
LINE
8
BLACK
6
CONTINUOUS
10
-3.92959
20
5.85619
11
-3.92942
21
5.85626
0
LINE
8
BLACK
6
CONTINUOUS
10
-3.92942
20
5.85626
11
-3.92792
21
5.85626
0
LINE
8
BLACK
6
CONTINUOUS
10
-3.92792
20
5.85626
11
-3.92774
21
5.85619
0
LINE
8
BLACK
6
CONTINUOUS
10
-4.55734
20
5.96059
11
-4.55721
21
5.96048
0
LINE
8
BLACK
6
CONTINUOUS
10
-4.55721
20
5.96048
11
-4.55584
21
5.96072
0
LINE
8
BLACK
6
CONTINUOUS
10
-4.55584
20
5.96072
11
-4.55409
21
5.95971
0
LINE
8
BLACK
6
CONTINUOUS
10
-4.55409
20
5.95971
11
-4.5534
21
5.95781
0
LINE
8
BLACK
6
CONTINUOUS
10
-4.5534
20
5.95781
11
-4.5534
21
5.84581
0
LINE
8
BLACK
6
CONTINUOUS
10
-4.5534
20
5.84581
11
-4.55347
21
5.84543
0
LINE
8
BLACK
6
CONTINUOUS
10
-4.55347
20
5.84543
11
-4.55345
21
5.8453
0
LINE
8
BLACK
6
CONTINUOUS
10
-4.55345
20
5.8453
11
-4.55351
21
5.84518
0
LINE
8
BLACK
6
CONTINUOUS
10
-4.55351
20
5.84518
11
-4.55358
21
5.8448
0
LINE
8
BLACK
6
CONTINUOUS
10
-4.55358
20
5.8448
11
-4.55407
21
5.84421
0
LINE
8
BLACK
6
CONTINUOUS
10
-4.55407
20
5.84421
11
-4.55446
21
5.84355
0
LINE
8
BLACK
6
CONTINUOUS
10
-4.55446
20
5.84355
11
-4.55471
21
5.84346
0
LINE
8
BLACK
6
CONTINUOUS
10
-4.55471
20
5.84346
11
-4.55488
21
5.84325
0
LINE
8
BLACK
6
CONTINUOUS
10
-4.55488
20
5.84325
11
-4.55563
21
5.84312
0
LINE
8
BLACK
6
CONTINUOUS
10
-4.55563
20
5.84312
11
-4.55635
21
5.84286
0
LINE
8
BLACK
6
CONTINUOUS
10
-4.55635
20
5.84286
11
-4.75135
21
5.84286
0
LINE
8
BLACK
6
CONTINUOUS
10
-4.75135
20
5.84286
11
-4.75236
21
5.84304
0
LINE
8
BLACK
6
CONTINUOUS
10
-4.75236
20
5.84304
11
-4.75277
21
5.84338
0
LINE
8
BLACK
6
CONTINUOUS
10
-4.75277
20
5.84338
11
-4.75288
21
5.84325
0
LINE
8
BLACK
6
CONTINUOUS
10
-4.75288
20
5.84325
11
-4.75487
21
5.8429
0
LINE
8
BLACK
6
CONTINUOUS
10
-4.75487
20
5.8429
11
-4.75662
21
5.84391
0
LINE
8
BLACK
6
CONTINUOUS
10
-4.75662
20
5.84391
11
-4.75731
21
5.84581
0
LINE
8
BLACK
6
CONTINUOUS
10
-4.75731
20
5.84581
11
-4.75731
21
5.95781
0
LINE
8
BLACK
6
CONTINUOUS
10
-4.75731
20
5.95781
11
-4.75713
21
5.95882
0
LINE
8
BLACK
6
CONTINUOUS
10
-4.75713
20
5.95882
11
-4.75583
21
5.96037
0
LINE
8
BLACK
6
CONTINUOUS
10
-4.75583
20
5.96037
11
-4.75384
21
5.96072
0
LINE
8
BLACK
6
CONTINUOUS
10
-4.75384
20
5.96072
11
-4.7537
21
5.96064
0
LINE
8
BLACK
6
CONTINUOUS
10
-4.7537
20
5.96064
11
-4.75335
21
5.96076
0
LINE
8
BLACK
6
CONTINUOUS
10
-4.75335
20
5.96076
11
-4.55835
21
5.96076
0
LINE
8
BLACK
6
CONTINUOUS
10
-4.55835
20
5.96076
11
-4.55734
21
5.96059
0
LINE
8
BLACK
6
CONTINUOUS
10
-4.7514
20
5.95486
11
-4.7514
21
5.84875
0
LINE
8
BLACK
6
CONTINUOUS
10
-4.7514
20
5.84875
11
-4.75135
21
5.84876
0
LINE
8
BLACK
6
CONTINUOUS
10
-4.75135
20
5.84876
11
-4.55931
21
5.84876
0
LINE
8
BLACK
6
CONTINUOUS
10
-4.55931
20
5.84876
11
-4.55931
21
5.95486
0
LINE
8
BLACK
6
CONTINUOUS
10
-4.55931
20
5.95486
11
-4.7514
21
5.95486
0
LINE
8
BLACK
6
CONTINUOUS
10
-4.74174
20
5.92928
11
-4.71821
21
5.90575
0
LINE
8
BLACK
6
CONTINUOUS
10
-4.71821
20
5.90575
11
-4.71821
21
5.92719
0
LINE
8
BLACK
6
CONTINUOUS
10
-4.71821
20
5.92719
11
-4.71803
21
5.9282
0
LINE
8
BLACK
6
CONTINUOUS
10
-4.71803
20
5.9282
11
-4.71674
21
5.92975
0
LINE
8
BLACK
6
CONTINUOUS
10
-4.71674
20
5.92975
11
-4.71475
21
5.9301
0
LINE
8
BLACK
6
CONTINUOUS
10
-4.71475
20
5.9301
11
-4.713
21
5.92909
0
LINE
8
BLACK
6
CONTINUOUS
10
-4.713
20
5.92909
11
-4.71231
21
5.92719
0
LINE
8
BLACK
6
CONTINUOUS
10
-4.71231
20
5.92719
11
-4.71231
21
5.87719
0
LINE
8
BLACK
6
CONTINUOUS
10
-4.71231
20
5.87719
11
-4.71248
21
5.87618
0
LINE
8
BLACK
6
CONTINUOUS
10
-4.71248
20
5.87618
11
-4.71378
21
5.87463
0
LINE
8
BLACK
6
CONTINUOUS
10
-4.71378
20
5.87463
11
-4.71577
21
5.87428
0
LINE
8
BLACK
6
CONTINUOUS
10
-4.71577
20
5.87428
11
-4.71752
21
5.87529
0
LINE
8
BLACK
6
CONTINUOUS
10
-4.71752
20
5.87529
11
-4.71821
21
5.87719
0
LINE
8
BLACK
6
CONTINUOUS
10
-4.71821
20
5.87719
11
-4.71821
21
5.8974
0
LINE
8
BLACK
6
CONTINUOUS
10
-4.71821
20
5.8974
11
-4.72208
21
5.90127
0
LINE
8
BLACK
6
CONTINUOUS
10
-4.72208
20
5.90127
11
-4.74147
21
5.87542
0
LINE
8
BLACK
6
CONTINUOUS
10
-4.74147
20
5.87542
11
-4.74222
21
5.87472
0
LINE
8
BLACK
6
CONTINUOUS
10
-4.74222
20
5.87472
11
-4.74418
21
5.87426
0
LINE
8
BLACK
6
CONTINUOUS
10
-4.74418
20
5.87426
11
-4.74599
21
5.87517
0
LINE
8
BLACK
6
CONTINUOUS
10
-4.74599
20
5.87517
11
-4.74678
21
5.87703
0
LINE
8
BLACK
6
CONTINUOUS
10
-4.74678
20
5.87703
11
-4.74619
21
5.87896
0
LINE
8
BLACK
6
CONTINUOUS
10
-4.74619
20
5.87896
11
-4.7263
21
5.90549
0
LINE
8
BLACK
6
CONTINUOUS
10
-4.7263
20
5.90549
11
-4.74592
21
5.9251
0
LINE
8
BLACK
6
CONTINUOUS
10
-4.74592
20
5.9251
11
-4.74651
21
5.92594
0
LINE
8
BLACK
6
CONTINUOUS
10
-4.74651
20
5.92594
11
-4.74668
21
5.92796
0
LINE
8
BLACK
6
CONTINUOUS
10
-4.74668
20
5.92796
11
-4.74552
21
5.92961
0
LINE
8
BLACK
6
CONTINUOUS
10
-4.74552
20
5.92961
11
-4.74357
21
5.93013
0
LINE
8
BLACK
6
CONTINUOUS
10
-4.74357
20
5.93013
11
-4.74174
21
5.92928
0
LINE
8
BLACK
6
CONTINUOUS
10
-4.6722
20
5.93197
11
-4.67207
21
5.93185
0
LINE
8
BLACK
6
CONTINUOUS
10
-4.67207
20
5.93185
11
-4.67189
21
5.93183
0
LINE
8
BLACK
6
CONTINUOUS
10
-4.67189
20
5.93183
11
-4.66713
21
5.92945
0
LINE
8
BLACK
6
CONTINUOUS
10
-4.66713
20
5.92945
11
-4.66642
21
5.92893
0
LINE
8
BLACK
6
CONTINUOUS
10
-4.66642
20
5.92893
11
-4.66636
21
5.9289
0
LINE
8
BLACK
6
CONTINUOUS
10
-4.66636
20
5.9289
11
-4.66398
21
5.92652
0
LINE
8
BLACK
6
CONTINUOUS
10
-4.66398
20
5.92652
11
-4.66339
21
5.92568
0
LINE
8
BLACK
6
CONTINUOUS
10
-4.66339
20
5.92568
11
-4.66322
21
5.92367
0
LINE
8
BLACK
6
CONTINUOUS
10
-4.66322
20
5.92367
11
-4.66437
21
5.92201
0
LINE
8
BLACK
6
CONTINUOUS
10
-4.66437
20
5.92201
11
-4.66633
21
5.92149
0
LINE
8
BLACK
6
CONTINUOUS
10
-4.66633
20
5.92149
11
-4.66816
21
5.92234
0
LINE
8
BLACK
6
CONTINUOUS
10
-4.66816
20
5.92234
11
-4.6702
21
5.92438
0
LINE
8
BLACK
6
CONTINUOUS
10
-4.6702
20
5.92438
11
-4.67391
21
5.92624
0
LINE
8
BLACK
6
CONTINUOUS
10
-4.67391
20
5.92624
11
-4.68442
21
5.92624
0
LINE
8
BLACK
6
CONTINUOUS
10
-4.68442
20
5.92624
11
-4.68813
21
5.92438
0
LINE
8
BLACK
6
CONTINUOUS
10
-4.68813
20
5.92438
11
-4.68983
21
5.92268
0
LINE
8
BLACK
6
CONTINUOUS
10
-4.68983
20
5.92268
11
-4.69169
21
5.91897
0
LINE
8
BLACK
6
CONTINUOUS
10
-4.69169
20
5.91897
11
-4.69169
21
5.91539
0
LINE
8
BLACK
6
CONTINUOUS
10
-4.69169
20
5.91539
11
-4.68968
21
5.90936
0
LINE
8
BLACK
6
CONTINUOUS
10
-4.68968
20
5.90936
11
-4.6616
21
5.88128
0
LINE
8
BLACK
6
CONTINUOUS
10
-4.6616
20
5.88128
11
-4.66123
21
5.88075
0
LINE
8
BLACK
6
CONTINUOUS
10
-4.66123
20
5.88075
11
-4.66113
21
5.88067
0
LINE
8
BLACK
6
CONTINUOUS
10
-4.66113
20
5.88067
11
-4.66112
21
5.88059
0
LINE
8
BLACK
6
CONTINUOUS
10
-4.66112
20
5.88059
11
-4.66101
21
5.88044
0
LINE
8
BLACK
6
CONTINUOUS
10
-4.66101
20
5.88044
11
-4.66093
21
5.87955
0
LINE
8
BLACK
6
CONTINUOUS
10
-4.66093
20
5.87955
11
-4.66078
21
5.87868
0
LINE
8
BLACK
6
CONTINUOUS
10
-4.66078
20
5.87868
11
-4.66085
21
5.87856
0
LINE
8
BLACK
6
CONTINUOUS
10
-4.66085
20
5.87856
11
-4.66084
21
5.87843
0
LINE
8
BLACK
6
CONTINUOUS
10
-4.66084
20
5.87843
11
-4.66135
21
5.8777
0
LINE
8
BLACK
6
CONTINUOUS
10
-4.66135
20
5.8777
11
-4.66179
21
5.87693
0
LINE
8
BLACK
6
CONTINUOUS
10
-4.66179
20
5.87693
11
-4.66192
21
5.87688
0
LINE
8
BLACK
6
CONTINUOUS
10
-4.66192
20
5.87688
11
-4.66199
21
5.87677
0
LINE
8
BLACK
6
CONTINUOUS
10
-4.66199
20
5.87677
11
-4.66285
21
5.87654
0
LINE
8
BLACK
6
CONTINUOUS
10
-4.66285
20
5.87654
11
-4.66369
21
5.87624
0
LINE
8
BLACK
6
CONTINUOUS
10
-4.66369
20
5.87624
11
-4.69464
21
5.87624
0
LINE
8
BLACK
6
CONTINUOUS
10
-4.69464
20
5.87624
11
-4.69565
21
5.87642
0
LINE
8
BLACK
6
CONTINUOUS
10
-4.69565
20
5.87642
11
-4.6972
21
5.87772
0
LINE
8
BLACK
6
CONTINUOUS
10
-4.6972
20
5.87772
11
-4.69755
21
5.8797
0
LINE
8
BLACK
6
CONTINUOUS
10
-4.69755
20
5.8797
11
-4.69654
21
5.88145
0
LINE
8
BLACK
6
CONTINUOUS
10
-4.69654
20
5.88145
11
-4.69464
21
5.88214
0
LINE
8
BLACK
6
CONTINUOUS
10
-4.69464
20
5.88214
11
-4.67082
21
5.88214
0
LINE
8
BLACK
6
CONTINUOUS
10
-4.67082
20
5.88214
11
-4.69435
21
5.90568
0
LINE
8
BLACK
6
CONTINUOUS
10
-4.69435
20
5.90568
11
-4.69494
21
5.90652
0
LINE
8
BLACK
6
CONTINUOUS
10
-4.69494
20
5.90652
11
-4.69495
21
5.90669
0
LINE
8
BLACK
6
CONTINUOUS
10
-4.69495
20
5.90669
11
-4.69506
21
5.90683
0
LINE
8
BLACK
6
CONTINUOUS
10
-4.69506
20
5.90683
11
-4.69744
21
5.91397
0
LINE
8
BLACK
6
CONTINUOUS
10
-4.69744
20
5.91397
11
-4.69757
21
5.91485
0
LINE
8
BLACK
6
CONTINUOUS
10
-4.69757
20
5.91485
11
-4.69759
21
5.91491
0
LINE
8
BLACK
6
CONTINUOUS
10
-4.69759
20
5.91491
11
-4.69759
21
5.91967
0
LINE
8
BLACK
6
CONTINUOUS
10
-4.69759
20
5.91967
11
-4.69741
21
5.92068
0
LINE
8
BLACK
6
CONTINUOUS
10
-4.69741
20
5.92068
11
-4.6973
21
5.92081
0
LINE
8
BLACK
6
CONTINUOUS
10
-4.6973
20
5.92081
11
-4.69728
21
5.92099
0
LINE
8
BLACK
6
CONTINUOUS
10
-4.69728
20
5.92099
11
-4.6949
21
5.92575
0
LINE
8
BLACK
6
CONTINUOUS
10
-4.6949
20
5.92575
11
-4.69437
21
5.92646
0
LINE
8
BLACK
6
CONTINUOUS
10
-4.69437
20
5.92646
11
-4.69435
21
5.92652
0
LINE
8
BLACK
6
CONTINUOUS
10
-4.69435
20
5.92652
11
-4.69197
21
5.9289
0
LINE
8
BLACK
6
CONTINUOUS
10
-4.69197
20
5.9289
11
-4.69124
21
5.92941
0
LINE
8
BLACK
6
CONTINUOUS
10
-4.69124
20
5.92941
11
-4.6912
21
5.92945
0
LINE
8
BLACK
6
CONTINUOUS
10
-4.6912
20
5.92945
11
-4.68644
21
5.93183
0
LINE
8
BLACK
6
CONTINUOUS
10
-4.68644
20
5.93183
11
-4.68545
21
5.93213
0
LINE
8
BLACK
6
CONTINUOUS
10
-4.68545
20
5.93213
11
-4.68528
21
5.93208
0
LINE
8
BLACK
6
CONTINUOUS
10
-4.68528
20
5.93208
11
-4.68512
21
5.93214
0
LINE
8
BLACK
6
CONTINUOUS
10
-4.68512
20
5.93214
11
-4.67321
21
5.93214
0
LINE
8
BLACK
6
CONTINUOUS
10
-4.67321
20
5.93214
11
-4.6722
21
5.93197
0
LINE
8
BLACK
6
CONTINUOUS
10
-4.61807
20
5.93208
11
-4.61794
21
5.9321
0
LINE
8
BLACK
6
CONTINUOUS
10
-4.61794
20
5.9321
11
-4.61782
21
5.93203
0
LINE
8
BLACK
6
CONTINUOUS
10
-4.61782
20
5.93203
11
-4.61744
21
5.93197
0
LINE
8
BLACK
6
CONTINUOUS
10
-4.61744
20
5.93197
11
-4.61685
21
5.93147
0
LINE
8
BLACK
6
CONTINUOUS
10
-4.61685
20
5.93147
11
-4.61619
21
5.93109
0
LINE
8
BLACK
6
CONTINUOUS
10
-4.61619
20
5.93109
11
-4.6161
21
5.93084
0
LINE
8
BLACK
6
CONTINUOUS
10
-4.6161
20
5.93084
11
-4.61589
21
5.93067
0
LINE
8
BLACK
6
CONTINUOUS
10
-4.61589
20
5.93067
11
-4.61576
21
5.92991
0
LINE
8
BLACK
6
CONTINUOUS
10
-4.61576
20
5.92991
11
-4.6155
21
5.92919
0
LINE
8
BLACK
6
CONTINUOUS
10
-4.6155
20
5.92919
11
-4.6155
21
5.87919
0
LINE
8
BLACK
6
CONTINUOUS
10
-4.6155
20
5.87919
11
-4.61556
21
5.87881
0
LINE
8
BLACK
6
CONTINUOUS
10
-4.61556
20
5.87881
11
-4.61554
21
5.87868
0
LINE
8
BLACK
6
CONTINUOUS
10
-4.61554
20
5.87868
11
-4.61561
21
5.87857
0
LINE
8
BLACK
6
CONTINUOUS
10
-4.61561
20
5.87857
11
-4.61567
21
5.87818
0
LINE
8
BLACK
6
CONTINUOUS
10
-4.61567
20
5.87818
11
-4.61617
21
5.87759
0
LINE
8
BLACK
6
CONTINUOUS
10
-4.61617
20
5.87759
11
-4.61655
21
5.87693
0
LINE
8
BLACK
6
CONTINUOUS
10
-4.61655
20
5.87693
11
-4.6168
21
5.87684
0
LINE
8
BLACK
6
CONTINUOUS
10
-4.6168
20
5.87684
11
-4.61697
21
5.87663
0
LINE
8
BLACK
6
CONTINUOUS
10
-4.61697
20
5.87663
11
-4.61773
21
5.8765
0
LINE
8
BLACK
6
CONTINUOUS
10
-4.61773
20
5.8765
11
-4.61845
21
5.87624
0
LINE
8
BLACK
6
CONTINUOUS
10
-4.61845
20
5.87624
11
-4.63035
21
5.87624
0
LINE
8
BLACK
6
CONTINUOUS
10
-4.63035
20
5.87624
11
-4.63122
21
5.87639
0
LINE
8
BLACK
6
CONTINUOUS
10
-4.63122
20
5.87639
11
-4.63129
21
5.87639
0
LINE
8
BLACK
6
CONTINUOUS
10
-4.63129
20
5.87639
11
-4.63843
21
5.87877
0
LINE
8
BLACK
6
CONTINUOUS
10
-4.63843
20
5.87877
11
-4.63933
21
5.87926
0
LINE
8
BLACK
6
CONTINUOUS
10
-4.63933
20
5.87926
11
-4.63943
21
5.87941
0
LINE
8
BLACK
6
CONTINUOUS
10
-4.63943
20
5.87941
11
-4.63959
21
5.87948
0
LINE
8
BLACK
6
CONTINUOUS
10
-4.63959
20
5.87948
11
-4.64435
21
5.88425
0
LINE
8
BLACK
6
CONTINUOUS
10
-4.64435
20
5.88425
11
-4.64485
21
5.88497
0
LINE
8
BLACK
6
CONTINUOUS
10
-4.64485
20
5.88497
11
-4.6449
21
5.88501
0
LINE
8
BLACK
6
CONTINUOUS
10
-4.6449
20
5.88501
11
-4.64728
21
5.88978
0
LINE
8
BLACK
6
CONTINUOUS
10
-4.64728
20
5.88978
11
-4.64743
21
5.89026
0
LINE
8
BLACK
6
CONTINUOUS
10
-4.64743
20
5.89026
11
-4.6475
21
5.89038
0
LINE
8
BLACK
6
CONTINUOUS
10
-4.6475
20
5.89038
11
-4.64989
21
5.8999
0
LINE
8
BLACK
6
CONTINUOUS
10
-4.64989
20
5.8999
11
-4.64993
21
5.90049
0
LINE
8
BLACK
6
CONTINUOUS
10
-4.64993
20
5.90049
11
-4.64997
21
5.90062
0
LINE
8
BLACK
6
CONTINUOUS
10
-4.64997
20
5.90062
11
-4.64997
21
5.90776
0
LINE
8
BLACK
6
CONTINUOUS
10
-4.64997
20
5.90776
11
-4.64987
21
5.90834
0
LINE
8
BLACK
6
CONTINUOUS
10
-4.64987
20
5.90834
11
-4.64989
21
5.90848
0
LINE
8
BLACK
6
CONTINUOUS
10
-4.64989
20
5.90848
11
-4.6475
21
5.918
0
LINE
8
BLACK
6
CONTINUOUS
10
-4.6475
20
5.918
11
-4.6473
21
5.91847
0
LINE
8
BLACK
6
CONTINUOUS
10
-4.6473
20
5.91847
11
-4.64728
21
5.91861
0
LINE
8
BLACK
6
CONTINUOUS
10
-4.64728
20
5.91861
11
-4.6449
21
5.92337
0
LINE
8
BLACK
6
CONTINUOUS
10
-4.6449
20
5.92337
11
-4.64437
21
5.92408
0
LINE
8
BLACK
6
CONTINUOUS
10
-4.64437
20
5.92408
11
-4.64435
21
5.92414
0
LINE
8
BLACK
6
CONTINUOUS
10
-4.64435
20
5.92414
11
-4.63959
21
5.9289
0
LINE
8
BLACK
6
CONTINUOUS
10
-4.63959
20
5.9289
11
-4.63875
21
5.92949
0
LINE
8
BLACK
6
CONTINUOUS
10
-4.63875
20
5.92949
11
-4.63857
21
5.9295
0
LINE
8
BLACK
6
CONTINUOUS
10
-4.63857
20
5.9295
11
-4.63843
21
5.92961
0
LINE
8
BLACK
6
CONTINUOUS
10
-4.63843
20
5.92961
11
-4.63129
21
5.93199
0
LINE
8
BLACK
6
CONTINUOUS
10
-4.63129
20
5.93199
11
-4.63041
21
5.93212
0
LINE
8
BLACK
6
CONTINUOUS
10
-4.63041
20
5.93212
11
-4.63035
21
5.93214
0
LINE
8
BLACK
6
CONTINUOUS
10
-4.63035
20
5.93214
11
-4.61845
21
5.93214
0
LINE
8
BLACK
6
CONTINUOUS
10
-4.61845
20
5.93214
11
-4.61807
21
5.93208
0
LINE
8
BLACK
6
CONTINUOUS
10
-4.62988
20
5.92624
11
-4.6359
21
5.92423
0
LINE
8
BLACK
6
CONTINUOUS
10
-4.6359
20
5.92423
11
-4.63983
21
5.9203
0
LINE
8
BLACK
6
CONTINUOUS
10
-4.63983
20
5.9203
11
-4.64185
21
5.91626
0
LINE
8
BLACK
6
CONTINUOUS
10
-4.64185
20
5.91626
11
-4.64407
21
5.9074
0
LINE
8
BLACK
6
CONTINUOUS
10
-4.64407
20
5.9074
11
-4.64407
21
5.90098
0
LINE
8
BLACK
6
CONTINUOUS
10
-4.64407
20
5.90098
11
-4.64185
21
5.89213
0
LINE
8
BLACK
6
CONTINUOUS
10
-4.64185
20
5.89213
11
-4.63983
21
5.88808
0
LINE
8
BLACK
6
CONTINUOUS
10
-4.63983
20
5.88808
11
-4.6359
21
5.88415
0
LINE
8
BLACK
6
CONTINUOUS
10
-4.6359
20
5.88415
11
-4.62988
21
5.88214
0
LINE
8
BLACK
6
CONTINUOUS
10
-4.62988
20
5.88214
11
-4.6214
21
5.88214
0
LINE
8
BLACK
6
CONTINUOUS
10
-4.6214
20
5.88214
11
-4.6214
21
5.92624
0
LINE
8
BLACK
6
CONTINUOUS
10
-4.6214
20
5.92624
11
-4.62988
21
5.92624
  0
ENDSEC
  0
EOF
