  0
SECTION
  2
HEADER
  9
$ANGBASE
  50
0.0
  9
$ANGDIR
  70
1
  9
$MEASUREMENT
  70
0
  0
ENDSEC
  0
SECTION
  2
TABLES
  0
TABLE
  2
LTYPE
  70
4
  0
LTYPE
  5
40F
  2
CONTINUOUS
  70
0
  3
Solid line
  72
65
  73
0
  40
0.0
  0
LTYPE
  5
410
  2
DASHDOT
 70
0
  3
Dash Dot ____ _ ____ _
 72
65
 73
4
 40
2.0
 49
1.25
 49
-0.25
 49
0.25
 49
-0.25
  0
LTYPE
  5
411
  2
DASHED
 70
0
  3
Dashed __ __ __ __ __
 72
65
 73
2
 40
0.75
 49
0.5
 49
-0.25
  0
LTYPE
  5
43B
  2
DOTTED
 70
0
  3
Dotted .  .  .  .
 72
65
 73
2
 40
0.2
 49
0.0
 49
-0.2
  0
ENDTAB
  0
TABLE
  2
STYLE
  70
4
  0
STYLE
  2
KICAD
  70
0
  40
0
  41
1
  42
1
  50
0
  71
0
  3
isocp.shx
  0
STYLE
  2
KICADB
  70
0
  40
0
  41
1
  42
1
  50
0
  71
0
  3
isocp.shx
  0
STYLE
  2
KICADI
  70
0
  40
0
  41
1
  42
1
  50
15
  71
0
  3
isocp.shx
  0
STYLE
  2
KICADBI
  70
0
  40
0
  41
1
  42
1
  50
15
  71
0
  3
isocp.shx
  0
ENDTAB
  0
TABLE
  2
LAYER
  70
1
  0
LAYER
  2
BLACK
  70
0
  62
7
  6
CONTINUOUS
  0
ENDTAB
  0
ENDSEC
  0
SECTION
  2
ENTITIES
0
LINE
8
BLACK
6
CONTINUOUS
10
-4.49232
20
5.44879
11
-4.48279
21
5.4471
0
LINE
8
BLACK
6
CONTINUOUS
10
-4.48279
20
5.4471
11
-4.47367
21
5.44387
0
LINE
8
BLACK
6
CONTINUOUS
10
-4.47367
20
5.44387
11
-4.46519
21
5.43919
0
LINE
8
BLACK
6
CONTINUOUS
10
-4.46519
20
5.43919
11
-4.4576
21
5.43319
0
LINE
8
BLACK
6
CONTINUOUS
10
-4.4576
20
5.43319
11
-4.45109
21
5.42603
0
LINE
8
BLACK
6
CONTINUOUS
10
-4.45109
20
5.42603
11
-4.44583
21
5.41791
0
LINE
8
BLACK
6
CONTINUOUS
10
-4.44583
20
5.41791
11
-4.44197
21
5.40903
0
LINE
8
BLACK
6
CONTINUOUS
10
-4.44197
20
5.40903
11
-4.43961
21
5.39965
0
LINE
8
BLACK
6
CONTINUOUS
10
-4.43961
20
5.39965
11
-4.43882
21
5.39
0
LINE
8
BLACK
6
CONTINUOUS
10
-4.43882
20
5.39
11
-4.43889
21
5.38712
0
LINE
8
BLACK
6
CONTINUOUS
10
-4.43889
20
5.38712
11
-4.44015
21
5.37752
0
LINE
8
BLACK
6
CONTINUOUS
10
-4.44015
20
5.37752
11
-4.44297
21
5.36826
0
LINE
8
BLACK
6
CONTINUOUS
10
-4.44297
20
5.36826
11
-4.44725
21
5.35958
0
LINE
8
BLACK
6
CONTINUOUS
10
-4.44725
20
5.35958
11
-4.4529
21
5.35173
0
LINE
8
BLACK
6
CONTINUOUS
10
-4.4529
20
5.35173
11
-4.45976
21
5.34489
0
LINE
8
BLACK
6
CONTINUOUS
10
-4.45976
20
5.34489
11
-4.46764
21
5.33927
0
LINE
8
BLACK
6
CONTINUOUS
10
-4.46764
20
5.33927
11
-4.47633
21
5.33502
0
LINE
8
BLACK
6
CONTINUOUS
10
-4.47633
20
5.33502
11
-4.4856
21
5.33224
0
LINE
8
BLACK
6
CONTINUOUS
10
-4.4856
20
5.33224
11
-4.4952
21
5.33101
0
LINE
8
BLACK
6
CONTINUOUS
10
-4.4952
20
5.33101
11
-4.50487
21
5.33136
0
LINE
8
BLACK
6
CONTINUOUS
10
-4.50487
20
5.33136
11
-4.51435
21
5.33329
0
LINE
8
BLACK
6
CONTINUOUS
10
-4.51435
20
5.33329
11
-4.52339
21
5.33674
0
LINE
8
BLACK
6
CONTINUOUS
10
-4.52339
20
5.33674
11
-4.53175
21
5.34162
0
LINE
8
BLACK
6
CONTINUOUS
10
-4.53175
20
5.34162
11
-4.53919
21
5.34781
0
LINE
8
BLACK
6
CONTINUOUS
10
-4.53919
20
5.34781
11
-4.54553
21
5.35512
0
LINE
8
BLACK
6
CONTINUOUS
10
-4.54553
20
5.35512
11
-4.55059
21
5.36337
0
LINE
8
BLACK
6
CONTINUOUS
10
-4.55059
20
5.36337
11
-4.55423
21
5.37234
0
LINE
8
BLACK
6
CONTINUOUS
10
-4.55423
20
5.37234
11
-4.55635
21
5.38178
0
LINE
8
BLACK
6
CONTINUOUS
10
-4.55635
20
5.38178
11
-4.55691
21
5.39144
0
LINE
8
BLACK
6
CONTINUOUS
10
-4.55691
20
5.39144
11
-4.55588
21
5.40107
0
LINE
8
BLACK
6
CONTINUOUS
10
-4.55588
20
5.40107
11
-4.5533
21
5.41039
0
LINE
8
BLACK
6
CONTINUOUS
10
-4.5533
20
5.41039
11
-4.54922
21
5.41917
0
LINE
8
BLACK
6
CONTINUOUS
10
-4.54922
20
5.41917
11
-4.54377
21
5.42716
0
LINE
8
BLACK
6
CONTINUOUS
10
-4.54377
20
5.42716
11
-4.53708
21
5.43416
0
LINE
8
BLACK
6
CONTINUOUS
10
-4.53708
20
5.43416
11
-4.52934
21
5.43997
0
LINE
8
BLACK
6
CONTINUOUS
10
-4.52934
20
5.43997
11
-4.52076
21
5.44444
0
LINE
8
BLACK
6
CONTINUOUS
10
-4.52076
20
5.44444
11
-4.51156
21
5.44745
0
LINE
8
BLACK
6
CONTINUOUS
10
-4.51156
20
5.44745
11
-4.50199
21
5.44891
0
LINE
8
BLACK
6
CONTINUOUS
10
-4.50199
20
5.44891
11
-4.49232
21
5.44879
0
LINE
8
BLACK
6
CONTINUOUS
10
-4.09862
20
5.44879
11
-4.08909
21
5.4471
0
LINE
8
BLACK
6
CONTINUOUS
10
-4.08909
20
5.4471
11
-4.07997
21
5.44387
0
LINE
8
BLACK
6
CONTINUOUS
10
-4.07997
20
5.44387
11
-4.07149
21
5.43919
0
LINE
8
BLACK
6
CONTINUOUS
10
-4.07149
20
5.43919
11
-4.0639
21
5.43319
0
LINE
8
BLACK
6
CONTINUOUS
10
-4.0639
20
5.43319
11
-4.05738
21
5.42603
0
LINE
8
BLACK
6
CONTINUOUS
10
-4.05738
20
5.42603
11
-4.05213
21
5.41791
0
LINE
8
BLACK
6
CONTINUOUS
10
-4.05213
20
5.41791
11
-4.04827
21
5.40903
0
LINE
8
BLACK
6
CONTINUOUS
10
-4.04827
20
5.40903
11
-4.04591
21
5.39965
0
LINE
8
BLACK
6
CONTINUOUS
10
-4.04591
20
5.39965
11
-4.04512
21
5.39
0
LINE
8
BLACK
6
CONTINUOUS
10
-4.04512
20
5.39
11
-4.04519
21
5.38712
0
LINE
8
BLACK
6
CONTINUOUS
10
-4.04519
20
5.38712
11
-4.04645
21
5.37752
0
LINE
8
BLACK
6
CONTINUOUS
10
-4.04645
20
5.37752
11
-4.04927
21
5.36826
0
LINE
8
BLACK
6
CONTINUOUS
10
-4.04927
20
5.36826
11
-4.05355
21
5.35958
0
LINE
8
BLACK
6
CONTINUOUS
10
-4.05355
20
5.35958
11
-4.0592
21
5.35173
0
LINE
8
BLACK
6
CONTINUOUS
10
-4.0592
20
5.35173
11
-4.06606
21
5.34489
0
LINE
8
BLACK
6
CONTINUOUS
10
-4.06606
20
5.34489
11
-4.07393
21
5.33927
0
LINE
8
BLACK
6
CONTINUOUS
10
-4.07393
20
5.33927
11
-4.08263
21
5.33502
0
LINE
8
BLACK
6
CONTINUOUS
10
-4.08263
20
5.33502
11
-4.09189
21
5.33224
0
LINE
8
BLACK
6
CONTINUOUS
10
-4.09189
20
5.33224
11
-4.10149
21
5.33101
0
LINE
8
BLACK
6
CONTINUOUS
10
-4.10149
20
5.33101
11
-4.11117
21
5.33136
0
LINE
8
BLACK
6
CONTINUOUS
10
-4.11117
20
5.33136
11
-4.12065
21
5.33329
0
LINE
8
BLACK
6
CONTINUOUS
10
-4.12065
20
5.33329
11
-4.12969
21
5.33674
0
LINE
8
BLACK
6
CONTINUOUS
10
-4.12969
20
5.33674
11
-4.13805
21
5.34162
0
LINE
8
BLACK
6
CONTINUOUS
10
-4.13805
20
5.34162
11
-4.14549
21
5.34781
0
LINE
8
BLACK
6
CONTINUOUS
10
-4.14549
20
5.34781
11
-4.15183
21
5.35512
0
LINE
8
BLACK
6
CONTINUOUS
10
-4.15183
20
5.35512
11
-4.15688
21
5.36337
0
LINE
8
BLACK
6
CONTINUOUS
10
-4.15688
20
5.36337
11
-4.16053
21
5.37234
0
LINE
8
BLACK
6
CONTINUOUS
10
-4.16053
20
5.37234
11
-4.16265
21
5.38178
0
LINE
8
BLACK
6
CONTINUOUS
10
-4.16265
20
5.38178
11
-4.16321
21
5.39144
0
LINE
8
BLACK
6
CONTINUOUS
10
-4.16321
20
5.39144
11
-4.16218
21
5.40107
0
LINE
8
BLACK
6
CONTINUOUS
10
-4.16218
20
5.40107
11
-4.1596
21
5.41039
0
LINE
8
BLACK
6
CONTINUOUS
10
-4.1596
20
5.41039
11
-4.15552
21
5.41917
0
LINE
8
BLACK
6
CONTINUOUS
10
-4.15552
20
5.41917
11
-4.15007
21
5.42716
0
LINE
8
BLACK
6
CONTINUOUS
10
-4.15007
20
5.42716
11
-4.14338
21
5.43416
0
LINE
8
BLACK
6
CONTINUOUS
10
-4.14338
20
5.43416
11
-4.13564
21
5.43997
0
LINE
8
BLACK
6
CONTINUOUS
10
-4.13564
20
5.43997
11
-4.12706
21
5.44444
0
LINE
8
BLACK
6
CONTINUOUS
10
-4.12706
20
5.44444
11
-4.11786
21
5.44745
0
LINE
8
BLACK
6
CONTINUOUS
10
-4.11786
20
5.44745
11
-4.10829
21
5.44891
0
LINE
8
BLACK
6
CONTINUOUS
10
-4.10829
20
5.44891
11
-4.09862
21
5.44879
0
LINE
8
BLACK
6
CONTINUOUS
10
-4.88602
20
5.44879
11
-4.87649
21
5.4471
0
LINE
8
BLACK
6
CONTINUOUS
10
-4.87649
20
5.4471
11
-4.86737
21
5.44387
0
LINE
8
BLACK
6
CONTINUOUS
10
-4.86737
20
5.44387
11
-4.85889
21
5.43919
0
LINE
8
BLACK
6
CONTINUOUS
10
-4.85889
20
5.43919
11
-4.8513
21
5.43319
0
LINE
8
BLACK
6
CONTINUOUS
10
-4.8513
20
5.43319
11
-4.84479
21
5.42603
0
LINE
8
BLACK
6
CONTINUOUS
10
-4.84479
20
5.42603
11
-4.83953
21
5.41791
0
LINE
8
BLACK
6
CONTINUOUS
10
-4.83953
20
5.41791
11
-4.83567
21
5.40903
0
LINE
8
BLACK
6
CONTINUOUS
10
-4.83567
20
5.40903
11
-4.83331
21
5.39965
0
LINE
8
BLACK
6
CONTINUOUS
10
-4.83331
20
5.39965
11
-4.83252
21
5.39
0
LINE
8
BLACK
6
CONTINUOUS
10
-4.83252
20
5.39
11
-4.83259
21
5.38712
0
LINE
8
BLACK
6
CONTINUOUS
10
-4.83259
20
5.38712
11
-4.83385
21
5.37752
0
LINE
8
BLACK
6
CONTINUOUS
10
-4.83385
20
5.37752
11
-4.83667
21
5.36826
0
LINE
8
BLACK
6
CONTINUOUS
10
-4.83667
20
5.36826
11
-4.84095
21
5.35958
0
LINE
8
BLACK
6
CONTINUOUS
10
-4.84095
20
5.35958
11
-4.8466
21
5.35173
0
LINE
8
BLACK
6
CONTINUOUS
10
-4.8466
20
5.35173
11
-4.85346
21
5.34489
0
LINE
8
BLACK
6
CONTINUOUS
10
-4.85346
20
5.34489
11
-4.86134
21
5.33927
0
LINE
8
BLACK
6
CONTINUOUS
10
-4.86134
20
5.33927
11
-4.87003
21
5.33502
0
LINE
8
BLACK
6
CONTINUOUS
10
-4.87003
20
5.33502
11
-4.8793
21
5.33224
0
LINE
8
BLACK
6
CONTINUOUS
10
-4.8793
20
5.33224
11
-4.8889
21
5.33101
0
LINE
8
BLACK
6
CONTINUOUS
10
-4.8889
20
5.33101
11
-4.89857
21
5.33136
0
LINE
8
BLACK
6
CONTINUOUS
10
-4.89857
20
5.33136
11
-4.90805
21
5.33329
0
LINE
8
BLACK
6
CONTINUOUS
10
-4.90805
20
5.33329
11
-4.91709
21
5.33674
0
LINE
8
BLACK
6
CONTINUOUS
10
-4.91709
20
5.33674
11
-4.92545
21
5.34162
0
LINE
8
BLACK
6
CONTINUOUS
10
-4.92545
20
5.34162
11
-4.93289
21
5.34781
0
LINE
8
BLACK
6
CONTINUOUS
10
-4.93289
20
5.34781
11
-4.93923
21
5.35512
0
LINE
8
BLACK
6
CONTINUOUS
10
-4.93923
20
5.35512
11
-4.94429
21
5.36337
0
LINE
8
BLACK
6
CONTINUOUS
10
-4.94429
20
5.36337
11
-4.94793
21
5.37234
0
LINE
8
BLACK
6
CONTINUOUS
10
-4.94793
20
5.37234
11
-4.95006
21
5.38178
0
LINE
8
BLACK
6
CONTINUOUS
10
-4.95006
20
5.38178
11
-4.95061
21
5.39144
0
LINE
8
BLACK
6
CONTINUOUS
10
-4.95061
20
5.39144
11
-4.94958
21
5.40107
0
LINE
8
BLACK
6
CONTINUOUS
10
-4.94958
20
5.40107
11
-4.947
21
5.41039
0
LINE
8
BLACK
6
CONTINUOUS
10
-4.947
20
5.41039
11
-4.94292
21
5.41917
0
LINE
8
BLACK
6
CONTINUOUS
10
-4.94292
20
5.41917
11
-4.93747
21
5.42716
0
LINE
8
BLACK
6
CONTINUOUS
10
-4.93747
20
5.42716
11
-4.93078
21
5.43416
0
LINE
8
BLACK
6
CONTINUOUS
10
-4.93078
20
5.43416
11
-4.92304
21
5.43997
0
LINE
8
BLACK
6
CONTINUOUS
10
-4.92304
20
5.43997
11
-4.91446
21
5.44444
0
LINE
8
BLACK
6
CONTINUOUS
10
-4.91446
20
5.44444
11
-4.90526
21
5.44745
0
LINE
8
BLACK
6
CONTINUOUS
10
-4.90526
20
5.44745
11
-4.89569
21
5.44891
0
LINE
8
BLACK
6
CONTINUOUS
10
-4.89569
20
5.44891
11
-4.88602
21
5.44879
0
LINE
8
BLACK
6
CONTINUOUS
10
-4.64612
20
5.52108
11
-4.63718
21
5.51868
0
LINE
8
BLACK
6
CONTINUOUS
10
-4.63718
20
5.51868
11
-4.62878
21
5.51477
0
LINE
8
BLACK
6
CONTINUOUS
10
-4.62878
20
5.51477
11
-4.62119
21
5.50946
0
LINE
8
BLACK
6
CONTINUOUS
10
-4.62119
20
5.50946
11
-4.61464
21
5.5029
0
LINE
8
BLACK
6
CONTINUOUS
10
-4.61464
20
5.5029
11
-4.60933
21
5.49531
0
LINE
8
BLACK
6
CONTINUOUS
10
-4.60933
20
5.49531
11
-4.60541
21
5.48692
0
LINE
8
BLACK
6
CONTINUOUS
10
-4.60541
20
5.48692
11
-4.60301
21
5.47797
0
LINE
8
BLACK
6
CONTINUOUS
10
-4.60301
20
5.47797
11
-4.6022
21
5.46874
0
LINE
8
BLACK
6
CONTINUOUS
10
-4.6022
20
5.46874
11
-4.60301
21
5.45951
0
LINE
8
BLACK
6
CONTINUOUS
10
-4.60301
20
5.45951
11
-4.60541
21
5.45056
0
LINE
8
BLACK
6
CONTINUOUS
10
-4.60541
20
5.45056
11
-4.60933
21
5.44217
0
LINE
8
BLACK
6
CONTINUOUS
10
-4.60933
20
5.44217
11
-4.61464
21
5.43458
0
LINE
8
BLACK
6
CONTINUOUS
10
-4.61464
20
5.43458
11
-4.62119
21
5.42803
0
LINE
8
BLACK
6
CONTINUOUS
10
-4.62119
20
5.42803
11
-4.62878
21
5.42271
0
LINE
8
BLACK
6
CONTINUOUS
10
-4.62878
20
5.42271
11
-4.63718
21
5.4188
0
LINE
8
BLACK
6
CONTINUOUS
10
-4.63718
20
5.4188
11
-4.64612
21
5.4164
0
LINE
8
BLACK
6
CONTINUOUS
10
-4.64612
20
5.4164
11
-4.65535
21
5.41559
0
LINE
8
BLACK
6
CONTINUOUS
10
-4.65535
20
5.41559
11
-4.66458
21
5.4164
0
LINE
8
BLACK
6
CONTINUOUS
10
-4.66458
20
5.4164
11
-4.67353
21
5.4188
0
LINE
8
BLACK
6
CONTINUOUS
10
-4.67353
20
5.4188
11
-4.68193
21
5.42271
0
LINE
8
BLACK
6
CONTINUOUS
10
-4.68193
20
5.42271
11
-4.68952
21
5.42803
0
LINE
8
BLACK
6
CONTINUOUS
10
-4.68952
20
5.42803
11
-4.69607
21
5.43458
0
LINE
8
BLACK
6
CONTINUOUS
10
-4.69607
20
5.43458
11
-4.70138
21
5.44217
0
LINE
8
BLACK
6
CONTINUOUS
10
-4.70138
20
5.44217
11
-4.7053
21
5.45056
0
LINE
8
BLACK
6
CONTINUOUS
10
-4.7053
20
5.45056
11
-4.7077
21
5.45951
0
LINE
8
BLACK
6
CONTINUOUS
10
-4.7077
20
5.45951
11
-4.7085
21
5.46874
0
LINE
8
BLACK
6
CONTINUOUS
10
-4.7085
20
5.46874
11
-4.7077
21
5.47797
0
LINE
8
BLACK
6
CONTINUOUS
10
-4.7077
20
5.47797
11
-4.7053
21
5.48692
0
LINE
8
BLACK
6
CONTINUOUS
10
-4.7053
20
5.48692
11
-4.70138
21
5.49531
0
LINE
8
BLACK
6
CONTINUOUS
10
-4.70138
20
5.49531
11
-4.69607
21
5.5029
0
LINE
8
BLACK
6
CONTINUOUS
10
-4.69607
20
5.5029
11
-4.68952
21
5.50946
0
LINE
8
BLACK
6
CONTINUOUS
10
-4.68952
20
5.50946
11
-4.68193
21
5.51477
0
LINE
8
BLACK
6
CONTINUOUS
10
-4.68193
20
5.51477
11
-4.67353
21
5.51868
0
LINE
8
BLACK
6
CONTINUOUS
10
-4.67353
20
5.51868
11
-4.66458
21
5.52108
0
LINE
8
BLACK
6
CONTINUOUS
10
-4.66458
20
5.52108
11
-4.65535
21
5.52189
0
LINE
8
BLACK
6
CONTINUOUS
10
-4.65535
20
5.52189
11
-4.64612
21
5.52108
0
LINE
8
BLACK
6
CONTINUOUS
10
-4.05689
20
5.54668
11
-4.04955
21
5.5444
0
LINE
8
BLACK
6
CONTINUOUS
10
-4.04955
20
5.5444
11
-4.04279
21
5.54075
0
LINE
8
BLACK
6
CONTINUOUS
10
-4.04279
20
5.54075
11
-4.03687
21
5.53585
0
LINE
8
BLACK
6
CONTINUOUS
10
-4.03687
20
5.53585
11
-4.03201
21
5.5299
0
LINE
8
BLACK
6
CONTINUOUS
10
-4.03201
20
5.5299
11
-4.0284
21
5.52311
0
LINE
8
BLACK
6
CONTINUOUS
10
-4.0284
20
5.52311
11
-4.02618
21
5.51576
0
LINE
8
BLACK
6
CONTINUOUS
10
-4.02618
20
5.51576
11
-4.02543
21
5.50811
0
LINE
8
BLACK
6
CONTINUOUS
10
-4.02543
20
5.50811
11
-4.02545
21
5.50701
0
LINE
8
BLACK
6
CONTINUOUS
10
-4.02545
20
5.50701
11
-4.02641
21
5.49939
0
LINE
8
BLACK
6
CONTINUOUS
10
-4.02641
20
5.49939
11
-4.02884
21
5.4921
0
LINE
8
BLACK
6
CONTINUOUS
10
-4.02884
20
5.4921
11
-4.03263
21
5.48542
0
LINE
8
BLACK
6
CONTINUOUS
10
-4.03263
20
5.48542
11
-4.03765
21
5.4796
0
LINE
8
BLACK
6
CONTINUOUS
10
-4.03765
20
5.4796
11
-4.04371
21
5.47487
0
LINE
8
BLACK
6
CONTINUOUS
10
-4.04371
20
5.47487
11
-4.05057
21
5.4714
0
LINE
8
BLACK
6
CONTINUOUS
10
-4.05057
20
5.4714
11
-4.05797
21
5.46934
0
LINE
8
BLACK
6
CONTINUOUS
10
-4.05797
20
5.46934
11
-4.06563
21
5.46875
0
LINE
8
BLACK
6
CONTINUOUS
10
-4.06563
20
5.46875
11
-4.07326
21
5.46966
0
LINE
8
BLACK
6
CONTINUOUS
10
-4.07326
20
5.46966
11
-4.08056
21
5.47203
0
LINE
8
BLACK
6
CONTINUOUS
10
-4.08056
20
5.47203
11
-4.08727
21
5.47578
0
LINE
8
BLACK
6
CONTINUOUS
10
-4.08727
20
5.47578
11
-4.09312
21
5.48076
0
LINE
8
BLACK
6
CONTINUOUS
10
-4.09312
20
5.48076
11
-4.0979
21
5.48678
0
LINE
8
BLACK
6
CONTINUOUS
10
-4.0979
20
5.48678
11
-4.10141
21
5.49362
0
LINE
8
BLACK
6
CONTINUOUS
10
-4.10141
20
5.49362
11
-4.10353
21
5.501
0
LINE
8
BLACK
6
CONTINUOUS
10
-4.10353
20
5.501
11
-4.10417
21
5.50866
0
LINE
8
BLACK
6
CONTINUOUS
10
-4.10417
20
5.50866
11
-4.10331
21
5.5163
0
LINE
8
BLACK
6
CONTINUOUS
10
-4.10331
20
5.5163
11
-4.10099
21
5.52362
0
LINE
8
BLACK
6
CONTINUOUS
10
-4.10099
20
5.52362
11
-4.09729
21
5.53035
0
LINE
8
BLACK
6
CONTINUOUS
10
-4.09729
20
5.53035
11
-4.09235
21
5.53624
0
LINE
8
BLACK
6
CONTINUOUS
10
-4.09235
20
5.53624
11
-4.08636
21
5.54105
0
LINE
8
BLACK
6
CONTINUOUS
10
-4.08636
20
5.54105
11
-4.07955
21
5.54461
0
LINE
8
BLACK
6
CONTINUOUS
10
-4.07955
20
5.54461
11
-4.07218
21
5.54678
0
LINE
8
BLACK
6
CONTINUOUS
10
-4.07218
20
5.54678
11
-4.06453
21
5.54748
0
LINE
8
BLACK
6
CONTINUOUS
10
-4.06453
20
5.54748
11
-4.05689
21
5.54668
0
LINE
8
BLACK
6
CONTINUOUS
10
-4.88629
20
5.56587
11
-4.88132
21
5.56412
0
LINE
8
BLACK
6
CONTINUOUS
10
-4.88132
20
5.56412
11
-4.87708
21
5.56099
0
LINE
8
BLACK
6
CONTINUOUS
10
-4.87708
20
5.56099
11
-4.87395
21
5.55675
0
LINE
8
BLACK
6
CONTINUOUS
10
-4.87395
20
5.55675
11
-4.8722
21
5.55178
0
LINE
8
BLACK
6
CONTINUOUS
10
-4.8722
20
5.55178
11
-4.87189
21
5.54846
0
LINE
8
BLACK
6
CONTINUOUS
10
-4.87189
20
5.54846
11
-4.87189
21
5.52878
0
LINE
8
BLACK
6
CONTINUOUS
10
-4.87189
20
5.52878
11
-4.8722
21
5.52546
0
LINE
8
BLACK
6
CONTINUOUS
10
-4.8722
20
5.52546
11
-4.87395
21
5.52049
0
LINE
8
BLACK
6
CONTINUOUS
10
-4.87395
20
5.52049
11
-4.87708
21
5.51625
0
LINE
8
BLACK
6
CONTINUOUS
10
-4.87708
20
5.51625
11
-4.88132
21
5.51312
0
LINE
8
BLACK
6
CONTINUOUS
10
-4.88132
20
5.51312
11
-4.88629
21
5.51138
0
LINE
8
BLACK
6
CONTINUOUS
10
-4.88629
20
5.51138
11
-4.88961
21
5.51106
0
LINE
8
BLACK
6
CONTINUOUS
10
-4.88961
20
5.51106
11
-4.97622
21
5.51106
0
LINE
8
BLACK
6
CONTINUOUS
10
-4.97622
20
5.51106
11
-4.97954
21
5.51138
0
LINE
8
BLACK
6
CONTINUOUS
10
-4.97954
20
5.51138
11
-4.98451
21
5.51312
0
LINE
8
BLACK
6
CONTINUOUS
10
-4.98451
20
5.51312
11
-4.98875
21
5.51625
0
LINE
8
BLACK
6
CONTINUOUS
10
-4.98875
20
5.51625
11
-4.99188
21
5.52049
0
LINE
8
BLACK
6
CONTINUOUS
10
-4.99188
20
5.52049
11
-4.99362
21
5.52546
0
LINE
8
BLACK
6
CONTINUOUS
10
-4.99362
20
5.52546
11
-4.99394
21
5.52878
0
LINE
8
BLACK
6
CONTINUOUS
10
-4.99394
20
5.52878
11
-4.99394
21
5.54846
0
LINE
8
BLACK
6
CONTINUOUS
10
-4.99394
20
5.54846
11
-4.99362
21
5.55178
0
LINE
8
BLACK
6
CONTINUOUS
10
-4.99362
20
5.55178
11
-4.99188
21
5.55675
0
LINE
8
BLACK
6
CONTINUOUS
10
-4.99188
20
5.55675
11
-4.98875
21
5.56099
0
LINE
8
BLACK
6
CONTINUOUS
10
-4.98875
20
5.56099
11
-4.98451
21
5.56412
0
LINE
8
BLACK
6
CONTINUOUS
10
-4.98451
20
5.56412
11
-4.97954
21
5.56587
0
LINE
8
BLACK
6
CONTINUOUS
10
-4.97954
20
5.56587
11
-4.97622
21
5.56618
0
LINE
8
BLACK
6
CONTINUOUS
10
-4.97622
20
5.56618
11
-4.88961
21
5.56618
0
LINE
8
BLACK
6
CONTINUOUS
10
-4.88961
20
5.56618
11
-4.88629
21
5.56587
0
LINE
8
BLACK
6
CONTINUOUS
10
-3.83158
20
5.60435
11
-3.82623
21
5.60275
0
LINE
8
BLACK
6
CONTINUOUS
10
-3.82623
20
5.60275
11
-3.82155
21
5.59972
0
LINE
8
BLACK
6
CONTINUOUS
10
-3.82155
20
5.59972
11
-3.8179
21
5.59549
0
LINE
8
BLACK
6
CONTINUOUS
10
-3.8179
20
5.59549
11
-3.81559
21
5.59041
0
LINE
8
BLACK
6
CONTINUOUS
10
-3.81559
20
5.59041
11
-3.8148
21
5.58488
0
LINE
8
BLACK
6
CONTINUOUS
10
-3.8148
20
5.58488
11
-3.81481
21
5.5844
0
LINE
8
BLACK
6
CONTINUOUS
10
-3.81481
20
5.5844
11
-3.81574
21
5.5789
0
LINE
8
BLACK
6
CONTINUOUS
10
-3.81574
20
5.5789
11
-3.81817
21
5.57387
0
LINE
8
BLACK
6
CONTINUOUS
10
-3.81817
20
5.57387
11
-3.82191
21
5.56974
0
LINE
8
BLACK
6
CONTINUOUS
10
-3.82191
20
5.56974
11
-3.82667
21
5.56682
0
LINE
8
BLACK
6
CONTINUOUS
10
-3.82667
20
5.56682
11
-3.83206
21
5.56535
0
LINE
8
BLACK
6
CONTINUOUS
10
-3.83206
20
5.56535
11
-3.83764
21
5.56545
0
LINE
8
BLACK
6
CONTINUOUS
10
-3.83764
20
5.56545
11
-3.84296
21
5.56711
0
LINE
8
BLACK
6
CONTINUOUS
10
-3.84296
20
5.56711
11
-3.84761
21
5.57021
0
LINE
8
BLACK
6
CONTINUOUS
10
-3.84761
20
5.57021
11
-3.8512
21
5.57448
0
LINE
8
BLACK
6
CONTINUOUS
10
-3.8512
20
5.57448
11
-3.85345
21
5.57959
0
LINE
8
BLACK
6
CONTINUOUS
10
-3.85345
20
5.57959
11
-3.85417
21
5.58512
0
LINE
8
BLACK
6
CONTINUOUS
10
-3.85417
20
5.58512
11
-3.85331
21
5.59064
0
LINE
8
BLACK
6
CONTINUOUS
10
-3.85331
20
5.59064
11
-3.85094
21
5.59569
0
LINE
8
BLACK
6
CONTINUOUS
10
-3.85094
20
5.59569
11
-3.84725
21
5.59987
0
LINE
8
BLACK
6
CONTINUOUS
10
-3.84725
20
5.59987
11
-3.84253
21
5.60285
0
LINE
8
BLACK
6
CONTINUOUS
10
-3.84253
20
5.60285
11
-3.83716
21
5.60438
0
LINE
8
BLACK
6
CONTINUOUS
10
-3.83716
20
5.60438
11
-3.83158
21
5.60435
0
LINE
8
BLACK
6
CONTINUOUS
10
-4.03237
20
5.60435
11
-4.02702
21
5.60275
0
LINE
8
BLACK
6
CONTINUOUS
10
-4.02702
20
5.60275
11
-4.02234
21
5.59972
0
LINE
8
BLACK
6
CONTINUOUS
10
-4.02234
20
5.59972
11
-4.01869
21
5.59549
0
LINE
8
BLACK
6
CONTINUOUS
10
-4.01869
20
5.59549
11
-4.01638
21
5.59041
0
LINE
8
BLACK
6
CONTINUOUS
10
-4.01638
20
5.59041
11
-4.01559
21
5.58488
0
LINE
8
BLACK
6
CONTINUOUS
10
-4.01559
20
5.58488
11
-4.0156
21
5.5844
0
LINE
8
BLACK
6
CONTINUOUS
10
-4.0156
20
5.5844
11
-4.01652
21
5.5789
0
LINE
8
BLACK
6
CONTINUOUS
10
-4.01652
20
5.5789
11
-4.01896
21
5.57387
0
LINE
8
BLACK
6
CONTINUOUS
10
-4.01896
20
5.57387
11
-4.0227
21
5.56974
0
LINE
8
BLACK
6
CONTINUOUS
10
-4.0227
20
5.56974
11
-4.02746
21
5.56682
0
LINE
8
BLACK
6
CONTINUOUS
10
-4.02746
20
5.56682
11
-4.03284
21
5.56535
0
LINE
8
BLACK
6
CONTINUOUS
10
-4.03284
20
5.56535
11
-4.03842
21
5.56545
0
LINE
8
BLACK
6
CONTINUOUS
10
-4.03842
20
5.56545
11
-4.04375
21
5.56711
0
LINE
8
BLACK
6
CONTINUOUS
10
-4.04375
20
5.56711
11
-4.0484
21
5.57021
0
LINE
8
BLACK
6
CONTINUOUS
10
-4.0484
20
5.57021
11
-4.05199
21
5.57448
0
LINE
8
BLACK
6
CONTINUOUS
10
-4.05199
20
5.57448
11
-4.05424
21
5.57959
0
LINE
8
BLACK
6
CONTINUOUS
10
-4.05424
20
5.57959
11
-4.05496
21
5.58512
0
LINE
8
BLACK
6
CONTINUOUS
10
-4.05496
20
5.58512
11
-4.0541
21
5.59064
0
LINE
8
BLACK
6
CONTINUOUS
10
-4.0541
20
5.59064
11
-4.05173
21
5.59569
0
LINE
8
BLACK
6
CONTINUOUS
10
-4.05173
20
5.59569
11
-4.04803
21
5.59987
0
LINE
8
BLACK
6
CONTINUOUS
10
-4.04803
20
5.59987
11
-4.04331
21
5.60285
0
LINE
8
BLACK
6
CONTINUOUS
10
-4.04331
20
5.60285
11
-4.03795
21
5.60438
0
LINE
8
BLACK
6
CONTINUOUS
10
-4.03795
20
5.60438
11
-4.03237
21
5.60435
0
LINE
8
BLACK
6
CONTINUOUS
10
-4.77543
20
5.63057
11
-4.77137
21
5.62858
0
LINE
8
BLACK
6
CONTINUOUS
10
-4.77137
20
5.62858
11
-4.76817
21
5.62538
0
LINE
8
BLACK
6
CONTINUOUS
10
-4.76817
20
5.62538
11
-4.76617
21
5.62132
0
LINE
8
BLACK
6
CONTINUOUS
10
-4.76617
20
5.62132
11
-4.76559
21
5.61736
0
LINE
8
BLACK
6
CONTINUOUS
10
-4.76559
20
5.61736
11
-4.76559
21
5.60555
0
LINE
8
BLACK
6
CONTINUOUS
10
-4.76559
20
5.60555
11
-4.76616
21
5.60161
0
LINE
8
BLACK
6
CONTINUOUS
10
-4.76616
20
5.60161
11
-4.76815
21
5.59755
0
LINE
8
BLACK
6
CONTINUOUS
10
-4.76815
20
5.59755
11
-4.77135
21
5.59435
0
LINE
8
BLACK
6
CONTINUOUS
10
-4.77135
20
5.59435
11
-4.77541
21
5.59235
0
LINE
8
BLACK
6
CONTINUOUS
10
-4.77541
20
5.59235
11
-4.77937
21
5.59177
0
LINE
8
BLACK
6
CONTINUOUS
10
-4.77937
20
5.59177
11
-4.83449
21
5.59177
0
LINE
8
BLACK
6
CONTINUOUS
10
-4.83449
20
5.59177
11
-4.83842
21
5.59235
0
LINE
8
BLACK
6
CONTINUOUS
10
-4.83842
20
5.59235
11
-4.84249
21
5.59433
0
LINE
8
BLACK
6
CONTINUOUS
10
-4.84249
20
5.59433
11
-4.84569
21
5.59753
0
LINE
8
BLACK
6
CONTINUOUS
10
-4.84569
20
5.59753
11
-4.84769
21
5.60159
0
LINE
8
BLACK
6
CONTINUOUS
10
-4.84769
20
5.60159
11
-4.84827
21
5.60555
0
LINE
8
BLACK
6
CONTINUOUS
10
-4.84827
20
5.60555
11
-4.84827
21
5.61736
0
LINE
8
BLACK
6
CONTINUOUS
10
-4.84827
20
5.61736
11
-4.84769
21
5.6213
0
LINE
8
BLACK
6
CONTINUOUS
10
-4.84769
20
5.6213
11
-4.84571
21
5.62536
0
LINE
8
BLACK
6
CONTINUOUS
10
-4.84571
20
5.62536
11
-4.84251
21
5.62857
0
LINE
8
BLACK
6
CONTINUOUS
10
-4.84251
20
5.62857
11
-4.83845
21
5.63056
0
LINE
8
BLACK
6
CONTINUOUS
10
-4.83845
20
5.63056
11
-4.83449
21
5.63114
0
LINE
8
BLACK
6
CONTINUOUS
10
-4.83449
20
5.63114
11
-4.77937
21
5.63114
0
LINE
8
BLACK
6
CONTINUOUS
10
-4.77937
20
5.63114
11
-4.77543
21
5.63057
0
LINE
8
BLACK
6
CONTINUOUS
10
-4.07837
20
5.65429
11
-4.07268
21
5.65193
0
LINE
8
BLACK
6
CONTINUOUS
10
-4.07268
20
5.65193
11
-4.06778
21
5.64817
0
LINE
8
BLACK
6
CONTINUOUS
10
-4.06778
20
5.64817
11
-4.06403
21
5.64328
0
LINE
8
BLACK
6
CONTINUOUS
10
-4.06403
20
5.64328
11
-4.06167
21
5.63758
0
LINE
8
BLACK
6
CONTINUOUS
10
-4.06167
20
5.63758
11
-4.06087
21
5.63147
0
LINE
8
BLACK
6
CONTINUOUS
10
-4.06087
20
5.63147
11
-4.06167
21
5.62536
0
LINE
8
BLACK
6
CONTINUOUS
10
-4.06167
20
5.62536
11
-4.06403
21
5.61966
0
LINE
8
BLACK
6
CONTINUOUS
10
-4.06403
20
5.61966
11
-4.06778
21
5.61477
0
LINE
8
BLACK
6
CONTINUOUS
10
-4.06778
20
5.61477
11
-4.07268
21
5.61101
0
LINE
8
BLACK
6
CONTINUOUS
10
-4.07268
20
5.61101
11
-4.07837
21
5.60865
0
LINE
8
BLACK
6
CONTINUOUS
10
-4.07837
20
5.60865
11
-4.08449
21
5.60785
0
LINE
8
BLACK
6
CONTINUOUS
10
-4.08449
20
5.60785
11
-4.0906
21
5.60865
0
LINE
8
BLACK
6
CONTINUOUS
10
-4.0906
20
5.60865
11
-4.0963
21
5.61101
0
LINE
8
BLACK
6
CONTINUOUS
10
-4.0963
20
5.61101
11
-4.10119
21
5.61477
0
LINE
8
BLACK
6
CONTINUOUS
10
-4.10119
20
5.61477
11
-4.10495
21
5.61966
0
LINE
8
BLACK
6
CONTINUOUS
10
-4.10495
20
5.61966
11
-4.10731
21
5.62536
0
LINE
8
BLACK
6
CONTINUOUS
10
-4.10731
20
5.62536
11
-4.10811
21
5.63147
0
LINE
8
BLACK
6
CONTINUOUS
10
-4.10811
20
5.63147
11
-4.10731
21
5.63758
0
LINE
8
BLACK
6
CONTINUOUS
10
-4.10731
20
5.63758
11
-4.10495
21
5.64328
0
LINE
8
BLACK
6
CONTINUOUS
10
-4.10495
20
5.64328
11
-4.10119
21
5.64817
0
LINE
8
BLACK
6
CONTINUOUS
10
-4.10119
20
5.64817
11
-4.0963
21
5.65193
0
LINE
8
BLACK
6
CONTINUOUS
10
-4.0963
20
5.65193
11
-4.0906
21
5.65429
0
LINE
8
BLACK
6
CONTINUOUS
10
-4.0906
20
5.65429
11
-4.08449
21
5.65509
0
LINE
8
BLACK
6
CONTINUOUS
10
-4.08449
20
5.65509
11
-4.07837
21
5.65429
0
LINE
8
BLACK
6
CONTINUOUS
10
-4.77543
20
5.67978
11
-4.77137
21
5.67779
0
LINE
8
BLACK
6
CONTINUOUS
10
-4.77137
20
5.67779
11
-4.76817
21
5.6746
0
LINE
8
BLACK
6
CONTINUOUS
10
-4.76817
20
5.6746
11
-4.76617
21
5.67053
0
LINE
8
BLACK
6
CONTINUOUS
10
-4.76617
20
5.67053
11
-4.76559
21
5.66657
0
LINE
8
BLACK
6
CONTINUOUS
10
-4.76559
20
5.66657
11
-4.76559
21
5.65476
0
LINE
8
BLACK
6
CONTINUOUS
10
-4.76559
20
5.65476
11
-4.76616
21
5.65083
0
LINE
8
BLACK
6
CONTINUOUS
10
-4.76616
20
5.65083
11
-4.76815
21
5.64676
0
LINE
8
BLACK
6
CONTINUOUS
10
-4.76815
20
5.64676
11
-4.77135
21
5.64356
0
LINE
8
BLACK
6
CONTINUOUS
10
-4.77135
20
5.64356
11
-4.77541
21
5.64157
0
LINE
8
BLACK
6
CONTINUOUS
10
-4.77541
20
5.64157
11
-4.77937
21
5.64098
0
LINE
8
BLACK
6
CONTINUOUS
10
-4.77937
20
5.64098
11
-4.83449
21
5.64098
0
LINE
8
BLACK
6
CONTINUOUS
10
-4.83449
20
5.64098
11
-4.83842
21
5.64156
0
LINE
8
BLACK
6
CONTINUOUS
10
-4.83842
20
5.64156
11
-4.84249
21
5.64355
0
LINE
8
BLACK
6
CONTINUOUS
10
-4.84249
20
5.64355
11
-4.84569
21
5.64674
0
LINE
8
BLACK
6
CONTINUOUS
10
-4.84569
20
5.64674
11
-4.84769
21
5.6508
0
LINE
8
BLACK
6
CONTINUOUS
10
-4.84769
20
5.6508
11
-4.84827
21
5.65476
0
LINE
8
BLACK
6
CONTINUOUS
10
-4.84827
20
5.65476
11
-4.84827
21
5.66657
0
LINE
8
BLACK
6
CONTINUOUS
10
-4.84827
20
5.66657
11
-4.84769
21
5.67051
0
LINE
8
BLACK
6
CONTINUOUS
10
-4.84769
20
5.67051
11
-4.84571
21
5.67458
0
LINE
8
BLACK
6
CONTINUOUS
10
-4.84571
20
5.67458
11
-4.84251
21
5.67778
0
LINE
8
BLACK
6
CONTINUOUS
10
-4.84251
20
5.67778
11
-4.83845
21
5.67977
0
LINE
8
BLACK
6
CONTINUOUS
10
-4.83845
20
5.67977
11
-4.83449
21
5.68035
0
LINE
8
BLACK
6
CONTINUOUS
10
-4.83449
20
5.68035
11
-4.77937
21
5.68035
0
LINE
8
BLACK
6
CONTINUOUS
10
-4.77937
20
5.68035
11
-4.77543
21
5.67978
0
LINE
8
BLACK
6
CONTINUOUS
10
-4.77543
20
5.72899
11
-4.77137
21
5.72701
0
LINE
8
BLACK
6
CONTINUOUS
10
-4.77137
20
5.72701
11
-4.76817
21
5.72381
0
LINE
8
BLACK
6
CONTINUOUS
10
-4.76817
20
5.72381
11
-4.76617
21
5.71975
0
LINE
8
BLACK
6
CONTINUOUS
10
-4.76617
20
5.71975
11
-4.76559
21
5.71579
0
LINE
8
BLACK
6
CONTINUOUS
10
-4.76559
20
5.71579
11
-4.76559
21
5.70398
0
LINE
8
BLACK
6
CONTINUOUS
10
-4.76559
20
5.70398
11
-4.76616
21
5.70004
0
LINE
8
BLACK
6
CONTINUOUS
10
-4.76616
20
5.70004
11
-4.76815
21
5.69597
0
LINE
8
BLACK
6
CONTINUOUS
10
-4.76815
20
5.69597
11
-4.77135
21
5.69277
0
LINE
8
BLACK
6
CONTINUOUS
10
-4.77135
20
5.69277
11
-4.77541
21
5.69078
0
LINE
8
BLACK
6
CONTINUOUS
10
-4.77541
20
5.69078
11
-4.77937
21
5.6902
0
LINE
8
BLACK
6
CONTINUOUS
10
-4.77937
20
5.6902
11
-4.83449
21
5.6902
0
LINE
8
BLACK
6
CONTINUOUS
10
-4.83449
20
5.6902
11
-4.83842
21
5.69077
0
LINE
8
BLACK
6
CONTINUOUS
10
-4.83842
20
5.69077
11
-4.84249
21
5.69276
0
LINE
8
BLACK
6
CONTINUOUS
10
-4.84249
20
5.69276
11
-4.84569
21
5.69595
0
LINE
8
BLACK
6
CONTINUOUS
10
-4.84569
20
5.69595
11
-4.84769
21
5.70002
0
LINE
8
BLACK
6
CONTINUOUS
10
-4.84769
20
5.70002
11
-4.84827
21
5.70398
0
LINE
8
BLACK
6
CONTINUOUS
10
-4.84827
20
5.70398
11
-4.84827
21
5.71579
0
LINE
8
BLACK
6
CONTINUOUS
10
-4.84827
20
5.71579
11
-4.84769
21
5.71972
0
LINE
8
BLACK
6
CONTINUOUS
10
-4.84769
20
5.71972
11
-4.84571
21
5.72379
0
LINE
8
BLACK
6
CONTINUOUS
10
-4.84571
20
5.72379
11
-4.84251
21
5.72699
0
LINE
8
BLACK
6
CONTINUOUS
10
-4.84251
20
5.72699
11
-4.83845
21
5.72899
0
LINE
8
BLACK
6
CONTINUOUS
10
-4.83845
20
5.72899
11
-4.83449
21
5.72957
0
LINE
8
BLACK
6
CONTINUOUS
10
-4.83449
20
5.72957
11
-4.77937
21
5.72957
0
LINE
8
BLACK
6
CONTINUOUS
10
-4.77937
20
5.72957
11
-4.77543
21
5.72899
0
LINE
8
BLACK
6
CONTINUOUS
10
-4.07837
20
5.7619
11
-4.07268
21
5.75954
0
LINE
8
BLACK
6
CONTINUOUS
10
-4.07268
20
5.75954
11
-4.06778
21
5.75578
0
LINE
8
BLACK
6
CONTINUOUS
10
-4.06778
20
5.75578
11
-4.06403
21
5.75089
0
LINE
8
BLACK
6
CONTINUOUS
10
-4.06403
20
5.75089
11
-4.06167
21
5.7452
0
LINE
8
BLACK
6
CONTINUOUS
10
-4.06167
20
5.7452
11
-4.06087
21
5.73908
0
LINE
8
BLACK
6
CONTINUOUS
10
-4.06087
20
5.73908
11
-4.06167
21
5.73297
0
LINE
8
BLACK
6
CONTINUOUS
10
-4.06167
20
5.73297
11
-4.06403
21
5.72727
0
LINE
8
BLACK
6
CONTINUOUS
10
-4.06403
20
5.72727
11
-4.06778
21
5.72238
0
LINE
8
BLACK
6
CONTINUOUS
10
-4.06778
20
5.72238
11
-4.07268
21
5.71862
0
LINE
8
BLACK
6
CONTINUOUS
10
-4.07268
20
5.71862
11
-4.07837
21
5.71626
0
LINE
8
BLACK
6
CONTINUOUS
10
-4.07837
20
5.71626
11
-4.08449
21
5.71546
0
LINE
8
BLACK
6
CONTINUOUS
10
-4.08449
20
5.71546
11
-4.0906
21
5.71626
0
LINE
8
BLACK
6
CONTINUOUS
10
-4.0906
20
5.71626
11
-4.0963
21
5.71862
0
LINE
8
BLACK
6
CONTINUOUS
10
-4.0963
20
5.71862
11
-4.10119
21
5.72238
0
LINE
8
BLACK
6
CONTINUOUS
10
-4.10119
20
5.72238
11
-4.10495
21
5.72727
0
LINE
8
BLACK
6
CONTINUOUS
10
-4.10495
20
5.72727
11
-4.10731
21
5.73297
0
LINE
8
BLACK
6
CONTINUOUS
10
-4.10731
20
5.73297
11
-4.10811
21
5.73908
0
LINE
8
BLACK
6
CONTINUOUS
10
-4.10811
20
5.73908
11
-4.10731
21
5.7452
0
LINE
8
BLACK
6
CONTINUOUS
10
-4.10731
20
5.7452
11
-4.10495
21
5.75089
0
LINE
8
BLACK
6
CONTINUOUS
10
-4.10495
20
5.75089
11
-4.10119
21
5.75578
0
LINE
8
BLACK
6
CONTINUOUS
10
-4.10119
20
5.75578
11
-4.0963
21
5.75954
0
LINE
8
BLACK
6
CONTINUOUS
10
-4.0963
20
5.75954
11
-4.0906
21
5.7619
0
LINE
8
BLACK
6
CONTINUOUS
10
-4.0906
20
5.7619
11
-4.08449
21
5.7627
0
LINE
8
BLACK
6
CONTINUOUS
10
-4.08449
20
5.7627
11
-4.07837
21
5.7619
0
LINE
8
BLACK
6
CONTINUOUS
10
-4.77543
20
5.77821
11
-4.77137
21
5.77622
0
LINE
8
BLACK
6
CONTINUOUS
10
-4.77137
20
5.77622
11
-4.76817
21
5.77302
0
LINE
8
BLACK
6
CONTINUOUS
10
-4.76817
20
5.77302
11
-4.76617
21
5.76896
0
LINE
8
BLACK
6
CONTINUOUS
10
-4.76617
20
5.76896
11
-4.76559
21
5.765
0
LINE
8
BLACK
6
CONTINUOUS
10
-4.76559
20
5.765
11
-4.76559
21
5.75319
0
LINE
8
BLACK
6
CONTINUOUS
10
-4.76559
20
5.75319
11
-4.76616
21
5.74925
0
LINE
8
BLACK
6
CONTINUOUS
10
-4.76616
20
5.74925
11
-4.76815
21
5.74519
0
LINE
8
BLACK
6
CONTINUOUS
10
-4.76815
20
5.74519
11
-4.77135
21
5.74198
0
LINE
8
BLACK
6
CONTINUOUS
10
-4.77135
20
5.74198
11
-4.77541
21
5.73999
0
LINE
8
BLACK
6
CONTINUOUS
10
-4.77541
20
5.73999
11
-4.77937
21
5.73941
0
LINE
8
BLACK
6
CONTINUOUS
10
-4.77937
20
5.73941
11
-4.83449
21
5.73941
0
LINE
8
BLACK
6
CONTINUOUS
10
-4.83449
20
5.73941
11
-4.83842
21
5.73998
0
LINE
8
BLACK
6
CONTINUOUS
10
-4.83842
20
5.73998
11
-4.84249
21
5.74197
0
LINE
8
BLACK
6
CONTINUOUS
10
-4.84249
20
5.74197
11
-4.84569
21
5.74517
0
LINE
8
BLACK
6
CONTINUOUS
10
-4.84569
20
5.74517
11
-4.84769
21
5.74923
0
LINE
8
BLACK
6
CONTINUOUS
10
-4.84769
20
5.74923
11
-4.84827
21
5.75319
0
LINE
8
BLACK
6
CONTINUOUS
10
-4.84827
20
5.75319
11
-4.84827
21
5.765
0
LINE
8
BLACK
6
CONTINUOUS
10
-4.84827
20
5.765
11
-4.84769
21
5.76894
0
LINE
8
BLACK
6
CONTINUOUS
10
-4.84769
20
5.76894
11
-4.84571
21
5.773
0
LINE
8
BLACK
6
CONTINUOUS
10
-4.84571
20
5.773
11
-4.84251
21
5.7762
0
LINE
8
BLACK
6
CONTINUOUS
10
-4.84251
20
5.7762
11
-4.83845
21
5.7782
0
LINE
8
BLACK
6
CONTINUOUS
10
-4.83845
20
5.7782
11
-4.83449
21
5.77878
0
LINE
8
BLACK
6
CONTINUOUS
10
-4.83449
20
5.77878
11
-4.77937
21
5.77878
0
LINE
8
BLACK
6
CONTINUOUS
10
-4.77937
20
5.77878
11
-4.77543
21
5.77821
0
LINE
8
BLACK
6
CONTINUOUS
10
-4.03237
20
5.80514
11
-4.02702
21
5.80354
0
LINE
8
BLACK
6
CONTINUOUS
10
-4.02702
20
5.80354
11
-4.02234
21
5.8005
0
LINE
8
BLACK
6
CONTINUOUS
10
-4.02234
20
5.8005
11
-4.01869
21
5.79627
0
LINE
8
BLACK
6
CONTINUOUS
10
-4.01869
20
5.79627
11
-4.01638
21
5.79119
0
LINE
8
BLACK
6
CONTINUOUS
10
-4.01638
20
5.79119
11
-4.01559
21
5.78567
0
LINE
8
BLACK
6
CONTINUOUS
10
-4.01559
20
5.78567
11
-4.0156
21
5.78519
0
LINE
8
BLACK
6
CONTINUOUS
10
-4.0156
20
5.78519
11
-4.01652
21
5.77968
0
LINE
8
BLACK
6
CONTINUOUS
10
-4.01652
20
5.77968
11
-4.01896
21
5.77466
0
LINE
8
BLACK
6
CONTINUOUS
10
-4.01896
20
5.77466
11
-4.0227
21
5.77052
0
LINE
8
BLACK
6
CONTINUOUS
10
-4.0227
20
5.77052
11
-4.02746
21
5.7676
0
LINE
8
BLACK
6
CONTINUOUS
10
-4.02746
20
5.7676
11
-4.03284
21
5.76614
0
LINE
8
BLACK
6
CONTINUOUS
10
-4.03284
20
5.76614
11
-4.03842
21
5.76624
0
LINE
8
BLACK
6
CONTINUOUS
10
-4.03842
20
5.76624
11
-4.04375
21
5.7679
0
LINE
8
BLACK
6
CONTINUOUS
10
-4.04375
20
5.7679
11
-4.0484
21
5.77099
0
LINE
8
BLACK
6
CONTINUOUS
10
-4.0484
20
5.77099
11
-4.05199
21
5.77527
0
LINE
8
BLACK
6
CONTINUOUS
10
-4.05199
20
5.77527
11
-4.05424
21
5.78038
0
LINE
8
BLACK
6
CONTINUOUS
10
-4.05424
20
5.78038
11
-4.05496
21
5.78591
0
LINE
8
BLACK
6
CONTINUOUS
10
-4.05496
20
5.78591
11
-4.0541
21
5.79142
0
LINE
8
BLACK
6
CONTINUOUS
10
-4.0541
20
5.79142
11
-4.05173
21
5.79648
0
LINE
8
BLACK
6
CONTINUOUS
10
-4.05173
20
5.79648
11
-4.04803
21
5.80066
0
LINE
8
BLACK
6
CONTINUOUS
10
-4.04803
20
5.80066
11
-4.04331
21
5.80364
0
LINE
8
BLACK
6
CONTINUOUS
10
-4.04331
20
5.80364
11
-4.03795
21
5.80517
0
LINE
8
BLACK
6
CONTINUOUS
10
-4.03795
20
5.80517
11
-4.03237
21
5.80514
0
LINE
8
BLACK
6
CONTINUOUS
10
-3.83158
20
5.80514
11
-3.82623
21
5.80354
0
LINE
8
BLACK
6
CONTINUOUS
10
-3.82623
20
5.80354
11
-3.82155
21
5.8005
0
LINE
8
BLACK
6
CONTINUOUS
10
-3.82155
20
5.8005
11
-3.8179
21
5.79627
0
LINE
8
BLACK
6
CONTINUOUS
10
-3.8179
20
5.79627
11
-3.81559
21
5.79119
0
LINE
8
BLACK
6
CONTINUOUS
10
-3.81559
20
5.79119
11
-3.8148
21
5.78567
0
LINE
8
BLACK
6
CONTINUOUS
10
-3.8148
20
5.78567
11
-3.81481
21
5.78519
0
LINE
8
BLACK
6
CONTINUOUS
10
-3.81481
20
5.78519
11
-3.81574
21
5.77968
0
LINE
8
BLACK
6
CONTINUOUS
10
-3.81574
20
5.77968
11
-3.81817
21
5.77466
0
LINE
8
BLACK
6
CONTINUOUS
10
-3.81817
20
5.77466
11
-3.82191
21
5.77052
0
LINE
8
BLACK
6
CONTINUOUS
10
-3.82191
20
5.77052
11
-3.82667
21
5.7676
0
LINE
8
BLACK
6
CONTINUOUS
10
-3.82667
20
5.7676
11
-3.83206
21
5.76614
0
LINE
8
BLACK
6
CONTINUOUS
10
-3.83206
20
5.76614
11
-3.83764
21
5.76624
0
LINE
8
BLACK
6
CONTINUOUS
10
-3.83764
20
5.76624
11
-3.84296
21
5.7679
0
LINE
8
BLACK
6
CONTINUOUS
10
-3.84296
20
5.7679
11
-3.84761
21
5.77099
0
LINE
8
BLACK
6
CONTINUOUS
10
-3.84761
20
5.77099
11
-3.8512
21
5.77527
0
LINE
8
BLACK
6
CONTINUOUS
10
-3.8512
20
5.77527
11
-3.85345
21
5.78038
0
LINE
8
BLACK
6
CONTINUOUS
10
-3.85345
20
5.78038
11
-3.85417
21
5.78591
0
LINE
8
BLACK
6
CONTINUOUS
10
-3.85417
20
5.78591
11
-3.85331
21
5.79142
0
LINE
8
BLACK
6
CONTINUOUS
10
-3.85331
20
5.79142
11
-3.85094
21
5.79648
0
LINE
8
BLACK
6
CONTINUOUS
10
-3.85094
20
5.79648
11
-3.84725
21
5.80066
0
LINE
8
BLACK
6
CONTINUOUS
10
-3.84725
20
5.80066
11
-3.84253
21
5.80364
0
LINE
8
BLACK
6
CONTINUOUS
10
-3.84253
20
5.80364
11
-3.83716
21
5.80517
0
LINE
8
BLACK
6
CONTINUOUS
10
-3.83716
20
5.80517
11
-3.83158
21
5.80514
0
LINE
8
BLACK
6
CONTINUOUS
10
-4.88629
20
5.85917
11
-4.88132
21
5.85743
0
LINE
8
BLACK
6
CONTINUOUS
10
-4.88132
20
5.85743
11
-4.87708
21
5.8543
0
LINE
8
BLACK
6
CONTINUOUS
10
-4.87708
20
5.8543
11
-4.87395
21
5.85006
0
LINE
8
BLACK
6
CONTINUOUS
10
-4.87395
20
5.85006
11
-4.8722
21
5.84509
0
LINE
8
BLACK
6
CONTINUOUS
10
-4.8722
20
5.84509
11
-4.87189
21
5.84177
0
LINE
8
BLACK
6
CONTINUOUS
10
-4.87189
20
5.84177
11
-4.87189
21
5.82209
0
LINE
8
BLACK
6
CONTINUOUS
10
-4.87189
20
5.82209
11
-4.8722
21
5.81877
0
LINE
8
BLACK
6
CONTINUOUS
10
-4.8722
20
5.81877
11
-4.87395
21
5.8138
0
LINE
8
BLACK
6
CONTINUOUS
10
-4.87395
20
5.8138
11
-4.87708
21
5.80956
0
LINE
8
BLACK
6
CONTINUOUS
10
-4.87708
20
5.80956
11
-4.88132
21
5.80643
0
LINE
8
BLACK
6
CONTINUOUS
10
-4.88132
20
5.80643
11
-4.88629
21
5.80468
0
LINE
8
BLACK
6
CONTINUOUS
10
-4.88629
20
5.80468
11
-4.88961
21
5.80437
0
LINE
8
BLACK
6
CONTINUOUS
10
-4.88961
20
5.80437
11
-4.97622
21
5.80437
0
LINE
8
BLACK
6
CONTINUOUS
10
-4.97622
20
5.80437
11
-4.97954
21
5.80468
0
LINE
8
BLACK
6
CONTINUOUS
10
-4.97954
20
5.80468
11
-4.98451
21
5.80643
0
LINE
8
BLACK
6
CONTINUOUS
10
-4.98451
20
5.80643
11
-4.98875
21
5.80956
0
LINE
8
BLACK
6
CONTINUOUS
10
-4.98875
20
5.80956
11
-4.99188
21
5.8138
0
LINE
8
BLACK
6
CONTINUOUS
10
-4.99188
20
5.8138
11
-4.99362
21
5.81877
0
LINE
8
BLACK
6
CONTINUOUS
10
-4.99362
20
5.81877
11
-4.99394
21
5.82209
0
LINE
8
BLACK
6
CONTINUOUS
10
-4.99394
20
5.82209
11
-4.99394
21
5.84177
0
LINE
8
BLACK
6
CONTINUOUS
10
-4.99394
20
5.84177
11
-4.99362
21
5.84509
0
LINE
8
BLACK
6
CONTINUOUS
10
-4.99362
20
5.84509
11
-4.99188
21
5.85006
0
LINE
8
BLACK
6
CONTINUOUS
10
-4.99188
20
5.85006
11
-4.98875
21
5.8543
0
LINE
8
BLACK
6
CONTINUOUS
10
-4.98875
20
5.8543
11
-4.98451
21
5.85743
0
LINE
8
BLACK
6
CONTINUOUS
10
-4.98451
20
5.85743
11
-4.97954
21
5.85917
0
LINE
8
BLACK
6
CONTINUOUS
10
-4.97954
20
5.85917
11
-4.97622
21
5.85949
0
LINE
8
BLACK
6
CONTINUOUS
10
-4.97622
20
5.85949
11
-4.88961
21
5.85949
0
LINE
8
BLACK
6
CONTINUOUS
10
-4.88961
20
5.85949
11
-4.88629
21
5.85917
0
LINE
8
BLACK
6
CONTINUOUS
10
-4.05689
20
5.90101
11
-4.04955
21
5.89873
0
LINE
8
BLACK
6
CONTINUOUS
10
-4.04955
20
5.89873
11
-4.04279
21
5.89508
0
LINE
8
BLACK
6
CONTINUOUS
10
-4.04279
20
5.89508
11
-4.03687
21
5.89018
0
LINE
8
BLACK
6
CONTINUOUS
10
-4.03687
20
5.89018
11
-4.03201
21
5.88423
0
LINE
8
BLACK
6
CONTINUOUS
10
-4.03201
20
5.88423
11
-4.0284
21
5.87744
0
LINE
8
BLACK
6
CONTINUOUS
10
-4.0284
20
5.87744
11
-4.02618
21
5.87009
0
LINE
8
BLACK
6
CONTINUOUS
10
-4.02618
20
5.87009
11
-4.02543
21
5.86244
0
LINE
8
BLACK
6
CONTINUOUS
10
-4.02543
20
5.86244
11
-4.02545
21
5.86134
0
LINE
8
BLACK
6
CONTINUOUS
10
-4.02545
20
5.86134
11
-4.02641
21
5.85372
0
LINE
8
BLACK
6
CONTINUOUS
10
-4.02641
20
5.85372
11
-4.02884
21
5.84643
0
LINE
8
BLACK
6
CONTINUOUS
10
-4.02884
20
5.84643
11
-4.03263
21
5.83975
0
LINE
8
BLACK
6
CONTINUOUS
10
-4.03263
20
5.83975
11
-4.03765
21
5.83393
0
LINE
8
BLACK
6
CONTINUOUS
10
-4.03765
20
5.83393
11
-4.04371
21
5.8292
0
LINE
8
BLACK
6
CONTINUOUS
10
-4.04371
20
5.8292
11
-4.05057
21
5.82574
0
LINE
8
BLACK
6
CONTINUOUS
10
-4.05057
20
5.82574
11
-4.05797
21
5.82367
0
LINE
8
BLACK
6
CONTINUOUS
10
-4.05797
20
5.82367
11
-4.06563
21
5.82308
0
LINE
8
BLACK
6
CONTINUOUS
10
-4.06563
20
5.82308
11
-4.07326
21
5.82399
0
LINE
8
BLACK
6
CONTINUOUS
10
-4.07326
20
5.82399
11
-4.08056
21
5.82636
0
LINE
8
BLACK
6
CONTINUOUS
10
-4.08056
20
5.82636
11
-4.08727
21
5.83011
0
LINE
8
BLACK
6
CONTINUOUS
10
-4.08727
20
5.83011
11
-4.09312
21
5.83509
0
LINE
8
BLACK
6
CONTINUOUS
10
-4.09312
20
5.83509
11
-4.0979
21
5.84111
0
LINE
8
BLACK
6
CONTINUOUS
10
-4.0979
20
5.84111
11
-4.10141
21
5.84795
0
LINE
8
BLACK
6
CONTINUOUS
10
-4.10141
20
5.84795
11
-4.10353
21
5.85533
0
LINE
8
BLACK
6
CONTINUOUS
10
-4.10353
20
5.85533
11
-4.10417
21
5.86299
0
LINE
8
BLACK
6
CONTINUOUS
10
-4.10417
20
5.86299
11
-4.10331
21
5.87063
0
LINE
8
BLACK
6
CONTINUOUS
10
-4.10331
20
5.87063
11
-4.10099
21
5.87795
0
LINE
8
BLACK
6
CONTINUOUS
10
-4.10099
20
5.87795
11
-4.09729
21
5.88468
0
LINE
8
BLACK
6
CONTINUOUS
10
-4.09729
20
5.88468
11
-4.09235
21
5.89057
0
LINE
8
BLACK
6
CONTINUOUS
10
-4.09235
20
5.89057
11
-4.08636
21
5.89538
0
LINE
8
BLACK
6
CONTINUOUS
10
-4.08636
20
5.89538
11
-4.07955
21
5.89894
0
LINE
8
BLACK
6
CONTINUOUS
10
-4.07955
20
5.89894
11
-4.07218
21
5.90111
0
LINE
8
BLACK
6
CONTINUOUS
10
-4.07218
20
5.90111
11
-4.06453
21
5.90181
0
LINE
8
BLACK
6
CONTINUOUS
10
-4.06453
20
5.90181
11
-4.05689
21
5.90101
0
LINE
8
BLACK
6
CONTINUOUS
10
-4.64612
20
5.95415
11
-4.63718
21
5.95176
0
LINE
8
BLACK
6
CONTINUOUS
10
-4.63718
20
5.95176
11
-4.62878
21
5.94784
0
LINE
8
BLACK
6
CONTINUOUS
10
-4.62878
20
5.94784
11
-4.62119
21
5.94253
0
LINE
8
BLACK
6
CONTINUOUS
10
-4.62119
20
5.94253
11
-4.61464
21
5.93597
0
LINE
8
BLACK
6
CONTINUOUS
10
-4.61464
20
5.93597
11
-4.60933
21
5.92839
0
LINE
8
BLACK
6
CONTINUOUS
10
-4.60933
20
5.92839
11
-4.60541
21
5.91999
0
LINE
8
BLACK
6
CONTINUOUS
10
-4.60541
20
5.91999
11
-4.60301
21
5.91104
0
LINE
8
BLACK
6
CONTINUOUS
10
-4.60301
20
5.91104
11
-4.6022
21
5.90181
0
LINE
8
BLACK
6
CONTINUOUS
10
-4.6022
20
5.90181
11
-4.60301
21
5.89258
0
LINE
8
BLACK
6
CONTINUOUS
10
-4.60301
20
5.89258
11
-4.60541
21
5.88363
0
LINE
8
BLACK
6
CONTINUOUS
10
-4.60541
20
5.88363
11
-4.60933
21
5.87524
0
LINE
8
BLACK
6
CONTINUOUS
10
-4.60933
20
5.87524
11
-4.61464
21
5.86765
0
LINE
8
BLACK
6
CONTINUOUS
10
-4.61464
20
5.86765
11
-4.62119
21
5.8611
0
LINE
8
BLACK
6
CONTINUOUS
10
-4.62119
20
5.8611
11
-4.62878
21
5.85578
0
LINE
8
BLACK
6
CONTINUOUS
10
-4.62878
20
5.85578
11
-4.63718
21
5.85187
0
LINE
8
BLACK
6
CONTINUOUS
10
-4.63718
20
5.85187
11
-4.64612
21
5.84947
0
LINE
8
BLACK
6
CONTINUOUS
10
-4.64612
20
5.84947
11
-4.65535
21
5.84866
0
LINE
8
BLACK
6
CONTINUOUS
10
-4.65535
20
5.84866
11
-4.66458
21
5.84947
0
LINE
8
BLACK
6
CONTINUOUS
10
-4.66458
20
5.84947
11
-4.67353
21
5.85187
0
LINE
8
BLACK
6
CONTINUOUS
10
-4.67353
20
5.85187
11
-4.68193
21
5.85578
0
LINE
8
BLACK
6
CONTINUOUS
10
-4.68193
20
5.85578
11
-4.68952
21
5.8611
0
LINE
8
BLACK
6
CONTINUOUS
10
-4.68952
20
5.8611
11
-4.69607
21
5.86765
0
LINE
8
BLACK
6
CONTINUOUS
10
-4.69607
20
5.86765
11
-4.70138
21
5.87524
0
LINE
8
BLACK
6
CONTINUOUS
10
-4.70138
20
5.87524
11
-4.7053
21
5.88363
0
LINE
8
BLACK
6
CONTINUOUS
10
-4.7053
20
5.88363
11
-4.7077
21
5.89258
0
LINE
8
BLACK
6
CONTINUOUS
10
-4.7077
20
5.89258
11
-4.7085
21
5.90181
0
LINE
8
BLACK
6
CONTINUOUS
10
-4.7085
20
5.90181
11
-4.7077
21
5.91104
0
LINE
8
BLACK
6
CONTINUOUS
10
-4.7077
20
5.91104
11
-4.7053
21
5.91999
0
LINE
8
BLACK
6
CONTINUOUS
10
-4.7053
20
5.91999
11
-4.70138
21
5.92839
0
LINE
8
BLACK
6
CONTINUOUS
10
-4.70138
20
5.92839
11
-4.69607
21
5.93597
0
LINE
8
BLACK
6
CONTINUOUS
10
-4.69607
20
5.93597
11
-4.68952
21
5.94253
0
LINE
8
BLACK
6
CONTINUOUS
10
-4.68952
20
5.94253
11
-4.68193
21
5.94784
0
LINE
8
BLACK
6
CONTINUOUS
10
-4.68193
20
5.94784
11
-4.67353
21
5.95176
0
LINE
8
BLACK
6
CONTINUOUS
10
-4.67353
20
5.95176
11
-4.66458
21
5.95415
0
LINE
8
BLACK
6
CONTINUOUS
10
-4.66458
20
5.95415
11
-4.65535
21
5.95496
0
LINE
8
BLACK
6
CONTINUOUS
10
-4.65535
20
5.95496
11
-4.64612
21
5.95415
0
LINE
8
BLACK
6
CONTINUOUS
10
-4.09862
20
6.03934
11
-4.08909
21
6.03765
0
LINE
8
BLACK
6
CONTINUOUS
10
-4.08909
20
6.03765
11
-4.07997
21
6.03442
0
LINE
8
BLACK
6
CONTINUOUS
10
-4.07997
20
6.03442
11
-4.07149
21
6.02974
0
LINE
8
BLACK
6
CONTINUOUS
10
-4.07149
20
6.02974
11
-4.0639
21
6.02374
0
LINE
8
BLACK
6
CONTINUOUS
10
-4.0639
20
6.02374
11
-4.05738
21
6.01658
0
LINE
8
BLACK
6
CONTINUOUS
10
-4.05738
20
6.01658
11
-4.05213
21
6.00846
0
LINE
8
BLACK
6
CONTINUOUS
10
-4.05213
20
6.00846
11
-4.04827
21
5.99958
0
LINE
8
BLACK
6
CONTINUOUS
10
-4.04827
20
5.99958
11
-4.04591
21
5.9902
0
LINE
8
BLACK
6
CONTINUOUS
10
-4.04591
20
5.9902
11
-4.04512
21
5.98055
0
LINE
8
BLACK
6
CONTINUOUS
10
-4.04512
20
5.98055
11
-4.04519
21
5.97767
0
LINE
8
BLACK
6
CONTINUOUS
10
-4.04519
20
5.97767
11
-4.04645
21
5.96807
0
LINE
8
BLACK
6
CONTINUOUS
10
-4.04645
20
5.96807
11
-4.04927
21
5.95881
0
LINE
8
BLACK
6
CONTINUOUS
10
-4.04927
20
5.95881
11
-4.05355
21
5.95014
0
LINE
8
BLACK
6
CONTINUOUS
10
-4.05355
20
5.95014
11
-4.0592
21
5.94228
0
LINE
8
BLACK
6
CONTINUOUS
10
-4.0592
20
5.94228
11
-4.06606
21
5.93545
0
LINE
8
BLACK
6
CONTINUOUS
10
-4.06606
20
5.93545
11
-4.07393
21
5.92983
0
LINE
8
BLACK
6
CONTINUOUS
10
-4.07393
20
5.92983
11
-4.08263
21
5.92557
0
LINE
8
BLACK
6
CONTINUOUS
10
-4.08263
20
5.92557
11
-4.09189
21
5.92279
0
LINE
8
BLACK
6
CONTINUOUS
10
-4.09189
20
5.92279
11
-4.10149
21
5.92156
0
LINE
8
BLACK
6
CONTINUOUS
10
-4.10149
20
5.92156
11
-4.11117
21
5.92191
0
LINE
8
BLACK
6
CONTINUOUS
10
-4.11117
20
5.92191
11
-4.12065
21
5.92384
0
LINE
8
BLACK
6
CONTINUOUS
10
-4.12065
20
5.92384
11
-4.12969
21
5.92729
0
LINE
8
BLACK
6
CONTINUOUS
10
-4.12969
20
5.92729
11
-4.13805
21
5.93218
0
LINE
8
BLACK
6
CONTINUOUS
10
-4.13805
20
5.93218
11
-4.14549
21
5.93836
0
LINE
8
BLACK
6
CONTINUOUS
10
-4.14549
20
5.93836
11
-4.15183
21
5.94567
0
LINE
8
BLACK
6
CONTINUOUS
10
-4.15183
20
5.94567
11
-4.15688
21
5.95392
0
LINE
8
BLACK
6
CONTINUOUS
10
-4.15688
20
5.95392
11
-4.16053
21
5.96289
0
LINE
8
BLACK
6
CONTINUOUS
10
-4.16053
20
5.96289
11
-4.16265
21
5.97233
0
LINE
8
BLACK
6
CONTINUOUS
10
-4.16265
20
5.97233
11
-4.16321
21
5.98199
0
LINE
8
BLACK
6
CONTINUOUS
10
-4.16321
20
5.98199
11
-4.16218
21
5.99162
0
LINE
8
BLACK
6
CONTINUOUS
10
-4.16218
20
5.99162
11
-4.1596
21
6.00094
0
LINE
8
BLACK
6
CONTINUOUS
10
-4.1596
20
6.00094
11
-4.15552
21
6.00972
0
LINE
8
BLACK
6
CONTINUOUS
10
-4.15552
20
6.00972
11
-4.15007
21
6.01772
0
LINE
8
BLACK
6
CONTINUOUS
10
-4.15007
20
6.01772
11
-4.14338
21
6.02471
0
LINE
8
BLACK
6
CONTINUOUS
10
-4.14338
20
6.02471
11
-4.13564
21
6.03052
0
LINE
8
BLACK
6
CONTINUOUS
10
-4.13564
20
6.03052
11
-4.12706
21
6.03499
0
LINE
8
BLACK
6
CONTINUOUS
10
-4.12706
20
6.03499
11
-4.11786
21
6.038
0
LINE
8
BLACK
6
CONTINUOUS
10
-4.11786
20
6.038
11
-4.10829
21
6.03946
0
LINE
8
BLACK
6
CONTINUOUS
10
-4.10829
20
6.03946
11
-4.09862
21
6.03934
0
LINE
8
BLACK
6
CONTINUOUS
10
-4.88602
20
6.03934
11
-4.87649
21
6.03765
0
LINE
8
BLACK
6
CONTINUOUS
10
-4.87649
20
6.03765
11
-4.86737
21
6.03442
0
LINE
8
BLACK
6
CONTINUOUS
10
-4.86737
20
6.03442
11
-4.85889
21
6.02974
0
LINE
8
BLACK
6
CONTINUOUS
10
-4.85889
20
6.02974
11
-4.8513
21
6.02374
0
LINE
8
BLACK
6
CONTINUOUS
10
-4.8513
20
6.02374
11
-4.84479
21
6.01658
0
LINE
8
BLACK
6
CONTINUOUS
10
-4.84479
20
6.01658
11
-4.83953
21
6.00846
0
LINE
8
BLACK
6
CONTINUOUS
10
-4.83953
20
6.00846
11
-4.83567
21
5.99958
0
LINE
8
BLACK
6
CONTINUOUS
10
-4.83567
20
5.99958
11
-4.83331
21
5.9902
0
LINE
8
BLACK
6
CONTINUOUS
10
-4.83331
20
5.9902
11
-4.83252
21
5.98055
0
LINE
8
BLACK
6
CONTINUOUS
10
-4.83252
20
5.98055
11
-4.83259
21
5.97767
0
LINE
8
BLACK
6
CONTINUOUS
10
-4.83259
20
5.97767
11
-4.83385
21
5.96807
0
LINE
8
BLACK
6
CONTINUOUS
10
-4.83385
20
5.96807
11
-4.83667
21
5.95881
0
LINE
8
BLACK
6
CONTINUOUS
10
-4.83667
20
5.95881
11
-4.84095
21
5.95014
0
LINE
8
BLACK
6
CONTINUOUS
10
-4.84095
20
5.95014
11
-4.8466
21
5.94228
0
LINE
8
BLACK
6
CONTINUOUS
10
-4.8466
20
5.94228
11
-4.85346
21
5.93545
0
LINE
8
BLACK
6
CONTINUOUS
10
-4.85346
20
5.93545
11
-4.86134
21
5.92983
0
LINE
8
BLACK
6
CONTINUOUS
10
-4.86134
20
5.92983
11
-4.87003
21
5.92557
0
LINE
8
BLACK
6
CONTINUOUS
10
-4.87003
20
5.92557
11
-4.8793
21
5.92279
0
LINE
8
BLACK
6
CONTINUOUS
10
-4.8793
20
5.92279
11
-4.8889
21
5.92156
0
LINE
8
BLACK
6
CONTINUOUS
10
-4.8889
20
5.92156
11
-4.89857
21
5.92191
0
LINE
8
BLACK
6
CONTINUOUS
10
-4.89857
20
5.92191
11
-4.90805
21
5.92384
0
LINE
8
BLACK
6
CONTINUOUS
10
-4.90805
20
5.92384
11
-4.91709
21
5.92729
0
LINE
8
BLACK
6
CONTINUOUS
10
-4.91709
20
5.92729
11
-4.92545
21
5.93218
0
LINE
8
BLACK
6
CONTINUOUS
10
-4.92545
20
5.93218
11
-4.93289
21
5.93836
0
LINE
8
BLACK
6
CONTINUOUS
10
-4.93289
20
5.93836
11
-4.93923
21
5.94567
0
LINE
8
BLACK
6
CONTINUOUS
10
-4.93923
20
5.94567
11
-4.94429
21
5.95392
0
LINE
8
BLACK
6
CONTINUOUS
10
-4.94429
20
5.95392
11
-4.94793
21
5.96289
0
LINE
8
BLACK
6
CONTINUOUS
10
-4.94793
20
5.96289
11
-4.95006
21
5.97233
0
LINE
8
BLACK
6
CONTINUOUS
10
-4.95006
20
5.97233
11
-4.95061
21
5.98199
0
LINE
8
BLACK
6
CONTINUOUS
10
-4.95061
20
5.98199
11
-4.94958
21
5.99162
0
LINE
8
BLACK
6
CONTINUOUS
10
-4.94958
20
5.99162
11
-4.947
21
6.00094
0
LINE
8
BLACK
6
CONTINUOUS
10
-4.947
20
6.00094
11
-4.94292
21
6.00972
0
LINE
8
BLACK
6
CONTINUOUS
10
-4.94292
20
6.00972
11
-4.93747
21
6.01772
0
LINE
8
BLACK
6
CONTINUOUS
10
-4.93747
20
6.01772
11
-4.93078
21
6.02471
0
LINE
8
BLACK
6
CONTINUOUS
10
-4.93078
20
6.02471
11
-4.92304
21
6.03052
0
LINE
8
BLACK
6
CONTINUOUS
10
-4.92304
20
6.03052
11
-4.91446
21
6.03499
0
LINE
8
BLACK
6
CONTINUOUS
10
-4.91446
20
6.03499
11
-4.90526
21
6.038
0
LINE
8
BLACK
6
CONTINUOUS
10
-4.90526
20
6.038
11
-4.89569
21
6.03946
0
LINE
8
BLACK
6
CONTINUOUS
10
-4.89569
20
6.03946
11
-4.88602
21
6.03934
0
LINE
8
BLACK
6
CONTINUOUS
10
-4.49232
20
6.03934
11
-4.48279
21
6.03765
0
LINE
8
BLACK
6
CONTINUOUS
10
-4.48279
20
6.03765
11
-4.47367
21
6.03442
0
LINE
8
BLACK
6
CONTINUOUS
10
-4.47367
20
6.03442
11
-4.46519
21
6.02974
0
LINE
8
BLACK
6
CONTINUOUS
10
-4.46519
20
6.02974
11
-4.4576
21
6.02374
0
LINE
8
BLACK
6
CONTINUOUS
10
-4.4576
20
6.02374
11
-4.45109
21
6.01658
0
LINE
8
BLACK
6
CONTINUOUS
10
-4.45109
20
6.01658
11
-4.44583
21
6.00846
0
LINE
8
BLACK
6
CONTINUOUS
10
-4.44583
20
6.00846
11
-4.44197
21
5.99958
0
LINE
8
BLACK
6
CONTINUOUS
10
-4.44197
20
5.99958
11
-4.43961
21
5.9902
0
LINE
8
BLACK
6
CONTINUOUS
10
-4.43961
20
5.9902
11
-4.43882
21
5.98055
0
LINE
8
BLACK
6
CONTINUOUS
10
-4.43882
20
5.98055
11
-4.43889
21
5.97767
0
LINE
8
BLACK
6
CONTINUOUS
10
-4.43889
20
5.97767
11
-4.44015
21
5.96807
0
LINE
8
BLACK
6
CONTINUOUS
10
-4.44015
20
5.96807
11
-4.44297
21
5.95881
0
LINE
8
BLACK
6
CONTINUOUS
10
-4.44297
20
5.95881
11
-4.44725
21
5.95014
0
LINE
8
BLACK
6
CONTINUOUS
10
-4.44725
20
5.95014
11
-4.4529
21
5.94228
0
LINE
8
BLACK
6
CONTINUOUS
10
-4.4529
20
5.94228
11
-4.45976
21
5.93545
0
LINE
8
BLACK
6
CONTINUOUS
10
-4.45976
20
5.93545
11
-4.46764
21
5.92983
0
LINE
8
BLACK
6
CONTINUOUS
10
-4.46764
20
5.92983
11
-4.47633
21
5.92557
0
LINE
8
BLACK
6
CONTINUOUS
10
-4.47633
20
5.92557
11
-4.4856
21
5.92279
0
LINE
8
BLACK
6
CONTINUOUS
10
-4.4856
20
5.92279
11
-4.4952
21
5.92156
0
LINE
8
BLACK
6
CONTINUOUS
10
-4.4952
20
5.92156
11
-4.50487
21
5.92191
0
LINE
8
BLACK
6
CONTINUOUS
10
-4.50487
20
5.92191
11
-4.51435
21
5.92384
0
LINE
8
BLACK
6
CONTINUOUS
10
-4.51435
20
5.92384
11
-4.52339
21
5.92729
0
LINE
8
BLACK
6
CONTINUOUS
10
-4.52339
20
5.92729
11
-4.53175
21
5.93218
0
LINE
8
BLACK
6
CONTINUOUS
10
-4.53175
20
5.93218
11
-4.53919
21
5.93836
0
LINE
8
BLACK
6
CONTINUOUS
10
-4.53919
20
5.93836
11
-4.54553
21
5.94567
0
LINE
8
BLACK
6
CONTINUOUS
10
-4.54553
20
5.94567
11
-4.55059
21
5.95392
0
LINE
8
BLACK
6
CONTINUOUS
10
-4.55059
20
5.95392
11
-4.55423
21
5.96289
0
LINE
8
BLACK
6
CONTINUOUS
10
-4.55423
20
5.96289
11
-4.55635
21
5.97233
0
LINE
8
BLACK
6
CONTINUOUS
10
-4.55635
20
5.97233
11
-4.55691
21
5.98199
0
LINE
8
BLACK
6
CONTINUOUS
10
-4.55691
20
5.98199
11
-4.55588
21
5.99162
0
LINE
8
BLACK
6
CONTINUOUS
10
-4.55588
20
5.99162
11
-4.5533
21
6.00094
0
LINE
8
BLACK
6
CONTINUOUS
10
-4.5533
20
6.00094
11
-4.54922
21
6.00972
0
LINE
8
BLACK
6
CONTINUOUS
10
-4.54922
20
6.00972
11
-4.54377
21
6.01772
0
LINE
8
BLACK
6
CONTINUOUS
10
-4.54377
20
6.01772
11
-4.53708
21
6.02471
0
LINE
8
BLACK
6
CONTINUOUS
10
-4.53708
20
6.02471
11
-4.52934
21
6.03052
0
LINE
8
BLACK
6
CONTINUOUS
10
-4.52934
20
6.03052
11
-4.52076
21
6.03499
0
LINE
8
BLACK
6
CONTINUOUS
10
-4.52076
20
6.03499
11
-4.51156
21
6.038
0
LINE
8
BLACK
6
CONTINUOUS
10
-4.51156
20
6.038
11
-4.50199
21
6.03946
0
LINE
8
BLACK
6
CONTINUOUS
10
-4.50199
20
6.03946
11
-4.49232
21
6.03934
  0
ENDSEC
  0
EOF
