  0
SECTION
  2
HEADER
  9
$ANGBASE
  50
0.0
  9
$ANGDIR
  70
1
  9
$MEASUREMENT
  70
0
  0
ENDSEC
  0
SECTION
  2
TABLES
  0
TABLE
  2
LTYPE
  70
4
  0
LTYPE
  5
40F
  2
CONTINUOUS
  70
0
  3
Solid line
  72
65
  73
0
  40
0.0
  0
LTYPE
  5
410
  2
DASHDOT
 70
0
  3
Dash Dot ____ _ ____ _
 72
65
 73
4
 40
2.0
 49
1.25
 49
-0.25
 49
0.25
 49
-0.25
  0
LTYPE
  5
411
  2
DASHED
 70
0
  3
Dashed __ __ __ __ __
 72
65
 73
2
 40
0.75
 49
0.5
 49
-0.25
  0
LTYPE
  5
43B
  2
DOTTED
 70
0
  3
Dotted .  .  .  .
 72
65
 73
2
 40
0.2
 49
0.0
 49
-0.2
  0
ENDTAB
  0
TABLE
  2
STYLE
  70
4
  0
STYLE
  2
KICAD
  70
0
  40
0
  41
1
  42
1
  50
0
  71
0
  3
isocp.shx
  0
STYLE
  2
KICADB
  70
0
  40
0
  41
1
  42
1
  50
0
  71
0
  3
isocp.shx
  0
STYLE
  2
KICADI
  70
0
  40
0
  41
1
  42
1
  50
15
  71
0
  3
isocp.shx
  0
STYLE
  2
KICADBI
  70
0
  40
0
  41
1
  42
1
  50
15
  71
0
  3
isocp.shx
  0
ENDTAB
  0
TABLE
  2
LAYER
  70
1
  0
LAYER
  2
BLACK
  70
0
  62
7
  6
CONTINUOUS
  0
ENDTAB
  0
ENDSEC
  0
SECTION
  2
ENTITIES
0
LINE
8
BLACK
6
CONTINUOUS
10
-3.80851
20
5.98344
11
-3.80838
21
5.98346
0
LINE
8
BLACK
6
CONTINUOUS
10
-3.80838
20
5.98346
11
-3.80827
21
5.98339
0
LINE
8
BLACK
6
CONTINUOUS
10
-3.80827
20
5.98339
11
-3.80789
21
5.98333
0
LINE
8
BLACK
6
CONTINUOUS
10
-3.80789
20
5.98333
11
-3.8073
21
5.98283
0
LINE
8
BLACK
6
CONTINUOUS
10
-3.8073
20
5.98283
11
-3.80664
21
5.98245
0
LINE
8
BLACK
6
CONTINUOUS
10
-3.80664
20
5.98245
11
-3.80654
21
5.9822
0
LINE
8
BLACK
6
CONTINUOUS
10
-3.80654
20
5.9822
11
-3.80634
21
5.98203
0
LINE
8
BLACK
6
CONTINUOUS
10
-3.80634
20
5.98203
11
-3.80621
21
5.98127
0
LINE
8
BLACK
6
CONTINUOUS
10
-3.80621
20
5.98127
11
-3.80594
21
5.98055
0
LINE
8
BLACK
6
CONTINUOUS
10
-3.80594
20
5.98055
11
-3.80594
21
5.39
0
LINE
8
BLACK
6
CONTINUOUS
10
-3.80594
20
5.39
11
-3.80601
21
5.38962
0
LINE
8
BLACK
6
CONTINUOUS
10
-3.80601
20
5.38962
11
-3.80599
21
5.38949
0
LINE
8
BLACK
6
CONTINUOUS
10
-3.80599
20
5.38949
11
-3.80606
21
5.38937
0
LINE
8
BLACK
6
CONTINUOUS
10
-3.80606
20
5.38937
11
-3.80612
21
5.38899
0
LINE
8
BLACK
6
CONTINUOUS
10
-3.80612
20
5.38899
11
-3.80662
21
5.3884
0
LINE
8
BLACK
6
CONTINUOUS
10
-3.80662
20
5.3884
11
-3.807
21
5.38774
0
LINE
8
BLACK
6
CONTINUOUS
10
-3.807
20
5.38774
11
-3.80725
21
5.38765
0
LINE
8
BLACK
6
CONTINUOUS
10
-3.80725
20
5.38765
11
-3.80742
21
5.38744
0
LINE
8
BLACK
6
CONTINUOUS
10
-3.80742
20
5.38744
11
-3.80818
21
5.38731
0
LINE
8
BLACK
6
CONTINUOUS
10
-3.80818
20
5.38731
11
-3.8089
21
5.38705
0
LINE
8
BLACK
6
CONTINUOUS
10
-3.8089
20
5.38705
11
-4.99
21
5.38705
0
LINE
8
BLACK
6
CONTINUOUS
10
-4.99
20
5.38705
11
-4.99038
21
5.38711
0
LINE
8
BLACK
6
CONTINUOUS
10
-4.99038
20
5.38711
11
-4.99051
21
5.38709
0
LINE
8
BLACK
6
CONTINUOUS
10
-4.99051
20
5.38709
11
-4.99063
21
5.38716
0
LINE
8
BLACK
6
CONTINUOUS
10
-4.99063
20
5.38716
11
-4.99101
21
5.38723
0
LINE
8
BLACK
6
CONTINUOUS
10
-4.99101
20
5.38723
11
-4.9916
21
5.38772
0
LINE
8
BLACK
6
CONTINUOUS
10
-4.9916
20
5.38772
11
-4.99226
21
5.3881
0
LINE
8
BLACK
6
CONTINUOUS
10
-4.99226
20
5.3881
11
-4.99235
21
5.38835
0
LINE
8
BLACK
6
CONTINUOUS
10
-4.99235
20
5.38835
11
-4.99256
21
5.38852
0
LINE
8
BLACK
6
CONTINUOUS
10
-4.99256
20
5.38852
11
-4.99269
21
5.38928
0
LINE
8
BLACK
6
CONTINUOUS
10
-4.99269
20
5.38928
11
-4.99295
21
5.39
0
LINE
8
BLACK
6
CONTINUOUS
10
-4.99295
20
5.39
11
-4.99295
21
5.98055
0
LINE
8
BLACK
6
CONTINUOUS
10
-4.99295
20
5.98055
11
-4.99289
21
5.98093
0
LINE
8
BLACK
6
CONTINUOUS
10
-4.99289
20
5.98093
11
-4.99291
21
5.98106
0
LINE
8
BLACK
6
CONTINUOUS
10
-4.99291
20
5.98106
11
-4.99284
21
5.98118
0
LINE
8
BLACK
6
CONTINUOUS
10
-4.99284
20
5.98118
11
-4.99277
21
5.98156
0
LINE
8
BLACK
6
CONTINUOUS
10
-4.99277
20
5.98156
11
-4.99228
21
5.98215
0
LINE
8
BLACK
6
CONTINUOUS
10
-4.99228
20
5.98215
11
-4.9919
21
5.98281
0
LINE
8
BLACK
6
CONTINUOUS
10
-4.9919
20
5.98281
11
-4.99165
21
5.9829
0
LINE
8
BLACK
6
CONTINUOUS
10
-4.99165
20
5.9829
11
-4.99148
21
5.98311
0
LINE
8
BLACK
6
CONTINUOUS
10
-4.99148
20
5.98311
11
-4.99072
21
5.98324
0
LINE
8
BLACK
6
CONTINUOUS
10
-4.99072
20
5.98324
11
-4.99
21
5.9835
0
LINE
8
BLACK
6
CONTINUOUS
10
-4.99
20
5.9835
11
-3.8089
21
5.9835
0
LINE
8
BLACK
6
CONTINUOUS
10
-3.8089
20
5.9835
11
-3.80851
21
5.98344
0
LINE
8
BLACK
6
CONTINUOUS
10
-4.98705
20
5.9776
11
-4.98705
21
5.39295
0
LINE
8
BLACK
6
CONTINUOUS
10
-4.98705
20
5.39295
11
-3.81185
21
5.39295
0
LINE
8
BLACK
6
CONTINUOUS
10
-3.81185
20
5.39295
11
-3.81185
21
5.9776
0
LINE
8
BLACK
6
CONTINUOUS
10
-3.81185
20
5.9776
11
-4.98705
21
5.9776
  0
ENDSEC
  0
EOF
