  0
SECTION
  2
HEADER
  9
$ANGBASE
  50
0.0
  9
$ANGDIR
  70
1
  9
$MEASUREMENT
  70
0
  0
ENDSEC
  0
SECTION
  2
TABLES
  0
TABLE
  2
LTYPE
  70
4
  0
LTYPE
  5
40F
  2
CONTINUOUS
  70
0
  3
Solid line
  72
65
  73
0
  40
0.0
  0
LTYPE
  5
410
  2
DASHDOT
 70
0
  3
Dash Dot ____ _ ____ _
 72
65
 73
4
 40
2.0
 49
1.25
 49
-0.25
 49
0.25
 49
-0.25
  0
LTYPE
  5
411
  2
DASHED
 70
0
  3
Dashed __ __ __ __ __
 72
65
 73
2
 40
0.75
 49
0.5
 49
-0.25
  0
LTYPE
  5
43B
  2
DOTTED
 70
0
  3
Dotted .  .  .  .
 72
65
 73
2
 40
0.2
 49
0.0
 49
-0.2
  0
ENDTAB
  0
TABLE
  2
STYLE
  70
4
  0
STYLE
  2
KICAD
  70
0
  40
0
  41
1
  42
1
  50
0
  71
0
  3
isocp.shx
  0
STYLE
  2
KICADB
  70
0
  40
0
  41
1
  42
1
  50
0
  71
0
  3
isocp.shx
  0
STYLE
  2
KICADI
  70
0
  40
0
  41
1
  42
1
  50
15
  71
0
  3
isocp.shx
  0
STYLE
  2
KICADBI
  70
0
  40
0
  41
1
  42
1
  50
15
  71
0
  3
isocp.shx
  0
ENDTAB
  0
TABLE
  2
LAYER
  70
1
  0
LAYER
  2
BLACK
  70
0
  62
7
  6
CONTINUOUS
  0
ENDTAB
  0
ENDSEC
  0
SECTION
  2
ENTITIES
0
LINE
8
BLACK
6
CONTINUOUS
10
0.192431
20
0.0596761
11
0.192495
21
0.0596779
0
LINE
8
BLACK
6
CONTINUOUS
10
0.192495
20
0.0596779
11
0.19812
21
0.0578031
0
LINE
8
BLACK
6
CONTINUOUS
10
0.19812
20
0.0578031
11
0.199021
21
0.0573148
0
LINE
8
BLACK
6
CONTINUOUS
10
0.199021
20
0.0573148
11
0.199114
21
0.0571644
0
LINE
8
BLACK
6
CONTINUOUS
10
0.199114
20
0.0571644
11
0.199274
21
0.0570898
0
LINE
8
BLACK
6
CONTINUOUS
10
0.199274
20
0.0570898
11
0.203023
21
0.0533403
0
LINE
8
BLACK
6
CONTINUOUS
10
0.203023
20
0.0533403
11
0.203612
21
0.0525002
0
LINE
8
BLACK
6
CONTINUOUS
10
0.203612
20
0.0525002
11
0.203627
21
0.0523243
0
LINE
8
BLACK
6
CONTINUOUS
10
0.203627
20
0.0523243
11
0.203737
21
0.0521861
0
LINE
8
BLACK
6
CONTINUOUS
10
0.203737
20
0.0521861
11
0.205611
21
0.0465619
0
LINE
8
BLACK
6
CONTINUOUS
10
0.205611
20
0.0465619
11
0.205741
21
0.0456886
0
LINE
8
BLACK
6
CONTINUOUS
10
0.205741
20
0.0456886
11
0.205763
21
0.0456281
0
LINE
8
BLACK
6
CONTINUOUS
10
0.205763
20
0.0456281
11
0.205763
21
0.0418785
0
LINE
8
BLACK
6
CONTINUOUS
10
0.205763
20
0.0418785
11
0.205585
21
0.0408686
0
LINE
8
BLACK
6
CONTINUOUS
10
0.205585
20
0.0408686
11
0.204287
21
0.0393214
0
LINE
8
BLACK
6
CONTINUOUS
10
0.204287
20
0.0393214
11
0.202297
21
0.0389706
0
LINE
8
BLACK
6
CONTINUOUS
10
0.202297
20
0.0389706
11
0.200548
21
0.0399806
0
LINE
8
BLACK
6
CONTINUOUS
10
0.200548
20
0.0399806
11
0.199857
21
0.0418785
0
LINE
8
BLACK
6
CONTINUOUS
10
0.199857
20
0.0418785
11
0.199857
21
0.0451489
0
LINE
8
BLACK
6
CONTINUOUS
10
0.199857
20
0.0451489
11
0.198355
21
0.0496573
0
LINE
8
BLACK
6
CONTINUOUS
10
0.198355
20
0.0496573
11
0.195591
21
0.0524211
0
LINE
8
BLACK
6
CONTINUOUS
10
0.195591
20
0.0524211
11
0.191083
21
0.0539239
0
LINE
8
BLACK
6
CONTINUOUS
10
0.191083
20
0.0539239
11
0.16344
21
0.0539239
0
LINE
8
BLACK
6
CONTINUOUS
10
0.16344
20
0.0539239
11
0.16243
21
0.054102
0
LINE
8
BLACK
6
CONTINUOUS
10
0.16243
20
0.054102
11
0.160883
21
0.0554003
0
LINE
8
BLACK
6
CONTINUOUS
10
0.160883
20
0.0554003
11
0.160532
21
0.0573894
0
LINE
8
BLACK
6
CONTINUOUS
10
0.160532
20
0.0573894
11
0.161542
21
0.0591386
0
LINE
8
BLACK
6
CONTINUOUS
10
0.161542
20
0.0591386
11
0.16344
21
0.0598294
0
LINE
8
BLACK
6
CONTINUOUS
10
0.16344
20
0.0598294
11
0.191562
21
0.0598294
0
LINE
8
BLACK
6
CONTINUOUS
10
0.191562
20
0.0598294
11
0.192431
21
0.0596761
0
LINE
8
BLACK
6
CONTINUOUS
10
1.05056
20
0.083764
11
1.09756
21
0.083764
0
LINE
8
BLACK
6
CONTINUOUS
10
1.09756
20
0.083764
11
1.09756
21
0.0732796
0
LINE
8
BLACK
6
CONTINUOUS
10
1.09756
20
0.0732796
11
1.05056
21
0.0732796
0
LINE
8
BLACK
6
CONTINUOUS
10
1.05056
20
0.0732796
11
1.05056
21
0.0570106
0
LINE
8
BLACK
6
CONTINUOUS
10
1.05056
20
0.0570106
11
1.04008
21
0.0570106
0
LINE
8
BLACK
6
CONTINUOUS
10
1.04008
20
0.0570106
11
1.04008
21
0.100033
0
LINE
8
BLACK
6
CONTINUOUS
10
1.04008
20
0.100033
11
1.05056
21
0.100033
0
LINE
8
BLACK
6
CONTINUOUS
10
1.05056
20
0.100033
11
1.05056
21
0.083764
0
LINE
8
BLACK
6
CONTINUOUS
10
0.175558
20
0.0990462
11
0.175623
21
0.099048
0
LINE
8
BLACK
6
CONTINUOUS
10
0.175623
20
0.099048
11
0.181247
21
0.0971732
0
LINE
8
BLACK
6
CONTINUOUS
10
0.181247
20
0.0971732
11
0.182149
21
0.0966849
0
LINE
8
BLACK
6
CONTINUOUS
10
0.182149
20
0.0966849
11
0.182241
21
0.0965345
0
LINE
8
BLACK
6
CONTINUOUS
10
0.182241
20
0.0965345
11
0.182401
21
0.0964599
0
LINE
8
BLACK
6
CONTINUOUS
10
0.182401
20
0.0964599
11
0.199857
21
0.0790034
0
LINE
8
BLACK
6
CONTINUOUS
10
0.199857
20
0.0790034
11
0.199857
21
0.0962467
0
LINE
8
BLACK
6
CONTINUOUS
10
0.199857
20
0.0962467
11
0.200036
21
0.0972567
0
LINE
8
BLACK
6
CONTINUOUS
10
0.200036
20
0.0972567
11
0.201334
21
0.0988039
0
LINE
8
BLACK
6
CONTINUOUS
10
0.201334
20
0.0988039
11
0.203323
21
0.0991546
0
LINE
8
BLACK
6
CONTINUOUS
10
0.203323
20
0.0991546
11
0.205072
21
0.0981447
0
LINE
8
BLACK
6
CONTINUOUS
10
0.205072
20
0.0981447
11
0.205763
21
0.0962467
0
LINE
8
BLACK
6
CONTINUOUS
10
0.205763
20
0.0962467
11
0.205763
21
0.0718748
0
LINE
8
BLACK
6
CONTINUOUS
10
0.205763
20
0.0718748
11
0.205651
21
0.0712399
0
LINE
8
BLACK
6
CONTINUOUS
10
0.205651
20
0.0712399
11
0.205662
21
0.0711106
0
LINE
8
BLACK
6
CONTINUOUS
10
0.205662
20
0.0711106
11
0.205617
21
0.0710455
0
LINE
8
BLACK
6
CONTINUOUS
10
0.205617
20
0.0710455
11
0.205585
21
0.0708649
0
LINE
8
BLACK
6
CONTINUOUS
10
0.205585
20
0.0708649
11
0.205014
21
0.0701839
0
LINE
8
BLACK
6
CONTINUOUS
10
0.205014
20
0.0701839
11
0.204504
21
0.069456
0
LINE
8
BLACK
6
CONTINUOUS
10
0.204504
20
0.069456
11
0.204373
21
0.0694211
0
LINE
8
BLACK
6
CONTINUOUS
10
0.204373
20
0.0694211
11
0.204287
21
0.0693176
0
LINE
8
BLACK
6
CONTINUOUS
10
0.204287
20
0.0693176
11
0.203411
21
0.0691633
0
LINE
8
BLACK
6
CONTINUOUS
10
0.203411
20
0.0691633
11
0.202553
21
0.0689333
0
LINE
8
BLACK
6
CONTINUOUS
10
0.202553
20
0.0689333
11
0.202431
21
0.0689904
0
LINE
8
BLACK
6
CONTINUOUS
10
0.202431
20
0.0689904
11
0.202297
21
0.0689669
0
LINE
8
BLACK
6
CONTINUOUS
10
0.202297
20
0.0689669
11
0.201528
21
0.0694114
0
LINE
8
BLACK
6
CONTINUOUS
10
0.201528
20
0.0694114
11
0.200722
21
0.0697869
0
LINE
8
BLACK
6
CONTINUOUS
10
0.200722
20
0.0697869
11
0.178718
21
0.0917912
0
LINE
8
BLACK
6
CONTINUOUS
10
0.178718
20
0.0917912
11
0.17421
21
0.093294
0
LINE
8
BLACK
6
CONTINUOUS
10
0.17421
20
0.093294
11
0.171636
21
0.093294
0
LINE
8
BLACK
6
CONTINUOUS
10
0.171636
20
0.093294
11
0.168939
21
0.0919452
0
LINE
8
BLACK
6
CONTINUOUS
10
0.168939
20
0.0919452
11
0.167742
21
0.0907481
0
LINE
8
BLACK
6
CONTINUOUS
10
0.167742
20
0.0907481
11
0.166393
21
0.0880506
0
LINE
8
BLACK
6
CONTINUOUS
10
0.166393
20
0.0880506
11
0.166393
21
0.0800709
0
LINE
8
BLACK
6
CONTINUOUS
10
0.166393
20
0.0800709
11
0.167742
21
0.0773734
0
LINE
8
BLACK
6
CONTINUOUS
10
0.167742
20
0.0773734
11
0.169278
21
0.0758375
0
LINE
8
BLACK
6
CONTINUOUS
10
0.169278
20
0.0758375
11
0.169866
21
0.0749974
0
LINE
8
BLACK
6
CONTINUOUS
10
0.169866
20
0.0749974
11
0.170042
21
0.0729854
0
LINE
8
BLACK
6
CONTINUOUS
10
0.170042
20
0.0729854
11
0.168883
21
0.0713308
0
LINE
8
BLACK
6
CONTINUOUS
10
0.168883
20
0.0713308
11
0.166932
21
0.0708081
0
LINE
8
BLACK
6
CONTINUOUS
10
0.166932
20
0.0708081
11
0.165102
21
0.0716617
0
LINE
8
BLACK
6
CONTINUOUS
10
0.165102
20
0.0716617
11
0.163227
21
0.0735364
0
LINE
8
BLACK
6
CONTINUOUS
10
0.163227
20
0.0735364
11
0.162721
21
0.0742594
0
LINE
8
BLACK
6
CONTINUOUS
10
0.162721
20
0.0742594
11
0.162674
21
0.0743038
0
LINE
8
BLACK
6
CONTINUOUS
10
0.162674
20
0.0743038
11
0.160799
21
0.0780533
0
LINE
8
BLACK
6
CONTINUOUS
10
0.160799
20
0.0780533
11
0.160507
21
0.0790363
0
LINE
8
BLACK
6
CONTINUOUS
10
0.160507
20
0.0790363
11
0.160548
21
0.079208
0
LINE
8
BLACK
6
CONTINUOUS
10
0.160548
20
0.079208
11
0.160487
21
0.0793739
0
LINE
8
BLACK
6
CONTINUOUS
10
0.160487
20
0.0793739
11
0.160487
21
0.0887477
0
LINE
8
BLACK
6
CONTINUOUS
10
0.160487
20
0.0887477
11
0.160665
21
0.0897576
0
LINE
8
BLACK
6
CONTINUOUS
10
0.160665
20
0.0897576
11
0.160779
21
0.0898928
0
LINE
8
BLACK
6
CONTINUOUS
10
0.160779
20
0.0898928
11
0.160799
21
0.0900682
0
LINE
8
BLACK
6
CONTINUOUS
10
0.160799
20
0.0900682
11
0.162674
21
0.0938178
0
LINE
8
BLACK
6
CONTINUOUS
10
0.162674
20
0.0938178
11
0.1632
21
0.0945268
0
LINE
8
BLACK
6
CONTINUOUS
10
0.1632
20
0.0945268
11
0.163227
21
0.0945851
0
LINE
8
BLACK
6
CONTINUOUS
10
0.163227
20
0.0945851
11
0.165102
21
0.0964599
0
LINE
8
BLACK
6
CONTINUOUS
10
0.165102
20
0.0964599
11
0.165825
21
0.0969662
0
LINE
8
BLACK
6
CONTINUOUS
10
0.165825
20
0.0969662
11
0.165869
21
0.097013
0
LINE
8
BLACK
6
CONTINUOUS
10
0.165869
20
0.097013
11
0.169619
21
0.0988878
0
LINE
8
BLACK
6
CONTINUOUS
10
0.169619
20
0.0988878
11
0.170602
21
0.0991801
0
LINE
8
BLACK
6
CONTINUOUS
10
0.170602
20
0.0991801
11
0.170773
21
0.0991391
0
LINE
8
BLACK
6
CONTINUOUS
10
0.170773
20
0.0991391
11
0.170939
21
0.0991995
0
LINE
8
BLACK
6
CONTINUOUS
10
0.170939
20
0.0991995
11
0.174689
21
0.0991995
0
LINE
8
BLACK
6
CONTINUOUS
10
0.174689
20
0.0991995
11
0.175558
21
0.0990462
0
LINE
8
BLACK
6
CONTINUOUS
10
0.670613
20
0.148579
11
0.672775
21
0.146417
0
LINE
8
BLACK
6
CONTINUOUS
10
0.672775
20
0.146417
11
0.673566
21
0.143465
0
LINE
8
BLACK
6
CONTINUOUS
10
0.673566
20
0.143465
11
0.673566
21
0.132497
0
LINE
8
BLACK
6
CONTINUOUS
10
0.673566
20
0.132497
11
0.726715
21
0.132497
0
LINE
8
BLACK
6
CONTINUOUS
10
0.726715
20
0.132497
11
0.729668
21
0.131706
0
LINE
8
BLACK
6
CONTINUOUS
10
0.729668
20
0.131706
11
0.73183
21
0.129544
0
LINE
8
BLACK
6
CONTINUOUS
10
0.73183
20
0.129544
11
0.732621
21
0.126592
0
LINE
8
BLACK
6
CONTINUOUS
10
0.732621
20
0.126592
11
0.73183
21
0.123639
0
LINE
8
BLACK
6
CONTINUOUS
10
0.73183
20
0.123639
11
0.729668
21
0.121477
0
LINE
8
BLACK
6
CONTINUOUS
10
0.729668
20
0.121477
11
0.726715
21
0.120686
0
LINE
8
BLACK
6
CONTINUOUS
10
0.726715
20
0.120686
11
0.673566
21
0.120686
0
LINE
8
BLACK
6
CONTINUOUS
10
0.673566
20
0.120686
11
0.673566
21
0.109719
0
LINE
8
BLACK
6
CONTINUOUS
10
0.673566
20
0.109719
11
0.672775
21
0.106766
0
LINE
8
BLACK
6
CONTINUOUS
10
0.672775
20
0.106766
11
0.670613
21
0.104604
0
LINE
8
BLACK
6
CONTINUOUS
10
0.670613
20
0.104604
11
0.66766
21
0.103813
0
LINE
8
BLACK
6
CONTINUOUS
10
0.66766
20
0.103813
11
0.664708
21
0.104604
0
LINE
8
BLACK
6
CONTINUOUS
10
0.664708
20
0.104604
11
0.662546
21
0.106766
0
LINE
8
BLACK
6
CONTINUOUS
10
0.662546
20
0.106766
11
0.661755
21
0.109719
0
LINE
8
BLACK
6
CONTINUOUS
10
0.661755
20
0.109719
11
0.661755
21
0.143465
0
LINE
8
BLACK
6
CONTINUOUS
10
0.661755
20
0.143465
11
0.662546
21
0.146417
0
LINE
8
BLACK
6
CONTINUOUS
10
0.662546
20
0.146417
11
0.664708
21
0.148579
0
LINE
8
BLACK
6
CONTINUOUS
10
0.664708
20
0.148579
11
0.66766
21
0.14937
0
LINE
8
BLACK
6
CONTINUOUS
10
0.66766
20
0.14937
11
0.670613
21
0.148579
0
LINE
8
BLACK
6
CONTINUOUS
10
1.09756
20
0.142332
11
1.07298
21
0.142332
0
LINE
8
BLACK
6
CONTINUOUS
10
1.07298
20
0.142332
11
1.07298
21
0.116302
0
LINE
8
BLACK
6
CONTINUOUS
10
1.07298
20
0.116302
11
1.09756
21
0.116302
0
LINE
8
BLACK
6
CONTINUOUS
10
1.09756
20
0.116302
11
1.09756
21
0.105818
0
LINE
8
BLACK
6
CONTINUOUS
10
1.09756
20
0.105818
11
1.04008
21
0.105818
0
LINE
8
BLACK
6
CONTINUOUS
10
1.04008
20
0.105818
11
1.04008
21
0.116302
0
LINE
8
BLACK
6
CONTINUOUS
10
1.04008
20
0.116302
11
1.06285
21
0.116302
0
LINE
8
BLACK
6
CONTINUOUS
10
1.06285
20
0.116302
11
1.06285
21
0.142322
0
LINE
8
BLACK
6
CONTINUOUS
10
1.06285
20
0.142322
11
1.05156
21
0.142418
0
LINE
8
BLACK
6
CONTINUOUS
10
1.05156
20
0.142418
11
1.04026
21
0.142513
0
LINE
8
BLACK
6
CONTINUOUS
10
1.04026
20
0.142513
11
1.04016
21
0.147846
0
LINE
8
BLACK
6
CONTINUOUS
10
1.04016
20
0.147846
11
1.04006
21
0.153178
0
LINE
8
BLACK
6
CONTINUOUS
10
1.04006
20
0.153178
11
1.09756
21
0.153178
0
LINE
8
BLACK
6
CONTINUOUS
10
1.09756
20
0.153178
11
1.09756
21
0.142332
0
LINE
8
BLACK
6
CONTINUOUS
10
0.118802
20
0.126873
11
0.11811
21
0.128543
0
LINE
8
BLACK
6
CONTINUOUS
10
0.11811
20
0.128543
11
0.118802
21
0.130214
0
LINE
8
BLACK
6
CONTINUOUS
10
0.118802
20
0.130214
11
0.120472
21
0.130906
0
LINE
8
BLACK
6
CONTINUOUS
10
0.120472
20
0.130906
11
0.175197
21
0.130906
0
LINE
8
BLACK
6
CONTINUOUS
10
0.175197
20
0.130906
11
0.175197
21
0.199409
0
LINE
8
BLACK
6
CONTINUOUS
10
0.175197
20
0.199409
11
0.175889
21
0.20108
0
LINE
8
BLACK
6
CONTINUOUS
10
0.175889
20
0.20108
11
0.177559
21
0.201772
0
LINE
8
BLACK
6
CONTINUOUS
10
0.177559
20
0.201772
11
0.179229
21
0.20108
0
LINE
8
BLACK
6
CONTINUOUS
10
0.179229
20
0.20108
11
0.179921
21
0.199409
0
LINE
8
BLACK
6
CONTINUOUS
10
0.179921
20
0.199409
11
0.179921
21
0.128543
0
LINE
8
BLACK
6
CONTINUOUS
10
0.179921
20
0.128543
11
0.179229
21
0.126873
0
LINE
8
BLACK
6
CONTINUOUS
10
0.179229
20
0.126873
11
0.177559
21
0.126181
0
LINE
8
BLACK
6
CONTINUOUS
10
0.177559
20
0.126181
11
0.120472
21
0.126181
0
LINE
8
BLACK
6
CONTINUOUS
10
0.120472
20
0.126181
11
0.118802
21
0.126873
0
LINE
8
BLACK
6
CONTINUOUS
10
0.381466
20
0.220454
11
0.383627
21
0.218292
0
LINE
8
BLACK
6
CONTINUOUS
10
0.383627
20
0.218292
11
0.384418
21
0.21534
0
LINE
8
BLACK
6
CONTINUOUS
10
0.384418
20
0.21534
11
0.383627
21
0.212387
0
LINE
8
BLACK
6
CONTINUOUS
10
0.383627
20
0.212387
11
0.381466
21
0.210225
0
LINE
8
BLACK
6
CONTINUOUS
10
0.381466
20
0.210225
11
0.378513
21
0.209434
0
LINE
8
BLACK
6
CONTINUOUS
10
0.378513
20
0.209434
11
0.356297
21
0.209434
0
LINE
8
BLACK
6
CONTINUOUS
10
0.356297
20
0.209434
11
0.356297
21
0.193124
0
LINE
8
BLACK
6
CONTINUOUS
10
0.356297
20
0.193124
11
0.370076
21
0.193124
0
LINE
8
BLACK
6
CONTINUOUS
10
0.370076
20
0.193124
11
0.373029
21
0.192333
0
LINE
8
BLACK
6
CONTINUOUS
10
0.373029
20
0.192333
11
0.375191
21
0.190171
0
LINE
8
BLACK
6
CONTINUOUS
10
0.375191
20
0.190171
11
0.375982
21
0.187218
0
LINE
8
BLACK
6
CONTINUOUS
10
0.375982
20
0.187218
11
0.375191
21
0.184265
0
LINE
8
BLACK
6
CONTINUOUS
10
0.375191
20
0.184265
11
0.373029
21
0.182104
0
LINE
8
BLACK
6
CONTINUOUS
10
0.373029
20
0.182104
11
0.370076
21
0.181313
0
LINE
8
BLACK
6
CONTINUOUS
10
0.370076
20
0.181313
11
0.356297
21
0.181313
0
LINE
8
BLACK
6
CONTINUOUS
10
0.356297
20
0.181313
11
0.356297
21
0.16219
0
LINE
8
BLACK
6
CONTINUOUS
10
0.356297
20
0.16219
11
0.378513
21
0.16219
0
LINE
8
BLACK
6
CONTINUOUS
10
0.378513
20
0.16219
11
0.381466
21
0.161399
0
LINE
8
BLACK
6
CONTINUOUS
10
0.381466
20
0.161399
11
0.383627
21
0.159237
0
LINE
8
BLACK
6
CONTINUOUS
10
0.383627
20
0.159237
11
0.384418
21
0.156285
0
LINE
8
BLACK
6
CONTINUOUS
10
0.384418
20
0.156285
11
0.383627
21
0.153332
0
LINE
8
BLACK
6
CONTINUOUS
10
0.383627
20
0.153332
11
0.381466
21
0.15117
0
LINE
8
BLACK
6
CONTINUOUS
10
0.381466
20
0.15117
11
0.378513
21
0.150379
0
LINE
8
BLACK
6
CONTINUOUS
10
0.378513
20
0.150379
11
0.350391
21
0.150379
0
LINE
8
BLACK
6
CONTINUOUS
10
0.350391
20
0.150379
11
0.347439
21
0.15117
0
LINE
8
BLACK
6
CONTINUOUS
10
0.347439
20
0.15117
11
0.345277
21
0.153332
0
LINE
8
BLACK
6
CONTINUOUS
10
0.345277
20
0.153332
11
0.344486
21
0.156285
0
LINE
8
BLACK
6
CONTINUOUS
10
0.344486
20
0.156285
11
0.344486
21
0.21534
0
LINE
8
BLACK
6
CONTINUOUS
10
0.344486
20
0.21534
11
0.345277
21
0.218292
0
LINE
8
BLACK
6
CONTINUOUS
10
0.345277
20
0.218292
11
0.347439
21
0.220454
0
LINE
8
BLACK
6
CONTINUOUS
10
0.347439
20
0.220454
11
0.350391
21
0.221245
0
LINE
8
BLACK
6
CONTINUOUS
10
0.350391
20
0.221245
11
0.378513
21
0.221245
0
LINE
8
BLACK
6
CONTINUOUS
10
0.378513
20
0.221245
11
0.381466
21
0.220454
0
LINE
8
BLACK
6
CONTINUOUS
10
0.427631
20
0.220894
11
0.42896
21
0.220622
0
LINE
8
BLACK
6
CONTINUOUS
10
0.42896
20
0.220622
11
0.434585
21
0.21781
0
LINE
8
BLACK
6
CONTINUOUS
10
0.434585
20
0.21781
11
0.435296
21
0.217179
0
LINE
8
BLACK
6
CONTINUOUS
10
0.435296
20
0.217179
11
0.43612
21
0.216703
0
LINE
8
BLACK
6
CONTINUOUS
10
0.43612
20
0.216703
11
0.438932
21
0.213891
0
LINE
8
BLACK
6
CONTINUOUS
10
0.438932
20
0.213891
11
0.439407
21
0.213068
0
LINE
8
BLACK
6
CONTINUOUS
10
0.439407
20
0.213068
11
0.440038
21
0.212356
0
LINE
8
BLACK
6
CONTINUOUS
10
0.440038
20
0.212356
11
0.44285
21
0.206732
0
LINE
8
BLACK
6
CONTINUOUS
10
0.44285
20
0.206732
11
0.443122
21
0.205402
0
LINE
8
BLACK
6
CONTINUOUS
10
0.443122
20
0.205402
11
0.443474
21
0.204091
0
LINE
8
BLACK
6
CONTINUOUS
10
0.443474
20
0.204091
11
0.443474
21
0.195655
0
LINE
8
BLACK
6
CONTINUOUS
10
0.443474
20
0.195655
11
0.443122
21
0.194343
0
LINE
8
BLACK
6
CONTINUOUS
10
0.443122
20
0.194343
11
0.44285
21
0.193014
0
LINE
8
BLACK
6
CONTINUOUS
10
0.44285
20
0.193014
11
0.440038
21
0.187389
0
LINE
8
BLACK
6
CONTINUOUS
10
0.440038
20
0.187389
11
0.439407
21
0.186678
0
LINE
8
BLACK
6
CONTINUOUS
10
0.439407
20
0.186678
11
0.438932
21
0.185855
0
LINE
8
BLACK
6
CONTINUOUS
10
0.438932
20
0.185855
11
0.43612
21
0.183042
0
LINE
8
BLACK
6
CONTINUOUS
10
0.43612
20
0.183042
11
0.435296
21
0.182567
0
LINE
8
BLACK
6
CONTINUOUS
10
0.435296
20
0.182567
11
0.434585
21
0.181936
0
LINE
8
BLACK
6
CONTINUOUS
10
0.434585
20
0.181936
11
0.42896
21
0.179124
0
LINE
8
BLACK
6
CONTINUOUS
10
0.42896
20
0.179124
11
0.428811
21
0.179093
0
LINE
8
BLACK
6
CONTINUOUS
10
0.428811
20
0.179093
11
0.442406
21
0.159671
0
LINE
8
BLACK
6
CONTINUOUS
10
0.442406
20
0.159671
11
0.443451
21
0.156799
0
LINE
8
BLACK
6
CONTINUOUS
10
0.443451
20
0.156799
11
0.44292
21
0.153788
0
LINE
8
BLACK
6
CONTINUOUS
10
0.44292
20
0.153788
11
0.440955
21
0.151447
0
LINE
8
BLACK
6
CONTINUOUS
10
0.440955
20
0.151447
11
0.438082
21
0.150401
0
LINE
8
BLACK
6
CONTINUOUS
10
0.438082
20
0.150401
11
0.435071
21
0.150933
0
LINE
8
BLACK
6
CONTINUOUS
10
0.435071
20
0.150933
11
0.43273
21
0.152898
0
LINE
8
BLACK
6
CONTINUOUS
10
0.43273
20
0.152898
11
0.414808
21
0.178501
0
LINE
8
BLACK
6
CONTINUOUS
10
0.414808
20
0.178501
11
0.409728
21
0.178501
0
LINE
8
BLACK
6
CONTINUOUS
10
0.409728
20
0.178501
11
0.409728
21
0.156285
0
LINE
8
BLACK
6
CONTINUOUS
10
0.409728
20
0.156285
11
0.408937
21
0.153332
0
LINE
8
BLACK
6
CONTINUOUS
10
0.408937
20
0.153332
11
0.406775
21
0.15117
0
LINE
8
BLACK
6
CONTINUOUS
10
0.406775
20
0.15117
11
0.403822
21
0.150379
0
LINE
8
BLACK
6
CONTINUOUS
10
0.403822
20
0.150379
11
0.400869
21
0.15117
0
LINE
8
BLACK
6
CONTINUOUS
10
0.400869
20
0.15117
11
0.398708
21
0.153332
0
LINE
8
BLACK
6
CONTINUOUS
10
0.398708
20
0.153332
11
0.397917
21
0.156285
0
LINE
8
BLACK
6
CONTINUOUS
10
0.397917
20
0.156285
11
0.397917
21
0.21534
0
LINE
8
BLACK
6
CONTINUOUS
10
0.397917
20
0.21534
11
0.398708
21
0.218292
0
LINE
8
BLACK
6
CONTINUOUS
10
0.398708
20
0.218292
11
0.400869
21
0.220454
0
LINE
8
BLACK
6
CONTINUOUS
10
0.400869
20
0.220454
11
0.403822
21
0.221245
0
LINE
8
BLACK
6
CONTINUOUS
10
0.403822
20
0.221245
11
0.426319
21
0.221245
0
LINE
8
BLACK
6
CONTINUOUS
10
0.426319
20
0.221245
11
0.427631
21
0.220894
0
LINE
8
BLACK
6
CONTINUOUS
10
0.409728
20
0.209434
11
0.409728
21
0.190312
0
LINE
8
BLACK
6
CONTINUOUS
10
0.409728
20
0.190312
11
0.424925
21
0.190312
0
LINE
8
BLACK
6
CONTINUOUS
10
0.424925
20
0.190312
11
0.428446
21
0.192072
0
LINE
8
BLACK
6
CONTINUOUS
10
0.428446
20
0.192072
11
0.429902
21
0.193529
0
LINE
8
BLACK
6
CONTINUOUS
10
0.429902
20
0.193529
11
0.431663
21
0.197049
0
LINE
8
BLACK
6
CONTINUOUS
10
0.431663
20
0.197049
11
0.431663
21
0.202697
0
LINE
8
BLACK
6
CONTINUOUS
10
0.431663
20
0.202697
11
0.429902
21
0.206217
0
LINE
8
BLACK
6
CONTINUOUS
10
0.429902
20
0.206217
11
0.428446
21
0.207674
0
LINE
8
BLACK
6
CONTINUOUS
10
0.428446
20
0.207674
11
0.424925
21
0.209434
0
LINE
8
BLACK
6
CONTINUOUS
10
0.424925
20
0.209434
11
0.409728
21
0.209434
0
LINE
8
BLACK
6
CONTINUOUS
10
0.305538
20
0.220454
11
0.307699
21
0.218292
0
LINE
8
BLACK
6
CONTINUOUS
10
0.307699
20
0.218292
11
0.30849
21
0.21534
0
LINE
8
BLACK
6
CONTINUOUS
10
0.30849
20
0.21534
11
0.30849
21
0.16219
0
LINE
8
BLACK
6
CONTINUOUS
10
0.30849
20
0.16219
11
0.330706
21
0.16219
0
LINE
8
BLACK
6
CONTINUOUS
10
0.330706
20
0.16219
11
0.333659
21
0.161399
0
LINE
8
BLACK
6
CONTINUOUS
10
0.333659
20
0.161399
11
0.335821
21
0.159237
0
LINE
8
BLACK
6
CONTINUOUS
10
0.335821
20
0.159237
11
0.336612
21
0.156285
0
LINE
8
BLACK
6
CONTINUOUS
10
0.336612
20
0.156285
11
0.335821
21
0.153332
0
LINE
8
BLACK
6
CONTINUOUS
10
0.335821
20
0.153332
11
0.333659
21
0.15117
0
LINE
8
BLACK
6
CONTINUOUS
10
0.333659
20
0.15117
11
0.330706
21
0.150379
0
LINE
8
BLACK
6
CONTINUOUS
10
0.330706
20
0.150379
11
0.302585
21
0.150379
0
LINE
8
BLACK
6
CONTINUOUS
10
0.302585
20
0.150379
11
0.299632
21
0.15117
0
LINE
8
BLACK
6
CONTINUOUS
10
0.299632
20
0.15117
11
0.297471
21
0.153332
0
LINE
8
BLACK
6
CONTINUOUS
10
0.297471
20
0.153332
11
0.296679
21
0.156285
0
LINE
8
BLACK
6
CONTINUOUS
10
0.296679
20
0.156285
11
0.296679
21
0.21534
0
LINE
8
BLACK
6
CONTINUOUS
10
0.296679
20
0.21534
11
0.297471
21
0.218292
0
LINE
8
BLACK
6
CONTINUOUS
10
0.297471
20
0.218292
11
0.299632
21
0.220454
0
LINE
8
BLACK
6
CONTINUOUS
10
0.299632
20
0.220454
11
0.302585
21
0.221245
0
LINE
8
BLACK
6
CONTINUOUS
10
0.302585
20
0.221245
11
0.305538
21
0.220454
0
LINE
8
BLACK
6
CONTINUOUS
10
0.491139
20
0.220454
11
0.493301
21
0.218292
0
LINE
8
BLACK
6
CONTINUOUS
10
0.493301
20
0.218292
11
0.494092
21
0.21534
0
LINE
8
BLACK
6
CONTINUOUS
10
0.494092
20
0.21534
11
0.493301
21
0.212387
0
LINE
8
BLACK
6
CONTINUOUS
10
0.493301
20
0.212387
11
0.491139
21
0.210225
0
LINE
8
BLACK
6
CONTINUOUS
10
0.491139
20
0.210225
11
0.488187
21
0.209434
0
LINE
8
BLACK
6
CONTINUOUS
10
0.488187
20
0.209434
11
0.477219
21
0.209434
0
LINE
8
BLACK
6
CONTINUOUS
10
0.477219
20
0.209434
11
0.477219
21
0.156285
0
LINE
8
BLACK
6
CONTINUOUS
10
0.477219
20
0.156285
11
0.476428
21
0.153332
0
LINE
8
BLACK
6
CONTINUOUS
10
0.476428
20
0.153332
11
0.474267
21
0.15117
0
LINE
8
BLACK
6
CONTINUOUS
10
0.474267
20
0.15117
11
0.471314
21
0.150379
0
LINE
8
BLACK
6
CONTINUOUS
10
0.471314
20
0.150379
11
0.468361
21
0.15117
0
LINE
8
BLACK
6
CONTINUOUS
10
0.468361
20
0.15117
11
0.466199
21
0.153332
0
LINE
8
BLACK
6
CONTINUOUS
10
0.466199
20
0.153332
11
0.465408
21
0.156285
0
LINE
8
BLACK
6
CONTINUOUS
10
0.465408
20
0.156285
11
0.465408
21
0.209434
0
LINE
8
BLACK
6
CONTINUOUS
10
0.465408
20
0.209434
11
0.454441
21
0.209434
0
LINE
8
BLACK
6
CONTINUOUS
10
0.454441
20
0.209434
11
0.451488
21
0.210225
0
LINE
8
BLACK
6
CONTINUOUS
10
0.451488
20
0.210225
11
0.449327
21
0.212387
0
LINE
8
BLACK
6
CONTINUOUS
10
0.449327
20
0.212387
11
0.448535
21
0.21534
0
LINE
8
BLACK
6
CONTINUOUS
10
0.448535
20
0.21534
11
0.449327
21
0.218292
0
LINE
8
BLACK
6
CONTINUOUS
10
0.449327
20
0.218292
11
0.451488
21
0.220454
0
LINE
8
BLACK
6
CONTINUOUS
10
0.451488
20
0.220454
11
0.454441
21
0.221245
0
LINE
8
BLACK
6
CONTINUOUS
10
0.454441
20
0.221245
11
0.488187
21
0.221245
0
LINE
8
BLACK
6
CONTINUOUS
10
0.488187
20
0.221245
11
0.491139
21
0.220454
0
LINE
8
BLACK
6
CONTINUOUS
10
0.264722
20
0.220964
11
0.265082
21
0.220942
0
LINE
8
BLACK
6
CONTINUOUS
10
0.265082
20
0.220942
11
0.266072
21
0.220289
0
LINE
8
BLACK
6
CONTINUOUS
10
0.266072
20
0.220289
11
0.267133
21
0.219758
0
LINE
8
BLACK
6
CONTINUOUS
10
0.267133
20
0.219758
11
0.267332
21
0.219457
0
LINE
8
BLACK
6
CONTINUOUS
10
0.267332
20
0.219457
11
0.267633
21
0.219258
0
LINE
8
BLACK
6
CONTINUOUS
10
0.267633
20
0.219258
11
0.268164
21
0.218197
0
LINE
8
BLACK
6
CONTINUOUS
10
0.268164
20
0.218197
11
0.268817
21
0.217207
0
LINE
8
BLACK
6
CONTINUOUS
10
0.268817
20
0.217207
11
0.288502
21
0.158152
0
LINE
8
BLACK
6
CONTINUOUS
10
0.288502
20
0.158152
11
0.288686
21
0.155101
0
LINE
8
BLACK
6
CONTINUOUS
10
0.288686
20
0.155101
11
0.287318
21
0.152366
0
LINE
8
BLACK
6
CONTINUOUS
10
0.287318
20
0.152366
11
0.284767
21
0.150682
0
LINE
8
BLACK
6
CONTINUOUS
10
0.284767
20
0.150682
11
0.281716
21
0.150499
0
LINE
8
BLACK
6
CONTINUOUS
10
0.281716
20
0.150499
11
0.278982
21
0.151866
0
LINE
8
BLACK
6
CONTINUOUS
10
0.278982
20
0.151866
11
0.277297
21
0.154417
0
LINE
8
BLACK
6
CONTINUOUS
10
0.277297
20
0.154417
11
0.273019
21
0.167252
0
LINE
8
BLACK
6
CONTINUOUS
10
0.273019
20
0.167252
11
0.253411
21
0.167252
0
LINE
8
BLACK
6
CONTINUOUS
10
0.253411
20
0.167252
11
0.249132
21
0.154417
0
LINE
8
BLACK
6
CONTINUOUS
10
0.249132
20
0.154417
11
0.247448
21
0.151866
0
LINE
8
BLACK
6
CONTINUOUS
10
0.247448
20
0.151866
11
0.244714
21
0.150499
0
LINE
8
BLACK
6
CONTINUOUS
10
0.244714
20
0.150499
11
0.241662
21
0.150682
0
LINE
8
BLACK
6
CONTINUOUS
10
0.241662
20
0.150682
11
0.239111
21
0.152366
0
LINE
8
BLACK
6
CONTINUOUS
10
0.239111
20
0.152366
11
0.237744
21
0.155101
0
LINE
8
BLACK
6
CONTINUOUS
10
0.237744
20
0.155101
11
0.237927
21
0.158152
0
LINE
8
BLACK
6
CONTINUOUS
10
0.237927
20
0.158152
11
0.257612
21
0.217207
0
LINE
8
BLACK
6
CONTINUOUS
10
0.257612
20
0.217207
11
0.258266
21
0.218197
0
LINE
8
BLACK
6
CONTINUOUS
10
0.258266
20
0.218197
11
0.258796
21
0.219258
0
LINE
8
BLACK
6
CONTINUOUS
10
0.258796
20
0.219258
11
0.259098
21
0.219457
0
LINE
8
BLACK
6
CONTINUOUS
10
0.259098
20
0.219457
11
0.259297
21
0.219758
0
LINE
8
BLACK
6
CONTINUOUS
10
0.259297
20
0.219758
11
0.260358
21
0.220289
0
LINE
8
BLACK
6
CONTINUOUS
10
0.260358
20
0.220289
11
0.261347
21
0.220942
0
LINE
8
BLACK
6
CONTINUOUS
10
0.261347
20
0.220942
11
0.261708
21
0.220964
0
LINE
8
BLACK
6
CONTINUOUS
10
0.261708
20
0.220964
11
0.262031
21
0.221125
0
LINE
8
BLACK
6
CONTINUOUS
10
0.262031
20
0.221125
11
0.263215
21
0.221054
0
LINE
8
BLACK
6
CONTINUOUS
10
0.263215
20
0.221054
11
0.264399
21
0.221125
0
LINE
8
BLACK
6
CONTINUOUS
10
0.264399
20
0.221125
11
0.264722
21
0.220964
0
LINE
8
BLACK
6
CONTINUOUS
10
0.257348
20
0.179063
11
0.269082
21
0.179063
0
LINE
8
BLACK
6
CONTINUOUS
10
0.269082
20
0.179063
11
0.263215
21
0.196665
0
LINE
8
BLACK
6
CONTINUOUS
10
0.263215
20
0.196665
11
0.257348
21
0.179063
0
LINE
8
BLACK
6
CONTINUOUS
10
0.664708
20
0.158035
11
0.662546
21
0.160197
0
LINE
8
BLACK
6
CONTINUOUS
10
0.662546
20
0.160197
11
0.661755
21
0.16315
0
LINE
8
BLACK
6
CONTINUOUS
10
0.661755
20
0.16315
11
0.661755
21
0.191271
0
LINE
8
BLACK
6
CONTINUOUS
10
0.661755
20
0.191271
11
0.662546
21
0.194224
0
LINE
8
BLACK
6
CONTINUOUS
10
0.662546
20
0.194224
11
0.664708
21
0.196385
0
LINE
8
BLACK
6
CONTINUOUS
10
0.664708
20
0.196385
11
0.66766
21
0.197177
0
LINE
8
BLACK
6
CONTINUOUS
10
0.66766
20
0.197177
11
0.670613
21
0.196385
0
LINE
8
BLACK
6
CONTINUOUS
10
0.670613
20
0.196385
11
0.672775
21
0.194224
0
LINE
8
BLACK
6
CONTINUOUS
10
0.672775
20
0.194224
11
0.673566
21
0.191271
0
LINE
8
BLACK
6
CONTINUOUS
10
0.673566
20
0.191271
11
0.673566
21
0.169055
0
LINE
8
BLACK
6
CONTINUOUS
10
0.673566
20
0.169055
11
0.689876
21
0.169055
0
LINE
8
BLACK
6
CONTINUOUS
10
0.689876
20
0.169055
11
0.689876
21
0.182835
0
LINE
8
BLACK
6
CONTINUOUS
10
0.689876
20
0.182835
11
0.690667
21
0.185787
0
LINE
8
BLACK
6
CONTINUOUS
10
0.690667
20
0.185787
11
0.692829
21
0.187949
0
LINE
8
BLACK
6
CONTINUOUS
10
0.692829
20
0.187949
11
0.695782
21
0.18874
0
LINE
8
BLACK
6
CONTINUOUS
10
0.695782
20
0.18874
11
0.698735
21
0.187949
0
LINE
8
BLACK
6
CONTINUOUS
10
0.698735
20
0.187949
11
0.700896
21
0.185787
0
LINE
8
BLACK
6
CONTINUOUS
10
0.700896
20
0.185787
11
0.701687
21
0.182835
0
LINE
8
BLACK
6
CONTINUOUS
10
0.701687
20
0.182835
11
0.701687
21
0.169055
0
LINE
8
BLACK
6
CONTINUOUS
10
0.701687
20
0.169055
11
0.726715
21
0.169055
0
LINE
8
BLACK
6
CONTINUOUS
10
0.726715
20
0.169055
11
0.729668
21
0.168264
0
LINE
8
BLACK
6
CONTINUOUS
10
0.729668
20
0.168264
11
0.73183
21
0.166102
0
LINE
8
BLACK
6
CONTINUOUS
10
0.73183
20
0.166102
11
0.732621
21
0.16315
0
LINE
8
BLACK
6
CONTINUOUS
10
0.732621
20
0.16315
11
0.73183
21
0.160197
0
LINE
8
BLACK
6
CONTINUOUS
10
0.73183
20
0.160197
11
0.729668
21
0.158035
0
LINE
8
BLACK
6
CONTINUOUS
10
0.729668
20
0.158035
11
0.726715
21
0.157244
0
LINE
8
BLACK
6
CONTINUOUS
10
0.726715
20
0.157244
11
0.66766
21
0.157244
0
LINE
8
BLACK
6
CONTINUOUS
10
0.66766
20
0.157244
11
0.664708
21
0.158035
0
LINE
8
BLACK
6
CONTINUOUS
10
1.06005
20
0.211297
11
1.06436
21
0.211269
0
LINE
8
BLACK
6
CONTINUOUS
10
1.06436
20
0.211269
11
1.06802
21
0.211242
0
LINE
8
BLACK
6
CONTINUOUS
10
1.06802
20
0.211242
11
1.07107
21
0.211214
0
LINE
8
BLACK
6
CONTINUOUS
10
1.07107
20
0.211214
11
1.0736
21
0.211182
0
LINE
8
BLACK
6
CONTINUOUS
10
1.0736
20
0.211182
11
1.07566
21
0.211143
0
LINE
8
BLACK
6
CONTINUOUS
10
1.07566
20
0.211143
11
1.07732
21
0.211094
0
LINE
8
BLACK
6
CONTINUOUS
10
1.07732
20
0.211094
11
1.07864
21
0.211033
0
LINE
8
BLACK
6
CONTINUOUS
10
1.07864
20
0.211033
11
1.07968
21
0.210958
0
LINE
8
BLACK
6
CONTINUOUS
10
1.07968
20
0.210958
11
1.08051
21
0.210865
0
LINE
8
BLACK
6
CONTINUOUS
10
1.08051
20
0.210865
11
1.08119
21
0.210752
0
LINE
8
BLACK
6
CONTINUOUS
10
1.08119
20
0.210752
11
1.0818
21
0.210616
0
LINE
8
BLACK
6
CONTINUOUS
10
1.0818
20
0.210616
11
1.08238
21
0.210455
0
LINE
8
BLACK
6
CONTINUOUS
10
1.08238
20
0.210455
11
1.08273
21
0.210349
0
LINE
8
BLACK
6
CONTINUOUS
10
1.08273
20
0.210349
11
1.08667
21
0.208837
0
LINE
8
BLACK
6
CONTINUOUS
10
1.08667
20
0.208837
11
1.09009
21
0.206855
0
LINE
8
BLACK
6
CONTINUOUS
10
1.09009
20
0.206855
11
1.09297
21
0.204427
0
LINE
8
BLACK
6
CONTINUOUS
10
1.09297
20
0.204427
11
1.09529
21
0.201572
0
LINE
8
BLACK
6
CONTINUOUS
10
1.09529
20
0.201572
11
1.09703
21
0.198312
0
LINE
8
BLACK
6
CONTINUOUS
10
1.09703
20
0.198312
11
1.09776
21
0.196248
0
LINE
8
BLACK
6
CONTINUOUS
10
1.09776
20
0.196248
11
1.09808
21
0.194867
0
LINE
8
BLACK
6
CONTINUOUS
10
1.09808
20
0.194867
11
1.0984
21
0.193058
0
LINE
8
BLACK
6
CONTINUOUS
10
1.0984
20
0.193058
11
1.09867
21
0.191079
0
LINE
8
BLACK
6
CONTINUOUS
10
1.09867
20
0.191079
11
1.09887
21
0.189186
0
LINE
8
BLACK
6
CONTINUOUS
10
1.09887
20
0.189186
11
1.09896
21
0.187638
0
LINE
8
BLACK
6
CONTINUOUS
10
1.09896
20
0.187638
11
1.09896
21
0.187172
0
LINE
8
BLACK
6
CONTINUOUS
10
1.09896
20
0.187172
11
1.09889
21
0.186141
0
LINE
8
BLACK
6
CONTINUOUS
10
1.09889
20
0.186141
11
1.09876
21
0.184721
0
LINE
8
BLACK
6
CONTINUOUS
10
1.09876
20
0.184721
11
1.09862
21
0.183388
0
LINE
8
BLACK
6
CONTINUOUS
10
1.09862
20
0.183388
11
1.09784
21
0.179439
0
LINE
8
BLACK
6
CONTINUOUS
10
1.09784
20
0.179439
11
1.09646
21
0.175854
0
LINE
8
BLACK
6
CONTINUOUS
10
1.09646
20
0.175854
11
1.09453
21
0.172676
0
LINE
8
BLACK
6
CONTINUOUS
10
1.09453
20
0.172676
11
1.09205
21
0.169947
0
LINE
8
BLACK
6
CONTINUOUS
10
1.09205
20
0.169947
11
1.08908
21
0.167711
0
LINE
8
BLACK
6
CONTINUOUS
10
1.08908
20
0.167711
11
1.08733
21
0.166753
0
LINE
8
BLACK
6
CONTINUOUS
10
1.08733
20
0.166753
11
1.08594
21
0.166111
0
LINE
8
BLACK
6
CONTINUOUS
10
1.08594
20
0.166111
11
1.08456
21
0.165561
0
LINE
8
BLACK
6
CONTINUOUS
10
1.08456
20
0.165561
11
1.08311
21
0.165098
0
LINE
8
BLACK
6
CONTINUOUS
10
1.08311
20
0.165098
11
1.08154
21
0.164714
0
LINE
8
BLACK
6
CONTINUOUS
10
1.08154
20
0.164714
11
1.07978
21
0.164403
0
LINE
8
BLACK
6
CONTINUOUS
10
1.07978
20
0.164403
11
1.07776
21
0.164159
0
LINE
8
BLACK
6
CONTINUOUS
10
1.07776
20
0.164159
11
1.07541
21
0.163976
0
LINE
8
BLACK
6
CONTINUOUS
10
1.07541
20
0.163976
11
1.07267
21
0.163846
0
LINE
8
BLACK
6
CONTINUOUS
10
1.07267
20
0.163846
11
1.06948
21
0.163764
0
LINE
8
BLACK
6
CONTINUOUS
10
1.06948
20
0.163764
11
1.06576
21
0.163723
0
LINE
8
BLACK
6
CONTINUOUS
10
1.06576
20
0.163723
11
1.06145
21
0.163717
0
LINE
8
BLACK
6
CONTINUOUS
10
1.06145
20
0.163717
11
1.05649
21
0.163739
0
LINE
8
BLACK
6
CONTINUOUS
10
1.05649
20
0.163739
11
1.05635
21
0.163739
0
LINE
8
BLACK
6
CONTINUOUS
10
1.05635
20
0.163739
11
1.04026
21
0.163844
0
LINE
8
BLACK
6
CONTINUOUS
10
1.04026
20
0.163844
11
1.04016
21
0.169176
0
LINE
8
BLACK
6
CONTINUOUS
10
1.04016
20
0.169176
11
1.04006
21
0.174509
0
LINE
8
BLACK
6
CONTINUOUS
10
1.04006
20
0.174509
11
1.05703
21
0.174509
0
LINE
8
BLACK
6
CONTINUOUS
10
1.05703
20
0.174509
11
1.06111
21
0.174518
0
LINE
8
BLACK
6
CONTINUOUS
10
1.06111
20
0.174518
11
1.06487
21
0.174543
0
LINE
8
BLACK
6
CONTINUOUS
10
1.06487
20
0.174543
11
1.06825
21
0.174584
0
LINE
8
BLACK
6
CONTINUOUS
10
1.06825
20
0.174584
11
1.07118
21
0.174639
0
LINE
8
BLACK
6
CONTINUOUS
10
1.07118
20
0.174639
11
1.0736
21
0.174707
0
LINE
8
BLACK
6
CONTINUOUS
10
1.0736
20
0.174707
11
1.07544
21
0.174787
0
LINE
8
BLACK
6
CONTINUOUS
10
1.07544
20
0.174787
11
1.07664
21
0.174877
0
LINE
8
BLACK
6
CONTINUOUS
10
1.07664
20
0.174877
11
1.07681
21
0.174898
0
LINE
8
BLACK
6
CONTINUOUS
10
1.07681
20
0.174898
11
1.08014
21
0.175573
0
LINE
8
BLACK
6
CONTINUOUS
10
1.08014
20
0.175573
11
1.08286
21
0.176606
0
LINE
8
BLACK
6
CONTINUOUS
10
1.08286
20
0.176606
11
1.085
21
0.178034
0
LINE
8
BLACK
6
CONTINUOUS
10
1.085
20
0.178034
11
1.08659
21
0.179892
0
LINE
8
BLACK
6
CONTINUOUS
10
1.08659
20
0.179892
11
1.08768
21
0.182214
0
LINE
8
BLACK
6
CONTINUOUS
10
1.08768
20
0.182214
11
1.0883
21
0.185038
0
LINE
8
BLACK
6
CONTINUOUS
10
1.0883
20
0.185038
11
1.08845
21
0.186842
0
LINE
8
BLACK
6
CONTINUOUS
10
1.08845
20
0.186842
11
1.08838
21
0.190139
0
LINE
8
BLACK
6
CONTINUOUS
10
1.08838
20
0.190139
11
1.08782
21
0.192915
0
LINE
8
BLACK
6
CONTINUOUS
10
1.08782
20
0.192915
11
1.08676
21
0.195215
0
LINE
8
BLACK
6
CONTINUOUS
10
1.08676
20
0.195215
11
1.08515
21
0.197085
0
LINE
8
BLACK
6
CONTINUOUS
10
1.08515
20
0.197085
11
1.08296
21
0.198568
0
LINE
8
BLACK
6
CONTINUOUS
10
1.08296
20
0.198568
11
1.08017
21
0.19971
0
LINE
8
BLACK
6
CONTINUOUS
10
1.08017
20
0.19971
11
1.0793
21
0.199967
0
LINE
8
BLACK
6
CONTINUOUS
10
1.0793
20
0.199967
11
1.07868
21
0.200126
0
LINE
8
BLACK
6
CONTINUOUS
10
1.07868
20
0.200126
11
1.07802
21
0.200261
0
LINE
8
BLACK
6
CONTINUOUS
10
1.07802
20
0.200261
11
1.07725
21
0.200373
0
LINE
8
BLACK
6
CONTINUOUS
10
1.07725
20
0.200373
11
1.0763
21
0.200466
0
LINE
8
BLACK
6
CONTINUOUS
10
1.0763
20
0.200466
11
1.07511
21
0.200543
0
LINE
8
BLACK
6
CONTINUOUS
10
1.07511
20
0.200543
11
1.0736
21
0.200606
0
LINE
8
BLACK
6
CONTINUOUS
10
1.0736
20
0.200606
11
1.07172
21
0.200657
0
LINE
8
BLACK
6
CONTINUOUS
10
1.07172
20
0.200657
11
1.0694
21
0.200701
0
LINE
8
BLACK
6
CONTINUOUS
10
1.0694
20
0.200701
11
1.06656
21
0.200738
0
LINE
8
BLACK
6
CONTINUOUS
10
1.06656
20
0.200738
11
1.06314
21
0.200773
0
LINE
8
BLACK
6
CONTINUOUS
10
1.06314
20
0.200773
11
1.05908
21
0.200808
0
LINE
8
BLACK
6
CONTINUOUS
10
1.05908
20
0.200808
11
1.05843
21
0.200813
0
LINE
8
BLACK
6
CONTINUOUS
10
1.05843
20
0.200813
11
1.04008
21
0.200958
0
LINE
8
BLACK
6
CONTINUOUS
10
1.04008
20
0.200958
11
1.04008
21
0.211424
0
LINE
8
BLACK
6
CONTINUOUS
10
1.04008
20
0.211424
11
1.06005
21
0.211297
0
LINE
8
BLACK
6
CONTINUOUS
10
0.0111191
20
0.413678
11
0.011811
21
0.412008
0
LINE
8
BLACK
6
CONTINUOUS
10
0.011811
20
0.412008
11
0.011811
21
0.178543
0
LINE
8
BLACK
6
CONTINUOUS
10
0.011811
20
0.178543
11
0.0111191
21
0.176873
0
LINE
8
BLACK
6
CONTINUOUS
10
0.0111191
20
0.176873
11
0.00944882
21
0.176181
0
LINE
8
BLACK
6
CONTINUOUS
10
0.00944882
20
0.176181
11
0.0077785
21
0.176873
0
LINE
8
BLACK
6
CONTINUOUS
10
0.0077785
20
0.176873
11
0.00708661
21
0.178543
0
LINE
8
BLACK
6
CONTINUOUS
10
0.00708661
20
0.178543
11
0.00708661
21
0.412008
0
LINE
8
BLACK
6
CONTINUOUS
10
0.00708661
20
0.412008
11
0.0077785
21
0.413678
0
LINE
8
BLACK
6
CONTINUOUS
10
0.0077785
20
0.413678
11
0.00944882
21
0.41437
0
LINE
8
BLACK
6
CONTINUOUS
10
0.00944882
20
0.41437
11
0.0111191
21
0.413678
0
LINE
8
BLACK
6
CONTINUOUS
10
0.664708
20
0.208654
11
0.662546
21
0.210816
0
LINE
8
BLACK
6
CONTINUOUS
10
0.662546
20
0.210816
11
0.661755
21
0.213768
0
LINE
8
BLACK
6
CONTINUOUS
10
0.661755
20
0.213768
11
0.662546
21
0.216721
0
LINE
8
BLACK
6
CONTINUOUS
10
0.662546
20
0.216721
11
0.664708
21
0.218883
0
LINE
8
BLACK
6
CONTINUOUS
10
0.664708
20
0.218883
11
0.66766
21
0.219674
0
LINE
8
BLACK
6
CONTINUOUS
10
0.66766
20
0.219674
11
0.689876
21
0.219674
0
LINE
8
BLACK
6
CONTINUOUS
10
0.689876
20
0.219674
11
0.689876
21
0.241609
0
LINE
8
BLACK
6
CONTINUOUS
10
0.689876
20
0.241609
11
0.66766
21
0.241609
0
LINE
8
BLACK
6
CONTINUOUS
10
0.66766
20
0.241609
11
0.664708
21
0.2424
0
LINE
8
BLACK
6
CONTINUOUS
10
0.664708
20
0.2424
11
0.662546
21
0.244561
0
LINE
8
BLACK
6
CONTINUOUS
10
0.662546
20
0.244561
11
0.661755
21
0.247514
0
LINE
8
BLACK
6
CONTINUOUS
10
0.661755
20
0.247514
11
0.662546
21
0.250467
0
LINE
8
BLACK
6
CONTINUOUS
10
0.662546
20
0.250467
11
0.664708
21
0.252628
0
LINE
8
BLACK
6
CONTINUOUS
10
0.664708
20
0.252628
11
0.66766
21
0.25342
0
LINE
8
BLACK
6
CONTINUOUS
10
0.66766
20
0.25342
11
0.726715
21
0.25342
0
LINE
8
BLACK
6
CONTINUOUS
10
0.726715
20
0.25342
11
0.729668
21
0.252628
0
LINE
8
BLACK
6
CONTINUOUS
10
0.729668
20
0.252628
11
0.73183
21
0.250467
0
LINE
8
BLACK
6
CONTINUOUS
10
0.73183
20
0.250467
11
0.732621
21
0.247514
0
LINE
8
BLACK
6
CONTINUOUS
10
0.732621
20
0.247514
11
0.73183
21
0.244561
0
LINE
8
BLACK
6
CONTINUOUS
10
0.73183
20
0.244561
11
0.729668
21
0.2424
0
LINE
8
BLACK
6
CONTINUOUS
10
0.729668
20
0.2424
11
0.726715
21
0.241609
0
LINE
8
BLACK
6
CONTINUOUS
10
0.726715
20
0.241609
11
0.701687
21
0.241609
0
LINE
8
BLACK
6
CONTINUOUS
10
0.701687
20
0.241609
11
0.701687
21
0.219674
0
LINE
8
BLACK
6
CONTINUOUS
10
0.701687
20
0.219674
11
0.726715
21
0.219674
0
LINE
8
BLACK
6
CONTINUOUS
10
0.726715
20
0.219674
11
0.729668
21
0.218883
0
LINE
8
BLACK
6
CONTINUOUS
10
0.729668
20
0.218883
11
0.73183
21
0.216721
0
LINE
8
BLACK
6
CONTINUOUS
10
0.73183
20
0.216721
11
0.732621
21
0.213768
0
LINE
8
BLACK
6
CONTINUOUS
10
0.732621
20
0.213768
11
0.73183
21
0.210816
0
LINE
8
BLACK
6
CONTINUOUS
10
0.73183
20
0.210816
11
0.729668
21
0.208654
0
LINE
8
BLACK
6
CONTINUOUS
10
0.729668
20
0.208654
11
0.726715
21
0.207863
0
LINE
8
BLACK
6
CONTINUOUS
10
0.726715
20
0.207863
11
0.66766
21
0.207863
0
LINE
8
BLACK
6
CONTINUOUS
10
0.66766
20
0.207863
11
0.664708
21
0.208654
0
LINE
8
BLACK
6
CONTINUOUS
10
1.09756
20
0.258747
11
1.07817
21
0.245821
0
LINE
8
BLACK
6
CONTINUOUS
10
1.07817
20
0.245821
11
1.05878
21
0.232896
0
LINE
8
BLACK
6
CONTINUOUS
10
1.05878
20
0.232896
11
1.07817
21
0.232803
0
LINE
8
BLACK
6
CONTINUOUS
10
1.07817
20
0.232803
11
1.09756
21
0.232709
0
LINE
8
BLACK
6
CONTINUOUS
10
1.09756
20
0.232709
11
1.09756
21
0.222231
0
LINE
8
BLACK
6
CONTINUOUS
10
1.09756
20
0.222231
11
1.04008
21
0.222231
0
LINE
8
BLACK
6
CONTINUOUS
10
1.04008
20
0.222231
11
1.04008
21
0.227383
0
LINE
8
BLACK
6
CONTINUOUS
10
1.04008
20
0.227383
11
1.04008
21
0.232535
0
LINE
8
BLACK
6
CONTINUOUS
10
1.04008
20
0.232535
11
1.05839
21
0.244646
0
LINE
8
BLACK
6
CONTINUOUS
10
1.05839
20
0.244646
11
1.0767
21
0.256758
0
LINE
8
BLACK
6
CONTINUOUS
10
1.0767
20
0.256758
11
1.05838
21
0.256851
0
LINE
8
BLACK
6
CONTINUOUS
10
1.05838
20
0.256851
11
1.04006
21
0.256945
0
LINE
8
BLACK
6
CONTINUOUS
10
1.04006
20
0.256945
11
1.04026
21
0.267604
0
LINE
8
BLACK
6
CONTINUOUS
10
1.04026
20
0.267604
11
1.06891
21
0.267696
0
LINE
8
BLACK
6
CONTINUOUS
10
1.06891
20
0.267696
11
1.09756
21
0.267789
0
LINE
8
BLACK
6
CONTINUOUS
10
1.09756
20
0.267789
11
1.09756
21
0.258747
0
LINE
8
BLACK
6
CONTINUOUS
10
0.670613
20
0.306059
11
0.672775
21
0.303898
0
LINE
8
BLACK
6
CONTINUOUS
10
0.672775
20
0.303898
11
0.673566
21
0.300945
0
LINE
8
BLACK
6
CONTINUOUS
10
0.673566
20
0.300945
11
0.673566
21
0.289978
0
LINE
8
BLACK
6
CONTINUOUS
10
0.673566
20
0.289978
11
0.726715
21
0.289978
0
LINE
8
BLACK
6
CONTINUOUS
10
0.726715
20
0.289978
11
0.729668
21
0.289186
0
LINE
8
BLACK
6
CONTINUOUS
10
0.729668
20
0.289186
11
0.73183
21
0.287025
0
LINE
8
BLACK
6
CONTINUOUS
10
0.73183
20
0.287025
11
0.732621
21
0.284072
0
LINE
8
BLACK
6
CONTINUOUS
10
0.732621
20
0.284072
11
0.73183
21
0.281119
0
LINE
8
BLACK
6
CONTINUOUS
10
0.73183
20
0.281119
11
0.729668
21
0.278958
0
LINE
8
BLACK
6
CONTINUOUS
10
0.729668
20
0.278958
11
0.726715
21
0.278166
0
LINE
8
BLACK
6
CONTINUOUS
10
0.726715
20
0.278166
11
0.673566
21
0.278166
0
LINE
8
BLACK
6
CONTINUOUS
10
0.673566
20
0.278166
11
0.673566
21
0.267199
0
LINE
8
BLACK
6
CONTINUOUS
10
0.673566
20
0.267199
11
0.672775
21
0.264246
0
LINE
8
BLACK
6
CONTINUOUS
10
0.672775
20
0.264246
11
0.670613
21
0.262085
0
LINE
8
BLACK
6
CONTINUOUS
10
0.670613
20
0.262085
11
0.66766
21
0.261294
0
LINE
8
BLACK
6
CONTINUOUS
10
0.66766
20
0.261294
11
0.664708
21
0.262085
0
LINE
8
BLACK
6
CONTINUOUS
10
0.664708
20
0.262085
11
0.662546
21
0.264246
0
LINE
8
BLACK
6
CONTINUOUS
10
0.662546
20
0.264246
11
0.661755
21
0.267199
0
LINE
8
BLACK
6
CONTINUOUS
10
0.661755
20
0.267199
11
0.661755
21
0.300945
0
LINE
8
BLACK
6
CONTINUOUS
10
0.661755
20
0.300945
11
0.662546
21
0.303898
0
LINE
8
BLACK
6
CONTINUOUS
10
0.662546
20
0.303898
11
0.664708
21
0.306059
0
LINE
8
BLACK
6
CONTINUOUS
10
0.664708
20
0.306059
11
0.66766
21
0.30685
0
LINE
8
BLACK
6
CONTINUOUS
10
0.66766
20
0.30685
11
0.670613
21
0.306059
0
LINE
8
BLACK
6
CONTINUOUS
10
1.04018
20
0.292097
11
1.04023
21
0.295596
0
LINE
8
BLACK
6
CONTINUOUS
10
1.04023
20
0.295596
11
1.04028
21
0.298458
0
LINE
8
BLACK
6
CONTINUOUS
10
1.04028
20
0.298458
11
1.04034
21
0.300773
0
LINE
8
BLACK
6
CONTINUOUS
10
1.04034
20
0.300773
11
1.0404
21
0.302627
0
LINE
8
BLACK
6
CONTINUOUS
10
1.0404
20
0.302627
11
1.04049
21
0.304108
0
LINE
8
BLACK
6
CONTINUOUS
10
1.04049
20
0.304108
11
1.04059
21
0.305304
0
LINE
8
BLACK
6
CONTINUOUS
10
1.04059
20
0.305304
11
1.04072
21
0.306302
0
LINE
8
BLACK
6
CONTINUOUS
10
1.04072
20
0.306302
11
1.04088
21
0.30719
0
LINE
8
BLACK
6
CONTINUOUS
10
1.04088
20
0.30719
11
1.04108
21
0.308055
0
LINE
8
BLACK
6
CONTINUOUS
10
1.04108
20
0.308055
11
1.04114
21
0.308276
0
LINE
8
BLACK
6
CONTINUOUS
10
1.04114
20
0.308276
11
1.04257
21
0.312588
0
LINE
8
BLACK
6
CONTINUOUS
10
1.04257
20
0.312588
11
1.04455
21
0.316443
0
LINE
8
BLACK
6
CONTINUOUS
10
1.04455
20
0.316443
11
1.04706
21
0.319818
0
LINE
8
BLACK
6
CONTINUOUS
10
1.04706
20
0.319818
11
1.05007
21
0.322691
0
LINE
8
BLACK
6
CONTINUOUS
10
1.05007
20
0.322691
11
1.05356
21
0.325037
0
LINE
8
BLACK
6
CONTINUOUS
10
1.05356
20
0.325037
11
1.05752
21
0.326835
0
LINE
8
BLACK
6
CONTINUOUS
10
1.05752
20
0.326835
11
1.06019
21
0.327663
0
LINE
8
BLACK
6
CONTINUOUS
10
1.06019
20
0.327663
11
1.06355
21
0.328307
0
LINE
8
BLACK
6
CONTINUOUS
10
1.06355
20
0.328307
11
1.06727
21
0.328629
0
LINE
8
BLACK
6
CONTINUOUS
10
1.06727
20
0.328629
11
1.07107
21
0.328627
0
LINE
8
BLACK
6
CONTINUOUS
10
1.07107
20
0.328627
11
1.0747
21
0.328297
0
LINE
8
BLACK
6
CONTINUOUS
10
1.0747
20
0.328297
11
1.07712
21
0.327839
0
LINE
8
BLACK
6
CONTINUOUS
10
1.07712
20
0.327839
11
1.08136
21
0.326471
0
LINE
8
BLACK
6
CONTINUOUS
10
1.08136
20
0.326471
11
1.0852
21
0.324538
0
LINE
8
BLACK
6
CONTINUOUS
10
1.0852
20
0.324538
11
1.0886
21
0.322073
0
LINE
8
BLACK
6
CONTINUOUS
10
1.0886
20
0.322073
11
1.09152
21
0.319113
0
LINE
8
BLACK
6
CONTINUOUS
10
1.09152
20
0.319113
11
1.0939
21
0.315691
0
LINE
8
BLACK
6
CONTINUOUS
10
1.0939
20
0.315691
11
1.09482
21
0.313953
0
LINE
8
BLACK
6
CONTINUOUS
10
1.09482
20
0.313953
11
1.09542
21
0.31268
0
LINE
8
BLACK
6
CONTINUOUS
10
1.09542
20
0.31268
11
1.09591
21
0.311551
0
LINE
8
BLACK
6
CONTINUOUS
10
1.09591
20
0.311551
11
1.09632
21
0.310481
0
LINE
8
BLACK
6
CONTINUOUS
10
1.09632
20
0.310481
11
1.09664
21
0.309385
0
LINE
8
BLACK
6
CONTINUOUS
10
1.09664
20
0.309385
11
1.09688
21
0.308179
0
LINE
8
BLACK
6
CONTINUOUS
10
1.09688
20
0.308179
11
1.09707
21
0.306776
0
LINE
8
BLACK
6
CONTINUOUS
10
1.09707
20
0.306776
11
1.09721
21
0.305094
0
LINE
8
BLACK
6
CONTINUOUS
10
1.09721
20
0.305094
11
1.0973
21
0.303045
0
LINE
8
BLACK
6
CONTINUOUS
10
1.0973
20
0.303045
11
1.09737
21
0.300547
0
LINE
8
BLACK
6
CONTINUOUS
10
1.09737
20
0.300547
11
1.09742
21
0.297513
0
LINE
8
BLACK
6
CONTINUOUS
10
1.09742
20
0.297513
11
1.09746
21
0.293859
0
LINE
8
BLACK
6
CONTINUOUS
10
1.09746
20
0.293859
11
1.09747
21
0.293001
0
LINE
8
BLACK
6
CONTINUOUS
10
1.09747
20
0.293001
11
1.09761
21
0.278992
0
LINE
8
BLACK
6
CONTINUOUS
10
1.09761
20
0.278992
11
1.03999
21
0.278992
0
LINE
8
BLACK
6
CONTINUOUS
10
1.03999
20
0.278992
11
1.04018
21
0.292097
0
LINE
8
BLACK
6
CONTINUOUS
10
1.07059
20
0.316934
11
1.06777
21
0.316929
0
LINE
8
BLACK
6
CONTINUOUS
10
1.06777
20
0.316929
11
1.06504
21
0.316748
0
LINE
8
BLACK
6
CONTINUOUS
10
1.06504
20
0.316748
11
1.06266
21
0.316395
0
LINE
8
BLACK
6
CONTINUOUS
10
1.06266
20
0.316395
11
1.06204
21
0.316252
0
LINE
8
BLACK
6
CONTINUOUS
10
1.06204
20
0.316252
11
1.05953
21
0.315498
0
LINE
8
BLACK
6
CONTINUOUS
10
1.05953
20
0.315498
11
1.05752
21
0.314596
0
LINE
8
BLACK
6
CONTINUOUS
10
1.05752
20
0.314596
11
1.05574
21
0.313421
0
LINE
8
BLACK
6
CONTINUOUS
10
1.05574
20
0.313421
11
1.05437
21
0.312228
0
LINE
8
BLACK
6
CONTINUOUS
10
1.05437
20
0.312228
11
1.05302
21
0.310831
0
LINE
8
BLACK
6
CONTINUOUS
10
1.05302
20
0.310831
11
1.05196
21
0.309397
0
LINE
8
BLACK
6
CONTINUOUS
10
1.05196
20
0.309397
11
1.05115
21
0.307821
0
LINE
8
BLACK
6
CONTINUOUS
10
1.05115
20
0.307821
11
1.05057
21
0.305996
0
LINE
8
BLACK
6
CONTINUOUS
10
1.05057
20
0.305996
11
1.05018
21
0.303816
0
LINE
8
BLACK
6
CONTINUOUS
10
1.05018
20
0.303816
11
1.04995
21
0.301175
0
LINE
8
BLACK
6
CONTINUOUS
10
1.04995
20
0.301175
11
1.04985
21
0.297967
0
LINE
8
BLACK
6
CONTINUOUS
10
1.04985
20
0.297967
11
1.04984
21
0.296436
0
LINE
8
BLACK
6
CONTINUOUS
10
1.04984
20
0.296436
11
1.04984
21
0.289476
0
LINE
8
BLACK
6
CONTINUOUS
10
1.04984
20
0.289476
11
1.08816
21
0.289476
0
LINE
8
BLACK
6
CONTINUOUS
10
1.08816
20
0.289476
11
1.08816
21
0.296147
0
LINE
8
BLACK
6
CONTINUOUS
10
1.08816
20
0.296147
11
1.08814
21
0.298424
0
LINE
8
BLACK
6
CONTINUOUS
10
1.08814
20
0.298424
11
1.08808
21
0.300592
0
LINE
8
BLACK
6
CONTINUOUS
10
1.08808
20
0.300592
11
1.08798
21
0.30249
0
LINE
8
BLACK
6
CONTINUOUS
10
1.08798
20
0.30249
11
1.08787
21
0.303957
0
LINE
8
BLACK
6
CONTINUOUS
10
1.08787
20
0.303957
11
1.08775
21
0.304733
0
LINE
8
BLACK
6
CONTINUOUS
10
1.08775
20
0.304733
11
1.08675
21
0.30781
0
LINE
8
BLACK
6
CONTINUOUS
10
1.08675
20
0.30781
11
1.08515
21
0.3105
0
LINE
8
BLACK
6
CONTINUOUS
10
1.08515
20
0.3105
11
1.08299
21
0.312773
0
LINE
8
BLACK
6
CONTINUOUS
10
1.08299
20
0.312773
11
1.08029
21
0.314599
0
LINE
8
BLACK
6
CONTINUOUS
10
1.08029
20
0.314599
11
1.07709
21
0.315947
0
LINE
8
BLACK
6
CONTINUOUS
10
1.07709
20
0.315947
11
1.07544
21
0.316403
0
LINE
8
BLACK
6
CONTINUOUS
10
1.07544
20
0.316403
11
1.07324
21
0.316759
0
LINE
8
BLACK
6
CONTINUOUS
10
1.07324
20
0.316759
11
1.07059
21
0.316934
0
LINE
8
BLACK
6
CONTINUOUS
10
0.704922
20
0.357281
11
0.70565
21
0.357293
0
LINE
8
BLACK
6
CONTINUOUS
10
0.70565
20
0.357293
11
0.716899
21
0.354481
0
LINE
8
BLACK
6
CONTINUOUS
10
0.716899
20
0.354481
11
0.717469
21
0.354164
0
LINE
8
BLACK
6
CONTINUOUS
10
0.717469
20
0.354164
11
0.718108
21
0.354033
0
LINE
8
BLACK
6
CONTINUOUS
10
0.718108
20
0.354033
11
0.723732
21
0.351221
0
LINE
8
BLACK
6
CONTINUOUS
10
0.723732
20
0.351221
11
0.724444
21
0.350591
0
LINE
8
BLACK
6
CONTINUOUS
10
0.724444
20
0.350591
11
0.725267
21
0.350115
0
LINE
8
BLACK
6
CONTINUOUS
10
0.725267
20
0.350115
11
0.728079
21
0.347303
0
LINE
8
BLACK
6
CONTINUOUS
10
0.728079
20
0.347303
11
0.728554
21
0.346479
0
LINE
8
BLACK
6
CONTINUOUS
10
0.728554
20
0.346479
11
0.729185
21
0.345768
0
LINE
8
BLACK
6
CONTINUOUS
10
0.729185
20
0.345768
11
0.731997
21
0.340144
0
LINE
8
BLACK
6
CONTINUOUS
10
0.731997
20
0.340144
11
0.73227
21
0.338814
0
LINE
8
BLACK
6
CONTINUOUS
10
0.73227
20
0.338814
11
0.732621
21
0.337503
0
LINE
8
BLACK
6
CONTINUOUS
10
0.732621
20
0.337503
11
0.732621
21
0.331879
0
LINE
8
BLACK
6
CONTINUOUS
10
0.732621
20
0.331879
11
0.73227
21
0.330568
0
LINE
8
BLACK
6
CONTINUOUS
10
0.73227
20
0.330568
11
0.731997
21
0.329237
0
LINE
8
BLACK
6
CONTINUOUS
10
0.731997
20
0.329237
11
0.729185
21
0.323613
0
LINE
8
BLACK
6
CONTINUOUS
10
0.729185
20
0.323613
11
0.728554
21
0.322902
0
LINE
8
BLACK
6
CONTINUOUS
10
0.728554
20
0.322902
11
0.728079
21
0.322078
0
LINE
8
BLACK
6
CONTINUOUS
10
0.728079
20
0.322078
11
0.725267
21
0.319266
0
LINE
8
BLACK
6
CONTINUOUS
10
0.725267
20
0.319266
11
0.724444
21
0.318791
0
LINE
8
BLACK
6
CONTINUOUS
10
0.724444
20
0.318791
11
0.723732
21
0.31816
0
LINE
8
BLACK
6
CONTINUOUS
10
0.723732
20
0.31816
11
0.718108
21
0.315348
0
LINE
8
BLACK
6
CONTINUOUS
10
0.718108
20
0.315348
11
0.717469
21
0.315217
0
LINE
8
BLACK
6
CONTINUOUS
10
0.717469
20
0.315217
11
0.716899
21
0.314901
0
LINE
8
BLACK
6
CONTINUOUS
10
0.716899
20
0.314901
11
0.70565
21
0.312089
0
LINE
8
BLACK
6
CONTINUOUS
10
0.70565
20
0.312089
11
0.704922
21
0.312101
0
LINE
8
BLACK
6
CONTINUOUS
10
0.704922
20
0.312101
11
0.704218
21
0.311912
0
LINE
8
BLACK
6
CONTINUOUS
10
0.704218
20
0.311912
11
0.690157
21
0.311912
0
LINE
8
BLACK
6
CONTINUOUS
10
0.690157
20
0.311912
11
0.689454
21
0.312101
0
LINE
8
BLACK
6
CONTINUOUS
10
0.689454
20
0.312101
11
0.688725
21
0.312089
0
LINE
8
BLACK
6
CONTINUOUS
10
0.688725
20
0.312089
11
0.677477
21
0.314901
0
LINE
8
BLACK
6
CONTINUOUS
10
0.677477
20
0.314901
11
0.676907
21
0.315217
0
LINE
8
BLACK
6
CONTINUOUS
10
0.676907
20
0.315217
11
0.676268
21
0.315348
0
LINE
8
BLACK
6
CONTINUOUS
10
0.676268
20
0.315348
11
0.670644
21
0.31816
0
LINE
8
BLACK
6
CONTINUOUS
10
0.670644
20
0.31816
11
0.669932
21
0.318791
0
LINE
8
BLACK
6
CONTINUOUS
10
0.669932
20
0.318791
11
0.669109
21
0.319266
0
LINE
8
BLACK
6
CONTINUOUS
10
0.669109
20
0.319266
11
0.666297
21
0.322078
0
LINE
8
BLACK
6
CONTINUOUS
10
0.666297
20
0.322078
11
0.665821
21
0.322902
0
LINE
8
BLACK
6
CONTINUOUS
10
0.665821
20
0.322902
11
0.66519
21
0.323613
0
LINE
8
BLACK
6
CONTINUOUS
10
0.66519
20
0.323613
11
0.662378
21
0.329238
0
LINE
8
BLACK
6
CONTINUOUS
10
0.662378
20
0.329238
11
0.662106
21
0.330567
0
LINE
8
BLACK
6
CONTINUOUS
10
0.662106
20
0.330567
11
0.661755
21
0.331879
0
LINE
8
BLACK
6
CONTINUOUS
10
0.661755
20
0.331879
11
0.661755
21
0.337503
0
LINE
8
BLACK
6
CONTINUOUS
10
0.661755
20
0.337503
11
0.662106
21
0.338814
0
LINE
8
BLACK
6
CONTINUOUS
10
0.662106
20
0.338814
11
0.662378
21
0.340144
0
LINE
8
BLACK
6
CONTINUOUS
10
0.662378
20
0.340144
11
0.66519
21
0.345768
0
LINE
8
BLACK
6
CONTINUOUS
10
0.66519
20
0.345768
11
0.665821
21
0.346479
0
LINE
8
BLACK
6
CONTINUOUS
10
0.665821
20
0.346479
11
0.666297
21
0.347303
0
LINE
8
BLACK
6
CONTINUOUS
10
0.666297
20
0.347303
11
0.669109
21
0.350115
0
LINE
8
BLACK
6
CONTINUOUS
10
0.669109
20
0.350115
11
0.669932
21
0.350591
0
LINE
8
BLACK
6
CONTINUOUS
10
0.669932
20
0.350591
11
0.670644
21
0.351221
0
LINE
8
BLACK
6
CONTINUOUS
10
0.670644
20
0.351221
11
0.676268
21
0.354033
0
LINE
8
BLACK
6
CONTINUOUS
10
0.676268
20
0.354033
11
0.676907
21
0.354164
0
LINE
8
BLACK
6
CONTINUOUS
10
0.676907
20
0.354164
11
0.677477
21
0.354481
0
LINE
8
BLACK
6
CONTINUOUS
10
0.677477
20
0.354481
11
0.688725
21
0.357293
0
LINE
8
BLACK
6
CONTINUOUS
10
0.688725
20
0.357293
11
0.689454
21
0.357281
0
LINE
8
BLACK
6
CONTINUOUS
10
0.689454
20
0.357281
11
0.690157
21
0.357469
0
LINE
8
BLACK
6
CONTINUOUS
10
0.690157
20
0.357469
11
0.704218
21
0.357469
0
LINE
8
BLACK
6
CONTINUOUS
10
0.704218
20
0.357469
11
0.704922
21
0.357281
0
LINE
8
BLACK
6
CONTINUOUS
10
0.690884
20
0.345658
11
0.68097
21
0.343179
0
LINE
8
BLACK
6
CONTINUOUS
10
0.68097
20
0.343179
11
0.676783
21
0.341086
0
LINE
8
BLACK
6
CONTINUOUS
10
0.676783
20
0.341086
11
0.675326
21
0.339629
0
LINE
8
BLACK
6
CONTINUOUS
10
0.675326
20
0.339629
11
0.673566
21
0.336109
0
LINE
8
BLACK
6
CONTINUOUS
10
0.673566
20
0.336109
11
0.673566
21
0.333273
0
LINE
8
BLACK
6
CONTINUOUS
10
0.673566
20
0.333273
11
0.675326
21
0.329752
0
LINE
8
BLACK
6
CONTINUOUS
10
0.675326
20
0.329752
11
0.676783
21
0.328296
0
LINE
8
BLACK
6
CONTINUOUS
10
0.676783
20
0.328296
11
0.68097
21
0.326202
0
LINE
8
BLACK
6
CONTINUOUS
10
0.68097
20
0.326202
11
0.690884
21
0.323723
0
LINE
8
BLACK
6
CONTINUOUS
10
0.690884
20
0.323723
11
0.703491
21
0.323723
0
LINE
8
BLACK
6
CONTINUOUS
10
0.703491
20
0.323723
11
0.713406
21
0.326202
0
LINE
8
BLACK
6
CONTINUOUS
10
0.713406
20
0.326202
11
0.717593
21
0.328296
0
LINE
8
BLACK
6
CONTINUOUS
10
0.717593
20
0.328296
11
0.71905
21
0.329752
0
LINE
8
BLACK
6
CONTINUOUS
10
0.71905
20
0.329752
11
0.72081
21
0.333273
0
LINE
8
BLACK
6
CONTINUOUS
10
0.72081
20
0.333273
11
0.72081
21
0.336109
0
LINE
8
BLACK
6
CONTINUOUS
10
0.72081
20
0.336109
11
0.71905
21
0.339629
0
LINE
8
BLACK
6
CONTINUOUS
10
0.71905
20
0.339629
11
0.717593
21
0.341086
0
LINE
8
BLACK
6
CONTINUOUS
10
0.717593
20
0.341086
11
0.713406
21
0.343179
0
LINE
8
BLACK
6
CONTINUOUS
10
0.713406
20
0.343179
11
0.703491
21
0.345658
0
LINE
8
BLACK
6
CONTINUOUS
10
0.703491
20
0.345658
11
0.690884
21
0.345658
0
LINE
8
BLACK
6
CONTINUOUS
10
1.09756
20
0.336837
11
1.04008
21
0.336837
0
LINE
8
BLACK
6
CONTINUOUS
10
1.04008
20
0.336837
11
1.04008
21
0.373713
0
LINE
8
BLACK
6
CONTINUOUS
10
1.04008
20
0.373713
11
1.05056
21
0.373713
0
LINE
8
BLACK
6
CONTINUOUS
10
1.05056
20
0.373713
11
1.05056
21
0.347683
0
LINE
8
BLACK
6
CONTINUOUS
10
1.05056
20
0.347683
11
1.06248
21
0.347683
0
LINE
8
BLACK
6
CONTINUOUS
10
1.06248
20
0.347683
11
1.06258
21
0.357716
0
LINE
8
BLACK
6
CONTINUOUS
10
1.06258
20
0.357716
11
1.06267
21
0.367748
0
LINE
8
BLACK
6
CONTINUOUS
10
1.06267
20
0.367748
11
1.07298
21
0.367949
0
LINE
8
BLACK
6
CONTINUOUS
10
1.07298
20
0.367949
11
1.07298
21
0.347683
0
LINE
8
BLACK
6
CONTINUOUS
10
1.07298
20
0.347683
11
1.08744
21
0.347683
0
LINE
8
BLACK
6
CONTINUOUS
10
1.08744
20
0.347683
11
1.08744
21
0.374436
0
LINE
8
BLACK
6
CONTINUOUS
10
1.08744
20
0.374436
11
1.09756
21
0.374436
0
LINE
8
BLACK
6
CONTINUOUS
10
1.09756
20
0.374436
11
1.09756
21
0.336837
0
LINE
8
BLACK
6
CONTINUOUS
10
0.729668
20
0.412921
11
0.73183
21
0.410759
0
LINE
8
BLACK
6
CONTINUOUS
10
0.73183
20
0.410759
11
0.732621
21
0.407807
0
LINE
8
BLACK
6
CONTINUOUS
10
0.732621
20
0.407807
11
0.732621
21
0.374061
0
LINE
8
BLACK
6
CONTINUOUS
10
0.732621
20
0.374061
11
0.73183
21
0.371108
0
LINE
8
BLACK
6
CONTINUOUS
10
0.73183
20
0.371108
11
0.729668
21
0.368946
0
LINE
8
BLACK
6
CONTINUOUS
10
0.729668
20
0.368946
11
0.726715
21
0.368155
0
LINE
8
BLACK
6
CONTINUOUS
10
0.726715
20
0.368155
11
0.723763
21
0.368946
0
LINE
8
BLACK
6
CONTINUOUS
10
0.723763
20
0.368946
11
0.721601
21
0.371108
0
LINE
8
BLACK
6
CONTINUOUS
10
0.721601
20
0.371108
11
0.72081
21
0.374061
0
LINE
8
BLACK
6
CONTINUOUS
10
0.72081
20
0.374061
11
0.72081
21
0.385028
0
LINE
8
BLACK
6
CONTINUOUS
10
0.72081
20
0.385028
11
0.68473
21
0.385028
0
LINE
8
BLACK
6
CONTINUOUS
10
0.68473
20
0.385028
11
0.685897
21
0.383861
0
LINE
8
BLACK
6
CONTINUOUS
10
0.685897
20
0.383861
11
0.686372
21
0.383037
0
LINE
8
BLACK
6
CONTINUOUS
10
0.686372
20
0.383037
11
0.687003
21
0.382326
0
LINE
8
BLACK
6
CONTINUOUS
10
0.687003
20
0.382326
11
0.689815
21
0.376702
0
LINE
8
BLACK
6
CONTINUOUS
10
0.689815
20
0.376702
11
0.690428
21
0.373707
0
LINE
8
BLACK
6
CONTINUOUS
10
0.690428
20
0.373707
11
0.689461
21
0.370807
0
LINE
8
BLACK
6
CONTINUOUS
10
0.689461
20
0.370807
11
0.687174
21
0.368779
0
LINE
8
BLACK
6
CONTINUOUS
10
0.687174
20
0.368779
11
0.684179
21
0.368166
0
LINE
8
BLACK
6
CONTINUOUS
10
0.684179
20
0.368166
11
0.681279
21
0.369133
0
LINE
8
BLACK
6
CONTINUOUS
10
0.681279
20
0.369133
11
0.679251
21
0.37142
0
LINE
8
BLACK
6
CONTINUOUS
10
0.679251
20
0.37142
11
0.676868
21
0.376187
0
LINE
8
BLACK
6
CONTINUOUS
10
0.676868
20
0.376187
11
0.672334
21
0.38072
0
LINE
8
BLACK
6
CONTINUOUS
10
0.672334
20
0.38072
11
0.664384
21
0.38602
0
LINE
8
BLACK
6
CONTINUOUS
10
0.664384
20
0.38602
11
0.663497
21
0.38703
0
LINE
8
BLACK
6
CONTINUOUS
10
0.663497
20
0.38703
11
0.662546
21
0.387981
0
LINE
8
BLACK
6
CONTINUOUS
10
0.662546
20
0.387981
11
0.662495
21
0.38817
0
LINE
8
BLACK
6
CONTINUOUS
10
0.662495
20
0.38817
11
0.662367
21
0.388316
0
LINE
8
BLACK
6
CONTINUOUS
10
0.662367
20
0.388316
11
0.662103
21
0.389635
0
LINE
8
BLACK
6
CONTINUOUS
10
0.662103
20
0.389635
11
0.661755
21
0.390934
0
LINE
8
BLACK
6
CONTINUOUS
10
0.661755
20
0.390934
11
0.661805
21
0.391122
0
LINE
8
BLACK
6
CONTINUOUS
10
0.661805
20
0.391122
11
0.661767
21
0.391314
0
LINE
8
BLACK
6
CONTINUOUS
10
0.661767
20
0.391314
11
0.662198
21
0.392588
0
LINE
8
BLACK
6
CONTINUOUS
10
0.662198
20
0.392588
11
0.662546
21
0.393886
0
LINE
8
BLACK
6
CONTINUOUS
10
0.662546
20
0.393886
11
0.662684
21
0.394024
0
LINE
8
BLACK
6
CONTINUOUS
10
0.662684
20
0.394024
11
0.662747
21
0.394209
0
LINE
8
BLACK
6
CONTINUOUS
10
0.662747
20
0.394209
11
0.663757
21
0.395097
0
LINE
8
BLACK
6
CONTINUOUS
10
0.663757
20
0.395097
11
0.664708
21
0.396048
0
LINE
8
BLACK
6
CONTINUOUS
10
0.664708
20
0.396048
11
0.664896
21
0.396099
0
LINE
8
BLACK
6
CONTINUOUS
10
0.664896
20
0.396099
11
0.665043
21
0.396227
0
LINE
8
BLACK
6
CONTINUOUS
10
0.665043
20
0.396227
11
0.666361
21
0.396491
0
LINE
8
BLACK
6
CONTINUOUS
10
0.666361
20
0.396491
11
0.66766
21
0.396839
0
LINE
8
BLACK
6
CONTINUOUS
10
0.66766
20
0.396839
11
0.72081
21
0.396839
0
LINE
8
BLACK
6
CONTINUOUS
10
0.72081
20
0.396839
11
0.72081
21
0.407807
0
LINE
8
BLACK
6
CONTINUOUS
10
0.72081
20
0.407807
11
0.721601
21
0.410759
0
LINE
8
BLACK
6
CONTINUOUS
10
0.721601
20
0.410759
11
0.723763
21
0.412921
0
LINE
8
BLACK
6
CONTINUOUS
10
0.723763
20
0.412921
11
0.726715
21
0.413712
0
LINE
8
BLACK
6
CONTINUOUS
10
0.726715
20
0.413712
11
0.729668
21
0.412921
0
LINE
8
BLACK
6
CONTINUOUS
10
0.418321
20
0.451894
11
0.419651
21
0.451622
0
LINE
8
BLACK
6
CONTINUOUS
10
0.419651
20
0.451622
11
0.425275
21
0.44881
0
LINE
8
BLACK
6
CONTINUOUS
10
0.425275
20
0.44881
11
0.425987
21
0.448179
0
LINE
8
BLACK
6
CONTINUOUS
10
0.425987
20
0.448179
11
0.42681
21
0.447703
0
LINE
8
BLACK
6
CONTINUOUS
10
0.42681
20
0.447703
11
0.429622
21
0.444891
0
LINE
8
BLACK
6
CONTINUOUS
10
0.429622
20
0.444891
11
0.430098
21
0.444068
0
LINE
8
BLACK
6
CONTINUOUS
10
0.430098
20
0.444068
11
0.430729
21
0.443356
0
LINE
8
BLACK
6
CONTINUOUS
10
0.430729
20
0.443356
11
0.433541
21
0.437732
0
LINE
8
BLACK
6
CONTINUOUS
10
0.433541
20
0.437732
11
0.433813
21
0.436402
0
LINE
8
BLACK
6
CONTINUOUS
10
0.433813
20
0.436402
11
0.434164
21
0.435091
0
LINE
8
BLACK
6
CONTINUOUS
10
0.434164
20
0.435091
11
0.434164
21
0.426655
0
LINE
8
BLACK
6
CONTINUOUS
10
0.434164
20
0.426655
11
0.433813
21
0.425344
0
LINE
8
BLACK
6
CONTINUOUS
10
0.433813
20
0.425344
11
0.433541
21
0.424014
0
LINE
8
BLACK
6
CONTINUOUS
10
0.433541
20
0.424014
11
0.430729
21
0.418389
0
LINE
8
BLACK
6
CONTINUOUS
10
0.430729
20
0.418389
11
0.430098
21
0.417678
0
LINE
8
BLACK
6
CONTINUOUS
10
0.430098
20
0.417678
11
0.429622
21
0.416855
0
LINE
8
BLACK
6
CONTINUOUS
10
0.429622
20
0.416855
11
0.42681
21
0.414042
0
LINE
8
BLACK
6
CONTINUOUS
10
0.42681
20
0.414042
11
0.425987
21
0.413567
0
LINE
8
BLACK
6
CONTINUOUS
10
0.425987
20
0.413567
11
0.425275
21
0.412936
0
LINE
8
BLACK
6
CONTINUOUS
10
0.425275
20
0.412936
11
0.419651
21
0.410124
0
LINE
8
BLACK
6
CONTINUOUS
10
0.419651
20
0.410124
11
0.419501
21
0.410093
0
LINE
8
BLACK
6
CONTINUOUS
10
0.419501
20
0.410093
11
0.433097
21
0.390671
0
LINE
8
BLACK
6
CONTINUOUS
10
0.433097
20
0.390671
11
0.434142
21
0.387799
0
LINE
8
BLACK
6
CONTINUOUS
10
0.434142
20
0.387799
11
0.433611
21
0.384788
0
LINE
8
BLACK
6
CONTINUOUS
10
0.433611
20
0.384788
11
0.431645
21
0.382447
0
LINE
8
BLACK
6
CONTINUOUS
10
0.431645
20
0.382447
11
0.428773
21
0.381401
0
LINE
8
BLACK
6
CONTINUOUS
10
0.428773
20
0.381401
11
0.425762
21
0.381933
0
LINE
8
BLACK
6
CONTINUOUS
10
0.425762
20
0.381933
11
0.423421
21
0.383898
0
LINE
8
BLACK
6
CONTINUOUS
10
0.423421
20
0.383898
11
0.405499
21
0.409501
0
LINE
8
BLACK
6
CONTINUOUS
10
0.405499
20
0.409501
11
0.400418
21
0.409501
0
LINE
8
BLACK
6
CONTINUOUS
10
0.400418
20
0.409501
11
0.400418
21
0.387285
0
LINE
8
BLACK
6
CONTINUOUS
10
0.400418
20
0.387285
11
0.399627
21
0.384332
0
LINE
8
BLACK
6
CONTINUOUS
10
0.399627
20
0.384332
11
0.397466
21
0.38217
0
LINE
8
BLACK
6
CONTINUOUS
10
0.397466
20
0.38217
11
0.394513
21
0.381379
0
LINE
8
BLACK
6
CONTINUOUS
10
0.394513
20
0.381379
11
0.39156
21
0.38217
0
LINE
8
BLACK
6
CONTINUOUS
10
0.39156
20
0.38217
11
0.389399
21
0.384332
0
LINE
8
BLACK
6
CONTINUOUS
10
0.389399
20
0.384332
11
0.388607
21
0.387285
0
LINE
8
BLACK
6
CONTINUOUS
10
0.388607
20
0.387285
11
0.388607
21
0.44634
0
LINE
8
BLACK
6
CONTINUOUS
10
0.388607
20
0.44634
11
0.389399
21
0.449292
0
LINE
8
BLACK
6
CONTINUOUS
10
0.389399
20
0.449292
11
0.39156
21
0.451454
0
LINE
8
BLACK
6
CONTINUOUS
10
0.39156
20
0.451454
11
0.394513
21
0.452245
0
LINE
8
BLACK
6
CONTINUOUS
10
0.394513
20
0.452245
11
0.41701
21
0.452245
0
LINE
8
BLACK
6
CONTINUOUS
10
0.41701
20
0.452245
11
0.418321
21
0.451894
0
LINE
8
BLACK
6
CONTINUOUS
10
0.400418
20
0.440434
11
0.400418
21
0.421312
0
LINE
8
BLACK
6
CONTINUOUS
10
0.400418
20
0.421312
11
0.415616
21
0.421312
0
LINE
8
BLACK
6
CONTINUOUS
10
0.415616
20
0.421312
11
0.419136
21
0.423072
0
LINE
8
BLACK
6
CONTINUOUS
10
0.419136
20
0.423072
11
0.420593
21
0.424529
0
LINE
8
BLACK
6
CONTINUOUS
10
0.420593
20
0.424529
11
0.422353
21
0.428049
0
LINE
8
BLACK
6
CONTINUOUS
10
0.422353
20
0.428049
11
0.422353
21
0.433697
0
LINE
8
BLACK
6
CONTINUOUS
10
0.422353
20
0.433697
11
0.420593
21
0.437217
0
LINE
8
BLACK
6
CONTINUOUS
10
0.420593
20
0.437217
11
0.419136
21
0.438674
0
LINE
8
BLACK
6
CONTINUOUS
10
0.419136
20
0.438674
11
0.415616
21
0.440434
0
LINE
8
BLACK
6
CONTINUOUS
10
0.415616
20
0.440434
11
0.400418
21
0.440434
0
LINE
8
BLACK
6
CONTINUOUS
10
0.291775
20
0.451894
11
0.293104
21
0.451622
0
LINE
8
BLACK
6
CONTINUOUS
10
0.293104
20
0.451622
11
0.298729
21
0.44881
0
LINE
8
BLACK
6
CONTINUOUS
10
0.298729
20
0.44881
11
0.29944
21
0.448179
0
LINE
8
BLACK
6
CONTINUOUS
10
0.29944
20
0.448179
11
0.300264
21
0.447703
0
LINE
8
BLACK
6
CONTINUOUS
10
0.300264
20
0.447703
11
0.303076
21
0.444891
0
LINE
8
BLACK
6
CONTINUOUS
10
0.303076
20
0.444891
11
0.303551
21
0.444068
0
LINE
8
BLACK
6
CONTINUOUS
10
0.303551
20
0.444068
11
0.304182
21
0.443356
0
LINE
8
BLACK
6
CONTINUOUS
10
0.304182
20
0.443356
11
0.306994
21
0.437732
0
LINE
8
BLACK
6
CONTINUOUS
10
0.306994
20
0.437732
11
0.307266
21
0.436402
0
LINE
8
BLACK
6
CONTINUOUS
10
0.307266
20
0.436402
11
0.307618
21
0.435091
0
LINE
8
BLACK
6
CONTINUOUS
10
0.307618
20
0.435091
11
0.307618
21
0.426655
0
LINE
8
BLACK
6
CONTINUOUS
10
0.307618
20
0.426655
11
0.307266
21
0.425343
0
LINE
8
BLACK
6
CONTINUOUS
10
0.307266
20
0.425343
11
0.306994
21
0.424014
0
LINE
8
BLACK
6
CONTINUOUS
10
0.306994
20
0.424014
11
0.304182
21
0.418389
0
LINE
8
BLACK
6
CONTINUOUS
10
0.304182
20
0.418389
11
0.303551
21
0.417678
0
LINE
8
BLACK
6
CONTINUOUS
10
0.303551
20
0.417678
11
0.303076
21
0.416855
0
LINE
8
BLACK
6
CONTINUOUS
10
0.303076
20
0.416855
11
0.300264
21
0.414042
0
LINE
8
BLACK
6
CONTINUOUS
10
0.300264
20
0.414042
11
0.29944
21
0.413567
0
LINE
8
BLACK
6
CONTINUOUS
10
0.29944
20
0.413567
11
0.298729
21
0.412936
0
LINE
8
BLACK
6
CONTINUOUS
10
0.298729
20
0.412936
11
0.293104
21
0.410124
0
LINE
8
BLACK
6
CONTINUOUS
10
0.293104
20
0.410124
11
0.291775
21
0.409852
0
LINE
8
BLACK
6
CONTINUOUS
10
0.291775
20
0.409852
11
0.290463
21
0.409501
0
LINE
8
BLACK
6
CONTINUOUS
10
0.290463
20
0.409501
11
0.273872
21
0.409501
0
LINE
8
BLACK
6
CONTINUOUS
10
0.273872
20
0.409501
11
0.273872
21
0.387285
0
LINE
8
BLACK
6
CONTINUOUS
10
0.273872
20
0.387285
11
0.273081
21
0.384332
0
LINE
8
BLACK
6
CONTINUOUS
10
0.273081
20
0.384332
11
0.270919
21
0.38217
0
LINE
8
BLACK
6
CONTINUOUS
10
0.270919
20
0.38217
11
0.267966
21
0.381379
0
LINE
8
BLACK
6
CONTINUOUS
10
0.267966
20
0.381379
11
0.265013
21
0.38217
0
LINE
8
BLACK
6
CONTINUOUS
10
0.265013
20
0.38217
11
0.262852
21
0.384332
0
LINE
8
BLACK
6
CONTINUOUS
10
0.262852
20
0.384332
11
0.262061
21
0.387285
0
LINE
8
BLACK
6
CONTINUOUS
10
0.262061
20
0.387285
11
0.262061
21
0.44634
0
LINE
8
BLACK
6
CONTINUOUS
10
0.262061
20
0.44634
11
0.262852
21
0.449292
0
LINE
8
BLACK
6
CONTINUOUS
10
0.262852
20
0.449292
11
0.265013
21
0.451454
0
LINE
8
BLACK
6
CONTINUOUS
10
0.265013
20
0.451454
11
0.267966
21
0.452245
0
LINE
8
BLACK
6
CONTINUOUS
10
0.267966
20
0.452245
11
0.290463
21
0.452245
0
LINE
8
BLACK
6
CONTINUOUS
10
0.290463
20
0.452245
11
0.291775
21
0.451894
0
LINE
8
BLACK
6
CONTINUOUS
10
0.273872
20
0.440434
11
0.273872
21
0.421312
0
LINE
8
BLACK
6
CONTINUOUS
10
0.273872
20
0.421312
11
0.289069
21
0.421312
0
LINE
8
BLACK
6
CONTINUOUS
10
0.289069
20
0.421312
11
0.292589
21
0.423072
0
LINE
8
BLACK
6
CONTINUOUS
10
0.292589
20
0.423072
11
0.294046
21
0.424529
0
LINE
8
BLACK
6
CONTINUOUS
10
0.294046
20
0.424529
11
0.295806
21
0.428049
0
LINE
8
BLACK
6
CONTINUOUS
10
0.295806
20
0.428049
11
0.295806
21
0.433697
0
LINE
8
BLACK
6
CONTINUOUS
10
0.295806
20
0.433697
11
0.294046
21
0.437217
0
LINE
8
BLACK
6
CONTINUOUS
10
0.294046
20
0.437217
11
0.29259
21
0.438674
0
LINE
8
BLACK
6
CONTINUOUS
10
0.29259
20
0.438674
11
0.289069
21
0.440434
0
LINE
8
BLACK
6
CONTINUOUS
10
0.289069
20
0.440434
11
0.273872
21
0.440434
0
LINE
8
BLACK
6
CONTINUOUS
10
0.376073
20
0.450631
11
0.377675
21
0.448028
0
LINE
8
BLACK
6
CONTINUOUS
10
0.377675
20
0.448028
11
0.377761
21
0.444972
0
LINE
8
BLACK
6
CONTINUOUS
10
0.377761
20
0.444972
11
0.3637
21
0.385917
0
LINE
8
BLACK
6
CONTINUOUS
10
0.3637
20
0.385917
11
0.363658
21
0.385838
0
LINE
8
BLACK
6
CONTINUOUS
10
0.363658
20
0.385838
11
0.363657
21
0.385749
0
LINE
8
BLACK
6
CONTINUOUS
10
0.363657
20
0.385749
11
0.362934
21
0.384499
0
LINE
8
BLACK
6
CONTINUOUS
10
0.362934
20
0.384499
11
0.362246
21
0.383228
0
LINE
8
BLACK
6
CONTINUOUS
10
0.362246
20
0.383228
11
0.36217
21
0.383181
0
LINE
8
BLACK
6
CONTINUOUS
10
0.36217
20
0.383181
11
0.362126
21
0.383104
0
LINE
8
BLACK
6
CONTINUOUS
10
0.362126
20
0.383104
11
0.360874
21
0.382383
0
LINE
8
BLACK
6
CONTINUOUS
10
0.360874
20
0.382383
11
0.359643
21
0.381625
0
LINE
8
BLACK
6
CONTINUOUS
10
0.359643
20
0.381625
11
0.359554
21
0.381623
0
LINE
8
BLACK
6
CONTINUOUS
10
0.359554
20
0.381623
11
0.359477
21
0.381579
0
LINE
8
BLACK
6
CONTINUOUS
10
0.359477
20
0.381579
11
0.358032
21
0.38158
0
LINE
8
BLACK
6
CONTINUOUS
10
0.358032
20
0.38158
11
0.356587
21
0.38154
0
LINE
8
BLACK
6
CONTINUOUS
10
0.356587
20
0.38154
11
0.356509
21
0.381582
0
LINE
8
BLACK
6
CONTINUOUS
10
0.356509
20
0.381582
11
0.35642
21
0.381582
0
LINE
8
BLACK
6
CONTINUOUS
10
0.35642
20
0.381582
11
0.35517
21
0.382306
0
LINE
8
BLACK
6
CONTINUOUS
10
0.35517
20
0.382306
11
0.353898
21
0.382993
0
LINE
8
BLACK
6
CONTINUOUS
10
0.353898
20
0.382993
11
0.353851
21
0.383069
0
LINE
8
BLACK
6
CONTINUOUS
10
0.353851
20
0.383069
11
0.353774
21
0.383114
0
LINE
8
BLACK
6
CONTINUOUS
10
0.353774
20
0.383114
11
0.353053
21
0.384366
0
LINE
8
BLACK
6
CONTINUOUS
10
0.353053
20
0.384366
11
0.352296
21
0.385597
0
LINE
8
BLACK
6
CONTINUOUS
10
0.352296
20
0.385597
11
0.352293
21
0.385686
0
LINE
8
BLACK
6
CONTINUOUS
10
0.352293
20
0.385686
11
0.352249
21
0.385763
0
LINE
8
BLACK
6
CONTINUOUS
10
0.352249
20
0.385763
11
0.346706
21
0.406547
0
LINE
8
BLACK
6
CONTINUOUS
10
0.346706
20
0.406547
11
0.341164
21
0.385763
0
LINE
8
BLACK
6
CONTINUOUS
10
0.341164
20
0.385763
11
0.341119
21
0.385686
0
LINE
8
BLACK
6
CONTINUOUS
10
0.341119
20
0.385686
11
0.341117
21
0.385597
0
LINE
8
BLACK
6
CONTINUOUS
10
0.341117
20
0.385597
11
0.340359
21
0.384366
0
LINE
8
BLACK
6
CONTINUOUS
10
0.340359
20
0.384366
11
0.339639
21
0.383114
0
LINE
8
BLACK
6
CONTINUOUS
10
0.339639
20
0.383114
11
0.339562
21
0.383069
0
LINE
8
BLACK
6
CONTINUOUS
10
0.339562
20
0.383069
11
0.339515
21
0.382993
0
LINE
8
BLACK
6
CONTINUOUS
10
0.339515
20
0.382993
11
0.338243
21
0.382306
0
LINE
8
BLACK
6
CONTINUOUS
10
0.338243
20
0.382306
11
0.336993
21
0.381582
0
LINE
8
BLACK
6
CONTINUOUS
10
0.336993
20
0.381582
11
0.336904
21
0.381582
0
LINE
8
BLACK
6
CONTINUOUS
10
0.336904
20
0.381582
11
0.336826
21
0.38154
0
LINE
8
BLACK
6
CONTINUOUS
10
0.336826
20
0.38154
11
0.335381
21
0.38158
0
LINE
8
BLACK
6
CONTINUOUS
10
0.335381
20
0.38158
11
0.333936
21
0.381579
0
LINE
8
BLACK
6
CONTINUOUS
10
0.333936
20
0.381579
11
0.333859
21
0.381623
0
LINE
8
BLACK
6
CONTINUOUS
10
0.333859
20
0.381623
11
0.33377
21
0.381625
0
LINE
8
BLACK
6
CONTINUOUS
10
0.33377
20
0.381625
11
0.332539
21
0.382383
0
LINE
8
BLACK
6
CONTINUOUS
10
0.332539
20
0.382383
11
0.331287
21
0.383104
0
LINE
8
BLACK
6
CONTINUOUS
10
0.331287
20
0.383104
11
0.331242
21
0.383181
0
LINE
8
BLACK
6
CONTINUOUS
10
0.331242
20
0.383181
11
0.331166
21
0.383228
0
LINE
8
BLACK
6
CONTINUOUS
10
0.331166
20
0.383228
11
0.330479
21
0.384499
0
LINE
8
BLACK
6
CONTINUOUS
10
0.330479
20
0.384499
11
0.329755
21
0.385749
0
LINE
8
BLACK
6
CONTINUOUS
10
0.329755
20
0.385749
11
0.329755
21
0.385838
0
LINE
8
BLACK
6
CONTINUOUS
10
0.329755
20
0.385838
11
0.329713
21
0.385917
0
LINE
8
BLACK
6
CONTINUOUS
10
0.329713
20
0.385917
11
0.315652
21
0.444972
0
LINE
8
BLACK
6
CONTINUOUS
10
0.315652
20
0.444972
11
0.315738
21
0.448028
0
LINE
8
BLACK
6
CONTINUOUS
10
0.315738
20
0.448028
11
0.31734
21
0.450631
0
LINE
8
BLACK
6
CONTINUOUS
10
0.31734
20
0.450631
11
0.320029
21
0.452085
0
LINE
8
BLACK
6
CONTINUOUS
10
0.320029
20
0.452085
11
0.323085
21
0.451999
0
LINE
8
BLACK
6
CONTINUOUS
10
0.323085
20
0.451999
11
0.325688
21
0.450397
0
LINE
8
BLACK
6
CONTINUOUS
10
0.325688
20
0.450397
11
0.327142
21
0.447708
0
LINE
8
BLACK
6
CONTINUOUS
10
0.327142
20
0.447708
11
0.335782
21
0.41142
0
LINE
8
BLACK
6
CONTINUOUS
10
0.335782
20
0.41142
11
0.341
21
0.430988
0
LINE
8
BLACK
6
CONTINUOUS
10
0.341
20
0.430988
11
0.341004
21
0.430995
0
LINE
8
BLACK
6
CONTINUOUS
10
0.341004
20
0.430995
11
0.341004
21
0.431002
0
LINE
8
BLACK
6
CONTINUOUS
10
0.341004
20
0.431002
11
0.341774
21
0.432332
0
LINE
8
BLACK
6
CONTINUOUS
10
0.341774
20
0.432332
11
0.342526
21
0.433638
0
LINE
8
BLACK
6
CONTINUOUS
10
0.342526
20
0.433638
11
0.342532
21
0.433641
0
LINE
8
BLACK
6
CONTINUOUS
10
0.342532
20
0.433641
11
0.342536
21
0.433648
0
LINE
8
BLACK
6
CONTINUOUS
10
0.342536
20
0.433648
11
0.343848
21
0.434403
0
LINE
8
BLACK
6
CONTINUOUS
10
0.343848
20
0.434403
11
0.345171
21
0.435169
0
LINE
8
BLACK
6
CONTINUOUS
10
0.345171
20
0.435169
11
0.345179
21
0.435169
0
LINE
8
BLACK
6
CONTINUOUS
10
0.345179
20
0.435169
11
0.345185
21
0.435173
0
LINE
8
BLACK
6
CONTINUOUS
10
0.345185
20
0.435173
11
0.346706
21
0.435171
0
LINE
8
BLACK
6
CONTINUOUS
10
0.346706
20
0.435171
11
0.348228
21
0.435173
0
LINE
8
BLACK
6
CONTINUOUS
10
0.348228
20
0.435173
11
0.348234
21
0.435169
0
LINE
8
BLACK
6
CONTINUOUS
10
0.348234
20
0.435169
11
0.348242
21
0.435169
0
LINE
8
BLACK
6
CONTINUOUS
10
0.348242
20
0.435169
11
0.349565
21
0.434403
0
LINE
8
BLACK
6
CONTINUOUS
10
0.349565
20
0.434403
11
0.350877
21
0.433648
0
LINE
8
BLACK
6
CONTINUOUS
10
0.350877
20
0.433648
11
0.350881
21
0.433641
0
LINE
8
BLACK
6
CONTINUOUS
10
0.350881
20
0.433641
11
0.350887
21
0.433638
0
LINE
8
BLACK
6
CONTINUOUS
10
0.350887
20
0.433638
11
0.351646
21
0.432319
0
LINE
8
BLACK
6
CONTINUOUS
10
0.351646
20
0.432319
11
0.352409
21
0.431002
0
LINE
8
BLACK
6
CONTINUOUS
10
0.352409
20
0.431002
11
0.352409
21
0.430995
0
LINE
8
BLACK
6
CONTINUOUS
10
0.352409
20
0.430995
11
0.352412
21
0.430988
0
LINE
8
BLACK
6
CONTINUOUS
10
0.352412
20
0.430988
11
0.357631
21
0.41142
0
LINE
8
BLACK
6
CONTINUOUS
10
0.357631
20
0.41142
11
0.366271
21
0.447708
0
LINE
8
BLACK
6
CONTINUOUS
10
0.366271
20
0.447708
11
0.367724
21
0.450397
0
LINE
8
BLACK
6
CONTINUOUS
10
0.367724
20
0.450397
11
0.370328
21
0.451999
0
LINE
8
BLACK
6
CONTINUOUS
10
0.370328
20
0.451999
11
0.373384
21
0.452085
0
LINE
8
BLACK
6
CONTINUOUS
10
0.373384
20
0.452085
11
0.376073
21
0.450631
0
LINE
8
BLACK
6
CONTINUOUS
10
1.04029
20
0.395225
11
1.0403
21
0.399013
0
LINE
8
BLACK
6
CONTINUOUS
10
1.0403
20
0.399013
11
1.04034
21
0.402163
0
LINE
8
BLACK
6
CONTINUOUS
10
1.04034
20
0.402163
11
1.0404
21
0.404762
0
LINE
8
BLACK
6
CONTINUOUS
10
1.0404
20
0.404762
11
1.04051
21
0.406896
0
LINE
8
BLACK
6
CONTINUOUS
10
1.04051
20
0.406896
11
1.04066
21
0.40865
0
LINE
8
BLACK
6
CONTINUOUS
10
1.04066
20
0.40865
11
1.04087
21
0.41011
0
LINE
8
BLACK
6
CONTINUOUS
10
1.04087
20
0.41011
11
1.04115
21
0.411361
0
LINE
8
BLACK
6
CONTINUOUS
10
1.04115
20
0.411361
11
1.04151
21
0.41249
0
LINE
8
BLACK
6
CONTINUOUS
10
1.04151
20
0.41249
11
1.04196
21
0.413582
0
LINE
8
BLACK
6
CONTINUOUS
10
1.04196
20
0.413582
11
1.04251
21
0.414724
0
LINE
8
BLACK
6
CONTINUOUS
10
1.04251
20
0.414724
11
1.04256
21
0.414838
0
LINE
8
BLACK
6
CONTINUOUS
10
1.04256
20
0.414838
11
1.04438
21
0.4177
0
LINE
8
BLACK
6
CONTINUOUS
10
1.04438
20
0.4177
11
1.04662
21
0.419984
0
LINE
8
BLACK
6
CONTINUOUS
10
1.04662
20
0.419984
11
1.04929
21
0.421687
0
LINE
8
BLACK
6
CONTINUOUS
10
1.04929
20
0.421687
11
1.05213
21
0.422739
0
LINE
8
BLACK
6
CONTINUOUS
10
1.05213
20
0.422739
11
1.05402
21
0.423076
0
LINE
8
BLACK
6
CONTINUOUS
10
1.05402
20
0.423076
11
1.05631
21
0.423239
0
LINE
8
BLACK
6
CONTINUOUS
10
1.05631
20
0.423239
11
1.05876
21
0.423232
0
LINE
8
BLACK
6
CONTINUOUS
10
1.05876
20
0.423232
11
1.06113
21
0.423061
0
LINE
8
BLACK
6
CONTINUOUS
10
1.06113
20
0.423061
11
1.06316
21
0.422731
0
LINE
8
BLACK
6
CONTINUOUS
10
1.06316
20
0.422731
11
1.06401
21
0.422496
0
LINE
8
BLACK
6
CONTINUOUS
10
1.06401
20
0.422496
11
1.06705
21
0.421103
0
LINE
8
BLACK
6
CONTINUOUS
10
1.06705
20
0.421103
11
1.06968
21
0.41911
0
LINE
8
BLACK
6
CONTINUOUS
10
1.06968
20
0.41911
11
1.0719
21
0.416535
0
LINE
8
BLACK
6
CONTINUOUS
10
1.0719
20
0.416535
11
1.07259
21
0.41547
0
LINE
8
BLACK
6
CONTINUOUS
10
1.07259
20
0.41547
11
1.07313
21
0.414587
0
LINE
8
BLACK
6
CONTINUOUS
10
1.07313
20
0.414587
11
1.07349
21
0.414004
0
LINE
8
BLACK
6
CONTINUOUS
10
1.07349
20
0.414004
11
1.07356
21
0.413894
0
LINE
8
BLACK
6
CONTINUOUS
10
1.07356
20
0.413894
11
1.07389
21
0.41403
0
LINE
8
BLACK
6
CONTINUOUS
10
1.07389
20
0.41403
11
1.07478
21
0.414472
0
LINE
8
BLACK
6
CONTINUOUS
10
1.07478
20
0.414472
11
1.07617
21
0.415186
0
LINE
8
BLACK
6
CONTINUOUS
10
1.07617
20
0.415186
11
1.07798
21
0.416132
0
LINE
8
BLACK
6
CONTINUOUS
10
1.07798
20
0.416132
11
1.08014
21
0.417274
0
LINE
8
BLACK
6
CONTINUOUS
10
1.08014
20
0.417274
11
1.08258
21
0.418575
0
LINE
8
BLACK
6
CONTINUOUS
10
1.08258
20
0.418575
11
1.08523
21
0.419997
0
LINE
8
BLACK
6
CONTINUOUS
10
1.08523
20
0.419997
11
1.08531
21
0.42004
0
LINE
8
BLACK
6
CONTINUOUS
10
1.08531
20
0.42004
11
1.08798
21
0.421476
0
LINE
8
BLACK
6
CONTINUOUS
10
1.08798
20
0.421476
11
1.09045
21
0.422802
0
LINE
8
BLACK
6
CONTINUOUS
10
1.09045
20
0.422802
11
1.09265
21
0.423981
0
LINE
8
BLACK
6
CONTINUOUS
10
1.09265
20
0.423981
11
1.0945
21
0.424972
0
LINE
8
BLACK
6
CONTINUOUS
10
1.0945
20
0.424972
11
1.09593
21
0.425738
0
LINE
8
BLACK
6
CONTINUOUS
10
1.09593
20
0.425738
11
1.09688
21
0.426239
0
LINE
8
BLACK
6
CONTINUOUS
10
1.09688
20
0.426239
11
1.09726
21
0.426437
0
LINE
8
BLACK
6
CONTINUOUS
10
1.09726
20
0.426437
11
1.09726
21
0.426437
0
LINE
8
BLACK
6
CONTINUOUS
10
1.09726
20
0.426437
11
1.09736
21
0.426137
0
LINE
8
BLACK
6
CONTINUOUS
10
1.09736
20
0.426137
11
1.09745
21
0.42523
0
LINE
8
BLACK
6
CONTINUOUS
10
1.09745
20
0.42523
11
1.09751
21
0.423831
0
LINE
8
BLACK
6
CONTINUOUS
10
1.09751
20
0.423831
11
1.09755
21
0.422058
0
LINE
8
BLACK
6
CONTINUOUS
10
1.09755
20
0.422058
11
1.09756
21
0.420593
0
LINE
8
BLACK
6
CONTINUOUS
10
1.09756
20
0.420593
11
1.09756
21
0.414629
0
LINE
8
BLACK
6
CONTINUOUS
10
1.09756
20
0.414629
11
1.08717
21
0.409241
0
LINE
8
BLACK
6
CONTINUOUS
10
1.08717
20
0.409241
11
1.07677
21
0.403853
0
LINE
8
BLACK
6
CONTINUOUS
10
1.07677
20
0.403853
11
1.07657
21
0.393236
0
LINE
8
BLACK
6
CONTINUOUS
10
1.07657
20
0.393236
11
1.09756
21
0.393236
0
LINE
8
BLACK
6
CONTINUOUS
10
1.09756
20
0.393236
11
1.09756
21
0.382386
0
LINE
8
BLACK
6
CONTINUOUS
10
1.09756
20
0.382386
11
1.06891
21
0.382478
0
LINE
8
BLACK
6
CONTINUOUS
10
1.06891
20
0.382478
11
1.06764
21
0.382483
0
LINE
8
BLACK
6
CONTINUOUS
10
1.06764
20
0.382483
11
1.04026
21
0.382571
0
LINE
8
BLACK
6
CONTINUOUS
10
1.04026
20
0.382571
11
1.04029
21
0.395225
0
LINE
8
BLACK
6
CONTINUOUS
10
1.05837
20
0.412165
11
1.05568
21
0.411896
0
LINE
8
BLACK
6
CONTINUOUS
10
1.05568
20
0.411896
11
1.05343
21
0.411073
0
LINE
8
BLACK
6
CONTINUOUS
10
1.05343
20
0.411073
11
1.05165
21
0.409705
0
LINE
8
BLACK
6
CONTINUOUS
10
1.05165
20
0.409705
11
1.05035
21
0.407804
0
LINE
8
BLACK
6
CONTINUOUS
10
1.05035
20
0.407804
11
1.04999
21
0.406969
0
LINE
8
BLACK
6
CONTINUOUS
10
1.04999
20
0.406969
11
1.04972
21
0.405986
0
LINE
8
BLACK
6
CONTINUOUS
10
1.04972
20
0.405986
11
1.04951
21
0.4046
0
LINE
8
BLACK
6
CONTINUOUS
10
1.04951
20
0.4046
11
1.04935
21
0.402714
0
LINE
8
BLACK
6
CONTINUOUS
10
1.04935
20
0.402714
11
1.04924
21
0.400233
0
LINE
8
BLACK
6
CONTINUOUS
10
1.04924
20
0.400233
11
1.04921
21
0.399292
0
LINE
8
BLACK
6
CONTINUOUS
10
1.04921
20
0.399292
11
1.04902
21
0.393236
0
LINE
8
BLACK
6
CONTINUOUS
10
1.04902
20
0.393236
11
1.06764
21
0.393236
0
LINE
8
BLACK
6
CONTINUOUS
10
1.06764
20
0.393236
11
1.06747
21
0.399111
0
LINE
8
BLACK
6
CONTINUOUS
10
1.06747
20
0.399111
11
1.06736
21
0.401773
0
LINE
8
BLACK
6
CONTINUOUS
10
1.06736
20
0.401773
11
1.06721
21
0.403809
0
LINE
8
BLACK
6
CONTINUOUS
10
1.06721
20
0.403809
11
1.06702
21
0.405317
0
LINE
8
BLACK
6
CONTINUOUS
10
1.06702
20
0.405317
11
1.06676
21
0.406394
0
LINE
8
BLACK
6
CONTINUOUS
10
1.06676
20
0.406394
11
1.06669
21
0.406588
0
LINE
8
BLACK
6
CONTINUOUS
10
1.06669
20
0.406588
11
1.06556
21
0.408838
0
LINE
8
BLACK
6
CONTINUOUS
10
1.06556
20
0.408838
11
1.06403
21
0.410491
0
LINE
8
BLACK
6
CONTINUOUS
10
1.06403
20
0.410491
11
1.06209
21
0.41157
0
LINE
8
BLACK
6
CONTINUOUS
10
1.06209
20
0.41157
11
1.05969
21
0.412099
0
LINE
8
BLACK
6
CONTINUOUS
10
1.05969
20
0.412099
11
1.05837
21
0.412165
0
LINE
8
BLACK
6
CONTINUOUS
10
0.179229
20
0.463678
11
0.179921
21
0.462008
0
LINE
8
BLACK
6
CONTINUOUS
10
0.179921
20
0.462008
11
0.179921
21
0.393504
0
LINE
8
BLACK
6
CONTINUOUS
10
0.179921
20
0.393504
11
0.216535
21
0.393504
0
LINE
8
BLACK
6
CONTINUOUS
10
0.216535
20
0.393504
11
0.218206
21
0.392812
0
LINE
8
BLACK
6
CONTINUOUS
10
0.218206
20
0.392812
11
0.218898
21
0.391142
0
LINE
8
BLACK
6
CONTINUOUS
10
0.218898
20
0.391142
11
0.218206
21
0.389471
0
LINE
8
BLACK
6
CONTINUOUS
10
0.218206
20
0.389471
11
0.216535
21
0.38878
0
LINE
8
BLACK
6
CONTINUOUS
10
0.216535
20
0.38878
11
0.177559
21
0.38878
0
LINE
8
BLACK
6
CONTINUOUS
10
0.177559
20
0.38878
11
0.175889
21
0.389471
0
LINE
8
BLACK
6
CONTINUOUS
10
0.175889
20
0.389471
11
0.175197
21
0.391142
0
LINE
8
BLACK
6
CONTINUOUS
10
0.175197
20
0.391142
11
0.175197
21
0.459646
0
LINE
8
BLACK
6
CONTINUOUS
10
0.175197
20
0.459646
11
0.120472
21
0.459646
0
LINE
8
BLACK
6
CONTINUOUS
10
0.120472
20
0.459646
11
0.118802
21
0.460338
0
LINE
8
BLACK
6
CONTINUOUS
10
0.118802
20
0.460338
11
0.11811
21
0.462008
0
LINE
8
BLACK
6
CONTINUOUS
10
0.11811
20
0.462008
11
0.118802
21
0.463678
0
LINE
8
BLACK
6
CONTINUOUS
10
0.118802
20
0.463678
11
0.120472
21
0.46437
0
LINE
8
BLACK
6
CONTINUOUS
10
0.120472
20
0.46437
11
0.177559
21
0.46437
0
LINE
8
BLACK
6
CONTINUOUS
10
0.177559
20
0.46437
11
0.179229
21
0.463678
0
LINE
8
BLACK
6
CONTINUOUS
10
1.13679
20
0.434225
11
1.14107
21
0.433473
0
LINE
8
BLACK
6
CONTINUOUS
10
1.14107
20
0.433473
11
1.14522
21
0.432744
0
LINE
8
BLACK
6
CONTINUOUS
10
1.14522
20
0.432744
11
1.14917
21
0.432049
0
LINE
8
BLACK
6
CONTINUOUS
10
1.14917
20
0.432049
11
1.15285
21
0.431401
0
LINE
8
BLACK
6
CONTINUOUS
10
1.15285
20
0.431401
11
1.1562
21
0.430812
0
LINE
8
BLACK
6
CONTINUOUS
10
1.1562
20
0.430812
11
1.15915
21
0.430292
0
LINE
8
BLACK
6
CONTINUOUS
10
1.15915
20
0.430292
11
1.16163
21
0.429855
0
LINE
8
BLACK
6
CONTINUOUS
10
1.16163
20
0.429855
11
1.16358
21
0.429511
0
LINE
8
BLACK
6
CONTINUOUS
10
1.16358
20
0.429511
11
1.16492
21
0.429273
0
LINE
8
BLACK
6
CONTINUOUS
10
1.16492
20
0.429273
11
1.16544
21
0.429181
0
LINE
8
BLACK
6
CONTINUOUS
10
1.16544
20
0.429181
11
1.16878
21
0.428581
0
LINE
8
BLACK
6
CONTINUOUS
10
1.16878
20
0.428581
11
1.16878
21
0.423381
0
LINE
8
BLACK
6
CONTINUOUS
10
1.16878
20
0.423381
11
1.16878
21
0.421349
0
LINE
8
BLACK
6
CONTINUOUS
10
1.16878
20
0.421349
11
1.16876
21
0.41993
0
LINE
8
BLACK
6
CONTINUOUS
10
1.16876
20
0.41993
11
1.1687
21
0.419014
0
LINE
8
BLACK
6
CONTINUOUS
10
1.1687
20
0.419014
11
1.16859
21
0.418491
0
LINE
8
BLACK
6
CONTINUOUS
10
1.16859
20
0.418491
11
1.16841
21
0.418251
0
LINE
8
BLACK
6
CONTINUOUS
10
1.16841
20
0.418251
11
1.16814
21
0.418185
0
LINE
8
BLACK
6
CONTINUOUS
10
1.16814
20
0.418185
11
1.16801
21
0.418182
0
LINE
8
BLACK
6
CONTINUOUS
10
1.16801
20
0.418182
11
1.16755
21
0.418243
0
LINE
8
BLACK
6
CONTINUOUS
10
1.16755
20
0.418243
11
1.16645
21
0.418417
0
LINE
8
BLACK
6
CONTINUOUS
10
1.16645
20
0.418417
11
1.16478
21
0.418693
0
LINE
8
BLACK
6
CONTINUOUS
10
1.16478
20
0.418693
11
1.16261
21
0.419061
0
LINE
8
BLACK
6
CONTINUOUS
10
1.16261
20
0.419061
11
1.15999
21
0.419507
0
LINE
8
BLACK
6
CONTINUOUS
10
1.15999
20
0.419507
11
1.15699
21
0.420021
0
LINE
8
BLACK
6
CONTINUOUS
10
1.15699
20
0.420021
11
1.15368
21
0.420591
0
LINE
8
BLACK
6
CONTINUOUS
10
1.15368
20
0.420591
11
1.15013
21
0.421206
0
LINE
8
BLACK
6
CONTINUOUS
10
1.15013
20
0.421206
11
1.1464
21
0.421855
0
LINE
8
BLACK
6
CONTINUOUS
10
1.1464
20
0.421855
11
1.14256
21
0.422525
0
LINE
8
BLACK
6
CONTINUOUS
10
1.14256
20
0.422525
11
1.13867
21
0.423206
0
LINE
8
BLACK
6
CONTINUOUS
10
1.13867
20
0.423206
11
1.13479
21
0.423885
0
LINE
8
BLACK
6
CONTINUOUS
10
1.13479
20
0.423885
11
1.131
21
0.424552
0
LINE
8
BLACK
6
CONTINUOUS
10
1.131
20
0.424552
11
1.12736
21
0.425195
0
LINE
8
BLACK
6
CONTINUOUS
10
1.12736
20
0.425195
11
1.12393
21
0.425802
0
LINE
8
BLACK
6
CONTINUOUS
10
1.12393
20
0.425802
11
1.12078
21
0.426362
0
LINE
8
BLACK
6
CONTINUOUS
10
1.12078
20
0.426362
11
1.11798
21
0.426863
0
LINE
8
BLACK
6
CONTINUOUS
10
1.11798
20
0.426863
11
1.11559
21
0.427295
0
LINE
8
BLACK
6
CONTINUOUS
10
1.11559
20
0.427295
11
1.11367
21
0.427645
0
LINE
8
BLACK
6
CONTINUOUS
10
1.11367
20
0.427645
11
1.1123
21
0.427902
0
LINE
8
BLACK
6
CONTINUOUS
10
1.1123
20
0.427902
11
1.11153
21
0.428055
0
LINE
8
BLACK
6
CONTINUOUS
10
1.11153
20
0.428055
11
1.11139
21
0.428092
0
LINE
8
BLACK
6
CONTINUOUS
10
1.11139
20
0.428092
11
1.11136
21
0.428473
0
LINE
8
BLACK
6
CONTINUOUS
10
1.11136
20
0.428473
11
1.11134
21
0.429447
0
LINE
8
BLACK
6
CONTINUOUS
10
1.11134
20
0.429447
11
1.11135
21
0.430882
0
LINE
8
BLACK
6
CONTINUOUS
10
1.11135
20
0.430882
11
1.11137
21
0.432647
0
LINE
8
BLACK
6
CONTINUOUS
10
1.11137
20
0.432647
11
1.11138
21
0.433437
0
LINE
8
BLACK
6
CONTINUOUS
10
1.11138
20
0.433437
11
1.11148
21
0.43867
0
LINE
8
BLACK
6
CONTINUOUS
10
1.11148
20
0.43867
11
1.13679
21
0.434225
0
LINE
8
BLACK
6
CONTINUOUS
10
0.664708
20
0.428002
11
0.662546
21
0.430163
0
LINE
8
BLACK
6
CONTINUOUS
10
0.662546
20
0.430163
11
0.661755
21
0.433116
0
LINE
8
BLACK
6
CONTINUOUS
10
0.661755
20
0.433116
11
0.661755
21
0.452801
0
LINE
8
BLACK
6
CONTINUOUS
10
0.661755
20
0.452801
11
0.662106
21
0.454112
0
LINE
8
BLACK
6
CONTINUOUS
10
0.662106
20
0.454112
11
0.662378
21
0.455442
0
LINE
8
BLACK
6
CONTINUOUS
10
0.662378
20
0.455442
11
0.66519
21
0.461066
0
LINE
8
BLACK
6
CONTINUOUS
10
0.66519
20
0.461066
11
0.665821
21
0.461778
0
LINE
8
BLACK
6
CONTINUOUS
10
0.665821
20
0.461778
11
0.666297
21
0.462601
0
LINE
8
BLACK
6
CONTINUOUS
10
0.666297
20
0.462601
11
0.669109
21
0.465413
0
LINE
8
BLACK
6
CONTINUOUS
10
0.669109
20
0.465413
11
0.669932
21
0.465889
0
LINE
8
BLACK
6
CONTINUOUS
10
0.669932
20
0.465889
11
0.670644
21
0.466519
0
LINE
8
BLACK
6
CONTINUOUS
10
0.670644
20
0.466519
11
0.676268
21
0.469332
0
LINE
8
BLACK
6
CONTINUOUS
10
0.676268
20
0.469332
11
0.677598
21
0.469604
0
LINE
8
BLACK
6
CONTINUOUS
10
0.677598
20
0.469604
11
0.678909
21
0.469955
0
LINE
8
BLACK
6
CONTINUOUS
10
0.678909
20
0.469955
11
0.684533
21
0.469955
0
LINE
8
BLACK
6
CONTINUOUS
10
0.684533
20
0.469955
11
0.685844
21
0.469604
0
LINE
8
BLACK
6
CONTINUOUS
10
0.685844
20
0.469604
11
0.687174
21
0.469332
0
LINE
8
BLACK
6
CONTINUOUS
10
0.687174
20
0.469332
11
0.692799
21
0.466519
0
LINE
8
BLACK
6
CONTINUOUS
10
0.692799
20
0.466519
11
0.69351
21
0.465889
0
LINE
8
BLACK
6
CONTINUOUS
10
0.69351
20
0.465889
11
0.694333
21
0.465413
0
LINE
8
BLACK
6
CONTINUOUS
10
0.694333
20
0.465413
11
0.694387
21
0.465359
0
LINE
8
BLACK
6
CONTINUOUS
10
0.694387
20
0.465359
11
0.694418
21
0.465413
0
LINE
8
BLACK
6
CONTINUOUS
10
0.694418
20
0.465413
11
0.69723
21
0.468225
0
LINE
8
BLACK
6
CONTINUOUS
10
0.69723
20
0.468225
11
0.698054
21
0.468701
0
LINE
8
BLACK
6
CONTINUOUS
10
0.698054
20
0.468701
11
0.698765
21
0.469332
0
LINE
8
BLACK
6
CONTINUOUS
10
0.698765
20
0.469332
11
0.704389
21
0.472144
0
LINE
8
BLACK
6
CONTINUOUS
10
0.704389
20
0.472144
11
0.705719
21
0.472416
0
LINE
8
BLACK
6
CONTINUOUS
10
0.705719
20
0.472416
11
0.70703
21
0.472767
0
LINE
8
BLACK
6
CONTINUOUS
10
0.70703
20
0.472767
11
0.715467
21
0.472767
0
LINE
8
BLACK
6
CONTINUOUS
10
0.715467
20
0.472767
11
0.716778
21
0.472416
0
LINE
8
BLACK
6
CONTINUOUS
10
0.716778
20
0.472416
11
0.718108
21
0.472144
0
LINE
8
BLACK
6
CONTINUOUS
10
0.718108
20
0.472144
11
0.723732
21
0.469332
0
LINE
8
BLACK
6
CONTINUOUS
10
0.723732
20
0.469332
11
0.724444
21
0.468701
0
LINE
8
BLACK
6
CONTINUOUS
10
0.724444
20
0.468701
11
0.725267
21
0.468225
0
LINE
8
BLACK
6
CONTINUOUS
10
0.725267
20
0.468225
11
0.728079
21
0.465413
0
LINE
8
BLACK
6
CONTINUOUS
10
0.728079
20
0.465413
11
0.728554
21
0.46459
0
LINE
8
BLACK
6
CONTINUOUS
10
0.728554
20
0.46459
11
0.729185
21
0.463878
0
LINE
8
BLACK
6
CONTINUOUS
10
0.729185
20
0.463878
11
0.731997
21
0.458254
0
LINE
8
BLACK
6
CONTINUOUS
10
0.731997
20
0.458254
11
0.73227
21
0.456924
0
LINE
8
BLACK
6
CONTINUOUS
10
0.73227
20
0.456924
11
0.732621
21
0.455613
0
LINE
8
BLACK
6
CONTINUOUS
10
0.732621
20
0.455613
11
0.732621
21
0.433116
0
LINE
8
BLACK
6
CONTINUOUS
10
0.732621
20
0.433116
11
0.73183
21
0.430163
0
LINE
8
BLACK
6
CONTINUOUS
10
0.73183
20
0.430163
11
0.729668
21
0.428002
0
LINE
8
BLACK
6
CONTINUOUS
10
0.729668
20
0.428002
11
0.726715
21
0.42721
0
LINE
8
BLACK
6
CONTINUOUS
10
0.726715
20
0.42721
11
0.66766
21
0.42721
0
LINE
8
BLACK
6
CONTINUOUS
10
0.66766
20
0.42721
11
0.664708
21
0.428002
0
LINE
8
BLACK
6
CONTINUOUS
10
0.680303
20
0.458144
11
0.676783
21
0.456384
0
LINE
8
BLACK
6
CONTINUOUS
10
0.676783
20
0.456384
11
0.675326
21
0.454927
0
LINE
8
BLACK
6
CONTINUOUS
10
0.675326
20
0.454927
11
0.673566
21
0.451407
0
LINE
8
BLACK
6
CONTINUOUS
10
0.673566
20
0.451407
11
0.673566
21
0.439021
0
LINE
8
BLACK
6
CONTINUOUS
10
0.673566
20
0.439021
11
0.689876
21
0.439021
0
LINE
8
BLACK
6
CONTINUOUS
10
0.689876
20
0.439021
11
0.689876
21
0.451407
0
LINE
8
BLACK
6
CONTINUOUS
10
0.689876
20
0.451407
11
0.688116
21
0.454927
0
LINE
8
BLACK
6
CONTINUOUS
10
0.688116
20
0.454927
11
0.686659
21
0.456384
0
LINE
8
BLACK
6
CONTINUOUS
10
0.686659
20
0.456384
11
0.683139
21
0.458144
0
LINE
8
BLACK
6
CONTINUOUS
10
0.683139
20
0.458144
11
0.680303
21
0.458144
0
LINE
8
BLACK
6
CONTINUOUS
10
0.708424
20
0.460956
11
0.704904
21
0.459196
0
LINE
8
BLACK
6
CONTINUOUS
10
0.704904
20
0.459196
11
0.703756
21
0.458047
0
LINE
8
BLACK
6
CONTINUOUS
10
0.703756
20
0.458047
11
0.701687
21
0.451843
0
LINE
8
BLACK
6
CONTINUOUS
10
0.701687
20
0.451843
11
0.701687
21
0.439021
0
LINE
8
BLACK
6
CONTINUOUS
10
0.701687
20
0.439021
11
0.72081
21
0.439021
0
LINE
8
BLACK
6
CONTINUOUS
10
0.72081
20
0.439021
11
0.72081
21
0.454219
0
LINE
8
BLACK
6
CONTINUOUS
10
0.72081
20
0.454219
11
0.71905
21
0.457739
0
LINE
8
BLACK
6
CONTINUOUS
10
0.71905
20
0.457739
11
0.717593
21
0.459196
0
LINE
8
BLACK
6
CONTINUOUS
10
0.717593
20
0.459196
11
0.714073
21
0.460956
0
LINE
8
BLACK
6
CONTINUOUS
10
0.714073
20
0.460956
11
0.708424
21
0.460956
0
LINE
8
BLACK
6
CONTINUOUS
10
1.04166
20
0.474196
11
1.04308
21
0.473993
0
LINE
8
BLACK
6
CONTINUOUS
10
1.04308
20
0.473993
11
1.04479
21
0.473709
0
LINE
8
BLACK
6
CONTINUOUS
10
1.04479
20
0.473709
11
1.04524
21
0.47363
0
LINE
8
BLACK
6
CONTINUOUS
10
1.04524
20
0.47363
11
1.04702
21
0.473316
0
LINE
8
BLACK
6
CONTINUOUS
10
1.04702
20
0.473316
11
1.04854
21
0.473053
0
LINE
8
BLACK
6
CONTINUOUS
10
1.04854
20
0.473053
11
1.04966
21
0.472866
0
LINE
8
BLACK
6
CONTINUOUS
10
1.04966
20
0.472866
11
1.05025
21
0.472779
0
LINE
8
BLACK
6
CONTINUOUS
10
1.05025
20
0.472779
11
1.05029
21
0.472775
0
LINE
8
BLACK
6
CONTINUOUS
10
1.05029
20
0.472775
11
1.05036
21
0.472428
0
LINE
8
BLACK
6
CONTINUOUS
10
1.05036
20
0.472428
11
1.05042
21
0.471442
0
LINE
8
BLACK
6
CONTINUOUS
10
1.05042
20
0.471442
11
1.05047
21
0.469903
0
LINE
8
BLACK
6
CONTINUOUS
10
1.05047
20
0.469903
11
1.05051
21
0.467896
0
LINE
8
BLACK
6
CONTINUOUS
10
1.05051
20
0.467896
11
1.05054
21
0.465506
0
LINE
8
BLACK
6
CONTINUOUS
10
1.05054
20
0.465506
11
1.05056
21
0.462818
0
LINE
8
BLACK
6
CONTINUOUS
10
1.05056
20
0.462818
11
1.05056
21
0.461049
0
LINE
8
BLACK
6
CONTINUOUS
10
1.05056
20
0.461049
11
1.05056
21
0.449325
0
LINE
8
BLACK
6
CONTINUOUS
10
1.05056
20
0.449325
11
1.05246
21
0.448949
0
LINE
8
BLACK
6
CONTINUOUS
10
1.05246
20
0.448949
11
1.05372
21
0.448708
0
LINE
8
BLACK
6
CONTINUOUS
10
1.05372
20
0.448708
11
1.05539
21
0.448403
0
LINE
8
BLACK
6
CONTINUOUS
10
1.05539
20
0.448403
11
1.05715
21
0.448088
0
LINE
8
BLACK
6
CONTINUOUS
10
1.05715
20
0.448088
11
1.05761
21
0.448008
0
LINE
8
BLACK
6
CONTINUOUS
10
1.05761
20
0.448008
11
1.05916
21
0.447735
0
LINE
8
BLACK
6
CONTINUOUS
10
1.05916
20
0.447735
11
1.06051
21
0.44749
0
LINE
8
BLACK
6
CONTINUOUS
10
1.06051
20
0.44749
11
1.06146
21
0.447312
0
LINE
8
BLACK
6
CONTINUOUS
10
1.06146
20
0.447312
11
1.06168
21
0.447267
0
LINE
8
BLACK
6
CONTINUOUS
10
1.06168
20
0.447267
11
1.06249
21
0.447091
0
LINE
8
BLACK
6
CONTINUOUS
10
1.06249
20
0.447091
11
1.06249
21
0.456136
0
LINE
8
BLACK
6
CONTINUOUS
10
1.06249
20
0.456136
11
1.0625
21
0.459061
0
LINE
8
BLACK
6
CONTINUOUS
10
1.0625
20
0.459061
11
1.06253
21
0.461329
0
LINE
8
BLACK
6
CONTINUOUS
10
1.06253
20
0.461329
11
1.06257
21
0.463007
0
LINE
8
BLACK
6
CONTINUOUS
10
1.06257
20
0.463007
11
1.06265
21
0.46416
0
LINE
8
BLACK
6
CONTINUOUS
10
1.06265
20
0.46416
11
1.06275
21
0.464854
0
LINE
8
BLACK
6
CONTINUOUS
10
1.06275
20
0.464854
11
1.06288
21
0.465155
0
LINE
8
BLACK
6
CONTINUOUS
10
1.06288
20
0.465155
11
1.06294
21
0.465181
0
LINE
8
BLACK
6
CONTINUOUS
10
1.06294
20
0.465181
11
1.06344
21
0.465118
0
LINE
8
BLACK
6
CONTINUOUS
10
1.06344
20
0.465118
11
1.06448
21
0.464952
0
LINE
8
BLACK
6
CONTINUOUS
10
1.06448
20
0.464952
11
1.06588
21
0.464711
0
LINE
8
BLACK
6
CONTINUOUS
10
1.06588
20
0.464711
11
1.06749
21
0.464428
0
LINE
8
BLACK
6
CONTINUOUS
10
1.06749
20
0.464428
11
1.06912
21
0.464132
0
LINE
8
BLACK
6
CONTINUOUS
10
1.06912
20
0.464132
11
1.0706
21
0.463853
0
LINE
8
BLACK
6
CONTINUOUS
10
1.0706
20
0.463853
11
1.07177
21
0.463623
0
LINE
8
BLACK
6
CONTINUOUS
10
1.07177
20
0.463623
11
1.07216
21
0.463539
0
LINE
8
BLACK
6
CONTINUOUS
10
1.07216
20
0.463539
11
1.07298
21
0.46336
0
LINE
8
BLACK
6
CONTINUOUS
10
1.07298
20
0.46336
11
1.07298
21
0.445311
0
LINE
8
BLACK
6
CONTINUOUS
10
1.07298
20
0.445311
11
1.07379
21
0.445126
0
LINE
8
BLACK
6
CONTINUOUS
10
1.07379
20
0.445126
11
1.07435
21
0.445017
0
LINE
8
BLACK
6
CONTINUOUS
10
1.07435
20
0.445017
11
1.07553
21
0.444805
0
LINE
8
BLACK
6
CONTINUOUS
10
1.07553
20
0.444805
11
1.07721
21
0.444508
0
LINE
8
BLACK
6
CONTINUOUS
10
1.07721
20
0.444508
11
1.0793
21
0.444144
0
LINE
8
BLACK
6
CONTINUOUS
10
1.0793
20
0.444144
11
1.08168
21
0.44373
0
LINE
8
BLACK
6
CONTINUOUS
10
1.08168
20
0.44373
11
1.08418
21
0.4433
0
LINE
8
BLACK
6
CONTINUOUS
10
1.08418
20
0.4433
11
1.08684
21
0.442844
0
LINE
8
BLACK
6
CONTINUOUS
10
1.08684
20
0.442844
11
1.08936
21
0.442407
0
LINE
8
BLACK
6
CONTINUOUS
10
1.08936
20
0.442407
11
1.09162
21
0.442011
0
LINE
8
BLACK
6
CONTINUOUS
10
1.09162
20
0.442011
11
1.09352
21
0.441676
0
LINE
8
BLACK
6
CONTINUOUS
10
1.09352
20
0.441676
11
1.09492
21
0.441423
0
LINE
8
BLACK
6
CONTINUOUS
10
1.09492
20
0.441423
11
1.09566
21
0.441283
0
LINE
8
BLACK
6
CONTINUOUS
10
1.09566
20
0.441283
11
1.09756
21
0.440907
0
LINE
8
BLACK
6
CONTINUOUS
10
1.09756
20
0.440907
11
1.09756
21
0.435691
0
LINE
8
BLACK
6
CONTINUOUS
10
1.09756
20
0.435691
11
1.09755
21
0.43363
0
LINE
8
BLACK
6
CONTINUOUS
10
1.09755
20
0.43363
11
1.09752
21
0.432186
0
LINE
8
BLACK
6
CONTINUOUS
10
1.09752
20
0.432186
11
1.09745
21
0.431255
0
LINE
8
BLACK
6
CONTINUOUS
10
1.09745
20
0.431255
11
1.09732
21
0.43073
0
LINE
8
BLACK
6
CONTINUOUS
10
1.09732
20
0.43073
11
1.09714
21
0.430507
0
LINE
8
BLACK
6
CONTINUOUS
10
1.09714
20
0.430507
11
1.09698
21
0.430474
0
LINE
8
BLACK
6
CONTINUOUS
10
1.09698
20
0.430474
11
1.09652
21
0.430535
0
LINE
8
BLACK
6
CONTINUOUS
10
1.09652
20
0.430535
11
1.09542
21
0.430711
0
LINE
8
BLACK
6
CONTINUOUS
10
1.09542
20
0.430711
11
1.09374
21
0.430991
0
LINE
8
BLACK
6
CONTINUOUS
10
1.09374
20
0.430991
11
1.09156
21
0.431362
0
LINE
8
BLACK
6
CONTINUOUS
10
1.09156
20
0.431362
11
1.08893
21
0.431812
0
LINE
8
BLACK
6
CONTINUOUS
10
1.08893
20
0.431812
11
1.08593
21
0.432332
0
LINE
8
BLACK
6
CONTINUOUS
10
1.08593
20
0.432332
11
1.08262
21
0.432908
0
LINE
8
BLACK
6
CONTINUOUS
10
1.08262
20
0.432908
11
1.07906
21
0.433529
0
LINE
8
BLACK
6
CONTINUOUS
10
1.07906
20
0.433529
11
1.07532
21
0.434183
0
LINE
8
BLACK
6
CONTINUOUS
10
1.07532
20
0.434183
11
1.07147
21
0.43486
0
LINE
8
BLACK
6
CONTINUOUS
10
1.07147
20
0.43486
11
1.06758
21
0.435547
0
LINE
8
BLACK
6
CONTINUOUS
10
1.06758
20
0.435547
11
1.0637
21
0.436232
0
LINE
8
BLACK
6
CONTINUOUS
10
1.0637
20
0.436232
11
1.0599
21
0.436904
0
LINE
8
BLACK
6
CONTINUOUS
10
1.0599
20
0.436904
11
1.05626
21
0.437552
0
LINE
8
BLACK
6
CONTINUOUS
10
1.05626
20
0.437552
11
1.05283
21
0.438164
0
LINE
8
BLACK
6
CONTINUOUS
10
1.05283
20
0.438164
11
1.04969
21
0.438728
0
LINE
8
BLACK
6
CONTINUOUS
10
1.04969
20
0.438728
11
1.04689
21
0.439233
0
LINE
8
BLACK
6
CONTINUOUS
10
1.04689
20
0.439233
11
1.04451
21
0.439666
0
LINE
8
BLACK
6
CONTINUOUS
10
1.04451
20
0.439666
11
1.0426
21
0.440017
0
LINE
8
BLACK
6
CONTINUOUS
10
1.0426
20
0.440017
11
1.04124
21
0.440274
0
LINE
8
BLACK
6
CONTINUOUS
10
1.04124
20
0.440274
11
1.0405
21
0.440425
0
LINE
8
BLACK
6
CONTINUOUS
10
1.0405
20
0.440425
11
1.04037
21
0.440458
0
LINE
8
BLACK
6
CONTINUOUS
10
1.04037
20
0.440458
11
1.04032
21
0.440841
0
LINE
8
BLACK
6
CONTINUOUS
10
1.04032
20
0.440841
11
1.04027
21
0.44186
0
LINE
8
BLACK
6
CONTINUOUS
10
1.04027
20
0.44186
11
1.04022
21
0.443427
0
LINE
8
BLACK
6
CONTINUOUS
10
1.04022
20
0.443427
11
1.04018
21
0.445456
0
LINE
8
BLACK
6
CONTINUOUS
10
1.04018
20
0.445456
11
1.04015
21
0.44786
0
LINE
8
BLACK
6
CONTINUOUS
10
1.04015
20
0.44786
11
1.04012
21
0.450552
0
LINE
8
BLACK
6
CONTINUOUS
10
1.04012
20
0.450552
11
1.0401
21
0.453445
0
LINE
8
BLACK
6
CONTINUOUS
10
1.0401
20
0.453445
11
1.04009
21
0.456451
0
LINE
8
BLACK
6
CONTINUOUS
10
1.04009
20
0.456451
11
1.04008
21
0.459483
0
LINE
8
BLACK
6
CONTINUOUS
10
1.04008
20
0.459483
11
1.04008
21
0.462455
0
LINE
8
BLACK
6
CONTINUOUS
10
1.04008
20
0.462455
11
1.04008
21
0.46528
0
LINE
8
BLACK
6
CONTINUOUS
10
1.04008
20
0.46528
11
1.0401
21
0.46787
0
LINE
8
BLACK
6
CONTINUOUS
10
1.0401
20
0.46787
11
1.04012
21
0.470138
0
LINE
8
BLACK
6
CONTINUOUS
10
1.04012
20
0.470138
11
1.04015
21
0.471997
0
LINE
8
BLACK
6
CONTINUOUS
10
1.04015
20
0.471997
11
1.04019
21
0.47336
0
LINE
8
BLACK
6
CONTINUOUS
10
1.04019
20
0.47336
11
1.04024
21
0.47414
0
LINE
8
BLACK
6
CONTINUOUS
10
1.04024
20
0.47414
11
1.04027
21
0.474291
0
LINE
8
BLACK
6
CONTINUOUS
10
1.04027
20
0.474291
11
1.04068
21
0.474302
0
LINE
8
BLACK
6
CONTINUOUS
10
1.04068
20
0.474302
11
1.04166
21
0.474196
0
LINE
8
BLACK
6
CONTINUOUS
10
0.970563
20
0.463207
11
0.971132
21
0.463108
0
LINE
8
BLACK
6
CONTINUOUS
10
0.971132
20
0.463108
11
0.972355
21
0.462894
0
LINE
8
BLACK
6
CONTINUOUS
10
0.972355
20
0.462894
11
0.974174
21
0.462575
0
LINE
8
BLACK
6
CONTINUOUS
10
0.974174
20
0.462575
11
0.976531
21
0.462161
0
LINE
8
BLACK
6
CONTINUOUS
10
0.976531
20
0.462161
11
0.979367
21
0.461663
0
LINE
8
BLACK
6
CONTINUOUS
10
0.979367
20
0.461663
11
0.982625
21
0.461091
0
LINE
8
BLACK
6
CONTINUOUS
10
0.982625
20
0.461091
11
0.986246
21
0.460455
0
LINE
8
BLACK
6
CONTINUOUS
10
0.986246
20
0.460455
11
0.990172
21
0.459764
0
LINE
8
BLACK
6
CONTINUOUS
10
0.990172
20
0.459764
11
0.994345
21
0.459031
0
LINE
8
BLACK
6
CONTINUOUS
10
0.994345
20
0.459031
11
0.998707
21
0.458264
0
LINE
8
BLACK
6
CONTINUOUS
10
0.998707
20
0.458264
11
0.999224
21
0.458173
0
LINE
8
BLACK
6
CONTINUOUS
10
0.999224
20
0.458173
11
1.02652
21
0.453372
0
LINE
8
BLACK
6
CONTINUOUS
10
1.02652
20
0.453372
11
1.02662
21
0.448069
0
LINE
8
BLACK
6
CONTINUOUS
10
1.02662
20
0.448069
11
1.02665
21
0.445914
0
LINE
8
BLACK
6
CONTINUOUS
10
1.02665
20
0.445914
11
1.02663
21
0.444395
0
LINE
8
BLACK
6
CONTINUOUS
10
1.02663
20
0.444395
11
1.02656
21
0.443423
0
LINE
8
BLACK
6
CONTINUOUS
10
1.02656
20
0.443423
11
1.02643
21
0.442914
0
LINE
8
BLACK
6
CONTINUOUS
10
1.02643
20
0.442914
11
1.02626
21
0.442778
0
LINE
8
BLACK
6
CONTINUOUS
10
1.02626
20
0.442778
11
1.02584
21
0.442841
0
LINE
8
BLACK
6
CONTINUOUS
10
1.02584
20
0.442841
11
1.02476
21
0.44302
0
LINE
8
BLACK
6
CONTINUOUS
10
1.02476
20
0.44302
11
1.02308
21
0.443306
0
LINE
8
BLACK
6
CONTINUOUS
10
1.02308
20
0.443306
11
1.02085
21
0.443689
0
LINE
8
BLACK
6
CONTINUOUS
10
1.02085
20
0.443689
11
1.01813
21
0.444161
0
LINE
8
BLACK
6
CONTINUOUS
10
1.01813
20
0.444161
11
1.01497
21
0.44471
0
LINE
8
BLACK
6
CONTINUOUS
10
1.01497
20
0.44471
11
1.01143
21
0.445328
0
LINE
8
BLACK
6
CONTINUOUS
10
1.01143
20
0.445328
11
1.00755
21
0.446005
0
LINE
8
BLACK
6
CONTINUOUS
10
1.00755
20
0.446005
11
1.00341
21
0.446732
0
LINE
8
BLACK
6
CONTINUOUS
10
1.00341
20
0.446732
11
0.99904
21
0.447499
0
LINE
8
BLACK
6
CONTINUOUS
10
0.99904
20
0.447499
11
0.997597
21
0.447753
0
LINE
8
BLACK
6
CONTINUOUS
10
0.997597
20
0.447753
11
0.969398
21
0.452717
0
LINE
8
BLACK
6
CONTINUOUS
10
0.969398
20
0.452717
11
0.969197
21
0.46344
0
LINE
8
BLACK
6
CONTINUOUS
10
0.969197
20
0.46344
11
0.970563
21
0.463207
0
LINE
8
BLACK
6
CONTINUOUS
10
1.11216
20
0.479568
11
1.11324
21
0.479388
0
LINE
8
BLACK
6
CONTINUOUS
10
1.11324
20
0.479388
11
1.11492
21
0.479102
0
LINE
8
BLACK
6
CONTINUOUS
10
1.11492
20
0.479102
11
1.11715
21
0.478718
0
LINE
8
BLACK
6
CONTINUOUS
10
1.11715
20
0.478718
11
1.11987
21
0.478247
0
LINE
8
BLACK
6
CONTINUOUS
10
1.11987
20
0.478247
11
1.12303
21
0.477697
0
LINE
8
BLACK
6
CONTINUOUS
10
1.12303
20
0.477697
11
1.12657
21
0.477079
0
LINE
8
BLACK
6
CONTINUOUS
10
1.12657
20
0.477079
11
1.13045
21
0.476401
0
LINE
8
BLACK
6
CONTINUOUS
10
1.13045
20
0.476401
11
1.13459
21
0.475673
0
LINE
8
BLACK
6
CONTINUOUS
10
1.13459
20
0.475673
11
1.13896
21
0.474906
0
LINE
8
BLACK
6
CONTINUOUS
10
1.13896
20
0.474906
11
1.1404
21
0.474651
0
LINE
8
BLACK
6
CONTINUOUS
10
1.1404
20
0.474651
11
1.1686
21
0.469684
0
LINE
8
BLACK
6
CONTINUOUS
10
1.1686
20
0.469684
11
1.1688
21
0.458968
0
LINE
8
BLACK
6
CONTINUOUS
10
1.1688
20
0.458968
11
1.16744
21
0.459202
0
LINE
8
BLACK
6
CONTINUOUS
10
1.16744
20
0.459202
11
1.16687
21
0.459302
0
LINE
8
BLACK
6
CONTINUOUS
10
1.16687
20
0.459302
11
1.16564
21
0.459516
0
LINE
8
BLACK
6
CONTINUOUS
10
1.16564
20
0.459516
11
1.16383
21
0.459834
0
LINE
8
BLACK
6
CONTINUOUS
10
1.16383
20
0.459834
11
1.16147
21
0.460248
0
LINE
8
BLACK
6
CONTINUOUS
10
1.16147
20
0.460248
11
1.15863
21
0.460746
0
LINE
8
BLACK
6
CONTINUOUS
10
1.15863
20
0.460746
11
1.15538
21
0.461317
0
LINE
8
BLACK
6
CONTINUOUS
10
1.15538
20
0.461317
11
1.15175
21
0.461953
0
LINE
8
BLACK
6
CONTINUOUS
10
1.15175
20
0.461953
11
1.14783
21
0.462643
0
LINE
8
BLACK
6
CONTINUOUS
10
1.14783
20
0.462643
11
1.14365
21
0.463376
0
LINE
8
BLACK
6
CONTINUOUS
10
1.14365
20
0.463376
11
1.13929
21
0.464142
0
LINE
8
BLACK
6
CONTINUOUS
10
1.13929
20
0.464142
11
1.13878
21
0.464233
0
LINE
8
BLACK
6
CONTINUOUS
10
1.13878
20
0.464233
11
1.11148
21
0.469029
0
LINE
8
BLACK
6
CONTINUOUS
10
1.11148
20
0.469029
11
1.11138
21
0.474336
0
LINE
8
BLACK
6
CONTINUOUS
10
1.11138
20
0.474336
11
1.11135
21
0.476491
0
LINE
8
BLACK
6
CONTINUOUS
10
1.11135
20
0.476491
11
1.11137
21
0.478012
0
LINE
8
BLACK
6
CONTINUOUS
10
1.11137
20
0.478012
11
1.11144
21
0.478984
0
LINE
8
BLACK
6
CONTINUOUS
10
1.11144
20
0.478984
11
1.11157
21
0.479494
0
LINE
8
BLACK
6
CONTINUOUS
10
1.11157
20
0.479494
11
1.11174
21
0.479631
0
LINE
8
BLACK
6
CONTINUOUS
10
1.11174
20
0.479631
11
1.11216
21
0.479568
0
LINE
8
BLACK
6
CONTINUOUS
10
1.08825
20
0.503341
11
1.08897
21
0.503202
0
LINE
8
BLACK
6
CONTINUOUS
10
1.08897
20
0.503202
11
1.09018
21
0.50298
0
LINE
8
BLACK
6
CONTINUOUS
10
1.09018
20
0.50298
11
1.09167
21
0.502714
0
LINE
8
BLACK
6
CONTINUOUS
10
1.09167
20
0.502714
11
1.09232
21
0.502601
0
LINE
8
BLACK
6
CONTINUOUS
10
1.09232
20
0.502601
11
1.0939
21
0.502325
0
LINE
8
BLACK
6
CONTINUOUS
10
1.0939
20
0.502325
11
1.09531
21
0.502073
0
LINE
8
BLACK
6
CONTINUOUS
10
1.09531
20
0.502073
11
1.09633
21
0.501885
0
LINE
8
BLACK
6
CONTINUOUS
10
1.09633
20
0.501885
11
1.09657
21
0.501838
0
LINE
8
BLACK
6
CONTINUOUS
10
1.09657
20
0.501838
11
1.09756
21
0.501639
0
LINE
8
BLACK
6
CONTINUOUS
10
1.09756
20
0.501639
11
1.09756
21
0.486483
0
LINE
8
BLACK
6
CONTINUOUS
10
1.09756
20
0.486483
11
1.09756
21
0.48262
0
LINE
8
BLACK
6
CONTINUOUS
10
1.09756
20
0.48262
11
1.09754
21
0.479427
0
LINE
8
BLACK
6
CONTINUOUS
10
1.09754
20
0.479427
11
1.09752
21
0.476851
0
LINE
8
BLACK
6
CONTINUOUS
10
1.09752
20
0.476851
11
1.09748
21
0.474838
0
LINE
8
BLACK
6
CONTINUOUS
10
1.09748
20
0.474838
11
1.09743
21
0.473337
0
LINE
8
BLACK
6
CONTINUOUS
10
1.09743
20
0.473337
11
1.09736
21
0.472293
0
LINE
8
BLACK
6
CONTINUOUS
10
1.09736
20
0.472293
11
1.09727
21
0.471655
0
LINE
8
BLACK
6
CONTINUOUS
10
1.09727
20
0.471655
11
1.09716
21
0.471368
0
LINE
8
BLACK
6
CONTINUOUS
10
1.09716
20
0.471368
11
1.09711
21
0.471339
0
LINE
8
BLACK
6
CONTINUOUS
10
1.09711
20
0.471339
11
1.09669
21
0.471402
0
LINE
8
BLACK
6
CONTINUOUS
10
1.09669
20
0.471402
11
1.09561
21
0.471582
0
LINE
8
BLACK
6
CONTINUOUS
10
1.09561
20
0.471582
11
1.09393
21
0.471868
0
LINE
8
BLACK
6
CONTINUOUS
10
1.09393
20
0.471868
11
1.09171
21
0.472252
0
LINE
8
BLACK
6
CONTINUOUS
10
1.09171
20
0.472252
11
1.08899
21
0.472723
0
LINE
8
BLACK
6
CONTINUOUS
10
1.08899
20
0.472723
11
1.08583
21
0.473273
0
LINE
8
BLACK
6
CONTINUOUS
10
1.08583
20
0.473273
11
1.08229
21
0.473891
0
LINE
8
BLACK
6
CONTINUOUS
10
1.08229
20
0.473891
11
1.07841
21
0.474569
0
LINE
8
BLACK
6
CONTINUOUS
10
1.07841
20
0.474569
11
1.07427
21
0.475296
0
LINE
8
BLACK
6
CONTINUOUS
10
1.07427
20
0.475296
11
1.0699
21
0.476064
0
LINE
8
BLACK
6
CONTINUOUS
10
1.0699
20
0.476064
11
1.06846
21
0.476318
0
LINE
8
BLACK
6
CONTINUOUS
10
1.06846
20
0.476318
11
1.04026
21
0.481286
0
LINE
8
BLACK
6
CONTINUOUS
10
1.04026
20
0.481286
11
1.04016
21
0.48661
0
LINE
8
BLACK
6
CONTINUOUS
10
1.04016
20
0.48661
11
1.04014
21
0.488479
0
LINE
8
BLACK
6
CONTINUOUS
10
1.04014
20
0.488479
11
1.04015
21
0.490061
0
LINE
8
BLACK
6
CONTINUOUS
10
1.04015
20
0.490061
11
1.04019
21
0.49123
0
LINE
8
BLACK
6
CONTINUOUS
10
1.04019
20
0.49123
11
1.04025
21
0.49186
0
LINE
8
BLACK
6
CONTINUOUS
10
1.04025
20
0.49186
11
1.04029
21
0.491935
0
LINE
8
BLACK
6
CONTINUOUS
10
1.04029
20
0.491935
11
1.0407
21
0.491874
0
LINE
8
BLACK
6
CONTINUOUS
10
1.0407
20
0.491874
11
1.04175
21
0.491699
0
LINE
8
BLACK
6
CONTINUOUS
10
1.04175
20
0.491699
11
1.04337
21
0.491424
0
LINE
8
BLACK
6
CONTINUOUS
10
1.04337
20
0.491424
11
1.04548
21
0.491061
0
LINE
8
BLACK
6
CONTINUOUS
10
1.04548
20
0.491061
11
1.048
21
0.490622
0
LINE
8
BLACK
6
CONTINUOUS
10
1.048
20
0.490622
11
1.05088
21
0.490122
0
LINE
8
BLACK
6
CONTINUOUS
10
1.05088
20
0.490122
11
1.05403
21
0.489572
0
LINE
8
BLACK
6
CONTINUOUS
10
1.05403
20
0.489572
11
1.05738
21
0.488986
0
LINE
8
BLACK
6
CONTINUOUS
10
1.05738
20
0.488986
11
1.06086
21
0.488376
0
LINE
8
BLACK
6
CONTINUOUS
10
1.06086
20
0.488376
11
1.0644
21
0.487754
0
LINE
8
BLACK
6
CONTINUOUS
10
1.0644
20
0.487754
11
1.06792
21
0.487135
0
LINE
8
BLACK
6
CONTINUOUS
10
1.06792
20
0.487135
11
1.07135
21
0.48653
0
LINE
8
BLACK
6
CONTINUOUS
10
1.07135
20
0.48653
11
1.07461
21
0.485953
0
LINE
8
BLACK
6
CONTINUOUS
10
1.07461
20
0.485953
11
1.07764
21
0.485417
0
LINE
8
BLACK
6
CONTINUOUS
10
1.07764
20
0.485417
11
1.08036
21
0.484933
0
LINE
8
BLACK
6
CONTINUOUS
10
1.08036
20
0.484933
11
1.08269
21
0.484515
0
LINE
8
BLACK
6
CONTINUOUS
10
1.08269
20
0.484515
11
1.08458
21
0.484177
0
LINE
8
BLACK
6
CONTINUOUS
10
1.08458
20
0.484177
11
1.08593
21
0.483929
0
LINE
8
BLACK
6
CONTINUOUS
10
1.08593
20
0.483929
11
1.08668
21
0.483787
0
LINE
8
BLACK
6
CONTINUOUS
10
1.08668
20
0.483787
11
1.08681
21
0.483759
0
LINE
8
BLACK
6
CONTINUOUS
10
1.08681
20
0.483759
11
1.08699
21
0.483743
0
LINE
8
BLACK
6
CONTINUOUS
10
1.08699
20
0.483743
11
1.08714
21
0.483872
0
LINE
8
BLACK
6
CONTINUOUS
10
1.08714
20
0.483872
11
1.08725
21
0.484222
0
LINE
8
BLACK
6
CONTINUOUS
10
1.08725
20
0.484222
11
1.08733
21
0.484871
0
LINE
8
BLACK
6
CONTINUOUS
10
1.08733
20
0.484871
11
1.08738
21
0.485896
0
LINE
8
BLACK
6
CONTINUOUS
10
1.08738
20
0.485896
11
1.08741
21
0.487375
0
LINE
8
BLACK
6
CONTINUOUS
10
1.08741
20
0.487375
11
1.08743
21
0.489383
0
LINE
8
BLACK
6
CONTINUOUS
10
1.08743
20
0.489383
11
1.08744
21
0.492
0
LINE
8
BLACK
6
CONTINUOUS
10
1.08744
20
0.492
11
1.08744
21
0.493544
0
LINE
8
BLACK
6
CONTINUOUS
10
1.08744
20
0.493544
11
1.08744
21
0.503517
0
LINE
8
BLACK
6
CONTINUOUS
10
1.08744
20
0.503517
11
1.08825
21
0.503341
0
LINE
8
BLACK
6
CONTINUOUS
10
0.995609
20
0.499841
11
0.999935
21
0.49908
0
LINE
8
BLACK
6
CONTINUOUS
10
0.999935
20
0.49908
11
1.00411
21
0.498347
0
LINE
8
BLACK
6
CONTINUOUS
10
1.00411
20
0.498347
11
1.00806
21
0.497653
0
LINE
8
BLACK
6
CONTINUOUS
10
1.00806
20
0.497653
11
1.01172
21
0.497008
0
LINE
8
BLACK
6
CONTINUOUS
10
1.01172
20
0.497008
11
1.01505
21
0.496425
0
LINE
8
BLACK
6
CONTINUOUS
10
1.01505
20
0.496425
11
1.01797
21
0.495913
0
LINE
8
BLACK
6
CONTINUOUS
10
1.01797
20
0.495913
11
1.02041
21
0.495485
0
LINE
8
BLACK
6
CONTINUOUS
10
1.02041
20
0.495485
11
1.02233
21
0.49515
0
LINE
8
BLACK
6
CONTINUOUS
10
1.02233
20
0.49515
11
1.02365
21
0.49492
0
LINE
8
BLACK
6
CONTINUOUS
10
1.02365
20
0.49492
11
1.02426
21
0.494814
0
LINE
8
BLACK
6
CONTINUOUS
10
1.02426
20
0.494814
11
1.0267
21
0.4944
0
LINE
8
BLACK
6
CONTINUOUS
10
1.0267
20
0.4944
11
1.0267
21
0.483606
0
LINE
8
BLACK
6
CONTINUOUS
10
1.0267
20
0.483606
11
1.02589
21
0.483801
0
LINE
8
BLACK
6
CONTINUOUS
10
1.02589
20
0.483801
11
1.02541
21
0.483893
0
LINE
8
BLACK
6
CONTINUOUS
10
1.02541
20
0.483893
11
1.02428
21
0.4841
0
LINE
8
BLACK
6
CONTINUOUS
10
1.02428
20
0.4841
11
1.02254
21
0.484411
0
LINE
8
BLACK
6
CONTINUOUS
10
1.02254
20
0.484411
11
1.02026
21
0.484818
0
LINE
8
BLACK
6
CONTINUOUS
10
1.02026
20
0.484818
11
1.0175
21
0.485309
0
LINE
8
BLACK
6
CONTINUOUS
10
1.0175
20
0.485309
11
1.0143
21
0.485876
0
LINE
8
BLACK
6
CONTINUOUS
10
1.0143
20
0.485876
11
1.01072
21
0.486507
0
LINE
8
BLACK
6
CONTINUOUS
10
1.01072
20
0.486507
11
1.00683
21
0.487194
0
LINE
8
BLACK
6
CONTINUOUS
10
1.00683
20
0.487194
11
1.00267
21
0.487926
0
LINE
8
BLACK
6
CONTINUOUS
10
1.00267
20
0.487926
11
0.998309
21
0.488693
0
LINE
8
BLACK
6
CONTINUOUS
10
0.998309
20
0.488693
11
0.997258
21
0.488877
0
LINE
8
BLACK
6
CONTINUOUS
10
0.997258
20
0.488877
11
0.992873
21
0.489648
0
LINE
8
BLACK
6
CONTINUOUS
10
0.992873
20
0.489648
11
0.988697
21
0.490384
0
LINE
8
BLACK
6
CONTINUOUS
10
0.988697
20
0.490384
11
0.984785
21
0.491077
0
LINE
8
BLACK
6
CONTINUOUS
10
0.984785
20
0.491077
11
0.981192
21
0.491715
0
LINE
8
BLACK
6
CONTINUOUS
10
0.981192
20
0.491715
11
0.977971
21
0.49229
0
LINE
8
BLACK
6
CONTINUOUS
10
0.977971
20
0.49229
11
0.975176
21
0.492792
0
LINE
8
BLACK
6
CONTINUOUS
10
0.975176
20
0.492792
11
0.972862
21
0.49321
0
LINE
8
BLACK
6
CONTINUOUS
10
0.972862
20
0.49321
11
0.971084
21
0.493536
0
LINE
8
BLACK
6
CONTINUOUS
10
0.971084
20
0.493536
11
0.969895
21
0.49376
0
LINE
8
BLACK
6
CONTINUOUS
10
0.969895
20
0.49376
11
0.969349
21
0.493871
0
LINE
8
BLACK
6
CONTINUOUS
10
0.969349
20
0.493871
11
0.96932
21
0.493881
0
LINE
8
BLACK
6
CONTINUOUS
10
0.96932
20
0.493881
11
0.969283
21
0.494266
0
LINE
8
BLACK
6
CONTINUOUS
10
0.969283
20
0.494266
11
0.969264
21
0.495243
0
LINE
8
BLACK
6
CONTINUOUS
10
0.969264
20
0.495243
11
0.969264
21
0.49668
0
LINE
8
BLACK
6
CONTINUOUS
10
0.969264
20
0.49668
11
0.969284
21
0.498447
0
LINE
8
BLACK
6
CONTINUOUS
10
0.969284
20
0.498447
11
0.969297
21
0.499229
0
LINE
8
BLACK
6
CONTINUOUS
10
0.969297
20
0.499229
11
0.969398
21
0.504454
0
LINE
8
BLACK
6
CONTINUOUS
10
0.969398
20
0.504454
11
0.995609
21
0.499841
0
LINE
8
BLACK
6
CONTINUOUS
10
1.11211
20
0.521049
11
1.11259
21
0.520959
0
LINE
8
BLACK
6
CONTINUOUS
10
1.11259
20
0.520959
11
1.11373
21
0.520754
0
LINE
8
BLACK
6
CONTINUOUS
10
1.11373
20
0.520754
11
1.11546
21
0.520446
0
LINE
8
BLACK
6
CONTINUOUS
10
1.11546
20
0.520446
11
1.11774
21
0.520043
0
LINE
8
BLACK
6
CONTINUOUS
10
1.11774
20
0.520043
11
1.12049
21
0.519556
0
LINE
8
BLACK
6
CONTINUOUS
10
1.12049
20
0.519556
11
1.12368
21
0.518996
0
LINE
8
BLACK
6
CONTINUOUS
10
1.12368
20
0.518996
11
1.12724
21
0.518371
0
LINE
8
BLACK
6
CONTINUOUS
10
1.12724
20
0.518371
11
1.1311
21
0.517693
0
LINE
8
BLACK
6
CONTINUOUS
10
1.1311
20
0.517693
11
1.13523
21
0.516971
0
LINE
8
BLACK
6
CONTINUOUS
10
1.13523
20
0.516971
11
1.13955
21
0.516215
0
LINE
8
BLACK
6
CONTINUOUS
10
1.13955
20
0.516215
11
1.13986
21
0.516161
0
LINE
8
BLACK
6
CONTINUOUS
10
1.13986
20
0.516161
11
1.1442
21
0.515402
0
LINE
8
BLACK
6
CONTINUOUS
10
1.1442
20
0.515402
11
1.14835
21
0.514676
0
LINE
8
BLACK
6
CONTINUOUS
10
1.14835
20
0.514676
11
1.15225
21
0.513993
0
LINE
8
BLACK
6
CONTINUOUS
10
1.15225
20
0.513993
11
1.15585
21
0.513362
0
LINE
8
BLACK
6
CONTINUOUS
10
1.15585
20
0.513362
11
1.15908
21
0.512794
0
LINE
8
BLACK
6
CONTINUOUS
10
1.15908
20
0.512794
11
1.16189
21
0.512298
0
LINE
8
BLACK
6
CONTINUOUS
10
1.16189
20
0.512298
11
1.16422
21
0.511886
0
LINE
8
BLACK
6
CONTINUOUS
10
1.16422
20
0.511886
11
1.16602
21
0.511567
0
LINE
8
BLACK
6
CONTINUOUS
10
1.16602
20
0.511567
11
1.16723
21
0.511352
0
LINE
8
BLACK
6
CONTINUOUS
10
1.16723
20
0.511352
11
1.16778
21
0.51125
0
LINE
8
BLACK
6
CONTINUOUS
10
1.16778
20
0.51125
11
1.16779
21
0.511247
0
LINE
8
BLACK
6
CONTINUOUS
10
1.16779
20
0.511247
11
1.16878
21
0.511038
0
LINE
8
BLACK
6
CONTINUOUS
10
1.16878
20
0.511038
11
1.16878
21
0.505825
0
LINE
8
BLACK
6
CONTINUOUS
10
1.16878
20
0.505825
11
1.16877
21
0.503654
0
LINE
8
BLACK
6
CONTINUOUS
10
1.16877
20
0.503654
11
1.16871
21
0.502127
0
LINE
8
BLACK
6
CONTINUOUS
10
1.16871
20
0.502127
11
1.16861
21
0.501164
0
LINE
8
BLACK
6
CONTINUOUS
10
1.16861
20
0.501164
11
1.16846
21
0.500686
0
LINE
8
BLACK
6
CONTINUOUS
10
1.16846
20
0.500686
11
1.16833
21
0.500598
0
LINE
8
BLACK
6
CONTINUOUS
10
1.16833
20
0.500598
11
1.16791
21
0.500657
0
LINE
8
BLACK
6
CONTINUOUS
10
1.16791
20
0.500657
11
1.16684
21
0.500832
0
LINE
8
BLACK
6
CONTINUOUS
10
1.16684
20
0.500832
11
1.16516
21
0.501113
0
LINE
8
BLACK
6
CONTINUOUS
10
1.16516
20
0.501113
11
1.16293
21
0.501492
0
LINE
8
BLACK
6
CONTINUOUS
10
1.16293
20
0.501492
11
1.16021
21
0.501958
0
LINE
8
BLACK
6
CONTINUOUS
10
1.16021
20
0.501958
11
1.15705
21
0.502503
0
LINE
8
BLACK
6
CONTINUOUS
10
1.15705
20
0.502503
11
1.1535
21
0.503117
0
LINE
8
BLACK
6
CONTINUOUS
10
1.1535
20
0.503117
11
1.14963
21
0.50379
0
LINE
8
BLACK
6
CONTINUOUS
10
1.14963
20
0.50379
11
1.14548
21
0.504513
0
LINE
8
BLACK
6
CONTINUOUS
10
1.14548
20
0.504513
11
1.14111
21
0.505278
0
LINE
8
BLACK
6
CONTINUOUS
10
1.14111
20
0.505278
11
1.13959
21
0.505544
0
LINE
8
BLACK
6
CONTINUOUS
10
1.13959
20
0.505544
11
1.1113
21
0.510503
0
LINE
8
BLACK
6
CONTINUOUS
10
1.1113
20
0.510503
11
1.1113
21
0.521233
0
LINE
8
BLACK
6
CONTINUOUS
10
1.1113
20
0.521233
11
1.11211
21
0.521049
0
LINE
8
BLACK
6
CONTINUOUS
10
1.0558
20
0.540715
11
1.05876
21
0.538431
0
LINE
8
BLACK
6
CONTINUOUS
10
1.05876
20
0.538431
11
1.06156
21
0.536272
0
LINE
8
BLACK
6
CONTINUOUS
10
1.06156
20
0.536272
11
1.06416
21
0.534279
0
LINE
8
BLACK
6
CONTINUOUS
10
1.06416
20
0.534279
11
1.06649
21
0.532495
0
LINE
8
BLACK
6
CONTINUOUS
10
1.06649
20
0.532495
11
1.06851
21
0.530964
0
LINE
8
BLACK
6
CONTINUOUS
10
1.06851
20
0.530964
11
1.07015
21
0.529726
0
LINE
8
BLACK
6
CONTINUOUS
10
1.07015
20
0.529726
11
1.07136
21
0.528825
0
LINE
8
BLACK
6
CONTINUOUS
10
1.07136
20
0.528825
11
1.07209
21
0.528303
0
LINE
8
BLACK
6
CONTINUOUS
10
1.07209
20
0.528303
11
1.07225
21
0.528195
0
LINE
8
BLACK
6
CONTINUOUS
10
1.07225
20
0.528195
11
1.07282
21
0.528018
0
LINE
8
BLACK
6
CONTINUOUS
10
1.07282
20
0.528018
11
1.07401
21
0.52774
0
LINE
8
BLACK
6
CONTINUOUS
10
1.07401
20
0.52774
11
1.07573
21
0.52738
0
LINE
8
BLACK
6
CONTINUOUS
10
1.07573
20
0.52738
11
1.07788
21
0.526957
0
LINE
8
BLACK
6
CONTINUOUS
10
1.07788
20
0.526957
11
1.08037
21
0.526489
0
LINE
8
BLACK
6
CONTINUOUS
10
1.08037
20
0.526489
11
1.08312
21
0.525995
0
LINE
8
BLACK
6
CONTINUOUS
10
1.08312
20
0.525995
11
1.08473
21
0.525713
0
LINE
8
BLACK
6
CONTINUOUS
10
1.08473
20
0.525713
11
1.08755
21
0.525222
0
LINE
8
BLACK
6
CONTINUOUS
10
1.08755
20
0.525222
11
1.09017
21
0.524763
0
LINE
8
BLACK
6
CONTINUOUS
10
1.09017
20
0.524763
11
1.09248
21
0.524353
0
LINE
8
BLACK
6
CONTINUOUS
10
1.09248
20
0.524353
11
1.0944
21
0.524007
0
LINE
8
BLACK
6
CONTINUOUS
10
1.0944
20
0.524007
11
1.09585
21
0.523741
0
LINE
8
BLACK
6
CONTINUOUS
10
1.09585
20
0.523741
11
1.09672
21
0.523573
0
LINE
8
BLACK
6
CONTINUOUS
10
1.09672
20
0.523573
11
1.09693
21
0.523526
0
LINE
8
BLACK
6
CONTINUOUS
10
1.09693
20
0.523526
11
1.09718
21
0.523385
0
LINE
8
BLACK
6
CONTINUOUS
10
1.09718
20
0.523385
11
1.09735
21
0.523058
0
LINE
8
BLACK
6
CONTINUOUS
10
1.09735
20
0.523058
11
1.09746
21
0.522435
0
LINE
8
BLACK
6
CONTINUOUS
10
1.09746
20
0.522435
11
1.09753
21
0.521404
0
LINE
8
BLACK
6
CONTINUOUS
10
1.09753
20
0.521404
11
1.09756
21
0.519852
0
LINE
8
BLACK
6
CONTINUOUS
10
1.09756
20
0.519852
11
1.09756
21
0.518121
0
LINE
8
BLACK
6
CONTINUOUS
10
1.09756
20
0.518121
11
1.09755
21
0.516273
0
LINE
8
BLACK
6
CONTINUOUS
10
1.09755
20
0.516273
11
1.09751
21
0.514712
0
LINE
8
BLACK
6
CONTINUOUS
10
1.09751
20
0.514712
11
1.09745
21
0.513567
0
LINE
8
BLACK
6
CONTINUOUS
10
1.09745
20
0.513567
11
1.09737
21
0.512964
0
LINE
8
BLACK
6
CONTINUOUS
10
1.09737
20
0.512964
11
1.09734
21
0.512904
0
LINE
8
BLACK
6
CONTINUOUS
10
1.09734
20
0.512904
11
1.09694
21
0.512964
0
LINE
8
BLACK
6
CONTINUOUS
10
1.09694
20
0.512964
11
1.09592
21
0.513136
0
LINE
8
BLACK
6
CONTINUOUS
10
1.09592
20
0.513136
11
1.09434
21
0.513404
0
LINE
8
BLACK
6
CONTINUOUS
10
1.09434
20
0.513404
11
1.09231
21
0.513755
0
LINE
8
BLACK
6
CONTINUOUS
10
1.09231
20
0.513755
11
1.08989
21
0.514175
0
LINE
8
BLACK
6
CONTINUOUS
10
1.08989
20
0.514175
11
1.08718
21
0.514649
0
LINE
8
BLACK
6
CONTINUOUS
10
1.08718
20
0.514649
11
1.08473
21
0.515078
0
LINE
8
BLACK
6
CONTINUOUS
10
1.08473
20
0.515078
11
1.07234
21
0.517253
0
LINE
8
BLACK
6
CONTINUOUS
10
1.07234
20
0.517253
11
1.0564
21
0.510559
0
LINE
8
BLACK
6
CONTINUOUS
10
1.0564
20
0.510559
11
1.0532
21
0.509218
0
LINE
8
BLACK
6
CONTINUOUS
10
1.0532
20
0.509218
11
1.05021
21
0.507967
0
LINE
8
BLACK
6
CONTINUOUS
10
1.05021
20
0.507967
11
1.04749
21
0.506833
0
LINE
8
BLACK
6
CONTINUOUS
10
1.04749
20
0.506833
11
1.04511
21
0.505843
0
LINE
8
BLACK
6
CONTINUOUS
10
1.04511
20
0.505843
11
1.04313
21
0.505024
0
LINE
8
BLACK
6
CONTINUOUS
10
1.04313
20
0.505024
11
1.04162
21
0.504403
0
LINE
8
BLACK
6
CONTINUOUS
10
1.04162
20
0.504403
11
1.04064
21
0.504008
0
LINE
8
BLACK
6
CONTINUOUS
10
1.04064
20
0.504008
11
1.04026
21
0.503865
0
LINE
8
BLACK
6
CONTINUOUS
10
1.04026
20
0.503865
11
1.04026
21
0.503865
0
LINE
8
BLACK
6
CONTINUOUS
10
1.04026
20
0.503865
11
1.0402
21
0.504206
0
LINE
8
BLACK
6
CONTINUOUS
10
1.0402
20
0.504206
11
1.04016
21
0.505148
0
LINE
8
BLACK
6
CONTINUOUS
10
1.04016
20
0.505148
11
1.04014
21
0.506567
0
LINE
8
BLACK
6
CONTINUOUS
10
1.04014
20
0.506567
11
1.04014
21
0.508342
0
LINE
8
BLACK
6
CONTINUOUS
10
1.04014
20
0.508342
11
1.04016
21
0.509511
0
LINE
8
BLACK
6
CONTINUOUS
10
1.04016
20
0.509511
11
1.04026
21
0.515158
0
LINE
8
BLACK
6
CONTINUOUS
10
1.04026
20
0.515158
11
1.05155
21
0.519725
0
LINE
8
BLACK
6
CONTINUOUS
10
1.05155
20
0.519725
11
1.05422
21
0.520813
0
LINE
8
BLACK
6
CONTINUOUS
10
1.05422
20
0.520813
11
1.05667
21
0.521818
0
LINE
8
BLACK
6
CONTINUOUS
10
1.05667
20
0.521818
11
1.05882
21
0.522709
0
LINE
8
BLACK
6
CONTINUOUS
10
1.05882
20
0.522709
11
1.06058
21
0.523453
0
LINE
8
BLACK
6
CONTINUOUS
10
1.06058
20
0.523453
11
1.06189
21
0.524017
0
LINE
8
BLACK
6
CONTINUOUS
10
1.06189
20
0.524017
11
1.06266
21
0.524369
0
LINE
8
BLACK
6
CONTINUOUS
10
1.06266
20
0.524369
11
1.06283
21
0.524473
0
LINE
8
BLACK
6
CONTINUOUS
10
1.06283
20
0.524473
11
1.06255
21
0.52472
0
LINE
8
BLACK
6
CONTINUOUS
10
1.06255
20
0.52472
11
1.06175
21
0.525349
0
LINE
8
BLACK
6
CONTINUOUS
10
1.06175
20
0.525349
11
1.06049
21
0.526311
0
LINE
8
BLACK
6
CONTINUOUS
10
1.06049
20
0.526311
11
1.05884
21
0.52756
0
LINE
8
BLACK
6
CONTINUOUS
10
1.05884
20
0.52756
11
1.05686
21
0.529048
0
LINE
8
BLACK
6
CONTINUOUS
10
1.05686
20
0.529048
11
1.0546
21
0.530726
0
LINE
8
BLACK
6
CONTINUOUS
10
1.0546
20
0.530726
11
1.05215
21
0.532549
0
LINE
8
BLACK
6
CONTINUOUS
10
1.05215
20
0.532549
11
1.05159
21
0.53296
0
LINE
8
BLACK
6
CONTINUOUS
10
1.05159
20
0.53296
11
1.04909
21
0.534817
0
LINE
8
BLACK
6
CONTINUOUS
10
1.04909
20
0.534817
11
1.04677
21
0.536548
0
LINE
8
BLACK
6
CONTINUOUS
10
1.04677
20
0.536548
11
1.04471
21
0.538107
0
LINE
8
BLACK
6
CONTINUOUS
10
1.04471
20
0.538107
11
1.04296
21
0.539442
0
LINE
8
BLACK
6
CONTINUOUS
10
1.04296
20
0.539442
11
1.04158
21
0.540507
0
LINE
8
BLACK
6
CONTINUOUS
10
1.04158
20
0.540507
11
1.04065
21
0.541251
0
LINE
8
BLACK
6
CONTINUOUS
10
1.04065
20
0.541251
11
1.04022
21
0.541626
0
LINE
8
BLACK
6
CONTINUOUS
10
1.04022
20
0.541626
11
1.04021
21
0.541653
0
LINE
8
BLACK
6
CONTINUOUS
10
1.04021
20
0.541653
11
1.04016
21
0.542135
0
LINE
8
BLACK
6
CONTINUOUS
10
1.04016
20
0.542135
11
1.04013
21
0.543201
0
LINE
8
BLACK
6
CONTINUOUS
10
1.04013
20
0.543201
11
1.04013
21
0.544715
0
LINE
8
BLACK
6
CONTINUOUS
10
1.04013
20
0.544715
11
1.04014
21
0.546537
0
LINE
8
BLACK
6
CONTINUOUS
10
1.04014
20
0.546537
11
1.04016
21
0.547396
0
LINE
8
BLACK
6
CONTINUOUS
10
1.04016
20
0.547396
11
1.04026
21
0.552753
0
LINE
8
BLACK
6
CONTINUOUS
10
1.04026
20
0.552753
11
1.0558
21
0.540715
0
LINE
8
BLACK
6
CONTINUOUS
10
0.969878
20
0.545764
11
0.970927
21
0.545591
0
LINE
8
BLACK
6
CONTINUOUS
10
0.970927
20
0.545591
11
0.972579
21
0.545311
0
LINE
8
BLACK
6
CONTINUOUS
10
0.972579
20
0.545311
11
0.974782
21
0.544934
0
LINE
8
BLACK
6
CONTINUOUS
10
0.974782
20
0.544934
11
0.977481
21
0.544469
0
LINE
8
BLACK
6
CONTINUOUS
10
0.977481
20
0.544469
11
0.980622
21
0.543925
0
LINE
8
BLACK
6
CONTINUOUS
10
0.980622
20
0.543925
11
0.984151
21
0.543313
0
LINE
8
BLACK
6
CONTINUOUS
10
0.984151
20
0.543313
11
0.988015
21
0.542641
0
LINE
8
BLACK
6
CONTINUOUS
10
0.988015
20
0.542641
11
0.992159
21
0.541918
0
LINE
8
BLACK
6
CONTINUOUS
10
0.992159
20
0.541918
11
0.996529
21
0.541155
0
LINE
8
BLACK
6
CONTINUOUS
10
0.996529
20
0.541155
11
0.99823
21
0.540857
0
LINE
8
BLACK
6
CONTINUOUS
10
0.99823
20
0.540857
11
1.0267
21
0.535872
0
LINE
8
BLACK
6
CONTINUOUS
10
1.0267
20
0.535872
11
1.0267
21
0.525138
0
LINE
8
BLACK
6
CONTINUOUS
10
1.0267
20
0.525138
11
1.02571
21
0.525346
0
LINE
8
BLACK
6
CONTINUOUS
10
1.02571
20
0.525346
11
1.0252
21
0.525441
0
LINE
8
BLACK
6
CONTINUOUS
10
1.0252
20
0.525441
11
1.02403
21
0.525649
0
LINE
8
BLACK
6
CONTINUOUS
10
1.02403
20
0.525649
11
1.02227
21
0.525962
0
LINE
8
BLACK
6
CONTINUOUS
10
1.02227
20
0.525962
11
1.01997
21
0.526368
0
LINE
8
BLACK
6
CONTINUOUS
10
1.01997
20
0.526368
11
1.01719
21
0.526858
0
LINE
8
BLACK
6
CONTINUOUS
10
1.01719
20
0.526858
11
1.01398
21
0.527422
0
LINE
8
BLACK
6
CONTINUOUS
10
1.01398
20
0.527422
11
1.0104
21
0.528049
0
LINE
8
BLACK
6
CONTINUOUS
10
1.0104
20
0.528049
11
1.00652
21
0.52873
0
LINE
8
BLACK
6
CONTINUOUS
10
1.00652
20
0.52873
11
1.00238
21
0.529453
0
LINE
8
BLACK
6
CONTINUOUS
10
1.00238
20
0.529453
11
0.998054
21
0.53021
0
LINE
8
BLACK
6
CONTINUOUS
10
0.998054
20
0.53021
11
0.997778
21
0.530258
0
LINE
8
BLACK
6
CONTINUOUS
10
0.997778
20
0.530258
11
0.993443
21
0.531016
0
LINE
8
BLACK
6
CONTINUOUS
10
0.993443
20
0.531016
11
0.989303
21
0.531741
0
LINE
8
BLACK
6
CONTINUOUS
10
0.989303
20
0.531741
11
0.985415
21
0.532422
0
LINE
8
BLACK
6
CONTINUOUS
10
0.985415
20
0.532422
11
0.981835
21
0.533051
0
LINE
8
BLACK
6
CONTINUOUS
10
0.981835
20
0.533051
11
0.978622
21
0.533617
0
LINE
8
BLACK
6
CONTINUOUS
10
0.978622
20
0.533617
11
0.975832
21
0.534109
0
LINE
8
BLACK
6
CONTINUOUS
10
0.975832
20
0.534109
11
0.973521
21
0.534518
0
LINE
8
BLACK
6
CONTINUOUS
10
0.973521
20
0.534518
11
0.971748
21
0.534834
0
LINE
8
BLACK
6
CONTINUOUS
10
0.971748
20
0.534834
11
0.970569
21
0.535046
0
LINE
8
BLACK
6
CONTINUOUS
10
0.970569
20
0.535046
11
0.970041
21
0.535145
0
LINE
8
BLACK
6
CONTINUOUS
10
0.970041
20
0.535145
11
0.97003
21
0.535148
0
LINE
8
BLACK
6
CONTINUOUS
10
0.97003
20
0.535148
11
0.969713
21
0.535245
0
LINE
8
BLACK
6
CONTINUOUS
10
0.969713
20
0.535245
11
0.969492
21
0.535446
0
LINE
8
BLACK
6
CONTINUOUS
10
0.969492
20
0.535446
11
0.969348
21
0.535862
0
LINE
8
BLACK
6
CONTINUOUS
10
0.969348
20
0.535862
11
0.969266
21
0.536609
0
LINE
8
BLACK
6
CONTINUOUS
10
0.969266
20
0.536609
11
0.969228
21
0.5378
0
LINE
8
BLACK
6
CONTINUOUS
10
0.969228
20
0.5378
11
0.969217
21
0.539547
0
LINE
8
BLACK
6
CONTINUOUS
10
0.969217
20
0.539547
11
0.969217
21
0.540568
0
LINE
8
BLACK
6
CONTINUOUS
10
0.969217
20
0.540568
11
0.969235
21
0.542422
0
LINE
8
BLACK
6
CONTINUOUS
10
0.969235
20
0.542422
11
0.969283
21
0.54399
0
LINE
8
BLACK
6
CONTINUOUS
10
0.969283
20
0.54399
11
0.969356
21
0.545144
0
LINE
8
BLACK
6
CONTINUOUS
10
0.969356
20
0.545144
11
0.969446
21
0.545757
0
LINE
8
BLACK
6
CONTINUOUS
10
0.969446
20
0.545757
11
0.969488
21
0.545822
0
LINE
8
BLACK
6
CONTINUOUS
10
0.969488
20
0.545822
11
0.969878
21
0.545764
  0
ENDSEC
  0
EOF
