  0
SECTION
  2
HEADER
  9
$ANGBASE
  50
0.0
  9
$ANGDIR
  70
1
  9
$MEASUREMENT
  70
0
  0
ENDSEC
  0
SECTION
  2
TABLES
  0
TABLE
  2
LTYPE
  70
4
  0
LTYPE
  5
40F
  2
CONTINUOUS
  70
0
  3
Solid line
  72
65
  73
0
  40
0.0
  0
LTYPE
  5
410
  2
DASHDOT
 70
0
  3
Dash Dot ____ _ ____ _
 72
65
 73
4
 40
2.0
 49
1.25
 49
-0.25
 49
0.25
 49
-0.25
  0
LTYPE
  5
411
  2
DASHED
 70
0
  3
Dashed __ __ __ __ __
 72
65
 73
2
 40
0.75
 49
0.5
 49
-0.25
  0
LTYPE
  5
43B
  2
DOTTED
 70
0
  3
Dotted .  .  .  .
 72
65
 73
2
 40
0.2
 49
0.0
 49
-0.2
  0
ENDTAB
  0
TABLE
  2
STYLE
  70
4
  0
STYLE
  2
KICAD
  70
0
  40
0
  41
1
  42
1
  50
0
  71
0
  3
isocp.shx
  0
STYLE
  2
KICADB
  70
0
  40
0
  41
1
  42
1
  50
0
  71
0
  3
isocp.shx
  0
STYLE
  2
KICADI
  70
0
  40
0
  41
1
  42
1
  50
15
  71
0
  3
isocp.shx
  0
STYLE
  2
KICADBI
  70
0
  40
0
  41
1
  42
1
  50
15
  71
0
  3
isocp.shx
  0
ENDTAB
  0
TABLE
  2
LAYER
  70
1
  0
LAYER
  2
BLACK
  70
0
  62
7
  6
CONTINUOUS
  0
ENDTAB
  0
ENDSEC
  0
SECTION
  2
ENTITIES
0
LINE
8
BLACK
6
CONTINUOUS
10
0.758914
20
0.0344262
11
0.770725
21
0.0226152
0
LINE
8
BLACK
6
CONTINUOUS
10
0.770725
20
0.0226152
11
0.771417
21
0.0209449
0
LINE
8
BLACK
6
CONTINUOUS
10
0.771417
20
0.0209449
11
0.770725
21
0.0192746
0
LINE
8
BLACK
6
CONTINUOUS
10
0.770725
20
0.0192746
11
0.769055
21
0.0185827
0
LINE
8
BLACK
6
CONTINUOUS
10
0.769055
20
0.0185827
11
0.745433
21
0.0185827
0
LINE
8
BLACK
6
CONTINUOUS
10
0.745433
20
0.0185827
11
0.743763
21
0.0192746
0
LINE
8
BLACK
6
CONTINUOUS
10
0.743763
20
0.0192746
11
0.743071
21
0.0209449
0
LINE
8
BLACK
6
CONTINUOUS
10
0.743071
20
0.0209449
11
0.743763
21
0.0226152
0
LINE
8
BLACK
6
CONTINUOUS
10
0.743763
20
0.0226152
11
0.755574
21
0.0344262
0
LINE
8
BLACK
6
CONTINUOUS
10
0.755574
20
0.0344262
11
0.757244
21
0.0351181
0
LINE
8
BLACK
6
CONTINUOUS
10
0.757244
20
0.0351181
11
0.758914
21
0.0344262
0
LINE
8
BLACK
6
CONTINUOUS
10
0.751136
20
0.0233071
11
0.763352
21
0.0233071
0
LINE
8
BLACK
6
CONTINUOUS
10
0.763352
20
0.0233071
11
0.757244
21
0.0294153
0
LINE
8
BLACK
6
CONTINUOUS
10
0.757244
20
0.0294153
11
0.751136
21
0.0233071
0
LINE
8
BLACK
6
CONTINUOUS
10
0.654268
20
0.0385221
11
0.651013
21
0.0388426
0
LINE
8
BLACK
6
CONTINUOUS
10
0.651013
20
0.0388426
11
0.6454
21
0.0405453
0
LINE
8
BLACK
6
CONTINUOUS
10
0.6454
20
0.0405453
11
0.640227
21
0.0433104
0
LINE
8
BLACK
6
CONTINUOUS
10
0.640227
20
0.0433104
11
0.635693
21
0.0470315
0
LINE
8
BLACK
6
CONTINUOUS
10
0.635693
20
0.0470315
11
0.631972
21
0.0515656
0
LINE
8
BLACK
6
CONTINUOUS
10
0.631972
20
0.0515656
11
0.629207
21
0.0567386
0
LINE
8
BLACK
6
CONTINUOUS
10
0.629207
20
0.0567386
11
0.627504
21
0.0623516
0
LINE
8
BLACK
6
CONTINUOUS
10
0.627504
20
0.0623516
11
0.626929
21
0.068189
0
LINE
8
BLACK
6
CONTINUOUS
10
0.626929
20
0.068189
11
0.626929
21
0.091811
0
LINE
8
BLACK
6
CONTINUOUS
10
0.626929
20
0.091811
11
0.627504
21
0.0976484
0
LINE
8
BLACK
6
CONTINUOUS
10
0.627504
20
0.0976484
11
0.629207
21
0.103261
0
LINE
8
BLACK
6
CONTINUOUS
10
0.629207
20
0.103261
11
0.631972
21
0.108434
0
LINE
8
BLACK
6
CONTINUOUS
10
0.631972
20
0.108434
11
0.635693
21
0.112969
0
LINE
8
BLACK
6
CONTINUOUS
10
0.635693
20
0.112969
11
0.640227
21
0.11669
0
LINE
8
BLACK
6
CONTINUOUS
10
0.640227
20
0.11669
11
0.6454
21
0.119455
0
LINE
8
BLACK
6
CONTINUOUS
10
0.6454
20
0.119455
11
0.651013
21
0.121157
0
LINE
8
BLACK
6
CONTINUOUS
10
0.651013
20
0.121157
11
0.654268
21
0.121478
0
LINE
8
BLACK
6
CONTINUOUS
10
0.654268
20
0.121478
11
0.654882
21
0.121732
0
LINE
8
BLACK
6
CONTINUOUS
10
0.654882
20
0.121732
11
0.765118
21
0.121732
0
LINE
8
BLACK
6
CONTINUOUS
10
0.765118
20
0.121732
11
0.765732
21
0.121478
0
LINE
8
BLACK
6
CONTINUOUS
10
0.765732
20
0.121478
11
0.768987
21
0.121157
0
LINE
8
BLACK
6
CONTINUOUS
10
0.768987
20
0.121157
11
0.7746
21
0.119455
0
LINE
8
BLACK
6
CONTINUOUS
10
0.7746
20
0.119455
11
0.779773
21
0.11669
0
LINE
8
BLACK
6
CONTINUOUS
10
0.779773
20
0.11669
11
0.784307
21
0.112969
0
LINE
8
BLACK
6
CONTINUOUS
10
0.784307
20
0.112969
11
0.788028
21
0.108434
0
LINE
8
BLACK
6
CONTINUOUS
10
0.788028
20
0.108434
11
0.790793
21
0.103261
0
LINE
8
BLACK
6
CONTINUOUS
10
0.790793
20
0.103261
11
0.792496
21
0.0976484
0
LINE
8
BLACK
6
CONTINUOUS
10
0.792496
20
0.0976484
11
0.793071
21
0.091811
0
LINE
8
BLACK
6
CONTINUOUS
10
0.793071
20
0.091811
11
0.793071
21
0.068189
0
LINE
8
BLACK
6
CONTINUOUS
10
0.793071
20
0.068189
11
0.792496
21
0.0623516
0
LINE
8
BLACK
6
CONTINUOUS
10
0.792496
20
0.0623516
11
0.790793
21
0.0567386
0
LINE
8
BLACK
6
CONTINUOUS
10
0.790793
20
0.0567386
11
0.788028
21
0.0515656
0
LINE
8
BLACK
6
CONTINUOUS
10
0.788028
20
0.0515656
11
0.784307
21
0.0470315
0
LINE
8
BLACK
6
CONTINUOUS
10
0.784307
20
0.0470315
11
0.779773
21
0.0433104
0
LINE
8
BLACK
6
CONTINUOUS
10
0.779773
20
0.0433104
11
0.7746
21
0.0405453
0
LINE
8
BLACK
6
CONTINUOUS
10
0.7746
20
0.0405453
11
0.768987
21
0.0388426
0
LINE
8
BLACK
6
CONTINUOUS
10
0.768987
20
0.0388426
11
0.765732
21
0.0385221
0
LINE
8
BLACK
6
CONTINUOUS
10
0.765732
20
0.0385221
11
0.765118
21
0.0382677
0
LINE
8
BLACK
6
CONTINUOUS
10
0.765118
20
0.0382677
11
0.654882
21
0.0382677
0
LINE
8
BLACK
6
CONTINUOUS
10
0.654882
20
0.0382677
11
0.654268
21
0.0385221
0
LINE
8
BLACK
6
CONTINUOUS
10
0.651208
20
0.116532
11
0.645849
21
0.114656
0
LINE
8
BLACK
6
CONTINUOUS
10
0.645849
20
0.114656
11
0.641041
21
0.111635
0
LINE
8
BLACK
6
CONTINUOUS
10
0.641041
20
0.111635
11
0.637026
21
0.10762
0
LINE
8
BLACK
6
CONTINUOUS
10
0.637026
20
0.10762
11
0.634005
21
0.102813
0
LINE
8
BLACK
6
CONTINUOUS
10
0.634005
20
0.102813
11
0.63213
21
0.0974533
0
LINE
8
BLACK
6
CONTINUOUS
10
0.63213
20
0.0974533
11
0.631528
21
0.0921136
0
LINE
8
BLACK
6
CONTINUOUS
10
0.631528
20
0.0921136
11
0.631654
21
0.091811
0
LINE
8
BLACK
6
CONTINUOUS
10
0.631654
20
0.091811
11
0.631654
21
0.068189
0
LINE
8
BLACK
6
CONTINUOUS
10
0.631654
20
0.068189
11
0.631556
21
0.0679546
0
LINE
8
BLACK
6
CONTINUOUS
10
0.631556
20
0.0679546
11
0.631528
21
0.0678864
0
LINE
8
BLACK
6
CONTINUOUS
10
0.631528
20
0.0678864
11
0.63213
21
0.0625467
0
LINE
8
BLACK
6
CONTINUOUS
10
0.63213
20
0.0625467
11
0.634005
21
0.0571873
0
LINE
8
BLACK
6
CONTINUOUS
10
0.634005
20
0.0571873
11
0.637026
21
0.0523796
0
LINE
8
BLACK
6
CONTINUOUS
10
0.637026
20
0.0523796
11
0.641041
21
0.0483646
0
LINE
8
BLACK
6
CONTINUOUS
10
0.641041
20
0.0483646
11
0.645849
21
0.0453437
0
LINE
8
BLACK
6
CONTINUOUS
10
0.645849
20
0.0453437
11
0.651208
21
0.0434684
0
LINE
8
BLACK
6
CONTINUOUS
10
0.651208
20
0.0434684
11
0.655435
21
0.0429921
0
LINE
8
BLACK
6
CONTINUOUS
10
0.655435
20
0.0429921
11
0.764565
21
0.0429921
0
LINE
8
BLACK
6
CONTINUOUS
10
0.764565
20
0.0429921
11
0.768792
21
0.0434684
0
LINE
8
BLACK
6
CONTINUOUS
10
0.768792
20
0.0434684
11
0.774151
21
0.0453437
0
LINE
8
BLACK
6
CONTINUOUS
10
0.774151
20
0.0453437
11
0.778959
21
0.0483646
0
LINE
8
BLACK
6
CONTINUOUS
10
0.778959
20
0.0483646
11
0.782974
21
0.0523796
0
LINE
8
BLACK
6
CONTINUOUS
10
0.782974
20
0.0523796
11
0.785995
21
0.0571873
0
LINE
8
BLACK
6
CONTINUOUS
10
0.785995
20
0.0571873
11
0.78787
21
0.0625467
0
LINE
8
BLACK
6
CONTINUOUS
10
0.78787
20
0.0625467
11
0.788472
21
0.0678864
0
LINE
8
BLACK
6
CONTINUOUS
10
0.788472
20
0.0678864
11
0.788444
21
0.0679546
0
LINE
8
BLACK
6
CONTINUOUS
10
0.788444
20
0.0679546
11
0.788346
21
0.068189
0
LINE
8
BLACK
6
CONTINUOUS
10
0.788346
20
0.068189
11
0.788346
21
0.091811
0
LINE
8
BLACK
6
CONTINUOUS
10
0.788346
20
0.091811
11
0.788472
21
0.0921136
0
LINE
8
BLACK
6
CONTINUOUS
10
0.788472
20
0.0921136
11
0.78787
21
0.0974533
0
LINE
8
BLACK
6
CONTINUOUS
10
0.78787
20
0.0974533
11
0.785995
21
0.102813
0
LINE
8
BLACK
6
CONTINUOUS
10
0.785995
20
0.102813
11
0.782974
21
0.10762
0
LINE
8
BLACK
6
CONTINUOUS
10
0.782974
20
0.10762
11
0.778959
21
0.111635
0
LINE
8
BLACK
6
CONTINUOUS
10
0.778959
20
0.111635
11
0.774151
21
0.114656
0
LINE
8
BLACK
6
CONTINUOUS
10
0.774151
20
0.114656
11
0.768792
21
0.116532
0
LINE
8
BLACK
6
CONTINUOUS
10
0.768792
20
0.116532
11
0.764565
21
0.117008
0
LINE
8
BLACK
6
CONTINUOUS
10
0.764565
20
0.117008
11
0.655435
21
0.117008
0
LINE
8
BLACK
6
CONTINUOUS
10
0.655435
20
0.117008
11
0.651208
21
0.116532
0
LINE
8
BLACK
6
CONTINUOUS
10
0.176448
20
0.078622
11
0.177561
21
0.0769365
0
LINE
8
BLACK
6
CONTINUOUS
10
0.177561
20
0.0769365
11
0.17733
21
0.07493
0
LINE
8
BLACK
6
CONTINUOUS
10
0.17733
20
0.07493
11
0.175455
21
0.0711804
0
LINE
8
BLACK
6
CONTINUOUS
10
0.175455
20
0.0711804
11
0.174929
21
0.0704714
0
LINE
8
BLACK
6
CONTINUOUS
10
0.174929
20
0.0704714
11
0.174902
21
0.070413
0
LINE
8
BLACK
6
CONTINUOUS
10
0.174902
20
0.070413
11
0.172444
21
0.0679546
0
LINE
8
BLACK
6
CONTINUOUS
10
0.172444
20
0.0679546
11
0.199857
21
0.0679546
0
LINE
8
BLACK
6
CONTINUOUS
10
0.199857
20
0.0679546
11
0.199857
21
0.0762505
0
LINE
8
BLACK
6
CONTINUOUS
10
0.199857
20
0.0762505
11
0.200036
21
0.0772604
0
LINE
8
BLACK
6
CONTINUOUS
10
0.200036
20
0.0772604
11
0.201334
21
0.0788076
0
LINE
8
BLACK
6
CONTINUOUS
10
0.201334
20
0.0788076
11
0.203323
21
0.0791584
0
LINE
8
BLACK
6
CONTINUOUS
10
0.203323
20
0.0791584
11
0.205072
21
0.0781485
0
LINE
8
BLACK
6
CONTINUOUS
10
0.205072
20
0.0781485
11
0.205763
21
0.0762505
0
LINE
8
BLACK
6
CONTINUOUS
10
0.205763
20
0.0762505
11
0.205763
21
0.0537533
0
LINE
8
BLACK
6
CONTINUOUS
10
0.205763
20
0.0537533
11
0.205585
21
0.0527434
0
LINE
8
BLACK
6
CONTINUOUS
10
0.205585
20
0.0527434
11
0.204287
21
0.0511961
0
LINE
8
BLACK
6
CONTINUOUS
10
0.204287
20
0.0511961
11
0.202297
21
0.0508454
0
LINE
8
BLACK
6
CONTINUOUS
10
0.202297
20
0.0508454
11
0.200548
21
0.0518553
0
LINE
8
BLACK
6
CONTINUOUS
10
0.200548
20
0.0518553
11
0.199857
21
0.0537533
0
LINE
8
BLACK
6
CONTINUOUS
10
0.199857
20
0.0537533
11
0.199857
21
0.0620491
0
LINE
8
BLACK
6
CONTINUOUS
10
0.199857
20
0.0620491
11
0.16344
21
0.0620491
0
LINE
8
BLACK
6
CONTINUOUS
10
0.16344
20
0.0620491
11
0.16243
21
0.0622272
0
LINE
8
BLACK
6
CONTINUOUS
10
0.16243
20
0.0622272
11
0.1623
21
0.0623363
0
LINE
8
BLACK
6
CONTINUOUS
10
0.1623
20
0.0623363
11
0.162131
21
0.062355
0
LINE
8
BLACK
6
CONTINUOUS
10
0.162131
20
0.062355
11
0.161539
21
0.0629747
0
LINE
8
BLACK
6
CONTINUOUS
10
0.161539
20
0.0629747
11
0.160883
21
0.0635255
0
LINE
8
BLACK
6
CONTINUOUS
10
0.160883
20
0.0635255
11
0.160854
21
0.0636927
0
LINE
8
BLACK
6
CONTINUOUS
10
0.160854
20
0.0636927
11
0.160736
21
0.0638155
0
LINE
8
BLACK
6
CONTINUOUS
10
0.160736
20
0.0638155
11
0.160681
21
0.0646707
0
LINE
8
BLACK
6
CONTINUOUS
10
0.160681
20
0.0646707
11
0.160532
21
0.0655146
0
LINE
8
BLACK
6
CONTINUOUS
10
0.160532
20
0.0655146
11
0.160617
21
0.0656617
0
LINE
8
BLACK
6
CONTINUOUS
10
0.160617
20
0.0656617
11
0.160606
21
0.0658311
0
LINE
8
BLACK
6
CONTINUOUS
10
0.160606
20
0.0658311
11
0.161114
21
0.0665215
0
LINE
8
BLACK
6
CONTINUOUS
10
0.161114
20
0.0665215
11
0.161542
21
0.0672638
0
LINE
8
BLACK
6
CONTINUOUS
10
0.161542
20
0.0672638
11
0.161702
21
0.0673219
0
LINE
8
BLACK
6
CONTINUOUS
10
0.161702
20
0.0673219
11
0.161802
21
0.0674587
0
LINE
8
BLACK
6
CONTINUOUS
10
0.161802
20
0.0674587
11
0.167183
21
0.0710461
0
LINE
8
BLACK
6
CONTINUOUS
10
0.167183
20
0.0710461
11
0.170387
21
0.07425
0
LINE
8
BLACK
6
CONTINUOUS
10
0.170387
20
0.07425
11
0.172048
21
0.077571
0
LINE
8
BLACK
6
CONTINUOUS
10
0.172048
20
0.077571
11
0.172659
21
0.0783946
0
LINE
8
BLACK
6
CONTINUOUS
10
0.172659
20
0.0783946
11
0.174512
21
0.0791979
0
LINE
8
BLACK
6
CONTINUOUS
10
0.174512
20
0.0791979
11
0.176448
21
0.078622
0
LINE
8
BLACK
6
CONTINUOUS
10
0.532075
20
0.0865916
11
0.532767
21
0.0849213
0
LINE
8
BLACK
6
CONTINUOUS
10
0.532767
20
0.0849213
11
0.532075
21
0.0832509
0
LINE
8
BLACK
6
CONTINUOUS
10
0.532075
20
0.0832509
11
0.530405
21
0.0825591
0
LINE
8
BLACK
6
CONTINUOUS
10
0.530405
20
0.0825591
11
0.517587
21
0.0825591
0
LINE
8
BLACK
6
CONTINUOUS
10
0.517587
20
0.0825591
11
0.515917
21
0.0832509
0
LINE
8
BLACK
6
CONTINUOUS
10
0.515917
20
0.0832509
11
0.515225
21
0.0849213
0
LINE
8
BLACK
6
CONTINUOUS
10
0.515225
20
0.0849213
11
0.515917
21
0.0865916
0
LINE
8
BLACK
6
CONTINUOUS
10
0.515917
20
0.0865916
11
0.517587
21
0.0872835
0
LINE
8
BLACK
6
CONTINUOUS
10
0.517587
20
0.0872835
11
0.530405
21
0.0872835
0
LINE
8
BLACK
6
CONTINUOUS
10
0.530405
20
0.0872835
11
0.532075
21
0.0865916
0
LINE
8
BLACK
6
CONTINUOUS
10
0.205072
20
0.110019
11
0.205763
21
0.108121
0
LINE
8
BLACK
6
CONTINUOUS
10
0.205763
20
0.108121
11
0.205763
21
0.104372
0
LINE
8
BLACK
6
CONTINUOUS
10
0.205763
20
0.104372
11
0.20561
21
0.103503
0
LINE
8
BLACK
6
CONTINUOUS
10
0.20561
20
0.103503
11
0.205611
21
0.103438
0
LINE
8
BLACK
6
CONTINUOUS
10
0.205611
20
0.103438
11
0.203737
21
0.0978139
0
LINE
8
BLACK
6
CONTINUOUS
10
0.203737
20
0.0978139
11
0.203248
21
0.0969122
0
LINE
8
BLACK
6
CONTINUOUS
10
0.203248
20
0.0969122
11
0.203098
21
0.0968198
0
LINE
8
BLACK
6
CONTINUOUS
10
0.203098
20
0.0968198
11
0.203023
21
0.0966598
0
LINE
8
BLACK
6
CONTINUOUS
10
0.203023
20
0.0966598
11
0.199274
21
0.0929102
0
LINE
8
BLACK
6
CONTINUOUS
10
0.199274
20
0.0929102
11
0.198434
21
0.092322
0
LINE
8
BLACK
6
CONTINUOUS
10
0.198434
20
0.092322
11
0.198258
21
0.0923067
0
LINE
8
BLACK
6
CONTINUOUS
10
0.198258
20
0.0923067
11
0.19812
21
0.0921969
0
LINE
8
BLACK
6
CONTINUOUS
10
0.19812
20
0.0921969
11
0.192495
21
0.0903222
0
LINE
8
BLACK
6
CONTINUOUS
10
0.192495
20
0.0903222
11
0.191622
21
0.0901927
0
LINE
8
BLACK
6
CONTINUOUS
10
0.191622
20
0.0901927
11
0.191562
21
0.0901706
0
LINE
8
BLACK
6
CONTINUOUS
10
0.191562
20
0.0901706
11
0.16344
21
0.0901706
0
LINE
8
BLACK
6
CONTINUOUS
10
0.16344
20
0.0901706
11
0.16243
21
0.0903487
0
LINE
8
BLACK
6
CONTINUOUS
10
0.16243
20
0.0903487
11
0.160883
21
0.091647
0
LINE
8
BLACK
6
CONTINUOUS
10
0.160883
20
0.091647
11
0.160532
21
0.0936361
0
LINE
8
BLACK
6
CONTINUOUS
10
0.160532
20
0.0936361
11
0.161542
21
0.0953853
0
LINE
8
BLACK
6
CONTINUOUS
10
0.161542
20
0.0953853
11
0.16344
21
0.0960761
0
LINE
8
BLACK
6
CONTINUOUS
10
0.16344
20
0.0960761
11
0.191083
21
0.0960761
0
LINE
8
BLACK
6
CONTINUOUS
10
0.191083
20
0.0960761
11
0.195591
21
0.0975789
0
LINE
8
BLACK
6
CONTINUOUS
10
0.195591
20
0.0975789
11
0.198355
21
0.100343
0
LINE
8
BLACK
6
CONTINUOUS
10
0.198355
20
0.100343
11
0.199857
21
0.104851
0
LINE
8
BLACK
6
CONTINUOUS
10
0.199857
20
0.104851
11
0.199857
21
0.108121
0
LINE
8
BLACK
6
CONTINUOUS
10
0.199857
20
0.108121
11
0.200036
21
0.109131
0
LINE
8
BLACK
6
CONTINUOUS
10
0.200036
20
0.109131
11
0.201334
21
0.110679
0
LINE
8
BLACK
6
CONTINUOUS
10
0.201334
20
0.110679
11
0.203323
21
0.111029
0
LINE
8
BLACK
6
CONTINUOUS
10
0.203323
20
0.111029
11
0.205072
21
0.110019
0
LINE
8
BLACK
6
CONTINUOUS
10
0.532075
20
0.126749
11
0.532767
21
0.125079
0
LINE
8
BLACK
6
CONTINUOUS
10
0.532767
20
0.125079
11
0.532075
21
0.123408
0
LINE
8
BLACK
6
CONTINUOUS
10
0.532075
20
0.123408
11
0.530405
21
0.122717
0
LINE
8
BLACK
6
CONTINUOUS
10
0.530405
20
0.122717
11
0.517587
21
0.122717
0
LINE
8
BLACK
6
CONTINUOUS
10
0.517587
20
0.122717
11
0.515917
21
0.123408
0
LINE
8
BLACK
6
CONTINUOUS
10
0.515917
20
0.123408
11
0.515225
21
0.125079
0
LINE
8
BLACK
6
CONTINUOUS
10
0.515225
20
0.125079
11
0.515917
21
0.126749
0
LINE
8
BLACK
6
CONTINUOUS
10
0.515917
20
0.126749
11
0.517587
21
0.127441
0
LINE
8
BLACK
6
CONTINUOUS
10
0.517587
20
0.127441
11
0.530405
21
0.127441
0
LINE
8
BLACK
6
CONTINUOUS
10
0.530405
20
0.127441
11
0.532075
21
0.126749
0
LINE
8
BLACK
6
CONTINUOUS
10
0.118802
20
0.126873
11
0.11811
21
0.128543
0
LINE
8
BLACK
6
CONTINUOUS
10
0.11811
20
0.128543
11
0.118802
21
0.130214
0
LINE
8
BLACK
6
CONTINUOUS
10
0.118802
20
0.130214
11
0.120472
21
0.130906
0
LINE
8
BLACK
6
CONTINUOUS
10
0.120472
20
0.130906
11
0.175197
21
0.130906
0
LINE
8
BLACK
6
CONTINUOUS
10
0.175197
20
0.130906
11
0.175197
21
0.199409
0
LINE
8
BLACK
6
CONTINUOUS
10
0.175197
20
0.199409
11
0.175889
21
0.20108
0
LINE
8
BLACK
6
CONTINUOUS
10
0.175889
20
0.20108
11
0.177559
21
0.201772
0
LINE
8
BLACK
6
CONTINUOUS
10
0.177559
20
0.201772
11
0.216535
21
0.201772
0
LINE
8
BLACK
6
CONTINUOUS
10
0.216535
20
0.201772
11
0.218206
21
0.20108
0
LINE
8
BLACK
6
CONTINUOUS
10
0.218206
20
0.20108
11
0.218898
21
0.199409
0
LINE
8
BLACK
6
CONTINUOUS
10
0.218898
20
0.199409
11
0.218206
21
0.197739
0
LINE
8
BLACK
6
CONTINUOUS
10
0.218206
20
0.197739
11
0.216535
21
0.197047
0
LINE
8
BLACK
6
CONTINUOUS
10
0.216535
20
0.197047
11
0.179921
21
0.197047
0
LINE
8
BLACK
6
CONTINUOUS
10
0.179921
20
0.197047
11
0.179921
21
0.128543
0
LINE
8
BLACK
6
CONTINUOUS
10
0.179921
20
0.128543
11
0.179229
21
0.126873
0
LINE
8
BLACK
6
CONTINUOUS
10
0.179229
20
0.126873
11
0.177559
21
0.126181
0
LINE
8
BLACK
6
CONTINUOUS
10
0.177559
20
0.126181
11
0.120472
21
0.126181
0
LINE
8
BLACK
6
CONTINUOUS
10
0.120472
20
0.126181
11
0.118802
21
0.126873
0
LINE
8
BLACK
6
CONTINUOUS
10
0.675977
20
0.175249
11
0.676146
21
0.17526
0
LINE
8
BLACK
6
CONTINUOUS
10
0.676146
20
0.17526
11
0.676836
21
0.174753
0
LINE
8
BLACK
6
CONTINUOUS
10
0.676836
20
0.174753
11
0.677579
21
0.174324
0
LINE
8
BLACK
6
CONTINUOUS
10
0.677579
20
0.174324
11
0.677637
21
0.174164
0
LINE
8
BLACK
6
CONTINUOUS
10
0.677637
20
0.174164
11
0.677774
21
0.174064
0
LINE
8
BLACK
6
CONTINUOUS
10
0.677774
20
0.174064
11
0.681361
21
0.168683
0
LINE
8
BLACK
6
CONTINUOUS
10
0.681361
20
0.168683
11
0.684565
21
0.165479
0
LINE
8
BLACK
6
CONTINUOUS
10
0.684565
20
0.165479
11
0.687886
21
0.163818
0
LINE
8
BLACK
6
CONTINUOUS
10
0.687886
20
0.163818
11
0.68871
21
0.163207
0
LINE
8
BLACK
6
CONTINUOUS
10
0.68871
20
0.163207
11
0.689513
21
0.161354
0
LINE
8
BLACK
6
CONTINUOUS
10
0.689513
20
0.161354
11
0.688937
21
0.159418
0
LINE
8
BLACK
6
CONTINUOUS
10
0.688937
20
0.159418
11
0.687251
21
0.158305
0
LINE
8
BLACK
6
CONTINUOUS
10
0.687251
20
0.158305
11
0.685245
21
0.158536
0
LINE
8
BLACK
6
CONTINUOUS
10
0.685245
20
0.158536
11
0.681495
21
0.160411
0
LINE
8
BLACK
6
CONTINUOUS
10
0.681495
20
0.160411
11
0.680786
21
0.160937
0
LINE
8
BLACK
6
CONTINUOUS
10
0.680786
20
0.160937
11
0.680728
21
0.160964
0
LINE
8
BLACK
6
CONTINUOUS
10
0.680728
20
0.160964
11
0.67827
21
0.163423
0
LINE
8
BLACK
6
CONTINUOUS
10
0.67827
20
0.163423
11
0.67827
21
0.136009
0
LINE
8
BLACK
6
CONTINUOUS
10
0.67827
20
0.136009
11
0.686565
21
0.136009
0
LINE
8
BLACK
6
CONTINUOUS
10
0.686565
20
0.136009
11
0.687575
21
0.135831
0
LINE
8
BLACK
6
CONTINUOUS
10
0.687575
20
0.135831
11
0.689123
21
0.134532
0
LINE
8
BLACK
6
CONTINUOUS
10
0.689123
20
0.134532
11
0.689473
21
0.132543
0
LINE
8
BLACK
6
CONTINUOUS
10
0.689473
20
0.132543
11
0.688463
21
0.130794
0
LINE
8
BLACK
6
CONTINUOUS
10
0.688463
20
0.130794
11
0.686565
21
0.130103
0
LINE
8
BLACK
6
CONTINUOUS
10
0.686565
20
0.130103
11
0.664068
21
0.130103
0
LINE
8
BLACK
6
CONTINUOUS
10
0.664068
20
0.130103
11
0.663058
21
0.130281
0
LINE
8
BLACK
6
CONTINUOUS
10
0.663058
20
0.130281
11
0.661511
21
0.13158
0
LINE
8
BLACK
6
CONTINUOUS
10
0.661511
20
0.13158
11
0.66116
21
0.133569
0
LINE
8
BLACK
6
CONTINUOUS
10
0.66116
20
0.133569
11
0.66217
21
0.135318
0
LINE
8
BLACK
6
CONTINUOUS
10
0.66217
20
0.135318
11
0.664068
21
0.136009
0
LINE
8
BLACK
6
CONTINUOUS
10
0.664068
20
0.136009
11
0.672364
21
0.136009
0
LINE
8
BLACK
6
CONTINUOUS
10
0.672364
20
0.136009
11
0.672364
21
0.172426
0
LINE
8
BLACK
6
CONTINUOUS
10
0.672364
20
0.172426
11
0.672542
21
0.173436
0
LINE
8
BLACK
6
CONTINUOUS
10
0.672542
20
0.173436
11
0.672651
21
0.173566
0
LINE
8
BLACK
6
CONTINUOUS
10
0.672651
20
0.173566
11
0.67267
21
0.173735
0
LINE
8
BLACK
6
CONTINUOUS
10
0.67267
20
0.173735
11
0.67329
21
0.174327
0
LINE
8
BLACK
6
CONTINUOUS
10
0.67329
20
0.174327
11
0.67384
21
0.174983
0
LINE
8
BLACK
6
CONTINUOUS
10
0.67384
20
0.174983
11
0.674008
21
0.175013
0
LINE
8
BLACK
6
CONTINUOUS
10
0.674008
20
0.175013
11
0.67413
21
0.17513
0
LINE
8
BLACK
6
CONTINUOUS
10
0.67413
20
0.17513
11
0.674986
21
0.175185
0
LINE
8
BLACK
6
CONTINUOUS
10
0.674986
20
0.175185
11
0.67583
21
0.175334
0
LINE
8
BLACK
6
CONTINUOUS
10
0.67583
20
0.175334
11
0.675977
21
0.175249
0
LINE
8
BLACK
6
CONTINUOUS
10
0.74507
20
0.174324
11
0.745761
21
0.172426
0
LINE
8
BLACK
6
CONTINUOUS
10
0.745761
20
0.172426
11
0.745761
21
0.144784
0
LINE
8
BLACK
6
CONTINUOUS
10
0.745761
20
0.144784
11
0.747264
21
0.140275
0
LINE
8
BLACK
6
CONTINUOUS
10
0.747264
20
0.140275
11
0.750028
21
0.137511
0
LINE
8
BLACK
6
CONTINUOUS
10
0.750028
20
0.137511
11
0.754536
21
0.136009
0
LINE
8
BLACK
6
CONTINUOUS
10
0.754536
20
0.136009
11
0.757806
21
0.136009
0
LINE
8
BLACK
6
CONTINUOUS
10
0.757806
20
0.136009
11
0.758816
21
0.135831
0
LINE
8
BLACK
6
CONTINUOUS
10
0.758816
20
0.135831
11
0.760364
21
0.134532
0
LINE
8
BLACK
6
CONTINUOUS
10
0.760364
20
0.134532
11
0.760714
21
0.132543
0
LINE
8
BLACK
6
CONTINUOUS
10
0.760714
20
0.132543
11
0.759704
21
0.130794
0
LINE
8
BLACK
6
CONTINUOUS
10
0.759704
20
0.130794
11
0.757806
21
0.130103
0
LINE
8
BLACK
6
CONTINUOUS
10
0.757806
20
0.130103
11
0.754057
21
0.130103
0
LINE
8
BLACK
6
CONTINUOUS
10
0.754057
20
0.130103
11
0.753188
21
0.130256
0
LINE
8
BLACK
6
CONTINUOUS
10
0.753188
20
0.130256
11
0.753123
21
0.130255
0
LINE
8
BLACK
6
CONTINUOUS
10
0.753123
20
0.130255
11
0.747499
21
0.132129
0
LINE
8
BLACK
6
CONTINUOUS
10
0.747499
20
0.132129
11
0.746597
21
0.132618
0
LINE
8
BLACK
6
CONTINUOUS
10
0.746597
20
0.132618
11
0.746505
21
0.132768
0
LINE
8
BLACK
6
CONTINUOUS
10
0.746505
20
0.132768
11
0.746345
21
0.132843
0
LINE
8
BLACK
6
CONTINUOUS
10
0.746345
20
0.132843
11
0.742595
21
0.136592
0
LINE
8
BLACK
6
CONTINUOUS
10
0.742595
20
0.136592
11
0.742007
21
0.137432
0
LINE
8
BLACK
6
CONTINUOUS
10
0.742007
20
0.137432
11
0.741992
21
0.137608
0
LINE
8
BLACK
6
CONTINUOUS
10
0.741992
20
0.137608
11
0.741882
21
0.137746
0
LINE
8
BLACK
6
CONTINUOUS
10
0.741882
20
0.137746
11
0.740007
21
0.143371
0
LINE
8
BLACK
6
CONTINUOUS
10
0.740007
20
0.143371
11
0.739878
21
0.144244
0
LINE
8
BLACK
6
CONTINUOUS
10
0.739878
20
0.144244
11
0.739856
21
0.144304
0
LINE
8
BLACK
6
CONTINUOUS
10
0.739856
20
0.144304
11
0.739856
21
0.172426
0
LINE
8
BLACK
6
CONTINUOUS
10
0.739856
20
0.172426
11
0.740034
21
0.173436
0
LINE
8
BLACK
6
CONTINUOUS
10
0.740034
20
0.173436
11
0.741332
21
0.174983
0
LINE
8
BLACK
6
CONTINUOUS
10
0.741332
20
0.174983
11
0.743321
21
0.175334
0
LINE
8
BLACK
6
CONTINUOUS
10
0.743321
20
0.175334
11
0.74507
21
0.174324
0
LINE
8
BLACK
6
CONTINUOUS
10
0.724444
20
0.175311
11
0.724573
21
0.175334
0
LINE
8
BLACK
6
CONTINUOUS
10
0.724573
20
0.175334
11
0.724687
21
0.175268
0
LINE
8
BLACK
6
CONTINUOUS
10
0.724687
20
0.175268
11
0.725071
21
0.175201
0
LINE
8
BLACK
6
CONTINUOUS
10
0.725071
20
0.175201
11
0.725658
21
0.174708
0
LINE
8
BLACK
6
CONTINUOUS
10
0.725658
20
0.174708
11
0.726323
21
0.174324
0
LINE
8
BLACK
6
CONTINUOUS
10
0.726323
20
0.174324
11
0.726414
21
0.174074
0
LINE
8
BLACK
6
CONTINUOUS
10
0.726414
20
0.174074
11
0.726618
21
0.173902
0
LINE
8
BLACK
6
CONTINUOUS
10
0.726618
20
0.173902
11
0.726751
21
0.173147
0
LINE
8
BLACK
6
CONTINUOUS
10
0.726751
20
0.173147
11
0.727013
21
0.172426
0
LINE
8
BLACK
6
CONTINUOUS
10
0.727013
20
0.172426
11
0.727013
21
0.133056
0
LINE
8
BLACK
6
CONTINUOUS
10
0.727013
20
0.133056
11
0.726835
21
0.132046
0
LINE
8
BLACK
6
CONTINUOUS
10
0.726835
20
0.132046
11
0.725537
21
0.130499
0
LINE
8
BLACK
6
CONTINUOUS
10
0.725537
20
0.130499
11
0.723548
21
0.130148
0
LINE
8
BLACK
6
CONTINUOUS
10
0.723548
20
0.130148
11
0.721799
21
0.131158
0
LINE
8
BLACK
6
CONTINUOUS
10
0.721799
20
0.131158
11
0.721108
21
0.133056
0
LINE
8
BLACK
6
CONTINUOUS
10
0.721108
20
0.133056
11
0.721108
21
0.148851
0
LINE
8
BLACK
6
CONTINUOUS
10
0.721108
20
0.148851
11
0.709063
21
0.148851
0
LINE
8
BLACK
6
CONTINUOUS
10
0.709063
20
0.148851
11
0.708053
21
0.149029
0
LINE
8
BLACK
6
CONTINUOUS
10
0.708053
20
0.149029
11
0.707917
21
0.149142
0
LINE
8
BLACK
6
CONTINUOUS
10
0.707917
20
0.149142
11
0.707742
21
0.149163
0
LINE
8
BLACK
6
CONTINUOUS
10
0.707742
20
0.149163
11
0.703993
21
0.151037
0
LINE
8
BLACK
6
CONTINUOUS
10
0.703993
20
0.151037
11
0.703284
21
0.151563
0
LINE
8
BLACK
6
CONTINUOUS
10
0.703284
20
0.151563
11
0.703225
21
0.15159
0
LINE
8
BLACK
6
CONTINUOUS
10
0.703225
20
0.15159
11
0.70135
21
0.153465
0
LINE
8
BLACK
6
CONTINUOUS
10
0.70135
20
0.153465
11
0.700844
21
0.154188
0
LINE
8
BLACK
6
CONTINUOUS
10
0.700844
20
0.154188
11
0.700797
21
0.154233
0
LINE
8
BLACK
6
CONTINUOUS
10
0.700797
20
0.154233
11
0.698923
21
0.157982
0
LINE
8
BLACK
6
CONTINUOUS
10
0.698923
20
0.157982
11
0.69863
21
0.158965
0
LINE
8
BLACK
6
CONTINUOUS
10
0.69863
20
0.158965
11
0.698671
21
0.159137
0
LINE
8
BLACK
6
CONTINUOUS
10
0.698671
20
0.159137
11
0.698611
21
0.159303
0
LINE
8
BLACK
6
CONTINUOUS
10
0.698611
20
0.159303
11
0.698611
21
0.164927
0
LINE
8
BLACK
6
CONTINUOUS
10
0.698611
20
0.164927
11
0.698789
21
0.165937
0
LINE
8
BLACK
6
CONTINUOUS
10
0.698789
20
0.165937
11
0.698902
21
0.166072
0
LINE
8
BLACK
6
CONTINUOUS
10
0.698902
20
0.166072
11
0.698923
21
0.166247
0
LINE
8
BLACK
6
CONTINUOUS
10
0.698923
20
0.166247
11
0.700797
21
0.169997
0
LINE
8
BLACK
6
CONTINUOUS
10
0.700797
20
0.169997
11
0.701323
21
0.170706
0
LINE
8
BLACK
6
CONTINUOUS
10
0.701323
20
0.170706
11
0.70135
21
0.170764
0
LINE
8
BLACK
6
CONTINUOUS
10
0.70135
20
0.170764
11
0.703225
21
0.172639
0
LINE
8
BLACK
6
CONTINUOUS
10
0.703225
20
0.172639
11
0.703948
21
0.173145
0
LINE
8
BLACK
6
CONTINUOUS
10
0.703948
20
0.173145
11
0.703993
21
0.173192
0
LINE
8
BLACK
6
CONTINUOUS
10
0.703993
20
0.173192
11
0.707742
21
0.175067
0
LINE
8
BLACK
6
CONTINUOUS
10
0.707742
20
0.175067
11
0.708725
21
0.175359
0
LINE
8
BLACK
6
CONTINUOUS
10
0.708725
20
0.175359
11
0.708897
21
0.175318
0
LINE
8
BLACK
6
CONTINUOUS
10
0.708897
20
0.175318
11
0.709063
21
0.175379
0
LINE
8
BLACK
6
CONTINUOUS
10
0.709063
20
0.175379
11
0.724061
21
0.175379
0
LINE
8
BLACK
6
CONTINUOUS
10
0.724061
20
0.175379
11
0.724444
21
0.175311
0
LINE
8
BLACK
6
CONTINUOUS
10
0.70976
20
0.169473
11
0.707062
21
0.168124
0
LINE
8
BLACK
6
CONTINUOUS
10
0.707062
20
0.168124
11
0.705865
21
0.166927
0
LINE
8
BLACK
6
CONTINUOUS
10
0.705865
20
0.166927
11
0.704516
21
0.16423
0
LINE
8
BLACK
6
CONTINUOUS
10
0.704516
20
0.16423
11
0.704516
21
0.16
0
LINE
8
BLACK
6
CONTINUOUS
10
0.704516
20
0.16
11
0.705865
21
0.157302
0
LINE
8
BLACK
6
CONTINUOUS
10
0.705865
20
0.157302
11
0.707062
21
0.156105
0
LINE
8
BLACK
6
CONTINUOUS
10
0.707062
20
0.156105
11
0.70976
21
0.154756
0
LINE
8
BLACK
6
CONTINUOUS
10
0.70976
20
0.154756
11
0.721108
21
0.154756
0
LINE
8
BLACK
6
CONTINUOUS
10
0.721108
20
0.154756
11
0.721108
21
0.169473
0
LINE
8
BLACK
6
CONTINUOUS
10
0.721108
20
0.169473
11
0.70976
21
0.169473
0
LINE
8
BLACK
6
CONTINUOUS
10
0.556749
20
0.20108
11
0.557441
21
0.199409
0
LINE
8
BLACK
6
CONTINUOUS
10
0.557441
20
0.199409
11
0.557441
21
0.165157
0
LINE
8
BLACK
6
CONTINUOUS
10
0.557441
20
0.165157
11
0.612559
21
0.165157
0
LINE
8
BLACK
6
CONTINUOUS
10
0.612559
20
0.165157
11
0.614229
21
0.164466
0
LINE
8
BLACK
6
CONTINUOUS
10
0.614229
20
0.164466
11
0.614921
21
0.162795
0
LINE
8
BLACK
6
CONTINUOUS
10
0.614921
20
0.162795
11
0.614229
21
0.161125
0
LINE
8
BLACK
6
CONTINUOUS
10
0.614229
20
0.161125
11
0.612559
21
0.160433
0
LINE
8
BLACK
6
CONTINUOUS
10
0.612559
20
0.160433
11
0.555079
21
0.160433
0
LINE
8
BLACK
6
CONTINUOUS
10
0.555079
20
0.160433
11
0.553408
21
0.161125
0
LINE
8
BLACK
6
CONTINUOUS
10
0.553408
20
0.161125
11
0.552717
21
0.162795
0
LINE
8
BLACK
6
CONTINUOUS
10
0.552717
20
0.162795
11
0.552717
21
0.199409
0
LINE
8
BLACK
6
CONTINUOUS
10
0.552717
20
0.199409
11
0.553408
21
0.20108
0
LINE
8
BLACK
6
CONTINUOUS
10
0.553408
20
0.20108
11
0.555079
21
0.201772
0
LINE
8
BLACK
6
CONTINUOUS
10
0.555079
20
0.201772
11
0.556749
21
0.20108
0
LINE
8
BLACK
6
CONTINUOUS
10
0.0111191
20
0.413678
11
0.011811
21
0.412008
0
LINE
8
BLACK
6
CONTINUOUS
10
0.011811
20
0.412008
11
0.011811
21
0.178543
0
LINE
8
BLACK
6
CONTINUOUS
10
0.011811
20
0.178543
11
0.0111191
21
0.176873
0
LINE
8
BLACK
6
CONTINUOUS
10
0.0111191
20
0.176873
11
0.00944882
21
0.176181
0
LINE
8
BLACK
6
CONTINUOUS
10
0.00944882
20
0.176181
11
0.0077785
21
0.176873
0
LINE
8
BLACK
6
CONTINUOUS
10
0.0077785
20
0.176873
11
0.00708661
21
0.178543
0
LINE
8
BLACK
6
CONTINUOUS
10
0.00708661
20
0.178543
11
0.00708661
21
0.412008
0
LINE
8
BLACK
6
CONTINUOUS
10
0.00708661
20
0.412008
11
0.0077785
21
0.413678
0
LINE
8
BLACK
6
CONTINUOUS
10
0.0077785
20
0.413678
11
0.00944882
21
0.41437
0
LINE
8
BLACK
6
CONTINUOUS
10
0.00944882
20
0.41437
11
0.0111191
21
0.413678
0
LINE
8
BLACK
6
CONTINUOUS
10
0.420056
20
0.277103
11
0.420748
21
0.275433
0
LINE
8
BLACK
6
CONTINUOUS
10
0.420748
20
0.275433
11
0.420748
21
0.178976
0
LINE
8
BLACK
6
CONTINUOUS
10
0.420748
20
0.178976
11
0.420056
21
0.177306
0
LINE
8
BLACK
6
CONTINUOUS
10
0.420056
20
0.177306
11
0.418386
21
0.176614
0
LINE
8
BLACK
6
CONTINUOUS
10
0.418386
20
0.176614
11
0.416716
21
0.177306
0
LINE
8
BLACK
6
CONTINUOUS
10
0.416716
20
0.177306
11
0.416024
21
0.178976
0
LINE
8
BLACK
6
CONTINUOUS
10
0.416024
20
0.178976
11
0.416024
21
0.275433
0
LINE
8
BLACK
6
CONTINUOUS
10
0.416024
20
0.275433
11
0.416716
21
0.277103
0
LINE
8
BLACK
6
CONTINUOUS
10
0.416716
20
0.277103
11
0.418386
21
0.277795
0
LINE
8
BLACK
6
CONTINUOUS
10
0.418386
20
0.277795
11
0.420056
21
0.277103
0
LINE
8
BLACK
6
CONTINUOUS
10
0.732075
20
0.191592
11
0.732767
21
0.189921
0
LINE
8
BLACK
6
CONTINUOUS
10
0.732767
20
0.189921
11
0.732075
21
0.188251
0
LINE
8
BLACK
6
CONTINUOUS
10
0.732075
20
0.188251
11
0.730405
21
0.187559
0
LINE
8
BLACK
6
CONTINUOUS
10
0.730405
20
0.187559
11
0.717587
21
0.187559
0
LINE
8
BLACK
6
CONTINUOUS
10
0.717587
20
0.187559
11
0.715917
21
0.188251
0
LINE
8
BLACK
6
CONTINUOUS
10
0.715917
20
0.188251
11
0.715225
21
0.189921
0
LINE
8
BLACK
6
CONTINUOUS
10
0.715225
20
0.189921
11
0.715917
21
0.191592
0
LINE
8
BLACK
6
CONTINUOUS
10
0.715917
20
0.191592
11
0.717587
21
0.192283
0
LINE
8
BLACK
6
CONTINUOUS
10
0.717587
20
0.192283
11
0.730405
21
0.192283
0
LINE
8
BLACK
6
CONTINUOUS
10
0.730405
20
0.192283
11
0.732075
21
0.191592
0
LINE
8
BLACK
6
CONTINUOUS
10
0.293284
20
0.277103
11
0.293976
21
0.275433
0
LINE
8
BLACK
6
CONTINUOUS
10
0.293976
20
0.275433
11
0.293976
21
0.204567
0
LINE
8
BLACK
6
CONTINUOUS
10
0.293976
20
0.204567
11
0.293284
21
0.202897
0
LINE
8
BLACK
6
CONTINUOUS
10
0.293284
20
0.202897
11
0.291614
21
0.202205
0
LINE
8
BLACK
6
CONTINUOUS
10
0.291614
20
0.202205
11
0.289944
21
0.202897
0
LINE
8
BLACK
6
CONTINUOUS
10
0.289944
20
0.202897
11
0.289252
21
0.204567
0
LINE
8
BLACK
6
CONTINUOUS
10
0.289252
20
0.204567
11
0.289252
21
0.275433
0
LINE
8
BLACK
6
CONTINUOUS
10
0.289252
20
0.275433
11
0.289944
21
0.277103
0
LINE
8
BLACK
6
CONTINUOUS
10
0.289944
20
0.277103
11
0.291614
21
0.277795
0
LINE
8
BLACK
6
CONTINUOUS
10
0.291614
20
0.277795
11
0.293284
21
0.277103
0
LINE
8
BLACK
6
CONTINUOUS
10
0.446592
20
0.219083
11
0.447283
21
0.217413
0
LINE
8
BLACK
6
CONTINUOUS
10
0.447283
20
0.217413
11
0.447283
21
0.204595
0
LINE
8
BLACK
6
CONTINUOUS
10
0.447283
20
0.204595
11
0.446592
21
0.202925
0
LINE
8
BLACK
6
CONTINUOUS
10
0.446592
20
0.202925
11
0.444921
21
0.202233
0
LINE
8
BLACK
6
CONTINUOUS
10
0.444921
20
0.202233
11
0.443251
21
0.202925
0
LINE
8
BLACK
6
CONTINUOUS
10
0.443251
20
0.202925
11
0.442559
21
0.204595
0
LINE
8
BLACK
6
CONTINUOUS
10
0.442559
20
0.204595
11
0.442559
21
0.217413
0
LINE
8
BLACK
6
CONTINUOUS
10
0.442559
20
0.217413
11
0.443251
21
0.219083
0
LINE
8
BLACK
6
CONTINUOUS
10
0.443251
20
0.219083
11
0.444921
21
0.219775
0
LINE
8
BLACK
6
CONTINUOUS
10
0.444921
20
0.219775
11
0.446592
21
0.219083
0
LINE
8
BLACK
6
CONTINUOUS
10
0.486749
20
0.219083
11
0.487441
21
0.217413
0
LINE
8
BLACK
6
CONTINUOUS
10
0.487441
20
0.217413
11
0.487441
21
0.204595
0
LINE
8
BLACK
6
CONTINUOUS
10
0.487441
20
0.204595
11
0.486749
21
0.202925
0
LINE
8
BLACK
6
CONTINUOUS
10
0.486749
20
0.202925
11
0.485079
21
0.202233
0
LINE
8
BLACK
6
CONTINUOUS
10
0.485079
20
0.202233
11
0.483408
21
0.202925
0
LINE
8
BLACK
6
CONTINUOUS
10
0.483408
20
0.202925
11
0.482717
21
0.204595
0
LINE
8
BLACK
6
CONTINUOUS
10
0.482717
20
0.204595
11
0.482717
21
0.217413
0
LINE
8
BLACK
6
CONTINUOUS
10
0.482717
20
0.217413
11
0.483408
21
0.219083
0
LINE
8
BLACK
6
CONTINUOUS
10
0.483408
20
0.219083
11
0.485079
21
0.219775
0
LINE
8
BLACK
6
CONTINUOUS
10
0.485079
20
0.219775
11
0.486749
21
0.219083
0
LINE
8
BLACK
6
CONTINUOUS
10
0.732075
20
0.231749
11
0.732767
21
0.230079
0
LINE
8
BLACK
6
CONTINUOUS
10
0.732767
20
0.230079
11
0.732075
21
0.228408
0
LINE
8
BLACK
6
CONTINUOUS
10
0.732075
20
0.228408
11
0.730405
21
0.227717
0
LINE
8
BLACK
6
CONTINUOUS
10
0.730405
20
0.227717
11
0.717587
21
0.227717
0
LINE
8
BLACK
6
CONTINUOUS
10
0.717587
20
0.227717
11
0.715917
21
0.228408
0
LINE
8
BLACK
6
CONTINUOUS
10
0.715917
20
0.228408
11
0.715225
21
0.230079
0
LINE
8
BLACK
6
CONTINUOUS
10
0.715225
20
0.230079
11
0.715917
21
0.231749
0
LINE
8
BLACK
6
CONTINUOUS
10
0.715917
20
0.231749
11
0.717587
21
0.232441
0
LINE
8
BLACK
6
CONTINUOUS
10
0.717587
20
0.232441
11
0.730405
21
0.232441
0
LINE
8
BLACK
6
CONTINUOUS
10
0.730405
20
0.232441
11
0.732075
21
0.231749
0
LINE
8
BLACK
6
CONTINUOUS
10
0.641788
20
0.288875
11
0.64248
21
0.287205
0
LINE
8
BLACK
6
CONTINUOUS
10
0.64248
20
0.287205
11
0.641788
21
0.285534
0
LINE
8
BLACK
6
CONTINUOUS
10
0.641788
20
0.285534
11
0.640118
21
0.284843
0
LINE
8
BLACK
6
CONTINUOUS
10
0.640118
20
0.284843
11
0.557441
21
0.284843
0
LINE
8
BLACK
6
CONTINUOUS
10
0.557441
20
0.284843
11
0.557441
21
0.250591
0
LINE
8
BLACK
6
CONTINUOUS
10
0.557441
20
0.250591
11
0.556749
21
0.24892
0
LINE
8
BLACK
6
CONTINUOUS
10
0.556749
20
0.24892
11
0.555079
21
0.248228
0
LINE
8
BLACK
6
CONTINUOUS
10
0.555079
20
0.248228
11
0.553408
21
0.24892
0
LINE
8
BLACK
6
CONTINUOUS
10
0.553408
20
0.24892
11
0.552717
21
0.250591
0
LINE
8
BLACK
6
CONTINUOUS
10
0.552717
20
0.250591
11
0.552717
21
0.287205
0
LINE
8
BLACK
6
CONTINUOUS
10
0.552717
20
0.287205
11
0.553408
21
0.288875
0
LINE
8
BLACK
6
CONTINUOUS
10
0.553408
20
0.288875
11
0.555079
21
0.289567
0
LINE
8
BLACK
6
CONTINUOUS
10
0.555079
20
0.289567
11
0.640118
21
0.289567
0
LINE
8
BLACK
6
CONTINUOUS
10
0.640118
20
0.289567
11
0.641788
21
0.288875
0
LINE
8
BLACK
6
CONTINUOUS
10
0.457034
20
0.332538
11
0.458581
21
0.33124
0
LINE
8
BLACK
6
CONTINUOUS
10
0.458581
20
0.33124
11
0.458932
21
0.329251
0
LINE
8
BLACK
6
CONTINUOUS
10
0.458932
20
0.329251
11
0.457922
21
0.327502
0
LINE
8
BLACK
6
CONTINUOUS
10
0.457922
20
0.327502
11
0.456024
21
0.326811
0
LINE
8
BLACK
6
CONTINUOUS
10
0.456024
20
0.326811
11
0.396024
21
0.326811
0
LINE
8
BLACK
6
CONTINUOUS
10
0.396024
20
0.326811
11
0.395014
21
0.326989
0
LINE
8
BLACK
6
CONTINUOUS
10
0.395014
20
0.326989
11
0.393466
21
0.328287
0
LINE
8
BLACK
6
CONTINUOUS
10
0.393466
20
0.328287
11
0.393116
21
0.330277
0
LINE
8
BLACK
6
CONTINUOUS
10
0.393116
20
0.330277
11
0.394126
21
0.332026
0
LINE
8
BLACK
6
CONTINUOUS
10
0.394126
20
0.332026
11
0.396024
21
0.332717
0
LINE
8
BLACK
6
CONTINUOUS
10
0.396024
20
0.332717
11
0.456024
21
0.332717
0
LINE
8
BLACK
6
CONTINUOUS
10
0.456024
20
0.332717
11
0.457034
21
0.332538
0
LINE
8
BLACK
6
CONTINUOUS
10
0.331834
20
0.337897
11
0.331142
21
0.339567
0
LINE
8
BLACK
6
CONTINUOUS
10
0.331142
20
0.339567
11
0.331142
21
0.412402
0
LINE
8
BLACK
6
CONTINUOUS
10
0.331142
20
0.412402
11
0.331834
21
0.414072
0
LINE
8
BLACK
6
CONTINUOUS
10
0.331834
20
0.414072
11
0.333504
21
0.414764
0
LINE
8
BLACK
6
CONTINUOUS
10
0.333504
20
0.414764
11
0.335174
21
0.414072
0
LINE
8
BLACK
6
CONTINUOUS
10
0.335174
20
0.414072
11
0.335866
21
0.412402
0
LINE
8
BLACK
6
CONTINUOUS
10
0.335866
20
0.412402
11
0.335866
21
0.341929
0
LINE
8
BLACK
6
CONTINUOUS
10
0.335866
20
0.341929
11
0.378386
21
0.341929
0
LINE
8
BLACK
6
CONTINUOUS
10
0.378386
20
0.341929
11
0.378386
21
0.412402
0
LINE
8
BLACK
6
CONTINUOUS
10
0.378386
20
0.412402
11
0.379078
21
0.414072
0
LINE
8
BLACK
6
CONTINUOUS
10
0.379078
20
0.414072
11
0.380748
21
0.414764
0
LINE
8
BLACK
6
CONTINUOUS
10
0.380748
20
0.414764
11
0.382418
21
0.414072
0
LINE
8
BLACK
6
CONTINUOUS
10
0.382418
20
0.414072
11
0.38311
21
0.412402
0
LINE
8
BLACK
6
CONTINUOUS
10
0.38311
20
0.412402
11
0.38311
21
0.339567
0
LINE
8
BLACK
6
CONTINUOUS
10
0.38311
20
0.339567
11
0.382418
21
0.337897
0
LINE
8
BLACK
6
CONTINUOUS
10
0.382418
20
0.337897
11
0.380748
21
0.337205
0
LINE
8
BLACK
6
CONTINUOUS
10
0.380748
20
0.337205
11
0.333504
21
0.337205
0
LINE
8
BLACK
6
CONTINUOUS
10
0.333504
20
0.337205
11
0.331834
21
0.337897
0
LINE
8
BLACK
6
CONTINUOUS
10
0.457694
20
0.406434
11
0.458386
21
0.404764
0
LINE
8
BLACK
6
CONTINUOUS
10
0.458386
20
0.404764
11
0.458386
21
0.374764
0
LINE
8
BLACK
6
CONTINUOUS
10
0.458386
20
0.374764
11
0.457694
21
0.373093
0
LINE
8
BLACK
6
CONTINUOUS
10
0.457694
20
0.373093
11
0.456024
21
0.372402
0
LINE
8
BLACK
6
CONTINUOUS
10
0.456024
20
0.372402
11
0.454353
21
0.373093
0
LINE
8
BLACK
6
CONTINUOUS
10
0.454353
20
0.373093
11
0.453661
21
0.374764
0
LINE
8
BLACK
6
CONTINUOUS
10
0.453661
20
0.374764
11
0.453661
21
0.404764
0
LINE
8
BLACK
6
CONTINUOUS
10
0.453661
20
0.404764
11
0.454353
21
0.406434
0
LINE
8
BLACK
6
CONTINUOUS
10
0.454353
20
0.406434
11
0.456024
21
0.407126
0
LINE
8
BLACK
6
CONTINUOUS
10
0.456024
20
0.407126
11
0.457694
21
0.406434
0
LINE
8
BLACK
6
CONTINUOUS
10
0.397694
20
0.406434
11
0.398386
21
0.404764
0
LINE
8
BLACK
6
CONTINUOUS
10
0.398386
20
0.404764
11
0.398386
21
0.374764
0
LINE
8
BLACK
6
CONTINUOUS
10
0.398386
20
0.374764
11
0.397694
21
0.373093
0
LINE
8
BLACK
6
CONTINUOUS
10
0.397694
20
0.373093
11
0.396024
21
0.372402
0
LINE
8
BLACK
6
CONTINUOUS
10
0.396024
20
0.372402
11
0.394353
21
0.373093
0
LINE
8
BLACK
6
CONTINUOUS
10
0.394353
20
0.373093
11
0.393661
21
0.374764
0
LINE
8
BLACK
6
CONTINUOUS
10
0.393661
20
0.374764
11
0.393661
21
0.404764
0
LINE
8
BLACK
6
CONTINUOUS
10
0.393661
20
0.404764
11
0.394353
21
0.406434
0
LINE
8
BLACK
6
CONTINUOUS
10
0.394353
20
0.406434
11
0.396024
21
0.407126
0
LINE
8
BLACK
6
CONTINUOUS
10
0.396024
20
0.407126
11
0.397694
21
0.406434
0
LINE
8
BLACK
6
CONTINUOUS
10
0.529466
20
0.391937
11
0.530157
21
0.390267
0
LINE
8
BLACK
6
CONTINUOUS
10
0.530157
20
0.390267
11
0.530157
21
0.37745
0
LINE
8
BLACK
6
CONTINUOUS
10
0.530157
20
0.37745
11
0.529466
21
0.375779
0
LINE
8
BLACK
6
CONTINUOUS
10
0.529466
20
0.375779
11
0.527795
21
0.375087
0
LINE
8
BLACK
6
CONTINUOUS
10
0.527795
20
0.375087
11
0.526125
21
0.375779
0
LINE
8
BLACK
6
CONTINUOUS
10
0.526125
20
0.375779
11
0.525433
21
0.37745
0
LINE
8
BLACK
6
CONTINUOUS
10
0.525433
20
0.37745
11
0.525433
21
0.390267
0
LINE
8
BLACK
6
CONTINUOUS
10
0.525433
20
0.390267
11
0.526125
21
0.391937
0
LINE
8
BLACK
6
CONTINUOUS
10
0.526125
20
0.391937
11
0.527795
21
0.392629
0
LINE
8
BLACK
6
CONTINUOUS
10
0.527795
20
0.392629
11
0.529466
21
0.391937
0
LINE
8
BLACK
6
CONTINUOUS
10
0.489308
20
0.391937
11
0.49
21
0.390267
0
LINE
8
BLACK
6
CONTINUOUS
10
0.49
20
0.390267
11
0.49
21
0.37745
0
LINE
8
BLACK
6
CONTINUOUS
10
0.49
20
0.37745
11
0.489308
21
0.375779
0
LINE
8
BLACK
6
CONTINUOUS
10
0.489308
20
0.375779
11
0.487638
21
0.375087
0
LINE
8
BLACK
6
CONTINUOUS
10
0.487638
20
0.375087
11
0.485967
21
0.375779
0
LINE
8
BLACK
6
CONTINUOUS
10
0.485967
20
0.375779
11
0.485276
21
0.37745
0
LINE
8
BLACK
6
CONTINUOUS
10
0.485276
20
0.37745
11
0.485276
21
0.390267
0
LINE
8
BLACK
6
CONTINUOUS
10
0.485276
20
0.390267
11
0.485967
21
0.391937
0
LINE
8
BLACK
6
CONTINUOUS
10
0.485967
20
0.391937
11
0.487638
21
0.392629
0
LINE
8
BLACK
6
CONTINUOUS
10
0.487638
20
0.392629
11
0.489308
21
0.391937
0
LINE
8
BLACK
6
CONTINUOUS
10
0.313914
20
0.395874
11
0.314606
21
0.394204
0
LINE
8
BLACK
6
CONTINUOUS
10
0.314606
20
0.394204
11
0.314606
21
0.381387
0
LINE
8
BLACK
6
CONTINUOUS
10
0.314606
20
0.381387
11
0.313914
21
0.379716
0
LINE
8
BLACK
6
CONTINUOUS
10
0.313914
20
0.379716
11
0.312244
21
0.379024
0
LINE
8
BLACK
6
CONTINUOUS
10
0.312244
20
0.379024
11
0.310574
21
0.379716
0
LINE
8
BLACK
6
CONTINUOUS
10
0.310574
20
0.379716
11
0.309882
21
0.381387
0
LINE
8
BLACK
6
CONTINUOUS
10
0.309882
20
0.381387
11
0.309882
21
0.394204
0
LINE
8
BLACK
6
CONTINUOUS
10
0.309882
20
0.394204
11
0.310574
21
0.395874
0
LINE
8
BLACK
6
CONTINUOUS
10
0.310574
20
0.395874
11
0.312244
21
0.396566
0
LINE
8
BLACK
6
CONTINUOUS
10
0.312244
20
0.396566
11
0.313914
21
0.395874
0
LINE
8
BLACK
6
CONTINUOUS
10
0.273757
20
0.395874
11
0.274449
21
0.394204
0
LINE
8
BLACK
6
CONTINUOUS
10
0.274449
20
0.394204
11
0.274449
21
0.381387
0
LINE
8
BLACK
6
CONTINUOUS
10
0.274449
20
0.381387
11
0.273757
21
0.379716
0
LINE
8
BLACK
6
CONTINUOUS
10
0.273757
20
0.379716
11
0.272087
21
0.379024
0
LINE
8
BLACK
6
CONTINUOUS
10
0.272087
20
0.379024
11
0.270416
21
0.379716
0
LINE
8
BLACK
6
CONTINUOUS
10
0.270416
20
0.379716
11
0.269724
21
0.381387
0
LINE
8
BLACK
6
CONTINUOUS
10
0.269724
20
0.381387
11
0.269724
21
0.394204
0
LINE
8
BLACK
6
CONTINUOUS
10
0.269724
20
0.394204
11
0.270416
21
0.395874
0
LINE
8
BLACK
6
CONTINUOUS
10
0.270416
20
0.395874
11
0.272087
21
0.396566
0
LINE
8
BLACK
6
CONTINUOUS
10
0.272087
20
0.396566
11
0.273757
21
0.395874
0
LINE
8
BLACK
6
CONTINUOUS
10
0.179229
20
0.463678
11
0.179921
21
0.462008
0
LINE
8
BLACK
6
CONTINUOUS
10
0.179921
20
0.462008
11
0.179921
21
0.391142
0
LINE
8
BLACK
6
CONTINUOUS
10
0.179921
20
0.391142
11
0.179229
21
0.389471
0
LINE
8
BLACK
6
CONTINUOUS
10
0.179229
20
0.389471
11
0.177559
21
0.38878
0
LINE
8
BLACK
6
CONTINUOUS
10
0.177559
20
0.38878
11
0.175889
21
0.389471
0
LINE
8
BLACK
6
CONTINUOUS
10
0.175889
20
0.389471
11
0.175197
21
0.391142
0
LINE
8
BLACK
6
CONTINUOUS
10
0.175197
20
0.391142
11
0.175197
21
0.459646
0
LINE
8
BLACK
6
CONTINUOUS
10
0.175197
20
0.459646
11
0.120472
21
0.459646
0
LINE
8
BLACK
6
CONTINUOUS
10
0.120472
20
0.459646
11
0.118802
21
0.460338
0
LINE
8
BLACK
6
CONTINUOUS
10
0.118802
20
0.460338
11
0.11811
21
0.462008
0
LINE
8
BLACK
6
CONTINUOUS
10
0.11811
20
0.462008
11
0.118802
21
0.463678
0
LINE
8
BLACK
6
CONTINUOUS
10
0.118802
20
0.463678
11
0.120472
21
0.46437
0
LINE
8
BLACK
6
CONTINUOUS
10
0.120472
20
0.46437
11
0.177559
21
0.46437
0
LINE
8
BLACK
6
CONTINUOUS
10
0.177559
20
0.46437
11
0.179229
21
0.463678
0
LINE
8
BLACK
6
CONTINUOUS
10
0.631749
20
0.412075
11
0.632441
21
0.410405
0
LINE
8
BLACK
6
CONTINUOUS
10
0.632441
20
0.410405
11
0.632441
21
0.397587
0
LINE
8
BLACK
6
CONTINUOUS
10
0.632441
20
0.397587
11
0.631749
21
0.395917
0
LINE
8
BLACK
6
CONTINUOUS
10
0.631749
20
0.395917
11
0.630079
21
0.395225
0
LINE
8
BLACK
6
CONTINUOUS
10
0.630079
20
0.395225
11
0.628408
21
0.395917
0
LINE
8
BLACK
6
CONTINUOUS
10
0.628408
20
0.395917
11
0.627717
21
0.397587
0
LINE
8
BLACK
6
CONTINUOUS
10
0.627717
20
0.397587
11
0.627717
21
0.410405
0
LINE
8
BLACK
6
CONTINUOUS
10
0.627717
20
0.410405
11
0.628408
21
0.412075
0
LINE
8
BLACK
6
CONTINUOUS
10
0.628408
20
0.412075
11
0.630079
21
0.412767
0
LINE
8
BLACK
6
CONTINUOUS
10
0.630079
20
0.412767
11
0.631749
21
0.412075
0
LINE
8
BLACK
6
CONTINUOUS
10
0.591592
20
0.412075
11
0.592283
21
0.410405
0
LINE
8
BLACK
6
CONTINUOUS
10
0.592283
20
0.410405
11
0.592283
21
0.397587
0
LINE
8
BLACK
6
CONTINUOUS
10
0.592283
20
0.397587
11
0.591592
21
0.395917
0
LINE
8
BLACK
6
CONTINUOUS
10
0.591592
20
0.395917
11
0.589921
21
0.395225
0
LINE
8
BLACK
6
CONTINUOUS
10
0.589921
20
0.395225
11
0.588251
21
0.395917
0
LINE
8
BLACK
6
CONTINUOUS
10
0.588251
20
0.395917
11
0.587559
21
0.397587
0
LINE
8
BLACK
6
CONTINUOUS
10
0.587559
20
0.397587
11
0.587559
21
0.410405
0
LINE
8
BLACK
6
CONTINUOUS
10
0.587559
20
0.410405
11
0.588251
21
0.412075
0
LINE
8
BLACK
6
CONTINUOUS
10
0.588251
20
0.412075
11
0.589921
21
0.412767
0
LINE
8
BLACK
6
CONTINUOUS
10
0.589921
20
0.412767
11
0.591592
21
0.412075
0
LINE
8
BLACK
6
CONTINUOUS
10
0.721749
20
0.413079
11
0.722441
21
0.411409
0
LINE
8
BLACK
6
CONTINUOUS
10
0.722441
20
0.411409
11
0.722441
21
0.398591
0
LINE
8
BLACK
6
CONTINUOUS
10
0.722441
20
0.398591
11
0.721749
21
0.396921
0
LINE
8
BLACK
6
CONTINUOUS
10
0.721749
20
0.396921
11
0.720079
21
0.396229
0
LINE
8
BLACK
6
CONTINUOUS
10
0.720079
20
0.396229
11
0.718408
21
0.396921
0
LINE
8
BLACK
6
CONTINUOUS
10
0.718408
20
0.396921
11
0.717717
21
0.398591
0
LINE
8
BLACK
6
CONTINUOUS
10
0.717717
20
0.398591
11
0.717717
21
0.411409
0
LINE
8
BLACK
6
CONTINUOUS
10
0.717717
20
0.411409
11
0.718408
21
0.413079
0
LINE
8
BLACK
6
CONTINUOUS
10
0.718408
20
0.413079
11
0.720079
21
0.413771
0
LINE
8
BLACK
6
CONTINUOUS
10
0.720079
20
0.413771
11
0.721749
21
0.413079
0
LINE
8
BLACK
6
CONTINUOUS
10
0.681592
20
0.413079
11
0.682283
21
0.411409
0
LINE
8
BLACK
6
CONTINUOUS
10
0.682283
20
0.411409
11
0.682283
21
0.398591
0
LINE
8
BLACK
6
CONTINUOUS
10
0.682283
20
0.398591
11
0.681592
21
0.396921
0
LINE
8
BLACK
6
CONTINUOUS
10
0.681592
20
0.396921
11
0.679921
21
0.396229
0
LINE
8
BLACK
6
CONTINUOUS
10
0.679921
20
0.396229
11
0.678251
21
0.396921
0
LINE
8
BLACK
6
CONTINUOUS
10
0.678251
20
0.396921
11
0.677559
21
0.398591
0
LINE
8
BLACK
6
CONTINUOUS
10
0.677559
20
0.398591
11
0.677559
21
0.411409
0
LINE
8
BLACK
6
CONTINUOUS
10
0.677559
20
0.411409
11
0.678251
21
0.413079
0
LINE
8
BLACK
6
CONTINUOUS
10
0.678251
20
0.413079
11
0.679921
21
0.413771
0
LINE
8
BLACK
6
CONTINUOUS
10
0.679921
20
0.413771
11
0.681592
21
0.413079
0
LINE
8
BLACK
6
CONTINUOUS
10
1.06304
20
0.438048
11
1.06373
21
0.436378
0
LINE
8
BLACK
6
CONTINUOUS
10
1.06373
20
0.436378
11
1.06304
21
0.434708
0
LINE
8
BLACK
6
CONTINUOUS
10
1.06304
20
0.434708
11
1.06137
21
0.434016
0
LINE
8
BLACK
6
CONTINUOUS
10
1.06137
20
0.434016
11
1.04855
21
0.434016
0
LINE
8
BLACK
6
CONTINUOUS
10
1.04855
20
0.434016
11
1.04688
21
0.434708
0
LINE
8
BLACK
6
CONTINUOUS
10
1.04688
20
0.434708
11
1.04619
21
0.436378
0
LINE
8
BLACK
6
CONTINUOUS
10
1.04619
20
0.436378
11
1.04688
21
0.438048
0
LINE
8
BLACK
6
CONTINUOUS
10
1.04688
20
0.438048
11
1.04855
21
0.43874
0
LINE
8
BLACK
6
CONTINUOUS
10
1.04855
20
0.43874
11
1.06137
21
0.43874
0
LINE
8
BLACK
6
CONTINUOUS
10
1.06137
20
0.43874
11
1.06304
21
0.438048
0
LINE
8
BLACK
6
CONTINUOUS
10
0.457034
20
0.452538
11
0.458581
21
0.45124
0
LINE
8
BLACK
6
CONTINUOUS
10
0.458581
20
0.45124
11
0.458932
21
0.449251
0
LINE
8
BLACK
6
CONTINUOUS
10
0.458932
20
0.449251
11
0.457922
21
0.447502
0
LINE
8
BLACK
6
CONTINUOUS
10
0.457922
20
0.447502
11
0.456024
21
0.446811
0
LINE
8
BLACK
6
CONTINUOUS
10
0.456024
20
0.446811
11
0.396024
21
0.446811
0
LINE
8
BLACK
6
CONTINUOUS
10
0.396024
20
0.446811
11
0.395014
21
0.446989
0
LINE
8
BLACK
6
CONTINUOUS
10
0.395014
20
0.446989
11
0.393466
21
0.448287
0
LINE
8
BLACK
6
CONTINUOUS
10
0.393466
20
0.448287
11
0.393116
21
0.450277
0
LINE
8
BLACK
6
CONTINUOUS
10
0.393116
20
0.450277
11
0.394126
21
0.452026
0
LINE
8
BLACK
6
CONTINUOUS
10
0.394126
20
0.452026
11
0.396024
21
0.452717
0
LINE
8
BLACK
6
CONTINUOUS
10
0.396024
20
0.452717
11
0.456024
21
0.452717
0
LINE
8
BLACK
6
CONTINUOUS
10
0.456024
20
0.452717
11
0.457034
21
0.452538
0
LINE
8
BLACK
6
CONTINUOUS
10
1.06304
20
0.478206
11
1.06373
21
0.476535
0
LINE
8
BLACK
6
CONTINUOUS
10
1.06373
20
0.476535
11
1.06304
21
0.474865
0
LINE
8
BLACK
6
CONTINUOUS
10
1.06304
20
0.474865
11
1.06137
21
0.474173
0
LINE
8
BLACK
6
CONTINUOUS
10
1.06137
20
0.474173
11
1.04855
21
0.474173
0
LINE
8
BLACK
6
CONTINUOUS
10
1.04855
20
0.474173
11
1.04688
21
0.474865
0
LINE
8
BLACK
6
CONTINUOUS
10
1.04688
20
0.474865
11
1.04619
21
0.476535
0
LINE
8
BLACK
6
CONTINUOUS
10
1.04619
20
0.476535
11
1.04688
21
0.478206
0
LINE
8
BLACK
6
CONTINUOUS
10
1.04688
20
0.478206
11
1.04855
21
0.478898
0
LINE
8
BLACK
6
CONTINUOUS
10
1.04855
20
0.478898
11
1.06137
21
0.478898
0
LINE
8
BLACK
6
CONTINUOUS
10
1.06137
20
0.478898
11
1.06304
21
0.478206
0
LINE
8
BLACK
6
CONTINUOUS
10
1.17559
20
0.413386
11
1.17559
21
0.339154
0
LINE
8
BLACK
6
CONTINUOUS
10
1.17559
20
0.339154
11
1.17676
21
0.336213
0
LINE
8
BLACK
6
CONTINUOUS
10
1.17676
20
0.336213
11
1.18047
21
0.322836
0
LINE
8
BLACK
6
CONTINUOUS
10
1.18047
20
0.322836
11
1.18271
21
0.309137
0
LINE
8
BLACK
6
CONTINUOUS
10
1.18271
20
0.309137
11
1.18346
21
0.295276
0
LINE
8
BLACK
6
CONTINUOUS
10
1.18346
20
0.295276
11
1.18346
21
0.29438
0
LINE
8
BLACK
6
CONTINUOUS
10
1.18346
20
0.29438
11
1.18261
21
0.280524
0
LINE
8
BLACK
6
CONTINUOUS
10
1.18261
20
0.280524
11
1.18028
21
0.266841
0
LINE
8
BLACK
6
CONTINUOUS
10
1.18028
20
0.266841
11
1.17647
21
0.25349
0
LINE
8
BLACK
6
CONTINUOUS
10
1.17647
20
0.25349
11
1.17559
21
0.251319
0
LINE
8
BLACK
6
CONTINUOUS
10
1.17559
20
0.251319
11
1.17559
21
0.177165
0
LINE
8
BLACK
6
CONTINUOUS
10
1.17559
20
0.177165
11
1.1749
21
0.175495
0
LINE
8
BLACK
6
CONTINUOUS
10
1.1749
20
0.175495
11
1.17323
21
0.174803
0
LINE
8
BLACK
6
CONTINUOUS
10
1.17323
20
0.174803
11
1.099
21
0.174803
0
LINE
8
BLACK
6
CONTINUOUS
10
1.099
20
0.174803
11
1.08877
21
0.171419
0
LINE
8
BLACK
6
CONTINUOUS
10
1.08877
20
0.171419
11
1.0752
21
0.168509
0
LINE
8
BLACK
6
CONTINUOUS
10
1.0752
20
0.168509
11
1.06139
21
0.167082
0
LINE
8
BLACK
6
CONTINUOUS
10
1.06139
20
0.167082
11
1.04751
21
0.167155
0
LINE
8
BLACK
6
CONTINUOUS
10
1.04751
20
0.167155
11
1.03371
21
0.168726
0
LINE
8
BLACK
6
CONTINUOUS
10
1.03371
20
0.168726
11
1.02017
21
0.171778
0
LINE
8
BLACK
6
CONTINUOUS
10
1.02017
20
0.171778
11
1.01134
21
0.174803
0
LINE
8
BLACK
6
CONTINUOUS
10
1.01134
20
0.174803
11
0.937008
21
0.174803
0
LINE
8
BLACK
6
CONTINUOUS
10
0.937008
20
0.174803
11
0.935338
21
0.175495
0
LINE
8
BLACK
6
CONTINUOUS
10
0.935338
20
0.175495
11
0.934646
21
0.177165
0
LINE
8
BLACK
6
CONTINUOUS
10
0.934646
20
0.177165
11
0.934646
21
0.251431
0
LINE
8
BLACK
6
CONTINUOUS
10
0.934646
20
0.251431
11
0.933333
21
0.254763
0
LINE
8
BLACK
6
CONTINUOUS
10
0.933333
20
0.254763
11
0.92967
21
0.268153
0
LINE
8
BLACK
6
CONTINUOUS
10
0.92967
20
0.268153
11
0.927475
21
0.28186
0
LINE
8
BLACK
6
CONTINUOUS
10
0.927475
20
0.28186
11
0.926772
21
0.295724
0
LINE
8
BLACK
6
CONTINUOUS
10
0.926772
20
0.295724
11
0.926846
21
0.297004
0
LINE
8
BLACK
6
CONTINUOUS
10
0.926846
20
0.297004
11
0.927572
21
0.309582
0
LINE
8
BLACK
6
CONTINUOUS
10
0.927572
20
0.309582
11
0.929863
21
0.323274
0
LINE
8
BLACK
6
CONTINUOUS
10
0.929863
20
0.323274
11
0.933619
21
0.336637
0
LINE
8
BLACK
6
CONTINUOUS
10
0.933619
20
0.336637
11
0.934646
21
0.339191
0
LINE
8
BLACK
6
CONTINUOUS
10
0.934646
20
0.339191
11
0.934646
21
0.413386
0
LINE
8
BLACK
6
CONTINUOUS
10
0.934646
20
0.413386
11
0.935338
21
0.415056
0
LINE
8
BLACK
6
CONTINUOUS
10
0.935338
20
0.415056
11
0.937008
21
0.415748
0
LINE
8
BLACK
6
CONTINUOUS
10
0.937008
20
0.415748
11
1.01127
21
0.415748
0
LINE
8
BLACK
6
CONTINUOUS
10
1.01127
20
0.415748
11
1.02103
21
0.419014
0
LINE
8
BLACK
6
CONTINUOUS
10
1.02103
20
0.419014
11
1.0346
21
0.421971
0
LINE
8
BLACK
6
CONTINUOUS
10
1.0346
20
0.421971
11
1.0484
21
0.423446
0
LINE
8
BLACK
6
CONTINUOUS
10
1.0484
20
0.423446
11
1.06228
21
0.423422
0
LINE
8
BLACK
6
CONTINUOUS
10
1.06228
20
0.423422
11
1.07608
21
0.421899
0
LINE
8
BLACK
6
CONTINUOUS
10
1.07608
20
0.421899
11
1.08963
21
0.418894
0
LINE
8
BLACK
6
CONTINUOUS
10
1.08963
20
0.418894
11
1.09893
21
0.415748
0
LINE
8
BLACK
6
CONTINUOUS
10
1.09893
20
0.415748
11
1.17323
21
0.415748
0
LINE
8
BLACK
6
CONTINUOUS
10
1.17323
20
0.415748
11
1.1749
21
0.415056
0
LINE
8
BLACK
6
CONTINUOUS
10
1.1749
20
0.415056
11
1.17559
21
0.413386
0
LINE
8
BLACK
6
CONTINUOUS
10
0.934007
20
0.269533
11
0.934646
21
0.267182
0
LINE
8
BLACK
6
CONTINUOUS
10
0.934646
20
0.267182
11
0.934646
21
0.323697
0
LINE
8
BLACK
6
CONTINUOUS
10
0.934646
20
0.323697
11
0.932278
21
0.310794
0
LINE
8
BLACK
6
CONTINUOUS
10
0.932278
20
0.310794
11
0.931313
21
0.297004
0
LINE
8
BLACK
6
CONTINUOUS
10
0.931313
20
0.297004
11
0.931892
21
0.283193
0
LINE
8
BLACK
6
CONTINUOUS
10
0.931892
20
0.283193
11
0.934007
21
0.269533
0
LINE
8
BLACK
6
CONTINUOUS
10
1.02691
20
0.174803
11
1.03874
21
0.172546
0
LINE
8
BLACK
6
CONTINUOUS
10
1.03874
20
0.172546
11
1.05253
21
0.171486
0
LINE
8
BLACK
6
CONTINUOUS
10
1.05253
20
0.171486
11
1.06634
21
0.171968
0
LINE
8
BLACK
6
CONTINUOUS
10
1.06634
20
0.171968
11
1.08001
21
0.173988
0
LINE
8
BLACK
6
CONTINUOUS
10
1.08001
20
0.173988
11
1.0831
21
0.174803
0
LINE
8
BLACK
6
CONTINUOUS
10
1.0831
20
0.174803
11
1.02691
21
0.174803
0
LINE
8
BLACK
6
CONTINUOUS
10
0.93937
20
0.179528
11
1.00009
21
0.179528
0
LINE
8
BLACK
6
CONTINUOUS
10
1.00009
20
0.179528
11
0.994468
21
0.182163
0
LINE
8
BLACK
6
CONTINUOUS
10
0.994468
20
0.182163
11
0.982607
21
0.189375
0
LINE
8
BLACK
6
CONTINUOUS
10
0.982607
20
0.189375
11
0.971594
21
0.197826
0
LINE
8
BLACK
6
CONTINUOUS
10
0.971594
20
0.197826
11
0.961558
21
0.207416
0
LINE
8
BLACK
6
CONTINUOUS
10
0.961558
20
0.207416
11
0.952616
21
0.218035
0
LINE
8
BLACK
6
CONTINUOUS
10
0.952616
20
0.218035
11
0.944874
21
0.229557
0
LINE
8
BLACK
6
CONTINUOUS
10
0.944874
20
0.229557
11
0.93937
21
0.240039
0
LINE
8
BLACK
6
CONTINUOUS
10
0.93937
20
0.240039
11
0.93937
21
0.179528
0
LINE
8
BLACK
6
CONTINUOUS
10
1.01159
20
0.411024
11
1.0024
21
0.407308
0
LINE
8
BLACK
6
CONTINUOUS
10
1.0024
20
0.407308
11
0.99024
21
0.400734
0
LINE
8
BLACK
6
CONTINUOUS
10
0.99024
20
0.400734
11
0.978889
21
0.392845
0
LINE
8
BLACK
6
CONTINUOUS
10
0.978889
20
0.392845
11
0.968488
21
0.383739
0
LINE
8
BLACK
6
CONTINUOUS
10
0.968488
20
0.383739
11
0.959167
21
0.373531
0
LINE
8
BLACK
6
CONTINUOUS
10
0.959167
20
0.373531
11
0.951042
21
0.362348
0
LINE
8
BLACK
6
CONTINUOUS
10
0.951042
20
0.362348
11
0.944214
21
0.350329
0
LINE
8
BLACK
6
CONTINUOUS
10
0.944214
20
0.350329
11
0.93937
21
0.339027
0
LINE
8
BLACK
6
CONTINUOUS
10
0.93937
20
0.339027
11
0.93937
21
0.251801
0
LINE
8
BLACK
6
CONTINUOUS
10
0.93937
20
0.251801
11
0.94272
21
0.24334
0
LINE
8
BLACK
6
CONTINUOUS
10
0.94272
20
0.24334
11
0.94921
21
0.231135
0
LINE
8
BLACK
6
CONTINUOUS
10
0.94921
20
0.231135
11
0.957019
21
0.219729
0
LINE
8
BLACK
6
CONTINUOUS
10
0.957019
20
0.219729
11
0.966052
21
0.209265
0
LINE
8
BLACK
6
CONTINUOUS
10
0.966052
20
0.209265
11
0.976194
21
0.199873
0
LINE
8
BLACK
6
CONTINUOUS
10
0.976194
20
0.199873
11
0.987321
21
0.19167
0
LINE
8
BLACK
6
CONTINUOUS
10
0.987321
20
0.19167
11
0.999292
21
0.184758
0
LINE
8
BLACK
6
CONTINUOUS
10
0.999292
20
0.184758
11
1.01126
21
0.179528
0
LINE
8
BLACK
6
CONTINUOUS
10
1.01126
20
0.179528
11
1.09856
21
0.179528
0
LINE
8
BLACK
6
CONTINUOUS
10
1.09856
20
0.179528
11
1.10627
21
0.182518
0
LINE
8
BLACK
6
CONTINUOUS
10
1.10627
20
0.182518
11
1.11852
21
0.188922
0
LINE
8
BLACK
6
CONTINUOUS
10
1.11852
20
0.188922
11
1.12998
21
0.196652
0
LINE
8
BLACK
6
CONTINUOUS
10
1.12998
20
0.196652
11
1.1405
21
0.205611
0
LINE
8
BLACK
6
CONTINUOUS
10
1.1405
20
0.205611
11
1.14997
21
0.215688
0
LINE
8
BLACK
6
CONTINUOUS
10
1.14997
20
0.215688
11
1.15825
21
0.226756
0
LINE
8
BLACK
6
CONTINUOUS
10
1.15825
20
0.226756
11
1.16524
21
0.238679
0
LINE
8
BLACK
6
CONTINUOUS
10
1.16524
20
0.238679
11
1.17087
21
0.251307
0
LINE
8
BLACK
6
CONTINUOUS
10
1.17087
20
0.251307
11
1.17087
21
0.25131
0
LINE
8
BLACK
6
CONTINUOUS
10
1.17087
20
0.25131
11
1.17087
21
0.338862
0
LINE
8
BLACK
6
CONTINUOUS
10
1.17087
20
0.338862
11
1.16678
21
0.348775
0
LINE
8
BLACK
6
CONTINUOUS
10
1.16678
20
0.348775
11
1.16012
21
0.360889
0
LINE
8
BLACK
6
CONTINUOUS
10
1.16012
20
0.360889
11
1.15215
21
0.372184
0
LINE
8
BLACK
6
CONTINUOUS
10
1.15215
20
0.372184
11
1.14297
21
0.382521
0
LINE
8
BLACK
6
CONTINUOUS
10
1.14297
20
0.382521
11
1.1327
21
0.391771
0
LINE
8
BLACK
6
CONTINUOUS
10
1.1327
20
0.391771
11
1.12146
21
0.399818
0
LINE
8
BLACK
6
CONTINUOUS
10
1.12146
20
0.399818
11
1.1094
21
0.406561
0
LINE
8
BLACK
6
CONTINUOUS
10
1.1094
20
0.406561
11
1.09878
21
0.411024
0
LINE
8
BLACK
6
CONTINUOUS
10
1.09878
20
0.411024
11
1.01159
21
0.411024
0
LINE
8
BLACK
6
CONTINUOUS
10
1.16467
20
0.228406
11
1.15681
21
0.216966
0
LINE
8
BLACK
6
CONTINUOUS
10
1.15681
20
0.216966
11
1.14775
21
0.206441
0
LINE
8
BLACK
6
CONTINUOUS
10
1.14775
20
0.206441
11
1.13762
21
0.196956
0
LINE
8
BLACK
6
CONTINUOUS
10
1.13762
20
0.196956
11
1.12652
21
0.188622
0
LINE
8
BLACK
6
CONTINUOUS
10
1.12652
20
0.188622
11
1.11458
21
0.181534
0
LINE
8
BLACK
6
CONTINUOUS
10
1.11458
20
0.181534
11
1.11018
21
0.179528
0
LINE
8
BLACK
6
CONTINUOUS
10
1.11018
20
0.179528
11
1.17087
21
0.179528
0
LINE
8
BLACK
6
CONTINUOUS
10
1.17087
20
0.179528
11
1.17087
21
0.239916
0
LINE
8
BLACK
6
CONTINUOUS
10
1.17087
20
0.239916
11
1.16467
21
0.228406
0
LINE
8
BLACK
6
CONTINUOUS
10
1.17559
20
0.267239
11
1.17773
21
0.278044
0
LINE
8
BLACK
6
CONTINUOUS
10
1.17773
20
0.278044
11
1.17889
21
0.291818
0
LINE
8
BLACK
6
CONTINUOUS
10
1.17889
20
0.291818
11
1.17893
21
0.295276
0
LINE
8
BLACK
6
CONTINUOUS
10
1.17893
20
0.295276
11
1.17816
21
0.309077
0
LINE
8
BLACK
6
CONTINUOUS
10
1.17816
20
0.309077
11
1.17586
21
0.322707
0
LINE
8
BLACK
6
CONTINUOUS
10
1.17586
20
0.322707
11
1.17559
21
0.32364
0
LINE
8
BLACK
6
CONTINUOUS
10
1.17559
20
0.32364
11
1.17559
21
0.267239
0
LINE
8
BLACK
6
CONTINUOUS
10
1.11015
20
0.411024
11
1.11537
21
0.408599
0
LINE
8
BLACK
6
CONTINUOUS
10
1.11537
20
0.408599
11
1.12726
21
0.401428
0
LINE
8
BLACK
6
CONTINUOUS
10
1.12726
20
0.401428
11
1.1383
21
0.393016
0
LINE
8
BLACK
6
CONTINUOUS
10
1.1383
20
0.393016
11
1.14837
21
0.383461
0
LINE
8
BLACK
6
CONTINUOUS
10
1.14837
20
0.383461
11
1.15735
21
0.372874
0
LINE
8
BLACK
6
CONTINUOUS
10
1.15735
20
0.372874
11
1.16513
21
0.361379
0
LINE
8
BLACK
6
CONTINUOUS
10
1.16513
20
0.361379
11
1.17087
21
0.35055
0
LINE
8
BLACK
6
CONTINUOUS
10
1.17087
20
0.35055
11
1.17087
21
0.411024
0
LINE
8
BLACK
6
CONTINUOUS
10
1.17087
20
0.411024
11
1.11015
21
0.411024
0
LINE
8
BLACK
6
CONTINUOUS
10
0.93937
20
0.411024
11
0.93937
21
0.350591
0
LINE
8
BLACK
6
CONTINUOUS
10
0.93937
20
0.350591
11
0.945335
21
0.361763
0
LINE
8
BLACK
6
CONTINUOUS
10
0.945335
20
0.361763
11
0.953158
21
0.37323
0
LINE
8
BLACK
6
CONTINUOUS
10
0.953158
20
0.37323
11
0.962173
21
0.383786
0
LINE
8
BLACK
6
CONTINUOUS
10
0.962173
20
0.383786
11
0.972276
21
0.393306
0
LINE
8
BLACK
6
CONTINUOUS
10
0.972276
20
0.393306
11
0.983348
21
0.40168
0
LINE
8
BLACK
6
CONTINUOUS
10
0.983348
20
0.40168
11
0.995259
21
0.408808
0
LINE
8
BLACK
6
CONTINUOUS
10
0.995259
20
0.408808
11
1.00008
21
0.411024
0
LINE
8
BLACK
6
CONTINUOUS
10
1.00008
20
0.411024
11
0.93937
21
0.411024
0
LINE
8
BLACK
6
CONTINUOUS
10
1.04218
20
0.418414
11
1.02853
21
0.416204
0
LINE
8
BLACK
6
CONTINUOUS
10
1.02853
20
0.416204
11
1.0269
21
0.415748
0
LINE
8
BLACK
6
CONTINUOUS
10
1.0269
20
0.415748
11
1.08364
21
0.415748
0
LINE
8
BLACK
6
CONTINUOUS
10
1.08364
20
0.415748
11
1.08339
21
0.415821
0
LINE
8
BLACK
6
CONTINUOUS
10
1.08339
20
0.415821
11
1.06978
21
0.418221
0
LINE
8
BLACK
6
CONTINUOUS
10
1.06978
20
0.418221
11
1.05598
21
0.419089
0
LINE
8
BLACK
6
CONTINUOUS
10
1.05598
20
0.419089
11
1.04218
21
0.418414
0
LINE
8
BLACK
6
CONTINUOUS
10
0.974708
20
0.214865
11
0.974016
21
0.216535
0
LINE
8
BLACK
6
CONTINUOUS
10
0.974016
20
0.216535
11
0.974016
21
0.374016
0
LINE
8
BLACK
6
CONTINUOUS
10
0.974016
20
0.374016
11
0.974708
21
0.375686
0
LINE
8
BLACK
6
CONTINUOUS
10
0.974708
20
0.375686
11
0.976378
21
0.376378
0
LINE
8
BLACK
6
CONTINUOUS
10
0.976378
20
0.376378
11
1.13386
21
0.376378
0
LINE
8
BLACK
6
CONTINUOUS
10
1.13386
20
0.376378
11
1.13553
21
0.375686
0
LINE
8
BLACK
6
CONTINUOUS
10
1.13553
20
0.375686
11
1.13622
21
0.374016
0
LINE
8
BLACK
6
CONTINUOUS
10
1.13622
20
0.374016
11
1.13622
21
0.328225
0
LINE
8
BLACK
6
CONTINUOUS
10
1.13622
20
0.328225
11
1.15401
21
0.328225
0
LINE
8
BLACK
6
CONTINUOUS
10
1.15401
20
0.328225
11
1.15502
21
0.328047
0
LINE
8
BLACK
6
CONTINUOUS
10
1.15502
20
0.328047
11
1.15516
21
0.327933
0
LINE
8
BLACK
6
CONTINUOUS
10
1.15516
20
0.327933
11
1.15533
21
0.327913
0
LINE
8
BLACK
6
CONTINUOUS
10
1.15533
20
0.327913
11
1.15908
21
0.326038
0
LINE
8
BLACK
6
CONTINUOUS
10
1.15908
20
0.326038
11
1.15979
21
0.325512
0
LINE
8
BLACK
6
CONTINUOUS
10
1.15979
20
0.325512
11
1.15985
21
0.325485
0
LINE
8
BLACK
6
CONTINUOUS
10
1.15985
20
0.325485
11
1.16172
21
0.32361
0
LINE
8
BLACK
6
CONTINUOUS
10
1.16172
20
0.32361
11
1.16223
21
0.322887
0
LINE
8
BLACK
6
CONTINUOUS
10
1.16223
20
0.322887
11
1.16228
21
0.322843
0
LINE
8
BLACK
6
CONTINUOUS
10
1.16228
20
0.322843
11
1.16415
21
0.319093
0
LINE
8
BLACK
6
CONTINUOUS
10
1.16415
20
0.319093
11
1.16444
21
0.31811
0
LINE
8
BLACK
6
CONTINUOUS
10
1.16444
20
0.31811
11
1.1644
21
0.317939
0
LINE
8
BLACK
6
CONTINUOUS
10
1.1644
20
0.317939
11
1.16446
21
0.317773
0
LINE
8
BLACK
6
CONTINUOUS
10
1.16446
20
0.317773
11
1.16446
21
0.310274
0
LINE
8
BLACK
6
CONTINUOUS
10
1.16446
20
0.310274
11
1.16429
21
0.309264
0
LINE
8
BLACK
6
CONTINUOUS
10
1.16429
20
0.309264
11
1.16417
21
0.309129
0
LINE
8
BLACK
6
CONTINUOUS
10
1.16417
20
0.309129
11
1.16415
21
0.308953
0
LINE
8
BLACK
6
CONTINUOUS
10
1.16415
20
0.308953
11
1.16228
21
0.305204
0
LINE
8
BLACK
6
CONTINUOUS
10
1.16228
20
0.305204
11
1.16175
21
0.304495
0
LINE
8
BLACK
6
CONTINUOUS
10
1.16175
20
0.304495
11
1.16172
21
0.304436
0
LINE
8
BLACK
6
CONTINUOUS
10
1.16172
20
0.304436
11
1.15985
21
0.302562
0
LINE
8
BLACK
6
CONTINUOUS
10
1.15985
20
0.302562
11
1.15913
21
0.302055
0
LINE
8
BLACK
6
CONTINUOUS
10
1.15913
20
0.302055
11
1.15908
21
0.302008
0
LINE
8
BLACK
6
CONTINUOUS
10
1.15908
20
0.302008
11
1.15533
21
0.300134
0
LINE
8
BLACK
6
CONTINUOUS
10
1.15533
20
0.300134
11
1.15435
21
0.299841
0
LINE
8
BLACK
6
CONTINUOUS
10
1.15435
20
0.299841
11
1.15418
21
0.299882
0
LINE
8
BLACK
6
CONTINUOUS
10
1.15418
20
0.299882
11
1.15401
21
0.299822
0
LINE
8
BLACK
6
CONTINUOUS
10
1.15401
20
0.299822
11
1.13622
21
0.299822
0
LINE
8
BLACK
6
CONTINUOUS
10
1.13622
20
0.299822
11
1.13622
21
0.28665
0
LINE
8
BLACK
6
CONTINUOUS
10
1.13622
20
0.28665
11
1.13626
21
0.286588
0
LINE
8
BLACK
6
CONTINUOUS
10
1.13626
20
0.286588
11
1.13622
21
0.286231
0
LINE
8
BLACK
6
CONTINUOUS
10
1.13622
20
0.286231
11
1.13622
21
0.277606
0
LINE
8
BLACK
6
CONTINUOUS
10
1.13622
20
0.277606
11
1.15856
21
0.277606
0
LINE
8
BLACK
6
CONTINUOUS
10
1.15856
20
0.277606
11
1.15856
21
0.285902
0
LINE
8
BLACK
6
CONTINUOUS
10
1.15856
20
0.285902
11
1.15874
21
0.286912
0
LINE
8
BLACK
6
CONTINUOUS
10
1.15874
20
0.286912
11
1.16003
21
0.288459
0
LINE
8
BLACK
6
CONTINUOUS
10
1.16003
20
0.288459
11
1.16202
21
0.28881
0
LINE
8
BLACK
6
CONTINUOUS
10
1.16202
20
0.28881
11
1.16377
21
0.2878
0
LINE
8
BLACK
6
CONTINUOUS
10
1.16377
20
0.2878
11
1.16446
21
0.285902
0
LINE
8
BLACK
6
CONTINUOUS
10
1.16446
20
0.285902
11
1.16446
21
0.263405
0
LINE
8
BLACK
6
CONTINUOUS
10
1.16446
20
0.263405
11
1.16429
21
0.262395
0
LINE
8
BLACK
6
CONTINUOUS
10
1.16429
20
0.262395
11
1.16299
21
0.260847
0
LINE
8
BLACK
6
CONTINUOUS
10
1.16299
20
0.260847
11
1.161
21
0.260497
0
LINE
8
BLACK
6
CONTINUOUS
10
1.161
20
0.260497
11
1.15925
21
0.261507
0
LINE
8
BLACK
6
CONTINUOUS
10
1.15925
20
0.261507
11
1.15856
21
0.263405
0
LINE
8
BLACK
6
CONTINUOUS
10
1.15856
20
0.263405
11
1.15856
21
0.2717
0
LINE
8
BLACK
6
CONTINUOUS
10
1.15856
20
0.2717
11
1.13622
21
0.2717
0
LINE
8
BLACK
6
CONTINUOUS
10
1.13622
20
0.2717
11
1.13622
21
0.216535
0
LINE
8
BLACK
6
CONTINUOUS
10
1.13622
20
0.216535
11
1.13553
21
0.214865
0
LINE
8
BLACK
6
CONTINUOUS
10
1.13553
20
0.214865
11
1.13386
21
0.214173
0
LINE
8
BLACK
6
CONTINUOUS
10
1.13386
20
0.214173
11
0.976378
21
0.214173
0
LINE
8
BLACK
6
CONTINUOUS
10
0.976378
20
0.214173
11
0.974708
21
0.214865
0
LINE
8
BLACK
6
CONTINUOUS
10
0.97874
20
0.371654
11
0.97874
21
0.218898
0
LINE
8
BLACK
6
CONTINUOUS
10
0.97874
20
0.218898
11
1.1315
21
0.218898
0
LINE
8
BLACK
6
CONTINUOUS
10
1.1315
20
0.218898
11
1.1315
21
0.2717
0
LINE
8
BLACK
6
CONTINUOUS
10
1.1315
20
0.2717
11
1.12214
21
0.2717
0
LINE
8
BLACK
6
CONTINUOUS
10
1.12214
20
0.2717
11
1.12113
21
0.271879
0
LINE
8
BLACK
6
CONTINUOUS
10
1.12113
20
0.271879
11
1.121
21
0.271988
0
LINE
8
BLACK
6
CONTINUOUS
10
1.121
20
0.271988
11
1.12083
21
0.272006
0
LINE
8
BLACK
6
CONTINUOUS
10
1.12083
20
0.272006
11
1.12024
21
0.272626
0
LINE
8
BLACK
6
CONTINUOUS
10
1.12024
20
0.272626
11
1.11958
21
0.273177
0
LINE
8
BLACK
6
CONTINUOUS
10
1.11958
20
0.273177
11
1.11955
21
0.273344
0
LINE
8
BLACK
6
CONTINUOUS
10
1.11955
20
0.273344
11
1.11944
21
0.273467
0
LINE
8
BLACK
6
CONTINUOUS
10
1.11944
20
0.273467
11
1.11938
21
0.274322
0
LINE
8
BLACK
6
CONTINUOUS
10
1.11938
20
0.274322
11
1.11923
21
0.275166
0
LINE
8
BLACK
6
CONTINUOUS
10
1.11923
20
0.275166
11
1.11932
21
0.275313
0
LINE
8
BLACK
6
CONTINUOUS
10
1.11932
20
0.275313
11
1.11931
21
0.275482
0
LINE
8
BLACK
6
CONTINUOUS
10
1.11931
20
0.275482
11
1.11981
21
0.276173
0
LINE
8
BLACK
6
CONTINUOUS
10
1.11981
20
0.276173
11
1.12024
21
0.276915
0
LINE
8
BLACK
6
CONTINUOUS
10
1.12024
20
0.276915
11
1.1204
21
0.276973
0
LINE
8
BLACK
6
CONTINUOUS
10
1.1204
20
0.276973
11
1.1205
21
0.27711
0
LINE
8
BLACK
6
CONTINUOUS
10
1.1205
20
0.27711
11
1.12588
21
0.280697
0
LINE
8
BLACK
6
CONTINUOUS
10
1.12588
20
0.280697
11
1.12909
21
0.283901
0
LINE
8
BLACK
6
CONTINUOUS
10
1.12909
20
0.283901
11
1.13075
21
0.287222
0
LINE
8
BLACK
6
CONTINUOUS
10
1.13075
20
0.287222
11
1.13136
21
0.288046
0
LINE
8
BLACK
6
CONTINUOUS
10
1.13136
20
0.288046
11
1.1315
21
0.288105
0
LINE
8
BLACK
6
CONTINUOUS
10
1.1315
20
0.288105
11
1.1315
21
0.299822
0
LINE
8
BLACK
6
CONTINUOUS
10
1.1315
20
0.299822
11
1.12214
21
0.299822
0
LINE
8
BLACK
6
CONTINUOUS
10
1.12214
20
0.299822
11
1.12113
21
0.3
0
LINE
8
BLACK
6
CONTINUOUS
10
1.12113
20
0.3
11
1.11958
21
0.301298
0
LINE
8
BLACK
6
CONTINUOUS
10
1.11958
20
0.301298
11
1.11923
21
0.303287
0
LINE
8
BLACK
6
CONTINUOUS
10
1.11923
20
0.303287
11
1.12024
21
0.305037
0
LINE
8
BLACK
6
CONTINUOUS
10
1.12024
20
0.305037
11
1.12214
21
0.305727
0
LINE
8
BLACK
6
CONTINUOUS
10
1.12214
20
0.305727
11
1.1315
21
0.305727
0
LINE
8
BLACK
6
CONTINUOUS
10
1.1315
20
0.305727
11
1.1315
21
0.322319
0
LINE
8
BLACK
6
CONTINUOUS
10
1.1315
20
0.322319
11
1.12214
21
0.322319
0
LINE
8
BLACK
6
CONTINUOUS
10
1.12214
20
0.322319
11
1.12113
21
0.322497
0
LINE
8
BLACK
6
CONTINUOUS
10
1.12113
20
0.322497
11
1.11958
21
0.323795
0
LINE
8
BLACK
6
CONTINUOUS
10
1.11958
20
0.323795
11
1.11923
21
0.325785
0
LINE
8
BLACK
6
CONTINUOUS
10
1.11923
20
0.325785
11
1.12024
21
0.327534
0
LINE
8
BLACK
6
CONTINUOUS
10
1.12024
20
0.327534
11
1.12214
21
0.328225
0
LINE
8
BLACK
6
CONTINUOUS
10
1.12214
20
0.328225
11
1.1315
21
0.328225
0
LINE
8
BLACK
6
CONTINUOUS
10
1.1315
20
0.328225
11
1.1315
21
0.371654
0
LINE
8
BLACK
6
CONTINUOUS
10
1.1315
20
0.371654
11
0.97874
21
0.371654
0
LINE
8
BLACK
6
CONTINUOUS
10
1.13114
20
0.277606
11
1.1315
21
0.277606
0
LINE
8
BLACK
6
CONTINUOUS
10
1.1315
20
0.277606
11
1.1315
21
0.277958
0
LINE
8
BLACK
6
CONTINUOUS
10
1.1315
20
0.277958
11
1.13114
21
0.277606
0
LINE
8
BLACK
6
CONTINUOUS
10
1.13622
20
0.322319
11
1.13622
21
0.305727
0
LINE
8
BLACK
6
CONTINUOUS
10
1.13622
20
0.305727
11
1.15331
21
0.305727
0
LINE
8
BLACK
6
CONTINUOUS
10
1.15331
20
0.305727
11
1.15601
21
0.307076
0
LINE
8
BLACK
6
CONTINUOUS
10
1.15601
20
0.307076
11
1.15721
21
0.308273
0
LINE
8
BLACK
6
CONTINUOUS
10
1.15721
20
0.308273
11
1.15856
21
0.310971
0
LINE
8
BLACK
6
CONTINUOUS
10
1.15856
20
0.310971
11
1.15856
21
0.317076
0
LINE
8
BLACK
6
CONTINUOUS
10
1.15856
20
0.317076
11
1.15721
21
0.319773
0
LINE
8
BLACK
6
CONTINUOUS
10
1.15721
20
0.319773
11
1.15601
21
0.32097
0
LINE
8
BLACK
6
CONTINUOUS
10
1.15601
20
0.32097
11
1.15331
21
0.322319
0
LINE
8
BLACK
6
CONTINUOUS
10
1.15331
20
0.322319
11
1.13622
21
0.322319
0
LINE
8
BLACK
6
CONTINUOUS
10
1.1123
20
0.322536
11
1.11299
21
0.320866
0
LINE
8
BLACK
6
CONTINUOUS
10
1.11299
20
0.320866
11
1.11299
21
0.252362
0
LINE
8
BLACK
6
CONTINUOUS
10
1.11299
20
0.252362
11
1.1123
21
0.250692
0
LINE
8
BLACK
6
CONTINUOUS
10
1.1123
20
0.250692
11
1.11063
21
0.25
0
LINE
8
BLACK
6
CONTINUOUS
10
1.11063
20
0.25
11
1.10896
21
0.250692
0
LINE
8
BLACK
6
CONTINUOUS
10
1.10896
20
0.250692
11
1.10827
21
0.252362
0
LINE
8
BLACK
6
CONTINUOUS
10
1.10827
20
0.252362
11
1.10827
21
0.320866
0
LINE
8
BLACK
6
CONTINUOUS
10
1.10827
20
0.320866
11
1.10896
21
0.322536
0
LINE
8
BLACK
6
CONTINUOUS
10
1.10896
20
0.322536
11
1.11063
21
0.323228
0
LINE
8
BLACK
6
CONTINUOUS
10
1.11063
20
0.323228
11
1.1123
21
0.322536
0
LINE
8
BLACK
6
CONTINUOUS
10
1.00128
20
0.322536
11
1.00197
21
0.320866
0
LINE
8
BLACK
6
CONTINUOUS
10
1.00197
20
0.320866
11
1.00197
21
0.269685
0
LINE
8
BLACK
6
CONTINUOUS
10
1.00197
20
0.269685
11
1.00128
21
0.268015
0
LINE
8
BLACK
6
CONTINUOUS
10
1.00128
20
0.268015
11
0.999606
21
0.267323
0
LINE
8
BLACK
6
CONTINUOUS
10
0.999606
20
0.267323
11
0.997936
21
0.268015
0
LINE
8
BLACK
6
CONTINUOUS
10
0.997936
20
0.268015
11
0.997244
21
0.269685
0
LINE
8
BLACK
6
CONTINUOUS
10
0.997244
20
0.269685
11
0.997244
21
0.320866
0
LINE
8
BLACK
6
CONTINUOUS
10
0.997244
20
0.320866
11
0.997936
21
0.322536
0
LINE
8
BLACK
6
CONTINUOUS
10
0.997936
20
0.322536
11
0.999606
21
0.323228
0
LINE
8
BLACK
6
CONTINUOUS
10
0.999606
20
0.323228
11
1.00128
21
0.322536
0
LINE
8
BLACK
6
CONTINUOUS
10
1.08711
20
0.33936
11
1.0875
21
0.339428
0
LINE
8
BLACK
6
CONTINUOUS
10
1.0875
20
0.339428
11
1.08806
21
0.339106
0
LINE
8
BLACK
6
CONTINUOUS
10
1.08806
20
0.339106
11
1.08868
21
0.338939
0
LINE
8
BLACK
6
CONTINUOUS
10
1.08868
20
0.338939
11
1.08891
21
0.338616
0
LINE
8
BLACK
6
CONTINUOUS
10
1.08891
20
0.338616
11
1.08925
21
0.338418
0
LINE
8
BLACK
6
CONTINUOUS
10
1.08925
20
0.338418
11
1.08947
21
0.337812
0
LINE
8
BLACK
6
CONTINUOUS
10
1.08947
20
0.337812
11
1.08984
21
0.337284
0
LINE
8
BLACK
6
CONTINUOUS
10
1.08984
20
0.337284
11
1.08981
21
0.336891
0
LINE
8
BLACK
6
CONTINUOUS
10
1.08981
20
0.336891
11
1.08994
21
0.33652
0
LINE
8
BLACK
6
CONTINUOUS
10
1.08994
20
0.33652
11
1.08994
21
0.29715
0
LINE
8
BLACK
6
CONTINUOUS
10
1.08994
20
0.29715
11
1.08976
21
0.29614
0
LINE
8
BLACK
6
CONTINUOUS
10
1.08976
20
0.29614
11
1.08847
21
0.294593
0
LINE
8
BLACK
6
CONTINUOUS
10
1.08847
20
0.294593
11
1.08648
21
0.294242
0
LINE
8
BLACK
6
CONTINUOUS
10
1.08648
20
0.294242
11
1.08473
21
0.295252
0
LINE
8
BLACK
6
CONTINUOUS
10
1.08473
20
0.295252
11
1.08404
21
0.29715
0
LINE
8
BLACK
6
CONTINUOUS
10
1.08404
20
0.29715
11
1.08404
21
0.323211
0
LINE
8
BLACK
6
CONTINUOUS
10
1.08404
20
0.323211
11
1.07654
21
0.30715
0
LINE
8
BLACK
6
CONTINUOUS
10
1.07654
20
0.30715
11
1.07632
21
0.306833
0
LINE
8
BLACK
6
CONTINUOUS
10
1.07632
20
0.306833
11
1.07628
21
0.306706
0
LINE
8
BLACK
6
CONTINUOUS
10
1.07628
20
0.306706
11
1.07618
21
0.306631
0
LINE
8
BLACK
6
CONTINUOUS
10
1.07618
20
0.306631
11
1.07595
21
0.30631
0
LINE
8
BLACK
6
CONTINUOUS
10
1.07595
20
0.30631
11
1.07526
21
0.305987
0
LINE
8
BLACK
6
CONTINUOUS
10
1.07526
20
0.305987
11
1.07463
21
0.305547
0
LINE
8
BLACK
6
CONTINUOUS
10
1.07463
20
0.305547
11
1.07436
21
0.30557
0
LINE
8
BLACK
6
CONTINUOUS
10
1.07436
20
0.30557
11
1.07412
21
0.305457
0
LINE
8
BLACK
6
CONTINUOUS
10
1.07412
20
0.305457
11
1.07338
21
0.305656
0
LINE
8
BLACK
6
CONTINUOUS
10
1.07338
20
0.305656
11
1.07262
21
0.305722
0
LINE
8
BLACK
6
CONTINUOUS
10
1.07262
20
0.305722
11
1.07243
21
0.305911
0
LINE
8
BLACK
6
CONTINUOUS
10
1.07243
20
0.305911
11
1.07217
21
0.305981
0
LINE
8
BLACK
6
CONTINUOUS
10
1.07217
20
0.305981
11
1.07173
21
0.306609
0
LINE
8
BLACK
6
CONTINUOUS
10
1.07173
20
0.306609
11
1.07119
21
0.30715
0
LINE
8
BLACK
6
CONTINUOUS
10
1.07119
20
0.30715
11
1.0637
21
0.323211
0
LINE
8
BLACK
6
CONTINUOUS
10
1.0637
20
0.323211
11
1.0637
21
0.29715
0
LINE
8
BLACK
6
CONTINUOUS
10
1.0637
20
0.29715
11
1.06352
21
0.29614
0
LINE
8
BLACK
6
CONTINUOUS
10
1.06352
20
0.29614
11
1.06222
21
0.294593
0
LINE
8
BLACK
6
CONTINUOUS
10
1.06222
20
0.294593
11
1.06023
21
0.294242
0
LINE
8
BLACK
6
CONTINUOUS
10
1.06023
20
0.294242
11
1.05848
21
0.295252
0
LINE
8
BLACK
6
CONTINUOUS
10
1.05848
20
0.295252
11
1.05779
21
0.29715
0
LINE
8
BLACK
6
CONTINUOUS
10
1.05779
20
0.29715
11
1.05779
21
0.33652
0
LINE
8
BLACK
6
CONTINUOUS
10
1.05779
20
0.33652
11
1.05797
21
0.33753
0
LINE
8
BLACK
6
CONTINUOUS
10
1.05797
20
0.33753
11
1.05822
21
0.337832
0
LINE
8
BLACK
6
CONTINUOUS
10
1.05822
20
0.337832
11
1.05832
21
0.338213
0
LINE
8
BLACK
6
CONTINUOUS
10
1.05832
20
0.338213
11
1.05885
21
0.338584
0
LINE
8
BLACK
6
CONTINUOUS
10
1.05885
20
0.338584
11
1.05927
21
0.339078
0
LINE
8
BLACK
6
CONTINUOUS
10
1.05927
20
0.339078
11
1.05965
21
0.339146
0
LINE
8
BLACK
6
CONTINUOUS
10
1.05965
20
0.339146
11
1.05998
21
0.339372
0
LINE
8
BLACK
6
CONTINUOUS
10
1.05998
20
0.339372
11
1.06062
21
0.339316
0
LINE
8
BLACK
6
CONTINUOUS
10
1.06062
20
0.339316
11
1.06126
21
0.339428
0
LINE
8
BLACK
6
CONTINUOUS
10
1.06126
20
0.339428
11
1.0616
21
0.339231
0
LINE
8
BLACK
6
CONTINUOUS
10
1.0616
20
0.339231
11
1.06199
21
0.339197
0
LINE
8
BLACK
6
CONTINUOUS
10
1.06199
20
0.339197
11
1.06245
21
0.338741
0
LINE
8
BLACK
6
CONTINUOUS
10
1.06245
20
0.338741
11
1.063
21
0.338418
0
LINE
8
BLACK
6
CONTINUOUS
10
1.063
20
0.338418
11
1.06314
21
0.338048
0
LINE
8
BLACK
6
CONTINUOUS
10
1.06314
20
0.338048
11
1.06342
21
0.337769
0
LINE
8
BLACK
6
CONTINUOUS
10
1.06342
20
0.337769
11
1.07387
21
0.315381
0
LINE
8
BLACK
6
CONTINUOUS
10
1.07387
20
0.315381
11
1.08431
21
0.337769
0
LINE
8
BLACK
6
CONTINUOUS
10
1.08431
20
0.337769
11
1.0849
21
0.338609
0
LINE
8
BLACK
6
CONTINUOUS
10
1.0849
20
0.338609
11
1.08526
21
0.338776
0
LINE
8
BLACK
6
CONTINUOUS
10
1.08526
20
0.338776
11
1.08551
21
0.339078
0
LINE
8
BLACK
6
CONTINUOUS
10
1.08551
20
0.339078
11
1.08615
21
0.33919
0
LINE
8
BLACK
6
CONTINUOUS
10
1.08615
20
0.33919
11
1.08673
21
0.339462
0
LINE
8
BLACK
6
CONTINUOUS
10
1.08673
20
0.339462
11
1.08711
21
0.33936
0
LINE
8
BLACK
6
CONTINUOUS
10
1.04675
20
0.339295
11
1.0483
21
0.337997
0
LINE
8
BLACK
6
CONTINUOUS
10
1.0483
20
0.337997
11
1.04865
21
0.336008
0
LINE
8
BLACK
6
CONTINUOUS
10
1.04865
20
0.336008
11
1.04764
21
0.334259
0
LINE
8
BLACK
6
CONTINUOUS
10
1.04764
20
0.334259
11
1.04574
21
0.333568
0
LINE
8
BLACK
6
CONTINUOUS
10
1.04574
20
0.333568
11
1.02398
21
0.333568
0
LINE
8
BLACK
6
CONTINUOUS
10
1.02398
20
0.333568
11
1.03908
21
0.298314
0
LINE
8
BLACK
6
CONTINUOUS
10
1.03908
20
0.298314
11
1.03932
21
0.297315
0
LINE
8
BLACK
6
CONTINUOUS
10
1.03932
20
0.297315
11
1.03873
21
0.295382
0
LINE
8
BLACK
6
CONTINUOUS
10
1.03873
20
0.295382
11
1.03704
21
0.294276
0
LINE
8
BLACK
6
CONTINUOUS
10
1.03704
20
0.294276
11
1.03504
21
0.294515
0
LINE
8
BLACK
6
CONTINUOUS
10
1.03504
20
0.294515
11
1.03366
21
0.295987
0
LINE
8
BLACK
6
CONTINUOUS
10
1.03366
20
0.295987
11
1.01678
21
0.335357
0
LINE
8
BLACK
6
CONTINUOUS
10
1.01678
20
0.335357
11
1.01655
21
0.336356
0
LINE
8
BLACK
6
CONTINUOUS
10
1.01655
20
0.336356
11
1.01665
21
0.33669
0
LINE
8
BLACK
6
CONTINUOUS
10
1.01665
20
0.33669
11
1.01659
21
0.337033
0
LINE
8
BLACK
6
CONTINUOUS
10
1.01659
20
0.337033
11
1.01693
21
0.33763
0
LINE
8
BLACK
6
CONTINUOUS
10
1.01693
20
0.33763
11
1.01713
21
0.338289
0
LINE
8
BLACK
6
CONTINUOUS
10
1.01713
20
0.338289
11
1.01743
21
0.33848
0
LINE
8
BLACK
6
CONTINUOUS
10
1.01743
20
0.33848
11
1.0176
21
0.338782
0
LINE
8
BLACK
6
CONTINUOUS
10
1.0176
20
0.338782
11
1.01825
21
0.339018
0
LINE
8
BLACK
6
CONTINUOUS
10
1.01825
20
0.339018
11
1.01882
21
0.339395
0
LINE
8
BLACK
6
CONTINUOUS
10
1.01882
20
0.339395
11
1.01917
21
0.339354
0
LINE
8
BLACK
6
CONTINUOUS
10
1.01917
20
0.339354
11
1.0195
21
0.339473
0
LINE
8
BLACK
6
CONTINUOUS
10
1.0195
20
0.339473
11
1.04574
21
0.339473
0
LINE
8
BLACK
6
CONTINUOUS
10
1.04574
20
0.339473
11
1.04675
21
0.339295
  0
ENDSEC
  0
EOF
