  0
SECTION
  2
HEADER
  9
$ANGBASE
  50
0.0
  9
$ANGDIR
  70
1
  9
$MEASUREMENT
  70
0
  0
ENDSEC
  0
SECTION
  2
TABLES
  0
TABLE
  2
LTYPE
  70
4
  0
LTYPE
  5
40F
  2
CONTINUOUS
  70
0
  3
Solid line
  72
65
  73
0
  40
0.0
  0
LTYPE
  5
410
  2
DASHDOT
 70
0
  3
Dash Dot ____ _ ____ _
 72
65
 73
4
 40
2.0
 49
1.25
 49
-0.25
 49
0.25
 49
-0.25
  0
LTYPE
  5
411
  2
DASHED
 70
0
  3
Dashed __ __ __ __ __
 72
65
 73
2
 40
0.75
 49
0.5
 49
-0.25
  0
LTYPE
  5
43B
  2
DOTTED
 70
0
  3
Dotted .  .  .  .
 72
65
 73
2
 40
0.2
 49
0.0
 49
-0.2
  0
ENDTAB
  0
TABLE
  2
STYLE
  70
4
  0
STYLE
  2
KICAD
  70
0
  40
0
  41
1
  42
1
  50
0
  71
0
  3
isocp.shx
  0
STYLE
  2
KICADB
  70
0
  40
0
  41
1
  42
1
  50
0
  71
0
  3
isocp.shx
  0
STYLE
  2
KICADI
  70
0
  40
0
  41
1
  42
1
  50
15
  71
0
  3
isocp.shx
  0
STYLE
  2
KICADBI
  70
0
  40
0
  41
1
  42
1
  50
15
  71
0
  3
isocp.shx
  0
ENDTAB
  0
TABLE
  2
LAYER
  70
1
  0
LAYER
  2
BLACK
  70
0
  62
7
  6
CONTINUOUS
  0
ENDTAB
  0
ENDSEC
  0
SECTION
  2
ENTITIES
0
LINE
8
BLACK
6
CONTINUOUS
10
-4.49232
20
5.44879
11
-4.48279
21
5.4471
0
LINE
8
BLACK
6
CONTINUOUS
10
-4.48279
20
5.4471
11
-4.47367
21
5.44387
0
LINE
8
BLACK
6
CONTINUOUS
10
-4.47367
20
5.44387
11
-4.46519
21
5.43919
0
LINE
8
BLACK
6
CONTINUOUS
10
-4.46519
20
5.43919
11
-4.4576
21
5.43319
0
LINE
8
BLACK
6
CONTINUOUS
10
-4.4576
20
5.43319
11
-4.45109
21
5.42603
0
LINE
8
BLACK
6
CONTINUOUS
10
-4.45109
20
5.42603
11
-4.44583
21
5.41791
0
LINE
8
BLACK
6
CONTINUOUS
10
-4.44583
20
5.41791
11
-4.44197
21
5.40903
0
LINE
8
BLACK
6
CONTINUOUS
10
-4.44197
20
5.40903
11
-4.43961
21
5.39965
0
LINE
8
BLACK
6
CONTINUOUS
10
-4.43961
20
5.39965
11
-4.43882
21
5.39
0
LINE
8
BLACK
6
CONTINUOUS
10
-4.43882
20
5.39
11
-4.43889
21
5.38712
0
LINE
8
BLACK
6
CONTINUOUS
10
-4.43889
20
5.38712
11
-4.44015
21
5.37752
0
LINE
8
BLACK
6
CONTINUOUS
10
-4.44015
20
5.37752
11
-4.44297
21
5.36826
0
LINE
8
BLACK
6
CONTINUOUS
10
-4.44297
20
5.36826
11
-4.44725
21
5.35958
0
LINE
8
BLACK
6
CONTINUOUS
10
-4.44725
20
5.35958
11
-4.4529
21
5.35173
0
LINE
8
BLACK
6
CONTINUOUS
10
-4.4529
20
5.35173
11
-4.45976
21
5.34489
0
LINE
8
BLACK
6
CONTINUOUS
10
-4.45976
20
5.34489
11
-4.46764
21
5.33927
0
LINE
8
BLACK
6
CONTINUOUS
10
-4.46764
20
5.33927
11
-4.47633
21
5.33502
0
LINE
8
BLACK
6
CONTINUOUS
10
-4.47633
20
5.33502
11
-4.4856
21
5.33224
0
LINE
8
BLACK
6
CONTINUOUS
10
-4.4856
20
5.33224
11
-4.4952
21
5.33101
0
LINE
8
BLACK
6
CONTINUOUS
10
-4.4952
20
5.33101
11
-4.50487
21
5.33136
0
LINE
8
BLACK
6
CONTINUOUS
10
-4.50487
20
5.33136
11
-4.51435
21
5.33329
0
LINE
8
BLACK
6
CONTINUOUS
10
-4.51435
20
5.33329
11
-4.52339
21
5.33674
0
LINE
8
BLACK
6
CONTINUOUS
10
-4.52339
20
5.33674
11
-4.53175
21
5.34162
0
LINE
8
BLACK
6
CONTINUOUS
10
-4.53175
20
5.34162
11
-4.53919
21
5.34781
0
LINE
8
BLACK
6
CONTINUOUS
10
-4.53919
20
5.34781
11
-4.54553
21
5.35512
0
LINE
8
BLACK
6
CONTINUOUS
10
-4.54553
20
5.35512
11
-4.55059
21
5.36337
0
LINE
8
BLACK
6
CONTINUOUS
10
-4.55059
20
5.36337
11
-4.55423
21
5.37234
0
LINE
8
BLACK
6
CONTINUOUS
10
-4.55423
20
5.37234
11
-4.55635
21
5.38178
0
LINE
8
BLACK
6
CONTINUOUS
10
-4.55635
20
5.38178
11
-4.55691
21
5.39144
0
LINE
8
BLACK
6
CONTINUOUS
10
-4.55691
20
5.39144
11
-4.55588
21
5.40107
0
LINE
8
BLACK
6
CONTINUOUS
10
-4.55588
20
5.40107
11
-4.5533
21
5.41039
0
LINE
8
BLACK
6
CONTINUOUS
10
-4.5533
20
5.41039
11
-4.54922
21
5.41917
0
LINE
8
BLACK
6
CONTINUOUS
10
-4.54922
20
5.41917
11
-4.54377
21
5.42716
0
LINE
8
BLACK
6
CONTINUOUS
10
-4.54377
20
5.42716
11
-4.53708
21
5.43416
0
LINE
8
BLACK
6
CONTINUOUS
10
-4.53708
20
5.43416
11
-4.52934
21
5.43997
0
LINE
8
BLACK
6
CONTINUOUS
10
-4.52934
20
5.43997
11
-4.52076
21
5.44444
0
LINE
8
BLACK
6
CONTINUOUS
10
-4.52076
20
5.44444
11
-4.51156
21
5.44745
0
LINE
8
BLACK
6
CONTINUOUS
10
-4.51156
20
5.44745
11
-4.50199
21
5.44891
0
LINE
8
BLACK
6
CONTINUOUS
10
-4.50199
20
5.44891
11
-4.49232
21
5.44879
0
LINE
8
BLACK
6
CONTINUOUS
10
-4.09862
20
5.44879
11
-4.08909
21
5.4471
0
LINE
8
BLACK
6
CONTINUOUS
10
-4.08909
20
5.4471
11
-4.07997
21
5.44387
0
LINE
8
BLACK
6
CONTINUOUS
10
-4.07997
20
5.44387
11
-4.07149
21
5.43919
0
LINE
8
BLACK
6
CONTINUOUS
10
-4.07149
20
5.43919
11
-4.0639
21
5.43319
0
LINE
8
BLACK
6
CONTINUOUS
10
-4.0639
20
5.43319
11
-4.05738
21
5.42603
0
LINE
8
BLACK
6
CONTINUOUS
10
-4.05738
20
5.42603
11
-4.05213
21
5.41791
0
LINE
8
BLACK
6
CONTINUOUS
10
-4.05213
20
5.41791
11
-4.04827
21
5.40903
0
LINE
8
BLACK
6
CONTINUOUS
10
-4.04827
20
5.40903
11
-4.04591
21
5.39965
0
LINE
8
BLACK
6
CONTINUOUS
10
-4.04591
20
5.39965
11
-4.04512
21
5.39
0
LINE
8
BLACK
6
CONTINUOUS
10
-4.04512
20
5.39
11
-4.04519
21
5.38712
0
LINE
8
BLACK
6
CONTINUOUS
10
-4.04519
20
5.38712
11
-4.04645
21
5.37752
0
LINE
8
BLACK
6
CONTINUOUS
10
-4.04645
20
5.37752
11
-4.04927
21
5.36826
0
LINE
8
BLACK
6
CONTINUOUS
10
-4.04927
20
5.36826
11
-4.05355
21
5.35958
0
LINE
8
BLACK
6
CONTINUOUS
10
-4.05355
20
5.35958
11
-4.0592
21
5.35173
0
LINE
8
BLACK
6
CONTINUOUS
10
-4.0592
20
5.35173
11
-4.06606
21
5.34489
0
LINE
8
BLACK
6
CONTINUOUS
10
-4.06606
20
5.34489
11
-4.07393
21
5.33927
0
LINE
8
BLACK
6
CONTINUOUS
10
-4.07393
20
5.33927
11
-4.08263
21
5.33502
0
LINE
8
BLACK
6
CONTINUOUS
10
-4.08263
20
5.33502
11
-4.09189
21
5.33224
0
LINE
8
BLACK
6
CONTINUOUS
10
-4.09189
20
5.33224
11
-4.10149
21
5.33101
0
LINE
8
BLACK
6
CONTINUOUS
10
-4.10149
20
5.33101
11
-4.11117
21
5.33136
0
LINE
8
BLACK
6
CONTINUOUS
10
-4.11117
20
5.33136
11
-4.12065
21
5.33329
0
LINE
8
BLACK
6
CONTINUOUS
10
-4.12065
20
5.33329
11
-4.12969
21
5.33674
0
LINE
8
BLACK
6
CONTINUOUS
10
-4.12969
20
5.33674
11
-4.13805
21
5.34162
0
LINE
8
BLACK
6
CONTINUOUS
10
-4.13805
20
5.34162
11
-4.14549
21
5.34781
0
LINE
8
BLACK
6
CONTINUOUS
10
-4.14549
20
5.34781
11
-4.15183
21
5.35512
0
LINE
8
BLACK
6
CONTINUOUS
10
-4.15183
20
5.35512
11
-4.15688
21
5.36337
0
LINE
8
BLACK
6
CONTINUOUS
10
-4.15688
20
5.36337
11
-4.16053
21
5.37234
0
LINE
8
BLACK
6
CONTINUOUS
10
-4.16053
20
5.37234
11
-4.16265
21
5.38178
0
LINE
8
BLACK
6
CONTINUOUS
10
-4.16265
20
5.38178
11
-4.16321
21
5.39144
0
LINE
8
BLACK
6
CONTINUOUS
10
-4.16321
20
5.39144
11
-4.16218
21
5.40107
0
LINE
8
BLACK
6
CONTINUOUS
10
-4.16218
20
5.40107
11
-4.1596
21
5.41039
0
LINE
8
BLACK
6
CONTINUOUS
10
-4.1596
20
5.41039
11
-4.15552
21
5.41917
0
LINE
8
BLACK
6
CONTINUOUS
10
-4.15552
20
5.41917
11
-4.15007
21
5.42716
0
LINE
8
BLACK
6
CONTINUOUS
10
-4.15007
20
5.42716
11
-4.14338
21
5.43416
0
LINE
8
BLACK
6
CONTINUOUS
10
-4.14338
20
5.43416
11
-4.13564
21
5.43997
0
LINE
8
BLACK
6
CONTINUOUS
10
-4.13564
20
5.43997
11
-4.12706
21
5.44444
0
LINE
8
BLACK
6
CONTINUOUS
10
-4.12706
20
5.44444
11
-4.11786
21
5.44745
0
LINE
8
BLACK
6
CONTINUOUS
10
-4.11786
20
5.44745
11
-4.10829
21
5.44891
0
LINE
8
BLACK
6
CONTINUOUS
10
-4.10829
20
5.44891
11
-4.09862
21
5.44879
0
LINE
8
BLACK
6
CONTINUOUS
10
-4.88602
20
5.44879
11
-4.87649
21
5.4471
0
LINE
8
BLACK
6
CONTINUOUS
10
-4.87649
20
5.4471
11
-4.86737
21
5.44387
0
LINE
8
BLACK
6
CONTINUOUS
10
-4.86737
20
5.44387
11
-4.85889
21
5.43919
0
LINE
8
BLACK
6
CONTINUOUS
10
-4.85889
20
5.43919
11
-4.8513
21
5.43319
0
LINE
8
BLACK
6
CONTINUOUS
10
-4.8513
20
5.43319
11
-4.84479
21
5.42603
0
LINE
8
BLACK
6
CONTINUOUS
10
-4.84479
20
5.42603
11
-4.83953
21
5.41791
0
LINE
8
BLACK
6
CONTINUOUS
10
-4.83953
20
5.41791
11
-4.83567
21
5.40903
0
LINE
8
BLACK
6
CONTINUOUS
10
-4.83567
20
5.40903
11
-4.83331
21
5.39965
0
LINE
8
BLACK
6
CONTINUOUS
10
-4.83331
20
5.39965
11
-4.83252
21
5.39
0
LINE
8
BLACK
6
CONTINUOUS
10
-4.83252
20
5.39
11
-4.83259
21
5.38712
0
LINE
8
BLACK
6
CONTINUOUS
10
-4.83259
20
5.38712
11
-4.83385
21
5.37752
0
LINE
8
BLACK
6
CONTINUOUS
10
-4.83385
20
5.37752
11
-4.83667
21
5.36826
0
LINE
8
BLACK
6
CONTINUOUS
10
-4.83667
20
5.36826
11
-4.84095
21
5.35958
0
LINE
8
BLACK
6
CONTINUOUS
10
-4.84095
20
5.35958
11
-4.8466
21
5.35173
0
LINE
8
BLACK
6
CONTINUOUS
10
-4.8466
20
5.35173
11
-4.85346
21
5.34489
0
LINE
8
BLACK
6
CONTINUOUS
10
-4.85346
20
5.34489
11
-4.86134
21
5.33927
0
LINE
8
BLACK
6
CONTINUOUS
10
-4.86134
20
5.33927
11
-4.87003
21
5.33502
0
LINE
8
BLACK
6
CONTINUOUS
10
-4.87003
20
5.33502
11
-4.8793
21
5.33224
0
LINE
8
BLACK
6
CONTINUOUS
10
-4.8793
20
5.33224
11
-4.8889
21
5.33101
0
LINE
8
BLACK
6
CONTINUOUS
10
-4.8889
20
5.33101
11
-4.89857
21
5.33136
0
LINE
8
BLACK
6
CONTINUOUS
10
-4.89857
20
5.33136
11
-4.90805
21
5.33329
0
LINE
8
BLACK
6
CONTINUOUS
10
-4.90805
20
5.33329
11
-4.91709
21
5.33674
0
LINE
8
BLACK
6
CONTINUOUS
10
-4.91709
20
5.33674
11
-4.92545
21
5.34162
0
LINE
8
BLACK
6
CONTINUOUS
10
-4.92545
20
5.34162
11
-4.93289
21
5.34781
0
LINE
8
BLACK
6
CONTINUOUS
10
-4.93289
20
5.34781
11
-4.93923
21
5.35512
0
LINE
8
BLACK
6
CONTINUOUS
10
-4.93923
20
5.35512
11
-4.94429
21
5.36337
0
LINE
8
BLACK
6
CONTINUOUS
10
-4.94429
20
5.36337
11
-4.94793
21
5.37234
0
LINE
8
BLACK
6
CONTINUOUS
10
-4.94793
20
5.37234
11
-4.95006
21
5.38178
0
LINE
8
BLACK
6
CONTINUOUS
10
-4.95006
20
5.38178
11
-4.95061
21
5.39144
0
LINE
8
BLACK
6
CONTINUOUS
10
-4.95061
20
5.39144
11
-4.94958
21
5.40107
0
LINE
8
BLACK
6
CONTINUOUS
10
-4.94958
20
5.40107
11
-4.947
21
5.41039
0
LINE
8
BLACK
6
CONTINUOUS
10
-4.947
20
5.41039
11
-4.94292
21
5.41917
0
LINE
8
BLACK
6
CONTINUOUS
10
-4.94292
20
5.41917
11
-4.93747
21
5.42716
0
LINE
8
BLACK
6
CONTINUOUS
10
-4.93747
20
5.42716
11
-4.93078
21
5.43416
0
LINE
8
BLACK
6
CONTINUOUS
10
-4.93078
20
5.43416
11
-4.92304
21
5.43997
0
LINE
8
BLACK
6
CONTINUOUS
10
-4.92304
20
5.43997
11
-4.91446
21
5.44444
0
LINE
8
BLACK
6
CONTINUOUS
10
-4.91446
20
5.44444
11
-4.90526
21
5.44745
0
LINE
8
BLACK
6
CONTINUOUS
10
-4.90526
20
5.44745
11
-4.89569
21
5.44891
0
LINE
8
BLACK
6
CONTINUOUS
10
-4.89569
20
5.44891
11
-4.88602
21
5.44879
0
LINE
8
BLACK
6
CONTINUOUS
10
-4.64612
20
5.52108
11
-4.63718
21
5.51868
0
LINE
8
BLACK
6
CONTINUOUS
10
-4.63718
20
5.51868
11
-4.62878
21
5.51477
0
LINE
8
BLACK
6
CONTINUOUS
10
-4.62878
20
5.51477
11
-4.62119
21
5.50946
0
LINE
8
BLACK
6
CONTINUOUS
10
-4.62119
20
5.50946
11
-4.61464
21
5.5029
0
LINE
8
BLACK
6
CONTINUOUS
10
-4.61464
20
5.5029
11
-4.60933
21
5.49531
0
LINE
8
BLACK
6
CONTINUOUS
10
-4.60933
20
5.49531
11
-4.60541
21
5.48692
0
LINE
8
BLACK
6
CONTINUOUS
10
-4.60541
20
5.48692
11
-4.60301
21
5.47797
0
LINE
8
BLACK
6
CONTINUOUS
10
-4.60301
20
5.47797
11
-4.6022
21
5.46874
0
LINE
8
BLACK
6
CONTINUOUS
10
-4.6022
20
5.46874
11
-4.60301
21
5.45951
0
LINE
8
BLACK
6
CONTINUOUS
10
-4.60301
20
5.45951
11
-4.60541
21
5.45056
0
LINE
8
BLACK
6
CONTINUOUS
10
-4.60541
20
5.45056
11
-4.60933
21
5.44217
0
LINE
8
BLACK
6
CONTINUOUS
10
-4.60933
20
5.44217
11
-4.61464
21
5.43458
0
LINE
8
BLACK
6
CONTINUOUS
10
-4.61464
20
5.43458
11
-4.62119
21
5.42803
0
LINE
8
BLACK
6
CONTINUOUS
10
-4.62119
20
5.42803
11
-4.62878
21
5.42271
0
LINE
8
BLACK
6
CONTINUOUS
10
-4.62878
20
5.42271
11
-4.63718
21
5.4188
0
LINE
8
BLACK
6
CONTINUOUS
10
-4.63718
20
5.4188
11
-4.64612
21
5.4164
0
LINE
8
BLACK
6
CONTINUOUS
10
-4.64612
20
5.4164
11
-4.65535
21
5.41559
0
LINE
8
BLACK
6
CONTINUOUS
10
-4.65535
20
5.41559
11
-4.66458
21
5.4164
0
LINE
8
BLACK
6
CONTINUOUS
10
-4.66458
20
5.4164
11
-4.67353
21
5.4188
0
LINE
8
BLACK
6
CONTINUOUS
10
-4.67353
20
5.4188
11
-4.68193
21
5.42271
0
LINE
8
BLACK
6
CONTINUOUS
10
-4.68193
20
5.42271
11
-4.68952
21
5.42803
0
LINE
8
BLACK
6
CONTINUOUS
10
-4.68952
20
5.42803
11
-4.69607
21
5.43458
0
LINE
8
BLACK
6
CONTINUOUS
10
-4.69607
20
5.43458
11
-4.70138
21
5.44217
0
LINE
8
BLACK
6
CONTINUOUS
10
-4.70138
20
5.44217
11
-4.7053
21
5.45056
0
LINE
8
BLACK
6
CONTINUOUS
10
-4.7053
20
5.45056
11
-4.7077
21
5.45951
0
LINE
8
BLACK
6
CONTINUOUS
10
-4.7077
20
5.45951
11
-4.7085
21
5.46874
0
LINE
8
BLACK
6
CONTINUOUS
10
-4.7085
20
5.46874
11
-4.7077
21
5.47797
0
LINE
8
BLACK
6
CONTINUOUS
10
-4.7077
20
5.47797
11
-4.7053
21
5.48692
0
LINE
8
BLACK
6
CONTINUOUS
10
-4.7053
20
5.48692
11
-4.70138
21
5.49531
0
LINE
8
BLACK
6
CONTINUOUS
10
-4.70138
20
5.49531
11
-4.69607
21
5.5029
0
LINE
8
BLACK
6
CONTINUOUS
10
-4.69607
20
5.5029
11
-4.68952
21
5.50946
0
LINE
8
BLACK
6
CONTINUOUS
10
-4.68952
20
5.50946
11
-4.68193
21
5.51477
0
LINE
8
BLACK
6
CONTINUOUS
10
-4.68193
20
5.51477
11
-4.67353
21
5.51868
0
LINE
8
BLACK
6
CONTINUOUS
10
-4.67353
20
5.51868
11
-4.66458
21
5.52108
0
LINE
8
BLACK
6
CONTINUOUS
10
-4.66458
20
5.52108
11
-4.65535
21
5.52189
0
LINE
8
BLACK
6
CONTINUOUS
10
-4.65535
20
5.52189
11
-4.64612
21
5.52108
0
LINE
8
BLACK
6
CONTINUOUS
10
-4.55195
20
5.50554
11
-4.54939
21
5.50384
0
LINE
8
BLACK
6
CONTINUOUS
10
-4.54939
20
5.50384
11
-4.54769
21
5.50128
0
LINE
8
BLACK
6
CONTINUOUS
10
-4.54769
20
5.50128
11
-4.54709
21
5.49827
0
LINE
8
BLACK
6
CONTINUOUS
10
-4.54709
20
5.49827
11
-4.54709
21
5.43921
0
LINE
8
BLACK
6
CONTINUOUS
10
-4.54709
20
5.43921
11
-4.54769
21
5.4362
0
LINE
8
BLACK
6
CONTINUOUS
10
-4.54769
20
5.4362
11
-4.54939
21
5.43364
0
LINE
8
BLACK
6
CONTINUOUS
10
-4.54939
20
5.43364
11
-4.55195
21
5.43194
0
LINE
8
BLACK
6
CONTINUOUS
10
-4.55195
20
5.43194
11
-4.55496
21
5.43134
0
LINE
8
BLACK
6
CONTINUOUS
10
-4.55496
20
5.43134
11
-4.59236
21
5.43134
0
LINE
8
BLACK
6
CONTINUOUS
10
-4.59236
20
5.43134
11
-4.59538
21
5.43194
0
LINE
8
BLACK
6
CONTINUOUS
10
-4.59538
20
5.43194
11
-4.59793
21
5.43364
0
LINE
8
BLACK
6
CONTINUOUS
10
-4.59793
20
5.43364
11
-4.59964
21
5.4362
0
LINE
8
BLACK
6
CONTINUOUS
10
-4.59964
20
5.4362
11
-4.60024
21
5.43921
0
LINE
8
BLACK
6
CONTINUOUS
10
-4.60024
20
5.43921
11
-4.60024
21
5.49827
0
LINE
8
BLACK
6
CONTINUOUS
10
-4.60024
20
5.49827
11
-4.59964
21
5.50128
0
LINE
8
BLACK
6
CONTINUOUS
10
-4.59964
20
5.50128
11
-4.59793
21
5.50384
0
LINE
8
BLACK
6
CONTINUOUS
10
-4.59793
20
5.50384
11
-4.59538
21
5.50554
0
LINE
8
BLACK
6
CONTINUOUS
10
-4.59538
20
5.50554
11
-4.59236
21
5.50614
0
LINE
8
BLACK
6
CONTINUOUS
10
-4.59236
20
5.50614
11
-4.55496
21
5.50614
0
LINE
8
BLACK
6
CONTINUOUS
10
-4.55496
20
5.50614
11
-4.55195
21
5.50554
0
LINE
8
BLACK
6
CONTINUOUS
10
-4.71533
20
5.50554
11
-4.71278
21
5.50384
0
LINE
8
BLACK
6
CONTINUOUS
10
-4.71278
20
5.50384
11
-4.71107
21
5.50128
0
LINE
8
BLACK
6
CONTINUOUS
10
-4.71107
20
5.50128
11
-4.71047
21
5.49827
0
LINE
8
BLACK
6
CONTINUOUS
10
-4.71047
20
5.49827
11
-4.71047
21
5.43921
0
LINE
8
BLACK
6
CONTINUOUS
10
-4.71047
20
5.43921
11
-4.71107
21
5.4362
0
LINE
8
BLACK
6
CONTINUOUS
10
-4.71107
20
5.4362
11
-4.71278
21
5.43364
0
LINE
8
BLACK
6
CONTINUOUS
10
-4.71278
20
5.43364
11
-4.71533
21
5.43194
0
LINE
8
BLACK
6
CONTINUOUS
10
-4.71533
20
5.43194
11
-4.71835
21
5.43134
0
LINE
8
BLACK
6
CONTINUOUS
10
-4.71835
20
5.43134
11
-4.75575
21
5.43134
0
LINE
8
BLACK
6
CONTINUOUS
10
-4.75575
20
5.43134
11
-4.75876
21
5.43194
0
LINE
8
BLACK
6
CONTINUOUS
10
-4.75876
20
5.43194
11
-4.76132
21
5.43364
0
LINE
8
BLACK
6
CONTINUOUS
10
-4.76132
20
5.43364
11
-4.76302
21
5.4362
0
LINE
8
BLACK
6
CONTINUOUS
10
-4.76302
20
5.4362
11
-4.76362
21
5.43921
0
LINE
8
BLACK
6
CONTINUOUS
10
-4.76362
20
5.43921
11
-4.76362
21
5.49827
0
LINE
8
BLACK
6
CONTINUOUS
10
-4.76362
20
5.49827
11
-4.76302
21
5.50128
0
LINE
8
BLACK
6
CONTINUOUS
10
-4.76302
20
5.50128
11
-4.76132
21
5.50384
0
LINE
8
BLACK
6
CONTINUOUS
10
-4.76132
20
5.50384
11
-4.75876
21
5.50554
0
LINE
8
BLACK
6
CONTINUOUS
10
-4.75876
20
5.50554
11
-4.75575
21
5.50614
0
LINE
8
BLACK
6
CONTINUOUS
10
-4.75575
20
5.50614
11
-4.71835
21
5.50614
0
LINE
8
BLACK
6
CONTINUOUS
10
-4.71835
20
5.50614
11
-4.71533
21
5.50554
0
LINE
8
BLACK
6
CONTINUOUS
10
-4.30651
20
5.5068
11
-4.30461
21
5.50553
0
LINE
8
BLACK
6
CONTINUOUS
10
-4.30461
20
5.50553
11
-4.3027
21
5.5068
0
LINE
8
BLACK
6
CONTINUOUS
10
-4.3027
20
5.5068
11
-4.29969
21
5.5074
0
LINE
8
BLACK
6
CONTINUOUS
10
-4.29969
20
5.5074
11
-4.26031
21
5.5074
0
LINE
8
BLACK
6
CONTINUOUS
10
-4.26031
20
5.5074
11
-4.2573
21
5.5068
0
LINE
8
BLACK
6
CONTINUOUS
10
-4.2573
20
5.5068
11
-4.25539
21
5.50553
0
LINE
8
BLACK
6
CONTINUOUS
10
-4.25539
20
5.50553
11
-4.25349
21
5.5068
0
LINE
8
BLACK
6
CONTINUOUS
10
-4.25349
20
5.5068
11
-4.25047
21
5.5074
0
LINE
8
BLACK
6
CONTINUOUS
10
-4.25047
20
5.5074
11
-4.22882
21
5.5074
0
LINE
8
BLACK
6
CONTINUOUS
10
-4.22882
20
5.5074
11
-4.22774
21
5.50719
0
LINE
8
BLACK
6
CONTINUOUS
10
-4.22774
20
5.50719
11
-4.22553
21
5.50715
0
LINE
8
BLACK
6
CONTINUOUS
10
-4.22553
20
5.50715
11
-4.22332
21
5.50679
0
LINE
8
BLACK
6
CONTINUOUS
10
-4.22332
20
5.50679
11
-4.218
21
5.50513
0
LINE
8
BLACK
6
CONTINUOUS
10
-4.218
20
5.50513
11
-4.21598
21
5.50416
0
LINE
8
BLACK
6
CONTINUOUS
10
-4.21598
20
5.50416
11
-4.21134
21
5.50107
0
LINE
8
BLACK
6
CONTINUOUS
10
-4.21134
20
5.50107
11
-4.20967
21
5.49958
0
LINE
8
BLACK
6
CONTINUOUS
10
-4.20967
20
5.49958
11
-4.20608
21
5.49531
0
LINE
8
BLACK
6
CONTINUOUS
10
-4.20608
20
5.49531
11
-4.2049
21
5.49342
0
LINE
8
BLACK
6
CONTINUOUS
10
-4.2049
20
5.49342
11
-4.20265
21
5.48831
0
LINE
8
BLACK
6
CONTINUOUS
10
-4.20265
20
5.48831
11
-4.20205
21
5.48616
0
LINE
8
BLACK
6
CONTINUOUS
10
-4.20205
20
5.48616
11
-4.20136
21
5.48086
0
LINE
8
BLACK
6
CONTINUOUS
10
-4.20136
20
5.48086
11
-4.20146
21
5.48085
0
LINE
8
BLACK
6
CONTINUOUS
10
-4.20146
20
5.48085
11
-4.20126
21
5.47984
0
LINE
8
BLACK
6
CONTINUOUS
10
-4.20126
20
5.47984
11
-4.20126
21
5.46016
0
LINE
8
BLACK
6
CONTINUOUS
10
-4.20126
20
5.46016
11
-4.20134
21
5.45974
0
LINE
8
BLACK
6
CONTINUOUS
10
-4.20134
20
5.45974
11
-4.20136
21
5.45871
0
LINE
8
BLACK
6
CONTINUOUS
10
-4.20136
20
5.45871
11
-4.20221
21
5.45319
0
LINE
8
BLACK
6
CONTINUOUS
10
-4.20221
20
5.45319
11
-4.20287
21
5.45106
0
LINE
8
BLACK
6
CONTINUOUS
10
-4.20287
20
5.45106
11
-4.20524
21
5.446
0
LINE
8
BLACK
6
CONTINUOUS
10
-4.20524
20
5.446
11
-4.20646
21
5.44414
0
LINE
8
BLACK
6
CONTINUOUS
10
-4.20646
20
5.44414
11
-4.21016
21
5.43995
0
LINE
8
BLACK
6
CONTINUOUS
10
-4.21016
20
5.43995
11
-4.21186
21
5.43851
0
LINE
8
BLACK
6
CONTINUOUS
10
-4.21186
20
5.43851
11
-4.21658
21
5.43553
0
LINE
8
BLACK
6
CONTINUOUS
10
-4.21658
20
5.43553
11
-4.21862
21
5.43462
0
LINE
8
BLACK
6
CONTINUOUS
10
-4.21862
20
5.43462
11
-4.22398
21
5.43308
0
LINE
8
BLACK
6
CONTINUOUS
10
-4.22398
20
5.43308
11
-4.2262
21
5.43278
0
LINE
8
BLACK
6
CONTINUOUS
10
-4.2262
20
5.43278
11
-4.22785
21
5.43279
0
LINE
8
BLACK
6
CONTINUOUS
10
-4.22785
20
5.43279
11
-4.22882
21
5.4326
0
LINE
8
BLACK
6
CONTINUOUS
10
-4.22882
20
5.4326
11
-4.25047
21
5.4326
0
LINE
8
BLACK
6
CONTINUOUS
10
-4.25047
20
5.4326
11
-4.25349
21
5.4332
0
LINE
8
BLACK
6
CONTINUOUS
10
-4.25349
20
5.4332
11
-4.25539
21
5.43447
0
LINE
8
BLACK
6
CONTINUOUS
10
-4.25539
20
5.43447
11
-4.2573
21
5.4332
0
LINE
8
BLACK
6
CONTINUOUS
10
-4.2573
20
5.4332
11
-4.26031
21
5.4326
0
LINE
8
BLACK
6
CONTINUOUS
10
-4.26031
20
5.4326
11
-4.29969
21
5.4326
0
LINE
8
BLACK
6
CONTINUOUS
10
-4.29969
20
5.4326
11
-4.3027
21
5.4332
0
LINE
8
BLACK
6
CONTINUOUS
10
-4.3027
20
5.4332
11
-4.30461
21
5.43447
0
LINE
8
BLACK
6
CONTINUOUS
10
-4.30461
20
5.43447
11
-4.30651
21
5.4332
0
LINE
8
BLACK
6
CONTINUOUS
10
-4.30651
20
5.4332
11
-4.30953
21
5.4326
0
LINE
8
BLACK
6
CONTINUOUS
10
-4.30953
20
5.4326
11
-4.33118
21
5.4326
0
LINE
8
BLACK
6
CONTINUOUS
10
-4.33118
20
5.4326
11
-4.33221
21
5.4328
0
LINE
8
BLACK
6
CONTINUOUS
10
-4.33221
20
5.4328
11
-4.33414
21
5.43281
0
LINE
8
BLACK
6
CONTINUOUS
10
-4.33414
20
5.43281
11
-4.33635
21
5.43314
0
LINE
8
BLACK
6
CONTINUOUS
10
-4.33635
20
5.43314
11
-4.34169
21
5.43474
0
LINE
8
BLACK
6
CONTINUOUS
10
-4.34169
20
5.43474
11
-4.34372
21
5.43568
0
LINE
8
BLACK
6
CONTINUOUS
10
-4.34372
20
5.43568
11
-4.3484
21
5.43872
0
LINE
8
BLACK
6
CONTINUOUS
10
-4.3484
20
5.43872
11
-4.35009
21
5.44018
0
LINE
8
BLACK
6
CONTINUOUS
10
-4.35009
20
5.44018
11
-4.35373
21
5.44441
0
LINE
8
BLACK
6
CONTINUOUS
10
-4.35373
20
5.44441
11
-4.35493
21
5.44629
0
LINE
8
BLACK
6
CONTINUOUS
10
-4.35493
20
5.44629
11
-4.35724
21
5.45137
0
LINE
8
BLACK
6
CONTINUOUS
10
-4.35724
20
5.45137
11
-4.35787
21
5.45352
0
LINE
8
BLACK
6
CONTINUOUS
10
-4.35787
20
5.45352
11
-4.35866
21
5.45904
0
LINE
8
BLACK
6
CONTINUOUS
10
-4.35866
20
5.45904
11
-4.35874
21
5.46016
0
LINE
8
BLACK
6
CONTINUOUS
10
-4.35874
20
5.46016
11
-4.35874
21
5.47984
0
LINE
8
BLACK
6
CONTINUOUS
10
-4.35874
20
5.47984
11
-4.35874
21
5.47994
0
LINE
8
BLACK
6
CONTINUOUS
10
-4.35874
20
5.47994
11
-4.35873
21
5.48042
0
LINE
8
BLACK
6
CONTINUOUS
10
-4.35873
20
5.48042
11
-4.35863
21
5.48163
0
LINE
8
BLACK
6
CONTINUOUS
10
-4.35863
20
5.48163
11
-4.3577
21
5.48713
0
LINE
8
BLACK
6
CONTINUOUS
10
-4.3577
20
5.48713
11
-4.35702
21
5.48926
0
LINE
8
BLACK
6
CONTINUOUS
10
-4.35702
20
5.48926
11
-4.35459
21
5.49428
0
LINE
8
BLACK
6
CONTINUOUS
10
-4.35459
20
5.49428
11
-4.35334
21
5.49613
0
LINE
8
BLACK
6
CONTINUOUS
10
-4.35334
20
5.49613
11
-4.34959
21
5.50027
0
LINE
8
BLACK
6
CONTINUOUS
10
-4.34959
20
5.50027
11
-4.34788
21
5.5017
0
LINE
8
BLACK
6
CONTINUOUS
10
-4.34788
20
5.5017
11
-4.34312
21
5.50462
0
LINE
8
BLACK
6
CONTINUOUS
10
-4.34312
20
5.50462
11
-4.34107
21
5.50551
0
LINE
8
BLACK
6
CONTINUOUS
10
-4.34107
20
5.50551
11
-4.33569
21
5.50697
0
LINE
8
BLACK
6
CONTINUOUS
10
-4.33569
20
5.50697
11
-4.33347
21
5.50725
0
LINE
8
BLACK
6
CONTINUOUS
10
-4.33347
20
5.50725
11
-4.33208
21
5.50722
0
LINE
8
BLACK
6
CONTINUOUS
10
-4.33208
20
5.50722
11
-4.33118
21
5.5074
0
LINE
8
BLACK
6
CONTINUOUS
10
-4.33118
20
5.5074
11
-4.30953
21
5.5074
0
LINE
8
BLACK
6
CONTINUOUS
10
-4.30953
20
5.5074
11
-4.30651
21
5.5068
0
LINE
8
BLACK
6
CONTINUOUS
10
-4.42129
20
5.52077
11
-4.4167
21
5.51843
0
LINE
8
BLACK
6
CONTINUOUS
10
-4.4167
20
5.51843
11
-4.41305
21
5.51478
0
LINE
8
BLACK
6
CONTINUOUS
10
-4.41305
20
5.51478
11
-4.41071
21
5.51018
0
LINE
8
BLACK
6
CONTINUOUS
10
-4.41071
20
5.51018
11
-4.4099
21
5.50509
0
LINE
8
BLACK
6
CONTINUOUS
10
-4.4099
20
5.50509
11
-4.4099
21
5.48491
0
LINE
8
BLACK
6
CONTINUOUS
10
-4.4099
20
5.48491
11
-4.41071
21
5.47982
0
LINE
8
BLACK
6
CONTINUOUS
10
-4.41071
20
5.47982
11
-4.41305
21
5.47522
0
LINE
8
BLACK
6
CONTINUOUS
10
-4.41305
20
5.47522
11
-4.4167
21
5.47157
0
LINE
8
BLACK
6
CONTINUOUS
10
-4.4167
20
5.47157
11
-4.42129
21
5.46923
0
LINE
8
BLACK
6
CONTINUOUS
10
-4.42129
20
5.46923
11
-4.42639
21
5.46843
0
LINE
8
BLACK
6
CONTINUOUS
10
-4.42639
20
5.46843
11
-4.44361
21
5.46843
0
LINE
8
BLACK
6
CONTINUOUS
10
-4.44361
20
5.46843
11
-4.44871
21
5.46923
0
LINE
8
BLACK
6
CONTINUOUS
10
-4.44871
20
5.46923
11
-4.4533
21
5.47157
0
LINE
8
BLACK
6
CONTINUOUS
10
-4.4533
20
5.47157
11
-4.45695
21
5.47522
0
LINE
8
BLACK
6
CONTINUOUS
10
-4.45695
20
5.47522
11
-4.45929
21
5.47982
0
LINE
8
BLACK
6
CONTINUOUS
10
-4.45929
20
5.47982
11
-4.4601
21
5.48491
0
LINE
8
BLACK
6
CONTINUOUS
10
-4.4601
20
5.48491
11
-4.4601
21
5.50509
0
LINE
8
BLACK
6
CONTINUOUS
10
-4.4601
20
5.50509
11
-4.45929
21
5.51018
0
LINE
8
BLACK
6
CONTINUOUS
10
-4.45929
20
5.51018
11
-4.45695
21
5.51478
0
LINE
8
BLACK
6
CONTINUOUS
10
-4.45695
20
5.51478
11
-4.4533
21
5.51843
0
LINE
8
BLACK
6
CONTINUOUS
10
-4.4533
20
5.51843
11
-4.44871
21
5.52077
0
LINE
8
BLACK
6
CONTINUOUS
10
-4.44871
20
5.52077
11
-4.44361
21
5.52157
0
LINE
8
BLACK
6
CONTINUOUS
10
-4.44361
20
5.52157
11
-4.42639
21
5.52157
0
LINE
8
BLACK
6
CONTINUOUS
10
-4.42639
20
5.52157
11
-4.42129
21
5.52077
0
LINE
8
BLACK
6
CONTINUOUS
10
-4.4833
20
5.52077
11
-4.47871
21
5.51843
0
LINE
8
BLACK
6
CONTINUOUS
10
-4.47871
20
5.51843
11
-4.47506
21
5.51478
0
LINE
8
BLACK
6
CONTINUOUS
10
-4.47506
20
5.51478
11
-4.47272
21
5.51018
0
LINE
8
BLACK
6
CONTINUOUS
10
-4.47272
20
5.51018
11
-4.47191
21
5.50509
0
LINE
8
BLACK
6
CONTINUOUS
10
-4.47191
20
5.50509
11
-4.47191
21
5.48491
0
LINE
8
BLACK
6
CONTINUOUS
10
-4.47191
20
5.48491
11
-4.47272
21
5.47982
0
LINE
8
BLACK
6
CONTINUOUS
10
-4.47272
20
5.47982
11
-4.47506
21
5.47522
0
LINE
8
BLACK
6
CONTINUOUS
10
-4.47506
20
5.47522
11
-4.47871
21
5.47157
0
LINE
8
BLACK
6
CONTINUOUS
10
-4.47871
20
5.47157
11
-4.4833
21
5.46923
0
LINE
8
BLACK
6
CONTINUOUS
10
-4.4833
20
5.46923
11
-4.4884
21
5.46843
0
LINE
8
BLACK
6
CONTINUOUS
10
-4.4884
20
5.46843
11
-4.50562
21
5.46843
0
LINE
8
BLACK
6
CONTINUOUS
10
-4.50562
20
5.46843
11
-4.51071
21
5.46923
0
LINE
8
BLACK
6
CONTINUOUS
10
-4.51071
20
5.46923
11
-4.51531
21
5.47157
0
LINE
8
BLACK
6
CONTINUOUS
10
-4.51531
20
5.47157
11
-4.51896
21
5.47522
0
LINE
8
BLACK
6
CONTINUOUS
10
-4.51896
20
5.47522
11
-4.5213
21
5.47982
0
LINE
8
BLACK
6
CONTINUOUS
10
-4.5213
20
5.47982
11
-4.52211
21
5.48491
0
LINE
8
BLACK
6
CONTINUOUS
10
-4.52211
20
5.48491
11
-4.52211
21
5.50509
0
LINE
8
BLACK
6
CONTINUOUS
10
-4.52211
20
5.50509
11
-4.5213
21
5.51018
0
LINE
8
BLACK
6
CONTINUOUS
10
-4.5213
20
5.51018
11
-4.51896
21
5.51478
0
LINE
8
BLACK
6
CONTINUOUS
10
-4.51896
20
5.51478
11
-4.51531
21
5.51843
0
LINE
8
BLACK
6
CONTINUOUS
10
-4.51531
20
5.51843
11
-4.51071
21
5.52077
0
LINE
8
BLACK
6
CONTINUOUS
10
-4.51071
20
5.52077
11
-4.50562
21
5.52157
0
LINE
8
BLACK
6
CONTINUOUS
10
-4.50562
20
5.52157
11
-4.4884
21
5.52157
0
LINE
8
BLACK
6
CONTINUOUS
10
-4.4884
20
5.52157
11
-4.4833
21
5.52077
0
LINE
8
BLACK
6
CONTINUOUS
10
-4.05689
20
5.54668
11
-4.04955
21
5.5444
0
LINE
8
BLACK
6
CONTINUOUS
10
-4.04955
20
5.5444
11
-4.04279
21
5.54075
0
LINE
8
BLACK
6
CONTINUOUS
10
-4.04279
20
5.54075
11
-4.03687
21
5.53585
0
LINE
8
BLACK
6
CONTINUOUS
10
-4.03687
20
5.53585
11
-4.03201
21
5.5299
0
LINE
8
BLACK
6
CONTINUOUS
10
-4.03201
20
5.5299
11
-4.0284
21
5.52311
0
LINE
8
BLACK
6
CONTINUOUS
10
-4.0284
20
5.52311
11
-4.02618
21
5.51576
0
LINE
8
BLACK
6
CONTINUOUS
10
-4.02618
20
5.51576
11
-4.02543
21
5.50811
0
LINE
8
BLACK
6
CONTINUOUS
10
-4.02543
20
5.50811
11
-4.02545
21
5.50701
0
LINE
8
BLACK
6
CONTINUOUS
10
-4.02545
20
5.50701
11
-4.02641
21
5.49939
0
LINE
8
BLACK
6
CONTINUOUS
10
-4.02641
20
5.49939
11
-4.02884
21
5.4921
0
LINE
8
BLACK
6
CONTINUOUS
10
-4.02884
20
5.4921
11
-4.03263
21
5.48542
0
LINE
8
BLACK
6
CONTINUOUS
10
-4.03263
20
5.48542
11
-4.03765
21
5.4796
0
LINE
8
BLACK
6
CONTINUOUS
10
-4.03765
20
5.4796
11
-4.04371
21
5.47487
0
LINE
8
BLACK
6
CONTINUOUS
10
-4.04371
20
5.47487
11
-4.05057
21
5.4714
0
LINE
8
BLACK
6
CONTINUOUS
10
-4.05057
20
5.4714
11
-4.05797
21
5.46934
0
LINE
8
BLACK
6
CONTINUOUS
10
-4.05797
20
5.46934
11
-4.06563
21
5.46875
0
LINE
8
BLACK
6
CONTINUOUS
10
-4.06563
20
5.46875
11
-4.07326
21
5.46966
0
LINE
8
BLACK
6
CONTINUOUS
10
-4.07326
20
5.46966
11
-4.08056
21
5.47203
0
LINE
8
BLACK
6
CONTINUOUS
10
-4.08056
20
5.47203
11
-4.08727
21
5.47578
0
LINE
8
BLACK
6
CONTINUOUS
10
-4.08727
20
5.47578
11
-4.09312
21
5.48076
0
LINE
8
BLACK
6
CONTINUOUS
10
-4.09312
20
5.48076
11
-4.0979
21
5.48678
0
LINE
8
BLACK
6
CONTINUOUS
10
-4.0979
20
5.48678
11
-4.10141
21
5.49362
0
LINE
8
BLACK
6
CONTINUOUS
10
-4.10141
20
5.49362
11
-4.10353
21
5.501
0
LINE
8
BLACK
6
CONTINUOUS
10
-4.10353
20
5.501
11
-4.10417
21
5.50866
0
LINE
8
BLACK
6
CONTINUOUS
10
-4.10417
20
5.50866
11
-4.10331
21
5.5163
0
LINE
8
BLACK
6
CONTINUOUS
10
-4.10331
20
5.5163
11
-4.10099
21
5.52362
0
LINE
8
BLACK
6
CONTINUOUS
10
-4.10099
20
5.52362
11
-4.09729
21
5.53035
0
LINE
8
BLACK
6
CONTINUOUS
10
-4.09729
20
5.53035
11
-4.09235
21
5.53624
0
LINE
8
BLACK
6
CONTINUOUS
10
-4.09235
20
5.53624
11
-4.08636
21
5.54105
0
LINE
8
BLACK
6
CONTINUOUS
10
-4.08636
20
5.54105
11
-4.07955
21
5.54461
0
LINE
8
BLACK
6
CONTINUOUS
10
-4.07955
20
5.54461
11
-4.07218
21
5.54678
0
LINE
8
BLACK
6
CONTINUOUS
10
-4.07218
20
5.54678
11
-4.06453
21
5.54748
0
LINE
8
BLACK
6
CONTINUOUS
10
-4.06453
20
5.54748
11
-4.05689
21
5.54668
0
LINE
8
BLACK
6
CONTINUOUS
10
-4.88629
20
5.56587
11
-4.88132
21
5.56412
0
LINE
8
BLACK
6
CONTINUOUS
10
-4.88132
20
5.56412
11
-4.87708
21
5.56099
0
LINE
8
BLACK
6
CONTINUOUS
10
-4.87708
20
5.56099
11
-4.87395
21
5.55675
0
LINE
8
BLACK
6
CONTINUOUS
10
-4.87395
20
5.55675
11
-4.8722
21
5.55178
0
LINE
8
BLACK
6
CONTINUOUS
10
-4.8722
20
5.55178
11
-4.87189
21
5.54846
0
LINE
8
BLACK
6
CONTINUOUS
10
-4.87189
20
5.54846
11
-4.87189
21
5.52878
0
LINE
8
BLACK
6
CONTINUOUS
10
-4.87189
20
5.52878
11
-4.8722
21
5.52546
0
LINE
8
BLACK
6
CONTINUOUS
10
-4.8722
20
5.52546
11
-4.87395
21
5.52049
0
LINE
8
BLACK
6
CONTINUOUS
10
-4.87395
20
5.52049
11
-4.87708
21
5.51625
0
LINE
8
BLACK
6
CONTINUOUS
10
-4.87708
20
5.51625
11
-4.88132
21
5.51312
0
LINE
8
BLACK
6
CONTINUOUS
10
-4.88132
20
5.51312
11
-4.88629
21
5.51138
0
LINE
8
BLACK
6
CONTINUOUS
10
-4.88629
20
5.51138
11
-4.88961
21
5.51106
0
LINE
8
BLACK
6
CONTINUOUS
10
-4.88961
20
5.51106
11
-4.97622
21
5.51106
0
LINE
8
BLACK
6
CONTINUOUS
10
-4.97622
20
5.51106
11
-4.97954
21
5.51138
0
LINE
8
BLACK
6
CONTINUOUS
10
-4.97954
20
5.51138
11
-4.98451
21
5.51312
0
LINE
8
BLACK
6
CONTINUOUS
10
-4.98451
20
5.51312
11
-4.98875
21
5.51625
0
LINE
8
BLACK
6
CONTINUOUS
10
-4.98875
20
5.51625
11
-4.99188
21
5.52049
0
LINE
8
BLACK
6
CONTINUOUS
10
-4.99188
20
5.52049
11
-4.99362
21
5.52546
0
LINE
8
BLACK
6
CONTINUOUS
10
-4.99362
20
5.52546
11
-4.99394
21
5.52878
0
LINE
8
BLACK
6
CONTINUOUS
10
-4.99394
20
5.52878
11
-4.99394
21
5.54846
0
LINE
8
BLACK
6
CONTINUOUS
10
-4.99394
20
5.54846
11
-4.99362
21
5.55178
0
LINE
8
BLACK
6
CONTINUOUS
10
-4.99362
20
5.55178
11
-4.99188
21
5.55675
0
LINE
8
BLACK
6
CONTINUOUS
10
-4.99188
20
5.55675
11
-4.98875
21
5.56099
0
LINE
8
BLACK
6
CONTINUOUS
10
-4.98875
20
5.56099
11
-4.98451
21
5.56412
0
LINE
8
BLACK
6
CONTINUOUS
10
-4.98451
20
5.56412
11
-4.97954
21
5.56587
0
LINE
8
BLACK
6
CONTINUOUS
10
-4.97954
20
5.56587
11
-4.97622
21
5.56618
0
LINE
8
BLACK
6
CONTINUOUS
10
-4.97622
20
5.56618
11
-4.88961
21
5.56618
0
LINE
8
BLACK
6
CONTINUOUS
10
-4.88961
20
5.56618
11
-4.88629
21
5.56587
0
LINE
8
BLACK
6
CONTINUOUS
10
-4.50982
20
5.59429
11
-4.50522
21
5.59195
0
LINE
8
BLACK
6
CONTINUOUS
10
-4.50522
20
5.59195
11
-4.50157
21
5.5883
0
LINE
8
BLACK
6
CONTINUOUS
10
-4.50157
20
5.5883
11
-4.49923
21
5.58371
0
LINE
8
BLACK
6
CONTINUOUS
10
-4.49923
20
5.58371
11
-4.49843
21
5.57861
0
LINE
8
BLACK
6
CONTINUOUS
10
-4.49843
20
5.57861
11
-4.49843
21
5.56139
0
LINE
8
BLACK
6
CONTINUOUS
10
-4.49843
20
5.56139
11
-4.49923
21
5.55629
0
LINE
8
BLACK
6
CONTINUOUS
10
-4.49923
20
5.55629
11
-4.50157
21
5.5517
0
LINE
8
BLACK
6
CONTINUOUS
10
-4.50157
20
5.5517
11
-4.50522
21
5.54805
0
LINE
8
BLACK
6
CONTINUOUS
10
-4.50522
20
5.54805
11
-4.50982
21
5.54571
0
LINE
8
BLACK
6
CONTINUOUS
10
-4.50982
20
5.54571
11
-4.51491
21
5.5449
0
LINE
8
BLACK
6
CONTINUOUS
10
-4.51491
20
5.5449
11
-4.53509
21
5.5449
0
LINE
8
BLACK
6
CONTINUOUS
10
-4.53509
20
5.5449
11
-4.54018
21
5.54571
0
LINE
8
BLACK
6
CONTINUOUS
10
-4.54018
20
5.54571
11
-4.54478
21
5.54805
0
LINE
8
BLACK
6
CONTINUOUS
10
-4.54478
20
5.54805
11
-4.54843
21
5.5517
0
LINE
8
BLACK
6
CONTINUOUS
10
-4.54843
20
5.5517
11
-4.55077
21
5.55629
0
LINE
8
BLACK
6
CONTINUOUS
10
-4.55077
20
5.55629
11
-4.55157
21
5.56139
0
LINE
8
BLACK
6
CONTINUOUS
10
-4.55157
20
5.56139
11
-4.55157
21
5.57861
0
LINE
8
BLACK
6
CONTINUOUS
10
-4.55157
20
5.57861
11
-4.55077
21
5.58371
0
LINE
8
BLACK
6
CONTINUOUS
10
-4.55077
20
5.58371
11
-4.54843
21
5.5883
0
LINE
8
BLACK
6
CONTINUOUS
10
-4.54843
20
5.5883
11
-4.54478
21
5.59195
0
LINE
8
BLACK
6
CONTINUOUS
10
-4.54478
20
5.59195
11
-4.54018
21
5.59429
0
LINE
8
BLACK
6
CONTINUOUS
10
-4.54018
20
5.59429
11
-4.53509
21
5.5951
0
LINE
8
BLACK
6
CONTINUOUS
10
-4.53509
20
5.5951
11
-4.51491
21
5.5951
0
LINE
8
BLACK
6
CONTINUOUS
10
-4.51491
20
5.5951
11
-4.50982
21
5.59429
0
LINE
8
BLACK
6
CONTINUOUS
10
-4.3449
20
5.60062
11
-4.34235
21
5.59891
0
LINE
8
BLACK
6
CONTINUOUS
10
-4.34235
20
5.59891
11
-4.34064
21
5.59636
0
LINE
8
BLACK
6
CONTINUOUS
10
-4.34064
20
5.59636
11
-4.34004
21
5.59335
0
LINE
8
BLACK
6
CONTINUOUS
10
-4.34004
20
5.59335
11
-4.34004
21
5.56185
0
LINE
8
BLACK
6
CONTINUOUS
10
-4.34004
20
5.56185
11
-4.34064
21
5.55884
0
LINE
8
BLACK
6
CONTINUOUS
10
-4.34064
20
5.55884
11
-4.34235
21
5.55628
0
LINE
8
BLACK
6
CONTINUOUS
10
-4.34235
20
5.55628
11
-4.3449
21
5.55458
0
LINE
8
BLACK
6
CONTINUOUS
10
-4.3449
20
5.55458
11
-4.34791
21
5.55398
0
LINE
8
BLACK
6
CONTINUOUS
10
-4.34791
20
5.55398
11
-4.38335
21
5.55398
0
LINE
8
BLACK
6
CONTINUOUS
10
-4.38335
20
5.55398
11
-4.38636
21
5.55458
0
LINE
8
BLACK
6
CONTINUOUS
10
-4.38636
20
5.55458
11
-4.38891
21
5.55628
0
LINE
8
BLACK
6
CONTINUOUS
10
-4.38891
20
5.55628
11
-4.39062
21
5.55884
0
LINE
8
BLACK
6
CONTINUOUS
10
-4.39062
20
5.55884
11
-4.39122
21
5.56185
0
LINE
8
BLACK
6
CONTINUOUS
10
-4.39122
20
5.56185
11
-4.39122
21
5.59335
0
LINE
8
BLACK
6
CONTINUOUS
10
-4.39122
20
5.59335
11
-4.39062
21
5.59636
0
LINE
8
BLACK
6
CONTINUOUS
10
-4.39062
20
5.59636
11
-4.38891
21
5.59891
0
LINE
8
BLACK
6
CONTINUOUS
10
-4.38891
20
5.59891
11
-4.38636
21
5.60062
0
LINE
8
BLACK
6
CONTINUOUS
10
-4.38636
20
5.60062
11
-4.38335
21
5.60122
0
LINE
8
BLACK
6
CONTINUOUS
10
-4.38335
20
5.60122
11
-4.34791
21
5.60122
0
LINE
8
BLACK
6
CONTINUOUS
10
-4.34791
20
5.60122
11
-4.3449
21
5.60062
0
LINE
8
BLACK
6
CONTINUOUS
10
-4.65659
20
5.61483
11
-4.65404
21
5.61313
0
LINE
8
BLACK
6
CONTINUOUS
10
-4.65404
20
5.61313
11
-4.6537
21
5.61262
0
LINE
8
BLACK
6
CONTINUOUS
10
-4.6537
20
5.61262
11
-4.65336
21
5.61313
0
LINE
8
BLACK
6
CONTINUOUS
10
-4.65336
20
5.61313
11
-4.65081
21
5.61483
0
LINE
8
BLACK
6
CONTINUOUS
10
-4.65081
20
5.61483
11
-4.6478
21
5.61543
0
LINE
8
BLACK
6
CONTINUOUS
10
-4.6478
20
5.61543
11
-4.6222
21
5.61543
0
LINE
8
BLACK
6
CONTINUOUS
10
-4.6222
20
5.61543
11
-4.61919
21
5.61483
0
LINE
8
BLACK
6
CONTINUOUS
10
-4.61919
20
5.61483
11
-4.61664
21
5.61313
0
LINE
8
BLACK
6
CONTINUOUS
10
-4.61664
20
5.61313
11
-4.6163
21
5.61262
0
LINE
8
BLACK
6
CONTINUOUS
10
-4.6163
20
5.61262
11
-4.61596
21
5.61313
0
LINE
8
BLACK
6
CONTINUOUS
10
-4.61596
20
5.61313
11
-4.61341
21
5.61483
0
LINE
8
BLACK
6
CONTINUOUS
10
-4.61341
20
5.61483
11
-4.61039
21
5.61543
0
LINE
8
BLACK
6
CONTINUOUS
10
-4.61039
20
5.61543
11
-4.5848
21
5.61543
0
LINE
8
BLACK
6
CONTINUOUS
10
-4.5848
20
5.61543
11
-4.58179
21
5.61483
0
LINE
8
BLACK
6
CONTINUOUS
10
-4.58179
20
5.61483
11
-4.57924
21
5.61313
0
LINE
8
BLACK
6
CONTINUOUS
10
-4.57924
20
5.61313
11
-4.57753
21
5.61057
0
LINE
8
BLACK
6
CONTINUOUS
10
-4.57753
20
5.61057
11
-4.57693
21
5.60756
0
LINE
8
BLACK
6
CONTINUOUS
10
-4.57693
20
5.60756
11
-4.57693
21
5.56583
0
LINE
8
BLACK
6
CONTINUOUS
10
-4.57693
20
5.56583
11
-4.57753
21
5.56281
0
LINE
8
BLACK
6
CONTINUOUS
10
-4.57753
20
5.56281
11
-4.57924
21
5.56026
0
LINE
8
BLACK
6
CONTINUOUS
10
-4.57924
20
5.56026
11
-4.58179
21
5.55855
0
LINE
8
BLACK
6
CONTINUOUS
10
-4.58179
20
5.55855
11
-4.5848
21
5.55795
0
LINE
8
BLACK
6
CONTINUOUS
10
-4.5848
20
5.55795
11
-4.61039
21
5.55795
0
LINE
8
BLACK
6
CONTINUOUS
10
-4.61039
20
5.55795
11
-4.61341
21
5.55855
0
LINE
8
BLACK
6
CONTINUOUS
10
-4.61341
20
5.55855
11
-4.61596
21
5.56026
0
LINE
8
BLACK
6
CONTINUOUS
10
-4.61596
20
5.56026
11
-4.6163
21
5.56076
0
LINE
8
BLACK
6
CONTINUOUS
10
-4.6163
20
5.56076
11
-4.61664
21
5.56026
0
LINE
8
BLACK
6
CONTINUOUS
10
-4.61664
20
5.56026
11
-4.61919
21
5.55855
0
LINE
8
BLACK
6
CONTINUOUS
10
-4.61919
20
5.55855
11
-4.6222
21
5.55795
0
LINE
8
BLACK
6
CONTINUOUS
10
-4.6222
20
5.55795
11
-4.6478
21
5.55795
0
LINE
8
BLACK
6
CONTINUOUS
10
-4.6478
20
5.55795
11
-4.65081
21
5.55855
0
LINE
8
BLACK
6
CONTINUOUS
10
-4.65081
20
5.55855
11
-4.65336
21
5.56026
0
LINE
8
BLACK
6
CONTINUOUS
10
-4.65336
20
5.56026
11
-4.6537
21
5.56076
0
LINE
8
BLACK
6
CONTINUOUS
10
-4.6537
20
5.56076
11
-4.65404
21
5.56026
0
LINE
8
BLACK
6
CONTINUOUS
10
-4.65404
20
5.56026
11
-4.65659
21
5.55855
0
LINE
8
BLACK
6
CONTINUOUS
10
-4.65659
20
5.55855
11
-4.65961
21
5.55795
0
LINE
8
BLACK
6
CONTINUOUS
10
-4.65961
20
5.55795
11
-4.6852
21
5.55795
0
LINE
8
BLACK
6
CONTINUOUS
10
-4.6852
20
5.55795
11
-4.68821
21
5.55855
0
LINE
8
BLACK
6
CONTINUOUS
10
-4.68821
20
5.55855
11
-4.69076
21
5.56026
0
LINE
8
BLACK
6
CONTINUOUS
10
-4.69076
20
5.56026
11
-4.69247
21
5.56281
0
LINE
8
BLACK
6
CONTINUOUS
10
-4.69247
20
5.56281
11
-4.69307
21
5.56583
0
LINE
8
BLACK
6
CONTINUOUS
10
-4.69307
20
5.56583
11
-4.69307
21
5.60756
0
LINE
8
BLACK
6
CONTINUOUS
10
-4.69307
20
5.60756
11
-4.69247
21
5.61057
0
LINE
8
BLACK
6
CONTINUOUS
10
-4.69247
20
5.61057
11
-4.69076
21
5.61313
0
LINE
8
BLACK
6
CONTINUOUS
10
-4.69076
20
5.61313
11
-4.68821
21
5.61483
0
LINE
8
BLACK
6
CONTINUOUS
10
-4.68821
20
5.61483
11
-4.6852
21
5.61543
0
LINE
8
BLACK
6
CONTINUOUS
10
-4.6852
20
5.61543
11
-4.65961
21
5.61543
0
LINE
8
BLACK
6
CONTINUOUS
10
-4.65961
20
5.61543
11
-4.65659
21
5.61483
0
LINE
8
BLACK
6
CONTINUOUS
10
-4.03237
20
5.60435
11
-4.02702
21
5.60275
0
LINE
8
BLACK
6
CONTINUOUS
10
-4.02702
20
5.60275
11
-4.02234
21
5.59972
0
LINE
8
BLACK
6
CONTINUOUS
10
-4.02234
20
5.59972
11
-4.01869
21
5.59549
0
LINE
8
BLACK
6
CONTINUOUS
10
-4.01869
20
5.59549
11
-4.01638
21
5.59041
0
LINE
8
BLACK
6
CONTINUOUS
10
-4.01638
20
5.59041
11
-4.01559
21
5.58488
0
LINE
8
BLACK
6
CONTINUOUS
10
-4.01559
20
5.58488
11
-4.0156
21
5.5844
0
LINE
8
BLACK
6
CONTINUOUS
10
-4.0156
20
5.5844
11
-4.01652
21
5.5789
0
LINE
8
BLACK
6
CONTINUOUS
10
-4.01652
20
5.5789
11
-4.01896
21
5.57387
0
LINE
8
BLACK
6
CONTINUOUS
10
-4.01896
20
5.57387
11
-4.0227
21
5.56974
0
LINE
8
BLACK
6
CONTINUOUS
10
-4.0227
20
5.56974
11
-4.02746
21
5.56682
0
LINE
8
BLACK
6
CONTINUOUS
10
-4.02746
20
5.56682
11
-4.03284
21
5.56535
0
LINE
8
BLACK
6
CONTINUOUS
10
-4.03284
20
5.56535
11
-4.03842
21
5.56545
0
LINE
8
BLACK
6
CONTINUOUS
10
-4.03842
20
5.56545
11
-4.04375
21
5.56711
0
LINE
8
BLACK
6
CONTINUOUS
10
-4.04375
20
5.56711
11
-4.0484
21
5.57021
0
LINE
8
BLACK
6
CONTINUOUS
10
-4.0484
20
5.57021
11
-4.05199
21
5.57448
0
LINE
8
BLACK
6
CONTINUOUS
10
-4.05199
20
5.57448
11
-4.05424
21
5.57959
0
LINE
8
BLACK
6
CONTINUOUS
10
-4.05424
20
5.57959
11
-4.05496
21
5.58512
0
LINE
8
BLACK
6
CONTINUOUS
10
-4.05496
20
5.58512
11
-4.0541
21
5.59064
0
LINE
8
BLACK
6
CONTINUOUS
10
-4.0541
20
5.59064
11
-4.05173
21
5.59569
0
LINE
8
BLACK
6
CONTINUOUS
10
-4.05173
20
5.59569
11
-4.04803
21
5.59987
0
LINE
8
BLACK
6
CONTINUOUS
10
-4.04803
20
5.59987
11
-4.04331
21
5.60285
0
LINE
8
BLACK
6
CONTINUOUS
10
-4.04331
20
5.60285
11
-4.03795
21
5.60438
0
LINE
8
BLACK
6
CONTINUOUS
10
-4.03795
20
5.60438
11
-4.03237
21
5.60435
0
LINE
8
BLACK
6
CONTINUOUS
10
-3.83158
20
5.60435
11
-3.82623
21
5.60275
0
LINE
8
BLACK
6
CONTINUOUS
10
-3.82623
20
5.60275
11
-3.82155
21
5.59972
0
LINE
8
BLACK
6
CONTINUOUS
10
-3.82155
20
5.59972
11
-3.8179
21
5.59549
0
LINE
8
BLACK
6
CONTINUOUS
10
-3.8179
20
5.59549
11
-3.81559
21
5.59041
0
LINE
8
BLACK
6
CONTINUOUS
10
-3.81559
20
5.59041
11
-3.8148
21
5.58488
0
LINE
8
BLACK
6
CONTINUOUS
10
-3.8148
20
5.58488
11
-3.81481
21
5.5844
0
LINE
8
BLACK
6
CONTINUOUS
10
-3.81481
20
5.5844
11
-3.81574
21
5.5789
0
LINE
8
BLACK
6
CONTINUOUS
10
-3.81574
20
5.5789
11
-3.81817
21
5.57387
0
LINE
8
BLACK
6
CONTINUOUS
10
-3.81817
20
5.57387
11
-3.82191
21
5.56974
0
LINE
8
BLACK
6
CONTINUOUS
10
-3.82191
20
5.56974
11
-3.82667
21
5.56682
0
LINE
8
BLACK
6
CONTINUOUS
10
-3.82667
20
5.56682
11
-3.83206
21
5.56535
0
LINE
8
BLACK
6
CONTINUOUS
10
-3.83206
20
5.56535
11
-3.83764
21
5.56545
0
LINE
8
BLACK
6
CONTINUOUS
10
-3.83764
20
5.56545
11
-3.84296
21
5.56711
0
LINE
8
BLACK
6
CONTINUOUS
10
-3.84296
20
5.56711
11
-3.84761
21
5.57021
0
LINE
8
BLACK
6
CONTINUOUS
10
-3.84761
20
5.57021
11
-3.8512
21
5.57448
0
LINE
8
BLACK
6
CONTINUOUS
10
-3.8512
20
5.57448
11
-3.85345
21
5.57959
0
LINE
8
BLACK
6
CONTINUOUS
10
-3.85345
20
5.57959
11
-3.85417
21
5.58512
0
LINE
8
BLACK
6
CONTINUOUS
10
-3.85417
20
5.58512
11
-3.85331
21
5.59064
0
LINE
8
BLACK
6
CONTINUOUS
10
-3.85331
20
5.59064
11
-3.85094
21
5.59569
0
LINE
8
BLACK
6
CONTINUOUS
10
-3.85094
20
5.59569
11
-3.84725
21
5.59987
0
LINE
8
BLACK
6
CONTINUOUS
10
-3.84725
20
5.59987
11
-3.84253
21
5.60285
0
LINE
8
BLACK
6
CONTINUOUS
10
-3.84253
20
5.60285
11
-3.83716
21
5.60438
0
LINE
8
BLACK
6
CONTINUOUS
10
-3.83716
20
5.60438
11
-3.83158
21
5.60435
0
LINE
8
BLACK
6
CONTINUOUS
10
-4.2833
20
5.62577
11
-4.27871
21
5.62343
0
LINE
8
BLACK
6
CONTINUOUS
10
-4.27871
20
5.62343
11
-4.27506
21
5.61978
0
LINE
8
BLACK
6
CONTINUOUS
10
-4.27506
20
5.61978
11
-4.27272
21
5.61518
0
LINE
8
BLACK
6
CONTINUOUS
10
-4.27272
20
5.61518
11
-4.27191
21
5.61009
0
LINE
8
BLACK
6
CONTINUOUS
10
-4.27191
20
5.61009
11
-4.27191
21
5.58991
0
LINE
8
BLACK
6
CONTINUOUS
10
-4.27191
20
5.58991
11
-4.27272
21
5.58482
0
LINE
8
BLACK
6
CONTINUOUS
10
-4.27272
20
5.58482
11
-4.27506
21
5.58022
0
LINE
8
BLACK
6
CONTINUOUS
10
-4.27506
20
5.58022
11
-4.27871
21
5.57657
0
LINE
8
BLACK
6
CONTINUOUS
10
-4.27871
20
5.57657
11
-4.2833
21
5.57423
0
LINE
8
BLACK
6
CONTINUOUS
10
-4.2833
20
5.57423
11
-4.2884
21
5.57343
0
LINE
8
BLACK
6
CONTINUOUS
10
-4.2884
20
5.57343
11
-4.30562
21
5.57343
0
LINE
8
BLACK
6
CONTINUOUS
10
-4.30562
20
5.57343
11
-4.31071
21
5.57423
0
LINE
8
BLACK
6
CONTINUOUS
10
-4.31071
20
5.57423
11
-4.31531
21
5.57657
0
LINE
8
BLACK
6
CONTINUOUS
10
-4.31531
20
5.57657
11
-4.31896
21
5.58022
0
LINE
8
BLACK
6
CONTINUOUS
10
-4.31896
20
5.58022
11
-4.3213
21
5.58482
0
LINE
8
BLACK
6
CONTINUOUS
10
-4.3213
20
5.58482
11
-4.32211
21
5.58991
0
LINE
8
BLACK
6
CONTINUOUS
10
-4.32211
20
5.58991
11
-4.32211
21
5.61009
0
LINE
8
BLACK
6
CONTINUOUS
10
-4.32211
20
5.61009
11
-4.3213
21
5.61518
0
LINE
8
BLACK
6
CONTINUOUS
10
-4.3213
20
5.61518
11
-4.31896
21
5.61978
0
LINE
8
BLACK
6
CONTINUOUS
10
-4.31896
20
5.61978
11
-4.31531
21
5.62343
0
LINE
8
BLACK
6
CONTINUOUS
10
-4.31531
20
5.62343
11
-4.31071
21
5.62577
0
LINE
8
BLACK
6
CONTINUOUS
10
-4.31071
20
5.62577
11
-4.30562
21
5.62657
0
LINE
8
BLACK
6
CONTINUOUS
10
-4.30562
20
5.62657
11
-4.2884
21
5.62657
0
LINE
8
BLACK
6
CONTINUOUS
10
-4.2884
20
5.62657
11
-4.2833
21
5.62577
0
LINE
8
BLACK
6
CONTINUOUS
10
-4.22129
20
5.62577
11
-4.2167
21
5.62343
0
LINE
8
BLACK
6
CONTINUOUS
10
-4.2167
20
5.62343
11
-4.21305
21
5.61978
0
LINE
8
BLACK
6
CONTINUOUS
10
-4.21305
20
5.61978
11
-4.21071
21
5.61518
0
LINE
8
BLACK
6
CONTINUOUS
10
-4.21071
20
5.61518
11
-4.2099
21
5.61009
0
LINE
8
BLACK
6
CONTINUOUS
10
-4.2099
20
5.61009
11
-4.2099
21
5.58991
0
LINE
8
BLACK
6
CONTINUOUS
10
-4.2099
20
5.58991
11
-4.21071
21
5.58482
0
LINE
8
BLACK
6
CONTINUOUS
10
-4.21071
20
5.58482
11
-4.21305
21
5.58022
0
LINE
8
BLACK
6
CONTINUOUS
10
-4.21305
20
5.58022
11
-4.2167
21
5.57657
0
LINE
8
BLACK
6
CONTINUOUS
10
-4.2167
20
5.57657
11
-4.22129
21
5.57423
0
LINE
8
BLACK
6
CONTINUOUS
10
-4.22129
20
5.57423
11
-4.22639
21
5.57343
0
LINE
8
BLACK
6
CONTINUOUS
10
-4.22639
20
5.57343
11
-4.24361
21
5.57343
0
LINE
8
BLACK
6
CONTINUOUS
10
-4.24361
20
5.57343
11
-4.24871
21
5.57423
0
LINE
8
BLACK
6
CONTINUOUS
10
-4.24871
20
5.57423
11
-4.2533
21
5.57657
0
LINE
8
BLACK
6
CONTINUOUS
10
-4.2533
20
5.57657
11
-4.25695
21
5.58022
0
LINE
8
BLACK
6
CONTINUOUS
10
-4.25695
20
5.58022
11
-4.25929
21
5.58482
0
LINE
8
BLACK
6
CONTINUOUS
10
-4.25929
20
5.58482
11
-4.2601
21
5.58991
0
LINE
8
BLACK
6
CONTINUOUS
10
-4.2601
20
5.58991
11
-4.2601
21
5.61009
0
LINE
8
BLACK
6
CONTINUOUS
10
-4.2601
20
5.61009
11
-4.25929
21
5.61518
0
LINE
8
BLACK
6
CONTINUOUS
10
-4.25929
20
5.61518
11
-4.25695
21
5.61978
0
LINE
8
BLACK
6
CONTINUOUS
10
-4.25695
20
5.61978
11
-4.2533
21
5.62343
0
LINE
8
BLACK
6
CONTINUOUS
10
-4.2533
20
5.62343
11
-4.24871
21
5.62577
0
LINE
8
BLACK
6
CONTINUOUS
10
-4.24871
20
5.62577
11
-4.24361
21
5.62657
0
LINE
8
BLACK
6
CONTINUOUS
10
-4.24361
20
5.62657
11
-4.22639
21
5.62657
0
LINE
8
BLACK
6
CONTINUOUS
10
-4.22639
20
5.62657
11
-4.22129
21
5.62577
0
LINE
8
BLACK
6
CONTINUOUS
10
-4.42364
20
5.63802
11
-4.42109
21
5.63632
0
LINE
8
BLACK
6
CONTINUOUS
10
-4.42109
20
5.63632
11
-4.41938
21
5.63376
0
LINE
8
BLACK
6
CONTINUOUS
10
-4.41938
20
5.63376
11
-4.41878
21
5.63075
0
LINE
8
BLACK
6
CONTINUOUS
10
-4.41878
20
5.63075
11
-4.41878
21
5.59925
0
LINE
8
BLACK
6
CONTINUOUS
10
-4.41878
20
5.59925
11
-4.41938
21
5.59624
0
LINE
8
BLACK
6
CONTINUOUS
10
-4.41938
20
5.59624
11
-4.42109
21
5.59368
0
LINE
8
BLACK
6
CONTINUOUS
10
-4.42109
20
5.59368
11
-4.42364
21
5.59198
0
LINE
8
BLACK
6
CONTINUOUS
10
-4.42364
20
5.59198
11
-4.42665
21
5.59138
0
LINE
8
BLACK
6
CONTINUOUS
10
-4.42665
20
5.59138
11
-4.46209
21
5.59138
0
LINE
8
BLACK
6
CONTINUOUS
10
-4.46209
20
5.59138
11
-4.4651
21
5.59198
0
LINE
8
BLACK
6
CONTINUOUS
10
-4.4651
20
5.59198
11
-4.46765
21
5.59368
0
LINE
8
BLACK
6
CONTINUOUS
10
-4.46765
20
5.59368
11
-4.46936
21
5.59624
0
LINE
8
BLACK
6
CONTINUOUS
10
-4.46936
20
5.59624
11
-4.46996
21
5.59925
0
LINE
8
BLACK
6
CONTINUOUS
10
-4.46996
20
5.59925
11
-4.46996
21
5.63075
0
LINE
8
BLACK
6
CONTINUOUS
10
-4.46996
20
5.63075
11
-4.46936
21
5.63376
0
LINE
8
BLACK
6
CONTINUOUS
10
-4.46936
20
5.63376
11
-4.46765
21
5.63632
0
LINE
8
BLACK
6
CONTINUOUS
10
-4.46765
20
5.63632
11
-4.4651
21
5.63802
0
LINE
8
BLACK
6
CONTINUOUS
10
-4.4651
20
5.63802
11
-4.46209
21
5.63862
0
LINE
8
BLACK
6
CONTINUOUS
10
-4.46209
20
5.63862
11
-4.42665
21
5.63862
0
LINE
8
BLACK
6
CONTINUOUS
10
-4.42665
20
5.63862
11
-4.42364
21
5.63802
0
LINE
8
BLACK
6
CONTINUOUS
10
-4.77543
20
5.63057
11
-4.77137
21
5.62858
0
LINE
8
BLACK
6
CONTINUOUS
10
-4.77137
20
5.62858
11
-4.76817
21
5.62538
0
LINE
8
BLACK
6
CONTINUOUS
10
-4.76817
20
5.62538
11
-4.76617
21
5.62132
0
LINE
8
BLACK
6
CONTINUOUS
10
-4.76617
20
5.62132
11
-4.76559
21
5.61736
0
LINE
8
BLACK
6
CONTINUOUS
10
-4.76559
20
5.61736
11
-4.76559
21
5.60555
0
LINE
8
BLACK
6
CONTINUOUS
10
-4.76559
20
5.60555
11
-4.76616
21
5.60161
0
LINE
8
BLACK
6
CONTINUOUS
10
-4.76616
20
5.60161
11
-4.76815
21
5.59755
0
LINE
8
BLACK
6
CONTINUOUS
10
-4.76815
20
5.59755
11
-4.77135
21
5.59435
0
LINE
8
BLACK
6
CONTINUOUS
10
-4.77135
20
5.59435
11
-4.77541
21
5.59235
0
LINE
8
BLACK
6
CONTINUOUS
10
-4.77541
20
5.59235
11
-4.77937
21
5.59177
0
LINE
8
BLACK
6
CONTINUOUS
10
-4.77937
20
5.59177
11
-4.83449
21
5.59177
0
LINE
8
BLACK
6
CONTINUOUS
10
-4.83449
20
5.59177
11
-4.83842
21
5.59235
0
LINE
8
BLACK
6
CONTINUOUS
10
-4.83842
20
5.59235
11
-4.84249
21
5.59433
0
LINE
8
BLACK
6
CONTINUOUS
10
-4.84249
20
5.59433
11
-4.84569
21
5.59753
0
LINE
8
BLACK
6
CONTINUOUS
10
-4.84569
20
5.59753
11
-4.84769
21
5.60159
0
LINE
8
BLACK
6
CONTINUOUS
10
-4.84769
20
5.60159
11
-4.84827
21
5.60555
0
LINE
8
BLACK
6
CONTINUOUS
10
-4.84827
20
5.60555
11
-4.84827
21
5.61736
0
LINE
8
BLACK
6
CONTINUOUS
10
-4.84827
20
5.61736
11
-4.84769
21
5.6213
0
LINE
8
BLACK
6
CONTINUOUS
10
-4.84769
20
5.6213
11
-4.84571
21
5.62536
0
LINE
8
BLACK
6
CONTINUOUS
10
-4.84571
20
5.62536
11
-4.84251
21
5.62857
0
LINE
8
BLACK
6
CONTINUOUS
10
-4.84251
20
5.62857
11
-4.83845
21
5.63056
0
LINE
8
BLACK
6
CONTINUOUS
10
-4.83845
20
5.63056
11
-4.83449
21
5.63114
0
LINE
8
BLACK
6
CONTINUOUS
10
-4.83449
20
5.63114
11
-4.77937
21
5.63114
0
LINE
8
BLACK
6
CONTINUOUS
10
-4.77937
20
5.63114
11
-4.77543
21
5.63057
0
LINE
8
BLACK
6
CONTINUOUS
10
-4.50982
20
5.6563
11
-4.50522
21
5.65396
0
LINE
8
BLACK
6
CONTINUOUS
10
-4.50522
20
5.65396
11
-4.50157
21
5.65031
0
LINE
8
BLACK
6
CONTINUOUS
10
-4.50157
20
5.65031
11
-4.49923
21
5.64571
0
LINE
8
BLACK
6
CONTINUOUS
10
-4.49923
20
5.64571
11
-4.49843
21
5.64062
0
LINE
8
BLACK
6
CONTINUOUS
10
-4.49843
20
5.64062
11
-4.49843
21
5.6234
0
LINE
8
BLACK
6
CONTINUOUS
10
-4.49843
20
5.6234
11
-4.49923
21
5.6183
0
LINE
8
BLACK
6
CONTINUOUS
10
-4.49923
20
5.6183
11
-4.50157
21
5.61371
0
LINE
8
BLACK
6
CONTINUOUS
10
-4.50157
20
5.61371
11
-4.50522
21
5.61006
0
LINE
8
BLACK
6
CONTINUOUS
10
-4.50522
20
5.61006
11
-4.50982
21
5.60772
0
LINE
8
BLACK
6
CONTINUOUS
10
-4.50982
20
5.60772
11
-4.51491
21
5.60691
0
LINE
8
BLACK
6
CONTINUOUS
10
-4.51491
20
5.60691
11
-4.53509
21
5.60691
0
LINE
8
BLACK
6
CONTINUOUS
10
-4.53509
20
5.60691
11
-4.54018
21
5.60772
0
LINE
8
BLACK
6
CONTINUOUS
10
-4.54018
20
5.60772
11
-4.54478
21
5.61006
0
LINE
8
BLACK
6
CONTINUOUS
10
-4.54478
20
5.61006
11
-4.54843
21
5.61371
0
LINE
8
BLACK
6
CONTINUOUS
10
-4.54843
20
5.61371
11
-4.55077
21
5.6183
0
LINE
8
BLACK
6
CONTINUOUS
10
-4.55077
20
5.6183
11
-4.55157
21
5.6234
0
LINE
8
BLACK
6
CONTINUOUS
10
-4.55157
20
5.6234
11
-4.55157
21
5.64062
0
LINE
8
BLACK
6
CONTINUOUS
10
-4.55157
20
5.64062
11
-4.55077
21
5.64571
0
LINE
8
BLACK
6
CONTINUOUS
10
-4.55077
20
5.64571
11
-4.54843
21
5.65031
0
LINE
8
BLACK
6
CONTINUOUS
10
-4.54843
20
5.65031
11
-4.54478
21
5.65396
0
LINE
8
BLACK
6
CONTINUOUS
10
-4.54478
20
5.65396
11
-4.54018
21
5.6563
0
LINE
8
BLACK
6
CONTINUOUS
10
-4.54018
20
5.6563
11
-4.53509
21
5.65711
0
LINE
8
BLACK
6
CONTINUOUS
10
-4.53509
20
5.65711
11
-4.51491
21
5.65711
0
LINE
8
BLACK
6
CONTINUOUS
10
-4.51491
20
5.65711
11
-4.50982
21
5.6563
0
LINE
8
BLACK
6
CONTINUOUS
10
-4.07837
20
5.65429
11
-4.07268
21
5.65193
0
LINE
8
BLACK
6
CONTINUOUS
10
-4.07268
20
5.65193
11
-4.06778
21
5.64817
0
LINE
8
BLACK
6
CONTINUOUS
10
-4.06778
20
5.64817
11
-4.06403
21
5.64328
0
LINE
8
BLACK
6
CONTINUOUS
10
-4.06403
20
5.64328
11
-4.06167
21
5.63758
0
LINE
8
BLACK
6
CONTINUOUS
10
-4.06167
20
5.63758
11
-4.06087
21
5.63147
0
LINE
8
BLACK
6
CONTINUOUS
10
-4.06087
20
5.63147
11
-4.06167
21
5.62536
0
LINE
8
BLACK
6
CONTINUOUS
10
-4.06167
20
5.62536
11
-4.06403
21
5.61966
0
LINE
8
BLACK
6
CONTINUOUS
10
-4.06403
20
5.61966
11
-4.06778
21
5.61477
0
LINE
8
BLACK
6
CONTINUOUS
10
-4.06778
20
5.61477
11
-4.07268
21
5.61101
0
LINE
8
BLACK
6
CONTINUOUS
10
-4.07268
20
5.61101
11
-4.07837
21
5.60865
0
LINE
8
BLACK
6
CONTINUOUS
10
-4.07837
20
5.60865
11
-4.08449
21
5.60785
0
LINE
8
BLACK
6
CONTINUOUS
10
-4.08449
20
5.60785
11
-4.0906
21
5.60865
0
LINE
8
BLACK
6
CONTINUOUS
10
-4.0906
20
5.60865
11
-4.0963
21
5.61101
0
LINE
8
BLACK
6
CONTINUOUS
10
-4.0963
20
5.61101
11
-4.10119
21
5.61477
0
LINE
8
BLACK
6
CONTINUOUS
10
-4.10119
20
5.61477
11
-4.10495
21
5.61966
0
LINE
8
BLACK
6
CONTINUOUS
10
-4.10495
20
5.61966
11
-4.10731
21
5.62536
0
LINE
8
BLACK
6
CONTINUOUS
10
-4.10731
20
5.62536
11
-4.10811
21
5.63147
0
LINE
8
BLACK
6
CONTINUOUS
10
-4.10811
20
5.63147
11
-4.10731
21
5.63758
0
LINE
8
BLACK
6
CONTINUOUS
10
-4.10731
20
5.63758
11
-4.10495
21
5.64328
0
LINE
8
BLACK
6
CONTINUOUS
10
-4.10495
20
5.64328
11
-4.10119
21
5.64817
0
LINE
8
BLACK
6
CONTINUOUS
10
-4.10119
20
5.64817
11
-4.0963
21
5.65193
0
LINE
8
BLACK
6
CONTINUOUS
10
-4.0963
20
5.65193
11
-4.0906
21
5.65429
0
LINE
8
BLACK
6
CONTINUOUS
10
-4.0906
20
5.65429
11
-4.08449
21
5.65509
0
LINE
8
BLACK
6
CONTINUOUS
10
-4.08449
20
5.65509
11
-4.07837
21
5.65429
0
LINE
8
BLACK
6
CONTINUOUS
10
-4.3449
20
5.67542
11
-4.34235
21
5.67372
0
LINE
8
BLACK
6
CONTINUOUS
10
-4.34235
20
5.67372
11
-4.34064
21
5.67116
0
LINE
8
BLACK
6
CONTINUOUS
10
-4.34064
20
5.67116
11
-4.34004
21
5.66815
0
LINE
8
BLACK
6
CONTINUOUS
10
-4.34004
20
5.66815
11
-4.34004
21
5.63665
0
LINE
8
BLACK
6
CONTINUOUS
10
-4.34004
20
5.63665
11
-4.34064
21
5.63364
0
LINE
8
BLACK
6
CONTINUOUS
10
-4.34064
20
5.63364
11
-4.34235
21
5.63109
0
LINE
8
BLACK
6
CONTINUOUS
10
-4.34235
20
5.63109
11
-4.3449
21
5.62938
0
LINE
8
BLACK
6
CONTINUOUS
10
-4.3449
20
5.62938
11
-4.34791
21
5.62878
0
LINE
8
BLACK
6
CONTINUOUS
10
-4.34791
20
5.62878
11
-4.38335
21
5.62878
0
LINE
8
BLACK
6
CONTINUOUS
10
-4.38335
20
5.62878
11
-4.38636
21
5.62938
0
LINE
8
BLACK
6
CONTINUOUS
10
-4.38636
20
5.62938
11
-4.38891
21
5.63109
0
LINE
8
BLACK
6
CONTINUOUS
10
-4.38891
20
5.63109
11
-4.39062
21
5.63364
0
LINE
8
BLACK
6
CONTINUOUS
10
-4.39062
20
5.63364
11
-4.39122
21
5.63665
0
LINE
8
BLACK
6
CONTINUOUS
10
-4.39122
20
5.63665
11
-4.39122
21
5.66815
0
LINE
8
BLACK
6
CONTINUOUS
10
-4.39122
20
5.66815
11
-4.39062
21
5.67116
0
LINE
8
BLACK
6
CONTINUOUS
10
-4.39062
20
5.67116
11
-4.38891
21
5.67372
0
LINE
8
BLACK
6
CONTINUOUS
10
-4.38891
20
5.67372
11
-4.38636
21
5.67542
0
LINE
8
BLACK
6
CONTINUOUS
10
-4.38636
20
5.67542
11
-4.38335
21
5.67602
0
LINE
8
BLACK
6
CONTINUOUS
10
-4.38335
20
5.67602
11
-4.34791
21
5.67602
0
LINE
8
BLACK
6
CONTINUOUS
10
-4.34791
20
5.67602
11
-4.3449
21
5.67542
0
LINE
8
BLACK
6
CONTINUOUS
10
-4.77543
20
5.67978
11
-4.77137
21
5.67779
0
LINE
8
BLACK
6
CONTINUOUS
10
-4.77137
20
5.67779
11
-4.76817
21
5.6746
0
LINE
8
BLACK
6
CONTINUOUS
10
-4.76817
20
5.6746
11
-4.76617
21
5.67053
0
LINE
8
BLACK
6
CONTINUOUS
10
-4.76617
20
5.67053
11
-4.76559
21
5.66657
0
LINE
8
BLACK
6
CONTINUOUS
10
-4.76559
20
5.66657
11
-4.76559
21
5.65476
0
LINE
8
BLACK
6
CONTINUOUS
10
-4.76559
20
5.65476
11
-4.76616
21
5.65083
0
LINE
8
BLACK
6
CONTINUOUS
10
-4.76616
20
5.65083
11
-4.76815
21
5.64676
0
LINE
8
BLACK
6
CONTINUOUS
10
-4.76815
20
5.64676
11
-4.77135
21
5.64356
0
LINE
8
BLACK
6
CONTINUOUS
10
-4.77135
20
5.64356
11
-4.77541
21
5.64157
0
LINE
8
BLACK
6
CONTINUOUS
10
-4.77541
20
5.64157
11
-4.77937
21
5.64098
0
LINE
8
BLACK
6
CONTINUOUS
10
-4.77937
20
5.64098
11
-4.83449
21
5.64098
0
LINE
8
BLACK
6
CONTINUOUS
10
-4.83449
20
5.64098
11
-4.83842
21
5.64156
0
LINE
8
BLACK
6
CONTINUOUS
10
-4.83842
20
5.64156
11
-4.84249
21
5.64355
0
LINE
8
BLACK
6
CONTINUOUS
10
-4.84249
20
5.64355
11
-4.84569
21
5.64674
0
LINE
8
BLACK
6
CONTINUOUS
10
-4.84569
20
5.64674
11
-4.84769
21
5.6508
0
LINE
8
BLACK
6
CONTINUOUS
10
-4.84769
20
5.6508
11
-4.84827
21
5.65476
0
LINE
8
BLACK
6
CONTINUOUS
10
-4.84827
20
5.65476
11
-4.84827
21
5.66657
0
LINE
8
BLACK
6
CONTINUOUS
10
-4.84827
20
5.66657
11
-4.84769
21
5.67051
0
LINE
8
BLACK
6
CONTINUOUS
10
-4.84769
20
5.67051
11
-4.84571
21
5.67458
0
LINE
8
BLACK
6
CONTINUOUS
10
-4.84571
20
5.67458
11
-4.84251
21
5.67778
0
LINE
8
BLACK
6
CONTINUOUS
10
-4.84251
20
5.67778
11
-4.83845
21
5.67977
0
LINE
8
BLACK
6
CONTINUOUS
10
-4.83845
20
5.67977
11
-4.83449
21
5.68035
0
LINE
8
BLACK
6
CONTINUOUS
10
-4.83449
20
5.68035
11
-4.77937
21
5.68035
0
LINE
8
BLACK
6
CONTINUOUS
10
-4.77937
20
5.68035
11
-4.77543
21
5.67978
0
LINE
8
BLACK
6
CONTINUOUS
10
-4.65659
20
5.70145
11
-4.65404
21
5.69974
0
LINE
8
BLACK
6
CONTINUOUS
10
-4.65404
20
5.69974
11
-4.65233
21
5.69719
0
LINE
8
BLACK
6
CONTINUOUS
10
-4.65233
20
5.69719
11
-4.65173
21
5.69417
0
LINE
8
BLACK
6
CONTINUOUS
10
-4.65173
20
5.69417
11
-4.65173
21
5.65244
0
LINE
8
BLACK
6
CONTINUOUS
10
-4.65173
20
5.65244
11
-4.65233
21
5.64943
0
LINE
8
BLACK
6
CONTINUOUS
10
-4.65233
20
5.64943
11
-4.65404
21
5.64687
0
LINE
8
BLACK
6
CONTINUOUS
10
-4.65404
20
5.64687
11
-4.65659
21
5.64517
0
LINE
8
BLACK
6
CONTINUOUS
10
-4.65659
20
5.64517
11
-4.65961
21
5.64457
0
LINE
8
BLACK
6
CONTINUOUS
10
-4.65961
20
5.64457
11
-4.6852
21
5.64457
0
LINE
8
BLACK
6
CONTINUOUS
10
-4.6852
20
5.64457
11
-4.68821
21
5.64517
0
LINE
8
BLACK
6
CONTINUOUS
10
-4.68821
20
5.64517
11
-4.69076
21
5.64687
0
LINE
8
BLACK
6
CONTINUOUS
10
-4.69076
20
5.64687
11
-4.69247
21
5.64943
0
LINE
8
BLACK
6
CONTINUOUS
10
-4.69247
20
5.64943
11
-4.69307
21
5.65244
0
LINE
8
BLACK
6
CONTINUOUS
10
-4.69307
20
5.65244
11
-4.69307
21
5.69417
0
LINE
8
BLACK
6
CONTINUOUS
10
-4.69307
20
5.69417
11
-4.69247
21
5.69719
0
LINE
8
BLACK
6
CONTINUOUS
10
-4.69247
20
5.69719
11
-4.69076
21
5.69974
0
LINE
8
BLACK
6
CONTINUOUS
10
-4.69076
20
5.69974
11
-4.68821
21
5.70145
0
LINE
8
BLACK
6
CONTINUOUS
10
-4.68821
20
5.70145
11
-4.6852
21
5.70205
0
LINE
8
BLACK
6
CONTINUOUS
10
-4.6852
20
5.70205
11
-4.65961
21
5.70205
0
LINE
8
BLACK
6
CONTINUOUS
10
-4.65961
20
5.70205
11
-4.65659
21
5.70145
0
LINE
8
BLACK
6
CONTINUOUS
10
-4.58179
20
5.70145
11
-4.57924
21
5.69974
0
LINE
8
BLACK
6
CONTINUOUS
10
-4.57924
20
5.69974
11
-4.57753
21
5.69719
0
LINE
8
BLACK
6
CONTINUOUS
10
-4.57753
20
5.69719
11
-4.57693
21
5.69417
0
LINE
8
BLACK
6
CONTINUOUS
10
-4.57693
20
5.69417
11
-4.57693
21
5.65244
0
LINE
8
BLACK
6
CONTINUOUS
10
-4.57693
20
5.65244
11
-4.57753
21
5.64943
0
LINE
8
BLACK
6
CONTINUOUS
10
-4.57753
20
5.64943
11
-4.57924
21
5.64687
0
LINE
8
BLACK
6
CONTINUOUS
10
-4.57924
20
5.64687
11
-4.58179
21
5.64517
0
LINE
8
BLACK
6
CONTINUOUS
10
-4.58179
20
5.64517
11
-4.5848
21
5.64457
0
LINE
8
BLACK
6
CONTINUOUS
10
-4.5848
20
5.64457
11
-4.61039
21
5.64457
0
LINE
8
BLACK
6
CONTINUOUS
10
-4.61039
20
5.64457
11
-4.61341
21
5.64517
0
LINE
8
BLACK
6
CONTINUOUS
10
-4.61341
20
5.64517
11
-4.61596
21
5.64687
0
LINE
8
BLACK
6
CONTINUOUS
10
-4.61596
20
5.64687
11
-4.61767
21
5.64943
0
LINE
8
BLACK
6
CONTINUOUS
10
-4.61767
20
5.64943
11
-4.61827
21
5.65244
0
LINE
8
BLACK
6
CONTINUOUS
10
-4.61827
20
5.65244
11
-4.61827
21
5.69417
0
LINE
8
BLACK
6
CONTINUOUS
10
-4.61827
20
5.69417
11
-4.61767
21
5.69719
0
LINE
8
BLACK
6
CONTINUOUS
10
-4.61767
20
5.69719
11
-4.61596
21
5.69974
0
LINE
8
BLACK
6
CONTINUOUS
10
-4.61596
20
5.69974
11
-4.61341
21
5.70145
0
LINE
8
BLACK
6
CONTINUOUS
10
-4.61341
20
5.70145
11
-4.61039
21
5.70205
0
LINE
8
BLACK
6
CONTINUOUS
10
-4.61039
20
5.70205
11
-4.5848
21
5.70205
0
LINE
8
BLACK
6
CONTINUOUS
10
-4.5848
20
5.70205
11
-4.58179
21
5.70145
0
LINE
8
BLACK
6
CONTINUOUS
10
-4.77543
20
5.72899
11
-4.77137
21
5.72701
0
LINE
8
BLACK
6
CONTINUOUS
10
-4.77137
20
5.72701
11
-4.76817
21
5.72381
0
LINE
8
BLACK
6
CONTINUOUS
10
-4.76817
20
5.72381
11
-4.76617
21
5.71975
0
LINE
8
BLACK
6
CONTINUOUS
10
-4.76617
20
5.71975
11
-4.76559
21
5.71579
0
LINE
8
BLACK
6
CONTINUOUS
10
-4.76559
20
5.71579
11
-4.76559
21
5.70398
0
LINE
8
BLACK
6
CONTINUOUS
10
-4.76559
20
5.70398
11
-4.76616
21
5.70004
0
LINE
8
BLACK
6
CONTINUOUS
10
-4.76616
20
5.70004
11
-4.76815
21
5.69597
0
LINE
8
BLACK
6
CONTINUOUS
10
-4.76815
20
5.69597
11
-4.77135
21
5.69277
0
LINE
8
BLACK
6
CONTINUOUS
10
-4.77135
20
5.69277
11
-4.77541
21
5.69078
0
LINE
8
BLACK
6
CONTINUOUS
10
-4.77541
20
5.69078
11
-4.77937
21
5.6902
0
LINE
8
BLACK
6
CONTINUOUS
10
-4.77937
20
5.6902
11
-4.83449
21
5.6902
0
LINE
8
BLACK
6
CONTINUOUS
10
-4.83449
20
5.6902
11
-4.83842
21
5.69077
0
LINE
8
BLACK
6
CONTINUOUS
10
-4.83842
20
5.69077
11
-4.84249
21
5.69276
0
LINE
8
BLACK
6
CONTINUOUS
10
-4.84249
20
5.69276
11
-4.84569
21
5.69595
0
LINE
8
BLACK
6
CONTINUOUS
10
-4.84569
20
5.69595
11
-4.84769
21
5.70002
0
LINE
8
BLACK
6
CONTINUOUS
10
-4.84769
20
5.70002
11
-4.84827
21
5.70398
0
LINE
8
BLACK
6
CONTINUOUS
10
-4.84827
20
5.70398
11
-4.84827
21
5.71579
0
LINE
8
BLACK
6
CONTINUOUS
10
-4.84827
20
5.71579
11
-4.84769
21
5.71972
0
LINE
8
BLACK
6
CONTINUOUS
10
-4.84769
20
5.71972
11
-4.84571
21
5.72379
0
LINE
8
BLACK
6
CONTINUOUS
10
-4.84571
20
5.72379
11
-4.84251
21
5.72699
0
LINE
8
BLACK
6
CONTINUOUS
10
-4.84251
20
5.72699
11
-4.83845
21
5.72899
0
LINE
8
BLACK
6
CONTINUOUS
10
-4.83845
20
5.72899
11
-4.83449
21
5.72957
0
LINE
8
BLACK
6
CONTINUOUS
10
-4.83449
20
5.72957
11
-4.77937
21
5.72957
0
LINE
8
BLACK
6
CONTINUOUS
10
-4.77937
20
5.72957
11
-4.77543
21
5.72899
0
LINE
8
BLACK
6
CONTINUOUS
10
-4.52982
20
5.75728
11
-4.52522
21
5.75494
0
LINE
8
BLACK
6
CONTINUOUS
10
-4.52522
20
5.75494
11
-4.52157
21
5.75129
0
LINE
8
BLACK
6
CONTINUOUS
10
-4.52157
20
5.75129
11
-4.51923
21
5.7467
0
LINE
8
BLACK
6
CONTINUOUS
10
-4.51923
20
5.7467
11
-4.51843
21
5.7416
0
LINE
8
BLACK
6
CONTINUOUS
10
-4.51843
20
5.7416
11
-4.51843
21
5.72438
0
LINE
8
BLACK
6
CONTINUOUS
10
-4.51843
20
5.72438
11
-4.51923
21
5.71929
0
LINE
8
BLACK
6
CONTINUOUS
10
-4.51923
20
5.71929
11
-4.52157
21
5.71469
0
LINE
8
BLACK
6
CONTINUOUS
10
-4.52157
20
5.71469
11
-4.52522
21
5.71104
0
LINE
8
BLACK
6
CONTINUOUS
10
-4.52522
20
5.71104
11
-4.52982
21
5.7087
0
LINE
8
BLACK
6
CONTINUOUS
10
-4.52982
20
5.7087
11
-4.53491
21
5.70789
0
LINE
8
BLACK
6
CONTINUOUS
10
-4.53491
20
5.70789
11
-4.55509
21
5.70789
0
LINE
8
BLACK
6
CONTINUOUS
10
-4.55509
20
5.70789
11
-4.56018
21
5.7087
0
LINE
8
BLACK
6
CONTINUOUS
10
-4.56018
20
5.7087
11
-4.56478
21
5.71104
0
LINE
8
BLACK
6
CONTINUOUS
10
-4.56478
20
5.71104
11
-4.56843
21
5.71469
0
LINE
8
BLACK
6
CONTINUOUS
10
-4.56843
20
5.71469
11
-4.57077
21
5.71929
0
LINE
8
BLACK
6
CONTINUOUS
10
-4.57077
20
5.71929
11
-4.57157
21
5.72438
0
LINE
8
BLACK
6
CONTINUOUS
10
-4.57157
20
5.72438
11
-4.57157
21
5.7416
0
LINE
8
BLACK
6
CONTINUOUS
10
-4.57157
20
5.7416
11
-4.57077
21
5.7467
0
LINE
8
BLACK
6
CONTINUOUS
10
-4.57077
20
5.7467
11
-4.56843
21
5.75129
0
LINE
8
BLACK
6
CONTINUOUS
10
-4.56843
20
5.75129
11
-4.56478
21
5.75494
0
LINE
8
BLACK
6
CONTINUOUS
10
-4.56478
20
5.75494
11
-4.56018
21
5.75728
0
LINE
8
BLACK
6
CONTINUOUS
10
-4.56018
20
5.75728
11
-4.55509
21
5.75809
0
LINE
8
BLACK
6
CONTINUOUS
10
-4.55509
20
5.75809
11
-4.53491
21
5.75809
0
LINE
8
BLACK
6
CONTINUOUS
10
-4.53491
20
5.75809
11
-4.52982
21
5.75728
0
LINE
8
BLACK
6
CONTINUOUS
10
-4.58449
20
5.76477
11
-4.58193
21
5.76307
0
LINE
8
BLACK
6
CONTINUOUS
10
-4.58193
20
5.76307
11
-4.58023
21
5.76051
0
LINE
8
BLACK
6
CONTINUOUS
10
-4.58023
20
5.76051
11
-4.57963
21
5.7575
0
LINE
8
BLACK
6
CONTINUOUS
10
-4.57963
20
5.7575
11
-4.57963
21
5.7225
0
LINE
8
BLACK
6
CONTINUOUS
10
-4.57963
20
5.7225
11
-4.58023
21
5.71949
0
LINE
8
BLACK
6
CONTINUOUS
10
-4.58023
20
5.71949
11
-4.58193
21
5.71693
0
LINE
8
BLACK
6
CONTINUOUS
10
-4.58193
20
5.71693
11
-4.58449
21
5.71523
0
LINE
8
BLACK
6
CONTINUOUS
10
-4.58449
20
5.71523
11
-4.5875
21
5.71463
0
LINE
8
BLACK
6
CONTINUOUS
10
-4.5875
20
5.71463
11
-4.6425
21
5.71463
0
LINE
8
BLACK
6
CONTINUOUS
10
-4.6425
20
5.71463
11
-4.64551
21
5.71523
0
LINE
8
BLACK
6
CONTINUOUS
10
-4.64551
20
5.71523
11
-4.64807
21
5.71693
0
LINE
8
BLACK
6
CONTINUOUS
10
-4.64807
20
5.71693
11
-4.64977
21
5.71949
0
LINE
8
BLACK
6
CONTINUOUS
10
-4.64977
20
5.71949
11
-4.65037
21
5.7225
0
LINE
8
BLACK
6
CONTINUOUS
10
-4.65037
20
5.7225
11
-4.65037
21
5.7575
0
LINE
8
BLACK
6
CONTINUOUS
10
-4.65037
20
5.7575
11
-4.64977
21
5.76051
0
LINE
8
BLACK
6
CONTINUOUS
10
-4.64977
20
5.76051
11
-4.64807
21
5.76307
0
LINE
8
BLACK
6
CONTINUOUS
10
-4.64807
20
5.76307
11
-4.64551
21
5.76477
0
LINE
8
BLACK
6
CONTINUOUS
10
-4.64551
20
5.76477
11
-4.6425
21
5.76537
0
LINE
8
BLACK
6
CONTINUOUS
10
-4.6425
20
5.76537
11
-4.5875
21
5.76537
0
LINE
8
BLACK
6
CONTINUOUS
10
-4.5875
20
5.76537
11
-4.58449
21
5.76477
0
LINE
8
BLACK
6
CONTINUOUS
10
-4.07837
20
5.7619
11
-4.07268
21
5.75954
0
LINE
8
BLACK
6
CONTINUOUS
10
-4.07268
20
5.75954
11
-4.06778
21
5.75578
0
LINE
8
BLACK
6
CONTINUOUS
10
-4.06778
20
5.75578
11
-4.06403
21
5.75089
0
LINE
8
BLACK
6
CONTINUOUS
10
-4.06403
20
5.75089
11
-4.06167
21
5.7452
0
LINE
8
BLACK
6
CONTINUOUS
10
-4.06167
20
5.7452
11
-4.06087
21
5.73908
0
LINE
8
BLACK
6
CONTINUOUS
10
-4.06087
20
5.73908
11
-4.06167
21
5.73297
0
LINE
8
BLACK
6
CONTINUOUS
10
-4.06167
20
5.73297
11
-4.06403
21
5.72727
0
LINE
8
BLACK
6
CONTINUOUS
10
-4.06403
20
5.72727
11
-4.06778
21
5.72238
0
LINE
8
BLACK
6
CONTINUOUS
10
-4.06778
20
5.72238
11
-4.07268
21
5.71862
0
LINE
8
BLACK
6
CONTINUOUS
10
-4.07268
20
5.71862
11
-4.07837
21
5.71626
0
LINE
8
BLACK
6
CONTINUOUS
10
-4.07837
20
5.71626
11
-4.08449
21
5.71546
0
LINE
8
BLACK
6
CONTINUOUS
10
-4.08449
20
5.71546
11
-4.0906
21
5.71626
0
LINE
8
BLACK
6
CONTINUOUS
10
-4.0906
20
5.71626
11
-4.0963
21
5.71862
0
LINE
8
BLACK
6
CONTINUOUS
10
-4.0963
20
5.71862
11
-4.10119
21
5.72238
0
LINE
8
BLACK
6
CONTINUOUS
10
-4.10119
20
5.72238
11
-4.10495
21
5.72727
0
LINE
8
BLACK
6
CONTINUOUS
10
-4.10495
20
5.72727
11
-4.10731
21
5.73297
0
LINE
8
BLACK
6
CONTINUOUS
10
-4.10731
20
5.73297
11
-4.10811
21
5.73908
0
LINE
8
BLACK
6
CONTINUOUS
10
-4.10811
20
5.73908
11
-4.10731
21
5.7452
0
LINE
8
BLACK
6
CONTINUOUS
10
-4.10731
20
5.7452
11
-4.10495
21
5.75089
0
LINE
8
BLACK
6
CONTINUOUS
10
-4.10495
20
5.75089
11
-4.10119
21
5.75578
0
LINE
8
BLACK
6
CONTINUOUS
10
-4.10119
20
5.75578
11
-4.0963
21
5.75954
0
LINE
8
BLACK
6
CONTINUOUS
10
-4.0963
20
5.75954
11
-4.0906
21
5.7619
0
LINE
8
BLACK
6
CONTINUOUS
10
-4.0906
20
5.7619
11
-4.08449
21
5.7627
0
LINE
8
BLACK
6
CONTINUOUS
10
-4.08449
20
5.7627
11
-4.07837
21
5.7619
0
LINE
8
BLACK
6
CONTINUOUS
10
-4.36482
20
5.78728
11
-4.36022
21
5.78494
0
LINE
8
BLACK
6
CONTINUOUS
10
-4.36022
20
5.78494
11
-4.35657
21
5.78129
0
LINE
8
BLACK
6
CONTINUOUS
10
-4.35657
20
5.78129
11
-4.35423
21
5.7767
0
LINE
8
BLACK
6
CONTINUOUS
10
-4.35423
20
5.7767
11
-4.35343
21
5.7716
0
LINE
8
BLACK
6
CONTINUOUS
10
-4.35343
20
5.7716
11
-4.35343
21
5.75438
0
LINE
8
BLACK
6
CONTINUOUS
10
-4.35343
20
5.75438
11
-4.35423
21
5.74929
0
LINE
8
BLACK
6
CONTINUOUS
10
-4.35423
20
5.74929
11
-4.35657
21
5.74469
0
LINE
8
BLACK
6
CONTINUOUS
10
-4.35657
20
5.74469
11
-4.36022
21
5.74104
0
LINE
8
BLACK
6
CONTINUOUS
10
-4.36022
20
5.74104
11
-4.36482
21
5.7387
0
LINE
8
BLACK
6
CONTINUOUS
10
-4.36482
20
5.7387
11
-4.36991
21
5.73789
0
LINE
8
BLACK
6
CONTINUOUS
10
-4.36991
20
5.73789
11
-4.39009
21
5.73789
0
LINE
8
BLACK
6
CONTINUOUS
10
-4.39009
20
5.73789
11
-4.39518
21
5.7387
0
LINE
8
BLACK
6
CONTINUOUS
10
-4.39518
20
5.7387
11
-4.39978
21
5.74104
0
LINE
8
BLACK
6
CONTINUOUS
10
-4.39978
20
5.74104
11
-4.40343
21
5.74469
0
LINE
8
BLACK
6
CONTINUOUS
10
-4.40343
20
5.74469
11
-4.40577
21
5.74929
0
LINE
8
BLACK
6
CONTINUOUS
10
-4.40577
20
5.74929
11
-4.40657
21
5.75438
0
LINE
8
BLACK
6
CONTINUOUS
10
-4.40657
20
5.75438
11
-4.40657
21
5.7716
0
LINE
8
BLACK
6
CONTINUOUS
10
-4.40657
20
5.7716
11
-4.40577
21
5.7767
0
LINE
8
BLACK
6
CONTINUOUS
10
-4.40577
20
5.7767
11
-4.40343
21
5.78129
0
LINE
8
BLACK
6
CONTINUOUS
10
-4.40343
20
5.78129
11
-4.39978
21
5.78494
0
LINE
8
BLACK
6
CONTINUOUS
10
-4.39978
20
5.78494
11
-4.39518
21
5.78728
0
LINE
8
BLACK
6
CONTINUOUS
10
-4.39518
20
5.78728
11
-4.39009
21
5.78809
0
LINE
8
BLACK
6
CONTINUOUS
10
-4.39009
20
5.78809
11
-4.36991
21
5.78809
0
LINE
8
BLACK
6
CONTINUOUS
10
-4.36991
20
5.78809
11
-4.36482
21
5.78728
0
LINE
8
BLACK
6
CONTINUOUS
10
-4.27482
20
5.78829
11
-4.27022
21
5.78595
0
LINE
8
BLACK
6
CONTINUOUS
10
-4.27022
20
5.78595
11
-4.26657
21
5.7823
0
LINE
8
BLACK
6
CONTINUOUS
10
-4.26657
20
5.7823
11
-4.26423
21
5.7777
0
LINE
8
BLACK
6
CONTINUOUS
10
-4.26423
20
5.7777
11
-4.26343
21
5.77261
0
LINE
8
BLACK
6
CONTINUOUS
10
-4.26343
20
5.77261
11
-4.26343
21
5.75538
0
LINE
8
BLACK
6
CONTINUOUS
10
-4.26343
20
5.75538
11
-4.26423
21
5.75029
0
LINE
8
BLACK
6
CONTINUOUS
10
-4.26423
20
5.75029
11
-4.26657
21
5.74569
0
LINE
8
BLACK
6
CONTINUOUS
10
-4.26657
20
5.74569
11
-4.27022
21
5.74205
0
LINE
8
BLACK
6
CONTINUOUS
10
-4.27022
20
5.74205
11
-4.27482
21
5.7397
0
LINE
8
BLACK
6
CONTINUOUS
10
-4.27482
20
5.7397
11
-4.27991
21
5.7389
0
LINE
8
BLACK
6
CONTINUOUS
10
-4.27991
20
5.7389
11
-4.30009
21
5.7389
0
LINE
8
BLACK
6
CONTINUOUS
10
-4.30009
20
5.7389
11
-4.30518
21
5.7397
0
LINE
8
BLACK
6
CONTINUOUS
10
-4.30518
20
5.7397
11
-4.30978
21
5.74205
0
LINE
8
BLACK
6
CONTINUOUS
10
-4.30978
20
5.74205
11
-4.31343
21
5.74569
0
LINE
8
BLACK
6
CONTINUOUS
10
-4.31343
20
5.74569
11
-4.31577
21
5.75029
0
LINE
8
BLACK
6
CONTINUOUS
10
-4.31577
20
5.75029
11
-4.31657
21
5.75538
0
LINE
8
BLACK
6
CONTINUOUS
10
-4.31657
20
5.75538
11
-4.31657
21
5.77261
0
LINE
8
BLACK
6
CONTINUOUS
10
-4.31657
20
5.77261
11
-4.31577
21
5.7777
0
LINE
8
BLACK
6
CONTINUOUS
10
-4.31577
20
5.7777
11
-4.31343
21
5.7823
0
LINE
8
BLACK
6
CONTINUOUS
10
-4.31343
20
5.7823
11
-4.30978
21
5.78595
0
LINE
8
BLACK
6
CONTINUOUS
10
-4.30978
20
5.78595
11
-4.30518
21
5.78829
0
LINE
8
BLACK
6
CONTINUOUS
10
-4.30518
20
5.78829
11
-4.30009
21
5.78909
0
LINE
8
BLACK
6
CONTINUOUS
10
-4.30009
20
5.78909
11
-4.27991
21
5.78909
0
LINE
8
BLACK
6
CONTINUOUS
10
-4.27991
20
5.78909
11
-4.27482
21
5.78829
0
LINE
8
BLACK
6
CONTINUOUS
10
-4.77543
20
5.77821
11
-4.77137
21
5.77622
0
LINE
8
BLACK
6
CONTINUOUS
10
-4.77137
20
5.77622
11
-4.76817
21
5.77302
0
LINE
8
BLACK
6
CONTINUOUS
10
-4.76817
20
5.77302
11
-4.76617
21
5.76896
0
LINE
8
BLACK
6
CONTINUOUS
10
-4.76617
20
5.76896
11
-4.76559
21
5.765
0
LINE
8
BLACK
6
CONTINUOUS
10
-4.76559
20
5.765
11
-4.76559
21
5.75319
0
LINE
8
BLACK
6
CONTINUOUS
10
-4.76559
20
5.75319
11
-4.76616
21
5.74925
0
LINE
8
BLACK
6
CONTINUOUS
10
-4.76616
20
5.74925
11
-4.76815
21
5.74519
0
LINE
8
BLACK
6
CONTINUOUS
10
-4.76815
20
5.74519
11
-4.77135
21
5.74198
0
LINE
8
BLACK
6
CONTINUOUS
10
-4.77135
20
5.74198
11
-4.77541
21
5.73999
0
LINE
8
BLACK
6
CONTINUOUS
10
-4.77541
20
5.73999
11
-4.77937
21
5.73941
0
LINE
8
BLACK
6
CONTINUOUS
10
-4.77937
20
5.73941
11
-4.83449
21
5.73941
0
LINE
8
BLACK
6
CONTINUOUS
10
-4.83449
20
5.73941
11
-4.83842
21
5.73998
0
LINE
8
BLACK
6
CONTINUOUS
10
-4.83842
20
5.73998
11
-4.84249
21
5.74197
0
LINE
8
BLACK
6
CONTINUOUS
10
-4.84249
20
5.74197
11
-4.84569
21
5.74517
0
LINE
8
BLACK
6
CONTINUOUS
10
-4.84569
20
5.74517
11
-4.84769
21
5.74923
0
LINE
8
BLACK
6
CONTINUOUS
10
-4.84769
20
5.74923
11
-4.84827
21
5.75319
0
LINE
8
BLACK
6
CONTINUOUS
10
-4.84827
20
5.75319
11
-4.84827
21
5.765
0
LINE
8
BLACK
6
CONTINUOUS
10
-4.84827
20
5.765
11
-4.84769
21
5.76894
0
LINE
8
BLACK
6
CONTINUOUS
10
-4.84769
20
5.76894
11
-4.84571
21
5.773
0
LINE
8
BLACK
6
CONTINUOUS
10
-4.84571
20
5.773
11
-4.84251
21
5.7762
0
LINE
8
BLACK
6
CONTINUOUS
10
-4.84251
20
5.7762
11
-4.83845
21
5.7782
0
LINE
8
BLACK
6
CONTINUOUS
10
-4.83845
20
5.7782
11
-4.83449
21
5.77878
0
LINE
8
BLACK
6
CONTINUOUS
10
-4.83449
20
5.77878
11
-4.77937
21
5.77878
0
LINE
8
BLACK
6
CONTINUOUS
10
-4.77937
20
5.77878
11
-4.77543
21
5.77821
0
LINE
8
BLACK
6
CONTINUOUS
10
-4.44982
20
5.78929
11
-4.44522
21
5.78695
0
LINE
8
BLACK
6
CONTINUOUS
10
-4.44522
20
5.78695
11
-4.44157
21
5.7833
0
LINE
8
BLACK
6
CONTINUOUS
10
-4.44157
20
5.7833
11
-4.43923
21
5.77871
0
LINE
8
BLACK
6
CONTINUOUS
10
-4.43923
20
5.77871
11
-4.43843
21
5.77361
0
LINE
8
BLACK
6
CONTINUOUS
10
-4.43843
20
5.77361
11
-4.43843
21
5.75639
0
LINE
8
BLACK
6
CONTINUOUS
10
-4.43843
20
5.75639
11
-4.43923
21
5.75129
0
LINE
8
BLACK
6
CONTINUOUS
10
-4.43923
20
5.75129
11
-4.44157
21
5.7467
0
LINE
8
BLACK
6
CONTINUOUS
10
-4.44157
20
5.7467
11
-4.44522
21
5.74305
0
LINE
8
BLACK
6
CONTINUOUS
10
-4.44522
20
5.74305
11
-4.44982
21
5.74071
0
LINE
8
BLACK
6
CONTINUOUS
10
-4.44982
20
5.74071
11
-4.45491
21
5.7399
0
LINE
8
BLACK
6
CONTINUOUS
10
-4.45491
20
5.7399
11
-4.47509
21
5.7399
0
LINE
8
BLACK
6
CONTINUOUS
10
-4.47509
20
5.7399
11
-4.48018
21
5.74071
0
LINE
8
BLACK
6
CONTINUOUS
10
-4.48018
20
5.74071
11
-4.48478
21
5.74305
0
LINE
8
BLACK
6
CONTINUOUS
10
-4.48478
20
5.74305
11
-4.48843
21
5.7467
0
LINE
8
BLACK
6
CONTINUOUS
10
-4.48843
20
5.7467
11
-4.49077
21
5.75129
0
LINE
8
BLACK
6
CONTINUOUS
10
-4.49077
20
5.75129
11
-4.49157
21
5.75639
0
LINE
8
BLACK
6
CONTINUOUS
10
-4.49157
20
5.75639
11
-4.49157
21
5.77361
0
LINE
8
BLACK
6
CONTINUOUS
10
-4.49157
20
5.77361
11
-4.49077
21
5.77871
0
LINE
8
BLACK
6
CONTINUOUS
10
-4.49077
20
5.77871
11
-4.48843
21
5.7833
0
LINE
8
BLACK
6
CONTINUOUS
10
-4.48843
20
5.7833
11
-4.48478
21
5.78695
0
LINE
8
BLACK
6
CONTINUOUS
10
-4.48478
20
5.78695
11
-4.48018
21
5.78929
0
LINE
8
BLACK
6
CONTINUOUS
10
-4.48018
20
5.78929
11
-4.47509
21
5.7901
0
LINE
8
BLACK
6
CONTINUOUS
10
-4.47509
20
5.7901
11
-4.45491
21
5.7901
0
LINE
8
BLACK
6
CONTINUOUS
10
-4.45491
20
5.7901
11
-4.44982
21
5.78929
0
LINE
8
BLACK
6
CONTINUOUS
10
-4.68321
20
5.77897
11
-4.68065
21
5.77726
0
LINE
8
BLACK
6
CONTINUOUS
10
-4.68065
20
5.77726
11
-4.67895
21
5.77471
0
LINE
8
BLACK
6
CONTINUOUS
10
-4.67895
20
5.77471
11
-4.67835
21
5.77169
0
LINE
8
BLACK
6
CONTINUOUS
10
-4.67835
20
5.77169
11
-4.67835
21
5.74807
0
LINE
8
BLACK
6
CONTINUOUS
10
-4.67835
20
5.74807
11
-4.67895
21
5.74506
0
LINE
8
BLACK
6
CONTINUOUS
10
-4.67895
20
5.74506
11
-4.68065
21
5.7425
0
LINE
8
BLACK
6
CONTINUOUS
10
-4.68065
20
5.7425
11
-4.68321
21
5.7408
0
LINE
8
BLACK
6
CONTINUOUS
10
-4.68321
20
5.7408
11
-4.68622
21
5.7402
0
LINE
8
BLACK
6
CONTINUOUS
10
-4.68622
20
5.7402
11
-4.71378
21
5.7402
0
LINE
8
BLACK
6
CONTINUOUS
10
-4.71378
20
5.7402
11
-4.71679
21
5.7408
0
LINE
8
BLACK
6
CONTINUOUS
10
-4.71679
20
5.7408
11
-4.71935
21
5.7425
0
LINE
8
BLACK
6
CONTINUOUS
10
-4.71935
20
5.7425
11
-4.72105
21
5.74506
0
LINE
8
BLACK
6
CONTINUOUS
10
-4.72105
20
5.74506
11
-4.72165
21
5.74807
0
LINE
8
BLACK
6
CONTINUOUS
10
-4.72165
20
5.74807
11
-4.72165
21
5.77169
0
LINE
8
BLACK
6
CONTINUOUS
10
-4.72165
20
5.77169
11
-4.72105
21
5.77471
0
LINE
8
BLACK
6
CONTINUOUS
10
-4.72105
20
5.77471
11
-4.71935
21
5.77726
0
LINE
8
BLACK
6
CONTINUOUS
10
-4.71935
20
5.77726
11
-4.71679
21
5.77897
0
LINE
8
BLACK
6
CONTINUOUS
10
-4.71679
20
5.77897
11
-4.71378
21
5.77957
0
LINE
8
BLACK
6
CONTINUOUS
10
-4.71378
20
5.77957
11
-4.68622
21
5.77957
0
LINE
8
BLACK
6
CONTINUOUS
10
-4.68622
20
5.77957
11
-4.68321
21
5.77897
0
LINE
8
BLACK
6
CONTINUOUS
10
-3.83158
20
5.80514
11
-3.82623
21
5.80354
0
LINE
8
BLACK
6
CONTINUOUS
10
-3.82623
20
5.80354
11
-3.82155
21
5.8005
0
LINE
8
BLACK
6
CONTINUOUS
10
-3.82155
20
5.8005
11
-3.8179
21
5.79627
0
LINE
8
BLACK
6
CONTINUOUS
10
-3.8179
20
5.79627
11
-3.81559
21
5.79119
0
LINE
8
BLACK
6
CONTINUOUS
10
-3.81559
20
5.79119
11
-3.8148
21
5.78567
0
LINE
8
BLACK
6
CONTINUOUS
10
-3.8148
20
5.78567
11
-3.81481
21
5.78519
0
LINE
8
BLACK
6
CONTINUOUS
10
-3.81481
20
5.78519
11
-3.81574
21
5.77968
0
LINE
8
BLACK
6
CONTINUOUS
10
-3.81574
20
5.77968
11
-3.81817
21
5.77466
0
LINE
8
BLACK
6
CONTINUOUS
10
-3.81817
20
5.77466
11
-3.82191
21
5.77052
0
LINE
8
BLACK
6
CONTINUOUS
10
-3.82191
20
5.77052
11
-3.82667
21
5.7676
0
LINE
8
BLACK
6
CONTINUOUS
10
-3.82667
20
5.7676
11
-3.83206
21
5.76614
0
LINE
8
BLACK
6
CONTINUOUS
10
-3.83206
20
5.76614
11
-3.83764
21
5.76624
0
LINE
8
BLACK
6
CONTINUOUS
10
-3.83764
20
5.76624
11
-3.84296
21
5.7679
0
LINE
8
BLACK
6
CONTINUOUS
10
-3.84296
20
5.7679
11
-3.84761
21
5.77099
0
LINE
8
BLACK
6
CONTINUOUS
10
-3.84761
20
5.77099
11
-3.8512
21
5.77527
0
LINE
8
BLACK
6
CONTINUOUS
10
-3.8512
20
5.77527
11
-3.85345
21
5.78038
0
LINE
8
BLACK
6
CONTINUOUS
10
-3.85345
20
5.78038
11
-3.85417
21
5.78591
0
LINE
8
BLACK
6
CONTINUOUS
10
-3.85417
20
5.78591
11
-3.85331
21
5.79142
0
LINE
8
BLACK
6
CONTINUOUS
10
-3.85331
20
5.79142
11
-3.85094
21
5.79648
0
LINE
8
BLACK
6
CONTINUOUS
10
-3.85094
20
5.79648
11
-3.84725
21
5.80066
0
LINE
8
BLACK
6
CONTINUOUS
10
-3.84725
20
5.80066
11
-3.84253
21
5.80364
0
LINE
8
BLACK
6
CONTINUOUS
10
-3.84253
20
5.80364
11
-3.83716
21
5.80517
0
LINE
8
BLACK
6
CONTINUOUS
10
-3.83716
20
5.80517
11
-3.83158
21
5.80514
0
LINE
8
BLACK
6
CONTINUOUS
10
-4.03237
20
5.80514
11
-4.02702
21
5.80354
0
LINE
8
BLACK
6
CONTINUOUS
10
-4.02702
20
5.80354
11
-4.02234
21
5.8005
0
LINE
8
BLACK
6
CONTINUOUS
10
-4.02234
20
5.8005
11
-4.01869
21
5.79627
0
LINE
8
BLACK
6
CONTINUOUS
10
-4.01869
20
5.79627
11
-4.01638
21
5.79119
0
LINE
8
BLACK
6
CONTINUOUS
10
-4.01638
20
5.79119
11
-4.01559
21
5.78567
0
LINE
8
BLACK
6
CONTINUOUS
10
-4.01559
20
5.78567
11
-4.0156
21
5.78519
0
LINE
8
BLACK
6
CONTINUOUS
10
-4.0156
20
5.78519
11
-4.01652
21
5.77968
0
LINE
8
BLACK
6
CONTINUOUS
10
-4.01652
20
5.77968
11
-4.01896
21
5.77466
0
LINE
8
BLACK
6
CONTINUOUS
10
-4.01896
20
5.77466
11
-4.0227
21
5.77052
0
LINE
8
BLACK
6
CONTINUOUS
10
-4.0227
20
5.77052
11
-4.02746
21
5.7676
0
LINE
8
BLACK
6
CONTINUOUS
10
-4.02746
20
5.7676
11
-4.03284
21
5.76614
0
LINE
8
BLACK
6
CONTINUOUS
10
-4.03284
20
5.76614
11
-4.03842
21
5.76624
0
LINE
8
BLACK
6
CONTINUOUS
10
-4.03842
20
5.76624
11
-4.04375
21
5.7679
0
LINE
8
BLACK
6
CONTINUOUS
10
-4.04375
20
5.7679
11
-4.0484
21
5.77099
0
LINE
8
BLACK
6
CONTINUOUS
10
-4.0484
20
5.77099
11
-4.05199
21
5.77527
0
LINE
8
BLACK
6
CONTINUOUS
10
-4.05199
20
5.77527
11
-4.05424
21
5.78038
0
LINE
8
BLACK
6
CONTINUOUS
10
-4.05424
20
5.78038
11
-4.05496
21
5.78591
0
LINE
8
BLACK
6
CONTINUOUS
10
-4.05496
20
5.78591
11
-4.0541
21
5.79142
0
LINE
8
BLACK
6
CONTINUOUS
10
-4.0541
20
5.79142
11
-4.05173
21
5.79648
0
LINE
8
BLACK
6
CONTINUOUS
10
-4.05173
20
5.79648
11
-4.04803
21
5.80066
0
LINE
8
BLACK
6
CONTINUOUS
10
-4.04803
20
5.80066
11
-4.04331
21
5.80364
0
LINE
8
BLACK
6
CONTINUOUS
10
-4.04331
20
5.80364
11
-4.03795
21
5.80517
0
LINE
8
BLACK
6
CONTINUOUS
10
-4.03795
20
5.80517
11
-4.03237
21
5.80514
0
LINE
8
BLACK
6
CONTINUOUS
10
-4.52982
20
5.81929
11
-4.52522
21
5.81695
0
LINE
8
BLACK
6
CONTINUOUS
10
-4.52522
20
5.81695
11
-4.52157
21
5.8133
0
LINE
8
BLACK
6
CONTINUOUS
10
-4.52157
20
5.8133
11
-4.51923
21
5.80871
0
LINE
8
BLACK
6
CONTINUOUS
10
-4.51923
20
5.80871
11
-4.51843
21
5.80361
0
LINE
8
BLACK
6
CONTINUOUS
10
-4.51843
20
5.80361
11
-4.51843
21
5.78639
0
LINE
8
BLACK
6
CONTINUOUS
10
-4.51843
20
5.78639
11
-4.51923
21
5.78129
0
LINE
8
BLACK
6
CONTINUOUS
10
-4.51923
20
5.78129
11
-4.52157
21
5.7767
0
LINE
8
BLACK
6
CONTINUOUS
10
-4.52157
20
5.7767
11
-4.52522
21
5.77305
0
LINE
8
BLACK
6
CONTINUOUS
10
-4.52522
20
5.77305
11
-4.52982
21
5.77071
0
LINE
8
BLACK
6
CONTINUOUS
10
-4.52982
20
5.77071
11
-4.53491
21
5.7699
0
LINE
8
BLACK
6
CONTINUOUS
10
-4.53491
20
5.7699
11
-4.55509
21
5.7699
0
LINE
8
BLACK
6
CONTINUOUS
10
-4.55509
20
5.7699
11
-4.56018
21
5.77071
0
LINE
8
BLACK
6
CONTINUOUS
10
-4.56018
20
5.77071
11
-4.56478
21
5.77305
0
LINE
8
BLACK
6
CONTINUOUS
10
-4.56478
20
5.77305
11
-4.56843
21
5.7767
0
LINE
8
BLACK
6
CONTINUOUS
10
-4.56843
20
5.7767
11
-4.57077
21
5.78129
0
LINE
8
BLACK
6
CONTINUOUS
10
-4.57077
20
5.78129
11
-4.57157
21
5.78639
0
LINE
8
BLACK
6
CONTINUOUS
10
-4.57157
20
5.78639
11
-4.57157
21
5.80361
0
LINE
8
BLACK
6
CONTINUOUS
10
-4.57157
20
5.80361
11
-4.57077
21
5.80871
0
LINE
8
BLACK
6
CONTINUOUS
10
-4.57077
20
5.80871
11
-4.56843
21
5.8133
0
LINE
8
BLACK
6
CONTINUOUS
10
-4.56843
20
5.8133
11
-4.56478
21
5.81695
0
LINE
8
BLACK
6
CONTINUOUS
10
-4.56478
20
5.81695
11
-4.56018
21
5.81929
0
LINE
8
BLACK
6
CONTINUOUS
10
-4.56018
20
5.81929
11
-4.55509
21
5.8201
0
LINE
8
BLACK
6
CONTINUOUS
10
-4.55509
20
5.8201
11
-4.53491
21
5.8201
0
LINE
8
BLACK
6
CONTINUOUS
10
-4.53491
20
5.8201
11
-4.52982
21
5.81929
0
LINE
8
BLACK
6
CONTINUOUS
10
-4.58449
20
5.83977
11
-4.58193
21
5.83807
0
LINE
8
BLACK
6
CONTINUOUS
10
-4.58193
20
5.83807
11
-4.58023
21
5.83551
0
LINE
8
BLACK
6
CONTINUOUS
10
-4.58023
20
5.83551
11
-4.57963
21
5.8325
0
LINE
8
BLACK
6
CONTINUOUS
10
-4.57963
20
5.8325
11
-4.57963
21
5.7975
0
LINE
8
BLACK
6
CONTINUOUS
10
-4.57963
20
5.7975
11
-4.58023
21
5.79449
0
LINE
8
BLACK
6
CONTINUOUS
10
-4.58023
20
5.79449
11
-4.58193
21
5.79193
0
LINE
8
BLACK
6
CONTINUOUS
10
-4.58193
20
5.79193
11
-4.58449
21
5.79023
0
LINE
8
BLACK
6
CONTINUOUS
10
-4.58449
20
5.79023
11
-4.5875
21
5.78963
0
LINE
8
BLACK
6
CONTINUOUS
10
-4.5875
20
5.78963
11
-4.6425
21
5.78963
0
LINE
8
BLACK
6
CONTINUOUS
10
-4.6425
20
5.78963
11
-4.64551
21
5.79023
0
LINE
8
BLACK
6
CONTINUOUS
10
-4.64551
20
5.79023
11
-4.64807
21
5.79193
0
LINE
8
BLACK
6
CONTINUOUS
10
-4.64807
20
5.79193
11
-4.64977
21
5.79449
0
LINE
8
BLACK
6
CONTINUOUS
10
-4.64977
20
5.79449
11
-4.65037
21
5.7975
0
LINE
8
BLACK
6
CONTINUOUS
10
-4.65037
20
5.7975
11
-4.65037
21
5.8325
0
LINE
8
BLACK
6
CONTINUOUS
10
-4.65037
20
5.8325
11
-4.64977
21
5.83551
0
LINE
8
BLACK
6
CONTINUOUS
10
-4.64977
20
5.83551
11
-4.64807
21
5.83807
0
LINE
8
BLACK
6
CONTINUOUS
10
-4.64807
20
5.83807
11
-4.64551
21
5.83977
0
LINE
8
BLACK
6
CONTINUOUS
10
-4.64551
20
5.83977
11
-4.6425
21
5.84037
0
LINE
8
BLACK
6
CONTINUOUS
10
-4.6425
20
5.84037
11
-4.5875
21
5.84037
0
LINE
8
BLACK
6
CONTINUOUS
10
-4.5875
20
5.84037
11
-4.58449
21
5.83977
0
LINE
8
BLACK
6
CONTINUOUS
10
-4.68321
20
5.83409
11
-4.68065
21
5.83238
0
LINE
8
BLACK
6
CONTINUOUS
10
-4.68065
20
5.83238
11
-4.67895
21
5.82982
0
LINE
8
BLACK
6
CONTINUOUS
10
-4.67895
20
5.82982
11
-4.67835
21
5.82681
0
LINE
8
BLACK
6
CONTINUOUS
10
-4.67835
20
5.82681
11
-4.67835
21
5.80319
0
LINE
8
BLACK
6
CONTINUOUS
10
-4.67835
20
5.80319
11
-4.67895
21
5.80018
0
LINE
8
BLACK
6
CONTINUOUS
10
-4.67895
20
5.80018
11
-4.68065
21
5.79762
0
LINE
8
BLACK
6
CONTINUOUS
10
-4.68065
20
5.79762
11
-4.68321
21
5.79591
0
LINE
8
BLACK
6
CONTINUOUS
10
-4.68321
20
5.79591
11
-4.68622
21
5.79531
0
LINE
8
BLACK
6
CONTINUOUS
10
-4.68622
20
5.79531
11
-4.71378
21
5.79531
0
LINE
8
BLACK
6
CONTINUOUS
10
-4.71378
20
5.79531
11
-4.71679
21
5.79591
0
LINE
8
BLACK
6
CONTINUOUS
10
-4.71679
20
5.79591
11
-4.71935
21
5.79762
0
LINE
8
BLACK
6
CONTINUOUS
10
-4.71935
20
5.79762
11
-4.72105
21
5.80018
0
LINE
8
BLACK
6
CONTINUOUS
10
-4.72105
20
5.80018
11
-4.72165
21
5.80319
0
LINE
8
BLACK
6
CONTINUOUS
10
-4.72165
20
5.80319
11
-4.72165
21
5.82681
0
LINE
8
BLACK
6
CONTINUOUS
10
-4.72165
20
5.82681
11
-4.72105
21
5.82982
0
LINE
8
BLACK
6
CONTINUOUS
10
-4.72105
20
5.82982
11
-4.71935
21
5.83238
0
LINE
8
BLACK
6
CONTINUOUS
10
-4.71935
20
5.83238
11
-4.71679
21
5.83409
0
LINE
8
BLACK
6
CONTINUOUS
10
-4.71679
20
5.83409
11
-4.71378
21
5.83469
0
LINE
8
BLACK
6
CONTINUOUS
10
-4.71378
20
5.83469
11
-4.68622
21
5.83469
0
LINE
8
BLACK
6
CONTINUOUS
10
-4.68622
20
5.83469
11
-4.68321
21
5.83409
0
LINE
8
BLACK
6
CONTINUOUS
10
-4.36482
20
5.84929
11
-4.36022
21
5.84695
0
LINE
8
BLACK
6
CONTINUOUS
10
-4.36022
20
5.84695
11
-4.35657
21
5.8433
0
LINE
8
BLACK
6
CONTINUOUS
10
-4.35657
20
5.8433
11
-4.35423
21
5.83871
0
LINE
8
BLACK
6
CONTINUOUS
10
-4.35423
20
5.83871
11
-4.35343
21
5.83361
0
LINE
8
BLACK
6
CONTINUOUS
10
-4.35343
20
5.83361
11
-4.35343
21
5.81639
0
LINE
8
BLACK
6
CONTINUOUS
10
-4.35343
20
5.81639
11
-4.35423
21
5.81129
0
LINE
8
BLACK
6
CONTINUOUS
10
-4.35423
20
5.81129
11
-4.35657
21
5.8067
0
LINE
8
BLACK
6
CONTINUOUS
10
-4.35657
20
5.8067
11
-4.36022
21
5.80305
0
LINE
8
BLACK
6
CONTINUOUS
10
-4.36022
20
5.80305
11
-4.36482
21
5.80071
0
LINE
8
BLACK
6
CONTINUOUS
10
-4.36482
20
5.80071
11
-4.36991
21
5.7999
0
LINE
8
BLACK
6
CONTINUOUS
10
-4.36991
20
5.7999
11
-4.39009
21
5.7999
0
LINE
8
BLACK
6
CONTINUOUS
10
-4.39009
20
5.7999
11
-4.39518
21
5.80071
0
LINE
8
BLACK
6
CONTINUOUS
10
-4.39518
20
5.80071
11
-4.39978
21
5.80305
0
LINE
8
BLACK
6
CONTINUOUS
10
-4.39978
20
5.80305
11
-4.40343
21
5.8067
0
LINE
8
BLACK
6
CONTINUOUS
10
-4.40343
20
5.8067
11
-4.40577
21
5.81129
0
LINE
8
BLACK
6
CONTINUOUS
10
-4.40577
20
5.81129
11
-4.40657
21
5.81639
0
LINE
8
BLACK
6
CONTINUOUS
10
-4.40657
20
5.81639
11
-4.40657
21
5.83361
0
LINE
8
BLACK
6
CONTINUOUS
10
-4.40657
20
5.83361
11
-4.40577
21
5.83871
0
LINE
8
BLACK
6
CONTINUOUS
10
-4.40577
20
5.83871
11
-4.40343
21
5.8433
0
LINE
8
BLACK
6
CONTINUOUS
10
-4.40343
20
5.8433
11
-4.39978
21
5.84695
0
LINE
8
BLACK
6
CONTINUOUS
10
-4.39978
20
5.84695
11
-4.39518
21
5.84929
0
LINE
8
BLACK
6
CONTINUOUS
10
-4.39518
20
5.84929
11
-4.39009
21
5.8501
0
LINE
8
BLACK
6
CONTINUOUS
10
-4.39009
20
5.8501
11
-4.36991
21
5.8501
0
LINE
8
BLACK
6
CONTINUOUS
10
-4.36991
20
5.8501
11
-4.36482
21
5.84929
0
LINE
8
BLACK
6
CONTINUOUS
10
-4.27482
20
5.8503
11
-4.27022
21
5.84795
0
LINE
8
BLACK
6
CONTINUOUS
10
-4.27022
20
5.84795
11
-4.26657
21
5.84431
0
LINE
8
BLACK
6
CONTINUOUS
10
-4.26657
20
5.84431
11
-4.26423
21
5.83971
0
LINE
8
BLACK
6
CONTINUOUS
10
-4.26423
20
5.83971
11
-4.26343
21
5.83462
0
LINE
8
BLACK
6
CONTINUOUS
10
-4.26343
20
5.83462
11
-4.26343
21
5.81739
0
LINE
8
BLACK
6
CONTINUOUS
10
-4.26343
20
5.81739
11
-4.26423
21
5.8123
0
LINE
8
BLACK
6
CONTINUOUS
10
-4.26423
20
5.8123
11
-4.26657
21
5.8077
0
LINE
8
BLACK
6
CONTINUOUS
10
-4.26657
20
5.8077
11
-4.27022
21
5.80405
0
LINE
8
BLACK
6
CONTINUOUS
10
-4.27022
20
5.80405
11
-4.27482
21
5.80171
0
LINE
8
BLACK
6
CONTINUOUS
10
-4.27482
20
5.80171
11
-4.27991
21
5.80091
0
LINE
8
BLACK
6
CONTINUOUS
10
-4.27991
20
5.80091
11
-4.30009
21
5.80091
0
LINE
8
BLACK
6
CONTINUOUS
10
-4.30009
20
5.80091
11
-4.30518
21
5.80171
0
LINE
8
BLACK
6
CONTINUOUS
10
-4.30518
20
5.80171
11
-4.30978
21
5.80405
0
LINE
8
BLACK
6
CONTINUOUS
10
-4.30978
20
5.80405
11
-4.31343
21
5.8077
0
LINE
8
BLACK
6
CONTINUOUS
10
-4.31343
20
5.8077
11
-4.31577
21
5.8123
0
LINE
8
BLACK
6
CONTINUOUS
10
-4.31577
20
5.8123
11
-4.31657
21
5.81739
0
LINE
8
BLACK
6
CONTINUOUS
10
-4.31657
20
5.81739
11
-4.31657
21
5.83462
0
LINE
8
BLACK
6
CONTINUOUS
10
-4.31657
20
5.83462
11
-4.31577
21
5.83971
0
LINE
8
BLACK
6
CONTINUOUS
10
-4.31577
20
5.83971
11
-4.31343
21
5.84431
0
LINE
8
BLACK
6
CONTINUOUS
10
-4.31343
20
5.84431
11
-4.30978
21
5.84795
0
LINE
8
BLACK
6
CONTINUOUS
10
-4.30978
20
5.84795
11
-4.30518
21
5.8503
0
LINE
8
BLACK
6
CONTINUOUS
10
-4.30518
20
5.8503
11
-4.30009
21
5.8511
0
LINE
8
BLACK
6
CONTINUOUS
10
-4.30009
20
5.8511
11
-4.27991
21
5.8511
0
LINE
8
BLACK
6
CONTINUOUS
10
-4.27991
20
5.8511
11
-4.27482
21
5.8503
0
LINE
8
BLACK
6
CONTINUOUS
10
-4.44982
20
5.8513
11
-4.44522
21
5.84896
0
LINE
8
BLACK
6
CONTINUOUS
10
-4.44522
20
5.84896
11
-4.44157
21
5.84531
0
LINE
8
BLACK
6
CONTINUOUS
10
-4.44157
20
5.84531
11
-4.43923
21
5.84071
0
LINE
8
BLACK
6
CONTINUOUS
10
-4.43923
20
5.84071
11
-4.43843
21
5.83562
0
LINE
8
BLACK
6
CONTINUOUS
10
-4.43843
20
5.83562
11
-4.43843
21
5.8184
0
LINE
8
BLACK
6
CONTINUOUS
10
-4.43843
20
5.8184
11
-4.43923
21
5.8133
0
LINE
8
BLACK
6
CONTINUOUS
10
-4.43923
20
5.8133
11
-4.44157
21
5.80871
0
LINE
8
BLACK
6
CONTINUOUS
10
-4.44157
20
5.80871
11
-4.44522
21
5.80506
0
LINE
8
BLACK
6
CONTINUOUS
10
-4.44522
20
5.80506
11
-4.44982
21
5.80272
0
LINE
8
BLACK
6
CONTINUOUS
10
-4.44982
20
5.80272
11
-4.45491
21
5.80191
0
LINE
8
BLACK
6
CONTINUOUS
10
-4.45491
20
5.80191
11
-4.47509
21
5.80191
0
LINE
8
BLACK
6
CONTINUOUS
10
-4.47509
20
5.80191
11
-4.48018
21
5.80272
0
LINE
8
BLACK
6
CONTINUOUS
10
-4.48018
20
5.80272
11
-4.48478
21
5.80506
0
LINE
8
BLACK
6
CONTINUOUS
10
-4.48478
20
5.80506
11
-4.48843
21
5.80871
0
LINE
8
BLACK
6
CONTINUOUS
10
-4.48843
20
5.80871
11
-4.49077
21
5.8133
0
LINE
8
BLACK
6
CONTINUOUS
10
-4.49077
20
5.8133
11
-4.49157
21
5.8184
0
LINE
8
BLACK
6
CONTINUOUS
10
-4.49157
20
5.8184
11
-4.49157
21
5.83562
0
LINE
8
BLACK
6
CONTINUOUS
10
-4.49157
20
5.83562
11
-4.49077
21
5.84071
0
LINE
8
BLACK
6
CONTINUOUS
10
-4.49077
20
5.84071
11
-4.48843
21
5.84531
0
LINE
8
BLACK
6
CONTINUOUS
10
-4.48843
20
5.84531
11
-4.48478
21
5.84896
0
LINE
8
BLACK
6
CONTINUOUS
10
-4.48478
20
5.84896
11
-4.48018
21
5.8513
0
LINE
8
BLACK
6
CONTINUOUS
10
-4.48018
20
5.8513
11
-4.47509
21
5.85211
0
LINE
8
BLACK
6
CONTINUOUS
10
-4.47509
20
5.85211
11
-4.45491
21
5.85211
0
LINE
8
BLACK
6
CONTINUOUS
10
-4.45491
20
5.85211
11
-4.44982
21
5.8513
0
LINE
8
BLACK
6
CONTINUOUS
10
-4.88629
20
5.85917
11
-4.88132
21
5.85743
0
LINE
8
BLACK
6
CONTINUOUS
10
-4.88132
20
5.85743
11
-4.87708
21
5.8543
0
LINE
8
BLACK
6
CONTINUOUS
10
-4.87708
20
5.8543
11
-4.87395
21
5.85006
0
LINE
8
BLACK
6
CONTINUOUS
10
-4.87395
20
5.85006
11
-4.8722
21
5.84509
0
LINE
8
BLACK
6
CONTINUOUS
10
-4.8722
20
5.84509
11
-4.87189
21
5.84177
0
LINE
8
BLACK
6
CONTINUOUS
10
-4.87189
20
5.84177
11
-4.87189
21
5.82209
0
LINE
8
BLACK
6
CONTINUOUS
10
-4.87189
20
5.82209
11
-4.8722
21
5.81877
0
LINE
8
BLACK
6
CONTINUOUS
10
-4.8722
20
5.81877
11
-4.87395
21
5.8138
0
LINE
8
BLACK
6
CONTINUOUS
10
-4.87395
20
5.8138
11
-4.87708
21
5.80956
0
LINE
8
BLACK
6
CONTINUOUS
10
-4.87708
20
5.80956
11
-4.88132
21
5.80643
0
LINE
8
BLACK
6
CONTINUOUS
10
-4.88132
20
5.80643
11
-4.88629
21
5.80468
0
LINE
8
BLACK
6
CONTINUOUS
10
-4.88629
20
5.80468
11
-4.88961
21
5.80437
0
LINE
8
BLACK
6
CONTINUOUS
10
-4.88961
20
5.80437
11
-4.97622
21
5.80437
0
LINE
8
BLACK
6
CONTINUOUS
10
-4.97622
20
5.80437
11
-4.97954
21
5.80468
0
LINE
8
BLACK
6
CONTINUOUS
10
-4.97954
20
5.80468
11
-4.98451
21
5.80643
0
LINE
8
BLACK
6
CONTINUOUS
10
-4.98451
20
5.80643
11
-4.98875
21
5.80956
0
LINE
8
BLACK
6
CONTINUOUS
10
-4.98875
20
5.80956
11
-4.99188
21
5.8138
0
LINE
8
BLACK
6
CONTINUOUS
10
-4.99188
20
5.8138
11
-4.99362
21
5.81877
0
LINE
8
BLACK
6
CONTINUOUS
10
-4.99362
20
5.81877
11
-4.99394
21
5.82209
0
LINE
8
BLACK
6
CONTINUOUS
10
-4.99394
20
5.82209
11
-4.99394
21
5.84177
0
LINE
8
BLACK
6
CONTINUOUS
10
-4.99394
20
5.84177
11
-4.99362
21
5.84509
0
LINE
8
BLACK
6
CONTINUOUS
10
-4.99362
20
5.84509
11
-4.99188
21
5.85006
0
LINE
8
BLACK
6
CONTINUOUS
10
-4.99188
20
5.85006
11
-4.98875
21
5.8543
0
LINE
8
BLACK
6
CONTINUOUS
10
-4.98875
20
5.8543
11
-4.98451
21
5.85743
0
LINE
8
BLACK
6
CONTINUOUS
10
-4.98451
20
5.85743
11
-4.97954
21
5.85917
0
LINE
8
BLACK
6
CONTINUOUS
10
-4.97954
20
5.85917
11
-4.97622
21
5.85949
0
LINE
8
BLACK
6
CONTINUOUS
10
-4.97622
20
5.85949
11
-4.88961
21
5.85949
0
LINE
8
BLACK
6
CONTINUOUS
10
-4.88961
20
5.85949
11
-4.88629
21
5.85917
0
LINE
8
BLACK
6
CONTINUOUS
10
-3.89033
20
5.87222
11
-3.88573
21
5.86988
0
LINE
8
BLACK
6
CONTINUOUS
10
-3.88573
20
5.86988
11
-3.88209
21
5.86624
0
LINE
8
BLACK
6
CONTINUOUS
10
-3.88209
20
5.86624
11
-3.87974
21
5.86164
0
LINE
8
BLACK
6
CONTINUOUS
10
-3.87974
20
5.86164
11
-3.87894
21
5.85655
0
LINE
8
BLACK
6
CONTINUOUS
10
-3.87894
20
5.85655
11
-3.87894
21
5.83637
0
LINE
8
BLACK
6
CONTINUOUS
10
-3.87894
20
5.83637
11
-3.87974
21
5.83127
0
LINE
8
BLACK
6
CONTINUOUS
10
-3.87974
20
5.83127
11
-3.88209
21
5.82668
0
LINE
8
BLACK
6
CONTINUOUS
10
-3.88209
20
5.82668
11
-3.88573
21
5.82303
0
LINE
8
BLACK
6
CONTINUOUS
10
-3.88573
20
5.82303
11
-3.89033
21
5.82069
0
LINE
8
BLACK
6
CONTINUOUS
10
-3.89033
20
5.82069
11
-3.89542
21
5.81988
0
LINE
8
BLACK
6
CONTINUOUS
10
-3.89542
20
5.81988
11
-3.91265
21
5.81988
0
LINE
8
BLACK
6
CONTINUOUS
10
-3.91265
20
5.81988
11
-3.91774
21
5.82069
0
LINE
8
BLACK
6
CONTINUOUS
10
-3.91774
20
5.82069
11
-3.92234
21
5.82303
0
LINE
8
BLACK
6
CONTINUOUS
10
-3.92234
20
5.82303
11
-3.92599
21
5.82668
0
LINE
8
BLACK
6
CONTINUOUS
10
-3.92599
20
5.82668
11
-3.92833
21
5.83127
0
LINE
8
BLACK
6
CONTINUOUS
10
-3.92833
20
5.83127
11
-3.92913
21
5.83637
0
LINE
8
BLACK
6
CONTINUOUS
10
-3.92913
20
5.83637
11
-3.92913
21
5.85655
0
LINE
8
BLACK
6
CONTINUOUS
10
-3.92913
20
5.85655
11
-3.92833
21
5.86164
0
LINE
8
BLACK
6
CONTINUOUS
10
-3.92833
20
5.86164
11
-3.92599
21
5.86624
0
LINE
8
BLACK
6
CONTINUOUS
10
-3.92599
20
5.86624
11
-3.92234
21
5.86988
0
LINE
8
BLACK
6
CONTINUOUS
10
-3.92234
20
5.86988
11
-3.91774
21
5.87222
0
LINE
8
BLACK
6
CONTINUOUS
10
-3.91774
20
5.87222
11
-3.91265
21
5.87303
0
LINE
8
BLACK
6
CONTINUOUS
10
-3.91265
20
5.87303
11
-3.89542
21
5.87303
0
LINE
8
BLACK
6
CONTINUOUS
10
-3.89542
20
5.87303
11
-3.89033
21
5.87222
0
LINE
8
BLACK
6
CONTINUOUS
10
-3.95234
20
5.87222
11
-3.94774
21
5.86988
0
LINE
8
BLACK
6
CONTINUOUS
10
-3.94774
20
5.86988
11
-3.94409
21
5.86624
0
LINE
8
BLACK
6
CONTINUOUS
10
-3.94409
20
5.86624
11
-3.94175
21
5.86164
0
LINE
8
BLACK
6
CONTINUOUS
10
-3.94175
20
5.86164
11
-3.94094
21
5.85655
0
LINE
8
BLACK
6
CONTINUOUS
10
-3.94094
20
5.85655
11
-3.94094
21
5.83637
0
LINE
8
BLACK
6
CONTINUOUS
10
-3.94094
20
5.83637
11
-3.94175
21
5.83127
0
LINE
8
BLACK
6
CONTINUOUS
10
-3.94175
20
5.83127
11
-3.94409
21
5.82668
0
LINE
8
BLACK
6
CONTINUOUS
10
-3.94409
20
5.82668
11
-3.94774
21
5.82303
0
LINE
8
BLACK
6
CONTINUOUS
10
-3.94774
20
5.82303
11
-3.95234
21
5.82069
0
LINE
8
BLACK
6
CONTINUOUS
10
-3.95234
20
5.82069
11
-3.95743
21
5.81988
0
LINE
8
BLACK
6
CONTINUOUS
10
-3.95743
20
5.81988
11
-3.97466
21
5.81988
0
LINE
8
BLACK
6
CONTINUOUS
10
-3.97466
20
5.81988
11
-3.97975
21
5.82069
0
LINE
8
BLACK
6
CONTINUOUS
10
-3.97975
20
5.82069
11
-3.98435
21
5.82303
0
LINE
8
BLACK
6
CONTINUOUS
10
-3.98435
20
5.82303
11
-3.98799
21
5.82668
0
LINE
8
BLACK
6
CONTINUOUS
10
-3.98799
20
5.82668
11
-3.99033
21
5.83127
0
LINE
8
BLACK
6
CONTINUOUS
10
-3.99033
20
5.83127
11
-3.99114
21
5.83637
0
LINE
8
BLACK
6
CONTINUOUS
10
-3.99114
20
5.83637
11
-3.99114
21
5.85655
0
LINE
8
BLACK
6
CONTINUOUS
10
-3.99114
20
5.85655
11
-3.99033
21
5.86164
0
LINE
8
BLACK
6
CONTINUOUS
10
-3.99033
20
5.86164
11
-3.98799
21
5.86624
0
LINE
8
BLACK
6
CONTINUOUS
10
-3.98799
20
5.86624
11
-3.98435
21
5.86988
0
LINE
8
BLACK
6
CONTINUOUS
10
-3.98435
20
5.86988
11
-3.97975
21
5.87222
0
LINE
8
BLACK
6
CONTINUOUS
10
-3.97975
20
5.87222
11
-3.97466
21
5.87303
0
LINE
8
BLACK
6
CONTINUOUS
10
-3.97466
20
5.87303
11
-3.95743
21
5.87303
0
LINE
8
BLACK
6
CONTINUOUS
10
-3.95743
20
5.87303
11
-3.95234
21
5.87222
0
LINE
8
BLACK
6
CONTINUOUS
10
-4.05689
20
5.90101
11
-4.04955
21
5.89873
0
LINE
8
BLACK
6
CONTINUOUS
10
-4.04955
20
5.89873
11
-4.04279
21
5.89508
0
LINE
8
BLACK
6
CONTINUOUS
10
-4.04279
20
5.89508
11
-4.03687
21
5.89018
0
LINE
8
BLACK
6
CONTINUOUS
10
-4.03687
20
5.89018
11
-4.03201
21
5.88423
0
LINE
8
BLACK
6
CONTINUOUS
10
-4.03201
20
5.88423
11
-4.0284
21
5.87744
0
LINE
8
BLACK
6
CONTINUOUS
10
-4.0284
20
5.87744
11
-4.02618
21
5.87009
0
LINE
8
BLACK
6
CONTINUOUS
10
-4.02618
20
5.87009
11
-4.02543
21
5.86244
0
LINE
8
BLACK
6
CONTINUOUS
10
-4.02543
20
5.86244
11
-4.02545
21
5.86134
0
LINE
8
BLACK
6
CONTINUOUS
10
-4.02545
20
5.86134
11
-4.02641
21
5.85372
0
LINE
8
BLACK
6
CONTINUOUS
10
-4.02641
20
5.85372
11
-4.02884
21
5.84643
0
LINE
8
BLACK
6
CONTINUOUS
10
-4.02884
20
5.84643
11
-4.03263
21
5.83975
0
LINE
8
BLACK
6
CONTINUOUS
10
-4.03263
20
5.83975
11
-4.03765
21
5.83393
0
LINE
8
BLACK
6
CONTINUOUS
10
-4.03765
20
5.83393
11
-4.04371
21
5.8292
0
LINE
8
BLACK
6
CONTINUOUS
10
-4.04371
20
5.8292
11
-4.05057
21
5.82574
0
LINE
8
BLACK
6
CONTINUOUS
10
-4.05057
20
5.82574
11
-4.05797
21
5.82367
0
LINE
8
BLACK
6
CONTINUOUS
10
-4.05797
20
5.82367
11
-4.06563
21
5.82308
0
LINE
8
BLACK
6
CONTINUOUS
10
-4.06563
20
5.82308
11
-4.07326
21
5.82399
0
LINE
8
BLACK
6
CONTINUOUS
10
-4.07326
20
5.82399
11
-4.08056
21
5.82636
0
LINE
8
BLACK
6
CONTINUOUS
10
-4.08056
20
5.82636
11
-4.08727
21
5.83011
0
LINE
8
BLACK
6
CONTINUOUS
10
-4.08727
20
5.83011
11
-4.09312
21
5.83509
0
LINE
8
BLACK
6
CONTINUOUS
10
-4.09312
20
5.83509
11
-4.0979
21
5.84111
0
LINE
8
BLACK
6
CONTINUOUS
10
-4.0979
20
5.84111
11
-4.10141
21
5.84795
0
LINE
8
BLACK
6
CONTINUOUS
10
-4.10141
20
5.84795
11
-4.10353
21
5.85533
0
LINE
8
BLACK
6
CONTINUOUS
10
-4.10353
20
5.85533
11
-4.10417
21
5.86299
0
LINE
8
BLACK
6
CONTINUOUS
10
-4.10417
20
5.86299
11
-4.10331
21
5.87063
0
LINE
8
BLACK
6
CONTINUOUS
10
-4.10331
20
5.87063
11
-4.10099
21
5.87795
0
LINE
8
BLACK
6
CONTINUOUS
10
-4.10099
20
5.87795
11
-4.09729
21
5.88468
0
LINE
8
BLACK
6
CONTINUOUS
10
-4.09729
20
5.88468
11
-4.09235
21
5.89057
0
LINE
8
BLACK
6
CONTINUOUS
10
-4.09235
20
5.89057
11
-4.08636
21
5.89538
0
LINE
8
BLACK
6
CONTINUOUS
10
-4.08636
20
5.89538
11
-4.07955
21
5.89894
0
LINE
8
BLACK
6
CONTINUOUS
10
-4.07955
20
5.89894
11
-4.07218
21
5.90111
0
LINE
8
BLACK
6
CONTINUOUS
10
-4.07218
20
5.90111
11
-4.06453
21
5.90181
0
LINE
8
BLACK
6
CONTINUOUS
10
-4.06453
20
5.90181
11
-4.05689
21
5.90101
0
LINE
8
BLACK
6
CONTINUOUS
10
-4.64612
20
5.95415
11
-4.63718
21
5.95176
0
LINE
8
BLACK
6
CONTINUOUS
10
-4.63718
20
5.95176
11
-4.62878
21
5.94784
0
LINE
8
BLACK
6
CONTINUOUS
10
-4.62878
20
5.94784
11
-4.62119
21
5.94253
0
LINE
8
BLACK
6
CONTINUOUS
10
-4.62119
20
5.94253
11
-4.61464
21
5.93597
0
LINE
8
BLACK
6
CONTINUOUS
10
-4.61464
20
5.93597
11
-4.60933
21
5.92839
0
LINE
8
BLACK
6
CONTINUOUS
10
-4.60933
20
5.92839
11
-4.60541
21
5.91999
0
LINE
8
BLACK
6
CONTINUOUS
10
-4.60541
20
5.91999
11
-4.60301
21
5.91104
0
LINE
8
BLACK
6
CONTINUOUS
10
-4.60301
20
5.91104
11
-4.6022
21
5.90181
0
LINE
8
BLACK
6
CONTINUOUS
10
-4.6022
20
5.90181
11
-4.60301
21
5.89258
0
LINE
8
BLACK
6
CONTINUOUS
10
-4.60301
20
5.89258
11
-4.60541
21
5.88363
0
LINE
8
BLACK
6
CONTINUOUS
10
-4.60541
20
5.88363
11
-4.60933
21
5.87524
0
LINE
8
BLACK
6
CONTINUOUS
10
-4.60933
20
5.87524
11
-4.61464
21
5.86765
0
LINE
8
BLACK
6
CONTINUOUS
10
-4.61464
20
5.86765
11
-4.62119
21
5.8611
0
LINE
8
BLACK
6
CONTINUOUS
10
-4.62119
20
5.8611
11
-4.62878
21
5.85578
0
LINE
8
BLACK
6
CONTINUOUS
10
-4.62878
20
5.85578
11
-4.63718
21
5.85187
0
LINE
8
BLACK
6
CONTINUOUS
10
-4.63718
20
5.85187
11
-4.64612
21
5.84947
0
LINE
8
BLACK
6
CONTINUOUS
10
-4.64612
20
5.84947
11
-4.65535
21
5.84866
0
LINE
8
BLACK
6
CONTINUOUS
10
-4.65535
20
5.84866
11
-4.66458
21
5.84947
0
LINE
8
BLACK
6
CONTINUOUS
10
-4.66458
20
5.84947
11
-4.67353
21
5.85187
0
LINE
8
BLACK
6
CONTINUOUS
10
-4.67353
20
5.85187
11
-4.68193
21
5.85578
0
LINE
8
BLACK
6
CONTINUOUS
10
-4.68193
20
5.85578
11
-4.68952
21
5.8611
0
LINE
8
BLACK
6
CONTINUOUS
10
-4.68952
20
5.8611
11
-4.69607
21
5.86765
0
LINE
8
BLACK
6
CONTINUOUS
10
-4.69607
20
5.86765
11
-4.70138
21
5.87524
0
LINE
8
BLACK
6
CONTINUOUS
10
-4.70138
20
5.87524
11
-4.7053
21
5.88363
0
LINE
8
BLACK
6
CONTINUOUS
10
-4.7053
20
5.88363
11
-4.7077
21
5.89258
0
LINE
8
BLACK
6
CONTINUOUS
10
-4.7077
20
5.89258
11
-4.7085
21
5.90181
0
LINE
8
BLACK
6
CONTINUOUS
10
-4.7085
20
5.90181
11
-4.7077
21
5.91104
0
LINE
8
BLACK
6
CONTINUOUS
10
-4.7077
20
5.91104
11
-4.7053
21
5.91999
0
LINE
8
BLACK
6
CONTINUOUS
10
-4.7053
20
5.91999
11
-4.70138
21
5.92839
0
LINE
8
BLACK
6
CONTINUOUS
10
-4.70138
20
5.92839
11
-4.69607
21
5.93597
0
LINE
8
BLACK
6
CONTINUOUS
10
-4.69607
20
5.93597
11
-4.68952
21
5.94253
0
LINE
8
BLACK
6
CONTINUOUS
10
-4.68952
20
5.94253
11
-4.68193
21
5.94784
0
LINE
8
BLACK
6
CONTINUOUS
10
-4.68193
20
5.94784
11
-4.67353
21
5.95176
0
LINE
8
BLACK
6
CONTINUOUS
10
-4.67353
20
5.95176
11
-4.66458
21
5.95415
0
LINE
8
BLACK
6
CONTINUOUS
10
-4.66458
20
5.95415
11
-4.65535
21
5.95496
0
LINE
8
BLACK
6
CONTINUOUS
10
-4.65535
20
5.95496
11
-4.64612
21
5.95415
0
LINE
8
BLACK
6
CONTINUOUS
10
-4.55195
20
5.93861
11
-4.54939
21
5.93691
0
LINE
8
BLACK
6
CONTINUOUS
10
-4.54939
20
5.93691
11
-4.54769
21
5.93435
0
LINE
8
BLACK
6
CONTINUOUS
10
-4.54769
20
5.93435
11
-4.54709
21
5.93134
0
LINE
8
BLACK
6
CONTINUOUS
10
-4.54709
20
5.93134
11
-4.54709
21
5.87228
0
LINE
8
BLACK
6
CONTINUOUS
10
-4.54709
20
5.87228
11
-4.54769
21
5.86927
0
LINE
8
BLACK
6
CONTINUOUS
10
-4.54769
20
5.86927
11
-4.54939
21
5.86672
0
LINE
8
BLACK
6
CONTINUOUS
10
-4.54939
20
5.86672
11
-4.55195
21
5.86501
0
LINE
8
BLACK
6
CONTINUOUS
10
-4.55195
20
5.86501
11
-4.55496
21
5.86441
0
LINE
8
BLACK
6
CONTINUOUS
10
-4.55496
20
5.86441
11
-4.59236
21
5.86441
0
LINE
8
BLACK
6
CONTINUOUS
10
-4.59236
20
5.86441
11
-4.59538
21
5.86501
0
LINE
8
BLACK
6
CONTINUOUS
10
-4.59538
20
5.86501
11
-4.59793
21
5.86672
0
LINE
8
BLACK
6
CONTINUOUS
10
-4.59793
20
5.86672
11
-4.59964
21
5.86927
0
LINE
8
BLACK
6
CONTINUOUS
10
-4.59964
20
5.86927
11
-4.60024
21
5.87228
0
LINE
8
BLACK
6
CONTINUOUS
10
-4.60024
20
5.87228
11
-4.60024
21
5.93134
0
LINE
8
BLACK
6
CONTINUOUS
10
-4.60024
20
5.93134
11
-4.59964
21
5.93435
0
LINE
8
BLACK
6
CONTINUOUS
10
-4.59964
20
5.93435
11
-4.59793
21
5.93691
0
LINE
8
BLACK
6
CONTINUOUS
10
-4.59793
20
5.93691
11
-4.59538
21
5.93861
0
LINE
8
BLACK
6
CONTINUOUS
10
-4.59538
20
5.93861
11
-4.59236
21
5.93921
0
LINE
8
BLACK
6
CONTINUOUS
10
-4.59236
20
5.93921
11
-4.55496
21
5.93921
0
LINE
8
BLACK
6
CONTINUOUS
10
-4.55496
20
5.93921
11
-4.55195
21
5.93861
0
LINE
8
BLACK
6
CONTINUOUS
10
-4.71533
20
5.93861
11
-4.71278
21
5.93691
0
LINE
8
BLACK
6
CONTINUOUS
10
-4.71278
20
5.93691
11
-4.71107
21
5.93435
0
LINE
8
BLACK
6
CONTINUOUS
10
-4.71107
20
5.93435
11
-4.71047
21
5.93134
0
LINE
8
BLACK
6
CONTINUOUS
10
-4.71047
20
5.93134
11
-4.71047
21
5.87228
0
LINE
8
BLACK
6
CONTINUOUS
10
-4.71047
20
5.87228
11
-4.71107
21
5.86927
0
LINE
8
BLACK
6
CONTINUOUS
10
-4.71107
20
5.86927
11
-4.71278
21
5.86672
0
LINE
8
BLACK
6
CONTINUOUS
10
-4.71278
20
5.86672
11
-4.71533
21
5.86501
0
LINE
8
BLACK
6
CONTINUOUS
10
-4.71533
20
5.86501
11
-4.71835
21
5.86441
0
LINE
8
BLACK
6
CONTINUOUS
10
-4.71835
20
5.86441
11
-4.75575
21
5.86441
0
LINE
8
BLACK
6
CONTINUOUS
10
-4.75575
20
5.86441
11
-4.75876
21
5.86501
0
LINE
8
BLACK
6
CONTINUOUS
10
-4.75876
20
5.86501
11
-4.76132
21
5.86672
0
LINE
8
BLACK
6
CONTINUOUS
10
-4.76132
20
5.86672
11
-4.76302
21
5.86927
0
LINE
8
BLACK
6
CONTINUOUS
10
-4.76302
20
5.86927
11
-4.76362
21
5.87228
0
LINE
8
BLACK
6
CONTINUOUS
10
-4.76362
20
5.87228
11
-4.76362
21
5.93134
0
LINE
8
BLACK
6
CONTINUOUS
10
-4.76362
20
5.93134
11
-4.76302
21
5.93435
0
LINE
8
BLACK
6
CONTINUOUS
10
-4.76302
20
5.93435
11
-4.76132
21
5.93691
0
LINE
8
BLACK
6
CONTINUOUS
10
-4.76132
20
5.93691
11
-4.75876
21
5.93861
0
LINE
8
BLACK
6
CONTINUOUS
10
-4.75876
20
5.93861
11
-4.75575
21
5.93921
0
LINE
8
BLACK
6
CONTINUOUS
10
-4.75575
20
5.93921
11
-4.71835
21
5.93921
0
LINE
8
BLACK
6
CONTINUOUS
10
-4.71835
20
5.93921
11
-4.71533
21
5.93861
0
LINE
8
BLACK
6
CONTINUOUS
10
-4.09862
20
6.03934
11
-4.08909
21
6.03765
0
LINE
8
BLACK
6
CONTINUOUS
10
-4.08909
20
6.03765
11
-4.07997
21
6.03442
0
LINE
8
BLACK
6
CONTINUOUS
10
-4.07997
20
6.03442
11
-4.07149
21
6.02974
0
LINE
8
BLACK
6
CONTINUOUS
10
-4.07149
20
6.02974
11
-4.0639
21
6.02374
0
LINE
8
BLACK
6
CONTINUOUS
10
-4.0639
20
6.02374
11
-4.05738
21
6.01658
0
LINE
8
BLACK
6
CONTINUOUS
10
-4.05738
20
6.01658
11
-4.05213
21
6.00846
0
LINE
8
BLACK
6
CONTINUOUS
10
-4.05213
20
6.00846
11
-4.04827
21
5.99958
0
LINE
8
BLACK
6
CONTINUOUS
10
-4.04827
20
5.99958
11
-4.04591
21
5.9902
0
LINE
8
BLACK
6
CONTINUOUS
10
-4.04591
20
5.9902
11
-4.04512
21
5.98055
0
LINE
8
BLACK
6
CONTINUOUS
10
-4.04512
20
5.98055
11
-4.04519
21
5.97767
0
LINE
8
BLACK
6
CONTINUOUS
10
-4.04519
20
5.97767
11
-4.04645
21
5.96807
0
LINE
8
BLACK
6
CONTINUOUS
10
-4.04645
20
5.96807
11
-4.04927
21
5.95881
0
LINE
8
BLACK
6
CONTINUOUS
10
-4.04927
20
5.95881
11
-4.05355
21
5.95014
0
LINE
8
BLACK
6
CONTINUOUS
10
-4.05355
20
5.95014
11
-4.0592
21
5.94228
0
LINE
8
BLACK
6
CONTINUOUS
10
-4.0592
20
5.94228
11
-4.06606
21
5.93545
0
LINE
8
BLACK
6
CONTINUOUS
10
-4.06606
20
5.93545
11
-4.07393
21
5.92983
0
LINE
8
BLACK
6
CONTINUOUS
10
-4.07393
20
5.92983
11
-4.08263
21
5.92557
0
LINE
8
BLACK
6
CONTINUOUS
10
-4.08263
20
5.92557
11
-4.09189
21
5.92279
0
LINE
8
BLACK
6
CONTINUOUS
10
-4.09189
20
5.92279
11
-4.10149
21
5.92156
0
LINE
8
BLACK
6
CONTINUOUS
10
-4.10149
20
5.92156
11
-4.11117
21
5.92191
0
LINE
8
BLACK
6
CONTINUOUS
10
-4.11117
20
5.92191
11
-4.12065
21
5.92384
0
LINE
8
BLACK
6
CONTINUOUS
10
-4.12065
20
5.92384
11
-4.12969
21
5.92729
0
LINE
8
BLACK
6
CONTINUOUS
10
-4.12969
20
5.92729
11
-4.13805
21
5.93218
0
LINE
8
BLACK
6
CONTINUOUS
10
-4.13805
20
5.93218
11
-4.14549
21
5.93836
0
LINE
8
BLACK
6
CONTINUOUS
10
-4.14549
20
5.93836
11
-4.15183
21
5.94567
0
LINE
8
BLACK
6
CONTINUOUS
10
-4.15183
20
5.94567
11
-4.15688
21
5.95392
0
LINE
8
BLACK
6
CONTINUOUS
10
-4.15688
20
5.95392
11
-4.16053
21
5.96289
0
LINE
8
BLACK
6
CONTINUOUS
10
-4.16053
20
5.96289
11
-4.16265
21
5.97233
0
LINE
8
BLACK
6
CONTINUOUS
10
-4.16265
20
5.97233
11
-4.16321
21
5.98199
0
LINE
8
BLACK
6
CONTINUOUS
10
-4.16321
20
5.98199
11
-4.16218
21
5.99162
0
LINE
8
BLACK
6
CONTINUOUS
10
-4.16218
20
5.99162
11
-4.1596
21
6.00094
0
LINE
8
BLACK
6
CONTINUOUS
10
-4.1596
20
6.00094
11
-4.15552
21
6.00972
0
LINE
8
BLACK
6
CONTINUOUS
10
-4.15552
20
6.00972
11
-4.15007
21
6.01772
0
LINE
8
BLACK
6
CONTINUOUS
10
-4.15007
20
6.01772
11
-4.14338
21
6.02471
0
LINE
8
BLACK
6
CONTINUOUS
10
-4.14338
20
6.02471
11
-4.13564
21
6.03052
0
LINE
8
BLACK
6
CONTINUOUS
10
-4.13564
20
6.03052
11
-4.12706
21
6.03499
0
LINE
8
BLACK
6
CONTINUOUS
10
-4.12706
20
6.03499
11
-4.11786
21
6.038
0
LINE
8
BLACK
6
CONTINUOUS
10
-4.11786
20
6.038
11
-4.10829
21
6.03946
0
LINE
8
BLACK
6
CONTINUOUS
10
-4.10829
20
6.03946
11
-4.09862
21
6.03934
0
LINE
8
BLACK
6
CONTINUOUS
10
-4.88602
20
6.03934
11
-4.87649
21
6.03765
0
LINE
8
BLACK
6
CONTINUOUS
10
-4.87649
20
6.03765
11
-4.86737
21
6.03442
0
LINE
8
BLACK
6
CONTINUOUS
10
-4.86737
20
6.03442
11
-4.85889
21
6.02974
0
LINE
8
BLACK
6
CONTINUOUS
10
-4.85889
20
6.02974
11
-4.8513
21
6.02374
0
LINE
8
BLACK
6
CONTINUOUS
10
-4.8513
20
6.02374
11
-4.84479
21
6.01658
0
LINE
8
BLACK
6
CONTINUOUS
10
-4.84479
20
6.01658
11
-4.83953
21
6.00846
0
LINE
8
BLACK
6
CONTINUOUS
10
-4.83953
20
6.00846
11
-4.83567
21
5.99958
0
LINE
8
BLACK
6
CONTINUOUS
10
-4.83567
20
5.99958
11
-4.83331
21
5.9902
0
LINE
8
BLACK
6
CONTINUOUS
10
-4.83331
20
5.9902
11
-4.83252
21
5.98055
0
LINE
8
BLACK
6
CONTINUOUS
10
-4.83252
20
5.98055
11
-4.83259
21
5.97767
0
LINE
8
BLACK
6
CONTINUOUS
10
-4.83259
20
5.97767
11
-4.83385
21
5.96807
0
LINE
8
BLACK
6
CONTINUOUS
10
-4.83385
20
5.96807
11
-4.83667
21
5.95881
0
LINE
8
BLACK
6
CONTINUOUS
10
-4.83667
20
5.95881
11
-4.84095
21
5.95014
0
LINE
8
BLACK
6
CONTINUOUS
10
-4.84095
20
5.95014
11
-4.8466
21
5.94228
0
LINE
8
BLACK
6
CONTINUOUS
10
-4.8466
20
5.94228
11
-4.85346
21
5.93545
0
LINE
8
BLACK
6
CONTINUOUS
10
-4.85346
20
5.93545
11
-4.86134
21
5.92983
0
LINE
8
BLACK
6
CONTINUOUS
10
-4.86134
20
5.92983
11
-4.87003
21
5.92557
0
LINE
8
BLACK
6
CONTINUOUS
10
-4.87003
20
5.92557
11
-4.8793
21
5.92279
0
LINE
8
BLACK
6
CONTINUOUS
10
-4.8793
20
5.92279
11
-4.8889
21
5.92156
0
LINE
8
BLACK
6
CONTINUOUS
10
-4.8889
20
5.92156
11
-4.89857
21
5.92191
0
LINE
8
BLACK
6
CONTINUOUS
10
-4.89857
20
5.92191
11
-4.90805
21
5.92384
0
LINE
8
BLACK
6
CONTINUOUS
10
-4.90805
20
5.92384
11
-4.91709
21
5.92729
0
LINE
8
BLACK
6
CONTINUOUS
10
-4.91709
20
5.92729
11
-4.92545
21
5.93218
0
LINE
8
BLACK
6
CONTINUOUS
10
-4.92545
20
5.93218
11
-4.93289
21
5.93836
0
LINE
8
BLACK
6
CONTINUOUS
10
-4.93289
20
5.93836
11
-4.93923
21
5.94567
0
LINE
8
BLACK
6
CONTINUOUS
10
-4.93923
20
5.94567
11
-4.94429
21
5.95392
0
LINE
8
BLACK
6
CONTINUOUS
10
-4.94429
20
5.95392
11
-4.94793
21
5.96289
0
LINE
8
BLACK
6
CONTINUOUS
10
-4.94793
20
5.96289
11
-4.95006
21
5.97233
0
LINE
8
BLACK
6
CONTINUOUS
10
-4.95006
20
5.97233
11
-4.95061
21
5.98199
0
LINE
8
BLACK
6
CONTINUOUS
10
-4.95061
20
5.98199
11
-4.94958
21
5.99162
0
LINE
8
BLACK
6
CONTINUOUS
10
-4.94958
20
5.99162
11
-4.947
21
6.00094
0
LINE
8
BLACK
6
CONTINUOUS
10
-4.947
20
6.00094
11
-4.94292
21
6.00972
0
LINE
8
BLACK
6
CONTINUOUS
10
-4.94292
20
6.00972
11
-4.93747
21
6.01772
0
LINE
8
BLACK
6
CONTINUOUS
10
-4.93747
20
6.01772
11
-4.93078
21
6.02471
0
LINE
8
BLACK
6
CONTINUOUS
10
-4.93078
20
6.02471
11
-4.92304
21
6.03052
0
LINE
8
BLACK
6
CONTINUOUS
10
-4.92304
20
6.03052
11
-4.91446
21
6.03499
0
LINE
8
BLACK
6
CONTINUOUS
10
-4.91446
20
6.03499
11
-4.90526
21
6.038
0
LINE
8
BLACK
6
CONTINUOUS
10
-4.90526
20
6.038
11
-4.89569
21
6.03946
0
LINE
8
BLACK
6
CONTINUOUS
10
-4.89569
20
6.03946
11
-4.88602
21
6.03934
0
LINE
8
BLACK
6
CONTINUOUS
10
-4.49232
20
6.03934
11
-4.48279
21
6.03765
0
LINE
8
BLACK
6
CONTINUOUS
10
-4.48279
20
6.03765
11
-4.47367
21
6.03442
0
LINE
8
BLACK
6
CONTINUOUS
10
-4.47367
20
6.03442
11
-4.46519
21
6.02974
0
LINE
8
BLACK
6
CONTINUOUS
10
-4.46519
20
6.02974
11
-4.4576
21
6.02374
0
LINE
8
BLACK
6
CONTINUOUS
10
-4.4576
20
6.02374
11
-4.45109
21
6.01658
0
LINE
8
BLACK
6
CONTINUOUS
10
-4.45109
20
6.01658
11
-4.44583
21
6.00846
0
LINE
8
BLACK
6
CONTINUOUS
10
-4.44583
20
6.00846
11
-4.44197
21
5.99958
0
LINE
8
BLACK
6
CONTINUOUS
10
-4.44197
20
5.99958
11
-4.43961
21
5.9902
0
LINE
8
BLACK
6
CONTINUOUS
10
-4.43961
20
5.9902
11
-4.43882
21
5.98055
0
LINE
8
BLACK
6
CONTINUOUS
10
-4.43882
20
5.98055
11
-4.43889
21
5.97767
0
LINE
8
BLACK
6
CONTINUOUS
10
-4.43889
20
5.97767
11
-4.44015
21
5.96807
0
LINE
8
BLACK
6
CONTINUOUS
10
-4.44015
20
5.96807
11
-4.44297
21
5.95881
0
LINE
8
BLACK
6
CONTINUOUS
10
-4.44297
20
5.95881
11
-4.44725
21
5.95014
0
LINE
8
BLACK
6
CONTINUOUS
10
-4.44725
20
5.95014
11
-4.4529
21
5.94228
0
LINE
8
BLACK
6
CONTINUOUS
10
-4.4529
20
5.94228
11
-4.45976
21
5.93545
0
LINE
8
BLACK
6
CONTINUOUS
10
-4.45976
20
5.93545
11
-4.46764
21
5.92983
0
LINE
8
BLACK
6
CONTINUOUS
10
-4.46764
20
5.92983
11
-4.47633
21
5.92557
0
LINE
8
BLACK
6
CONTINUOUS
10
-4.47633
20
5.92557
11
-4.4856
21
5.92279
0
LINE
8
BLACK
6
CONTINUOUS
10
-4.4856
20
5.92279
11
-4.4952
21
5.92156
0
LINE
8
BLACK
6
CONTINUOUS
10
-4.4952
20
5.92156
11
-4.50487
21
5.92191
0
LINE
8
BLACK
6
CONTINUOUS
10
-4.50487
20
5.92191
11
-4.51435
21
5.92384
0
LINE
8
BLACK
6
CONTINUOUS
10
-4.51435
20
5.92384
11
-4.52339
21
5.92729
0
LINE
8
BLACK
6
CONTINUOUS
10
-4.52339
20
5.92729
11
-4.53175
21
5.93218
0
LINE
8
BLACK
6
CONTINUOUS
10
-4.53175
20
5.93218
11
-4.53919
21
5.93836
0
LINE
8
BLACK
6
CONTINUOUS
10
-4.53919
20
5.93836
11
-4.54553
21
5.94567
0
LINE
8
BLACK
6
CONTINUOUS
10
-4.54553
20
5.94567
11
-4.55059
21
5.95392
0
LINE
8
BLACK
6
CONTINUOUS
10
-4.55059
20
5.95392
11
-4.55423
21
5.96289
0
LINE
8
BLACK
6
CONTINUOUS
10
-4.55423
20
5.96289
11
-4.55635
21
5.97233
0
LINE
8
BLACK
6
CONTINUOUS
10
-4.55635
20
5.97233
11
-4.55691
21
5.98199
0
LINE
8
BLACK
6
CONTINUOUS
10
-4.55691
20
5.98199
11
-4.55588
21
5.99162
0
LINE
8
BLACK
6
CONTINUOUS
10
-4.55588
20
5.99162
11
-4.5533
21
6.00094
0
LINE
8
BLACK
6
CONTINUOUS
10
-4.5533
20
6.00094
11
-4.54922
21
6.00972
0
LINE
8
BLACK
6
CONTINUOUS
10
-4.54922
20
6.00972
11
-4.54377
21
6.01772
0
LINE
8
BLACK
6
CONTINUOUS
10
-4.54377
20
6.01772
11
-4.53708
21
6.02471
0
LINE
8
BLACK
6
CONTINUOUS
10
-4.53708
20
6.02471
11
-4.52934
21
6.03052
0
LINE
8
BLACK
6
CONTINUOUS
10
-4.52934
20
6.03052
11
-4.52076
21
6.03499
0
LINE
8
BLACK
6
CONTINUOUS
10
-4.52076
20
6.03499
11
-4.51156
21
6.038
0
LINE
8
BLACK
6
CONTINUOUS
10
-4.51156
20
6.038
11
-4.50199
21
6.03946
0
LINE
8
BLACK
6
CONTINUOUS
10
-4.50199
20
6.03946
11
-4.49232
21
6.03934
0
LINE
8
BLACK
6
CONTINUOUS
10
-3.9152
20
5.65584
11
-3.91329
21
5.65712
0
LINE
8
BLACK
6
CONTINUOUS
10
-3.91329
20
5.65712
11
-3.91028
21
5.65772
0
LINE
8
BLACK
6
CONTINUOUS
10
-3.91028
20
5.65772
11
-3.90043
21
5.65772
0
LINE
8
BLACK
6
CONTINUOUS
10
-3.90043
20
5.65772
11
-3.89742
21
5.65712
0
LINE
8
BLACK
6
CONTINUOUS
10
-3.89742
20
5.65712
11
-3.89487
21
5.65541
0
LINE
8
BLACK
6
CONTINUOUS
10
-3.89487
20
5.65541
11
-3.89316
21
5.65286
0
LINE
8
BLACK
6
CONTINUOUS
10
-3.89316
20
5.65286
11
-3.89256
21
5.64984
0
LINE
8
BLACK
6
CONTINUOUS
10
-3.89256
20
5.64984
11
-3.89256
21
5.62819
0
LINE
8
BLACK
6
CONTINUOUS
10
-3.89256
20
5.62819
11
-3.89316
21
5.62518
0
LINE
8
BLACK
6
CONTINUOUS
10
-3.89316
20
5.62518
11
-3.89487
21
5.62262
0
LINE
8
BLACK
6
CONTINUOUS
10
-3.89487
20
5.62262
11
-3.89742
21
5.62091
0
LINE
8
BLACK
6
CONTINUOUS
10
-3.89742
20
5.62091
11
-3.90043
21
5.62031
0
LINE
8
BLACK
6
CONTINUOUS
10
-3.90043
20
5.62031
11
-3.91028
21
5.62031
0
LINE
8
BLACK
6
CONTINUOUS
10
-3.91028
20
5.62031
11
-3.91329
21
5.62091
0
LINE
8
BLACK
6
CONTINUOUS
10
-3.91329
20
5.62091
11
-3.9152
21
5.62219
0
LINE
8
BLACK
6
CONTINUOUS
10
-3.9152
20
5.62219
11
-3.9171
21
5.62091
0
LINE
8
BLACK
6
CONTINUOUS
10
-3.9171
20
5.62091
11
-3.92012
21
5.62031
0
LINE
8
BLACK
6
CONTINUOUS
10
-3.92012
20
5.62031
11
-3.92996
21
5.62031
0
LINE
8
BLACK
6
CONTINUOUS
10
-3.92996
20
5.62031
11
-3.93297
21
5.62091
0
LINE
8
BLACK
6
CONTINUOUS
10
-3.93297
20
5.62091
11
-3.93488
21
5.62219
0
LINE
8
BLACK
6
CONTINUOUS
10
-3.93488
20
5.62219
11
-3.93679
21
5.62091
0
LINE
8
BLACK
6
CONTINUOUS
10
-3.93679
20
5.62091
11
-3.9398
21
5.62031
0
LINE
8
BLACK
6
CONTINUOUS
10
-3.9398
20
5.62031
11
-3.94965
21
5.62031
0
LINE
8
BLACK
6
CONTINUOUS
10
-3.94965
20
5.62031
11
-3.95266
21
5.62091
0
LINE
8
BLACK
6
CONTINUOUS
10
-3.95266
20
5.62091
11
-3.95457
21
5.62219
0
LINE
8
BLACK
6
CONTINUOUS
10
-3.95457
20
5.62219
11
-3.95647
21
5.62091
0
LINE
8
BLACK
6
CONTINUOUS
10
-3.95647
20
5.62091
11
-3.95949
21
5.62031
0
LINE
8
BLACK
6
CONTINUOUS
10
-3.95949
20
5.62031
11
-3.96933
21
5.62031
0
LINE
8
BLACK
6
CONTINUOUS
10
-3.96933
20
5.62031
11
-3.97234
21
5.62091
0
LINE
8
BLACK
6
CONTINUOUS
10
-3.97234
20
5.62091
11
-3.9749
21
5.62262
0
LINE
8
BLACK
6
CONTINUOUS
10
-3.9749
20
5.62262
11
-3.97661
21
5.62518
0
LINE
8
BLACK
6
CONTINUOUS
10
-3.97661
20
5.62518
11
-3.9772
21
5.62819
0
LINE
8
BLACK
6
CONTINUOUS
10
-3.9772
20
5.62819
11
-3.9772
21
5.64984
0
LINE
8
BLACK
6
CONTINUOUS
10
-3.9772
20
5.64984
11
-3.97661
21
5.65286
0
LINE
8
BLACK
6
CONTINUOUS
10
-3.97661
20
5.65286
11
-3.9749
21
5.65541
0
LINE
8
BLACK
6
CONTINUOUS
10
-3.9749
20
5.65541
11
-3.97234
21
5.65712
0
LINE
8
BLACK
6
CONTINUOUS
10
-3.97234
20
5.65712
11
-3.96933
21
5.65772
0
LINE
8
BLACK
6
CONTINUOUS
10
-3.96933
20
5.65772
11
-3.96835
21
5.65772
0
LINE
8
BLACK
6
CONTINUOUS
10
-3.96835
20
5.65772
11
-3.97136
21
5.65832
0
LINE
8
BLACK
6
CONTINUOUS
10
-3.97136
20
5.65832
11
-3.97391
21
5.66002
0
LINE
8
BLACK
6
CONTINUOUS
10
-3.97391
20
5.66002
11
-3.97562
21
5.66258
0
LINE
8
BLACK
6
CONTINUOUS
10
-3.97562
20
5.66258
11
-3.97622
21
5.66559
0
LINE
8
BLACK
6
CONTINUOUS
10
-3.97622
20
5.66559
11
-3.97622
21
5.70496
0
LINE
8
BLACK
6
CONTINUOUS
10
-3.97622
20
5.70496
11
-3.97562
21
5.70797
0
LINE
8
BLACK
6
CONTINUOUS
10
-3.97562
20
5.70797
11
-3.97391
21
5.71053
0
LINE
8
BLACK
6
CONTINUOUS
10
-3.97391
20
5.71053
11
-3.97136
21
5.71224
0
LINE
8
BLACK
6
CONTINUOUS
10
-3.97136
20
5.71224
11
-3.96835
21
5.71283
0
LINE
8
BLACK
6
CONTINUOUS
10
-3.96835
20
5.71283
11
-3.92996
21
5.71283
0
LINE
8
BLACK
6
CONTINUOUS
10
-3.92996
20
5.71283
11
-3.93297
21
5.71343
0
LINE
8
BLACK
6
CONTINUOUS
10
-3.93297
20
5.71343
11
-3.93488
21
5.71471
0
LINE
8
BLACK
6
CONTINUOUS
10
-3.93488
20
5.71471
11
-3.93679
21
5.71343
0
LINE
8
BLACK
6
CONTINUOUS
10
-3.93679
20
5.71343
11
-3.9398
21
5.71283
0
LINE
8
BLACK
6
CONTINUOUS
10
-3.9398
20
5.71283
11
-3.94965
21
5.71283
0
LINE
8
BLACK
6
CONTINUOUS
10
-3.94965
20
5.71283
11
-3.95266
21
5.71343
0
LINE
8
BLACK
6
CONTINUOUS
10
-3.95266
20
5.71343
11
-3.95457
21
5.71471
0
LINE
8
BLACK
6
CONTINUOUS
10
-3.95457
20
5.71471
11
-3.95647
21
5.71343
0
LINE
8
BLACK
6
CONTINUOUS
10
-3.95647
20
5.71343
11
-3.95949
21
5.71283
0
LINE
8
BLACK
6
CONTINUOUS
10
-3.95949
20
5.71283
11
-3.96933
21
5.71283
0
LINE
8
BLACK
6
CONTINUOUS
10
-3.96933
20
5.71283
11
-3.97234
21
5.71343
0
LINE
8
BLACK
6
CONTINUOUS
10
-3.97234
20
5.71343
11
-3.9749
21
5.71514
0
LINE
8
BLACK
6
CONTINUOUS
10
-3.9749
20
5.71514
11
-3.97661
21
5.7177
0
LINE
8
BLACK
6
CONTINUOUS
10
-3.97661
20
5.7177
11
-3.9772
21
5.72071
0
LINE
8
BLACK
6
CONTINUOUS
10
-3.9772
20
5.72071
11
-3.9772
21
5.74236
0
LINE
8
BLACK
6
CONTINUOUS
10
-3.9772
20
5.74236
11
-3.97661
21
5.74538
0
LINE
8
BLACK
6
CONTINUOUS
10
-3.97661
20
5.74538
11
-3.9749
21
5.74793
0
LINE
8
BLACK
6
CONTINUOUS
10
-3.9749
20
5.74793
11
-3.97234
21
5.74964
0
LINE
8
BLACK
6
CONTINUOUS
10
-3.97234
20
5.74964
11
-3.96933
21
5.75024
0
LINE
8
BLACK
6
CONTINUOUS
10
-3.96933
20
5.75024
11
-3.95949
21
5.75024
0
LINE
8
BLACK
6
CONTINUOUS
10
-3.95949
20
5.75024
11
-3.95647
21
5.74964
0
LINE
8
BLACK
6
CONTINUOUS
10
-3.95647
20
5.74964
11
-3.95457
21
5.74836
0
LINE
8
BLACK
6
CONTINUOUS
10
-3.95457
20
5.74836
11
-3.95266
21
5.74964
0
LINE
8
BLACK
6
CONTINUOUS
10
-3.95266
20
5.74964
11
-3.94965
21
5.75024
0
LINE
8
BLACK
6
CONTINUOUS
10
-3.94965
20
5.75024
11
-3.9398
21
5.75024
0
LINE
8
BLACK
6
CONTINUOUS
10
-3.9398
20
5.75024
11
-3.93679
21
5.74964
0
LINE
8
BLACK
6
CONTINUOUS
10
-3.93679
20
5.74964
11
-3.93488
21
5.74836
0
LINE
8
BLACK
6
CONTINUOUS
10
-3.93488
20
5.74836
11
-3.93297
21
5.74964
0
LINE
8
BLACK
6
CONTINUOUS
10
-3.93297
20
5.74964
11
-3.92996
21
5.75024
0
LINE
8
BLACK
6
CONTINUOUS
10
-3.92996
20
5.75024
11
-3.92012
21
5.75024
0
LINE
8
BLACK
6
CONTINUOUS
10
-3.92012
20
5.75024
11
-3.9171
21
5.74964
0
LINE
8
BLACK
6
CONTINUOUS
10
-3.9171
20
5.74964
11
-3.9152
21
5.74836
0
LINE
8
BLACK
6
CONTINUOUS
10
-3.9152
20
5.74836
11
-3.91329
21
5.74964
0
LINE
8
BLACK
6
CONTINUOUS
10
-3.91329
20
5.74964
11
-3.91028
21
5.75024
0
LINE
8
BLACK
6
CONTINUOUS
10
-3.91028
20
5.75024
11
-3.90043
21
5.75024
0
LINE
8
BLACK
6
CONTINUOUS
10
-3.90043
20
5.75024
11
-3.89742
21
5.74964
0
LINE
8
BLACK
6
CONTINUOUS
10
-3.89742
20
5.74964
11
-3.89487
21
5.74793
0
LINE
8
BLACK
6
CONTINUOUS
10
-3.89487
20
5.74793
11
-3.89316
21
5.74538
0
LINE
8
BLACK
6
CONTINUOUS
10
-3.89316
20
5.74538
11
-3.89256
21
5.74236
0
LINE
8
BLACK
6
CONTINUOUS
10
-3.89256
20
5.74236
11
-3.89256
21
5.72071
0
LINE
8
BLACK
6
CONTINUOUS
10
-3.89256
20
5.72071
11
-3.89316
21
5.7177
0
LINE
8
BLACK
6
CONTINUOUS
10
-3.89316
20
5.7177
11
-3.89487
21
5.71514
0
LINE
8
BLACK
6
CONTINUOUS
10
-3.89487
20
5.71514
11
-3.89742
21
5.71343
0
LINE
8
BLACK
6
CONTINUOUS
10
-3.89742
20
5.71343
11
-3.90043
21
5.71283
0
LINE
8
BLACK
6
CONTINUOUS
10
-3.90043
20
5.71283
11
-3.90142
21
5.71283
0
LINE
8
BLACK
6
CONTINUOUS
10
-3.90142
20
5.71283
11
-3.8984
21
5.71224
0
LINE
8
BLACK
6
CONTINUOUS
10
-3.8984
20
5.71224
11
-3.89585
21
5.71053
0
LINE
8
BLACK
6
CONTINUOUS
10
-3.89585
20
5.71053
11
-3.89414
21
5.70797
0
LINE
8
BLACK
6
CONTINUOUS
10
-3.89414
20
5.70797
11
-3.89354
21
5.70496
0
LINE
8
BLACK
6
CONTINUOUS
10
-3.89354
20
5.70496
11
-3.89354
21
5.6774
0
LINE
8
BLACK
6
CONTINUOUS
10
-3.89354
20
5.6774
11
-3.89414
21
5.67439
0
LINE
8
BLACK
6
CONTINUOUS
10
-3.89414
20
5.67439
11
-3.89585
21
5.67183
0
LINE
8
BLACK
6
CONTINUOUS
10
-3.89585
20
5.67183
11
-3.90766
21
5.66002
0
LINE
8
BLACK
6
CONTINUOUS
10
-3.90766
20
5.66002
11
-3.91022
21
5.65832
0
LINE
8
BLACK
6
CONTINUOUS
10
-3.91022
20
5.65832
11
-3.91323
21
5.65772
0
LINE
8
BLACK
6
CONTINUOUS
10
-3.91323
20
5.65772
11
-3.92012
21
5.65772
0
LINE
8
BLACK
6
CONTINUOUS
10
-3.92012
20
5.65772
11
-3.9171
21
5.65712
0
LINE
8
BLACK
6
CONTINUOUS
10
-3.9171
20
5.65712
11
-3.9152
21
5.65584
0
LINE
8
BLACK
6
CONTINUOUS
10
-3.93679
20
5.65712
11
-3.93488
21
5.65584
0
LINE
8
BLACK
6
CONTINUOUS
10
-3.93488
20
5.65584
11
-3.93297
21
5.65712
0
LINE
8
BLACK
6
CONTINUOUS
10
-3.93297
20
5.65712
11
-3.92996
21
5.65772
0
LINE
8
BLACK
6
CONTINUOUS
10
-3.92996
20
5.65772
11
-3.9398
21
5.65772
0
LINE
8
BLACK
6
CONTINUOUS
10
-3.9398
20
5.65772
11
-3.93679
21
5.65712
0
LINE
8
BLACK
6
CONTINUOUS
10
-3.95647
20
5.65712
11
-3.95457
21
5.65584
0
LINE
8
BLACK
6
CONTINUOUS
10
-3.95457
20
5.65584
11
-3.95266
21
5.65712
0
LINE
8
BLACK
6
CONTINUOUS
10
-3.95266
20
5.65712
11
-3.94965
21
5.65772
0
LINE
8
BLACK
6
CONTINUOUS
10
-3.94965
20
5.65772
11
-3.95949
21
5.65772
0
LINE
8
BLACK
6
CONTINUOUS
10
-3.95949
20
5.65772
11
-3.95647
21
5.65712
0
LINE
8
BLACK
6
CONTINUOUS
10
-3.91329
20
5.71343
11
-3.9152
21
5.71471
0
LINE
8
BLACK
6
CONTINUOUS
10
-3.9152
20
5.71471
11
-3.9171
21
5.71343
0
LINE
8
BLACK
6
CONTINUOUS
10
-3.9171
20
5.71343
11
-3.92012
21
5.71283
0
LINE
8
BLACK
6
CONTINUOUS
10
-3.92012
20
5.71283
11
-3.91028
21
5.71283
0
LINE
8
BLACK
6
CONTINUOUS
10
-3.91028
20
5.71283
11
-3.91329
21
5.71343
  0
ENDSEC
  0
EOF
