  0
SECTION
  2
HEADER
  9
$ANGBASE
  50
0.0
  9
$ANGDIR
  70
1
  9
$MEASUREMENT
  70
0
  0
ENDSEC
  0
SECTION
  2
TABLES
  0
TABLE
  2
LTYPE
  70
4
  0
LTYPE
  5
40F
  2
CONTINUOUS
  70
0
  3
Solid line
  72
65
  73
0
  40
0.0
  0
LTYPE
  5
410
  2
DASHDOT
 70
0
  3
Dash Dot ____ _ ____ _
 72
65
 73
4
 40
2.0
 49
1.25
 49
-0.25
 49
0.25
 49
-0.25
  0
LTYPE
  5
411
  2
DASHED
 70
0
  3
Dashed __ __ __ __ __
 72
65
 73
2
 40
0.75
 49
0.5
 49
-0.25
  0
LTYPE
  5
43B
  2
DOTTED
 70
0
  3
Dotted .  .  .  .
 72
65
 73
2
 40
0.2
 49
0.0
 49
-0.2
  0
ENDTAB
  0
TABLE
  2
STYLE
  70
4
  0
STYLE
  2
KICAD
  70
0
  40
0
  41
1
  42
1
  50
0
  71
0
  3
isocp.shx
  0
STYLE
  2
KICADB
  70
0
  40
0
  41
1
  42
1
  50
0
  71
0
  3
isocp.shx
  0
STYLE
  2
KICADI
  70
0
  40
0
  41
1
  42
1
  50
15
  71
0
  3
isocp.shx
  0
STYLE
  2
KICADBI
  70
0
  40
0
  41
1
  42
1
  50
15
  71
0
  3
isocp.shx
  0
ENDTAB
  0
TABLE
  2
LAYER
  70
1
  0
LAYER
  2
BLACK
  70
0
  62
7
  6
CONTINUOUS
  0
ENDTAB
  0
ENDSEC
  0
SECTION
  2
ENTITIES
0
LINE
8
BLACK
6
CONTINUOUS
10
0.944562
20
0.173704
11
0.945339
21
0.173704
0
LINE
8
BLACK
6
CONTINUOUS
10
0.945339
20
0.173704
11
0.946013
21
0.173316
0
LINE
8
BLACK
6
CONTINUOUS
10
0.946013
20
0.173316
11
0.946764
21
0.173114
0
LINE
8
BLACK
6
CONTINUOUS
10
0.946764
20
0.173114
11
0.947314
21
0.172565
0
LINE
8
BLACK
6
CONTINUOUS
10
0.947314
20
0.172565
11
0.947987
21
0.172176
0
LINE
8
BLACK
6
CONTINUOUS
10
0.947987
20
0.172176
11
0.983968
21
0.136194
0
LINE
8
BLACK
6
CONTINUOUS
10
0.983968
20
0.136194
11
0.985134
21
0.136788
0
LINE
8
BLACK
6
CONTINUOUS
10
0.985134
20
0.136788
11
0.99
21
0.137559
0
LINE
8
BLACK
6
CONTINUOUS
10
0.99
20
0.137559
11
0.994866
21
0.136788
0
LINE
8
BLACK
6
CONTINUOUS
10
0.994866
20
0.136788
11
0.999256
21
0.134551
0
LINE
8
BLACK
6
CONTINUOUS
10
0.999256
20
0.134551
11
1.00274
21
0.131067
0
LINE
8
BLACK
6
CONTINUOUS
10
1.00274
20
0.131067
11
1.00498
21
0.126677
0
LINE
8
BLACK
6
CONTINUOUS
10
1.00498
20
0.126677
11
1.00575
21
0.121811
0
LINE
8
BLACK
6
CONTINUOUS
10
1.00575
20
0.121811
11
1.00498
21
0.116945
0
LINE
8
BLACK
6
CONTINUOUS
10
1.00498
20
0.116945
11
1.00274
21
0.112555
0
LINE
8
BLACK
6
CONTINUOUS
10
1.00274
20
0.112555
11
0.999256
21
0.109071
0
LINE
8
BLACK
6
CONTINUOUS
10
0.999256
20
0.109071
11
0.994866
21
0.106834
0
LINE
8
BLACK
6
CONTINUOUS
10
0.994866
20
0.106834
11
0.99
21
0.106063
0
LINE
8
BLACK
6
CONTINUOUS
10
0.99
20
0.106063
11
0.985134
21
0.106834
0
LINE
8
BLACK
6
CONTINUOUS
10
0.985134
20
0.106834
11
0.980744
21
0.109071
0
LINE
8
BLACK
6
CONTINUOUS
10
0.980744
20
0.109071
11
0.97726
21
0.112555
0
LINE
8
BLACK
6
CONTINUOUS
10
0.97726
20
0.112555
11
0.975023
21
0.116945
0
LINE
8
BLACK
6
CONTINUOUS
10
0.975023
20
0.116945
11
0.974252
21
0.121811
0
LINE
8
BLACK
6
CONTINUOUS
10
0.974252
20
0.121811
11
0.975023
21
0.126677
0
LINE
8
BLACK
6
CONTINUOUS
10
0.975023
20
0.126677
11
0.975617
21
0.127843
0
LINE
8
BLACK
6
CONTINUOUS
10
0.975617
20
0.127843
11
0.941365
21
0.162094
0
LINE
8
BLACK
6
CONTINUOUS
10
0.941365
20
0.162094
11
0.738694
21
0.162094
0
LINE
8
BLACK
6
CONTINUOUS
10
0.738694
20
0.162094
11
0.724383
21
0.147784
0
LINE
8
BLACK
6
CONTINUOUS
10
0.724383
20
0.147784
11
0.724977
21
0.146618
0
LINE
8
BLACK
6
CONTINUOUS
10
0.724977
20
0.146618
11
0.725748
21
0.141752
0
LINE
8
BLACK
6
CONTINUOUS
10
0.725748
20
0.141752
11
0.724977
21
0.136886
0
LINE
8
BLACK
6
CONTINUOUS
10
0.724977
20
0.136886
11
0.72274
21
0.132496
0
LINE
8
BLACK
6
CONTINUOUS
10
0.72274
20
0.132496
11
0.719256
21
0.129012
0
LINE
8
BLACK
6
CONTINUOUS
10
0.719256
20
0.129012
11
0.714866
21
0.126775
0
LINE
8
BLACK
6
CONTINUOUS
10
0.714866
20
0.126775
11
0.71
21
0.126004
0
LINE
8
BLACK
6
CONTINUOUS
10
0.71
20
0.126004
11
0.705134
21
0.126775
0
LINE
8
BLACK
6
CONTINUOUS
10
0.705134
20
0.126775
11
0.700744
21
0.129012
0
LINE
8
BLACK
6
CONTINUOUS
10
0.700744
20
0.129012
11
0.69726
21
0.132496
0
LINE
8
BLACK
6
CONTINUOUS
10
0.69726
20
0.132496
11
0.695023
21
0.136886
0
LINE
8
BLACK
6
CONTINUOUS
10
0.695023
20
0.136886
11
0.694252
21
0.141752
0
LINE
8
BLACK
6
CONTINUOUS
10
0.694252
20
0.141752
11
0.695023
21
0.146618
0
LINE
8
BLACK
6
CONTINUOUS
10
0.695023
20
0.146618
11
0.69726
21
0.151008
0
LINE
8
BLACK
6
CONTINUOUS
10
0.69726
20
0.151008
11
0.700744
21
0.154492
0
LINE
8
BLACK
6
CONTINUOUS
10
0.700744
20
0.154492
11
0.705134
21
0.156729
0
LINE
8
BLACK
6
CONTINUOUS
10
0.705134
20
0.156729
11
0.71
21
0.1575
0
LINE
8
BLACK
6
CONTINUOUS
10
0.71
20
0.1575
11
0.714866
21
0.156729
0
LINE
8
BLACK
6
CONTINUOUS
10
0.714866
20
0.156729
11
0.716032
21
0.156135
0
LINE
8
BLACK
6
CONTINUOUS
10
0.716032
20
0.156135
11
0.732072
21
0.172176
0
LINE
8
BLACK
6
CONTINUOUS
10
0.732072
20
0.172176
11
0.732746
21
0.172565
0
LINE
8
BLACK
6
CONTINUOUS
10
0.732746
20
0.172565
11
0.733295
21
0.173114
0
LINE
8
BLACK
6
CONTINUOUS
10
0.733295
20
0.173114
11
0.734046
21
0.173316
0
LINE
8
BLACK
6
CONTINUOUS
10
0.734046
20
0.173316
11
0.73472
21
0.173704
0
LINE
8
BLACK
6
CONTINUOUS
10
0.73472
20
0.173704
11
0.735497
21
0.173704
0
LINE
8
BLACK
6
CONTINUOUS
10
0.735497
20
0.173704
11
0.736248
21
0.173906
0
LINE
8
BLACK
6
CONTINUOUS
10
0.736248
20
0.173906
11
0.943811
21
0.173906
0
LINE
8
BLACK
6
CONTINUOUS
10
0.943811
20
0.173906
11
0.944562
21
0.173704
0
LINE
8
BLACK
6
CONTINUOUS
10
0.935627
20
0.230318
11
0.936301
21
0.230706
0
LINE
8
BLACK
6
CONTINUOUS
10
0.936301
20
0.230706
11
0.93685
21
0.231256
0
LINE
8
BLACK
6
CONTINUOUS
10
0.93685
20
0.231256
11
0.937601
21
0.231457
0
LINE
8
BLACK
6
CONTINUOUS
10
0.937601
20
0.231457
11
0.938275
21
0.231846
0
LINE
8
BLACK
6
CONTINUOUS
10
0.938275
20
0.231846
11
0.939052
21
0.231846
0
LINE
8
BLACK
6
CONTINUOUS
10
0.939052
20
0.231846
11
0.939803
21
0.232047
0
LINE
8
BLACK
6
CONTINUOUS
10
0.939803
20
0.232047
11
1.05102
21
0.232047
0
LINE
8
BLACK
6
CONTINUOUS
10
1.05102
20
0.232047
11
1.05177
21
0.231846
0
LINE
8
BLACK
6
CONTINUOUS
10
1.05177
20
0.231846
11
1.05255
21
0.231846
0
LINE
8
BLACK
6
CONTINUOUS
10
1.05255
20
0.231846
11
1.05323
21
0.231457
0
LINE
8
BLACK
6
CONTINUOUS
10
1.05323
20
0.231457
11
1.05398
21
0.231256
0
LINE
8
BLACK
6
CONTINUOUS
10
1.05398
20
0.231256
11
1.05453
21
0.230706
0
LINE
8
BLACK
6
CONTINUOUS
10
1.05453
20
0.230706
11
1.0552
21
0.230318
0
LINE
8
BLACK
6
CONTINUOUS
10
1.0552
20
0.230318
11
1.10405
21
0.18147
0
LINE
8
BLACK
6
CONTINUOUS
10
1.10405
20
0.18147
11
1.10521
21
0.182064
0
LINE
8
BLACK
6
CONTINUOUS
10
1.10521
20
0.182064
11
1.11008
21
0.182835
0
LINE
8
BLACK
6
CONTINUOUS
10
1.11008
20
0.182835
11
1.11495
21
0.182064
0
LINE
8
BLACK
6
CONTINUOUS
10
1.11495
20
0.182064
11
1.11934
21
0.179827
0
LINE
8
BLACK
6
CONTINUOUS
10
1.11934
20
0.179827
11
1.12282
21
0.176343
0
LINE
8
BLACK
6
CONTINUOUS
10
1.12282
20
0.176343
11
1.12506
21
0.171953
0
LINE
8
BLACK
6
CONTINUOUS
10
1.12506
20
0.171953
11
1.12583
21
0.167087
0
LINE
8
BLACK
6
CONTINUOUS
10
1.12583
20
0.167087
11
1.12506
21
0.16222
0
LINE
8
BLACK
6
CONTINUOUS
10
1.12506
20
0.16222
11
1.12282
21
0.15783
0
LINE
8
BLACK
6
CONTINUOUS
10
1.12282
20
0.15783
11
1.11934
21
0.154346
0
LINE
8
BLACK
6
CONTINUOUS
10
1.11934
20
0.154346
11
1.11495
21
0.152109
0
LINE
8
BLACK
6
CONTINUOUS
10
1.11495
20
0.152109
11
1.11008
21
0.151339
0
LINE
8
BLACK
6
CONTINUOUS
10
1.11008
20
0.151339
11
1.10521
21
0.152109
0
LINE
8
BLACK
6
CONTINUOUS
10
1.10521
20
0.152109
11
1.10082
21
0.154346
0
LINE
8
BLACK
6
CONTINUOUS
10
1.10082
20
0.154346
11
1.09734
21
0.15783
0
LINE
8
BLACK
6
CONTINUOUS
10
1.09734
20
0.15783
11
1.0951
21
0.16222
0
LINE
8
BLACK
6
CONTINUOUS
10
1.0951
20
0.16222
11
1.09433
21
0.167087
0
LINE
8
BLACK
6
CONTINUOUS
10
1.09433
20
0.167087
11
1.0951
21
0.171953
0
LINE
8
BLACK
6
CONTINUOUS
10
1.0951
20
0.171953
11
1.0957
21
0.173118
0
LINE
8
BLACK
6
CONTINUOUS
10
1.0957
20
0.173118
11
1.04858
21
0.220236
0
LINE
8
BLACK
6
CONTINUOUS
10
1.04858
20
0.220236
11
0.942249
21
0.220236
0
LINE
8
BLACK
6
CONTINUOUS
10
0.942249
20
0.220236
11
0.924294
21
0.202281
0
LINE
8
BLACK
6
CONTINUOUS
10
0.924294
20
0.202281
11
0.923621
21
0.201892
0
LINE
8
BLACK
6
CONTINUOUS
10
0.923621
20
0.201892
11
0.923071
21
0.201342
0
LINE
8
BLACK
6
CONTINUOUS
10
0.923071
20
0.201342
11
0.92232
21
0.201141
0
LINE
8
BLACK
6
CONTINUOUS
10
0.92232
20
0.201141
11
0.921647
21
0.200752
0
LINE
8
BLACK
6
CONTINUOUS
10
0.921647
20
0.200752
11
0.920869
21
0.200752
0
LINE
8
BLACK
6
CONTINUOUS
10
0.920869
20
0.200752
11
0.920118
21
0.200551
0
LINE
8
BLACK
6
CONTINUOUS
10
0.920118
20
0.200551
11
0.863543
21
0.200551
0
LINE
8
BLACK
6
CONTINUOUS
10
0.863543
20
0.200551
11
0.862792
21
0.200752
0
LINE
8
BLACK
6
CONTINUOUS
10
0.862792
20
0.200752
11
0.862015
21
0.200752
0
LINE
8
BLACK
6
CONTINUOUS
10
0.862015
20
0.200752
11
0.861342
21
0.201141
0
LINE
8
BLACK
6
CONTINUOUS
10
0.861342
20
0.201141
11
0.860591
21
0.201342
0
LINE
8
BLACK
6
CONTINUOUS
10
0.860591
20
0.201342
11
0.860041
21
0.201892
0
LINE
8
BLACK
6
CONTINUOUS
10
0.860041
20
0.201892
11
0.859367
21
0.202281
0
LINE
8
BLACK
6
CONTINUOUS
10
0.859367
20
0.202281
11
0.747554
21
0.314094
0
LINE
8
BLACK
6
CONTINUOUS
10
0.747554
20
0.314094
11
0.624448
21
0.314094
0
LINE
8
BLACK
6
CONTINUOUS
10
0.624448
20
0.314094
11
0.62274
21
0.310744
0
LINE
8
BLACK
6
CONTINUOUS
10
0.62274
20
0.310744
11
0.619256
21
0.30726
0
LINE
8
BLACK
6
CONTINUOUS
10
0.619256
20
0.30726
11
0.614866
21
0.305023
0
LINE
8
BLACK
6
CONTINUOUS
10
0.614866
20
0.305023
11
0.61
21
0.304252
0
LINE
8
BLACK
6
CONTINUOUS
10
0.61
20
0.304252
11
0.605134
21
0.305023
0
LINE
8
BLACK
6
CONTINUOUS
10
0.605134
20
0.305023
11
0.600744
21
0.30726
0
LINE
8
BLACK
6
CONTINUOUS
10
0.600744
20
0.30726
11
0.59726
21
0.310744
0
LINE
8
BLACK
6
CONTINUOUS
10
0.59726
20
0.310744
11
0.595552
21
0.314094
0
LINE
8
BLACK
6
CONTINUOUS
10
0.595552
20
0.314094
11
0.282148
21
0.314094
0
LINE
8
BLACK
6
CONTINUOUS
10
0.282148
20
0.314094
11
0.282323
21
0.312992
0
LINE
8
BLACK
6
CONTINUOUS
10
0.282323
20
0.312992
11
0.281552
21
0.308126
0
LINE
8
BLACK
6
CONTINUOUS
10
0.281552
20
0.308126
11
0.279315
21
0.303736
0
LINE
8
BLACK
6
CONTINUOUS
10
0.279315
20
0.303736
11
0.275831
21
0.300252
0
LINE
8
BLACK
6
CONTINUOUS
10
0.275831
20
0.300252
11
0.271441
21
0.298015
0
LINE
8
BLACK
6
CONTINUOUS
10
0.271441
20
0.298015
11
0.266575
21
0.297244
0
LINE
8
BLACK
6
CONTINUOUS
10
0.266575
20
0.297244
11
0.261708
21
0.298015
0
LINE
8
BLACK
6
CONTINUOUS
10
0.261708
20
0.298015
11
0.257318
21
0.300252
0
LINE
8
BLACK
6
CONTINUOUS
10
0.257318
20
0.300252
11
0.253834
21
0.303736
0
LINE
8
BLACK
6
CONTINUOUS
10
0.253834
20
0.303736
11
0.251598
21
0.308126
0
LINE
8
BLACK
6
CONTINUOUS
10
0.251598
20
0.308126
11
0.250827
21
0.312992
0
LINE
8
BLACK
6
CONTINUOUS
10
0.250827
20
0.312992
11
0.251598
21
0.317859
0
LINE
8
BLACK
6
CONTINUOUS
10
0.251598
20
0.317859
11
0.253834
21
0.322249
0
LINE
8
BLACK
6
CONTINUOUS
10
0.253834
20
0.322249
11
0.257318
21
0.325733
0
LINE
8
BLACK
6
CONTINUOUS
10
0.257318
20
0.325733
11
0.261708
21
0.327969
0
LINE
8
BLACK
6
CONTINUOUS
10
0.261708
20
0.327969
11
0.266575
21
0.32874
0
LINE
8
BLACK
6
CONTINUOUS
10
0.266575
20
0.32874
11
0.271441
21
0.327969
0
LINE
8
BLACK
6
CONTINUOUS
10
0.271441
20
0.327969
11
0.275492
21
0.325906
0
LINE
8
BLACK
6
CONTINUOUS
10
0.275492
20
0.325906
11
0.595552
21
0.325906
0
LINE
8
BLACK
6
CONTINUOUS
10
0.595552
20
0.325906
11
0.59726
21
0.329256
0
LINE
8
BLACK
6
CONTINUOUS
10
0.59726
20
0.329256
11
0.600744
21
0.33274
0
LINE
8
BLACK
6
CONTINUOUS
10
0.600744
20
0.33274
11
0.605134
21
0.334977
0
LINE
8
BLACK
6
CONTINUOUS
10
0.605134
20
0.334977
11
0.61
21
0.335748
0
LINE
8
BLACK
6
CONTINUOUS
10
0.61
20
0.335748
11
0.614866
21
0.334977
0
LINE
8
BLACK
6
CONTINUOUS
10
0.614866
20
0.334977
11
0.619256
21
0.33274
0
LINE
8
BLACK
6
CONTINUOUS
10
0.619256
20
0.33274
11
0.62274
21
0.329256
0
LINE
8
BLACK
6
CONTINUOUS
10
0.62274
20
0.329256
11
0.624448
21
0.325906
0
LINE
8
BLACK
6
CONTINUOUS
10
0.624448
20
0.325906
11
0.75
21
0.325906
0
LINE
8
BLACK
6
CONTINUOUS
10
0.75
20
0.325906
11
0.750751
21
0.325704
0
LINE
8
BLACK
6
CONTINUOUS
10
0.750751
20
0.325704
11
0.751528
21
0.325704
0
LINE
8
BLACK
6
CONTINUOUS
10
0.751528
20
0.325704
11
0.752202
21
0.325316
0
LINE
8
BLACK
6
CONTINUOUS
10
0.752202
20
0.325316
11
0.752953
21
0.325114
0
LINE
8
BLACK
6
CONTINUOUS
10
0.752953
20
0.325114
11
0.753503
21
0.324565
0
LINE
8
BLACK
6
CONTINUOUS
10
0.753503
20
0.324565
11
0.754176
21
0.324176
0
LINE
8
BLACK
6
CONTINUOUS
10
0.754176
20
0.324176
11
0.865989
21
0.212362
0
LINE
8
BLACK
6
CONTINUOUS
10
0.865989
20
0.212362
11
0.917672
21
0.212362
0
LINE
8
BLACK
6
CONTINUOUS
10
0.917672
20
0.212362
11
0.935627
21
0.230318
0
LINE
8
BLACK
6
CONTINUOUS
10
0.628882
20
0.231513
11
0.633272
21
0.229276
0
LINE
8
BLACK
6
CONTINUOUS
10
0.633272
20
0.229276
11
0.636756
21
0.225792
0
LINE
8
BLACK
6
CONTINUOUS
10
0.636756
20
0.225792
11
0.638993
21
0.221402
0
LINE
8
BLACK
6
CONTINUOUS
10
0.638993
20
0.221402
11
0.639764
21
0.216535
0
LINE
8
BLACK
6
CONTINUOUS
10
0.639764
20
0.216535
11
0.638993
21
0.211669
0
LINE
8
BLACK
6
CONTINUOUS
10
0.638993
20
0.211669
11
0.636756
21
0.207279
0
LINE
8
BLACK
6
CONTINUOUS
10
0.636756
20
0.207279
11
0.633272
21
0.203795
0
LINE
8
BLACK
6
CONTINUOUS
10
0.633272
20
0.203795
11
0.628882
21
0.201558
0
LINE
8
BLACK
6
CONTINUOUS
10
0.628882
20
0.201558
11
0.624016
21
0.200787
0
LINE
8
BLACK
6
CONTINUOUS
10
0.624016
20
0.200787
11
0.620034
21
0.201418
0
LINE
8
BLACK
6
CONTINUOUS
10
0.620034
20
0.201418
11
0.599062
21
0.180446
0
LINE
8
BLACK
6
CONTINUOUS
10
0.599062
20
0.180446
11
0.597947
21
0.179748
0
LINE
8
BLACK
6
CONTINUOUS
10
0.597947
20
0.179748
11
0.596919
21
0.178929
0
LINE
8
BLACK
6
CONTINUOUS
10
0.596919
20
0.178929
11
0.596477
21
0.178828
0
LINE
8
BLACK
6
CONTINUOUS
10
0.596477
20
0.178828
11
0.596093
21
0.178588
0
LINE
8
BLACK
6
CONTINUOUS
10
0.596093
20
0.178588
11
0.594786
21
0.178442
0
LINE
8
BLACK
6
CONTINUOUS
10
0.594786
20
0.178442
11
0.593504
21
0.17815
0
LINE
8
BLACK
6
CONTINUOUS
10
0.593504
20
0.17815
11
0.52624
21
0.17815
0
LINE
8
BLACK
6
CONTINUOUS
10
0.52624
20
0.17815
11
0.525536
21
0.176767
0
LINE
8
BLACK
6
CONTINUOUS
10
0.525536
20
0.176767
11
0.522052
21
0.173283
0
LINE
8
BLACK
6
CONTINUOUS
10
0.522052
20
0.173283
11
0.517662
21
0.171046
0
LINE
8
BLACK
6
CONTINUOUS
10
0.517662
20
0.171046
11
0.512795
21
0.170276
0
LINE
8
BLACK
6
CONTINUOUS
10
0.512795
20
0.170276
11
0.507929
21
0.171046
0
LINE
8
BLACK
6
CONTINUOUS
10
0.507929
20
0.171046
11
0.503539
21
0.173283
0
LINE
8
BLACK
6
CONTINUOUS
10
0.503539
20
0.173283
11
0.500055
21
0.176767
0
LINE
8
BLACK
6
CONTINUOUS
10
0.500055
20
0.176767
11
0.497818
21
0.181157
0
LINE
8
BLACK
6
CONTINUOUS
10
0.497818
20
0.181157
11
0.497047
21
0.186024
0
LINE
8
BLACK
6
CONTINUOUS
10
0.497047
20
0.186024
11
0.497818
21
0.19089
0
LINE
8
BLACK
6
CONTINUOUS
10
0.497818
20
0.19089
11
0.500055
21
0.19528
0
LINE
8
BLACK
6
CONTINUOUS
10
0.500055
20
0.19528
11
0.503539
21
0.198764
0
LINE
8
BLACK
6
CONTINUOUS
10
0.503539
20
0.198764
11
0.507929
21
0.201001
0
LINE
8
BLACK
6
CONTINUOUS
10
0.507929
20
0.201001
11
0.512795
21
0.201772
0
LINE
8
BLACK
6
CONTINUOUS
10
0.512795
20
0.201772
11
0.517662
21
0.201001
0
LINE
8
BLACK
6
CONTINUOUS
10
0.517662
20
0.201001
11
0.522052
21
0.198764
0
LINE
8
BLACK
6
CONTINUOUS
10
0.522052
20
0.198764
11
0.525536
21
0.19528
0
LINE
8
BLACK
6
CONTINUOUS
10
0.525536
20
0.19528
11
0.52624
21
0.193898
0
LINE
8
BLACK
6
CONTINUOUS
10
0.52624
20
0.193898
11
0.590242
21
0.193898
0
LINE
8
BLACK
6
CONTINUOUS
10
0.590242
20
0.193898
11
0.608898
21
0.212554
0
LINE
8
BLACK
6
CONTINUOUS
10
0.608898
20
0.212554
11
0.608268
21
0.216535
0
LINE
8
BLACK
6
CONTINUOUS
10
0.608268
20
0.216535
11
0.609038
21
0.221402
0
LINE
8
BLACK
6
CONTINUOUS
10
0.609038
20
0.221402
11
0.611275
21
0.225792
0
LINE
8
BLACK
6
CONTINUOUS
10
0.611275
20
0.225792
11
0.614759
21
0.229276
0
LINE
8
BLACK
6
CONTINUOUS
10
0.614759
20
0.229276
11
0.619149
21
0.231513
0
LINE
8
BLACK
6
CONTINUOUS
10
0.619149
20
0.231513
11
0.624016
21
0.232283
0
LINE
8
BLACK
6
CONTINUOUS
10
0.624016
20
0.232283
11
0.628882
21
0.231513
0
LINE
8
BLACK
6
CONTINUOUS
10
0.570078
20
0.432131
11
0.570709
21
0.42815
0
LINE
8
BLACK
6
CONTINUOUS
10
0.570709
20
0.42815
11
0.569938
21
0.423283
0
LINE
8
BLACK
6
CONTINUOUS
10
0.569938
20
0.423283
11
0.567701
21
0.418893
0
LINE
8
BLACK
6
CONTINUOUS
10
0.567701
20
0.418893
11
0.564217
21
0.415409
0
LINE
8
BLACK
6
CONTINUOUS
10
0.564217
20
0.415409
11
0.559827
21
0.413172
0
LINE
8
BLACK
6
CONTINUOUS
10
0.559827
20
0.413172
11
0.554961
21
0.412402
0
LINE
8
BLACK
6
CONTINUOUS
10
0.554961
20
0.412402
11
0.550094
21
0.413172
0
LINE
8
BLACK
6
CONTINUOUS
10
0.550094
20
0.413172
11
0.545704
21
0.415409
0
LINE
8
BLACK
6
CONTINUOUS
10
0.545704
20
0.415409
11
0.54222
21
0.418893
0
LINE
8
BLACK
6
CONTINUOUS
10
0.54222
20
0.418893
11
0.539983
21
0.423283
0
LINE
8
BLACK
6
CONTINUOUS
10
0.539983
20
0.423283
11
0.539213
21
0.42815
0
LINE
8
BLACK
6
CONTINUOUS
10
0.539213
20
0.42815
11
0.539983
21
0.433016
0
LINE
8
BLACK
6
CONTINUOUS
10
0.539983
20
0.433016
11
0.54222
21
0.437406
0
LINE
8
BLACK
6
CONTINUOUS
10
0.54222
20
0.437406
11
0.545704
21
0.44089
0
LINE
8
BLACK
6
CONTINUOUS
10
0.545704
20
0.44089
11
0.550094
21
0.443127
0
LINE
8
BLACK
6
CONTINUOUS
10
0.550094
20
0.443127
11
0.554961
21
0.443898
0
LINE
8
BLACK
6
CONTINUOUS
10
0.554961
20
0.443898
11
0.558942
21
0.443267
0
LINE
8
BLACK
6
CONTINUOUS
10
0.558942
20
0.443267
11
0.565151
21
0.449475
0
LINE
8
BLACK
6
CONTINUOUS
10
0.565151
20
0.449475
11
0.566266
21
0.450173
0
LINE
8
BLACK
6
CONTINUOUS
10
0.566266
20
0.450173
11
0.567294
21
0.450993
0
LINE
8
BLACK
6
CONTINUOUS
10
0.567294
20
0.450993
11
0.567735
21
0.451093
0
LINE
8
BLACK
6
CONTINUOUS
10
0.567735
20
0.451093
11
0.568119
21
0.451334
0
LINE
8
BLACK
6
CONTINUOUS
10
0.568119
20
0.451334
11
0.569426
21
0.451479
0
LINE
8
BLACK
6
CONTINUOUS
10
0.569426
20
0.451479
11
0.570709
21
0.451772
0
LINE
8
BLACK
6
CONTINUOUS
10
0.570709
20
0.451772
11
0.781116
21
0.451772
0
LINE
8
BLACK
6
CONTINUOUS
10
0.781116
20
0.451772
11
0.782398
21
0.451477
0
LINE
8
BLACK
6
CONTINUOUS
10
0.782398
20
0.451477
11
0.783705
21
0.451329
0
LINE
8
BLACK
6
CONTINUOUS
10
0.783705
20
0.451329
11
0.784088
21
0.451088
0
LINE
8
BLACK
6
CONTINUOUS
10
0.784088
20
0.451088
11
0.784529
21
0.450987
0
LINE
8
BLACK
6
CONTINUOUS
10
0.784529
20
0.450987
11
0.785557
21
0.450165
0
LINE
8
BLACK
6
CONTINUOUS
10
0.785557
20
0.450165
11
0.78667
21
0.449465
0
LINE
8
BLACK
6
CONTINUOUS
10
0.78667
20
0.449465
11
0.813261
21
0.422874
0
LINE
8
BLACK
6
CONTINUOUS
10
0.813261
20
0.422874
11
0.923131
21
0.422874
0
LINE
8
BLACK
6
CONTINUOUS
10
0.923131
20
0.422874
11
0.966922
21
0.443877
0
LINE
8
BLACK
6
CONTINUOUS
10
0.966922
20
0.443877
11
0.968623
21
0.44426
0
LINE
8
BLACK
6
CONTINUOUS
10
0.968623
20
0.44426
11
0.970315
21
0.444646
0
LINE
8
BLACK
6
CONTINUOUS
10
0.970315
20
0.444646
11
1.04513
21
0.444646
0
LINE
8
BLACK
6
CONTINUOUS
10
1.04513
20
0.444646
11
1.04641
21
0.444351
0
LINE
8
BLACK
6
CONTINUOUS
10
1.04641
20
0.444351
11
1.04772
21
0.444203
0
LINE
8
BLACK
6
CONTINUOUS
10
1.04772
20
0.444203
11
1.0481
21
0.443962
0
LINE
8
BLACK
6
CONTINUOUS
10
1.0481
20
0.443962
11
1.04855
21
0.443861
0
LINE
8
BLACK
6
CONTINUOUS
10
1.04855
20
0.443861
11
1.04957
21
0.443039
0
LINE
8
BLACK
6
CONTINUOUS
10
1.04957
20
0.443039
11
1.05069
21
0.442339
0
LINE
8
BLACK
6
CONTINUOUS
10
1.05069
20
0.442339
11
1.07854
21
0.414487
0
LINE
8
BLACK
6
CONTINUOUS
10
1.07854
20
0.414487
11
1.08252
21
0.415118
0
LINE
8
BLACK
6
CONTINUOUS
10
1.08252
20
0.415118
11
1.08739
21
0.414347
0
LINE
8
BLACK
6
CONTINUOUS
10
1.08739
20
0.414347
11
1.09178
21
0.412111
0
LINE
8
BLACK
6
CONTINUOUS
10
1.09178
20
0.412111
11
1.09526
21
0.408627
0
LINE
8
BLACK
6
CONTINUOUS
10
1.09526
20
0.408627
11
1.0975
21
0.404236
0
LINE
8
BLACK
6
CONTINUOUS
10
1.0975
20
0.404236
11
1.09827
21
0.39937
0
LINE
8
BLACK
6
CONTINUOUS
10
1.09827
20
0.39937
11
1.0975
21
0.394504
0
LINE
8
BLACK
6
CONTINUOUS
10
1.0975
20
0.394504
11
1.09526
21
0.390114
0
LINE
8
BLACK
6
CONTINUOUS
10
1.09526
20
0.390114
11
1.09178
21
0.38663
0
LINE
8
BLACK
6
CONTINUOUS
10
1.09178
20
0.38663
11
1.08739
21
0.384393
0
LINE
8
BLACK
6
CONTINUOUS
10
1.08739
20
0.384393
11
1.08252
21
0.383622
0
LINE
8
BLACK
6
CONTINUOUS
10
1.08252
20
0.383622
11
1.07765
21
0.384393
0
LINE
8
BLACK
6
CONTINUOUS
10
1.07765
20
0.384393
11
1.07326
21
0.38663
0
LINE
8
BLACK
6
CONTINUOUS
10
1.07326
20
0.38663
11
1.06978
21
0.390114
0
LINE
8
BLACK
6
CONTINUOUS
10
1.06978
20
0.390114
11
1.06754
21
0.394504
0
LINE
8
BLACK
6
CONTINUOUS
10
1.06754
20
0.394504
11
1.06677
21
0.39937
0
LINE
8
BLACK
6
CONTINUOUS
10
1.06677
20
0.39937
11
1.0674
21
0.403352
0
LINE
8
BLACK
6
CONTINUOUS
10
1.0674
20
0.403352
11
1.04186
21
0.428898
0
LINE
8
BLACK
6
CONTINUOUS
10
1.04186
20
0.428898
11
0.972106
21
0.428898
0
LINE
8
BLACK
6
CONTINUOUS
10
0.972106
20
0.428898
11
0.928314
21
0.407894
0
LINE
8
BLACK
6
CONTINUOUS
10
0.928314
20
0.407894
11
0.926615
21
0.407512
0
LINE
8
BLACK
6
CONTINUOUS
10
0.926615
20
0.407512
11
0.924921
21
0.407126
0
LINE
8
BLACK
6
CONTINUOUS
10
0.924921
20
0.407126
11
0.809986
21
0.407126
0
LINE
8
BLACK
6
CONTINUOUS
10
0.809986
20
0.407126
11
0.808704
21
0.407421
0
LINE
8
BLACK
6
CONTINUOUS
10
0.808704
20
0.407421
11
0.807398
21
0.407569
0
LINE
8
BLACK
6
CONTINUOUS
10
0.807398
20
0.407569
11
0.807014
21
0.407809
0
LINE
8
BLACK
6
CONTINUOUS
10
0.807014
20
0.407809
11
0.806573
21
0.407911
0
LINE
8
BLACK
6
CONTINUOUS
10
0.806573
20
0.407911
11
0.805546
21
0.408732
0
LINE
8
BLACK
6
CONTINUOUS
10
0.805546
20
0.408732
11
0.804432
21
0.409432
0
LINE
8
BLACK
6
CONTINUOUS
10
0.804432
20
0.409432
11
0.777841
21
0.436024
0
LINE
8
BLACK
6
CONTINUOUS
10
0.777841
20
0.436024
11
0.57397
21
0.436024
0
LINE
8
BLACK
6
CONTINUOUS
10
0.57397
20
0.436024
11
0.570078
21
0.432131
0
LINE
8
BLACK
6
CONTINUOUS
10
0.0137795
20
0.128937
11
0.010013
21
0.129686
0
LINE
8
BLACK
6
CONTINUOUS
10
0.010013
20
0.129686
11
0.0068198
21
0.13182
0
LINE
8
BLACK
6
CONTINUOUS
10
0.0068198
20
0.13182
11
0.00468622
21
0.135013
0
LINE
8
BLACK
6
CONTINUOUS
10
0.00468622
20
0.135013
11
0.00393701
21
0.13878
0
LINE
8
BLACK
6
CONTINUOUS
10
0.00393701
20
0.13878
11
0.00393701
21
0.158465
0
LINE
8
BLACK
6
CONTINUOUS
10
0.00393701
20
0.158465
11
0.00468622
21
0.162231
0
LINE
8
BLACK
6
CONTINUOUS
10
0.00468622
20
0.162231
11
0.0068198
21
0.165424
0
LINE
8
BLACK
6
CONTINUOUS
10
0.0068198
20
0.165424
11
0.010013
21
0.167558
0
LINE
8
BLACK
6
CONTINUOUS
10
0.010013
20
0.167558
11
0.0137795
21
0.168307
0
LINE
8
BLACK
6
CONTINUOUS
10
0.0137795
20
0.168307
11
0.0470866
21
0.168307
0
LINE
8
BLACK
6
CONTINUOUS
10
0.0470866
20
0.168307
11
0.0470866
21
0.187793
0
LINE
8
BLACK
6
CONTINUOUS
10
0.0470866
20
0.187793
11
0.0469434
21
0.188187
0
LINE
8
BLACK
6
CONTINUOUS
10
0.0469434
20
0.188187
11
0.0467352
21
0.188307
0
LINE
8
BLACK
6
CONTINUOUS
10
0.0467352
20
0.188307
11
0.0118719
21
0.188307
0
LINE
8
BLACK
6
CONTINUOUS
10
0.0118719
20
0.188307
11
0.0117222
21
0.188299
0
LINE
8
BLACK
6
CONTINUOUS
10
0.0117222
20
0.188299
11
0.0111078
21
0.188236
0
LINE
8
BLACK
6
CONTINUOUS
10
0.0111078
20
0.188236
11
0.00917476
21
0.18872
0
LINE
8
BLACK
6
CONTINUOUS
10
0.00917476
20
0.18872
11
0.00800551
21
0.190334
0
LINE
8
BLACK
6
CONTINUOUS
10
0.00800551
20
0.190334
11
0.0078937
21
0.191133
0
LINE
8
BLACK
6
CONTINUOUS
10
0.0078937
20
0.191133
11
0.0078937
21
0.399417
0
LINE
8
BLACK
6
CONTINUOUS
10
0.0078937
20
0.399417
11
0.00857531
21
0.40129
0
LINE
8
BLACK
6
CONTINUOUS
10
0.00857531
20
0.40129
11
0.0103012
21
0.402286
0
LINE
8
BLACK
6
CONTINUOUS
10
0.0103012
20
0.402286
11
0.0111041
21
0.402315
0
LINE
8
BLACK
6
CONTINUOUS
10
0.0111041
20
0.402315
11
0.0117228
21
0.402252
0
LINE
8
BLACK
6
CONTINUOUS
10
0.0117228
20
0.402252
11
0.0118712
21
0.402244
0
LINE
8
BLACK
6
CONTINUOUS
10
0.0118712
20
0.402244
11
0.0465729
21
0.402244
0
LINE
8
BLACK
6
CONTINUOUS
10
0.0465729
20
0.402244
11
0.0469665
21
0.402387
0
LINE
8
BLACK
6
CONTINUOUS
10
0.0469665
20
0.402387
11
0.0470866
21
0.402595
0
LINE
8
BLACK
6
CONTINUOUS
10
0.0470866
20
0.402595
11
0.0470866
21
0.422244
0
LINE
8
BLACK
6
CONTINUOUS
10
0.0470866
20
0.422244
11
0.0137795
21
0.422244
0
LINE
8
BLACK
6
CONTINUOUS
10
0.0137795
20
0.422244
11
0.010013
21
0.422993
0
LINE
8
BLACK
6
CONTINUOUS
10
0.010013
20
0.422993
11
0.0068198
21
0.425127
0
LINE
8
BLACK
6
CONTINUOUS
10
0.0068198
20
0.425127
11
0.00468622
21
0.42832
0
LINE
8
BLACK
6
CONTINUOUS
10
0.00468622
20
0.42832
11
0.00393701
21
0.432087
0
LINE
8
BLACK
6
CONTINUOUS
10
0.00393701
20
0.432087
11
0.00393701
21
0.451772
0
LINE
8
BLACK
6
CONTINUOUS
10
0.00393701
20
0.451772
11
0.00468622
21
0.455538
0
LINE
8
BLACK
6
CONTINUOUS
10
0.00468622
20
0.455538
11
0.0068198
21
0.458731
0
LINE
8
BLACK
6
CONTINUOUS
10
0.0068198
20
0.458731
11
0.010013
21
0.460865
0
LINE
8
BLACK
6
CONTINUOUS
10
0.010013
20
0.460865
11
0.0137795
21
0.461614
0
LINE
8
BLACK
6
CONTINUOUS
10
0.0137795
20
0.461614
11
0.0470866
21
0.461614
0
LINE
8
BLACK
6
CONTINUOUS
10
0.0470866
20
0.461614
11
0.0470866
21
0.4811
0
LINE
8
BLACK
6
CONTINUOUS
10
0.0470866
20
0.4811
11
0.0469434
21
0.481494
0
LINE
8
BLACK
6
CONTINUOUS
10
0.0469434
20
0.481494
11
0.0467352
21
0.481614
0
LINE
8
BLACK
6
CONTINUOUS
10
0.0467352
20
0.481614
11
0.0118719
21
0.481614
0
LINE
8
BLACK
6
CONTINUOUS
10
0.0118719
20
0.481614
11
0.0117222
21
0.481606
0
LINE
8
BLACK
6
CONTINUOUS
10
0.0117222
20
0.481606
11
0.0111078
21
0.481543
0
LINE
8
BLACK
6
CONTINUOUS
10
0.0111078
20
0.481543
11
0.00917476
21
0.482027
0
LINE
8
BLACK
6
CONTINUOUS
10
0.00917476
20
0.482027
11
0.00800551
21
0.483641
0
LINE
8
BLACK
6
CONTINUOUS
10
0.00800551
20
0.483641
11
0.0078937
21
0.48444
0
LINE
8
BLACK
6
CONTINUOUS
10
0.0078937
20
0.48444
11
0.0078937
21
0.579744
0
LINE
8
BLACK
6
CONTINUOUS
10
0.0078937
20
0.579744
11
0.00857531
21
0.581617
0
LINE
8
BLACK
6
CONTINUOUS
10
0.00857531
20
0.581617
11
0.0103012
21
0.582613
0
LINE
8
BLACK
6
CONTINUOUS
10
0.0103012
20
0.582613
11
0.0108071
21
0.582657
0
LINE
8
BLACK
6
CONTINUOUS
10
0.0108071
20
0.582657
11
0.029386
21
0.582657
0
LINE
8
BLACK
6
CONTINUOUS
10
0.029386
20
0.582657
11
0.0312587
21
0.581976
0
LINE
8
BLACK
6
CONTINUOUS
10
0.0312587
20
0.581976
11
0.0322547
21
0.580253
0
LINE
8
BLACK
6
CONTINUOUS
10
0.0322547
20
0.580253
11
0.0333889
21
0.573853
0
LINE
8
BLACK
6
CONTINUOUS
10
0.0333889
20
0.573853
11
0.0334244
21
0.573748
0
LINE
8
BLACK
6
CONTINUOUS
10
0.0334244
20
0.573748
11
0.0334245
21
0.573748
0
LINE
8
BLACK
6
CONTINUOUS
10
0.0334245
20
0.573748
11
0.0360105
21
0.56613
0
LINE
8
BLACK
6
CONTINUOUS
10
0.0360105
20
0.56613
11
0.036663
21
0.564207
0
LINE
8
BLACK
6
CONTINUOUS
10
0.036663
20
0.564207
11
0.0367141
21
0.564109
0
LINE
8
BLACK
6
CONTINUOUS
10
0.0367141
20
0.564109
11
0.0367141
21
0.564109
0
LINE
8
BLACK
6
CONTINUOUS
10
0.0367141
20
0.564109
11
0.0398894
21
0.557996
0
LINE
8
BLACK
6
CONTINUOUS
10
0.0398894
20
0.557996
11
0.0413585
21
0.555168
0
LINE
8
BLACK
6
CONTINUOUS
10
0.0413585
20
0.555168
11
0.0414235
21
0.555079
0
LINE
8
BLACK
6
CONTINUOUS
10
0.0414235
20
0.555079
11
0.0414236
21
0.555079
0
LINE
8
BLACK
6
CONTINUOUS
10
0.0414236
20
0.555079
11
0.0455746
21
0.549397
0
LINE
8
BLACK
6
CONTINUOUS
10
0.0455746
20
0.549397
11
0.0473671
21
0.546943
0
LINE
8
BLACK
6
CONTINUOUS
10
0.0473671
20
0.546943
11
0.047445
21
0.546865
0
LINE
8
BLACK
6
CONTINUOUS
10
0.047445
20
0.546865
11
0.0524387
21
0.541845
0
LINE
8
BLACK
6
CONTINUOUS
10
0.0524387
20
0.541845
11
0.0545507
21
0.539722
0
LINE
8
BLACK
6
CONTINUOUS
10
0.0545507
20
0.539722
11
0.062744
21
0.53367
0
LINE
8
BLACK
6
CONTINUOUS
10
0.062744
20
0.53367
11
0.0628422
21
0.533619
0
LINE
8
BLACK
6
CONTINUOUS
10
0.0628422
20
0.533619
11
0.0716602
21
0.528979
0
LINE
8
BLACK
6
CONTINUOUS
10
0.0716602
20
0.528979
11
0.0716605
21
0.528979
0
LINE
8
BLACK
6
CONTINUOUS
10
0.0716605
20
0.528979
11
0.0717584
21
0.528928
0
LINE
8
BLACK
6
CONTINUOUS
10
0.0717584
20
0.528928
11
0.0813864
21
0.525603
0
LINE
8
BLACK
6
CONTINUOUS
10
0.0813864
20
0.525603
11
0.0814951
21
0.525583
0
LINE
8
BLACK
6
CONTINUOUS
10
0.0814951
20
0.525583
11
0.0814952
21
0.525583
0
LINE
8
BLACK
6
CONTINUOUS
10
0.0814952
20
0.525583
11
0.0855994
21
0.524834
0
LINE
8
BLACK
6
CONTINUOUS
10
0.0855994
20
0.524834
11
0.0914065
21
0.523773
0
LINE
8
BLACK
6
CONTINUOUS
10
0.0914065
20
0.523773
11
0.0914995
21
0.523768
0
LINE
8
BLACK
6
CONTINUOUS
10
0.0914995
20
0.523768
11
0.0914996
21
0.523768
0
LINE
8
BLACK
6
CONTINUOUS
10
0.0914996
20
0.523768
11
0.0946283
21
0.523604
0
LINE
8
BLACK
6
CONTINUOUS
10
0.0946283
20
0.523604
11
0.0946288
21
0.523604
0
LINE
8
BLACK
6
CONTINUOUS
10
0.0946288
20
0.523604
11
0.0946661
21
0.523602
0
LINE
8
BLACK
6
CONTINUOUS
10
0.0946661
20
0.523602
11
0.101015
21
0.523602
0
LINE
8
BLACK
6
CONTINUOUS
10
0.101015
20
0.523602
11
0.103829
21
0.523816
0
LINE
8
BLACK
6
CONTINUOUS
10
0.103829
20
0.523816
11
0.108472
21
0.52417
0
LINE
8
BLACK
6
CONTINUOUS
10
0.108472
20
0.52417
11
0.108472
21
0.52417
0
LINE
8
BLACK
6
CONTINUOUS
10
0.108472
20
0.52417
11
0.108582
21
0.524178
0
LINE
8
BLACK
6
CONTINUOUS
10
0.108582
20
0.524178
11
0.118505
21
0.526478
0
LINE
8
BLACK
6
CONTINUOUS
10
0.118505
20
0.526478
11
0.118607
21
0.526519
0
LINE
8
BLACK
6
CONTINUOUS
10
0.118607
20
0.526519
11
0.118607
21
0.526519
0
LINE
8
BLACK
6
CONTINUOUS
10
0.118607
20
0.526519
11
0.127863
21
0.530211
0
LINE
8
BLACK
6
CONTINUOUS
10
0.127863
20
0.530211
11
0.127863
21
0.530211
0
LINE
8
BLACK
6
CONTINUOUS
10
0.127863
20
0.530211
11
0.127965
21
0.530252
0
LINE
8
BLACK
6
CONTINUOUS
10
0.127965
20
0.530252
11
0.128061
21
0.530308
0
LINE
8
BLACK
6
CONTINUOUS
10
0.128061
20
0.530308
11
0.128061
21
0.530308
0
LINE
8
BLACK
6
CONTINUOUS
10
0.128061
20
0.530308
11
0.136651
21
0.535358
0
LINE
8
BLACK
6
CONTINUOUS
10
0.136651
20
0.535358
11
0.136651
21
0.535358
0
LINE
8
BLACK
6
CONTINUOUS
10
0.136651
20
0.535358
11
0.136746
21
0.535414
0
LINE
8
BLACK
6
CONTINUOUS
10
0.136746
20
0.535414
11
0.144645
21
0.541845
0
LINE
8
BLACK
6
CONTINUOUS
10
0.144645
20
0.541845
11
0.151481
21
0.549397
0
LINE
8
BLACK
6
CONTINUOUS
10
0.151481
20
0.549397
11
0.151542
21
0.549489
0
LINE
8
BLACK
6
CONTINUOUS
10
0.151542
20
0.549489
11
0.151542
21
0.54949
0
LINE
8
BLACK
6
CONTINUOUS
10
0.151542
20
0.54949
11
0.157034
21
0.557803
0
LINE
8
BLACK
6
CONTINUOUS
10
0.157034
20
0.557803
11
0.157034
21
0.557803
0
LINE
8
BLACK
6
CONTINUOUS
10
0.157034
20
0.557803
11
0.157095
21
0.557896
0
LINE
8
BLACK
6
CONTINUOUS
10
0.157095
20
0.557896
11
0.158421
21
0.560772
0
LINE
8
BLACK
6
CONTINUOUS
10
0.158421
20
0.560772
11
0.161314
21
0.567046
0
LINE
8
BLACK
6
CONTINUOUS
10
0.161314
20
0.567046
11
0.161314
21
0.567046
0
LINE
8
BLACK
6
CONTINUOUS
10
0.161314
20
0.567046
11
0.16136
21
0.567146
0
LINE
8
BLACK
6
CONTINUOUS
10
0.16136
20
0.567146
11
0.163002
21
0.572854
0
LINE
8
BLACK
6
CONTINUOUS
10
0.163002
20
0.572854
11
0.164145
21
0.576829
0
LINE
8
BLACK
6
CONTINUOUS
10
0.164145
20
0.576829
11
0.164176
21
0.576935
0
LINE
8
BLACK
6
CONTINUOUS
10
0.164176
20
0.576935
11
0.164538
21
0.579743
0
LINE
8
BLACK
6
CONTINUOUS
10
0.164538
20
0.579743
11
0.164586
21
0.580117
0
LINE
8
BLACK
6
CONTINUOUS
10
0.164586
20
0.580117
11
0.165502
21
0.581887
0
LINE
8
BLACK
6
CONTINUOUS
10
0.165502
20
0.581887
11
0.167476
21
0.582657
0
LINE
8
BLACK
6
CONTINUOUS
10
0.167476
20
0.582657
11
0.331613
21
0.582657
0
LINE
8
BLACK
6
CONTINUOUS
10
0.331613
20
0.582657
11
0.333486
21
0.581976
0
LINE
8
BLACK
6
CONTINUOUS
10
0.333486
20
0.581976
11
0.334482
21
0.58025
0
LINE
8
BLACK
6
CONTINUOUS
10
0.334482
20
0.58025
11
0.334527
21
0.579743
0
LINE
8
BLACK
6
CONTINUOUS
10
0.334527
20
0.579743
11
0.334526
21
0.575731
0
LINE
8
BLACK
6
CONTINUOUS
10
0.334526
20
0.575731
11
0.333844
21
0.573858
0
LINE
8
BLACK
6
CONTINUOUS
10
0.333844
20
0.573858
11
0.332118
21
0.572862
0
LINE
8
BLACK
6
CONTINUOUS
10
0.332118
20
0.572862
11
0.331846
21
0.572828
0
LINE
8
BLACK
6
CONTINUOUS
10
0.331846
20
0.572828
11
0.327319
21
0.572463
0
LINE
8
BLACK
6
CONTINUOUS
10
0.327319
20
0.572463
11
0.324854
21
0.572265
0
LINE
8
BLACK
6
CONTINUOUS
10
0.324854
20
0.572265
11
0.315315
21
0.569922
0
LINE
8
BLACK
6
CONTINUOUS
10
0.315315
20
0.569922
11
0.310794
21
0.568003
0
LINE
8
BLACK
6
CONTINUOUS
10
0.310794
20
0.568003
11
0.306381
21
0.56613
0
LINE
8
BLACK
6
CONTINUOUS
10
0.306381
20
0.56613
11
0.30638
21
0.56613
0
LINE
8
BLACK
6
CONTINUOUS
10
0.30638
20
0.56613
11
0.306273
21
0.566084
0
LINE
8
BLACK
6
CONTINUOUS
10
0.306273
20
0.566084
11
0.29796
21
0.560849
0
LINE
8
BLACK
6
CONTINUOUS
10
0.29796
20
0.560849
11
0.297872
21
0.560772
0
LINE
8
BLACK
6
CONTINUOUS
10
0.297872
20
0.560772
11
0.291415
21
0.555079
0
LINE
8
BLACK
6
CONTINUOUS
10
0.291415
20
0.555079
11
0.290592
21
0.554353
0
LINE
8
BLACK
6
CONTINUOUS
10
0.290592
20
0.554353
11
0.290518
21
0.554263
0
LINE
8
BLACK
6
CONTINUOUS
10
0.290518
20
0.554263
11
0.284431
21
0.546853
0
LINE
8
BLACK
6
CONTINUOUS
10
0.284431
20
0.546853
11
0.284431
21
0.546853
0
LINE
8
BLACK
6
CONTINUOUS
10
0.284431
20
0.546853
11
0.284357
21
0.546763
0
LINE
8
BLACK
6
CONTINUOUS
10
0.284357
20
0.546763
11
0.279416
21
0.538273
0
LINE
8
BLACK
6
CONTINUOUS
10
0.279416
20
0.538273
11
0.279374
21
0.538164
0
LINE
8
BLACK
6
CONTINUOUS
10
0.279374
20
0.538164
11
0.279374
21
0.538164
0
LINE
8
BLACK
6
CONTINUOUS
10
0.279374
20
0.538164
11
0.277649
21
0.53367
0
LINE
8
BLACK
6
CONTINUOUS
10
0.277649
20
0.53367
11
0.275895
21
0.529102
0
LINE
8
BLACK
6
CONTINUOUS
10
0.275895
20
0.529102
11
0.275872
21
0.528988
0
LINE
8
BLACK
6
CONTINUOUS
10
0.275872
20
0.528988
11
0.273911
21
0.519601
0
LINE
8
BLACK
6
CONTINUOUS
10
0.273911
20
0.519601
11
0.273911
21
0.519601
0
LINE
8
BLACK
6
CONTINUOUS
10
0.273911
20
0.519601
11
0.273887
21
0.519487
0
LINE
8
BLACK
6
CONTINUOUS
10
0.273887
20
0.519487
11
0.273441
21
0.509674
0
LINE
8
BLACK
6
CONTINUOUS
10
0.273441
20
0.509674
11
0.27457
21
0.499916
0
LINE
8
BLACK
6
CONTINUOUS
10
0.27457
20
0.499916
11
0.277245
21
0.490464
0
LINE
8
BLACK
6
CONTINUOUS
10
0.277245
20
0.490464
11
0.281396
21
0.481561
0
LINE
8
BLACK
6
CONTINUOUS
10
0.281396
20
0.481561
11
0.281462
21
0.481465
0
LINE
8
BLACK
6
CONTINUOUS
10
0.281462
20
0.481465
11
0.281462
21
0.481464
0
LINE
8
BLACK
6
CONTINUOUS
10
0.281462
20
0.481464
11
0.283195
21
0.478914
0
LINE
8
BLACK
6
CONTINUOUS
10
0.283195
20
0.478914
11
0.286918
21
0.473437
0
LINE
8
BLACK
6
CONTINUOUS
10
0.286918
20
0.473437
11
0.286998
21
0.473352
0
LINE
8
BLACK
6
CONTINUOUS
10
0.286998
20
0.473352
11
0.286998
21
0.473351
0
LINE
8
BLACK
6
CONTINUOUS
10
0.286998
20
0.473351
11
0.289643
21
0.470554
0
LINE
8
BLACK
6
CONTINUOUS
10
0.289643
20
0.470554
11
0.293667
21
0.466299
0
LINE
8
BLACK
6
CONTINUOUS
10
0.293667
20
0.466299
11
0.30147
21
0.460333
0
LINE
8
BLACK
6
CONTINUOUS
10
0.30147
20
0.460333
11
0.301573
21
0.460278
0
LINE
8
BLACK
6
CONTINUOUS
10
0.301573
20
0.460278
11
0.301574
21
0.460278
0
LINE
8
BLACK
6
CONTINUOUS
10
0.301574
20
0.460278
11
0.305696
21
0.458067
0
LINE
8
BLACK
6
CONTINUOUS
10
0.305696
20
0.458067
11
0.310128
21
0.455691
0
LINE
8
BLACK
6
CONTINUOUS
10
0.310128
20
0.455691
11
0.310238
21
0.455653
0
LINE
8
BLACK
6
CONTINUOUS
10
0.310238
20
0.455653
11
0.319305
21
0.452531
0
LINE
8
BLACK
6
CONTINUOUS
10
0.319305
20
0.452531
11
0.319305
21
0.452531
0
LINE
8
BLACK
6
CONTINUOUS
10
0.319305
20
0.452531
11
0.319415
21
0.452493
0
LINE
8
BLACK
6
CONTINUOUS
10
0.319415
20
0.452493
11
0.329095
21
0.450821
0
LINE
8
BLACK
6
CONTINUOUS
10
0.329095
20
0.450821
11
0.329186
21
0.450817
0
LINE
8
BLACK
6
CONTINUOUS
10
0.329186
20
0.450817
11
0.329187
21
0.450817
0
LINE
8
BLACK
6
CONTINUOUS
10
0.329187
20
0.450817
11
0.329859
21
0.450786
0
LINE
8
BLACK
6
CONTINUOUS
10
0.329859
20
0.450786
11
0.330273
21
0.450768
0
LINE
8
BLACK
6
CONTINUOUS
10
0.330273
20
0.450768
11
0.331582
21
0.450768
0
LINE
8
BLACK
6
CONTINUOUS
10
0.331582
20
0.450768
11
0.333454
21
0.450086
0
LINE
8
BLACK
6
CONTINUOUS
10
0.333454
20
0.450086
11
0.334451
21
0.44836
0
LINE
8
BLACK
6
CONTINUOUS
10
0.334451
20
0.44836
11
0.334495
21
0.447854
0
LINE
8
BLACK
6
CONTINUOUS
10
0.334495
20
0.447854
11
0.334495
21
0.445866
0
LINE
8
BLACK
6
CONTINUOUS
10
0.334495
20
0.445866
11
0.342697
21
0.445866
0
LINE
8
BLACK
6
CONTINUOUS
10
0.342697
20
0.445866
11
0.343401
21
0.447249
0
LINE
8
BLACK
6
CONTINUOUS
10
0.343401
20
0.447249
11
0.346885
21
0.450733
0
LINE
8
BLACK
6
CONTINUOUS
10
0.346885
20
0.450733
11
0.351275
21
0.452969
0
LINE
8
BLACK
6
CONTINUOUS
10
0.351275
20
0.452969
11
0.356142
21
0.45374
0
LINE
8
BLACK
6
CONTINUOUS
10
0.356142
20
0.45374
11
0.361008
21
0.452969
0
LINE
8
BLACK
6
CONTINUOUS
10
0.361008
20
0.452969
11
0.365398
21
0.450733
0
LINE
8
BLACK
6
CONTINUOUS
10
0.365398
20
0.450733
11
0.368882
21
0.447249
0
LINE
8
BLACK
6
CONTINUOUS
10
0.368882
20
0.447249
11
0.371119
21
0.442859
0
LINE
8
BLACK
6
CONTINUOUS
10
0.371119
20
0.442859
11
0.37189
21
0.437992
0
LINE
8
BLACK
6
CONTINUOUS
10
0.37189
20
0.437992
11
0.371119
21
0.433126
0
LINE
8
BLACK
6
CONTINUOUS
10
0.371119
20
0.433126
11
0.368882
21
0.428736
0
LINE
8
BLACK
6
CONTINUOUS
10
0.368882
20
0.428736
11
0.365398
21
0.425252
0
LINE
8
BLACK
6
CONTINUOUS
10
0.365398
20
0.425252
11
0.361008
21
0.423015
0
LINE
8
BLACK
6
CONTINUOUS
10
0.361008
20
0.423015
11
0.356142
21
0.422244
0
LINE
8
BLACK
6
CONTINUOUS
10
0.356142
20
0.422244
11
0.351275
21
0.423015
0
LINE
8
BLACK
6
CONTINUOUS
10
0.351275
20
0.423015
11
0.346885
21
0.425252
0
LINE
8
BLACK
6
CONTINUOUS
10
0.346885
20
0.425252
11
0.343401
21
0.428736
0
LINE
8
BLACK
6
CONTINUOUS
10
0.343401
20
0.428736
11
0.342697
21
0.430118
0
LINE
8
BLACK
6
CONTINUOUS
10
0.342697
20
0.430118
11
0.334491
21
0.430118
0
LINE
8
BLACK
6
CONTINUOUS
10
0.334491
20
0.430118
11
0.334484
21
0.40129
0
LINE
8
BLACK
6
CONTINUOUS
10
0.334484
20
0.40129
11
0.334469
21
0.336813
0
LINE
8
BLACK
6
CONTINUOUS
10
0.334469
20
0.336813
11
0.334469
21
0.336712
0
LINE
8
BLACK
6
CONTINUOUS
10
0.334469
20
0.336712
11
0.333787
21
0.334839
0
LINE
8
BLACK
6
CONTINUOUS
10
0.333787
20
0.334839
11
0.33206
21
0.333843
0
LINE
8
BLACK
6
CONTINUOUS
10
0.33206
20
0.333843
11
0.331555
21
0.333799
0
LINE
8
BLACK
6
CONTINUOUS
10
0.331555
20
0.333799
11
0.2787
21
0.333799
0
LINE
8
BLACK
6
CONTINUOUS
10
0.2787
20
0.333799
11
0.277586
21
0.334021
0
LINE
8
BLACK
6
CONTINUOUS
10
0.277586
20
0.334021
11
0.272923
21
0.335952
0
LINE
8
BLACK
6
CONTINUOUS
10
0.272923
20
0.335952
11
0.272923
21
0.335952
0
LINE
8
BLACK
6
CONTINUOUS
10
0.272923
20
0.335952
11
0.272747
21
0.336025
0
LINE
8
BLACK
6
CONTINUOUS
10
0.272747
20
0.336025
11
0.272557
21
0.33605
0
LINE
8
BLACK
6
CONTINUOUS
10
0.272557
20
0.33605
11
0.272557
21
0.33605
0
LINE
8
BLACK
6
CONTINUOUS
10
0.272557
20
0.33605
11
0.266764
21
0.336813
0
LINE
8
BLACK
6
CONTINUOUS
10
0.266764
20
0.336813
11
0.266575
21
0.336838
0
LINE
8
BLACK
6
CONTINUOUS
10
0.266575
20
0.336838
11
0.266386
21
0.336813
0
LINE
8
BLACK
6
CONTINUOUS
10
0.266386
20
0.336813
11
0.260592
21
0.33605
0
LINE
8
BLACK
6
CONTINUOUS
10
0.260592
20
0.33605
11
0.260592
21
0.33605
0
LINE
8
BLACK
6
CONTINUOUS
10
0.260592
20
0.33605
11
0.260403
21
0.336025
0
LINE
8
BLACK
6
CONTINUOUS
10
0.260403
20
0.336025
11
0.254652
21
0.333643
0
LINE
8
BLACK
6
CONTINUOUS
10
0.254652
20
0.333643
11
0.254501
21
0.333527
0
LINE
8
BLACK
6
CONTINUOUS
10
0.254501
20
0.333527
11
0.2545
21
0.333527
0
LINE
8
BLACK
6
CONTINUOUS
10
0.2545
20
0.333527
11
0.249888
21
0.329987
0
LINE
8
BLACK
6
CONTINUOUS
10
0.249888
20
0.329987
11
0.249713
21
0.329854
0
LINE
8
BLACK
6
CONTINUOUS
10
0.249713
20
0.329854
11
0.249597
21
0.329702
0
LINE
8
BLACK
6
CONTINUOUS
10
0.249597
20
0.329702
11
0.24604
21
0.325066
0
LINE
8
BLACK
6
CONTINUOUS
10
0.24604
20
0.325066
11
0.24604
21
0.325066
0
LINE
8
BLACK
6
CONTINUOUS
10
0.24604
20
0.325066
11
0.245924
21
0.324915
0
LINE
8
BLACK
6
CONTINUOUS
10
0.245924
20
0.324915
11
0.244343
21
0.321098
0
LINE
8
BLACK
6
CONTINUOUS
10
0.244343
20
0.321098
11
0.243642
21
0.319406
0
LINE
8
BLACK
6
CONTINUOUS
10
0.243642
20
0.319406
11
0.242296
21
0.317937
0
LINE
8
BLACK
6
CONTINUOUS
10
0.242296
20
0.317937
11
0.24032
21
0.317677
0
LINE
8
BLACK
6
CONTINUOUS
10
0.24032
20
0.317677
11
0.23889
21
0.318461
0
LINE
8
BLACK
6
CONTINUOUS
10
0.23889
20
0.318461
11
0.225443
21
0.331909
0
LINE
8
BLACK
6
CONTINUOUS
10
0.225443
20
0.331909
11
0.225442
21
0.331909
0
LINE
8
BLACK
6
CONTINUOUS
10
0.225442
20
0.331909
11
0.224554
21
0.332797
0
LINE
8
BLACK
6
CONTINUOUS
10
0.224554
20
0.332797
11
0.22435
21
0.332901
0
LINE
8
BLACK
6
CONTINUOUS
10
0.22435
20
0.332901
11
0.223639
21
0.333264
0
LINE
8
BLACK
6
CONTINUOUS
10
0.223639
20
0.333264
11
0.223249
21
0.333502
0
LINE
8
BLACK
6
CONTINUOUS
10
0.223249
20
0.333502
11
0.222604
21
0.333971
0
LINE
8
BLACK
6
CONTINUOUS
10
0.222604
20
0.333971
11
0.222604
21
0.333971
0
LINE
8
BLACK
6
CONTINUOUS
10
0.222604
20
0.333971
11
0.222418
21
0.334106
0
LINE
8
BLACK
6
CONTINUOUS
10
0.222418
20
0.334106
11
0.2222
21
0.334177
0
LINE
8
BLACK
6
CONTINUOUS
10
0.2222
20
0.334177
11
0.221996
21
0.334281
0
LINE
8
BLACK
6
CONTINUOUS
10
0.221996
20
0.334281
11
0.222005
21
0.334299
0
LINE
8
BLACK
6
CONTINUOUS
10
0.222005
20
0.334299
11
0.221052
21
0.334883
0
LINE
8
BLACK
6
CONTINUOUS
10
0.221052
20
0.334883
11
0.218924
21
0.337007
0
LINE
8
BLACK
6
CONTINUOUS
10
0.218924
20
0.337007
11
0.218924
21
0.337007
0
LINE
8
BLACK
6
CONTINUOUS
10
0.218924
20
0.337007
11
0.218754
21
0.337177
0
LINE
8
BLACK
6
CONTINUOUS
10
0.218754
20
0.337177
11
0.218538
21
0.337283
0
LINE
8
BLACK
6
CONTINUOUS
10
0.218538
20
0.337283
11
0.21483
21
0.339095
0
LINE
8
BLACK
6
CONTINUOUS
10
0.21483
20
0.339095
11
0.21483
21
0.339095
0
LINE
8
BLACK
6
CONTINUOUS
10
0.21483
20
0.339095
11
0.214627
21
0.339194
0
LINE
8
BLACK
6
CONTINUOUS
10
0.214627
20
0.339194
11
0.211938
21
0.339587
0
LINE
8
BLACK
6
CONTINUOUS
10
0.211938
20
0.339587
11
0.154204
21
0.339587
0
LINE
8
BLACK
6
CONTINUOUS
10
0.154204
20
0.339587
11
0.154098
21
0.339571
0
LINE
8
BLACK
6
CONTINUOUS
10
0.154098
20
0.339571
11
0.151716
21
0.33922
0
LINE
8
BLACK
6
CONTINUOUS
10
0.151716
20
0.33922
11
0.151716
21
0.33922
0
LINE
8
BLACK
6
CONTINUOUS
10
0.151716
20
0.33922
11
0.151492
21
0.339187
0
LINE
8
BLACK
6
CONTINUOUS
10
0.151492
20
0.339187
11
0.151289
21
0.339088
0
LINE
8
BLACK
6
CONTINUOUS
10
0.151289
20
0.339088
11
0.151288
21
0.339088
0
LINE
8
BLACK
6
CONTINUOUS
10
0.151288
20
0.339088
11
0.149484
21
0.338201
0
LINE
8
BLACK
6
CONTINUOUS
10
0.149484
20
0.338201
11
0.147368
21
0.337163
0
LINE
8
BLACK
6
CONTINUOUS
10
0.147368
20
0.337163
11
0.147198
21
0.336992
0
LINE
8
BLACK
6
CONTINUOUS
10
0.147198
20
0.336992
11
0.147198
21
0.336992
0
LINE
8
BLACK
6
CONTINUOUS
10
0.147198
20
0.336992
11
0.144317
21
0.334106
0
LINE
8
BLACK
6
CONTINUOUS
10
0.144317
20
0.334106
11
0.144122
21
0.333911
0
LINE
8
BLACK
6
CONTINUOUS
10
0.144122
20
0.333911
11
0.144017
21
0.333695
0
LINE
8
BLACK
6
CONTINUOUS
10
0.144017
20
0.333695
11
0.143144
21
0.331909
0
LINE
8
BLACK
6
CONTINUOUS
10
0.143144
20
0.331909
11
0.142105
21
0.329784
0
LINE
8
BLACK
6
CONTINUOUS
10
0.142105
20
0.329784
11
0.141713
21
0.327095
0
LINE
8
BLACK
6
CONTINUOUS
10
0.141713
20
0.327095
11
0.141713
21
0.312669
0
LINE
8
BLACK
6
CONTINUOUS
10
0.141713
20
0.312669
11
0.141728
21
0.312563
0
LINE
8
BLACK
6
CONTINUOUS
10
0.141728
20
0.312563
11
0.142079
21
0.31018
0
LINE
8
BLACK
6
CONTINUOUS
10
0.142079
20
0.31018
11
0.142079
21
0.31018
0
LINE
8
BLACK
6
CONTINUOUS
10
0.142079
20
0.31018
11
0.142112
21
0.309956
0
LINE
8
BLACK
6
CONTINUOUS
10
0.142112
20
0.309956
11
0.144137
21
0.305832
0
LINE
8
BLACK
6
CONTINUOUS
10
0.144137
20
0.305832
11
0.144307
21
0.305662
0
LINE
8
BLACK
6
CONTINUOUS
10
0.144307
20
0.305662
11
0.144307
21
0.305662
0
LINE
8
BLACK
6
CONTINUOUS
10
0.144307
20
0.305662
11
0.147217
21
0.302757
0
LINE
8
BLACK
6
CONTINUOUS
10
0.147217
20
0.302757
11
0.147388
21
0.302587
0
LINE
8
BLACK
6
CONTINUOUS
10
0.147388
20
0.302587
11
0.147604
21
0.302481
0
LINE
8
BLACK
6
CONTINUOUS
10
0.147604
20
0.302481
11
0.150493
21
0.301069
0
LINE
8
BLACK
6
CONTINUOUS
10
0.150493
20
0.301069
11
0.151515
21
0.300569
0
LINE
8
BLACK
6
CONTINUOUS
10
0.151515
20
0.300569
11
0.154204
21
0.300177
0
LINE
8
BLACK
6
CONTINUOUS
10
0.154204
20
0.300177
11
0.21137
21
0.300177
0
LINE
8
BLACK
6
CONTINUOUS
10
0.21137
20
0.300177
11
0.213242
21
0.299496
0
LINE
8
BLACK
6
CONTINUOUS
10
0.213242
20
0.299496
11
0.21343
21
0.299324
0
LINE
8
BLACK
6
CONTINUOUS
10
0.21343
20
0.299324
11
0.218217
21
0.294537
0
LINE
8
BLACK
6
CONTINUOUS
10
0.218217
20
0.294537
11
0.219059
21
0.292731
0
LINE
8
BLACK
6
CONTINUOUS
10
0.219059
20
0.292731
11
0.218543
21
0.290806
0
LINE
8
BLACK
6
CONTINUOUS
10
0.218543
20
0.290806
11
0.216911
21
0.289662
0
LINE
8
BLACK
6
CONTINUOUS
10
0.216911
20
0.289662
11
0.215054
21
0.289842
0
LINE
8
BLACK
6
CONTINUOUS
10
0.215054
20
0.289842
11
0.215046
21
0.289816
0
LINE
8
BLACK
6
CONTINUOUS
10
0.215046
20
0.289816
11
0.214918
21
0.289855
0
LINE
8
BLACK
6
CONTINUOUS
10
0.214918
20
0.289855
11
0.214878
21
0.289859
0
LINE
8
BLACK
6
CONTINUOUS
10
0.214878
20
0.289859
11
0.21483
21
0.289882
0
LINE
8
BLACK
6
CONTINUOUS
10
0.21483
20
0.289882
11
0.21483
21
0.289882
0
LINE
8
BLACK
6
CONTINUOUS
10
0.21483
20
0.289882
11
0.214627
21
0.289982
0
LINE
8
BLACK
6
CONTINUOUS
10
0.214627
20
0.289982
11
0.211938
21
0.290374
0
LINE
8
BLACK
6
CONTINUOUS
10
0.211938
20
0.290374
11
0.154204
21
0.290374
0
LINE
8
BLACK
6
CONTINUOUS
10
0.154204
20
0.290374
11
0.154098
21
0.290358
0
LINE
8
BLACK
6
CONTINUOUS
10
0.154098
20
0.290358
11
0.151716
21
0.290008
0
LINE
8
BLACK
6
CONTINUOUS
10
0.151716
20
0.290008
11
0.151716
21
0.290008
0
LINE
8
BLACK
6
CONTINUOUS
10
0.151716
20
0.290008
11
0.151492
21
0.289975
0
LINE
8
BLACK
6
CONTINUOUS
10
0.151492
20
0.289975
11
0.151289
21
0.289875
0
LINE
8
BLACK
6
CONTINUOUS
10
0.151289
20
0.289875
11
0.151288
21
0.289875
0
LINE
8
BLACK
6
CONTINUOUS
10
0.151288
20
0.289875
11
0.150149
21
0.289316
0
LINE
8
BLACK
6
CONTINUOUS
10
0.150149
20
0.289316
11
0.147368
21
0.28795
0
LINE
8
BLACK
6
CONTINUOUS
10
0.147368
20
0.28795
11
0.147198
21
0.28778
0
LINE
8
BLACK
6
CONTINUOUS
10
0.147198
20
0.28778
11
0.147198
21
0.287779
0
LINE
8
BLACK
6
CONTINUOUS
10
0.147198
20
0.287779
11
0.146711
21
0.287292
0
LINE
8
BLACK
6
CONTINUOUS
10
0.146711
20
0.287292
11
0.144906
21
0.286448
0
LINE
8
BLACK
6
CONTINUOUS
10
0.144906
20
0.286448
11
0.144649
21
0.286437
0
LINE
8
BLACK
6
CONTINUOUS
10
0.144649
20
0.286437
11
0.131332
21
0.286437
0
LINE
8
BLACK
6
CONTINUOUS
10
0.131332
20
0.286437
11
0.129459
21
0.287119
0
LINE
8
BLACK
6
CONTINUOUS
10
0.129459
20
0.287119
11
0.129272
21
0.28729
0
LINE
8
BLACK
6
CONTINUOUS
10
0.129272
20
0.28729
11
0.129182
21
0.287379
0
LINE
8
BLACK
6
CONTINUOUS
10
0.129182
20
0.287379
11
0.129066
21
0.287531
0
LINE
8
BLACK
6
CONTINUOUS
10
0.129066
20
0.287531
11
0.126089
21
0.289816
0
LINE
8
BLACK
6
CONTINUOUS
10
0.126089
20
0.289816
11
0.124279
21
0.291204
0
LINE
8
BLACK
6
CONTINUOUS
10
0.124279
20
0.291204
11
0.124279
21
0.291204
0
LINE
8
BLACK
6
CONTINUOUS
10
0.124279
20
0.291204
11
0.124128
21
0.29132
0
LINE
8
BLACK
6
CONTINUOUS
10
0.124128
20
0.29132
11
0.118376
21
0.293703
0
LINE
8
BLACK
6
CONTINUOUS
10
0.118376
20
0.293703
11
0.118187
21
0.293727
0
LINE
8
BLACK
6
CONTINUOUS
10
0.118187
20
0.293727
11
0.118187
21
0.293727
0
LINE
8
BLACK
6
CONTINUOUS
10
0.118187
20
0.293727
11
0.112394
21
0.29449
0
LINE
8
BLACK
6
CONTINUOUS
10
0.112394
20
0.29449
11
0.112205
21
0.294515
0
LINE
8
BLACK
6
CONTINUOUS
10
0.112205
20
0.294515
11
0.112015
21
0.29449
0
LINE
8
BLACK
6
CONTINUOUS
10
0.112015
20
0.29449
11
0.106222
21
0.293727
0
LINE
8
BLACK
6
CONTINUOUS
10
0.106222
20
0.293727
11
0.106222
21
0.293727
0
LINE
8
BLACK
6
CONTINUOUS
10
0.106222
20
0.293727
11
0.106033
21
0.293703
0
LINE
8
BLACK
6
CONTINUOUS
10
0.106033
20
0.293703
11
0.100282
21
0.29132
0
LINE
8
BLACK
6
CONTINUOUS
10
0.100282
20
0.29132
11
0.100131
21
0.291204
0
LINE
8
BLACK
6
CONTINUOUS
10
0.100131
20
0.291204
11
0.10013
21
0.291204
0
LINE
8
BLACK
6
CONTINUOUS
10
0.10013
20
0.291204
11
0.0983209
21
0.289816
0
LINE
8
BLACK
6
CONTINUOUS
10
0.0983209
20
0.289816
11
0.0953432
21
0.287531
0
LINE
8
BLACK
6
CONTINUOUS
10
0.0953432
20
0.287531
11
0.0952269
21
0.287379
0
LINE
8
BLACK
6
CONTINUOUS
10
0.0952269
20
0.287379
11
0.0916699
21
0.282744
0
LINE
8
BLACK
6
CONTINUOUS
10
0.0916699
20
0.282744
11
0.0916698
21
0.282744
0
LINE
8
BLACK
6
CONTINUOUS
10
0.0916698
20
0.282744
11
0.0915537
21
0.282592
0
LINE
8
BLACK
6
CONTINUOUS
10
0.0915537
20
0.282592
11
0.0891715
21
0.276841
0
LINE
8
BLACK
6
CONTINUOUS
10
0.0891715
20
0.276841
11
0.088359
21
0.270669
0
LINE
8
BLACK
6
CONTINUOUS
10
0.088359
20
0.270669
11
0.0891715
21
0.264498
0
LINE
8
BLACK
6
CONTINUOUS
10
0.0891715
20
0.264498
11
0.0915537
21
0.258746
0
LINE
8
BLACK
6
CONTINUOUS
10
0.0915537
20
0.258746
11
0.0916698
21
0.258595
0
LINE
8
BLACK
6
CONTINUOUS
10
0.0916698
20
0.258595
11
0.0916699
21
0.258595
0
LINE
8
BLACK
6
CONTINUOUS
10
0.0916699
20
0.258595
11
0.093507
21
0.256201
0
LINE
8
BLACK
6
CONTINUOUS
10
0.093507
20
0.256201
11
0.0953432
21
0.253808
0
LINE
8
BLACK
6
CONTINUOUS
10
0.0953432
20
0.253808
11
0.0954948
21
0.253691
0
LINE
8
BLACK
6
CONTINUOUS
10
0.0954948
20
0.253691
11
0.0954948
21
0.253691
0
LINE
8
BLACK
6
CONTINUOUS
10
0.0954948
20
0.253691
11
0.10013
21
0.250134
0
LINE
8
BLACK
6
CONTINUOUS
10
0.10013
20
0.250134
11
0.100131
21
0.250134
0
LINE
8
BLACK
6
CONTINUOUS
10
0.100131
20
0.250134
11
0.100282
21
0.250018
0
LINE
8
BLACK
6
CONTINUOUS
10
0.100282
20
0.250018
11
0.106033
21
0.247636
0
LINE
8
BLACK
6
CONTINUOUS
10
0.106033
20
0.247636
11
0.106222
21
0.247611
0
LINE
8
BLACK
6
CONTINUOUS
10
0.106222
20
0.247611
11
0.106222
21
0.247611
0
LINE
8
BLACK
6
CONTINUOUS
10
0.106222
20
0.247611
11
0.112015
21
0.246848
0
LINE
8
BLACK
6
CONTINUOUS
10
0.112015
20
0.246848
11
0.112205
21
0.246824
0
LINE
8
BLACK
6
CONTINUOUS
10
0.112205
20
0.246824
11
0.112394
21
0.246848
0
LINE
8
BLACK
6
CONTINUOUS
10
0.112394
20
0.246848
11
0.118187
21
0.247611
0
LINE
8
BLACK
6
CONTINUOUS
10
0.118187
20
0.247611
11
0.118187
21
0.247611
0
LINE
8
BLACK
6
CONTINUOUS
10
0.118187
20
0.247611
11
0.118376
21
0.247636
0
LINE
8
BLACK
6
CONTINUOUS
10
0.118376
20
0.247636
11
0.124128
21
0.250018
0
LINE
8
BLACK
6
CONTINUOUS
10
0.124128
20
0.250018
11
0.124279
21
0.250134
0
LINE
8
BLACK
6
CONTINUOUS
10
0.124279
20
0.250134
11
0.124279
21
0.250134
0
LINE
8
BLACK
6
CONTINUOUS
10
0.124279
20
0.250134
11
0.128501
21
0.253374
0
LINE
8
BLACK
6
CONTINUOUS
10
0.128501
20
0.253374
11
0.129066
21
0.253808
0
LINE
8
BLACK
6
CONTINUOUS
10
0.129066
20
0.253808
11
0.129182
21
0.253959
0
LINE
8
BLACK
6
CONTINUOUS
10
0.129182
20
0.253959
11
0.129272
21
0.254048
0
LINE
8
BLACK
6
CONTINUOUS
10
0.129272
20
0.254048
11
0.131078
21
0.254891
0
LINE
8
BLACK
6
CONTINUOUS
10
0.131078
20
0.254891
11
0.131332
21
0.254902
0
LINE
8
BLACK
6
CONTINUOUS
10
0.131332
20
0.254902
11
0.140538
21
0.254902
0
LINE
8
BLACK
6
CONTINUOUS
10
0.140538
20
0.254902
11
0.142411
21
0.25422
0
LINE
8
BLACK
6
CONTINUOUS
10
0.142411
20
0.25422
11
0.143407
21
0.252494
0
LINE
8
BLACK
6
CONTINUOUS
10
0.143407
20
0.252494
11
0.143061
21
0.250531
0
LINE
8
BLACK
6
CONTINUOUS
10
0.143061
20
0.250531
11
0.142021
21
0.249481
0
LINE
8
BLACK
6
CONTINUOUS
10
0.142021
20
0.249481
11
0.139666
21
0.248088
0
LINE
8
BLACK
6
CONTINUOUS
10
0.139666
20
0.248088
11
0.139378
21
0.247865
0
LINE
8
BLACK
6
CONTINUOUS
10
0.139378
20
0.247865
11
0.135009
21
0.243496
0
LINE
8
BLACK
6
CONTINUOUS
10
0.135009
20
0.243496
11
0.134786
21
0.243208
0
LINE
8
BLACK
6
CONTINUOUS
10
0.134786
20
0.243208
11
0.131641
21
0.23789
0
LINE
8
BLACK
6
CONTINUOUS
10
0.131641
20
0.23789
11
0.131497
21
0.237556
0
LINE
8
BLACK
6
CONTINUOUS
10
0.131497
20
0.237556
11
0.129868
21
0.23195
0
LINE
8
BLACK
6
CONTINUOUS
10
0.129868
20
0.23195
11
0.129896
21
0.231532
0
LINE
8
BLACK
6
CONTINUOUS
10
0.129896
20
0.231532
11
0.129942
21
0.231484
0
LINE
8
BLACK
6
CONTINUOUS
10
0.129942
20
0.231484
11
0.130059
21
0.231457
0
LINE
8
BLACK
6
CONTINUOUS
10
0.130059
20
0.231457
11
0.151282
21
0.231457
0
LINE
8
BLACK
6
CONTINUOUS
10
0.151282
20
0.231457
11
0.151336
21
0.231538
0
LINE
8
BLACK
6
CONTINUOUS
10
0.151336
20
0.231538
11
0.153252
21
0.232818
0
LINE
8
BLACK
6
CONTINUOUS
10
0.153252
20
0.232818
11
0.155512
21
0.233268
0
LINE
8
BLACK
6
CONTINUOUS
10
0.155512
20
0.233268
11
0.21063
21
0.233268
0
LINE
8
BLACK
6
CONTINUOUS
10
0.21063
20
0.233268
11
0.21289
21
0.232818
0
LINE
8
BLACK
6
CONTINUOUS
10
0.21289
20
0.232818
11
0.214806
21
0.231538
0
LINE
8
BLACK
6
CONTINUOUS
10
0.214806
20
0.231538
11
0.21486
21
0.231457
0
LINE
8
BLACK
6
CONTINUOUS
10
0.21486
20
0.231457
11
0.235903
21
0.231457
0
LINE
8
BLACK
6
CONTINUOUS
10
0.235903
20
0.231457
11
0.236297
21
0.2316
0
LINE
8
BLACK
6
CONTINUOUS
10
0.236297
20
0.2316
11
0.23633
21
0.231658
0
LINE
8
BLACK
6
CONTINUOUS
10
0.23633
20
0.231658
11
0.236324
21
0.231778
0
LINE
8
BLACK
6
CONTINUOUS
10
0.236324
20
0.231778
11
0.234645
21
0.237556
0
LINE
8
BLACK
6
CONTINUOUS
10
0.234645
20
0.237556
11
0.234501
21
0.23789
0
LINE
8
BLACK
6
CONTINUOUS
10
0.234501
20
0.23789
11
0.231355
21
0.243208
0
LINE
8
BLACK
6
CONTINUOUS
10
0.231355
20
0.243208
11
0.231132
21
0.243496
0
LINE
8
BLACK
6
CONTINUOUS
10
0.231132
20
0.243496
11
0.226763
21
0.247865
0
LINE
8
BLACK
6
CONTINUOUS
10
0.226763
20
0.247865
11
0.226476
21
0.248088
0
LINE
8
BLACK
6
CONTINUOUS
10
0.226476
20
0.248088
11
0.221536
21
0.251009
0
LINE
8
BLACK
6
CONTINUOUS
10
0.221536
20
0.251009
11
0.220271
21
0.252549
0
LINE
8
BLACK
6
CONTINUOUS
10
0.220271
20
0.252549
11
0.220292
21
0.254542
0
LINE
8
BLACK
6
CONTINUOUS
10
0.220292
20
0.254542
11
0.220957
21
0.255575
0
LINE
8
BLACK
6
CONTINUOUS
10
0.220957
20
0.255575
11
0.221849
21
0.256469
0
LINE
8
BLACK
6
CONTINUOUS
10
0.221849
20
0.256469
11
0.221849
21
0.256469
0
LINE
8
BLACK
6
CONTINUOUS
10
0.221849
20
0.256469
11
0.222019
21
0.25664
0
LINE
8
BLACK
6
CONTINUOUS
10
0.222019
20
0.25664
11
0.223472
21
0.259612
0
LINE
8
BLACK
6
CONTINUOUS
10
0.223472
20
0.259612
11
0.224907
21
0.260995
0
LINE
8
BLACK
6
CONTINUOUS
10
0.224907
20
0.260995
11
0.226895
21
0.261132
0
LINE
8
BLACK
6
CONTINUOUS
10
0.226895
20
0.261132
11
0.228506
21
0.25996
0
LINE
8
BLACK
6
CONTINUOUS
10
0.228506
20
0.25996
11
0.228781
21
0.259448
0
LINE
8
BLACK
6
CONTINUOUS
10
0.228781
20
0.259448
11
0.229349
21
0.258077
0
LINE
8
BLACK
6
CONTINUOUS
10
0.229349
20
0.258077
11
0.229465
21
0.257926
0
LINE
8
BLACK
6
CONTINUOUS
10
0.229465
20
0.257926
11
0.229465
21
0.257926
0
LINE
8
BLACK
6
CONTINUOUS
10
0.229465
20
0.257926
11
0.232625
21
0.253808
0
LINE
8
BLACK
6
CONTINUOUS
10
0.232625
20
0.253808
11
0.233139
21
0.253139
0
LINE
8
BLACK
6
CONTINUOUS
10
0.233139
20
0.253139
11
0.23329
21
0.253022
0
LINE
8
BLACK
6
CONTINUOUS
10
0.23329
20
0.253022
11
0.237926
21
0.249465
0
LINE
8
BLACK
6
CONTINUOUS
10
0.237926
20
0.249465
11
0.237926
21
0.249465
0
LINE
8
BLACK
6
CONTINUOUS
10
0.237926
20
0.249465
11
0.238077
21
0.249349
0
LINE
8
BLACK
6
CONTINUOUS
10
0.238077
20
0.249349
11
0.243828
21
0.246967
0
LINE
8
BLACK
6
CONTINUOUS
10
0.243828
20
0.246967
11
0.244017
21
0.246942
0
LINE
8
BLACK
6
CONTINUOUS
10
0.244017
20
0.246942
11
0.244017
21
0.246942
0
LINE
8
BLACK
6
CONTINUOUS
10
0.244017
20
0.246942
11
0.249811
21
0.246179
0
LINE
8
BLACK
6
CONTINUOUS
10
0.249811
20
0.246179
11
0.25
21
0.246154
0
LINE
8
BLACK
6
CONTINUOUS
10
0.25
20
0.246154
11
0.250189
21
0.246179
0
LINE
8
BLACK
6
CONTINUOUS
10
0.250189
20
0.246179
11
0.255983
21
0.246942
0
LINE
8
BLACK
6
CONTINUOUS
10
0.255983
20
0.246942
11
0.255983
21
0.246942
0
LINE
8
BLACK
6
CONTINUOUS
10
0.255983
20
0.246942
11
0.256172
21
0.246967
0
LINE
8
BLACK
6
CONTINUOUS
10
0.256172
20
0.246967
11
0.261923
21
0.249349
0
LINE
8
BLACK
6
CONTINUOUS
10
0.261923
20
0.249349
11
0.262074
21
0.249465
0
LINE
8
BLACK
6
CONTINUOUS
10
0.262074
20
0.249465
11
0.262074
21
0.249465
0
LINE
8
BLACK
6
CONTINUOUS
10
0.262074
20
0.249465
11
0.26671
21
0.253022
0
LINE
8
BLACK
6
CONTINUOUS
10
0.26671
20
0.253022
11
0.266861
21
0.253139
0
LINE
8
BLACK
6
CONTINUOUS
10
0.266861
20
0.253139
11
0.268337
21
0.255061
0
LINE
8
BLACK
6
CONTINUOUS
10
0.268337
20
0.255061
11
0.270017
21
0.256132
0
LINE
8
BLACK
6
CONTINUOUS
10
0.270017
20
0.256132
11
0.270648
21
0.256201
0
LINE
8
BLACK
6
CONTINUOUS
10
0.270648
20
0.256201
11
0.331535
21
0.256201
0
LINE
8
BLACK
6
CONTINUOUS
10
0.331535
20
0.256201
11
0.333408
21
0.255519
0
LINE
8
BLACK
6
CONTINUOUS
10
0.333408
20
0.255519
11
0.334404
21
0.253793
0
LINE
8
BLACK
6
CONTINUOUS
10
0.334404
20
0.253793
11
0.334449
21
0.253287
0
LINE
8
BLACK
6
CONTINUOUS
10
0.334449
20
0.253287
11
0.334445
21
0.239173
0
LINE
8
BLACK
6
CONTINUOUS
10
0.334445
20
0.239173
11
0.34565
21
0.239173
0
LINE
8
BLACK
6
CONTINUOUS
10
0.34565
20
0.239173
11
0.346354
21
0.240556
0
LINE
8
BLACK
6
CONTINUOUS
10
0.346354
20
0.240556
11
0.349838
21
0.24404
0
LINE
8
BLACK
6
CONTINUOUS
10
0.349838
20
0.24404
11
0.354228
21
0.246276
0
LINE
8
BLACK
6
CONTINUOUS
10
0.354228
20
0.246276
11
0.359094
21
0.247047
0
LINE
8
BLACK
6
CONTINUOUS
10
0.359094
20
0.247047
11
0.363961
21
0.246276
0
LINE
8
BLACK
6
CONTINUOUS
10
0.363961
20
0.246276
11
0.368351
21
0.24404
0
LINE
8
BLACK
6
CONTINUOUS
10
0.368351
20
0.24404
11
0.371835
21
0.240556
0
LINE
8
BLACK
6
CONTINUOUS
10
0.371835
20
0.240556
11
0.374072
21
0.236166
0
LINE
8
BLACK
6
CONTINUOUS
10
0.374072
20
0.236166
11
0.374843
21
0.231299
0
LINE
8
BLACK
6
CONTINUOUS
10
0.374843
20
0.231299
11
0.374072
21
0.226433
0
LINE
8
BLACK
6
CONTINUOUS
10
0.374072
20
0.226433
11
0.371835
21
0.222043
0
LINE
8
BLACK
6
CONTINUOUS
10
0.371835
20
0.222043
11
0.368351
21
0.218559
0
LINE
8
BLACK
6
CONTINUOUS
10
0.368351
20
0.218559
11
0.363961
21
0.216322
0
LINE
8
BLACK
6
CONTINUOUS
10
0.363961
20
0.216322
11
0.359094
21
0.215551
0
LINE
8
BLACK
6
CONTINUOUS
10
0.359094
20
0.215551
11
0.354228
21
0.216322
0
LINE
8
BLACK
6
CONTINUOUS
10
0.354228
20
0.216322
11
0.349838
21
0.218559
0
LINE
8
BLACK
6
CONTINUOUS
10
0.349838
20
0.218559
11
0.346354
21
0.222043
0
LINE
8
BLACK
6
CONTINUOUS
10
0.346354
20
0.222043
11
0.34565
21
0.223425
0
LINE
8
BLACK
6
CONTINUOUS
10
0.34565
20
0.223425
11
0.334442
21
0.223425
0
LINE
8
BLACK
6
CONTINUOUS
10
0.334442
20
0.223425
11
0.334422
21
0.142652
0
LINE
8
BLACK
6
CONTINUOUS
10
0.334422
20
0.142652
11
0.33374
21
0.140779
0
LINE
8
BLACK
6
CONTINUOUS
10
0.33374
20
0.140779
11
0.332014
21
0.139783
0
LINE
8
BLACK
6
CONTINUOUS
10
0.332014
20
0.139783
11
0.331742
21
0.139748
0
LINE
8
BLACK
6
CONTINUOUS
10
0.331742
20
0.139748
11
0.330429
21
0.139643
0
LINE
8
BLACK
6
CONTINUOUS
10
0.330429
20
0.139643
11
0.324854
21
0.139194
0
LINE
8
BLACK
6
CONTINUOUS
10
0.324854
20
0.139194
11
0.315315
21
0.136851
0
LINE
8
BLACK
6
CONTINUOUS
10
0.315315
20
0.136851
11
0.315012
21
0.136723
0
LINE
8
BLACK
6
CONTINUOUS
10
0.315012
20
0.136723
11
0.306381
21
0.133059
0
LINE
8
BLACK
6
CONTINUOUS
10
0.306381
20
0.133059
11
0.30638
21
0.133059
0
LINE
8
BLACK
6
CONTINUOUS
10
0.30638
20
0.133059
11
0.306273
21
0.133013
0
LINE
8
BLACK
6
CONTINUOUS
10
0.306273
20
0.133013
11
0.306173
21
0.13295
0
LINE
8
BLACK
6
CONTINUOUS
10
0.306173
20
0.13295
11
0.306173
21
0.13295
0
LINE
8
BLACK
6
CONTINUOUS
10
0.306173
20
0.13295
11
0.301834
21
0.130218
0
LINE
8
BLACK
6
CONTINUOUS
10
0.301834
20
0.130218
11
0.29796
21
0.127778
0
LINE
8
BLACK
6
CONTINUOUS
10
0.29796
20
0.127778
11
0.297872
21
0.127701
0
LINE
8
BLACK
6
CONTINUOUS
10
0.297872
20
0.127701
11
0.29396
21
0.124252
0
LINE
8
BLACK
6
CONTINUOUS
10
0.29396
20
0.124252
11
0.290592
21
0.121282
0
LINE
8
BLACK
6
CONTINUOUS
10
0.290592
20
0.121282
11
0.290518
21
0.121192
0
LINE
8
BLACK
6
CONTINUOUS
10
0.290518
20
0.121192
11
0.284431
21
0.113782
0
LINE
8
BLACK
6
CONTINUOUS
10
0.284431
20
0.113782
11
0.284431
21
0.113782
0
LINE
8
BLACK
6
CONTINUOUS
10
0.284431
20
0.113782
11
0.284357
21
0.113692
0
LINE
8
BLACK
6
CONTINUOUS
10
0.284357
20
0.113692
11
0.279416
21
0.105202
0
LINE
8
BLACK
6
CONTINUOUS
10
0.279416
20
0.105202
11
0.279374
21
0.105093
0
LINE
8
BLACK
6
CONTINUOUS
10
0.279374
20
0.105093
11
0.279374
21
0.105093
0
LINE
8
BLACK
6
CONTINUOUS
10
0.279374
20
0.105093
11
0.277452
21
0.100087
0
LINE
8
BLACK
6
CONTINUOUS
10
0.277452
20
0.100087
11
0.275895
21
0.0960313
0
LINE
8
BLACK
6
CONTINUOUS
10
0.275895
20
0.0960313
11
0.275872
21
0.0959169
0
LINE
8
BLACK
6
CONTINUOUS
10
0.275872
20
0.0959169
11
0.273911
21
0.0865303
0
LINE
8
BLACK
6
CONTINUOUS
10
0.273911
20
0.0865303
11
0.273911
21
0.08653
0
LINE
8
BLACK
6
CONTINUOUS
10
0.273911
20
0.08653
11
0.273887
21
0.0864158
0
LINE
8
BLACK
6
CONTINUOUS
10
0.273887
20
0.0864158
11
0.273441
21
0.0766028
0
LINE
8
BLACK
6
CONTINUOUS
10
0.273441
20
0.0766028
11
0.27457
21
0.0668449
0
LINE
8
BLACK
6
CONTINUOUS
10
0.27457
20
0.0668449
11
0.277245
21
0.057393
0
LINE
8
BLACK
6
CONTINUOUS
10
0.277245
20
0.057393
11
0.281396
21
0.0484902
0
LINE
8
BLACK
6
CONTINUOUS
10
0.281396
20
0.0484902
11
0.281462
21
0.0483937
0
LINE
8
BLACK
6
CONTINUOUS
10
0.281462
20
0.0483937
11
0.281462
21
0.0483936
0
LINE
8
BLACK
6
CONTINUOUS
10
0.281462
20
0.0483936
11
0.286382
21
0.0411541
0
LINE
8
BLACK
6
CONTINUOUS
10
0.286382
20
0.0411541
11
0.286918
21
0.0403657
0
LINE
8
BLACK
6
CONTINUOUS
10
0.286918
20
0.0403657
11
0.286998
21
0.0402808
0
LINE
8
BLACK
6
CONTINUOUS
10
0.286998
20
0.0402808
11
0.286998
21
0.0402806
0
LINE
8
BLACK
6
CONTINUOUS
10
0.286998
20
0.0402806
11
0.290859
21
0.036198
0
LINE
8
BLACK
6
CONTINUOUS
10
0.290859
20
0.036198
11
0.293667
21
0.0332286
0
LINE
8
BLACK
6
CONTINUOUS
10
0.293667
20
0.0332286
11
0.30147
21
0.0272623
0
LINE
8
BLACK
6
CONTINUOUS
10
0.30147
20
0.0272623
11
0.301573
21
0.0272071
0
LINE
8
BLACK
6
CONTINUOUS
10
0.301573
20
0.0272071
11
0.301574
21
0.027207
0
LINE
8
BLACK
6
CONTINUOUS
10
0.301574
20
0.027207
11
0.306585
21
0.0245199
0
LINE
8
BLACK
6
CONTINUOUS
10
0.306585
20
0.0245199
11
0.310128
21
0.0226204
0
LINE
8
BLACK
6
CONTINUOUS
10
0.310128
20
0.0226204
11
0.310238
21
0.0225822
0
LINE
8
BLACK
6
CONTINUOUS
10
0.310238
20
0.0225822
11
0.319305
21
0.0194604
0
LINE
8
BLACK
6
CONTINUOUS
10
0.319305
20
0.0194604
11
0.319305
21
0.0194603
0
LINE
8
BLACK
6
CONTINUOUS
10
0.319305
20
0.0194603
11
0.319415
21
0.0194223
0
LINE
8
BLACK
6
CONTINUOUS
10
0.319415
20
0.0194223
11
0.329095
21
0.0177503
0
LINE
8
BLACK
6
CONTINUOUS
10
0.329095
20
0.0177503
11
0.329186
21
0.0177462
0
LINE
8
BLACK
6
CONTINUOUS
10
0.329186
20
0.0177462
11
0.329187
21
0.0177461
0
LINE
8
BLACK
6
CONTINUOUS
10
0.329187
20
0.0177461
11
0.329859
21
0.0177156
0
LINE
8
BLACK
6
CONTINUOUS
10
0.329859
20
0.0177156
11
0.330273
21
0.0176969
0
LINE
8
BLACK
6
CONTINUOUS
10
0.330273
20
0.0176969
11
0.331478
21
0.0176969
0
LINE
8
BLACK
6
CONTINUOUS
10
0.331478
20
0.0176969
11
0.333351
21
0.0170152
0
LINE
8
BLACK
6
CONTINUOUS
10
0.333351
20
0.0170152
11
0.334347
21
0.0152894
0
LINE
8
BLACK
6
CONTINUOUS
10
0.334347
20
0.0152894
11
0.334392
21
0.0147828
0
LINE
8
BLACK
6
CONTINUOUS
10
0.334392
20
0.0147828
11
0.334391
21
0.0108064
0
LINE
8
BLACK
6
CONTINUOUS
10
0.334391
20
0.0108064
11
0.333709
21
0.0089339
0
LINE
8
BLACK
6
CONTINUOUS
10
0.333709
20
0.0089339
11
0.331983
21
0.00793783
0
LINE
8
BLACK
6
CONTINUOUS
10
0.331983
20
0.00793783
11
0.331477
21
0.0078937
0
LINE
8
BLACK
6
CONTINUOUS
10
0.331477
20
0.0078937
11
0.167464
21
0.0078937
0
LINE
8
BLACK
6
CONTINUOUS
10
0.167464
20
0.0078937
11
0.165592
21
0.00857531
0
LINE
8
BLACK
6
CONTINUOUS
10
0.165592
20
0.00857531
11
0.164596
21
0.0102987
0
LINE
8
BLACK
6
CONTINUOUS
10
0.164596
20
0.0102987
11
0.163989
21
0.0137225
0
LINE
8
BLACK
6
CONTINUOUS
10
0.163989
20
0.0137225
11
0.163461
21
0.0166985
0
LINE
8
BLACK
6
CONTINUOUS
10
0.163461
20
0.0166985
11
0.163123
21
0.0176969
0
LINE
8
BLACK
6
CONTINUOUS
10
0.163123
20
0.0176969
11
0.160223
21
0.0262389
0
LINE
8
BLACK
6
CONTINUOUS
10
0.160223
20
0.0262389
11
0.160223
21
0.0262391
0
LINE
8
BLACK
6
CONTINUOUS
10
0.160223
20
0.0262391
11
0.160187
21
0.0263438
0
LINE
8
BLACK
6
CONTINUOUS
10
0.160187
20
0.0263438
11
0.158443
21
0.0297019
0
LINE
8
BLACK
6
CONTINUOUS
10
0.158443
20
0.0297019
11
0.155543
21
0.0352849
0
LINE
8
BLACK
6
CONTINUOUS
10
0.155543
20
0.0352849
11
0.155543
21
0.0352849
0
LINE
8
BLACK
6
CONTINUOUS
10
0.155543
20
0.0352849
11
0.155492
21
0.0353829
0
LINE
8
BLACK
6
CONTINUOUS
10
0.155492
20
0.0353829
11
0.154896
21
0.036198
0
LINE
8
BLACK
6
CONTINUOUS
10
0.154896
20
0.036198
11
0.149549
21
0.0435184
0
LINE
8
BLACK
6
CONTINUOUS
10
0.149549
20
0.0435184
11
0.149548
21
0.0435185
0
LINE
8
BLACK
6
CONTINUOUS
10
0.149548
20
0.0435185
11
0.149483
21
0.0436077
0
LINE
8
BLACK
6
CONTINUOUS
10
0.149483
20
0.0436077
11
0.144521
21
0.0485961
0
LINE
8
BLACK
6
CONTINUOUS
10
0.144521
20
0.0485961
11
0.142378
21
0.0507506
0
LINE
8
BLACK
6
CONTINUOUS
10
0.142378
20
0.0507506
11
0.142378
21
0.0507507
0
LINE
8
BLACK
6
CONTINUOUS
10
0.142378
20
0.0507507
11
0.1423
21
0.0508291
0
LINE
8
BLACK
6
CONTINUOUS
10
0.1423
20
0.0508291
11
0.134106
21
0.0568807
0
LINE
8
BLACK
6
CONTINUOUS
10
0.134106
20
0.0568807
11
0.132275
21
0.0578442
0
LINE
8
BLACK
6
CONTINUOUS
10
0.132275
20
0.0578442
11
0.12519
21
0.0615718
0
LINE
8
BLACK
6
CONTINUOUS
10
0.12519
20
0.0615718
11
0.12519
21
0.0615719
0
LINE
8
BLACK
6
CONTINUOUS
10
0.12519
20
0.0615719
11
0.125092
21
0.0616234
0
LINE
8
BLACK
6
CONTINUOUS
10
0.125092
20
0.0616234
11
0.115464
21
0.064948
0
LINE
8
BLACK
6
CONTINUOUS
10
0.115464
20
0.064948
11
0.115355
21
0.0649678
0
LINE
8
BLACK
6
CONTINUOUS
10
0.115355
20
0.0649678
11
0.115355
21
0.0649679
0
LINE
8
BLACK
6
CONTINUOUS
10
0.115355
20
0.0649679
11
0.111251
21
0.0657174
0
LINE
8
BLACK
6
CONTINUOUS
10
0.111251
20
0.0657174
11
0.105444
21
0.066778
0
LINE
8
BLACK
6
CONTINUOUS
10
0.105444
20
0.066778
11
0.105351
21
0.0667829
0
LINE
8
BLACK
6
CONTINUOUS
10
0.105351
20
0.0667829
11
0.105351
21
0.0667829
0
LINE
8
BLACK
6
CONTINUOUS
10
0.105351
20
0.0667829
11
0.102222
21
0.0669469
0
LINE
8
BLACK
6
CONTINUOUS
10
0.102222
20
0.0669469
11
0.102222
21
0.0669469
0
LINE
8
BLACK
6
CONTINUOUS
10
0.102222
20
0.0669469
11
0.102184
21
0.0669488
0
LINE
8
BLACK
6
CONTINUOUS
10
0.102184
20
0.0669488
11
0.0958354
21
0.0669488
0
LINE
8
BLACK
6
CONTINUOUS
10
0.0958354
20
0.0669488
11
0.0930218
21
0.0667348
0
LINE
8
BLACK
6
CONTINUOUS
10
0.0930218
20
0.0667348
11
0.0883787
21
0.0663816
0
LINE
8
BLACK
6
CONTINUOUS
10
0.0883787
20
0.0663816
11
0.0883784
21
0.0663816
0
LINE
8
BLACK
6
CONTINUOUS
10
0.0883784
20
0.0663816
11
0.0882687
21
0.0663732
0
LINE
8
BLACK
6
CONTINUOUS
10
0.0882687
20
0.0663732
11
0.0783459
21
0.0640733
0
LINE
8
BLACK
6
CONTINUOUS
10
0.0783459
20
0.0640733
11
0.0782432
21
0.0640323
0
LINE
8
BLACK
6
CONTINUOUS
10
0.0782432
20
0.0640323
11
0.078243
21
0.0640322
0
LINE
8
BLACK
6
CONTINUOUS
10
0.078243
20
0.0640322
11
0.0689878
21
0.0603398
0
LINE
8
BLACK
6
CONTINUOUS
10
0.0689878
20
0.0603398
11
0.0689876
21
0.0603397
0
LINE
8
BLACK
6
CONTINUOUS
10
0.0689876
20
0.0603397
11
0.0688851
21
0.0602988
0
LINE
8
BLACK
6
CONTINUOUS
10
0.0688851
20
0.0602988
11
0.0687899
21
0.0602428
0
LINE
8
BLACK
6
CONTINUOUS
10
0.0687899
20
0.0602428
11
0.0687897
21
0.0602428
0
LINE
8
BLACK
6
CONTINUOUS
10
0.0687897
20
0.0602428
11
0.0601996
21
0.0551929
0
LINE
8
BLACK
6
CONTINUOUS
10
0.0601996
20
0.0551929
11
0.0601995
21
0.0551928
0
LINE
8
BLACK
6
CONTINUOUS
10
0.0601995
20
0.0551928
11
0.0601042
21
0.0551367
0
LINE
8
BLACK
6
CONTINUOUS
10
0.0601042
20
0.0551367
11
0.0522051
21
0.0487059
0
LINE
8
BLACK
6
CONTINUOUS
10
0.0522051
20
0.0487059
11
0.0453696
21
0.0411541
0
LINE
8
BLACK
6
CONTINUOUS
10
0.0453696
20
0.0411541
11
0.0453085
21
0.0410618
0
LINE
8
BLACK
6
CONTINUOUS
10
0.0453085
20
0.0410618
11
0.0453084
21
0.0410616
0
LINE
8
BLACK
6
CONTINUOUS
10
0.0453084
20
0.0410616
11
0.0420954
21
0.036198
0
LINE
8
BLACK
6
CONTINUOUS
10
0.0420954
20
0.036198
11
0.039755
21
0.0326554
0
LINE
8
BLACK
6
CONTINUOUS
10
0.039755
20
0.0326554
11
0.0397087
21
0.0325548
0
LINE
8
BLACK
6
CONTINUOUS
10
0.0397087
20
0.0325548
11
0.0397086
21
0.0325547
0
LINE
8
BLACK
6
CONTINUOUS
10
0.0397086
20
0.0325547
11
0.0368454
21
0.0263438
0
LINE
8
BLACK
6
CONTINUOUS
10
0.0368454
20
0.0263438
11
0.0354906
21
0.0234052
0
LINE
8
BLACK
6
CONTINUOUS
10
0.0354906
20
0.0234052
11
0.0354602
21
0.0232992
0
LINE
8
BLACK
6
CONTINUOUS
10
0.0354602
20
0.0232992
11
0.0354601
21
0.023299
0
LINE
8
BLACK
6
CONTINUOUS
10
0.0354601
20
0.023299
11
0.0336523
21
0.0170152
0
LINE
8
BLACK
6
CONTINUOUS
10
0.0336523
20
0.0170152
11
0.0326745
21
0.0136163
0
LINE
8
BLACK
6
CONTINUOUS
10
0.0326745
20
0.0136163
11
0.0326604
21
0.0135067
0
LINE
8
BLACK
6
CONTINUOUS
10
0.0326604
20
0.0135067
11
0.032264
21
0.0104343
0
LINE
8
BLACK
6
CONTINUOUS
10
0.032264
20
0.0104343
11
0.0313484
21
0.00866425
0
LINE
8
BLACK
6
CONTINUOUS
10
0.0313484
20
0.00866425
11
0.0293746
21
0.0078937
0
LINE
8
BLACK
6
CONTINUOUS
10
0.0293746
20
0.0078937
11
0.0108071
21
0.0078937
0
LINE
8
BLACK
6
CONTINUOUS
10
0.0108071
20
0.0078937
11
0.00893441
21
0.00857531
0
LINE
8
BLACK
6
CONTINUOUS
10
0.00893441
20
0.00857531
11
0.00793795
21
0.0103012
0
LINE
8
BLACK
6
CONTINUOUS
10
0.00793795
20
0.0103012
11
0.0078937
21
0.0108071
0
LINE
8
BLACK
6
CONTINUOUS
10
0.0078937
20
0.0108071
11
0.0078937
21
0.10611
0
LINE
8
BLACK
6
CONTINUOUS
10
0.0078937
20
0.10611
11
0.00857531
21
0.107982
0
LINE
8
BLACK
6
CONTINUOUS
10
0.00857531
20
0.107982
11
0.0103012
21
0.108979
0
LINE
8
BLACK
6
CONTINUOUS
10
0.0103012
20
0.108979
11
0.0111041
21
0.109008
0
LINE
8
BLACK
6
CONTINUOUS
10
0.0111041
20
0.109008
11
0.0117228
21
0.108945
0
LINE
8
BLACK
6
CONTINUOUS
10
0.0117228
20
0.108945
11
0.0118712
21
0.108937
0
LINE
8
BLACK
6
CONTINUOUS
10
0.0118712
20
0.108937
11
0.0465729
21
0.108937
0
LINE
8
BLACK
6
CONTINUOUS
10
0.0465729
20
0.108937
11
0.0469665
21
0.10908
0
LINE
8
BLACK
6
CONTINUOUS
10
0.0469665
20
0.10908
11
0.0470866
21
0.109288
0
LINE
8
BLACK
6
CONTINUOUS
10
0.0470866
20
0.109288
11
0.0470866
21
0.128937
0
LINE
8
BLACK
6
CONTINUOUS
10
0.0470866
20
0.128937
11
0.0137795
21
0.128937
0
LINE
8
BLACK
6
CONTINUOUS
10
0.067438
20
0.108937
11
0.102301
21
0.108937
0
LINE
8
BLACK
6
CONTINUOUS
10
0.102301
20
0.108937
11
0.102451
21
0.108945
0
LINE
8
BLACK
6
CONTINUOUS
10
0.102451
20
0.108945
11
0.106379
21
0.109352
0
LINE
8
BLACK
6
CONTINUOUS
10
0.106379
20
0.109352
11
0.106689
21
0.109419
0
LINE
8
BLACK
6
CONTINUOUS
10
0.106689
20
0.109419
11
0.112978
21
0.111517
0
LINE
8
BLACK
6
CONTINUOUS
10
0.112978
20
0.111517
11
0.113283
21
0.11166
0
LINE
8
BLACK
6
CONTINUOUS
10
0.113283
20
0.11166
11
0.118912
21
0.115144
0
LINE
8
BLACK
6
CONTINUOUS
10
0.118912
20
0.115144
11
0.119176
21
0.115353
0
LINE
8
BLACK
6
CONTINUOUS
10
0.119176
20
0.115353
11
0.123853
21
0.120038
0
LINE
8
BLACK
6
CONTINUOUS
10
0.123853
20
0.120038
11
0.124062
21
0.120302
0
LINE
8
BLACK
6
CONTINUOUS
10
0.124062
20
0.120302
11
0.127536
21
0.125938
0
LINE
8
BLACK
6
CONTINUOUS
10
0.127536
20
0.125938
11
0.127678
21
0.126242
0
LINE
8
BLACK
6
CONTINUOUS
10
0.127678
20
0.126242
11
0.129765
21
0.132536
0
LINE
8
BLACK
6
CONTINUOUS
10
0.129765
20
0.132536
11
0.129831
21
0.132845
0
LINE
8
BLACK
6
CONTINUOUS
10
0.129831
20
0.132845
11
0.130229
21
0.136723
0
LINE
8
BLACK
6
CONTINUOUS
10
0.130229
20
0.136723
11
0.130236
21
0.136871
0
LINE
8
BLACK
6
CONTINUOUS
10
0.130236
20
0.136871
11
0.130236
21
0.138108
0
LINE
8
BLACK
6
CONTINUOUS
10
0.130236
20
0.138108
11
0.130093
21
0.138502
0
LINE
8
BLACK
6
CONTINUOUS
10
0.130093
20
0.138502
11
0.129885
21
0.138622
0
LINE
8
BLACK
6
CONTINUOUS
10
0.129885
20
0.138622
11
0.110205
21
0.138622
0
LINE
8
BLACK
6
CONTINUOUS
10
0.110205
20
0.138622
11
0.109487
21
0.135013
0
LINE
8
BLACK
6
CONTINUOUS
10
0.109487
20
0.135013
11
0.107353
21
0.13182
0
LINE
8
BLACK
6
CONTINUOUS
10
0.107353
20
0.13182
11
0.10416
21
0.129686
0
LINE
8
BLACK
6
CONTINUOUS
10
0.10416
20
0.129686
11
0.100394
21
0.128937
0
LINE
8
BLACK
6
CONTINUOUS
10
0.100394
20
0.128937
11
0.0670866
21
0.128937
0
LINE
8
BLACK
6
CONTINUOUS
10
0.0670866
20
0.128937
11
0.0670866
21
0.109451
0
LINE
8
BLACK
6
CONTINUOUS
10
0.0670866
20
0.109451
11
0.0672298
21
0.109057
0
LINE
8
BLACK
6
CONTINUOUS
10
0.0672298
20
0.109057
11
0.067438
21
0.108937
0
LINE
8
BLACK
6
CONTINUOUS
10
0.0676003
20
0.188307
11
0.0672068
21
0.188164
0
LINE
8
BLACK
6
CONTINUOUS
10
0.0672068
20
0.188164
11
0.0670866
21
0.187956
0
LINE
8
BLACK
6
CONTINUOUS
10
0.0670866
20
0.187956
11
0.0670866
21
0.168307
0
LINE
8
BLACK
6
CONTINUOUS
10
0.0670866
20
0.168307
11
0.100394
21
0.168307
0
LINE
8
BLACK
6
CONTINUOUS
10
0.100394
20
0.168307
11
0.10416
21
0.167558
0
LINE
8
BLACK
6
CONTINUOUS
10
0.10416
20
0.167558
11
0.107353
21
0.165424
0
LINE
8
BLACK
6
CONTINUOUS
10
0.107353
20
0.165424
11
0.109487
21
0.162231
0
LINE
8
BLACK
6
CONTINUOUS
10
0.109487
20
0.162231
11
0.110205
21
0.158622
0
LINE
8
BLACK
6
CONTINUOUS
10
0.110205
20
0.158622
11
0.129722
21
0.158622
0
LINE
8
BLACK
6
CONTINUOUS
10
0.129722
20
0.158622
11
0.130116
21
0.158765
0
LINE
8
BLACK
6
CONTINUOUS
10
0.130116
20
0.158765
11
0.130236
21
0.158973
0
LINE
8
BLACK
6
CONTINUOUS
10
0.130236
20
0.158973
11
0.130236
21
0.160372
0
LINE
8
BLACK
6
CONTINUOUS
10
0.130236
20
0.160372
11
0.130228
21
0.160522
0
LINE
8
BLACK
6
CONTINUOUS
10
0.130228
20
0.160522
11
0.129821
21
0.16445
0
LINE
8
BLACK
6
CONTINUOUS
10
0.129821
20
0.16445
11
0.129754
21
0.16476
0
LINE
8
BLACK
6
CONTINUOUS
10
0.129754
20
0.16476
11
0.127656
21
0.171049
0
LINE
8
BLACK
6
CONTINUOUS
10
0.127656
20
0.171049
11
0.127513
21
0.171354
0
LINE
8
BLACK
6
CONTINUOUS
10
0.127513
20
0.171354
11
0.124029
21
0.176983
0
LINE
8
BLACK
6
CONTINUOUS
10
0.124029
20
0.176983
11
0.12382
21
0.177247
0
LINE
8
BLACK
6
CONTINUOUS
10
0.12382
20
0.177247
11
0.119135
21
0.181924
0
LINE
8
BLACK
6
CONTINUOUS
10
0.119135
20
0.181924
11
0.118871
21
0.182133
0
LINE
8
BLACK
6
CONTINUOUS
10
0.118871
20
0.182133
11
0.113236
21
0.185606
0
LINE
8
BLACK
6
CONTINUOUS
10
0.113236
20
0.185606
11
0.112931
21
0.185748
0
LINE
8
BLACK
6
CONTINUOUS
10
0.112931
20
0.185748
11
0.106638
21
0.187836
0
LINE
8
BLACK
6
CONTINUOUS
10
0.106638
20
0.187836
11
0.106328
21
0.187902
0
LINE
8
BLACK
6
CONTINUOUS
10
0.106328
20
0.187902
11
0.10245
21
0.188299
0
LINE
8
BLACK
6
CONTINUOUS
10
0.10245
20
0.188299
11
0.102302
21
0.188307
0
LINE
8
BLACK
6
CONTINUOUS
10
0.102302
20
0.188307
11
0.0676003
21
0.188307
0
LINE
8
BLACK
6
CONTINUOUS
10
0.193422
20
0.189646
11
0.213189
21
0.189646
0
LINE
8
BLACK
6
CONTINUOUS
10
0.213189
20
0.189646
11
0.213303
21
0.18965
0
LINE
8
BLACK
6
CONTINUOUS
10
0.213303
20
0.18965
11
0.214566
21
0.18975
0
LINE
8
BLACK
6
CONTINUOUS
10
0.214566
20
0.18975
11
0.214858
21
0.189803
0
LINE
8
BLACK
6
CONTINUOUS
10
0.214858
20
0.189803
11
0.220824
21
0.191536
0
LINE
8
BLACK
6
CONTINUOUS
10
0.220824
20
0.191536
11
0.221158
21
0.191681
0
LINE
8
BLACK
6
CONTINUOUS
10
0.221158
20
0.191681
11
0.226476
21
0.194826
0
LINE
8
BLACK
6
CONTINUOUS
10
0.226476
20
0.194826
11
0.226763
21
0.195049
0
LINE
8
BLACK
6
CONTINUOUS
10
0.226763
20
0.195049
11
0.231132
21
0.199418
0
LINE
8
BLACK
6
CONTINUOUS
10
0.231132
20
0.199418
11
0.231355
21
0.199705
0
LINE
8
BLACK
6
CONTINUOUS
10
0.231355
20
0.199705
11
0.234501
21
0.205023
0
LINE
8
BLACK
6
CONTINUOUS
10
0.234501
20
0.205023
11
0.234645
21
0.205357
0
LINE
8
BLACK
6
CONTINUOUS
10
0.234645
20
0.205357
11
0.236274
21
0.210963
0
LINE
8
BLACK
6
CONTINUOUS
10
0.236274
20
0.210963
11
0.236246
21
0.211381
0
LINE
8
BLACK
6
CONTINUOUS
10
0.236246
20
0.211381
11
0.2362
21
0.211429
0
LINE
8
BLACK
6
CONTINUOUS
10
0.2362
20
0.211429
11
0.236083
21
0.211457
0
LINE
8
BLACK
6
CONTINUOUS
10
0.236083
20
0.211457
11
0.21486
21
0.211457
0
LINE
8
BLACK
6
CONTINUOUS
10
0.21486
20
0.211457
11
0.214806
21
0.211375
0
LINE
8
BLACK
6
CONTINUOUS
10
0.214806
20
0.211375
11
0.21289
21
0.210095
0
LINE
8
BLACK
6
CONTINUOUS
10
0.21289
20
0.210095
11
0.21063
21
0.209646
0
LINE
8
BLACK
6
CONTINUOUS
10
0.21063
20
0.209646
11
0.193071
21
0.209646
0
LINE
8
BLACK
6
CONTINUOUS
10
0.193071
20
0.209646
11
0.193071
21
0.190159
0
LINE
8
BLACK
6
CONTINUOUS
10
0.193071
20
0.190159
11
0.193214
21
0.189766
0
LINE
8
BLACK
6
CONTINUOUS
10
0.193214
20
0.189766
11
0.193422
21
0.189646
0
LINE
8
BLACK
6
CONTINUOUS
10
0.089349
20
0.358077
11
0.0894651
21
0.357926
0
LINE
8
BLACK
6
CONTINUOUS
10
0.0894651
20
0.357926
11
0.0894652
21
0.357926
0
LINE
8
BLACK
6
CONTINUOUS
10
0.0894652
20
0.357926
11
0.0922992
21
0.354232
0
LINE
8
BLACK
6
CONTINUOUS
10
0.0922992
20
0.354232
11
0.0931385
21
0.353139
0
LINE
8
BLACK
6
CONTINUOUS
10
0.0931385
20
0.353139
11
0.0932901
21
0.353022
0
LINE
8
BLACK
6
CONTINUOUS
10
0.0932901
20
0.353022
11
0.0932901
21
0.353022
0
LINE
8
BLACK
6
CONTINUOUS
10
0.0932901
20
0.353022
11
0.0979256
21
0.349465
0
LINE
8
BLACK
6
CONTINUOUS
10
0.0979256
20
0.349465
11
0.0979258
21
0.349465
0
LINE
8
BLACK
6
CONTINUOUS
10
0.0979258
20
0.349465
11
0.0980771
21
0.349349
0
LINE
8
BLACK
6
CONTINUOUS
10
0.0980771
20
0.349349
11
0.103828
21
0.346967
0
LINE
8
BLACK
6
CONTINUOUS
10
0.103828
20
0.346967
11
0.104017
21
0.346942
0
LINE
8
BLACK
6
CONTINUOUS
10
0.104017
20
0.346942
11
0.104017
21
0.346942
0
LINE
8
BLACK
6
CONTINUOUS
10
0.104017
20
0.346942
11
0.109811
21
0.346179
0
LINE
8
BLACK
6
CONTINUOUS
10
0.109811
20
0.346179
11
0.11
21
0.346154
0
LINE
8
BLACK
6
CONTINUOUS
10
0.11
20
0.346154
11
0.110189
21
0.346179
0
LINE
8
BLACK
6
CONTINUOUS
10
0.110189
20
0.346179
11
0.115983
21
0.346942
0
LINE
8
BLACK
6
CONTINUOUS
10
0.115983
20
0.346942
11
0.115983
21
0.346942
0
LINE
8
BLACK
6
CONTINUOUS
10
0.115983
20
0.346942
11
0.116172
21
0.346967
0
LINE
8
BLACK
6
CONTINUOUS
10
0.116172
20
0.346967
11
0.121923
21
0.349349
0
LINE
8
BLACK
6
CONTINUOUS
10
0.121923
20
0.349349
11
0.122074
21
0.349465
0
LINE
8
BLACK
6
CONTINUOUS
10
0.122074
20
0.349465
11
0.122074
21
0.349465
0
LINE
8
BLACK
6
CONTINUOUS
10
0.122074
20
0.349465
11
0.12671
21
0.353022
0
LINE
8
BLACK
6
CONTINUOUS
10
0.12671
20
0.353022
11
0.126861
21
0.353139
0
LINE
8
BLACK
6
CONTINUOUS
10
0.126861
20
0.353139
11
0.126978
21
0.35329
0
LINE
8
BLACK
6
CONTINUOUS
10
0.126978
20
0.35329
11
0.127067
21
0.353379
0
LINE
8
BLACK
6
CONTINUOUS
10
0.127067
20
0.353379
11
0.128873
21
0.354221
0
LINE
8
BLACK
6
CONTINUOUS
10
0.128873
20
0.354221
11
0.129127
21
0.354232
0
LINE
8
BLACK
6
CONTINUOUS
10
0.129127
20
0.354232
11
0.143745
21
0.354232
0
LINE
8
BLACK
6
CONTINUOUS
10
0.143745
20
0.354232
11
0.145618
21
0.353551
0
LINE
8
BLACK
6
CONTINUOUS
10
0.145618
20
0.353551
11
0.145804
21
0.353381
0
LINE
8
BLACK
6
CONTINUOUS
10
0.145804
20
0.353381
11
0.147217
21
0.35197
0
LINE
8
BLACK
6
CONTINUOUS
10
0.147217
20
0.35197
11
0.147388
21
0.351799
0
LINE
8
BLACK
6
CONTINUOUS
10
0.147388
20
0.351799
11
0.147604
21
0.351694
0
LINE
8
BLACK
6
CONTINUOUS
10
0.147604
20
0.351694
11
0.151297
21
0.349889
0
LINE
8
BLACK
6
CONTINUOUS
10
0.151297
20
0.349889
11
0.151515
21
0.349782
0
LINE
8
BLACK
6
CONTINUOUS
10
0.151515
20
0.349782
11
0.154204
21
0.34939
0
LINE
8
BLACK
6
CONTINUOUS
10
0.154204
20
0.34939
11
0.211938
21
0.34939
0
LINE
8
BLACK
6
CONTINUOUS
10
0.211938
20
0.34939
11
0.21218
21
0.349425
0
LINE
8
BLACK
6
CONTINUOUS
10
0.21218
20
0.349425
11
0.214426
21
0.349756
0
LINE
8
BLACK
6
CONTINUOUS
10
0.214426
20
0.349756
11
0.214426
21
0.349756
0
LINE
8
BLACK
6
CONTINUOUS
10
0.214426
20
0.349756
11
0.21465
21
0.349789
0
LINE
8
BLACK
6
CONTINUOUS
10
0.21465
20
0.349789
11
0.214853
21
0.349889
0
LINE
8
BLACK
6
CONTINUOUS
10
0.214853
20
0.349889
11
0.214853
21
0.349889
0
LINE
8
BLACK
6
CONTINUOUS
10
0.214853
20
0.349889
11
0.216658
21
0.350775
0
LINE
8
BLACK
6
CONTINUOUS
10
0.216658
20
0.350775
11
0.218774
21
0.351814
0
LINE
8
BLACK
6
CONTINUOUS
10
0.218774
20
0.351814
11
0.218944
21
0.351984
0
LINE
8
BLACK
6
CONTINUOUS
10
0.218944
20
0.351984
11
0.218944
21
0.351984
0
LINE
8
BLACK
6
CONTINUOUS
10
0.218944
20
0.351984
11
0.219431
21
0.352472
0
LINE
8
BLACK
6
CONTINUOUS
10
0.219431
20
0.352472
11
0.221236
21
0.353315
0
LINE
8
BLACK
6
CONTINUOUS
10
0.221236
20
0.353315
11
0.221493
21
0.353327
0
LINE
8
BLACK
6
CONTINUOUS
10
0.221493
20
0.353327
11
0.231904
21
0.353327
0
LINE
8
BLACK
6
CONTINUOUS
10
0.231904
20
0.353327
11
0.233678
21
0.352725
0
LINE
8
BLACK
6
CONTINUOUS
10
0.233678
20
0.352725
11
0.237926
21
0.349465
0
LINE
8
BLACK
6
CONTINUOUS
10
0.237926
20
0.349465
11
0.237926
21
0.349465
0
LINE
8
BLACK
6
CONTINUOUS
10
0.237926
20
0.349465
11
0.238077
21
0.349349
0
LINE
8
BLACK
6
CONTINUOUS
10
0.238077
20
0.349349
11
0.243828
21
0.346967
0
LINE
8
BLACK
6
CONTINUOUS
10
0.243828
20
0.346967
11
0.244017
21
0.346942
0
LINE
8
BLACK
6
CONTINUOUS
10
0.244017
20
0.346942
11
0.244017
21
0.346942
0
LINE
8
BLACK
6
CONTINUOUS
10
0.244017
20
0.346942
11
0.249811
21
0.346179
0
LINE
8
BLACK
6
CONTINUOUS
10
0.249811
20
0.346179
11
0.25
21
0.346154
0
LINE
8
BLACK
6
CONTINUOUS
10
0.25
20
0.346154
11
0.250189
21
0.346179
0
LINE
8
BLACK
6
CONTINUOUS
10
0.250189
20
0.346179
11
0.255983
21
0.346942
0
LINE
8
BLACK
6
CONTINUOUS
10
0.255983
20
0.346942
11
0.255983
21
0.346942
0
LINE
8
BLACK
6
CONTINUOUS
10
0.255983
20
0.346942
11
0.256172
21
0.346967
0
LINE
8
BLACK
6
CONTINUOUS
10
0.256172
20
0.346967
11
0.261923
21
0.349349
0
LINE
8
BLACK
6
CONTINUOUS
10
0.261923
20
0.349349
11
0.262074
21
0.349465
0
LINE
8
BLACK
6
CONTINUOUS
10
0.262074
20
0.349465
11
0.262074
21
0.349465
0
LINE
8
BLACK
6
CONTINUOUS
10
0.262074
20
0.349465
11
0.26671
21
0.353022
0
LINE
8
BLACK
6
CONTINUOUS
10
0.26671
20
0.353022
11
0.26671
21
0.353022
0
LINE
8
BLACK
6
CONTINUOUS
10
0.26671
20
0.353022
11
0.266861
21
0.353139
0
LINE
8
BLACK
6
CONTINUOUS
10
0.266861
20
0.353139
11
0.267701
21
0.354232
0
LINE
8
BLACK
6
CONTINUOUS
10
0.267701
20
0.354232
11
0.270535
21
0.357926
0
LINE
8
BLACK
6
CONTINUOUS
10
0.270535
20
0.357926
11
0.270535
21
0.357926
0
LINE
8
BLACK
6
CONTINUOUS
10
0.270535
20
0.357926
11
0.270651
21
0.358077
0
LINE
8
BLACK
6
CONTINUOUS
10
0.270651
20
0.358077
11
0.273033
21
0.363828
0
LINE
8
BLACK
6
CONTINUOUS
10
0.273033
20
0.363828
11
0.273846
21
0.37
0
LINE
8
BLACK
6
CONTINUOUS
10
0.273846
20
0.37
11
0.273033
21
0.376172
0
LINE
8
BLACK
6
CONTINUOUS
10
0.273033
20
0.376172
11
0.270651
21
0.381923
0
LINE
8
BLACK
6
CONTINUOUS
10
0.270651
20
0.381923
11
0.270535
21
0.382074
0
LINE
8
BLACK
6
CONTINUOUS
10
0.270535
20
0.382074
11
0.270535
21
0.382074
0
LINE
8
BLACK
6
CONTINUOUS
10
0.270535
20
0.382074
11
0.266978
21
0.38671
0
LINE
8
BLACK
6
CONTINUOUS
10
0.266978
20
0.38671
11
0.266861
21
0.386861
0
LINE
8
BLACK
6
CONTINUOUS
10
0.266861
20
0.386861
11
0.26671
21
0.386978
0
LINE
8
BLACK
6
CONTINUOUS
10
0.26671
20
0.386978
11
0.262074
21
0.390535
0
LINE
8
BLACK
6
CONTINUOUS
10
0.262074
20
0.390535
11
0.262074
21
0.390535
0
LINE
8
BLACK
6
CONTINUOUS
10
0.262074
20
0.390535
11
0.261923
21
0.390651
0
LINE
8
BLACK
6
CONTINUOUS
10
0.261923
20
0.390651
11
0.256172
21
0.393033
0
LINE
8
BLACK
6
CONTINUOUS
10
0.256172
20
0.393033
11
0.255983
21
0.393058
0
LINE
8
BLACK
6
CONTINUOUS
10
0.255983
20
0.393058
11
0.255983
21
0.393058
0
LINE
8
BLACK
6
CONTINUOUS
10
0.255983
20
0.393058
11
0.250189
21
0.393821
0
LINE
8
BLACK
6
CONTINUOUS
10
0.250189
20
0.393821
11
0.25
21
0.393846
0
LINE
8
BLACK
6
CONTINUOUS
10
0.25
20
0.393846
11
0.249811
21
0.393821
0
LINE
8
BLACK
6
CONTINUOUS
10
0.249811
20
0.393821
11
0.244017
21
0.393058
0
LINE
8
BLACK
6
CONTINUOUS
10
0.244017
20
0.393058
11
0.244017
21
0.393058
0
LINE
8
BLACK
6
CONTINUOUS
10
0.244017
20
0.393058
11
0.243828
21
0.393033
0
LINE
8
BLACK
6
CONTINUOUS
10
0.243828
20
0.393033
11
0.238077
21
0.390651
0
LINE
8
BLACK
6
CONTINUOUS
10
0.238077
20
0.390651
11
0.237926
21
0.390535
0
LINE
8
BLACK
6
CONTINUOUS
10
0.237926
20
0.390535
11
0.237926
21
0.390535
0
LINE
8
BLACK
6
CONTINUOUS
10
0.237926
20
0.390535
11
0.23329
21
0.386978
0
LINE
8
BLACK
6
CONTINUOUS
10
0.23329
20
0.386978
11
0.233139
21
0.386861
0
LINE
8
BLACK
6
CONTINUOUS
10
0.233139
20
0.386861
11
0.232646
21
0.386219
0
LINE
8
BLACK
6
CONTINUOUS
10
0.232646
20
0.386219
11
0.232479
21
0.386002
0
LINE
8
BLACK
6
CONTINUOUS
10
0.232479
20
0.386002
11
0.230798
21
0.384931
0
LINE
8
BLACK
6
CONTINUOUS
10
0.230798
20
0.384931
11
0.230168
21
0.384862
0
LINE
8
BLACK
6
CONTINUOUS
10
0.230168
20
0.384862
11
0.221489
21
0.384862
0
LINE
8
BLACK
6
CONTINUOUS
10
0.221489
20
0.384862
11
0.219616
21
0.385544
0
LINE
8
BLACK
6
CONTINUOUS
10
0.219616
20
0.385544
11
0.219431
21
0.385714
0
LINE
8
BLACK
6
CONTINUOUS
10
0.219431
20
0.385714
11
0.218924
21
0.386219
0
LINE
8
BLACK
6
CONTINUOUS
10
0.218924
20
0.386219
11
0.218924
21
0.386219
0
LINE
8
BLACK
6
CONTINUOUS
10
0.218924
20
0.386219
11
0.218754
21
0.386389
0
LINE
8
BLACK
6
CONTINUOUS
10
0.218754
20
0.386389
11
0.21755
21
0.386978
0
LINE
8
BLACK
6
CONTINUOUS
10
0.21755
20
0.386978
11
0.21483
21
0.388308
0
LINE
8
BLACK
6
CONTINUOUS
10
0.21483
20
0.388308
11
0.21483
21
0.388308
0
LINE
8
BLACK
6
CONTINUOUS
10
0.21483
20
0.388308
11
0.214627
21
0.388407
0
LINE
8
BLACK
6
CONTINUOUS
10
0.214627
20
0.388407
11
0.211938
21
0.388799
0
LINE
8
BLACK
6
CONTINUOUS
10
0.211938
20
0.388799
11
0.154204
21
0.388799
0
LINE
8
BLACK
6
CONTINUOUS
10
0.154204
20
0.388799
11
0.154098
21
0.388784
0
LINE
8
BLACK
6
CONTINUOUS
10
0.154098
20
0.388784
11
0.151716
21
0.388433
0
LINE
8
BLACK
6
CONTINUOUS
10
0.151716
20
0.388433
11
0.151716
21
0.388433
0
LINE
8
BLACK
6
CONTINUOUS
10
0.151716
20
0.388433
11
0.151492
21
0.3884
0
LINE
8
BLACK
6
CONTINUOUS
10
0.151492
20
0.3884
11
0.151289
21
0.3883
0
LINE
8
BLACK
6
CONTINUOUS
10
0.151289
20
0.3883
11
0.151288
21
0.3883
0
LINE
8
BLACK
6
CONTINUOUS
10
0.151288
20
0.3883
11
0.149484
21
0.387414
0
LINE
8
BLACK
6
CONTINUOUS
10
0.149484
20
0.387414
11
0.147368
21
0.386375
0
LINE
8
BLACK
6
CONTINUOUS
10
0.147368
20
0.386375
11
0.147285
21
0.386292
0
LINE
8
BLACK
6
CONTINUOUS
10
0.147285
20
0.386292
11
0.145652
21
0.385768
0
LINE
8
BLACK
6
CONTINUOUS
10
0.145652
20
0.385768
11
0.129127
21
0.385768
0
LINE
8
BLACK
6
CONTINUOUS
10
0.129127
20
0.385768
11
0.127254
21
0.386449
0
LINE
8
BLACK
6
CONTINUOUS
10
0.127254
20
0.386449
11
0.127067
21
0.386621
0
LINE
8
BLACK
6
CONTINUOUS
10
0.127067
20
0.386621
11
0.126978
21
0.38671
0
LINE
8
BLACK
6
CONTINUOUS
10
0.126978
20
0.38671
11
0.126861
21
0.386861
0
LINE
8
BLACK
6
CONTINUOUS
10
0.126861
20
0.386861
11
0.125636
21
0.387802
0
LINE
8
BLACK
6
CONTINUOUS
10
0.125636
20
0.387802
11
0.122074
21
0.390535
0
LINE
8
BLACK
6
CONTINUOUS
10
0.122074
20
0.390535
11
0.122074
21
0.390535
0
LINE
8
BLACK
6
CONTINUOUS
10
0.122074
20
0.390535
11
0.121923
21
0.390651
0
LINE
8
BLACK
6
CONTINUOUS
10
0.121923
20
0.390651
11
0.116172
21
0.393033
0
LINE
8
BLACK
6
CONTINUOUS
10
0.116172
20
0.393033
11
0.115983
21
0.393058
0
LINE
8
BLACK
6
CONTINUOUS
10
0.115983
20
0.393058
11
0.115983
21
0.393058
0
LINE
8
BLACK
6
CONTINUOUS
10
0.115983
20
0.393058
11
0.110189
21
0.393821
0
LINE
8
BLACK
6
CONTINUOUS
10
0.110189
20
0.393821
11
0.11
21
0.393846
0
LINE
8
BLACK
6
CONTINUOUS
10
0.11
20
0.393846
11
0.109811
21
0.393821
0
LINE
8
BLACK
6
CONTINUOUS
10
0.109811
20
0.393821
11
0.104017
21
0.393058
0
LINE
8
BLACK
6
CONTINUOUS
10
0.104017
20
0.393058
11
0.104017
21
0.393058
0
LINE
8
BLACK
6
CONTINUOUS
10
0.104017
20
0.393058
11
0.103828
21
0.393033
0
LINE
8
BLACK
6
CONTINUOUS
10
0.103828
20
0.393033
11
0.0980771
21
0.390651
0
LINE
8
BLACK
6
CONTINUOUS
10
0.0980771
20
0.390651
11
0.0979258
21
0.390535
0
LINE
8
BLACK
6
CONTINUOUS
10
0.0979258
20
0.390535
11
0.0979256
21
0.390535
0
LINE
8
BLACK
6
CONTINUOUS
10
0.0979256
20
0.390535
11
0.0932901
21
0.386978
0
LINE
8
BLACK
6
CONTINUOUS
10
0.0932901
20
0.386978
11
0.0931385
21
0.386861
0
LINE
8
BLACK
6
CONTINUOUS
10
0.0931385
20
0.386861
11
0.0930222
21
0.38671
0
LINE
8
BLACK
6
CONTINUOUS
10
0.0930222
20
0.38671
11
0.0894652
21
0.382074
0
LINE
8
BLACK
6
CONTINUOUS
10
0.0894652
20
0.382074
11
0.0894651
21
0.382074
0
LINE
8
BLACK
6
CONTINUOUS
10
0.0894651
20
0.382074
11
0.089349
21
0.381923
0
LINE
8
BLACK
6
CONTINUOUS
10
0.089349
20
0.381923
11
0.0869668
21
0.376172
0
LINE
8
BLACK
6
CONTINUOUS
10
0.0869668
20
0.376172
11
0.0861543
21
0.37
0
LINE
8
BLACK
6
CONTINUOUS
10
0.0861543
20
0.37
11
0.0869668
21
0.363828
0
LINE
8
BLACK
6
CONTINUOUS
10
0.0869668
20
0.363828
11
0.089349
21
0.358077
0
LINE
8
BLACK
6
CONTINUOUS
10
0.0676003
20
0.481614
11
0.0672068
21
0.481471
0
LINE
8
BLACK
6
CONTINUOUS
10
0.0672068
20
0.481471
11
0.0670866
21
0.481263
0
LINE
8
BLACK
6
CONTINUOUS
10
0.0670866
20
0.481263
11
0.0670866
21
0.461614
0
LINE
8
BLACK
6
CONTINUOUS
10
0.0670866
20
0.461614
11
0.100394
21
0.461614
0
LINE
8
BLACK
6
CONTINUOUS
10
0.100394
20
0.461614
11
0.10416
21
0.460865
0
LINE
8
BLACK
6
CONTINUOUS
10
0.10416
20
0.460865
11
0.107353
21
0.458731
0
LINE
8
BLACK
6
CONTINUOUS
10
0.107353
20
0.458731
11
0.109487
21
0.455538
0
LINE
8
BLACK
6
CONTINUOUS
10
0.109487
20
0.455538
11
0.110205
21
0.451929
0
LINE
8
BLACK
6
CONTINUOUS
10
0.110205
20
0.451929
11
0.129722
21
0.451929
0
LINE
8
BLACK
6
CONTINUOUS
10
0.129722
20
0.451929
11
0.130116
21
0.452072
0
LINE
8
BLACK
6
CONTINUOUS
10
0.130116
20
0.452072
11
0.130236
21
0.452281
0
LINE
8
BLACK
6
CONTINUOUS
10
0.130236
20
0.452281
11
0.130236
21
0.453679
0
LINE
8
BLACK
6
CONTINUOUS
10
0.130236
20
0.453679
11
0.130228
21
0.453829
0
LINE
8
BLACK
6
CONTINUOUS
10
0.130228
20
0.453829
11
0.129821
21
0.457757
0
LINE
8
BLACK
6
CONTINUOUS
10
0.129821
20
0.457757
11
0.129754
21
0.458067
0
LINE
8
BLACK
6
CONTINUOUS
10
0.129754
20
0.458067
11
0.127656
21
0.464356
0
LINE
8
BLACK
6
CONTINUOUS
10
0.127656
20
0.464356
11
0.127513
21
0.464661
0
LINE
8
BLACK
6
CONTINUOUS
10
0.127513
20
0.464661
11
0.124029
21
0.47029
0
LINE
8
BLACK
6
CONTINUOUS
10
0.124029
20
0.47029
11
0.12382
21
0.470554
0
LINE
8
BLACK
6
CONTINUOUS
10
0.12382
20
0.470554
11
0.119135
21
0.475231
0
LINE
8
BLACK
6
CONTINUOUS
10
0.119135
20
0.475231
11
0.118871
21
0.47544
0
LINE
8
BLACK
6
CONTINUOUS
10
0.118871
20
0.47544
11
0.113236
21
0.478914
0
LINE
8
BLACK
6
CONTINUOUS
10
0.113236
20
0.478914
11
0.112931
21
0.479056
0
LINE
8
BLACK
6
CONTINUOUS
10
0.112931
20
0.479056
11
0.106638
21
0.481143
0
LINE
8
BLACK
6
CONTINUOUS
10
0.106638
20
0.481143
11
0.106328
21
0.481209
0
LINE
8
BLACK
6
CONTINUOUS
10
0.106328
20
0.481209
11
0.10245
21
0.481607
0
LINE
8
BLACK
6
CONTINUOUS
10
0.10245
20
0.481607
11
0.102302
21
0.481614
0
LINE
8
BLACK
6
CONTINUOUS
10
0.102302
20
0.481614
11
0.0676003
21
0.481614
0
LINE
8
BLACK
6
CONTINUOUS
10
0.067438
20
0.402244
11
0.102301
21
0.402244
0
LINE
8
BLACK
6
CONTINUOUS
10
0.102301
20
0.402244
11
0.102451
21
0.402252
0
LINE
8
BLACK
6
CONTINUOUS
10
0.102451
20
0.402252
11
0.106379
21
0.402659
0
LINE
8
BLACK
6
CONTINUOUS
10
0.106379
20
0.402659
11
0.106689
21
0.402726
0
LINE
8
BLACK
6
CONTINUOUS
10
0.106689
20
0.402726
11
0.112978
21
0.404825
0
LINE
8
BLACK
6
CONTINUOUS
10
0.112978
20
0.404825
11
0.113283
21
0.404967
0
LINE
8
BLACK
6
CONTINUOUS
10
0.113283
20
0.404967
11
0.118912
21
0.408451
0
LINE
8
BLACK
6
CONTINUOUS
10
0.118912
20
0.408451
11
0.119176
21
0.40866
0
LINE
8
BLACK
6
CONTINUOUS
10
0.119176
20
0.40866
11
0.123853
21
0.413345
0
LINE
8
BLACK
6
CONTINUOUS
10
0.123853
20
0.413345
11
0.124062
21
0.413609
0
LINE
8
BLACK
6
CONTINUOUS
10
0.124062
20
0.413609
11
0.127536
21
0.419245
0
LINE
8
BLACK
6
CONTINUOUS
10
0.127536
20
0.419245
11
0.127678
21
0.419549
0
LINE
8
BLACK
6
CONTINUOUS
10
0.127678
20
0.419549
11
0.129765
21
0.425843
0
LINE
8
BLACK
6
CONTINUOUS
10
0.129765
20
0.425843
11
0.129831
21
0.426152
0
LINE
8
BLACK
6
CONTINUOUS
10
0.129831
20
0.426152
11
0.130229
21
0.43003
0
LINE
8
BLACK
6
CONTINUOUS
10
0.130229
20
0.43003
11
0.130236
21
0.430178
0
LINE
8
BLACK
6
CONTINUOUS
10
0.130236
20
0.430178
11
0.130236
21
0.431415
0
LINE
8
BLACK
6
CONTINUOUS
10
0.130236
20
0.431415
11
0.130093
21
0.431809
0
LINE
8
BLACK
6
CONTINUOUS
10
0.130093
20
0.431809
11
0.129885
21
0.431929
0
LINE
8
BLACK
6
CONTINUOUS
10
0.129885
20
0.431929
11
0.110205
21
0.431929
0
LINE
8
BLACK
6
CONTINUOUS
10
0.110205
20
0.431929
11
0.109487
21
0.42832
0
LINE
8
BLACK
6
CONTINUOUS
10
0.109487
20
0.42832
11
0.107353
21
0.425127
0
LINE
8
BLACK
6
CONTINUOUS
10
0.107353
20
0.425127
11
0.10416
21
0.422993
0
LINE
8
BLACK
6
CONTINUOUS
10
0.10416
20
0.422993
11
0.100394
21
0.422244
0
LINE
8
BLACK
6
CONTINUOUS
10
0.100394
20
0.422244
11
0.0670866
21
0.422244
0
LINE
8
BLACK
6
CONTINUOUS
10
0.0670866
20
0.422244
11
0.0670866
21
0.402758
0
LINE
8
BLACK
6
CONTINUOUS
10
0.0670866
20
0.402758
11
0.0672298
21
0.402364
0
LINE
8
BLACK
6
CONTINUOUS
10
0.0672298
20
0.402364
11
0.067438
21
0.402244
0
LINE
8
BLACK
6
CONTINUOUS
10
0.131497
20
0.205357
11
0.131641
21
0.205023
0
LINE
8
BLACK
6
CONTINUOUS
10
0.131641
20
0.205023
11
0.134786
21
0.199705
0
LINE
8
BLACK
6
CONTINUOUS
10
0.134786
20
0.199705
11
0.135009
21
0.199418
0
LINE
8
BLACK
6
CONTINUOUS
10
0.135009
20
0.199418
11
0.139378
21
0.195049
0
LINE
8
BLACK
6
CONTINUOUS
10
0.139378
20
0.195049
11
0.139666
21
0.194826
0
LINE
8
BLACK
6
CONTINUOUS
10
0.139666
20
0.194826
11
0.144984
21
0.191681
0
LINE
8
BLACK
6
CONTINUOUS
10
0.144984
20
0.191681
11
0.145318
21
0.191536
0
LINE
8
BLACK
6
CONTINUOUS
10
0.145318
20
0.191536
11
0.151284
21
0.189803
0
LINE
8
BLACK
6
CONTINUOUS
10
0.151284
20
0.189803
11
0.151575
21
0.18975
0
LINE
8
BLACK
6
CONTINUOUS
10
0.151575
20
0.18975
11
0.152838
21
0.18965
0
LINE
8
BLACK
6
CONTINUOUS
10
0.152838
20
0.18965
11
0.152953
21
0.189646
0
LINE
8
BLACK
6
CONTINUOUS
10
0.152953
20
0.189646
11
0.172557
21
0.189646
0
LINE
8
BLACK
6
CONTINUOUS
10
0.172557
20
0.189646
11
0.172951
21
0.189789
0
LINE
8
BLACK
6
CONTINUOUS
10
0.172951
20
0.189789
11
0.173071
21
0.189997
0
LINE
8
BLACK
6
CONTINUOUS
10
0.173071
20
0.189997
11
0.173071
21
0.209646
0
LINE
8
BLACK
6
CONTINUOUS
10
0.173071
20
0.209646
11
0.155512
21
0.209646
0
LINE
8
BLACK
6
CONTINUOUS
10
0.155512
20
0.209646
11
0.153252
21
0.210095
0
LINE
8
BLACK
6
CONTINUOUS
10
0.153252
20
0.210095
11
0.151336
21
0.211375
0
LINE
8
BLACK
6
CONTINUOUS
10
0.151336
20
0.211375
11
0.151282
21
0.211457
0
LINE
8
BLACK
6
CONTINUOUS
10
0.151282
20
0.211457
11
0.130238
21
0.211457
0
LINE
8
BLACK
6
CONTINUOUS
10
0.130238
20
0.211457
11
0.129845
21
0.211313
0
LINE
8
BLACK
6
CONTINUOUS
10
0.129845
20
0.211313
11
0.129811
21
0.211256
0
LINE
8
BLACK
6
CONTINUOUS
10
0.129811
20
0.211256
11
0.129818
21
0.211135
0
LINE
8
BLACK
6
CONTINUOUS
10
0.129818
20
0.211135
11
0.131497
21
0.205357
0
LINE
8
BLACK
6
CONTINUOUS
10
0.21289
20
0.331243
11
0.214806
21
0.329963
0
LINE
8
BLACK
6
CONTINUOUS
10
0.214806
20
0.329963
11
0.216086
21
0.328047
0
LINE
8
BLACK
6
CONTINUOUS
10
0.216086
20
0.328047
11
0.21619
21
0.327525
0
LINE
8
BLACK
6
CONTINUOUS
10
0.21619
20
0.327525
11
0.216466
21
0.327461
0
LINE
8
BLACK
6
CONTINUOUS
10
0.216466
20
0.327461
11
0.217773
21
0.327313
0
LINE
8
BLACK
6
CONTINUOUS
10
0.217773
20
0.327313
11
0.218156
21
0.327073
0
LINE
8
BLACK
6
CONTINUOUS
10
0.218156
20
0.327073
11
0.218598
21
0.326971
0
LINE
8
BLACK
6
CONTINUOUS
10
0.218598
20
0.326971
11
0.219625
21
0.326149
0
LINE
8
BLACK
6
CONTINUOUS
10
0.219625
20
0.326149
11
0.220738
21
0.32545
0
LINE
8
BLACK
6
CONTINUOUS
10
0.220738
20
0.32545
11
0.255577
21
0.290611
0
LINE
8
BLACK
6
CONTINUOUS
10
0.255577
20
0.290611
11
0.256275
21
0.289496
0
LINE
8
BLACK
6
CONTINUOUS
10
0.256275
20
0.289496
11
0.257095
21
0.288467
0
LINE
8
BLACK
6
CONTINUOUS
10
0.257095
20
0.288467
11
0.257196
21
0.288026
0
LINE
8
BLACK
6
CONTINUOUS
10
0.257196
20
0.288026
11
0.257436
21
0.287642
0
LINE
8
BLACK
6
CONTINUOUS
10
0.257436
20
0.287642
11
0.257582
21
0.286335
0
LINE
8
BLACK
6
CONTINUOUS
10
0.257582
20
0.286335
11
0.257874
21
0.285053
0
LINE
8
BLACK
6
CONTINUOUS
10
0.257874
20
0.285053
11
0.257874
21
0.283445
0
LINE
8
BLACK
6
CONTINUOUS
10
0.257874
20
0.283445
11
0.259256
21
0.28274
0
LINE
8
BLACK
6
CONTINUOUS
10
0.259256
20
0.28274
11
0.26274
21
0.279256
0
LINE
8
BLACK
6
CONTINUOUS
10
0.26274
20
0.279256
11
0.264448
21
0.275906
0
LINE
8
BLACK
6
CONTINUOUS
10
0.264448
20
0.275906
11
0.685552
21
0.275906
0
LINE
8
BLACK
6
CONTINUOUS
10
0.685552
20
0.275906
11
0.68726
21
0.279256
0
LINE
8
BLACK
6
CONTINUOUS
10
0.68726
20
0.279256
11
0.690744
21
0.28274
0
LINE
8
BLACK
6
CONTINUOUS
10
0.690744
20
0.28274
11
0.695134
21
0.284977
0
LINE
8
BLACK
6
CONTINUOUS
10
0.695134
20
0.284977
11
0.7
21
0.285748
0
LINE
8
BLACK
6
CONTINUOUS
10
0.7
20
0.285748
11
0.704866
21
0.284977
0
LINE
8
BLACK
6
CONTINUOUS
10
0.704866
20
0.284977
11
0.709256
21
0.28274
0
LINE
8
BLACK
6
CONTINUOUS
10
0.709256
20
0.28274
11
0.71274
21
0.279256
0
LINE
8
BLACK
6
CONTINUOUS
10
0.71274
20
0.279256
11
0.714977
21
0.274866
0
LINE
8
BLACK
6
CONTINUOUS
10
0.714977
20
0.274866
11
0.715748
21
0.27
0
LINE
8
BLACK
6
CONTINUOUS
10
0.715748
20
0.27
11
0.714977
21
0.265134
0
LINE
8
BLACK
6
CONTINUOUS
10
0.714977
20
0.265134
11
0.71274
21
0.260744
0
LINE
8
BLACK
6
CONTINUOUS
10
0.71274
20
0.260744
11
0.709256
21
0.25726
0
LINE
8
BLACK
6
CONTINUOUS
10
0.709256
20
0.25726
11
0.704866
21
0.255023
0
LINE
8
BLACK
6
CONTINUOUS
10
0.704866
20
0.255023
11
0.7
21
0.254252
0
LINE
8
BLACK
6
CONTINUOUS
10
0.7
20
0.254252
11
0.695134
21
0.255023
0
LINE
8
BLACK
6
CONTINUOUS
10
0.695134
20
0.255023
11
0.690744
21
0.25726
0
LINE
8
BLACK
6
CONTINUOUS
10
0.690744
20
0.25726
11
0.68726
21
0.260744
0
LINE
8
BLACK
6
CONTINUOUS
10
0.68726
20
0.260744
11
0.685552
21
0.264094
0
LINE
8
BLACK
6
CONTINUOUS
10
0.685552
20
0.264094
11
0.264448
21
0.264094
0
LINE
8
BLACK
6
CONTINUOUS
10
0.264448
20
0.264094
11
0.26274
21
0.260744
0
LINE
8
BLACK
6
CONTINUOUS
10
0.26274
20
0.260744
11
0.259256
21
0.25726
0
LINE
8
BLACK
6
CONTINUOUS
10
0.259256
20
0.25726
11
0.254866
21
0.255023
0
LINE
8
BLACK
6
CONTINUOUS
10
0.254866
20
0.255023
11
0.25
21
0.254252
0
LINE
8
BLACK
6
CONTINUOUS
10
0.25
20
0.254252
11
0.245134
21
0.255023
0
LINE
8
BLACK
6
CONTINUOUS
10
0.245134
20
0.255023
11
0.240744
21
0.25726
0
LINE
8
BLACK
6
CONTINUOUS
10
0.240744
20
0.25726
11
0.23726
21
0.260744
0
LINE
8
BLACK
6
CONTINUOUS
10
0.23726
20
0.260744
11
0.235023
21
0.265134
0
LINE
8
BLACK
6
CONTINUOUS
10
0.235023
20
0.265134
11
0.234252
21
0.27
0
LINE
8
BLACK
6
CONTINUOUS
10
0.234252
20
0.27
11
0.235023
21
0.274866
0
LINE
8
BLACK
6
CONTINUOUS
10
0.235023
20
0.274866
11
0.23726
21
0.279256
0
LINE
8
BLACK
6
CONTINUOUS
10
0.23726
20
0.279256
11
0.240744
21
0.28274
0
LINE
8
BLACK
6
CONTINUOUS
10
0.240744
20
0.28274
11
0.24103
21
0.282887
0
LINE
8
BLACK
6
CONTINUOUS
10
0.24103
20
0.282887
11
0.214393
21
0.309524
0
LINE
8
BLACK
6
CONTINUOUS
10
0.214393
20
0.309524
11
0.21289
21
0.30852
0
LINE
8
BLACK
6
CONTINUOUS
10
0.21289
20
0.30852
11
0.21063
21
0.308071
0
LINE
8
BLACK
6
CONTINUOUS
10
0.21063
20
0.308071
11
0.155512
21
0.308071
0
LINE
8
BLACK
6
CONTINUOUS
10
0.155512
20
0.308071
11
0.153252
21
0.30852
0
LINE
8
BLACK
6
CONTINUOUS
10
0.153252
20
0.30852
11
0.151336
21
0.309801
0
LINE
8
BLACK
6
CONTINUOUS
10
0.151336
20
0.309801
11
0.150056
21
0.311716
0
LINE
8
BLACK
6
CONTINUOUS
10
0.150056
20
0.311716
11
0.149606
21
0.313976
0
LINE
8
BLACK
6
CONTINUOUS
10
0.149606
20
0.313976
11
0.149606
21
0.325787
0
LINE
8
BLACK
6
CONTINUOUS
10
0.149606
20
0.325787
11
0.150056
21
0.328047
0
LINE
8
BLACK
6
CONTINUOUS
10
0.150056
20
0.328047
11
0.151336
21
0.329963
0
LINE
8
BLACK
6
CONTINUOUS
10
0.151336
20
0.329963
11
0.153252
21
0.331243
0
LINE
8
BLACK
6
CONTINUOUS
10
0.153252
20
0.331243
11
0.155512
21
0.331693
0
LINE
8
BLACK
6
CONTINUOUS
10
0.155512
20
0.331693
11
0.21063
21
0.331693
0
LINE
8
BLACK
6
CONTINUOUS
10
0.21063
20
0.331693
11
0.21289
21
0.331243
0
LINE
8
BLACK
6
CONTINUOUS
10
0.117071
20
0.285647
11
0.121461
21
0.28341
0
LINE
8
BLACK
6
CONTINUOUS
10
0.121461
20
0.28341
11
0.124945
21
0.279926
0
LINE
8
BLACK
6
CONTINUOUS
10
0.124945
20
0.279926
11
0.12565
21
0.278543
0
LINE
8
BLACK
6
CONTINUOUS
10
0.12565
20
0.278543
11
0.149998
21
0.278543
0
LINE
8
BLACK
6
CONTINUOUS
10
0.149998
20
0.278543
11
0.150056
21
0.278835
0
LINE
8
BLACK
6
CONTINUOUS
10
0.150056
20
0.278835
11
0.151336
21
0.280751
0
LINE
8
BLACK
6
CONTINUOUS
10
0.151336
20
0.280751
11
0.153252
21
0.282031
0
LINE
8
BLACK
6
CONTINUOUS
10
0.153252
20
0.282031
11
0.155512
21
0.28248
0
LINE
8
BLACK
6
CONTINUOUS
10
0.155512
20
0.28248
11
0.21063
21
0.28248
0
LINE
8
BLACK
6
CONTINUOUS
10
0.21063
20
0.28248
11
0.21289
21
0.282031
0
LINE
8
BLACK
6
CONTINUOUS
10
0.21289
20
0.282031
11
0.214806
21
0.280751
0
LINE
8
BLACK
6
CONTINUOUS
10
0.214806
20
0.280751
11
0.216086
21
0.278835
0
LINE
8
BLACK
6
CONTINUOUS
10
0.216086
20
0.278835
11
0.216535
21
0.276575
0
LINE
8
BLACK
6
CONTINUOUS
10
0.216535
20
0.276575
11
0.216535
21
0.264764
0
LINE
8
BLACK
6
CONTINUOUS
10
0.216535
20
0.264764
11
0.216086
21
0.262504
0
LINE
8
BLACK
6
CONTINUOUS
10
0.216086
20
0.262504
11
0.214806
21
0.260588
0
LINE
8
BLACK
6
CONTINUOUS
10
0.214806
20
0.260588
11
0.21289
21
0.259308
0
LINE
8
BLACK
6
CONTINUOUS
10
0.21289
20
0.259308
11
0.21063
21
0.258858
0
LINE
8
BLACK
6
CONTINUOUS
10
0.21063
20
0.258858
11
0.155512
21
0.258858
0
LINE
8
BLACK
6
CONTINUOUS
10
0.155512
20
0.258858
11
0.153252
21
0.259308
0
LINE
8
BLACK
6
CONTINUOUS
10
0.153252
20
0.259308
11
0.151336
21
0.260588
0
LINE
8
BLACK
6
CONTINUOUS
10
0.151336
20
0.260588
11
0.150056
21
0.262504
0
LINE
8
BLACK
6
CONTINUOUS
10
0.150056
20
0.262504
11
0.149998
21
0.262795
0
LINE
8
BLACK
6
CONTINUOUS
10
0.149998
20
0.262795
11
0.12565
21
0.262795
0
LINE
8
BLACK
6
CONTINUOUS
10
0.12565
20
0.262795
11
0.124945
21
0.261413
0
LINE
8
BLACK
6
CONTINUOUS
10
0.124945
20
0.261413
11
0.121461
21
0.257929
0
LINE
8
BLACK
6
CONTINUOUS
10
0.121461
20
0.257929
11
0.117071
21
0.255692
0
LINE
8
BLACK
6
CONTINUOUS
10
0.117071
20
0.255692
11
0.112205
21
0.254921
0
LINE
8
BLACK
6
CONTINUOUS
10
0.112205
20
0.254921
11
0.107338
21
0.255692
0
LINE
8
BLACK
6
CONTINUOUS
10
0.107338
20
0.255692
11
0.102948
21
0.257929
0
LINE
8
BLACK
6
CONTINUOUS
10
0.102948
20
0.257929
11
0.0994643
21
0.261413
0
LINE
8
BLACK
6
CONTINUOUS
10
0.0994643
20
0.261413
11
0.0972274
21
0.265803
0
LINE
8
BLACK
6
CONTINUOUS
10
0.0972274
20
0.265803
11
0.0964567
21
0.270669
0
LINE
8
BLACK
6
CONTINUOUS
10
0.0964567
20
0.270669
11
0.0972274
21
0.275536
0
LINE
8
BLACK
6
CONTINUOUS
10
0.0972274
20
0.275536
11
0.0994643
21
0.279926
0
LINE
8
BLACK
6
CONTINUOUS
10
0.0994643
20
0.279926
11
0.102948
21
0.28341
0
LINE
8
BLACK
6
CONTINUOUS
10
0.102948
20
0.28341
11
0.107338
21
0.285647
0
LINE
8
BLACK
6
CONTINUOUS
10
0.107338
20
0.285647
11
0.112205
21
0.286417
0
LINE
8
BLACK
6
CONTINUOUS
10
0.112205
20
0.286417
11
0.117071
21
0.285647
0
LINE
8
BLACK
6
CONTINUOUS
10
0.254866
20
0.384977
11
0.259256
21
0.38274
0
LINE
8
BLACK
6
CONTINUOUS
10
0.259256
20
0.38274
11
0.26274
21
0.379256
0
LINE
8
BLACK
6
CONTINUOUS
10
0.26274
20
0.379256
11
0.264977
21
0.374866
0
LINE
8
BLACK
6
CONTINUOUS
10
0.264977
20
0.374866
11
0.265748
21
0.37
0
LINE
8
BLACK
6
CONTINUOUS
10
0.265748
20
0.37
11
0.264977
21
0.365134
0
LINE
8
BLACK
6
CONTINUOUS
10
0.264977
20
0.365134
11
0.26274
21
0.360744
0
LINE
8
BLACK
6
CONTINUOUS
10
0.26274
20
0.360744
11
0.259256
21
0.35726
0
LINE
8
BLACK
6
CONTINUOUS
10
0.259256
20
0.35726
11
0.254866
21
0.355023
0
LINE
8
BLACK
6
CONTINUOUS
10
0.254866
20
0.355023
11
0.25
21
0.354252
0
LINE
8
BLACK
6
CONTINUOUS
10
0.25
20
0.354252
11
0.245134
21
0.355023
0
LINE
8
BLACK
6
CONTINUOUS
10
0.245134
20
0.355023
11
0.240744
21
0.35726
0
LINE
8
BLACK
6
CONTINUOUS
10
0.240744
20
0.35726
11
0.23726
21
0.360744
0
LINE
8
BLACK
6
CONTINUOUS
10
0.23726
20
0.360744
11
0.237017
21
0.36122
0
LINE
8
BLACK
6
CONTINUOUS
10
0.237017
20
0.36122
11
0.216144
21
0.36122
0
LINE
8
BLACK
6
CONTINUOUS
10
0.216144
20
0.36122
11
0.216086
21
0.360929
0
LINE
8
BLACK
6
CONTINUOUS
10
0.216086
20
0.360929
11
0.214806
21
0.359013
0
LINE
8
BLACK
6
CONTINUOUS
10
0.214806
20
0.359013
11
0.21289
21
0.357733
0
LINE
8
BLACK
6
CONTINUOUS
10
0.21289
20
0.357733
11
0.21063
21
0.357283
0
LINE
8
BLACK
6
CONTINUOUS
10
0.21063
20
0.357283
11
0.155512
21
0.357283
0
LINE
8
BLACK
6
CONTINUOUS
10
0.155512
20
0.357283
11
0.153252
21
0.357733
0
LINE
8
BLACK
6
CONTINUOUS
10
0.153252
20
0.357733
11
0.151336
21
0.359013
0
LINE
8
BLACK
6
CONTINUOUS
10
0.151336
20
0.359013
11
0.150056
21
0.360929
0
LINE
8
BLACK
6
CONTINUOUS
10
0.150056
20
0.360929
11
0.149818
21
0.362126
0
LINE
8
BLACK
6
CONTINUOUS
10
0.149818
20
0.362126
11
0.123445
21
0.362126
0
LINE
8
BLACK
6
CONTINUOUS
10
0.123445
20
0.362126
11
0.12274
21
0.360744
0
LINE
8
BLACK
6
CONTINUOUS
10
0.12274
20
0.360744
11
0.119256
21
0.35726
0
LINE
8
BLACK
6
CONTINUOUS
10
0.119256
20
0.35726
11
0.114866
21
0.355023
0
LINE
8
BLACK
6
CONTINUOUS
10
0.114866
20
0.355023
11
0.11
21
0.354252
0
LINE
8
BLACK
6
CONTINUOUS
10
0.11
20
0.354252
11
0.105134
21
0.355023
0
LINE
8
BLACK
6
CONTINUOUS
10
0.105134
20
0.355023
11
0.100744
21
0.35726
0
LINE
8
BLACK
6
CONTINUOUS
10
0.100744
20
0.35726
11
0.0972596
21
0.360744
0
LINE
8
BLACK
6
CONTINUOUS
10
0.0972596
20
0.360744
11
0.0950227
21
0.365134
0
LINE
8
BLACK
6
CONTINUOUS
10
0.0950227
20
0.365134
11
0.094252
21
0.37
0
LINE
8
BLACK
6
CONTINUOUS
10
0.094252
20
0.37
11
0.0950227
21
0.374866
0
LINE
8
BLACK
6
CONTINUOUS
10
0.0950227
20
0.374866
11
0.0972596
21
0.379256
0
LINE
8
BLACK
6
CONTINUOUS
10
0.0972596
20
0.379256
11
0.100744
21
0.38274
0
LINE
8
BLACK
6
CONTINUOUS
10
0.100744
20
0.38274
11
0.105134
21
0.384977
0
LINE
8
BLACK
6
CONTINUOUS
10
0.105134
20
0.384977
11
0.11
21
0.385748
0
LINE
8
BLACK
6
CONTINUOUS
10
0.11
20
0.385748
11
0.114866
21
0.384977
0
LINE
8
BLACK
6
CONTINUOUS
10
0.114866
20
0.384977
11
0.119256
21
0.38274
0
LINE
8
BLACK
6
CONTINUOUS
10
0.119256
20
0.38274
11
0.12274
21
0.379256
0
LINE
8
BLACK
6
CONTINUOUS
10
0.12274
20
0.379256
11
0.123445
21
0.377874
0
LINE
8
BLACK
6
CONTINUOUS
10
0.123445
20
0.377874
11
0.150466
21
0.377874
0
LINE
8
BLACK
6
CONTINUOUS
10
0.150466
20
0.377874
11
0.151336
21
0.379176
0
LINE
8
BLACK
6
CONTINUOUS
10
0.151336
20
0.379176
11
0.153252
21
0.380456
0
LINE
8
BLACK
6
CONTINUOUS
10
0.153252
20
0.380456
11
0.155512
21
0.380906
0
LINE
8
BLACK
6
CONTINUOUS
10
0.155512
20
0.380906
11
0.21063
21
0.380906
0
LINE
8
BLACK
6
CONTINUOUS
10
0.21063
20
0.380906
11
0.21289
21
0.380456
0
LINE
8
BLACK
6
CONTINUOUS
10
0.21289
20
0.380456
11
0.214806
21
0.379176
0
LINE
8
BLACK
6
CONTINUOUS
10
0.214806
20
0.379176
11
0.216086
21
0.37726
0
LINE
8
BLACK
6
CONTINUOUS
10
0.216086
20
0.37726
11
0.216144
21
0.376969
0
LINE
8
BLACK
6
CONTINUOUS
10
0.216144
20
0.376969
11
0.236094
21
0.376969
0
LINE
8
BLACK
6
CONTINUOUS
10
0.236094
20
0.376969
11
0.23726
21
0.379256
0
LINE
8
BLACK
6
CONTINUOUS
10
0.23726
20
0.379256
11
0.240744
21
0.38274
0
LINE
8
BLACK
6
CONTINUOUS
10
0.240744
20
0.38274
11
0.245134
21
0.384977
0
LINE
8
BLACK
6
CONTINUOUS
10
0.245134
20
0.384977
11
0.25
21
0.385748
0
LINE
8
BLACK
6
CONTINUOUS
10
0.25
20
0.385748
11
0.254866
21
0.384977
0
CIRCLE
8
BLACK
10
0.554961
20
0.42815
40
0.00787402
0
CIRCLE
8
BLACK
10
0.165
20
0.17
40
0.00787402
0
CIRCLE
8
BLACK
10
0.045
20
0.505
40
0.00787402
0
CIRCLE
8
BLACK
10
0.155
20
0.475
40
0.00787402
0
CIRCLE
8
BLACK
10
0.085
20
0.505
40
0.00787402
0
CIRCLE
8
BLACK
10
0.125
20
0.505
40
0.00787402
0
CIRCLE
8
BLACK
10
0.045
20
0.215
40
0.00787402
0
CIRCLE
8
BLACK
10
0.624016
20
0.216535
40
0.00787402
0
CIRCLE
8
BLACK
10
0.512795
20
0.186024
40
0.00787402
0
CIRCLE
8
BLACK
10
0.045
20
0.09
40
0.00787402
0
CIRCLE
8
BLACK
10
0.065
20
0.385
40
0.00787402
0
CIRCLE
8
BLACK
10
0.135
20
0.09
40
0.00787402
0
CIRCLE
8
BLACK
10
0.165
20
0.125
40
0.00787402
0
CIRCLE
8
BLACK
10
0.04
20
0.35
40
0.00787402
0
CIRCLE
8
BLACK
10
0.09
20
0.09
40
0.00787402
0
CIRCLE
8
BLACK
10
0.2
20
0.42
40
0.00787402
0
CIRCLE
8
BLACK
10
0.04
20
0.305
40
0.00787402
0
CIRCLE
8
BLACK
10
0.356142
20
0.437992
40
0.00787402
0
CIRCLE
8
BLACK
10
1.08252
20
0.39937
40
0.00787402
0
CIRCLE
8
BLACK
10
0.359094
20
0.231299
40
0.00787402
0
CIRCLE
8
BLACK
10
0.04
20
0.26
40
0.00787402
0
CIRCLE
8
BLACK
10
0.16
20
0.42
40
0.00787402
0
CIRCLE
8
BLACK
10
0.11
20
0.37
40
0.00787402
0
CIRCLE
8
BLACK
10
0.25
20
0.37
40
0.00787402
0
CIRCLE
8
BLACK
10
0.112205
20
0.270669
40
0.00787402
0
CIRCLE
8
BLACK
10
0.266575
20
0.312992
40
0.00787402
0
CIRCLE
8
BLACK
10
0.61
20
0.32
40
0.00787402
0
CIRCLE
8
BLACK
10
1.11008
20
0.167087
40
0.00787402
0
CIRCLE
8
BLACK
10
0.25
20
0.27
40
0.00787402
0
CIRCLE
8
BLACK
10
0.7
20
0.27
40
0.00787402
0
CIRCLE
8
BLACK
10
0.99
20
0.121811
40
0.00787402
0
CIRCLE
8
BLACK
10
0.71
20
0.141752
40
0.00787402
  0
ENDSEC
  0
EOF
