  0
SECTION
  2
HEADER
  9
$ANGBASE
  50
0.0
  9
$ANGDIR
  70
1
  9
$MEASUREMENT
  70
0
  0
ENDSEC
  0
SECTION
  2
TABLES
  0
TABLE
  2
LTYPE
  70
4
  0
LTYPE
  5
40F
  2
CONTINUOUS
  70
0
  3
Solid line
  72
65
  73
0
  40
0.0
  0
LTYPE
  5
410
  2
DASHDOT
 70
0
  3
Dash Dot ____ _ ____ _
 72
65
 73
4
 40
2.0
 49
1.25
 49
-0.25
 49
0.25
 49
-0.25
  0
LTYPE
  5
411
  2
DASHED
 70
0
  3
Dashed __ __ __ __ __
 72
65
 73
2
 40
0.75
 49
0.5
 49
-0.25
  0
LTYPE
  5
43B
  2
DOTTED
 70
0
  3
Dotted .  .  .  .
 72
65
 73
2
 40
0.2
 49
0.0
 49
-0.2
  0
ENDTAB
  0
TABLE
  2
STYLE
  70
4
  0
STYLE
  2
KICAD
  70
0
  40
0
  41
1
  42
1
  50
0
  71
0
  3
isocp.shx
  0
STYLE
  2
KICADB
  70
0
  40
0
  41
1
  42
1
  50
0
  71
0
  3
isocp.shx
  0
STYLE
  2
KICADI
  70
0
  40
0
  41
1
  42
1
  50
15
  71
0
  3
isocp.shx
  0
STYLE
  2
KICADBI
  70
0
  40
0
  41
1
  42
1
  50
15
  71
0
  3
isocp.shx
  0
ENDTAB
  0
TABLE
  2
LAYER
  70
1
  0
LAYER
  2
BLACK
  70
0
  62
7
  6
CONTINUOUS
  0
ENDTAB
  0
ENDSEC
  0
SECTION
  2
ENTITIES
0
LINE
8
BLACK
6
CONTINUOUS
10
0.0123876
20
0.131482
11
0.011811
21
0.132874
0
LINE
8
BLACK
6
CONTINUOUS
10
0.011811
20
0.132874
11
0.011811
21
0.457677
0
LINE
8
BLACK
6
CONTINUOUS
10
0.011811
20
0.457677
11
0.0123876
21
0.459069
0
LINE
8
BLACK
6
CONTINUOUS
10
0.0123876
20
0.459069
11
0.0137795
21
0.459646
0
LINE
8
BLACK
6
CONTINUOUS
10
0.0137795
20
0.459646
11
0.173228
21
0.459646
0
LINE
8
BLACK
6
CONTINUOUS
10
0.173228
20
0.459646
11
0.17462
21
0.459069
0
LINE
8
BLACK
6
CONTINUOUS
10
0.17462
20
0.459069
11
0.175197
21
0.457677
0
LINE
8
BLACK
6
CONTINUOUS
10
0.175197
20
0.457677
11
0.175197
21
0.132874
0
LINE
8
BLACK
6
CONTINUOUS
10
0.175197
20
0.132874
11
0.17462
21
0.131482
0
LINE
8
BLACK
6
CONTINUOUS
10
0.17462
20
0.131482
11
0.173228
21
0.130906
0
LINE
8
BLACK
6
CONTINUOUS
10
0.173228
20
0.130906
11
0.0137795
21
0.130906
0
LINE
8
BLACK
6
CONTINUOUS
10
0.0137795
20
0.130906
11
0.0123876
21
0.131482
0
LINE
8
BLACK
6
CONTINUOUS
10
0.015748
20
0.455709
11
0.015748
21
0.134843
0
LINE
8
BLACK
6
CONTINUOUS
10
0.015748
20
0.134843
11
0.17126
21
0.134843
0
LINE
8
BLACK
6
CONTINUOUS
10
0.17126
20
0.134843
11
0.17126
21
0.34839
0
LINE
8
BLACK
6
CONTINUOUS
10
0.17126
20
0.34839
11
0.144253
21
0.367487
0
LINE
8
BLACK
6
CONTINUOUS
10
0.144253
20
0.367487
11
0.144071
21
0.367776
0
LINE
8
BLACK
6
CONTINUOUS
10
0.144071
20
0.367776
11
0.143782
21
0.367958
0
LINE
8
BLACK
6
CONTINUOUS
10
0.143782
20
0.367958
11
0.143685
21
0.368388
0
LINE
8
BLACK
6
CONTINUOUS
10
0.143685
20
0.368388
11
0.143449
21
0.368762
0
LINE
8
BLACK
6
CONTINUOUS
10
0.143449
20
0.368762
11
0.143525
21
0.369094
0
LINE
8
BLACK
6
CONTINUOUS
10
0.143525
20
0.369094
11
0.143449
21
0.369427
0
LINE
8
BLACK
6
CONTINUOUS
10
0.143449
20
0.369427
11
0.143685
21
0.369801
0
LINE
8
BLACK
6
CONTINUOUS
10
0.143685
20
0.369801
11
0.143782
21
0.370231
0
LINE
8
BLACK
6
CONTINUOUS
10
0.143782
20
0.370231
11
0.144071
21
0.370413
0
LINE
8
BLACK
6
CONTINUOUS
10
0.144071
20
0.370413
11
0.144253
21
0.370702
0
LINE
8
BLACK
6
CONTINUOUS
10
0.144253
20
0.370702
11
0.17126
21
0.389799
0
LINE
8
BLACK
6
CONTINUOUS
10
0.17126
20
0.389799
11
0.17126
21
0.455709
0
LINE
8
BLACK
6
CONTINUOUS
10
0.17126
20
0.455709
11
0.015748
21
0.455709
0
LINE
8
BLACK
6
CONTINUOUS
10
0.148799
20
0.369094
11
0.17126
21
0.353212
0
LINE
8
BLACK
6
CONTINUOUS
10
0.17126
20
0.353212
11
0.17126
21
0.384977
0
LINE
8
BLACK
6
CONTINUOUS
10
0.17126
20
0.384977
11
0.148799
21
0.369094
0
LINE
8
BLACK
6
CONTINUOUS
10
0.117667
20
0.284952
11
0.117732
21
0.284953
0
LINE
8
BLACK
6
CONTINUOUS
10
0.117732
20
0.284953
11
0.123356
21
0.283079
0
LINE
8
BLACK
6
CONTINUOUS
10
0.123356
20
0.283079
11
0.124258
21
0.28259
0
LINE
8
BLACK
6
CONTINUOUS
10
0.124258
20
0.28259
11
0.12435
21
0.28244
0
LINE
8
BLACK
6
CONTINUOUS
10
0.12435
20
0.28244
11
0.12451
21
0.282365
0
LINE
8
BLACK
6
CONTINUOUS
10
0.12451
20
0.282365
11
0.12826
21
0.278616
0
LINE
8
BLACK
6
CONTINUOUS
10
0.12826
20
0.278616
11
0.128848
21
0.277776
0
LINE
8
BLACK
6
CONTINUOUS
10
0.128848
20
0.277776
11
0.128863
21
0.2776
0
LINE
8
BLACK
6
CONTINUOUS
10
0.128863
20
0.2776
11
0.128973
21
0.277462
0
LINE
8
BLACK
6
CONTINUOUS
10
0.128973
20
0.277462
11
0.130848
21
0.271837
0
LINE
8
BLACK
6
CONTINUOUS
10
0.130848
20
0.271837
11
0.130977
21
0.270964
0
LINE
8
BLACK
6
CONTINUOUS
10
0.130977
20
0.270964
11
0.130999
21
0.270904
0
LINE
8
BLACK
6
CONTINUOUS
10
0.130999
20
0.270904
11
0.130999
21
0.267154
0
LINE
8
BLACK
6
CONTINUOUS
10
0.130999
20
0.267154
11
0.130821
21
0.266144
0
LINE
8
BLACK
6
CONTINUOUS
10
0.130821
20
0.266144
11
0.129523
21
0.264597
0
LINE
8
BLACK
6
CONTINUOUS
10
0.129523
20
0.264597
11
0.127534
21
0.264246
0
LINE
8
BLACK
6
CONTINUOUS
10
0.127534
20
0.264246
11
0.125785
21
0.265256
0
LINE
8
BLACK
6
CONTINUOUS
10
0.125785
20
0.265256
11
0.125094
21
0.267154
0
LINE
8
BLACK
6
CONTINUOUS
10
0.125094
20
0.267154
11
0.125094
21
0.270425
0
LINE
8
BLACK
6
CONTINUOUS
10
0.125094
20
0.270425
11
0.123591
21
0.274933
0
LINE
8
BLACK
6
CONTINUOUS
10
0.123591
20
0.274933
11
0.120827
21
0.277697
0
LINE
8
BLACK
6
CONTINUOUS
10
0.120827
20
0.277697
11
0.116319
21
0.279199
0
LINE
8
BLACK
6
CONTINUOUS
10
0.116319
20
0.279199
11
0.0886764
21
0.279199
0
LINE
8
BLACK
6
CONTINUOUS
10
0.0886764
20
0.279199
11
0.0876665
21
0.279378
0
LINE
8
BLACK
6
CONTINUOUS
10
0.0876665
20
0.279378
11
0.0861192
21
0.280676
0
LINE
8
BLACK
6
CONTINUOUS
10
0.0861192
20
0.280676
11
0.0857685
21
0.282665
0
LINE
8
BLACK
6
CONTINUOUS
10
0.0857685
20
0.282665
11
0.0867784
21
0.284414
0
LINE
8
BLACK
6
CONTINUOUS
10
0.0867784
20
0.284414
11
0.0886764
21
0.285105
0
LINE
8
BLACK
6
CONTINUOUS
10
0.0886764
20
0.285105
11
0.116798
21
0.285105
0
LINE
8
BLACK
6
CONTINUOUS
10
0.116798
20
0.285105
11
0.117667
21
0.284952
0
LINE
8
BLACK
6
CONTINUOUS
10
0.100794
20
0.324322
11
0.100859
21
0.324324
0
LINE
8
BLACK
6
CONTINUOUS
10
0.100859
20
0.324324
11
0.106483
21
0.322449
0
LINE
8
BLACK
6
CONTINUOUS
10
0.106483
20
0.322449
11
0.107385
21
0.321961
0
LINE
8
BLACK
6
CONTINUOUS
10
0.107385
20
0.321961
11
0.107477
21
0.32181
0
LINE
8
BLACK
6
CONTINUOUS
10
0.107477
20
0.32181
11
0.107637
21
0.321735
0
LINE
8
BLACK
6
CONTINUOUS
10
0.107637
20
0.321735
11
0.125094
21
0.304279
0
LINE
8
BLACK
6
CONTINUOUS
10
0.125094
20
0.304279
11
0.125094
21
0.321522
0
LINE
8
BLACK
6
CONTINUOUS
10
0.125094
20
0.321522
11
0.125272
21
0.322532
0
LINE
8
BLACK
6
CONTINUOUS
10
0.125272
20
0.322532
11
0.12657
21
0.324079
0
LINE
8
BLACK
6
CONTINUOUS
10
0.12657
20
0.324079
11
0.128559
21
0.32443
0
LINE
8
BLACK
6
CONTINUOUS
10
0.128559
20
0.32443
11
0.130308
21
0.32342
0
LINE
8
BLACK
6
CONTINUOUS
10
0.130308
20
0.32342
11
0.130999
21
0.321522
0
LINE
8
BLACK
6
CONTINUOUS
10
0.130999
20
0.321522
11
0.130999
21
0.29715
0
LINE
8
BLACK
6
CONTINUOUS
10
0.130999
20
0.29715
11
0.130887
21
0.296516
0
LINE
8
BLACK
6
CONTINUOUS
10
0.130887
20
0.296516
11
0.130899
21
0.296386
0
LINE
8
BLACK
6
CONTINUOUS
10
0.130899
20
0.296386
11
0.130853
21
0.296321
0
LINE
8
BLACK
6
CONTINUOUS
10
0.130853
20
0.296321
11
0.130821
21
0.29614
0
LINE
8
BLACK
6
CONTINUOUS
10
0.130821
20
0.29614
11
0.13025
21
0.29546
0
LINE
8
BLACK
6
CONTINUOUS
10
0.13025
20
0.29546
11
0.12974
21
0.294732
0
LINE
8
BLACK
6
CONTINUOUS
10
0.12974
20
0.294732
11
0.12961
21
0.294697
0
LINE
8
BLACK
6
CONTINUOUS
10
0.12961
20
0.294697
11
0.129523
21
0.294593
0
LINE
8
BLACK
6
CONTINUOUS
10
0.129523
20
0.294593
11
0.128647
21
0.294439
0
LINE
8
BLACK
6
CONTINUOUS
10
0.128647
20
0.294439
11
0.127789
21
0.294209
0
LINE
8
BLACK
6
CONTINUOUS
10
0.127789
20
0.294209
11
0.127667
21
0.294266
0
LINE
8
BLACK
6
CONTINUOUS
10
0.127667
20
0.294266
11
0.127534
21
0.294242
0
LINE
8
BLACK
6
CONTINUOUS
10
0.127534
20
0.294242
11
0.126764
21
0.294687
0
LINE
8
BLACK
6
CONTINUOUS
10
0.126764
20
0.294687
11
0.125959
21
0.295062
0
LINE
8
BLACK
6
CONTINUOUS
10
0.125959
20
0.295062
11
0.103954
21
0.317067
0
LINE
8
BLACK
6
CONTINUOUS
10
0.103954
20
0.317067
11
0.0994459
21
0.31857
0
LINE
8
BLACK
6
CONTINUOUS
10
0.0994459
20
0.31857
11
0.0968725
21
0.31857
0
LINE
8
BLACK
6
CONTINUOUS
10
0.0968725
20
0.31857
11
0.094175
21
0.317221
0
LINE
8
BLACK
6
CONTINUOUS
10
0.094175
20
0.317221
11
0.0929779
21
0.316024
0
LINE
8
BLACK
6
CONTINUOUS
10
0.0929779
20
0.316024
11
0.0916291
21
0.313326
0
LINE
8
BLACK
6
CONTINUOUS
10
0.0916291
20
0.313326
11
0.0916291
21
0.305347
0
LINE
8
BLACK
6
CONTINUOUS
10
0.0916291
20
0.305347
11
0.0929779
21
0.302649
0
LINE
8
BLACK
6
CONTINUOUS
10
0.0929779
20
0.302649
11
0.0945139
21
0.301113
0
LINE
8
BLACK
6
CONTINUOUS
10
0.0945139
20
0.301113
11
0.095102
21
0.300273
0
LINE
8
BLACK
6
CONTINUOUS
10
0.095102
20
0.300273
11
0.0952781
21
0.298261
0
LINE
8
BLACK
6
CONTINUOUS
10
0.0952781
20
0.298261
11
0.0941196
21
0.296606
0
LINE
8
BLACK
6
CONTINUOUS
10
0.0941196
20
0.296606
11
0.0921686
21
0.296084
0
LINE
8
BLACK
6
CONTINUOUS
10
0.0921686
20
0.296084
11
0.090338
21
0.296937
0
LINE
8
BLACK
6
CONTINUOUS
10
0.090338
20
0.296937
11
0.0884633
21
0.298812
0
LINE
8
BLACK
6
CONTINUOUS
10
0.0884633
20
0.298812
11
0.087957
21
0.299535
0
LINE
8
BLACK
6
CONTINUOUS
10
0.087957
20
0.299535
11
0.0879102
21
0.299579
0
LINE
8
BLACK
6
CONTINUOUS
10
0.0879102
20
0.299579
11
0.0860354
21
0.303329
0
LINE
8
BLACK
6
CONTINUOUS
10
0.0860354
20
0.303329
11
0.085743
21
0.304312
0
LINE
8
BLACK
6
CONTINUOUS
10
0.085743
20
0.304312
11
0.085784
21
0.304484
0
LINE
8
BLACK
6
CONTINUOUS
10
0.085784
20
0.304484
11
0.0857236
21
0.304649
0
LINE
8
BLACK
6
CONTINUOUS
10
0.0857236
20
0.304649
11
0.0857236
21
0.314023
0
LINE
8
BLACK
6
CONTINUOUS
10
0.0857236
20
0.314023
11
0.0859017
21
0.315033
0
LINE
8
BLACK
6
CONTINUOUS
10
0.0859017
20
0.315033
11
0.0860152
21
0.315168
0
LINE
8
BLACK
6
CONTINUOUS
10
0.0860152
20
0.315168
11
0.0860354
21
0.315344
0
LINE
8
BLACK
6
CONTINUOUS
10
0.0860354
20
0.315344
11
0.0879102
21
0.319093
0
LINE
8
BLACK
6
CONTINUOUS
10
0.0879102
20
0.319093
11
0.0884361
21
0.319802
0
LINE
8
BLACK
6
CONTINUOUS
10
0.0884361
20
0.319802
11
0.0884633
21
0.319861
0
LINE
8
BLACK
6
CONTINUOUS
10
0.0884633
20
0.319861
11
0.090338
21
0.321735
0
LINE
8
BLACK
6
CONTINUOUS
10
0.090338
20
0.321735
11
0.0910611
21
0.322242
0
LINE
8
BLACK
6
CONTINUOUS
10
0.0910611
20
0.322242
11
0.0911054
21
0.322289
0
LINE
8
BLACK
6
CONTINUOUS
10
0.0911054
20
0.322289
11
0.094855
21
0.324163
0
LINE
8
BLACK
6
CONTINUOUS
10
0.094855
20
0.324163
11
0.0958379
21
0.324456
0
LINE
8
BLACK
6
CONTINUOUS
10
0.0958379
20
0.324456
11
0.0960096
21
0.324415
0
LINE
8
BLACK
6
CONTINUOUS
10
0.0960096
20
0.324415
11
0.0961755
21
0.324475
0
LINE
8
BLACK
6
CONTINUOUS
10
0.0961755
20
0.324475
11
0.099925
21
0.324475
0
LINE
8
BLACK
6
CONTINUOUS
10
0.099925
20
0.324475
11
0.100794
21
0.324322
  0
ENDSEC
  0
EOF
