  0
SECTION
  2
HEADER
  9
$ANGBASE
  50
0.0
  9
$ANGDIR
  70
1
  9
$MEASUREMENT
  70
0
  0
ENDSEC
  0
SECTION
  2
TABLES
  0
TABLE
  2
LTYPE
  70
4
  0
LTYPE
  5
40F
  2
CONTINUOUS
  70
0
  3
Solid line
  72
65
  73
0
  40
0.0
  0
LTYPE
  5
410
  2
DASHDOT
 70
0
  3
Dash Dot ____ _ ____ _
 72
65
 73
4
 40
2.0
 49
1.25
 49
-0.25
 49
0.25
 49
-0.25
  0
LTYPE
  5
411
  2
DASHED
 70
0
  3
Dashed __ __ __ __ __
 72
65
 73
2
 40
0.75
 49
0.5
 49
-0.25
  0
LTYPE
  5
43B
  2
DOTTED
 70
0
  3
Dotted .  .  .  .
 72
65
 73
2
 40
0.2
 49
0.0
 49
-0.2
  0
ENDTAB
  0
TABLE
  2
STYLE
  70
4
  0
STYLE
  2
KICAD
  70
0
  40
0
  41
1
  42
1
  50
0
  71
0
  3
isocp.shx
  0
STYLE
  2
KICADB
  70
0
  40
0
  41
1
  42
1
  50
0
  71
0
  3
isocp.shx
  0
STYLE
  2
KICADI
  70
0
  40
0
  41
1
  42
1
  50
15
  71
0
  3
isocp.shx
  0
STYLE
  2
KICADBI
  70
0
  40
0
  41
1
  42
1
  50
15
  71
0
  3
isocp.shx
  0
ENDTAB
  0
TABLE
  2
LAYER
  70
1
  0
LAYER
  2
BLACK
  70
0
  62
7
  6
CONTINUOUS
  0
ENDTAB
  0
ENDSEC
  0
SECTION
  2
ENTITIES
0
LINE
8
BLACK
6
CONTINUOUS
10
0.497684
20
0.058793
11
0.507211
21
0.0570959
0
LINE
8
BLACK
6
CONTINUOUS
10
0.507211
20
0.0570959
11
0.516334
21
0.0538654
0
LINE
8
BLACK
6
CONTINUOUS
10
0.516334
20
0.0538654
11
0.524807
21
0.0491883
0
LINE
8
BLACK
6
CONTINUOUS
10
0.524807
20
0.0491883
11
0.532401
21
0.0431902
0
LINE
8
BLACK
6
CONTINUOUS
10
0.532401
20
0.0431902
11
0.538915
21
0.0360322
0
LINE
8
BLACK
6
CONTINUOUS
10
0.538915
20
0.0360322
11
0.544171
21
0.0279065
0
LINE
8
BLACK
6
CONTINUOUS
10
0.544171
20
0.0279065
11
0.54803
21
0.0190315
0
LINE
8
BLACK
6
CONTINUOUS
10
0.54803
20
0.0190315
11
0.550388
21
0.00964524
0
LINE
8
BLACK
6
CONTINUOUS
10
0.550388
20
0.00964524
11
0.551181
21
0
0
LINE
8
BLACK
6
CONTINUOUS
10
0.551181
20
0
11
0.551111
21
-0.00288484
0
LINE
8
BLACK
6
CONTINUOUS
10
0.551111
20
-0.00288484
11
0.549847
21
-0.0124798
0
LINE
8
BLACK
6
CONTINUOUS
10
0.549847
20
-0.0124798
11
0.547034
21
-0.0217396
0
LINE
8
BLACK
6
CONTINUOUS
10
0.547034
20
-0.0217396
11
0.542746
21
-0.0304156
0
LINE
8
BLACK
6
CONTINUOUS
10
0.542746
20
-0.0304156
11
0.537099
21
-0.0382748
0
LINE
8
BLACK
6
CONTINUOUS
10
0.537099
20
-0.0382748
11
0.530244
21
-0.0451061
0
LINE
8
BLACK
6
CONTINUOUS
10
0.530244
20
-0.0451061
11
0.522365
21
-0.050726
0
LINE
8
BLACK
6
CONTINUOUS
10
0.522365
20
-0.050726
11
0.513674
21
-0.0549836
0
LINE
8
BLACK
6
CONTINUOUS
10
0.513674
20
-0.0549836
11
0.504404
21
-0.0577646
0
LINE
8
BLACK
6
CONTINUOUS
10
0.504404
20
-0.0577646
11
0.494805
21
-0.0589943
0
LINE
8
BLACK
6
CONTINUOUS
10
0.494805
20
-0.0589943
11
0.485134
21
-0.0586397
0
LINE
8
BLACK
6
CONTINUOUS
10
0.485134
20
-0.0586397
11
0.47565
21
-0.0567103
0
LINE
8
BLACK
6
CONTINUOUS
10
0.47565
20
-0.0567103
11
0.466609
21
-0.0532578
0
LINE
8
BLACK
6
CONTINUOUS
10
0.466609
20
-0.0532578
11
0.458253
21
-0.0483751
0
LINE
8
BLACK
6
CONTINUOUS
10
0.458253
20
-0.0483751
11
0.450807
21
-0.0421933
0
LINE
8
BLACK
6
CONTINUOUS
10
0.450807
20
-0.0421933
11
0.444471
21
-0.0348783
0
LINE
8
BLACK
6
CONTINUOUS
10
0.444471
20
-0.0348783
11
0.439414
21
-0.0266266
0
LINE
8
BLACK
6
CONTINUOUS
10
0.439414
20
-0.0266266
11
0.435773
21
-0.0176599
0
LINE
8
BLACK
6
CONTINUOUS
10
0.435773
20
-0.0176599
11
0.433646
21
-0.0082189
0
LINE
8
BLACK
6
CONTINUOUS
10
0.433646
20
-0.0082189
11
0.433089
21
0.00144283
0
LINE
8
BLACK
6
CONTINUOUS
10
0.433089
20
0.00144283
11
0.434117
21
0.0110658
0
LINE
8
BLACK
6
CONTINUOUS
10
0.434117
20
0.0110658
11
0.436703
21
0.0203916
0
LINE
8
BLACK
6
CONTINUOUS
10
0.436703
20
0.0203916
11
0.440778
21
0.0291698
0
LINE
8
BLACK
6
CONTINUOUS
10
0.440778
20
0.0291698
11
0.446232
21
0.0371646
0
LINE
8
BLACK
6
CONTINUOUS
10
0.446232
20
0.0371646
11
0.452918
21
0.0441613
0
LINE
8
BLACK
6
CONTINUOUS
10
0.452918
20
0.0441613
11
0.460657
21
0.049972
0
LINE
8
BLACK
6
CONTINUOUS
10
0.460657
20
0.049972
11
0.469241
21
0.0544407
0
LINE
8
BLACK
6
CONTINUOUS
10
0.469241
20
0.0544407
11
0.47844
21
0.0574474
0
LINE
8
BLACK
6
CONTINUOUS
10
0.47844
20
0.0574474
11
0.488006
21
0.0589113
0
LINE
8
BLACK
6
CONTINUOUS
10
0.488006
20
0.0589113
11
0.497684
21
0.058793
0
LINE
8
BLACK
6
CONTINUOUS
10
0.891384
20
0.058793
11
0.900912
21
0.0570959
0
LINE
8
BLACK
6
CONTINUOUS
10
0.900912
20
0.0570959
11
0.910035
21
0.0538654
0
LINE
8
BLACK
6
CONTINUOUS
10
0.910035
20
0.0538654
11
0.918507
21
0.0491883
0
LINE
8
BLACK
6
CONTINUOUS
10
0.918507
20
0.0491883
11
0.926102
21
0.0431902
0
LINE
8
BLACK
6
CONTINUOUS
10
0.926102
20
0.0431902
11
0.932616
21
0.0360322
0
LINE
8
BLACK
6
CONTINUOUS
10
0.932616
20
0.0360322
11
0.937872
21
0.0279065
0
LINE
8
BLACK
6
CONTINUOUS
10
0.937872
20
0.0279065
11
0.941731
21
0.0190315
0
LINE
8
BLACK
6
CONTINUOUS
10
0.941731
20
0.0190315
11
0.944089
21
0.00964524
0
LINE
8
BLACK
6
CONTINUOUS
10
0.944089
20
0.00964524
11
0.944882
21
0
0
LINE
8
BLACK
6
CONTINUOUS
10
0.944882
20
0
11
0.944811
21
-0.00288484
0
LINE
8
BLACK
6
CONTINUOUS
10
0.944811
20
-0.00288484
11
0.943548
21
-0.0124798
0
LINE
8
BLACK
6
CONTINUOUS
10
0.943548
20
-0.0124798
11
0.940735
21
-0.0217396
0
LINE
8
BLACK
6
CONTINUOUS
10
0.940735
20
-0.0217396
11
0.936447
21
-0.0304156
0
LINE
8
BLACK
6
CONTINUOUS
10
0.936447
20
-0.0304156
11
0.930799
21
-0.0382748
0
LINE
8
BLACK
6
CONTINUOUS
10
0.930799
20
-0.0382748
11
0.923944
21
-0.0451061
0
LINE
8
BLACK
6
CONTINUOUS
10
0.923944
20
-0.0451061
11
0.916066
21
-0.050726
0
LINE
8
BLACK
6
CONTINUOUS
10
0.916066
20
-0.050726
11
0.907375
21
-0.0549836
0
LINE
8
BLACK
6
CONTINUOUS
10
0.907375
20
-0.0549836
11
0.898105
21
-0.0577646
0
LINE
8
BLACK
6
CONTINUOUS
10
0.898105
20
-0.0577646
11
0.888506
21
-0.0589943
0
LINE
8
BLACK
6
CONTINUOUS
10
0.888506
20
-0.0589943
11
0.878834
21
-0.0586397
0
LINE
8
BLACK
6
CONTINUOUS
10
0.878834
20
-0.0586397
11
0.869351
21
-0.0567103
0
LINE
8
BLACK
6
CONTINUOUS
10
0.869351
20
-0.0567103
11
0.86031
21
-0.0532578
0
LINE
8
BLACK
6
CONTINUOUS
10
0.86031
20
-0.0532578
11
0.851954
21
-0.0483751
0
LINE
8
BLACK
6
CONTINUOUS
10
0.851954
20
-0.0483751
11
0.844508
21
-0.0421933
0
LINE
8
BLACK
6
CONTINUOUS
10
0.844508
20
-0.0421933
11
0.838172
21
-0.0348783
0
LINE
8
BLACK
6
CONTINUOUS
10
0.838172
20
-0.0348783
11
0.833115
21
-0.0266266
0
LINE
8
BLACK
6
CONTINUOUS
10
0.833115
20
-0.0266266
11
0.829474
21
-0.0176599
0
LINE
8
BLACK
6
CONTINUOUS
10
0.829474
20
-0.0176599
11
0.827346
21
-0.0082189
0
LINE
8
BLACK
6
CONTINUOUS
10
0.827346
20
-0.0082189
11
0.826789
21
0.00144283
0
LINE
8
BLACK
6
CONTINUOUS
10
0.826789
20
0.00144283
11
0.827818
21
0.0110658
0
LINE
8
BLACK
6
CONTINUOUS
10
0.827818
20
0.0110658
11
0.830404
21
0.0203916
0
LINE
8
BLACK
6
CONTINUOUS
10
0.830404
20
0.0203916
11
0.834479
21
0.0291698
0
LINE
8
BLACK
6
CONTINUOUS
10
0.834479
20
0.0291698
11
0.839932
21
0.0371646
0
LINE
8
BLACK
6
CONTINUOUS
10
0.839932
20
0.0371646
11
0.846619
21
0.0441613
0
LINE
8
BLACK
6
CONTINUOUS
10
0.846619
20
0.0441613
11
0.854358
21
0.049972
0
LINE
8
BLACK
6
CONTINUOUS
10
0.854358
20
0.049972
11
0.862942
21
0.0544407
0
LINE
8
BLACK
6
CONTINUOUS
10
0.862942
20
0.0544407
11
0.872141
21
0.0574474
0
LINE
8
BLACK
6
CONTINUOUS
10
0.872141
20
0.0574474
11
0.881707
21
0.0589113
0
LINE
8
BLACK
6
CONTINUOUS
10
0.881707
20
0.0589113
11
0.891384
21
0.058793
0
LINE
8
BLACK
6
CONTINUOUS
10
0.103983
20
0.058793
11
0.113511
21
0.0570959
0
LINE
8
BLACK
6
CONTINUOUS
10
0.113511
20
0.0570959
11
0.122633
21
0.0538654
0
LINE
8
BLACK
6
CONTINUOUS
10
0.122633
20
0.0538654
11
0.131106
21
0.0491883
0
LINE
8
BLACK
6
CONTINUOUS
10
0.131106
20
0.0491883
11
0.138701
21
0.0431902
0
LINE
8
BLACK
6
CONTINUOUS
10
0.138701
20
0.0431902
11
0.145214
21
0.0360322
0
LINE
8
BLACK
6
CONTINUOUS
10
0.145214
20
0.0360322
11
0.150471
21
0.0279065
0
LINE
8
BLACK
6
CONTINUOUS
10
0.150471
20
0.0279065
11
0.15433
21
0.0190315
0
LINE
8
BLACK
6
CONTINUOUS
10
0.15433
20
0.0190315
11
0.156687
21
0.00964524
0
LINE
8
BLACK
6
CONTINUOUS
10
0.156687
20
0.00964524
11
0.15748
21
0
0
LINE
8
BLACK
6
CONTINUOUS
10
0.15748
20
0
11
0.15741
21
-0.00288484
0
LINE
8
BLACK
6
CONTINUOUS
10
0.15741
20
-0.00288484
11
0.156147
21
-0.0124798
0
LINE
8
BLACK
6
CONTINUOUS
10
0.156147
20
-0.0124798
11
0.153333
21
-0.0217396
0
LINE
8
BLACK
6
CONTINUOUS
10
0.153333
20
-0.0217396
11
0.149045
21
-0.0304156
0
LINE
8
BLACK
6
CONTINUOUS
10
0.149045
20
-0.0304156
11
0.143398
21
-0.0382748
0
LINE
8
BLACK
6
CONTINUOUS
10
0.143398
20
-0.0382748
11
0.136543
21
-0.0451061
0
LINE
8
BLACK
6
CONTINUOUS
10
0.136543
20
-0.0451061
11
0.128664
21
-0.050726
0
LINE
8
BLACK
6
CONTINUOUS
10
0.128664
20
-0.050726
11
0.119973
21
-0.0549836
0
LINE
8
BLACK
6
CONTINUOUS
10
0.119973
20
-0.0549836
11
0.110703
21
-0.0577646
0
LINE
8
BLACK
6
CONTINUOUS
10
0.110703
20
-0.0577646
11
0.101104
21
-0.0589943
0
LINE
8
BLACK
6
CONTINUOUS
10
0.101104
20
-0.0589943
11
0.0914328
21
-0.0586397
0
LINE
8
BLACK
6
CONTINUOUS
10
0.0914328
20
-0.0586397
11
0.0819493
21
-0.0567103
0
LINE
8
BLACK
6
CONTINUOUS
10
0.0819493
20
-0.0567103
11
0.0729083
21
-0.0532578
0
LINE
8
BLACK
6
CONTINUOUS
10
0.0729083
20
-0.0532578
11
0.0645526
21
-0.0483751
0
LINE
8
BLACK
6
CONTINUOUS
10
0.0645526
20
-0.0483751
11
0.0571065
21
-0.0421933
0
LINE
8
BLACK
6
CONTINUOUS
10
0.0571065
20
-0.0421933
11
0.0507701
21
-0.0348783
0
LINE
8
BLACK
6
CONTINUOUS
10
0.0507701
20
-0.0348783
11
0.0457134
21
-0.0266266
0
LINE
8
BLACK
6
CONTINUOUS
10
0.0457134
20
-0.0266266
11
0.0420724
21
-0.0176599
0
LINE
8
BLACK
6
CONTINUOUS
10
0.0420724
20
-0.0176599
11
0.0399448
21
-0.0082189
0
LINE
8
BLACK
6
CONTINUOUS
10
0.0399448
20
-0.0082189
11
0.0393877
21
0.00144283
0
LINE
8
BLACK
6
CONTINUOUS
10
0.0393877
20
0.00144283
11
0.0404161
21
0.0110658
0
LINE
8
BLACK
6
CONTINUOUS
10
0.0404161
20
0.0110658
11
0.0430024
21
0.0203916
0
LINE
8
BLACK
6
CONTINUOUS
10
0.0430024
20
0.0203916
11
0.0470771
21
0.0291698
0
LINE
8
BLACK
6
CONTINUOUS
10
0.0470771
20
0.0291698
11
0.0525307
21
0.0371646
0
LINE
8
BLACK
6
CONTINUOUS
10
0.0525307
20
0.0371646
11
0.059217
21
0.0441613
0
LINE
8
BLACK
6
CONTINUOUS
10
0.059217
20
0.0441613
11
0.0669561
21
0.049972
0
LINE
8
BLACK
6
CONTINUOUS
10
0.0669561
20
0.049972
11
0.0755404
21
0.0544407
0
LINE
8
BLACK
6
CONTINUOUS
10
0.0755404
20
0.0544407
11
0.0847393
21
0.0574474
0
LINE
8
BLACK
6
CONTINUOUS
10
0.0847393
20
0.0574474
11
0.0943057
21
0.0589113
0
LINE
8
BLACK
6
CONTINUOUS
10
0.0943057
20
0.0589113
11
0.103983
21
0.058793
0
LINE
8
BLACK
6
CONTINUOUS
10
0.343875
20
0.131082
11
0.352824
21
0.128684
0
LINE
8
BLACK
6
CONTINUOUS
10
0.352824
20
0.128684
11
0.36122
21
0.124769
0
LINE
8
BLACK
6
CONTINUOUS
10
0.36122
20
0.124769
11
0.36881
21
0.119455
0
LINE
8
BLACK
6
CONTINUOUS
10
0.36881
20
0.119455
11
0.375361
21
0.112904
0
LINE
8
BLACK
6
CONTINUOUS
10
0.375361
20
0.112904
11
0.380675
21
0.105315
0
LINE
8
BLACK
6
CONTINUOUS
10
0.380675
20
0.105315
11
0.38459
21
0.0969184
0
LINE
8
BLACK
6
CONTINUOUS
10
0.38459
20
0.0969184
11
0.386988
21
0.0879695
0
LINE
8
BLACK
6
CONTINUOUS
10
0.386988
20
0.0879695
11
0.387795
21
0.0787402
0
LINE
8
BLACK
6
CONTINUOUS
10
0.387795
20
0.0787402
11
0.386988
21
0.0695108
0
LINE
8
BLACK
6
CONTINUOUS
10
0.386988
20
0.0695108
11
0.38459
21
0.0605619
0
LINE
8
BLACK
6
CONTINUOUS
10
0.38459
20
0.0605619
11
0.380675
21
0.0521654
0
LINE
8
BLACK
6
CONTINUOUS
10
0.380675
20
0.0521654
11
0.375361
21
0.0445763
0
LINE
8
BLACK
6
CONTINUOUS
10
0.375361
20
0.0445763
11
0.36881
21
0.0380252
0
LINE
8
BLACK
6
CONTINUOUS
10
0.36881
20
0.0380252
11
0.36122
21
0.0327113
0
LINE
8
BLACK
6
CONTINUOUS
10
0.36122
20
0.0327113
11
0.352824
21
0.0287959
0
LINE
8
BLACK
6
CONTINUOUS
10
0.352824
20
0.0287959
11
0.343875
21
0.026398
0
LINE
8
BLACK
6
CONTINUOUS
10
0.343875
20
0.026398
11
0.334646
21
0.0255906
0
LINE
8
BLACK
6
CONTINUOUS
10
0.334646
20
0.0255906
11
0.325416
21
0.026398
0
LINE
8
BLACK
6
CONTINUOUS
10
0.325416
20
0.026398
11
0.316467
21
0.0287959
0
LINE
8
BLACK
6
CONTINUOUS
10
0.316467
20
0.0287959
11
0.308071
21
0.0327113
0
LINE
8
BLACK
6
CONTINUOUS
10
0.308071
20
0.0327113
11
0.300482
21
0.0380252
0
LINE
8
BLACK
6
CONTINUOUS
10
0.300482
20
0.0380252
11
0.293931
21
0.0445763
0
LINE
8
BLACK
6
CONTINUOUS
10
0.293931
20
0.0445763
11
0.288617
21
0.0521654
0
LINE
8
BLACK
6
CONTINUOUS
10
0.288617
20
0.0521654
11
0.284701
21
0.0605619
0
LINE
8
BLACK
6
CONTINUOUS
10
0.284701
20
0.0605619
11
0.282304
21
0.0695108
0
LINE
8
BLACK
6
CONTINUOUS
10
0.282304
20
0.0695108
11
0.281496
21
0.0787402
0
LINE
8
BLACK
6
CONTINUOUS
10
0.281496
20
0.0787402
11
0.282304
21
0.0879695
0
LINE
8
BLACK
6
CONTINUOUS
10
0.282304
20
0.0879695
11
0.284701
21
0.0969184
0
LINE
8
BLACK
6
CONTINUOUS
10
0.284701
20
0.0969184
11
0.288617
21
0.105315
0
LINE
8
BLACK
6
CONTINUOUS
10
0.288617
20
0.105315
11
0.293931
21
0.112904
0
LINE
8
BLACK
6
CONTINUOUS
10
0.293931
20
0.112904
11
0.300482
21
0.119455
0
LINE
8
BLACK
6
CONTINUOUS
10
0.300482
20
0.119455
11
0.308071
21
0.124769
0
LINE
8
BLACK
6
CONTINUOUS
10
0.308071
20
0.124769
11
0.316467
21
0.128684
0
LINE
8
BLACK
6
CONTINUOUS
10
0.316467
20
0.128684
11
0.325416
21
0.131082
0
LINE
8
BLACK
6
CONTINUOUS
10
0.325416
20
0.131082
11
0.334646
21
0.13189
0
LINE
8
BLACK
6
CONTINUOUS
10
0.334646
20
0.13189
11
0.343875
21
0.131082
0
LINE
8
BLACK
6
CONTINUOUS
10
0.933113
20
0.156676
11
0.940453
21
0.154404
0
LINE
8
BLACK
6
CONTINUOUS
10
0.940453
20
0.154404
11
0.947212
21
0.15075
0
LINE
8
BLACK
6
CONTINUOUS
10
0.947212
20
0.15075
11
0.953133
21
0.145852
0
LINE
8
BLACK
6
CONTINUOUS
10
0.953133
20
0.145852
11
0.957989
21
0.139897
0
LINE
8
BLACK
6
CONTINUOUS
10
0.957989
20
0.139897
11
0.961596
21
0.133113
0
LINE
8
BLACK
6
CONTINUOUS
10
0.961596
20
0.133113
11
0.963817
21
0.125757
0
LINE
8
BLACK
6
CONTINUOUS
10
0.963817
20
0.125757
11
0.964567
21
0.11811
0
LINE
8
BLACK
6
CONTINUOUS
10
0.964567
20
0.11811
11
0.964552
21
0.117011
0
LINE
8
BLACK
6
CONTINUOUS
10
0.964552
20
0.117011
11
0.963589
21
0.109388
0
LINE
8
BLACK
6
CONTINUOUS
10
0.963589
20
0.109388
11
0.961163
21
0.102097
0
LINE
8
BLACK
6
CONTINUOUS
10
0.961163
20
0.102097
11
0.957368
21
0.0954161
0
LINE
8
BLACK
6
CONTINUOUS
10
0.957368
20
0.0954161
11
0.952347
21
0.0895995
0
LINE
8
BLACK
6
CONTINUOUS
10
0.952347
20
0.0895995
11
0.946292
21
0.084869
0
LINE
8
BLACK
6
CONTINUOUS
10
0.946292
20
0.084869
11
0.939434
21
0.0814046
0
LINE
8
BLACK
6
CONTINUOUS
10
0.939434
20
0.0814046
11
0.932033
21
0.0793383
0
LINE
8
BLACK
6
CONTINUOUS
10
0.932033
20
0.0793383
11
0.924372
21
0.0787488
0
LINE
8
BLACK
6
CONTINUOUS
10
0.924372
20
0.0787488
11
0.916743
21
0.0796586
0
LINE
8
BLACK
6
CONTINUOUS
10
0.916743
20
0.0796586
11
0.909435
21
0.082033
0
LINE
8
BLACK
6
CONTINUOUS
10
0.909435
20
0.082033
11
0.902728
21
0.0857815
0
LINE
8
BLACK
6
CONTINUOUS
10
0.902728
20
0.0857815
11
0.896876
21
0.0907615
0
LINE
8
BLACK
6
CONTINUOUS
10
0.896876
20
0.0907615
11
0.892104
21
0.0967831
0
LINE
8
BLACK
6
CONTINUOUS
10
0.892104
20
0.0967831
11
0.888591
21
0.103617
0
LINE
8
BLACK
6
CONTINUOUS
10
0.888591
20
0.103617
11
0.886474
21
0.111003
0
LINE
8
BLACK
6
CONTINUOUS
10
0.886474
20
0.111003
11
0.885831
21
0.11866
0
LINE
8
BLACK
6
CONTINUOUS
10
0.885831
20
0.11866
11
0.886687
21
0.126296
0
LINE
8
BLACK
6
CONTINUOUS
10
0.886687
20
0.126296
11
0.88901
21
0.13362
0
LINE
8
BLACK
6
CONTINUOUS
10
0.88901
20
0.13362
11
0.892712
21
0.140353
0
LINE
8
BLACK
6
CONTINUOUS
10
0.892712
20
0.140353
11
0.897651
21
0.146239
0
LINE
8
BLACK
6
CONTINUOUS
10
0.897651
20
0.146239
11
0.903639
21
0.151054
0
LINE
8
BLACK
6
CONTINUOUS
10
0.903639
20
0.151054
11
0.910449
21
0.154614
0
LINE
8
BLACK
6
CONTINUOUS
10
0.910449
20
0.154614
11
0.91782
21
0.156783
0
LINE
8
BLACK
6
CONTINUOUS
10
0.91782
20
0.156783
11
0.925472
21
0.157479
0
LINE
8
BLACK
6
CONTINUOUS
10
0.925472
20
0.157479
11
0.933113
21
0.156676
0
LINE
8
BLACK
6
CONTINUOUS
10
0.103713
20
0.175867
11
0.108684
21
0.174122
0
LINE
8
BLACK
6
CONTINUOUS
10
0.108684
20
0.174122
11
0.112921
21
0.170992
0
LINE
8
BLACK
6
CONTINUOUS
10
0.112921
20
0.170992
11
0.116051
21
0.166755
0
LINE
8
BLACK
6
CONTINUOUS
10
0.116051
20
0.166755
11
0.117796
21
0.161784
0
LINE
8
BLACK
6
CONTINUOUS
10
0.117796
20
0.161784
11
0.11811
21
0.158465
0
LINE
8
BLACK
6
CONTINUOUS
10
0.11811
20
0.158465
11
0.11811
21
0.13878
0
LINE
8
BLACK
6
CONTINUOUS
10
0.11811
20
0.13878
11
0.117796
21
0.13546
0
LINE
8
BLACK
6
CONTINUOUS
10
0.117796
20
0.13546
11
0.116051
21
0.130489
0
LINE
8
BLACK
6
CONTINUOUS
10
0.116051
20
0.130489
11
0.112921
21
0.126252
0
LINE
8
BLACK
6
CONTINUOUS
10
0.112921
20
0.126252
11
0.108684
21
0.123122
0
LINE
8
BLACK
6
CONTINUOUS
10
0.108684
20
0.123122
11
0.103713
21
0.121377
0
LINE
8
BLACK
6
CONTINUOUS
10
0.103713
20
0.121377
11
0.100394
21
0.121063
0
LINE
8
BLACK
6
CONTINUOUS
10
0.100394
20
0.121063
11
0.0137795
21
0.121063
0
LINE
8
BLACK
6
CONTINUOUS
10
0.0137795
20
0.121063
11
0.0104598
21
0.121377
0
LINE
8
BLACK
6
CONTINUOUS
10
0.0104598
20
0.121377
11
0.00548945
21
0.123122
0
LINE
8
BLACK
6
CONTINUOUS
10
0.00548945
20
0.123122
11
0.00125205
21
0.126252
0
LINE
8
BLACK
6
CONTINUOUS
10
0.00125205
20
0.126252
11
-0.00187776
21
0.130489
0
LINE
8
BLACK
6
CONTINUOUS
10
-0.00187776
20
0.130489
11
-0.00362319
21
0.13546
0
LINE
8
BLACK
6
CONTINUOUS
10
-0.00362319
20
0.13546
11
-0.00393701
21
0.13878
0
LINE
8
BLACK
6
CONTINUOUS
10
-0.00393701
20
0.13878
11
-0.00393701
21
0.158465
0
LINE
8
BLACK
6
CONTINUOUS
10
-0.00393701
20
0.158465
11
-0.00362319
21
0.161784
0
LINE
8
BLACK
6
CONTINUOUS
10
-0.00362319
20
0.161784
11
-0.00187776
21
0.166755
0
LINE
8
BLACK
6
CONTINUOUS
10
-0.00187776
20
0.166755
11
0.00125205
21
0.170992
0
LINE
8
BLACK
6
CONTINUOUS
10
0.00125205
20
0.170992
11
0.00548945
21
0.174122
0
LINE
8
BLACK
6
CONTINUOUS
10
0.00548945
20
0.174122
11
0.0104598
21
0.175867
0
LINE
8
BLACK
6
CONTINUOUS
10
0.0104598
20
0.175867
11
0.0137795
21
0.176181
0
LINE
8
BLACK
6
CONTINUOUS
10
0.0137795
20
0.176181
11
0.100394
21
0.176181
0
LINE
8
BLACK
6
CONTINUOUS
10
0.100394
20
0.176181
11
0.103713
21
0.175867
0
LINE
8
BLACK
6
CONTINUOUS
10
1.15842
20
0.214351
11
1.16377
21
0.212752
0
LINE
8
BLACK
6
CONTINUOUS
10
1.16377
20
0.212752
11
1.16845
21
0.209716
0
LINE
8
BLACK
6
CONTINUOUS
10
1.16845
20
0.209716
11
1.1721
21
0.205488
0
LINE
8
BLACK
6
CONTINUOUS
10
1.1721
20
0.205488
11
1.17441
21
0.200407
0
LINE
8
BLACK
6
CONTINUOUS
10
1.17441
20
0.200407
11
1.1752
21
0.194882
0
LINE
8
BLACK
6
CONTINUOUS
10
1.1752
20
0.194882
11
1.17519
21
0.194401
0
LINE
8
BLACK
6
CONTINUOUS
10
1.17519
20
0.194401
11
1.17426
21
0.188897
0
LINE
8
BLACK
6
CONTINUOUS
10
1.17426
20
0.188897
11
1.17183
21
0.183874
0
LINE
8
BLACK
6
CONTINUOUS
10
1.17183
20
0.183874
11
1.16809
21
0.179736
0
LINE
8
BLACK
6
CONTINUOUS
10
1.16809
20
0.179736
11
1.16333
21
0.176816
0
LINE
8
BLACK
6
CONTINUOUS
10
1.16333
20
0.176816
11
1.15794
21
0.175348
0
LINE
8
BLACK
6
CONTINUOUS
10
1.15794
20
0.175348
11
1.15236
21
0.17545
0
LINE
8
BLACK
6
CONTINUOUS
10
1.15236
20
0.17545
11
1.14704
21
0.177114
0
LINE
8
BLACK
6
CONTINUOUS
10
1.14704
20
0.177114
11
1.14239
21
0.180207
0
LINE
8
BLACK
6
CONTINUOUS
10
1.14239
20
0.180207
11
1.1388
21
0.18448
0
LINE
8
BLACK
6
CONTINUOUS
10
1.1388
20
0.18448
11
1.13655
21
0.189588
0
LINE
8
BLACK
6
CONTINUOUS
10
1.13655
20
0.189588
11
1.13583
21
0.195122
0
LINE
8
BLACK
6
CONTINUOUS
10
1.13583
20
0.195122
11
1.13669
21
0.200637
0
LINE
8
BLACK
6
CONTINUOUS
10
1.13669
20
0.200637
11
1.13906
21
0.205689
0
LINE
8
BLACK
6
CONTINUOUS
10
1.13906
20
0.205689
11
1.14275
21
0.209873
0
LINE
8
BLACK
6
CONTINUOUS
10
1.14275
20
0.209873
11
1.14747
21
0.212851
0
LINE
8
BLACK
6
CONTINUOUS
10
1.14747
20
0.212851
11
1.15284
21
0.214385
0
LINE
8
BLACK
6
CONTINUOUS
10
1.15284
20
0.214385
11
1.15842
21
0.214351
0
LINE
8
BLACK
6
CONTINUOUS
10
0.957634
20
0.214351
11
0.962981
21
0.212752
0
LINE
8
BLACK
6
CONTINUOUS
10
0.962981
20
0.212752
11
0.967665
21
0.209716
0
LINE
8
BLACK
6
CONTINUOUS
10
0.967665
20
0.209716
11
0.971308
21
0.205488
0
LINE
8
BLACK
6
CONTINUOUS
10
0.971308
20
0.205488
11
0.973618
21
0.200407
0
LINE
8
BLACK
6
CONTINUOUS
10
0.973618
20
0.200407
11
0.974409
21
0.194882
0
LINE
8
BLACK
6
CONTINUOUS
10
0.974409
20
0.194882
11
0.974404
21
0.194401
0
LINE
8
BLACK
6
CONTINUOUS
10
0.974404
20
0.194401
11
0.973478
21
0.188897
0
LINE
8
BLACK
6
CONTINUOUS
10
0.973478
20
0.188897
11
0.971044
21
0.183874
0
LINE
8
BLACK
6
CONTINUOUS
10
0.971044
20
0.183874
11
0.967299
21
0.179736
0
LINE
8
BLACK
6
CONTINUOUS
10
0.967299
20
0.179736
11
0.962542
21
0.176816
0
LINE
8
BLACK
6
CONTINUOUS
10
0.962542
20
0.176816
11
0.957158
21
0.175348
0
LINE
8
BLACK
6
CONTINUOUS
10
0.957158
20
0.175348
11
0.951577
21
0.17545
0
LINE
8
BLACK
6
CONTINUOUS
10
0.951577
20
0.17545
11
0.94625
21
0.177114
0
LINE
8
BLACK
6
CONTINUOUS
10
0.94625
20
0.177114
11
0.941604
21
0.180207
0
LINE
8
BLACK
6
CONTINUOUS
10
0.941604
20
0.180207
11
0.938012
21
0.18448
0
LINE
8
BLACK
6
CONTINUOUS
10
0.938012
20
0.18448
11
0.935765
21
0.189588
0
LINE
8
BLACK
6
CONTINUOUS
10
0.935765
20
0.189588
11
0.935041
21
0.195122
0
LINE
8
BLACK
6
CONTINUOUS
10
0.935041
20
0.195122
11
0.9359
21
0.200637
0
LINE
8
BLACK
6
CONTINUOUS
10
0.9359
20
0.200637
11
0.938271
21
0.205689
0
LINE
8
BLACK
6
CONTINUOUS
10
0.938271
20
0.205689
11
0.941966
21
0.209873
0
LINE
8
BLACK
6
CONTINUOUS
10
0.941966
20
0.209873
11
0.946686
21
0.212851
0
LINE
8
BLACK
6
CONTINUOUS
10
0.946686
20
0.212851
11
0.952053
21
0.214385
0
LINE
8
BLACK
6
CONTINUOUS
10
0.952053
20
0.214385
11
0.957634
21
0.214351
0
LINE
8
BLACK
6
CONTINUOUS
10
0.214567
20
0.240567
11
0.218632
21
0.23858
0
LINE
8
BLACK
6
CONTINUOUS
10
0.218632
20
0.23858
11
0.221834
21
0.235384
0
LINE
8
BLACK
6
CONTINUOUS
10
0.221834
20
0.235384
11
0.223828
21
0.231322
0
LINE
8
BLACK
6
CONTINUOUS
10
0.223828
20
0.231322
11
0.224409
21
0.227362
0
LINE
8
BLACK
6
CONTINUOUS
10
0.224409
20
0.227362
11
0.224409
21
0.215551
0
LINE
8
BLACK
6
CONTINUOUS
10
0.224409
20
0.215551
11
0.223835
21
0.211615
0
LINE
8
BLACK
6
CONTINUOUS
10
0.223835
20
0.211615
11
0.221848
21
0.207549
0
LINE
8
BLACK
6
CONTINUOUS
10
0.221848
20
0.207549
11
0.218651
21
0.204347
0
LINE
8
BLACK
6
CONTINUOUS
10
0.218651
20
0.204347
11
0.21459
21
0.202353
0
LINE
8
BLACK
6
CONTINUOUS
10
0.21459
20
0.202353
11
0.21063
21
0.201772
0
LINE
8
BLACK
6
CONTINUOUS
10
0.21063
20
0.201772
11
0.155512
21
0.201772
0
LINE
8
BLACK
6
CONTINUOUS
10
0.155512
20
0.201772
11
0.151575
21
0.202346
0
LINE
8
BLACK
6
CONTINUOUS
10
0.151575
20
0.202346
11
0.14751
21
0.204333
0
LINE
8
BLACK
6
CONTINUOUS
10
0.14751
20
0.204333
11
0.144308
21
0.20753
0
LINE
8
BLACK
6
CONTINUOUS
10
0.144308
20
0.20753
11
0.142313
21
0.211591
0
LINE
8
BLACK
6
CONTINUOUS
10
0.142313
20
0.211591
11
0.141732
21
0.215551
0
LINE
8
BLACK
6
CONTINUOUS
10
0.141732
20
0.215551
11
0.141732
21
0.227362
0
LINE
8
BLACK
6
CONTINUOUS
10
0.141732
20
0.227362
11
0.142307
21
0.231299
0
LINE
8
BLACK
6
CONTINUOUS
10
0.142307
20
0.231299
11
0.144294
21
0.235364
0
LINE
8
BLACK
6
CONTINUOUS
10
0.144294
20
0.235364
11
0.14749
21
0.238566
0
LINE
8
BLACK
6
CONTINUOUS
10
0.14749
20
0.238566
11
0.151552
21
0.240561
0
LINE
8
BLACK
6
CONTINUOUS
10
0.151552
20
0.240561
11
0.155512
21
0.241142
0
LINE
8
BLACK
6
CONTINUOUS
10
0.155512
20
0.241142
11
0.21063
21
0.241142
0
LINE
8
BLACK
6
CONTINUOUS
10
0.21063
20
0.241142
11
0.214567
21
0.240567
0
LINE
8
BLACK
6
CONTINUOUS
10
0.911626
20
0.264287
11
0.917323
21
0.261927
0
LINE
8
BLACK
6
CONTINUOUS
10
0.917323
20
0.261927
11
0.922215
21
0.258173
0
LINE
8
BLACK
6
CONTINUOUS
10
0.922215
20
0.258173
11
0.925969
21
0.253281
0
LINE
8
BLACK
6
CONTINUOUS
10
0.925969
20
0.253281
11
0.928329
21
0.247584
0
LINE
8
BLACK
6
CONTINUOUS
10
0.928329
20
0.247584
11
0.929134
21
0.24147
0
LINE
8
BLACK
6
CONTINUOUS
10
0.929134
20
0.24147
11
0.928329
21
0.235356
0
LINE
8
BLACK
6
CONTINUOUS
10
0.928329
20
0.235356
11
0.925969
21
0.229659
0
LINE
8
BLACK
6
CONTINUOUS
10
0.925969
20
0.229659
11
0.922215
21
0.224767
0
LINE
8
BLACK
6
CONTINUOUS
10
0.922215
20
0.224767
11
0.917323
21
0.221013
0
LINE
8
BLACK
6
CONTINUOUS
10
0.917323
20
0.221013
11
0.911626
21
0.218653
0
LINE
8
BLACK
6
CONTINUOUS
10
0.911626
20
0.218653
11
0.905512
21
0.217848
0
LINE
8
BLACK
6
CONTINUOUS
10
0.905512
20
0.217848
11
0.899398
21
0.218653
0
LINE
8
BLACK
6
CONTINUOUS
10
0.899398
20
0.218653
11
0.893701
21
0.221013
0
LINE
8
BLACK
6
CONTINUOUS
10
0.893701
20
0.221013
11
0.888809
21
0.224767
0
LINE
8
BLACK
6
CONTINUOUS
10
0.888809
20
0.224767
11
0.885055
21
0.229659
0
LINE
8
BLACK
6
CONTINUOUS
10
0.885055
20
0.229659
11
0.882695
21
0.235356
0
LINE
8
BLACK
6
CONTINUOUS
10
0.882695
20
0.235356
11
0.88189
21
0.24147
0
LINE
8
BLACK
6
CONTINUOUS
10
0.88189
20
0.24147
11
0.882695
21
0.247584
0
LINE
8
BLACK
6
CONTINUOUS
10
0.882695
20
0.247584
11
0.885055
21
0.253281
0
LINE
8
BLACK
6
CONTINUOUS
10
0.885055
20
0.253281
11
0.888809
21
0.258173
0
LINE
8
BLACK
6
CONTINUOUS
10
0.888809
20
0.258173
11
0.893701
21
0.261927
0
LINE
8
BLACK
6
CONTINUOUS
10
0.893701
20
0.261927
11
0.899398
21
0.264287
0
LINE
8
BLACK
6
CONTINUOUS
10
0.899398
20
0.264287
11
0.905512
21
0.265092
0
LINE
8
BLACK
6
CONTINUOUS
10
0.905512
20
0.265092
11
0.911626
21
0.264287
0
LINE
8
BLACK
6
CONTINUOUS
10
0.214567
20
0.28978
11
0.218632
21
0.287793
0
LINE
8
BLACK
6
CONTINUOUS
10
0.218632
20
0.287793
11
0.221834
21
0.284596
0
LINE
8
BLACK
6
CONTINUOUS
10
0.221834
20
0.284596
11
0.223828
21
0.280534
0
LINE
8
BLACK
6
CONTINUOUS
10
0.223828
20
0.280534
11
0.224409
21
0.276575
0
LINE
8
BLACK
6
CONTINUOUS
10
0.224409
20
0.276575
11
0.224409
21
0.264764
0
LINE
8
BLACK
6
CONTINUOUS
10
0.224409
20
0.264764
11
0.223835
21
0.260827
0
LINE
8
BLACK
6
CONTINUOUS
10
0.223835
20
0.260827
11
0.221848
21
0.256762
0
LINE
8
BLACK
6
CONTINUOUS
10
0.221848
20
0.256762
11
0.218651
21
0.25356
0
LINE
8
BLACK
6
CONTINUOUS
10
0.218651
20
0.25356
11
0.21459
21
0.251565
0
LINE
8
BLACK
6
CONTINUOUS
10
0.21459
20
0.251565
11
0.21063
21
0.250984
0
LINE
8
BLACK
6
CONTINUOUS
10
0.21063
20
0.250984
11
0.155512
21
0.250984
0
LINE
8
BLACK
6
CONTINUOUS
10
0.155512
20
0.250984
11
0.151575
21
0.251559
0
LINE
8
BLACK
6
CONTINUOUS
10
0.151575
20
0.251559
11
0.14751
21
0.253546
0
LINE
8
BLACK
6
CONTINUOUS
10
0.14751
20
0.253546
11
0.144308
21
0.256742
0
LINE
8
BLACK
6
CONTINUOUS
10
0.144308
20
0.256742
11
0.142313
21
0.260804
0
LINE
8
BLACK
6
CONTINUOUS
10
0.142313
20
0.260804
11
0.141732
21
0.264764
0
LINE
8
BLACK
6
CONTINUOUS
10
0.141732
20
0.264764
11
0.141732
21
0.276575
0
LINE
8
BLACK
6
CONTINUOUS
10
0.141732
20
0.276575
11
0.142307
21
0.280511
0
LINE
8
BLACK
6
CONTINUOUS
10
0.142307
20
0.280511
11
0.144294
21
0.284577
0
LINE
8
BLACK
6
CONTINUOUS
10
0.144294
20
0.284577
11
0.14749
21
0.287779
0
LINE
8
BLACK
6
CONTINUOUS
10
0.14749
20
0.287779
11
0.151552
21
0.289773
0
LINE
8
BLACK
6
CONTINUOUS
10
0.151552
20
0.289773
11
0.155512
21
0.290354
0
LINE
8
BLACK
6
CONTINUOUS
10
0.155512
20
0.290354
11
0.21063
21
0.290354
0
LINE
8
BLACK
6
CONTINUOUS
10
0.21063
20
0.290354
11
0.214567
21
0.28978
0
LINE
8
BLACK
6
CONTINUOUS
10
0.214567
20
0.338993
11
0.218632
21
0.337006
0
LINE
8
BLACK
6
CONTINUOUS
10
0.218632
20
0.337006
11
0.221834
21
0.333809
0
LINE
8
BLACK
6
CONTINUOUS
10
0.221834
20
0.333809
11
0.223828
21
0.329747
0
LINE
8
BLACK
6
CONTINUOUS
10
0.223828
20
0.329747
11
0.224409
21
0.325787
0
LINE
8
BLACK
6
CONTINUOUS
10
0.224409
20
0.325787
11
0.224409
21
0.313976
0
LINE
8
BLACK
6
CONTINUOUS
10
0.224409
20
0.313976
11
0.223835
21
0.31004
0
LINE
8
BLACK
6
CONTINUOUS
10
0.223835
20
0.31004
11
0.221848
21
0.305975
0
LINE
8
BLACK
6
CONTINUOUS
10
0.221848
20
0.305975
11
0.218651
21
0.302772
0
LINE
8
BLACK
6
CONTINUOUS
10
0.218651
20
0.302772
11
0.21459
21
0.300778
0
LINE
8
BLACK
6
CONTINUOUS
10
0.21459
20
0.300778
11
0.21063
21
0.300197
0
LINE
8
BLACK
6
CONTINUOUS
10
0.21063
20
0.300197
11
0.155512
21
0.300197
0
LINE
8
BLACK
6
CONTINUOUS
10
0.155512
20
0.300197
11
0.151575
21
0.300771
0
LINE
8
BLACK
6
CONTINUOUS
10
0.151575
20
0.300771
11
0.14751
21
0.302758
0
LINE
8
BLACK
6
CONTINUOUS
10
0.14751
20
0.302758
11
0.144308
21
0.305955
0
LINE
8
BLACK
6
CONTINUOUS
10
0.144308
20
0.305955
11
0.142313
21
0.310017
0
LINE
8
BLACK
6
CONTINUOUS
10
0.142313
20
0.310017
11
0.141732
21
0.313976
0
LINE
8
BLACK
6
CONTINUOUS
10
0.141732
20
0.313976
11
0.141732
21
0.325787
0
LINE
8
BLACK
6
CONTINUOUS
10
0.141732
20
0.325787
11
0.142307
21
0.329724
0
LINE
8
BLACK
6
CONTINUOUS
10
0.142307
20
0.329724
11
0.144294
21
0.333789
0
LINE
8
BLACK
6
CONTINUOUS
10
0.144294
20
0.333789
11
0.14749
21
0.336992
0
LINE
8
BLACK
6
CONTINUOUS
10
0.14749
20
0.336992
11
0.151552
21
0.338986
0
LINE
8
BLACK
6
CONTINUOUS
10
0.151552
20
0.338986
11
0.155512
21
0.339567
0
LINE
8
BLACK
6
CONTINUOUS
10
0.155512
20
0.339567
11
0.21063
21
0.339567
0
LINE
8
BLACK
6
CONTINUOUS
10
0.21063
20
0.339567
11
0.214567
21
0.338993
0
LINE
8
BLACK
6
CONTINUOUS
10
0.911626
20
0.371899
11
0.917323
21
0.369539
0
LINE
8
BLACK
6
CONTINUOUS
10
0.917323
20
0.369539
11
0.922215
21
0.365785
0
LINE
8
BLACK
6
CONTINUOUS
10
0.922215
20
0.365785
11
0.925969
21
0.360892
0
LINE
8
BLACK
6
CONTINUOUS
10
0.925969
20
0.360892
11
0.928329
21
0.355195
0
LINE
8
BLACK
6
CONTINUOUS
10
0.928329
20
0.355195
11
0.929134
21
0.349081
0
LINE
8
BLACK
6
CONTINUOUS
10
0.929134
20
0.349081
11
0.928329
21
0.342968
0
LINE
8
BLACK
6
CONTINUOUS
10
0.928329
20
0.342968
11
0.925969
21
0.33727
0
LINE
8
BLACK
6
CONTINUOUS
10
0.925969
20
0.33727
11
0.922215
21
0.332378
0
LINE
8
BLACK
6
CONTINUOUS
10
0.922215
20
0.332378
11
0.917323
21
0.328624
0
LINE
8
BLACK
6
CONTINUOUS
10
0.917323
20
0.328624
11
0.911626
21
0.326264
0
LINE
8
BLACK
6
CONTINUOUS
10
0.911626
20
0.326264
11
0.905512
21
0.325459
0
LINE
8
BLACK
6
CONTINUOUS
10
0.905512
20
0.325459
11
0.899398
21
0.326264
0
LINE
8
BLACK
6
CONTINUOUS
10
0.899398
20
0.326264
11
0.893701
21
0.328624
0
LINE
8
BLACK
6
CONTINUOUS
10
0.893701
20
0.328624
11
0.888809
21
0.332378
0
LINE
8
BLACK
6
CONTINUOUS
10
0.888809
20
0.332378
11
0.885055
21
0.33727
0
LINE
8
BLACK
6
CONTINUOUS
10
0.885055
20
0.33727
11
0.882695
21
0.342968
0
LINE
8
BLACK
6
CONTINUOUS
10
0.882695
20
0.342968
11
0.88189
21
0.349081
0
LINE
8
BLACK
6
CONTINUOUS
10
0.88189
20
0.349081
11
0.882695
21
0.355195
0
LINE
8
BLACK
6
CONTINUOUS
10
0.882695
20
0.355195
11
0.885055
21
0.360892
0
LINE
8
BLACK
6
CONTINUOUS
10
0.885055
20
0.360892
11
0.888809
21
0.365785
0
LINE
8
BLACK
6
CONTINUOUS
10
0.888809
20
0.365785
11
0.893701
21
0.369539
0
LINE
8
BLACK
6
CONTINUOUS
10
0.893701
20
0.369539
11
0.899398
21
0.371899
0
LINE
8
BLACK
6
CONTINUOUS
10
0.899398
20
0.371899
11
0.905512
21
0.372703
0
LINE
8
BLACK
6
CONTINUOUS
10
0.905512
20
0.372703
11
0.911626
21
0.371899
0
LINE
8
BLACK
6
CONTINUOUS
10
0.214567
20
0.388205
11
0.218632
21
0.386218
0
LINE
8
BLACK
6
CONTINUOUS
10
0.218632
20
0.386218
11
0.221834
21
0.383021
0
LINE
8
BLACK
6
CONTINUOUS
10
0.221834
20
0.383021
11
0.223828
21
0.37896
0
LINE
8
BLACK
6
CONTINUOUS
10
0.223828
20
0.37896
11
0.224409
21
0.375
0
LINE
8
BLACK
6
CONTINUOUS
10
0.224409
20
0.375
11
0.224409
21
0.363189
0
LINE
8
BLACK
6
CONTINUOUS
10
0.224409
20
0.363189
11
0.223835
21
0.359252
0
LINE
8
BLACK
6
CONTINUOUS
10
0.223835
20
0.359252
11
0.221848
21
0.355187
0
LINE
8
BLACK
6
CONTINUOUS
10
0.221848
20
0.355187
11
0.218651
21
0.351985
0
LINE
8
BLACK
6
CONTINUOUS
10
0.218651
20
0.351985
11
0.21459
21
0.349991
0
LINE
8
BLACK
6
CONTINUOUS
10
0.21459
20
0.349991
11
0.21063
21
0.349409
0
LINE
8
BLACK
6
CONTINUOUS
10
0.21063
20
0.349409
11
0.155512
21
0.349409
0
LINE
8
BLACK
6
CONTINUOUS
10
0.155512
20
0.349409
11
0.151575
21
0.349984
0
LINE
8
BLACK
6
CONTINUOUS
10
0.151575
20
0.349984
11
0.14751
21
0.351971
0
LINE
8
BLACK
6
CONTINUOUS
10
0.14751
20
0.351971
11
0.144308
21
0.355168
0
LINE
8
BLACK
6
CONTINUOUS
10
0.144308
20
0.355168
11
0.142313
21
0.359229
0
LINE
8
BLACK
6
CONTINUOUS
10
0.142313
20
0.359229
11
0.141732
21
0.363189
0
LINE
8
BLACK
6
CONTINUOUS
10
0.141732
20
0.363189
11
0.141732
21
0.375
0
LINE
8
BLACK
6
CONTINUOUS
10
0.141732
20
0.375
11
0.142307
21
0.378937
0
LINE
8
BLACK
6
CONTINUOUS
10
0.142307
20
0.378937
11
0.144294
21
0.383002
0
LINE
8
BLACK
6
CONTINUOUS
10
0.144294
20
0.383002
11
0.14749
21
0.386204
0
LINE
8
BLACK
6
CONTINUOUS
10
0.14749
20
0.386204
11
0.151552
21
0.388198
0
LINE
8
BLACK
6
CONTINUOUS
10
0.151552
20
0.388198
11
0.155512
21
0.38878
0
LINE
8
BLACK
6
CONTINUOUS
10
0.155512
20
0.38878
11
0.21063
21
0.38878
0
LINE
8
BLACK
6
CONTINUOUS
10
0.21063
20
0.38878
11
0.214567
21
0.388205
0
LINE
8
BLACK
6
CONTINUOUS
10
0.957634
20
0.415138
11
0.962981
21
0.413539
0
LINE
8
BLACK
6
CONTINUOUS
10
0.962981
20
0.413539
11
0.967665
21
0.410503
0
LINE
8
BLACK
6
CONTINUOUS
10
0.967665
20
0.410503
11
0.971308
21
0.406275
0
LINE
8
BLACK
6
CONTINUOUS
10
0.971308
20
0.406275
11
0.973618
21
0.401194
0
LINE
8
BLACK
6
CONTINUOUS
10
0.973618
20
0.401194
11
0.974409
21
0.395669
0
LINE
8
BLACK
6
CONTINUOUS
10
0.974409
20
0.395669
11
0.974404
21
0.395188
0
LINE
8
BLACK
6
CONTINUOUS
10
0.974404
20
0.395188
11
0.973478
21
0.389684
0
LINE
8
BLACK
6
CONTINUOUS
10
0.973478
20
0.389684
11
0.971044
21
0.384662
0
LINE
8
BLACK
6
CONTINUOUS
10
0.971044
20
0.384662
11
0.967299
21
0.380524
0
LINE
8
BLACK
6
CONTINUOUS
10
0.967299
20
0.380524
11
0.962542
21
0.377603
0
LINE
8
BLACK
6
CONTINUOUS
10
0.962542
20
0.377603
11
0.957158
21
0.376135
0
LINE
8
BLACK
6
CONTINUOUS
10
0.957158
20
0.376135
11
0.951577
21
0.376237
0
LINE
8
BLACK
6
CONTINUOUS
10
0.951577
20
0.376237
11
0.94625
21
0.377902
0
LINE
8
BLACK
6
CONTINUOUS
10
0.94625
20
0.377902
11
0.941604
21
0.380995
0
LINE
8
BLACK
6
CONTINUOUS
10
0.941604
20
0.380995
11
0.938012
21
0.385267
0
LINE
8
BLACK
6
CONTINUOUS
10
0.938012
20
0.385267
11
0.935765
21
0.390376
0
LINE
8
BLACK
6
CONTINUOUS
10
0.935765
20
0.390376
11
0.935041
21
0.39591
0
LINE
8
BLACK
6
CONTINUOUS
10
0.935041
20
0.39591
11
0.9359
21
0.401425
0
LINE
8
BLACK
6
CONTINUOUS
10
0.9359
20
0.401425
11
0.938271
21
0.406477
0
LINE
8
BLACK
6
CONTINUOUS
10
0.938271
20
0.406477
11
0.941966
21
0.41066
0
LINE
8
BLACK
6
CONTINUOUS
10
0.941966
20
0.41066
11
0.946686
21
0.413638
0
LINE
8
BLACK
6
CONTINUOUS
10
0.946686
20
0.413638
11
0.952053
21
0.415172
0
LINE
8
BLACK
6
CONTINUOUS
10
0.952053
20
0.415172
11
0.957634
21
0.415138
0
LINE
8
BLACK
6
CONTINUOUS
10
1.15842
20
0.415138
11
1.16377
21
0.413539
0
LINE
8
BLACK
6
CONTINUOUS
10
1.16377
20
0.413539
11
1.16845
21
0.410503
0
LINE
8
BLACK
6
CONTINUOUS
10
1.16845
20
0.410503
11
1.1721
21
0.406275
0
LINE
8
BLACK
6
CONTINUOUS
10
1.1721
20
0.406275
11
1.17441
21
0.401194
0
LINE
8
BLACK
6
CONTINUOUS
10
1.17441
20
0.401194
11
1.1752
21
0.395669
0
LINE
8
BLACK
6
CONTINUOUS
10
1.1752
20
0.395669
11
1.17519
21
0.395188
0
LINE
8
BLACK
6
CONTINUOUS
10
1.17519
20
0.395188
11
1.17426
21
0.389684
0
LINE
8
BLACK
6
CONTINUOUS
10
1.17426
20
0.389684
11
1.17183
21
0.384662
0
LINE
8
BLACK
6
CONTINUOUS
10
1.17183
20
0.384662
11
1.16809
21
0.380524
0
LINE
8
BLACK
6
CONTINUOUS
10
1.16809
20
0.380524
11
1.16333
21
0.377603
0
LINE
8
BLACK
6
CONTINUOUS
10
1.16333
20
0.377603
11
1.15794
21
0.376135
0
LINE
8
BLACK
6
CONTINUOUS
10
1.15794
20
0.376135
11
1.15236
21
0.376237
0
LINE
8
BLACK
6
CONTINUOUS
10
1.15236
20
0.376237
11
1.14704
21
0.377902
0
LINE
8
BLACK
6
CONTINUOUS
10
1.14704
20
0.377902
11
1.14239
21
0.380995
0
LINE
8
BLACK
6
CONTINUOUS
10
1.14239
20
0.380995
11
1.1388
21
0.385267
0
LINE
8
BLACK
6
CONTINUOUS
10
1.1388
20
0.385267
11
1.13655
21
0.390376
0
LINE
8
BLACK
6
CONTINUOUS
10
1.13655
20
0.390376
11
1.13583
21
0.39591
0
LINE
8
BLACK
6
CONTINUOUS
10
1.13583
20
0.39591
11
1.13669
21
0.401425
0
LINE
8
BLACK
6
CONTINUOUS
10
1.13669
20
0.401425
11
1.13906
21
0.406477
0
LINE
8
BLACK
6
CONTINUOUS
10
1.13906
20
0.406477
11
1.14275
21
0.41066
0
LINE
8
BLACK
6
CONTINUOUS
10
1.14275
20
0.41066
11
1.14747
21
0.413638
0
LINE
8
BLACK
6
CONTINUOUS
10
1.14747
20
0.413638
11
1.15284
21
0.415172
0
LINE
8
BLACK
6
CONTINUOUS
10
1.15284
20
0.415172
11
1.15842
21
0.415138
0
LINE
8
BLACK
6
CONTINUOUS
10
0.103713
20
0.469174
11
0.108684
21
0.467429
0
LINE
8
BLACK
6
CONTINUOUS
10
0.108684
20
0.467429
11
0.112921
21
0.464299
0
LINE
8
BLACK
6
CONTINUOUS
10
0.112921
20
0.464299
11
0.116051
21
0.460062
0
LINE
8
BLACK
6
CONTINUOUS
10
0.116051
20
0.460062
11
0.117796
21
0.455091
0
LINE
8
BLACK
6
CONTINUOUS
10
0.117796
20
0.455091
11
0.11811
21
0.451772
0
LINE
8
BLACK
6
CONTINUOUS
10
0.11811
20
0.451772
11
0.11811
21
0.432087
0
LINE
8
BLACK
6
CONTINUOUS
10
0.11811
20
0.432087
11
0.117796
21
0.428767
0
LINE
8
BLACK
6
CONTINUOUS
10
0.117796
20
0.428767
11
0.116051
21
0.423797
0
LINE
8
BLACK
6
CONTINUOUS
10
0.116051
20
0.423797
11
0.112921
21
0.419559
0
LINE
8
BLACK
6
CONTINUOUS
10
0.112921
20
0.419559
11
0.108684
21
0.416429
0
LINE
8
BLACK
6
CONTINUOUS
10
0.108684
20
0.416429
11
0.103713
21
0.414684
0
LINE
8
BLACK
6
CONTINUOUS
10
0.103713
20
0.414684
11
0.100394
21
0.41437
0
LINE
8
BLACK
6
CONTINUOUS
10
0.100394
20
0.41437
11
0.0137795
21
0.41437
0
LINE
8
BLACK
6
CONTINUOUS
10
0.0137795
20
0.41437
11
0.0104598
21
0.414684
0
LINE
8
BLACK
6
CONTINUOUS
10
0.0104598
20
0.414684
11
0.00548945
21
0.416429
0
LINE
8
BLACK
6
CONTINUOUS
10
0.00548945
20
0.416429
11
0.00125205
21
0.419559
0
LINE
8
BLACK
6
CONTINUOUS
10
0.00125205
20
0.419559
11
-0.00187776
21
0.423797
0
LINE
8
BLACK
6
CONTINUOUS
10
-0.00187776
20
0.423797
11
-0.00362319
21
0.428767
0
LINE
8
BLACK
6
CONTINUOUS
10
-0.00362319
20
0.428767
11
-0.00393701
21
0.432087
0
LINE
8
BLACK
6
CONTINUOUS
10
-0.00393701
20
0.432087
11
-0.00393701
21
0.451772
0
LINE
8
BLACK
6
CONTINUOUS
10
-0.00393701
20
0.451772
11
-0.00362319
21
0.455091
0
LINE
8
BLACK
6
CONTINUOUS
10
-0.00362319
20
0.455091
11
-0.00187776
21
0.460062
0
LINE
8
BLACK
6
CONTINUOUS
10
-0.00187776
20
0.460062
11
0.00125205
21
0.464299
0
LINE
8
BLACK
6
CONTINUOUS
10
0.00125205
20
0.464299
11
0.00548945
21
0.467429
0
LINE
8
BLACK
6
CONTINUOUS
10
0.00548945
20
0.467429
11
0.0104598
21
0.469174
0
LINE
8
BLACK
6
CONTINUOUS
10
0.0104598
20
0.469174
11
0.0137795
21
0.469488
0
LINE
8
BLACK
6
CONTINUOUS
10
0.0137795
20
0.469488
11
0.100394
21
0.469488
0
LINE
8
BLACK
6
CONTINUOUS
10
0.100394
20
0.469488
11
0.103713
21
0.469174
0
LINE
8
BLACK
6
CONTINUOUS
10
0.933113
20
0.511007
11
0.940453
21
0.508735
0
LINE
8
BLACK
6
CONTINUOUS
10
0.940453
20
0.508735
11
0.947212
21
0.50508
0
LINE
8
BLACK
6
CONTINUOUS
10
0.947212
20
0.50508
11
0.953133
21
0.500182
0
LINE
8
BLACK
6
CONTINUOUS
10
0.953133
20
0.500182
11
0.957989
21
0.494228
0
LINE
8
BLACK
6
CONTINUOUS
10
0.957989
20
0.494228
11
0.961596
21
0.487444
0
LINE
8
BLACK
6
CONTINUOUS
10
0.961596
20
0.487444
11
0.963817
21
0.480088
0
LINE
8
BLACK
6
CONTINUOUS
10
0.963817
20
0.480088
11
0.964567
21
0.472441
0
LINE
8
BLACK
6
CONTINUOUS
10
0.964567
20
0.472441
11
0.964552
21
0.471342
0
LINE
8
BLACK
6
CONTINUOUS
10
0.964552
20
0.471342
11
0.963589
21
0.463719
0
LINE
8
BLACK
6
CONTINUOUS
10
0.963589
20
0.463719
11
0.961163
21
0.456428
0
LINE
8
BLACK
6
CONTINUOUS
10
0.961163
20
0.456428
11
0.957368
21
0.449747
0
LINE
8
BLACK
6
CONTINUOUS
10
0.957368
20
0.449747
11
0.952347
21
0.44393
0
LINE
8
BLACK
6
CONTINUOUS
10
0.952347
20
0.44393
11
0.946292
21
0.4392
0
LINE
8
BLACK
6
CONTINUOUS
10
0.946292
20
0.4392
11
0.939434
21
0.435735
0
LINE
8
BLACK
6
CONTINUOUS
10
0.939434
20
0.435735
11
0.932033
21
0.433669
0
LINE
8
BLACK
6
CONTINUOUS
10
0.932033
20
0.433669
11
0.924372
21
0.433079
0
LINE
8
BLACK
6
CONTINUOUS
10
0.924372
20
0.433079
11
0.916743
21
0.433989
0
LINE
8
BLACK
6
CONTINUOUS
10
0.916743
20
0.433989
11
0.909435
21
0.436364
0
LINE
8
BLACK
6
CONTINUOUS
10
0.909435
20
0.436364
11
0.902728
21
0.440112
0
LINE
8
BLACK
6
CONTINUOUS
10
0.902728
20
0.440112
11
0.896876
21
0.445092
0
LINE
8
BLACK
6
CONTINUOUS
10
0.896876
20
0.445092
11
0.892104
21
0.451114
0
LINE
8
BLACK
6
CONTINUOUS
10
0.892104
20
0.451114
11
0.888591
21
0.457948
0
LINE
8
BLACK
6
CONTINUOUS
10
0.888591
20
0.457948
11
0.886474
21
0.465334
0
LINE
8
BLACK
6
CONTINUOUS
10
0.886474
20
0.465334
11
0.885831
21
0.472991
0
LINE
8
BLACK
6
CONTINUOUS
10
0.885831
20
0.472991
11
0.886687
21
0.480626
0
LINE
8
BLACK
6
CONTINUOUS
10
0.886687
20
0.480626
11
0.88901
21
0.48795
0
LINE
8
BLACK
6
CONTINUOUS
10
0.88901
20
0.48795
11
0.892712
21
0.494684
0
LINE
8
BLACK
6
CONTINUOUS
10
0.892712
20
0.494684
11
0.897651
21
0.50057
0
LINE
8
BLACK
6
CONTINUOUS
10
0.897651
20
0.50057
11
0.903639
21
0.505384
0
LINE
8
BLACK
6
CONTINUOUS
10
0.903639
20
0.505384
11
0.910449
21
0.508944
0
LINE
8
BLACK
6
CONTINUOUS
10
0.910449
20
0.508944
11
0.91782
21
0.511114
0
LINE
8
BLACK
6
CONTINUOUS
10
0.91782
20
0.511114
11
0.925472
21
0.51181
0
LINE
8
BLACK
6
CONTINUOUS
10
0.925472
20
0.51181
11
0.933113
21
0.511007
0
LINE
8
BLACK
6
CONTINUOUS
10
0.343875
20
0.564153
11
0.352824
21
0.561755
0
LINE
8
BLACK
6
CONTINUOUS
10
0.352824
20
0.561755
11
0.36122
21
0.55784
0
LINE
8
BLACK
6
CONTINUOUS
10
0.36122
20
0.55784
11
0.36881
21
0.552526
0
LINE
8
BLACK
6
CONTINUOUS
10
0.36881
20
0.552526
11
0.375361
21
0.545975
0
LINE
8
BLACK
6
CONTINUOUS
10
0.375361
20
0.545975
11
0.380675
21
0.538386
0
LINE
8
BLACK
6
CONTINUOUS
10
0.380675
20
0.538386
11
0.38459
21
0.529989
0
LINE
8
BLACK
6
CONTINUOUS
10
0.38459
20
0.529989
11
0.386988
21
0.52104
0
LINE
8
BLACK
6
CONTINUOUS
10
0.386988
20
0.52104
11
0.387795
21
0.511811
0
LINE
8
BLACK
6
CONTINUOUS
10
0.387795
20
0.511811
11
0.386988
21
0.502582
0
LINE
8
BLACK
6
CONTINUOUS
10
0.386988
20
0.502582
11
0.38459
21
0.493633
0
LINE
8
BLACK
6
CONTINUOUS
10
0.38459
20
0.493633
11
0.380675
21
0.485236
0
LINE
8
BLACK
6
CONTINUOUS
10
0.380675
20
0.485236
11
0.375361
21
0.477647
0
LINE
8
BLACK
6
CONTINUOUS
10
0.375361
20
0.477647
11
0.36881
21
0.471096
0
LINE
8
BLACK
6
CONTINUOUS
10
0.36881
20
0.471096
11
0.36122
21
0.465782
0
LINE
8
BLACK
6
CONTINUOUS
10
0.36122
20
0.465782
11
0.352824
21
0.461867
0
LINE
8
BLACK
6
CONTINUOUS
10
0.352824
20
0.461867
11
0.343875
21
0.459469
0
LINE
8
BLACK
6
CONTINUOUS
10
0.343875
20
0.459469
11
0.334646
21
0.458661
0
LINE
8
BLACK
6
CONTINUOUS
10
0.334646
20
0.458661
11
0.325416
21
0.459469
0
LINE
8
BLACK
6
CONTINUOUS
10
0.325416
20
0.459469
11
0.316467
21
0.461867
0
LINE
8
BLACK
6
CONTINUOUS
10
0.316467
20
0.461867
11
0.308071
21
0.465782
0
LINE
8
BLACK
6
CONTINUOUS
10
0.308071
20
0.465782
11
0.300482
21
0.471096
0
LINE
8
BLACK
6
CONTINUOUS
10
0.300482
20
0.471096
11
0.293931
21
0.477647
0
LINE
8
BLACK
6
CONTINUOUS
10
0.293931
20
0.477647
11
0.288617
21
0.485236
0
LINE
8
BLACK
6
CONTINUOUS
10
0.288617
20
0.485236
11
0.284701
21
0.493633
0
LINE
8
BLACK
6
CONTINUOUS
10
0.284701
20
0.493633
11
0.282304
21
0.502582
0
LINE
8
BLACK
6
CONTINUOUS
10
0.282304
20
0.502582
11
0.281496
21
0.511811
0
LINE
8
BLACK
6
CONTINUOUS
10
0.281496
20
0.511811
11
0.282304
21
0.52104
0
LINE
8
BLACK
6
CONTINUOUS
10
0.282304
20
0.52104
11
0.284701
21
0.529989
0
LINE
8
BLACK
6
CONTINUOUS
10
0.284701
20
0.529989
11
0.288617
21
0.538386
0
LINE
8
BLACK
6
CONTINUOUS
10
0.288617
20
0.538386
11
0.293931
21
0.545975
0
LINE
8
BLACK
6
CONTINUOUS
10
0.293931
20
0.545975
11
0.300482
21
0.552526
0
LINE
8
BLACK
6
CONTINUOUS
10
0.300482
20
0.552526
11
0.308071
21
0.55784
0
LINE
8
BLACK
6
CONTINUOUS
10
0.308071
20
0.55784
11
0.316467
21
0.561755
0
LINE
8
BLACK
6
CONTINUOUS
10
0.316467
20
0.561755
11
0.325416
21
0.564153
0
LINE
8
BLACK
6
CONTINUOUS
10
0.325416
20
0.564153
11
0.334646
21
0.564961
0
LINE
8
BLACK
6
CONTINUOUS
10
0.334646
20
0.564961
11
0.343875
21
0.564153
0
LINE
8
BLACK
6
CONTINUOUS
10
0.891384
20
0.649344
11
0.900912
21
0.647647
0
LINE
8
BLACK
6
CONTINUOUS
10
0.900912
20
0.647647
11
0.910035
21
0.644417
0
LINE
8
BLACK
6
CONTINUOUS
10
0.910035
20
0.644417
11
0.918507
21
0.639739
0
LINE
8
BLACK
6
CONTINUOUS
10
0.918507
20
0.639739
11
0.926102
21
0.633741
0
LINE
8
BLACK
6
CONTINUOUS
10
0.926102
20
0.633741
11
0.932616
21
0.626583
0
LINE
8
BLACK
6
CONTINUOUS
10
0.932616
20
0.626583
11
0.937872
21
0.618458
0
LINE
8
BLACK
6
CONTINUOUS
10
0.937872
20
0.618458
11
0.941731
21
0.609583
0
LINE
8
BLACK
6
CONTINUOUS
10
0.941731
20
0.609583
11
0.944089
21
0.600196
0
LINE
8
BLACK
6
CONTINUOUS
10
0.944089
20
0.600196
11
0.944882
21
0.590551
0
LINE
8
BLACK
6
CONTINUOUS
10
0.944882
20
0.590551
11
0.944811
21
0.587666
0
LINE
8
BLACK
6
CONTINUOUS
10
0.944811
20
0.587666
11
0.943548
21
0.578071
0
LINE
8
BLACK
6
CONTINUOUS
10
0.943548
20
0.578071
11
0.940735
21
0.568812
0
LINE
8
BLACK
6
CONTINUOUS
10
0.940735
20
0.568812
11
0.936447
21
0.560136
0
LINE
8
BLACK
6
CONTINUOUS
10
0.936447
20
0.560136
11
0.930799
21
0.552276
0
LINE
8
BLACK
6
CONTINUOUS
10
0.930799
20
0.552276
11
0.923944
21
0.545445
0
LINE
8
BLACK
6
CONTINUOUS
10
0.923944
20
0.545445
11
0.916066
21
0.539825
0
LINE
8
BLACK
6
CONTINUOUS
10
0.916066
20
0.539825
11
0.907375
21
0.535568
0
LINE
8
BLACK
6
CONTINUOUS
10
0.907375
20
0.535568
11
0.898105
21
0.532787
0
LINE
8
BLACK
6
CONTINUOUS
10
0.898105
20
0.532787
11
0.888506
21
0.531557
0
LINE
8
BLACK
6
CONTINUOUS
10
0.888506
20
0.531557
11
0.878834
21
0.531911
0
LINE
8
BLACK
6
CONTINUOUS
10
0.878834
20
0.531911
11
0.869351
21
0.533841
0
LINE
8
BLACK
6
CONTINUOUS
10
0.869351
20
0.533841
11
0.86031
21
0.537293
0
LINE
8
BLACK
6
CONTINUOUS
10
0.86031
20
0.537293
11
0.851954
21
0.542176
0
LINE
8
BLACK
6
CONTINUOUS
10
0.851954
20
0.542176
11
0.844508
21
0.548358
0
LINE
8
BLACK
6
CONTINUOUS
10
0.844508
20
0.548358
11
0.838172
21
0.555673
0
LINE
8
BLACK
6
CONTINUOUS
10
0.838172
20
0.555673
11
0.833115
21
0.563925
0
LINE
8
BLACK
6
CONTINUOUS
10
0.833115
20
0.563925
11
0.829474
21
0.572891
0
LINE
8
BLACK
6
CONTINUOUS
10
0.829474
20
0.572891
11
0.827346
21
0.582332
0
LINE
8
BLACK
6
CONTINUOUS
10
0.827346
20
0.582332
11
0.826789
21
0.591994
0
LINE
8
BLACK
6
CONTINUOUS
10
0.826789
20
0.591994
11
0.827818
21
0.601617
0
LINE
8
BLACK
6
CONTINUOUS
10
0.827818
20
0.601617
11
0.830404
21
0.610943
0
LINE
8
BLACK
6
CONTINUOUS
10
0.830404
20
0.610943
11
0.834479
21
0.619721
0
LINE
8
BLACK
6
CONTINUOUS
10
0.834479
20
0.619721
11
0.839932
21
0.627716
0
LINE
8
BLACK
6
CONTINUOUS
10
0.839932
20
0.627716
11
0.846619
21
0.634712
0
LINE
8
BLACK
6
CONTINUOUS
10
0.846619
20
0.634712
11
0.854358
21
0.640523
0
LINE
8
BLACK
6
CONTINUOUS
10
0.854358
20
0.640523
11
0.862942
21
0.644992
0
LINE
8
BLACK
6
CONTINUOUS
10
0.862942
20
0.644992
11
0.872141
21
0.647999
0
LINE
8
BLACK
6
CONTINUOUS
10
0.872141
20
0.647999
11
0.881707
21
0.649462
0
LINE
8
BLACK
6
CONTINUOUS
10
0.881707
20
0.649462
11
0.891384
21
0.649344
0
LINE
8
BLACK
6
CONTINUOUS
10
0.103983
20
0.649344
11
0.113511
21
0.647647
0
LINE
8
BLACK
6
CONTINUOUS
10
0.113511
20
0.647647
11
0.122633
21
0.644417
0
LINE
8
BLACK
6
CONTINUOUS
10
0.122633
20
0.644417
11
0.131106
21
0.639739
0
LINE
8
BLACK
6
CONTINUOUS
10
0.131106
20
0.639739
11
0.138701
21
0.633741
0
LINE
8
BLACK
6
CONTINUOUS
10
0.138701
20
0.633741
11
0.145214
21
0.626583
0
LINE
8
BLACK
6
CONTINUOUS
10
0.145214
20
0.626583
11
0.150471
21
0.618458
0
LINE
8
BLACK
6
CONTINUOUS
10
0.150471
20
0.618458
11
0.15433
21
0.609583
0
LINE
8
BLACK
6
CONTINUOUS
10
0.15433
20
0.609583
11
0.156687
21
0.600196
0
LINE
8
BLACK
6
CONTINUOUS
10
0.156687
20
0.600196
11
0.15748
21
0.590551
0
LINE
8
BLACK
6
CONTINUOUS
10
0.15748
20
0.590551
11
0.15741
21
0.587666
0
LINE
8
BLACK
6
CONTINUOUS
10
0.15741
20
0.587666
11
0.156147
21
0.578071
0
LINE
8
BLACK
6
CONTINUOUS
10
0.156147
20
0.578071
11
0.153333
21
0.568812
0
LINE
8
BLACK
6
CONTINUOUS
10
0.153333
20
0.568812
11
0.149045
21
0.560136
0
LINE
8
BLACK
6
CONTINUOUS
10
0.149045
20
0.560136
11
0.143398
21
0.552276
0
LINE
8
BLACK
6
CONTINUOUS
10
0.143398
20
0.552276
11
0.136543
21
0.545445
0
LINE
8
BLACK
6
CONTINUOUS
10
0.136543
20
0.545445
11
0.128664
21
0.539825
0
LINE
8
BLACK
6
CONTINUOUS
10
0.128664
20
0.539825
11
0.119973
21
0.535568
0
LINE
8
BLACK
6
CONTINUOUS
10
0.119973
20
0.535568
11
0.110703
21
0.532787
0
LINE
8
BLACK
6
CONTINUOUS
10
0.110703
20
0.532787
11
0.101104
21
0.531557
0
LINE
8
BLACK
6
CONTINUOUS
10
0.101104
20
0.531557
11
0.0914328
21
0.531911
0
LINE
8
BLACK
6
CONTINUOUS
10
0.0914328
20
0.531911
11
0.0819493
21
0.533841
0
LINE
8
BLACK
6
CONTINUOUS
10
0.0819493
20
0.533841
11
0.0729083
21
0.537293
0
LINE
8
BLACK
6
CONTINUOUS
10
0.0729083
20
0.537293
11
0.0645526
21
0.542176
0
LINE
8
BLACK
6
CONTINUOUS
10
0.0645526
20
0.542176
11
0.0571065
21
0.548358
0
LINE
8
BLACK
6
CONTINUOUS
10
0.0571065
20
0.548358
11
0.0507701
21
0.555673
0
LINE
8
BLACK
6
CONTINUOUS
10
0.0507701
20
0.555673
11
0.0457134
21
0.563925
0
LINE
8
BLACK
6
CONTINUOUS
10
0.0457134
20
0.563925
11
0.0420724
21
0.572891
0
LINE
8
BLACK
6
CONTINUOUS
10
0.0420724
20
0.572891
11
0.0399448
21
0.582332
0
LINE
8
BLACK
6
CONTINUOUS
10
0.0399448
20
0.582332
11
0.0393877
21
0.591994
0
LINE
8
BLACK
6
CONTINUOUS
10
0.0393877
20
0.591994
11
0.0404161
21
0.601617
0
LINE
8
BLACK
6
CONTINUOUS
10
0.0404161
20
0.601617
11
0.0430024
21
0.610943
0
LINE
8
BLACK
6
CONTINUOUS
10
0.0430024
20
0.610943
11
0.0470771
21
0.619721
0
LINE
8
BLACK
6
CONTINUOUS
10
0.0470771
20
0.619721
11
0.0525307
21
0.627716
0
LINE
8
BLACK
6
CONTINUOUS
10
0.0525307
20
0.627716
11
0.059217
21
0.634712
0
LINE
8
BLACK
6
CONTINUOUS
10
0.059217
20
0.634712
11
0.0669561
21
0.640523
0
LINE
8
BLACK
6
CONTINUOUS
10
0.0669561
20
0.640523
11
0.0755404
21
0.644992
0
LINE
8
BLACK
6
CONTINUOUS
10
0.0755404
20
0.644992
11
0.0847393
21
0.647999
0
LINE
8
BLACK
6
CONTINUOUS
10
0.0847393
20
0.647999
11
0.0943057
21
0.649462
0
LINE
8
BLACK
6
CONTINUOUS
10
0.0943057
20
0.649462
11
0.103983
21
0.649344
0
LINE
8
BLACK
6
CONTINUOUS
10
0.497684
20
0.649344
11
0.507211
21
0.647647
0
LINE
8
BLACK
6
CONTINUOUS
10
0.507211
20
0.647647
11
0.516334
21
0.644417
0
LINE
8
BLACK
6
CONTINUOUS
10
0.516334
20
0.644417
11
0.524807
21
0.639739
0
LINE
8
BLACK
6
CONTINUOUS
10
0.524807
20
0.639739
11
0.532401
21
0.633741
0
LINE
8
BLACK
6
CONTINUOUS
10
0.532401
20
0.633741
11
0.538915
21
0.626583
0
LINE
8
BLACK
6
CONTINUOUS
10
0.538915
20
0.626583
11
0.544171
21
0.618458
0
LINE
8
BLACK
6
CONTINUOUS
10
0.544171
20
0.618458
11
0.54803
21
0.609583
0
LINE
8
BLACK
6
CONTINUOUS
10
0.54803
20
0.609583
11
0.550388
21
0.600196
0
LINE
8
BLACK
6
CONTINUOUS
10
0.550388
20
0.600196
11
0.551181
21
0.590551
0
LINE
8
BLACK
6
CONTINUOUS
10
0.551181
20
0.590551
11
0.551111
21
0.587666
0
LINE
8
BLACK
6
CONTINUOUS
10
0.551111
20
0.587666
11
0.549847
21
0.578071
0
LINE
8
BLACK
6
CONTINUOUS
10
0.549847
20
0.578071
11
0.547034
21
0.568812
0
LINE
8
BLACK
6
CONTINUOUS
10
0.547034
20
0.568812
11
0.542746
21
0.560136
0
LINE
8
BLACK
6
CONTINUOUS
10
0.542746
20
0.560136
11
0.537099
21
0.552276
0
LINE
8
BLACK
6
CONTINUOUS
10
0.537099
20
0.552276
11
0.530244
21
0.545445
0
LINE
8
BLACK
6
CONTINUOUS
10
0.530244
20
0.545445
11
0.522365
21
0.539825
0
LINE
8
BLACK
6
CONTINUOUS
10
0.522365
20
0.539825
11
0.513674
21
0.535568
0
LINE
8
BLACK
6
CONTINUOUS
10
0.513674
20
0.535568
11
0.504404
21
0.532787
0
LINE
8
BLACK
6
CONTINUOUS
10
0.504404
20
0.532787
11
0.494805
21
0.531557
0
LINE
8
BLACK
6
CONTINUOUS
10
0.494805
20
0.531557
11
0.485134
21
0.531911
0
LINE
8
BLACK
6
CONTINUOUS
10
0.485134
20
0.531911
11
0.47565
21
0.533841
0
LINE
8
BLACK
6
CONTINUOUS
10
0.47565
20
0.533841
11
0.466609
21
0.537293
0
LINE
8
BLACK
6
CONTINUOUS
10
0.466609
20
0.537293
11
0.458253
21
0.542176
0
LINE
8
BLACK
6
CONTINUOUS
10
0.458253
20
0.542176
11
0.450807
21
0.548358
0
LINE
8
BLACK
6
CONTINUOUS
10
0.450807
20
0.548358
11
0.444471
21
0.555673
0
LINE
8
BLACK
6
CONTINUOUS
10
0.444471
20
0.555673
11
0.439414
21
0.563925
0
LINE
8
BLACK
6
CONTINUOUS
10
0.439414
20
0.563925
11
0.435773
21
0.572891
0
LINE
8
BLACK
6
CONTINUOUS
10
0.435773
20
0.572891
11
0.433646
21
0.582332
0
LINE
8
BLACK
6
CONTINUOUS
10
0.433646
20
0.582332
11
0.433089
21
0.591994
0
LINE
8
BLACK
6
CONTINUOUS
10
0.433089
20
0.591994
11
0.434117
21
0.601617
0
LINE
8
BLACK
6
CONTINUOUS
10
0.434117
20
0.601617
11
0.436703
21
0.610943
0
LINE
8
BLACK
6
CONTINUOUS
10
0.436703
20
0.610943
11
0.440778
21
0.619721
0
LINE
8
BLACK
6
CONTINUOUS
10
0.440778
20
0.619721
11
0.446232
21
0.627716
0
LINE
8
BLACK
6
CONTINUOUS
10
0.446232
20
0.627716
11
0.452918
21
0.634712
0
LINE
8
BLACK
6
CONTINUOUS
10
0.452918
20
0.634712
11
0.460657
21
0.640523
0
LINE
8
BLACK
6
CONTINUOUS
10
0.460657
20
0.640523
11
0.469241
21
0.644992
0
LINE
8
BLACK
6
CONTINUOUS
10
0.469241
20
0.644992
11
0.47844
21
0.647999
0
LINE
8
BLACK
6
CONTINUOUS
10
0.47844
20
0.647999
11
0.488006
21
0.649462
0
LINE
8
BLACK
6
CONTINUOUS
10
0.488006
20
0.649462
11
0.497684
21
0.649344
  0
ENDSEC
  0
EOF
