  0
SECTION
  2
HEADER
  9
$ANGBASE
  50
0.0
  9
$ANGDIR
  70
1
  9
$MEASUREMENT
  70
0
  0
ENDSEC
  0
SECTION
  2
TABLES
  0
TABLE
  2
LTYPE
  70
4
  0
LTYPE
  5
40F
  2
CONTINUOUS
  70
0
  3
Solid line
  72
65
  73
0
  40
0.0
  0
LTYPE
  5
410
  2
DASHDOT
 70
0
  3
Dash Dot ____ _ ____ _
 72
65
 73
4
 40
2.0
 49
1.25
 49
-0.25
 49
0.25
 49
-0.25
  0
LTYPE
  5
411
  2
DASHED
 70
0
  3
Dashed __ __ __ __ __
 72
65
 73
2
 40
0.75
 49
0.5
 49
-0.25
  0
LTYPE
  5
43B
  2
DOTTED
 70
0
  3
Dotted .  .  .  .
 72
65
 73
2
 40
0.2
 49
0.0
 49
-0.2
  0
ENDTAB
  0
TABLE
  2
STYLE
  70
4
  0
STYLE
  2
KICAD
  70
0
  40
0
  41
1
  42
1
  50
0
  71
0
  3
isocp.shx
  0
STYLE
  2
KICADB
  70
0
  40
0
  41
1
  42
1
  50
0
  71
0
  3
isocp.shx
  0
STYLE
  2
KICADI
  70
0
  40
0
  41
1
  42
1
  50
15
  71
0
  3
isocp.shx
  0
STYLE
  2
KICADBI
  70
0
  40
0
  41
1
  42
1
  50
15
  71
0
  3
isocp.shx
  0
ENDTAB
  0
TABLE
  2
LAYER
  70
1
  0
LAYER
  2
BLACK
  70
0
  62
7
  6
CONTINUOUS
  0
ENDTAB
  0
ENDSEC
  0
SECTION
  2
ENTITIES
0
LINE
8
BLACK
6
CONTINUOUS
10
0.497684
20
0.058793
11
0.507211
21
0.0570959
0
LINE
8
BLACK
6
CONTINUOUS
10
0.507211
20
0.0570959
11
0.516334
21
0.0538654
0
LINE
8
BLACK
6
CONTINUOUS
10
0.516334
20
0.0538654
11
0.524807
21
0.0491883
0
LINE
8
BLACK
6
CONTINUOUS
10
0.524807
20
0.0491883
11
0.532401
21
0.0431902
0
LINE
8
BLACK
6
CONTINUOUS
10
0.532401
20
0.0431902
11
0.538915
21
0.0360322
0
LINE
8
BLACK
6
CONTINUOUS
10
0.538915
20
0.0360322
11
0.544171
21
0.0279065
0
LINE
8
BLACK
6
CONTINUOUS
10
0.544171
20
0.0279065
11
0.54803
21
0.0190315
0
LINE
8
BLACK
6
CONTINUOUS
10
0.54803
20
0.0190315
11
0.550388
21
0.00964524
0
LINE
8
BLACK
6
CONTINUOUS
10
0.550388
20
0.00964524
11
0.551181
21
0
0
LINE
8
BLACK
6
CONTINUOUS
10
0.551181
20
0
11
0.551111
21
-0.00288484
0
LINE
8
BLACK
6
CONTINUOUS
10
0.551111
20
-0.00288484
11
0.549847
21
-0.0124798
0
LINE
8
BLACK
6
CONTINUOUS
10
0.549847
20
-0.0124798
11
0.547034
21
-0.0217396
0
LINE
8
BLACK
6
CONTINUOUS
10
0.547034
20
-0.0217396
11
0.542746
21
-0.0304156
0
LINE
8
BLACK
6
CONTINUOUS
10
0.542746
20
-0.0304156
11
0.537099
21
-0.0382748
0
LINE
8
BLACK
6
CONTINUOUS
10
0.537099
20
-0.0382748
11
0.530244
21
-0.0451061
0
LINE
8
BLACK
6
CONTINUOUS
10
0.530244
20
-0.0451061
11
0.522365
21
-0.050726
0
LINE
8
BLACK
6
CONTINUOUS
10
0.522365
20
-0.050726
11
0.513674
21
-0.0549836
0
LINE
8
BLACK
6
CONTINUOUS
10
0.513674
20
-0.0549836
11
0.504404
21
-0.0577646
0
LINE
8
BLACK
6
CONTINUOUS
10
0.504404
20
-0.0577646
11
0.494805
21
-0.0589943
0
LINE
8
BLACK
6
CONTINUOUS
10
0.494805
20
-0.0589943
11
0.485134
21
-0.0586397
0
LINE
8
BLACK
6
CONTINUOUS
10
0.485134
20
-0.0586397
11
0.47565
21
-0.0567103
0
LINE
8
BLACK
6
CONTINUOUS
10
0.47565
20
-0.0567103
11
0.466609
21
-0.0532578
0
LINE
8
BLACK
6
CONTINUOUS
10
0.466609
20
-0.0532578
11
0.458253
21
-0.0483751
0
LINE
8
BLACK
6
CONTINUOUS
10
0.458253
20
-0.0483751
11
0.450807
21
-0.0421933
0
LINE
8
BLACK
6
CONTINUOUS
10
0.450807
20
-0.0421933
11
0.444471
21
-0.0348783
0
LINE
8
BLACK
6
CONTINUOUS
10
0.444471
20
-0.0348783
11
0.439414
21
-0.0266266
0
LINE
8
BLACK
6
CONTINUOUS
10
0.439414
20
-0.0266266
11
0.435773
21
-0.0176599
0
LINE
8
BLACK
6
CONTINUOUS
10
0.435773
20
-0.0176599
11
0.433646
21
-0.0082189
0
LINE
8
BLACK
6
CONTINUOUS
10
0.433646
20
-0.0082189
11
0.433089
21
0.00144283
0
LINE
8
BLACK
6
CONTINUOUS
10
0.433089
20
0.00144283
11
0.434117
21
0.0110658
0
LINE
8
BLACK
6
CONTINUOUS
10
0.434117
20
0.0110658
11
0.436703
21
0.0203916
0
LINE
8
BLACK
6
CONTINUOUS
10
0.436703
20
0.0203916
11
0.440778
21
0.0291698
0
LINE
8
BLACK
6
CONTINUOUS
10
0.440778
20
0.0291698
11
0.446232
21
0.0371646
0
LINE
8
BLACK
6
CONTINUOUS
10
0.446232
20
0.0371646
11
0.452918
21
0.0441613
0
LINE
8
BLACK
6
CONTINUOUS
10
0.452918
20
0.0441613
11
0.460657
21
0.049972
0
LINE
8
BLACK
6
CONTINUOUS
10
0.460657
20
0.049972
11
0.469241
21
0.0544407
0
LINE
8
BLACK
6
CONTINUOUS
10
0.469241
20
0.0544407
11
0.47844
21
0.0574474
0
LINE
8
BLACK
6
CONTINUOUS
10
0.47844
20
0.0574474
11
0.488006
21
0.0589113
0
LINE
8
BLACK
6
CONTINUOUS
10
0.488006
20
0.0589113
11
0.497684
21
0.058793
0
LINE
8
BLACK
6
CONTINUOUS
10
0.103983
20
0.058793
11
0.113511
21
0.0570959
0
LINE
8
BLACK
6
CONTINUOUS
10
0.113511
20
0.0570959
11
0.122633
21
0.0538654
0
LINE
8
BLACK
6
CONTINUOUS
10
0.122633
20
0.0538654
11
0.131106
21
0.0491883
0
LINE
8
BLACK
6
CONTINUOUS
10
0.131106
20
0.0491883
11
0.138701
21
0.0431902
0
LINE
8
BLACK
6
CONTINUOUS
10
0.138701
20
0.0431902
11
0.145214
21
0.0360322
0
LINE
8
BLACK
6
CONTINUOUS
10
0.145214
20
0.0360322
11
0.150471
21
0.0279065
0
LINE
8
BLACK
6
CONTINUOUS
10
0.150471
20
0.0279065
11
0.15433
21
0.0190315
0
LINE
8
BLACK
6
CONTINUOUS
10
0.15433
20
0.0190315
11
0.156687
21
0.00964524
0
LINE
8
BLACK
6
CONTINUOUS
10
0.156687
20
0.00964524
11
0.15748
21
0
0
LINE
8
BLACK
6
CONTINUOUS
10
0.15748
20
0
11
0.15741
21
-0.00288484
0
LINE
8
BLACK
6
CONTINUOUS
10
0.15741
20
-0.00288484
11
0.156147
21
-0.0124798
0
LINE
8
BLACK
6
CONTINUOUS
10
0.156147
20
-0.0124798
11
0.153333
21
-0.0217396
0
LINE
8
BLACK
6
CONTINUOUS
10
0.153333
20
-0.0217396
11
0.149045
21
-0.0304156
0
LINE
8
BLACK
6
CONTINUOUS
10
0.149045
20
-0.0304156
11
0.143398
21
-0.0382748
0
LINE
8
BLACK
6
CONTINUOUS
10
0.143398
20
-0.0382748
11
0.136543
21
-0.0451061
0
LINE
8
BLACK
6
CONTINUOUS
10
0.136543
20
-0.0451061
11
0.128664
21
-0.050726
0
LINE
8
BLACK
6
CONTINUOUS
10
0.128664
20
-0.050726
11
0.119973
21
-0.0549836
0
LINE
8
BLACK
6
CONTINUOUS
10
0.119973
20
-0.0549836
11
0.110703
21
-0.0577646
0
LINE
8
BLACK
6
CONTINUOUS
10
0.110703
20
-0.0577646
11
0.101104
21
-0.0589943
0
LINE
8
BLACK
6
CONTINUOUS
10
0.101104
20
-0.0589943
11
0.0914328
21
-0.0586397
0
LINE
8
BLACK
6
CONTINUOUS
10
0.0914328
20
-0.0586397
11
0.0819493
21
-0.0567103
0
LINE
8
BLACK
6
CONTINUOUS
10
0.0819493
20
-0.0567103
11
0.0729083
21
-0.0532578
0
LINE
8
BLACK
6
CONTINUOUS
10
0.0729083
20
-0.0532578
11
0.0645526
21
-0.0483751
0
LINE
8
BLACK
6
CONTINUOUS
10
0.0645526
20
-0.0483751
11
0.0571065
21
-0.0421933
0
LINE
8
BLACK
6
CONTINUOUS
10
0.0571065
20
-0.0421933
11
0.0507701
21
-0.0348783
0
LINE
8
BLACK
6
CONTINUOUS
10
0.0507701
20
-0.0348783
11
0.0457134
21
-0.0266266
0
LINE
8
BLACK
6
CONTINUOUS
10
0.0457134
20
-0.0266266
11
0.0420724
21
-0.0176599
0
LINE
8
BLACK
6
CONTINUOUS
10
0.0420724
20
-0.0176599
11
0.0399448
21
-0.0082189
0
LINE
8
BLACK
6
CONTINUOUS
10
0.0399448
20
-0.0082189
11
0.0393877
21
0.00144283
0
LINE
8
BLACK
6
CONTINUOUS
10
0.0393877
20
0.00144283
11
0.0404161
21
0.0110658
0
LINE
8
BLACK
6
CONTINUOUS
10
0.0404161
20
0.0110658
11
0.0430024
21
0.0203916
0
LINE
8
BLACK
6
CONTINUOUS
10
0.0430024
20
0.0203916
11
0.0470771
21
0.0291698
0
LINE
8
BLACK
6
CONTINUOUS
10
0.0470771
20
0.0291698
11
0.0525307
21
0.0371646
0
LINE
8
BLACK
6
CONTINUOUS
10
0.0525307
20
0.0371646
11
0.059217
21
0.0441613
0
LINE
8
BLACK
6
CONTINUOUS
10
0.059217
20
0.0441613
11
0.0669561
21
0.049972
0
LINE
8
BLACK
6
CONTINUOUS
10
0.0669561
20
0.049972
11
0.0755404
21
0.0544407
0
LINE
8
BLACK
6
CONTINUOUS
10
0.0755404
20
0.0544407
11
0.0847393
21
0.0574474
0
LINE
8
BLACK
6
CONTINUOUS
10
0.0847393
20
0.0574474
11
0.0943057
21
0.0589113
0
LINE
8
BLACK
6
CONTINUOUS
10
0.0943057
20
0.0589113
11
0.103983
21
0.058793
0
LINE
8
BLACK
6
CONTINUOUS
10
0.891384
20
0.058793
11
0.900912
21
0.0570959
0
LINE
8
BLACK
6
CONTINUOUS
10
0.900912
20
0.0570959
11
0.910035
21
0.0538654
0
LINE
8
BLACK
6
CONTINUOUS
10
0.910035
20
0.0538654
11
0.918507
21
0.0491883
0
LINE
8
BLACK
6
CONTINUOUS
10
0.918507
20
0.0491883
11
0.926102
21
0.0431902
0
LINE
8
BLACK
6
CONTINUOUS
10
0.926102
20
0.0431902
11
0.932616
21
0.0360322
0
LINE
8
BLACK
6
CONTINUOUS
10
0.932616
20
0.0360322
11
0.937872
21
0.0279065
0
LINE
8
BLACK
6
CONTINUOUS
10
0.937872
20
0.0279065
11
0.941731
21
0.0190315
0
LINE
8
BLACK
6
CONTINUOUS
10
0.941731
20
0.0190315
11
0.944089
21
0.00964524
0
LINE
8
BLACK
6
CONTINUOUS
10
0.944089
20
0.00964524
11
0.944882
21
0
0
LINE
8
BLACK
6
CONTINUOUS
10
0.944882
20
0
11
0.944811
21
-0.00288484
0
LINE
8
BLACK
6
CONTINUOUS
10
0.944811
20
-0.00288484
11
0.943548
21
-0.0124798
0
LINE
8
BLACK
6
CONTINUOUS
10
0.943548
20
-0.0124798
11
0.940735
21
-0.0217396
0
LINE
8
BLACK
6
CONTINUOUS
10
0.940735
20
-0.0217396
11
0.936447
21
-0.0304156
0
LINE
8
BLACK
6
CONTINUOUS
10
0.936447
20
-0.0304156
11
0.930799
21
-0.0382748
0
LINE
8
BLACK
6
CONTINUOUS
10
0.930799
20
-0.0382748
11
0.923944
21
-0.0451061
0
LINE
8
BLACK
6
CONTINUOUS
10
0.923944
20
-0.0451061
11
0.916066
21
-0.050726
0
LINE
8
BLACK
6
CONTINUOUS
10
0.916066
20
-0.050726
11
0.907375
21
-0.0549836
0
LINE
8
BLACK
6
CONTINUOUS
10
0.907375
20
-0.0549836
11
0.898105
21
-0.0577646
0
LINE
8
BLACK
6
CONTINUOUS
10
0.898105
20
-0.0577646
11
0.888506
21
-0.0589943
0
LINE
8
BLACK
6
CONTINUOUS
10
0.888506
20
-0.0589943
11
0.878834
21
-0.0586397
0
LINE
8
BLACK
6
CONTINUOUS
10
0.878834
20
-0.0586397
11
0.869351
21
-0.0567103
0
LINE
8
BLACK
6
CONTINUOUS
10
0.869351
20
-0.0567103
11
0.86031
21
-0.0532578
0
LINE
8
BLACK
6
CONTINUOUS
10
0.86031
20
-0.0532578
11
0.851954
21
-0.0483751
0
LINE
8
BLACK
6
CONTINUOUS
10
0.851954
20
-0.0483751
11
0.844508
21
-0.0421933
0
LINE
8
BLACK
6
CONTINUOUS
10
0.844508
20
-0.0421933
11
0.838172
21
-0.0348783
0
LINE
8
BLACK
6
CONTINUOUS
10
0.838172
20
-0.0348783
11
0.833115
21
-0.0266266
0
LINE
8
BLACK
6
CONTINUOUS
10
0.833115
20
-0.0266266
11
0.829474
21
-0.0176599
0
LINE
8
BLACK
6
CONTINUOUS
10
0.829474
20
-0.0176599
11
0.827346
21
-0.0082189
0
LINE
8
BLACK
6
CONTINUOUS
10
0.827346
20
-0.0082189
11
0.826789
21
0.00144283
0
LINE
8
BLACK
6
CONTINUOUS
10
0.826789
20
0.00144283
11
0.827818
21
0.0110658
0
LINE
8
BLACK
6
CONTINUOUS
10
0.827818
20
0.0110658
11
0.830404
21
0.0203916
0
LINE
8
BLACK
6
CONTINUOUS
10
0.830404
20
0.0203916
11
0.834479
21
0.0291698
0
LINE
8
BLACK
6
CONTINUOUS
10
0.834479
20
0.0291698
11
0.839932
21
0.0371646
0
LINE
8
BLACK
6
CONTINUOUS
10
0.839932
20
0.0371646
11
0.846619
21
0.0441613
0
LINE
8
BLACK
6
CONTINUOUS
10
0.846619
20
0.0441613
11
0.854358
21
0.049972
0
LINE
8
BLACK
6
CONTINUOUS
10
0.854358
20
0.049972
11
0.862942
21
0.0544407
0
LINE
8
BLACK
6
CONTINUOUS
10
0.862942
20
0.0544407
11
0.872141
21
0.0574474
0
LINE
8
BLACK
6
CONTINUOUS
10
0.872141
20
0.0574474
11
0.881707
21
0.0589113
0
LINE
8
BLACK
6
CONTINUOUS
10
0.881707
20
0.0589113
11
0.891384
21
0.058793
0
LINE
8
BLACK
6
CONTINUOUS
10
0.343875
20
0.131082
11
0.352824
21
0.128684
0
LINE
8
BLACK
6
CONTINUOUS
10
0.352824
20
0.128684
11
0.36122
21
0.124769
0
LINE
8
BLACK
6
CONTINUOUS
10
0.36122
20
0.124769
11
0.36881
21
0.119455
0
LINE
8
BLACK
6
CONTINUOUS
10
0.36881
20
0.119455
11
0.375361
21
0.112904
0
LINE
8
BLACK
6
CONTINUOUS
10
0.375361
20
0.112904
11
0.380675
21
0.105315
0
LINE
8
BLACK
6
CONTINUOUS
10
0.380675
20
0.105315
11
0.38459
21
0.0969184
0
LINE
8
BLACK
6
CONTINUOUS
10
0.38459
20
0.0969184
11
0.386988
21
0.0879695
0
LINE
8
BLACK
6
CONTINUOUS
10
0.386988
20
0.0879695
11
0.387795
21
0.0787402
0
LINE
8
BLACK
6
CONTINUOUS
10
0.387795
20
0.0787402
11
0.386988
21
0.0695108
0
LINE
8
BLACK
6
CONTINUOUS
10
0.386988
20
0.0695108
11
0.38459
21
0.0605619
0
LINE
8
BLACK
6
CONTINUOUS
10
0.38459
20
0.0605619
11
0.380675
21
0.0521654
0
LINE
8
BLACK
6
CONTINUOUS
10
0.380675
20
0.0521654
11
0.375361
21
0.0445763
0
LINE
8
BLACK
6
CONTINUOUS
10
0.375361
20
0.0445763
11
0.36881
21
0.0380252
0
LINE
8
BLACK
6
CONTINUOUS
10
0.36881
20
0.0380252
11
0.36122
21
0.0327113
0
LINE
8
BLACK
6
CONTINUOUS
10
0.36122
20
0.0327113
11
0.352824
21
0.0287959
0
LINE
8
BLACK
6
CONTINUOUS
10
0.352824
20
0.0287959
11
0.343875
21
0.026398
0
LINE
8
BLACK
6
CONTINUOUS
10
0.343875
20
0.026398
11
0.334646
21
0.0255906
0
LINE
8
BLACK
6
CONTINUOUS
10
0.334646
20
0.0255906
11
0.325416
21
0.026398
0
LINE
8
BLACK
6
CONTINUOUS
10
0.325416
20
0.026398
11
0.316467
21
0.0287959
0
LINE
8
BLACK
6
CONTINUOUS
10
0.316467
20
0.0287959
11
0.308071
21
0.0327113
0
LINE
8
BLACK
6
CONTINUOUS
10
0.308071
20
0.0327113
11
0.300482
21
0.0380252
0
LINE
8
BLACK
6
CONTINUOUS
10
0.300482
20
0.0380252
11
0.293931
21
0.0445763
0
LINE
8
BLACK
6
CONTINUOUS
10
0.293931
20
0.0445763
11
0.288617
21
0.0521654
0
LINE
8
BLACK
6
CONTINUOUS
10
0.288617
20
0.0521654
11
0.284701
21
0.0605619
0
LINE
8
BLACK
6
CONTINUOUS
10
0.284701
20
0.0605619
11
0.282304
21
0.0695108
0
LINE
8
BLACK
6
CONTINUOUS
10
0.282304
20
0.0695108
11
0.281496
21
0.0787402
0
LINE
8
BLACK
6
CONTINUOUS
10
0.281496
20
0.0787402
11
0.282304
21
0.0879695
0
LINE
8
BLACK
6
CONTINUOUS
10
0.282304
20
0.0879695
11
0.284701
21
0.0969184
0
LINE
8
BLACK
6
CONTINUOUS
10
0.284701
20
0.0969184
11
0.288617
21
0.105315
0
LINE
8
BLACK
6
CONTINUOUS
10
0.288617
20
0.105315
11
0.293931
21
0.112904
0
LINE
8
BLACK
6
CONTINUOUS
10
0.293931
20
0.112904
11
0.300482
21
0.119455
0
LINE
8
BLACK
6
CONTINUOUS
10
0.300482
20
0.119455
11
0.308071
21
0.124769
0
LINE
8
BLACK
6
CONTINUOUS
10
0.308071
20
0.124769
11
0.316467
21
0.128684
0
LINE
8
BLACK
6
CONTINUOUS
10
0.316467
20
0.128684
11
0.325416
21
0.131082
0
LINE
8
BLACK
6
CONTINUOUS
10
0.325416
20
0.131082
11
0.334646
21
0.13189
0
LINE
8
BLACK
6
CONTINUOUS
10
0.334646
20
0.13189
11
0.343875
21
0.131082
0
LINE
8
BLACK
6
CONTINUOUS
10
0.890956
20
0.140927
11
0.896654
21
0.138568
0
LINE
8
BLACK
6
CONTINUOUS
10
0.896654
20
0.138568
11
0.901546
21
0.134814
0
LINE
8
BLACK
6
CONTINUOUS
10
0.901546
20
0.134814
11
0.9053
21
0.129921
0
LINE
8
BLACK
6
CONTINUOUS
10
0.9053
20
0.129921
11
0.90766
21
0.124224
0
LINE
8
BLACK
6
CONTINUOUS
10
0.90766
20
0.124224
11
0.908465
21
0.11811
0
LINE
8
BLACK
6
CONTINUOUS
10
0.908465
20
0.11811
11
0.90766
21
0.111996
0
LINE
8
BLACK
6
CONTINUOUS
10
0.90766
20
0.111996
11
0.9053
21
0.106299
0
LINE
8
BLACK
6
CONTINUOUS
10
0.9053
20
0.106299
11
0.901546
21
0.101407
0
LINE
8
BLACK
6
CONTINUOUS
10
0.901546
20
0.101407
11
0.896654
21
0.097653
0
LINE
8
BLACK
6
CONTINUOUS
10
0.896654
20
0.097653
11
0.890956
21
0.0952931
0
LINE
8
BLACK
6
CONTINUOUS
10
0.890956
20
0.0952931
11
0.884843
21
0.0944882
0
LINE
8
BLACK
6
CONTINUOUS
10
0.884843
20
0.0944882
11
0.878729
21
0.0952931
0
LINE
8
BLACK
6
CONTINUOUS
10
0.878729
20
0.0952931
11
0.873031
21
0.097653
0
LINE
8
BLACK
6
CONTINUOUS
10
0.873031
20
0.097653
11
0.868139
21
0.101407
0
LINE
8
BLACK
6
CONTINUOUS
10
0.868139
20
0.101407
11
0.864385
21
0.106299
0
LINE
8
BLACK
6
CONTINUOUS
10
0.864385
20
0.106299
11
0.862025
21
0.111996
0
LINE
8
BLACK
6
CONTINUOUS
10
0.862025
20
0.111996
11
0.86122
21
0.11811
0
LINE
8
BLACK
6
CONTINUOUS
10
0.86122
20
0.11811
11
0.862025
21
0.124224
0
LINE
8
BLACK
6
CONTINUOUS
10
0.862025
20
0.124224
11
0.864385
21
0.129921
0
LINE
8
BLACK
6
CONTINUOUS
10
0.864385
20
0.129921
11
0.868139
21
0.134814
0
LINE
8
BLACK
6
CONTINUOUS
10
0.868139
20
0.134814
11
0.873031
21
0.138568
0
LINE
8
BLACK
6
CONTINUOUS
10
0.873031
20
0.138568
11
0.878729
21
0.140927
0
LINE
8
BLACK
6
CONTINUOUS
10
0.878729
20
0.140927
11
0.884843
21
0.141732
0
LINE
8
BLACK
6
CONTINUOUS
10
0.884843
20
0.141732
11
0.890956
21
0.140927
0
LINE
8
BLACK
6
CONTINUOUS
10
0.103713
20
0.175867
11
0.108684
21
0.174122
0
LINE
8
BLACK
6
CONTINUOUS
10
0.108684
20
0.174122
11
0.112921
21
0.170992
0
LINE
8
BLACK
6
CONTINUOUS
10
0.112921
20
0.170992
11
0.116051
21
0.166755
0
LINE
8
BLACK
6
CONTINUOUS
10
0.116051
20
0.166755
11
0.117796
21
0.161784
0
LINE
8
BLACK
6
CONTINUOUS
10
0.117796
20
0.161784
11
0.11811
21
0.158465
0
LINE
8
BLACK
6
CONTINUOUS
10
0.11811
20
0.158465
11
0.11811
21
0.13878
0
LINE
8
BLACK
6
CONTINUOUS
10
0.11811
20
0.13878
11
0.117796
21
0.13546
0
LINE
8
BLACK
6
CONTINUOUS
10
0.117796
20
0.13546
11
0.116051
21
0.130489
0
LINE
8
BLACK
6
CONTINUOUS
10
0.116051
20
0.130489
11
0.112921
21
0.126252
0
LINE
8
BLACK
6
CONTINUOUS
10
0.112921
20
0.126252
11
0.108684
21
0.123122
0
LINE
8
BLACK
6
CONTINUOUS
10
0.108684
20
0.123122
11
0.103713
21
0.121377
0
LINE
8
BLACK
6
CONTINUOUS
10
0.103713
20
0.121377
11
0.100394
21
0.121063
0
LINE
8
BLACK
6
CONTINUOUS
10
0.100394
20
0.121063
11
0.0137795
21
0.121063
0
LINE
8
BLACK
6
CONTINUOUS
10
0.0137795
20
0.121063
11
0.0104598
21
0.121377
0
LINE
8
BLACK
6
CONTINUOUS
10
0.0104598
20
0.121377
11
0.00548945
21
0.123122
0
LINE
8
BLACK
6
CONTINUOUS
10
0.00548945
20
0.123122
11
0.00125205
21
0.126252
0
LINE
8
BLACK
6
CONTINUOUS
10
0.00125205
20
0.126252
11
-0.00187776
21
0.130489
0
LINE
8
BLACK
6
CONTINUOUS
10
-0.00187776
20
0.130489
11
-0.00362319
21
0.13546
0
LINE
8
BLACK
6
CONTINUOUS
10
-0.00362319
20
0.13546
11
-0.00393701
21
0.13878
0
LINE
8
BLACK
6
CONTINUOUS
10
-0.00393701
20
0.13878
11
-0.00393701
21
0.158465
0
LINE
8
BLACK
6
CONTINUOUS
10
-0.00393701
20
0.158465
11
-0.00362319
21
0.161784
0
LINE
8
BLACK
6
CONTINUOUS
10
-0.00362319
20
0.161784
11
-0.00187776
21
0.166755
0
LINE
8
BLACK
6
CONTINUOUS
10
-0.00187776
20
0.166755
11
0.00125205
21
0.170992
0
LINE
8
BLACK
6
CONTINUOUS
10
0.00125205
20
0.170992
11
0.00548945
21
0.174122
0
LINE
8
BLACK
6
CONTINUOUS
10
0.00548945
20
0.174122
11
0.0104598
21
0.175867
0
LINE
8
BLACK
6
CONTINUOUS
10
0.0104598
20
0.175867
11
0.0137795
21
0.176181
0
LINE
8
BLACK
6
CONTINUOUS
10
0.0137795
20
0.176181
11
0.100394
21
0.176181
0
LINE
8
BLACK
6
CONTINUOUS
10
0.100394
20
0.176181
11
0.103713
21
0.175867
0
LINE
8
BLACK
6
CONTINUOUS
10
0.873533
20
0.223208
11
0.879955
21
0.221595
0
LINE
8
BLACK
6
CONTINUOUS
10
0.879955
20
0.221595
11
0.885807
21
0.218496
0
LINE
8
BLACK
6
CONTINUOUS
10
0.885807
20
0.218496
11
0.890751
21
0.214091
0
LINE
8
BLACK
6
CONTINUOUS
10
0.890751
20
0.214091
11
0.894502
21
0.208634
0
LINE
8
BLACK
6
CONTINUOUS
10
0.894502
20
0.208634
11
0.896842
21
0.20244
0
LINE
8
BLACK
6
CONTINUOUS
10
0.896842
20
0.20244
11
0.897638
21
0.195866
0
LINE
8
BLACK
6
CONTINUOUS
10
0.897638
20
0.195866
11
0.897632
21
0.195289
0
LINE
8
BLACK
6
CONTINUOUS
10
0.897632
20
0.195289
11
0.896699
21
0.188733
0
LINE
8
BLACK
6
CONTINUOUS
10
0.896699
20
0.188733
11
0.894229
21
0.182589
0
LINE
8
BLACK
6
CONTINUOUS
10
0.894229
20
0.182589
11
0.890365
21
0.177212
0
LINE
8
BLACK
6
CONTINUOUS
10
0.890365
20
0.177212
11
0.88533
21
0.172912
0
LINE
8
BLACK
6
CONTINUOUS
10
0.88533
20
0.172912
11
0.879414
21
0.169936
0
LINE
8
BLACK
6
CONTINUOUS
10
0.879414
20
0.169936
11
0.872959
21
0.168458
0
LINE
8
BLACK
6
CONTINUOUS
10
0.872959
20
0.168458
11
0.866339
21
0.168562
0
LINE
8
BLACK
6
CONTINUOUS
10
0.866339
20
0.168562
11
0.859934
21
0.170242
0
LINE
8
BLACK
6
CONTINUOUS
10
0.859934
20
0.170242
11
0.854114
21
0.173402
0
LINE
8
BLACK
6
CONTINUOUS
10
0.854114
20
0.173402
11
0.849217
21
0.177859
0
LINE
8
BLACK
6
CONTINUOUS
10
0.849217
20
0.177859
11
0.845523
21
0.183355
0
LINE
8
BLACK
6
CONTINUOUS
10
0.845523
20
0.183355
11
0.843248
21
0.189573
0
LINE
8
BLACK
6
CONTINUOUS
10
0.843248
20
0.189573
11
0.842521
21
0.196155
0
LINE
8
BLACK
6
CONTINUOUS
10
0.842521
20
0.196155
11
0.843386
21
0.20272
0
LINE
8
BLACK
6
CONTINUOUS
10
0.843386
20
0.20272
11
0.845791
21
0.208889
0
LINE
8
BLACK
6
CONTINUOUS
10
0.845791
20
0.208889
11
0.849598
21
0.214307
0
LINE
8
BLACK
6
CONTINUOUS
10
0.849598
20
0.214307
11
0.854588
21
0.21866
0
LINE
8
BLACK
6
CONTINUOUS
10
0.854588
20
0.21866
11
0.860472
21
0.221697
0
LINE
8
BLACK
6
CONTINUOUS
10
0.860472
20
0.221697
11
0.866911
21
0.223243
0
LINE
8
BLACK
6
CONTINUOUS
10
0.866911
20
0.223243
11
0.873533
21
0.223208
0
LINE
8
BLACK
6
CONTINUOUS
10
1.1348
20
0.214351
11
1.14015
21
0.212752
0
LINE
8
BLACK
6
CONTINUOUS
10
1.14015
20
0.212752
11
1.14483
21
0.209716
0
LINE
8
BLACK
6
CONTINUOUS
10
1.14483
20
0.209716
11
1.14847
21
0.205488
0
LINE
8
BLACK
6
CONTINUOUS
10
1.14847
20
0.205488
11
1.15078
21
0.200407
0
LINE
8
BLACK
6
CONTINUOUS
10
1.15078
20
0.200407
11
1.15157
21
0.194882
0
LINE
8
BLACK
6
CONTINUOUS
10
1.15157
20
0.194882
11
1.15157
21
0.194401
0
LINE
8
BLACK
6
CONTINUOUS
10
1.15157
20
0.194401
11
1.15064
21
0.188897
0
LINE
8
BLACK
6
CONTINUOUS
10
1.15064
20
0.188897
11
1.14821
21
0.183874
0
LINE
8
BLACK
6
CONTINUOUS
10
1.14821
20
0.183874
11
1.14446
21
0.179736
0
LINE
8
BLACK
6
CONTINUOUS
10
1.14446
20
0.179736
11
1.13971
21
0.176816
0
LINE
8
BLACK
6
CONTINUOUS
10
1.13971
20
0.176816
11
1.13432
21
0.175348
0
LINE
8
BLACK
6
CONTINUOUS
10
1.13432
20
0.175348
11
1.12874
21
0.17545
0
LINE
8
BLACK
6
CONTINUOUS
10
1.12874
20
0.17545
11
1.12342
21
0.177114
0
LINE
8
BLACK
6
CONTINUOUS
10
1.12342
20
0.177114
11
1.11877
21
0.180207
0
LINE
8
BLACK
6
CONTINUOUS
10
1.11877
20
0.180207
11
1.11518
21
0.18448
0
LINE
8
BLACK
6
CONTINUOUS
10
1.11518
20
0.18448
11
1.11293
21
0.189588
0
LINE
8
BLACK
6
CONTINUOUS
10
1.11293
20
0.189588
11
1.11221
21
0.195122
0
LINE
8
BLACK
6
CONTINUOUS
10
1.11221
20
0.195122
11
1.11306
21
0.200637
0
LINE
8
BLACK
6
CONTINUOUS
10
1.11306
20
0.200637
11
1.11544
21
0.205689
0
LINE
8
BLACK
6
CONTINUOUS
10
1.11544
20
0.205689
11
1.11913
21
0.209873
0
LINE
8
BLACK
6
CONTINUOUS
10
1.11913
20
0.209873
11
1.12385
21
0.212851
0
LINE
8
BLACK
6
CONTINUOUS
10
1.12385
20
0.212851
11
1.12922
21
0.214385
0
LINE
8
BLACK
6
CONTINUOUS
10
1.12922
20
0.214385
11
1.1348
21
0.214351
0
LINE
8
BLACK
6
CONTINUOUS
10
0.934012
20
0.214351
11
0.939359
21
0.212752
0
LINE
8
BLACK
6
CONTINUOUS
10
0.939359
20
0.212752
11
0.944043
21
0.209716
0
LINE
8
BLACK
6
CONTINUOUS
10
0.944043
20
0.209716
11
0.947686
21
0.205488
0
LINE
8
BLACK
6
CONTINUOUS
10
0.947686
20
0.205488
11
0.949996
21
0.200407
0
LINE
8
BLACK
6
CONTINUOUS
10
0.949996
20
0.200407
11
0.950787
21
0.194882
0
LINE
8
BLACK
6
CONTINUOUS
10
0.950787
20
0.194882
11
0.950782
21
0.194401
0
LINE
8
BLACK
6
CONTINUOUS
10
0.950782
20
0.194401
11
0.949856
21
0.188897
0
LINE
8
BLACK
6
CONTINUOUS
10
0.949856
20
0.188897
11
0.947422
21
0.183874
0
LINE
8
BLACK
6
CONTINUOUS
10
0.947422
20
0.183874
11
0.943677
21
0.179736
0
LINE
8
BLACK
6
CONTINUOUS
10
0.943677
20
0.179736
11
0.93892
21
0.176816
0
LINE
8
BLACK
6
CONTINUOUS
10
0.93892
20
0.176816
11
0.933535
21
0.175348
0
LINE
8
BLACK
6
CONTINUOUS
10
0.933535
20
0.175348
11
0.927955
21
0.17545
0
LINE
8
BLACK
6
CONTINUOUS
10
0.927955
20
0.17545
11
0.922628
21
0.177114
0
LINE
8
BLACK
6
CONTINUOUS
10
0.922628
20
0.177114
11
0.917982
21
0.180207
0
LINE
8
BLACK
6
CONTINUOUS
10
0.917982
20
0.180207
11
0.91439
21
0.18448
0
LINE
8
BLACK
6
CONTINUOUS
10
0.91439
20
0.18448
11
0.912142
21
0.189588
0
LINE
8
BLACK
6
CONTINUOUS
10
0.912142
20
0.189588
11
0.911419
21
0.195122
0
LINE
8
BLACK
6
CONTINUOUS
10
0.911419
20
0.195122
11
0.912277
21
0.200637
0
LINE
8
BLACK
6
CONTINUOUS
10
0.912277
20
0.200637
11
0.914649
21
0.205689
0
LINE
8
BLACK
6
CONTINUOUS
10
0.914649
20
0.205689
11
0.918344
21
0.209873
0
LINE
8
BLACK
6
CONTINUOUS
10
0.918344
20
0.209873
11
0.923064
21
0.212851
0
LINE
8
BLACK
6
CONTINUOUS
10
0.923064
20
0.212851
11
0.928431
21
0.214385
0
LINE
8
BLACK
6
CONTINUOUS
10
0.928431
20
0.214385
11
0.934012
21
0.214351
0
LINE
8
BLACK
6
CONTINUOUS
10
0.214567
20
0.240567
11
0.218632
21
0.23858
0
LINE
8
BLACK
6
CONTINUOUS
10
0.218632
20
0.23858
11
0.221834
21
0.235384
0
LINE
8
BLACK
6
CONTINUOUS
10
0.221834
20
0.235384
11
0.223828
21
0.231322
0
LINE
8
BLACK
6
CONTINUOUS
10
0.223828
20
0.231322
11
0.224409
21
0.227362
0
LINE
8
BLACK
6
CONTINUOUS
10
0.224409
20
0.227362
11
0.224409
21
0.215551
0
LINE
8
BLACK
6
CONTINUOUS
10
0.224409
20
0.215551
11
0.223835
21
0.211615
0
LINE
8
BLACK
6
CONTINUOUS
10
0.223835
20
0.211615
11
0.221848
21
0.207549
0
LINE
8
BLACK
6
CONTINUOUS
10
0.221848
20
0.207549
11
0.218651
21
0.204347
0
LINE
8
BLACK
6
CONTINUOUS
10
0.218651
20
0.204347
11
0.21459
21
0.202353
0
LINE
8
BLACK
6
CONTINUOUS
10
0.21459
20
0.202353
11
0.21063
21
0.201772
0
LINE
8
BLACK
6
CONTINUOUS
10
0.21063
20
0.201772
11
0.155512
21
0.201772
0
LINE
8
BLACK
6
CONTINUOUS
10
0.155512
20
0.201772
11
0.151575
21
0.202346
0
LINE
8
BLACK
6
CONTINUOUS
10
0.151575
20
0.202346
11
0.14751
21
0.204333
0
LINE
8
BLACK
6
CONTINUOUS
10
0.14751
20
0.204333
11
0.144308
21
0.20753
0
LINE
8
BLACK
6
CONTINUOUS
10
0.144308
20
0.20753
11
0.142313
21
0.211591
0
LINE
8
BLACK
6
CONTINUOUS
10
0.142313
20
0.211591
11
0.141732
21
0.215551
0
LINE
8
BLACK
6
CONTINUOUS
10
0.141732
20
0.215551
11
0.141732
21
0.227362
0
LINE
8
BLACK
6
CONTINUOUS
10
0.141732
20
0.227362
11
0.142307
21
0.231299
0
LINE
8
BLACK
6
CONTINUOUS
10
0.142307
20
0.231299
11
0.144294
21
0.235364
0
LINE
8
BLACK
6
CONTINUOUS
10
0.144294
20
0.235364
11
0.14749
21
0.238566
0
LINE
8
BLACK
6
CONTINUOUS
10
0.14749
20
0.238566
11
0.151552
21
0.240561
0
LINE
8
BLACK
6
CONTINUOUS
10
0.151552
20
0.240561
11
0.155512
21
0.241142
0
LINE
8
BLACK
6
CONTINUOUS
10
0.155512
20
0.241142
11
0.21063
21
0.241142
0
LINE
8
BLACK
6
CONTINUOUS
10
0.21063
20
0.241142
11
0.214567
21
0.240567
0
LINE
8
BLACK
6
CONTINUOUS
10
0.214567
20
0.28978
11
0.218632
21
0.287793
0
LINE
8
BLACK
6
CONTINUOUS
10
0.218632
20
0.287793
11
0.221834
21
0.284596
0
LINE
8
BLACK
6
CONTINUOUS
10
0.221834
20
0.284596
11
0.223828
21
0.280534
0
LINE
8
BLACK
6
CONTINUOUS
10
0.223828
20
0.280534
11
0.224409
21
0.276575
0
LINE
8
BLACK
6
CONTINUOUS
10
0.224409
20
0.276575
11
0.224409
21
0.264764
0
LINE
8
BLACK
6
CONTINUOUS
10
0.224409
20
0.264764
11
0.223835
21
0.260827
0
LINE
8
BLACK
6
CONTINUOUS
10
0.223835
20
0.260827
11
0.221848
21
0.256762
0
LINE
8
BLACK
6
CONTINUOUS
10
0.221848
20
0.256762
11
0.218651
21
0.25356
0
LINE
8
BLACK
6
CONTINUOUS
10
0.218651
20
0.25356
11
0.21459
21
0.251565
0
LINE
8
BLACK
6
CONTINUOUS
10
0.21459
20
0.251565
11
0.21063
21
0.250984
0
LINE
8
BLACK
6
CONTINUOUS
10
0.21063
20
0.250984
11
0.155512
21
0.250984
0
LINE
8
BLACK
6
CONTINUOUS
10
0.155512
20
0.250984
11
0.151575
21
0.251559
0
LINE
8
BLACK
6
CONTINUOUS
10
0.151575
20
0.251559
11
0.14751
21
0.253546
0
LINE
8
BLACK
6
CONTINUOUS
10
0.14751
20
0.253546
11
0.144308
21
0.256742
0
LINE
8
BLACK
6
CONTINUOUS
10
0.144308
20
0.256742
11
0.142313
21
0.260804
0
LINE
8
BLACK
6
CONTINUOUS
10
0.142313
20
0.260804
11
0.141732
21
0.264764
0
LINE
8
BLACK
6
CONTINUOUS
10
0.141732
20
0.264764
11
0.141732
21
0.276575
0
LINE
8
BLACK
6
CONTINUOUS
10
0.141732
20
0.276575
11
0.142307
21
0.280511
0
LINE
8
BLACK
6
CONTINUOUS
10
0.142307
20
0.280511
11
0.144294
21
0.284577
0
LINE
8
BLACK
6
CONTINUOUS
10
0.144294
20
0.284577
11
0.14749
21
0.287779
0
LINE
8
BLACK
6
CONTINUOUS
10
0.14749
20
0.287779
11
0.151552
21
0.289773
0
LINE
8
BLACK
6
CONTINUOUS
10
0.151552
20
0.289773
11
0.155512
21
0.290354
0
LINE
8
BLACK
6
CONTINUOUS
10
0.155512
20
0.290354
11
0.21063
21
0.290354
0
LINE
8
BLACK
6
CONTINUOUS
10
0.21063
20
0.290354
11
0.214567
21
0.28978
0
LINE
8
BLACK
6
CONTINUOUS
10
0.869051
20
0.298996
11
0.874399
21
0.297397
0
LINE
8
BLACK
6
CONTINUOUS
10
0.874399
20
0.297397
11
0.879082
21
0.294361
0
LINE
8
BLACK
6
CONTINUOUS
10
0.879082
20
0.294361
11
0.882725
21
0.290133
0
LINE
8
BLACK
6
CONTINUOUS
10
0.882725
20
0.290133
11
0.885036
21
0.285052
0
LINE
8
BLACK
6
CONTINUOUS
10
0.885036
20
0.285052
11
0.885827
21
0.279528
0
LINE
8
BLACK
6
CONTINUOUS
10
0.885827
20
0.279528
11
0.885821
21
0.279047
0
LINE
8
BLACK
6
CONTINUOUS
10
0.885821
20
0.279047
11
0.884895
21
0.273543
0
LINE
8
BLACK
6
CONTINUOUS
10
0.884895
20
0.273543
11
0.882461
21
0.26852
0
LINE
8
BLACK
6
CONTINUOUS
10
0.882461
20
0.26852
11
0.878716
21
0.264382
0
LINE
8
BLACK
6
CONTINUOUS
10
0.878716
20
0.264382
11
0.87396
21
0.261462
0
LINE
8
BLACK
6
CONTINUOUS
10
0.87396
20
0.261462
11
0.868575
21
0.259993
0
LINE
8
BLACK
6
CONTINUOUS
10
0.868575
20
0.259993
11
0.862994
21
0.260096
0
LINE
8
BLACK
6
CONTINUOUS
10
0.862994
20
0.260096
11
0.857667
21
0.26176
0
LINE
8
BLACK
6
CONTINUOUS
10
0.857667
20
0.26176
11
0.853021
21
0.264853
0
LINE
8
BLACK
6
CONTINUOUS
10
0.853021
20
0.264853
11
0.84943
21
0.269125
0
LINE
8
BLACK
6
CONTINUOUS
10
0.84943
20
0.269125
11
0.847182
21
0.274234
0
LINE
8
BLACK
6
CONTINUOUS
10
0.847182
20
0.274234
11
0.846458
21
0.279768
0
LINE
8
BLACK
6
CONTINUOUS
10
0.846458
20
0.279768
11
0.847317
21
0.285283
0
LINE
8
BLACK
6
CONTINUOUS
10
0.847317
20
0.285283
11
0.849689
21
0.290335
0
LINE
8
BLACK
6
CONTINUOUS
10
0.849689
20
0.290335
11
0.853383
21
0.294518
0
LINE
8
BLACK
6
CONTINUOUS
10
0.853383
20
0.294518
11
0.858104
21
0.297497
0
LINE
8
BLACK
6
CONTINUOUS
10
0.858104
20
0.297497
11
0.86347
21
0.29903
0
LINE
8
BLACK
6
CONTINUOUS
10
0.86347
20
0.29903
11
0.869051
21
0.298996
0
LINE
8
BLACK
6
CONTINUOUS
10
0.214567
20
0.338993
11
0.218632
21
0.337006
0
LINE
8
BLACK
6
CONTINUOUS
10
0.218632
20
0.337006
11
0.221834
21
0.333809
0
LINE
8
BLACK
6
CONTINUOUS
10
0.221834
20
0.333809
11
0.223828
21
0.329747
0
LINE
8
BLACK
6
CONTINUOUS
10
0.223828
20
0.329747
11
0.224409
21
0.325787
0
LINE
8
BLACK
6
CONTINUOUS
10
0.224409
20
0.325787
11
0.224409
21
0.313976
0
LINE
8
BLACK
6
CONTINUOUS
10
0.224409
20
0.313976
11
0.223835
21
0.31004
0
LINE
8
BLACK
6
CONTINUOUS
10
0.223835
20
0.31004
11
0.221848
21
0.305975
0
LINE
8
BLACK
6
CONTINUOUS
10
0.221848
20
0.305975
11
0.218651
21
0.302772
0
LINE
8
BLACK
6
CONTINUOUS
10
0.218651
20
0.302772
11
0.21459
21
0.300778
0
LINE
8
BLACK
6
CONTINUOUS
10
0.21459
20
0.300778
11
0.21063
21
0.300197
0
LINE
8
BLACK
6
CONTINUOUS
10
0.21063
20
0.300197
11
0.155512
21
0.300197
0
LINE
8
BLACK
6
CONTINUOUS
10
0.155512
20
0.300197
11
0.151575
21
0.300771
0
LINE
8
BLACK
6
CONTINUOUS
10
0.151575
20
0.300771
11
0.14751
21
0.302758
0
LINE
8
BLACK
6
CONTINUOUS
10
0.14751
20
0.302758
11
0.144308
21
0.305955
0
LINE
8
BLACK
6
CONTINUOUS
10
0.144308
20
0.305955
11
0.142313
21
0.310017
0
LINE
8
BLACK
6
CONTINUOUS
10
0.142313
20
0.310017
11
0.141732
21
0.313976
0
LINE
8
BLACK
6
CONTINUOUS
10
0.141732
20
0.313976
11
0.141732
21
0.325787
0
LINE
8
BLACK
6
CONTINUOUS
10
0.141732
20
0.325787
11
0.142307
21
0.329724
0
LINE
8
BLACK
6
CONTINUOUS
10
0.142307
20
0.329724
11
0.144294
21
0.333789
0
LINE
8
BLACK
6
CONTINUOUS
10
0.144294
20
0.333789
11
0.14749
21
0.336992
0
LINE
8
BLACK
6
CONTINUOUS
10
0.14749
20
0.336992
11
0.151552
21
0.338986
0
LINE
8
BLACK
6
CONTINUOUS
10
0.151552
20
0.338986
11
0.155512
21
0.339567
0
LINE
8
BLACK
6
CONTINUOUS
10
0.155512
20
0.339567
11
0.21063
21
0.339567
0
LINE
8
BLACK
6
CONTINUOUS
10
0.21063
20
0.339567
11
0.214567
21
0.338993
0
LINE
8
BLACK
6
CONTINUOUS
10
0.869051
20
0.377737
11
0.874399
21
0.376137
0
LINE
8
BLACK
6
CONTINUOUS
10
0.874399
20
0.376137
11
0.879082
21
0.373102
0
LINE
8
BLACK
6
CONTINUOUS
10
0.879082
20
0.373102
11
0.882725
21
0.368873
0
LINE
8
BLACK
6
CONTINUOUS
10
0.882725
20
0.368873
11
0.885036
21
0.363793
0
LINE
8
BLACK
6
CONTINUOUS
10
0.885036
20
0.363793
11
0.885827
21
0.358268
0
LINE
8
BLACK
6
CONTINUOUS
10
0.885827
20
0.358268
11
0.885821
21
0.357787
0
LINE
8
BLACK
6
CONTINUOUS
10
0.885821
20
0.357787
11
0.884895
21
0.352283
0
LINE
8
BLACK
6
CONTINUOUS
10
0.884895
20
0.352283
11
0.882461
21
0.34726
0
LINE
8
BLACK
6
CONTINUOUS
10
0.882461
20
0.34726
11
0.878716
21
0.343122
0
LINE
8
BLACK
6
CONTINUOUS
10
0.878716
20
0.343122
11
0.87396
21
0.340202
0
LINE
8
BLACK
6
CONTINUOUS
10
0.87396
20
0.340202
11
0.868575
21
0.338734
0
LINE
8
BLACK
6
CONTINUOUS
10
0.868575
20
0.338734
11
0.862994
21
0.338836
0
LINE
8
BLACK
6
CONTINUOUS
10
0.862994
20
0.338836
11
0.857667
21
0.3405
0
LINE
8
BLACK
6
CONTINUOUS
10
0.857667
20
0.3405
11
0.853021
21
0.343593
0
LINE
8
BLACK
6
CONTINUOUS
10
0.853021
20
0.343593
11
0.84943
21
0.347865
0
LINE
8
BLACK
6
CONTINUOUS
10
0.84943
20
0.347865
11
0.847182
21
0.352974
0
LINE
8
BLACK
6
CONTINUOUS
10
0.847182
20
0.352974
11
0.846458
21
0.358508
0
LINE
8
BLACK
6
CONTINUOUS
10
0.846458
20
0.358508
11
0.847317
21
0.364023
0
LINE
8
BLACK
6
CONTINUOUS
10
0.847317
20
0.364023
11
0.849689
21
0.369075
0
LINE
8
BLACK
6
CONTINUOUS
10
0.849689
20
0.369075
11
0.853383
21
0.373259
0
LINE
8
BLACK
6
CONTINUOUS
10
0.853383
20
0.373259
11
0.858104
21
0.376237
0
LINE
8
BLACK
6
CONTINUOUS
10
0.858104
20
0.376237
11
0.86347
21
0.377771
0
LINE
8
BLACK
6
CONTINUOUS
10
0.86347
20
0.377771
11
0.869051
21
0.377737
0
LINE
8
BLACK
6
CONTINUOUS
10
0.214567
20
0.388205
11
0.218632
21
0.386218
0
LINE
8
BLACK
6
CONTINUOUS
10
0.218632
20
0.386218
11
0.221834
21
0.383021
0
LINE
8
BLACK
6
CONTINUOUS
10
0.221834
20
0.383021
11
0.223828
21
0.37896
0
LINE
8
BLACK
6
CONTINUOUS
10
0.223828
20
0.37896
11
0.224409
21
0.375
0
LINE
8
BLACK
6
CONTINUOUS
10
0.224409
20
0.375
11
0.224409
21
0.363189
0
LINE
8
BLACK
6
CONTINUOUS
10
0.224409
20
0.363189
11
0.223835
21
0.359252
0
LINE
8
BLACK
6
CONTINUOUS
10
0.223835
20
0.359252
11
0.221848
21
0.355187
0
LINE
8
BLACK
6
CONTINUOUS
10
0.221848
20
0.355187
11
0.218651
21
0.351985
0
LINE
8
BLACK
6
CONTINUOUS
10
0.218651
20
0.351985
11
0.21459
21
0.349991
0
LINE
8
BLACK
6
CONTINUOUS
10
0.21459
20
0.349991
11
0.21063
21
0.349409
0
LINE
8
BLACK
6
CONTINUOUS
10
0.21063
20
0.349409
11
0.155512
21
0.349409
0
LINE
8
BLACK
6
CONTINUOUS
10
0.155512
20
0.349409
11
0.151575
21
0.349984
0
LINE
8
BLACK
6
CONTINUOUS
10
0.151575
20
0.349984
11
0.14751
21
0.351971
0
LINE
8
BLACK
6
CONTINUOUS
10
0.14751
20
0.351971
11
0.144308
21
0.355168
0
LINE
8
BLACK
6
CONTINUOUS
10
0.144308
20
0.355168
11
0.142313
21
0.359229
0
LINE
8
BLACK
6
CONTINUOUS
10
0.142313
20
0.359229
11
0.141732
21
0.363189
0
LINE
8
BLACK
6
CONTINUOUS
10
0.141732
20
0.363189
11
0.141732
21
0.375
0
LINE
8
BLACK
6
CONTINUOUS
10
0.141732
20
0.375
11
0.142307
21
0.378937
0
LINE
8
BLACK
6
CONTINUOUS
10
0.142307
20
0.378937
11
0.144294
21
0.383002
0
LINE
8
BLACK
6
CONTINUOUS
10
0.144294
20
0.383002
11
0.14749
21
0.386204
0
LINE
8
BLACK
6
CONTINUOUS
10
0.14749
20
0.386204
11
0.151552
21
0.388198
0
LINE
8
BLACK
6
CONTINUOUS
10
0.151552
20
0.388198
11
0.155512
21
0.38878
0
LINE
8
BLACK
6
CONTINUOUS
10
0.155512
20
0.38878
11
0.21063
21
0.38878
0
LINE
8
BLACK
6
CONTINUOUS
10
0.21063
20
0.38878
11
0.214567
21
0.388205
0
LINE
8
BLACK
6
CONTINUOUS
10
0.934012
20
0.415138
11
0.939359
21
0.413539
0
LINE
8
BLACK
6
CONTINUOUS
10
0.939359
20
0.413539
11
0.944043
21
0.410503
0
LINE
8
BLACK
6
CONTINUOUS
10
0.944043
20
0.410503
11
0.947686
21
0.406275
0
LINE
8
BLACK
6
CONTINUOUS
10
0.947686
20
0.406275
11
0.949996
21
0.401194
0
LINE
8
BLACK
6
CONTINUOUS
10
0.949996
20
0.401194
11
0.950787
21
0.395669
0
LINE
8
BLACK
6
CONTINUOUS
10
0.950787
20
0.395669
11
0.950782
21
0.395188
0
LINE
8
BLACK
6
CONTINUOUS
10
0.950782
20
0.395188
11
0.949856
21
0.389684
0
LINE
8
BLACK
6
CONTINUOUS
10
0.949856
20
0.389684
11
0.947422
21
0.384662
0
LINE
8
BLACK
6
CONTINUOUS
10
0.947422
20
0.384662
11
0.943677
21
0.380524
0
LINE
8
BLACK
6
CONTINUOUS
10
0.943677
20
0.380524
11
0.93892
21
0.377603
0
LINE
8
BLACK
6
CONTINUOUS
10
0.93892
20
0.377603
11
0.933535
21
0.376135
0
LINE
8
BLACK
6
CONTINUOUS
10
0.933535
20
0.376135
11
0.927955
21
0.376237
0
LINE
8
BLACK
6
CONTINUOUS
10
0.927955
20
0.376237
11
0.922628
21
0.377902
0
LINE
8
BLACK
6
CONTINUOUS
10
0.922628
20
0.377902
11
0.917982
21
0.380995
0
LINE
8
BLACK
6
CONTINUOUS
10
0.917982
20
0.380995
11
0.91439
21
0.385267
0
LINE
8
BLACK
6
CONTINUOUS
10
0.91439
20
0.385267
11
0.912142
21
0.390376
0
LINE
8
BLACK
6
CONTINUOUS
10
0.912142
20
0.390376
11
0.911419
21
0.39591
0
LINE
8
BLACK
6
CONTINUOUS
10
0.911419
20
0.39591
11
0.912277
21
0.401425
0
LINE
8
BLACK
6
CONTINUOUS
10
0.912277
20
0.401425
11
0.914649
21
0.406477
0
LINE
8
BLACK
6
CONTINUOUS
10
0.914649
20
0.406477
11
0.918344
21
0.41066
0
LINE
8
BLACK
6
CONTINUOUS
10
0.918344
20
0.41066
11
0.923064
21
0.413638
0
LINE
8
BLACK
6
CONTINUOUS
10
0.923064
20
0.413638
11
0.928431
21
0.415172
0
LINE
8
BLACK
6
CONTINUOUS
10
0.928431
20
0.415172
11
0.934012
21
0.415138
0
LINE
8
BLACK
6
CONTINUOUS
10
1.1348
20
0.415138
11
1.14015
21
0.413539
0
LINE
8
BLACK
6
CONTINUOUS
10
1.14015
20
0.413539
11
1.14483
21
0.410503
0
LINE
8
BLACK
6
CONTINUOUS
10
1.14483
20
0.410503
11
1.14847
21
0.406275
0
LINE
8
BLACK
6
CONTINUOUS
10
1.14847
20
0.406275
11
1.15078
21
0.401194
0
LINE
8
BLACK
6
CONTINUOUS
10
1.15078
20
0.401194
11
1.15157
21
0.395669
0
LINE
8
BLACK
6
CONTINUOUS
10
1.15157
20
0.395669
11
1.15157
21
0.395188
0
LINE
8
BLACK
6
CONTINUOUS
10
1.15157
20
0.395188
11
1.15064
21
0.389684
0
LINE
8
BLACK
6
CONTINUOUS
10
1.15064
20
0.389684
11
1.14821
21
0.384662
0
LINE
8
BLACK
6
CONTINUOUS
10
1.14821
20
0.384662
11
1.14446
21
0.380524
0
LINE
8
BLACK
6
CONTINUOUS
10
1.14446
20
0.380524
11
1.13971
21
0.377603
0
LINE
8
BLACK
6
CONTINUOUS
10
1.13971
20
0.377603
11
1.13432
21
0.376135
0
LINE
8
BLACK
6
CONTINUOUS
10
1.13432
20
0.376135
11
1.12874
21
0.376237
0
LINE
8
BLACK
6
CONTINUOUS
10
1.12874
20
0.376237
11
1.12342
21
0.377902
0
LINE
8
BLACK
6
CONTINUOUS
10
1.12342
20
0.377902
11
1.11877
21
0.380995
0
LINE
8
BLACK
6
CONTINUOUS
10
1.11877
20
0.380995
11
1.11518
21
0.385267
0
LINE
8
BLACK
6
CONTINUOUS
10
1.11518
20
0.385267
11
1.11293
21
0.390376
0
LINE
8
BLACK
6
CONTINUOUS
10
1.11293
20
0.390376
11
1.11221
21
0.39591
0
LINE
8
BLACK
6
CONTINUOUS
10
1.11221
20
0.39591
11
1.11306
21
0.401425
0
LINE
8
BLACK
6
CONTINUOUS
10
1.11306
20
0.401425
11
1.11544
21
0.406477
0
LINE
8
BLACK
6
CONTINUOUS
10
1.11544
20
0.406477
11
1.11913
21
0.41066
0
LINE
8
BLACK
6
CONTINUOUS
10
1.11913
20
0.41066
11
1.12385
21
0.413638
0
LINE
8
BLACK
6
CONTINUOUS
10
1.12385
20
0.413638
11
1.12922
21
0.415172
0
LINE
8
BLACK
6
CONTINUOUS
10
1.12922
20
0.415172
11
1.1348
21
0.415138
0
LINE
8
BLACK
6
CONTINUOUS
10
0.103713
20
0.469174
11
0.108684
21
0.467429
0
LINE
8
BLACK
6
CONTINUOUS
10
0.108684
20
0.467429
11
0.112921
21
0.464299
0
LINE
8
BLACK
6
CONTINUOUS
10
0.112921
20
0.464299
11
0.116051
21
0.460062
0
LINE
8
BLACK
6
CONTINUOUS
10
0.116051
20
0.460062
11
0.117796
21
0.455091
0
LINE
8
BLACK
6
CONTINUOUS
10
0.117796
20
0.455091
11
0.11811
21
0.451772
0
LINE
8
BLACK
6
CONTINUOUS
10
0.11811
20
0.451772
11
0.11811
21
0.432087
0
LINE
8
BLACK
6
CONTINUOUS
10
0.11811
20
0.432087
11
0.117796
21
0.428767
0
LINE
8
BLACK
6
CONTINUOUS
10
0.117796
20
0.428767
11
0.116051
21
0.423797
0
LINE
8
BLACK
6
CONTINUOUS
10
0.116051
20
0.423797
11
0.112921
21
0.419559
0
LINE
8
BLACK
6
CONTINUOUS
10
0.112921
20
0.419559
11
0.108684
21
0.416429
0
LINE
8
BLACK
6
CONTINUOUS
10
0.108684
20
0.416429
11
0.103713
21
0.414684
0
LINE
8
BLACK
6
CONTINUOUS
10
0.103713
20
0.414684
11
0.100394
21
0.41437
0
LINE
8
BLACK
6
CONTINUOUS
10
0.100394
20
0.41437
11
0.0137795
21
0.41437
0
LINE
8
BLACK
6
CONTINUOUS
10
0.0137795
20
0.41437
11
0.0104598
21
0.414684
0
LINE
8
BLACK
6
CONTINUOUS
10
0.0104598
20
0.414684
11
0.00548945
21
0.416429
0
LINE
8
BLACK
6
CONTINUOUS
10
0.00548945
20
0.416429
11
0.00125205
21
0.419559
0
LINE
8
BLACK
6
CONTINUOUS
10
0.00125205
20
0.419559
11
-0.00187776
21
0.423797
0
LINE
8
BLACK
6
CONTINUOUS
10
-0.00187776
20
0.423797
11
-0.00362319
21
0.428767
0
LINE
8
BLACK
6
CONTINUOUS
10
-0.00362319
20
0.428767
11
-0.00393701
21
0.432087
0
LINE
8
BLACK
6
CONTINUOUS
10
-0.00393701
20
0.432087
11
-0.00393701
21
0.451772
0
LINE
8
BLACK
6
CONTINUOUS
10
-0.00393701
20
0.451772
11
-0.00362319
21
0.455091
0
LINE
8
BLACK
6
CONTINUOUS
10
-0.00362319
20
0.455091
11
-0.00187776
21
0.460062
0
LINE
8
BLACK
6
CONTINUOUS
10
-0.00187776
20
0.460062
11
0.00125205
21
0.464299
0
LINE
8
BLACK
6
CONTINUOUS
10
0.00125205
20
0.464299
11
0.00548945
21
0.467429
0
LINE
8
BLACK
6
CONTINUOUS
10
0.00548945
20
0.467429
11
0.0104598
21
0.469174
0
LINE
8
BLACK
6
CONTINUOUS
10
0.0104598
20
0.469174
11
0.0137795
21
0.469488
0
LINE
8
BLACK
6
CONTINUOUS
10
0.0137795
20
0.469488
11
0.100394
21
0.469488
0
LINE
8
BLACK
6
CONTINUOUS
10
0.100394
20
0.469488
11
0.103713
21
0.469174
0
LINE
8
BLACK
6
CONTINUOUS
10
0.870121
20
0.495259
11
0.877461
21
0.492987
0
LINE
8
BLACK
6
CONTINUOUS
10
0.877461
20
0.492987
11
0.88422
21
0.489332
0
LINE
8
BLACK
6
CONTINUOUS
10
0.88422
20
0.489332
11
0.890141
21
0.484434
0
LINE
8
BLACK
6
CONTINUOUS
10
0.890141
20
0.484434
11
0.894997
21
0.47848
0
LINE
8
BLACK
6
CONTINUOUS
10
0.894997
20
0.47848
11
0.898604
21
0.471696
0
LINE
8
BLACK
6
CONTINUOUS
10
0.898604
20
0.471696
11
0.900825
21
0.46434
0
LINE
8
BLACK
6
CONTINUOUS
10
0.900825
20
0.46434
11
0.901575
21
0.456693
0
LINE
8
BLACK
6
CONTINUOUS
10
0.901575
20
0.456693
11
0.901559
21
0.455594
0
LINE
8
BLACK
6
CONTINUOUS
10
0.901559
20
0.455594
11
0.900596
21
0.447971
0
LINE
8
BLACK
6
CONTINUOUS
10
0.900596
20
0.447971
11
0.898171
21
0.44068
0
LINE
8
BLACK
6
CONTINUOUS
10
0.898171
20
0.44068
11
0.894376
21
0.433999
0
LINE
8
BLACK
6
CONTINUOUS
10
0.894376
20
0.433999
11
0.889355
21
0.428182
0
LINE
8
BLACK
6
CONTINUOUS
10
0.889355
20
0.428182
11
0.8833
21
0.423452
0
LINE
8
BLACK
6
CONTINUOUS
10
0.8833
20
0.423452
11
0.876442
21
0.419987
0
LINE
8
BLACK
6
CONTINUOUS
10
0.876442
20
0.419987
11
0.869041
21
0.417921
0
LINE
8
BLACK
6
CONTINUOUS
10
0.869041
20
0.417921
11
0.86138
21
0.417331
0
LINE
8
BLACK
6
CONTINUOUS
10
0.86138
20
0.417331
11
0.853751
21
0.418241
0
LINE
8
BLACK
6
CONTINUOUS
10
0.853751
20
0.418241
11
0.846443
21
0.420616
0
LINE
8
BLACK
6
CONTINUOUS
10
0.846443
20
0.420616
11
0.839736
21
0.424364
0
LINE
8
BLACK
6
CONTINUOUS
10
0.839736
20
0.424364
11
0.833884
21
0.429344
0
LINE
8
BLACK
6
CONTINUOUS
10
0.833884
20
0.429344
11
0.829112
21
0.435366
0
LINE
8
BLACK
6
CONTINUOUS
10
0.829112
20
0.435366
11
0.825599
21
0.4422
0
LINE
8
BLACK
6
CONTINUOUS
10
0.825599
20
0.4422
11
0.823481
21
0.449586
0
LINE
8
BLACK
6
CONTINUOUS
10
0.823481
20
0.449586
11
0.822838
21
0.457243
0
LINE
8
BLACK
6
CONTINUOUS
10
0.822838
20
0.457243
11
0.823695
21
0.464878
0
LINE
8
BLACK
6
CONTINUOUS
10
0.823695
20
0.464878
11
0.826018
21
0.472202
0
LINE
8
BLACK
6
CONTINUOUS
10
0.826018
20
0.472202
11
0.82972
21
0.478936
0
LINE
8
BLACK
6
CONTINUOUS
10
0.82972
20
0.478936
11
0.834659
21
0.484822
0
LINE
8
BLACK
6
CONTINUOUS
10
0.834659
20
0.484822
11
0.840647
21
0.489636
0
LINE
8
BLACK
6
CONTINUOUS
10
0.840647
20
0.489636
11
0.847456
21
0.493196
0
LINE
8
BLACK
6
CONTINUOUS
10
0.847456
20
0.493196
11
0.854828
21
0.495366
0
LINE
8
BLACK
6
CONTINUOUS
10
0.854828
20
0.495366
11
0.86248
21
0.496062
0
LINE
8
BLACK
6
CONTINUOUS
10
0.86248
20
0.496062
11
0.870121
21
0.495259
0
LINE
8
BLACK
6
CONTINUOUS
10
0.343875
20
0.564153
11
0.352824
21
0.561755
0
LINE
8
BLACK
6
CONTINUOUS
10
0.352824
20
0.561755
11
0.36122
21
0.55784
0
LINE
8
BLACK
6
CONTINUOUS
10
0.36122
20
0.55784
11
0.36881
21
0.552526
0
LINE
8
BLACK
6
CONTINUOUS
10
0.36881
20
0.552526
11
0.375361
21
0.545975
0
LINE
8
BLACK
6
CONTINUOUS
10
0.375361
20
0.545975
11
0.380675
21
0.538386
0
LINE
8
BLACK
6
CONTINUOUS
10
0.380675
20
0.538386
11
0.38459
21
0.529989
0
LINE
8
BLACK
6
CONTINUOUS
10
0.38459
20
0.529989
11
0.386988
21
0.52104
0
LINE
8
BLACK
6
CONTINUOUS
10
0.386988
20
0.52104
11
0.387795
21
0.511811
0
LINE
8
BLACK
6
CONTINUOUS
10
0.387795
20
0.511811
11
0.386988
21
0.502582
0
LINE
8
BLACK
6
CONTINUOUS
10
0.386988
20
0.502582
11
0.38459
21
0.493633
0
LINE
8
BLACK
6
CONTINUOUS
10
0.38459
20
0.493633
11
0.380675
21
0.485236
0
LINE
8
BLACK
6
CONTINUOUS
10
0.380675
20
0.485236
11
0.375361
21
0.477647
0
LINE
8
BLACK
6
CONTINUOUS
10
0.375361
20
0.477647
11
0.36881
21
0.471096
0
LINE
8
BLACK
6
CONTINUOUS
10
0.36881
20
0.471096
11
0.36122
21
0.465782
0
LINE
8
BLACK
6
CONTINUOUS
10
0.36122
20
0.465782
11
0.352824
21
0.461867
0
LINE
8
BLACK
6
CONTINUOUS
10
0.352824
20
0.461867
11
0.343875
21
0.459469
0
LINE
8
BLACK
6
CONTINUOUS
10
0.343875
20
0.459469
11
0.334646
21
0.458661
0
LINE
8
BLACK
6
CONTINUOUS
10
0.334646
20
0.458661
11
0.325416
21
0.459469
0
LINE
8
BLACK
6
CONTINUOUS
10
0.325416
20
0.459469
11
0.316467
21
0.461867
0
LINE
8
BLACK
6
CONTINUOUS
10
0.316467
20
0.461867
11
0.308071
21
0.465782
0
LINE
8
BLACK
6
CONTINUOUS
10
0.308071
20
0.465782
11
0.300482
21
0.471096
0
LINE
8
BLACK
6
CONTINUOUS
10
0.300482
20
0.471096
11
0.293931
21
0.477647
0
LINE
8
BLACK
6
CONTINUOUS
10
0.293931
20
0.477647
11
0.288617
21
0.485236
0
LINE
8
BLACK
6
CONTINUOUS
10
0.288617
20
0.485236
11
0.284701
21
0.493633
0
LINE
8
BLACK
6
CONTINUOUS
10
0.284701
20
0.493633
11
0.282304
21
0.502582
0
LINE
8
BLACK
6
CONTINUOUS
10
0.282304
20
0.502582
11
0.281496
21
0.511811
0
LINE
8
BLACK
6
CONTINUOUS
10
0.281496
20
0.511811
11
0.282304
21
0.52104
0
LINE
8
BLACK
6
CONTINUOUS
10
0.282304
20
0.52104
11
0.284701
21
0.529989
0
LINE
8
BLACK
6
CONTINUOUS
10
0.284701
20
0.529989
11
0.288617
21
0.538386
0
LINE
8
BLACK
6
CONTINUOUS
10
0.288617
20
0.538386
11
0.293931
21
0.545975
0
LINE
8
BLACK
6
CONTINUOUS
10
0.293931
20
0.545975
11
0.300482
21
0.552526
0
LINE
8
BLACK
6
CONTINUOUS
10
0.300482
20
0.552526
11
0.308071
21
0.55784
0
LINE
8
BLACK
6
CONTINUOUS
10
0.308071
20
0.55784
11
0.316467
21
0.561755
0
LINE
8
BLACK
6
CONTINUOUS
10
0.316467
20
0.561755
11
0.325416
21
0.564153
0
LINE
8
BLACK
6
CONTINUOUS
10
0.325416
20
0.564153
11
0.334646
21
0.564961
0
LINE
8
BLACK
6
CONTINUOUS
10
0.334646
20
0.564961
11
0.343875
21
0.564153
0
LINE
8
BLACK
6
CONTINUOUS
10
0.891384
20
0.649344
11
0.900912
21
0.647647
0
LINE
8
BLACK
6
CONTINUOUS
10
0.900912
20
0.647647
11
0.910035
21
0.644417
0
LINE
8
BLACK
6
CONTINUOUS
10
0.910035
20
0.644417
11
0.918507
21
0.639739
0
LINE
8
BLACK
6
CONTINUOUS
10
0.918507
20
0.639739
11
0.926102
21
0.633741
0
LINE
8
BLACK
6
CONTINUOUS
10
0.926102
20
0.633741
11
0.932616
21
0.626583
0
LINE
8
BLACK
6
CONTINUOUS
10
0.932616
20
0.626583
11
0.937872
21
0.618458
0
LINE
8
BLACK
6
CONTINUOUS
10
0.937872
20
0.618458
11
0.941731
21
0.609583
0
LINE
8
BLACK
6
CONTINUOUS
10
0.941731
20
0.609583
11
0.944089
21
0.600196
0
LINE
8
BLACK
6
CONTINUOUS
10
0.944089
20
0.600196
11
0.944882
21
0.590551
0
LINE
8
BLACK
6
CONTINUOUS
10
0.944882
20
0.590551
11
0.944811
21
0.587666
0
LINE
8
BLACK
6
CONTINUOUS
10
0.944811
20
0.587666
11
0.943548
21
0.578071
0
LINE
8
BLACK
6
CONTINUOUS
10
0.943548
20
0.578071
11
0.940735
21
0.568812
0
LINE
8
BLACK
6
CONTINUOUS
10
0.940735
20
0.568812
11
0.936447
21
0.560136
0
LINE
8
BLACK
6
CONTINUOUS
10
0.936447
20
0.560136
11
0.930799
21
0.552276
0
LINE
8
BLACK
6
CONTINUOUS
10
0.930799
20
0.552276
11
0.923944
21
0.545445
0
LINE
8
BLACK
6
CONTINUOUS
10
0.923944
20
0.545445
11
0.916066
21
0.539825
0
LINE
8
BLACK
6
CONTINUOUS
10
0.916066
20
0.539825
11
0.907375
21
0.535568
0
LINE
8
BLACK
6
CONTINUOUS
10
0.907375
20
0.535568
11
0.898105
21
0.532787
0
LINE
8
BLACK
6
CONTINUOUS
10
0.898105
20
0.532787
11
0.888506
21
0.531557
0
LINE
8
BLACK
6
CONTINUOUS
10
0.888506
20
0.531557
11
0.878834
21
0.531911
0
LINE
8
BLACK
6
CONTINUOUS
10
0.878834
20
0.531911
11
0.869351
21
0.533841
0
LINE
8
BLACK
6
CONTINUOUS
10
0.869351
20
0.533841
11
0.86031
21
0.537293
0
LINE
8
BLACK
6
CONTINUOUS
10
0.86031
20
0.537293
11
0.851954
21
0.542176
0
LINE
8
BLACK
6
CONTINUOUS
10
0.851954
20
0.542176
11
0.844508
21
0.548358
0
LINE
8
BLACK
6
CONTINUOUS
10
0.844508
20
0.548358
11
0.838172
21
0.555673
0
LINE
8
BLACK
6
CONTINUOUS
10
0.838172
20
0.555673
11
0.833115
21
0.563925
0
LINE
8
BLACK
6
CONTINUOUS
10
0.833115
20
0.563925
11
0.829474
21
0.572891
0
LINE
8
BLACK
6
CONTINUOUS
10
0.829474
20
0.572891
11
0.827346
21
0.582332
0
LINE
8
BLACK
6
CONTINUOUS
10
0.827346
20
0.582332
11
0.826789
21
0.591994
0
LINE
8
BLACK
6
CONTINUOUS
10
0.826789
20
0.591994
11
0.827818
21
0.601617
0
LINE
8
BLACK
6
CONTINUOUS
10
0.827818
20
0.601617
11
0.830404
21
0.610943
0
LINE
8
BLACK
6
CONTINUOUS
10
0.830404
20
0.610943
11
0.834479
21
0.619721
0
LINE
8
BLACK
6
CONTINUOUS
10
0.834479
20
0.619721
11
0.839932
21
0.627716
0
LINE
8
BLACK
6
CONTINUOUS
10
0.839932
20
0.627716
11
0.846619
21
0.634712
0
LINE
8
BLACK
6
CONTINUOUS
10
0.846619
20
0.634712
11
0.854358
21
0.640523
0
LINE
8
BLACK
6
CONTINUOUS
10
0.854358
20
0.640523
11
0.862942
21
0.644992
0
LINE
8
BLACK
6
CONTINUOUS
10
0.862942
20
0.644992
11
0.872141
21
0.647999
0
LINE
8
BLACK
6
CONTINUOUS
10
0.872141
20
0.647999
11
0.881707
21
0.649462
0
LINE
8
BLACK
6
CONTINUOUS
10
0.881707
20
0.649462
11
0.891384
21
0.649344
0
LINE
8
BLACK
6
CONTINUOUS
10
0.103983
20
0.649344
11
0.113511
21
0.647647
0
LINE
8
BLACK
6
CONTINUOUS
10
0.113511
20
0.647647
11
0.122633
21
0.644417
0
LINE
8
BLACK
6
CONTINUOUS
10
0.122633
20
0.644417
11
0.131106
21
0.639739
0
LINE
8
BLACK
6
CONTINUOUS
10
0.131106
20
0.639739
11
0.138701
21
0.633741
0
LINE
8
BLACK
6
CONTINUOUS
10
0.138701
20
0.633741
11
0.145214
21
0.626583
0
LINE
8
BLACK
6
CONTINUOUS
10
0.145214
20
0.626583
11
0.150471
21
0.618458
0
LINE
8
BLACK
6
CONTINUOUS
10
0.150471
20
0.618458
11
0.15433
21
0.609583
0
LINE
8
BLACK
6
CONTINUOUS
10
0.15433
20
0.609583
11
0.156687
21
0.600196
0
LINE
8
BLACK
6
CONTINUOUS
10
0.156687
20
0.600196
11
0.15748
21
0.590551
0
LINE
8
BLACK
6
CONTINUOUS
10
0.15748
20
0.590551
11
0.15741
21
0.587666
0
LINE
8
BLACK
6
CONTINUOUS
10
0.15741
20
0.587666
11
0.156147
21
0.578071
0
LINE
8
BLACK
6
CONTINUOUS
10
0.156147
20
0.578071
11
0.153333
21
0.568812
0
LINE
8
BLACK
6
CONTINUOUS
10
0.153333
20
0.568812
11
0.149045
21
0.560136
0
LINE
8
BLACK
6
CONTINUOUS
10
0.149045
20
0.560136
11
0.143398
21
0.552276
0
LINE
8
BLACK
6
CONTINUOUS
10
0.143398
20
0.552276
11
0.136543
21
0.545445
0
LINE
8
BLACK
6
CONTINUOUS
10
0.136543
20
0.545445
11
0.128664
21
0.539825
0
LINE
8
BLACK
6
CONTINUOUS
10
0.128664
20
0.539825
11
0.119973
21
0.535568
0
LINE
8
BLACK
6
CONTINUOUS
10
0.119973
20
0.535568
11
0.110703
21
0.532787
0
LINE
8
BLACK
6
CONTINUOUS
10
0.110703
20
0.532787
11
0.101104
21
0.531557
0
LINE
8
BLACK
6
CONTINUOUS
10
0.101104
20
0.531557
11
0.0914328
21
0.531911
0
LINE
8
BLACK
6
CONTINUOUS
10
0.0914328
20
0.531911
11
0.0819493
21
0.533841
0
LINE
8
BLACK
6
CONTINUOUS
10
0.0819493
20
0.533841
11
0.0729083
21
0.537293
0
LINE
8
BLACK
6
CONTINUOUS
10
0.0729083
20
0.537293
11
0.0645526
21
0.542176
0
LINE
8
BLACK
6
CONTINUOUS
10
0.0645526
20
0.542176
11
0.0571065
21
0.548358
0
LINE
8
BLACK
6
CONTINUOUS
10
0.0571065
20
0.548358
11
0.0507701
21
0.555673
0
LINE
8
BLACK
6
CONTINUOUS
10
0.0507701
20
0.555673
11
0.0457134
21
0.563925
0
LINE
8
BLACK
6
CONTINUOUS
10
0.0457134
20
0.563925
11
0.0420724
21
0.572891
0
LINE
8
BLACK
6
CONTINUOUS
10
0.0420724
20
0.572891
11
0.0399448
21
0.582332
0
LINE
8
BLACK
6
CONTINUOUS
10
0.0399448
20
0.582332
11
0.0393877
21
0.591994
0
LINE
8
BLACK
6
CONTINUOUS
10
0.0393877
20
0.591994
11
0.0404161
21
0.601617
0
LINE
8
BLACK
6
CONTINUOUS
10
0.0404161
20
0.601617
11
0.0430024
21
0.610943
0
LINE
8
BLACK
6
CONTINUOUS
10
0.0430024
20
0.610943
11
0.0470771
21
0.619721
0
LINE
8
BLACK
6
CONTINUOUS
10
0.0470771
20
0.619721
11
0.0525307
21
0.627716
0
LINE
8
BLACK
6
CONTINUOUS
10
0.0525307
20
0.627716
11
0.059217
21
0.634712
0
LINE
8
BLACK
6
CONTINUOUS
10
0.059217
20
0.634712
11
0.0669561
21
0.640523
0
LINE
8
BLACK
6
CONTINUOUS
10
0.0669561
20
0.640523
11
0.0755404
21
0.644992
0
LINE
8
BLACK
6
CONTINUOUS
10
0.0755404
20
0.644992
11
0.0847393
21
0.647999
0
LINE
8
BLACK
6
CONTINUOUS
10
0.0847393
20
0.647999
11
0.0943057
21
0.649462
0
LINE
8
BLACK
6
CONTINUOUS
10
0.0943057
20
0.649462
11
0.103983
21
0.649344
0
LINE
8
BLACK
6
CONTINUOUS
10
0.497684
20
0.649344
11
0.507211
21
0.647647
0
LINE
8
BLACK
6
CONTINUOUS
10
0.507211
20
0.647647
11
0.516334
21
0.644417
0
LINE
8
BLACK
6
CONTINUOUS
10
0.516334
20
0.644417
11
0.524807
21
0.639739
0
LINE
8
BLACK
6
CONTINUOUS
10
0.524807
20
0.639739
11
0.532401
21
0.633741
0
LINE
8
BLACK
6
CONTINUOUS
10
0.532401
20
0.633741
11
0.538915
21
0.626583
0
LINE
8
BLACK
6
CONTINUOUS
10
0.538915
20
0.626583
11
0.544171
21
0.618458
0
LINE
8
BLACK
6
CONTINUOUS
10
0.544171
20
0.618458
11
0.54803
21
0.609583
0
LINE
8
BLACK
6
CONTINUOUS
10
0.54803
20
0.609583
11
0.550388
21
0.600196
0
LINE
8
BLACK
6
CONTINUOUS
10
0.550388
20
0.600196
11
0.551181
21
0.590551
0
LINE
8
BLACK
6
CONTINUOUS
10
0.551181
20
0.590551
11
0.551111
21
0.587666
0
LINE
8
BLACK
6
CONTINUOUS
10
0.551111
20
0.587666
11
0.549847
21
0.578071
0
LINE
8
BLACK
6
CONTINUOUS
10
0.549847
20
0.578071
11
0.547034
21
0.568812
0
LINE
8
BLACK
6
CONTINUOUS
10
0.547034
20
0.568812
11
0.542746
21
0.560136
0
LINE
8
BLACK
6
CONTINUOUS
10
0.542746
20
0.560136
11
0.537099
21
0.552276
0
LINE
8
BLACK
6
CONTINUOUS
10
0.537099
20
0.552276
11
0.530244
21
0.545445
0
LINE
8
BLACK
6
CONTINUOUS
10
0.530244
20
0.545445
11
0.522365
21
0.539825
0
LINE
8
BLACK
6
CONTINUOUS
10
0.522365
20
0.539825
11
0.513674
21
0.535568
0
LINE
8
BLACK
6
CONTINUOUS
10
0.513674
20
0.535568
11
0.504404
21
0.532787
0
LINE
8
BLACK
6
CONTINUOUS
10
0.504404
20
0.532787
11
0.494805
21
0.531557
0
LINE
8
BLACK
6
CONTINUOUS
10
0.494805
20
0.531557
11
0.485134
21
0.531911
0
LINE
8
BLACK
6
CONTINUOUS
10
0.485134
20
0.531911
11
0.47565
21
0.533841
0
LINE
8
BLACK
6
CONTINUOUS
10
0.47565
20
0.533841
11
0.466609
21
0.537293
0
LINE
8
BLACK
6
CONTINUOUS
10
0.466609
20
0.537293
11
0.458253
21
0.542176
0
LINE
8
BLACK
6
CONTINUOUS
10
0.458253
20
0.542176
11
0.450807
21
0.548358
0
LINE
8
BLACK
6
CONTINUOUS
10
0.450807
20
0.548358
11
0.444471
21
0.555673
0
LINE
8
BLACK
6
CONTINUOUS
10
0.444471
20
0.555673
11
0.439414
21
0.563925
0
LINE
8
BLACK
6
CONTINUOUS
10
0.439414
20
0.563925
11
0.435773
21
0.572891
0
LINE
8
BLACK
6
CONTINUOUS
10
0.435773
20
0.572891
11
0.433646
21
0.582332
0
LINE
8
BLACK
6
CONTINUOUS
10
0.433646
20
0.582332
11
0.433089
21
0.591994
0
LINE
8
BLACK
6
CONTINUOUS
10
0.433089
20
0.591994
11
0.434117
21
0.601617
0
LINE
8
BLACK
6
CONTINUOUS
10
0.434117
20
0.601617
11
0.436703
21
0.610943
0
LINE
8
BLACK
6
CONTINUOUS
10
0.436703
20
0.610943
11
0.440778
21
0.619721
0
LINE
8
BLACK
6
CONTINUOUS
10
0.440778
20
0.619721
11
0.446232
21
0.627716
0
LINE
8
BLACK
6
CONTINUOUS
10
0.446232
20
0.627716
11
0.452918
21
0.634712
0
LINE
8
BLACK
6
CONTINUOUS
10
0.452918
20
0.634712
11
0.460657
21
0.640523
0
LINE
8
BLACK
6
CONTINUOUS
10
0.460657
20
0.640523
11
0.469241
21
0.644992
0
LINE
8
BLACK
6
CONTINUOUS
10
0.469241
20
0.644992
11
0.47844
21
0.647999
0
LINE
8
BLACK
6
CONTINUOUS
10
0.47844
20
0.647999
11
0.488006
21
0.649462
0
LINE
8
BLACK
6
CONTINUOUS
10
0.488006
20
0.649462
11
0.497684
21
0.649344
  0
ENDSEC
  0
EOF
