  0
SECTION
  2
HEADER
  9
$ANGBASE
  50
0.0
  9
$ANGDIR
  70
1
  9
$MEASUREMENT
  70
0
  0
ENDSEC
  0
SECTION
  2
TABLES
  0
TABLE
  2
LTYPE
  70
4
  0
LTYPE
  5
40F
  2
CONTINUOUS
  70
0
  3
Solid line
  72
65
  73
0
  40
0.0
  0
LTYPE
  5
410
  2
DASHDOT
 70
0
  3
Dash Dot ____ _ ____ _
 72
65
 73
4
 40
2.0
 49
1.25
 49
-0.25
 49
0.25
 49
-0.25
  0
LTYPE
  5
411
  2
DASHED
 70
0
  3
Dashed __ __ __ __ __
 72
65
 73
2
 40
0.75
 49
0.5
 49
-0.25
  0
LTYPE
  5
43B
  2
DOTTED
 70
0
  3
Dotted .  .  .  .
 72
65
 73
2
 40
0.2
 49
0.0
 49
-0.2
  0
ENDTAB
  0
TABLE
  2
STYLE
  70
4
  0
STYLE
  2
KICAD
  70
0
  40
0
  41
1
  42
1
  50
0
  71
0
  3
isocp.shx
  0
STYLE
  2
KICADB
  70
0
  40
0
  41
1
  42
1
  50
0
  71
0
  3
isocp.shx
  0
STYLE
  2
KICADI
  70
0
  40
0
  41
1
  42
1
  50
15
  71
0
  3
isocp.shx
  0
STYLE
  2
KICADBI
  70
0
  40
0
  41
1
  42
1
  50
15
  71
0
  3
isocp.shx
  0
ENDTAB
  0
TABLE
  2
LAYER
  70
1
  0
LAYER
  2
BLACK
  70
0
  62
7
  6
CONTINUOUS
  0
ENDTAB
  0
ENDSEC
  0
SECTION
  2
ENTITIES
0
LINE
8
BLACK
6
CONTINUOUS
10
-4.79757
20
5.44968
11
-4.7975
21
5.44968
0
LINE
8
BLACK
6
CONTINUOUS
10
-4.7975
20
5.44968
11
-4.79188
21
5.4478
0
LINE
8
BLACK
6
CONTINUOUS
10
-4.79188
20
5.4478
11
-4.79098
21
5.44731
0
LINE
8
BLACK
6
CONTINUOUS
10
-4.79098
20
5.44731
11
-4.79089
21
5.44716
0
LINE
8
BLACK
6
CONTINUOUS
10
-4.79089
20
5.44716
11
-4.79073
21
5.44709
0
LINE
8
BLACK
6
CONTINUOUS
10
-4.79073
20
5.44709
11
-4.78698
21
5.44334
0
LINE
8
BLACK
6
CONTINUOUS
10
-4.78698
20
5.44334
11
-4.78639
21
5.4425
0
LINE
8
BLACK
6
CONTINUOUS
10
-4.78639
20
5.4425
11
-4.78637
21
5.44232
0
LINE
8
BLACK
6
CONTINUOUS
10
-4.78637
20
5.44232
11
-4.78626
21
5.44219
0
LINE
8
BLACK
6
CONTINUOUS
10
-4.78626
20
5.44219
11
-4.78439
21
5.43656
0
LINE
8
BLACK
6
CONTINUOUS
10
-4.78439
20
5.43656
11
-4.78426
21
5.43569
0
LINE
8
BLACK
6
CONTINUOUS
10
-4.78426
20
5.43569
11
-4.78424
21
5.43563
0
LINE
8
BLACK
6
CONTINUOUS
10
-4.78424
20
5.43563
11
-4.78424
21
5.43188
0
LINE
8
BLACK
6
CONTINUOUS
10
-4.78424
20
5.43188
11
-4.78442
21
5.43087
0
LINE
8
BLACK
6
CONTINUOUS
10
-4.78442
20
5.43087
11
-4.78571
21
5.42932
0
LINE
8
BLACK
6
CONTINUOUS
10
-4.78571
20
5.42932
11
-4.7877
21
5.42897
0
LINE
8
BLACK
6
CONTINUOUS
10
-4.7877
20
5.42897
11
-4.78945
21
5.42998
0
LINE
8
BLACK
6
CONTINUOUS
10
-4.78945
20
5.42998
11
-4.79014
21
5.43188
0
LINE
8
BLACK
6
CONTINUOUS
10
-4.79014
20
5.43188
11
-4.79014
21
5.43515
0
LINE
8
BLACK
6
CONTINUOUS
10
-4.79014
20
5.43515
11
-4.79165
21
5.43966
0
LINE
8
BLACK
6
CONTINUOUS
10
-4.79165
20
5.43966
11
-4.79441
21
5.44242
0
LINE
8
BLACK
6
CONTINUOUS
10
-4.79441
20
5.44242
11
-4.79892
21
5.44392
0
LINE
8
BLACK
6
CONTINUOUS
10
-4.79892
20
5.44392
11
-4.82656
21
5.44392
0
LINE
8
BLACK
6
CONTINUOUS
10
-4.82656
20
5.44392
11
-4.82757
21
5.4441
0
LINE
8
BLACK
6
CONTINUOUS
10
-4.82757
20
5.4441
11
-4.82912
21
5.4454
0
LINE
8
BLACK
6
CONTINUOUS
10
-4.82912
20
5.4454
11
-4.82947
21
5.44739
0
LINE
8
BLACK
6
CONTINUOUS
10
-4.82947
20
5.44739
11
-4.82846
21
5.44914
0
LINE
8
BLACK
6
CONTINUOUS
10
-4.82846
20
5.44914
11
-4.82656
21
5.44983
0
LINE
8
BLACK
6
CONTINUOUS
10
-4.82656
20
5.44983
11
-4.79844
21
5.44983
0
LINE
8
BLACK
6
CONTINUOUS
10
-4.79844
20
5.44983
11
-4.79757
21
5.44968
0
LINE
8
BLACK
6
CONTINUOUS
10
-3.93944
20
5.47376
11
-3.89244
21
5.47376
0
LINE
8
BLACK
6
CONTINUOUS
10
-3.89244
20
5.47376
11
-3.89244
21
5.46328
0
LINE
8
BLACK
6
CONTINUOUS
10
-3.89244
20
5.46328
11
-3.93944
21
5.46328
0
LINE
8
BLACK
6
CONTINUOUS
10
-3.93944
20
5.46328
11
-3.93944
21
5.44701
0
LINE
8
BLACK
6
CONTINUOUS
10
-3.93944
20
5.44701
11
-3.94992
21
5.44701
0
LINE
8
BLACK
6
CONTINUOUS
10
-3.94992
20
5.44701
11
-3.94992
21
5.49003
0
LINE
8
BLACK
6
CONTINUOUS
10
-3.94992
20
5.49003
11
-3.93944
21
5.49003
0
LINE
8
BLACK
6
CONTINUOUS
10
-3.93944
20
5.49003
11
-3.93944
21
5.47376
0
LINE
8
BLACK
6
CONTINUOUS
10
-4.81444
20
5.48905
11
-4.81438
21
5.48905
0
LINE
8
BLACK
6
CONTINUOUS
10
-4.81438
20
5.48905
11
-4.80875
21
5.48717
0
LINE
8
BLACK
6
CONTINUOUS
10
-4.80875
20
5.48717
11
-4.80785
21
5.48668
0
LINE
8
BLACK
6
CONTINUOUS
10
-4.80785
20
5.48668
11
-4.80776
21
5.48653
0
LINE
8
BLACK
6
CONTINUOUS
10
-4.80776
20
5.48653
11
-4.8076
21
5.48646
0
LINE
8
BLACK
6
CONTINUOUS
10
-4.8076
20
5.48646
11
-4.79014
21
5.469
0
LINE
8
BLACK
6
CONTINUOUS
10
-4.79014
20
5.469
11
-4.79014
21
5.48625
0
LINE
8
BLACK
6
CONTINUOUS
10
-4.79014
20
5.48625
11
-4.78996
21
5.48726
0
LINE
8
BLACK
6
CONTINUOUS
10
-4.78996
20
5.48726
11
-4.78867
21
5.4888
0
LINE
8
BLACK
6
CONTINUOUS
10
-4.78867
20
5.4888
11
-4.78668
21
5.48915
0
LINE
8
BLACK
6
CONTINUOUS
10
-4.78668
20
5.48915
11
-4.78493
21
5.48814
0
LINE
8
BLACK
6
CONTINUOUS
10
-4.78493
20
5.48814
11
-4.78424
21
5.48625
0
LINE
8
BLACK
6
CONTINUOUS
10
-4.78424
20
5.48625
11
-4.78424
21
5.46187
0
LINE
8
BLACK
6
CONTINUOUS
10
-4.78424
20
5.46187
11
-4.78435
21
5.46124
0
LINE
8
BLACK
6
CONTINUOUS
10
-4.78435
20
5.46124
11
-4.78434
21
5.46111
0
LINE
8
BLACK
6
CONTINUOUS
10
-4.78434
20
5.46111
11
-4.78438
21
5.46105
0
LINE
8
BLACK
6
CONTINUOUS
10
-4.78438
20
5.46105
11
-4.78442
21
5.46086
0
LINE
8
BLACK
6
CONTINUOUS
10
-4.78442
20
5.46086
11
-4.78499
21
5.46018
0
LINE
8
BLACK
6
CONTINUOUS
10
-4.78499
20
5.46018
11
-4.7855
21
5.45946
0
LINE
8
BLACK
6
CONTINUOUS
10
-4.7855
20
5.45946
11
-4.78563
21
5.45942
0
LINE
8
BLACK
6
CONTINUOUS
10
-4.78563
20
5.45942
11
-4.78571
21
5.45932
0
LINE
8
BLACK
6
CONTINUOUS
10
-4.78571
20
5.45932
11
-4.78659
21
5.45916
0
LINE
8
BLACK
6
CONTINUOUS
10
-4.78659
20
5.45916
11
-4.78745
21
5.45893
0
LINE
8
BLACK
6
CONTINUOUS
10
-4.78745
20
5.45893
11
-4.78757
21
5.45899
0
LINE
8
BLACK
6
CONTINUOUS
10
-4.78757
20
5.45899
11
-4.7877
21
5.45897
0
LINE
8
BLACK
6
CONTINUOUS
10
-4.7877
20
5.45897
11
-4.78847
21
5.45941
0
LINE
8
BLACK
6
CONTINUOUS
10
-4.78847
20
5.45941
11
-4.78928
21
5.45979
0
LINE
8
BLACK
6
CONTINUOUS
10
-4.78928
20
5.45979
11
-4.81128
21
5.48179
0
LINE
8
BLACK
6
CONTINUOUS
10
-4.81128
20
5.48179
11
-4.81579
21
5.48329
0
LINE
8
BLACK
6
CONTINUOUS
10
-4.81579
20
5.48329
11
-4.81836
21
5.48329
0
LINE
8
BLACK
6
CONTINUOUS
10
-4.81836
20
5.48329
11
-4.82106
21
5.48195
0
LINE
8
BLACK
6
CONTINUOUS
10
-4.82106
20
5.48195
11
-4.82226
21
5.48075
0
LINE
8
BLACK
6
CONTINUOUS
10
-4.82226
20
5.48075
11
-4.82361
21
5.47805
0
LINE
8
BLACK
6
CONTINUOUS
10
-4.82361
20
5.47805
11
-4.82361
21
5.47007
0
LINE
8
BLACK
6
CONTINUOUS
10
-4.82361
20
5.47007
11
-4.82226
21
5.46737
0
LINE
8
BLACK
6
CONTINUOUS
10
-4.82226
20
5.46737
11
-4.82072
21
5.46584
0
LINE
8
BLACK
6
CONTINUOUS
10
-4.82072
20
5.46584
11
-4.82013
21
5.465
0
LINE
8
BLACK
6
CONTINUOUS
10
-4.82013
20
5.465
11
-4.81996
21
5.46299
0
LINE
8
BLACK
6
CONTINUOUS
10
-4.81996
20
5.46299
11
-4.82112
21
5.46133
0
LINE
8
BLACK
6
CONTINUOUS
10
-4.82112
20
5.46133
11
-4.82307
21
5.46081
0
LINE
8
BLACK
6
CONTINUOUS
10
-4.82307
20
5.46081
11
-4.8249
21
5.46166
0
LINE
8
BLACK
6
CONTINUOUS
10
-4.8249
20
5.46166
11
-4.82677
21
5.46354
0
LINE
8
BLACK
6
CONTINUOUS
10
-4.82677
20
5.46354
11
-4.82728
21
5.46426
0
LINE
8
BLACK
6
CONTINUOUS
10
-4.82728
20
5.46426
11
-4.82733
21
5.4643
0
LINE
8
BLACK
6
CONTINUOUS
10
-4.82733
20
5.4643
11
-4.8292
21
5.46805
0
LINE
8
BLACK
6
CONTINUOUS
10
-4.8292
20
5.46805
11
-4.82949
21
5.46904
0
LINE
8
BLACK
6
CONTINUOUS
10
-4.82949
20
5.46904
11
-4.82945
21
5.46921
0
LINE
8
BLACK
6
CONTINUOUS
10
-4.82945
20
5.46921
11
-4.82951
21
5.46937
0
LINE
8
BLACK
6
CONTINUOUS
10
-4.82951
20
5.46937
11
-4.82951
21
5.47875
0
LINE
8
BLACK
6
CONTINUOUS
10
-4.82951
20
5.47875
11
-4.82933
21
5.47976
0
LINE
8
BLACK
6
CONTINUOUS
10
-4.82933
20
5.47976
11
-4.82922
21
5.47989
0
LINE
8
BLACK
6
CONTINUOUS
10
-4.82922
20
5.47989
11
-4.8292
21
5.48007
0
LINE
8
BLACK
6
CONTINUOUS
10
-4.8292
20
5.48007
11
-4.82733
21
5.48382
0
LINE
8
BLACK
6
CONTINUOUS
10
-4.82733
20
5.48382
11
-4.8268
21
5.48453
0
LINE
8
BLACK
6
CONTINUOUS
10
-4.8268
20
5.48453
11
-4.82677
21
5.48459
0
LINE
8
BLACK
6
CONTINUOUS
10
-4.82677
20
5.48459
11
-4.8249
21
5.48646
0
LINE
8
BLACK
6
CONTINUOUS
10
-4.8249
20
5.48646
11
-4.82418
21
5.48697
0
LINE
8
BLACK
6
CONTINUOUS
10
-4.82418
20
5.48697
11
-4.82413
21
5.48701
0
LINE
8
BLACK
6
CONTINUOUS
10
-4.82413
20
5.48701
11
-4.82038
21
5.48889
0
LINE
8
BLACK
6
CONTINUOUS
10
-4.82038
20
5.48889
11
-4.8194
21
5.48918
0
LINE
8
BLACK
6
CONTINUOUS
10
-4.8194
20
5.48918
11
-4.81923
21
5.48914
0
LINE
8
BLACK
6
CONTINUOUS
10
-4.81923
20
5.48914
11
-4.81906
21
5.4892
0
LINE
8
BLACK
6
CONTINUOUS
10
-4.81906
20
5.4892
11
-4.81531
21
5.4892
0
LINE
8
BLACK
6
CONTINUOUS
10
-4.81531
20
5.4892
11
-4.81444
21
5.48905
0
LINE
8
BLACK
6
CONTINUOUS
10
-4.31939
20
5.53858
11
-4.31723
21
5.53642
0
LINE
8
BLACK
6
CONTINUOUS
10
-4.31723
20
5.53642
11
-4.31643
21
5.53346
0
LINE
8
BLACK
6
CONTINUOUS
10
-4.31643
20
5.53346
11
-4.31643
21
5.5225
0
LINE
8
BLACK
6
CONTINUOUS
10
-4.31643
20
5.5225
11
-4.26328
21
5.5225
0
LINE
8
BLACK
6
CONTINUOUS
10
-4.26328
20
5.5225
11
-4.26033
21
5.52171
0
LINE
8
BLACK
6
CONTINUOUS
10
-4.26033
20
5.52171
11
-4.25817
21
5.51954
0
LINE
8
BLACK
6
CONTINUOUS
10
-4.25817
20
5.51954
11
-4.25738
21
5.51659
0
LINE
8
BLACK
6
CONTINUOUS
10
-4.25738
20
5.51659
11
-4.25817
21
5.51364
0
LINE
8
BLACK
6
CONTINUOUS
10
-4.25817
20
5.51364
11
-4.26033
21
5.51148
0
LINE
8
BLACK
6
CONTINUOUS
10
-4.26033
20
5.51148
11
-4.26328
21
5.51069
0
LINE
8
BLACK
6
CONTINUOUS
10
-4.26328
20
5.51069
11
-4.31643
21
5.51069
0
LINE
8
BLACK
6
CONTINUOUS
10
-4.31643
20
5.51069
11
-4.31643
21
5.49972
0
LINE
8
BLACK
6
CONTINUOUS
10
-4.31643
20
5.49972
11
-4.31723
21
5.49677
0
LINE
8
BLACK
6
CONTINUOUS
10
-4.31723
20
5.49677
11
-4.31939
21
5.4946
0
LINE
8
BLACK
6
CONTINUOUS
10
-4.31939
20
5.4946
11
-4.32234
21
5.49381
0
LINE
8
BLACK
6
CONTINUOUS
10
-4.32234
20
5.49381
11
-4.32529
21
5.4946
0
LINE
8
BLACK
6
CONTINUOUS
10
-4.32529
20
5.4946
11
-4.32745
21
5.49677
0
LINE
8
BLACK
6
CONTINUOUS
10
-4.32745
20
5.49677
11
-4.32825
21
5.49972
0
LINE
8
BLACK
6
CONTINUOUS
10
-4.32825
20
5.49972
11
-4.32825
21
5.53346
0
LINE
8
BLACK
6
CONTINUOUS
10
-4.32825
20
5.53346
11
-4.32745
21
5.53642
0
LINE
8
BLACK
6
CONTINUOUS
10
-4.32745
20
5.53642
11
-4.32529
21
5.53858
0
LINE
8
BLACK
6
CONTINUOUS
10
-4.32529
20
5.53858
11
-4.32234
21
5.53937
0
LINE
8
BLACK
6
CONTINUOUS
10
-4.32234
20
5.53937
11
-4.31939
21
5.53858
0
LINE
8
BLACK
6
CONTINUOUS
10
-3.89244
20
5.53233
11
-3.91702
21
5.53233
0
LINE
8
BLACK
6
CONTINUOUS
10
-3.91702
20
5.53233
11
-3.91702
21
5.5063
0
LINE
8
BLACK
6
CONTINUOUS
10
-3.91702
20
5.5063
11
-3.89244
21
5.5063
0
LINE
8
BLACK
6
CONTINUOUS
10
-3.89244
20
5.5063
11
-3.89244
21
5.49582
0
LINE
8
BLACK
6
CONTINUOUS
10
-3.89244
20
5.49582
11
-3.94992
21
5.49582
0
LINE
8
BLACK
6
CONTINUOUS
10
-3.94992
20
5.49582
11
-3.94992
21
5.5063
0
LINE
8
BLACK
6
CONTINUOUS
10
-3.94992
20
5.5063
11
-3.92715
21
5.5063
0
LINE
8
BLACK
6
CONTINUOUS
10
-3.92715
20
5.5063
11
-3.92715
21
5.53232
0
LINE
8
BLACK
6
CONTINUOUS
10
-3.92715
20
5.53232
11
-3.93844
21
5.53242
0
LINE
8
BLACK
6
CONTINUOUS
10
-3.93844
20
5.53242
11
-3.94974
21
5.53251
0
LINE
8
BLACK
6
CONTINUOUS
10
-3.94974
20
5.53251
11
-3.94984
21
5.53785
0
LINE
8
BLACK
6
CONTINUOUS
10
-3.94984
20
5.53785
11
-3.94994
21
5.54318
0
LINE
8
BLACK
6
CONTINUOUS
10
-3.94994
20
5.54318
11
-3.89244
21
5.54318
0
LINE
8
BLACK
6
CONTINUOUS
10
-3.89244
20
5.54318
11
-3.89244
21
5.53233
0
LINE
8
BLACK
6
CONTINUOUS
10
-4.8712
20
5.51687
11
-4.87189
21
5.51854
0
LINE
8
BLACK
6
CONTINUOUS
10
-4.87189
20
5.51854
11
-4.8712
21
5.52021
0
LINE
8
BLACK
6
CONTINUOUS
10
-4.8712
20
5.52021
11
-4.86953
21
5.52091
0
LINE
8
BLACK
6
CONTINUOUS
10
-4.86953
20
5.52091
11
-4.8148
21
5.52091
0
LINE
8
BLACK
6
CONTINUOUS
10
-4.8148
20
5.52091
11
-4.8148
21
5.58941
0
LINE
8
BLACK
6
CONTINUOUS
10
-4.8148
20
5.58941
11
-4.81411
21
5.59108
0
LINE
8
BLACK
6
CONTINUOUS
10
-4.81411
20
5.59108
11
-4.81244
21
5.59177
0
LINE
8
BLACK
6
CONTINUOUS
10
-4.81244
20
5.59177
11
-4.81077
21
5.59108
0
LINE
8
BLACK
6
CONTINUOUS
10
-4.81077
20
5.59108
11
-4.81008
21
5.58941
0
LINE
8
BLACK
6
CONTINUOUS
10
-4.81008
20
5.58941
11
-4.81008
21
5.51854
0
LINE
8
BLACK
6
CONTINUOUS
10
-4.81008
20
5.51854
11
-4.81077
21
5.51687
0
LINE
8
BLACK
6
CONTINUOUS
10
-4.81077
20
5.51687
11
-4.81244
21
5.51618
0
LINE
8
BLACK
6
CONTINUOUS
10
-4.81244
20
5.51618
11
-4.86953
21
5.51618
0
LINE
8
BLACK
6
CONTINUOUS
10
-4.86953
20
5.51618
11
-4.8712
21
5.51687
0
LINE
8
BLACK
6
CONTINUOUS
10
-4.60853
20
5.61045
11
-4.60637
21
5.60829
0
LINE
8
BLACK
6
CONTINUOUS
10
-4.60637
20
5.60829
11
-4.60558
21
5.60534
0
LINE
8
BLACK
6
CONTINUOUS
10
-4.60558
20
5.60534
11
-4.60637
21
5.60239
0
LINE
8
BLACK
6
CONTINUOUS
10
-4.60637
20
5.60239
11
-4.60853
21
5.60023
0
LINE
8
BLACK
6
CONTINUOUS
10
-4.60853
20
5.60023
11
-4.61149
21
5.59943
0
LINE
8
BLACK
6
CONTINUOUS
10
-4.61149
20
5.59943
11
-4.6337
21
5.59943
0
LINE
8
BLACK
6
CONTINUOUS
10
-4.6337
20
5.59943
11
-4.6337
21
5.58312
0
LINE
8
BLACK
6
CONTINUOUS
10
-4.6337
20
5.58312
11
-4.61992
21
5.58312
0
LINE
8
BLACK
6
CONTINUOUS
10
-4.61992
20
5.58312
11
-4.61697
21
5.58233
0
LINE
8
BLACK
6
CONTINUOUS
10
-4.61697
20
5.58233
11
-4.61481
21
5.58017
0
LINE
8
BLACK
6
CONTINUOUS
10
-4.61481
20
5.58017
11
-4.61402
21
5.57722
0
LINE
8
BLACK
6
CONTINUOUS
10
-4.61402
20
5.57722
11
-4.61481
21
5.57427
0
LINE
8
BLACK
6
CONTINUOUS
10
-4.61481
20
5.57427
11
-4.61697
21
5.5721
0
LINE
8
BLACK
6
CONTINUOUS
10
-4.61697
20
5.5721
11
-4.61992
21
5.57131
0
LINE
8
BLACK
6
CONTINUOUS
10
-4.61992
20
5.57131
11
-4.6337
21
5.57131
0
LINE
8
BLACK
6
CONTINUOUS
10
-4.6337
20
5.57131
11
-4.6337
21
5.55219
0
LINE
8
BLACK
6
CONTINUOUS
10
-4.6337
20
5.55219
11
-4.61149
21
5.55219
0
LINE
8
BLACK
6
CONTINUOUS
10
-4.61149
20
5.55219
11
-4.60853
21
5.5514
0
LINE
8
BLACK
6
CONTINUOUS
10
-4.60853
20
5.5514
11
-4.60637
21
5.54924
0
LINE
8
BLACK
6
CONTINUOUS
10
-4.60637
20
5.54924
11
-4.60558
21
5.54628
0
LINE
8
BLACK
6
CONTINUOUS
10
-4.60558
20
5.54628
11
-4.60637
21
5.54333
0
LINE
8
BLACK
6
CONTINUOUS
10
-4.60637
20
5.54333
11
-4.60853
21
5.54117
0
LINE
8
BLACK
6
CONTINUOUS
10
-4.60853
20
5.54117
11
-4.61149
21
5.54038
0
LINE
8
BLACK
6
CONTINUOUS
10
-4.61149
20
5.54038
11
-4.63961
21
5.54038
0
LINE
8
BLACK
6
CONTINUOUS
10
-4.63961
20
5.54038
11
-4.64256
21
5.54117
0
LINE
8
BLACK
6
CONTINUOUS
10
-4.64256
20
5.54117
11
-4.64472
21
5.54333
0
LINE
8
BLACK
6
CONTINUOUS
10
-4.64472
20
5.54333
11
-4.64551
21
5.54628
0
LINE
8
BLACK
6
CONTINUOUS
10
-4.64551
20
5.54628
11
-4.64551
21
5.60534
0
LINE
8
BLACK
6
CONTINUOUS
10
-4.64551
20
5.60534
11
-4.64472
21
5.60829
0
LINE
8
BLACK
6
CONTINUOUS
10
-4.64472
20
5.60829
11
-4.64256
21
5.61045
0
LINE
8
BLACK
6
CONTINUOUS
10
-4.64256
20
5.61045
11
-4.63961
21
5.61125
0
LINE
8
BLACK
6
CONTINUOUS
10
-4.63961
20
5.61125
11
-4.61149
21
5.61125
0
LINE
8
BLACK
6
CONTINUOUS
10
-4.61149
20
5.61125
11
-4.60853
21
5.61045
0
LINE
8
BLACK
6
CONTINUOUS
10
-4.56237
20
5.61089
11
-4.56104
21
5.61062
0
LINE
8
BLACK
6
CONTINUOUS
10
-4.56104
20
5.61062
11
-4.55542
21
5.60781
0
LINE
8
BLACK
6
CONTINUOUS
10
-4.55542
20
5.60781
11
-4.5547
21
5.60718
0
LINE
8
BLACK
6
CONTINUOUS
10
-4.5547
20
5.60718
11
-4.55388
21
5.6067
0
LINE
8
BLACK
6
CONTINUOUS
10
-4.55388
20
5.6067
11
-4.55107
21
5.60389
0
LINE
8
BLACK
6
CONTINUOUS
10
-4.55107
20
5.60389
11
-4.55059
21
5.60307
0
LINE
8
BLACK
6
CONTINUOUS
10
-4.55059
20
5.60307
11
-4.54996
21
5.60236
0
LINE
8
BLACK
6
CONTINUOUS
10
-4.54996
20
5.60236
11
-4.54715
21
5.59673
0
LINE
8
BLACK
6
CONTINUOUS
10
-4.54715
20
5.59673
11
-4.54688
21
5.5954
0
LINE
8
BLACK
6
CONTINUOUS
10
-4.54688
20
5.5954
11
-4.54653
21
5.59409
0
LINE
8
BLACK
6
CONTINUOUS
10
-4.54653
20
5.59409
11
-4.54653
21
5.58565
0
LINE
8
BLACK
6
CONTINUOUS
10
-4.54653
20
5.58565
11
-4.54688
21
5.58434
0
LINE
8
BLACK
6
CONTINUOUS
10
-4.54688
20
5.58434
11
-4.54715
21
5.58301
0
LINE
8
BLACK
6
CONTINUOUS
10
-4.54715
20
5.58301
11
-4.54996
21
5.57739
0
LINE
8
BLACK
6
CONTINUOUS
10
-4.54996
20
5.57739
11
-4.55059
21
5.57668
0
LINE
8
BLACK
6
CONTINUOUS
10
-4.55059
20
5.57668
11
-4.55107
21
5.57585
0
LINE
8
BLACK
6
CONTINUOUS
10
-4.55107
20
5.57585
11
-4.55388
21
5.57304
0
LINE
8
BLACK
6
CONTINUOUS
10
-4.55388
20
5.57304
11
-4.5547
21
5.57257
0
LINE
8
BLACK
6
CONTINUOUS
10
-4.5547
20
5.57257
11
-4.55542
21
5.57194
0
LINE
8
BLACK
6
CONTINUOUS
10
-4.55542
20
5.57194
11
-4.56104
21
5.56912
0
LINE
8
BLACK
6
CONTINUOUS
10
-4.56104
20
5.56912
11
-4.56119
21
5.56909
0
LINE
8
BLACK
6
CONTINUOUS
10
-4.56119
20
5.56909
11
-4.54759
21
5.54967
0
LINE
8
BLACK
6
CONTINUOUS
10
-4.54759
20
5.54967
11
-4.54655
21
5.5468
0
LINE
8
BLACK
6
CONTINUOUS
10
-4.54655
20
5.5468
11
-4.54708
21
5.54379
0
LINE
8
BLACK
6
CONTINUOUS
10
-4.54708
20
5.54379
11
-4.54905
21
5.54145
0
LINE
8
BLACK
6
CONTINUOUS
10
-4.54905
20
5.54145
11
-4.55192
21
5.5404
0
LINE
8
BLACK
6
CONTINUOUS
10
-4.55192
20
5.5404
11
-4.55493
21
5.54093
0
LINE
8
BLACK
6
CONTINUOUS
10
-4.55493
20
5.54093
11
-4.55727
21
5.5429
0
LINE
8
BLACK
6
CONTINUOUS
10
-4.55727
20
5.5429
11
-4.57519
21
5.5685
0
LINE
8
BLACK
6
CONTINUOUS
10
-4.57519
20
5.5685
11
-4.58027
21
5.5685
0
LINE
8
BLACK
6
CONTINUOUS
10
-4.58027
20
5.5685
11
-4.58027
21
5.54628
0
LINE
8
BLACK
6
CONTINUOUS
10
-4.58027
20
5.54628
11
-4.58106
21
5.54333
0
LINE
8
BLACK
6
CONTINUOUS
10
-4.58106
20
5.54333
11
-4.58322
21
5.54117
0
LINE
8
BLACK
6
CONTINUOUS
10
-4.58322
20
5.54117
11
-4.58618
21
5.54038
0
LINE
8
BLACK
6
CONTINUOUS
10
-4.58618
20
5.54038
11
-4.58913
21
5.54117
0
LINE
8
BLACK
6
CONTINUOUS
10
-4.58913
20
5.54117
11
-4.59129
21
5.54333
0
LINE
8
BLACK
6
CONTINUOUS
10
-4.59129
20
5.54333
11
-4.59208
21
5.54628
0
LINE
8
BLACK
6
CONTINUOUS
10
-4.59208
20
5.54628
11
-4.59208
21
5.60534
0
LINE
8
BLACK
6
CONTINUOUS
10
-4.59208
20
5.60534
11
-4.59129
21
5.60829
0
LINE
8
BLACK
6
CONTINUOUS
10
-4.59129
20
5.60829
11
-4.58913
21
5.61045
0
LINE
8
BLACK
6
CONTINUOUS
10
-4.58913
20
5.61045
11
-4.58618
21
5.61125
0
LINE
8
BLACK
6
CONTINUOUS
10
-4.58618
20
5.61125
11
-4.56368
21
5.61125
0
LINE
8
BLACK
6
CONTINUOUS
10
-4.56368
20
5.61125
11
-4.56237
21
5.61089
0
LINE
8
BLACK
6
CONTINUOUS
10
-4.58027
20
5.59943
11
-4.58027
21
5.58031
0
LINE
8
BLACK
6
CONTINUOUS
10
-4.58027
20
5.58031
11
-4.56507
21
5.58031
0
LINE
8
BLACK
6
CONTINUOUS
10
-4.56507
20
5.58031
11
-4.56155
21
5.58207
0
LINE
8
BLACK
6
CONTINUOUS
10
-4.56155
20
5.58207
11
-4.5601
21
5.58353
0
LINE
8
BLACK
6
CONTINUOUS
10
-4.5601
20
5.58353
11
-4.55834
21
5.58705
0
LINE
8
BLACK
6
CONTINUOUS
10
-4.55834
20
5.58705
11
-4.55834
21
5.5927
0
LINE
8
BLACK
6
CONTINUOUS
10
-4.55834
20
5.5927
11
-4.5601
21
5.59622
0
LINE
8
BLACK
6
CONTINUOUS
10
-4.5601
20
5.59622
11
-4.56155
21
5.59767
0
LINE
8
BLACK
6
CONTINUOUS
10
-4.56155
20
5.59767
11
-4.56507
21
5.59943
0
LINE
8
BLACK
6
CONTINUOUS
10
-4.56507
20
5.59943
11
-4.58027
21
5.59943
0
LINE
8
BLACK
6
CONTINUOUS
10
-4.68446
20
5.61045
11
-4.6823
21
5.60829
0
LINE
8
BLACK
6
CONTINUOUS
10
-4.6823
20
5.60829
11
-4.68151
21
5.60534
0
LINE
8
BLACK
6
CONTINUOUS
10
-4.68151
20
5.60534
11
-4.68151
21
5.55219
0
LINE
8
BLACK
6
CONTINUOUS
10
-4.68151
20
5.55219
11
-4.65929
21
5.55219
0
LINE
8
BLACK
6
CONTINUOUS
10
-4.65929
20
5.55219
11
-4.65634
21
5.5514
0
LINE
8
BLACK
6
CONTINUOUS
10
-4.65634
20
5.5514
11
-4.65418
21
5.54924
0
LINE
8
BLACK
6
CONTINUOUS
10
-4.65418
20
5.54924
11
-4.65339
21
5.54628
0
LINE
8
BLACK
6
CONTINUOUS
10
-4.65339
20
5.54628
11
-4.65418
21
5.54333
0
LINE
8
BLACK
6
CONTINUOUS
10
-4.65418
20
5.54333
11
-4.65634
21
5.54117
0
LINE
8
BLACK
6
CONTINUOUS
10
-4.65634
20
5.54117
11
-4.65929
21
5.54038
0
LINE
8
BLACK
6
CONTINUOUS
10
-4.65929
20
5.54038
11
-4.68742
21
5.54038
0
LINE
8
BLACK
6
CONTINUOUS
10
-4.68742
20
5.54038
11
-4.69037
21
5.54117
0
LINE
8
BLACK
6
CONTINUOUS
10
-4.69037
20
5.54117
11
-4.69253
21
5.54333
0
LINE
8
BLACK
6
CONTINUOUS
10
-4.69253
20
5.54333
11
-4.69332
21
5.54628
0
LINE
8
BLACK
6
CONTINUOUS
10
-4.69332
20
5.54628
11
-4.69332
21
5.60534
0
LINE
8
BLACK
6
CONTINUOUS
10
-4.69332
20
5.60534
11
-4.69253
21
5.60829
0
LINE
8
BLACK
6
CONTINUOUS
10
-4.69253
20
5.60829
11
-4.69037
21
5.61045
0
LINE
8
BLACK
6
CONTINUOUS
10
-4.69037
20
5.61045
11
-4.68742
21
5.61125
0
LINE
8
BLACK
6
CONTINUOUS
10
-4.68742
20
5.61125
11
-4.68446
21
5.61045
0
LINE
8
BLACK
6
CONTINUOUS
10
-4.49886
20
5.61045
11
-4.4967
21
5.60829
0
LINE
8
BLACK
6
CONTINUOUS
10
-4.4967
20
5.60829
11
-4.49591
21
5.60534
0
LINE
8
BLACK
6
CONTINUOUS
10
-4.49591
20
5.60534
11
-4.4967
21
5.60239
0
LINE
8
BLACK
6
CONTINUOUS
10
-4.4967
20
5.60239
11
-4.49886
21
5.60023
0
LINE
8
BLACK
6
CONTINUOUS
10
-4.49886
20
5.60023
11
-4.50181
21
5.59943
0
LINE
8
BLACK
6
CONTINUOUS
10
-4.50181
20
5.59943
11
-4.51278
21
5.59943
0
LINE
8
BLACK
6
CONTINUOUS
10
-4.51278
20
5.59943
11
-4.51278
21
5.54628
0
LINE
8
BLACK
6
CONTINUOUS
10
-4.51278
20
5.54628
11
-4.51357
21
5.54333
0
LINE
8
BLACK
6
CONTINUOUS
10
-4.51357
20
5.54333
11
-4.51573
21
5.54117
0
LINE
8
BLACK
6
CONTINUOUS
10
-4.51573
20
5.54117
11
-4.51869
21
5.54038
0
LINE
8
BLACK
6
CONTINUOUS
10
-4.51869
20
5.54038
11
-4.52164
21
5.54117
0
LINE
8
BLACK
6
CONTINUOUS
10
-4.52164
20
5.54117
11
-4.5238
21
5.54333
0
LINE
8
BLACK
6
CONTINUOUS
10
-4.5238
20
5.54333
11
-4.52459
21
5.54628
0
LINE
8
BLACK
6
CONTINUOUS
10
-4.52459
20
5.54628
11
-4.52459
21
5.59943
0
LINE
8
BLACK
6
CONTINUOUS
10
-4.52459
20
5.59943
11
-4.53556
21
5.59943
0
LINE
8
BLACK
6
CONTINUOUS
10
-4.53556
20
5.59943
11
-4.53851
21
5.60023
0
LINE
8
BLACK
6
CONTINUOUS
10
-4.53851
20
5.60023
11
-4.54067
21
5.60239
0
LINE
8
BLACK
6
CONTINUOUS
10
-4.54067
20
5.60239
11
-4.54146
21
5.60534
0
LINE
8
BLACK
6
CONTINUOUS
10
-4.54146
20
5.60534
11
-4.54067
21
5.60829
0
LINE
8
BLACK
6
CONTINUOUS
10
-4.54067
20
5.60829
11
-4.53851
21
5.61045
0
LINE
8
BLACK
6
CONTINUOUS
10
-4.53851
20
5.61045
11
-4.53556
21
5.61125
0
LINE
8
BLACK
6
CONTINUOUS
10
-4.53556
20
5.61125
11
-4.50181
21
5.61125
0
LINE
8
BLACK
6
CONTINUOUS
10
-4.50181
20
5.61125
11
-4.49886
21
5.61045
0
LINE
8
BLACK
6
CONTINUOUS
10
-4.72528
20
5.61096
11
-4.72492
21
5.61094
0
LINE
8
BLACK
6
CONTINUOUS
10
-4.72492
20
5.61094
11
-4.72393
21
5.61029
0
LINE
8
BLACK
6
CONTINUOUS
10
-4.72393
20
5.61029
11
-4.72287
21
5.60976
0
LINE
8
BLACK
6
CONTINUOUS
10
-4.72287
20
5.60976
11
-4.72267
21
5.60946
0
LINE
8
BLACK
6
CONTINUOUS
10
-4.72267
20
5.60946
11
-4.72237
21
5.60926
0
LINE
8
BLACK
6
CONTINUOUS
10
-4.72237
20
5.60926
11
-4.72184
21
5.6082
0
LINE
8
BLACK
6
CONTINUOUS
10
-4.72184
20
5.6082
11
-4.72118
21
5.60721
0
LINE
8
BLACK
6
CONTINUOUS
10
-4.72118
20
5.60721
11
-4.7015
21
5.54815
0
LINE
8
BLACK
6
CONTINUOUS
10
-4.7015
20
5.54815
11
-4.70131
21
5.5451
0
LINE
8
BLACK
6
CONTINUOUS
10
-4.70131
20
5.5451
11
-4.70268
21
5.54237
0
LINE
8
BLACK
6
CONTINUOUS
10
-4.70268
20
5.54237
11
-4.70523
21
5.54068
0
LINE
8
BLACK
6
CONTINUOUS
10
-4.70523
20
5.54068
11
-4.70828
21
5.5405
0
LINE
8
BLACK
6
CONTINUOUS
10
-4.70828
20
5.5405
11
-4.71102
21
5.54187
0
LINE
8
BLACK
6
CONTINUOUS
10
-4.71102
20
5.54187
11
-4.7127
21
5.54442
0
LINE
8
BLACK
6
CONTINUOUS
10
-4.7127
20
5.54442
11
-4.71698
21
5.55725
0
LINE
8
BLACK
6
CONTINUOUS
10
-4.71698
20
5.55725
11
-4.73659
21
5.55725
0
LINE
8
BLACK
6
CONTINUOUS
10
-4.73659
20
5.55725
11
-4.74087
21
5.54442
0
LINE
8
BLACK
6
CONTINUOUS
10
-4.74087
20
5.54442
11
-4.74255
21
5.54187
0
LINE
8
BLACK
6
CONTINUOUS
10
-4.74255
20
5.54187
11
-4.74529
21
5.5405
0
LINE
8
BLACK
6
CONTINUOUS
10
-4.74529
20
5.5405
11
-4.74834
21
5.54068
0
LINE
8
BLACK
6
CONTINUOUS
10
-4.74834
20
5.54068
11
-4.75089
21
5.54237
0
LINE
8
BLACK
6
CONTINUOUS
10
-4.75089
20
5.54237
11
-4.75226
21
5.5451
0
LINE
8
BLACK
6
CONTINUOUS
10
-4.75226
20
5.5451
11
-4.75207
21
5.54815
0
LINE
8
BLACK
6
CONTINUOUS
10
-4.75207
20
5.54815
11
-4.73239
21
5.60721
0
LINE
8
BLACK
6
CONTINUOUS
10
-4.73239
20
5.60721
11
-4.73173
21
5.6082
0
LINE
8
BLACK
6
CONTINUOUS
10
-4.73173
20
5.6082
11
-4.7312
21
5.60926
0
LINE
8
BLACK
6
CONTINUOUS
10
-4.7312
20
5.60926
11
-4.7309
21
5.60946
0
LINE
8
BLACK
6
CONTINUOUS
10
-4.7309
20
5.60946
11
-4.7307
21
5.60976
0
LINE
8
BLACK
6
CONTINUOUS
10
-4.7307
20
5.60976
11
-4.72964
21
5.61029
0
LINE
8
BLACK
6
CONTINUOUS
10
-4.72964
20
5.61029
11
-4.72865
21
5.61094
0
LINE
8
BLACK
6
CONTINUOUS
10
-4.72865
20
5.61094
11
-4.72829
21
5.61096
0
LINE
8
BLACK
6
CONTINUOUS
10
-4.72829
20
5.61096
11
-4.72797
21
5.61113
0
LINE
8
BLACK
6
CONTINUOUS
10
-4.72797
20
5.61113
11
-4.72679
21
5.61105
0
LINE
8
BLACK
6
CONTINUOUS
10
-4.72679
20
5.61105
11
-4.7256
21
5.61113
0
LINE
8
BLACK
6
CONTINUOUS
10
-4.7256
20
5.61113
11
-4.72528
21
5.61096
0
LINE
8
BLACK
6
CONTINUOUS
10
-4.73265
20
5.56906
11
-4.72092
21
5.56906
0
LINE
8
BLACK
6
CONTINUOUS
10
-4.72092
20
5.56906
11
-4.72679
21
5.58666
0
LINE
8
BLACK
6
CONTINUOUS
10
-4.72679
20
5.58666
11
-4.73265
21
5.56906
0
LINE
8
BLACK
6
CONTINUOUS
10
-4.32529
20
5.54804
11
-4.32745
21
5.5502
0
LINE
8
BLACK
6
CONTINUOUS
10
-4.32745
20
5.5502
11
-4.32825
21
5.55315
0
LINE
8
BLACK
6
CONTINUOUS
10
-4.32825
20
5.55315
11
-4.32825
21
5.58127
0
LINE
8
BLACK
6
CONTINUOUS
10
-4.32825
20
5.58127
11
-4.32745
21
5.58422
0
LINE
8
BLACK
6
CONTINUOUS
10
-4.32745
20
5.58422
11
-4.32529
21
5.58639
0
LINE
8
BLACK
6
CONTINUOUS
10
-4.32529
20
5.58639
11
-4.32234
21
5.58718
0
LINE
8
BLACK
6
CONTINUOUS
10
-4.32234
20
5.58718
11
-4.31939
21
5.58639
0
LINE
8
BLACK
6
CONTINUOUS
10
-4.31939
20
5.58639
11
-4.31723
21
5.58422
0
LINE
8
BLACK
6
CONTINUOUS
10
-4.31723
20
5.58422
11
-4.31643
21
5.58127
0
LINE
8
BLACK
6
CONTINUOUS
10
-4.31643
20
5.58127
11
-4.31643
21
5.55906
0
LINE
8
BLACK
6
CONTINUOUS
10
-4.31643
20
5.55906
11
-4.30012
21
5.55906
0
LINE
8
BLACK
6
CONTINUOUS
10
-4.30012
20
5.55906
11
-4.30012
21
5.57283
0
LINE
8
BLACK
6
CONTINUOUS
10
-4.30012
20
5.57283
11
-4.29933
21
5.57579
0
LINE
8
BLACK
6
CONTINUOUS
10
-4.29933
20
5.57579
11
-4.29717
21
5.57795
0
LINE
8
BLACK
6
CONTINUOUS
10
-4.29717
20
5.57795
11
-4.29422
21
5.57874
0
LINE
8
BLACK
6
CONTINUOUS
10
-4.29422
20
5.57874
11
-4.29127
21
5.57795
0
LINE
8
BLACK
6
CONTINUOUS
10
-4.29127
20
5.57795
11
-4.2891
21
5.57579
0
LINE
8
BLACK
6
CONTINUOUS
10
-4.2891
20
5.57579
11
-4.28831
21
5.57283
0
LINE
8
BLACK
6
CONTINUOUS
10
-4.28831
20
5.57283
11
-4.28831
21
5.55906
0
LINE
8
BLACK
6
CONTINUOUS
10
-4.28831
20
5.55906
11
-4.26328
21
5.55906
0
LINE
8
BLACK
6
CONTINUOUS
10
-4.26328
20
5.55906
11
-4.26033
21
5.55826
0
LINE
8
BLACK
6
CONTINUOUS
10
-4.26033
20
5.55826
11
-4.25817
21
5.5561
0
LINE
8
BLACK
6
CONTINUOUS
10
-4.25817
20
5.5561
11
-4.25738
21
5.55315
0
LINE
8
BLACK
6
CONTINUOUS
10
-4.25738
20
5.55315
11
-4.25817
21
5.5502
0
LINE
8
BLACK
6
CONTINUOUS
10
-4.25817
20
5.5502
11
-4.26033
21
5.54804
0
LINE
8
BLACK
6
CONTINUOUS
10
-4.26033
20
5.54804
11
-4.26328
21
5.54724
0
LINE
8
BLACK
6
CONTINUOUS
10
-4.26328
20
5.54724
11
-4.32234
21
5.54724
0
LINE
8
BLACK
6
CONTINUOUS
10
-4.32234
20
5.54724
11
-4.32529
21
5.54804
0
LINE
8
BLACK
6
CONTINUOUS
10
-3.92995
20
5.6013
11
-3.92564
21
5.60127
0
LINE
8
BLACK
6
CONTINUOUS
10
-3.92564
20
5.60127
11
-3.92198
21
5.60124
0
LINE
8
BLACK
6
CONTINUOUS
10
-3.92198
20
5.60124
11
-3.91893
21
5.60121
0
LINE
8
BLACK
6
CONTINUOUS
10
-3.91893
20
5.60121
11
-3.9164
21
5.60118
0
LINE
8
BLACK
6
CONTINUOUS
10
-3.9164
20
5.60118
11
-3.91434
21
5.60114
0
LINE
8
BLACK
6
CONTINUOUS
10
-3.91434
20
5.60114
11
-3.91268
21
5.60109
0
LINE
8
BLACK
6
CONTINUOUS
10
-3.91268
20
5.60109
11
-3.91136
21
5.60103
0
LINE
8
BLACK
6
CONTINUOUS
10
-3.91136
20
5.60103
11
-3.91032
21
5.60096
0
LINE
8
BLACK
6
CONTINUOUS
10
-3.91032
20
5.60096
11
-3.90949
21
5.60087
0
LINE
8
BLACK
6
CONTINUOUS
10
-3.90949
20
5.60087
11
-3.90881
21
5.60075
0
LINE
8
BLACK
6
CONTINUOUS
10
-3.90881
20
5.60075
11
-3.9082
21
5.60062
0
LINE
8
BLACK
6
CONTINUOUS
10
-3.9082
20
5.60062
11
-3.90762
21
5.60045
0
LINE
8
BLACK
6
CONTINUOUS
10
-3.90762
20
5.60045
11
-3.90727
21
5.60035
0
LINE
8
BLACK
6
CONTINUOUS
10
-3.90727
20
5.60035
11
-3.90333
21
5.59884
0
LINE
8
BLACK
6
CONTINUOUS
10
-3.90333
20
5.59884
11
-3.89991
21
5.59686
0
LINE
8
BLACK
6
CONTINUOUS
10
-3.89991
20
5.59686
11
-3.89703
21
5.59443
0
LINE
8
BLACK
6
CONTINUOUS
10
-3.89703
20
5.59443
11
-3.89471
21
5.59157
0
LINE
8
BLACK
6
CONTINUOUS
10
-3.89471
20
5.59157
11
-3.89297
21
5.58831
0
LINE
8
BLACK
6
CONTINUOUS
10
-3.89297
20
5.58831
11
-3.89224
21
5.58625
0
LINE
8
BLACK
6
CONTINUOUS
10
-3.89224
20
5.58625
11
-3.89192
21
5.58487
0
LINE
8
BLACK
6
CONTINUOUS
10
-3.89192
20
5.58487
11
-3.8916
21
5.58306
0
LINE
8
BLACK
6
CONTINUOUS
10
-3.8916
20
5.58306
11
-3.89133
21
5.58108
0
LINE
8
BLACK
6
CONTINUOUS
10
-3.89133
20
5.58108
11
-3.89113
21
5.57919
0
LINE
8
BLACK
6
CONTINUOUS
10
-3.89113
20
5.57919
11
-3.89104
21
5.57764
0
LINE
8
BLACK
6
CONTINUOUS
10
-3.89104
20
5.57764
11
-3.89104
21
5.57717
0
LINE
8
BLACK
6
CONTINUOUS
10
-3.89104
20
5.57717
11
-3.89111
21
5.57614
0
LINE
8
BLACK
6
CONTINUOUS
10
-3.89111
20
5.57614
11
-3.89124
21
5.57472
0
LINE
8
BLACK
6
CONTINUOUS
10
-3.89124
20
5.57472
11
-3.89138
21
5.57339
0
LINE
8
BLACK
6
CONTINUOUS
10
-3.89138
20
5.57339
11
-3.89216
21
5.56944
0
LINE
8
BLACK
6
CONTINUOUS
10
-3.89216
20
5.56944
11
-3.89354
21
5.56585
0
LINE
8
BLACK
6
CONTINUOUS
10
-3.89354
20
5.56585
11
-3.89547
21
5.56268
0
LINE
8
BLACK
6
CONTINUOUS
10
-3.89547
20
5.56268
11
-3.89795
21
5.55995
0
LINE
8
BLACK
6
CONTINUOUS
10
-3.89795
20
5.55995
11
-3.90092
21
5.55771
0
LINE
8
BLACK
6
CONTINUOUS
10
-3.90092
20
5.55771
11
-3.90267
21
5.55675
0
LINE
8
BLACK
6
CONTINUOUS
10
-3.90267
20
5.55675
11
-3.90406
21
5.55611
0
LINE
8
BLACK
6
CONTINUOUS
10
-3.90406
20
5.55611
11
-3.90544
21
5.55556
0
LINE
8
BLACK
6
CONTINUOUS
10
-3.90544
20
5.55556
11
-3.90689
21
5.5551
0
LINE
8
BLACK
6
CONTINUOUS
10
-3.90689
20
5.5551
11
-3.90846
21
5.55471
0
LINE
8
BLACK
6
CONTINUOUS
10
-3.90846
20
5.55471
11
-3.91022
21
5.5544
0
LINE
8
BLACK
6
CONTINUOUS
10
-3.91022
20
5.5544
11
-3.91224
21
5.55416
0
LINE
8
BLACK
6
CONTINUOUS
10
-3.91224
20
5.55416
11
-3.91459
21
5.55398
0
LINE
8
BLACK
6
CONTINUOUS
10
-3.91459
20
5.55398
11
-3.91733
21
5.55385
0
LINE
8
BLACK
6
CONTINUOUS
10
-3.91733
20
5.55385
11
-3.92052
21
5.55376
0
LINE
8
BLACK
6
CONTINUOUS
10
-3.92052
20
5.55376
11
-3.92424
21
5.55372
0
LINE
8
BLACK
6
CONTINUOUS
10
-3.92424
20
5.55372
11
-3.92855
21
5.55372
0
LINE
8
BLACK
6
CONTINUOUS
10
-3.92855
20
5.55372
11
-3.93351
21
5.55374
0
LINE
8
BLACK
6
CONTINUOUS
10
-3.93351
20
5.55374
11
-3.93365
21
5.55374
0
LINE
8
BLACK
6
CONTINUOUS
10
-3.93365
20
5.55374
11
-3.94974
21
5.55384
0
LINE
8
BLACK
6
CONTINUOUS
10
-3.94974
20
5.55384
11
-3.94984
21
5.55918
0
LINE
8
BLACK
6
CONTINUOUS
10
-3.94984
20
5.55918
11
-3.94994
21
5.56451
0
LINE
8
BLACK
6
CONTINUOUS
10
-3.94994
20
5.56451
11
-3.93297
21
5.56451
0
LINE
8
BLACK
6
CONTINUOUS
10
-3.93297
20
5.56451
11
-3.92889
21
5.56452
0
LINE
8
BLACK
6
CONTINUOUS
10
-3.92889
20
5.56452
11
-3.92513
21
5.56454
0
LINE
8
BLACK
6
CONTINUOUS
10
-3.92513
20
5.56454
11
-3.92175
21
5.56458
0
LINE
8
BLACK
6
CONTINUOUS
10
-3.92175
20
5.56458
11
-3.91882
21
5.56464
0
LINE
8
BLACK
6
CONTINUOUS
10
-3.91882
20
5.56464
11
-3.9164
21
5.56471
0
LINE
8
BLACK
6
CONTINUOUS
10
-3.9164
20
5.56471
11
-3.91456
21
5.56479
0
LINE
8
BLACK
6
CONTINUOUS
10
-3.91456
20
5.56479
11
-3.91336
21
5.56488
0
LINE
8
BLACK
6
CONTINUOUS
10
-3.91336
20
5.56488
11
-3.91319
21
5.5649
0
LINE
8
BLACK
6
CONTINUOUS
10
-3.91319
20
5.5649
11
-3.90986
21
5.56557
0
LINE
8
BLACK
6
CONTINUOUS
10
-3.90986
20
5.56557
11
-3.90714
21
5.56661
0
LINE
8
BLACK
6
CONTINUOUS
10
-3.90714
20
5.56661
11
-3.905
21
5.56803
0
LINE
8
BLACK
6
CONTINUOUS
10
-3.905
20
5.56803
11
-3.90341
21
5.56989
0
LINE
8
BLACK
6
CONTINUOUS
10
-3.90341
20
5.56989
11
-3.90232
21
5.57221
0
LINE
8
BLACK
6
CONTINUOUS
10
-3.90232
20
5.57221
11
-3.9017
21
5.57504
0
LINE
8
BLACK
6
CONTINUOUS
10
-3.9017
20
5.57504
11
-3.90155
21
5.57684
0
LINE
8
BLACK
6
CONTINUOUS
10
-3.90155
20
5.57684
11
-3.90162
21
5.58014
0
LINE
8
BLACK
6
CONTINUOUS
10
-3.90162
20
5.58014
11
-3.90218
21
5.58292
0
LINE
8
BLACK
6
CONTINUOUS
10
-3.90218
20
5.58292
11
-3.90324
21
5.58522
0
LINE
8
BLACK
6
CONTINUOUS
10
-3.90324
20
5.58522
11
-3.90485
21
5.58708
0
LINE
8
BLACK
6
CONTINUOUS
10
-3.90485
20
5.58708
11
-3.90704
21
5.58857
0
LINE
8
BLACK
6
CONTINUOUS
10
-3.90704
20
5.58857
11
-3.90983
21
5.58971
0
LINE
8
BLACK
6
CONTINUOUS
10
-3.90983
20
5.58971
11
-3.9107
21
5.58997
0
LINE
8
BLACK
6
CONTINUOUS
10
-3.9107
20
5.58997
11
-3.91132
21
5.59013
0
LINE
8
BLACK
6
CONTINUOUS
10
-3.91132
20
5.59013
11
-3.91198
21
5.59026
0
LINE
8
BLACK
6
CONTINUOUS
10
-3.91198
20
5.59026
11
-3.91275
21
5.59037
0
LINE
8
BLACK
6
CONTINUOUS
10
-3.91275
20
5.59037
11
-3.9137
21
5.59047
0
LINE
8
BLACK
6
CONTINUOUS
10
-3.9137
20
5.59047
11
-3.91489
21
5.59054
0
LINE
8
BLACK
6
CONTINUOUS
10
-3.91489
20
5.59054
11
-3.9164
21
5.59061
0
LINE
8
BLACK
6
CONTINUOUS
10
-3.9164
20
5.59061
11
-3.91828
21
5.59066
0
LINE
8
BLACK
6
CONTINUOUS
10
-3.91828
20
5.59066
11
-3.9206
21
5.5907
0
LINE
8
BLACK
6
CONTINUOUS
10
-3.9206
20
5.5907
11
-3.92344
21
5.59074
0
LINE
8
BLACK
6
CONTINUOUS
10
-3.92344
20
5.59074
11
-3.92686
21
5.59077
0
LINE
8
BLACK
6
CONTINUOUS
10
-3.92686
20
5.59077
11
-3.93092
21
5.59081
0
LINE
8
BLACK
6
CONTINUOUS
10
-3.93092
20
5.59081
11
-3.93157
21
5.59081
0
LINE
8
BLACK
6
CONTINUOUS
10
-3.93157
20
5.59081
11
-3.94992
21
5.59096
0
LINE
8
BLACK
6
CONTINUOUS
10
-3.94992
20
5.59096
11
-3.94992
21
5.60142
0
LINE
8
BLACK
6
CONTINUOUS
10
-3.94992
20
5.60142
11
-3.92995
21
5.6013
0
LINE
8
BLACK
6
CONTINUOUS
10
-4.97888
20
5.80368
11
-4.97819
21
5.80201
0
LINE
8
BLACK
6
CONTINUOUS
10
-4.97819
20
5.80201
11
-4.97819
21
5.56854
0
LINE
8
BLACK
6
CONTINUOUS
10
-4.97819
20
5.56854
11
-4.97888
21
5.56687
0
LINE
8
BLACK
6
CONTINUOUS
10
-4.97888
20
5.56687
11
-4.98055
21
5.56618
0
LINE
8
BLACK
6
CONTINUOUS
10
-4.98055
20
5.56618
11
-4.98222
21
5.56687
0
LINE
8
BLACK
6
CONTINUOUS
10
-4.98222
20
5.56687
11
-4.98291
21
5.56854
0
LINE
8
BLACK
6
CONTINUOUS
10
-4.98291
20
5.56854
11
-4.98291
21
5.80201
0
LINE
8
BLACK
6
CONTINUOUS
10
-4.98291
20
5.80201
11
-4.98222
21
5.80368
0
LINE
8
BLACK
6
CONTINUOUS
10
-4.98222
20
5.80368
11
-4.98055
21
5.80437
0
LINE
8
BLACK
6
CONTINUOUS
10
-4.98055
20
5.80437
11
-4.97888
21
5.80368
0
LINE
8
BLACK
6
CONTINUOUS
10
-4.32529
20
5.59865
11
-4.32745
21
5.60082
0
LINE
8
BLACK
6
CONTINUOUS
10
-4.32745
20
5.60082
11
-4.32825
21
5.60377
0
LINE
8
BLACK
6
CONTINUOUS
10
-4.32825
20
5.60377
11
-4.32745
21
5.60672
0
LINE
8
BLACK
6
CONTINUOUS
10
-4.32745
20
5.60672
11
-4.32529
21
5.60888
0
LINE
8
BLACK
6
CONTINUOUS
10
-4.32529
20
5.60888
11
-4.32234
21
5.60967
0
LINE
8
BLACK
6
CONTINUOUS
10
-4.32234
20
5.60967
11
-4.30012
21
5.60967
0
LINE
8
BLACK
6
CONTINUOUS
10
-4.30012
20
5.60967
11
-4.30012
21
5.63161
0
LINE
8
BLACK
6
CONTINUOUS
10
-4.30012
20
5.63161
11
-4.32234
21
5.63161
0
LINE
8
BLACK
6
CONTINUOUS
10
-4.32234
20
5.63161
11
-4.32529
21
5.6324
0
LINE
8
BLACK
6
CONTINUOUS
10
-4.32529
20
5.6324
11
-4.32745
21
5.63456
0
LINE
8
BLACK
6
CONTINUOUS
10
-4.32745
20
5.63456
11
-4.32825
21
5.63751
0
LINE
8
BLACK
6
CONTINUOUS
10
-4.32825
20
5.63751
11
-4.32745
21
5.64047
0
LINE
8
BLACK
6
CONTINUOUS
10
-4.32745
20
5.64047
11
-4.32529
21
5.64263
0
LINE
8
BLACK
6
CONTINUOUS
10
-4.32529
20
5.64263
11
-4.32234
21
5.64342
0
LINE
8
BLACK
6
CONTINUOUS
10
-4.32234
20
5.64342
11
-4.26328
21
5.64342
0
LINE
8
BLACK
6
CONTINUOUS
10
-4.26328
20
5.64342
11
-4.26033
21
5.64263
0
LINE
8
BLACK
6
CONTINUOUS
10
-4.26033
20
5.64263
11
-4.25817
21
5.64047
0
LINE
8
BLACK
6
CONTINUOUS
10
-4.25817
20
5.64047
11
-4.25738
21
5.63751
0
LINE
8
BLACK
6
CONTINUOUS
10
-4.25738
20
5.63751
11
-4.25817
21
5.63456
0
LINE
8
BLACK
6
CONTINUOUS
10
-4.25817
20
5.63456
11
-4.26033
21
5.6324
0
LINE
8
BLACK
6
CONTINUOUS
10
-4.26033
20
5.6324
11
-4.26328
21
5.63161
0
LINE
8
BLACK
6
CONTINUOUS
10
-4.26328
20
5.63161
11
-4.28831
21
5.63161
0
LINE
8
BLACK
6
CONTINUOUS
10
-4.28831
20
5.63161
11
-4.28831
21
5.60967
0
LINE
8
BLACK
6
CONTINUOUS
10
-4.28831
20
5.60967
11
-4.26328
21
5.60967
0
LINE
8
BLACK
6
CONTINUOUS
10
-4.26328
20
5.60967
11
-4.26033
21
5.60888
0
LINE
8
BLACK
6
CONTINUOUS
10
-4.26033
20
5.60888
11
-4.25817
21
5.60672
0
LINE
8
BLACK
6
CONTINUOUS
10
-4.25817
20
5.60672
11
-4.25738
21
5.60377
0
LINE
8
BLACK
6
CONTINUOUS
10
-4.25738
20
5.60377
11
-4.25817
21
5.60082
0
LINE
8
BLACK
6
CONTINUOUS
10
-4.25817
20
5.60082
11
-4.26033
21
5.59865
0
LINE
8
BLACK
6
CONTINUOUS
10
-4.26033
20
5.59865
11
-4.26328
21
5.59786
0
LINE
8
BLACK
6
CONTINUOUS
10
-4.26328
20
5.59786
11
-4.32234
21
5.59786
0
LINE
8
BLACK
6
CONTINUOUS
10
-4.32234
20
5.59786
11
-4.32529
21
5.59865
0
LINE
8
BLACK
6
CONTINUOUS
10
-3.89244
20
5.64875
11
-3.91183
21
5.63582
0
LINE
8
BLACK
6
CONTINUOUS
10
-3.91183
20
5.63582
11
-3.93122
21
5.6229
0
LINE
8
BLACK
6
CONTINUOUS
10
-3.93122
20
5.6229
11
-3.91183
21
5.6228
0
LINE
8
BLACK
6
CONTINUOUS
10
-3.91183
20
5.6228
11
-3.89244
21
5.62271
0
LINE
8
BLACK
6
CONTINUOUS
10
-3.89244
20
5.62271
11
-3.89244
21
5.61223
0
LINE
8
BLACK
6
CONTINUOUS
10
-3.89244
20
5.61223
11
-3.94992
21
5.61223
0
LINE
8
BLACK
6
CONTINUOUS
10
-3.94992
20
5.61223
11
-3.94992
21
5.61738
0
LINE
8
BLACK
6
CONTINUOUS
10
-3.94992
20
5.61738
11
-3.94992
21
5.62253
0
LINE
8
BLACK
6
CONTINUOUS
10
-3.94992
20
5.62253
11
-3.93161
21
5.63465
0
LINE
8
BLACK
6
CONTINUOUS
10
-3.93161
20
5.63465
11
-3.9133
21
5.64676
0
LINE
8
BLACK
6
CONTINUOUS
10
-3.9133
20
5.64676
11
-3.93162
21
5.64685
0
LINE
8
BLACK
6
CONTINUOUS
10
-3.93162
20
5.64685
11
-3.94994
21
5.64694
0
LINE
8
BLACK
6
CONTINUOUS
10
-3.94994
20
5.64694
11
-3.94974
21
5.6576
0
LINE
8
BLACK
6
CONTINUOUS
10
-3.94974
20
5.6576
11
-3.92109
21
5.6577
0
LINE
8
BLACK
6
CONTINUOUS
10
-3.92109
20
5.6577
11
-3.89244
21
5.65779
0
LINE
8
BLACK
6
CONTINUOUS
10
-3.89244
20
5.65779
11
-3.89244
21
5.64875
0
LINE
8
BLACK
6
CONTINUOUS
10
-4.31939
20
5.69606
11
-4.31723
21
5.6939
0
LINE
8
BLACK
6
CONTINUOUS
10
-4.31723
20
5.6939
11
-4.31643
21
5.69094
0
LINE
8
BLACK
6
CONTINUOUS
10
-4.31643
20
5.69094
11
-4.31643
21
5.67998
0
LINE
8
BLACK
6
CONTINUOUS
10
-4.31643
20
5.67998
11
-4.26328
21
5.67998
0
LINE
8
BLACK
6
CONTINUOUS
10
-4.26328
20
5.67998
11
-4.26033
21
5.67919
0
LINE
8
BLACK
6
CONTINUOUS
10
-4.26033
20
5.67919
11
-4.25817
21
5.67702
0
LINE
8
BLACK
6
CONTINUOUS
10
-4.25817
20
5.67702
11
-4.25738
21
5.67407
0
LINE
8
BLACK
6
CONTINUOUS
10
-4.25738
20
5.67407
11
-4.25817
21
5.67112
0
LINE
8
BLACK
6
CONTINUOUS
10
-4.25817
20
5.67112
11
-4.26033
21
5.66896
0
LINE
8
BLACK
6
CONTINUOUS
10
-4.26033
20
5.66896
11
-4.26328
21
5.66817
0
LINE
8
BLACK
6
CONTINUOUS
10
-4.26328
20
5.66817
11
-4.31643
21
5.66817
0
LINE
8
BLACK
6
CONTINUOUS
10
-4.31643
20
5.66817
11
-4.31643
21
5.6572
0
LINE
8
BLACK
6
CONTINUOUS
10
-4.31643
20
5.6572
11
-4.31723
21
5.65425
0
LINE
8
BLACK
6
CONTINUOUS
10
-4.31723
20
5.65425
11
-4.31939
21
5.65208
0
LINE
8
BLACK
6
CONTINUOUS
10
-4.31939
20
5.65208
11
-4.32234
21
5.65129
0
LINE
8
BLACK
6
CONTINUOUS
10
-4.32234
20
5.65129
11
-4.32529
21
5.65208
0
LINE
8
BLACK
6
CONTINUOUS
10
-4.32529
20
5.65208
11
-4.32745
21
5.65425
0
LINE
8
BLACK
6
CONTINUOUS
10
-4.32745
20
5.65425
11
-4.32825
21
5.6572
0
LINE
8
BLACK
6
CONTINUOUS
10
-4.32825
20
5.6572
11
-4.32825
21
5.69094
0
LINE
8
BLACK
6
CONTINUOUS
10
-4.32825
20
5.69094
11
-4.32745
21
5.6939
0
LINE
8
BLACK
6
CONTINUOUS
10
-4.32745
20
5.6939
11
-4.32529
21
5.69606
0
LINE
8
BLACK
6
CONTINUOUS
10
-4.32529
20
5.69606
11
-4.32234
21
5.69685
0
LINE
8
BLACK
6
CONTINUOUS
10
-4.32234
20
5.69685
11
-4.31939
21
5.69606
0
LINE
8
BLACK
6
CONTINUOUS
10
-3.94982
20
5.6821
11
-3.94977
21
5.6856
0
LINE
8
BLACK
6
CONTINUOUS
10
-3.94977
20
5.6856
11
-3.94972
21
5.68846
0
LINE
8
BLACK
6
CONTINUOUS
10
-3.94972
20
5.68846
11
-3.94966
21
5.69077
0
LINE
8
BLACK
6
CONTINUOUS
10
-3.94966
20
5.69077
11
-3.9496
21
5.69263
0
LINE
8
BLACK
6
CONTINUOUS
10
-3.9496
20
5.69263
11
-3.94951
21
5.69411
0
LINE
8
BLACK
6
CONTINUOUS
10
-3.94951
20
5.69411
11
-3.94941
21
5.6953
0
LINE
8
BLACK
6
CONTINUOUS
10
-3.94941
20
5.6953
11
-3.94928
21
5.6963
0
LINE
8
BLACK
6
CONTINUOUS
10
-3.94928
20
5.6963
11
-3.94912
21
5.69719
0
LINE
8
BLACK
6
CONTINUOUS
10
-3.94912
20
5.69719
11
-3.94892
21
5.69806
0
LINE
8
BLACK
6
CONTINUOUS
10
-3.94892
20
5.69806
11
-3.94886
21
5.69828
0
LINE
8
BLACK
6
CONTINUOUS
10
-3.94886
20
5.69828
11
-3.94743
21
5.70259
0
LINE
8
BLACK
6
CONTINUOUS
10
-3.94743
20
5.70259
11
-3.94545
21
5.70644
0
LINE
8
BLACK
6
CONTINUOUS
10
-3.94545
20
5.70644
11
-3.94294
21
5.70982
0
LINE
8
BLACK
6
CONTINUOUS
10
-3.94294
20
5.70982
11
-3.93993
21
5.71269
0
LINE
8
BLACK
6
CONTINUOUS
10
-3.93993
20
5.71269
11
-3.93644
21
5.71504
0
LINE
8
BLACK
6
CONTINUOUS
10
-3.93644
20
5.71504
11
-3.93248
21
5.71683
0
LINE
8
BLACK
6
CONTINUOUS
10
-3.93248
20
5.71683
11
-3.92981
21
5.71766
0
LINE
8
BLACK
6
CONTINUOUS
10
-3.92981
20
5.71766
11
-3.92645
21
5.71831
0
LINE
8
BLACK
6
CONTINUOUS
10
-3.92645
20
5.71831
11
-3.92273
21
5.71863
0
LINE
8
BLACK
6
CONTINUOUS
10
-3.92273
20
5.71863
11
-3.91893
21
5.71863
0
LINE
8
BLACK
6
CONTINUOUS
10
-3.91893
20
5.71863
11
-3.9153
21
5.7183
0
LINE
8
BLACK
6
CONTINUOUS
10
-3.9153
20
5.7183
11
-3.91288
21
5.71784
0
LINE
8
BLACK
6
CONTINUOUS
10
-3.91288
20
5.71784
11
-3.90864
21
5.71647
0
LINE
8
BLACK
6
CONTINUOUS
10
-3.90864
20
5.71647
11
-3.9048
21
5.71454
0
LINE
8
BLACK
6
CONTINUOUS
10
-3.9048
20
5.71454
11
-3.9014
21
5.71207
0
LINE
8
BLACK
6
CONTINUOUS
10
-3.9014
20
5.71207
11
-3.89848
21
5.70911
0
LINE
8
BLACK
6
CONTINUOUS
10
-3.89848
20
5.70911
11
-3.8961
21
5.70569
0
LINE
8
BLACK
6
CONTINUOUS
10
-3.8961
20
5.70569
11
-3.89518
21
5.70395
0
LINE
8
BLACK
6
CONTINUOUS
10
-3.89518
20
5.70395
11
-3.89458
21
5.70268
0
LINE
8
BLACK
6
CONTINUOUS
10
-3.89458
20
5.70268
11
-3.89409
21
5.70155
0
LINE
8
BLACK
6
CONTINUOUS
10
-3.89409
20
5.70155
11
-3.89368
21
5.70048
0
LINE
8
BLACK
6
CONTINUOUS
10
-3.89368
20
5.70048
11
-3.89336
21
5.69938
0
LINE
8
BLACK
6
CONTINUOUS
10
-3.89336
20
5.69938
11
-3.89312
21
5.69818
0
LINE
8
BLACK
6
CONTINUOUS
10
-3.89312
20
5.69818
11
-3.89293
21
5.69678
0
LINE
8
BLACK
6
CONTINUOUS
10
-3.89293
20
5.69678
11
-3.89279
21
5.69509
0
LINE
8
BLACK
6
CONTINUOUS
10
-3.89279
20
5.69509
11
-3.8927
21
5.69305
0
LINE
8
BLACK
6
CONTINUOUS
10
-3.8927
20
5.69305
11
-3.89263
21
5.69055
0
LINE
8
BLACK
6
CONTINUOUS
10
-3.89263
20
5.69055
11
-3.89258
21
5.68751
0
LINE
8
BLACK
6
CONTINUOUS
10
-3.89258
20
5.68751
11
-3.89254
21
5.68386
0
LINE
8
BLACK
6
CONTINUOUS
10
-3.89254
20
5.68386
11
-3.89253
21
5.683
0
LINE
8
BLACK
6
CONTINUOUS
10
-3.89253
20
5.683
11
-3.89239
21
5.66899
0
LINE
8
BLACK
6
CONTINUOUS
10
-3.89239
20
5.66899
11
-3.95001
21
5.66899
0
LINE
8
BLACK
6
CONTINUOUS
10
-3.95001
20
5.66899
11
-3.94982
21
5.6821
0
LINE
8
BLACK
6
CONTINUOUS
10
-3.91941
20
5.70693
11
-3.92223
21
5.70693
0
LINE
8
BLACK
6
CONTINUOUS
10
-3.92223
20
5.70693
11
-3.92496
21
5.70675
0
LINE
8
BLACK
6
CONTINUOUS
10
-3.92496
20
5.70675
11
-3.92734
21
5.70639
0
LINE
8
BLACK
6
CONTINUOUS
10
-3.92734
20
5.70639
11
-3.92796
21
5.70625
0
LINE
8
BLACK
6
CONTINUOUS
10
-3.92796
20
5.70625
11
-3.93047
21
5.7055
0
LINE
8
BLACK
6
CONTINUOUS
10
-3.93047
20
5.7055
11
-3.93248
21
5.7046
0
LINE
8
BLACK
6
CONTINUOUS
10
-3.93248
20
5.7046
11
-3.93426
21
5.70342
0
LINE
8
BLACK
6
CONTINUOUS
10
-3.93426
20
5.70342
11
-3.93563
21
5.70223
0
LINE
8
BLACK
6
CONTINUOUS
10
-3.93563
20
5.70223
11
-3.93698
21
5.70083
0
LINE
8
BLACK
6
CONTINUOUS
10
-3.93698
20
5.70083
11
-3.93804
21
5.6994
0
LINE
8
BLACK
6
CONTINUOUS
10
-3.93804
20
5.6994
11
-3.93885
21
5.69782
0
LINE
8
BLACK
6
CONTINUOUS
10
-3.93885
20
5.69782
11
-3.93943
21
5.696
0
LINE
8
BLACK
6
CONTINUOUS
10
-3.93943
20
5.696
11
-3.93982
21
5.69382
0
LINE
8
BLACK
6
CONTINUOUS
10
-3.93982
20
5.69382
11
-3.94005
21
5.69117
0
LINE
8
BLACK
6
CONTINUOUS
10
-3.94005
20
5.69117
11
-3.94015
21
5.68797
0
LINE
8
BLACK
6
CONTINUOUS
10
-3.94015
20
5.68797
11
-3.94016
21
5.68644
0
LINE
8
BLACK
6
CONTINUOUS
10
-3.94016
20
5.68644
11
-3.94016
21
5.67948
0
LINE
8
BLACK
6
CONTINUOUS
10
-3.94016
20
5.67948
11
-3.90184
21
5.67948
0
LINE
8
BLACK
6
CONTINUOUS
10
-3.90184
20
5.67948
11
-3.90184
21
5.68615
0
LINE
8
BLACK
6
CONTINUOUS
10
-3.90184
20
5.68615
11
-3.90186
21
5.68842
0
LINE
8
BLACK
6
CONTINUOUS
10
-3.90186
20
5.68842
11
-3.90192
21
5.69059
0
LINE
8
BLACK
6
CONTINUOUS
10
-3.90192
20
5.69059
11
-3.90202
21
5.69249
0
LINE
8
BLACK
6
CONTINUOUS
10
-3.90202
20
5.69249
11
-3.90213
21
5.69396
0
LINE
8
BLACK
6
CONTINUOUS
10
-3.90213
20
5.69396
11
-3.90225
21
5.69473
0
LINE
8
BLACK
6
CONTINUOUS
10
-3.90225
20
5.69473
11
-3.90325
21
5.69781
0
LINE
8
BLACK
6
CONTINUOUS
10
-3.90325
20
5.69781
11
-3.90485
21
5.7005
0
LINE
8
BLACK
6
CONTINUOUS
10
-3.90485
20
5.7005
11
-3.90701
21
5.70277
0
LINE
8
BLACK
6
CONTINUOUS
10
-3.90701
20
5.70277
11
-3.90971
21
5.7046
0
LINE
8
BLACK
6
CONTINUOUS
10
-3.90971
20
5.7046
11
-3.91291
21
5.70595
0
LINE
8
BLACK
6
CONTINUOUS
10
-3.91291
20
5.70595
11
-3.91456
21
5.7064
0
LINE
8
BLACK
6
CONTINUOUS
10
-3.91456
20
5.7064
11
-3.91676
21
5.70676
0
LINE
8
BLACK
6
CONTINUOUS
10
-3.91676
20
5.70676
11
-3.91941
21
5.70693
0
LINE
8
BLACK
6
CONTINUOUS
10
-4.28508
20
5.74728
11
-4.28435
21
5.74729
0
LINE
8
BLACK
6
CONTINUOUS
10
-4.28435
20
5.74729
11
-4.2731
21
5.74448
0
LINE
8
BLACK
6
CONTINUOUS
10
-4.2731
20
5.74448
11
-4.27253
21
5.74416
0
LINE
8
BLACK
6
CONTINUOUS
10
-4.27253
20
5.74416
11
-4.27189
21
5.74403
0
LINE
8
BLACK
6
CONTINUOUS
10
-4.27189
20
5.74403
11
-4.26627
21
5.74122
0
LINE
8
BLACK
6
CONTINUOUS
10
-4.26627
20
5.74122
11
-4.26556
21
5.74059
0
LINE
8
BLACK
6
CONTINUOUS
10
-4.26556
20
5.74059
11
-4.26473
21
5.74012
0
LINE
8
BLACK
6
CONTINUOUS
10
-4.26473
20
5.74012
11
-4.26192
21
5.7373
0
LINE
8
BLACK
6
CONTINUOUS
10
-4.26192
20
5.7373
11
-4.26145
21
5.73648
0
LINE
8
BLACK
6
CONTINUOUS
10
-4.26145
20
5.73648
11
-4.26081
21
5.73577
0
LINE
8
BLACK
6
CONTINUOUS
10
-4.26081
20
5.73577
11
-4.258
21
5.73014
0
LINE
8
BLACK
6
CONTINUOUS
10
-4.258
20
5.73014
11
-4.25773
21
5.72881
0
LINE
8
BLACK
6
CONTINUOUS
10
-4.25773
20
5.72881
11
-4.25738
21
5.7275
0
LINE
8
BLACK
6
CONTINUOUS
10
-4.25738
20
5.7275
11
-4.25738
21
5.72188
0
LINE
8
BLACK
6
CONTINUOUS
10
-4.25738
20
5.72188
11
-4.25773
21
5.72057
0
LINE
8
BLACK
6
CONTINUOUS
10
-4.25773
20
5.72057
11
-4.258
21
5.71924
0
LINE
8
BLACK
6
CONTINUOUS
10
-4.258
20
5.71924
11
-4.26081
21
5.71361
0
LINE
8
BLACK
6
CONTINUOUS
10
-4.26081
20
5.71361
11
-4.26145
21
5.7129
0
LINE
8
BLACK
6
CONTINUOUS
10
-4.26145
20
5.7129
11
-4.26192
21
5.71208
0
LINE
8
BLACK
6
CONTINUOUS
10
-4.26192
20
5.71208
11
-4.26473
21
5.70927
0
LINE
8
BLACK
6
CONTINUOUS
10
-4.26473
20
5.70927
11
-4.26556
21
5.70879
0
LINE
8
BLACK
6
CONTINUOUS
10
-4.26556
20
5.70879
11
-4.26627
21
5.70816
0
LINE
8
BLACK
6
CONTINUOUS
10
-4.26627
20
5.70816
11
-4.27189
21
5.70535
0
LINE
8
BLACK
6
CONTINUOUS
10
-4.27189
20
5.70535
11
-4.27253
21
5.70522
0
LINE
8
BLACK
6
CONTINUOUS
10
-4.27253
20
5.70522
11
-4.2731
21
5.7049
0
LINE
8
BLACK
6
CONTINUOUS
10
-4.2731
20
5.7049
11
-4.28435
21
5.70209
0
LINE
8
BLACK
6
CONTINUOUS
10
-4.28435
20
5.70209
11
-4.28508
21
5.7021
0
LINE
8
BLACK
6
CONTINUOUS
10
-4.28508
20
5.7021
11
-4.28578
21
5.70191
0
LINE
8
BLACK
6
CONTINUOUS
10
-4.28578
20
5.70191
11
-4.29984
21
5.70191
0
LINE
8
BLACK
6
CONTINUOUS
10
-4.29984
20
5.70191
11
-4.30055
21
5.7021
0
LINE
8
BLACK
6
CONTINUOUS
10
-4.30055
20
5.7021
11
-4.30127
21
5.70209
0
LINE
8
BLACK
6
CONTINUOUS
10
-4.30127
20
5.70209
11
-4.31252
21
5.7049
0
LINE
8
BLACK
6
CONTINUOUS
10
-4.31252
20
5.7049
11
-4.31309
21
5.70522
0
LINE
8
BLACK
6
CONTINUOUS
10
-4.31309
20
5.70522
11
-4.31373
21
5.70535
0
LINE
8
BLACK
6
CONTINUOUS
10
-4.31373
20
5.70535
11
-4.31936
21
5.70816
0
LINE
8
BLACK
6
CONTINUOUS
10
-4.31936
20
5.70816
11
-4.32007
21
5.70879
0
LINE
8
BLACK
6
CONTINUOUS
10
-4.32007
20
5.70879
11
-4.32089
21
5.70927
0
LINE
8
BLACK
6
CONTINUOUS
10
-4.32089
20
5.70927
11
-4.3237
21
5.71208
0
LINE
8
BLACK
6
CONTINUOUS
10
-4.3237
20
5.71208
11
-4.32418
21
5.7129
0
LINE
8
BLACK
6
CONTINUOUS
10
-4.32418
20
5.7129
11
-4.32481
21
5.71361
0
LINE
8
BLACK
6
CONTINUOUS
10
-4.32481
20
5.71361
11
-4.32762
21
5.71924
0
LINE
8
BLACK
6
CONTINUOUS
10
-4.32762
20
5.71924
11
-4.32789
21
5.72057
0
LINE
8
BLACK
6
CONTINUOUS
10
-4.32789
20
5.72057
11
-4.32825
21
5.72188
0
LINE
8
BLACK
6
CONTINUOUS
10
-4.32825
20
5.72188
11
-4.32825
21
5.7275
0
LINE
8
BLACK
6
CONTINUOUS
10
-4.32825
20
5.7275
11
-4.32789
21
5.72881
0
LINE
8
BLACK
6
CONTINUOUS
10
-4.32789
20
5.72881
11
-4.32762
21
5.73014
0
LINE
8
BLACK
6
CONTINUOUS
10
-4.32762
20
5.73014
11
-4.32481
21
5.73577
0
LINE
8
BLACK
6
CONTINUOUS
10
-4.32481
20
5.73577
11
-4.32418
21
5.73648
0
LINE
8
BLACK
6
CONTINUOUS
10
-4.32418
20
5.73648
11
-4.3237
21
5.7373
0
LINE
8
BLACK
6
CONTINUOUS
10
-4.3237
20
5.7373
11
-4.32089
21
5.74012
0
LINE
8
BLACK
6
CONTINUOUS
10
-4.32089
20
5.74012
11
-4.32007
21
5.74059
0
LINE
8
BLACK
6
CONTINUOUS
10
-4.32007
20
5.74059
11
-4.31936
21
5.74122
0
LINE
8
BLACK
6
CONTINUOUS
10
-4.31936
20
5.74122
11
-4.31373
21
5.74403
0
LINE
8
BLACK
6
CONTINUOUS
10
-4.31373
20
5.74403
11
-4.31309
21
5.74416
0
LINE
8
BLACK
6
CONTINUOUS
10
-4.31309
20
5.74416
11
-4.31252
21
5.74448
0
LINE
8
BLACK
6
CONTINUOUS
10
-4.31252
20
5.74448
11
-4.30127
21
5.74729
0
LINE
8
BLACK
6
CONTINUOUS
10
-4.30127
20
5.74729
11
-4.30055
21
5.74728
0
LINE
8
BLACK
6
CONTINUOUS
10
-4.30055
20
5.74728
11
-4.29984
21
5.74747
0
LINE
8
BLACK
6
CONTINUOUS
10
-4.29984
20
5.74747
11
-4.28578
21
5.74747
0
LINE
8
BLACK
6
CONTINUOUS
10
-4.28578
20
5.74747
11
-4.28508
21
5.74728
0
LINE
8
BLACK
6
CONTINUOUS
10
-4.29912
20
5.73566
11
-4.30903
21
5.73318
0
LINE
8
BLACK
6
CONTINUOUS
10
-4.30903
20
5.73318
11
-4.31322
21
5.73109
0
LINE
8
BLACK
6
CONTINUOUS
10
-4.31322
20
5.73109
11
-4.31467
21
5.72963
0
LINE
8
BLACK
6
CONTINUOUS
10
-4.31467
20
5.72963
11
-4.31643
21
5.72611
0
LINE
8
BLACK
6
CONTINUOUS
10
-4.31643
20
5.72611
11
-4.31643
21
5.72327
0
LINE
8
BLACK
6
CONTINUOUS
10
-4.31643
20
5.72327
11
-4.31467
21
5.71975
0
LINE
8
BLACK
6
CONTINUOUS
10
-4.31467
20
5.71975
11
-4.31322
21
5.7183
0
LINE
8
BLACK
6
CONTINUOUS
10
-4.31322
20
5.7183
11
-4.30903
21
5.7162
0
LINE
8
BLACK
6
CONTINUOUS
10
-4.30903
20
5.7162
11
-4.29912
21
5.71372
0
LINE
8
BLACK
6
CONTINUOUS
10
-4.29912
20
5.71372
11
-4.28651
21
5.71372
0
LINE
8
BLACK
6
CONTINUOUS
10
-4.28651
20
5.71372
11
-4.27659
21
5.7162
0
LINE
8
BLACK
6
CONTINUOUS
10
-4.27659
20
5.7162
11
-4.27241
21
5.7183
0
LINE
8
BLACK
6
CONTINUOUS
10
-4.27241
20
5.7183
11
-4.27095
21
5.71975
0
LINE
8
BLACK
6
CONTINUOUS
10
-4.27095
20
5.71975
11
-4.26919
21
5.72327
0
LINE
8
BLACK
6
CONTINUOUS
10
-4.26919
20
5.72327
11
-4.26919
21
5.72611
0
LINE
8
BLACK
6
CONTINUOUS
10
-4.26919
20
5.72611
11
-4.27095
21
5.72963
0
LINE
8
BLACK
6
CONTINUOUS
10
-4.27095
20
5.72963
11
-4.27241
21
5.73109
0
LINE
8
BLACK
6
CONTINUOUS
10
-4.27241
20
5.73109
11
-4.27659
21
5.73318
0
LINE
8
BLACK
6
CONTINUOUS
10
-4.27659
20
5.73318
11
-4.28651
21
5.73566
0
LINE
8
BLACK
6
CONTINUOUS
10
-4.28651
20
5.73566
11
-4.29912
21
5.73566
0
LINE
8
BLACK
6
CONTINUOUS
10
-3.89244
20
5.72684
11
-3.94992
21
5.72684
0
LINE
8
BLACK
6
CONTINUOUS
10
-3.94992
20
5.72684
11
-3.94992
21
5.76371
0
LINE
8
BLACK
6
CONTINUOUS
10
-3.94992
20
5.76371
11
-3.93944
21
5.76371
0
LINE
8
BLACK
6
CONTINUOUS
10
-3.93944
20
5.76371
11
-3.93944
21
5.73768
0
LINE
8
BLACK
6
CONTINUOUS
10
-3.93944
20
5.73768
11
-3.92752
21
5.73768
0
LINE
8
BLACK
6
CONTINUOUS
10
-3.92752
20
5.73768
11
-3.92742
21
5.74772
0
LINE
8
BLACK
6
CONTINUOUS
10
-3.92742
20
5.74772
11
-3.92733
21
5.75775
0
LINE
8
BLACK
6
CONTINUOUS
10
-3.92733
20
5.75775
11
-3.91702
21
5.75795
0
LINE
8
BLACK
6
CONTINUOUS
10
-3.91702
20
5.75795
11
-3.91702
21
5.73768
0
LINE
8
BLACK
6
CONTINUOUS
10
-3.91702
20
5.73768
11
-3.90256
21
5.73768
0
LINE
8
BLACK
6
CONTINUOUS
10
-3.90256
20
5.73768
11
-3.90256
21
5.76444
0
LINE
8
BLACK
6
CONTINUOUS
10
-3.90256
20
5.76444
11
-3.89244
21
5.76444
0
LINE
8
BLACK
6
CONTINUOUS
10
-3.89244
20
5.76444
11
-3.89244
21
5.72684
0
LINE
8
BLACK
6
CONTINUOUS
10
-4.26033
20
5.80292
11
-4.25817
21
5.80076
0
LINE
8
BLACK
6
CONTINUOUS
10
-4.25817
20
5.80076
11
-4.25738
21
5.79781
0
LINE
8
BLACK
6
CONTINUOUS
10
-4.25738
20
5.79781
11
-4.25738
21
5.76406
0
LINE
8
BLACK
6
CONTINUOUS
10
-4.25738
20
5.76406
11
-4.25817
21
5.76111
0
LINE
8
BLACK
6
CONTINUOUS
10
-4.25817
20
5.76111
11
-4.26033
21
5.75895
0
LINE
8
BLACK
6
CONTINUOUS
10
-4.26033
20
5.75895
11
-4.26328
21
5.75816
0
LINE
8
BLACK
6
CONTINUOUS
10
-4.26328
20
5.75816
11
-4.26624
21
5.75895
0
LINE
8
BLACK
6
CONTINUOUS
10
-4.26624
20
5.75895
11
-4.2684
21
5.76111
0
LINE
8
BLACK
6
CONTINUOUS
10
-4.2684
20
5.76111
11
-4.26919
21
5.76406
0
LINE
8
BLACK
6
CONTINUOUS
10
-4.26919
20
5.76406
11
-4.26919
21
5.77503
0
LINE
8
BLACK
6
CONTINUOUS
10
-4.26919
20
5.77503
11
-4.30527
21
5.77503
0
LINE
8
BLACK
6
CONTINUOUS
10
-4.30527
20
5.77503
11
-4.3041
21
5.77386
0
LINE
8
BLACK
6
CONTINUOUS
10
-4.3041
20
5.77386
11
-4.30363
21
5.77304
0
LINE
8
BLACK
6
CONTINUOUS
10
-4.30363
20
5.77304
11
-4.303
21
5.77233
0
LINE
8
BLACK
6
CONTINUOUS
10
-4.303
20
5.77233
11
-4.30018
21
5.7667
0
LINE
8
BLACK
6
CONTINUOUS
10
-4.30018
20
5.7667
11
-4.29957
21
5.76371
0
LINE
8
BLACK
6
CONTINUOUS
10
-4.29957
20
5.76371
11
-4.30054
21
5.76081
0
LINE
8
BLACK
6
CONTINUOUS
10
-4.30054
20
5.76081
11
-4.30283
21
5.75878
0
LINE
8
BLACK
6
CONTINUOUS
10
-4.30283
20
5.75878
11
-4.30582
21
5.75817
0
LINE
8
BLACK
6
CONTINUOUS
10
-4.30582
20
5.75817
11
-4.30872
21
5.75913
0
LINE
8
BLACK
6
CONTINUOUS
10
-4.30872
20
5.75913
11
-4.31075
21
5.76142
0
LINE
8
BLACK
6
CONTINUOUS
10
-4.31075
20
5.76142
11
-4.31313
21
5.76619
0
LINE
8
BLACK
6
CONTINUOUS
10
-4.31313
20
5.76619
11
-4.31767
21
5.77072
0
LINE
8
BLACK
6
CONTINUOUS
10
-4.31767
20
5.77072
11
-4.32562
21
5.77602
0
LINE
8
BLACK
6
CONTINUOUS
10
-4.32562
20
5.77602
11
-4.3265
21
5.77703
0
LINE
8
BLACK
6
CONTINUOUS
10
-4.3265
20
5.77703
11
-4.32745
21
5.77798
0
LINE
8
BLACK
6
CONTINUOUS
10
-4.32745
20
5.77798
11
-4.3275
21
5.77817
0
LINE
8
BLACK
6
CONTINUOUS
10
-4.3275
20
5.77817
11
-4.32763
21
5.77832
0
LINE
8
BLACK
6
CONTINUOUS
10
-4.32763
20
5.77832
11
-4.3279
21
5.77963
0
LINE
8
BLACK
6
CONTINUOUS
10
-4.3279
20
5.77963
11
-4.32825
21
5.78093
0
LINE
8
BLACK
6
CONTINUOUS
10
-4.32825
20
5.78093
11
-4.32819
21
5.78112
0
LINE
8
BLACK
6
CONTINUOUS
10
-4.32819
20
5.78112
11
-4.32823
21
5.78131
0
LINE
8
BLACK
6
CONTINUOUS
10
-4.32823
20
5.78131
11
-4.3278
21
5.78259
0
LINE
8
BLACK
6
CONTINUOUS
10
-4.3278
20
5.78259
11
-4.32745
21
5.78389
0
LINE
8
BLACK
6
CONTINUOUS
10
-4.32745
20
5.78389
11
-4.32732
21
5.78402
0
LINE
8
BLACK
6
CONTINUOUS
10
-4.32732
20
5.78402
11
-4.32725
21
5.78421
0
LINE
8
BLACK
6
CONTINUOUS
10
-4.32725
20
5.78421
11
-4.32624
21
5.7851
0
LINE
8
BLACK
6
CONTINUOUS
10
-4.32624
20
5.7851
11
-4.32529
21
5.78605
0
LINE
8
BLACK
6
CONTINUOUS
10
-4.32529
20
5.78605
11
-4.3251
21
5.7861
0
LINE
8
BLACK
6
CONTINUOUS
10
-4.3251
20
5.7861
11
-4.32496
21
5.78623
0
LINE
8
BLACK
6
CONTINUOUS
10
-4.32496
20
5.78623
11
-4.32364
21
5.78649
0
LINE
8
BLACK
6
CONTINUOUS
10
-4.32364
20
5.78649
11
-4.32234
21
5.78684
0
LINE
8
BLACK
6
CONTINUOUS
10
-4.32234
20
5.78684
11
-4.26919
21
5.78684
0
LINE
8
BLACK
6
CONTINUOUS
10
-4.26919
20
5.78684
11
-4.26919
21
5.79781
0
LINE
8
BLACK
6
CONTINUOUS
10
-4.26919
20
5.79781
11
-4.2684
21
5.80076
0
LINE
8
BLACK
6
CONTINUOUS
10
-4.2684
20
5.80076
11
-4.26624
21
5.80292
0
LINE
8
BLACK
6
CONTINUOUS
10
-4.26624
20
5.80292
11
-4.26328
21
5.80371
0
LINE
8
BLACK
6
CONTINUOUS
10
-4.26328
20
5.80371
11
-4.26033
21
5.80292
0
LINE
8
BLACK
6
CONTINUOUS
10
-4.57168
20
5.84189
11
-4.57035
21
5.84162
0
LINE
8
BLACK
6
CONTINUOUS
10
-4.57035
20
5.84162
11
-4.56472
21
5.83881
0
LINE
8
BLACK
6
CONTINUOUS
10
-4.56472
20
5.83881
11
-4.56401
21
5.83818
0
LINE
8
BLACK
6
CONTINUOUS
10
-4.56401
20
5.83818
11
-4.56319
21
5.8377
0
LINE
8
BLACK
6
CONTINUOUS
10
-4.56319
20
5.8377
11
-4.56038
21
5.83489
0
LINE
8
BLACK
6
CONTINUOUS
10
-4.56038
20
5.83489
11
-4.5599
21
5.83407
0
LINE
8
BLACK
6
CONTINUOUS
10
-4.5599
20
5.83407
11
-4.55927
21
5.83336
0
LINE
8
BLACK
6
CONTINUOUS
10
-4.55927
20
5.83336
11
-4.55646
21
5.82773
0
LINE
8
BLACK
6
CONTINUOUS
10
-4.55646
20
5.82773
11
-4.55619
21
5.8264
0
LINE
8
BLACK
6
CONTINUOUS
10
-4.55619
20
5.8264
11
-4.55584
21
5.82509
0
LINE
8
BLACK
6
CONTINUOUS
10
-4.55584
20
5.82509
11
-4.55584
21
5.81665
0
LINE
8
BLACK
6
CONTINUOUS
10
-4.55584
20
5.81665
11
-4.55619
21
5.81534
0
LINE
8
BLACK
6
CONTINUOUS
10
-4.55619
20
5.81534
11
-4.55646
21
5.81401
0
LINE
8
BLACK
6
CONTINUOUS
10
-4.55646
20
5.81401
11
-4.55927
21
5.80839
0
LINE
8
BLACK
6
CONTINUOUS
10
-4.55927
20
5.80839
11
-4.5599
21
5.80768
0
LINE
8
BLACK
6
CONTINUOUS
10
-4.5599
20
5.80768
11
-4.56038
21
5.80685
0
LINE
8
BLACK
6
CONTINUOUS
10
-4.56038
20
5.80685
11
-4.56319
21
5.80404
0
LINE
8
BLACK
6
CONTINUOUS
10
-4.56319
20
5.80404
11
-4.56401
21
5.80357
0
LINE
8
BLACK
6
CONTINUOUS
10
-4.56401
20
5.80357
11
-4.56472
21
5.80294
0
LINE
8
BLACK
6
CONTINUOUS
10
-4.56472
20
5.80294
11
-4.57035
21
5.80012
0
LINE
8
BLACK
6
CONTINUOUS
10
-4.57035
20
5.80012
11
-4.5705
21
5.80009
0
LINE
8
BLACK
6
CONTINUOUS
10
-4.5705
20
5.80009
11
-4.5569
21
5.78067
0
LINE
8
BLACK
6
CONTINUOUS
10
-4.5569
20
5.78067
11
-4.55586
21
5.7778
0
LINE
8
BLACK
6
CONTINUOUS
10
-4.55586
20
5.7778
11
-4.55639
21
5.77479
0
LINE
8
BLACK
6
CONTINUOUS
10
-4.55639
20
5.77479
11
-4.55835
21
5.77245
0
LINE
8
BLACK
6
CONTINUOUS
10
-4.55835
20
5.77245
11
-4.56123
21
5.7714
0
LINE
8
BLACK
6
CONTINUOUS
10
-4.56123
20
5.7714
11
-4.56424
21
5.77193
0
LINE
8
BLACK
6
CONTINUOUS
10
-4.56424
20
5.77193
11
-4.56658
21
5.7739
0
LINE
8
BLACK
6
CONTINUOUS
10
-4.56658
20
5.7739
11
-4.5845
21
5.7995
0
LINE
8
BLACK
6
CONTINUOUS
10
-4.5845
20
5.7995
11
-4.58958
21
5.7995
0
LINE
8
BLACK
6
CONTINUOUS
10
-4.58958
20
5.7995
11
-4.58958
21
5.77728
0
LINE
8
BLACK
6
CONTINUOUS
10
-4.58958
20
5.77728
11
-4.59037
21
5.77433
0
LINE
8
BLACK
6
CONTINUOUS
10
-4.59037
20
5.77433
11
-4.59253
21
5.77217
0
LINE
8
BLACK
6
CONTINUOUS
10
-4.59253
20
5.77217
11
-4.59549
21
5.77138
0
LINE
8
BLACK
6
CONTINUOUS
10
-4.59549
20
5.77138
11
-4.59844
21
5.77217
0
LINE
8
BLACK
6
CONTINUOUS
10
-4.59844
20
5.77217
11
-4.6006
21
5.77433
0
LINE
8
BLACK
6
CONTINUOUS
10
-4.6006
20
5.77433
11
-4.60139
21
5.77728
0
LINE
8
BLACK
6
CONTINUOUS
10
-4.60139
20
5.77728
11
-4.60139
21
5.83634
0
LINE
8
BLACK
6
CONTINUOUS
10
-4.60139
20
5.83634
11
-4.6006
21
5.83929
0
LINE
8
BLACK
6
CONTINUOUS
10
-4.6006
20
5.83929
11
-4.59844
21
5.84145
0
LINE
8
BLACK
6
CONTINUOUS
10
-4.59844
20
5.84145
11
-4.59549
21
5.84225
0
LINE
8
BLACK
6
CONTINUOUS
10
-4.59549
20
5.84225
11
-4.57299
21
5.84225
0
LINE
8
BLACK
6
CONTINUOUS
10
-4.57299
20
5.84225
11
-4.57168
21
5.84189
0
LINE
8
BLACK
6
CONTINUOUS
10
-4.58958
20
5.83043
11
-4.58958
21
5.81131
0
LINE
8
BLACK
6
CONTINUOUS
10
-4.58958
20
5.81131
11
-4.57438
21
5.81131
0
LINE
8
BLACK
6
CONTINUOUS
10
-4.57438
20
5.81131
11
-4.57086
21
5.81307
0
LINE
8
BLACK
6
CONTINUOUS
10
-4.57086
20
5.81307
11
-4.56941
21
5.81453
0
LINE
8
BLACK
6
CONTINUOUS
10
-4.56941
20
5.81453
11
-4.56765
21
5.81805
0
LINE
8
BLACK
6
CONTINUOUS
10
-4.56765
20
5.81805
11
-4.56765
21
5.8237
0
LINE
8
BLACK
6
CONTINUOUS
10
-4.56765
20
5.8237
11
-4.56941
21
5.82722
0
LINE
8
BLACK
6
CONTINUOUS
10
-4.56941
20
5.82722
11
-4.57086
21
5.82867
0
LINE
8
BLACK
6
CONTINUOUS
10
-4.57086
20
5.82867
11
-4.57438
21
5.83043
0
LINE
8
BLACK
6
CONTINUOUS
10
-4.57438
20
5.83043
11
-4.58958
21
5.83043
0
LINE
8
BLACK
6
CONTINUOUS
10
-4.69823
20
5.84189
11
-4.6969
21
5.84162
0
LINE
8
BLACK
6
CONTINUOUS
10
-4.6969
20
5.84162
11
-4.69127
21
5.83881
0
LINE
8
BLACK
6
CONTINUOUS
10
-4.69127
20
5.83881
11
-4.69056
21
5.83818
0
LINE
8
BLACK
6
CONTINUOUS
10
-4.69056
20
5.83818
11
-4.68974
21
5.8377
0
LINE
8
BLACK
6
CONTINUOUS
10
-4.68974
20
5.8377
11
-4.68692
21
5.83489
0
LINE
8
BLACK
6
CONTINUOUS
10
-4.68692
20
5.83489
11
-4.68645
21
5.83407
0
LINE
8
BLACK
6
CONTINUOUS
10
-4.68645
20
5.83407
11
-4.68582
21
5.83336
0
LINE
8
BLACK
6
CONTINUOUS
10
-4.68582
20
5.83336
11
-4.68301
21
5.82773
0
LINE
8
BLACK
6
CONTINUOUS
10
-4.68301
20
5.82773
11
-4.68273
21
5.8264
0
LINE
8
BLACK
6
CONTINUOUS
10
-4.68273
20
5.8264
11
-4.68238
21
5.82509
0
LINE
8
BLACK
6
CONTINUOUS
10
-4.68238
20
5.82509
11
-4.68238
21
5.81665
0
LINE
8
BLACK
6
CONTINUOUS
10
-4.68238
20
5.81665
11
-4.68273
21
5.81534
0
LINE
8
BLACK
6
CONTINUOUS
10
-4.68273
20
5.81534
11
-4.68301
21
5.81401
0
LINE
8
BLACK
6
CONTINUOUS
10
-4.68301
20
5.81401
11
-4.68582
21
5.80839
0
LINE
8
BLACK
6
CONTINUOUS
10
-4.68582
20
5.80839
11
-4.68645
21
5.80768
0
LINE
8
BLACK
6
CONTINUOUS
10
-4.68645
20
5.80768
11
-4.68692
21
5.80685
0
LINE
8
BLACK
6
CONTINUOUS
10
-4.68692
20
5.80685
11
-4.68974
21
5.80404
0
LINE
8
BLACK
6
CONTINUOUS
10
-4.68974
20
5.80404
11
-4.69056
21
5.80357
0
LINE
8
BLACK
6
CONTINUOUS
10
-4.69056
20
5.80357
11
-4.69127
21
5.80294
0
LINE
8
BLACK
6
CONTINUOUS
10
-4.69127
20
5.80294
11
-4.6969
21
5.80012
0
LINE
8
BLACK
6
CONTINUOUS
10
-4.6969
20
5.80012
11
-4.69823
21
5.79985
0
LINE
8
BLACK
6
CONTINUOUS
10
-4.69823
20
5.79985
11
-4.69954
21
5.7995
0
LINE
8
BLACK
6
CONTINUOUS
10
-4.69954
20
5.7995
11
-4.71613
21
5.7995
0
LINE
8
BLACK
6
CONTINUOUS
10
-4.71613
20
5.7995
11
-4.71613
21
5.77728
0
LINE
8
BLACK
6
CONTINUOUS
10
-4.71613
20
5.77728
11
-4.71692
21
5.77433
0
LINE
8
BLACK
6
CONTINUOUS
10
-4.71692
20
5.77433
11
-4.71908
21
5.77217
0
LINE
8
BLACK
6
CONTINUOUS
10
-4.71908
20
5.77217
11
-4.72203
21
5.77138
0
LINE
8
BLACK
6
CONTINUOUS
10
-4.72203
20
5.77138
11
-4.72499
21
5.77217
0
LINE
8
BLACK
6
CONTINUOUS
10
-4.72499
20
5.77217
11
-4.72715
21
5.77433
0
LINE
8
BLACK
6
CONTINUOUS
10
-4.72715
20
5.77433
11
-4.72794
21
5.77728
0
LINE
8
BLACK
6
CONTINUOUS
10
-4.72794
20
5.77728
11
-4.72794
21
5.83634
0
LINE
8
BLACK
6
CONTINUOUS
10
-4.72794
20
5.83634
11
-4.72715
21
5.83929
0
LINE
8
BLACK
6
CONTINUOUS
10
-4.72715
20
5.83929
11
-4.72499
21
5.84145
0
LINE
8
BLACK
6
CONTINUOUS
10
-4.72499
20
5.84145
11
-4.72203
21
5.84225
0
LINE
8
BLACK
6
CONTINUOUS
10
-4.72203
20
5.84225
11
-4.69954
21
5.84225
0
LINE
8
BLACK
6
CONTINUOUS
10
-4.69954
20
5.84225
11
-4.69823
21
5.84189
0
LINE
8
BLACK
6
CONTINUOUS
10
-4.71613
20
5.83043
11
-4.71613
21
5.81131
0
LINE
8
BLACK
6
CONTINUOUS
10
-4.71613
20
5.81131
11
-4.70093
21
5.81131
0
LINE
8
BLACK
6
CONTINUOUS
10
-4.70093
20
5.81131
11
-4.69741
21
5.81307
0
LINE
8
BLACK
6
CONTINUOUS
10
-4.69741
20
5.81307
11
-4.69595
21
5.81453
0
LINE
8
BLACK
6
CONTINUOUS
10
-4.69595
20
5.81453
11
-4.69419
21
5.81805
0
LINE
8
BLACK
6
CONTINUOUS
10
-4.69419
20
5.81805
11
-4.69419
21
5.8237
0
LINE
8
BLACK
6
CONTINUOUS
10
-4.69419
20
5.8237
11
-4.69595
21
5.82722
0
LINE
8
BLACK
6
CONTINUOUS
10
-4.69595
20
5.82722
11
-4.69741
21
5.82867
0
LINE
8
BLACK
6
CONTINUOUS
10
-4.69741
20
5.82867
11
-4.70093
21
5.83043
0
LINE
8
BLACK
6
CONTINUOUS
10
-4.70093
20
5.83043
11
-4.71613
21
5.83043
0
LINE
8
BLACK
6
CONTINUOUS
10
-4.61393
20
5.84063
11
-4.61233
21
5.83803
0
LINE
8
BLACK
6
CONTINUOUS
10
-4.61233
20
5.83803
11
-4.61224
21
5.83497
0
LINE
8
BLACK
6
CONTINUOUS
10
-4.61224
20
5.83497
11
-4.6263
21
5.77592
0
LINE
8
BLACK
6
CONTINUOUS
10
-4.6263
20
5.77592
11
-4.62634
21
5.77584
0
LINE
8
BLACK
6
CONTINUOUS
10
-4.62634
20
5.77584
11
-4.62634
21
5.77575
0
LINE
8
BLACK
6
CONTINUOUS
10
-4.62634
20
5.77575
11
-4.62707
21
5.7745
0
LINE
8
BLACK
6
CONTINUOUS
10
-4.62707
20
5.7745
11
-4.62775
21
5.77323
0
LINE
8
BLACK
6
CONTINUOUS
10
-4.62775
20
5.77323
11
-4.62783
21
5.77318
0
LINE
8
BLACK
6
CONTINUOUS
10
-4.62783
20
5.77318
11
-4.62787
21
5.7731
0
LINE
8
BLACK
6
CONTINUOUS
10
-4.62787
20
5.7731
11
-4.62913
21
5.77238
0
LINE
8
BLACK
6
CONTINUOUS
10
-4.62913
20
5.77238
11
-4.63036
21
5.77163
0
LINE
8
BLACK
6
CONTINUOUS
10
-4.63036
20
5.77163
11
-4.63045
21
5.77162
0
LINE
8
BLACK
6
CONTINUOUS
10
-4.63045
20
5.77162
11
-4.63052
21
5.77158
0
LINE
8
BLACK
6
CONTINUOUS
10
-4.63052
20
5.77158
11
-4.63197
21
5.77158
0
LINE
8
BLACK
6
CONTINUOUS
10
-4.63197
20
5.77158
11
-4.63341
21
5.77154
0
LINE
8
BLACK
6
CONTINUOUS
10
-4.63341
20
5.77154
11
-4.63349
21
5.77158
0
LINE
8
BLACK
6
CONTINUOUS
10
-4.63349
20
5.77158
11
-4.63358
21
5.77158
0
LINE
8
BLACK
6
CONTINUOUS
10
-4.63358
20
5.77158
11
-4.63483
21
5.77231
0
LINE
8
BLACK
6
CONTINUOUS
10
-4.63483
20
5.77231
11
-4.6361
21
5.77299
0
LINE
8
BLACK
6
CONTINUOUS
10
-4.6361
20
5.77299
11
-4.63615
21
5.77307
0
LINE
8
BLACK
6
CONTINUOUS
10
-4.63615
20
5.77307
11
-4.63623
21
5.77311
0
LINE
8
BLACK
6
CONTINUOUS
10
-4.63623
20
5.77311
11
-4.63695
21
5.77437
0
LINE
8
BLACK
6
CONTINUOUS
10
-4.63695
20
5.77437
11
-4.6377
21
5.7756
0
LINE
8
BLACK
6
CONTINUOUS
10
-4.6377
20
5.7756
11
-4.63771
21
5.77569
0
LINE
8
BLACK
6
CONTINUOUS
10
-4.63771
20
5.77569
11
-4.63775
21
5.77576
0
LINE
8
BLACK
6
CONTINUOUS
10
-4.63775
20
5.77576
11
-4.64329
21
5.79655
0
LINE
8
BLACK
6
CONTINUOUS
10
-4.64329
20
5.79655
11
-4.64884
21
5.77576
0
LINE
8
BLACK
6
CONTINUOUS
10
-4.64884
20
5.77576
11
-4.64888
21
5.77569
0
LINE
8
BLACK
6
CONTINUOUS
10
-4.64888
20
5.77569
11
-4.64888
21
5.7756
0
LINE
8
BLACK
6
CONTINUOUS
10
-4.64888
20
5.7756
11
-4.64964
21
5.77437
0
LINE
8
BLACK
6
CONTINUOUS
10
-4.64964
20
5.77437
11
-4.65036
21
5.77311
0
LINE
8
BLACK
6
CONTINUOUS
10
-4.65036
20
5.77311
11
-4.65044
21
5.77307
0
LINE
8
BLACK
6
CONTINUOUS
10
-4.65044
20
5.77307
11
-4.65049
21
5.77299
0
LINE
8
BLACK
6
CONTINUOUS
10
-4.65049
20
5.77299
11
-4.65176
21
5.77231
0
LINE
8
BLACK
6
CONTINUOUS
10
-4.65176
20
5.77231
11
-4.65301
21
5.77158
0
LINE
8
BLACK
6
CONTINUOUS
10
-4.65301
20
5.77158
11
-4.6531
21
5.77158
0
LINE
8
BLACK
6
CONTINUOUS
10
-4.6531
20
5.77158
11
-4.65317
21
5.77154
0
LINE
8
BLACK
6
CONTINUOUS
10
-4.65317
20
5.77154
11
-4.65462
21
5.77158
0
LINE
8
BLACK
6
CONTINUOUS
10
-4.65462
20
5.77158
11
-4.65606
21
5.77158
0
LINE
8
BLACK
6
CONTINUOUS
10
-4.65606
20
5.77158
11
-4.65614
21
5.77162
0
LINE
8
BLACK
6
CONTINUOUS
10
-4.65614
20
5.77162
11
-4.65623
21
5.77163
0
LINE
8
BLACK
6
CONTINUOUS
10
-4.65623
20
5.77163
11
-4.65746
21
5.77238
0
LINE
8
BLACK
6
CONTINUOUS
10
-4.65746
20
5.77238
11
-4.65871
21
5.7731
0
LINE
8
BLACK
6
CONTINUOUS
10
-4.65871
20
5.7731
11
-4.65876
21
5.77318
0
LINE
8
BLACK
6
CONTINUOUS
10
-4.65876
20
5.77318
11
-4.65883
21
5.77323
0
LINE
8
BLACK
6
CONTINUOUS
10
-4.65883
20
5.77323
11
-4.65952
21
5.7745
0
LINE
8
BLACK
6
CONTINUOUS
10
-4.65952
20
5.7745
11
-4.66024
21
5.77575
0
LINE
8
BLACK
6
CONTINUOUS
10
-4.66024
20
5.77575
11
-4.66024
21
5.77584
0
LINE
8
BLACK
6
CONTINUOUS
10
-4.66024
20
5.77584
11
-4.66029
21
5.77592
0
LINE
8
BLACK
6
CONTINUOUS
10
-4.66029
20
5.77592
11
-4.67435
21
5.83497
0
LINE
8
BLACK
6
CONTINUOUS
10
-4.67435
20
5.83497
11
-4.67426
21
5.83803
0
LINE
8
BLACK
6
CONTINUOUS
10
-4.67426
20
5.83803
11
-4.67266
21
5.84063
0
LINE
8
BLACK
6
CONTINUOUS
10
-4.67266
20
5.84063
11
-4.66997
21
5.84208
0
LINE
8
BLACK
6
CONTINUOUS
10
-4.66997
20
5.84208
11
-4.66692
21
5.842
0
LINE
8
BLACK
6
CONTINUOUS
10
-4.66692
20
5.842
11
-4.66431
21
5.8404
0
LINE
8
BLACK
6
CONTINUOUS
10
-4.66431
20
5.8404
11
-4.66286
21
5.83771
0
LINE
8
BLACK
6
CONTINUOUS
10
-4.66286
20
5.83771
11
-4.65422
21
5.80142
0
LINE
8
BLACK
6
CONTINUOUS
10
-4.65422
20
5.80142
11
-4.649
21
5.82099
0
LINE
8
BLACK
6
CONTINUOUS
10
-4.649
20
5.82099
11
-4.649
21
5.82099
0
LINE
8
BLACK
6
CONTINUOUS
10
-4.649
20
5.82099
11
-4.649
21
5.821
0
LINE
8
BLACK
6
CONTINUOUS
10
-4.649
20
5.821
11
-4.64823
21
5.82233
0
LINE
8
BLACK
6
CONTINUOUS
10
-4.64823
20
5.82233
11
-4.64747
21
5.82364
0
LINE
8
BLACK
6
CONTINUOUS
10
-4.64747
20
5.82364
11
-4.64747
21
5.82364
0
LINE
8
BLACK
6
CONTINUOUS
10
-4.64747
20
5.82364
11
-4.64746
21
5.82365
0
LINE
8
BLACK
6
CONTINUOUS
10
-4.64746
20
5.82365
11
-4.64615
21
5.8244
0
LINE
8
BLACK
6
CONTINUOUS
10
-4.64615
20
5.8244
11
-4.64483
21
5.82517
0
LINE
8
BLACK
6
CONTINUOUS
10
-4.64483
20
5.82517
11
-4.64482
21
5.82517
0
LINE
8
BLACK
6
CONTINUOUS
10
-4.64482
20
5.82517
11
-4.64482
21
5.82517
0
LINE
8
BLACK
6
CONTINUOUS
10
-4.64482
20
5.82517
11
-4.64329
21
5.82517
0
LINE
8
BLACK
6
CONTINUOUS
10
-4.64329
20
5.82517
11
-4.64177
21
5.82517
0
LINE
8
BLACK
6
CONTINUOUS
10
-4.64177
20
5.82517
11
-4.64177
21
5.82517
0
LINE
8
BLACK
6
CONTINUOUS
10
-4.64177
20
5.82517
11
-4.64176
21
5.82517
0
LINE
8
BLACK
6
CONTINUOUS
10
-4.64176
20
5.82517
11
-4.64044
21
5.8244
0
LINE
8
BLACK
6
CONTINUOUS
10
-4.64044
20
5.8244
11
-4.63912
21
5.82365
0
LINE
8
BLACK
6
CONTINUOUS
10
-4.63912
20
5.82365
11
-4.63912
21
5.82364
0
LINE
8
BLACK
6
CONTINUOUS
10
-4.63912
20
5.82364
11
-4.63911
21
5.82364
0
LINE
8
BLACK
6
CONTINUOUS
10
-4.63911
20
5.82364
11
-4.63835
21
5.82232
0
LINE
8
BLACK
6
CONTINUOUS
10
-4.63835
20
5.82232
11
-4.63759
21
5.821
0
LINE
8
BLACK
6
CONTINUOUS
10
-4.63759
20
5.821
11
-4.63759
21
5.82099
0
LINE
8
BLACK
6
CONTINUOUS
10
-4.63759
20
5.82099
11
-4.63759
21
5.82099
0
LINE
8
BLACK
6
CONTINUOUS
10
-4.63759
20
5.82099
11
-4.63237
21
5.80142
0
LINE
8
BLACK
6
CONTINUOUS
10
-4.63237
20
5.80142
11
-4.62373
21
5.83771
0
LINE
8
BLACK
6
CONTINUOUS
10
-4.62373
20
5.83771
11
-4.62228
21
5.8404
0
LINE
8
BLACK
6
CONTINUOUS
10
-4.62228
20
5.8404
11
-4.61967
21
5.842
0
LINE
8
BLACK
6
CONTINUOUS
10
-4.61967
20
5.842
11
-4.61662
21
5.84208
0
LINE
8
BLACK
6
CONTINUOUS
10
-4.61662
20
5.84208
11
-4.61393
21
5.84063
0
LINE
8
BLACK
6
CONTINUOUS
10
-3.94971
20
5.78522
11
-3.9497
21
5.78901
0
LINE
8
BLACK
6
CONTINUOUS
10
-3.9497
20
5.78901
11
-3.94966
21
5.79216
0
LINE
8
BLACK
6
CONTINUOUS
10
-3.94966
20
5.79216
11
-3.9496
21
5.79476
0
LINE
8
BLACK
6
CONTINUOUS
10
-3.9496
20
5.79476
11
-3.94949
21
5.7969
0
LINE
8
BLACK
6
CONTINUOUS
10
-3.94949
20
5.7969
11
-3.94934
21
5.79865
0
LINE
8
BLACK
6
CONTINUOUS
10
-3.94934
20
5.79865
11
-3.94913
21
5.80011
0
LINE
8
BLACK
6
CONTINUOUS
10
-3.94913
20
5.80011
11
-3.94885
21
5.80136
0
LINE
8
BLACK
6
CONTINUOUS
10
-3.94885
20
5.80136
11
-3.94849
21
5.80249
0
LINE
8
BLACK
6
CONTINUOUS
10
-3.94849
20
5.80249
11
-3.94804
21
5.80358
0
LINE
8
BLACK
6
CONTINUOUS
10
-3.94804
20
5.80358
11
-3.94749
21
5.80472
0
LINE
8
BLACK
6
CONTINUOUS
10
-3.94749
20
5.80472
11
-3.94744
21
5.80484
0
LINE
8
BLACK
6
CONTINUOUS
10
-3.94744
20
5.80484
11
-3.94562
21
5.8077
0
LINE
8
BLACK
6
CONTINUOUS
10
-3.94562
20
5.8077
11
-3.94338
21
5.80998
0
LINE
8
BLACK
6
CONTINUOUS
10
-3.94338
20
5.80998
11
-3.94071
21
5.81169
0
LINE
8
BLACK
6
CONTINUOUS
10
-3.94071
20
5.81169
11
-3.93787
21
5.81274
0
LINE
8
BLACK
6
CONTINUOUS
10
-3.93787
20
5.81274
11
-3.93598
21
5.81308
0
LINE
8
BLACK
6
CONTINUOUS
10
-3.93598
20
5.81308
11
-3.93369
21
5.81324
0
LINE
8
BLACK
6
CONTINUOUS
10
-3.93369
20
5.81324
11
-3.93124
21
5.81323
0
LINE
8
BLACK
6
CONTINUOUS
10
-3.93124
20
5.81323
11
-3.92887
21
5.81306
0
LINE
8
BLACK
6
CONTINUOUS
10
-3.92887
20
5.81306
11
-3.92684
21
5.81273
0
LINE
8
BLACK
6
CONTINUOUS
10
-3.92684
20
5.81273
11
-3.92599
21
5.8125
0
LINE
8
BLACK
6
CONTINUOUS
10
-3.92599
20
5.8125
11
-3.92295
21
5.8111
0
LINE
8
BLACK
6
CONTINUOUS
10
-3.92295
20
5.8111
11
-3.92032
21
5.80911
0
LINE
8
BLACK
6
CONTINUOUS
10
-3.92032
20
5.80911
11
-3.9181
21
5.80653
0
LINE
8
BLACK
6
CONTINUOUS
10
-3.9181
20
5.80653
11
-3.91741
21
5.80547
0
LINE
8
BLACK
6
CONTINUOUS
10
-3.91741
20
5.80547
11
-3.91687
21
5.80459
0
LINE
8
BLACK
6
CONTINUOUS
10
-3.91687
20
5.80459
11
-3.91651
21
5.804
0
LINE
8
BLACK
6
CONTINUOUS
10
-3.91651
20
5.804
11
-3.91644
21
5.80389
0
LINE
8
BLACK
6
CONTINUOUS
10
-3.91644
20
5.80389
11
-3.91611
21
5.80403
0
LINE
8
BLACK
6
CONTINUOUS
10
-3.91611
20
5.80403
11
-3.91522
21
5.80447
0
LINE
8
BLACK
6
CONTINUOUS
10
-3.91522
20
5.80447
11
-3.91383
21
5.80519
0
LINE
8
BLACK
6
CONTINUOUS
10
-3.91383
20
5.80519
11
-3.91202
21
5.80613
0
LINE
8
BLACK
6
CONTINUOUS
10
-3.91202
20
5.80613
11
-3.90986
21
5.80727
0
LINE
8
BLACK
6
CONTINUOUS
10
-3.90986
20
5.80727
11
-3.90742
21
5.80857
0
LINE
8
BLACK
6
CONTINUOUS
10
-3.90742
20
5.80857
11
-3.90477
21
5.81
0
LINE
8
BLACK
6
CONTINUOUS
10
-3.90477
20
5.81
11
-3.90469
21
5.81004
0
LINE
8
BLACK
6
CONTINUOUS
10
-3.90469
20
5.81004
11
-3.90202
21
5.81148
0
LINE
8
BLACK
6
CONTINUOUS
10
-3.90202
20
5.81148
11
-3.89955
21
5.8128
0
LINE
8
BLACK
6
CONTINUOUS
10
-3.89955
20
5.8128
11
-3.89735
21
5.81398
0
LINE
8
BLACK
6
CONTINUOUS
10
-3.89735
20
5.81398
11
-3.8955
21
5.81497
0
LINE
8
BLACK
6
CONTINUOUS
10
-3.8955
20
5.81497
11
-3.89407
21
5.81574
0
LINE
8
BLACK
6
CONTINUOUS
10
-3.89407
20
5.81574
11
-3.89312
21
5.81624
0
LINE
8
BLACK
6
CONTINUOUS
10
-3.89312
20
5.81624
11
-3.89274
21
5.81644
0
LINE
8
BLACK
6
CONTINUOUS
10
-3.89274
20
5.81644
11
-3.89274
21
5.81644
0
LINE
8
BLACK
6
CONTINUOUS
10
-3.89274
20
5.81644
11
-3.89264
21
5.81614
0
LINE
8
BLACK
6
CONTINUOUS
10
-3.89264
20
5.81614
11
-3.89255
21
5.81523
0
LINE
8
BLACK
6
CONTINUOUS
10
-3.89255
20
5.81523
11
-3.89249
21
5.81383
0
LINE
8
BLACK
6
CONTINUOUS
10
-3.89249
20
5.81383
11
-3.89245
21
5.81206
0
LINE
8
BLACK
6
CONTINUOUS
10
-3.89245
20
5.81206
11
-3.89244
21
5.81059
0
LINE
8
BLACK
6
CONTINUOUS
10
-3.89244
20
5.81059
11
-3.89244
21
5.80463
0
LINE
8
BLACK
6
CONTINUOUS
10
-3.89244
20
5.80463
11
-3.90283
21
5.79924
0
LINE
8
BLACK
6
CONTINUOUS
10
-3.90283
20
5.79924
11
-3.91323
21
5.79385
0
LINE
8
BLACK
6
CONTINUOUS
10
-3.91323
20
5.79385
11
-3.91343
21
5.78324
0
LINE
8
BLACK
6
CONTINUOUS
10
-3.91343
20
5.78324
11
-3.89244
21
5.78324
0
LINE
8
BLACK
6
CONTINUOUS
10
-3.89244
20
5.78324
11
-3.89244
21
5.77239
0
LINE
8
BLACK
6
CONTINUOUS
10
-3.89244
20
5.77239
11
-3.92109
21
5.77248
0
LINE
8
BLACK
6
CONTINUOUS
10
-3.92109
20
5.77248
11
-3.92236
21
5.77248
0
LINE
8
BLACK
6
CONTINUOUS
10
-3.92236
20
5.77248
11
-3.94974
21
5.77257
0
LINE
8
BLACK
6
CONTINUOUS
10
-3.94974
20
5.77257
11
-3.94971
21
5.78522
0
LINE
8
BLACK
6
CONTINUOUS
10
-3.93163
20
5.80216
11
-3.93432
21
5.8019
0
LINE
8
BLACK
6
CONTINUOUS
10
-3.93432
20
5.8019
11
-3.93657
21
5.80107
0
LINE
8
BLACK
6
CONTINUOUS
10
-3.93657
20
5.80107
11
-3.93835
21
5.79971
0
LINE
8
BLACK
6
CONTINUOUS
10
-3.93835
20
5.79971
11
-3.93965
21
5.7978
0
LINE
8
BLACK
6
CONTINUOUS
10
-3.93965
20
5.7978
11
-3.94001
21
5.79697
0
LINE
8
BLACK
6
CONTINUOUS
10
-3.94001
20
5.79697
11
-3.94028
21
5.79599
0
LINE
8
BLACK
6
CONTINUOUS
10
-3.94028
20
5.79599
11
-3.94049
21
5.7946
0
LINE
8
BLACK
6
CONTINUOUS
10
-3.94049
20
5.7946
11
-3.94065
21
5.79271
0
LINE
8
BLACK
6
CONTINUOUS
10
-3.94065
20
5.79271
11
-3.94076
21
5.79023
0
LINE
8
BLACK
6
CONTINUOUS
10
-3.94076
20
5.79023
11
-3.94079
21
5.78929
0
LINE
8
BLACK
6
CONTINUOUS
10
-3.94079
20
5.78929
11
-3.94098
21
5.78324
0
LINE
8
BLACK
6
CONTINUOUS
10
-3.94098
20
5.78324
11
-3.92236
21
5.78324
0
LINE
8
BLACK
6
CONTINUOUS
10
-3.92236
20
5.78324
11
-3.92253
21
5.78911
0
LINE
8
BLACK
6
CONTINUOUS
10
-3.92253
20
5.78911
11
-3.92264
21
5.79177
0
LINE
8
BLACK
6
CONTINUOUS
10
-3.92264
20
5.79177
11
-3.92279
21
5.79381
0
LINE
8
BLACK
6
CONTINUOUS
10
-3.92279
20
5.79381
11
-3.92298
21
5.79532
0
LINE
8
BLACK
6
CONTINUOUS
10
-3.92298
20
5.79532
11
-3.92324
21
5.79639
0
LINE
8
BLACK
6
CONTINUOUS
10
-3.92324
20
5.79639
11
-3.92331
21
5.79659
0
LINE
8
BLACK
6
CONTINUOUS
10
-3.92331
20
5.79659
11
-3.92444
21
5.79884
0
LINE
8
BLACK
6
CONTINUOUS
10
-3.92444
20
5.79884
11
-3.92597
21
5.80049
0
LINE
8
BLACK
6
CONTINUOUS
10
-3.92597
20
5.80049
11
-3.92791
21
5.80157
0
LINE
8
BLACK
6
CONTINUOUS
10
-3.92791
20
5.80157
11
-3.93031
21
5.8021
0
LINE
8
BLACK
6
CONTINUOUS
10
-3.93031
20
5.8021
11
-3.93163
21
5.80216
0
LINE
8
BLACK
6
CONTINUOUS
10
-4.81077
20
5.85368
11
-4.81008
21
5.85201
0
LINE
8
BLACK
6
CONTINUOUS
10
-4.81008
20
5.85201
11
-4.81008
21
5.7835
0
LINE
8
BLACK
6
CONTINUOUS
10
-4.81008
20
5.7835
11
-4.77346
21
5.7835
0
LINE
8
BLACK
6
CONTINUOUS
10
-4.77346
20
5.7835
11
-4.77179
21
5.78281
0
LINE
8
BLACK
6
CONTINUOUS
10
-4.77179
20
5.78281
11
-4.7711
21
5.78114
0
LINE
8
BLACK
6
CONTINUOUS
10
-4.7711
20
5.78114
11
-4.77179
21
5.77947
0
LINE
8
BLACK
6
CONTINUOUS
10
-4.77179
20
5.77947
11
-4.77346
21
5.77878
0
LINE
8
BLACK
6
CONTINUOUS
10
-4.77346
20
5.77878
11
-4.81244
21
5.77878
0
LINE
8
BLACK
6
CONTINUOUS
10
-4.81244
20
5.77878
11
-4.81411
21
5.77947
0
LINE
8
BLACK
6
CONTINUOUS
10
-4.81411
20
5.77947
11
-4.8148
21
5.78114
0
LINE
8
BLACK
6
CONTINUOUS
10
-4.8148
20
5.78114
11
-4.8148
21
5.84965
0
LINE
8
BLACK
6
CONTINUOUS
10
-4.8148
20
5.84965
11
-4.86953
21
5.84965
0
LINE
8
BLACK
6
CONTINUOUS
10
-4.86953
20
5.84965
11
-4.8712
21
5.85034
0
LINE
8
BLACK
6
CONTINUOUS
10
-4.8712
20
5.85034
11
-4.87189
21
5.85201
0
LINE
8
BLACK
6
CONTINUOUS
10
-4.87189
20
5.85201
11
-4.8712
21
5.85368
0
LINE
8
BLACK
6
CONTINUOUS
10
-4.8712
20
5.85368
11
-4.86953
21
5.85437
0
LINE
8
BLACK
6
CONTINUOUS
10
-4.86953
20
5.85437
11
-4.81244
21
5.85437
0
LINE
8
BLACK
6
CONTINUOUS
10
-4.81244
20
5.85437
11
-4.81077
21
5.85368
0
LINE
8
BLACK
6
CONTINUOUS
10
-3.85321
20
5.82423
11
-3.84893
21
5.82347
0
LINE
8
BLACK
6
CONTINUOUS
10
-3.84893
20
5.82347
11
-3.84478
21
5.82274
0
LINE
8
BLACK
6
CONTINUOUS
10
-3.84478
20
5.82274
11
-3.84083
21
5.82205
0
LINE
8
BLACK
6
CONTINUOUS
10
-3.84083
20
5.82205
11
-3.83715
21
5.8214
0
LINE
8
BLACK
6
CONTINUOUS
10
-3.83715
20
5.8214
11
-3.8338
21
5.82081
0
LINE
8
BLACK
6
CONTINUOUS
10
-3.8338
20
5.82081
11
-3.83085
21
5.82029
0
LINE
8
BLACK
6
CONTINUOUS
10
-3.83085
20
5.82029
11
-3.82837
21
5.81986
0
LINE
8
BLACK
6
CONTINUOUS
10
-3.82837
20
5.81986
11
-3.82642
21
5.81951
0
LINE
8
BLACK
6
CONTINUOUS
10
-3.82642
20
5.81951
11
-3.82508
21
5.81927
0
LINE
8
BLACK
6
CONTINUOUS
10
-3.82508
20
5.81927
11
-3.82456
21
5.81918
0
LINE
8
BLACK
6
CONTINUOUS
10
-3.82456
20
5.81918
11
-3.82122
21
5.81858
0
LINE
8
BLACK
6
CONTINUOUS
10
-3.82122
20
5.81858
11
-3.82122
21
5.81338
0
LINE
8
BLACK
6
CONTINUOUS
10
-3.82122
20
5.81338
11
-3.82122
21
5.81135
0
LINE
8
BLACK
6
CONTINUOUS
10
-3.82122
20
5.81135
11
-3.82124
21
5.80993
0
LINE
8
BLACK
6
CONTINUOUS
10
-3.82124
20
5.80993
11
-3.8213
21
5.80901
0
LINE
8
BLACK
6
CONTINUOUS
10
-3.8213
20
5.80901
11
-3.82141
21
5.80849
0
LINE
8
BLACK
6
CONTINUOUS
10
-3.82141
20
5.80849
11
-3.82159
21
5.80825
0
LINE
8
BLACK
6
CONTINUOUS
10
-3.82159
20
5.80825
11
-3.82186
21
5.80818
0
LINE
8
BLACK
6
CONTINUOUS
10
-3.82186
20
5.80818
11
-3.82199
21
5.80818
0
LINE
8
BLACK
6
CONTINUOUS
10
-3.82199
20
5.80818
11
-3.82245
21
5.80824
0
LINE
8
BLACK
6
CONTINUOUS
10
-3.82245
20
5.80824
11
-3.82355
21
5.80842
0
LINE
8
BLACK
6
CONTINUOUS
10
-3.82355
20
5.80842
11
-3.82522
21
5.80869
0
LINE
8
BLACK
6
CONTINUOUS
10
-3.82522
20
5.80869
11
-3.82739
21
5.80906
0
LINE
8
BLACK
6
CONTINUOUS
10
-3.82739
20
5.80906
11
-3.83001
21
5.80951
0
LINE
8
BLACK
6
CONTINUOUS
10
-3.83001
20
5.80951
11
-3.83301
21
5.81002
0
LINE
8
BLACK
6
CONTINUOUS
10
-3.83301
20
5.81002
11
-3.83632
21
5.81059
0
LINE
8
BLACK
6
CONTINUOUS
10
-3.83632
20
5.81059
11
-3.83987
21
5.81121
0
LINE
8
BLACK
6
CONTINUOUS
10
-3.83987
20
5.81121
11
-3.8436
21
5.81185
0
LINE
8
BLACK
6
CONTINUOUS
10
-3.8436
20
5.81185
11
-3.84744
21
5.81253
0
LINE
8
BLACK
6
CONTINUOUS
10
-3.84744
20
5.81253
11
-3.85133
21
5.81321
0
LINE
8
BLACK
6
CONTINUOUS
10
-3.85133
20
5.81321
11
-3.85521
21
5.81389
0
LINE
8
BLACK
6
CONTINUOUS
10
-3.85521
20
5.81389
11
-3.859
21
5.81455
0
LINE
8
BLACK
6
CONTINUOUS
10
-3.859
20
5.81455
11
-3.86264
21
5.81519
0
LINE
8
BLACK
6
CONTINUOUS
10
-3.86264
20
5.81519
11
-3.86607
21
5.8158
0
LINE
8
BLACK
6
CONTINUOUS
10
-3.86607
20
5.8158
11
-3.86922
21
5.81636
0
LINE
8
BLACK
6
CONTINUOUS
10
-3.86922
20
5.81636
11
-3.87202
21
5.81686
0
LINE
8
BLACK
6
CONTINUOUS
10
-3.87202
20
5.81686
11
-3.87441
21
5.81729
0
LINE
8
BLACK
6
CONTINUOUS
10
-3.87441
20
5.81729
11
-3.87633
21
5.81765
0
LINE
8
BLACK
6
CONTINUOUS
10
-3.87633
20
5.81765
11
-3.8777
21
5.8179
0
LINE
8
BLACK
6
CONTINUOUS
10
-3.8777
20
5.8179
11
-3.87847
21
5.81805
0
LINE
8
BLACK
6
CONTINUOUS
10
-3.87847
20
5.81805
11
-3.87861
21
5.81809
0
LINE
8
BLACK
6
CONTINUOUS
10
-3.87861
20
5.81809
11
-3.87864
21
5.81847
0
LINE
8
BLACK
6
CONTINUOUS
10
-3.87864
20
5.81847
11
-3.87866
21
5.81945
0
LINE
8
BLACK
6
CONTINUOUS
10
-3.87866
20
5.81945
11
-3.87865
21
5.82088
0
LINE
8
BLACK
6
CONTINUOUS
10
-3.87865
20
5.82088
11
-3.87863
21
5.82265
0
LINE
8
BLACK
6
CONTINUOUS
10
-3.87863
20
5.82265
11
-3.87862
21
5.82344
0
LINE
8
BLACK
6
CONTINUOUS
10
-3.87862
20
5.82344
11
-3.87852
21
5.82867
0
LINE
8
BLACK
6
CONTINUOUS
10
-3.87852
20
5.82867
11
-3.85321
21
5.82423
0
LINE
8
BLACK
6
CONTINUOUS
10
-4.32529
20
5.818
11
-4.32745
21
5.82016
0
LINE
8
BLACK
6
CONTINUOUS
10
-4.32745
20
5.82016
11
-4.32825
21
5.82312
0
LINE
8
BLACK
6
CONTINUOUS
10
-4.32825
20
5.82312
11
-4.32825
21
5.8428
0
LINE
8
BLACK
6
CONTINUOUS
10
-4.32825
20
5.8428
11
-4.32789
21
5.84411
0
LINE
8
BLACK
6
CONTINUOUS
10
-4.32789
20
5.84411
11
-4.32762
21
5.84544
0
LINE
8
BLACK
6
CONTINUOUS
10
-4.32762
20
5.84544
11
-4.32481
21
5.85107
0
LINE
8
BLACK
6
CONTINUOUS
10
-4.32481
20
5.85107
11
-4.32418
21
5.85178
0
LINE
8
BLACK
6
CONTINUOUS
10
-4.32418
20
5.85178
11
-4.3237
21
5.8526
0
LINE
8
BLACK
6
CONTINUOUS
10
-4.3237
20
5.8526
11
-4.32089
21
5.85541
0
LINE
8
BLACK
6
CONTINUOUS
10
-4.32089
20
5.85541
11
-4.32007
21
5.85589
0
LINE
8
BLACK
6
CONTINUOUS
10
-4.32007
20
5.85589
11
-4.31936
21
5.85652
0
LINE
8
BLACK
6
CONTINUOUS
10
-4.31936
20
5.85652
11
-4.31373
21
5.85933
0
LINE
8
BLACK
6
CONTINUOUS
10
-4.31373
20
5.85933
11
-4.3124
21
5.8596
0
LINE
8
BLACK
6
CONTINUOUS
10
-4.3124
20
5.8596
11
-4.31109
21
5.85996
0
LINE
8
BLACK
6
CONTINUOUS
10
-4.31109
20
5.85996
11
-4.30547
21
5.85996
0
LINE
8
BLACK
6
CONTINUOUS
10
-4.30547
20
5.85996
11
-4.30416
21
5.8596
0
LINE
8
BLACK
6
CONTINUOUS
10
-4.30416
20
5.8596
11
-4.30283
21
5.85933
0
LINE
8
BLACK
6
CONTINUOUS
10
-4.30283
20
5.85933
11
-4.2972
21
5.85652
0
LINE
8
BLACK
6
CONTINUOUS
10
-4.2972
20
5.85652
11
-4.29649
21
5.85589
0
LINE
8
BLACK
6
CONTINUOUS
10
-4.29649
20
5.85589
11
-4.29567
21
5.85541
0
LINE
8
BLACK
6
CONTINUOUS
10
-4.29567
20
5.85541
11
-4.29561
21
5.85536
0
LINE
8
BLACK
6
CONTINUOUS
10
-4.29561
20
5.85536
11
-4.29558
21
5.85541
0
LINE
8
BLACK
6
CONTINUOUS
10
-4.29558
20
5.85541
11
-4.29277
21
5.85823
0
LINE
8
BLACK
6
CONTINUOUS
10
-4.29277
20
5.85823
11
-4.29195
21
5.8587
0
LINE
8
BLACK
6
CONTINUOUS
10
-4.29195
20
5.8587
11
-4.29123
21
5.85933
0
LINE
8
BLACK
6
CONTINUOUS
10
-4.29123
20
5.85933
11
-4.28561
21
5.86214
0
LINE
8
BLACK
6
CONTINUOUS
10
-4.28561
20
5.86214
11
-4.28428
21
5.86242
0
LINE
8
BLACK
6
CONTINUOUS
10
-4.28428
20
5.86242
11
-4.28297
21
5.86277
0
LINE
8
BLACK
6
CONTINUOUS
10
-4.28297
20
5.86277
11
-4.27453
21
5.86277
0
LINE
8
BLACK
6
CONTINUOUS
10
-4.27453
20
5.86277
11
-4.27322
21
5.86242
0
LINE
8
BLACK
6
CONTINUOUS
10
-4.27322
20
5.86242
11
-4.27189
21
5.86214
0
LINE
8
BLACK
6
CONTINUOUS
10
-4.27189
20
5.86214
11
-4.26627
21
5.85933
0
LINE
8
BLACK
6
CONTINUOUS
10
-4.26627
20
5.85933
11
-4.26556
21
5.8587
0
LINE
8
BLACK
6
CONTINUOUS
10
-4.26556
20
5.8587
11
-4.26473
21
5.85823
0
LINE
8
BLACK
6
CONTINUOUS
10
-4.26473
20
5.85823
11
-4.26192
21
5.85541
0
LINE
8
BLACK
6
CONTINUOUS
10
-4.26192
20
5.85541
11
-4.26145
21
5.85459
0
LINE
8
BLACK
6
CONTINUOUS
10
-4.26145
20
5.85459
11
-4.26081
21
5.85388
0
LINE
8
BLACK
6
CONTINUOUS
10
-4.26081
20
5.85388
11
-4.258
21
5.84825
0
LINE
8
BLACK
6
CONTINUOUS
10
-4.258
20
5.84825
11
-4.25773
21
5.84692
0
LINE
8
BLACK
6
CONTINUOUS
10
-4.25773
20
5.84692
11
-4.25738
21
5.84561
0
LINE
8
BLACK
6
CONTINUOUS
10
-4.25738
20
5.84561
11
-4.25738
21
5.82312
0
LINE
8
BLACK
6
CONTINUOUS
10
-4.25738
20
5.82312
11
-4.25817
21
5.82016
0
LINE
8
BLACK
6
CONTINUOUS
10
-4.25817
20
5.82016
11
-4.26033
21
5.818
0
LINE
8
BLACK
6
CONTINUOUS
10
-4.26033
20
5.818
11
-4.26328
21
5.81721
0
LINE
8
BLACK
6
CONTINUOUS
10
-4.26328
20
5.81721
11
-4.32234
21
5.81721
0
LINE
8
BLACK
6
CONTINUOUS
10
-4.32234
20
5.81721
11
-4.32529
21
5.818
0
LINE
8
BLACK
6
CONTINUOUS
10
-4.3097
20
5.84814
11
-4.31322
21
5.84638
0
LINE
8
BLACK
6
CONTINUOUS
10
-4.31322
20
5.84638
11
-4.31467
21
5.84493
0
LINE
8
BLACK
6
CONTINUOUS
10
-4.31467
20
5.84493
11
-4.31643
21
5.84141
0
LINE
8
BLACK
6
CONTINUOUS
10
-4.31643
20
5.84141
11
-4.31643
21
5.82902
0
LINE
8
BLACK
6
CONTINUOUS
10
-4.31643
20
5.82902
11
-4.30012
21
5.82902
0
LINE
8
BLACK
6
CONTINUOUS
10
-4.30012
20
5.82902
11
-4.30012
21
5.84141
0
LINE
8
BLACK
6
CONTINUOUS
10
-4.30012
20
5.84141
11
-4.30188
21
5.84493
0
LINE
8
BLACK
6
CONTINUOUS
10
-4.30188
20
5.84493
11
-4.30334
21
5.84638
0
LINE
8
BLACK
6
CONTINUOUS
10
-4.30334
20
5.84638
11
-4.30686
21
5.84814
0
LINE
8
BLACK
6
CONTINUOUS
10
-4.30686
20
5.84814
11
-4.3097
21
5.84814
0
LINE
8
BLACK
6
CONTINUOUS
10
-4.28158
20
5.85096
11
-4.2851
21
5.8492
0
LINE
8
BLACK
6
CONTINUOUS
10
-4.2851
20
5.8492
11
-4.28624
21
5.84805
0
LINE
8
BLACK
6
CONTINUOUS
10
-4.28624
20
5.84805
11
-4.28831
21
5.84184
0
LINE
8
BLACK
6
CONTINUOUS
10
-4.28831
20
5.84184
11
-4.28831
21
5.82902
0
LINE
8
BLACK
6
CONTINUOUS
10
-4.28831
20
5.82902
11
-4.26919
21
5.82902
0
LINE
8
BLACK
6
CONTINUOUS
10
-4.26919
20
5.82902
11
-4.26919
21
5.84422
0
LINE
8
BLACK
6
CONTINUOUS
10
-4.26919
20
5.84422
11
-4.27095
21
5.84774
0
LINE
8
BLACK
6
CONTINUOUS
10
-4.27095
20
5.84774
11
-4.27241
21
5.8492
0
LINE
8
BLACK
6
CONTINUOUS
10
-4.27241
20
5.8492
11
-4.27593
21
5.85096
0
LINE
8
BLACK
6
CONTINUOUS
10
-4.27593
20
5.85096
11
-4.28158
21
5.85096
0
LINE
8
BLACK
6
CONTINUOUS
10
-3.94834
20
5.8642
11
-3.94692
21
5.86399
0
LINE
8
BLACK
6
CONTINUOUS
10
-3.94692
20
5.86399
11
-3.94521
21
5.86371
0
LINE
8
BLACK
6
CONTINUOUS
10
-3.94521
20
5.86371
11
-3.94476
21
5.86363
0
LINE
8
BLACK
6
CONTINUOUS
10
-3.94476
20
5.86363
11
-3.94298
21
5.86332
0
LINE
8
BLACK
6
CONTINUOUS
10
-3.94298
20
5.86332
11
-3.94146
21
5.86305
0
LINE
8
BLACK
6
CONTINUOUS
10
-3.94146
20
5.86305
11
-3.94034
21
5.86287
0
LINE
8
BLACK
6
CONTINUOUS
10
-3.94034
20
5.86287
11
-3.93975
21
5.86278
0
LINE
8
BLACK
6
CONTINUOUS
10
-3.93975
20
5.86278
11
-3.93971
21
5.86278
0
LINE
8
BLACK
6
CONTINUOUS
10
-3.93971
20
5.86278
11
-3.93964
21
5.86243
0
LINE
8
BLACK
6
CONTINUOUS
10
-3.93964
20
5.86243
11
-3.93958
21
5.86144
0
LINE
8
BLACK
6
CONTINUOUS
10
-3.93958
20
5.86144
11
-3.93953
21
5.8599
0
LINE
8
BLACK
6
CONTINUOUS
10
-3.93953
20
5.8599
11
-3.93949
21
5.8579
0
LINE
8
BLACK
6
CONTINUOUS
10
-3.93949
20
5.8579
11
-3.93946
21
5.85551
0
LINE
8
BLACK
6
CONTINUOUS
10
-3.93946
20
5.85551
11
-3.93944
21
5.85282
0
LINE
8
BLACK
6
CONTINUOUS
10
-3.93944
20
5.85282
11
-3.93944
21
5.85105
0
LINE
8
BLACK
6
CONTINUOUS
10
-3.93944
20
5.85105
11
-3.93944
21
5.83933
0
LINE
8
BLACK
6
CONTINUOUS
10
-3.93944
20
5.83933
11
-3.93754
21
5.83895
0
LINE
8
BLACK
6
CONTINUOUS
10
-3.93754
20
5.83895
11
-3.93628
21
5.83871
0
LINE
8
BLACK
6
CONTINUOUS
10
-3.93628
20
5.83871
11
-3.93461
21
5.8384
0
LINE
8
BLACK
6
CONTINUOUS
10
-3.93461
20
5.8384
11
-3.93285
21
5.83809
0
LINE
8
BLACK
6
CONTINUOUS
10
-3.93285
20
5.83809
11
-3.93239
21
5.83801
0
LINE
8
BLACK
6
CONTINUOUS
10
-3.93239
20
5.83801
11
-3.93084
21
5.83774
0
LINE
8
BLACK
6
CONTINUOUS
10
-3.93084
20
5.83774
11
-3.92949
21
5.83749
0
LINE
8
BLACK
6
CONTINUOUS
10
-3.92949
20
5.83749
11
-3.92854
21
5.83731
0
LINE
8
BLACK
6
CONTINUOUS
10
-3.92854
20
5.83731
11
-3.92832
21
5.83727
0
LINE
8
BLACK
6
CONTINUOUS
10
-3.92832
20
5.83727
11
-3.92751
21
5.83709
0
LINE
8
BLACK
6
CONTINUOUS
10
-3.92751
20
5.83709
11
-3.92751
21
5.84614
0
LINE
8
BLACK
6
CONTINUOUS
10
-3.92751
20
5.84614
11
-3.9275
21
5.84906
0
LINE
8
BLACK
6
CONTINUOUS
10
-3.9275
20
5.84906
11
-3.92747
21
5.85133
0
LINE
8
BLACK
6
CONTINUOUS
10
-3.92747
20
5.85133
11
-3.92743
21
5.85301
0
LINE
8
BLACK
6
CONTINUOUS
10
-3.92743
20
5.85301
11
-3.92735
21
5.85416
0
LINE
8
BLACK
6
CONTINUOUS
10
-3.92735
20
5.85416
11
-3.92725
21
5.85485
0
LINE
8
BLACK
6
CONTINUOUS
10
-3.92725
20
5.85485
11
-3.92712
21
5.85516
0
LINE
8
BLACK
6
CONTINUOUS
10
-3.92712
20
5.85516
11
-3.92706
21
5.85518
0
LINE
8
BLACK
6
CONTINUOUS
10
-3.92706
20
5.85518
11
-3.92656
21
5.85512
0
LINE
8
BLACK
6
CONTINUOUS
10
-3.92656
20
5.85512
11
-3.92552
21
5.85495
0
LINE
8
BLACK
6
CONTINUOUS
10
-3.92552
20
5.85495
11
-3.92412
21
5.85471
0
LINE
8
BLACK
6
CONTINUOUS
10
-3.92412
20
5.85471
11
-3.92251
21
5.85443
0
LINE
8
BLACK
6
CONTINUOUS
10
-3.92251
20
5.85443
11
-3.92088
21
5.85413
0
LINE
8
BLACK
6
CONTINUOUS
10
-3.92088
20
5.85413
11
-3.9194
21
5.85385
0
LINE
8
BLACK
6
CONTINUOUS
10
-3.9194
20
5.85385
11
-3.91823
21
5.85362
0
LINE
8
BLACK
6
CONTINUOUS
10
-3.91823
20
5.85362
11
-3.91784
21
5.85354
0
LINE
8
BLACK
6
CONTINUOUS
10
-3.91784
20
5.85354
11
-3.91702
21
5.85336
0
LINE
8
BLACK
6
CONTINUOUS
10
-3.91702
20
5.85336
11
-3.91702
21
5.83531
0
LINE
8
BLACK
6
CONTINUOUS
10
-3.91702
20
5.83531
11
-3.91621
21
5.83513
0
LINE
8
BLACK
6
CONTINUOUS
10
-3.91621
20
5.83513
11
-3.91565
21
5.83502
0
LINE
8
BLACK
6
CONTINUOUS
10
-3.91565
20
5.83502
11
-3.91447
21
5.83481
0
LINE
8
BLACK
6
CONTINUOUS
10
-3.91447
20
5.83481
11
-3.91279
21
5.83451
0
LINE
8
BLACK
6
CONTINUOUS
10
-3.91279
20
5.83451
11
-3.9107
21
5.83414
0
LINE
8
BLACK
6
CONTINUOUS
10
-3.9107
20
5.83414
11
-3.90832
21
5.83373
0
LINE
8
BLACK
6
CONTINUOUS
10
-3.90832
20
5.83373
11
-3.90582
21
5.8333
0
LINE
8
BLACK
6
CONTINUOUS
10
-3.90582
20
5.8333
11
-3.90316
21
5.83284
0
LINE
8
BLACK
6
CONTINUOUS
10
-3.90316
20
5.83284
11
-3.90064
21
5.83241
0
LINE
8
BLACK
6
CONTINUOUS
10
-3.90064
20
5.83241
11
-3.89838
21
5.83201
0
LINE
8
BLACK
6
CONTINUOUS
10
-3.89838
20
5.83201
11
-3.89648
21
5.83168
0
LINE
8
BLACK
6
CONTINUOUS
10
-3.89648
20
5.83168
11
-3.89508
21
5.83142
0
LINE
8
BLACK
6
CONTINUOUS
10
-3.89508
20
5.83142
11
-3.89434
21
5.83128
0
LINE
8
BLACK
6
CONTINUOUS
10
-3.89434
20
5.83128
11
-3.89244
21
5.83091
0
LINE
8
BLACK
6
CONTINUOUS
10
-3.89244
20
5.83091
11
-3.89244
21
5.82569
0
LINE
8
BLACK
6
CONTINUOUS
10
-3.89244
20
5.82569
11
-3.89245
21
5.82363
0
LINE
8
BLACK
6
CONTINUOUS
10
-3.89245
20
5.82363
11
-3.89248
21
5.82219
0
LINE
8
BLACK
6
CONTINUOUS
10
-3.89248
20
5.82219
11
-3.89255
21
5.82125
0
LINE
8
BLACK
6
CONTINUOUS
10
-3.89255
20
5.82125
11
-3.89268
21
5.82073
0
LINE
8
BLACK
6
CONTINUOUS
10
-3.89268
20
5.82073
11
-3.89286
21
5.82051
0
LINE
8
BLACK
6
CONTINUOUS
10
-3.89286
20
5.82051
11
-3.89302
21
5.82047
0
LINE
8
BLACK
6
CONTINUOUS
10
-3.89302
20
5.82047
11
-3.89348
21
5.82054
0
LINE
8
BLACK
6
CONTINUOUS
10
-3.89348
20
5.82054
11
-3.89458
21
5.82071
0
LINE
8
BLACK
6
CONTINUOUS
10
-3.89458
20
5.82071
11
-3.89626
21
5.82099
0
LINE
8
BLACK
6
CONTINUOUS
10
-3.89626
20
5.82099
11
-3.89844
21
5.82136
0
LINE
8
BLACK
6
CONTINUOUS
10
-3.89844
20
5.82136
11
-3.90107
21
5.82181
0
LINE
8
BLACK
6
CONTINUOUS
10
-3.90107
20
5.82181
11
-3.90407
21
5.82233
0
LINE
8
BLACK
6
CONTINUOUS
10
-3.90407
20
5.82233
11
-3.90738
21
5.82291
0
LINE
8
BLACK
6
CONTINUOUS
10
-3.90738
20
5.82291
11
-3.91094
21
5.82353
0
LINE
8
BLACK
6
CONTINUOUS
10
-3.91094
20
5.82353
11
-3.91468
21
5.82418
0
LINE
8
BLACK
6
CONTINUOUS
10
-3.91468
20
5.82418
11
-3.91853
21
5.82486
0
LINE
8
BLACK
6
CONTINUOUS
10
-3.91853
20
5.82486
11
-3.92242
21
5.82555
0
LINE
8
BLACK
6
CONTINUOUS
10
-3.92242
20
5.82555
11
-3.9263
21
5.82623
0
LINE
8
BLACK
6
CONTINUOUS
10
-3.9263
20
5.82623
11
-3.9301
21
5.8269
0
LINE
8
BLACK
6
CONTINUOUS
10
-3.9301
20
5.8269
11
-3.93374
21
5.82755
0
LINE
8
BLACK
6
CONTINUOUS
10
-3.93374
20
5.82755
11
-3.93717
21
5.82816
0
LINE
8
BLACK
6
CONTINUOUS
10
-3.93717
20
5.82816
11
-3.94031
21
5.82873
0
LINE
8
BLACK
6
CONTINUOUS
10
-3.94031
20
5.82873
11
-3.94311
21
5.82923
0
LINE
8
BLACK
6
CONTINUOUS
10
-3.94311
20
5.82923
11
-3.94549
21
5.82967
0
LINE
8
BLACK
6
CONTINUOUS
10
-3.94549
20
5.82967
11
-3.9474
21
5.83002
0
LINE
8
BLACK
6
CONTINUOUS
10
-3.9474
20
5.83002
11
-3.94876
21
5.83027
0
LINE
8
BLACK
6
CONTINUOUS
10
-3.94876
20
5.83027
11
-3.9495
21
5.83043
0
LINE
8
BLACK
6
CONTINUOUS
10
-3.9495
20
5.83043
11
-3.94963
21
5.83046
0
LINE
8
BLACK
6
CONTINUOUS
10
-3.94963
20
5.83046
11
-3.94968
21
5.83084
0
LINE
8
BLACK
6
CONTINUOUS
10
-3.94968
20
5.83084
11
-3.94973
21
5.83186
0
LINE
8
BLACK
6
CONTINUOUS
10
-3.94973
20
5.83186
11
-3.94978
21
5.83343
0
LINE
8
BLACK
6
CONTINUOUS
10
-3.94978
20
5.83343
11
-3.94982
21
5.83546
0
LINE
8
BLACK
6
CONTINUOUS
10
-3.94982
20
5.83546
11
-3.94985
21
5.83786
0
LINE
8
BLACK
6
CONTINUOUS
10
-3.94985
20
5.83786
11
-3.94988
21
5.84055
0
LINE
8
BLACK
6
CONTINUOUS
10
-3.94988
20
5.84055
11
-3.9499
21
5.84344
0
LINE
8
BLACK
6
CONTINUOUS
10
-3.9499
20
5.84344
11
-3.94991
21
5.84645
0
LINE
8
BLACK
6
CONTINUOUS
10
-3.94991
20
5.84645
11
-3.94992
21
5.84948
0
LINE
8
BLACK
6
CONTINUOUS
10
-3.94992
20
5.84948
11
-3.94992
21
5.85246
0
LINE
8
BLACK
6
CONTINUOUS
10
-3.94992
20
5.85246
11
-3.94992
21
5.85528
0
LINE
8
BLACK
6
CONTINUOUS
10
-3.94992
20
5.85528
11
-3.9499
21
5.85787
0
LINE
8
BLACK
6
CONTINUOUS
10
-3.9499
20
5.85787
11
-3.94988
21
5.86014
0
LINE
8
BLACK
6
CONTINUOUS
10
-3.94988
20
5.86014
11
-3.94985
21
5.862
0
LINE
8
BLACK
6
CONTINUOUS
10
-3.94985
20
5.862
11
-3.94981
21
5.86336
0
LINE
8
BLACK
6
CONTINUOUS
10
-3.94981
20
5.86336
11
-3.94976
21
5.86414
0
LINE
8
BLACK
6
CONTINUOUS
10
-3.94976
20
5.86414
11
-3.94973
21
5.86429
0
LINE
8
BLACK
6
CONTINUOUS
10
-3.94973
20
5.86429
11
-3.94932
21
5.8643
0
LINE
8
BLACK
6
CONTINUOUS
10
-3.94932
20
5.8643
11
-3.94834
21
5.8642
0
LINE
8
BLACK
6
CONTINUOUS
10
-4.01944
20
5.85321
11
-4.01887
21
5.85311
0
LINE
8
BLACK
6
CONTINUOUS
10
-4.01887
20
5.85311
11
-4.01764
21
5.85289
0
LINE
8
BLACK
6
CONTINUOUS
10
-4.01764
20
5.85289
11
-4.01583
21
5.85257
0
LINE
8
BLACK
6
CONTINUOUS
10
-4.01583
20
5.85257
11
-4.01347
21
5.85216
0
LINE
8
BLACK
6
CONTINUOUS
10
-4.01347
20
5.85216
11
-4.01063
21
5.85166
0
LINE
8
BLACK
6
CONTINUOUS
10
-4.01063
20
5.85166
11
-4.00738
21
5.85109
0
LINE
8
BLACK
6
CONTINUOUS
10
-4.00738
20
5.85109
11
-4.00375
21
5.85045
0
LINE
8
BLACK
6
CONTINUOUS
10
-4.00375
20
5.85045
11
-3.99983
21
5.84976
0
LINE
8
BLACK
6
CONTINUOUS
10
-3.99983
20
5.84976
11
-3.99565
21
5.84903
0
LINE
8
BLACK
6
CONTINUOUS
10
-3.99565
20
5.84903
11
-3.99129
21
5.84826
0
LINE
8
BLACK
6
CONTINUOUS
10
-3.99129
20
5.84826
11
-3.99078
21
5.84817
0
LINE
8
BLACK
6
CONTINUOUS
10
-3.99078
20
5.84817
11
-3.96348
21
5.84337
0
LINE
8
BLACK
6
CONTINUOUS
10
-3.96348
20
5.84337
11
-3.96338
21
5.83807
0
LINE
8
BLACK
6
CONTINUOUS
10
-3.96338
20
5.83807
11
-3.96335
21
5.83591
0
LINE
8
BLACK
6
CONTINUOUS
10
-3.96335
20
5.83591
11
-3.96337
21
5.83439
0
LINE
8
BLACK
6
CONTINUOUS
10
-3.96337
20
5.83439
11
-3.96344
21
5.83342
0
LINE
8
BLACK
6
CONTINUOUS
10
-3.96344
20
5.83342
11
-3.96357
21
5.83291
0
LINE
8
BLACK
6
CONTINUOUS
10
-3.96357
20
5.83291
11
-3.96374
21
5.83278
0
LINE
8
BLACK
6
CONTINUOUS
10
-3.96374
20
5.83278
11
-3.96416
21
5.83284
0
LINE
8
BLACK
6
CONTINUOUS
10
-3.96416
20
5.83284
11
-3.96524
21
5.83302
0
LINE
8
BLACK
6
CONTINUOUS
10
-3.96524
20
5.83302
11
-3.96692
21
5.83331
0
LINE
8
BLACK
6
CONTINUOUS
10
-3.96692
20
5.83331
11
-3.96915
21
5.83369
0
LINE
8
BLACK
6
CONTINUOUS
10
-3.96915
20
5.83369
11
-3.97187
21
5.83416
0
LINE
8
BLACK
6
CONTINUOUS
10
-3.97187
20
5.83416
11
-3.97503
21
5.83471
0
LINE
8
BLACK
6
CONTINUOUS
10
-3.97503
20
5.83471
11
-3.97857
21
5.83533
0
LINE
8
BLACK
6
CONTINUOUS
10
-3.97857
20
5.83533
11
-3.98245
21
5.83601
0
LINE
8
BLACK
6
CONTINUOUS
10
-3.98245
20
5.83601
11
-3.98659
21
5.83673
0
LINE
8
BLACK
6
CONTINUOUS
10
-3.98659
20
5.83673
11
-3.99096
21
5.8375
0
LINE
8
BLACK
6
CONTINUOUS
10
-3.99096
20
5.8375
11
-3.9924
21
5.83775
0
LINE
8
BLACK
6
CONTINUOUS
10
-3.9924
20
5.83775
11
-4.0206
21
5.84272
0
LINE
8
BLACK
6
CONTINUOUS
10
-4.0206
20
5.84272
11
-4.0208
21
5.85344
0
LINE
8
BLACK
6
CONTINUOUS
10
-4.0208
20
5.85344
11
-4.01944
21
5.85321
0
LINE
8
BLACK
6
CONTINUOUS
10
-3.87784
20
5.86957
11
-3.87676
21
5.86939
0
LINE
8
BLACK
6
CONTINUOUS
10
-3.87676
20
5.86939
11
-3.87508
21
5.8691
0
LINE
8
BLACK
6
CONTINUOUS
10
-3.87508
20
5.8691
11
-3.87285
21
5.86872
0
LINE
8
BLACK
6
CONTINUOUS
10
-3.87285
20
5.86872
11
-3.87013
21
5.86825
0
LINE
8
BLACK
6
CONTINUOUS
10
-3.87013
20
5.86825
11
-3.86697
21
5.8677
0
LINE
8
BLACK
6
CONTINUOUS
10
-3.86697
20
5.8677
11
-3.86343
21
5.86708
0
LINE
8
BLACK
6
CONTINUOUS
10
-3.86343
20
5.86708
11
-3.85955
21
5.8664
0
LINE
8
BLACK
6
CONTINUOUS
10
-3.85955
20
5.8664
11
-3.85541
21
5.86567
0
LINE
8
BLACK
6
CONTINUOUS
10
-3.85541
20
5.86567
11
-3.85104
21
5.86491
0
LINE
8
BLACK
6
CONTINUOUS
10
-3.85104
20
5.86491
11
-3.8496
21
5.86465
0
LINE
8
BLACK
6
CONTINUOUS
10
-3.8496
20
5.86465
11
-3.8214
21
5.85968
0
LINE
8
BLACK
6
CONTINUOUS
10
-3.8214
20
5.85968
11
-3.8212
21
5.84897
0
LINE
8
BLACK
6
CONTINUOUS
10
-3.8212
20
5.84897
11
-3.82256
21
5.8492
0
LINE
8
BLACK
6
CONTINUOUS
10
-3.82256
20
5.8492
11
-3.82313
21
5.8493
0
LINE
8
BLACK
6
CONTINUOUS
10
-3.82313
20
5.8493
11
-3.82436
21
5.84952
0
LINE
8
BLACK
6
CONTINUOUS
10
-3.82436
20
5.84952
11
-3.82617
21
5.84983
0
LINE
8
BLACK
6
CONTINUOUS
10
-3.82617
20
5.84983
11
-3.82853
21
5.85025
0
LINE
8
BLACK
6
CONTINUOUS
10
-3.82853
20
5.85025
11
-3.83137
21
5.85075
0
LINE
8
BLACK
6
CONTINUOUS
10
-3.83137
20
5.85075
11
-3.83462
21
5.85132
0
LINE
8
BLACK
6
CONTINUOUS
10
-3.83462
20
5.85132
11
-3.83825
21
5.85195
0
LINE
8
BLACK
6
CONTINUOUS
10
-3.83825
20
5.85195
11
-3.84217
21
5.85264
0
LINE
8
BLACK
6
CONTINUOUS
10
-3.84217
20
5.85264
11
-3.84635
21
5.85338
0
LINE
8
BLACK
6
CONTINUOUS
10
-3.84635
20
5.85338
11
-3.85071
21
5.85414
0
LINE
8
BLACK
6
CONTINUOUS
10
-3.85071
20
5.85414
11
-3.85122
21
5.85423
0
LINE
8
BLACK
6
CONTINUOUS
10
-3.85122
20
5.85423
11
-3.87852
21
5.85903
0
LINE
8
BLACK
6
CONTINUOUS
10
-3.87852
20
5.85903
11
-3.87862
21
5.86434
0
LINE
8
BLACK
6
CONTINUOUS
10
-3.87862
20
5.86434
11
-3.87865
21
5.86649
0
LINE
8
BLACK
6
CONTINUOUS
10
-3.87865
20
5.86649
11
-3.87863
21
5.86801
0
LINE
8
BLACK
6
CONTINUOUS
10
-3.87863
20
5.86801
11
-3.87856
21
5.86898
0
LINE
8
BLACK
6
CONTINUOUS
10
-3.87856
20
5.86898
11
-3.87843
21
5.86949
0
LINE
8
BLACK
6
CONTINUOUS
10
-3.87843
20
5.86949
11
-3.87826
21
5.86963
0
LINE
8
BLACK
6
CONTINUOUS
10
-3.87826
20
5.86963
11
-3.87784
21
5.86957
0
LINE
8
BLACK
6
CONTINUOUS
10
-3.90175
20
5.89334
11
-3.90103
21
5.8932
0
LINE
8
BLACK
6
CONTINUOUS
10
-3.90103
20
5.8932
11
-3.89982
21
5.89298
0
LINE
8
BLACK
6
CONTINUOUS
10
-3.89982
20
5.89298
11
-3.89833
21
5.89271
0
LINE
8
BLACK
6
CONTINUOUS
10
-3.89833
20
5.89271
11
-3.89768
21
5.8926
0
LINE
8
BLACK
6
CONTINUOUS
10
-3.89768
20
5.8926
11
-3.8961
21
5.89233
0
LINE
8
BLACK
6
CONTINUOUS
10
-3.8961
20
5.89233
11
-3.89469
21
5.89207
0
LINE
8
BLACK
6
CONTINUOUS
10
-3.89469
20
5.89207
11
-3.89367
21
5.89188
0
LINE
8
BLACK
6
CONTINUOUS
10
-3.89367
20
5.89188
11
-3.89343
21
5.89184
0
LINE
8
BLACK
6
CONTINUOUS
10
-3.89343
20
5.89184
11
-3.89244
21
5.89164
0
LINE
8
BLACK
6
CONTINUOUS
10
-3.89244
20
5.89164
11
-3.89244
21
5.87648
0
LINE
8
BLACK
6
CONTINUOUS
10
-3.89244
20
5.87648
11
-3.89244
21
5.87262
0
LINE
8
BLACK
6
CONTINUOUS
10
-3.89244
20
5.87262
11
-3.89246
21
5.86943
0
LINE
8
BLACK
6
CONTINUOUS
10
-3.89246
20
5.86943
11
-3.89248
21
5.86685
0
LINE
8
BLACK
6
CONTINUOUS
10
-3.89248
20
5.86685
11
-3.89252
21
5.86484
0
LINE
8
BLACK
6
CONTINUOUS
10
-3.89252
20
5.86484
11
-3.89257
21
5.86334
0
LINE
8
BLACK
6
CONTINUOUS
10
-3.89257
20
5.86334
11
-3.89264
21
5.86229
0
LINE
8
BLACK
6
CONTINUOUS
10
-3.89264
20
5.86229
11
-3.89273
21
5.86165
0
LINE
8
BLACK
6
CONTINUOUS
10
-3.89273
20
5.86165
11
-3.89284
21
5.86137
0
LINE
8
BLACK
6
CONTINUOUS
10
-3.89284
20
5.86137
11
-3.89289
21
5.86134
0
LINE
8
BLACK
6
CONTINUOUS
10
-3.89289
20
5.86134
11
-3.89331
21
5.8614
0
LINE
8
BLACK
6
CONTINUOUS
10
-3.89331
20
5.8614
11
-3.89439
21
5.86158
0
LINE
8
BLACK
6
CONTINUOUS
10
-3.89439
20
5.86158
11
-3.89607
21
5.86187
0
LINE
8
BLACK
6
CONTINUOUS
10
-3.89607
20
5.86187
11
-3.89829
21
5.86225
0
LINE
8
BLACK
6
CONTINUOUS
10
-3.89829
20
5.86225
11
-3.90101
21
5.86272
0
LINE
8
BLACK
6
CONTINUOUS
10
-3.90101
20
5.86272
11
-3.90417
21
5.86327
0
LINE
8
BLACK
6
CONTINUOUS
10
-3.90417
20
5.86327
11
-3.90771
21
5.86389
0
LINE
8
BLACK
6
CONTINUOUS
10
-3.90771
20
5.86389
11
-3.91159
21
5.86457
0
LINE
8
BLACK
6
CONTINUOUS
10
-3.91159
20
5.86457
11
-3.91573
21
5.8653
0
LINE
8
BLACK
6
CONTINUOUS
10
-3.91573
20
5.8653
11
-3.9201
21
5.86606
0
LINE
8
BLACK
6
CONTINUOUS
10
-3.9201
20
5.86606
11
-3.92154
21
5.86632
0
LINE
8
BLACK
6
CONTINUOUS
10
-3.92154
20
5.86632
11
-3.94974
21
5.87129
0
LINE
8
BLACK
6
CONTINUOUS
10
-3.94974
20
5.87129
11
-3.94984
21
5.87661
0
LINE
8
BLACK
6
CONTINUOUS
10
-3.94984
20
5.87661
11
-3.94986
21
5.87848
0
LINE
8
BLACK
6
CONTINUOUS
10
-3.94986
20
5.87848
11
-3.94985
21
5.88006
0
LINE
8
BLACK
6
CONTINUOUS
10
-3.94985
20
5.88006
11
-3.94981
21
5.88123
0
LINE
8
BLACK
6
CONTINUOUS
10
-3.94981
20
5.88123
11
-3.94975
21
5.88186
0
LINE
8
BLACK
6
CONTINUOUS
10
-3.94975
20
5.88186
11
-3.94971
21
5.88193
0
LINE
8
BLACK
6
CONTINUOUS
10
-3.94971
20
5.88193
11
-3.9493
21
5.88187
0
LINE
8
BLACK
6
CONTINUOUS
10
-3.9493
20
5.88187
11
-3.94825
21
5.8817
0
LINE
8
BLACK
6
CONTINUOUS
10
-3.94825
20
5.8817
11
-3.94663
21
5.88142
0
LINE
8
BLACK
6
CONTINUOUS
10
-3.94663
20
5.88142
11
-3.94452
21
5.88106
0
LINE
8
BLACK
6
CONTINUOUS
10
-3.94452
20
5.88106
11
-3.942
21
5.88062
0
LINE
8
BLACK
6
CONTINUOUS
10
-3.942
20
5.88062
11
-3.93912
21
5.88012
0
LINE
8
BLACK
6
CONTINUOUS
10
-3.93912
20
5.88012
11
-3.93597
21
5.87957
0
LINE
8
BLACK
6
CONTINUOUS
10
-3.93597
20
5.87957
11
-3.93262
21
5.87899
0
LINE
8
BLACK
6
CONTINUOUS
10
-3.93262
20
5.87899
11
-3.92914
21
5.87838
0
LINE
8
BLACK
6
CONTINUOUS
10
-3.92914
20
5.87838
11
-3.9256
21
5.87775
0
LINE
8
BLACK
6
CONTINUOUS
10
-3.9256
20
5.87775
11
-3.92208
21
5.87714
0
LINE
8
BLACK
6
CONTINUOUS
10
-3.92208
20
5.87714
11
-3.91865
21
5.87653
0
LINE
8
BLACK
6
CONTINUOUS
10
-3.91865
20
5.87653
11
-3.91539
21
5.87595
0
LINE
8
BLACK
6
CONTINUOUS
10
-3.91539
20
5.87595
11
-3.91236
21
5.87542
0
LINE
8
BLACK
6
CONTINUOUS
10
-3.91236
20
5.87542
11
-3.90964
21
5.87493
0
LINE
8
BLACK
6
CONTINUOUS
10
-3.90964
20
5.87493
11
-3.90731
21
5.87452
0
LINE
8
BLACK
6
CONTINUOUS
10
-3.90731
20
5.87452
11
-3.90542
21
5.87418
0
LINE
8
BLACK
6
CONTINUOUS
10
-3.90542
20
5.87418
11
-3.90407
21
5.87393
0
LINE
8
BLACK
6
CONTINUOUS
10
-3.90407
20
5.87393
11
-3.90332
21
5.87379
0
LINE
8
BLACK
6
CONTINUOUS
10
-3.90332
20
5.87379
11
-3.90319
21
5.87376
0
LINE
8
BLACK
6
CONTINUOUS
10
-3.90319
20
5.87376
11
-3.90301
21
5.87374
0
LINE
8
BLACK
6
CONTINUOUS
10
-3.90301
20
5.87374
11
-3.90286
21
5.87387
0
LINE
8
BLACK
6
CONTINUOUS
10
-3.90286
20
5.87387
11
-3.90275
21
5.87422
0
LINE
8
BLACK
6
CONTINUOUS
10
-3.90275
20
5.87422
11
-3.90267
21
5.87487
0
LINE
8
BLACK
6
CONTINUOUS
10
-3.90267
20
5.87487
11
-3.90262
21
5.8759
0
LINE
8
BLACK
6
CONTINUOUS
10
-3.90262
20
5.8759
11
-3.90259
21
5.87737
0
LINE
8
BLACK
6
CONTINUOUS
10
-3.90259
20
5.87737
11
-3.90257
21
5.87938
0
LINE
8
BLACK
6
CONTINUOUS
10
-3.90257
20
5.87938
11
-3.90256
21
5.882
0
LINE
8
BLACK
6
CONTINUOUS
10
-3.90256
20
5.882
11
-3.90256
21
5.88354
0
LINE
8
BLACK
6
CONTINUOUS
10
-3.90256
20
5.88354
11
-3.90256
21
5.89352
0
LINE
8
BLACK
6
CONTINUOUS
10
-3.90256
20
5.89352
11
-3.90175
21
5.89334
0
LINE
8
BLACK
6
CONTINUOUS
10
-3.99439
20
5.88984
11
-3.99006
21
5.88908
0
LINE
8
BLACK
6
CONTINUOUS
10
-3.99006
20
5.88908
11
-3.98589
21
5.88835
0
LINE
8
BLACK
6
CONTINUOUS
10
-3.98589
20
5.88835
11
-3.98194
21
5.88765
0
LINE
8
BLACK
6
CONTINUOUS
10
-3.98194
20
5.88765
11
-3.97828
21
5.88701
0
LINE
8
BLACK
6
CONTINUOUS
10
-3.97828
20
5.88701
11
-3.97495
21
5.88642
0
LINE
8
BLACK
6
CONTINUOUS
10
-3.97495
20
5.88642
11
-3.97203
21
5.88591
0
LINE
8
BLACK
6
CONTINUOUS
10
-3.97203
20
5.88591
11
-3.96959
21
5.88548
0
LINE
8
BLACK
6
CONTINUOUS
10
-3.96959
20
5.88548
11
-3.96767
21
5.88515
0
LINE
8
BLACK
6
CONTINUOUS
10
-3.96767
20
5.88515
11
-3.96635
21
5.88492
0
LINE
8
BLACK
6
CONTINUOUS
10
-3.96635
20
5.88492
11
-3.96574
21
5.88481
0
LINE
8
BLACK
6
CONTINUOUS
10
-3.96574
20
5.88481
11
-3.9633
21
5.8844
0
LINE
8
BLACK
6
CONTINUOUS
10
-3.9633
20
5.8844
11
-3.9633
21
5.87361
0
LINE
8
BLACK
6
CONTINUOUS
10
-3.9633
20
5.87361
11
-3.96411
21
5.8738
0
LINE
8
BLACK
6
CONTINUOUS
10
-3.96411
20
5.8738
11
-3.96459
21
5.87389
0
LINE
8
BLACK
6
CONTINUOUS
10
-3.96459
20
5.87389
11
-3.96572
21
5.8741
0
LINE
8
BLACK
6
CONTINUOUS
10
-3.96572
20
5.8741
11
-3.96746
21
5.87441
0
LINE
8
BLACK
6
CONTINUOUS
10
-3.96746
20
5.87441
11
-3.96974
21
5.87482
0
LINE
8
BLACK
6
CONTINUOUS
10
-3.96974
20
5.87482
11
-3.9725
21
5.87531
0
LINE
8
BLACK
6
CONTINUOUS
10
-3.9725
20
5.87531
11
-3.9757
21
5.87588
0
LINE
8
BLACK
6
CONTINUOUS
10
-3.9757
20
5.87588
11
-3.97928
21
5.87651
0
LINE
8
BLACK
6
CONTINUOUS
10
-3.97928
20
5.87651
11
-3.98317
21
5.87719
0
LINE
8
BLACK
6
CONTINUOUS
10
-3.98317
20
5.87719
11
-3.98733
21
5.87793
0
LINE
8
BLACK
6
CONTINUOUS
10
-3.98733
20
5.87793
11
-3.99169
21
5.87869
0
LINE
8
BLACK
6
CONTINUOUS
10
-3.99169
20
5.87869
11
-3.99274
21
5.87888
0
LINE
8
BLACK
6
CONTINUOUS
10
-3.99274
20
5.87888
11
-3.99713
21
5.87965
0
LINE
8
BLACK
6
CONTINUOUS
10
-3.99713
20
5.87965
11
-4.0013
21
5.88038
0
LINE
8
BLACK
6
CONTINUOUS
10
-4.0013
20
5.88038
11
-4.00521
21
5.88108
0
LINE
8
BLACK
6
CONTINUOUS
10
-4.00521
20
5.88108
11
-4.00881
21
5.88171
0
LINE
8
BLACK
6
CONTINUOUS
10
-4.00881
20
5.88171
11
-4.01203
21
5.88229
0
LINE
8
BLACK
6
CONTINUOUS
10
-4.01203
20
5.88229
11
-4.01482
21
5.88279
0
LINE
8
BLACK
6
CONTINUOUS
10
-4.01482
20
5.88279
11
-4.01714
21
5.88321
0
LINE
8
BLACK
6
CONTINUOUS
10
-4.01714
20
5.88321
11
-4.01892
21
5.88354
0
LINE
8
BLACK
6
CONTINUOUS
10
-4.01892
20
5.88354
11
-4.02011
21
5.88376
0
LINE
8
BLACK
6
CONTINUOUS
10
-4.02011
20
5.88376
11
-4.02065
21
5.88387
0
LINE
8
BLACK
6
CONTINUOUS
10
-4.02065
20
5.88387
11
-4.02068
21
5.88388
0
LINE
8
BLACK
6
CONTINUOUS
10
-4.02068
20
5.88388
11
-4.02072
21
5.88427
0
LINE
8
BLACK
6
CONTINUOUS
10
-4.02072
20
5.88427
11
-4.02074
21
5.88524
0
LINE
8
BLACK
6
CONTINUOUS
10
-4.02074
20
5.88524
11
-4.02074
21
5.88668
0
LINE
8
BLACK
6
CONTINUOUS
10
-4.02074
20
5.88668
11
-4.02072
21
5.88845
0
LINE
8
BLACK
6
CONTINUOUS
10
-4.02072
20
5.88845
11
-4.0207
21
5.88923
0
LINE
8
BLACK
6
CONTINUOUS
10
-4.0207
20
5.88923
11
-4.0206
21
5.89445
0
LINE
8
BLACK
6
CONTINUOUS
10
-4.0206
20
5.89445
11
-3.99439
21
5.88984
0
LINE
8
BLACK
6
CONTINUOUS
10
-3.87789
20
5.91105
11
-3.87741
21
5.91096
0
LINE
8
BLACK
6
CONTINUOUS
10
-3.87741
20
5.91096
11
-3.87627
21
5.91075
0
LINE
8
BLACK
6
CONTINUOUS
10
-3.87627
20
5.91075
11
-3.87454
21
5.91045
0
LINE
8
BLACK
6
CONTINUOUS
10
-3.87454
20
5.91045
11
-3.87226
21
5.91004
0
LINE
8
BLACK
6
CONTINUOUS
10
-3.87226
20
5.91004
11
-3.86951
21
5.90956
0
LINE
8
BLACK
6
CONTINUOUS
10
-3.86951
20
5.90956
11
-3.86632
21
5.909
0
LINE
8
BLACK
6
CONTINUOUS
10
-3.86632
20
5.909
11
-3.86276
21
5.90837
0
LINE
8
BLACK
6
CONTINUOUS
10
-3.86276
20
5.90837
11
-3.8589
21
5.90769
0
LINE
8
BLACK
6
CONTINUOUS
10
-3.8589
20
5.90769
11
-3.85477
21
5.90697
0
LINE
8
BLACK
6
CONTINUOUS
10
-3.85477
20
5.90697
11
-3.85045
21
5.90622
0
LINE
8
BLACK
6
CONTINUOUS
10
-3.85045
20
5.90622
11
-3.85014
21
5.90616
0
LINE
8
BLACK
6
CONTINUOUS
10
-3.85014
20
5.90616
11
-3.8458
21
5.9054
0
LINE
8
BLACK
6
CONTINUOUS
10
-3.8458
20
5.9054
11
-3.84165
21
5.90468
0
LINE
8
BLACK
6
CONTINUOUS
10
-3.84165
20
5.90468
11
-3.83775
21
5.90399
0
LINE
8
BLACK
6
CONTINUOUS
10
-3.83775
20
5.90399
11
-3.83415
21
5.90336
0
LINE
8
BLACK
6
CONTINUOUS
10
-3.83415
20
5.90336
11
-3.83092
21
5.90279
0
LINE
8
BLACK
6
CONTINUOUS
10
-3.83092
20
5.90279
11
-3.82811
21
5.9023
0
LINE
8
BLACK
6
CONTINUOUS
10
-3.82811
20
5.9023
11
-3.82578
21
5.90189
0
LINE
8
BLACK
6
CONTINUOUS
10
-3.82578
20
5.90189
11
-3.82398
21
5.90157
0
LINE
8
BLACK
6
CONTINUOUS
10
-3.82398
20
5.90157
11
-3.82277
21
5.90135
0
LINE
8
BLACK
6
CONTINUOUS
10
-3.82277
20
5.90135
11
-3.82222
21
5.90125
0
LINE
8
BLACK
6
CONTINUOUS
10
-3.82222
20
5.90125
11
-3.82221
21
5.90125
0
LINE
8
BLACK
6
CONTINUOUS
10
-3.82221
20
5.90125
11
-3.82122
21
5.90104
0
LINE
8
BLACK
6
CONTINUOUS
10
-3.82122
20
5.90104
11
-3.82122
21
5.89582
0
LINE
8
BLACK
6
CONTINUOUS
10
-3.82122
20
5.89582
11
-3.82123
21
5.89365
0
LINE
8
BLACK
6
CONTINUOUS
10
-3.82123
20
5.89365
11
-3.82129
21
5.89213
0
LINE
8
BLACK
6
CONTINUOUS
10
-3.82129
20
5.89213
11
-3.82139
21
5.89116
0
LINE
8
BLACK
6
CONTINUOUS
10
-3.82139
20
5.89116
11
-3.82154
21
5.89069
0
LINE
8
BLACK
6
CONTINUOUS
10
-3.82154
20
5.89069
11
-3.82167
21
5.8906
0
LINE
8
BLACK
6
CONTINUOUS
10
-3.82167
20
5.8906
11
-3.82209
21
5.89066
0
LINE
8
BLACK
6
CONTINUOUS
10
-3.82209
20
5.89066
11
-3.82316
21
5.89083
0
LINE
8
BLACK
6
CONTINUOUS
10
-3.82316
20
5.89083
11
-3.82484
21
5.89111
0
LINE
8
BLACK
6
CONTINUOUS
10
-3.82484
20
5.89111
11
-3.82707
21
5.89149
0
LINE
8
BLACK
6
CONTINUOUS
10
-3.82707
20
5.89149
11
-3.82979
21
5.89196
0
LINE
8
BLACK
6
CONTINUOUS
10
-3.82979
20
5.89196
11
-3.83295
21
5.8925
0
LINE
8
BLACK
6
CONTINUOUS
10
-3.83295
20
5.8925
11
-3.8365
21
5.89312
0
LINE
8
BLACK
6
CONTINUOUS
10
-3.8365
20
5.89312
11
-3.84037
21
5.89379
0
LINE
8
BLACK
6
CONTINUOUS
10
-3.84037
20
5.89379
11
-3.84452
21
5.89451
0
LINE
8
BLACK
6
CONTINUOUS
10
-3.84452
20
5.89451
11
-3.84889
21
5.89528
0
LINE
8
BLACK
6
CONTINUOUS
10
-3.84889
20
5.89528
11
-3.85041
21
5.89554
0
LINE
8
BLACK
6
CONTINUOUS
10
-3.85041
20
5.89554
11
-3.8787
21
5.9005
0
LINE
8
BLACK
6
CONTINUOUS
10
-3.8787
20
5.9005
11
-3.8787
21
5.91123
0
LINE
8
BLACK
6
CONTINUOUS
10
-3.8787
20
5.91123
11
-3.87789
21
5.91105
0
LINE
8
BLACK
6
CONTINUOUS
10
-3.9342
20
5.93072
11
-3.93124
21
5.92843
0
LINE
8
BLACK
6
CONTINUOUS
10
-3.93124
20
5.92843
11
-3.92844
21
5.92627
0
LINE
8
BLACK
6
CONTINUOUS
10
-3.92844
20
5.92627
11
-3.92584
21
5.92428
0
LINE
8
BLACK
6
CONTINUOUS
10
-3.92584
20
5.92428
11
-3.92351
21
5.9225
0
LINE
8
BLACK
6
CONTINUOUS
10
-3.92351
20
5.9225
11
-3.92149
21
5.92096
0
LINE
8
BLACK
6
CONTINUOUS
10
-3.92149
20
5.92096
11
-3.91985
21
5.91973
0
LINE
8
BLACK
6
CONTINUOUS
10
-3.91985
20
5.91973
11
-3.91864
21
5.91882
0
LINE
8
BLACK
6
CONTINUOUS
10
-3.91864
20
5.91882
11
-3.91791
21
5.9183
0
LINE
8
BLACK
6
CONTINUOUS
10
-3.91791
20
5.9183
11
-3.91775
21
5.9182
0
LINE
8
BLACK
6
CONTINUOUS
10
-3.91775
20
5.9182
11
-3.91718
21
5.91802
0
LINE
8
BLACK
6
CONTINUOUS
10
-3.91718
20
5.91802
11
-3.91599
21
5.91774
0
LINE
8
BLACK
6
CONTINUOUS
10
-3.91599
20
5.91774
11
-3.91427
21
5.91738
0
LINE
8
BLACK
6
CONTINUOUS
10
-3.91427
20
5.91738
11
-3.91212
21
5.91696
0
LINE
8
BLACK
6
CONTINUOUS
10
-3.91212
20
5.91696
11
-3.90963
21
5.91649
0
LINE
8
BLACK
6
CONTINUOUS
10
-3.90963
20
5.91649
11
-3.90688
21
5.91599
0
LINE
8
BLACK
6
CONTINUOUS
10
-3.90688
20
5.91599
11
-3.90527
21
5.91571
0
LINE
8
BLACK
6
CONTINUOUS
10
-3.90527
20
5.91571
11
-3.90245
21
5.91522
0
LINE
8
BLACK
6
CONTINUOUS
10
-3.90245
20
5.91522
11
-3.89983
21
5.91476
0
LINE
8
BLACK
6
CONTINUOUS
10
-3.89983
20
5.91476
11
-3.89752
21
5.91435
0
LINE
8
BLACK
6
CONTINUOUS
10
-3.89752
20
5.91435
11
-3.8956
21
5.91401
0
LINE
8
BLACK
6
CONTINUOUS
10
-3.8956
20
5.91401
11
-3.89415
21
5.91374
0
LINE
8
BLACK
6
CONTINUOUS
10
-3.89415
20
5.91374
11
-3.89328
21
5.91357
0
LINE
8
BLACK
6
CONTINUOUS
10
-3.89328
20
5.91357
11
-3.89307
21
5.91353
0
LINE
8
BLACK
6
CONTINUOUS
10
-3.89307
20
5.91353
11
-3.89282
21
5.91338
0
LINE
8
BLACK
6
CONTINUOUS
10
-3.89282
20
5.91338
11
-3.89265
21
5.91306
0
LINE
8
BLACK
6
CONTINUOUS
10
-3.89265
20
5.91306
11
-3.89254
21
5.91244
0
LINE
8
BLACK
6
CONTINUOUS
10
-3.89254
20
5.91244
11
-3.89247
21
5.9114
0
LINE
8
BLACK
6
CONTINUOUS
10
-3.89247
20
5.9114
11
-3.89244
21
5.90985
0
LINE
8
BLACK
6
CONTINUOUS
10
-3.89244
20
5.90985
11
-3.89244
21
5.90812
0
LINE
8
BLACK
6
CONTINUOUS
10
-3.89244
20
5.90812
11
-3.89245
21
5.90627
0
LINE
8
BLACK
6
CONTINUOUS
10
-3.89245
20
5.90627
11
-3.89249
21
5.90471
0
LINE
8
BLACK
6
CONTINUOUS
10
-3.89249
20
5.90471
11
-3.89255
21
5.90357
0
LINE
8
BLACK
6
CONTINUOUS
10
-3.89255
20
5.90357
11
-3.89263
21
5.90296
0
LINE
8
BLACK
6
CONTINUOUS
10
-3.89263
20
5.90296
11
-3.89266
21
5.9029
0
LINE
8
BLACK
6
CONTINUOUS
10
-3.89266
20
5.9029
11
-3.89306
21
5.90296
0
LINE
8
BLACK
6
CONTINUOUS
10
-3.89306
20
5.90296
11
-3.89408
21
5.90314
0
LINE
8
BLACK
6
CONTINUOUS
10
-3.89408
20
5.90314
11
-3.89566
21
5.9034
0
LINE
8
BLACK
6
CONTINUOUS
10
-3.89566
20
5.9034
11
-3.89769
21
5.90376
0
LINE
8
BLACK
6
CONTINUOUS
10
-3.89769
20
5.90376
11
-3.90011
21
5.90418
0
LINE
8
BLACK
6
CONTINUOUS
10
-3.90011
20
5.90418
11
-3.90282
21
5.90465
0
LINE
8
BLACK
6
CONTINUOUS
10
-3.90282
20
5.90465
11
-3.90527
21
5.90508
0
LINE
8
BLACK
6
CONTINUOUS
10
-3.90527
20
5.90508
11
-3.91766
21
5.90725
0
LINE
8
BLACK
6
CONTINUOUS
10
-3.91766
20
5.90725
11
-3.9336
21
5.90056
0
LINE
8
BLACK
6
CONTINUOUS
10
-3.9336
20
5.90056
11
-3.9368
21
5.89922
0
LINE
8
BLACK
6
CONTINUOUS
10
-3.9368
20
5.89922
11
-3.93979
21
5.89797
0
LINE
8
BLACK
6
CONTINUOUS
10
-3.93979
20
5.89797
11
-3.94251
21
5.89683
0
LINE
8
BLACK
6
CONTINUOUS
10
-3.94251
20
5.89683
11
-3.94489
21
5.89584
0
LINE
8
BLACK
6
CONTINUOUS
10
-3.94489
20
5.89584
11
-3.94687
21
5.89502
0
LINE
8
BLACK
6
CONTINUOUS
10
-3.94687
20
5.89502
11
-3.94838
21
5.8944
0
LINE
8
BLACK
6
CONTINUOUS
10
-3.94838
20
5.8944
11
-3.94936
21
5.89401
0
LINE
8
BLACK
6
CONTINUOUS
10
-3.94936
20
5.89401
11
-3.94974
21
5.89387
0
LINE
8
BLACK
6
CONTINUOUS
10
-3.94974
20
5.89387
11
-3.94974
21
5.89387
0
LINE
8
BLACK
6
CONTINUOUS
10
-3.94974
20
5.89387
11
-3.9498
21
5.89421
0
LINE
8
BLACK
6
CONTINUOUS
10
-3.9498
20
5.89421
11
-3.94984
21
5.89515
0
LINE
8
BLACK
6
CONTINUOUS
10
-3.94984
20
5.89515
11
-3.94986
21
5.89657
0
LINE
8
BLACK
6
CONTINUOUS
10
-3.94986
20
5.89657
11
-3.94986
21
5.89834
0
LINE
8
BLACK
6
CONTINUOUS
10
-3.94986
20
5.89834
11
-3.94984
21
5.89951
0
LINE
8
BLACK
6
CONTINUOUS
10
-3.94984
20
5.89951
11
-3.94974
21
5.90516
0
LINE
8
BLACK
6
CONTINUOUS
10
-3.94974
20
5.90516
11
-3.93845
21
5.90972
0
LINE
8
BLACK
6
CONTINUOUS
10
-3.93845
20
5.90972
11
-3.93578
21
5.91081
0
LINE
8
BLACK
6
CONTINUOUS
10
-3.93578
20
5.91081
11
-3.93333
21
5.91182
0
LINE
8
BLACK
6
CONTINUOUS
10
-3.93333
20
5.91182
11
-3.93118
21
5.91271
0
LINE
8
BLACK
6
CONTINUOUS
10
-3.93118
20
5.91271
11
-3.92942
21
5.91345
0
LINE
8
BLACK
6
CONTINUOUS
10
-3.92942
20
5.91345
11
-3.92811
21
5.91402
0
LINE
8
BLACK
6
CONTINUOUS
10
-3.92811
20
5.91402
11
-3.92734
21
5.91437
0
LINE
8
BLACK
6
CONTINUOUS
10
-3.92734
20
5.91437
11
-3.92717
21
5.91447
0
LINE
8
BLACK
6
CONTINUOUS
10
-3.92717
20
5.91447
11
-3.92745
21
5.91472
0
LINE
8
BLACK
6
CONTINUOUS
10
-3.92745
20
5.91472
11
-3.92825
21
5.91535
0
LINE
8
BLACK
6
CONTINUOUS
10
-3.92825
20
5.91535
11
-3.92951
21
5.91631
0
LINE
8
BLACK
6
CONTINUOUS
10
-3.92951
20
5.91631
11
-3.93116
21
5.91756
0
LINE
8
BLACK
6
CONTINUOUS
10
-3.93116
20
5.91756
11
-3.93314
21
5.91905
0
LINE
8
BLACK
6
CONTINUOUS
10
-3.93314
20
5.91905
11
-3.9354
21
5.92073
0
LINE
8
BLACK
6
CONTINUOUS
10
-3.9354
20
5.92073
11
-3.93785
21
5.92255
0
LINE
8
BLACK
6
CONTINUOUS
10
-3.93785
20
5.92255
11
-3.93841
21
5.92296
0
LINE
8
BLACK
6
CONTINUOUS
10
-3.93841
20
5.92296
11
-3.94091
21
5.92482
0
LINE
8
BLACK
6
CONTINUOUS
10
-3.94091
20
5.92482
11
-3.94323
21
5.92655
0
LINE
8
BLACK
6
CONTINUOUS
10
-3.94323
20
5.92655
11
-3.94529
21
5.92811
0
LINE
8
BLACK
6
CONTINUOUS
10
-3.94529
20
5.92811
11
-3.94704
21
5.92944
0
LINE
8
BLACK
6
CONTINUOUS
10
-3.94704
20
5.92944
11
-3.94842
21
5.93051
0
LINE
8
BLACK
6
CONTINUOUS
10
-3.94842
20
5.93051
11
-3.94935
21
5.93125
0
LINE
8
BLACK
6
CONTINUOUS
10
-3.94935
20
5.93125
11
-3.94978
21
5.93163
0
LINE
8
BLACK
6
CONTINUOUS
10
-3.94978
20
5.93163
11
-3.94979
21
5.93165
0
LINE
8
BLACK
6
CONTINUOUS
10
-3.94979
20
5.93165
11
-3.94984
21
5.93213
0
LINE
8
BLACK
6
CONTINUOUS
10
-3.94984
20
5.93213
11
-3.94987
21
5.9332
0
LINE
8
BLACK
6
CONTINUOUS
10
-3.94987
20
5.9332
11
-3.94987
21
5.93471
0
LINE
8
BLACK
6
CONTINUOUS
10
-3.94987
20
5.93471
11
-3.94986
21
5.93654
0
LINE
8
BLACK
6
CONTINUOUS
10
-3.94986
20
5.93654
11
-3.94984
21
5.9374
0
LINE
8
BLACK
6
CONTINUOUS
10
-3.94984
20
5.9374
11
-3.94974
21
5.94275
0
LINE
8
BLACK
6
CONTINUOUS
10
-3.94974
20
5.94275
11
-3.9342
21
5.93072
0
LINE
8
BLACK
6
CONTINUOUS
10
-4.02012
20
5.93576
11
-4.01907
21
5.93559
0
LINE
8
BLACK
6
CONTINUOUS
10
-4.01907
20
5.93559
11
-4.01742
21
5.93531
0
LINE
8
BLACK
6
CONTINUOUS
10
-4.01742
20
5.93531
11
-4.01522
21
5.93493
0
LINE
8
BLACK
6
CONTINUOUS
10
-4.01522
20
5.93493
11
-4.01252
21
5.93447
0
LINE
8
BLACK
6
CONTINUOUS
10
-4.01252
20
5.93447
11
-4.00938
21
5.93393
0
LINE
8
BLACK
6
CONTINUOUS
10
-4.00938
20
5.93393
11
-4.00585
21
5.93331
0
LINE
8
BLACK
6
CONTINUOUS
10
-4.00585
20
5.93331
11
-4.00199
21
5.93264
0
LINE
8
BLACK
6
CONTINUOUS
10
-4.00199
20
5.93264
11
-3.99784
21
5.93192
0
LINE
8
BLACK
6
CONTINUOUS
10
-3.99784
20
5.93192
11
-3.99347
21
5.93115
0
LINE
8
BLACK
6
CONTINUOUS
10
-3.99347
20
5.93115
11
-3.99177
21
5.93086
0
LINE
8
BLACK
6
CONTINUOUS
10
-3.99177
20
5.93086
11
-3.9633
21
5.92587
0
LINE
8
BLACK
6
CONTINUOUS
10
-3.9633
20
5.92587
11
-3.9633
21
5.91514
0
LINE
8
BLACK
6
CONTINUOUS
10
-3.9633
20
5.91514
11
-3.96429
21
5.91535
0
LINE
8
BLACK
6
CONTINUOUS
10
-3.96429
20
5.91535
11
-3.9648
21
5.91544
0
LINE
8
BLACK
6
CONTINUOUS
10
-3.9648
20
5.91544
11
-3.96597
21
5.91565
0
LINE
8
BLACK
6
CONTINUOUS
10
-3.96597
20
5.91565
11
-3.96773
21
5.91596
0
LINE
8
BLACK
6
CONTINUOUS
10
-3.96773
20
5.91596
11
-3.97003
21
5.91637
0
LINE
8
BLACK
6
CONTINUOUS
10
-3.97003
20
5.91637
11
-3.97281
21
5.91686
0
LINE
8
BLACK
6
CONTINUOUS
10
-3.97281
20
5.91686
11
-3.97602
21
5.91742
0
LINE
8
BLACK
6
CONTINUOUS
10
-3.97602
20
5.91742
11
-3.9796
21
5.91805
0
LINE
8
BLACK
6
CONTINUOUS
10
-3.9796
20
5.91805
11
-3.98348
21
5.91873
0
LINE
8
BLACK
6
CONTINUOUS
10
-3.98348
20
5.91873
11
-3.98762
21
5.91945
0
LINE
8
BLACK
6
CONTINUOUS
10
-3.98762
20
5.91945
11
-3.99195
21
5.92021
0
LINE
8
BLACK
6
CONTINUOUS
10
-3.99195
20
5.92021
11
-3.99222
21
5.92026
0
LINE
8
BLACK
6
CONTINUOUS
10
-3.99222
20
5.92026
11
-3.99656
21
5.92102
0
LINE
8
BLACK
6
CONTINUOUS
10
-3.99656
20
5.92102
11
-4.0007
21
5.92174
0
LINE
8
BLACK
6
CONTINUOUS
10
-4.0007
20
5.92174
11
-4.00459
21
5.92242
0
LINE
8
BLACK
6
CONTINUOUS
10
-4.00459
20
5.92242
11
-4.00816
21
5.92305
0
LINE
8
BLACK
6
CONTINUOUS
10
-4.00816
20
5.92305
11
-4.01138
21
5.92362
0
LINE
8
BLACK
6
CONTINUOUS
10
-4.01138
20
5.92362
11
-4.01417
21
5.92411
0
LINE
8
BLACK
6
CONTINUOUS
10
-4.01417
20
5.92411
11
-4.01648
21
5.92452
0
LINE
8
BLACK
6
CONTINUOUS
10
-4.01648
20
5.92452
11
-4.01825
21
5.92483
0
LINE
8
BLACK
6
CONTINUOUS
10
-4.01825
20
5.92483
11
-4.01943
21
5.92505
0
LINE
8
BLACK
6
CONTINUOUS
10
-4.01943
20
5.92505
11
-4.01996
21
5.92515
0
LINE
8
BLACK
6
CONTINUOUS
10
-4.01996
20
5.92515
11
-4.01997
21
5.92515
0
LINE
8
BLACK
6
CONTINUOUS
10
-4.01997
20
5.92515
11
-4.02029
21
5.92525
0
LINE
8
BLACK
6
CONTINUOUS
10
-4.02029
20
5.92525
11
-4.02051
21
5.92545
0
LINE
8
BLACK
6
CONTINUOUS
10
-4.02051
20
5.92545
11
-4.02065
21
5.92586
0
LINE
8
BLACK
6
CONTINUOUS
10
-4.02065
20
5.92586
11
-4.02073
21
5.92661
0
LINE
8
BLACK
6
CONTINUOUS
10
-4.02073
20
5.92661
11
-4.02077
21
5.9278
0
LINE
8
BLACK
6
CONTINUOUS
10
-4.02077
20
5.9278
11
-4.02078
21
5.92955
0
LINE
8
BLACK
6
CONTINUOUS
10
-4.02078
20
5.92955
11
-4.02078
21
5.93057
0
LINE
8
BLACK
6
CONTINUOUS
10
-4.02078
20
5.93057
11
-4.02077
21
5.93242
0
LINE
8
BLACK
6
CONTINUOUS
10
-4.02077
20
5.93242
11
-4.02072
21
5.93399
0
LINE
8
BLACK
6
CONTINUOUS
10
-4.02072
20
5.93399
11
-4.02064
21
5.93514
0
LINE
8
BLACK
6
CONTINUOUS
10
-4.02064
20
5.93514
11
-4.02055
21
5.93576
0
LINE
8
BLACK
6
CONTINUOUS
10
-4.02055
20
5.93576
11
-4.02051
21
5.93582
0
LINE
8
BLACK
6
CONTINUOUS
10
-4.02051
20
5.93582
11
-4.02012
21
5.93576
  0
ENDSEC
  0
EOF
