  0
SECTION
  2
HEADER
  9
$ANGBASE
  50
0.0
  9
$ANGDIR
  70
1
  9
$MEASUREMENT
  70
0
  0
ENDSEC
  0
SECTION
  2
TABLES
  0
TABLE
  2
LTYPE
  70
4
  0
LTYPE
  5
40F
  2
CONTINUOUS
  70
0
  3
Solid line
  72
65
  73
0
  40
0.0
  0
LTYPE
  5
410
  2
DASHDOT
 70
0
  3
Dash Dot ____ _ ____ _
 72
65
 73
4
 40
2.0
 49
1.25
 49
-0.25
 49
0.25
 49
-0.25
  0
LTYPE
  5
411
  2
DASHED
 70
0
  3
Dashed __ __ __ __ __
 72
65
 73
2
 40
0.75
 49
0.5
 49
-0.25
  0
LTYPE
  5
43B
  2
DOTTED
 70
0
  3
Dotted .  .  .  .
 72
65
 73
2
 40
0.2
 49
0.0
 49
-0.2
  0
ENDTAB
  0
TABLE
  2
STYLE
  70
4
  0
STYLE
  2
KICAD
  70
0
  40
0
  41
1
  42
1
  50
0
  71
0
  3
isocp.shx
  0
STYLE
  2
KICADB
  70
0
  40
0
  41
1
  42
1
  50
0
  71
0
  3
isocp.shx
  0
STYLE
  2
KICADI
  70
0
  40
0
  41
1
  42
1
  50
15
  71
0
  3
isocp.shx
  0
STYLE
  2
KICADBI
  70
0
  40
0
  41
1
  42
1
  50
15
  71
0
  3
isocp.shx
  0
ENDTAB
  0
TABLE
  2
LAYER
  70
1
  0
LAYER
  2
BLACK
  70
0
  62
7
  6
CONTINUOUS
  0
ENDTAB
  0
ENDSEC
  0
SECTION
  2
ENTITIES
0
LINE
8
BLACK
6
CONTINUOUS
10
-4.97761
20
5.52148
11
-4.97819
21
5.52287
0
LINE
8
BLACK
6
CONTINUOUS
10
-4.97819
20
5.52287
11
-4.97819
21
5.84768
0
LINE
8
BLACK
6
CONTINUOUS
10
-4.97819
20
5.84768
11
-4.97761
21
5.84907
0
LINE
8
BLACK
6
CONTINUOUS
10
-4.97761
20
5.84907
11
-4.97622
21
5.84965
0
LINE
8
BLACK
6
CONTINUOUS
10
-4.97622
20
5.84965
11
-4.81677
21
5.84965
0
LINE
8
BLACK
6
CONTINUOUS
10
-4.81677
20
5.84965
11
-4.81538
21
5.84907
0
LINE
8
BLACK
6
CONTINUOUS
10
-4.81538
20
5.84907
11
-4.8148
21
5.84768
0
LINE
8
BLACK
6
CONTINUOUS
10
-4.8148
20
5.84768
11
-4.8148
21
5.52287
0
LINE
8
BLACK
6
CONTINUOUS
10
-4.8148
20
5.52287
11
-4.81538
21
5.52148
0
LINE
8
BLACK
6
CONTINUOUS
10
-4.81538
20
5.52148
11
-4.81677
21
5.52091
0
LINE
8
BLACK
6
CONTINUOUS
10
-4.81677
20
5.52091
11
-4.97622
21
5.52091
0
LINE
8
BLACK
6
CONTINUOUS
10
-4.97622
20
5.52091
11
-4.97761
21
5.52148
0
LINE
8
BLACK
6
CONTINUOUS
10
-4.97425
20
5.84571
11
-4.97425
21
5.52484
0
LINE
8
BLACK
6
CONTINUOUS
10
-4.97425
20
5.52484
11
-4.81874
21
5.52484
0
LINE
8
BLACK
6
CONTINUOUS
10
-4.81874
20
5.52484
11
-4.81874
21
5.73839
0
LINE
8
BLACK
6
CONTINUOUS
10
-4.81874
20
5.73839
11
-4.84575
21
5.75749
0
LINE
8
BLACK
6
CONTINUOUS
10
-4.84575
20
5.75749
11
-4.84593
21
5.75778
0
LINE
8
BLACK
6
CONTINUOUS
10
-4.84593
20
5.75778
11
-4.84622
21
5.75796
0
LINE
8
BLACK
6
CONTINUOUS
10
-4.84622
20
5.75796
11
-4.84632
21
5.75839
0
LINE
8
BLACK
6
CONTINUOUS
10
-4.84632
20
5.75839
11
-4.84655
21
5.75876
0
LINE
8
BLACK
6
CONTINUOUS
10
-4.84655
20
5.75876
11
-4.84648
21
5.75909
0
LINE
8
BLACK
6
CONTINUOUS
10
-4.84648
20
5.75909
11
-4.84655
21
5.75943
0
LINE
8
BLACK
6
CONTINUOUS
10
-4.84655
20
5.75943
11
-4.84632
21
5.7598
0
LINE
8
BLACK
6
CONTINUOUS
10
-4.84632
20
5.7598
11
-4.84622
21
5.76023
0
LINE
8
BLACK
6
CONTINUOUS
10
-4.84622
20
5.76023
11
-4.84593
21
5.76041
0
LINE
8
BLACK
6
CONTINUOUS
10
-4.84593
20
5.76041
11
-4.84575
21
5.7607
0
LINE
8
BLACK
6
CONTINUOUS
10
-4.84575
20
5.7607
11
-4.81874
21
5.7798
0
LINE
8
BLACK
6
CONTINUOUS
10
-4.81874
20
5.7798
11
-4.81874
21
5.84571
0
LINE
8
BLACK
6
CONTINUOUS
10
-4.81874
20
5.84571
11
-4.97425
21
5.84571
0
LINE
8
BLACK
6
CONTINUOUS
10
-4.8412
20
5.75909
11
-4.81874
21
5.74321
0
LINE
8
BLACK
6
CONTINUOUS
10
-4.81874
20
5.74321
11
-4.81874
21
5.77498
0
LINE
8
BLACK
6
CONTINUOUS
10
-4.81874
20
5.77498
11
-4.8412
21
5.75909
0
LINE
8
BLACK
6
CONTINUOUS
10
-4.87233
20
5.67495
11
-4.87227
21
5.67495
0
LINE
8
BLACK
6
CONTINUOUS
10
-4.87227
20
5.67495
11
-4.86664
21
5.67308
0
LINE
8
BLACK
6
CONTINUOUS
10
-4.86664
20
5.67308
11
-4.86574
21
5.67259
0
LINE
8
BLACK
6
CONTINUOUS
10
-4.86574
20
5.67259
11
-4.86565
21
5.67244
0
LINE
8
BLACK
6
CONTINUOUS
10
-4.86565
20
5.67244
11
-4.86549
21
5.67237
0
LINE
8
BLACK
6
CONTINUOUS
10
-4.86549
20
5.67237
11
-4.86174
21
5.66862
0
LINE
8
BLACK
6
CONTINUOUS
10
-4.86174
20
5.66862
11
-4.86115
21
5.66778
0
LINE
8
BLACK
6
CONTINUOUS
10
-4.86115
20
5.66778
11
-4.86114
21
5.6676
0
LINE
8
BLACK
6
CONTINUOUS
10
-4.86114
20
5.6676
11
-4.86103
21
5.66746
0
LINE
8
BLACK
6
CONTINUOUS
10
-4.86103
20
5.66746
11
-4.85915
21
5.66184
0
LINE
8
BLACK
6
CONTINUOUS
10
-4.85915
20
5.66184
11
-4.85902
21
5.66096
0
LINE
8
BLACK
6
CONTINUOUS
10
-4.85902
20
5.66096
11
-4.859
21
5.6609
0
LINE
8
BLACK
6
CONTINUOUS
10
-4.859
20
5.6609
11
-4.859
21
5.65715
0
LINE
8
BLACK
6
CONTINUOUS
10
-4.859
20
5.65715
11
-4.85918
21
5.65614
0
LINE
8
BLACK
6
CONTINUOUS
10
-4.85918
20
5.65614
11
-4.86048
21
5.6546
0
LINE
8
BLACK
6
CONTINUOUS
10
-4.86048
20
5.6546
11
-4.86247
21
5.65425
0
LINE
8
BLACK
6
CONTINUOUS
10
-4.86247
20
5.65425
11
-4.86422
21
5.65526
0
LINE
8
BLACK
6
CONTINUOUS
10
-4.86422
20
5.65526
11
-4.86491
21
5.65715
0
LINE
8
BLACK
6
CONTINUOUS
10
-4.86491
20
5.65715
11
-4.86491
21
5.66042
0
LINE
8
BLACK
6
CONTINUOUS
10
-4.86491
20
5.66042
11
-4.86641
21
5.66493
0
LINE
8
BLACK
6
CONTINUOUS
10
-4.86641
20
5.66493
11
-4.86917
21
5.6677
0
LINE
8
BLACK
6
CONTINUOUS
10
-4.86917
20
5.6677
11
-4.87368
21
5.6692
0
LINE
8
BLACK
6
CONTINUOUS
10
-4.87368
20
5.6692
11
-4.90132
21
5.6692
0
LINE
8
BLACK
6
CONTINUOUS
10
-4.90132
20
5.6692
11
-4.90233
21
5.66938
0
LINE
8
BLACK
6
CONTINUOUS
10
-4.90233
20
5.66938
11
-4.90388
21
5.67068
0
LINE
8
BLACK
6
CONTINUOUS
10
-4.90388
20
5.67068
11
-4.90423
21
5.67266
0
LINE
8
BLACK
6
CONTINUOUS
10
-4.90423
20
5.67266
11
-4.90322
21
5.67441
0
LINE
8
BLACK
6
CONTINUOUS
10
-4.90322
20
5.67441
11
-4.90132
21
5.6751
0
LINE
8
BLACK
6
CONTINUOUS
10
-4.90132
20
5.6751
11
-4.8732
21
5.6751
0
LINE
8
BLACK
6
CONTINUOUS
10
-4.8732
20
5.6751
11
-4.87233
21
5.67495
0
LINE
8
BLACK
6
CONTINUOUS
10
-4.88921
20
5.71432
11
-4.88914
21
5.71432
0
LINE
8
BLACK
6
CONTINUOUS
10
-4.88914
20
5.71432
11
-4.88352
21
5.71245
0
LINE
8
BLACK
6
CONTINUOUS
10
-4.88352
20
5.71245
11
-4.88262
21
5.71196
0
LINE
8
BLACK
6
CONTINUOUS
10
-4.88262
20
5.71196
11
-4.88252
21
5.71181
0
LINE
8
BLACK
6
CONTINUOUS
10
-4.88252
20
5.71181
11
-4.88236
21
5.71174
0
LINE
8
BLACK
6
CONTINUOUS
10
-4.88236
20
5.71174
11
-4.86491
21
5.69428
0
LINE
8
BLACK
6
CONTINUOUS
10
-4.86491
20
5.69428
11
-4.86491
21
5.71152
0
LINE
8
BLACK
6
CONTINUOUS
10
-4.86491
20
5.71152
11
-4.86473
21
5.71253
0
LINE
8
BLACK
6
CONTINUOUS
10
-4.86473
20
5.71253
11
-4.86343
21
5.71408
0
LINE
8
BLACK
6
CONTINUOUS
10
-4.86343
20
5.71408
11
-4.86144
21
5.71443
0
LINE
8
BLACK
6
CONTINUOUS
10
-4.86144
20
5.71443
11
-4.85969
21
5.71342
0
LINE
8
BLACK
6
CONTINUOUS
10
-4.85969
20
5.71342
11
-4.859
21
5.71152
0
LINE
8
BLACK
6
CONTINUOUS
10
-4.859
20
5.71152
11
-4.859
21
5.68715
0
LINE
8
BLACK
6
CONTINUOUS
10
-4.859
20
5.68715
11
-4.85911
21
5.68652
0
LINE
8
BLACK
6
CONTINUOUS
10
-4.85911
20
5.68652
11
-4.8591
21
5.68639
0
LINE
8
BLACK
6
CONTINUOUS
10
-4.8591
20
5.68639
11
-4.85915
21
5.68632
0
LINE
8
BLACK
6
CONTINUOUS
10
-4.85915
20
5.68632
11
-4.85918
21
5.68614
0
LINE
8
BLACK
6
CONTINUOUS
10
-4.85918
20
5.68614
11
-4.85975
21
5.68546
0
LINE
8
BLACK
6
CONTINUOUS
10
-4.85975
20
5.68546
11
-4.86026
21
5.68473
0
LINE
8
BLACK
6
CONTINUOUS
10
-4.86026
20
5.68473
11
-4.86039
21
5.6847
0
LINE
8
BLACK
6
CONTINUOUS
10
-4.86039
20
5.6847
11
-4.86048
21
5.68459
0
LINE
8
BLACK
6
CONTINUOUS
10
-4.86048
20
5.68459
11
-4.86135
21
5.68444
0
LINE
8
BLACK
6
CONTINUOUS
10
-4.86135
20
5.68444
11
-4.86221
21
5.68421
0
LINE
8
BLACK
6
CONTINUOUS
10
-4.86221
20
5.68421
11
-4.86233
21
5.68427
0
LINE
8
BLACK
6
CONTINUOUS
10
-4.86233
20
5.68427
11
-4.86247
21
5.68424
0
LINE
8
BLACK
6
CONTINUOUS
10
-4.86247
20
5.68424
11
-4.86324
21
5.68469
0
LINE
8
BLACK
6
CONTINUOUS
10
-4.86324
20
5.68469
11
-4.86404
21
5.68506
0
LINE
8
BLACK
6
CONTINUOUS
10
-4.86404
20
5.68506
11
-4.88605
21
5.70707
0
LINE
8
BLACK
6
CONTINUOUS
10
-4.88605
20
5.70707
11
-4.89055
21
5.70857
0
LINE
8
BLACK
6
CONTINUOUS
10
-4.89055
20
5.70857
11
-4.89313
21
5.70857
0
LINE
8
BLACK
6
CONTINUOUS
10
-4.89313
20
5.70857
11
-4.89582
21
5.70722
0
LINE
8
BLACK
6
CONTINUOUS
10
-4.89582
20
5.70722
11
-4.89702
21
5.70602
0
LINE
8
BLACK
6
CONTINUOUS
10
-4.89702
20
5.70602
11
-4.89837
21
5.70333
0
LINE
8
BLACK
6
CONTINUOUS
10
-4.89837
20
5.70333
11
-4.89837
21
5.69535
0
LINE
8
BLACK
6
CONTINUOUS
10
-4.89837
20
5.69535
11
-4.89702
21
5.69265
0
LINE
8
BLACK
6
CONTINUOUS
10
-4.89702
20
5.69265
11
-4.89549
21
5.69111
0
LINE
8
BLACK
6
CONTINUOUS
10
-4.89549
20
5.69111
11
-4.8949
21
5.69027
0
LINE
8
BLACK
6
CONTINUOUS
10
-4.8949
20
5.69027
11
-4.89472
21
5.68826
0
LINE
8
BLACK
6
CONTINUOUS
10
-4.89472
20
5.68826
11
-4.89588
21
5.68661
0
LINE
8
BLACK
6
CONTINUOUS
10
-4.89588
20
5.68661
11
-4.89783
21
5.68608
0
LINE
8
BLACK
6
CONTINUOUS
10
-4.89783
20
5.68608
11
-4.89966
21
5.68694
0
LINE
8
BLACK
6
CONTINUOUS
10
-4.89966
20
5.68694
11
-4.90154
21
5.68881
0
LINE
8
BLACK
6
CONTINUOUS
10
-4.90154
20
5.68881
11
-4.90204
21
5.68953
0
LINE
8
BLACK
6
CONTINUOUS
10
-4.90204
20
5.68953
11
-4.90209
21
5.68958
0
LINE
8
BLACK
6
CONTINUOUS
10
-4.90209
20
5.68958
11
-4.90396
21
5.69333
0
LINE
8
BLACK
6
CONTINUOUS
10
-4.90396
20
5.69333
11
-4.90426
21
5.69431
0
LINE
8
BLACK
6
CONTINUOUS
10
-4.90426
20
5.69431
11
-4.90422
21
5.69448
0
LINE
8
BLACK
6
CONTINUOUS
10
-4.90422
20
5.69448
11
-4.90428
21
5.69465
0
LINE
8
BLACK
6
CONTINUOUS
10
-4.90428
20
5.69465
11
-4.90428
21
5.70402
0
LINE
8
BLACK
6
CONTINUOUS
10
-4.90428
20
5.70402
11
-4.9041
21
5.70503
0
LINE
8
BLACK
6
CONTINUOUS
10
-4.9041
20
5.70503
11
-4.90398
21
5.70517
0
LINE
8
BLACK
6
CONTINUOUS
10
-4.90398
20
5.70517
11
-4.90396
21
5.70534
0
LINE
8
BLACK
6
CONTINUOUS
10
-4.90396
20
5.70534
11
-4.90209
21
5.70909
0
LINE
8
BLACK
6
CONTINUOUS
10
-4.90209
20
5.70909
11
-4.90156
21
5.7098
0
LINE
8
BLACK
6
CONTINUOUS
10
-4.90156
20
5.7098
11
-4.90154
21
5.70986
0
LINE
8
BLACK
6
CONTINUOUS
10
-4.90154
20
5.70986
11
-4.89966
21
5.71174
0
LINE
8
BLACK
6
CONTINUOUS
10
-4.89966
20
5.71174
11
-4.89894
21
5.71224
0
LINE
8
BLACK
6
CONTINUOUS
10
-4.89894
20
5.71224
11
-4.89889
21
5.71229
0
LINE
8
BLACK
6
CONTINUOUS
10
-4.89889
20
5.71229
11
-4.89515
21
5.71416
0
LINE
8
BLACK
6
CONTINUOUS
10
-4.89515
20
5.71416
11
-4.89416
21
5.71446
0
LINE
8
BLACK
6
CONTINUOUS
10
-4.89416
20
5.71446
11
-4.89399
21
5.71441
0
LINE
8
BLACK
6
CONTINUOUS
10
-4.89399
20
5.71441
11
-4.89382
21
5.71448
0
LINE
8
BLACK
6
CONTINUOUS
10
-4.89382
20
5.71448
11
-4.89007
21
5.71448
0
LINE
8
BLACK
6
CONTINUOUS
10
-4.89007
20
5.71448
11
-4.88921
21
5.71432
  0
ENDSEC
  0
EOF
