  0
SECTION
  2
HEADER
  9
$ANGBASE
  50
0.0
  9
$ANGDIR
  70
1
  9
$MEASUREMENT
  70
0
  0
ENDSEC
  0
SECTION
  2
TABLES
  0
TABLE
  2
LTYPE
  70
4
  0
LTYPE
  5
40F
  2
CONTINUOUS
  70
0
  3
Solid line
  72
65
  73
0
  40
0.0
  0
LTYPE
  5
410
  2
DASHDOT
 70
0
  3
Dash Dot ____ _ ____ _
 72
65
 73
4
 40
2.0
 49
1.25
 49
-0.25
 49
0.25
 49
-0.25
  0
LTYPE
  5
411
  2
DASHED
 70
0
  3
Dashed __ __ __ __ __
 72
65
 73
2
 40
0.75
 49
0.5
 49
-0.25
  0
LTYPE
  5
43B
  2
DOTTED
 70
0
  3
Dotted .  .  .  .
 72
65
 73
2
 40
0.2
 49
0.0
 49
-0.2
  0
ENDTAB
  0
TABLE
  2
STYLE
  70
4
  0
STYLE
  2
KICAD
  70
0
  40
0
  41
1
  42
1
  50
0
  71
0
  3
isocp.shx
  0
STYLE
  2
KICADB
  70
0
  40
0
  41
1
  42
1
  50
0
  71
0
  3
isocp.shx
  0
STYLE
  2
KICADI
  70
0
  40
0
  41
1
  42
1
  50
15
  71
0
  3
isocp.shx
  0
STYLE
  2
KICADBI
  70
0
  40
0
  41
1
  42
1
  50
15
  71
0
  3
isocp.shx
  0
ENDTAB
  0
TABLE
  2
LAYER
  70
1
  0
LAYER
  2
BLACK
  70
0
  62
7
  6
CONTINUOUS
  0
ENDTAB
  0
ENDSEC
  0
SECTION
  2
ENTITIES
0
LINE
8
BLACK
6
CONTINUOUS
10
-4.23109
20
5.42443
11
-4.21927
21
5.41262
0
LINE
8
BLACK
6
CONTINUOUS
10
-4.21927
20
5.41262
11
-4.21858
21
5.41094
0
LINE
8
BLACK
6
CONTINUOUS
10
-4.21858
20
5.41094
11
-4.21927
21
5.40927
0
LINE
8
BLACK
6
CONTINUOUS
10
-4.21927
20
5.40927
11
-4.22094
21
5.40858
0
LINE
8
BLACK
6
CONTINUOUS
10
-4.22094
20
5.40858
11
-4.24457
21
5.40858
0
LINE
8
BLACK
6
CONTINUOUS
10
-4.24457
20
5.40858
11
-4.24624
21
5.40927
0
LINE
8
BLACK
6
CONTINUOUS
10
-4.24624
20
5.40927
11
-4.24693
21
5.41094
0
LINE
8
BLACK
6
CONTINUOUS
10
-4.24693
20
5.41094
11
-4.24624
21
5.41262
0
LINE
8
BLACK
6
CONTINUOUS
10
-4.24624
20
5.41262
11
-4.23443
21
5.42443
0
LINE
8
BLACK
6
CONTINUOUS
10
-4.23443
20
5.42443
11
-4.23276
21
5.42512
0
LINE
8
BLACK
6
CONTINUOUS
10
-4.23276
20
5.42512
11
-4.23109
21
5.42443
0
LINE
8
BLACK
6
CONTINUOUS
10
-4.23886
20
5.41331
11
-4.22665
21
5.41331
0
LINE
8
BLACK
6
CONTINUOUS
10
-4.22665
20
5.41331
11
-4.23276
21
5.41942
0
LINE
8
BLACK
6
CONTINUOUS
10
-4.23276
20
5.41942
11
-4.23886
21
5.41331
0
LINE
8
BLACK
6
CONTINUOUS
10
-4.33573
20
5.42852
11
-4.33899
21
5.42884
0
LINE
8
BLACK
6
CONTINUOUS
10
-4.33899
20
5.42884
11
-4.3446
21
5.43055
0
LINE
8
BLACK
6
CONTINUOUS
10
-4.3446
20
5.43055
11
-4.34977
21
5.43331
0
LINE
8
BLACK
6
CONTINUOUS
10
-4.34977
20
5.43331
11
-4.35431
21
5.43703
0
LINE
8
BLACK
6
CONTINUOUS
10
-4.35431
20
5.43703
11
-4.35803
21
5.44157
0
LINE
8
BLACK
6
CONTINUOUS
10
-4.35803
20
5.44157
11
-4.36079
21
5.44674
0
LINE
8
BLACK
6
CONTINUOUS
10
-4.36079
20
5.44674
11
-4.3625
21
5.45235
0
LINE
8
BLACK
6
CONTINUOUS
10
-4.3625
20
5.45235
11
-4.36307
21
5.45819
0
LINE
8
BLACK
6
CONTINUOUS
10
-4.36307
20
5.45819
11
-4.36307
21
5.48181
0
LINE
8
BLACK
6
CONTINUOUS
10
-4.36307
20
5.48181
11
-4.3625
21
5.48765
0
LINE
8
BLACK
6
CONTINUOUS
10
-4.3625
20
5.48765
11
-4.36079
21
5.49326
0
LINE
8
BLACK
6
CONTINUOUS
10
-4.36079
20
5.49326
11
-4.35803
21
5.49843
0
LINE
8
BLACK
6
CONTINUOUS
10
-4.35803
20
5.49843
11
-4.35431
21
5.50297
0
LINE
8
BLACK
6
CONTINUOUS
10
-4.35431
20
5.50297
11
-4.34977
21
5.50669
0
LINE
8
BLACK
6
CONTINUOUS
10
-4.34977
20
5.50669
11
-4.3446
21
5.50945
0
LINE
8
BLACK
6
CONTINUOUS
10
-4.3446
20
5.50945
11
-4.33899
21
5.51116
0
LINE
8
BLACK
6
CONTINUOUS
10
-4.33899
20
5.51116
11
-4.33573
21
5.51148
0
LINE
8
BLACK
6
CONTINUOUS
10
-4.33573
20
5.51148
11
-4.33512
21
5.51173
0
LINE
8
BLACK
6
CONTINUOUS
10
-4.33512
20
5.51173
11
-4.22488
21
5.51173
0
LINE
8
BLACK
6
CONTINUOUS
10
-4.22488
20
5.51173
11
-4.22427
21
5.51148
0
LINE
8
BLACK
6
CONTINUOUS
10
-4.22427
20
5.51148
11
-4.22101
21
5.51116
0
LINE
8
BLACK
6
CONTINUOUS
10
-4.22101
20
5.51116
11
-4.2154
21
5.50945
0
LINE
8
BLACK
6
CONTINUOUS
10
-4.2154
20
5.50945
11
-4.21023
21
5.50669
0
LINE
8
BLACK
6
CONTINUOUS
10
-4.21023
20
5.50669
11
-4.20569
21
5.50297
0
LINE
8
BLACK
6
CONTINUOUS
10
-4.20569
20
5.50297
11
-4.20197
21
5.49843
0
LINE
8
BLACK
6
CONTINUOUS
10
-4.20197
20
5.49843
11
-4.19921
21
5.49326
0
LINE
8
BLACK
6
CONTINUOUS
10
-4.19921
20
5.49326
11
-4.1975
21
5.48765
0
LINE
8
BLACK
6
CONTINUOUS
10
-4.1975
20
5.48765
11
-4.19693
21
5.48181
0
LINE
8
BLACK
6
CONTINUOUS
10
-4.19693
20
5.48181
11
-4.19693
21
5.45819
0
LINE
8
BLACK
6
CONTINUOUS
10
-4.19693
20
5.45819
11
-4.1975
21
5.45235
0
LINE
8
BLACK
6
CONTINUOUS
10
-4.1975
20
5.45235
11
-4.19921
21
5.44674
0
LINE
8
BLACK
6
CONTINUOUS
10
-4.19921
20
5.44674
11
-4.20197
21
5.44157
0
LINE
8
BLACK
6
CONTINUOUS
10
-4.20197
20
5.44157
11
-4.20569
21
5.43703
0
LINE
8
BLACK
6
CONTINUOUS
10
-4.20569
20
5.43703
11
-4.21023
21
5.43331
0
LINE
8
BLACK
6
CONTINUOUS
10
-4.21023
20
5.43331
11
-4.2154
21
5.43055
0
LINE
8
BLACK
6
CONTINUOUS
10
-4.2154
20
5.43055
11
-4.22101
21
5.42884
0
LINE
8
BLACK
6
CONTINUOUS
10
-4.22101
20
5.42884
11
-4.22427
21
5.42852
0
LINE
8
BLACK
6
CONTINUOUS
10
-4.22427
20
5.42852
11
-4.22488
21
5.42827
0
LINE
8
BLACK
6
CONTINUOUS
10
-4.22488
20
5.42827
11
-4.33512
21
5.42827
0
LINE
8
BLACK
6
CONTINUOUS
10
-4.33512
20
5.42827
11
-4.33573
21
5.42852
0
LINE
8
BLACK
6
CONTINUOUS
10
-4.33879
20
5.50653
11
-4.34415
21
5.50466
0
LINE
8
BLACK
6
CONTINUOUS
10
-4.34415
20
5.50466
11
-4.34896
21
5.50164
0
LINE
8
BLACK
6
CONTINUOUS
10
-4.34896
20
5.50164
11
-4.35297
21
5.49762
0
LINE
8
BLACK
6
CONTINUOUS
10
-4.35297
20
5.49762
11
-4.35599
21
5.49281
0
LINE
8
BLACK
6
CONTINUOUS
10
-4.35599
20
5.49281
11
-4.35787
21
5.48745
0
LINE
8
BLACK
6
CONTINUOUS
10
-4.35787
20
5.48745
11
-4.35847
21
5.48211
0
LINE
8
BLACK
6
CONTINUOUS
10
-4.35847
20
5.48211
11
-4.35835
21
5.48181
0
LINE
8
BLACK
6
CONTINUOUS
10
-4.35835
20
5.48181
11
-4.35835
21
5.45819
0
LINE
8
BLACK
6
CONTINUOUS
10
-4.35835
20
5.45819
11
-4.35847
21
5.45789
0
LINE
8
BLACK
6
CONTINUOUS
10
-4.35847
20
5.45789
11
-4.35787
21
5.45255
0
LINE
8
BLACK
6
CONTINUOUS
10
-4.35787
20
5.45255
11
-4.35599
21
5.44719
0
LINE
8
BLACK
6
CONTINUOUS
10
-4.35599
20
5.44719
11
-4.35297
21
5.44238
0
LINE
8
BLACK
6
CONTINUOUS
10
-4.35297
20
5.44238
11
-4.34896
21
5.43836
0
LINE
8
BLACK
6
CONTINUOUS
10
-4.34896
20
5.43836
11
-4.34415
21
5.43534
0
LINE
8
BLACK
6
CONTINUOUS
10
-4.34415
20
5.43534
11
-4.33879
21
5.43347
0
LINE
8
BLACK
6
CONTINUOUS
10
-4.33879
20
5.43347
11
-4.33456
21
5.43299
0
LINE
8
BLACK
6
CONTINUOUS
10
-4.33456
20
5.43299
11
-4.22544
21
5.43299
0
LINE
8
BLACK
6
CONTINUOUS
10
-4.22544
20
5.43299
11
-4.22121
21
5.43347
0
LINE
8
BLACK
6
CONTINUOUS
10
-4.22121
20
5.43347
11
-4.21585
21
5.43534
0
LINE
8
BLACK
6
CONTINUOUS
10
-4.21585
20
5.43534
11
-4.21104
21
5.43836
0
LINE
8
BLACK
6
CONTINUOUS
10
-4.21104
20
5.43836
11
-4.20703
21
5.44238
0
LINE
8
BLACK
6
CONTINUOUS
10
-4.20703
20
5.44238
11
-4.20401
21
5.44719
0
LINE
8
BLACK
6
CONTINUOUS
10
-4.20401
20
5.44719
11
-4.20213
21
5.45255
0
LINE
8
BLACK
6
CONTINUOUS
10
-4.20213
20
5.45255
11
-4.20153
21
5.45789
0
LINE
8
BLACK
6
CONTINUOUS
10
-4.20153
20
5.45789
11
-4.20165
21
5.45819
0
LINE
8
BLACK
6
CONTINUOUS
10
-4.20165
20
5.45819
11
-4.20165
21
5.48181
0
LINE
8
BLACK
6
CONTINUOUS
10
-4.20165
20
5.48181
11
-4.20153
21
5.48211
0
LINE
8
BLACK
6
CONTINUOUS
10
-4.20153
20
5.48211
11
-4.20213
21
5.48745
0
LINE
8
BLACK
6
CONTINUOUS
10
-4.20213
20
5.48745
11
-4.20401
21
5.49281
0
LINE
8
BLACK
6
CONTINUOUS
10
-4.20401
20
5.49281
11
-4.20703
21
5.49762
0
LINE
8
BLACK
6
CONTINUOUS
10
-4.20703
20
5.49762
11
-4.21104
21
5.50164
0
LINE
8
BLACK
6
CONTINUOUS
10
-4.21104
20
5.50164
11
-4.21585
21
5.50466
0
LINE
8
BLACK
6
CONTINUOUS
10
-4.21585
20
5.50466
11
-4.22121
21
5.50653
0
LINE
8
BLACK
6
CONTINUOUS
10
-4.22121
20
5.50653
11
-4.22544
21
5.50701
0
LINE
8
BLACK
6
CONTINUOUS
10
-4.22544
20
5.50701
11
-4.33456
21
5.50701
0
LINE
8
BLACK
6
CONTINUOUS
10
-4.33456
20
5.50701
11
-4.33879
21
5.50653
0
LINE
8
BLACK
6
CONTINUOUS
10
-4.81355
20
5.46862
11
-4.81244
21
5.46694
0
LINE
8
BLACK
6
CONTINUOUS
10
-4.81244
20
5.46694
11
-4.81267
21
5.46493
0
LINE
8
BLACK
6
CONTINUOUS
10
-4.81267
20
5.46493
11
-4.81454
21
5.46118
0
LINE
8
BLACK
6
CONTINUOUS
10
-4.81454
20
5.46118
11
-4.81507
21
5.46047
0
LINE
8
BLACK
6
CONTINUOUS
10
-4.81507
20
5.46047
11
-4.8151
21
5.46041
0
LINE
8
BLACK
6
CONTINUOUS
10
-4.8151
20
5.46041
11
-4.81756
21
5.45795
0
LINE
8
BLACK
6
CONTINUOUS
10
-4.81756
20
5.45795
11
-4.79014
21
5.45795
0
LINE
8
BLACK
6
CONTINUOUS
10
-4.79014
20
5.45795
11
-4.79014
21
5.46625
0
LINE
8
BLACK
6
CONTINUOUS
10
-4.79014
20
5.46625
11
-4.78996
21
5.46726
0
LINE
8
BLACK
6
CONTINUOUS
10
-4.78996
20
5.46726
11
-4.78867
21
5.46881
0
LINE
8
BLACK
6
CONTINUOUS
10
-4.78867
20
5.46881
11
-4.78668
21
5.46916
0
LINE
8
BLACK
6
CONTINUOUS
10
-4.78668
20
5.46916
11
-4.78493
21
5.46815
0
LINE
8
BLACK
6
CONTINUOUS
10
-4.78493
20
5.46815
11
-4.78424
21
5.46625
0
LINE
8
BLACK
6
CONTINUOUS
10
-4.78424
20
5.46625
11
-4.78424
21
5.44375
0
LINE
8
BLACK
6
CONTINUOUS
10
-4.78424
20
5.44375
11
-4.78442
21
5.44274
0
LINE
8
BLACK
6
CONTINUOUS
10
-4.78442
20
5.44274
11
-4.78571
21
5.4412
0
LINE
8
BLACK
6
CONTINUOUS
10
-4.78571
20
5.4412
11
-4.7877
21
5.44085
0
LINE
8
BLACK
6
CONTINUOUS
10
-4.7877
20
5.44085
11
-4.78945
21
5.44186
0
LINE
8
BLACK
6
CONTINUOUS
10
-4.78945
20
5.44186
11
-4.79014
21
5.44375
0
LINE
8
BLACK
6
CONTINUOUS
10
-4.79014
20
5.44375
11
-4.79014
21
5.45205
0
LINE
8
BLACK
6
CONTINUOUS
10
-4.79014
20
5.45205
11
-4.82656
21
5.45205
0
LINE
8
BLACK
6
CONTINUOUS
10
-4.82656
20
5.45205
11
-4.82757
21
5.45223
0
LINE
8
BLACK
6
CONTINUOUS
10
-4.82757
20
5.45223
11
-4.8277
21
5.45234
0
LINE
8
BLACK
6
CONTINUOUS
10
-4.8277
20
5.45234
11
-4.82787
21
5.45235
0
LINE
8
BLACK
6
CONTINUOUS
10
-4.82787
20
5.45235
11
-4.82846
21
5.45297
0
LINE
8
BLACK
6
CONTINUOUS
10
-4.82846
20
5.45297
11
-4.82912
21
5.45353
0
LINE
8
BLACK
6
CONTINUOUS
10
-4.82912
20
5.45353
11
-4.82915
21
5.45369
0
LINE
8
BLACK
6
CONTINUOUS
10
-4.82915
20
5.45369
11
-4.82926
21
5.45382
0
LINE
8
BLACK
6
CONTINUOUS
10
-4.82926
20
5.45382
11
-4.82932
21
5.45467
0
LINE
8
BLACK
6
CONTINUOUS
10
-4.82932
20
5.45467
11
-4.82947
21
5.45551
0
LINE
8
BLACK
6
CONTINUOUS
10
-4.82947
20
5.45551
11
-4.82938
21
5.45566
0
LINE
8
BLACK
6
CONTINUOUS
10
-4.82938
20
5.45566
11
-4.82939
21
5.45583
0
LINE
8
BLACK
6
CONTINUOUS
10
-4.82939
20
5.45583
11
-4.82889
21
5.45652
0
LINE
8
BLACK
6
CONTINUOUS
10
-4.82889
20
5.45652
11
-4.82846
21
5.45726
0
LINE
8
BLACK
6
CONTINUOUS
10
-4.82846
20
5.45726
11
-4.8283
21
5.45732
0
LINE
8
BLACK
6
CONTINUOUS
10
-4.8283
20
5.45732
11
-4.8282
21
5.45746
0
LINE
8
BLACK
6
CONTINUOUS
10
-4.8282
20
5.45746
11
-4.82282
21
5.46105
0
LINE
8
BLACK
6
CONTINUOUS
10
-4.82282
20
5.46105
11
-4.81961
21
5.46425
0
LINE
8
BLACK
6
CONTINUOUS
10
-4.81961
20
5.46425
11
-4.81795
21
5.46757
0
LINE
8
BLACK
6
CONTINUOUS
10
-4.81795
20
5.46757
11
-4.81734
21
5.46839
0
LINE
8
BLACK
6
CONTINUOUS
10
-4.81734
20
5.46839
11
-4.81549
21
5.4692
0
LINE
8
BLACK
6
CONTINUOUS
10
-4.81549
20
5.4692
11
-4.81355
21
5.46862
0
LINE
8
BLACK
6
CONTINUOUS
10
-4.45792
20
5.47659
11
-4.45723
21
5.47492
0
LINE
8
BLACK
6
CONTINUOUS
10
-4.45723
20
5.47492
11
-4.45792
21
5.47325
0
LINE
8
BLACK
6
CONTINUOUS
10
-4.45792
20
5.47325
11
-4.4596
21
5.47256
0
LINE
8
BLACK
6
CONTINUOUS
10
-4.4596
20
5.47256
11
-4.47241
21
5.47256
0
LINE
8
BLACK
6
CONTINUOUS
10
-4.47241
20
5.47256
11
-4.47408
21
5.47325
0
LINE
8
BLACK
6
CONTINUOUS
10
-4.47408
20
5.47325
11
-4.47477
21
5.47492
0
LINE
8
BLACK
6
CONTINUOUS
10
-4.47477
20
5.47492
11
-4.47408
21
5.47659
0
LINE
8
BLACK
6
CONTINUOUS
10
-4.47408
20
5.47659
11
-4.47241
21
5.47728
0
LINE
8
BLACK
6
CONTINUOUS
10
-4.47241
20
5.47728
11
-4.4596
21
5.47728
0
LINE
8
BLACK
6
CONTINUOUS
10
-4.4596
20
5.47728
11
-4.45792
21
5.47659
0
LINE
8
BLACK
6
CONTINUOUS
10
-4.78493
20
5.50002
11
-4.78424
21
5.49812
0
LINE
8
BLACK
6
CONTINUOUS
10
-4.78424
20
5.49812
11
-4.78424
21
5.49437
0
LINE
8
BLACK
6
CONTINUOUS
10
-4.78424
20
5.49437
11
-4.78439
21
5.4935
0
LINE
8
BLACK
6
CONTINUOUS
10
-4.78439
20
5.4935
11
-4.78439
21
5.49344
0
LINE
8
BLACK
6
CONTINUOUS
10
-4.78439
20
5.49344
11
-4.78626
21
5.48781
0
LINE
8
BLACK
6
CONTINUOUS
10
-4.78626
20
5.48781
11
-4.78675
21
5.48691
0
LINE
8
BLACK
6
CONTINUOUS
10
-4.78675
20
5.48691
11
-4.7869
21
5.48682
0
LINE
8
BLACK
6
CONTINUOUS
10
-4.7869
20
5.48682
11
-4.78698
21
5.48666
0
LINE
8
BLACK
6
CONTINUOUS
10
-4.78698
20
5.48666
11
-4.79073
21
5.48291
0
LINE
8
BLACK
6
CONTINUOUS
10
-4.79073
20
5.48291
11
-4.79157
21
5.48232
0
LINE
8
BLACK
6
CONTINUOUS
10
-4.79157
20
5.48232
11
-4.79174
21
5.48231
0
LINE
8
BLACK
6
CONTINUOUS
10
-4.79174
20
5.48231
11
-4.79188
21
5.4822
0
LINE
8
BLACK
6
CONTINUOUS
10
-4.79188
20
5.4822
11
-4.7975
21
5.48032
0
LINE
8
BLACK
6
CONTINUOUS
10
-4.7975
20
5.48032
11
-4.79838
21
5.48019
0
LINE
8
BLACK
6
CONTINUOUS
10
-4.79838
20
5.48019
11
-4.79844
21
5.48017
0
LINE
8
BLACK
6
CONTINUOUS
10
-4.79844
20
5.48017
11
-4.82656
21
5.48017
0
LINE
8
BLACK
6
CONTINUOUS
10
-4.82656
20
5.48017
11
-4.82757
21
5.48035
0
LINE
8
BLACK
6
CONTINUOUS
10
-4.82757
20
5.48035
11
-4.82912
21
5.48165
0
LINE
8
BLACK
6
CONTINUOUS
10
-4.82912
20
5.48165
11
-4.82947
21
5.48364
0
LINE
8
BLACK
6
CONTINUOUS
10
-4.82947
20
5.48364
11
-4.82846
21
5.48539
0
LINE
8
BLACK
6
CONTINUOUS
10
-4.82846
20
5.48539
11
-4.82656
21
5.48608
0
LINE
8
BLACK
6
CONTINUOUS
10
-4.82656
20
5.48608
11
-4.79892
21
5.48608
0
LINE
8
BLACK
6
CONTINUOUS
10
-4.79892
20
5.48608
11
-4.79441
21
5.48758
0
LINE
8
BLACK
6
CONTINUOUS
10
-4.79441
20
5.48758
11
-4.79165
21
5.49034
0
LINE
8
BLACK
6
CONTINUOUS
10
-4.79165
20
5.49034
11
-4.79014
21
5.49485
0
LINE
8
BLACK
6
CONTINUOUS
10
-4.79014
20
5.49485
11
-4.79014
21
5.49812
0
LINE
8
BLACK
6
CONTINUOUS
10
-4.79014
20
5.49812
11
-4.78996
21
5.49913
0
LINE
8
BLACK
6
CONTINUOUS
10
-4.78996
20
5.49913
11
-4.78867
21
5.50068
0
LINE
8
BLACK
6
CONTINUOUS
10
-4.78867
20
5.50068
11
-4.78668
21
5.50103
0
LINE
8
BLACK
6
CONTINUOUS
10
-4.78668
20
5.50103
11
-4.78493
21
5.50002
0
LINE
8
BLACK
6
CONTINUOUS
10
-4.45792
20
5.51675
11
-4.45723
21
5.51508
0
LINE
8
BLACK
6
CONTINUOUS
10
-4.45723
20
5.51508
11
-4.45792
21
5.51341
0
LINE
8
BLACK
6
CONTINUOUS
10
-4.45792
20
5.51341
11
-4.4596
21
5.51272
0
LINE
8
BLACK
6
CONTINUOUS
10
-4.4596
20
5.51272
11
-4.47241
21
5.51272
0
LINE
8
BLACK
6
CONTINUOUS
10
-4.47241
20
5.51272
11
-4.47408
21
5.51341
0
LINE
8
BLACK
6
CONTINUOUS
10
-4.47408
20
5.51341
11
-4.47477
21
5.51508
0
LINE
8
BLACK
6
CONTINUOUS
10
-4.47477
20
5.51508
11
-4.47408
21
5.51675
0
LINE
8
BLACK
6
CONTINUOUS
10
-4.47408
20
5.51675
11
-4.47241
21
5.51744
0
LINE
8
BLACK
6
CONTINUOUS
10
-4.47241
20
5.51744
11
-4.4596
21
5.51744
0
LINE
8
BLACK
6
CONTINUOUS
10
-4.4596
20
5.51744
11
-4.45792
21
5.51675
0
LINE
8
BLACK
6
CONTINUOUS
10
-4.8712
20
5.51687
11
-4.87189
21
5.51854
0
LINE
8
BLACK
6
CONTINUOUS
10
-4.87189
20
5.51854
11
-4.8712
21
5.52021
0
LINE
8
BLACK
6
CONTINUOUS
10
-4.8712
20
5.52021
11
-4.86953
21
5.52091
0
LINE
8
BLACK
6
CONTINUOUS
10
-4.86953
20
5.52091
11
-4.8148
21
5.52091
0
LINE
8
BLACK
6
CONTINUOUS
10
-4.8148
20
5.52091
11
-4.8148
21
5.58941
0
LINE
8
BLACK
6
CONTINUOUS
10
-4.8148
20
5.58941
11
-4.81411
21
5.59108
0
LINE
8
BLACK
6
CONTINUOUS
10
-4.81411
20
5.59108
11
-4.81244
21
5.59177
0
LINE
8
BLACK
6
CONTINUOUS
10
-4.81244
20
5.59177
11
-4.77346
21
5.59177
0
LINE
8
BLACK
6
CONTINUOUS
10
-4.77346
20
5.59177
11
-4.77179
21
5.59108
0
LINE
8
BLACK
6
CONTINUOUS
10
-4.77179
20
5.59108
11
-4.7711
21
5.58941
0
LINE
8
BLACK
6
CONTINUOUS
10
-4.7711
20
5.58941
11
-4.77179
21
5.58774
0
LINE
8
BLACK
6
CONTINUOUS
10
-4.77179
20
5.58774
11
-4.77346
21
5.58705
0
LINE
8
BLACK
6
CONTINUOUS
10
-4.77346
20
5.58705
11
-4.81008
21
5.58705
0
LINE
8
BLACK
6
CONTINUOUS
10
-4.81008
20
5.58705
11
-4.81008
21
5.51854
0
LINE
8
BLACK
6
CONTINUOUS
10
-4.81008
20
5.51854
11
-4.81077
21
5.51687
0
LINE
8
BLACK
6
CONTINUOUS
10
-4.81077
20
5.51687
11
-4.81244
21
5.51618
0
LINE
8
BLACK
6
CONTINUOUS
10
-4.81244
20
5.51618
11
-4.86953
21
5.51618
0
LINE
8
BLACK
6
CONTINUOUS
10
-4.86953
20
5.51618
11
-4.8712
21
5.51687
0
LINE
8
BLACK
6
CONTINUOUS
10
-4.31402
20
5.56525
11
-4.31385
21
5.56526
0
LINE
8
BLACK
6
CONTINUOUS
10
-4.31385
20
5.56526
11
-4.31316
21
5.56475
0
LINE
8
BLACK
6
CONTINUOUS
10
-4.31316
20
5.56475
11
-4.31242
21
5.56432
0
LINE
8
BLACK
6
CONTINUOUS
10
-4.31242
20
5.56432
11
-4.31236
21
5.56416
0
LINE
8
BLACK
6
CONTINUOUS
10
-4.31236
20
5.56416
11
-4.31223
21
5.56406
0
LINE
8
BLACK
6
CONTINUOUS
10
-4.31223
20
5.56406
11
-4.30864
21
5.55868
0
LINE
8
BLACK
6
CONTINUOUS
10
-4.30864
20
5.55868
11
-4.30544
21
5.55548
0
LINE
8
BLACK
6
CONTINUOUS
10
-4.30544
20
5.55548
11
-4.30211
21
5.55382
0
LINE
8
BLACK
6
CONTINUOUS
10
-4.30211
20
5.55382
11
-4.30129
21
5.55321
0
LINE
8
BLACK
6
CONTINUOUS
10
-4.30129
20
5.55321
11
-4.30049
21
5.55135
0
LINE
8
BLACK
6
CONTINUOUS
10
-4.30049
20
5.55135
11
-4.30106
21
5.54942
0
LINE
8
BLACK
6
CONTINUOUS
10
-4.30106
20
5.54942
11
-4.30275
21
5.54831
0
LINE
8
BLACK
6
CONTINUOUS
10
-4.30275
20
5.54831
11
-4.30476
21
5.54854
0
LINE
8
BLACK
6
CONTINUOUS
10
-4.30476
20
5.54854
11
-4.3085
21
5.55041
0
LINE
8
BLACK
6
CONTINUOUS
10
-4.3085
20
5.55041
11
-4.30921
21
5.55094
0
LINE
8
BLACK
6
CONTINUOUS
10
-4.30921
20
5.55094
11
-4.30927
21
5.55096
0
LINE
8
BLACK
6
CONTINUOUS
10
-4.30927
20
5.55096
11
-4.31173
21
5.55342
0
LINE
8
BLACK
6
CONTINUOUS
10
-4.31173
20
5.55342
11
-4.31173
21
5.52601
0
LINE
8
BLACK
6
CONTINUOUS
10
-4.31173
20
5.52601
11
-4.30343
21
5.52601
0
LINE
8
BLACK
6
CONTINUOUS
10
-4.30343
20
5.52601
11
-4.30242
21
5.52583
0
LINE
8
BLACK
6
CONTINUOUS
10
-4.30242
20
5.52583
11
-4.30088
21
5.52453
0
LINE
8
BLACK
6
CONTINUOUS
10
-4.30088
20
5.52453
11
-4.30053
21
5.52254
0
LINE
8
BLACK
6
CONTINUOUS
10
-4.30053
20
5.52254
11
-4.30154
21
5.52079
0
LINE
8
BLACK
6
CONTINUOUS
10
-4.30154
20
5.52079
11
-4.30343
21
5.5201
0
LINE
8
BLACK
6
CONTINUOUS
10
-4.30343
20
5.5201
11
-4.32593
21
5.5201
0
LINE
8
BLACK
6
CONTINUOUS
10
-4.32593
20
5.5201
11
-4.32694
21
5.52028
0
LINE
8
BLACK
6
CONTINUOUS
10
-4.32694
20
5.52028
11
-4.32849
21
5.52158
0
LINE
8
BLACK
6
CONTINUOUS
10
-4.32849
20
5.52158
11
-4.32884
21
5.52357
0
LINE
8
BLACK
6
CONTINUOUS
10
-4.32884
20
5.52357
11
-4.32783
21
5.52532
0
LINE
8
BLACK
6
CONTINUOUS
10
-4.32783
20
5.52532
11
-4.32593
21
5.52601
0
LINE
8
BLACK
6
CONTINUOUS
10
-4.32593
20
5.52601
11
-4.31764
21
5.52601
0
LINE
8
BLACK
6
CONTINUOUS
10
-4.31764
20
5.52601
11
-4.31764
21
5.56243
0
LINE
8
BLACK
6
CONTINUOUS
10
-4.31764
20
5.56243
11
-4.31746
21
5.56344
0
LINE
8
BLACK
6
CONTINUOUS
10
-4.31746
20
5.56344
11
-4.31735
21
5.56357
0
LINE
8
BLACK
6
CONTINUOUS
10
-4.31735
20
5.56357
11
-4.31733
21
5.56373
0
LINE
8
BLACK
6
CONTINUOUS
10
-4.31733
20
5.56373
11
-4.31671
21
5.56433
0
LINE
8
BLACK
6
CONTINUOUS
10
-4.31671
20
5.56433
11
-4.31616
21
5.56498
0
LINE
8
BLACK
6
CONTINUOUS
10
-4.31616
20
5.56498
11
-4.31599
21
5.56501
0
LINE
8
BLACK
6
CONTINUOUS
10
-4.31599
20
5.56501
11
-4.31587
21
5.56513
0
LINE
8
BLACK
6
CONTINUOUS
10
-4.31587
20
5.56513
11
-4.31501
21
5.56519
0
LINE
8
BLACK
6
CONTINUOUS
10
-4.31501
20
5.56519
11
-4.31417
21
5.56533
0
LINE
8
BLACK
6
CONTINUOUS
10
-4.31417
20
5.56533
11
-4.31402
21
5.56525
0
LINE
8
BLACK
6
CONTINUOUS
10
-4.24493
20
5.56432
11
-4.24424
21
5.56243
0
LINE
8
BLACK
6
CONTINUOUS
10
-4.24424
20
5.56243
11
-4.24424
21
5.53478
0
LINE
8
BLACK
6
CONTINUOUS
10
-4.24424
20
5.53478
11
-4.24274
21
5.53028
0
LINE
8
BLACK
6
CONTINUOUS
10
-4.24274
20
5.53028
11
-4.23997
21
5.52751
0
LINE
8
BLACK
6
CONTINUOUS
10
-4.23997
20
5.52751
11
-4.23546
21
5.52601
0
LINE
8
BLACK
6
CONTINUOUS
10
-4.23546
20
5.52601
11
-4.23219
21
5.52601
0
LINE
8
BLACK
6
CONTINUOUS
10
-4.23219
20
5.52601
11
-4.23118
21
5.52583
0
LINE
8
BLACK
6
CONTINUOUS
10
-4.23118
20
5.52583
11
-4.22964
21
5.52453
0
LINE
8
BLACK
6
CONTINUOUS
10
-4.22964
20
5.52453
11
-4.22929
21
5.52254
0
LINE
8
BLACK
6
CONTINUOUS
10
-4.22929
20
5.52254
11
-4.2303
21
5.52079
0
LINE
8
BLACK
6
CONTINUOUS
10
-4.2303
20
5.52079
11
-4.23219
21
5.5201
0
LINE
8
BLACK
6
CONTINUOUS
10
-4.23219
20
5.5201
11
-4.23594
21
5.5201
0
LINE
8
BLACK
6
CONTINUOUS
10
-4.23594
20
5.5201
11
-4.23681
21
5.52026
0
LINE
8
BLACK
6
CONTINUOUS
10
-4.23681
20
5.52026
11
-4.23688
21
5.52025
0
LINE
8
BLACK
6
CONTINUOUS
10
-4.23688
20
5.52025
11
-4.2425
21
5.52213
0
LINE
8
BLACK
6
CONTINUOUS
10
-4.2425
20
5.52213
11
-4.2434
21
5.52262
0
LINE
8
BLACK
6
CONTINUOUS
10
-4.2434
20
5.52262
11
-4.2435
21
5.52277
0
LINE
8
BLACK
6
CONTINUOUS
10
-4.2435
20
5.52277
11
-4.24366
21
5.52284
0
LINE
8
BLACK
6
CONTINUOUS
10
-4.24366
20
5.52284
11
-4.2474
21
5.52659
0
LINE
8
BLACK
6
CONTINUOUS
10
-4.2474
20
5.52659
11
-4.24799
21
5.52743
0
LINE
8
BLACK
6
CONTINUOUS
10
-4.24799
20
5.52743
11
-4.24801
21
5.52761
0
LINE
8
BLACK
6
CONTINUOUS
10
-4.24801
20
5.52761
11
-4.24812
21
5.52775
0
LINE
8
BLACK
6
CONTINUOUS
10
-4.24812
20
5.52775
11
-4.24999
21
5.53337
0
LINE
8
BLACK
6
CONTINUOUS
10
-4.24999
20
5.53337
11
-4.25012
21
5.53424
0
LINE
8
BLACK
6
CONTINUOUS
10
-4.25012
20
5.53424
11
-4.25014
21
5.5343
0
LINE
8
BLACK
6
CONTINUOUS
10
-4.25014
20
5.5343
11
-4.25014
21
5.56243
0
LINE
8
BLACK
6
CONTINUOUS
10
-4.25014
20
5.56243
11
-4.24997
21
5.56344
0
LINE
8
BLACK
6
CONTINUOUS
10
-4.24997
20
5.56344
11
-4.24867
21
5.56498
0
LINE
8
BLACK
6
CONTINUOUS
10
-4.24867
20
5.56498
11
-4.24668
21
5.56533
0
LINE
8
BLACK
6
CONTINUOUS
10
-4.24668
20
5.56533
11
-4.24493
21
5.56432
0
LINE
8
BLACK
6
CONTINUOUS
10
-4.26556
20
5.56531
11
-4.26543
21
5.56533
0
LINE
8
BLACK
6
CONTINUOUS
10
-4.26543
20
5.56533
11
-4.26531
21
5.56527
0
LINE
8
BLACK
6
CONTINUOUS
10
-4.26531
20
5.56527
11
-4.26493
21
5.5652
0
LINE
8
BLACK
6
CONTINUOUS
10
-4.26493
20
5.5652
11
-4.26434
21
5.56471
0
LINE
8
BLACK
6
CONTINUOUS
10
-4.26434
20
5.56471
11
-4.26368
21
5.56432
0
LINE
8
BLACK
6
CONTINUOUS
10
-4.26368
20
5.56432
11
-4.26359
21
5.56407
0
LINE
8
BLACK
6
CONTINUOUS
10
-4.26359
20
5.56407
11
-4.26338
21
5.5639
0
LINE
8
BLACK
6
CONTINUOUS
10
-4.26338
20
5.5639
11
-4.26325
21
5.56315
0
LINE
8
BLACK
6
CONTINUOUS
10
-4.26325
20
5.56315
11
-4.26299
21
5.56243
0
LINE
8
BLACK
6
CONTINUOUS
10
-4.26299
20
5.56243
11
-4.26299
21
5.52306
0
LINE
8
BLACK
6
CONTINUOUS
10
-4.26299
20
5.52306
11
-4.26316
21
5.52205
0
LINE
8
BLACK
6
CONTINUOUS
10
-4.26316
20
5.52205
11
-4.26446
21
5.5205
0
LINE
8
BLACK
6
CONTINUOUS
10
-4.26446
20
5.5205
11
-4.26645
21
5.52015
0
LINE
8
BLACK
6
CONTINUOUS
10
-4.26645
20
5.52015
11
-4.2682
21
5.52116
0
LINE
8
BLACK
6
CONTINUOUS
10
-4.2682
20
5.52116
11
-4.26889
21
5.52306
0
LINE
8
BLACK
6
CONTINUOUS
10
-4.26889
20
5.52306
11
-4.26889
21
5.53885
0
LINE
8
BLACK
6
CONTINUOUS
10
-4.26889
20
5.53885
11
-4.28094
21
5.53885
0
LINE
8
BLACK
6
CONTINUOUS
10
-4.28094
20
5.53885
11
-4.28195
21
5.53903
0
LINE
8
BLACK
6
CONTINUOUS
10
-4.28195
20
5.53903
11
-4.28208
21
5.53914
0
LINE
8
BLACK
6
CONTINUOUS
10
-4.28208
20
5.53914
11
-4.28226
21
5.53916
0
LINE
8
BLACK
6
CONTINUOUS
10
-4.28226
20
5.53916
11
-4.28601
21
5.54104
0
LINE
8
BLACK
6
CONTINUOUS
10
-4.28601
20
5.54104
11
-4.28672
21
5.54156
0
LINE
8
BLACK
6
CONTINUOUS
10
-4.28672
20
5.54156
11
-4.28677
21
5.54159
0
LINE
8
BLACK
6
CONTINUOUS
10
-4.28677
20
5.54159
11
-4.28865
21
5.54347
0
LINE
8
BLACK
6
CONTINUOUS
10
-4.28865
20
5.54347
11
-4.28916
21
5.54419
0
LINE
8
BLACK
6
CONTINUOUS
10
-4.28916
20
5.54419
11
-4.2892
21
5.54423
0
LINE
8
BLACK
6
CONTINUOUS
10
-4.2892
20
5.54423
11
-4.29108
21
5.54798
0
LINE
8
BLACK
6
CONTINUOUS
10
-4.29108
20
5.54798
11
-4.29137
21
5.54896
0
LINE
8
BLACK
6
CONTINUOUS
10
-4.29137
20
5.54896
11
-4.29133
21
5.54914
0
LINE
8
BLACK
6
CONTINUOUS
10
-4.29133
20
5.54914
11
-4.29139
21
5.5493
0
LINE
8
BLACK
6
CONTINUOUS
10
-4.29139
20
5.5493
11
-4.29139
21
5.55493
0
LINE
8
BLACK
6
CONTINUOUS
10
-4.29139
20
5.55493
11
-4.29121
21
5.55594
0
LINE
8
BLACK
6
CONTINUOUS
10
-4.29121
20
5.55594
11
-4.2911
21
5.55607
0
LINE
8
BLACK
6
CONTINUOUS
10
-4.2911
20
5.55607
11
-4.29108
21
5.55625
0
LINE
8
BLACK
6
CONTINUOUS
10
-4.29108
20
5.55625
11
-4.2892
21
5.56
0
LINE
8
BLACK
6
CONTINUOUS
10
-4.2892
20
5.56
11
-4.28868
21
5.56071
0
LINE
8
BLACK
6
CONTINUOUS
10
-4.28868
20
5.56071
11
-4.28865
21
5.56076
0
LINE
8
BLACK
6
CONTINUOUS
10
-4.28865
20
5.56076
11
-4.28677
21
5.56264
0
LINE
8
BLACK
6
CONTINUOUS
10
-4.28677
20
5.56264
11
-4.28605
21
5.56315
0
LINE
8
BLACK
6
CONTINUOUS
10
-4.28605
20
5.56315
11
-4.28601
21
5.56319
0
LINE
8
BLACK
6
CONTINUOUS
10
-4.28601
20
5.56319
11
-4.28226
21
5.56507
0
LINE
8
BLACK
6
CONTINUOUS
10
-4.28226
20
5.56507
11
-4.28127
21
5.56536
0
LINE
8
BLACK
6
CONTINUOUS
10
-4.28127
20
5.56536
11
-4.2811
21
5.56532
0
LINE
8
BLACK
6
CONTINUOUS
10
-4.2811
20
5.56532
11
-4.28094
21
5.56538
0
LINE
8
BLACK
6
CONTINUOUS
10
-4.28094
20
5.56538
11
-4.26594
21
5.56538
0
LINE
8
BLACK
6
CONTINUOUS
10
-4.26594
20
5.56538
11
-4.26556
21
5.56531
0
LINE
8
BLACK
6
CONTINUOUS
10
-4.28024
20
5.55947
11
-4.28294
21
5.55812
0
LINE
8
BLACK
6
CONTINUOUS
10
-4.28294
20
5.55812
11
-4.28413
21
5.55693
0
LINE
8
BLACK
6
CONTINUOUS
10
-4.28413
20
5.55693
11
-4.28548
21
5.55423
0
LINE
8
BLACK
6
CONTINUOUS
10
-4.28548
20
5.55423
11
-4.28548
21
5.55
0
LINE
8
BLACK
6
CONTINUOUS
10
-4.28548
20
5.55
11
-4.28413
21
5.5473
0
LINE
8
BLACK
6
CONTINUOUS
10
-4.28413
20
5.5473
11
-4.28294
21
5.5461
0
LINE
8
BLACK
6
CONTINUOUS
10
-4.28294
20
5.5461
11
-4.28024
21
5.54476
0
LINE
8
BLACK
6
CONTINUOUS
10
-4.28024
20
5.54476
11
-4.26889
21
5.54476
0
LINE
8
BLACK
6
CONTINUOUS
10
-4.26889
20
5.54476
11
-4.26889
21
5.55947
0
LINE
8
BLACK
6
CONTINUOUS
10
-4.26889
20
5.55947
11
-4.28024
21
5.55947
0
LINE
8
BLACK
6
CONTINUOUS
10
-4.43325
20
5.59108
11
-4.43256
21
5.58941
0
LINE
8
BLACK
6
CONTINUOUS
10
-4.43256
20
5.58941
11
-4.43256
21
5.55516
0
LINE
8
BLACK
6
CONTINUOUS
10
-4.43256
20
5.55516
11
-4.37744
21
5.55516
0
LINE
8
BLACK
6
CONTINUOUS
10
-4.37744
20
5.55516
11
-4.37577
21
5.55447
0
LINE
8
BLACK
6
CONTINUOUS
10
-4.37577
20
5.55447
11
-4.37508
21
5.5528
0
LINE
8
BLACK
6
CONTINUOUS
10
-4.37508
20
5.5528
11
-4.37577
21
5.55112
0
LINE
8
BLACK
6
CONTINUOUS
10
-4.37577
20
5.55112
11
-4.37744
21
5.55043
0
LINE
8
BLACK
6
CONTINUOUS
10
-4.37744
20
5.55043
11
-4.43492
21
5.55043
0
LINE
8
BLACK
6
CONTINUOUS
10
-4.43492
20
5.55043
11
-4.43659
21
5.55112
0
LINE
8
BLACK
6
CONTINUOUS
10
-4.43659
20
5.55112
11
-4.43728
21
5.5528
0
LINE
8
BLACK
6
CONTINUOUS
10
-4.43728
20
5.5528
11
-4.43728
21
5.58941
0
LINE
8
BLACK
6
CONTINUOUS
10
-4.43728
20
5.58941
11
-4.43659
21
5.59108
0
LINE
8
BLACK
6
CONTINUOUS
10
-4.43659
20
5.59108
11
-4.43492
21
5.59177
0
LINE
8
BLACK
6
CONTINUOUS
10
-4.43492
20
5.59177
11
-4.43325
21
5.59108
0
LINE
8
BLACK
6
CONTINUOUS
10
-4.97888
20
5.80368
11
-4.97819
21
5.80201
0
LINE
8
BLACK
6
CONTINUOUS
10
-4.97819
20
5.80201
11
-4.97819
21
5.56854
0
LINE
8
BLACK
6
CONTINUOUS
10
-4.97819
20
5.56854
11
-4.97888
21
5.56687
0
LINE
8
BLACK
6
CONTINUOUS
10
-4.97888
20
5.56687
11
-4.98055
21
5.56618
0
LINE
8
BLACK
6
CONTINUOUS
10
-4.98055
20
5.56618
11
-4.98222
21
5.56687
0
LINE
8
BLACK
6
CONTINUOUS
10
-4.98222
20
5.56687
11
-4.98291
21
5.56854
0
LINE
8
BLACK
6
CONTINUOUS
10
-4.98291
20
5.56854
11
-4.98291
21
5.80201
0
LINE
8
BLACK
6
CONTINUOUS
10
-4.98291
20
5.80201
11
-4.98222
21
5.80368
0
LINE
8
BLACK
6
CONTINUOUS
10
-4.98222
20
5.80368
11
-4.98055
21
5.80437
0
LINE
8
BLACK
6
CONTINUOUS
10
-4.98055
20
5.80437
11
-4.97888
21
5.80368
0
LINE
8
BLACK
6
CONTINUOUS
10
-4.56994
20
5.6671
11
-4.56925
21
5.66543
0
LINE
8
BLACK
6
CONTINUOUS
10
-4.56925
20
5.66543
11
-4.56925
21
5.56898
0
LINE
8
BLACK
6
CONTINUOUS
10
-4.56925
20
5.56898
11
-4.56994
21
5.56731
0
LINE
8
BLACK
6
CONTINUOUS
10
-4.56994
20
5.56731
11
-4.57161
21
5.56661
0
LINE
8
BLACK
6
CONTINUOUS
10
-4.57161
20
5.56661
11
-4.57328
21
5.56731
0
LINE
8
BLACK
6
CONTINUOUS
10
-4.57328
20
5.56731
11
-4.57398
21
5.56898
0
LINE
8
BLACK
6
CONTINUOUS
10
-4.57398
20
5.56898
11
-4.57398
21
5.66543
0
LINE
8
BLACK
6
CONTINUOUS
10
-4.57398
20
5.66543
11
-4.57328
21
5.6671
0
LINE
8
BLACK
6
CONTINUOUS
10
-4.57328
20
5.6671
11
-4.57161
21
5.6678
0
LINE
8
BLACK
6
CONTINUOUS
10
-4.57161
20
5.6678
11
-4.56994
21
5.6671
0
LINE
8
BLACK
6
CONTINUOUS
10
-4.25793
20
5.58159
11
-4.25723
21
5.57992
0
LINE
8
BLACK
6
CONTINUOUS
10
-4.25723
20
5.57992
11
-4.25793
21
5.57825
0
LINE
8
BLACK
6
CONTINUOUS
10
-4.25793
20
5.57825
11
-4.2596
21
5.57756
0
LINE
8
BLACK
6
CONTINUOUS
10
-4.2596
20
5.57756
11
-4.27241
21
5.57756
0
LINE
8
BLACK
6
CONTINUOUS
10
-4.27241
20
5.57756
11
-4.27408
21
5.57825
0
LINE
8
BLACK
6
CONTINUOUS
10
-4.27408
20
5.57825
11
-4.27477
21
5.57992
0
LINE
8
BLACK
6
CONTINUOUS
10
-4.27477
20
5.57992
11
-4.27408
21
5.58159
0
LINE
8
BLACK
6
CONTINUOUS
10
-4.27408
20
5.58159
11
-4.27241
21
5.58228
0
LINE
8
BLACK
6
CONTINUOUS
10
-4.27241
20
5.58228
11
-4.2596
21
5.58228
0
LINE
8
BLACK
6
CONTINUOUS
10
-4.2596
20
5.58228
11
-4.25793
21
5.58159
0
LINE
8
BLACK
6
CONTINUOUS
10
-4.69672
20
5.6671
11
-4.69602
21
5.66543
0
LINE
8
BLACK
6
CONTINUOUS
10
-4.69602
20
5.66543
11
-4.69602
21
5.59457
0
LINE
8
BLACK
6
CONTINUOUS
10
-4.69602
20
5.59457
11
-4.69672
21
5.5929
0
LINE
8
BLACK
6
CONTINUOUS
10
-4.69672
20
5.5929
11
-4.69839
21
5.5922
0
LINE
8
BLACK
6
CONTINUOUS
10
-4.69839
20
5.5922
11
-4.70006
21
5.5929
0
LINE
8
BLACK
6
CONTINUOUS
10
-4.70006
20
5.5929
11
-4.70075
21
5.59457
0
LINE
8
BLACK
6
CONTINUOUS
10
-4.70075
20
5.59457
11
-4.70075
21
5.66543
0
LINE
8
BLACK
6
CONTINUOUS
10
-4.70075
20
5.66543
11
-4.70006
21
5.6671
0
LINE
8
BLACK
6
CONTINUOUS
10
-4.70006
20
5.6671
11
-4.69839
21
5.6678
0
LINE
8
BLACK
6
CONTINUOUS
10
-4.69839
20
5.6678
11
-4.69672
21
5.6671
0
LINE
8
BLACK
6
CONTINUOUS
10
-4.54341
20
5.60908
11
-4.54272
21
5.60741
0
LINE
8
BLACK
6
CONTINUOUS
10
-4.54272
20
5.60741
11
-4.54272
21
5.5946
0
LINE
8
BLACK
6
CONTINUOUS
10
-4.54272
20
5.5946
11
-4.54341
21
5.59293
0
LINE
8
BLACK
6
CONTINUOUS
10
-4.54341
20
5.59293
11
-4.54508
21
5.59223
0
LINE
8
BLACK
6
CONTINUOUS
10
-4.54508
20
5.59223
11
-4.54675
21
5.59293
0
LINE
8
BLACK
6
CONTINUOUS
10
-4.54675
20
5.59293
11
-4.54744
21
5.5946
0
LINE
8
BLACK
6
CONTINUOUS
10
-4.54744
20
5.5946
11
-4.54744
21
5.60741
0
LINE
8
BLACK
6
CONTINUOUS
10
-4.54744
20
5.60741
11
-4.54675
21
5.60908
0
LINE
8
BLACK
6
CONTINUOUS
10
-4.54675
20
5.60908
11
-4.54508
21
5.60977
0
LINE
8
BLACK
6
CONTINUOUS
10
-4.54508
20
5.60977
11
-4.54341
21
5.60908
0
LINE
8
BLACK
6
CONTINUOUS
10
-4.50325
20
5.60908
11
-4.50256
21
5.60741
0
LINE
8
BLACK
6
CONTINUOUS
10
-4.50256
20
5.60741
11
-4.50256
21
5.5946
0
LINE
8
BLACK
6
CONTINUOUS
10
-4.50256
20
5.5946
11
-4.50325
21
5.59293
0
LINE
8
BLACK
6
CONTINUOUS
10
-4.50325
20
5.59293
11
-4.50492
21
5.59223
0
LINE
8
BLACK
6
CONTINUOUS
10
-4.50492
20
5.59223
11
-4.50659
21
5.59293
0
LINE
8
BLACK
6
CONTINUOUS
10
-4.50659
20
5.59293
11
-4.50728
21
5.5946
0
LINE
8
BLACK
6
CONTINUOUS
10
-4.50728
20
5.5946
11
-4.50728
21
5.60741
0
LINE
8
BLACK
6
CONTINUOUS
10
-4.50728
20
5.60741
11
-4.50659
21
5.60908
0
LINE
8
BLACK
6
CONTINUOUS
10
-4.50659
20
5.60908
11
-4.50492
21
5.60977
0
LINE
8
BLACK
6
CONTINUOUS
10
-4.50492
20
5.60977
11
-4.50325
21
5.60908
0
LINE
8
BLACK
6
CONTINUOUS
10
-4.25793
20
5.62175
11
-4.25723
21
5.62008
0
LINE
8
BLACK
6
CONTINUOUS
10
-4.25723
20
5.62008
11
-4.25793
21
5.61841
0
LINE
8
BLACK
6
CONTINUOUS
10
-4.25793
20
5.61841
11
-4.2596
21
5.61772
0
LINE
8
BLACK
6
CONTINUOUS
10
-4.2596
20
5.61772
11
-4.27241
21
5.61772
0
LINE
8
BLACK
6
CONTINUOUS
10
-4.27241
20
5.61772
11
-4.27408
21
5.61841
0
LINE
8
BLACK
6
CONTINUOUS
10
-4.27408
20
5.61841
11
-4.27477
21
5.62008
0
LINE
8
BLACK
6
CONTINUOUS
10
-4.27477
20
5.62008
11
-4.27408
21
5.62175
0
LINE
8
BLACK
6
CONTINUOUS
10
-4.27408
20
5.62175
11
-4.27241
21
5.62244
0
LINE
8
BLACK
6
CONTINUOUS
10
-4.27241
20
5.62244
11
-4.2596
21
5.62244
0
LINE
8
BLACK
6
CONTINUOUS
10
-4.2596
20
5.62244
11
-4.25793
21
5.62175
0
LINE
8
BLACK
6
CONTINUOUS
10
-4.34821
20
5.67888
11
-4.34752
21
5.6772
0
LINE
8
BLACK
6
CONTINUOUS
10
-4.34752
20
5.6772
11
-4.34821
21
5.67553
0
LINE
8
BLACK
6
CONTINUOUS
10
-4.34821
20
5.67553
11
-4.34988
21
5.67484
0
LINE
8
BLACK
6
CONTINUOUS
10
-4.34988
20
5.67484
11
-4.43256
21
5.67484
0
LINE
8
BLACK
6
CONTINUOUS
10
-4.43256
20
5.67484
11
-4.43256
21
5.64059
0
LINE
8
BLACK
6
CONTINUOUS
10
-4.43256
20
5.64059
11
-4.43325
21
5.63892
0
LINE
8
BLACK
6
CONTINUOUS
10
-4.43325
20
5.63892
11
-4.43492
21
5.63823
0
LINE
8
BLACK
6
CONTINUOUS
10
-4.43492
20
5.63823
11
-4.43659
21
5.63892
0
LINE
8
BLACK
6
CONTINUOUS
10
-4.43659
20
5.63892
11
-4.43728
21
5.64059
0
LINE
8
BLACK
6
CONTINUOUS
10
-4.43728
20
5.64059
11
-4.43728
21
5.6772
0
LINE
8
BLACK
6
CONTINUOUS
10
-4.43728
20
5.6772
11
-4.43659
21
5.67888
0
LINE
8
BLACK
6
CONTINUOUS
10
-4.43659
20
5.67888
11
-4.43492
21
5.67957
0
LINE
8
BLACK
6
CONTINUOUS
10
-4.43492
20
5.67957
11
-4.34988
21
5.67957
0
LINE
8
BLACK
6
CONTINUOUS
10
-4.34988
20
5.67957
11
-4.34821
21
5.67888
0
LINE
8
BLACK
6
CONTINUOUS
10
-4.58399
20
5.72027
11
-4.58244
21
5.71898
0
LINE
8
BLACK
6
CONTINUOUS
10
-4.58244
20
5.71898
11
-4.58209
21
5.71699
0
LINE
8
BLACK
6
CONTINUOUS
10
-4.58209
20
5.71699
11
-4.5831
21
5.71524
0
LINE
8
BLACK
6
CONTINUOUS
10
-4.5831
20
5.71524
11
-4.585
21
5.71455
0
LINE
8
BLACK
6
CONTINUOUS
10
-4.585
20
5.71455
11
-4.645
21
5.71455
0
LINE
8
BLACK
6
CONTINUOUS
10
-4.645
20
5.71455
11
-4.64601
21
5.71473
0
LINE
8
BLACK
6
CONTINUOUS
10
-4.64601
20
5.71473
11
-4.64756
21
5.71602
0
LINE
8
BLACK
6
CONTINUOUS
10
-4.64756
20
5.71602
11
-4.64791
21
5.71801
0
LINE
8
BLACK
6
CONTINUOUS
10
-4.64791
20
5.71801
11
-4.6469
21
5.71976
0
LINE
8
BLACK
6
CONTINUOUS
10
-4.6469
20
5.71976
11
-4.645
21
5.72045
0
LINE
8
BLACK
6
CONTINUOUS
10
-4.645
20
5.72045
11
-4.585
21
5.72045
0
LINE
8
BLACK
6
CONTINUOUS
10
-4.585
20
5.72045
11
-4.58399
21
5.72027
0
LINE
8
BLACK
6
CONTINUOUS
10
-4.72529
20
5.7405
11
-4.72598
21
5.74217
0
LINE
8
BLACK
6
CONTINUOUS
10
-4.72598
20
5.74217
11
-4.72598
21
5.815
0
LINE
8
BLACK
6
CONTINUOUS
10
-4.72598
20
5.815
11
-4.72529
21
5.81667
0
LINE
8
BLACK
6
CONTINUOUS
10
-4.72529
20
5.81667
11
-4.72362
21
5.81736
0
LINE
8
BLACK
6
CONTINUOUS
10
-4.72362
20
5.81736
11
-4.72195
21
5.81667
0
LINE
8
BLACK
6
CONTINUOUS
10
-4.72195
20
5.81667
11
-4.72126
21
5.815
0
LINE
8
BLACK
6
CONTINUOUS
10
-4.72126
20
5.815
11
-4.72126
21
5.74453
0
LINE
8
BLACK
6
CONTINUOUS
10
-4.72126
20
5.74453
11
-4.67874
21
5.74453
0
LINE
8
BLACK
6
CONTINUOUS
10
-4.67874
20
5.74453
11
-4.67874
21
5.815
0
LINE
8
BLACK
6
CONTINUOUS
10
-4.67874
20
5.815
11
-4.67805
21
5.81667
0
LINE
8
BLACK
6
CONTINUOUS
10
-4.67805
20
5.81667
11
-4.67638
21
5.81736
0
LINE
8
BLACK
6
CONTINUOUS
10
-4.67638
20
5.81736
11
-4.67471
21
5.81667
0
LINE
8
BLACK
6
CONTINUOUS
10
-4.67471
20
5.81667
11
-4.67402
21
5.815
0
LINE
8
BLACK
6
CONTINUOUS
10
-4.67402
20
5.815
11
-4.67402
21
5.74217
0
LINE
8
BLACK
6
CONTINUOUS
10
-4.67402
20
5.74217
11
-4.67471
21
5.7405
0
LINE
8
BLACK
6
CONTINUOUS
10
-4.67471
20
5.7405
11
-4.67638
21
5.7398
0
LINE
8
BLACK
6
CONTINUOUS
10
-4.67638
20
5.7398
11
-4.72362
21
5.7398
0
LINE
8
BLACK
6
CONTINUOUS
10
-4.72362
20
5.7398
11
-4.72529
21
5.7405
0
LINE
8
BLACK
6
CONTINUOUS
10
-4.52325
20
5.77208
11
-4.52256
21
5.7704
0
LINE
8
BLACK
6
CONTINUOUS
10
-4.52256
20
5.7704
11
-4.52256
21
5.75759
0
LINE
8
BLACK
6
CONTINUOUS
10
-4.52256
20
5.75759
11
-4.52325
21
5.75592
0
LINE
8
BLACK
6
CONTINUOUS
10
-4.52325
20
5.75592
11
-4.52492
21
5.75523
0
LINE
8
BLACK
6
CONTINUOUS
10
-4.52492
20
5.75523
11
-4.52659
21
5.75592
0
LINE
8
BLACK
6
CONTINUOUS
10
-4.52659
20
5.75592
11
-4.52728
21
5.75759
0
LINE
8
BLACK
6
CONTINUOUS
10
-4.52728
20
5.75759
11
-4.52728
21
5.7704
0
LINE
8
BLACK
6
CONTINUOUS
10
-4.52728
20
5.7704
11
-4.52659
21
5.77208
0
LINE
8
BLACK
6
CONTINUOUS
10
-4.52659
20
5.77208
11
-4.52492
21
5.77277
0
LINE
8
BLACK
6
CONTINUOUS
10
-4.52492
20
5.77277
11
-4.52325
21
5.77208
0
LINE
8
BLACK
6
CONTINUOUS
10
-4.56341
20
5.77208
11
-4.56272
21
5.7704
0
LINE
8
BLACK
6
CONTINUOUS
10
-4.56272
20
5.7704
11
-4.56272
21
5.75759
0
LINE
8
BLACK
6
CONTINUOUS
10
-4.56272
20
5.75759
11
-4.56341
21
5.75592
0
LINE
8
BLACK
6
CONTINUOUS
10
-4.56341
20
5.75592
11
-4.56508
21
5.75523
0
LINE
8
BLACK
6
CONTINUOUS
10
-4.56508
20
5.75523
11
-4.56675
21
5.75592
0
LINE
8
BLACK
6
CONTINUOUS
10
-4.56675
20
5.75592
11
-4.56744
21
5.75759
0
LINE
8
BLACK
6
CONTINUOUS
10
-4.56744
20
5.75759
11
-4.56744
21
5.7704
0
LINE
8
BLACK
6
CONTINUOUS
10
-4.56744
20
5.7704
11
-4.56675
21
5.77208
0
LINE
8
BLACK
6
CONTINUOUS
10
-4.56675
20
5.77208
11
-4.56508
21
5.77277
0
LINE
8
BLACK
6
CONTINUOUS
10
-4.56508
20
5.77277
11
-4.56341
21
5.77208
0
LINE
8
BLACK
6
CONTINUOUS
10
-4.58333
20
5.79417
11
-4.58264
21
5.7925
0
LINE
8
BLACK
6
CONTINUOUS
10
-4.58264
20
5.7925
11
-4.58264
21
5.7625
0
LINE
8
BLACK
6
CONTINUOUS
10
-4.58264
20
5.7625
11
-4.58333
21
5.76083
0
LINE
8
BLACK
6
CONTINUOUS
10
-4.58333
20
5.76083
11
-4.585
21
5.76014
0
LINE
8
BLACK
6
CONTINUOUS
10
-4.585
20
5.76014
11
-4.58667
21
5.76083
0
LINE
8
BLACK
6
CONTINUOUS
10
-4.58667
20
5.76083
11
-4.58736
21
5.7625
0
LINE
8
BLACK
6
CONTINUOUS
10
-4.58736
20
5.7625
11
-4.58736
21
5.7925
0
LINE
8
BLACK
6
CONTINUOUS
10
-4.58736
20
5.7925
11
-4.58667
21
5.79417
0
LINE
8
BLACK
6
CONTINUOUS
10
-4.58667
20
5.79417
11
-4.585
21
5.79486
0
LINE
8
BLACK
6
CONTINUOUS
10
-4.585
20
5.79486
11
-4.58333
21
5.79417
0
LINE
8
BLACK
6
CONTINUOUS
10
-4.64333
20
5.79417
11
-4.64264
21
5.7925
0
LINE
8
BLACK
6
CONTINUOUS
10
-4.64264
20
5.7925
11
-4.64264
21
5.7625
0
LINE
8
BLACK
6
CONTINUOUS
10
-4.64264
20
5.7625
11
-4.64333
21
5.76083
0
LINE
8
BLACK
6
CONTINUOUS
10
-4.64333
20
5.76083
11
-4.645
21
5.76014
0
LINE
8
BLACK
6
CONTINUOUS
10
-4.645
20
5.76014
11
-4.64667
21
5.76083
0
LINE
8
BLACK
6
CONTINUOUS
10
-4.64667
20
5.76083
11
-4.64736
21
5.7625
0
LINE
8
BLACK
6
CONTINUOUS
10
-4.64736
20
5.7625
11
-4.64736
21
5.7925
0
LINE
8
BLACK
6
CONTINUOUS
10
-4.64736
20
5.7925
11
-4.64667
21
5.79417
0
LINE
8
BLACK
6
CONTINUOUS
10
-4.64667
20
5.79417
11
-4.645
21
5.79486
0
LINE
8
BLACK
6
CONTINUOUS
10
-4.645
20
5.79486
11
-4.64333
21
5.79417
0
LINE
8
BLACK
6
CONTINUOUS
10
-4.81077
20
5.85368
11
-4.81008
21
5.85201
0
LINE
8
BLACK
6
CONTINUOUS
10
-4.81008
20
5.85201
11
-4.81008
21
5.78114
0
LINE
8
BLACK
6
CONTINUOUS
10
-4.81008
20
5.78114
11
-4.81077
21
5.77947
0
LINE
8
BLACK
6
CONTINUOUS
10
-4.81077
20
5.77947
11
-4.81244
21
5.77878
0
LINE
8
BLACK
6
CONTINUOUS
10
-4.81244
20
5.77878
11
-4.81411
21
5.77947
0
LINE
8
BLACK
6
CONTINUOUS
10
-4.81411
20
5.77947
11
-4.8148
21
5.78114
0
LINE
8
BLACK
6
CONTINUOUS
10
-4.8148
20
5.78114
11
-4.8148
21
5.84965
0
LINE
8
BLACK
6
CONTINUOUS
10
-4.8148
20
5.84965
11
-4.86953
21
5.84965
0
LINE
8
BLACK
6
CONTINUOUS
10
-4.86953
20
5.84965
11
-4.8712
21
5.85034
0
LINE
8
BLACK
6
CONTINUOUS
10
-4.8712
20
5.85034
11
-4.87189
21
5.85201
0
LINE
8
BLACK
6
CONTINUOUS
10
-4.87189
20
5.85201
11
-4.8712
21
5.85368
0
LINE
8
BLACK
6
CONTINUOUS
10
-4.8712
20
5.85368
11
-4.86953
21
5.85437
0
LINE
8
BLACK
6
CONTINUOUS
10
-4.86953
20
5.85437
11
-4.81244
21
5.85437
0
LINE
8
BLACK
6
CONTINUOUS
10
-4.81244
20
5.85437
11
-4.81077
21
5.85368
0
LINE
8
BLACK
6
CONTINUOUS
10
-4.35825
20
5.80207
11
-4.35756
21
5.8004
0
LINE
8
BLACK
6
CONTINUOUS
10
-4.35756
20
5.8004
11
-4.35756
21
5.78759
0
LINE
8
BLACK
6
CONTINUOUS
10
-4.35756
20
5.78759
11
-4.35825
21
5.78592
0
LINE
8
BLACK
6
CONTINUOUS
10
-4.35825
20
5.78592
11
-4.35992
21
5.78523
0
LINE
8
BLACK
6
CONTINUOUS
10
-4.35992
20
5.78523
11
-4.36159
21
5.78592
0
LINE
8
BLACK
6
CONTINUOUS
10
-4.36159
20
5.78592
11
-4.36228
21
5.78759
0
LINE
8
BLACK
6
CONTINUOUS
10
-4.36228
20
5.78759
11
-4.36228
21
5.8004
0
LINE
8
BLACK
6
CONTINUOUS
10
-4.36228
20
5.8004
11
-4.36159
21
5.80207
0
LINE
8
BLACK
6
CONTINUOUS
10
-4.36159
20
5.80207
11
-4.35992
21
5.80277
0
LINE
8
BLACK
6
CONTINUOUS
10
-4.35992
20
5.80277
11
-4.35825
21
5.80207
0
LINE
8
BLACK
6
CONTINUOUS
10
-4.39841
20
5.80207
11
-4.39772
21
5.8004
0
LINE
8
BLACK
6
CONTINUOUS
10
-4.39772
20
5.8004
11
-4.39772
21
5.78759
0
LINE
8
BLACK
6
CONTINUOUS
10
-4.39772
20
5.78759
11
-4.39841
21
5.78592
0
LINE
8
BLACK
6
CONTINUOUS
10
-4.39841
20
5.78592
11
-4.40008
21
5.78523
0
LINE
8
BLACK
6
CONTINUOUS
10
-4.40008
20
5.78523
11
-4.40175
21
5.78592
0
LINE
8
BLACK
6
CONTINUOUS
10
-4.40175
20
5.78592
11
-4.40244
21
5.78759
0
LINE
8
BLACK
6
CONTINUOUS
10
-4.40244
20
5.78759
11
-4.40244
21
5.8004
0
LINE
8
BLACK
6
CONTINUOUS
10
-4.40244
20
5.8004
11
-4.40175
21
5.80207
0
LINE
8
BLACK
6
CONTINUOUS
10
-4.40175
20
5.80207
11
-4.40008
21
5.80277
0
LINE
8
BLACK
6
CONTINUOUS
10
-4.40008
20
5.80277
11
-4.39841
21
5.80207
0
LINE
8
BLACK
6
CONTINUOUS
10
-4.26825
20
5.80308
11
-4.26756
21
5.80141
0
LINE
8
BLACK
6
CONTINUOUS
10
-4.26756
20
5.80141
11
-4.26756
21
5.78859
0
LINE
8
BLACK
6
CONTINUOUS
10
-4.26756
20
5.78859
11
-4.26825
21
5.78692
0
LINE
8
BLACK
6
CONTINUOUS
10
-4.26825
20
5.78692
11
-4.26992
21
5.78623
0
LINE
8
BLACK
6
CONTINUOUS
10
-4.26992
20
5.78623
11
-4.27159
21
5.78692
0
LINE
8
BLACK
6
CONTINUOUS
10
-4.27159
20
5.78692
11
-4.27228
21
5.78859
0
LINE
8
BLACK
6
CONTINUOUS
10
-4.27228
20
5.78859
11
-4.27228
21
5.80141
0
LINE
8
BLACK
6
CONTINUOUS
10
-4.27228
20
5.80141
11
-4.27159
21
5.80308
0
LINE
8
BLACK
6
CONTINUOUS
10
-4.27159
20
5.80308
11
-4.26992
21
5.80377
0
LINE
8
BLACK
6
CONTINUOUS
10
-4.26992
20
5.80377
11
-4.26825
21
5.80308
0
LINE
8
BLACK
6
CONTINUOUS
10
-4.30841
20
5.80308
11
-4.30772
21
5.80141
0
LINE
8
BLACK
6
CONTINUOUS
10
-4.30772
20
5.80141
11
-4.30772
21
5.78859
0
LINE
8
BLACK
6
CONTINUOUS
10
-4.30772
20
5.78859
11
-4.30841
21
5.78692
0
LINE
8
BLACK
6
CONTINUOUS
10
-4.30841
20
5.78692
11
-4.31008
21
5.78623
0
LINE
8
BLACK
6
CONTINUOUS
10
-4.31008
20
5.78623
11
-4.31175
21
5.78692
0
LINE
8
BLACK
6
CONTINUOUS
10
-4.31175
20
5.78692
11
-4.31244
21
5.78859
0
LINE
8
BLACK
6
CONTINUOUS
10
-4.31244
20
5.78859
11
-4.31244
21
5.80141
0
LINE
8
BLACK
6
CONTINUOUS
10
-4.31244
20
5.80141
11
-4.31175
21
5.80308
0
LINE
8
BLACK
6
CONTINUOUS
10
-4.31175
20
5.80308
11
-4.31008
21
5.80377
0
LINE
8
BLACK
6
CONTINUOUS
10
-4.31008
20
5.80377
11
-4.30841
21
5.80308
0
LINE
8
BLACK
6
CONTINUOUS
10
-4.48341
20
5.80408
11
-4.48272
21
5.80241
0
LINE
8
BLACK
6
CONTINUOUS
10
-4.48272
20
5.80241
11
-4.48272
21
5.7896
0
LINE
8
BLACK
6
CONTINUOUS
10
-4.48272
20
5.7896
11
-4.48341
21
5.78792
0
LINE
8
BLACK
6
CONTINUOUS
10
-4.48341
20
5.78792
11
-4.48508
21
5.78723
0
LINE
8
BLACK
6
CONTINUOUS
10
-4.48508
20
5.78723
11
-4.48675
21
5.78792
0
LINE
8
BLACK
6
CONTINUOUS
10
-4.48675
20
5.78792
11
-4.48744
21
5.7896
0
LINE
8
BLACK
6
CONTINUOUS
10
-4.48744
20
5.7896
11
-4.48744
21
5.80241
0
LINE
8
BLACK
6
CONTINUOUS
10
-4.48744
20
5.80241
11
-4.48675
21
5.80408
0
LINE
8
BLACK
6
CONTINUOUS
10
-4.48675
20
5.80408
11
-4.48508
21
5.80477
0
LINE
8
BLACK
6
CONTINUOUS
10
-4.48508
20
5.80477
11
-4.48341
21
5.80408
0
LINE
8
BLACK
6
CONTINUOUS
10
-4.44325
20
5.80408
11
-4.44256
21
5.80241
0
LINE
8
BLACK
6
CONTINUOUS
10
-4.44256
20
5.80241
11
-4.44256
21
5.7896
0
LINE
8
BLACK
6
CONTINUOUS
10
-4.44256
20
5.7896
11
-4.44325
21
5.78792
0
LINE
8
BLACK
6
CONTINUOUS
10
-4.44325
20
5.78792
11
-4.44492
21
5.78723
0
LINE
8
BLACK
6
CONTINUOUS
10
-4.44492
20
5.78723
11
-4.44659
21
5.78792
0
LINE
8
BLACK
6
CONTINUOUS
10
-4.44659
20
5.78792
11
-4.44728
21
5.7896
0
LINE
8
BLACK
6
CONTINUOUS
10
-4.44728
20
5.7896
11
-4.44728
21
5.80241
0
LINE
8
BLACK
6
CONTINUOUS
10
-4.44728
20
5.80241
11
-4.44659
21
5.80408
0
LINE
8
BLACK
6
CONTINUOUS
10
-4.44659
20
5.80408
11
-4.44492
21
5.80477
0
LINE
8
BLACK
6
CONTINUOUS
10
-4.44492
20
5.80477
11
-4.44325
21
5.80408
0
LINE
8
BLACK
6
CONTINUOUS
10
-3.92696
20
5.82805
11
-3.92627
21
5.82638
0
LINE
8
BLACK
6
CONTINUOUS
10
-3.92627
20
5.82638
11
-3.92696
21
5.82471
0
LINE
8
BLACK
6
CONTINUOUS
10
-3.92696
20
5.82471
11
-3.92863
21
5.82402
0
LINE
8
BLACK
6
CONTINUOUS
10
-3.92863
20
5.82402
11
-3.94145
21
5.82402
0
LINE
8
BLACK
6
CONTINUOUS
10
-3.94145
20
5.82402
11
-3.94312
21
5.82471
0
LINE
8
BLACK
6
CONTINUOUS
10
-3.94312
20
5.82471
11
-3.94381
21
5.82638
0
LINE
8
BLACK
6
CONTINUOUS
10
-3.94381
20
5.82638
11
-3.94312
21
5.82805
0
LINE
8
BLACK
6
CONTINUOUS
10
-3.94312
20
5.82805
11
-3.94145
21
5.82874
0
LINE
8
BLACK
6
CONTINUOUS
10
-3.94145
20
5.82874
11
-3.92863
21
5.82874
0
LINE
8
BLACK
6
CONTINUOUS
10
-3.92863
20
5.82874
11
-3.92696
21
5.82805
0
LINE
8
BLACK
6
CONTINUOUS
10
-4.58399
20
5.84027
11
-4.58244
21
5.83898
0
LINE
8
BLACK
6
CONTINUOUS
10
-4.58244
20
5.83898
11
-4.58209
21
5.83699
0
LINE
8
BLACK
6
CONTINUOUS
10
-4.58209
20
5.83699
11
-4.5831
21
5.83524
0
LINE
8
BLACK
6
CONTINUOUS
10
-4.5831
20
5.83524
11
-4.585
21
5.83455
0
LINE
8
BLACK
6
CONTINUOUS
10
-4.585
20
5.83455
11
-4.645
21
5.83455
0
LINE
8
BLACK
6
CONTINUOUS
10
-4.645
20
5.83455
11
-4.64601
21
5.83473
0
LINE
8
BLACK
6
CONTINUOUS
10
-4.64601
20
5.83473
11
-4.64756
21
5.83602
0
LINE
8
BLACK
6
CONTINUOUS
10
-4.64756
20
5.83602
11
-4.64791
21
5.83801
0
LINE
8
BLACK
6
CONTINUOUS
10
-4.64791
20
5.83801
11
-4.6469
21
5.83976
0
LINE
8
BLACK
6
CONTINUOUS
10
-4.6469
20
5.83976
11
-4.645
21
5.84045
0
LINE
8
BLACK
6
CONTINUOUS
10
-4.645
20
5.84045
11
-4.585
21
5.84045
0
LINE
8
BLACK
6
CONTINUOUS
10
-4.585
20
5.84045
11
-4.58399
21
5.84027
0
LINE
8
BLACK
6
CONTINUOUS
10
-3.92696
20
5.86821
11
-3.92627
21
5.86654
0
LINE
8
BLACK
6
CONTINUOUS
10
-3.92627
20
5.86654
11
-3.92696
21
5.86487
0
LINE
8
BLACK
6
CONTINUOUS
10
-3.92696
20
5.86487
11
-3.92863
21
5.86417
0
LINE
8
BLACK
6
CONTINUOUS
10
-3.92863
20
5.86417
11
-3.94145
21
5.86417
0
LINE
8
BLACK
6
CONTINUOUS
10
-3.94145
20
5.86417
11
-3.94312
21
5.86487
0
LINE
8
BLACK
6
CONTINUOUS
10
-3.94312
20
5.86487
11
-3.94381
21
5.86654
0
LINE
8
BLACK
6
CONTINUOUS
10
-3.94381
20
5.86654
11
-3.94312
21
5.86821
0
LINE
8
BLACK
6
CONTINUOUS
10
-3.94312
20
5.86821
11
-3.94145
21
5.8689
0
LINE
8
BLACK
6
CONTINUOUS
10
-3.94145
20
5.8689
11
-3.92863
21
5.8689
0
LINE
8
BLACK
6
CONTINUOUS
10
-3.92863
20
5.8689
11
-3.92696
21
5.86821
0
LINE
8
BLACK
6
CONTINUOUS
10
-3.81441
20
5.80339
11
-3.81441
21
5.72915
0
LINE
8
BLACK
6
CONTINUOUS
10
-3.81441
20
5.72915
11
-3.81324
21
5.72621
0
LINE
8
BLACK
6
CONTINUOUS
10
-3.81324
20
5.72621
11
-3.80953
21
5.71284
0
LINE
8
BLACK
6
CONTINUOUS
10
-3.80953
20
5.71284
11
-3.80729
21
5.69914
0
LINE
8
BLACK
6
CONTINUOUS
10
-3.80729
20
5.69914
11
-3.80654
21
5.68528
0
LINE
8
BLACK
6
CONTINUOUS
10
-3.80654
20
5.68528
11
-3.80654
21
5.68438
0
LINE
8
BLACK
6
CONTINUOUS
10
-3.80654
20
5.68438
11
-3.80739
21
5.67052
0
LINE
8
BLACK
6
CONTINUOUS
10
-3.80739
20
5.67052
11
-3.80972
21
5.65684
0
LINE
8
BLACK
6
CONTINUOUS
10
-3.80972
20
5.65684
11
-3.81353
21
5.64349
0
LINE
8
BLACK
6
CONTINUOUS
10
-3.81353
20
5.64349
11
-3.81441
21
5.64132
0
LINE
8
BLACK
6
CONTINUOUS
10
-3.81441
20
5.64132
11
-3.81441
21
5.56717
0
LINE
8
BLACK
6
CONTINUOUS
10
-3.81441
20
5.56717
11
-3.8151
21
5.5655
0
LINE
8
BLACK
6
CONTINUOUS
10
-3.8151
20
5.5655
11
-3.81677
21
5.5648
0
LINE
8
BLACK
6
CONTINUOUS
10
-3.81677
20
5.5648
11
-3.891
21
5.5648
0
LINE
8
BLACK
6
CONTINUOUS
10
-3.891
20
5.5648
11
-3.90123
21
5.56142
0
LINE
8
BLACK
6
CONTINUOUS
10
-3.90123
20
5.56142
11
-3.9148
21
5.55851
0
LINE
8
BLACK
6
CONTINUOUS
10
-3.9148
20
5.55851
11
-3.92861
21
5.55708
0
LINE
8
BLACK
6
CONTINUOUS
10
-3.92861
20
5.55708
11
-3.94249
21
5.55716
0
LINE
8
BLACK
6
CONTINUOUS
10
-3.94249
20
5.55716
11
-3.95629
21
5.55873
0
LINE
8
BLACK
6
CONTINUOUS
10
-3.95629
20
5.55873
11
-3.96983
21
5.56178
0
LINE
8
BLACK
6
CONTINUOUS
10
-3.96983
20
5.56178
11
-3.97866
21
5.5648
0
LINE
8
BLACK
6
CONTINUOUS
10
-3.97866
20
5.5648
11
-4.05299
21
5.5648
0
LINE
8
BLACK
6
CONTINUOUS
10
-4.05299
20
5.5648
11
-4.05466
21
5.5655
0
LINE
8
BLACK
6
CONTINUOUS
10
-4.05466
20
5.5655
11
-4.05535
21
5.56717
0
LINE
8
BLACK
6
CONTINUOUS
10
-4.05535
20
5.56717
11
-4.05535
21
5.64143
0
LINE
8
BLACK
6
CONTINUOUS
10
-4.05535
20
5.64143
11
-4.05667
21
5.64476
0
LINE
8
BLACK
6
CONTINUOUS
10
-4.05667
20
5.64476
11
-4.06033
21
5.65815
0
LINE
8
BLACK
6
CONTINUOUS
10
-4.06033
20
5.65815
11
-4.06253
21
5.67186
0
LINE
8
BLACK
6
CONTINUOUS
10
-4.06253
20
5.67186
11
-4.06323
21
5.68572
0
LINE
8
BLACK
6
CONTINUOUS
10
-4.06323
20
5.68572
11
-4.06315
21
5.687
0
LINE
8
BLACK
6
CONTINUOUS
10
-4.06315
20
5.687
11
-4.06243
21
5.69958
0
LINE
8
BLACK
6
CONTINUOUS
10
-4.06243
20
5.69958
11
-4.06014
21
5.71327
0
LINE
8
BLACK
6
CONTINUOUS
10
-4.06014
20
5.71327
11
-4.05638
21
5.72664
0
LINE
8
BLACK
6
CONTINUOUS
10
-4.05638
20
5.72664
11
-4.05535
21
5.72919
0
LINE
8
BLACK
6
CONTINUOUS
10
-4.05535
20
5.72919
11
-4.05535
21
5.80339
0
LINE
8
BLACK
6
CONTINUOUS
10
-4.05535
20
5.80339
11
-4.05466
21
5.80506
0
LINE
8
BLACK
6
CONTINUOUS
10
-4.05466
20
5.80506
11
-4.05299
21
5.80575
0
LINE
8
BLACK
6
CONTINUOUS
10
-4.05299
20
5.80575
11
-3.97873
21
5.80575
0
LINE
8
BLACK
6
CONTINUOUS
10
-3.97873
20
5.80575
11
-3.96897
21
5.80901
0
LINE
8
BLACK
6
CONTINUOUS
10
-3.96897
20
5.80901
11
-3.9554
21
5.81197
0
LINE
8
BLACK
6
CONTINUOUS
10
-3.9554
20
5.81197
11
-3.9416
21
5.81345
0
LINE
8
BLACK
6
CONTINUOUS
10
-3.9416
20
5.81345
11
-3.92772
21
5.81342
0
LINE
8
BLACK
6
CONTINUOUS
10
-3.92772
20
5.81342
11
-3.91392
21
5.8119
0
LINE
8
BLACK
6
CONTINUOUS
10
-3.91392
20
5.8119
11
-3.90037
21
5.80889
0
LINE
8
BLACK
6
CONTINUOUS
10
-3.90037
20
5.80889
11
-3.89107
21
5.80575
0
LINE
8
BLACK
6
CONTINUOUS
10
-3.89107
20
5.80575
11
-3.81677
21
5.80575
0
LINE
8
BLACK
6
CONTINUOUS
10
-3.81677
20
5.80575
11
-3.8151
21
5.80506
0
LINE
8
BLACK
6
CONTINUOUS
10
-3.8151
20
5.80506
11
-3.81441
21
5.80339
0
LINE
8
BLACK
6
CONTINUOUS
10
-4.05599
20
5.65953
11
-4.05535
21
5.65718
0
LINE
8
BLACK
6
CONTINUOUS
10
-4.05535
20
5.65718
11
-4.05535
21
5.7137
0
LINE
8
BLACK
6
CONTINUOUS
10
-4.05535
20
5.7137
11
-4.05772
21
5.70079
0
LINE
8
BLACK
6
CONTINUOUS
10
-4.05772
20
5.70079
11
-4.05869
21
5.687
0
LINE
8
BLACK
6
CONTINUOUS
10
-4.05869
20
5.687
11
-4.05811
21
5.67319
0
LINE
8
BLACK
6
CONTINUOUS
10
-4.05811
20
5.67319
11
-4.05599
21
5.65953
0
LINE
8
BLACK
6
CONTINUOUS
10
-3.96309
20
5.5648
11
-3.95126
21
5.56255
0
LINE
8
BLACK
6
CONTINUOUS
10
-3.95126
20
5.56255
11
-3.93747
21
5.56149
0
LINE
8
BLACK
6
CONTINUOUS
10
-3.93747
20
5.56149
11
-3.92366
21
5.56197
0
LINE
8
BLACK
6
CONTINUOUS
10
-3.92366
20
5.56197
11
-3.90999
21
5.56399
0
LINE
8
BLACK
6
CONTINUOUS
10
-3.90999
20
5.56399
11
-3.9069
21
5.5648
0
LINE
8
BLACK
6
CONTINUOUS
10
-3.9069
20
5.5648
11
-3.96309
21
5.5648
0
LINE
8
BLACK
6
CONTINUOUS
10
-4.05063
20
5.56953
11
-3.98991
21
5.56953
0
LINE
8
BLACK
6
CONTINUOUS
10
-3.98991
20
5.56953
11
-3.99553
21
5.57216
0
LINE
8
BLACK
6
CONTINUOUS
10
-3.99553
20
5.57216
11
-4.00739
21
5.57938
0
LINE
8
BLACK
6
CONTINUOUS
10
-4.00739
20
5.57938
11
-4.01841
21
5.58783
0
LINE
8
BLACK
6
CONTINUOUS
10
-4.01841
20
5.58783
11
-4.02844
21
5.59742
0
LINE
8
BLACK
6
CONTINUOUS
10
-4.02844
20
5.59742
11
-4.03738
21
5.60803
0
LINE
8
BLACK
6
CONTINUOUS
10
-4.03738
20
5.60803
11
-4.04513
21
5.61956
0
LINE
8
BLACK
6
CONTINUOUS
10
-4.04513
20
5.61956
11
-4.05063
21
5.63004
0
LINE
8
BLACK
6
CONTINUOUS
10
-4.05063
20
5.63004
11
-4.05063
21
5.56953
0
LINE
8
BLACK
6
CONTINUOUS
10
-3.97841
20
5.80102
11
-3.9876
21
5.79731
0
LINE
8
BLACK
6
CONTINUOUS
10
-3.9876
20
5.79731
11
-3.99976
21
5.79073
0
LINE
8
BLACK
6
CONTINUOUS
10
-3.99976
20
5.79073
11
-4.01111
21
5.78284
0
LINE
8
BLACK
6
CONTINUOUS
10
-4.01111
20
5.78284
11
-4.02151
21
5.77374
0
LINE
8
BLACK
6
CONTINUOUS
10
-4.02151
20
5.77374
11
-4.03083
21
5.76353
0
LINE
8
BLACK
6
CONTINUOUS
10
-4.03083
20
5.76353
11
-4.03896
21
5.75235
0
LINE
8
BLACK
6
CONTINUOUS
10
-4.03896
20
5.75235
11
-4.04579
21
5.74033
0
LINE
8
BLACK
6
CONTINUOUS
10
-4.04579
20
5.74033
11
-4.05063
21
5.72903
0
LINE
8
BLACK
6
CONTINUOUS
10
-4.05063
20
5.72903
11
-4.05063
21
5.6418
0
LINE
8
BLACK
6
CONTINUOUS
10
-4.05063
20
5.6418
11
-4.04728
21
5.63334
0
LINE
8
BLACK
6
CONTINUOUS
10
-4.04728
20
5.63334
11
-4.04079
21
5.62114
0
LINE
8
BLACK
6
CONTINUOUS
10
-4.04079
20
5.62114
11
-4.03298
21
5.60973
0
LINE
8
BLACK
6
CONTINUOUS
10
-4.03298
20
5.60973
11
-4.02395
21
5.59927
0
LINE
8
BLACK
6
CONTINUOUS
10
-4.02395
20
5.59927
11
-4.01381
21
5.58987
0
LINE
8
BLACK
6
CONTINUOUS
10
-4.01381
20
5.58987
11
-4.00268
21
5.58167
0
LINE
8
BLACK
6
CONTINUOUS
10
-4.00268
20
5.58167
11
-3.99071
21
5.57476
0
LINE
8
BLACK
6
CONTINUOUS
10
-3.99071
20
5.57476
11
-3.97874
21
5.56953
0
LINE
8
BLACK
6
CONTINUOUS
10
-3.97874
20
5.56953
11
-3.89144
21
5.56953
0
LINE
8
BLACK
6
CONTINUOUS
10
-3.89144
20
5.56953
11
-3.88373
21
5.57252
0
LINE
8
BLACK
6
CONTINUOUS
10
-3.88373
20
5.57252
11
-3.87148
21
5.57892
0
LINE
8
BLACK
6
CONTINUOUS
10
-3.87148
20
5.57892
11
-3.86002
21
5.58665
0
LINE
8
BLACK
6
CONTINUOUS
10
-3.86002
20
5.58665
11
-3.8495
21
5.59561
0
LINE
8
BLACK
6
CONTINUOUS
10
-3.8495
20
5.59561
11
-3.84003
21
5.60569
0
LINE
8
BLACK
6
CONTINUOUS
10
-3.84003
20
5.60569
11
-3.83175
21
5.61676
0
LINE
8
BLACK
6
CONTINUOUS
10
-3.83175
20
5.61676
11
-3.82476
21
5.62868
0
LINE
8
BLACK
6
CONTINUOUS
10
-3.82476
20
5.62868
11
-3.81913
21
5.64131
0
LINE
8
BLACK
6
CONTINUOUS
10
-3.81913
20
5.64131
11
-3.81913
21
5.64131
0
LINE
8
BLACK
6
CONTINUOUS
10
-3.81913
20
5.64131
11
-3.81913
21
5.72886
0
LINE
8
BLACK
6
CONTINUOUS
10
-3.81913
20
5.72886
11
-3.82322
21
5.73878
0
LINE
8
BLACK
6
CONTINUOUS
10
-3.82322
20
5.73878
11
-3.82988
21
5.75089
0
LINE
8
BLACK
6
CONTINUOUS
10
-3.82988
20
5.75089
11
-3.83785
21
5.76218
0
LINE
8
BLACK
6
CONTINUOUS
10
-3.83785
20
5.76218
11
-3.84703
21
5.77252
0
LINE
8
BLACK
6
CONTINUOUS
10
-3.84703
20
5.77252
11
-3.8573
21
5.78177
0
LINE
8
BLACK
6
CONTINUOUS
10
-3.8573
20
5.78177
11
-3.86854
21
5.78982
0
LINE
8
BLACK
6
CONTINUOUS
10
-3.86854
20
5.78982
11
-3.8806
21
5.79656
0
LINE
8
BLACK
6
CONTINUOUS
10
-3.8806
20
5.79656
11
-3.89122
21
5.80102
0
LINE
8
BLACK
6
CONTINUOUS
10
-3.89122
20
5.80102
11
-3.97841
21
5.80102
0
LINE
8
BLACK
6
CONTINUOUS
10
-3.82533
20
5.61841
11
-3.83319
21
5.60697
0
LINE
8
BLACK
6
CONTINUOUS
10
-3.83319
20
5.60697
11
-3.84225
21
5.59644
0
LINE
8
BLACK
6
CONTINUOUS
10
-3.84225
20
5.59644
11
-3.85238
21
5.58696
0
LINE
8
BLACK
6
CONTINUOUS
10
-3.85238
20
5.58696
11
-3.86348
21
5.57862
0
LINE
8
BLACK
6
CONTINUOUS
10
-3.86348
20
5.57862
11
-3.87542
21
5.57153
0
LINE
8
BLACK
6
CONTINUOUS
10
-3.87542
20
5.57153
11
-3.87982
21
5.56953
0
LINE
8
BLACK
6
CONTINUOUS
10
-3.87982
20
5.56953
11
-3.81913
21
5.56953
0
LINE
8
BLACK
6
CONTINUOUS
10
-3.81913
20
5.56953
11
-3.81913
21
5.62992
0
LINE
8
BLACK
6
CONTINUOUS
10
-3.81913
20
5.62992
11
-3.82533
21
5.61841
0
LINE
8
BLACK
6
CONTINUOUS
10
-3.81441
20
5.65724
11
-3.81227
21
5.66804
0
LINE
8
BLACK
6
CONTINUOUS
10
-3.81227
20
5.66804
11
-3.81111
21
5.68182
0
LINE
8
BLACK
6
CONTINUOUS
10
-3.81111
20
5.68182
11
-3.81107
21
5.68528
0
LINE
8
BLACK
6
CONTINUOUS
10
-3.81107
20
5.68528
11
-3.81184
21
5.69908
0
LINE
8
BLACK
6
CONTINUOUS
10
-3.81184
20
5.69908
11
-3.81414
21
5.71271
0
LINE
8
BLACK
6
CONTINUOUS
10
-3.81414
20
5.71271
11
-3.81441
21
5.71364
0
LINE
8
BLACK
6
CONTINUOUS
10
-3.81441
20
5.71364
11
-3.81441
21
5.65724
0
LINE
8
BLACK
6
CONTINUOUS
10
-3.87985
20
5.80102
11
-3.87463
21
5.7986
0
LINE
8
BLACK
6
CONTINUOUS
10
-3.87463
20
5.7986
11
-3.86274
21
5.79143
0
LINE
8
BLACK
6
CONTINUOUS
10
-3.86274
20
5.79143
11
-3.8517
21
5.78302
0
LINE
8
BLACK
6
CONTINUOUS
10
-3.8517
20
5.78302
11
-3.84163
21
5.77346
0
LINE
8
BLACK
6
CONTINUOUS
10
-3.84163
20
5.77346
11
-3.83265
21
5.76287
0
LINE
8
BLACK
6
CONTINUOUS
10
-3.83265
20
5.76287
11
-3.82487
21
5.75138
0
LINE
8
BLACK
6
CONTINUOUS
10
-3.82487
20
5.75138
11
-3.81913
21
5.74055
0
LINE
8
BLACK
6
CONTINUOUS
10
-3.81913
20
5.74055
11
-3.81913
21
5.80102
0
LINE
8
BLACK
6
CONTINUOUS
10
-3.81913
20
5.80102
11
-3.87985
21
5.80102
0
LINE
8
BLACK
6
CONTINUOUS
10
-4.05063
20
5.80102
11
-4.05063
21
5.74059
0
LINE
8
BLACK
6
CONTINUOUS
10
-4.05063
20
5.74059
11
-4.04466
21
5.75176
0
LINE
8
BLACK
6
CONTINUOUS
10
-4.04466
20
5.75176
11
-4.03684
21
5.76323
0
LINE
8
BLACK
6
CONTINUOUS
10
-4.03684
20
5.76323
11
-4.02783
21
5.77379
0
LINE
8
BLACK
6
CONTINUOUS
10
-4.02783
20
5.77379
11
-4.01772
21
5.78331
0
LINE
8
BLACK
6
CONTINUOUS
10
-4.01772
20
5.78331
11
-4.00665
21
5.79168
0
LINE
8
BLACK
6
CONTINUOUS
10
-4.00665
20
5.79168
11
-3.99474
21
5.79881
0
LINE
8
BLACK
6
CONTINUOUS
10
-3.99474
20
5.79881
11
-3.98992
21
5.80102
0
LINE
8
BLACK
6
CONTINUOUS
10
-3.98992
20
5.80102
11
-4.05063
21
5.80102
0
LINE
8
BLACK
6
CONTINUOUS
10
-3.94782
20
5.80841
11
-3.96147
21
5.8062
0
LINE
8
BLACK
6
CONTINUOUS
10
-3.96147
20
5.8062
11
-3.9631
21
5.80575
0
LINE
8
BLACK
6
CONTINUOUS
10
-3.9631
20
5.80575
11
-3.90636
21
5.80575
0
LINE
8
BLACK
6
CONTINUOUS
10
-3.90636
20
5.80575
11
-3.90661
21
5.80582
0
LINE
8
BLACK
6
CONTINUOUS
10
-3.90661
20
5.80582
11
-3.92022
21
5.80822
0
LINE
8
BLACK
6
CONTINUOUS
10
-3.92022
20
5.80822
11
-3.93402
21
5.80909
0
LINE
8
BLACK
6
CONTINUOUS
10
-3.93402
20
5.80909
11
-3.94782
21
5.80841
0
LINE
8
BLACK
6
CONTINUOUS
10
-4.01529
20
5.60487
11
-4.01598
21
5.60654
0
LINE
8
BLACK
6
CONTINUOUS
10
-4.01598
20
5.60654
11
-4.01598
21
5.76402
0
LINE
8
BLACK
6
CONTINUOUS
10
-4.01598
20
5.76402
11
-4.01529
21
5.76569
0
LINE
8
BLACK
6
CONTINUOUS
10
-4.01529
20
5.76569
11
-4.01362
21
5.76638
0
LINE
8
BLACK
6
CONTINUOUS
10
-4.01362
20
5.76638
11
-3.85614
21
5.76638
0
LINE
8
BLACK
6
CONTINUOUS
10
-3.85614
20
5.76638
11
-3.85447
21
5.76569
0
LINE
8
BLACK
6
CONTINUOUS
10
-3.85447
20
5.76569
11
-3.85378
21
5.76402
0
LINE
8
BLACK
6
CONTINUOUS
10
-3.85378
20
5.76402
11
-3.85378
21
5.71822
0
LINE
8
BLACK
6
CONTINUOUS
10
-3.85378
20
5.71822
11
-3.83599
21
5.71822
0
LINE
8
BLACK
6
CONTINUOUS
10
-3.83599
20
5.71822
11
-3.83498
21
5.71805
0
LINE
8
BLACK
6
CONTINUOUS
10
-3.83498
20
5.71805
11
-3.83484
21
5.71793
0
LINE
8
BLACK
6
CONTINUOUS
10
-3.83484
20
5.71793
11
-3.83467
21
5.71791
0
LINE
8
BLACK
6
CONTINUOUS
10
-3.83467
20
5.71791
11
-3.83092
21
5.71604
0
LINE
8
BLACK
6
CONTINUOUS
10
-3.83092
20
5.71604
11
-3.83021
21
5.71551
0
LINE
8
BLACK
6
CONTINUOUS
10
-3.83021
20
5.71551
11
-3.83015
21
5.71548
0
LINE
8
BLACK
6
CONTINUOUS
10
-3.83015
20
5.71548
11
-3.82828
21
5.71361
0
LINE
8
BLACK
6
CONTINUOUS
10
-3.82828
20
5.71361
11
-3.82777
21
5.71289
0
LINE
8
BLACK
6
CONTINUOUS
10
-3.82777
20
5.71289
11
-3.82772
21
5.71284
0
LINE
8
BLACK
6
CONTINUOUS
10
-3.82772
20
5.71284
11
-3.82585
21
5.70909
0
LINE
8
BLACK
6
CONTINUOUS
10
-3.82585
20
5.70909
11
-3.82556
21
5.70811
0
LINE
8
BLACK
6
CONTINUOUS
10
-3.82556
20
5.70811
11
-3.8256
21
5.70794
0
LINE
8
BLACK
6
CONTINUOUS
10
-3.8256
20
5.70794
11
-3.82554
21
5.70777
0
LINE
8
BLACK
6
CONTINUOUS
10
-3.82554
20
5.70777
11
-3.82554
21
5.70027
0
LINE
8
BLACK
6
CONTINUOUS
10
-3.82554
20
5.70027
11
-3.82571
21
5.69926
0
LINE
8
BLACK
6
CONTINUOUS
10
-3.82571
20
5.69926
11
-3.82583
21
5.69913
0
LINE
8
BLACK
6
CONTINUOUS
10
-3.82583
20
5.69913
11
-3.82585
21
5.69895
0
LINE
8
BLACK
6
CONTINUOUS
10
-3.82585
20
5.69895
11
-3.82772
21
5.6952
0
LINE
8
BLACK
6
CONTINUOUS
10
-3.82772
20
5.6952
11
-3.82825
21
5.69449
0
LINE
8
BLACK
6
CONTINUOUS
10
-3.82825
20
5.69449
11
-3.82828
21
5.69444
0
LINE
8
BLACK
6
CONTINUOUS
10
-3.82828
20
5.69444
11
-3.83015
21
5.69256
0
LINE
8
BLACK
6
CONTINUOUS
10
-3.83015
20
5.69256
11
-3.83087
21
5.69206
0
LINE
8
BLACK
6
CONTINUOUS
10
-3.83087
20
5.69206
11
-3.83092
21
5.69201
0
LINE
8
BLACK
6
CONTINUOUS
10
-3.83092
20
5.69201
11
-3.83467
21
5.69013
0
LINE
8
BLACK
6
CONTINUOUS
10
-3.83467
20
5.69013
11
-3.83565
21
5.68984
0
LINE
8
BLACK
6
CONTINUOUS
10
-3.83565
20
5.68984
11
-3.83582
21
5.68988
0
LINE
8
BLACK
6
CONTINUOUS
10
-3.83582
20
5.68988
11
-3.83599
21
5.68982
0
LINE
8
BLACK
6
CONTINUOUS
10
-3.83599
20
5.68982
11
-3.85378
21
5.68982
0
LINE
8
BLACK
6
CONTINUOUS
10
-3.85378
20
5.68982
11
-3.85378
21
5.67665
0
LINE
8
BLACK
6
CONTINUOUS
10
-3.85378
20
5.67665
11
-3.85374
21
5.67659
0
LINE
8
BLACK
6
CONTINUOUS
10
-3.85374
20
5.67659
11
-3.85378
21
5.67623
0
LINE
8
BLACK
6
CONTINUOUS
10
-3.85378
20
5.67623
11
-3.85378
21
5.66761
0
LINE
8
BLACK
6
CONTINUOUS
10
-3.85378
20
5.66761
11
-3.83144
21
5.66761
0
LINE
8
BLACK
6
CONTINUOUS
10
-3.83144
20
5.66761
11
-3.83144
21
5.6759
0
LINE
8
BLACK
6
CONTINUOUS
10
-3.83144
20
5.6759
11
-3.83126
21
5.67691
0
LINE
8
BLACK
6
CONTINUOUS
10
-3.83126
20
5.67691
11
-3.82997
21
5.67846
0
LINE
8
BLACK
6
CONTINUOUS
10
-3.82997
20
5.67846
11
-3.82798
21
5.67881
0
LINE
8
BLACK
6
CONTINUOUS
10
-3.82798
20
5.67881
11
-3.82623
21
5.6778
0
LINE
8
BLACK
6
CONTINUOUS
10
-3.82623
20
5.6778
11
-3.82554
21
5.6759
0
LINE
8
BLACK
6
CONTINUOUS
10
-3.82554
20
5.6759
11
-3.82554
21
5.6534
0
LINE
8
BLACK
6
CONTINUOUS
10
-3.82554
20
5.6534
11
-3.82571
21
5.65239
0
LINE
8
BLACK
6
CONTINUOUS
10
-3.82571
20
5.65239
11
-3.82701
21
5.65085
0
LINE
8
BLACK
6
CONTINUOUS
10
-3.82701
20
5.65085
11
-3.829
21
5.6505
0
LINE
8
BLACK
6
CONTINUOUS
10
-3.829
20
5.6505
11
-3.83075
21
5.65151
0
LINE
8
BLACK
6
CONTINUOUS
10
-3.83075
20
5.65151
11
-3.83144
21
5.6534
0
LINE
8
BLACK
6
CONTINUOUS
10
-3.83144
20
5.6534
11
-3.83144
21
5.6617
0
LINE
8
BLACK
6
CONTINUOUS
10
-3.83144
20
5.6617
11
-3.85378
21
5.6617
0
LINE
8
BLACK
6
CONTINUOUS
10
-3.85378
20
5.6617
11
-3.85378
21
5.60654
0
LINE
8
BLACK
6
CONTINUOUS
10
-3.85378
20
5.60654
11
-3.85447
21
5.60487
0
LINE
8
BLACK
6
CONTINUOUS
10
-3.85447
20
5.60487
11
-3.85614
21
5.60417
0
LINE
8
BLACK
6
CONTINUOUS
10
-3.85614
20
5.60417
11
-4.01362
21
5.60417
0
LINE
8
BLACK
6
CONTINUOUS
10
-4.01362
20
5.60417
11
-4.01529
21
5.60487
0
LINE
8
BLACK
6
CONTINUOUS
10
-4.01126
20
5.76165
11
-4.01126
21
5.6089
0
LINE
8
BLACK
6
CONTINUOUS
10
-4.01126
20
5.6089
11
-3.8585
21
5.6089
0
LINE
8
BLACK
6
CONTINUOUS
10
-3.8585
20
5.6089
11
-3.8585
21
5.6617
0
LINE
8
BLACK
6
CONTINUOUS
10
-3.8585
20
5.6617
11
-3.86786
21
5.6617
0
LINE
8
BLACK
6
CONTINUOUS
10
-3.86786
20
5.6617
11
-3.86887
21
5.66188
0
LINE
8
BLACK
6
CONTINUOUS
10
-3.86887
20
5.66188
11
-3.869
21
5.66199
0
LINE
8
BLACK
6
CONTINUOUS
10
-3.869
20
5.66199
11
-3.86917
21
5.66201
0
LINE
8
BLACK
6
CONTINUOUS
10
-3.86917
20
5.66201
11
-3.86976
21
5.66263
0
LINE
8
BLACK
6
CONTINUOUS
10
-3.86976
20
5.66263
11
-3.87042
21
5.66318
0
LINE
8
BLACK
6
CONTINUOUS
10
-3.87042
20
5.66318
11
-3.87045
21
5.66334
0
LINE
8
BLACK
6
CONTINUOUS
10
-3.87045
20
5.66334
11
-3.87056
21
5.66347
0
LINE
8
BLACK
6
CONTINUOUS
10
-3.87056
20
5.66347
11
-3.87062
21
5.66432
0
LINE
8
BLACK
6
CONTINUOUS
10
-3.87062
20
5.66432
11
-3.87077
21
5.66517
0
LINE
8
BLACK
6
CONTINUOUS
10
-3.87077
20
5.66517
11
-3.87068
21
5.66531
0
LINE
8
BLACK
6
CONTINUOUS
10
-3.87068
20
5.66531
11
-3.87069
21
5.66548
0
LINE
8
BLACK
6
CONTINUOUS
10
-3.87069
20
5.66548
11
-3.87019
21
5.66617
0
LINE
8
BLACK
6
CONTINUOUS
10
-3.87019
20
5.66617
11
-3.86976
21
5.66692
0
LINE
8
BLACK
6
CONTINUOUS
10
-3.86976
20
5.66692
11
-3.8696
21
5.66697
0
LINE
8
BLACK
6
CONTINUOUS
10
-3.8696
20
5.66697
11
-3.8695
21
5.66711
0
LINE
8
BLACK
6
CONTINUOUS
10
-3.8695
20
5.66711
11
-3.86412
21
5.6707
0
LINE
8
BLACK
6
CONTINUOUS
10
-3.86412
20
5.6707
11
-3.86091
21
5.6739
0
LINE
8
BLACK
6
CONTINUOUS
10
-3.86091
20
5.6739
11
-3.85925
21
5.67722
0
LINE
8
BLACK
6
CONTINUOUS
10
-3.85925
20
5.67722
11
-3.85864
21
5.67805
0
LINE
8
BLACK
6
CONTINUOUS
10
-3.85864
20
5.67805
11
-3.8585
21
5.67811
0
LINE
8
BLACK
6
CONTINUOUS
10
-3.8585
20
5.67811
11
-3.8585
21
5.68982
0
LINE
8
BLACK
6
CONTINUOUS
10
-3.8585
20
5.68982
11
-3.86786
21
5.68982
0
LINE
8
BLACK
6
CONTINUOUS
10
-3.86786
20
5.68982
11
-3.86887
21
5.69
0
LINE
8
BLACK
6
CONTINUOUS
10
-3.86887
20
5.69
11
-3.87042
21
5.6913
0
LINE
8
BLACK
6
CONTINUOUS
10
-3.87042
20
5.6913
11
-3.87077
21
5.69329
0
LINE
8
BLACK
6
CONTINUOUS
10
-3.87077
20
5.69329
11
-3.86976
21
5.69504
0
LINE
8
BLACK
6
CONTINUOUS
10
-3.86976
20
5.69504
11
-3.86786
21
5.69573
0
LINE
8
BLACK
6
CONTINUOUS
10
-3.86786
20
5.69573
11
-3.8585
21
5.69573
0
LINE
8
BLACK
6
CONTINUOUS
10
-3.8585
20
5.69573
11
-3.8585
21
5.71232
0
LINE
8
BLACK
6
CONTINUOUS
10
-3.8585
20
5.71232
11
-3.86786
21
5.71232
0
LINE
8
BLACK
6
CONTINUOUS
10
-3.86786
20
5.71232
11
-3.86887
21
5.7125
0
LINE
8
BLACK
6
CONTINUOUS
10
-3.86887
20
5.7125
11
-3.87042
21
5.7138
0
LINE
8
BLACK
6
CONTINUOUS
10
-3.87042
20
5.7138
11
-3.87077
21
5.71578
0
LINE
8
BLACK
6
CONTINUOUS
10
-3.87077
20
5.71578
11
-3.86976
21
5.71753
0
LINE
8
BLACK
6
CONTINUOUS
10
-3.86976
20
5.71753
11
-3.86786
21
5.71822
0
LINE
8
BLACK
6
CONTINUOUS
10
-3.86786
20
5.71822
11
-3.8585
21
5.71822
0
LINE
8
BLACK
6
CONTINUOUS
10
-3.8585
20
5.71822
11
-3.8585
21
5.76165
0
LINE
8
BLACK
6
CONTINUOUS
10
-3.8585
20
5.76165
11
-4.01126
21
5.76165
0
LINE
8
BLACK
6
CONTINUOUS
10
-3.85886
20
5.66761
11
-3.8585
21
5.66761
0
LINE
8
BLACK
6
CONTINUOUS
10
-3.8585
20
5.66761
11
-3.8585
21
5.66796
0
LINE
8
BLACK
6
CONTINUOUS
10
-3.8585
20
5.66796
11
-3.85886
21
5.66761
0
LINE
8
BLACK
6
CONTINUOUS
10
-3.85378
20
5.71232
11
-3.85378
21
5.69573
0
LINE
8
BLACK
6
CONTINUOUS
10
-3.85378
20
5.69573
11
-3.83669
21
5.69573
0
LINE
8
BLACK
6
CONTINUOUS
10
-3.83669
20
5.69573
11
-3.83399
21
5.69708
0
LINE
8
BLACK
6
CONTINUOUS
10
-3.83399
20
5.69708
11
-3.83279
21
5.69827
0
LINE
8
BLACK
6
CONTINUOUS
10
-3.83279
20
5.69827
11
-3.83144
21
5.70097
0
LINE
8
BLACK
6
CONTINUOUS
10
-3.83144
20
5.70097
11
-3.83144
21
5.70708
0
LINE
8
BLACK
6
CONTINUOUS
10
-3.83144
20
5.70708
11
-3.83279
21
5.70977
0
LINE
8
BLACK
6
CONTINUOUS
10
-3.83279
20
5.70977
11
-3.83399
21
5.71097
0
LINE
8
BLACK
6
CONTINUOUS
10
-3.83399
20
5.71097
11
-3.83669
21
5.71232
0
LINE
8
BLACK
6
CONTINUOUS
10
-3.83669
20
5.71232
11
-3.85378
21
5.71232
0
LINE
8
BLACK
6
CONTINUOUS
10
-3.8777
20
5.71254
11
-3.87701
21
5.71087
0
LINE
8
BLACK
6
CONTINUOUS
10
-3.87701
20
5.71087
11
-3.87701
21
5.64236
0
LINE
8
BLACK
6
CONTINUOUS
10
-3.87701
20
5.64236
11
-3.8777
21
5.64069
0
LINE
8
BLACK
6
CONTINUOUS
10
-3.8777
20
5.64069
11
-3.87937
21
5.64
0
LINE
8
BLACK
6
CONTINUOUS
10
-3.87937
20
5.64
11
-3.88104
21
5.64069
0
LINE
8
BLACK
6
CONTINUOUS
10
-3.88104
20
5.64069
11
-3.88173
21
5.64236
0
LINE
8
BLACK
6
CONTINUOUS
10
-3.88173
20
5.64236
11
-3.88173
21
5.71087
0
LINE
8
BLACK
6
CONTINUOUS
10
-3.88173
20
5.71087
11
-3.88104
21
5.71254
0
LINE
8
BLACK
6
CONTINUOUS
10
-3.88104
20
5.71254
11
-3.87937
21
5.71323
0
LINE
8
BLACK
6
CONTINUOUS
10
-3.87937
20
5.71323
11
-3.8777
21
5.71254
0
LINE
8
BLACK
6
CONTINUOUS
10
-3.98872
20
5.71254
11
-3.98803
21
5.71087
0
LINE
8
BLACK
6
CONTINUOUS
10
-3.98803
20
5.71087
11
-3.98803
21
5.65969
0
LINE
8
BLACK
6
CONTINUOUS
10
-3.98803
20
5.65969
11
-3.98872
21
5.65801
0
LINE
8
BLACK
6
CONTINUOUS
10
-3.98872
20
5.65801
11
-3.99039
21
5.65732
0
LINE
8
BLACK
6
CONTINUOUS
10
-3.99039
20
5.65732
11
-3.99206
21
5.65801
0
LINE
8
BLACK
6
CONTINUOUS
10
-3.99206
20
5.65801
11
-3.99276
21
5.65969
0
LINE
8
BLACK
6
CONTINUOUS
10
-3.99276
20
5.65969
11
-3.99276
21
5.71087
0
LINE
8
BLACK
6
CONTINUOUS
10
-3.99276
20
5.71087
11
-3.99206
21
5.71254
0
LINE
8
BLACK
6
CONTINUOUS
10
-3.99206
20
5.71254
11
-3.99039
21
5.71323
0
LINE
8
BLACK
6
CONTINUOUS
10
-3.99039
20
5.71323
11
-3.98872
21
5.71254
0
LINE
8
BLACK
6
CONTINUOUS
10
-3.90289
20
5.72936
11
-3.9025
21
5.72943
0
LINE
8
BLACK
6
CONTINUOUS
10
-3.9025
20
5.72943
11
-3.90194
21
5.72911
0
LINE
8
BLACK
6
CONTINUOUS
10
-3.90194
20
5.72911
11
-3.90132
21
5.72894
0
LINE
8
BLACK
6
CONTINUOUS
10
-3.90132
20
5.72894
11
-3.90109
21
5.72862
0
LINE
8
BLACK
6
CONTINUOUS
10
-3.90109
20
5.72862
11
-3.90075
21
5.72842
0
LINE
8
BLACK
6
CONTINUOUS
10
-3.90075
20
5.72842
11
-3.90053
21
5.72781
0
LINE
8
BLACK
6
CONTINUOUS
10
-3.90053
20
5.72781
11
-3.90016
21
5.72728
0
LINE
8
BLACK
6
CONTINUOUS
10
-3.90016
20
5.72728
11
-3.90019
21
5.72689
0
LINE
8
BLACK
6
CONTINUOUS
10
-3.90019
20
5.72689
11
-3.90006
21
5.72652
0
LINE
8
BLACK
6
CONTINUOUS
10
-3.90006
20
5.72652
11
-3.90006
21
5.68715
0
LINE
8
BLACK
6
CONTINUOUS
10
-3.90006
20
5.68715
11
-3.90024
21
5.68614
0
LINE
8
BLACK
6
CONTINUOUS
10
-3.90024
20
5.68614
11
-3.90153
21
5.68459
0
LINE
8
BLACK
6
CONTINUOUS
10
-3.90153
20
5.68459
11
-3.90352
21
5.68424
0
LINE
8
BLACK
6
CONTINUOUS
10
-3.90352
20
5.68424
11
-3.90527
21
5.68525
0
LINE
8
BLACK
6
CONTINUOUS
10
-3.90527
20
5.68525
11
-3.90596
21
5.68715
0
LINE
8
BLACK
6
CONTINUOUS
10
-3.90596
20
5.68715
11
-3.90596
21
5.71321
0
LINE
8
BLACK
6
CONTINUOUS
10
-3.90596
20
5.71321
11
-3.91346
21
5.69715
0
LINE
8
BLACK
6
CONTINUOUS
10
-3.91346
20
5.69715
11
-3.91368
21
5.69683
0
LINE
8
BLACK
6
CONTINUOUS
10
-3.91368
20
5.69683
11
-3.91371
21
5.69671
0
LINE
8
BLACK
6
CONTINUOUS
10
-3.91371
20
5.69671
11
-3.91382
21
5.69663
0
LINE
8
BLACK
6
CONTINUOUS
10
-3.91382
20
5.69663
11
-3.91405
21
5.69631
0
LINE
8
BLACK
6
CONTINUOUS
10
-3.91405
20
5.69631
11
-3.91474
21
5.69599
0
LINE
8
BLACK
6
CONTINUOUS
10
-3.91474
20
5.69599
11
-3.91537
21
5.69555
0
LINE
8
BLACK
6
CONTINUOUS
10
-3.91537
20
5.69555
11
-3.91564
21
5.69557
0
LINE
8
BLACK
6
CONTINUOUS
10
-3.91564
20
5.69557
11
-3.91588
21
5.69546
0
LINE
8
BLACK
6
CONTINUOUS
10
-3.91588
20
5.69546
11
-3.91662
21
5.69566
0
LINE
8
BLACK
6
CONTINUOUS
10
-3.91662
20
5.69566
11
-3.91738
21
5.69572
0
LINE
8
BLACK
6
CONTINUOUS
10
-3.91738
20
5.69572
11
-3.91757
21
5.69591
0
LINE
8
BLACK
6
CONTINUOUS
10
-3.91757
20
5.69591
11
-3.91783
21
5.69598
0
LINE
8
BLACK
6
CONTINUOUS
10
-3.91783
20
5.69598
11
-3.91827
21
5.69661
0
LINE
8
BLACK
6
CONTINUOUS
10
-3.91827
20
5.69661
11
-3.91881
21
5.69715
0
LINE
8
BLACK
6
CONTINUOUS
10
-3.91881
20
5.69715
11
-3.9263
21
5.71321
0
LINE
8
BLACK
6
CONTINUOUS
10
-3.9263
20
5.71321
11
-3.9263
21
5.68715
0
LINE
8
BLACK
6
CONTINUOUS
10
-3.9263
20
5.68715
11
-3.92648
21
5.68614
0
LINE
8
BLACK
6
CONTINUOUS
10
-3.92648
20
5.68614
11
-3.92778
21
5.68459
0
LINE
8
BLACK
6
CONTINUOUS
10
-3.92778
20
5.68459
11
-3.92977
21
5.68424
0
LINE
8
BLACK
6
CONTINUOUS
10
-3.92977
20
5.68424
11
-3.93152
21
5.68525
0
LINE
8
BLACK
6
CONTINUOUS
10
-3.93152
20
5.68525
11
-3.93221
21
5.68715
0
LINE
8
BLACK
6
CONTINUOUS
10
-3.93221
20
5.68715
11
-3.93221
21
5.72652
0
LINE
8
BLACK
6
CONTINUOUS
10
-3.93221
20
5.72652
11
-3.93203
21
5.72753
0
LINE
8
BLACK
6
CONTINUOUS
10
-3.93203
20
5.72753
11
-3.93178
21
5.72783
0
LINE
8
BLACK
6
CONTINUOUS
10
-3.93178
20
5.72783
11
-3.93168
21
5.72821
0
LINE
8
BLACK
6
CONTINUOUS
10
-3.93168
20
5.72821
11
-3.93115
21
5.72858
0
LINE
8
BLACK
6
CONTINUOUS
10
-3.93115
20
5.72858
11
-3.93073
21
5.72908
0
LINE
8
BLACK
6
CONTINUOUS
10
-3.93073
20
5.72908
11
-3.93035
21
5.72915
0
LINE
8
BLACK
6
CONTINUOUS
10
-3.93035
20
5.72915
11
-3.93002
21
5.72937
0
LINE
8
BLACK
6
CONTINUOUS
10
-3.93002
20
5.72937
11
-3.92938
21
5.72932
0
LINE
8
BLACK
6
CONTINUOUS
10
-3.92938
20
5.72932
11
-3.92874
21
5.72943
0
LINE
8
BLACK
6
CONTINUOUS
10
-3.92874
20
5.72943
11
-3.9284
21
5.72923
0
LINE
8
BLACK
6
CONTINUOUS
10
-3.9284
20
5.72923
11
-3.92801
21
5.7292
0
LINE
8
BLACK
6
CONTINUOUS
10
-3.92801
20
5.7292
11
-3.92755
21
5.72874
0
LINE
8
BLACK
6
CONTINUOUS
10
-3.92755
20
5.72874
11
-3.927
21
5.72842
0
LINE
8
BLACK
6
CONTINUOUS
10
-3.927
20
5.72842
11
-3.92686
21
5.72805
0
LINE
8
BLACK
6
CONTINUOUS
10
-3.92686
20
5.72805
11
-3.92658
21
5.72777
0
LINE
8
BLACK
6
CONTINUOUS
10
-3.92658
20
5.72777
11
-3.91613
21
5.70538
0
LINE
8
BLACK
6
CONTINUOUS
10
-3.91613
20
5.70538
11
-3.90569
21
5.72777
0
LINE
8
BLACK
6
CONTINUOUS
10
-3.90569
20
5.72777
11
-3.9051
21
5.72861
0
LINE
8
BLACK
6
CONTINUOUS
10
-3.9051
20
5.72861
11
-3.90474
21
5.72878
0
LINE
8
BLACK
6
CONTINUOUS
10
-3.90474
20
5.72878
11
-3.90449
21
5.72908
0
LINE
8
BLACK
6
CONTINUOUS
10
-3.90449
20
5.72908
11
-3.90385
21
5.72919
0
LINE
8
BLACK
6
CONTINUOUS
10
-3.90385
20
5.72919
11
-3.90327
21
5.72946
0
LINE
8
BLACK
6
CONTINUOUS
10
-3.90327
20
5.72946
11
-3.90289
21
5.72936
0
LINE
8
BLACK
6
CONTINUOUS
10
-3.94325
20
5.7293
11
-3.9417
21
5.728
0
LINE
8
BLACK
6
CONTINUOUS
10
-3.9417
20
5.728
11
-3.94135
21
5.72601
0
LINE
8
BLACK
6
CONTINUOUS
10
-3.94135
20
5.72601
11
-3.94236
21
5.72426
0
LINE
8
BLACK
6
CONTINUOUS
10
-3.94236
20
5.72426
11
-3.94426
21
5.72357
0
LINE
8
BLACK
6
CONTINUOUS
10
-3.94426
20
5.72357
11
-3.96602
21
5.72357
0
LINE
8
BLACK
6
CONTINUOUS
10
-3.96602
20
5.72357
11
-3.95092
21
5.68831
0
LINE
8
BLACK
6
CONTINUOUS
10
-3.95092
20
5.68831
11
-3.95068
21
5.68732
0
LINE
8
BLACK
6
CONTINUOUS
10
-3.95068
20
5.68732
11
-3.95127
21
5.68538
0
LINE
8
BLACK
6
CONTINUOUS
10
-3.95127
20
5.68538
11
-3.95296
21
5.68428
0
LINE
8
BLACK
6
CONTINUOUS
10
-3.95296
20
5.68428
11
-3.95496
21
5.68451
0
LINE
8
BLACK
6
CONTINUOUS
10
-3.95496
20
5.68451
11
-3.95634
21
5.68599
0
LINE
8
BLACK
6
CONTINUOUS
10
-3.95634
20
5.68599
11
-3.97322
21
5.72536
0
LINE
8
BLACK
6
CONTINUOUS
10
-3.97322
20
5.72536
11
-3.97345
21
5.72636
0
LINE
8
BLACK
6
CONTINUOUS
10
-3.97345
20
5.72636
11
-3.97335
21
5.72669
0
LINE
8
BLACK
6
CONTINUOUS
10
-3.97335
20
5.72669
11
-3.97341
21
5.72703
0
LINE
8
BLACK
6
CONTINUOUS
10
-3.97341
20
5.72703
11
-3.97307
21
5.72763
0
LINE
8
BLACK
6
CONTINUOUS
10
-3.97307
20
5.72763
11
-3.97287
21
5.72829
0
LINE
8
BLACK
6
CONTINUOUS
10
-3.97287
20
5.72829
11
-3.97257
21
5.72848
0
LINE
8
BLACK
6
CONTINUOUS
10
-3.97257
20
5.72848
11
-3.9724
21
5.72878
0
LINE
8
BLACK
6
CONTINUOUS
10
-3.9724
20
5.72878
11
-3.97175
21
5.72902
0
LINE
8
BLACK
6
CONTINUOUS
10
-3.97175
20
5.72902
11
-3.97118
21
5.7294
0
LINE
8
BLACK
6
CONTINUOUS
10
-3.97118
20
5.7294
11
-3.97083
21
5.72935
0
LINE
8
BLACK
6
CONTINUOUS
10
-3.97083
20
5.72935
11
-3.9705
21
5.72947
0
LINE
8
BLACK
6
CONTINUOUS
10
-3.9705
20
5.72947
11
-3.94426
21
5.72947
0
LINE
8
BLACK
6
CONTINUOUS
10
-3.94426
20
5.72947
11
-3.94325
21
5.7293
  0
ENDSEC
  0
EOF
