  0
SECTION
  2
HEADER
  9
$ANGBASE
  50
0.0
  9
$ANGDIR
  70
1
  9
$MEASUREMENT
  70
0
  0
ENDSEC
  0
SECTION
  2
TABLES
  0
TABLE
  2
LTYPE
  70
4
  0
LTYPE
  5
40F
  2
CONTINUOUS
  70
0
  3
Solid line
  72
65
  73
0
  40
0.0
  0
LTYPE
  5
410
  2
DASHDOT
 70
0
  3
Dash Dot ____ _ ____ _
 72
65
 73
4
 40
2.0
 49
1.25
 49
-0.25
 49
0.25
 49
-0.25
  0
LTYPE
  5
411
  2
DASHED
 70
0
  3
Dashed __ __ __ __ __
 72
65
 73
2
 40
0.75
 49
0.5
 49
-0.25
  0
LTYPE
  5
43B
  2
DOTTED
 70
0
  3
Dotted .  .  .  .
 72
65
 73
2
 40
0.2
 49
0.0
 49
-0.2
  0
ENDTAB
  0
TABLE
  2
STYLE
  70
4
  0
STYLE
  2
KICAD
  70
0
  40
0
  41
1
  42
1
  50
0
  71
0
  3
isocp.shx
  0
STYLE
  2
KICADB
  70
0
  40
0
  41
1
  42
1
  50
0
  71
0
  3
isocp.shx
  0
STYLE
  2
KICADI
  70
0
  40
0
  41
1
  42
1
  50
15
  71
0
  3
isocp.shx
  0
STYLE
  2
KICADBI
  70
0
  40
0
  41
1
  42
1
  50
15
  71
0
  3
isocp.shx
  0
ENDTAB
  0
TABLE
  2
LAYER
  70
1
  0
LAYER
  2
BLACK
  70
0
  62
7
  6
CONTINUOUS
  0
ENDTAB
  0
ENDSEC
  0
SECTION
  2
ENTITIES
0
LINE
8
BLACK
6
CONTINUOUS
10
1.18149
20
0.593436
11
1.18162
21
0.593459
0
LINE
8
BLACK
6
CONTINUOUS
10
1.18162
20
0.593459
11
1.18173
21
0.593394
0
LINE
8
BLACK
6
CONTINUOUS
10
1.18173
20
0.593394
11
1.18211
21
0.593326
0
LINE
8
BLACK
6
CONTINUOUS
10
1.18211
20
0.593326
11
1.1827
21
0.592833
0
LINE
8
BLACK
6
CONTINUOUS
10
1.1827
20
0.592833
11
1.18336
21
0.592449
0
LINE
8
BLACK
6
CONTINUOUS
10
1.18336
20
0.592449
11
1.18346
21
0.592199
0
LINE
8
BLACK
6
CONTINUOUS
10
1.18346
20
0.592199
11
1.18366
21
0.592028
0
LINE
8
BLACK
6
CONTINUOUS
10
1.18366
20
0.592028
11
1.18379
21
0.591272
0
LINE
8
BLACK
6
CONTINUOUS
10
1.18379
20
0.591272
11
1.18406
21
0.590551
0
LINE
8
BLACK
6
CONTINUOUS
10
1.18406
20
0.590551
11
1.18406
21
0
0
LINE
8
BLACK
6
CONTINUOUS
10
1.18406
20
0
11
1.18399
21
-0.000383543
0
LINE
8
BLACK
6
CONTINUOUS
10
1.18399
20
-0.000383543
11
1.18401
21
-0.000512756
0
LINE
8
BLACK
6
CONTINUOUS
10
1.18401
20
-0.000512756
11
1.18394
21
-0.000626378
0
LINE
8
BLACK
6
CONTINUOUS
10
1.18394
20
-0.000626378
11
1.18388
21
-0.00100992
0
LINE
8
BLACK
6
CONTINUOUS
10
1.18388
20
-0.00100992
11
1.18338
21
-0.0015976
0
LINE
8
BLACK
6
CONTINUOUS
10
1.18338
20
-0.0015976
11
1.183
21
-0.00226193
0
LINE
8
BLACK
6
CONTINUOUS
10
1.183
20
-0.00226193
11
1.18275
21
-0.00235303
0
LINE
8
BLACK
6
CONTINUOUS
10
1.18275
20
-0.00235303
11
1.18258
21
-0.00255717
0
LINE
8
BLACK
6
CONTINUOUS
10
1.18258
20
-0.00255717
11
1.18182
21
-0.00269039
0
LINE
8
BLACK
6
CONTINUOUS
10
1.18182
20
-0.00269039
11
1.1811
21
-0.00295276
0
LINE
8
BLACK
6
CONTINUOUS
10
1.1811
20
-0.00295276
11
0
21
-0.00295276
0
LINE
8
BLACK
6
CONTINUOUS
10
0
20
-0.00295276
11
-0.000383543
21
-0.00288512
0
LINE
8
BLACK
6
CONTINUOUS
10
-0.000383543
20
-0.00288512
11
-0.000512756
21
-0.00290791
0
LINE
8
BLACK
6
CONTINUOUS
10
-0.000512756
20
-0.00290791
11
-0.000626378
21
-0.00284232
0
LINE
8
BLACK
6
CONTINUOUS
10
-0.000626378
20
-0.00284232
11
-0.00100992
21
-0.00277469
0
LINE
8
BLACK
6
CONTINUOUS
10
-0.00100992
20
-0.00277469
11
-0.0015976
21
-0.00228154
0
LINE
8
BLACK
6
CONTINUOUS
10
-0.0015976
20
-0.00228154
11
-0.00226193
21
-0.00189799
0
LINE
8
BLACK
6
CONTINUOUS
10
-0.00226193
20
-0.00189799
11
-0.00235303
21
-0.00164764
0
LINE
8
BLACK
6
CONTINUOUS
10
-0.00235303
20
-0.00164764
11
-0.00255717
21
-0.00147638
0
LINE
8
BLACK
6
CONTINUOUS
10
-0.00255717
20
-0.00147638
11
-0.00269039
21
-0.000720827
0
LINE
8
BLACK
6
CONTINUOUS
10
-0.00269039
20
-0.000720827
11
-0.00295276
21
0
0
LINE
8
BLACK
6
CONTINUOUS
10
-0.00295276
20
0
11
-0.00295276
21
0.590551
0
LINE
8
BLACK
6
CONTINUOUS
10
-0.00295276
20
0.590551
11
-0.00288512
21
0.590935
0
LINE
8
BLACK
6
CONTINUOUS
10
-0.00288512
20
0.590935
11
-0.00290791
21
0.591064
0
LINE
8
BLACK
6
CONTINUOUS
10
-0.00290791
20
0.591064
11
-0.00284232
21
0.591178
0
LINE
8
BLACK
6
CONTINUOUS
10
-0.00284232
20
0.591178
11
-0.00277469
21
0.591561
0
LINE
8
BLACK
6
CONTINUOUS
10
-0.00277469
20
0.591561
11
-0.00228154
21
0.592149
0
LINE
8
BLACK
6
CONTINUOUS
10
-0.00228154
20
0.592149
11
-0.00189799
21
0.592813
0
LINE
8
BLACK
6
CONTINUOUS
10
-0.00189799
20
0.592813
11
-0.00164764
21
0.592904
0
LINE
8
BLACK
6
CONTINUOUS
10
-0.00164764
20
0.592904
11
-0.00147638
21
0.593108
0
LINE
8
BLACK
6
CONTINUOUS
10
-0.00147638
20
0.593108
11
-0.000720827
21
0.593242
0
LINE
8
BLACK
6
CONTINUOUS
10
-0.000720827
20
0.593242
11
0
21
0.593504
0
LINE
8
BLACK
6
CONTINUOUS
10
0
20
0.593504
11
1.1811
21
0.593504
0
LINE
8
BLACK
6
CONTINUOUS
10
1.1811
20
0.593504
11
1.18149
21
0.593436
0
LINE
8
BLACK
6
CONTINUOUS
10
0.00295276
20
0.587598
11
0.00295276
21
0.00295276
0
LINE
8
BLACK
6
CONTINUOUS
10
0.00295276
20
0.00295276
11
1.17815
21
0.00295276
0
LINE
8
BLACK
6
CONTINUOUS
10
1.17815
20
0.00295276
11
1.17815
21
0.587598
0
LINE
8
BLACK
6
CONTINUOUS
10
1.17815
20
0.587598
11
0.00295276
21
0.587598
  0
ENDSEC
  0
EOF
