  0
SECTION
  2
HEADER
  9
$ANGBASE
  50
0.0
  9
$ANGDIR
  70
1
  9
$MEASUREMENT
  70
0
  0
ENDSEC
  0
SECTION
  2
TABLES
  0
TABLE
  2
LTYPE
  70
4
  0
LTYPE
  5
40F
  2
CONTINUOUS
  70
0
  3
Solid line
  72
65
  73
0
  40
0.0
  0
LTYPE
  5
410
  2
DASHDOT
 70
0
  3
Dash Dot ____ _ ____ _
 72
65
 73
4
 40
2.0
 49
1.25
 49
-0.25
 49
0.25
 49
-0.25
  0
LTYPE
  5
411
  2
DASHED
 70
0
  3
Dashed __ __ __ __ __
 72
65
 73
2
 40
0.75
 49
0.5
 49
-0.25
  0
LTYPE
  5
43B
  2
DOTTED
 70
0
  3
Dotted .  .  .  .
 72
65
 73
2
 40
0.2
 49
0.0
 49
-0.2
  0
ENDTAB
  0
TABLE
  2
STYLE
  70
4
  0
STYLE
  2
KICAD
  70
0
  40
0
  41
1
  42
1
  50
0
  71
0
  3
isocp.shx
  0
STYLE
  2
KICADB
  70
0
  40
0
  41
1
  42
1
  50
0
  71
0
  3
isocp.shx
  0
STYLE
  2
KICADI
  70
0
  40
0
  41
1
  42
1
  50
15
  71
0
  3
isocp.shx
  0
STYLE
  2
KICADBI
  70
0
  40
0
  41
1
  42
1
  50
15
  71
0
  3
isocp.shx
  0
ENDTAB
  0
TABLE
  2
LAYER
  70
1
  0
LAYER
  2
BLACK
  70
0
  62
7
  6
CONTINUOUS
  0
ENDTAB
  0
ENDSEC
  0
SECTION
  2
ENTITIES
0
LINE
8
BLACK
6
CONTINUOUS
10
1.04732
20
0.08503
11
1.04745
21
0.0849166
0
LINE
8
BLACK
6
CONTINUOUS
10
1.04745
20
0.0849166
11
1.04763
21
0.0848964
0
LINE
8
BLACK
6
CONTINUOUS
10
1.04763
20
0.0848964
11
1.05138
21
0.0830216
0
LINE
8
BLACK
6
CONTINUOUS
10
1.05138
20
0.0830216
11
1.05209
21
0.0824957
0
LINE
8
BLACK
6
CONTINUOUS
10
1.05209
20
0.0824957
11
1.05214
21
0.0824685
0
LINE
8
BLACK
6
CONTINUOUS
10
1.05214
20
0.0824685
11
1.05402
21
0.0805937
0
LINE
8
BLACK
6
CONTINUOUS
10
1.05402
20
0.0805937
11
1.05453
21
0.0798707
0
LINE
8
BLACK
6
CONTINUOUS
10
1.05453
20
0.0798707
11
1.05457
21
0.0798263
0
LINE
8
BLACK
6
CONTINUOUS
10
1.05457
20
0.0798263
11
1.05645
21
0.0760768
0
LINE
8
BLACK
6
CONTINUOUS
10
1.05645
20
0.0760768
11
1.05674
21
0.0750939
0
LINE
8
BLACK
6
CONTINUOUS
10
1.05674
20
0.0750939
11
1.0567
21
0.0749222
0
LINE
8
BLACK
6
CONTINUOUS
10
1.0567
20
0.0749222
11
1.05676
21
0.0747563
0
LINE
8
BLACK
6
CONTINUOUS
10
1.05676
20
0.0747563
11
1.05676
21
0.0635077
0
LINE
8
BLACK
6
CONTINUOUS
10
1.05676
20
0.0635077
11
1.05658
21
0.0624978
0
LINE
8
BLACK
6
CONTINUOUS
10
1.05658
20
0.0624978
11
1.05647
21
0.0623626
0
LINE
8
BLACK
6
CONTINUOUS
10
1.05647
20
0.0623626
11
1.05645
21
0.0621872
0
LINE
8
BLACK
6
CONTINUOUS
10
1.05645
20
0.0621872
11
1.05457
21
0.0584377
0
LINE
8
BLACK
6
CONTINUOUS
10
1.05457
20
0.0584377
11
1.05405
21
0.0577286
0
LINE
8
BLACK
6
CONTINUOUS
10
1.05405
20
0.0577286
11
1.05402
21
0.0576703
0
LINE
8
BLACK
6
CONTINUOUS
10
1.05402
20
0.0576703
11
1.05214
21
0.0557955
0
LINE
8
BLACK
6
CONTINUOUS
10
1.05214
20
0.0557955
11
1.05142
21
0.0552892
0
LINE
8
BLACK
6
CONTINUOUS
10
1.05142
20
0.0552892
11
1.05138
21
0.0552424
0
LINE
8
BLACK
6
CONTINUOUS
10
1.05138
20
0.0552424
11
1.04763
21
0.0533676
0
LINE
8
BLACK
6
CONTINUOUS
10
1.04763
20
0.0533676
11
1.04664
21
0.0530753
0
LINE
8
BLACK
6
CONTINUOUS
10
1.04664
20
0.0530753
11
1.04647
21
0.0531163
0
LINE
8
BLACK
6
CONTINUOUS
10
1.04647
20
0.0531163
11
1.04631
21
0.0530559
0
LINE
8
BLACK
6
CONTINUOUS
10
1.04631
20
0.0530559
11
1.04068
21
0.0530559
0
LINE
8
BLACK
6
CONTINUOUS
10
1.04068
20
0.0530559
11
1.03967
21
0.053234
0
LINE
8
BLACK
6
CONTINUOUS
10
1.03967
20
0.053234
11
1.03954
21
0.0533474
0
LINE
8
BLACK
6
CONTINUOUS
10
1.03954
20
0.0533474
11
1.03936
21
0.0533676
0
LINE
8
BLACK
6
CONTINUOUS
10
1.03936
20
0.0533676
11
1.03561
21
0.0552424
0
LINE
8
BLACK
6
CONTINUOUS
10
1.03561
20
0.0552424
11
1.0349
21
0.0557683
0
LINE
8
BLACK
6
CONTINUOUS
10
1.0349
20
0.0557683
11
1.03484
21
0.0557955
0
LINE
8
BLACK
6
CONTINUOUS
10
1.03484
20
0.0557955
11
1.03297
21
0.0576703
0
LINE
8
BLACK
6
CONTINUOUS
10
1.03297
20
0.0576703
11
1.03246
21
0.0583933
0
LINE
8
BLACK
6
CONTINUOUS
10
1.03246
20
0.0583933
11
1.03242
21
0.0584377
0
LINE
8
BLACK
6
CONTINUOUS
10
1.03242
20
0.0584377
11
1.03054
21
0.0621872
0
LINE
8
BLACK
6
CONTINUOUS
10
1.03054
20
0.0621872
11
1.03025
21
0.0631702
0
LINE
8
BLACK
6
CONTINUOUS
10
1.03025
20
0.0631702
11
1.03029
21
0.0633418
0
LINE
8
BLACK
6
CONTINUOUS
10
1.03029
20
0.0633418
11
1.03023
21
0.0635077
0
LINE
8
BLACK
6
CONTINUOUS
10
1.03023
20
0.0635077
11
1.03023
21
0.0747563
0
LINE
8
BLACK
6
CONTINUOUS
10
1.03023
20
0.0747563
11
1.03041
21
0.0757662
0
LINE
8
BLACK
6
CONTINUOUS
10
1.03041
20
0.0757662
11
1.03052
21
0.0759015
0
LINE
8
BLACK
6
CONTINUOUS
10
1.03052
20
0.0759015
11
1.03054
21
0.0760768
0
LINE
8
BLACK
6
CONTINUOUS
10
1.03054
20
0.0760768
11
1.03242
21
0.0798263
0
LINE
8
BLACK
6
CONTINUOUS
10
1.03242
20
0.0798263
11
1.03294
21
0.0805354
0
LINE
8
BLACK
6
CONTINUOUS
10
1.03294
20
0.0805354
11
1.03297
21
0.0805937
0
LINE
8
BLACK
6
CONTINUOUS
10
1.03297
20
0.0805937
11
1.03484
21
0.0824685
0
LINE
8
BLACK
6
CONTINUOUS
10
1.03484
20
0.0824685
11
1.03557
21
0.0829748
0
LINE
8
BLACK
6
CONTINUOUS
10
1.03557
20
0.0829748
11
1.03561
21
0.0830216
0
LINE
8
BLACK
6
CONTINUOUS
10
1.03561
20
0.0830216
11
1.03936
21
0.0848964
0
LINE
8
BLACK
6
CONTINUOUS
10
1.03936
20
0.0848964
11
1.04034
21
0.0851887
0
LINE
8
BLACK
6
CONTINUOUS
10
1.04034
20
0.0851887
11
1.04052
21
0.0851477
0
LINE
8
BLACK
6
CONTINUOUS
10
1.04052
20
0.0851477
11
1.04068
21
0.0852081
0
LINE
8
BLACK
6
CONTINUOUS
10
1.04068
20
0.0852081
11
1.04631
21
0.0852081
0
LINE
8
BLACK
6
CONTINUOUS
10
1.04631
20
0.0852081
11
1.04732
21
0.08503
0
LINE
8
BLACK
6
CONTINUOUS
10
1.04138
20
0.0793026
11
1.03868
21
0.0779539
0
LINE
8
BLACK
6
CONTINUOUS
10
1.03868
20
0.0779539
11
1.03748
21
0.0767567
0
LINE
8
BLACK
6
CONTINUOUS
10
1.03748
20
0.0767567
11
1.03614
21
0.0740593
0
LINE
8
BLACK
6
CONTINUOUS
10
1.03614
20
0.0740593
11
1.03614
21
0.0642048
0
LINE
8
BLACK
6
CONTINUOUS
10
1.03614
20
0.0642048
11
1.03748
21
0.0615073
0
LINE
8
BLACK
6
CONTINUOUS
10
1.03748
20
0.0615073
11
1.03868
21
0.0603102
0
LINE
8
BLACK
6
CONTINUOUS
10
1.03868
20
0.0603102
11
1.04138
21
0.0589614
0
LINE
8
BLACK
6
CONTINUOUS
10
1.04138
20
0.0589614
11
1.04561
21
0.0589614
0
LINE
8
BLACK
6
CONTINUOUS
10
1.04561
20
0.0589614
11
1.04831
21
0.0603102
0
LINE
8
BLACK
6
CONTINUOUS
10
1.04831
20
0.0603102
11
1.0495
21
0.0615073
0
LINE
8
BLACK
6
CONTINUOUS
10
1.0495
20
0.0615073
11
1.05085
21
0.0642048
0
LINE
8
BLACK
6
CONTINUOUS
10
1.05085
20
0.0642048
11
1.05085
21
0.0740593
0
LINE
8
BLACK
6
CONTINUOUS
10
1.05085
20
0.0740593
11
1.0495
21
0.0767567
0
LINE
8
BLACK
6
CONTINUOUS
10
1.0495
20
0.0767567
11
1.04831
21
0.0779539
0
LINE
8
BLACK
6
CONTINUOUS
10
1.04831
20
0.0779539
11
1.04561
21
0.0793026
0
LINE
8
BLACK
6
CONTINUOUS
10
1.04561
20
0.0793026
11
1.04138
21
0.0793026
0
LINE
8
BLACK
6
CONTINUOUS
10
0.706109
20
0.08503
11
0.706244
21
0.0849166
0
LINE
8
BLACK
6
CONTINUOUS
10
0.706244
20
0.0849166
11
0.70642
21
0.0848964
0
LINE
8
BLACK
6
CONTINUOUS
10
0.70642
20
0.0848964
11
0.710169
21
0.0830216
0
LINE
8
BLACK
6
CONTINUOUS
10
0.710169
20
0.0830216
11
0.710993
21
0.0824107
0
LINE
8
BLACK
6
CONTINUOUS
10
0.710993
20
0.0824107
11
0.711169
21
0.082005
0
LINE
8
BLACK
6
CONTINUOUS
10
0.711169
20
0.082005
11
0.71149
21
0.0817011
0
LINE
8
BLACK
6
CONTINUOUS
10
0.71149
20
0.0817011
11
0.713365
21
0.0779516
0
LINE
8
BLACK
6
CONTINUOUS
10
0.713365
20
0.0779516
11
0.713657
21
0.0769687
0
LINE
8
BLACK
6
CONTINUOUS
10
0.713657
20
0.0769687
11
0.713616
21
0.076797
0
LINE
8
BLACK
6
CONTINUOUS
10
0.713616
20
0.076797
11
0.713676
21
0.0766311
0
LINE
8
BLACK
6
CONTINUOUS
10
0.713676
20
0.0766311
11
0.713676
21
0.0728815
0
LINE
8
BLACK
6
CONTINUOUS
10
0.713676
20
0.0728815
11
0.713498
21
0.0718716
0
LINE
8
BLACK
6
CONTINUOUS
10
0.713498
20
0.0718716
11
0.713185
21
0.0714978
0
LINE
8
BLACK
6
CONTINUOUS
10
0.713185
20
0.0714978
11
0.713028
21
0.0710357
0
LINE
8
BLACK
6
CONTINUOUS
10
0.713028
20
0.0710357
11
0.712556
21
0.0707482
0
LINE
8
BLACK
6
CONTINUOUS
10
0.712556
20
0.0707482
11
0.7122
21
0.0703244
0
LINE
8
BLACK
6
CONTINUOUS
10
0.7122
20
0.0703244
11
0.71172
21
0.0702396
0
LINE
8
BLACK
6
CONTINUOUS
10
0.71172
20
0.0702396
11
0.711303
21
0.0699861
0
LINE
8
BLACK
6
CONTINUOUS
10
0.711303
20
0.0699861
11
0.694929
21
0.0667113
0
LINE
8
BLACK
6
CONTINUOUS
10
0.694929
20
0.0667113
11
0.694929
21
0.06233
0
LINE
8
BLACK
6
CONTINUOUS
10
0.694929
20
0.06233
11
0.696052
21
0.0600843
0
LINE
8
BLACK
6
CONTINUOUS
10
0.696052
20
0.0600843
11
0.698297
21
0.0589614
0
LINE
8
BLACK
6
CONTINUOUS
10
0.698297
20
0.0589614
11
0.704402
21
0.0589614
0
LINE
8
BLACK
6
CONTINUOUS
10
0.704402
20
0.0589614
11
0.707528
21
0.0605244
0
LINE
8
BLACK
6
CONTINUOUS
10
0.707528
20
0.0605244
11
0.708511
21
0.0608168
0
LINE
8
BLACK
6
CONTINUOUS
10
0.708511
20
0.0608168
11
0.710476
21
0.0603475
0
LINE
8
BLACK
6
CONTINUOUS
10
0.710476
20
0.0603475
11
0.711679
21
0.0587252
0
LINE
8
BLACK
6
CONTINUOUS
10
0.711679
20
0.0587252
11
0.711558
21
0.0567091
0
LINE
8
BLACK
6
CONTINUOUS
10
0.711558
20
0.0567091
11
0.710169
21
0.0552424
0
LINE
8
BLACK
6
CONTINUOUS
10
0.710169
20
0.0552424
11
0.70642
21
0.0533676
0
LINE
8
BLACK
6
CONTINUOUS
10
0.70642
20
0.0533676
11
0.705437
21
0.0530753
0
LINE
8
BLACK
6
CONTINUOUS
10
0.705437
20
0.0530753
11
0.705265
21
0.0531163
0
LINE
8
BLACK
6
CONTINUOUS
10
0.705265
20
0.0531163
11
0.705099
21
0.0530559
0
LINE
8
BLACK
6
CONTINUOUS
10
0.705099
20
0.0530559
11
0.6976
21
0.0530559
0
LINE
8
BLACK
6
CONTINUOUS
10
0.6976
20
0.0530559
11
0.69659
21
0.053234
0
LINE
8
BLACK
6
CONTINUOUS
10
0.69659
20
0.053234
11
0.696455
21
0.0533474
0
LINE
8
BLACK
6
CONTINUOUS
10
0.696455
20
0.0533474
11
0.69628
21
0.0533676
0
LINE
8
BLACK
6
CONTINUOUS
10
0.69628
20
0.0533676
11
0.69253
21
0.0552424
0
LINE
8
BLACK
6
CONTINUOUS
10
0.69253
20
0.0552424
11
0.691707
21
0.0558533
0
LINE
8
BLACK
6
CONTINUOUS
10
0.691707
20
0.0558533
11
0.691531
21
0.056259
0
LINE
8
BLACK
6
CONTINUOUS
10
0.691531
20
0.056259
11
0.69121
21
0.0565629
0
LINE
8
BLACK
6
CONTINUOUS
10
0.69121
20
0.0565629
11
0.689335
21
0.0603124
0
LINE
8
BLACK
6
CONTINUOUS
10
0.689335
20
0.0603124
11
0.689043
21
0.0612954
0
LINE
8
BLACK
6
CONTINUOUS
10
0.689043
20
0.0612954
11
0.689084
21
0.061467
0
LINE
8
BLACK
6
CONTINUOUS
10
0.689084
20
0.061467
11
0.689023
21
0.061633
0
LINE
8
BLACK
6
CONTINUOUS
10
0.689023
20
0.061633
11
0.689023
21
0.0766311
0
LINE
8
BLACK
6
CONTINUOUS
10
0.689023
20
0.0766311
11
0.689201
21
0.077641
0
LINE
8
BLACK
6
CONTINUOUS
10
0.689201
20
0.077641
11
0.689315
21
0.0777762
0
LINE
8
BLACK
6
CONTINUOUS
10
0.689315
20
0.0777762
11
0.689335
21
0.0779516
0
LINE
8
BLACK
6
CONTINUOUS
10
0.689335
20
0.0779516
11
0.69121
21
0.0817011
0
LINE
8
BLACK
6
CONTINUOUS
10
0.69121
20
0.0817011
11
0.691821
21
0.0825248
0
LINE
8
BLACK
6
CONTINUOUS
10
0.691821
20
0.0825248
11
0.692226
21
0.0827006
0
LINE
8
BLACK
6
CONTINUOUS
10
0.692226
20
0.0827006
11
0.69253
21
0.0830216
0
LINE
8
BLACK
6
CONTINUOUS
10
0.69253
20
0.0830216
11
0.69628
21
0.0848964
0
LINE
8
BLACK
6
CONTINUOUS
10
0.69628
20
0.0848964
11
0.697263
21
0.0851887
0
LINE
8
BLACK
6
CONTINUOUS
10
0.697263
20
0.0851887
11
0.697434
21
0.0851477
0
LINE
8
BLACK
6
CONTINUOUS
10
0.697434
20
0.0851477
11
0.6976
21
0.0852081
0
LINE
8
BLACK
6
CONTINUOUS
10
0.6976
20
0.0852081
11
0.705099
21
0.0852081
0
LINE
8
BLACK
6
CONTINUOUS
10
0.705099
20
0.0852081
11
0.706109
21
0.08503
0
LINE
8
BLACK
6
CONTINUOUS
10
0.698297
20
0.0793026
11
0.696052
21
0.0781797
0
LINE
8
BLACK
6
CONTINUOUS
10
0.696052
20
0.0781797
11
0.694929
21
0.075934
0
LINE
8
BLACK
6
CONTINUOUS
10
0.694929
20
0.075934
11
0.694929
21
0.0727338
0
LINE
8
BLACK
6
CONTINUOUS
10
0.694929
20
0.0727338
11
0.707771
21
0.0753022
0
LINE
8
BLACK
6
CONTINUOUS
10
0.707771
20
0.0753022
11
0.707771
21
0.075934
0
LINE
8
BLACK
6
CONTINUOUS
10
0.707771
20
0.075934
11
0.706648
21
0.0781797
0
LINE
8
BLACK
6
CONTINUOUS
10
0.706648
20
0.0781797
11
0.704402
21
0.0793026
0
LINE
8
BLACK
6
CONTINUOUS
10
0.704402
20
0.0793026
11
0.698297
21
0.0793026
0
LINE
8
BLACK
6
CONTINUOUS
10
0.996075
20
0.0972767
11
0.996766
21
0.0953787
0
LINE
8
BLACK
6
CONTINUOUS
10
0.996766
20
0.0953787
11
0.996766
21
0.0852081
0
LINE
8
BLACK
6
CONTINUOUS
10
0.996766
20
0.0852081
11
1.00319
21
0.0852081
0
LINE
8
BLACK
6
CONTINUOUS
10
1.00319
20
0.0852081
11
1.0042
21
0.08503
0
LINE
8
BLACK
6
CONTINUOUS
10
1.0042
20
0.08503
11
1.00574
21
0.0837317
0
LINE
8
BLACK
6
CONTINUOUS
10
1.00574
20
0.0837317
11
1.00609
21
0.0817426
0
LINE
8
BLACK
6
CONTINUOUS
10
1.00609
20
0.0817426
11
1.00509
21
0.0799934
0
LINE
8
BLACK
6
CONTINUOUS
10
1.00509
20
0.0799934
11
1.00319
21
0.0793026
0
LINE
8
BLACK
6
CONTINUOUS
10
1.00319
20
0.0793026
11
0.996766
21
0.0793026
0
LINE
8
BLACK
6
CONTINUOUS
10
0.996766
20
0.0793026
11
0.996766
21
0.06233
0
LINE
8
BLACK
6
CONTINUOUS
10
0.996766
20
0.06233
11
0.997889
21
0.0600843
0
LINE
8
BLACK
6
CONTINUOUS
10
0.997889
20
0.0600843
11
1.00013
21
0.0589614
0
LINE
8
BLACK
6
CONTINUOUS
10
1.00013
20
0.0589614
11
1.00319
21
0.0589614
0
LINE
8
BLACK
6
CONTINUOUS
10
1.00319
20
0.0589614
11
1.0042
21
0.0587833
0
LINE
8
BLACK
6
CONTINUOUS
10
1.0042
20
0.0587833
11
1.00574
21
0.057485
0
LINE
8
BLACK
6
CONTINUOUS
10
1.00574
20
0.057485
11
1.00609
21
0.0554959
0
LINE
8
BLACK
6
CONTINUOUS
10
1.00609
20
0.0554959
11
1.00509
21
0.0537467
0
LINE
8
BLACK
6
CONTINUOUS
10
1.00509
20
0.0537467
11
1.00319
21
0.0530559
0
LINE
8
BLACK
6
CONTINUOUS
10
1.00319
20
0.0530559
11
0.999438
21
0.0530559
0
LINE
8
BLACK
6
CONTINUOUS
10
0.999438
20
0.0530559
11
0.998428
21
0.053234
0
LINE
8
BLACK
6
CONTINUOUS
10
0.998428
20
0.053234
11
0.998292
21
0.0533474
0
LINE
8
BLACK
6
CONTINUOUS
10
0.998292
20
0.0533474
11
0.998117
21
0.0533676
0
LINE
8
BLACK
6
CONTINUOUS
10
0.998117
20
0.0533676
11
0.994368
21
0.0552424
0
LINE
8
BLACK
6
CONTINUOUS
10
0.994368
20
0.0552424
11
0.993544
21
0.0558533
0
LINE
8
BLACK
6
CONTINUOUS
10
0.993544
20
0.0558533
11
0.993368
21
0.056259
0
LINE
8
BLACK
6
CONTINUOUS
10
0.993368
20
0.056259
11
0.993047
21
0.0565629
0
LINE
8
BLACK
6
CONTINUOUS
10
0.993047
20
0.0565629
11
0.991172
21
0.0603124
0
LINE
8
BLACK
6
CONTINUOUS
10
0.991172
20
0.0603124
11
0.99088
21
0.0612954
0
LINE
8
BLACK
6
CONTINUOUS
10
0.99088
20
0.0612954
11
0.990921
21
0.061467
0
LINE
8
BLACK
6
CONTINUOUS
10
0.990921
20
0.061467
11
0.990861
21
0.061633
0
LINE
8
BLACK
6
CONTINUOUS
10
0.990861
20
0.061633
11
0.990861
21
0.0793026
0
LINE
8
BLACK
6
CONTINUOUS
10
0.990861
20
0.0793026
11
0.988189
21
0.0793026
0
LINE
8
BLACK
6
CONTINUOUS
10
0.988189
20
0.0793026
11
0.987179
21
0.0794807
0
LINE
8
BLACK
6
CONTINUOUS
10
0.987179
20
0.0794807
11
0.985632
21
0.080779
0
LINE
8
BLACK
6
CONTINUOUS
10
0.985632
20
0.080779
11
0.985281
21
0.0827681
0
LINE
8
BLACK
6
CONTINUOUS
10
0.985281
20
0.0827681
11
0.986291
21
0.0845173
0
LINE
8
BLACK
6
CONTINUOUS
10
0.986291
20
0.0845173
11
0.988189
21
0.0852081
0
LINE
8
BLACK
6
CONTINUOUS
10
0.988189
20
0.0852081
11
0.990861
21
0.0852081
0
LINE
8
BLACK
6
CONTINUOUS
10
0.990861
20
0.0852081
11
0.990861
21
0.0953787
0
LINE
8
BLACK
6
CONTINUOUS
10
0.990861
20
0.0953787
11
0.991039
21
0.0963887
0
LINE
8
BLACK
6
CONTINUOUS
10
0.991039
20
0.0963887
11
0.992337
21
0.0979359
0
LINE
8
BLACK
6
CONTINUOUS
10
0.992337
20
0.0979359
11
0.994326
21
0.0982867
0
LINE
8
BLACK
6
CONTINUOUS
10
0.994326
20
0.0982867
11
0.996075
21
0.0972767
0
LINE
8
BLACK
6
CONTINUOUS
10
0.970451
20
0.08503
11
0.970586
21
0.0849166
0
LINE
8
BLACK
6
CONTINUOUS
10
0.970586
20
0.0849166
11
0.970762
21
0.0848964
0
LINE
8
BLACK
6
CONTINUOUS
10
0.970762
20
0.0848964
11
0.974511
21
0.0830216
0
LINE
8
BLACK
6
CONTINUOUS
10
0.974511
20
0.0830216
11
0.975335
21
0.0824107
0
LINE
8
BLACK
6
CONTINUOUS
10
0.975335
20
0.0824107
11
0.975511
21
0.082005
0
LINE
8
BLACK
6
CONTINUOUS
10
0.975511
20
0.082005
11
0.975832
21
0.0817011
0
LINE
8
BLACK
6
CONTINUOUS
10
0.975832
20
0.0817011
11
0.977707
21
0.0779516
0
LINE
8
BLACK
6
CONTINUOUS
10
0.977707
20
0.0779516
11
0.977999
21
0.0769687
0
LINE
8
BLACK
6
CONTINUOUS
10
0.977999
20
0.0769687
11
0.977958
21
0.076797
0
LINE
8
BLACK
6
CONTINUOUS
10
0.977958
20
0.076797
11
0.978018
21
0.0766311
0
LINE
8
BLACK
6
CONTINUOUS
10
0.978018
20
0.0766311
11
0.978018
21
0.0560087
0
LINE
8
BLACK
6
CONTINUOUS
10
0.978018
20
0.0560087
11
0.97784
21
0.0549987
0
LINE
8
BLACK
6
CONTINUOUS
10
0.97784
20
0.0549987
11
0.976542
21
0.0534515
0
LINE
8
BLACK
6
CONTINUOUS
10
0.976542
20
0.0534515
11
0.974553
21
0.0531007
0
LINE
8
BLACK
6
CONTINUOUS
10
0.974553
20
0.0531007
11
0.973416
21
0.0537572
0
LINE
8
BLACK
6
CONTINUOUS
10
0.973416
20
0.0537572
11
0.972637
21
0.0533676
0
LINE
8
BLACK
6
CONTINUOUS
10
0.972637
20
0.0533676
11
0.971654
21
0.0530753
0
LINE
8
BLACK
6
CONTINUOUS
10
0.971654
20
0.0530753
11
0.971482
21
0.0531163
0
LINE
8
BLACK
6
CONTINUOUS
10
0.971482
20
0.0531163
11
0.971316
21
0.0530559
0
LINE
8
BLACK
6
CONTINUOUS
10
0.971316
20
0.0530559
11
0.961942
21
0.0530559
0
LINE
8
BLACK
6
CONTINUOUS
10
0.961942
20
0.0530559
11
0.960932
21
0.053234
0
LINE
8
BLACK
6
CONTINUOUS
10
0.960932
20
0.053234
11
0.960797
21
0.0533474
0
LINE
8
BLACK
6
CONTINUOUS
10
0.960797
20
0.0533474
11
0.960622
21
0.0533676
0
LINE
8
BLACK
6
CONTINUOUS
10
0.960622
20
0.0533676
11
0.956872
21
0.0552424
0
LINE
8
BLACK
6
CONTINUOUS
10
0.956872
20
0.0552424
11
0.956049
21
0.0558533
0
LINE
8
BLACK
6
CONTINUOUS
10
0.956049
20
0.0558533
11
0.955873
21
0.056259
0
LINE
8
BLACK
6
CONTINUOUS
10
0.955873
20
0.056259
11
0.955552
21
0.0565629
0
LINE
8
BLACK
6
CONTINUOUS
10
0.955552
20
0.0565629
11
0.953677
21
0.0603124
0
LINE
8
BLACK
6
CONTINUOUS
10
0.953677
20
0.0603124
11
0.953385
21
0.0612954
0
LINE
8
BLACK
6
CONTINUOUS
10
0.953385
20
0.0612954
11
0.953426
21
0.061467
0
LINE
8
BLACK
6
CONTINUOUS
10
0.953426
20
0.061467
11
0.953365
21
0.061633
0
LINE
8
BLACK
6
CONTINUOUS
10
0.953365
20
0.061633
11
0.953365
21
0.0653825
0
LINE
8
BLACK
6
CONTINUOUS
10
0.953365
20
0.0653825
11
0.953543
21
0.0663924
0
LINE
8
BLACK
6
CONTINUOUS
10
0.953543
20
0.0663924
11
0.953657
21
0.0665276
0
LINE
8
BLACK
6
CONTINUOUS
10
0.953657
20
0.0665276
11
0.953677
21
0.066703
0
LINE
8
BLACK
6
CONTINUOUS
10
0.953677
20
0.066703
11
0.955552
21
0.0704525
0
LINE
8
BLACK
6
CONTINUOUS
10
0.955552
20
0.0704525
11
0.956163
21
0.0712762
0
LINE
8
BLACK
6
CONTINUOUS
10
0.956163
20
0.0712762
11
0.956568
21
0.071452
0
LINE
8
BLACK
6
CONTINUOUS
10
0.956568
20
0.071452
11
0.956872
21
0.071773
0
LINE
8
BLACK
6
CONTINUOUS
10
0.956872
20
0.071773
11
0.960622
21
0.0736478
0
LINE
8
BLACK
6
CONTINUOUS
10
0.960622
20
0.0736478
11
0.961605
21
0.0739402
0
LINE
8
BLACK
6
CONTINUOUS
10
0.961605
20
0.0739402
11
0.961776
21
0.0738991
0
LINE
8
BLACK
6
CONTINUOUS
10
0.961776
20
0.0738991
11
0.961942
21
0.0739595
0
LINE
8
BLACK
6
CONTINUOUS
10
0.961942
20
0.0739595
11
0.970619
21
0.0739595
0
LINE
8
BLACK
6
CONTINUOUS
10
0.970619
20
0.0739595
11
0.972113
21
0.0747064
0
LINE
8
BLACK
6
CONTINUOUS
10
0.972113
20
0.0747064
11
0.972113
21
0.075934
0
LINE
8
BLACK
6
CONTINUOUS
10
0.972113
20
0.075934
11
0.97099
21
0.0781797
0
LINE
8
BLACK
6
CONTINUOUS
10
0.97099
20
0.0781797
11
0.968744
21
0.0793026
0
LINE
8
BLACK
6
CONTINUOUS
10
0.968744
20
0.0793026
11
0.962639
21
0.0793026
0
LINE
8
BLACK
6
CONTINUOUS
10
0.962639
20
0.0793026
11
0.959513
21
0.0777396
0
LINE
8
BLACK
6
CONTINUOUS
10
0.959513
20
0.0777396
11
0.95853
21
0.0774472
0
LINE
8
BLACK
6
CONTINUOUS
10
0.95853
20
0.0774472
11
0.956566
21
0.0779165
0
LINE
8
BLACK
6
CONTINUOUS
10
0.956566
20
0.0779165
11
0.955362
21
0.0795387
0
LINE
8
BLACK
6
CONTINUOUS
10
0.955362
20
0.0795387
11
0.955484
21
0.0815549
0
LINE
8
BLACK
6
CONTINUOUS
10
0.955484
20
0.0815549
11
0.956872
21
0.0830216
0
LINE
8
BLACK
6
CONTINUOUS
10
0.956872
20
0.0830216
11
0.960622
21
0.0848964
0
LINE
8
BLACK
6
CONTINUOUS
10
0.960622
20
0.0848964
11
0.961605
21
0.0851887
0
LINE
8
BLACK
6
CONTINUOUS
10
0.961605
20
0.0851887
11
0.961776
21
0.0851477
0
LINE
8
BLACK
6
CONTINUOUS
10
0.961776
20
0.0851477
11
0.961942
21
0.0852081
0
LINE
8
BLACK
6
CONTINUOUS
10
0.961942
20
0.0852081
11
0.969441
21
0.0852081
0
LINE
8
BLACK
6
CONTINUOUS
10
0.969441
20
0.0852081
11
0.970451
21
0.08503
0
LINE
8
BLACK
6
CONTINUOUS
10
0.971654
20
0.0680734
11
0.971482
21
0.0681144
0
LINE
8
BLACK
6
CONTINUOUS
10
0.971482
20
0.0681144
11
0.971316
21
0.068054
0
LINE
8
BLACK
6
CONTINUOUS
10
0.971316
20
0.068054
11
0.962639
21
0.068054
0
LINE
8
BLACK
6
CONTINUOUS
10
0.962639
20
0.068054
11
0.960394
21
0.0669311
0
LINE
8
BLACK
6
CONTINUOUS
10
0.960394
20
0.0669311
11
0.959271
21
0.0646854
0
LINE
8
BLACK
6
CONTINUOUS
10
0.959271
20
0.0646854
11
0.959271
21
0.06233
0
LINE
8
BLACK
6
CONTINUOUS
10
0.959271
20
0.06233
11
0.960394
21
0.0600843
0
LINE
8
BLACK
6
CONTINUOUS
10
0.960394
20
0.0600843
11
0.962639
21
0.0589614
0
LINE
8
BLACK
6
CONTINUOUS
10
0.962639
20
0.0589614
11
0.970619
21
0.0589614
0
LINE
8
BLACK
6
CONTINUOUS
10
0.970619
20
0.0589614
11
0.972113
21
0.0597083
0
LINE
8
BLACK
6
CONTINUOUS
10
0.972113
20
0.0597083
11
0.972113
21
0.06821
0
LINE
8
BLACK
6
CONTINUOUS
10
0.972113
20
0.06821
11
0.971654
21
0.0680734
0
LINE
8
BLACK
6
CONTINUOUS
10
0.921085
20
0.0841533
11
0.921775
21
0.0822554
0
LINE
8
BLACK
6
CONTINUOUS
10
0.921775
20
0.0822554
11
0.921775
21
0.0560087
0
LINE
8
BLACK
6
CONTINUOUS
10
0.921775
20
0.0560087
11
0.921597
21
0.0549987
0
LINE
8
BLACK
6
CONTINUOUS
10
0.921597
20
0.0549987
11
0.920299
21
0.0534515
0
LINE
8
BLACK
6
CONTINUOUS
10
0.920299
20
0.0534515
11
0.91831
21
0.0531007
0
LINE
8
BLACK
6
CONTINUOUS
10
0.91831
20
0.0531007
11
0.916561
21
0.0541107
0
LINE
8
BLACK
6
CONTINUOUS
10
0.916561
20
0.0541107
11
0.916475
21
0.0543458
0
LINE
8
BLACK
6
CONTINUOUS
10
0.916475
20
0.0543458
11
0.914519
21
0.0533676
0
LINE
8
BLACK
6
CONTINUOUS
10
0.914519
20
0.0533676
11
0.913536
21
0.0530753
0
LINE
8
BLACK
6
CONTINUOUS
10
0.913536
20
0.0530753
11
0.913364
21
0.0531163
0
LINE
8
BLACK
6
CONTINUOUS
10
0.913364
20
0.0531163
11
0.913198
21
0.0530559
0
LINE
8
BLACK
6
CONTINUOUS
10
0.913198
20
0.0530559
11
0.907574
21
0.0530559
0
LINE
8
BLACK
6
CONTINUOUS
10
0.907574
20
0.0530559
11
0.906564
21
0.053234
0
LINE
8
BLACK
6
CONTINUOUS
10
0.906564
20
0.053234
11
0.906429
21
0.0533474
0
LINE
8
BLACK
6
CONTINUOUS
10
0.906429
20
0.0533474
11
0.906254
21
0.0533676
0
LINE
8
BLACK
6
CONTINUOUS
10
0.906254
20
0.0533676
11
0.902504
21
0.0552424
0
LINE
8
BLACK
6
CONTINUOUS
10
0.902504
20
0.0552424
11
0.90168
21
0.0558533
0
LINE
8
BLACK
6
CONTINUOUS
10
0.90168
20
0.0558533
11
0.901504
21
0.056259
0
LINE
8
BLACK
6
CONTINUOUS
10
0.901504
20
0.056259
11
0.901183
21
0.0565629
0
LINE
8
BLACK
6
CONTINUOUS
10
0.901183
20
0.0565629
11
0.899309
21
0.0603124
0
LINE
8
BLACK
6
CONTINUOUS
10
0.899309
20
0.0603124
11
0.899016
21
0.0612954
0
LINE
8
BLACK
6
CONTINUOUS
10
0.899016
20
0.0612954
11
0.899057
21
0.061467
0
LINE
8
BLACK
6
CONTINUOUS
10
0.899057
20
0.061467
11
0.898997
21
0.061633
0
LINE
8
BLACK
6
CONTINUOUS
10
0.898997
20
0.061633
11
0.898997
21
0.0822554
0
LINE
8
BLACK
6
CONTINUOUS
10
0.898997
20
0.0822554
11
0.899175
21
0.0832653
0
LINE
8
BLACK
6
CONTINUOUS
10
0.899175
20
0.0832653
11
0.900473
21
0.0848125
0
LINE
8
BLACK
6
CONTINUOUS
10
0.900473
20
0.0848125
11
0.902462
21
0.0851633
0
LINE
8
BLACK
6
CONTINUOUS
10
0.902462
20
0.0851633
11
0.904212
21
0.0841533
0
LINE
8
BLACK
6
CONTINUOUS
10
0.904212
20
0.0841533
11
0.904902
21
0.0822554
0
LINE
8
BLACK
6
CONTINUOUS
10
0.904902
20
0.0822554
11
0.904902
21
0.06233
0
LINE
8
BLACK
6
CONTINUOUS
10
0.904902
20
0.06233
11
0.906025
21
0.0600843
0
LINE
8
BLACK
6
CONTINUOUS
10
0.906025
20
0.0600843
11
0.908271
21
0.0589614
0
LINE
8
BLACK
6
CONTINUOUS
10
0.908271
20
0.0589614
11
0.912501
21
0.0589614
0
LINE
8
BLACK
6
CONTINUOUS
10
0.912501
20
0.0589614
11
0.915199
21
0.0603102
0
LINE
8
BLACK
6
CONTINUOUS
10
0.915199
20
0.0603102
11
0.91587
21
0.0609813
0
LINE
8
BLACK
6
CONTINUOUS
10
0.91587
20
0.0609813
11
0.91587
21
0.0822554
0
LINE
8
BLACK
6
CONTINUOUS
10
0.91587
20
0.0822554
11
0.916048
21
0.0832653
0
LINE
8
BLACK
6
CONTINUOUS
10
0.916048
20
0.0832653
11
0.917346
21
0.0848125
0
LINE
8
BLACK
6
CONTINUOUS
10
0.917346
20
0.0848125
11
0.919335
21
0.0851633
0
LINE
8
BLACK
6
CONTINUOUS
10
0.919335
20
0.0851633
11
0.921085
21
0.0841533
0
LINE
8
BLACK
6
CONTINUOUS
10
0.880462
20
0.08503
11
0.880598
21
0.0849166
0
LINE
8
BLACK
6
CONTINUOUS
10
0.880598
20
0.0849166
11
0.880773
21
0.0848964
0
LINE
8
BLACK
6
CONTINUOUS
10
0.880773
20
0.0848964
11
0.884523
21
0.0830216
0
LINE
8
BLACK
6
CONTINUOUS
10
0.884523
20
0.0830216
11
0.885346
21
0.0824107
0
LINE
8
BLACK
6
CONTINUOUS
10
0.885346
20
0.0824107
11
0.88615
21
0.0805575
0
LINE
8
BLACK
6
CONTINUOUS
10
0.88615
20
0.0805575
11
0.885574
21
0.0786215
0
LINE
8
BLACK
6
CONTINUOUS
10
0.885574
20
0.0786215
11
0.883888
21
0.0775087
0
LINE
8
BLACK
6
CONTINUOUS
10
0.883888
20
0.0775087
11
0.881882
21
0.0777396
0
LINE
8
BLACK
6
CONTINUOUS
10
0.881882
20
0.0777396
11
0.878756
21
0.0793026
0
LINE
8
BLACK
6
CONTINUOUS
10
0.878756
20
0.0793026
11
0.874525
21
0.0793026
0
LINE
8
BLACK
6
CONTINUOUS
10
0.874525
20
0.0793026
11
0.87228
21
0.0781797
0
LINE
8
BLACK
6
CONTINUOUS
10
0.87228
20
0.0781797
11
0.871157
21
0.075934
0
LINE
8
BLACK
6
CONTINUOUS
10
0.871157
20
0.075934
11
0.871157
21
0.0754533
0
LINE
8
BLACK
6
CONTINUOUS
10
0.871157
20
0.0754533
11
0.87228
21
0.0732076
0
LINE
8
BLACK
6
CONTINUOUS
10
0.87228
20
0.0732076
11
0.874525
21
0.0720848
0
LINE
8
BLACK
6
CONTINUOUS
10
0.874525
20
0.0720848
11
0.879453
21
0.0720848
0
LINE
8
BLACK
6
CONTINUOUS
10
0.879453
20
0.0720848
11
0.880462
21
0.0719067
0
LINE
8
BLACK
6
CONTINUOUS
10
0.880462
20
0.0719067
11
0.880598
21
0.0717932
0
LINE
8
BLACK
6
CONTINUOUS
10
0.880598
20
0.0717932
11
0.880773
21
0.071773
0
LINE
8
BLACK
6
CONTINUOUS
10
0.880773
20
0.071773
11
0.884523
21
0.0698983
0
LINE
8
BLACK
6
CONTINUOUS
10
0.884523
20
0.0698983
11
0.885346
21
0.0692874
0
LINE
8
BLACK
6
CONTINUOUS
10
0.885346
20
0.0692874
11
0.885522
21
0.0688817
0
LINE
8
BLACK
6
CONTINUOUS
10
0.885522
20
0.0688817
11
0.885843
21
0.0685778
0
LINE
8
BLACK
6
CONTINUOUS
10
0.885843
20
0.0685778
11
0.887718
21
0.0648282
0
LINE
8
BLACK
6
CONTINUOUS
10
0.887718
20
0.0648282
11
0.88801
21
0.0638453
0
LINE
8
BLACK
6
CONTINUOUS
10
0.88801
20
0.0638453
11
0.887969
21
0.0636736
0
LINE
8
BLACK
6
CONTINUOUS
10
0.887969
20
0.0636736
11
0.88803
21
0.0635077
0
LINE
8
BLACK
6
CONTINUOUS
10
0.88803
20
0.0635077
11
0.88803
21
0.061633
0
LINE
8
BLACK
6
CONTINUOUS
10
0.88803
20
0.061633
11
0.887852
21
0.060623
0
LINE
8
BLACK
6
CONTINUOUS
10
0.887852
20
0.060623
11
0.887738
21
0.0604878
0
LINE
8
BLACK
6
CONTINUOUS
10
0.887738
20
0.0604878
11
0.887718
21
0.0603124
0
LINE
8
BLACK
6
CONTINUOUS
10
0.887718
20
0.0603124
11
0.885843
21
0.0565629
0
LINE
8
BLACK
6
CONTINUOUS
10
0.885843
20
0.0565629
11
0.885232
21
0.0557393
0
LINE
8
BLACK
6
CONTINUOUS
10
0.885232
20
0.0557393
11
0.884827
21
0.0555634
0
LINE
8
BLACK
6
CONTINUOUS
10
0.884827
20
0.0555634
11
0.884523
21
0.0552424
0
LINE
8
BLACK
6
CONTINUOUS
10
0.884523
20
0.0552424
11
0.880773
21
0.0533676
0
LINE
8
BLACK
6
CONTINUOUS
10
0.880773
20
0.0533676
11
0.87979
21
0.0530753
0
LINE
8
BLACK
6
CONTINUOUS
10
0.87979
20
0.0530753
11
0.879618
21
0.0531163
0
LINE
8
BLACK
6
CONTINUOUS
10
0.879618
20
0.0531163
11
0.879453
21
0.0530559
0
LINE
8
BLACK
6
CONTINUOUS
10
0.879453
20
0.0530559
11
0.871954
21
0.0530559
0
LINE
8
BLACK
6
CONTINUOUS
10
0.871954
20
0.0530559
11
0.870944
21
0.053234
0
LINE
8
BLACK
6
CONTINUOUS
10
0.870944
20
0.053234
11
0.870808
21
0.0533474
0
LINE
8
BLACK
6
CONTINUOUS
10
0.870808
20
0.0533474
11
0.870633
21
0.0533676
0
LINE
8
BLACK
6
CONTINUOUS
10
0.870633
20
0.0533676
11
0.866883
21
0.0552424
0
LINE
8
BLACK
6
CONTINUOUS
10
0.866883
20
0.0552424
11
0.86606
21
0.0558533
0
LINE
8
BLACK
6
CONTINUOUS
10
0.86606
20
0.0558533
11
0.865256
21
0.0577065
0
LINE
8
BLACK
6
CONTINUOUS
10
0.865256
20
0.0577065
11
0.865832
21
0.0596425
0
LINE
8
BLACK
6
CONTINUOUS
10
0.865832
20
0.0596425
11
0.867518
21
0.0607554
0
LINE
8
BLACK
6
CONTINUOUS
10
0.867518
20
0.0607554
11
0.869524
21
0.0605244
0
LINE
8
BLACK
6
CONTINUOUS
10
0.869524
20
0.0605244
11
0.872651
21
0.0589614
0
LINE
8
BLACK
6
CONTINUOUS
10
0.872651
20
0.0589614
11
0.878756
21
0.0589614
0
LINE
8
BLACK
6
CONTINUOUS
10
0.878756
20
0.0589614
11
0.881001
21
0.0600843
0
LINE
8
BLACK
6
CONTINUOUS
10
0.881001
20
0.0600843
11
0.882124
21
0.06233
0
LINE
8
BLACK
6
CONTINUOUS
10
0.882124
20
0.06233
11
0.882124
21
0.0628107
0
LINE
8
BLACK
6
CONTINUOUS
10
0.882124
20
0.0628107
11
0.881001
21
0.0650564
0
LINE
8
BLACK
6
CONTINUOUS
10
0.881001
20
0.0650564
11
0.878756
21
0.0661793
0
LINE
8
BLACK
6
CONTINUOUS
10
0.878756
20
0.0661793
11
0.873828
21
0.0661793
0
LINE
8
BLACK
6
CONTINUOUS
10
0.873828
20
0.0661793
11
0.872818
21
0.0663573
0
LINE
8
BLACK
6
CONTINUOUS
10
0.872818
20
0.0663573
11
0.872683
21
0.0664708
0
LINE
8
BLACK
6
CONTINUOUS
10
0.872683
20
0.0664708
11
0.872508
21
0.066491
0
LINE
8
BLACK
6
CONTINUOUS
10
0.872508
20
0.066491
11
0.868758
21
0.0683657
0
LINE
8
BLACK
6
CONTINUOUS
10
0.868758
20
0.0683657
11
0.867935
21
0.0689767
0
LINE
8
BLACK
6
CONTINUOUS
10
0.867935
20
0.0689767
11
0.867759
21
0.0693823
0
LINE
8
BLACK
6
CONTINUOUS
10
0.867759
20
0.0693823
11
0.867438
21
0.0696863
0
LINE
8
BLACK
6
CONTINUOUS
10
0.867438
20
0.0696863
11
0.865563
21
0.0734358
0
LINE
8
BLACK
6
CONTINUOUS
10
0.865563
20
0.0734358
11
0.865271
21
0.0744187
0
LINE
8
BLACK
6
CONTINUOUS
10
0.865271
20
0.0744187
11
0.865312
21
0.0745904
0
LINE
8
BLACK
6
CONTINUOUS
10
0.865312
20
0.0745904
11
0.865251
21
0.0747563
0
LINE
8
BLACK
6
CONTINUOUS
10
0.865251
20
0.0747563
11
0.865251
21
0.0766311
0
LINE
8
BLACK
6
CONTINUOUS
10
0.865251
20
0.0766311
11
0.865429
21
0.077641
0
LINE
8
BLACK
6
CONTINUOUS
10
0.865429
20
0.077641
11
0.865543
21
0.0777762
0
LINE
8
BLACK
6
CONTINUOUS
10
0.865543
20
0.0777762
11
0.865563
21
0.0779516
0
LINE
8
BLACK
6
CONTINUOUS
10
0.865563
20
0.0779516
11
0.867438
21
0.0817011
0
LINE
8
BLACK
6
CONTINUOUS
10
0.867438
20
0.0817011
11
0.868049
21
0.0825248
0
LINE
8
BLACK
6
CONTINUOUS
10
0.868049
20
0.0825248
11
0.868454
21
0.0827006
0
LINE
8
BLACK
6
CONTINUOUS
10
0.868454
20
0.0827006
11
0.868758
21
0.0830216
0
LINE
8
BLACK
6
CONTINUOUS
10
0.868758
20
0.0830216
11
0.872508
21
0.0848964
0
LINE
8
BLACK
6
CONTINUOUS
10
0.872508
20
0.0848964
11
0.873491
21
0.0851887
0
LINE
8
BLACK
6
CONTINUOUS
10
0.873491
20
0.0851887
11
0.873662
21
0.0851477
0
LINE
8
BLACK
6
CONTINUOUS
10
0.873662
20
0.0851477
11
0.873828
21
0.0852081
0
LINE
8
BLACK
6
CONTINUOUS
10
0.873828
20
0.0852081
11
0.879453
21
0.0852081
0
LINE
8
BLACK
6
CONTINUOUS
10
0.879453
20
0.0852081
11
0.880462
21
0.08503
0
LINE
8
BLACK
6
CONTINUOUS
10
0.739855
20
0.08503
11
0.73999
21
0.0849166
0
LINE
8
BLACK
6
CONTINUOUS
10
0.73999
20
0.0849166
11
0.740166
21
0.0848964
0
LINE
8
BLACK
6
CONTINUOUS
10
0.740166
20
0.0848964
11
0.743915
21
0.0830216
0
LINE
8
BLACK
6
CONTINUOUS
10
0.743915
20
0.0830216
11
0.744739
21
0.0824107
0
LINE
8
BLACK
6
CONTINUOUS
10
0.744739
20
0.0824107
11
0.744915
21
0.082005
0
LINE
8
BLACK
6
CONTINUOUS
10
0.744915
20
0.082005
11
0.745236
21
0.0817011
0
LINE
8
BLACK
6
CONTINUOUS
10
0.745236
20
0.0817011
11
0.74711
21
0.0779516
0
LINE
8
BLACK
6
CONTINUOUS
10
0.74711
20
0.0779516
11
0.747403
21
0.0769687
0
LINE
8
BLACK
6
CONTINUOUS
10
0.747403
20
0.0769687
11
0.747362
21
0.076797
0
LINE
8
BLACK
6
CONTINUOUS
10
0.747362
20
0.076797
11
0.747422
21
0.0766311
0
LINE
8
BLACK
6
CONTINUOUS
10
0.747422
20
0.0766311
11
0.747422
21
0.0560087
0
LINE
8
BLACK
6
CONTINUOUS
10
0.747422
20
0.0560087
11
0.747244
21
0.0549987
0
LINE
8
BLACK
6
CONTINUOUS
10
0.747244
20
0.0549987
11
0.745946
21
0.0534515
0
LINE
8
BLACK
6
CONTINUOUS
10
0.745946
20
0.0534515
11
0.743957
21
0.0531007
0
LINE
8
BLACK
6
CONTINUOUS
10
0.743957
20
0.0531007
11
0.74282
21
0.0537572
0
LINE
8
BLACK
6
CONTINUOUS
10
0.74282
20
0.0537572
11
0.74204
21
0.0533676
0
LINE
8
BLACK
6
CONTINUOUS
10
0.74204
20
0.0533676
11
0.741057
21
0.0530753
0
LINE
8
BLACK
6
CONTINUOUS
10
0.741057
20
0.0530753
11
0.740886
21
0.0531163
0
LINE
8
BLACK
6
CONTINUOUS
10
0.740886
20
0.0531163
11
0.74072
21
0.0530559
0
LINE
8
BLACK
6
CONTINUOUS
10
0.74072
20
0.0530559
11
0.731346
21
0.0530559
0
LINE
8
BLACK
6
CONTINUOUS
10
0.731346
20
0.0530559
11
0.730336
21
0.053234
0
LINE
8
BLACK
6
CONTINUOUS
10
0.730336
20
0.053234
11
0.730201
21
0.0533474
0
LINE
8
BLACK
6
CONTINUOUS
10
0.730201
20
0.0533474
11
0.730026
21
0.0533676
0
LINE
8
BLACK
6
CONTINUOUS
10
0.730026
20
0.0533676
11
0.726276
21
0.0552424
0
LINE
8
BLACK
6
CONTINUOUS
10
0.726276
20
0.0552424
11
0.725452
21
0.0558533
0
LINE
8
BLACK
6
CONTINUOUS
10
0.725452
20
0.0558533
11
0.725277
21
0.056259
0
LINE
8
BLACK
6
CONTINUOUS
10
0.725277
20
0.056259
11
0.724956
21
0.0565629
0
LINE
8
BLACK
6
CONTINUOUS
10
0.724956
20
0.0565629
11
0.723081
21
0.0603124
0
LINE
8
BLACK
6
CONTINUOUS
10
0.723081
20
0.0603124
11
0.722788
21
0.0612954
0
LINE
8
BLACK
6
CONTINUOUS
10
0.722788
20
0.0612954
11
0.722829
21
0.061467
0
LINE
8
BLACK
6
CONTINUOUS
10
0.722829
20
0.061467
11
0.722769
21
0.061633
0
LINE
8
BLACK
6
CONTINUOUS
10
0.722769
20
0.061633
11
0.722769
21
0.0653825
0
LINE
8
BLACK
6
CONTINUOUS
10
0.722769
20
0.0653825
11
0.722947
21
0.0663924
0
LINE
8
BLACK
6
CONTINUOUS
10
0.722947
20
0.0663924
11
0.723061
21
0.0665276
0
LINE
8
BLACK
6
CONTINUOUS
10
0.723061
20
0.0665276
11
0.723081
21
0.066703
0
LINE
8
BLACK
6
CONTINUOUS
10
0.723081
20
0.066703
11
0.724956
21
0.0704525
0
LINE
8
BLACK
6
CONTINUOUS
10
0.724956
20
0.0704525
11
0.725566
21
0.0712762
0
LINE
8
BLACK
6
CONTINUOUS
10
0.725566
20
0.0712762
11
0.725972
21
0.071452
0
LINE
8
BLACK
6
CONTINUOUS
10
0.725972
20
0.071452
11
0.726276
21
0.071773
0
LINE
8
BLACK
6
CONTINUOUS
10
0.726276
20
0.071773
11
0.730026
21
0.0736478
0
LINE
8
BLACK
6
CONTINUOUS
10
0.730026
20
0.0736478
11
0.731008
21
0.0739402
0
LINE
8
BLACK
6
CONTINUOUS
10
0.731008
20
0.0739402
11
0.73118
21
0.0738991
0
LINE
8
BLACK
6
CONTINUOUS
10
0.73118
20
0.0738991
11
0.731346
21
0.0739595
0
LINE
8
BLACK
6
CONTINUOUS
10
0.731346
20
0.0739595
11
0.740023
21
0.0739595
0
LINE
8
BLACK
6
CONTINUOUS
10
0.740023
20
0.0739595
11
0.741517
21
0.0747064
0
LINE
8
BLACK
6
CONTINUOUS
10
0.741517
20
0.0747064
11
0.741517
21
0.075934
0
LINE
8
BLACK
6
CONTINUOUS
10
0.741517
20
0.075934
11
0.740394
21
0.0781797
0
LINE
8
BLACK
6
CONTINUOUS
10
0.740394
20
0.0781797
11
0.738148
21
0.0793026
0
LINE
8
BLACK
6
CONTINUOUS
10
0.738148
20
0.0793026
11
0.732043
21
0.0793026
0
LINE
8
BLACK
6
CONTINUOUS
10
0.732043
20
0.0793026
11
0.728917
21
0.0777396
0
LINE
8
BLACK
6
CONTINUOUS
10
0.728917
20
0.0777396
11
0.727934
21
0.0774472
0
LINE
8
BLACK
6
CONTINUOUS
10
0.727934
20
0.0774472
11
0.72597
21
0.0779165
0
LINE
8
BLACK
6
CONTINUOUS
10
0.72597
20
0.0779165
11
0.724766
21
0.0795387
0
LINE
8
BLACK
6
CONTINUOUS
10
0.724766
20
0.0795387
11
0.724887
21
0.0815549
0
LINE
8
BLACK
6
CONTINUOUS
10
0.724887
20
0.0815549
11
0.726276
21
0.0830216
0
LINE
8
BLACK
6
CONTINUOUS
10
0.726276
20
0.0830216
11
0.730026
21
0.0848964
0
LINE
8
BLACK
6
CONTINUOUS
10
0.730026
20
0.0848964
11
0.731008
21
0.0851887
0
LINE
8
BLACK
6
CONTINUOUS
10
0.731008
20
0.0851887
11
0.73118
21
0.0851477
0
LINE
8
BLACK
6
CONTINUOUS
10
0.73118
20
0.0851477
11
0.731346
21
0.0852081
0
LINE
8
BLACK
6
CONTINUOUS
10
0.731346
20
0.0852081
11
0.738845
21
0.0852081
0
LINE
8
BLACK
6
CONTINUOUS
10
0.738845
20
0.0852081
11
0.739855
21
0.08503
0
LINE
8
BLACK
6
CONTINUOUS
10
0.741057
20
0.0680734
11
0.740886
21
0.0681144
0
LINE
8
BLACK
6
CONTINUOUS
10
0.740886
20
0.0681144
11
0.74072
21
0.068054
0
LINE
8
BLACK
6
CONTINUOUS
10
0.74072
20
0.068054
11
0.732043
21
0.068054
0
LINE
8
BLACK
6
CONTINUOUS
10
0.732043
20
0.068054
11
0.729797
21
0.0669311
0
LINE
8
BLACK
6
CONTINUOUS
10
0.729797
20
0.0669311
11
0.728675
21
0.0646854
0
LINE
8
BLACK
6
CONTINUOUS
10
0.728675
20
0.0646854
11
0.728675
21
0.06233
0
LINE
8
BLACK
6
CONTINUOUS
10
0.728675
20
0.06233
11
0.729797
21
0.0600843
0
LINE
8
BLACK
6
CONTINUOUS
10
0.729797
20
0.0600843
11
0.732043
21
0.0589614
0
LINE
8
BLACK
6
CONTINUOUS
10
0.732043
20
0.0589614
11
0.740023
21
0.0589614
0
LINE
8
BLACK
6
CONTINUOUS
10
0.740023
20
0.0589614
11
0.741517
21
0.0597083
0
LINE
8
BLACK
6
CONTINUOUS
10
0.741517
20
0.0597083
11
0.741517
21
0.06821
0
LINE
8
BLACK
6
CONTINUOUS
10
0.741517
20
0.06821
11
0.741057
21
0.0680734
0
LINE
8
BLACK
6
CONTINUOUS
10
0.765479
20
0.0972767
11
0.76617
21
0.0953787
0
LINE
8
BLACK
6
CONTINUOUS
10
0.76617
20
0.0953787
11
0.76617
21
0.0852081
0
LINE
8
BLACK
6
CONTINUOUS
10
0.76617
20
0.0852081
11
0.772591
21
0.0852081
0
LINE
8
BLACK
6
CONTINUOUS
10
0.772591
20
0.0852081
11
0.773601
21
0.08503
0
LINE
8
BLACK
6
CONTINUOUS
10
0.773601
20
0.08503
11
0.775148
21
0.0837317
0
LINE
8
BLACK
6
CONTINUOUS
10
0.775148
20
0.0837317
11
0.775499
21
0.0817426
0
LINE
8
BLACK
6
CONTINUOUS
10
0.775499
20
0.0817426
11
0.774489
21
0.0799934
0
LINE
8
BLACK
6
CONTINUOUS
10
0.774489
20
0.0799934
11
0.772591
21
0.0793026
0
LINE
8
BLACK
6
CONTINUOUS
10
0.772591
20
0.0793026
11
0.76617
21
0.0793026
0
LINE
8
BLACK
6
CONTINUOUS
10
0.76617
20
0.0793026
11
0.76617
21
0.06233
0
LINE
8
BLACK
6
CONTINUOUS
10
0.76617
20
0.06233
11
0.767293
21
0.0600843
0
LINE
8
BLACK
6
CONTINUOUS
10
0.767293
20
0.0600843
11
0.769538
21
0.0589614
0
LINE
8
BLACK
6
CONTINUOUS
10
0.769538
20
0.0589614
11
0.772591
21
0.0589614
0
LINE
8
BLACK
6
CONTINUOUS
10
0.772591
20
0.0589614
11
0.773601
21
0.0587833
0
LINE
8
BLACK
6
CONTINUOUS
10
0.773601
20
0.0587833
11
0.775148
21
0.057485
0
LINE
8
BLACK
6
CONTINUOUS
10
0.775148
20
0.057485
11
0.775499
21
0.0554959
0
LINE
8
BLACK
6
CONTINUOUS
10
0.775499
20
0.0554959
11
0.774489
21
0.0537467
0
LINE
8
BLACK
6
CONTINUOUS
10
0.774489
20
0.0537467
11
0.772591
21
0.0530559
0
LINE
8
BLACK
6
CONTINUOUS
10
0.772591
20
0.0530559
11
0.768841
21
0.0530559
0
LINE
8
BLACK
6
CONTINUOUS
10
0.768841
20
0.0530559
11
0.767831
21
0.053234
0
LINE
8
BLACK
6
CONTINUOUS
10
0.767831
20
0.053234
11
0.767696
21
0.0533474
0
LINE
8
BLACK
6
CONTINUOUS
10
0.767696
20
0.0533474
11
0.767521
21
0.0533676
0
LINE
8
BLACK
6
CONTINUOUS
10
0.767521
20
0.0533676
11
0.763771
21
0.0552424
0
LINE
8
BLACK
6
CONTINUOUS
10
0.763771
20
0.0552424
11
0.762948
21
0.0558533
0
LINE
8
BLACK
6
CONTINUOUS
10
0.762948
20
0.0558533
11
0.762772
21
0.056259
0
LINE
8
BLACK
6
CONTINUOUS
10
0.762772
20
0.056259
11
0.762451
21
0.0565629
0
LINE
8
BLACK
6
CONTINUOUS
10
0.762451
20
0.0565629
11
0.760576
21
0.0603124
0
LINE
8
BLACK
6
CONTINUOUS
10
0.760576
20
0.0603124
11
0.760284
21
0.0612954
0
LINE
8
BLACK
6
CONTINUOUS
10
0.760284
20
0.0612954
11
0.760325
21
0.061467
0
LINE
8
BLACK
6
CONTINUOUS
10
0.760325
20
0.061467
11
0.760264
21
0.061633
0
LINE
8
BLACK
6
CONTINUOUS
10
0.760264
20
0.061633
11
0.760264
21
0.0793026
0
LINE
8
BLACK
6
CONTINUOUS
10
0.760264
20
0.0793026
11
0.757593
21
0.0793026
0
LINE
8
BLACK
6
CONTINUOUS
10
0.757593
20
0.0793026
11
0.756583
21
0.0794807
0
LINE
8
BLACK
6
CONTINUOUS
10
0.756583
20
0.0794807
11
0.755036
21
0.080779
0
LINE
8
BLACK
6
CONTINUOUS
10
0.755036
20
0.080779
11
0.754685
21
0.0827681
0
LINE
8
BLACK
6
CONTINUOUS
10
0.754685
20
0.0827681
11
0.755695
21
0.0845173
0
LINE
8
BLACK
6
CONTINUOUS
10
0.755695
20
0.0845173
11
0.757593
21
0.0852081
0
LINE
8
BLACK
6
CONTINUOUS
10
0.757593
20
0.0852081
11
0.760264
21
0.0852081
0
LINE
8
BLACK
6
CONTINUOUS
10
0.760264
20
0.0852081
11
0.760264
21
0.0953787
0
LINE
8
BLACK
6
CONTINUOUS
10
0.760264
20
0.0953787
11
0.760442
21
0.0963887
0
LINE
8
BLACK
6
CONTINUOUS
10
0.760442
20
0.0963887
11
0.761741
21
0.0979359
0
LINE
8
BLACK
6
CONTINUOUS
10
0.761741
20
0.0979359
11
0.76373
21
0.0982867
0
LINE
8
BLACK
6
CONTINUOUS
10
0.76373
20
0.0982867
11
0.765479
21
0.0972767
0
LINE
8
BLACK
6
CONTINUOUS
10
0.817972
20
0.0841533
11
0.818663
21
0.0822554
0
LINE
8
BLACK
6
CONTINUOUS
10
0.818663
20
0.0822554
11
0.818663
21
0.0560087
0
LINE
8
BLACK
6
CONTINUOUS
10
0.818663
20
0.0560087
11
0.818485
21
0.0549987
0
LINE
8
BLACK
6
CONTINUOUS
10
0.818485
20
0.0549987
11
0.817187
21
0.0534515
0
LINE
8
BLACK
6
CONTINUOUS
10
0.817187
20
0.0534515
11
0.815198
21
0.0531007
0
LINE
8
BLACK
6
CONTINUOUS
10
0.815198
20
0.0531007
11
0.813449
21
0.0541107
0
LINE
8
BLACK
6
CONTINUOUS
10
0.813449
20
0.0541107
11
0.812758
21
0.0560087
0
LINE
8
BLACK
6
CONTINUOUS
10
0.812758
20
0.0560087
11
0.812758
21
0.0822554
0
LINE
8
BLACK
6
CONTINUOUS
10
0.812758
20
0.0822554
11
0.812936
21
0.0832653
0
LINE
8
BLACK
6
CONTINUOUS
10
0.812936
20
0.0832653
11
0.814234
21
0.0848125
0
LINE
8
BLACK
6
CONTINUOUS
10
0.814234
20
0.0848125
11
0.816223
21
0.0851633
0
LINE
8
BLACK
6
CONTINUOUS
10
0.816223
20
0.0851633
11
0.817972
21
0.0841533
0
LINE
8
BLACK
6
CONTINUOUS
10
0.846717
20
0.08503
11
0.846852
21
0.0849166
0
LINE
8
BLACK
6
CONTINUOUS
10
0.846852
20
0.0849166
11
0.847027
21
0.0848964
0
LINE
8
BLACK
6
CONTINUOUS
10
0.847027
20
0.0848964
11
0.850777
21
0.0830216
0
LINE
8
BLACK
6
CONTINUOUS
10
0.850777
20
0.0830216
11
0.8516
21
0.0824107
0
LINE
8
BLACK
6
CONTINUOUS
10
0.8516
20
0.0824107
11
0.851776
21
0.082005
0
LINE
8
BLACK
6
CONTINUOUS
10
0.851776
20
0.082005
11
0.852097
21
0.0817011
0
LINE
8
BLACK
6
CONTINUOUS
10
0.852097
20
0.0817011
11
0.853972
21
0.0779516
0
LINE
8
BLACK
6
CONTINUOUS
10
0.853972
20
0.0779516
11
0.854264
21
0.0769687
0
LINE
8
BLACK
6
CONTINUOUS
10
0.854264
20
0.0769687
11
0.854223
21
0.076797
0
LINE
8
BLACK
6
CONTINUOUS
10
0.854223
20
0.076797
11
0.854284
21
0.0766311
0
LINE
8
BLACK
6
CONTINUOUS
10
0.854284
20
0.0766311
11
0.854284
21
0.0560087
0
LINE
8
BLACK
6
CONTINUOUS
10
0.854284
20
0.0560087
11
0.854106
21
0.0549987
0
LINE
8
BLACK
6
CONTINUOUS
10
0.854106
20
0.0549987
11
0.852807
21
0.0534515
0
LINE
8
BLACK
6
CONTINUOUS
10
0.852807
20
0.0534515
11
0.850818
21
0.0531007
0
LINE
8
BLACK
6
CONTINUOUS
10
0.850818
20
0.0531007
11
0.849069
21
0.0541107
0
LINE
8
BLACK
6
CONTINUOUS
10
0.849069
20
0.0541107
11
0.848378
21
0.0560087
0
LINE
8
BLACK
6
CONTINUOUS
10
0.848378
20
0.0560087
11
0.848378
21
0.075934
0
LINE
8
BLACK
6
CONTINUOUS
10
0.848378
20
0.075934
11
0.847255
21
0.0781797
0
LINE
8
BLACK
6
CONTINUOUS
10
0.847255
20
0.0781797
11
0.84501
21
0.0793026
0
LINE
8
BLACK
6
CONTINUOUS
10
0.84501
20
0.0793026
11
0.84078
21
0.0793026
0
LINE
8
BLACK
6
CONTINUOUS
10
0.84078
20
0.0793026
11
0.838082
21
0.0779539
0
LINE
8
BLACK
6
CONTINUOUS
10
0.838082
20
0.0779539
11
0.837411
21
0.0772828
0
LINE
8
BLACK
6
CONTINUOUS
10
0.837411
20
0.0772828
11
0.837411
21
0.0560087
0
LINE
8
BLACK
6
CONTINUOUS
10
0.837411
20
0.0560087
11
0.837233
21
0.0549987
0
LINE
8
BLACK
6
CONTINUOUS
10
0.837233
20
0.0549987
11
0.835935
21
0.0534515
0
LINE
8
BLACK
6
CONTINUOUS
10
0.835935
20
0.0534515
11
0.833945
21
0.0531007
0
LINE
8
BLACK
6
CONTINUOUS
10
0.833945
20
0.0531007
11
0.832196
21
0.0541107
0
LINE
8
BLACK
6
CONTINUOUS
10
0.832196
20
0.0541107
11
0.831505
21
0.0560087
0
LINE
8
BLACK
6
CONTINUOUS
10
0.831505
20
0.0560087
11
0.831505
21
0.0822554
0
LINE
8
BLACK
6
CONTINUOUS
10
0.831505
20
0.0822554
11
0.831684
21
0.0832653
0
LINE
8
BLACK
6
CONTINUOUS
10
0.831684
20
0.0832653
11
0.832982
21
0.0848125
0
LINE
8
BLACK
6
CONTINUOUS
10
0.832982
20
0.0848125
11
0.834971
21
0.0851633
0
LINE
8
BLACK
6
CONTINUOUS
10
0.834971
20
0.0851633
11
0.83672
21
0.0841533
0
LINE
8
BLACK
6
CONTINUOUS
10
0.83672
20
0.0841533
11
0.836806
21
0.0839182
0
LINE
8
BLACK
6
CONTINUOUS
10
0.836806
20
0.0839182
11
0.838762
21
0.0848964
0
LINE
8
BLACK
6
CONTINUOUS
10
0.838762
20
0.0848964
11
0.839745
21
0.0851887
0
LINE
8
BLACK
6
CONTINUOUS
10
0.839745
20
0.0851887
11
0.839917
21
0.0851477
0
LINE
8
BLACK
6
CONTINUOUS
10
0.839917
20
0.0851477
11
0.840082
21
0.0852081
0
LINE
8
BLACK
6
CONTINUOUS
10
0.840082
20
0.0852081
11
0.845707
21
0.0852081
0
LINE
8
BLACK
6
CONTINUOUS
10
0.845707
20
0.0852081
11
0.846717
21
0.08503
0
LINE
8
BLACK
6
CONTINUOUS
10
1.08294
20
0.08503
11
1.08307
21
0.0849166
0
LINE
8
BLACK
6
CONTINUOUS
10
1.08307
20
0.0849166
11
1.08325
21
0.0848964
0
LINE
8
BLACK
6
CONTINUOUS
10
1.08325
20
0.0848964
11
1.087
21
0.0830216
0
LINE
8
BLACK
6
CONTINUOUS
10
1.087
20
0.0830216
11
1.08782
21
0.0824107
0
LINE
8
BLACK
6
CONTINUOUS
10
1.08782
20
0.0824107
11
1.088
21
0.082005
0
LINE
8
BLACK
6
CONTINUOUS
10
1.088
20
0.082005
11
1.08832
21
0.0817011
0
LINE
8
BLACK
6
CONTINUOUS
10
1.08832
20
0.0817011
11
1.09019
21
0.0779516
0
LINE
8
BLACK
6
CONTINUOUS
10
1.09019
20
0.0779516
11
1.09048
21
0.0769687
0
LINE
8
BLACK
6
CONTINUOUS
10
1.09048
20
0.0769687
11
1.09044
21
0.076797
0
LINE
8
BLACK
6
CONTINUOUS
10
1.09044
20
0.076797
11
1.0905
21
0.0766311
0
LINE
8
BLACK
6
CONTINUOUS
10
1.0905
20
0.0766311
11
1.0905
21
0.0560087
0
LINE
8
BLACK
6
CONTINUOUS
10
1.0905
20
0.0560087
11
1.09033
21
0.0549987
0
LINE
8
BLACK
6
CONTINUOUS
10
1.09033
20
0.0549987
11
1.08903
21
0.0534515
0
LINE
8
BLACK
6
CONTINUOUS
10
1.08903
20
0.0534515
11
1.08704
21
0.0531007
0
LINE
8
BLACK
6
CONTINUOUS
10
1.08704
20
0.0531007
11
1.08529
21
0.0541107
0
LINE
8
BLACK
6
CONTINUOUS
10
1.08529
20
0.0541107
11
1.0846
21
0.0560087
0
LINE
8
BLACK
6
CONTINUOUS
10
1.0846
20
0.0560087
11
1.0846
21
0.075934
0
LINE
8
BLACK
6
CONTINUOUS
10
1.0846
20
0.075934
11
1.08348
21
0.0781797
0
LINE
8
BLACK
6
CONTINUOUS
10
1.08348
20
0.0781797
11
1.08123
21
0.0793026
0
LINE
8
BLACK
6
CONTINUOUS
10
1.08123
20
0.0793026
11
1.077
21
0.0793026
0
LINE
8
BLACK
6
CONTINUOUS
10
1.077
20
0.0793026
11
1.0743
21
0.0779539
0
LINE
8
BLACK
6
CONTINUOUS
10
1.0743
20
0.0779539
11
1.07363
21
0.0772828
0
LINE
8
BLACK
6
CONTINUOUS
10
1.07363
20
0.0772828
11
1.07363
21
0.0560087
0
LINE
8
BLACK
6
CONTINUOUS
10
1.07363
20
0.0560087
11
1.07345
21
0.0549987
0
LINE
8
BLACK
6
CONTINUOUS
10
1.07345
20
0.0549987
11
1.07216
21
0.0534515
0
LINE
8
BLACK
6
CONTINUOUS
10
1.07216
20
0.0534515
11
1.07017
21
0.0531007
0
LINE
8
BLACK
6
CONTINUOUS
10
1.07017
20
0.0531007
11
1.06842
21
0.0541107
0
LINE
8
BLACK
6
CONTINUOUS
10
1.06842
20
0.0541107
11
1.06773
21
0.0560087
0
LINE
8
BLACK
6
CONTINUOUS
10
1.06773
20
0.0560087
11
1.06773
21
0.0822554
0
LINE
8
BLACK
6
CONTINUOUS
10
1.06773
20
0.0822554
11
1.0679
21
0.0832653
0
LINE
8
BLACK
6
CONTINUOUS
10
1.0679
20
0.0832653
11
1.0692
21
0.0848125
0
LINE
8
BLACK
6
CONTINUOUS
10
1.0692
20
0.0848125
11
1.07119
21
0.0851633
0
LINE
8
BLACK
6
CONTINUOUS
10
1.07119
20
0.0851633
11
1.07294
21
0.0841533
0
LINE
8
BLACK
6
CONTINUOUS
10
1.07294
20
0.0841533
11
1.07303
21
0.0839182
0
LINE
8
BLACK
6
CONTINUOUS
10
1.07303
20
0.0839182
11
1.07498
21
0.0848964
0
LINE
8
BLACK
6
CONTINUOUS
10
1.07498
20
0.0848964
11
1.07597
21
0.0851887
0
LINE
8
BLACK
6
CONTINUOUS
10
1.07597
20
0.0851887
11
1.07614
21
0.0851477
0
LINE
8
BLACK
6
CONTINUOUS
10
1.07614
20
0.0851477
11
1.0763
21
0.0852081
0
LINE
8
BLACK
6
CONTINUOUS
10
1.0763
20
0.0852081
11
1.08193
21
0.0852081
0
LINE
8
BLACK
6
CONTINUOUS
10
1.08193
20
0.0852081
11
1.08294
21
0.08503
0
LINE
8
BLACK
6
CONTINUOUS
10
1.01857
20
0.0841533
11
1.01926
21
0.0822554
0
LINE
8
BLACK
6
CONTINUOUS
10
1.01926
20
0.0822554
11
1.01926
21
0.0560087
0
LINE
8
BLACK
6
CONTINUOUS
10
1.01926
20
0.0560087
11
1.01909
21
0.0549987
0
LINE
8
BLACK
6
CONTINUOUS
10
1.01909
20
0.0549987
11
1.01779
21
0.0534515
0
LINE
8
BLACK
6
CONTINUOUS
10
1.01779
20
0.0534515
11
1.0158
21
0.0531007
0
LINE
8
BLACK
6
CONTINUOUS
10
1.0158
20
0.0531007
11
1.01405
21
0.0541107
0
LINE
8
BLACK
6
CONTINUOUS
10
1.01405
20
0.0541107
11
1.01336
21
0.0560087
0
LINE
8
BLACK
6
CONTINUOUS
10
1.01336
20
0.0560087
11
1.01336
21
0.0822554
0
LINE
8
BLACK
6
CONTINUOUS
10
1.01336
20
0.0822554
11
1.01354
21
0.0832653
0
LINE
8
BLACK
6
CONTINUOUS
10
1.01354
20
0.0832653
11
1.01483
21
0.0848125
0
LINE
8
BLACK
6
CONTINUOUS
10
1.01483
20
0.0848125
11
1.01682
21
0.0851633
0
LINE
8
BLACK
6
CONTINUOUS
10
1.01682
20
0.0851633
11
1.01857
21
0.0841533
0
LINE
8
BLACK
6
CONTINUOUS
10
0.677365
20
0.0972767
11
0.678056
21
0.0953787
0
LINE
8
BLACK
6
CONTINUOUS
10
0.678056
20
0.0953787
11
0.678056
21
0.0560087
0
LINE
8
BLACK
6
CONTINUOUS
10
0.678056
20
0.0560087
11
0.677878
21
0.0549987
0
LINE
8
BLACK
6
CONTINUOUS
10
0.677878
20
0.0549987
11
0.676579
21
0.0534515
0
LINE
8
BLACK
6
CONTINUOUS
10
0.676579
20
0.0534515
11
0.67459
21
0.0531007
0
LINE
8
BLACK
6
CONTINUOUS
10
0.67459
20
0.0531007
11
0.672841
21
0.0541107
0
LINE
8
BLACK
6
CONTINUOUS
10
0.672841
20
0.0541107
11
0.67215
21
0.0560087
0
LINE
8
BLACK
6
CONTINUOUS
10
0.67215
20
0.0560087
11
0.67215
21
0.0736783
0
LINE
8
BLACK
6
CONTINUOUS
10
0.67215
20
0.0736783
11
0.655559
21
0.0736783
0
LINE
8
BLACK
6
CONTINUOUS
10
0.655559
20
0.0736783
11
0.655559
21
0.0560087
0
LINE
8
BLACK
6
CONTINUOUS
10
0.655559
20
0.0560087
11
0.655381
21
0.0549987
0
LINE
8
BLACK
6
CONTINUOUS
10
0.655381
20
0.0549987
11
0.654082
21
0.0534515
0
LINE
8
BLACK
6
CONTINUOUS
10
0.654082
20
0.0534515
11
0.652093
21
0.0531007
0
LINE
8
BLACK
6
CONTINUOUS
10
0.652093
20
0.0531007
11
0.650344
21
0.0541107
0
LINE
8
BLACK
6
CONTINUOUS
10
0.650344
20
0.0541107
11
0.649653
21
0.0560087
0
LINE
8
BLACK
6
CONTINUOUS
10
0.649653
20
0.0560087
11
0.649653
21
0.0953787
0
LINE
8
BLACK
6
CONTINUOUS
10
0.649653
20
0.0953787
11
0.649831
21
0.0963887
0
LINE
8
BLACK
6
CONTINUOUS
10
0.649831
20
0.0963887
11
0.65113
21
0.0979359
0
LINE
8
BLACK
6
CONTINUOUS
10
0.65113
20
0.0979359
11
0.653119
21
0.0982867
0
LINE
8
BLACK
6
CONTINUOUS
10
0.653119
20
0.0982867
11
0.654868
21
0.0972767
0
LINE
8
BLACK
6
CONTINUOUS
10
0.654868
20
0.0972767
11
0.655559
21
0.0953787
0
LINE
8
BLACK
6
CONTINUOUS
10
0.655559
20
0.0953787
11
0.655559
21
0.0795838
0
LINE
8
BLACK
6
CONTINUOUS
10
0.655559
20
0.0795838
11
0.67215
21
0.0795838
0
LINE
8
BLACK
6
CONTINUOUS
10
0.67215
20
0.0795838
11
0.67215
21
0.0953787
0
LINE
8
BLACK
6
CONTINUOUS
10
0.67215
20
0.0953787
11
0.672328
21
0.0963887
0
LINE
8
BLACK
6
CONTINUOUS
10
0.672328
20
0.0963887
11
0.673627
21
0.0979359
0
LINE
8
BLACK
6
CONTINUOUS
10
0.673627
20
0.0979359
11
0.675616
21
0.0982867
0
LINE
8
BLACK
6
CONTINUOUS
10
0.675616
20
0.0982867
11
0.677365
21
0.0972767
0
LINE
8
BLACK
6
CONTINUOUS
10
0.939832
20
0.0972767
11
0.940523
21
0.0953787
0
LINE
8
BLACK
6
CONTINUOUS
10
0.940523
20
0.0953787
11
0.940523
21
0.06233
0
LINE
8
BLACK
6
CONTINUOUS
10
0.940523
20
0.06233
11
0.941646
21
0.0600843
0
LINE
8
BLACK
6
CONTINUOUS
10
0.941646
20
0.0600843
11
0.944515
21
0.0586497
0
LINE
8
BLACK
6
CONTINUOUS
10
0.944515
20
0.0586497
11
0.945339
21
0.0580388
0
LINE
8
BLACK
6
CONTINUOUS
10
0.945339
20
0.0580388
11
0.946142
21
0.0561856
0
LINE
8
BLACK
6
CONTINUOUS
10
0.946142
20
0.0561856
11
0.945566
21
0.0542496
0
LINE
8
BLACK
6
CONTINUOUS
10
0.945566
20
0.0542496
11
0.943881
21
0.0531367
0
LINE
8
BLACK
6
CONTINUOUS
10
0.943881
20
0.0531367
11
0.941874
21
0.0533676
0
LINE
8
BLACK
6
CONTINUOUS
10
0.941874
20
0.0533676
11
0.938125
21
0.0552424
0
LINE
8
BLACK
6
CONTINUOUS
10
0.938125
20
0.0552424
11
0.937301
21
0.0558533
0
LINE
8
BLACK
6
CONTINUOUS
10
0.937301
20
0.0558533
11
0.937125
21
0.056259
0
LINE
8
BLACK
6
CONTINUOUS
10
0.937125
20
0.056259
11
0.936804
21
0.0565629
0
LINE
8
BLACK
6
CONTINUOUS
10
0.936804
20
0.0565629
11
0.934929
21
0.0603124
0
LINE
8
BLACK
6
CONTINUOUS
10
0.934929
20
0.0603124
11
0.934637
21
0.0612954
0
LINE
8
BLACK
6
CONTINUOUS
10
0.934637
20
0.0612954
11
0.934678
21
0.061467
0
LINE
8
BLACK
6
CONTINUOUS
10
0.934678
20
0.061467
11
0.934618
21
0.061633
0
LINE
8
BLACK
6
CONTINUOUS
10
0.934618
20
0.061633
11
0.934618
21
0.0953787
0
LINE
8
BLACK
6
CONTINUOUS
10
0.934618
20
0.0953787
11
0.934796
21
0.0963887
0
LINE
8
BLACK
6
CONTINUOUS
10
0.934796
20
0.0963887
11
0.936094
21
0.0979359
0
LINE
8
BLACK
6
CONTINUOUS
10
0.936094
20
0.0979359
11
0.938083
21
0.0982867
0
LINE
8
BLACK
6
CONTINUOUS
10
0.938083
20
0.0982867
11
0.939832
21
0.0972767
0
LINE
8
BLACK
6
CONTINUOUS
10
0.81609
20
0.0982632
11
0.816223
21
0.0982867
0
LINE
8
BLACK
6
CONTINUOUS
10
0.816223
20
0.0982867
11
0.81634
21
0.0982191
0
LINE
8
BLACK
6
CONTINUOUS
10
0.81634
20
0.0982191
11
0.816475
21
0.0982309
0
LINE
8
BLACK
6
CONTINUOUS
10
0.816475
20
0.0982309
11
0.817103
21
0.0977908
0
LINE
8
BLACK
6
CONTINUOUS
10
0.817103
20
0.0977908
11
0.817798
21
0.0974666
0
LINE
8
BLACK
6
CONTINUOUS
10
0.817798
20
0.0974666
11
0.819673
21
0.0955919
0
LINE
8
BLACK
6
CONTINUOUS
10
0.819673
20
0.0955919
11
0.819897
21
0.0952728
0
LINE
8
BLACK
6
CONTINUOUS
10
0.819897
20
0.0952728
11
0.820004
21
0.0951976
0
LINE
8
BLACK
6
CONTINUOUS
10
0.820004
20
0.0951976
11
0.820038
21
0.0950708
0
LINE
8
BLACK
6
CONTINUOUS
10
0.820038
20
0.0950708
11
0.820261
21
0.0947518
0
LINE
8
BLACK
6
CONTINUOUS
10
0.820261
20
0.0947518
11
0.820328
21
0.0939875
0
LINE
8
BLACK
6
CONTINUOUS
10
0.820328
20
0.0939875
11
0.820527
21
0.0932466
0
LINE
8
BLACK
6
CONTINUOUS
10
0.820527
20
0.0932466
11
0.820414
21
0.0930051
0
LINE
8
BLACK
6
CONTINUOUS
10
0.820414
20
0.0930051
11
0.820437
21
0.0927397
0
LINE
8
BLACK
6
CONTINUOUS
10
0.820437
20
0.0927397
11
0.819997
21
0.0921113
0
LINE
8
BLACK
6
CONTINUOUS
10
0.819997
20
0.0921113
11
0.819673
21
0.091416
0
LINE
8
BLACK
6
CONTINUOUS
10
0.819673
20
0.091416
11
0.817798
21
0.0895413
0
LINE
8
BLACK
6
CONTINUOUS
10
0.817798
20
0.0895413
11
0.817479
21
0.0893179
0
LINE
8
BLACK
6
CONTINUOUS
10
0.817479
20
0.0893179
11
0.817404
21
0.0892104
0
LINE
8
BLACK
6
CONTINUOUS
10
0.817404
20
0.0892104
11
0.817277
21
0.0891764
0
LINE
8
BLACK
6
CONTINUOUS
10
0.817277
20
0.0891764
11
0.81727
21
0.0891716
0
LINE
8
BLACK
6
CONTINUOUS
10
0.81727
20
0.0891716
11
0.817187
21
0.089072
0
LINE
8
BLACK
6
CONTINUOUS
10
0.817187
20
0.089072
11
0.817109
21
0.0890582
0
LINE
8
BLACK
6
CONTINUOUS
10
0.817109
20
0.0890582
11
0.816958
21
0.0889531
0
LINE
8
BLACK
6
CONTINUOUS
10
0.816958
20
0.0889531
11
0.816194
21
0.0888862
0
LINE
8
BLACK
6
CONTINUOUS
10
0.816194
20
0.0888862
11
0.815453
21
0.0886877
0
LINE
8
BLACK
6
CONTINUOUS
10
0.815453
20
0.0886877
11
0.815331
21
0.0887447
0
LINE
8
BLACK
6
CONTINUOUS
10
0.815331
20
0.0887447
11
0.815198
21
0.0887213
0
LINE
8
BLACK
6
CONTINUOUS
10
0.815198
20
0.0887213
11
0.815081
21
0.0887888
0
LINE
8
BLACK
6
CONTINUOUS
10
0.815081
20
0.0887888
11
0.814946
21
0.088777
0
LINE
8
BLACK
6
CONTINUOUS
10
0.814946
20
0.088777
11
0.814318
21
0.0892171
0
LINE
8
BLACK
6
CONTINUOUS
10
0.814318
20
0.0892171
11
0.813623
21
0.0895413
0
LINE
8
BLACK
6
CONTINUOUS
10
0.813623
20
0.0895413
11
0.811748
21
0.091416
0
LINE
8
BLACK
6
CONTINUOUS
10
0.811748
20
0.091416
11
0.811524
21
0.091735
0
LINE
8
BLACK
6
CONTINUOUS
10
0.811524
20
0.091735
11
0.811417
21
0.0918103
0
LINE
8
BLACK
6
CONTINUOUS
10
0.811417
20
0.0918103
11
0.811383
21
0.0919371
0
LINE
8
BLACK
6
CONTINUOUS
10
0.811383
20
0.0919371
11
0.81116
21
0.0922561
0
LINE
8
BLACK
6
CONTINUOUS
10
0.81116
20
0.0922561
11
0.811093
21
0.0930203
0
LINE
8
BLACK
6
CONTINUOUS
10
0.811093
20
0.0930203
11
0.810894
21
0.0937613
0
LINE
8
BLACK
6
CONTINUOUS
10
0.810894
20
0.0937613
11
0.811007
21
0.0940027
0
LINE
8
BLACK
6
CONTINUOUS
10
0.811007
20
0.0940027
11
0.810984
21
0.0942681
0
LINE
8
BLACK
6
CONTINUOUS
10
0.810984
20
0.0942681
11
0.811424
21
0.0948966
0
LINE
8
BLACK
6
CONTINUOUS
10
0.811424
20
0.0948966
11
0.811748
21
0.0955918
0
LINE
8
BLACK
6
CONTINUOUS
10
0.811748
20
0.0955918
11
0.813623
21
0.0974666
0
LINE
8
BLACK
6
CONTINUOUS
10
0.813623
20
0.0974666
11
0.813942
21
0.09769
0
LINE
8
BLACK
6
CONTINUOUS
10
0.813942
20
0.09769
11
0.814017
21
0.0977975
0
LINE
8
BLACK
6
CONTINUOUS
10
0.814017
20
0.0977975
11
0.814144
21
0.0978315
0
LINE
8
BLACK
6
CONTINUOUS
10
0.814144
20
0.0978315
11
0.814151
21
0.0978364
0
LINE
8
BLACK
6
CONTINUOUS
10
0.814151
20
0.0978364
11
0.814234
21
0.0979359
0
LINE
8
BLACK
6
CONTINUOUS
10
0.814234
20
0.0979359
11
0.814312
21
0.0979497
0
LINE
8
BLACK
6
CONTINUOUS
10
0.814312
20
0.0979497
11
0.814463
21
0.0980548
0
LINE
8
BLACK
6
CONTINUOUS
10
0.814463
20
0.0980548
11
0.815227
21
0.0981217
0
LINE
8
BLACK
6
CONTINUOUS
10
0.815227
20
0.0981217
11
0.815968
21
0.0983202
0
LINE
8
BLACK
6
CONTINUOUS
10
0.815968
20
0.0983202
11
0.81609
21
0.0982632
0
LINE
8
BLACK
6
CONTINUOUS
10
1.01669
20
0.0982632
11
1.01682
21
0.0982867
0
LINE
8
BLACK
6
CONTINUOUS
10
1.01682
20
0.0982867
11
1.01694
21
0.0982191
0
LINE
8
BLACK
6
CONTINUOUS
10
1.01694
20
0.0982191
11
1.01707
21
0.0982309
0
LINE
8
BLACK
6
CONTINUOUS
10
1.01707
20
0.0982309
11
1.0177
21
0.0977908
0
LINE
8
BLACK
6
CONTINUOUS
10
1.0177
20
0.0977908
11
1.0184
21
0.0974666
0
LINE
8
BLACK
6
CONTINUOUS
10
1.0184
20
0.0974666
11
1.02027
21
0.0955919
0
LINE
8
BLACK
6
CONTINUOUS
10
1.02027
20
0.0955919
11
1.0205
21
0.0952728
0
LINE
8
BLACK
6
CONTINUOUS
10
1.0205
20
0.0952728
11
1.0206
21
0.0951976
0
LINE
8
BLACK
6
CONTINUOUS
10
1.0206
20
0.0951976
11
1.02064
21
0.0950708
0
LINE
8
BLACK
6
CONTINUOUS
10
1.02064
20
0.0950708
11
1.02086
21
0.0947518
0
LINE
8
BLACK
6
CONTINUOUS
10
1.02086
20
0.0947518
11
1.02093
21
0.0939875
0
LINE
8
BLACK
6
CONTINUOUS
10
1.02093
20
0.0939875
11
1.02113
21
0.0932466
0
LINE
8
BLACK
6
CONTINUOUS
10
1.02113
20
0.0932466
11
1.02101
21
0.0930051
0
LINE
8
BLACK
6
CONTINUOUS
10
1.02101
20
0.0930051
11
1.02104
21
0.0927397
0
LINE
8
BLACK
6
CONTINUOUS
10
1.02104
20
0.0927397
11
1.0206
21
0.0921113
0
LINE
8
BLACK
6
CONTINUOUS
10
1.0206
20
0.0921113
11
1.02027
21
0.091416
0
LINE
8
BLACK
6
CONTINUOUS
10
1.02027
20
0.091416
11
1.0184
21
0.0895413
0
LINE
8
BLACK
6
CONTINUOUS
10
1.0184
20
0.0895413
11
1.01808
21
0.0893179
0
LINE
8
BLACK
6
CONTINUOUS
10
1.01808
20
0.0893179
11
1.018
21
0.0892104
0
LINE
8
BLACK
6
CONTINUOUS
10
1.018
20
0.0892104
11
1.01788
21
0.0891764
0
LINE
8
BLACK
6
CONTINUOUS
10
1.01788
20
0.0891764
11
1.01787
21
0.0891716
0
LINE
8
BLACK
6
CONTINUOUS
10
1.01787
20
0.0891716
11
1.01779
21
0.089072
0
LINE
8
BLACK
6
CONTINUOUS
10
1.01779
20
0.089072
11
1.01771
21
0.0890582
0
LINE
8
BLACK
6
CONTINUOUS
10
1.01771
20
0.0890582
11
1.01756
21
0.0889531
0
LINE
8
BLACK
6
CONTINUOUS
10
1.01756
20
0.0889531
11
1.01679
21
0.0888862
0
LINE
8
BLACK
6
CONTINUOUS
10
1.01679
20
0.0888862
11
1.01605
21
0.0886877
0
LINE
8
BLACK
6
CONTINUOUS
10
1.01605
20
0.0886877
11
1.01593
21
0.0887447
0
LINE
8
BLACK
6
CONTINUOUS
10
1.01593
20
0.0887447
11
1.0158
21
0.0887213
0
LINE
8
BLACK
6
CONTINUOUS
10
1.0158
20
0.0887213
11
1.01568
21
0.0887888
0
LINE
8
BLACK
6
CONTINUOUS
10
1.01568
20
0.0887888
11
1.01555
21
0.088777
0
LINE
8
BLACK
6
CONTINUOUS
10
1.01555
20
0.088777
11
1.01492
21
0.0892171
0
LINE
8
BLACK
6
CONTINUOUS
10
1.01492
20
0.0892171
11
1.01422
21
0.0895413
0
LINE
8
BLACK
6
CONTINUOUS
10
1.01422
20
0.0895413
11
1.01235
21
0.091416
0
LINE
8
BLACK
6
CONTINUOUS
10
1.01235
20
0.091416
11
1.01212
21
0.091735
0
LINE
8
BLACK
6
CONTINUOUS
10
1.01212
20
0.091735
11
1.01202
21
0.0918103
0
LINE
8
BLACK
6
CONTINUOUS
10
1.01202
20
0.0918103
11
1.01198
21
0.0919371
0
LINE
8
BLACK
6
CONTINUOUS
10
1.01198
20
0.0919371
11
1.01176
21
0.0922561
0
LINE
8
BLACK
6
CONTINUOUS
10
1.01176
20
0.0922561
11
1.01169
21
0.0930203
0
LINE
8
BLACK
6
CONTINUOUS
10
1.01169
20
0.0930203
11
1.01149
21
0.0937613
0
LINE
8
BLACK
6
CONTINUOUS
10
1.01149
20
0.0937613
11
1.01161
21
0.0940027
0
LINE
8
BLACK
6
CONTINUOUS
10
1.01161
20
0.0940027
11
1.01158
21
0.0942681
0
LINE
8
BLACK
6
CONTINUOUS
10
1.01158
20
0.0942681
11
1.01202
21
0.0948966
0
LINE
8
BLACK
6
CONTINUOUS
10
1.01202
20
0.0948966
11
1.01235
21
0.0955918
0
LINE
8
BLACK
6
CONTINUOUS
10
1.01235
20
0.0955918
11
1.01422
21
0.0974666
0
LINE
8
BLACK
6
CONTINUOUS
10
1.01422
20
0.0974666
11
1.01454
21
0.09769
0
LINE
8
BLACK
6
CONTINUOUS
10
1.01454
20
0.09769
11
1.01462
21
0.0977975
0
LINE
8
BLACK
6
CONTINUOUS
10
1.01462
20
0.0977975
11
1.01474
21
0.0978315
0
LINE
8
BLACK
6
CONTINUOUS
10
1.01474
20
0.0978315
11
1.01475
21
0.0978364
0
LINE
8
BLACK
6
CONTINUOUS
10
1.01475
20
0.0978364
11
1.01483
21
0.0979359
0
LINE
8
BLACK
6
CONTINUOUS
10
1.01483
20
0.0979359
11
1.01491
21
0.0979497
0
LINE
8
BLACK
6
CONTINUOUS
10
1.01491
20
0.0979497
11
1.01506
21
0.0980548
0
LINE
8
BLACK
6
CONTINUOUS
10
1.01506
20
0.0980548
11
1.01583
21
0.0981217
0
LINE
8
BLACK
6
CONTINUOUS
10
1.01583
20
0.0981217
11
1.01657
21
0.0983202
0
LINE
8
BLACK
6
CONTINUOUS
10
1.01657
20
0.0983202
11
1.01669
21
0.0982632
0
LINE
8
BLACK
6
CONTINUOUS
10
0.0123876
20
0.131482
11
0.011811
21
0.132874
0
LINE
8
BLACK
6
CONTINUOUS
10
0.011811
20
0.132874
11
0.011811
21
0.457677
0
LINE
8
BLACK
6
CONTINUOUS
10
0.011811
20
0.457677
11
0.0123876
21
0.459069
0
LINE
8
BLACK
6
CONTINUOUS
10
0.0123876
20
0.459069
11
0.0137795
21
0.459646
0
LINE
8
BLACK
6
CONTINUOUS
10
0.0137795
20
0.459646
11
0.173228
21
0.459646
0
LINE
8
BLACK
6
CONTINUOUS
10
0.173228
20
0.459646
11
0.17462
21
0.459069
0
LINE
8
BLACK
6
CONTINUOUS
10
0.17462
20
0.459069
11
0.175197
21
0.457677
0
LINE
8
BLACK
6
CONTINUOUS
10
0.175197
20
0.457677
11
0.175197
21
0.132874
0
LINE
8
BLACK
6
CONTINUOUS
10
0.175197
20
0.132874
11
0.17462
21
0.131482
0
LINE
8
BLACK
6
CONTINUOUS
10
0.17462
20
0.131482
11
0.173228
21
0.130906
0
LINE
8
BLACK
6
CONTINUOUS
10
0.173228
20
0.130906
11
0.0137795
21
0.130906
0
LINE
8
BLACK
6
CONTINUOUS
10
0.0137795
20
0.130906
11
0.0123876
21
0.131482
0
LINE
8
BLACK
6
CONTINUOUS
10
0.015748
20
0.455709
11
0.015748
21
0.134843
0
LINE
8
BLACK
6
CONTINUOUS
10
0.015748
20
0.134843
11
0.17126
21
0.134843
0
LINE
8
BLACK
6
CONTINUOUS
10
0.17126
20
0.134843
11
0.17126
21
0.34839
0
LINE
8
BLACK
6
CONTINUOUS
10
0.17126
20
0.34839
11
0.144253
21
0.367487
0
LINE
8
BLACK
6
CONTINUOUS
10
0.144253
20
0.367487
11
0.144071
21
0.367776
0
LINE
8
BLACK
6
CONTINUOUS
10
0.144071
20
0.367776
11
0.143782
21
0.367958
0
LINE
8
BLACK
6
CONTINUOUS
10
0.143782
20
0.367958
11
0.143685
21
0.368388
0
LINE
8
BLACK
6
CONTINUOUS
10
0.143685
20
0.368388
11
0.143449
21
0.368762
0
LINE
8
BLACK
6
CONTINUOUS
10
0.143449
20
0.368762
11
0.143525
21
0.369094
0
LINE
8
BLACK
6
CONTINUOUS
10
0.143525
20
0.369094
11
0.143449
21
0.369427
0
LINE
8
BLACK
6
CONTINUOUS
10
0.143449
20
0.369427
11
0.143685
21
0.369801
0
LINE
8
BLACK
6
CONTINUOUS
10
0.143685
20
0.369801
11
0.143782
21
0.370231
0
LINE
8
BLACK
6
CONTINUOUS
10
0.143782
20
0.370231
11
0.144071
21
0.370413
0
LINE
8
BLACK
6
CONTINUOUS
10
0.144071
20
0.370413
11
0.144253
21
0.370702
0
LINE
8
BLACK
6
CONTINUOUS
10
0.144253
20
0.370702
11
0.17126
21
0.389799
0
LINE
8
BLACK
6
CONTINUOUS
10
0.17126
20
0.389799
11
0.17126
21
0.455709
0
LINE
8
BLACK
6
CONTINUOUS
10
0.17126
20
0.455709
11
0.015748
21
0.455709
0
LINE
8
BLACK
6
CONTINUOUS
10
0.148799
20
0.369094
11
0.17126
21
0.353212
0
LINE
8
BLACK
6
CONTINUOUS
10
0.17126
20
0.353212
11
0.17126
21
0.384977
0
LINE
8
BLACK
6
CONTINUOUS
10
0.17126
20
0.384977
11
0.148799
21
0.369094
0
LINE
8
BLACK
6
CONTINUOUS
10
0.117667
20
0.284952
11
0.117732
21
0.284953
0
LINE
8
BLACK
6
CONTINUOUS
10
0.117732
20
0.284953
11
0.123356
21
0.283079
0
LINE
8
BLACK
6
CONTINUOUS
10
0.123356
20
0.283079
11
0.124258
21
0.28259
0
LINE
8
BLACK
6
CONTINUOUS
10
0.124258
20
0.28259
11
0.12435
21
0.28244
0
LINE
8
BLACK
6
CONTINUOUS
10
0.12435
20
0.28244
11
0.12451
21
0.282365
0
LINE
8
BLACK
6
CONTINUOUS
10
0.12451
20
0.282365
11
0.12826
21
0.278616
0
LINE
8
BLACK
6
CONTINUOUS
10
0.12826
20
0.278616
11
0.128848
21
0.277776
0
LINE
8
BLACK
6
CONTINUOUS
10
0.128848
20
0.277776
11
0.128863
21
0.2776
0
LINE
8
BLACK
6
CONTINUOUS
10
0.128863
20
0.2776
11
0.128973
21
0.277462
0
LINE
8
BLACK
6
CONTINUOUS
10
0.128973
20
0.277462
11
0.130848
21
0.271837
0
LINE
8
BLACK
6
CONTINUOUS
10
0.130848
20
0.271837
11
0.130977
21
0.270964
0
LINE
8
BLACK
6
CONTINUOUS
10
0.130977
20
0.270964
11
0.130999
21
0.270904
0
LINE
8
BLACK
6
CONTINUOUS
10
0.130999
20
0.270904
11
0.130999
21
0.267154
0
LINE
8
BLACK
6
CONTINUOUS
10
0.130999
20
0.267154
11
0.130821
21
0.266144
0
LINE
8
BLACK
6
CONTINUOUS
10
0.130821
20
0.266144
11
0.129523
21
0.264597
0
LINE
8
BLACK
6
CONTINUOUS
10
0.129523
20
0.264597
11
0.127534
21
0.264246
0
LINE
8
BLACK
6
CONTINUOUS
10
0.127534
20
0.264246
11
0.125785
21
0.265256
0
LINE
8
BLACK
6
CONTINUOUS
10
0.125785
20
0.265256
11
0.125094
21
0.267154
0
LINE
8
BLACK
6
CONTINUOUS
10
0.125094
20
0.267154
11
0.125094
21
0.270425
0
LINE
8
BLACK
6
CONTINUOUS
10
0.125094
20
0.270425
11
0.123591
21
0.274933
0
LINE
8
BLACK
6
CONTINUOUS
10
0.123591
20
0.274933
11
0.120827
21
0.277697
0
LINE
8
BLACK
6
CONTINUOUS
10
0.120827
20
0.277697
11
0.116319
21
0.279199
0
LINE
8
BLACK
6
CONTINUOUS
10
0.116319
20
0.279199
11
0.0886764
21
0.279199
0
LINE
8
BLACK
6
CONTINUOUS
10
0.0886764
20
0.279199
11
0.0876665
21
0.279378
0
LINE
8
BLACK
6
CONTINUOUS
10
0.0876665
20
0.279378
11
0.0861192
21
0.280676
0
LINE
8
BLACK
6
CONTINUOUS
10
0.0861192
20
0.280676
11
0.0857685
21
0.282665
0
LINE
8
BLACK
6
CONTINUOUS
10
0.0857685
20
0.282665
11
0.0867784
21
0.284414
0
LINE
8
BLACK
6
CONTINUOUS
10
0.0867784
20
0.284414
11
0.0886764
21
0.285105
0
LINE
8
BLACK
6
CONTINUOUS
10
0.0886764
20
0.285105
11
0.116798
21
0.285105
0
LINE
8
BLACK
6
CONTINUOUS
10
0.116798
20
0.285105
11
0.117667
21
0.284952
0
LINE
8
BLACK
6
CONTINUOUS
10
0.100794
20
0.324322
11
0.100859
21
0.324324
0
LINE
8
BLACK
6
CONTINUOUS
10
0.100859
20
0.324324
11
0.106483
21
0.322449
0
LINE
8
BLACK
6
CONTINUOUS
10
0.106483
20
0.322449
11
0.107385
21
0.321961
0
LINE
8
BLACK
6
CONTINUOUS
10
0.107385
20
0.321961
11
0.107477
21
0.32181
0
LINE
8
BLACK
6
CONTINUOUS
10
0.107477
20
0.32181
11
0.107637
21
0.321735
0
LINE
8
BLACK
6
CONTINUOUS
10
0.107637
20
0.321735
11
0.125094
21
0.304279
0
LINE
8
BLACK
6
CONTINUOUS
10
0.125094
20
0.304279
11
0.125094
21
0.321522
0
LINE
8
BLACK
6
CONTINUOUS
10
0.125094
20
0.321522
11
0.125272
21
0.322532
0
LINE
8
BLACK
6
CONTINUOUS
10
0.125272
20
0.322532
11
0.12657
21
0.324079
0
LINE
8
BLACK
6
CONTINUOUS
10
0.12657
20
0.324079
11
0.128559
21
0.32443
0
LINE
8
BLACK
6
CONTINUOUS
10
0.128559
20
0.32443
11
0.130308
21
0.32342
0
LINE
8
BLACK
6
CONTINUOUS
10
0.130308
20
0.32342
11
0.130999
21
0.321522
0
LINE
8
BLACK
6
CONTINUOUS
10
0.130999
20
0.321522
11
0.130999
21
0.29715
0
LINE
8
BLACK
6
CONTINUOUS
10
0.130999
20
0.29715
11
0.130887
21
0.296516
0
LINE
8
BLACK
6
CONTINUOUS
10
0.130887
20
0.296516
11
0.130899
21
0.296386
0
LINE
8
BLACK
6
CONTINUOUS
10
0.130899
20
0.296386
11
0.130853
21
0.296321
0
LINE
8
BLACK
6
CONTINUOUS
10
0.130853
20
0.296321
11
0.130821
21
0.29614
0
LINE
8
BLACK
6
CONTINUOUS
10
0.130821
20
0.29614
11
0.13025
21
0.29546
0
LINE
8
BLACK
6
CONTINUOUS
10
0.13025
20
0.29546
11
0.12974
21
0.294732
0
LINE
8
BLACK
6
CONTINUOUS
10
0.12974
20
0.294732
11
0.12961
21
0.294697
0
LINE
8
BLACK
6
CONTINUOUS
10
0.12961
20
0.294697
11
0.129523
21
0.294593
0
LINE
8
BLACK
6
CONTINUOUS
10
0.129523
20
0.294593
11
0.128647
21
0.294439
0
LINE
8
BLACK
6
CONTINUOUS
10
0.128647
20
0.294439
11
0.127789
21
0.294209
0
LINE
8
BLACK
6
CONTINUOUS
10
0.127789
20
0.294209
11
0.127667
21
0.294266
0
LINE
8
BLACK
6
CONTINUOUS
10
0.127667
20
0.294266
11
0.127534
21
0.294242
0
LINE
8
BLACK
6
CONTINUOUS
10
0.127534
20
0.294242
11
0.126764
21
0.294687
0
LINE
8
BLACK
6
CONTINUOUS
10
0.126764
20
0.294687
11
0.125959
21
0.295062
0
LINE
8
BLACK
6
CONTINUOUS
10
0.125959
20
0.295062
11
0.103954
21
0.317067
0
LINE
8
BLACK
6
CONTINUOUS
10
0.103954
20
0.317067
11
0.0994459
21
0.31857
0
LINE
8
BLACK
6
CONTINUOUS
10
0.0994459
20
0.31857
11
0.0968725
21
0.31857
0
LINE
8
BLACK
6
CONTINUOUS
10
0.0968725
20
0.31857
11
0.094175
21
0.317221
0
LINE
8
BLACK
6
CONTINUOUS
10
0.094175
20
0.317221
11
0.0929779
21
0.316024
0
LINE
8
BLACK
6
CONTINUOUS
10
0.0929779
20
0.316024
11
0.0916291
21
0.313326
0
LINE
8
BLACK
6
CONTINUOUS
10
0.0916291
20
0.313326
11
0.0916291
21
0.305347
0
LINE
8
BLACK
6
CONTINUOUS
10
0.0916291
20
0.305347
11
0.0929779
21
0.302649
0
LINE
8
BLACK
6
CONTINUOUS
10
0.0929779
20
0.302649
11
0.0945139
21
0.301113
0
LINE
8
BLACK
6
CONTINUOUS
10
0.0945139
20
0.301113
11
0.095102
21
0.300273
0
LINE
8
BLACK
6
CONTINUOUS
10
0.095102
20
0.300273
11
0.0952781
21
0.298261
0
LINE
8
BLACK
6
CONTINUOUS
10
0.0952781
20
0.298261
11
0.0941196
21
0.296606
0
LINE
8
BLACK
6
CONTINUOUS
10
0.0941196
20
0.296606
11
0.0921686
21
0.296084
0
LINE
8
BLACK
6
CONTINUOUS
10
0.0921686
20
0.296084
11
0.090338
21
0.296937
0
LINE
8
BLACK
6
CONTINUOUS
10
0.090338
20
0.296937
11
0.0884633
21
0.298812
0
LINE
8
BLACK
6
CONTINUOUS
10
0.0884633
20
0.298812
11
0.087957
21
0.299535
0
LINE
8
BLACK
6
CONTINUOUS
10
0.087957
20
0.299535
11
0.0879102
21
0.299579
0
LINE
8
BLACK
6
CONTINUOUS
10
0.0879102
20
0.299579
11
0.0860354
21
0.303329
0
LINE
8
BLACK
6
CONTINUOUS
10
0.0860354
20
0.303329
11
0.085743
21
0.304312
0
LINE
8
BLACK
6
CONTINUOUS
10
0.085743
20
0.304312
11
0.085784
21
0.304484
0
LINE
8
BLACK
6
CONTINUOUS
10
0.085784
20
0.304484
11
0.0857236
21
0.304649
0
LINE
8
BLACK
6
CONTINUOUS
10
0.0857236
20
0.304649
11
0.0857236
21
0.314023
0
LINE
8
BLACK
6
CONTINUOUS
10
0.0857236
20
0.314023
11
0.0859017
21
0.315033
0
LINE
8
BLACK
6
CONTINUOUS
10
0.0859017
20
0.315033
11
0.0860152
21
0.315168
0
LINE
8
BLACK
6
CONTINUOUS
10
0.0860152
20
0.315168
11
0.0860354
21
0.315344
0
LINE
8
BLACK
6
CONTINUOUS
10
0.0860354
20
0.315344
11
0.0879102
21
0.319093
0
LINE
8
BLACK
6
CONTINUOUS
10
0.0879102
20
0.319093
11
0.0884361
21
0.319802
0
LINE
8
BLACK
6
CONTINUOUS
10
0.0884361
20
0.319802
11
0.0884633
21
0.319861
0
LINE
8
BLACK
6
CONTINUOUS
10
0.0884633
20
0.319861
11
0.090338
21
0.321735
0
LINE
8
BLACK
6
CONTINUOUS
10
0.090338
20
0.321735
11
0.0910611
21
0.322242
0
LINE
8
BLACK
6
CONTINUOUS
10
0.0910611
20
0.322242
11
0.0911054
21
0.322289
0
LINE
8
BLACK
6
CONTINUOUS
10
0.0911054
20
0.322289
11
0.094855
21
0.324163
0
LINE
8
BLACK
6
CONTINUOUS
10
0.094855
20
0.324163
11
0.0958379
21
0.324456
0
LINE
8
BLACK
6
CONTINUOUS
10
0.0958379
20
0.324456
11
0.0960096
21
0.324415
0
LINE
8
BLACK
6
CONTINUOUS
10
0.0960096
20
0.324415
11
0.0961755
21
0.324475
0
LINE
8
BLACK
6
CONTINUOUS
10
0.0961755
20
0.324475
11
0.099925
21
0.324475
0
LINE
8
BLACK
6
CONTINUOUS
10
0.099925
20
0.324475
11
0.100794
21
0.324322
  0
ENDSEC
  0
EOF
