  0
SECTION
  2
HEADER
  9
$ANGBASE
  50
0.0
  9
$ANGDIR
  70
1
  9
$MEASUREMENT
  70
0
  0
ENDSEC
  0
SECTION
  2
TABLES
  0
TABLE
  2
LTYPE
  70
4
  0
LTYPE
  5
40F
  2
CONTINUOUS
  70
0
  3
Solid line
  72
65
  73
0
  40
0.0
  0
LTYPE
  5
410
  2
DASHDOT
 70
0
  3
Dash Dot ____ _ ____ _
 72
65
 73
4
 40
2.0
 49
1.25
 49
-0.25
 49
0.25
 49
-0.25
  0
LTYPE
  5
411
  2
DASHED
 70
0
  3
Dashed __ __ __ __ __
 72
65
 73
2
 40
0.75
 49
0.5
 49
-0.25
  0
LTYPE
  5
43B
  2
DOTTED
 70
0
  3
Dotted .  .  .  .
 72
65
 73
2
 40
0.2
 49
0.0
 49
-0.2
  0
ENDTAB
  0
TABLE
  2
STYLE
  70
4
  0
STYLE
  2
KICAD
  70
0
  40
0
  41
1
  42
1
  50
0
  71
0
  3
isocp.shx
  0
STYLE
  2
KICADB
  70
0
  40
0
  41
1
  42
1
  50
0
  71
0
  3
isocp.shx
  0
STYLE
  2
KICADI
  70
0
  40
0
  41
1
  42
1
  50
15
  71
0
  3
isocp.shx
  0
STYLE
  2
KICADBI
  70
0
  40
0
  41
1
  42
1
  50
15
  71
0
  3
isocp.shx
  0
ENDTAB
  0
TABLE
  2
LAYER
  70
1
  0
LAYER
  2
BLACK
  70
0
  62
7
  6
CONTINUOUS
  0
ENDTAB
  0
ENDSEC
  0
SECTION
  2
ENTITIES
0
LINE
8
BLACK
6
CONTINUOUS
10
-4.04544
20
5.5637
11
-4.04466
21
5.5637
0
LINE
8
BLACK
6
CONTINUOUS
10
-4.04466
20
5.5637
11
-4.04399
21
5.56332
0
LINE
8
BLACK
6
CONTINUOUS
10
-4.04399
20
5.56332
11
-4.04324
21
5.56311
0
LINE
8
BLACK
6
CONTINUOUS
10
-4.04324
20
5.56311
11
-4.04269
21
5.56256
0
LINE
8
BLACK
6
CONTINUOUS
10
-4.04269
20
5.56256
11
-4.04201
21
5.56218
0
LINE
8
BLACK
6
CONTINUOUS
10
-4.04201
20
5.56218
11
-4.00603
21
5.52619
0
LINE
8
BLACK
6
CONTINUOUS
10
-4.00603
20
5.52619
11
-4.00487
21
5.52679
0
LINE
8
BLACK
6
CONTINUOUS
10
-4.00487
20
5.52679
11
-4
21
5.52756
0
LINE
8
BLACK
6
CONTINUOUS
10
-4
20
5.52756
11
-3.99513
21
5.52679
0
LINE
8
BLACK
6
CONTINUOUS
10
-3.99513
20
5.52679
11
-3.99074
21
5.52455
0
LINE
8
BLACK
6
CONTINUOUS
10
-3.99074
20
5.52455
11
-3.98726
21
5.52107
0
LINE
8
BLACK
6
CONTINUOUS
10
-3.98726
20
5.52107
11
-3.98502
21
5.51668
0
LINE
8
BLACK
6
CONTINUOUS
10
-3.98502
20
5.51668
11
-3.98425
21
5.51181
0
LINE
8
BLACK
6
CONTINUOUS
10
-3.98425
20
5.51181
11
-3.98502
21
5.50694
0
LINE
8
BLACK
6
CONTINUOUS
10
-3.98502
20
5.50694
11
-3.98726
21
5.50255
0
LINE
8
BLACK
6
CONTINUOUS
10
-3.98726
20
5.50255
11
-3.99074
21
5.49907
0
LINE
8
BLACK
6
CONTINUOUS
10
-3.99074
20
5.49907
11
-3.99513
21
5.49683
0
LINE
8
BLACK
6
CONTINUOUS
10
-3.99513
20
5.49683
11
-4
21
5.49606
0
LINE
8
BLACK
6
CONTINUOUS
10
-4
20
5.49606
11
-4.00487
21
5.49683
0
LINE
8
BLACK
6
CONTINUOUS
10
-4.00487
20
5.49683
11
-4.00926
21
5.49907
0
LINE
8
BLACK
6
CONTINUOUS
10
-4.00926
20
5.49907
11
-4.01274
21
5.50255
0
LINE
8
BLACK
6
CONTINUOUS
10
-4.01274
20
5.50255
11
-4.01498
21
5.50694
0
LINE
8
BLACK
6
CONTINUOUS
10
-4.01498
20
5.50694
11
-4.01575
21
5.51181
0
LINE
8
BLACK
6
CONTINUOUS
10
-4.01575
20
5.51181
11
-4.01498
21
5.51668
0
LINE
8
BLACK
6
CONTINUOUS
10
-4.01498
20
5.51668
11
-4.01438
21
5.51784
0
LINE
8
BLACK
6
CONTINUOUS
10
-4.01438
20
5.51784
11
-4.04864
21
5.55209
0
LINE
8
BLACK
6
CONTINUOUS
10
-4.04864
20
5.55209
11
-4.25455
21
5.55209
0
LINE
8
BLACK
6
CONTINUOUS
10
-4.25455
20
5.55209
11
-4.26562
21
5.54103
0
LINE
8
BLACK
6
CONTINUOUS
10
-4.26562
20
5.54103
11
-4.26502
21
5.53987
0
LINE
8
BLACK
6
CONTINUOUS
10
-4.26502
20
5.53987
11
-4.26425
21
5.535
0
LINE
8
BLACK
6
CONTINUOUS
10
-4.26425
20
5.535
11
-4.26502
21
5.53013
0
LINE
8
BLACK
6
CONTINUOUS
10
-4.26502
20
5.53013
11
-4.26726
21
5.52574
0
LINE
8
BLACK
6
CONTINUOUS
10
-4.26726
20
5.52574
11
-4.27074
21
5.52226
0
LINE
8
BLACK
6
CONTINUOUS
10
-4.27074
20
5.52226
11
-4.27513
21
5.52002
0
LINE
8
BLACK
6
CONTINUOUS
10
-4.27513
20
5.52002
11
-4.28
21
5.51925
0
LINE
8
BLACK
6
CONTINUOUS
10
-4.28
20
5.51925
11
-4.28487
21
5.52002
0
LINE
8
BLACK
6
CONTINUOUS
10
-4.28487
20
5.52002
11
-4.28926
21
5.52226
0
LINE
8
BLACK
6
CONTINUOUS
10
-4.28926
20
5.52226
11
-4.29274
21
5.52574
0
LINE
8
BLACK
6
CONTINUOUS
10
-4.29274
20
5.52574
11
-4.29498
21
5.53013
0
LINE
8
BLACK
6
CONTINUOUS
10
-4.29498
20
5.53013
11
-4.29575
21
5.535
0
LINE
8
BLACK
6
CONTINUOUS
10
-4.29575
20
5.535
11
-4.29498
21
5.53987
0
LINE
8
BLACK
6
CONTINUOUS
10
-4.29498
20
5.53987
11
-4.29274
21
5.54426
0
LINE
8
BLACK
6
CONTINUOUS
10
-4.29274
20
5.54426
11
-4.28926
21
5.54774
0
LINE
8
BLACK
6
CONTINUOUS
10
-4.28926
20
5.54774
11
-4.28487
21
5.54998
0
LINE
8
BLACK
6
CONTINUOUS
10
-4.28487
20
5.54998
11
-4.28
21
5.55075
0
LINE
8
BLACK
6
CONTINUOUS
10
-4.28
20
5.55075
11
-4.27513
21
5.54998
0
LINE
8
BLACK
6
CONTINUOUS
10
-4.27513
20
5.54998
11
-4.27397
21
5.54938
0
LINE
8
BLACK
6
CONTINUOUS
10
-4.27397
20
5.54938
11
-4.26118
21
5.56218
0
LINE
8
BLACK
6
CONTINUOUS
10
-4.26118
20
5.56218
11
-4.2605
21
5.56256
0
LINE
8
BLACK
6
CONTINUOUS
10
-4.2605
20
5.56256
11
-4.25995
21
5.56311
0
LINE
8
BLACK
6
CONTINUOUS
10
-4.25995
20
5.56311
11
-4.2592
21
5.56332
0
LINE
8
BLACK
6
CONTINUOUS
10
-4.2592
20
5.56332
11
-4.25853
21
5.5637
0
LINE
8
BLACK
6
CONTINUOUS
10
-4.25853
20
5.5637
11
-4.25775
21
5.5637
0
LINE
8
BLACK
6
CONTINUOUS
10
-4.25775
20
5.5637
11
-4.257
21
5.56391
0
LINE
8
BLACK
6
CONTINUOUS
10
-4.257
20
5.56391
11
-4.04619
21
5.56391
0
LINE
8
BLACK
6
CONTINUOUS
10
-4.04619
20
5.56391
11
-4.04544
21
5.5637
0
LINE
8
BLACK
6
CONTINUOUS
10
-4.05437
20
5.62032
11
-4.0537
21
5.62071
0
LINE
8
BLACK
6
CONTINUOUS
10
-4.0537
20
5.62071
11
-4.05315
21
5.62126
0
LINE
8
BLACK
6
CONTINUOUS
10
-4.05315
20
5.62126
11
-4.0524
21
5.62146
0
LINE
8
BLACK
6
CONTINUOUS
10
-4.0524
20
5.62146
11
-4.05173
21
5.62185
0
LINE
8
BLACK
6
CONTINUOUS
10
-4.05173
20
5.62185
11
-4.05095
21
5.62185
0
LINE
8
BLACK
6
CONTINUOUS
10
-4.05095
20
5.62185
11
-4.0502
21
5.62205
0
LINE
8
BLACK
6
CONTINUOUS
10
-4.0502
20
5.62205
11
-3.93898
21
5.62205
0
LINE
8
BLACK
6
CONTINUOUS
10
-3.93898
20
5.62205
11
-3.93823
21
5.62185
0
LINE
8
BLACK
6
CONTINUOUS
10
-3.93823
20
5.62185
11
-3.93745
21
5.62185
0
LINE
8
BLACK
6
CONTINUOUS
10
-3.93745
20
5.62185
11
-3.93677
21
5.62146
0
LINE
8
BLACK
6
CONTINUOUS
10
-3.93677
20
5.62146
11
-3.93602
21
5.62126
0
LINE
8
BLACK
6
CONTINUOUS
10
-3.93602
20
5.62126
11
-3.93547
21
5.62071
0
LINE
8
BLACK
6
CONTINUOUS
10
-3.93547
20
5.62071
11
-3.9348
21
5.62032
0
LINE
8
BLACK
6
CONTINUOUS
10
-3.9348
20
5.62032
11
-3.88595
21
5.57147
0
LINE
8
BLACK
6
CONTINUOUS
10
-3.88595
20
5.57147
11
-3.88479
21
5.57206
0
LINE
8
BLACK
6
CONTINUOUS
10
-3.88479
20
5.57206
11
-3.87992
21
5.57283
0
LINE
8
BLACK
6
CONTINUOUS
10
-3.87992
20
5.57283
11
-3.87505
21
5.57206
0
LINE
8
BLACK
6
CONTINUOUS
10
-3.87505
20
5.57206
11
-3.87066
21
5.56983
0
LINE
8
BLACK
6
CONTINUOUS
10
-3.87066
20
5.56983
11
-3.86718
21
5.56634
0
LINE
8
BLACK
6
CONTINUOUS
10
-3.86718
20
5.56634
11
-3.86494
21
5.56195
0
LINE
8
BLACK
6
CONTINUOUS
10
-3.86494
20
5.56195
11
-3.86417
21
5.55709
0
LINE
8
BLACK
6
CONTINUOUS
10
-3.86417
20
5.55709
11
-3.86494
21
5.55222
0
LINE
8
BLACK
6
CONTINUOUS
10
-3.86494
20
5.55222
11
-3.86718
21
5.54783
0
LINE
8
BLACK
6
CONTINUOUS
10
-3.86718
20
5.54783
11
-3.87066
21
5.54435
0
LINE
8
BLACK
6
CONTINUOUS
10
-3.87066
20
5.54435
11
-3.87505
21
5.54211
0
LINE
8
BLACK
6
CONTINUOUS
10
-3.87505
20
5.54211
11
-3.87992
21
5.54134
0
LINE
8
BLACK
6
CONTINUOUS
10
-3.87992
20
5.54134
11
-3.88479
21
5.54211
0
LINE
8
BLACK
6
CONTINUOUS
10
-3.88479
20
5.54211
11
-3.88918
21
5.54435
0
LINE
8
BLACK
6
CONTINUOUS
10
-3.88918
20
5.54435
11
-3.89266
21
5.54783
0
LINE
8
BLACK
6
CONTINUOUS
10
-3.89266
20
5.54783
11
-3.8949
21
5.55222
0
LINE
8
BLACK
6
CONTINUOUS
10
-3.8949
20
5.55222
11
-3.89567
21
5.55709
0
LINE
8
BLACK
6
CONTINUOUS
10
-3.89567
20
5.55709
11
-3.8949
21
5.56195
0
LINE
8
BLACK
6
CONTINUOUS
10
-3.8949
20
5.56195
11
-3.8943
21
5.56312
0
LINE
8
BLACK
6
CONTINUOUS
10
-3.8943
20
5.56312
11
-3.94142
21
5.61024
0
LINE
8
BLACK
6
CONTINUOUS
10
-3.94142
20
5.61024
11
-4.04775
21
5.61024
0
LINE
8
BLACK
6
CONTINUOUS
10
-4.04775
20
5.61024
11
-4.06571
21
5.59228
0
LINE
8
BLACK
6
CONTINUOUS
10
-4.06571
20
5.59228
11
-4.06638
21
5.59189
0
LINE
8
BLACK
6
CONTINUOUS
10
-4.06638
20
5.59189
11
-4.06693
21
5.59134
0
LINE
8
BLACK
6
CONTINUOUS
10
-4.06693
20
5.59134
11
-4.06768
21
5.59114
0
LINE
8
BLACK
6
CONTINUOUS
10
-4.06768
20
5.59114
11
-4.06835
21
5.59075
0
LINE
8
BLACK
6
CONTINUOUS
10
-4.06835
20
5.59075
11
-4.06913
21
5.59075
0
LINE
8
BLACK
6
CONTINUOUS
10
-4.06913
20
5.59075
11
-4.06988
21
5.59055
0
LINE
8
BLACK
6
CONTINUOUS
10
-4.06988
20
5.59055
11
-4.12646
21
5.59055
0
LINE
8
BLACK
6
CONTINUOUS
10
-4.12646
20
5.59055
11
-4.12721
21
5.59075
0
LINE
8
BLACK
6
CONTINUOUS
10
-4.12721
20
5.59075
11
-4.12799
21
5.59075
0
LINE
8
BLACK
6
CONTINUOUS
10
-4.12799
20
5.59075
11
-4.12866
21
5.59114
0
LINE
8
BLACK
6
CONTINUOUS
10
-4.12866
20
5.59114
11
-4.12941
21
5.59134
0
LINE
8
BLACK
6
CONTINUOUS
10
-4.12941
20
5.59134
11
-4.12996
21
5.59189
0
LINE
8
BLACK
6
CONTINUOUS
10
-4.12996
20
5.59189
11
-4.13063
21
5.59228
0
LINE
8
BLACK
6
CONTINUOUS
10
-4.13063
20
5.59228
11
-4.24245
21
5.70409
0
LINE
8
BLACK
6
CONTINUOUS
10
-4.24245
20
5.70409
11
-4.36555
21
5.70409
0
LINE
8
BLACK
6
CONTINUOUS
10
-4.36555
20
5.70409
11
-4.36726
21
5.70074
0
LINE
8
BLACK
6
CONTINUOUS
10
-4.36726
20
5.70074
11
-4.37074
21
5.69726
0
LINE
8
BLACK
6
CONTINUOUS
10
-4.37074
20
5.69726
11
-4.37513
21
5.69502
0
LINE
8
BLACK
6
CONTINUOUS
10
-4.37513
20
5.69502
11
-4.38
21
5.69425
0
LINE
8
BLACK
6
CONTINUOUS
10
-4.38
20
5.69425
11
-4.38487
21
5.69502
0
LINE
8
BLACK
6
CONTINUOUS
10
-4.38487
20
5.69502
11
-4.38926
21
5.69726
0
LINE
8
BLACK
6
CONTINUOUS
10
-4.38926
20
5.69726
11
-4.39274
21
5.70074
0
LINE
8
BLACK
6
CONTINUOUS
10
-4.39274
20
5.70074
11
-4.39445
21
5.70409
0
LINE
8
BLACK
6
CONTINUOUS
10
-4.39445
20
5.70409
11
-4.69555
21
5.70409
0
LINE
8
BLACK
6
CONTINUOUS
10
-4.69555
20
5.70409
11
-4.69726
21
5.70074
0
LINE
8
BLACK
6
CONTINUOUS
10
-4.69726
20
5.70074
11
-4.70074
21
5.69726
0
LINE
8
BLACK
6
CONTINUOUS
10
-4.70074
20
5.69726
11
-4.70513
21
5.69502
0
LINE
8
BLACK
6
CONTINUOUS
10
-4.70513
20
5.69502
11
-4.71
21
5.69425
0
LINE
8
BLACK
6
CONTINUOUS
10
-4.71
20
5.69425
11
-4.71487
21
5.69502
0
LINE
8
BLACK
6
CONTINUOUS
10
-4.71487
20
5.69502
11
-4.71926
21
5.69726
0
LINE
8
BLACK
6
CONTINUOUS
10
-4.71926
20
5.69726
11
-4.72274
21
5.70074
0
LINE
8
BLACK
6
CONTINUOUS
10
-4.72274
20
5.70074
11
-4.72498
21
5.70513
0
LINE
8
BLACK
6
CONTINUOUS
10
-4.72498
20
5.70513
11
-4.72575
21
5.71
0
LINE
8
BLACK
6
CONTINUOUS
10
-4.72575
20
5.71
11
-4.72498
21
5.71487
0
LINE
8
BLACK
6
CONTINUOUS
10
-4.72498
20
5.71487
11
-4.72274
21
5.71926
0
LINE
8
BLACK
6
CONTINUOUS
10
-4.72274
20
5.71926
11
-4.71926
21
5.72274
0
LINE
8
BLACK
6
CONTINUOUS
10
-4.71926
20
5.72274
11
-4.71487
21
5.72498
0
LINE
8
BLACK
6
CONTINUOUS
10
-4.71487
20
5.72498
11
-4.71
21
5.72575
0
LINE
8
BLACK
6
CONTINUOUS
10
-4.71
20
5.72575
11
-4.70513
21
5.72498
0
LINE
8
BLACK
6
CONTINUOUS
10
-4.70513
20
5.72498
11
-4.70074
21
5.72274
0
LINE
8
BLACK
6
CONTINUOUS
10
-4.70074
20
5.72274
11
-4.69726
21
5.71926
0
LINE
8
BLACK
6
CONTINUOUS
10
-4.69726
20
5.71926
11
-4.69555
21
5.71591
0
LINE
8
BLACK
6
CONTINUOUS
10
-4.69555
20
5.71591
11
-4.39445
21
5.71591
0
LINE
8
BLACK
6
CONTINUOUS
10
-4.39445
20
5.71591
11
-4.39274
21
5.71926
0
LINE
8
BLACK
6
CONTINUOUS
10
-4.39274
20
5.71926
11
-4.38926
21
5.72274
0
LINE
8
BLACK
6
CONTINUOUS
10
-4.38926
20
5.72274
11
-4.38487
21
5.72498
0
LINE
8
BLACK
6
CONTINUOUS
10
-4.38487
20
5.72498
11
-4.38
21
5.72575
0
LINE
8
BLACK
6
CONTINUOUS
10
-4.38
20
5.72575
11
-4.37513
21
5.72498
0
LINE
8
BLACK
6
CONTINUOUS
10
-4.37513
20
5.72498
11
-4.37074
21
5.72274
0
LINE
8
BLACK
6
CONTINUOUS
10
-4.37074
20
5.72274
11
-4.36726
21
5.71926
0
LINE
8
BLACK
6
CONTINUOUS
10
-4.36726
20
5.71926
11
-4.36555
21
5.71591
0
LINE
8
BLACK
6
CONTINUOUS
10
-4.36555
20
5.71591
11
-4.24
21
5.71591
0
LINE
8
BLACK
6
CONTINUOUS
10
-4.24
20
5.71591
11
-4.23925
21
5.7157
0
LINE
8
BLACK
6
CONTINUOUS
10
-4.23925
20
5.7157
11
-4.23847
21
5.7157
0
LINE
8
BLACK
6
CONTINUOUS
10
-4.23847
20
5.7157
11
-4.2378
21
5.71532
0
LINE
8
BLACK
6
CONTINUOUS
10
-4.2378
20
5.71532
11
-4.23705
21
5.71511
0
LINE
8
BLACK
6
CONTINUOUS
10
-4.23705
20
5.71511
11
-4.2365
21
5.71456
0
LINE
8
BLACK
6
CONTINUOUS
10
-4.2365
20
5.71456
11
-4.23582
21
5.71418
0
LINE
8
BLACK
6
CONTINUOUS
10
-4.23582
20
5.71418
11
-4.12401
21
5.60236
0
LINE
8
BLACK
6
CONTINUOUS
10
-4.12401
20
5.60236
11
-4.07233
21
5.60236
0
LINE
8
BLACK
6
CONTINUOUS
10
-4.07233
20
5.60236
11
-4.05437
21
5.62032
0
LINE
8
BLACK
6
CONTINUOUS
10
-4.97622
20
5.51894
11
-4.97999
21
5.51969
0
LINE
8
BLACK
6
CONTINUOUS
10
-4.97999
20
5.51969
11
-4.98318
21
5.52182
0
LINE
8
BLACK
6
CONTINUOUS
10
-4.98318
20
5.52182
11
-4.98531
21
5.52501
0
LINE
8
BLACK
6
CONTINUOUS
10
-4.98531
20
5.52501
11
-4.98606
21
5.52878
0
LINE
8
BLACK
6
CONTINUOUS
10
-4.98606
20
5.52878
11
-4.98606
21
5.54846
0
LINE
8
BLACK
6
CONTINUOUS
10
-4.98606
20
5.54846
11
-4.98531
21
5.55223
0
LINE
8
BLACK
6
CONTINUOUS
10
-4.98531
20
5.55223
11
-4.98318
21
5.55542
0
LINE
8
BLACK
6
CONTINUOUS
10
-4.98318
20
5.55542
11
-4.97999
21
5.55756
0
LINE
8
BLACK
6
CONTINUOUS
10
-4.97999
20
5.55756
11
-4.97622
21
5.55831
0
LINE
8
BLACK
6
CONTINUOUS
10
-4.97622
20
5.55831
11
-4.94291
21
5.55831
0
LINE
8
BLACK
6
CONTINUOUS
10
-4.94291
20
5.55831
11
-4.94291
21
5.57779
0
LINE
8
BLACK
6
CONTINUOUS
10
-4.94291
20
5.57779
11
-4.94306
21
5.57819
0
LINE
8
BLACK
6
CONTINUOUS
10
-4.94306
20
5.57819
11
-4.94326
21
5.57831
0
LINE
8
BLACK
6
CONTINUOUS
10
-4.94326
20
5.57831
11
-4.9674
21
5.57831
0
LINE
8
BLACK
6
CONTINUOUS
10
-4.9674
20
5.57831
11
-4.96927
21
5.57899
0
LINE
8
BLACK
6
CONTINUOUS
10
-4.96927
20
5.57899
11
-4.97027
21
5.58071
0
LINE
8
BLACK
6
CONTINUOUS
10
-4.97027
20
5.58071
11
-4.97031
21
5.58122
0
LINE
8
BLACK
6
CONTINUOUS
10
-4.97031
20
5.58122
11
-4.97031
21
5.78933
0
LINE
8
BLACK
6
CONTINUOUS
10
-4.97031
20
5.78933
11
-4.96963
21
5.7912
0
LINE
8
BLACK
6
CONTINUOUS
10
-4.96963
20
5.7912
11
-4.96791
21
5.7922
0
LINE
8
BLACK
6
CONTINUOUS
10
-4.96791
20
5.7922
11
-4.9674
21
5.79224
0
LINE
8
BLACK
6
CONTINUOUS
10
-4.9674
20
5.79224
11
-4.94343
21
5.79224
0
LINE
8
BLACK
6
CONTINUOUS
10
-4.94343
20
5.79224
11
-4.94303
21
5.79239
0
LINE
8
BLACK
6
CONTINUOUS
10
-4.94303
20
5.79239
11
-4.94291
21
5.7926
0
LINE
8
BLACK
6
CONTINUOUS
10
-4.94291
20
5.7926
11
-4.94291
21
5.81224
0
LINE
8
BLACK
6
CONTINUOUS
10
-4.94291
20
5.81224
11
-4.97622
21
5.81224
0
LINE
8
BLACK
6
CONTINUOUS
10
-4.97622
20
5.81224
11
-4.97999
21
5.81299
0
LINE
8
BLACK
6
CONTINUOUS
10
-4.97999
20
5.81299
11
-4.98318
21
5.81513
0
LINE
8
BLACK
6
CONTINUOUS
10
-4.98318
20
5.81513
11
-4.98531
21
5.81832
0
LINE
8
BLACK
6
CONTINUOUS
10
-4.98531
20
5.81832
11
-4.98606
21
5.82209
0
LINE
8
BLACK
6
CONTINUOUS
10
-4.98606
20
5.82209
11
-4.98606
21
5.84177
0
LINE
8
BLACK
6
CONTINUOUS
10
-4.98606
20
5.84177
11
-4.98531
21
5.84554
0
LINE
8
BLACK
6
CONTINUOUS
10
-4.98531
20
5.84554
11
-4.98318
21
5.84873
0
LINE
8
BLACK
6
CONTINUOUS
10
-4.98318
20
5.84873
11
-4.97999
21
5.85086
0
LINE
8
BLACK
6
CONTINUOUS
10
-4.97999
20
5.85086
11
-4.97622
21
5.85161
0
LINE
8
BLACK
6
CONTINUOUS
10
-4.97622
20
5.85161
11
-4.94291
21
5.85161
0
LINE
8
BLACK
6
CONTINUOUS
10
-4.94291
20
5.85161
11
-4.94291
21
5.8711
0
LINE
8
BLACK
6
CONTINUOUS
10
-4.94291
20
5.8711
11
-4.94306
21
5.87149
0
LINE
8
BLACK
6
CONTINUOUS
10
-4.94306
20
5.87149
11
-4.94326
21
5.87161
0
LINE
8
BLACK
6
CONTINUOUS
10
-4.94326
20
5.87161
11
-4.9674
21
5.87161
0
LINE
8
BLACK
6
CONTINUOUS
10
-4.9674
20
5.87161
11
-4.96927
21
5.8723
0
LINE
8
BLACK
6
CONTINUOUS
10
-4.96927
20
5.8723
11
-4.97027
21
5.87402
0
LINE
8
BLACK
6
CONTINUOUS
10
-4.97027
20
5.87402
11
-4.97031
21
5.87453
0
LINE
8
BLACK
6
CONTINUOUS
10
-4.97031
20
5.87453
11
-4.97031
21
5.95795
0
LINE
8
BLACK
6
CONTINUOUS
10
-4.97031
20
5.95795
11
-4.96963
21
5.95983
0
LINE
8
BLACK
6
CONTINUOUS
10
-4.96963
20
5.95983
11
-4.96791
21
5.96082
0
LINE
8
BLACK
6
CONTINUOUS
10
-4.96791
20
5.96082
11
-4.9674
21
5.96087
0
LINE
8
BLACK
6
CONTINUOUS
10
-4.9674
20
5.96087
11
-4.95769
21
5.96087
0
LINE
8
BLACK
6
CONTINUOUS
10
-4.95769
20
5.96087
11
-4.95581
21
5.96018
0
LINE
8
BLACK
6
CONTINUOUS
10
-4.95581
20
5.96018
11
-4.95493
21
5.95889
0
LINE
8
BLACK
6
CONTINUOUS
10
-4.95493
20
5.95889
11
-4.95374
21
5.95539
0
LINE
8
BLACK
6
CONTINUOUS
10
-4.95374
20
5.95539
11
-4.95334
21
5.95421
0
LINE
8
BLACK
6
CONTINUOUS
10
-4.95334
20
5.95421
11
-4.95329
21
5.95411
0
LINE
8
BLACK
6
CONTINUOUS
10
-4.95329
20
5.95411
11
-4.95011
21
5.948
0
LINE
8
BLACK
6
CONTINUOUS
10
-4.95011
20
5.948
11
-4.94864
21
5.94517
0
LINE
8
BLACK
6
CONTINUOUS
10
-4.94864
20
5.94517
11
-4.94858
21
5.94508
0
LINE
8
BLACK
6
CONTINUOUS
10
-4.94858
20
5.94508
11
-4.94858
21
5.94508
0
LINE
8
BLACK
6
CONTINUOUS
10
-4.94858
20
5.94508
11
-4.94443
21
5.9394
0
LINE
8
BLACK
6
CONTINUOUS
10
-4.94443
20
5.9394
11
-4.94263
21
5.93694
0
LINE
8
BLACK
6
CONTINUOUS
10
-4.94263
20
5.93694
11
-4.94255
21
5.93687
0
LINE
8
BLACK
6
CONTINUOUS
10
-4.94255
20
5.93687
11
-4.93756
21
5.93185
0
LINE
8
BLACK
6
CONTINUOUS
10
-4.93756
20
5.93185
11
-4.93545
21
5.92972
0
LINE
8
BLACK
6
CONTINUOUS
10
-4.93545
20
5.92972
11
-4.92726
21
5.92367
0
LINE
8
BLACK
6
CONTINUOUS
10
-4.92726
20
5.92367
11
-4.92628
21
5.92316
0
LINE
8
BLACK
6
CONTINUOUS
10
-4.92628
20
5.92316
11
-4.91834
21
5.91898
0
LINE
8
BLACK
6
CONTINUOUS
10
-4.91834
20
5.91898
11
-4.91834
21
5.91898
0
LINE
8
BLACK
6
CONTINUOUS
10
-4.91834
20
5.91898
11
-4.91824
21
5.91893
0
LINE
8
BLACK
6
CONTINUOUS
10
-4.91824
20
5.91893
11
-4.90861
21
5.9156
0
LINE
8
BLACK
6
CONTINUOUS
10
-4.90861
20
5.9156
11
-4.9085
21
5.91558
0
LINE
8
BLACK
6
CONTINUOUS
10
-4.9085
20
5.91558
11
-4.9085
21
5.91558
0
LINE
8
BLACK
6
CONTINUOUS
10
-4.9085
20
5.91558
11
-4.90479
21
5.91491
0
LINE
8
BLACK
6
CONTINUOUS
10
-4.90479
20
5.91491
11
-4.89859
21
5.91377
0
LINE
8
BLACK
6
CONTINUOUS
10
-4.89859
20
5.91377
11
-4.8985
21
5.91377
0
LINE
8
BLACK
6
CONTINUOUS
10
-4.8985
20
5.91377
11
-4.8985
21
5.91377
0
LINE
8
BLACK
6
CONTINUOUS
10
-4.8985
20
5.91377
11
-4.89537
21
5.9136
0
LINE
8
BLACK
6
CONTINUOUS
10
-4.89537
20
5.9136
11
-4.89537
21
5.9136
0
LINE
8
BLACK
6
CONTINUOUS
10
-4.89537
20
5.9136
11
-4.89533
21
5.9136
0
LINE
8
BLACK
6
CONTINUOUS
10
-4.89533
20
5.9136
11
-4.88898
21
5.9136
0
LINE
8
BLACK
6
CONTINUOUS
10
-4.88898
20
5.9136
11
-4.88614
21
5.91382
0
LINE
8
BLACK
6
CONTINUOUS
10
-4.88614
20
5.91382
11
-4.88153
21
5.91417
0
LINE
8
BLACK
6
CONTINUOUS
10
-4.88153
20
5.91417
11
-4.88153
21
5.91417
0
LINE
8
BLACK
6
CONTINUOUS
10
-4.88153
20
5.91417
11
-4.88142
21
5.91418
0
LINE
8
BLACK
6
CONTINUOUS
10
-4.88142
20
5.91418
11
-4.8715
21
5.91648
0
LINE
8
BLACK
6
CONTINUOUS
10
-4.8715
20
5.91648
11
-4.87139
21
5.91652
0
LINE
8
BLACK
6
CONTINUOUS
10
-4.87139
20
5.91652
11
-4.87139
21
5.91652
0
LINE
8
BLACK
6
CONTINUOUS
10
-4.87139
20
5.91652
11
-4.86214
21
5.92021
0
LINE
8
BLACK
6
CONTINUOUS
10
-4.86214
20
5.92021
11
-4.86214
21
5.92021
0
LINE
8
BLACK
6
CONTINUOUS
10
-4.86214
20
5.92021
11
-4.86203
21
5.92025
0
LINE
8
BLACK
6
CONTINUOUS
10
-4.86203
20
5.92025
11
-4.86194
21
5.92031
0
LINE
8
BLACK
6
CONTINUOUS
10
-4.86194
20
5.92031
11
-4.86194
21
5.92031
0
LINE
8
BLACK
6
CONTINUOUS
10
-4.86194
20
5.92031
11
-4.85335
21
5.92536
0
LINE
8
BLACK
6
CONTINUOUS
10
-4.85335
20
5.92536
11
-4.85335
21
5.92536
0
LINE
8
BLACK
6
CONTINUOUS
10
-4.85335
20
5.92536
11
-4.85325
21
5.92541
0
LINE
8
BLACK
6
CONTINUOUS
10
-4.85325
20
5.92541
11
-4.84535
21
5.93185
0
LINE
8
BLACK
6
CONTINUOUS
10
-4.84535
20
5.93185
11
-4.83852
21
5.9394
0
LINE
8
BLACK
6
CONTINUOUS
10
-4.83852
20
5.9394
11
-4.83846
21
5.93949
0
LINE
8
BLACK
6
CONTINUOUS
10
-4.83846
20
5.93949
11
-4.83846
21
5.93949
0
LINE
8
BLACK
6
CONTINUOUS
10
-4.83846
20
5.93949
11
-4.83297
21
5.9478
0
LINE
8
BLACK
6
CONTINUOUS
10
-4.83297
20
5.9478
11
-4.83297
21
5.9478
0
LINE
8
BLACK
6
CONTINUOUS
10
-4.83297
20
5.9478
11
-4.8329
21
5.9479
0
LINE
8
BLACK
6
CONTINUOUS
10
-4.8329
20
5.9479
11
-4.83158
21
5.95077
0
LINE
8
BLACK
6
CONTINUOUS
10
-4.83158
20
5.95077
11
-4.82869
21
5.95705
0
LINE
8
BLACK
6
CONTINUOUS
10
-4.82869
20
5.95705
11
-4.82869
21
5.95705
0
LINE
8
BLACK
6
CONTINUOUS
10
-4.82869
20
5.95705
11
-4.82864
21
5.95715
0
LINE
8
BLACK
6
CONTINUOUS
10
-4.82864
20
5.95715
11
-4.82861
21
5.95725
0
LINE
8
BLACK
6
CONTINUOUS
10
-4.82861
20
5.95725
11
-4.82861
21
5.95725
0
LINE
8
BLACK
6
CONTINUOUS
10
-4.82861
20
5.95725
11
-4.82818
21
5.95876
0
LINE
8
BLACK
6
CONTINUOUS
10
-4.82818
20
5.95876
11
-4.827
21
5.96037
0
LINE
8
BLACK
6
CONTINUOUS
10
-4.827
20
5.96037
11
-4.82538
21
5.96087
0
LINE
8
BLACK
6
CONTINUOUS
10
-4.82538
20
5.96087
11
-4.68623
21
5.96087
0
LINE
8
BLACK
6
CONTINUOUS
10
-4.68623
20
5.96087
11
-4.68435
21
5.96018
0
LINE
8
BLACK
6
CONTINUOUS
10
-4.68435
20
5.96018
11
-4.68336
21
5.95846
0
LINE
8
BLACK
6
CONTINUOUS
10
-4.68336
20
5.95846
11
-4.6837
21
5.9565
0
LINE
8
BLACK
6
CONTINUOUS
10
-4.6837
20
5.9565
11
-4.68467
21
5.95549
0
LINE
8
BLACK
6
CONTINUOUS
10
-4.68467
20
5.95549
11
-4.69204
21
5.95085
0
LINE
8
BLACK
6
CONTINUOUS
10
-4.69204
20
5.95085
11
-4.69213
21
5.95077
0
LINE
8
BLACK
6
CONTINUOUS
10
-4.69213
20
5.95077
11
-4.69858
21
5.94508
0
LINE
8
BLACK
6
CONTINUOUS
10
-4.69858
20
5.94508
11
-4.69941
21
5.94435
0
LINE
8
BLACK
6
CONTINUOUS
10
-4.69941
20
5.94435
11
-4.69948
21
5.94426
0
LINE
8
BLACK
6
CONTINUOUS
10
-4.69948
20
5.94426
11
-4.70557
21
5.93685
0
LINE
8
BLACK
6
CONTINUOUS
10
-4.70557
20
5.93685
11
-4.70557
21
5.93685
0
LINE
8
BLACK
6
CONTINUOUS
10
-4.70557
20
5.93685
11
-4.70564
21
5.93676
0
LINE
8
BLACK
6
CONTINUOUS
10
-4.70564
20
5.93676
11
-4.71058
21
5.92827
0
LINE
8
BLACK
6
CONTINUOUS
10
-4.71058
20
5.92827
11
-4.71063
21
5.92816
0
LINE
8
BLACK
6
CONTINUOUS
10
-4.71063
20
5.92816
11
-4.71063
21
5.92816
0
LINE
8
BLACK
6
CONTINUOUS
10
-4.71063
20
5.92816
11
-4.71364
21
5.92031
0
LINE
8
BLACK
6
CONTINUOUS
10
-4.71364
20
5.92031
11
-4.7141
21
5.9191
0
LINE
8
BLACK
6
CONTINUOUS
10
-4.7141
20
5.9191
11
-4.71413
21
5.91899
0
LINE
8
BLACK
6
CONTINUOUS
10
-4.71413
20
5.91899
11
-4.71609
21
5.9096
0
LINE
8
BLACK
6
CONTINUOUS
10
-4.71609
20
5.9096
11
-4.71609
21
5.9096
0
LINE
8
BLACK
6
CONTINUOUS
10
-4.71609
20
5.9096
11
-4.71611
21
5.90949
0
LINE
8
BLACK
6
CONTINUOUS
10
-4.71611
20
5.90949
11
-4.71612
21
5.90937
0
LINE
8
BLACK
6
CONTINUOUS
10
-4.71612
20
5.90937
11
-4.71612
21
5.90937
0
LINE
8
BLACK
6
CONTINUOUS
10
-4.71612
20
5.90937
11
-4.71624
21
5.90675
0
LINE
8
BLACK
6
CONTINUOUS
10
-4.71624
20
5.90675
11
-4.71656
21
5.89967
0
LINE
8
BLACK
6
CONTINUOUS
10
-4.71656
20
5.89967
11
-4.71655
21
5.89956
0
LINE
8
BLACK
6
CONTINUOUS
10
-4.71655
20
5.89956
11
-4.71655
21
5.89956
0
LINE
8
BLACK
6
CONTINUOUS
10
-4.71655
20
5.89956
11
-4.71623
21
5.89687
0
LINE
8
BLACK
6
CONTINUOUS
10
-4.71623
20
5.89687
11
-4.71543
21
5.88992
0
LINE
8
BLACK
6
CONTINUOUS
10
-4.71543
20
5.88992
11
-4.71276
21
5.88046
0
LINE
8
BLACK
6
CONTINUOUS
10
-4.71276
20
5.88046
11
-4.7086
21
5.87156
0
LINE
8
BLACK
6
CONTINUOUS
10
-4.7086
20
5.87156
11
-4.70854
21
5.87146
0
LINE
8
BLACK
6
CONTINUOUS
10
-4.70854
20
5.87146
11
-4.70854
21
5.87146
0
LINE
8
BLACK
6
CONTINUOUS
10
-4.70854
20
5.87146
11
-4.70494
21
5.86617
0
LINE
8
BLACK
6
CONTINUOUS
10
-4.70494
20
5.86617
11
-4.70308
21
5.86344
0
LINE
8
BLACK
6
CONTINUOUS
10
-4.70308
20
5.86344
11
-4.703
21
5.86335
0
LINE
8
BLACK
6
CONTINUOUS
10
-4.703
20
5.86335
11
-4.703
21
5.86335
0
LINE
8
BLACK
6
CONTINUOUS
10
-4.703
20
5.86335
11
-4.70036
21
5.86055
0
LINE
8
BLACK
6
CONTINUOUS
10
-4.70036
20
5.86055
11
-4.69633
21
5.8563
0
LINE
8
BLACK
6
CONTINUOUS
10
-4.69633
20
5.8563
11
-4.68853
21
5.85033
0
LINE
8
BLACK
6
CONTINUOUS
10
-4.68853
20
5.85033
11
-4.68843
21
5.85028
0
LINE
8
BLACK
6
CONTINUOUS
10
-4.68843
20
5.85028
11
-4.68843
21
5.85028
0
LINE
8
BLACK
6
CONTINUOUS
10
-4.68843
20
5.85028
11
-4.6843
21
5.84807
0
LINE
8
BLACK
6
CONTINUOUS
10
-4.6843
20
5.84807
11
-4.67987
21
5.84569
0
LINE
8
BLACK
6
CONTINUOUS
10
-4.67987
20
5.84569
11
-4.67976
21
5.84565
0
LINE
8
BLACK
6
CONTINUOUS
10
-4.67976
20
5.84565
11
-4.6707
21
5.84253
0
LINE
8
BLACK
6
CONTINUOUS
10
-4.6707
20
5.84253
11
-4.6707
21
5.84253
0
LINE
8
BLACK
6
CONTINUOUS
10
-4.6707
20
5.84253
11
-4.67058
21
5.84249
0
LINE
8
BLACK
6
CONTINUOUS
10
-4.67058
20
5.84249
11
-4.6609
21
5.84082
0
LINE
8
BLACK
6
CONTINUOUS
10
-4.6609
20
5.84082
11
-4.66081
21
5.84082
0
LINE
8
BLACK
6
CONTINUOUS
10
-4.66081
20
5.84082
11
-4.66081
21
5.84082
0
LINE
8
BLACK
6
CONTINUOUS
10
-4.66081
20
5.84082
11
-4.66014
21
5.84079
0
LINE
8
BLACK
6
CONTINUOUS
10
-4.66014
20
5.84079
11
-4.65973
21
5.84077
0
LINE
8
BLACK
6
CONTINUOUS
10
-4.65973
20
5.84077
11
-4.65289
21
5.84077
0
LINE
8
BLACK
6
CONTINUOUS
10
-4.65289
20
5.84077
11
-4.65283
21
5.84077
0
LINE
8
BLACK
6
CONTINUOUS
10
-4.65283
20
5.84077
11
-4.65283
21
5.84077
0
LINE
8
BLACK
6
CONTINUOUS
10
-4.65283
20
5.84077
11
-4.64833
21
5.84113
0
LINE
8
BLACK
6
CONTINUOUS
10
-4.64833
20
5.84113
11
-4.64556
21
5.84136
0
LINE
8
BLACK
6
CONTINUOUS
10
-4.64556
20
5.84136
11
-4.63602
21
5.8437
0
LINE
8
BLACK
6
CONTINUOUS
10
-4.63602
20
5.8437
11
-4.6312
21
5.84575
0
LINE
8
BLACK
6
CONTINUOUS
10
-4.6312
20
5.84575
11
-4.62709
21
5.84749
0
LINE
8
BLACK
6
CONTINUOUS
10
-4.62709
20
5.84749
11
-4.62709
21
5.84749
0
LINE
8
BLACK
6
CONTINUOUS
10
-4.62709
20
5.84749
11
-4.62698
21
5.84754
0
LINE
8
BLACK
6
CONTINUOUS
10
-4.62698
20
5.84754
11
-4.61867
21
5.85277
0
LINE
8
BLACK
6
CONTINUOUS
10
-4.61867
20
5.85277
11
-4.61475
21
5.85623
0
LINE
8
BLACK
6
CONTINUOUS
10
-4.61475
20
5.85623
11
-4.61139
21
5.85919
0
LINE
8
BLACK
6
CONTINUOUS
10
-4.61139
20
5.85919
11
-4.61139
21
5.85919
0
LINE
8
BLACK
6
CONTINUOUS
10
-4.61139
20
5.85919
11
-4.6113
21
5.85927
0
LINE
8
BLACK
6
CONTINUOUS
10
-4.6113
20
5.85927
11
-4.60788
21
5.86344
0
LINE
8
BLACK
6
CONTINUOUS
10
-4.60788
20
5.86344
11
-4.60514
21
5.86677
0
LINE
8
BLACK
6
CONTINUOUS
10
-4.60514
20
5.86677
11
-4.60514
21
5.86677
0
LINE
8
BLACK
6
CONTINUOUS
10
-4.60514
20
5.86677
11
-4.60507
21
5.86686
0
LINE
8
BLACK
6
CONTINUOUS
10
-4.60507
20
5.86686
11
-4.60012
21
5.87535
0
LINE
8
BLACK
6
CONTINUOUS
10
-4.60012
20
5.87535
11
-4.60008
21
5.87546
0
LINE
8
BLACK
6
CONTINUOUS
10
-4.60008
20
5.87546
11
-4.60008
21
5.87546
0
LINE
8
BLACK
6
CONTINUOUS
10
-4.60008
20
5.87546
11
-4.59665
21
5.88441
0
LINE
8
BLACK
6
CONTINUOUS
10
-4.59665
20
5.88441
11
-4.59665
21
5.88441
0
LINE
8
BLACK
6
CONTINUOUS
10
-4.59665
20
5.88441
11
-4.5966
21
5.88452
0
LINE
8
BLACK
6
CONTINUOUS
10
-4.5966
20
5.88452
11
-4.59518
21
5.89134
0
LINE
8
BLACK
6
CONTINUOUS
10
-4.59518
20
5.89134
11
-4.59462
21
5.89402
0
LINE
8
BLACK
6
CONTINUOUS
10
-4.59462
20
5.89402
11
-4.59462
21
5.89402
0
LINE
8
BLACK
6
CONTINUOUS
10
-4.59462
20
5.89402
11
-4.5946
21
5.89414
0
LINE
8
BLACK
6
CONTINUOUS
10
-4.5946
20
5.89414
11
-4.59415
21
5.90395
0
LINE
8
BLACK
6
CONTINUOUS
10
-4.59415
20
5.90395
11
-4.59528
21
5.91371
0
LINE
8
BLACK
6
CONTINUOUS
10
-4.59528
20
5.91371
11
-4.59795
21
5.92316
0
LINE
8
BLACK
6
CONTINUOUS
10
-4.59795
20
5.92316
11
-4.6021
21
5.93206
0
LINE
8
BLACK
6
CONTINUOUS
10
-4.6021
20
5.93206
11
-4.60536
21
5.93685
0
LINE
8
BLACK
6
CONTINUOUS
10
-4.60536
20
5.93685
11
-4.60756
21
5.94009
0
LINE
8
BLACK
6
CONTINUOUS
10
-4.60756
20
5.94009
11
-4.60756
21
5.94009
0
LINE
8
BLACK
6
CONTINUOUS
10
-4.60756
20
5.94009
11
-4.60763
21
5.94019
0
LINE
8
BLACK
6
CONTINUOUS
10
-4.60763
20
5.94019
11
-4.60771
21
5.94027
0
LINE
8
BLACK
6
CONTINUOUS
10
-4.60771
20
5.94027
11
-4.60771
21
5.94027
0
LINE
8
BLACK
6
CONTINUOUS
10
-4.60771
20
5.94027
11
-4.6143
21
5.94724
0
LINE
8
BLACK
6
CONTINUOUS
10
-4.6143
20
5.94724
11
-4.6143
21
5.94724
0
LINE
8
BLACK
6
CONTINUOUS
10
-4.6143
20
5.94724
11
-4.61438
21
5.94732
0
LINE
8
BLACK
6
CONTINUOUS
10
-4.61438
20
5.94732
11
-4.62218
21
5.95329
0
LINE
8
BLACK
6
CONTINUOUS
10
-4.62218
20
5.95329
11
-4.62609
21
5.95539
0
LINE
8
BLACK
6
CONTINUOUS
10
-4.62609
20
5.95539
11
-4.62742
21
5.95687
0
LINE
8
BLACK
6
CONTINUOUS
10
-4.62742
20
5.95687
11
-4.62748
21
5.95886
0
LINE
8
BLACK
6
CONTINUOUS
10
-4.62748
20
5.95886
11
-4.62625
21
5.96043
0
LINE
8
BLACK
6
CONTINUOUS
10
-4.62625
20
5.96043
11
-4.62471
21
5.96087
0
LINE
8
BLACK
6
CONTINUOUS
10
-4.62471
20
5.96087
11
-4.56398
21
5.96087
0
LINE
8
BLACK
6
CONTINUOUS
10
-4.56398
20
5.96087
11
-4.56211
21
5.96018
0
LINE
8
BLACK
6
CONTINUOUS
10
-4.56211
20
5.96018
11
-4.56123
21
5.95889
0
LINE
8
BLACK
6
CONTINUOUS
10
-4.56123
20
5.95889
11
-4.56004
21
5.95539
0
LINE
8
BLACK
6
CONTINUOUS
10
-4.56004
20
5.95539
11
-4.55964
21
5.95421
0
LINE
8
BLACK
6
CONTINUOUS
10
-4.55964
20
5.95421
11
-4.55959
21
5.95411
0
LINE
8
BLACK
6
CONTINUOUS
10
-4.55959
20
5.95411
11
-4.55641
21
5.948
0
LINE
8
BLACK
6
CONTINUOUS
10
-4.55641
20
5.948
11
-4.55494
21
5.94517
0
LINE
8
BLACK
6
CONTINUOUS
10
-4.55494
20
5.94517
11
-4.55488
21
5.94508
0
LINE
8
BLACK
6
CONTINUOUS
10
-4.55488
20
5.94508
11
-4.55488
21
5.94508
0
LINE
8
BLACK
6
CONTINUOUS
10
-4.55488
20
5.94508
11
-4.55072
21
5.9394
0
LINE
8
BLACK
6
CONTINUOUS
10
-4.55072
20
5.9394
11
-4.54893
21
5.93694
0
LINE
8
BLACK
6
CONTINUOUS
10
-4.54893
20
5.93694
11
-4.54885
21
5.93687
0
LINE
8
BLACK
6
CONTINUOUS
10
-4.54885
20
5.93687
11
-4.54386
21
5.93185
0
LINE
8
BLACK
6
CONTINUOUS
10
-4.54386
20
5.93185
11
-4.54175
21
5.92972
0
LINE
8
BLACK
6
CONTINUOUS
10
-4.54175
20
5.92972
11
-4.53356
21
5.92367
0
LINE
8
BLACK
6
CONTINUOUS
10
-4.53356
20
5.92367
11
-4.53258
21
5.92316
0
LINE
8
BLACK
6
CONTINUOUS
10
-4.53258
20
5.92316
11
-4.52464
21
5.91898
0
LINE
8
BLACK
6
CONTINUOUS
10
-4.52464
20
5.91898
11
-4.52464
21
5.91898
0
LINE
8
BLACK
6
CONTINUOUS
10
-4.52464
20
5.91898
11
-4.52454
21
5.91893
0
LINE
8
BLACK
6
CONTINUOUS
10
-4.52454
20
5.91893
11
-4.51491
21
5.9156
0
LINE
8
BLACK
6
CONTINUOUS
10
-4.51491
20
5.9156
11
-4.5148
21
5.91558
0
LINE
8
BLACK
6
CONTINUOUS
10
-4.5148
20
5.91558
11
-4.5148
21
5.91558
0
LINE
8
BLACK
6
CONTINUOUS
10
-4.5148
20
5.91558
11
-4.51109
21
5.91491
0
LINE
8
BLACK
6
CONTINUOUS
10
-4.51109
20
5.91491
11
-4.50489
21
5.91377
0
LINE
8
BLACK
6
CONTINUOUS
10
-4.50489
20
5.91377
11
-4.5048
21
5.91377
0
LINE
8
BLACK
6
CONTINUOUS
10
-4.5048
20
5.91377
11
-4.5048
21
5.91377
0
LINE
8
BLACK
6
CONTINUOUS
10
-4.5048
20
5.91377
11
-4.50167
21
5.9136
0
LINE
8
BLACK
6
CONTINUOUS
10
-4.50167
20
5.9136
11
-4.50167
21
5.9136
0
LINE
8
BLACK
6
CONTINUOUS
10
-4.50167
20
5.9136
11
-4.50163
21
5.9136
0
LINE
8
BLACK
6
CONTINUOUS
10
-4.50163
20
5.9136
11
-4.49528
21
5.9136
0
LINE
8
BLACK
6
CONTINUOUS
10
-4.49528
20
5.9136
11
-4.49244
21
5.91382
0
LINE
8
BLACK
6
CONTINUOUS
10
-4.49244
20
5.91382
11
-4.48783
21
5.91417
0
LINE
8
BLACK
6
CONTINUOUS
10
-4.48783
20
5.91417
11
-4.48783
21
5.91417
0
LINE
8
BLACK
6
CONTINUOUS
10
-4.48783
20
5.91417
11
-4.48772
21
5.91418
0
LINE
8
BLACK
6
CONTINUOUS
10
-4.48772
20
5.91418
11
-4.47779
21
5.91648
0
LINE
8
BLACK
6
CONTINUOUS
10
-4.47779
20
5.91648
11
-4.47769
21
5.91652
0
LINE
8
BLACK
6
CONTINUOUS
10
-4.47769
20
5.91652
11
-4.47769
21
5.91652
0
LINE
8
BLACK
6
CONTINUOUS
10
-4.47769
20
5.91652
11
-4.46844
21
5.92021
0
LINE
8
BLACK
6
CONTINUOUS
10
-4.46844
20
5.92021
11
-4.46844
21
5.92021
0
LINE
8
BLACK
6
CONTINUOUS
10
-4.46844
20
5.92021
11
-4.46833
21
5.92025
0
LINE
8
BLACK
6
CONTINUOUS
10
-4.46833
20
5.92025
11
-4.46824
21
5.92031
0
LINE
8
BLACK
6
CONTINUOUS
10
-4.46824
20
5.92031
11
-4.46824
21
5.92031
0
LINE
8
BLACK
6
CONTINUOUS
10
-4.46824
20
5.92031
11
-4.45965
21
5.92536
0
LINE
8
BLACK
6
CONTINUOUS
10
-4.45965
20
5.92536
11
-4.45965
21
5.92536
0
LINE
8
BLACK
6
CONTINUOUS
10
-4.45965
20
5.92536
11
-4.45955
21
5.92541
0
LINE
8
BLACK
6
CONTINUOUS
10
-4.45955
20
5.92541
11
-4.45165
21
5.93185
0
LINE
8
BLACK
6
CONTINUOUS
10
-4.45165
20
5.93185
11
-4.44482
21
5.9394
0
LINE
8
BLACK
6
CONTINUOUS
10
-4.44482
20
5.9394
11
-4.44476
21
5.93949
0
LINE
8
BLACK
6
CONTINUOUS
10
-4.44476
20
5.93949
11
-4.44476
21
5.93949
0
LINE
8
BLACK
6
CONTINUOUS
10
-4.44476
20
5.93949
11
-4.43927
21
5.9478
0
LINE
8
BLACK
6
CONTINUOUS
10
-4.43927
20
5.9478
11
-4.43927
21
5.9478
0
LINE
8
BLACK
6
CONTINUOUS
10
-4.43927
20
5.9478
11
-4.4392
21
5.9479
0
LINE
8
BLACK
6
CONTINUOUS
10
-4.4392
20
5.9479
11
-4.43788
21
5.95077
0
LINE
8
BLACK
6
CONTINUOUS
10
-4.43788
20
5.95077
11
-4.43499
21
5.95705
0
LINE
8
BLACK
6
CONTINUOUS
10
-4.43499
20
5.95705
11
-4.43499
21
5.95705
0
LINE
8
BLACK
6
CONTINUOUS
10
-4.43499
20
5.95705
11
-4.43494
21
5.95715
0
LINE
8
BLACK
6
CONTINUOUS
10
-4.43494
20
5.95715
11
-4.43491
21
5.95725
0
LINE
8
BLACK
6
CONTINUOUS
10
-4.43491
20
5.95725
11
-4.43491
21
5.95725
0
LINE
8
BLACK
6
CONTINUOUS
10
-4.43491
20
5.95725
11
-4.43448
21
5.95876
0
LINE
8
BLACK
6
CONTINUOUS
10
-4.43448
20
5.95876
11
-4.4333
21
5.96037
0
LINE
8
BLACK
6
CONTINUOUS
10
-4.4333
20
5.96037
11
-4.43168
21
5.96087
0
LINE
8
BLACK
6
CONTINUOUS
10
-4.43168
20
5.96087
11
-4.17028
21
5.96087
0
LINE
8
BLACK
6
CONTINUOUS
10
-4.17028
20
5.96087
11
-4.16841
21
5.96018
0
LINE
8
BLACK
6
CONTINUOUS
10
-4.16841
20
5.96018
11
-4.16752
21
5.95889
0
LINE
8
BLACK
6
CONTINUOUS
10
-4.16752
20
5.95889
11
-4.16634
21
5.95539
0
LINE
8
BLACK
6
CONTINUOUS
10
-4.16634
20
5.95539
11
-4.16594
21
5.95421
0
LINE
8
BLACK
6
CONTINUOUS
10
-4.16594
20
5.95421
11
-4.16588
21
5.95411
0
LINE
8
BLACK
6
CONTINUOUS
10
-4.16588
20
5.95411
11
-4.16271
21
5.948
0
LINE
8
BLACK
6
CONTINUOUS
10
-4.16271
20
5.948
11
-4.16124
21
5.94517
0
LINE
8
BLACK
6
CONTINUOUS
10
-4.16124
20
5.94517
11
-4.16117
21
5.94508
0
LINE
8
BLACK
6
CONTINUOUS
10
-4.16117
20
5.94508
11
-4.16117
21
5.94508
0
LINE
8
BLACK
6
CONTINUOUS
10
-4.16117
20
5.94508
11
-4.15702
21
5.9394
0
LINE
8
BLACK
6
CONTINUOUS
10
-4.15702
20
5.9394
11
-4.15523
21
5.93694
0
LINE
8
BLACK
6
CONTINUOUS
10
-4.15523
20
5.93694
11
-4.15515
21
5.93687
0
LINE
8
BLACK
6
CONTINUOUS
10
-4.15515
20
5.93687
11
-4.15016
21
5.93185
0
LINE
8
BLACK
6
CONTINUOUS
10
-4.15016
20
5.93185
11
-4.14805
21
5.92972
0
LINE
8
BLACK
6
CONTINUOUS
10
-4.14805
20
5.92972
11
-4.13985
21
5.92367
0
LINE
8
BLACK
6
CONTINUOUS
10
-4.13985
20
5.92367
11
-4.13888
21
5.92316
0
LINE
8
BLACK
6
CONTINUOUS
10
-4.13888
20
5.92316
11
-4.13094
21
5.91898
0
LINE
8
BLACK
6
CONTINUOUS
10
-4.13094
20
5.91898
11
-4.13094
21
5.91898
0
LINE
8
BLACK
6
CONTINUOUS
10
-4.13094
20
5.91898
11
-4.13084
21
5.91893
0
LINE
8
BLACK
6
CONTINUOUS
10
-4.13084
20
5.91893
11
-4.12121
21
5.9156
0
LINE
8
BLACK
6
CONTINUOUS
10
-4.12121
20
5.9156
11
-4.1211
21
5.91558
0
LINE
8
BLACK
6
CONTINUOUS
10
-4.1211
20
5.91558
11
-4.1211
21
5.91558
0
LINE
8
BLACK
6
CONTINUOUS
10
-4.1211
20
5.91558
11
-4.11739
21
5.91491
0
LINE
8
BLACK
6
CONTINUOUS
10
-4.11739
20
5.91491
11
-4.11567
21
5.9139
0
LINE
8
BLACK
6
CONTINUOUS
10
-4.11567
20
5.9139
11
-4.115
21
5.91204
0
LINE
8
BLACK
6
CONTINUOUS
10
-4.115
20
5.91204
11
-4.115
21
5.81287
0
LINE
8
BLACK
6
CONTINUOUS
10
-4.115
20
5.81287
11
-4.06687
21
5.81287
0
LINE
8
BLACK
6
CONTINUOUS
10
-4.06687
20
5.81287
11
-4.02308
21
5.83388
0
LINE
8
BLACK
6
CONTINUOUS
10
-4.02308
20
5.83388
11
-4.02138
21
5.83426
0
LINE
8
BLACK
6
CONTINUOUS
10
-4.02138
20
5.83426
11
-4.01969
21
5.83465
0
LINE
8
BLACK
6
CONTINUOUS
10
-4.01969
20
5.83465
11
-3.94487
21
5.83465
0
LINE
8
BLACK
6
CONTINUOUS
10
-3.94487
20
5.83465
11
-3.94359
21
5.83435
0
LINE
8
BLACK
6
CONTINUOUS
10
-3.94359
20
5.83435
11
-3.94228
21
5.8342
0
LINE
8
BLACK
6
CONTINUOUS
10
-3.94228
20
5.8342
11
-3.9419
21
5.83396
0
LINE
8
BLACK
6
CONTINUOUS
10
-3.9419
20
5.83396
11
-3.94145
21
5.83386
0
LINE
8
BLACK
6
CONTINUOUS
10
-3.94145
20
5.83386
11
-3.94043
21
5.83304
0
LINE
8
BLACK
6
CONTINUOUS
10
-3.94043
20
5.83304
11
-3.93931
21
5.83234
0
LINE
8
BLACK
6
CONTINUOUS
10
-3.93931
20
5.83234
11
-3.91146
21
5.80449
0
LINE
8
BLACK
6
CONTINUOUS
10
-3.91146
20
5.80449
11
-3.90748
21
5.80512
0
LINE
8
BLACK
6
CONTINUOUS
10
-3.90748
20
5.80512
11
-3.90261
21
5.80435
0
LINE
8
BLACK
6
CONTINUOUS
10
-3.90261
20
5.80435
11
-3.89822
21
5.80211
0
LINE
8
BLACK
6
CONTINUOUS
10
-3.89822
20
5.80211
11
-3.89474
21
5.79863
0
LINE
8
BLACK
6
CONTINUOUS
10
-3.89474
20
5.79863
11
-3.8925
21
5.79424
0
LINE
8
BLACK
6
CONTINUOUS
10
-3.8925
20
5.79424
11
-3.89173
21
5.78937
0
LINE
8
BLACK
6
CONTINUOUS
10
-3.89173
20
5.78937
11
-3.8925
21
5.7845
0
LINE
8
BLACK
6
CONTINUOUS
10
-3.8925
20
5.7845
11
-3.89474
21
5.78011
0
LINE
8
BLACK
6
CONTINUOUS
10
-3.89474
20
5.78011
11
-3.89822
21
5.77663
0
LINE
8
BLACK
6
CONTINUOUS
10
-3.89822
20
5.77663
11
-3.90261
21
5.77439
0
LINE
8
BLACK
6
CONTINUOUS
10
-3.90261
20
5.77439
11
-3.90748
21
5.77362
0
LINE
8
BLACK
6
CONTINUOUS
10
-3.90748
20
5.77362
11
-3.91235
21
5.77439
0
LINE
8
BLACK
6
CONTINUOUS
10
-3.91235
20
5.77439
11
-3.91674
21
5.77663
0
LINE
8
BLACK
6
CONTINUOUS
10
-3.91674
20
5.77663
11
-3.92022
21
5.78011
0
LINE
8
BLACK
6
CONTINUOUS
10
-3.92022
20
5.78011
11
-3.92246
21
5.7845
0
LINE
8
BLACK
6
CONTINUOUS
10
-3.92246
20
5.7845
11
-3.92323
21
5.78937
0
LINE
8
BLACK
6
CONTINUOUS
10
-3.92323
20
5.78937
11
-3.9226
21
5.79335
0
LINE
8
BLACK
6
CONTINUOUS
10
-3.9226
20
5.79335
11
-3.94814
21
5.8189
0
LINE
8
BLACK
6
CONTINUOUS
10
-3.94814
20
5.8189
11
-4.01789
21
5.8189
0
LINE
8
BLACK
6
CONTINUOUS
10
-4.01789
20
5.8189
11
-4.06169
21
5.79789
0
LINE
8
BLACK
6
CONTINUOUS
10
-4.06169
20
5.79789
11
-4.06338
21
5.79751
0
LINE
8
BLACK
6
CONTINUOUS
10
-4.06338
20
5.79751
11
-4.06508
21
5.79713
0
LINE
8
BLACK
6
CONTINUOUS
10
-4.06508
20
5.79713
11
-4.115
21
5.79713
0
LINE
8
BLACK
6
CONTINUOUS
10
-4.115
20
5.79713
11
-4.115
21
5.74785
0
LINE
8
BLACK
6
CONTINUOUS
10
-4.115
20
5.74785
11
-4.11517
21
5.74688
0
LINE
8
BLACK
6
CONTINUOUS
10
-4.11517
20
5.74688
11
-4.11537
21
5.74632
0
LINE
8
BLACK
6
CONTINUOUS
10
-4.11537
20
5.74632
11
-4.1162
21
5.7393
0
LINE
8
BLACK
6
CONTINUOUS
10
-4.1162
20
5.7393
11
-4.11546
21
5.73227
0
LINE
8
BLACK
6
CONTINUOUS
10
-4.11546
20
5.73227
11
-4.11541
21
5.73212
0
LINE
8
BLACK
6
CONTINUOUS
10
-4.11541
20
5.73212
11
-4.11541
21
5.73212
0
LINE
8
BLACK
6
CONTINUOUS
10
-4.11541
20
5.73212
11
-4.11516
21
5.73137
0
LINE
8
BLACK
6
CONTINUOUS
10
-4.11516
20
5.73137
11
-4.115
21
5.73043
0
LINE
8
BLACK
6
CONTINUOUS
10
-4.115
20
5.73043
11
-4.115
21
5.64024
0
LINE
8
BLACK
6
CONTINUOUS
10
-4.115
20
5.64024
11
-4.11517
21
5.63926
0
LINE
8
BLACK
6
CONTINUOUS
10
-4.11517
20
5.63926
11
-4.11537
21
5.63871
0
LINE
8
BLACK
6
CONTINUOUS
10
-4.11537
20
5.63871
11
-4.1162
21
5.63169
0
LINE
8
BLACK
6
CONTINUOUS
10
-4.1162
20
5.63169
11
-4.11546
21
5.62466
0
LINE
8
BLACK
6
CONTINUOUS
10
-4.11546
20
5.62466
11
-4.11541
21
5.62451
0
LINE
8
BLACK
6
CONTINUOUS
10
-4.11541
20
5.62451
11
-4.11541
21
5.62451
0
LINE
8
BLACK
6
CONTINUOUS
10
-4.11541
20
5.62451
11
-4.11516
21
5.62375
0
LINE
8
BLACK
6
CONTINUOUS
10
-4.11516
20
5.62375
11
-4.115
21
5.62282
0
LINE
8
BLACK
6
CONTINUOUS
10
-4.115
20
5.62282
11
-4.115
21
5.61317
0
LINE
8
BLACK
6
CONTINUOUS
10
-4.115
20
5.61317
11
-4.11568
21
5.6113
0
LINE
8
BLACK
6
CONTINUOUS
10
-4.11568
20
5.6113
11
-4.11741
21
5.6103
0
LINE
8
BLACK
6
CONTINUOUS
10
-4.11741
20
5.6103
11
-4.11791
21
5.61026
0
LINE
8
BLACK
6
CONTINUOUS
10
-4.11791
20
5.61026
11
-4.11953
21
5.61026
0
LINE
8
BLACK
6
CONTINUOUS
10
-4.11953
20
5.61026
11
-4.12141
21
5.61094
0
LINE
8
BLACK
6
CONTINUOUS
10
-4.12141
20
5.61094
11
-4.12159
21
5.61111
0
LINE
8
BLACK
6
CONTINUOUS
10
-4.12159
20
5.61111
11
-4.22898
21
5.7185
0
LINE
8
BLACK
6
CONTINUOUS
10
-4.22898
20
5.7185
11
-4.22937
21
5.71898
0
LINE
8
BLACK
6
CONTINUOUS
10
-4.22937
20
5.71898
11
-4.22952
21
5.71921
0
LINE
8
BLACK
6
CONTINUOUS
10
-4.22952
20
5.71921
11
-4.22952
21
5.71921
0
LINE
8
BLACK
6
CONTINUOUS
10
-4.22952
20
5.71921
11
-4.22965
21
5.71942
0
LINE
8
BLACK
6
CONTINUOUS
10
-4.22965
20
5.71942
11
-4.23069
21
5.72023
0
LINE
8
BLACK
6
CONTINUOUS
10
-4.23069
20
5.72023
11
-4.23094
21
5.72046
0
LINE
8
BLACK
6
CONTINUOUS
10
-4.23094
20
5.72046
11
-4.23105
21
5.72057
0
LINE
8
BLACK
6
CONTINUOUS
10
-4.23105
20
5.72057
11
-4.23115
21
5.72064
0
LINE
8
BLACK
6
CONTINUOUS
10
-4.23115
20
5.72064
11
-4.23115
21
5.72064
0
LINE
8
BLACK
6
CONTINUOUS
10
-4.23115
20
5.72064
11
-4.23166
21
5.721
0
LINE
8
BLACK
6
CONTINUOUS
10
-4.23166
20
5.721
11
-4.23177
21
5.72108
0
LINE
8
BLACK
6
CONTINUOUS
10
-4.23177
20
5.72108
11
-4.23326
21
5.72226
0
LINE
8
BLACK
6
CONTINUOUS
10
-4.23326
20
5.72226
11
-4.23349
21
5.72234
0
LINE
8
BLACK
6
CONTINUOUS
10
-4.23349
20
5.72234
11
-4.23353
21
5.72236
0
LINE
8
BLACK
6
CONTINUOUS
10
-4.23353
20
5.72236
11
-4.23356
21
5.72238
0
LINE
8
BLACK
6
CONTINUOUS
10
-4.23356
20
5.72238
11
-4.23358
21
5.72239
0
LINE
8
BLACK
6
CONTINUOUS
10
-4.23358
20
5.72239
11
-4.23361
21
5.7224
0
LINE
8
BLACK
6
CONTINUOUS
10
-4.23361
20
5.7224
11
-4.23365
21
5.72242
0
LINE
8
BLACK
6
CONTINUOUS
10
-4.23365
20
5.72242
11
-4.23385
21
5.72256
0
LINE
8
BLACK
6
CONTINUOUS
10
-4.23385
20
5.72256
11
-4.23567
21
5.72311
0
LINE
8
BLACK
6
CONTINUOUS
10
-4.23567
20
5.72311
11
-4.2358
21
5.72315
0
LINE
8
BLACK
6
CONTINUOUS
10
-4.2358
20
5.72315
11
-4.23642
21
5.72337
0
LINE
8
BLACK
6
CONTINUOUS
10
-4.23642
20
5.72337
11
-4.23759
21
5.72378
0
LINE
8
BLACK
6
CONTINUOUS
10
-4.23759
20
5.72378
11
-4.2378
21
5.7238
0
LINE
8
BLACK
6
CONTINUOUS
10
-4.2378
20
5.7238
11
-4.23785
21
5.7238
0
LINE
8
BLACK
6
CONTINUOUS
10
-4.23785
20
5.7238
11
-4.23803
21
5.72381
0
LINE
8
BLACK
6
CONTINUOUS
10
-4.23803
20
5.72381
11
-4.23825
21
5.72388
0
LINE
8
BLACK
6
CONTINUOUS
10
-4.23825
20
5.72388
11
-4.23849
21
5.72387
0
LINE
8
BLACK
6
CONTINUOUS
10
-4.23849
20
5.72387
11
-4.23849
21
5.72387
0
LINE
8
BLACK
6
CONTINUOUS
10
-4.23849
20
5.72387
11
-4.24024
21
5.7238
0
LINE
8
BLACK
6
CONTINUOUS
10
-4.24024
20
5.7238
11
-4.24035
21
5.7238
0
LINE
8
BLACK
6
CONTINUOUS
10
-4.24035
20
5.7238
11
-4.35935
21
5.7238
0
LINE
8
BLACK
6
CONTINUOUS
10
-4.35935
20
5.7238
11
-4.36122
21
5.72448
0
LINE
8
BLACK
6
CONTINUOUS
10
-4.36122
20
5.72448
11
-4.36166
21
5.72494
0
LINE
8
BLACK
6
CONTINUOUS
10
-4.36166
20
5.72494
11
-4.36176
21
5.72506
0
LINE
8
BLACK
6
CONTINUOUS
10
-4.36176
20
5.72506
11
-4.36314
21
5.72686
0
LINE
8
BLACK
6
CONTINUOUS
10
-4.36314
20
5.72686
11
-4.36605
21
5.72909
0
LINE
8
BLACK
6
CONTINUOUS
10
-4.36605
20
5.72909
11
-4.36793
21
5.73053
0
LINE
8
BLACK
6
CONTINUOUS
10
-4.36793
20
5.73053
11
-4.36793
21
5.73053
0
LINE
8
BLACK
6
CONTINUOUS
10
-4.36793
20
5.73053
11
-4.36808
21
5.73065
0
LINE
8
BLACK
6
CONTINUOUS
10
-4.36808
20
5.73065
11
-4.37383
21
5.73303
0
LINE
8
BLACK
6
CONTINUOUS
10
-4.37383
20
5.73303
11
-4.37402
21
5.73306
0
LINE
8
BLACK
6
CONTINUOUS
10
-4.37402
20
5.73306
11
-4.37402
21
5.73306
0
LINE
8
BLACK
6
CONTINUOUS
10
-4.37402
20
5.73306
11
-4.37981
21
5.73382
0
LINE
8
BLACK
6
CONTINUOUS
10
-4.37981
20
5.73382
11
-4.38
21
5.73385
0
LINE
8
BLACK
6
CONTINUOUS
10
-4.38
20
5.73385
11
-4.38019
21
5.73382
0
LINE
8
BLACK
6
CONTINUOUS
10
-4.38019
20
5.73382
11
-4.38598
21
5.73306
0
LINE
8
BLACK
6
CONTINUOUS
10
-4.38598
20
5.73306
11
-4.38598
21
5.73306
0
LINE
8
BLACK
6
CONTINUOUS
10
-4.38598
20
5.73306
11
-4.38617
21
5.73303
0
LINE
8
BLACK
6
CONTINUOUS
10
-4.38617
20
5.73303
11
-4.39192
21
5.73065
0
LINE
8
BLACK
6
CONTINUOUS
10
-4.39192
20
5.73065
11
-4.39207
21
5.73053
0
LINE
8
BLACK
6
CONTINUOUS
10
-4.39207
20
5.73053
11
-4.39207
21
5.73053
0
LINE
8
BLACK
6
CONTINUOUS
10
-4.39207
20
5.73053
11
-4.39395
21
5.72909
0
LINE
8
BLACK
6
CONTINUOUS
10
-4.39395
20
5.72909
11
-4.39686
21
5.72686
0
LINE
8
BLACK
6
CONTINUOUS
10
-4.39686
20
5.72686
11
-4.39824
21
5.72506
0
LINE
8
BLACK
6
CONTINUOUS
10
-4.39824
20
5.72506
11
-4.39834
21
5.72494
0
LINE
8
BLACK
6
CONTINUOUS
10
-4.39834
20
5.72494
11
-4.40002
21
5.72387
0
LINE
8
BLACK
6
CONTINUOUS
10
-4.40002
20
5.72387
11
-4.40065
21
5.7238
0
LINE
8
BLACK
6
CONTINUOUS
10
-4.40065
20
5.7238
11
-4.68935
21
5.7238
0
LINE
8
BLACK
6
CONTINUOUS
10
-4.68935
20
5.7238
11
-4.69122
21
5.72448
0
LINE
8
BLACK
6
CONTINUOUS
10
-4.69122
20
5.72448
11
-4.69166
21
5.72494
0
LINE
8
BLACK
6
CONTINUOUS
10
-4.69166
20
5.72494
11
-4.69176
21
5.72506
0
LINE
8
BLACK
6
CONTINUOUS
10
-4.69176
20
5.72506
11
-4.69314
21
5.72686
0
LINE
8
BLACK
6
CONTINUOUS
10
-4.69314
20
5.72686
11
-4.69605
21
5.72909
0
LINE
8
BLACK
6
CONTINUOUS
10
-4.69605
20
5.72909
11
-4.69793
21
5.73053
0
LINE
8
BLACK
6
CONTINUOUS
10
-4.69793
20
5.73053
11
-4.69793
21
5.73053
0
LINE
8
BLACK
6
CONTINUOUS
10
-4.69793
20
5.73053
11
-4.69808
21
5.73065
0
LINE
8
BLACK
6
CONTINUOUS
10
-4.69808
20
5.73065
11
-4.70383
21
5.73303
0
LINE
8
BLACK
6
CONTINUOUS
10
-4.70383
20
5.73303
11
-4.70402
21
5.73306
0
LINE
8
BLACK
6
CONTINUOUS
10
-4.70402
20
5.73306
11
-4.70402
21
5.73306
0
LINE
8
BLACK
6
CONTINUOUS
10
-4.70402
20
5.73306
11
-4.70981
21
5.73382
0
LINE
8
BLACK
6
CONTINUOUS
10
-4.70981
20
5.73382
11
-4.71
21
5.73385
0
LINE
8
BLACK
6
CONTINUOUS
10
-4.71
20
5.73385
11
-4.71019
21
5.73382
0
LINE
8
BLACK
6
CONTINUOUS
10
-4.71019
20
5.73382
11
-4.71598
21
5.73306
0
LINE
8
BLACK
6
CONTINUOUS
10
-4.71598
20
5.73306
11
-4.71598
21
5.73306
0
LINE
8
BLACK
6
CONTINUOUS
10
-4.71598
20
5.73306
11
-4.71617
21
5.73303
0
LINE
8
BLACK
6
CONTINUOUS
10
-4.71617
20
5.73303
11
-4.72192
21
5.73065
0
LINE
8
BLACK
6
CONTINUOUS
10
-4.72192
20
5.73065
11
-4.72207
21
5.73053
0
LINE
8
BLACK
6
CONTINUOUS
10
-4.72207
20
5.73053
11
-4.72207
21
5.73053
0
LINE
8
BLACK
6
CONTINUOUS
10
-4.72207
20
5.73053
11
-4.72395
21
5.72909
0
LINE
8
BLACK
6
CONTINUOUS
10
-4.72395
20
5.72909
11
-4.72686
21
5.72686
0
LINE
8
BLACK
6
CONTINUOUS
10
-4.72686
20
5.72686
11
-4.72698
21
5.72671
0
LINE
8
BLACK
6
CONTINUOUS
10
-4.72698
20
5.72671
11
-4.73053
21
5.72207
0
LINE
8
BLACK
6
CONTINUOUS
10
-4.73053
20
5.72207
11
-4.73053
21
5.72207
0
LINE
8
BLACK
6
CONTINUOUS
10
-4.73053
20
5.72207
11
-4.73065
21
5.72192
0
LINE
8
BLACK
6
CONTINUOUS
10
-4.73065
20
5.72192
11
-4.73072
21
5.72175
0
LINE
8
BLACK
6
CONTINUOUS
10
-4.73072
20
5.72175
11
-4.73072
21
5.72175
0
LINE
8
BLACK
6
CONTINUOUS
10
-4.73072
20
5.72175
11
-4.73161
21
5.71961
0
LINE
8
BLACK
6
CONTINUOUS
10
-4.73161
20
5.71961
11
-4.73296
21
5.71814
0
LINE
8
BLACK
6
CONTINUOUS
10
-4.73296
20
5.71814
11
-4.73493
21
5.71788
0
LINE
8
BLACK
6
CONTINUOUS
10
-4.73493
20
5.71788
11
-4.73636
21
5.71866
0
LINE
8
BLACK
6
CONTINUOUS
10
-4.73636
20
5.71866
11
-4.73961
21
5.72191
0
LINE
8
BLACK
6
CONTINUOUS
10
-4.73961
20
5.72191
11
-4.73961
21
5.72191
0
LINE
8
BLACK
6
CONTINUOUS
10
-4.73961
20
5.72191
11
-4.7405
21
5.7228
0
LINE
8
BLACK
6
CONTINUOUS
10
-4.7405
20
5.7228
11
-4.7407
21
5.7229
0
LINE
8
BLACK
6
CONTINUOUS
10
-4.7407
20
5.7229
11
-4.74141
21
5.72326
0
LINE
8
BLACK
6
CONTINUOUS
10
-4.74141
20
5.72326
11
-4.7418
21
5.7235
0
LINE
8
BLACK
6
CONTINUOUS
10
-4.7418
20
5.7235
11
-4.74245
21
5.72397
0
LINE
8
BLACK
6
CONTINUOUS
10
-4.74245
20
5.72397
11
-4.74245
21
5.72397
0
LINE
8
BLACK
6
CONTINUOUS
10
-4.74245
20
5.72397
11
-4.74263
21
5.72411
0
LINE
8
BLACK
6
CONTINUOUS
10
-4.74263
20
5.72411
11
-4.74285
21
5.72418
0
LINE
8
BLACK
6
CONTINUOUS
10
-4.74285
20
5.72418
11
-4.74285
21
5.72418
0
LINE
8
BLACK
6
CONTINUOUS
10
-4.74285
20
5.72418
11
-4.74361
21
5.72442
0
LINE
8
BLACK
6
CONTINUOUS
10
-4.74361
20
5.72442
11
-4.74403
21
5.7246
0
LINE
8
BLACK
6
CONTINUOUS
10
-4.74403
20
5.7246
11
-4.74474
21
5.72496
0
LINE
8
BLACK
6
CONTINUOUS
10
-4.74474
20
5.72496
11
-4.74495
21
5.72506
0
LINE
8
BLACK
6
CONTINUOUS
10
-4.74495
20
5.72506
11
-4.74567
21
5.72518
0
LINE
8
BLACK
6
CONTINUOUS
10
-4.74567
20
5.72518
11
-4.74596
21
5.72523
0
LINE
8
BLACK
6
CONTINUOUS
10
-4.74596
20
5.72523
11
-4.74641
21
5.72533
0
LINE
8
BLACK
6
CONTINUOUS
10
-4.74641
20
5.72533
11
-4.74717
21
5.72558
0
LINE
8
BLACK
6
CONTINUOUS
10
-4.74717
20
5.72558
11
-4.74717
21
5.72558
0
LINE
8
BLACK
6
CONTINUOUS
10
-4.74717
20
5.72558
11
-4.74738
21
5.72565
0
LINE
8
BLACK
6
CONTINUOUS
10
-4.74738
20
5.72565
11
-4.76851
21
5.72565
0
LINE
8
BLACK
6
CONTINUOUS
10
-4.76851
20
5.72565
11
-4.77038
21
5.72633
0
LINE
8
BLACK
6
CONTINUOUS
10
-4.77038
20
5.72633
11
-4.77057
21
5.7265
0
LINE
8
BLACK
6
CONTINUOUS
10
-4.77057
20
5.7265
11
-4.77108
21
5.72701
0
LINE
8
BLACK
6
CONTINUOUS
10
-4.77108
20
5.72701
11
-4.77108
21
5.72701
0
LINE
8
BLACK
6
CONTINUOUS
10
-4.77108
20
5.72701
11
-4.77125
21
5.72718
0
LINE
8
BLACK
6
CONTINUOUS
10
-4.77125
20
5.72718
11
-4.77146
21
5.72728
0
LINE
8
BLACK
6
CONTINUOUS
10
-4.77146
20
5.72728
11
-4.77517
21
5.72909
0
LINE
8
BLACK
6
CONTINUOUS
10
-4.77517
20
5.72909
11
-4.77517
21
5.72909
0
LINE
8
BLACK
6
CONTINUOUS
10
-4.77517
20
5.72909
11
-4.77537
21
5.72919
0
LINE
8
BLACK
6
CONTINUOUS
10
-4.77537
20
5.72919
11
-4.77806
21
5.72959
0
LINE
8
BLACK
6
CONTINUOUS
10
-4.77806
20
5.72959
11
-4.8358
21
5.72959
0
LINE
8
BLACK
6
CONTINUOUS
10
-4.8358
20
5.72959
11
-4.8359
21
5.72957
0
LINE
8
BLACK
6
CONTINUOUS
10
-4.8359
20
5.72957
11
-4.83828
21
5.72922
0
LINE
8
BLACK
6
CONTINUOUS
10
-4.83828
20
5.72922
11
-4.83828
21
5.72922
0
LINE
8
BLACK
6
CONTINUOUS
10
-4.83828
20
5.72922
11
-4.83851
21
5.72919
0
LINE
8
BLACK
6
CONTINUOUS
10
-4.83851
20
5.72919
11
-4.83871
21
5.72909
0
LINE
8
BLACK
6
CONTINUOUS
10
-4.83871
20
5.72909
11
-4.83871
21
5.72909
0
LINE
8
BLACK
6
CONTINUOUS
10
-4.83871
20
5.72909
11
-4.84052
21
5.7282
0
LINE
8
BLACK
6
CONTINUOUS
10
-4.84052
20
5.7282
11
-4.84263
21
5.72716
0
LINE
8
BLACK
6
CONTINUOUS
10
-4.84263
20
5.72716
11
-4.8428
21
5.72699
0
LINE
8
BLACK
6
CONTINUOUS
10
-4.8428
20
5.72699
11
-4.8428
21
5.72699
0
LINE
8
BLACK
6
CONTINUOUS
10
-4.8428
20
5.72699
11
-4.84537
21
5.72442
0
LINE
8
BLACK
6
CONTINUOUS
10
-4.84537
20
5.72442
11
-4.84588
21
5.72391
0
LINE
8
BLACK
6
CONTINUOUS
10
-4.84588
20
5.72391
11
-4.84598
21
5.7237
0
LINE
8
BLACK
6
CONTINUOUS
10
-4.84598
20
5.7237
11
-4.8473
21
5.721
0
LINE
8
BLACK
6
CONTINUOUS
10
-4.8473
20
5.721
11
-4.8479
21
5.71978
0
LINE
8
BLACK
6
CONTINUOUS
10
-4.8479
20
5.71978
11
-4.84829
21
5.7171
0
LINE
8
BLACK
6
CONTINUOUS
10
-4.84829
20
5.7171
11
-4.84829
21
5.70267
0
LINE
8
BLACK
6
CONTINUOUS
10
-4.84829
20
5.70267
11
-4.84827
21
5.70256
0
LINE
8
BLACK
6
CONTINUOUS
10
-4.84827
20
5.70256
11
-4.84792
21
5.70018
0
LINE
8
BLACK
6
CONTINUOUS
10
-4.84792
20
5.70018
11
-4.84792
21
5.70018
0
LINE
8
BLACK
6
CONTINUOUS
10
-4.84792
20
5.70018
11
-4.84789
21
5.69996
0
LINE
8
BLACK
6
CONTINUOUS
10
-4.84789
20
5.69996
11
-4.84586
21
5.69583
0
LINE
8
BLACK
6
CONTINUOUS
10
-4.84586
20
5.69583
11
-4.84569
21
5.69566
0
LINE
8
BLACK
6
CONTINUOUS
10
-4.84569
20
5.69566
11
-4.84569
21
5.69566
0
LINE
8
BLACK
6
CONTINUOUS
10
-4.84569
20
5.69566
11
-4.84278
21
5.69276
0
LINE
8
BLACK
6
CONTINUOUS
10
-4.84278
20
5.69276
11
-4.84261
21
5.69259
0
LINE
8
BLACK
6
CONTINUOUS
10
-4.84261
20
5.69259
11
-4.8424
21
5.69248
0
LINE
8
BLACK
6
CONTINUOUS
10
-4.8424
20
5.69248
11
-4.8387
21
5.69068
0
LINE
8
BLACK
6
CONTINUOUS
10
-4.8387
20
5.69068
11
-4.83848
21
5.69057
0
LINE
8
BLACK
6
CONTINUOUS
10
-4.83848
20
5.69057
11
-4.8358
21
5.69018
0
LINE
8
BLACK
6
CONTINUOUS
10
-4.8358
20
5.69018
11
-4.77806
21
5.69018
0
LINE
8
BLACK
6
CONTINUOUS
10
-4.77806
20
5.69018
11
-4.77782
21
5.69021
0
LINE
8
BLACK
6
CONTINUOUS
10
-4.77782
20
5.69021
11
-4.77557
21
5.69054
0
LINE
8
BLACK
6
CONTINUOUS
10
-4.77557
20
5.69054
11
-4.77557
21
5.69054
0
LINE
8
BLACK
6
CONTINUOUS
10
-4.77557
20
5.69054
11
-4.77535
21
5.69058
0
LINE
8
BLACK
6
CONTINUOUS
10
-4.77535
20
5.69058
11
-4.77515
21
5.69068
0
LINE
8
BLACK
6
CONTINUOUS
10
-4.77515
20
5.69068
11
-4.77515
21
5.69068
0
LINE
8
BLACK
6
CONTINUOUS
10
-4.77515
20
5.69068
11
-4.77334
21
5.69156
0
LINE
8
BLACK
6
CONTINUOUS
10
-4.77334
20
5.69156
11
-4.77123
21
5.6926
0
LINE
8
BLACK
6
CONTINUOUS
10
-4.77123
20
5.6926
11
-4.77106
21
5.69277
0
LINE
8
BLACK
6
CONTINUOUS
10
-4.77106
20
5.69277
11
-4.77106
21
5.69277
0
LINE
8
BLACK
6
CONTINUOUS
10
-4.77106
20
5.69277
11
-4.77057
21
5.69326
0
LINE
8
BLACK
6
CONTINUOUS
10
-4.77057
20
5.69326
11
-4.76876
21
5.6941
0
LINE
8
BLACK
6
CONTINUOUS
10
-4.76876
20
5.6941
11
-4.76851
21
5.69411
0
LINE
8
BLACK
6
CONTINUOUS
10
-4.76851
20
5.69411
11
-4.75868
21
5.69411
0
LINE
8
BLACK
6
CONTINUOUS
10
-4.75868
20
5.69411
11
-4.75681
21
5.69343
0
LINE
8
BLACK
6
CONTINUOUS
10
-4.75681
20
5.69343
11
-4.75581
21
5.69171
0
LINE
8
BLACK
6
CONTINUOUS
10
-4.75581
20
5.69171
11
-4.75577
21
5.6912
0
LINE
8
BLACK
6
CONTINUOUS
10
-4.75577
20
5.6912
11
-4.75577
21
5.67913
0
LINE
8
BLACK
6
CONTINUOUS
10
-4.75577
20
5.67913
11
-4.75645
21
5.67725
0
LINE
8
BLACK
6
CONTINUOUS
10
-4.75645
20
5.67725
11
-4.75662
21
5.67707
0
LINE
8
BLACK
6
CONTINUOUS
10
-4.75662
20
5.67707
11
-4.75671
21
5.67698
0
LINE
8
BLACK
6
CONTINUOUS
10
-4.75671
20
5.67698
11
-4.75686
21
5.67686
0
LINE
8
BLACK
6
CONTINUOUS
10
-4.75686
20
5.67686
11
-4.75698
21
5.67671
0
LINE
8
BLACK
6
CONTINUOUS
10
-4.75698
20
5.67671
11
-4.76053
21
5.67207
0
LINE
8
BLACK
6
CONTINUOUS
10
-4.76053
20
5.67207
11
-4.76053
21
5.67207
0
LINE
8
BLACK
6
CONTINUOUS
10
-4.76053
20
5.67207
11
-4.76065
21
5.67192
0
LINE
8
BLACK
6
CONTINUOUS
10
-4.76065
20
5.67192
11
-4.76072
21
5.67175
0
LINE
8
BLACK
6
CONTINUOUS
10
-4.76072
20
5.67175
11
-4.76072
21
5.67175
0
LINE
8
BLACK
6
CONTINUOUS
10
-4.76072
20
5.67175
11
-4.76092
21
5.67128
0
LINE
8
BLACK
6
CONTINUOUS
10
-4.76092
20
5.67128
11
-4.76226
21
5.66981
0
LINE
8
BLACK
6
CONTINUOUS
10
-4.76226
20
5.66981
11
-4.76424
21
5.66955
0
LINE
8
BLACK
6
CONTINUOUS
10
-4.76424
20
5.66955
11
-4.76592
21
5.67062
0
LINE
8
BLACK
6
CONTINUOUS
10
-4.76592
20
5.67062
11
-4.76622
21
5.67111
0
LINE
8
BLACK
6
CONTINUOUS
10
-4.76622
20
5.67111
11
-4.7667
21
5.67207
0
LINE
8
BLACK
6
CONTINUOUS
10
-4.7667
20
5.67207
11
-4.76799
21
5.67472
0
LINE
8
BLACK
6
CONTINUOUS
10
-4.76799
20
5.67472
11
-4.76817
21
5.67489
0
LINE
8
BLACK
6
CONTINUOUS
10
-4.76817
20
5.67489
11
-4.76817
21
5.67489
0
LINE
8
BLACK
6
CONTINUOUS
10
-4.76817
20
5.67489
11
-4.77108
21
5.67779
0
LINE
8
BLACK
6
CONTINUOUS
10
-4.77108
20
5.67779
11
-4.77108
21
5.67779
0
LINE
8
BLACK
6
CONTINUOUS
10
-4.77108
20
5.67779
11
-4.77125
21
5.67796
0
LINE
8
BLACK
6
CONTINUOUS
10
-4.77125
20
5.67796
11
-4.77146
21
5.67807
0
LINE
8
BLACK
6
CONTINUOUS
10
-4.77146
20
5.67807
11
-4.77517
21
5.67988
0
LINE
8
BLACK
6
CONTINUOUS
10
-4.77517
20
5.67988
11
-4.77517
21
5.67988
0
LINE
8
BLACK
6
CONTINUOUS
10
-4.77517
20
5.67988
11
-4.77537
21
5.67998
0
LINE
8
BLACK
6
CONTINUOUS
10
-4.77537
20
5.67998
11
-4.77806
21
5.68037
0
LINE
8
BLACK
6
CONTINUOUS
10
-4.77806
20
5.68037
11
-4.8358
21
5.68037
0
LINE
8
BLACK
6
CONTINUOUS
10
-4.8358
20
5.68037
11
-4.8359
21
5.68036
0
LINE
8
BLACK
6
CONTINUOUS
10
-4.8359
20
5.68036
11
-4.83828
21
5.68001
0
LINE
8
BLACK
6
CONTINUOUS
10
-4.83828
20
5.68001
11
-4.83828
21
5.68001
0
LINE
8
BLACK
6
CONTINUOUS
10
-4.83828
20
5.68001
11
-4.83851
21
5.67997
0
LINE
8
BLACK
6
CONTINUOUS
10
-4.83851
20
5.67997
11
-4.83871
21
5.67988
0
LINE
8
BLACK
6
CONTINUOUS
10
-4.83871
20
5.67988
11
-4.83871
21
5.67987
0
LINE
8
BLACK
6
CONTINUOUS
10
-4.83871
20
5.67987
11
-4.84024
21
5.67913
0
LINE
8
BLACK
6
CONTINUOUS
10
-4.84024
20
5.67913
11
-4.84263
21
5.67795
0
LINE
8
BLACK
6
CONTINUOUS
10
-4.84263
20
5.67795
11
-4.8428
21
5.67778
0
LINE
8
BLACK
6
CONTINUOUS
10
-4.8428
20
5.67778
11
-4.8428
21
5.67778
0
LINE
8
BLACK
6
CONTINUOUS
10
-4.8428
20
5.67778
11
-4.84329
21
5.67729
0
LINE
8
BLACK
6
CONTINUOUS
10
-4.84329
20
5.67729
11
-4.84509
21
5.67645
0
LINE
8
BLACK
6
CONTINUOUS
10
-4.84509
20
5.67645
11
-4.84535
21
5.67644
0
LINE
8
BLACK
6
CONTINUOUS
10
-4.84535
20
5.67644
11
-4.8666
21
5.67644
0
LINE
8
BLACK
6
CONTINUOUS
10
-4.8666
20
5.67644
11
-4.86837
21
5.67704
0
LINE
8
BLACK
6
CONTINUOUS
10
-4.86837
20
5.67704
11
-4.86841
21
5.67707
0
LINE
8
BLACK
6
CONTINUOUS
10
-4.86841
20
5.67707
11
-4.87308
21
5.68065
0
LINE
8
BLACK
6
CONTINUOUS
10
-4.87308
20
5.68065
11
-4.87883
21
5.68303
0
LINE
8
BLACK
6
CONTINUOUS
10
-4.87883
20
5.68303
11
-4.87902
21
5.68306
0
LINE
8
BLACK
6
CONTINUOUS
10
-4.87902
20
5.68306
11
-4.87902
21
5.68306
0
LINE
8
BLACK
6
CONTINUOUS
10
-4.87902
20
5.68306
11
-4.88481
21
5.68382
0
LINE
8
BLACK
6
CONTINUOUS
10
-4.88481
20
5.68382
11
-4.885
21
5.68385
0
LINE
8
BLACK
6
CONTINUOUS
10
-4.885
20
5.68385
11
-4.88519
21
5.68382
0
LINE
8
BLACK
6
CONTINUOUS
10
-4.88519
20
5.68382
11
-4.89098
21
5.68306
0
LINE
8
BLACK
6
CONTINUOUS
10
-4.89098
20
5.68306
11
-4.89098
21
5.68306
0
LINE
8
BLACK
6
CONTINUOUS
10
-4.89098
20
5.68306
11
-4.89117
21
5.68303
0
LINE
8
BLACK
6
CONTINUOUS
10
-4.89117
20
5.68303
11
-4.89692
21
5.68065
0
LINE
8
BLACK
6
CONTINUOUS
10
-4.89692
20
5.68065
11
-4.89707
21
5.68053
0
LINE
8
BLACK
6
CONTINUOUS
10
-4.89707
20
5.68053
11
-4.89707
21
5.68053
0
LINE
8
BLACK
6
CONTINUOUS
10
-4.89707
20
5.68053
11
-4.90044
21
5.67795
0
LINE
8
BLACK
6
CONTINUOUS
10
-4.90044
20
5.67795
11
-4.90186
21
5.67686
0
LINE
8
BLACK
6
CONTINUOUS
10
-4.90186
20
5.67686
11
-4.90198
21
5.67671
0
LINE
8
BLACK
6
CONTINUOUS
10
-4.90198
20
5.67671
11
-4.90198
21
5.67671
0
LINE
8
BLACK
6
CONTINUOUS
10
-4.90198
20
5.67671
11
-4.90553
21
5.67207
0
LINE
8
BLACK
6
CONTINUOUS
10
-4.90553
20
5.67207
11
-4.90553
21
5.67207
0
LINE
8
BLACK
6
CONTINUOUS
10
-4.90553
20
5.67207
11
-4.90565
21
5.67192
0
LINE
8
BLACK
6
CONTINUOUS
10
-4.90565
20
5.67192
11
-4.90803
21
5.66617
0
LINE
8
BLACK
6
CONTINUOUS
10
-4.90803
20
5.66617
11
-4.90806
21
5.66598
0
LINE
8
BLACK
6
CONTINUOUS
10
-4.90806
20
5.66598
11
-4.90806
21
5.66598
0
LINE
8
BLACK
6
CONTINUOUS
10
-4.90806
20
5.66598
11
-4.90853
21
5.6624
0
LINE
8
BLACK
6
CONTINUOUS
10
-4.90853
20
5.6624
11
-4.90885
21
5.66
0
LINE
8
BLACK
6
CONTINUOUS
10
-4.90885
20
5.66
11
-4.90882
21
5.65981
0
LINE
8
BLACK
6
CONTINUOUS
10
-4.90882
20
5.65981
11
-4.90833
21
5.65605
0
LINE
8
BLACK
6
CONTINUOUS
10
-4.90833
20
5.65605
11
-4.90803
21
5.65383
0
LINE
8
BLACK
6
CONTINUOUS
10
-4.90803
20
5.65383
11
-4.90565
21
5.64808
0
LINE
8
BLACK
6
CONTINUOUS
10
-4.90565
20
5.64808
11
-4.90553
21
5.64793
0
LINE
8
BLACK
6
CONTINUOUS
10
-4.90553
20
5.64793
11
-4.90553
21
5.64793
0
LINE
8
BLACK
6
CONTINUOUS
10
-4.90553
20
5.64793
11
-4.90269
21
5.64422
0
LINE
8
BLACK
6
CONTINUOUS
10
-4.90269
20
5.64422
11
-4.90186
21
5.64314
0
LINE
8
BLACK
6
CONTINUOUS
10
-4.90186
20
5.64314
11
-4.90171
21
5.64302
0
LINE
8
BLACK
6
CONTINUOUS
10
-4.90171
20
5.64302
11
-4.89707
21
5.63947
0
LINE
8
BLACK
6
CONTINUOUS
10
-4.89707
20
5.63947
11
-4.89707
21
5.63947
0
LINE
8
BLACK
6
CONTINUOUS
10
-4.89707
20
5.63947
11
-4.89692
21
5.63935
0
LINE
8
BLACK
6
CONTINUOUS
10
-4.89692
20
5.63935
11
-4.89117
21
5.63697
0
LINE
8
BLACK
6
CONTINUOUS
10
-4.89117
20
5.63697
11
-4.89098
21
5.63694
0
LINE
8
BLACK
6
CONTINUOUS
10
-4.89098
20
5.63694
11
-4.89098
21
5.63694
0
LINE
8
BLACK
6
CONTINUOUS
10
-4.89098
20
5.63694
11
-4.88519
21
5.63618
0
LINE
8
BLACK
6
CONTINUOUS
10
-4.88519
20
5.63618
11
-4.885
21
5.63615
0
LINE
8
BLACK
6
CONTINUOUS
10
-4.885
20
5.63615
11
-4.88481
21
5.63618
0
LINE
8
BLACK
6
CONTINUOUS
10
-4.88481
20
5.63618
11
-4.87902
21
5.63694
0
LINE
8
BLACK
6
CONTINUOUS
10
-4.87902
20
5.63694
11
-4.87902
21
5.63694
0
LINE
8
BLACK
6
CONTINUOUS
10
-4.87902
20
5.63694
11
-4.87883
21
5.63697
0
LINE
8
BLACK
6
CONTINUOUS
10
-4.87883
20
5.63697
11
-4.87308
21
5.63935
0
LINE
8
BLACK
6
CONTINUOUS
10
-4.87308
20
5.63935
11
-4.87293
21
5.63947
0
LINE
8
BLACK
6
CONTINUOUS
10
-4.87293
20
5.63947
11
-4.87293
21
5.63947
0
LINE
8
BLACK
6
CONTINUOUS
10
-4.87293
20
5.63947
11
-4.86829
21
5.64302
0
LINE
8
BLACK
6
CONTINUOUS
10
-4.86829
20
5.64302
11
-4.86814
21
5.64314
0
LINE
8
BLACK
6
CONTINUOUS
10
-4.86814
20
5.64314
11
-4.86766
21
5.64376
0
LINE
8
BLACK
6
CONTINUOUS
10
-4.86766
20
5.64376
11
-4.86598
21
5.64483
0
LINE
8
BLACK
6
CONTINUOUS
10
-4.86598
20
5.64483
11
-4.86535
21
5.6449
0
LINE
8
BLACK
6
CONTINUOUS
10
-4.86535
20
5.6449
11
-4.84946
21
5.6449
0
LINE
8
BLACK
6
CONTINUOUS
10
-4.84946
20
5.6449
11
-4.84759
21
5.64422
0
LINE
8
BLACK
6
CONTINUOUS
10
-4.84759
20
5.64422
11
-4.84659
21
5.64249
0
LINE
8
BLACK
6
CONTINUOUS
10
-4.84659
20
5.64249
11
-4.84694
21
5.64053
0
LINE
8
BLACK
6
CONTINUOUS
10
-4.84694
20
5.64053
11
-4.84798
21
5.63948
0
LINE
8
BLACK
6
CONTINUOUS
10
-4.84798
20
5.63948
11
-4.85033
21
5.63809
0
LINE
8
BLACK
6
CONTINUOUS
10
-4.85033
20
5.63809
11
-4.85062
21
5.63786
0
LINE
8
BLACK
6
CONTINUOUS
10
-4.85062
20
5.63786
11
-4.85499
21
5.6335
0
LINE
8
BLACK
6
CONTINUOUS
10
-4.85499
20
5.6335
11
-4.85521
21
5.63321
0
LINE
8
BLACK
6
CONTINUOUS
10
-4.85521
20
5.63321
11
-4.85836
21
5.62789
0
LINE
8
BLACK
6
CONTINUOUS
10
-4.85836
20
5.62789
11
-4.8585
21
5.62756
0
LINE
8
BLACK
6
CONTINUOUS
10
-4.8585
20
5.62756
11
-4.86013
21
5.62195
0
LINE
8
BLACK
6
CONTINUOUS
10
-4.86013
20
5.62195
11
-4.8601
21
5.62153
0
LINE
8
BLACK
6
CONTINUOUS
10
-4.8601
20
5.62153
11
-4.86006
21
5.62148
0
LINE
8
BLACK
6
CONTINUOUS
10
-4.86006
20
5.62148
11
-4.85994
21
5.62146
0
LINE
8
BLACK
6
CONTINUOUS
10
-4.85994
20
5.62146
11
-4.83872
21
5.62146
0
LINE
8
BLACK
6
CONTINUOUS
10
-4.83872
20
5.62146
11
-4.83866
21
5.62154
0
LINE
8
BLACK
6
CONTINUOUS
10
-4.83866
20
5.62154
11
-4.83675
21
5.62282
0
LINE
8
BLACK
6
CONTINUOUS
10
-4.83675
20
5.62282
11
-4.83449
21
5.62327
0
LINE
8
BLACK
6
CONTINUOUS
10
-4.83449
20
5.62327
11
-4.77937
21
5.62327
0
LINE
8
BLACK
6
CONTINUOUS
10
-4.77937
20
5.62327
11
-4.77711
21
5.62282
0
LINE
8
BLACK
6
CONTINUOUS
10
-4.77711
20
5.62282
11
-4.77519
21
5.62154
0
LINE
8
BLACK
6
CONTINUOUS
10
-4.77519
20
5.62154
11
-4.77514
21
5.62146
0
LINE
8
BLACK
6
CONTINUOUS
10
-4.77514
20
5.62146
11
-4.7541
21
5.62146
0
LINE
8
BLACK
6
CONTINUOUS
10
-4.7541
20
5.62146
11
-4.7537
21
5.6216
0
LINE
8
BLACK
6
CONTINUOUS
10
-4.7537
20
5.6216
11
-4.75367
21
5.62166
0
LINE
8
BLACK
6
CONTINUOUS
10
-4.75367
20
5.62166
11
-4.75368
21
5.62178
0
LINE
8
BLACK
6
CONTINUOUS
10
-4.75368
20
5.62178
11
-4.75536
21
5.62756
0
LINE
8
BLACK
6
CONTINUOUS
10
-4.75536
20
5.62756
11
-4.7555
21
5.62789
0
LINE
8
BLACK
6
CONTINUOUS
10
-4.7555
20
5.62789
11
-4.75864
21
5.63321
0
LINE
8
BLACK
6
CONTINUOUS
10
-4.75864
20
5.63321
11
-4.75887
21
5.6335
0
LINE
8
BLACK
6
CONTINUOUS
10
-4.75887
20
5.6335
11
-4.76324
21
5.63786
0
LINE
8
BLACK
6
CONTINUOUS
10
-4.76324
20
5.63786
11
-4.76352
21
5.63809
0
LINE
8
BLACK
6
CONTINUOUS
10
-4.76352
20
5.63809
11
-4.76846
21
5.64101
0
LINE
8
BLACK
6
CONTINUOUS
10
-4.76846
20
5.64101
11
-4.76973
21
5.64255
0
LINE
8
BLACK
6
CONTINUOUS
10
-4.76973
20
5.64255
11
-4.76971
21
5.64454
0
LINE
8
BLACK
6
CONTINUOUS
10
-4.76971
20
5.64454
11
-4.76904
21
5.64558
0
LINE
8
BLACK
6
CONTINUOUS
10
-4.76904
20
5.64558
11
-4.76815
21
5.64647
0
LINE
8
BLACK
6
CONTINUOUS
10
-4.76815
20
5.64647
11
-4.76815
21
5.64647
0
LINE
8
BLACK
6
CONTINUOUS
10
-4.76815
20
5.64647
11
-4.76798
21
5.64664
0
LINE
8
BLACK
6
CONTINUOUS
10
-4.76798
20
5.64664
11
-4.76653
21
5.64961
0
LINE
8
BLACK
6
CONTINUOUS
10
-4.76653
20
5.64961
11
-4.76509
21
5.651
0
LINE
8
BLACK
6
CONTINUOUS
10
-4.76509
20
5.651
11
-4.7631
21
5.65113
0
LINE
8
BLACK
6
CONTINUOUS
10
-4.7631
20
5.65113
11
-4.76149
21
5.64996
0
LINE
8
BLACK
6
CONTINUOUS
10
-4.76149
20
5.64996
11
-4.76122
21
5.64945
0
LINE
8
BLACK
6
CONTINUOUS
10
-4.76122
20
5.64945
11
-4.76065
21
5.64808
0
LINE
8
BLACK
6
CONTINUOUS
10
-4.76065
20
5.64808
11
-4.76053
21
5.64793
0
LINE
8
BLACK
6
CONTINUOUS
10
-4.76053
20
5.64793
11
-4.76053
21
5.64793
0
LINE
8
BLACK
6
CONTINUOUS
10
-4.76053
20
5.64793
11
-4.75769
21
5.64422
0
LINE
8
BLACK
6
CONTINUOUS
10
-4.75769
20
5.64422
11
-4.75686
21
5.64314
0
LINE
8
BLACK
6
CONTINUOUS
10
-4.75686
20
5.64314
11
-4.75671
21
5.64302
0
LINE
8
BLACK
6
CONTINUOUS
10
-4.75671
20
5.64302
11
-4.75207
21
5.63947
0
LINE
8
BLACK
6
CONTINUOUS
10
-4.75207
20
5.63947
11
-4.75207
21
5.63947
0
LINE
8
BLACK
6
CONTINUOUS
10
-4.75207
20
5.63947
11
-4.75192
21
5.63935
0
LINE
8
BLACK
6
CONTINUOUS
10
-4.75192
20
5.63935
11
-4.74617
21
5.63697
0
LINE
8
BLACK
6
CONTINUOUS
10
-4.74617
20
5.63697
11
-4.74598
21
5.63694
0
LINE
8
BLACK
6
CONTINUOUS
10
-4.74598
20
5.63694
11
-4.74598
21
5.63694
0
LINE
8
BLACK
6
CONTINUOUS
10
-4.74598
20
5.63694
11
-4.74019
21
5.63618
0
LINE
8
BLACK
6
CONTINUOUS
10
-4.74019
20
5.63618
11
-4.74
21
5.63615
0
LINE
8
BLACK
6
CONTINUOUS
10
-4.74
20
5.63615
11
-4.73981
21
5.63618
0
LINE
8
BLACK
6
CONTINUOUS
10
-4.73981
20
5.63618
11
-4.73402
21
5.63694
0
LINE
8
BLACK
6
CONTINUOUS
10
-4.73402
20
5.63694
11
-4.73402
21
5.63694
0
LINE
8
BLACK
6
CONTINUOUS
10
-4.73402
20
5.63694
11
-4.73383
21
5.63697
0
LINE
8
BLACK
6
CONTINUOUS
10
-4.73383
20
5.63697
11
-4.72808
21
5.63935
0
LINE
8
BLACK
6
CONTINUOUS
10
-4.72808
20
5.63935
11
-4.72793
21
5.63947
0
LINE
8
BLACK
6
CONTINUOUS
10
-4.72793
20
5.63947
11
-4.72793
21
5.63947
0
LINE
8
BLACK
6
CONTINUOUS
10
-4.72793
20
5.63947
11
-4.72329
21
5.64302
0
LINE
8
BLACK
6
CONTINUOUS
10
-4.72329
20
5.64302
11
-4.72314
21
5.64314
0
LINE
8
BLACK
6
CONTINUOUS
10
-4.72314
20
5.64314
11
-4.72166
21
5.64506
0
LINE
8
BLACK
6
CONTINUOUS
10
-4.72166
20
5.64506
11
-4.71998
21
5.64613
0
LINE
8
BLACK
6
CONTINUOUS
10
-4.71998
20
5.64613
11
-4.71935
21
5.6462
0
LINE
8
BLACK
6
CONTINUOUS
10
-4.71935
20
5.6462
11
-4.31065
21
5.6462
0
LINE
8
BLACK
6
CONTINUOUS
10
-4.31065
20
5.6462
11
-4.30878
21
5.64552
0
LINE
8
BLACK
6
CONTINUOUS
10
-4.30878
20
5.64552
11
-4.30834
21
5.64506
0
LINE
8
BLACK
6
CONTINUOUS
10
-4.30834
20
5.64506
11
-4.30686
21
5.64314
0
LINE
8
BLACK
6
CONTINUOUS
10
-4.30686
20
5.64314
11
-4.30671
21
5.64302
0
LINE
8
BLACK
6
CONTINUOUS
10
-4.30671
20
5.64302
11
-4.30207
21
5.63947
0
LINE
8
BLACK
6
CONTINUOUS
10
-4.30207
20
5.63947
11
-4.30207
21
5.63947
0
LINE
8
BLACK
6
CONTINUOUS
10
-4.30207
20
5.63947
11
-4.30192
21
5.63935
0
LINE
8
BLACK
6
CONTINUOUS
10
-4.30192
20
5.63935
11
-4.29617
21
5.63697
0
LINE
8
BLACK
6
CONTINUOUS
10
-4.29617
20
5.63697
11
-4.29598
21
5.63694
0
LINE
8
BLACK
6
CONTINUOUS
10
-4.29598
20
5.63694
11
-4.29598
21
5.63694
0
LINE
8
BLACK
6
CONTINUOUS
10
-4.29598
20
5.63694
11
-4.29019
21
5.63618
0
LINE
8
BLACK
6
CONTINUOUS
10
-4.29019
20
5.63618
11
-4.29
21
5.63615
0
LINE
8
BLACK
6
CONTINUOUS
10
-4.29
20
5.63615
11
-4.28981
21
5.63618
0
LINE
8
BLACK
6
CONTINUOUS
10
-4.28981
20
5.63618
11
-4.28402
21
5.63694
0
LINE
8
BLACK
6
CONTINUOUS
10
-4.28402
20
5.63694
11
-4.28402
21
5.63694
0
LINE
8
BLACK
6
CONTINUOUS
10
-4.28402
20
5.63694
11
-4.28383
21
5.63697
0
LINE
8
BLACK
6
CONTINUOUS
10
-4.28383
20
5.63697
11
-4.27808
21
5.63935
0
LINE
8
BLACK
6
CONTINUOUS
10
-4.27808
20
5.63935
11
-4.27793
21
5.63947
0
LINE
8
BLACK
6
CONTINUOUS
10
-4.27793
20
5.63947
11
-4.27793
21
5.63947
0
LINE
8
BLACK
6
CONTINUOUS
10
-4.27793
20
5.63947
11
-4.27329
21
5.64302
0
LINE
8
BLACK
6
CONTINUOUS
10
-4.27329
20
5.64302
11
-4.27314
21
5.64314
0
LINE
8
BLACK
6
CONTINUOUS
10
-4.27314
20
5.64314
11
-4.27231
21
5.64422
0
LINE
8
BLACK
6
CONTINUOUS
10
-4.27231
20
5.64422
11
-4.26947
21
5.64793
0
LINE
8
BLACK
6
CONTINUOUS
10
-4.26947
20
5.64793
11
-4.26947
21
5.64793
0
LINE
8
BLACK
6
CONTINUOUS
10
-4.26947
20
5.64793
11
-4.26935
21
5.64808
0
LINE
8
BLACK
6
CONTINUOUS
10
-4.26935
20
5.64808
11
-4.26697
21
5.65383
0
LINE
8
BLACK
6
CONTINUOUS
10
-4.26697
20
5.65383
11
-4.26667
21
5.65605
0
LINE
8
BLACK
6
CONTINUOUS
10
-4.26667
20
5.65605
11
-4.26618
21
5.65981
0
LINE
8
BLACK
6
CONTINUOUS
10
-4.26618
20
5.65981
11
-4.26615
21
5.66
0
LINE
8
BLACK
6
CONTINUOUS
10
-4.26615
20
5.66
11
-4.26647
21
5.6624
0
LINE
8
BLACK
6
CONTINUOUS
10
-4.26647
20
5.6624
11
-4.26694
21
5.66598
0
LINE
8
BLACK
6
CONTINUOUS
10
-4.26694
20
5.66598
11
-4.26694
21
5.66598
0
LINE
8
BLACK
6
CONTINUOUS
10
-4.26694
20
5.66598
11
-4.26697
21
5.66617
0
LINE
8
BLACK
6
CONTINUOUS
10
-4.26697
20
5.66617
11
-4.26935
21
5.67192
0
LINE
8
BLACK
6
CONTINUOUS
10
-4.26935
20
5.67192
11
-4.26947
21
5.67207
0
LINE
8
BLACK
6
CONTINUOUS
10
-4.26947
20
5.67207
11
-4.26947
21
5.67207
0
LINE
8
BLACK
6
CONTINUOUS
10
-4.26947
20
5.67207
11
-4.27302
21
5.67671
0
LINE
8
BLACK
6
CONTINUOUS
10
-4.27302
20
5.67671
11
-4.27302
21
5.67671
0
LINE
8
BLACK
6
CONTINUOUS
10
-4.27302
20
5.67671
11
-4.27314
21
5.67686
0
LINE
8
BLACK
6
CONTINUOUS
10
-4.27314
20
5.67686
11
-4.27456
21
5.67795
0
LINE
8
BLACK
6
CONTINUOUS
10
-4.27456
20
5.67795
11
-4.27793
21
5.68053
0
LINE
8
BLACK
6
CONTINUOUS
10
-4.27793
20
5.68053
11
-4.27793
21
5.68053
0
LINE
8
BLACK
6
CONTINUOUS
10
-4.27793
20
5.68053
11
-4.27808
21
5.68065
0
LINE
8
BLACK
6
CONTINUOUS
10
-4.27808
20
5.68065
11
-4.28383
21
5.68303
0
LINE
8
BLACK
6
CONTINUOUS
10
-4.28383
20
5.68303
11
-4.28402
21
5.68306
0
LINE
8
BLACK
6
CONTINUOUS
10
-4.28402
20
5.68306
11
-4.28402
21
5.68306
0
LINE
8
BLACK
6
CONTINUOUS
10
-4.28402
20
5.68306
11
-4.28981
21
5.68382
0
LINE
8
BLACK
6
CONTINUOUS
10
-4.28981
20
5.68382
11
-4.29
21
5.68385
0
LINE
8
BLACK
6
CONTINUOUS
10
-4.29
20
5.68385
11
-4.29019
21
5.68382
0
LINE
8
BLACK
6
CONTINUOUS
10
-4.29019
20
5.68382
11
-4.29598
21
5.68306
0
LINE
8
BLACK
6
CONTINUOUS
10
-4.29598
20
5.68306
11
-4.29598
21
5.68306
0
LINE
8
BLACK
6
CONTINUOUS
10
-4.29598
20
5.68306
11
-4.29617
21
5.68303
0
LINE
8
BLACK
6
CONTINUOUS
10
-4.29617
20
5.68303
11
-4.30192
21
5.68065
0
LINE
8
BLACK
6
CONTINUOUS
10
-4.30192
20
5.68065
11
-4.30207
21
5.68053
0
LINE
8
BLACK
6
CONTINUOUS
10
-4.30207
20
5.68053
11
-4.30207
21
5.68053
0
LINE
8
BLACK
6
CONTINUOUS
10
-4.30207
20
5.68053
11
-4.30544
21
5.67795
0
LINE
8
BLACK
6
CONTINUOUS
10
-4.30544
20
5.67795
11
-4.30686
21
5.67686
0
LINE
8
BLACK
6
CONTINUOUS
10
-4.30686
20
5.67686
11
-4.30698
21
5.67671
0
LINE
8
BLACK
6
CONTINUOUS
10
-4.30698
20
5.67671
11
-4.30698
21
5.67671
0
LINE
8
BLACK
6
CONTINUOUS
10
-4.30698
20
5.67671
11
-4.30834
21
5.67494
0
LINE
8
BLACK
6
CONTINUOUS
10
-4.30834
20
5.67494
11
-4.31002
21
5.67387
0
LINE
8
BLACK
6
CONTINUOUS
10
-4.31002
20
5.67387
11
-4.31065
21
5.6738
0
LINE
8
BLACK
6
CONTINUOUS
10
-4.31065
20
5.6738
11
-4.71935
21
5.6738
0
LINE
8
BLACK
6
CONTINUOUS
10
-4.71935
20
5.6738
11
-4.72122
21
5.67448
0
LINE
8
BLACK
6
CONTINUOUS
10
-4.72122
20
5.67448
11
-4.72166
21
5.67494
0
LINE
8
BLACK
6
CONTINUOUS
10
-4.72166
20
5.67494
11
-4.72302
21
5.67671
0
LINE
8
BLACK
6
CONTINUOUS
10
-4.72302
20
5.67671
11
-4.72314
21
5.67686
0
LINE
8
BLACK
6
CONTINUOUS
10
-4.72314
20
5.67686
11
-4.72329
21
5.67698
0
LINE
8
BLACK
6
CONTINUOUS
10
-4.72329
20
5.67698
11
-4.72338
21
5.67707
0
LINE
8
BLACK
6
CONTINUOUS
10
-4.72338
20
5.67707
11
-4.72422
21
5.67887
0
LINE
8
BLACK
6
CONTINUOUS
10
-4.72422
20
5.67887
11
-4.72423
21
5.67913
0
LINE
8
BLACK
6
CONTINUOUS
10
-4.72423
20
5.67913
11
-4.72423
21
5.68595
0
LINE
8
BLACK
6
CONTINUOUS
10
-4.72423
20
5.68595
11
-4.72355
21
5.68782
0
LINE
8
BLACK
6
CONTINUOUS
10
-4.72355
20
5.68782
11
-4.72182
21
5.68881
0
LINE
8
BLACK
6
CONTINUOUS
10
-4.72182
20
5.68881
11
-4.7202
21
5.68864
0
LINE
8
BLACK
6
CONTINUOUS
10
-4.7202
20
5.68864
11
-4.71635
21
5.68704
0
LINE
8
BLACK
6
CONTINUOUS
10
-4.71635
20
5.68704
11
-4.71617
21
5.68697
0
LINE
8
BLACK
6
CONTINUOUS
10
-4.71617
20
5.68697
11
-4.71598
21
5.68694
0
LINE
8
BLACK
6
CONTINUOUS
10
-4.71598
20
5.68694
11
-4.71598
21
5.68694
0
LINE
8
BLACK
6
CONTINUOUS
10
-4.71598
20
5.68694
11
-4.71019
21
5.68618
0
LINE
8
BLACK
6
CONTINUOUS
10
-4.71019
20
5.68618
11
-4.71
21
5.68615
0
LINE
8
BLACK
6
CONTINUOUS
10
-4.71
20
5.68615
11
-4.70981
21
5.68618
0
LINE
8
BLACK
6
CONTINUOUS
10
-4.70981
20
5.68618
11
-4.70402
21
5.68694
0
LINE
8
BLACK
6
CONTINUOUS
10
-4.70402
20
5.68694
11
-4.70402
21
5.68694
0
LINE
8
BLACK
6
CONTINUOUS
10
-4.70402
20
5.68694
11
-4.70383
21
5.68697
0
LINE
8
BLACK
6
CONTINUOUS
10
-4.70383
20
5.68697
11
-4.69808
21
5.68935
0
LINE
8
BLACK
6
CONTINUOUS
10
-4.69808
20
5.68935
11
-4.69793
21
5.68947
0
LINE
8
BLACK
6
CONTINUOUS
10
-4.69793
20
5.68947
11
-4.69793
21
5.68947
0
LINE
8
BLACK
6
CONTINUOUS
10
-4.69793
20
5.68947
11
-4.69329
21
5.69302
0
LINE
8
BLACK
6
CONTINUOUS
10
-4.69329
20
5.69302
11
-4.69314
21
5.69314
0
LINE
8
BLACK
6
CONTINUOUS
10
-4.69314
20
5.69314
11
-4.69166
21
5.69506
0
LINE
8
BLACK
6
CONTINUOUS
10
-4.69166
20
5.69506
11
-4.68998
21
5.69613
0
LINE
8
BLACK
6
CONTINUOUS
10
-4.68998
20
5.69613
11
-4.68935
21
5.6962
0
LINE
8
BLACK
6
CONTINUOUS
10
-4.68935
20
5.6962
11
-4.40065
21
5.6962
0
LINE
8
BLACK
6
CONTINUOUS
10
-4.40065
20
5.6962
11
-4.39878
21
5.69552
0
LINE
8
BLACK
6
CONTINUOUS
10
-4.39878
20
5.69552
11
-4.39834
21
5.69506
0
LINE
8
BLACK
6
CONTINUOUS
10
-4.39834
20
5.69506
11
-4.39686
21
5.69314
0
LINE
8
BLACK
6
CONTINUOUS
10
-4.39686
20
5.69314
11
-4.39671
21
5.69302
0
LINE
8
BLACK
6
CONTINUOUS
10
-4.39671
20
5.69302
11
-4.39207
21
5.68947
0
LINE
8
BLACK
6
CONTINUOUS
10
-4.39207
20
5.68947
11
-4.39207
21
5.68947
0
LINE
8
BLACK
6
CONTINUOUS
10
-4.39207
20
5.68947
11
-4.39192
21
5.68935
0
LINE
8
BLACK
6
CONTINUOUS
10
-4.39192
20
5.68935
11
-4.38617
21
5.68697
0
LINE
8
BLACK
6
CONTINUOUS
10
-4.38617
20
5.68697
11
-4.38598
21
5.68694
0
LINE
8
BLACK
6
CONTINUOUS
10
-4.38598
20
5.68694
11
-4.38598
21
5.68694
0
LINE
8
BLACK
6
CONTINUOUS
10
-4.38598
20
5.68694
11
-4.38019
21
5.68618
0
LINE
8
BLACK
6
CONTINUOUS
10
-4.38019
20
5.68618
11
-4.38
21
5.68615
0
LINE
8
BLACK
6
CONTINUOUS
10
-4.38
20
5.68615
11
-4.37981
21
5.68618
0
LINE
8
BLACK
6
CONTINUOUS
10
-4.37981
20
5.68618
11
-4.37402
21
5.68694
0
LINE
8
BLACK
6
CONTINUOUS
10
-4.37402
20
5.68694
11
-4.37402
21
5.68694
0
LINE
8
BLACK
6
CONTINUOUS
10
-4.37402
20
5.68694
11
-4.37383
21
5.68697
0
LINE
8
BLACK
6
CONTINUOUS
10
-4.37383
20
5.68697
11
-4.36808
21
5.68935
0
LINE
8
BLACK
6
CONTINUOUS
10
-4.36808
20
5.68935
11
-4.36793
21
5.68947
0
LINE
8
BLACK
6
CONTINUOUS
10
-4.36793
20
5.68947
11
-4.36793
21
5.68947
0
LINE
8
BLACK
6
CONTINUOUS
10
-4.36793
20
5.68947
11
-4.36329
21
5.69302
0
LINE
8
BLACK
6
CONTINUOUS
10
-4.36329
20
5.69302
11
-4.36314
21
5.69314
0
LINE
8
BLACK
6
CONTINUOUS
10
-4.36314
20
5.69314
11
-4.36166
21
5.69506
0
LINE
8
BLACK
6
CONTINUOUS
10
-4.36166
20
5.69506
11
-4.35998
21
5.69613
0
LINE
8
BLACK
6
CONTINUOUS
10
-4.35998
20
5.69613
11
-4.35935
21
5.6962
0
LINE
8
BLACK
6
CONTINUOUS
10
-4.35935
20
5.6962
11
-4.24692
21
5.6962
0
LINE
8
BLACK
6
CONTINUOUS
10
-4.24692
20
5.6962
11
-4.24505
21
5.69552
0
LINE
8
BLACK
6
CONTINUOUS
10
-4.24505
20
5.69552
11
-4.24486
21
5.69535
0
LINE
8
BLACK
6
CONTINUOUS
10
-4.24486
20
5.69535
11
-4.13748
21
5.58796
0
LINE
8
BLACK
6
CONTINUOUS
10
-4.13748
20
5.58796
11
-4.13709
21
5.58748
0
LINE
8
BLACK
6
CONTINUOUS
10
-4.13709
20
5.58748
11
-4.13693
21
5.58724
0
LINE
8
BLACK
6
CONTINUOUS
10
-4.13693
20
5.58724
11
-4.1368
21
5.58704
0
LINE
8
BLACK
6
CONTINUOUS
10
-4.1368
20
5.58704
11
-4.13662
21
5.58689
0
LINE
8
BLACK
6
CONTINUOUS
10
-4.13662
20
5.58689
11
-4.13661
21
5.58689
0
LINE
8
BLACK
6
CONTINUOUS
10
-4.13661
20
5.58689
11
-4.13577
21
5.58622
0
LINE
8
BLACK
6
CONTINUOUS
10
-4.13577
20
5.58622
11
-4.13551
21
5.586
0
LINE
8
BLACK
6
CONTINUOUS
10
-4.13551
20
5.586
11
-4.1354
21
5.58589
0
LINE
8
BLACK
6
CONTINUOUS
10
-4.1354
20
5.58589
11
-4.13531
21
5.58582
0
LINE
8
BLACK
6
CONTINUOUS
10
-4.13531
20
5.58582
11
-4.13531
21
5.58582
0
LINE
8
BLACK
6
CONTINUOUS
10
-4.13531
20
5.58582
11
-4.1348
21
5.58546
0
LINE
8
BLACK
6
CONTINUOUS
10
-4.1348
20
5.58546
11
-4.13469
21
5.58538
0
LINE
8
BLACK
6
CONTINUOUS
10
-4.13469
20
5.58538
11
-4.1332
21
5.5842
0
LINE
8
BLACK
6
CONTINUOUS
10
-4.1332
20
5.5842
11
-4.13297
21
5.58412
0
LINE
8
BLACK
6
CONTINUOUS
10
-4.13297
20
5.58412
11
-4.13293
21
5.58409
0
LINE
8
BLACK
6
CONTINUOUS
10
-4.13293
20
5.58409
11
-4.1329
21
5.58408
0
LINE
8
BLACK
6
CONTINUOUS
10
-4.1329
20
5.58408
11
-4.13288
21
5.58407
0
LINE
8
BLACK
6
CONTINUOUS
10
-4.13288
20
5.58407
11
-4.13285
21
5.58405
0
LINE
8
BLACK
6
CONTINUOUS
10
-4.13285
20
5.58405
11
-4.13281
21
5.58403
0
LINE
8
BLACK
6
CONTINUOUS
10
-4.13281
20
5.58403
11
-4.13261
21
5.58389
0
LINE
8
BLACK
6
CONTINUOUS
10
-4.13261
20
5.58389
11
-4.13238
21
5.58382
0
LINE
8
BLACK
6
CONTINUOUS
10
-4.13238
20
5.58382
11
-4.13079
21
5.58335
0
LINE
8
BLACK
6
CONTINUOUS
10
-4.13079
20
5.58335
11
-4.13066
21
5.58331
0
LINE
8
BLACK
6
CONTINUOUS
10
-4.13066
20
5.58331
11
-4.13037
21
5.5832
0
LINE
8
BLACK
6
CONTINUOUS
10
-4.13037
20
5.5832
11
-4.12886
21
5.58268
0
LINE
8
BLACK
6
CONTINUOUS
10
-4.12886
20
5.58268
11
-4.12866
21
5.58266
0
LINE
8
BLACK
6
CONTINUOUS
10
-4.12866
20
5.58266
11
-4.12861
21
5.58266
0
LINE
8
BLACK
6
CONTINUOUS
10
-4.12861
20
5.58266
11
-4.12843
21
5.58264
0
LINE
8
BLACK
6
CONTINUOUS
10
-4.12843
20
5.58264
11
-4.12821
21
5.58258
0
LINE
8
BLACK
6
CONTINUOUS
10
-4.12821
20
5.58258
11
-4.12797
21
5.58259
0
LINE
8
BLACK
6
CONTINUOUS
10
-4.12797
20
5.58259
11
-4.12797
21
5.58259
0
LINE
8
BLACK
6
CONTINUOUS
10
-4.12797
20
5.58259
11
-4.12622
21
5.58266
0
LINE
8
BLACK
6
CONTINUOUS
10
-4.12622
20
5.58266
11
-4.1261
21
5.58266
0
LINE
8
BLACK
6
CONTINUOUS
10
-4.1261
20
5.58266
11
-4.11791
21
5.58266
0
LINE
8
BLACK
6
CONTINUOUS
10
-4.11791
20
5.58266
11
-4.11604
21
5.58198
0
LINE
8
BLACK
6
CONTINUOUS
10
-4.11604
20
5.58198
11
-4.11504
21
5.58025
0
LINE
8
BLACK
6
CONTINUOUS
10
-4.11504
20
5.58025
11
-4.115
21
5.57974
0
LINE
8
BLACK
6
CONTINUOUS
10
-4.115
20
5.57974
11
-4.115
21
5.57471
0
LINE
8
BLACK
6
CONTINUOUS
10
-4.115
20
5.57471
11
-4.11568
21
5.57284
0
LINE
8
BLACK
6
CONTINUOUS
10
-4.11568
20
5.57284
11
-4.11741
21
5.57184
0
LINE
8
BLACK
6
CONTINUOUS
10
-4.11741
20
5.57184
11
-4.11791
21
5.5718
0
LINE
8
BLACK
6
CONTINUOUS
10
-4.11791
20
5.5718
11
-4.25522
21
5.5718
0
LINE
8
BLACK
6
CONTINUOUS
10
-4.25522
20
5.5718
11
-4.25583
21
5.57186
0
LINE
8
BLACK
6
CONTINUOUS
10
-4.25583
20
5.57186
11
-4.25634
21
5.57197
0
LINE
8
BLACK
6
CONTINUOUS
10
-4.25634
20
5.57197
11
-4.25658
21
5.57195
0
LINE
8
BLACK
6
CONTINUOUS
10
-4.25658
20
5.57195
11
-4.25658
21
5.57195
0
LINE
8
BLACK
6
CONTINUOUS
10
-4.25658
20
5.57195
11
-4.25765
21
5.57182
0
LINE
8
BLACK
6
CONTINUOUS
10
-4.25765
20
5.57182
11
-4.25799
21
5.5718
0
LINE
8
BLACK
6
CONTINUOUS
10
-4.25799
20
5.5718
11
-4.25815
21
5.5718
0
LINE
8
BLACK
6
CONTINUOUS
10
-4.25815
20
5.5718
11
-4.25884
21
5.57168
0
LINE
8
BLACK
6
CONTINUOUS
10
-4.25884
20
5.57168
11
-4.25888
21
5.57168
0
LINE
8
BLACK
6
CONTINUOUS
10
-4.25888
20
5.57168
11
-4.25901
21
5.57166
0
LINE
8
BLACK
6
CONTINUOUS
10
-4.25901
20
5.57166
11
-4.2609
21
5.57143
0
LINE
8
BLACK
6
CONTINUOUS
10
-4.2609
20
5.57143
11
-4.26112
21
5.57133
0
LINE
8
BLACK
6
CONTINUOUS
10
-4.26112
20
5.57133
11
-4.26117
21
5.57132
0
LINE
8
BLACK
6
CONTINUOUS
10
-4.26117
20
5.57132
11
-4.2612
21
5.57131
0
LINE
8
BLACK
6
CONTINUOUS
10
-4.2612
20
5.57131
11
-4.26122
21
5.5713
0
LINE
8
BLACK
6
CONTINUOUS
10
-4.26122
20
5.5713
11
-4.26125
21
5.57129
0
LINE
8
BLACK
6
CONTINUOUS
10
-4.26125
20
5.57129
11
-4.26129
21
5.57128
0
LINE
8
BLACK
6
CONTINUOUS
10
-4.26129
20
5.57128
11
-4.26153
21
5.57124
0
LINE
8
BLACK
6
CONTINUOUS
10
-4.26153
20
5.57124
11
-4.26174
21
5.57112
0
LINE
8
BLACK
6
CONTINUOUS
10
-4.26174
20
5.57112
11
-4.26321
21
5.57033
0
LINE
8
BLACK
6
CONTINUOUS
10
-4.26321
20
5.57033
11
-4.26333
21
5.57027
0
LINE
8
BLACK
6
CONTINUOUS
10
-4.26333
20
5.57027
11
-4.26504
21
5.56945
0
LINE
8
BLACK
6
CONTINUOUS
10
-4.26504
20
5.56945
11
-4.2652
21
5.56932
0
LINE
8
BLACK
6
CONTINUOUS
10
-4.2652
20
5.56932
11
-4.26524
21
5.56928
0
LINE
8
BLACK
6
CONTINUOUS
10
-4.26524
20
5.56928
11
-4.26537
21
5.56916
0
LINE
8
BLACK
6
CONTINUOUS
10
-4.26537
20
5.56916
11
-4.26557
21
5.56905
0
LINE
8
BLACK
6
CONTINUOUS
10
-4.26557
20
5.56905
11
-4.26574
21
5.56888
0
LINE
8
BLACK
6
CONTINUOUS
10
-4.26574
20
5.56888
11
-4.26693
21
5.56759
0
LINE
8
BLACK
6
CONTINUOUS
10
-4.26693
20
5.56759
11
-4.26701
21
5.56751
0
LINE
8
BLACK
6
CONTINUOUS
10
-4.26701
20
5.56751
11
-4.27516
21
5.55936
0
LINE
8
BLACK
6
CONTINUOUS
10
-4.27516
20
5.55936
11
-4.27696
21
5.55852
0
LINE
8
BLACK
6
CONTINUOUS
10
-4.27696
20
5.55852
11
-4.2776
21
5.55853
0
LINE
8
BLACK
6
CONTINUOUS
10
-4.2776
20
5.55853
11
-4.28
21
5.55885
0
LINE
8
BLACK
6
CONTINUOUS
10
-4.28
20
5.55885
11
-4.28019
21
5.55882
0
LINE
8
BLACK
6
CONTINUOUS
10
-4.28019
20
5.55882
11
-4.28598
21
5.55806
0
LINE
8
BLACK
6
CONTINUOUS
10
-4.28598
20
5.55806
11
-4.28598
21
5.55806
0
LINE
8
BLACK
6
CONTINUOUS
10
-4.28598
20
5.55806
11
-4.28617
21
5.55803
0
LINE
8
BLACK
6
CONTINUOUS
10
-4.28617
20
5.55803
11
-4.29192
21
5.55565
0
LINE
8
BLACK
6
CONTINUOUS
10
-4.29192
20
5.55565
11
-4.29207
21
5.55553
0
LINE
8
BLACK
6
CONTINUOUS
10
-4.29207
20
5.55553
11
-4.29207
21
5.55553
0
LINE
8
BLACK
6
CONTINUOUS
10
-4.29207
20
5.55553
11
-4.29612
21
5.55243
0
LINE
8
BLACK
6
CONTINUOUS
10
-4.29612
20
5.55243
11
-4.29686
21
5.55186
0
LINE
8
BLACK
6
CONTINUOUS
10
-4.29686
20
5.55186
11
-4.29698
21
5.55171
0
LINE
8
BLACK
6
CONTINUOUS
10
-4.29698
20
5.55171
11
-4.30053
21
5.54707
0
LINE
8
BLACK
6
CONTINUOUS
10
-4.30053
20
5.54707
11
-4.30053
21
5.54707
0
LINE
8
BLACK
6
CONTINUOUS
10
-4.30053
20
5.54707
11
-4.30065
21
5.54692
0
LINE
8
BLACK
6
CONTINUOUS
10
-4.30065
20
5.54692
11
-4.30303
21
5.54117
0
LINE
8
BLACK
6
CONTINUOUS
10
-4.30303
20
5.54117
11
-4.30306
21
5.54098
0
LINE
8
BLACK
6
CONTINUOUS
10
-4.30306
20
5.54098
11
-4.30306
21
5.54098
0
LINE
8
BLACK
6
CONTINUOUS
10
-4.30306
20
5.54098
11
-4.30359
21
5.53698
0
LINE
8
BLACK
6
CONTINUOUS
10
-4.30359
20
5.53698
11
-4.30385
21
5.535
0
LINE
8
BLACK
6
CONTINUOUS
10
-4.30385
20
5.535
11
-4.30382
21
5.53481
0
LINE
8
BLACK
6
CONTINUOUS
10
-4.30382
20
5.53481
11
-4.30308
21
5.52917
0
LINE
8
BLACK
6
CONTINUOUS
10
-4.30308
20
5.52917
11
-4.30303
21
5.52883
0
LINE
8
BLACK
6
CONTINUOUS
10
-4.30303
20
5.52883
11
-4.30065
21
5.52308
0
LINE
8
BLACK
6
CONTINUOUS
10
-4.30065
20
5.52308
11
-4.30053
21
5.52293
0
LINE
8
BLACK
6
CONTINUOUS
10
-4.30053
20
5.52293
11
-4.30053
21
5.52293
0
LINE
8
BLACK
6
CONTINUOUS
10
-4.30053
20
5.52293
11
-4.29698
21
5.51829
0
LINE
8
BLACK
6
CONTINUOUS
10
-4.29698
20
5.51829
11
-4.29686
21
5.51814
0
LINE
8
BLACK
6
CONTINUOUS
10
-4.29686
20
5.51814
11
-4.29671
21
5.51802
0
LINE
8
BLACK
6
CONTINUOUS
10
-4.29671
20
5.51802
11
-4.29207
21
5.51447
0
LINE
8
BLACK
6
CONTINUOUS
10
-4.29207
20
5.51447
11
-4.29207
21
5.51447
0
LINE
8
BLACK
6
CONTINUOUS
10
-4.29207
20
5.51447
11
-4.29192
21
5.51435
0
LINE
8
BLACK
6
CONTINUOUS
10
-4.29192
20
5.51435
11
-4.28617
21
5.51197
0
LINE
8
BLACK
6
CONTINUOUS
10
-4.28617
20
5.51197
11
-4.28598
21
5.51194
0
LINE
8
BLACK
6
CONTINUOUS
10
-4.28598
20
5.51194
11
-4.28598
21
5.51194
0
LINE
8
BLACK
6
CONTINUOUS
10
-4.28598
20
5.51194
11
-4.28019
21
5.51118
0
LINE
8
BLACK
6
CONTINUOUS
10
-4.28019
20
5.51118
11
-4.28
21
5.51115
0
LINE
8
BLACK
6
CONTINUOUS
10
-4.28
20
5.51115
11
-4.27981
21
5.51118
0
LINE
8
BLACK
6
CONTINUOUS
10
-4.27981
20
5.51118
11
-4.27402
21
5.51194
0
LINE
8
BLACK
6
CONTINUOUS
10
-4.27402
20
5.51194
11
-4.27402
21
5.51194
0
LINE
8
BLACK
6
CONTINUOUS
10
-4.27402
20
5.51194
11
-4.27383
21
5.51197
0
LINE
8
BLACK
6
CONTINUOUS
10
-4.27383
20
5.51197
11
-4.26808
21
5.51435
0
LINE
8
BLACK
6
CONTINUOUS
10
-4.26808
20
5.51435
11
-4.26793
21
5.51447
0
LINE
8
BLACK
6
CONTINUOUS
10
-4.26793
20
5.51447
11
-4.26793
21
5.51447
0
LINE
8
BLACK
6
CONTINUOUS
10
-4.26793
20
5.51447
11
-4.26329
21
5.51802
0
LINE
8
BLACK
6
CONTINUOUS
10
-4.26329
20
5.51802
11
-4.26314
21
5.51814
0
LINE
8
BLACK
6
CONTINUOUS
10
-4.26314
20
5.51814
11
-4.26302
21
5.51829
0
LINE
8
BLACK
6
CONTINUOUS
10
-4.26302
20
5.51829
11
-4.25947
21
5.52293
0
LINE
8
BLACK
6
CONTINUOUS
10
-4.25947
20
5.52293
11
-4.25947
21
5.52293
0
LINE
8
BLACK
6
CONTINUOUS
10
-4.25947
20
5.52293
11
-4.25935
21
5.52308
0
LINE
8
BLACK
6
CONTINUOUS
10
-4.25935
20
5.52308
11
-4.25697
21
5.52883
0
LINE
8
BLACK
6
CONTINUOUS
10
-4.25697
20
5.52883
11
-4.25692
21
5.52917
0
LINE
8
BLACK
6
CONTINUOUS
10
-4.25692
20
5.52917
11
-4.25618
21
5.53481
0
LINE
8
BLACK
6
CONTINUOUS
10
-4.25618
20
5.53481
11
-4.25615
21
5.535
0
LINE
8
BLACK
6
CONTINUOUS
10
-4.25615
20
5.535
11
-4.25647
21
5.5374
0
LINE
8
BLACK
6
CONTINUOUS
10
-4.25647
20
5.5374
11
-4.25604
21
5.53935
0
LINE
8
BLACK
6
CONTINUOUS
10
-4.25604
20
5.53935
11
-4.25564
21
5.53984
0
LINE
8
BLACK
6
CONTINUOUS
10
-4.25564
20
5.53984
11
-4.25214
21
5.54335
0
LINE
8
BLACK
6
CONTINUOUS
10
-4.25214
20
5.54335
11
-4.25033
21
5.54419
0
LINE
8
BLACK
6
CONTINUOUS
10
-4.25033
20
5.54419
11
-4.25008
21
5.5442
0
LINE
8
BLACK
6
CONTINUOUS
10
-4.25008
20
5.5442
11
-4.11791
21
5.5442
0
LINE
8
BLACK
6
CONTINUOUS
10
-4.11791
20
5.5442
11
-4.11604
21
5.54352
0
LINE
8
BLACK
6
CONTINUOUS
10
-4.11604
20
5.54352
11
-4.11504
21
5.54179
0
LINE
8
BLACK
6
CONTINUOUS
10
-4.11504
20
5.54179
11
-4.115
21
5.54129
0
LINE
8
BLACK
6
CONTINUOUS
10
-4.115
20
5.54129
11
-4.115
21
5.45853
0
LINE
8
BLACK
6
CONTINUOUS
10
-4.115
20
5.45853
11
-4.11568
21
5.45666
0
LINE
8
BLACK
6
CONTINUOUS
10
-4.11568
20
5.45666
11
-4.11726
21
5.4557
0
LINE
8
BLACK
6
CONTINUOUS
10
-4.11726
20
5.4557
11
-4.12048
21
5.45495
0
LINE
8
BLACK
6
CONTINUOUS
10
-4.12048
20
5.45495
11
-4.12425
21
5.45407
0
LINE
8
BLACK
6
CONTINUOUS
10
-4.12425
20
5.45407
11
-4.12436
21
5.45403
0
LINE
8
BLACK
6
CONTINUOUS
10
-4.12436
20
5.45403
11
-4.12436
21
5.45403
0
LINE
8
BLACK
6
CONTINUOUS
10
-4.12436
20
5.45403
11
-4.13361
21
5.45034
0
LINE
8
BLACK
6
CONTINUOUS
10
-4.13361
20
5.45034
11
-4.13361
21
5.45034
0
LINE
8
BLACK
6
CONTINUOUS
10
-4.13361
20
5.45034
11
-4.13371
21
5.4503
0
LINE
8
BLACK
6
CONTINUOUS
10
-4.13371
20
5.4503
11
-4.13381
21
5.45024
0
LINE
8
BLACK
6
CONTINUOUS
10
-4.13381
20
5.45024
11
-4.13381
21
5.45024
0
LINE
8
BLACK
6
CONTINUOUS
10
-4.13381
20
5.45024
11
-4.1424
21
5.44519
0
LINE
8
BLACK
6
CONTINUOUS
10
-4.1424
20
5.44519
11
-4.1424
21
5.44519
0
LINE
8
BLACK
6
CONTINUOUS
10
-4.1424
20
5.44519
11
-4.14249
21
5.44514
0
LINE
8
BLACK
6
CONTINUOUS
10
-4.14249
20
5.44514
11
-4.15039
21
5.43871
0
LINE
8
BLACK
6
CONTINUOUS
10
-4.15039
20
5.43871
11
-4.15723
21
5.43115
0
LINE
8
BLACK
6
CONTINUOUS
10
-4.15723
20
5.43115
11
-4.15729
21
5.43106
0
LINE
8
BLACK
6
CONTINUOUS
10
-4.15729
20
5.43106
11
-4.15729
21
5.43106
0
LINE
8
BLACK
6
CONTINUOUS
10
-4.15729
20
5.43106
11
-4.1605
21
5.4262
0
LINE
8
BLACK
6
CONTINUOUS
10
-4.1605
20
5.4262
11
-4.16284
21
5.42266
0
LINE
8
BLACK
6
CONTINUOUS
10
-4.16284
20
5.42266
11
-4.16289
21
5.42255
0
LINE
8
BLACK
6
CONTINUOUS
10
-4.16289
20
5.42255
11
-4.16289
21
5.42255
0
LINE
8
BLACK
6
CONTINUOUS
10
-4.16289
20
5.42255
11
-4.16575
21
5.41634
0
LINE
8
BLACK
6
CONTINUOUS
10
-4.16575
20
5.41634
11
-4.16711
21
5.41341
0
LINE
8
BLACK
6
CONTINUOUS
10
-4.16711
20
5.41341
11
-4.16714
21
5.4133
0
LINE
8
BLACK
6
CONTINUOUS
10
-4.16714
20
5.4133
11
-4.16714
21
5.4133
0
LINE
8
BLACK
6
CONTINUOUS
10
-4.16714
20
5.4133
11
-4.16757
21
5.41179
0
LINE
8
BLACK
6
CONTINUOUS
10
-4.16757
20
5.41179
11
-4.16874
21
5.41018
0
LINE
8
BLACK
6
CONTINUOUS
10
-4.16874
20
5.41018
11
-4.17037
21
5.40969
0
LINE
8
BLACK
6
CONTINUOUS
10
-4.17037
20
5.40969
11
-4.43176
21
5.40969
0
LINE
8
BLACK
6
CONTINUOUS
10
-4.43176
20
5.40969
11
-4.43364
21
5.41037
0
LINE
8
BLACK
6
CONTINUOUS
10
-4.43364
20
5.41037
11
-4.43452
21
5.41166
0
LINE
8
BLACK
6
CONTINUOUS
10
-4.43452
20
5.41166
11
-4.43608
21
5.41624
0
LINE
8
BLACK
6
CONTINUOUS
10
-4.43608
20
5.41624
11
-4.43608
21
5.41624
0
LINE
8
BLACK
6
CONTINUOUS
10
-4.43608
20
5.41624
11
-4.43611
21
5.41634
0
LINE
8
BLACK
6
CONTINUOUS
10
-4.43611
20
5.41634
11
-4.43663
21
5.41733
0
LINE
8
BLACK
6
CONTINUOUS
10
-4.43663
20
5.41733
11
-4.44076
21
5.42528
0
LINE
8
BLACK
6
CONTINUOUS
10
-4.44076
20
5.42528
11
-4.44076
21
5.42528
0
LINE
8
BLACK
6
CONTINUOUS
10
-4.44076
20
5.42528
11
-4.44081
21
5.42538
0
LINE
8
BLACK
6
CONTINUOUS
10
-4.44081
20
5.42538
11
-4.44135
21
5.42612
0
LINE
8
BLACK
6
CONTINUOUS
10
-4.44135
20
5.42612
11
-4.44675
21
5.43352
0
LINE
8
BLACK
6
CONTINUOUS
10
-4.44675
20
5.43352
11
-4.44675
21
5.43352
0
LINE
8
BLACK
6
CONTINUOUS
10
-4.44675
20
5.43352
11
-4.44682
21
5.43361
0
LINE
8
BLACK
6
CONTINUOUS
10
-4.44682
20
5.43361
11
-4.45178
21
5.4386
0
LINE
8
BLACK
6
CONTINUOUS
10
-4.45178
20
5.4386
11
-4.45392
21
5.44075
0
LINE
8
BLACK
6
CONTINUOUS
10
-4.45392
20
5.44075
11
-4.45392
21
5.44075
0
LINE
8
BLACK
6
CONTINUOUS
10
-4.45392
20
5.44075
11
-4.454
21
5.44083
0
LINE
8
BLACK
6
CONTINUOUS
10
-4.454
20
5.44083
11
-4.46219
21
5.44688
0
LINE
8
BLACK
6
CONTINUOUS
10
-4.46219
20
5.44688
11
-4.46402
21
5.44784
0
LINE
8
BLACK
6
CONTINUOUS
10
-4.46402
20
5.44784
11
-4.47111
21
5.45157
0
LINE
8
BLACK
6
CONTINUOUS
10
-4.47111
20
5.45157
11
-4.47111
21
5.45157
0
LINE
8
BLACK
6
CONTINUOUS
10
-4.47111
20
5.45157
11
-4.47121
21
5.45162
0
LINE
8
BLACK
6
CONTINUOUS
10
-4.47121
20
5.45162
11
-4.48084
21
5.45495
0
LINE
8
BLACK
6
CONTINUOUS
10
-4.48084
20
5.45495
11
-4.48094
21
5.45497
0
LINE
8
BLACK
6
CONTINUOUS
10
-4.48094
20
5.45497
11
-4.48094
21
5.45497
0
LINE
8
BLACK
6
CONTINUOUS
10
-4.48094
20
5.45497
11
-4.48505
21
5.45572
0
LINE
8
BLACK
6
CONTINUOUS
10
-4.48505
20
5.45572
11
-4.49086
21
5.45678
0
LINE
8
BLACK
6
CONTINUOUS
10
-4.49086
20
5.45678
11
-4.49095
21
5.45678
0
LINE
8
BLACK
6
CONTINUOUS
10
-4.49095
20
5.45678
11
-4.49095
21
5.45678
0
LINE
8
BLACK
6
CONTINUOUS
10
-4.49095
20
5.45678
11
-4.49408
21
5.45695
0
LINE
8
BLACK
6
CONTINUOUS
10
-4.49408
20
5.45695
11
-4.49408
21
5.45695
0
LINE
8
BLACK
6
CONTINUOUS
10
-4.49408
20
5.45695
11
-4.49411
21
5.45695
0
LINE
8
BLACK
6
CONTINUOUS
10
-4.49411
20
5.45695
11
-4.50046
21
5.45695
0
LINE
8
BLACK
6
CONTINUOUS
10
-4.50046
20
5.45695
11
-4.50328
21
5.45673
0
LINE
8
BLACK
6
CONTINUOUS
10
-4.50328
20
5.45673
11
-4.50792
21
5.45638
0
LINE
8
BLACK
6
CONTINUOUS
10
-4.50792
20
5.45638
11
-4.50792
21
5.45638
0
LINE
8
BLACK
6
CONTINUOUS
10
-4.50792
20
5.45638
11
-4.50803
21
5.45637
0
LINE
8
BLACK
6
CONTINUOUS
10
-4.50803
20
5.45637
11
-4.51795
21
5.45407
0
LINE
8
BLACK
6
CONTINUOUS
10
-4.51795
20
5.45407
11
-4.51806
21
5.45403
0
LINE
8
BLACK
6
CONTINUOUS
10
-4.51806
20
5.45403
11
-4.51806
21
5.45403
0
LINE
8
BLACK
6
CONTINUOUS
10
-4.51806
20
5.45403
11
-4.52731
21
5.45034
0
LINE
8
BLACK
6
CONTINUOUS
10
-4.52731
20
5.45034
11
-4.52731
21
5.45034
0
LINE
8
BLACK
6
CONTINUOUS
10
-4.52731
20
5.45034
11
-4.52741
21
5.4503
0
LINE
8
BLACK
6
CONTINUOUS
10
-4.52741
20
5.4503
11
-4.52751
21
5.45024
0
LINE
8
BLACK
6
CONTINUOUS
10
-4.52751
20
5.45024
11
-4.52751
21
5.45024
0
LINE
8
BLACK
6
CONTINUOUS
10
-4.52751
20
5.45024
11
-4.5361
21
5.44519
0
LINE
8
BLACK
6
CONTINUOUS
10
-4.5361
20
5.44519
11
-4.5361
21
5.44519
0
LINE
8
BLACK
6
CONTINUOUS
10
-4.5361
20
5.44519
11
-4.5362
21
5.44514
0
LINE
8
BLACK
6
CONTINUOUS
10
-4.5362
20
5.44514
11
-4.54409
21
5.43871
0
LINE
8
BLACK
6
CONTINUOUS
10
-4.54409
20
5.43871
11
-4.55093
21
5.43115
0
LINE
8
BLACK
6
CONTINUOUS
10
-4.55093
20
5.43115
11
-4.55099
21
5.43106
0
LINE
8
BLACK
6
CONTINUOUS
10
-4.55099
20
5.43106
11
-4.55099
21
5.43106
0
LINE
8
BLACK
6
CONTINUOUS
10
-4.55099
20
5.43106
11
-4.5542
21
5.4262
0
LINE
8
BLACK
6
CONTINUOUS
10
-4.5542
20
5.4262
11
-4.55654
21
5.42266
0
LINE
8
BLACK
6
CONTINUOUS
10
-4.55654
20
5.42266
11
-4.55659
21
5.42255
0
LINE
8
BLACK
6
CONTINUOUS
10
-4.55659
20
5.42255
11
-4.55659
21
5.42255
0
LINE
8
BLACK
6
CONTINUOUS
10
-4.55659
20
5.42255
11
-4.55945
21
5.41634
0
LINE
8
BLACK
6
CONTINUOUS
10
-4.55945
20
5.41634
11
-4.56081
21
5.41341
0
LINE
8
BLACK
6
CONTINUOUS
10
-4.56081
20
5.41341
11
-4.56084
21
5.4133
0
LINE
8
BLACK
6
CONTINUOUS
10
-4.56084
20
5.4133
11
-4.56084
21
5.4133
0
LINE
8
BLACK
6
CONTINUOUS
10
-4.56084
20
5.4133
11
-4.56127
21
5.41179
0
LINE
8
BLACK
6
CONTINUOUS
10
-4.56127
20
5.41179
11
-4.56245
21
5.41018
0
LINE
8
BLACK
6
CONTINUOUS
10
-4.56245
20
5.41018
11
-4.56407
21
5.40969
0
LINE
8
BLACK
6
CONTINUOUS
10
-4.56407
20
5.40969
11
-4.62448
21
5.40969
0
LINE
8
BLACK
6
CONTINUOUS
10
-4.62448
20
5.40969
11
-4.62635
21
5.41037
0
LINE
8
BLACK
6
CONTINUOUS
10
-4.62635
20
5.41037
11
-4.62735
21
5.41209
0
LINE
8
BLACK
6
CONTINUOUS
10
-4.62735
20
5.41209
11
-4.627
21
5.41406
0
LINE
8
BLACK
6
CONTINUOUS
10
-4.627
20
5.41406
11
-4.62603
21
5.41506
0
LINE
8
BLACK
6
CONTINUOUS
10
-4.62603
20
5.41506
11
-4.62263
21
5.41721
0
LINE
8
BLACK
6
CONTINUOUS
10
-4.62263
20
5.41721
11
-4.61867
21
5.4197
0
LINE
8
BLACK
6
CONTINUOUS
10
-4.61867
20
5.4197
11
-4.61475
21
5.42316
0
LINE
8
BLACK
6
CONTINUOUS
10
-4.61475
20
5.42316
11
-4.61139
21
5.42612
0
LINE
8
BLACK
6
CONTINUOUS
10
-4.61139
20
5.42612
11
-4.61139
21
5.42612
0
LINE
8
BLACK
6
CONTINUOUS
10
-4.61139
20
5.42612
11
-4.6113
21
5.4262
0
LINE
8
BLACK
6
CONTINUOUS
10
-4.6113
20
5.4262
11
-4.60788
21
5.43037
0
LINE
8
BLACK
6
CONTINUOUS
10
-4.60788
20
5.43037
11
-4.60514
21
5.4337
0
LINE
8
BLACK
6
CONTINUOUS
10
-4.60514
20
5.4337
11
-4.60514
21
5.4337
0
LINE
8
BLACK
6
CONTINUOUS
10
-4.60514
20
5.4337
11
-4.60507
21
5.43379
0
LINE
8
BLACK
6
CONTINUOUS
10
-4.60507
20
5.43379
11
-4.60012
21
5.44228
0
LINE
8
BLACK
6
CONTINUOUS
10
-4.60012
20
5.44228
11
-4.60008
21
5.44239
0
LINE
8
BLACK
6
CONTINUOUS
10
-4.60008
20
5.44239
11
-4.60008
21
5.44239
0
LINE
8
BLACK
6
CONTINUOUS
10
-4.60008
20
5.44239
11
-4.59665
21
5.45134
0
LINE
8
BLACK
6
CONTINUOUS
10
-4.59665
20
5.45134
11
-4.59665
21
5.45134
0
LINE
8
BLACK
6
CONTINUOUS
10
-4.59665
20
5.45134
11
-4.5966
21
5.45145
0
LINE
8
BLACK
6
CONTINUOUS
10
-4.5966
20
5.45145
11
-4.59558
21
5.45635
0
LINE
8
BLACK
6
CONTINUOUS
10
-4.59558
20
5.45635
11
-4.59462
21
5.46095
0
LINE
8
BLACK
6
CONTINUOUS
10
-4.59462
20
5.46095
11
-4.59462
21
5.46095
0
LINE
8
BLACK
6
CONTINUOUS
10
-4.59462
20
5.46095
11
-4.5946
21
5.46106
0
LINE
8
BLACK
6
CONTINUOUS
10
-4.5946
20
5.46106
11
-4.59457
21
5.46168
0
LINE
8
BLACK
6
CONTINUOUS
10
-4.59457
20
5.46168
11
-4.59416
21
5.47076
0
LINE
8
BLACK
6
CONTINUOUS
10
-4.59416
20
5.47076
11
-4.59415
21
5.47088
0
LINE
8
BLACK
6
CONTINUOUS
10
-4.59415
20
5.47088
11
-4.59438
21
5.47284
0
LINE
8
BLACK
6
CONTINUOUS
10
-4.59438
20
5.47284
11
-4.59527
21
5.48052
0
LINE
8
BLACK
6
CONTINUOUS
10
-4.59527
20
5.48052
11
-4.59528
21
5.48064
0
LINE
8
BLACK
6
CONTINUOUS
10
-4.59528
20
5.48064
11
-4.59795
21
5.49009
0
LINE
8
BLACK
6
CONTINUOUS
10
-4.59795
20
5.49009
11
-4.6021
21
5.49899
0
LINE
8
BLACK
6
CONTINUOUS
10
-4.6021
20
5.49899
11
-4.60217
21
5.49909
0
LINE
8
BLACK
6
CONTINUOUS
10
-4.60217
20
5.49909
11
-4.60756
21
5.50702
0
LINE
8
BLACK
6
CONTINUOUS
10
-4.60756
20
5.50702
11
-4.60756
21
5.50702
0
LINE
8
BLACK
6
CONTINUOUS
10
-4.60756
20
5.50702
11
-4.60763
21
5.50711
0
LINE
8
BLACK
6
CONTINUOUS
10
-4.60763
20
5.50711
11
-4.60771
21
5.5072
0
LINE
8
BLACK
6
CONTINUOUS
10
-4.60771
20
5.5072
11
-4.60771
21
5.5072
0
LINE
8
BLACK
6
CONTINUOUS
10
-4.60771
20
5.5072
11
-4.6143
21
5.51417
0
LINE
8
BLACK
6
CONTINUOUS
10
-4.6143
20
5.51417
11
-4.6143
21
5.51417
0
LINE
8
BLACK
6
CONTINUOUS
10
-4.6143
20
5.51417
11
-4.61438
21
5.51425
0
LINE
8
BLACK
6
CONTINUOUS
10
-4.61438
20
5.51425
11
-4.62218
21
5.52022
0
LINE
8
BLACK
6
CONTINUOUS
10
-4.62218
20
5.52022
11
-4.62228
21
5.52027
0
LINE
8
BLACK
6
CONTINUOUS
10
-4.62228
20
5.52027
11
-4.62228
21
5.52027
0
LINE
8
BLACK
6
CONTINUOUS
10
-4.62228
20
5.52027
11
-4.62784
21
5.52325
0
LINE
8
BLACK
6
CONTINUOUS
10
-4.62784
20
5.52325
11
-4.63084
21
5.52486
0
LINE
8
BLACK
6
CONTINUOUS
10
-4.63084
20
5.52486
11
-4.63095
21
5.5249
0
LINE
8
BLACK
6
CONTINUOUS
10
-4.63095
20
5.5249
11
-4.64001
21
5.52802
0
LINE
8
BLACK
6
CONTINUOUS
10
-4.64001
20
5.52802
11
-4.64001
21
5.52802
0
LINE
8
BLACK
6
CONTINUOUS
10
-4.64001
20
5.52802
11
-4.64012
21
5.52806
0
LINE
8
BLACK
6
CONTINUOUS
10
-4.64012
20
5.52806
11
-4.6498
21
5.52973
0
LINE
8
BLACK
6
CONTINUOUS
10
-4.6498
20
5.52973
11
-4.6499
21
5.52973
0
LINE
8
BLACK
6
CONTINUOUS
10
-4.6499
20
5.52973
11
-4.6499
21
5.52973
0
LINE
8
BLACK
6
CONTINUOUS
10
-4.6499
20
5.52973
11
-4.65057
21
5.52976
0
LINE
8
BLACK
6
CONTINUOUS
10
-4.65057
20
5.52976
11
-4.65098
21
5.52978
0
LINE
8
BLACK
6
CONTINUOUS
10
-4.65098
20
5.52978
11
-4.65782
21
5.52978
0
LINE
8
BLACK
6
CONTINUOUS
10
-4.65782
20
5.52978
11
-4.65788
21
5.52978
0
LINE
8
BLACK
6
CONTINUOUS
10
-4.65788
20
5.52978
11
-4.65788
21
5.52978
0
LINE
8
BLACK
6
CONTINUOUS
10
-4.65788
20
5.52978
11
-4.66238
21
5.52942
0
LINE
8
BLACK
6
CONTINUOUS
10
-4.66238
20
5.52942
11
-4.66515
21
5.52919
0
LINE
8
BLACK
6
CONTINUOUS
10
-4.66515
20
5.52919
11
-4.67469
21
5.52685
0
LINE
8
BLACK
6
CONTINUOUS
10
-4.67469
20
5.52685
11
-4.67921
21
5.52493
0
LINE
8
BLACK
6
CONTINUOUS
10
-4.67921
20
5.52493
11
-4.68362
21
5.52306
0
LINE
8
BLACK
6
CONTINUOUS
10
-4.68362
20
5.52306
11
-4.68362
21
5.52306
0
LINE
8
BLACK
6
CONTINUOUS
10
-4.68362
20
5.52306
11
-4.68373
21
5.52301
0
LINE
8
BLACK
6
CONTINUOUS
10
-4.68373
20
5.52301
11
-4.68383
21
5.52295
0
LINE
8
BLACK
6
CONTINUOUS
10
-4.68383
20
5.52295
11
-4.68383
21
5.52295
0
LINE
8
BLACK
6
CONTINUOUS
10
-4.68383
20
5.52295
11
-4.68474
21
5.52238
0
LINE
8
BLACK
6
CONTINUOUS
10
-4.68474
20
5.52238
11
-4.69204
21
5.51778
0
LINE
8
BLACK
6
CONTINUOUS
10
-4.69204
20
5.51778
11
-4.69213
21
5.5177
0
LINE
8
BLACK
6
CONTINUOUS
10
-4.69213
20
5.5177
11
-4.69604
21
5.51425
0
LINE
8
BLACK
6
CONTINUOUS
10
-4.69604
20
5.51425
11
-4.69941
21
5.51128
0
LINE
8
BLACK
6
CONTINUOUS
10
-4.69941
20
5.51128
11
-4.69948
21
5.51119
0
LINE
8
BLACK
6
CONTINUOUS
10
-4.69948
20
5.51119
11
-4.70557
21
5.50378
0
LINE
8
BLACK
6
CONTINUOUS
10
-4.70557
20
5.50378
11
-4.70557
21
5.50378
0
LINE
8
BLACK
6
CONTINUOUS
10
-4.70557
20
5.50378
11
-4.70564
21
5.50369
0
LINE
8
BLACK
6
CONTINUOUS
10
-4.70564
20
5.50369
11
-4.71058
21
5.4952
0
LINE
8
BLACK
6
CONTINUOUS
10
-4.71058
20
5.4952
11
-4.71063
21
5.49509
0
LINE
8
BLACK
6
CONTINUOUS
10
-4.71063
20
5.49509
11
-4.71063
21
5.49509
0
LINE
8
BLACK
6
CONTINUOUS
10
-4.71063
20
5.49509
11
-4.71347
21
5.48768
0
LINE
8
BLACK
6
CONTINUOUS
10
-4.71347
20
5.48768
11
-4.7141
21
5.48603
0
LINE
8
BLACK
6
CONTINUOUS
10
-4.7141
20
5.48603
11
-4.71413
21
5.48592
0
LINE
8
BLACK
6
CONTINUOUS
10
-4.71413
20
5.48592
11
-4.71609
21
5.47653
0
LINE
8
BLACK
6
CONTINUOUS
10
-4.71609
20
5.47653
11
-4.71609
21
5.47653
0
LINE
8
BLACK
6
CONTINUOUS
10
-4.71609
20
5.47653
11
-4.71611
21
5.47642
0
LINE
8
BLACK
6
CONTINUOUS
10
-4.71611
20
5.47642
11
-4.71656
21
5.4666
0
LINE
8
BLACK
6
CONTINUOUS
10
-4.71656
20
5.4666
11
-4.71543
21
5.45684
0
LINE
8
BLACK
6
CONTINUOUS
10
-4.71543
20
5.45684
11
-4.71276
21
5.44739
0
LINE
8
BLACK
6
CONTINUOUS
10
-4.71276
20
5.44739
11
-4.7086
21
5.43849
0
LINE
8
BLACK
6
CONTINUOUS
10
-4.7086
20
5.43849
11
-4.70854
21
5.43839
0
LINE
8
BLACK
6
CONTINUOUS
10
-4.70854
20
5.43839
11
-4.70854
21
5.43839
0
LINE
8
BLACK
6
CONTINUOUS
10
-4.70854
20
5.43839
11
-4.70362
21
5.43115
0
LINE
8
BLACK
6
CONTINUOUS
10
-4.70362
20
5.43115
11
-4.70308
21
5.43037
0
LINE
8
BLACK
6
CONTINUOUS
10
-4.70308
20
5.43037
11
-4.703
21
5.43028
0
LINE
8
BLACK
6
CONTINUOUS
10
-4.703
20
5.43028
11
-4.703
21
5.43028
0
LINE
8
BLACK
6
CONTINUOUS
10
-4.703
20
5.43028
11
-4.69923
21
5.42629
0
LINE
8
BLACK
6
CONTINUOUS
10
-4.69923
20
5.42629
11
-4.69633
21
5.42323
0
LINE
8
BLACK
6
CONTINUOUS
10
-4.69633
20
5.42323
11
-4.68853
21
5.41726
0
LINE
8
BLACK
6
CONTINUOUS
10
-4.68853
20
5.41726
11
-4.68662
21
5.41624
0
LINE
8
BLACK
6
CONTINUOUS
10
-4.68662
20
5.41624
11
-4.68462
21
5.41517
0
LINE
8
BLACK
6
CONTINUOUS
10
-4.68462
20
5.41517
11
-4.68329
21
5.41368
0
LINE
8
BLACK
6
CONTINUOUS
10
-4.68329
20
5.41368
11
-4.68323
21
5.41169
0
LINE
8
BLACK
6
CONTINUOUS
10
-4.68323
20
5.41169
11
-4.68446
21
5.41012
0
LINE
8
BLACK
6
CONTINUOUS
10
-4.68446
20
5.41012
11
-4.686
21
5.40969
0
LINE
8
BLACK
6
CONTINUOUS
10
-4.686
20
5.40969
11
-4.82546
21
5.40969
0
LINE
8
BLACK
6
CONTINUOUS
10
-4.82546
20
5.40969
11
-4.82734
21
5.41037
0
LINE
8
BLACK
6
CONTINUOUS
10
-4.82734
20
5.41037
11
-4.82822
21
5.41166
0
LINE
8
BLACK
6
CONTINUOUS
10
-4.82822
20
5.41166
11
-4.82978
21
5.41624
0
LINE
8
BLACK
6
CONTINUOUS
10
-4.82978
20
5.41624
11
-4.82978
21
5.41624
0
LINE
8
BLACK
6
CONTINUOUS
10
-4.82978
20
5.41624
11
-4.82981
21
5.41634
0
LINE
8
BLACK
6
CONTINUOUS
10
-4.82981
20
5.41634
11
-4.83033
21
5.41733
0
LINE
8
BLACK
6
CONTINUOUS
10
-4.83033
20
5.41733
11
-4.83446
21
5.42528
0
LINE
8
BLACK
6
CONTINUOUS
10
-4.83446
20
5.42528
11
-4.83446
21
5.42528
0
LINE
8
BLACK
6
CONTINUOUS
10
-4.83446
20
5.42528
11
-4.83451
21
5.42538
0
LINE
8
BLACK
6
CONTINUOUS
10
-4.83451
20
5.42538
11
-4.83505
21
5.42612
0
LINE
8
BLACK
6
CONTINUOUS
10
-4.83505
20
5.42612
11
-4.84045
21
5.43352
0
LINE
8
BLACK
6
CONTINUOUS
10
-4.84045
20
5.43352
11
-4.84045
21
5.43352
0
LINE
8
BLACK
6
CONTINUOUS
10
-4.84045
20
5.43352
11
-4.84052
21
5.43361
0
LINE
8
BLACK
6
CONTINUOUS
10
-4.84052
20
5.43361
11
-4.84548
21
5.4386
0
LINE
8
BLACK
6
CONTINUOUS
10
-4.84548
20
5.4386
11
-4.84762
21
5.44075
0
LINE
8
BLACK
6
CONTINUOUS
10
-4.84762
20
5.44075
11
-4.84762
21
5.44075
0
LINE
8
BLACK
6
CONTINUOUS
10
-4.84762
20
5.44075
11
-4.8477
21
5.44083
0
LINE
8
BLACK
6
CONTINUOUS
10
-4.8477
20
5.44083
11
-4.85589
21
5.44688
0
LINE
8
BLACK
6
CONTINUOUS
10
-4.85589
20
5.44688
11
-4.85772
21
5.44784
0
LINE
8
BLACK
6
CONTINUOUS
10
-4.85772
20
5.44784
11
-4.86481
21
5.45157
0
LINE
8
BLACK
6
CONTINUOUS
10
-4.86481
20
5.45157
11
-4.86481
21
5.45157
0
LINE
8
BLACK
6
CONTINUOUS
10
-4.86481
20
5.45157
11
-4.86491
21
5.45162
0
LINE
8
BLACK
6
CONTINUOUS
10
-4.86491
20
5.45162
11
-4.87454
21
5.45495
0
LINE
8
BLACK
6
CONTINUOUS
10
-4.87454
20
5.45495
11
-4.87464
21
5.45497
0
LINE
8
BLACK
6
CONTINUOUS
10
-4.87464
20
5.45497
11
-4.87464
21
5.45497
0
LINE
8
BLACK
6
CONTINUOUS
10
-4.87464
20
5.45497
11
-4.87875
21
5.45572
0
LINE
8
BLACK
6
CONTINUOUS
10
-4.87875
20
5.45572
11
-4.88456
21
5.45678
0
LINE
8
BLACK
6
CONTINUOUS
10
-4.88456
20
5.45678
11
-4.88465
21
5.45678
0
LINE
8
BLACK
6
CONTINUOUS
10
-4.88465
20
5.45678
11
-4.88465
21
5.45678
0
LINE
8
BLACK
6
CONTINUOUS
10
-4.88465
20
5.45678
11
-4.88778
21
5.45695
0
LINE
8
BLACK
6
CONTINUOUS
10
-4.88778
20
5.45695
11
-4.88778
21
5.45695
0
LINE
8
BLACK
6
CONTINUOUS
10
-4.88778
20
5.45695
11
-4.88782
21
5.45695
0
LINE
8
BLACK
6
CONTINUOUS
10
-4.88782
20
5.45695
11
-4.89416
21
5.45695
0
LINE
8
BLACK
6
CONTINUOUS
10
-4.89416
20
5.45695
11
-4.89698
21
5.45673
0
LINE
8
BLACK
6
CONTINUOUS
10
-4.89698
20
5.45673
11
-4.90162
21
5.45638
0
LINE
8
BLACK
6
CONTINUOUS
10
-4.90162
20
5.45638
11
-4.90162
21
5.45638
0
LINE
8
BLACK
6
CONTINUOUS
10
-4.90162
20
5.45638
11
-4.90173
21
5.45637
0
LINE
8
BLACK
6
CONTINUOUS
10
-4.90173
20
5.45637
11
-4.91165
21
5.45407
0
LINE
8
BLACK
6
CONTINUOUS
10
-4.91165
20
5.45407
11
-4.91176
21
5.45403
0
LINE
8
BLACK
6
CONTINUOUS
10
-4.91176
20
5.45403
11
-4.91176
21
5.45403
0
LINE
8
BLACK
6
CONTINUOUS
10
-4.91176
20
5.45403
11
-4.92101
21
5.45034
0
LINE
8
BLACK
6
CONTINUOUS
10
-4.92101
20
5.45034
11
-4.92101
21
5.45034
0
LINE
8
BLACK
6
CONTINUOUS
10
-4.92101
20
5.45034
11
-4.92111
21
5.4503
0
LINE
8
BLACK
6
CONTINUOUS
10
-4.92111
20
5.4503
11
-4.92121
21
5.45024
0
LINE
8
BLACK
6
CONTINUOUS
10
-4.92121
20
5.45024
11
-4.92121
21
5.45024
0
LINE
8
BLACK
6
CONTINUOUS
10
-4.92121
20
5.45024
11
-4.9298
21
5.44519
0
LINE
8
BLACK
6
CONTINUOUS
10
-4.9298
20
5.44519
11
-4.9298
21
5.44519
0
LINE
8
BLACK
6
CONTINUOUS
10
-4.9298
20
5.44519
11
-4.9299
21
5.44514
0
LINE
8
BLACK
6
CONTINUOUS
10
-4.9299
20
5.44514
11
-4.93779
21
5.43871
0
LINE
8
BLACK
6
CONTINUOUS
10
-4.93779
20
5.43871
11
-4.94463
21
5.43115
0
LINE
8
BLACK
6
CONTINUOUS
10
-4.94463
20
5.43115
11
-4.94469
21
5.43106
0
LINE
8
BLACK
6
CONTINUOUS
10
-4.94469
20
5.43106
11
-4.94469
21
5.43106
0
LINE
8
BLACK
6
CONTINUOUS
10
-4.94469
20
5.43106
11
-4.9479
21
5.4262
0
LINE
8
BLACK
6
CONTINUOUS
10
-4.9479
20
5.4262
11
-4.95024
21
5.42266
0
LINE
8
BLACK
6
CONTINUOUS
10
-4.95024
20
5.42266
11
-4.95029
21
5.42255
0
LINE
8
BLACK
6
CONTINUOUS
10
-4.95029
20
5.42255
11
-4.95029
21
5.42255
0
LINE
8
BLACK
6
CONTINUOUS
10
-4.95029
20
5.42255
11
-4.95315
21
5.41634
0
LINE
8
BLACK
6
CONTINUOUS
10
-4.95315
20
5.41634
11
-4.95451
21
5.41341
0
LINE
8
BLACK
6
CONTINUOUS
10
-4.95451
20
5.41341
11
-4.95454
21
5.4133
0
LINE
8
BLACK
6
CONTINUOUS
10
-4.95454
20
5.4133
11
-4.95454
21
5.4133
0
LINE
8
BLACK
6
CONTINUOUS
10
-4.95454
20
5.4133
11
-4.95497
21
5.41179
0
LINE
8
BLACK
6
CONTINUOUS
10
-4.95497
20
5.41179
11
-4.95615
21
5.41018
0
LINE
8
BLACK
6
CONTINUOUS
10
-4.95615
20
5.41018
11
-4.95777
21
5.40969
0
LINE
8
BLACK
6
CONTINUOUS
10
-4.95777
20
5.40969
11
-4.9674
21
5.40969
0
LINE
8
BLACK
6
CONTINUOUS
10
-4.9674
20
5.40969
11
-4.96927
21
5.41037
0
LINE
8
BLACK
6
CONTINUOUS
10
-4.96927
20
5.41037
11
-4.97027
21
5.41209
0
LINE
8
BLACK
6
CONTINUOUS
10
-4.97027
20
5.41209
11
-4.97031
21
5.4126
0
LINE
8
BLACK
6
CONTINUOUS
10
-4.97031
20
5.4126
11
-4.97031
21
5.49602
0
LINE
8
BLACK
6
CONTINUOUS
10
-4.97031
20
5.49602
11
-4.96963
21
5.4979
0
LINE
8
BLACK
6
CONTINUOUS
10
-4.96963
20
5.4979
11
-4.96791
21
5.49889
0
LINE
8
BLACK
6
CONTINUOUS
10
-4.96791
20
5.49889
11
-4.9674
21
5.49894
0
LINE
8
BLACK
6
CONTINUOUS
10
-4.9674
20
5.49894
11
-4.94343
21
5.49894
0
LINE
8
BLACK
6
CONTINUOUS
10
-4.94343
20
5.49894
11
-4.94303
21
5.49908
0
LINE
8
BLACK
6
CONTINUOUS
10
-4.94303
20
5.49908
11
-4.94291
21
5.49929
0
LINE
8
BLACK
6
CONTINUOUS
10
-4.94291
20
5.49929
11
-4.94291
21
5.51894
0
LINE
8
BLACK
6
CONTINUOUS
10
-4.94291
20
5.51894
11
-4.97622
21
5.51894
0
LINE
8
BLACK
6
CONTINUOUS
10
-4.86017
20
5.52285
11
-4.85977
21
5.52672
0
LINE
8
BLACK
6
CONTINUOUS
10
-4.85977
20
5.52672
11
-4.85976
21
5.52687
0
LINE
8
BLACK
6
CONTINUOUS
10
-4.85976
20
5.52687
11
-4.85976
21
5.52811
0
LINE
8
BLACK
6
CONTINUOUS
10
-4.85976
20
5.52811
11
-4.85991
21
5.5285
0
LINE
8
BLACK
6
CONTINUOUS
10
-4.85991
20
5.5285
11
-4.86012
21
5.52862
0
LINE
8
BLACK
6
CONTINUOUS
10
-4.86012
20
5.52862
11
-4.8798
21
5.52862
0
LINE
8
BLACK
6
CONTINUOUS
10
-4.8798
20
5.52862
11
-4.88051
21
5.52501
0
LINE
8
BLACK
6
CONTINUOUS
10
-4.88051
20
5.52501
11
-4.88265
21
5.52182
0
LINE
8
BLACK
6
CONTINUOUS
10
-4.88265
20
5.52182
11
-4.88584
21
5.51969
0
LINE
8
BLACK
6
CONTINUOUS
10
-4.88584
20
5.51969
11
-4.88961
21
5.51894
0
LINE
8
BLACK
6
CONTINUOUS
10
-4.88961
20
5.51894
11
-4.92291
21
5.51894
0
LINE
8
BLACK
6
CONTINUOUS
10
-4.92291
20
5.51894
11
-4.92291
21
5.49945
0
LINE
8
BLACK
6
CONTINUOUS
10
-4.92291
20
5.49945
11
-4.92277
21
5.49906
0
LINE
8
BLACK
6
CONTINUOUS
10
-4.92277
20
5.49906
11
-4.92256
21
5.49894
0
LINE
8
BLACK
6
CONTINUOUS
10
-4.92256
20
5.49894
11
-4.8877
21
5.49894
0
LINE
8
BLACK
6
CONTINUOUS
10
-4.8877
20
5.49894
11
-4.88755
21
5.49894
0
LINE
8
BLACK
6
CONTINUOUS
10
-4.88755
20
5.49894
11
-4.88362
21
5.49935
0
LINE
8
BLACK
6
CONTINUOUS
10
-4.88362
20
5.49935
11
-4.88331
21
5.49942
0
LINE
8
BLACK
6
CONTINUOUS
10
-4.88331
20
5.49942
11
-4.87702
21
5.50152
0
LINE
8
BLACK
6
CONTINUOUS
10
-4.87702
20
5.50152
11
-4.87672
21
5.50166
0
LINE
8
BLACK
6
CONTINUOUS
10
-4.87672
20
5.50166
11
-4.87109
21
5.50514
0
LINE
8
BLACK
6
CONTINUOUS
10
-4.87109
20
5.50514
11
-4.87082
21
5.50535
0
LINE
8
BLACK
6
CONTINUOUS
10
-4.87082
20
5.50535
11
-4.86615
21
5.51004
0
LINE
8
BLACK
6
CONTINUOUS
10
-4.86615
20
5.51004
11
-4.86594
21
5.5103
0
LINE
8
BLACK
6
CONTINUOUS
10
-4.86594
20
5.5103
11
-4.86246
21
5.51594
0
LINE
8
BLACK
6
CONTINUOUS
10
-4.86246
20
5.51594
11
-4.86232
21
5.51624
0
LINE
8
BLACK
6
CONTINUOUS
10
-4.86232
20
5.51624
11
-4.86108
21
5.52
0
LINE
8
BLACK
6
CONTINUOUS
10
-4.86108
20
5.52
11
-4.86024
21
5.52254
0
LINE
8
BLACK
6
CONTINUOUS
10
-4.86024
20
5.52254
11
-4.86017
21
5.52285
0
LINE
8
BLACK
6
CONTINUOUS
10
-4.75808
20
5.51417
11
-4.75803
21
5.51383
0
LINE
8
BLACK
6
CONTINUOUS
10
-4.75803
20
5.51383
11
-4.75565
21
5.50808
0
LINE
8
BLACK
6
CONTINUOUS
10
-4.75565
20
5.50808
11
-4.75553
21
5.50793
0
LINE
8
BLACK
6
CONTINUOUS
10
-4.75553
20
5.50793
11
-4.75553
21
5.50793
0
LINE
8
BLACK
6
CONTINUOUS
10
-4.75553
20
5.50793
11
-4.75221
21
5.50359
0
LINE
8
BLACK
6
CONTINUOUS
10
-4.75221
20
5.50359
11
-4.75186
21
5.50314
0
LINE
8
BLACK
6
CONTINUOUS
10
-4.75186
20
5.50314
11
-4.75171
21
5.50302
0
LINE
8
BLACK
6
CONTINUOUS
10
-4.75171
20
5.50302
11
-4.74707
21
5.49947
0
LINE
8
BLACK
6
CONTINUOUS
10
-4.74707
20
5.49947
11
-4.74707
21
5.49947
0
LINE
8
BLACK
6
CONTINUOUS
10
-4.74707
20
5.49947
11
-4.74692
21
5.49935
0
LINE
8
BLACK
6
CONTINUOUS
10
-4.74692
20
5.49935
11
-4.74117
21
5.49697
0
LINE
8
BLACK
6
CONTINUOUS
10
-4.74117
20
5.49697
11
-4.74098
21
5.49694
0
LINE
8
BLACK
6
CONTINUOUS
10
-4.74098
20
5.49694
11
-4.74098
21
5.49694
0
LINE
8
BLACK
6
CONTINUOUS
10
-4.74098
20
5.49694
11
-4.73519
21
5.49618
0
LINE
8
BLACK
6
CONTINUOUS
10
-4.73519
20
5.49618
11
-4.735
21
5.49615
0
LINE
8
BLACK
6
CONTINUOUS
10
-4.735
20
5.49615
11
-4.73481
21
5.49618
0
LINE
8
BLACK
6
CONTINUOUS
10
-4.73481
20
5.49618
11
-4.72902
21
5.49694
0
LINE
8
BLACK
6
CONTINUOUS
10
-4.72902
20
5.49694
11
-4.72902
21
5.49694
0
LINE
8
BLACK
6
CONTINUOUS
10
-4.72902
20
5.49694
11
-4.72883
21
5.49697
0
LINE
8
BLACK
6
CONTINUOUS
10
-4.72883
20
5.49697
11
-4.72308
21
5.49935
0
LINE
8
BLACK
6
CONTINUOUS
10
-4.72308
20
5.49935
11
-4.72293
21
5.49947
0
LINE
8
BLACK
6
CONTINUOUS
10
-4.72293
20
5.49947
11
-4.72293
21
5.49947
0
LINE
8
BLACK
6
CONTINUOUS
10
-4.72293
20
5.49947
11
-4.71829
21
5.50302
0
LINE
8
BLACK
6
CONTINUOUS
10
-4.71829
20
5.50302
11
-4.71814
21
5.50314
0
LINE
8
BLACK
6
CONTINUOUS
10
-4.71814
20
5.50314
11
-4.71779
21
5.50359
0
LINE
8
BLACK
6
CONTINUOUS
10
-4.71779
20
5.50359
11
-4.71447
21
5.50793
0
LINE
8
BLACK
6
CONTINUOUS
10
-4.71447
20
5.50793
11
-4.71447
21
5.50793
0
LINE
8
BLACK
6
CONTINUOUS
10
-4.71447
20
5.50793
11
-4.71435
21
5.50808
0
LINE
8
BLACK
6
CONTINUOUS
10
-4.71435
20
5.50808
11
-4.71197
21
5.51383
0
LINE
8
BLACK
6
CONTINUOUS
10
-4.71197
20
5.51383
11
-4.71192
21
5.51417
0
LINE
8
BLACK
6
CONTINUOUS
10
-4.71192
20
5.51417
11
-4.71118
21
5.51981
0
LINE
8
BLACK
6
CONTINUOUS
10
-4.71118
20
5.51981
11
-4.71115
21
5.52
0
LINE
8
BLACK
6
CONTINUOUS
10
-4.71115
20
5.52
11
-4.71136
21
5.52159
0
LINE
8
BLACK
6
CONTINUOUS
10
-4.71136
20
5.52159
11
-4.71194
21
5.52598
0
LINE
8
BLACK
6
CONTINUOUS
10
-4.71194
20
5.52598
11
-4.71194
21
5.52598
0
LINE
8
BLACK
6
CONTINUOUS
10
-4.71194
20
5.52598
11
-4.71197
21
5.52617
0
LINE
8
BLACK
6
CONTINUOUS
10
-4.71197
20
5.52617
11
-4.71435
21
5.53192
0
LINE
8
BLACK
6
CONTINUOUS
10
-4.71435
20
5.53192
11
-4.71447
21
5.53207
0
LINE
8
BLACK
6
CONTINUOUS
10
-4.71447
20
5.53207
11
-4.71447
21
5.53207
0
LINE
8
BLACK
6
CONTINUOUS
10
-4.71447
20
5.53207
11
-4.71636
21
5.53455
0
LINE
8
BLACK
6
CONTINUOUS
10
-4.71636
20
5.53455
11
-4.71696
21
5.53645
0
LINE
8
BLACK
6
CONTINUOUS
10
-4.71696
20
5.53645
11
-4.7162
21
5.53829
0
LINE
8
BLACK
6
CONTINUOUS
10
-4.7162
20
5.53829
11
-4.71443
21
5.53921
0
LINE
8
BLACK
6
CONTINUOUS
10
-4.71443
20
5.53921
11
-4.71405
21
5.53923
0
LINE
8
BLACK
6
CONTINUOUS
10
-4.71405
20
5.53923
11
-4.57274
21
5.53923
0
LINE
8
BLACK
6
CONTINUOUS
10
-4.57274
20
5.53923
11
-4.57087
21
5.53855
0
LINE
8
BLACK
6
CONTINUOUS
10
-4.57087
20
5.53855
11
-4.57068
21
5.53838
0
LINE
8
BLACK
6
CONTINUOUS
10
-4.57068
20
5.53838
11
-4.55467
21
5.52238
0
LINE
8
BLACK
6
CONTINUOUS
10
-4.55467
20
5.52238
11
-4.55383
21
5.52057
0
LINE
8
BLACK
6
CONTINUOUS
10
-4.55383
20
5.52057
11
-4.55382
21
5.52032
0
LINE
8
BLACK
6
CONTINUOUS
10
-4.55382
20
5.52032
11
-4.55382
21
5.52019
0
LINE
8
BLACK
6
CONTINUOUS
10
-4.55382
20
5.52019
11
-4.55385
21
5.52
0
LINE
8
BLACK
6
CONTINUOUS
10
-4.55385
20
5.52
11
-4.55382
21
5.51981
0
LINE
8
BLACK
6
CONTINUOUS
10
-4.55382
20
5.51981
11
-4.55308
21
5.51417
0
LINE
8
BLACK
6
CONTINUOUS
10
-4.55308
20
5.51417
11
-4.55303
21
5.51383
0
LINE
8
BLACK
6
CONTINUOUS
10
-4.55303
20
5.51383
11
-4.55065
21
5.50808
0
LINE
8
BLACK
6
CONTINUOUS
10
-4.55065
20
5.50808
11
-4.55053
21
5.50793
0
LINE
8
BLACK
6
CONTINUOUS
10
-4.55053
20
5.50793
11
-4.55053
21
5.50793
0
LINE
8
BLACK
6
CONTINUOUS
10
-4.55053
20
5.50793
11
-4.54721
21
5.50359
0
LINE
8
BLACK
6
CONTINUOUS
10
-4.54721
20
5.50359
11
-4.54686
21
5.50314
0
LINE
8
BLACK
6
CONTINUOUS
10
-4.54686
20
5.50314
11
-4.54671
21
5.50302
0
LINE
8
BLACK
6
CONTINUOUS
10
-4.54671
20
5.50302
11
-4.54207
21
5.49947
0
LINE
8
BLACK
6
CONTINUOUS
10
-4.54207
20
5.49947
11
-4.54207
21
5.49947
0
LINE
8
BLACK
6
CONTINUOUS
10
-4.54207
20
5.49947
11
-4.54192
21
5.49935
0
LINE
8
BLACK
6
CONTINUOUS
10
-4.54192
20
5.49935
11
-4.53617
21
5.49697
0
LINE
8
BLACK
6
CONTINUOUS
10
-4.53617
20
5.49697
11
-4.53598
21
5.49694
0
LINE
8
BLACK
6
CONTINUOUS
10
-4.53598
20
5.49694
11
-4.53598
21
5.49694
0
LINE
8
BLACK
6
CONTINUOUS
10
-4.53598
20
5.49694
11
-4.53019
21
5.49618
0
LINE
8
BLACK
6
CONTINUOUS
10
-4.53019
20
5.49618
11
-4.53
21
5.49615
0
LINE
8
BLACK
6
CONTINUOUS
10
-4.53
20
5.49615
11
-4.52981
21
5.49618
0
LINE
8
BLACK
6
CONTINUOUS
10
-4.52981
20
5.49618
11
-4.52402
21
5.49694
0
LINE
8
BLACK
6
CONTINUOUS
10
-4.52402
20
5.49694
11
-4.52402
21
5.49694
0
LINE
8
BLACK
6
CONTINUOUS
10
-4.52402
20
5.49694
11
-4.52383
21
5.49697
0
LINE
8
BLACK
6
CONTINUOUS
10
-4.52383
20
5.49697
11
-4.51808
21
5.49935
0
LINE
8
BLACK
6
CONTINUOUS
10
-4.51808
20
5.49935
11
-4.51793
21
5.49947
0
LINE
8
BLACK
6
CONTINUOUS
10
-4.51793
20
5.49947
11
-4.51793
21
5.49947
0
LINE
8
BLACK
6
CONTINUOUS
10
-4.51793
20
5.49947
11
-4.51329
21
5.50302
0
LINE
8
BLACK
6
CONTINUOUS
10
-4.51329
20
5.50302
11
-4.51314
21
5.50314
0
LINE
8
BLACK
6
CONTINUOUS
10
-4.51314
20
5.50314
11
-4.51279
21
5.50359
0
LINE
8
BLACK
6
CONTINUOUS
10
-4.51279
20
5.50359
11
-4.50947
21
5.50793
0
LINE
8
BLACK
6
CONTINUOUS
10
-4.50947
20
5.50793
11
-4.50947
21
5.50793
0
LINE
8
BLACK
6
CONTINUOUS
10
-4.50947
20
5.50793
11
-4.50935
21
5.50808
0
LINE
8
BLACK
6
CONTINUOUS
10
-4.50935
20
5.50808
11
-4.50697
21
5.51383
0
LINE
8
BLACK
6
CONTINUOUS
10
-4.50697
20
5.51383
11
-4.50692
21
5.51417
0
LINE
8
BLACK
6
CONTINUOUS
10
-4.50692
20
5.51417
11
-4.50618
21
5.51981
0
LINE
8
BLACK
6
CONTINUOUS
10
-4.50618
20
5.51981
11
-4.50615
21
5.52
0
LINE
8
BLACK
6
CONTINUOUS
10
-4.50615
20
5.52
11
-4.50636
21
5.52159
0
LINE
8
BLACK
6
CONTINUOUS
10
-4.50636
20
5.52159
11
-4.50694
21
5.52598
0
LINE
8
BLACK
6
CONTINUOUS
10
-4.50694
20
5.52598
11
-4.50694
21
5.52598
0
LINE
8
BLACK
6
CONTINUOUS
10
-4.50694
20
5.52598
11
-4.50697
21
5.52617
0
LINE
8
BLACK
6
CONTINUOUS
10
-4.50697
20
5.52617
11
-4.50935
21
5.53192
0
LINE
8
BLACK
6
CONTINUOUS
10
-4.50935
20
5.53192
11
-4.50947
21
5.53207
0
LINE
8
BLACK
6
CONTINUOUS
10
-4.50947
20
5.53207
11
-4.50947
21
5.53207
0
LINE
8
BLACK
6
CONTINUOUS
10
-4.50947
20
5.53207
11
-4.51302
21
5.53671
0
LINE
8
BLACK
6
CONTINUOUS
10
-4.51302
20
5.53671
11
-4.51302
21
5.53671
0
LINE
8
BLACK
6
CONTINUOUS
10
-4.51302
20
5.53671
11
-4.51314
21
5.53686
0
LINE
8
BLACK
6
CONTINUOUS
10
-4.51314
20
5.53686
11
-4.51423
21
5.5377
0
LINE
8
BLACK
6
CONTINUOUS
10
-4.51423
20
5.5377
11
-4.51793
21
5.54053
0
LINE
8
BLACK
6
CONTINUOUS
10
-4.51793
20
5.54053
11
-4.51793
21
5.54053
0
LINE
8
BLACK
6
CONTINUOUS
10
-4.51793
20
5.54053
11
-4.51808
21
5.54065
0
LINE
8
BLACK
6
CONTINUOUS
10
-4.51808
20
5.54065
11
-4.52383
21
5.54303
0
LINE
8
BLACK
6
CONTINUOUS
10
-4.52383
20
5.54303
11
-4.52402
21
5.54306
0
LINE
8
BLACK
6
CONTINUOUS
10
-4.52402
20
5.54306
11
-4.52402
21
5.54306
0
LINE
8
BLACK
6
CONTINUOUS
10
-4.52402
20
5.54306
11
-4.52981
21
5.54382
0
LINE
8
BLACK
6
CONTINUOUS
10
-4.52981
20
5.54382
11
-4.53
21
5.54385
0
LINE
8
BLACK
6
CONTINUOUS
10
-4.53
20
5.54385
11
-4.53019
21
5.54382
0
LINE
8
BLACK
6
CONTINUOUS
10
-4.53019
20
5.54382
11
-4.53032
21
5.54382
0
LINE
8
BLACK
6
CONTINUOUS
10
-4.53032
20
5.54382
11
-4.53219
21
5.5445
0
LINE
8
BLACK
6
CONTINUOUS
10
-4.53219
20
5.5445
11
-4.53238
21
5.54467
0
LINE
8
BLACK
6
CONTINUOUS
10
-4.53238
20
5.54467
11
-4.55473
21
5.56703
0
LINE
8
BLACK
6
CONTINUOUS
10
-4.55473
20
5.56703
11
-4.55473
21
5.56703
0
LINE
8
BLACK
6
CONTINUOUS
10
-4.55473
20
5.56703
11
-4.55562
21
5.56792
0
LINE
8
BLACK
6
CONTINUOUS
10
-4.55562
20
5.56792
11
-4.55582
21
5.56802
0
LINE
8
BLACK
6
CONTINUOUS
10
-4.55582
20
5.56802
11
-4.55653
21
5.56838
0
LINE
8
BLACK
6
CONTINUOUS
10
-4.55653
20
5.56838
11
-4.55692
21
5.56862
0
LINE
8
BLACK
6
CONTINUOUS
10
-4.55692
20
5.56862
11
-4.55757
21
5.56909
0
LINE
8
BLACK
6
CONTINUOUS
10
-4.55757
20
5.56909
11
-4.55757
21
5.56909
0
LINE
8
BLACK
6
CONTINUOUS
10
-4.55757
20
5.56909
11
-4.55775
21
5.56922
0
LINE
8
BLACK
6
CONTINUOUS
10
-4.55775
20
5.56922
11
-4.55797
21
5.5693
0
LINE
8
BLACK
6
CONTINUOUS
10
-4.55797
20
5.5693
11
-4.55797
21
5.5693
0
LINE
8
BLACK
6
CONTINUOUS
10
-4.55797
20
5.5693
11
-4.55873
21
5.56954
0
LINE
8
BLACK
6
CONTINUOUS
10
-4.55873
20
5.56954
11
-4.55915
21
5.56972
0
LINE
8
BLACK
6
CONTINUOUS
10
-4.55915
20
5.56972
11
-4.55986
21
5.57008
0
LINE
8
BLACK
6
CONTINUOUS
10
-4.55986
20
5.57008
11
-4.56007
21
5.57018
0
LINE
8
BLACK
6
CONTINUOUS
10
-4.56007
20
5.57018
11
-4.5608
21
5.5703
0
LINE
8
BLACK
6
CONTINUOUS
10
-4.5608
20
5.5703
11
-4.56108
21
5.57034
0
LINE
8
BLACK
6
CONTINUOUS
10
-4.56108
20
5.57034
11
-4.56153
21
5.57045
0
LINE
8
BLACK
6
CONTINUOUS
10
-4.56153
20
5.57045
11
-4.56228
21
5.5707
0
LINE
8
BLACK
6
CONTINUOUS
10
-4.56228
20
5.5707
11
-4.56228
21
5.5707
0
LINE
8
BLACK
6
CONTINUOUS
10
-4.56228
20
5.5707
11
-4.5625
21
5.57077
0
LINE
8
BLACK
6
CONTINUOUS
10
-4.5625
20
5.57077
11
-4.72624
21
5.57077
0
LINE
8
BLACK
6
CONTINUOUS
10
-4.72624
20
5.57077
11
-4.72624
21
5.57077
0
LINE
8
BLACK
6
CONTINUOUS
10
-4.72624
20
5.57077
11
-4.7275
21
5.57077
0
LINE
8
BLACK
6
CONTINUOUS
10
-4.7275
20
5.57077
11
-4.72772
21
5.5707
0
LINE
8
BLACK
6
CONTINUOUS
10
-4.72772
20
5.5707
11
-4.72772
21
5.5707
0
LINE
8
BLACK
6
CONTINUOUS
10
-4.72772
20
5.5707
11
-4.72809
21
5.57057
0
LINE
8
BLACK
6
CONTINUOUS
10
-4.72809
20
5.57057
11
-4.72847
21
5.57045
0
LINE
8
BLACK
6
CONTINUOUS
10
-4.72847
20
5.57045
11
-4.72892
21
5.57034
0
LINE
8
BLACK
6
CONTINUOUS
10
-4.72892
20
5.57034
11
-4.72993
21
5.57018
0
LINE
8
BLACK
6
CONTINUOUS
10
-4.72993
20
5.57018
11
-4.73014
21
5.57008
0
LINE
8
BLACK
6
CONTINUOUS
10
-4.73014
20
5.57008
11
-4.73085
21
5.56972
0
LINE
8
BLACK
6
CONTINUOUS
10
-4.73085
20
5.56972
11
-4.73127
21
5.56954
0
LINE
8
BLACK
6
CONTINUOUS
10
-4.73127
20
5.56954
11
-4.73225
21
5.56922
0
LINE
8
BLACK
6
CONTINUOUS
10
-4.73225
20
5.56922
11
-4.73291
21
5.56874
0
LINE
8
BLACK
6
CONTINUOUS
10
-4.73291
20
5.56874
11
-4.73308
21
5.56862
0
LINE
8
BLACK
6
CONTINUOUS
10
-4.73308
20
5.56862
11
-4.73347
21
5.56838
0
LINE
8
BLACK
6
CONTINUOUS
10
-4.73347
20
5.56838
11
-4.73438
21
5.56792
0
LINE
8
BLACK
6
CONTINUOUS
10
-4.73438
20
5.56792
11
-4.73527
21
5.56703
0
LINE
8
BLACK
6
CONTINUOUS
10
-4.73527
20
5.56703
11
-4.74703
21
5.55527
0
LINE
8
BLACK
6
CONTINUOUS
10
-4.74703
20
5.55527
11
-4.74703
21
5.55527
0
LINE
8
BLACK
6
CONTINUOUS
10
-4.74703
20
5.55527
11
-4.74792
21
5.55438
0
LINE
8
BLACK
6
CONTINUOUS
10
-4.74792
20
5.55438
11
-4.74802
21
5.55418
0
LINE
8
BLACK
6
CONTINUOUS
10
-4.74802
20
5.55418
11
-4.74802
21
5.55418
0
LINE
8
BLACK
6
CONTINUOUS
10
-4.74802
20
5.55418
11
-4.74838
21
5.55347
0
LINE
8
BLACK
6
CONTINUOUS
10
-4.74838
20
5.55347
11
-4.74862
21
5.55308
0
LINE
8
BLACK
6
CONTINUOUS
10
-4.74862
20
5.55308
11
-4.74909
21
5.55243
0
LINE
8
BLACK
6
CONTINUOUS
10
-4.74909
20
5.55243
11
-4.74909
21
5.55243
0
LINE
8
BLACK
6
CONTINUOUS
10
-4.74909
20
5.55243
11
-4.74922
21
5.55225
0
LINE
8
BLACK
6
CONTINUOUS
10
-4.74922
20
5.55225
11
-4.7493
21
5.55203
0
LINE
8
BLACK
6
CONTINUOUS
10
-4.7493
20
5.55203
11
-4.7493
21
5.55203
0
LINE
8
BLACK
6
CONTINUOUS
10
-4.7493
20
5.55203
11
-4.74954
21
5.55127
0
LINE
8
BLACK
6
CONTINUOUS
10
-4.74954
20
5.55127
11
-4.74972
21
5.55085
0
LINE
8
BLACK
6
CONTINUOUS
10
-4.74972
20
5.55085
11
-4.74988
21
5.55052
0
LINE
8
BLACK
6
CONTINUOUS
10
-4.74988
20
5.55052
11
-4.75018
21
5.54993
0
LINE
8
BLACK
6
CONTINUOUS
10
-4.75018
20
5.54993
11
-4.75022
21
5.54971
0
LINE
8
BLACK
6
CONTINUOUS
10
-4.75022
20
5.54971
11
-4.75034
21
5.54892
0
LINE
8
BLACK
6
CONTINUOUS
10
-4.75034
20
5.54892
11
-4.75045
21
5.54847
0
LINE
8
BLACK
6
CONTINUOUS
10
-4.75045
20
5.54847
11
-4.7507
21
5.54772
0
LINE
8
BLACK
6
CONTINUOUS
10
-4.7507
20
5.54772
11
-4.75077
21
5.5475
0
LINE
8
BLACK
6
CONTINUOUS
10
-4.75077
20
5.5475
11
-4.75077
21
5.53913
0
LINE
8
BLACK
6
CONTINUOUS
10
-4.75077
20
5.53913
11
-4.75145
21
5.53725
0
LINE
8
BLACK
6
CONTINUOUS
10
-4.75145
20
5.53725
11
-4.75162
21
5.53707
0
LINE
8
BLACK
6
CONTINUOUS
10
-4.75162
20
5.53707
11
-4.75171
21
5.53698
0
LINE
8
BLACK
6
CONTINUOUS
10
-4.75171
20
5.53698
11
-4.75186
21
5.53686
0
LINE
8
BLACK
6
CONTINUOUS
10
-4.75186
20
5.53686
11
-4.75198
21
5.53671
0
LINE
8
BLACK
6
CONTINUOUS
10
-4.75198
20
5.53671
11
-4.75553
21
5.53207
0
LINE
8
BLACK
6
CONTINUOUS
10
-4.75553
20
5.53207
11
-4.75553
21
5.53207
0
LINE
8
BLACK
6
CONTINUOUS
10
-4.75553
20
5.53207
11
-4.75565
21
5.53192
0
LINE
8
BLACK
6
CONTINUOUS
10
-4.75565
20
5.53192
11
-4.75803
21
5.52617
0
LINE
8
BLACK
6
CONTINUOUS
10
-4.75803
20
5.52617
11
-4.75806
21
5.52598
0
LINE
8
BLACK
6
CONTINUOUS
10
-4.75806
20
5.52598
11
-4.75806
21
5.52598
0
LINE
8
BLACK
6
CONTINUOUS
10
-4.75806
20
5.52598
11
-4.75864
21
5.52159
0
LINE
8
BLACK
6
CONTINUOUS
10
-4.75864
20
5.52159
11
-4.75885
21
5.52
0
LINE
8
BLACK
6
CONTINUOUS
10
-4.75885
20
5.52
11
-4.75882
21
5.51981
0
LINE
8
BLACK
6
CONTINUOUS
10
-4.75882
20
5.51981
11
-4.75808
21
5.51417
0
LINE
8
BLACK
6
CONTINUOUS
10
-4.9224
20
5.57831
11
-4.92279
21
5.57816
0
LINE
8
BLACK
6
CONTINUOUS
10
-4.92279
20
5.57816
11
-4.92291
21
5.57796
0
LINE
8
BLACK
6
CONTINUOUS
10
-4.92291
20
5.57796
11
-4.92291
21
5.55831
0
LINE
8
BLACK
6
CONTINUOUS
10
-4.92291
20
5.55831
11
-4.88961
21
5.55831
0
LINE
8
BLACK
6
CONTINUOUS
10
-4.88961
20
5.55831
11
-4.88584
21
5.55756
0
LINE
8
BLACK
6
CONTINUOUS
10
-4.88584
20
5.55756
11
-4.88265
21
5.55542
0
LINE
8
BLACK
6
CONTINUOUS
10
-4.88265
20
5.55542
11
-4.88051
21
5.55223
0
LINE
8
BLACK
6
CONTINUOUS
10
-4.88051
20
5.55223
11
-4.8798
21
5.54862
0
LINE
8
BLACK
6
CONTINUOUS
10
-4.8798
20
5.54862
11
-4.86028
21
5.54862
0
LINE
8
BLACK
6
CONTINUOUS
10
-4.86028
20
5.54862
11
-4.85988
21
5.54877
0
LINE
8
BLACK
6
CONTINUOUS
10
-4.85988
20
5.54877
11
-4.85976
21
5.54897
0
LINE
8
BLACK
6
CONTINUOUS
10
-4.85976
20
5.54897
11
-4.85976
21
5.55037
0
LINE
8
BLACK
6
CONTINUOUS
10
-4.85976
20
5.55037
11
-4.85977
21
5.55052
0
LINE
8
BLACK
6
CONTINUOUS
10
-4.85977
20
5.55052
11
-4.86018
21
5.55445
0
LINE
8
BLACK
6
CONTINUOUS
10
-4.86018
20
5.55445
11
-4.86025
21
5.55476
0
LINE
8
BLACK
6
CONTINUOUS
10
-4.86025
20
5.55476
11
-4.86234
21
5.56105
0
LINE
8
BLACK
6
CONTINUOUS
10
-4.86234
20
5.56105
11
-4.86249
21
5.56135
0
LINE
8
BLACK
6
CONTINUOUS
10
-4.86249
20
5.56135
11
-4.86597
21
5.56698
0
LINE
8
BLACK
6
CONTINUOUS
10
-4.86597
20
5.56698
11
-4.86618
21
5.56725
0
LINE
8
BLACK
6
CONTINUOUS
10
-4.86618
20
5.56725
11
-4.87086
21
5.57192
0
LINE
8
BLACK
6
CONTINUOUS
10
-4.87086
20
5.57192
11
-4.87113
21
5.57213
0
LINE
8
BLACK
6
CONTINUOUS
10
-4.87113
20
5.57213
11
-4.87676
21
5.57561
0
LINE
8
BLACK
6
CONTINUOUS
10
-4.87676
20
5.57561
11
-4.87707
21
5.57575
0
LINE
8
BLACK
6
CONTINUOUS
10
-4.87707
20
5.57575
11
-4.88336
21
5.57784
0
LINE
8
BLACK
6
CONTINUOUS
10
-4.88336
20
5.57784
11
-4.88367
21
5.5779
0
LINE
8
BLACK
6
CONTINUOUS
10
-4.88367
20
5.5779
11
-4.88755
21
5.5783
0
LINE
8
BLACK
6
CONTINUOUS
10
-4.88755
20
5.5783
11
-4.8877
21
5.57831
0
LINE
8
BLACK
6
CONTINUOUS
10
-4.8877
20
5.57831
11
-4.9224
21
5.57831
0
LINE
8
BLACK
6
CONTINUOUS
10
-4.79658
20
5.57965
11
-4.77681
21
5.57965
0
LINE
8
BLACK
6
CONTINUOUS
10
-4.77681
20
5.57965
11
-4.7767
21
5.57965
0
LINE
8
BLACK
6
CONTINUOUS
10
-4.7767
20
5.57965
11
-4.77543
21
5.57975
0
LINE
8
BLACK
6
CONTINUOUS
10
-4.77543
20
5.57975
11
-4.77514
21
5.5798
0
LINE
8
BLACK
6
CONTINUOUS
10
-4.77514
20
5.5798
11
-4.76918
21
5.58154
0
LINE
8
BLACK
6
CONTINUOUS
10
-4.76918
20
5.58154
11
-4.76884
21
5.58168
0
LINE
8
BLACK
6
CONTINUOUS
10
-4.76884
20
5.58168
11
-4.76352
21
5.58483
0
LINE
8
BLACK
6
CONTINUOUS
10
-4.76352
20
5.58483
11
-4.76324
21
5.58505
0
LINE
8
BLACK
6
CONTINUOUS
10
-4.76324
20
5.58505
11
-4.75887
21
5.58942
0
LINE
8
BLACK
6
CONTINUOUS
10
-4.75887
20
5.58942
11
-4.75864
21
5.58971
0
LINE
8
BLACK
6
CONTINUOUS
10
-4.75864
20
5.58971
11
-4.7555
21
5.59502
0
LINE
8
BLACK
6
CONTINUOUS
10
-4.7555
20
5.59502
11
-4.75536
21
5.59536
0
LINE
8
BLACK
6
CONTINUOUS
10
-4.75536
20
5.59536
11
-4.75373
21
5.60096
0
LINE
8
BLACK
6
CONTINUOUS
10
-4.75373
20
5.60096
11
-4.75375
21
5.60138
0
LINE
8
BLACK
6
CONTINUOUS
10
-4.75375
20
5.60138
11
-4.7538
21
5.60143
0
LINE
8
BLACK
6
CONTINUOUS
10
-4.7538
20
5.60143
11
-4.75392
21
5.60146
0
LINE
8
BLACK
6
CONTINUOUS
10
-4.75392
20
5.60146
11
-4.77514
21
5.60146
0
LINE
8
BLACK
6
CONTINUOUS
10
-4.77514
20
5.60146
11
-4.77519
21
5.60138
0
LINE
8
BLACK
6
CONTINUOUS
10
-4.77519
20
5.60138
11
-4.77711
21
5.6001
0
LINE
8
BLACK
6
CONTINUOUS
10
-4.77711
20
5.6001
11
-4.77937
21
5.59965
0
LINE
8
BLACK
6
CONTINUOUS
10
-4.77937
20
5.59965
11
-4.79693
21
5.59965
0
LINE
8
BLACK
6
CONTINUOUS
10
-4.79693
20
5.59965
11
-4.79693
21
5.58016
0
LINE
8
BLACK
6
CONTINUOUS
10
-4.79693
20
5.58016
11
-4.79679
21
5.57977
0
LINE
8
BLACK
6
CONTINUOUS
10
-4.79679
20
5.57977
11
-4.79658
21
5.57965
0
LINE
8
BLACK
6
CONTINUOUS
10
-4.90065
20
5.74808
11
-4.90053
21
5.74793
0
LINE
8
BLACK
6
CONTINUOUS
10
-4.90053
20
5.74793
11
-4.90053
21
5.74793
0
LINE
8
BLACK
6
CONTINUOUS
10
-4.90053
20
5.74793
11
-4.89942
21
5.74648
0
LINE
8
BLACK
6
CONTINUOUS
10
-4.89942
20
5.74648
11
-4.89686
21
5.74314
0
LINE
8
BLACK
6
CONTINUOUS
10
-4.89686
20
5.74314
11
-4.89671
21
5.74302
0
LINE
8
BLACK
6
CONTINUOUS
10
-4.89671
20
5.74302
11
-4.89671
21
5.74302
0
LINE
8
BLACK
6
CONTINUOUS
10
-4.89671
20
5.74302
11
-4.89207
21
5.73947
0
LINE
8
BLACK
6
CONTINUOUS
10
-4.89207
20
5.73947
11
-4.89207
21
5.73947
0
LINE
8
BLACK
6
CONTINUOUS
10
-4.89207
20
5.73947
11
-4.89192
21
5.73935
0
LINE
8
BLACK
6
CONTINUOUS
10
-4.89192
20
5.73935
11
-4.88617
21
5.73697
0
LINE
8
BLACK
6
CONTINUOUS
10
-4.88617
20
5.73697
11
-4.88598
21
5.73694
0
LINE
8
BLACK
6
CONTINUOUS
10
-4.88598
20
5.73694
11
-4.88598
21
5.73694
0
LINE
8
BLACK
6
CONTINUOUS
10
-4.88598
20
5.73694
11
-4.88019
21
5.73618
0
LINE
8
BLACK
6
CONTINUOUS
10
-4.88019
20
5.73618
11
-4.88
21
5.73615
0
LINE
8
BLACK
6
CONTINUOUS
10
-4.88
20
5.73615
11
-4.87981
21
5.73618
0
LINE
8
BLACK
6
CONTINUOUS
10
-4.87981
20
5.73618
11
-4.87402
21
5.73694
0
LINE
8
BLACK
6
CONTINUOUS
10
-4.87402
20
5.73694
11
-4.87402
21
5.73694
0
LINE
8
BLACK
6
CONTINUOUS
10
-4.87402
20
5.73694
11
-4.87383
21
5.73697
0
LINE
8
BLACK
6
CONTINUOUS
10
-4.87383
20
5.73697
11
-4.86808
21
5.73935
0
LINE
8
BLACK
6
CONTINUOUS
10
-4.86808
20
5.73935
11
-4.86793
21
5.73947
0
LINE
8
BLACK
6
CONTINUOUS
10
-4.86793
20
5.73947
11
-4.86793
21
5.73947
0
LINE
8
BLACK
6
CONTINUOUS
10
-4.86793
20
5.73947
11
-4.86329
21
5.74302
0
LINE
8
BLACK
6
CONTINUOUS
10
-4.86329
20
5.74302
11
-4.86314
21
5.74314
0
LINE
8
BLACK
6
CONTINUOUS
10
-4.86314
20
5.74314
11
-4.86302
21
5.74329
0
LINE
8
BLACK
6
CONTINUOUS
10
-4.86302
20
5.74329
11
-4.86293
21
5.74338
0
LINE
8
BLACK
6
CONTINUOUS
10
-4.86293
20
5.74338
11
-4.86113
21
5.74422
0
LINE
8
BLACK
6
CONTINUOUS
10
-4.86113
20
5.74422
11
-4.86087
21
5.74423
0
LINE
8
BLACK
6
CONTINUOUS
10
-4.86087
20
5.74423
11
-4.84625
21
5.74423
0
LINE
8
BLACK
6
CONTINUOUS
10
-4.84625
20
5.74423
11
-4.84438
21
5.74355
0
LINE
8
BLACK
6
CONTINUOUS
10
-4.84438
20
5.74355
11
-4.8442
21
5.74338
0
LINE
8
BLACK
6
CONTINUOUS
10
-4.8442
20
5.74338
11
-4.84278
21
5.74197
0
LINE
8
BLACK
6
CONTINUOUS
10
-4.84278
20
5.74197
11
-4.84261
21
5.7418
0
LINE
8
BLACK
6
CONTINUOUS
10
-4.84261
20
5.7418
11
-4.8424
21
5.74169
0
LINE
8
BLACK
6
CONTINUOUS
10
-4.8424
20
5.74169
11
-4.8387
21
5.73989
0
LINE
8
BLACK
6
CONTINUOUS
10
-4.8387
20
5.73989
11
-4.83848
21
5.73978
0
LINE
8
BLACK
6
CONTINUOUS
10
-4.83848
20
5.73978
11
-4.8358
21
5.73939
0
LINE
8
BLACK
6
CONTINUOUS
10
-4.8358
20
5.73939
11
-4.77806
21
5.73939
0
LINE
8
BLACK
6
CONTINUOUS
10
-4.77806
20
5.73939
11
-4.77755
21
5.73946
0
LINE
8
BLACK
6
CONTINUOUS
10
-4.77755
20
5.73946
11
-4.77557
21
5.73976
0
LINE
8
BLACK
6
CONTINUOUS
10
-4.77557
20
5.73976
11
-4.77557
21
5.73976
0
LINE
8
BLACK
6
CONTINUOUS
10
-4.77557
20
5.73976
11
-4.77535
21
5.73979
0
LINE
8
BLACK
6
CONTINUOUS
10
-4.77535
20
5.73979
11
-4.77515
21
5.73989
0
LINE
8
BLACK
6
CONTINUOUS
10
-4.77515
20
5.73989
11
-4.77515
21
5.73989
0
LINE
8
BLACK
6
CONTINUOUS
10
-4.77515
20
5.73989
11
-4.77334
21
5.74077
0
LINE
8
BLACK
6
CONTINUOUS
10
-4.77334
20
5.74077
11
-4.77123
21
5.74181
0
LINE
8
BLACK
6
CONTINUOUS
10
-4.77123
20
5.74181
11
-4.77106
21
5.74198
0
LINE
8
BLACK
6
CONTINUOUS
10
-4.77106
20
5.74198
11
-4.77106
21
5.74198
0
LINE
8
BLACK
6
CONTINUOUS
10
-4.77106
20
5.74198
11
-4.77057
21
5.74247
0
LINE
8
BLACK
6
CONTINUOUS
10
-4.77057
20
5.74247
11
-4.76876
21
5.74332
0
LINE
8
BLACK
6
CONTINUOUS
10
-4.76876
20
5.74332
11
-4.76851
21
5.74333
0
LINE
8
BLACK
6
CONTINUOUS
10
-4.76851
20
5.74333
11
-4.7581
21
5.74333
0
LINE
8
BLACK
6
CONTINUOUS
10
-4.7581
20
5.74333
11
-4.75632
21
5.74272
0
LINE
8
BLACK
6
CONTINUOUS
10
-4.75632
20
5.74272
11
-4.75207
21
5.73947
0
LINE
8
BLACK
6
CONTINUOUS
10
-4.75207
20
5.73947
11
-4.75207
21
5.73947
0
LINE
8
BLACK
6
CONTINUOUS
10
-4.75207
20
5.73947
11
-4.75192
21
5.73935
0
LINE
8
BLACK
6
CONTINUOUS
10
-4.75192
20
5.73935
11
-4.74617
21
5.73697
0
LINE
8
BLACK
6
CONTINUOUS
10
-4.74617
20
5.73697
11
-4.74598
21
5.73694
0
LINE
8
BLACK
6
CONTINUOUS
10
-4.74598
20
5.73694
11
-4.74598
21
5.73694
0
LINE
8
BLACK
6
CONTINUOUS
10
-4.74598
20
5.73694
11
-4.74019
21
5.73618
0
LINE
8
BLACK
6
CONTINUOUS
10
-4.74019
20
5.73618
11
-4.74
21
5.73615
0
LINE
8
BLACK
6
CONTINUOUS
10
-4.74
20
5.73615
11
-4.73981
21
5.73618
0
LINE
8
BLACK
6
CONTINUOUS
10
-4.73981
20
5.73618
11
-4.73402
21
5.73694
0
LINE
8
BLACK
6
CONTINUOUS
10
-4.73402
20
5.73694
11
-4.73402
21
5.73694
0
LINE
8
BLACK
6
CONTINUOUS
10
-4.73402
20
5.73694
11
-4.73383
21
5.73697
0
LINE
8
BLACK
6
CONTINUOUS
10
-4.73383
20
5.73697
11
-4.72808
21
5.73935
0
LINE
8
BLACK
6
CONTINUOUS
10
-4.72808
20
5.73935
11
-4.72793
21
5.73947
0
LINE
8
BLACK
6
CONTINUOUS
10
-4.72793
20
5.73947
11
-4.72793
21
5.73947
0
LINE
8
BLACK
6
CONTINUOUS
10
-4.72793
20
5.73947
11
-4.72329
21
5.74302
0
LINE
8
BLACK
6
CONTINUOUS
10
-4.72329
20
5.74302
11
-4.72329
21
5.74302
0
LINE
8
BLACK
6
CONTINUOUS
10
-4.72329
20
5.74302
11
-4.72314
21
5.74314
0
LINE
8
BLACK
6
CONTINUOUS
10
-4.72314
20
5.74314
11
-4.72058
21
5.74648
0
LINE
8
BLACK
6
CONTINUOUS
10
-4.72058
20
5.74648
11
-4.71947
21
5.74793
0
LINE
8
BLACK
6
CONTINUOUS
10
-4.71947
20
5.74793
11
-4.71947
21
5.74793
0
LINE
8
BLACK
6
CONTINUOUS
10
-4.71947
20
5.74793
11
-4.71935
21
5.74808
0
LINE
8
BLACK
6
CONTINUOUS
10
-4.71935
20
5.74808
11
-4.71697
21
5.75383
0
LINE
8
BLACK
6
CONTINUOUS
10
-4.71697
20
5.75383
11
-4.71615
21
5.76
0
LINE
8
BLACK
6
CONTINUOUS
10
-4.71615
20
5.76
11
-4.71697
21
5.76617
0
LINE
8
BLACK
6
CONTINUOUS
10
-4.71697
20
5.76617
11
-4.71935
21
5.77192
0
LINE
8
BLACK
6
CONTINUOUS
10
-4.71935
20
5.77192
11
-4.71947
21
5.77207
0
LINE
8
BLACK
6
CONTINUOUS
10
-4.71947
20
5.77207
11
-4.71947
21
5.77207
0
LINE
8
BLACK
6
CONTINUOUS
10
-4.71947
20
5.77207
11
-4.72302
21
5.77671
0
LINE
8
BLACK
6
CONTINUOUS
10
-4.72302
20
5.77671
11
-4.72314
21
5.77686
0
LINE
8
BLACK
6
CONTINUOUS
10
-4.72314
20
5.77686
11
-4.72329
21
5.77698
0
LINE
8
BLACK
6
CONTINUOUS
10
-4.72329
20
5.77698
11
-4.72793
21
5.78053
0
LINE
8
BLACK
6
CONTINUOUS
10
-4.72793
20
5.78053
11
-4.72793
21
5.78053
0
LINE
8
BLACK
6
CONTINUOUS
10
-4.72793
20
5.78053
11
-4.72808
21
5.78065
0
LINE
8
BLACK
6
CONTINUOUS
10
-4.72808
20
5.78065
11
-4.73383
21
5.78303
0
LINE
8
BLACK
6
CONTINUOUS
10
-4.73383
20
5.78303
11
-4.73402
21
5.78306
0
LINE
8
BLACK
6
CONTINUOUS
10
-4.73402
20
5.78306
11
-4.73402
21
5.78306
0
LINE
8
BLACK
6
CONTINUOUS
10
-4.73402
20
5.78306
11
-4.73981
21
5.78382
0
LINE
8
BLACK
6
CONTINUOUS
10
-4.73981
20
5.78382
11
-4.74
21
5.78385
0
LINE
8
BLACK
6
CONTINUOUS
10
-4.74
20
5.78385
11
-4.74019
21
5.78382
0
LINE
8
BLACK
6
CONTINUOUS
10
-4.74019
20
5.78382
11
-4.74598
21
5.78306
0
LINE
8
BLACK
6
CONTINUOUS
10
-4.74598
20
5.78306
11
-4.74598
21
5.78306
0
LINE
8
BLACK
6
CONTINUOUS
10
-4.74598
20
5.78306
11
-4.74617
21
5.78303
0
LINE
8
BLACK
6
CONTINUOUS
10
-4.74617
20
5.78303
11
-4.75192
21
5.78065
0
LINE
8
BLACK
6
CONTINUOUS
10
-4.75192
20
5.78065
11
-4.75207
21
5.78053
0
LINE
8
BLACK
6
CONTINUOUS
10
-4.75207
20
5.78053
11
-4.75207
21
5.78053
0
LINE
8
BLACK
6
CONTINUOUS
10
-4.75207
20
5.78053
11
-4.75671
21
5.77698
0
LINE
8
BLACK
6
CONTINUOUS
10
-4.75671
20
5.77698
11
-4.75686
21
5.77686
0
LINE
8
BLACK
6
CONTINUOUS
10
-4.75686
20
5.77686
11
-4.75735
21
5.77622
0
LINE
8
BLACK
6
CONTINUOUS
10
-4.75735
20
5.77622
11
-4.75752
21
5.776
0
LINE
8
BLACK
6
CONTINUOUS
10
-4.75752
20
5.776
11
-4.7592
21
5.77493
0
LINE
8
BLACK
6
CONTINUOUS
10
-4.7592
20
5.77493
11
-4.75983
21
5.77486
0
LINE
8
BLACK
6
CONTINUOUS
10
-4.75983
20
5.77486
11
-4.76851
21
5.77486
0
LINE
8
BLACK
6
CONTINUOUS
10
-4.76851
20
5.77486
11
-4.77038
21
5.77554
0
LINE
8
BLACK
6
CONTINUOUS
10
-4.77038
20
5.77554
11
-4.77057
21
5.77571
0
LINE
8
BLACK
6
CONTINUOUS
10
-4.77057
20
5.77571
11
-4.77108
21
5.77622
0
LINE
8
BLACK
6
CONTINUOUS
10
-4.77108
20
5.77622
11
-4.77108
21
5.77622
0
LINE
8
BLACK
6
CONTINUOUS
10
-4.77108
20
5.77622
11
-4.77125
21
5.77639
0
LINE
8
BLACK
6
CONTINUOUS
10
-4.77125
20
5.77639
11
-4.77245
21
5.77698
0
LINE
8
BLACK
6
CONTINUOUS
10
-4.77245
20
5.77698
11
-4.77517
21
5.77831
0
LINE
8
BLACK
6
CONTINUOUS
10
-4.77517
20
5.77831
11
-4.77517
21
5.77831
0
LINE
8
BLACK
6
CONTINUOUS
10
-4.77517
20
5.77831
11
-4.77537
21
5.77841
0
LINE
8
BLACK
6
CONTINUOUS
10
-4.77537
20
5.77841
11
-4.77806
21
5.7788
0
LINE
8
BLACK
6
CONTINUOUS
10
-4.77806
20
5.7788
11
-4.8358
21
5.7788
0
LINE
8
BLACK
6
CONTINUOUS
10
-4.8358
20
5.7788
11
-4.8359
21
5.77878
0
LINE
8
BLACK
6
CONTINUOUS
10
-4.8359
20
5.77878
11
-4.83828
21
5.77843
0
LINE
8
BLACK
6
CONTINUOUS
10
-4.83828
20
5.77843
11
-4.83828
21
5.77843
0
LINE
8
BLACK
6
CONTINUOUS
10
-4.83828
20
5.77843
11
-4.83851
21
5.7784
0
LINE
8
BLACK
6
CONTINUOUS
10
-4.83851
20
5.7784
11
-4.83871
21
5.7783
0
LINE
8
BLACK
6
CONTINUOUS
10
-4.83871
20
5.7783
11
-4.83871
21
5.7783
0
LINE
8
BLACK
6
CONTINUOUS
10
-4.83871
20
5.7783
11
-4.84052
21
5.77741
0
LINE
8
BLACK
6
CONTINUOUS
10
-4.84052
20
5.77741
11
-4.84263
21
5.77638
0
LINE
8
BLACK
6
CONTINUOUS
10
-4.84263
20
5.77638
11
-4.84272
21
5.77629
0
LINE
8
BLACK
6
CONTINUOUS
10
-4.84272
20
5.77629
11
-4.84435
21
5.77577
0
LINE
8
BLACK
6
CONTINUOUS
10
-4.84435
20
5.77577
11
-4.86087
21
5.77577
0
LINE
8
BLACK
6
CONTINUOUS
10
-4.86087
20
5.77577
11
-4.86275
21
5.77645
0
LINE
8
BLACK
6
CONTINUOUS
10
-4.86275
20
5.77645
11
-4.86293
21
5.77662
0
LINE
8
BLACK
6
CONTINUOUS
10
-4.86293
20
5.77662
11
-4.86302
21
5.77671
0
LINE
8
BLACK
6
CONTINUOUS
10
-4.86302
20
5.77671
11
-4.86314
21
5.77686
0
LINE
8
BLACK
6
CONTINUOUS
10
-4.86314
20
5.77686
11
-4.86436
21
5.7778
0
LINE
8
BLACK
6
CONTINUOUS
10
-4.86436
20
5.7778
11
-4.86793
21
5.78053
0
LINE
8
BLACK
6
CONTINUOUS
10
-4.86793
20
5.78053
11
-4.86793
21
5.78053
0
LINE
8
BLACK
6
CONTINUOUS
10
-4.86793
20
5.78053
11
-4.86808
21
5.78065
0
LINE
8
BLACK
6
CONTINUOUS
10
-4.86808
20
5.78065
11
-4.87383
21
5.78303
0
LINE
8
BLACK
6
CONTINUOUS
10
-4.87383
20
5.78303
11
-4.87402
21
5.78306
0
LINE
8
BLACK
6
CONTINUOUS
10
-4.87402
20
5.78306
11
-4.87402
21
5.78306
0
LINE
8
BLACK
6
CONTINUOUS
10
-4.87402
20
5.78306
11
-4.87981
21
5.78382
0
LINE
8
BLACK
6
CONTINUOUS
10
-4.87981
20
5.78382
11
-4.88
21
5.78385
0
LINE
8
BLACK
6
CONTINUOUS
10
-4.88
20
5.78385
11
-4.88019
21
5.78382
0
LINE
8
BLACK
6
CONTINUOUS
10
-4.88019
20
5.78382
11
-4.88598
21
5.78306
0
LINE
8
BLACK
6
CONTINUOUS
10
-4.88598
20
5.78306
11
-4.88598
21
5.78306
0
LINE
8
BLACK
6
CONTINUOUS
10
-4.88598
20
5.78306
11
-4.88617
21
5.78303
0
LINE
8
BLACK
6
CONTINUOUS
10
-4.88617
20
5.78303
11
-4.89192
21
5.78065
0
LINE
8
BLACK
6
CONTINUOUS
10
-4.89192
20
5.78065
11
-4.89207
21
5.78053
0
LINE
8
BLACK
6
CONTINUOUS
10
-4.89207
20
5.78053
11
-4.89207
21
5.78053
0
LINE
8
BLACK
6
CONTINUOUS
10
-4.89207
20
5.78053
11
-4.89671
21
5.77698
0
LINE
8
BLACK
6
CONTINUOUS
10
-4.89671
20
5.77698
11
-4.89686
21
5.77686
0
LINE
8
BLACK
6
CONTINUOUS
10
-4.89686
20
5.77686
11
-4.89698
21
5.77671
0
LINE
8
BLACK
6
CONTINUOUS
10
-4.89698
20
5.77671
11
-4.90053
21
5.77207
0
LINE
8
BLACK
6
CONTINUOUS
10
-4.90053
20
5.77207
11
-4.90053
21
5.77207
0
LINE
8
BLACK
6
CONTINUOUS
10
-4.90053
20
5.77207
11
-4.90065
21
5.77192
0
LINE
8
BLACK
6
CONTINUOUS
10
-4.90065
20
5.77192
11
-4.90303
21
5.76617
0
LINE
8
BLACK
6
CONTINUOUS
10
-4.90303
20
5.76617
11
-4.90385
21
5.76
0
LINE
8
BLACK
6
CONTINUOUS
10
-4.90385
20
5.76
11
-4.90303
21
5.75383
0
LINE
8
BLACK
6
CONTINUOUS
10
-4.90303
20
5.75383
11
-4.90065
21
5.74808
0
LINE
8
BLACK
6
CONTINUOUS
10
-4.9224
20
5.87161
11
-4.92279
21
5.87147
0
LINE
8
BLACK
6
CONTINUOUS
10
-4.92279
20
5.87147
11
-4.92291
21
5.87126
0
LINE
8
BLACK
6
CONTINUOUS
10
-4.92291
20
5.87126
11
-4.92291
21
5.85161
0
LINE
8
BLACK
6
CONTINUOUS
10
-4.92291
20
5.85161
11
-4.88961
21
5.85161
0
LINE
8
BLACK
6
CONTINUOUS
10
-4.88961
20
5.85161
11
-4.88584
21
5.85086
0
LINE
8
BLACK
6
CONTINUOUS
10
-4.88584
20
5.85086
11
-4.88265
21
5.84873
0
LINE
8
BLACK
6
CONTINUOUS
10
-4.88265
20
5.84873
11
-4.88051
21
5.84554
0
LINE
8
BLACK
6
CONTINUOUS
10
-4.88051
20
5.84554
11
-4.8798
21
5.84193
0
LINE
8
BLACK
6
CONTINUOUS
10
-4.8798
20
5.84193
11
-4.86028
21
5.84193
0
LINE
8
BLACK
6
CONTINUOUS
10
-4.86028
20
5.84193
11
-4.85988
21
5.84207
0
LINE
8
BLACK
6
CONTINUOUS
10
-4.85988
20
5.84207
11
-4.85976
21
5.84228
0
LINE
8
BLACK
6
CONTINUOUS
10
-4.85976
20
5.84228
11
-4.85976
21
5.84368
0
LINE
8
BLACK
6
CONTINUOUS
10
-4.85976
20
5.84368
11
-4.85977
21
5.84383
0
LINE
8
BLACK
6
CONTINUOUS
10
-4.85977
20
5.84383
11
-4.86018
21
5.84776
0
LINE
8
BLACK
6
CONTINUOUS
10
-4.86018
20
5.84776
11
-4.86025
21
5.84807
0
LINE
8
BLACK
6
CONTINUOUS
10
-4.86025
20
5.84807
11
-4.86234
21
5.85436
0
LINE
8
BLACK
6
CONTINUOUS
10
-4.86234
20
5.85436
11
-4.86249
21
5.85466
0
LINE
8
BLACK
6
CONTINUOUS
10
-4.86249
20
5.85466
11
-4.86597
21
5.86029
0
LINE
8
BLACK
6
CONTINUOUS
10
-4.86597
20
5.86029
11
-4.86618
21
5.86055
0
LINE
8
BLACK
6
CONTINUOUS
10
-4.86618
20
5.86055
11
-4.87086
21
5.86523
0
LINE
8
BLACK
6
CONTINUOUS
10
-4.87086
20
5.86523
11
-4.87113
21
5.86544
0
LINE
8
BLACK
6
CONTINUOUS
10
-4.87113
20
5.86544
11
-4.87676
21
5.86891
0
LINE
8
BLACK
6
CONTINUOUS
10
-4.87676
20
5.86891
11
-4.87707
21
5.86906
0
LINE
8
BLACK
6
CONTINUOUS
10
-4.87707
20
5.86906
11
-4.88336
21
5.87114
0
LINE
8
BLACK
6
CONTINUOUS
10
-4.88336
20
5.87114
11
-4.88367
21
5.87121
0
LINE
8
BLACK
6
CONTINUOUS
10
-4.88367
20
5.87121
11
-4.88755
21
5.87161
0
LINE
8
BLACK
6
CONTINUOUS
10
-4.88755
20
5.87161
11
-4.8877
21
5.87161
0
LINE
8
BLACK
6
CONTINUOUS
10
-4.8877
20
5.87161
11
-4.9224
21
5.87161
0
LINE
8
BLACK
6
CONTINUOUS
10
-4.92256
20
5.79224
11
-4.8877
21
5.79224
0
LINE
8
BLACK
6
CONTINUOUS
10
-4.8877
20
5.79224
11
-4.88755
21
5.79225
0
LINE
8
BLACK
6
CONTINUOUS
10
-4.88755
20
5.79225
11
-4.88362
21
5.79266
0
LINE
8
BLACK
6
CONTINUOUS
10
-4.88362
20
5.79266
11
-4.88331
21
5.79273
0
LINE
8
BLACK
6
CONTINUOUS
10
-4.88331
20
5.79273
11
-4.87702
21
5.79482
0
LINE
8
BLACK
6
CONTINUOUS
10
-4.87702
20
5.79482
11
-4.87672
21
5.79497
0
LINE
8
BLACK
6
CONTINUOUS
10
-4.87672
20
5.79497
11
-4.87109
21
5.79845
0
LINE
8
BLACK
6
CONTINUOUS
10
-4.87109
20
5.79845
11
-4.87082
21
5.79866
0
LINE
8
BLACK
6
CONTINUOUS
10
-4.87082
20
5.79866
11
-4.86615
21
5.80334
0
LINE
8
BLACK
6
CONTINUOUS
10
-4.86615
20
5.80334
11
-4.86594
21
5.80361
0
LINE
8
BLACK
6
CONTINUOUS
10
-4.86594
20
5.80361
11
-4.86246
21
5.80924
0
LINE
8
BLACK
6
CONTINUOUS
10
-4.86246
20
5.80924
11
-4.86232
21
5.80955
0
LINE
8
BLACK
6
CONTINUOUS
10
-4.86232
20
5.80955
11
-4.86024
21
5.81584
0
LINE
8
BLACK
6
CONTINUOUS
10
-4.86024
20
5.81584
11
-4.86017
21
5.81615
0
LINE
8
BLACK
6
CONTINUOUS
10
-4.86017
20
5.81615
11
-4.85977
21
5.82003
0
LINE
8
BLACK
6
CONTINUOUS
10
-4.85977
20
5.82003
11
-4.85976
21
5.82018
0
LINE
8
BLACK
6
CONTINUOUS
10
-4.85976
20
5.82018
11
-4.85976
21
5.82142
0
LINE
8
BLACK
6
CONTINUOUS
10
-4.85976
20
5.82142
11
-4.85991
21
5.82181
0
LINE
8
BLACK
6
CONTINUOUS
10
-4.85991
20
5.82181
11
-4.86012
21
5.82193
0
LINE
8
BLACK
6
CONTINUOUS
10
-4.86012
20
5.82193
11
-4.8798
21
5.82193
0
LINE
8
BLACK
6
CONTINUOUS
10
-4.8798
20
5.82193
11
-4.88051
21
5.81832
0
LINE
8
BLACK
6
CONTINUOUS
10
-4.88051
20
5.81832
11
-4.88265
21
5.81513
0
LINE
8
BLACK
6
CONTINUOUS
10
-4.88265
20
5.81513
11
-4.88584
21
5.81299
0
LINE
8
BLACK
6
CONTINUOUS
10
-4.88584
20
5.81299
11
-4.88961
21
5.81224
0
LINE
8
BLACK
6
CONTINUOUS
10
-4.88961
20
5.81224
11
-4.92291
21
5.81224
0
LINE
8
BLACK
6
CONTINUOUS
10
-4.92291
20
5.81224
11
-4.92291
21
5.79276
0
LINE
8
BLACK
6
CONTINUOUS
10
-4.92291
20
5.79276
11
-4.92277
21
5.79236
0
LINE
8
BLACK
6
CONTINUOUS
10
-4.92277
20
5.79236
11
-4.92256
21
5.79224
0
LINE
8
BLACK
6
CONTINUOUS
10
-4.8585
20
5.59536
11
-4.85836
21
5.59502
0
LINE
8
BLACK
6
CONTINUOUS
10
-4.85836
20
5.59502
11
-4.85521
21
5.58971
0
LINE
8
BLACK
6
CONTINUOUS
10
-4.85521
20
5.58971
11
-4.85499
21
5.58942
0
LINE
8
BLACK
6
CONTINUOUS
10
-4.85499
20
5.58942
11
-4.85062
21
5.58505
0
LINE
8
BLACK
6
CONTINUOUS
10
-4.85062
20
5.58505
11
-4.85033
21
5.58483
0
LINE
8
BLACK
6
CONTINUOUS
10
-4.85033
20
5.58483
11
-4.84502
21
5.58168
0
LINE
8
BLACK
6
CONTINUOUS
10
-4.84502
20
5.58168
11
-4.84468
21
5.58154
0
LINE
8
BLACK
6
CONTINUOUS
10
-4.84468
20
5.58154
11
-4.83872
21
5.5798
0
LINE
8
BLACK
6
CONTINUOUS
10
-4.83872
20
5.5798
11
-4.83842
21
5.57975
0
LINE
8
BLACK
6
CONTINUOUS
10
-4.83842
20
5.57975
11
-4.83716
21
5.57965
0
LINE
8
BLACK
6
CONTINUOUS
10
-4.83716
20
5.57965
11
-4.83705
21
5.57965
0
LINE
8
BLACK
6
CONTINUOUS
10
-4.83705
20
5.57965
11
-4.81744
21
5.57965
0
LINE
8
BLACK
6
CONTINUOUS
10
-4.81744
20
5.57965
11
-4.81705
21
5.57979
0
LINE
8
BLACK
6
CONTINUOUS
10
-4.81705
20
5.57979
11
-4.81693
21
5.58
0
LINE
8
BLACK
6
CONTINUOUS
10
-4.81693
20
5.58
11
-4.81693
21
5.59965
0
LINE
8
BLACK
6
CONTINUOUS
10
-4.81693
20
5.59965
11
-4.83449
21
5.59965
0
LINE
8
BLACK
6
CONTINUOUS
10
-4.83449
20
5.59965
11
-4.83675
21
5.6001
0
LINE
8
BLACK
6
CONTINUOUS
10
-4.83675
20
5.6001
11
-4.83866
21
5.60138
0
LINE
8
BLACK
6
CONTINUOUS
10
-4.83866
20
5.60138
11
-4.83872
21
5.60146
0
LINE
8
BLACK
6
CONTINUOUS
10
-4.83872
20
5.60146
11
-4.85976
21
5.60146
0
LINE
8
BLACK
6
CONTINUOUS
10
-4.85976
20
5.60146
11
-4.86016
21
5.60131
0
LINE
8
BLACK
6
CONTINUOUS
10
-4.86016
20
5.60131
11
-4.86019
21
5.60126
0
LINE
8
BLACK
6
CONTINUOUS
10
-4.86019
20
5.60126
11
-4.86018
21
5.60114
0
LINE
8
BLACK
6
CONTINUOUS
10
-4.86018
20
5.60114
11
-4.8585
21
5.59536
0
LINE
8
BLACK
6
CONTINUOUS
10
-4.88013
20
5.67498
11
-4.87574
21
5.67274
0
LINE
8
BLACK
6
CONTINUOUS
10
-4.87574
20
5.67274
11
-4.87226
21
5.66926
0
LINE
8
BLACK
6
CONTINUOUS
10
-4.87226
20
5.66926
11
-4.8719
21
5.66854
0
LINE
8
BLACK
6
CONTINUOUS
10
-4.8719
20
5.66854
11
-4.84
21
5.66854
0
LINE
8
BLACK
6
CONTINUOUS
10
-4.84
20
5.66854
11
-4.83994
21
5.66883
0
LINE
8
BLACK
6
CONTINUOUS
10
-4.83994
20
5.66883
11
-4.83866
21
5.67075
0
LINE
8
BLACK
6
CONTINUOUS
10
-4.83866
20
5.67075
11
-4.83675
21
5.67203
0
LINE
8
BLACK
6
CONTINUOUS
10
-4.83675
20
5.67203
11
-4.83449
21
5.67248
0
LINE
8
BLACK
6
CONTINUOUS
10
-4.83449
20
5.67248
11
-4.77937
21
5.67248
0
LINE
8
BLACK
6
CONTINUOUS
10
-4.77937
20
5.67248
11
-4.77711
21
5.67203
0
LINE
8
BLACK
6
CONTINUOUS
10
-4.77711
20
5.67203
11
-4.77519
21
5.67075
0
LINE
8
BLACK
6
CONTINUOUS
10
-4.77519
20
5.67075
11
-4.77391
21
5.66883
0
LINE
8
BLACK
6
CONTINUOUS
10
-4.77391
20
5.66883
11
-4.77346
21
5.66657
0
LINE
8
BLACK
6
CONTINUOUS
10
-4.77346
20
5.66657
11
-4.77346
21
5.65476
0
LINE
8
BLACK
6
CONTINUOUS
10
-4.77346
20
5.65476
11
-4.77391
21
5.6525
0
LINE
8
BLACK
6
CONTINUOUS
10
-4.77391
20
5.6525
11
-4.77519
21
5.65059
0
LINE
8
BLACK
6
CONTINUOUS
10
-4.77519
20
5.65059
11
-4.77711
21
5.64931
0
LINE
8
BLACK
6
CONTINUOUS
10
-4.77711
20
5.64931
11
-4.77937
21
5.64886
0
LINE
8
BLACK
6
CONTINUOUS
10
-4.77937
20
5.64886
11
-4.83449
21
5.64886
0
LINE
8
BLACK
6
CONTINUOUS
10
-4.83449
20
5.64886
11
-4.83675
21
5.64931
0
LINE
8
BLACK
6
CONTINUOUS
10
-4.83675
20
5.64931
11
-4.83866
21
5.65059
0
LINE
8
BLACK
6
CONTINUOUS
10
-4.83866
20
5.65059
11
-4.83994
21
5.6525
0
LINE
8
BLACK
6
CONTINUOUS
10
-4.83994
20
5.6525
11
-4.84
21
5.6528
0
LINE
8
BLACK
6
CONTINUOUS
10
-4.84
20
5.6528
11
-4.87121
21
5.6528
0
LINE
8
BLACK
6
CONTINUOUS
10
-4.87121
20
5.6528
11
-4.87226
21
5.65074
0
LINE
8
BLACK
6
CONTINUOUS
10
-4.87226
20
5.65074
11
-4.87574
21
5.64726
0
LINE
8
BLACK
6
CONTINUOUS
10
-4.87574
20
5.64726
11
-4.88013
21
5.64502
0
LINE
8
BLACK
6
CONTINUOUS
10
-4.88013
20
5.64502
11
-4.885
21
5.64425
0
LINE
8
BLACK
6
CONTINUOUS
10
-4.885
20
5.64425
11
-4.88987
21
5.64502
0
LINE
8
BLACK
6
CONTINUOUS
10
-4.88987
20
5.64502
11
-4.89426
21
5.64726
0
LINE
8
BLACK
6
CONTINUOUS
10
-4.89426
20
5.64726
11
-4.89774
21
5.65074
0
LINE
8
BLACK
6
CONTINUOUS
10
-4.89774
20
5.65074
11
-4.89998
21
5.65513
0
LINE
8
BLACK
6
CONTINUOUS
10
-4.89998
20
5.65513
11
-4.90075
21
5.66
0
LINE
8
BLACK
6
CONTINUOUS
10
-4.90075
20
5.66
11
-4.89998
21
5.66487
0
LINE
8
BLACK
6
CONTINUOUS
10
-4.89998
20
5.66487
11
-4.89774
21
5.66926
0
LINE
8
BLACK
6
CONTINUOUS
10
-4.89774
20
5.66926
11
-4.89426
21
5.67274
0
LINE
8
BLACK
6
CONTINUOUS
10
-4.89426
20
5.67274
11
-4.88987
21
5.67498
0
LINE
8
BLACK
6
CONTINUOUS
10
-4.88987
20
5.67498
11
-4.885
21
5.67575
0
LINE
8
BLACK
6
CONTINUOUS
10
-4.885
20
5.67575
11
-4.88013
21
5.67498
0
LINE
8
BLACK
6
CONTINUOUS
10
-4.77711
20
5.72124
11
-4.77519
21
5.71996
0
LINE
8
BLACK
6
CONTINUOUS
10
-4.77519
20
5.71996
11
-4.77391
21
5.71805
0
LINE
8
BLACK
6
CONTINUOUS
10
-4.77391
20
5.71805
11
-4.77386
21
5.71776
0
LINE
8
BLACK
6
CONTINUOUS
10
-4.77386
20
5.71776
11
-4.74987
21
5.71776
0
LINE
8
BLACK
6
CONTINUOUS
10
-4.74987
20
5.71776
11
-4.74859
21
5.71746
0
LINE
8
BLACK
6
CONTINUOUS
10
-4.74859
20
5.71746
11
-4.74728
21
5.71731
0
LINE
8
BLACK
6
CONTINUOUS
10
-4.74728
20
5.71731
11
-4.7469
21
5.71707
0
LINE
8
BLACK
6
CONTINUOUS
10
-4.7469
20
5.71707
11
-4.74645
21
5.71697
0
LINE
8
BLACK
6
CONTINUOUS
10
-4.74645
20
5.71697
11
-4.74543
21
5.71615
0
LINE
8
BLACK
6
CONTINUOUS
10
-4.74543
20
5.71615
11
-4.74431
21
5.71545
0
LINE
8
BLACK
6
CONTINUOUS
10
-4.74431
20
5.71545
11
-4.73442
21
5.70556
0
LINE
8
BLACK
6
CONTINUOUS
10
-4.73442
20
5.70556
11
-4.73372
21
5.70444
0
LINE
8
BLACK
6
CONTINUOUS
10
-4.73372
20
5.70444
11
-4.7329
21
5.70341
0
LINE
8
BLACK
6
CONTINUOUS
10
-4.7329
20
5.70341
11
-4.7328
21
5.70297
0
LINE
8
BLACK
6
CONTINUOUS
10
-4.7328
20
5.70297
11
-4.73256
21
5.70259
0
LINE
8
BLACK
6
CONTINUOUS
10
-4.73256
20
5.70259
11
-4.73242
21
5.70128
0
LINE
8
BLACK
6
CONTINUOUS
10
-4.73242
20
5.70128
11
-4.73213
21
5.7
0
LINE
8
BLACK
6
CONTINUOUS
10
-4.73213
20
5.7
11
-4.73213
21
5.67344
0
LINE
8
BLACK
6
CONTINUOUS
10
-4.73213
20
5.67344
11
-4.73074
21
5.67274
0
LINE
8
BLACK
6
CONTINUOUS
10
-4.73074
20
5.67274
11
-4.72726
21
5.66926
0
LINE
8
BLACK
6
CONTINUOUS
10
-4.72726
20
5.66926
11
-4.72555
21
5.66591
0
LINE
8
BLACK
6
CONTINUOUS
10
-4.72555
20
5.66591
11
-4.30445
21
5.66591
0
LINE
8
BLACK
6
CONTINUOUS
10
-4.30445
20
5.66591
11
-4.30274
21
5.66926
0
LINE
8
BLACK
6
CONTINUOUS
10
-4.30274
20
5.66926
11
-4.29926
21
5.67274
0
LINE
8
BLACK
6
CONTINUOUS
10
-4.29926
20
5.67274
11
-4.29487
21
5.67498
0
LINE
8
BLACK
6
CONTINUOUS
10
-4.29487
20
5.67498
11
-4.29
21
5.67575
0
LINE
8
BLACK
6
CONTINUOUS
10
-4.29
20
5.67575
11
-4.28513
21
5.67498
0
LINE
8
BLACK
6
CONTINUOUS
10
-4.28513
20
5.67498
11
-4.28074
21
5.67274
0
LINE
8
BLACK
6
CONTINUOUS
10
-4.28074
20
5.67274
11
-4.27726
21
5.66926
0
LINE
8
BLACK
6
CONTINUOUS
10
-4.27726
20
5.66926
11
-4.27502
21
5.66487
0
LINE
8
BLACK
6
CONTINUOUS
10
-4.27502
20
5.66487
11
-4.27425
21
5.66
0
LINE
8
BLACK
6
CONTINUOUS
10
-4.27425
20
5.66
11
-4.27502
21
5.65513
0
LINE
8
BLACK
6
CONTINUOUS
10
-4.27502
20
5.65513
11
-4.27726
21
5.65074
0
LINE
8
BLACK
6
CONTINUOUS
10
-4.27726
20
5.65074
11
-4.28074
21
5.64726
0
LINE
8
BLACK
6
CONTINUOUS
10
-4.28074
20
5.64726
11
-4.28513
21
5.64502
0
LINE
8
BLACK
6
CONTINUOUS
10
-4.28513
20
5.64502
11
-4.29
21
5.64425
0
LINE
8
BLACK
6
CONTINUOUS
10
-4.29
20
5.64425
11
-4.29487
21
5.64502
0
LINE
8
BLACK
6
CONTINUOUS
10
-4.29487
20
5.64502
11
-4.29926
21
5.64726
0
LINE
8
BLACK
6
CONTINUOUS
10
-4.29926
20
5.64726
11
-4.30274
21
5.65074
0
LINE
8
BLACK
6
CONTINUOUS
10
-4.30274
20
5.65074
11
-4.30445
21
5.65409
0
LINE
8
BLACK
6
CONTINUOUS
10
-4.30445
20
5.65409
11
-4.72555
21
5.65409
0
LINE
8
BLACK
6
CONTINUOUS
10
-4.72555
20
5.65409
11
-4.72726
21
5.65074
0
LINE
8
BLACK
6
CONTINUOUS
10
-4.72726
20
5.65074
11
-4.73074
21
5.64726
0
LINE
8
BLACK
6
CONTINUOUS
10
-4.73074
20
5.64726
11
-4.73513
21
5.64502
0
LINE
8
BLACK
6
CONTINUOUS
10
-4.73513
20
5.64502
11
-4.74
21
5.64425
0
LINE
8
BLACK
6
CONTINUOUS
10
-4.74
20
5.64425
11
-4.74487
21
5.64502
0
LINE
8
BLACK
6
CONTINUOUS
10
-4.74487
20
5.64502
11
-4.74926
21
5.64726
0
LINE
8
BLACK
6
CONTINUOUS
10
-4.74926
20
5.64726
11
-4.75274
21
5.65074
0
LINE
8
BLACK
6
CONTINUOUS
10
-4.75274
20
5.65074
11
-4.75498
21
5.65513
0
LINE
8
BLACK
6
CONTINUOUS
10
-4.75498
20
5.65513
11
-4.75575
21
5.66
0
LINE
8
BLACK
6
CONTINUOUS
10
-4.75575
20
5.66
11
-4.75498
21
5.66487
0
LINE
8
BLACK
6
CONTINUOUS
10
-4.75498
20
5.66487
11
-4.75274
21
5.66926
0
LINE
8
BLACK
6
CONTINUOUS
10
-4.75274
20
5.66926
11
-4.74926
21
5.67274
0
LINE
8
BLACK
6
CONTINUOUS
10
-4.74926
20
5.67274
11
-4.74787
21
5.67344
0
LINE
8
BLACK
6
CONTINUOUS
10
-4.74787
20
5.67344
11
-4.74787
21
5.69674
0
LINE
8
BLACK
6
CONTINUOUS
10
-4.74787
20
5.69674
11
-4.75314
21
5.70201
0
LINE
8
BLACK
6
CONTINUOUS
10
-4.75314
20
5.70201
11
-4.77386
21
5.70201
0
LINE
8
BLACK
6
CONTINUOUS
10
-4.77386
20
5.70201
11
-4.77391
21
5.70172
0
LINE
8
BLACK
6
CONTINUOUS
10
-4.77391
20
5.70172
11
-4.77519
21
5.6998
0
LINE
8
BLACK
6
CONTINUOUS
10
-4.77519
20
5.6998
11
-4.77711
21
5.69852
0
LINE
8
BLACK
6
CONTINUOUS
10
-4.77711
20
5.69852
11
-4.77937
21
5.69807
0
LINE
8
BLACK
6
CONTINUOUS
10
-4.77937
20
5.69807
11
-4.83449
21
5.69807
0
LINE
8
BLACK
6
CONTINUOUS
10
-4.83449
20
5.69807
11
-4.83675
21
5.69852
0
LINE
8
BLACK
6
CONTINUOUS
10
-4.83675
20
5.69852
11
-4.83866
21
5.6998
0
LINE
8
BLACK
6
CONTINUOUS
10
-4.83866
20
5.6998
11
-4.83994
21
5.70172
0
LINE
8
BLACK
6
CONTINUOUS
10
-4.83994
20
5.70172
11
-4.84039
21
5.70398
0
LINE
8
BLACK
6
CONTINUOUS
10
-4.84039
20
5.70398
11
-4.84039
21
5.71579
0
LINE
8
BLACK
6
CONTINUOUS
10
-4.84039
20
5.71579
11
-4.83994
21
5.71805
0
LINE
8
BLACK
6
CONTINUOUS
10
-4.83994
20
5.71805
11
-4.83866
21
5.71996
0
LINE
8
BLACK
6
CONTINUOUS
10
-4.83866
20
5.71996
11
-4.83675
21
5.72124
0
LINE
8
BLACK
6
CONTINUOUS
10
-4.83675
20
5.72124
11
-4.83449
21
5.72169
0
LINE
8
BLACK
6
CONTINUOUS
10
-4.83449
20
5.72169
11
-4.77937
21
5.72169
0
LINE
8
BLACK
6
CONTINUOUS
10
-4.77937
20
5.72169
11
-4.77711
21
5.72124
0
LINE
8
BLACK
6
CONTINUOUS
10
-4.5637
20
5.56258
11
-4.5624
21
5.56243
0
LINE
8
BLACK
6
CONTINUOUS
10
-4.5624
20
5.56243
11
-4.56201
21
5.56219
0
LINE
8
BLACK
6
CONTINUOUS
10
-4.56201
20
5.56219
11
-4.56157
21
5.56209
0
LINE
8
BLACK
6
CONTINUOUS
10
-4.56157
20
5.56209
11
-4.56055
21
5.56127
0
LINE
8
BLACK
6
CONTINUOUS
10
-4.56055
20
5.56127
11
-4.55943
21
5.56057
0
LINE
8
BLACK
6
CONTINUOUS
10
-4.55943
20
5.56057
11
-4.53398
21
5.53512
0
LINE
8
BLACK
6
CONTINUOUS
10
-4.53398
20
5.53512
11
-4.53
21
5.53575
0
LINE
8
BLACK
6
CONTINUOUS
10
-4.53
20
5.53575
11
-4.52513
21
5.53498
0
LINE
8
BLACK
6
CONTINUOUS
10
-4.52513
20
5.53498
11
-4.52074
21
5.53274
0
LINE
8
BLACK
6
CONTINUOUS
10
-4.52074
20
5.53274
11
-4.51726
21
5.52926
0
LINE
8
BLACK
6
CONTINUOUS
10
-4.51726
20
5.52926
11
-4.51502
21
5.52487
0
LINE
8
BLACK
6
CONTINUOUS
10
-4.51502
20
5.52487
11
-4.51425
21
5.52
0
LINE
8
BLACK
6
CONTINUOUS
10
-4.51425
20
5.52
11
-4.51502
21
5.51513
0
LINE
8
BLACK
6
CONTINUOUS
10
-4.51502
20
5.51513
11
-4.51726
21
5.51074
0
LINE
8
BLACK
6
CONTINUOUS
10
-4.51726
20
5.51074
11
-4.52074
21
5.50726
0
LINE
8
BLACK
6
CONTINUOUS
10
-4.52074
20
5.50726
11
-4.52513
21
5.50502
0
LINE
8
BLACK
6
CONTINUOUS
10
-4.52513
20
5.50502
11
-4.53
21
5.50425
0
LINE
8
BLACK
6
CONTINUOUS
10
-4.53
20
5.50425
11
-4.53487
21
5.50502
0
LINE
8
BLACK
6
CONTINUOUS
10
-4.53487
20
5.50502
11
-4.53926
21
5.50726
0
LINE
8
BLACK
6
CONTINUOUS
10
-4.53926
20
5.50726
11
-4.54274
21
5.51074
0
LINE
8
BLACK
6
CONTINUOUS
10
-4.54274
20
5.51074
11
-4.54498
21
5.51513
0
LINE
8
BLACK
6
CONTINUOUS
10
-4.54498
20
5.51513
11
-4.54575
21
5.52
0
LINE
8
BLACK
6
CONTINUOUS
10
-4.54575
20
5.52
11
-4.54512
21
5.52398
0
LINE
8
BLACK
6
CONTINUOUS
10
-4.54512
20
5.52398
11
-4.56826
21
5.54713
0
LINE
8
BLACK
6
CONTINUOUS
10
-4.56826
20
5.54713
11
-4.72174
21
5.54713
0
LINE
8
BLACK
6
CONTINUOUS
10
-4.72174
20
5.54713
11
-4.72713
21
5.54174
0
LINE
8
BLACK
6
CONTINUOUS
10
-4.72713
20
5.54174
11
-4.72713
21
5.53344
0
LINE
8
BLACK
6
CONTINUOUS
10
-4.72713
20
5.53344
11
-4.72574
21
5.53274
0
LINE
8
BLACK
6
CONTINUOUS
10
-4.72574
20
5.53274
11
-4.72226
21
5.52926
0
LINE
8
BLACK
6
CONTINUOUS
10
-4.72226
20
5.52926
11
-4.72002
21
5.52487
0
LINE
8
BLACK
6
CONTINUOUS
10
-4.72002
20
5.52487
11
-4.71925
21
5.52
0
LINE
8
BLACK
6
CONTINUOUS
10
-4.71925
20
5.52
11
-4.72002
21
5.51513
0
LINE
8
BLACK
6
CONTINUOUS
10
-4.72002
20
5.51513
11
-4.72226
21
5.51074
0
LINE
8
BLACK
6
CONTINUOUS
10
-4.72226
20
5.51074
11
-4.72574
21
5.50726
0
LINE
8
BLACK
6
CONTINUOUS
10
-4.72574
20
5.50726
11
-4.73013
21
5.50502
0
LINE
8
BLACK
6
CONTINUOUS
10
-4.73013
20
5.50502
11
-4.735
21
5.50425
0
LINE
8
BLACK
6
CONTINUOUS
10
-4.735
20
5.50425
11
-4.73987
21
5.50502
0
LINE
8
BLACK
6
CONTINUOUS
10
-4.73987
20
5.50502
11
-4.74426
21
5.50726
0
LINE
8
BLACK
6
CONTINUOUS
10
-4.74426
20
5.50726
11
-4.74774
21
5.51074
0
LINE
8
BLACK
6
CONTINUOUS
10
-4.74774
20
5.51074
11
-4.74998
21
5.51513
0
LINE
8
BLACK
6
CONTINUOUS
10
-4.74998
20
5.51513
11
-4.75075
21
5.52
0
LINE
8
BLACK
6
CONTINUOUS
10
-4.75075
20
5.52
11
-4.74998
21
5.52487
0
LINE
8
BLACK
6
CONTINUOUS
10
-4.74998
20
5.52487
11
-4.74774
21
5.52926
0
LINE
8
BLACK
6
CONTINUOUS
10
-4.74774
20
5.52926
11
-4.74426
21
5.53274
0
LINE
8
BLACK
6
CONTINUOUS
10
-4.74426
20
5.53274
11
-4.74287
21
5.53344
0
LINE
8
BLACK
6
CONTINUOUS
10
-4.74287
20
5.53344
11
-4.74287
21
5.54501
0
LINE
8
BLACK
6
CONTINUOUS
10
-4.74287
20
5.54501
11
-4.74258
21
5.5463
0
LINE
8
BLACK
6
CONTINUOUS
10
-4.74258
20
5.5463
11
-4.74243
21
5.5476
0
LINE
8
BLACK
6
CONTINUOUS
10
-4.74243
20
5.5476
11
-4.74219
21
5.54799
0
LINE
8
BLACK
6
CONTINUOUS
10
-4.74219
20
5.54799
11
-4.74209
21
5.54843
0
LINE
8
BLACK
6
CONTINUOUS
10
-4.74209
20
5.54843
11
-4.74127
21
5.54945
0
LINE
8
BLACK
6
CONTINUOUS
10
-4.74127
20
5.54945
11
-4.74057
21
5.55057
0
LINE
8
BLACK
6
CONTINUOUS
10
-4.74057
20
5.55057
11
-4.73056
21
5.56058
0
LINE
8
BLACK
6
CONTINUOUS
10
-4.73056
20
5.56058
11
-4.72944
21
5.56128
0
LINE
8
BLACK
6
CONTINUOUS
10
-4.72944
20
5.56128
11
-4.72841
21
5.5621
0
LINE
8
BLACK
6
CONTINUOUS
10
-4.72841
20
5.5621
11
-4.72797
21
5.5622
0
LINE
8
BLACK
6
CONTINUOUS
10
-4.72797
20
5.5622
11
-4.72759
21
5.56244
0
LINE
8
BLACK
6
CONTINUOUS
10
-4.72759
20
5.56244
11
-4.72628
21
5.56258
0
LINE
8
BLACK
6
CONTINUOUS
10
-4.72628
20
5.56258
11
-4.725
21
5.56287
0
LINE
8
BLACK
6
CONTINUOUS
10
-4.725
20
5.56287
11
-4.56499
21
5.56287
0
LINE
8
BLACK
6
CONTINUOUS
10
-4.56499
20
5.56287
11
-4.5637
21
5.56258
0
LINE
8
BLACK
6
CONTINUOUS
10
-4.73513
20
5.77498
11
-4.73074
21
5.77274
0
LINE
8
BLACK
6
CONTINUOUS
10
-4.73074
20
5.77274
11
-4.72726
21
5.76926
0
LINE
8
BLACK
6
CONTINUOUS
10
-4.72726
20
5.76926
11
-4.72502
21
5.76487
0
LINE
8
BLACK
6
CONTINUOUS
10
-4.72502
20
5.76487
11
-4.72425
21
5.76
0
LINE
8
BLACK
6
CONTINUOUS
10
-4.72425
20
5.76
11
-4.72502
21
5.75513
0
LINE
8
BLACK
6
CONTINUOUS
10
-4.72502
20
5.75513
11
-4.72726
21
5.75074
0
LINE
8
BLACK
6
CONTINUOUS
10
-4.72726
20
5.75074
11
-4.73074
21
5.74726
0
LINE
8
BLACK
6
CONTINUOUS
10
-4.73074
20
5.74726
11
-4.73513
21
5.74502
0
LINE
8
BLACK
6
CONTINUOUS
10
-4.73513
20
5.74502
11
-4.74
21
5.74425
0
LINE
8
BLACK
6
CONTINUOUS
10
-4.74
20
5.74425
11
-4.74487
21
5.74502
0
LINE
8
BLACK
6
CONTINUOUS
10
-4.74487
20
5.74502
11
-4.74926
21
5.74726
0
LINE
8
BLACK
6
CONTINUOUS
10
-4.74926
20
5.74726
11
-4.75274
21
5.75074
0
LINE
8
BLACK
6
CONTINUOUS
10
-4.75274
20
5.75074
11
-4.75298
21
5.75122
0
LINE
8
BLACK
6
CONTINUOUS
10
-4.75298
20
5.75122
11
-4.77386
21
5.75122
0
LINE
8
BLACK
6
CONTINUOUS
10
-4.77386
20
5.75122
11
-4.77391
21
5.75093
0
LINE
8
BLACK
6
CONTINUOUS
10
-4.77391
20
5.75093
11
-4.77519
21
5.74901
0
LINE
8
BLACK
6
CONTINUOUS
10
-4.77519
20
5.74901
11
-4.77711
21
5.74773
0
LINE
8
BLACK
6
CONTINUOUS
10
-4.77711
20
5.74773
11
-4.77937
21
5.74728
0
LINE
8
BLACK
6
CONTINUOUS
10
-4.77937
20
5.74728
11
-4.83449
21
5.74728
0
LINE
8
BLACK
6
CONTINUOUS
10
-4.83449
20
5.74728
11
-4.83675
21
5.74773
0
LINE
8
BLACK
6
CONTINUOUS
10
-4.83675
20
5.74773
11
-4.83866
21
5.74901
0
LINE
8
BLACK
6
CONTINUOUS
10
-4.83866
20
5.74901
11
-4.83994
21
5.75093
0
LINE
8
BLACK
6
CONTINUOUS
10
-4.83994
20
5.75093
11
-4.84018
21
5.75213
0
LINE
8
BLACK
6
CONTINUOUS
10
-4.84018
20
5.75213
11
-4.86656
21
5.75213
0
LINE
8
BLACK
6
CONTINUOUS
10
-4.86656
20
5.75213
11
-4.86726
21
5.75074
0
LINE
8
BLACK
6
CONTINUOUS
10
-4.86726
20
5.75074
11
-4.87074
21
5.74726
0
LINE
8
BLACK
6
CONTINUOUS
10
-4.87074
20
5.74726
11
-4.87513
21
5.74502
0
LINE
8
BLACK
6
CONTINUOUS
10
-4.87513
20
5.74502
11
-4.88
21
5.74425
0
LINE
8
BLACK
6
CONTINUOUS
10
-4.88
20
5.74425
11
-4.88487
21
5.74502
0
LINE
8
BLACK
6
CONTINUOUS
10
-4.88487
20
5.74502
11
-4.88926
21
5.74726
0
LINE
8
BLACK
6
CONTINUOUS
10
-4.88926
20
5.74726
11
-4.89274
21
5.75074
0
LINE
8
BLACK
6
CONTINUOUS
10
-4.89274
20
5.75074
11
-4.89498
21
5.75513
0
LINE
8
BLACK
6
CONTINUOUS
10
-4.89498
20
5.75513
11
-4.89575
21
5.76
0
LINE
8
BLACK
6
CONTINUOUS
10
-4.89575
20
5.76
11
-4.89498
21
5.76487
0
LINE
8
BLACK
6
CONTINUOUS
10
-4.89498
20
5.76487
11
-4.89274
21
5.76926
0
LINE
8
BLACK
6
CONTINUOUS
10
-4.89274
20
5.76926
11
-4.88926
21
5.77274
0
LINE
8
BLACK
6
CONTINUOUS
10
-4.88926
20
5.77274
11
-4.88487
21
5.77498
0
LINE
8
BLACK
6
CONTINUOUS
10
-4.88487
20
5.77498
11
-4.88
21
5.77575
0
LINE
8
BLACK
6
CONTINUOUS
10
-4.88
20
5.77575
11
-4.87513
21
5.77498
0
LINE
8
BLACK
6
CONTINUOUS
10
-4.87513
20
5.77498
11
-4.87074
21
5.77274
0
LINE
8
BLACK
6
CONTINUOUS
10
-4.87074
20
5.77274
11
-4.86726
21
5.76926
0
LINE
8
BLACK
6
CONTINUOUS
10
-4.86726
20
5.76926
11
-4.86656
21
5.76787
0
LINE
8
BLACK
6
CONTINUOUS
10
-4.86656
20
5.76787
11
-4.83953
21
5.76787
0
LINE
8
BLACK
6
CONTINUOUS
10
-4.83953
20
5.76787
11
-4.83866
21
5.76918
0
LINE
8
BLACK
6
CONTINUOUS
10
-4.83866
20
5.76918
11
-4.83675
21
5.77046
0
LINE
8
BLACK
6
CONTINUOUS
10
-4.83675
20
5.77046
11
-4.83449
21
5.77091
0
LINE
8
BLACK
6
CONTINUOUS
10
-4.83449
20
5.77091
11
-4.77937
21
5.77091
0
LINE
8
BLACK
6
CONTINUOUS
10
-4.77937
20
5.77091
11
-4.77711
21
5.77046
0
LINE
8
BLACK
6
CONTINUOUS
10
-4.77711
20
5.77046
11
-4.77519
21
5.76918
0
LINE
8
BLACK
6
CONTINUOUS
10
-4.77519
20
5.76918
11
-4.77391
21
5.76726
0
LINE
8
BLACK
6
CONTINUOUS
10
-4.77391
20
5.76726
11
-4.77386
21
5.76697
0
LINE
8
BLACK
6
CONTINUOUS
10
-4.77386
20
5.76697
11
-4.75391
21
5.76697
0
LINE
8
BLACK
6
CONTINUOUS
10
-4.75391
20
5.76697
11
-4.75274
21
5.76926
0
LINE
8
BLACK
6
CONTINUOUS
10
-4.75274
20
5.76926
11
-4.74926
21
5.77274
0
LINE
8
BLACK
6
CONTINUOUS
10
-4.74926
20
5.77274
11
-4.74487
21
5.77498
0
LINE
8
BLACK
6
CONTINUOUS
10
-4.74487
20
5.77498
11
-4.74
21
5.77575
0
LINE
8
BLACK
6
CONTINUOUS
10
-4.74
20
5.77575
11
-4.73513
21
5.77498
0
CIRCLE
8
BLACK
10
-4.825
20
5.56
40
0.00787402
0
CIRCLE
8
BLACK
10
-4.945
20
5.895
40
0.00787402
0
CIRCLE
8
BLACK
10
-4.225
20
5.94
40
0.00787402
0
CIRCLE
8
BLACK
10
-4.48
20
5.565
40
0.00787402
0
CIRCLE
8
BLACK
10
-4.23
20
5.765
40
0.00787402
0
CIRCLE
8
BLACK
10
-4.19
20
5.89
40
0.00787402
0
CIRCLE
8
BLACK
10
-4.32
20
5.89
40
0.00787402
0
CIRCLE
8
BLACK
10
-4.35
20
5.53
40
0.00787402
0
CIRCLE
8
BLACK
10
-4.835
20
5.865
40
0.00787402
0
CIRCLE
8
BLACK
10
-4.905
20
5.895
40
0.00787402
0
CIRCLE
8
BLACK
10
-4.865
20
5.895
40
0.00787402
0
CIRCLE
8
BLACK
10
-4.245
20
5.89
40
0.00787402
0
CIRCLE
8
BLACK
10
-4.945
20
5.605
40
0.00787402
0
CIRCLE
8
BLACK
10
-4.945
20
5.48
40
0.00787402
0
CIRCLE
8
BLACK
10
-4.385
20
5.44
40
0.00787402
0
CIRCLE
8
BLACK
10
-4.395
20
5.89
40
0.00787402
0
CIRCLE
8
BLACK
10
-4.395
20
5.94
40
0.00787402
0
CIRCLE
8
BLACK
10
-4.925
20
5.775
40
0.00787402
0
CIRCLE
8
BLACK
10
-4.28
20
5.94
40
0.00787402
0
CIRCLE
8
BLACK
10
-4.855
20
5.48
40
0.00787402
0
CIRCLE
8
BLACK
10
-4.335
20
5.94
40
0.00787402
0
CIRCLE
8
BLACK
10
-4.825
20
5.515
40
0.00787402
0
CIRCLE
8
BLACK
10
-4.95
20
5.74
40
0.00787402
0
CIRCLE
8
BLACK
10
-4.9
20
5.48
40
0.00787402
0
CIRCLE
8
BLACK
10
-4.14
20
5.89
40
0.00787402
0
CIRCLE
8
BLACK
10
-4.79
20
5.81
40
0.00787402
0
CIRCLE
8
BLACK
10
-4.335
20
5.765
40
0.00787402
0
CIRCLE
8
BLACK
10
-4.95
20
5.695
40
0.00787402
0
CIRCLE
8
BLACK
10
-4.135
20
5.765
40
0.00787402
0
CIRCLE
8
BLACK
10
-3.90748
20
5.78937
40
0.00787402
0
CIRCLE
8
BLACK
10
-4.145
20
5.48
40
0.00787402
0
CIRCLE
8
BLACK
10
-4.18
20
5.765
40
0.00787402
0
CIRCLE
8
BLACK
10
-4.95
20
5.65
40
0.00787402
0
CIRCLE
8
BLACK
10
-4.83
20
5.81
40
0.00787402
0
CIRCLE
8
BLACK
10
-4.735
20
5.52
40
0.00787402
0
CIRCLE
8
BLACK
10
-4.53
20
5.52
40
0.00787402
0
CIRCLE
8
BLACK
10
-4.88
20
5.76
40
0.00787402
0
CIRCLE
8
BLACK
10
-4.74
20
5.76
40
0.00787402
0
CIRCLE
8
BLACK
10
-4.885
20
5.66
40
0.00787402
0
CIRCLE
8
BLACK
10
-4.71
20
5.71
40
0.00787402
0
CIRCLE
8
BLACK
10
-4.38
20
5.71
40
0.00787402
0
CIRCLE
8
BLACK
10
-3.87992
20
5.55709
40
0.00787402
0
CIRCLE
8
BLACK
10
-4.74
20
5.66
40
0.00787402
0
CIRCLE
8
BLACK
10
-4.29
20
5.66
40
0.00787402
0
CIRCLE
8
BLACK
10
-4
20
5.51181
40
0.00787402
0
CIRCLE
8
BLACK
10
-4.28
20
5.535
40
0.00787402
  0
ENDSEC
  0
EOF
