  0
SECTION
  2
HEADER
  9
$ANGBASE
  50
0.0
  9
$ANGDIR
  70
1
  9
$MEASUREMENT
  70
0
  0
ENDSEC
  0
SECTION
  2
TABLES
  0
TABLE
  2
LTYPE
  70
4
  0
LTYPE
  5
40F
  2
CONTINUOUS
  70
0
  3
Solid line
  72
65
  73
0
  40
0.0
  0
LTYPE
  5
410
  2
DASHDOT
 70
0
  3
Dash Dot ____ _ ____ _
 72
65
 73
4
 40
2.0
 49
1.25
 49
-0.25
 49
0.25
 49
-0.25
  0
LTYPE
  5
411
  2
DASHED
 70
0
  3
Dashed __ __ __ __ __
 72
65
 73
2
 40
0.75
 49
0.5
 49
-0.25
  0
LTYPE
  5
43B
  2
DOTTED
 70
0
  3
Dotted .  .  .  .
 72
65
 73
2
 40
0.2
 49
0.0
 49
-0.2
  0
ENDTAB
  0
TABLE
  2
STYLE
  70
4
  0
STYLE
  2
KICAD
  70
0
  40
0
  41
1
  42
1
  50
0
  71
0
  3
isocp.shx
  0
STYLE
  2
KICADB
  70
0
  40
0
  41
1
  42
1
  50
0
  71
0
  3
isocp.shx
  0
STYLE
  2
KICADI
  70
0
  40
0
  41
1
  42
1
  50
15
  71
0
  3
isocp.shx
  0
STYLE
  2
KICADBI
  70
0
  40
0
  41
1
  42
1
  50
15
  71
0
  3
isocp.shx
  0
ENDTAB
  0
TABLE
  2
LAYER
  70
1
  0
LAYER
  2
BLACK
  70
0
  62
7
  6
CONTINUOUS
  0
ENDTAB
  0
ENDSEC
  0
SECTION
  2
ENTITIES
0
LINE
8
BLACK
6
CONTINUOUS
10
0.284335
20
0.107768
11
0.286464
21
0.106346
0
LINE
8
BLACK
6
CONTINUOUS
10
0.286464
20
0.106346
11
0.287886
21
0.104217
0
LINE
8
BLACK
6
CONTINUOUS
10
0.287886
20
0.104217
11
0.288386
21
0.101706
0
LINE
8
BLACK
6
CONTINUOUS
10
0.288386
20
0.101706
11
0.288386
21
0.0557743
0
LINE
8
BLACK
6
CONTINUOUS
10
0.288386
20
0.0557743
11
0.287886
21
0.0532632
0
LINE
8
BLACK
6
CONTINUOUS
10
0.287886
20
0.0532632
11
0.286464
21
0.0511345
0
LINE
8
BLACK
6
CONTINUOUS
10
0.286464
20
0.0511345
11
0.284335
21
0.0497121
0
LINE
8
BLACK
6
CONTINUOUS
10
0.284335
20
0.0497121
11
0.281824
21
0.0492126
0
LINE
8
BLACK
6
CONTINUOUS
10
0.281824
20
0.0492126
11
0.245735
21
0.0492126
0
LINE
8
BLACK
6
CONTINUOUS
10
0.245735
20
0.0492126
11
0.243224
21
0.0497121
0
LINE
8
BLACK
6
CONTINUOUS
10
0.243224
20
0.0497121
11
0.241095
21
0.0511345
0
LINE
8
BLACK
6
CONTINUOUS
10
0.241095
20
0.0511345
11
0.239673
21
0.0532632
0
LINE
8
BLACK
6
CONTINUOUS
10
0.239673
20
0.0532632
11
0.239173
21
0.0557743
0
LINE
8
BLACK
6
CONTINUOUS
10
0.239173
20
0.0557743
11
0.239173
21
0.101706
0
LINE
8
BLACK
6
CONTINUOUS
10
0.239173
20
0.101706
11
0.239673
21
0.104217
0
LINE
8
BLACK
6
CONTINUOUS
10
0.239673
20
0.104217
11
0.241095
21
0.106346
0
LINE
8
BLACK
6
CONTINUOUS
10
0.241095
20
0.106346
11
0.243224
21
0.107768
0
LINE
8
BLACK
6
CONTINUOUS
10
0.243224
20
0.107768
11
0.245735
21
0.108268
0
LINE
8
BLACK
6
CONTINUOUS
10
0.245735
20
0.108268
11
0.281824
21
0.108268
0
LINE
8
BLACK
6
CONTINUOUS
10
0.281824
20
0.108268
11
0.284335
21
0.107768
0
LINE
8
BLACK
6
CONTINUOUS
10
0.426067
20
0.107768
11
0.428196
21
0.106346
0
LINE
8
BLACK
6
CONTINUOUS
10
0.428196
20
0.106346
11
0.429619
21
0.104217
0
LINE
8
BLACK
6
CONTINUOUS
10
0.429619
20
0.104217
11
0.430118
21
0.101706
0
LINE
8
BLACK
6
CONTINUOUS
10
0.430118
20
0.101706
11
0.430118
21
0.0557743
0
LINE
8
BLACK
6
CONTINUOUS
10
0.430118
20
0.0557743
11
0.429619
21
0.0532632
0
LINE
8
BLACK
6
CONTINUOUS
10
0.429619
20
0.0532632
11
0.428196
21
0.0511345
0
LINE
8
BLACK
6
CONTINUOUS
10
0.428196
20
0.0511345
11
0.426067
21
0.0497121
0
LINE
8
BLACK
6
CONTINUOUS
10
0.426067
20
0.0497121
11
0.423556
21
0.0492126
0
LINE
8
BLACK
6
CONTINUOUS
10
0.423556
20
0.0492126
11
0.387467
21
0.0492126
0
LINE
8
BLACK
6
CONTINUOUS
10
0.387467
20
0.0492126
11
0.384956
21
0.0497121
0
LINE
8
BLACK
6
CONTINUOUS
10
0.384956
20
0.0497121
11
0.382827
21
0.0511345
0
LINE
8
BLACK
6
CONTINUOUS
10
0.382827
20
0.0511345
11
0.381405
21
0.0532632
0
LINE
8
BLACK
6
CONTINUOUS
10
0.381405
20
0.0532632
11
0.380906
21
0.0557743
0
LINE
8
BLACK
6
CONTINUOUS
10
0.380906
20
0.0557743
11
0.380906
21
0.101706
0
LINE
8
BLACK
6
CONTINUOUS
10
0.380906
20
0.101706
11
0.381405
21
0.104217
0
LINE
8
BLACK
6
CONTINUOUS
10
0.381405
20
0.104217
11
0.382827
21
0.106346
0
LINE
8
BLACK
6
CONTINUOUS
10
0.382827
20
0.106346
11
0.384956
21
0.107768
0
LINE
8
BLACK
6
CONTINUOUS
10
0.384956
20
0.107768
11
0.387467
21
0.108268
0
LINE
8
BLACK
6
CONTINUOUS
10
0.387467
20
0.108268
11
0.423556
21
0.108268
0
LINE
8
BLACK
6
CONTINUOUS
10
0.423556
20
0.108268
11
0.426067
21
0.107768
0
LINE
8
BLACK
6
CONTINUOUS
10
0.5049
20
0.123045
11
0.507694
21
0.121178
0
LINE
8
BLACK
6
CONTINUOUS
10
0.507694
20
0.121178
11
0.509561
21
0.118384
0
LINE
8
BLACK
6
CONTINUOUS
10
0.509561
20
0.118384
11
0.510217
21
0.115089
0
LINE
8
BLACK
6
CONTINUOUS
10
0.510217
20
0.115089
11
0.510217
21
0.0949114
0
LINE
8
BLACK
6
CONTINUOUS
10
0.510217
20
0.0949114
11
0.509561
21
0.0916157
0
LINE
8
BLACK
6
CONTINUOUS
10
0.509561
20
0.0916157
11
0.507694
21
0.0888217
0
LINE
8
BLACK
6
CONTINUOUS
10
0.507694
20
0.0888217
11
0.5049
21
0.0869548
0
LINE
8
BLACK
6
CONTINUOUS
10
0.5049
20
0.0869548
11
0.501604
21
0.0862992
0
LINE
8
BLACK
6
CONTINUOUS
10
0.501604
20
0.0862992
11
0.48438
21
0.0862992
0
LINE
8
BLACK
6
CONTINUOUS
10
0.48438
20
0.0862992
11
0.481084
21
0.0869548
0
LINE
8
BLACK
6
CONTINUOUS
10
0.481084
20
0.0869548
11
0.47829
21
0.0888217
0
LINE
8
BLACK
6
CONTINUOUS
10
0.47829
20
0.0888217
11
0.476423
21
0.0916157
0
LINE
8
BLACK
6
CONTINUOUS
10
0.476423
20
0.0916157
11
0.475768
21
0.0949114
0
LINE
8
BLACK
6
CONTINUOUS
10
0.475768
20
0.0949114
11
0.475768
21
0.115089
0
LINE
8
BLACK
6
CONTINUOUS
10
0.475768
20
0.115089
11
0.476423
21
0.118384
0
LINE
8
BLACK
6
CONTINUOUS
10
0.476423
20
0.118384
11
0.47829
21
0.121178
0
LINE
8
BLACK
6
CONTINUOUS
10
0.47829
20
0.121178
11
0.481084
21
0.123045
0
LINE
8
BLACK
6
CONTINUOUS
10
0.481084
20
0.123045
11
0.48438
21
0.123701
0
LINE
8
BLACK
6
CONTINUOUS
10
0.48438
20
0.123701
11
0.501604
21
0.123701
0
LINE
8
BLACK
6
CONTINUOUS
10
0.501604
20
0.123701
11
0.5049
21
0.123045
0
LINE
8
BLACK
6
CONTINUOUS
10
0.566908
20
0.123045
11
0.569702
21
0.121178
0
LINE
8
BLACK
6
CONTINUOUS
10
0.569702
20
0.121178
11
0.571569
21
0.118384
0
LINE
8
BLACK
6
CONTINUOUS
10
0.571569
20
0.118384
11
0.572224
21
0.115089
0
LINE
8
BLACK
6
CONTINUOUS
10
0.572224
20
0.115089
11
0.572224
21
0.0949114
0
LINE
8
BLACK
6
CONTINUOUS
10
0.572224
20
0.0949114
11
0.571569
21
0.0916157
0
LINE
8
BLACK
6
CONTINUOUS
10
0.571569
20
0.0916157
11
0.569702
21
0.0888217
0
LINE
8
BLACK
6
CONTINUOUS
10
0.569702
20
0.0888217
11
0.566908
21
0.0869548
0
LINE
8
BLACK
6
CONTINUOUS
10
0.566908
20
0.0869548
11
0.563612
21
0.0862992
0
LINE
8
BLACK
6
CONTINUOUS
10
0.563612
20
0.0862992
11
0.546388
21
0.0862992
0
LINE
8
BLACK
6
CONTINUOUS
10
0.546388
20
0.0862992
11
0.543092
21
0.0869548
0
LINE
8
BLACK
6
CONTINUOUS
10
0.543092
20
0.0869548
11
0.540298
21
0.0888217
0
LINE
8
BLACK
6
CONTINUOUS
10
0.540298
20
0.0888217
11
0.538431
21
0.0916157
0
LINE
8
BLACK
6
CONTINUOUS
10
0.538431
20
0.0916157
11
0.537776
21
0.0949114
0
LINE
8
BLACK
6
CONTINUOUS
10
0.537776
20
0.0949114
11
0.537776
21
0.115089
0
LINE
8
BLACK
6
CONTINUOUS
10
0.537776
20
0.115089
11
0.538431
21
0.118384
0
LINE
8
BLACK
6
CONTINUOUS
10
0.538431
20
0.118384
11
0.540298
21
0.121178
0
LINE
8
BLACK
6
CONTINUOUS
10
0.540298
20
0.121178
11
0.543092
21
0.123045
0
LINE
8
BLACK
6
CONTINUOUS
10
0.543092
20
0.123045
11
0.546388
21
0.123701
0
LINE
8
BLACK
6
CONTINUOUS
10
0.546388
20
0.123701
11
0.563612
21
0.123701
0
LINE
8
BLACK
6
CONTINUOUS
10
0.563612
20
0.123701
11
0.566908
21
0.123045
0
LINE
8
BLACK
6
CONTINUOUS
10
0.111924
20
0.167558
11
0.115117
21
0.165424
0
LINE
8
BLACK
6
CONTINUOUS
10
0.115117
20
0.165424
11
0.117251
21
0.162231
0
LINE
8
BLACK
6
CONTINUOUS
10
0.117251
20
0.162231
11
0.118
21
0.158465
0
LINE
8
BLACK
6
CONTINUOUS
10
0.118
20
0.158465
11
0.118
21
0.13878
0
LINE
8
BLACK
6
CONTINUOUS
10
0.118
20
0.13878
11
0.117251
21
0.135013
0
LINE
8
BLACK
6
CONTINUOUS
10
0.117251
20
0.135013
11
0.115117
21
0.13182
0
LINE
8
BLACK
6
CONTINUOUS
10
0.115117
20
0.13182
11
0.111924
21
0.129686
0
LINE
8
BLACK
6
CONTINUOUS
10
0.111924
20
0.129686
11
0.108157
21
0.128937
0
LINE
8
BLACK
6
CONTINUOUS
10
0.108157
20
0.128937
11
0.0215433
21
0.128937
0
LINE
8
BLACK
6
CONTINUOUS
10
0.0215433
20
0.128937
11
0.0177767
21
0.129686
0
LINE
8
BLACK
6
CONTINUOUS
10
0.0177767
20
0.129686
11
0.0145836
21
0.13182
0
LINE
8
BLACK
6
CONTINUOUS
10
0.0145836
20
0.13182
11
0.01245
21
0.135013
0
LINE
8
BLACK
6
CONTINUOUS
10
0.01245
20
0.135013
11
0.0117008
21
0.13878
0
LINE
8
BLACK
6
CONTINUOUS
10
0.0117008
20
0.13878
11
0.0117008
21
0.158465
0
LINE
8
BLACK
6
CONTINUOUS
10
0.0117008
20
0.158465
11
0.01245
21
0.162231
0
LINE
8
BLACK
6
CONTINUOUS
10
0.01245
20
0.162231
11
0.0145836
21
0.165424
0
LINE
8
BLACK
6
CONTINUOUS
10
0.0145836
20
0.165424
11
0.0177767
21
0.167558
0
LINE
8
BLACK
6
CONTINUOUS
10
0.0177767
20
0.167558
11
0.0215433
21
0.168307
0
LINE
8
BLACK
6
CONTINUOUS
10
0.0215433
20
0.168307
11
0.108157
21
0.168307
0
LINE
8
BLACK
6
CONTINUOUS
10
0.108157
20
0.168307
11
0.111924
21
0.167558
0
LINE
8
BLACK
6
CONTINUOUS
10
0.478384
20
0.196569
11
0.481178
21
0.194702
0
LINE
8
BLACK
6
CONTINUOUS
10
0.481178
20
0.194702
11
0.483045
21
0.191908
0
LINE
8
BLACK
6
CONTINUOUS
10
0.483045
20
0.191908
11
0.483701
21
0.188612
0
LINE
8
BLACK
6
CONTINUOUS
10
0.483701
20
0.188612
11
0.483701
21
0.171388
0
LINE
8
BLACK
6
CONTINUOUS
10
0.483701
20
0.171388
11
0.483045
21
0.168092
0
LINE
8
BLACK
6
CONTINUOUS
10
0.483045
20
0.168092
11
0.481178
21
0.165298
0
LINE
8
BLACK
6
CONTINUOUS
10
0.481178
20
0.165298
11
0.478384
21
0.163431
0
LINE
8
BLACK
6
CONTINUOUS
10
0.478384
20
0.163431
11
0.475089
21
0.162776
0
LINE
8
BLACK
6
CONTINUOUS
10
0.475089
20
0.162776
11
0.454911
21
0.162776
0
LINE
8
BLACK
6
CONTINUOUS
10
0.454911
20
0.162776
11
0.451616
21
0.163431
0
LINE
8
BLACK
6
CONTINUOUS
10
0.451616
20
0.163431
11
0.448822
21
0.165298
0
LINE
8
BLACK
6
CONTINUOUS
10
0.448822
20
0.165298
11
0.446955
21
0.168092
0
LINE
8
BLACK
6
CONTINUOUS
10
0.446955
20
0.168092
11
0.446299
21
0.171388
0
LINE
8
BLACK
6
CONTINUOUS
10
0.446299
20
0.171388
11
0.446299
21
0.188612
0
LINE
8
BLACK
6
CONTINUOUS
10
0.446299
20
0.188612
11
0.446955
21
0.191908
0
LINE
8
BLACK
6
CONTINUOUS
10
0.446955
20
0.191908
11
0.448822
21
0.194702
0
LINE
8
BLACK
6
CONTINUOUS
10
0.448822
20
0.194702
11
0.451616
21
0.196569
0
LINE
8
BLACK
6
CONTINUOUS
10
0.451616
20
0.196569
11
0.454911
21
0.197224
0
LINE
8
BLACK
6
CONTINUOUS
10
0.454911
20
0.197224
11
0.475089
21
0.197224
0
LINE
8
BLACK
6
CONTINUOUS
10
0.475089
20
0.197224
11
0.478384
21
0.196569
0
LINE
8
BLACK
6
CONTINUOUS
10
0.642087
20
0.17185
11
0.606654
21
0.17185
0
LINE
8
BLACK
6
CONTINUOUS
10
0.606654
20
0.17185
11
0.606654
21
0.203346
0
LINE
8
BLACK
6
CONTINUOUS
10
0.606654
20
0.203346
11
0.642087
21
0.203346
0
LINE
8
BLACK
6
CONTINUOUS
10
0.642087
20
0.203346
11
0.642087
21
0.17185
0
LINE
8
BLACK
6
CONTINUOUS
10
0.330394
20
0.175827
11
0.304803
21
0.175827
0
LINE
8
BLACK
6
CONTINUOUS
10
0.304803
20
0.175827
11
0.304803
21
0.217559
0
LINE
8
BLACK
6
CONTINUOUS
10
0.304803
20
0.217559
11
0.330394
21
0.217559
0
LINE
8
BLACK
6
CONTINUOUS
10
0.330394
20
0.217559
11
0.330394
21
0.175827
0
LINE
8
BLACK
6
CONTINUOUS
10
0.367795
20
0.175827
11
0.342205
21
0.175827
0
LINE
8
BLACK
6
CONTINUOUS
10
0.342205
20
0.175827
11
0.342205
21
0.217559
0
LINE
8
BLACK
6
CONTINUOUS
10
0.342205
20
0.217559
11
0.367795
21
0.217559
0
LINE
8
BLACK
6
CONTINUOUS
10
0.367795
20
0.217559
11
0.367795
21
0.175827
0
LINE
8
BLACK
6
CONTINUOUS
10
0.405197
20
0.175827
11
0.379606
21
0.175827
0
LINE
8
BLACK
6
CONTINUOUS
10
0.379606
20
0.175827
11
0.379606
21
0.217559
0
LINE
8
BLACK
6
CONTINUOUS
10
0.379606
20
0.217559
11
0.405197
21
0.217559
0
LINE
8
BLACK
6
CONTINUOUS
10
0.405197
20
0.217559
11
0.405197
21
0.175827
0
LINE
8
BLACK
6
CONTINUOUS
10
0.7049
20
0.228045
11
0.707694
21
0.226178
0
LINE
8
BLACK
6
CONTINUOUS
10
0.707694
20
0.226178
11
0.709561
21
0.223384
0
LINE
8
BLACK
6
CONTINUOUS
10
0.709561
20
0.223384
11
0.710217
21
0.220089
0
LINE
8
BLACK
6
CONTINUOUS
10
0.710217
20
0.220089
11
0.710217
21
0.199911
0
LINE
8
BLACK
6
CONTINUOUS
10
0.710217
20
0.199911
11
0.709561
21
0.196616
0
LINE
8
BLACK
6
CONTINUOUS
10
0.709561
20
0.196616
11
0.707694
21
0.193822
0
LINE
8
BLACK
6
CONTINUOUS
10
0.707694
20
0.193822
11
0.7049
21
0.191955
0
LINE
8
BLACK
6
CONTINUOUS
10
0.7049
20
0.191955
11
0.701604
21
0.191299
0
LINE
8
BLACK
6
CONTINUOUS
10
0.701604
20
0.191299
11
0.68438
21
0.191299
0
LINE
8
BLACK
6
CONTINUOUS
10
0.68438
20
0.191299
11
0.681084
21
0.191955
0
LINE
8
BLACK
6
CONTINUOUS
10
0.681084
20
0.191955
11
0.67829
21
0.193822
0
LINE
8
BLACK
6
CONTINUOUS
10
0.67829
20
0.193822
11
0.676423
21
0.196616
0
LINE
8
BLACK
6
CONTINUOUS
10
0.676423
20
0.196616
11
0.675768
21
0.199911
0
LINE
8
BLACK
6
CONTINUOUS
10
0.675768
20
0.199911
11
0.675768
21
0.220089
0
LINE
8
BLACK
6
CONTINUOUS
10
0.675768
20
0.220089
11
0.676423
21
0.223384
0
LINE
8
BLACK
6
CONTINUOUS
10
0.676423
20
0.223384
11
0.67829
21
0.226178
0
LINE
8
BLACK
6
CONTINUOUS
10
0.67829
20
0.226178
11
0.681084
21
0.228045
0
LINE
8
BLACK
6
CONTINUOUS
10
0.681084
20
0.228045
11
0.68438
21
0.228701
0
LINE
8
BLACK
6
CONTINUOUS
10
0.68438
20
0.228701
11
0.701604
21
0.228701
0
LINE
8
BLACK
6
CONTINUOUS
10
0.701604
20
0.228701
11
0.7049
21
0.228045
0
LINE
8
BLACK
6
CONTINUOUS
10
0.766908
20
0.228045
11
0.769702
21
0.226178
0
LINE
8
BLACK
6
CONTINUOUS
10
0.769702
20
0.226178
11
0.771569
21
0.223384
0
LINE
8
BLACK
6
CONTINUOUS
10
0.771569
20
0.223384
11
0.772224
21
0.220089
0
LINE
8
BLACK
6
CONTINUOUS
10
0.772224
20
0.220089
11
0.772224
21
0.199911
0
LINE
8
BLACK
6
CONTINUOUS
10
0.772224
20
0.199911
11
0.771569
21
0.196616
0
LINE
8
BLACK
6
CONTINUOUS
10
0.771569
20
0.196616
11
0.769702
21
0.193822
0
LINE
8
BLACK
6
CONTINUOUS
10
0.769702
20
0.193822
11
0.766908
21
0.191955
0
LINE
8
BLACK
6
CONTINUOUS
10
0.766908
20
0.191955
11
0.763612
21
0.191299
0
LINE
8
BLACK
6
CONTINUOUS
10
0.763612
20
0.191299
11
0.746388
21
0.191299
0
LINE
8
BLACK
6
CONTINUOUS
10
0.746388
20
0.191299
11
0.743092
21
0.191955
0
LINE
8
BLACK
6
CONTINUOUS
10
0.743092
20
0.191955
11
0.740298
21
0.193822
0
LINE
8
BLACK
6
CONTINUOUS
10
0.740298
20
0.193822
11
0.738431
21
0.196616
0
LINE
8
BLACK
6
CONTINUOUS
10
0.738431
20
0.196616
11
0.737776
21
0.199911
0
LINE
8
BLACK
6
CONTINUOUS
10
0.737776
20
0.199911
11
0.737776
21
0.220089
0
LINE
8
BLACK
6
CONTINUOUS
10
0.737776
20
0.220089
11
0.738431
21
0.223384
0
LINE
8
BLACK
6
CONTINUOUS
10
0.738431
20
0.223384
11
0.740298
21
0.226178
0
LINE
8
BLACK
6
CONTINUOUS
10
0.740298
20
0.226178
11
0.743092
21
0.228045
0
LINE
8
BLACK
6
CONTINUOUS
10
0.743092
20
0.228045
11
0.746388
21
0.228701
0
LINE
8
BLACK
6
CONTINUOUS
10
0.746388
20
0.228701
11
0.763612
21
0.228701
0
LINE
8
BLACK
6
CONTINUOUS
10
0.763612
20
0.228701
11
0.766908
21
0.228045
0
LINE
8
BLACK
6
CONTINUOUS
10
0.563346
20
0.209252
11
0.527913
21
0.209252
0
LINE
8
BLACK
6
CONTINUOUS
10
0.527913
20
0.209252
11
0.527913
21
0.240748
0
LINE
8
BLACK
6
CONTINUOUS
10
0.527913
20
0.240748
11
0.563346
21
0.240748
0
LINE
8
BLACK
6
CONTINUOUS
10
0.563346
20
0.240748
11
0.563346
21
0.209252
0
LINE
8
BLACK
6
CONTINUOUS
10
0.220654
20
0.232818
11
0.22257
21
0.231538
0
LINE
8
BLACK
6
CONTINUOUS
10
0.22257
20
0.231538
11
0.22385
21
0.229622
0
LINE
8
BLACK
6
CONTINUOUS
10
0.22385
20
0.229622
11
0.224299
21
0.227362
0
LINE
8
BLACK
6
CONTINUOUS
10
0.224299
20
0.227362
11
0.224299
21
0.215551
0
LINE
8
BLACK
6
CONTINUOUS
10
0.224299
20
0.215551
11
0.22385
21
0.213291
0
LINE
8
BLACK
6
CONTINUOUS
10
0.22385
20
0.213291
11
0.22257
21
0.211375
0
LINE
8
BLACK
6
CONTINUOUS
10
0.22257
20
0.211375
11
0.220654
21
0.210095
0
LINE
8
BLACK
6
CONTINUOUS
10
0.220654
20
0.210095
11
0.218394
21
0.209646
0
LINE
8
BLACK
6
CONTINUOUS
10
0.218394
20
0.209646
11
0.163276
21
0.209646
0
LINE
8
BLACK
6
CONTINUOUS
10
0.163276
20
0.209646
11
0.161016
21
0.210095
0
LINE
8
BLACK
6
CONTINUOUS
10
0.161016
20
0.210095
11
0.1591
21
0.211375
0
LINE
8
BLACK
6
CONTINUOUS
10
0.1591
20
0.211375
11
0.15782
21
0.213291
0
LINE
8
BLACK
6
CONTINUOUS
10
0.15782
20
0.213291
11
0.15737
21
0.215551
0
LINE
8
BLACK
6
CONTINUOUS
10
0.15737
20
0.215551
11
0.15737
21
0.227362
0
LINE
8
BLACK
6
CONTINUOUS
10
0.15737
20
0.227362
11
0.15782
21
0.229622
0
LINE
8
BLACK
6
CONTINUOUS
10
0.15782
20
0.229622
11
0.1591
21
0.231538
0
LINE
8
BLACK
6
CONTINUOUS
10
0.1591
20
0.231538
11
0.161016
21
0.232818
0
LINE
8
BLACK
6
CONTINUOUS
10
0.161016
20
0.232818
11
0.163276
21
0.233268
0
LINE
8
BLACK
6
CONTINUOUS
10
0.163276
20
0.233268
11
0.218394
21
0.233268
0
LINE
8
BLACK
6
CONTINUOUS
10
0.218394
20
0.233268
11
0.220654
21
0.232818
0
LINE
8
BLACK
6
CONTINUOUS
10
0.478384
20
0.258577
11
0.481178
21
0.25671
0
LINE
8
BLACK
6
CONTINUOUS
10
0.481178
20
0.25671
11
0.483045
21
0.253916
0
LINE
8
BLACK
6
CONTINUOUS
10
0.483045
20
0.253916
11
0.483701
21
0.25062
0
LINE
8
BLACK
6
CONTINUOUS
10
0.483701
20
0.25062
11
0.483701
21
0.233396
0
LINE
8
BLACK
6
CONTINUOUS
10
0.483701
20
0.233396
11
0.483045
21
0.2301
0
LINE
8
BLACK
6
CONTINUOUS
10
0.483045
20
0.2301
11
0.481178
21
0.227306
0
LINE
8
BLACK
6
CONTINUOUS
10
0.481178
20
0.227306
11
0.478384
21
0.225439
0
LINE
8
BLACK
6
CONTINUOUS
10
0.478384
20
0.225439
11
0.475089
21
0.224783
0
LINE
8
BLACK
6
CONTINUOUS
10
0.475089
20
0.224783
11
0.454911
21
0.224783
0
LINE
8
BLACK
6
CONTINUOUS
10
0.454911
20
0.224783
11
0.451616
21
0.225439
0
LINE
8
BLACK
6
CONTINUOUS
10
0.451616
20
0.225439
11
0.448822
21
0.227306
0
LINE
8
BLACK
6
CONTINUOUS
10
0.448822
20
0.227306
11
0.446955
21
0.2301
0
LINE
8
BLACK
6
CONTINUOUS
10
0.446955
20
0.2301
11
0.446299
21
0.233396
0
LINE
8
BLACK
6
CONTINUOUS
10
0.446299
20
0.233396
11
0.446299
21
0.25062
0
LINE
8
BLACK
6
CONTINUOUS
10
0.446299
20
0.25062
11
0.446955
21
0.253916
0
LINE
8
BLACK
6
CONTINUOUS
10
0.446955
20
0.253916
11
0.448822
21
0.25671
0
LINE
8
BLACK
6
CONTINUOUS
10
0.448822
20
0.25671
11
0.451616
21
0.258577
0
LINE
8
BLACK
6
CONTINUOUS
10
0.451616
20
0.258577
11
0.454911
21
0.259232
0
LINE
8
BLACK
6
CONTINUOUS
10
0.454911
20
0.259232
11
0.475089
21
0.259232
0
LINE
8
BLACK
6
CONTINUOUS
10
0.475089
20
0.259232
11
0.478384
21
0.258577
0
LINE
8
BLACK
6
CONTINUOUS
10
1.00689
20
0.238189
11
0.997047
21
0.238189
0
LINE
8
BLACK
6
CONTINUOUS
10
0.997047
20
0.238189
11
0.997047
21
0.259843
0
LINE
8
BLACK
6
CONTINUOUS
10
0.997047
20
0.259843
11
1.00689
21
0.259843
0
LINE
8
BLACK
6
CONTINUOUS
10
1.00689
20
0.259843
11
1.00689
21
0.238189
0
LINE
8
BLACK
6
CONTINUOUS
10
1.02657
20
0.238189
11
1.01673
21
0.238189
0
LINE
8
BLACK
6
CONTINUOUS
10
1.01673
20
0.238189
11
1.01673
21
0.259843
0
LINE
8
BLACK
6
CONTINUOUS
10
1.01673
20
0.259843
11
1.02657
21
0.259843
0
LINE
8
BLACK
6
CONTINUOUS
10
1.02657
20
0.259843
11
1.02657
21
0.238189
0
LINE
8
BLACK
6
CONTINUOUS
10
1.04626
20
0.238189
11
1.03642
21
0.238189
0
LINE
8
BLACK
6
CONTINUOUS
10
1.03642
20
0.238189
11
1.03642
21
0.259843
0
LINE
8
BLACK
6
CONTINUOUS
10
1.03642
20
0.259843
11
1.04626
21
0.259843
0
LINE
8
BLACK
6
CONTINUOUS
10
1.04626
20
0.259843
11
1.04626
21
0.238189
0
LINE
8
BLACK
6
CONTINUOUS
10
1.06594
20
0.238189
11
1.0561
21
0.238189
0
LINE
8
BLACK
6
CONTINUOUS
10
1.0561
20
0.238189
11
1.0561
21
0.259843
0
LINE
8
BLACK
6
CONTINUOUS
10
1.0561
20
0.259843
11
1.06594
21
0.259843
0
LINE
8
BLACK
6
CONTINUOUS
10
1.06594
20
0.259843
11
1.06594
21
0.238189
0
LINE
8
BLACK
6
CONTINUOUS
10
0.642087
20
0.246654
11
0.606654
21
0.246654
0
LINE
8
BLACK
6
CONTINUOUS
10
0.606654
20
0.246654
11
0.606654
21
0.27815
0
LINE
8
BLACK
6
CONTINUOUS
10
0.606654
20
0.27815
11
0.642087
21
0.27815
0
LINE
8
BLACK
6
CONTINUOUS
10
0.642087
20
0.27815
11
0.642087
21
0.246654
0
LINE
8
BLACK
6
CONTINUOUS
10
0.220654
20
0.282031
11
0.22257
21
0.280751
0
LINE
8
BLACK
6
CONTINUOUS
10
0.22257
20
0.280751
11
0.22385
21
0.278835
0
LINE
8
BLACK
6
CONTINUOUS
10
0.22385
20
0.278835
11
0.224299
21
0.276575
0
LINE
8
BLACK
6
CONTINUOUS
10
0.224299
20
0.276575
11
0.224299
21
0.264764
0
LINE
8
BLACK
6
CONTINUOUS
10
0.224299
20
0.264764
11
0.22385
21
0.262504
0
LINE
8
BLACK
6
CONTINUOUS
10
0.22385
20
0.262504
11
0.22257
21
0.260588
0
LINE
8
BLACK
6
CONTINUOUS
10
0.22257
20
0.260588
11
0.220654
21
0.259308
0
LINE
8
BLACK
6
CONTINUOUS
10
0.220654
20
0.259308
11
0.218394
21
0.258858
0
LINE
8
BLACK
6
CONTINUOUS
10
0.218394
20
0.258858
11
0.163276
21
0.258858
0
LINE
8
BLACK
6
CONTINUOUS
10
0.163276
20
0.258858
11
0.161016
21
0.259308
0
LINE
8
BLACK
6
CONTINUOUS
10
0.161016
20
0.259308
11
0.1591
21
0.260588
0
LINE
8
BLACK
6
CONTINUOUS
10
0.1591
20
0.260588
11
0.15782
21
0.262504
0
LINE
8
BLACK
6
CONTINUOUS
10
0.15782
20
0.262504
11
0.15737
21
0.264764
0
LINE
8
BLACK
6
CONTINUOUS
10
0.15737
20
0.264764
11
0.15737
21
0.276575
0
LINE
8
BLACK
6
CONTINUOUS
10
0.15737
20
0.276575
11
0.15782
21
0.278835
0
LINE
8
BLACK
6
CONTINUOUS
10
0.15782
20
0.278835
11
0.1591
21
0.280751
0
LINE
8
BLACK
6
CONTINUOUS
10
0.1591
20
0.280751
11
0.161016
21
0.282031
0
LINE
8
BLACK
6
CONTINUOUS
10
0.161016
20
0.282031
11
0.163276
21
0.28248
0
LINE
8
BLACK
6
CONTINUOUS
10
0.163276
20
0.28248
11
0.218394
21
0.28248
0
LINE
8
BLACK
6
CONTINUOUS
10
0.218394
20
0.28248
11
0.220654
21
0.282031
0
LINE
8
BLACK
6
CONTINUOUS
10
0.330394
20
0.262441
11
0.304803
21
0.262441
0
LINE
8
BLACK
6
CONTINUOUS
10
0.304803
20
0.262441
11
0.304803
21
0.304173
0
LINE
8
BLACK
6
CONTINUOUS
10
0.304803
20
0.304173
11
0.330394
21
0.304173
0
LINE
8
BLACK
6
CONTINUOUS
10
0.330394
20
0.304173
11
0.330394
21
0.262441
0
LINE
8
BLACK
6
CONTINUOUS
10
0.405197
20
0.262441
11
0.379606
21
0.262441
0
LINE
8
BLACK
6
CONTINUOUS
10
0.379606
20
0.262441
11
0.379606
21
0.304173
0
LINE
8
BLACK
6
CONTINUOUS
10
0.379606
20
0.304173
11
0.405197
21
0.304173
0
LINE
8
BLACK
6
CONTINUOUS
10
0.405197
20
0.304173
11
0.405197
21
0.262441
0
LINE
8
BLACK
6
CONTINUOUS
10
1.06299
20
0.288189
11
1.05236
21
0.277559
0
LINE
8
BLACK
6
CONTINUOUS
10
1.05236
20
0.277559
11
1
21
0.277559
0
LINE
8
BLACK
6
CONTINUOUS
10
1
20
0.277559
11
1
21
0.312992
0
LINE
8
BLACK
6
CONTINUOUS
10
1
20
0.312992
11
1.06299
21
0.312992
0
LINE
8
BLACK
6
CONTINUOUS
10
1.06299
20
0.312992
11
1.06299
21
0.288189
0
LINE
8
BLACK
6
CONTINUOUS
10
0.220654
20
0.331243
11
0.22257
21
0.329963
0
LINE
8
BLACK
6
CONTINUOUS
10
0.22257
20
0.329963
11
0.22385
21
0.328047
0
LINE
8
BLACK
6
CONTINUOUS
10
0.22385
20
0.328047
11
0.224299
21
0.325787
0
LINE
8
BLACK
6
CONTINUOUS
10
0.224299
20
0.325787
11
0.224299
21
0.313976
0
LINE
8
BLACK
6
CONTINUOUS
10
0.224299
20
0.313976
11
0.22385
21
0.311716
0
LINE
8
BLACK
6
CONTINUOUS
10
0.22385
20
0.311716
11
0.22257
21
0.309801
0
LINE
8
BLACK
6
CONTINUOUS
10
0.22257
20
0.309801
11
0.220654
21
0.30852
0
LINE
8
BLACK
6
CONTINUOUS
10
0.220654
20
0.30852
11
0.218394
21
0.308071
0
LINE
8
BLACK
6
CONTINUOUS
10
0.218394
20
0.308071
11
0.163276
21
0.308071
0
LINE
8
BLACK
6
CONTINUOUS
10
0.163276
20
0.308071
11
0.161016
21
0.30852
0
LINE
8
BLACK
6
CONTINUOUS
10
0.161016
20
0.30852
11
0.1591
21
0.309801
0
LINE
8
BLACK
6
CONTINUOUS
10
0.1591
20
0.309801
11
0.15782
21
0.311716
0
LINE
8
BLACK
6
CONTINUOUS
10
0.15782
20
0.311716
11
0.15737
21
0.313976
0
LINE
8
BLACK
6
CONTINUOUS
10
0.15737
20
0.313976
11
0.15737
21
0.325787
0
LINE
8
BLACK
6
CONTINUOUS
10
0.15737
20
0.325787
11
0.15782
21
0.328047
0
LINE
8
BLACK
6
CONTINUOUS
10
0.15782
20
0.328047
11
0.1591
21
0.329963
0
LINE
8
BLACK
6
CONTINUOUS
10
0.1591
20
0.329963
11
0.161016
21
0.331243
0
LINE
8
BLACK
6
CONTINUOUS
10
0.161016
20
0.331243
11
0.163276
21
0.331693
0
LINE
8
BLACK
6
CONTINUOUS
10
0.163276
20
0.331693
11
0.218394
21
0.331693
0
LINE
8
BLACK
6
CONTINUOUS
10
0.218394
20
0.331693
11
0.220654
21
0.331243
0
LINE
8
BLACK
6
CONTINUOUS
10
1.00689
20
0.330709
11
0.997047
21
0.330709
0
LINE
8
BLACK
6
CONTINUOUS
10
0.997047
20
0.330709
11
0.997047
21
0.352362
0
LINE
8
BLACK
6
CONTINUOUS
10
0.997047
20
0.352362
11
1.00689
21
0.352362
0
LINE
8
BLACK
6
CONTINUOUS
10
1.00689
20
0.352362
11
1.00689
21
0.330709
0
LINE
8
BLACK
6
CONTINUOUS
10
1.02657
20
0.330709
11
1.01673
21
0.330709
0
LINE
8
BLACK
6
CONTINUOUS
10
1.01673
20
0.330709
11
1.01673
21
0.352362
0
LINE
8
BLACK
6
CONTINUOUS
10
1.01673
20
0.352362
11
1.02657
21
0.352362
0
LINE
8
BLACK
6
CONTINUOUS
10
1.02657
20
0.352362
11
1.02657
21
0.330709
0
LINE
8
BLACK
6
CONTINUOUS
10
1.04626
20
0.330709
11
1.03642
21
0.330709
0
LINE
8
BLACK
6
CONTINUOUS
10
1.03642
20
0.330709
11
1.03642
21
0.352362
0
LINE
8
BLACK
6
CONTINUOUS
10
1.03642
20
0.352362
11
1.04626
21
0.352362
0
LINE
8
BLACK
6
CONTINUOUS
10
1.04626
20
0.352362
11
1.04626
21
0.330709
0
LINE
8
BLACK
6
CONTINUOUS
10
1.06594
20
0.330709
11
1.0561
21
0.330709
0
LINE
8
BLACK
6
CONTINUOUS
10
1.0561
20
0.330709
11
1.0561
21
0.352362
0
LINE
8
BLACK
6
CONTINUOUS
10
1.0561
20
0.352362
11
1.06594
21
0.352362
0
LINE
8
BLACK
6
CONTINUOUS
10
1.06594
20
0.352362
11
1.06594
21
0.330709
0
LINE
8
BLACK
6
CONTINUOUS
10
0.453524
20
0.334764
11
0.398524
21
0.334764
0
LINE
8
BLACK
6
CONTINUOUS
10
0.398524
20
0.334764
11
0.398524
21
0.369764
0
LINE
8
BLACK
6
CONTINUOUS
10
0.398524
20
0.369764
11
0.453524
21
0.369764
0
LINE
8
BLACK
6
CONTINUOUS
10
0.453524
20
0.369764
11
0.453524
21
0.334764
0
LINE
8
BLACK
6
CONTINUOUS
10
0.521101
20
0.369423
11
0.523895
21
0.367556
0
LINE
8
BLACK
6
CONTINUOUS
10
0.523895
20
0.367556
11
0.525762
21
0.364762
0
LINE
8
BLACK
6
CONTINUOUS
10
0.525762
20
0.364762
11
0.526417
21
0.361467
0
LINE
8
BLACK
6
CONTINUOUS
10
0.526417
20
0.361467
11
0.526417
21
0.344242
0
LINE
8
BLACK
6
CONTINUOUS
10
0.526417
20
0.344242
11
0.525762
21
0.340946
0
LINE
8
BLACK
6
CONTINUOUS
10
0.525762
20
0.340946
11
0.523895
21
0.338152
0
LINE
8
BLACK
6
CONTINUOUS
10
0.523895
20
0.338152
11
0.521101
21
0.336285
0
LINE
8
BLACK
6
CONTINUOUS
10
0.521101
20
0.336285
11
0.517805
21
0.33563
0
LINE
8
BLACK
6
CONTINUOUS
10
0.517805
20
0.33563
11
0.497628
21
0.33563
0
LINE
8
BLACK
6
CONTINUOUS
10
0.497628
20
0.33563
11
0.494332
21
0.336285
0
LINE
8
BLACK
6
CONTINUOUS
10
0.494332
20
0.336285
11
0.491538
21
0.338152
0
LINE
8
BLACK
6
CONTINUOUS
10
0.491538
20
0.338152
11
0.489671
21
0.340946
0
LINE
8
BLACK
6
CONTINUOUS
10
0.489671
20
0.340946
11
0.489016
21
0.344242
0
LINE
8
BLACK
6
CONTINUOUS
10
0.489016
20
0.344242
11
0.489016
21
0.361467
0
LINE
8
BLACK
6
CONTINUOUS
10
0.489016
20
0.361467
11
0.489671
21
0.364762
0
LINE
8
BLACK
6
CONTINUOUS
10
0.489671
20
0.364762
11
0.491538
21
0.367556
0
LINE
8
BLACK
6
CONTINUOUS
10
0.491538
20
0.367556
11
0.494332
21
0.369423
0
LINE
8
BLACK
6
CONTINUOUS
10
0.494332
20
0.369423
11
0.497628
21
0.370079
0
LINE
8
BLACK
6
CONTINUOUS
10
0.497628
20
0.370079
11
0.517805
21
0.370079
0
LINE
8
BLACK
6
CONTINUOUS
10
0.517805
20
0.370079
11
0.521101
21
0.369423
0
LINE
8
BLACK
6
CONTINUOUS
10
0.30555
20
0.37336
11
0.308344
21
0.371493
0
LINE
8
BLACK
6
CONTINUOUS
10
0.308344
20
0.371493
11
0.310211
21
0.368699
0
LINE
8
BLACK
6
CONTINUOUS
10
0.310211
20
0.368699
11
0.310866
21
0.365404
0
LINE
8
BLACK
6
CONTINUOUS
10
0.310866
20
0.365404
11
0.310866
21
0.348179
0
LINE
8
BLACK
6
CONTINUOUS
10
0.310866
20
0.348179
11
0.310211
21
0.344883
0
LINE
8
BLACK
6
CONTINUOUS
10
0.310211
20
0.344883
11
0.308344
21
0.342089
0
LINE
8
BLACK
6
CONTINUOUS
10
0.308344
20
0.342089
11
0.30555
21
0.340222
0
LINE
8
BLACK
6
CONTINUOUS
10
0.30555
20
0.340222
11
0.302254
21
0.339567
0
LINE
8
BLACK
6
CONTINUOUS
10
0.302254
20
0.339567
11
0.282077
21
0.339567
0
LINE
8
BLACK
6
CONTINUOUS
10
0.282077
20
0.339567
11
0.278781
21
0.340222
0
LINE
8
BLACK
6
CONTINUOUS
10
0.278781
20
0.340222
11
0.275987
21
0.342089
0
LINE
8
BLACK
6
CONTINUOUS
10
0.275987
20
0.342089
11
0.27412
21
0.344883
0
LINE
8
BLACK
6
CONTINUOUS
10
0.27412
20
0.344883
11
0.273465
21
0.348179
0
LINE
8
BLACK
6
CONTINUOUS
10
0.273465
20
0.348179
11
0.273465
21
0.365404
0
LINE
8
BLACK
6
CONTINUOUS
10
0.273465
20
0.365404
11
0.27412
21
0.368699
0
LINE
8
BLACK
6
CONTINUOUS
10
0.27412
20
0.368699
11
0.275987
21
0.371493
0
LINE
8
BLACK
6
CONTINUOUS
10
0.275987
20
0.371493
11
0.278781
21
0.37336
0
LINE
8
BLACK
6
CONTINUOUS
10
0.278781
20
0.37336
11
0.282077
21
0.374016
0
LINE
8
BLACK
6
CONTINUOUS
10
0.282077
20
0.374016
11
0.302254
21
0.374016
0
LINE
8
BLACK
6
CONTINUOUS
10
0.302254
20
0.374016
11
0.30555
21
0.37336
0
LINE
8
BLACK
6
CONTINUOUS
10
0.370906
20
0.345472
11
0.343346
21
0.345472
0
LINE
8
BLACK
6
CONTINUOUS
10
0.343346
20
0.345472
11
0.343346
21
0.369094
0
LINE
8
BLACK
6
CONTINUOUS
10
0.343346
20
0.369094
11
0.370906
21
0.369094
0
LINE
8
BLACK
6
CONTINUOUS
10
0.370906
20
0.369094
11
0.370906
21
0.345472
0
LINE
8
BLACK
6
CONTINUOUS
10
0.623384
20
0.389561
11
0.626178
21
0.387694
0
LINE
8
BLACK
6
CONTINUOUS
10
0.626178
20
0.387694
11
0.628045
21
0.3849
0
LINE
8
BLACK
6
CONTINUOUS
10
0.628045
20
0.3849
11
0.628701
21
0.381604
0
LINE
8
BLACK
6
CONTINUOUS
10
0.628701
20
0.381604
11
0.628701
21
0.36438
0
LINE
8
BLACK
6
CONTINUOUS
10
0.628701
20
0.36438
11
0.628045
21
0.361084
0
LINE
8
BLACK
6
CONTINUOUS
10
0.628045
20
0.361084
11
0.626178
21
0.35829
0
LINE
8
BLACK
6
CONTINUOUS
10
0.626178
20
0.35829
11
0.623384
21
0.356423
0
LINE
8
BLACK
6
CONTINUOUS
10
0.623384
20
0.356423
11
0.620089
21
0.355768
0
LINE
8
BLACK
6
CONTINUOUS
10
0.620089
20
0.355768
11
0.599911
21
0.355768
0
LINE
8
BLACK
6
CONTINUOUS
10
0.599911
20
0.355768
11
0.596616
21
0.356423
0
LINE
8
BLACK
6
CONTINUOUS
10
0.596616
20
0.356423
11
0.593822
21
0.35829
0
LINE
8
BLACK
6
CONTINUOUS
10
0.593822
20
0.35829
11
0.591955
21
0.361084
0
LINE
8
BLACK
6
CONTINUOUS
10
0.591955
20
0.361084
11
0.591299
21
0.36438
0
LINE
8
BLACK
6
CONTINUOUS
10
0.591299
20
0.36438
11
0.591299
21
0.381604
0
LINE
8
BLACK
6
CONTINUOUS
10
0.591299
20
0.381604
11
0.591955
21
0.3849
0
LINE
8
BLACK
6
CONTINUOUS
10
0.591955
20
0.3849
11
0.593822
21
0.387694
0
LINE
8
BLACK
6
CONTINUOUS
10
0.593822
20
0.387694
11
0.596616
21
0.389561
0
LINE
8
BLACK
6
CONTINUOUS
10
0.596616
20
0.389561
11
0.599911
21
0.390217
0
LINE
8
BLACK
6
CONTINUOUS
10
0.599911
20
0.390217
11
0.620089
21
0.390217
0
LINE
8
BLACK
6
CONTINUOUS
10
0.620089
20
0.390217
11
0.623384
21
0.389561
0
LINE
8
BLACK
6
CONTINUOUS
10
0.713384
20
0.390565
11
0.716178
21
0.388698
0
LINE
8
BLACK
6
CONTINUOUS
10
0.716178
20
0.388698
11
0.718045
21
0.385904
0
LINE
8
BLACK
6
CONTINUOUS
10
0.718045
20
0.385904
11
0.718701
21
0.382608
0
LINE
8
BLACK
6
CONTINUOUS
10
0.718701
20
0.382608
11
0.718701
21
0.365384
0
LINE
8
BLACK
6
CONTINUOUS
10
0.718701
20
0.365384
11
0.718045
21
0.362088
0
LINE
8
BLACK
6
CONTINUOUS
10
0.718045
20
0.362088
11
0.716178
21
0.359294
0
LINE
8
BLACK
6
CONTINUOUS
10
0.716178
20
0.359294
11
0.713384
21
0.357427
0
LINE
8
BLACK
6
CONTINUOUS
10
0.713384
20
0.357427
11
0.710089
21
0.356772
0
LINE
8
BLACK
6
CONTINUOUS
10
0.710089
20
0.356772
11
0.689911
21
0.356772
0
LINE
8
BLACK
6
CONTINUOUS
10
0.689911
20
0.356772
11
0.686616
21
0.357427
0
LINE
8
BLACK
6
CONTINUOUS
10
0.686616
20
0.357427
11
0.683822
21
0.359294
0
LINE
8
BLACK
6
CONTINUOUS
10
0.683822
20
0.359294
11
0.681955
21
0.362088
0
LINE
8
BLACK
6
CONTINUOUS
10
0.681955
20
0.362088
11
0.681299
21
0.365384
0
LINE
8
BLACK
6
CONTINUOUS
10
0.681299
20
0.365384
11
0.681299
21
0.382608
0
LINE
8
BLACK
6
CONTINUOUS
10
0.681299
20
0.382608
11
0.681955
21
0.385904
0
LINE
8
BLACK
6
CONTINUOUS
10
0.681955
20
0.385904
11
0.683822
21
0.388698
0
LINE
8
BLACK
6
CONTINUOUS
10
0.683822
20
0.388698
11
0.686616
21
0.390565
0
LINE
8
BLACK
6
CONTINUOUS
10
0.686616
20
0.390565
11
0.689911
21
0.39122
0
LINE
8
BLACK
6
CONTINUOUS
10
0.689911
20
0.39122
11
0.710089
21
0.39122
0
LINE
8
BLACK
6
CONTINUOUS
10
0.710089
20
0.39122
11
0.713384
21
0.390565
0
LINE
8
BLACK
6
CONTINUOUS
10
0.220654
20
0.380456
11
0.22257
21
0.379176
0
LINE
8
BLACK
6
CONTINUOUS
10
0.22257
20
0.379176
11
0.22385
21
0.37726
0
LINE
8
BLACK
6
CONTINUOUS
10
0.22385
20
0.37726
11
0.224299
21
0.375
0
LINE
8
BLACK
6
CONTINUOUS
10
0.224299
20
0.375
11
0.224299
21
0.363189
0
LINE
8
BLACK
6
CONTINUOUS
10
0.224299
20
0.363189
11
0.22385
21
0.360929
0
LINE
8
BLACK
6
CONTINUOUS
10
0.22385
20
0.360929
11
0.22257
21
0.359013
0
LINE
8
BLACK
6
CONTINUOUS
10
0.22257
20
0.359013
11
0.220654
21
0.357733
0
LINE
8
BLACK
6
CONTINUOUS
10
0.220654
20
0.357733
11
0.218394
21
0.357283
0
LINE
8
BLACK
6
CONTINUOUS
10
0.218394
20
0.357283
11
0.163276
21
0.357283
0
LINE
8
BLACK
6
CONTINUOUS
10
0.163276
20
0.357283
11
0.161016
21
0.357733
0
LINE
8
BLACK
6
CONTINUOUS
10
0.161016
20
0.357733
11
0.1591
21
0.359013
0
LINE
8
BLACK
6
CONTINUOUS
10
0.1591
20
0.359013
11
0.15782
21
0.360929
0
LINE
8
BLACK
6
CONTINUOUS
10
0.15782
20
0.360929
11
0.15737
21
0.363189
0
LINE
8
BLACK
6
CONTINUOUS
10
0.15737
20
0.363189
11
0.15737
21
0.375
0
LINE
8
BLACK
6
CONTINUOUS
10
0.15737
20
0.375
11
0.15782
21
0.37726
0
LINE
8
BLACK
6
CONTINUOUS
10
0.15782
20
0.37726
11
0.1591
21
0.379176
0
LINE
8
BLACK
6
CONTINUOUS
10
0.1591
20
0.379176
11
0.161016
21
0.380456
0
LINE
8
BLACK
6
CONTINUOUS
10
0.161016
20
0.380456
11
0.163276
21
0.380906
0
LINE
8
BLACK
6
CONTINUOUS
10
0.163276
20
0.380906
11
0.218394
21
0.380906
0
LINE
8
BLACK
6
CONTINUOUS
10
0.218394
20
0.380906
11
0.220654
21
0.380456
0
LINE
8
BLACK
6
CONTINUOUS
10
0.521101
20
0.431431
11
0.523895
21
0.429564
0
LINE
8
BLACK
6
CONTINUOUS
10
0.523895
20
0.429564
11
0.525762
21
0.42677
0
LINE
8
BLACK
6
CONTINUOUS
10
0.525762
20
0.42677
11
0.526417
21
0.423474
0
LINE
8
BLACK
6
CONTINUOUS
10
0.526417
20
0.423474
11
0.526417
21
0.40625
0
LINE
8
BLACK
6
CONTINUOUS
10
0.526417
20
0.40625
11
0.525762
21
0.402954
0
LINE
8
BLACK
6
CONTINUOUS
10
0.525762
20
0.402954
11
0.523895
21
0.40016
0
LINE
8
BLACK
6
CONTINUOUS
10
0.523895
20
0.40016
11
0.521101
21
0.398293
0
LINE
8
BLACK
6
CONTINUOUS
10
0.521101
20
0.398293
11
0.517805
21
0.397638
0
LINE
8
BLACK
6
CONTINUOUS
10
0.517805
20
0.397638
11
0.497628
21
0.397638
0
LINE
8
BLACK
6
CONTINUOUS
10
0.497628
20
0.397638
11
0.494332
21
0.398293
0
LINE
8
BLACK
6
CONTINUOUS
10
0.494332
20
0.398293
11
0.491538
21
0.40016
0
LINE
8
BLACK
6
CONTINUOUS
10
0.491538
20
0.40016
11
0.489671
21
0.402954
0
LINE
8
BLACK
6
CONTINUOUS
10
0.489671
20
0.402954
11
0.489016
21
0.40625
0
LINE
8
BLACK
6
CONTINUOUS
10
0.489016
20
0.40625
11
0.489016
21
0.423474
0
LINE
8
BLACK
6
CONTINUOUS
10
0.489016
20
0.423474
11
0.489671
21
0.42677
0
LINE
8
BLACK
6
CONTINUOUS
10
0.489671
20
0.42677
11
0.491538
21
0.429564
0
LINE
8
BLACK
6
CONTINUOUS
10
0.491538
20
0.429564
11
0.494332
21
0.431431
0
LINE
8
BLACK
6
CONTINUOUS
10
0.494332
20
0.431431
11
0.497628
21
0.432087
0
LINE
8
BLACK
6
CONTINUOUS
10
0.497628
20
0.432087
11
0.517805
21
0.432087
0
LINE
8
BLACK
6
CONTINUOUS
10
0.517805
20
0.432087
11
0.521101
21
0.431431
0
LINE
8
BLACK
6
CONTINUOUS
10
0.370906
20
0.400591
11
0.343346
21
0.400591
0
LINE
8
BLACK
6
CONTINUOUS
10
0.343346
20
0.400591
11
0.343346
21
0.424213
0
LINE
8
BLACK
6
CONTINUOUS
10
0.343346
20
0.424213
11
0.370906
21
0.424213
0
LINE
8
BLACK
6
CONTINUOUS
10
0.370906
20
0.424213
11
0.370906
21
0.400591
0
LINE
8
BLACK
6
CONTINUOUS
10
0.30555
20
0.435368
11
0.308344
21
0.433501
0
LINE
8
BLACK
6
CONTINUOUS
10
0.308344
20
0.433501
11
0.310211
21
0.430707
0
LINE
8
BLACK
6
CONTINUOUS
10
0.310211
20
0.430707
11
0.310866
21
0.427411
0
LINE
8
BLACK
6
CONTINUOUS
10
0.310866
20
0.427411
11
0.310866
21
0.410187
0
LINE
8
BLACK
6
CONTINUOUS
10
0.310866
20
0.410187
11
0.310211
21
0.406891
0
LINE
8
BLACK
6
CONTINUOUS
10
0.310211
20
0.406891
11
0.308344
21
0.404097
0
LINE
8
BLACK
6
CONTINUOUS
10
0.308344
20
0.404097
11
0.30555
21
0.40223
0
LINE
8
BLACK
6
CONTINUOUS
10
0.30555
20
0.40223
11
0.302254
21
0.401575
0
LINE
8
BLACK
6
CONTINUOUS
10
0.302254
20
0.401575
11
0.282077
21
0.401575
0
LINE
8
BLACK
6
CONTINUOUS
10
0.282077
20
0.401575
11
0.278781
21
0.40223
0
LINE
8
BLACK
6
CONTINUOUS
10
0.278781
20
0.40223
11
0.275987
21
0.404097
0
LINE
8
BLACK
6
CONTINUOUS
10
0.275987
20
0.404097
11
0.27412
21
0.406891
0
LINE
8
BLACK
6
CONTINUOUS
10
0.27412
20
0.406891
11
0.273465
21
0.410187
0
LINE
8
BLACK
6
CONTINUOUS
10
0.273465
20
0.410187
11
0.273465
21
0.427411
0
LINE
8
BLACK
6
CONTINUOUS
10
0.273465
20
0.427411
11
0.27412
21
0.430707
0
LINE
8
BLACK
6
CONTINUOUS
10
0.27412
20
0.430707
11
0.275987
21
0.433501
0
LINE
8
BLACK
6
CONTINUOUS
10
0.275987
20
0.433501
11
0.278781
21
0.435368
0
LINE
8
BLACK
6
CONTINUOUS
10
0.278781
20
0.435368
11
0.282077
21
0.436024
0
LINE
8
BLACK
6
CONTINUOUS
10
0.282077
20
0.436024
11
0.302254
21
0.436024
0
LINE
8
BLACK
6
CONTINUOUS
10
0.302254
20
0.436024
11
0.30555
21
0.435368
0
LINE
8
BLACK
6
CONTINUOUS
10
0.453524
20
0.409764
11
0.398524
21
0.409764
0
LINE
8
BLACK
6
CONTINUOUS
10
0.398524
20
0.409764
11
0.398524
21
0.444764
0
LINE
8
BLACK
6
CONTINUOUS
10
0.398524
20
0.444764
11
0.453524
21
0.444764
0
LINE
8
BLACK
6
CONTINUOUS
10
0.453524
20
0.444764
11
0.453524
21
0.409764
0
LINE
8
BLACK
6
CONTINUOUS
10
0.623384
20
0.451569
11
0.626178
21
0.449702
0
LINE
8
BLACK
6
CONTINUOUS
10
0.626178
20
0.449702
11
0.628045
21
0.446908
0
LINE
8
BLACK
6
CONTINUOUS
10
0.628045
20
0.446908
11
0.628701
21
0.443612
0
LINE
8
BLACK
6
CONTINUOUS
10
0.628701
20
0.443612
11
0.628701
21
0.426388
0
LINE
8
BLACK
6
CONTINUOUS
10
0.628701
20
0.426388
11
0.628045
21
0.423092
0
LINE
8
BLACK
6
CONTINUOUS
10
0.628045
20
0.423092
11
0.626178
21
0.420298
0
LINE
8
BLACK
6
CONTINUOUS
10
0.626178
20
0.420298
11
0.623384
21
0.418431
0
LINE
8
BLACK
6
CONTINUOUS
10
0.623384
20
0.418431
11
0.620089
21
0.417776
0
LINE
8
BLACK
6
CONTINUOUS
10
0.620089
20
0.417776
11
0.599911
21
0.417776
0
LINE
8
BLACK
6
CONTINUOUS
10
0.599911
20
0.417776
11
0.596616
21
0.418431
0
LINE
8
BLACK
6
CONTINUOUS
10
0.596616
20
0.418431
11
0.593822
21
0.420298
0
LINE
8
BLACK
6
CONTINUOUS
10
0.593822
20
0.420298
11
0.591955
21
0.423092
0
LINE
8
BLACK
6
CONTINUOUS
10
0.591955
20
0.423092
11
0.591299
21
0.426388
0
LINE
8
BLACK
6
CONTINUOUS
10
0.591299
20
0.426388
11
0.591299
21
0.443612
0
LINE
8
BLACK
6
CONTINUOUS
10
0.591299
20
0.443612
11
0.591955
21
0.446908
0
LINE
8
BLACK
6
CONTINUOUS
10
0.591955
20
0.446908
11
0.593822
21
0.449702
0
LINE
8
BLACK
6
CONTINUOUS
10
0.593822
20
0.449702
11
0.596616
21
0.451569
0
LINE
8
BLACK
6
CONTINUOUS
10
0.596616
20
0.451569
11
0.599911
21
0.452224
0
LINE
8
BLACK
6
CONTINUOUS
10
0.599911
20
0.452224
11
0.620089
21
0.452224
0
LINE
8
BLACK
6
CONTINUOUS
10
0.620089
20
0.452224
11
0.623384
21
0.451569
0
LINE
8
BLACK
6
CONTINUOUS
10
0.713384
20
0.452573
11
0.716178
21
0.450706
0
LINE
8
BLACK
6
CONTINUOUS
10
0.716178
20
0.450706
11
0.718045
21
0.447912
0
LINE
8
BLACK
6
CONTINUOUS
10
0.718045
20
0.447912
11
0.718701
21
0.444616
0
LINE
8
BLACK
6
CONTINUOUS
10
0.718701
20
0.444616
11
0.718701
21
0.427392
0
LINE
8
BLACK
6
CONTINUOUS
10
0.718701
20
0.427392
11
0.718045
21
0.424096
0
LINE
8
BLACK
6
CONTINUOUS
10
0.718045
20
0.424096
11
0.716178
21
0.421302
0
LINE
8
BLACK
6
CONTINUOUS
10
0.716178
20
0.421302
11
0.713384
21
0.419435
0
LINE
8
BLACK
6
CONTINUOUS
10
0.713384
20
0.419435
11
0.710089
21
0.41878
0
LINE
8
BLACK
6
CONTINUOUS
10
0.710089
20
0.41878
11
0.689911
21
0.41878
0
LINE
8
BLACK
6
CONTINUOUS
10
0.689911
20
0.41878
11
0.686616
21
0.419435
0
LINE
8
BLACK
6
CONTINUOUS
10
0.686616
20
0.419435
11
0.683822
21
0.421302
0
LINE
8
BLACK
6
CONTINUOUS
10
0.683822
20
0.421302
11
0.681955
21
0.424096
0
LINE
8
BLACK
6
CONTINUOUS
10
0.681955
20
0.424096
11
0.681299
21
0.427392
0
LINE
8
BLACK
6
CONTINUOUS
10
0.681299
20
0.427392
11
0.681299
21
0.444616
0
LINE
8
BLACK
6
CONTINUOUS
10
0.681299
20
0.444616
11
0.681955
21
0.447912
0
LINE
8
BLACK
6
CONTINUOUS
10
0.681955
20
0.447912
11
0.683822
21
0.450706
0
LINE
8
BLACK
6
CONTINUOUS
10
0.683822
20
0.450706
11
0.686616
21
0.452573
0
LINE
8
BLACK
6
CONTINUOUS
10
0.686616
20
0.452573
11
0.689911
21
0.453228
0
LINE
8
BLACK
6
CONTINUOUS
10
0.689911
20
0.453228
11
0.710089
21
0.453228
0
LINE
8
BLACK
6
CONTINUOUS
10
0.710089
20
0.453228
11
0.713384
21
0.452573
0
LINE
8
BLACK
6
CONTINUOUS
10
0.111924
20
0.460865
11
0.115117
21
0.458731
0
LINE
8
BLACK
6
CONTINUOUS
10
0.115117
20
0.458731
11
0.117251
21
0.455538
0
LINE
8
BLACK
6
CONTINUOUS
10
0.117251
20
0.455538
11
0.118
21
0.451772
0
LINE
8
BLACK
6
CONTINUOUS
10
0.118
20
0.451772
11
0.118
21
0.432087
0
LINE
8
BLACK
6
CONTINUOUS
10
0.118
20
0.432087
11
0.117251
21
0.42832
0
LINE
8
BLACK
6
CONTINUOUS
10
0.117251
20
0.42832
11
0.115117
21
0.425127
0
LINE
8
BLACK
6
CONTINUOUS
10
0.115117
20
0.425127
11
0.111924
21
0.422993
0
LINE
8
BLACK
6
CONTINUOUS
10
0.111924
20
0.422993
11
0.108157
21
0.422244
0
LINE
8
BLACK
6
CONTINUOUS
10
0.108157
20
0.422244
11
0.0215433
21
0.422244
0
LINE
8
BLACK
6
CONTINUOUS
10
0.0215433
20
0.422244
11
0.0177767
21
0.422993
0
LINE
8
BLACK
6
CONTINUOUS
10
0.0177767
20
0.422993
11
0.0145836
21
0.425127
0
LINE
8
BLACK
6
CONTINUOUS
10
0.0145836
20
0.425127
11
0.01245
21
0.42832
0
LINE
8
BLACK
6
CONTINUOUS
10
0.01245
20
0.42832
11
0.0117008
21
0.432087
0
LINE
8
BLACK
6
CONTINUOUS
10
0.0117008
20
0.432087
11
0.0117008
21
0.451772
0
LINE
8
BLACK
6
CONTINUOUS
10
0.0117008
20
0.451772
11
0.01245
21
0.455538
0
LINE
8
BLACK
6
CONTINUOUS
10
0.01245
20
0.455538
11
0.0145836
21
0.458731
0
LINE
8
BLACK
6
CONTINUOUS
10
0.0145836
20
0.458731
11
0.0177767
21
0.460865
0
LINE
8
BLACK
6
CONTINUOUS
10
0.0177767
20
0.460865
11
0.0215433
21
0.461614
0
LINE
8
BLACK
6
CONTINUOUS
10
0.0215433
20
0.461614
11
0.108157
21
0.461614
0
LINE
8
BLACK
6
CONTINUOUS
10
0.108157
20
0.461614
11
0.111924
21
0.460865
0
LINE
8
BLACK
6
CONTINUOUS
10
1.0124
20
0.474502
11
1.01519
21
0.472635
0
LINE
8
BLACK
6
CONTINUOUS
10
1.01519
20
0.472635
11
1.01706
21
0.469841
0
LINE
8
BLACK
6
CONTINUOUS
10
1.01706
20
0.469841
11
1.01772
21
0.466545
0
LINE
8
BLACK
6
CONTINUOUS
10
1.01772
20
0.466545
11
1.01772
21
0.446368
0
LINE
8
BLACK
6
CONTINUOUS
10
1.01772
20
0.446368
11
1.01706
21
0.443072
0
LINE
8
BLACK
6
CONTINUOUS
10
1.01706
20
0.443072
11
1.01519
21
0.440278
0
LINE
8
BLACK
6
CONTINUOUS
10
1.01519
20
0.440278
11
1.0124
21
0.438411
0
LINE
8
BLACK
6
CONTINUOUS
10
1.0124
20
0.438411
11
1.0091
21
0.437756
0
LINE
8
BLACK
6
CONTINUOUS
10
1.0091
20
0.437756
11
0.99188
21
0.437756
0
LINE
8
BLACK
6
CONTINUOUS
10
0.99188
20
0.437756
11
0.988584
21
0.438411
0
LINE
8
BLACK
6
CONTINUOUS
10
0.988584
20
0.438411
11
0.98579
21
0.440278
0
LINE
8
BLACK
6
CONTINUOUS
10
0.98579
20
0.440278
11
0.983923
21
0.443072
0
LINE
8
BLACK
6
CONTINUOUS
10
0.983923
20
0.443072
11
0.983268
21
0.446368
0
LINE
8
BLACK
6
CONTINUOUS
10
0.983268
20
0.446368
11
0.983268
21
0.466545
0
LINE
8
BLACK
6
CONTINUOUS
10
0.983268
20
0.466545
11
0.983923
21
0.469841
0
LINE
8
BLACK
6
CONTINUOUS
10
0.983923
20
0.469841
11
0.98579
21
0.472635
0
LINE
8
BLACK
6
CONTINUOUS
10
0.98579
20
0.472635
11
0.988584
21
0.474502
0
LINE
8
BLACK
6
CONTINUOUS
10
0.988584
20
0.474502
11
0.99188
21
0.475157
0
LINE
8
BLACK
6
CONTINUOUS
10
0.99188
20
0.475157
11
1.0091
21
0.475157
0
LINE
8
BLACK
6
CONTINUOUS
10
1.0091
20
0.475157
11
1.0124
21
0.474502
0
LINE
8
BLACK
6
CONTINUOUS
10
1.07441
20
0.474502
11
1.0772
21
0.472635
0
LINE
8
BLACK
6
CONTINUOUS
10
1.0772
20
0.472635
11
1.07907
21
0.469841
0
LINE
8
BLACK
6
CONTINUOUS
10
1.07907
20
0.469841
11
1.07972
21
0.466545
0
LINE
8
BLACK
6
CONTINUOUS
10
1.07972
20
0.466545
11
1.07972
21
0.446368
0
LINE
8
BLACK
6
CONTINUOUS
10
1.07972
20
0.446368
11
1.07907
21
0.443072
0
LINE
8
BLACK
6
CONTINUOUS
10
1.07907
20
0.443072
11
1.0772
21
0.440278
0
LINE
8
BLACK
6
CONTINUOUS
10
1.0772
20
0.440278
11
1.07441
21
0.438411
0
LINE
8
BLACK
6
CONTINUOUS
10
1.07441
20
0.438411
11
1.07111
21
0.437756
0
LINE
8
BLACK
6
CONTINUOUS
10
1.07111
20
0.437756
11
1.05389
21
0.437756
0
LINE
8
BLACK
6
CONTINUOUS
10
1.05389
20
0.437756
11
1.05059
21
0.438411
0
LINE
8
BLACK
6
CONTINUOUS
10
1.05059
20
0.438411
11
1.0478
21
0.440278
0
LINE
8
BLACK
6
CONTINUOUS
10
1.0478
20
0.440278
11
1.04593
21
0.443072
0
LINE
8
BLACK
6
CONTINUOUS
10
1.04593
20
0.443072
11
1.04528
21
0.446368
0
LINE
8
BLACK
6
CONTINUOUS
10
1.04528
20
0.446368
11
1.04528
21
0.466545
0
LINE
8
BLACK
6
CONTINUOUS
10
1.04528
20
0.466545
11
1.04593
21
0.469841
0
LINE
8
BLACK
6
CONTINUOUS
10
1.04593
20
0.469841
11
1.0478
21
0.472635
0
LINE
8
BLACK
6
CONTINUOUS
10
1.0478
20
0.472635
11
1.05059
21
0.474502
0
LINE
8
BLACK
6
CONTINUOUS
10
1.05059
20
0.474502
11
1.05389
21
0.475157
0
LINE
8
BLACK
6
CONTINUOUS
10
1.05389
20
0.475157
11
1.07111
21
0.475157
0
LINE
8
BLACK
6
CONTINUOUS
10
1.07111
20
0.475157
11
1.07441
21
0.474502
0
LINE
8
BLACK
6
CONTINUOUS
10
0.284335
20
0.540839
11
0.286464
21
0.539417
0
LINE
8
BLACK
6
CONTINUOUS
10
0.286464
20
0.539417
11
0.287886
21
0.537288
0
LINE
8
BLACK
6
CONTINUOUS
10
0.287886
20
0.537288
11
0.288386
21
0.534777
0
LINE
8
BLACK
6
CONTINUOUS
10
0.288386
20
0.534777
11
0.288386
21
0.488845
0
LINE
8
BLACK
6
CONTINUOUS
10
0.288386
20
0.488845
11
0.287886
21
0.486334
0
LINE
8
BLACK
6
CONTINUOUS
10
0.287886
20
0.486334
11
0.286464
21
0.484205
0
LINE
8
BLACK
6
CONTINUOUS
10
0.286464
20
0.484205
11
0.284335
21
0.482783
0
LINE
8
BLACK
6
CONTINUOUS
10
0.284335
20
0.482783
11
0.281824
21
0.482284
0
LINE
8
BLACK
6
CONTINUOUS
10
0.281824
20
0.482284
11
0.245735
21
0.482283
0
LINE
8
BLACK
6
CONTINUOUS
10
0.245735
20
0.482283
11
0.243224
21
0.482783
0
LINE
8
BLACK
6
CONTINUOUS
10
0.243224
20
0.482783
11
0.241095
21
0.484205
0
LINE
8
BLACK
6
CONTINUOUS
10
0.241095
20
0.484205
11
0.239673
21
0.486334
0
LINE
8
BLACK
6
CONTINUOUS
10
0.239673
20
0.486334
11
0.239173
21
0.488845
0
LINE
8
BLACK
6
CONTINUOUS
10
0.239173
20
0.488845
11
0.239173
21
0.534777
0
LINE
8
BLACK
6
CONTINUOUS
10
0.239173
20
0.534777
11
0.239673
21
0.537288
0
LINE
8
BLACK
6
CONTINUOUS
10
0.239673
20
0.537288
11
0.241095
21
0.539417
0
LINE
8
BLACK
6
CONTINUOUS
10
0.241095
20
0.539417
11
0.243224
21
0.540839
0
LINE
8
BLACK
6
CONTINUOUS
10
0.243224
20
0.540839
11
0.245735
21
0.541339
0
LINE
8
BLACK
6
CONTINUOUS
10
0.245735
20
0.541339
11
0.281824
21
0.541339
0
LINE
8
BLACK
6
CONTINUOUS
10
0.281824
20
0.541339
11
0.284335
21
0.540839
0
LINE
8
BLACK
6
CONTINUOUS
10
0.426067
20
0.540839
11
0.428196
21
0.539417
0
LINE
8
BLACK
6
CONTINUOUS
10
0.428196
20
0.539417
11
0.429619
21
0.537288
0
LINE
8
BLACK
6
CONTINUOUS
10
0.429619
20
0.537288
11
0.430118
21
0.534777
0
LINE
8
BLACK
6
CONTINUOUS
10
0.430118
20
0.534777
11
0.430118
21
0.488845
0
LINE
8
BLACK
6
CONTINUOUS
10
0.430118
20
0.488845
11
0.429619
21
0.486334
0
LINE
8
BLACK
6
CONTINUOUS
10
0.429619
20
0.486334
11
0.428196
21
0.484205
0
LINE
8
BLACK
6
CONTINUOUS
10
0.428196
20
0.484205
11
0.426067
21
0.482783
0
LINE
8
BLACK
6
CONTINUOUS
10
0.426067
20
0.482783
11
0.423556
21
0.482284
0
LINE
8
BLACK
6
CONTINUOUS
10
0.423556
20
0.482284
11
0.387467
21
0.482283
0
LINE
8
BLACK
6
CONTINUOUS
10
0.387467
20
0.482283
11
0.384956
21
0.482783
0
LINE
8
BLACK
6
CONTINUOUS
10
0.384956
20
0.482783
11
0.382827
21
0.484205
0
LINE
8
BLACK
6
CONTINUOUS
10
0.382827
20
0.484205
11
0.381405
21
0.486334
0
LINE
8
BLACK
6
CONTINUOUS
10
0.381405
20
0.486334
11
0.380906
21
0.488845
0
LINE
8
BLACK
6
CONTINUOUS
10
0.380906
20
0.488845
11
0.380906
21
0.534777
0
LINE
8
BLACK
6
CONTINUOUS
10
0.380906
20
0.534777
11
0.381405
21
0.537288
0
LINE
8
BLACK
6
CONTINUOUS
10
0.381405
20
0.537288
11
0.382827
21
0.539417
0
LINE
8
BLACK
6
CONTINUOUS
10
0.382827
20
0.539417
11
0.384956
21
0.540839
0
LINE
8
BLACK
6
CONTINUOUS
10
0.384956
20
0.540839
11
0.387467
21
0.541339
0
LINE
8
BLACK
6
CONTINUOUS
10
0.387467
20
0.541339
11
0.423556
21
0.541339
0
LINE
8
BLACK
6
CONTINUOUS
10
0.423556
20
0.541339
11
0.426067
21
0.540839
  0
ENDSEC
  0
EOF
