  0
SECTION
  2
HEADER
  9
$ANGBASE
  50
0.0
  9
$ANGDIR
  70
1
  9
$MEASUREMENT
  70
0
  0
ENDSEC
  0
SECTION
  2
TABLES
  0
TABLE
  2
LTYPE
  70
4
  0
LTYPE
  5
40F
  2
CONTINUOUS
  70
0
  3
Solid line
  72
65
  73
0
  40
0.0
  0
LTYPE
  5
410
  2
DASHDOT
 70
0
  3
Dash Dot ____ _ ____ _
 72
65
 73
4
 40
2.0
 49
1.25
 49
-0.25
 49
0.25
 49
-0.25
  0
LTYPE
  5
411
  2
DASHED
 70
0
  3
Dashed __ __ __ __ __
 72
65
 73
2
 40
0.75
 49
0.5
 49
-0.25
  0
LTYPE
  5
43B
  2
DOTTED
 70
0
  3
Dotted .  .  .  .
 72
65
 73
2
 40
0.2
 49
0.0
 49
-0.2
  0
ENDTAB
  0
TABLE
  2
STYLE
  70
4
  0
STYLE
  2
KICAD
  70
0
  40
0
  41
1
  42
1
  50
0
  71
0
  3
isocp.shx
  0
STYLE
  2
KICADB
  70
0
  40
0
  41
1
  42
1
  50
0
  71
0
  3
isocp.shx
  0
STYLE
  2
KICADI
  70
0
  40
0
  41
1
  42
1
  50
15
  71
0
  3
isocp.shx
  0
STYLE
  2
KICADBI
  70
0
  40
0
  41
1
  42
1
  50
15
  71
0
  3
isocp.shx
  0
ENDTAB
  0
TABLE
  2
LAYER
  70
1
  0
LAYER
  2
BLACK
  70
0
  62
7
  6
CONTINUOUS
  0
ENDTAB
  0
ENDSEC
  0
SECTION
  2
ENTITIES
0
LINE
8
BLACK
6
CONTINUOUS
10
0.394257
20
0.110004
11
0.417788
21
0.0864735
0
LINE
8
BLACK
6
CONTINUOUS
10
0.417788
20
0.0864735
11
0.417788
21
0.107916
0
LINE
8
BLACK
6
CONTINUOUS
10
0.417788
20
0.107916
11
0.417966
21
0.108926
0
LINE
8
BLACK
6
CONTINUOUS
10
0.417966
20
0.108926
11
0.419265
21
0.110473
0
LINE
8
BLACK
6
CONTINUOUS
10
0.419265
20
0.110473
11
0.421254
21
0.110824
0
LINE
8
BLACK
6
CONTINUOUS
10
0.421254
20
0.110824
11
0.423003
21
0.109814
0
LINE
8
BLACK
6
CONTINUOUS
10
0.423003
20
0.109814
11
0.423694
21
0.107916
0
LINE
8
BLACK
6
CONTINUOUS
10
0.423694
20
0.107916
11
0.423694
21
0.0579163
0
LINE
8
BLACK
6
CONTINUOUS
10
0.423694
20
0.0579163
11
0.423516
21
0.0569064
0
LINE
8
BLACK
6
CONTINUOUS
10
0.423516
20
0.0569064
11
0.422217
21
0.0553591
0
LINE
8
BLACK
6
CONTINUOUS
10
0.422217
20
0.0553591
11
0.420228
21
0.0550084
0
LINE
8
BLACK
6
CONTINUOUS
10
0.420228
20
0.0550084
11
0.418479
21
0.0560183
0
LINE
8
BLACK
6
CONTINUOUS
10
0.418479
20
0.0560183
11
0.417788
21
0.0579163
0
LINE
8
BLACK
6
CONTINUOUS
10
0.417788
20
0.0579163
11
0.417788
21
0.0781218
0
LINE
8
BLACK
6
CONTINUOUS
10
0.417788
20
0.0781218
11
0.413917
21
0.0819925
0
LINE
8
BLACK
6
CONTINUOUS
10
0.413917
20
0.0819925
11
0.394532
21
0.0561446
0
LINE
8
BLACK
6
CONTINUOUS
10
0.394532
20
0.0561446
11
0.393783
21
0.0554435
0
LINE
8
BLACK
6
CONTINUOUS
10
0.393783
20
0.0554435
11
0.391816
21
0.0549847
0
LINE
8
BLACK
6
CONTINUOUS
10
0.391816
20
0.0549847
11
0.390014
21
0.0558976
0
LINE
8
BLACK
6
CONTINUOUS
10
0.390014
20
0.0558976
11
0.389221
21
0.0577551
0
LINE
8
BLACK
6
CONTINUOUS
10
0.389221
20
0.0577551
11
0.389807
21
0.059688
0
LINE
8
BLACK
6
CONTINUOUS
10
0.389807
20
0.059688
11
0.409699
21
0.0862107
0
LINE
8
BLACK
6
CONTINUOUS
10
0.409699
20
0.0862107
11
0.390082
21
0.105828
0
LINE
8
BLACK
6
CONTINUOUS
10
0.390082
20
0.105828
11
0.389493
21
0.106668
0
LINE
8
BLACK
6
CONTINUOUS
10
0.389493
20
0.106668
11
0.389317
21
0.108681
0
LINE
8
BLACK
6
CONTINUOUS
10
0.389317
20
0.108681
11
0.390476
21
0.110335
0
LINE
8
BLACK
6
CONTINUOUS
10
0.390476
20
0.110335
11
0.392427
21
0.110858
0
LINE
8
BLACK
6
CONTINUOUS
10
0.392427
20
0.110858
11
0.394257
21
0.110004
0
LINE
8
BLACK
6
CONTINUOUS
10
0.433454
20
0.128869
11
0.433584
21
0.128892
0
LINE
8
BLACK
6
CONTINUOUS
10
0.433584
20
0.128892
11
0.433697
21
0.128827
0
LINE
8
BLACK
6
CONTINUOUS
10
0.433697
20
0.128827
11
0.434081
21
0.128759
0
LINE
8
BLACK
6
CONTINUOUS
10
0.434081
20
0.128759
11
0.434668
21
0.128266
0
LINE
8
BLACK
6
CONTINUOUS
10
0.434668
20
0.128266
11
0.435333
21
0.127882
0
LINE
8
BLACK
6
CONTINUOUS
10
0.435333
20
0.127882
11
0.435424
21
0.127632
0
LINE
8
BLACK
6
CONTINUOUS
10
0.435424
20
0.127632
11
0.435628
21
0.127461
0
LINE
8
BLACK
6
CONTINUOUS
10
0.435628
20
0.127461
11
0.435761
21
0.126705
0
LINE
8
BLACK
6
CONTINUOUS
10
0.435761
20
0.126705
11
0.436024
21
0.125984
0
LINE
8
BLACK
6
CONTINUOUS
10
0.436024
20
0.125984
11
0.436024
21
0.0314961
0
LINE
8
BLACK
6
CONTINUOUS
10
0.436024
20
0.0314961
11
0.435956
21
0.0311126
0
LINE
8
BLACK
6
CONTINUOUS
10
0.435956
20
0.0311126
11
0.435979
21
0.0309833
0
LINE
8
BLACK
6
CONTINUOUS
10
0.435979
20
0.0309833
11
0.435913
21
0.0308697
0
LINE
8
BLACK
6
CONTINUOUS
10
0.435913
20
0.0308697
11
0.435846
21
0.0304861
0
LINE
8
BLACK
6
CONTINUOUS
10
0.435846
20
0.0304861
11
0.435352
21
0.0298985
0
LINE
8
BLACK
6
CONTINUOUS
10
0.435352
20
0.0298985
11
0.434969
21
0.0292341
0
LINE
8
BLACK
6
CONTINUOUS
10
0.434969
20
0.0292341
11
0.434719
21
0.029143
0
LINE
8
BLACK
6
CONTINUOUS
10
0.434719
20
0.029143
11
0.434547
21
0.0289389
0
LINE
8
BLACK
6
CONTINUOUS
10
0.434547
20
0.0289389
11
0.433792
21
0.0288057
0
LINE
8
BLACK
6
CONTINUOUS
10
0.433792
20
0.0288057
11
0.433071
21
0.0285433
0
LINE
8
BLACK
6
CONTINUOUS
10
0.433071
20
0.0285433
11
0.23622
21
0.0285433
0
LINE
8
BLACK
6
CONTINUOUS
10
0.23622
20
0.0285433
11
0.235837
21
0.0286109
0
LINE
8
BLACK
6
CONTINUOUS
10
0.235837
20
0.0286109
11
0.235708
21
0.0285881
0
LINE
8
BLACK
6
CONTINUOUS
10
0.235708
20
0.0285881
11
0.235594
21
0.0286538
0
LINE
8
BLACK
6
CONTINUOUS
10
0.235594
20
0.0286538
11
0.235211
21
0.0287214
0
LINE
8
BLACK
6
CONTINUOUS
10
0.235211
20
0.0287214
11
0.234623
21
0.0292145
0
LINE
8
BLACK
6
CONTINUOUS
10
0.234623
20
0.0292145
11
0.233959
21
0.0295981
0
LINE
8
BLACK
6
CONTINUOUS
10
0.233959
20
0.0295981
11
0.233867
21
0.0298484
0
LINE
8
BLACK
6
CONTINUOUS
10
0.233867
20
0.0298484
11
0.233663
21
0.0300197
0
LINE
8
BLACK
6
CONTINUOUS
10
0.233663
20
0.0300197
11
0.23353
21
0.0307753
0
LINE
8
BLACK
6
CONTINUOUS
10
0.23353
20
0.0307753
11
0.233268
21
0.0314961
0
LINE
8
BLACK
6
CONTINUOUS
10
0.233268
20
0.0314961
11
0.233268
21
0.125984
0
LINE
8
BLACK
6
CONTINUOUS
10
0.233268
20
0.125984
11
0.233335
21
0.126368
0
LINE
8
BLACK
6
CONTINUOUS
10
0.233335
20
0.126368
11
0.233313
21
0.126497
0
LINE
8
BLACK
6
CONTINUOUS
10
0.233313
20
0.126497
11
0.233378
21
0.126611
0
LINE
8
BLACK
6
CONTINUOUS
10
0.233378
20
0.126611
11
0.233446
21
0.126994
0
LINE
8
BLACK
6
CONTINUOUS
10
0.233446
20
0.126994
11
0.233939
21
0.127582
0
LINE
8
BLACK
6
CONTINUOUS
10
0.233939
20
0.127582
11
0.234322
21
0.128246
0
LINE
8
BLACK
6
CONTINUOUS
10
0.234322
20
0.128246
11
0.234573
21
0.128337
0
LINE
8
BLACK
6
CONTINUOUS
10
0.234573
20
0.128337
11
0.234744
21
0.128541
0
LINE
8
BLACK
6
CONTINUOUS
10
0.234744
20
0.128541
11
0.2355
21
0.128675
0
LINE
8
BLACK
6
CONTINUOUS
10
0.2355
20
0.128675
11
0.23622
21
0.128937
0
LINE
8
BLACK
6
CONTINUOUS
10
0.23622
20
0.128937
11
0.433071
21
0.128937
0
LINE
8
BLACK
6
CONTINUOUS
10
0.433071
20
0.128937
11
0.433454
21
0.128869
0
LINE
8
BLACK
6
CONTINUOUS
10
0.239173
20
0.123031
11
0.239173
21
0.0344488
0
LINE
8
BLACK
6
CONTINUOUS
10
0.239173
20
0.0344488
11
0.430118
21
0.0344488
0
LINE
8
BLACK
6
CONTINUOUS
10
0.430118
20
0.0344488
11
0.430118
21
0.123031
0
LINE
8
BLACK
6
CONTINUOUS
10
0.430118
20
0.123031
11
0.239173
21
0.123031
0
LINE
8
BLACK
6
CONTINUOUS
10
0.5174
20
0.115392
11
0.517992
21
0.114709
0
LINE
8
BLACK
6
CONTINUOUS
10
0.517992
20
0.114709
11
0.521742
21
0.10346
0
LINE
8
BLACK
6
CONTINUOUS
10
0.521742
20
0.10346
11
0.521728
21
0.103266
0
LINE
8
BLACK
6
CONTINUOUS
10
0.521728
20
0.103266
11
0.521803
21
0.103087
0
LINE
8
BLACK
6
CONTINUOUS
10
0.521803
20
0.103087
11
0.521697
21
0.102833
0
LINE
8
BLACK
6
CONTINUOUS
10
0.521697
20
0.102833
11
0.521678
21
0.102559
0
LINE
8
BLACK
6
CONTINUOUS
10
0.521678
20
0.102559
11
0.521531
21
0.102431
0
LINE
8
BLACK
6
CONTINUOUS
10
0.521531
20
0.102431
11
0.521457
21
0.102252
0
LINE
8
BLACK
6
CONTINUOUS
10
0.521457
20
0.102252
11
0.521203
21
0.102146
0
LINE
8
BLACK
6
CONTINUOUS
10
0.521203
20
0.102146
11
0.520995
21
0.101966
0
LINE
8
BLACK
6
CONTINUOUS
10
0.520995
20
0.101966
11
0.520801
21
0.10198
0
LINE
8
BLACK
6
CONTINUOUS
10
0.520801
20
0.10198
11
0.520621
21
0.101906
0
LINE
8
BLACK
6
CONTINUOUS
10
0.520621
20
0.101906
11
0.514304
21
0.101906
0
LINE
8
BLACK
6
CONTINUOUS
10
0.514304
20
0.101906
11
0.514304
21
0.0978375
0
LINE
8
BLACK
6
CONTINUOUS
10
0.514304
20
0.0978375
11
0.513958
21
0.0970024
0
LINE
8
BLACK
6
CONTINUOUS
10
0.513958
20
0.0970024
11
0.513122
21
0.0966564
0
LINE
8
BLACK
6
CONTINUOUS
10
0.513122
20
0.0966564
11
0.512287
21
0.0970024
0
LINE
8
BLACK
6
CONTINUOUS
10
0.512287
20
0.0970024
11
0.511941
21
0.0978375
0
LINE
8
BLACK
6
CONTINUOUS
10
0.511941
20
0.0978375
11
0.511941
21
0.101906
0
LINE
8
BLACK
6
CONTINUOUS
10
0.511941
20
0.101906
11
0.510873
21
0.101906
0
LINE
8
BLACK
6
CONTINUOUS
10
0.510873
20
0.101906
11
0.510038
21
0.102252
0
LINE
8
BLACK
6
CONTINUOUS
10
0.510038
20
0.102252
11
0.509692
21
0.103087
0
LINE
8
BLACK
6
CONTINUOUS
10
0.509692
20
0.103087
11
0.510038
21
0.103922
0
LINE
8
BLACK
6
CONTINUOUS
10
0.510038
20
0.103922
11
0.510873
21
0.104268
0
LINE
8
BLACK
6
CONTINUOUS
10
0.510873
20
0.104268
11
0.511941
21
0.104268
0
LINE
8
BLACK
6
CONTINUOUS
10
0.511941
20
0.104268
11
0.511941
21
0.108336
0
LINE
8
BLACK
6
CONTINUOUS
10
0.511941
20
0.108336
11
0.512287
21
0.109171
0
LINE
8
BLACK
6
CONTINUOUS
10
0.512287
20
0.109171
11
0.513122
21
0.109517
0
LINE
8
BLACK
6
CONTINUOUS
10
0.513122
20
0.109517
11
0.513958
21
0.109171
0
LINE
8
BLACK
6
CONTINUOUS
10
0.513958
20
0.109171
11
0.514304
21
0.108336
0
LINE
8
BLACK
6
CONTINUOUS
10
0.514304
20
0.108336
11
0.514304
21
0.104268
0
LINE
8
BLACK
6
CONTINUOUS
10
0.514304
20
0.104268
11
0.518983
21
0.104268
0
LINE
8
BLACK
6
CONTINUOUS
10
0.518983
20
0.104268
11
0.515751
21
0.113962
0
LINE
8
BLACK
6
CONTINUOUS
10
0.515751
20
0.113962
11
0.515816
21
0.114864
0
LINE
8
BLACK
6
CONTINUOUS
10
0.515816
20
0.114864
11
0.516498
21
0.115456
0
LINE
8
BLACK
6
CONTINUOUS
10
0.516498
20
0.115456
11
0.5174
21
0.115392
0
LINE
8
BLACK
6
CONTINUOUS
10
0.536455
20
0.114421
11
0.536801
21
0.113586
0
LINE
8
BLACK
6
CONTINUOUS
10
0.536801
20
0.113586
11
0.536801
21
0.0978375
0
LINE
8
BLACK
6
CONTINUOUS
10
0.536801
20
0.0978375
11
0.536455
21
0.0970024
0
LINE
8
BLACK
6
CONTINUOUS
10
0.536455
20
0.0970024
11
0.53562
21
0.0966564
0
LINE
8
BLACK
6
CONTINUOUS
10
0.53562
20
0.0966564
11
0.534784
21
0.0970024
0
LINE
8
BLACK
6
CONTINUOUS
10
0.534784
20
0.0970024
11
0.534438
21
0.0978375
0
LINE
8
BLACK
6
CONTINUOUS
10
0.534438
20
0.0978375
11
0.534438
21
0.104155
0
LINE
8
BLACK
6
CONTINUOUS
10
0.534438
20
0.104155
11
0.532485
21
0.104155
0
LINE
8
BLACK
6
CONTINUOUS
10
0.532485
20
0.104155
11
0.527588
21
0.0971602
0
LINE
8
BLACK
6
CONTINUOUS
10
0.527588
20
0.0971602
11
0.526826
21
0.0966744
0
LINE
8
BLACK
6
CONTINUOUS
10
0.526826
20
0.0966744
11
0.525943
21
0.0968699
0
LINE
8
BLACK
6
CONTINUOUS
10
0.525943
20
0.0968699
11
0.525458
21
0.0976322
0
LINE
8
BLACK
6
CONTINUOUS
10
0.525458
20
0.0976322
11
0.525653
21
0.0985148
0
LINE
8
BLACK
6
CONTINUOUS
10
0.525653
20
0.0985148
11
0.529606
21
0.104161
0
LINE
8
BLACK
6
CONTINUOUS
10
0.529606
20
0.104161
11
0.529366
21
0.104261
0
LINE
8
BLACK
6
CONTINUOUS
10
0.529366
20
0.104261
11
0.529092
21
0.10428
0
LINE
8
BLACK
6
CONTINUOUS
10
0.529092
20
0.10428
11
0.527592
21
0.10503
0
LINE
8
BLACK
6
CONTINUOUS
10
0.527592
20
0.10503
11
0.527465
21
0.105177
0
LINE
8
BLACK
6
CONTINUOUS
10
0.527465
20
0.105177
11
0.527285
21
0.105251
0
LINE
8
BLACK
6
CONTINUOUS
10
0.527285
20
0.105251
11
0.526535
21
0.106001
0
LINE
8
BLACK
6
CONTINUOUS
10
0.526535
20
0.106001
11
0.526461
21
0.106181
0
LINE
8
BLACK
6
CONTINUOUS
10
0.526461
20
0.106181
11
0.526314
21
0.106308
0
LINE
8
BLACK
6
CONTINUOUS
10
0.526314
20
0.106308
11
0.525564
21
0.107808
0
LINE
8
BLACK
6
CONTINUOUS
10
0.525564
20
0.107808
11
0.525545
21
0.108082
0
LINE
8
BLACK
6
CONTINUOUS
10
0.525545
20
0.108082
11
0.52544
21
0.108336
0
LINE
8
BLACK
6
CONTINUOUS
10
0.52544
20
0.108336
11
0.52544
21
0.110586
0
LINE
8
BLACK
6
CONTINUOUS
10
0.52544
20
0.110586
11
0.525545
21
0.11084
0
LINE
8
BLACK
6
CONTINUOUS
10
0.525545
20
0.11084
11
0.525564
21
0.111114
0
LINE
8
BLACK
6
CONTINUOUS
10
0.525564
20
0.111114
11
0.526314
21
0.112614
0
LINE
8
BLACK
6
CONTINUOUS
10
0.526314
20
0.112614
11
0.526461
21
0.112741
0
LINE
8
BLACK
6
CONTINUOUS
10
0.526461
20
0.112741
11
0.526535
21
0.112921
0
LINE
8
BLACK
6
CONTINUOUS
10
0.526535
20
0.112921
11
0.527285
21
0.113671
0
LINE
8
BLACK
6
CONTINUOUS
10
0.527285
20
0.113671
11
0.527465
21
0.113745
0
LINE
8
BLACK
6
CONTINUOUS
10
0.527465
20
0.113745
11
0.527592
21
0.113892
0
LINE
8
BLACK
6
CONTINUOUS
10
0.527592
20
0.113892
11
0.529092
21
0.114642
0
LINE
8
BLACK
6
CONTINUOUS
10
0.529092
20
0.114642
11
0.529366
21
0.114661
0
LINE
8
BLACK
6
CONTINUOUS
10
0.529366
20
0.114661
11
0.52962
21
0.114767
0
LINE
8
BLACK
6
CONTINUOUS
10
0.52962
20
0.114767
11
0.53562
21
0.114767
0
LINE
8
BLACK
6
CONTINUOUS
10
0.53562
20
0.114767
11
0.536455
21
0.114421
0
LINE
8
BLACK
6
CONTINUOUS
10
0.52882
20
0.111865
11
0.528341
21
0.111386
0
LINE
8
BLACK
6
CONTINUOUS
10
0.528341
20
0.111386
11
0.527802
21
0.110307
0
LINE
8
BLACK
6
CONTINUOUS
10
0.527802
20
0.110307
11
0.527802
21
0.108615
0
LINE
8
BLACK
6
CONTINUOUS
10
0.527802
20
0.108615
11
0.528341
21
0.107536
0
LINE
8
BLACK
6
CONTINUOUS
10
0.528341
20
0.107536
11
0.52882
21
0.107057
0
LINE
8
BLACK
6
CONTINUOUS
10
0.52882
20
0.107057
11
0.529899
21
0.106518
0
LINE
8
BLACK
6
CONTINUOUS
10
0.529899
20
0.106518
11
0.534438
21
0.106518
0
LINE
8
BLACK
6
CONTINUOUS
10
0.534438
20
0.106518
11
0.534438
21
0.112404
0
LINE
8
BLACK
6
CONTINUOUS
10
0.534438
20
0.112404
11
0.529899
21
0.112404
0
LINE
8
BLACK
6
CONTINUOUS
10
0.529899
20
0.112404
11
0.52882
21
0.111865
0
LINE
8
BLACK
6
CONTINUOUS
10
0.555492
20
0.122717
11
0.556884
21
0.12214
0
LINE
8
BLACK
6
CONTINUOUS
10
0.556884
20
0.12214
11
0.557461
21
0.120748
0
LINE
8
BLACK
6
CONTINUOUS
10
0.557461
20
0.120748
11
0.557461
21
0.089252
0
LINE
8
BLACK
6
CONTINUOUS
10
0.557461
20
0.089252
11
0.556884
21
0.08786
0
LINE
8
BLACK
6
CONTINUOUS
10
0.556884
20
0.08786
11
0.555492
21
0.0872835
0
LINE
8
BLACK
6
CONTINUOUS
10
0.555492
20
0.0872835
11
0.4925
21
0.0872835
0
LINE
8
BLACK
6
CONTINUOUS
10
0.4925
20
0.0872835
11
0.491108
21
0.08786
0
LINE
8
BLACK
6
CONTINUOUS
10
0.491108
20
0.08786
11
0.490531
21
0.089252
0
LINE
8
BLACK
6
CONTINUOUS
10
0.490531
20
0.089252
11
0.490531
21
0.120748
0
LINE
8
BLACK
6
CONTINUOUS
10
0.490531
20
0.120748
11
0.491108
21
0.12214
0
LINE
8
BLACK
6
CONTINUOUS
10
0.491108
20
0.12214
11
0.4925
21
0.122717
0
LINE
8
BLACK
6
CONTINUOUS
10
0.4925
20
0.122717
11
0.555492
21
0.122717
0
LINE
8
BLACK
6
CONTINUOUS
10
0.494469
20
0.11878
11
0.494469
21
0.0912205
0
LINE
8
BLACK
6
CONTINUOUS
10
0.494469
20
0.0912205
11
0.553524
21
0.0912205
0
LINE
8
BLACK
6
CONTINUOUS
10
0.553524
20
0.0912205
11
0.553524
21
0.11878
0
LINE
8
BLACK
6
CONTINUOUS
10
0.553524
20
0.11878
11
0.494469
21
0.11878
0
LINE
8
BLACK
6
CONTINUOUS
10
0.109544
20
0.293898
11
0.110657
21
0.292212
0
LINE
8
BLACK
6
CONTINUOUS
10
0.110657
20
0.292212
11
0.110426
21
0.290206
0
LINE
8
BLACK
6
CONTINUOUS
10
0.110426
20
0.290206
11
0.108551
21
0.286456
0
LINE
8
BLACK
6
CONTINUOUS
10
0.108551
20
0.286456
11
0.108025
21
0.285747
0
LINE
8
BLACK
6
CONTINUOUS
10
0.108025
20
0.285747
11
0.107998
21
0.285689
0
LINE
8
BLACK
6
CONTINUOUS
10
0.107998
20
0.285689
11
0.10554
21
0.28323
0
LINE
8
BLACK
6
CONTINUOUS
10
0.10554
20
0.28323
11
0.132954
21
0.28323
0
LINE
8
BLACK
6
CONTINUOUS
10
0.132954
20
0.28323
11
0.132954
21
0.291526
0
LINE
8
BLACK
6
CONTINUOUS
10
0.132954
20
0.291526
11
0.133132
21
0.292536
0
LINE
8
BLACK
6
CONTINUOUS
10
0.133132
20
0.292536
11
0.13443
21
0.294083
0
LINE
8
BLACK
6
CONTINUOUS
10
0.13443
20
0.294083
11
0.136419
21
0.294434
0
LINE
8
BLACK
6
CONTINUOUS
10
0.136419
20
0.294434
11
0.138168
21
0.293424
0
LINE
8
BLACK
6
CONTINUOUS
10
0.138168
20
0.293424
11
0.138859
21
0.291526
0
LINE
8
BLACK
6
CONTINUOUS
10
0.138859
20
0.291526
11
0.138859
21
0.269029
0
LINE
8
BLACK
6
CONTINUOUS
10
0.138859
20
0.269029
11
0.138681
21
0.268019
0
LINE
8
BLACK
6
CONTINUOUS
10
0.138681
20
0.268019
11
0.137383
21
0.266472
0
LINE
8
BLACK
6
CONTINUOUS
10
0.137383
20
0.266472
11
0.135394
21
0.266121
0
LINE
8
BLACK
6
CONTINUOUS
10
0.135394
20
0.266121
11
0.133644
21
0.267131
0
LINE
8
BLACK
6
CONTINUOUS
10
0.133644
20
0.267131
11
0.132954
21
0.269029
0
LINE
8
BLACK
6
CONTINUOUS
10
0.132954
20
0.269029
11
0.132954
21
0.277325
0
LINE
8
BLACK
6
CONTINUOUS
10
0.132954
20
0.277325
11
0.0965362
21
0.277325
0
LINE
8
BLACK
6
CONTINUOUS
10
0.0965362
20
0.277325
11
0.0955263
21
0.277503
0
LINE
8
BLACK
6
CONTINUOUS
10
0.0955263
20
0.277503
11
0.0953962
21
0.277612
0
LINE
8
BLACK
6
CONTINUOUS
10
0.0953962
20
0.277612
11
0.0952274
21
0.277631
0
LINE
8
BLACK
6
CONTINUOUS
10
0.0952274
20
0.277631
11
0.0946355
21
0.27825
0
LINE
8
BLACK
6
CONTINUOUS
10
0.0946355
20
0.27825
11
0.093979
21
0.278801
0
LINE
8
BLACK
6
CONTINUOUS
10
0.093979
20
0.278801
11
0.0939495
21
0.278968
0
LINE
8
BLACK
6
CONTINUOUS
10
0.0939495
20
0.278968
11
0.0938322
21
0.279091
0
LINE
8
BLACK
6
CONTINUOUS
10
0.0938322
20
0.279091
11
0.0937771
21
0.279946
0
LINE
8
BLACK
6
CONTINUOUS
10
0.0937771
20
0.279946
11
0.0936283
21
0.28079
0
LINE
8
BLACK
6
CONTINUOUS
10
0.0936283
20
0.28079
11
0.0937131
21
0.280937
0
LINE
8
BLACK
6
CONTINUOUS
10
0.0937131
20
0.280937
11
0.0937022
21
0.281107
0
LINE
8
BLACK
6
CONTINUOUS
10
0.0937022
20
0.281107
11
0.0942097
21
0.281797
0
LINE
8
BLACK
6
CONTINUOUS
10
0.0942097
20
0.281797
11
0.0946382
21
0.282539
0
LINE
8
BLACK
6
CONTINUOUS
10
0.0946382
20
0.282539
11
0.0947977
21
0.282597
0
LINE
8
BLACK
6
CONTINUOUS
10
0.0947977
20
0.282597
11
0.0948983
21
0.282734
0
LINE
8
BLACK
6
CONTINUOUS
10
0.0948983
20
0.282734
11
0.100279
21
0.286322
0
LINE
8
BLACK
6
CONTINUOUS
10
0.100279
20
0.286322
11
0.103483
21
0.289526
0
LINE
8
BLACK
6
CONTINUOUS
10
0.103483
20
0.289526
11
0.105144
21
0.292847
0
LINE
8
BLACK
6
CONTINUOUS
10
0.105144
20
0.292847
11
0.105755
21
0.29367
0
LINE
8
BLACK
6
CONTINUOUS
10
0.105755
20
0.29367
11
0.107608
21
0.294474
0
LINE
8
BLACK
6
CONTINUOUS
10
0.107608
20
0.294474
11
0.109544
21
0.293898
0
LINE
8
BLACK
6
CONTINUOUS
10
0.138168
20
0.325295
11
0.138859
21
0.323397
0
LINE
8
BLACK
6
CONTINUOUS
10
0.138859
20
0.323397
11
0.138859
21
0.319648
0
LINE
8
BLACK
6
CONTINUOUS
10
0.138859
20
0.319648
11
0.138706
21
0.318778
0
LINE
8
BLACK
6
CONTINUOUS
10
0.138706
20
0.318778
11
0.138707
21
0.318714
0
LINE
8
BLACK
6
CONTINUOUS
10
0.138707
20
0.318714
11
0.136833
21
0.31309
0
LINE
8
BLACK
6
CONTINUOUS
10
0.136833
20
0.31309
11
0.136344
21
0.312188
0
LINE
8
BLACK
6
CONTINUOUS
10
0.136344
20
0.312188
11
0.136194
21
0.312095
0
LINE
8
BLACK
6
CONTINUOUS
10
0.136194
20
0.312095
11
0.136119
21
0.311935
0
LINE
8
BLACK
6
CONTINUOUS
10
0.136119
20
0.311935
11
0.13237
21
0.308186
0
LINE
8
BLACK
6
CONTINUOUS
10
0.13237
20
0.308186
11
0.13153
21
0.307598
0
LINE
8
BLACK
6
CONTINUOUS
10
0.13153
20
0.307598
11
0.131354
21
0.307582
0
LINE
8
BLACK
6
CONTINUOUS
10
0.131354
20
0.307582
11
0.131216
21
0.307473
0
LINE
8
BLACK
6
CONTINUOUS
10
0.131216
20
0.307473
11
0.125591
21
0.305598
0
LINE
8
BLACK
6
CONTINUOUS
10
0.125591
20
0.305598
11
0.124718
21
0.305468
0
LINE
8
BLACK
6
CONTINUOUS
10
0.124718
20
0.305468
11
0.124658
21
0.305446
0
LINE
8
BLACK
6
CONTINUOUS
10
0.124658
20
0.305446
11
0.0965362
21
0.305446
0
LINE
8
BLACK
6
CONTINUOUS
10
0.0965362
20
0.305446
11
0.0955263
21
0.305624
0
LINE
8
BLACK
6
CONTINUOUS
10
0.0955263
20
0.305624
11
0.093979
21
0.306923
0
LINE
8
BLACK
6
CONTINUOUS
10
0.093979
20
0.306923
11
0.0936283
21
0.308912
0
LINE
8
BLACK
6
CONTINUOUS
10
0.0936283
20
0.308912
11
0.0946382
21
0.310661
0
LINE
8
BLACK
6
CONTINUOUS
10
0.0946382
20
0.310661
11
0.0965362
21
0.311352
0
LINE
8
BLACK
6
CONTINUOUS
10
0.0965362
20
0.311352
11
0.124179
21
0.311352
0
LINE
8
BLACK
6
CONTINUOUS
10
0.124179
20
0.311352
11
0.128687
21
0.312855
0
LINE
8
BLACK
6
CONTINUOUS
10
0.128687
20
0.312855
11
0.131451
21
0.315618
0
LINE
8
BLACK
6
CONTINUOUS
10
0.131451
20
0.315618
11
0.132954
21
0.320127
0
LINE
8
BLACK
6
CONTINUOUS
10
0.132954
20
0.320127
11
0.132954
21
0.323397
0
LINE
8
BLACK
6
CONTINUOUS
10
0.132954
20
0.323397
11
0.133132
21
0.324407
0
LINE
8
BLACK
6
CONTINUOUS
10
0.133132
20
0.324407
11
0.13443
21
0.325954
0
LINE
8
BLACK
6
CONTINUOUS
10
0.13443
20
0.325954
11
0.136419
21
0.326305
0
LINE
8
BLACK
6
CONTINUOUS
10
0.136419
20
0.326305
11
0.138168
21
0.325295
0
LINE
8
BLACK
6
CONTINUOUS
10
0.180992
20
0.459646
11
0.182384
21
0.459069
0
LINE
8
BLACK
6
CONTINUOUS
10
0.182384
20
0.459069
11
0.182961
21
0.457677
0
LINE
8
BLACK
6
CONTINUOUS
10
0.182961
20
0.457677
11
0.182961
21
0.132874
0
LINE
8
BLACK
6
CONTINUOUS
10
0.182961
20
0.132874
11
0.182384
21
0.131482
0
LINE
8
BLACK
6
CONTINUOUS
10
0.182384
20
0.131482
11
0.180992
21
0.130906
0
LINE
8
BLACK
6
CONTINUOUS
10
0.180992
20
0.130906
11
0.0215433
21
0.130906
0
LINE
8
BLACK
6
CONTINUOUS
10
0.0215433
20
0.130906
11
0.0201514
21
0.131482
0
LINE
8
BLACK
6
CONTINUOUS
10
0.0201514
20
0.131482
11
0.0195748
21
0.132874
0
LINE
8
BLACK
6
CONTINUOUS
10
0.0195748
20
0.132874
11
0.0195748
21
0.457677
0
LINE
8
BLACK
6
CONTINUOUS
10
0.0195748
20
0.457677
11
0.0201514
21
0.459069
0
LINE
8
BLACK
6
CONTINUOUS
10
0.0201514
20
0.459069
11
0.0215433
21
0.459646
0
LINE
8
BLACK
6
CONTINUOUS
10
0.0215433
20
0.459646
11
0.180992
21
0.459646
0
LINE
8
BLACK
6
CONTINUOUS
10
0.0235118
20
0.455709
11
0.0235118
21
0.134843
0
LINE
8
BLACK
6
CONTINUOUS
10
0.0235118
20
0.134843
11
0.179024
21
0.134843
0
LINE
8
BLACK
6
CONTINUOUS
10
0.179024
20
0.134843
11
0.179024
21
0.200753
0
LINE
8
BLACK
6
CONTINUOUS
10
0.179024
20
0.200753
11
0.152017
21
0.219849
0
LINE
8
BLACK
6
CONTINUOUS
10
0.152017
20
0.219849
11
0.151835
21
0.220138
0
LINE
8
BLACK
6
CONTINUOUS
10
0.151835
20
0.220138
11
0.151546
21
0.22032
0
LINE
8
BLACK
6
CONTINUOUS
10
0.151546
20
0.22032
11
0.151448
21
0.220751
0
LINE
8
BLACK
6
CONTINUOUS
10
0.151448
20
0.220751
11
0.151213
21
0.221124
0
LINE
8
BLACK
6
CONTINUOUS
10
0.151213
20
0.221124
11
0.151289
21
0.221457
0
LINE
8
BLACK
6
CONTINUOUS
10
0.151289
20
0.221457
11
0.151213
21
0.22179
0
LINE
8
BLACK
6
CONTINUOUS
10
0.151213
20
0.22179
11
0.151448
21
0.222163
0
LINE
8
BLACK
6
CONTINUOUS
10
0.151448
20
0.222163
11
0.151546
21
0.222593
0
LINE
8
BLACK
6
CONTINUOUS
10
0.151546
20
0.222593
11
0.151835
21
0.222775
0
LINE
8
BLACK
6
CONTINUOUS
10
0.151835
20
0.222775
11
0.152017
21
0.223064
0
LINE
8
BLACK
6
CONTINUOUS
10
0.152017
20
0.223064
11
0.179024
21
0.242161
0
LINE
8
BLACK
6
CONTINUOUS
10
0.179024
20
0.242161
11
0.179024
21
0.455709
0
LINE
8
BLACK
6
CONTINUOUS
10
0.179024
20
0.455709
11
0.0235118
21
0.455709
0
LINE
8
BLACK
6
CONTINUOUS
10
0.156563
20
0.221457
11
0.179024
21
0.205575
0
LINE
8
BLACK
6
CONTINUOUS
10
0.179024
20
0.205575
11
0.179024
21
0.237339
0
LINE
8
BLACK
6
CONTINUOUS
10
0.179024
20
0.237339
11
0.156563
21
0.221457
0
LINE
8
BLACK
6
CONTINUOUS
10
0.594997
20
0.221357
11
0.595429
21
0.220313
0
LINE
8
BLACK
6
CONTINUOUS
10
0.595429
20
0.220313
11
0.595429
21
0.209064
0
LINE
8
BLACK
6
CONTINUOUS
10
0.595429
20
0.209064
11
0.594997
21
0.208021
0
LINE
8
BLACK
6
CONTINUOUS
10
0.594997
20
0.208021
11
0.593953
21
0.207588
0
LINE
8
BLACK
6
CONTINUOUS
10
0.593953
20
0.207588
11
0.592909
21
0.208021
0
LINE
8
BLACK
6
CONTINUOUS
10
0.592909
20
0.208021
11
0.592477
21
0.209064
0
LINE
8
BLACK
6
CONTINUOUS
10
0.592477
20
0.209064
11
0.592477
21
0.213212
0
LINE
8
BLACK
6
CONTINUOUS
10
0.592477
20
0.213212
11
0.574268
21
0.213212
0
LINE
8
BLACK
6
CONTINUOUS
10
0.574268
20
0.213212
11
0.574128
21
0.213271
0
LINE
8
BLACK
6
CONTINUOUS
10
0.574128
20
0.213271
11
0.573979
21
0.213241
0
LINE
8
BLACK
6
CONTINUOUS
10
0.573979
20
0.213241
11
0.573621
21
0.21348
0
LINE
8
BLACK
6
CONTINUOUS
10
0.573621
20
0.21348
11
0.573224
21
0.213645
0
LINE
8
BLACK
6
CONTINUOUS
10
0.573224
20
0.213645
11
0.573166
21
0.213785
0
LINE
8
BLACK
6
CONTINUOUS
10
0.573166
20
0.213785
11
0.57304
21
0.21387
0
LINE
8
BLACK
6
CONTINUOUS
10
0.57304
20
0.21387
11
0.572956
21
0.214292
0
LINE
8
BLACK
6
CONTINUOUS
10
0.572956
20
0.214292
11
0.572792
21
0.214689
0
LINE
8
BLACK
6
CONTINUOUS
10
0.572792
20
0.214689
11
0.57285
21
0.214829
0
LINE
8
BLACK
6
CONTINUOUS
10
0.57285
20
0.214829
11
0.57282
21
0.214978
0
LINE
8
BLACK
6
CONTINUOUS
10
0.57282
20
0.214978
11
0.57306
21
0.215336
0
LINE
8
BLACK
6
CONTINUOUS
10
0.57306
20
0.215336
11
0.573224
21
0.215733
0
LINE
8
BLACK
6
CONTINUOUS
10
0.573224
20
0.215733
11
0.573365
21
0.215791
0
LINE
8
BLACK
6
CONTINUOUS
10
0.573365
20
0.215791
11
0.573449
21
0.215917
0
LINE
8
BLACK
6
CONTINUOUS
10
0.573449
20
0.215917
11
0.57614
21
0.217711
0
LINE
8
BLACK
6
CONTINUOUS
10
0.57614
20
0.217711
11
0.577742
21
0.219313
0
LINE
8
BLACK
6
CONTINUOUS
10
0.577742
20
0.219313
11
0.578572
21
0.220973
0
LINE
8
BLACK
6
CONTINUOUS
10
0.578572
20
0.220973
11
0.579425
21
0.221714
0
LINE
8
BLACK
6
CONTINUOUS
10
0.579425
20
0.221714
11
0.580553
21
0.221634
0
LINE
8
BLACK
6
CONTINUOUS
10
0.580553
20
0.221634
11
0.581293
21
0.22078
0
LINE
8
BLACK
6
CONTINUOUS
10
0.581293
20
0.22078
11
0.581213
21
0.219653
0
LINE
8
BLACK
6
CONTINUOUS
10
0.581213
20
0.219653
11
0.580276
21
0.217778
0
LINE
8
BLACK
6
CONTINUOUS
10
0.580276
20
0.217778
11
0.580092
21
0.217619
0
LINE
8
BLACK
6
CONTINUOUS
10
0.580092
20
0.217619
11
0.579999
21
0.217394
0
LINE
8
BLACK
6
CONTINUOUS
10
0.579999
20
0.217394
11
0.57877
21
0.216165
0
LINE
8
BLACK
6
CONTINUOUS
10
0.57877
20
0.216165
11
0.592477
21
0.216165
0
LINE
8
BLACK
6
CONTINUOUS
10
0.592477
20
0.216165
11
0.592477
21
0.220313
0
LINE
8
BLACK
6
CONTINUOUS
10
0.592477
20
0.220313
11
0.592909
21
0.221357
0
LINE
8
BLACK
6
CONTINUOUS
10
0.592909
20
0.221357
11
0.593953
21
0.221789
0
LINE
8
BLACK
6
CONTINUOUS
10
0.593953
20
0.221789
11
0.594997
21
0.221357
0
LINE
8
BLACK
6
CONTINUOUS
10
0.587564
20
0.24234
11
0.587749
21
0.242368
0
LINE
8
BLACK
6
CONTINUOUS
10
0.587749
20
0.242368
11
0.591499
21
0.24143
0
LINE
8
BLACK
6
CONTINUOUS
10
0.591499
20
0.24143
11
0.591818
21
0.241194
0
LINE
8
BLACK
6
CONTINUOUS
10
0.591818
20
0.241194
11
0.592185
21
0.241042
0
LINE
8
BLACK
6
CONTINUOUS
10
0.592185
20
0.241042
11
0.59406
21
0.239167
0
LINE
8
BLACK
6
CONTINUOUS
10
0.59406
20
0.239167
11
0.594153
21
0.238943
0
LINE
8
BLACK
6
CONTINUOUS
10
0.594153
20
0.238943
11
0.594336
21
0.238784
0
LINE
8
BLACK
6
CONTINUOUS
10
0.594336
20
0.238784
11
0.595274
21
0.236909
0
LINE
8
BLACK
6
CONTINUOUS
10
0.595274
20
0.236909
11
0.595298
21
0.236566
0
LINE
8
BLACK
6
CONTINUOUS
10
0.595298
20
0.236566
11
0.595429
21
0.236249
0
LINE
8
BLACK
6
CONTINUOUS
10
0.595429
20
0.236249
11
0.595429
21
0.232499
0
LINE
8
BLACK
6
CONTINUOUS
10
0.595429
20
0.232499
11
0.595298
21
0.232182
0
LINE
8
BLACK
6
CONTINUOUS
10
0.595298
20
0.232182
11
0.595274
21
0.231839
0
LINE
8
BLACK
6
CONTINUOUS
10
0.595274
20
0.231839
11
0.594812
21
0.230916
0
LINE
8
BLACK
6
CONTINUOUS
10
0.594812
20
0.230916
11
0.595934
21
0.229794
0
LINE
8
BLACK
6
CONTINUOUS
10
0.595934
20
0.229794
11
0.596027
21
0.229569
0
LINE
8
BLACK
6
CONTINUOUS
10
0.596027
20
0.229569
11
0.596211
21
0.22941
0
LINE
8
BLACK
6
CONTINUOUS
10
0.596211
20
0.22941
11
0.597148
21
0.227535
0
LINE
8
BLACK
6
CONTINUOUS
10
0.597148
20
0.227535
11
0.597229
21
0.226408
0
LINE
8
BLACK
6
CONTINUOUS
10
0.597229
20
0.226408
11
0.596488
21
0.225554
0
LINE
8
BLACK
6
CONTINUOUS
10
0.596488
20
0.225554
11
0.595361
21
0.225474
0
LINE
8
BLACK
6
CONTINUOUS
10
0.595361
20
0.225474
11
0.594507
21
0.226215
0
LINE
8
BLACK
6
CONTINUOUS
10
0.594507
20
0.226215
11
0.593677
21
0.227875
0
LINE
8
BLACK
6
CONTINUOUS
10
0.593677
20
0.227875
11
0.593016
21
0.228536
0
LINE
8
BLACK
6
CONTINUOUS
10
0.593016
20
0.228536
11
0.592185
21
0.227706
0
LINE
8
BLACK
6
CONTINUOUS
10
0.592185
20
0.227706
11
0.591818
21
0.227554
0
LINE
8
BLACK
6
CONTINUOUS
10
0.591818
20
0.227554
11
0.591499
21
0.227317
0
LINE
8
BLACK
6
CONTINUOUS
10
0.591499
20
0.227317
11
0.587749
21
0.22638
0
LINE
8
BLACK
6
CONTINUOUS
10
0.587749
20
0.22638
11
0.587564
21
0.226407
0
LINE
8
BLACK
6
CONTINUOUS
10
0.587564
20
0.226407
11
0.587391
21
0.226336
0
LINE
8
BLACK
6
CONTINUOUS
10
0.587391
20
0.226336
11
0.58083
21
0.226336
0
LINE
8
BLACK
6
CONTINUOUS
10
0.58083
20
0.226336
11
0.580657
21
0.226407
0
LINE
8
BLACK
6
CONTINUOUS
10
0.580657
20
0.226407
11
0.580472
21
0.22638
0
LINE
8
BLACK
6
CONTINUOUS
10
0.580472
20
0.22638
11
0.576722
21
0.227317
0
LINE
8
BLACK
6
CONTINUOUS
10
0.576722
20
0.227317
11
0.576403
21
0.227554
0
LINE
8
BLACK
6
CONTINUOUS
10
0.576403
20
0.227554
11
0.576036
21
0.227706
0
LINE
8
BLACK
6
CONTINUOUS
10
0.576036
20
0.227706
11
0.574161
21
0.22958
0
LINE
8
BLACK
6
CONTINUOUS
10
0.574161
20
0.22958
11
0.574068
21
0.229805
0
LINE
8
BLACK
6
CONTINUOUS
10
0.574068
20
0.229805
11
0.573885
21
0.229964
0
LINE
8
BLACK
6
CONTINUOUS
10
0.573885
20
0.229964
11
0.572948
21
0.231839
0
LINE
8
BLACK
6
CONTINUOUS
10
0.572948
20
0.231839
11
0.572923
21
0.232182
0
LINE
8
BLACK
6
CONTINUOUS
10
0.572923
20
0.232182
11
0.572792
21
0.232499
0
LINE
8
BLACK
6
CONTINUOUS
10
0.572792
20
0.232499
11
0.572792
21
0.236249
0
LINE
8
BLACK
6
CONTINUOUS
10
0.572792
20
0.236249
11
0.572923
21
0.236566
0
LINE
8
BLACK
6
CONTINUOUS
10
0.572923
20
0.236566
11
0.572948
21
0.236909
0
LINE
8
BLACK
6
CONTINUOUS
10
0.572948
20
0.236909
11
0.573885
21
0.238784
0
LINE
8
BLACK
6
CONTINUOUS
10
0.573885
20
0.238784
11
0.574068
21
0.238943
0
LINE
8
BLACK
6
CONTINUOUS
10
0.574068
20
0.238943
11
0.574161
21
0.239167
0
LINE
8
BLACK
6
CONTINUOUS
10
0.574161
20
0.239167
11
0.576036
21
0.241042
0
LINE
8
BLACK
6
CONTINUOUS
10
0.576036
20
0.241042
11
0.576403
21
0.241194
0
LINE
8
BLACK
6
CONTINUOUS
10
0.576403
20
0.241194
11
0.576722
21
0.24143
0
LINE
8
BLACK
6
CONTINUOUS
10
0.576722
20
0.24143
11
0.580472
21
0.242368
0
LINE
8
BLACK
6
CONTINUOUS
10
0.580472
20
0.242368
11
0.580657
21
0.24234
0
LINE
8
BLACK
6
CONTINUOUS
10
0.580657
20
0.24234
11
0.58083
21
0.242412
0
LINE
8
BLACK
6
CONTINUOUS
10
0.58083
20
0.242412
11
0.587391
21
0.242412
0
LINE
8
BLACK
6
CONTINUOUS
10
0.587391
20
0.242412
11
0.587564
21
0.24234
0
LINE
8
BLACK
6
CONTINUOUS
10
0.577835
20
0.238665
11
0.576419
21
0.237249
0
LINE
8
BLACK
6
CONTINUOUS
10
0.576419
20
0.237249
11
0.575744
21
0.2359
0
LINE
8
BLACK
6
CONTINUOUS
10
0.575744
20
0.2359
11
0.575744
21
0.232848
0
LINE
8
BLACK
6
CONTINUOUS
10
0.575744
20
0.232848
11
0.576419
21
0.231499
0
LINE
8
BLACK
6
CONTINUOUS
10
0.576419
20
0.231499
11
0.577835
21
0.230083
0
LINE
8
BLACK
6
CONTINUOUS
10
0.577835
20
0.230083
11
0.581011
21
0.229289
0
LINE
8
BLACK
6
CONTINUOUS
10
0.581011
20
0.229289
11
0.58721
21
0.229289
0
LINE
8
BLACK
6
CONTINUOUS
10
0.58721
20
0.229289
11
0.590386
21
0.230083
0
LINE
8
BLACK
6
CONTINUOUS
10
0.590386
20
0.230083
11
0.590928
21
0.230624
0
LINE
8
BLACK
6
CONTINUOUS
10
0.590928
20
0.230624
11
0.58916
21
0.232392
0
LINE
8
BLACK
6
CONTINUOUS
10
0.58916
20
0.232392
11
0.589067
21
0.232617
0
LINE
8
BLACK
6
CONTINUOUS
10
0.589067
20
0.232617
11
0.588883
21
0.232776
0
LINE
8
BLACK
6
CONTINUOUS
10
0.588883
20
0.232776
11
0.587946
21
0.234651
0
LINE
8
BLACK
6
CONTINUOUS
10
0.587946
20
0.234651
11
0.587921
21
0.234994
0
LINE
8
BLACK
6
CONTINUOUS
10
0.587921
20
0.234994
11
0.58779
21
0.235311
0
LINE
8
BLACK
6
CONTINUOUS
10
0.58779
20
0.235311
11
0.58779
21
0.237186
0
LINE
8
BLACK
6
CONTINUOUS
10
0.58779
20
0.237186
11
0.588222
21
0.23823
0
LINE
8
BLACK
6
CONTINUOUS
10
0.588222
20
0.23823
11
0.589266
21
0.238662
0
LINE
8
BLACK
6
CONTINUOUS
10
0.589266
20
0.238662
11
0.59031
21
0.23823
0
LINE
8
BLACK
6
CONTINUOUS
10
0.59031
20
0.23823
11
0.590743
21
0.237186
0
LINE
8
BLACK
6
CONTINUOUS
10
0.590743
20
0.237186
11
0.590743
21
0.23566
0
LINE
8
BLACK
6
CONTINUOUS
10
0.590743
20
0.23566
11
0.591417
21
0.234311
0
LINE
8
BLACK
6
CONTINUOUS
10
0.591417
20
0.234311
11
0.592477
21
0.233251
0
LINE
8
BLACK
6
CONTINUOUS
10
0.592477
20
0.233251
11
0.592477
21
0.2359
0
LINE
8
BLACK
6
CONTINUOUS
10
0.592477
20
0.2359
11
0.591802
21
0.237249
0
LINE
8
BLACK
6
CONTINUOUS
10
0.591802
20
0.237249
11
0.590386
21
0.238665
0
LINE
8
BLACK
6
CONTINUOUS
10
0.590386
20
0.238665
11
0.58721
21
0.239459
0
LINE
8
BLACK
6
CONTINUOUS
10
0.58721
20
0.239459
11
0.581011
21
0.239459
0
LINE
8
BLACK
6
CONTINUOUS
10
0.581011
20
0.239459
11
0.577835
21
0.238665
0
LINE
8
BLACK
6
CONTINUOUS
10
0.590923
20
0.286804
11
0.590941
21
0.286811
0
LINE
8
BLACK
6
CONTINUOUS
10
0.590941
20
0.286811
11
0.591617
21
0.286516
0
LINE
8
BLACK
6
CONTINUOUS
10
0.591617
20
0.286516
11
0.592297
21
0.286234
0
LINE
8
BLACK
6
CONTINUOUS
10
0.592297
20
0.286234
11
0.592305
21
0.286217
0
LINE
8
BLACK
6
CONTINUOUS
10
0.592305
20
0.286217
11
0.592322
21
0.286209
0
LINE
8
BLACK
6
CONTINUOUS
10
0.592322
20
0.286209
11
0.613976
21
0.263768
0
LINE
8
BLACK
6
CONTINUOUS
10
0.613976
20
0.263768
11
0.614246
21
0.263082
0
LINE
8
BLACK
6
CONTINUOUS
10
0.614246
20
0.263082
11
0.614528
21
0.262402
0
LINE
8
BLACK
6
CONTINUOUS
10
0.614528
20
0.262402
11
0.614528
21
0.165945
0
LINE
8
BLACK
6
CONTINUOUS
10
0.614528
20
0.165945
11
0.614364
21
0.165551
0
LINE
8
BLACK
6
CONTINUOUS
10
0.614364
20
0.165551
11
0.614528
21
0.165157
0
LINE
8
BLACK
6
CONTINUOUS
10
0.614528
20
0.165157
11
0.613951
21
0.163766
0
LINE
8
BLACK
6
CONTINUOUS
10
0.613951
20
0.163766
11
0.612559
21
0.163189
0
LINE
8
BLACK
6
CONTINUOUS
10
0.612559
20
0.163189
11
0.557441
21
0.163189
0
LINE
8
BLACK
6
CONTINUOUS
10
0.557441
20
0.163189
11
0.556049
21
0.163766
0
LINE
8
BLACK
6
CONTINUOUS
10
0.556049
20
0.163766
11
0.555472
21
0.165157
0
LINE
8
BLACK
6
CONTINUOUS
10
0.555472
20
0.165157
11
0.555472
21
0.284843
0
LINE
8
BLACK
6
CONTINUOUS
10
0.555472
20
0.284843
11
0.556049
21
0.286234
0
LINE
8
BLACK
6
CONTINUOUS
10
0.556049
20
0.286234
11
0.557441
21
0.286811
0
LINE
8
BLACK
6
CONTINUOUS
10
0.557441
20
0.286811
11
0.590906
21
0.286811
0
LINE
8
BLACK
6
CONTINUOUS
10
0.590906
20
0.286811
11
0.590923
21
0.286804
0
LINE
8
BLACK
6
CONTINUOUS
10
0.559409
20
0.282874
11
0.559409
21
0.167126
0
LINE
8
BLACK
6
CONTINUOUS
10
0.559409
20
0.167126
11
0.610591
21
0.167126
0
LINE
8
BLACK
6
CONTINUOUS
10
0.610591
20
0.167126
11
0.610591
21
0.261607
0
LINE
8
BLACK
6
CONTINUOUS
10
0.610591
20
0.261607
11
0.590069
21
0.282874
0
LINE
8
BLACK
6
CONTINUOUS
10
0.590069
20
0.282874
11
0.559409
21
0.282874
0
LINE
8
BLACK
6
CONTINUOUS
10
0.467167
20
0.208705
11
0.467441
21
0.208686
0
LINE
8
BLACK
6
CONTINUOUS
10
0.467441
20
0.208686
11
0.467569
21
0.208539
0
LINE
8
BLACK
6
CONTINUOUS
10
0.467569
20
0.208539
11
0.467748
21
0.208465
0
LINE
8
BLACK
6
CONTINUOUS
10
0.467748
20
0.208465
11
0.467854
21
0.208211
0
LINE
8
BLACK
6
CONTINUOUS
10
0.467854
20
0.208211
11
0.468034
21
0.208003
0
LINE
8
BLACK
6
CONTINUOUS
10
0.468034
20
0.208003
11
0.46802
21
0.207809
0
LINE
8
BLACK
6
CONTINUOUS
10
0.46802
20
0.207809
11
0.468094
21
0.207629
0
LINE
8
BLACK
6
CONTINUOUS
10
0.468094
20
0.207629
11
0.468094
21
0.201311
0
LINE
8
BLACK
6
CONTINUOUS
10
0.468094
20
0.201311
11
0.472162
21
0.201311
0
LINE
8
BLACK
6
CONTINUOUS
10
0.472162
20
0.201311
11
0.472998
21
0.200965
0
LINE
8
BLACK
6
CONTINUOUS
10
0.472998
20
0.200965
11
0.473344
21
0.20013
0
LINE
8
BLACK
6
CONTINUOUS
10
0.473344
20
0.20013
11
0.472998
21
0.199295
0
LINE
8
BLACK
6
CONTINUOUS
10
0.472998
20
0.199295
11
0.472162
21
0.198949
0
LINE
8
BLACK
6
CONTINUOUS
10
0.472162
20
0.198949
11
0.468094
21
0.198949
0
LINE
8
BLACK
6
CONTINUOUS
10
0.468094
20
0.198949
11
0.468094
21
0.197881
0
LINE
8
BLACK
6
CONTINUOUS
10
0.468094
20
0.197881
11
0.467748
21
0.197045
0
LINE
8
BLACK
6
CONTINUOUS
10
0.467748
20
0.197045
11
0.466913
21
0.196699
0
LINE
8
BLACK
6
CONTINUOUS
10
0.466913
20
0.196699
11
0.466078
21
0.197045
0
LINE
8
BLACK
6
CONTINUOUS
10
0.466078
20
0.197045
11
0.465732
21
0.197881
0
LINE
8
BLACK
6
CONTINUOUS
10
0.465732
20
0.197881
11
0.465732
21
0.198949
0
LINE
8
BLACK
6
CONTINUOUS
10
0.465732
20
0.198949
11
0.461664
21
0.198949
0
LINE
8
BLACK
6
CONTINUOUS
10
0.461664
20
0.198949
11
0.460829
21
0.199295
0
LINE
8
BLACK
6
CONTINUOUS
10
0.460829
20
0.199295
11
0.460483
21
0.20013
0
LINE
8
BLACK
6
CONTINUOUS
10
0.460483
20
0.20013
11
0.460829
21
0.200965
0
LINE
8
BLACK
6
CONTINUOUS
10
0.460829
20
0.200965
11
0.461664
21
0.201311
0
LINE
8
BLACK
6
CONTINUOUS
10
0.461664
20
0.201311
11
0.465732
21
0.201311
0
LINE
8
BLACK
6
CONTINUOUS
10
0.465732
20
0.201311
11
0.465732
21
0.205991
0
LINE
8
BLACK
6
CONTINUOUS
10
0.465732
20
0.205991
11
0.456038
21
0.202759
0
LINE
8
BLACK
6
CONTINUOUS
10
0.456038
20
0.202759
11
0.455136
21
0.202823
0
LINE
8
BLACK
6
CONTINUOUS
10
0.455136
20
0.202823
11
0.454544
21
0.203506
0
LINE
8
BLACK
6
CONTINUOUS
10
0.454544
20
0.203506
11
0.454608
21
0.204408
0
LINE
8
BLACK
6
CONTINUOUS
10
0.454608
20
0.204408
11
0.455291
21
0.205
0
LINE
8
BLACK
6
CONTINUOUS
10
0.455291
20
0.205
11
0.46654
21
0.20875
0
LINE
8
BLACK
6
CONTINUOUS
10
0.46654
20
0.20875
11
0.466734
21
0.208736
0
LINE
8
BLACK
6
CONTINUOUS
10
0.466734
20
0.208736
11
0.466913
21
0.20881
0
LINE
8
BLACK
6
CONTINUOUS
10
0.466913
20
0.20881
11
0.467167
21
0.208705
0
LINE
8
BLACK
6
CONTINUOUS
10
0.465552
20
0.224501
11
0.4657
21
0.224523
0
LINE
8
BLACK
6
CONTINUOUS
10
0.4657
20
0.224523
11
0.468699
21
0.223773
0
LINE
8
BLACK
6
CONTINUOUS
10
0.468699
20
0.223773
11
0.468807
21
0.223693
0
LINE
8
BLACK
6
CONTINUOUS
10
0.468807
20
0.223693
11
0.468941
21
0.223684
0
LINE
8
BLACK
6
CONTINUOUS
10
0.468941
20
0.223684
11
0.470441
21
0.222934
0
LINE
8
BLACK
6
CONTINUOUS
10
0.470441
20
0.222934
11
0.470568
21
0.222787
0
LINE
8
BLACK
6
CONTINUOUS
10
0.470568
20
0.222787
11
0.470748
21
0.222713
0
LINE
8
BLACK
6
CONTINUOUS
10
0.470748
20
0.222713
11
0.472248
21
0.221213
0
LINE
8
BLACK
6
CONTINUOUS
10
0.472248
20
0.221213
11
0.472353
21
0.220959
0
LINE
8
BLACK
6
CONTINUOUS
10
0.472353
20
0.220959
11
0.472533
21
0.220751
0
LINE
8
BLACK
6
CONTINUOUS
10
0.472533
20
0.220751
11
0.473283
21
0.218502
0
LINE
8
BLACK
6
CONTINUOUS
10
0.473283
20
0.218502
11
0.473269
21
0.218308
0
LINE
8
BLACK
6
CONTINUOUS
10
0.473269
20
0.218308
11
0.473344
21
0.218128
0
LINE
8
BLACK
6
CONTINUOUS
10
0.473344
20
0.218128
11
0.473344
21
0.216628
0
LINE
8
BLACK
6
CONTINUOUS
10
0.473344
20
0.216628
11
0.473269
21
0.216449
0
LINE
8
BLACK
6
CONTINUOUS
10
0.473269
20
0.216449
11
0.473283
21
0.216255
0
LINE
8
BLACK
6
CONTINUOUS
10
0.473283
20
0.216255
11
0.472533
21
0.214005
0
LINE
8
BLACK
6
CONTINUOUS
10
0.472533
20
0.214005
11
0.472353
21
0.213797
0
LINE
8
BLACK
6
CONTINUOUS
10
0.472353
20
0.213797
11
0.472248
21
0.213543
0
LINE
8
BLACK
6
CONTINUOUS
10
0.472248
20
0.213543
11
0.471498
21
0.212793
0
LINE
8
BLACK
6
CONTINUOUS
10
0.471498
20
0.212793
11
0.470663
21
0.212448
0
LINE
8
BLACK
6
CONTINUOUS
10
0.470663
20
0.212448
11
0.469828
21
0.212793
0
LINE
8
BLACK
6
CONTINUOUS
10
0.469828
20
0.212793
11
0.469482
21
0.213629
0
LINE
8
BLACK
6
CONTINUOUS
10
0.469482
20
0.213629
11
0.469828
21
0.214464
0
LINE
8
BLACK
6
CONTINUOUS
10
0.469828
20
0.214464
11
0.47038
21
0.215016
0
LINE
8
BLACK
6
CONTINUOUS
10
0.47038
20
0.215016
11
0.470981
21
0.21682
0
LINE
8
BLACK
6
CONTINUOUS
10
0.470981
20
0.21682
11
0.470981
21
0.217936
0
LINE
8
BLACK
6
CONTINUOUS
10
0.470981
20
0.217936
11
0.47038
21
0.21974
0
LINE
8
BLACK
6
CONTINUOUS
10
0.47038
20
0.21974
11
0.469213
21
0.220907
0
LINE
8
BLACK
6
CONTINUOUS
10
0.469213
20
0.220907
11
0.468001
21
0.221513
0
LINE
8
BLACK
6
CONTINUOUS
10
0.468001
20
0.221513
11
0.465268
21
0.222196
0
LINE
8
BLACK
6
CONTINUOUS
10
0.465268
20
0.222196
11
0.463309
21
0.222196
0
LINE
8
BLACK
6
CONTINUOUS
10
0.463309
20
0.222196
11
0.460576
21
0.221513
0
LINE
8
BLACK
6
CONTINUOUS
10
0.460576
20
0.221513
11
0.459364
21
0.220907
0
LINE
8
BLACK
6
CONTINUOUS
10
0.459364
20
0.220907
11
0.458197
21
0.21974
0
LINE
8
BLACK
6
CONTINUOUS
10
0.458197
20
0.21974
11
0.457596
21
0.217936
0
LINE
8
BLACK
6
CONTINUOUS
10
0.457596
20
0.217936
11
0.457596
21
0.21682
0
LINE
8
BLACK
6
CONTINUOUS
10
0.457596
20
0.21682
11
0.458197
21
0.215017
0
LINE
8
BLACK
6
CONTINUOUS
10
0.458197
20
0.215017
11
0.458749
21
0.214464
0
LINE
8
BLACK
6
CONTINUOUS
10
0.458749
20
0.214464
11
0.459095
21
0.213629
0
LINE
8
BLACK
6
CONTINUOUS
10
0.459095
20
0.213629
11
0.458749
21
0.212793
0
LINE
8
BLACK
6
CONTINUOUS
10
0.458749
20
0.212793
11
0.457914
21
0.212448
0
LINE
8
BLACK
6
CONTINUOUS
10
0.457914
20
0.212448
11
0.457079
21
0.212794
0
LINE
8
BLACK
6
CONTINUOUS
10
0.457079
20
0.212794
11
0.456329
21
0.213543
0
LINE
8
BLACK
6
CONTINUOUS
10
0.456329
20
0.213543
11
0.456224
21
0.213797
0
LINE
8
BLACK
6
CONTINUOUS
10
0.456224
20
0.213797
11
0.456044
21
0.214005
0
LINE
8
BLACK
6
CONTINUOUS
10
0.456044
20
0.214005
11
0.455294
21
0.216255
0
LINE
8
BLACK
6
CONTINUOUS
10
0.455294
20
0.216255
11
0.455308
21
0.216449
0
LINE
8
BLACK
6
CONTINUOUS
10
0.455308
20
0.216449
11
0.455233
21
0.216628
0
LINE
8
BLACK
6
CONTINUOUS
10
0.455233
20
0.216628
11
0.455233
21
0.218128
0
LINE
8
BLACK
6
CONTINUOUS
10
0.455233
20
0.218128
11
0.455308
21
0.218308
0
LINE
8
BLACK
6
CONTINUOUS
10
0.455308
20
0.218308
11
0.455294
21
0.218502
0
LINE
8
BLACK
6
CONTINUOUS
10
0.455294
20
0.218502
11
0.456044
21
0.220751
0
LINE
8
BLACK
6
CONTINUOUS
10
0.456044
20
0.220751
11
0.456224
21
0.220959
0
LINE
8
BLACK
6
CONTINUOUS
10
0.456224
20
0.220959
11
0.456329
21
0.221213
0
LINE
8
BLACK
6
CONTINUOUS
10
0.456329
20
0.221213
11
0.457829
21
0.222713
0
LINE
8
BLACK
6
CONTINUOUS
10
0.457829
20
0.222713
11
0.458009
21
0.222787
0
LINE
8
BLACK
6
CONTINUOUS
10
0.458009
20
0.222787
11
0.458136
21
0.222934
0
LINE
8
BLACK
6
CONTINUOUS
10
0.458136
20
0.222934
11
0.459636
21
0.223684
0
LINE
8
BLACK
6
CONTINUOUS
10
0.459636
20
0.223684
11
0.45977
21
0.223693
0
LINE
8
BLACK
6
CONTINUOUS
10
0.45977
20
0.223693
11
0.459878
21
0.223773
0
LINE
8
BLACK
6
CONTINUOUS
10
0.459878
20
0.223773
11
0.462877
21
0.224523
0
LINE
8
BLACK
6
CONTINUOUS
10
0.462877
20
0.224523
11
0.463025
21
0.224501
0
LINE
8
BLACK
6
CONTINUOUS
10
0.463025
20
0.224501
11
0.463164
21
0.224559
0
LINE
8
BLACK
6
CONTINUOUS
10
0.463164
20
0.224559
11
0.465413
21
0.224559
0
LINE
8
BLACK
6
CONTINUOUS
10
0.465413
20
0.224559
11
0.465552
21
0.224501
0
LINE
8
BLACK
6
CONTINUOUS
10
0.480748
20
0.244469
11
0.48214
21
0.243892
0
LINE
8
BLACK
6
CONTINUOUS
10
0.48214
20
0.243892
11
0.482717
21
0.2425
0
LINE
8
BLACK
6
CONTINUOUS
10
0.482717
20
0.2425
11
0.482717
21
0.179508
0
LINE
8
BLACK
6
CONTINUOUS
10
0.482717
20
0.179508
11
0.48214
21
0.178116
0
LINE
8
BLACK
6
CONTINUOUS
10
0.48214
20
0.178116
11
0.480748
21
0.177539
0
LINE
8
BLACK
6
CONTINUOUS
10
0.480748
20
0.177539
11
0.449252
21
0.177539
0
LINE
8
BLACK
6
CONTINUOUS
10
0.449252
20
0.177539
11
0.44786
21
0.178116
0
LINE
8
BLACK
6
CONTINUOUS
10
0.44786
20
0.178116
11
0.447283
21
0.179508
0
LINE
8
BLACK
6
CONTINUOUS
10
0.447283
20
0.179508
11
0.447283
21
0.2425
0
LINE
8
BLACK
6
CONTINUOUS
10
0.447283
20
0.2425
11
0.44786
21
0.243892
0
LINE
8
BLACK
6
CONTINUOUS
10
0.44786
20
0.243892
11
0.449252
21
0.244469
0
LINE
8
BLACK
6
CONTINUOUS
10
0.449252
20
0.244469
11
0.480748
21
0.244469
0
LINE
8
BLACK
6
CONTINUOUS
10
0.45122
20
0.240531
11
0.45122
21
0.181476
0
LINE
8
BLACK
6
CONTINUOUS
10
0.45122
20
0.181476
11
0.47878
21
0.181476
0
LINE
8
BLACK
6
CONTINUOUS
10
0.47878
20
0.181476
11
0.47878
21
0.240531
0
LINE
8
BLACK
6
CONTINUOUS
10
0.47878
20
0.240531
11
0.45122
21
0.240531
0
LINE
8
BLACK
6
CONTINUOUS
10
0.718626
20
0.219661
11
0.7189
21
0.219642
0
LINE
8
BLACK
6
CONTINUOUS
10
0.7189
20
0.219642
11
0.7204
21
0.218892
0
LINE
8
BLACK
6
CONTINUOUS
10
0.7204
20
0.218892
11
0.720527
21
0.218745
0
LINE
8
BLACK
6
CONTINUOUS
10
0.720527
20
0.218745
11
0.720707
21
0.218671
0
LINE
8
BLACK
6
CONTINUOUS
10
0.720707
20
0.218671
11
0.721457
21
0.217921
0
LINE
8
BLACK
6
CONTINUOUS
10
0.721457
20
0.217921
11
0.721803
21
0.217086
0
LINE
8
BLACK
6
CONTINUOUS
10
0.721803
20
0.217086
11
0.721457
21
0.216251
0
LINE
8
BLACK
6
CONTINUOUS
10
0.721457
20
0.216251
11
0.720621
21
0.215905
0
LINE
8
BLACK
6
CONTINUOUS
10
0.720621
20
0.215905
11
0.719786
21
0.216251
0
LINE
8
BLACK
6
CONTINUOUS
10
0.719786
20
0.216251
11
0.719172
21
0.216865
0
LINE
8
BLACK
6
CONTINUOUS
10
0.719172
20
0.216865
11
0.718093
21
0.217404
0
LINE
8
BLACK
6
CONTINUOUS
10
0.718093
20
0.217404
11
0.714901
21
0.217404
0
LINE
8
BLACK
6
CONTINUOUS
10
0.714901
20
0.217404
11
0.713822
21
0.216865
0
LINE
8
BLACK
6
CONTINUOUS
10
0.713822
20
0.216865
11
0.713343
21
0.216386
0
LINE
8
BLACK
6
CONTINUOUS
10
0.713343
20
0.216386
11
0.712804
21
0.215307
0
LINE
8
BLACK
6
CONTINUOUS
10
0.712804
20
0.215307
11
0.712804
21
0.214278
0
LINE
8
BLACK
6
CONTINUOUS
10
0.712804
20
0.214278
11
0.713405
21
0.212474
0
LINE
8
BLACK
6
CONTINUOUS
10
0.713405
20
0.212474
11
0.722207
21
0.203673
0
LINE
8
BLACK
6
CONTINUOUS
10
0.722207
20
0.203673
11
0.722552
21
0.202838
0
LINE
8
BLACK
6
CONTINUOUS
10
0.722552
20
0.202838
11
0.722207
21
0.202002
0
LINE
8
BLACK
6
CONTINUOUS
10
0.722207
20
0.202002
11
0.721371
21
0.201656
0
LINE
8
BLACK
6
CONTINUOUS
10
0.721371
20
0.201656
11
0.711623
21
0.201656
0
LINE
8
BLACK
6
CONTINUOUS
10
0.711623
20
0.201656
11
0.710787
21
0.202002
0
LINE
8
BLACK
6
CONTINUOUS
10
0.710787
20
0.202002
11
0.710441
21
0.202838
0
LINE
8
BLACK
6
CONTINUOUS
10
0.710441
20
0.202838
11
0.710787
21
0.203673
0
LINE
8
BLACK
6
CONTINUOUS
10
0.710787
20
0.203673
11
0.711623
21
0.204019
0
LINE
8
BLACK
6
CONTINUOUS
10
0.711623
20
0.204019
11
0.71852
21
0.204019
0
LINE
8
BLACK
6
CONTINUOUS
10
0.71852
20
0.204019
11
0.711537
21
0.211001
0
LINE
8
BLACK
6
CONTINUOUS
10
0.711537
20
0.211001
11
0.711432
21
0.211255
0
LINE
8
BLACK
6
CONTINUOUS
10
0.711432
20
0.211255
11
0.711252
21
0.211463
0
LINE
8
BLACK
6
CONTINUOUS
10
0.711252
20
0.211463
11
0.710502
21
0.213713
0
LINE
8
BLACK
6
CONTINUOUS
10
0.710502
20
0.213713
11
0.710516
21
0.213907
0
LINE
8
BLACK
6
CONTINUOUS
10
0.710516
20
0.213907
11
0.710441
21
0.214086
0
LINE
8
BLACK
6
CONTINUOUS
10
0.710441
20
0.214086
11
0.710441
21
0.215586
0
LINE
8
BLACK
6
CONTINUOUS
10
0.710441
20
0.215586
11
0.710547
21
0.21584
0
LINE
8
BLACK
6
CONTINUOUS
10
0.710547
20
0.21584
11
0.710566
21
0.216114
0
LINE
8
BLACK
6
CONTINUOUS
10
0.710566
20
0.216114
11
0.711316
21
0.217614
0
LINE
8
BLACK
6
CONTINUOUS
10
0.711316
20
0.217614
11
0.711463
21
0.217741
0
LINE
8
BLACK
6
CONTINUOUS
10
0.711463
20
0.217741
11
0.711537
21
0.217921
0
LINE
8
BLACK
6
CONTINUOUS
10
0.711537
20
0.217921
11
0.712287
21
0.218671
0
LINE
8
BLACK
6
CONTINUOUS
10
0.712287
20
0.218671
11
0.712467
21
0.218745
0
LINE
8
BLACK
6
CONTINUOUS
10
0.712467
20
0.218745
11
0.712594
21
0.218892
0
LINE
8
BLACK
6
CONTINUOUS
10
0.712594
20
0.218892
11
0.714094
21
0.219642
0
LINE
8
BLACK
6
CONTINUOUS
10
0.714094
20
0.219642
11
0.714368
21
0.219661
0
LINE
8
BLACK
6
CONTINUOUS
10
0.714368
20
0.219661
11
0.714622
21
0.219767
0
LINE
8
BLACK
6
CONTINUOUS
10
0.714622
20
0.219767
11
0.718372
21
0.219767
0
LINE
8
BLACK
6
CONTINUOUS
10
0.718372
20
0.219767
11
0.718626
21
0.219661
0
LINE
8
BLACK
6
CONTINUOUS
10
0.736455
20
0.219421
11
0.736801
21
0.218586
0
LINE
8
BLACK
6
CONTINUOUS
10
0.736801
20
0.218586
11
0.736801
21
0.202838
0
LINE
8
BLACK
6
CONTINUOUS
10
0.736801
20
0.202838
11
0.736455
21
0.202002
0
LINE
8
BLACK
6
CONTINUOUS
10
0.736455
20
0.202002
11
0.73562
21
0.201656
0
LINE
8
BLACK
6
CONTINUOUS
10
0.73562
20
0.201656
11
0.734784
21
0.202002
0
LINE
8
BLACK
6
CONTINUOUS
10
0.734784
20
0.202002
11
0.734438
21
0.202838
0
LINE
8
BLACK
6
CONTINUOUS
10
0.734438
20
0.202838
11
0.734438
21
0.209155
0
LINE
8
BLACK
6
CONTINUOUS
10
0.734438
20
0.209155
11
0.732485
21
0.209155
0
LINE
8
BLACK
6
CONTINUOUS
10
0.732485
20
0.209155
11
0.727588
21
0.20216
0
LINE
8
BLACK
6
CONTINUOUS
10
0.727588
20
0.20216
11
0.726826
21
0.201674
0
LINE
8
BLACK
6
CONTINUOUS
10
0.726826
20
0.201674
11
0.725943
21
0.20187
0
LINE
8
BLACK
6
CONTINUOUS
10
0.725943
20
0.20187
11
0.725458
21
0.202632
0
LINE
8
BLACK
6
CONTINUOUS
10
0.725458
20
0.202632
11
0.725653
21
0.203515
0
LINE
8
BLACK
6
CONTINUOUS
10
0.725653
20
0.203515
11
0.729606
21
0.209161
0
LINE
8
BLACK
6
CONTINUOUS
10
0.729606
20
0.209161
11
0.729366
21
0.209261
0
LINE
8
BLACK
6
CONTINUOUS
10
0.729366
20
0.209261
11
0.729092
21
0.20928
0
LINE
8
BLACK
6
CONTINUOUS
10
0.729092
20
0.20928
11
0.727592
21
0.21003
0
LINE
8
BLACK
6
CONTINUOUS
10
0.727592
20
0.21003
11
0.727465
21
0.210177
0
LINE
8
BLACK
6
CONTINUOUS
10
0.727465
20
0.210177
11
0.727285
21
0.210251
0
LINE
8
BLACK
6
CONTINUOUS
10
0.727285
20
0.210251
11
0.726535
21
0.211001
0
LINE
8
BLACK
6
CONTINUOUS
10
0.726535
20
0.211001
11
0.726461
21
0.211181
0
LINE
8
BLACK
6
CONTINUOUS
10
0.726461
20
0.211181
11
0.726314
21
0.211308
0
LINE
8
BLACK
6
CONTINUOUS
10
0.726314
20
0.211308
11
0.725564
21
0.212808
0
LINE
8
BLACK
6
CONTINUOUS
10
0.725564
20
0.212808
11
0.725545
21
0.213082
0
LINE
8
BLACK
6
CONTINUOUS
10
0.725545
20
0.213082
11
0.72544
21
0.213336
0
LINE
8
BLACK
6
CONTINUOUS
10
0.72544
20
0.213336
11
0.72544
21
0.215586
0
LINE
8
BLACK
6
CONTINUOUS
10
0.72544
20
0.215586
11
0.725545
21
0.21584
0
LINE
8
BLACK
6
CONTINUOUS
10
0.725545
20
0.21584
11
0.725564
21
0.216114
0
LINE
8
BLACK
6
CONTINUOUS
10
0.725564
20
0.216114
11
0.726314
21
0.217614
0
LINE
8
BLACK
6
CONTINUOUS
10
0.726314
20
0.217614
11
0.726461
21
0.217741
0
LINE
8
BLACK
6
CONTINUOUS
10
0.726461
20
0.217741
11
0.726535
21
0.217921
0
LINE
8
BLACK
6
CONTINUOUS
10
0.726535
20
0.217921
11
0.727285
21
0.218671
0
LINE
8
BLACK
6
CONTINUOUS
10
0.727285
20
0.218671
11
0.727465
21
0.218745
0
LINE
8
BLACK
6
CONTINUOUS
10
0.727465
20
0.218745
11
0.727592
21
0.218892
0
LINE
8
BLACK
6
CONTINUOUS
10
0.727592
20
0.218892
11
0.729092
21
0.219642
0
LINE
8
BLACK
6
CONTINUOUS
10
0.729092
20
0.219642
11
0.729366
21
0.219661
0
LINE
8
BLACK
6
CONTINUOUS
10
0.729366
20
0.219661
11
0.72962
21
0.219767
0
LINE
8
BLACK
6
CONTINUOUS
10
0.72962
20
0.219767
11
0.73562
21
0.219767
0
LINE
8
BLACK
6
CONTINUOUS
10
0.73562
20
0.219767
11
0.736455
21
0.219421
0
LINE
8
BLACK
6
CONTINUOUS
10
0.72882
20
0.216865
11
0.728341
21
0.216386
0
LINE
8
BLACK
6
CONTINUOUS
10
0.728341
20
0.216386
11
0.727802
21
0.215307
0
LINE
8
BLACK
6
CONTINUOUS
10
0.727802
20
0.215307
11
0.727802
21
0.213615
0
LINE
8
BLACK
6
CONTINUOUS
10
0.727802
20
0.213615
11
0.728341
21
0.212536
0
LINE
8
BLACK
6
CONTINUOUS
10
0.728341
20
0.212536
11
0.72882
21
0.212057
0
LINE
8
BLACK
6
CONTINUOUS
10
0.72882
20
0.212057
11
0.729899
21
0.211518
0
LINE
8
BLACK
6
CONTINUOUS
10
0.729899
20
0.211518
11
0.734438
21
0.211518
0
LINE
8
BLACK
6
CONTINUOUS
10
0.734438
20
0.211518
11
0.734438
21
0.217404
0
LINE
8
BLACK
6
CONTINUOUS
10
0.734438
20
0.217404
11
0.729899
21
0.217404
0
LINE
8
BLACK
6
CONTINUOUS
10
0.729899
20
0.217404
11
0.72882
21
0.216865
0
LINE
8
BLACK
6
CONTINUOUS
10
0.755492
20
0.227717
11
0.756884
21
0.22714
0
LINE
8
BLACK
6
CONTINUOUS
10
0.756884
20
0.22714
11
0.757461
21
0.225748
0
LINE
8
BLACK
6
CONTINUOUS
10
0.757461
20
0.225748
11
0.757461
21
0.194252
0
LINE
8
BLACK
6
CONTINUOUS
10
0.757461
20
0.194252
11
0.756884
21
0.19286
0
LINE
8
BLACK
6
CONTINUOUS
10
0.756884
20
0.19286
11
0.755492
21
0.192283
0
LINE
8
BLACK
6
CONTINUOUS
10
0.755492
20
0.192283
11
0.6925
21
0.192283
0
LINE
8
BLACK
6
CONTINUOUS
10
0.6925
20
0.192283
11
0.691108
21
0.19286
0
LINE
8
BLACK
6
CONTINUOUS
10
0.691108
20
0.19286
11
0.690531
21
0.194252
0
LINE
8
BLACK
6
CONTINUOUS
10
0.690531
20
0.194252
11
0.690531
21
0.225748
0
LINE
8
BLACK
6
CONTINUOUS
10
0.690531
20
0.225748
11
0.691108
21
0.22714
0
LINE
8
BLACK
6
CONTINUOUS
10
0.691108
20
0.22714
11
0.6925
21
0.227717
0
LINE
8
BLACK
6
CONTINUOUS
10
0.6925
20
0.227717
11
0.755492
21
0.227717
0
LINE
8
BLACK
6
CONTINUOUS
10
0.694469
20
0.22378
11
0.694469
21
0.19622
0
LINE
8
BLACK
6
CONTINUOUS
10
0.694469
20
0.19622
11
0.753524
21
0.19622
0
LINE
8
BLACK
6
CONTINUOUS
10
0.753524
20
0.19622
11
0.753524
21
0.22378
0
LINE
8
BLACK
6
CONTINUOUS
10
0.753524
20
0.22378
11
0.694469
21
0.22378
0
LINE
8
BLACK
6
CONTINUOUS
10
0.352294
20
0.251776
11
0.352727
21
0.250732
0
LINE
8
BLACK
6
CONTINUOUS
10
0.352727
20
0.250732
11
0.352294
21
0.249688
0
LINE
8
BLACK
6
CONTINUOUS
10
0.352294
20
0.249688
11
0.35125
21
0.249256
0
LINE
8
BLACK
6
CONTINUOUS
10
0.35125
20
0.249256
11
0.342318
21
0.249256
0
LINE
8
BLACK
6
CONTINUOUS
10
0.342318
20
0.249256
11
0.346737
21
0.244205
0
LINE
8
BLACK
6
CONTINUOUS
10
0.346737
20
0.244205
11
0.346904
21
0.243713
0
LINE
8
BLACK
6
CONTINUOUS
10
0.346904
20
0.243713
11
0.347103
21
0.243233
0
LINE
8
BLACK
6
CONTINUOUS
10
0.347103
20
0.243233
11
0.347082
21
0.243184
0
LINE
8
BLACK
6
CONTINUOUS
10
0.347082
20
0.243184
11
0.347099
21
0.243135
0
LINE
8
BLACK
6
CONTINUOUS
10
0.347099
20
0.243135
11
0.346869
21
0.242669
0
LINE
8
BLACK
6
CONTINUOUS
10
0.346869
20
0.242669
11
0.34667
21
0.242189
0
LINE
8
BLACK
6
CONTINUOUS
10
0.34667
20
0.242189
11
0.346622
21
0.242169
0
LINE
8
BLACK
6
CONTINUOUS
10
0.346622
20
0.242169
11
0.346598
21
0.242122
0
LINE
8
BLACK
6
CONTINUOUS
10
0.346598
20
0.242122
11
0.346106
21
0.241955
0
LINE
8
BLACK
6
CONTINUOUS
10
0.346106
20
0.241955
11
0.345626
21
0.241756
0
LINE
8
BLACK
6
CONTINUOUS
10
0.345626
20
0.241756
11
0.343163
21
0.241756
0
LINE
8
BLACK
6
CONTINUOUS
10
0.343163
20
0.241756
11
0.341814
21
0.241082
0
LINE
8
BLACK
6
CONTINUOUS
10
0.341814
20
0.241082
11
0.341215
21
0.240484
0
LINE
8
BLACK
6
CONTINUOUS
10
0.341215
20
0.240484
11
0.340541
21
0.239135
0
LINE
8
BLACK
6
CONTINUOUS
10
0.340541
20
0.239135
11
0.340541
21
0.235145
0
LINE
8
BLACK
6
CONTINUOUS
10
0.340541
20
0.235145
11
0.341215
21
0.233796
0
LINE
8
BLACK
6
CONTINUOUS
10
0.341215
20
0.233796
11
0.341814
21
0.233198
0
LINE
8
BLACK
6
CONTINUOUS
10
0.341814
20
0.233198
11
0.343162
21
0.232523
0
LINE
8
BLACK
6
CONTINUOUS
10
0.343162
20
0.232523
11
0.34809
21
0.232523
0
LINE
8
BLACK
6
CONTINUOUS
10
0.34809
20
0.232523
11
0.349438
21
0.233198
0
LINE
8
BLACK
6
CONTINUOUS
10
0.349438
20
0.233198
11
0.350206
21
0.233966
0
LINE
8
BLACK
6
CONTINUOUS
10
0.350206
20
0.233966
11
0.35125
21
0.234398
0
LINE
8
BLACK
6
CONTINUOUS
10
0.35125
20
0.234398
11
0.352294
21
0.233966
0
LINE
8
BLACK
6
CONTINUOUS
10
0.352294
20
0.233966
11
0.352727
21
0.232922
0
LINE
8
BLACK
6
CONTINUOUS
10
0.352727
20
0.232922
11
0.352294
21
0.231878
0
LINE
8
BLACK
6
CONTINUOUS
10
0.352294
20
0.231878
11
0.351357
21
0.23094
0
LINE
8
BLACK
6
CONTINUOUS
10
0.351357
20
0.23094
11
0.351132
21
0.230847
0
LINE
8
BLACK
6
CONTINUOUS
10
0.351132
20
0.230847
11
0.350973
21
0.230664
0
LINE
8
BLACK
6
CONTINUOUS
10
0.350973
20
0.230664
11
0.349099
21
0.229726
0
LINE
8
BLACK
6
CONTINUOUS
10
0.349099
20
0.229726
11
0.348756
21
0.229702
0
LINE
8
BLACK
6
CONTINUOUS
10
0.348756
20
0.229702
11
0.348438
21
0.229571
0
LINE
8
BLACK
6
CONTINUOUS
10
0.348438
20
0.229571
11
0.342814
21
0.229571
0
LINE
8
BLACK
6
CONTINUOUS
10
0.342814
20
0.229571
11
0.342496
21
0.229702
0
LINE
8
BLACK
6
CONTINUOUS
10
0.342496
20
0.229702
11
0.342154
21
0.229726
0
LINE
8
BLACK
6
CONTINUOUS
10
0.342154
20
0.229726
11
0.340279
21
0.230664
0
LINE
8
BLACK
6
CONTINUOUS
10
0.340279
20
0.230664
11
0.34012
21
0.230847
0
LINE
8
BLACK
6
CONTINUOUS
10
0.34012
20
0.230847
11
0.339895
21
0.23094
0
LINE
8
BLACK
6
CONTINUOUS
10
0.339895
20
0.23094
11
0.338958
21
0.231878
0
LINE
8
BLACK
6
CONTINUOUS
10
0.338958
20
0.231878
11
0.338865
21
0.232102
0
LINE
8
BLACK
6
CONTINUOUS
10
0.338865
20
0.232102
11
0.338681
21
0.232261
0
LINE
8
BLACK
6
CONTINUOUS
10
0.338681
20
0.232261
11
0.337744
21
0.234136
0
LINE
8
BLACK
6
CONTINUOUS
10
0.337744
20
0.234136
11
0.33772
21
0.234479
0
LINE
8
BLACK
6
CONTINUOUS
10
0.33772
20
0.234479
11
0.337588
21
0.234796
0
LINE
8
BLACK
6
CONTINUOUS
10
0.337588
20
0.234796
11
0.337588
21
0.239483
0
LINE
8
BLACK
6
CONTINUOUS
10
0.337588
20
0.239483
11
0.33772
21
0.239801
0
LINE
8
BLACK
6
CONTINUOUS
10
0.33772
20
0.239801
11
0.337744
21
0.240144
0
LINE
8
BLACK
6
CONTINUOUS
10
0.337744
20
0.240144
11
0.338681
21
0.242018
0
LINE
8
BLACK
6
CONTINUOUS
10
0.338681
20
0.242018
11
0.338865
21
0.242178
0
LINE
8
BLACK
6
CONTINUOUS
10
0.338865
20
0.242178
11
0.338958
21
0.242402
0
LINE
8
BLACK
6
CONTINUOUS
10
0.338958
20
0.242402
11
0.339895
21
0.243339
0
LINE
8
BLACK
6
CONTINUOUS
10
0.339895
20
0.243339
11
0.34012
21
0.243432
0
LINE
8
BLACK
6
CONTINUOUS
10
0.34012
20
0.243432
11
0.340279
21
0.243616
0
LINE
8
BLACK
6
CONTINUOUS
10
0.340279
20
0.243616
11
0.342154
21
0.244553
0
LINE
8
BLACK
6
CONTINUOUS
10
0.342154
20
0.244553
11
0.342488
21
0.244577
0
LINE
8
BLACK
6
CONTINUOUS
10
0.342488
20
0.244577
11
0.337953
21
0.24976
0
LINE
8
BLACK
6
CONTINUOUS
10
0.337953
20
0.24976
11
0.337787
21
0.250252
0
LINE
8
BLACK
6
CONTINUOUS
10
0.337787
20
0.250252
11
0.337588
21
0.250732
0
LINE
8
BLACK
6
CONTINUOUS
10
0.337588
20
0.250732
11
0.337608
21
0.25078
0
LINE
8
BLACK
6
CONTINUOUS
10
0.337608
20
0.25078
11
0.337591
21
0.25083
0
LINE
8
BLACK
6
CONTINUOUS
10
0.337591
20
0.25083
11
0.337822
21
0.251296
0
LINE
8
BLACK
6
CONTINUOUS
10
0.337822
20
0.251296
11
0.33802
21
0.251776
0
LINE
8
BLACK
6
CONTINUOUS
10
0.33802
20
0.251776
11
0.338069
21
0.251796
0
LINE
8
BLACK
6
CONTINUOUS
10
0.338069
20
0.251796
11
0.338092
21
0.251843
0
LINE
8
BLACK
6
CONTINUOUS
10
0.338092
20
0.251843
11
0.338585
21
0.25201
0
LINE
8
BLACK
6
CONTINUOUS
10
0.338585
20
0.25201
11
0.339064
21
0.252208
0
LINE
8
BLACK
6
CONTINUOUS
10
0.339064
20
0.252208
11
0.35125
21
0.252208
0
LINE
8
BLACK
6
CONTINUOUS
10
0.35125
20
0.252208
11
0.352294
21
0.251776
0
LINE
8
BLACK
6
CONTINUOUS
10
0.371042
20
0.251776
11
0.371474
21
0.250732
0
LINE
8
BLACK
6
CONTINUOUS
10
0.371474
20
0.250732
11
0.371474
21
0.234796
0
LINE
8
BLACK
6
CONTINUOUS
10
0.371474
20
0.234796
11
0.371343
21
0.234479
0
LINE
8
BLACK
6
CONTINUOUS
10
0.371343
20
0.234479
11
0.371319
21
0.234136
0
LINE
8
BLACK
6
CONTINUOUS
10
0.371319
20
0.234136
11
0.370381
21
0.232261
0
LINE
8
BLACK
6
CONTINUOUS
10
0.370381
20
0.232261
11
0.370198
21
0.232102
0
LINE
8
BLACK
6
CONTINUOUS
10
0.370198
20
0.232102
11
0.370105
21
0.231878
0
LINE
8
BLACK
6
CONTINUOUS
10
0.370105
20
0.231878
11
0.369167
21
0.23094
0
LINE
8
BLACK
6
CONTINUOUS
10
0.369167
20
0.23094
11
0.368943
21
0.230847
0
LINE
8
BLACK
6
CONTINUOUS
10
0.368943
20
0.230847
11
0.368784
21
0.230664
0
LINE
8
BLACK
6
CONTINUOUS
10
0.368784
20
0.230664
11
0.366909
21
0.229726
0
LINE
8
BLACK
6
CONTINUOUS
10
0.366909
20
0.229726
11
0.366566
21
0.229702
0
LINE
8
BLACK
6
CONTINUOUS
10
0.366566
20
0.229702
11
0.366249
21
0.229571
0
LINE
8
BLACK
6
CONTINUOUS
10
0.366249
20
0.229571
11
0.362499
21
0.229571
0
LINE
8
BLACK
6
CONTINUOUS
10
0.362499
20
0.229571
11
0.362182
21
0.229702
0
LINE
8
BLACK
6
CONTINUOUS
10
0.362182
20
0.229702
11
0.361839
21
0.229726
0
LINE
8
BLACK
6
CONTINUOUS
10
0.361839
20
0.229726
11
0.359964
21
0.230664
0
LINE
8
BLACK
6
CONTINUOUS
10
0.359964
20
0.230664
11
0.359805
21
0.230847
0
LINE
8
BLACK
6
CONTINUOUS
10
0.359805
20
0.230847
11
0.35958
21
0.23094
0
LINE
8
BLACK
6
CONTINUOUS
10
0.35958
20
0.23094
11
0.358643
21
0.231878
0
LINE
8
BLACK
6
CONTINUOUS
10
0.358643
20
0.231878
11
0.35855
21
0.232102
0
LINE
8
BLACK
6
CONTINUOUS
10
0.35855
20
0.232102
11
0.358366
21
0.232261
0
LINE
8
BLACK
6
CONTINUOUS
10
0.358366
20
0.232261
11
0.357429
21
0.234136
0
LINE
8
BLACK
6
CONTINUOUS
10
0.357429
20
0.234136
11
0.357405
21
0.234479
0
LINE
8
BLACK
6
CONTINUOUS
10
0.357405
20
0.234479
11
0.357273
21
0.234796
0
LINE
8
BLACK
6
CONTINUOUS
10
0.357273
20
0.234796
11
0.357273
21
0.250732
0
LINE
8
BLACK
6
CONTINUOUS
10
0.357273
20
0.250732
11
0.357706
21
0.251776
0
LINE
8
BLACK
6
CONTINUOUS
10
0.357706
20
0.251776
11
0.35875
21
0.252208
0
LINE
8
BLACK
6
CONTINUOUS
10
0.35875
20
0.252208
11
0.359794
21
0.251776
0
LINE
8
BLACK
6
CONTINUOUS
10
0.359794
20
0.251776
11
0.360226
21
0.250732
0
LINE
8
BLACK
6
CONTINUOUS
10
0.360226
20
0.250732
11
0.360226
21
0.235145
0
LINE
8
BLACK
6
CONTINUOUS
10
0.360226
20
0.235145
11
0.3609
21
0.233796
0
LINE
8
BLACK
6
CONTINUOUS
10
0.3609
20
0.233796
11
0.361499
21
0.233198
0
LINE
8
BLACK
6
CONTINUOUS
10
0.361499
20
0.233198
11
0.362848
21
0.232523
0
LINE
8
BLACK
6
CONTINUOUS
10
0.362848
20
0.232523
11
0.3659
21
0.232523
0
LINE
8
BLACK
6
CONTINUOUS
10
0.3659
20
0.232523
11
0.367249
21
0.233198
0
LINE
8
BLACK
6
CONTINUOUS
10
0.367249
20
0.233198
11
0.367847
21
0.233796
0
LINE
8
BLACK
6
CONTINUOUS
10
0.367847
20
0.233796
11
0.368522
21
0.235145
0
LINE
8
BLACK
6
CONTINUOUS
10
0.368522
20
0.235145
11
0.368522
21
0.250732
0
LINE
8
BLACK
6
CONTINUOUS
10
0.368522
20
0.250732
11
0.368954
21
0.251776
0
LINE
8
BLACK
6
CONTINUOUS
10
0.368954
20
0.251776
11
0.369998
21
0.252208
0
LINE
8
BLACK
6
CONTINUOUS
10
0.369998
20
0.252208
11
0.371042
21
0.251776
0
LINE
8
BLACK
6
CONTINUOUS
10
0.416024
20
0.277402
11
0.417416
21
0.276825
0
LINE
8
BLACK
6
CONTINUOUS
10
0.417416
20
0.276825
11
0.417992
21
0.275433
0
LINE
8
BLACK
6
CONTINUOUS
10
0.417992
20
0.275433
11
0.417992
21
0.230157
0
LINE
8
BLACK
6
CONTINUOUS
10
0.417992
20
0.230157
11
0.417416
21
0.228766
0
LINE
8
BLACK
6
CONTINUOUS
10
0.417416
20
0.228766
11
0.391825
21
0.203175
0
LINE
8
BLACK
6
CONTINUOUS
10
0.391825
20
0.203175
11
0.390433
21
0.202598
0
LINE
8
BLACK
6
CONTINUOUS
10
0.390433
20
0.202598
11
0.293976
21
0.202598
0
LINE
8
BLACK
6
CONTINUOUS
10
0.293976
20
0.202598
11
0.292584
21
0.203175
0
LINE
8
BLACK
6
CONTINUOUS
10
0.292584
20
0.203175
11
0.292008
21
0.204567
0
LINE
8
BLACK
6
CONTINUOUS
10
0.292008
20
0.204567
11
0.292008
21
0.275433
0
LINE
8
BLACK
6
CONTINUOUS
10
0.292008
20
0.275433
11
0.292584
21
0.276825
0
LINE
8
BLACK
6
CONTINUOUS
10
0.292584
20
0.276825
11
0.293976
21
0.277402
0
LINE
8
BLACK
6
CONTINUOUS
10
0.293976
20
0.277402
11
0.416024
21
0.277402
0
LINE
8
BLACK
6
CONTINUOUS
10
0.295945
20
0.273465
11
0.295945
21
0.206535
0
LINE
8
BLACK
6
CONTINUOUS
10
0.295945
20
0.206535
11
0.389618
21
0.206535
0
LINE
8
BLACK
6
CONTINUOUS
10
0.389618
20
0.206535
11
0.414055
21
0.230973
0
LINE
8
BLACK
6
CONTINUOUS
10
0.414055
20
0.230973
11
0.414055
21
0.273465
0
LINE
8
BLACK
6
CONTINUOUS
10
0.414055
20
0.273465
11
0.295945
21
0.273465
0
LINE
8
BLACK
6
CONTINUOUS
10
1.03949
20
0.292361
11
1.03984
21
0.291526
0
LINE
8
BLACK
6
CONTINUOUS
10
1.03984
20
0.291526
11
1.03984
21
0.282527
0
LINE
8
BLACK
6
CONTINUOUS
10
1.03984
20
0.282527
11
1.03949
21
0.281692
0
LINE
8
BLACK
6
CONTINUOUS
10
1.03949
20
0.281692
11
1.03866
21
0.281346
0
LINE
8
BLACK
6
CONTINUOUS
10
1.03866
20
0.281346
11
1.03782
21
0.281692
0
LINE
8
BLACK
6
CONTINUOUS
10
1.03782
20
0.281692
11
1.03748
21
0.282527
0
LINE
8
BLACK
6
CONTINUOUS
10
1.03748
20
0.282527
11
1.03748
21
0.285846
0
LINE
8
BLACK
6
CONTINUOUS
10
1.03748
20
0.285846
11
1.02291
21
0.285846
0
LINE
8
BLACK
6
CONTINUOUS
10
1.02291
20
0.285846
11
1.0228
21
0.285892
0
LINE
8
BLACK
6
CONTINUOUS
10
1.0228
20
0.285892
11
1.02268
21
0.285868
0
LINE
8
BLACK
6
CONTINUOUS
10
1.02268
20
0.285868
11
1.02239
21
0.28606
0
LINE
8
BLACK
6
CONTINUOUS
10
1.02239
20
0.28606
11
1.02208
21
0.286191
0
LINE
8
BLACK
6
CONTINUOUS
10
1.02208
20
0.286191
11
1.02203
21
0.286304
0
LINE
8
BLACK
6
CONTINUOUS
10
1.02203
20
0.286304
11
1.02193
21
0.286371
0
LINE
8
BLACK
6
CONTINUOUS
10
1.02193
20
0.286371
11
1.02186
21
0.286709
0
LINE
8
BLACK
6
CONTINUOUS
10
1.02186
20
0.286709
11
1.02173
21
0.287027
0
LINE
8
BLACK
6
CONTINUOUS
10
1.02173
20
0.287027
11
1.02178
21
0.287139
0
LINE
8
BLACK
6
CONTINUOUS
10
1.02178
20
0.287139
11
1.02175
21
0.287258
0
LINE
8
BLACK
6
CONTINUOUS
10
1.02175
20
0.287258
11
1.02194
21
0.287544
0
LINE
8
BLACK
6
CONTINUOUS
10
1.02194
20
0.287544
11
1.02208
21
0.287862
0
LINE
8
BLACK
6
CONTINUOUS
10
1.02208
20
0.287862
11
1.02219
21
0.287908
0
LINE
8
BLACK
6
CONTINUOUS
10
1.02219
20
0.287908
11
1.02226
21
0.288009
0
LINE
8
BLACK
6
CONTINUOUS
10
1.02226
20
0.288009
11
1.02441
21
0.289444
0
LINE
8
BLACK
6
CONTINUOUS
10
1.02441
20
0.289444
11
1.02569
21
0.290726
0
LINE
8
BLACK
6
CONTINUOUS
10
1.02569
20
0.290726
11
1.02635
21
0.292054
0
LINE
8
BLACK
6
CONTINUOUS
10
1.02635
20
0.292054
11
1.02704
21
0.292647
0
LINE
8
BLACK
6
CONTINUOUS
10
1.02704
20
0.292647
11
1.02794
21
0.292582
0
LINE
8
BLACK
6
CONTINUOUS
10
1.02794
20
0.292582
11
1.02853
21
0.2919
0
LINE
8
BLACK
6
CONTINUOUS
10
1.02853
20
0.2919
11
1.02847
21
0.290998
0
LINE
8
BLACK
6
CONTINUOUS
10
1.02847
20
0.290998
11
1.02772
21
0.289498
0
LINE
8
BLACK
6
CONTINUOUS
10
1.02772
20
0.289498
11
1.02757
21
0.289371
0
LINE
8
BLACK
6
CONTINUOUS
10
1.02757
20
0.289371
11
1.0275
21
0.289191
0
LINE
8
BLACK
6
CONTINUOUS
10
1.0275
20
0.289191
11
1.02651
21
0.288208
0
LINE
8
BLACK
6
CONTINUOUS
10
1.02651
20
0.288208
11
1.03748
21
0.288208
0
LINE
8
BLACK
6
CONTINUOUS
10
1.03748
20
0.288208
11
1.03748
21
0.291526
0
LINE
8
BLACK
6
CONTINUOUS
10
1.03748
20
0.291526
11
1.03782
21
0.292361
0
LINE
8
BLACK
6
CONTINUOUS
10
1.03782
20
0.292361
11
1.03866
21
0.292707
0
LINE
8
BLACK
6
CONTINUOUS
10
1.03866
20
0.292707
11
1.03949
21
0.292361
0
LINE
8
BLACK
6
CONTINUOUS
10
1.03591
20
0.30835
11
1.03619
21
0.308331
0
LINE
8
BLACK
6
CONTINUOUS
10
1.03619
20
0.308331
11
1.03769
21
0.307581
0
LINE
8
BLACK
6
CONTINUOUS
10
1.03769
20
0.307581
11
1.03781
21
0.307434
0
LINE
8
BLACK
6
CONTINUOUS
10
1.03781
20
0.307434
11
1.03799
21
0.307359
0
LINE
8
BLACK
6
CONTINUOUS
10
1.03799
20
0.307359
11
1.03874
21
0.306609
0
LINE
8
BLACK
6
CONTINUOUS
10
1.03874
20
0.306609
11
1.03882
21
0.30643
0
LINE
8
BLACK
6
CONTINUOUS
10
1.03882
20
0.30643
11
1.03897
21
0.306302
0
LINE
8
BLACK
6
CONTINUOUS
10
1.03897
20
0.306302
11
1.03971
21
0.304803
0
LINE
8
BLACK
6
CONTINUOUS
10
1.03971
20
0.304803
11
1.03973
21
0.304529
0
LINE
8
BLACK
6
CONTINUOUS
10
1.03973
20
0.304529
11
1.03984
21
0.304274
0
LINE
8
BLACK
6
CONTINUOUS
10
1.03984
20
0.304274
11
1.03984
21
0.301275
0
LINE
8
BLACK
6
CONTINUOUS
10
1.03984
20
0.301275
11
1.03973
21
0.301021
0
LINE
8
BLACK
6
CONTINUOUS
10
1.03973
20
0.301021
11
1.03971
21
0.300747
0
LINE
8
BLACK
6
CONTINUOUS
10
1.03971
20
0.300747
11
1.03897
21
0.299247
0
LINE
8
BLACK
6
CONTINUOUS
10
1.03897
20
0.299247
11
1.03882
21
0.299119
0
LINE
8
BLACK
6
CONTINUOUS
10
1.03882
20
0.299119
11
1.03874
21
0.29894
0
LINE
8
BLACK
6
CONTINUOUS
10
1.03874
20
0.29894
11
1.03799
21
0.29819
0
LINE
8
BLACK
6
CONTINUOUS
10
1.03799
20
0.29819
11
1.03781
21
0.298116
0
LINE
8
BLACK
6
CONTINUOUS
10
1.03781
20
0.298116
11
1.03769
21
0.297969
0
LINE
8
BLACK
6
CONTINUOUS
10
1.03769
20
0.297969
11
1.03619
21
0.297219
0
LINE
8
BLACK
6
CONTINUOUS
10
1.03619
20
0.297219
11
1.03591
21
0.297199
0
LINE
8
BLACK
6
CONTINUOUS
10
1.03591
20
0.297199
11
1.03566
21
0.297094
0
LINE
8
BLACK
6
CONTINUOUS
10
1.03566
20
0.297094
11
1.02291
21
0.297094
0
LINE
8
BLACK
6
CONTINUOUS
10
1.02291
20
0.297094
11
1.02208
21
0.29744
0
LINE
8
BLACK
6
CONTINUOUS
10
1.02208
20
0.29744
11
1.02173
21
0.298275
0
LINE
8
BLACK
6
CONTINUOUS
10
1.02173
20
0.298275
11
1.02208
21
0.29911
0
LINE
8
BLACK
6
CONTINUOUS
10
1.02208
20
0.29911
11
1.02291
21
0.299456
0
LINE
8
BLACK
6
CONTINUOUS
10
1.02291
20
0.299456
11
1.03538
21
0.299456
0
LINE
8
BLACK
6
CONTINUOUS
10
1.03538
20
0.299456
11
1.03646
21
0.299996
0
LINE
8
BLACK
6
CONTINUOUS
10
1.03646
20
0.299996
11
1.03694
21
0.300475
0
LINE
8
BLACK
6
CONTINUOUS
10
1.03694
20
0.300475
11
1.03748
21
0.301554
0
LINE
8
BLACK
6
CONTINUOUS
10
1.03748
20
0.301554
11
1.03748
21
0.303996
0
LINE
8
BLACK
6
CONTINUOUS
10
1.03748
20
0.303996
11
1.03694
21
0.305075
0
LINE
8
BLACK
6
CONTINUOUS
10
1.03694
20
0.305075
11
1.03646
21
0.305554
0
LINE
8
BLACK
6
CONTINUOUS
10
1.03646
20
0.305554
11
1.03538
21
0.306093
0
LINE
8
BLACK
6
CONTINUOUS
10
1.03538
20
0.306093
11
1.02291
21
0.306093
0
LINE
8
BLACK
6
CONTINUOUS
10
1.02291
20
0.306093
11
1.02208
21
0.306439
0
LINE
8
BLACK
6
CONTINUOUS
10
1.02208
20
0.306439
11
1.02173
21
0.307274
0
LINE
8
BLACK
6
CONTINUOUS
10
1.02173
20
0.307274
11
1.02208
21
0.308109
0
LINE
8
BLACK
6
CONTINUOUS
10
1.02208
20
0.308109
11
1.02291
21
0.308455
0
LINE
8
BLACK
6
CONTINUOUS
10
1.02291
20
0.308455
11
1.03566
21
0.308455
0
LINE
8
BLACK
6
CONTINUOUS
10
1.03566
20
0.308455
11
1.03591
21
0.30835
0
LINE
8
BLACK
6
CONTINUOUS
10
1.08071
20
0.346457
11
1.0821
21
0.34588
0
LINE
8
BLACK
6
CONTINUOUS
10
1.0821
20
0.34588
11
1.08268
21
0.344488
0
LINE
8
BLACK
6
CONTINUOUS
10
1.08268
20
0.344488
11
1.08268
21
0.265748
0
LINE
8
BLACK
6
CONTINUOUS
10
1.08268
20
0.265748
11
1.0821
21
0.264356
0
LINE
8
BLACK
6
CONTINUOUS
10
1.0821
20
0.264356
11
1.06242
21
0.244671
0
LINE
8
BLACK
6
CONTINUOUS
10
1.06242
20
0.244671
11
1.06102
21
0.244094
0
LINE
8
BLACK
6
CONTINUOUS
10
1.06102
20
0.244094
11
0.982283
21
0.244094
0
LINE
8
BLACK
6
CONTINUOUS
10
0.982283
20
0.244094
11
0.980892
21
0.244671
0
LINE
8
BLACK
6
CONTINUOUS
10
0.980892
20
0.244671
11
0.980315
21
0.246063
0
LINE
8
BLACK
6
CONTINUOUS
10
0.980315
20
0.246063
11
0.980315
21
0.344488
0
LINE
8
BLACK
6
CONTINUOUS
10
0.980315
20
0.344488
11
0.980892
21
0.34588
0
LINE
8
BLACK
6
CONTINUOUS
10
0.980892
20
0.34588
11
0.982283
21
0.346457
0
LINE
8
BLACK
6
CONTINUOUS
10
0.982283
20
0.346457
11
1.08071
21
0.346457
0
LINE
8
BLACK
6
CONTINUOUS
10
0.984252
20
0.34252
11
0.984252
21
0.248031
0
LINE
8
BLACK
6
CONTINUOUS
10
0.984252
20
0.248031
11
1.06021
21
0.248031
0
LINE
8
BLACK
6
CONTINUOUS
10
1.06021
20
0.248031
11
1.07874
21
0.266563
0
LINE
8
BLACK
6
CONTINUOUS
10
1.07874
20
0.266563
11
1.07874
21
0.34252
0
LINE
8
BLACK
6
CONTINUOUS
10
1.07874
20
0.34252
11
0.984252
21
0.34252
0
LINE
8
BLACK
6
CONTINUOUS
10
0.351544
20
0.313935
11
0.352657
21
0.31225
0
LINE
8
BLACK
6
CONTINUOUS
10
0.352657
20
0.31225
11
0.352426
21
0.310243
0
LINE
8
BLACK
6
CONTINUOUS
10
0.352426
20
0.310243
11
0.350551
21
0.306494
0
LINE
8
BLACK
6
CONTINUOUS
10
0.350551
20
0.306494
11
0.350025
21
0.305784
0
LINE
8
BLACK
6
CONTINUOUS
10
0.350025
20
0.305784
11
0.349998
21
0.305726
0
LINE
8
BLACK
6
CONTINUOUS
10
0.349998
20
0.305726
11
0.34754
21
0.303268
0
LINE
8
BLACK
6
CONTINUOUS
10
0.34754
20
0.303268
11
0.374954
21
0.303268
0
LINE
8
BLACK
6
CONTINUOUS
10
0.374954
20
0.303268
11
0.374954
21
0.311564
0
LINE
8
BLACK
6
CONTINUOUS
10
0.374954
20
0.311564
11
0.375132
21
0.312573
0
LINE
8
BLACK
6
CONTINUOUS
10
0.375132
20
0.312573
11
0.37643
21
0.314121
0
LINE
8
BLACK
6
CONTINUOUS
10
0.37643
20
0.314121
11
0.378419
21
0.314471
0
LINE
8
BLACK
6
CONTINUOUS
10
0.378419
20
0.314471
11
0.380168
21
0.313462
0
LINE
8
BLACK
6
CONTINUOUS
10
0.380168
20
0.313462
11
0.380859
21
0.311564
0
LINE
8
BLACK
6
CONTINUOUS
10
0.380859
20
0.311564
11
0.380859
21
0.289066
0
LINE
8
BLACK
6
CONTINUOUS
10
0.380859
20
0.289066
11
0.380681
21
0.288056
0
LINE
8
BLACK
6
CONTINUOUS
10
0.380681
20
0.288056
11
0.379383
21
0.286509
0
LINE
8
BLACK
6
CONTINUOUS
10
0.379383
20
0.286509
11
0.377394
21
0.286158
0
LINE
8
BLACK
6
CONTINUOUS
10
0.377394
20
0.286158
11
0.375644
21
0.287168
0
LINE
8
BLACK
6
CONTINUOUS
10
0.375644
20
0.287168
11
0.374954
21
0.289066
0
LINE
8
BLACK
6
CONTINUOUS
10
0.374954
20
0.289066
11
0.374954
21
0.297362
0
LINE
8
BLACK
6
CONTINUOUS
10
0.374954
20
0.297362
11
0.338536
21
0.297362
0
LINE
8
BLACK
6
CONTINUOUS
10
0.338536
20
0.297362
11
0.337526
21
0.29754
0
LINE
8
BLACK
6
CONTINUOUS
10
0.337526
20
0.29754
11
0.337396
21
0.297649
0
LINE
8
BLACK
6
CONTINUOUS
10
0.337396
20
0.297649
11
0.337227
21
0.297668
0
LINE
8
BLACK
6
CONTINUOUS
10
0.337227
20
0.297668
11
0.336636
21
0.298288
0
LINE
8
BLACK
6
CONTINUOUS
10
0.336636
20
0.298288
11
0.335979
21
0.298839
0
LINE
8
BLACK
6
CONTINUOUS
10
0.335979
20
0.298839
11
0.33595
21
0.299006
0
LINE
8
BLACK
6
CONTINUOUS
10
0.33595
20
0.299006
11
0.335832
21
0.299129
0
LINE
8
BLACK
6
CONTINUOUS
10
0.335832
20
0.299129
11
0.335777
21
0.299984
0
LINE
8
BLACK
6
CONTINUOUS
10
0.335777
20
0.299984
11
0.335628
21
0.300828
0
LINE
8
BLACK
6
CONTINUOUS
10
0.335628
20
0.300828
11
0.335713
21
0.300975
0
LINE
8
BLACK
6
CONTINUOUS
10
0.335713
20
0.300975
11
0.335702
21
0.301144
0
LINE
8
BLACK
6
CONTINUOUS
10
0.335702
20
0.301144
11
0.33621
21
0.301835
0
LINE
8
BLACK
6
CONTINUOUS
10
0.33621
20
0.301835
11
0.336638
21
0.302577
0
LINE
8
BLACK
6
CONTINUOUS
10
0.336638
20
0.302577
11
0.336798
21
0.302635
0
LINE
8
BLACK
6
CONTINUOUS
10
0.336798
20
0.302635
11
0.336898
21
0.302772
0
LINE
8
BLACK
6
CONTINUOUS
10
0.336898
20
0.302772
11
0.342279
21
0.306359
0
LINE
8
BLACK
6
CONTINUOUS
10
0.342279
20
0.306359
11
0.345483
21
0.309563
0
LINE
8
BLACK
6
CONTINUOUS
10
0.345483
20
0.309563
11
0.347144
21
0.312884
0
LINE
8
BLACK
6
CONTINUOUS
10
0.347144
20
0.312884
11
0.347755
21
0.313708
0
LINE
8
BLACK
6
CONTINUOUS
10
0.347755
20
0.313708
11
0.349608
21
0.314511
0
LINE
8
BLACK
6
CONTINUOUS
10
0.349608
20
0.314511
11
0.351544
21
0.313935
0
LINE
8
BLACK
6
CONTINUOUS
10
0.37829
20
0.351944
11
0.378419
21
0.351967
0
LINE
8
BLACK
6
CONTINUOUS
10
0.378419
20
0.351967
11
0.378533
21
0.351901
0
LINE
8
BLACK
6
CONTINUOUS
10
0.378533
20
0.351901
11
0.378916
21
0.351834
0
LINE
8
BLACK
6
CONTINUOUS
10
0.378916
20
0.351834
11
0.379504
21
0.35134
0
LINE
8
BLACK
6
CONTINUOUS
10
0.379504
20
0.35134
11
0.380168
21
0.350957
0
LINE
8
BLACK
6
CONTINUOUS
10
0.380168
20
0.350957
11
0.380259
21
0.350707
0
LINE
8
BLACK
6
CONTINUOUS
10
0.380259
20
0.350707
11
0.380463
21
0.350535
0
LINE
8
BLACK
6
CONTINUOUS
10
0.380463
20
0.350535
11
0.380597
21
0.34978
0
LINE
8
BLACK
6
CONTINUOUS
10
0.380597
20
0.34978
11
0.380859
21
0.349059
0
LINE
8
BLACK
6
CONTINUOUS
10
0.380859
20
0.349059
11
0.380859
21
0.339685
0
LINE
8
BLACK
6
CONTINUOUS
10
0.380859
20
0.339685
11
0.380706
21
0.338816
0
LINE
8
BLACK
6
CONTINUOUS
10
0.380706
20
0.338816
11
0.380707
21
0.338751
0
LINE
8
BLACK
6
CONTINUOUS
10
0.380707
20
0.338751
11
0.378833
21
0.333127
0
LINE
8
BLACK
6
CONTINUOUS
10
0.378833
20
0.333127
11
0.378344
21
0.332225
0
LINE
8
BLACK
6
CONTINUOUS
10
0.378344
20
0.332225
11
0.378194
21
0.332133
0
LINE
8
BLACK
6
CONTINUOUS
10
0.378194
20
0.332133
11
0.378119
21
0.331973
0
LINE
8
BLACK
6
CONTINUOUS
10
0.378119
20
0.331973
11
0.37437
21
0.328223
0
LINE
8
BLACK
6
CONTINUOUS
10
0.37437
20
0.328223
11
0.373647
21
0.327717
0
LINE
8
BLACK
6
CONTINUOUS
10
0.373647
20
0.327717
11
0.373602
21
0.32767
0
LINE
8
BLACK
6
CONTINUOUS
10
0.373602
20
0.32767
11
0.369853
21
0.325795
0
LINE
8
BLACK
6
CONTINUOUS
10
0.369853
20
0.325795
11
0.369364
21
0.32565
0
LINE
8
BLACK
6
CONTINUOUS
10
0.369364
20
0.32565
11
0.369249
21
0.325572
0
LINE
8
BLACK
6
CONTINUOUS
10
0.369249
20
0.325572
11
0.361749
21
0.323697
0
LINE
8
BLACK
6
CONTINUOUS
10
0.361749
20
0.323697
11
0.361162
21
0.323656
0
LINE
8
BLACK
6
CONTINUOUS
10
0.361162
20
0.323656
11
0.361033
21
0.323609
0
LINE
8
BLACK
6
CONTINUOUS
10
0.361033
20
0.323609
11
0.355409
21
0.323609
0
LINE
8
BLACK
6
CONTINUOUS
10
0.355409
20
0.323609
11
0.354829
21
0.323711
0
LINE
8
BLACK
6
CONTINUOUS
10
0.354829
20
0.323711
11
0.354693
21
0.323697
0
LINE
8
BLACK
6
CONTINUOUS
10
0.354693
20
0.323697
11
0.347194
21
0.325572
0
LINE
8
BLACK
6
CONTINUOUS
10
0.347194
20
0.325572
11
0.346728
21
0.325779
0
LINE
8
BLACK
6
CONTINUOUS
10
0.346728
20
0.325779
11
0.346589
21
0.325795
0
LINE
8
BLACK
6
CONTINUOUS
10
0.346589
20
0.325795
11
0.34284
21
0.32767
0
LINE
8
BLACK
6
CONTINUOUS
10
0.34284
20
0.32767
11
0.342131
21
0.328196
0
LINE
8
BLACK
6
CONTINUOUS
10
0.342131
20
0.328196
11
0.342073
21
0.328223
0
LINE
8
BLACK
6
CONTINUOUS
10
0.342073
20
0.328223
11
0.338323
21
0.331973
0
LINE
8
BLACK
6
CONTINUOUS
10
0.338323
20
0.331973
11
0.337735
21
0.332813
0
LINE
8
BLACK
6
CONTINUOUS
10
0.337735
20
0.332813
11
0.337719
21
0.332989
0
LINE
8
BLACK
6
CONTINUOUS
10
0.337719
20
0.332989
11
0.33761
21
0.333127
0
LINE
8
BLACK
6
CONTINUOUS
10
0.33761
20
0.333127
11
0.335735
21
0.338751
0
LINE
8
BLACK
6
CONTINUOUS
10
0.335735
20
0.338751
11
0.335605
21
0.339624
0
LINE
8
BLACK
6
CONTINUOUS
10
0.335605
20
0.339624
11
0.335583
21
0.339685
0
LINE
8
BLACK
6
CONTINUOUS
10
0.335583
20
0.339685
11
0.335583
21
0.349059
0
LINE
8
BLACK
6
CONTINUOUS
10
0.335583
20
0.349059
11
0.335651
21
0.349442
0
LINE
8
BLACK
6
CONTINUOUS
10
0.335651
20
0.349442
11
0.335628
21
0.349572
0
LINE
8
BLACK
6
CONTINUOUS
10
0.335628
20
0.349572
11
0.335694
21
0.349685
0
LINE
8
BLACK
6
CONTINUOUS
10
0.335694
20
0.349685
11
0.335761
21
0.350069
0
LINE
8
BLACK
6
CONTINUOUS
10
0.335761
20
0.350069
11
0.336255
21
0.350656
0
LINE
8
BLACK
6
CONTINUOUS
10
0.336255
20
0.350656
11
0.336638
21
0.351321
0
LINE
8
BLACK
6
CONTINUOUS
10
0.336638
20
0.351321
11
0.336889
21
0.351412
0
LINE
8
BLACK
6
CONTINUOUS
10
0.336889
20
0.351412
11
0.33706
21
0.351616
0
LINE
8
BLACK
6
CONTINUOUS
10
0.33706
20
0.351616
11
0.337815
21
0.351749
0
LINE
8
BLACK
6
CONTINUOUS
10
0.337815
20
0.351749
11
0.338536
21
0.352012
0
LINE
8
BLACK
6
CONTINUOUS
10
0.338536
20
0.352012
11
0.377906
21
0.352012
0
LINE
8
BLACK
6
CONTINUOUS
10
0.377906
20
0.352012
11
0.37829
21
0.351944
0
LINE
8
BLACK
6
CONTINUOUS
10
0.341489
20
0.340164
11
0.342992
21
0.335656
0
LINE
8
BLACK
6
CONTINUOUS
10
0.342992
20
0.335656
11
0.34591
21
0.332738
0
LINE
8
BLACK
6
CONTINUOUS
10
0.34591
20
0.332738
11
0.348941
21
0.331222
0
LINE
8
BLACK
6
CONTINUOUS
10
0.348941
20
0.331222
11
0.355773
21
0.329514
0
LINE
8
BLACK
6
CONTINUOUS
10
0.355773
20
0.329514
11
0.36067
21
0.329514
0
LINE
8
BLACK
6
CONTINUOUS
10
0.36067
20
0.329514
11
0.367502
21
0.331222
0
LINE
8
BLACK
6
CONTINUOUS
10
0.367502
20
0.331222
11
0.370533
21
0.332738
0
LINE
8
BLACK
6
CONTINUOUS
10
0.370533
20
0.332738
11
0.373451
21
0.335656
0
LINE
8
BLACK
6
CONTINUOUS
10
0.373451
20
0.335656
11
0.374954
21
0.340164
0
LINE
8
BLACK
6
CONTINUOUS
10
0.374954
20
0.340164
11
0.374954
21
0.346106
0
LINE
8
BLACK
6
CONTINUOUS
10
0.374954
20
0.346106
11
0.341489
21
0.346106
0
LINE
8
BLACK
6
CONTINUOUS
10
0.341489
20
0.346106
11
0.341489
21
0.340164
0
LINE
8
BLACK
6
CONTINUOUS
10
0.458286
20
0.371662
11
0.458976
21
0.369764
0
LINE
8
BLACK
6
CONTINUOUS
10
0.458976
20
0.369764
11
0.458976
21
0.329764
0
LINE
8
BLACK
6
CONTINUOUS
10
0.458976
20
0.329764
11
0.458909
21
0.32938
0
LINE
8
BLACK
6
CONTINUOUS
10
0.458909
20
0.32938
11
0.458932
21
0.329251
0
LINE
8
BLACK
6
CONTINUOUS
10
0.458932
20
0.329251
11
0.458866
21
0.329137
0
LINE
8
BLACK
6
CONTINUOUS
10
0.458866
20
0.329137
11
0.458798
21
0.328754
0
LINE
8
BLACK
6
CONTINUOUS
10
0.458798
20
0.328754
11
0.458305
21
0.328166
0
LINE
8
BLACK
6
CONTINUOUS
10
0.458305
20
0.328166
11
0.457922
21
0.327502
0
LINE
8
BLACK
6
CONTINUOUS
10
0.457922
20
0.327502
11
0.457671
21
0.327411
0
LINE
8
BLACK
6
CONTINUOUS
10
0.457671
20
0.327411
11
0.4575
21
0.327207
0
LINE
8
BLACK
6
CONTINUOUS
10
0.4575
20
0.327207
11
0.456744
21
0.327073
0
LINE
8
BLACK
6
CONTINUOUS
10
0.456744
20
0.327073
11
0.456024
21
0.326811
0
LINE
8
BLACK
6
CONTINUOUS
10
0.456024
20
0.326811
11
0.396024
21
0.326811
0
LINE
8
BLACK
6
CONTINUOUS
10
0.396024
20
0.326811
11
0.39564
21
0.326879
0
LINE
8
BLACK
6
CONTINUOUS
10
0.39564
20
0.326879
11
0.395511
21
0.326856
0
LINE
8
BLACK
6
CONTINUOUS
10
0.395511
20
0.326856
11
0.395397
21
0.326921
0
LINE
8
BLACK
6
CONTINUOUS
10
0.395397
20
0.326921
11
0.395014
21
0.326989
0
LINE
8
BLACK
6
CONTINUOUS
10
0.395014
20
0.326989
11
0.394426
21
0.327482
0
LINE
8
BLACK
6
CONTINUOUS
10
0.394426
20
0.327482
11
0.393762
21
0.327866
0
LINE
8
BLACK
6
CONTINUOUS
10
0.393762
20
0.327866
11
0.393671
21
0.328116
0
LINE
8
BLACK
6
CONTINUOUS
10
0.393671
20
0.328116
11
0.393466
21
0.328287
0
LINE
8
BLACK
6
CONTINUOUS
10
0.393466
20
0.328287
11
0.393333
21
0.329043
0
LINE
8
BLACK
6
CONTINUOUS
10
0.393333
20
0.329043
11
0.393071
21
0.329764
0
LINE
8
BLACK
6
CONTINUOUS
10
0.393071
20
0.329764
11
0.393071
21
0.369764
0
LINE
8
BLACK
6
CONTINUOUS
10
0.393071
20
0.369764
11
0.393249
21
0.370774
0
LINE
8
BLACK
6
CONTINUOUS
10
0.393249
20
0.370774
11
0.394547
21
0.372321
0
LINE
8
BLACK
6
CONTINUOUS
10
0.394547
20
0.372321
11
0.396536
21
0.372672
0
LINE
8
BLACK
6
CONTINUOUS
10
0.396536
20
0.372672
11
0.398286
21
0.371662
0
LINE
8
BLACK
6
CONTINUOUS
10
0.398286
20
0.371662
11
0.398976
21
0.369764
0
LINE
8
BLACK
6
CONTINUOUS
10
0.398976
20
0.369764
11
0.398976
21
0.332717
0
LINE
8
BLACK
6
CONTINUOUS
10
0.398976
20
0.332717
11
0.453071
21
0.332717
0
LINE
8
BLACK
6
CONTINUOUS
10
0.453071
20
0.332717
11
0.453071
21
0.369764
0
LINE
8
BLACK
6
CONTINUOUS
10
0.453071
20
0.369764
11
0.453249
21
0.370774
0
LINE
8
BLACK
6
CONTINUOUS
10
0.453249
20
0.370774
11
0.454547
21
0.372321
0
LINE
8
BLACK
6
CONTINUOUS
10
0.454547
20
0.372321
11
0.456536
21
0.372672
0
LINE
8
BLACK
6
CONTINUOUS
10
0.456536
20
0.372672
11
0.458286
21
0.371662
0
LINE
8
BLACK
6
CONTINUOUS
10
0.515714
20
0.381319
11
0.51606
21
0.380484
0
LINE
8
BLACK
6
CONTINUOUS
10
0.51606
20
0.380484
11
0.51606
21
0.371485
0
LINE
8
BLACK
6
CONTINUOUS
10
0.51606
20
0.371485
11
0.515714
21
0.37065
0
LINE
8
BLACK
6
CONTINUOUS
10
0.515714
20
0.37065
11
0.514879
21
0.370304
0
LINE
8
BLACK
6
CONTINUOUS
10
0.514879
20
0.370304
11
0.514044
21
0.37065
0
LINE
8
BLACK
6
CONTINUOUS
10
0.514044
20
0.37065
11
0.513698
21
0.371485
0
LINE
8
BLACK
6
CONTINUOUS
10
0.513698
20
0.371485
11
0.513698
21
0.374803
0
LINE
8
BLACK
6
CONTINUOUS
10
0.513698
20
0.374803
11
0.499131
21
0.374803
0
LINE
8
BLACK
6
CONTINUOUS
10
0.499131
20
0.374803
11
0.499019
21
0.37485
0
LINE
8
BLACK
6
CONTINUOUS
10
0.499019
20
0.37485
11
0.498899
21
0.374826
0
LINE
8
BLACK
6
CONTINUOUS
10
0.498899
20
0.374826
11
0.498614
21
0.375017
0
LINE
8
BLACK
6
CONTINUOUS
10
0.498614
20
0.375017
11
0.498296
21
0.375149
0
LINE
8
BLACK
6
CONTINUOUS
10
0.498296
20
0.375149
11
0.498249
21
0.375261
0
LINE
8
BLACK
6
CONTINUOUS
10
0.498249
20
0.375261
11
0.498148
21
0.375329
0
LINE
8
BLACK
6
CONTINUOUS
10
0.498148
20
0.375329
11
0.498081
21
0.375666
0
LINE
8
BLACK
6
CONTINUOUS
10
0.498081
20
0.375666
11
0.49795
21
0.375984
0
LINE
8
BLACK
6
CONTINUOUS
10
0.49795
20
0.375984
11
0.497996
21
0.376097
0
LINE
8
BLACK
6
CONTINUOUS
10
0.497996
20
0.376097
11
0.497973
21
0.376216
0
LINE
8
BLACK
6
CONTINUOUS
10
0.497973
20
0.376216
11
0.498164
21
0.376502
0
LINE
8
BLACK
6
CONTINUOUS
10
0.498164
20
0.376502
11
0.498296
21
0.376819
0
LINE
8
BLACK
6
CONTINUOUS
10
0.498296
20
0.376819
11
0.498408
21
0.376866
0
LINE
8
BLACK
6
CONTINUOUS
10
0.498408
20
0.376866
11
0.498476
21
0.376967
0
LINE
8
BLACK
6
CONTINUOUS
10
0.498476
20
0.376967
11
0.500628
21
0.378402
0
LINE
8
BLACK
6
CONTINUOUS
10
0.500628
20
0.378402
11
0.50191
21
0.379684
0
LINE
8
BLACK
6
CONTINUOUS
10
0.50191
20
0.379684
11
0.502574
21
0.381012
0
LINE
8
BLACK
6
CONTINUOUS
10
0.502574
20
0.381012
11
0.503257
21
0.381604
0
LINE
8
BLACK
6
CONTINUOUS
10
0.503257
20
0.381604
11
0.504159
21
0.38154
0
LINE
8
BLACK
6
CONTINUOUS
10
0.504159
20
0.38154
11
0.504751
21
0.380857
0
LINE
8
BLACK
6
CONTINUOUS
10
0.504751
20
0.380857
11
0.504687
21
0.379956
0
LINE
8
BLACK
6
CONTINUOUS
10
0.504687
20
0.379956
11
0.503937
21
0.378456
0
LINE
8
BLACK
6
CONTINUOUS
10
0.503937
20
0.378456
11
0.50379
21
0.378328
0
LINE
8
BLACK
6
CONTINUOUS
10
0.50379
20
0.378328
11
0.503716
21
0.378149
0
LINE
8
BLACK
6
CONTINUOUS
10
0.503716
20
0.378149
11
0.502732
21
0.377165
0
LINE
8
BLACK
6
CONTINUOUS
10
0.502732
20
0.377165
11
0.513698
21
0.377165
0
LINE
8
BLACK
6
CONTINUOUS
10
0.513698
20
0.377165
11
0.513698
21
0.380484
0
LINE
8
BLACK
6
CONTINUOUS
10
0.513698
20
0.380484
11
0.514044
21
0.381319
0
LINE
8
BLACK
6
CONTINUOUS
10
0.514044
20
0.381319
11
0.514879
21
0.381665
0
LINE
8
BLACK
6
CONTINUOUS
10
0.514879
20
0.381665
11
0.515714
21
0.381319
0
LINE
8
BLACK
6
CONTINUOUS
10
0.508268
20
0.397356
11
0.508416
21
0.397378
0
LINE
8
BLACK
6
CONTINUOUS
10
0.508416
20
0.397378
11
0.511416
21
0.396628
0
LINE
8
BLACK
6
CONTINUOUS
10
0.511416
20
0.396628
11
0.511524
21
0.396548
0
LINE
8
BLACK
6
CONTINUOUS
10
0.511524
20
0.396548
11
0.511658
21
0.396538
0
LINE
8
BLACK
6
CONTINUOUS
10
0.511658
20
0.396538
11
0.513157
21
0.395788
0
LINE
8
BLACK
6
CONTINUOUS
10
0.513157
20
0.395788
11
0.513285
21
0.395641
0
LINE
8
BLACK
6
CONTINUOUS
10
0.513285
20
0.395641
11
0.513464
21
0.395567
0
LINE
8
BLACK
6
CONTINUOUS
10
0.513464
20
0.395567
11
0.514964
21
0.394067
0
LINE
8
BLACK
6
CONTINUOUS
10
0.514964
20
0.394067
11
0.515069
21
0.393813
0
LINE
8
BLACK
6
CONTINUOUS
10
0.515069
20
0.393813
11
0.51525
21
0.393606
0
LINE
8
BLACK
6
CONTINUOUS
10
0.51525
20
0.393606
11
0.516
21
0.391356
0
LINE
8
BLACK
6
CONTINUOUS
10
0.516
20
0.391356
11
0.515986
21
0.391162
0
LINE
8
BLACK
6
CONTINUOUS
10
0.515986
20
0.391162
11
0.51606
21
0.390982
0
LINE
8
BLACK
6
CONTINUOUS
10
0.51606
20
0.390982
11
0.51606
21
0.389483
0
LINE
8
BLACK
6
CONTINUOUS
10
0.51606
20
0.389483
11
0.515986
21
0.389303
0
LINE
8
BLACK
6
CONTINUOUS
10
0.515986
20
0.389303
11
0.516
21
0.389109
0
LINE
8
BLACK
6
CONTINUOUS
10
0.516
20
0.389109
11
0.51525
21
0.386859
0
LINE
8
BLACK
6
CONTINUOUS
10
0.51525
20
0.386859
11
0.515069
21
0.386652
0
LINE
8
BLACK
6
CONTINUOUS
10
0.515069
20
0.386652
11
0.514964
21
0.386398
0
LINE
8
BLACK
6
CONTINUOUS
10
0.514964
20
0.386398
11
0.514214
21
0.385648
0
LINE
8
BLACK
6
CONTINUOUS
10
0.514214
20
0.385648
11
0.513379
21
0.385302
0
LINE
8
BLACK
6
CONTINUOUS
10
0.513379
20
0.385302
11
0.512544
21
0.385648
0
LINE
8
BLACK
6
CONTINUOUS
10
0.512544
20
0.385648
11
0.512198
21
0.386483
0
LINE
8
BLACK
6
CONTINUOUS
10
0.512198
20
0.386483
11
0.512544
21
0.387318
0
LINE
8
BLACK
6
CONTINUOUS
10
0.512544
20
0.387318
11
0.513097
21
0.387871
0
LINE
8
BLACK
6
CONTINUOUS
10
0.513097
20
0.387871
11
0.513698
21
0.389674
0
LINE
8
BLACK
6
CONTINUOUS
10
0.513698
20
0.389674
11
0.513698
21
0.390791
0
LINE
8
BLACK
6
CONTINUOUS
10
0.513698
20
0.390791
11
0.513097
21
0.392594
0
LINE
8
BLACK
6
CONTINUOUS
10
0.513097
20
0.392594
11
0.51193
21
0.393761
0
LINE
8
BLACK
6
CONTINUOUS
10
0.51193
20
0.393761
11
0.510717
21
0.394367
0
LINE
8
BLACK
6
CONTINUOUS
10
0.510717
20
0.394367
11
0.507985
21
0.395051
0
LINE
8
BLACK
6
CONTINUOUS
10
0.507985
20
0.395051
11
0.506026
21
0.395051
0
LINE
8
BLACK
6
CONTINUOUS
10
0.506026
20
0.395051
11
0.503293
21
0.394367
0
LINE
8
BLACK
6
CONTINUOUS
10
0.503293
20
0.394367
11
0.50208
21
0.393761
0
LINE
8
BLACK
6
CONTINUOUS
10
0.50208
20
0.393761
11
0.500913
21
0.392594
0
LINE
8
BLACK
6
CONTINUOUS
10
0.500913
20
0.392594
11
0.500312
21
0.390791
0
LINE
8
BLACK
6
CONTINUOUS
10
0.500312
20
0.390791
11
0.500312
21
0.389674
0
LINE
8
BLACK
6
CONTINUOUS
10
0.500312
20
0.389674
11
0.500913
21
0.387871
0
LINE
8
BLACK
6
CONTINUOUS
10
0.500913
20
0.387871
11
0.501466
21
0.387318
0
LINE
8
BLACK
6
CONTINUOUS
10
0.501466
20
0.387318
11
0.501812
21
0.386483
0
LINE
8
BLACK
6
CONTINUOUS
10
0.501812
20
0.386483
11
0.501466
21
0.385648
0
LINE
8
BLACK
6
CONTINUOUS
10
0.501466
20
0.385648
11
0.500631
21
0.385302
0
LINE
8
BLACK
6
CONTINUOUS
10
0.500631
20
0.385302
11
0.499796
21
0.385648
0
LINE
8
BLACK
6
CONTINUOUS
10
0.499796
20
0.385648
11
0.499046
21
0.386398
0
LINE
8
BLACK
6
CONTINUOUS
10
0.499046
20
0.386398
11
0.49894
21
0.386652
0
LINE
8
BLACK
6
CONTINUOUS
10
0.49894
20
0.386652
11
0.49876
21
0.386859
0
LINE
8
BLACK
6
CONTINUOUS
10
0.49876
20
0.386859
11
0.498011
21
0.389109
0
LINE
8
BLACK
6
CONTINUOUS
10
0.498011
20
0.389109
11
0.498024
21
0.389303
0
LINE
8
BLACK
6
CONTINUOUS
10
0.498024
20
0.389303
11
0.49795
21
0.389483
0
LINE
8
BLACK
6
CONTINUOUS
10
0.49795
20
0.389483
11
0.49795
21
0.390982
0
LINE
8
BLACK
6
CONTINUOUS
10
0.49795
20
0.390982
11
0.498024
21
0.391162
0
LINE
8
BLACK
6
CONTINUOUS
10
0.498024
20
0.391162
11
0.498011
21
0.391356
0
LINE
8
BLACK
6
CONTINUOUS
10
0.498011
20
0.391356
11
0.49876
21
0.393606
0
LINE
8
BLACK
6
CONTINUOUS
10
0.49876
20
0.393606
11
0.498941
21
0.393813
0
LINE
8
BLACK
6
CONTINUOUS
10
0.498941
20
0.393813
11
0.499046
21
0.394067
0
LINE
8
BLACK
6
CONTINUOUS
10
0.499046
20
0.394067
11
0.500546
21
0.395567
0
LINE
8
BLACK
6
CONTINUOUS
10
0.500546
20
0.395567
11
0.500725
21
0.395641
0
LINE
8
BLACK
6
CONTINUOUS
10
0.500725
20
0.395641
11
0.500853
21
0.395788
0
LINE
8
BLACK
6
CONTINUOUS
10
0.500853
20
0.395788
11
0.502352
21
0.396538
0
LINE
8
BLACK
6
CONTINUOUS
10
0.502352
20
0.396538
11
0.502486
21
0.396548
0
LINE
8
BLACK
6
CONTINUOUS
10
0.502486
20
0.396548
11
0.502594
21
0.396628
0
LINE
8
BLACK
6
CONTINUOUS
10
0.502594
20
0.396628
11
0.505594
21
0.397378
0
LINE
8
BLACK
6
CONTINUOUS
10
0.505594
20
0.397378
11
0.505742
21
0.397356
0
LINE
8
BLACK
6
CONTINUOUS
10
0.505742
20
0.397356
11
0.50588
21
0.397413
0
LINE
8
BLACK
6
CONTINUOUS
10
0.50588
20
0.397413
11
0.50813
21
0.397413
0
LINE
8
BLACK
6
CONTINUOUS
10
0.50813
20
0.397413
11
0.508268
21
0.397356
0
LINE
8
BLACK
6
CONTINUOUS
10
0.523465
20
0.417323
11
0.524856
21
0.416746
0
LINE
8
BLACK
6
CONTINUOUS
10
0.524856
20
0.416746
11
0.525433
21
0.415354
0
LINE
8
BLACK
6
CONTINUOUS
10
0.525433
20
0.415354
11
0.525433
21
0.352362
0
LINE
8
BLACK
6
CONTINUOUS
10
0.525433
20
0.352362
11
0.524856
21
0.35097
0
LINE
8
BLACK
6
CONTINUOUS
10
0.524856
20
0.35097
11
0.523465
21
0.350394
0
LINE
8
BLACK
6
CONTINUOUS
10
0.523465
20
0.350394
11
0.491969
21
0.350394
0
LINE
8
BLACK
6
CONTINUOUS
10
0.491969
20
0.350394
11
0.490577
21
0.35097
0
LINE
8
BLACK
6
CONTINUOUS
10
0.490577
20
0.35097
11
0.49
21
0.352362
0
LINE
8
BLACK
6
CONTINUOUS
10
0.49
20
0.352362
11
0.49
21
0.415354
0
LINE
8
BLACK
6
CONTINUOUS
10
0.49
20
0.415354
11
0.490577
21
0.416746
0
LINE
8
BLACK
6
CONTINUOUS
10
0.490577
20
0.416746
11
0.491969
21
0.417323
0
LINE
8
BLACK
6
CONTINUOUS
10
0.491969
20
0.417323
11
0.523465
21
0.417323
0
LINE
8
BLACK
6
CONTINUOUS
10
0.493937
20
0.413386
11
0.493937
21
0.354331
0
LINE
8
BLACK
6
CONTINUOUS
10
0.493937
20
0.354331
11
0.521496
21
0.354331
0
LINE
8
BLACK
6
CONTINUOUS
10
0.521496
20
0.354331
11
0.521496
21
0.413386
0
LINE
8
BLACK
6
CONTINUOUS
10
0.521496
20
0.413386
11
0.493937
21
0.413386
0
LINE
8
BLACK
6
CONTINUOUS
10
0.300163
20
0.385256
11
0.300509
21
0.384421
0
LINE
8
BLACK
6
CONTINUOUS
10
0.300509
20
0.384421
11
0.300509
21
0.375422
0
LINE
8
BLACK
6
CONTINUOUS
10
0.300509
20
0.375422
11
0.300163
21
0.374587
0
LINE
8
BLACK
6
CONTINUOUS
10
0.300163
20
0.374587
11
0.299328
21
0.374241
0
LINE
8
BLACK
6
CONTINUOUS
10
0.299328
20
0.374241
11
0.298493
21
0.374587
0
LINE
8
BLACK
6
CONTINUOUS
10
0.298493
20
0.374587
11
0.298147
21
0.375422
0
LINE
8
BLACK
6
CONTINUOUS
10
0.298147
20
0.375422
11
0.298147
21
0.37874
0
LINE
8
BLACK
6
CONTINUOUS
10
0.298147
20
0.37874
11
0.28358
21
0.37874
0
LINE
8
BLACK
6
CONTINUOUS
10
0.28358
20
0.37874
11
0.283467
21
0.378787
0
LINE
8
BLACK
6
CONTINUOUS
10
0.283467
20
0.378787
11
0.283348
21
0.378763
0
LINE
8
BLACK
6
CONTINUOUS
10
0.283348
20
0.378763
11
0.283062
21
0.378954
0
LINE
8
BLACK
6
CONTINUOUS
10
0.283062
20
0.378954
11
0.282745
21
0.379086
0
LINE
8
BLACK
6
CONTINUOUS
10
0.282745
20
0.379086
11
0.282698
21
0.379198
0
LINE
8
BLACK
6
CONTINUOUS
10
0.282698
20
0.379198
11
0.282597
21
0.379266
0
LINE
8
BLACK
6
CONTINUOUS
10
0.282597
20
0.379266
11
0.28253
21
0.379603
0
LINE
8
BLACK
6
CONTINUOUS
10
0.28253
20
0.379603
11
0.282399
21
0.379921
0
LINE
8
BLACK
6
CONTINUOUS
10
0.282399
20
0.379921
11
0.282445
21
0.380034
0
LINE
8
BLACK
6
CONTINUOUS
10
0.282445
20
0.380034
11
0.282422
21
0.380153
0
LINE
8
BLACK
6
CONTINUOUS
10
0.282422
20
0.380153
11
0.282613
21
0.380439
0
LINE
8
BLACK
6
CONTINUOUS
10
0.282613
20
0.380439
11
0.282745
21
0.380756
0
LINE
8
BLACK
6
CONTINUOUS
10
0.282745
20
0.380756
11
0.282857
21
0.380803
0
LINE
8
BLACK
6
CONTINUOUS
10
0.282857
20
0.380803
11
0.282925
21
0.380904
0
LINE
8
BLACK
6
CONTINUOUS
10
0.282925
20
0.380904
11
0.285077
21
0.382339
0
LINE
8
BLACK
6
CONTINUOUS
10
0.285077
20
0.382339
11
0.286359
21
0.383621
0
LINE
8
BLACK
6
CONTINUOUS
10
0.286359
20
0.383621
11
0.287023
21
0.384949
0
LINE
8
BLACK
6
CONTINUOUS
10
0.287023
20
0.384949
11
0.287706
21
0.385541
0
LINE
8
BLACK
6
CONTINUOUS
10
0.287706
20
0.385541
11
0.288607
21
0.385477
0
LINE
8
BLACK
6
CONTINUOUS
10
0.288607
20
0.385477
11
0.2892
21
0.384794
0
LINE
8
BLACK
6
CONTINUOUS
10
0.2892
20
0.384794
11
0.289136
21
0.383893
0
LINE
8
BLACK
6
CONTINUOUS
10
0.289136
20
0.383893
11
0.288386
21
0.382393
0
LINE
8
BLACK
6
CONTINUOUS
10
0.288386
20
0.382393
11
0.288239
21
0.382265
0
LINE
8
BLACK
6
CONTINUOUS
10
0.288239
20
0.382265
11
0.288164
21
0.382086
0
LINE
8
BLACK
6
CONTINUOUS
10
0.288164
20
0.382086
11
0.287181
21
0.381102
0
LINE
8
BLACK
6
CONTINUOUS
10
0.287181
20
0.381102
11
0.298147
21
0.381102
0
LINE
8
BLACK
6
CONTINUOUS
10
0.298147
20
0.381102
11
0.298147
21
0.384421
0
LINE
8
BLACK
6
CONTINUOUS
10
0.298147
20
0.384421
11
0.298493
21
0.385256
0
LINE
8
BLACK
6
CONTINUOUS
10
0.298493
20
0.385256
11
0.299328
21
0.385602
0
LINE
8
BLACK
6
CONTINUOUS
10
0.299328
20
0.385602
11
0.300163
21
0.385256
0
LINE
8
BLACK
6
CONTINUOUS
10
0.300163
20
0.400254
11
0.300509
21
0.399419
0
LINE
8
BLACK
6
CONTINUOUS
10
0.300509
20
0.399419
11
0.300163
21
0.398584
0
LINE
8
BLACK
6
CONTINUOUS
10
0.300163
20
0.398584
11
0.299328
21
0.398238
0
LINE
8
BLACK
6
CONTINUOUS
10
0.299328
20
0.398238
11
0.29301
21
0.398238
0
LINE
8
BLACK
6
CONTINUOUS
10
0.29301
20
0.398238
11
0.29301
21
0.396284
0
LINE
8
BLACK
6
CONTINUOUS
10
0.29301
20
0.396284
11
0.300005
21
0.391388
0
LINE
8
BLACK
6
CONTINUOUS
10
0.300005
20
0.391388
11
0.300491
21
0.390625
0
LINE
8
BLACK
6
CONTINUOUS
10
0.300491
20
0.390625
11
0.300295
21
0.389743
0
LINE
8
BLACK
6
CONTINUOUS
10
0.300295
20
0.389743
11
0.299533
21
0.389257
0
LINE
8
BLACK
6
CONTINUOUS
10
0.299533
20
0.389257
11
0.298651
21
0.389452
0
LINE
8
BLACK
6
CONTINUOUS
10
0.298651
20
0.389452
11
0.293004
21
0.393405
0
LINE
8
BLACK
6
CONTINUOUS
10
0.293004
20
0.393405
11
0.292905
21
0.393166
0
LINE
8
BLACK
6
CONTINUOUS
10
0.292905
20
0.393166
11
0.292885
21
0.392891
0
LINE
8
BLACK
6
CONTINUOUS
10
0.292885
20
0.392891
11
0.292135
21
0.391392
0
LINE
8
BLACK
6
CONTINUOUS
10
0.292135
20
0.391392
11
0.291988
21
0.391264
0
LINE
8
BLACK
6
CONTINUOUS
10
0.291988
20
0.391264
11
0.291914
21
0.391085
0
LINE
8
BLACK
6
CONTINUOUS
10
0.291914
20
0.391085
11
0.291164
21
0.390335
0
LINE
8
BLACK
6
CONTINUOUS
10
0.291164
20
0.390335
11
0.290985
21
0.39026
0
LINE
8
BLACK
6
CONTINUOUS
10
0.290985
20
0.39026
11
0.290857
21
0.390113
0
LINE
8
BLACK
6
CONTINUOUS
10
0.290857
20
0.390113
11
0.289357
21
0.389364
0
LINE
8
BLACK
6
CONTINUOUS
10
0.289357
20
0.389364
11
0.289083
21
0.389344
0
LINE
8
BLACK
6
CONTINUOUS
10
0.289083
20
0.389344
11
0.288829
21
0.389239
0
LINE
8
BLACK
6
CONTINUOUS
10
0.288829
20
0.389239
11
0.286579
21
0.389239
0
LINE
8
BLACK
6
CONTINUOUS
10
0.286579
20
0.389239
11
0.286325
21
0.389344
0
LINE
8
BLACK
6
CONTINUOUS
10
0.286325
20
0.389344
11
0.286051
21
0.389364
0
LINE
8
BLACK
6
CONTINUOUS
10
0.286051
20
0.389364
11
0.284551
21
0.390113
0
LINE
8
BLACK
6
CONTINUOUS
10
0.284551
20
0.390113
11
0.284424
21
0.39026
0
LINE
8
BLACK
6
CONTINUOUS
10
0.284424
20
0.39026
11
0.284244
21
0.390335
0
LINE
8
BLACK
6
CONTINUOUS
10
0.284244
20
0.390335
11
0.283495
21
0.391085
0
LINE
8
BLACK
6
CONTINUOUS
10
0.283495
20
0.391085
11
0.28342
21
0.391264
0
LINE
8
BLACK
6
CONTINUOUS
10
0.28342
20
0.391264
11
0.283273
21
0.391392
0
LINE
8
BLACK
6
CONTINUOUS
10
0.283273
20
0.391392
11
0.282523
21
0.392891
0
LINE
8
BLACK
6
CONTINUOUS
10
0.282523
20
0.392891
11
0.282504
21
0.393166
0
LINE
8
BLACK
6
CONTINUOUS
10
0.282504
20
0.393166
11
0.282399
21
0.39342
0
LINE
8
BLACK
6
CONTINUOUS
10
0.282399
20
0.39342
11
0.282399
21
0.399419
0
LINE
8
BLACK
6
CONTINUOUS
10
0.282399
20
0.399419
11
0.282745
21
0.400254
0
LINE
8
BLACK
6
CONTINUOUS
10
0.282745
20
0.400254
11
0.28358
21
0.4006
0
LINE
8
BLACK
6
CONTINUOUS
10
0.28358
20
0.4006
11
0.299328
21
0.4006
0
LINE
8
BLACK
6
CONTINUOUS
10
0.299328
20
0.4006
11
0.300163
21
0.400254
0
LINE
8
BLACK
6
CONTINUOUS
10
0.284761
20
0.393698
11
0.2853
21
0.392619
0
LINE
8
BLACK
6
CONTINUOUS
10
0.2853
20
0.392619
11
0.285779
21
0.392141
0
LINE
8
BLACK
6
CONTINUOUS
10
0.285779
20
0.392141
11
0.286858
21
0.391601
0
LINE
8
BLACK
6
CONTINUOUS
10
0.286858
20
0.391601
11
0.28855
21
0.391601
0
LINE
8
BLACK
6
CONTINUOUS
10
0.28855
20
0.391601
11
0.289629
21
0.392141
0
LINE
8
BLACK
6
CONTINUOUS
10
0.289629
20
0.392141
11
0.290108
21
0.392619
0
LINE
8
BLACK
6
CONTINUOUS
10
0.290108
20
0.392619
11
0.290648
21
0.393698
0
LINE
8
BLACK
6
CONTINUOUS
10
0.290648
20
0.393698
11
0.290648
21
0.398238
0
LINE
8
BLACK
6
CONTINUOUS
10
0.290648
20
0.398238
11
0.284761
21
0.398238
0
LINE
8
BLACK
6
CONTINUOUS
10
0.284761
20
0.398238
11
0.284761
21
0.393698
0
LINE
8
BLACK
6
CONTINUOUS
10
0.307913
20
0.42126
11
0.309305
21
0.420683
0
LINE
8
BLACK
6
CONTINUOUS
10
0.309305
20
0.420683
11
0.309882
21
0.419291
0
LINE
8
BLACK
6
CONTINUOUS
10
0.309882
20
0.419291
11
0.309882
21
0.356299
0
LINE
8
BLACK
6
CONTINUOUS
10
0.309882
20
0.356299
11
0.309305
21
0.354907
0
LINE
8
BLACK
6
CONTINUOUS
10
0.309305
20
0.354907
11
0.307913
21
0.354331
0
LINE
8
BLACK
6
CONTINUOUS
10
0.307913
20
0.354331
11
0.276417
21
0.354331
0
LINE
8
BLACK
6
CONTINUOUS
10
0.276417
20
0.354331
11
0.275025
21
0.354907
0
LINE
8
BLACK
6
CONTINUOUS
10
0.275025
20
0.354907
11
0.274449
21
0.356299
0
LINE
8
BLACK
6
CONTINUOUS
10
0.274449
20
0.356299
11
0.274449
21
0.419291
0
LINE
8
BLACK
6
CONTINUOUS
10
0.274449
20
0.419291
11
0.275025
21
0.420683
0
LINE
8
BLACK
6
CONTINUOUS
10
0.275025
20
0.420683
11
0.276417
21
0.42126
0
LINE
8
BLACK
6
CONTINUOUS
10
0.276417
20
0.42126
11
0.307913
21
0.42126
0
LINE
8
BLACK
6
CONTINUOUS
10
0.278386
20
0.417323
11
0.278386
21
0.358268
0
LINE
8
BLACK
6
CONTINUOUS
10
0.278386
20
0.358268
11
0.305945
21
0.358268
0
LINE
8
BLACK
6
CONTINUOUS
10
0.305945
20
0.358268
11
0.305945
21
0.417323
0
LINE
8
BLACK
6
CONTINUOUS
10
0.305945
20
0.417323
11
0.278386
21
0.417323
0
LINE
8
BLACK
6
CONTINUOUS
10
0.358518
20
0.396077
11
0.359094
21
0.394685
0
LINE
8
BLACK
6
CONTINUOUS
10
0.359094
20
0.394685
11
0.359094
21
0.390748
0
LINE
8
BLACK
6
CONTINUOUS
10
0.359094
20
0.390748
11
0.365
21
0.390748
0
LINE
8
BLACK
6
CONTINUOUS
10
0.365
20
0.390748
11
0.36553
21
0.390529
0
LINE
8
BLACK
6
CONTINUOUS
10
0.36553
20
0.390529
11
0.366092
21
0.390417
0
LINE
8
BLACK
6
CONTINUOUS
10
0.366092
20
0.390417
11
0.366205
21
0.390249
0
LINE
8
BLACK
6
CONTINUOUS
10
0.366205
20
0.390249
11
0.366392
21
0.390171
0
LINE
8
BLACK
6
CONTINUOUS
10
0.366392
20
0.390171
11
0.366611
21
0.389642
0
LINE
8
BLACK
6
CONTINUOUS
10
0.366611
20
0.389642
11
0.36693
21
0.389166
0
LINE
8
BLACK
6
CONTINUOUS
10
0.36693
20
0.389166
11
0.366891
21
0.388967
0
LINE
8
BLACK
6
CONTINUOUS
10
0.366891
20
0.388967
11
0.366969
21
0.38878
0
LINE
8
BLACK
6
CONTINUOUS
10
0.366969
20
0.38878
11
0.366749
21
0.38825
0
LINE
8
BLACK
6
CONTINUOUS
10
0.366749
20
0.38825
11
0.366638
21
0.387688
0
LINE
8
BLACK
6
CONTINUOUS
10
0.366638
20
0.387688
11
0.360804
21
0.378937
0
LINE
8
BLACK
6
CONTINUOUS
10
0.360804
20
0.378937
11
0.365
21
0.378937
0
LINE
8
BLACK
6
CONTINUOUS
10
0.365
20
0.378937
11
0.366392
21
0.37836
0
LINE
8
BLACK
6
CONTINUOUS
10
0.366392
20
0.37836
11
0.366969
21
0.376969
0
LINE
8
BLACK
6
CONTINUOUS
10
0.366969
20
0.376969
11
0.366392
21
0.375577
0
LINE
8
BLACK
6
CONTINUOUS
10
0.366392
20
0.375577
11
0.365
21
0.375
0
LINE
8
BLACK
6
CONTINUOUS
10
0.365
20
0.375
11
0.359094
21
0.375
0
LINE
8
BLACK
6
CONTINUOUS
10
0.359094
20
0.375
11
0.359094
21
0.371063
0
LINE
8
BLACK
6
CONTINUOUS
10
0.359094
20
0.371063
11
0.358518
21
0.369671
0
LINE
8
BLACK
6
CONTINUOUS
10
0.358518
20
0.369671
11
0.357126
21
0.369094
0
LINE
8
BLACK
6
CONTINUOUS
10
0.357126
20
0.369094
11
0.355734
21
0.369671
0
LINE
8
BLACK
6
CONTINUOUS
10
0.355734
20
0.369671
11
0.355157
21
0.371063
0
LINE
8
BLACK
6
CONTINUOUS
10
0.355157
20
0.371063
11
0.355157
21
0.375
0
LINE
8
BLACK
6
CONTINUOUS
10
0.355157
20
0.375
11
0.349252
21
0.375
0
LINE
8
BLACK
6
CONTINUOUS
10
0.349252
20
0.375
11
0.34786
21
0.375577
0
LINE
8
BLACK
6
CONTINUOUS
10
0.34786
20
0.375577
11
0.347283
21
0.376969
0
LINE
8
BLACK
6
CONTINUOUS
10
0.347283
20
0.376969
11
0.34786
21
0.37836
0
LINE
8
BLACK
6
CONTINUOUS
10
0.34786
20
0.37836
11
0.349252
21
0.378937
0
LINE
8
BLACK
6
CONTINUOUS
10
0.349252
20
0.378937
11
0.353448
21
0.378937
0
LINE
8
BLACK
6
CONTINUOUS
10
0.353448
20
0.378937
11
0.347614
21
0.387688
0
LINE
8
BLACK
6
CONTINUOUS
10
0.347614
20
0.387688
11
0.347503
21
0.38825
0
LINE
8
BLACK
6
CONTINUOUS
10
0.347503
20
0.38825
11
0.347283
21
0.38878
0
LINE
8
BLACK
6
CONTINUOUS
10
0.347283
20
0.38878
11
0.347361
21
0.388967
0
LINE
8
BLACK
6
CONTINUOUS
10
0.347361
20
0.388967
11
0.347322
21
0.389166
0
LINE
8
BLACK
6
CONTINUOUS
10
0.347322
20
0.389166
11
0.347641
21
0.389642
0
LINE
8
BLACK
6
CONTINUOUS
10
0.347641
20
0.389642
11
0.34786
21
0.390171
0
LINE
8
BLACK
6
CONTINUOUS
10
0.34786
20
0.390171
11
0.348047
21
0.390249
0
LINE
8
BLACK
6
CONTINUOUS
10
0.348047
20
0.390249
11
0.34816
21
0.390417
0
LINE
8
BLACK
6
CONTINUOUS
10
0.34816
20
0.390417
11
0.348722
21
0.390529
0
LINE
8
BLACK
6
CONTINUOUS
10
0.348722
20
0.390529
11
0.349252
21
0.390748
0
LINE
8
BLACK
6
CONTINUOUS
10
0.349252
20
0.390748
11
0.355157
21
0.390748
0
LINE
8
BLACK
6
CONTINUOUS
10
0.355157
20
0.390748
11
0.355157
21
0.394685
0
LINE
8
BLACK
6
CONTINUOUS
10
0.355157
20
0.394685
11
0.355734
21
0.396077
0
LINE
8
BLACK
6
CONTINUOUS
10
0.355734
20
0.396077
11
0.357126
21
0.396654
0
LINE
8
BLACK
6
CONTINUOUS
10
0.357126
20
0.396654
11
0.358518
21
0.396077
0
LINE
8
BLACK
6
CONTINUOUS
10
0.357126
20
0.386811
11
0.35293
21
0.386811
0
LINE
8
BLACK
6
CONTINUOUS
10
0.35293
20
0.386811
11
0.357126
21
0.380517
0
LINE
8
BLACK
6
CONTINUOUS
10
0.357126
20
0.380517
11
0.361322
21
0.386811
0
LINE
8
BLACK
6
CONTINUOUS
10
0.361322
20
0.386811
11
0.357126
21
0.386811
0
LINE
8
BLACK
6
CONTINUOUS
10
0.374843
20
0.412402
11
0.376234
21
0.411825
0
LINE
8
BLACK
6
CONTINUOUS
10
0.376234
20
0.411825
11
0.376811
21
0.410433
0
LINE
8
BLACK
6
CONTINUOUS
10
0.376811
20
0.410433
11
0.376811
21
0.359252
0
LINE
8
BLACK
6
CONTINUOUS
10
0.376811
20
0.359252
11
0.376234
21
0.35786
0
LINE
8
BLACK
6
CONTINUOUS
10
0.376234
20
0.35786
11
0.374843
21
0.357283
0
LINE
8
BLACK
6
CONTINUOUS
10
0.374843
20
0.357283
11
0.339409
21
0.357283
0
LINE
8
BLACK
6
CONTINUOUS
10
0.339409
20
0.357283
11
0.338018
21
0.35786
0
LINE
8
BLACK
6
CONTINUOUS
10
0.338018
20
0.35786
11
0.337441
21
0.359252
0
LINE
8
BLACK
6
CONTINUOUS
10
0.337441
20
0.359252
11
0.337441
21
0.410433
0
LINE
8
BLACK
6
CONTINUOUS
10
0.337441
20
0.410433
11
0.338018
21
0.411825
0
LINE
8
BLACK
6
CONTINUOUS
10
0.338018
20
0.411825
11
0.339409
21
0.412402
0
LINE
8
BLACK
6
CONTINUOUS
10
0.339409
20
0.412402
11
0.374843
21
0.412402
0
LINE
8
BLACK
6
CONTINUOUS
10
0.341378
20
0.408465
11
0.341378
21
0.36122
0
LINE
8
BLACK
6
CONTINUOUS
10
0.341378
20
0.36122
11
0.372874
21
0.36122
0
LINE
8
BLACK
6
CONTINUOUS
10
0.372874
20
0.36122
11
0.372874
21
0.408465
0
LINE
8
BLACK
6
CONTINUOUS
10
0.372874
20
0.408465
11
0.341378
21
0.408465
0
LINE
8
BLACK
6
CONTINUOUS
10
0.435384
20
0.386091
11
0.436323
21
0.385153
0
LINE
8
BLACK
6
CONTINUOUS
10
0.436323
20
0.385153
11
0.436458
21
0.384826
0
LINE
8
BLACK
6
CONTINUOUS
10
0.436458
20
0.384826
11
0.436725
21
0.384594
0
LINE
8
BLACK
6
CONTINUOUS
10
0.436725
20
0.384594
11
0.437663
21
0.382718
0
LINE
8
BLACK
6
CONTINUOUS
10
0.437663
20
0.382718
11
0.437699
21
0.382219
0
LINE
8
BLACK
6
CONTINUOUS
10
0.437699
20
0.382219
11
0.43789
21
0.381757
0
LINE
8
BLACK
6
CONTINUOUS
10
0.43789
20
0.381757
11
0.43789
21
0.376128
0
LINE
8
BLACK
6
CONTINUOUS
10
0.43789
20
0.376128
11
0.437699
21
0.375666
0
LINE
8
BLACK
6
CONTINUOUS
10
0.437699
20
0.375666
11
0.437663
21
0.375167
0
LINE
8
BLACK
6
CONTINUOUS
10
0.437663
20
0.375167
11
0.436725
21
0.37329
0
LINE
8
BLACK
6
CONTINUOUS
10
0.436725
20
0.37329
11
0.436458
21
0.373059
0
LINE
8
BLACK
6
CONTINUOUS
10
0.436458
20
0.373059
11
0.436323
21
0.372732
0
LINE
8
BLACK
6
CONTINUOUS
10
0.436323
20
0.372732
11
0.435384
21
0.371794
0
LINE
8
BLACK
6
CONTINUOUS
10
0.435384
20
0.371794
11
0.435058
21
0.371658
0
LINE
8
BLACK
6
CONTINUOUS
10
0.435058
20
0.371658
11
0.434826
21
0.371391
0
LINE
8
BLACK
6
CONTINUOUS
10
0.434826
20
0.371391
11
0.432949
21
0.370453
0
LINE
8
BLACK
6
CONTINUOUS
10
0.432949
20
0.370453
11
0.43245
21
0.370417
0
LINE
8
BLACK
6
CONTINUOUS
10
0.43245
20
0.370417
11
0.431988
21
0.370226
0
LINE
8
BLACK
6
CONTINUOUS
10
0.431988
20
0.370226
11
0.427298
21
0.370226
0
LINE
8
BLACK
6
CONTINUOUS
10
0.427298
20
0.370226
11
0.426835
21
0.370417
0
LINE
8
BLACK
6
CONTINUOUS
10
0.426835
20
0.370417
11
0.426336
21
0.370453
0
LINE
8
BLACK
6
CONTINUOUS
10
0.426336
20
0.370453
11
0.42446
21
0.371391
0
LINE
8
BLACK
6
CONTINUOUS
10
0.42446
20
0.371391
11
0.424228
21
0.371658
0
LINE
8
BLACK
6
CONTINUOUS
10
0.424228
20
0.371658
11
0.423901
21
0.371794
0
LINE
8
BLACK
6
CONTINUOUS
10
0.423901
20
0.371794
11
0.422963
21
0.372732
0
LINE
8
BLACK
6
CONTINUOUS
10
0.422963
20
0.372732
11
0.422828
21
0.373059
0
LINE
8
BLACK
6
CONTINUOUS
10
0.422828
20
0.373059
11
0.42256
21
0.37329
0
LINE
8
BLACK
6
CONTINUOUS
10
0.42256
20
0.37329
11
0.421888
21
0.374635
0
LINE
8
BLACK
6
CONTINUOUS
10
0.421888
20
0.374635
11
0.417456
21
0.370758
0
LINE
8
BLACK
6
CONTINUOUS
10
0.417456
20
0.370758
11
0.416739
21
0.370515
0
LINE
8
BLACK
6
CONTINUOUS
10
0.416739
20
0.370515
11
0.41604
21
0.370226
0
LINE
8
BLACK
6
CONTINUOUS
10
0.41604
20
0.370226
11
0.41597
21
0.370255
0
LINE
8
BLACK
6
CONTINUOUS
10
0.41597
20
0.370255
11
0.415897
21
0.370231
0
LINE
8
BLACK
6
CONTINUOUS
10
0.415897
20
0.370231
11
0.415219
21
0.370566
0
LINE
8
BLACK
6
CONTINUOUS
10
0.415219
20
0.370566
11
0.41452
21
0.370856
0
LINE
8
BLACK
6
CONTINUOUS
10
0.41452
20
0.370856
11
0.414491
21
0.370926
0
LINE
8
BLACK
6
CONTINUOUS
10
0.414491
20
0.370926
11
0.414422
21
0.37096
0
LINE
8
BLACK
6
CONTINUOUS
10
0.414422
20
0.37096
11
0.41418
21
0.371677
0
LINE
8
BLACK
6
CONTINUOUS
10
0.41418
20
0.371677
11
0.41389
21
0.372376
0
LINE
8
BLACK
6
CONTINUOUS
10
0.41389
20
0.372376
11
0.41389
21
0.384571
0
LINE
8
BLACK
6
CONTINUOUS
10
0.41389
20
0.384571
11
0.41452
21
0.386091
0
LINE
8
BLACK
6
CONTINUOUS
10
0.41452
20
0.386091
11
0.41604
21
0.386721
0
LINE
8
BLACK
6
CONTINUOUS
10
0.41604
20
0.386721
11
0.417561
21
0.386091
0
LINE
8
BLACK
6
CONTINUOUS
10
0.417561
20
0.386091
11
0.41819
21
0.384571
0
LINE
8
BLACK
6
CONTINUOUS
10
0.41819
20
0.384571
11
0.41819
21
0.377114
0
LINE
8
BLACK
6
CONTINUOUS
10
0.41819
20
0.377114
11
0.422129
21
0.38056
0
LINE
8
BLACK
6
CONTINUOUS
10
0.422129
20
0.38056
11
0.422846
21
0.380803
0
LINE
8
BLACK
6
CONTINUOUS
10
0.422846
20
0.380803
11
0.423545
21
0.381092
0
LINE
8
BLACK
6
CONTINUOUS
10
0.423545
20
0.381092
11
0.423616
21
0.381063
0
LINE
8
BLACK
6
CONTINUOUS
10
0.423616
20
0.381063
11
0.423688
21
0.381088
0
LINE
8
BLACK
6
CONTINUOUS
10
0.423688
20
0.381088
11
0.424366
21
0.380752
0
LINE
8
BLACK
6
CONTINUOUS
10
0.424366
20
0.380752
11
0.425065
21
0.380463
0
LINE
8
BLACK
6
CONTINUOUS
10
0.425065
20
0.380463
11
0.425095
21
0.380392
0
LINE
8
BLACK
6
CONTINUOUS
10
0.425095
20
0.380392
11
0.425163
21
0.380358
0
LINE
8
BLACK
6
CONTINUOUS
10
0.425163
20
0.380358
11
0.425406
21
0.379642
0
LINE
8
BLACK
6
CONTINUOUS
10
0.425406
20
0.379642
11
0.425695
21
0.378942
0
LINE
8
BLACK
6
CONTINUOUS
10
0.425695
20
0.378942
11
0.425695
21
0.376636
0
LINE
8
BLACK
6
CONTINUOUS
10
0.425695
20
0.376636
11
0.42625
21
0.375526
0
LINE
8
BLACK
6
CONTINUOUS
10
0.42625
20
0.375526
11
0.426695
21
0.375081
0
LINE
8
BLACK
6
CONTINUOUS
10
0.426695
20
0.375081
11
0.427805
21
0.374526
0
LINE
8
BLACK
6
CONTINUOUS
10
0.427805
20
0.374526
11
0.43148
21
0.374526
0
LINE
8
BLACK
6
CONTINUOUS
10
0.43148
20
0.374526
11
0.432591
21
0.375081
0
LINE
8
BLACK
6
CONTINUOUS
10
0.432591
20
0.375081
11
0.433035
21
0.375526
0
LINE
8
BLACK
6
CONTINUOUS
10
0.433035
20
0.375526
11
0.43359
21
0.376636
0
LINE
8
BLACK
6
CONTINUOUS
10
0.43359
20
0.376636
11
0.43359
21
0.381249
0
LINE
8
BLACK
6
CONTINUOUS
10
0.43359
20
0.381249
11
0.433035
21
0.382359
0
LINE
8
BLACK
6
CONTINUOUS
10
0.433035
20
0.382359
11
0.432344
21
0.383051
0
LINE
8
BLACK
6
CONTINUOUS
10
0.432344
20
0.383051
11
0.431714
21
0.384571
0
LINE
8
BLACK
6
CONTINUOUS
10
0.431714
20
0.384571
11
0.432344
21
0.386091
0
LINE
8
BLACK
6
CONTINUOUS
10
0.432344
20
0.386091
11
0.433864
21
0.386721
0
LINE
8
BLACK
6
CONTINUOUS
10
0.433864
20
0.386721
11
0.435384
21
0.386091
0
LINE
8
BLACK
6
CONTINUOUS
10
0.611302
20
0.394246
11
0.61145
21
0.394268
0
LINE
8
BLACK
6
CONTINUOUS
10
0.61145
20
0.394268
11
0.614449
21
0.393518
0
LINE
8
BLACK
6
CONTINUOUS
10
0.614449
20
0.393518
11
0.614557
21
0.393438
0
LINE
8
BLACK
6
CONTINUOUS
10
0.614557
20
0.393438
11
0.614691
21
0.393429
0
LINE
8
BLACK
6
CONTINUOUS
10
0.614691
20
0.393429
11
0.616191
21
0.392679
0
LINE
8
BLACK
6
CONTINUOUS
10
0.616191
20
0.392679
11
0.616318
21
0.392532
0
LINE
8
BLACK
6
CONTINUOUS
10
0.616318
20
0.392532
11
0.616498
21
0.392458
0
LINE
8
BLACK
6
CONTINUOUS
10
0.616498
20
0.392458
11
0.617248
21
0.391708
0
LINE
8
BLACK
6
CONTINUOUS
10
0.617248
20
0.391708
11
0.617322
21
0.391528
0
LINE
8
BLACK
6
CONTINUOUS
10
0.617322
20
0.391528
11
0.617469
21
0.391401
0
LINE
8
BLACK
6
CONTINUOUS
10
0.617469
20
0.391401
11
0.618219
21
0.389901
0
LINE
8
BLACK
6
CONTINUOUS
10
0.618219
20
0.389901
11
0.618238
21
0.389627
0
LINE
8
BLACK
6
CONTINUOUS
10
0.618238
20
0.389627
11
0.618344
21
0.389373
0
LINE
8
BLACK
6
CONTINUOUS
10
0.618344
20
0.389373
11
0.618344
21
0.387873
0
LINE
8
BLACK
6
CONTINUOUS
10
0.618344
20
0.387873
11
0.618238
21
0.387619
0
LINE
8
BLACK
6
CONTINUOUS
10
0.618238
20
0.387619
11
0.618219
21
0.387345
0
LINE
8
BLACK
6
CONTINUOUS
10
0.618219
20
0.387345
11
0.617469
21
0.385845
0
LINE
8
BLACK
6
CONTINUOUS
10
0.617469
20
0.385845
11
0.617322
21
0.385718
0
LINE
8
BLACK
6
CONTINUOUS
10
0.617322
20
0.385718
11
0.617248
21
0.385538
0
LINE
8
BLACK
6
CONTINUOUS
10
0.617248
20
0.385538
11
0.616498
21
0.384788
0
LINE
8
BLACK
6
CONTINUOUS
10
0.616498
20
0.384788
11
0.616318
21
0.384714
0
LINE
8
BLACK
6
CONTINUOUS
10
0.616318
20
0.384714
11
0.616191
21
0.384567
0
LINE
8
BLACK
6
CONTINUOUS
10
0.616191
20
0.384567
11
0.614691
21
0.383817
0
LINE
8
BLACK
6
CONTINUOUS
10
0.614691
20
0.383817
11
0.614557
21
0.383808
0
LINE
8
BLACK
6
CONTINUOUS
10
0.614557
20
0.383808
11
0.614449
21
0.383728
0
LINE
8
BLACK
6
CONTINUOUS
10
0.614449
20
0.383728
11
0.61145
21
0.382978
0
LINE
8
BLACK
6
CONTINUOUS
10
0.61145
20
0.382978
11
0.611302
21
0.383
0
LINE
8
BLACK
6
CONTINUOUS
10
0.611302
20
0.383
11
0.611163
21
0.382942
0
LINE
8
BLACK
6
CONTINUOUS
10
0.611163
20
0.382942
11
0.607414
21
0.382942
0
LINE
8
BLACK
6
CONTINUOUS
10
0.607414
20
0.382942
11
0.607275
21
0.383
0
LINE
8
BLACK
6
CONTINUOUS
10
0.607275
20
0.383
11
0.607127
21
0.382978
0
LINE
8
BLACK
6
CONTINUOUS
10
0.607127
20
0.382978
11
0.604128
21
0.383728
0
LINE
8
BLACK
6
CONTINUOUS
10
0.604128
20
0.383728
11
0.60402
21
0.383808
0
LINE
8
BLACK
6
CONTINUOUS
10
0.60402
20
0.383808
11
0.603886
21
0.383817
0
LINE
8
BLACK
6
CONTINUOUS
10
0.603886
20
0.383817
11
0.602386
21
0.384567
0
LINE
8
BLACK
6
CONTINUOUS
10
0.602386
20
0.384567
11
0.602259
21
0.384714
0
LINE
8
BLACK
6
CONTINUOUS
10
0.602259
20
0.384714
11
0.602079
21
0.384788
0
LINE
8
BLACK
6
CONTINUOUS
10
0.602079
20
0.384788
11
0.601329
21
0.385538
0
LINE
8
BLACK
6
CONTINUOUS
10
0.601329
20
0.385538
11
0.601255
21
0.385718
0
LINE
8
BLACK
6
CONTINUOUS
10
0.601255
20
0.385718
11
0.601108
21
0.385845
0
LINE
8
BLACK
6
CONTINUOUS
10
0.601108
20
0.385845
11
0.600358
21
0.387345
0
LINE
8
BLACK
6
CONTINUOUS
10
0.600358
20
0.387345
11
0.600339
21
0.387619
0
LINE
8
BLACK
6
CONTINUOUS
10
0.600339
20
0.387619
11
0.600233
21
0.387873
0
LINE
8
BLACK
6
CONTINUOUS
10
0.600233
20
0.387873
11
0.600233
21
0.389373
0
LINE
8
BLACK
6
CONTINUOUS
10
0.600233
20
0.389373
11
0.600339
21
0.389627
0
LINE
8
BLACK
6
CONTINUOUS
10
0.600339
20
0.389627
11
0.600358
21
0.389901
0
LINE
8
BLACK
6
CONTINUOUS
10
0.600358
20
0.389901
11
0.601108
21
0.391401
0
LINE
8
BLACK
6
CONTINUOUS
10
0.601108
20
0.391401
11
0.601255
21
0.391528
0
LINE
8
BLACK
6
CONTINUOUS
10
0.601255
20
0.391528
11
0.601329
21
0.391708
0
LINE
8
BLACK
6
CONTINUOUS
10
0.601329
20
0.391708
11
0.602079
21
0.392458
0
LINE
8
BLACK
6
CONTINUOUS
10
0.602079
20
0.392458
11
0.602259
21
0.392532
0
LINE
8
BLACK
6
CONTINUOUS
10
0.602259
20
0.392532
11
0.602386
21
0.392679
0
LINE
8
BLACK
6
CONTINUOUS
10
0.602386
20
0.392679
11
0.603886
21
0.393429
0
LINE
8
BLACK
6
CONTINUOUS
10
0.603886
20
0.393429
11
0.60402
21
0.393438
0
LINE
8
BLACK
6
CONTINUOUS
10
0.60402
20
0.393438
11
0.604128
21
0.393518
0
LINE
8
BLACK
6
CONTINUOUS
10
0.604128
20
0.393518
11
0.607127
21
0.394268
0
LINE
8
BLACK
6
CONTINUOUS
10
0.607127
20
0.394268
11
0.607275
21
0.394246
0
LINE
8
BLACK
6
CONTINUOUS
10
0.607275
20
0.394246
11
0.607414
21
0.394304
0
LINE
8
BLACK
6
CONTINUOUS
10
0.607414
20
0.394304
11
0.611163
21
0.394304
0
LINE
8
BLACK
6
CONTINUOUS
10
0.611163
20
0.394304
11
0.611302
21
0.394246
0
LINE
8
BLACK
6
CONTINUOUS
10
0.604826
20
0.391258
11
0.603614
21
0.390652
0
LINE
8
BLACK
6
CONTINUOUS
10
0.603614
20
0.390652
11
0.603135
21
0.390173
0
LINE
8
BLACK
6
CONTINUOUS
10
0.603135
20
0.390173
11
0.602596
21
0.389094
0
LINE
8
BLACK
6
CONTINUOUS
10
0.602596
20
0.389094
11
0.602596
21
0.388152
0
LINE
8
BLACK
6
CONTINUOUS
10
0.602596
20
0.388152
11
0.603135
21
0.387073
0
LINE
8
BLACK
6
CONTINUOUS
10
0.603135
20
0.387073
11
0.603614
21
0.386594
0
LINE
8
BLACK
6
CONTINUOUS
10
0.603614
20
0.386594
11
0.604826
21
0.385988
0
LINE
8
BLACK
6
CONTINUOUS
10
0.604826
20
0.385988
11
0.607559
21
0.385305
0
LINE
8
BLACK
6
CONTINUOUS
10
0.607559
20
0.385305
11
0.611018
21
0.385305
0
LINE
8
BLACK
6
CONTINUOUS
10
0.611018
20
0.385305
11
0.613751
21
0.385988
0
LINE
8
BLACK
6
CONTINUOUS
10
0.613751
20
0.385988
11
0.614963
21
0.386594
0
LINE
8
BLACK
6
CONTINUOUS
10
0.614963
20
0.386594
11
0.615442
21
0.387073
0
LINE
8
BLACK
6
CONTINUOUS
10
0.615442
20
0.387073
11
0.615981
21
0.388152
0
LINE
8
BLACK
6
CONTINUOUS
10
0.615981
20
0.388152
11
0.615981
21
0.389094
0
LINE
8
BLACK
6
CONTINUOUS
10
0.615981
20
0.389094
11
0.615442
21
0.390173
0
LINE
8
BLACK
6
CONTINUOUS
10
0.615442
20
0.390173
11
0.614963
21
0.390652
0
LINE
8
BLACK
6
CONTINUOUS
10
0.614963
20
0.390652
11
0.613751
21
0.391258
0
LINE
8
BLACK
6
CONTINUOUS
10
0.613751
20
0.391258
11
0.611018
21
0.391941
0
LINE
8
BLACK
6
CONTINUOUS
10
0.611018
20
0.391941
11
0.607559
21
0.391941
0
LINE
8
BLACK
6
CONTINUOUS
10
0.607559
20
0.391941
11
0.604826
21
0.391258
0
LINE
8
BLACK
6
CONTINUOUS
10
0.617998
20
0.408956
11
0.618344
21
0.408121
0
LINE
8
BLACK
6
CONTINUOUS
10
0.618344
20
0.408121
11
0.618344
21
0.399122
0
LINE
8
BLACK
6
CONTINUOUS
10
0.618344
20
0.399122
11
0.617998
21
0.398287
0
LINE
8
BLACK
6
CONTINUOUS
10
0.617998
20
0.398287
11
0.617162
21
0.397941
0
LINE
8
BLACK
6
CONTINUOUS
10
0.617162
20
0.397941
11
0.616327
21
0.398287
0
LINE
8
BLACK
6
CONTINUOUS
10
0.616327
20
0.398287
11
0.615981
21
0.399122
0
LINE
8
BLACK
6
CONTINUOUS
10
0.615981
20
0.399122
11
0.615981
21
0.40244
0
LINE
8
BLACK
6
CONTINUOUS
10
0.615981
20
0.40244
11
0.601414
21
0.40244
0
LINE
8
BLACK
6
CONTINUOUS
10
0.601414
20
0.40244
11
0.601302
21
0.402487
0
LINE
8
BLACK
6
CONTINUOUS
10
0.601302
20
0.402487
11
0.601183
21
0.402463
0
LINE
8
BLACK
6
CONTINUOUS
10
0.601183
20
0.402463
11
0.600897
21
0.402654
0
LINE
8
BLACK
6
CONTINUOUS
10
0.600897
20
0.402654
11
0.600579
21
0.402786
0
LINE
8
BLACK
6
CONTINUOUS
10
0.600579
20
0.402786
11
0.600533
21
0.402898
0
LINE
8
BLACK
6
CONTINUOUS
10
0.600533
20
0.402898
11
0.600432
21
0.402966
0
LINE
8
BLACK
6
CONTINUOUS
10
0.600432
20
0.402966
11
0.600365
21
0.403303
0
LINE
8
BLACK
6
CONTINUOUS
10
0.600365
20
0.403303
11
0.600233
21
0.403621
0
LINE
8
BLACK
6
CONTINUOUS
10
0.600233
20
0.403621
11
0.60028
21
0.403734
0
LINE
8
BLACK
6
CONTINUOUS
10
0.60028
20
0.403734
11
0.600256
21
0.403853
0
LINE
8
BLACK
6
CONTINUOUS
10
0.600256
20
0.403853
11
0.600448
21
0.404138
0
LINE
8
BLACK
6
CONTINUOUS
10
0.600448
20
0.404138
11
0.600579
21
0.404456
0
LINE
8
BLACK
6
CONTINUOUS
10
0.600579
20
0.404456
11
0.600692
21
0.404503
0
LINE
8
BLACK
6
CONTINUOUS
10
0.600692
20
0.404503
11
0.600759
21
0.404604
0
LINE
8
BLACK
6
CONTINUOUS
10
0.600759
20
0.404604
11
0.602912
21
0.406039
0
LINE
8
BLACK
6
CONTINUOUS
10
0.602912
20
0.406039
11
0.604193
21
0.40732
0
LINE
8
BLACK
6
CONTINUOUS
10
0.604193
20
0.40732
11
0.604857
21
0.408649
0
LINE
8
BLACK
6
CONTINUOUS
10
0.604857
20
0.408649
11
0.60554
21
0.409241
0
LINE
8
BLACK
6
CONTINUOUS
10
0.60554
20
0.409241
11
0.606442
21
0.409177
0
LINE
8
BLACK
6
CONTINUOUS
10
0.606442
20
0.409177
11
0.607034
21
0.408494
0
LINE
8
BLACK
6
CONTINUOUS
10
0.607034
20
0.408494
11
0.60697
21
0.407592
0
LINE
8
BLACK
6
CONTINUOUS
10
0.60697
20
0.407592
11
0.60622
21
0.406093
0
LINE
8
BLACK
6
CONTINUOUS
10
0.60622
20
0.406093
11
0.606074
21
0.405965
0
LINE
8
BLACK
6
CONTINUOUS
10
0.606074
20
0.405965
11
0.605999
21
0.405786
0
LINE
8
BLACK
6
CONTINUOUS
10
0.605999
20
0.405786
11
0.605016
21
0.404802
0
LINE
8
BLACK
6
CONTINUOUS
10
0.605016
20
0.404802
11
0.615981
21
0.404802
0
LINE
8
BLACK
6
CONTINUOUS
10
0.615981
20
0.404802
11
0.615981
21
0.408121
0
LINE
8
BLACK
6
CONTINUOUS
10
0.615981
20
0.408121
11
0.616327
21
0.408956
0
LINE
8
BLACK
6
CONTINUOUS
10
0.616327
20
0.408956
11
0.617162
21
0.409302
0
LINE
8
BLACK
6
CONTINUOUS
10
0.617162
20
0.409302
11
0.617998
21
0.408956
0
LINE
8
BLACK
6
CONTINUOUS
10
0.617998
20
0.423954
11
0.618344
21
0.423119
0
LINE
8
BLACK
6
CONTINUOUS
10
0.618344
20
0.423119
11
0.617998
21
0.422284
0
LINE
8
BLACK
6
CONTINUOUS
10
0.617998
20
0.422284
11
0.617162
21
0.421938
0
LINE
8
BLACK
6
CONTINUOUS
10
0.617162
20
0.421938
11
0.610845
21
0.421938
0
LINE
8
BLACK
6
CONTINUOUS
10
0.610845
20
0.421938
11
0.610845
21
0.419984
0
LINE
8
BLACK
6
CONTINUOUS
10
0.610845
20
0.419984
11
0.61784
21
0.415087
0
LINE
8
BLACK
6
CONTINUOUS
10
0.61784
20
0.415087
11
0.618326
21
0.414325
0
LINE
8
BLACK
6
CONTINUOUS
10
0.618326
20
0.414325
11
0.61813
21
0.413442
0
LINE
8
BLACK
6
CONTINUOUS
10
0.61813
20
0.413442
11
0.617368
21
0.412957
0
LINE
8
BLACK
6
CONTINUOUS
10
0.617368
20
0.412957
11
0.616485
21
0.413152
0
LINE
8
BLACK
6
CONTINUOUS
10
0.616485
20
0.413152
11
0.610838
21
0.417105
0
LINE
8
BLACK
6
CONTINUOUS
10
0.610838
20
0.417105
11
0.610739
21
0.416865
0
LINE
8
BLACK
6
CONTINUOUS
10
0.610739
20
0.416865
11
0.61072
21
0.416591
0
LINE
8
BLACK
6
CONTINUOUS
10
0.61072
20
0.416591
11
0.60997
21
0.415091
0
LINE
8
BLACK
6
CONTINUOUS
10
0.60997
20
0.415091
11
0.609823
21
0.414964
0
LINE
8
BLACK
6
CONTINUOUS
10
0.609823
20
0.414964
11
0.609749
21
0.414784
0
LINE
8
BLACK
6
CONTINUOUS
10
0.609749
20
0.414784
11
0.608999
21
0.414035
0
LINE
8
BLACK
6
CONTINUOUS
10
0.608999
20
0.414035
11
0.608819
21
0.41396
0
LINE
8
BLACK
6
CONTINUOUS
10
0.608819
20
0.41396
11
0.608692
21
0.413813
0
LINE
8
BLACK
6
CONTINUOUS
10
0.608692
20
0.413813
11
0.607192
21
0.413063
0
LINE
8
BLACK
6
CONTINUOUS
10
0.607192
20
0.413063
11
0.606918
21
0.413044
0
LINE
8
BLACK
6
CONTINUOUS
10
0.606918
20
0.413044
11
0.606664
21
0.412939
0
LINE
8
BLACK
6
CONTINUOUS
10
0.606664
20
0.412939
11
0.604414
21
0.412939
0
LINE
8
BLACK
6
CONTINUOUS
10
0.604414
20
0.412939
11
0.60416
21
0.413044
0
LINE
8
BLACK
6
CONTINUOUS
10
0.60416
20
0.413044
11
0.603886
21
0.413063
0
LINE
8
BLACK
6
CONTINUOUS
10
0.603886
20
0.413063
11
0.602386
21
0.413813
0
LINE
8
BLACK
6
CONTINUOUS
10
0.602386
20
0.413813
11
0.602259
21
0.41396
0
LINE
8
BLACK
6
CONTINUOUS
10
0.602259
20
0.41396
11
0.602079
21
0.414035
0
LINE
8
BLACK
6
CONTINUOUS
10
0.602079
20
0.414035
11
0.601329
21
0.414784
0
LINE
8
BLACK
6
CONTINUOUS
10
0.601329
20
0.414784
11
0.601255
21
0.414964
0
LINE
8
BLACK
6
CONTINUOUS
10
0.601255
20
0.414964
11
0.601108
21
0.415091
0
LINE
8
BLACK
6
CONTINUOUS
10
0.601108
20
0.415091
11
0.600358
21
0.416591
0
LINE
8
BLACK
6
CONTINUOUS
10
0.600358
20
0.416591
11
0.600339
21
0.416865
0
LINE
8
BLACK
6
CONTINUOUS
10
0.600339
20
0.416865
11
0.600233
21
0.417119
0
LINE
8
BLACK
6
CONTINUOUS
10
0.600233
20
0.417119
11
0.600233
21
0.423119
0
LINE
8
BLACK
6
CONTINUOUS
10
0.600233
20
0.423119
11
0.600579
21
0.423954
0
LINE
8
BLACK
6
CONTINUOUS
10
0.600579
20
0.423954
11
0.601414
21
0.4243
0
LINE
8
BLACK
6
CONTINUOUS
10
0.601414
20
0.4243
11
0.617162
21
0.4243
0
LINE
8
BLACK
6
CONTINUOUS
10
0.617162
20
0.4243
11
0.617998
21
0.423954
0
LINE
8
BLACK
6
CONTINUOUS
10
0.602596
20
0.417398
11
0.603135
21
0.416319
0
LINE
8
BLACK
6
CONTINUOUS
10
0.603135
20
0.416319
11
0.603614
21
0.41584
0
LINE
8
BLACK
6
CONTINUOUS
10
0.603614
20
0.41584
11
0.604693
21
0.415301
0
LINE
8
BLACK
6
CONTINUOUS
10
0.604693
20
0.415301
11
0.606385
21
0.415301
0
LINE
8
BLACK
6
CONTINUOUS
10
0.606385
20
0.415301
11
0.607464
21
0.41584
0
LINE
8
BLACK
6
CONTINUOUS
10
0.607464
20
0.41584
11
0.607943
21
0.416319
0
LINE
8
BLACK
6
CONTINUOUS
10
0.607943
20
0.416319
11
0.608482
21
0.417398
0
LINE
8
BLACK
6
CONTINUOUS
10
0.608482
20
0.417398
11
0.608482
21
0.421938
0
LINE
8
BLACK
6
CONTINUOUS
10
0.608482
20
0.421938
11
0.602596
21
0.421938
0
LINE
8
BLACK
6
CONTINUOUS
10
0.602596
20
0.421938
11
0.602596
21
0.417398
0
LINE
8
BLACK
6
CONTINUOUS
10
0.625748
20
0.437461
11
0.62714
21
0.436884
0
LINE
8
BLACK
6
CONTINUOUS
10
0.62714
20
0.436884
11
0.627717
21
0.435492
0
LINE
8
BLACK
6
CONTINUOUS
10
0.627717
20
0.435492
11
0.627717
21
0.3725
0
LINE
8
BLACK
6
CONTINUOUS
10
0.627717
20
0.3725
11
0.62714
21
0.371108
0
LINE
8
BLACK
6
CONTINUOUS
10
0.62714
20
0.371108
11
0.625748
21
0.370531
0
LINE
8
BLACK
6
CONTINUOUS
10
0.625748
20
0.370531
11
0.594252
21
0.370531
0
LINE
8
BLACK
6
CONTINUOUS
10
0.594252
20
0.370531
11
0.59286
21
0.371108
0
LINE
8
BLACK
6
CONTINUOUS
10
0.59286
20
0.371108
11
0.592283
21
0.3725
0
LINE
8
BLACK
6
CONTINUOUS
10
0.592283
20
0.3725
11
0.592283
21
0.435492
0
LINE
8
BLACK
6
CONTINUOUS
10
0.592283
20
0.435492
11
0.59286
21
0.436884
0
LINE
8
BLACK
6
CONTINUOUS
10
0.59286
20
0.436884
11
0.594252
21
0.437461
0
LINE
8
BLACK
6
CONTINUOUS
10
0.594252
20
0.437461
11
0.625748
21
0.437461
0
LINE
8
BLACK
6
CONTINUOUS
10
0.59622
20
0.433524
11
0.59622
21
0.374469
0
LINE
8
BLACK
6
CONTINUOUS
10
0.59622
20
0.374469
11
0.62378
21
0.374469
0
LINE
8
BLACK
6
CONTINUOUS
10
0.62378
20
0.374469
11
0.62378
21
0.433524
0
LINE
8
BLACK
6
CONTINUOUS
10
0.62378
20
0.433524
11
0.59622
21
0.433524
0
LINE
8
BLACK
6
CONTINUOUS
10
0.706498
20
0.403211
11
0.707248
21
0.402461
0
LINE
8
BLACK
6
CONTINUOUS
10
0.707248
20
0.402461
11
0.707322
21
0.402281
0
LINE
8
BLACK
6
CONTINUOUS
10
0.707322
20
0.402281
11
0.707469
21
0.402154
0
LINE
8
BLACK
6
CONTINUOUS
10
0.707469
20
0.402154
11
0.708219
21
0.400654
0
LINE
8
BLACK
6
CONTINUOUS
10
0.708219
20
0.400654
11
0.708238
21
0.40038
0
LINE
8
BLACK
6
CONTINUOUS
10
0.708238
20
0.40038
11
0.708344
21
0.400126
0
LINE
8
BLACK
6
CONTINUOUS
10
0.708344
20
0.400126
11
0.708344
21
0.395626
0
LINE
8
BLACK
6
CONTINUOUS
10
0.708344
20
0.395626
11
0.708238
21
0.395372
0
LINE
8
BLACK
6
CONTINUOUS
10
0.708238
20
0.395372
11
0.708219
21
0.395098
0
LINE
8
BLACK
6
CONTINUOUS
10
0.708219
20
0.395098
11
0.707469
21
0.393598
0
LINE
8
BLACK
6
CONTINUOUS
10
0.707469
20
0.393598
11
0.707322
21
0.393471
0
LINE
8
BLACK
6
CONTINUOUS
10
0.707322
20
0.393471
11
0.707248
21
0.393291
0
LINE
8
BLACK
6
CONTINUOUS
10
0.707248
20
0.393291
11
0.706498
21
0.392541
0
LINE
8
BLACK
6
CONTINUOUS
10
0.706498
20
0.392541
11
0.706318
21
0.392467
0
LINE
8
BLACK
6
CONTINUOUS
10
0.706318
20
0.392467
11
0.706191
21
0.39232
0
LINE
8
BLACK
6
CONTINUOUS
10
0.706191
20
0.39232
11
0.704691
21
0.39157
0
LINE
8
BLACK
6
CONTINUOUS
10
0.704691
20
0.39157
11
0.704417
21
0.391551
0
LINE
8
BLACK
6
CONTINUOUS
10
0.704417
20
0.391551
11
0.704163
21
0.391445
0
LINE
8
BLACK
6
CONTINUOUS
10
0.704163
20
0.391445
11
0.700413
21
0.391445
0
LINE
8
BLACK
6
CONTINUOUS
10
0.700413
20
0.391445
11
0.700159
21
0.391551
0
LINE
8
BLACK
6
CONTINUOUS
10
0.700159
20
0.391551
11
0.699885
21
0.39157
0
LINE
8
BLACK
6
CONTINUOUS
10
0.699885
20
0.39157
11
0.698385
21
0.39232
0
LINE
8
BLACK
6
CONTINUOUS
10
0.698385
20
0.39232
11
0.698258
21
0.392467
0
LINE
8
BLACK
6
CONTINUOUS
10
0.698258
20
0.392467
11
0.698078
21
0.392541
0
LINE
8
BLACK
6
CONTINUOUS
10
0.698078
20
0.392541
11
0.697328
21
0.393291
0
LINE
8
BLACK
6
CONTINUOUS
10
0.697328
20
0.393291
11
0.697254
21
0.393471
0
LINE
8
BLACK
6
CONTINUOUS
10
0.697254
20
0.393471
11
0.697107
21
0.393598
0
LINE
8
BLACK
6
CONTINUOUS
10
0.697107
20
0.393598
11
0.696357
21
0.395098
0
LINE
8
BLACK
6
CONTINUOUS
10
0.696357
20
0.395098
11
0.696338
21
0.395366
0
LINE
8
BLACK
6
CONTINUOUS
10
0.696338
20
0.395366
11
0.692192
21
0.391738
0
LINE
8
BLACK
6
CONTINUOUS
10
0.692192
20
0.391738
11
0.691799
21
0.391605
0
LINE
8
BLACK
6
CONTINUOUS
10
0.691799
20
0.391605
11
0.691414
21
0.391445
0
LINE
8
BLACK
6
CONTINUOUS
10
0.691414
20
0.391445
11
0.691376
21
0.391462
0
LINE
8
BLACK
6
CONTINUOUS
10
0.691376
20
0.391462
11
0.691336
21
0.391448
0
LINE
8
BLACK
6
CONTINUOUS
10
0.691336
20
0.391448
11
0.690963
21
0.391632
0
LINE
8
BLACK
6
CONTINUOUS
10
0.690963
20
0.391632
11
0.690579
21
0.391791
0
LINE
8
BLACK
6
CONTINUOUS
10
0.690579
20
0.391791
11
0.690563
21
0.39183
0
LINE
8
BLACK
6
CONTINUOUS
10
0.690563
20
0.39183
11
0.690526
21
0.391849
0
LINE
8
BLACK
6
CONTINUOUS
10
0.690526
20
0.391849
11
0.690392
21
0.392242
0
LINE
8
BLACK
6
CONTINUOUS
10
0.690392
20
0.392242
11
0.690233
21
0.392627
0
LINE
8
BLACK
6
CONTINUOUS
10
0.690233
20
0.392627
11
0.690233
21
0.402375
0
LINE
8
BLACK
6
CONTINUOUS
10
0.690233
20
0.402375
11
0.690579
21
0.403211
0
LINE
8
BLACK
6
CONTINUOUS
10
0.690579
20
0.403211
11
0.691414
21
0.403556
0
LINE
8
BLACK
6
CONTINUOUS
10
0.691414
20
0.403556
11
0.69225
21
0.403211
0
LINE
8
BLACK
6
CONTINUOUS
10
0.69225
20
0.403211
11
0.692596
21
0.402375
0
LINE
8
BLACK
6
CONTINUOUS
10
0.692596
20
0.402375
11
0.692596
21
0.395229
0
LINE
8
BLACK
6
CONTINUOUS
10
0.692596
20
0.395229
11
0.696636
21
0.398765
0
LINE
8
BLACK
6
CONTINUOUS
10
0.696636
20
0.398765
11
0.697029
21
0.398898
0
LINE
8
BLACK
6
CONTINUOUS
10
0.697029
20
0.398898
11
0.697414
21
0.399057
0
LINE
8
BLACK
6
CONTINUOUS
10
0.697414
20
0.399057
11
0.697453
21
0.399041
0
LINE
8
BLACK
6
CONTINUOUS
10
0.697453
20
0.399041
11
0.697492
21
0.399054
0
LINE
8
BLACK
6
CONTINUOUS
10
0.697492
20
0.399054
11
0.697865
21
0.39887
0
LINE
8
BLACK
6
CONTINUOUS
10
0.697865
20
0.39887
11
0.698249
21
0.398711
0
LINE
8
BLACK
6
CONTINUOUS
10
0.698249
20
0.398711
11
0.698265
21
0.398672
0
LINE
8
BLACK
6
CONTINUOUS
10
0.698265
20
0.398672
11
0.698303
21
0.398654
0
LINE
8
BLACK
6
CONTINUOUS
10
0.698303
20
0.398654
11
0.698436
21
0.39826
0
LINE
8
BLACK
6
CONTINUOUS
10
0.698436
20
0.39826
11
0.698595
21
0.397876
0
LINE
8
BLACK
6
CONTINUOUS
10
0.698595
20
0.397876
11
0.698595
21
0.395905
0
LINE
8
BLACK
6
CONTINUOUS
10
0.698595
20
0.395905
11
0.699134
21
0.394826
0
LINE
8
BLACK
6
CONTINUOUS
10
0.699134
20
0.394826
11
0.699613
21
0.394347
0
LINE
8
BLACK
6
CONTINUOUS
10
0.699613
20
0.394347
11
0.700692
21
0.393808
0
LINE
8
BLACK
6
CONTINUOUS
10
0.700692
20
0.393808
11
0.703884
21
0.393808
0
LINE
8
BLACK
6
CONTINUOUS
10
0.703884
20
0.393808
11
0.704963
21
0.394347
0
LINE
8
BLACK
6
CONTINUOUS
10
0.704963
20
0.394347
11
0.705442
21
0.394826
0
LINE
8
BLACK
6
CONTINUOUS
10
0.705442
20
0.394826
11
0.705981
21
0.395905
0
LINE
8
BLACK
6
CONTINUOUS
10
0.705981
20
0.395905
11
0.705981
21
0.399847
0
LINE
8
BLACK
6
CONTINUOUS
10
0.705981
20
0.399847
11
0.705442
21
0.400926
0
LINE
8
BLACK
6
CONTINUOUS
10
0.705442
20
0.400926
11
0.704828
21
0.40154
0
LINE
8
BLACK
6
CONTINUOUS
10
0.704828
20
0.40154
11
0.704482
21
0.402375
0
LINE
8
BLACK
6
CONTINUOUS
10
0.704482
20
0.402375
11
0.704828
21
0.403211
0
LINE
8
BLACK
6
CONTINUOUS
10
0.704828
20
0.403211
11
0.705663
21
0.403556
0
LINE
8
BLACK
6
CONTINUOUS
10
0.705663
20
0.403556
11
0.706498
21
0.403211
0
LINE
8
BLACK
6
CONTINUOUS
10
0.707998
20
0.417459
11
0.708344
21
0.416624
0
LINE
8
BLACK
6
CONTINUOUS
10
0.708344
20
0.416624
11
0.707998
21
0.415788
0
LINE
8
BLACK
6
CONTINUOUS
10
0.707998
20
0.415788
11
0.707162
21
0.415442
0
LINE
8
BLACK
6
CONTINUOUS
10
0.707162
20
0.415442
11
0.700845
21
0.415442
0
LINE
8
BLACK
6
CONTINUOUS
10
0.700845
20
0.415442
11
0.700845
21
0.413489
0
LINE
8
BLACK
6
CONTINUOUS
10
0.700845
20
0.413489
11
0.70784
21
0.408592
0
LINE
8
BLACK
6
CONTINUOUS
10
0.70784
20
0.408592
11
0.708326
21
0.40783
0
LINE
8
BLACK
6
CONTINUOUS
10
0.708326
20
0.40783
11
0.70813
21
0.406947
0
LINE
8
BLACK
6
CONTINUOUS
10
0.70813
20
0.406947
11
0.707368
21
0.406462
0
LINE
8
BLACK
6
CONTINUOUS
10
0.707368
20
0.406462
11
0.706485
21
0.406657
0
LINE
8
BLACK
6
CONTINUOUS
10
0.706485
20
0.406657
11
0.700838
21
0.41061
0
LINE
8
BLACK
6
CONTINUOUS
10
0.700838
20
0.41061
11
0.700739
21
0.41037
0
LINE
8
BLACK
6
CONTINUOUS
10
0.700739
20
0.41037
11
0.70072
21
0.410096
0
LINE
8
BLACK
6
CONTINUOUS
10
0.70072
20
0.410096
11
0.69997
21
0.408596
0
LINE
8
BLACK
6
CONTINUOUS
10
0.69997
20
0.408596
11
0.699823
21
0.408469
0
LINE
8
BLACK
6
CONTINUOUS
10
0.699823
20
0.408469
11
0.699749
21
0.408289
0
LINE
8
BLACK
6
CONTINUOUS
10
0.699749
20
0.408289
11
0.698999
21
0.407539
0
LINE
8
BLACK
6
CONTINUOUS
10
0.698999
20
0.407539
11
0.698819
21
0.407465
0
LINE
8
BLACK
6
CONTINUOUS
10
0.698819
20
0.407465
11
0.698692
21
0.407318
0
LINE
8
BLACK
6
CONTINUOUS
10
0.698692
20
0.407318
11
0.697192
21
0.406568
0
LINE
8
BLACK
6
CONTINUOUS
10
0.697192
20
0.406568
11
0.696918
21
0.406549
0
LINE
8
BLACK
6
CONTINUOUS
10
0.696918
20
0.406549
11
0.696664
21
0.406444
0
LINE
8
BLACK
6
CONTINUOUS
10
0.696664
20
0.406444
11
0.694414
21
0.406444
0
LINE
8
BLACK
6
CONTINUOUS
10
0.694414
20
0.406444
11
0.69416
21
0.406549
0
LINE
8
BLACK
6
CONTINUOUS
10
0.69416
20
0.406549
11
0.693886
21
0.406568
0
LINE
8
BLACK
6
CONTINUOUS
10
0.693886
20
0.406568
11
0.692386
21
0.407318
0
LINE
8
BLACK
6
CONTINUOUS
10
0.692386
20
0.407318
11
0.692259
21
0.407465
0
LINE
8
BLACK
6
CONTINUOUS
10
0.692259
20
0.407465
11
0.692079
21
0.407539
0
LINE
8
BLACK
6
CONTINUOUS
10
0.692079
20
0.407539
11
0.691329
21
0.408289
0
LINE
8
BLACK
6
CONTINUOUS
10
0.691329
20
0.408289
11
0.691255
21
0.408469
0
LINE
8
BLACK
6
CONTINUOUS
10
0.691255
20
0.408469
11
0.691108
21
0.408596
0
LINE
8
BLACK
6
CONTINUOUS
10
0.691108
20
0.408596
11
0.690358
21
0.410096
0
LINE
8
BLACK
6
CONTINUOUS
10
0.690358
20
0.410096
11
0.690339
21
0.41037
0
LINE
8
BLACK
6
CONTINUOUS
10
0.690339
20
0.41037
11
0.690233
21
0.410624
0
LINE
8
BLACK
6
CONTINUOUS
10
0.690233
20
0.410624
11
0.690233
21
0.416624
0
LINE
8
BLACK
6
CONTINUOUS
10
0.690233
20
0.416624
11
0.690579
21
0.417459
0
LINE
8
BLACK
6
CONTINUOUS
10
0.690579
20
0.417459
11
0.691414
21
0.417805
0
LINE
8
BLACK
6
CONTINUOUS
10
0.691414
20
0.417805
11
0.707162
21
0.417805
0
LINE
8
BLACK
6
CONTINUOUS
10
0.707162
20
0.417805
11
0.707998
21
0.417459
0
LINE
8
BLACK
6
CONTINUOUS
10
0.692596
20
0.410903
11
0.693135
21
0.409824
0
LINE
8
BLACK
6
CONTINUOUS
10
0.693135
20
0.409824
11
0.693614
21
0.409345
0
LINE
8
BLACK
6
CONTINUOUS
10
0.693614
20
0.409345
11
0.694693
21
0.408806
0
LINE
8
BLACK
6
CONTINUOUS
10
0.694693
20
0.408806
11
0.696385
21
0.408806
0
LINE
8
BLACK
6
CONTINUOUS
10
0.696385
20
0.408806
11
0.697464
21
0.409345
0
LINE
8
BLACK
6
CONTINUOUS
10
0.697464
20
0.409345
11
0.697943
21
0.409824
0
LINE
8
BLACK
6
CONTINUOUS
10
0.697943
20
0.409824
11
0.698482
21
0.410903
0
LINE
8
BLACK
6
CONTINUOUS
10
0.698482
20
0.410903
11
0.698482
21
0.415442
0
LINE
8
BLACK
6
CONTINUOUS
10
0.698482
20
0.415442
11
0.692596
21
0.415442
0
LINE
8
BLACK
6
CONTINUOUS
10
0.692596
20
0.415442
11
0.692596
21
0.410903
0
LINE
8
BLACK
6
CONTINUOUS
10
0.715748
20
0.438465
11
0.71714
21
0.437888
0
LINE
8
BLACK
6
CONTINUOUS
10
0.71714
20
0.437888
11
0.717717
21
0.436496
0
LINE
8
BLACK
6
CONTINUOUS
10
0.717717
20
0.436496
11
0.717717
21
0.373504
0
LINE
8
BLACK
6
CONTINUOUS
10
0.717717
20
0.373504
11
0.71714
21
0.372112
0
LINE
8
BLACK
6
CONTINUOUS
10
0.71714
20
0.372112
11
0.715748
21
0.371535
0
LINE
8
BLACK
6
CONTINUOUS
10
0.715748
20
0.371535
11
0.684252
21
0.371535
0
LINE
8
BLACK
6
CONTINUOUS
10
0.684252
20
0.371535
11
0.68286
21
0.372112
0
LINE
8
BLACK
6
CONTINUOUS
10
0.68286
20
0.372112
11
0.682283
21
0.373504
0
LINE
8
BLACK
6
CONTINUOUS
10
0.682283
20
0.373504
11
0.682283
21
0.436496
0
LINE
8
BLACK
6
CONTINUOUS
10
0.682283
20
0.436496
11
0.68286
21
0.437888
0
LINE
8
BLACK
6
CONTINUOUS
10
0.68286
20
0.437888
11
0.684252
21
0.438465
0
LINE
8
BLACK
6
CONTINUOUS
10
0.684252
20
0.438465
11
0.715748
21
0.438465
0
LINE
8
BLACK
6
CONTINUOUS
10
0.68622
20
0.434528
11
0.68622
21
0.375472
0
LINE
8
BLACK
6
CONTINUOUS
10
0.68622
20
0.375472
11
0.71378
21
0.375472
0
LINE
8
BLACK
6
CONTINUOUS
10
0.71378
20
0.375472
11
0.71378
21
0.434528
0
LINE
8
BLACK
6
CONTINUOUS
10
0.71378
20
0.434528
11
0.68622
21
0.434528
0
LINE
8
BLACK
6
CONTINUOUS
10
0.427549
20
0.405379
11
0.427819
21
0.405419
0
LINE
8
BLACK
6
CONTINUOUS
10
0.427819
20
0.405419
11
0.431571
21
0.404481
0
LINE
8
BLACK
6
CONTINUOUS
10
0.431571
20
0.404481
11
0.431768
21
0.404335
0
LINE
8
BLACK
6
CONTINUOUS
10
0.431768
20
0.404335
11
0.432011
21
0.404318
0
LINE
8
BLACK
6
CONTINUOUS
10
0.432011
20
0.404318
11
0.433888
21
0.40338
0
LINE
8
BLACK
6
CONTINUOUS
10
0.433888
20
0.40338
11
0.434119
21
0.403112
0
LINE
8
BLACK
6
CONTINUOUS
10
0.434119
20
0.403112
11
0.434446
21
0.402977
0
LINE
8
BLACK
6
CONTINUOUS
10
0.434446
20
0.402977
11
0.436323
21
0.401101
0
LINE
8
BLACK
6
CONTINUOUS
10
0.436323
20
0.401101
11
0.436514
21
0.400639
0
LINE
8
BLACK
6
CONTINUOUS
10
0.436514
20
0.400639
11
0.436842
21
0.40026
0
LINE
8
BLACK
6
CONTINUOUS
10
0.436842
20
0.40026
11
0.43778
21
0.397446
0
LINE
8
BLACK
6
CONTINUOUS
10
0.43778
20
0.397446
11
0.437755
21
0.397093
0
LINE
8
BLACK
6
CONTINUOUS
10
0.437755
20
0.397093
11
0.43789
21
0.396766
0
LINE
8
BLACK
6
CONTINUOUS
10
0.43789
20
0.396766
11
0.43789
21
0.39489
0
LINE
8
BLACK
6
CONTINUOUS
10
0.43789
20
0.39489
11
0.437755
21
0.394563
0
LINE
8
BLACK
6
CONTINUOUS
10
0.437755
20
0.394563
11
0.43778
21
0.39421
0
LINE
8
BLACK
6
CONTINUOUS
10
0.43778
20
0.39421
11
0.436842
21
0.391396
0
LINE
8
BLACK
6
CONTINUOUS
10
0.436842
20
0.391396
11
0.436514
21
0.391018
0
LINE
8
BLACK
6
CONTINUOUS
10
0.436514
20
0.391018
11
0.436323
21
0.390556
0
LINE
8
BLACK
6
CONTINUOUS
10
0.436323
20
0.390556
11
0.435384
21
0.389617
0
LINE
8
BLACK
6
CONTINUOUS
10
0.435384
20
0.389617
11
0.433864
21
0.388988
0
LINE
8
BLACK
6
CONTINUOUS
10
0.433864
20
0.388988
11
0.432344
21
0.389617
0
LINE
8
BLACK
6
CONTINUOUS
10
0.432344
20
0.389617
11
0.431714
21
0.391138
0
LINE
8
BLACK
6
CONTINUOUS
10
0.431714
20
0.391138
11
0.432344
21
0.392658
0
LINE
8
BLACK
6
CONTINUOUS
10
0.432344
20
0.392658
11
0.432923
21
0.393237
0
LINE
8
BLACK
6
CONTINUOUS
10
0.432923
20
0.393237
11
0.43359
21
0.395239
0
LINE
8
BLACK
6
CONTINUOUS
10
0.43359
20
0.395239
11
0.43359
21
0.396417
0
LINE
8
BLACK
6
CONTINUOUS
10
0.43359
20
0.396417
11
0.432923
21
0.398419
0
LINE
8
BLACK
6
CONTINUOUS
10
0.432923
20
0.398419
11
0.431652
21
0.39969
0
LINE
8
BLACK
6
CONTINUOUS
10
0.431652
20
0.39969
11
0.430299
21
0.400366
0
LINE
8
BLACK
6
CONTINUOUS
10
0.430299
20
0.400366
11
0.427033
21
0.401183
0
LINE
8
BLACK
6
CONTINUOUS
10
0.427033
20
0.401183
11
0.424748
21
0.401183
0
LINE
8
BLACK
6
CONTINUOUS
10
0.424748
20
0.401183
11
0.421481
21
0.400366
0
LINE
8
BLACK
6
CONTINUOUS
10
0.421481
20
0.400366
11
0.420128
21
0.39969
0
LINE
8
BLACK
6
CONTINUOUS
10
0.420128
20
0.39969
11
0.418858
21
0.398419
0
LINE
8
BLACK
6
CONTINUOUS
10
0.418858
20
0.398419
11
0.41819
21
0.396417
0
LINE
8
BLACK
6
CONTINUOUS
10
0.41819
20
0.396417
11
0.41819
21
0.395239
0
LINE
8
BLACK
6
CONTINUOUS
10
0.41819
20
0.395239
11
0.418858
21
0.393237
0
LINE
8
BLACK
6
CONTINUOUS
10
0.418858
20
0.393237
11
0.419437
21
0.392658
0
LINE
8
BLACK
6
CONTINUOUS
10
0.419437
20
0.392658
11
0.420067
21
0.391138
0
LINE
8
BLACK
6
CONTINUOUS
10
0.420067
20
0.391138
11
0.419437
21
0.389617
0
LINE
8
BLACK
6
CONTINUOUS
10
0.419437
20
0.389617
11
0.417916
21
0.388988
0
LINE
8
BLACK
6
CONTINUOUS
10
0.417916
20
0.388988
11
0.416396
21
0.389617
0
LINE
8
BLACK
6
CONTINUOUS
10
0.416396
20
0.389617
11
0.415458
21
0.390556
0
LINE
8
BLACK
6
CONTINUOUS
10
0.415458
20
0.390556
11
0.415267
21
0.391018
0
LINE
8
BLACK
6
CONTINUOUS
10
0.415267
20
0.391018
11
0.414939
21
0.391396
0
LINE
8
BLACK
6
CONTINUOUS
10
0.414939
20
0.391396
11
0.414001
21
0.39421
0
LINE
8
BLACK
6
CONTINUOUS
10
0.414001
20
0.39421
11
0.414026
21
0.394563
0
LINE
8
BLACK
6
CONTINUOUS
10
0.414026
20
0.394563
11
0.41389
21
0.39489
0
LINE
8
BLACK
6
CONTINUOUS
10
0.41389
20
0.39489
11
0.41389
21
0.396766
0
LINE
8
BLACK
6
CONTINUOUS
10
0.41389
20
0.396766
11
0.414026
21
0.397093
0
LINE
8
BLACK
6
CONTINUOUS
10
0.414026
20
0.397093
11
0.414001
21
0.397446
0
LINE
8
BLACK
6
CONTINUOUS
10
0.414001
20
0.397446
11
0.414939
21
0.40026
0
LINE
8
BLACK
6
CONTINUOUS
10
0.414939
20
0.40026
11
0.415267
21
0.400639
0
LINE
8
BLACK
6
CONTINUOUS
10
0.415267
20
0.400639
11
0.415458
21
0.401101
0
LINE
8
BLACK
6
CONTINUOUS
10
0.415458
20
0.401101
11
0.417334
21
0.402977
0
LINE
8
BLACK
6
CONTINUOUS
10
0.417334
20
0.402977
11
0.417661
21
0.403112
0
LINE
8
BLACK
6
CONTINUOUS
10
0.417661
20
0.403112
11
0.417893
21
0.40338
0
LINE
8
BLACK
6
CONTINUOUS
10
0.417893
20
0.40338
11
0.419769
21
0.404318
0
LINE
8
BLACK
6
CONTINUOUS
10
0.419769
20
0.404318
11
0.420013
21
0.404335
0
LINE
8
BLACK
6
CONTINUOUS
10
0.420013
20
0.404335
11
0.420209
21
0.404481
0
LINE
8
BLACK
6
CONTINUOUS
10
0.420209
20
0.404481
11
0.423962
21
0.405419
0
LINE
8
BLACK
6
CONTINUOUS
10
0.423962
20
0.405419
11
0.424231
21
0.405379
0
LINE
8
BLACK
6
CONTINUOUS
10
0.424231
20
0.405379
11
0.424483
21
0.405483
0
LINE
8
BLACK
6
CONTINUOUS
10
0.424483
20
0.405483
11
0.427298
21
0.405483
0
LINE
8
BLACK
6
CONTINUOUS
10
0.427298
20
0.405483
11
0.427549
21
0.405379
0
LINE
8
BLACK
6
CONTINUOUS
10
0.456407
20
0.452649
11
0.456536
21
0.452672
0
LINE
8
BLACK
6
CONTINUOUS
10
0.456536
20
0.452672
11
0.45665
21
0.452606
0
LINE
8
BLACK
6
CONTINUOUS
10
0.45665
20
0.452606
11
0.457034
21
0.452538
0
LINE
8
BLACK
6
CONTINUOUS
10
0.457034
20
0.452538
11
0.457621
21
0.452045
0
LINE
8
BLACK
6
CONTINUOUS
10
0.457621
20
0.452045
11
0.458286
21
0.451662
0
LINE
8
BLACK
6
CONTINUOUS
10
0.458286
20
0.451662
11
0.458377
21
0.451411
0
LINE
8
BLACK
6
CONTINUOUS
10
0.458377
20
0.451411
11
0.458581
21
0.45124
0
LINE
8
BLACK
6
CONTINUOUS
10
0.458581
20
0.45124
11
0.458714
21
0.450485
0
LINE
8
BLACK
6
CONTINUOUS
10
0.458714
20
0.450485
11
0.458976
21
0.449764
0
LINE
8
BLACK
6
CONTINUOUS
10
0.458976
20
0.449764
11
0.458976
21
0.409764
0
LINE
8
BLACK
6
CONTINUOUS
10
0.458976
20
0.409764
11
0.458798
21
0.408754
0
LINE
8
BLACK
6
CONTINUOUS
10
0.458798
20
0.408754
11
0.4575
21
0.407207
0
LINE
8
BLACK
6
CONTINUOUS
10
0.4575
20
0.407207
11
0.455511
21
0.406856
0
LINE
8
BLACK
6
CONTINUOUS
10
0.455511
20
0.406856
11
0.453762
21
0.407866
0
LINE
8
BLACK
6
CONTINUOUS
10
0.453762
20
0.407866
11
0.453071
21
0.409764
0
LINE
8
BLACK
6
CONTINUOUS
10
0.453071
20
0.409764
11
0.453071
21
0.446811
0
LINE
8
BLACK
6
CONTINUOUS
10
0.453071
20
0.446811
11
0.398976
21
0.446811
0
LINE
8
BLACK
6
CONTINUOUS
10
0.398976
20
0.446811
11
0.398976
21
0.409764
0
LINE
8
BLACK
6
CONTINUOUS
10
0.398976
20
0.409764
11
0.398798
21
0.408754
0
LINE
8
BLACK
6
CONTINUOUS
10
0.398798
20
0.408754
11
0.3975
21
0.407207
0
LINE
8
BLACK
6
CONTINUOUS
10
0.3975
20
0.407207
11
0.395511
21
0.406856
0
LINE
8
BLACK
6
CONTINUOUS
10
0.395511
20
0.406856
11
0.393762
21
0.407866
0
LINE
8
BLACK
6
CONTINUOUS
10
0.393762
20
0.407866
11
0.393071
21
0.409764
0
LINE
8
BLACK
6
CONTINUOUS
10
0.393071
20
0.409764
11
0.393071
21
0.449764
0
LINE
8
BLACK
6
CONTINUOUS
10
0.393071
20
0.449764
11
0.393138
21
0.450147
0
LINE
8
BLACK
6
CONTINUOUS
10
0.393138
20
0.450147
11
0.393116
21
0.450277
0
LINE
8
BLACK
6
CONTINUOUS
10
0.393116
20
0.450277
11
0.393181
21
0.45039
0
LINE
8
BLACK
6
CONTINUOUS
10
0.393181
20
0.45039
11
0.393249
21
0.450774
0
LINE
8
BLACK
6
CONTINUOUS
10
0.393249
20
0.450774
11
0.393742
21
0.451361
0
LINE
8
BLACK
6
CONTINUOUS
10
0.393742
20
0.451361
11
0.394126
21
0.452026
0
LINE
8
BLACK
6
CONTINUOUS
10
0.394126
20
0.452026
11
0.394376
21
0.452117
0
LINE
8
BLACK
6
CONTINUOUS
10
0.394376
20
0.452117
11
0.394547
21
0.452321
0
LINE
8
BLACK
6
CONTINUOUS
10
0.394547
20
0.452321
11
0.395303
21
0.452454
0
LINE
8
BLACK
6
CONTINUOUS
10
0.395303
20
0.452454
11
0.396024
21
0.452717
0
LINE
8
BLACK
6
CONTINUOUS
10
0.396024
20
0.452717
11
0.456024
21
0.452717
0
LINE
8
BLACK
6
CONTINUOUS
10
0.456024
20
0.452717
11
0.456407
21
0.452649
0
LINE
8
BLACK
6
CONTINUOUS
10
1.02774
20
0.466071
11
1.02812
21
0.465956
0
LINE
8
BLACK
6
CONTINUOUS
10
1.02812
20
0.465956
11
1.02815
21
0.465901
0
LINE
8
BLACK
6
CONTINUOUS
10
1.02815
20
0.465901
11
1.02821
21
0.465877
0
LINE
8
BLACK
6
CONTINUOUS
10
1.02821
20
0.465877
11
1.02836
21
0.46551
0
LINE
8
BLACK
6
CONTINUOUS
10
1.02836
20
0.46551
11
1.02855
21
0.46516
0
LINE
8
BLACK
6
CONTINUOUS
10
1.02855
20
0.46516
11
1.0293
21
0.457661
0
LINE
8
BLACK
6
CONTINUOUS
10
1.0293
20
0.457661
11
1.02928
21
0.457601
0
LINE
8
BLACK
6
CONTINUOUS
10
1.02928
20
0.457601
11
1.0293
21
0.457543
0
LINE
8
BLACK
6
CONTINUOUS
10
1.0293
20
0.457543
11
1.02915
21
0.457176
0
LINE
8
BLACK
6
CONTINUOUS
10
1.02915
20
0.457176
11
1.02904
21
0.456795
0
LINE
8
BLACK
6
CONTINUOUS
10
1.02904
20
0.456795
11
1.02898
21
0.456766
0
LINE
8
BLACK
6
CONTINUOUS
10
1.02898
20
0.456766
11
1.02896
21
0.456708
0
LINE
8
BLACK
6
CONTINUOUS
10
1.02896
20
0.456708
11
1.02859
21
0.456556
0
LINE
8
BLACK
6
CONTINUOUS
10
1.02859
20
0.456556
11
1.02824
21
0.456368
0
LINE
8
BLACK
6
CONTINUOUS
10
1.02824
20
0.456368
11
1.02818
21
0.456386
0
LINE
8
BLACK
6
CONTINUOUS
10
1.02818
20
0.456386
11
1.02812
21
0.456362
0
LINE
8
BLACK
6
CONTINUOUS
10
1.02812
20
0.456362
11
1.02775
21
0.456514
0
LINE
8
BLACK
6
CONTINUOUS
10
1.02775
20
0.456514
11
1.02737
21
0.456629
0
LINE
8
BLACK
6
CONTINUOUS
10
1.02737
20
0.456629
11
1.02734
21
0.456684
0
LINE
8
BLACK
6
CONTINUOUS
10
1.02734
20
0.456684
11
1.02729
21
0.456708
0
LINE
8
BLACK
6
CONTINUOUS
10
1.02729
20
0.456708
11
1.02667
21
0.457322
0
LINE
8
BLACK
6
CONTINUOUS
10
1.02667
20
0.457322
11
1.02559
21
0.457862
0
LINE
8
BLACK
6
CONTINUOUS
10
1.02559
20
0.457862
11
1.0224
21
0.457862
0
LINE
8
BLACK
6
CONTINUOUS
10
1.0224
20
0.457862
11
1.02132
21
0.457322
0
LINE
8
BLACK
6
CONTINUOUS
10
1.02132
20
0.457322
11
1.02084
21
0.456844
0
LINE
8
BLACK
6
CONTINUOUS
10
1.02084
20
0.456844
11
1.0203
21
0.455765
0
LINE
8
BLACK
6
CONTINUOUS
10
1.0203
20
0.455765
11
1.0203
21
0.452573
0
LINE
8
BLACK
6
CONTINUOUS
10
1.0203
20
0.452573
11
1.02084
21
0.451494
0
LINE
8
BLACK
6
CONTINUOUS
10
1.02084
20
0.451494
11
1.02132
21
0.451015
0
LINE
8
BLACK
6
CONTINUOUS
10
1.02132
20
0.451015
11
1.0224
21
0.450475
0
LINE
8
BLACK
6
CONTINUOUS
10
1.0224
20
0.450475
11
1.02559
21
0.450475
0
LINE
8
BLACK
6
CONTINUOUS
10
1.02559
20
0.450475
11
1.02667
21
0.451015
0
LINE
8
BLACK
6
CONTINUOUS
10
1.02667
20
0.451015
11
1.02729
21
0.451629
0
LINE
8
BLACK
6
CONTINUOUS
10
1.02729
20
0.451629
11
1.02812
21
0.451975
0
LINE
8
BLACK
6
CONTINUOUS
10
1.02812
20
0.451975
11
1.02896
21
0.451629
0
LINE
8
BLACK
6
CONTINUOUS
10
1.02896
20
0.451629
11
1.0293
21
0.450794
0
LINE
8
BLACK
6
CONTINUOUS
10
1.0293
20
0.450794
11
1.02896
21
0.449959
0
LINE
8
BLACK
6
CONTINUOUS
10
1.02896
20
0.449959
11
1.02821
21
0.449209
0
LINE
8
BLACK
6
CONTINUOUS
10
1.02821
20
0.449209
11
1.02803
21
0.449135
0
LINE
8
BLACK
6
CONTINUOUS
10
1.02803
20
0.449135
11
1.0279
21
0.448988
0
LINE
8
BLACK
6
CONTINUOUS
10
1.0279
20
0.448988
11
1.0264
21
0.448238
0
LINE
8
BLACK
6
CONTINUOUS
10
1.0264
20
0.448238
11
1.02613
21
0.448218
0
LINE
8
BLACK
6
CONTINUOUS
10
1.02613
20
0.448218
11
1.02587
21
0.448113
0
LINE
8
BLACK
6
CONTINUOUS
10
1.02587
20
0.448113
11
1.02212
21
0.448113
0
LINE
8
BLACK
6
CONTINUOUS
10
1.02212
20
0.448113
11
1.02187
21
0.448218
0
LINE
8
BLACK
6
CONTINUOUS
10
1.02187
20
0.448218
11
1.02159
21
0.448238
0
LINE
8
BLACK
6
CONTINUOUS
10
1.02159
20
0.448238
11
1.02009
21
0.448988
0
LINE
8
BLACK
6
CONTINUOUS
10
1.02009
20
0.448988
11
1.01997
21
0.449135
0
LINE
8
BLACK
6
CONTINUOUS
10
1.01997
20
0.449135
11
1.01979
21
0.449209
0
LINE
8
BLACK
6
CONTINUOUS
10
1.01979
20
0.449209
11
1.01904
21
0.449959
0
LINE
8
BLACK
6
CONTINUOUS
10
1.01904
20
0.449959
11
1.01896
21
0.450138
0
LINE
8
BLACK
6
CONTINUOUS
10
1.01896
20
0.450138
11
1.01882
21
0.450266
0
LINE
8
BLACK
6
CONTINUOUS
10
1.01882
20
0.450266
11
1.01807
21
0.451766
0
LINE
8
BLACK
6
CONTINUOUS
10
1.01807
20
0.451766
11
1.01805
21
0.45204
0
LINE
8
BLACK
6
CONTINUOUS
10
1.01805
20
0.45204
11
1.01794
21
0.452294
0
LINE
8
BLACK
6
CONTINUOUS
10
1.01794
20
0.452294
11
1.01794
21
0.456043
0
LINE
8
BLACK
6
CONTINUOUS
10
1.01794
20
0.456043
11
1.01805
21
0.456297
0
LINE
8
BLACK
6
CONTINUOUS
10
1.01805
20
0.456297
11
1.01807
21
0.456572
0
LINE
8
BLACK
6
CONTINUOUS
10
1.01807
20
0.456572
11
1.01882
21
0.458071
0
LINE
8
BLACK
6
CONTINUOUS
10
1.01882
20
0.458071
11
1.01896
21
0.458199
0
LINE
8
BLACK
6
CONTINUOUS
10
1.01896
20
0.458199
11
1.01904
21
0.458378
0
LINE
8
BLACK
6
CONTINUOUS
10
1.01904
20
0.458378
11
1.01979
21
0.459128
0
LINE
8
BLACK
6
CONTINUOUS
10
1.01979
20
0.459128
11
1.01997
21
0.459203
0
LINE
8
BLACK
6
CONTINUOUS
10
1.01997
20
0.459203
11
1.02009
21
0.459349
0
LINE
8
BLACK
6
CONTINUOUS
10
1.02009
20
0.459349
11
1.02159
21
0.460099
0
LINE
8
BLACK
6
CONTINUOUS
10
1.02159
20
0.460099
11
1.02187
21
0.460119
0
LINE
8
BLACK
6
CONTINUOUS
10
1.02187
20
0.460119
11
1.02212
21
0.460224
0
LINE
8
BLACK
6
CONTINUOUS
10
1.02212
20
0.460224
11
1.02587
21
0.460224
0
LINE
8
BLACK
6
CONTINUOUS
10
1.02587
20
0.460224
11
1.02613
21
0.460119
0
LINE
8
BLACK
6
CONTINUOUS
10
1.02613
20
0.460119
11
1.0264
21
0.460099
0
LINE
8
BLACK
6
CONTINUOUS
10
1.0264
20
0.460099
11
1.02669
21
0.459953
0
LINE
8
BLACK
6
CONTINUOUS
10
1.02669
20
0.459953
11
1.0263
21
0.463861
0
LINE
8
BLACK
6
CONTINUOUS
10
1.0263
20
0.463861
11
1.01987
21
0.463861
0
LINE
8
BLACK
6
CONTINUOUS
10
1.01987
20
0.463861
11
1.01904
21
0.464207
0
LINE
8
BLACK
6
CONTINUOUS
10
1.01904
20
0.464207
11
1.01869
21
0.465042
0
LINE
8
BLACK
6
CONTINUOUS
10
1.01869
20
0.465042
11
1.01904
21
0.465877
0
LINE
8
BLACK
6
CONTINUOUS
10
1.01904
20
0.465877
11
1.01987
21
0.466223
0
LINE
8
BLACK
6
CONTINUOUS
10
1.01987
20
0.466223
11
1.02737
21
0.466223
0
LINE
8
BLACK
6
CONTINUOUS
10
1.02737
20
0.466223
11
1.02774
21
0.466071
0
LINE
8
BLACK
6
CONTINUOUS
10
1.0388
20
0.466149
11
1.03899
21
0.466163
0
LINE
8
BLACK
6
CONTINUOUS
10
1.03899
20
0.466163
11
1.04124
21
0.465413
0
LINE
8
BLACK
6
CONTINUOUS
10
1.04124
20
0.465413
11
1.04145
21
0.465233
0
LINE
8
BLACK
6
CONTINUOUS
10
1.04145
20
0.465233
11
1.04171
21
0.465127
0
LINE
8
BLACK
6
CONTINUOUS
10
1.04171
20
0.465127
11
1.0432
21
0.463628
0
LINE
8
BLACK
6
CONTINUOUS
10
1.0432
20
0.463628
11
1.04328
21
0.463448
0
LINE
8
BLACK
6
CONTINUOUS
10
1.04328
20
0.463448
11
1.04343
21
0.463321
0
LINE
8
BLACK
6
CONTINUOUS
10
1.04343
20
0.463321
11
1.04418
21
0.461821
0
LINE
8
BLACK
6
CONTINUOUS
10
1.04418
20
0.461821
11
1.04419
21
0.461687
0
LINE
8
BLACK
6
CONTINUOUS
10
1.04419
20
0.461687
11
1.04427
21
0.461579
0
LINE
8
BLACK
6
CONTINUOUS
10
1.04427
20
0.461579
11
1.04502
21
0.45858
0
LINE
8
BLACK
6
CONTINUOUS
10
1.04502
20
0.45858
11
1.04499
21
0.458431
0
LINE
8
BLACK
6
CONTINUOUS
10
1.04499
20
0.458431
11
1.04505
21
0.458293
0
LINE
8
BLACK
6
CONTINUOUS
10
1.04505
20
0.458293
11
1.04505
21
0.456043
0
LINE
8
BLACK
6
CONTINUOUS
10
1.04505
20
0.456043
11
1.04499
21
0.455905
0
LINE
8
BLACK
6
CONTINUOUS
10
1.04499
20
0.455905
11
1.04502
21
0.455757
0
LINE
8
BLACK
6
CONTINUOUS
10
1.04502
20
0.455757
11
1.04427
21
0.452757
0
LINE
8
BLACK
6
CONTINUOUS
10
1.04427
20
0.452757
11
1.04419
21
0.452649
0
LINE
8
BLACK
6
CONTINUOUS
10
1.04419
20
0.452649
11
1.04418
21
0.452516
0
LINE
8
BLACK
6
CONTINUOUS
10
1.04418
20
0.452516
11
1.04343
21
0.451016
0
LINE
8
BLACK
6
CONTINUOUS
10
1.04343
20
0.451016
11
1.04328
21
0.450888
0
LINE
8
BLACK
6
CONTINUOUS
10
1.04328
20
0.450888
11
1.0432
21
0.450709
0
LINE
8
BLACK
6
CONTINUOUS
10
1.0432
20
0.450709
11
1.04171
21
0.449209
0
LINE
8
BLACK
6
CONTINUOUS
10
1.04171
20
0.449209
11
1.04145
21
0.449104
0
LINE
8
BLACK
6
CONTINUOUS
10
1.04145
20
0.449104
11
1.04124
21
0.448924
0
LINE
8
BLACK
6
CONTINUOUS
10
1.04124
20
0.448924
11
1.03899
21
0.448174
0
LINE
8
BLACK
6
CONTINUOUS
10
1.03899
20
0.448174
11
1.0388
21
0.448188
0
LINE
8
BLACK
6
CONTINUOUS
10
1.0388
20
0.448188
11
1.03862
21
0.448113
0
LINE
8
BLACK
6
CONTINUOUS
10
1.03862
20
0.448113
11
1.03712
21
0.448113
0
LINE
8
BLACK
6
CONTINUOUS
10
1.03712
20
0.448113
11
1.03694
21
0.448188
0
LINE
8
BLACK
6
CONTINUOUS
10
1.03694
20
0.448188
11
1.03675
21
0.448174
0
LINE
8
BLACK
6
CONTINUOUS
10
1.03675
20
0.448174
11
1.0345
21
0.448924
0
LINE
8
BLACK
6
CONTINUOUS
10
1.0345
20
0.448924
11
1.03429
21
0.449104
0
LINE
8
BLACK
6
CONTINUOUS
10
1.03429
20
0.449104
11
1.03404
21
0.449209
0
LINE
8
BLACK
6
CONTINUOUS
10
1.03404
20
0.449209
11
1.03329
21
0.449959
0
LINE
8
BLACK
6
CONTINUOUS
10
1.03329
20
0.449959
11
1.03294
21
0.450794
0
LINE
8
BLACK
6
CONTINUOUS
10
1.03294
20
0.450794
11
1.03329
21
0.451629
0
LINE
8
BLACK
6
CONTINUOUS
10
1.03329
20
0.451629
11
1.03412
21
0.451975
0
LINE
8
BLACK
6
CONTINUOUS
10
1.03412
20
0.451975
11
1.03496
21
0.451629
0
LINE
8
BLACK
6
CONTINUOUS
10
1.03496
20
0.451629
11
1.03551
21
0.451076
0
LINE
8
BLACK
6
CONTINUOUS
10
1.03551
20
0.451076
11
1.03731
21
0.450475
0
LINE
8
BLACK
6
CONTINUOUS
10
1.03731
20
0.450475
11
1.03843
21
0.450475
0
LINE
8
BLACK
6
CONTINUOUS
10
1.03843
20
0.450475
11
1.04023
21
0.451076
0
LINE
8
BLACK
6
CONTINUOUS
10
1.04023
20
0.451076
11
1.0414
21
0.452244
0
LINE
8
BLACK
6
CONTINUOUS
10
1.0414
20
0.452244
11
1.04201
21
0.453456
0
LINE
8
BLACK
6
CONTINUOUS
10
1.04201
20
0.453456
11
1.04269
21
0.456189
0
LINE
8
BLACK
6
CONTINUOUS
10
1.04269
20
0.456189
11
1.04269
21
0.458148
0
LINE
8
BLACK
6
CONTINUOUS
10
1.04269
20
0.458148
11
1.04201
21
0.46088
0
LINE
8
BLACK
6
CONTINUOUS
10
1.04201
20
0.46088
11
1.0414
21
0.462093
0
LINE
8
BLACK
6
CONTINUOUS
10
1.0414
20
0.462093
11
1.04023
21
0.46326
0
LINE
8
BLACK
6
CONTINUOUS
10
1.04023
20
0.46326
11
1.03843
21
0.463861
0
LINE
8
BLACK
6
CONTINUOUS
10
1.03843
20
0.463861
11
1.03731
21
0.463861
0
LINE
8
BLACK
6
CONTINUOUS
10
1.03731
20
0.463861
11
1.03551
21
0.46326
0
LINE
8
BLACK
6
CONTINUOUS
10
1.03551
20
0.46326
11
1.03496
21
0.462707
0
LINE
8
BLACK
6
CONTINUOUS
10
1.03496
20
0.462707
11
1.03412
21
0.462361
0
LINE
8
BLACK
6
CONTINUOUS
10
1.03412
20
0.462361
11
1.03329
21
0.462707
0
LINE
8
BLACK
6
CONTINUOUS
10
1.03329
20
0.462707
11
1.03294
21
0.463542
0
LINE
8
BLACK
6
CONTINUOUS
10
1.03294
20
0.463542
11
1.03329
21
0.464378
0
LINE
8
BLACK
6
CONTINUOUS
10
1.03329
20
0.464378
11
1.03404
21
0.465128
0
LINE
8
BLACK
6
CONTINUOUS
10
1.03404
20
0.465128
11
1.03429
21
0.465233
0
LINE
8
BLACK
6
CONTINUOUS
10
1.03429
20
0.465233
11
1.0345
21
0.465413
0
LINE
8
BLACK
6
CONTINUOUS
10
1.0345
20
0.465413
11
1.03675
21
0.466163
0
LINE
8
BLACK
6
CONTINUOUS
10
1.03675
20
0.466163
11
1.03694
21
0.466149
0
LINE
8
BLACK
6
CONTINUOUS
10
1.03694
20
0.466149
11
1.03712
21
0.466223
0
LINE
8
BLACK
6
CONTINUOUS
10
1.03712
20
0.466223
11
1.03862
21
0.466223
0
LINE
8
BLACK
6
CONTINUOUS
10
1.03862
20
0.466223
11
1.0388
21
0.466149
0
LINE
8
BLACK
6
CONTINUOUS
10
1.06299
20
0.474173
11
1.06438
21
0.473597
0
LINE
8
BLACK
6
CONTINUOUS
10
1.06438
20
0.473597
11
1.06496
21
0.472205
0
LINE
8
BLACK
6
CONTINUOUS
10
1.06496
20
0.472205
11
1.06496
21
0.440709
0
LINE
8
BLACK
6
CONTINUOUS
10
1.06496
20
0.440709
11
1.06438
21
0.439317
0
LINE
8
BLACK
6
CONTINUOUS
10
1.06438
20
0.439317
11
1.06299
21
0.43874
0
LINE
8
BLACK
6
CONTINUOUS
10
1.06299
20
0.43874
11
1
21
0.43874
0
LINE
8
BLACK
6
CONTINUOUS
10
1
20
0.43874
11
0.998608
21
0.439317
0
LINE
8
BLACK
6
CONTINUOUS
10
0.998608
20
0.439317
11
0.998031
21
0.440709
0
LINE
8
BLACK
6
CONTINUOUS
10
0.998031
20
0.440709
11
0.998031
21
0.472205
0
LINE
8
BLACK
6
CONTINUOUS
10
0.998031
20
0.472205
11
0.998608
21
0.473597
0
LINE
8
BLACK
6
CONTINUOUS
10
0.998608
20
0.473597
11
1
21
0.474173
0
LINE
8
BLACK
6
CONTINUOUS
10
1
20
0.474173
11
1.06299
21
0.474173
0
LINE
8
BLACK
6
CONTINUOUS
10
1.00197
20
0.470236
11
1.00197
21
0.442677
0
LINE
8
BLACK
6
CONTINUOUS
10
1.00197
20
0.442677
11
1.06102
21
0.442677
0
LINE
8
BLACK
6
CONTINUOUS
10
1.06102
20
0.442677
11
1.06102
21
0.470236
0
LINE
8
BLACK
6
CONTINUOUS
10
1.06102
20
0.470236
11
1.00197
21
0.470236
0
LINE
8
BLACK
6
CONTINUOUS
10
0.394257
20
0.543075
11
0.417788
21
0.519544
0
LINE
8
BLACK
6
CONTINUOUS
10
0.417788
20
0.519544
11
0.417788
21
0.540987
0
LINE
8
BLACK
6
CONTINUOUS
10
0.417788
20
0.540987
11
0.417966
21
0.541997
0
LINE
8
BLACK
6
CONTINUOUS
10
0.417966
20
0.541997
11
0.419265
21
0.543544
0
LINE
8
BLACK
6
CONTINUOUS
10
0.419265
20
0.543544
11
0.421254
21
0.543895
0
LINE
8
BLACK
6
CONTINUOUS
10
0.421254
20
0.543895
11
0.423003
21
0.542885
0
LINE
8
BLACK
6
CONTINUOUS
10
0.423003
20
0.542885
11
0.423694
21
0.540987
0
LINE
8
BLACK
6
CONTINUOUS
10
0.423694
20
0.540987
11
0.423694
21
0.490987
0
LINE
8
BLACK
6
CONTINUOUS
10
0.423694
20
0.490987
11
0.423516
21
0.489977
0
LINE
8
BLACK
6
CONTINUOUS
10
0.423516
20
0.489977
11
0.422217
21
0.48843
0
LINE
8
BLACK
6
CONTINUOUS
10
0.422217
20
0.48843
11
0.420228
21
0.488079
0
LINE
8
BLACK
6
CONTINUOUS
10
0.420228
20
0.488079
11
0.418479
21
0.489089
0
LINE
8
BLACK
6
CONTINUOUS
10
0.418479
20
0.489089
11
0.417788
21
0.490987
0
LINE
8
BLACK
6
CONTINUOUS
10
0.417788
20
0.490987
11
0.417788
21
0.511193
0
LINE
8
BLACK
6
CONTINUOUS
10
0.417788
20
0.511193
11
0.413917
21
0.515063
0
LINE
8
BLACK
6
CONTINUOUS
10
0.413917
20
0.515063
11
0.394532
21
0.489216
0
LINE
8
BLACK
6
CONTINUOUS
10
0.394532
20
0.489216
11
0.393783
21
0.488514
0
LINE
8
BLACK
6
CONTINUOUS
10
0.393783
20
0.488514
11
0.391816
21
0.488056
0
LINE
8
BLACK
6
CONTINUOUS
10
0.391816
20
0.488056
11
0.390014
21
0.488969
0
LINE
8
BLACK
6
CONTINUOUS
10
0.390014
20
0.488969
11
0.389221
21
0.490826
0
LINE
8
BLACK
6
CONTINUOUS
10
0.389221
20
0.490826
11
0.389807
21
0.492759
0
LINE
8
BLACK
6
CONTINUOUS
10
0.389807
20
0.492759
11
0.409699
21
0.519282
0
LINE
8
BLACK
6
CONTINUOUS
10
0.409699
20
0.519282
11
0.390082
21
0.538899
0
LINE
8
BLACK
6
CONTINUOUS
10
0.390082
20
0.538899
11
0.389493
21
0.539739
0
LINE
8
BLACK
6
CONTINUOUS
10
0.389493
20
0.539739
11
0.389317
21
0.541751
0
LINE
8
BLACK
6
CONTINUOUS
10
0.389317
20
0.541751
11
0.390476
21
0.543406
0
LINE
8
BLACK
6
CONTINUOUS
10
0.390476
20
0.543406
11
0.392427
21
0.543929
0
LINE
8
BLACK
6
CONTINUOUS
10
0.392427
20
0.543929
11
0.394257
21
0.543075
0
LINE
8
BLACK
6
CONTINUOUS
10
0.433454
20
0.56194
11
0.433584
21
0.561963
0
LINE
8
BLACK
6
CONTINUOUS
10
0.433584
20
0.561963
11
0.433697
21
0.561897
0
LINE
8
BLACK
6
CONTINUOUS
10
0.433697
20
0.561897
11
0.434081
21
0.56183
0
LINE
8
BLACK
6
CONTINUOUS
10
0.434081
20
0.56183
11
0.434668
21
0.561337
0
LINE
8
BLACK
6
CONTINUOUS
10
0.434668
20
0.561337
11
0.435333
21
0.560953
0
LINE
8
BLACK
6
CONTINUOUS
10
0.435333
20
0.560953
11
0.435424
21
0.560703
0
LINE
8
BLACK
6
CONTINUOUS
10
0.435424
20
0.560703
11
0.435628
21
0.560531
0
LINE
8
BLACK
6
CONTINUOUS
10
0.435628
20
0.560531
11
0.435761
21
0.559776
0
LINE
8
BLACK
6
CONTINUOUS
10
0.435761
20
0.559776
11
0.436024
21
0.559055
0
LINE
8
BLACK
6
CONTINUOUS
10
0.436024
20
0.559055
11
0.436024
21
0.464567
0
LINE
8
BLACK
6
CONTINUOUS
10
0.436024
20
0.464567
11
0.435956
21
0.464183
0
LINE
8
BLACK
6
CONTINUOUS
10
0.435956
20
0.464183
11
0.435979
21
0.464054
0
LINE
8
BLACK
6
CONTINUOUS
10
0.435979
20
0.464054
11
0.435913
21
0.463941
0
LINE
8
BLACK
6
CONTINUOUS
10
0.435913
20
0.463941
11
0.435846
21
0.463557
0
LINE
8
BLACK
6
CONTINUOUS
10
0.435846
20
0.463557
11
0.435352
21
0.462969
0
LINE
8
BLACK
6
CONTINUOUS
10
0.435352
20
0.462969
11
0.434969
21
0.462305
0
LINE
8
BLACK
6
CONTINUOUS
10
0.434969
20
0.462305
11
0.434719
21
0.462214
0
LINE
8
BLACK
6
CONTINUOUS
10
0.434719
20
0.462214
11
0.434547
21
0.46201
0
LINE
8
BLACK
6
CONTINUOUS
10
0.434547
20
0.46201
11
0.433792
21
0.461877
0
LINE
8
BLACK
6
CONTINUOUS
10
0.433792
20
0.461877
11
0.433071
21
0.461614
0
LINE
8
BLACK
6
CONTINUOUS
10
0.433071
20
0.461614
11
0.23622
21
0.461614
0
LINE
8
BLACK
6
CONTINUOUS
10
0.23622
20
0.461614
11
0.235837
21
0.461682
0
LINE
8
BLACK
6
CONTINUOUS
10
0.235837
20
0.461682
11
0.235708
21
0.461659
0
LINE
8
BLACK
6
CONTINUOUS
10
0.235708
20
0.461659
11
0.235594
21
0.461725
0
LINE
8
BLACK
6
CONTINUOUS
10
0.235594
20
0.461725
11
0.235211
21
0.461792
0
LINE
8
BLACK
6
CONTINUOUS
10
0.235211
20
0.461792
11
0.234623
21
0.462285
0
LINE
8
BLACK
6
CONTINUOUS
10
0.234623
20
0.462285
11
0.233959
21
0.462669
0
LINE
8
BLACK
6
CONTINUOUS
10
0.233959
20
0.462669
11
0.233867
21
0.462919
0
LINE
8
BLACK
6
CONTINUOUS
10
0.233867
20
0.462919
11
0.233663
21
0.463091
0
LINE
8
BLACK
6
CONTINUOUS
10
0.233663
20
0.463091
11
0.23353
21
0.463846
0
LINE
8
BLACK
6
CONTINUOUS
10
0.23353
20
0.463846
11
0.233268
21
0.464567
0
LINE
8
BLACK
6
CONTINUOUS
10
0.233268
20
0.464567
11
0.233268
21
0.559055
0
LINE
8
BLACK
6
CONTINUOUS
10
0.233268
20
0.559055
11
0.233335
21
0.559439
0
LINE
8
BLACK
6
CONTINUOUS
10
0.233335
20
0.559439
11
0.233313
21
0.559568
0
LINE
8
BLACK
6
CONTINUOUS
10
0.233313
20
0.559568
11
0.233378
21
0.559681
0
LINE
8
BLACK
6
CONTINUOUS
10
0.233378
20
0.559681
11
0.233446
21
0.560065
0
LINE
8
BLACK
6
CONTINUOUS
10
0.233446
20
0.560065
11
0.233939
21
0.560653
0
LINE
8
BLACK
6
CONTINUOUS
10
0.233939
20
0.560653
11
0.234322
21
0.561317
0
LINE
8
BLACK
6
CONTINUOUS
10
0.234322
20
0.561317
11
0.234573
21
0.561408
0
LINE
8
BLACK
6
CONTINUOUS
10
0.234573
20
0.561408
11
0.234744
21
0.561612
0
LINE
8
BLACK
6
CONTINUOUS
10
0.234744
20
0.561612
11
0.2355
21
0.561746
0
LINE
8
BLACK
6
CONTINUOUS
10
0.2355
20
0.561746
11
0.23622
21
0.562008
0
LINE
8
BLACK
6
CONTINUOUS
10
0.23622
20
0.562008
11
0.433071
21
0.562008
0
LINE
8
BLACK
6
CONTINUOUS
10
0.433071
20
0.562008
11
0.433454
21
0.56194
0
LINE
8
BLACK
6
CONTINUOUS
10
0.239173
20
0.556102
11
0.239173
21
0.46752
0
LINE
8
BLACK
6
CONTINUOUS
10
0.239173
20
0.46752
11
0.430118
21
0.46752
0
LINE
8
BLACK
6
CONTINUOUS
10
0.430118
20
0.46752
11
0.430118
21
0.556102
0
LINE
8
BLACK
6
CONTINUOUS
10
0.430118
20
0.556102
11
0.239173
21
0.556102
  0
ENDSEC
  0
EOF
