  0
SECTION
  2
HEADER
  9
$ANGBASE
  50
0.0
  9
$ANGDIR
  70
1
  9
$MEASUREMENT
  70
0
  0
ENDSEC
  0
SECTION
  2
TABLES
  0
TABLE
  2
LTYPE
  70
4
  0
LTYPE
  5
40F
  2
CONTINUOUS
  70
0
  3
Solid line
  72
65
  73
0
  40
0.0
  0
LTYPE
  5
410
  2
DASHDOT
 70
0
  3
Dash Dot ____ _ ____ _
 72
65
 73
4
 40
2.0
 49
1.25
 49
-0.25
 49
0.25
 49
-0.25
  0
LTYPE
  5
411
  2
DASHED
 70
0
  3
Dashed __ __ __ __ __
 72
65
 73
2
 40
0.75
 49
0.5
 49
-0.25
  0
LTYPE
  5
43B
  2
DOTTED
 70
0
  3
Dotted .  .  .  .
 72
65
 73
2
 40
0.2
 49
0.0
 49
-0.2
  0
ENDTAB
  0
TABLE
  2
STYLE
  70
4
  0
STYLE
  2
KICAD
  70
0
  40
0
  41
1
  42
1
  50
0
  71
0
  3
isocp.shx
  0
STYLE
  2
KICADB
  70
0
  40
0
  41
1
  42
1
  50
0
  71
0
  3
isocp.shx
  0
STYLE
  2
KICADI
  70
0
  40
0
  41
1
  42
1
  50
15
  71
0
  3
isocp.shx
  0
STYLE
  2
KICADBI
  70
0
  40
0
  41
1
  42
1
  50
15
  71
0
  3
isocp.shx
  0
ENDTAB
  0
TABLE
  2
LAYER
  70
1
  0
LAYER
  2
BLACK
  70
0
  62
7
  6
CONTINUOUS
  0
ENDTAB
  0
ENDSEC
  0
SECTION
  2
ENTITIES
0
LINE
8
BLACK
6
CONTINUOUS
10
0.9537255118110236
20
0.0965584645669291
11
0.9589779527559055
21
0.0938017716535433
0
LINE
8
BLACK
6
CONTINUOUS
10
0.9589779527559055
20
0.0938017716535433
11
0.9634180708661417
21
0.089868188976378
0
LINE
8
BLACK
6
CONTINUOUS
10
0.9634180708661417
20
0.089868188976378
11
0.9667877952755906
21
0.0849862992125984
0
LINE
8
BLACK
6
CONTINUOUS
10
0.9667877952755906
20
0.0849862992125984
11
0.9688912992125984
21
0.079439842519685
0
LINE
8
BLACK
6
CONTINUOUS
10
0.9688912992125984
20
0.079439842519685
11
0.9696062992125984
21
0.0735511811023622
0
LINE
8
BLACK
6
CONTINUOUS
10
0.9696062992125984
20
0.0735511811023622
11
0.9688912992125984
21
0.0676625196850394
0
LINE
8
BLACK
6
CONTINUOUS
10
0.9688912992125984
20
0.0676625196850394
11
0.9667877952755906
21
0.062116062992126
0
LINE
8
BLACK
6
CONTINUOUS
10
0.9667877952755906
20
0.062116062992126
11
0.9634180708661417
21
0.0572341732283465
0
LINE
8
BLACK
6
CONTINUOUS
10
0.9634180708661417
20
0.0572341732283465
11
0.9589779527559055
21
0.0533005905511811
0
LINE
8
BLACK
6
CONTINUOUS
10
0.9589779527559055
20
0.0533005905511811
11
0.9537255118110236
21
0.0505438976377953
0
LINE
8
BLACK
6
CONTINUOUS
10
0.9537255118110236
20
0.0505438976377953
11
0.9479659448818898
21
0.0491242913385827
0
LINE
8
BLACK
6
CONTINUOUS
10
0.9479659448818898
20
0.0491242913385827
11
0.9420340551181102
21
0.0491242913385827
0
LINE
8
BLACK
6
CONTINUOUS
10
0.9420340551181102
20
0.0491242913385827
11
0.9362744881889764
21
0.0505438976377953
0
LINE
8
BLACK
6
CONTINUOUS
10
0.9362744881889764
20
0.0505438976377953
11
0.9310220472440944
21
0.0533005905511811
0
LINE
8
BLACK
6
CONTINUOUS
10
0.9310220472440944
20
0.0533005905511811
11
0.9265819291338583
21
0.0572341732283465
0
LINE
8
BLACK
6
CONTINUOUS
10
0.9265819291338583
20
0.0572341732283465
11
0.9232122047244095
21
0.062116062992126
0
LINE
8
BLACK
6
CONTINUOUS
10
0.9232122047244095
20
0.062116062992126
11
0.9211087007874016
21
0.0676625196850394
0
LINE
8
BLACK
6
CONTINUOUS
10
0.9211087007874016
20
0.0676625196850394
11
0.9203937007874016
21
0.0735511811023622
0
LINE
8
BLACK
6
CONTINUOUS
10
0.9203937007874016
20
0.0735511811023622
11
0.9211087007874016
21
0.079439842519685
0
LINE
8
BLACK
6
CONTINUOUS
10
0.9211087007874016
20
0.079439842519685
11
0.9232122047244095
21
0.0849862992125984
0
LINE
8
BLACK
6
CONTINUOUS
10
0.9232122047244095
20
0.0849862992125984
11
0.9265819291338583
21
0.089868188976378
0
LINE
8
BLACK
6
CONTINUOUS
10
0.9265819291338583
20
0.089868188976378
11
0.9310220472440944
21
0.0938017716535433
0
LINE
8
BLACK
6
CONTINUOUS
10
0.9310220472440944
20
0.0938017716535433
11
0.9362744881889764
21
0.0965584645669291
0
LINE
8
BLACK
6
CONTINUOUS
10
0.9362744881889764
20
0.0965584645669291
11
0.9420340551181102
21
0.0979780708661417
0
LINE
8
BLACK
6
CONTINUOUS
10
0.9420340551181102
20
0.0979780708661417
11
0.9479659448818898
21
0.0979780708661417
0
LINE
8
BLACK
6
CONTINUOUS
10
0.9479659448818898
20
0.0979780708661417
11
0.9537255118110236
21
0.0965584645669291
0
LINE
8
BLACK
6
CONTINUOUS
10
0.9229448818897638
20
0.0676415354330709
11
0.9252259055118111
21
0.0621346062992126
0
LINE
8
BLACK
6
CONTINUOUS
10
0.9252259055118111
20
0.0621346062992126
11
0.9288545275590551
21
0.0574057086614173
0
LINE
8
BLACK
6
CONTINUOUS
10
0.9288545275590551
20
0.0574057086614173
11
0.9335834251968503
21
0.0537770866141732
0
LINE
8
BLACK
6
CONTINUOUS
10
0.9335834251968503
20
0.0537770866141732
11
0.9390903543307086
21
0.051496062992126
0
LINE
8
BLACK
6
CONTINUOUS
10
0.9390903543307086
20
0.051496062992126
11
0.945
21
0.050718031496063
0
LINE
8
BLACK
6
CONTINUOUS
10
0.945
20
0.050718031496063
11
0.9509096456692914
21
0.051496062992126
0
LINE
8
BLACK
6
CONTINUOUS
10
0.9509096456692914
20
0.051496062992126
11
0.9564165748031496
21
0.0537770866141732
0
LINE
8
BLACK
6
CONTINUOUS
10
0.9564165748031496
20
0.0537770866141732
11
0.9611454724409448
21
0.0574057086614173
0
LINE
8
BLACK
6
CONTINUOUS
10
0.9611454724409448
20
0.0574057086614173
11
0.964774094488189
21
0.0621346062992126
0
LINE
8
BLACK
6
CONTINUOUS
10
0.964774094488189
20
0.0621346062992126
11
0.9670551181102361
21
0.0676415354330709
0
LINE
8
BLACK
6
CONTINUOUS
10
0.9670551181102361
20
0.0676415354330709
11
0.9678331496062992
21
0.0735511811023622
0
LINE
8
BLACK
6
CONTINUOUS
10
0.9678331496062992
20
0.0735511811023622
11
0.9670551181102361
21
0.0794608267716535
0
LINE
8
BLACK
6
CONTINUOUS
10
0.9670551181102361
20
0.0794608267716535
11
0.964774094488189
21
0.0849677559055118
0
LINE
8
BLACK
6
CONTINUOUS
10
0.964774094488189
20
0.0849677559055118
11
0.9611454724409448
21
0.0896966535433071
0
LINE
8
BLACK
6
CONTINUOUS
10
0.9611454724409448
20
0.0896966535433071
11
0.9564165748031496
21
0.0933252755905512
0
LINE
8
BLACK
6
CONTINUOUS
10
0.9564165748031496
20
0.0933252755905512
11
0.9509096456692914
21
0.0956062992125984
0
LINE
8
BLACK
6
CONTINUOUS
10
0.9509096456692914
20
0.0956062992125984
11
0.945
21
0.0963843307086614
0
LINE
8
BLACK
6
CONTINUOUS
10
0.945
20
0.0963843307086614
11
0.9390903543307086
21
0.0956062992125984
0
LINE
8
BLACK
6
CONTINUOUS
10
0.9390903543307086
20
0.0956062992125984
11
0.9335834251968503
21
0.0933252755905512
0
LINE
8
BLACK
6
CONTINUOUS
10
0.9335834251968503
20
0.0933252755905512
11
0.9288545275590551
21
0.0896966535433071
0
LINE
8
BLACK
6
CONTINUOUS
10
0.9288545275590551
20
0.0896966535433071
11
0.9252259055118111
21
0.0849677559055118
0
LINE
8
BLACK
6
CONTINUOUS
10
0.9252259055118111
20
0.0849677559055118
11
0.9229448818897638
21
0.0794608267716535
0
LINE
8
BLACK
6
CONTINUOUS
10
0.9229448818897638
20
0.0794608267716535
11
0.9221668503937007
21
0.0735511811023622
0
LINE
8
BLACK
6
CONTINUOUS
10
0.9221668503937007
20
0.0735511811023622
11
0.9229448818897638
21
0.0676415354330709
0
LINE
8
BLACK
6
CONTINUOUS
10
0.9067255118110236
20
0.1400072834645669
11
0.9119779527559055
21
0.1372505905511811
0
LINE
8
BLACK
6
CONTINUOUS
10
0.9119779527559055
20
0.1372505905511811
11
0.9164180708661417
21
0.1333170078740157
0
LINE
8
BLACK
6
CONTINUOUS
10
0.9164180708661417
20
0.1333170078740157
11
0.9197877952755905
21
0.1284351181102362
0
LINE
8
BLACK
6
CONTINUOUS
10
0.9197877952755905
20
0.1284351181102362
11
0.9218912992125984
21
0.1228886614173228
0
LINE
8
BLACK
6
CONTINUOUS
10
0.9218912992125984
20
0.1228886614173228
11
0.9226062992125984
21
0.117
0
LINE
8
BLACK
6
CONTINUOUS
10
0.9226062992125984
20
0.117
11
0.9218912992125984
21
0.1111113385826772
0
LINE
8
BLACK
6
CONTINUOUS
10
0.9218912992125984
20
0.1111113385826772
11
0.9197877952755905
21
0.1055648818897638
0
LINE
8
BLACK
6
CONTINUOUS
10
0.9197877952755905
20
0.1055648818897638
11
0.9164180708661417
21
0.1006829921259842
0
LINE
8
BLACK
6
CONTINUOUS
10
0.9164180708661417
20
0.1006829921259842
11
0.9119779527559055
21
0.0967494094488189
0
LINE
8
BLACK
6
CONTINUOUS
10
0.9119779527559055
20
0.0967494094488189
11
0.9067255118110236
21
0.0939927165354331
0
LINE
8
BLACK
6
CONTINUOUS
10
0.9067255118110236
20
0.0939927165354331
11
0.9009659448818897
21
0.0925731102362205
0
LINE
8
BLACK
6
CONTINUOUS
10
0.9009659448818897
20
0.0925731102362205
11
0.8950340551181102
21
0.0925731102362205
0
LINE
8
BLACK
6
CONTINUOUS
10
0.8950340551181102
20
0.0925731102362205
11
0.8892744881889764
21
0.0939927165354331
0
LINE
8
BLACK
6
CONTINUOUS
10
0.8892744881889764
20
0.0939927165354331
11
0.8840220472440945
21
0.0967494094488189
0
LINE
8
BLACK
6
CONTINUOUS
10
0.8840220472440945
20
0.0967494094488189
11
0.8795819291338582
21
0.1006829921259842
0
LINE
8
BLACK
6
CONTINUOUS
10
0.8795819291338582
20
0.1006829921259842
11
0.8762122047244094
21
0.1055648818897638
0
LINE
8
BLACK
6
CONTINUOUS
10
0.8762122047244094
20
0.1055648818897638
11
0.8741087007874015
21
0.1111113385826772
0
LINE
8
BLACK
6
CONTINUOUS
10
0.8741087007874015
20
0.1111113385826772
11
0.8733937007874015
21
0.117
0
LINE
8
BLACK
6
CONTINUOUS
10
0.8733937007874015
20
0.117
11
0.8741087007874015
21
0.1228886614173228
0
LINE
8
BLACK
6
CONTINUOUS
10
0.8741087007874015
20
0.1228886614173228
11
0.8762122047244094
21
0.1284351181102362
0
LINE
8
BLACK
6
CONTINUOUS
10
0.8762122047244094
20
0.1284351181102362
11
0.8795819291338582
21
0.1333170078740157
0
LINE
8
BLACK
6
CONTINUOUS
10
0.8795819291338582
20
0.1333170078740157
11
0.8840220472440945
21
0.1372505905511811
0
LINE
8
BLACK
6
CONTINUOUS
10
0.8840220472440945
20
0.1372505905511811
11
0.8892744881889764
21
0.1400072834645669
0
LINE
8
BLACK
6
CONTINUOUS
10
0.8892744881889764
20
0.1400072834645669
11
0.8950340551181102
21
0.1414268897637795
0
LINE
8
BLACK
6
CONTINUOUS
10
0.8950340551181102
20
0.1414268897637795
11
0.9009659448818897
21
0.1414268897637795
0
LINE
8
BLACK
6
CONTINUOUS
10
0.9009659448818897
20
0.1414268897637795
11
0.9067255118110236
21
0.1400072834645669
0
LINE
8
BLACK
6
CONTINUOUS
10
0.8759448818897637
20
0.1110903543307087
11
0.878225905511811
21
0.1055834251968504
0
LINE
8
BLACK
6
CONTINUOUS
10
0.878225905511811
20
0.1055834251968504
11
0.8818545275590551
21
0.1008545275590551
0
LINE
8
BLACK
6
CONTINUOUS
10
0.8818545275590551
20
0.1008545275590551
11
0.8865834251968504
21
0.097225905511811
0
LINE
8
BLACK
6
CONTINUOUS
10
0.8865834251968504
20
0.097225905511811
11
0.8920903543307086
21
0.0949448818897638
0
LINE
8
BLACK
6
CONTINUOUS
10
0.8920903543307086
20
0.0949448818897638
11
0.898
21
0.0941668503937008
0
LINE
8
BLACK
6
CONTINUOUS
10
0.898
20
0.0941668503937008
11
0.9039096456692913
21
0.0949448818897638
0
LINE
8
BLACK
6
CONTINUOUS
10
0.9039096456692913
20
0.0949448818897638
11
0.9094165748031496
21
0.097225905511811
0
LINE
8
BLACK
6
CONTINUOUS
10
0.9094165748031496
20
0.097225905511811
11
0.9141454724409449
21
0.1008545275590551
0
LINE
8
BLACK
6
CONTINUOUS
10
0.9141454724409449
20
0.1008545275590551
11
0.9177740944881889
21
0.1055834251968504
0
LINE
8
BLACK
6
CONTINUOUS
10
0.9177740944881889
20
0.1055834251968504
11
0.9200551181102362
21
0.1110903543307087
0
LINE
8
BLACK
6
CONTINUOUS
10
0.9200551181102362
20
0.1110903543307087
11
0.9208331496062991
21
0.117
0
LINE
8
BLACK
6
CONTINUOUS
10
0.9208331496062991
20
0.117
11
0.9200551181102362
21
0.1229096456692913
0
LINE
8
BLACK
6
CONTINUOUS
10
0.9200551181102362
20
0.1229096456692913
11
0.9177740944881889
21
0.1284165748031496
0
LINE
8
BLACK
6
CONTINUOUS
10
0.9177740944881889
20
0.1284165748031496
11
0.9141454724409449
21
0.1331454724409449
0
LINE
8
BLACK
6
CONTINUOUS
10
0.9141454724409449
20
0.1331454724409449
11
0.9094165748031496
21
0.136774094488189
0
LINE
8
BLACK
6
CONTINUOUS
10
0.9094165748031496
20
0.136774094488189
11
0.9039096456692913
21
0.1390551181102362
0
LINE
8
BLACK
6
CONTINUOUS
10
0.9039096456692913
20
0.1390551181102362
11
0.898
21
0.1398331496062992
0
LINE
8
BLACK
6
CONTINUOUS
10
0.898
20
0.1398331496062992
11
0.8920903543307086
21
0.1390551181102362
0
LINE
8
BLACK
6
CONTINUOUS
10
0.8920903543307086
20
0.1390551181102362
11
0.8865834251968504
21
0.136774094488189
0
LINE
8
BLACK
6
CONTINUOUS
10
0.8865834251968504
20
0.136774094488189
11
0.8818545275590551
21
0.1331454724409449
0
LINE
8
BLACK
6
CONTINUOUS
10
0.8818545275590551
20
0.1331454724409449
11
0.878225905511811
21
0.1284165748031496
0
LINE
8
BLACK
6
CONTINUOUS
10
0.878225905511811
20
0.1284165748031496
11
0.8759448818897637
21
0.1229096456692913
0
LINE
8
BLACK
6
CONTINUOUS
10
0.8759448818897637
20
0.1229096456692913
11
0.8751668503937008
21
0.117
0
LINE
8
BLACK
6
CONTINUOUS
10
0.8751668503937008
20
0.117
11
0.8759448818897637
21
0.1110903543307087
0
LINE
8
BLACK
6
CONTINUOUS
10
0.244360905511811
20
0.4820116929133858
11
0.2448935826771654
21
0.4814790157480315
0
LINE
8
BLACK
6
CONTINUOUS
10
0.2448935826771654
20
0.4814790157480315
11
0.2449685039370079
21
0.4811023622047244
0
LINE
8
BLACK
6
CONTINUOUS
10
0.2449685039370079
20
0.4811023622047244
11
0.2449685039370079
21
0.1094488188976378
0
LINE
8
BLACK
6
CONTINUOUS
10
0.2449685039370079
20
0.1094488188976378
11
0.2448935826771654
21
0.1090721653543307
0
LINE
8
BLACK
6
CONTINUOUS
10
0.2448935826771654
20
0.1090721653543307
11
0.244360905511811
21
0.1085394881889764
0
LINE
8
BLACK
6
CONTINUOUS
10
0.244360905511811
20
0.1085394881889764
11
0.2439842519685039
21
0.1084645669291339
0
LINE
8
BLACK
6
CONTINUOUS
10
0.2439842519685039
20
0.1084645669291339
11
-0.0079842519685039
21
0.1084645669291339
0
LINE
8
BLACK
6
CONTINUOUS
10
-0.0079842519685039
20
0.1084645669291339
11
-0.008360905511811
21
0.1085394881889764
0
LINE
8
BLACK
6
CONTINUOUS
10
-0.008360905511811
20
0.1085394881889764
11
-0.0088935826771654
21
0.1090721653543307
0
LINE
8
BLACK
6
CONTINUOUS
10
-0.0088935826771654
20
0.1090721653543307
11
-0.0089685039370079
21
0.1094488188976378
0
LINE
8
BLACK
6
CONTINUOUS
10
-0.0089685039370079
20
0.1094488188976378
11
-0.0089685039370079
21
0.4811023622047244
0
LINE
8
BLACK
6
CONTINUOUS
10
-0.0089685039370079
20
0.4811023622047244
11
-0.0088935826771654
21
0.4814790157480315
0
LINE
8
BLACK
6
CONTINUOUS
10
-0.0088935826771654
20
0.4814790157480315
11
-0.008360905511811
21
0.4820116929133858
0
LINE
8
BLACK
6
CONTINUOUS
10
-0.008360905511811
20
0.4820116929133858
11
-0.0079842519685039
21
0.4820866141732283
0
LINE
8
BLACK
6
CONTINUOUS
10
-0.0079842519685039
20
0.4820866141732283
11
0.2439842519685039
21
0.4820866141732283
0
LINE
8
BLACK
6
CONTINUOUS
10
0.2439842519685039
20
0.4820866141732283
11
0.244360905511811
21
0.4820116929133858
0
LINE
8
BLACK
6
CONTINUOUS
10
-0.007
20
0.4801181102362205
11
-0.007
21
0.1104330708661417
0
LINE
8
BLACK
6
CONTINUOUS
10
-0.007
20
0.1104330708661417
11
0.243
21
0.1104330708661417
0
LINE
8
BLACK
6
CONTINUOUS
10
0.243
20
0.1104330708661417
11
0.243
21
0.4801181102362205
0
LINE
8
BLACK
6
CONTINUOUS
10
0.243
20
0.4801181102362205
11
-0.007
21
0.4801181102362205
0
LINE
8
BLACK
6
CONTINUOUS
10
0.862071968503937
20
0.1903301181102362
11
0.8673244094488188
21
0.1875734251968504
0
LINE
8
BLACK
6
CONTINUOUS
10
0.8673244094488188
20
0.1875734251968504
11
0.8717645275590551
21
0.183639842519685
0
LINE
8
BLACK
6
CONTINUOUS
10
0.8717645275590551
20
0.183639842519685
11
0.8751342519685039
21
0.1787579527559055
0
LINE
8
BLACK
6
CONTINUOUS
10
0.8751342519685039
20
0.1787579527559055
11
0.8772377559055118
21
0.1732114960629921
0
LINE
8
BLACK
6
CONTINUOUS
10
0.8772377559055118
20
0.1732114960629921
11
0.8779527559055118
21
0.1673228346456693
0
LINE
8
BLACK
6
CONTINUOUS
10
0.8779527559055118
20
0.1673228346456693
11
0.8772377559055118
21
0.1614341732283464
0
LINE
8
BLACK
6
CONTINUOUS
10
0.8772377559055118
20
0.1614341732283464
11
0.8751342519685039
21
0.1558877165354331
0
LINE
8
BLACK
6
CONTINUOUS
10
0.8751342519685039
20
0.1558877165354331
11
0.8717645275590551
21
0.1510058267716535
0
LINE
8
BLACK
6
CONTINUOUS
10
0.8717645275590551
20
0.1510058267716535
11
0.8673244094488188
21
0.1470722440944882
0
LINE
8
BLACK
6
CONTINUOUS
10
0.8673244094488188
20
0.1470722440944882
11
0.862071968503937
21
0.1443155511811024
0
LINE
8
BLACK
6
CONTINUOUS
10
0.862071968503937
20
0.1443155511811024
11
0.8563124015748032
21
0.1428959448818898
0
LINE
8
BLACK
6
CONTINUOUS
10
0.8563124015748032
20
0.1428959448818898
11
0.8503805118110236
21
0.1428959448818898
0
LINE
8
BLACK
6
CONTINUOUS
10
0.8503805118110236
20
0.1428959448818898
11
0.8446209448818898
21
0.1443155511811024
0
LINE
8
BLACK
6
CONTINUOUS
10
0.8446209448818898
20
0.1443155511811024
11
0.8393685039370079
21
0.1470722440944882
0
LINE
8
BLACK
6
CONTINUOUS
10
0.8393685039370079
20
0.1470722440944882
11
0.8349283858267716
21
0.1510058267716535
0
LINE
8
BLACK
6
CONTINUOUS
10
0.8349283858267716
20
0.1510058267716535
11
0.8315586614173228
21
0.1558877165354331
0
LINE
8
BLACK
6
CONTINUOUS
10
0.8315586614173228
20
0.1558877165354331
11
0.829455157480315
21
0.1614341732283464
0
LINE
8
BLACK
6
CONTINUOUS
10
0.829455157480315
20
0.1614341732283464
11
0.8287401574803149
21
0.1673228346456693
0
LINE
8
BLACK
6
CONTINUOUS
10
0.8287401574803149
20
0.1673228346456693
11
0.829455157480315
21
0.1732114960629921
0
LINE
8
BLACK
6
CONTINUOUS
10
0.829455157480315
20
0.1732114960629921
11
0.8315586614173228
21
0.1787579527559055
0
LINE
8
BLACK
6
CONTINUOUS
10
0.8315586614173228
20
0.1787579527559055
11
0.8349283858267716
21
0.183639842519685
0
LINE
8
BLACK
6
CONTINUOUS
10
0.8349283858267716
20
0.183639842519685
11
0.8393685039370079
21
0.1875734251968504
0
LINE
8
BLACK
6
CONTINUOUS
10
0.8393685039370079
20
0.1875734251968504
11
0.8446209448818898
21
0.1903301181102362
0
LINE
8
BLACK
6
CONTINUOUS
10
0.8446209448818898
20
0.1903301181102362
11
0.8503805118110236
21
0.1917497244094488
0
LINE
8
BLACK
6
CONTINUOUS
10
0.8503805118110236
20
0.1917497244094488
11
0.8563124015748032
21
0.1917497244094488
0
LINE
8
BLACK
6
CONTINUOUS
10
0.8563124015748032
20
0.1917497244094488
11
0.862071968503937
21
0.1903301181102362
0
LINE
8
BLACK
6
CONTINUOUS
10
0.8312913385826771
20
0.1614131889763779
11
0.8335723622047244
21
0.1559062598425197
0
LINE
8
BLACK
6
CONTINUOUS
10
0.8335723622047244
20
0.1559062598425197
11
0.8372009842519685
21
0.1511773622047244
0
LINE
8
BLACK
6
CONTINUOUS
10
0.8372009842519685
20
0.1511773622047244
11
0.8419298818897638
21
0.1475487401574803
0
LINE
8
BLACK
6
CONTINUOUS
10
0.8419298818897638
20
0.1475487401574803
11
0.847436811023622
21
0.1452677165354331
0
LINE
8
BLACK
6
CONTINUOUS
10
0.847436811023622
20
0.1452677165354331
11
0.8533464566929133
21
0.1444896850393701
0
LINE
8
BLACK
6
CONTINUOUS
10
0.8533464566929133
20
0.1444896850393701
11
0.8592561023622047
21
0.1452677165354331
0
LINE
8
BLACK
6
CONTINUOUS
10
0.8592561023622047
20
0.1452677165354331
11
0.8647630314960629
21
0.1475487401574803
0
LINE
8
BLACK
6
CONTINUOUS
10
0.8647630314960629
20
0.1475487401574803
11
0.8694919291338582
21
0.1511773622047244
0
LINE
8
BLACK
6
CONTINUOUS
10
0.8694919291338582
20
0.1511773622047244
11
0.8731205511811023
21
0.1559062598425197
0
LINE
8
BLACK
6
CONTINUOUS
10
0.8731205511811023
20
0.1559062598425197
11
0.8754015748031496
21
0.1614131889763779
0
LINE
8
BLACK
6
CONTINUOUS
10
0.8754015748031496
20
0.1614131889763779
11
0.8761796062992125
21
0.1673228346456693
0
LINE
8
BLACK
6
CONTINUOUS
10
0.8761796062992125
20
0.1673228346456693
11
0.8754015748031496
21
0.1732324803149606
0
LINE
8
BLACK
6
CONTINUOUS
10
0.8754015748031496
20
0.1732324803149606
11
0.8731205511811023
21
0.1787394094488189
0
LINE
8
BLACK
6
CONTINUOUS
10
0.8731205511811023
20
0.1787394094488189
11
0.8694919291338582
21
0.1834683070866142
0
LINE
8
BLACK
6
CONTINUOUS
10
0.8694919291338582
20
0.1834683070866142
11
0.8647630314960629
21
0.1870969291338583
0
LINE
8
BLACK
6
CONTINUOUS
10
0.8647630314960629
20
0.1870969291338583
11
0.8592561023622047
21
0.1893779527559055
0
LINE
8
BLACK
6
CONTINUOUS
10
0.8592561023622047
20
0.1893779527559055
11
0.8533464566929133
21
0.1901559842519685
0
LINE
8
BLACK
6
CONTINUOUS
10
0.8533464566929133
20
0.1901559842519685
11
0.847436811023622
21
0.1893779527559055
0
LINE
8
BLACK
6
CONTINUOUS
10
0.847436811023622
20
0.1893779527559055
11
0.8419298818897638
21
0.1870969291338583
0
LINE
8
BLACK
6
CONTINUOUS
10
0.8419298818897638
20
0.1870969291338583
11
0.8372009842519685
21
0.1834683070866142
0
LINE
8
BLACK
6
CONTINUOUS
10
0.8372009842519685
20
0.1834683070866142
11
0.8335723622047244
21
0.1787394094488189
0
LINE
8
BLACK
6
CONTINUOUS
10
0.8335723622047244
20
0.1787394094488189
11
0.8312913385826771
21
0.1732324803149606
0
LINE
8
BLACK
6
CONTINUOUS
10
0.8312913385826771
20
0.1732324803149606
11
0.8305133070866142
21
0.1673228346456693
0
LINE
8
BLACK
6
CONTINUOUS
10
0.8305133070866142
20
0.1673228346456693
11
0.8312913385826771
21
0.1614131889763779
0
LINE
8
BLACK
6
CONTINUOUS
10
0.862071968503937
20
0.2690702755905512
11
0.8673244094488188
21
0.2663135826771654
0
LINE
8
BLACK
6
CONTINUOUS
10
0.8673244094488188
20
0.2663135826771654
11
0.8717645275590551
21
0.26238
0
LINE
8
BLACK
6
CONTINUOUS
10
0.8717645275590551
20
0.26238
11
0.8751342519685039
21
0.2574981102362205
0
LINE
8
BLACK
6
CONTINUOUS
10
0.8751342519685039
20
0.2574981102362205
11
0.8772377559055118
21
0.2519516535433071
0
LINE
8
BLACK
6
CONTINUOUS
10
0.8772377559055118
20
0.2519516535433071
11
0.8779527559055118
21
0.2460629921259843
0
LINE
8
BLACK
6
CONTINUOUS
10
0.8779527559055118
20
0.2460629921259843
11
0.8772377559055118
21
0.2401743307086614
0
LINE
8
BLACK
6
CONTINUOUS
10
0.8772377559055118
20
0.2401743307086614
11
0.8751342519685039
21
0.234627874015748
0
LINE
8
BLACK
6
CONTINUOUS
10
0.8751342519685039
20
0.234627874015748
11
0.8717645275590551
21
0.2297459842519685
0
LINE
8
BLACK
6
CONTINUOUS
10
0.8717645275590551
20
0.2297459842519685
11
0.8673244094488188
21
0.2258124015748031
0
LINE
8
BLACK
6
CONTINUOUS
10
0.8673244094488188
20
0.2258124015748031
11
0.862071968503937
21
0.2230557086614173
0
LINE
8
BLACK
6
CONTINUOUS
10
0.862071968503937
20
0.2230557086614173
11
0.8563124015748032
21
0.2216361023622047
0
LINE
8
BLACK
6
CONTINUOUS
10
0.8563124015748032
20
0.2216361023622047
11
0.8503805118110236
21
0.2216361023622047
0
LINE
8
BLACK
6
CONTINUOUS
10
0.8503805118110236
20
0.2216361023622047
11
0.8446209448818898
21
0.2230557086614173
0
LINE
8
BLACK
6
CONTINUOUS
10
0.8446209448818898
20
0.2230557086614173
11
0.8393685039370079
21
0.2258124015748031
0
LINE
8
BLACK
6
CONTINUOUS
10
0.8393685039370079
20
0.2258124015748031
11
0.8349283858267716
21
0.2297459842519685
0
LINE
8
BLACK
6
CONTINUOUS
10
0.8349283858267716
20
0.2297459842519685
11
0.8315586614173228
21
0.234627874015748
0
LINE
8
BLACK
6
CONTINUOUS
10
0.8315586614173228
20
0.234627874015748
11
0.829455157480315
21
0.2401743307086614
0
LINE
8
BLACK
6
CONTINUOUS
10
0.829455157480315
20
0.2401743307086614
11
0.8287401574803149
21
0.2460629921259843
0
LINE
8
BLACK
6
CONTINUOUS
10
0.8287401574803149
20
0.2460629921259843
11
0.829455157480315
21
0.2519516535433071
0
LINE
8
BLACK
6
CONTINUOUS
10
0.829455157480315
20
0.2519516535433071
11
0.8315586614173228
21
0.2574981102362205
0
LINE
8
BLACK
6
CONTINUOUS
10
0.8315586614173228
20
0.2574981102362205
11
0.8349283858267716
21
0.26238
0
LINE
8
BLACK
6
CONTINUOUS
10
0.8349283858267716
20
0.26238
11
0.8393685039370079
21
0.2663135826771654
0
LINE
8
BLACK
6
CONTINUOUS
10
0.8393685039370079
20
0.2663135826771654
11
0.8446209448818898
21
0.2690702755905512
0
LINE
8
BLACK
6
CONTINUOUS
10
0.8446209448818898
20
0.2690702755905512
11
0.8503805118110236
21
0.2704898818897638
0
LINE
8
BLACK
6
CONTINUOUS
10
0.8503805118110236
20
0.2704898818897638
11
0.8563124015748032
21
0.2704898818897638
0
LINE
8
BLACK
6
CONTINUOUS
10
0.8563124015748032
20
0.2704898818897638
11
0.862071968503937
21
0.2690702755905512
0
LINE
8
BLACK
6
CONTINUOUS
10
0.8312913385826771
20
0.2401533464566929
11
0.8335723622047244
21
0.2346464173228346
0
LINE
8
BLACK
6
CONTINUOUS
10
0.8335723622047244
20
0.2346464173228346
11
0.8372009842519685
21
0.2299175196850394
0
LINE
8
BLACK
6
CONTINUOUS
10
0.8372009842519685
20
0.2299175196850394
11
0.8419298818897638
21
0.2262888976377953
0
LINE
8
BLACK
6
CONTINUOUS
10
0.8419298818897638
20
0.2262888976377953
11
0.847436811023622
21
0.224007874015748
0
LINE
8
BLACK
6
CONTINUOUS
10
0.847436811023622
20
0.224007874015748
11
0.8533464566929133
21
0.223229842519685
0
LINE
8
BLACK
6
CONTINUOUS
10
0.8533464566929133
20
0.223229842519685
11
0.8592561023622047
21
0.224007874015748
0
LINE
8
BLACK
6
CONTINUOUS
10
0.8592561023622047
20
0.224007874015748
11
0.8647630314960629
21
0.2262888976377953
0
LINE
8
BLACK
6
CONTINUOUS
10
0.8647630314960629
20
0.2262888976377953
11
0.8694919291338582
21
0.2299175196850394
0
LINE
8
BLACK
6
CONTINUOUS
10
0.8694919291338582
20
0.2299175196850394
11
0.8731205511811023
21
0.2346464173228346
0
LINE
8
BLACK
6
CONTINUOUS
10
0.8731205511811023
20
0.2346464173228346
11
0.8754015748031496
21
0.2401533464566929
0
LINE
8
BLACK
6
CONTINUOUS
10
0.8754015748031496
20
0.2401533464566929
11
0.8761796062992125
21
0.2460629921259843
0
LINE
8
BLACK
6
CONTINUOUS
10
0.8761796062992125
20
0.2460629921259843
11
0.8754015748031496
21
0.2519726377952756
0
LINE
8
BLACK
6
CONTINUOUS
10
0.8754015748031496
20
0.2519726377952756
11
0.8731205511811023
21
0.2574795669291339
0
LINE
8
BLACK
6
CONTINUOUS
10
0.8731205511811023
20
0.2574795669291339
11
0.8694919291338582
21
0.2622084645669291
0
LINE
8
BLACK
6
CONTINUOUS
10
0.8694919291338582
20
0.2622084645669291
11
0.8647630314960629
21
0.2658370866141732
0
LINE
8
BLACK
6
CONTINUOUS
10
0.8647630314960629
20
0.2658370866141732
11
0.8592561023622047
21
0.2681181102362205
0
LINE
8
BLACK
6
CONTINUOUS
10
0.8592561023622047
20
0.2681181102362205
11
0.8533464566929133
21
0.2688961417322834
0
LINE
8
BLACK
6
CONTINUOUS
10
0.8533464566929133
20
0.2688961417322834
11
0.847436811023622
21
0.2681181102362205
0
LINE
8
BLACK
6
CONTINUOUS
10
0.847436811023622
20
0.2681181102362205
11
0.8419298818897638
21
0.2658370866141732
0
LINE
8
BLACK
6
CONTINUOUS
10
0.8419298818897638
20
0.2658370866141732
11
0.8372009842519685
21
0.2622084645669291
0
LINE
8
BLACK
6
CONTINUOUS
10
0.8372009842519685
20
0.2622084645669291
11
0.8335723622047244
21
0.2574795669291339
0
LINE
8
BLACK
6
CONTINUOUS
10
0.8335723622047244
20
0.2574795669291339
11
0.8312913385826771
21
0.2519726377952756
0
LINE
8
BLACK
6
CONTINUOUS
10
0.8312913385826771
20
0.2519726377952756
11
0.8305133070866142
21
0.2460629921259843
0
LINE
8
BLACK
6
CONTINUOUS
10
0.8305133070866142
20
0.2460629921259843
11
0.8312913385826771
21
0.2401533464566929
0
LINE
8
BLACK
6
CONTINUOUS
10
0.862071968503937
20
0.3674954724409449
11
0.8673244094488188
21
0.3647387795275591
0
LINE
8
BLACK
6
CONTINUOUS
10
0.8673244094488188
20
0.3647387795275591
11
0.8717645275590551
21
0.3608051968503937
0
LINE
8
BLACK
6
CONTINUOUS
10
0.8717645275590551
20
0.3608051968503937
11
0.8751342519685039
21
0.3559233070866142
0
LINE
8
BLACK
6
CONTINUOUS
10
0.8751342519685039
20
0.3559233070866142
11
0.8772377559055118
21
0.3503768503937008
0
LINE
8
BLACK
6
CONTINUOUS
10
0.8772377559055118
20
0.3503768503937008
11
0.8779527559055118
21
0.344488188976378
0
LINE
8
BLACK
6
CONTINUOUS
10
0.8779527559055118
20
0.344488188976378
11
0.8772377559055118
21
0.3385995275590551
0
LINE
8
BLACK
6
CONTINUOUS
10
0.8772377559055118
20
0.3385995275590551
11
0.8751342519685039
21
0.3330530708661417
0
LINE
8
BLACK
6
CONTINUOUS
10
0.8751342519685039
20
0.3330530708661417
11
0.8717645275590551
21
0.3281711811023622
0
LINE
8
BLACK
6
CONTINUOUS
10
0.8717645275590551
20
0.3281711811023622
11
0.8673244094488188
21
0.3242375984251968
0
LINE
8
BLACK
6
CONTINUOUS
10
0.8673244094488188
20
0.3242375984251968
11
0.862071968503937
21
0.321480905511811
0
LINE
8
BLACK
6
CONTINUOUS
10
0.862071968503937
20
0.321480905511811
11
0.8563124015748032
21
0.3200612992125984
0
LINE
8
BLACK
6
CONTINUOUS
10
0.8563124015748032
20
0.3200612992125984
11
0.8503805118110236
21
0.3200612992125984
0
LINE
8
BLACK
6
CONTINUOUS
10
0.8503805118110236
20
0.3200612992125984
11
0.8446209448818898
21
0.321480905511811
0
LINE
8
BLACK
6
CONTINUOUS
10
0.8446209448818898
20
0.321480905511811
11
0.8393685039370079
21
0.3242375984251968
0
LINE
8
BLACK
6
CONTINUOUS
10
0.8393685039370079
20
0.3242375984251968
11
0.8349283858267716
21
0.3281711811023622
0
LINE
8
BLACK
6
CONTINUOUS
10
0.8349283858267716
20
0.3281711811023622
11
0.8315586614173228
21
0.3330530708661417
0
LINE
8
BLACK
6
CONTINUOUS
10
0.8315586614173228
20
0.3330530708661417
11
0.829455157480315
21
0.3385995275590551
0
LINE
8
BLACK
6
CONTINUOUS
10
0.829455157480315
20
0.3385995275590551
11
0.8287401574803149
21
0.344488188976378
0
LINE
8
BLACK
6
CONTINUOUS
10
0.8287401574803149
20
0.344488188976378
11
0.829455157480315
21
0.3503768503937008
0
LINE
8
BLACK
6
CONTINUOUS
10
0.829455157480315
20
0.3503768503937008
11
0.8315586614173228
21
0.3559233070866142
0
LINE
8
BLACK
6
CONTINUOUS
10
0.8315586614173228
20
0.3559233070866142
11
0.8349283858267716
21
0.3608051968503937
0
LINE
8
BLACK
6
CONTINUOUS
10
0.8349283858267716
20
0.3608051968503937
11
0.8393685039370079
21
0.3647387795275591
0
LINE
8
BLACK
6
CONTINUOUS
10
0.8393685039370079
20
0.3647387795275591
11
0.8446209448818898
21
0.3674954724409449
0
LINE
8
BLACK
6
CONTINUOUS
10
0.8446209448818898
20
0.3674954724409449
11
0.8503805118110236
21
0.3689150787401575
0
LINE
8
BLACK
6
CONTINUOUS
10
0.8503805118110236
20
0.3689150787401575
11
0.8563124015748032
21
0.3689150787401575
0
LINE
8
BLACK
6
CONTINUOUS
10
0.8563124015748032
20
0.3689150787401575
11
0.862071968503937
21
0.3674954724409449
0
LINE
8
BLACK
6
CONTINUOUS
10
0.8312913385826771
20
0.3385785433070866
11
0.8335723622047244
21
0.3330716141732283
0
LINE
8
BLACK
6
CONTINUOUS
10
0.8335723622047244
20
0.3330716141732283
11
0.8372009842519685
21
0.3283427165354331
0
LINE
8
BLACK
6
CONTINUOUS
10
0.8372009842519685
20
0.3283427165354331
11
0.8419298818897638
21
0.3247140944881889
0
LINE
8
BLACK
6
CONTINUOUS
10
0.8419298818897638
20
0.3247140944881889
11
0.847436811023622
21
0.3224330708661417
0
LINE
8
BLACK
6
CONTINUOUS
10
0.847436811023622
20
0.3224330708661417
11
0.8533464566929133
21
0.3216550393700787
0
LINE
8
BLACK
6
CONTINUOUS
10
0.8533464566929133
20
0.3216550393700787
11
0.8592561023622047
21
0.3224330708661417
0
LINE
8
BLACK
6
CONTINUOUS
10
0.8592561023622047
20
0.3224330708661417
11
0.8647630314960629
21
0.3247140944881889
0
LINE
8
BLACK
6
CONTINUOUS
10
0.8647630314960629
20
0.3247140944881889
11
0.8694919291338582
21
0.3283427165354331
0
LINE
8
BLACK
6
CONTINUOUS
10
0.8694919291338582
20
0.3283427165354331
11
0.8731205511811023
21
0.3330716141732283
0
LINE
8
BLACK
6
CONTINUOUS
10
0.8731205511811023
20
0.3330716141732283
11
0.8754015748031496
21
0.3385785433070866
0
LINE
8
BLACK
6
CONTINUOUS
10
0.8754015748031496
20
0.3385785433070866
11
0.8761796062992125
21
0.344488188976378
0
LINE
8
BLACK
6
CONTINUOUS
10
0.8761796062992125
20
0.344488188976378
11
0.8754015748031496
21
0.3503978346456693
0
LINE
8
BLACK
6
CONTINUOUS
10
0.8754015748031496
20
0.3503978346456693
11
0.8731205511811023
21
0.3559047637795276
0
LINE
8
BLACK
6
CONTINUOUS
10
0.8731205511811023
20
0.3559047637795276
11
0.8694919291338582
21
0.3606336614173228
0
LINE
8
BLACK
6
CONTINUOUS
10
0.8694919291338582
20
0.3606336614173228
11
0.8647630314960629
21
0.3642622834645669
0
LINE
8
BLACK
6
CONTINUOUS
10
0.8647630314960629
20
0.3642622834645669
11
0.8592561023622047
21
0.3665433070866141
0
LINE
8
BLACK
6
CONTINUOUS
10
0.8592561023622047
20
0.3665433070866141
11
0.8533464566929133
21
0.3673213385826772
0
LINE
8
BLACK
6
CONTINUOUS
10
0.8533464566929133
20
0.3673213385826772
11
0.847436811023622
21
0.3665433070866141
0
LINE
8
BLACK
6
CONTINUOUS
10
0.847436811023622
20
0.3665433070866141
11
0.8419298818897638
21
0.3642622834645669
0
LINE
8
BLACK
6
CONTINUOUS
10
0.8419298818897638
20
0.3642622834645669
11
0.8372009842519685
21
0.3606336614173228
0
LINE
8
BLACK
6
CONTINUOUS
10
0.8372009842519685
20
0.3606336614173228
11
0.8335723622047244
21
0.3559047637795276
0
LINE
8
BLACK
6
CONTINUOUS
10
0.8335723622047244
20
0.3559047637795276
11
0.8312913385826771
21
0.3503978346456693
0
LINE
8
BLACK
6
CONTINUOUS
10
0.8312913385826771
20
0.3503978346456693
11
0.8305133070866142
21
0.344488188976378
0
LINE
8
BLACK
6
CONTINUOUS
10
0.8305133070866142
20
0.344488188976378
11
0.8312913385826771
21
0.3385785433070866
0
LINE
8
BLACK
6
CONTINUOUS
10
0.862071968503937
20
0.4462356299212598
11
0.8673244094488188
21
0.443478937007874
0
LINE
8
BLACK
6
CONTINUOUS
10
0.8673244094488188
20
0.443478937007874
11
0.8717645275590551
21
0.4395453543307086
0
LINE
8
BLACK
6
CONTINUOUS
10
0.8717645275590551
20
0.4395453543307086
11
0.8751342519685039
21
0.4346634645669291
0
LINE
8
BLACK
6
CONTINUOUS
10
0.8751342519685039
20
0.4346634645669291
11
0.8772377559055118
21
0.4291170078740157
0
LINE
8
BLACK
6
CONTINUOUS
10
0.8772377559055118
20
0.4291170078740157
11
0.8779527559055118
21
0.4232283464566929
0
LINE
8
BLACK
6
CONTINUOUS
10
0.8779527559055118
20
0.4232283464566929
11
0.8772377559055118
21
0.4173396850393701
0
LINE
8
BLACK
6
CONTINUOUS
10
0.8772377559055118
20
0.4173396850393701
11
0.8751342519685039
21
0.4117932283464567
0
LINE
8
BLACK
6
CONTINUOUS
10
0.8751342519685039
20
0.4117932283464567
11
0.8717645275590551
21
0.4069113385826771
0
LINE
8
BLACK
6
CONTINUOUS
10
0.8717645275590551
20
0.4069113385826771
11
0.8673244094488188
21
0.4029777559055118
0
LINE
8
BLACK
6
CONTINUOUS
10
0.8673244094488188
20
0.4029777559055118
11
0.862071968503937
21
0.400221062992126
0
LINE
8
BLACK
6
CONTINUOUS
10
0.862071968503937
20
0.400221062992126
11
0.8563124015748032
21
0.3988014566929134
0
LINE
8
BLACK
6
CONTINUOUS
10
0.8563124015748032
20
0.3988014566929134
11
0.8503805118110236
21
0.3988014566929134
0
LINE
8
BLACK
6
CONTINUOUS
10
0.8503805118110236
20
0.3988014566929134
11
0.8446209448818898
21
0.400221062992126
0
LINE
8
BLACK
6
CONTINUOUS
10
0.8446209448818898
20
0.400221062992126
11
0.8393685039370079
21
0.4029777559055118
0
LINE
8
BLACK
6
CONTINUOUS
10
0.8393685039370079
20
0.4029777559055118
11
0.8349283858267716
21
0.4069113385826771
0
LINE
8
BLACK
6
CONTINUOUS
10
0.8349283858267716
20
0.4069113385826771
11
0.8315586614173228
21
0.4117932283464567
0
LINE
8
BLACK
6
CONTINUOUS
10
0.8315586614173228
20
0.4117932283464567
11
0.829455157480315
21
0.4173396850393701
0
LINE
8
BLACK
6
CONTINUOUS
10
0.829455157480315
20
0.4173396850393701
11
0.8287401574803149
21
0.4232283464566929
0
LINE
8
BLACK
6
CONTINUOUS
10
0.8287401574803149
20
0.4232283464566929
11
0.829455157480315
21
0.4291170078740157
0
LINE
8
BLACK
6
CONTINUOUS
10
0.829455157480315
20
0.4291170078740157
11
0.8315586614173228
21
0.4346634645669291
0
LINE
8
BLACK
6
CONTINUOUS
10
0.8315586614173228
20
0.4346634645669291
11
0.8349283858267716
21
0.4395453543307086
0
LINE
8
BLACK
6
CONTINUOUS
10
0.8349283858267716
20
0.4395453543307086
11
0.8393685039370079
21
0.443478937007874
0
LINE
8
BLACK
6
CONTINUOUS
10
0.8393685039370079
20
0.443478937007874
11
0.8446209448818898
21
0.4462356299212598
0
LINE
8
BLACK
6
CONTINUOUS
10
0.8446209448818898
20
0.4462356299212598
11
0.8503805118110236
21
0.4476552362204724
0
LINE
8
BLACK
6
CONTINUOUS
10
0.8503805118110236
20
0.4476552362204724
11
0.8563124015748032
21
0.4476552362204724
0
LINE
8
BLACK
6
CONTINUOUS
10
0.8563124015748032
20
0.4476552362204724
11
0.862071968503937
21
0.4462356299212598
0
LINE
8
BLACK
6
CONTINUOUS
10
0.8312913385826771
20
0.4173187007874016
11
0.8335723622047244
21
0.4118117716535433
0
LINE
8
BLACK
6
CONTINUOUS
10
0.8335723622047244
20
0.4118117716535433
11
0.8372009842519685
21
0.407082874015748
0
LINE
8
BLACK
6
CONTINUOUS
10
0.8372009842519685
20
0.407082874015748
11
0.8419298818897638
21
0.4034542519685039
0
LINE
8
BLACK
6
CONTINUOUS
10
0.8419298818897638
20
0.4034542519685039
11
0.847436811023622
21
0.4011732283464567
0
LINE
8
BLACK
6
CONTINUOUS
10
0.847436811023622
20
0.4011732283464567
11
0.8533464566929133
21
0.4003951968503937
0
LINE
8
BLACK
6
CONTINUOUS
10
0.8533464566929133
20
0.4003951968503937
11
0.8592561023622047
21
0.4011732283464567
0
LINE
8
BLACK
6
CONTINUOUS
10
0.8592561023622047
20
0.4011732283464567
11
0.8647630314960629
21
0.4034542519685039
0
LINE
8
BLACK
6
CONTINUOUS
10
0.8647630314960629
20
0.4034542519685039
11
0.8694919291338582
21
0.407082874015748
0
LINE
8
BLACK
6
CONTINUOUS
10
0.8694919291338582
20
0.407082874015748
11
0.8731205511811023
21
0.4118117716535433
0
LINE
8
BLACK
6
CONTINUOUS
10
0.8731205511811023
20
0.4118117716535433
11
0.8754015748031496
21
0.4173187007874016
0
LINE
8
BLACK
6
CONTINUOUS
10
0.8754015748031496
20
0.4173187007874016
11
0.8761796062992125
21
0.4232283464566929
0
LINE
8
BLACK
6
CONTINUOUS
10
0.8761796062992125
20
0.4232283464566929
11
0.8754015748031496
21
0.4291379921259842
0
LINE
8
BLACK
6
CONTINUOUS
10
0.8754015748031496
20
0.4291379921259842
11
0.8731205511811023
21
0.4346449212598425
0
LINE
8
BLACK
6
CONTINUOUS
10
0.8731205511811023
20
0.4346449212598425
11
0.8694919291338582
21
0.4393738188976378
0
LINE
8
BLACK
6
CONTINUOUS
10
0.8694919291338582
20
0.4393738188976378
11
0.8647630314960629
21
0.4430024409448819
0
LINE
8
BLACK
6
CONTINUOUS
10
0.8647630314960629
20
0.4430024409448819
11
0.8592561023622047
21
0.4452834645669291
0
LINE
8
BLACK
6
CONTINUOUS
10
0.8592561023622047
20
0.4452834645669291
11
0.8533464566929133
21
0.4460614960629921
0
LINE
8
BLACK
6
CONTINUOUS
10
0.8533464566929133
20
0.4460614960629921
11
0.847436811023622
21
0.4452834645669291
0
LINE
8
BLACK
6
CONTINUOUS
10
0.847436811023622
20
0.4452834645669291
11
0.8419298818897638
21
0.4430024409448819
0
LINE
8
BLACK
6
CONTINUOUS
10
0.8419298818897638
20
0.4430024409448819
11
0.8372009842519685
21
0.4393738188976378
0
LINE
8
BLACK
6
CONTINUOUS
10
0.8372009842519685
20
0.4393738188976378
11
0.8335723622047244
21
0.4346449212598425
0
LINE
8
BLACK
6
CONTINUOUS
10
0.8335723622047244
20
0.4346449212598425
11
0.8312913385826771
21
0.4291379921259842
0
LINE
8
BLACK
6
CONTINUOUS
10
0.8312913385826771
20
0.4291379921259842
11
0.8305133070866142
21
0.4232283464566929
0
LINE
8
BLACK
6
CONTINUOUS
10
0.8305133070866142
20
0.4232283464566929
11
0.8312913385826771
21
0.4173187007874016
0
LINE
8
BLACK
6
CONTINUOUS
10
0.9073475590551181
20
0.4965584645669291
11
0.9126
21
0.4938017716535433
0
LINE
8
BLACK
6
CONTINUOUS
10
0.9126
20
0.4938017716535433
11
0.9170401181102362
21
0.489868188976378
0
LINE
8
BLACK
6
CONTINUOUS
10
0.9170401181102362
20
0.489868188976378
11
0.9204098425196851
21
0.4849862992125984
0
LINE
8
BLACK
6
CONTINUOUS
10
0.9204098425196851
20
0.4849862992125984
11
0.9225133464566929
21
0.479439842519685
0
LINE
8
BLACK
6
CONTINUOUS
10
0.9225133464566929
20
0.479439842519685
11
0.9232283464566929
21
0.4735511811023622
0
LINE
8
BLACK
6
CONTINUOUS
10
0.9232283464566929
20
0.4735511811023622
11
0.9225133464566929
21
0.4676625196850394
0
LINE
8
BLACK
6
CONTINUOUS
10
0.9225133464566929
20
0.4676625196850394
11
0.9204098425196851
21
0.462116062992126
0
LINE
8
BLACK
6
CONTINUOUS
10
0.9204098425196851
20
0.462116062992126
11
0.9170401181102362
21
0.4572341732283464
0
LINE
8
BLACK
6
CONTINUOUS
10
0.9170401181102362
20
0.4572341732283464
11
0.9126
21
0.4533005905511811
0
LINE
8
BLACK
6
CONTINUOUS
10
0.9126
20
0.4533005905511811
11
0.9073475590551181
21
0.4505438976377953
0
LINE
8
BLACK
6
CONTINUOUS
10
0.9073475590551181
20
0.4505438976377953
11
0.9015879921259843
21
0.4491242913385827
0
LINE
8
BLACK
6
CONTINUOUS
10
0.9015879921259843
20
0.4491242913385827
11
0.8956561023622047
21
0.4491242913385827
0
LINE
8
BLACK
6
CONTINUOUS
10
0.8956561023622047
20
0.4491242913385827
11
0.8898965354330709
21
0.4505438976377953
0
LINE
8
BLACK
6
CONTINUOUS
10
0.8898965354330709
20
0.4505438976377953
11
0.8846440944881889
21
0.4533005905511811
0
LINE
8
BLACK
6
CONTINUOUS
10
0.8846440944881889
20
0.4533005905511811
11
0.8802039763779528
21
0.4572341732283464
0
LINE
8
BLACK
6
CONTINUOUS
10
0.8802039763779528
20
0.4572341732283464
11
0.876834251968504
21
0.462116062992126
0
LINE
8
BLACK
6
CONTINUOUS
10
0.876834251968504
20
0.462116062992126
11
0.8747307480314961
21
0.4676625196850394
0
LINE
8
BLACK
6
CONTINUOUS
10
0.8747307480314961
20
0.4676625196850394
11
0.8740157480314961
21
0.4735511811023622
0
LINE
8
BLACK
6
CONTINUOUS
10
0.8740157480314961
20
0.4735511811023622
11
0.8747307480314961
21
0.479439842519685
0
LINE
8
BLACK
6
CONTINUOUS
10
0.8747307480314961
20
0.479439842519685
11
0.876834251968504
21
0.4849862992125984
0
LINE
8
BLACK
6
CONTINUOUS
10
0.876834251968504
20
0.4849862992125984
11
0.8802039763779528
21
0.489868188976378
0
LINE
8
BLACK
6
CONTINUOUS
10
0.8802039763779528
20
0.489868188976378
11
0.8846440944881889
21
0.4938017716535433
0
LINE
8
BLACK
6
CONTINUOUS
10
0.8846440944881889
20
0.4938017716535433
11
0.8898965354330709
21
0.4965584645669291
0
LINE
8
BLACK
6
CONTINUOUS
10
0.8898965354330709
20
0.4965584645669291
11
0.8956561023622047
21
0.4979780708661417
0
LINE
8
BLACK
6
CONTINUOUS
10
0.8956561023622047
20
0.4979780708661417
11
0.9015879921259843
21
0.4979780708661417
0
LINE
8
BLACK
6
CONTINUOUS
10
0.9015879921259843
20
0.4979780708661417
11
0.9073475590551181
21
0.4965584645669291
0
LINE
8
BLACK
6
CONTINUOUS
10
0.8765669291338583
20
0.4676415354330709
11
0.8788479527559054
21
0.4621346062992126
0
LINE
8
BLACK
6
CONTINUOUS
10
0.8788479527559054
20
0.4621346062992126
11
0.8824765748031496
21
0.4574057086614173
0
LINE
8
BLACK
6
CONTINUOUS
10
0.8824765748031496
20
0.4574057086614173
11
0.8872054724409448
21
0.4537770866141732
0
LINE
8
BLACK
6
CONTINUOUS
10
0.8872054724409448
20
0.4537770866141732
11
0.8927124015748031
21
0.451496062992126
0
LINE
8
BLACK
6
CONTINUOUS
10
0.8927124015748031
20
0.451496062992126
11
0.8986220472440944
21
0.450718031496063
0
LINE
8
BLACK
6
CONTINUOUS
10
0.8986220472440944
20
0.450718031496063
11
0.9045316929133858
21
0.451496062992126
0
LINE
8
BLACK
6
CONTINUOUS
10
0.9045316929133858
20
0.451496062992126
11
0.9100386220472441
21
0.4537770866141732
0
LINE
8
BLACK
6
CONTINUOUS
10
0.9100386220472441
20
0.4537770866141732
11
0.9147675196850393
21
0.4574057086614173
0
LINE
8
BLACK
6
CONTINUOUS
10
0.9147675196850393
20
0.4574057086614173
11
0.9183961417322835
21
0.4621346062992126
0
LINE
8
BLACK
6
CONTINUOUS
10
0.9183961417322835
20
0.4621346062992126
11
0.9206771653543306
21
0.4676415354330709
0
LINE
8
BLACK
6
CONTINUOUS
10
0.9206771653543306
20
0.4676415354330709
11
0.9214551968503937
21
0.4735511811023622
0
LINE
8
BLACK
6
CONTINUOUS
10
0.9214551968503937
20
0.4735511811023622
11
0.9206771653543306
21
0.4794608267716535
0
LINE
8
BLACK
6
CONTINUOUS
10
0.9206771653543306
20
0.4794608267716535
11
0.9183961417322835
21
0.4849677559055118
0
LINE
8
BLACK
6
CONTINUOUS
10
0.9183961417322835
20
0.4849677559055118
11
0.9147675196850393
21
0.489696653543307
0
LINE
8
BLACK
6
CONTINUOUS
10
0.9147675196850393
20
0.489696653543307
11
0.9100386220472441
21
0.4933252755905512
0
LINE
8
BLACK
6
CONTINUOUS
10
0.9100386220472441
20
0.4933252755905512
11
0.9045316929133858
21
0.4956062992125984
0
LINE
8
BLACK
6
CONTINUOUS
10
0.9045316929133858
20
0.4956062992125984
11
0.8986220472440944
21
0.4963843307086614
0
LINE
8
BLACK
6
CONTINUOUS
10
0.8986220472440944
20
0.4963843307086614
11
0.8927124015748031
21
0.4956062992125984
0
LINE
8
BLACK
6
CONTINUOUS
10
0.8927124015748031
20
0.4956062992125984
11
0.8872054724409448
21
0.4933252755905512
0
LINE
8
BLACK
6
CONTINUOUS
10
0.8872054724409448
20
0.4933252755905512
11
0.8824765748031496
21
0.489696653543307
0
LINE
8
BLACK
6
CONTINUOUS
10
0.8824765748031496
20
0.489696653543307
11
0.8788479527559054
21
0.4849677559055118
0
LINE
8
BLACK
6
CONTINUOUS
10
0.8788479527559054
20
0.4849677559055118
11
0.8765669291338583
21
0.4794608267716535
0
LINE
8
BLACK
6
CONTINUOUS
10
0.8765669291338583
20
0.4794608267716535
11
0.8757888976377952
21
0.4735511811023622
0
LINE
8
BLACK
6
CONTINUOUS
10
0.8757888976377952
20
0.4735511811023622
11
0.8765669291338583
21
0.4676415354330709
0
LINE
8
BLACK
6
CONTINUOUS
10
0.9537255118110236
20
0.5400072834645669
11
0.9589779527559055
21
0.5372505905511811
0
LINE
8
BLACK
6
CONTINUOUS
10
0.9589779527559055
20
0.5372505905511811
11
0.9634180708661417
21
0.5333170078740157
0
LINE
8
BLACK
6
CONTINUOUS
10
0.9634180708661417
20
0.5333170078740157
11
0.9667877952755906
21
0.5284351181102362
0
LINE
8
BLACK
6
CONTINUOUS
10
0.9667877952755906
20
0.5284351181102362
11
0.9688912992125984
21
0.5228886614173228
0
LINE
8
BLACK
6
CONTINUOUS
10
0.9688912992125984
20
0.5228886614173228
11
0.9696062992125984
21
0.517
0
LINE
8
BLACK
6
CONTINUOUS
10
0.9696062992125984
20
0.517
11
0.9688912992125984
21
0.5111113385826771
0
LINE
8
BLACK
6
CONTINUOUS
10
0.9688912992125984
20
0.5111113385826771
11
0.9667877952755906
21
0.5055648818897638
0
LINE
8
BLACK
6
CONTINUOUS
10
0.9667877952755906
20
0.5055648818897638
11
0.9634180708661417
21
0.5006829921259842
0
LINE
8
BLACK
6
CONTINUOUS
10
0.9634180708661417
20
0.5006829921259842
11
0.9589779527559055
21
0.4967494094488189
0
LINE
8
BLACK
6
CONTINUOUS
10
0.9589779527559055
20
0.4967494094488189
11
0.9537255118110236
21
0.4939927165354331
0
LINE
8
BLACK
6
CONTINUOUS
10
0.9537255118110236
20
0.4939927165354331
11
0.9479659448818898
21
0.4925731102362205
0
LINE
8
BLACK
6
CONTINUOUS
10
0.9479659448818898
20
0.4925731102362205
11
0.9420340551181102
21
0.4925731102362205
0
LINE
8
BLACK
6
CONTINUOUS
10
0.9420340551181102
20
0.4925731102362205
11
0.9362744881889764
21
0.4939927165354331
0
LINE
8
BLACK
6
CONTINUOUS
10
0.9362744881889764
20
0.4939927165354331
11
0.9310220472440944
21
0.4967494094488189
0
LINE
8
BLACK
6
CONTINUOUS
10
0.9310220472440944
20
0.4967494094488189
11
0.9265819291338583
21
0.5006829921259842
0
LINE
8
BLACK
6
CONTINUOUS
10
0.9265819291338583
20
0.5006829921259842
11
0.9232122047244095
21
0.5055648818897638
0
LINE
8
BLACK
6
CONTINUOUS
10
0.9232122047244095
20
0.5055648818897638
11
0.9211087007874016
21
0.5111113385826771
0
LINE
8
BLACK
6
CONTINUOUS
10
0.9211087007874016
20
0.5111113385826771
11
0.9203937007874016
21
0.517
0
LINE
8
BLACK
6
CONTINUOUS
10
0.9203937007874016
20
0.517
11
0.9211087007874016
21
0.5228886614173228
0
LINE
8
BLACK
6
CONTINUOUS
10
0.9211087007874016
20
0.5228886614173228
11
0.9232122047244095
21
0.5284351181102362
0
LINE
8
BLACK
6
CONTINUOUS
10
0.9232122047244095
20
0.5284351181102362
11
0.9265819291338583
21
0.5333170078740157
0
LINE
8
BLACK
6
CONTINUOUS
10
0.9265819291338583
20
0.5333170078740157
11
0.9310220472440944
21
0.5372505905511811
0
LINE
8
BLACK
6
CONTINUOUS
10
0.9310220472440944
20
0.5372505905511811
11
0.9362744881889764
21
0.5400072834645669
0
LINE
8
BLACK
6
CONTINUOUS
10
0.9362744881889764
20
0.5400072834645669
11
0.9420340551181102
21
0.5414268897637795
0
LINE
8
BLACK
6
CONTINUOUS
10
0.9420340551181102
20
0.5414268897637795
11
0.9479659448818898
21
0.5414268897637795
0
LINE
8
BLACK
6
CONTINUOUS
10
0.9479659448818898
20
0.5414268897637795
11
0.9537255118110236
21
0.5400072834645669
0
LINE
8
BLACK
6
CONTINUOUS
10
0.9229448818897638
20
0.5110903543307086
11
0.9252259055118111
21
0.5055834251968504
0
LINE
8
BLACK
6
CONTINUOUS
10
0.9252259055118111
20
0.5055834251968504
11
0.9288545275590551
21
0.5008545275590551
0
LINE
8
BLACK
6
CONTINUOUS
10
0.9288545275590551
20
0.5008545275590551
11
0.9335834251968503
21
0.497225905511811
0
LINE
8
BLACK
6
CONTINUOUS
10
0.9335834251968503
20
0.497225905511811
11
0.9390903543307086
21
0.4949448818897638
0
LINE
8
BLACK
6
CONTINUOUS
10
0.9390903543307086
20
0.4949448818897638
11
0.945
21
0.4941668503937008
0
LINE
8
BLACK
6
CONTINUOUS
10
0.945
20
0.4941668503937008
11
0.9509096456692914
21
0.4949448818897638
0
LINE
8
BLACK
6
CONTINUOUS
10
0.9509096456692914
20
0.4949448818897638
11
0.9564165748031496
21
0.497225905511811
0
LINE
8
BLACK
6
CONTINUOUS
10
0.9564165748031496
20
0.497225905511811
11
0.9611454724409448
21
0.5008545275590551
0
LINE
8
BLACK
6
CONTINUOUS
10
0.9611454724409448
20
0.5008545275590551
11
0.964774094488189
21
0.5055834251968504
0
LINE
8
BLACK
6
CONTINUOUS
10
0.964774094488189
20
0.5055834251968504
11
0.9670551181102361
21
0.5110903543307086
0
LINE
8
BLACK
6
CONTINUOUS
10
0.9670551181102361
20
0.5110903543307086
11
0.9678331496062992
21
0.517
0
LINE
8
BLACK
6
CONTINUOUS
10
0.9678331496062992
20
0.517
11
0.9670551181102361
21
0.5229096456692913
0
LINE
8
BLACK
6
CONTINUOUS
10
0.9670551181102361
20
0.5229096456692913
11
0.964774094488189
21
0.5284165748031496
0
LINE
8
BLACK
6
CONTINUOUS
10
0.964774094488189
20
0.5284165748031496
11
0.9611454724409448
21
0.5331454724409449
0
LINE
8
BLACK
6
CONTINUOUS
10
0.9611454724409448
20
0.5331454724409449
11
0.9564165748031496
21
0.5367740944881889
0
LINE
8
BLACK
6
CONTINUOUS
10
0.9564165748031496
20
0.5367740944881889
11
0.9509096456692914
21
0.5390551181102362
0
LINE
8
BLACK
6
CONTINUOUS
10
0.9509096456692914
20
0.5390551181102362
11
0.945
21
0.5398331496062992
0
LINE
8
BLACK
6
CONTINUOUS
10
0.945
20
0.5398331496062992
11
0.9390903543307086
21
0.5390551181102362
0
LINE
8
BLACK
6
CONTINUOUS
10
0.9390903543307086
20
0.5390551181102362
11
0.9335834251968503
21
0.5367740944881889
0
LINE
8
BLACK
6
CONTINUOUS
10
0.9335834251968503
20
0.5367740944881889
11
0.9288545275590551
21
0.5331454724409449
0
LINE
8
BLACK
6
CONTINUOUS
10
0.9288545275590551
20
0.5331454724409449
11
0.9252259055118111
21
0.5284165748031496
0
LINE
8
BLACK
6
CONTINUOUS
10
0.9252259055118111
20
0.5284165748031496
11
0.9229448818897638
21
0.5229096456692913
0
LINE
8
BLACK
6
CONTINUOUS
10
0.9229448818897638
20
0.5229096456692913
11
0.9221668503937007
21
0.517
0
LINE
8
BLACK
6
CONTINUOUS
10
0.9221668503937007
20
0.517
11
0.9229448818897638
21
0.5110903543307086
0
CIRCLE
8
BLACK
10
0.945
20
0.517
40
0.0068897637795276
0
CIRCLE
8
BLACK
10
0.4921259842519685
20
0.5905511811023622
40
0.0068897637795276
0
CIRCLE
8
BLACK
10
0.8533464566929133
20
0.344488188976378
40
0.0068897637795276
0
CIRCLE
8
BLACK
10
0.4921259842519685
20
0.
40
0.0068897637795276
0
CIRCLE
8
BLACK
10
0.8533464566929133
20
0.2460629921259843
40
0.0068897637795276
0
CIRCLE
8
BLACK
10
0.945
20
0.0735511811023622
40
0.0068897637795276
0
CIRCLE
8
BLACK
10
0.8533464566929133
20
0.4232283464566929
40
0.0068897637795276
0
CIRCLE
8
BLACK
10
0.0984251968503937
20
0.5905511811023622
40
0.0068897637795276
0
CIRCLE
8
BLACK
10
0.8858267716535433
20
0.
40
0.0068897637795276
0
CIRCLE
8
BLACK
10
0.8986220472440944
20
0.4735511811023622
40
0.0068897637795276
0
CIRCLE
8
BLACK
10
0.8858267716535433
20
0.5905511811023622
40
0.0068897637795276
0
CIRCLE
8
BLACK
10
0.0984251968503937
20
0.
40
0.0068897637795276
0
CIRCLE
8
BLACK
10
0.898
20
0.117
40
0.0068897637795276
0
CIRCLE
8
BLACK
10
0.8533464566929133
20
0.1673228346456693
40
0.0068897637795276
0
CIRCLE
8
BLACK
10
1.1318897637795275
20
0.1948818897637795
40
0.0068897637795276
0
CIRCLE
8
BLACK
10
1.1318897637795275
20
0.3956692913385826
40
0.0068897637795276
0
CIRCLE
8
BLACK
10
0.9311023622047244
20
0.1948818897637795
40
0.0068897637795276
0
CIRCLE
8
BLACK
10
0.9311023622047244
20
0.3956692913385826
40
0.0068897637795276
  0
ENDSEC
  0
EOF
