  0
SECTION
  2
HEADER
  9
$ANGBASE
  50
0.0
  9
$ANGDIR
  70
1
  9
$MEASUREMENT
  70
0
  0
ENDSEC
  0
SECTION
  2
TABLES
  0
TABLE
  2
LTYPE
  70
4
  0
LTYPE
  5
40F
  2
CONTINUOUS
  70
0
  3
Solid line
  72
65
  73
0
  40
0.0
  0
LTYPE
  5
410
  2
DASHDOT
 70
0
  3
Dash Dot ____ _ ____ _
 72
65
 73
4
 40
2.0
 49
1.25
 49
-0.25
 49
0.25
 49
-0.25
  0
LTYPE
  5
411
  2
DASHED
 70
0
  3
Dashed __ __ __ __ __
 72
65
 73
2
 40
0.75
 49
0.5
 49
-0.25
  0
LTYPE
  5
43B
  2
DOTTED
 70
0
  3
Dotted .  .  .  .
 72
65
 73
2
 40
0.2
 49
0.0
 49
-0.2
  0
ENDTAB
  0
TABLE
  2
STYLE
  70
4
  0
STYLE
  2
KICAD
  70
0
  40
0
  41
1
  42
1
  50
0
  71
0
  3
isocp.shx
  0
STYLE
  2
KICADB
  70
0
  40
0
  41
1
  42
1
  50
0
  71
0
  3
isocp.shx
  0
STYLE
  2
KICADI
  70
0
  40
0
  41
1
  42
1
  50
15
  71
0
  3
isocp.shx
  0
STYLE
  2
KICADBI
  70
0
  40
0
  41
1
  42
1
  50
15
  71
0
  3
isocp.shx
  0
ENDTAB
  0
TABLE
  2
LAYER
  70
1
  0
LAYER
  2
BLACK
  70
0
  62
7
  6
CONTINUOUS
  0
ENDTAB
  0
ENDSEC
  0
SECTION
  2
ENTITIES
0
LINE
8
BLACK
6
CONTINUOUS
10
0.953726
20
0.0965585
11
0.958978
21
0.0938018
0
LINE
8
BLACK
6
CONTINUOUS
10
0.958978
20
0.0938018
11
0.963418
21
0.0898682
0
LINE
8
BLACK
6
CONTINUOUS
10
0.963418
20
0.0898682
11
0.966788
21
0.0849863
0
LINE
8
BLACK
6
CONTINUOUS
10
0.966788
20
0.0849863
11
0.968891
21
0.0794398
0
LINE
8
BLACK
6
CONTINUOUS
10
0.968891
20
0.0794398
11
0.969606
21
0.0735512
0
LINE
8
BLACK
6
CONTINUOUS
10
0.969606
20
0.0735512
11
0.968891
21
0.0676625
0
LINE
8
BLACK
6
CONTINUOUS
10
0.968891
20
0.0676625
11
0.966788
21
0.0621161
0
LINE
8
BLACK
6
CONTINUOUS
10
0.966788
20
0.0621161
11
0.963418
21
0.0572342
0
LINE
8
BLACK
6
CONTINUOUS
10
0.963418
20
0.0572342
11
0.958978
21
0.0533006
0
LINE
8
BLACK
6
CONTINUOUS
10
0.958978
20
0.0533006
11
0.953726
21
0.0505439
0
LINE
8
BLACK
6
CONTINUOUS
10
0.953726
20
0.0505439
11
0.947966
21
0.0491243
0
LINE
8
BLACK
6
CONTINUOUS
10
0.947966
20
0.0491243
11
0.942034
21
0.0491243
0
LINE
8
BLACK
6
CONTINUOUS
10
0.942034
20
0.0491243
11
0.936274
21
0.0505439
0
LINE
8
BLACK
6
CONTINUOUS
10
0.936274
20
0.0505439
11
0.931022
21
0.0533006
0
LINE
8
BLACK
6
CONTINUOUS
10
0.931022
20
0.0533006
11
0.926582
21
0.0572342
0
LINE
8
BLACK
6
CONTINUOUS
10
0.926582
20
0.0572342
11
0.923212
21
0.0621161
0
LINE
8
BLACK
6
CONTINUOUS
10
0.923212
20
0.0621161
11
0.921109
21
0.0676625
0
LINE
8
BLACK
6
CONTINUOUS
10
0.921109
20
0.0676625
11
0.920394
21
0.0735512
0
LINE
8
BLACK
6
CONTINUOUS
10
0.920394
20
0.0735512
11
0.921109
21
0.0794398
0
LINE
8
BLACK
6
CONTINUOUS
10
0.921109
20
0.0794398
11
0.923212
21
0.0849863
0
LINE
8
BLACK
6
CONTINUOUS
10
0.923212
20
0.0849863
11
0.926582
21
0.0898682
0
LINE
8
BLACK
6
CONTINUOUS
10
0.926582
20
0.0898682
11
0.931022
21
0.0938018
0
LINE
8
BLACK
6
CONTINUOUS
10
0.931022
20
0.0938018
11
0.936274
21
0.0965585
0
LINE
8
BLACK
6
CONTINUOUS
10
0.936274
20
0.0965585
11
0.942034
21
0.0979781
0
LINE
8
BLACK
6
CONTINUOUS
10
0.942034
20
0.0979781
11
0.947966
21
0.0979781
0
LINE
8
BLACK
6
CONTINUOUS
10
0.947966
20
0.0979781
11
0.953726
21
0.0965585
0
LINE
8
BLACK
6
CONTINUOUS
10
0.922945
20
0.0676415
11
0.925226
21
0.0621346
0
LINE
8
BLACK
6
CONTINUOUS
10
0.925226
20
0.0621346
11
0.928855
21
0.0574057
0
LINE
8
BLACK
6
CONTINUOUS
10
0.928855
20
0.0574057
11
0.933583
21
0.0537771
0
LINE
8
BLACK
6
CONTINUOUS
10
0.933583
20
0.0537771
11
0.93909
21
0.0514961
0
LINE
8
BLACK
6
CONTINUOUS
10
0.93909
20
0.0514961
11
0.945
21
0.050718
0
LINE
8
BLACK
6
CONTINUOUS
10
0.945
20
0.050718
11
0.95091
21
0.0514961
0
LINE
8
BLACK
6
CONTINUOUS
10
0.95091
20
0.0514961
11
0.956417
21
0.0537771
0
LINE
8
BLACK
6
CONTINUOUS
10
0.956417
20
0.0537771
11
0.961145
21
0.0574057
0
LINE
8
BLACK
6
CONTINUOUS
10
0.961145
20
0.0574057
11
0.964774
21
0.0621346
0
LINE
8
BLACK
6
CONTINUOUS
10
0.964774
20
0.0621346
11
0.967055
21
0.0676415
0
LINE
8
BLACK
6
CONTINUOUS
10
0.967055
20
0.0676415
11
0.967833
21
0.0735512
0
LINE
8
BLACK
6
CONTINUOUS
10
0.967833
20
0.0735512
11
0.967055
21
0.0794608
0
LINE
8
BLACK
6
CONTINUOUS
10
0.967055
20
0.0794608
11
0.964774
21
0.0849678
0
LINE
8
BLACK
6
CONTINUOUS
10
0.964774
20
0.0849678
11
0.961145
21
0.0896967
0
LINE
8
BLACK
6
CONTINUOUS
10
0.961145
20
0.0896967
11
0.956417
21
0.0933253
0
LINE
8
BLACK
6
CONTINUOUS
10
0.956417
20
0.0933253
11
0.95091
21
0.0956063
0
LINE
8
BLACK
6
CONTINUOUS
10
0.95091
20
0.0956063
11
0.945
21
0.0963843
0
LINE
8
BLACK
6
CONTINUOUS
10
0.945
20
0.0963843
11
0.93909
21
0.0956063
0
LINE
8
BLACK
6
CONTINUOUS
10
0.93909
20
0.0956063
11
0.933583
21
0.0933253
0
LINE
8
BLACK
6
CONTINUOUS
10
0.933583
20
0.0933253
11
0.928855
21
0.0896967
0
LINE
8
BLACK
6
CONTINUOUS
10
0.928855
20
0.0896967
11
0.925226
21
0.0849678
0
LINE
8
BLACK
6
CONTINUOUS
10
0.925226
20
0.0849678
11
0.922945
21
0.0794608
0
LINE
8
BLACK
6
CONTINUOUS
10
0.922945
20
0.0794608
11
0.922167
21
0.0735512
0
LINE
8
BLACK
6
CONTINUOUS
10
0.922167
20
0.0735512
11
0.922945
21
0.0676415
0
LINE
8
BLACK
6
CONTINUOUS
10
0.906726
20
0.140007
11
0.911978
21
0.137251
0
LINE
8
BLACK
6
CONTINUOUS
10
0.911978
20
0.137251
11
0.916418
21
0.133317
0
LINE
8
BLACK
6
CONTINUOUS
10
0.916418
20
0.133317
11
0.919788
21
0.128435
0
LINE
8
BLACK
6
CONTINUOUS
10
0.919788
20
0.128435
11
0.921891
21
0.122889
0
LINE
8
BLACK
6
CONTINUOUS
10
0.921891
20
0.122889
11
0.922606
21
0.117
0
LINE
8
BLACK
6
CONTINUOUS
10
0.922606
20
0.117
11
0.921891
21
0.111111
0
LINE
8
BLACK
6
CONTINUOUS
10
0.921891
20
0.111111
11
0.919788
21
0.105565
0
LINE
8
BLACK
6
CONTINUOUS
10
0.919788
20
0.105565
11
0.916418
21
0.100683
0
LINE
8
BLACK
6
CONTINUOUS
10
0.916418
20
0.100683
11
0.911978
21
0.0967494
0
LINE
8
BLACK
6
CONTINUOUS
10
0.911978
20
0.0967494
11
0.906726
21
0.0939927
0
LINE
8
BLACK
6
CONTINUOUS
10
0.906726
20
0.0939927
11
0.900966
21
0.0925731
0
LINE
8
BLACK
6
CONTINUOUS
10
0.900966
20
0.0925731
11
0.895034
21
0.0925731
0
LINE
8
BLACK
6
CONTINUOUS
10
0.895034
20
0.0925731
11
0.889274
21
0.0939927
0
LINE
8
BLACK
6
CONTINUOUS
10
0.889274
20
0.0939927
11
0.884022
21
0.0967494
0
LINE
8
BLACK
6
CONTINUOUS
10
0.884022
20
0.0967494
11
0.879582
21
0.100683
0
LINE
8
BLACK
6
CONTINUOUS
10
0.879582
20
0.100683
11
0.876212
21
0.105565
0
LINE
8
BLACK
6
CONTINUOUS
10
0.876212
20
0.105565
11
0.874109
21
0.111111
0
LINE
8
BLACK
6
CONTINUOUS
10
0.874109
20
0.111111
11
0.873394
21
0.117
0
LINE
8
BLACK
6
CONTINUOUS
10
0.873394
20
0.117
11
0.874109
21
0.122889
0
LINE
8
BLACK
6
CONTINUOUS
10
0.874109
20
0.122889
11
0.876212
21
0.128435
0
LINE
8
BLACK
6
CONTINUOUS
10
0.876212
20
0.128435
11
0.879582
21
0.133317
0
LINE
8
BLACK
6
CONTINUOUS
10
0.879582
20
0.133317
11
0.884022
21
0.137251
0
LINE
8
BLACK
6
CONTINUOUS
10
0.884022
20
0.137251
11
0.889274
21
0.140007
0
LINE
8
BLACK
6
CONTINUOUS
10
0.889274
20
0.140007
11
0.895034
21
0.141427
0
LINE
8
BLACK
6
CONTINUOUS
10
0.895034
20
0.141427
11
0.900966
21
0.141427
0
LINE
8
BLACK
6
CONTINUOUS
10
0.900966
20
0.141427
11
0.906726
21
0.140007
0
LINE
8
BLACK
6
CONTINUOUS
10
0.875945
20
0.11109
11
0.878226
21
0.105583
0
LINE
8
BLACK
6
CONTINUOUS
10
0.878226
20
0.105583
11
0.881855
21
0.100855
0
LINE
8
BLACK
6
CONTINUOUS
10
0.881855
20
0.100855
11
0.886583
21
0.0972259
0
LINE
8
BLACK
6
CONTINUOUS
10
0.886583
20
0.0972259
11
0.89209
21
0.0949449
0
LINE
8
BLACK
6
CONTINUOUS
10
0.89209
20
0.0949449
11
0.898
21
0.0941669
0
LINE
8
BLACK
6
CONTINUOUS
10
0.898
20
0.0941669
11
0.90391
21
0.0949449
0
LINE
8
BLACK
6
CONTINUOUS
10
0.90391
20
0.0949449
11
0.909417
21
0.0972259
0
LINE
8
BLACK
6
CONTINUOUS
10
0.909417
20
0.0972259
11
0.914145
21
0.100855
0
LINE
8
BLACK
6
CONTINUOUS
10
0.914145
20
0.100855
11
0.917774
21
0.105583
0
LINE
8
BLACK
6
CONTINUOUS
10
0.917774
20
0.105583
11
0.920055
21
0.11109
0
LINE
8
BLACK
6
CONTINUOUS
10
0.920055
20
0.11109
11
0.920833
21
0.117
0
LINE
8
BLACK
6
CONTINUOUS
10
0.920833
20
0.117
11
0.920055
21
0.12291
0
LINE
8
BLACK
6
CONTINUOUS
10
0.920055
20
0.12291
11
0.917774
21
0.128417
0
LINE
8
BLACK
6
CONTINUOUS
10
0.917774
20
0.128417
11
0.914145
21
0.133145
0
LINE
8
BLACK
6
CONTINUOUS
10
0.914145
20
0.133145
11
0.909417
21
0.136774
0
LINE
8
BLACK
6
CONTINUOUS
10
0.909417
20
0.136774
11
0.90391
21
0.139055
0
LINE
8
BLACK
6
CONTINUOUS
10
0.90391
20
0.139055
11
0.898
21
0.139833
0
LINE
8
BLACK
6
CONTINUOUS
10
0.898
20
0.139833
11
0.89209
21
0.139055
0
LINE
8
BLACK
6
CONTINUOUS
10
0.89209
20
0.139055
11
0.886583
21
0.136774
0
LINE
8
BLACK
6
CONTINUOUS
10
0.886583
20
0.136774
11
0.881855
21
0.133145
0
LINE
8
BLACK
6
CONTINUOUS
10
0.881855
20
0.133145
11
0.878226
21
0.128417
0
LINE
8
BLACK
6
CONTINUOUS
10
0.878226
20
0.128417
11
0.875945
21
0.12291
0
LINE
8
BLACK
6
CONTINUOUS
10
0.875945
20
0.12291
11
0.875167
21
0.117
0
LINE
8
BLACK
6
CONTINUOUS
10
0.875167
20
0.117
11
0.875945
21
0.11109
0
LINE
8
BLACK
6
CONTINUOUS
10
0.243984
20
0.482087
11
0.24468
21
0.481798
0
LINE
8
BLACK
6
CONTINUOUS
10
0.24468
20
0.481798
11
0.244969
21
0.481102
0
LINE
8
BLACK
6
CONTINUOUS
10
0.244969
20
0.481102
11
0.244969
21
0.109449
0
LINE
8
BLACK
6
CONTINUOUS
10
0.244969
20
0.109449
11
0.24468
21
0.108753
0
LINE
8
BLACK
6
CONTINUOUS
10
0.24468
20
0.108753
11
0.243984
21
0.108465
0
LINE
8
BLACK
6
CONTINUOUS
10
0.243984
20
0.108465
11
-0.00798425
21
0.108465
0
LINE
8
BLACK
6
CONTINUOUS
10
-0.00798425
20
0.108465
11
-0.00868024
21
0.108753
0
LINE
8
BLACK
6
CONTINUOUS
10
-0.00868024
20
0.108753
11
-0.0089685
21
0.109449
0
LINE
8
BLACK
6
CONTINUOUS
10
-0.0089685
20
0.109449
11
-0.0089685
21
0.481102
0
LINE
8
BLACK
6
CONTINUOUS
10
-0.0089685
20
0.481102
11
-0.00868024
21
0.481798
0
LINE
8
BLACK
6
CONTINUOUS
10
-0.00868024
20
0.481798
11
-0.00798425
21
0.482087
0
LINE
8
BLACK
6
CONTINUOUS
10
-0.00798425
20
0.482087
11
0.243984
21
0.482087
0
LINE
8
BLACK
6
CONTINUOUS
10
-0.007
20
0.480118
11
-0.007
21
0.110433
0
LINE
8
BLACK
6
CONTINUOUS
10
-0.007
20
0.110433
11
0.243
21
0.110433
0
LINE
8
BLACK
6
CONTINUOUS
10
0.243
20
0.110433
11
0.243
21
0.480118
0
LINE
8
BLACK
6
CONTINUOUS
10
0.243
20
0.480118
11
-0.007
21
0.480118
0
LINE
8
BLACK
6
CONTINUOUS
10
0.862072
20
0.19033
11
0.867324
21
0.187573
0
LINE
8
BLACK
6
CONTINUOUS
10
0.867324
20
0.187573
11
0.871765
21
0.18364
0
LINE
8
BLACK
6
CONTINUOUS
10
0.871765
20
0.18364
11
0.875134
21
0.178758
0
LINE
8
BLACK
6
CONTINUOUS
10
0.875134
20
0.178758
11
0.877238
21
0.173211
0
LINE
8
BLACK
6
CONTINUOUS
10
0.877238
20
0.173211
11
0.877953
21
0.167323
0
LINE
8
BLACK
6
CONTINUOUS
10
0.877953
20
0.167323
11
0.877238
21
0.161434
0
LINE
8
BLACK
6
CONTINUOUS
10
0.877238
20
0.161434
11
0.875134
21
0.155888
0
LINE
8
BLACK
6
CONTINUOUS
10
0.875134
20
0.155888
11
0.871765
21
0.151006
0
LINE
8
BLACK
6
CONTINUOUS
10
0.871765
20
0.151006
11
0.867324
21
0.147072
0
LINE
8
BLACK
6
CONTINUOUS
10
0.867324
20
0.147072
11
0.862072
21
0.144316
0
LINE
8
BLACK
6
CONTINUOUS
10
0.862072
20
0.144316
11
0.856312
21
0.142896
0
LINE
8
BLACK
6
CONTINUOUS
10
0.856312
20
0.142896
11
0.850381
21
0.142896
0
LINE
8
BLACK
6
CONTINUOUS
10
0.850381
20
0.142896
11
0.844621
21
0.144316
0
LINE
8
BLACK
6
CONTINUOUS
10
0.844621
20
0.144316
11
0.839369
21
0.147072
0
LINE
8
BLACK
6
CONTINUOUS
10
0.839369
20
0.147072
11
0.834928
21
0.151006
0
LINE
8
BLACK
6
CONTINUOUS
10
0.834928
20
0.151006
11
0.831559
21
0.155888
0
LINE
8
BLACK
6
CONTINUOUS
10
0.831559
20
0.155888
11
0.829455
21
0.161434
0
LINE
8
BLACK
6
CONTINUOUS
10
0.829455
20
0.161434
11
0.82874
21
0.167323
0
LINE
8
BLACK
6
CONTINUOUS
10
0.82874
20
0.167323
11
0.829455
21
0.173211
0
LINE
8
BLACK
6
CONTINUOUS
10
0.829455
20
0.173211
11
0.831559
21
0.178758
0
LINE
8
BLACK
6
CONTINUOUS
10
0.831559
20
0.178758
11
0.834928
21
0.18364
0
LINE
8
BLACK
6
CONTINUOUS
10
0.834928
20
0.18364
11
0.839369
21
0.187573
0
LINE
8
BLACK
6
CONTINUOUS
10
0.839369
20
0.187573
11
0.844621
21
0.19033
0
LINE
8
BLACK
6
CONTINUOUS
10
0.844621
20
0.19033
11
0.850381
21
0.19175
0
LINE
8
BLACK
6
CONTINUOUS
10
0.850381
20
0.19175
11
0.856312
21
0.19175
0
LINE
8
BLACK
6
CONTINUOUS
10
0.856312
20
0.19175
11
0.862072
21
0.19033
0
LINE
8
BLACK
6
CONTINUOUS
10
0.831291
20
0.161413
11
0.833572
21
0.155906
0
LINE
8
BLACK
6
CONTINUOUS
10
0.833572
20
0.155906
11
0.837201
21
0.151177
0
LINE
8
BLACK
6
CONTINUOUS
10
0.837201
20
0.151177
11
0.84193
21
0.147549
0
LINE
8
BLACK
6
CONTINUOUS
10
0.84193
20
0.147549
11
0.847437
21
0.145268
0
LINE
8
BLACK
6
CONTINUOUS
10
0.847437
20
0.145268
11
0.853346
21
0.14449
0
LINE
8
BLACK
6
CONTINUOUS
10
0.853346
20
0.14449
11
0.859256
21
0.145268
0
LINE
8
BLACK
6
CONTINUOUS
10
0.859256
20
0.145268
11
0.864763
21
0.147549
0
LINE
8
BLACK
6
CONTINUOUS
10
0.864763
20
0.147549
11
0.869492
21
0.151177
0
LINE
8
BLACK
6
CONTINUOUS
10
0.869492
20
0.151177
11
0.873121
21
0.155906
0
LINE
8
BLACK
6
CONTINUOUS
10
0.873121
20
0.155906
11
0.875402
21
0.161413
0
LINE
8
BLACK
6
CONTINUOUS
10
0.875402
20
0.161413
11
0.87618
21
0.167323
0
LINE
8
BLACK
6
CONTINUOUS
10
0.87618
20
0.167323
11
0.875402
21
0.173232
0
LINE
8
BLACK
6
CONTINUOUS
10
0.875402
20
0.173232
11
0.873121
21
0.178739
0
LINE
8
BLACK
6
CONTINUOUS
10
0.873121
20
0.178739
11
0.869492
21
0.183468
0
LINE
8
BLACK
6
CONTINUOUS
10
0.869492
20
0.183468
11
0.864763
21
0.187097
0
LINE
8
BLACK
6
CONTINUOUS
10
0.864763
20
0.187097
11
0.859256
21
0.189378
0
LINE
8
BLACK
6
CONTINUOUS
10
0.859256
20
0.189378
11
0.853346
21
0.190156
0
LINE
8
BLACK
6
CONTINUOUS
10
0.853346
20
0.190156
11
0.847437
21
0.189378
0
LINE
8
BLACK
6
CONTINUOUS
10
0.847437
20
0.189378
11
0.84193
21
0.187097
0
LINE
8
BLACK
6
CONTINUOUS
10
0.84193
20
0.187097
11
0.837201
21
0.183468
0
LINE
8
BLACK
6
CONTINUOUS
10
0.837201
20
0.183468
11
0.833572
21
0.178739
0
LINE
8
BLACK
6
CONTINUOUS
10
0.833572
20
0.178739
11
0.831291
21
0.173232
0
LINE
8
BLACK
6
CONTINUOUS
10
0.831291
20
0.173232
11
0.830513
21
0.167323
0
LINE
8
BLACK
6
CONTINUOUS
10
0.830513
20
0.167323
11
0.831291
21
0.161413
0
LINE
8
BLACK
6
CONTINUOUS
10
0.862072
20
0.26907
11
0.867324
21
0.266314
0
LINE
8
BLACK
6
CONTINUOUS
10
0.867324
20
0.266314
11
0.871765
21
0.26238
0
LINE
8
BLACK
6
CONTINUOUS
10
0.871765
20
0.26238
11
0.875134
21
0.257498
0
LINE
8
BLACK
6
CONTINUOUS
10
0.875134
20
0.257498
11
0.877238
21
0.251952
0
LINE
8
BLACK
6
CONTINUOUS
10
0.877238
20
0.251952
11
0.877953
21
0.246063
0
LINE
8
BLACK
6
CONTINUOUS
10
0.877953
20
0.246063
11
0.877238
21
0.240174
0
LINE
8
BLACK
6
CONTINUOUS
10
0.877238
20
0.240174
11
0.875134
21
0.234628
0
LINE
8
BLACK
6
CONTINUOUS
10
0.875134
20
0.234628
11
0.871765
21
0.229746
0
LINE
8
BLACK
6
CONTINUOUS
10
0.871765
20
0.229746
11
0.867324
21
0.225812
0
LINE
8
BLACK
6
CONTINUOUS
10
0.867324
20
0.225812
11
0.862072
21
0.223056
0
LINE
8
BLACK
6
CONTINUOUS
10
0.862072
20
0.223056
11
0.856312
21
0.221636
0
LINE
8
BLACK
6
CONTINUOUS
10
0.856312
20
0.221636
11
0.850381
21
0.221636
0
LINE
8
BLACK
6
CONTINUOUS
10
0.850381
20
0.221636
11
0.844621
21
0.223056
0
LINE
8
BLACK
6
CONTINUOUS
10
0.844621
20
0.223056
11
0.839369
21
0.225812
0
LINE
8
BLACK
6
CONTINUOUS
10
0.839369
20
0.225812
11
0.834928
21
0.229746
0
LINE
8
BLACK
6
CONTINUOUS
10
0.834928
20
0.229746
11
0.831559
21
0.234628
0
LINE
8
BLACK
6
CONTINUOUS
10
0.831559
20
0.234628
11
0.829455
21
0.240174
0
LINE
8
BLACK
6
CONTINUOUS
10
0.829455
20
0.240174
11
0.82874
21
0.246063
0
LINE
8
BLACK
6
CONTINUOUS
10
0.82874
20
0.246063
11
0.829455
21
0.251952
0
LINE
8
BLACK
6
CONTINUOUS
10
0.829455
20
0.251952
11
0.831559
21
0.257498
0
LINE
8
BLACK
6
CONTINUOUS
10
0.831559
20
0.257498
11
0.834928
21
0.26238
0
LINE
8
BLACK
6
CONTINUOUS
10
0.834928
20
0.26238
11
0.839369
21
0.266314
0
LINE
8
BLACK
6
CONTINUOUS
10
0.839369
20
0.266314
11
0.844621
21
0.26907
0
LINE
8
BLACK
6
CONTINUOUS
10
0.844621
20
0.26907
11
0.850381
21
0.27049
0
LINE
8
BLACK
6
CONTINUOUS
10
0.850381
20
0.27049
11
0.856312
21
0.27049
0
LINE
8
BLACK
6
CONTINUOUS
10
0.856312
20
0.27049
11
0.862072
21
0.26907
0
LINE
8
BLACK
6
CONTINUOUS
10
0.831291
20
0.240153
11
0.833572
21
0.234646
0
LINE
8
BLACK
6
CONTINUOUS
10
0.833572
20
0.234646
11
0.837201
21
0.229918
0
LINE
8
BLACK
6
CONTINUOUS
10
0.837201
20
0.229918
11
0.84193
21
0.226289
0
LINE
8
BLACK
6
CONTINUOUS
10
0.84193
20
0.226289
11
0.847437
21
0.224008
0
LINE
8
BLACK
6
CONTINUOUS
10
0.847437
20
0.224008
11
0.853346
21
0.22323
0
LINE
8
BLACK
6
CONTINUOUS
10
0.853346
20
0.22323
11
0.859256
21
0.224008
0
LINE
8
BLACK
6
CONTINUOUS
10
0.859256
20
0.224008
11
0.864763
21
0.226289
0
LINE
8
BLACK
6
CONTINUOUS
10
0.864763
20
0.226289
11
0.869492
21
0.229918
0
LINE
8
BLACK
6
CONTINUOUS
10
0.869492
20
0.229918
11
0.873121
21
0.234646
0
LINE
8
BLACK
6
CONTINUOUS
10
0.873121
20
0.234646
11
0.875402
21
0.240153
0
LINE
8
BLACK
6
CONTINUOUS
10
0.875402
20
0.240153
11
0.87618
21
0.246063
0
LINE
8
BLACK
6
CONTINUOUS
10
0.87618
20
0.246063
11
0.875402
21
0.251973
0
LINE
8
BLACK
6
CONTINUOUS
10
0.875402
20
0.251973
11
0.873121
21
0.25748
0
LINE
8
BLACK
6
CONTINUOUS
10
0.873121
20
0.25748
11
0.869492
21
0.262208
0
LINE
8
BLACK
6
CONTINUOUS
10
0.869492
20
0.262208
11
0.864763
21
0.265837
0
LINE
8
BLACK
6
CONTINUOUS
10
0.864763
20
0.265837
11
0.859256
21
0.268118
0
LINE
8
BLACK
6
CONTINUOUS
10
0.859256
20
0.268118
11
0.853346
21
0.268896
0
LINE
8
BLACK
6
CONTINUOUS
10
0.853346
20
0.268896
11
0.847437
21
0.268118
0
LINE
8
BLACK
6
CONTINUOUS
10
0.847437
20
0.268118
11
0.84193
21
0.265837
0
LINE
8
BLACK
6
CONTINUOUS
10
0.84193
20
0.265837
11
0.837201
21
0.262208
0
LINE
8
BLACK
6
CONTINUOUS
10
0.837201
20
0.262208
11
0.833572
21
0.25748
0
LINE
8
BLACK
6
CONTINUOUS
10
0.833572
20
0.25748
11
0.831291
21
0.251973
0
LINE
8
BLACK
6
CONTINUOUS
10
0.831291
20
0.251973
11
0.830513
21
0.246063
0
LINE
8
BLACK
6
CONTINUOUS
10
0.830513
20
0.246063
11
0.831291
21
0.240153
0
LINE
8
BLACK
6
CONTINUOUS
10
0.862072
20
0.367495
11
0.867324
21
0.364739
0
LINE
8
BLACK
6
CONTINUOUS
10
0.867324
20
0.364739
11
0.871765
21
0.360805
0
LINE
8
BLACK
6
CONTINUOUS
10
0.871765
20
0.360805
11
0.875134
21
0.355923
0
LINE
8
BLACK
6
CONTINUOUS
10
0.875134
20
0.355923
11
0.877238
21
0.350377
0
LINE
8
BLACK
6
CONTINUOUS
10
0.877238
20
0.350377
11
0.877953
21
0.344488
0
LINE
8
BLACK
6
CONTINUOUS
10
0.877953
20
0.344488
11
0.877238
21
0.3386
0
LINE
8
BLACK
6
CONTINUOUS
10
0.877238
20
0.3386
11
0.875134
21
0.333053
0
LINE
8
BLACK
6
CONTINUOUS
10
0.875134
20
0.333053
11
0.871765
21
0.328171
0
LINE
8
BLACK
6
CONTINUOUS
10
0.871765
20
0.328171
11
0.867324
21
0.324238
0
LINE
8
BLACK
6
CONTINUOUS
10
0.867324
20
0.324238
11
0.862072
21
0.321481
0
LINE
8
BLACK
6
CONTINUOUS
10
0.862072
20
0.321481
11
0.856312
21
0.320061
0
LINE
8
BLACK
6
CONTINUOUS
10
0.856312
20
0.320061
11
0.850381
21
0.320061
0
LINE
8
BLACK
6
CONTINUOUS
10
0.850381
20
0.320061
11
0.844621
21
0.321481
0
LINE
8
BLACK
6
CONTINUOUS
10
0.844621
20
0.321481
11
0.839369
21
0.324238
0
LINE
8
BLACK
6
CONTINUOUS
10
0.839369
20
0.324238
11
0.834928
21
0.328171
0
LINE
8
BLACK
6
CONTINUOUS
10
0.834928
20
0.328171
11
0.831559
21
0.333053
0
LINE
8
BLACK
6
CONTINUOUS
10
0.831559
20
0.333053
11
0.829455
21
0.3386
0
LINE
8
BLACK
6
CONTINUOUS
10
0.829455
20
0.3386
11
0.82874
21
0.344488
0
LINE
8
BLACK
6
CONTINUOUS
10
0.82874
20
0.344488
11
0.829455
21
0.350377
0
LINE
8
BLACK
6
CONTINUOUS
10
0.829455
20
0.350377
11
0.831559
21
0.355923
0
LINE
8
BLACK
6
CONTINUOUS
10
0.831559
20
0.355923
11
0.834928
21
0.360805
0
LINE
8
BLACK
6
CONTINUOUS
10
0.834928
20
0.360805
11
0.839369
21
0.364739
0
LINE
8
BLACK
6
CONTINUOUS
10
0.839369
20
0.364739
11
0.844621
21
0.367495
0
LINE
8
BLACK
6
CONTINUOUS
10
0.844621
20
0.367495
11
0.850381
21
0.368915
0
LINE
8
BLACK
6
CONTINUOUS
10
0.850381
20
0.368915
11
0.856312
21
0.368915
0
LINE
8
BLACK
6
CONTINUOUS
10
0.856312
20
0.368915
11
0.862072
21
0.367495
0
LINE
8
BLACK
6
CONTINUOUS
10
0.831291
20
0.338579
11
0.833572
21
0.333072
0
LINE
8
BLACK
6
CONTINUOUS
10
0.833572
20
0.333072
11
0.837201
21
0.328343
0
LINE
8
BLACK
6
CONTINUOUS
10
0.837201
20
0.328343
11
0.84193
21
0.324714
0
LINE
8
BLACK
6
CONTINUOUS
10
0.84193
20
0.324714
11
0.847437
21
0.322433
0
LINE
8
BLACK
6
CONTINUOUS
10
0.847437
20
0.322433
11
0.853346
21
0.321655
0
LINE
8
BLACK
6
CONTINUOUS
10
0.853346
20
0.321655
11
0.859256
21
0.322433
0
LINE
8
BLACK
6
CONTINUOUS
10
0.859256
20
0.322433
11
0.864763
21
0.324714
0
LINE
8
BLACK
6
CONTINUOUS
10
0.864763
20
0.324714
11
0.869492
21
0.328343
0
LINE
8
BLACK
6
CONTINUOUS
10
0.869492
20
0.328343
11
0.873121
21
0.333072
0
LINE
8
BLACK
6
CONTINUOUS
10
0.873121
20
0.333072
11
0.875402
21
0.338579
0
LINE
8
BLACK
6
CONTINUOUS
10
0.875402
20
0.338579
11
0.87618
21
0.344488
0
LINE
8
BLACK
6
CONTINUOUS
10
0.87618
20
0.344488
11
0.875402
21
0.350398
0
LINE
8
BLACK
6
CONTINUOUS
10
0.875402
20
0.350398
11
0.873121
21
0.355905
0
LINE
8
BLACK
6
CONTINUOUS
10
0.873121
20
0.355905
11
0.869492
21
0.360634
0
LINE
8
BLACK
6
CONTINUOUS
10
0.869492
20
0.360634
11
0.864763
21
0.364262
0
LINE
8
BLACK
6
CONTINUOUS
10
0.864763
20
0.364262
11
0.859256
21
0.366543
0
LINE
8
BLACK
6
CONTINUOUS
10
0.859256
20
0.366543
11
0.853346
21
0.367321
0
LINE
8
BLACK
6
CONTINUOUS
10
0.853346
20
0.367321
11
0.847437
21
0.366543
0
LINE
8
BLACK
6
CONTINUOUS
10
0.847437
20
0.366543
11
0.84193
21
0.364262
0
LINE
8
BLACK
6
CONTINUOUS
10
0.84193
20
0.364262
11
0.837201
21
0.360634
0
LINE
8
BLACK
6
CONTINUOUS
10
0.837201
20
0.360634
11
0.833572
21
0.355905
0
LINE
8
BLACK
6
CONTINUOUS
10
0.833572
20
0.355905
11
0.831291
21
0.350398
0
LINE
8
BLACK
6
CONTINUOUS
10
0.831291
20
0.350398
11
0.830513
21
0.344488
0
LINE
8
BLACK
6
CONTINUOUS
10
0.830513
20
0.344488
11
0.831291
21
0.338579
0
LINE
8
BLACK
6
CONTINUOUS
10
0.862072
20
0.446236
11
0.867324
21
0.443479
0
LINE
8
BLACK
6
CONTINUOUS
10
0.867324
20
0.443479
11
0.871765
21
0.439545
0
LINE
8
BLACK
6
CONTINUOUS
10
0.871765
20
0.439545
11
0.875134
21
0.434663
0
LINE
8
BLACK
6
CONTINUOUS
10
0.875134
20
0.434663
11
0.877238
21
0.429117
0
LINE
8
BLACK
6
CONTINUOUS
10
0.877238
20
0.429117
11
0.877953
21
0.423228
0
LINE
8
BLACK
6
CONTINUOUS
10
0.877953
20
0.423228
11
0.877238
21
0.41734
0
LINE
8
BLACK
6
CONTINUOUS
10
0.877238
20
0.41734
11
0.875134
21
0.411793
0
LINE
8
BLACK
6
CONTINUOUS
10
0.875134
20
0.411793
11
0.871765
21
0.406911
0
LINE
8
BLACK
6
CONTINUOUS
10
0.871765
20
0.406911
11
0.867324
21
0.402978
0
LINE
8
BLACK
6
CONTINUOUS
10
0.867324
20
0.402978
11
0.862072
21
0.400221
0
LINE
8
BLACK
6
CONTINUOUS
10
0.862072
20
0.400221
11
0.856312
21
0.398801
0
LINE
8
BLACK
6
CONTINUOUS
10
0.856312
20
0.398801
11
0.850381
21
0.398801
0
LINE
8
BLACK
6
CONTINUOUS
10
0.850381
20
0.398801
11
0.844621
21
0.400221
0
LINE
8
BLACK
6
CONTINUOUS
10
0.844621
20
0.400221
11
0.839369
21
0.402978
0
LINE
8
BLACK
6
CONTINUOUS
10
0.839369
20
0.402978
11
0.834928
21
0.406911
0
LINE
8
BLACK
6
CONTINUOUS
10
0.834928
20
0.406911
11
0.831559
21
0.411793
0
LINE
8
BLACK
6
CONTINUOUS
10
0.831559
20
0.411793
11
0.829455
21
0.41734
0
LINE
8
BLACK
6
CONTINUOUS
10
0.829455
20
0.41734
11
0.82874
21
0.423228
0
LINE
8
BLACK
6
CONTINUOUS
10
0.82874
20
0.423228
11
0.829455
21
0.429117
0
LINE
8
BLACK
6
CONTINUOUS
10
0.829455
20
0.429117
11
0.831559
21
0.434663
0
LINE
8
BLACK
6
CONTINUOUS
10
0.831559
20
0.434663
11
0.834928
21
0.439545
0
LINE
8
BLACK
6
CONTINUOUS
10
0.834928
20
0.439545
11
0.839369
21
0.443479
0
LINE
8
BLACK
6
CONTINUOUS
10
0.839369
20
0.443479
11
0.844621
21
0.446236
0
LINE
8
BLACK
6
CONTINUOUS
10
0.844621
20
0.446236
11
0.850381
21
0.447655
0
LINE
8
BLACK
6
CONTINUOUS
10
0.850381
20
0.447655
11
0.856312
21
0.447655
0
LINE
8
BLACK
6
CONTINUOUS
10
0.856312
20
0.447655
11
0.862072
21
0.446236
0
LINE
8
BLACK
6
CONTINUOUS
10
0.831291
20
0.417319
11
0.833572
21
0.411812
0
LINE
8
BLACK
6
CONTINUOUS
10
0.833572
20
0.411812
11
0.837201
21
0.407083
0
LINE
8
BLACK
6
CONTINUOUS
10
0.837201
20
0.407083
11
0.84193
21
0.403454
0
LINE
8
BLACK
6
CONTINUOUS
10
0.84193
20
0.403454
11
0.847437
21
0.401173
0
LINE
8
BLACK
6
CONTINUOUS
10
0.847437
20
0.401173
11
0.853346
21
0.400395
0
LINE
8
BLACK
6
CONTINUOUS
10
0.853346
20
0.400395
11
0.859256
21
0.401173
0
LINE
8
BLACK
6
CONTINUOUS
10
0.859256
20
0.401173
11
0.864763
21
0.403454
0
LINE
8
BLACK
6
CONTINUOUS
10
0.864763
20
0.403454
11
0.869492
21
0.407083
0
LINE
8
BLACK
6
CONTINUOUS
10
0.869492
20
0.407083
11
0.873121
21
0.411812
0
LINE
8
BLACK
6
CONTINUOUS
10
0.873121
20
0.411812
11
0.875402
21
0.417319
0
LINE
8
BLACK
6
CONTINUOUS
10
0.875402
20
0.417319
11
0.87618
21
0.423228
0
LINE
8
BLACK
6
CONTINUOUS
10
0.87618
20
0.423228
11
0.875402
21
0.429138
0
LINE
8
BLACK
6
CONTINUOUS
10
0.875402
20
0.429138
11
0.873121
21
0.434645
0
LINE
8
BLACK
6
CONTINUOUS
10
0.873121
20
0.434645
11
0.869492
21
0.439374
0
LINE
8
BLACK
6
CONTINUOUS
10
0.869492
20
0.439374
11
0.864763
21
0.443002
0
LINE
8
BLACK
6
CONTINUOUS
10
0.864763
20
0.443002
11
0.859256
21
0.445283
0
LINE
8
BLACK
6
CONTINUOUS
10
0.859256
20
0.445283
11
0.853346
21
0.446061
0
LINE
8
BLACK
6
CONTINUOUS
10
0.853346
20
0.446061
11
0.847437
21
0.445283
0
LINE
8
BLACK
6
CONTINUOUS
10
0.847437
20
0.445283
11
0.84193
21
0.443002
0
LINE
8
BLACK
6
CONTINUOUS
10
0.84193
20
0.443002
11
0.837201
21
0.439374
0
LINE
8
BLACK
6
CONTINUOUS
10
0.837201
20
0.439374
11
0.833572
21
0.434645
0
LINE
8
BLACK
6
CONTINUOUS
10
0.833572
20
0.434645
11
0.831291
21
0.429138
0
LINE
8
BLACK
6
CONTINUOUS
10
0.831291
20
0.429138
11
0.830513
21
0.423228
0
LINE
8
BLACK
6
CONTINUOUS
10
0.830513
20
0.423228
11
0.831291
21
0.417319
0
LINE
8
BLACK
6
CONTINUOUS
10
0.907348
20
0.496558
11
0.9126
21
0.493802
0
LINE
8
BLACK
6
CONTINUOUS
10
0.9126
20
0.493802
11
0.91704
21
0.489868
0
LINE
8
BLACK
6
CONTINUOUS
10
0.91704
20
0.489868
11
0.92041
21
0.484986
0
LINE
8
BLACK
6
CONTINUOUS
10
0.92041
20
0.484986
11
0.922513
21
0.47944
0
LINE
8
BLACK
6
CONTINUOUS
10
0.922513
20
0.47944
11
0.923228
21
0.473551
0
LINE
8
BLACK
6
CONTINUOUS
10
0.923228
20
0.473551
11
0.922513
21
0.467663
0
LINE
8
BLACK
6
CONTINUOUS
10
0.922513
20
0.467663
11
0.92041
21
0.462116
0
LINE
8
BLACK
6
CONTINUOUS
10
0.92041
20
0.462116
11
0.91704
21
0.457234
0
LINE
8
BLACK
6
CONTINUOUS
10
0.91704
20
0.457234
11
0.9126
21
0.453301
0
LINE
8
BLACK
6
CONTINUOUS
10
0.9126
20
0.453301
11
0.907348
21
0.450544
0
LINE
8
BLACK
6
CONTINUOUS
10
0.907348
20
0.450544
11
0.901588
21
0.449124
0
LINE
8
BLACK
6
CONTINUOUS
10
0.901588
20
0.449124
11
0.895656
21
0.449124
0
LINE
8
BLACK
6
CONTINUOUS
10
0.895656
20
0.449124
11
0.889897
21
0.450544
0
LINE
8
BLACK
6
CONTINUOUS
10
0.889897
20
0.450544
11
0.884644
21
0.453301
0
LINE
8
BLACK
6
CONTINUOUS
10
0.884644
20
0.453301
11
0.880204
21
0.457234
0
LINE
8
BLACK
6
CONTINUOUS
10
0.880204
20
0.457234
11
0.876834
21
0.462116
0
LINE
8
BLACK
6
CONTINUOUS
10
0.876834
20
0.462116
11
0.874731
21
0.467663
0
LINE
8
BLACK
6
CONTINUOUS
10
0.874731
20
0.467663
11
0.874016
21
0.473551
0
LINE
8
BLACK
6
CONTINUOUS
10
0.874016
20
0.473551
11
0.874731
21
0.47944
0
LINE
8
BLACK
6
CONTINUOUS
10
0.874731
20
0.47944
11
0.876834
21
0.484986
0
LINE
8
BLACK
6
CONTINUOUS
10
0.876834
20
0.484986
11
0.880204
21
0.489868
0
LINE
8
BLACK
6
CONTINUOUS
10
0.880204
20
0.489868
11
0.884644
21
0.493802
0
LINE
8
BLACK
6
CONTINUOUS
10
0.884644
20
0.493802
11
0.889897
21
0.496558
0
LINE
8
BLACK
6
CONTINUOUS
10
0.889897
20
0.496558
11
0.895656
21
0.497978
0
LINE
8
BLACK
6
CONTINUOUS
10
0.895656
20
0.497978
11
0.901588
21
0.497978
0
LINE
8
BLACK
6
CONTINUOUS
10
0.901588
20
0.497978
11
0.907348
21
0.496558
0
LINE
8
BLACK
6
CONTINUOUS
10
0.876567
20
0.467642
11
0.878848
21
0.462135
0
LINE
8
BLACK
6
CONTINUOUS
10
0.878848
20
0.462135
11
0.882477
21
0.457406
0
LINE
8
BLACK
6
CONTINUOUS
10
0.882477
20
0.457406
11
0.887205
21
0.453777
0
LINE
8
BLACK
6
CONTINUOUS
10
0.887205
20
0.453777
11
0.892712
21
0.451496
0
LINE
8
BLACK
6
CONTINUOUS
10
0.892712
20
0.451496
11
0.898622
21
0.450718
0
LINE
8
BLACK
6
CONTINUOUS
10
0.898622
20
0.450718
11
0.904532
21
0.451496
0
LINE
8
BLACK
6
CONTINUOUS
10
0.904532
20
0.451496
11
0.910039
21
0.453777
0
LINE
8
BLACK
6
CONTINUOUS
10
0.910039
20
0.453777
11
0.914768
21
0.457406
0
LINE
8
BLACK
6
CONTINUOUS
10
0.914768
20
0.457406
11
0.918396
21
0.462135
0
LINE
8
BLACK
6
CONTINUOUS
10
0.918396
20
0.462135
11
0.920677
21
0.467642
0
LINE
8
BLACK
6
CONTINUOUS
10
0.920677
20
0.467642
11
0.921455
21
0.473551
0
LINE
8
BLACK
6
CONTINUOUS
10
0.921455
20
0.473551
11
0.920677
21
0.479461
0
LINE
8
BLACK
6
CONTINUOUS
10
0.920677
20
0.479461
11
0.918396
21
0.484968
0
LINE
8
BLACK
6
CONTINUOUS
10
0.918396
20
0.484968
11
0.914768
21
0.489697
0
LINE
8
BLACK
6
CONTINUOUS
10
0.914768
20
0.489697
11
0.910039
21
0.493325
0
LINE
8
BLACK
6
CONTINUOUS
10
0.910039
20
0.493325
11
0.904532
21
0.495606
0
LINE
8
BLACK
6
CONTINUOUS
10
0.904532
20
0.495606
11
0.898622
21
0.496384
0
LINE
8
BLACK
6
CONTINUOUS
10
0.898622
20
0.496384
11
0.892712
21
0.495606
0
LINE
8
BLACK
6
CONTINUOUS
10
0.892712
20
0.495606
11
0.887205
21
0.493325
0
LINE
8
BLACK
6
CONTINUOUS
10
0.887205
20
0.493325
11
0.882477
21
0.489697
0
LINE
8
BLACK
6
CONTINUOUS
10
0.882477
20
0.489697
11
0.878848
21
0.484968
0
LINE
8
BLACK
6
CONTINUOUS
10
0.878848
20
0.484968
11
0.876567
21
0.479461
0
LINE
8
BLACK
6
CONTINUOUS
10
0.876567
20
0.479461
11
0.875789
21
0.473551
0
LINE
8
BLACK
6
CONTINUOUS
10
0.875789
20
0.473551
11
0.876567
21
0.467642
0
LINE
8
BLACK
6
CONTINUOUS
10
0.953726
20
0.540007
11
0.958978
21
0.537251
0
LINE
8
BLACK
6
CONTINUOUS
10
0.958978
20
0.537251
11
0.963418
21
0.533317
0
LINE
8
BLACK
6
CONTINUOUS
10
0.963418
20
0.533317
11
0.966788
21
0.528435
0
LINE
8
BLACK
6
CONTINUOUS
10
0.966788
20
0.528435
11
0.968891
21
0.522889
0
LINE
8
BLACK
6
CONTINUOUS
10
0.968891
20
0.522889
11
0.969606
21
0.517
0
LINE
8
BLACK
6
CONTINUOUS
10
0.969606
20
0.517
11
0.968891
21
0.511111
0
LINE
8
BLACK
6
CONTINUOUS
10
0.968891
20
0.511111
11
0.966788
21
0.505565
0
LINE
8
BLACK
6
CONTINUOUS
10
0.966788
20
0.505565
11
0.963418
21
0.500683
0
LINE
8
BLACK
6
CONTINUOUS
10
0.963418
20
0.500683
11
0.958978
21
0.496749
0
LINE
8
BLACK
6
CONTINUOUS
10
0.958978
20
0.496749
11
0.953726
21
0.493993
0
LINE
8
BLACK
6
CONTINUOUS
10
0.953726
20
0.493993
11
0.947966
21
0.492573
0
LINE
8
BLACK
6
CONTINUOUS
10
0.947966
20
0.492573
11
0.942034
21
0.492573
0
LINE
8
BLACK
6
CONTINUOUS
10
0.942034
20
0.492573
11
0.936274
21
0.493993
0
LINE
8
BLACK
6
CONTINUOUS
10
0.936274
20
0.493993
11
0.931022
21
0.496749
0
LINE
8
BLACK
6
CONTINUOUS
10
0.931022
20
0.496749
11
0.926582
21
0.500683
0
LINE
8
BLACK
6
CONTINUOUS
10
0.926582
20
0.500683
11
0.923212
21
0.505565
0
LINE
8
BLACK
6
CONTINUOUS
10
0.923212
20
0.505565
11
0.921109
21
0.511111
0
LINE
8
BLACK
6
CONTINUOUS
10
0.921109
20
0.511111
11
0.920394
21
0.517
0
LINE
8
BLACK
6
CONTINUOUS
10
0.920394
20
0.517
11
0.921109
21
0.522889
0
LINE
8
BLACK
6
CONTINUOUS
10
0.921109
20
0.522889
11
0.923212
21
0.528435
0
LINE
8
BLACK
6
CONTINUOUS
10
0.923212
20
0.528435
11
0.926582
21
0.533317
0
LINE
8
BLACK
6
CONTINUOUS
10
0.926582
20
0.533317
11
0.931022
21
0.537251
0
LINE
8
BLACK
6
CONTINUOUS
10
0.931022
20
0.537251
11
0.936274
21
0.540007
0
LINE
8
BLACK
6
CONTINUOUS
10
0.936274
20
0.540007
11
0.942034
21
0.541427
0
LINE
8
BLACK
6
CONTINUOUS
10
0.942034
20
0.541427
11
0.947966
21
0.541427
0
LINE
8
BLACK
6
CONTINUOUS
10
0.947966
20
0.541427
11
0.953726
21
0.540007
0
LINE
8
BLACK
6
CONTINUOUS
10
0.922945
20
0.51109
11
0.925226
21
0.505583
0
LINE
8
BLACK
6
CONTINUOUS
10
0.925226
20
0.505583
11
0.928855
21
0.500855
0
LINE
8
BLACK
6
CONTINUOUS
10
0.928855
20
0.500855
11
0.933583
21
0.497226
0
LINE
8
BLACK
6
CONTINUOUS
10
0.933583
20
0.497226
11
0.93909
21
0.494945
0
LINE
8
BLACK
6
CONTINUOUS
10
0.93909
20
0.494945
11
0.945
21
0.494167
0
LINE
8
BLACK
6
CONTINUOUS
10
0.945
20
0.494167
11
0.95091
21
0.494945
0
LINE
8
BLACK
6
CONTINUOUS
10
0.95091
20
0.494945
11
0.956417
21
0.497226
0
LINE
8
BLACK
6
CONTINUOUS
10
0.956417
20
0.497226
11
0.961145
21
0.500855
0
LINE
8
BLACK
6
CONTINUOUS
10
0.961145
20
0.500855
11
0.964774
21
0.505583
0
LINE
8
BLACK
6
CONTINUOUS
10
0.964774
20
0.505583
11
0.967055
21
0.51109
0
LINE
8
BLACK
6
CONTINUOUS
10
0.967055
20
0.51109
11
0.967833
21
0.517
0
LINE
8
BLACK
6
CONTINUOUS
10
0.967833
20
0.517
11
0.967055
21
0.52291
0
LINE
8
BLACK
6
CONTINUOUS
10
0.967055
20
0.52291
11
0.964774
21
0.528417
0
LINE
8
BLACK
6
CONTINUOUS
10
0.964774
20
0.528417
11
0.961145
21
0.533145
0
LINE
8
BLACK
6
CONTINUOUS
10
0.961145
20
0.533145
11
0.956417
21
0.536774
0
LINE
8
BLACK
6
CONTINUOUS
10
0.956417
20
0.536774
11
0.95091
21
0.539055
0
LINE
8
BLACK
6
CONTINUOUS
10
0.95091
20
0.539055
11
0.945
21
0.539833
0
LINE
8
BLACK
6
CONTINUOUS
10
0.945
20
0.539833
11
0.93909
21
0.539055
0
LINE
8
BLACK
6
CONTINUOUS
10
0.93909
20
0.539055
11
0.933583
21
0.536774
0
LINE
8
BLACK
6
CONTINUOUS
10
0.933583
20
0.536774
11
0.928855
21
0.533145
0
LINE
8
BLACK
6
CONTINUOUS
10
0.928855
20
0.533145
11
0.925226
21
0.528417
0
LINE
8
BLACK
6
CONTINUOUS
10
0.925226
20
0.528417
11
0.922945
21
0.52291
0
LINE
8
BLACK
6
CONTINUOUS
10
0.922945
20
0.52291
11
0.922167
21
0.517
0
LINE
8
BLACK
6
CONTINUOUS
10
0.922167
20
0.517
11
0.922945
21
0.51109
  0
ENDSEC
  0
EOF
