  0
SECTION
  2
HEADER
  9
$ANGBASE
  50
0.0
  9
$ANGDIR
  70
1
  9
$MEASUREMENT
  70
0
  0
ENDSEC
  0
SECTION
  2
TABLES
  0
TABLE
  2
LTYPE
  70
4
  0
LTYPE
  5
40F
  2
CONTINUOUS
  70
0
  3
Solid line
  72
65
  73
0
  40
0.0
  0
LTYPE
  5
410
  2
DASHDOT
 70
0
  3
Dash Dot ____ _ ____ _
 72
65
 73
4
 40
2.0
 49
1.25
 49
-0.25
 49
0.25
 49
-0.25
  0
LTYPE
  5
411
  2
DASHED
 70
0
  3
Dashed __ __ __ __ __
 72
65
 73
2
 40
0.75
 49
0.5
 49
-0.25
  0
LTYPE
  5
43B
  2
DOTTED
 70
0
  3
Dotted .  .  .  .
 72
65
 73
2
 40
0.2
 49
0.0
 49
-0.2
  0
ENDTAB
  0
TABLE
  2
STYLE
  70
4
  0
STYLE
  2
KICAD
  70
0
  40
0
  41
1
  42
1
  50
0
  71
0
  3
isocp.shx
  0
STYLE
  2
KICADB
  70
0
  40
0
  41
1
  42
1
  50
0
  71
0
  3
isocp.shx
  0
STYLE
  2
KICADI
  70
0
  40
0
  41
1
  42
1
  50
15
  71
0
  3
isocp.shx
  0
STYLE
  2
KICADBI
  70
0
  40
0
  41
1
  42
1
  50
15
  71
0
  3
isocp.shx
  0
ENDTAB
  0
TABLE
  2
LAYER
  70
1
  0
LAYER
  2
BLACK
  70
0
  62
7
  6
CONTINUOUS
  0
ENDTAB
  0
ENDSEC
  0
SECTION
  2
ENTITIES
0
LINE
8
BLACK
6
CONTINUOUS
10
0.1129223622047244
20
0.057248031496063
11
0.1221473622047244
21
0.0540811023622047
0
LINE
8
BLACK
6
CONTINUOUS
10
0.1221473622047244
20
0.0540811023622047
11
0.1307252755905512
21
0.0494389763779528
0
LINE
8
BLACK
6
CONTINUOUS
10
0.1307252755905512
20
0.0494389763779528
11
0.138422125984252
21
0.0434482677165354
0
LINE
8
BLACK
6
CONTINUOUS
10
0.138422125984252
20
0.0434482677165354
11
0.1450279921259842
21
0.0362724015748032
0
LINE
8
BLACK
6
CONTINUOUS
10
0.1450279921259842
20
0.0362724015748032
11
0.1503626377952756
21
0.028107125984252
0
LINE
8
BLACK
6
CONTINUOUS
10
0.1503626377952756
20
0.028107125984252
11
0.1542805511811024
21
0.019175157480315
0
LINE
8
BLACK
6
CONTINUOUS
10
0.1542805511811024
20
0.019175157480315
11
0.1566748818897638
21
0.009720157480315
0
LINE
8
BLACK
6
CONTINUOUS
10
0.1566748818897638
20
0.009720157480315
11
0.1574803149606299
21
0.
0
LINE
8
BLACK
6
CONTINUOUS
10
0.1574803149606299
20
0.
11
0.1566748818897638
21
-0.009720157480315
0
LINE
8
BLACK
6
CONTINUOUS
10
0.1566748818897638
20
-0.009720157480315
11
0.1542805511811024
21
-0.019175157480315
0
LINE
8
BLACK
6
CONTINUOUS
10
0.1542805511811024
20
-0.019175157480315
11
0.1503626377952756
21
-0.028107125984252
0
LINE
8
BLACK
6
CONTINUOUS
10
0.1503626377952756
20
-0.028107125984252
11
0.1450279921259842
21
-0.0362724015748032
0
LINE
8
BLACK
6
CONTINUOUS
10
0.1450279921259842
20
-0.0362724015748032
11
0.138422125984252
21
-0.0434482677165354
0
LINE
8
BLACK
6
CONTINUOUS
10
0.138422125984252
20
-0.0434482677165354
11
0.1307252755905512
21
-0.0494389763779528
0
LINE
8
BLACK
6
CONTINUOUS
10
0.1307252755905512
20
-0.0494389763779528
11
0.1221473622047244
21
-0.0540811023622047
0
LINE
8
BLACK
6
CONTINUOUS
10
0.1221473622047244
20
-0.0540811023622047
11
0.1129223622047244
21
-0.057248031496063
0
LINE
8
BLACK
6
CONTINUOUS
10
0.1129223622047244
20
-0.057248031496063
11
0.1033019291338583
21
-0.0588534251968504
0
LINE
8
BLACK
6
CONTINUOUS
10
0.1033019291338583
20
-0.0588534251968504
11
0.0935484645669291
21
-0.0588534251968504
0
LINE
8
BLACK
6
CONTINUOUS
10
0.0935484645669291
20
-0.0588534251968504
11
0.083928031496063
21
-0.057248031496063
0
LINE
8
BLACK
6
CONTINUOUS
10
0.083928031496063
20
-0.057248031496063
11
0.074703031496063
21
-0.0540811023622047
0
LINE
8
BLACK
6
CONTINUOUS
10
0.074703031496063
20
-0.0540811023622047
11
0.0661251181102362
21
-0.0494389763779528
0
LINE
8
BLACK
6
CONTINUOUS
10
0.0661251181102362
20
-0.0494389763779528
11
0.0584282677165354
21
-0.0434482677165354
0
LINE
8
BLACK
6
CONTINUOUS
10
0.0584282677165354
20
-0.0434482677165354
11
0.0518224015748031
21
-0.0362724015748032
0
LINE
8
BLACK
6
CONTINUOUS
10
0.0518224015748031
20
-0.0362724015748032
11
0.0464877559055118
21
-0.028107125984252
0
LINE
8
BLACK
6
CONTINUOUS
10
0.0464877559055118
20
-0.028107125984252
11
0.042569842519685
21
-0.019175157480315
0
LINE
8
BLACK
6
CONTINUOUS
10
0.042569842519685
20
-0.019175157480315
11
0.0401755118110236
21
-0.009720157480315
0
LINE
8
BLACK
6
CONTINUOUS
10
0.0401755118110236
20
-0.009720157480315
11
0.0393700787401575
21
0.
0
LINE
8
BLACK
6
CONTINUOUS
10
0.0393700787401575
20
0.
11
0.0401755118110236
21
0.009720157480315
0
LINE
8
BLACK
6
CONTINUOUS
10
0.0401755118110236
20
0.009720157480315
11
0.042569842519685
21
0.019175157480315
0
LINE
8
BLACK
6
CONTINUOUS
10
0.042569842519685
20
0.019175157480315
11
0.0464877559055118
21
0.028107125984252
0
LINE
8
BLACK
6
CONTINUOUS
10
0.0464877559055118
20
0.028107125984252
11
0.0518224015748031
21
0.0362724015748032
0
LINE
8
BLACK
6
CONTINUOUS
10
0.0518224015748031
20
0.0362724015748032
11
0.0584282677165354
21
0.0434482677165354
0
LINE
8
BLACK
6
CONTINUOUS
10
0.0584282677165354
20
0.0434482677165354
11
0.0661251181102362
21
0.0494389763779528
0
LINE
8
BLACK
6
CONTINUOUS
10
0.0661251181102362
20
0.0494389763779528
11
0.074703031496063
21
0.0540811023622047
0
LINE
8
BLACK
6
CONTINUOUS
10
0.074703031496063
20
0.0540811023622047
11
0.083928031496063
21
0.057248031496063
0
LINE
8
BLACK
6
CONTINUOUS
10
0.083928031496063
20
0.057248031496063
11
0.0935484645669291
21
0.0588534251968504
0
LINE
8
BLACK
6
CONTINUOUS
10
0.0935484645669291
20
0.0588534251968504
11
0.1033019291338583
21
0.0588534251968504
0
LINE
8
BLACK
6
CONTINUOUS
10
0.1033019291338583
20
0.0588534251968504
11
0.1129223622047244
21
0.057248031496063
0
LINE
8
BLACK
6
CONTINUOUS
10
0.5066231496062992
20
0.057248031496063
11
0.5158481496062992
21
0.0540811023622047
0
LINE
8
BLACK
6
CONTINUOUS
10
0.5158481496062992
20
0.0540811023622047
11
0.524426062992126
21
0.0494389763779528
0
LINE
8
BLACK
6
CONTINUOUS
10
0.524426062992126
20
0.0494389763779528
11
0.5321229133858267
21
0.0434482677165354
0
LINE
8
BLACK
6
CONTINUOUS
10
0.5321229133858267
20
0.0434482677165354
11
0.538728779527559
21
0.0362724015748032
0
LINE
8
BLACK
6
CONTINUOUS
10
0.538728779527559
20
0.0362724015748032
11
0.5440634251968504
21
0.028107125984252
0
LINE
8
BLACK
6
CONTINUOUS
10
0.5440634251968504
20
0.028107125984252
11
0.5479813385826772
21
0.019175157480315
0
LINE
8
BLACK
6
CONTINUOUS
10
0.5479813385826772
20
0.019175157480315
11
0.5503756692913385
21
0.009720157480315
0
LINE
8
BLACK
6
CONTINUOUS
10
0.5503756692913385
20
0.009720157480315
11
0.5511811023622047
21
0.
0
LINE
8
BLACK
6
CONTINUOUS
10
0.5511811023622047
20
0.
11
0.5503756692913385
21
-0.009720157480315
0
LINE
8
BLACK
6
CONTINUOUS
10
0.5503756692913385
20
-0.009720157480315
11
0.5479813385826772
21
-0.019175157480315
0
LINE
8
BLACK
6
CONTINUOUS
10
0.5479813385826772
20
-0.019175157480315
11
0.5440634251968504
21
-0.028107125984252
0
LINE
8
BLACK
6
CONTINUOUS
10
0.5440634251968504
20
-0.028107125984252
11
0.538728779527559
21
-0.0362724015748032
0
LINE
8
BLACK
6
CONTINUOUS
10
0.538728779527559
20
-0.0362724015748032
11
0.5321229133858267
21
-0.0434482677165354
0
LINE
8
BLACK
6
CONTINUOUS
10
0.5321229133858267
20
-0.0434482677165354
11
0.524426062992126
21
-0.0494389763779528
0
LINE
8
BLACK
6
CONTINUOUS
10
0.524426062992126
20
-0.0494389763779528
11
0.5158481496062992
21
-0.0540811023622047
0
LINE
8
BLACK
6
CONTINUOUS
10
0.5158481496062992
20
-0.0540811023622047
11
0.5066231496062992
21
-0.057248031496063
0
LINE
8
BLACK
6
CONTINUOUS
10
0.5066231496062992
20
-0.057248031496063
11
0.497002716535433
21
-0.0588534251968504
0
LINE
8
BLACK
6
CONTINUOUS
10
0.497002716535433
20
-0.0588534251968504
11
0.4872492519685039
21
-0.0588534251968504
0
LINE
8
BLACK
6
CONTINUOUS
10
0.4872492519685039
20
-0.0588534251968504
11
0.4776288188976378
21
-0.057248031496063
0
LINE
8
BLACK
6
CONTINUOUS
10
0.4776288188976378
20
-0.057248031496063
11
0.4684038188976378
21
-0.0540811023622047
0
LINE
8
BLACK
6
CONTINUOUS
10
0.4684038188976378
20
-0.0540811023622047
11
0.459825905511811
21
-0.0494389763779528
0
LINE
8
BLACK
6
CONTINUOUS
10
0.459825905511811
20
-0.0494389763779528
11
0.4521290551181102
21
-0.0434482677165354
0
LINE
8
BLACK
6
CONTINUOUS
10
0.4521290551181102
20
-0.0434482677165354
11
0.4455231889763779
21
-0.0362724015748032
0
LINE
8
BLACK
6
CONTINUOUS
10
0.4455231889763779
20
-0.0362724015748032
11
0.4401885433070866
21
-0.028107125984252
0
LINE
8
BLACK
6
CONTINUOUS
10
0.4401885433070866
20
-0.028107125984252
11
0.4362706299212598
21
-0.019175157480315
0
LINE
8
BLACK
6
CONTINUOUS
10
0.4362706299212598
20
-0.019175157480315
11
0.4338762992125984
21
-0.009720157480315
0
LINE
8
BLACK
6
CONTINUOUS
10
0.4338762992125984
20
-0.009720157480315
11
0.4330708661417323
21
0.
0
LINE
8
BLACK
6
CONTINUOUS
10
0.4330708661417323
20
0.
11
0.4338762992125984
21
0.009720157480315
0
LINE
8
BLACK
6
CONTINUOUS
10
0.4338762992125984
20
0.009720157480315
11
0.4362706299212598
21
0.019175157480315
0
LINE
8
BLACK
6
CONTINUOUS
10
0.4362706299212598
20
0.019175157480315
11
0.4401885433070866
21
0.028107125984252
0
LINE
8
BLACK
6
CONTINUOUS
10
0.4401885433070866
20
0.028107125984252
11
0.4455231889763779
21
0.0362724015748032
0
LINE
8
BLACK
6
CONTINUOUS
10
0.4455231889763779
20
0.0362724015748032
11
0.4521290551181102
21
0.0434482677165354
0
LINE
8
BLACK
6
CONTINUOUS
10
0.4521290551181102
20
0.0434482677165354
11
0.459825905511811
21
0.0494389763779528
0
LINE
8
BLACK
6
CONTINUOUS
10
0.459825905511811
20
0.0494389763779528
11
0.4684038188976378
21
0.0540811023622047
0
LINE
8
BLACK
6
CONTINUOUS
10
0.4684038188976378
20
0.0540811023622047
11
0.4776288188976378
21
0.057248031496063
0
LINE
8
BLACK
6
CONTINUOUS
10
0.4776288188976378
20
0.057248031496063
11
0.4872492519685039
21
0.0588534251968504
0
LINE
8
BLACK
6
CONTINUOUS
10
0.4872492519685039
20
0.0588534251968504
11
0.497002716535433
21
0.0588534251968504
0
LINE
8
BLACK
6
CONTINUOUS
10
0.497002716535433
20
0.0588534251968504
11
0.5066231496062992
21
0.057248031496063
0
LINE
8
BLACK
6
CONTINUOUS
10
0.9003239370078739
20
0.057248031496063
11
0.909548937007874
21
0.0540811023622047
0
LINE
8
BLACK
6
CONTINUOUS
10
0.909548937007874
20
0.0540811023622047
11
0.9181268503937008
21
0.0494389763779528
0
LINE
8
BLACK
6
CONTINUOUS
10
0.9181268503937008
20
0.0494389763779528
11
0.9258237007874015
21
0.0434482677165354
0
LINE
8
BLACK
6
CONTINUOUS
10
0.9258237007874015
20
0.0434482677165354
11
0.9324295669291338
21
0.0362724015748032
0
LINE
8
BLACK
6
CONTINUOUS
10
0.9324295669291338
20
0.0362724015748032
11
0.9377642125984251
21
0.028107125984252
0
LINE
8
BLACK
6
CONTINUOUS
10
0.9377642125984251
20
0.028107125984252
11
0.9416821259842519
21
0.019175157480315
0
LINE
8
BLACK
6
CONTINUOUS
10
0.9416821259842519
20
0.019175157480315
11
0.9440764566929134
21
0.009720157480315
0
LINE
8
BLACK
6
CONTINUOUS
10
0.9440764566929134
20
0.009720157480315
11
0.9448818897637795
21
0.
0
LINE
8
BLACK
6
CONTINUOUS
10
0.9448818897637795
20
0.
11
0.9440764566929134
21
-0.009720157480315
0
LINE
8
BLACK
6
CONTINUOUS
10
0.9440764566929134
20
-0.009720157480315
11
0.9416821259842519
21
-0.019175157480315
0
LINE
8
BLACK
6
CONTINUOUS
10
0.9416821259842519
20
-0.019175157480315
11
0.9377642125984251
21
-0.028107125984252
0
LINE
8
BLACK
6
CONTINUOUS
10
0.9377642125984251
20
-0.028107125984252
11
0.9324295669291338
21
-0.0362724015748032
0
LINE
8
BLACK
6
CONTINUOUS
10
0.9324295669291338
20
-0.0362724015748032
11
0.9258237007874015
21
-0.0434482677165354
0
LINE
8
BLACK
6
CONTINUOUS
10
0.9258237007874015
20
-0.0434482677165354
11
0.9181268503937008
21
-0.0494389763779528
0
LINE
8
BLACK
6
CONTINUOUS
10
0.9181268503937008
20
-0.0494389763779528
11
0.909548937007874
21
-0.0540811023622047
0
LINE
8
BLACK
6
CONTINUOUS
10
0.909548937007874
20
-0.0540811023622047
11
0.9003239370078739
21
-0.057248031496063
0
LINE
8
BLACK
6
CONTINUOUS
10
0.9003239370078739
20
-0.057248031496063
11
0.8907035039370078
21
-0.0588534251968504
0
LINE
8
BLACK
6
CONTINUOUS
10
0.8907035039370078
20
-0.0588534251968504
11
0.8809500393700788
21
-0.0588534251968504
0
LINE
8
BLACK
6
CONTINUOUS
10
0.8809500393700788
20
-0.0588534251968504
11
0.8713296062992126
21
-0.057248031496063
0
LINE
8
BLACK
6
CONTINUOUS
10
0.8713296062992126
20
-0.057248031496063
11
0.8621046062992126
21
-0.0540811023622047
0
LINE
8
BLACK
6
CONTINUOUS
10
0.8621046062992126
20
-0.0540811023622047
11
0.8535266929133858
21
-0.0494389763779528
0
LINE
8
BLACK
6
CONTINUOUS
10
0.8535266929133858
20
-0.0494389763779528
11
0.8458298425196851
21
-0.0434482677165354
0
LINE
8
BLACK
6
CONTINUOUS
10
0.8458298425196851
20
-0.0434482677165354
11
0.8392239763779528
21
-0.0362724015748032
0
LINE
8
BLACK
6
CONTINUOUS
10
0.8392239763779528
20
-0.0362724015748032
11
0.8338893307086614
21
-0.028107125984252
0
LINE
8
BLACK
6
CONTINUOUS
10
0.8338893307086614
20
-0.028107125984252
11
0.8299714173228346
21
-0.019175157480315
0
LINE
8
BLACK
6
CONTINUOUS
10
0.8299714173228346
20
-0.019175157480315
11
0.8275770866141732
21
-0.009720157480315
0
LINE
8
BLACK
6
CONTINUOUS
10
0.8275770866141732
20
-0.009720157480315
11
0.8267716535433071
21
0.
0
LINE
8
BLACK
6
CONTINUOUS
10
0.8267716535433071
20
0.
11
0.8275770866141732
21
0.009720157480315
0
LINE
8
BLACK
6
CONTINUOUS
10
0.8275770866141732
20
0.009720157480315
11
0.8299714173228346
21
0.019175157480315
0
LINE
8
BLACK
6
CONTINUOUS
10
0.8299714173228346
20
0.019175157480315
11
0.8338893307086614
21
0.028107125984252
0
LINE
8
BLACK
6
CONTINUOUS
10
0.8338893307086614
20
0.028107125984252
11
0.8392239763779528
21
0.0362724015748032
0
LINE
8
BLACK
6
CONTINUOUS
10
0.8392239763779528
20
0.0362724015748032
11
0.8458298425196851
21
0.0434482677165354
0
LINE
8
BLACK
6
CONTINUOUS
10
0.8458298425196851
20
0.0434482677165354
11
0.8535266929133858
21
0.0494389763779528
0
LINE
8
BLACK
6
CONTINUOUS
10
0.8535266929133858
20
0.0494389763779528
11
0.8621046062992126
21
0.0540811023622047
0
LINE
8
BLACK
6
CONTINUOUS
10
0.8621046062992126
20
0.0540811023622047
11
0.8713296062992126
21
0.057248031496063
0
LINE
8
BLACK
6
CONTINUOUS
10
0.8713296062992126
20
0.057248031496063
11
0.8809500393700788
21
0.0588534251968504
0
LINE
8
BLACK
6
CONTINUOUS
10
0.8809500393700788
20
0.0588534251968504
11
0.8907035039370078
21
0.0588534251968504
0
LINE
8
BLACK
6
CONTINUOUS
10
0.8907035039370078
20
0.0588534251968504
11
0.9003239370078739
21
0.057248031496063
0
LINE
8
BLACK
6
CONTINUOUS
10
0.2859431496062992
20
0.1155416141732283
11
0.2902124015748032
21
0.1134544881889764
0
LINE
8
BLACK
6
CONTINUOUS
10
0.2902124015748032
20
0.1134544881889764
11
0.2935725984251968
21
0.1100942913385827
0
LINE
8
BLACK
6
CONTINUOUS
10
0.2935725984251968
20
0.1100942913385827
11
0.2956597244094488
21
0.1058250393700787
0
LINE
8
BLACK
6
CONTINUOUS
10
0.2956597244094488
20
0.1058250393700787
11
0.2962598031496063
21
0.1017059842519685
0
LINE
8
BLACK
6
CONTINUOUS
10
0.2962598031496063
20
0.1017059842519685
11
0.296259842519685
21
0.0557742913385827
0
LINE
8
BLACK
6
CONTINUOUS
10
0.296259842519685
20
0.0557742913385827
11
0.2956597244094488
21
0.0516552755905512
0
LINE
8
BLACK
6
CONTINUOUS
10
0.2956597244094488
20
0.0516552755905512
11
0.2935725984251968
21
0.0473860236220472
0
LINE
8
BLACK
6
CONTINUOUS
10
0.2935725984251968
20
0.0473860236220472
11
0.2902124015748032
21
0.0440258267716535
0
LINE
8
BLACK
6
CONTINUOUS
10
0.2902124015748032
20
0.0440258267716535
11
0.2859431496062992
21
0.0419387007874016
0
LINE
8
BLACK
6
CONTINUOUS
10
0.2859431496062992
20
0.0419387007874016
11
0.281824094488189
21
0.0413386220472441
0
LINE
8
BLACK
6
CONTINUOUS
10
0.281824094488189
20
0.0413386220472441
11
0.2457349212598425
21
0.0413385826771654
0
LINE
8
BLACK
6
CONTINUOUS
10
0.2457349212598425
20
0.0413385826771654
11
0.241615905511811
21
0.0419387007874016
0
LINE
8
BLACK
6
CONTINUOUS
10
0.241615905511811
20
0.0419387007874016
11
0.2373466535433071
21
0.0440258267716535
0
LINE
8
BLACK
6
CONTINUOUS
10
0.2373466535433071
20
0.0440258267716535
11
0.2339864566929134
21
0.0473860236220472
0
LINE
8
BLACK
6
CONTINUOUS
10
0.2339864566929134
20
0.0473860236220472
11
0.2318993307086614
21
0.0516552755905512
0
LINE
8
BLACK
6
CONTINUOUS
10
0.2318993307086614
20
0.0516552755905512
11
0.2312992519685039
21
0.0557743307086614
0
LINE
8
BLACK
6
CONTINUOUS
10
0.2312992519685039
20
0.0557743307086614
11
0.2312992125984252
21
0.1017060236220472
0
LINE
8
BLACK
6
CONTINUOUS
10
0.2312992125984252
20
0.1017060236220472
11
0.2318993307086614
21
0.1058250393700787
0
LINE
8
BLACK
6
CONTINUOUS
10
0.2318993307086614
20
0.1058250393700787
11
0.2339864566929134
21
0.1100942913385827
0
LINE
8
BLACK
6
CONTINUOUS
10
0.2339864566929134
20
0.1100942913385827
11
0.2373466535433071
21
0.1134544881889764
0
LINE
8
BLACK
6
CONTINUOUS
10
0.2373466535433071
20
0.1134544881889764
11
0.241615905511811
21
0.1155416141732283
0
LINE
8
BLACK
6
CONTINUOUS
10
0.241615905511811
20
0.1155416141732283
11
0.2457349606299213
21
0.1161416929133858
0
LINE
8
BLACK
6
CONTINUOUS
10
0.2457349606299213
20
0.1161416929133858
11
0.2818241338582677
21
0.1161417322834646
0
LINE
8
BLACK
6
CONTINUOUS
10
0.2818241338582677
20
0.1161417322834646
11
0.2859431496062992
21
0.1155416141732283
0
LINE
8
BLACK
6
CONTINUOUS
10
0.4276754330708661
20
0.1155416141732283
11
0.4319446850393701
21
0.1134544881889764
0
LINE
8
BLACK
6
CONTINUOUS
10
0.4319446850393701
20
0.1134544881889764
11
0.4353048818897638
21
0.1100942913385827
0
LINE
8
BLACK
6
CONTINUOUS
10
0.4353048818897638
20
0.1100942913385827
11
0.4373920078740157
21
0.1058250393700787
0
LINE
8
BLACK
6
CONTINUOUS
10
0.4373920078740157
20
0.1058250393700787
11
0.4379920866141732
21
0.1017059842519685
0
LINE
8
BLACK
6
CONTINUOUS
10
0.4379920866141732
20
0.1017059842519685
11
0.437992125984252
21
0.0557742913385827
0
LINE
8
BLACK
6
CONTINUOUS
10
0.437992125984252
20
0.0557742913385827
11
0.4373920078740157
21
0.0516552755905512
0
LINE
8
BLACK
6
CONTINUOUS
10
0.4373920078740157
20
0.0516552755905512
11
0.4353048818897638
21
0.0473860236220472
0
LINE
8
BLACK
6
CONTINUOUS
10
0.4353048818897638
20
0.0473860236220472
11
0.4319446850393701
21
0.0440258267716535
0
LINE
8
BLACK
6
CONTINUOUS
10
0.4319446850393701
20
0.0440258267716535
11
0.4276754330708661
21
0.0419387007874016
0
LINE
8
BLACK
6
CONTINUOUS
10
0.4276754330708661
20
0.0419387007874016
11
0.4235563779527559
21
0.0413386220472441
0
LINE
8
BLACK
6
CONTINUOUS
10
0.4235563779527559
20
0.0413386220472441
11
0.3874672047244094
21
0.0413385826771654
0
LINE
8
BLACK
6
CONTINUOUS
10
0.3874672047244094
20
0.0413385826771654
11
0.383348188976378
21
0.0419387007874016
0
LINE
8
BLACK
6
CONTINUOUS
10
0.383348188976378
20
0.0419387007874016
11
0.379078937007874
21
0.0440258267716535
0
LINE
8
BLACK
6
CONTINUOUS
10
0.379078937007874
20
0.0440258267716535
11
0.3757187401574803
21
0.0473860236220472
0
LINE
8
BLACK
6
CONTINUOUS
10
0.3757187401574803
20
0.0473860236220472
11
0.3736316141732283
21
0.0516552755905512
0
LINE
8
BLACK
6
CONTINUOUS
10
0.3736316141732283
20
0.0516552755905512
11
0.3730315354330709
21
0.0557743307086614
0
LINE
8
BLACK
6
CONTINUOUS
10
0.3730315354330709
20
0.0557743307086614
11
0.3730314960629921
21
0.1017060236220472
0
LINE
8
BLACK
6
CONTINUOUS
10
0.3730314960629921
20
0.1017060236220472
11
0.3736316141732283
21
0.1058250393700787
0
LINE
8
BLACK
6
CONTINUOUS
10
0.3736316141732283
20
0.1058250393700787
11
0.3757187401574803
21
0.1100942913385827
0
LINE
8
BLACK
6
CONTINUOUS
10
0.3757187401574803
20
0.1100942913385827
11
0.379078937007874
21
0.1134544881889764
0
LINE
8
BLACK
6
CONTINUOUS
10
0.379078937007874
20
0.1134544881889764
11
0.383348188976378
21
0.1155416141732283
0
LINE
8
BLACK
6
CONTINUOUS
10
0.383348188976378
20
0.1155416141732283
11
0.3874672440944882
21
0.1161416929133858
0
LINE
8
BLACK
6
CONTINUOUS
10
0.3874672440944882
20
0.1161416929133858
11
0.4235564173228346
21
0.1161417322834646
0
LINE
8
BLACK
6
CONTINUOUS
10
0.4235564173228346
20
0.1161417322834646
11
0.4276754330708661
21
0.1155416141732283
0
LINE
8
BLACK
6
CONTINUOUS
10
0.6838888582677165
20
0.116621811023622
11
0.6853216535433071
21
0.1154791732283465
0
LINE
8
BLACK
6
CONTINUOUS
10
0.6853216535433071
20
0.1154791732283465
11
0.6873016929133858
21
0.1168022047244094
0
LINE
8
BLACK
6
CONTINUOUS
10
0.6873016929133858
20
0.1168022047244094
11
0.6903149606299213
21
0.1174015748031496
0
LINE
8
BLACK
6
CONTINUOUS
10
0.6903149606299213
20
0.1174015748031496
11
0.7296850393700787
21
0.1174015748031496
0
LINE
8
BLACK
6
CONTINUOUS
10
0.7296850393700787
20
0.1174015748031496
11
0.7326983070866142
21
0.1168022047244094
0
LINE
8
BLACK
6
CONTINUOUS
10
0.7326983070866142
20
0.1168022047244094
11
0.7345326771653543
21
0.1155764960629921
0
LINE
8
BLACK
6
CONTINUOUS
10
0.7345326771653543
20
0.1155764960629921
11
0.734618188976378
21
0.1156837007874016
0
LINE
8
BLACK
6
CONTINUOUS
10
0.734618188976378
20
0.1156837007874016
11
0.7377754330708661
21
0.1172041732283464
0
LINE
8
BLACK
6
CONTINUOUS
10
0.7377754330708661
20
0.1172041732283464
11
0.7395275590551181
21
0.1174015748031496
0
LINE
8
BLACK
6
CONTINUOUS
10
0.7395275590551181
20
0.1174015748031496
11
0.7611811023622047
21
0.1174015748031496
0
LINE
8
BLACK
6
CONTINUOUS
10
0.7611811023622047
20
0.1174015748031496
11
0.762058937007874
21
0.1172012204724409
0
LINE
8
BLACK
6
CONTINUOUS
10
0.762058937007874
20
0.1172012204724409
11
0.7639825590551181
21
0.1172012204724409
0
LINE
8
BLACK
6
CONTINUOUS
10
0.7639825590551181
20
0.1172012204724409
11
0.7662009448818897
21
0.1168822834645669
0
LINE
8
BLACK
6
CONTINUOUS
10
0.7662009448818897
20
0.1168822834645669
11
0.771576968503937
21
0.1153037401574803
0
LINE
8
BLACK
6
CONTINUOUS
10
0.771576968503937
20
0.1153037401574803
11
0.7736156299212599
21
0.1143726771653543
0
LINE
8
BLACK
6
CONTINUOUS
10
0.7736156299212599
20
0.1143726771653543
11
0.778329094488189
21
0.1113435039370079
0
LINE
8
BLACK
6
CONTINUOUS
10
0.778329094488189
20
0.1113435039370079
11
0.7800228346456692
21
0.1098758661417323
0
LINE
8
BLACK
6
CONTINUOUS
10
0.7800228346456692
20
0.1098758661417323
11
0.7836920078740157
21
0.1056414173228346
0
LINE
8
BLACK
6
CONTINUOUS
10
0.7836920078740157
20
0.1056414173228346
11
0.7849037007874016
21
0.1037559842519685
0
LINE
8
BLACK
6
CONTINUOUS
10
0.7849037007874016
20
0.1037559842519685
11
0.7872312204724409
21
0.0986593700787401
0
LINE
8
BLACK
6
CONTINUOUS
10
0.7872312204724409
20
0.0986593700787401
11
0.7878625984251968
21
0.0965090551181102
0
LINE
8
BLACK
6
CONTINUOUS
10
0.7878625984251968
20
0.0965090551181102
11
0.78866
21
0.0909631496062992
0
LINE
8
BLACK
6
CONTINUOUS
10
0.78866
20
0.0909631496062992
11
0.7887401574803149
21
0.0898425196850394
0
LINE
8
BLACK
6
CONTINUOUS
10
0.7887401574803149
20
0.0898425196850394
11
0.7887401574803149
21
0.0701574803149606
0
LINE
8
BLACK
6
CONTINUOUS
10
0.7887401574803149
20
0.0701574803149606
11
0.78866
21
0.0690368503937008
0
LINE
8
BLACK
6
CONTINUOUS
10
0.78866
20
0.0690368503937008
11
0.7878625984251968
21
0.0634909448818898
0
LINE
8
BLACK
6
CONTINUOUS
10
0.7878625984251968
20
0.0634909448818898
11
0.7872312204724409
21
0.0613406299212598
0
LINE
8
BLACK
6
CONTINUOUS
10
0.7872312204724409
20
0.0613406299212598
11
0.7849037007874016
21
0.0562440157480315
0
LINE
8
BLACK
6
CONTINUOUS
10
0.7849037007874016
20
0.0562440157480315
11
0.7836920078740157
21
0.0543585826771654
0
LINE
8
BLACK
6
CONTINUOUS
10
0.7836920078740157
20
0.0543585826771654
11
0.7800228346456692
21
0.0501241338582677
0
LINE
8
BLACK
6
CONTINUOUS
10
0.7800228346456692
20
0.0501241338582677
11
0.778329094488189
21
0.0486564960629921
0
LINE
8
BLACK
6
CONTINUOUS
10
0.778329094488189
20
0.0486564960629921
11
0.7736156299212599
21
0.0456273228346457
0
LINE
8
BLACK
6
CONTINUOUS
10
0.7736156299212599
20
0.0456273228346457
11
0.771576968503937
21
0.0446962598425197
0
LINE
8
BLACK
6
CONTINUOUS
10
0.771576968503937
20
0.0446962598425197
11
0.7662009448818897
21
0.0431177165354331
0
LINE
8
BLACK
6
CONTINUOUS
10
0.7662009448818897
20
0.0431177165354331
11
0.7639825590551181
21
0.0427987795275591
0
LINE
8
BLACK
6
CONTINUOUS
10
0.7639825590551181
20
0.0427987795275591
11
0.7629393700787401
21
0.0427987795275591
0
LINE
8
BLACK
6
CONTINUOUS
10
0.7629393700787401
20
0.0427987795275591
11
0.7629332283464567
21
0.0427958267716535
0
LINE
8
BLACK
6
CONTINUOUS
10
0.7629332283464567
20
0.0427958267716535
11
0.7611811023622047
21
0.0425984251968504
0
LINE
8
BLACK
6
CONTINUOUS
10
0.7611811023622047
20
0.0425984251968504
11
0.7395275590551181
21
0.0425984251968504
0
LINE
8
BLACK
6
CONTINUOUS
10
0.7395275590551181
20
0.0425984251968504
11
0.7361111417322834
21
0.0433781889763779
0
LINE
8
BLACK
6
CONTINUOUS
10
0.7361111417322834
20
0.0433781889763779
11
0.7346783070866142
21
0.0445208661417323
0
LINE
8
BLACK
6
CONTINUOUS
10
0.7346783070866142
20
0.0445208661417323
11
0.7326983070866142
21
0.0431977952755905
0
LINE
8
BLACK
6
CONTINUOUS
10
0.7326983070866142
20
0.0431977952755905
11
0.7296850393700787
21
0.0425984251968504
0
LINE
8
BLACK
6
CONTINUOUS
10
0.7296850393700787
20
0.0425984251968504
11
0.6903149606299213
21
0.0425984251968504
0
LINE
8
BLACK
6
CONTINUOUS
10
0.6903149606299213
20
0.0425984251968504
11
0.6873016929133858
21
0.0431977952755905
0
LINE
8
BLACK
6
CONTINUOUS
10
0.6873016929133858
20
0.0431977952755905
11
0.6854672834645669
21
0.0444235433070866
0
LINE
8
BLACK
6
CONTINUOUS
10
0.6854672834645669
20
0.0444235433070866
11
0.6853818110236221
21
0.0443162992125984
0
LINE
8
BLACK
6
CONTINUOUS
10
0.6853818110236221
20
0.0443162992125984
11
0.6822245669291338
21
0.0427958267716535
0
LINE
8
BLACK
6
CONTINUOUS
10
0.6822245669291338
20
0.0427958267716535
11
0.6804724409448819
21
0.0425984251968504
0
LINE
8
BLACK
6
CONTINUOUS
10
0.6804724409448819
20
0.0425984251968504
11
0.6588188976377952
21
0.0425984251968504
0
LINE
8
BLACK
6
CONTINUOUS
10
0.6588188976377952
20
0.0425984251968504
11
0.657941062992126
21
0.0427987795275591
0
LINE
8
BLACK
6
CONTINUOUS
10
0.657941062992126
20
0.0427987795275591
11
0.6560174409448819
21
0.0427987795275591
0
LINE
8
BLACK
6
CONTINUOUS
10
0.6560174409448819
20
0.0427987795275591
11
0.6537990551181102
21
0.0431177165354331
0
LINE
8
BLACK
6
CONTINUOUS
10
0.6537990551181102
20
0.0431177165354331
11
0.648423031496063
21
0.0446962598425197
0
LINE
8
BLACK
6
CONTINUOUS
10
0.648423031496063
20
0.0446962598425197
11
0.6463843700787402
21
0.0456273228346457
0
LINE
8
BLACK
6
CONTINUOUS
10
0.6463843700787402
20
0.0456273228346457
11
0.6416709055118111
21
0.0486564960629921
0
LINE
8
BLACK
6
CONTINUOUS
10
0.6416709055118111
20
0.0486564960629921
11
0.6399771653543307
21
0.0501241338582677
0
LINE
8
BLACK
6
CONTINUOUS
10
0.6399771653543307
20
0.0501241338582677
11
0.6363079921259842
21
0.0543585826771654
0
LINE
8
BLACK
6
CONTINUOUS
10
0.6363079921259842
20
0.0543585826771654
11
0.6350962992125984
21
0.0562440157480315
0
LINE
8
BLACK
6
CONTINUOUS
10
0.6350962992125984
20
0.0562440157480315
11
0.6327687795275591
21
0.0613406299212598
0
LINE
8
BLACK
6
CONTINUOUS
10
0.6327687795275591
20
0.0613406299212598
11
0.6321374015748031
21
0.0634909448818898
0
LINE
8
BLACK
6
CONTINUOUS
10
0.6321374015748031
20
0.0634909448818898
11
0.63134
21
0.0690368503937008
0
LINE
8
BLACK
6
CONTINUOUS
10
0.63134
20
0.0690368503937008
11
0.631259842519685
21
0.0701574803149606
0
LINE
8
BLACK
6
CONTINUOUS
10
0.631259842519685
20
0.0701574803149606
11
0.631259842519685
21
0.0898425196850394
0
LINE
8
BLACK
6
CONTINUOUS
10
0.631259842519685
20
0.0898425196850394
11
0.63134
21
0.0909631496062992
0
LINE
8
BLACK
6
CONTINUOUS
10
0.63134
20
0.0909631496062992
11
0.6321374015748031
21
0.0965090551181102
0
LINE
8
BLACK
6
CONTINUOUS
10
0.6321374015748031
20
0.0965090551181102
11
0.6327687795275591
21
0.0986593700787401
0
LINE
8
BLACK
6
CONTINUOUS
10
0.6327687795275591
20
0.0986593700787401
11
0.6350962992125984
21
0.1037559842519685
0
LINE
8
BLACK
6
CONTINUOUS
10
0.6350962992125984
20
0.1037559842519685
11
0.6363079921259842
21
0.1056414173228346
0
LINE
8
BLACK
6
CONTINUOUS
10
0.6363079921259842
20
0.1056414173228346
11
0.6399771653543307
21
0.1098758661417323
0
LINE
8
BLACK
6
CONTINUOUS
10
0.6399771653543307
20
0.1098758661417323
11
0.6416709055118111
21
0.1113435039370079
0
LINE
8
BLACK
6
CONTINUOUS
10
0.6416709055118111
20
0.1113435039370079
11
0.6463843700787402
21
0.1143726771653543
0
LINE
8
BLACK
6
CONTINUOUS
10
0.6463843700787402
20
0.1143726771653543
11
0.648423031496063
21
0.1153037401574803
0
LINE
8
BLACK
6
CONTINUOUS
10
0.648423031496063
20
0.1153037401574803
11
0.6537990551181102
21
0.1168822834645669
0
LINE
8
BLACK
6
CONTINUOUS
10
0.6537990551181102
20
0.1168822834645669
11
0.6560174409448819
21
0.1172012204724409
0
LINE
8
BLACK
6
CONTINUOUS
10
0.6560174409448819
20
0.1172012204724409
11
0.6570606299212598
21
0.1172012204724409
0
LINE
8
BLACK
6
CONTINUOUS
10
0.6570606299212598
20
0.1172012204724409
11
0.6570667716535433
21
0.1172041732283464
0
LINE
8
BLACK
6
CONTINUOUS
10
0.6570667716535433
20
0.1172041732283464
11
0.6588188976377952
21
0.1174015748031496
0
LINE
8
BLACK
6
CONTINUOUS
10
0.6588188976377952
20
0.1174015748031496
11
0.6804724409448819
21
0.1174015748031496
0
LINE
8
BLACK
6
CONTINUOUS
10
0.6804724409448819
20
0.1174015748031496
11
0.6838888582677165
21
0.116621811023622
0
LINE
8
BLACK
6
CONTINUOUS
10
0.954772559055118
20
0.0993193307086614
11
0.9606553149606299
21
0.0962318503937008
0
LINE
8
BLACK
6
CONTINUOUS
10
0.9606553149606299
20
0.0962318503937008
11
0.9656282677165354
21
0.0918262204724409
0
LINE
8
BLACK
6
CONTINUOUS
10
0.9656282677165354
20
0.0918262204724409
11
0.9694023228346457
21
0.0863585039370079
0
LINE
8
BLACK
6
CONTINUOUS
10
0.9694023228346457
20
0.0863585039370079
11
0.9717582283464566
21
0.0801464960629921
0
LINE
8
BLACK
6
CONTINUOUS
10
0.9717582283464566
20
0.0801464960629921
11
0.9725590551181102
21
0.0735511811023622
0
LINE
8
BLACK
6
CONTINUOUS
10
0.9725590551181102
20
0.0735511811023622
11
0.9717582283464566
21
0.0669558661417323
0
LINE
8
BLACK
6
CONTINUOUS
10
0.9717582283464566
20
0.0669558661417323
11
0.9694023228346457
21
0.0607438582677165
0
LINE
8
BLACK
6
CONTINUOUS
10
0.9694023228346457
20
0.0607438582677165
11
0.9656282677165354
21
0.0552761417322835
0
LINE
8
BLACK
6
CONTINUOUS
10
0.9656282677165354
20
0.0552761417322835
11
0.9606553149606299
21
0.0508705118110236
0
LINE
8
BLACK
6
CONTINUOUS
10
0.9606553149606299
20
0.0508705118110236
11
0.954772559055118
21
0.047783031496063
0
LINE
8
BLACK
6
CONTINUOUS
10
0.954772559055118
20
0.047783031496063
11
0.9483218897637795
21
0.0461930708661417
0
LINE
8
BLACK
6
CONTINUOUS
10
0.9483218897637795
20
0.0461930708661417
11
0.9416781102362205
21
0.0461930708661417
0
LINE
8
BLACK
6
CONTINUOUS
10
0.9416781102362205
20
0.0461930708661417
11
0.9352274409448819
21
0.047783031496063
0
LINE
8
BLACK
6
CONTINUOUS
10
0.9352274409448819
20
0.047783031496063
11
0.9293446850393701
21
0.0508705118110236
0
LINE
8
BLACK
6
CONTINUOUS
10
0.9293446850393701
20
0.0508705118110236
11
0.9243717322834646
21
0.0552761417322835
0
LINE
8
BLACK
6
CONTINUOUS
10
0.9243717322834646
20
0.0552761417322835
11
0.9205976771653543
21
0.0607438582677165
0
LINE
8
BLACK
6
CONTINUOUS
10
0.9205976771653543
20
0.0607438582677165
11
0.9182417716535433
21
0.0669558661417323
0
LINE
8
BLACK
6
CONTINUOUS
10
0.9182417716535433
20
0.0669558661417323
11
0.9174409448818898
21
0.0735511811023622
0
LINE
8
BLACK
6
CONTINUOUS
10
0.9174409448818898
20
0.0735511811023622
11
0.9182417716535433
21
0.0801464960629921
0
LINE
8
BLACK
6
CONTINUOUS
10
0.9182417716535433
20
0.0801464960629921
11
0.9205976771653543
21
0.0863585039370079
0
LINE
8
BLACK
6
CONTINUOUS
10
0.9205976771653543
20
0.0863585039370079
11
0.9243717322834646
21
0.0918262204724409
0
LINE
8
BLACK
6
CONTINUOUS
10
0.9243717322834646
20
0.0918262204724409
11
0.9293446850393701
21
0.0962318503937008
0
LINE
8
BLACK
6
CONTINUOUS
10
0.9293446850393701
20
0.0962318503937008
11
0.9352274409448819
21
0.0993193307086614
0
LINE
8
BLACK
6
CONTINUOUS
10
0.9352274409448819
20
0.0993193307086614
11
0.9416781102362205
21
0.1009092913385827
0
LINE
8
BLACK
6
CONTINUOUS
10
0.9416781102362205
20
0.1009092913385827
11
0.9483218897637795
21
0.1009092913385827
0
LINE
8
BLACK
6
CONTINUOUS
10
0.9483218897637795
20
0.1009092913385827
11
0.954772559055118
21
0.0993193307086614
0
LINE
8
BLACK
6
CONTINUOUS
10
0.5066988582677165
20
0.1307679133858268
11
0.51129468503937
21
0.128426220472441
0
LINE
8
BLACK
6
CONTINUOUS
10
0.51129468503937
20
0.128426220472441
11
0.514941968503937
21
0.124778937007874
0
LINE
8
BLACK
6
CONTINUOUS
10
0.514941968503937
20
0.124778937007874
11
0.5172836614173228
21
0.1201831102362205
0
LINE
8
BLACK
6
CONTINUOUS
10
0.5172836614173228
20
0.1201831102362205
11
0.5180905511811024
21
0.1150885826771653
0
LINE
8
BLACK
6
CONTINUOUS
10
0.5180905511811024
20
0.1150885826771653
11
0.5180905511811024
21
0.0949114173228346
0
LINE
8
BLACK
6
CONTINUOUS
10
0.5180905511811024
20
0.0949114173228346
11
0.5172836614173228
21
0.0898168897637795
0
LINE
8
BLACK
6
CONTINUOUS
10
0.5172836614173228
20
0.0898168897637795
11
0.514941968503937
21
0.085221062992126
0
LINE
8
BLACK
6
CONTINUOUS
10
0.514941968503937
20
0.085221062992126
11
0.51129468503937
21
0.0815737795275591
0
LINE
8
BLACK
6
CONTINUOUS
10
0.51129468503937
20
0.0815737795275591
11
0.5066988582677165
21
0.0792320866141732
0
LINE
8
BLACK
6
CONTINUOUS
10
0.5066988582677165
20
0.0792320866141732
11
0.5016043307086614
21
0.0784251968503937
0
LINE
8
BLACK
6
CONTINUOUS
10
0.5016043307086614
20
0.0784251968503937
11
0.4843799212598425
21
0.0784251968503937
0
LINE
8
BLACK
6
CONTINUOUS
10
0.4843799212598425
20
0.0784251968503937
11
0.4792853937007874
21
0.0792320866141732
0
LINE
8
BLACK
6
CONTINUOUS
10
0.4792853937007874
20
0.0792320866141732
11
0.4746895669291338
21
0.0815737795275591
0
LINE
8
BLACK
6
CONTINUOUS
10
0.4746895669291338
20
0.0815737795275591
11
0.4710422834645669
21
0.085221062992126
0
LINE
8
BLACK
6
CONTINUOUS
10
0.4710422834645669
20
0.085221062992126
11
0.4687005905511811
21
0.0898168897637795
0
LINE
8
BLACK
6
CONTINUOUS
10
0.4687005905511811
20
0.0898168897637795
11
0.4678937007874016
21
0.0949114173228346
0
LINE
8
BLACK
6
CONTINUOUS
10
0.4678937007874016
20
0.0949114173228346
11
0.4678937007874016
21
0.1150885826771653
0
LINE
8
BLACK
6
CONTINUOUS
10
0.4678937007874016
20
0.1150885826771653
11
0.4687005905511811
21
0.1201831102362205
0
LINE
8
BLACK
6
CONTINUOUS
10
0.4687005905511811
20
0.1201831102362205
11
0.4710422834645669
21
0.124778937007874
0
LINE
8
BLACK
6
CONTINUOUS
10
0.4710422834645669
20
0.124778937007874
11
0.4746895669291338
21
0.128426220472441
0
LINE
8
BLACK
6
CONTINUOUS
10
0.4746895669291338
20
0.128426220472441
11
0.4792853937007874
21
0.1307679133858268
0
LINE
8
BLACK
6
CONTINUOUS
10
0.4792853937007874
20
0.1307679133858268
11
0.4843799212598425
21
0.1315748031496063
0
LINE
8
BLACK
6
CONTINUOUS
10
0.4843799212598425
20
0.1315748031496063
11
0.5016043307086614
21
0.1315748031496063
0
LINE
8
BLACK
6
CONTINUOUS
10
0.5016043307086614
20
0.1315748031496063
11
0.5066988582677165
21
0.1307679133858268
0
LINE
8
BLACK
6
CONTINUOUS
10
0.5687067322834646
20
0.1307679133858268
11
0.5733025590551181
21
0.128426220472441
0
LINE
8
BLACK
6
CONTINUOUS
10
0.5733025590551181
20
0.128426220472441
11
0.5769498425196851
21
0.124778937007874
0
LINE
8
BLACK
6
CONTINUOUS
10
0.5769498425196851
20
0.124778937007874
11
0.5792915354330709
21
0.1201831102362205
0
LINE
8
BLACK
6
CONTINUOUS
10
0.5792915354330709
20
0.1201831102362205
11
0.5800984251968504
21
0.1150885826771653
0
LINE
8
BLACK
6
CONTINUOUS
10
0.5800984251968504
20
0.1150885826771653
11
0.5800984251968504
21
0.0949114173228346
0
LINE
8
BLACK
6
CONTINUOUS
10
0.5800984251968504
20
0.0949114173228346
11
0.5792915354330709
21
0.0898168897637795
0
LINE
8
BLACK
6
CONTINUOUS
10
0.5792915354330709
20
0.0898168897637795
11
0.5769498425196851
21
0.085221062992126
0
LINE
8
BLACK
6
CONTINUOUS
10
0.5769498425196851
20
0.085221062992126
11
0.5733025590551181
21
0.0815737795275591
0
LINE
8
BLACK
6
CONTINUOUS
10
0.5733025590551181
20
0.0815737795275591
11
0.5687067322834646
21
0.0792320866141732
0
LINE
8
BLACK
6
CONTINUOUS
10
0.5687067322834646
20
0.0792320866141732
11
0.5636122047244094
21
0.0784251968503937
0
LINE
8
BLACK
6
CONTINUOUS
10
0.5636122047244094
20
0.0784251968503937
11
0.5463877952755906
21
0.0784251968503937
0
LINE
8
BLACK
6
CONTINUOUS
10
0.5463877952755906
20
0.0784251968503937
11
0.5412932677165354
21
0.0792320866141732
0
LINE
8
BLACK
6
CONTINUOUS
10
0.5412932677165354
20
0.0792320866141732
11
0.5366974409448819
21
0.0815737795275591
0
LINE
8
BLACK
6
CONTINUOUS
10
0.5366974409448819
20
0.0815737795275591
11
0.5330501574803149
21
0.085221062992126
0
LINE
8
BLACK
6
CONTINUOUS
10
0.5330501574803149
20
0.085221062992126
11
0.5307084645669291
21
0.0898168897637795
0
LINE
8
BLACK
6
CONTINUOUS
10
0.5307084645669291
20
0.0898168897637795
11
0.5299015748031496
21
0.0949114173228346
0
LINE
8
BLACK
6
CONTINUOUS
10
0.5299015748031496
20
0.0949114173228346
11
0.5299015748031496
21
0.1150885826771653
0
LINE
8
BLACK
6
CONTINUOUS
10
0.5299015748031496
20
0.1150885826771653
11
0.5307084645669291
21
0.1201831102362205
0
LINE
8
BLACK
6
CONTINUOUS
10
0.5307084645669291
20
0.1201831102362205
11
0.5330501574803149
21
0.124778937007874
0
LINE
8
BLACK
6
CONTINUOUS
10
0.5330501574803149
20
0.124778937007874
11
0.5366974409448819
21
0.128426220472441
0
LINE
8
BLACK
6
CONTINUOUS
10
0.5366974409448819
20
0.128426220472441
11
0.5412932677165354
21
0.1307679133858268
0
LINE
8
BLACK
6
CONTINUOUS
10
0.5412932677165354
20
0.1307679133858268
11
0.5463877952755906
21
0.1315748031496063
0
LINE
8
BLACK
6
CONTINUOUS
10
0.5463877952755906
20
0.1315748031496063
11
0.5636122047244094
21
0.1315748031496063
0
LINE
8
BLACK
6
CONTINUOUS
10
0.5636122047244094
20
0.1315748031496063
11
0.5687067322834646
21
0.1307679133858268
0
LINE
8
BLACK
6
CONTINUOUS
10
0.9077725590551181
20
0.1427681496062992
11
0.9136553149606299
21
0.1396806692913386
0
LINE
8
BLACK
6
CONTINUOUS
10
0.9136553149606299
20
0.1396806692913386
11
0.9186282677165354
21
0.1352750393700787
0
LINE
8
BLACK
6
CONTINUOUS
10
0.9186282677165354
20
0.1352750393700787
11
0.9224023228346456
21
0.1298073228346457
0
LINE
8
BLACK
6
CONTINUOUS
10
0.9224023228346456
20
0.1298073228346457
11
0.9247582283464567
21
0.1235953149606299
0
LINE
8
BLACK
6
CONTINUOUS
10
0.9247582283464567
20
0.1235953149606299
11
0.9255590551181102
21
0.117
0
LINE
8
BLACK
6
CONTINUOUS
10
0.9255590551181102
20
0.117
11
0.9247582283464567
21
0.1104046850393701
0
LINE
8
BLACK
6
CONTINUOUS
10
0.9247582283464567
20
0.1104046850393701
11
0.9224023228346456
21
0.1041926771653543
0
LINE
8
BLACK
6
CONTINUOUS
10
0.9224023228346456
20
0.1041926771653543
11
0.9186282677165354
21
0.0987249606299213
0
LINE
8
BLACK
6
CONTINUOUS
10
0.9186282677165354
20
0.0987249606299213
11
0.9136553149606299
21
0.0943193307086614
0
LINE
8
BLACK
6
CONTINUOUS
10
0.9136553149606299
20
0.0943193307086614
11
0.9077725590551181
21
0.0912318503937008
0
LINE
8
BLACK
6
CONTINUOUS
10
0.9077725590551181
20
0.0912318503937008
11
0.9013218897637795
21
0.0896418897637795
0
LINE
8
BLACK
6
CONTINUOUS
10
0.9013218897637795
20
0.0896418897637795
11
0.8946781102362205
21
0.0896418897637795
0
LINE
8
BLACK
6
CONTINUOUS
10
0.8946781102362205
20
0.0896418897637795
11
0.8882274409448818
21
0.0912318503937008
0
LINE
8
BLACK
6
CONTINUOUS
10
0.8882274409448818
20
0.0912318503937008
11
0.88234468503937
21
0.0943193307086614
0
LINE
8
BLACK
6
CONTINUOUS
10
0.88234468503937
20
0.0943193307086614
11
0.8773717322834645
21
0.0987249606299213
0
LINE
8
BLACK
6
CONTINUOUS
10
0.8773717322834645
20
0.0987249606299213
11
0.8735976771653543
21
0.1041926771653543
0
LINE
8
BLACK
6
CONTINUOUS
10
0.8735976771653543
20
0.1041926771653543
11
0.8712417716535433
21
0.1104046850393701
0
LINE
8
BLACK
6
CONTINUOUS
10
0.8712417716535433
20
0.1104046850393701
11
0.8704409448818897
21
0.117
0
LINE
8
BLACK
6
CONTINUOUS
10
0.8704409448818897
20
0.117
11
0.8712417716535433
21
0.1235953149606299
0
LINE
8
BLACK
6
CONTINUOUS
10
0.8712417716535433
20
0.1235953149606299
11
0.8735976771653543
21
0.1298073228346457
0
LINE
8
BLACK
6
CONTINUOUS
10
0.8735976771653543
20
0.1298073228346457
11
0.8773717322834645
21
0.1352750393700787
0
LINE
8
BLACK
6
CONTINUOUS
10
0.8773717322834645
20
0.1352750393700787
11
0.88234468503937
21
0.1396806692913386
0
LINE
8
BLACK
6
CONTINUOUS
10
0.88234468503937
20
0.1396806692913386
11
0.8882274409448818
21
0.1427681496062992
0
LINE
8
BLACK
6
CONTINUOUS
10
0.8882274409448818
20
0.1427681496062992
11
0.8946781102362205
21
0.1443581102362205
0
LINE
8
BLACK
6
CONTINUOUS
10
0.8946781102362205
20
0.1443581102362205
11
0.9013218897637795
21
0.1443581102362205
0
LINE
8
BLACK
6
CONTINUOUS
10
0.9013218897637795
20
0.1443581102362205
11
0.9077725590551181
21
0.1427681496062992
0
LINE
8
BLACK
6
CONTINUOUS
10
0.1114511811023622
20
0.1758722440944882
11
0.1164358661417323
21
0.174128031496063
0
LINE
8
BLACK
6
CONTINUOUS
10
0.1164358661417323
20
0.174128031496063
11
0.1206849606299213
21
0.1709920472440945
0
LINE
8
BLACK
6
CONTINUOUS
10
0.1206849606299213
20
0.1709920472440945
11
0.1238209448818898
21
0.1667429527559055
0
LINE
8
BLACK
6
CONTINUOUS
10
0.1238209448818898
20
0.1667429527559055
11
0.125565157480315
21
0.1617582677165354
0
LINE
8
BLACK
6
CONTINUOUS
10
0.125565157480315
20
0.1617582677165354
11
0.1258740157480315
21
0.1584645669291339
0
LINE
8
BLACK
6
CONTINUOUS
10
0.1258740157480315
20
0.1584645669291339
11
0.1258740157480315
21
0.1387795275590551
0
LINE
8
BLACK
6
CONTINUOUS
10
0.1258740157480315
20
0.1387795275590551
11
0.125565157480315
21
0.1354858267716536
0
LINE
8
BLACK
6
CONTINUOUS
10
0.125565157480315
20
0.1354858267716536
11
0.1238209448818898
21
0.1305011417322835
0
LINE
8
BLACK
6
CONTINUOUS
10
0.1238209448818898
20
0.1305011417322835
11
0.1206849606299213
21
0.1262520472440945
0
LINE
8
BLACK
6
CONTINUOUS
10
0.1206849606299213
20
0.1262520472440945
11
0.1164358661417323
21
0.123116062992126
0
LINE
8
BLACK
6
CONTINUOUS
10
0.1164358661417323
20
0.123116062992126
11
0.1114511811023622
21
0.1213718503937008
0
LINE
8
BLACK
6
CONTINUOUS
10
0.1114511811023622
20
0.1213718503937008
11
0.1081574803149606
21
0.1210629921259842
0
LINE
8
BLACK
6
CONTINUOUS
10
0.1081574803149606
20
0.1210629921259842
11
0.0215433070866142
21
0.1210629921259842
0
LINE
8
BLACK
6
CONTINUOUS
10
0.0215433070866142
20
0.1210629921259842
11
0.0182496062992126
21
0.1213718503937008
0
LINE
8
BLACK
6
CONTINUOUS
10
0.0182496062992126
20
0.1213718503937008
11
0.0132649212598425
21
0.123116062992126
0
LINE
8
BLACK
6
CONTINUOUS
10
0.0132649212598425
20
0.123116062992126
11
0.0090158267716535
21
0.1262520472440945
0
LINE
8
BLACK
6
CONTINUOUS
10
0.0090158267716535
20
0.1262520472440945
11
0.005879842519685
21
0.1305011417322835
0
LINE
8
BLACK
6
CONTINUOUS
10
0.005879842519685
20
0.1305011417322835
11
0.0041356299212598
21
0.1354858267716536
0
LINE
8
BLACK
6
CONTINUOUS
10
0.0041356299212598
20
0.1354858267716536
11
0.0038267716535433
21
0.1387795275590551
0
LINE
8
BLACK
6
CONTINUOUS
10
0.0038267716535433
20
0.1387795275590551
11
0.0038267716535433
21
0.1584645669291339
0
LINE
8
BLACK
6
CONTINUOUS
10
0.0038267716535433
20
0.1584645669291339
11
0.0041356299212598
21
0.1617582677165354
0
LINE
8
BLACK
6
CONTINUOUS
10
0.0041356299212598
20
0.1617582677165354
11
0.005879842519685
21
0.1667429527559055
0
LINE
8
BLACK
6
CONTINUOUS
10
0.005879842519685
20
0.1667429527559055
11
0.0090158267716535
21
0.1709920472440945
0
LINE
8
BLACK
6
CONTINUOUS
10
0.0090158267716535
20
0.1709920472440945
11
0.0132649212598425
21
0.174128031496063
0
LINE
8
BLACK
6
CONTINUOUS
10
0.0132649212598425
20
0.174128031496063
11
0.0182496062992126
21
0.1758722440944882
0
LINE
8
BLACK
6
CONTINUOUS
10
0.0182496062992126
20
0.1758722440944882
11
0.0215433070866142
21
0.1761811023622047
0
LINE
8
BLACK
6
CONTINUOUS
10
0.0215433070866142
20
0.1761811023622047
11
0.1081574803149606
21
0.1761811023622047
0
LINE
8
BLACK
6
CONTINUOUS
10
0.1081574803149606
20
0.1761811023622047
11
0.1114511811023622
21
0.1758722440944882
0
LINE
8
BLACK
6
CONTINUOUS
10
0.8631190157480315
20
0.1930909842519685
11
0.8690017716535433
21
0.1900035039370079
0
LINE
8
BLACK
6
CONTINUOUS
10
0.8690017716535433
20
0.1900035039370079
11
0.8739747244094488
21
0.185597874015748
0
LINE
8
BLACK
6
CONTINUOUS
10
0.8739747244094488
20
0.185597874015748
11
0.877748779527559
21
0.180130157480315
0
LINE
8
BLACK
6
CONTINUOUS
10
0.877748779527559
20
0.180130157480315
11
0.88010468503937
21
0.1739181496062992
0
LINE
8
BLACK
6
CONTINUOUS
10
0.88010468503937
20
0.1739181496062992
11
0.8809055118110236
21
0.1673228346456693
0
LINE
8
BLACK
6
CONTINUOUS
10
0.8809055118110236
20
0.1673228346456693
11
0.88010468503937
21
0.1607275196850394
0
LINE
8
BLACK
6
CONTINUOUS
10
0.88010468503937
20
0.1607275196850394
11
0.877748779527559
21
0.1545155118110236
0
LINE
8
BLACK
6
CONTINUOUS
10
0.877748779527559
20
0.1545155118110236
11
0.8739747244094488
21
0.1490477952755906
0
LINE
8
BLACK
6
CONTINUOUS
10
0.8739747244094488
20
0.1490477952755906
11
0.8690017716535433
21
0.1446421653543307
0
LINE
8
BLACK
6
CONTINUOUS
10
0.8690017716535433
20
0.1446421653543307
11
0.8631190157480315
21
0.1415546850393701
0
LINE
8
BLACK
6
CONTINUOUS
10
0.8631190157480315
20
0.1415546850393701
11
0.8566683464566929
21
0.1399647244094488
0
LINE
8
BLACK
6
CONTINUOUS
10
0.8566683464566929
20
0.1399647244094488
11
0.8500245669291339
21
0.1399647244094488
0
LINE
8
BLACK
6
CONTINUOUS
10
0.8500245669291339
20
0.1399647244094488
11
0.8435738976377952
21
0.1415546850393701
0
LINE
8
BLACK
6
CONTINUOUS
10
0.8435738976377952
20
0.1415546850393701
11
0.8376911417322834
21
0.1446421653543307
0
LINE
8
BLACK
6
CONTINUOUS
10
0.8376911417322834
20
0.1446421653543307
11
0.8327181889763779
21
0.1490477952755906
0
LINE
8
BLACK
6
CONTINUOUS
10
0.8327181889763779
20
0.1490477952755906
11
0.8289441338582677
21
0.1545155118110236
0
LINE
8
BLACK
6
CONTINUOUS
10
0.8289441338582677
20
0.1545155118110236
11
0.8265882283464566
21
0.1607275196850394
0
LINE
8
BLACK
6
CONTINUOUS
10
0.8265882283464566
20
0.1607275196850394
11
0.8257874015748031
21
0.1673228346456693
0
LINE
8
BLACK
6
CONTINUOUS
10
0.8257874015748031
20
0.1673228346456693
11
0.8265882283464566
21
0.1739181496062992
0
LINE
8
BLACK
6
CONTINUOUS
10
0.8265882283464566
20
0.1739181496062992
11
0.8289441338582677
21
0.180130157480315
0
LINE
8
BLACK
6
CONTINUOUS
10
0.8289441338582677
20
0.180130157480315
11
0.8327181889763779
21
0.185597874015748
0
LINE
8
BLACK
6
CONTINUOUS
10
0.8327181889763779
20
0.185597874015748
11
0.8376911417322834
21
0.1900035039370079
0
LINE
8
BLACK
6
CONTINUOUS
10
0.8376911417322834
20
0.1900035039370079
11
0.8435738976377952
21
0.1930909842519685
0
LINE
8
BLACK
6
CONTINUOUS
10
0.8435738976377952
20
0.1930909842519685
11
0.8500245669291339
21
0.1946809448818898
0
LINE
8
BLACK
6
CONTINUOUS
10
0.8500245669291339
20
0.1946809448818898
11
0.8566683464566929
21
0.1946809448818898
0
LINE
8
BLACK
6
CONTINUOUS
10
0.8566683464566929
20
0.1946809448818898
11
0.8631190157480315
21
0.1930909842519685
0
LINE
8
BLACK
6
CONTINUOUS
10
0.4801831102362205
20
0.2042915354330709
11
0.484778937007874
21
0.201949842519685
0
LINE
8
BLACK
6
CONTINUOUS
10
0.484778937007874
20
0.201949842519685
11
0.4884262204724409
21
0.1983025590551181
0
LINE
8
BLACK
6
CONTINUOUS
10
0.4884262204724409
20
0.1983025590551181
11
0.4907679133858268
21
0.1937067322834645
0
LINE
8
BLACK
6
CONTINUOUS
10
0.4907679133858268
20
0.1937067322834645
11
0.4915748031496063
21
0.1886122047244095
0
LINE
8
BLACK
6
CONTINUOUS
10
0.4915748031496063
20
0.1886122047244095
11
0.4915748031496063
21
0.1713877952755906
0
LINE
8
BLACK
6
CONTINUOUS
10
0.4915748031496063
20
0.1713877952755906
11
0.4907679133858268
21
0.1662932677165354
0
LINE
8
BLACK
6
CONTINUOUS
10
0.4907679133858268
20
0.1662932677165354
11
0.4884262204724409
21
0.1616974409448819
0
LINE
8
BLACK
6
CONTINUOUS
10
0.4884262204724409
20
0.1616974409448819
11
0.484778937007874
21
0.158050157480315
0
LINE
8
BLACK
6
CONTINUOUS
10
0.484778937007874
20
0.158050157480315
11
0.4801831102362205
21
0.1557084645669291
0
LINE
8
BLACK
6
CONTINUOUS
10
0.4801831102362205
20
0.1557084645669291
11
0.4750885826771654
21
0.1549015748031496
0
LINE
8
BLACK
6
CONTINUOUS
10
0.4750885826771654
20
0.1549015748031496
11
0.4549114173228346
21
0.1549015748031496
0
LINE
8
BLACK
6
CONTINUOUS
10
0.4549114173228346
20
0.1549015748031496
11
0.4498168897637795
21
0.1557084645669291
0
LINE
8
BLACK
6
CONTINUOUS
10
0.4498168897637795
20
0.1557084645669291
11
0.445221062992126
21
0.158050157480315
0
LINE
8
BLACK
6
CONTINUOUS
10
0.445221062992126
20
0.158050157480315
11
0.4415737795275591
21
0.1616974409448819
0
LINE
8
BLACK
6
CONTINUOUS
10
0.4415737795275591
20
0.1616974409448819
11
0.4392320866141732
21
0.1662932677165354
0
LINE
8
BLACK
6
CONTINUOUS
10
0.4392320866141732
20
0.1662932677165354
11
0.4384251968503937
21
0.1713877952755906
0
LINE
8
BLACK
6
CONTINUOUS
10
0.4384251968503937
20
0.1713877952755906
11
0.4384251968503937
21
0.1886122047244095
0
LINE
8
BLACK
6
CONTINUOUS
10
0.4384251968503937
20
0.1886122047244095
11
0.4392320866141732
21
0.1937067322834645
0
LINE
8
BLACK
6
CONTINUOUS
10
0.4392320866141732
20
0.1937067322834645
11
0.4415737795275591
21
0.1983025590551181
0
LINE
8
BLACK
6
CONTINUOUS
10
0.4415737795275591
20
0.1983025590551181
11
0.445221062992126
21
0.201949842519685
0
LINE
8
BLACK
6
CONTINUOUS
10
0.445221062992126
20
0.201949842519685
11
0.4498168897637795
21
0.2042915354330709
0
LINE
8
BLACK
6
CONTINUOUS
10
0.4498168897637795
20
0.2042915354330709
11
0.4549114173228346
21
0.2050984251968504
0
LINE
8
BLACK
6
CONTINUOUS
10
0.4549114173228346
20
0.2050984251968504
11
0.4750885826771654
21
0.2050984251968504
0
LINE
8
BLACK
6
CONTINUOUS
10
0.4750885826771654
20
0.2050984251968504
11
0.4801831102362205
21
0.2042915354330709
0
LINE
8
BLACK
6
CONTINUOUS
10
0.6450998818897637
20
0.2106211023622047
11
0.6476543700787402
21
0.2089142125984252
0
LINE
8
BLACK
6
CONTINUOUS
10
0.6476543700787402
20
0.2089142125984252
11
0.6493612598425197
21
0.2063597244094488
0
LINE
8
BLACK
6
CONTINUOUS
10
0.6493612598425197
20
0.2063597244094488
11
0.6499606299212598
21
0.2033464566929134
0
LINE
8
BLACK
6
CONTINUOUS
10
0.6499606299212598
20
0.2033464566929134
11
0.6499606299212598
21
0.1718503937007874
0
LINE
8
BLACK
6
CONTINUOUS
10
0.6499606299212598
20
0.1718503937007874
11
0.6493612598425197
21
0.168837125984252
0
LINE
8
BLACK
6
CONTINUOUS
10
0.6493612598425197
20
0.168837125984252
11
0.6476543700787402
21
0.1662826377952756
0
LINE
8
BLACK
6
CONTINUOUS
10
0.6476543700787402
20
0.1662826377952756
11
0.6450998818897637
21
0.164575748031496
0
LINE
8
BLACK
6
CONTINUOUS
10
0.6450998818897637
20
0.164575748031496
11
0.6420866141732283
21
0.1639763779527559
0
LINE
8
BLACK
6
CONTINUOUS
10
0.6420866141732283
20
0.1639763779527559
11
0.6066535433070867
21
0.1639763779527559
0
LINE
8
BLACK
6
CONTINUOUS
10
0.6066535433070867
20
0.1639763779527559
11
0.6036402755905511
21
0.164575748031496
0
LINE
8
BLACK
6
CONTINUOUS
10
0.6036402755905511
20
0.164575748031496
11
0.6010857874015748
21
0.1662826377952756
0
LINE
8
BLACK
6
CONTINUOUS
10
0.6010857874015748
20
0.1662826377952756
11
0.5993788976377953
21
0.168837125984252
0
LINE
8
BLACK
6
CONTINUOUS
10
0.5993788976377953
20
0.168837125984252
11
0.5987795275590551
21
0.1718503937007874
0
LINE
8
BLACK
6
CONTINUOUS
10
0.5987795275590551
20
0.1718503937007874
11
0.5987795275590551
21
0.2033464566929134
0
LINE
8
BLACK
6
CONTINUOUS
10
0.5987795275590551
20
0.2033464566929134
11
0.5993788976377953
21
0.2063597244094488
0
LINE
8
BLACK
6
CONTINUOUS
10
0.5993788976377953
20
0.2063597244094488
11
0.6010857874015748
21
0.2089142125984252
0
LINE
8
BLACK
6
CONTINUOUS
10
0.6010857874015748
20
0.2089142125984252
11
0.6036402755905511
21
0.2106211023622047
0
LINE
8
BLACK
6
CONTINUOUS
10
0.6036402755905511
20
0.2106211023622047
11
0.6066535433070867
21
0.2112204724409449
0
LINE
8
BLACK
6
CONTINUOUS
10
0.6066535433070867
20
0.2112204724409449
11
0.6420866141732283
21
0.2112204724409449
0
LINE
8
BLACK
6
CONTINUOUS
10
0.6420866141732283
20
0.2112204724409449
11
0.6450998818897637
21
0.2106211023622047
0
LINE
8
BLACK
6
CONTINUOUS
10
0.333406968503937
20
0.2248337007874016
11
0.3359614566929134
21
0.223126811023622
0
LINE
8
BLACK
6
CONTINUOUS
10
0.3359614566929134
20
0.223126811023622
11
0.3362992125984252
21
0.2226213385826772
0
LINE
8
BLACK
6
CONTINUOUS
10
0.3362992125984252
20
0.2226213385826772
11
0.336636968503937
21
0.223126811023622
0
LINE
8
BLACK
6
CONTINUOUS
10
0.336636968503937
20
0.223126811023622
11
0.3391914566929134
21
0.2248337007874016
0
LINE
8
BLACK
6
CONTINUOUS
10
0.3391914566929134
20
0.2248337007874016
11
0.3422047244094488
21
0.2254330708661417
0
LINE
8
BLACK
6
CONTINUOUS
10
0.3422047244094488
20
0.2254330708661417
11
0.3677952755905512
21
0.2254330708661417
0
LINE
8
BLACK
6
CONTINUOUS
10
0.3677952755905512
20
0.2254330708661417
11
0.3708085433070866
21
0.2248337007874016
0
LINE
8
BLACK
6
CONTINUOUS
10
0.3708085433070866
20
0.2248337007874016
11
0.373363031496063
21
0.223126811023622
0
LINE
8
BLACK
6
CONTINUOUS
10
0.373363031496063
20
0.223126811023622
11
0.3737007874015748
21
0.2226213385826772
0
LINE
8
BLACK
6
CONTINUOUS
10
0.3737007874015748
20
0.2226213385826772
11
0.3740385433070866
21
0.223126811023622
0
LINE
8
BLACK
6
CONTINUOUS
10
0.3740385433070866
20
0.223126811023622
11
0.376593031496063
21
0.2248337007874016
0
LINE
8
BLACK
6
CONTINUOUS
10
0.376593031496063
20
0.2248337007874016
11
0.3796062992125984
21
0.2254330708661417
0
LINE
8
BLACK
6
CONTINUOUS
10
0.3796062992125984
20
0.2254330708661417
11
0.4051968503937008
21
0.2254330708661417
0
LINE
8
BLACK
6
CONTINUOUS
10
0.4051968503937008
20
0.2254330708661417
11
0.4082101181102362
21
0.2248337007874016
0
LINE
8
BLACK
6
CONTINUOUS
10
0.4082101181102362
20
0.2248337007874016
11
0.4107646062992126
21
0.223126811023622
0
LINE
8
BLACK
6
CONTINUOUS
10
0.4107646062992126
20
0.223126811023622
11
0.4124714960629921
21
0.2205723228346457
0
LINE
8
BLACK
6
CONTINUOUS
10
0.4124714960629921
20
0.2205723228346457
11
0.4130708661417323
21
0.2175590551181102
0
LINE
8
BLACK
6
CONTINUOUS
10
0.4130708661417323
20
0.2175590551181102
11
0.4130708661417323
21
0.1758267716535433
0
LINE
8
BLACK
6
CONTINUOUS
10
0.4130708661417323
20
0.1758267716535433
11
0.4124714960629921
21
0.1728135039370079
0
LINE
8
BLACK
6
CONTINUOUS
10
0.4124714960629921
20
0.1728135039370079
11
0.4107646062992126
21
0.1702590157480315
0
LINE
8
BLACK
6
CONTINUOUS
10
0.4107646062992126
20
0.1702590157480315
11
0.4082101181102362
21
0.168552125984252
0
LINE
8
BLACK
6
CONTINUOUS
10
0.4082101181102362
20
0.168552125984252
11
0.4051968503937008
21
0.1679527559055118
0
LINE
8
BLACK
6
CONTINUOUS
10
0.4051968503937008
20
0.1679527559055118
11
0.3796062992125984
21
0.1679527559055118
0
LINE
8
BLACK
6
CONTINUOUS
10
0.3796062992125984
20
0.1679527559055118
11
0.376593031496063
21
0.168552125984252
0
LINE
8
BLACK
6
CONTINUOUS
10
0.376593031496063
20
0.168552125984252
11
0.3740385433070866
21
0.1702590157480315
0
LINE
8
BLACK
6
CONTINUOUS
10
0.3740385433070866
20
0.1702590157480315
11
0.3737007874015748
21
0.1707645275590551
0
LINE
8
BLACK
6
CONTINUOUS
10
0.3737007874015748
20
0.1707645275590551
11
0.373363031496063
21
0.1702590157480315
0
LINE
8
BLACK
6
CONTINUOUS
10
0.373363031496063
20
0.1702590157480315
11
0.3708085433070866
21
0.168552125984252
0
LINE
8
BLACK
6
CONTINUOUS
10
0.3708085433070866
20
0.168552125984252
11
0.3677952755905512
21
0.1679527559055118
0
LINE
8
BLACK
6
CONTINUOUS
10
0.3677952755905512
20
0.1679527559055118
11
0.3422047244094488
21
0.1679527559055118
0
LINE
8
BLACK
6
CONTINUOUS
10
0.3422047244094488
20
0.1679527559055118
11
0.3391914566929134
21
0.168552125984252
0
LINE
8
BLACK
6
CONTINUOUS
10
0.3391914566929134
20
0.168552125984252
11
0.336636968503937
21
0.1702590157480315
0
LINE
8
BLACK
6
CONTINUOUS
10
0.336636968503937
20
0.1702590157480315
11
0.3362992125984252
21
0.1707645275590551
0
LINE
8
BLACK
6
CONTINUOUS
10
0.3362992125984252
20
0.1707645275590551
11
0.3359614566929134
21
0.1702590157480315
0
LINE
8
BLACK
6
CONTINUOUS
10
0.3359614566929134
20
0.1702590157480315
11
0.333406968503937
21
0.168552125984252
0
LINE
8
BLACK
6
CONTINUOUS
10
0.333406968503937
20
0.168552125984252
11
0.3303937007874015
21
0.1679527559055118
0
LINE
8
BLACK
6
CONTINUOUS
10
0.3303937007874015
20
0.1679527559055118
11
0.3048031496062992
21
0.1679527559055118
0
LINE
8
BLACK
6
CONTINUOUS
10
0.3048031496062992
20
0.1679527559055118
11
0.3017898818897638
21
0.168552125984252
0
LINE
8
BLACK
6
CONTINUOUS
10
0.3017898818897638
20
0.168552125984252
11
0.2992353937007874
21
0.1702590157480315
0
LINE
8
BLACK
6
CONTINUOUS
10
0.2992353937007874
20
0.1702590157480315
11
0.2975285039370079
21
0.1728135039370079
0
LINE
8
BLACK
6
CONTINUOUS
10
0.2975285039370079
20
0.1728135039370079
11
0.2969291338582677
21
0.1758267716535433
0
LINE
8
BLACK
6
CONTINUOUS
10
0.2969291338582677
20
0.1758267716535433
11
0.2969291338582677
21
0.2175590551181102
0
LINE
8
BLACK
6
CONTINUOUS
10
0.2969291338582677
20
0.2175590551181102
11
0.2975285039370079
21
0.2205723228346457
0
LINE
8
BLACK
6
CONTINUOUS
10
0.2975285039370079
20
0.2205723228346457
11
0.2992353937007874
21
0.223126811023622
0
LINE
8
BLACK
6
CONTINUOUS
10
0.2992353937007874
20
0.223126811023622
11
0.3017898818897638
21
0.2248337007874016
0
LINE
8
BLACK
6
CONTINUOUS
10
0.3017898818897638
20
0.2248337007874016
11
0.3048031496062992
21
0.2254330708661417
0
LINE
8
BLACK
6
CONTINUOUS
10
0.3048031496062992
20
0.2254330708661417
11
0.3303937007874015
21
0.2254330708661417
0
LINE
8
BLACK
6
CONTINUOUS
10
0.3303937007874015
20
0.2254330708661417
11
0.333406968503937
21
0.2248337007874016
0
LINE
8
BLACK
6
CONTINUOUS
10
0.939279842519685
20
0.212788031496063
11
0.9439933070866141
21
0.2097588582677165
0
LINE
8
BLACK
6
CONTINUOUS
10
0.9439933070866141
20
0.2097588582677165
11
0.9476624803149606
21
0.2055244094488189
0
LINE
8
BLACK
6
CONTINUOUS
10
0.9476624803149606
20
0.2055244094488189
11
0.94999
21
0.2004277952755905
0
LINE
8
BLACK
6
CONTINUOUS
10
0.94999
20
0.2004277952755905
11
0.9507874015748031
21
0.1948818897637795
0
LINE
8
BLACK
6
CONTINUOUS
10
0.9507874015748031
20
0.1948818897637795
11
0.94999
21
0.1893359842519685
0
LINE
8
BLACK
6
CONTINUOUS
10
0.94999
20
0.1893359842519685
11
0.9476624803149606
21
0.1842393700787402
0
LINE
8
BLACK
6
CONTINUOUS
10
0.9476624803149606
20
0.1842393700787402
11
0.9439933070866141
21
0.1800049212598425
0
LINE
8
BLACK
6
CONTINUOUS
10
0.9439933070866141
20
0.1800049212598425
11
0.939279842519685
21
0.1769757480314961
0
LINE
8
BLACK
6
CONTINUOUS
10
0.939279842519685
20
0.1769757480314961
11
0.9339038188976377
21
0.1753972047244095
0
LINE
8
BLACK
6
CONTINUOUS
10
0.9339038188976377
20
0.1753972047244095
11
0.928300905511811
21
0.1753972047244095
0
LINE
8
BLACK
6
CONTINUOUS
10
0.928300905511811
20
0.1753972047244095
11
0.9229248818897637
21
0.1769757480314961
0
LINE
8
BLACK
6
CONTINUOUS
10
0.9229248818897637
20
0.1769757480314961
11
0.9182114173228346
21
0.1800049212598425
0
LINE
8
BLACK
6
CONTINUOUS
10
0.9182114173228346
20
0.1800049212598425
11
0.9145422440944881
21
0.1842393700787402
0
LINE
8
BLACK
6
CONTINUOUS
10
0.9145422440944881
20
0.1842393700787402
11
0.9122147244094488
21
0.1893359842519685
0
LINE
8
BLACK
6
CONTINUOUS
10
0.9122147244094488
20
0.1893359842519685
11
0.9114173228346456
21
0.1948818897637795
0
LINE
8
BLACK
6
CONTINUOUS
10
0.9114173228346456
20
0.1948818897637795
11
0.9122147244094488
21
0.2004277952755905
0
LINE
8
BLACK
6
CONTINUOUS
10
0.9122147244094488
20
0.2004277952755905
11
0.9145422440944881
21
0.2055244094488189
0
LINE
8
BLACK
6
CONTINUOUS
10
0.9145422440944881
20
0.2055244094488189
11
0.9182114173228346
21
0.2097588582677165
0
LINE
8
BLACK
6
CONTINUOUS
10
0.9182114173228346
20
0.2097588582677165
11
0.9229248818897637
21
0.212788031496063
0
LINE
8
BLACK
6
CONTINUOUS
10
0.9229248818897637
20
0.212788031496063
11
0.928300905511811
21
0.2143665748031496
0
LINE
8
BLACK
6
CONTINUOUS
10
0.928300905511811
20
0.2143665748031496
11
0.9339038188976377
21
0.2143665748031496
0
LINE
8
BLACK
6
CONTINUOUS
10
0.9339038188976377
20
0.2143665748031496
11
0.939279842519685
21
0.212788031496063
0
LINE
8
BLACK
6
CONTINUOUS
10
1.1400672440944881
20
0.212788031496063
11
1.1447807086614172
21
0.2097588582677165
0
LINE
8
BLACK
6
CONTINUOUS
10
1.1447807086614172
20
0.2097588582677165
11
1.1484498818897637
21
0.2055244094488189
0
LINE
8
BLACK
6
CONTINUOUS
10
1.1484498818897637
20
0.2055244094488189
11
1.1507774015748031
21
0.2004277952755905
0
LINE
8
BLACK
6
CONTINUOUS
10
1.1507774015748031
20
0.2004277952755905
11
1.1515748031496063
21
0.1948818897637795
0
LINE
8
BLACK
6
CONTINUOUS
10
1.1515748031496063
20
0.1948818897637795
11
1.1507774015748031
21
0.1893359842519685
0
LINE
8
BLACK
6
CONTINUOUS
10
1.1507774015748031
20
0.1893359842519685
11
1.1484498818897637
21
0.1842393700787402
0
LINE
8
BLACK
6
CONTINUOUS
10
1.1484498818897637
20
0.1842393700787402
11
1.1447807086614172
21
0.1800049212598425
0
LINE
8
BLACK
6
CONTINUOUS
10
1.1447807086614172
20
0.1800049212598425
11
1.1400672440944881
21
0.1769757480314961
0
LINE
8
BLACK
6
CONTINUOUS
10
1.1400672440944881
20
0.1769757480314961
11
1.1346912204724409
21
0.1753972047244095
0
LINE
8
BLACK
6
CONTINUOUS
10
1.1346912204724409
20
0.1753972047244095
11
1.1290883070866142
21
0.1753972047244095
0
LINE
8
BLACK
6
CONTINUOUS
10
1.1290883070866142
20
0.1753972047244095
11
1.123712283464567
21
0.1769757480314961
0
LINE
8
BLACK
6
CONTINUOUS
10
1.123712283464567
20
0.1769757480314961
11
1.1189988188976379
21
0.1800049212598425
0
LINE
8
BLACK
6
CONTINUOUS
10
1.1189988188976379
20
0.1800049212598425
11
1.1153296456692914
21
0.1842393700787402
0
LINE
8
BLACK
6
CONTINUOUS
10
1.1153296456692914
20
0.1842393700787402
11
1.113002125984252
21
0.1893359842519685
0
LINE
8
BLACK
6
CONTINUOUS
10
1.113002125984252
20
0.1893359842519685
11
1.1122047244094488
21
0.1948818897637795
0
LINE
8
BLACK
6
CONTINUOUS
10
1.1122047244094488
20
0.1948818897637795
11
1.113002125984252
21
0.2004277952755905
0
LINE
8
BLACK
6
CONTINUOUS
10
1.113002125984252
20
0.2004277952755905
11
1.1153296456692914
21
0.2055244094488189
0
LINE
8
BLACK
6
CONTINUOUS
10
1.1153296456692914
20
0.2055244094488189
11
1.1189988188976379
21
0.2097588582677165
0
LINE
8
BLACK
6
CONTINUOUS
10
1.1189988188976379
20
0.2097588582677165
11
1.123712283464567
21
0.212788031496063
0
LINE
8
BLACK
6
CONTINUOUS
10
1.123712283464567
20
0.212788031496063
11
1.1290883070866142
21
0.2143665748031496
0
LINE
8
BLACK
6
CONTINUOUS
10
1.1290883070866142
20
0.2143665748031496
11
1.1346912204724409
21
0.2143665748031496
0
LINE
8
BLACK
6
CONTINUOUS
10
1.1346912204724409
20
0.2143665748031496
11
1.1400672440944881
21
0.212788031496063
0
LINE
8
BLACK
6
CONTINUOUS
10
0.7066988582677165
20
0.2357679133858268
11
0.7112946850393701
21
0.2334262204724409
0
LINE
8
BLACK
6
CONTINUOUS
10
0.7112946850393701
20
0.2334262204724409
11
0.714941968503937
21
0.229778937007874
0
LINE
8
BLACK
6
CONTINUOUS
10
0.714941968503937
20
0.229778937007874
11
0.7172836614173228
21
0.2251831102362205
0
LINE
8
BLACK
6
CONTINUOUS
10
0.7172836614173228
20
0.2251831102362205
11
0.7180905511811023
21
0.2200885826771654
0
LINE
8
BLACK
6
CONTINUOUS
10
0.7180905511811023
20
0.2200885826771654
11
0.7180905511811023
21
0.1999114173228346
0
LINE
8
BLACK
6
CONTINUOUS
10
0.7180905511811023
20
0.1999114173228346
11
0.7172836614173228
21
0.1948168897637795
0
LINE
8
BLACK
6
CONTINUOUS
10
0.7172836614173228
20
0.1948168897637795
11
0.714941968503937
21
0.190221062992126
0
LINE
8
BLACK
6
CONTINUOUS
10
0.714941968503937
20
0.190221062992126
11
0.7112946850393701
21
0.186573779527559
0
LINE
8
BLACK
6
CONTINUOUS
10
0.7112946850393701
20
0.186573779527559
11
0.7066988582677165
21
0.1842320866141732
0
LINE
8
BLACK
6
CONTINUOUS
10
0.7066988582677165
20
0.1842320866141732
11
0.7016043307086614
21
0.1834251968503937
0
LINE
8
BLACK
6
CONTINUOUS
10
0.7016043307086614
20
0.1834251968503937
11
0.6843799212598425
21
0.1834251968503937
0
LINE
8
BLACK
6
CONTINUOUS
10
0.6843799212598425
20
0.1834251968503937
11
0.6792853937007873
21
0.1842320866141732
0
LINE
8
BLACK
6
CONTINUOUS
10
0.6792853937007873
20
0.1842320866141732
11
0.6746895669291338
21
0.186573779527559
0
LINE
8
BLACK
6
CONTINUOUS
10
0.6746895669291338
20
0.186573779527559
11
0.671042283464567
21
0.190221062992126
0
LINE
8
BLACK
6
CONTINUOUS
10
0.671042283464567
20
0.190221062992126
11
0.6687005905511811
21
0.1948168897637795
0
LINE
8
BLACK
6
CONTINUOUS
10
0.6687005905511811
20
0.1948168897637795
11
0.6678937007874015
21
0.1999114173228346
0
LINE
8
BLACK
6
CONTINUOUS
10
0.6678937007874015
20
0.1999114173228346
11
0.6678937007874015
21
0.2200885826771654
0
LINE
8
BLACK
6
CONTINUOUS
10
0.6678937007874015
20
0.2200885826771654
11
0.6687005905511811
21
0.2251831102362205
0
LINE
8
BLACK
6
CONTINUOUS
10
0.6687005905511811
20
0.2251831102362205
11
0.671042283464567
21
0.229778937007874
0
LINE
8
BLACK
6
CONTINUOUS
10
0.671042283464567
20
0.229778937007874
11
0.6746895669291338
21
0.2334262204724409
0
LINE
8
BLACK
6
CONTINUOUS
10
0.6746895669291338
20
0.2334262204724409
11
0.6792853937007873
21
0.2357679133858268
0
LINE
8
BLACK
6
CONTINUOUS
10
0.6792853937007873
20
0.2357679133858268
11
0.6843799212598425
21
0.2365748031496063
0
LINE
8
BLACK
6
CONTINUOUS
10
0.6843799212598425
20
0.2365748031496063
11
0.7016043307086614
21
0.2365748031496063
0
LINE
8
BLACK
6
CONTINUOUS
10
0.7016043307086614
20
0.2365748031496063
11
0.7066988582677165
21
0.2357679133858268
0
LINE
8
BLACK
6
CONTINUOUS
10
0.7687067322834645
20
0.2357679133858268
11
0.7733025590551181
21
0.2334262204724409
0
LINE
8
BLACK
6
CONTINUOUS
10
0.7733025590551181
20
0.2334262204724409
11
0.776949842519685
21
0.229778937007874
0
LINE
8
BLACK
6
CONTINUOUS
10
0.776949842519685
20
0.229778937007874
11
0.7792915354330708
21
0.2251831102362205
0
LINE
8
BLACK
6
CONTINUOUS
10
0.7792915354330708
20
0.2251831102362205
11
0.7800984251968504
21
0.2200885826771654
0
LINE
8
BLACK
6
CONTINUOUS
10
0.7800984251968504
20
0.2200885826771654
11
0.7800984251968504
21
0.1999114173228346
0
LINE
8
BLACK
6
CONTINUOUS
10
0.7800984251968504
20
0.1999114173228346
11
0.7792915354330708
21
0.1948168897637795
0
LINE
8
BLACK
6
CONTINUOUS
10
0.7792915354330708
20
0.1948168897637795
11
0.776949842519685
21
0.190221062992126
0
LINE
8
BLACK
6
CONTINUOUS
10
0.776949842519685
20
0.190221062992126
11
0.7733025590551181
21
0.186573779527559
0
LINE
8
BLACK
6
CONTINUOUS
10
0.7733025590551181
20
0.186573779527559
11
0.7687067322834645
21
0.1842320866141732
0
LINE
8
BLACK
6
CONTINUOUS
10
0.7687067322834645
20
0.1842320866141732
11
0.7636122047244094
21
0.1834251968503937
0
LINE
8
BLACK
6
CONTINUOUS
10
0.7636122047244094
20
0.1834251968503937
11
0.7463877952755905
21
0.1834251968503937
0
LINE
8
BLACK
6
CONTINUOUS
10
0.7463877952755905
20
0.1834251968503937
11
0.7412932677165354
21
0.1842320866141732
0
LINE
8
BLACK
6
CONTINUOUS
10
0.7412932677165354
20
0.1842320866141732
11
0.7366974409448819
21
0.186573779527559
0
LINE
8
BLACK
6
CONTINUOUS
10
0.7366974409448819
20
0.186573779527559
11
0.733050157480315
21
0.190221062992126
0
LINE
8
BLACK
6
CONTINUOUS
10
0.733050157480315
20
0.190221062992126
11
0.7307084645669292
21
0.1948168897637795
0
LINE
8
BLACK
6
CONTINUOUS
10
0.7307084645669292
20
0.1948168897637795
11
0.7299015748031495
21
0.1999114173228346
0
LINE
8
BLACK
6
CONTINUOUS
10
0.7299015748031495
20
0.1999114173228346
11
0.7299015748031495
21
0.2200885826771654
0
LINE
8
BLACK
6
CONTINUOUS
10
0.7299015748031495
20
0.2200885826771654
11
0.7307084645669292
21
0.2251831102362205
0
LINE
8
BLACK
6
CONTINUOUS
10
0.7307084645669292
20
0.2251831102362205
11
0.733050157480315
21
0.229778937007874
0
LINE
8
BLACK
6
CONTINUOUS
10
0.733050157480315
20
0.229778937007874
11
0.7366974409448819
21
0.2334262204724409
0
LINE
8
BLACK
6
CONTINUOUS
10
0.7366974409448819
20
0.2334262204724409
11
0.7412932677165354
21
0.2357679133858268
0
LINE
8
BLACK
6
CONTINUOUS
10
0.7412932677165354
20
0.2357679133858268
11
0.7463877952755905
21
0.2365748031496063
0
LINE
8
BLACK
6
CONTINUOUS
10
0.7463877952755905
20
0.2365748031496063
11
0.7636122047244094
21
0.2365748031496063
0
LINE
8
BLACK
6
CONTINUOUS
10
0.7636122047244094
20
0.2365748031496063
11
0.7687067322834645
21
0.2357679133858268
0
LINE
8
BLACK
6
CONTINUOUS
10
0.5663597244094488
20
0.2480226771653543
11
0.5689142125984252
21
0.2463157874015748
0
LINE
8
BLACK
6
CONTINUOUS
10
0.5689142125984252
20
0.2463157874015748
11
0.5706211023622048
21
0.2437612992125984
0
LINE
8
BLACK
6
CONTINUOUS
10
0.5706211023622048
20
0.2437612992125984
11
0.5712204724409449
21
0.240748031496063
0
LINE
8
BLACK
6
CONTINUOUS
10
0.5712204724409449
20
0.240748031496063
11
0.5712204724409449
21
0.209251968503937
0
LINE
8
BLACK
6
CONTINUOUS
10
0.5712204724409449
20
0.209251968503937
11
0.5706211023622048
21
0.2062387007874016
0
LINE
8
BLACK
6
CONTINUOUS
10
0.5706211023622048
20
0.2062387007874016
11
0.5689142125984252
21
0.2036842125984252
0
LINE
8
BLACK
6
CONTINUOUS
10
0.5689142125984252
20
0.2036842125984252
11
0.5663597244094488
21
0.2019773228346457
0
LINE
8
BLACK
6
CONTINUOUS
10
0.5663597244094488
20
0.2019773228346457
11
0.5633464566929134
21
0.2013779527559055
0
LINE
8
BLACK
6
CONTINUOUS
10
0.5633464566929134
20
0.2013779527559055
11
0.5279133858267716
21
0.2013779527559055
0
LINE
8
BLACK
6
CONTINUOUS
10
0.5279133858267716
20
0.2013779527559055
11
0.5249001181102362
21
0.2019773228346457
0
LINE
8
BLACK
6
CONTINUOUS
10
0.5249001181102362
20
0.2019773228346457
11
0.5223456299212599
21
0.2036842125984252
0
LINE
8
BLACK
6
CONTINUOUS
10
0.5223456299212599
20
0.2036842125984252
11
0.5206387401574804
21
0.2062387007874016
0
LINE
8
BLACK
6
CONTINUOUS
10
0.5206387401574804
20
0.2062387007874016
11
0.5200393700787401
21
0.209251968503937
0
LINE
8
BLACK
6
CONTINUOUS
10
0.5200393700787401
20
0.209251968503937
11
0.5200393700787401
21
0.240748031496063
0
LINE
8
BLACK
6
CONTINUOUS
10
0.5200393700787401
20
0.240748031496063
11
0.5206387401574804
21
0.2437612992125984
0
LINE
8
BLACK
6
CONTINUOUS
10
0.5206387401574804
20
0.2437612992125984
11
0.5223456299212599
21
0.2463157874015748
0
LINE
8
BLACK
6
CONTINUOUS
10
0.5223456299212599
20
0.2463157874015748
11
0.5249001181102362
21
0.2480226771653543
0
LINE
8
BLACK
6
CONTINUOUS
10
0.5249001181102362
20
0.2480226771653543
11
0.5279133858267716
21
0.2486220472440945
0
LINE
8
BLACK
6
CONTINUOUS
10
0.5279133858267716
20
0.2486220472440945
11
0.5633464566929134
21
0.2486220472440945
0
LINE
8
BLACK
6
CONTINUOUS
10
0.5633464566929134
20
0.2486220472440945
11
0.5663597244094488
21
0.2480226771653543
0
LINE
8
BLACK
6
CONTINUOUS
10
0.2223255118110236
20
0.2405688976377953
11
0.2264006692913386
21
0.2385766535433071
0
LINE
8
BLACK
6
CONTINUOUS
10
0.2264006692913386
20
0.2385766535433071
11
0.2296081496062992
21
0.2353691732283464
0
LINE
8
BLACK
6
CONTINUOUS
10
0.2296081496062992
20
0.2353691732283464
11
0.2316003937007874
21
0.2312940157480315
0
LINE
8
BLACK
6
CONTINUOUS
10
0.2316003937007874
20
0.2312940157480315
11
0.2321732283464567
21
0.2273622047244094
0
LINE
8
BLACK
6
CONTINUOUS
10
0.2321732283464567
20
0.2273622047244094
11
0.2321732283464567
21
0.2155511811023622
0
LINE
8
BLACK
6
CONTINUOUS
10
0.2321732283464567
20
0.2155511811023622
11
0.2316003937007874
21
0.2116193700787402
0
LINE
8
BLACK
6
CONTINUOUS
10
0.2316003937007874
20
0.2116193700787402
11
0.2296081496062992
21
0.2075442125984252
0
LINE
8
BLACK
6
CONTINUOUS
10
0.2296081496062992
20
0.2075442125984252
11
0.2264006692913386
21
0.2043367322834646
0
LINE
8
BLACK
6
CONTINUOUS
10
0.2264006692913386
20
0.2043367322834646
11
0.2223255118110236
21
0.2023444881889764
0
LINE
8
BLACK
6
CONTINUOUS
10
0.2223255118110236
20
0.2023444881889764
11
0.2183937007874016
21
0.2017716535433071
0
LINE
8
BLACK
6
CONTINUOUS
10
0.2183937007874016
20
0.2017716535433071
11
0.1632755905511811
21
0.2017716535433071
0
LINE
8
BLACK
6
CONTINUOUS
10
0.1632755905511811
20
0.2017716535433071
11
0.159343779527559
21
0.2023444881889764
0
LINE
8
BLACK
6
CONTINUOUS
10
0.159343779527559
20
0.2023444881889764
11
0.1552686220472441
21
0.2043367322834646
0
LINE
8
BLACK
6
CONTINUOUS
10
0.1552686220472441
20
0.2043367322834646
11
0.1520611417322835
21
0.2075442125984252
0
LINE
8
BLACK
6
CONTINUOUS
10
0.1520611417322835
20
0.2075442125984252
11
0.1500688976377953
21
0.2116193700787402
0
LINE
8
BLACK
6
CONTINUOUS
10
0.1500688976377953
20
0.2116193700787402
11
0.149496062992126
21
0.2155511811023622
0
LINE
8
BLACK
6
CONTINUOUS
10
0.149496062992126
20
0.2155511811023622
11
0.149496062992126
21
0.2273622047244094
0
LINE
8
BLACK
6
CONTINUOUS
10
0.149496062992126
20
0.2273622047244094
11
0.1500688976377953
21
0.2312940157480315
0
LINE
8
BLACK
6
CONTINUOUS
10
0.1500688976377953
20
0.2312940157480315
11
0.1520611417322835
21
0.2353691732283464
0
LINE
8
BLACK
6
CONTINUOUS
10
0.1520611417322835
20
0.2353691732283464
11
0.1552686220472441
21
0.2385766535433071
0
LINE
8
BLACK
6
CONTINUOUS
10
0.1552686220472441
20
0.2385766535433071
11
0.159343779527559
21
0.2405688976377953
0
LINE
8
BLACK
6
CONTINUOUS
10
0.159343779527559
20
0.2405688976377953
11
0.1632755905511811
21
0.2411417322834646
0
LINE
8
BLACK
6
CONTINUOUS
10
0.1632755905511811
20
0.2411417322834646
11
0.2183937007874016
21
0.2411417322834646
0
LINE
8
BLACK
6
CONTINUOUS
10
0.2183937007874016
20
0.2411417322834646
11
0.2223255118110236
21
0.2405688976377953
0
LINE
8
BLACK
6
CONTINUOUS
10
0.4801831102362205
20
0.2662994094488189
11
0.484778937007874
21
0.263957716535433
0
LINE
8
BLACK
6
CONTINUOUS
10
0.484778937007874
20
0.263957716535433
11
0.4884262204724409
21
0.2603104330708662
0
LINE
8
BLACK
6
CONTINUOUS
10
0.4884262204724409
20
0.2603104330708662
11
0.4907679133858268
21
0.2557146062992126
0
LINE
8
BLACK
6
CONTINUOUS
10
0.4907679133858268
20
0.2557146062992126
11
0.4915748031496063
21
0.2506200787401575
0
LINE
8
BLACK
6
CONTINUOUS
10
0.4915748031496063
20
0.2506200787401575
11
0.4915748031496063
21
0.2333956692913386
0
LINE
8
BLACK
6
CONTINUOUS
10
0.4915748031496063
20
0.2333956692913386
11
0.4907679133858268
21
0.2283011417322835
0
LINE
8
BLACK
6
CONTINUOUS
10
0.4907679133858268
20
0.2283011417322835
11
0.4884262204724409
21
0.2237053149606299
0
LINE
8
BLACK
6
CONTINUOUS
10
0.4884262204724409
20
0.2237053149606299
11
0.484778937007874
21
0.220058031496063
0
LINE
8
BLACK
6
CONTINUOUS
10
0.484778937007874
20
0.220058031496063
11
0.4801831102362205
21
0.2177163385826772
0
LINE
8
BLACK
6
CONTINUOUS
10
0.4801831102362205
20
0.2177163385826772
11
0.4750885826771654
21
0.2169094488188976
0
LINE
8
BLACK
6
CONTINUOUS
10
0.4750885826771654
20
0.2169094488188976
11
0.4549114173228346
21
0.2169094488188976
0
LINE
8
BLACK
6
CONTINUOUS
10
0.4549114173228346
20
0.2169094488188976
11
0.4498168897637795
21
0.2177163385826772
0
LINE
8
BLACK
6
CONTINUOUS
10
0.4498168897637795
20
0.2177163385826772
11
0.445221062992126
21
0.220058031496063
0
LINE
8
BLACK
6
CONTINUOUS
10
0.445221062992126
20
0.220058031496063
11
0.4415737795275591
21
0.2237053149606299
0
LINE
8
BLACK
6
CONTINUOUS
10
0.4415737795275591
20
0.2237053149606299
11
0.4392320866141732
21
0.2283011417322835
0
LINE
8
BLACK
6
CONTINUOUS
10
0.4392320866141732
20
0.2283011417322835
11
0.4384251968503937
21
0.2333956692913386
0
LINE
8
BLACK
6
CONTINUOUS
10
0.4384251968503937
20
0.2333956692913386
11
0.4384251968503937
21
0.2506200787401575
0
LINE
8
BLACK
6
CONTINUOUS
10
0.4384251968503937
20
0.2506200787401575
11
0.4392320866141732
21
0.2557146062992126
0
LINE
8
BLACK
6
CONTINUOUS
10
0.4392320866141732
20
0.2557146062992126
11
0.4415737795275591
21
0.2603104330708662
0
LINE
8
BLACK
6
CONTINUOUS
10
0.4415737795275591
20
0.2603104330708662
11
0.445221062992126
21
0.263957716535433
0
LINE
8
BLACK
6
CONTINUOUS
10
0.445221062992126
20
0.263957716535433
11
0.4498168897637795
21
0.2662994094488189
0
LINE
8
BLACK
6
CONTINUOUS
10
0.4498168897637795
20
0.2662994094488189
11
0.4549114173228346
21
0.2671062992125984
0
LINE
8
BLACK
6
CONTINUOUS
10
0.4549114173228346
20
0.2671062992125984
11
0.4750885826771654
21
0.2671062992125984
0
LINE
8
BLACK
6
CONTINUOUS
10
0.4750885826771654
20
0.2671062992125984
11
0.4801831102362205
21
0.2662994094488189
0
LINE
8
BLACK
6
CONTINUOUS
10
0.8631190157480315
20
0.2718311417322835
11
0.8690017716535433
21
0.2687436614173228
0
LINE
8
BLACK
6
CONTINUOUS
10
0.8690017716535433
20
0.2687436614173228
11
0.8739747244094488
21
0.264338031496063
0
LINE
8
BLACK
6
CONTINUOUS
10
0.8739747244094488
20
0.264338031496063
11
0.877748779527559
21
0.2588703149606299
0
LINE
8
BLACK
6
CONTINUOUS
10
0.877748779527559
20
0.2588703149606299
11
0.88010468503937
21
0.2526583070866142
0
LINE
8
BLACK
6
CONTINUOUS
10
0.88010468503937
20
0.2526583070866142
11
0.8809055118110236
21
0.2460629921259843
0
LINE
8
BLACK
6
CONTINUOUS
10
0.8809055118110236
20
0.2460629921259843
11
0.88010468503937
21
0.2394676771653543
0
LINE
8
BLACK
6
CONTINUOUS
10
0.88010468503937
20
0.2394676771653543
11
0.877748779527559
21
0.2332556692913386
0
LINE
8
BLACK
6
CONTINUOUS
10
0.877748779527559
20
0.2332556692913386
11
0.8739747244094488
21
0.2277879527559055
0
LINE
8
BLACK
6
CONTINUOUS
10
0.8739747244094488
20
0.2277879527559055
11
0.8690017716535433
21
0.2233823228346457
0
LINE
8
BLACK
6
CONTINUOUS
10
0.8690017716535433
20
0.2233823228346457
11
0.8631190157480315
21
0.220294842519685
0
LINE
8
BLACK
6
CONTINUOUS
10
0.8631190157480315
20
0.220294842519685
11
0.8566683464566929
21
0.2187048818897638
0
LINE
8
BLACK
6
CONTINUOUS
10
0.8566683464566929
20
0.2187048818897638
11
0.8500245669291339
21
0.2187048818897638
0
LINE
8
BLACK
6
CONTINUOUS
10
0.8500245669291339
20
0.2187048818897638
11
0.8435738976377952
21
0.220294842519685
0
LINE
8
BLACK
6
CONTINUOUS
10
0.8435738976377952
20
0.220294842519685
11
0.8376911417322834
21
0.2233823228346457
0
LINE
8
BLACK
6
CONTINUOUS
10
0.8376911417322834
20
0.2233823228346457
11
0.8327181889763779
21
0.2277879527559055
0
LINE
8
BLACK
6
CONTINUOUS
10
0.8327181889763779
20
0.2277879527559055
11
0.8289441338582677
21
0.2332556692913386
0
LINE
8
BLACK
6
CONTINUOUS
10
0.8289441338582677
20
0.2332556692913386
11
0.8265882283464566
21
0.2394676771653543
0
LINE
8
BLACK
6
CONTINUOUS
10
0.8265882283464566
20
0.2394676771653543
11
0.8257874015748031
21
0.2460629921259843
0
LINE
8
BLACK
6
CONTINUOUS
10
0.8257874015748031
20
0.2460629921259843
11
0.8265882283464566
21
0.2526583070866142
0
LINE
8
BLACK
6
CONTINUOUS
10
0.8265882283464566
20
0.2526583070866142
11
0.8289441338582677
21
0.2588703149606299
0
LINE
8
BLACK
6
CONTINUOUS
10
0.8289441338582677
20
0.2588703149606299
11
0.8327181889763779
21
0.264338031496063
0
LINE
8
BLACK
6
CONTINUOUS
10
0.8327181889763779
20
0.264338031496063
11
0.8376911417322834
21
0.2687436614173228
0
LINE
8
BLACK
6
CONTINUOUS
10
0.8376911417322834
20
0.2687436614173228
11
0.8435738976377952
21
0.2718311417322835
0
LINE
8
BLACK
6
CONTINUOUS
10
0.8435738976377952
20
0.2718311417322835
11
0.8500245669291339
21
0.2734211023622047
0
LINE
8
BLACK
6
CONTINUOUS
10
0.8500245669291339
20
0.2734211023622047
11
0.8566683464566929
21
0.2734211023622047
0
LINE
8
BLACK
6
CONTINUOUS
10
0.8566683464566929
20
0.2734211023622047
11
0.8631190157480315
21
0.2718311417322835
0
LINE
8
BLACK
6
CONTINUOUS
10
1.0683770472440945
20
0.3220548818897638
11
1.0711167716535432
21
0.31987
0
LINE
8
BLACK
6
CONTINUOUS
10
1.0711167716535432
20
0.31987
11
1.0726372440944882
21
0.3167127559055118
0
LINE
8
BLACK
6
CONTINUOUS
10
1.0726372440944882
20
0.3167127559055118
11
1.0728346456692912
21
0.3149606299212598
0
LINE
8
BLACK
6
CONTINUOUS
10
1.0728346456692912
20
0.3149606299212598
11
1.0728346456692912
21
0.2874015748031496
0
LINE
8
BLACK
6
CONTINUOUS
10
1.0728346456692912
20
0.2874015748031496
11
1.0720548818897637
21
0.2839851574803149
0
LINE
8
BLACK
6
CONTINUOUS
10
1.0720548818897637
20
0.2839851574803149
11
1.0705283858267716
21
0.2818338188976378
0
LINE
8
BLACK
6
CONTINUOUS
10
1.0705283858267716
20
0.2818338188976378
11
1.0587173622047243
21
0.2700227952755905
0
LINE
8
BLACK
6
CONTINUOUS
10
1.0587173622047243
20
0.2700227952755905
11
1.0557502362204725
21
0.2681583858267717
0
LINE
8
BLACK
6
CONTINUOUS
10
1.0557502362204725
20
0.2681583858267717
11
1.0531496062992125
21
0.2677165354330708
0
LINE
8
BLACK
6
CONTINUOUS
10
1.0531496062992125
20
0.2677165354330708
11
1.046259842519685
21
0.2677165354330708
0
LINE
8
BLACK
6
CONTINUOUS
10
1.046259842519685
20
0.2677165354330708
11
1.0492731102362205
21
0.2671171653543307
0
LINE
8
BLACK
6
CONTINUOUS
10
1.0492731102362205
20
0.2671171653543307
11
1.0511811023622046
21
0.2658422834645669
0
LINE
8
BLACK
6
CONTINUOUS
10
1.0511811023622046
20
0.2658422834645669
11
1.053089094488189
21
0.2671171653543307
0
LINE
8
BLACK
6
CONTINUOUS
10
1.053089094488189
20
0.2671171653543307
11
1.0561023622047243
21
0.2677165354330708
0
LINE
8
BLACK
6
CONTINUOUS
10
1.0561023622047243
20
0.2677165354330708
11
1.0659448818897637
21
0.2677165354330708
0
LINE
8
BLACK
6
CONTINUOUS
10
1.0659448818897637
20
0.2677165354330708
11
1.0689581496062992
21
0.2671171653543307
0
LINE
8
BLACK
6
CONTINUOUS
10
1.0689581496062992
20
0.2671171653543307
11
1.0715126377952755
21
0.2654102755905512
0
LINE
8
BLACK
6
CONTINUOUS
10
1.0715126377952755
20
0.2654102755905512
11
1.073219527559055
21
0.2628557874015748
0
LINE
8
BLACK
6
CONTINUOUS
10
1.073219527559055
20
0.2628557874015748
11
1.0738188976377951
21
0.2598425196850394
0
LINE
8
BLACK
6
CONTINUOUS
10
1.0738188976377951
20
0.2598425196850394
11
1.0738188976377951
21
0.2381889763779527
0
LINE
8
BLACK
6
CONTINUOUS
10
1.0738188976377951
20
0.2381889763779527
11
1.073219527559055
21
0.2351757086614173
0
LINE
8
BLACK
6
CONTINUOUS
10
1.073219527559055
20
0.2351757086614173
11
1.0715126377952755
21
0.2326212204724409
0
LINE
8
BLACK
6
CONTINUOUS
10
1.0715126377952755
20
0.2326212204724409
11
1.0689581496062992
21
0.2309143307086614
0
LINE
8
BLACK
6
CONTINUOUS
10
1.0689581496062992
20
0.2309143307086614
11
1.0659448818897637
21
0.2303149606299213
0
LINE
8
BLACK
6
CONTINUOUS
10
1.0659448818897637
20
0.2303149606299213
11
1.0561023622047243
21
0.2303149606299213
0
LINE
8
BLACK
6
CONTINUOUS
10
1.0561023622047243
20
0.2303149606299213
11
1.053089094488189
21
0.2309143307086614
0
LINE
8
BLACK
6
CONTINUOUS
10
1.053089094488189
20
0.2309143307086614
11
1.0511811023622046
21
0.2321892519685039
0
LINE
8
BLACK
6
CONTINUOUS
10
1.0511811023622046
20
0.2321892519685039
11
1.0492731102362205
21
0.2309143307086614
0
LINE
8
BLACK
6
CONTINUOUS
10
1.0492731102362205
20
0.2309143307086614
11
1.046259842519685
21
0.2303149606299213
0
LINE
8
BLACK
6
CONTINUOUS
10
1.046259842519685
20
0.2303149606299213
11
1.0364173228346456
21
0.2303149606299213
0
LINE
8
BLACK
6
CONTINUOUS
10
1.0364173228346456
20
0.2303149606299213
11
1.0334040551181103
21
0.2309143307086614
0
LINE
8
BLACK
6
CONTINUOUS
10
1.0334040551181103
20
0.2309143307086614
11
1.0314960629921259
21
0.2321892519685039
0
LINE
8
BLACK
6
CONTINUOUS
10
1.0314960629921259
20
0.2321892519685039
11
1.0295880708661418
21
0.2309143307086614
0
LINE
8
BLACK
6
CONTINUOUS
10
1.0295880708661418
20
0.2309143307086614
11
1.0265748031496063
21
0.2303149606299213
0
LINE
8
BLACK
6
CONTINUOUS
10
1.0265748031496063
20
0.2303149606299213
11
1.0167322834645669
21
0.2303149606299213
0
LINE
8
BLACK
6
CONTINUOUS
10
1.0167322834645669
20
0.2303149606299213
11
1.0137190157480316
21
0.2309143307086614
0
LINE
8
BLACK
6
CONTINUOUS
10
1.0137190157480316
20
0.2309143307086614
11
1.0118110236220472
21
0.2321892519685039
0
LINE
8
BLACK
6
CONTINUOUS
10
1.0118110236220472
20
0.2321892519685039
11
1.0099030314960629
21
0.2309143307086614
0
LINE
8
BLACK
6
CONTINUOUS
10
1.0099030314960629
20
0.2309143307086614
11
1.0068897637795275
21
0.2303149606299213
0
LINE
8
BLACK
6
CONTINUOUS
10
1.0068897637795275
20
0.2303149606299213
11
0.9970472440944882
21
0.2303149606299213
0
LINE
8
BLACK
6
CONTINUOUS
10
0.9970472440944882
20
0.2303149606299213
11
0.9940339763779528
21
0.2309143307086614
0
LINE
8
BLACK
6
CONTINUOUS
10
0.9940339763779528
20
0.2309143307086614
11
0.9914794881889764
21
0.2326212204724409
0
LINE
8
BLACK
6
CONTINUOUS
10
0.9914794881889764
20
0.2326212204724409
11
0.9897725984251968
21
0.2351757086614173
0
LINE
8
BLACK
6
CONTINUOUS
10
0.9897725984251968
20
0.2351757086614173
11
0.9891732283464567
21
0.2381889763779527
0
LINE
8
BLACK
6
CONTINUOUS
10
0.9891732283464567
20
0.2381889763779527
11
0.9891732283464567
21
0.2598425196850394
0
LINE
8
BLACK
6
CONTINUOUS
10
0.9891732283464567
20
0.2598425196850394
11
0.9897725984251968
21
0.2628557874015748
0
LINE
8
BLACK
6
CONTINUOUS
10
0.9897725984251968
20
0.2628557874015748
11
0.9914794881889764
21
0.2654102755905512
0
LINE
8
BLACK
6
CONTINUOUS
10
0.9914794881889764
20
0.2654102755905512
11
0.9940339763779528
21
0.2671171653543307
0
LINE
8
BLACK
6
CONTINUOUS
10
0.9940339763779528
20
0.2671171653543307
11
0.9970472440944882
21
0.2677165354330708
0
LINE
8
BLACK
6
CONTINUOUS
10
0.9970472440944882
20
0.2677165354330708
11
0.9980314960629921
21
0.2677165354330708
0
LINE
8
BLACK
6
CONTINUOUS
10
0.9980314960629921
20
0.2677165354330708
11
0.9946150787401574
21
0.2684962992125984
0
LINE
8
BLACK
6
CONTINUOUS
10
0.9946150787401574
20
0.2684962992125984
11
0.9918753543307086
21
0.2706811811023622
0
LINE
8
BLACK
6
CONTINUOUS
10
0.9918753543307086
20
0.2706811811023622
11
0.9903548818897637
21
0.2738384251968504
0
LINE
8
BLACK
6
CONTINUOUS
10
0.9903548818897637
20
0.2738384251968504
11
0.9901574803149606
21
0.2755905511811024
0
LINE
8
BLACK
6
CONTINUOUS
10
0.9901574803149606
20
0.2755905511811024
11
0.9901574803149606
21
0.3149606299212598
0
LINE
8
BLACK
6
CONTINUOUS
10
0.9901574803149606
20
0.3149606299212598
11
0.9909372440944881
21
0.3183770472440945
0
LINE
8
BLACK
6
CONTINUOUS
10
0.9909372440944881
20
0.3183770472440945
11
0.993122125984252
21
0.3211167716535433
0
LINE
8
BLACK
6
CONTINUOUS
10
0.993122125984252
20
0.3211167716535433
11
0.9962793700787401
21
0.3226372440944882
0
LINE
8
BLACK
6
CONTINUOUS
10
0.9962793700787401
20
0.3226372440944882
11
0.9980314960629921
21
0.3228346456692913
0
LINE
8
BLACK
6
CONTINUOUS
10
0.9980314960629921
20
0.3228346456692913
11
0.9970472440944882
21
0.3228346456692913
0
LINE
8
BLACK
6
CONTINUOUS
10
0.9970472440944882
20
0.3228346456692913
11
0.9940339763779528
21
0.3234340157480315
0
LINE
8
BLACK
6
CONTINUOUS
10
0.9940339763779528
20
0.3234340157480315
11
0.9914794881889764
21
0.325140905511811
0
LINE
8
BLACK
6
CONTINUOUS
10
0.9914794881889764
20
0.325140905511811
11
0.9897725984251968
21
0.3276953937007874
0
LINE
8
BLACK
6
CONTINUOUS
10
0.9897725984251968
20
0.3276953937007874
11
0.9891732283464567
21
0.3307086614173228
0
LINE
8
BLACK
6
CONTINUOUS
10
0.9891732283464567
20
0.3307086614173228
11
0.9891732283464567
21
0.3523622047244094
0
LINE
8
BLACK
6
CONTINUOUS
10
0.9891732283464567
20
0.3523622047244094
11
0.9897725984251968
21
0.3553754724409449
0
LINE
8
BLACK
6
CONTINUOUS
10
0.9897725984251968
20
0.3553754724409449
11
0.9914794881889764
21
0.3579299606299213
0
LINE
8
BLACK
6
CONTINUOUS
10
0.9914794881889764
20
0.3579299606299213
11
0.9940339763779528
21
0.3596368503937008
0
LINE
8
BLACK
6
CONTINUOUS
10
0.9940339763779528
20
0.3596368503937008
11
0.9970472440944882
21
0.3602362204724409
0
LINE
8
BLACK
6
CONTINUOUS
10
0.9970472440944882
20
0.3602362204724409
11
1.0068897637795275
21
0.3602362204724409
0
LINE
8
BLACK
6
CONTINUOUS
10
1.0068897637795275
20
0.3602362204724409
11
1.0099030314960629
21
0.3596368503937008
0
LINE
8
BLACK
6
CONTINUOUS
10
1.0099030314960629
20
0.3596368503937008
11
1.0118110236220472
21
0.358361968503937
0
LINE
8
BLACK
6
CONTINUOUS
10
1.0118110236220472
20
0.358361968503937
11
1.0137190157480316
21
0.3596368503937008
0
LINE
8
BLACK
6
CONTINUOUS
10
1.0137190157480316
20
0.3596368503937008
11
1.0167322834645669
21
0.3602362204724409
0
LINE
8
BLACK
6
CONTINUOUS
10
1.0167322834645669
20
0.3602362204724409
11
1.0265748031496063
21
0.3602362204724409
0
LINE
8
BLACK
6
CONTINUOUS
10
1.0265748031496063
20
0.3602362204724409
11
1.0295880708661418
21
0.3596368503937008
0
LINE
8
BLACK
6
CONTINUOUS
10
1.0295880708661418
20
0.3596368503937008
11
1.0314960629921259
21
0.358361968503937
0
LINE
8
BLACK
6
CONTINUOUS
10
1.0314960629921259
20
0.358361968503937
11
1.0334040551181103
21
0.3596368503937008
0
LINE
8
BLACK
6
CONTINUOUS
10
1.0334040551181103
20
0.3596368503937008
11
1.0364173228346456
21
0.3602362204724409
0
LINE
8
BLACK
6
CONTINUOUS
10
1.0364173228346456
20
0.3602362204724409
11
1.046259842519685
21
0.3602362204724409
0
LINE
8
BLACK
6
CONTINUOUS
10
1.046259842519685
20
0.3602362204724409
11
1.0492731102362205
21
0.3596368503937008
0
LINE
8
BLACK
6
CONTINUOUS
10
1.0492731102362205
20
0.3596368503937008
11
1.0511811023622046
21
0.358361968503937
0
LINE
8
BLACK
6
CONTINUOUS
10
1.0511811023622046
20
0.358361968503937
11
1.053089094488189
21
0.3596368503937008
0
LINE
8
BLACK
6
CONTINUOUS
10
1.053089094488189
20
0.3596368503937008
11
1.0561023622047243
21
0.3602362204724409
0
LINE
8
BLACK
6
CONTINUOUS
10
1.0561023622047243
20
0.3602362204724409
11
1.0659448818897637
21
0.3602362204724409
0
LINE
8
BLACK
6
CONTINUOUS
10
1.0659448818897637
20
0.3602362204724409
11
1.0689581496062992
21
0.3596368503937008
0
LINE
8
BLACK
6
CONTINUOUS
10
1.0689581496062992
20
0.3596368503937008
11
1.0715126377952755
21
0.3579299606299213
0
LINE
8
BLACK
6
CONTINUOUS
10
1.0715126377952755
20
0.3579299606299213
11
1.073219527559055
21
0.3553754724409449
0
LINE
8
BLACK
6
CONTINUOUS
10
1.073219527559055
20
0.3553754724409449
11
1.0738188976377951
21
0.3523622047244094
0
LINE
8
BLACK
6
CONTINUOUS
10
1.0738188976377951
20
0.3523622047244094
11
1.0738188976377951
21
0.3307086614173228
0
LINE
8
BLACK
6
CONTINUOUS
10
1.0738188976377951
20
0.3307086614173228
11
1.073219527559055
21
0.3276953937007874
0
LINE
8
BLACK
6
CONTINUOUS
10
1.073219527559055
20
0.3276953937007874
11
1.0715126377952755
21
0.325140905511811
0
LINE
8
BLACK
6
CONTINUOUS
10
1.0715126377952755
20
0.325140905511811
11
1.0689581496062992
21
0.3234340157480315
0
LINE
8
BLACK
6
CONTINUOUS
10
1.0689581496062992
20
0.3234340157480315
11
1.0659448818897637
21
0.3228346456692913
0
LINE
8
BLACK
6
CONTINUOUS
10
1.0659448818897637
20
0.3228346456692913
11
1.0649606299212597
21
0.3228346456692913
0
LINE
8
BLACK
6
CONTINUOUS
10
1.0649606299212597
20
0.3228346456692913
11
1.0683770472440945
21
0.3220548818897638
0
LINE
8
BLACK
6
CONTINUOUS
10
1.0099030314960629
20
0.2671171653543307
11
1.0118110236220472
21
0.2658422834645669
0
LINE
8
BLACK
6
CONTINUOUS
10
1.0118110236220472
20
0.2658422834645669
11
1.0137190157480316
21
0.2671171653543307
0
LINE
8
BLACK
6
CONTINUOUS
10
1.0137190157480316
20
0.2671171653543307
11
1.0167322834645669
21
0.2677165354330708
0
LINE
8
BLACK
6
CONTINUOUS
10
1.0167322834645669
20
0.2677165354330708
11
1.0068897637795275
21
0.2677165354330708
0
LINE
8
BLACK
6
CONTINUOUS
10
1.0068897637795275
20
0.2677165354330708
11
1.0099030314960629
21
0.2671171653543307
0
LINE
8
BLACK
6
CONTINUOUS
10
1.0295880708661418
20
0.2671171653543307
11
1.0314960629921259
21
0.2658422834645669
0
LINE
8
BLACK
6
CONTINUOUS
10
1.0314960629921259
20
0.2658422834645669
11
1.0334040551181103
21
0.2671171653543307
0
LINE
8
BLACK
6
CONTINUOUS
10
1.0334040551181103
20
0.2671171653543307
11
1.0364173228346456
21
0.2677165354330708
0
LINE
8
BLACK
6
CONTINUOUS
10
1.0364173228346456
20
0.2677165354330708
11
1.0265748031496063
21
0.2677165354330708
0
LINE
8
BLACK
6
CONTINUOUS
10
1.0265748031496063
20
0.2677165354330708
11
1.0295880708661418
21
0.2671171653543307
0
LINE
8
BLACK
6
CONTINUOUS
10
1.0167322834645669
20
0.3228346456692913
11
1.0137190157480316
21
0.3234340157480315
0
LINE
8
BLACK
6
CONTINUOUS
10
1.0137190157480316
20
0.3234340157480315
11
1.0118110236220472
21
0.324708937007874
0
LINE
8
BLACK
6
CONTINUOUS
10
1.0118110236220472
20
0.324708937007874
11
1.0099030314960629
21
0.3234340157480315
0
LINE
8
BLACK
6
CONTINUOUS
10
1.0099030314960629
20
0.3234340157480315
11
1.0068897637795275
21
0.3228346456692913
0
LINE
8
BLACK
6
CONTINUOUS
10
1.0068897637795275
20
0.3228346456692913
11
1.0167322834645669
21
0.3228346456692913
0
LINE
8
BLACK
6
CONTINUOUS
10
1.0364173228346456
20
0.3228346456692913
11
1.0334040551181103
21
0.3234340157480315
0
LINE
8
BLACK
6
CONTINUOUS
10
1.0334040551181103
20
0.3234340157480315
11
1.0314960629921259
21
0.324708937007874
0
LINE
8
BLACK
6
CONTINUOUS
10
1.0314960629921259
20
0.324708937007874
11
1.0295880708661418
21
0.3234340157480315
0
LINE
8
BLACK
6
CONTINUOUS
10
1.0295880708661418
20
0.3234340157480315
11
1.0265748031496063
21
0.3228346456692913
0
LINE
8
BLACK
6
CONTINUOUS
10
1.0265748031496063
20
0.3228346456692913
11
1.0364173228346456
21
0.3228346456692913
0
LINE
8
BLACK
6
CONTINUOUS
10
1.0561023622047243
20
0.3228346456692913
11
1.053089094488189
21
0.3234340157480315
0
LINE
8
BLACK
6
CONTINUOUS
10
1.053089094488189
20
0.3234340157480315
11
1.0511811023622046
21
0.324708937007874
0
LINE
8
BLACK
6
CONTINUOUS
10
1.0511811023622046
20
0.324708937007874
11
1.0492731102362205
21
0.3234340157480315
0
LINE
8
BLACK
6
CONTINUOUS
10
1.0492731102362205
20
0.3234340157480315
11
1.046259842519685
21
0.3228346456692913
0
LINE
8
BLACK
6
CONTINUOUS
10
1.046259842519685
20
0.3228346456692913
11
1.0561023622047243
21
0.3228346456692913
0
LINE
8
BLACK
6
CONTINUOUS
10
0.6450998818897637
20
0.2854242519685039
11
0.6476543700787402
21
0.2837173622047244
0
LINE
8
BLACK
6
CONTINUOUS
10
0.6476543700787402
20
0.2837173622047244
11
0.6493612598425197
21
0.281162874015748
0
LINE
8
BLACK
6
CONTINUOUS
10
0.6493612598425197
20
0.281162874015748
11
0.6499606299212598
21
0.2781496062992126
0
LINE
8
BLACK
6
CONTINUOUS
10
0.6499606299212598
20
0.2781496062992126
11
0.6499606299212598
21
0.2466535433070866
0
LINE
8
BLACK
6
CONTINUOUS
10
0.6499606299212598
20
0.2466535433070866
11
0.6493612598425197
21
0.2436402755905512
0
LINE
8
BLACK
6
CONTINUOUS
10
0.6493612598425197
20
0.2436402755905512
11
0.6476543700787402
21
0.2410857874015748
0
LINE
8
BLACK
6
CONTINUOUS
10
0.6476543700787402
20
0.2410857874015748
11
0.6450998818897637
21
0.2393788976377953
0
LINE
8
BLACK
6
CONTINUOUS
10
0.6450998818897637
20
0.2393788976377953
11
0.6420866141732283
21
0.2387795275590551
0
LINE
8
BLACK
6
CONTINUOUS
10
0.6420866141732283
20
0.2387795275590551
11
0.6066535433070867
21
0.2387795275590551
0
LINE
8
BLACK
6
CONTINUOUS
10
0.6066535433070867
20
0.2387795275590551
11
0.6036402755905511
21
0.2393788976377953
0
LINE
8
BLACK
6
CONTINUOUS
10
0.6036402755905511
20
0.2393788976377953
11
0.6010857874015748
21
0.2410857874015748
0
LINE
8
BLACK
6
CONTINUOUS
10
0.6010857874015748
20
0.2410857874015748
11
0.5993788976377953
21
0.2436402755905512
0
LINE
8
BLACK
6
CONTINUOUS
10
0.5993788976377953
20
0.2436402755905512
11
0.5987795275590551
21
0.2466535433070866
0
LINE
8
BLACK
6
CONTINUOUS
10
0.5987795275590551
20
0.2466535433070866
11
0.5987795275590551
21
0.2781496062992126
0
LINE
8
BLACK
6
CONTINUOUS
10
0.5987795275590551
20
0.2781496062992126
11
0.5993788976377953
21
0.281162874015748
0
LINE
8
BLACK
6
CONTINUOUS
10
0.5993788976377953
20
0.281162874015748
11
0.6010857874015748
21
0.2837173622047244
0
LINE
8
BLACK
6
CONTINUOUS
10
0.6010857874015748
20
0.2837173622047244
11
0.6036402755905511
21
0.2854242519685039
0
LINE
8
BLACK
6
CONTINUOUS
10
0.6036402755905511
20
0.2854242519685039
11
0.6066535433070867
21
0.2860236220472441
0
LINE
8
BLACK
6
CONTINUOUS
10
0.6066535433070867
20
0.2860236220472441
11
0.6420866141732283
21
0.2860236220472441
0
LINE
8
BLACK
6
CONTINUOUS
10
0.6420866141732283
20
0.2860236220472441
11
0.6450998818897637
21
0.2854242519685039
0
LINE
8
BLACK
6
CONTINUOUS
10
0.2223255118110236
20
0.2897814960629921
11
0.2264006692913386
21
0.2877892519685039
0
LINE
8
BLACK
6
CONTINUOUS
10
0.2264006692913386
20
0.2877892519685039
11
0.2296081496062992
21
0.2845817716535433
0
LINE
8
BLACK
6
CONTINUOUS
10
0.2296081496062992
20
0.2845817716535433
11
0.2316003937007874
21
0.2805066141732284
0
LINE
8
BLACK
6
CONTINUOUS
10
0.2316003937007874
20
0.2805066141732284
11
0.2321732283464567
21
0.2765748031496063
0
LINE
8
BLACK
6
CONTINUOUS
10
0.2321732283464567
20
0.2765748031496063
11
0.2321732283464567
21
0.264763779527559
0
LINE
8
BLACK
6
CONTINUOUS
10
0.2321732283464567
20
0.264763779527559
11
0.2316003937007874
21
0.260831968503937
0
LINE
8
BLACK
6
CONTINUOUS
10
0.2316003937007874
20
0.260831968503937
11
0.2296081496062992
21
0.256756811023622
0
LINE
8
BLACK
6
CONTINUOUS
10
0.2296081496062992
20
0.256756811023622
11
0.2264006692913386
21
0.2535493307086614
0
LINE
8
BLACK
6
CONTINUOUS
10
0.2264006692913386
20
0.2535493307086614
11
0.2223255118110236
21
0.2515570866141732
0
LINE
8
BLACK
6
CONTINUOUS
10
0.2223255118110236
20
0.2515570866141732
11
0.2183937007874016
21
0.2509842519685039
0
LINE
8
BLACK
6
CONTINUOUS
10
0.2183937007874016
20
0.2509842519685039
11
0.1632755905511811
21
0.2509842519685039
0
LINE
8
BLACK
6
CONTINUOUS
10
0.1632755905511811
20
0.2509842519685039
11
0.159343779527559
21
0.2515570866141732
0
LINE
8
BLACK
6
CONTINUOUS
10
0.159343779527559
20
0.2515570866141732
11
0.1552686220472441
21
0.2535493307086614
0
LINE
8
BLACK
6
CONTINUOUS
10
0.1552686220472441
20
0.2535493307086614
11
0.1520611417322835
21
0.256756811023622
0
LINE
8
BLACK
6
CONTINUOUS
10
0.1520611417322835
20
0.256756811023622
11
0.1500688976377953
21
0.260831968503937
0
LINE
8
BLACK
6
CONTINUOUS
10
0.1500688976377953
20
0.260831968503937
11
0.149496062992126
21
0.264763779527559
0
LINE
8
BLACK
6
CONTINUOUS
10
0.149496062992126
20
0.264763779527559
11
0.149496062992126
21
0.2765748031496063
0
LINE
8
BLACK
6
CONTINUOUS
10
0.149496062992126
20
0.2765748031496063
11
0.1500688976377953
21
0.2805066141732284
0
LINE
8
BLACK
6
CONTINUOUS
10
0.1500688976377953
20
0.2805066141732284
11
0.1520611417322835
21
0.2845817716535433
0
LINE
8
BLACK
6
CONTINUOUS
10
0.1520611417322835
20
0.2845817716535433
11
0.1552686220472441
21
0.2877892519685039
0
LINE
8
BLACK
6
CONTINUOUS
10
0.1552686220472441
20
0.2877892519685039
11
0.159343779527559
21
0.2897814960629921
0
LINE
8
BLACK
6
CONTINUOUS
10
0.159343779527559
20
0.2897814960629921
11
0.1632755905511811
21
0.2903543307086614
0
LINE
8
BLACK
6
CONTINUOUS
10
0.1632755905511811
20
0.2903543307086614
11
0.2183937007874016
21
0.2903543307086614
0
LINE
8
BLACK
6
CONTINUOUS
10
0.2183937007874016
20
0.2903543307086614
11
0.2223255118110236
21
0.2897814960629921
0
LINE
8
BLACK
6
CONTINUOUS
10
0.333406968503937
20
0.311447874015748
11
0.3359614566929134
21
0.3097409842519685
0
LINE
8
BLACK
6
CONTINUOUS
10
0.3359614566929134
20
0.3097409842519685
11
0.3376683464566929
21
0.3071864960629921
0
LINE
8
BLACK
6
CONTINUOUS
10
0.3376683464566929
20
0.3071864960629921
11
0.3382677165354331
21
0.3041732283464567
0
LINE
8
BLACK
6
CONTINUOUS
10
0.3382677165354331
20
0.3041732283464567
11
0.3382677165354331
21
0.2624409448818897
0
LINE
8
BLACK
6
CONTINUOUS
10
0.3382677165354331
20
0.2624409448818897
11
0.3376683464566929
21
0.2594276771653543
0
LINE
8
BLACK
6
CONTINUOUS
10
0.3376683464566929
20
0.2594276771653543
11
0.3359614566929134
21
0.256873188976378
0
LINE
8
BLACK
6
CONTINUOUS
10
0.3359614566929134
20
0.256873188976378
11
0.333406968503937
21
0.2551662992125984
0
LINE
8
BLACK
6
CONTINUOUS
10
0.333406968503937
20
0.2551662992125984
11
0.3303937007874015
21
0.2545669291338583
0
LINE
8
BLACK
6
CONTINUOUS
10
0.3303937007874015
20
0.2545669291338583
11
0.3048031496062992
21
0.2545669291338583
0
LINE
8
BLACK
6
CONTINUOUS
10
0.3048031496062992
20
0.2545669291338583
11
0.3017898818897638
21
0.2551662992125984
0
LINE
8
BLACK
6
CONTINUOUS
10
0.3017898818897638
20
0.2551662992125984
11
0.2992353937007874
21
0.256873188976378
0
LINE
8
BLACK
6
CONTINUOUS
10
0.2992353937007874
20
0.256873188976378
11
0.2975285039370079
21
0.2594276771653543
0
LINE
8
BLACK
6
CONTINUOUS
10
0.2975285039370079
20
0.2594276771653543
11
0.2969291338582677
21
0.2624409448818897
0
LINE
8
BLACK
6
CONTINUOUS
10
0.2969291338582677
20
0.2624409448818897
11
0.2969291338582677
21
0.3041732283464567
0
LINE
8
BLACK
6
CONTINUOUS
10
0.2969291338582677
20
0.3041732283464567
11
0.2975285039370079
21
0.3071864960629921
0
LINE
8
BLACK
6
CONTINUOUS
10
0.2975285039370079
20
0.3071864960629921
11
0.2992353937007874
21
0.3097409842519685
0
LINE
8
BLACK
6
CONTINUOUS
10
0.2992353937007874
20
0.3097409842519685
11
0.3017898818897638
21
0.311447874015748
0
LINE
8
BLACK
6
CONTINUOUS
10
0.3017898818897638
20
0.311447874015748
11
0.3048031496062992
21
0.3120472440944882
0
LINE
8
BLACK
6
CONTINUOUS
10
0.3048031496062992
20
0.3120472440944882
11
0.3303937007874015
21
0.3120472440944882
0
LINE
8
BLACK
6
CONTINUOUS
10
0.3303937007874015
20
0.3120472440944882
11
0.333406968503937
21
0.311447874015748
0
LINE
8
BLACK
6
CONTINUOUS
10
0.4082101181102362
20
0.311447874015748
11
0.4107646062992126
21
0.3097409842519685
0
LINE
8
BLACK
6
CONTINUOUS
10
0.4107646062992126
20
0.3097409842519685
11
0.4124714960629921
21
0.3071864960629921
0
LINE
8
BLACK
6
CONTINUOUS
10
0.4124714960629921
20
0.3071864960629921
11
0.4130708661417323
21
0.3041732283464567
0
LINE
8
BLACK
6
CONTINUOUS
10
0.4130708661417323
20
0.3041732283464567
11
0.4130708661417323
21
0.2624409448818897
0
LINE
8
BLACK
6
CONTINUOUS
10
0.4130708661417323
20
0.2624409448818897
11
0.4124714960629921
21
0.2594276771653543
0
LINE
8
BLACK
6
CONTINUOUS
10
0.4124714960629921
20
0.2594276771653543
11
0.4107646062992126
21
0.256873188976378
0
LINE
8
BLACK
6
CONTINUOUS
10
0.4107646062992126
20
0.256873188976378
11
0.4082101181102362
21
0.2551662992125984
0
LINE
8
BLACK
6
CONTINUOUS
10
0.4082101181102362
20
0.2551662992125984
11
0.4051968503937008
21
0.2545669291338583
0
LINE
8
BLACK
6
CONTINUOUS
10
0.4051968503937008
20
0.2545669291338583
11
0.3796062992125984
21
0.2545669291338583
0
LINE
8
BLACK
6
CONTINUOUS
10
0.3796062992125984
20
0.2545669291338583
11
0.376593031496063
21
0.2551662992125984
0
LINE
8
BLACK
6
CONTINUOUS
10
0.376593031496063
20
0.2551662992125984
11
0.3740385433070866
21
0.256873188976378
0
LINE
8
BLACK
6
CONTINUOUS
10
0.3740385433070866
20
0.256873188976378
11
0.3723316535433071
21
0.2594276771653543
0
LINE
8
BLACK
6
CONTINUOUS
10
0.3723316535433071
20
0.2594276771653543
11
0.3717322834645669
21
0.2624409448818897
0
LINE
8
BLACK
6
CONTINUOUS
10
0.3717322834645669
20
0.2624409448818897
11
0.3717322834645669
21
0.3041732283464567
0
LINE
8
BLACK
6
CONTINUOUS
10
0.3717322834645669
20
0.3041732283464567
11
0.3723316535433071
21
0.3071864960629921
0
LINE
8
BLACK
6
CONTINUOUS
10
0.3723316535433071
20
0.3071864960629921
11
0.3740385433070866
21
0.3097409842519685
0
LINE
8
BLACK
6
CONTINUOUS
10
0.3740385433070866
20
0.3097409842519685
11
0.376593031496063
21
0.311447874015748
0
LINE
8
BLACK
6
CONTINUOUS
10
0.376593031496063
20
0.311447874015748
11
0.3796062992125984
21
0.3120472440944882
0
LINE
8
BLACK
6
CONTINUOUS
10
0.3796062992125984
20
0.3120472440944882
11
0.4051968503937008
21
0.3120472440944882
0
LINE
8
BLACK
6
CONTINUOUS
10
0.4051968503937008
20
0.3120472440944882
11
0.4082101181102362
21
0.311447874015748
0
LINE
8
BLACK
6
CONTINUOUS
10
0.2223255118110236
20
0.338994094488189
11
0.2264006692913386
21
0.3370018503937008
0
LINE
8
BLACK
6
CONTINUOUS
10
0.2264006692913386
20
0.3370018503937008
11
0.2296081496062992
21
0.3337943700787401
0
LINE
8
BLACK
6
CONTINUOUS
10
0.2296081496062992
20
0.3337943700787401
11
0.2316003937007874
21
0.3297192125984252
0
LINE
8
BLACK
6
CONTINUOUS
10
0.2316003937007874
20
0.3297192125984252
11
0.2321732283464567
21
0.3257874015748031
0
LINE
8
BLACK
6
CONTINUOUS
10
0.2321732283464567
20
0.3257874015748031
11
0.2321732283464567
21
0.3139763779527559
0
LINE
8
BLACK
6
CONTINUOUS
10
0.2321732283464567
20
0.3139763779527559
11
0.2316003937007874
21
0.3100445669291338
0
LINE
8
BLACK
6
CONTINUOUS
10
0.2316003937007874
20
0.3100445669291338
11
0.2296081496062992
21
0.3059694094488189
0
LINE
8
BLACK
6
CONTINUOUS
10
0.2296081496062992
20
0.3059694094488189
11
0.2264006692913386
21
0.3027619291338582
0
LINE
8
BLACK
6
CONTINUOUS
10
0.2264006692913386
20
0.3027619291338582
11
0.2223255118110236
21
0.3007696850393701
0
LINE
8
BLACK
6
CONTINUOUS
10
0.2223255118110236
20
0.3007696850393701
11
0.2183937007874016
21
0.3001968503937008
0
LINE
8
BLACK
6
CONTINUOUS
10
0.2183937007874016
20
0.3001968503937008
11
0.1632755905511811
21
0.3001968503937008
0
LINE
8
BLACK
6
CONTINUOUS
10
0.1632755905511811
20
0.3001968503937008
11
0.159343779527559
21
0.3007696850393701
0
LINE
8
BLACK
6
CONTINUOUS
10
0.159343779527559
20
0.3007696850393701
11
0.1552686220472441
21
0.3027619291338582
0
LINE
8
BLACK
6
CONTINUOUS
10
0.1552686220472441
20
0.3027619291338582
11
0.1520611417322835
21
0.3059694094488189
0
LINE
8
BLACK
6
CONTINUOUS
10
0.1520611417322835
20
0.3059694094488189
11
0.1500688976377953
21
0.3100445669291338
0
LINE
8
BLACK
6
CONTINUOUS
10
0.1500688976377953
20
0.3100445669291338
11
0.149496062992126
21
0.3139763779527559
0
LINE
8
BLACK
6
CONTINUOUS
10
0.149496062992126
20
0.3139763779527559
11
0.149496062992126
21
0.3257874015748031
0
LINE
8
BLACK
6
CONTINUOUS
10
0.149496062992126
20
0.3257874015748031
11
0.1500688976377953
21
0.3297192125984252
0
LINE
8
BLACK
6
CONTINUOUS
10
0.1500688976377953
20
0.3297192125984252
11
0.1520611417322835
21
0.3337943700787401
0
LINE
8
BLACK
6
CONTINUOUS
10
0.1520611417322835
20
0.3337943700787401
11
0.1552686220472441
21
0.3370018503937008
0
LINE
8
BLACK
6
CONTINUOUS
10
0.1552686220472441
20
0.3370018503937008
11
0.159343779527559
21
0.338994094488189
0
LINE
8
BLACK
6
CONTINUOUS
10
0.159343779527559
20
0.338994094488189
11
0.1632755905511811
21
0.3395669291338583
0
LINE
8
BLACK
6
CONTINUOUS
10
0.1632755905511811
20
0.3395669291338583
11
0.2183937007874016
21
0.3395669291338583
0
LINE
8
BLACK
6
CONTINUOUS
10
0.2183937007874016
20
0.3395669291338583
11
0.2223255118110236
21
0.338994094488189
0
LINE
8
BLACK
6
CONTINUOUS
10
0.8631190157480315
20
0.3702563385826771
11
0.8690017716535433
21
0.3671688582677165
0
LINE
8
BLACK
6
CONTINUOUS
10
0.8690017716535433
20
0.3671688582677165
11
0.8739747244094488
21
0.3627632283464567
0
LINE
8
BLACK
6
CONTINUOUS
10
0.8739747244094488
20
0.3627632283464567
11
0.877748779527559
21
0.3572955118110236
0
LINE
8
BLACK
6
CONTINUOUS
10
0.877748779527559
20
0.3572955118110236
11
0.88010468503937
21
0.3510835039370079
0
LINE
8
BLACK
6
CONTINUOUS
10
0.88010468503937
20
0.3510835039370079
11
0.8809055118110236
21
0.344488188976378
0
LINE
8
BLACK
6
CONTINUOUS
10
0.8809055118110236
20
0.344488188976378
11
0.88010468503937
21
0.337892874015748
0
LINE
8
BLACK
6
CONTINUOUS
10
0.88010468503937
20
0.337892874015748
11
0.877748779527559
21
0.3316808661417323
0
LINE
8
BLACK
6
CONTINUOUS
10
0.877748779527559
20
0.3316808661417323
11
0.8739747244094488
21
0.3262131496062992
0
LINE
8
BLACK
6
CONTINUOUS
10
0.8739747244094488
20
0.3262131496062992
11
0.8690017716535433
21
0.3218075196850393
0
LINE
8
BLACK
6
CONTINUOUS
10
0.8690017716535433
20
0.3218075196850393
11
0.8631190157480315
21
0.3187200393700788
0
LINE
8
BLACK
6
CONTINUOUS
10
0.8631190157480315
20
0.3187200393700788
11
0.8566683464566929
21
0.3171300787401575
0
LINE
8
BLACK
6
CONTINUOUS
10
0.8566683464566929
20
0.3171300787401575
11
0.8500245669291339
21
0.3171300787401575
0
LINE
8
BLACK
6
CONTINUOUS
10
0.8500245669291339
20
0.3171300787401575
11
0.8435738976377952
21
0.3187200393700788
0
LINE
8
BLACK
6
CONTINUOUS
10
0.8435738976377952
20
0.3187200393700788
11
0.8376911417322834
21
0.3218075196850393
0
LINE
8
BLACK
6
CONTINUOUS
10
0.8376911417322834
20
0.3218075196850393
11
0.8327181889763779
21
0.3262131496062992
0
LINE
8
BLACK
6
CONTINUOUS
10
0.8327181889763779
20
0.3262131496062992
11
0.8289441338582677
21
0.3316808661417323
0
LINE
8
BLACK
6
CONTINUOUS
10
0.8289441338582677
20
0.3316808661417323
11
0.8265882283464566
21
0.337892874015748
0
LINE
8
BLACK
6
CONTINUOUS
10
0.8265882283464566
20
0.337892874015748
11
0.8257874015748031
21
0.344488188976378
0
LINE
8
BLACK
6
CONTINUOUS
10
0.8257874015748031
20
0.344488188976378
11
0.8265882283464566
21
0.3510835039370079
0
LINE
8
BLACK
6
CONTINUOUS
10
0.8265882283464566
20
0.3510835039370079
11
0.8289441338582677
21
0.3572955118110236
0
LINE
8
BLACK
6
CONTINUOUS
10
0.8289441338582677
20
0.3572955118110236
11
0.8327181889763779
21
0.3627632283464567
0
LINE
8
BLACK
6
CONTINUOUS
10
0.8327181889763779
20
0.3627632283464567
11
0.8376911417322834
21
0.3671688582677165
0
LINE
8
BLACK
6
CONTINUOUS
10
0.8376911417322834
20
0.3671688582677165
11
0.8435738976377952
21
0.3702563385826771
0
LINE
8
BLACK
6
CONTINUOUS
10
0.8435738976377952
20
0.3702563385826771
11
0.8500245669291339
21
0.3718462992125984
0
LINE
8
BLACK
6
CONTINUOUS
10
0.8500245669291339
20
0.3718462992125984
11
0.8566683464566929
21
0.3718462992125984
0
LINE
8
BLACK
6
CONTINUOUS
10
0.8566683464566929
20
0.3718462992125984
11
0.8631190157480315
21
0.3702563385826771
0
LINE
8
BLACK
6
CONTINUOUS
10
0.4565368897637795
20
0.3770384251968504
11
0.4590913779527559
21
0.3753315354330709
0
LINE
8
BLACK
6
CONTINUOUS
10
0.4590913779527559
20
0.3753315354330709
11
0.4607982677165354
21
0.3727770472440945
0
LINE
8
BLACK
6
CONTINUOUS
10
0.4607982677165354
20
0.3727770472440945
11
0.4613976377952756
21
0.3697637795275591
0
LINE
8
BLACK
6
CONTINUOUS
10
0.4613976377952756
20
0.3697637795275591
11
0.4613976377952756
21
0.334763779527559
0
LINE
8
BLACK
6
CONTINUOUS
10
0.4613976377952756
20
0.334763779527559
11
0.4607982677165354
21
0.3317505118110236
0
LINE
8
BLACK
6
CONTINUOUS
10
0.4607982677165354
20
0.3317505118110236
11
0.4590913779527559
21
0.3291960236220473
0
LINE
8
BLACK
6
CONTINUOUS
10
0.4590913779527559
20
0.3291960236220473
11
0.4565368897637795
21
0.3274891338582677
0
LINE
8
BLACK
6
CONTINUOUS
10
0.4565368897637795
20
0.3274891338582677
11
0.4535236220472441
21
0.3268897637795276
0
LINE
8
BLACK
6
CONTINUOUS
10
0.4535236220472441
20
0.3268897637795276
11
0.3985236220472441
21
0.3268897637795276
0
LINE
8
BLACK
6
CONTINUOUS
10
0.3985236220472441
20
0.3268897637795276
11
0.3955103543307086
21
0.3274891338582677
0
LINE
8
BLACK
6
CONTINUOUS
10
0.3955103543307086
20
0.3274891338582677
11
0.3929558661417323
21
0.3291960236220473
0
LINE
8
BLACK
6
CONTINUOUS
10
0.3929558661417323
20
0.3291960236220473
11
0.3912489763779528
21
0.3317505118110236
0
LINE
8
BLACK
6
CONTINUOUS
10
0.3912489763779528
20
0.3317505118110236
11
0.3906496062992126
21
0.334763779527559
0
LINE
8
BLACK
6
CONTINUOUS
10
0.3906496062992126
20
0.334763779527559
11
0.3906496062992126
21
0.3697637795275591
0
LINE
8
BLACK
6
CONTINUOUS
10
0.3906496062992126
20
0.3697637795275591
11
0.3912489763779528
21
0.3727770472440945
0
LINE
8
BLACK
6
CONTINUOUS
10
0.3912489763779528
20
0.3727770472440945
11
0.3929558661417323
21
0.3753315354330709
0
LINE
8
BLACK
6
CONTINUOUS
10
0.3929558661417323
20
0.3753315354330709
11
0.3955103543307086
21
0.3770384251968504
0
LINE
8
BLACK
6
CONTINUOUS
10
0.3955103543307086
20
0.3770384251968504
11
0.3985236220472441
21
0.3776377952755905
0
LINE
8
BLACK
6
CONTINUOUS
10
0.3985236220472441
20
0.3776377952755905
11
0.4535236220472441
21
0.3776377952755905
0
LINE
8
BLACK
6
CONTINUOUS
10
0.4535236220472441
20
0.3776377952755905
11
0.4565368897637795
21
0.3770384251968504
0
LINE
8
BLACK
6
CONTINUOUS
10
0.5228996456692914
20
0.3771458661417323
11
0.5274954724409449
21
0.3748041732283465
0
LINE
8
BLACK
6
CONTINUOUS
10
0.5274954724409449
20
0.3748041732283465
11
0.5311427559055119
21
0.3711568897637795
0
LINE
8
BLACK
6
CONTINUOUS
10
0.5311427559055119
20
0.3711568897637795
11
0.5334844488188977
21
0.366561062992126
0
LINE
8
BLACK
6
CONTINUOUS
10
0.5334844488188977
20
0.366561062992126
11
0.5342913385826772
21
0.3614665354330708
0
LINE
8
BLACK
6
CONTINUOUS
10
0.5342913385826772
20
0.3614665354330708
11
0.5342913385826772
21
0.344242125984252
0
LINE
8
BLACK
6
CONTINUOUS
10
0.5342913385826772
20
0.344242125984252
11
0.5334844488188977
21
0.3391475984251968
0
LINE
8
BLACK
6
CONTINUOUS
10
0.5334844488188977
20
0.3391475984251968
11
0.5311427559055119
21
0.3345517716535433
0
LINE
8
BLACK
6
CONTINUOUS
10
0.5311427559055119
20
0.3345517716535433
11
0.5274954724409449
21
0.3309044881889764
0
LINE
8
BLACK
6
CONTINUOUS
10
0.5274954724409449
20
0.3309044881889764
11
0.5228996456692914
21
0.3285627952755906
0
LINE
8
BLACK
6
CONTINUOUS
10
0.5228996456692914
20
0.3285627952755906
11
0.5178051181102362
21
0.327755905511811
0
LINE
8
BLACK
6
CONTINUOUS
10
0.5178051181102362
20
0.327755905511811
11
0.4976279527559055
21
0.327755905511811
0
LINE
8
BLACK
6
CONTINUOUS
10
0.4976279527559055
20
0.327755905511811
11
0.4925334251968504
21
0.3285627952755906
0
LINE
8
BLACK
6
CONTINUOUS
10
0.4925334251968504
20
0.3285627952755906
11
0.4879375984251969
21
0.3309044881889764
0
LINE
8
BLACK
6
CONTINUOUS
10
0.4879375984251969
20
0.3309044881889764
11
0.4842903149606299
21
0.3345517716535433
0
LINE
8
BLACK
6
CONTINUOUS
10
0.4842903149606299
20
0.3345517716535433
11
0.4819486220472441
21
0.3391475984251968
0
LINE
8
BLACK
6
CONTINUOUS
10
0.4819486220472441
20
0.3391475984251968
11
0.4811417322834646
21
0.344242125984252
0
LINE
8
BLACK
6
CONTINUOUS
10
0.4811417322834646
20
0.344242125984252
11
0.4811417322834646
21
0.3614665354330708
0
LINE
8
BLACK
6
CONTINUOUS
10
0.4811417322834646
20
0.3614665354330708
11
0.4819486220472441
21
0.366561062992126
0
LINE
8
BLACK
6
CONTINUOUS
10
0.4819486220472441
20
0.366561062992126
11
0.4842903149606299
21
0.3711568897637795
0
LINE
8
BLACK
6
CONTINUOUS
10
0.4842903149606299
20
0.3711568897637795
11
0.4879375984251969
21
0.3748041732283465
0
LINE
8
BLACK
6
CONTINUOUS
10
0.4879375984251969
20
0.3748041732283465
11
0.4925334251968504
21
0.3771458661417323
0
LINE
8
BLACK
6
CONTINUOUS
10
0.4925334251968504
20
0.3771458661417323
11
0.4976279527559055
21
0.3779527559055118
0
LINE
8
BLACK
6
CONTINUOUS
10
0.4976279527559055
20
0.3779527559055118
11
0.5178051181102362
21
0.3779527559055118
0
LINE
8
BLACK
6
CONTINUOUS
10
0.5178051181102362
20
0.3779527559055118
11
0.5228996456692914
21
0.3771458661417323
0
LINE
8
BLACK
6
CONTINUOUS
10
0.3073484645669291
20
0.381082874015748
11
0.3119442913385826
21
0.3787411811023622
0
LINE
8
BLACK
6
CONTINUOUS
10
0.3119442913385826
20
0.3787411811023622
11
0.3155915748031496
21
0.3750938976377953
0
LINE
8
BLACK
6
CONTINUOUS
10
0.3155915748031496
20
0.3750938976377953
11
0.3179332677165354
21
0.3704980708661417
0
LINE
8
BLACK
6
CONTINUOUS
10
0.3179332677165354
20
0.3704980708661417
11
0.318740157480315
21
0.3654035433070866
0
LINE
8
BLACK
6
CONTINUOUS
10
0.318740157480315
20
0.3654035433070866
11
0.318740157480315
21
0.3481791338582677
0
LINE
8
BLACK
6
CONTINUOUS
10
0.318740157480315
20
0.3481791338582677
11
0.3179332677165354
21
0.3430846062992126
0
LINE
8
BLACK
6
CONTINUOUS
10
0.3179332677165354
20
0.3430846062992126
11
0.3155915748031496
21
0.3384887795275591
0
LINE
8
BLACK
6
CONTINUOUS
10
0.3155915748031496
20
0.3384887795275591
11
0.3119442913385826
21
0.3348414960629921
0
LINE
8
BLACK
6
CONTINUOUS
10
0.3119442913385826
20
0.3348414960629921
11
0.3073484645669291
21
0.3324998031496063
0
LINE
8
BLACK
6
CONTINUOUS
10
0.3073484645669291
20
0.3324998031496063
11
0.302253937007874
21
0.3316929133858267
0
LINE
8
BLACK
6
CONTINUOUS
10
0.302253937007874
20
0.3316929133858267
11
0.2820767716535433
21
0.3316929133858267
0
LINE
8
BLACK
6
CONTINUOUS
10
0.2820767716535433
20
0.3316929133858267
11
0.2769822440944882
21
0.3324998031496063
0
LINE
8
BLACK
6
CONTINUOUS
10
0.2769822440944882
20
0.3324998031496063
11
0.2723864173228346
21
0.3348414960629921
0
LINE
8
BLACK
6
CONTINUOUS
10
0.2723864173228346
20
0.3348414960629921
11
0.2687391338582677
21
0.3384887795275591
0
LINE
8
BLACK
6
CONTINUOUS
10
0.2687391338582677
20
0.3384887795275591
11
0.2663974409448819
21
0.3430846062992126
0
LINE
8
BLACK
6
CONTINUOUS
10
0.2663974409448819
20
0.3430846062992126
11
0.2655905511811024
21
0.3481791338582677
0
LINE
8
BLACK
6
CONTINUOUS
10
0.2655905511811024
20
0.3481791338582677
11
0.2655905511811024
21
0.3654035433070866
0
LINE
8
BLACK
6
CONTINUOUS
10
0.2655905511811024
20
0.3654035433070866
11
0.2663974409448819
21
0.3704980708661417
0
LINE
8
BLACK
6
CONTINUOUS
10
0.2663974409448819
20
0.3704980708661417
11
0.2687391338582677
21
0.3750938976377953
0
LINE
8
BLACK
6
CONTINUOUS
10
0.2687391338582677
20
0.3750938976377953
11
0.2723864173228346
21
0.3787411811023622
0
LINE
8
BLACK
6
CONTINUOUS
10
0.2723864173228346
20
0.3787411811023622
11
0.2769822440944882
21
0.381082874015748
0
LINE
8
BLACK
6
CONTINUOUS
10
0.2769822440944882
20
0.381082874015748
11
0.2820767716535433
21
0.3818897637795275
0
LINE
8
BLACK
6
CONTINUOUS
10
0.2820767716535433
20
0.3818897637795275
11
0.302253937007874
21
0.3818897637795275
0
LINE
8
BLACK
6
CONTINUOUS
10
0.302253937007874
20
0.3818897637795275
11
0.3073484645669291
21
0.381082874015748
0
LINE
8
BLACK
6
CONTINUOUS
10
0.373918779527559
20
0.3763691338582677
11
0.3764732677165354
21
0.3746622440944882
0
LINE
8
BLACK
6
CONTINUOUS
10
0.3764732677165354
20
0.3746622440944882
11
0.378180157480315
21
0.3721077559055118
0
LINE
8
BLACK
6
CONTINUOUS
10
0.378180157480315
20
0.3721077559055118
11
0.3787795275590551
21
0.3690944881889764
0
LINE
8
BLACK
6
CONTINUOUS
10
0.3787795275590551
20
0.3690944881889764
11
0.3787795275590551
21
0.3454724409448819
0
LINE
8
BLACK
6
CONTINUOUS
10
0.3787795275590551
20
0.3454724409448819
11
0.378180157480315
21
0.3424591732283465
0
LINE
8
BLACK
6
CONTINUOUS
10
0.378180157480315
20
0.3424591732283465
11
0.3764732677165354
21
0.33990468503937
0
LINE
8
BLACK
6
CONTINUOUS
10
0.3764732677165354
20
0.33990468503937
11
0.373918779527559
21
0.3381977952755905
0
LINE
8
BLACK
6
CONTINUOUS
10
0.373918779527559
20
0.3381977952755905
11
0.3709055118110236
21
0.3375984251968504
0
LINE
8
BLACK
6
CONTINUOUS
10
0.3709055118110236
20
0.3375984251968504
11
0.3433464566929134
21
0.3375984251968504
0
LINE
8
BLACK
6
CONTINUOUS
10
0.3433464566929134
20
0.3375984251968504
11
0.3403331889763779
21
0.3381977952755905
0
LINE
8
BLACK
6
CONTINUOUS
10
0.3403331889763779
20
0.3381977952755905
11
0.3377787007874016
21
0.33990468503937
0
LINE
8
BLACK
6
CONTINUOUS
10
0.3377787007874016
20
0.33990468503937
11
0.336071811023622
21
0.3424591732283465
0
LINE
8
BLACK
6
CONTINUOUS
10
0.336071811023622
20
0.3424591732283465
11
0.3354724409448819
21
0.3454724409448819
0
LINE
8
BLACK
6
CONTINUOUS
10
0.3354724409448819
20
0.3454724409448819
11
0.3354724409448819
21
0.3690944881889764
0
LINE
8
BLACK
6
CONTINUOUS
10
0.3354724409448819
20
0.3690944881889764
11
0.336071811023622
21
0.3721077559055118
0
LINE
8
BLACK
6
CONTINUOUS
10
0.336071811023622
20
0.3721077559055118
11
0.3377787007874016
21
0.3746622440944882
0
LINE
8
BLACK
6
CONTINUOUS
10
0.3377787007874016
20
0.3746622440944882
11
0.3403331889763779
21
0.3763691338582677
0
LINE
8
BLACK
6
CONTINUOUS
10
0.3403331889763779
20
0.3763691338582677
11
0.3433464566929134
21
0.3769685039370079
0
LINE
8
BLACK
6
CONTINUOUS
10
0.3433464566929134
20
0.3769685039370079
11
0.3709055118110236
21
0.3769685039370079
0
LINE
8
BLACK
6
CONTINUOUS
10
0.3709055118110236
20
0.3769685039370079
11
0.373918779527559
21
0.3763691338582677
0
LINE
8
BLACK
6
CONTINUOUS
10
0.6251831102362204
20
0.3972836614173229
11
0.629778937007874
21
0.394941968503937
0
LINE
8
BLACK
6
CONTINUOUS
10
0.629778937007874
20
0.394941968503937
11
0.6334262204724409
21
0.3912946850393701
0
LINE
8
BLACK
6
CONTINUOUS
10
0.6334262204724409
20
0.3912946850393701
11
0.6357679133858267
21
0.3866988582677165
0
LINE
8
BLACK
6
CONTINUOUS
10
0.6357679133858267
20
0.3866988582677165
11
0.6365748031496062
21
0.3816043307086614
0
LINE
8
BLACK
6
CONTINUOUS
10
0.6365748031496062
20
0.3816043307086614
11
0.6365748031496062
21
0.3643799212598425
0
LINE
8
BLACK
6
CONTINUOUS
10
0.6365748031496062
20
0.3643799212598425
11
0.6357679133858267
21
0.3592853937007874
0
LINE
8
BLACK
6
CONTINUOUS
10
0.6357679133858267
20
0.3592853937007874
11
0.6334262204724409
21
0.3546895669291338
0
LINE
8
BLACK
6
CONTINUOUS
10
0.6334262204724409
20
0.3546895669291338
11
0.629778937007874
21
0.3510422834645669
0
LINE
8
BLACK
6
CONTINUOUS
10
0.629778937007874
20
0.3510422834645669
11
0.6251831102362204
21
0.3487005905511811
0
LINE
8
BLACK
6
CONTINUOUS
10
0.6251831102362204
20
0.3487005905511811
11
0.6200885826771654
21
0.3478937007874016
0
LINE
8
BLACK
6
CONTINUOUS
10
0.6200885826771654
20
0.3478937007874016
11
0.5999114173228346
21
0.3478937007874016
0
LINE
8
BLACK
6
CONTINUOUS
10
0.5999114173228346
20
0.3478937007874016
11
0.5948168897637796
21
0.3487005905511811
0
LINE
8
BLACK
6
CONTINUOUS
10
0.5948168897637796
20
0.3487005905511811
11
0.590221062992126
21
0.3510422834645669
0
LINE
8
BLACK
6
CONTINUOUS
10
0.590221062992126
20
0.3510422834645669
11
0.5865737795275591
21
0.3546895669291338
0
LINE
8
BLACK
6
CONTINUOUS
10
0.5865737795275591
20
0.3546895669291338
11
0.5842320866141733
21
0.3592853937007874
0
LINE
8
BLACK
6
CONTINUOUS
10
0.5842320866141733
20
0.3592853937007874
11
0.5834251968503937
21
0.3643799212598425
0
LINE
8
BLACK
6
CONTINUOUS
10
0.5834251968503937
20
0.3643799212598425
11
0.5834251968503937
21
0.3816043307086614
0
LINE
8
BLACK
6
CONTINUOUS
10
0.5834251968503937
20
0.3816043307086614
11
0.5842320866141733
21
0.3866988582677165
0
LINE
8
BLACK
6
CONTINUOUS
10
0.5842320866141733
20
0.3866988582677165
11
0.5865737795275591
21
0.3912946850393701
0
LINE
8
BLACK
6
CONTINUOUS
10
0.5865737795275591
20
0.3912946850393701
11
0.590221062992126
21
0.394941968503937
0
LINE
8
BLACK
6
CONTINUOUS
10
0.590221062992126
20
0.394941968503937
11
0.5948168897637796
21
0.3972836614173229
0
LINE
8
BLACK
6
CONTINUOUS
10
0.5948168897637796
20
0.3972836614173229
11
0.5999114173228346
21
0.3980905511811024
0
LINE
8
BLACK
6
CONTINUOUS
10
0.5999114173228346
20
0.3980905511811024
11
0.6200885826771654
21
0.3980905511811024
0
LINE
8
BLACK
6
CONTINUOUS
10
0.6200885826771654
20
0.3980905511811024
11
0.6251831102362204
21
0.3972836614173229
0
LINE
8
BLACK
6
CONTINUOUS
10
0.7151831102362205
20
0.3982875984251968
11
0.719778937007874
21
0.395945905511811
0
LINE
8
BLACK
6
CONTINUOUS
10
0.719778937007874
20
0.395945905511811
11
0.723426220472441
21
0.3922986220472441
0
LINE
8
BLACK
6
CONTINUOUS
10
0.723426220472441
20
0.3922986220472441
11
0.7257679133858268
21
0.3877027952755905
0
LINE
8
BLACK
6
CONTINUOUS
10
0.7257679133858268
20
0.3877027952755905
11
0.7265748031496063
21
0.3826082677165354
0
LINE
8
BLACK
6
CONTINUOUS
10
0.7265748031496063
20
0.3826082677165354
11
0.7265748031496063
21
0.3653838582677165
0
LINE
8
BLACK
6
CONTINUOUS
10
0.7265748031496063
20
0.3653838582677165
11
0.7257679133858268
21
0.3602893307086614
0
LINE
8
BLACK
6
CONTINUOUS
10
0.7257679133858268
20
0.3602893307086614
11
0.723426220472441
21
0.3556935039370079
0
LINE
8
BLACK
6
CONTINUOUS
10
0.723426220472441
20
0.3556935039370079
11
0.719778937007874
21
0.3520462204724409
0
LINE
8
BLACK
6
CONTINUOUS
10
0.719778937007874
20
0.3520462204724409
11
0.7151831102362205
21
0.3497045275590551
0
LINE
8
BLACK
6
CONTINUOUS
10
0.7151831102362205
20
0.3497045275590551
11
0.7100885826771653
21
0.3488976377952756
0
LINE
8
BLACK
6
CONTINUOUS
10
0.7100885826771653
20
0.3488976377952756
11
0.6899114173228347
21
0.3488976377952756
0
LINE
8
BLACK
6
CONTINUOUS
10
0.6899114173228347
20
0.3488976377952756
11
0.6848168897637795
21
0.3497045275590551
0
LINE
8
BLACK
6
CONTINUOUS
10
0.6848168897637795
20
0.3497045275590551
11
0.6802210629921259
21
0.3520462204724409
0
LINE
8
BLACK
6
CONTINUOUS
10
0.6802210629921259
20
0.3520462204724409
11
0.676573779527559
21
0.3556935039370079
0
LINE
8
BLACK
6
CONTINUOUS
10
0.676573779527559
20
0.3556935039370079
11
0.6742320866141732
21
0.3602893307086614
0
LINE
8
BLACK
6
CONTINUOUS
10
0.6742320866141732
20
0.3602893307086614
11
0.6734251968503937
21
0.3653838582677165
0
LINE
8
BLACK
6
CONTINUOUS
10
0.6734251968503937
20
0.3653838582677165
11
0.6734251968503937
21
0.3826082677165354
0
LINE
8
BLACK
6
CONTINUOUS
10
0.6734251968503937
20
0.3826082677165354
11
0.6742320866141732
21
0.3877027952755905
0
LINE
8
BLACK
6
CONTINUOUS
10
0.6742320866141732
20
0.3877027952755905
11
0.676573779527559
21
0.3922986220472441
0
LINE
8
BLACK
6
CONTINUOUS
10
0.676573779527559
20
0.3922986220472441
11
0.6802210629921259
21
0.395945905511811
0
LINE
8
BLACK
6
CONTINUOUS
10
0.6802210629921259
20
0.395945905511811
11
0.6848168897637795
21
0.3982875984251968
0
LINE
8
BLACK
6
CONTINUOUS
10
0.6848168897637795
20
0.3982875984251968
11
0.6899114173228347
21
0.3990944881889764
0
LINE
8
BLACK
6
CONTINUOUS
10
0.6899114173228347
20
0.3990944881889764
11
0.7100885826771653
21
0.3990944881889764
0
LINE
8
BLACK
6
CONTINUOUS
10
0.7100885826771653
20
0.3990944881889764
11
0.7151831102362205
21
0.3982875984251968
0
LINE
8
BLACK
6
CONTINUOUS
10
0.2223255118110236
20
0.3882066929133858
11
0.2264006692913386
21
0.3862144488188976
0
LINE
8
BLACK
6
CONTINUOUS
10
0.2264006692913386
20
0.3862144488188976
11
0.2296081496062992
21
0.383006968503937
0
LINE
8
BLACK
6
CONTINUOUS
10
0.2296081496062992
20
0.383006968503937
11
0.2316003937007874
21
0.3789318110236221
0
LINE
8
BLACK
6
CONTINUOUS
10
0.2316003937007874
20
0.3789318110236221
11
0.2321732283464567
21
0.375
0
LINE
8
BLACK
6
CONTINUOUS
10
0.2321732283464567
20
0.375
11
0.2321732283464567
21
0.3631889763779527
0
LINE
8
BLACK
6
CONTINUOUS
10
0.2321732283464567
20
0.3631889763779527
11
0.2316003937007874
21
0.3592571653543307
0
LINE
8
BLACK
6
CONTINUOUS
10
0.2316003937007874
20
0.3592571653543307
11
0.2296081496062992
21
0.3551820078740157
0
LINE
8
BLACK
6
CONTINUOUS
10
0.2296081496062992
20
0.3551820078740157
11
0.2264006692913386
21
0.3519745275590551
0
LINE
8
BLACK
6
CONTINUOUS
10
0.2264006692913386
20
0.3519745275590551
11
0.2223255118110236
21
0.3499822834645669
0
LINE
8
BLACK
6
CONTINUOUS
10
0.2223255118110236
20
0.3499822834645669
11
0.2183937007874016
21
0.3494094488188976
0
LINE
8
BLACK
6
CONTINUOUS
10
0.2183937007874016
20
0.3494094488188976
11
0.1632755905511811
21
0.3494094488188976
0
LINE
8
BLACK
6
CONTINUOUS
10
0.1632755905511811
20
0.3494094488188976
11
0.159343779527559
21
0.3499822834645669
0
LINE
8
BLACK
6
CONTINUOUS
10
0.159343779527559
20
0.3499822834645669
11
0.1552686220472441
21
0.3519745275590551
0
LINE
8
BLACK
6
CONTINUOUS
10
0.1552686220472441
20
0.3519745275590551
11
0.1520611417322835
21
0.3551820078740157
0
LINE
8
BLACK
6
CONTINUOUS
10
0.1520611417322835
20
0.3551820078740157
11
0.1500688976377953
21
0.3592571653543307
0
LINE
8
BLACK
6
CONTINUOUS
10
0.1500688976377953
20
0.3592571653543307
11
0.149496062992126
21
0.3631889763779527
0
LINE
8
BLACK
6
CONTINUOUS
10
0.149496062992126
20
0.3631889763779527
11
0.149496062992126
21
0.375
0
LINE
8
BLACK
6
CONTINUOUS
10
0.149496062992126
20
0.375
11
0.1500688976377953
21
0.3789318110236221
0
LINE
8
BLACK
6
CONTINUOUS
10
0.1500688976377953
20
0.3789318110236221
11
0.1520611417322835
21
0.383006968503937
0
LINE
8
BLACK
6
CONTINUOUS
10
0.1520611417322835
20
0.383006968503937
11
0.1552686220472441
21
0.3862144488188976
0
LINE
8
BLACK
6
CONTINUOUS
10
0.1552686220472441
20
0.3862144488188976
11
0.159343779527559
21
0.3882066929133858
0
LINE
8
BLACK
6
CONTINUOUS
10
0.159343779527559
20
0.3882066929133858
11
0.1632755905511811
21
0.3887795275590551
0
LINE
8
BLACK
6
CONTINUOUS
10
0.1632755905511811
20
0.3887795275590551
11
0.2183937007874016
21
0.3887795275590551
0
LINE
8
BLACK
6
CONTINUOUS
10
0.2183937007874016
20
0.3887795275590551
11
0.2223255118110236
21
0.3882066929133858
0
LINE
8
BLACK
6
CONTINUOUS
10
0.939279842519685
20
0.4135754330708661
11
0.9439933070866141
21
0.4105462598425197
0
LINE
8
BLACK
6
CONTINUOUS
10
0.9439933070866141
20
0.4105462598425197
11
0.9476624803149606
21
0.406311811023622
0
LINE
8
BLACK
6
CONTINUOUS
10
0.9476624803149606
20
0.406311811023622
11
0.94999
21
0.4012151968503937
0
LINE
8
BLACK
6
CONTINUOUS
10
0.94999
20
0.4012151968503937
11
0.9507874015748031
21
0.3956692913385826
0
LINE
8
BLACK
6
CONTINUOUS
10
0.9507874015748031
20
0.3956692913385826
11
0.94999
21
0.3901233858267716
0
LINE
8
BLACK
6
CONTINUOUS
10
0.94999
20
0.3901233858267716
11
0.9476624803149606
21
0.3850267716535433
0
LINE
8
BLACK
6
CONTINUOUS
10
0.9476624803149606
20
0.3850267716535433
11
0.9439933070866141
21
0.3807923228346456
0
LINE
8
BLACK
6
CONTINUOUS
10
0.9439933070866141
20
0.3807923228346456
11
0.939279842519685
21
0.3777631496062992
0
LINE
8
BLACK
6
CONTINUOUS
10
0.939279842519685
20
0.3777631496062992
11
0.9339038188976377
21
0.3761846062992126
0
LINE
8
BLACK
6
CONTINUOUS
10
0.9339038188976377
20
0.3761846062992126
11
0.928300905511811
21
0.3761846062992126
0
LINE
8
BLACK
6
CONTINUOUS
10
0.928300905511811
20
0.3761846062992126
11
0.9229248818897637
21
0.3777631496062992
0
LINE
8
BLACK
6
CONTINUOUS
10
0.9229248818897637
20
0.3777631496062992
11
0.9182114173228346
21
0.3807923228346456
0
LINE
8
BLACK
6
CONTINUOUS
10
0.9182114173228346
20
0.3807923228346456
11
0.9145422440944881
21
0.3850267716535433
0
LINE
8
BLACK
6
CONTINUOUS
10
0.9145422440944881
20
0.3850267716535433
11
0.9122147244094488
21
0.3901233858267716
0
LINE
8
BLACK
6
CONTINUOUS
10
0.9122147244094488
20
0.3901233858267716
11
0.9114173228346456
21
0.3956692913385826
0
LINE
8
BLACK
6
CONTINUOUS
10
0.9114173228346456
20
0.3956692913385826
11
0.9122147244094488
21
0.4012151968503937
0
LINE
8
BLACK
6
CONTINUOUS
10
0.9122147244094488
20
0.4012151968503937
11
0.9145422440944881
21
0.406311811023622
0
LINE
8
BLACK
6
CONTINUOUS
10
0.9145422440944881
20
0.406311811023622
11
0.9182114173228346
21
0.4105462598425197
0
LINE
8
BLACK
6
CONTINUOUS
10
0.9182114173228346
20
0.4105462598425197
11
0.9229248818897637
21
0.4135754330708661
0
LINE
8
BLACK
6
CONTINUOUS
10
0.9229248818897637
20
0.4135754330708661
11
0.928300905511811
21
0.4151539763779528
0
LINE
8
BLACK
6
CONTINUOUS
10
0.928300905511811
20
0.4151539763779528
11
0.9339038188976377
21
0.4151539763779528
0
LINE
8
BLACK
6
CONTINUOUS
10
0.9339038188976377
20
0.4151539763779528
11
0.939279842519685
21
0.4135754330708661
0
LINE
8
BLACK
6
CONTINUOUS
10
1.1400672440944881
20
0.4135754330708661
11
1.1447807086614172
21
0.4105462598425197
0
LINE
8
BLACK
6
CONTINUOUS
10
1.1447807086614172
20
0.4105462598425197
11
1.1484498818897637
21
0.406311811023622
0
LINE
8
BLACK
6
CONTINUOUS
10
1.1484498818897637
20
0.406311811023622
11
1.1507774015748031
21
0.4012151968503937
0
LINE
8
BLACK
6
CONTINUOUS
10
1.1507774015748031
20
0.4012151968503937
11
1.1515748031496063
21
0.3956692913385826
0
LINE
8
BLACK
6
CONTINUOUS
10
1.1515748031496063
20
0.3956692913385826
11
1.1507774015748031
21
0.3901233858267716
0
LINE
8
BLACK
6
CONTINUOUS
10
1.1507774015748031
20
0.3901233858267716
11
1.1484498818897637
21
0.3850267716535433
0
LINE
8
BLACK
6
CONTINUOUS
10
1.1484498818897637
20
0.3850267716535433
11
1.1447807086614172
21
0.3807923228346456
0
LINE
8
BLACK
6
CONTINUOUS
10
1.1447807086614172
20
0.3807923228346456
11
1.1400672440944881
21
0.3777631496062992
0
LINE
8
BLACK
6
CONTINUOUS
10
1.1400672440944881
20
0.3777631496062992
11
1.1346912204724409
21
0.3761846062992126
0
LINE
8
BLACK
6
CONTINUOUS
10
1.1346912204724409
20
0.3761846062992126
11
1.1290883070866142
21
0.3761846062992126
0
LINE
8
BLACK
6
CONTINUOUS
10
1.1290883070866142
20
0.3761846062992126
11
1.123712283464567
21
0.3777631496062992
0
LINE
8
BLACK
6
CONTINUOUS
10
1.123712283464567
20
0.3777631496062992
11
1.1189988188976379
21
0.3807923228346456
0
LINE
8
BLACK
6
CONTINUOUS
10
1.1189988188976379
20
0.3807923228346456
11
1.1153296456692914
21
0.3850267716535433
0
LINE
8
BLACK
6
CONTINUOUS
10
1.1153296456692914
20
0.3850267716535433
11
1.113002125984252
21
0.3901233858267716
0
LINE
8
BLACK
6
CONTINUOUS
10
1.113002125984252
20
0.3901233858267716
11
1.1122047244094488
21
0.3956692913385826
0
LINE
8
BLACK
6
CONTINUOUS
10
1.1122047244094488
20
0.3956692913385826
11
1.113002125984252
21
0.4012151968503937
0
LINE
8
BLACK
6
CONTINUOUS
10
1.113002125984252
20
0.4012151968503937
11
1.1153296456692914
21
0.406311811023622
0
LINE
8
BLACK
6
CONTINUOUS
10
1.1153296456692914
20
0.406311811023622
11
1.1189988188976379
21
0.4105462598425197
0
LINE
8
BLACK
6
CONTINUOUS
10
1.1189988188976379
20
0.4105462598425197
11
1.123712283464567
21
0.4135754330708661
0
LINE
8
BLACK
6
CONTINUOUS
10
1.123712283464567
20
0.4135754330708661
11
1.1290883070866142
21
0.4151539763779528
0
LINE
8
BLACK
6
CONTINUOUS
10
1.1290883070866142
20
0.4151539763779528
11
1.1346912204724409
21
0.4151539763779528
0
LINE
8
BLACK
6
CONTINUOUS
10
1.1346912204724409
20
0.4151539763779528
11
1.1400672440944881
21
0.4135754330708661
0
LINE
8
BLACK
6
CONTINUOUS
10
0.5228996456692914
20
0.4391537401574803
11
0.5274954724409449
21
0.4368120472440945
0
LINE
8
BLACK
6
CONTINUOUS
10
0.5274954724409449
20
0.4368120472440945
11
0.5311427559055119
21
0.4331647637795276
0
LINE
8
BLACK
6
CONTINUOUS
10
0.5311427559055119
20
0.4331647637795276
11
0.5334844488188977
21
0.428568937007874
0
LINE
8
BLACK
6
CONTINUOUS
10
0.5334844488188977
20
0.428568937007874
11
0.5342913385826772
21
0.4234744094488189
0
LINE
8
BLACK
6
CONTINUOUS
10
0.5342913385826772
20
0.4234744094488189
11
0.5342913385826772
21
0.40625
0
LINE
8
BLACK
6
CONTINUOUS
10
0.5342913385826772
20
0.40625
11
0.5334844488188977
21
0.4011554724409448
0
LINE
8
BLACK
6
CONTINUOUS
10
0.5334844488188977
20
0.4011554724409448
11
0.5311427559055119
21
0.3965596456692913
0
LINE
8
BLACK
6
CONTINUOUS
10
0.5311427559055119
20
0.3965596456692913
11
0.5274954724409449
21
0.3929123622047244
0
LINE
8
BLACK
6
CONTINUOUS
10
0.5274954724409449
20
0.3929123622047244
11
0.5228996456692914
21
0.3905706692913386
0
LINE
8
BLACK
6
CONTINUOUS
10
0.5228996456692914
20
0.3905706692913386
11
0.5178051181102362
21
0.389763779527559
0
LINE
8
BLACK
6
CONTINUOUS
10
0.5178051181102362
20
0.389763779527559
11
0.4976279527559055
21
0.389763779527559
0
LINE
8
BLACK
6
CONTINUOUS
10
0.4976279527559055
20
0.389763779527559
11
0.4925334251968504
21
0.3905706692913386
0
LINE
8
BLACK
6
CONTINUOUS
10
0.4925334251968504
20
0.3905706692913386
11
0.4879375984251969
21
0.3929123622047244
0
LINE
8
BLACK
6
CONTINUOUS
10
0.4879375984251969
20
0.3929123622047244
11
0.4842903149606299
21
0.3965596456692913
0
LINE
8
BLACK
6
CONTINUOUS
10
0.4842903149606299
20
0.3965596456692913
11
0.4819486220472441
21
0.4011554724409448
0
LINE
8
BLACK
6
CONTINUOUS
10
0.4819486220472441
20
0.4011554724409448
11
0.4811417322834646
21
0.40625
0
LINE
8
BLACK
6
CONTINUOUS
10
0.4811417322834646
20
0.40625
11
0.4811417322834646
21
0.4234744094488189
0
LINE
8
BLACK
6
CONTINUOUS
10
0.4811417322834646
20
0.4234744094488189
11
0.4819486220472441
21
0.428568937007874
0
LINE
8
BLACK
6
CONTINUOUS
10
0.4819486220472441
20
0.428568937007874
11
0.4842903149606299
21
0.4331647637795276
0
LINE
8
BLACK
6
CONTINUOUS
10
0.4842903149606299
20
0.4331647637795276
11
0.4879375984251969
21
0.4368120472440945
0
LINE
8
BLACK
6
CONTINUOUS
10
0.4879375984251969
20
0.4368120472440945
11
0.4925334251968504
21
0.4391537401574803
0
LINE
8
BLACK
6
CONTINUOUS
10
0.4925334251968504
20
0.4391537401574803
11
0.4976279527559055
21
0.4399606299212598
0
LINE
8
BLACK
6
CONTINUOUS
10
0.4976279527559055
20
0.4399606299212598
11
0.5178051181102362
21
0.4399606299212598
0
LINE
8
BLACK
6
CONTINUOUS
10
0.5178051181102362
20
0.4399606299212598
11
0.5228996456692914
21
0.4391537401574803
0
LINE
8
BLACK
6
CONTINUOUS
10
0.373918779527559
20
0.4314872440944882
11
0.3764732677165354
21
0.4297803543307087
0
LINE
8
BLACK
6
CONTINUOUS
10
0.3764732677165354
20
0.4297803543307087
11
0.378180157480315
21
0.4272258661417322
0
LINE
8
BLACK
6
CONTINUOUS
10
0.378180157480315
20
0.4272258661417322
11
0.3787795275590551
21
0.4242125984251968
0
LINE
8
BLACK
6
CONTINUOUS
10
0.3787795275590551
20
0.4242125984251968
11
0.3787795275590551
21
0.4005905511811024
0
LINE
8
BLACK
6
CONTINUOUS
10
0.3787795275590551
20
0.4005905511811024
11
0.378180157480315
21
0.3975772834645669
0
LINE
8
BLACK
6
CONTINUOUS
10
0.378180157480315
20
0.3975772834645669
11
0.3764732677165354
21
0.3950227952755905
0
LINE
8
BLACK
6
CONTINUOUS
10
0.3764732677165354
20
0.3950227952755905
11
0.373918779527559
21
0.393315905511811
0
LINE
8
BLACK
6
CONTINUOUS
10
0.373918779527559
20
0.393315905511811
11
0.3709055118110236
21
0.3927165354330708
0
LINE
8
BLACK
6
CONTINUOUS
10
0.3709055118110236
20
0.3927165354330708
11
0.3433464566929134
21
0.3927165354330708
0
LINE
8
BLACK
6
CONTINUOUS
10
0.3433464566929134
20
0.3927165354330708
11
0.3403331889763779
21
0.393315905511811
0
LINE
8
BLACK
6
CONTINUOUS
10
0.3403331889763779
20
0.393315905511811
11
0.3377787007874016
21
0.3950227952755905
0
LINE
8
BLACK
6
CONTINUOUS
10
0.3377787007874016
20
0.3950227952755905
11
0.336071811023622
21
0.3975772834645669
0
LINE
8
BLACK
6
CONTINUOUS
10
0.336071811023622
20
0.3975772834645669
11
0.3354724409448819
21
0.4005905511811024
0
LINE
8
BLACK
6
CONTINUOUS
10
0.3354724409448819
20
0.4005905511811024
11
0.3354724409448819
21
0.4242125984251968
0
LINE
8
BLACK
6
CONTINUOUS
10
0.3354724409448819
20
0.4242125984251968
11
0.336071811023622
21
0.4272258661417322
0
LINE
8
BLACK
6
CONTINUOUS
10
0.336071811023622
20
0.4272258661417322
11
0.3377787007874016
21
0.4297803543307087
0
LINE
8
BLACK
6
CONTINUOUS
10
0.3377787007874016
20
0.4297803543307087
11
0.3403331889763779
21
0.4314872440944882
0
LINE
8
BLACK
6
CONTINUOUS
10
0.3403331889763779
20
0.4314872440944882
11
0.3433464566929134
21
0.4320866141732284
0
LINE
8
BLACK
6
CONTINUOUS
10
0.3433464566929134
20
0.4320866141732284
11
0.3709055118110236
21
0.4320866141732284
0
LINE
8
BLACK
6
CONTINUOUS
10
0.3709055118110236
20
0.4320866141732284
11
0.373918779527559
21
0.4314872440944882
0
LINE
8
BLACK
6
CONTINUOUS
10
0.3073484645669291
20
0.4430907480314961
11
0.3119442913385826
21
0.4407490551181102
0
LINE
8
BLACK
6
CONTINUOUS
10
0.3119442913385826
20
0.4407490551181102
11
0.3155915748031496
21
0.4371017716535433
0
LINE
8
BLACK
6
CONTINUOUS
10
0.3155915748031496
20
0.4371017716535433
11
0.3179332677165354
21
0.4325059448818898
0
LINE
8
BLACK
6
CONTINUOUS
10
0.3179332677165354
20
0.4325059448818898
11
0.318740157480315
21
0.4274114173228347
0
LINE
8
BLACK
6
CONTINUOUS
10
0.318740157480315
20
0.4274114173228347
11
0.318740157480315
21
0.4101870078740157
0
LINE
8
BLACK
6
CONTINUOUS
10
0.318740157480315
20
0.4101870078740157
11
0.3179332677165354
21
0.4050924803149606
0
LINE
8
BLACK
6
CONTINUOUS
10
0.3179332677165354
20
0.4050924803149606
11
0.3155915748031496
21
0.4004966535433071
0
LINE
8
BLACK
6
CONTINUOUS
10
0.3155915748031496
20
0.4004966535433071
11
0.3119442913385826
21
0.3968493700787402
0
LINE
8
BLACK
6
CONTINUOUS
10
0.3119442913385826
20
0.3968493700787402
11
0.3073484645669291
21
0.3945076771653543
0
LINE
8
BLACK
6
CONTINUOUS
10
0.3073484645669291
20
0.3945076771653543
11
0.302253937007874
21
0.3937007874015748
0
LINE
8
BLACK
6
CONTINUOUS
10
0.302253937007874
20
0.3937007874015748
11
0.2820767716535433
21
0.3937007874015748
0
LINE
8
BLACK
6
CONTINUOUS
10
0.2820767716535433
20
0.3937007874015748
11
0.2769822440944882
21
0.3945076771653543
0
LINE
8
BLACK
6
CONTINUOUS
10
0.2769822440944882
20
0.3945076771653543
11
0.2723864173228346
21
0.3968493700787402
0
LINE
8
BLACK
6
CONTINUOUS
10
0.2723864173228346
20
0.3968493700787402
11
0.2687391338582677
21
0.4004966535433071
0
LINE
8
BLACK
6
CONTINUOUS
10
0.2687391338582677
20
0.4004966535433071
11
0.2663974409448819
21
0.4050924803149606
0
LINE
8
BLACK
6
CONTINUOUS
10
0.2663974409448819
20
0.4050924803149606
11
0.2655905511811024
21
0.4101870078740157
0
LINE
8
BLACK
6
CONTINUOUS
10
0.2655905511811024
20
0.4101870078740157
11
0.2655905511811024
21
0.4274114173228347
0
LINE
8
BLACK
6
CONTINUOUS
10
0.2655905511811024
20
0.4274114173228347
11
0.2663974409448819
21
0.4325059448818898
0
LINE
8
BLACK
6
CONTINUOUS
10
0.2663974409448819
20
0.4325059448818898
11
0.2687391338582677
21
0.4371017716535433
0
LINE
8
BLACK
6
CONTINUOUS
10
0.2687391338582677
20
0.4371017716535433
11
0.2723864173228346
21
0.4407490551181102
0
LINE
8
BLACK
6
CONTINUOUS
10
0.2723864173228346
20
0.4407490551181102
11
0.2769822440944882
21
0.4430907480314961
0
LINE
8
BLACK
6
CONTINUOUS
10
0.2769822440944882
20
0.4430907480314961
11
0.2820767716535433
21
0.4438976377952756
0
LINE
8
BLACK
6
CONTINUOUS
10
0.2820767716535433
20
0.4438976377952756
11
0.302253937007874
21
0.4438976377952756
0
LINE
8
BLACK
6
CONTINUOUS
10
0.302253937007874
20
0.4438976377952756
11
0.3073484645669291
21
0.4430907480314961
0
LINE
8
BLACK
6
CONTINUOUS
10
0.8631190157480315
20
0.4489964960629921
11
0.8690017716535433
21
0.4459090157480315
0
LINE
8
BLACK
6
CONTINUOUS
10
0.8690017716535433
20
0.4459090157480315
11
0.8739747244094488
21
0.4415033858267716
0
LINE
8
BLACK
6
CONTINUOUS
10
0.8739747244094488
20
0.4415033858267716
11
0.877748779527559
21
0.4360356692913386
0
LINE
8
BLACK
6
CONTINUOUS
10
0.877748779527559
20
0.4360356692913386
11
0.88010468503937
21
0.4298236614173228
0
LINE
8
BLACK
6
CONTINUOUS
10
0.88010468503937
20
0.4298236614173228
11
0.8809055118110236
21
0.4232283464566929
0
LINE
8
BLACK
6
CONTINUOUS
10
0.8809055118110236
20
0.4232283464566929
11
0.88010468503937
21
0.416633031496063
0
LINE
8
BLACK
6
CONTINUOUS
10
0.88010468503937
20
0.416633031496063
11
0.877748779527559
21
0.4104210236220472
0
LINE
8
BLACK
6
CONTINUOUS
10
0.877748779527559
20
0.4104210236220472
11
0.8739747244094488
21
0.4049533070866141
0
LINE
8
BLACK
6
CONTINUOUS
10
0.8739747244094488
20
0.4049533070866141
11
0.8690017716535433
21
0.4005476771653543
0
LINE
8
BLACK
6
CONTINUOUS
10
0.8690017716535433
20
0.4005476771653543
11
0.8631190157480315
21
0.3974601968503937
0
LINE
8
BLACK
6
CONTINUOUS
10
0.8631190157480315
20
0.3974601968503937
11
0.8566683464566929
21
0.3958702362204724
0
LINE
8
BLACK
6
CONTINUOUS
10
0.8566683464566929
20
0.3958702362204724
11
0.8500245669291339
21
0.3958702362204724
0
LINE
8
BLACK
6
CONTINUOUS
10
0.8500245669291339
20
0.3958702362204724
11
0.8435738976377952
21
0.3974601968503937
0
LINE
8
BLACK
6
CONTINUOUS
10
0.8435738976377952
20
0.3974601968503937
11
0.8376911417322834
21
0.4005476771653543
0
LINE
8
BLACK
6
CONTINUOUS
10
0.8376911417322834
20
0.4005476771653543
11
0.8327181889763779
21
0.4049533070866141
0
LINE
8
BLACK
6
CONTINUOUS
10
0.8327181889763779
20
0.4049533070866141
11
0.8289441338582677
21
0.4104210236220472
0
LINE
8
BLACK
6
CONTINUOUS
10
0.8289441338582677
20
0.4104210236220472
11
0.8265882283464566
21
0.416633031496063
0
LINE
8
BLACK
6
CONTINUOUS
10
0.8265882283464566
20
0.416633031496063
11
0.8257874015748031
21
0.4232283464566929
0
LINE
8
BLACK
6
CONTINUOUS
10
0.8257874015748031
20
0.4232283464566929
11
0.8265882283464566
21
0.4298236614173228
0
LINE
8
BLACK
6
CONTINUOUS
10
0.8265882283464566
20
0.4298236614173228
11
0.8289441338582677
21
0.4360356692913386
0
LINE
8
BLACK
6
CONTINUOUS
10
0.8289441338582677
20
0.4360356692913386
11
0.8327181889763779
21
0.4415033858267716
0
LINE
8
BLACK
6
CONTINUOUS
10
0.8327181889763779
20
0.4415033858267716
11
0.8376911417322834
21
0.4459090157480315
0
LINE
8
BLACK
6
CONTINUOUS
10
0.8376911417322834
20
0.4459090157480315
11
0.8435738976377952
21
0.4489964960629921
0
LINE
8
BLACK
6
CONTINUOUS
10
0.8435738976377952
20
0.4489964960629921
11
0.8500245669291339
21
0.4505864566929134
0
LINE
8
BLACK
6
CONTINUOUS
10
0.8500245669291339
20
0.4505864566929134
11
0.8566683464566929
21
0.4505864566929134
0
LINE
8
BLACK
6
CONTINUOUS
10
0.8566683464566929
20
0.4505864566929134
11
0.8631190157480315
21
0.4489964960629921
0
LINE
8
BLACK
6
CONTINUOUS
10
0.4565368897637795
20
0.4520384251968504
11
0.4590913779527559
21
0.4503315354330709
0
LINE
8
BLACK
6
CONTINUOUS
10
0.4590913779527559
20
0.4503315354330709
11
0.4607982677165354
21
0.4477770472440945
0
LINE
8
BLACK
6
CONTINUOUS
10
0.4607982677165354
20
0.4477770472440945
11
0.4613976377952756
21
0.444763779527559
0
LINE
8
BLACK
6
CONTINUOUS
10
0.4613976377952756
20
0.444763779527559
11
0.4613976377952756
21
0.409763779527559
0
LINE
8
BLACK
6
CONTINUOUS
10
0.4613976377952756
20
0.409763779527559
11
0.4607982677165354
21
0.4067505118110236
0
LINE
8
BLACK
6
CONTINUOUS
10
0.4607982677165354
20
0.4067505118110236
11
0.4590913779527559
21
0.4041960236220473
0
LINE
8
BLACK
6
CONTINUOUS
10
0.4590913779527559
20
0.4041960236220473
11
0.4565368897637795
21
0.4024891338582677
0
LINE
8
BLACK
6
CONTINUOUS
10
0.4565368897637795
20
0.4024891338582677
11
0.4535236220472441
21
0.4018897637795276
0
LINE
8
BLACK
6
CONTINUOUS
10
0.4535236220472441
20
0.4018897637795276
11
0.3985236220472441
21
0.4018897637795276
0
LINE
8
BLACK
6
CONTINUOUS
10
0.3985236220472441
20
0.4018897637795276
11
0.3955103543307086
21
0.4024891338582677
0
LINE
8
BLACK
6
CONTINUOUS
10
0.3955103543307086
20
0.4024891338582677
11
0.3929558661417323
21
0.4041960236220473
0
LINE
8
BLACK
6
CONTINUOUS
10
0.3929558661417323
20
0.4041960236220473
11
0.3912489763779528
21
0.4067505118110236
0
LINE
8
BLACK
6
CONTINUOUS
10
0.3912489763779528
20
0.4067505118110236
11
0.3906496062992126
21
0.409763779527559
0
LINE
8
BLACK
6
CONTINUOUS
10
0.3906496062992126
20
0.409763779527559
11
0.3906496062992126
21
0.444763779527559
0
LINE
8
BLACK
6
CONTINUOUS
10
0.3906496062992126
20
0.444763779527559
11
0.3912489763779528
21
0.4477770472440945
0
LINE
8
BLACK
6
CONTINUOUS
10
0.3912489763779528
20
0.4477770472440945
11
0.3929558661417323
21
0.4503315354330709
0
LINE
8
BLACK
6
CONTINUOUS
10
0.3929558661417323
20
0.4503315354330709
11
0.3955103543307086
21
0.4520384251968504
0
LINE
8
BLACK
6
CONTINUOUS
10
0.3955103543307086
20
0.4520384251968504
11
0.3985236220472441
21
0.4526377952755906
0
LINE
8
BLACK
6
CONTINUOUS
10
0.3985236220472441
20
0.4526377952755906
11
0.4535236220472441
21
0.4526377952755906
0
LINE
8
BLACK
6
CONTINUOUS
10
0.4535236220472441
20
0.4526377952755906
11
0.4565368897637795
21
0.4520384251968504
0
LINE
8
BLACK
6
CONTINUOUS
10
0.6251831102362204
20
0.4592915354330708
11
0.629778937007874
21
0.456949842519685
0
LINE
8
BLACK
6
CONTINUOUS
10
0.629778937007874
20
0.456949842519685
11
0.6334262204724409
21
0.4533025590551181
0
LINE
8
BLACK
6
CONTINUOUS
10
0.6334262204724409
20
0.4533025590551181
11
0.6357679133858267
21
0.4487067322834646
0
LINE
8
BLACK
6
CONTINUOUS
10
0.6357679133858267
20
0.4487067322834646
11
0.6365748031496062
21
0.4436122047244094
0
LINE
8
BLACK
6
CONTINUOUS
10
0.6365748031496062
20
0.4436122047244094
11
0.6365748031496062
21
0.4263877952755906
0
LINE
8
BLACK
6
CONTINUOUS
10
0.6365748031496062
20
0.4263877952755906
11
0.6357679133858267
21
0.4212932677165354
0
LINE
8
BLACK
6
CONTINUOUS
10
0.6357679133858267
20
0.4212932677165354
11
0.6334262204724409
21
0.4166974409448819
0
LINE
8
BLACK
6
CONTINUOUS
10
0.6334262204724409
20
0.4166974409448819
11
0.629778937007874
21
0.4130501574803149
0
LINE
8
BLACK
6
CONTINUOUS
10
0.629778937007874
20
0.4130501574803149
11
0.6251831102362204
21
0.4107084645669291
0
LINE
8
BLACK
6
CONTINUOUS
10
0.6251831102362204
20
0.4107084645669291
11
0.6200885826771654
21
0.4099015748031496
0
LINE
8
BLACK
6
CONTINUOUS
10
0.6200885826771654
20
0.4099015748031496
11
0.5999114173228346
21
0.4099015748031496
0
LINE
8
BLACK
6
CONTINUOUS
10
0.5999114173228346
20
0.4099015748031496
11
0.5948168897637796
21
0.4107084645669291
0
LINE
8
BLACK
6
CONTINUOUS
10
0.5948168897637796
20
0.4107084645669291
11
0.590221062992126
21
0.4130501574803149
0
LINE
8
BLACK
6
CONTINUOUS
10
0.590221062992126
20
0.4130501574803149
11
0.5865737795275591
21
0.4166974409448819
0
LINE
8
BLACK
6
CONTINUOUS
10
0.5865737795275591
20
0.4166974409448819
11
0.5842320866141733
21
0.4212932677165354
0
LINE
8
BLACK
6
CONTINUOUS
10
0.5842320866141733
20
0.4212932677165354
11
0.5834251968503937
21
0.4263877952755906
0
LINE
8
BLACK
6
CONTINUOUS
10
0.5834251968503937
20
0.4263877952755906
11
0.5834251968503937
21
0.4436122047244094
0
LINE
8
BLACK
6
CONTINUOUS
10
0.5834251968503937
20
0.4436122047244094
11
0.5842320866141733
21
0.4487067322834646
0
LINE
8
BLACK
6
CONTINUOUS
10
0.5842320866141733
20
0.4487067322834646
11
0.5865737795275591
21
0.4533025590551181
0
LINE
8
BLACK
6
CONTINUOUS
10
0.5865737795275591
20
0.4533025590551181
11
0.590221062992126
21
0.456949842519685
0
LINE
8
BLACK
6
CONTINUOUS
10
0.590221062992126
20
0.456949842519685
11
0.5948168897637796
21
0.4592915354330708
0
LINE
8
BLACK
6
CONTINUOUS
10
0.5948168897637796
20
0.4592915354330708
11
0.5999114173228346
21
0.4600984251968504
0
LINE
8
BLACK
6
CONTINUOUS
10
0.5999114173228346
20
0.4600984251968504
11
0.6200885826771654
21
0.4600984251968504
0
LINE
8
BLACK
6
CONTINUOUS
10
0.6200885826771654
20
0.4600984251968504
11
0.6251831102362204
21
0.4592915354330708
0
LINE
8
BLACK
6
CONTINUOUS
10
0.7151831102362205
20
0.4602954724409449
11
0.719778937007874
21
0.4579537795275591
0
LINE
8
BLACK
6
CONTINUOUS
10
0.719778937007874
20
0.4579537795275591
11
0.723426220472441
21
0.4543064960629921
0
LINE
8
BLACK
6
CONTINUOUS
10
0.723426220472441
20
0.4543064960629921
11
0.7257679133858268
21
0.4497106692913386
0
LINE
8
BLACK
6
CONTINUOUS
10
0.7257679133858268
20
0.4497106692913386
11
0.7265748031496063
21
0.4446161417322835
0
LINE
8
BLACK
6
CONTINUOUS
10
0.7265748031496063
20
0.4446161417322835
11
0.7265748031496063
21
0.4273917322834646
0
LINE
8
BLACK
6
CONTINUOUS
10
0.7265748031496063
20
0.4273917322834646
11
0.7257679133858268
21
0.4222972047244095
0
LINE
8
BLACK
6
CONTINUOUS
10
0.7257679133858268
20
0.4222972047244095
11
0.723426220472441
21
0.4177013779527559
0
LINE
8
BLACK
6
CONTINUOUS
10
0.723426220472441
20
0.4177013779527559
11
0.719778937007874
21
0.414054094488189
0
LINE
8
BLACK
6
CONTINUOUS
10
0.719778937007874
20
0.414054094488189
11
0.7151831102362205
21
0.4117124015748032
0
LINE
8
BLACK
6
CONTINUOUS
10
0.7151831102362205
20
0.4117124015748032
11
0.7100885826771653
21
0.4109055118110236
0
LINE
8
BLACK
6
CONTINUOUS
10
0.7100885826771653
20
0.4109055118110236
11
0.6899114173228347
21
0.4109055118110236
0
LINE
8
BLACK
6
CONTINUOUS
10
0.6899114173228347
20
0.4109055118110236
11
0.6848168897637795
21
0.4117124015748032
0
LINE
8
BLACK
6
CONTINUOUS
10
0.6848168897637795
20
0.4117124015748032
11
0.6802210629921259
21
0.414054094488189
0
LINE
8
BLACK
6
CONTINUOUS
10
0.6802210629921259
20
0.414054094488189
11
0.676573779527559
21
0.4177013779527559
0
LINE
8
BLACK
6
CONTINUOUS
10
0.676573779527559
20
0.4177013779527559
11
0.6742320866141732
21
0.4222972047244095
0
LINE
8
BLACK
6
CONTINUOUS
10
0.6742320866141732
20
0.4222972047244095
11
0.6734251968503937
21
0.4273917322834646
0
LINE
8
BLACK
6
CONTINUOUS
10
0.6734251968503937
20
0.4273917322834646
11
0.6734251968503937
21
0.4446161417322835
0
LINE
8
BLACK
6
CONTINUOUS
10
0.6734251968503937
20
0.4446161417322835
11
0.6742320866141732
21
0.4497106692913386
0
LINE
8
BLACK
6
CONTINUOUS
10
0.6742320866141732
20
0.4497106692913386
11
0.676573779527559
21
0.4543064960629921
0
LINE
8
BLACK
6
CONTINUOUS
10
0.676573779527559
20
0.4543064960629921
11
0.6802210629921259
21
0.4579537795275591
0
LINE
8
BLACK
6
CONTINUOUS
10
0.6802210629921259
20
0.4579537795275591
11
0.6848168897637795
21
0.4602954724409449
0
LINE
8
BLACK
6
CONTINUOUS
10
0.6848168897637795
20
0.4602954724409449
11
0.6899114173228347
21
0.4611023622047244
0
LINE
8
BLACK
6
CONTINUOUS
10
0.6899114173228347
20
0.4611023622047244
11
0.7100885826771653
21
0.4611023622047244
0
LINE
8
BLACK
6
CONTINUOUS
10
0.7100885826771653
20
0.4611023622047244
11
0.7151831102362205
21
0.4602954724409449
0
LINE
8
BLACK
6
CONTINUOUS
10
0.1114511811023622
20
0.4691793307086614
11
0.1164358661417323
21
0.4674351181102362
0
LINE
8
BLACK
6
CONTINUOUS
10
0.1164358661417323
20
0.4674351181102362
11
0.1206849606299213
21
0.4642991338582677
0
LINE
8
BLACK
6
CONTINUOUS
10
0.1206849606299213
20
0.4642991338582677
11
0.1238209448818898
21
0.4600500393700787
0
LINE
8
BLACK
6
CONTINUOUS
10
0.1238209448818898
20
0.4600500393700787
11
0.125565157480315
21
0.4550653543307087
0
LINE
8
BLACK
6
CONTINUOUS
10
0.125565157480315
20
0.4550653543307087
11
0.1258740157480315
21
0.4517716535433071
0
LINE
8
BLACK
6
CONTINUOUS
10
0.1258740157480315
20
0.4517716535433071
11
0.1258740157480315
21
0.4320866141732284
0
LINE
8
BLACK
6
CONTINUOUS
10
0.1258740157480315
20
0.4320866141732284
11
0.125565157480315
21
0.4287929133858268
0
LINE
8
BLACK
6
CONTINUOUS
10
0.125565157480315
20
0.4287929133858268
11
0.1238209448818898
21
0.4238082283464567
0
LINE
8
BLACK
6
CONTINUOUS
10
0.1238209448818898
20
0.4238082283464567
11
0.1206849606299213
21
0.4195591338582677
0
LINE
8
BLACK
6
CONTINUOUS
10
0.1206849606299213
20
0.4195591338582677
11
0.1164358661417323
21
0.4164231496062992
0
LINE
8
BLACK
6
CONTINUOUS
10
0.1164358661417323
20
0.4164231496062992
11
0.1114511811023622
21
0.414678937007874
0
LINE
8
BLACK
6
CONTINUOUS
10
0.1114511811023622
20
0.414678937007874
11
0.1081574803149606
21
0.4143700787401575
0
LINE
8
BLACK
6
CONTINUOUS
10
0.1081574803149606
20
0.4143700787401575
11
0.0215433070866142
21
0.4143700787401575
0
LINE
8
BLACK
6
CONTINUOUS
10
0.0215433070866142
20
0.4143700787401575
11
0.0182496062992126
21
0.414678937007874
0
LINE
8
BLACK
6
CONTINUOUS
10
0.0182496062992126
20
0.414678937007874
11
0.0132649212598425
21
0.4164231496062992
0
LINE
8
BLACK
6
CONTINUOUS
10
0.0132649212598425
20
0.4164231496062992
11
0.0090158267716535
21
0.4195591338582677
0
LINE
8
BLACK
6
CONTINUOUS
10
0.0090158267716535
20
0.4195591338582677
11
0.005879842519685
21
0.4238082283464567
0
LINE
8
BLACK
6
CONTINUOUS
10
0.005879842519685
20
0.4238082283464567
11
0.0041356299212598
21
0.4287929133858268
0
LINE
8
BLACK
6
CONTINUOUS
10
0.0041356299212598
20
0.4287929133858268
11
0.0038267716535433
21
0.4320866141732284
0
LINE
8
BLACK
6
CONTINUOUS
10
0.0038267716535433
20
0.4320866141732284
11
0.0038267716535433
21
0.4517716535433071
0
LINE
8
BLACK
6
CONTINUOUS
10
0.0038267716535433
20
0.4517716535433071
11
0.0041356299212598
21
0.4550653543307087
0
LINE
8
BLACK
6
CONTINUOUS
10
0.0041356299212598
20
0.4550653543307087
11
0.005879842519685
21
0.4600500393700787
0
LINE
8
BLACK
6
CONTINUOUS
10
0.005879842519685
20
0.4600500393700787
11
0.0090158267716535
21
0.4642991338582677
0
LINE
8
BLACK
6
CONTINUOUS
10
0.0090158267716535
20
0.4642991338582677
11
0.0132649212598425
21
0.4674351181102362
0
LINE
8
BLACK
6
CONTINUOUS
10
0.0132649212598425
20
0.4674351181102362
11
0.0182496062992126
21
0.4691793307086614
0
LINE
8
BLACK
6
CONTINUOUS
10
0.0182496062992126
20
0.4691793307086614
11
0.0215433070866142
21
0.469488188976378
0
LINE
8
BLACK
6
CONTINUOUS
10
0.0215433070866142
20
0.469488188976378
11
0.1081574803149606
21
0.469488188976378
0
LINE
8
BLACK
6
CONTINUOUS
10
0.1081574803149606
20
0.469488188976378
11
0.1114511811023622
21
0.4691793307086614
0
LINE
8
BLACK
6
CONTINUOUS
10
1.0141988582677166
20
0.4822246062992126
11
1.0187946850393701
21
0.4798829133858268
0
LINE
8
BLACK
6
CONTINUOUS
10
1.0187946850393701
20
0.4798829133858268
11
1.022441968503937
21
0.4762356299212598
0
LINE
8
BLACK
6
CONTINUOUS
10
1.022441968503937
20
0.4762356299212598
11
1.0247836614173229
21
0.4716398031496063
0
LINE
8
BLACK
6
CONTINUOUS
10
1.0247836614173229
20
0.4716398031496063
11
1.0255905511811023
21
0.4665452755905511
0
LINE
8
BLACK
6
CONTINUOUS
10
1.0255905511811023
20
0.4665452755905511
11
1.0255905511811023
21
0.4463681102362205
0
LINE
8
BLACK
6
CONTINUOUS
10
1.0255905511811023
20
0.4463681102362205
11
1.0247836614173229
21
0.4412735826771653
0
LINE
8
BLACK
6
CONTINUOUS
10
1.0247836614173229
20
0.4412735826771653
11
1.022441968503937
21
0.4366777559055118
0
LINE
8
BLACK
6
CONTINUOUS
10
1.022441968503937
20
0.4366777559055118
11
1.0187946850393701
21
0.4330304724409449
0
LINE
8
BLACK
6
CONTINUOUS
10
1.0187946850393701
20
0.4330304724409449
11
1.0141988582677166
21
0.430688779527559
0
LINE
8
BLACK
6
CONTINUOUS
10
1.0141988582677166
20
0.430688779527559
11
1.0091043307086613
21
0.4298818897637795
0
LINE
8
BLACK
6
CONTINUOUS
10
1.0091043307086613
20
0.4298818897637795
11
0.9918799212598425
21
0.4298818897637795
0
LINE
8
BLACK
6
CONTINUOUS
10
0.9918799212598425
20
0.4298818897637795
11
0.9867853937007873
21
0.430688779527559
0
LINE
8
BLACK
6
CONTINUOUS
10
0.9867853937007873
20
0.430688779527559
11
0.9821895669291338
21
0.4330304724409449
0
LINE
8
BLACK
6
CONTINUOUS
10
0.9821895669291338
20
0.4330304724409449
11
0.978542283464567
21
0.4366777559055118
0
LINE
8
BLACK
6
CONTINUOUS
10
0.978542283464567
20
0.4366777559055118
11
0.9762005905511811
21
0.4412735826771653
0
LINE
8
BLACK
6
CONTINUOUS
10
0.9762005905511811
20
0.4412735826771653
11
0.9753937007874015
21
0.4463681102362205
0
LINE
8
BLACK
6
CONTINUOUS
10
0.9753937007874015
20
0.4463681102362205
11
0.9753937007874015
21
0.4665452755905511
0
LINE
8
BLACK
6
CONTINUOUS
10
0.9753937007874015
20
0.4665452755905511
11
0.9762005905511811
21
0.4716398031496063
0
LINE
8
BLACK
6
CONTINUOUS
10
0.9762005905511811
20
0.4716398031496063
11
0.978542283464567
21
0.4762356299212598
0
LINE
8
BLACK
6
CONTINUOUS
10
0.978542283464567
20
0.4762356299212598
11
0.9821895669291338
21
0.4798829133858268
0
LINE
8
BLACK
6
CONTINUOUS
10
0.9821895669291338
20
0.4798829133858268
11
0.9867853937007873
21
0.4822246062992126
0
LINE
8
BLACK
6
CONTINUOUS
10
0.9867853937007873
20
0.4822246062992126
11
0.9918799212598425
21
0.4830314960629921
0
LINE
8
BLACK
6
CONTINUOUS
10
0.9918799212598425
20
0.4830314960629921
11
1.0091043307086613
21
0.4830314960629921
0
LINE
8
BLACK
6
CONTINUOUS
10
1.0091043307086613
20
0.4830314960629921
11
1.0141988582677166
21
0.4822246062992126
0
LINE
8
BLACK
6
CONTINUOUS
10
1.0762067322834645
20
0.4822246062992126
11
1.080802559055118
21
0.4798829133858268
0
LINE
8
BLACK
6
CONTINUOUS
10
1.080802559055118
20
0.4798829133858268
11
1.0844498425196851
21
0.4762356299212598
0
LINE
8
BLACK
6
CONTINUOUS
10
1.0844498425196851
20
0.4762356299212598
11
1.0867915354330708
21
0.4716398031496063
0
LINE
8
BLACK
6
CONTINUOUS
10
1.0867915354330708
20
0.4716398031496063
11
1.0875984251968505
21
0.4665452755905511
0
LINE
8
BLACK
6
CONTINUOUS
10
1.0875984251968505
20
0.4665452755905511
11
1.0875984251968505
21
0.4463681102362205
0
LINE
8
BLACK
6
CONTINUOUS
10
1.0875984251968505
20
0.4463681102362205
11
1.0867915354330708
21
0.4412735826771653
0
LINE
8
BLACK
6
CONTINUOUS
10
1.0867915354330708
20
0.4412735826771653
11
1.0844498425196851
21
0.4366777559055118
0
LINE
8
BLACK
6
CONTINUOUS
10
1.0844498425196851
20
0.4366777559055118
11
1.080802559055118
21
0.4330304724409449
0
LINE
8
BLACK
6
CONTINUOUS
10
1.080802559055118
20
0.4330304724409449
11
1.0762067322834645
21
0.430688779527559
0
LINE
8
BLACK
6
CONTINUOUS
10
1.0762067322834645
20
0.430688779527559
11
1.0711122047244095
21
0.4298818897637795
0
LINE
8
BLACK
6
CONTINUOUS
10
1.0711122047244095
20
0.4298818897637795
11
1.0538877952755905
21
0.4298818897637795
0
LINE
8
BLACK
6
CONTINUOUS
10
1.0538877952755905
20
0.4298818897637795
11
1.0487932677165355
21
0.430688779527559
0
LINE
8
BLACK
6
CONTINUOUS
10
1.0487932677165355
20
0.430688779527559
11
1.0441974409448818
21
0.4330304724409449
0
LINE
8
BLACK
6
CONTINUOUS
10
1.0441974409448818
20
0.4330304724409449
11
1.0405501574803149
21
0.4366777559055118
0
LINE
8
BLACK
6
CONTINUOUS
10
1.0405501574803149
20
0.4366777559055118
11
1.0382084645669292
21
0.4412735826771653
0
LINE
8
BLACK
6
CONTINUOUS
10
1.0382084645669292
20
0.4412735826771653
11
1.0374015748031495
21
0.4463681102362205
0
LINE
8
BLACK
6
CONTINUOUS
10
1.0374015748031495
20
0.4463681102362205
11
1.0374015748031495
21
0.4665452755905511
0
LINE
8
BLACK
6
CONTINUOUS
10
1.0374015748031495
20
0.4665452755905511
11
1.0382084645669292
21
0.4716398031496063
0
LINE
8
BLACK
6
CONTINUOUS
10
1.0382084645669292
20
0.4716398031496063
11
1.0405501574803149
21
0.4762356299212598
0
LINE
8
BLACK
6
CONTINUOUS
10
1.0405501574803149
20
0.4762356299212598
11
1.0441974409448818
21
0.4798829133858268
0
LINE
8
BLACK
6
CONTINUOUS
10
1.0441974409448818
20
0.4798829133858268
11
1.0487932677165355
21
0.4822246062992126
0
LINE
8
BLACK
6
CONTINUOUS
10
1.0487932677165355
20
0.4822246062992126
11
1.0538877952755905
21
0.4830314960629921
0
LINE
8
BLACK
6
CONTINUOUS
10
1.0538877952755905
20
0.4830314960629921
11
1.0711122047244095
21
0.4830314960629921
0
LINE
8
BLACK
6
CONTINUOUS
10
1.0711122047244095
20
0.4830314960629921
11
1.0762067322834645
21
0.4822246062992126
0
LINE
8
BLACK
6
CONTINUOUS
10
0.9083946062992125
20
0.4993193307086614
11
0.9142773622047244
21
0.4962318503937008
0
LINE
8
BLACK
6
CONTINUOUS
10
0.9142773622047244
20
0.4962318503937008
11
0.9192503149606299
21
0.491826220472441
0
LINE
8
BLACK
6
CONTINUOUS
10
0.9192503149606299
20
0.491826220472441
11
0.9230243700787402
21
0.4863585039370079
0
LINE
8
BLACK
6
CONTINUOUS
10
0.9230243700787402
20
0.4863585039370079
11
0.9253802755905511
21
0.4801464960629921
0
LINE
8
BLACK
6
CONTINUOUS
10
0.9253802755905511
20
0.4801464960629921
11
0.9261811023622047
21
0.4735511811023622
0
LINE
8
BLACK
6
CONTINUOUS
10
0.9261811023622047
20
0.4735511811023622
11
0.9253802755905511
21
0.4669558661417323
0
LINE
8
BLACK
6
CONTINUOUS
10
0.9253802755905511
20
0.4669558661417323
11
0.9230243700787402
21
0.4607438582677165
0
LINE
8
BLACK
6
CONTINUOUS
10
0.9230243700787402
20
0.4607438582677165
11
0.9192503149606299
21
0.4552761417322835
0
LINE
8
BLACK
6
CONTINUOUS
10
0.9192503149606299
20
0.4552761417322835
11
0.9142773622047244
21
0.4508705118110236
0
LINE
8
BLACK
6
CONTINUOUS
10
0.9142773622047244
20
0.4508705118110236
11
0.9083946062992125
21
0.447783031496063
0
LINE
8
BLACK
6
CONTINUOUS
10
0.9083946062992125
20
0.447783031496063
11
0.901943937007874
21
0.4461930708661417
0
LINE
8
BLACK
6
CONTINUOUS
10
0.901943937007874
20
0.4461930708661417
11
0.895300157480315
21
0.4461930708661417
0
LINE
8
BLACK
6
CONTINUOUS
10
0.895300157480315
20
0.4461930708661417
11
0.8888494881889764
21
0.447783031496063
0
LINE
8
BLACK
6
CONTINUOUS
10
0.8888494881889764
20
0.447783031496063
11
0.8829667322834646
21
0.4508705118110236
0
LINE
8
BLACK
6
CONTINUOUS
10
0.8829667322834646
20
0.4508705118110236
11
0.8779937795275591
21
0.4552761417322835
0
LINE
8
BLACK
6
CONTINUOUS
10
0.8779937795275591
20
0.4552761417322835
11
0.8742197244094488
21
0.4607438582677165
0
LINE
8
BLACK
6
CONTINUOUS
10
0.8742197244094488
20
0.4607438582677165
11
0.8718638188976378
21
0.4669558661417323
0
LINE
8
BLACK
6
CONTINUOUS
10
0.8718638188976378
20
0.4669558661417323
11
0.8710629921259843
21
0.4735511811023622
0
LINE
8
BLACK
6
CONTINUOUS
10
0.8710629921259843
20
0.4735511811023622
11
0.8718638188976378
21
0.4801464960629921
0
LINE
8
BLACK
6
CONTINUOUS
10
0.8718638188976378
20
0.4801464960629921
11
0.8742197244094488
21
0.4863585039370079
0
LINE
8
BLACK
6
CONTINUOUS
10
0.8742197244094488
20
0.4863585039370079
11
0.8779937795275591
21
0.491826220472441
0
LINE
8
BLACK
6
CONTINUOUS
10
0.8779937795275591
20
0.491826220472441
11
0.8829667322834646
21
0.4962318503937008
0
LINE
8
BLACK
6
CONTINUOUS
10
0.8829667322834646
20
0.4962318503937008
11
0.8888494881889764
21
0.4993193307086614
0
LINE
8
BLACK
6
CONTINUOUS
10
0.8888494881889764
20
0.4993193307086614
11
0.895300157480315
21
0.5009092913385826
0
LINE
8
BLACK
6
CONTINUOUS
10
0.895300157480315
20
0.5009092913385826
11
0.901943937007874
21
0.5009092913385826
0
LINE
8
BLACK
6
CONTINUOUS
10
0.901943937007874
20
0.5009092913385826
11
0.9083946062992125
21
0.4993193307086614
0
LINE
8
BLACK
6
CONTINUOUS
10
0.2859431496062992
20
0.5486124803149606
11
0.2902124015748032
21
0.5465253543307087
0
LINE
8
BLACK
6
CONTINUOUS
10
0.2902124015748032
20
0.5465253543307087
11
0.2935725984251968
21
0.5431651574803149
0
LINE
8
BLACK
6
CONTINUOUS
10
0.2935725984251968
20
0.5431651574803149
11
0.2956597244094488
21
0.538895905511811
0
LINE
8
BLACK
6
CONTINUOUS
10
0.2956597244094488
20
0.538895905511811
11
0.2962598031496063
21
0.5347768503937008
0
LINE
8
BLACK
6
CONTINUOUS
10
0.2962598031496063
20
0.5347768503937008
11
0.296259842519685
21
0.4888451574803149
0
LINE
8
BLACK
6
CONTINUOUS
10
0.296259842519685
20
0.4888451574803149
11
0.2956597244094488
21
0.4847261417322835
0
LINE
8
BLACK
6
CONTINUOUS
10
0.2956597244094488
20
0.4847261417322835
11
0.2935725984251968
21
0.4804568897637795
0
LINE
8
BLACK
6
CONTINUOUS
10
0.2935725984251968
20
0.4804568897637795
11
0.2902124015748032
21
0.4770966929133858
0
LINE
8
BLACK
6
CONTINUOUS
10
0.2902124015748032
20
0.4770966929133858
11
0.2859431496062992
21
0.4750095669291339
0
LINE
8
BLACK
6
CONTINUOUS
10
0.2859431496062992
20
0.4750095669291339
11
0.281824094488189
21
0.4744094881889764
0
LINE
8
BLACK
6
CONTINUOUS
10
0.281824094488189
20
0.4744094881889764
11
0.2457349212598425
21
0.4744094488188976
0
LINE
8
BLACK
6
CONTINUOUS
10
0.2457349212598425
20
0.4744094488188976
11
0.241615905511811
21
0.4750095669291339
0
LINE
8
BLACK
6
CONTINUOUS
10
0.241615905511811
20
0.4750095669291339
11
0.2373466535433071
21
0.4770966929133858
0
LINE
8
BLACK
6
CONTINUOUS
10
0.2373466535433071
20
0.4770966929133858
11
0.2339864566929134
21
0.4804568897637795
0
LINE
8
BLACK
6
CONTINUOUS
10
0.2339864566929134
20
0.4804568897637795
11
0.2318993307086614
21
0.4847261417322835
0
LINE
8
BLACK
6
CONTINUOUS
10
0.2318993307086614
20
0.4847261417322835
11
0.2312992519685039
21
0.4888451968503937
0
LINE
8
BLACK
6
CONTINUOUS
10
0.2312992519685039
20
0.4888451968503937
11
0.2312992125984252
21
0.5347768897637795
0
LINE
8
BLACK
6
CONTINUOUS
10
0.2312992125984252
20
0.5347768897637795
11
0.2318993307086614
21
0.538895905511811
0
LINE
8
BLACK
6
CONTINUOUS
10
0.2318993307086614
20
0.538895905511811
11
0.2339864566929134
21
0.5431651574803149
0
LINE
8
BLACK
6
CONTINUOUS
10
0.2339864566929134
20
0.5431651574803149
11
0.2373466535433071
21
0.5465253543307087
0
LINE
8
BLACK
6
CONTINUOUS
10
0.2373466535433071
20
0.5465253543307087
11
0.241615905511811
21
0.5486124803149606
0
LINE
8
BLACK
6
CONTINUOUS
10
0.241615905511811
20
0.5486124803149606
11
0.2457349606299213
21
0.5492125590551181
0
LINE
8
BLACK
6
CONTINUOUS
10
0.2457349606299213
20
0.5492125590551181
11
0.2818241338582677
21
0.5492125984251969
0
LINE
8
BLACK
6
CONTINUOUS
10
0.2818241338582677
20
0.5492125984251969
11
0.2859431496062992
21
0.5486124803149606
0
LINE
8
BLACK
6
CONTINUOUS
10
0.4276754330708661
20
0.5486124803149606
11
0.4319446850393701
21
0.5465253543307087
0
LINE
8
BLACK
6
CONTINUOUS
10
0.4319446850393701
20
0.5465253543307087
11
0.4353048818897638
21
0.5431651574803149
0
LINE
8
BLACK
6
CONTINUOUS
10
0.4353048818897638
20
0.5431651574803149
11
0.4373920078740157
21
0.538895905511811
0
LINE
8
BLACK
6
CONTINUOUS
10
0.4373920078740157
20
0.538895905511811
11
0.4379920866141732
21
0.5347768503937008
0
LINE
8
BLACK
6
CONTINUOUS
10
0.4379920866141732
20
0.5347768503937008
11
0.437992125984252
21
0.4888451574803149
0
LINE
8
BLACK
6
CONTINUOUS
10
0.437992125984252
20
0.4888451574803149
11
0.4373920078740157
21
0.4847261417322835
0
LINE
8
BLACK
6
CONTINUOUS
10
0.4373920078740157
20
0.4847261417322835
11
0.4353048818897638
21
0.4804568897637795
0
LINE
8
BLACK
6
CONTINUOUS
10
0.4353048818897638
20
0.4804568897637795
11
0.4319446850393701
21
0.4770966929133858
0
LINE
8
BLACK
6
CONTINUOUS
10
0.4319446850393701
20
0.4770966929133858
11
0.4276754330708661
21
0.4750095669291339
0
LINE
8
BLACK
6
CONTINUOUS
10
0.4276754330708661
20
0.4750095669291339
11
0.4235563779527559
21
0.4744094881889764
0
LINE
8
BLACK
6
CONTINUOUS
10
0.4235563779527559
20
0.4744094881889764
11
0.3874672047244094
21
0.4744094488188976
0
LINE
8
BLACK
6
CONTINUOUS
10
0.3874672047244094
20
0.4744094488188976
11
0.383348188976378
21
0.4750095669291339
0
LINE
8
BLACK
6
CONTINUOUS
10
0.383348188976378
20
0.4750095669291339
11
0.379078937007874
21
0.4770966929133858
0
LINE
8
BLACK
6
CONTINUOUS
10
0.379078937007874
20
0.4770966929133858
11
0.3757187401574803
21
0.4804568897637795
0
LINE
8
BLACK
6
CONTINUOUS
10
0.3757187401574803
20
0.4804568897637795
11
0.3736316141732283
21
0.4847261417322835
0
LINE
8
BLACK
6
CONTINUOUS
10
0.3736316141732283
20
0.4847261417322835
11
0.3730315354330709
21
0.4888451968503937
0
LINE
8
BLACK
6
CONTINUOUS
10
0.3730315354330709
20
0.4888451968503937
11
0.3730314960629921
21
0.5347768897637795
0
LINE
8
BLACK
6
CONTINUOUS
10
0.3730314960629921
20
0.5347768897637795
11
0.3736316141732283
21
0.538895905511811
0
LINE
8
BLACK
6
CONTINUOUS
10
0.3736316141732283
20
0.538895905511811
11
0.3757187401574803
21
0.5431651574803149
0
LINE
8
BLACK
6
CONTINUOUS
10
0.3757187401574803
20
0.5431651574803149
11
0.379078937007874
21
0.5465253543307087
0
LINE
8
BLACK
6
CONTINUOUS
10
0.379078937007874
20
0.5465253543307087
11
0.383348188976378
21
0.5486124803149606
0
LINE
8
BLACK
6
CONTINUOUS
10
0.383348188976378
20
0.5486124803149606
11
0.3874672440944882
21
0.5492125590551181
0
LINE
8
BLACK
6
CONTINUOUS
10
0.3874672440944882
20
0.5492125590551181
11
0.4235564173228346
21
0.5492125984251969
0
LINE
8
BLACK
6
CONTINUOUS
10
0.4235564173228346
20
0.5492125984251969
11
0.4276754330708661
21
0.5486124803149606
0
LINE
8
BLACK
6
CONTINUOUS
10
0.954772559055118
20
0.5427681496062992
11
0.9606553149606299
21
0.5396806692913386
0
LINE
8
BLACK
6
CONTINUOUS
10
0.9606553149606299
20
0.5396806692913386
11
0.9656282677165354
21
0.5352750393700787
0
LINE
8
BLACK
6
CONTINUOUS
10
0.9656282677165354
20
0.5352750393700787
11
0.9694023228346457
21
0.5298073228346457
0
LINE
8
BLACK
6
CONTINUOUS
10
0.9694023228346457
20
0.5298073228346457
11
0.9717582283464566
21
0.5235953149606299
0
LINE
8
BLACK
6
CONTINUOUS
10
0.9717582283464566
20
0.5235953149606299
11
0.9725590551181102
21
0.517
0
LINE
8
BLACK
6
CONTINUOUS
10
0.9725590551181102
20
0.517
11
0.9717582283464566
21
0.5104046850393701
0
LINE
8
BLACK
6
CONTINUOUS
10
0.9717582283464566
20
0.5104046850393701
11
0.9694023228346457
21
0.5041926771653543
0
LINE
8
BLACK
6
CONTINUOUS
10
0.9694023228346457
20
0.5041926771653543
11
0.9656282677165354
21
0.4987249606299212
0
LINE
8
BLACK
6
CONTINUOUS
10
0.9656282677165354
20
0.4987249606299212
11
0.9606553149606299
21
0.4943193307086614
0
LINE
8
BLACK
6
CONTINUOUS
10
0.9606553149606299
20
0.4943193307086614
11
0.954772559055118
21
0.4912318503937008
0
LINE
8
BLACK
6
CONTINUOUS
10
0.954772559055118
20
0.4912318503937008
11
0.9483218897637795
21
0.4896418897637795
0
LINE
8
BLACK
6
CONTINUOUS
10
0.9483218897637795
20
0.4896418897637795
11
0.9416781102362205
21
0.4896418897637795
0
LINE
8
BLACK
6
CONTINUOUS
10
0.9416781102362205
20
0.4896418897637795
11
0.9352274409448819
21
0.4912318503937008
0
LINE
8
BLACK
6
CONTINUOUS
10
0.9352274409448819
20
0.4912318503937008
11
0.9293446850393701
21
0.4943193307086614
0
LINE
8
BLACK
6
CONTINUOUS
10
0.9293446850393701
20
0.4943193307086614
11
0.9243717322834646
21
0.4987249606299212
0
LINE
8
BLACK
6
CONTINUOUS
10
0.9243717322834646
20
0.4987249606299212
11
0.9205976771653543
21
0.5041926771653543
0
LINE
8
BLACK
6
CONTINUOUS
10
0.9205976771653543
20
0.5041926771653543
11
0.9182417716535433
21
0.5104046850393701
0
LINE
8
BLACK
6
CONTINUOUS
10
0.9182417716535433
20
0.5104046850393701
11
0.9174409448818898
21
0.517
0
LINE
8
BLACK
6
CONTINUOUS
10
0.9174409448818898
20
0.517
11
0.9182417716535433
21
0.5235953149606299
0
LINE
8
BLACK
6
CONTINUOUS
10
0.9182417716535433
20
0.5235953149606299
11
0.9205976771653543
21
0.5298073228346457
0
LINE
8
BLACK
6
CONTINUOUS
10
0.9205976771653543
20
0.5298073228346457
11
0.9243717322834646
21
0.5352750393700787
0
LINE
8
BLACK
6
CONTINUOUS
10
0.9243717322834646
20
0.5352750393700787
11
0.9293446850393701
21
0.5396806692913386
0
LINE
8
BLACK
6
CONTINUOUS
10
0.9293446850393701
20
0.5396806692913386
11
0.9352274409448819
21
0.5427681496062992
0
LINE
8
BLACK
6
CONTINUOUS
10
0.9352274409448819
20
0.5427681496062992
11
0.9416781102362205
21
0.5443581102362205
0
LINE
8
BLACK
6
CONTINUOUS
10
0.9416781102362205
20
0.5443581102362205
11
0.9483218897637795
21
0.5443581102362205
0
LINE
8
BLACK
6
CONTINUOUS
10
0.9483218897637795
20
0.5443581102362205
11
0.954772559055118
21
0.5427681496062992
0
LINE
8
BLACK
6
CONTINUOUS
10
0.1129223622047244
20
0.6477992125984252
11
0.1221473622047244
21
0.6446322834645669
0
LINE
8
BLACK
6
CONTINUOUS
10
0.1221473622047244
20
0.6446322834645669
11
0.1307252755905512
21
0.639990157480315
0
LINE
8
BLACK
6
CONTINUOUS
10
0.1307252755905512
20
0.639990157480315
11
0.138422125984252
21
0.6339994488188976
0
LINE
8
BLACK
6
CONTINUOUS
10
0.138422125984252
20
0.6339994488188976
11
0.1450279921259842
21
0.6268235826771653
0
LINE
8
BLACK
6
CONTINUOUS
10
0.1450279921259842
20
0.6268235826771653
11
0.1503626377952756
21
0.6186583070866142
0
LINE
8
BLACK
6
CONTINUOUS
10
0.1503626377952756
20
0.6186583070866142
11
0.1542805511811024
21
0.6097263385826771
0
LINE
8
BLACK
6
CONTINUOUS
10
0.1542805511811024
20
0.6097263385826771
11
0.1566748818897638
21
0.6002713385826771
0
LINE
8
BLACK
6
CONTINUOUS
10
0.1566748818897638
20
0.6002713385826771
11
0.1574803149606299
21
0.5905511811023622
0
LINE
8
BLACK
6
CONTINUOUS
10
0.1574803149606299
20
0.5905511811023622
11
0.1566748818897638
21
0.5808310236220472
0
LINE
8
BLACK
6
CONTINUOUS
10
0.1566748818897638
20
0.5808310236220472
11
0.1542805511811024
21
0.5713760236220472
0
LINE
8
BLACK
6
CONTINUOUS
10
0.1542805511811024
20
0.5713760236220472
11
0.1503626377952756
21
0.5624440551181102
0
LINE
8
BLACK
6
CONTINUOUS
10
0.1503626377952756
20
0.5624440551181102
11
0.1450279921259842
21
0.554278779527559
0
LINE
8
BLACK
6
CONTINUOUS
10
0.1450279921259842
20
0.554278779527559
11
0.138422125984252
21
0.5471029133858267
0
LINE
8
BLACK
6
CONTINUOUS
10
0.138422125984252
20
0.5471029133858267
11
0.1307252755905512
21
0.5411122047244095
0
LINE
8
BLACK
6
CONTINUOUS
10
0.1307252755905512
20
0.5411122047244095
11
0.1221473622047244
21
0.5364700787401575
0
LINE
8
BLACK
6
CONTINUOUS
10
0.1221473622047244
20
0.5364700787401575
11
0.1129223622047244
21
0.5333031496062992
0
LINE
8
BLACK
6
CONTINUOUS
10
0.1129223622047244
20
0.5333031496062992
11
0.1033019291338583
21
0.5316977559055118
0
LINE
8
BLACK
6
CONTINUOUS
10
0.1033019291338583
20
0.5316977559055118
11
0.0935484645669291
21
0.5316977559055118
0
LINE
8
BLACK
6
CONTINUOUS
10
0.0935484645669291
20
0.5316977559055118
11
0.083928031496063
21
0.5333031496062992
0
LINE
8
BLACK
6
CONTINUOUS
10
0.083928031496063
20
0.5333031496062992
11
0.074703031496063
21
0.5364700787401575
0
LINE
8
BLACK
6
CONTINUOUS
10
0.074703031496063
20
0.5364700787401575
11
0.0661251181102362
21
0.5411122047244095
0
LINE
8
BLACK
6
CONTINUOUS
10
0.0661251181102362
20
0.5411122047244095
11
0.0584282677165354
21
0.5471029133858267
0
LINE
8
BLACK
6
CONTINUOUS
10
0.0584282677165354
20
0.5471029133858267
11
0.0518224015748031
21
0.554278779527559
0
LINE
8
BLACK
6
CONTINUOUS
10
0.0518224015748031
20
0.554278779527559
11
0.0464877559055118
21
0.5624440551181102
0
LINE
8
BLACK
6
CONTINUOUS
10
0.0464877559055118
20
0.5624440551181102
11
0.042569842519685
21
0.5713760236220472
0
LINE
8
BLACK
6
CONTINUOUS
10
0.042569842519685
20
0.5713760236220472
11
0.0401755118110236
21
0.5808310236220472
0
LINE
8
BLACK
6
CONTINUOUS
10
0.0401755118110236
20
0.5808310236220472
11
0.0393700787401575
21
0.5905511811023622
0
LINE
8
BLACK
6
CONTINUOUS
10
0.0393700787401575
20
0.5905511811023622
11
0.0401755118110236
21
0.6002713385826771
0
LINE
8
BLACK
6
CONTINUOUS
10
0.0401755118110236
20
0.6002713385826771
11
0.042569842519685
21
0.6097263385826771
0
LINE
8
BLACK
6
CONTINUOUS
10
0.042569842519685
20
0.6097263385826771
11
0.0464877559055118
21
0.6186583070866142
0
LINE
8
BLACK
6
CONTINUOUS
10
0.0464877559055118
20
0.6186583070866142
11
0.0518224015748031
21
0.6268235826771653
0
LINE
8
BLACK
6
CONTINUOUS
10
0.0518224015748031
20
0.6268235826771653
11
0.0584282677165354
21
0.6339994488188976
0
LINE
8
BLACK
6
CONTINUOUS
10
0.0584282677165354
20
0.6339994488188976
11
0.0661251181102362
21
0.639990157480315
0
LINE
8
BLACK
6
CONTINUOUS
10
0.0661251181102362
20
0.639990157480315
11
0.074703031496063
21
0.6446322834645669
0
LINE
8
BLACK
6
CONTINUOUS
10
0.074703031496063
20
0.6446322834645669
11
0.083928031496063
21
0.6477992125984252
0
LINE
8
BLACK
6
CONTINUOUS
10
0.083928031496063
20
0.6477992125984252
11
0.0935484645669291
21
0.6494046062992126
0
LINE
8
BLACK
6
CONTINUOUS
10
0.0935484645669291
20
0.6494046062992126
11
0.1033019291338583
21
0.6494046062992126
0
LINE
8
BLACK
6
CONTINUOUS
10
0.1033019291338583
20
0.6494046062992126
11
0.1129223622047244
21
0.6477992125984252
0
LINE
8
BLACK
6
CONTINUOUS
10
0.5066231496062992
20
0.6477992125984252
11
0.5158481496062992
21
0.6446322834645669
0
LINE
8
BLACK
6
CONTINUOUS
10
0.5158481496062992
20
0.6446322834645669
11
0.524426062992126
21
0.639990157480315
0
LINE
8
BLACK
6
CONTINUOUS
10
0.524426062992126
20
0.639990157480315
11
0.5321229133858267
21
0.6339994488188976
0
LINE
8
BLACK
6
CONTINUOUS
10
0.5321229133858267
20
0.6339994488188976
11
0.538728779527559
21
0.6268235826771653
0
LINE
8
BLACK
6
CONTINUOUS
10
0.538728779527559
20
0.6268235826771653
11
0.5440634251968504
21
0.6186583070866142
0
LINE
8
BLACK
6
CONTINUOUS
10
0.5440634251968504
20
0.6186583070866142
11
0.5479813385826772
21
0.6097263385826771
0
LINE
8
BLACK
6
CONTINUOUS
10
0.5479813385826772
20
0.6097263385826771
11
0.5503756692913385
21
0.6002713385826771
0
LINE
8
BLACK
6
CONTINUOUS
10
0.5503756692913385
20
0.6002713385826771
11
0.5511811023622047
21
0.5905511811023622
0
LINE
8
BLACK
6
CONTINUOUS
10
0.5511811023622047
20
0.5905511811023622
11
0.5503756692913385
21
0.5808310236220472
0
LINE
8
BLACK
6
CONTINUOUS
10
0.5503756692913385
20
0.5808310236220472
11
0.5479813385826772
21
0.5713760236220472
0
LINE
8
BLACK
6
CONTINUOUS
10
0.5479813385826772
20
0.5713760236220472
11
0.5440634251968504
21
0.5624440551181102
0
LINE
8
BLACK
6
CONTINUOUS
10
0.5440634251968504
20
0.5624440551181102
11
0.538728779527559
21
0.554278779527559
0
LINE
8
BLACK
6
CONTINUOUS
10
0.538728779527559
20
0.554278779527559
11
0.5321229133858267
21
0.5471029133858267
0
LINE
8
BLACK
6
CONTINUOUS
10
0.5321229133858267
20
0.5471029133858267
11
0.524426062992126
21
0.5411122047244095
0
LINE
8
BLACK
6
CONTINUOUS
10
0.524426062992126
20
0.5411122047244095
11
0.5158481496062992
21
0.5364700787401575
0
LINE
8
BLACK
6
CONTINUOUS
10
0.5158481496062992
20
0.5364700787401575
11
0.5066231496062992
21
0.5333031496062992
0
LINE
8
BLACK
6
CONTINUOUS
10
0.5066231496062992
20
0.5333031496062992
11
0.497002716535433
21
0.5316977559055118
0
LINE
8
BLACK
6
CONTINUOUS
10
0.497002716535433
20
0.5316977559055118
11
0.4872492519685039
21
0.5316977559055118
0
LINE
8
BLACK
6
CONTINUOUS
10
0.4872492519685039
20
0.5316977559055118
11
0.4776288188976378
21
0.5333031496062992
0
LINE
8
BLACK
6
CONTINUOUS
10
0.4776288188976378
20
0.5333031496062992
11
0.4684038188976378
21
0.5364700787401575
0
LINE
8
BLACK
6
CONTINUOUS
10
0.4684038188976378
20
0.5364700787401575
11
0.459825905511811
21
0.5411122047244095
0
LINE
8
BLACK
6
CONTINUOUS
10
0.459825905511811
20
0.5411122047244095
11
0.4521290551181102
21
0.5471029133858267
0
LINE
8
BLACK
6
CONTINUOUS
10
0.4521290551181102
20
0.5471029133858267
11
0.4455231889763779
21
0.554278779527559
0
LINE
8
BLACK
6
CONTINUOUS
10
0.4455231889763779
20
0.554278779527559
11
0.4401885433070866
21
0.5624440551181102
0
LINE
8
BLACK
6
CONTINUOUS
10
0.4401885433070866
20
0.5624440551181102
11
0.4362706299212598
21
0.5713760236220472
0
LINE
8
BLACK
6
CONTINUOUS
10
0.4362706299212598
20
0.5713760236220472
11
0.4338762992125984
21
0.5808310236220472
0
LINE
8
BLACK
6
CONTINUOUS
10
0.4338762992125984
20
0.5808310236220472
11
0.4330708661417323
21
0.5905511811023622
0
LINE
8
BLACK
6
CONTINUOUS
10
0.4330708661417323
20
0.5905511811023622
11
0.4338762992125984
21
0.6002713385826771
0
LINE
8
BLACK
6
CONTINUOUS
10
0.4338762992125984
20
0.6002713385826771
11
0.4362706299212598
21
0.6097263385826771
0
LINE
8
BLACK
6
CONTINUOUS
10
0.4362706299212598
20
0.6097263385826771
11
0.4401885433070866
21
0.6186583070866142
0
LINE
8
BLACK
6
CONTINUOUS
10
0.4401885433070866
20
0.6186583070866142
11
0.4455231889763779
21
0.6268235826771653
0
LINE
8
BLACK
6
CONTINUOUS
10
0.4455231889763779
20
0.6268235826771653
11
0.4521290551181102
21
0.6339994488188976
0
LINE
8
BLACK
6
CONTINUOUS
10
0.4521290551181102
20
0.6339994488188976
11
0.459825905511811
21
0.639990157480315
0
LINE
8
BLACK
6
CONTINUOUS
10
0.459825905511811
20
0.639990157480315
11
0.4684038188976378
21
0.6446322834645669
0
LINE
8
BLACK
6
CONTINUOUS
10
0.4684038188976378
20
0.6446322834645669
11
0.4776288188976378
21
0.6477992125984252
0
LINE
8
BLACK
6
CONTINUOUS
10
0.4776288188976378
20
0.6477992125984252
11
0.4872492519685039
21
0.6494046062992126
0
LINE
8
BLACK
6
CONTINUOUS
10
0.4872492519685039
20
0.6494046062992126
11
0.497002716535433
21
0.6494046062992126
0
LINE
8
BLACK
6
CONTINUOUS
10
0.497002716535433
20
0.6494046062992126
11
0.5066231496062992
21
0.6477992125984252
0
LINE
8
BLACK
6
CONTINUOUS
10
0.9003239370078739
20
0.6477992125984252
11
0.909548937007874
21
0.6446322834645669
0
LINE
8
BLACK
6
CONTINUOUS
10
0.909548937007874
20
0.6446322834645669
11
0.9181268503937008
21
0.639990157480315
0
LINE
8
BLACK
6
CONTINUOUS
10
0.9181268503937008
20
0.639990157480315
11
0.9258237007874015
21
0.6339994488188976
0
LINE
8
BLACK
6
CONTINUOUS
10
0.9258237007874015
20
0.6339994488188976
11
0.9324295669291338
21
0.6268235826771653
0
LINE
8
BLACK
6
CONTINUOUS
10
0.9324295669291338
20
0.6268235826771653
11
0.9377642125984251
21
0.6186583070866142
0
LINE
8
BLACK
6
CONTINUOUS
10
0.9377642125984251
20
0.6186583070866142
11
0.9416821259842519
21
0.6097263385826771
0
LINE
8
BLACK
6
CONTINUOUS
10
0.9416821259842519
20
0.6097263385826771
11
0.9440764566929134
21
0.6002713385826771
0
LINE
8
BLACK
6
CONTINUOUS
10
0.9440764566929134
20
0.6002713385826771
11
0.9448818897637795
21
0.5905511811023622
0
LINE
8
BLACK
6
CONTINUOUS
10
0.9448818897637795
20
0.5905511811023622
11
0.9440764566929134
21
0.5808310236220472
0
LINE
8
BLACK
6
CONTINUOUS
10
0.9440764566929134
20
0.5808310236220472
11
0.9416821259842519
21
0.5713760236220472
0
LINE
8
BLACK
6
CONTINUOUS
10
0.9416821259842519
20
0.5713760236220472
11
0.9377642125984251
21
0.5624440551181102
0
LINE
8
BLACK
6
CONTINUOUS
10
0.9377642125984251
20
0.5624440551181102
11
0.9324295669291338
21
0.554278779527559
0
LINE
8
BLACK
6
CONTINUOUS
10
0.9324295669291338
20
0.554278779527559
11
0.9258237007874015
21
0.5471029133858267
0
LINE
8
BLACK
6
CONTINUOUS
10
0.9258237007874015
20
0.5471029133858267
11
0.9181268503937008
21
0.5411122047244095
0
LINE
8
BLACK
6
CONTINUOUS
10
0.9181268503937008
20
0.5411122047244095
11
0.909548937007874
21
0.5364700787401575
0
LINE
8
BLACK
6
CONTINUOUS
10
0.909548937007874
20
0.5364700787401575
11
0.9003239370078739
21
0.5333031496062992
0
LINE
8
BLACK
6
CONTINUOUS
10
0.9003239370078739
20
0.5333031496062992
11
0.8907035039370078
21
0.5316977559055118
0
LINE
8
BLACK
6
CONTINUOUS
10
0.8907035039370078
20
0.5316977559055118
11
0.8809500393700788
21
0.5316977559055118
0
LINE
8
BLACK
6
CONTINUOUS
10
0.8809500393700788
20
0.5316977559055118
11
0.8713296062992126
21
0.5333031496062992
0
LINE
8
BLACK
6
CONTINUOUS
10
0.8713296062992126
20
0.5333031496062992
11
0.8621046062992126
21
0.5364700787401575
0
LINE
8
BLACK
6
CONTINUOUS
10
0.8621046062992126
20
0.5364700787401575
11
0.8535266929133858
21
0.5411122047244095
0
LINE
8
BLACK
6
CONTINUOUS
10
0.8535266929133858
20
0.5411122047244095
11
0.8458298425196851
21
0.5471029133858267
0
LINE
8
BLACK
6
CONTINUOUS
10
0.8458298425196851
20
0.5471029133858267
11
0.8392239763779528
21
0.554278779527559
0
LINE
8
BLACK
6
CONTINUOUS
10
0.8392239763779528
20
0.554278779527559
11
0.8338893307086614
21
0.5624440551181102
0
LINE
8
BLACK
6
CONTINUOUS
10
0.8338893307086614
20
0.5624440551181102
11
0.8299714173228346
21
0.5713760236220472
0
LINE
8
BLACK
6
CONTINUOUS
10
0.8299714173228346
20
0.5713760236220472
11
0.8275770866141732
21
0.5808310236220472
0
LINE
8
BLACK
6
CONTINUOUS
10
0.8275770866141732
20
0.5808310236220472
11
0.8267716535433071
21
0.5905511811023622
0
LINE
8
BLACK
6
CONTINUOUS
10
0.8267716535433071
20
0.5905511811023622
11
0.8275770866141732
21
0.6002713385826771
0
LINE
8
BLACK
6
CONTINUOUS
10
0.8275770866141732
20
0.6002713385826771
11
0.8299714173228346
21
0.6097263385826771
0
LINE
8
BLACK
6
CONTINUOUS
10
0.8299714173228346
20
0.6097263385826771
11
0.8338893307086614
21
0.6186583070866142
0
LINE
8
BLACK
6
CONTINUOUS
10
0.8338893307086614
20
0.6186583070866142
11
0.8392239763779528
21
0.6268235826771653
0
LINE
8
BLACK
6
CONTINUOUS
10
0.8392239763779528
20
0.6268235826771653
11
0.8458298425196851
21
0.6339994488188976
0
LINE
8
BLACK
6
CONTINUOUS
10
0.8458298425196851
20
0.6339994488188976
11
0.8535266929133858
21
0.639990157480315
0
LINE
8
BLACK
6
CONTINUOUS
10
0.8535266929133858
20
0.639990157480315
11
0.8621046062992126
21
0.6446322834645669
0
LINE
8
BLACK
6
CONTINUOUS
10
0.8621046062992126
20
0.6446322834645669
11
0.8713296062992126
21
0.6477992125984252
0
LINE
8
BLACK
6
CONTINUOUS
10
0.8713296062992126
20
0.6477992125984252
11
0.8809500393700788
21
0.6494046062992126
0
LINE
8
BLACK
6
CONTINUOUS
10
0.8809500393700788
20
0.6494046062992126
11
0.8907035039370078
21
0.6494046062992126
0
LINE
8
BLACK
6
CONTINUOUS
10
0.8907035039370078
20
0.6494046062992126
11
0.9003239370078739
21
0.6477992125984252
  0
ENDSEC
  0
EOF
