  0
SECTION
  2
HEADER
  9
$ANGBASE
  50
0.0
  9
$ANGDIR
  70
1
  9
$MEASUREMENT
  70
0
  0
ENDSEC
  0
SECTION
  2
TABLES
  0
TABLE
  2
LTYPE
  70
4
  0
LTYPE
  5
40F
  2
CONTINUOUS
  70
0
  3
Solid line
  72
65
  73
0
  40
0.0
  0
LTYPE
  5
410
  2
DASHDOT
 70
0
  3
Dash Dot ____ _ ____ _
 72
65
 73
4
 40
2.0
 49
1.25
 49
-0.25
 49
0.25
 49
-0.25
  0
LTYPE
  5
411
  2
DASHED
 70
0
  3
Dashed __ __ __ __ __
 72
65
 73
2
 40
0.75
 49
0.5
 49
-0.25
  0
LTYPE
  5
43B
  2
DOTTED
 70
0
  3
Dotted .  .  .  .
 72
65
 73
2
 40
0.2
 49
0.0
 49
-0.2
  0
ENDTAB
  0
TABLE
  2
STYLE
  70
4
  0
STYLE
  2
KICAD
  70
0
  40
0
  41
1
  42
1
  50
0
  71
0
  3
isocp.shx
  0
STYLE
  2
KICADB
  70
0
  40
0
  41
1
  42
1
  50
0
  71
0
  3
isocp.shx
  0
STYLE
  2
KICADI
  70
0
  40
0
  41
1
  42
1
  50
15
  71
0
  3
isocp.shx
  0
STYLE
  2
KICADBI
  70
0
  40
0
  41
1
  42
1
  50
15
  71
0
  3
isocp.shx
  0
ENDTAB
  0
TABLE
  2
LAYER
  70
1
  0
LAYER
  2
BLACK
  70
0
  62
7
  6
CONTINUOUS
  0
ENDTAB
  0
ENDSEC
  0
SECTION
  2
ENTITIES
0
LINE
8
BLACK
6
CONTINUOUS
10
-0.016444
20
0.108753
11
-0.0167323
21
0.109449
0
LINE
8
BLACK
6
CONTINUOUS
10
-0.0167323
20
0.109449
11
-0.0167323
21
0.481102
0
LINE
8
BLACK
6
CONTINUOUS
10
-0.0167323
20
0.481102
11
-0.016444
21
0.481798
0
LINE
8
BLACK
6
CONTINUOUS
10
-0.016444
20
0.481798
11
-0.015748
21
0.482087
0
LINE
8
BLACK
6
CONTINUOUS
10
-0.015748
20
0.482087
11
0.23622
21
0.482087
0
LINE
8
BLACK
6
CONTINUOUS
10
0.23622
20
0.482087
11
0.236916
21
0.481798
0
LINE
8
BLACK
6
CONTINUOUS
10
0.236916
20
0.481798
11
0.237205
21
0.481102
0
LINE
8
BLACK
6
CONTINUOUS
10
0.237205
20
0.481102
11
0.237205
21
0.109449
0
LINE
8
BLACK
6
CONTINUOUS
10
0.237205
20
0.109449
11
0.236916
21
0.108753
0
LINE
8
BLACK
6
CONTINUOUS
10
0.236916
20
0.108753
11
0.23622
21
0.108465
0
LINE
8
BLACK
6
CONTINUOUS
10
0.23622
20
0.108465
11
-0.015748
21
0.108465
0
LINE
8
BLACK
6
CONTINUOUS
10
-0.015748
20
0.108465
11
-0.016444
21
0.108753
0
LINE
8
BLACK
6
CONTINUOUS
10
-0.0147638
20
0.480118
11
-0.0147638
21
0.110433
0
LINE
8
BLACK
6
CONTINUOUS
10
-0.0147638
20
0.110433
11
0.235236
21
0.110433
0
LINE
8
BLACK
6
CONTINUOUS
10
0.235236
20
0.110433
11
0.235236
21
0.480118
0
LINE
8
BLACK
6
CONTINUOUS
10
0.235236
20
0.480118
11
-0.0147638
21
0.480118
0
LINE
8
BLACK
6
CONTINUOUS
10
0.783564
20
0.219048
11
0.78733
21
0.230142
0
LINE
8
BLACK
6
CONTINUOUS
10
0.78733
20
0.230142
11
0.792511
21
0.24065
0
LINE
8
BLACK
6
CONTINUOUS
10
0.792511
20
0.24065
11
0.799021
21
0.250391
0
LINE
8
BLACK
6
CONTINUOUS
10
0.799021
20
0.250391
11
0.806745
21
0.2592
0
LINE
8
BLACK
6
CONTINUOUS
10
0.806745
20
0.2592
11
0.815554
21
0.266924
0
LINE
8
BLACK
6
CONTINUOUS
10
0.815554
20
0.266924
11
0.825295
21
0.273433
0
LINE
8
BLACK
6
CONTINUOUS
10
0.825295
20
0.273433
11
0.835803
21
0.278615
0
LINE
8
BLACK
6
CONTINUOUS
10
0.835803
20
0.278615
11
0.846897
21
0.282381
0
LINE
8
BLACK
6
CONTINUOUS
10
0.846897
20
0.282381
11
0.858388
21
0.284667
0
LINE
8
BLACK
6
CONTINUOUS
10
0.858388
20
0.284667
11
0.870079
21
0.285433
0
LINE
8
BLACK
6
CONTINUOUS
10
0.870079
20
0.285433
11
0.88177
21
0.284667
0
LINE
8
BLACK
6
CONTINUOUS
10
0.88177
20
0.284667
11
0.89326
21
0.282381
0
LINE
8
BLACK
6
CONTINUOUS
10
0.89326
20
0.282381
11
0.904355
21
0.278615
0
LINE
8
BLACK
6
CONTINUOUS
10
0.904355
20
0.278615
11
0.914862
21
0.273433
0
LINE
8
BLACK
6
CONTINUOUS
10
0.914862
20
0.273433
11
0.924604
21
0.266924
0
LINE
8
BLACK
6
CONTINUOUS
10
0.924604
20
0.266924
11
0.933412
21
0.2592
0
LINE
8
BLACK
6
CONTINUOUS
10
0.933412
20
0.2592
11
0.941137
21
0.250391
0
LINE
8
BLACK
6
CONTINUOUS
10
0.941137
20
0.250391
11
0.947646
21
0.24065
0
LINE
8
BLACK
6
CONTINUOUS
10
0.947646
20
0.24065
11
0.952828
21
0.230142
0
LINE
8
BLACK
6
CONTINUOUS
10
0.952828
20
0.230142
11
0.956594
21
0.219048
0
LINE
8
BLACK
6
CONTINUOUS
10
0.956594
20
0.219048
11
0.958879
21
0.207557
0
LINE
8
BLACK
6
CONTINUOUS
10
0.958879
20
0.207557
11
0.959646
21
0.195866
0
LINE
8
BLACK
6
CONTINUOUS
10
0.959646
20
0.195866
11
0.958879
21
0.184175
0
LINE
8
BLACK
6
CONTINUOUS
10
0.958879
20
0.184175
11
0.956594
21
0.172685
0
LINE
8
BLACK
6
CONTINUOUS
10
0.956594
20
0.172685
11
0.952828
21
0.16159
0
LINE
8
BLACK
6
CONTINUOUS
10
0.952828
20
0.16159
11
0.947646
21
0.151083
0
LINE
8
BLACK
6
CONTINUOUS
10
0.947646
20
0.151083
11
0.941137
21
0.141341
0
LINE
8
BLACK
6
CONTINUOUS
10
0.941137
20
0.141341
11
0.933412
21
0.132533
0
LINE
8
BLACK
6
CONTINUOUS
10
0.933412
20
0.132533
11
0.924604
21
0.124808
0
LINE
8
BLACK
6
CONTINUOUS
10
0.924604
20
0.124808
11
0.914862
21
0.118299
0
LINE
8
BLACK
6
CONTINUOUS
10
0.914862
20
0.118299
11
0.904355
21
0.113117
0
LINE
8
BLACK
6
CONTINUOUS
10
0.904355
20
0.113117
11
0.89326
21
0.109351
0
LINE
8
BLACK
6
CONTINUOUS
10
0.89326
20
0.109351
11
0.88177
21
0.107065
0
LINE
8
BLACK
6
CONTINUOUS
10
0.88177
20
0.107065
11
0.870079
21
0.106299
0
LINE
8
BLACK
6
CONTINUOUS
10
0.870079
20
0.106299
11
0.858388
21
0.107065
0
LINE
8
BLACK
6
CONTINUOUS
10
0.858388
20
0.107065
11
0.846897
21
0.109351
0
LINE
8
BLACK
6
CONTINUOUS
10
0.846897
20
0.109351
11
0.835803
21
0.113117
0
LINE
8
BLACK
6
CONTINUOUS
10
0.835803
20
0.113117
11
0.825295
21
0.118299
0
LINE
8
BLACK
6
CONTINUOUS
10
0.825295
20
0.118299
11
0.815554
21
0.124808
0
LINE
8
BLACK
6
CONTINUOUS
10
0.815554
20
0.124808
11
0.806745
21
0.132533
0
LINE
8
BLACK
6
CONTINUOUS
10
0.806745
20
0.132533
11
0.799021
21
0.141341
0
LINE
8
BLACK
6
CONTINUOUS
10
0.799021
20
0.141341
11
0.792511
21
0.151083
0
LINE
8
BLACK
6
CONTINUOUS
10
0.792511
20
0.151083
11
0.78733
21
0.16159
0
LINE
8
BLACK
6
CONTINUOUS
10
0.78733
20
0.16159
11
0.783564
21
0.172685
0
LINE
8
BLACK
6
CONTINUOUS
10
0.783564
20
0.172685
11
0.781278
21
0.184175
0
LINE
8
BLACK
6
CONTINUOUS
10
0.781278
20
0.184175
11
0.780512
21
0.195866
0
LINE
8
BLACK
6
CONTINUOUS
10
0.780512
20
0.195866
11
0.781278
21
0.207557
0
LINE
8
BLACK
6
CONTINUOUS
10
0.781278
20
0.207557
11
0.783564
21
0.219048
0
LINE
8
BLACK
6
CONTINUOUS
10
0.785284
20
0.173145
11
0.788975
21
0.162272
0
LINE
8
BLACK
6
CONTINUOUS
10
0.788975
20
0.162272
11
0.794054
21
0.151973
0
LINE
8
BLACK
6
CONTINUOUS
10
0.794054
20
0.151973
11
0.800433
21
0.142425
0
LINE
8
BLACK
6
CONTINUOUS
10
0.800433
20
0.142425
11
0.808004
21
0.133792
0
LINE
8
BLACK
6
CONTINUOUS
10
0.808004
20
0.133792
11
0.816638
21
0.126221
0
LINE
8
BLACK
6
CONTINUOUS
10
0.816638
20
0.126221
11
0.826186
21
0.119841
0
LINE
8
BLACK
6
CONTINUOUS
10
0.826186
20
0.119841
11
0.836484
21
0.114762
0
LINE
8
BLACK
6
CONTINUOUS
10
0.836484
20
0.114762
11
0.847358
21
0.111071
0
LINE
8
BLACK
6
CONTINUOUS
10
0.847358
20
0.111071
11
0.85862
21
0.108831
0
LINE
8
BLACK
6
CONTINUOUS
10
0.85862
20
0.108831
11
0.870079
21
0.10808
0
LINE
8
BLACK
6
CONTINUOUS
10
0.870079
20
0.10808
11
0.881537
21
0.108831
0
LINE
8
BLACK
6
CONTINUOUS
10
0.881537
20
0.108831
11
0.8928
21
0.111071
0
LINE
8
BLACK
6
CONTINUOUS
10
0.8928
20
0.111071
11
0.903673
21
0.114762
0
LINE
8
BLACK
6
CONTINUOUS
10
0.903673
20
0.114762
11
0.913972
21
0.119841
0
LINE
8
BLACK
6
CONTINUOUS
10
0.913972
20
0.119841
11
0.92352
21
0.126221
0
LINE
8
BLACK
6
CONTINUOUS
10
0.92352
20
0.126221
11
0.932153
21
0.133792
0
LINE
8
BLACK
6
CONTINUOUS
10
0.932153
20
0.133792
11
0.939724
21
0.142425
0
LINE
8
BLACK
6
CONTINUOUS
10
0.939724
20
0.142425
11
0.946104
21
0.151973
0
LINE
8
BLACK
6
CONTINUOUS
10
0.946104
20
0.151973
11
0.951183
21
0.162272
0
LINE
8
BLACK
6
CONTINUOUS
10
0.951183
20
0.162272
11
0.954874
21
0.173145
0
LINE
8
BLACK
6
CONTINUOUS
10
0.954874
20
0.173145
11
0.957114
21
0.184408
0
LINE
8
BLACK
6
CONTINUOUS
10
0.957114
20
0.184408
11
0.957865
21
0.195866
0
LINE
8
BLACK
6
CONTINUOUS
10
0.957865
20
0.195866
11
0.957114
21
0.207325
0
LINE
8
BLACK
6
CONTINUOUS
10
0.957114
20
0.207325
11
0.954874
21
0.218587
0
LINE
8
BLACK
6
CONTINUOUS
10
0.954874
20
0.218587
11
0.951183
21
0.229461
0
LINE
8
BLACK
6
CONTINUOUS
10
0.951183
20
0.229461
11
0.946104
21
0.239759
0
LINE
8
BLACK
6
CONTINUOUS
10
0.946104
20
0.239759
11
0.939724
21
0.249307
0
LINE
8
BLACK
6
CONTINUOUS
10
0.939724
20
0.249307
11
0.932153
21
0.25794
0
LINE
8
BLACK
6
CONTINUOUS
10
0.932153
20
0.25794
11
0.92352
21
0.265512
0
LINE
8
BLACK
6
CONTINUOUS
10
0.92352
20
0.265512
11
0.913972
21
0.271891
0
LINE
8
BLACK
6
CONTINUOUS
10
0.913972
20
0.271891
11
0.903673
21
0.27697
0
LINE
8
BLACK
6
CONTINUOUS
10
0.903673
20
0.27697
11
0.8928
21
0.280661
0
LINE
8
BLACK
6
CONTINUOUS
10
0.8928
20
0.280661
11
0.881537
21
0.282901
0
LINE
8
BLACK
6
CONTINUOUS
10
0.881537
20
0.282901
11
0.870079
21
0.283653
0
LINE
8
BLACK
6
CONTINUOUS
10
0.870079
20
0.283653
11
0.85862
21
0.282901
0
LINE
8
BLACK
6
CONTINUOUS
10
0.85862
20
0.282901
11
0.847358
21
0.280661
0
LINE
8
BLACK
6
CONTINUOUS
10
0.847358
20
0.280661
11
0.836484
21
0.27697
0
LINE
8
BLACK
6
CONTINUOUS
10
0.836484
20
0.27697
11
0.826186
21
0.271891
0
LINE
8
BLACK
6
CONTINUOUS
10
0.826186
20
0.271891
11
0.816638
21
0.265512
0
LINE
8
BLACK
6
CONTINUOUS
10
0.816638
20
0.265512
11
0.808004
21
0.25794
0
LINE
8
BLACK
6
CONTINUOUS
10
0.808004
20
0.25794
11
0.800433
21
0.249307
0
LINE
8
BLACK
6
CONTINUOUS
10
0.800433
20
0.249307
11
0.794054
21
0.239759
0
LINE
8
BLACK
6
CONTINUOUS
10
0.794054
20
0.239759
11
0.788975
21
0.229461
0
LINE
8
BLACK
6
CONTINUOUS
10
0.788975
20
0.229461
11
0.785284
21
0.218587
0
LINE
8
BLACK
6
CONTINUOUS
10
0.785284
20
0.218587
11
0.783043
21
0.207325
0
LINE
8
BLACK
6
CONTINUOUS
10
0.783043
20
0.207325
11
0.782292
21
0.195866
0
LINE
8
BLACK
6
CONTINUOUS
10
0.782292
20
0.195866
11
0.783043
21
0.184408
0
LINE
8
BLACK
6
CONTINUOUS
10
0.783043
20
0.184408
11
0.785284
21
0.173145
  0
ENDSEC
  0
EOF
