  0
SECTION
  2
HEADER
  9
$ANGBASE
  50
0.0
  9
$ANGDIR
  70
1
  9
$MEASUREMENT
  70
0
  0
ENDSEC
  0
SECTION
  2
TABLES
  0
TABLE
  2
LTYPE
  70
4
  0
LTYPE
  5
40F
  2
CONTINUOUS
  70
0
  3
Solid line
  72
65
  73
0
  40
0.0
  0
LTYPE
  5
410
  2
DASHDOT
 70
0
  3
Dash Dot ____ _ ____ _
 72
65
 73
4
 40
2.0
 49
1.25
 49
-0.25
 49
0.25
 49
-0.25
  0
LTYPE
  5
411
  2
DASHED
 70
0
  3
Dashed __ __ __ __ __
 72
65
 73
2
 40
0.75
 49
0.5
 49
-0.25
  0
LTYPE
  5
43B
  2
DOTTED
 70
0
  3
Dotted .  .  .  .
 72
65
 73
2
 40
0.2
 49
0.0
 49
-0.2
  0
ENDTAB
  0
TABLE
  2
STYLE
  70
4
  0
STYLE
  2
KICAD
  70
0
  40
0
  41
1
  42
1
  50
0
  71
0
  3
isocp.shx
  0
STYLE
  2
KICADB
  70
0
  40
0
  41
1
  42
1
  50
0
  71
0
  3
isocp.shx
  0
STYLE
  2
KICADI
  70
0
  40
0
  41
1
  42
1
  50
15
  71
0
  3
isocp.shx
  0
STYLE
  2
KICADBI
  70
0
  40
0
  41
1
  42
1
  50
15
  71
0
  3
isocp.shx
  0
ENDTAB
  0
TABLE
  2
LAYER
  70
1
  0
LAYER
  2
BLACK
  70
0
  62
7
  6
CONTINUOUS
  0
ENDTAB
  0
ENDSEC
  0
SECTION
  2
ENTITIES
0
LINE
8
BLACK
6
CONTINUOUS
10
0.7805966535433071
20
-0.0372595669291339
11
0.7806946456692914
21
-0.037300157480315
0
LINE
8
BLACK
6
CONTINUOUS
10
0.7806946456692914
20
-0.037300157480315
11
0.7808004724409449
21
-0.0373076771653543
0
LINE
8
BLACK
6
CONTINUOUS
10
0.7808004724409449
20
-0.0373076771653543
11
0.7813411023622047
21
-0.0375145669291339
0
LINE
8
BLACK
6
CONTINUOUS
10
0.7813411023622047
20
-0.0375145669291339
11
0.7850906299212598
21
-0.0393893307086614
0
LINE
8
BLACK
6
CONTINUOUS
10
0.7850906299212598
20
-0.0393893307086614
11
0.785186968503937
21
-0.0394499606299213
0
LINE
8
BLACK
6
CONTINUOUS
10
0.785186968503937
20
-0.0394499606299213
11
0.7852324015748031
21
-0.0394651181102362
0
LINE
8
BLACK
6
CONTINUOUS
10
0.7852324015748031
20
-0.0394651181102362
11
0.7852889370078739
21
-0.0395141338582677
0
LINE
8
BLACK
6
CONTINUOUS
10
0.7852889370078739
20
-0.0395141338582677
11
0.7855805118110236
21
-0.0396976771653543
0
LINE
8
BLACK
6
CONTINUOUS
10
0.7855805118110236
20
-0.0396976771653543
11
0.7858230708661417
21
-0.0399773622047244
0
LINE
8
BLACK
6
CONTINUOUS
10
0.7858230708661417
20
-0.0399773622047244
11
0.7861027952755906
21
-0.0402199606299213
0
LINE
8
BLACK
6
CONTINUOUS
10
0.7861027952755906
20
-0.0402199606299213
11
0.7862862992125984
21
-0.0405114960629921
0
LINE
8
BLACK
6
CONTINUOUS
10
0.7862862992125984
20
-0.0405114960629921
11
0.7863353543307087
21
-0.0405680708661417
0
LINE
8
BLACK
6
CONTINUOUS
10
0.7863353543307087
20
-0.0405680708661417
11
0.7863504724409449
21
-0.0406134645669291
0
LINE
8
BLACK
6
CONTINUOUS
10
0.7863504724409449
20
-0.0406134645669291
11
0.7864111417322834
21
-0.040709842519685
0
LINE
8
BLACK
6
CONTINUOUS
10
0.7864111417322834
20
-0.040709842519685
11
0.788285905511811
21
-0.0444593700787402
0
LINE
8
BLACK
6
CONTINUOUS
10
0.788285905511811
20
-0.0444593700787402
11
0.7884927952755906
21
-0.0449999606299213
0
LINE
8
BLACK
6
CONTINUOUS
10
0.7884927952755906
20
-0.0449999606299213
11
0.7885003149606299
21
-0.0451058267716535
0
LINE
8
BLACK
6
CONTINUOUS
10
0.7885003149606299
20
-0.0451058267716535
11
0.788540905511811
21
-0.0452038188976378
0
LINE
8
BLACK
6
CONTINUOUS
10
0.788540905511811
20
-0.0452038188976378
11
0.7885976377952756
21
-0.0457798818897638
0
LINE
8
BLACK
6
CONTINUOUS
10
0.7885976377952756
20
-0.0457798818897638
11
0.7885976377952756
21
-0.0495294094488189
0
LINE
8
BLACK
6
CONTINUOUS
10
0.7885976377952756
20
-0.0495294094488189
11
0.788540905511811
21
-0.0501054724409449
0
LINE
8
BLACK
6
CONTINUOUS
10
0.788540905511811
20
-0.0501054724409449
11
0.7884301181102362
21
-0.0503728346456693
0
LINE
8
BLACK
6
CONTINUOUS
10
0.7884301181102362
20
-0.0503728346456693
11
0.7883740157480315
21
-0.0506565354330709
0
LINE
8
BLACK
6
CONTINUOUS
10
0.7883740157480315
20
-0.0506565354330709
11
0.7882119291338583
21
-0.0508996456692913
0
LINE
8
BLACK
6
CONTINUOUS
10
0.7882119291338583
20
-0.0508996456692913
11
0.7881
21
-0.0511698818897638
0
LINE
8
BLACK
6
CONTINUOUS
10
0.7881
20
-0.0511698818897638
11
0.7878953543307087
21
-0.0513745275590551
0
LINE
8
BLACK
6
CONTINUOUS
10
0.7878953543307087
20
-0.0513745275590551
11
0.7877349606299212
21
-0.0516151181102362
0
LINE
8
BLACK
6
CONTINUOUS
10
0.7877349606299212
20
-0.0516151181102362
11
0.787492125984252
21
-0.0517777165354331
0
LINE
8
BLACK
6
CONTINUOUS
10
0.787492125984252
20
-0.0517777165354331
11
0.7872853543307087
21
-0.0519845275590551
0
LINE
8
BLACK
6
CONTINUOUS
10
0.7872853543307087
20
-0.0519845275590551
11
0.7870180708661417
21
-0.0520952362204724
0
LINE
8
BLACK
6
CONTINUOUS
10
0.7870180708661417
20
-0.0520952362204724
11
0.786777716535433
21
-0.0522562204724409
0
LINE
8
BLACK
6
CONTINUOUS
10
0.786777716535433
20
-0.0522562204724409
11
0.786223937007874
21
-0.052424842519685
0
LINE
8
BLACK
6
CONTINUOUS
10
0.786223937007874
20
-0.052424842519685
11
0.76985
21
-0.0556996062992126
0
LINE
8
BLACK
6
CONTINUOUS
10
0.76985
20
-0.0556996062992126
11
0.76985
21
-0.0600809448818898
0
LINE
8
BLACK
6
CONTINUOUS
10
0.76985
20
-0.0600809448818898
11
0.7709728346456692
21
-0.0623266929133858
0
LINE
8
BLACK
6
CONTINUOUS
10
0.7709728346456692
20
-0.0623266929133858
11
0.7732185826771654
21
-0.0634495669291339
0
LINE
8
BLACK
6
CONTINUOUS
10
0.7732185826771654
20
-0.0634495669291339
11
0.7793235433070866
21
-0.0634495669291339
0
LINE
8
BLACK
6
CONTINUOUS
10
0.7793235433070866
20
-0.0634495669291339
11
0.7824496062992126
21
-0.0618865354330709
0
LINE
8
BLACK
6
CONTINUOUS
10
0.7824496062992126
20
-0.0618865354330709
11
0.7829901968503937
21
-0.0616796456692913
0
LINE
8
BLACK
6
CONTINUOUS
10
0.7829901968503937
20
-0.0616796456692913
11
0.7841394094488189
21
-0.0615979921259842
0
LINE
8
BLACK
6
CONTINUOUS
10
0.7841394094488189
20
-0.0615979921259842
11
0.7852324015748031
21
-0.0619623228346457
0
LINE
8
BLACK
6
CONTINUOUS
10
0.7852324015748031
20
-0.0619623228346457
11
0.7861027559055118
21
-0.0627171653543307
0
LINE
8
BLACK
6
CONTINUOUS
10
0.7861027559055118
20
-0.0627171653543307
11
0.786618031496063
21
-0.0637476771653543
0
LINE
8
BLACK
6
CONTINUOUS
10
0.786618031496063
20
-0.0637476771653543
11
0.78669968503937
21
-0.0648968897637795
0
LINE
8
BLACK
6
CONTINUOUS
10
0.78669968503937
20
-0.0648968897637795
11
0.7863353543307087
21
-0.065989842519685
0
LINE
8
BLACK
6
CONTINUOUS
10
0.7863353543307087
20
-0.065989842519685
11
0.7855805118110236
21
-0.0668602362204724
0
LINE
8
BLACK
6
CONTINUOUS
10
0.7855805118110236
20
-0.0668602362204724
11
0.7850906299212598
21
-0.0671685826771654
0
LINE
8
BLACK
6
CONTINUOUS
10
0.7850906299212598
20
-0.0671685826771654
11
0.7813411023622047
21
-0.0690433464566929
0
LINE
8
BLACK
6
CONTINUOUS
10
0.7813411023622047
20
-0.0690433464566929
11
0.7808004724409449
21
-0.0692502362204724
0
LINE
8
BLACK
6
CONTINUOUS
10
0.7808004724409449
20
-0.0692502362204724
11
0.7806946456692914
21
-0.0692577165354331
0
LINE
8
BLACK
6
CONTINUOUS
10
0.7806946456692914
20
-0.0692577165354331
11
0.7805966535433071
21
-0.0692983464566929
0
LINE
8
BLACK
6
CONTINUOUS
10
0.7805966535433071
20
-0.0692983464566929
11
0.7800205905511811
21
-0.0693550787401575
0
LINE
8
BLACK
6
CONTINUOUS
10
0.7800205905511811
20
-0.0693550787401575
11
0.7725215354330709
21
-0.0693550787401575
0
LINE
8
BLACK
6
CONTINUOUS
10
0.7725215354330709
20
-0.0693550787401575
11
0.7719454724409449
21
-0.0692983464566929
0
LINE
8
BLACK
6
CONTINUOUS
10
0.7719454724409449
20
-0.0692983464566929
11
0.7718474803149606
21
-0.0692577559055118
0
LINE
8
BLACK
6
CONTINUOUS
10
0.7718474803149606
20
-0.0692577559055118
11
0.7717416141732283
21
-0.0692502362204724
0
LINE
8
BLACK
6
CONTINUOUS
10
0.7717416141732283
20
-0.0692502362204724
11
0.7712010236220472
21
-0.0690433464566929
0
LINE
8
BLACK
6
CONTINUOUS
10
0.7712010236220472
20
-0.0690433464566929
11
0.7674514960629921
21
-0.0671685826771654
0
LINE
8
BLACK
6
CONTINUOUS
10
0.7674514960629921
20
-0.0671685826771654
11
0.7673551181102362
21
-0.0671079133858268
0
LINE
8
BLACK
6
CONTINUOUS
10
0.7673551181102362
20
-0.0671079133858268
11
0.7673097244094488
21
-0.0670927952755905
0
LINE
8
BLACK
6
CONTINUOUS
10
0.7673097244094488
20
-0.0670927952755905
11
0.7672531496062992
21
-0.0670437401574803
0
LINE
8
BLACK
6
CONTINUOUS
10
0.7672531496062992
20
-0.0670437401574803
11
0.7669616141732283
21
-0.0668602362204724
0
LINE
8
BLACK
6
CONTINUOUS
10
0.7669616141732283
20
-0.0668602362204724
11
0.766718937007874
21
-0.0665803937007874
0
LINE
8
BLACK
6
CONTINUOUS
10
0.766718937007874
20
-0.0665803937007874
11
0.7664393307086614
21
-0.0663379133858268
0
LINE
8
BLACK
6
CONTINUOUS
10
0.7664393307086614
20
-0.0663379133858268
11
0.7662558267716535
21
-0.0660464173228346
0
LINE
8
BLACK
6
CONTINUOUS
10
0.7662558267716535
20
-0.0660464173228346
11
0.7662067716535433
21
-0.065989842519685
0
LINE
8
BLACK
6
CONTINUOUS
10
0.7662067716535433
20
-0.065989842519685
11
0.7661916141732283
21
-0.0659443700787402
0
LINE
8
BLACK
6
CONTINUOUS
10
0.7661916141732283
20
-0.0659443700787402
11
0.7661309842519685
21
-0.0658480708661417
0
LINE
8
BLACK
6
CONTINUOUS
10
0.7661309842519685
20
-0.0658480708661417
11
0.7642562204724409
21
-0.0620985039370079
0
LINE
8
BLACK
6
CONTINUOUS
10
0.7642562204724409
20
-0.0620985039370079
11
0.7640493307086614
21
-0.061557874015748
0
LINE
8
BLACK
6
CONTINUOUS
10
0.7640493307086614
20
-0.061557874015748
11
0.764041811023622
21
-0.0614520472440945
0
LINE
8
BLACK
6
CONTINUOUS
10
0.764041811023622
20
-0.0614520472440945
11
0.7640012204724409
21
-0.0613540551181102
0
LINE
8
BLACK
6
CONTINUOUS
10
0.7640012204724409
20
-0.0613540551181102
11
0.7639444881889763
21
-0.0607779921259843
0
LINE
8
BLACK
6
CONTINUOUS
10
0.7639444881889763
20
-0.0607779921259843
11
0.7639444881889763
21
-0.0457798818897638
0
LINE
8
BLACK
6
CONTINUOUS
10
0.7639444881889763
20
-0.0457798818897638
11
0.7640012204724409
21
-0.0452038188976378
0
LINE
8
BLACK
6
CONTINUOUS
10
0.7640012204724409
20
-0.0452038188976378
11
0.764041811023622
21
-0.0451057874015748
0
LINE
8
BLACK
6
CONTINUOUS
10
0.764041811023622
20
-0.0451057874015748
11
0.7640493307086614
21
-0.045
0
LINE
8
BLACK
6
CONTINUOUS
10
0.7640493307086614
20
-0.045
11
0.7642562204724409
21
-0.0444593700787402
0
LINE
8
BLACK
6
CONTINUOUS
10
0.7642562204724409
20
-0.0444593700787402
11
0.7661309842519685
21
-0.040709842519685
0
LINE
8
BLACK
6
CONTINUOUS
10
0.7661309842519685
20
-0.040709842519685
11
0.7661916141732283
21
-0.0406134645669291
0
LINE
8
BLACK
6
CONTINUOUS
10
0.7661916141732283
20
-0.0406134645669291
11
0.7662067716535433
21
-0.0405680708661417
0
LINE
8
BLACK
6
CONTINUOUS
10
0.7662067716535433
20
-0.0405680708661417
11
0.7662557874015747
21
-0.0405114960629921
0
LINE
8
BLACK
6
CONTINUOUS
10
0.7662557874015747
20
-0.0405114960629921
11
0.7664393307086614
21
-0.0402199606299213
0
LINE
8
BLACK
6
CONTINUOUS
10
0.7664393307086614
20
-0.0402199606299213
11
0.7667190157480315
21
-0.0399773622047244
0
LINE
8
BLACK
6
CONTINUOUS
10
0.7667190157480315
20
-0.0399773622047244
11
0.7669616141732283
21
-0.0396976771653543
0
LINE
8
BLACK
6
CONTINUOUS
10
0.7669616141732283
20
-0.0396976771653543
11
0.7672531496062992
21
-0.0395141338582677
0
LINE
8
BLACK
6
CONTINUOUS
10
0.7672531496062992
20
-0.0395141338582677
11
0.7673097244094488
21
-0.0394651181102362
0
LINE
8
BLACK
6
CONTINUOUS
10
0.7673097244094488
20
-0.0394651181102362
11
0.7673551181102362
21
-0.0394499606299213
0
LINE
8
BLACK
6
CONTINUOUS
10
0.7673551181102362
20
-0.0394499606299213
11
0.7674514960629921
21
-0.0393893307086614
0
LINE
8
BLACK
6
CONTINUOUS
10
0.7674514960629921
20
-0.0393893307086614
11
0.7712010236220472
21
-0.0375145669291339
0
LINE
8
BLACK
6
CONTINUOUS
10
0.7712010236220472
20
-0.0375145669291339
11
0.7717416141732283
21
-0.0373076771653543
0
LINE
8
BLACK
6
CONTINUOUS
10
0.7717416141732283
20
-0.0373076771653543
11
0.7718474803149606
21
-0.0373001181102362
0
LINE
8
BLACK
6
CONTINUOUS
10
0.7718474803149606
20
-0.0373001181102362
11
0.7719454724409449
21
-0.0372595669291339
0
LINE
8
BLACK
6
CONTINUOUS
10
0.7719454724409449
20
-0.0372595669291339
11
0.7725215354330709
21
-0.0372028346456693
0
LINE
8
BLACK
6
CONTINUOUS
10
0.7725215354330709
20
-0.0372028346456693
11
0.7800205905511811
21
-0.0372028346456693
0
LINE
8
BLACK
6
CONTINUOUS
10
0.7800205905511811
20
-0.0372028346456693
11
0.7805966535433071
21
-0.0372595669291339
0
LINE
8
BLACK
6
CONTINUOUS
10
0.7709728346456692
20
-0.0442311811023622
11
0.76985
21
-0.0464769291338583
0
LINE
8
BLACK
6
CONTINUOUS
10
0.76985
20
-0.0464769291338583
11
0.76985
21
-0.049677125984252
0
LINE
8
BLACK
6
CONTINUOUS
10
0.76985
20
-0.049677125984252
11
0.782692125984252
21
-0.0471087401574803
0
LINE
8
BLACK
6
CONTINUOUS
10
0.782692125984252
20
-0.0471087401574803
11
0.782692125984252
21
-0.0464769291338583
0
LINE
8
BLACK
6
CONTINUOUS
10
0.782692125984252
20
-0.0464769291338583
11
0.7815692519685039
21
-0.0442311811023622
0
LINE
8
BLACK
6
CONTINUOUS
10
0.7815692519685039
20
-0.0442311811023622
11
0.7793235433070866
21
-0.0431083464566929
0
LINE
8
BLACK
6
CONTINUOUS
10
0.7793235433070866
20
-0.0431083464566929
11
0.7732185826771654
21
-0.0431083464566929
0
LINE
8
BLACK
6
CONTINUOUS
10
0.7732185826771654
20
-0.0431083464566929
11
0.7709728346456692
21
-0.0442311811023622
0
LINE
8
BLACK
6
CONTINUOUS
10
0.8143424409448818
20
-0.0372595669291339
11
0.8144404330708661
21
-0.037300157480315
0
LINE
8
BLACK
6
CONTINUOUS
10
0.8144404330708661
20
-0.037300157480315
11
0.8145462598425197
21
-0.0373076771653543
0
LINE
8
BLACK
6
CONTINUOUS
10
0.8145462598425197
20
-0.0373076771653543
11
0.8150868897637795
21
-0.0375145669291339
0
LINE
8
BLACK
6
CONTINUOUS
10
0.8150868897637795
20
-0.0375145669291339
11
0.8188364173228346
21
-0.0393893307086614
0
LINE
8
BLACK
6
CONTINUOUS
10
0.8188364173228346
20
-0.0393893307086614
11
0.8189327559055118
21
-0.0394499606299213
0
LINE
8
BLACK
6
CONTINUOUS
10
0.8189327559055118
20
-0.0394499606299213
11
0.818978188976378
21
-0.0394651181102362
0
LINE
8
BLACK
6
CONTINUOUS
10
0.818978188976378
20
-0.0394651181102362
11
0.8190347244094488
21
-0.0395141338582677
0
LINE
8
BLACK
6
CONTINUOUS
10
0.8190347244094488
20
-0.0395141338582677
11
0.8193262992125984
21
-0.0396976771653543
0
LINE
8
BLACK
6
CONTINUOUS
10
0.8193262992125984
20
-0.0396976771653543
11
0.8195688582677165
21
-0.0399773622047244
0
LINE
8
BLACK
6
CONTINUOUS
10
0.8195688582677165
20
-0.0399773622047244
11
0.8198485826771653
21
-0.0402199606299213
0
LINE
8
BLACK
6
CONTINUOUS
10
0.8198485826771653
20
-0.0402199606299213
11
0.8200320866141733
21
-0.0405114960629921
0
LINE
8
BLACK
6
CONTINUOUS
10
0.8200320866141733
20
-0.0405114960629921
11
0.8200811417322834
21
-0.0405680708661417
0
LINE
8
BLACK
6
CONTINUOUS
10
0.8200811417322834
20
-0.0405680708661417
11
0.8200962598425197
21
-0.0406134645669291
0
LINE
8
BLACK
6
CONTINUOUS
10
0.8200962598425197
20
-0.0406134645669291
11
0.8201569291338583
21
-0.040709842519685
0
LINE
8
BLACK
6
CONTINUOUS
10
0.8201569291338583
20
-0.040709842519685
11
0.8220316929133858
21
-0.0444593700787402
0
LINE
8
BLACK
6
CONTINUOUS
10
0.8220316929133858
20
-0.0444593700787402
11
0.8222385826771653
21
-0.0449999606299213
0
LINE
8
BLACK
6
CONTINUOUS
10
0.8222385826771653
20
-0.0449999606299213
11
0.8222461023622047
21
-0.0451058267716535
0
LINE
8
BLACK
6
CONTINUOUS
10
0.8222461023622047
20
-0.0451058267716535
11
0.8222866929133859
21
-0.0452038188976378
0
LINE
8
BLACK
6
CONTINUOUS
10
0.8222866929133859
20
-0.0452038188976378
11
0.8223434251968503
21
-0.0457798818897638
0
LINE
8
BLACK
6
CONTINUOUS
10
0.8223434251968503
20
-0.0457798818897638
11
0.8223434251968503
21
-0.0664023228346457
0
LINE
8
BLACK
6
CONTINUOUS
10
0.8223434251968503
20
-0.0664023228346457
11
0.8222866929133859
21
-0.0669783858267717
0
LINE
8
BLACK
6
CONTINUOUS
10
0.8222866929133859
20
-0.0669783858267717
11
0.8218457874015748
21
-0.0680427952755906
0
LINE
8
BLACK
6
CONTINUOUS
10
0.8218457874015748
20
-0.0680427952755906
11
0.8210311417322834
21
-0.0688574409448819
0
LINE
8
BLACK
6
CONTINUOUS
10
0.8210311417322834
20
-0.0688574409448819
11
0.8199667322834645
21
-0.0692983464566929
0
LINE
8
BLACK
6
CONTINUOUS
10
0.8199667322834645
20
-0.0692983464566929
11
0.8188146062992125
21
-0.0692983464566929
0
LINE
8
BLACK
6
CONTINUOUS
10
0.8188146062992125
20
-0.0692983464566929
11
0.8177501968503936
21
-0.0688574409448819
0
LINE
8
BLACK
6
CONTINUOUS
10
0.8177501968503936
20
-0.0688574409448819
11
0.8176112598425197
21
-0.0687185039370079
0
LINE
8
BLACK
6
CONTINUOUS
10
0.8176112598425197
20
-0.0687185039370079
11
0.8169616535433071
21
-0.0690433464566929
0
LINE
8
BLACK
6
CONTINUOUS
10
0.8169616535433071
20
-0.0690433464566929
11
0.8164210236220473
21
-0.0692502362204724
0
LINE
8
BLACK
6
CONTINUOUS
10
0.8164210236220473
20
-0.0692502362204724
11
0.8163151968503937
21
-0.0692577165354331
0
LINE
8
BLACK
6
CONTINUOUS
10
0.8163151968503937
20
-0.0692577165354331
11
0.8162172047244094
21
-0.0692983464566929
0
LINE
8
BLACK
6
CONTINUOUS
10
0.8162172047244094
20
-0.0692983464566929
11
0.8156411417322834
21
-0.0693550787401575
0
LINE
8
BLACK
6
CONTINUOUS
10
0.8156411417322834
20
-0.0693550787401575
11
0.8062673228346456
21
-0.0693550787401575
0
LINE
8
BLACK
6
CONTINUOUS
10
0.8062673228346456
20
-0.0693550787401575
11
0.8056912598425197
21
-0.0692983464566929
0
LINE
8
BLACK
6
CONTINUOUS
10
0.8056912598425197
20
-0.0692983464566929
11
0.8055932677165354
21
-0.0692577559055118
0
LINE
8
BLACK
6
CONTINUOUS
10
0.8055932677165354
20
-0.0692577559055118
11
0.8054874015748031
21
-0.0692502362204724
0
LINE
8
BLACK
6
CONTINUOUS
10
0.8054874015748031
20
-0.0692502362204724
11
0.804946811023622
21
-0.0690433464566929
0
LINE
8
BLACK
6
CONTINUOUS
10
0.804946811023622
20
-0.0690433464566929
11
0.8011972834645669
21
-0.0671685826771654
0
LINE
8
BLACK
6
CONTINUOUS
10
0.8011972834645669
20
-0.0671685826771654
11
0.801100905511811
21
-0.0671079133858268
0
LINE
8
BLACK
6
CONTINUOUS
10
0.801100905511811
20
-0.0671079133858268
11
0.8010555118110236
21
-0.0670927952755905
0
LINE
8
BLACK
6
CONTINUOUS
10
0.8010555118110236
20
-0.0670927952755905
11
0.8009989370078739
21
-0.0670437401574803
0
LINE
8
BLACK
6
CONTINUOUS
10
0.8009989370078739
20
-0.0670437401574803
11
0.8007074015748031
21
-0.0668602362204724
0
LINE
8
BLACK
6
CONTINUOUS
10
0.8007074015748031
20
-0.0668602362204724
11
0.8004647244094488
21
-0.0665803937007874
0
LINE
8
BLACK
6
CONTINUOUS
10
0.8004647244094488
20
-0.0665803937007874
11
0.8001851181102362
21
-0.0663379133858268
0
LINE
8
BLACK
6
CONTINUOUS
10
0.8001851181102362
20
-0.0663379133858268
11
0.8000016141732283
21
-0.0660464173228346
0
LINE
8
BLACK
6
CONTINUOUS
10
0.8000016141732283
20
-0.0660464173228346
11
0.7999525590551181
21
-0.065989842519685
0
LINE
8
BLACK
6
CONTINUOUS
10
0.7999525590551181
20
-0.065989842519685
11
0.7999374015748031
21
-0.0659443700787402
0
LINE
8
BLACK
6
CONTINUOUS
10
0.7999374015748031
20
-0.0659443700787402
11
0.7998767716535433
21
-0.0658480708661417
0
LINE
8
BLACK
6
CONTINUOUS
10
0.7998767716535433
20
-0.0658480708661417
11
0.7980020078740158
21
-0.0620985039370079
0
LINE
8
BLACK
6
CONTINUOUS
10
0.7980020078740158
20
-0.0620985039370079
11
0.7977951181102362
21
-0.061557874015748
0
LINE
8
BLACK
6
CONTINUOUS
10
0.7977951181102362
20
-0.061557874015748
11
0.7977875984251969
21
-0.0614520472440945
0
LINE
8
BLACK
6
CONTINUOUS
10
0.7977875984251969
20
-0.0614520472440945
11
0.7977470078740158
21
-0.0613540551181102
0
LINE
8
BLACK
6
CONTINUOUS
10
0.7977470078740158
20
-0.0613540551181102
11
0.7976902755905512
21
-0.0607779921259843
0
LINE
8
BLACK
6
CONTINUOUS
10
0.7976902755905512
20
-0.0607779921259843
11
0.7976902755905512
21
-0.0570284645669291
0
LINE
8
BLACK
6
CONTINUOUS
10
0.7976902755905512
20
-0.0570284645669291
11
0.7977470078740158
21
-0.0564524015748031
0
LINE
8
BLACK
6
CONTINUOUS
10
0.7977470078740158
20
-0.0564524015748031
11
0.7977875984251969
21
-0.0563543700787402
0
LINE
8
BLACK
6
CONTINUOUS
10
0.7977875984251969
20
-0.0563543700787402
11
0.7977951181102362
21
-0.0562485826771653
0
LINE
8
BLACK
6
CONTINUOUS
10
0.7977951181102362
20
-0.0562485826771653
11
0.7980020078740158
21
-0.0557079527559055
0
LINE
8
BLACK
6
CONTINUOUS
10
0.7980020078740158
20
-0.0557079527559055
11
0.7998767716535433
21
-0.0519584251968504
0
LINE
8
BLACK
6
CONTINUOUS
10
0.7998767716535433
20
-0.0519584251968504
11
0.7999374015748031
21
-0.0518620472440945
0
LINE
8
BLACK
6
CONTINUOUS
10
0.7999374015748031
20
-0.0518620472440945
11
0.7999525590551181
21
-0.0518166535433071
0
LINE
8
BLACK
6
CONTINUOUS
10
0.7999525590551181
20
-0.0518166535433071
11
0.8000015748031496
21
-0.0517600787401575
0
LINE
8
BLACK
6
CONTINUOUS
10
0.8000015748031496
20
-0.0517600787401575
11
0.8001851181102362
21
-0.0514685433070866
0
LINE
8
BLACK
6
CONTINUOUS
10
0.8001851181102362
20
-0.0514685433070866
11
0.8004648031496063
21
-0.0512259448818898
0
LINE
8
BLACK
6
CONTINUOUS
10
0.8004648031496063
20
-0.0512259448818898
11
0.8007074015748031
21
-0.0509462598425197
0
LINE
8
BLACK
6
CONTINUOUS
10
0.8007074015748031
20
-0.0509462598425197
11
0.8009989370078739
21
-0.0507627165354331
0
LINE
8
BLACK
6
CONTINUOUS
10
0.8009989370078739
20
-0.0507627165354331
11
0.8010555118110236
21
-0.0507137007874016
0
LINE
8
BLACK
6
CONTINUOUS
10
0.8010555118110236
20
-0.0507137007874016
11
0.801100905511811
21
-0.0506985433070866
0
LINE
8
BLACK
6
CONTINUOUS
10
0.801100905511811
20
-0.0506985433070866
11
0.8011972834645669
21
-0.0506379133858268
0
LINE
8
BLACK
6
CONTINUOUS
10
0.8011972834645669
20
-0.0506379133858268
11
0.804946811023622
21
-0.0487631496062992
0
LINE
8
BLACK
6
CONTINUOUS
10
0.804946811023622
20
-0.0487631496062992
11
0.8054874015748031
21
-0.0485562598425197
0
LINE
8
BLACK
6
CONTINUOUS
10
0.8054874015748031
20
-0.0485562598425197
11
0.8055932677165354
21
-0.0485487007874016
0
LINE
8
BLACK
6
CONTINUOUS
10
0.8055932677165354
20
-0.0485487007874016
11
0.8056912598425197
21
-0.0485081496062992
0
LINE
8
BLACK
6
CONTINUOUS
10
0.8056912598425197
20
-0.0485081496062992
11
0.8062673228346456
21
-0.0484514173228346
0
LINE
8
BLACK
6
CONTINUOUS
10
0.8062673228346456
20
-0.0484514173228346
11
0.8149440944881889
21
-0.0484514173228346
0
LINE
8
BLACK
6
CONTINUOUS
10
0.8149440944881889
20
-0.0484514173228346
11
0.8164379133858267
21
-0.0477044881889764
0
LINE
8
BLACK
6
CONTINUOUS
10
0.8164379133858267
20
-0.0477044881889764
11
0.8164379133858267
21
-0.0464769291338583
0
LINE
8
BLACK
6
CONTINUOUS
10
0.8164379133858267
20
-0.0464769291338583
11
0.8153150393700788
21
-0.0442311811023622
0
LINE
8
BLACK
6
CONTINUOUS
10
0.8153150393700788
20
-0.0442311811023622
11
0.8130693307086614
21
-0.0431083464566929
0
LINE
8
BLACK
6
CONTINUOUS
10
0.8130693307086614
20
-0.0431083464566929
11
0.8069643700787401
21
-0.0431083464566929
0
LINE
8
BLACK
6
CONTINUOUS
10
0.8069643700787401
20
-0.0431083464566929
11
0.8038383070866142
21
-0.0446713779527559
0
LINE
8
BLACK
6
CONTINUOUS
10
0.8038383070866142
20
-0.0446713779527559
11
0.8032976771653543
21
-0.0448782677165354
0
LINE
8
BLACK
6
CONTINUOUS
10
0.8032976771653543
20
-0.0448782677165354
11
0.8021484645669291
21
-0.0449599212598425
0
LINE
8
BLACK
6
CONTINUOUS
10
0.8021484645669291
20
-0.0449599212598425
11
0.8010555118110236
21
-0.0445955905511811
0
LINE
8
BLACK
6
CONTINUOUS
10
0.8010555118110236
20
-0.0445955905511811
11
0.8001851181102362
21
-0.0438407480314961
0
LINE
8
BLACK
6
CONTINUOUS
10
0.8001851181102362
20
-0.0438407480314961
11
0.7996698818897637
21
-0.0428102362204724
0
LINE
8
BLACK
6
CONTINUOUS
10
0.7996698818897637
20
-0.0428102362204724
11
0.7995882283464567
21
-0.0416610236220472
0
LINE
8
BLACK
6
CONTINUOUS
10
0.7995882283464567
20
-0.0416610236220472
11
0.7999525590551181
21
-0.0405680708661417
0
LINE
8
BLACK
6
CONTINUOUS
10
0.7999525590551181
20
-0.0405680708661417
11
0.8007074015748031
21
-0.0396976771653543
0
LINE
8
BLACK
6
CONTINUOUS
10
0.8007074015748031
20
-0.0396976771653543
11
0.8011972834645669
21
-0.0393893307086614
0
LINE
8
BLACK
6
CONTINUOUS
10
0.8011972834645669
20
-0.0393893307086614
11
0.804946811023622
21
-0.0375145669291339
0
LINE
8
BLACK
6
CONTINUOUS
10
0.804946811023622
20
-0.0375145669291339
11
0.8054874015748031
21
-0.0373076771653543
0
LINE
8
BLACK
6
CONTINUOUS
10
0.8054874015748031
20
-0.0373076771653543
11
0.8055932677165354
21
-0.0373001181102362
0
LINE
8
BLACK
6
CONTINUOUS
10
0.8055932677165354
20
-0.0373001181102362
11
0.8056912598425197
21
-0.0372595669291339
0
LINE
8
BLACK
6
CONTINUOUS
10
0.8056912598425197
20
-0.0372595669291339
11
0.8062673228346456
21
-0.0372028346456693
0
LINE
8
BLACK
6
CONTINUOUS
10
0.8062673228346456
20
-0.0372028346456693
11
0.8137663779527559
21
-0.0372028346456693
0
LINE
8
BLACK
6
CONTINUOUS
10
0.8137663779527559
20
-0.0372028346456693
11
0.8143424409448818
21
-0.0372595669291339
0
LINE
8
BLACK
6
CONTINUOUS
10
0.8164210236220473
20
-0.0542520866141732
11
0.8163151968503937
21
-0.0542595669291339
0
LINE
8
BLACK
6
CONTINUOUS
10
0.8163151968503937
20
-0.0542595669291339
11
0.8162172047244094
21
-0.0543001968503937
0
LINE
8
BLACK
6
CONTINUOUS
10
0.8162172047244094
20
-0.0543001968503937
11
0.8156411417322834
21
-0.0543569291338583
0
LINE
8
BLACK
6
CONTINUOUS
10
0.8156411417322834
20
-0.0543569291338583
11
0.8069643700787401
21
-0.0543569291338583
0
LINE
8
BLACK
6
CONTINUOUS
10
0.8069643700787401
20
-0.0543569291338583
11
0.8047186220472441
21
-0.0554797637795276
0
LINE
8
BLACK
6
CONTINUOUS
10
0.8047186220472441
20
-0.0554797637795276
11
0.8035957874015748
21
-0.0577255118110236
0
LINE
8
BLACK
6
CONTINUOUS
10
0.8035957874015748
20
-0.0577255118110236
11
0.8035957874015748
21
-0.0600809448818898
0
LINE
8
BLACK
6
CONTINUOUS
10
0.8035957874015748
20
-0.0600809448818898
11
0.8047186220472441
21
-0.0623266929133858
0
LINE
8
BLACK
6
CONTINUOUS
10
0.8047186220472441
20
-0.0623266929133858
11
0.8069643700787401
21
-0.0634495669291339
0
LINE
8
BLACK
6
CONTINUOUS
10
0.8069643700787401
20
-0.0634495669291339
11
0.8149440944881889
21
-0.0634495669291339
0
LINE
8
BLACK
6
CONTINUOUS
10
0.8149440944881889
20
-0.0634495669291339
11
0.8164379133858267
21
-0.0627026377952756
0
LINE
8
BLACK
6
CONTINUOUS
10
0.8164379133858267
20
-0.0627026377952756
11
0.8164379133858267
21
-0.0542455905511811
0
LINE
8
BLACK
6
CONTINUOUS
10
0.8164379133858267
20
-0.0542455905511811
11
0.8164210236220473
21
-0.0542520866141732
0
LINE
8
BLACK
6
CONTINUOUS
10
0.8397788188976377
20
-0.024577125984252
11
0.8405934645669291
21
-0.0253917716535433
0
LINE
8
BLACK
6
CONTINUOUS
10
0.8405934645669291
20
-0.0253917716535433
11
0.8410343700787402
21
-0.0264561811023622
0
LINE
8
BLACK
6
CONTINUOUS
10
0.8410343700787402
20
-0.0264561811023622
11
0.8410911023622047
21
-0.0270322440944882
0
LINE
8
BLACK
6
CONTINUOUS
10
0.8410911023622047
20
-0.0270322440944882
11
0.8410911023622047
21
-0.0372028346456693
0
LINE
8
BLACK
6
CONTINUOUS
10
0.8410911023622047
20
-0.0372028346456693
11
0.8475121653543307
21
-0.0372028346456693
0
LINE
8
BLACK
6
CONTINUOUS
10
0.8475121653543307
20
-0.0372028346456693
11
0.8480882283464567
21
-0.0372595669291339
0
LINE
8
BLACK
6
CONTINUOUS
10
0.8480882283464567
20
-0.0372595669291339
11
0.8491526377952756
21
-0.0377004724409449
0
LINE
8
BLACK
6
CONTINUOUS
10
0.8491526377952756
20
-0.0377004724409449
11
0.849967283464567
21
-0.0385151181102362
0
LINE
8
BLACK
6
CONTINUOUS
10
0.849967283464567
20
-0.0385151181102362
11
0.8504081889763779
21
-0.0395795275590551
0
LINE
8
BLACK
6
CONTINUOUS
10
0.8504081889763779
20
-0.0395795275590551
11
0.8504081889763779
21
-0.0407316535433071
0
LINE
8
BLACK
6
CONTINUOUS
10
0.8504081889763779
20
-0.0407316535433071
11
0.849967283464567
21
-0.041796062992126
0
LINE
8
BLACK
6
CONTINUOUS
10
0.849967283464567
20
-0.041796062992126
11
0.8491526377952756
21
-0.0426107086614173
0
LINE
8
BLACK
6
CONTINUOUS
10
0.8491526377952756
20
-0.0426107086614173
11
0.8480882283464567
21
-0.0430516141732283
0
LINE
8
BLACK
6
CONTINUOUS
10
0.8480882283464567
20
-0.0430516141732283
11
0.8475121653543307
21
-0.0431083464566929
0
LINE
8
BLACK
6
CONTINUOUS
10
0.8475121653543307
20
-0.0431083464566929
11
0.8410911023622047
21
-0.0431083464566929
0
LINE
8
BLACK
6
CONTINUOUS
10
0.8410911023622047
20
-0.0431083464566929
11
0.8410911023622047
21
-0.0600809448818898
0
LINE
8
BLACK
6
CONTINUOUS
10
0.8410911023622047
20
-0.0600809448818898
11
0.8422139370078739
21
-0.0623266929133858
0
LINE
8
BLACK
6
CONTINUOUS
10
0.8422139370078739
20
-0.0623266929133858
11
0.8444596850393701
21
-0.0634495669291339
0
LINE
8
BLACK
6
CONTINUOUS
10
0.8444596850393701
20
-0.0634495669291339
11
0.8475121653543307
21
-0.0634495669291339
0
LINE
8
BLACK
6
CONTINUOUS
10
0.8475121653543307
20
-0.0634495669291339
11
0.8480882283464567
21
-0.0635062992125984
0
LINE
8
BLACK
6
CONTINUOUS
10
0.8480882283464567
20
-0.0635062992125984
11
0.8491526377952756
21
-0.0639472047244094
0
LINE
8
BLACK
6
CONTINUOUS
10
0.8491526377952756
20
-0.0639472047244094
11
0.849967283464567
21
-0.0647618503937008
0
LINE
8
BLACK
6
CONTINUOUS
10
0.849967283464567
20
-0.0647618503937008
11
0.8504081889763779
21
-0.0658262598425197
0
LINE
8
BLACK
6
CONTINUOUS
10
0.8504081889763779
20
-0.0658262598425197
11
0.8504081889763779
21
-0.0669783858267717
0
LINE
8
BLACK
6
CONTINUOUS
10
0.8504081889763779
20
-0.0669783858267717
11
0.849967283464567
21
-0.0680427952755906
0
LINE
8
BLACK
6
CONTINUOUS
10
0.849967283464567
20
-0.0680427952755906
11
0.8491526377952756
21
-0.0688574409448819
0
LINE
8
BLACK
6
CONTINUOUS
10
0.8491526377952756
20
-0.0688574409448819
11
0.8480882283464567
21
-0.0692983464566929
0
LINE
8
BLACK
6
CONTINUOUS
10
0.8480882283464567
20
-0.0692983464566929
11
0.8475121653543307
21
-0.0693550787401575
0
LINE
8
BLACK
6
CONTINUOUS
10
0.8475121653543307
20
-0.0693550787401575
11
0.8437626377952756
21
-0.0693550787401575
0
LINE
8
BLACK
6
CONTINUOUS
10
0.8437626377952756
20
-0.0693550787401575
11
0.8431865748031496
21
-0.0692983464566929
0
LINE
8
BLACK
6
CONTINUOUS
10
0.8431865748031496
20
-0.0692983464566929
11
0.8430885826771654
21
-0.0692577559055118
0
LINE
8
BLACK
6
CONTINUOUS
10
0.8430885826771654
20
-0.0692577559055118
11
0.842982716535433
21
-0.0692502362204724
0
LINE
8
BLACK
6
CONTINUOUS
10
0.842982716535433
20
-0.0692502362204724
11
0.8424421259842519
21
-0.0690433464566929
0
LINE
8
BLACK
6
CONTINUOUS
10
0.8424421259842519
20
-0.0690433464566929
11
0.8386925984251968
21
-0.0671685826771654
0
LINE
8
BLACK
6
CONTINUOUS
10
0.8386925984251968
20
-0.0671685826771654
11
0.838596220472441
21
-0.0671079133858268
0
LINE
8
BLACK
6
CONTINUOUS
10
0.838596220472441
20
-0.0671079133858268
11
0.8385508267716535
21
-0.0670927952755905
0
LINE
8
BLACK
6
CONTINUOUS
10
0.8385508267716535
20
-0.0670927952755905
11
0.8384942519685039
21
-0.0670437401574803
0
LINE
8
BLACK
6
CONTINUOUS
10
0.8384942519685039
20
-0.0670437401574803
11
0.8382027165354331
21
-0.0668602362204724
0
LINE
8
BLACK
6
CONTINUOUS
10
0.8382027165354331
20
-0.0668602362204724
11
0.8379600393700787
21
-0.0665803937007874
0
LINE
8
BLACK
6
CONTINUOUS
10
0.8379600393700787
20
-0.0665803937007874
11
0.8376804330708661
21
-0.0663379133858268
0
LINE
8
BLACK
6
CONTINUOUS
10
0.8376804330708661
20
-0.0663379133858268
11
0.8374969291338582
21
-0.0660464173228346
0
LINE
8
BLACK
6
CONTINUOUS
10
0.8374969291338582
20
-0.0660464173228346
11
0.8374478740157481
21
-0.065989842519685
0
LINE
8
BLACK
6
CONTINUOUS
10
0.8374478740157481
20
-0.065989842519685
11
0.8374327165354331
21
-0.0659443700787402
0
LINE
8
BLACK
6
CONTINUOUS
10
0.8374327165354331
20
-0.0659443700787402
11
0.8373720866141732
21
-0.0658480708661417
0
LINE
8
BLACK
6
CONTINUOUS
10
0.8373720866141732
20
-0.0658480708661417
11
0.8354973228346456
21
-0.0620985039370079
0
LINE
8
BLACK
6
CONTINUOUS
10
0.8354973228346456
20
-0.0620985039370079
11
0.8352904330708661
21
-0.061557874015748
0
LINE
8
BLACK
6
CONTINUOUS
10
0.8352904330708661
20
-0.061557874015748
11
0.8352829133858267
21
-0.0614520472440945
0
LINE
8
BLACK
6
CONTINUOUS
10
0.8352829133858267
20
-0.0614520472440945
11
0.8352423228346456
21
-0.0613540551181102
0
LINE
8
BLACK
6
CONTINUOUS
10
0.8352423228346456
20
-0.0613540551181102
11
0.8351855905511811
21
-0.0607779921259843
0
LINE
8
BLACK
6
CONTINUOUS
10
0.8351855905511811
20
-0.0607779921259843
11
0.8351855905511811
21
-0.0431083464566929
0
LINE
8
BLACK
6
CONTINUOUS
10
0.8351855905511811
20
-0.0431083464566929
11
0.8325140551181102
21
-0.0431083464566929
0
LINE
8
BLACK
6
CONTINUOUS
10
0.8325140551181102
20
-0.0431083464566929
11
0.8319379921259842
21
-0.0430516141732283
0
LINE
8
BLACK
6
CONTINUOUS
10
0.8319379921259842
20
-0.0430516141732283
11
0.8308735826771654
21
-0.0426107086614173
0
LINE
8
BLACK
6
CONTINUOUS
10
0.8308735826771654
20
-0.0426107086614173
11
0.830058937007874
21
-0.041796062992126
0
LINE
8
BLACK
6
CONTINUOUS
10
0.830058937007874
20
-0.041796062992126
11
0.8296180314960629
21
-0.0407316535433071
0
LINE
8
BLACK
6
CONTINUOUS
10
0.8296180314960629
20
-0.0407316535433071
11
0.8296180314960629
21
-0.0395795275590551
0
LINE
8
BLACK
6
CONTINUOUS
10
0.8296180314960629
20
-0.0395795275590551
11
0.830058937007874
21
-0.0385151181102362
0
LINE
8
BLACK
6
CONTINUOUS
10
0.830058937007874
20
-0.0385151181102362
11
0.8308735826771654
21
-0.0377004724409449
0
LINE
8
BLACK
6
CONTINUOUS
10
0.8308735826771654
20
-0.0377004724409449
11
0.8319379921259842
21
-0.0372595669291339
0
LINE
8
BLACK
6
CONTINUOUS
10
0.8319379921259842
20
-0.0372595669291339
11
0.8325140551181102
21
-0.0372028346456693
0
LINE
8
BLACK
6
CONTINUOUS
10
0.8325140551181102
20
-0.0372028346456693
11
0.8351855905511811
21
-0.0372028346456693
0
LINE
8
BLACK
6
CONTINUOUS
10
0.8351855905511811
20
-0.0372028346456693
11
0.8351855905511811
21
-0.0270322440944882
0
LINE
8
BLACK
6
CONTINUOUS
10
0.8351855905511811
20
-0.0270322440944882
11
0.8352423228346456
21
-0.0264561811023622
0
LINE
8
BLACK
6
CONTINUOUS
10
0.8352423228346456
20
-0.0264561811023622
11
0.8356832283464567
21
-0.0253917716535433
0
LINE
8
BLACK
6
CONTINUOUS
10
0.8356832283464567
20
-0.0253917716535433
11
0.836497874015748
21
-0.024577125984252
0
LINE
8
BLACK
6
CONTINUOUS
10
0.836497874015748
20
-0.024577125984252
11
0.837562283464567
21
-0.0241362204724409
0
LINE
8
BLACK
6
CONTINUOUS
10
0.837562283464567
20
-0.0241362204724409
11
0.8387144094488189
21
-0.0241362204724409
0
LINE
8
BLACK
6
CONTINUOUS
10
0.8387144094488189
20
-0.0241362204724409
11
0.8397788188976377
21
-0.024577125984252
0
LINE
8
BLACK
6
CONTINUOUS
10
0.9549498818897637
20
-0.0372595669291339
11
0.955047874015748
21
-0.037300157480315
0
LINE
8
BLACK
6
CONTINUOUS
10
0.955047874015748
20
-0.037300157480315
11
0.9551537007874016
21
-0.0373076771653543
0
LINE
8
BLACK
6
CONTINUOUS
10
0.9551537007874016
20
-0.0373076771653543
11
0.9556943307086614
21
-0.0375145669291339
0
LINE
8
BLACK
6
CONTINUOUS
10
0.9556943307086614
20
-0.0375145669291339
11
0.9594438582677165
21
-0.0393893307086614
0
LINE
8
BLACK
6
CONTINUOUS
10
0.9594438582677165
20
-0.0393893307086614
11
0.9599337401574803
21
-0.0396976771653543
0
LINE
8
BLACK
6
CONTINUOUS
10
0.9599337401574803
20
-0.0396976771653543
11
0.9606885826771653
21
-0.0405680708661417
0
LINE
8
BLACK
6
CONTINUOUS
10
0.9606885826771653
20
-0.0405680708661417
11
0.9610529133858268
21
-0.0416610236220472
0
LINE
8
BLACK
6
CONTINUOUS
10
0.9610529133858268
20
-0.0416610236220472
11
0.9609712598425196
21
-0.0428102362204724
0
LINE
8
BLACK
6
CONTINUOUS
10
0.9609712598425196
20
-0.0428102362204724
11
0.9604559842519684
21
-0.0438407480314961
0
LINE
8
BLACK
6
CONTINUOUS
10
0.9604559842519684
20
-0.0438407480314961
11
0.9595856299212598
21
-0.0445955905511811
0
LINE
8
BLACK
6
CONTINUOUS
10
0.9595856299212598
20
-0.0445955905511811
11
0.9584926377952756
21
-0.0449599212598425
0
LINE
8
BLACK
6
CONTINUOUS
10
0.9584926377952756
20
-0.0449599212598425
11
0.9573434251968503
21
-0.0448782677165354
0
LINE
8
BLACK
6
CONTINUOUS
10
0.9573434251968503
20
-0.0448782677165354
11
0.9568028346456693
21
-0.0446713779527559
0
LINE
8
BLACK
6
CONTINUOUS
10
0.9568028346456693
20
-0.0446713779527559
11
0.9536767716535433
21
-0.0431083464566929
0
LINE
8
BLACK
6
CONTINUOUS
10
0.9536767716535433
20
-0.0431083464566929
11
0.9494465748031495
21
-0.0431083464566929
0
LINE
8
BLACK
6
CONTINUOUS
10
0.9494465748031495
20
-0.0431083464566929
11
0.9472008267716535
21
-0.0442311811023622
0
LINE
8
BLACK
6
CONTINUOUS
10
0.9472008267716535
20
-0.0442311811023622
11
0.9460779921259842
21
-0.0464769291338583
0
LINE
8
BLACK
6
CONTINUOUS
10
0.9460779921259842
20
-0.0464769291338583
11
0.9460779921259842
21
-0.0469575984251968
0
LINE
8
BLACK
6
CONTINUOUS
10
0.9460779921259842
20
-0.0469575984251968
11
0.9472008267716535
21
-0.0492033070866142
0
LINE
8
BLACK
6
CONTINUOUS
10
0.9472008267716535
20
-0.0492033070866142
11
0.9494465748031495
21
-0.0503261811023622
0
LINE
8
BLACK
6
CONTINUOUS
10
0.9494465748031495
20
-0.0503261811023622
11
0.9543738188976377
21
-0.0503261811023622
0
LINE
8
BLACK
6
CONTINUOUS
10
0.9543738188976377
20
-0.0503261811023622
11
0.9549498818897637
21
-0.0503829133858268
0
LINE
8
BLACK
6
CONTINUOUS
10
0.9549498818897637
20
-0.0503829133858268
11
0.955047874015748
21
-0.0504235039370079
0
LINE
8
BLACK
6
CONTINUOUS
10
0.955047874015748
20
-0.0504235039370079
11
0.9551537007874016
21
-0.0504310236220472
0
LINE
8
BLACK
6
CONTINUOUS
10
0.9551537007874016
20
-0.0504310236220472
11
0.9556943307086614
21
-0.0506379133858268
0
LINE
8
BLACK
6
CONTINUOUS
10
0.9556943307086614
20
-0.0506379133858268
11
0.9594438582677165
21
-0.0525126771653543
0
LINE
8
BLACK
6
CONTINUOUS
10
0.9594438582677165
20
-0.0525126771653543
11
0.9595401968503937
21
-0.0525733070866142
0
LINE
8
BLACK
6
CONTINUOUS
10
0.9595401968503937
20
-0.0525733070866142
11
0.9595856299212598
21
-0.0525884645669291
0
LINE
8
BLACK
6
CONTINUOUS
10
0.9595856299212598
20
-0.0525884645669291
11
0.9596421653543307
21
-0.0526374803149606
0
LINE
8
BLACK
6
CONTINUOUS
10
0.9596421653543307
20
-0.0526374803149606
11
0.9599337401574803
21
-0.0528210236220472
0
LINE
8
BLACK
6
CONTINUOUS
10
0.9599337401574803
20
-0.0528210236220472
11
0.9601762992125984
21
-0.0531007086614173
0
LINE
8
BLACK
6
CONTINUOUS
10
0.9601762992125984
20
-0.0531007086614173
11
0.9604560236220472
21
-0.0533433070866142
0
LINE
8
BLACK
6
CONTINUOUS
10
0.9604560236220472
20
-0.0533433070866142
11
0.9606395275590551
21
-0.053634842519685
0
LINE
8
BLACK
6
CONTINUOUS
10
0.9606395275590551
20
-0.053634842519685
11
0.9606885826771653
21
-0.0536914173228346
0
LINE
8
BLACK
6
CONTINUOUS
10
0.9606885826771653
20
-0.0536914173228346
11
0.9607037007874015
21
-0.053736811023622
0
LINE
8
BLACK
6
CONTINUOUS
10
0.9607037007874015
20
-0.053736811023622
11
0.9607643700787402
21
-0.053833188976378
0
LINE
8
BLACK
6
CONTINUOUS
10
0.9607643700787402
20
-0.053833188976378
11
0.9626391338582677
21
-0.0575827165354331
0
LINE
8
BLACK
6
CONTINUOUS
10
0.9626391338582677
20
-0.0575827165354331
11
0.9628460236220472
21
-0.0581233070866142
0
LINE
8
BLACK
6
CONTINUOUS
10
0.9628460236220472
20
-0.0581233070866142
11
0.9628535433070866
21
-0.0582291732283465
0
LINE
8
BLACK
6
CONTINUOUS
10
0.9628535433070866
20
-0.0582291732283465
11
0.9628941338582677
21
-0.0583271653543307
0
LINE
8
BLACK
6
CONTINUOUS
10
0.9628941338582677
20
-0.0583271653543307
11
0.9629508661417323
21
-0.0589032283464567
0
LINE
8
BLACK
6
CONTINUOUS
10
0.9629508661417323
20
-0.0589032283464567
11
0.9629508661417323
21
-0.0607779921259843
0
LINE
8
BLACK
6
CONTINUOUS
10
0.9629508661417323
20
-0.0607779921259843
11
0.9628941338582677
21
-0.0613540551181102
0
LINE
8
BLACK
6
CONTINUOUS
10
0.9628941338582677
20
-0.0613540551181102
11
0.9628535039370079
21
-0.0614520472440945
0
LINE
8
BLACK
6
CONTINUOUS
10
0.9628535039370079
20
-0.0614520472440945
11
0.9628460236220472
21
-0.061557874015748
0
LINE
8
BLACK
6
CONTINUOUS
10
0.9628460236220472
20
-0.061557874015748
11
0.9626391338582677
21
-0.0620985039370079
0
LINE
8
BLACK
6
CONTINUOUS
10
0.9626391338582677
20
-0.0620985039370079
11
0.9607643700787402
21
-0.0658480708661417
0
LINE
8
BLACK
6
CONTINUOUS
10
0.9607643700787402
20
-0.0658480708661417
11
0.9607037007874015
21
-0.0659444094488189
0
LINE
8
BLACK
6
CONTINUOUS
10
0.9607037007874015
20
-0.0659444094488189
11
0.9606885826771653
21
-0.065989842519685
0
LINE
8
BLACK
6
CONTINUOUS
10
0.9606885826771653
20
-0.065989842519685
11
0.9606395275590551
21
-0.0660463779527559
0
LINE
8
BLACK
6
CONTINUOUS
10
0.9606395275590551
20
-0.0660463779527559
11
0.9604560236220472
21
-0.0663379527559055
0
LINE
8
BLACK
6
CONTINUOUS
10
0.9604560236220472
20
-0.0663379527559055
11
0.9601762992125984
21
-0.0665805118110236
0
LINE
8
BLACK
6
CONTINUOUS
10
0.9601762992125984
20
-0.0665805118110236
11
0.9599337401574803
21
-0.0668602362204724
0
LINE
8
BLACK
6
CONTINUOUS
10
0.9599337401574803
20
-0.0668602362204724
11
0.9596421653543307
21
-0.0670437401574803
0
LINE
8
BLACK
6
CONTINUOUS
10
0.9596421653543307
20
-0.0670437401574803
11
0.9595856299212598
21
-0.0670927952755905
0
LINE
8
BLACK
6
CONTINUOUS
10
0.9595856299212598
20
-0.0670927952755905
11
0.9595401968503937
21
-0.0671079133858268
0
LINE
8
BLACK
6
CONTINUOUS
10
0.9595401968503937
20
-0.0671079133858268
11
0.9594438582677165
21
-0.0671685826771654
0
LINE
8
BLACK
6
CONTINUOUS
10
0.9594438582677165
20
-0.0671685826771654
11
0.9556943307086614
21
-0.0690433464566929
0
LINE
8
BLACK
6
CONTINUOUS
10
0.9556943307086614
20
-0.0690433464566929
11
0.9551537007874016
21
-0.0692502362204724
0
LINE
8
BLACK
6
CONTINUOUS
10
0.9551537007874016
20
-0.0692502362204724
11
0.955047874015748
21
-0.0692577165354331
0
LINE
8
BLACK
6
CONTINUOUS
10
0.955047874015748
20
-0.0692577165354331
11
0.9549498818897637
21
-0.0692983464566929
0
LINE
8
BLACK
6
CONTINUOUS
10
0.9549498818897637
20
-0.0692983464566929
11
0.9543738188976377
21
-0.0693550787401575
0
LINE
8
BLACK
6
CONTINUOUS
10
0.9543738188976377
20
-0.0693550787401575
11
0.9468747637795275
21
-0.0693550787401575
0
LINE
8
BLACK
6
CONTINUOUS
10
0.9468747637795275
20
-0.0693550787401575
11
0.9462987007874015
21
-0.0692983464566929
0
LINE
8
BLACK
6
CONTINUOUS
10
0.9462987007874015
20
-0.0692983464566929
11
0.9462007086614173
21
-0.0692577559055118
0
LINE
8
BLACK
6
CONTINUOUS
10
0.9462007086614173
20
-0.0692577559055118
11
0.946094842519685
21
-0.0692502362204724
0
LINE
8
BLACK
6
CONTINUOUS
10
0.946094842519685
20
-0.0692502362204724
11
0.945554251968504
21
-0.0690433464566929
0
LINE
8
BLACK
6
CONTINUOUS
10
0.945554251968504
20
-0.0690433464566929
11
0.9418047244094488
21
-0.0671685826771654
0
LINE
8
BLACK
6
CONTINUOUS
10
0.9418047244094488
20
-0.0671685826771654
11
0.941314842519685
21
-0.0668602362204724
0
LINE
8
BLACK
6
CONTINUOUS
10
0.941314842519685
20
-0.0668602362204724
11
0.94056
21
-0.065989842519685
0
LINE
8
BLACK
6
CONTINUOUS
10
0.94056
20
-0.065989842519685
11
0.9401956692913386
21
-0.0648968897637795
0
LINE
8
BLACK
6
CONTINUOUS
10
0.9401956692913386
20
-0.0648968897637795
11
0.9402773228346456
21
-0.0637476771653543
0
LINE
8
BLACK
6
CONTINUOUS
10
0.9402773228346456
20
-0.0637476771653543
11
0.940792559055118
21
-0.0627171653543307
0
LINE
8
BLACK
6
CONTINUOUS
10
0.940792559055118
20
-0.0627171653543307
11
0.9416629527559055
21
-0.0619623228346457
0
LINE
8
BLACK
6
CONTINUOUS
10
0.9416629527559055
20
-0.0619623228346457
11
0.942755905511811
21
-0.0615979921259842
0
LINE
8
BLACK
6
CONTINUOUS
10
0.942755905511811
20
-0.0615979921259842
11
0.9439051181102363
21
-0.0616796456692913
0
LINE
8
BLACK
6
CONTINUOUS
10
0.9439051181102363
20
-0.0616796456692913
11
0.9444457480314961
21
-0.0618865354330709
0
LINE
8
BLACK
6
CONTINUOUS
10
0.9444457480314961
20
-0.0618865354330709
11
0.947571811023622
21
-0.0634495669291339
0
LINE
8
BLACK
6
CONTINUOUS
10
0.947571811023622
20
-0.0634495669291339
11
0.9536767716535433
21
-0.0634495669291339
0
LINE
8
BLACK
6
CONTINUOUS
10
0.9536767716535433
20
-0.0634495669291339
11
0.9559224803149606
21
-0.0623266929133858
0
LINE
8
BLACK
6
CONTINUOUS
10
0.9559224803149606
20
-0.0623266929133858
11
0.9570453543307086
21
-0.0600809448818898
0
LINE
8
BLACK
6
CONTINUOUS
10
0.9570453543307086
20
-0.0600809448818898
11
0.9570453543307086
21
-0.0596002755905512
0
LINE
8
BLACK
6
CONTINUOUS
10
0.9570453543307086
20
-0.0596002755905512
11
0.9559224803149606
21
-0.0573545275590551
0
LINE
8
BLACK
6
CONTINUOUS
10
0.9559224803149606
20
-0.0573545275590551
11
0.9536767716535433
21
-0.0562316929133858
0
LINE
8
BLACK
6
CONTINUOUS
10
0.9536767716535433
20
-0.0562316929133858
11
0.9487495275590551
21
-0.0562316929133858
0
LINE
8
BLACK
6
CONTINUOUS
10
0.9487495275590551
20
-0.0562316929133858
11
0.9481734645669291
21
-0.0561749606299213
0
LINE
8
BLACK
6
CONTINUOUS
10
0.9481734645669291
20
-0.0561749606299213
11
0.9480754724409448
21
-0.0561343700787402
0
LINE
8
BLACK
6
CONTINUOUS
10
0.9480754724409448
20
-0.0561343700787402
11
0.9479696062992126
21
-0.0561268503937008
0
LINE
8
BLACK
6
CONTINUOUS
10
0.9479696062992126
20
-0.0561268503937008
11
0.9474290157480315
21
-0.0559199606299213
0
LINE
8
BLACK
6
CONTINUOUS
10
0.9474290157480315
20
-0.0559199606299213
11
0.9436794881889764
21
-0.0540451968503937
0
LINE
8
BLACK
6
CONTINUOUS
10
0.9436794881889764
20
-0.0540451968503937
11
0.9435831102362204
21
-0.0539845275590551
0
LINE
8
BLACK
6
CONTINUOUS
10
0.9435831102362204
20
-0.0539845275590551
11
0.9435377165354331
21
-0.0539694094488189
0
LINE
8
BLACK
6
CONTINUOUS
10
0.9435377165354331
20
-0.0539694094488189
11
0.9434811417322835
21
-0.0539203543307087
0
LINE
8
BLACK
6
CONTINUOUS
10
0.9434811417322835
20
-0.0539203543307087
11
0.9431896062992126
21
-0.0537368503937008
0
LINE
8
BLACK
6
CONTINUOUS
10
0.9431896062992126
20
-0.0537368503937008
11
0.9429470078740158
21
-0.053457125984252
0
LINE
8
BLACK
6
CONTINUOUS
10
0.9429470078740158
20
-0.053457125984252
11
0.9426673228346456
21
-0.0532145669291339
0
LINE
8
BLACK
6
CONTINUOUS
10
0.9426673228346456
20
-0.0532145669291339
11
0.942483779527559
21
-0.0529229921259843
0
LINE
8
BLACK
6
CONTINUOUS
10
0.942483779527559
20
-0.0529229921259843
11
0.9424347637795275
21
-0.0528664566929134
0
LINE
8
BLACK
6
CONTINUOUS
10
0.9424347637795275
20
-0.0528664566929134
11
0.9424196062992126
21
-0.0528210236220472
0
LINE
8
BLACK
6
CONTINUOUS
10
0.9424196062992126
20
-0.0528210236220472
11
0.9423589763779527
21
-0.0527246850393701
0
LINE
8
BLACK
6
CONTINUOUS
10
0.9423589763779527
20
-0.0527246850393701
11
0.9404842125984252
21
-0.048975157480315
0
LINE
8
BLACK
6
CONTINUOUS
10
0.9404842125984252
20
-0.048975157480315
11
0.9402773228346456
21
-0.0484345275590551
0
LINE
8
BLACK
6
CONTINUOUS
10
0.9402773228346456
20
-0.0484345275590551
11
0.9402698031496063
21
-0.0483287007874016
0
LINE
8
BLACK
6
CONTINUOUS
10
0.9402698031496063
20
-0.0483287007874016
11
0.9402292125984252
21
-0.0482307086614173
0
LINE
8
BLACK
6
CONTINUOUS
10
0.9402292125984252
20
-0.0482307086614173
11
0.9401724803149606
21
-0.0476546456692913
0
LINE
8
BLACK
6
CONTINUOUS
10
0.9401724803149606
20
-0.0476546456692913
11
0.9401724803149606
21
-0.0457798818897638
0
LINE
8
BLACK
6
CONTINUOUS
10
0.9401724803149606
20
-0.0457798818897638
11
0.9402292125984252
21
-0.0452038188976378
0
LINE
8
BLACK
6
CONTINUOUS
10
0.9402292125984252
20
-0.0452038188976378
11
0.9402698031496063
21
-0.0451057874015748
0
LINE
8
BLACK
6
CONTINUOUS
10
0.9402698031496063
20
-0.0451057874015748
11
0.9402773228346456
21
-0.045
0
LINE
8
BLACK
6
CONTINUOUS
10
0.9402773228346456
20
-0.045
11
0.9404842125984252
21
-0.0444593700787402
0
LINE
8
BLACK
6
CONTINUOUS
10
0.9404842125984252
20
-0.0444593700787402
11
0.9423589763779527
21
-0.040709842519685
0
LINE
8
BLACK
6
CONTINUOUS
10
0.9423589763779527
20
-0.040709842519685
11
0.9424196062992126
21
-0.0406134645669291
0
LINE
8
BLACK
6
CONTINUOUS
10
0.9424196062992126
20
-0.0406134645669291
11
0.9424347637795275
21
-0.0405680708661417
0
LINE
8
BLACK
6
CONTINUOUS
10
0.9424347637795275
20
-0.0405680708661417
11
0.942483779527559
21
-0.0405114960629921
0
LINE
8
BLACK
6
CONTINUOUS
10
0.942483779527559
20
-0.0405114960629921
11
0.9426673228346456
21
-0.0402199606299213
0
LINE
8
BLACK
6
CONTINUOUS
10
0.9426673228346456
20
-0.0402199606299213
11
0.9429470078740158
21
-0.0399773622047244
0
LINE
8
BLACK
6
CONTINUOUS
10
0.9429470078740158
20
-0.0399773622047244
11
0.9431896062992126
21
-0.0396976771653543
0
LINE
8
BLACK
6
CONTINUOUS
10
0.9431896062992126
20
-0.0396976771653543
11
0.9434811417322835
21
-0.0395141338582677
0
LINE
8
BLACK
6
CONTINUOUS
10
0.9434811417322835
20
-0.0395141338582677
11
0.9435377165354331
21
-0.0394651181102362
0
LINE
8
BLACK
6
CONTINUOUS
10
0.9435377165354331
20
-0.0394651181102362
11
0.9435831102362204
21
-0.0394499606299213
0
LINE
8
BLACK
6
CONTINUOUS
10
0.9435831102362204
20
-0.0394499606299213
11
0.9436794881889764
21
-0.0393893307086614
0
LINE
8
BLACK
6
CONTINUOUS
10
0.9436794881889764
20
-0.0393893307086614
11
0.9474290157480315
21
-0.0375145669291339
0
LINE
8
BLACK
6
CONTINUOUS
10
0.9474290157480315
20
-0.0375145669291339
11
0.9479696062992126
21
-0.0373076771653543
0
LINE
8
BLACK
6
CONTINUOUS
10
0.9479696062992126
20
-0.0373076771653543
11
0.9480754724409448
21
-0.0373001181102362
0
LINE
8
BLACK
6
CONTINUOUS
10
0.9480754724409448
20
-0.0373001181102362
11
0.9481734645669291
21
-0.0372595669291339
0
LINE
8
BLACK
6
CONTINUOUS
10
0.9481734645669291
20
-0.0372595669291339
11
0.9487495275590551
21
-0.0372028346456693
0
LINE
8
BLACK
6
CONTINUOUS
10
0.9487495275590551
20
-0.0372028346456693
11
0.9543738188976377
21
-0.0372028346456693
0
LINE
8
BLACK
6
CONTINUOUS
10
0.9543738188976377
20
-0.0372028346456693
11
0.9549498818897637
21
-0.0372595669291339
0
LINE
8
BLACK
6
CONTINUOUS
10
0.9785114960629921
20
-0.0377004724409449
11
0.9793261417322835
21
-0.0385151181102362
0
LINE
8
BLACK
6
CONTINUOUS
10
0.9793261417322835
20
-0.0385151181102362
11
0.9797670472440945
21
-0.0395795275590551
0
LINE
8
BLACK
6
CONTINUOUS
10
0.9797670472440945
20
-0.0395795275590551
11
0.9798237795275591
21
-0.0401555905511811
0
LINE
8
BLACK
6
CONTINUOUS
10
0.9798237795275591
20
-0.0401555905511811
11
0.9798237795275591
21
-0.0600809448818898
0
LINE
8
BLACK
6
CONTINUOUS
10
0.9798237795275591
20
-0.0600809448818898
11
0.9809466141732284
21
-0.0623266929133858
0
LINE
8
BLACK
6
CONTINUOUS
10
0.9809466141732284
20
-0.0623266929133858
11
0.9831923622047244
21
-0.0634495669291339
0
LINE
8
BLACK
6
CONTINUOUS
10
0.9831923622047244
20
-0.0634495669291339
11
0.9874225590551181
21
-0.0634495669291339
0
LINE
8
BLACK
6
CONTINUOUS
10
0.9874225590551181
20
-0.0634495669291339
11
0.99012
21
-0.0621008267716535
0
LINE
8
BLACK
6
CONTINUOUS
10
0.99012
20
-0.0621008267716535
11
0.9907911417322834
21
-0.0614296850393701
0
LINE
8
BLACK
6
CONTINUOUS
10
0.9907911417322834
20
-0.0614296850393701
11
0.9907911417322834
21
-0.0401555905511811
0
LINE
8
BLACK
6
CONTINUOUS
10
0.9907911417322834
20
-0.0401555905511811
11
0.990847874015748
21
-0.0395795275590551
0
LINE
8
BLACK
6
CONTINUOUS
10
0.990847874015748
20
-0.0395795275590551
11
0.991288779527559
21
-0.0385151181102362
0
LINE
8
BLACK
6
CONTINUOUS
10
0.991288779527559
20
-0.0385151181102362
11
0.9921034251968504
21
-0.0377004724409449
0
LINE
8
BLACK
6
CONTINUOUS
10
0.9921034251968504
20
-0.0377004724409449
11
0.9931678346456693
21
-0.0372595669291339
0
LINE
8
BLACK
6
CONTINUOUS
10
0.9931678346456693
20
-0.0372595669291339
11
0.9943199606299212
21
-0.0372595669291339
0
LINE
8
BLACK
6
CONTINUOUS
10
0.9943199606299212
20
-0.0372595669291339
11
0.9953843700787401
21
-0.0377004724409449
0
LINE
8
BLACK
6
CONTINUOUS
10
0.9953843700787401
20
-0.0377004724409449
11
0.9961990157480315
21
-0.0385151181102362
0
LINE
8
BLACK
6
CONTINUOUS
10
0.9961990157480315
20
-0.0385151181102362
11
0.9966399212598425
21
-0.0395795275590551
0
LINE
8
BLACK
6
CONTINUOUS
10
0.9966399212598425
20
-0.0395795275590551
11
0.9966966535433071
21
-0.0401555905511811
0
LINE
8
BLACK
6
CONTINUOUS
10
0.9966966535433071
20
-0.0401555905511811
11
0.9966966535433071
21
-0.0664023228346457
0
LINE
8
BLACK
6
CONTINUOUS
10
0.9966966535433071
20
-0.0664023228346457
11
0.9966399212598425
21
-0.0669783858267717
0
LINE
8
BLACK
6
CONTINUOUS
10
0.9966399212598425
20
-0.0669783858267717
11
0.9961990157480315
21
-0.0680427952755906
0
LINE
8
BLACK
6
CONTINUOUS
10
0.9961990157480315
20
-0.0680427952755906
11
0.9953843700787401
21
-0.0688574409448819
0
LINE
8
BLACK
6
CONTINUOUS
10
0.9953843700787401
20
-0.0688574409448819
11
0.9943199606299212
21
-0.0692983464566929
0
LINE
8
BLACK
6
CONTINUOUS
10
0.9943199606299212
20
-0.0692983464566929
11
0.9931678346456693
21
-0.0692983464566929
0
LINE
8
BLACK
6
CONTINUOUS
10
0.9931678346456693
20
-0.0692983464566929
11
0.9921034251968504
21
-0.0688574409448819
0
LINE
8
BLACK
6
CONTINUOUS
10
0.9921034251968504
20
-0.0688574409448819
11
0.9913395669291338
21
-0.0680935826771654
0
LINE
8
BLACK
6
CONTINUOUS
10
0.9913395669291338
20
-0.0680935826771654
11
0.9894401181102362
21
-0.0690433464566929
0
LINE
8
BLACK
6
CONTINUOUS
10
0.9894401181102362
20
-0.0690433464566929
11
0.9888994881889763
21
-0.0692502362204724
0
LINE
8
BLACK
6
CONTINUOUS
10
0.9888994881889763
20
-0.0692502362204724
11
0.9887936614173228
21
-0.0692577165354331
0
LINE
8
BLACK
6
CONTINUOUS
10
0.9887936614173228
20
-0.0692577165354331
11
0.9886956692913386
21
-0.0692983464566929
0
LINE
8
BLACK
6
CONTINUOUS
10
0.9886956692913386
20
-0.0692983464566929
11
0.9881196062992126
21
-0.0693550787401575
0
LINE
8
BLACK
6
CONTINUOUS
10
0.9881196062992126
20
-0.0693550787401575
11
0.9824953149606299
21
-0.0693550787401575
0
LINE
8
BLACK
6
CONTINUOUS
10
0.9824953149606299
20
-0.0693550787401575
11
0.9819192519685039
21
-0.0692983464566929
0
LINE
8
BLACK
6
CONTINUOUS
10
0.9819192519685039
20
-0.0692983464566929
11
0.9818212598425197
21
-0.0692577559055118
0
LINE
8
BLACK
6
CONTINUOUS
10
0.9818212598425197
20
-0.0692577559055118
11
0.9817153937007874
21
-0.0692502362204724
0
LINE
8
BLACK
6
CONTINUOUS
10
0.9817153937007874
20
-0.0692502362204724
11
0.9811748031496063
21
-0.0690433464566929
0
LINE
8
BLACK
6
CONTINUOUS
10
0.9811748031496063
20
-0.0690433464566929
11
0.9774252755905511
21
-0.0671685826771654
0
LINE
8
BLACK
6
CONTINUOUS
10
0.9774252755905511
20
-0.0671685826771654
11
0.9773288976377953
21
-0.0671079133858268
0
LINE
8
BLACK
6
CONTINUOUS
10
0.9773288976377953
20
-0.0671079133858268
11
0.9772835039370078
21
-0.0670927952755905
0
LINE
8
BLACK
6
CONTINUOUS
10
0.9772835039370078
20
-0.0670927952755905
11
0.9772269291338582
21
-0.0670437401574803
0
LINE
8
BLACK
6
CONTINUOUS
10
0.9772269291338582
20
-0.0670437401574803
11
0.9769353937007874
21
-0.0668602362204724
0
LINE
8
BLACK
6
CONTINUOUS
10
0.9769353937007874
20
-0.0668602362204724
11
0.9766927165354331
21
-0.0665803937007874
0
LINE
8
BLACK
6
CONTINUOUS
10
0.9766927165354331
20
-0.0665803937007874
11
0.9764131102362205
21
-0.0663379133858268
0
LINE
8
BLACK
6
CONTINUOUS
10
0.9764131102362205
20
-0.0663379133858268
11
0.9762296062992126
21
-0.0660464173228346
0
LINE
8
BLACK
6
CONTINUOUS
10
0.9762296062992126
20
-0.0660464173228346
11
0.9761805511811024
21
-0.065989842519685
0
LINE
8
BLACK
6
CONTINUOUS
10
0.9761805511811024
20
-0.065989842519685
11
0.9761653937007874
21
-0.0659443700787402
0
LINE
8
BLACK
6
CONTINUOUS
10
0.9761653937007874
20
-0.0659443700787402
11
0.9761047637795275
21
-0.0658480708661417
0
LINE
8
BLACK
6
CONTINUOUS
10
0.9761047637795275
20
-0.0658480708661417
11
0.9742299999999999
21
-0.0620985039370079
0
LINE
8
BLACK
6
CONTINUOUS
10
0.9742299999999999
20
-0.0620985039370079
11
0.9740231102362205
21
-0.061557874015748
0
LINE
8
BLACK
6
CONTINUOUS
10
0.9740231102362205
20
-0.061557874015748
11
0.974015590551181
21
-0.0614520472440945
0
LINE
8
BLACK
6
CONTINUOUS
10
0.974015590551181
20
-0.0614520472440945
11
0.9739749999999999
21
-0.0613540551181102
0
LINE
8
BLACK
6
CONTINUOUS
10
0.9739749999999999
20
-0.0613540551181102
11
0.9739182677165354
21
-0.0607779921259843
0
LINE
8
BLACK
6
CONTINUOUS
10
0.9739182677165354
20
-0.0607779921259843
11
0.9739182677165354
21
-0.0401555905511811
0
LINE
8
BLACK
6
CONTINUOUS
10
0.9739182677165354
20
-0.0401555905511811
11
0.9739749999999999
21
-0.0395795275590551
0
LINE
8
BLACK
6
CONTINUOUS
10
0.9739749999999999
20
-0.0395795275590551
11
0.974415905511811
21
-0.0385151181102362
0
LINE
8
BLACK
6
CONTINUOUS
10
0.974415905511811
20
-0.0385151181102362
11
0.9752305511811024
21
-0.0377004724409449
0
LINE
8
BLACK
6
CONTINUOUS
10
0.9752305511811024
20
-0.0377004724409449
11
0.9762949606299213
21
-0.0372595669291339
0
LINE
8
BLACK
6
CONTINUOUS
10
0.9762949606299213
20
-0.0372595669291339
11
0.9774470866141732
21
-0.0372595669291339
0
LINE
8
BLACK
6
CONTINUOUS
10
0.9774470866141732
20
-0.0372595669291339
11
0.9785114960629921
21
-0.0377004724409449
0
LINE
8
BLACK
6
CONTINUOUS
10
1.0449386614173228
20
-0.0372595669291339
11
1.0450366535433071
21
-0.037300157480315
0
LINE
8
BLACK
6
CONTINUOUS
10
1.0450366535433071
20
-0.037300157480315
11
1.0451424803149607
21
-0.0373076771653543
0
LINE
8
BLACK
6
CONTINUOUS
10
1.0451424803149607
20
-0.0373076771653543
11
1.0456831102362205
21
-0.0375145669291339
0
LINE
8
BLACK
6
CONTINUOUS
10
1.0456831102362205
20
-0.0375145669291339
11
1.0494326377952756
21
-0.0393893307086614
0
LINE
8
BLACK
6
CONTINUOUS
10
1.0494326377952756
20
-0.0393893307086614
11
1.0495289763779527
21
-0.0394499606299213
0
LINE
8
BLACK
6
CONTINUOUS
10
1.0495289763779527
20
-0.0394499606299213
11
1.0495744094488189
21
-0.0394651181102362
0
LINE
8
BLACK
6
CONTINUOUS
10
1.0495744094488189
20
-0.0394651181102362
11
1.0496309448818897
21
-0.0395141338582677
0
LINE
8
BLACK
6
CONTINUOUS
10
1.0496309448818897
20
-0.0395141338582677
11
1.0499225196850392
21
-0.0396976771653543
0
LINE
8
BLACK
6
CONTINUOUS
10
1.0499225196850392
20
-0.0396976771653543
11
1.0501650787401575
21
-0.0399773622047244
0
LINE
8
BLACK
6
CONTINUOUS
10
1.0501650787401575
20
-0.0399773622047244
11
1.0504448031496063
21
-0.0402199606299213
0
LINE
8
BLACK
6
CONTINUOUS
10
1.0504448031496063
20
-0.0402199606299213
11
1.0506283070866143
21
-0.0405114960629921
0
LINE
8
BLACK
6
CONTINUOUS
10
1.0506283070866143
20
-0.0405114960629921
11
1.0506773622047243
21
-0.0405680708661417
0
LINE
8
BLACK
6
CONTINUOUS
10
1.0506773622047243
20
-0.0405680708661417
11
1.0506924803149607
21
-0.0406134645669291
0
LINE
8
BLACK
6
CONTINUOUS
10
1.0506924803149607
20
-0.0406134645669291
11
1.0507531496062992
21
-0.040709842519685
0
LINE
8
BLACK
6
CONTINUOUS
10
1.0507531496062992
20
-0.040709842519685
11
1.0526279133858267
21
-0.0444593700787402
0
LINE
8
BLACK
6
CONTINUOUS
10
1.0526279133858267
20
-0.0444593700787402
11
1.0528348031496062
21
-0.0449999606299213
0
LINE
8
BLACK
6
CONTINUOUS
10
1.0528348031496062
20
-0.0449999606299213
11
1.0528423228346457
21
-0.0451058267716535
0
LINE
8
BLACK
6
CONTINUOUS
10
1.0528423228346457
20
-0.0451058267716535
11
1.0528829133858268
21
-0.0452038188976378
0
LINE
8
BLACK
6
CONTINUOUS
10
1.0528829133858268
20
-0.0452038188976378
11
1.0529396456692912
21
-0.0457798818897638
0
LINE
8
BLACK
6
CONTINUOUS
10
1.0529396456692912
20
-0.0457798818897638
11
1.0529396456692912
21
-0.0664023228346457
0
LINE
8
BLACK
6
CONTINUOUS
10
1.0529396456692912
20
-0.0664023228346457
11
1.0528829133858268
21
-0.0669783858267717
0
LINE
8
BLACK
6
CONTINUOUS
10
1.0528829133858268
20
-0.0669783858267717
11
1.0524420078740158
21
-0.0680427952755906
0
LINE
8
BLACK
6
CONTINUOUS
10
1.0524420078740158
20
-0.0680427952755906
11
1.0516273622047243
21
-0.0688574409448819
0
LINE
8
BLACK
6
CONTINUOUS
10
1.0516273622047243
20
-0.0688574409448819
11
1.0505629527559055
21
-0.0692983464566929
0
LINE
8
BLACK
6
CONTINUOUS
10
1.0505629527559055
20
-0.0692983464566929
11
1.0494108267716535
21
-0.0692983464566929
0
LINE
8
BLACK
6
CONTINUOUS
10
1.0494108267716535
20
-0.0692983464566929
11
1.0483464173228345
21
-0.0688574409448819
0
LINE
8
BLACK
6
CONTINUOUS
10
1.0483464173228345
20
-0.0688574409448819
11
1.0482074803149606
21
-0.0687185039370079
0
LINE
8
BLACK
6
CONTINUOUS
10
1.0482074803149606
20
-0.0687185039370079
11
1.0475578740157481
21
-0.0690433464566929
0
LINE
8
BLACK
6
CONTINUOUS
10
1.0475578740157481
20
-0.0690433464566929
11
1.0470172440944883
21
-0.0692502362204724
0
LINE
8
BLACK
6
CONTINUOUS
10
1.0470172440944883
20
-0.0692502362204724
11
1.0469114173228347
21
-0.0692577165354331
0
LINE
8
BLACK
6
CONTINUOUS
10
1.0469114173228347
20
-0.0692577165354331
11
1.0468134251968504
21
-0.0692983464566929
0
LINE
8
BLACK
6
CONTINUOUS
10
1.0468134251968504
20
-0.0692983464566929
11
1.0462373622047243
21
-0.0693550787401575
0
LINE
8
BLACK
6
CONTINUOUS
10
1.0462373622047243
20
-0.0693550787401575
11
1.0368635433070865
21
-0.0693550787401575
0
LINE
8
BLACK
6
CONTINUOUS
10
1.0368635433070865
20
-0.0693550787401575
11
1.0362874803149607
21
-0.0692983464566929
0
LINE
8
BLACK
6
CONTINUOUS
10
1.0362874803149607
20
-0.0692983464566929
11
1.0361894881889764
21
-0.0692577559055118
0
LINE
8
BLACK
6
CONTINUOUS
10
1.0361894881889764
20
-0.0692577559055118
11
1.036083622047244
21
-0.0692502362204724
0
LINE
8
BLACK
6
CONTINUOUS
10
1.036083622047244
20
-0.0692502362204724
11
1.035543031496063
21
-0.0690433464566929
0
LINE
8
BLACK
6
CONTINUOUS
10
1.035543031496063
20
-0.0690433464566929
11
1.0317935039370079
21
-0.0671685826771654
0
LINE
8
BLACK
6
CONTINUOUS
10
1.0317935039370079
20
-0.0671685826771654
11
1.031697125984252
21
-0.0671079133858268
0
LINE
8
BLACK
6
CONTINUOUS
10
1.031697125984252
20
-0.0671079133858268
11
1.0316517322834646
21
-0.0670927952755905
0
LINE
8
BLACK
6
CONTINUOUS
10
1.0316517322834646
20
-0.0670927952755905
11
1.0315951574803148
21
-0.0670437401574803
0
LINE
8
BLACK
6
CONTINUOUS
10
1.0315951574803148
20
-0.0670437401574803
11
1.031303622047244
21
-0.0668602362204724
0
LINE
8
BLACK
6
CONTINUOUS
10
1.031303622047244
20
-0.0668602362204724
11
1.0310609448818897
21
-0.0665803937007874
0
LINE
8
BLACK
6
CONTINUOUS
10
1.0310609448818897
20
-0.0665803937007874
11
1.0307813385826772
21
-0.0663379133858268
0
LINE
8
BLACK
6
CONTINUOUS
10
1.0307813385826772
20
-0.0663379133858268
11
1.0305978346456692
21
-0.0660464173228346
0
LINE
8
BLACK
6
CONTINUOUS
10
1.0305978346456692
20
-0.0660464173228346
11
1.030548779527559
21
-0.065989842519685
0
LINE
8
BLACK
6
CONTINUOUS
10
1.030548779527559
20
-0.065989842519685
11
1.0305336220472441
21
-0.0659443700787402
0
LINE
8
BLACK
6
CONTINUOUS
10
1.0305336220472441
20
-0.0659443700787402
11
1.0304729921259843
21
-0.0658480708661417
0
LINE
8
BLACK
6
CONTINUOUS
10
1.0304729921259843
20
-0.0658480708661417
11
1.0285982283464568
21
-0.0620985039370079
0
LINE
8
BLACK
6
CONTINUOUS
10
1.0285982283464568
20
-0.0620985039370079
11
1.0283913385826771
21
-0.061557874015748
0
LINE
8
BLACK
6
CONTINUOUS
10
1.0283913385826771
20
-0.061557874015748
11
1.0283838188976377
21
-0.0614520472440945
0
LINE
8
BLACK
6
CONTINUOUS
10
1.0283838188976377
20
-0.0614520472440945
11
1.0283432283464566
21
-0.0613540551181102
0
LINE
8
BLACK
6
CONTINUOUS
10
1.0283432283464566
20
-0.0613540551181102
11
1.0282864960629921
21
-0.0607779921259843
0
LINE
8
BLACK
6
CONTINUOUS
10
1.0282864960629921
20
-0.0607779921259843
11
1.0282864960629921
21
-0.0570284645669291
0
LINE
8
BLACK
6
CONTINUOUS
10
1.0282864960629921
20
-0.0570284645669291
11
1.0283432283464566
21
-0.0564524015748031
0
LINE
8
BLACK
6
CONTINUOUS
10
1.0283432283464566
20
-0.0564524015748031
11
1.0283838188976377
21
-0.0563543700787402
0
LINE
8
BLACK
6
CONTINUOUS
10
1.0283838188976377
20
-0.0563543700787402
11
1.0283913385826771
21
-0.0562485826771653
0
LINE
8
BLACK
6
CONTINUOUS
10
1.0283913385826771
20
-0.0562485826771653
11
1.0285982283464568
21
-0.0557079527559055
0
LINE
8
BLACK
6
CONTINUOUS
10
1.0285982283464568
20
-0.0557079527559055
11
1.0304729921259843
21
-0.0519584251968504
0
LINE
8
BLACK
6
CONTINUOUS
10
1.0304729921259843
20
-0.0519584251968504
11
1.0305336220472441
21
-0.0518620472440945
0
LINE
8
BLACK
6
CONTINUOUS
10
1.0305336220472441
20
-0.0518620472440945
11
1.030548779527559
21
-0.0518166535433071
0
LINE
8
BLACK
6
CONTINUOUS
10
1.030548779527559
20
-0.0518166535433071
11
1.0305977952755905
21
-0.0517600787401575
0
LINE
8
BLACK
6
CONTINUOUS
10
1.0305977952755905
20
-0.0517600787401575
11
1.0307813385826772
21
-0.0514685433070866
0
LINE
8
BLACK
6
CONTINUOUS
10
1.0307813385826772
20
-0.0514685433070866
11
1.0310610236220472
21
-0.0512259448818898
0
LINE
8
BLACK
6
CONTINUOUS
10
1.0310610236220472
20
-0.0512259448818898
11
1.031303622047244
21
-0.0509462598425197
0
LINE
8
BLACK
6
CONTINUOUS
10
1.031303622047244
20
-0.0509462598425197
11
1.0315951574803148
21
-0.0507627165354331
0
LINE
8
BLACK
6
CONTINUOUS
10
1.0315951574803148
20
-0.0507627165354331
11
1.0316517322834646
21
-0.0507137007874016
0
LINE
8
BLACK
6
CONTINUOUS
10
1.0316517322834646
20
-0.0507137007874016
11
1.031697125984252
21
-0.0506985433070866
0
LINE
8
BLACK
6
CONTINUOUS
10
1.031697125984252
20
-0.0506985433070866
11
1.0317935039370079
21
-0.0506379133858268
0
LINE
8
BLACK
6
CONTINUOUS
10
1.0317935039370079
20
-0.0506379133858268
11
1.035543031496063
21
-0.0487631496062992
0
LINE
8
BLACK
6
CONTINUOUS
10
1.035543031496063
20
-0.0487631496062992
11
1.036083622047244
21
-0.0485562598425197
0
LINE
8
BLACK
6
CONTINUOUS
10
1.036083622047244
20
-0.0485562598425197
11
1.0361894881889764
21
-0.0485487007874016
0
LINE
8
BLACK
6
CONTINUOUS
10
1.0361894881889764
20
-0.0485487007874016
11
1.0362874803149607
21
-0.0485081496062992
0
LINE
8
BLACK
6
CONTINUOUS
10
1.0362874803149607
20
-0.0485081496062992
11
1.0368635433070865
21
-0.0484514173228346
0
LINE
8
BLACK
6
CONTINUOUS
10
1.0368635433070865
20
-0.0484514173228346
11
1.0455403149606299
21
-0.0484514173228346
0
LINE
8
BLACK
6
CONTINUOUS
10
1.0455403149606299
20
-0.0484514173228346
11
1.0470341338582676
21
-0.0477044881889764
0
LINE
8
BLACK
6
CONTINUOUS
10
1.0470341338582676
20
-0.0477044881889764
11
1.0470341338582676
21
-0.0464769291338583
0
LINE
8
BLACK
6
CONTINUOUS
10
1.0470341338582676
20
-0.0464769291338583
11
1.0459112598425198
21
-0.0442311811023622
0
LINE
8
BLACK
6
CONTINUOUS
10
1.0459112598425198
20
-0.0442311811023622
11
1.0436655511811024
21
-0.0431083464566929
0
LINE
8
BLACK
6
CONTINUOUS
10
1.0436655511811024
20
-0.0431083464566929
11
1.0375605905511811
21
-0.0431083464566929
0
LINE
8
BLACK
6
CONTINUOUS
10
1.0375605905511811
20
-0.0431083464566929
11
1.0344345275590552
21
-0.0446713779527559
0
LINE
8
BLACK
6
CONTINUOUS
10
1.0344345275590552
20
-0.0446713779527559
11
1.0338938976377952
21
-0.0448782677165354
0
LINE
8
BLACK
6
CONTINUOUS
10
1.0338938976377952
20
-0.0448782677165354
11
1.03274468503937
21
-0.0449599212598425
0
LINE
8
BLACK
6
CONTINUOUS
10
1.03274468503937
20
-0.0449599212598425
11
1.0316517322834646
21
-0.0445955905511811
0
LINE
8
BLACK
6
CONTINUOUS
10
1.0316517322834646
20
-0.0445955905511811
11
1.0307813385826772
21
-0.0438407480314961
0
LINE
8
BLACK
6
CONTINUOUS
10
1.0307813385826772
20
-0.0438407480314961
11
1.0302661023622046
21
-0.0428102362204724
0
LINE
8
BLACK
6
CONTINUOUS
10
1.0302661023622046
20
-0.0428102362204724
11
1.0301844488188976
21
-0.0416610236220472
0
LINE
8
BLACK
6
CONTINUOUS
10
1.0301844488188976
20
-0.0416610236220472
11
1.030548779527559
21
-0.0405680708661417
0
LINE
8
BLACK
6
CONTINUOUS
10
1.030548779527559
20
-0.0405680708661417
11
1.031303622047244
21
-0.0396976771653543
0
LINE
8
BLACK
6
CONTINUOUS
10
1.031303622047244
20
-0.0396976771653543
11
1.0317935039370079
21
-0.0393893307086614
0
LINE
8
BLACK
6
CONTINUOUS
10
1.0317935039370079
20
-0.0393893307086614
11
1.035543031496063
21
-0.0375145669291339
0
LINE
8
BLACK
6
CONTINUOUS
10
1.035543031496063
20
-0.0375145669291339
11
1.036083622047244
21
-0.0373076771653543
0
LINE
8
BLACK
6
CONTINUOUS
10
1.036083622047244
20
-0.0373076771653543
11
1.0361894881889764
21
-0.0373001181102362
0
LINE
8
BLACK
6
CONTINUOUS
10
1.0361894881889764
20
-0.0373001181102362
11
1.0362874803149607
21
-0.0372595669291339
0
LINE
8
BLACK
6
CONTINUOUS
10
1.0362874803149607
20
-0.0372595669291339
11
1.0368635433070865
21
-0.0372028346456693
0
LINE
8
BLACK
6
CONTINUOUS
10
1.0368635433070865
20
-0.0372028346456693
11
1.0443625984251967
21
-0.0372028346456693
0
LINE
8
BLACK
6
CONTINUOUS
10
1.0443625984251967
20
-0.0372028346456693
11
1.0449386614173228
21
-0.0372595669291339
0
LINE
8
BLACK
6
CONTINUOUS
10
1.0470172440944883
20
-0.0542520866141732
11
1.0469114173228347
21
-0.0542595669291339
0
LINE
8
BLACK
6
CONTINUOUS
10
1.0469114173228347
20
-0.0542595669291339
11
1.0468134251968504
21
-0.0543001968503937
0
LINE
8
BLACK
6
CONTINUOUS
10
1.0468134251968504
20
-0.0543001968503937
11
1.0462373622047243
21
-0.0543569291338583
0
LINE
8
BLACK
6
CONTINUOUS
10
1.0462373622047243
20
-0.0543569291338583
11
1.0375605905511811
21
-0.0543569291338583
0
LINE
8
BLACK
6
CONTINUOUS
10
1.0375605905511811
20
-0.0543569291338583
11
1.035314842519685
21
-0.0554797637795276
0
LINE
8
BLACK
6
CONTINUOUS
10
1.035314842519685
20
-0.0554797637795276
11
1.0341920078740157
21
-0.0577255118110236
0
LINE
8
BLACK
6
CONTINUOUS
10
1.0341920078740157
20
-0.0577255118110236
11
1.0341920078740157
21
-0.0600809448818898
0
LINE
8
BLACK
6
CONTINUOUS
10
1.0341920078740157
20
-0.0600809448818898
11
1.035314842519685
21
-0.0623266929133858
0
LINE
8
BLACK
6
CONTINUOUS
10
1.035314842519685
20
-0.0623266929133858
11
1.0375605905511811
21
-0.0634495669291339
0
LINE
8
BLACK
6
CONTINUOUS
10
1.0375605905511811
20
-0.0634495669291339
11
1.0455403149606299
21
-0.0634495669291339
0
LINE
8
BLACK
6
CONTINUOUS
10
1.0455403149606299
20
-0.0634495669291339
11
1.0470341338582676
21
-0.0627026377952756
0
LINE
8
BLACK
6
CONTINUOUS
10
1.0470341338582676
20
-0.0627026377952756
11
1.0470341338582676
21
-0.0542455905511811
0
LINE
8
BLACK
6
CONTINUOUS
10
1.0470341338582676
20
-0.0542455905511811
11
1.0470172440944883
21
-0.0542520866141732
0
LINE
8
BLACK
6
CONTINUOUS
10
1.0703750393700786
20
-0.024577125984252
11
1.0711896850393701
21
-0.0253917716535433
0
LINE
8
BLACK
6
CONTINUOUS
10
1.0711896850393701
20
-0.0253917716535433
11
1.0716305905511812
21
-0.0264561811023622
0
LINE
8
BLACK
6
CONTINUOUS
10
1.0716305905511812
20
-0.0264561811023622
11
1.0716873228346457
21
-0.0270322440944882
0
LINE
8
BLACK
6
CONTINUOUS
10
1.0716873228346457
20
-0.0270322440944882
11
1.0716873228346457
21
-0.0372028346456693
0
LINE
8
BLACK
6
CONTINUOUS
10
1.0716873228346457
20
-0.0372028346456693
11
1.0781083858267717
21
-0.0372028346456693
0
LINE
8
BLACK
6
CONTINUOUS
10
1.0781083858267717
20
-0.0372028346456693
11
1.0786844488188976
21
-0.0372595669291339
0
LINE
8
BLACK
6
CONTINUOUS
10
1.0786844488188976
20
-0.0372595669291339
11
1.0797488582677166
21
-0.0377004724409449
0
LINE
8
BLACK
6
CONTINUOUS
10
1.0797488582677166
20
-0.0377004724409449
11
1.0805635039370078
21
-0.0385151181102362
0
LINE
8
BLACK
6
CONTINUOUS
10
1.0805635039370078
20
-0.0385151181102362
11
1.0810044094488189
21
-0.0395795275590551
0
LINE
8
BLACK
6
CONTINUOUS
10
1.0810044094488189
20
-0.0395795275590551
11
1.0810044094488189
21
-0.0407316535433071
0
LINE
8
BLACK
6
CONTINUOUS
10
1.0810044094488189
20
-0.0407316535433071
11
1.0805635039370078
21
-0.041796062992126
0
LINE
8
BLACK
6
CONTINUOUS
10
1.0805635039370078
20
-0.041796062992126
11
1.0797488582677166
21
-0.0426107086614173
0
LINE
8
BLACK
6
CONTINUOUS
10
1.0797488582677166
20
-0.0426107086614173
11
1.0786844488188976
21
-0.0430516141732283
0
LINE
8
BLACK
6
CONTINUOUS
10
1.0786844488188976
20
-0.0430516141732283
11
1.0781083858267717
21
-0.0431083464566929
0
LINE
8
BLACK
6
CONTINUOUS
10
1.0781083858267717
20
-0.0431083464566929
11
1.0716873228346457
21
-0.0431083464566929
0
LINE
8
BLACK
6
CONTINUOUS
10
1.0716873228346457
20
-0.0431083464566929
11
1.0716873228346457
21
-0.0600809448818898
0
LINE
8
BLACK
6
CONTINUOUS
10
1.0716873228346457
20
-0.0600809448818898
11
1.0728101574803148
21
-0.0623266929133858
0
LINE
8
BLACK
6
CONTINUOUS
10
1.0728101574803148
20
-0.0623266929133858
11
1.075055905511811
21
-0.0634495669291339
0
LINE
8
BLACK
6
CONTINUOUS
10
1.075055905511811
20
-0.0634495669291339
11
1.0781083858267717
21
-0.0634495669291339
0
LINE
8
BLACK
6
CONTINUOUS
10
1.0781083858267717
20
-0.0634495669291339
11
1.0786844488188976
21
-0.0635062992125984
0
LINE
8
BLACK
6
CONTINUOUS
10
1.0786844488188976
20
-0.0635062992125984
11
1.0797488582677166
21
-0.0639472047244094
0
LINE
8
BLACK
6
CONTINUOUS
10
1.0797488582677166
20
-0.0639472047244094
11
1.0805635039370078
21
-0.0647618503937008
0
LINE
8
BLACK
6
CONTINUOUS
10
1.0805635039370078
20
-0.0647618503937008
11
1.0810044094488189
21
-0.0658262598425197
0
LINE
8
BLACK
6
CONTINUOUS
10
1.0810044094488189
20
-0.0658262598425197
11
1.0810044094488189
21
-0.0669783858267717
0
LINE
8
BLACK
6
CONTINUOUS
10
1.0810044094488189
20
-0.0669783858267717
11
1.0805635039370078
21
-0.0680427952755906
0
LINE
8
BLACK
6
CONTINUOUS
10
1.0805635039370078
20
-0.0680427952755906
11
1.0797488582677166
21
-0.0688574409448819
0
LINE
8
BLACK
6
CONTINUOUS
10
1.0797488582677166
20
-0.0688574409448819
11
1.0786844488188976
21
-0.0692983464566929
0
LINE
8
BLACK
6
CONTINUOUS
10
1.0786844488188976
20
-0.0692983464566929
11
1.0781083858267717
21
-0.0693550787401575
0
LINE
8
BLACK
6
CONTINUOUS
10
1.0781083858267717
20
-0.0693550787401575
11
1.0743588582677166
21
-0.0693550787401575
0
LINE
8
BLACK
6
CONTINUOUS
10
1.0743588582677166
20
-0.0693550787401575
11
1.0737827952755905
21
-0.0692983464566929
0
LINE
8
BLACK
6
CONTINUOUS
10
1.0737827952755905
20
-0.0692983464566929
11
1.0736848031496062
21
-0.0692577559055118
0
LINE
8
BLACK
6
CONTINUOUS
10
1.0736848031496062
20
-0.0692577559055118
11
1.0735789370078741
21
-0.0692502362204724
0
LINE
8
BLACK
6
CONTINUOUS
10
1.0735789370078741
20
-0.0692502362204724
11
1.0730383464566928
21
-0.0690433464566929
0
LINE
8
BLACK
6
CONTINUOUS
10
1.0730383464566928
20
-0.0690433464566929
11
1.0692888188976377
21
-0.0671685826771654
0
LINE
8
BLACK
6
CONTINUOUS
10
1.0692888188976377
20
-0.0671685826771654
11
1.0691924409448819
21
-0.0671079133858268
0
LINE
8
BLACK
6
CONTINUOUS
10
1.0691924409448819
20
-0.0671079133858268
11
1.0691470472440945
21
-0.0670927952755905
0
LINE
8
BLACK
6
CONTINUOUS
10
1.0691470472440945
20
-0.0670927952755905
11
1.0690904724409449
21
-0.0670437401574803
0
LINE
8
BLACK
6
CONTINUOUS
10
1.0690904724409449
20
-0.0670437401574803
11
1.0687989370078741
21
-0.0668602362204724
0
LINE
8
BLACK
6
CONTINUOUS
10
1.0687989370078741
20
-0.0668602362204724
11
1.0685562598425196
21
-0.0665803937007874
0
LINE
8
BLACK
6
CONTINUOUS
10
1.0685562598425196
20
-0.0665803937007874
11
1.068276653543307
21
-0.0663379133858268
0
LINE
8
BLACK
6
CONTINUOUS
10
1.068276653543307
20
-0.0663379133858268
11
1.0680931496062991
21
-0.0660464173228346
0
LINE
8
BLACK
6
CONTINUOUS
10
1.0680931496062991
20
-0.0660464173228346
11
1.068044094488189
21
-0.065989842519685
0
LINE
8
BLACK
6
CONTINUOUS
10
1.068044094488189
20
-0.065989842519685
11
1.0680289370078739
21
-0.0659443700787402
0
LINE
8
BLACK
6
CONTINUOUS
10
1.0680289370078739
20
-0.0659443700787402
11
1.0679683070866142
21
-0.0658480708661417
0
LINE
8
BLACK
6
CONTINUOUS
10
1.0679683070866142
20
-0.0658480708661417
11
1.0660935433070866
21
-0.0620985039370079
0
LINE
8
BLACK
6
CONTINUOUS
10
1.0660935433070866
20
-0.0620985039370079
11
1.0658866535433071
21
-0.061557874015748
0
LINE
8
BLACK
6
CONTINUOUS
10
1.0658866535433071
20
-0.061557874015748
11
1.0658791338582676
21
-0.0614520472440945
0
LINE
8
BLACK
6
CONTINUOUS
10
1.0658791338582676
20
-0.0614520472440945
11
1.0658385433070865
21
-0.0613540551181102
0
LINE
8
BLACK
6
CONTINUOUS
10
1.0658385433070865
20
-0.0613540551181102
11
1.0657818110236221
21
-0.0607779921259843
0
LINE
8
BLACK
6
CONTINUOUS
10
1.0657818110236221
20
-0.0607779921259843
11
1.0657818110236221
21
-0.0431083464566929
0
LINE
8
BLACK
6
CONTINUOUS
10
1.0657818110236221
20
-0.0431083464566929
11
1.063110275590551
21
-0.0431083464566929
0
LINE
8
BLACK
6
CONTINUOUS
10
1.063110275590551
20
-0.0431083464566929
11
1.0625342125984252
21
-0.0430516141732283
0
LINE
8
BLACK
6
CONTINUOUS
10
1.0625342125984252
20
-0.0430516141732283
11
1.0614698031496064
21
-0.0426107086614173
0
LINE
8
BLACK
6
CONTINUOUS
10
1.0614698031496064
20
-0.0426107086614173
11
1.0606551574803149
21
-0.041796062992126
0
LINE
8
BLACK
6
CONTINUOUS
10
1.0606551574803149
20
-0.041796062992126
11
1.0602142519685038
21
-0.0407316535433071
0
LINE
8
BLACK
6
CONTINUOUS
10
1.0602142519685038
20
-0.0407316535433071
11
1.0602142519685038
21
-0.0395795275590551
0
LINE
8
BLACK
6
CONTINUOUS
10
1.0602142519685038
20
-0.0395795275590551
11
1.0606551574803149
21
-0.0385151181102362
0
LINE
8
BLACK
6
CONTINUOUS
10
1.0606551574803149
20
-0.0385151181102362
11
1.0614698031496064
21
-0.0377004724409449
0
LINE
8
BLACK
6
CONTINUOUS
10
1.0614698031496064
20
-0.0377004724409449
11
1.0625342125984252
21
-0.0372595669291339
0
LINE
8
BLACK
6
CONTINUOUS
10
1.0625342125984252
20
-0.0372595669291339
11
1.063110275590551
21
-0.0372028346456693
0
LINE
8
BLACK
6
CONTINUOUS
10
1.063110275590551
20
-0.0372028346456693
11
1.0657818110236221
21
-0.0372028346456693
0
LINE
8
BLACK
6
CONTINUOUS
10
1.0657818110236221
20
-0.0372028346456693
11
1.0657818110236221
21
-0.0270322440944882
0
LINE
8
BLACK
6
CONTINUOUS
10
1.0657818110236221
20
-0.0270322440944882
11
1.0658385433070865
21
-0.0264561811023622
0
LINE
8
BLACK
6
CONTINUOUS
10
1.0658385433070865
20
-0.0264561811023622
11
1.0662794488188976
21
-0.0253917716535433
0
LINE
8
BLACK
6
CONTINUOUS
10
1.0662794488188976
20
-0.0253917716535433
11
1.067094094488189
21
-0.024577125984252
0
LINE
8
BLACK
6
CONTINUOUS
10
1.067094094488189
20
-0.024577125984252
11
1.0681585039370078
21
-0.0241362204724409
0
LINE
8
BLACK
6
CONTINUOUS
10
1.0681585039370078
20
-0.0241362204724409
11
1.0693106299212598
21
-0.0241362204724409
0
LINE
8
BLACK
6
CONTINUOUS
10
1.0693106299212598
20
-0.0241362204724409
11
1.0703750393700786
21
-0.024577125984252
0
LINE
8
BLACK
6
CONTINUOUS
10
1.1218040551181103
20
-0.0372595669291339
11
1.1219020472440944
21
-0.037300157480315
0
LINE
8
BLACK
6
CONTINUOUS
10
1.1219020472440944
20
-0.037300157480315
11
1.122007874015748
21
-0.0373076771653543
0
LINE
8
BLACK
6
CONTINUOUS
10
1.122007874015748
20
-0.0373076771653543
11
1.1225485039370078
21
-0.0375145669291339
0
LINE
8
BLACK
6
CONTINUOUS
10
1.1225485039370078
20
-0.0375145669291339
11
1.1262980314960629
21
-0.0393893307086614
0
LINE
8
BLACK
6
CONTINUOUS
10
1.1262980314960629
20
-0.0393893307086614
11
1.1265460236220473
21
-0.0395453937007874
0
LINE
8
BLACK
6
CONTINUOUS
10
1.1265460236220473
20
-0.0395453937007874
11
1.1266179921259842
21
-0.0395752362204724
0
LINE
8
BLACK
6
CONTINUOUS
10
1.1266179921259842
20
-0.0395752362204724
11
1.1266989370078739
21
-0.0396416929133858
0
LINE
8
BLACK
6
CONTINUOUS
10
1.1266989370078739
20
-0.0396416929133858
11
1.1267879133858267
21
-0.0396976771653543
0
LINE
8
BLACK
6
CONTINUOUS
10
1.1267879133858267
20
-0.0396976771653543
11
1.1268390551181102
21
-0.0397566535433071
0
LINE
8
BLACK
6
CONTINUOUS
10
1.1268390551181102
20
-0.0397566535433071
11
1.127065433070866
21
-0.0399424409448819
0
LINE
8
BLACK
6
CONTINUOUS
10
1.127065433070866
20
-0.0399424409448819
11
1.1289401968503936
21
-0.0418172047244094
0
LINE
8
BLACK
6
CONTINUOUS
10
1.1289401968503936
20
-0.0418172047244094
11
1.1291259448818898
21
-0.0420435433070866
0
LINE
8
BLACK
6
CONTINUOUS
10
1.1291259448818898
20
-0.0420435433070866
11
1.1291849606299211
21
-0.0420947244094488
0
LINE
8
BLACK
6
CONTINUOUS
10
1.1291849606299211
20
-0.0420947244094488
11
1.1292409055118109
21
-0.0421836614173228
0
LINE
8
BLACK
6
CONTINUOUS
10
1.1292409055118109
20
-0.0421836614173228
11
1.129307401574803
21
-0.0422646456692913
0
LINE
8
BLACK
6
CONTINUOUS
10
1.129307401574803
20
-0.0422646456692913
11
1.1293372047244095
21
-0.0423365748031496
0
LINE
8
BLACK
6
CONTINUOUS
10
1.1293372047244095
20
-0.0423365748031496
11
1.1294933070866142
21
-0.0425846062992126
0
LINE
8
BLACK
6
CONTINUOUS
10
1.1294933070866142
20
-0.0425846062992126
11
1.1313680708661418
21
-0.0463341338582677
0
LINE
8
BLACK
6
CONTINUOUS
10
1.1313680708661418
20
-0.0463341338582677
11
1.1315749606299212
21
-0.0468747244094488
0
LINE
8
BLACK
6
CONTINUOUS
10
1.1315749606299212
20
-0.0468747244094488
11
1.1315824803149606
21
-0.0469805905511811
0
LINE
8
BLACK
6
CONTINUOUS
10
1.1315824803149606
20
-0.0469805905511811
11
1.1316230708661417
21
-0.0470785826771654
0
LINE
8
BLACK
6
CONTINUOUS
10
1.1316230708661417
20
-0.0470785826771654
11
1.1316798031496063
21
-0.0476546456692913
0
LINE
8
BLACK
6
CONTINUOUS
10
1.1316798031496063
20
-0.0476546456692913
11
1.1316798031496063
21
-0.0589032283464567
0
LINE
8
BLACK
6
CONTINUOUS
10
1.1316798031496063
20
-0.0589032283464567
11
1.1316230708661417
21
-0.0594792913385827
0
LINE
8
BLACK
6
CONTINUOUS
10
1.1316230708661417
20
-0.0594792913385827
11
1.1315824803149606
21
-0.0595772440944882
0
LINE
8
BLACK
6
CONTINUOUS
10
1.1315824803149606
20
-0.0595772440944882
11
1.1315749606299212
21
-0.0596831496062992
0
LINE
8
BLACK
6
CONTINUOUS
10
1.1315749606299212
20
-0.0596831496062992
11
1.1313680708661418
21
-0.0602237401574803
0
LINE
8
BLACK
6
CONTINUOUS
10
1.1313680708661418
20
-0.0602237401574803
11
1.1294933070866142
21
-0.0639732677165354
0
LINE
8
BLACK
6
CONTINUOUS
10
1.1294933070866142
20
-0.0639732677165354
11
1.1293372440944882
21
-0.0642211417322835
0
LINE
8
BLACK
6
CONTINUOUS
10
1.1293372440944882
20
-0.0642211417322835
11
1.1293074409448818
21
-0.064293188976378
0
LINE
8
BLACK
6
CONTINUOUS
10
1.1293074409448818
20
-0.064293188976378
11
1.1292409055118109
21
-0.0643742125984252
0
LINE
8
BLACK
6
CONTINUOUS
10
1.1292409055118109
20
-0.0643742125984252
11
1.1291849606299211
21
-0.0644631496062992
0
LINE
8
BLACK
6
CONTINUOUS
10
1.1291849606299211
20
-0.0644631496062992
11
1.1291259448818898
21
-0.0645142913385827
0
LINE
8
BLACK
6
CONTINUOUS
10
1.1291259448818898
20
-0.0645142913385827
11
1.1289401968503936
21
-0.0647406692913386
0
LINE
8
BLACK
6
CONTINUOUS
10
1.1289401968503936
20
-0.0647406692913386
11
1.1270654724409448
21
-0.0666154330708661
0
LINE
8
BLACK
6
CONTINUOUS
10
1.1270654724409448
20
-0.0666154330708661
11
1.126839094488189
21
-0.0668011811023622
0
LINE
8
BLACK
6
CONTINUOUS
10
1.126839094488189
20
-0.0668011811023622
11
1.1267879133858267
21
-0.0668602362204724
0
LINE
8
BLACK
6
CONTINUOUS
10
1.1267879133858267
20
-0.0668602362204724
11
1.1266989370078739
21
-0.0669162204724409
0
LINE
8
BLACK
6
CONTINUOUS
10
1.1266989370078739
20
-0.0669162204724409
11
1.1266179921259842
21
-0.0669826771653543
0
LINE
8
BLACK
6
CONTINUOUS
10
1.1266179921259842
20
-0.0669826771653543
11
1.1265460236220473
21
-0.0670124803149606
0
LINE
8
BLACK
6
CONTINUOUS
10
1.1265460236220473
20
-0.0670124803149606
11
1.1262980314960629
21
-0.0671685826771654
0
LINE
8
BLACK
6
CONTINUOUS
10
1.1262980314960629
20
-0.0671685826771654
11
1.1225485039370078
21
-0.0690433464566929
0
LINE
8
BLACK
6
CONTINUOUS
10
1.1225485039370078
20
-0.0690433464566929
11
1.122007874015748
21
-0.0692502362204724
0
LINE
8
BLACK
6
CONTINUOUS
10
1.122007874015748
20
-0.0692502362204724
11
1.1219020472440944
21
-0.0692577165354331
0
LINE
8
BLACK
6
CONTINUOUS
10
1.1219020472440944
20
-0.0692577165354331
11
1.1218040551181103
21
-0.0692983464566929
0
LINE
8
BLACK
6
CONTINUOUS
10
1.1218040551181103
20
-0.0692983464566929
11
1.1212279921259842
21
-0.0693550787401575
0
LINE
8
BLACK
6
CONTINUOUS
10
1.1212279921259842
20
-0.0693550787401575
11
1.1156037007874016
21
-0.0693550787401575
0
LINE
8
BLACK
6
CONTINUOUS
10
1.1156037007874016
20
-0.0693550787401575
11
1.1150276377952755
21
-0.0692983464566929
0
LINE
8
BLACK
6
CONTINUOUS
10
1.1150276377952755
20
-0.0692983464566929
11
1.1149296456692912
21
-0.0692577559055118
0
LINE
8
BLACK
6
CONTINUOUS
10
1.1149296456692912
20
-0.0692577559055118
11
1.1148237795275591
21
-0.0692502362204724
0
LINE
8
BLACK
6
CONTINUOUS
10
1.1148237795275591
20
-0.0692502362204724
11
1.114283188976378
21
-0.0690433464566929
0
LINE
8
BLACK
6
CONTINUOUS
10
1.114283188976378
20
-0.0690433464566929
11
1.1105336614173229
21
-0.0671685826771654
0
LINE
8
BLACK
6
CONTINUOUS
10
1.1105336614173229
20
-0.0671685826771654
11
1.1102856299212598
21
-0.0670124803149606
0
LINE
8
BLACK
6
CONTINUOUS
10
1.1102856299212598
20
-0.0670124803149606
11
1.1102137007874016
21
-0.0669826771653543
0
LINE
8
BLACK
6
CONTINUOUS
10
1.1102137007874016
20
-0.0669826771653543
11
1.1101327165354331
21
-0.0669162204724409
0
LINE
8
BLACK
6
CONTINUOUS
10
1.1101327165354331
20
-0.0669162204724409
11
1.1100437795275591
21
-0.0668602362204724
0
LINE
8
BLACK
6
CONTINUOUS
10
1.1100437795275591
20
-0.0668602362204724
11
1.1099925590551181
21
-0.0668011811023622
0
LINE
8
BLACK
6
CONTINUOUS
10
1.1099925590551181
20
-0.0668011811023622
11
1.109766220472441
21
-0.0666154330708661
0
LINE
8
BLACK
6
CONTINUOUS
10
1.109766220472441
20
-0.0666154330708661
11
1.1078914566929134
21
-0.0647406299212598
0
LINE
8
BLACK
6
CONTINUOUS
10
1.1078914566929134
20
-0.0647406299212598
11
1.1077057086614173
21
-0.0645142913385827
0
LINE
8
BLACK
6
CONTINUOUS
10
1.1077057086614173
20
-0.0645142913385827
11
1.1076467322834644
21
-0.0644631496062992
0
LINE
8
BLACK
6
CONTINUOUS
10
1.1076467322834644
20
-0.0644631496062992
11
1.1075907480314959
21
-0.0643742125984252
0
LINE
8
BLACK
6
CONTINUOUS
10
1.1075907480314959
20
-0.0643742125984252
11
1.107524251968504
21
-0.064293188976378
0
LINE
8
BLACK
6
CONTINUOUS
10
1.107524251968504
20
-0.064293188976378
11
1.1074944094488188
21
-0.0642211417322835
0
LINE
8
BLACK
6
CONTINUOUS
10
1.1074944094488188
20
-0.0642211417322835
11
1.1073383858267716
21
-0.0639732677165354
0
LINE
8
BLACK
6
CONTINUOUS
10
1.1073383858267716
20
-0.0639732677165354
11
1.105463622047244
21
-0.0602237401574803
0
LINE
8
BLACK
6
CONTINUOUS
10
1.105463622047244
20
-0.0602237401574803
11
1.1052567322834645
21
-0.0596831102362205
0
LINE
8
BLACK
6
CONTINUOUS
10
1.1052567322834645
20
-0.0596831102362205
11
1.1052492125984252
21
-0.0595772834645669
0
LINE
8
BLACK
6
CONTINUOUS
10
1.1052492125984252
20
-0.0595772834645669
11
1.1052086220472441
21
-0.0594792913385827
0
LINE
8
BLACK
6
CONTINUOUS
10
1.1052086220472441
20
-0.0594792913385827
11
1.1051518897637795
21
-0.0589032283464567
0
LINE
8
BLACK
6
CONTINUOUS
10
1.1051518897637795
20
-0.0589032283464567
11
1.1051518897637795
21
-0.0476546456692913
0
LINE
8
BLACK
6
CONTINUOUS
10
1.1051518897637795
20
-0.0476546456692913
11
1.1052086220472441
21
-0.0470785826771654
0
LINE
8
BLACK
6
CONTINUOUS
10
1.1052086220472441
20
-0.0470785826771654
11
1.1052492125984252
21
-0.0469805511811024
0
LINE
8
BLACK
6
CONTINUOUS
10
1.1052492125984252
20
-0.0469805511811024
11
1.1052567322834645
21
-0.0468747637795276
0
LINE
8
BLACK
6
CONTINUOUS
10
1.1052567322834645
20
-0.0468747637795276
11
1.105463622047244
21
-0.0463341338582677
0
LINE
8
BLACK
6
CONTINUOUS
10
1.105463622047244
20
-0.0463341338582677
11
1.1073383858267716
21
-0.0425846062992126
0
LINE
8
BLACK
6
CONTINUOUS
10
1.1073383858267716
20
-0.0425846062992126
11
1.1074944488188976
21
-0.0423365748031496
0
LINE
8
BLACK
6
CONTINUOUS
10
1.1074944488188976
20
-0.0423365748031496
11
1.1075242913385825
21
-0.0422646456692913
0
LINE
8
BLACK
6
CONTINUOUS
10
1.1075242913385825
20
-0.0422646456692913
11
1.1075907480314959
21
-0.0421836614173228
0
LINE
8
BLACK
6
CONTINUOUS
10
1.1075907480314959
20
-0.0421836614173228
11
1.1076467322834644
21
-0.0420947244094488
0
LINE
8
BLACK
6
CONTINUOUS
10
1.1076467322834644
20
-0.0420947244094488
11
1.1077057086614173
21
-0.0420435433070866
0
LINE
8
BLACK
6
CONTINUOUS
10
1.1077057086614173
20
-0.0420435433070866
11
1.1078914960629922
21
-0.0418172047244094
0
LINE
8
BLACK
6
CONTINUOUS
10
1.1078914960629922
20
-0.0418172047244094
11
1.1097662598425198
21
-0.0399424409448819
0
LINE
8
BLACK
6
CONTINUOUS
10
1.1097662598425198
20
-0.0399424409448819
11
1.1099925984251968
21
-0.0397566535433071
0
LINE
8
BLACK
6
CONTINUOUS
10
1.1099925984251968
20
-0.0397566535433071
11
1.1100437795275591
21
-0.0396976771653543
0
LINE
8
BLACK
6
CONTINUOUS
10
1.1100437795275591
20
-0.0396976771653543
11
1.1101327165354331
21
-0.0396416929133858
0
LINE
8
BLACK
6
CONTINUOUS
10
1.1101327165354331
20
-0.0396416929133858
11
1.1102137007874016
21
-0.0395752362204724
0
LINE
8
BLACK
6
CONTINUOUS
10
1.1102137007874016
20
-0.0395752362204724
11
1.1102856299212598
21
-0.0395453937007874
0
LINE
8
BLACK
6
CONTINUOUS
10
1.1102856299212598
20
-0.0395453937007874
11
1.1105336614173229
21
-0.0393893307086614
0
LINE
8
BLACK
6
CONTINUOUS
10
1.1105336614173229
20
-0.0393893307086614
11
1.114283188976378
21
-0.0375145669291339
0
LINE
8
BLACK
6
CONTINUOUS
10
1.114283188976378
20
-0.0375145669291339
11
1.1148237795275591
21
-0.0373076771653543
0
LINE
8
BLACK
6
CONTINUOUS
10
1.1148237795275591
20
-0.0373076771653543
11
1.1149296456692912
21
-0.0373001181102362
0
LINE
8
BLACK
6
CONTINUOUS
10
1.1149296456692912
20
-0.0373001181102362
11
1.1150276377952755
21
-0.0372595669291339
0
LINE
8
BLACK
6
CONTINUOUS
10
1.1150276377952755
20
-0.0372595669291339
11
1.1156037007874016
21
-0.0372028346456693
0
LINE
8
BLACK
6
CONTINUOUS
10
1.1156037007874016
20
-0.0372028346456693
11
1.1212279921259842
21
-0.0372028346456693
0
LINE
8
BLACK
6
CONTINUOUS
10
1.1212279921259842
20
-0.0372028346456693
11
1.1218040551181103
21
-0.0372595669291339
0
LINE
8
BLACK
6
CONTINUOUS
10
1.1136032677165355
20
-0.0444570866141732
11
1.1124061417322835
21
-0.0456542125984252
0
LINE
8
BLACK
6
CONTINUOUS
10
1.1124061417322835
20
-0.0456542125984252
11
1.1110574015748031
21
-0.0483516929133858
0
LINE
8
BLACK
6
CONTINUOUS
10
1.1110574015748031
20
-0.0483516929133858
11
1.1110574015748031
21
-0.0582061811023622
0
LINE
8
BLACK
6
CONTINUOUS
10
1.1110574015748031
20
-0.0582061811023622
11
1.1124061417322835
21
-0.0609036614173228
0
LINE
8
BLACK
6
CONTINUOUS
10
1.1124061417322835
20
-0.0609036614173228
11
1.1136032677165355
21
-0.0621008267716535
0
LINE
8
BLACK
6
CONTINUOUS
10
1.1136032677165355
20
-0.0621008267716535
11
1.1163007480314961
21
-0.0634495669291339
0
LINE
8
BLACK
6
CONTINUOUS
10
1.1163007480314961
20
-0.0634495669291339
11
1.1205309448818896
21
-0.0634495669291339
0
LINE
8
BLACK
6
CONTINUOUS
10
1.1205309448818896
20
-0.0634495669291339
11
1.1232283858267715
21
-0.0621008267716535
0
LINE
8
BLACK
6
CONTINUOUS
10
1.1232283858267715
20
-0.0621008267716535
11
1.1244255118110236
21
-0.0609036614173228
0
LINE
8
BLACK
6
CONTINUOUS
10
1.1244255118110236
20
-0.0609036614173228
11
1.1257742913385826
21
-0.0582061811023622
0
LINE
8
BLACK
6
CONTINUOUS
10
1.1257742913385826
20
-0.0582061811023622
11
1.1257742913385826
21
-0.0483516929133858
0
LINE
8
BLACK
6
CONTINUOUS
10
1.1257742913385826
20
-0.0483516929133858
11
1.1244255511811023
21
-0.0456542125984252
0
LINE
8
BLACK
6
CONTINUOUS
10
1.1244255511811023
20
-0.0456542125984252
11
1.1232284251968503
21
-0.0444570866141732
0
LINE
8
BLACK
6
CONTINUOUS
10
1.1232284251968503
20
-0.0444570866141732
11
1.1205309448818896
21
-0.0431083464566929
0
LINE
8
BLACK
6
CONTINUOUS
10
1.1205309448818896
20
-0.0431083464566929
11
1.1163007480314961
21
-0.0431083464566929
0
LINE
8
BLACK
6
CONTINUOUS
10
1.1163007480314961
20
-0.0431083464566929
11
1.1136032677165355
21
-0.0444570866141732
0
LINE
8
BLACK
6
CONTINUOUS
10
1.0141320472440944
20
-0.024577125984252
11
1.0149466929133859
21
-0.0253917716535433
0
LINE
8
BLACK
6
CONTINUOUS
10
1.0149466929133859
20
-0.0253917716535433
11
1.0153875984251968
21
-0.0264561811023622
0
LINE
8
BLACK
6
CONTINUOUS
10
1.0153875984251968
20
-0.0264561811023622
11
1.0154443307086614
21
-0.0270322440944882
0
LINE
8
BLACK
6
CONTINUOUS
10
1.0154443307086614
20
-0.0270322440944882
11
1.0154443307086614
21
-0.0600809448818898
0
LINE
8
BLACK
6
CONTINUOUS
10
1.0154443307086614
20
-0.0600809448818898
11
1.0165671653543307
21
-0.0623266929133858
0
LINE
8
BLACK
6
CONTINUOUS
10
1.0165671653543307
20
-0.0623266929133858
11
1.019436377952756
21
-0.0637612992125984
0
LINE
8
BLACK
6
CONTINUOUS
10
1.019436377952756
20
-0.0637612992125984
11
1.0199262598425196
21
-0.0640696456692913
0
LINE
8
BLACK
6
CONTINUOUS
10
1.0199262598425196
20
-0.0640696456692913
11
1.0206811023622047
21
-0.0649400393700787
0
LINE
8
BLACK
6
CONTINUOUS
10
1.0206811023622047
20
-0.0649400393700787
11
1.021045433070866
21
-0.0660329921259842
0
LINE
8
BLACK
6
CONTINUOUS
10
1.021045433070866
20
-0.0660329921259842
11
1.020963779527559
21
-0.0671822047244094
0
LINE
8
BLACK
6
CONTINUOUS
10
1.020963779527559
20
-0.0671822047244094
11
1.0204485039370079
21
-0.0682127165354331
0
LINE
8
BLACK
6
CONTINUOUS
10
1.0204485039370079
20
-0.0682127165354331
11
1.0195781496062992
21
-0.0689675590551181
0
LINE
8
BLACK
6
CONTINUOUS
10
1.0195781496062992
20
-0.0689675590551181
11
1.0184851574803149
21
-0.0693318897637795
0
LINE
8
BLACK
6
CONTINUOUS
10
1.0184851574803149
20
-0.0693318897637795
11
1.0173359448818897
21
-0.0692502362204724
0
LINE
8
BLACK
6
CONTINUOUS
10
1.0173359448818897
20
-0.0692502362204724
11
1.0167953543307087
21
-0.0690433464566929
0
LINE
8
BLACK
6
CONTINUOUS
10
1.0167953543307087
20
-0.0690433464566929
11
1.0130458267716536
21
-0.0671685826771654
0
LINE
8
BLACK
6
CONTINUOUS
10
1.0130458267716536
20
-0.0671685826771654
11
1.0129494488188977
21
-0.0671079133858268
0
LINE
8
BLACK
6
CONTINUOUS
10
1.0129494488188977
20
-0.0671079133858268
11
1.0129040551181101
21
-0.0670927952755905
0
LINE
8
BLACK
6
CONTINUOUS
10
1.0129040551181101
20
-0.0670927952755905
11
1.0128474803149605
21
-0.0670437401574803
0
LINE
8
BLACK
6
CONTINUOUS
10
1.0128474803149605
20
-0.0670437401574803
11
1.0125559448818897
21
-0.0668602362204724
0
LINE
8
BLACK
6
CONTINUOUS
10
1.0125559448818897
20
-0.0668602362204724
11
1.0123132677165354
21
-0.0665803937007874
0
LINE
8
BLACK
6
CONTINUOUS
10
1.0123132677165354
20
-0.0665803937007874
11
1.0120336614173229
21
-0.0663379133858268
0
LINE
8
BLACK
6
CONTINUOUS
10
1.0120336614173229
20
-0.0663379133858268
11
1.0118501574803149
21
-0.0660464173228346
0
LINE
8
BLACK
6
CONTINUOUS
10
1.0118501574803149
20
-0.0660464173228346
11
1.0118011023622047
21
-0.065989842519685
0
LINE
8
BLACK
6
CONTINUOUS
10
1.0118011023622047
20
-0.065989842519685
11
1.0117859448818898
21
-0.0659443700787402
0
LINE
8
BLACK
6
CONTINUOUS
10
1.0117859448818898
20
-0.0659443700787402
11
1.01172531496063
21
-0.0658480708661417
0
LINE
8
BLACK
6
CONTINUOUS
10
1.01172531496063
20
-0.0658480708661417
11
1.0098505511811022
21
-0.0620985039370079
0
LINE
8
BLACK
6
CONTINUOUS
10
1.0098505511811022
20
-0.0620985039370079
11
1.0096436614173228
21
-0.061557874015748
0
LINE
8
BLACK
6
CONTINUOUS
10
1.0096436614173228
20
-0.061557874015748
11
1.0096361417322834
21
-0.0614520472440945
0
LINE
8
BLACK
6
CONTINUOUS
10
1.0096361417322834
20
-0.0614520472440945
11
1.0095955511811023
21
-0.0613540551181102
0
LINE
8
BLACK
6
CONTINUOUS
10
1.0095955511811023
20
-0.0613540551181102
11
1.0095388188976377
21
-0.0607779921259843
0
LINE
8
BLACK
6
CONTINUOUS
10
1.0095388188976377
20
-0.0607779921259843
11
1.0095388188976377
21
-0.0270322440944882
0
LINE
8
BLACK
6
CONTINUOUS
10
1.0095388188976377
20
-0.0270322440944882
11
1.0095955511811023
21
-0.0264561811023622
0
LINE
8
BLACK
6
CONTINUOUS
10
1.0095955511811023
20
-0.0264561811023622
11
1.0100364566929134
21
-0.0253917716535433
0
LINE
8
BLACK
6
CONTINUOUS
10
1.0100364566929134
20
-0.0253917716535433
11
1.0108511023622047
21
-0.024577125984252
0
LINE
8
BLACK
6
CONTINUOUS
10
1.0108511023622047
20
-0.024577125984252
11
1.0119155118110237
21
-0.0241362204724409
0
LINE
8
BLACK
6
CONTINUOUS
10
1.0119155118110237
20
-0.0241362204724409
11
1.0130676377952756
21
-0.0241362204724409
0
LINE
8
BLACK
6
CONTINUOUS
10
1.0130676377952756
20
-0.0241362204724409
11
1.0141320472440944
21
-0.024577125984252
0
LINE
8
BLACK
6
CONTINUOUS
10
0.7291676377952756
20
-0.024577125984252
11
0.729982283464567
21
-0.0253917716535433
0
LINE
8
BLACK
6
CONTINUOUS
10
0.729982283464567
20
-0.0253917716535433
11
0.7304231889763779
21
-0.0264561811023622
0
LINE
8
BLACK
6
CONTINUOUS
10
0.7304231889763779
20
-0.0264561811023622
11
0.7304799212598425
21
-0.0270322440944882
0
LINE
8
BLACK
6
CONTINUOUS
10
0.7304799212598425
20
-0.0270322440944882
11
0.7304799212598425
21
-0.042827125984252
0
LINE
8
BLACK
6
CONTINUOUS
10
0.7304799212598425
20
-0.042827125984252
11
0.7470715748031496
21
-0.042827125984252
0
LINE
8
BLACK
6
CONTINUOUS
10
0.7470715748031496
20
-0.042827125984252
11
0.7470715748031496
21
-0.0270322440944882
0
LINE
8
BLACK
6
CONTINUOUS
10
0.7470715748031496
20
-0.0270322440944882
11
0.7471283070866142
21
-0.0264561811023622
0
LINE
8
BLACK
6
CONTINUOUS
10
0.7471283070866142
20
-0.0264561811023622
11
0.7475692125984251
21
-0.0253917716535433
0
LINE
8
BLACK
6
CONTINUOUS
10
0.7475692125984251
20
-0.0253917716535433
11
0.7483838582677165
21
-0.024577125984252
0
LINE
8
BLACK
6
CONTINUOUS
10
0.7483838582677165
20
-0.024577125984252
11
0.7494482677165354
21
-0.0241362204724409
0
LINE
8
BLACK
6
CONTINUOUS
10
0.7494482677165354
20
-0.0241362204724409
11
0.7506003937007873
21
-0.0241362204724409
0
LINE
8
BLACK
6
CONTINUOUS
10
0.7506003937007873
20
-0.0241362204724409
11
0.7516648031496063
21
-0.024577125984252
0
LINE
8
BLACK
6
CONTINUOUS
10
0.7516648031496063
20
-0.024577125984252
11
0.7524794488188976
21
-0.0253917716535433
0
LINE
8
BLACK
6
CONTINUOUS
10
0.7524794488188976
20
-0.0253917716535433
11
0.7529203543307087
21
-0.0264561811023622
0
LINE
8
BLACK
6
CONTINUOUS
10
0.7529203543307087
20
-0.0264561811023622
11
0.7529770866141732
21
-0.0270322440944882
0
LINE
8
BLACK
6
CONTINUOUS
10
0.7529770866141732
20
-0.0270322440944882
11
0.7529770866141732
21
-0.0664023228346457
0
LINE
8
BLACK
6
CONTINUOUS
10
0.7529770866141732
20
-0.0664023228346457
11
0.7529203543307087
21
-0.0669783858267717
0
LINE
8
BLACK
6
CONTINUOUS
10
0.7529203543307087
20
-0.0669783858267717
11
0.7524794488188976
21
-0.0680427952755906
0
LINE
8
BLACK
6
CONTINUOUS
10
0.7524794488188976
20
-0.0680427952755906
11
0.7516648031496063
21
-0.0688574409448819
0
LINE
8
BLACK
6
CONTINUOUS
10
0.7516648031496063
20
-0.0688574409448819
11
0.7506003937007873
21
-0.0692983464566929
0
LINE
8
BLACK
6
CONTINUOUS
10
0.7506003937007873
20
-0.0692983464566929
11
0.7494482677165354
21
-0.0692983464566929
0
LINE
8
BLACK
6
CONTINUOUS
10
0.7494482677165354
20
-0.0692983464566929
11
0.7483838582677165
21
-0.0688574409448819
0
LINE
8
BLACK
6
CONTINUOUS
10
0.7483838582677165
20
-0.0688574409448819
11
0.7475692125984251
21
-0.0680427952755906
0
LINE
8
BLACK
6
CONTINUOUS
10
0.7475692125984251
20
-0.0680427952755906
11
0.7471283070866142
21
-0.0669783858267717
0
LINE
8
BLACK
6
CONTINUOUS
10
0.7471283070866142
20
-0.0669783858267717
11
0.7470715748031496
21
-0.0664023228346457
0
LINE
8
BLACK
6
CONTINUOUS
10
0.7470715748031496
20
-0.0664023228346457
11
0.7470715748031496
21
-0.0487326377952756
0
LINE
8
BLACK
6
CONTINUOUS
10
0.7470715748031496
20
-0.0487326377952756
11
0.7304799212598425
21
-0.0487326377952756
0
LINE
8
BLACK
6
CONTINUOUS
10
0.7304799212598425
20
-0.0487326377952756
11
0.7304799212598425
21
-0.0664023228346457
0
LINE
8
BLACK
6
CONTINUOUS
10
0.7304799212598425
20
-0.0664023228346457
11
0.7304231889763779
21
-0.0669783858267717
0
LINE
8
BLACK
6
CONTINUOUS
10
0.7304231889763779
20
-0.0669783858267717
11
0.729982283464567
21
-0.0680427952755906
0
LINE
8
BLACK
6
CONTINUOUS
10
0.729982283464567
20
-0.0680427952755906
11
0.7291676377952756
21
-0.0688574409448819
0
LINE
8
BLACK
6
CONTINUOUS
10
0.7291676377952756
20
-0.0688574409448819
11
0.7281032283464567
21
-0.0692983464566929
0
LINE
8
BLACK
6
CONTINUOUS
10
0.7281032283464567
20
-0.0692983464566929
11
0.7269511023622047
21
-0.0692983464566929
0
LINE
8
BLACK
6
CONTINUOUS
10
0.7269511023622047
20
-0.0692983464566929
11
0.7258866929133858
21
-0.0688574409448819
0
LINE
8
BLACK
6
CONTINUOUS
10
0.7258866929133858
20
-0.0688574409448819
11
0.7250720472440945
21
-0.0680427952755906
0
LINE
8
BLACK
6
CONTINUOUS
10
0.7250720472440945
20
-0.0680427952755906
11
0.7246311417322835
21
-0.0669783858267717
0
LINE
8
BLACK
6
CONTINUOUS
10
0.7246311417322835
20
-0.0669783858267717
11
0.7245744094488189
21
-0.0664023228346457
0
LINE
8
BLACK
6
CONTINUOUS
10
0.7245744094488189
20
-0.0664023228346457
11
0.7245744094488189
21
-0.0270322440944882
0
LINE
8
BLACK
6
CONTINUOUS
10
0.7245744094488189
20
-0.0270322440944882
11
0.7246311417322835
21
-0.0264561811023622
0
LINE
8
BLACK
6
CONTINUOUS
10
0.7246311417322835
20
-0.0264561811023622
11
0.7250720472440945
21
-0.0253917716535433
0
LINE
8
BLACK
6
CONTINUOUS
10
0.7250720472440945
20
-0.0253917716535433
11
0.7258866929133858
21
-0.024577125984252
0
LINE
8
BLACK
6
CONTINUOUS
10
0.7258866929133858
20
-0.024577125984252
11
0.7269511023622047
21
-0.0241362204724409
0
LINE
8
BLACK
6
CONTINUOUS
10
0.7269511023622047
20
-0.0241362204724409
11
0.7281032283464567
21
-0.0241362204724409
0
LINE
8
BLACK
6
CONTINUOUS
10
0.7281032283464567
20
-0.0241362204724409
11
0.7291676377952756
21
-0.024577125984252
0
LINE
8
BLACK
6
CONTINUOUS
10
0.8922722834645669
20
-0.0377004724409449
11
0.8930869291338582
21
-0.0385151181102362
0
LINE
8
BLACK
6
CONTINUOUS
10
0.8930869291338582
20
-0.0385151181102362
11
0.8935278346456693
21
-0.0395795275590551
0
LINE
8
BLACK
6
CONTINUOUS
10
0.8935278346456693
20
-0.0395795275590551
11
0.8935845669291338
21
-0.0401555905511811
0
LINE
8
BLACK
6
CONTINUOUS
10
0.8935845669291338
20
-0.0401555905511811
11
0.8935845669291338
21
-0.0664023228346457
0
LINE
8
BLACK
6
CONTINUOUS
10
0.8935845669291338
20
-0.0664023228346457
11
0.8935278346456693
21
-0.0669783858267717
0
LINE
8
BLACK
6
CONTINUOUS
10
0.8935278346456693
20
-0.0669783858267717
11
0.8930869291338582
21
-0.0680427952755906
0
LINE
8
BLACK
6
CONTINUOUS
10
0.8930869291338582
20
-0.0680427952755906
11
0.8922722834645669
21
-0.0688574409448819
0
LINE
8
BLACK
6
CONTINUOUS
10
0.8922722834645669
20
-0.0688574409448819
11
0.891207874015748
21
-0.0692983464566929
0
LINE
8
BLACK
6
CONTINUOUS
10
0.891207874015748
20
-0.0692983464566929
11
0.890055748031496
21
-0.0692983464566929
0
LINE
8
BLACK
6
CONTINUOUS
10
0.890055748031496
20
-0.0692983464566929
11
0.8889913385826771
21
-0.0688574409448819
0
LINE
8
BLACK
6
CONTINUOUS
10
0.8889913385826771
20
-0.0688574409448819
11
0.8881766929133859
21
-0.0680427952755906
0
LINE
8
BLACK
6
CONTINUOUS
10
0.8881766929133859
20
-0.0680427952755906
11
0.8877357874015748
21
-0.0669783858267717
0
LINE
8
BLACK
6
CONTINUOUS
10
0.8877357874015748
20
-0.0669783858267717
11
0.8876790551181102
21
-0.0664023228346457
0
LINE
8
BLACK
6
CONTINUOUS
10
0.8876790551181102
20
-0.0664023228346457
11
0.8876790551181102
21
-0.0401555905511811
0
LINE
8
BLACK
6
CONTINUOUS
10
0.8876790551181102
20
-0.0401555905511811
11
0.8877357874015748
21
-0.0395795275590551
0
LINE
8
BLACK
6
CONTINUOUS
10
0.8877357874015748
20
-0.0395795275590551
11
0.8881766929133859
21
-0.0385151181102362
0
LINE
8
BLACK
6
CONTINUOUS
10
0.8881766929133859
20
-0.0385151181102362
11
0.8889913385826771
21
-0.0377004724409449
0
LINE
8
BLACK
6
CONTINUOUS
10
0.8889913385826771
20
-0.0377004724409449
11
0.890055748031496
21
-0.0372595669291339
0
LINE
8
BLACK
6
CONTINUOUS
10
0.890055748031496
20
-0.0372595669291339
11
0.891207874015748
21
-0.0372595669291339
0
LINE
8
BLACK
6
CONTINUOUS
10
0.891207874015748
20
-0.0372595669291339
11
0.8922722834645669
21
-0.0377004724409449
0
LINE
8
BLACK
6
CONTINUOUS
10
0.921204094488189
20
-0.0372595669291339
11
0.9213020866141732
21
-0.037300157480315
0
LINE
8
BLACK
6
CONTINUOUS
10
0.9213020866141732
20
-0.037300157480315
11
0.9214079133858267
21
-0.0373076771653543
0
LINE
8
BLACK
6
CONTINUOUS
10
0.9214079133858267
20
-0.0373076771653543
11
0.9219485433070866
21
-0.0375145669291339
0
LINE
8
BLACK
6
CONTINUOUS
10
0.9219485433070866
20
-0.0375145669291339
11
0.9256980708661418
21
-0.0393893307086614
0
LINE
8
BLACK
6
CONTINUOUS
10
0.9256980708661418
20
-0.0393893307086614
11
0.9257944094488189
21
-0.0394499606299213
0
LINE
8
BLACK
6
CONTINUOUS
10
0.9257944094488189
20
-0.0394499606299213
11
0.925839842519685
21
-0.0394651181102362
0
LINE
8
BLACK
6
CONTINUOUS
10
0.925839842519685
20
-0.0394651181102362
11
0.9258963779527559
21
-0.0395141338582677
0
LINE
8
BLACK
6
CONTINUOUS
10
0.9258963779527559
20
-0.0395141338582677
11
0.9261879527559055
21
-0.0396976771653543
0
LINE
8
BLACK
6
CONTINUOUS
10
0.9261879527559055
20
-0.0396976771653543
11
0.9264305118110236
21
-0.0399773622047244
0
LINE
8
BLACK
6
CONTINUOUS
10
0.9264305118110236
20
-0.0399773622047244
11
0.9267102362204724
21
-0.0402199606299213
0
LINE
8
BLACK
6
CONTINUOUS
10
0.9267102362204724
20
-0.0402199606299213
11
0.9268937401574803
21
-0.0405114960629921
0
LINE
8
BLACK
6
CONTINUOUS
10
0.9268937401574803
20
-0.0405114960629921
11
0.9269427952755905
21
-0.0405680708661417
0
LINE
8
BLACK
6
CONTINUOUS
10
0.9269427952755905
20
-0.0405680708661417
11
0.9269579133858268
21
-0.0406134645669291
0
LINE
8
BLACK
6
CONTINUOUS
10
0.9269579133858268
20
-0.0406134645669291
11
0.9270185826771653
21
-0.040709842519685
0
LINE
8
BLACK
6
CONTINUOUS
10
0.9270185826771653
20
-0.040709842519685
11
0.9288933464566929
21
-0.0444593700787402
0
LINE
8
BLACK
6
CONTINUOUS
10
0.9288933464566929
20
-0.0444593700787402
11
0.9291002362204724
21
-0.0449999606299213
0
LINE
8
BLACK
6
CONTINUOUS
10
0.9291002362204724
20
-0.0449999606299213
11
0.9291077559055118
21
-0.0451058267716535
0
LINE
8
BLACK
6
CONTINUOUS
10
0.9291077559055118
20
-0.0451058267716535
11
0.9291483464566929
21
-0.0452038188976378
0
LINE
8
BLACK
6
CONTINUOUS
10
0.9291483464566929
20
-0.0452038188976378
11
0.9292050787401575
21
-0.0457798818897638
0
LINE
8
BLACK
6
CONTINUOUS
10
0.9292050787401575
20
-0.0457798818897638
11
0.9292050787401575
21
-0.0664023228346457
0
LINE
8
BLACK
6
CONTINUOUS
10
0.9292050787401575
20
-0.0664023228346457
11
0.9291483464566929
21
-0.0669783858267717
0
LINE
8
BLACK
6
CONTINUOUS
10
0.9291483464566929
20
-0.0669783858267717
11
0.9287074409448819
21
-0.0680427952755906
0
LINE
8
BLACK
6
CONTINUOUS
10
0.9287074409448819
20
-0.0680427952755906
11
0.9278927952755905
21
-0.0688574409448819
0
LINE
8
BLACK
6
CONTINUOUS
10
0.9278927952755905
20
-0.0688574409448819
11
0.9268283858267716
21
-0.0692983464566929
0
LINE
8
BLACK
6
CONTINUOUS
10
0.9268283858267716
20
-0.0692983464566929
11
0.9256762598425197
21
-0.0692983464566929
0
LINE
8
BLACK
6
CONTINUOUS
10
0.9256762598425197
20
-0.0692983464566929
11
0.9246118503937008
21
-0.0688574409448819
0
LINE
8
BLACK
6
CONTINUOUS
10
0.9246118503937008
20
-0.0688574409448819
11
0.9237972047244094
21
-0.0680427952755906
0
LINE
8
BLACK
6
CONTINUOUS
10
0.9237972047244094
20
-0.0680427952755906
11
0.9233562992125984
21
-0.0669783858267717
0
LINE
8
BLACK
6
CONTINUOUS
10
0.9233562992125984
20
-0.0669783858267717
11
0.9232995669291338
21
-0.0664023228346457
0
LINE
8
BLACK
6
CONTINUOUS
10
0.9232995669291338
20
-0.0664023228346457
11
0.9232995669291338
21
-0.0464769291338583
0
LINE
8
BLACK
6
CONTINUOUS
10
0.9232995669291338
20
-0.0464769291338583
11
0.9221766929133858
21
-0.0442311811023622
0
LINE
8
BLACK
6
CONTINUOUS
10
0.9221766929133858
20
-0.0442311811023622
11
0.9199309842519685
21
-0.0431083464566929
0
LINE
8
BLACK
6
CONTINUOUS
10
0.9199309842519685
20
-0.0431083464566929
11
0.9157007874015748
21
-0.0431083464566929
0
LINE
8
BLACK
6
CONTINUOUS
10
0.9157007874015748
20
-0.0431083464566929
11
0.9130033070866141
21
-0.0444570866141732
0
LINE
8
BLACK
6
CONTINUOUS
10
0.9130033070866141
20
-0.0444570866141732
11
0.9123322047244095
21
-0.045128188976378
0
LINE
8
BLACK
6
CONTINUOUS
10
0.9123322047244095
20
-0.045128188976378
11
0.9123322047244095
21
-0.0664023228346457
0
LINE
8
BLACK
6
CONTINUOUS
10
0.9123322047244095
20
-0.0664023228346457
11
0.9122754724409449
21
-0.0669783858267717
0
LINE
8
BLACK
6
CONTINUOUS
10
0.9122754724409449
20
-0.0669783858267717
11
0.9118345669291338
21
-0.0680427952755906
0
LINE
8
BLACK
6
CONTINUOUS
10
0.9118345669291338
20
-0.0680427952755906
11
0.9110199212598425
21
-0.0688574409448819
0
LINE
8
BLACK
6
CONTINUOUS
10
0.9110199212598425
20
-0.0688574409448819
11
0.9099555118110236
21
-0.0692983464566929
0
LINE
8
BLACK
6
CONTINUOUS
10
0.9099555118110236
20
-0.0692983464566929
11
0.9088033858267717
21
-0.0692983464566929
0
LINE
8
BLACK
6
CONTINUOUS
10
0.9088033858267717
20
-0.0692983464566929
11
0.9077389763779528
21
-0.0688574409448819
0
LINE
8
BLACK
6
CONTINUOUS
10
0.9077389763779528
20
-0.0688574409448819
11
0.9069243307086614
21
-0.0680427952755906
0
LINE
8
BLACK
6
CONTINUOUS
10
0.9069243307086614
20
-0.0680427952755906
11
0.9064834251968503
21
-0.0669783858267717
0
LINE
8
BLACK
6
CONTINUOUS
10
0.9064834251968503
20
-0.0669783858267717
11
0.9064266929133858
21
-0.0664023228346457
0
LINE
8
BLACK
6
CONTINUOUS
10
0.9064266929133858
20
-0.0664023228346457
11
0.9064266929133858
21
-0.0401555905511811
0
LINE
8
BLACK
6
CONTINUOUS
10
0.9064266929133858
20
-0.0401555905511811
11
0.9064834251968503
21
-0.0395795275590551
0
LINE
8
BLACK
6
CONTINUOUS
10
0.9064834251968503
20
-0.0395795275590551
11
0.9069243307086614
21
-0.0385151181102362
0
LINE
8
BLACK
6
CONTINUOUS
10
0.9069243307086614
20
-0.0385151181102362
11
0.9077389763779528
21
-0.0377004724409449
0
LINE
8
BLACK
6
CONTINUOUS
10
0.9077389763779528
20
-0.0377004724409449
11
0.9088033858267717
21
-0.0372595669291339
0
LINE
8
BLACK
6
CONTINUOUS
10
0.9088033858267717
20
-0.0372595669291339
11
0.9099555118110236
21
-0.0372595669291339
0
LINE
8
BLACK
6
CONTINUOUS
10
0.9099555118110236
20
-0.0372595669291339
11
0.9110199212598425
21
-0.0377004724409449
0
LINE
8
BLACK
6
CONTINUOUS
10
0.9110199212598425
20
-0.0377004724409449
11
0.9117837401574803
21
-0.0384642913385827
0
LINE
8
BLACK
6
CONTINUOUS
10
0.9117837401574803
20
-0.0384642913385827
11
0.9136832283464567
21
-0.0375145669291339
0
LINE
8
BLACK
6
CONTINUOUS
10
0.9136832283464567
20
-0.0375145669291339
11
0.9142238188976378
21
-0.0373076771653543
0
LINE
8
BLACK
6
CONTINUOUS
10
0.9142238188976378
20
-0.0373076771653543
11
0.9143296850393701
21
-0.0373001181102362
0
LINE
8
BLACK
6
CONTINUOUS
10
0.9143296850393701
20
-0.0373001181102362
11
0.9144276771653543
21
-0.0372595669291339
0
LINE
8
BLACK
6
CONTINUOUS
10
0.9144276771653543
20
-0.0372595669291339
11
0.9150037401574803
21
-0.0372028346456693
0
LINE
8
BLACK
6
CONTINUOUS
10
0.9150037401574803
20
-0.0372028346456693
11
0.920628031496063
21
-0.0372028346456693
0
LINE
8
BLACK
6
CONTINUOUS
10
0.920628031496063
20
-0.0372028346456693
11
0.921204094488189
21
-0.0372595669291339
0
LINE
8
BLACK
6
CONTINUOUS
10
1.0928722440944882
20
-0.0377004724409449
11
1.0936868897637795
21
-0.0385151181102362
0
LINE
8
BLACK
6
CONTINUOUS
10
1.0936868897637795
20
-0.0385151181102362
11
1.0941277952755906
21
-0.0395795275590551
0
LINE
8
BLACK
6
CONTINUOUS
10
1.0941277952755906
20
-0.0395795275590551
11
1.0941845275590552
21
-0.0401555905511811
0
LINE
8
BLACK
6
CONTINUOUS
10
1.0941845275590552
20
-0.0401555905511811
11
1.0941845275590552
21
-0.0664023228346457
0
LINE
8
BLACK
6
CONTINUOUS
10
1.0941845275590552
20
-0.0664023228346457
11
1.0941277952755906
21
-0.0669783858267717
0
LINE
8
BLACK
6
CONTINUOUS
10
1.0941277952755906
20
-0.0669783858267717
11
1.0936868897637795
21
-0.0680427952755906
0
LINE
8
BLACK
6
CONTINUOUS
10
1.0936868897637795
20
-0.0680427952755906
11
1.0928722440944882
21
-0.0688574409448819
0
LINE
8
BLACK
6
CONTINUOUS
10
1.0928722440944882
20
-0.0688574409448819
11
1.0918078346456692
21
-0.0692983464566929
0
LINE
8
BLACK
6
CONTINUOUS
10
1.0918078346456692
20
-0.0692983464566929
11
1.0906557086614173
21
-0.0692983464566929
0
LINE
8
BLACK
6
CONTINUOUS
10
1.0906557086614173
20
-0.0692983464566929
11
1.0895912992125985
21
-0.0688574409448819
0
LINE
8
BLACK
6
CONTINUOUS
10
1.0895912992125985
20
-0.0688574409448819
11
1.088776653543307
21
-0.0680427952755906
0
LINE
8
BLACK
6
CONTINUOUS
10
1.088776653543307
20
-0.0680427952755906
11
1.0883357480314961
21
-0.0669783858267717
0
LINE
8
BLACK
6
CONTINUOUS
10
1.0883357480314961
20
-0.0669783858267717
11
1.0882790157480315
21
-0.0664023228346457
0
LINE
8
BLACK
6
CONTINUOUS
10
1.0882790157480315
20
-0.0664023228346457
11
1.0882790157480315
21
-0.0401555905511811
0
LINE
8
BLACK
6
CONTINUOUS
10
1.0882790157480315
20
-0.0401555905511811
11
1.0883357480314961
21
-0.0395795275590551
0
LINE
8
BLACK
6
CONTINUOUS
10
1.0883357480314961
20
-0.0395795275590551
11
1.088776653543307
21
-0.0385151181102362
0
LINE
8
BLACK
6
CONTINUOUS
10
1.088776653543307
20
-0.0385151181102362
11
1.0895912992125985
21
-0.0377004724409449
0
LINE
8
BLACK
6
CONTINUOUS
10
1.0895912992125985
20
-0.0377004724409449
11
1.0906557086614173
21
-0.0372595669291339
0
LINE
8
BLACK
6
CONTINUOUS
10
1.0906557086614173
20
-0.0372595669291339
11
1.0918078346456692
21
-0.0372595669291339
0
LINE
8
BLACK
6
CONTINUOUS
10
1.0918078346456692
20
-0.0372595669291339
11
1.0928722440944882
21
-0.0377004724409449
0
LINE
8
BLACK
6
CONTINUOUS
10
1.1574246062992126
20
-0.0372595669291339
11
1.1575225984251969
21
-0.037300157480315
0
LINE
8
BLACK
6
CONTINUOUS
10
1.1575225984251969
20
-0.037300157480315
11
1.1576284251968503
21
-0.0373076771653543
0
LINE
8
BLACK
6
CONTINUOUS
10
1.1576284251968503
20
-0.0373076771653543
11
1.1581690551181103
21
-0.0375145669291339
0
LINE
8
BLACK
6
CONTINUOUS
10
1.1581690551181103
20
-0.0375145669291339
11
1.1619185826771654
21
-0.0393893307086614
0
LINE
8
BLACK
6
CONTINUOUS
10
1.1619185826771654
20
-0.0393893307086614
11
1.1620149212598425
21
-0.0394499606299213
0
LINE
8
BLACK
6
CONTINUOUS
10
1.1620149212598425
20
-0.0394499606299213
11
1.1620603543307086
21
-0.0394651181102362
0
LINE
8
BLACK
6
CONTINUOUS
10
1.1620603543307086
20
-0.0394651181102362
11
1.1621168897637795
21
-0.0395141338582677
0
LINE
8
BLACK
6
CONTINUOUS
10
1.1621168897637795
20
-0.0395141338582677
11
1.162408464566929
21
-0.0396976771653543
0
LINE
8
BLACK
6
CONTINUOUS
10
1.162408464566929
20
-0.0396976771653543
11
1.1626510236220473
21
-0.0399773622047244
0
LINE
8
BLACK
6
CONTINUOUS
10
1.1626510236220473
20
-0.0399773622047244
11
1.1629307480314961
21
-0.0402199606299213
0
LINE
8
BLACK
6
CONTINUOUS
10
1.1629307480314961
20
-0.0402199606299213
11
1.1631142519685038
21
-0.0405114960629921
0
LINE
8
BLACK
6
CONTINUOUS
10
1.1631142519685038
20
-0.0405114960629921
11
1.1631633070866141
21
-0.0405680708661417
0
LINE
8
BLACK
6
CONTINUOUS
10
1.1631633070866141
20
-0.0405680708661417
11
1.1631784251968504
21
-0.0406134645669291
0
LINE
8
BLACK
6
CONTINUOUS
10
1.1631784251968504
20
-0.0406134645669291
11
1.163239094488189
21
-0.040709842519685
0
LINE
8
BLACK
6
CONTINUOUS
10
1.163239094488189
20
-0.040709842519685
11
1.1651138582677165
21
-0.0444593700787402
0
LINE
8
BLACK
6
CONTINUOUS
10
1.1651138582677165
20
-0.0444593700787402
11
1.165320748031496
21
-0.0449999606299213
0
LINE
8
BLACK
6
CONTINUOUS
10
1.165320748031496
20
-0.0449999606299213
11
1.1653282677165353
21
-0.0451058267716535
0
LINE
8
BLACK
6
CONTINUOUS
10
1.1653282677165353
20
-0.0451058267716535
11
1.1653688582677164
21
-0.0452038188976378
0
LINE
8
BLACK
6
CONTINUOUS
10
1.1653688582677164
20
-0.0452038188976378
11
1.165425590551181
21
-0.0457798818897638
0
LINE
8
BLACK
6
CONTINUOUS
10
1.165425590551181
20
-0.0457798818897638
11
1.165425590551181
21
-0.0664023228346457
0
LINE
8
BLACK
6
CONTINUOUS
10
1.165425590551181
20
-0.0664023228346457
11
1.1653688582677164
21
-0.0669783858267717
0
LINE
8
BLACK
6
CONTINUOUS
10
1.1653688582677164
20
-0.0669783858267717
11
1.1649279527559055
21
-0.0680427952755906
0
LINE
8
BLACK
6
CONTINUOUS
10
1.1649279527559055
20
-0.0680427952755906
11
1.1641133070866141
21
-0.0688574409448819
0
LINE
8
BLACK
6
CONTINUOUS
10
1.1641133070866141
20
-0.0688574409448819
11
1.1630488976377953
21
-0.0692983464566929
0
LINE
8
BLACK
6
CONTINUOUS
10
1.1630488976377953
20
-0.0692983464566929
11
1.1618967716535433
21
-0.0692983464566929
0
LINE
8
BLACK
6
CONTINUOUS
10
1.1618967716535433
20
-0.0692983464566929
11
1.1608323622047243
21
-0.0688574409448819
0
LINE
8
BLACK
6
CONTINUOUS
10
1.1608323622047243
20
-0.0688574409448819
11
1.1600177165354331
21
-0.0680427952755906
0
LINE
8
BLACK
6
CONTINUOUS
10
1.1600177165354331
20
-0.0680427952755906
11
1.159576811023622
21
-0.0669783858267717
0
LINE
8
BLACK
6
CONTINUOUS
10
1.159576811023622
20
-0.0669783858267717
11
1.1595200787401574
21
-0.0664023228346457
0
LINE
8
BLACK
6
CONTINUOUS
10
1.1595200787401574
20
-0.0664023228346457
11
1.1595200787401574
21
-0.0464769291338583
0
LINE
8
BLACK
6
CONTINUOUS
10
1.1595200787401574
20
-0.0464769291338583
11
1.1583972047244093
21
-0.0442311811023622
0
LINE
8
BLACK
6
CONTINUOUS
10
1.1583972047244093
20
-0.0442311811023622
11
1.1561514960629922
21
-0.0431083464566929
0
LINE
8
BLACK
6
CONTINUOUS
10
1.1561514960629922
20
-0.0431083464566929
11
1.1519212992125984
21
-0.0431083464566929
0
LINE
8
BLACK
6
CONTINUOUS
10
1.1519212992125984
20
-0.0431083464566929
11
1.1492238188976378
21
-0.0444570866141732
0
LINE
8
BLACK
6
CONTINUOUS
10
1.1492238188976378
20
-0.0444570866141732
11
1.148552716535433
21
-0.045128188976378
0
LINE
8
BLACK
6
CONTINUOUS
10
1.148552716535433
20
-0.045128188976378
11
1.148552716535433
21
-0.0664023228346457
0
LINE
8
BLACK
6
CONTINUOUS
10
1.148552716535433
20
-0.0664023228346457
11
1.1484959842519684
21
-0.0669783858267717
0
LINE
8
BLACK
6
CONTINUOUS
10
1.1484959842519684
20
-0.0669783858267717
11
1.1480550787401576
21
-0.0680427952755906
0
LINE
8
BLACK
6
CONTINUOUS
10
1.1480550787401576
20
-0.0680427952755906
11
1.1472404330708661
21
-0.0688574409448819
0
LINE
8
BLACK
6
CONTINUOUS
10
1.1472404330708661
20
-0.0688574409448819
11
1.1461760236220473
21
-0.0692983464566929
0
LINE
8
BLACK
6
CONTINUOUS
10
1.1461760236220473
20
-0.0692983464566929
11
1.1450238976377953
21
-0.0692983464566929
0
LINE
8
BLACK
6
CONTINUOUS
10
1.1450238976377953
20
-0.0692983464566929
11
1.1439594881889763
21
-0.0688574409448819
0
LINE
8
BLACK
6
CONTINUOUS
10
1.1439594881889763
20
-0.0688574409448819
11
1.1431448425196851
21
-0.0680427952755906
0
LINE
8
BLACK
6
CONTINUOUS
10
1.1431448425196851
20
-0.0680427952755906
11
1.142703937007874
21
-0.0669783858267717
0
LINE
8
BLACK
6
CONTINUOUS
10
1.142703937007874
20
-0.0669783858267717
11
1.1426472047244094
21
-0.0664023228346457
0
LINE
8
BLACK
6
CONTINUOUS
10
1.1426472047244094
20
-0.0664023228346457
11
1.1426472047244094
21
-0.0401555905511811
0
LINE
8
BLACK
6
CONTINUOUS
10
1.1426472047244094
20
-0.0401555905511811
11
1.142703937007874
21
-0.0395795275590551
0
LINE
8
BLACK
6
CONTINUOUS
10
1.142703937007874
20
-0.0395795275590551
11
1.1431448425196851
21
-0.0385151181102362
0
LINE
8
BLACK
6
CONTINUOUS
10
1.1431448425196851
20
-0.0385151181102362
11
1.1439594881889763
21
-0.0377004724409449
0
LINE
8
BLACK
6
CONTINUOUS
10
1.1439594881889763
20
-0.0377004724409449
11
1.1450238976377953
21
-0.0372595669291339
0
LINE
8
BLACK
6
CONTINUOUS
10
1.1450238976377953
20
-0.0372595669291339
11
1.1461760236220473
21
-0.0372595669291339
0
LINE
8
BLACK
6
CONTINUOUS
10
1.1461760236220473
20
-0.0372595669291339
11
1.1472404330708661
21
-0.0377004724409449
0
LINE
8
BLACK
6
CONTINUOUS
10
1.1472404330708661
20
-0.0377004724409449
11
1.1480042519685039
21
-0.0384642913385827
0
LINE
8
BLACK
6
CONTINUOUS
10
1.1480042519685039
20
-0.0384642913385827
11
1.1499037401574803
21
-0.0375145669291339
0
LINE
8
BLACK
6
CONTINUOUS
10
1.1499037401574803
20
-0.0375145669291339
11
1.1504443307086614
21
-0.0373076771653543
0
LINE
8
BLACK
6
CONTINUOUS
10
1.1504443307086614
20
-0.0373076771653543
11
1.1505501968503937
21
-0.0373001181102362
0
LINE
8
BLACK
6
CONTINUOUS
10
1.1505501968503937
20
-0.0373001181102362
11
1.150648188976378
21
-0.0372595669291339
0
LINE
8
BLACK
6
CONTINUOUS
10
1.150648188976378
20
-0.0372595669291339
11
1.1512242519685039
21
-0.0372028346456693
0
LINE
8
BLACK
6
CONTINUOUS
10
1.1512242519685039
20
-0.0372028346456693
11
1.1568485433070865
21
-0.0372028346456693
0
LINE
8
BLACK
6
CONTINUOUS
10
1.1568485433070865
20
-0.0372028346456693
11
1.1574246062992126
21
-0.0372595669291339
0
LINE
8
BLACK
6
CONTINUOUS
10
0.8922722834645669
20
-0.024577125984252
11
0.8927197244094488
21
-0.0249443307086614
0
LINE
8
BLACK
6
CONTINUOUS
10
0.8927197244094488
20
-0.0249443307086614
11
0.8945944881889764
21
-0.026819094488189
0
LINE
8
BLACK
6
CONTINUOUS
10
0.8945944881889764
20
-0.026819094488189
11
0.8949616929133858
21
-0.0272665354330709
0
LINE
8
BLACK
6
CONTINUOUS
10
0.8949616929133858
20
-0.0272665354330709
11
0.8951032677165354
21
-0.0276083070866142
0
LINE
8
BLACK
6
CONTINUOUS
10
0.8951032677165354
20
-0.0276083070866142
11
0.8954025984251969
21
-0.0283309842519685
0
LINE
8
BLACK
6
CONTINUOUS
10
0.8954025984251969
20
-0.0283309842519685
11
0.8954025984251969
21
-0.0294830708661417
0
LINE
8
BLACK
6
CONTINUOUS
10
0.8954025984251969
20
-0.0294830708661417
11
0.8949616929133858
21
-0.0305474803149606
0
LINE
8
BLACK
6
CONTINUOUS
10
0.8949616929133858
20
-0.0305474803149606
11
0.8945944881889764
21
-0.0309949212598425
0
LINE
8
BLACK
6
CONTINUOUS
10
0.8945944881889764
20
-0.0309949212598425
11
0.8927197244094488
21
-0.0328696850393701
0
LINE
8
BLACK
6
CONTINUOUS
10
0.8927197244094488
20
-0.0328696850393701
11
0.8922722834645669
21
-0.0332368897637795
0
LINE
8
BLACK
6
CONTINUOUS
10
0.8922722834645669
20
-0.0332368897637795
11
0.891207874015748
21
-0.0336777952755906
0
LINE
8
BLACK
6
CONTINUOUS
10
0.891207874015748
20
-0.0336777952755906
11
0.8912078346456692
21
-0.0336777952755906
0
LINE
8
BLACK
6
CONTINUOUS
10
0.8912078346456692
20
-0.0336777952755906
11
0.8900557874015748
21
-0.0336777952755906
0
LINE
8
BLACK
6
CONTINUOUS
10
0.8900557874015748
20
-0.0336777952755906
11
0.890055748031496
21
-0.0336777952755906
0
LINE
8
BLACK
6
CONTINUOUS
10
0.890055748031496
20
-0.0336777952755906
11
0.8889913385826771
21
-0.0332368897637795
0
LINE
8
BLACK
6
CONTINUOUS
10
0.8889913385826771
20
-0.0332368897637795
11
0.8885438976377953
21
-0.0328696850393701
0
LINE
8
BLACK
6
CONTINUOUS
10
0.8885438976377953
20
-0.0328696850393701
11
0.8866691338582677
21
-0.0309949212598425
0
LINE
8
BLACK
6
CONTINUOUS
10
0.8866691338582677
20
-0.0309949212598425
11
0.8863019291338583
21
-0.0305474803149606
0
LINE
8
BLACK
6
CONTINUOUS
10
0.8863019291338583
20
-0.0305474803149606
11
0.8858610236220472
21
-0.029483031496063
0
LINE
8
BLACK
6
CONTINUOUS
10
0.8858610236220472
20
-0.029483031496063
11
0.8858610236220472
21
-0.0283309842519685
0
LINE
8
BLACK
6
CONTINUOUS
10
0.8858610236220472
20
-0.0283309842519685
11
0.8863019291338583
21
-0.0272665354330709
0
LINE
8
BLACK
6
CONTINUOUS
10
0.8863019291338583
20
-0.0272665354330709
11
0.8866691338582677
21
-0.026819094488189
0
LINE
8
BLACK
6
CONTINUOUS
10
0.8866691338582677
20
-0.026819094488189
11
0.8885438976377953
21
-0.0249443307086614
0
LINE
8
BLACK
6
CONTINUOUS
10
0.8885438976377953
20
-0.0249443307086614
11
0.8889913385826771
21
-0.024577125984252
0
LINE
8
BLACK
6
CONTINUOUS
10
0.8889913385826771
20
-0.024577125984252
11
0.890055748031496
21
-0.0241362204724409
0
LINE
8
BLACK
6
CONTINUOUS
10
0.890055748031496
20
-0.0241362204724409
11
0.8912078346456692
21
-0.0241362204724409
0
LINE
8
BLACK
6
CONTINUOUS
10
0.8912078346456692
20
-0.0241362204724409
11
0.891207874015748
21
-0.0241362204724409
0
LINE
8
BLACK
6
CONTINUOUS
10
0.891207874015748
20
-0.0241362204724409
11
0.8922722834645669
21
-0.024577125984252
0
LINE
8
BLACK
6
CONTINUOUS
10
1.0928722440944882
20
-0.024577125984252
11
1.09331968503937
21
-0.0249443307086614
0
LINE
8
BLACK
6
CONTINUOUS
10
1.09331968503937
20
-0.0249443307086614
11
1.0951944488188976
21
-0.026819094488189
0
LINE
8
BLACK
6
CONTINUOUS
10
1.0951944488188976
20
-0.026819094488189
11
1.095561653543307
21
-0.0272665354330709
0
LINE
8
BLACK
6
CONTINUOUS
10
1.095561653543307
20
-0.0272665354330709
11
1.0957032283464567
21
-0.0276083070866142
0
LINE
8
BLACK
6
CONTINUOUS
10
1.0957032283464567
20
-0.0276083070866142
11
1.0960025590551181
21
-0.0283309842519685
0
LINE
8
BLACK
6
CONTINUOUS
10
1.0960025590551181
20
-0.0283309842519685
11
1.0960025590551181
21
-0.0294830708661417
0
LINE
8
BLACK
6
CONTINUOUS
10
1.0960025590551181
20
-0.0294830708661417
11
1.095561653543307
21
-0.0305474803149606
0
LINE
8
BLACK
6
CONTINUOUS
10
1.095561653543307
20
-0.0305474803149606
11
1.0951944488188976
21
-0.0309949212598425
0
LINE
8
BLACK
6
CONTINUOUS
10
1.0951944488188976
20
-0.0309949212598425
11
1.09331968503937
21
-0.0328696850393701
0
LINE
8
BLACK
6
CONTINUOUS
10
1.09331968503937
20
-0.0328696850393701
11
1.0928722440944882
21
-0.0332368897637795
0
LINE
8
BLACK
6
CONTINUOUS
10
1.0928722440944882
20
-0.0332368897637795
11
1.0918078346456692
21
-0.0336777952755906
0
LINE
8
BLACK
6
CONTINUOUS
10
1.0918078346456692
20
-0.0336777952755906
11
1.0918077952755905
21
-0.0336777952755906
0
LINE
8
BLACK
6
CONTINUOUS
10
1.0918077952755905
20
-0.0336777952755906
11
1.090655748031496
21
-0.0336777952755906
0
LINE
8
BLACK
6
CONTINUOUS
10
1.090655748031496
20
-0.0336777952755906
11
1.0906557086614173
21
-0.0336777952755906
0
LINE
8
BLACK
6
CONTINUOUS
10
1.0906557086614173
20
-0.0336777952755906
11
1.0895912992125985
21
-0.0332368897637795
0
LINE
8
BLACK
6
CONTINUOUS
10
1.0895912992125985
20
-0.0332368897637795
11
1.0891438582677164
21
-0.0328696850393701
0
LINE
8
BLACK
6
CONTINUOUS
10
1.0891438582677164
20
-0.0328696850393701
11
1.0872690944881889
21
-0.0309949212598425
0
LINE
8
BLACK
6
CONTINUOUS
10
1.0872690944881889
20
-0.0309949212598425
11
1.0869018897637794
21
-0.0305474803149606
0
LINE
8
BLACK
6
CONTINUOUS
10
1.0869018897637794
20
-0.0305474803149606
11
1.0864609842519686
21
-0.029483031496063
0
LINE
8
BLACK
6
CONTINUOUS
10
1.0864609842519686
20
-0.029483031496063
11
1.0864609842519686
21
-0.0283309842519685
0
LINE
8
BLACK
6
CONTINUOUS
10
1.0864609842519686
20
-0.0283309842519685
11
1.0869018897637794
21
-0.0272665354330709
0
LINE
8
BLACK
6
CONTINUOUS
10
1.0869018897637794
20
-0.0272665354330709
11
1.0872690944881889
21
-0.026819094488189
0
LINE
8
BLACK
6
CONTINUOUS
10
1.0872690944881889
20
-0.026819094488189
11
1.0891438582677164
21
-0.0249443307086614
0
LINE
8
BLACK
6
CONTINUOUS
10
1.0891438582677164
20
-0.0249443307086614
11
1.0895912992125985
21
-0.024577125984252
0
LINE
8
BLACK
6
CONTINUOUS
10
1.0895912992125985
20
-0.024577125984252
11
1.0906557086614173
21
-0.0241362204724409
0
LINE
8
BLACK
6
CONTINUOUS
10
1.0906557086614173
20
-0.0241362204724409
11
1.0918077952755905
21
-0.0241362204724409
0
LINE
8
BLACK
6
CONTINUOUS
10
1.0918077952755905
20
-0.0241362204724409
11
1.0918078346456692
21
-0.0241362204724409
0
LINE
8
BLACK
6
CONTINUOUS
10
1.0918078346456692
20
-0.0241362204724409
11
1.0928722440944882
21
-0.024577125984252
0
LINE
8
BLACK
6
CONTINUOUS
10
0.4281083858267716
20
0.101308937007874
11
0.4290300787401575
21
0.1006176377952756
0
LINE
8
BLACK
6
CONTINUOUS
10
0.4290300787401575
20
0.1006176377952756
11
0.4296170472440945
21
0.0996262598425197
0
LINE
8
BLACK
6
CONTINUOUS
10
0.4296170472440945
20
0.0996262598425197
11
0.42978
21
0.0984857874015748
0
LINE
8
BLACK
6
CONTINUOUS
10
0.42978
20
0.0984857874015748
11
0.429494094488189
21
0.0973696850393701
0
LINE
8
BLACK
6
CONTINUOUS
10
0.429494094488189
20
0.0973696850393701
11
0.4291938188976378
21
0.0968748031496063
0
LINE
8
BLACK
6
CONTINUOUS
10
0.4291938188976378
20
0.0968748031496063
11
0.4138574803149606
21
0.0764263385826772
0
LINE
8
BLACK
6
CONTINUOUS
10
0.4138574803149606
20
0.0764263385826772
11
0.4289195275590551
21
0.0613642913385827
0
LINE
8
BLACK
6
CONTINUOUS
10
0.4289195275590551
20
0.0613642913385827
11
0.4292867322834645
21
0.0609168503937008
0
LINE
8
BLACK
6
CONTINUOUS
10
0.4292867322834645
20
0.0609168503937008
11
0.4297276377952756
21
0.0598524409448819
0
LINE
8
BLACK
6
CONTINUOUS
10
0.4297276377952756
20
0.0598524409448819
11
0.4297276377952756
21
0.0587003543307087
0
LINE
8
BLACK
6
CONTINUOUS
10
0.4297276377952756
20
0.0587003543307087
11
0.4292867322834645
21
0.057635905511811
0
LINE
8
BLACK
6
CONTINUOUS
10
0.4292867322834645
20
0.057635905511811
11
0.4284720866141732
21
0.0568212598425197
0
LINE
8
BLACK
6
CONTINUOUS
10
0.4284720866141732
20
0.0568212598425197
11
0.4274076377952756
21
0.0563803543307087
0
LINE
8
BLACK
6
CONTINUOUS
10
0.4274076377952756
20
0.0563803543307087
11
0.4262555511811024
21
0.0563803543307087
0
LINE
8
BLACK
6
CONTINUOUS
10
0.4262555511811024
20
0.0563803543307087
11
0.4251911417322835
21
0.0568212598425197
0
LINE
8
BLACK
6
CONTINUOUS
10
0.4251911417322835
20
0.0568212598425197
11
0.4247437007874016
21
0.0571884645669291
0
LINE
8
BLACK
6
CONTINUOUS
10
0.4247437007874016
20
0.0571884645669291
11
0.4072872047244094
21
0.0746449606299213
0
LINE
8
BLACK
6
CONTINUOUS
10
0.4072872047244094
20
0.0746449606299213
11
0.4072872047244094
21
0.0592763779527559
0
LINE
8
BLACK
6
CONTINUOUS
10
0.4072872047244094
20
0.0592763779527559
11
0.4072304724409448
21
0.0587003149606299
0
LINE
8
BLACK
6
CONTINUOUS
10
0.4072304724409448
20
0.0587003149606299
11
0.4067895669291339
21
0.057635905511811
0
LINE
8
BLACK
6
CONTINUOUS
10
0.4067895669291339
20
0.057635905511811
11
0.4059749212598425
21
0.0568212598425197
0
LINE
8
BLACK
6
CONTINUOUS
10
0.4059749212598425
20
0.0568212598425197
11
0.4049105118110236
21
0.0563803543307087
0
LINE
8
BLACK
6
CONTINUOUS
10
0.4049105118110236
20
0.0563803543307087
11
0.4037583858267716
21
0.0563803543307087
0
LINE
8
BLACK
6
CONTINUOUS
10
0.4037583858267716
20
0.0563803543307087
11
0.4026939763779527
21
0.0568212598425197
0
LINE
8
BLACK
6
CONTINUOUS
10
0.4026939763779527
20
0.0568212598425197
11
0.4018793307086614
21
0.057635905511811
0
LINE
8
BLACK
6
CONTINUOUS
10
0.4018793307086614
20
0.057635905511811
11
0.4014384251968504
21
0.0587003149606299
0
LINE
8
BLACK
6
CONTINUOUS
10
0.4014384251968504
20
0.0587003149606299
11
0.4013816929133858
21
0.0592763779527559
0
LINE
8
BLACK
6
CONTINUOUS
10
0.4013816929133858
20
0.0592763779527559
11
0.4013816929133858
21
0.0986464566929134
0
LINE
8
BLACK
6
CONTINUOUS
10
0.4013816929133858
20
0.0986464566929134
11
0.4014384251968504
21
0.0992225196850394
0
LINE
8
BLACK
6
CONTINUOUS
10
0.4014384251968504
20
0.0992225196850394
11
0.4018793307086614
21
0.1002869291338583
0
LINE
8
BLACK
6
CONTINUOUS
10
0.4018793307086614
20
0.1002869291338583
11
0.4026939763779527
21
0.1011015748031496
0
LINE
8
BLACK
6
CONTINUOUS
10
0.4026939763779527
20
0.1011015748031496
11
0.4037583858267716
21
0.1015424803149606
0
LINE
8
BLACK
6
CONTINUOUS
10
0.4037583858267716
20
0.1015424803149606
11
0.4049105118110236
21
0.1015424803149606
0
LINE
8
BLACK
6
CONTINUOUS
10
0.4049105118110236
20
0.1015424803149606
11
0.4059749212598425
21
0.1011015748031496
0
LINE
8
BLACK
6
CONTINUOUS
10
0.4059749212598425
20
0.1011015748031496
11
0.4067895669291339
21
0.1002869291338583
0
LINE
8
BLACK
6
CONTINUOUS
10
0.4067895669291339
20
0.1002869291338583
11
0.4072304724409448
21
0.0992225196850394
0
LINE
8
BLACK
6
CONTINUOUS
10
0.4072304724409448
20
0.0992225196850394
11
0.4072872047244094
21
0.0986464566929134
0
LINE
8
BLACK
6
CONTINUOUS
10
0.4072872047244094
20
0.0986464566929134
11
0.4072872047244094
21
0.0829966141732283
0
LINE
8
BLACK
6
CONTINUOUS
10
0.4072872047244094
20
0.0829966141732283
11
0.4096392519685039
21
0.0806445669291339
0
LINE
8
BLACK
6
CONTINUOUS
10
0.4096392519685039
20
0.0806445669291339
11
0.4244694094488189
21
0.1004181102362205
0
LINE
8
BLACK
6
CONTINUOUS
10
0.4244694094488189
20
0.1004181102362205
11
0.4248604330708661
21
0.1008449212598425
0
LINE
8
BLACK
6
CONTINUOUS
10
0.4248604330708661
20
0.1008449212598425
11
0.425851811023622
21
0.1014319291338583
0
LINE
8
BLACK
6
CONTINUOUS
10
0.425851811023622
20
0.1014319291338583
11
0.4269923228346457
21
0.101594842519685
0
LINE
8
BLACK
6
CONTINUOUS
10
0.4269923228346457
20
0.101594842519685
11
0.4281083858267716
21
0.101308937007874
0
LINE
8
BLACK
6
CONTINUOUS
10
0.1249491732283464
20
0.2850762992125984
11
0.1250269291338583
21
0.2850818110236221
0
LINE
8
BLACK
6
CONTINUOUS
10
0.1250269291338583
20
0.2850818110236221
11
0.1251291732283465
21
0.2850585826771653
0
LINE
8
BLACK
6
CONTINUOUS
10
0.1251291732283465
20
0.2850585826771653
11
0.1252337007874016
21
0.2850482677165354
0
LINE
8
BLACK
6
CONTINUOUS
10
0.1252337007874016
20
0.2850482677165354
11
0.1253057874015748
21
0.2850184251968504
0
LINE
8
BLACK
6
CONTINUOUS
10
0.1253057874015748
20
0.2850184251968504
11
0.1255913779527559
21
0.2849534645669291
0
LINE
8
BLACK
6
CONTINUOUS
10
0.1255913779527559
20
0.2849534645669291
11
0.1312156692913386
21
0.2830787007874015
0
LINE
8
BLACK
6
CONTINUOUS
10
0.1312156692913386
20
0.2830787007874015
11
0.1317442125984252
21
0.2828427165354331
0
LINE
8
BLACK
6
CONTINUOUS
10
0.1317442125984252
20
0.2828427165354331
11
0.1318242913385827
21
0.2827732677165354
0
LINE
8
BLACK
6
CONTINUOUS
10
0.1318242913385827
20
0.2827732677165354
11
0.1319223622047244
21
0.2827326377952756
0
LINE
8
BLACK
6
CONTINUOUS
10
0.1319223622047244
20
0.2827326377952756
11
0.132369842519685
21
0.2823653937007874
0
LINE
8
BLACK
6
CONTINUOUS
10
0.132369842519685
20
0.2823653937007874
11
0.1361194094488189
21
0.2786158661417323
0
LINE
8
BLACK
6
CONTINUOUS
10
0.1361194094488189
20
0.2786158661417323
11
0.1364866535433071
21
0.2781684251968504
0
LINE
8
BLACK
6
CONTINUOUS
10
0.1364866535433071
20
0.2781684251968504
11
0.1365272440944882
21
0.2780703937007874
0
LINE
8
BLACK
6
CONTINUOUS
10
0.1365272440944882
20
0.2780703937007874
11
0.1365967322834646
21
0.2779902755905512
0
LINE
8
BLACK
6
CONTINUOUS
10
0.1365967322834646
20
0.2779902755905512
11
0.1368327165354331
21
0.2774616929133858
0
LINE
8
BLACK
6
CONTINUOUS
10
0.1368327165354331
20
0.2774616929133858
11
0.1387074803149606
21
0.2718374409448819
0
LINE
8
BLACK
6
CONTINUOUS
10
0.1387074803149606
20
0.2718374409448819
11
0.1387724015748031
21
0.271551811023622
0
LINE
8
BLACK
6
CONTINUOUS
10
0.1387724015748031
20
0.271551811023622
11
0.1388022834645669
21
0.2714797244094488
0
LINE
8
BLACK
6
CONTINUOUS
10
0.1388022834645669
20
0.2714797244094488
11
0.1388125590551181
21
0.2713752755905512
0
LINE
8
BLACK
6
CONTINUOUS
10
0.1388125590551181
20
0.2713752755905512
11
0.1388358267716535
21
0.2712729921259843
0
LINE
8
BLACK
6
CONTINUOUS
10
0.1388358267716535
20
0.2712729921259843
11
0.1388302755905512
21
0.2711952755905512
0
LINE
8
BLACK
6
CONTINUOUS
10
0.1388302755905512
20
0.2711952755905512
11
0.1388590157480315
21
0.2709036614173228
0
LINE
8
BLACK
6
CONTINUOUS
10
0.1388590157480315
20
0.2709036614173228
11
0.1388590157480315
21
0.2671541338582677
0
LINE
8
BLACK
6
CONTINUOUS
10
0.1388590157480315
20
0.2671541338582677
11
0.1388022834645669
21
0.2665780708661417
0
LINE
8
BLACK
6
CONTINUOUS
10
0.1388022834645669
20
0.2665780708661417
11
0.1383613779527559
21
0.2655136614173229
0
LINE
8
BLACK
6
CONTINUOUS
10
0.1383613779527559
20
0.2655136614173229
11
0.1375467322834646
21
0.2646990157480315
0
LINE
8
BLACK
6
CONTINUOUS
10
0.1375467322834646
20
0.2646990157480315
11
0.1364823228346457
21
0.2642581102362205
0
LINE
8
BLACK
6
CONTINUOUS
10
0.1364823228346457
20
0.2642581102362205
11
0.1353301968503937
21
0.2642581102362205
0
LINE
8
BLACK
6
CONTINUOUS
10
0.1353301968503937
20
0.2642581102362205
11
0.1342657874015748
21
0.2646990157480315
0
LINE
8
BLACK
6
CONTINUOUS
10
0.1342657874015748
20
0.2646990157480315
11
0.1334511417322835
21
0.2655136614173229
0
LINE
8
BLACK
6
CONTINUOUS
10
0.1334511417322835
20
0.2655136614173229
11
0.1330102362204724
21
0.2665780708661417
0
LINE
8
BLACK
6
CONTINUOUS
10
0.1330102362204724
20
0.2665780708661417
11
0.1329535039370079
21
0.2671541338582677
0
LINE
8
BLACK
6
CONTINUOUS
10
0.1329535039370079
20
0.2671541338582677
11
0.1329535039370079
21
0.2704245275590551
0
LINE
8
BLACK
6
CONTINUOUS
10
0.1329535039370079
20
0.2704245275590551
11
0.1314507086614173
21
0.2749329133858268
0
LINE
8
BLACK
6
CONTINUOUS
10
0.1314507086614173
20
0.2749329133858268
11
0.1286868897637795
21
0.2776966929133858
0
LINE
8
BLACK
6
CONTINUOUS
10
0.1286868897637795
20
0.2776966929133858
11
0.1241785039370079
21
0.2791994881889764
0
LINE
8
BLACK
6
CONTINUOUS
10
0.1241785039370079
20
0.2791994881889764
11
0.0965361811023622
21
0.2791994881889764
0
LINE
8
BLACK
6
CONTINUOUS
10
0.0965361811023622
20
0.2791994881889764
11
0.0959601181102362
21
0.2792562204724409
0
LINE
8
BLACK
6
CONTINUOUS
10
0.0959601181102362
20
0.2792562204724409
11
0.0948957086614173
21
0.2796971259842519
0
LINE
8
BLACK
6
CONTINUOUS
10
0.0948957086614173
20
0.2796971259842519
11
0.094081062992126
21
0.2805117716535433
0
LINE
8
BLACK
6
CONTINUOUS
10
0.094081062992126
20
0.2805117716535433
11
0.093640157480315
21
0.2815761811023622
0
LINE
8
BLACK
6
CONTINUOUS
10
0.093640157480315
20
0.2815761811023622
11
0.093640157480315
21
0.2827283070866142
0
LINE
8
BLACK
6
CONTINUOUS
10
0.093640157480315
20
0.2827283070866142
11
0.094081062992126
21
0.2837927165354331
0
LINE
8
BLACK
6
CONTINUOUS
10
0.094081062992126
20
0.2837927165354331
11
0.0948957086614173
21
0.2846073622047244
0
LINE
8
BLACK
6
CONTINUOUS
10
0.0948957086614173
20
0.2846073622047244
11
0.0959601181102362
21
0.2850482677165354
0
LINE
8
BLACK
6
CONTINUOUS
10
0.0959601181102362
20
0.2850482677165354
11
0.0965361811023622
21
0.285105
0
LINE
8
BLACK
6
CONTINUOUS
10
0.0965361811023622
20
0.285105
11
0.1246576377952756
21
0.285105
0
LINE
8
BLACK
6
CONTINUOUS
10
0.1246576377952756
20
0.285105
11
0.1249491732283464
21
0.2850762992125984
0
LINE
8
BLACK
6
CONTINUOUS
10
0.1080762992125984
20
0.3244463779527559
11
0.1081540551181102
21
0.3244518897637795
0
LINE
8
BLACK
6
CONTINUOUS
10
0.1081540551181102
20
0.3244518897637795
11
0.1082562992125984
21
0.3244286614173229
0
LINE
8
BLACK
6
CONTINUOUS
10
0.1082562992125984
20
0.3244286614173229
11
0.1083608267716535
21
0.3244183464566929
0
LINE
8
BLACK
6
CONTINUOUS
10
0.1083608267716535
20
0.3244183464566929
11
0.1084329133858268
21
0.3243885039370079
0
LINE
8
BLACK
6
CONTINUOUS
10
0.1084329133858268
20
0.3243885039370079
11
0.1087185039370079
21
0.3243235433070866
0
LINE
8
BLACK
6
CONTINUOUS
10
0.1087185039370079
20
0.3243235433070866
11
0.1143427952755905
21
0.3224487795275591
0
LINE
8
BLACK
6
CONTINUOUS
10
0.1143427952755905
20
0.3224487795275591
11
0.1148713385826772
21
0.3222127952755905
0
LINE
8
BLACK
6
CONTINUOUS
10
0.1148713385826772
20
0.3222127952755905
11
0.1149514566929134
21
0.3221433070866142
0
LINE
8
BLACK
6
CONTINUOUS
10
0.1149514566929134
20
0.3221433070866142
11
0.1150495275590551
21
0.3221026771653543
0
LINE
8
BLACK
6
CONTINUOUS
10
0.1150495275590551
20
0.3221026771653543
11
0.115496968503937
21
0.3217354724409449
0
LINE
8
BLACK
6
CONTINUOUS
10
0.115496968503937
20
0.3217354724409449
11
0.1329535039370079
21
0.3042789763779528
0
LINE
8
BLACK
6
CONTINUOUS
10
0.1329535039370079
20
0.3042789763779528
11
0.1329535039370079
21
0.3215223228346457
0
LINE
8
BLACK
6
CONTINUOUS
10
0.1329535039370079
20
0.3215223228346457
11
0.1330102362204724
21
0.3220983858267716
0
LINE
8
BLACK
6
CONTINUOUS
10
0.1330102362204724
20
0.3220983858267716
11
0.1334511417322835
21
0.3231627952755906
0
LINE
8
BLACK
6
CONTINUOUS
10
0.1334511417322835
20
0.3231627952755906
11
0.1342657874015748
21
0.3239774409448819
0
LINE
8
BLACK
6
CONTINUOUS
10
0.1342657874015748
20
0.3239774409448819
11
0.1353301968503937
21
0.3244183464566929
0
LINE
8
BLACK
6
CONTINUOUS
10
0.1353301968503937
20
0.3244183464566929
11
0.1364823228346457
21
0.3244183464566929
0
LINE
8
BLACK
6
CONTINUOUS
10
0.1364823228346457
20
0.3244183464566929
11
0.1375467322834646
21
0.3239774409448819
0
LINE
8
BLACK
6
CONTINUOUS
10
0.1375467322834646
20
0.3239774409448819
11
0.1383613779527559
21
0.3231627952755906
0
LINE
8
BLACK
6
CONTINUOUS
10
0.1383613779527559
20
0.3231627952755906
11
0.1388022834645669
21
0.3220983858267716
0
LINE
8
BLACK
6
CONTINUOUS
10
0.1388022834645669
20
0.3220983858267716
11
0.1388590157480315
21
0.3215223228346457
0
LINE
8
BLACK
6
CONTINUOUS
10
0.1388590157480315
20
0.3215223228346457
11
0.1388590157480315
21
0.2971503937007874
0
LINE
8
BLACK
6
CONTINUOUS
10
0.1388590157480315
20
0.2971503937007874
11
0.1388022834645669
21
0.2965743307086614
0
LINE
8
BLACK
6
CONTINUOUS
10
0.1388022834645669
20
0.2965743307086614
11
0.1386731496062992
21
0.2962625984251969
0
LINE
8
BLACK
6
CONTINUOUS
10
0.1386731496062992
20
0.2962625984251969
11
0.1383614173228346
21
0.2955099212598425
0
LINE
8
BLACK
6
CONTINUOUS
10
0.1383614173228346
20
0.2955099212598425
11
0.1375467322834646
21
0.2946952755905512
0
LINE
8
BLACK
6
CONTINUOUS
10
0.1375467322834646
20
0.2946952755905512
11
0.1364823228346457
21
0.2942543700787402
0
LINE
8
BLACK
6
CONTINUOUS
10
0.1364823228346457
20
0.2942543700787402
11
0.1353302362204724
21
0.2942543700787402
0
LINE
8
BLACK
6
CONTINUOUS
10
0.1353302362204724
20
0.2942543700787402
11
0.1353301968503937
21
0.2942543700787402
0
LINE
8
BLACK
6
CONTINUOUS
10
0.1353301968503937
20
0.2942543700787402
11
0.1350184251968504
21
0.2943835039370079
0
LINE
8
BLACK
6
CONTINUOUS
10
0.1350184251968504
20
0.2943835039370079
11
0.1342657874015748
21
0.2946952362204724
0
LINE
8
BLACK
6
CONTINUOUS
10
0.1342657874015748
20
0.2946952362204724
11
0.1338183464566929
21
0.2950624803149606
0
LINE
8
BLACK
6
CONTINUOUS
10
0.1338183464566929
20
0.2950624803149606
11
0.1118140157480315
21
0.3170667716535433
0
LINE
8
BLACK
6
CONTINUOUS
10
0.1118140157480315
20
0.3170667716535433
11
0.1073056299212598
21
0.3185695669291339
0
LINE
8
BLACK
6
CONTINUOUS
10
0.1073056299212598
20
0.3185695669291339
11
0.1047322834645669
21
0.3185695669291339
0
LINE
8
BLACK
6
CONTINUOUS
10
0.1047322834645669
20
0.3185695669291339
11
0.1020348031496063
21
0.3172208267716535
0
LINE
8
BLACK
6
CONTINUOUS
10
0.1020348031496063
20
0.3172208267716535
11
0.1008376771653543
21
0.3160237007874016
0
LINE
8
BLACK
6
CONTINUOUS
10
0.1008376771653543
20
0.3160237007874016
11
0.099488937007874
21
0.313326220472441
0
LINE
8
BLACK
6
CONTINUOUS
10
0.099488937007874
20
0.313326220472441
11
0.099488937007874
21
0.3053464960629921
0
LINE
8
BLACK
6
CONTINUOUS
10
0.099488937007874
20
0.3053464960629921
11
0.1008376771653543
21
0.3026490157480315
0
LINE
8
BLACK
6
CONTINUOUS
10
0.1008376771653543
20
0.3026490157480315
11
0.1023736220472441
21
0.3011130708661418
0
LINE
8
BLACK
6
CONTINUOUS
10
0.1023736220472441
20
0.3011130708661418
11
0.1027408267716535
21
0.3006656299212598
0
LINE
8
BLACK
6
CONTINUOUS
10
0.1027408267716535
20
0.3006656299212598
11
0.1031817322834646
21
0.2996012204724409
0
LINE
8
BLACK
6
CONTINUOUS
10
0.1031817322834646
20
0.2996012204724409
11
0.1031817322834646
21
0.2984491338582677
0
LINE
8
BLACK
6
CONTINUOUS
10
0.1031817322834646
20
0.2984491338582677
11
0.1027408267716535
21
0.2973847244094488
0
LINE
8
BLACK
6
CONTINUOUS
10
0.1027408267716535
20
0.2973847244094488
11
0.1019261417322835
21
0.2965700393700788
0
LINE
8
BLACK
6
CONTINUOUS
10
0.1019261417322835
20
0.2965700393700788
11
0.1008617322834646
21
0.2961291338582677
0
LINE
8
BLACK
6
CONTINUOUS
10
0.1008617322834646
20
0.2961291338582677
11
0.0997096456692913
21
0.2961291338582677
0
LINE
8
BLACK
6
CONTINUOUS
10
0.0997096456692913
20
0.2961291338582677
11
0.0986452362204724
21
0.2965700393700788
0
LINE
8
BLACK
6
CONTINUOUS
10
0.0986452362204724
20
0.2965700393700788
11
0.0981977952755906
21
0.2969372440944882
0
LINE
8
BLACK
6
CONTINUOUS
10
0.0981977952755906
20
0.2969372440944882
11
0.096323031496063
21
0.2988120078740157
0
LINE
8
BLACK
6
CONTINUOUS
10
0.096323031496063
20
0.2988120078740157
11
0.0961372440944882
21
0.2990383858267717
0
LINE
8
BLACK
6
CONTINUOUS
10
0.0961372440944882
20
0.2990383858267717
11
0.0960782677165354
21
0.2990895275590551
0
LINE
8
BLACK
6
CONTINUOUS
10
0.0960782677165354
20
0.2990895275590551
11
0.0960222834645669
21
0.2991785039370078
0
LINE
8
BLACK
6
CONTINUOUS
10
0.0960222834645669
20
0.2991785039370078
11
0.0959558267716535
21
0.2992594488188977
0
LINE
8
BLACK
6
CONTINUOUS
10
0.0959558267716535
20
0.2992594488188977
11
0.0959259842519685
21
0.2993314173228346
0
LINE
8
BLACK
6
CONTINUOUS
10
0.0959259842519685
20
0.2993314173228346
11
0.0957699212598425
21
0.2995794094488189
0
LINE
8
BLACK
6
CONTINUOUS
10
0.0957699212598425
20
0.2995794094488189
11
0.093895157480315
21
0.303328937007874
0
LINE
8
BLACK
6
CONTINUOUS
10
0.093895157480315
20
0.303328937007874
11
0.0936882677165354
21
0.3038695669291339
0
LINE
8
BLACK
6
CONTINUOUS
10
0.0936882677165354
20
0.3038695669291339
11
0.0936807480314961
21
0.3039753937007874
0
LINE
8
BLACK
6
CONTINUOUS
10
0.0936807480314961
20
0.3039753937007874
11
0.093640157480315
21
0.3040733858267716
0
LINE
8
BLACK
6
CONTINUOUS
10
0.093640157480315
20
0.3040733858267716
11
0.0935834251968504
21
0.3046494488188976
0
LINE
8
BLACK
6
CONTINUOUS
10
0.0935834251968504
20
0.3046494488188976
11
0.0935834251968504
21
0.3140232677165354
0
LINE
8
BLACK
6
CONTINUOUS
10
0.0935834251968504
20
0.3140232677165354
11
0.093640157480315
21
0.3145993307086614
0
LINE
8
BLACK
6
CONTINUOUS
10
0.093640157480315
20
0.3145993307086614
11
0.0936807480314961
21
0.3146973622047244
0
LINE
8
BLACK
6
CONTINUOUS
10
0.0936807480314961
20
0.3146973622047244
11
0.0936882677165354
21
0.3148031496062992
0
LINE
8
BLACK
6
CONTINUOUS
10
0.0936882677165354
20
0.3148031496062992
11
0.093895157480315
21
0.315343779527559
0
LINE
8
BLACK
6
CONTINUOUS
10
0.093895157480315
20
0.315343779527559
11
0.0957699212598425
21
0.3190933070866142
0
LINE
8
BLACK
6
CONTINUOUS
10
0.0957699212598425
20
0.3190933070866142
11
0.0959259842519685
21
0.3193413385826772
0
LINE
8
BLACK
6
CONTINUOUS
10
0.0959259842519685
20
0.3193413385826772
11
0.0959558267716535
21
0.3194132677165354
0
LINE
8
BLACK
6
CONTINUOUS
10
0.0959558267716535
20
0.3194132677165354
11
0.0960222834645669
21
0.319494251968504
0
LINE
8
BLACK
6
CONTINUOUS
10
0.0960222834645669
20
0.319494251968504
11
0.0960782677165354
21
0.3195831889763779
0
LINE
8
BLACK
6
CONTINUOUS
10
0.0960782677165354
20
0.3195831889763779
11
0.0961372440944882
21
0.3196343700787401
0
LINE
8
BLACK
6
CONTINUOUS
10
0.0961372440944882
20
0.3196343700787401
11
0.096323031496063
21
0.3198607086614173
0
LINE
8
BLACK
6
CONTINUOUS
10
0.096323031496063
20
0.3198607086614173
11
0.0981977952755906
21
0.3217354724409449
0
LINE
8
BLACK
6
CONTINUOUS
10
0.0981977952755906
20
0.3217354724409449
11
0.0984241338582677
21
0.3219212598425197
0
LINE
8
BLACK
6
CONTINUOUS
10
0.0984241338582677
20
0.3219212598425197
11
0.0984753149606299
21
0.3219802362204724
0
LINE
8
BLACK
6
CONTINUOUS
10
0.0984753149606299
20
0.3219802362204724
11
0.0985642519685039
21
0.322036220472441
0
LINE
8
BLACK
6
CONTINUOUS
10
0.0985642519685039
20
0.322036220472441
11
0.0986452362204724
21
0.3221026771653543
0
LINE
8
BLACK
6
CONTINUOUS
10
0.0986452362204724
20
0.3221026771653543
11
0.0987171653543307
21
0.3221325196850394
0
LINE
8
BLACK
6
CONTINUOUS
10
0.0987171653543307
20
0.3221325196850394
11
0.0989651968503937
21
0.3222885826771654
0
LINE
8
BLACK
6
CONTINUOUS
10
0.0989651968503937
20
0.3222885826771654
11
0.1027147244094488
21
0.3241633464566929
0
LINE
8
BLACK
6
CONTINUOUS
10
0.1027147244094488
20
0.3241633464566929
11
0.1032553149606299
21
0.3243702362204725
0
LINE
8
BLACK
6
CONTINUOUS
10
0.1032553149606299
20
0.3243702362204725
11
0.1033611811023622
21
0.3243777952755905
0
LINE
8
BLACK
6
CONTINUOUS
10
0.1033611811023622
20
0.3243777952755905
11
0.1034591732283465
21
0.3244183464566929
0
LINE
8
BLACK
6
CONTINUOUS
10
0.1034591732283465
20
0.3244183464566929
11
0.1040352362204724
21
0.3244750787401575
0
LINE
8
BLACK
6
CONTINUOUS
10
0.1040352362204724
20
0.3244750787401575
11
0.1077847637795276
21
0.3244750787401575
0
LINE
8
BLACK
6
CONTINUOUS
10
0.1077847637795276
20
0.3244750787401575
11
0.1080762992125984
21
0.3244463779527559
0
LINE
8
BLACK
6
CONTINUOUS
10
0.1817454330708661
20
0.4594958267716535
11
0.1828107874015748
21
0.4584304724409449
0
LINE
8
BLACK
6
CONTINUOUS
10
0.1828107874015748
20
0.4584304724409449
11
0.1829606299212598
21
0.4576771653543307
0
LINE
8
BLACK
6
CONTINUOUS
10
0.1829606299212598
20
0.4576771653543307
11
0.1829606299212598
21
0.1328740157480315
0
LINE
8
BLACK
6
CONTINUOUS
10
0.1829606299212598
20
0.1328740157480315
11
0.1828107874015748
21
0.1321207086614173
0
LINE
8
BLACK
6
CONTINUOUS
10
0.1828107874015748
20
0.1321207086614173
11
0.1817454330708661
21
0.1310553543307087
0
LINE
8
BLACK
6
CONTINUOUS
10
0.1817454330708661
20
0.1310553543307087
11
0.180992125984252
21
0.1309055118110236
0
LINE
8
BLACK
6
CONTINUOUS
10
0.180992125984252
20
0.1309055118110236
11
0.0215433070866142
21
0.1309055118110236
0
LINE
8
BLACK
6
CONTINUOUS
10
0.0215433070866142
20
0.1309055118110236
11
0.02079
21
0.1310553543307087
0
LINE
8
BLACK
6
CONTINUOUS
10
0.02079
20
0.1310553543307087
11
0.0197246456692913
21
0.1321207086614173
0
LINE
8
BLACK
6
CONTINUOUS
10
0.0197246456692913
20
0.1321207086614173
11
0.0195748031496063
21
0.1328740157480315
0
LINE
8
BLACK
6
CONTINUOUS
10
0.0195748031496063
20
0.1328740157480315
11
0.0195748031496063
21
0.4576771653543307
0
LINE
8
BLACK
6
CONTINUOUS
10
0.0195748031496063
20
0.4576771653543307
11
0.0197246456692913
21
0.4584304724409449
0
LINE
8
BLACK
6
CONTINUOUS
10
0.0197246456692913
20
0.4584304724409449
11
0.02079
21
0.4594958267716535
0
LINE
8
BLACK
6
CONTINUOUS
10
0.02079
20
0.4594958267716535
11
0.0215433070866142
21
0.4596456692913386
0
LINE
8
BLACK
6
CONTINUOUS
10
0.0215433070866142
20
0.4596456692913386
11
0.180992125984252
21
0.4596456692913386
0
LINE
8
BLACK
6
CONTINUOUS
10
0.180992125984252
20
0.4596456692913386
11
0.1817454330708661
21
0.4594958267716535
0
LINE
8
BLACK
6
CONTINUOUS
10
0.023511811023622
20
0.4557086614173228
11
0.023511811023622
21
0.1348425196850394
0
LINE
8
BLACK
6
CONTINUOUS
10
0.023511811023622
20
0.1348425196850394
11
0.1790236220472441
21
0.1348425196850394
0
LINE
8
BLACK
6
CONTINUOUS
10
0.1790236220472441
20
0.1348425196850394
11
0.1790236220472441
21
0.3483905118110236
0
LINE
8
BLACK
6
CONTINUOUS
10
0.1790236220472441
20
0.3483905118110236
11
0.1520167322834646
21
0.3674872047244094
0
LINE
8
BLACK
6
CONTINUOUS
10
0.1520167322834646
20
0.3674872047244094
11
0.1514881889763779
21
0.3680444881889764
0
LINE
8
BLACK
6
CONTINUOUS
10
0.1514881889763779
20
0.3680444881889764
11
0.1514304330708661
21
0.368380905511811
0
LINE
8
BLACK
6
CONTINUOUS
10
0.1514304330708661
20
0.368380905511811
11
0.1512334251968504
21
0.3686595669291339
0
LINE
8
BLACK
6
CONTINUOUS
10
0.1512334251968504
20
0.3686595669291339
11
0.151308031496063
21
0.3690944881889764
0
LINE
8
BLACK
6
CONTINUOUS
10
0.151308031496063
20
0.3690944881889764
11
0.1512334251968504
21
0.3695294094488189
0
LINE
8
BLACK
6
CONTINUOUS
10
0.1512334251968504
20
0.3695294094488189
11
0.1514304330708661
21
0.3698081102362205
0
LINE
8
BLACK
6
CONTINUOUS
10
0.1514304330708661
20
0.3698081102362205
11
0.1514881889763779
21
0.3701444881889764
0
LINE
8
BLACK
6
CONTINUOUS
10
0.1514881889763779
20
0.3701444881889764
11
0.1520167322834646
21
0.3707017716535433
0
LINE
8
BLACK
6
CONTINUOUS
10
0.1520167322834646
20
0.3707017716535433
11
0.1790236220472441
21
0.3897985039370079
0
LINE
8
BLACK
6
CONTINUOUS
10
0.1790236220472441
20
0.3897985039370079
11
0.1790236220472441
21
0.4557086614173228
0
LINE
8
BLACK
6
CONTINUOUS
10
0.1790236220472441
20
0.4557086614173228
11
0.023511811023622
21
0.4557086614173228
0
LINE
8
BLACK
6
CONTINUOUS
10
0.1565628346456693
20
0.3690944881889764
11
0.1790236220472441
21
0.3532123622047244
0
LINE
8
BLACK
6
CONTINUOUS
10
0.1790236220472441
20
0.3532123622047244
11
0.1790236220472441
21
0.3849766535433071
0
LINE
8
BLACK
6
CONTINUOUS
10
0.1790236220472441
20
0.3849766535433071
11
0.1565628346456693
21
0.3690944881889764
0
LINE
8
BLACK
6
CONTINUOUS
10
0.4281083858267716
20
0.5343798031496063
11
0.4290300787401575
21
0.5336885039370078
0
LINE
8
BLACK
6
CONTINUOUS
10
0.4290300787401575
20
0.5336885039370078
11
0.4296170472440945
21
0.532697125984252
0
LINE
8
BLACK
6
CONTINUOUS
10
0.4296170472440945
20
0.532697125984252
11
0.42978
21
0.5315566535433071
0
LINE
8
BLACK
6
CONTINUOUS
10
0.42978
20
0.5315566535433071
11
0.429494094488189
21
0.5304405511811023
0
LINE
8
BLACK
6
CONTINUOUS
10
0.429494094488189
20
0.5304405511811023
11
0.4291938188976378
21
0.5299456692913386
0
LINE
8
BLACK
6
CONTINUOUS
10
0.4291938188976378
20
0.5299456692913386
11
0.4138574803149606
21
0.5094972047244094
0
LINE
8
BLACK
6
CONTINUOUS
10
0.4138574803149606
20
0.5094972047244094
11
0.4289195275590551
21
0.494435157480315
0
LINE
8
BLACK
6
CONTINUOUS
10
0.4289195275590551
20
0.494435157480315
11
0.4292867322834645
21
0.4939877165354331
0
LINE
8
BLACK
6
CONTINUOUS
10
0.4292867322834645
20
0.4939877165354331
11
0.4297276377952756
21
0.4929233070866141
0
LINE
8
BLACK
6
CONTINUOUS
10
0.4297276377952756
20
0.4929233070866141
11
0.4297276377952756
21
0.4917712204724409
0
LINE
8
BLACK
6
CONTINUOUS
10
0.4297276377952756
20
0.4917712204724409
11
0.4292867322834645
21
0.4907067716535433
0
LINE
8
BLACK
6
CONTINUOUS
10
0.4292867322834645
20
0.4907067716535433
11
0.4284720866141732
21
0.489892125984252
0
LINE
8
BLACK
6
CONTINUOUS
10
0.4284720866141732
20
0.489892125984252
11
0.4274076377952756
21
0.4894512204724409
0
LINE
8
BLACK
6
CONTINUOUS
10
0.4274076377952756
20
0.4894512204724409
11
0.4262555511811024
21
0.4894512204724409
0
LINE
8
BLACK
6
CONTINUOUS
10
0.4262555511811024
20
0.4894512204724409
11
0.4251911417322835
21
0.489892125984252
0
LINE
8
BLACK
6
CONTINUOUS
10
0.4251911417322835
20
0.489892125984252
11
0.4247437007874016
21
0.4902593307086614
0
LINE
8
BLACK
6
CONTINUOUS
10
0.4247437007874016
20
0.4902593307086614
11
0.4072872047244094
21
0.5077158267716535
0
LINE
8
BLACK
6
CONTINUOUS
10
0.4072872047244094
20
0.5077158267716535
11
0.4072872047244094
21
0.4923472440944882
0
LINE
8
BLACK
6
CONTINUOUS
10
0.4072872047244094
20
0.4923472440944882
11
0.4072304724409448
21
0.4917711811023622
0
LINE
8
BLACK
6
CONTINUOUS
10
0.4072304724409448
20
0.4917711811023622
11
0.4067895669291339
21
0.4907067716535433
0
LINE
8
BLACK
6
CONTINUOUS
10
0.4067895669291339
20
0.4907067716535433
11
0.4059749212598425
21
0.489892125984252
0
LINE
8
BLACK
6
CONTINUOUS
10
0.4059749212598425
20
0.489892125984252
11
0.4049105118110236
21
0.4894512204724409
0
LINE
8
BLACK
6
CONTINUOUS
10
0.4049105118110236
20
0.4894512204724409
11
0.4037583858267716
21
0.4894512204724409
0
LINE
8
BLACK
6
CONTINUOUS
10
0.4037583858267716
20
0.4894512204724409
11
0.4026939763779527
21
0.489892125984252
0
LINE
8
BLACK
6
CONTINUOUS
10
0.4026939763779527
20
0.489892125984252
11
0.4018793307086614
21
0.4907067716535433
0
LINE
8
BLACK
6
CONTINUOUS
10
0.4018793307086614
20
0.4907067716535433
11
0.4014384251968504
21
0.4917711811023622
0
LINE
8
BLACK
6
CONTINUOUS
10
0.4014384251968504
20
0.4917711811023622
11
0.4013816929133858
21
0.4923472440944882
0
LINE
8
BLACK
6
CONTINUOUS
10
0.4013816929133858
20
0.4923472440944882
11
0.4013816929133858
21
0.5317173228346457
0
LINE
8
BLACK
6
CONTINUOUS
10
0.4013816929133858
20
0.5317173228346457
11
0.4014384251968504
21
0.5322933858267717
0
LINE
8
BLACK
6
CONTINUOUS
10
0.4014384251968504
20
0.5322933858267717
11
0.4018793307086614
21
0.5333577952755906
0
LINE
8
BLACK
6
CONTINUOUS
10
0.4018793307086614
20
0.5333577952755906
11
0.4026939763779527
21
0.5341724409448819
0
LINE
8
BLACK
6
CONTINUOUS
10
0.4026939763779527
20
0.5341724409448819
11
0.4037583858267716
21
0.5346133464566929
0
LINE
8
BLACK
6
CONTINUOUS
10
0.4037583858267716
20
0.5346133464566929
11
0.4049105118110236
21
0.5346133464566929
0
LINE
8
BLACK
6
CONTINUOUS
10
0.4049105118110236
20
0.5346133464566929
11
0.4059749212598425
21
0.5341724409448819
0
LINE
8
BLACK
6
CONTINUOUS
10
0.4059749212598425
20
0.5341724409448819
11
0.4067895669291339
21
0.5333577952755906
0
LINE
8
BLACK
6
CONTINUOUS
10
0.4067895669291339
20
0.5333577952755906
11
0.4072304724409448
21
0.5322933858267717
0
LINE
8
BLACK
6
CONTINUOUS
10
0.4072304724409448
20
0.5322933858267717
11
0.4072872047244094
21
0.5317173228346457
0
LINE
8
BLACK
6
CONTINUOUS
10
0.4072872047244094
20
0.5317173228346457
11
0.4072872047244094
21
0.5160674803149606
0
LINE
8
BLACK
6
CONTINUOUS
10
0.4072872047244094
20
0.5160674803149606
11
0.4096392519685039
21
0.5137154330708661
0
LINE
8
BLACK
6
CONTINUOUS
10
0.4096392519685039
20
0.5137154330708661
11
0.4244694094488189
21
0.5334889763779528
0
LINE
8
BLACK
6
CONTINUOUS
10
0.4244694094488189
20
0.5334889763779528
11
0.4248604330708661
21
0.5339157874015747
0
LINE
8
BLACK
6
CONTINUOUS
10
0.4248604330708661
20
0.5339157874015747
11
0.425851811023622
21
0.5345027952755905
0
LINE
8
BLACK
6
CONTINUOUS
10
0.425851811023622
20
0.5345027952755905
11
0.4269923228346457
21
0.5346657086614173
0
LINE
8
BLACK
6
CONTINUOUS
10
0.4269923228346457
20
0.5346657086614173
11
0.4281083858267716
21
0.5343798031496063
0
CIRCLE
8
BLACK
10
0.945
20
0.517
40
0.0068897637795276
0
CIRCLE
8
BLACK
10
0.4921259842519685
20
0.5905511811023622
40
0.0068897637795276
0
CIRCLE
8
BLACK
10
0.8533464566929133
20
0.344488188976378
40
0.0068897637795276
0
CIRCLE
8
BLACK
10
0.4921259842519685
20
0.
40
0.0068897637795276
0
CIRCLE
8
BLACK
10
0.8533464566929133
20
0.2460629921259843
40
0.0068897637795276
0
CIRCLE
8
BLACK
10
0.945
20
0.0735511811023622
40
0.0068897637795276
0
CIRCLE
8
BLACK
10
0.8533464566929133
20
0.4232283464566929
40
0.0068897637795276
0
CIRCLE
8
BLACK
10
0.0984251968503937
20
0.5905511811023622
40
0.0068897637795276
0
CIRCLE
8
BLACK
10
0.8858267716535433
20
0.
40
0.0068897637795276
0
CIRCLE
8
BLACK
10
0.8986220472440944
20
0.4735511811023622
40
0.0068897637795276
0
CIRCLE
8
BLACK
10
0.8858267716535433
20
0.5905511811023622
40
0.0068897637795276
0
CIRCLE
8
BLACK
10
0.0984251968503937
20
0.
40
0.0068897637795276
0
CIRCLE
8
BLACK
10
0.898
20
0.117
40
0.0068897637795276
0
CIRCLE
8
BLACK
10
0.8533464566929133
20
0.1673228346456693
40
0.0068897637795276
0
CIRCLE
8
BLACK
10
1.1318897637795275
20
0.1948818897637795
40
0.0068897637795276
0
CIRCLE
8
BLACK
10
1.1318897637795275
20
0.3956692913385826
40
0.0068897637795276
0
CIRCLE
8
BLACK
10
0.9311023622047244
20
0.1948818897637795
40
0.0068897637795276
0
CIRCLE
8
BLACK
10
0.9311023622047244
20
0.3956692913385826
40
0.0068897637795276
  0
ENDSEC
  0
EOF
