  0
SECTION
  2
HEADER
  9
$ANGBASE
  50
0.0
  9
$ANGDIR
  70
1
  9
$MEASUREMENT
  70
0
  0
ENDSEC
  0
SECTION
  2
TABLES
  0
TABLE
  2
LTYPE
  70
4
  0
LTYPE
  5
40F
  2
CONTINUOUS
  70
0
  3
Solid line
  72
65
  73
0
  40
0.0
  0
LTYPE
  5
410
  2
DASHDOT
 70
0
  3
Dash Dot ____ _ ____ _
 72
65
 73
4
 40
2.0
 49
1.25
 49
-0.25
 49
0.25
 49
-0.25
  0
LTYPE
  5
411
  2
DASHED
 70
0
  3
Dashed __ __ __ __ __
 72
65
 73
2
 40
0.75
 49
0.5
 49
-0.25
  0
LTYPE
  5
43B
  2
DOTTED
 70
0
  3
Dotted .  .  .  .
 72
65
 73
2
 40
0.2
 49
0.0
 49
-0.2
  0
ENDTAB
  0
TABLE
  2
STYLE
  70
4
  0
STYLE
  2
KICAD
  70
0
  40
0
  41
1
  42
1
  50
0
  71
0
  3
isocp.shx
  0
STYLE
  2
KICADB
  70
0
  40
0
  41
1
  42
1
  50
0
  71
0
  3
isocp.shx
  0
STYLE
  2
KICADI
  70
0
  40
0
  41
1
  42
1
  50
15
  71
0
  3
isocp.shx
  0
STYLE
  2
KICADBI
  70
0
  40
0
  41
1
  42
1
  50
15
  71
0
  3
isocp.shx
  0
ENDTAB
  0
TABLE
  2
LAYER
  70
1
  0
LAYER
  2
BLACK
  70
0
  62
7
  6
CONTINUOUS
  0
ENDTAB
  0
ENDSEC
  0
SECTION
  2
ENTITIES
0
LINE
8
BLACK
6
CONTINUOUS
10
0.758914
20
0.0344262
11
0.770725
21
0.0226152
0
LINE
8
BLACK
6
CONTINUOUS
10
0.770725
20
0.0226152
11
0.771417
21
0.0209449
0
LINE
8
BLACK
6
CONTINUOUS
10
0.771417
20
0.0209449
11
0.770725
21
0.0192746
0
LINE
8
BLACK
6
CONTINUOUS
10
0.770725
20
0.0192746
11
0.769055
21
0.0185827
0
LINE
8
BLACK
6
CONTINUOUS
10
0.769055
20
0.0185827
11
0.745433
21
0.0185827
0
LINE
8
BLACK
6
CONTINUOUS
10
0.745433
20
0.0185827
11
0.743763
21
0.0192746
0
LINE
8
BLACK
6
CONTINUOUS
10
0.743763
20
0.0192746
11
0.743071
21
0.0209449
0
LINE
8
BLACK
6
CONTINUOUS
10
0.743071
20
0.0209449
11
0.743763
21
0.0226152
0
LINE
8
BLACK
6
CONTINUOUS
10
0.743763
20
0.0226152
11
0.755574
21
0.0344262
0
LINE
8
BLACK
6
CONTINUOUS
10
0.755574
20
0.0344262
11
0.757244
21
0.0351181
0
LINE
8
BLACK
6
CONTINUOUS
10
0.757244
20
0.0351181
11
0.758914
21
0.0344262
0
LINE
8
BLACK
6
CONTINUOUS
10
0.751136
20
0.0233071
11
0.763352
21
0.0233071
0
LINE
8
BLACK
6
CONTINUOUS
10
0.763352
20
0.0233071
11
0.757244
21
0.0294153
0
LINE
8
BLACK
6
CONTINUOUS
10
0.757244
20
0.0294153
11
0.751136
21
0.0233071
0
LINE
8
BLACK
6
CONTINUOUS
10
0.765732
20
0.121478
11
0.768987
21
0.121157
0
LINE
8
BLACK
6
CONTINUOUS
10
0.768987
20
0.121157
11
0.7746
21
0.119455
0
LINE
8
BLACK
6
CONTINUOUS
10
0.7746
20
0.119455
11
0.779773
21
0.11669
0
LINE
8
BLACK
6
CONTINUOUS
10
0.779773
20
0.11669
11
0.784307
21
0.112969
0
LINE
8
BLACK
6
CONTINUOUS
10
0.784307
20
0.112969
11
0.788028
21
0.108434
0
LINE
8
BLACK
6
CONTINUOUS
10
0.788028
20
0.108434
11
0.790793
21
0.103261
0
LINE
8
BLACK
6
CONTINUOUS
10
0.790793
20
0.103261
11
0.792496
21
0.0976484
0
LINE
8
BLACK
6
CONTINUOUS
10
0.792496
20
0.0976484
11
0.793071
21
0.091811
0
LINE
8
BLACK
6
CONTINUOUS
10
0.793071
20
0.091811
11
0.793071
21
0.068189
0
LINE
8
BLACK
6
CONTINUOUS
10
0.793071
20
0.068189
11
0.792496
21
0.0623516
0
LINE
8
BLACK
6
CONTINUOUS
10
0.792496
20
0.0623516
11
0.790793
21
0.0567386
0
LINE
8
BLACK
6
CONTINUOUS
10
0.790793
20
0.0567386
11
0.788028
21
0.0515656
0
LINE
8
BLACK
6
CONTINUOUS
10
0.788028
20
0.0515656
11
0.784307
21
0.0470315
0
LINE
8
BLACK
6
CONTINUOUS
10
0.784307
20
0.0470315
11
0.779773
21
0.0433104
0
LINE
8
BLACK
6
CONTINUOUS
10
0.779773
20
0.0433104
11
0.7746
21
0.0405454
0
LINE
8
BLACK
6
CONTINUOUS
10
0.7746
20
0.0405454
11
0.768987
21
0.0388426
0
LINE
8
BLACK
6
CONTINUOUS
10
0.768987
20
0.0388426
11
0.765732
21
0.0385221
0
LINE
8
BLACK
6
CONTINUOUS
10
0.765732
20
0.0385221
11
0.765118
21
0.0382677
0
LINE
8
BLACK
6
CONTINUOUS
10
0.765118
20
0.0382677
11
0.76315
21
0.0382677
0
LINE
8
BLACK
6
CONTINUOUS
10
0.76315
20
0.0382677
11
0.65685
21
0.0382677
0
LINE
8
BLACK
6
CONTINUOUS
10
0.65685
20
0.0382677
11
0.654882
21
0.0382677
0
LINE
8
BLACK
6
CONTINUOUS
10
0.654882
20
0.0382677
11
0.654268
21
0.0385221
0
LINE
8
BLACK
6
CONTINUOUS
10
0.654268
20
0.0385221
11
0.651013
21
0.0388426
0
LINE
8
BLACK
6
CONTINUOUS
10
0.651013
20
0.0388426
11
0.6454
21
0.0405454
0
LINE
8
BLACK
6
CONTINUOUS
10
0.6454
20
0.0405454
11
0.640227
21
0.0433104
0
LINE
8
BLACK
6
CONTINUOUS
10
0.640227
20
0.0433104
11
0.635693
21
0.0470315
0
LINE
8
BLACK
6
CONTINUOUS
10
0.635693
20
0.0470315
11
0.631972
21
0.0515656
0
LINE
8
BLACK
6
CONTINUOUS
10
0.631972
20
0.0515656
11
0.629207
21
0.0567386
0
LINE
8
BLACK
6
CONTINUOUS
10
0.629207
20
0.0567386
11
0.627504
21
0.0623516
0
LINE
8
BLACK
6
CONTINUOUS
10
0.627504
20
0.0623516
11
0.626929
21
0.068189
0
LINE
8
BLACK
6
CONTINUOUS
10
0.626929
20
0.068189
11
0.626929
21
0.091811
0
LINE
8
BLACK
6
CONTINUOUS
10
0.626929
20
0.091811
11
0.627504
21
0.0976484
0
LINE
8
BLACK
6
CONTINUOUS
10
0.627504
20
0.0976484
11
0.629207
21
0.103261
0
LINE
8
BLACK
6
CONTINUOUS
10
0.629207
20
0.103261
11
0.631972
21
0.108434
0
LINE
8
BLACK
6
CONTINUOUS
10
0.631972
20
0.108434
11
0.635693
21
0.112969
0
LINE
8
BLACK
6
CONTINUOUS
10
0.635693
20
0.112969
11
0.640227
21
0.11669
0
LINE
8
BLACK
6
CONTINUOUS
10
0.640227
20
0.11669
11
0.6454
21
0.119455
0
LINE
8
BLACK
6
CONTINUOUS
10
0.6454
20
0.119455
11
0.651013
21
0.121157
0
LINE
8
BLACK
6
CONTINUOUS
10
0.651013
20
0.121157
11
0.654268
21
0.121478
0
LINE
8
BLACK
6
CONTINUOUS
10
0.654268
20
0.121478
11
0.654882
21
0.121732
0
LINE
8
BLACK
6
CONTINUOUS
10
0.654882
20
0.121732
11
0.765118
21
0.121732
0
LINE
8
BLACK
6
CONTINUOUS
10
0.765118
20
0.121732
11
0.765732
21
0.121478
0
LINE
8
BLACK
6
CONTINUOUS
10
0.65685
20
0.117008
11
0.654011
21
0.117008
0
LINE
8
BLACK
6
CONTINUOUS
10
0.654011
20
0.117008
11
0.648476
21
0.115744
0
LINE
8
BLACK
6
CONTINUOUS
10
0.648476
20
0.115744
11
0.64336
21
0.113281
0
LINE
8
BLACK
6
CONTINUOUS
10
0.64336
20
0.113281
11
0.638921
21
0.109741
0
LINE
8
BLACK
6
CONTINUOUS
10
0.638921
20
0.109741
11
0.635381
21
0.105301
0
LINE
8
BLACK
6
CONTINUOUS
10
0.635381
20
0.105301
11
0.632917
21
0.100186
0
LINE
8
BLACK
6
CONTINUOUS
10
0.632917
20
0.100186
11
0.631654
21
0.09465
0
LINE
8
BLACK
6
CONTINUOUS
10
0.631654
20
0.09465
11
0.631654
21
0.091811
0
LINE
8
BLACK
6
CONTINUOUS
10
0.631654
20
0.091811
11
0.631654
21
0.068189
0
LINE
8
BLACK
6
CONTINUOUS
10
0.631654
20
0.068189
11
0.631654
21
0.06535
0
LINE
8
BLACK
6
CONTINUOUS
10
0.631654
20
0.06535
11
0.632917
21
0.0598143
0
LINE
8
BLACK
6
CONTINUOUS
10
0.632917
20
0.0598143
11
0.635381
21
0.0546986
0
LINE
8
BLACK
6
CONTINUOUS
10
0.635381
20
0.0546986
11
0.638921
21
0.0502594
0
LINE
8
BLACK
6
CONTINUOUS
10
0.638921
20
0.0502594
11
0.64336
21
0.0467192
0
LINE
8
BLACK
6
CONTINUOUS
10
0.64336
20
0.0467192
11
0.648476
21
0.0442556
0
LINE
8
BLACK
6
CONTINUOUS
10
0.648476
20
0.0442556
11
0.654011
21
0.0429921
0
LINE
8
BLACK
6
CONTINUOUS
10
0.654011
20
0.0429921
11
0.654882
21
0.0429921
0
LINE
8
BLACK
6
CONTINUOUS
10
0.654882
20
0.0429921
11
0.765118
21
0.0429921
0
LINE
8
BLACK
6
CONTINUOUS
10
0.765118
20
0.0429921
11
0.765989
21
0.0429921
0
LINE
8
BLACK
6
CONTINUOUS
10
0.765989
20
0.0429921
11
0.771524
21
0.0442556
0
LINE
8
BLACK
6
CONTINUOUS
10
0.771524
20
0.0442556
11
0.77664
21
0.0467192
0
LINE
8
BLACK
6
CONTINUOUS
10
0.77664
20
0.0467192
11
0.781079
21
0.0502594
0
LINE
8
BLACK
6
CONTINUOUS
10
0.781079
20
0.0502594
11
0.784619
21
0.0546986
0
LINE
8
BLACK
6
CONTINUOUS
10
0.784619
20
0.0546986
11
0.787083
21
0.0598143
0
LINE
8
BLACK
6
CONTINUOUS
10
0.787083
20
0.0598143
11
0.788346
21
0.06535
0
LINE
8
BLACK
6
CONTINUOUS
10
0.788346
20
0.06535
11
0.788346
21
0.068189
0
LINE
8
BLACK
6
CONTINUOUS
10
0.788346
20
0.068189
11
0.788346
21
0.091811
0
LINE
8
BLACK
6
CONTINUOUS
10
0.788346
20
0.091811
11
0.788346
21
0.09465
0
LINE
8
BLACK
6
CONTINUOUS
10
0.788346
20
0.09465
11
0.787083
21
0.100186
0
LINE
8
BLACK
6
CONTINUOUS
10
0.787083
20
0.100186
11
0.784619
21
0.105301
0
LINE
8
BLACK
6
CONTINUOUS
10
0.784619
20
0.105301
11
0.781079
21
0.109741
0
LINE
8
BLACK
6
CONTINUOUS
10
0.781079
20
0.109741
11
0.77664
21
0.113281
0
LINE
8
BLACK
6
CONTINUOUS
10
0.77664
20
0.113281
11
0.771524
21
0.115744
0
LINE
8
BLACK
6
CONTINUOUS
10
0.771524
20
0.115744
11
0.765989
21
0.117008
0
LINE
8
BLACK
6
CONTINUOUS
10
0.765989
20
0.117008
11
0.76315
21
0.117008
0
LINE
8
BLACK
6
CONTINUOUS
10
0.76315
20
0.117008
11
0.65685
21
0.117008
0
LINE
8
BLACK
6
CONTINUOUS
10
0.184308
20
0.078622
11
0.18542
21
0.0769365
0
LINE
8
BLACK
6
CONTINUOUS
10
0.18542
20
0.0769365
11
0.18519
21
0.07493
0
LINE
8
BLACK
6
CONTINUOUS
10
0.18519
20
0.07493
11
0.183315
21
0.0711804
0
LINE
8
BLACK
6
CONTINUOUS
10
0.183315
20
0.0711804
11
0.182789
21
0.0704714
0
LINE
8
BLACK
6
CONTINUOUS
10
0.182789
20
0.0704714
11
0.182762
21
0.070413
0
LINE
8
BLACK
6
CONTINUOUS
10
0.182762
20
0.070413
11
0.180303
21
0.0679546
0
LINE
8
BLACK
6
CONTINUOUS
10
0.180303
20
0.0679546
11
0.207717
21
0.0679546
0
LINE
8
BLACK
6
CONTINUOUS
10
0.207717
20
0.0679546
11
0.207717
21
0.0762505
0
LINE
8
BLACK
6
CONTINUOUS
10
0.207717
20
0.0762505
11
0.207895
21
0.0772604
0
LINE
8
BLACK
6
CONTINUOUS
10
0.207895
20
0.0772604
11
0.209194
21
0.0788076
0
LINE
8
BLACK
6
CONTINUOUS
10
0.209194
20
0.0788076
11
0.211183
21
0.0791584
0
LINE
8
BLACK
6
CONTINUOUS
10
0.211183
20
0.0791584
11
0.212932
21
0.0781485
0
LINE
8
BLACK
6
CONTINUOUS
10
0.212932
20
0.0781485
11
0.213623
21
0.0762505
0
LINE
8
BLACK
6
CONTINUOUS
10
0.213623
20
0.0762505
11
0.213623
21
0.0537533
0
LINE
8
BLACK
6
CONTINUOUS
10
0.213623
20
0.0537533
11
0.213445
21
0.0527434
0
LINE
8
BLACK
6
CONTINUOUS
10
0.213445
20
0.0527434
11
0.212146
21
0.0511961
0
LINE
8
BLACK
6
CONTINUOUS
10
0.212146
20
0.0511961
11
0.210157
21
0.0508454
0
LINE
8
BLACK
6
CONTINUOUS
10
0.210157
20
0.0508454
11
0.208408
21
0.0518553
0
LINE
8
BLACK
6
CONTINUOUS
10
0.208408
20
0.0518553
11
0.207717
21
0.0537533
0
LINE
8
BLACK
6
CONTINUOUS
10
0.207717
20
0.0537533
11
0.207717
21
0.0620491
0
LINE
8
BLACK
6
CONTINUOUS
10
0.207717
20
0.0620491
11
0.1713
21
0.0620491
0
LINE
8
BLACK
6
CONTINUOUS
10
0.1713
20
0.0620491
11
0.17029
21
0.0622272
0
LINE
8
BLACK
6
CONTINUOUS
10
0.17029
20
0.0622272
11
0.17016
21
0.0623363
0
LINE
8
BLACK
6
CONTINUOUS
10
0.17016
20
0.0623363
11
0.169991
21
0.062355
0
LINE
8
BLACK
6
CONTINUOUS
10
0.169991
20
0.062355
11
0.169399
21
0.0629746
0
LINE
8
BLACK
6
CONTINUOUS
10
0.169399
20
0.0629746
11
0.168743
21
0.0635255
0
LINE
8
BLACK
6
CONTINUOUS
10
0.168743
20
0.0635255
11
0.168713
21
0.0636928
0
LINE
8
BLACK
6
CONTINUOUS
10
0.168713
20
0.0636928
11
0.168596
21
0.0638155
0
LINE
8
BLACK
6
CONTINUOUS
10
0.168596
20
0.0638155
11
0.168541
21
0.0646707
0
LINE
8
BLACK
6
CONTINUOUS
10
0.168541
20
0.0646707
11
0.168392
21
0.0655146
0
LINE
8
BLACK
6
CONTINUOUS
10
0.168392
20
0.0655146
11
0.168477
21
0.0656617
0
LINE
8
BLACK
6
CONTINUOUS
10
0.168477
20
0.0656617
11
0.168466
21
0.0658311
0
LINE
8
BLACK
6
CONTINUOUS
10
0.168466
20
0.0658311
11
0.168973
21
0.0665217
0
LINE
8
BLACK
6
CONTINUOUS
10
0.168973
20
0.0665217
11
0.169402
21
0.0672638
0
LINE
8
BLACK
6
CONTINUOUS
10
0.169402
20
0.0672638
11
0.169561
21
0.0673219
0
LINE
8
BLACK
6
CONTINUOUS
10
0.169561
20
0.0673219
11
0.169662
21
0.0674587
0
LINE
8
BLACK
6
CONTINUOUS
10
0.169662
20
0.0674587
11
0.175043
21
0.0710461
0
LINE
8
BLACK
6
CONTINUOUS
10
0.175043
20
0.0710461
11
0.178247
21
0.07425
0
LINE
8
BLACK
6
CONTINUOUS
10
0.178247
20
0.07425
11
0.179908
21
0.077571
0
LINE
8
BLACK
6
CONTINUOUS
10
0.179908
20
0.077571
11
0.180518
21
0.0783946
0
LINE
8
BLACK
6
CONTINUOUS
10
0.180518
20
0.0783946
11
0.182372
21
0.0791979
0
LINE
8
BLACK
6
CONTINUOUS
10
0.182372
20
0.0791979
11
0.184308
21
0.078622
0
LINE
8
BLACK
6
CONTINUOUS
10
0.532075
20
0.0865916
11
0.532767
21
0.0849213
0
LINE
8
BLACK
6
CONTINUOUS
10
0.532767
20
0.0849213
11
0.532075
21
0.0832509
0
LINE
8
BLACK
6
CONTINUOUS
10
0.532075
20
0.0832509
11
0.530405
21
0.0825591
0
LINE
8
BLACK
6
CONTINUOUS
10
0.530405
20
0.0825591
11
0.517587
21
0.0825591
0
LINE
8
BLACK
6
CONTINUOUS
10
0.517587
20
0.0825591
11
0.515917
21
0.0832509
0
LINE
8
BLACK
6
CONTINUOUS
10
0.515917
20
0.0832509
11
0.515225
21
0.0849213
0
LINE
8
BLACK
6
CONTINUOUS
10
0.515225
20
0.0849213
11
0.515917
21
0.0865916
0
LINE
8
BLACK
6
CONTINUOUS
10
0.515917
20
0.0865916
11
0.517587
21
0.0872835
0
LINE
8
BLACK
6
CONTINUOUS
10
0.517587
20
0.0872835
11
0.530405
21
0.0872835
0
LINE
8
BLACK
6
CONTINUOUS
10
0.530405
20
0.0872835
11
0.532075
21
0.0865916
0
LINE
8
BLACK
6
CONTINUOUS
10
0.212932
20
0.110019
11
0.213623
21
0.108121
0
LINE
8
BLACK
6
CONTINUOUS
10
0.213623
20
0.108121
11
0.213623
21
0.104372
0
LINE
8
BLACK
6
CONTINUOUS
10
0.213623
20
0.104372
11
0.213469
21
0.103503
0
LINE
8
BLACK
6
CONTINUOUS
10
0.213469
20
0.103503
11
0.213471
21
0.103438
0
LINE
8
BLACK
6
CONTINUOUS
10
0.213471
20
0.103438
11
0.211596
21
0.0978139
0
LINE
8
BLACK
6
CONTINUOUS
10
0.211596
20
0.0978139
11
0.211108
21
0.0969122
0
LINE
8
BLACK
6
CONTINUOUS
10
0.211108
20
0.0969122
11
0.210958
21
0.0968198
0
LINE
8
BLACK
6
CONTINUOUS
10
0.210958
20
0.0968198
11
0.210883
21
0.0966598
0
LINE
8
BLACK
6
CONTINUOUS
10
0.210883
20
0.0966598
11
0.207134
21
0.0929102
0
LINE
8
BLACK
6
CONTINUOUS
10
0.207134
20
0.0929102
11
0.206294
21
0.092322
0
LINE
8
BLACK
6
CONTINUOUS
10
0.206294
20
0.092322
11
0.206118
21
0.0923067
0
LINE
8
BLACK
6
CONTINUOUS
10
0.206118
20
0.0923067
11
0.205979
21
0.0921969
0
LINE
8
BLACK
6
CONTINUOUS
10
0.205979
20
0.0921969
11
0.200355
21
0.0903222
0
LINE
8
BLACK
6
CONTINUOUS
10
0.200355
20
0.0903222
11
0.199482
21
0.0901927
0
LINE
8
BLACK
6
CONTINUOUS
10
0.199482
20
0.0901927
11
0.199421
21
0.0901706
0
LINE
8
BLACK
6
CONTINUOUS
10
0.199421
20
0.0901706
11
0.1713
21
0.0901706
0
LINE
8
BLACK
6
CONTINUOUS
10
0.1713
20
0.0901706
11
0.17029
21
0.0903487
0
LINE
8
BLACK
6
CONTINUOUS
10
0.17029
20
0.0903487
11
0.168743
21
0.091647
0
LINE
8
BLACK
6
CONTINUOUS
10
0.168743
20
0.091647
11
0.168392
21
0.0936361
0
LINE
8
BLACK
6
CONTINUOUS
10
0.168392
20
0.0936361
11
0.169402
21
0.0953853
0
LINE
8
BLACK
6
CONTINUOUS
10
0.169402
20
0.0953853
11
0.1713
21
0.0960761
0
LINE
8
BLACK
6
CONTINUOUS
10
0.1713
20
0.0960761
11
0.198942
21
0.0960761
0
LINE
8
BLACK
6
CONTINUOUS
10
0.198942
20
0.0960761
11
0.203451
21
0.097579
0
LINE
8
BLACK
6
CONTINUOUS
10
0.203451
20
0.097579
11
0.206214
21
0.100343
0
LINE
8
BLACK
6
CONTINUOUS
10
0.206214
20
0.100343
11
0.207717
21
0.104851
0
LINE
8
BLACK
6
CONTINUOUS
10
0.207717
20
0.104851
11
0.207717
21
0.108121
0
LINE
8
BLACK
6
CONTINUOUS
10
0.207717
20
0.108121
11
0.207895
21
0.109131
0
LINE
8
BLACK
6
CONTINUOUS
10
0.207895
20
0.109131
11
0.209194
21
0.110679
0
LINE
8
BLACK
6
CONTINUOUS
10
0.209194
20
0.110679
11
0.211183
21
0.111029
0
LINE
8
BLACK
6
CONTINUOUS
10
0.211183
20
0.111029
11
0.212932
21
0.110019
0
LINE
8
BLACK
6
CONTINUOUS
10
1.00941
20
0.160114
11
1.00958
21
0.160125
0
LINE
8
BLACK
6
CONTINUOUS
10
1.00958
20
0.160125
11
1.01027
21
0.159617
0
LINE
8
BLACK
6
CONTINUOUS
10
1.01027
20
0.159617
11
1.01101
21
0.159189
0
LINE
8
BLACK
6
CONTINUOUS
10
1.01101
20
0.159189
11
1.01107
21
0.159029
0
LINE
8
BLACK
6
CONTINUOUS
10
1.01107
20
0.159029
11
1.0112
21
0.158929
0
LINE
8
BLACK
6
CONTINUOUS
10
1.0112
20
0.158929
11
1.01479
21
0.153547
0
LINE
8
BLACK
6
CONTINUOUS
10
1.01479
20
0.153547
11
1.018
21
0.150344
0
LINE
8
BLACK
6
CONTINUOUS
10
1.018
20
0.150344
11
1.02132
21
0.148683
0
LINE
8
BLACK
6
CONTINUOUS
10
1.02132
20
0.148683
11
1.02214
21
0.148072
0
LINE
8
BLACK
6
CONTINUOUS
10
1.02214
20
0.148072
11
1.02294
21
0.146219
0
LINE
8
BLACK
6
CONTINUOUS
10
1.02294
20
0.146219
11
1.02237
21
0.144283
0
LINE
8
BLACK
6
CONTINUOUS
10
1.02237
20
0.144283
11
1.02068
21
0.14317
0
LINE
8
BLACK
6
CONTINUOUS
10
1.02068
20
0.14317
11
1.01868
21
0.143401
0
LINE
8
BLACK
6
CONTINUOUS
10
1.01868
20
0.143401
11
1.01493
21
0.145276
0
LINE
8
BLACK
6
CONTINUOUS
10
1.01493
20
0.145276
11
1.01422
21
0.145802
0
LINE
8
BLACK
6
CONTINUOUS
10
1.01422
20
0.145802
11
1.01416
21
0.145829
0
LINE
8
BLACK
6
CONTINUOUS
10
1.01416
20
0.145829
11
1.0117
21
0.148287
0
LINE
8
BLACK
6
CONTINUOUS
10
1.0117
20
0.148287
11
1.0117
21
0.120873
0
LINE
8
BLACK
6
CONTINUOUS
10
1.0117
20
0.120873
11
1.02
21
0.120873
0
LINE
8
BLACK
6
CONTINUOUS
10
1.02
20
0.120873
11
1.02101
21
0.120695
0
LINE
8
BLACK
6
CONTINUOUS
10
1.02101
20
0.120695
11
1.02255
21
0.119397
0
LINE
8
BLACK
6
CONTINUOUS
10
1.02255
20
0.119397
11
1.0229
21
0.117408
0
LINE
8
BLACK
6
CONTINUOUS
10
1.0229
20
0.117408
11
1.02189
21
0.115659
0
LINE
8
BLACK
6
CONTINUOUS
10
1.02189
20
0.115659
11
1.02
21
0.114968
0
LINE
8
BLACK
6
CONTINUOUS
10
1.02
20
0.114968
11
0.997499
21
0.114968
0
LINE
8
BLACK
6
CONTINUOUS
10
0.997499
20
0.114968
11
0.996489
21
0.115146
0
LINE
8
BLACK
6
CONTINUOUS
10
0.996489
20
0.115146
11
0.994942
21
0.116444
0
LINE
8
BLACK
6
CONTINUOUS
10
0.994942
20
0.116444
11
0.994591
21
0.118433
0
LINE
8
BLACK
6
CONTINUOUS
10
0.994591
20
0.118433
11
0.995601
21
0.120182
0
LINE
8
BLACK
6
CONTINUOUS
10
0.995601
20
0.120182
11
0.997499
21
0.120873
0
LINE
8
BLACK
6
CONTINUOUS
10
0.997499
20
0.120873
11
1.00579
21
0.120873
0
LINE
8
BLACK
6
CONTINUOUS
10
1.00579
20
0.120873
11
1.00579
21
0.157291
0
LINE
8
BLACK
6
CONTINUOUS
10
1.00579
20
0.157291
11
1.00597
21
0.158301
0
LINE
8
BLACK
6
CONTINUOUS
10
1.00597
20
0.158301
11
1.00608
21
0.158431
0
LINE
8
BLACK
6
CONTINUOUS
10
1.00608
20
0.158431
11
1.0061
21
0.158599
0
LINE
8
BLACK
6
CONTINUOUS
10
1.0061
20
0.158599
11
1.00672
21
0.159191
0
LINE
8
BLACK
6
CONTINUOUS
10
1.00672
20
0.159191
11
1.00727
21
0.159848
0
LINE
8
BLACK
6
CONTINUOUS
10
1.00727
20
0.159848
11
1.00744
21
0.159877
0
LINE
8
BLACK
6
CONTINUOUS
10
1.00744
20
0.159877
11
1.00756
21
0.159995
0
LINE
8
BLACK
6
CONTINUOUS
10
1.00756
20
0.159995
11
1.00842
21
0.16005
0
LINE
8
BLACK
6
CONTINUOUS
10
1.00842
20
0.16005
11
1.00926
21
0.160199
0
LINE
8
BLACK
6
CONTINUOUS
10
1.00926
20
0.160199
11
1.00941
21
0.160114
0
LINE
8
BLACK
6
CONTINUOUS
10
1.06163
20
0.159189
11
1.06232
21
0.157291
0
LINE
8
BLACK
6
CONTINUOUS
10
1.06232
20
0.157291
11
1.06232
21
0.12542
0
LINE
8
BLACK
6
CONTINUOUS
10
1.06232
20
0.12542
11
1.06214
21
0.12441
0
LINE
8
BLACK
6
CONTINUOUS
10
1.06214
20
0.12441
11
1.06203
21
0.124274
0
LINE
8
BLACK
6
CONTINUOUS
10
1.06203
20
0.124274
11
1.06201
21
0.124099
0
LINE
8
BLACK
6
CONTINUOUS
10
1.06201
20
0.124099
11
1.06013
21
0.12035
0
LINE
8
BLACK
6
CONTINUOUS
10
1.06013
20
0.12035
11
1.05961
21
0.119641
0
LINE
8
BLACK
6
CONTINUOUS
10
1.05961
20
0.119641
11
1.05958
21
0.119582
0
LINE
8
BLACK
6
CONTINUOUS
10
1.05958
20
0.119582
11
1.0577
21
0.117707
0
LINE
8
BLACK
6
CONTINUOUS
10
1.0577
20
0.117707
11
1.05698
21
0.117201
0
LINE
8
BLACK
6
CONTINUOUS
10
1.05698
20
0.117201
11
1.05694
21
0.117154
0
LINE
8
BLACK
6
CONTINUOUS
10
1.05694
20
0.117154
11
1.05319
21
0.115279
0
LINE
8
BLACK
6
CONTINUOUS
10
1.05319
20
0.115279
11
1.0522
21
0.114987
0
LINE
8
BLACK
6
CONTINUOUS
10
1.0522
20
0.114987
11
1.05203
21
0.115028
0
LINE
8
BLACK
6
CONTINUOUS
10
1.05203
20
0.115028
11
1.05187
21
0.114968
0
LINE
8
BLACK
6
CONTINUOUS
10
1.05187
20
0.114968
11
1.04437
21
0.114968
0
LINE
8
BLACK
6
CONTINUOUS
10
1.04437
20
0.114968
11
1.04336
21
0.115146
0
LINE
8
BLACK
6
CONTINUOUS
10
1.04336
20
0.115146
11
1.04322
21
0.115259
0
LINE
8
BLACK
6
CONTINUOUS
10
1.04322
20
0.115259
11
1.04305
21
0.115279
0
LINE
8
BLACK
6
CONTINUOUS
10
1.04305
20
0.115279
11
1.0393
21
0.117154
0
LINE
8
BLACK
6
CONTINUOUS
10
1.0393
20
0.117154
11
1.03859
21
0.11768
0
LINE
8
BLACK
6
CONTINUOUS
10
1.03859
20
0.11768
11
1.03853
21
0.117707
0
LINE
8
BLACK
6
CONTINUOUS
10
1.03853
20
0.117707
11
1.03666
21
0.119582
0
LINE
8
BLACK
6
CONTINUOUS
10
1.03666
20
0.119582
11
1.03615
21
0.120305
0
LINE
8
BLACK
6
CONTINUOUS
10
1.03615
20
0.120305
11
1.0361
21
0.12035
0
LINE
8
BLACK
6
CONTINUOUS
10
1.0361
20
0.12035
11
1.03423
21
0.124099
0
LINE
8
BLACK
6
CONTINUOUS
10
1.03423
20
0.124099
11
1.03394
21
0.125082
0
LINE
8
BLACK
6
CONTINUOUS
10
1.03394
20
0.125082
11
1.03398
21
0.125254
0
LINE
8
BLACK
6
CONTINUOUS
10
1.03398
20
0.125254
11
1.03392
21
0.12542
0
LINE
8
BLACK
6
CONTINUOUS
10
1.03392
20
0.12542
11
1.03392
21
0.157291
0
LINE
8
BLACK
6
CONTINUOUS
10
1.03392
20
0.157291
11
1.03409
21
0.158301
0
LINE
8
BLACK
6
CONTINUOUS
10
1.03409
20
0.158301
11
1.03539
21
0.159848
0
LINE
8
BLACK
6
CONTINUOUS
10
1.03539
20
0.159848
11
1.03738
21
0.160199
0
LINE
8
BLACK
6
CONTINUOUS
10
1.03738
20
0.160199
11
1.03913
21
0.159189
0
LINE
8
BLACK
6
CONTINUOUS
10
1.03913
20
0.159189
11
1.03982
21
0.157291
0
LINE
8
BLACK
6
CONTINUOUS
10
1.03982
20
0.157291
11
1.03982
21
0.126117
0
LINE
8
BLACK
6
CONTINUOUS
10
1.03982
20
0.126117
11
1.04117
21
0.123419
0
LINE
8
BLACK
6
CONTINUOUS
10
1.04117
20
0.123419
11
1.04237
21
0.122222
0
LINE
8
BLACK
6
CONTINUOUS
10
1.04237
20
0.122222
11
1.04507
21
0.120873
0
LINE
8
BLACK
6
CONTINUOUS
10
1.04507
20
0.120873
11
1.05117
21
0.120873
0
LINE
8
BLACK
6
CONTINUOUS
10
1.05117
20
0.120873
11
1.05387
21
0.122222
0
LINE
8
BLACK
6
CONTINUOUS
10
1.05387
20
0.122222
11
1.05506
21
0.123419
0
LINE
8
BLACK
6
CONTINUOUS
10
1.05506
20
0.123419
11
1.05641
21
0.126117
0
LINE
8
BLACK
6
CONTINUOUS
10
1.05641
20
0.126117
11
1.05641
21
0.157291
0
LINE
8
BLACK
6
CONTINUOUS
10
1.05641
20
0.157291
11
1.05659
21
0.158301
0
LINE
8
BLACK
6
CONTINUOUS
10
1.05659
20
0.158301
11
1.05789
21
0.159848
0
LINE
8
BLACK
6
CONTINUOUS
10
1.05789
20
0.159848
11
1.05988
21
0.160199
0
LINE
8
BLACK
6
CONTINUOUS
10
1.05988
20
0.160199
11
1.06163
21
0.159189
0
LINE
8
BLACK
6
CONTINUOUS
10
0.532075
20
0.126749
11
0.532767
21
0.125079
0
LINE
8
BLACK
6
CONTINUOUS
10
0.532767
20
0.125079
11
0.532075
21
0.123408
0
LINE
8
BLACK
6
CONTINUOUS
10
0.532075
20
0.123408
11
0.530405
21
0.122717
0
LINE
8
BLACK
6
CONTINUOUS
10
0.530405
20
0.122717
11
0.517587
21
0.122717
0
LINE
8
BLACK
6
CONTINUOUS
10
0.517587
20
0.122717
11
0.515917
21
0.123408
0
LINE
8
BLACK
6
CONTINUOUS
10
0.515917
20
0.123408
11
0.515225
21
0.125079
0
LINE
8
BLACK
6
CONTINUOUS
10
0.515225
20
0.125079
11
0.515917
21
0.126749
0
LINE
8
BLACK
6
CONTINUOUS
10
0.515917
20
0.126749
11
0.517587
21
0.127441
0
LINE
8
BLACK
6
CONTINUOUS
10
0.517587
20
0.127441
11
0.530405
21
0.127441
0
LINE
8
BLACK
6
CONTINUOUS
10
0.530405
20
0.127441
11
0.532075
21
0.126749
0
LINE
8
BLACK
6
CONTINUOUS
10
0.22597
20
0.20108
11
0.226661
21
0.199409
0
LINE
8
BLACK
6
CONTINUOUS
10
0.226661
20
0.199409
11
0.22597
21
0.197739
0
LINE
8
BLACK
6
CONTINUOUS
10
0.22597
20
0.197739
11
0.224299
21
0.197047
0
LINE
8
BLACK
6
CONTINUOUS
10
0.224299
20
0.197047
11
0.187685
21
0.197047
0
LINE
8
BLACK
6
CONTINUOUS
10
0.187685
20
0.197047
11
0.187685
21
0.128543
0
LINE
8
BLACK
6
CONTINUOUS
10
0.187685
20
0.128543
11
0.186993
21
0.126873
0
LINE
8
BLACK
6
CONTINUOUS
10
0.186993
20
0.126873
11
0.185323
21
0.126181
0
LINE
8
BLACK
6
CONTINUOUS
10
0.185323
20
0.126181
11
0.128236
21
0.126181
0
LINE
8
BLACK
6
CONTINUOUS
10
0.128236
20
0.126181
11
0.126566
21
0.126873
0
LINE
8
BLACK
6
CONTINUOUS
10
0.126566
20
0.126873
11
0.125874
21
0.128543
0
LINE
8
BLACK
6
CONTINUOUS
10
0.125874
20
0.128543
11
0.126566
21
0.130214
0
LINE
8
BLACK
6
CONTINUOUS
10
0.126566
20
0.130214
11
0.128236
21
0.130906
0
LINE
8
BLACK
6
CONTINUOUS
10
0.128236
20
0.130906
11
0.182961
21
0.130906
0
LINE
8
BLACK
6
CONTINUOUS
10
0.182961
20
0.130906
11
0.182961
21
0.199409
0
LINE
8
BLACK
6
CONTINUOUS
10
0.182961
20
0.199409
11
0.183653
21
0.20108
0
LINE
8
BLACK
6
CONTINUOUS
10
0.183653
20
0.20108
11
0.185323
21
0.201772
0
LINE
8
BLACK
6
CONTINUOUS
10
0.185323
20
0.201772
11
0.224299
21
0.201772
0
LINE
8
BLACK
6
CONTINUOUS
10
0.224299
20
0.201772
11
0.22597
21
0.20108
0
LINE
8
BLACK
6
CONTINUOUS
10
0.677433
20
0.181767
11
0.677603
21
0.181778
0
LINE
8
BLACK
6
CONTINUOUS
10
0.677603
20
0.181778
11
0.678293
21
0.181271
0
LINE
8
BLACK
6
CONTINUOUS
10
0.678293
20
0.181271
11
0.679035
21
0.180842
0
LINE
8
BLACK
6
CONTINUOUS
10
0.679035
20
0.180842
11
0.679093
21
0.180683
0
LINE
8
BLACK
6
CONTINUOUS
10
0.679093
20
0.180683
11
0.67923
21
0.180582
0
LINE
8
BLACK
6
CONTINUOUS
10
0.67923
20
0.180582
11
0.682818
21
0.175201
0
LINE
8
BLACK
6
CONTINUOUS
10
0.682818
20
0.175201
11
0.686022
21
0.171997
0
LINE
8
BLACK
6
CONTINUOUS
10
0.686022
20
0.171997
11
0.689343
21
0.170337
0
LINE
8
BLACK
6
CONTINUOUS
10
0.689343
20
0.170337
11
0.690166
21
0.169726
0
LINE
8
BLACK
6
CONTINUOUS
10
0.690166
20
0.169726
11
0.69097
21
0.167872
0
LINE
8
BLACK
6
CONTINUOUS
10
0.69097
20
0.167872
11
0.690394
21
0.165936
0
LINE
8
BLACK
6
CONTINUOUS
10
0.690394
20
0.165936
11
0.688708
21
0.164824
0
LINE
8
BLACK
6
CONTINUOUS
10
0.688708
20
0.164824
11
0.686702
21
0.165055
0
LINE
8
BLACK
6
CONTINUOUS
10
0.686702
20
0.165055
11
0.682952
21
0.166929
0
LINE
8
BLACK
6
CONTINUOUS
10
0.682952
20
0.166929
11
0.682243
21
0.167455
0
LINE
8
BLACK
6
CONTINUOUS
10
0.682243
20
0.167455
11
0.682185
21
0.167482
0
LINE
8
BLACK
6
CONTINUOUS
10
0.682185
20
0.167482
11
0.679726
21
0.169941
0
LINE
8
BLACK
6
CONTINUOUS
10
0.679726
20
0.169941
11
0.679726
21
0.142527
0
LINE
8
BLACK
6
CONTINUOUS
10
0.679726
20
0.142527
11
0.688022
21
0.142527
0
LINE
8
BLACK
6
CONTINUOUS
10
0.688022
20
0.142527
11
0.689032
21
0.142349
0
LINE
8
BLACK
6
CONTINUOUS
10
0.689032
20
0.142349
11
0.690579
21
0.14105
0
LINE
8
BLACK
6
CONTINUOUS
10
0.690579
20
0.14105
11
0.69093
21
0.139061
0
LINE
8
BLACK
6
CONTINUOUS
10
0.69093
20
0.139061
11
0.68992
21
0.137312
0
LINE
8
BLACK
6
CONTINUOUS
10
0.68992
20
0.137312
11
0.688022
21
0.136621
0
LINE
8
BLACK
6
CONTINUOUS
10
0.688022
20
0.136621
11
0.665525
21
0.136621
0
LINE
8
BLACK
6
CONTINUOUS
10
0.665525
20
0.136621
11
0.664515
21
0.136799
0
LINE
8
BLACK
6
CONTINUOUS
10
0.664515
20
0.136799
11
0.662968
21
0.138098
0
LINE
8
BLACK
6
CONTINUOUS
10
0.662968
20
0.138098
11
0.662617
21
0.140087
0
LINE
8
BLACK
6
CONTINUOUS
10
0.662617
20
0.140087
11
0.663627
21
0.141836
0
LINE
8
BLACK
6
CONTINUOUS
10
0.663627
20
0.141836
11
0.665525
21
0.142527
0
LINE
8
BLACK
6
CONTINUOUS
10
0.665525
20
0.142527
11
0.673821
21
0.142527
0
LINE
8
BLACK
6
CONTINUOUS
10
0.673821
20
0.142527
11
0.673821
21
0.178944
0
LINE
8
BLACK
6
CONTINUOUS
10
0.673821
20
0.178944
11
0.673999
21
0.179954
0
LINE
8
BLACK
6
CONTINUOUS
10
0.673999
20
0.179954
11
0.674108
21
0.180084
0
LINE
8
BLACK
6
CONTINUOUS
10
0.674108
20
0.180084
11
0.674127
21
0.180253
0
LINE
8
BLACK
6
CONTINUOUS
10
0.674127
20
0.180253
11
0.674746
21
0.180845
0
LINE
8
BLACK
6
CONTINUOUS
10
0.674746
20
0.180845
11
0.675297
21
0.181501
0
LINE
8
BLACK
6
CONTINUOUS
10
0.675297
20
0.181501
11
0.675464
21
0.181531
0
LINE
8
BLACK
6
CONTINUOUS
10
0.675464
20
0.181531
11
0.675587
21
0.181648
0
LINE
8
BLACK
6
CONTINUOUS
10
0.675587
20
0.181648
11
0.676442
21
0.181703
0
LINE
8
BLACK
6
CONTINUOUS
10
0.676442
20
0.181703
11
0.677286
21
0.181852
0
LINE
8
BLACK
6
CONTINUOUS
10
0.677286
20
0.181852
11
0.677433
21
0.181767
0
LINE
8
BLACK
6
CONTINUOUS
10
0.746527
20
0.180842
11
0.747218
21
0.178944
0
LINE
8
BLACK
6
CONTINUOUS
10
0.747218
20
0.178944
11
0.747218
21
0.151302
0
LINE
8
BLACK
6
CONTINUOUS
10
0.747218
20
0.151302
11
0.748721
21
0.146793
0
LINE
8
BLACK
6
CONTINUOUS
10
0.748721
20
0.146793
11
0.751484
21
0.14403
0
LINE
8
BLACK
6
CONTINUOUS
10
0.751484
20
0.14403
11
0.755993
21
0.142527
0
LINE
8
BLACK
6
CONTINUOUS
10
0.755993
20
0.142527
11
0.759263
21
0.142527
0
LINE
8
BLACK
6
CONTINUOUS
10
0.759263
20
0.142527
11
0.760273
21
0.142349
0
LINE
8
BLACK
6
CONTINUOUS
10
0.760273
20
0.142349
11
0.76182
21
0.14105
0
LINE
8
BLACK
6
CONTINUOUS
10
0.76182
20
0.14105
11
0.762171
21
0.139061
0
LINE
8
BLACK
6
CONTINUOUS
10
0.762171
20
0.139061
11
0.761161
21
0.137312
0
LINE
8
BLACK
6
CONTINUOUS
10
0.761161
20
0.137312
11
0.759263
21
0.136621
0
LINE
8
BLACK
6
CONTINUOUS
10
0.759263
20
0.136621
11
0.755514
21
0.136621
0
LINE
8
BLACK
6
CONTINUOUS
10
0.755514
20
0.136621
11
0.754644
21
0.136775
0
LINE
8
BLACK
6
CONTINUOUS
10
0.754644
20
0.136775
11
0.75458
21
0.136773
0
LINE
8
BLACK
6
CONTINUOUS
10
0.75458
20
0.136773
11
0.748956
21
0.138648
0
LINE
8
BLACK
6
CONTINUOUS
10
0.748956
20
0.138648
11
0.748054
21
0.139136
0
LINE
8
BLACK
6
CONTINUOUS
10
0.748054
20
0.139136
11
0.747961
21
0.139286
0
LINE
8
BLACK
6
CONTINUOUS
10
0.747961
20
0.139286
11
0.747801
21
0.139361
0
LINE
8
BLACK
6
CONTINUOUS
10
0.747801
20
0.139361
11
0.744052
21
0.14311
0
LINE
8
BLACK
6
CONTINUOUS
10
0.744052
20
0.14311
11
0.743464
21
0.143951
0
LINE
8
BLACK
6
CONTINUOUS
10
0.743464
20
0.143951
11
0.743448
21
0.144126
0
LINE
8
BLACK
6
CONTINUOUS
10
0.743448
20
0.144126
11
0.743339
21
0.144265
0
LINE
8
BLACK
6
CONTINUOUS
10
0.743339
20
0.144265
11
0.741464
21
0.149889
0
LINE
8
BLACK
6
CONTINUOUS
10
0.741464
20
0.149889
11
0.741334
21
0.150762
0
LINE
8
BLACK
6
CONTINUOUS
10
0.741334
20
0.150762
11
0.741312
21
0.150823
0
LINE
8
BLACK
6
CONTINUOUS
10
0.741312
20
0.150823
11
0.741312
21
0.178944
0
LINE
8
BLACK
6
CONTINUOUS
10
0.741312
20
0.178944
11
0.74149
21
0.179954
0
LINE
8
BLACK
6
CONTINUOUS
10
0.74149
20
0.179954
11
0.742789
21
0.181501
0
LINE
8
BLACK
6
CONTINUOUS
10
0.742789
20
0.181501
11
0.744778
21
0.181852
0
LINE
8
BLACK
6
CONTINUOUS
10
0.744778
20
0.181852
11
0.746527
21
0.180842
0
LINE
8
BLACK
6
CONTINUOUS
10
0.725901
20
0.181829
11
0.72603
21
0.181852
0
LINE
8
BLACK
6
CONTINUOUS
10
0.72603
20
0.181852
11
0.726144
21
0.181786
0
LINE
8
BLACK
6
CONTINUOUS
10
0.726144
20
0.181786
11
0.726527
21
0.181719
0
LINE
8
BLACK
6
CONTINUOUS
10
0.726527
20
0.181719
11
0.727115
21
0.181226
0
LINE
8
BLACK
6
CONTINUOUS
10
0.727115
20
0.181226
11
0.727779
21
0.180842
0
LINE
8
BLACK
6
CONTINUOUS
10
0.727779
20
0.180842
11
0.72787
21
0.180592
0
LINE
8
BLACK
6
CONTINUOUS
10
0.72787
20
0.180592
11
0.728075
21
0.180421
0
LINE
8
BLACK
6
CONTINUOUS
10
0.728075
20
0.180421
11
0.728208
21
0.179665
0
LINE
8
BLACK
6
CONTINUOUS
10
0.728208
20
0.179665
11
0.72847
21
0.178944
0
LINE
8
BLACK
6
CONTINUOUS
10
0.72847
20
0.178944
11
0.72847
21
0.139574
0
LINE
8
BLACK
6
CONTINUOUS
10
0.72847
20
0.139574
11
0.728292
21
0.138564
0
LINE
8
BLACK
6
CONTINUOUS
10
0.728292
20
0.138564
11
0.726994
21
0.137017
0
LINE
8
BLACK
6
CONTINUOUS
10
0.726994
20
0.137017
11
0.725005
21
0.136666
0
LINE
8
BLACK
6
CONTINUOUS
10
0.725005
20
0.136666
11
0.723255
21
0.137676
0
LINE
8
BLACK
6
CONTINUOUS
10
0.723255
20
0.137676
11
0.722565
21
0.139574
0
LINE
8
BLACK
6
CONTINUOUS
10
0.722565
20
0.139574
11
0.722565
21
0.155369
0
LINE
8
BLACK
6
CONTINUOUS
10
0.722565
20
0.155369
11
0.710519
21
0.155369
0
LINE
8
BLACK
6
CONTINUOUS
10
0.710519
20
0.155369
11
0.709509
21
0.155547
0
LINE
8
BLACK
6
CONTINUOUS
10
0.709509
20
0.155547
11
0.709374
21
0.155661
0
LINE
8
BLACK
6
CONTINUOUS
10
0.709374
20
0.155661
11
0.709199
21
0.155681
0
LINE
8
BLACK
6
CONTINUOUS
10
0.709199
20
0.155681
11
0.705449
21
0.157555
0
LINE
8
BLACK
6
CONTINUOUS
10
0.705449
20
0.157555
11
0.70474
21
0.158081
0
LINE
8
BLACK
6
CONTINUOUS
10
0.70474
20
0.158081
11
0.704682
21
0.158109
0
LINE
8
BLACK
6
CONTINUOUS
10
0.704682
20
0.158109
11
0.702807
21
0.159983
0
LINE
8
BLACK
6
CONTINUOUS
10
0.702807
20
0.159983
11
0.702301
21
0.160706
0
LINE
8
BLACK
6
CONTINUOUS
10
0.702301
20
0.160706
11
0.702254
21
0.160751
0
LINE
8
BLACK
6
CONTINUOUS
10
0.702254
20
0.160751
11
0.700379
21
0.1645
0
LINE
8
BLACK
6
CONTINUOUS
10
0.700379
20
0.1645
11
0.700087
21
0.165483
0
LINE
8
BLACK
6
CONTINUOUS
10
0.700087
20
0.165483
11
0.700128
21
0.165655
0
LINE
8
BLACK
6
CONTINUOUS
10
0.700128
20
0.165655
11
0.700067
21
0.165821
0
LINE
8
BLACK
6
CONTINUOUS
10
0.700067
20
0.165821
11
0.700067
21
0.171445
0
LINE
8
BLACK
6
CONTINUOUS
10
0.700067
20
0.171445
11
0.700246
21
0.172455
0
LINE
8
BLACK
6
CONTINUOUS
10
0.700246
20
0.172455
11
0.700359
21
0.17259
0
LINE
8
BLACK
6
CONTINUOUS
10
0.700359
20
0.17259
11
0.700379
21
0.172766
0
LINE
8
BLACK
6
CONTINUOUS
10
0.700379
20
0.172766
11
0.702254
21
0.176515
0
LINE
8
BLACK
6
CONTINUOUS
10
0.702254
20
0.176515
11
0.70278
21
0.177224
0
LINE
8
BLACK
6
CONTINUOUS
10
0.70278
20
0.177224
11
0.702807
21
0.177283
0
LINE
8
BLACK
6
CONTINUOUS
10
0.702807
20
0.177283
11
0.704682
21
0.179157
0
LINE
8
BLACK
6
CONTINUOUS
10
0.704682
20
0.179157
11
0.705405
21
0.179664
0
LINE
8
BLACK
6
CONTINUOUS
10
0.705405
20
0.179664
11
0.705449
21
0.17971
0
LINE
8
BLACK
6
CONTINUOUS
10
0.705449
20
0.17971
11
0.709199
21
0.181585
0
LINE
8
BLACK
6
CONTINUOUS
10
0.709199
20
0.181585
11
0.710182
21
0.181878
0
LINE
8
BLACK
6
CONTINUOUS
10
0.710182
20
0.181878
11
0.710353
21
0.181837
0
LINE
8
BLACK
6
CONTINUOUS
10
0.710353
20
0.181837
11
0.710519
21
0.181897
0
LINE
8
BLACK
6
CONTINUOUS
10
0.710519
20
0.181897
11
0.725517
21
0.181897
0
LINE
8
BLACK
6
CONTINUOUS
10
0.725517
20
0.181897
11
0.725901
21
0.181829
0
LINE
8
BLACK
6
CONTINUOUS
10
0.708519
20
0.174643
11
0.707322
21
0.173446
0
LINE
8
BLACK
6
CONTINUOUS
10
0.707322
20
0.173446
11
0.705973
21
0.170748
0
LINE
8
BLACK
6
CONTINUOUS
10
0.705973
20
0.170748
11
0.705973
21
0.166518
0
LINE
8
BLACK
6
CONTINUOUS
10
0.705973
20
0.166518
11
0.707322
21
0.16382
0
LINE
8
BLACK
6
CONTINUOUS
10
0.707322
20
0.16382
11
0.708519
21
0.162623
0
LINE
8
BLACK
6
CONTINUOUS
10
0.708519
20
0.162623
11
0.711216
21
0.161274
0
LINE
8
BLACK
6
CONTINUOUS
10
0.711216
20
0.161274
11
0.722565
21
0.161274
0
LINE
8
BLACK
6
CONTINUOUS
10
0.722565
20
0.161274
11
0.722565
21
0.175991
0
LINE
8
BLACK
6
CONTINUOUS
10
0.722565
20
0.175991
11
0.711216
21
0.175991
0
LINE
8
BLACK
6
CONTINUOUS
10
0.711216
20
0.175991
11
0.708519
21
0.174643
0
LINE
8
BLACK
6
CONTINUOUS
10
0.556749
20
0.20108
11
0.557441
21
0.199409
0
LINE
8
BLACK
6
CONTINUOUS
10
0.557441
20
0.199409
11
0.557441
21
0.165157
0
LINE
8
BLACK
6
CONTINUOUS
10
0.557441
20
0.165157
11
0.612559
21
0.165157
0
LINE
8
BLACK
6
CONTINUOUS
10
0.612559
20
0.165157
11
0.614229
21
0.164466
0
LINE
8
BLACK
6
CONTINUOUS
10
0.614229
20
0.164466
11
0.614921
21
0.162795
0
LINE
8
BLACK
6
CONTINUOUS
10
0.614921
20
0.162795
11
0.614229
21
0.161125
0
LINE
8
BLACK
6
CONTINUOUS
10
0.614229
20
0.161125
11
0.612559
21
0.160433
0
LINE
8
BLACK
6
CONTINUOUS
10
0.612559
20
0.160433
11
0.555079
21
0.160433
0
LINE
8
BLACK
6
CONTINUOUS
10
0.555079
20
0.160433
11
0.553408
21
0.161125
0
LINE
8
BLACK
6
CONTINUOUS
10
0.553408
20
0.161125
11
0.552717
21
0.162795
0
LINE
8
BLACK
6
CONTINUOUS
10
0.552717
20
0.162795
11
0.552717
21
0.199409
0
LINE
8
BLACK
6
CONTINUOUS
10
0.552717
20
0.199409
11
0.553408
21
0.20108
0
LINE
8
BLACK
6
CONTINUOUS
10
0.553408
20
0.20108
11
0.555079
21
0.201772
0
LINE
8
BLACK
6
CONTINUOUS
10
0.555079
20
0.201772
11
0.556749
21
0.20108
0
LINE
8
BLACK
6
CONTINUOUS
10
1.08868
20
0.322536
11
1.08937
21
0.320866
0
LINE
8
BLACK
6
CONTINUOUS
10
1.08937
20
0.320866
11
1.08937
21
0.252362
0
LINE
8
BLACK
6
CONTINUOUS
10
1.08937
20
0.252362
11
1.08868
21
0.250692
0
LINE
8
BLACK
6
CONTINUOUS
10
1.08868
20
0.250692
11
1.08701
21
0.25
0
LINE
8
BLACK
6
CONTINUOUS
10
1.08701
20
0.25
11
1.08534
21
0.250692
0
LINE
8
BLACK
6
CONTINUOUS
10
1.08534
20
0.250692
11
1.08465
21
0.252362
0
LINE
8
BLACK
6
CONTINUOUS
10
1.08465
20
0.252362
11
1.08465
21
0.320866
0
LINE
8
BLACK
6
CONTINUOUS
10
1.08465
20
0.320866
11
1.08534
21
0.322536
0
LINE
8
BLACK
6
CONTINUOUS
10
1.08534
20
0.322536
11
1.08701
21
0.323228
0
LINE
8
BLACK
6
CONTINUOUS
10
1.08701
20
0.323228
11
1.08868
21
0.322536
0
LINE
8
BLACK
6
CONTINUOUS
10
0.977655
20
0.322536
11
0.978346
21
0.320866
0
LINE
8
BLACK
6
CONTINUOUS
10
0.978346
20
0.320866
11
0.978346
21
0.269685
0
LINE
8
BLACK
6
CONTINUOUS
10
0.978346
20
0.269685
11
0.977655
21
0.268015
0
LINE
8
BLACK
6
CONTINUOUS
10
0.977655
20
0.268015
11
0.975984
21
0.267323
0
LINE
8
BLACK
6
CONTINUOUS
10
0.975984
20
0.267323
11
0.974314
21
0.268015
0
LINE
8
BLACK
6
CONTINUOUS
10
0.974314
20
0.268015
11
0.973622
21
0.269685
0
LINE
8
BLACK
6
CONTINUOUS
10
0.973622
20
0.269685
11
0.973622
21
0.320866
0
LINE
8
BLACK
6
CONTINUOUS
10
0.973622
20
0.320866
11
0.974314
21
0.322536
0
LINE
8
BLACK
6
CONTINUOUS
10
0.974314
20
0.322536
11
0.975984
21
0.323228
0
LINE
8
BLACK
6
CONTINUOUS
10
0.975984
20
0.323228
11
0.977655
21
0.322536
0
LINE
8
BLACK
6
CONTINUOUS
10
1.11024
20
0.376378
11
1.11191
21
0.375686
0
LINE
8
BLACK
6
CONTINUOUS
10
1.11191
20
0.375686
11
1.1126
21
0.374016
0
LINE
8
BLACK
6
CONTINUOUS
10
1.1126
20
0.374016
11
1.1126
21
0.216535
0
LINE
8
BLACK
6
CONTINUOUS
10
1.1126
20
0.216535
11
1.11191
21
0.214865
0
LINE
8
BLACK
6
CONTINUOUS
10
1.11191
20
0.214865
11
1.11024
21
0.214173
0
LINE
8
BLACK
6
CONTINUOUS
10
1.11024
20
0.214173
11
0.952756
21
0.214173
0
LINE
8
BLACK
6
CONTINUOUS
10
0.952756
20
0.214173
11
0.951086
21
0.214865
0
LINE
8
BLACK
6
CONTINUOUS
10
0.951086
20
0.214865
11
0.950394
21
0.216535
0
LINE
8
BLACK
6
CONTINUOUS
10
0.950394
20
0.216535
11
0.950394
21
0.374016
0
LINE
8
BLACK
6
CONTINUOUS
10
0.950394
20
0.374016
11
0.951086
21
0.375686
0
LINE
8
BLACK
6
CONTINUOUS
10
0.951086
20
0.375686
11
0.952756
21
0.376378
0
LINE
8
BLACK
6
CONTINUOUS
10
0.952756
20
0.376378
11
1.11024
21
0.376378
0
LINE
8
BLACK
6
CONTINUOUS
10
0.955118
20
0.371654
11
0.955118
21
0.218898
0
LINE
8
BLACK
6
CONTINUOUS
10
0.955118
20
0.218898
11
1.10787
21
0.218898
0
LINE
8
BLACK
6
CONTINUOUS
10
1.10787
20
0.218898
11
1.10787
21
0.371654
0
LINE
8
BLACK
6
CONTINUOUS
10
1.10787
20
0.371654
11
0.955118
21
0.371654
0
LINE
8
BLACK
6
CONTINUOUS
10
1.05226
20
0.421931
11
1.06583
21
0.418944
0
LINE
8
BLACK
6
CONTINUOUS
10
1.06583
20
0.418944
11
1.07532
21
0.415748
0
LINE
8
BLACK
6
CONTINUOUS
10
1.07532
20
0.415748
11
1.14961
21
0.415748
0
LINE
8
BLACK
6
CONTINUOUS
10
1.14961
20
0.415748
11
1.15128
21
0.415056
0
LINE
8
BLACK
6
CONTINUOUS
10
1.15128
20
0.415056
11
1.15197
21
0.413386
0
LINE
8
BLACK
6
CONTINUOUS
10
1.15197
20
0.413386
11
1.15197
21
0.339157
0
LINE
8
BLACK
6
CONTINUOUS
10
1.15197
20
0.339157
11
1.15312
21
0.336257
0
LINE
8
BLACK
6
CONTINUOUS
10
1.15312
20
0.336257
11
1.15684
21
0.322866
0
LINE
8
BLACK
6
CONTINUOUS
10
1.15684
20
0.322866
11
1.15909
21
0.309152
0
LINE
8
BLACK
6
CONTINUOUS
10
1.15909
20
0.309152
11
1.15984
21
0.295276
0
LINE
8
BLACK
6
CONTINUOUS
10
1.15984
20
0.295276
11
1.15909
21
0.281399
0
LINE
8
BLACK
6
CONTINUOUS
10
1.15909
20
0.281399
11
1.15684
21
0.267685
0
LINE
8
BLACK
6
CONTINUOUS
10
1.15684
20
0.267685
11
1.15312
21
0.254294
0
LINE
8
BLACK
6
CONTINUOUS
10
1.15312
20
0.254294
11
1.15197
21
0.251394
0
LINE
8
BLACK
6
CONTINUOUS
10
1.15197
20
0.251394
11
1.15197
21
0.177165
0
LINE
8
BLACK
6
CONTINUOUS
10
1.15197
20
0.177165
11
1.15128
21
0.175495
0
LINE
8
BLACK
6
CONTINUOUS
10
1.15128
20
0.175495
11
1.14961
21
0.174803
0
LINE
8
BLACK
6
CONTINUOUS
10
1.14961
20
0.174803
11
1.07532
21
0.174803
0
LINE
8
BLACK
6
CONTINUOUS
10
1.07532
20
0.174803
11
1.06583
21
0.171607
0
LINE
8
BLACK
6
CONTINUOUS
10
1.06583
20
0.171607
11
1.05226
21
0.16862
0
LINE
8
BLACK
6
CONTINUOUS
10
1.05226
20
0.16862
11
1.03844
21
0.167117
0
LINE
8
BLACK
6
CONTINUOUS
10
1.03844
20
0.167117
11
1.02455
21
0.167117
0
LINE
8
BLACK
6
CONTINUOUS
10
1.02455
20
0.167117
11
1.01073
21
0.16862
0
LINE
8
BLACK
6
CONTINUOUS
10
1.01073
20
0.16862
11
0.99716
21
0.171607
0
LINE
8
BLACK
6
CONTINUOUS
10
0.99716
20
0.171607
11
0.987675
21
0.174803
0
LINE
8
BLACK
6
CONTINUOUS
10
0.987675
20
0.174803
11
0.913386
21
0.174803
0
LINE
8
BLACK
6
CONTINUOUS
10
0.913386
20
0.174803
11
0.911716
21
0.175495
0
LINE
8
BLACK
6
CONTINUOUS
10
0.911716
20
0.175495
11
0.911024
21
0.177165
0
LINE
8
BLACK
6
CONTINUOUS
10
0.911024
20
0.177165
11
0.911024
21
0.251394
0
LINE
8
BLACK
6
CONTINUOUS
10
0.911024
20
0.251394
11
0.909868
21
0.254294
0
LINE
8
BLACK
6
CONTINUOUS
10
0.909868
20
0.254294
11
0.90615
21
0.267685
0
LINE
8
BLACK
6
CONTINUOUS
10
0.90615
20
0.267685
11
0.903902
21
0.281399
0
LINE
8
BLACK
6
CONTINUOUS
10
0.903902
20
0.281399
11
0.90315
21
0.295276
0
LINE
8
BLACK
6
CONTINUOUS
10
0.90315
20
0.295276
11
0.903902
21
0.309152
0
LINE
8
BLACK
6
CONTINUOUS
10
0.903902
20
0.309152
11
0.90615
21
0.322866
0
LINE
8
BLACK
6
CONTINUOUS
10
0.90615
20
0.322866
11
0.909868
21
0.336257
0
LINE
8
BLACK
6
CONTINUOUS
10
0.909868
20
0.336257
11
0.911024
21
0.339157
0
LINE
8
BLACK
6
CONTINUOUS
10
0.911024
20
0.339157
11
0.911024
21
0.413386
0
LINE
8
BLACK
6
CONTINUOUS
10
0.911024
20
0.413386
11
0.911716
21
0.415056
0
LINE
8
BLACK
6
CONTINUOUS
10
0.911716
20
0.415056
11
0.913386
21
0.415748
0
LINE
8
BLACK
6
CONTINUOUS
10
0.913386
20
0.415748
11
0.987675
21
0.415748
0
LINE
8
BLACK
6
CONTINUOUS
10
0.987675
20
0.415748
11
0.99716
21
0.418944
0
LINE
8
BLACK
6
CONTINUOUS
10
0.99716
20
0.418944
11
1.01073
21
0.421931
0
LINE
8
BLACK
6
CONTINUOUS
10
1.01073
20
0.421931
11
1.02455
21
0.423434
0
LINE
8
BLACK
6
CONTINUOUS
10
1.02455
20
0.423434
11
1.03844
21
0.423434
0
LINE
8
BLACK
6
CONTINUOUS
10
1.03844
20
0.423434
11
1.05226
21
0.421931
0
LINE
8
BLACK
6
CONTINUOUS
10
1.00311
20
0.174803
11
1.00394
21
0.174563
0
LINE
8
BLACK
6
CONTINUOUS
10
1.00394
20
0.174563
11
1.01763
21
0.172237
0
LINE
8
BLACK
6
CONTINUOUS
10
1.01763
20
0.172237
11
1.0315
21
0.171459
0
LINE
8
BLACK
6
CONTINUOUS
10
1.0315
20
0.171459
11
1.04536
21
0.172237
0
LINE
8
BLACK
6
CONTINUOUS
10
1.04536
20
0.172237
11
1.05905
21
0.174563
0
LINE
8
BLACK
6
CONTINUOUS
10
1.05905
20
0.174563
11
1.05988
21
0.174803
0
LINE
8
BLACK
6
CONTINUOUS
10
1.05988
20
0.174803
11
1.00311
21
0.174803
0
LINE
8
BLACK
6
CONTINUOUS
10
0.915748
20
0.179528
11
0.976462
21
0.179528
0
LINE
8
BLACK
6
CONTINUOUS
10
0.976462
20
0.179528
11
0.971377
21
0.18188
0
LINE
8
BLACK
6
CONTINUOUS
10
0.971377
20
0.18188
11
0.95947
21
0.189045
0
LINE
8
BLACK
6
CONTINUOUS
10
0.95947
20
0.189045
11
0.948406
21
0.197455
0
LINE
8
BLACK
6
CONTINUOUS
10
0.948406
20
0.197455
11
0.938317
21
0.207012
0
LINE
8
BLACK
6
CONTINUOUS
10
0.938317
20
0.207012
11
0.92932
21
0.217604
0
LINE
8
BLACK
6
CONTINUOUS
10
0.92932
20
0.217604
11
0.921521
21
0.229106
0
LINE
8
BLACK
6
CONTINUOUS
10
0.921521
20
0.229106
11
0.915748
21
0.239996
0
LINE
8
BLACK
6
CONTINUOUS
10
0.915748
20
0.239996
11
0.915748
21
0.179528
0
LINE
8
BLACK
6
CONTINUOUS
10
0.987897
20
0.411024
11
0.977774
21
0.406831
0
LINE
8
BLACK
6
CONTINUOUS
10
0.977774
20
0.406831
11
0.965622
21
0.400114
0
LINE
8
BLACK
6
CONTINUOUS
10
0.965622
20
0.400114
11
0.954298
21
0.392079
0
LINE
8
BLACK
6
CONTINUOUS
10
0.954298
20
0.392079
11
0.943944
21
0.382827
0
LINE
8
BLACK
6
CONTINUOUS
10
0.943944
20
0.382827
11
0.934692
21
0.372474
0
LINE
8
BLACK
6
CONTINUOUS
10
0.934692
20
0.372474
11
0.926657
21
0.36115
0
LINE
8
BLACK
6
CONTINUOUS
10
0.926657
20
0.36115
11
0.919941
21
0.348998
0
LINE
8
BLACK
6
CONTINUOUS
10
0.919941
20
0.348998
11
0.915748
21
0.338875
0
LINE
8
BLACK
6
CONTINUOUS
10
0.915748
20
0.338875
11
0.915748
21
0.251676
0
LINE
8
BLACK
6
CONTINUOUS
10
0.915748
20
0.251676
11
0.919941
21
0.241553
0
LINE
8
BLACK
6
CONTINUOUS
10
0.919941
20
0.241553
11
0.926657
21
0.229401
0
LINE
8
BLACK
6
CONTINUOUS
10
0.926657
20
0.229401
11
0.934692
21
0.218077
0
LINE
8
BLACK
6
CONTINUOUS
10
0.934692
20
0.218077
11
0.943944
21
0.207724
0
LINE
8
BLACK
6
CONTINUOUS
10
0.943944
20
0.207724
11
0.954298
21
0.198472
0
LINE
8
BLACK
6
CONTINUOUS
10
0.954298
20
0.198472
11
0.965622
21
0.190437
0
LINE
8
BLACK
6
CONTINUOUS
10
0.965622
20
0.190437
11
0.977774
21
0.18372
0
LINE
8
BLACK
6
CONTINUOUS
10
0.977774
20
0.18372
11
0.987897
21
0.179528
0
LINE
8
BLACK
6
CONTINUOUS
10
0.987897
20
0.179528
11
1.0751
21
0.179528
0
LINE
8
BLACK
6
CONTINUOUS
10
1.0751
20
0.179528
11
1.08522
21
0.18372
0
LINE
8
BLACK
6
CONTINUOUS
10
1.08522
20
0.18372
11
1.09737
21
0.190437
0
LINE
8
BLACK
6
CONTINUOUS
10
1.09737
20
0.190437
11
1.10869
21
0.198472
0
LINE
8
BLACK
6
CONTINUOUS
10
1.10869
20
0.198472
11
1.11905
21
0.207724
0
LINE
8
BLACK
6
CONTINUOUS
10
1.11905
20
0.207724
11
1.1283
21
0.218077
0
LINE
8
BLACK
6
CONTINUOUS
10
1.1283
20
0.218077
11
1.13633
21
0.229401
0
LINE
8
BLACK
6
CONTINUOUS
10
1.13633
20
0.229401
11
1.14305
21
0.241553
0
LINE
8
BLACK
6
CONTINUOUS
10
1.14305
20
0.241553
11
1.14724
21
0.251676
0
LINE
8
BLACK
6
CONTINUOUS
10
1.14724
20
0.251676
11
1.14724
21
0.338875
0
LINE
8
BLACK
6
CONTINUOUS
10
1.14724
20
0.338875
11
1.14305
21
0.348998
0
LINE
8
BLACK
6
CONTINUOUS
10
1.14305
20
0.348998
11
1.13633
21
0.36115
0
LINE
8
BLACK
6
CONTINUOUS
10
1.13633
20
0.36115
11
1.1283
21
0.372474
0
LINE
8
BLACK
6
CONTINUOUS
10
1.1283
20
0.372474
11
1.11905
21
0.382827
0
LINE
8
BLACK
6
CONTINUOUS
10
1.11905
20
0.382827
11
1.10869
21
0.392079
0
LINE
8
BLACK
6
CONTINUOUS
10
1.10869
20
0.392079
11
1.09737
21
0.400114
0
LINE
8
BLACK
6
CONTINUOUS
10
1.09737
20
0.400114
11
1.08522
21
0.406831
0
LINE
8
BLACK
6
CONTINUOUS
10
1.08522
20
0.406831
11
1.0751
21
0.411024
0
LINE
8
BLACK
6
CONTINUOUS
10
1.0751
20
0.411024
11
0.987897
21
0.411024
0
LINE
8
BLACK
6
CONTINUOUS
10
1.14147
20
0.229106
11
1.13367
21
0.217604
0
LINE
8
BLACK
6
CONTINUOUS
10
1.13367
20
0.217604
11
1.12467
21
0.207012
0
LINE
8
BLACK
6
CONTINUOUS
10
1.12467
20
0.207012
11
1.11459
21
0.197455
0
LINE
8
BLACK
6
CONTINUOUS
10
1.11459
20
0.197455
11
1.10352
21
0.189045
0
LINE
8
BLACK
6
CONTINUOUS
10
1.10352
20
0.189045
11
1.09161
21
0.18188
0
LINE
8
BLACK
6
CONTINUOUS
10
1.09161
20
0.18188
11
1.08653
21
0.179528
0
LINE
8
BLACK
6
CONTINUOUS
10
1.08653
20
0.179528
11
1.14724
21
0.179528
0
LINE
8
BLACK
6
CONTINUOUS
10
1.14724
20
0.179528
11
1.14724
21
0.239996
0
LINE
8
BLACK
6
CONTINUOUS
10
1.14724
20
0.239996
11
1.14147
21
0.229106
0
LINE
8
BLACK
6
CONTINUOUS
10
1.15197
20
0.26689
11
1.15221
21
0.267724
0
LINE
8
BLACK
6
CONTINUOUS
10
1.15221
20
0.267724
11
1.15453
21
0.281413
0
LINE
8
BLACK
6
CONTINUOUS
10
1.15453
20
0.281413
11
1.15531
21
0.295276
0
LINE
8
BLACK
6
CONTINUOUS
10
1.15531
20
0.295276
11
1.15453
21
0.309139
0
LINE
8
BLACK
6
CONTINUOUS
10
1.15453
20
0.309139
11
1.15221
21
0.322827
0
LINE
8
BLACK
6
CONTINUOUS
10
1.15221
20
0.322827
11
1.15197
21
0.323661
0
LINE
8
BLACK
6
CONTINUOUS
10
1.15197
20
0.323661
11
1.15197
21
0.26689
0
LINE
8
BLACK
6
CONTINUOUS
10
0.915748
20
0.411024
11
0.915748
21
0.350555
0
LINE
8
BLACK
6
CONTINUOUS
10
0.915748
20
0.350555
11
0.921521
21
0.361445
0
LINE
8
BLACK
6
CONTINUOUS
10
0.921521
20
0.361445
11
0.92932
21
0.372948
0
LINE
8
BLACK
6
CONTINUOUS
10
0.92932
20
0.372948
11
0.938317
21
0.383539
0
LINE
8
BLACK
6
CONTINUOUS
10
0.938317
20
0.383539
11
0.948406
21
0.393096
0
LINE
8
BLACK
6
CONTINUOUS
10
0.948406
20
0.393096
11
0.95947
21
0.401507
0
LINE
8
BLACK
6
CONTINUOUS
10
0.95947
20
0.401507
11
0.971377
21
0.408671
0
LINE
8
BLACK
6
CONTINUOUS
10
0.971377
20
0.408671
11
0.976462
21
0.411024
0
LINE
8
BLACK
6
CONTINUOUS
10
0.976462
20
0.411024
11
0.915748
21
0.411024
0
LINE
8
BLACK
6
CONTINUOUS
10
1.08653
20
0.411024
11
1.09161
21
0.408671
0
LINE
8
BLACK
6
CONTINUOUS
10
1.09161
20
0.408671
11
1.10352
21
0.401507
0
LINE
8
BLACK
6
CONTINUOUS
10
1.10352
20
0.401507
11
1.11459
21
0.393096
0
LINE
8
BLACK
6
CONTINUOUS
10
1.11459
20
0.393096
11
1.12467
21
0.383539
0
LINE
8
BLACK
6
CONTINUOUS
10
1.12467
20
0.383539
11
1.13367
21
0.372948
0
LINE
8
BLACK
6
CONTINUOUS
10
1.13367
20
0.372948
11
1.14147
21
0.361445
0
LINE
8
BLACK
6
CONTINUOUS
10
1.14147
20
0.361445
11
1.14724
21
0.350555
0
LINE
8
BLACK
6
CONTINUOUS
10
1.14724
20
0.350555
11
1.14724
21
0.411024
0
LINE
8
BLACK
6
CONTINUOUS
10
1.14724
20
0.411024
11
1.08653
21
0.411024
0
LINE
8
BLACK
6
CONTINUOUS
10
1.01763
20
0.418314
11
1.00394
21
0.415988
0
LINE
8
BLACK
6
CONTINUOUS
10
1.00394
20
0.415988
11
1.00311
21
0.415748
0
LINE
8
BLACK
6
CONTINUOUS
10
1.00311
20
0.415748
11
1.05988
21
0.415748
0
LINE
8
BLACK
6
CONTINUOUS
10
1.05988
20
0.415748
11
1.05905
21
0.415988
0
LINE
8
BLACK
6
CONTINUOUS
10
1.05905
20
0.415988
11
1.04536
21
0.418314
0
LINE
8
BLACK
6
CONTINUOUS
10
1.04536
20
0.418314
11
1.0315
21
0.419092
0
LINE
8
BLACK
6
CONTINUOUS
10
1.0315
20
0.419092
11
1.01763
21
0.418314
0
LINE
8
BLACK
6
CONTINUOUS
10
0.908458
20
0.281413
11
0.910784
21
0.267724
0
LINE
8
BLACK
6
CONTINUOUS
10
0.910784
20
0.267724
11
0.911024
21
0.26689
0
LINE
8
BLACK
6
CONTINUOUS
10
0.911024
20
0.26689
11
0.911024
21
0.323661
0
LINE
8
BLACK
6
CONTINUOUS
10
0.911024
20
0.323661
11
0.910784
21
0.322827
0
LINE
8
BLACK
6
CONTINUOUS
10
0.910784
20
0.322827
11
0.908458
21
0.309139
0
LINE
8
BLACK
6
CONTINUOUS
10
0.908458
20
0.309139
11
0.907679
21
0.295276
0
LINE
8
BLACK
6
CONTINUOUS
10
0.907679
20
0.295276
11
0.908458
21
0.281413
0
LINE
8
BLACK
6
CONTINUOUS
10
0.0188829
20
0.413678
11
0.0195748
21
0.412008
0
LINE
8
BLACK
6
CONTINUOUS
10
0.0195748
20
0.412008
11
0.0195748
21
0.178543
0
LINE
8
BLACK
6
CONTINUOUS
10
0.0195748
20
0.178543
11
0.0188829
21
0.176873
0
LINE
8
BLACK
6
CONTINUOUS
10
0.0188829
20
0.176873
11
0.0172126
21
0.176181
0
LINE
8
BLACK
6
CONTINUOUS
10
0.0172126
20
0.176181
11
0.0155423
21
0.176873
0
LINE
8
BLACK
6
CONTINUOUS
10
0.0155423
20
0.176873
11
0.0148504
21
0.178543
0
LINE
8
BLACK
6
CONTINUOUS
10
0.0148504
20
0.178543
11
0.0148504
21
0.412008
0
LINE
8
BLACK
6
CONTINUOUS
10
0.0148504
20
0.412008
11
0.0155423
21
0.413678
0
LINE
8
BLACK
6
CONTINUOUS
10
0.0155423
20
0.413678
11
0.0172126
21
0.41437
0
LINE
8
BLACK
6
CONTINUOUS
10
0.0172126
20
0.41437
11
0.0188829
21
0.413678
0
LINE
8
BLACK
6
CONTINUOUS
10
0.420056
20
0.277103
11
0.420748
21
0.275433
0
LINE
8
BLACK
6
CONTINUOUS
10
0.420748
20
0.275433
11
0.420748
21
0.178976
0
LINE
8
BLACK
6
CONTINUOUS
10
0.420748
20
0.178976
11
0.420056
21
0.177306
0
LINE
8
BLACK
6
CONTINUOUS
10
0.420056
20
0.177306
11
0.418386
21
0.176614
0
LINE
8
BLACK
6
CONTINUOUS
10
0.418386
20
0.176614
11
0.416716
21
0.177306
0
LINE
8
BLACK
6
CONTINUOUS
10
0.416716
20
0.177306
11
0.416024
21
0.178976
0
LINE
8
BLACK
6
CONTINUOUS
10
0.416024
20
0.178976
11
0.416024
21
0.275433
0
LINE
8
BLACK
6
CONTINUOUS
10
0.416024
20
0.275433
11
0.416716
21
0.277103
0
LINE
8
BLACK
6
CONTINUOUS
10
0.416716
20
0.277103
11
0.418386
21
0.277795
0
LINE
8
BLACK
6
CONTINUOUS
10
0.418386
20
0.277795
11
0.420056
21
0.277103
0
LINE
8
BLACK
6
CONTINUOUS
10
0.732075
20
0.191592
11
0.732767
21
0.189921
0
LINE
8
BLACK
6
CONTINUOUS
10
0.732767
20
0.189921
11
0.732075
21
0.188251
0
LINE
8
BLACK
6
CONTINUOUS
10
0.732075
20
0.188251
11
0.730405
21
0.187559
0
LINE
8
BLACK
6
CONTINUOUS
10
0.730405
20
0.187559
11
0.717587
21
0.187559
0
LINE
8
BLACK
6
CONTINUOUS
10
0.717587
20
0.187559
11
0.715917
21
0.188251
0
LINE
8
BLACK
6
CONTINUOUS
10
0.715917
20
0.188251
11
0.715225
21
0.189921
0
LINE
8
BLACK
6
CONTINUOUS
10
0.715225
20
0.189921
11
0.715917
21
0.191592
0
LINE
8
BLACK
6
CONTINUOUS
10
0.715917
20
0.191592
11
0.717587
21
0.192283
0
LINE
8
BLACK
6
CONTINUOUS
10
0.717587
20
0.192283
11
0.730405
21
0.192283
0
LINE
8
BLACK
6
CONTINUOUS
10
0.730405
20
0.192283
11
0.732075
21
0.191592
0
LINE
8
BLACK
6
CONTINUOUS
10
0.293284
20
0.277103
11
0.293976
21
0.275433
0
LINE
8
BLACK
6
CONTINUOUS
10
0.293976
20
0.275433
11
0.293976
21
0.204567
0
LINE
8
BLACK
6
CONTINUOUS
10
0.293976
20
0.204567
11
0.293284
21
0.202897
0
LINE
8
BLACK
6
CONTINUOUS
10
0.293284
20
0.202897
11
0.291614
21
0.202205
0
LINE
8
BLACK
6
CONTINUOUS
10
0.291614
20
0.202205
11
0.289944
21
0.202897
0
LINE
8
BLACK
6
CONTINUOUS
10
0.289944
20
0.202897
11
0.289252
21
0.204567
0
LINE
8
BLACK
6
CONTINUOUS
10
0.289252
20
0.204567
11
0.289252
21
0.275433
0
LINE
8
BLACK
6
CONTINUOUS
10
0.289252
20
0.275433
11
0.289944
21
0.277103
0
LINE
8
BLACK
6
CONTINUOUS
10
0.289944
20
0.277103
11
0.291614
21
0.277795
0
LINE
8
BLACK
6
CONTINUOUS
10
0.291614
20
0.277795
11
0.293284
21
0.277103
0
LINE
8
BLACK
6
CONTINUOUS
10
0.446592
20
0.219083
11
0.447283
21
0.217413
0
LINE
8
BLACK
6
CONTINUOUS
10
0.447283
20
0.217413
11
0.447283
21
0.204595
0
LINE
8
BLACK
6
CONTINUOUS
10
0.447283
20
0.204595
11
0.446592
21
0.202925
0
LINE
8
BLACK
6
CONTINUOUS
10
0.446592
20
0.202925
11
0.444921
21
0.202233
0
LINE
8
BLACK
6
CONTINUOUS
10
0.444921
20
0.202233
11
0.443251
21
0.202925
0
LINE
8
BLACK
6
CONTINUOUS
10
0.443251
20
0.202925
11
0.442559
21
0.204595
0
LINE
8
BLACK
6
CONTINUOUS
10
0.442559
20
0.204595
11
0.442559
21
0.217413
0
LINE
8
BLACK
6
CONTINUOUS
10
0.442559
20
0.217413
11
0.443251
21
0.219083
0
LINE
8
BLACK
6
CONTINUOUS
10
0.443251
20
0.219083
11
0.444921
21
0.219775
0
LINE
8
BLACK
6
CONTINUOUS
10
0.444921
20
0.219775
11
0.446592
21
0.219083
0
LINE
8
BLACK
6
CONTINUOUS
10
0.486749
20
0.219083
11
0.487441
21
0.217413
0
LINE
8
BLACK
6
CONTINUOUS
10
0.487441
20
0.217413
11
0.487441
21
0.204595
0
LINE
8
BLACK
6
CONTINUOUS
10
0.487441
20
0.204595
11
0.486749
21
0.202925
0
LINE
8
BLACK
6
CONTINUOUS
10
0.486749
20
0.202925
11
0.485079
21
0.202233
0
LINE
8
BLACK
6
CONTINUOUS
10
0.485079
20
0.202233
11
0.483408
21
0.202925
0
LINE
8
BLACK
6
CONTINUOUS
10
0.483408
20
0.202925
11
0.482717
21
0.204595
0
LINE
8
BLACK
6
CONTINUOUS
10
0.482717
20
0.204595
11
0.482717
21
0.217413
0
LINE
8
BLACK
6
CONTINUOUS
10
0.482717
20
0.217413
11
0.483408
21
0.219083
0
LINE
8
BLACK
6
CONTINUOUS
10
0.483408
20
0.219083
11
0.485079
21
0.219775
0
LINE
8
BLACK
6
CONTINUOUS
10
0.485079
20
0.219775
11
0.486749
21
0.219083
0
LINE
8
BLACK
6
CONTINUOUS
10
0.732075
20
0.231749
11
0.732767
21
0.230079
0
LINE
8
BLACK
6
CONTINUOUS
10
0.732767
20
0.230079
11
0.732075
21
0.228408
0
LINE
8
BLACK
6
CONTINUOUS
10
0.732075
20
0.228408
11
0.730405
21
0.227717
0
LINE
8
BLACK
6
CONTINUOUS
10
0.730405
20
0.227717
11
0.717587
21
0.227717
0
LINE
8
BLACK
6
CONTINUOUS
10
0.717587
20
0.227717
11
0.715917
21
0.228408
0
LINE
8
BLACK
6
CONTINUOUS
10
0.715917
20
0.228408
11
0.715225
21
0.230079
0
LINE
8
BLACK
6
CONTINUOUS
10
0.715225
20
0.230079
11
0.715917
21
0.231749
0
LINE
8
BLACK
6
CONTINUOUS
10
0.715917
20
0.231749
11
0.717587
21
0.232441
0
LINE
8
BLACK
6
CONTINUOUS
10
0.717587
20
0.232441
11
0.730405
21
0.232441
0
LINE
8
BLACK
6
CONTINUOUS
10
0.730405
20
0.232441
11
0.732075
21
0.231749
0
LINE
8
BLACK
6
CONTINUOUS
10
0.641788
20
0.288875
11
0.64248
21
0.287205
0
LINE
8
BLACK
6
CONTINUOUS
10
0.64248
20
0.287205
11
0.641788
21
0.285534
0
LINE
8
BLACK
6
CONTINUOUS
10
0.641788
20
0.285534
11
0.640118
21
0.284843
0
LINE
8
BLACK
6
CONTINUOUS
10
0.640118
20
0.284843
11
0.557441
21
0.284843
0
LINE
8
BLACK
6
CONTINUOUS
10
0.557441
20
0.284843
11
0.557441
21
0.250591
0
LINE
8
BLACK
6
CONTINUOUS
10
0.557441
20
0.250591
11
0.556749
21
0.24892
0
LINE
8
BLACK
6
CONTINUOUS
10
0.556749
20
0.24892
11
0.555079
21
0.248228
0
LINE
8
BLACK
6
CONTINUOUS
10
0.555079
20
0.248228
11
0.553408
21
0.24892
0
LINE
8
BLACK
6
CONTINUOUS
10
0.553408
20
0.24892
11
0.552717
21
0.250591
0
LINE
8
BLACK
6
CONTINUOUS
10
0.552717
20
0.250591
11
0.552717
21
0.287205
0
LINE
8
BLACK
6
CONTINUOUS
10
0.552717
20
0.287205
11
0.553408
21
0.288875
0
LINE
8
BLACK
6
CONTINUOUS
10
0.553408
20
0.288875
11
0.555079
21
0.289567
0
LINE
8
BLACK
6
CONTINUOUS
10
0.555079
20
0.289567
11
0.640118
21
0.289567
0
LINE
8
BLACK
6
CONTINUOUS
10
0.640118
20
0.289567
11
0.641788
21
0.288875
0
LINE
8
BLACK
6
CONTINUOUS
10
0.457034
20
0.332538
11
0.458581
21
0.33124
0
LINE
8
BLACK
6
CONTINUOUS
10
0.458581
20
0.33124
11
0.458932
21
0.329251
0
LINE
8
BLACK
6
CONTINUOUS
10
0.458932
20
0.329251
11
0.457922
21
0.327502
0
LINE
8
BLACK
6
CONTINUOUS
10
0.457922
20
0.327502
11
0.456024
21
0.326811
0
LINE
8
BLACK
6
CONTINUOUS
10
0.456024
20
0.326811
11
0.396024
21
0.326811
0
LINE
8
BLACK
6
CONTINUOUS
10
0.396024
20
0.326811
11
0.395014
21
0.326989
0
LINE
8
BLACK
6
CONTINUOUS
10
0.395014
20
0.326989
11
0.393466
21
0.328287
0
LINE
8
BLACK
6
CONTINUOUS
10
0.393466
20
0.328287
11
0.393116
21
0.330277
0
LINE
8
BLACK
6
CONTINUOUS
10
0.393116
20
0.330277
11
0.394126
21
0.332026
0
LINE
8
BLACK
6
CONTINUOUS
10
0.394126
20
0.332026
11
0.396024
21
0.332717
0
LINE
8
BLACK
6
CONTINUOUS
10
0.396024
20
0.332717
11
0.456024
21
0.332717
0
LINE
8
BLACK
6
CONTINUOUS
10
0.456024
20
0.332717
11
0.457034
21
0.332538
0
LINE
8
BLACK
6
CONTINUOUS
10
0.382418
20
0.414072
11
0.38311
21
0.412402
0
LINE
8
BLACK
6
CONTINUOUS
10
0.38311
20
0.412402
11
0.38311
21
0.339567
0
LINE
8
BLACK
6
CONTINUOUS
10
0.38311
20
0.339567
11
0.382418
21
0.337897
0
LINE
8
BLACK
6
CONTINUOUS
10
0.382418
20
0.337897
11
0.380748
21
0.337205
0
LINE
8
BLACK
6
CONTINUOUS
10
0.380748
20
0.337205
11
0.333504
21
0.337205
0
LINE
8
BLACK
6
CONTINUOUS
10
0.333504
20
0.337205
11
0.331834
21
0.337897
0
LINE
8
BLACK
6
CONTINUOUS
10
0.331834
20
0.337897
11
0.331142
21
0.339567
0
LINE
8
BLACK
6
CONTINUOUS
10
0.331142
20
0.339567
11
0.331142
21
0.412402
0
LINE
8
BLACK
6
CONTINUOUS
10
0.331142
20
0.412402
11
0.331834
21
0.414072
0
LINE
8
BLACK
6
CONTINUOUS
10
0.331834
20
0.414072
11
0.333504
21
0.414764
0
LINE
8
BLACK
6
CONTINUOUS
10
0.333504
20
0.414764
11
0.335174
21
0.414072
0
LINE
8
BLACK
6
CONTINUOUS
10
0.335174
20
0.414072
11
0.335866
21
0.412402
0
LINE
8
BLACK
6
CONTINUOUS
10
0.335866
20
0.412402
11
0.335866
21
0.341929
0
LINE
8
BLACK
6
CONTINUOUS
10
0.335866
20
0.341929
11
0.378386
21
0.341929
0
LINE
8
BLACK
6
CONTINUOUS
10
0.378386
20
0.341929
11
0.378386
21
0.412402
0
LINE
8
BLACK
6
CONTINUOUS
10
0.378386
20
0.412402
11
0.379078
21
0.414072
0
LINE
8
BLACK
6
CONTINUOUS
10
0.379078
20
0.414072
11
0.380748
21
0.414764
0
LINE
8
BLACK
6
CONTINUOUS
10
0.380748
20
0.414764
11
0.382418
21
0.414072
0
LINE
8
BLACK
6
CONTINUOUS
10
0.397694
20
0.406434
11
0.398386
21
0.404764
0
LINE
8
BLACK
6
CONTINUOUS
10
0.398386
20
0.404764
11
0.398386
21
0.374764
0
LINE
8
BLACK
6
CONTINUOUS
10
0.398386
20
0.374764
11
0.397694
21
0.373093
0
LINE
8
BLACK
6
CONTINUOUS
10
0.397694
20
0.373093
11
0.396024
21
0.372402
0
LINE
8
BLACK
6
CONTINUOUS
10
0.396024
20
0.372402
11
0.394353
21
0.373093
0
LINE
8
BLACK
6
CONTINUOUS
10
0.394353
20
0.373093
11
0.393661
21
0.374764
0
LINE
8
BLACK
6
CONTINUOUS
10
0.393661
20
0.374764
11
0.393661
21
0.404764
0
LINE
8
BLACK
6
CONTINUOUS
10
0.393661
20
0.404764
11
0.394353
21
0.406434
0
LINE
8
BLACK
6
CONTINUOUS
10
0.394353
20
0.406434
11
0.396024
21
0.407126
0
LINE
8
BLACK
6
CONTINUOUS
10
0.396024
20
0.407126
11
0.397694
21
0.406434
0
LINE
8
BLACK
6
CONTINUOUS
10
0.457694
20
0.406434
11
0.458386
21
0.404764
0
LINE
8
BLACK
6
CONTINUOUS
10
0.458386
20
0.404764
11
0.458386
21
0.374764
0
LINE
8
BLACK
6
CONTINUOUS
10
0.458386
20
0.374764
11
0.457694
21
0.373093
0
LINE
8
BLACK
6
CONTINUOUS
10
0.457694
20
0.373093
11
0.456024
21
0.372402
0
LINE
8
BLACK
6
CONTINUOUS
10
0.456024
20
0.372402
11
0.454353
21
0.373093
0
LINE
8
BLACK
6
CONTINUOUS
10
0.454353
20
0.373093
11
0.453661
21
0.374764
0
LINE
8
BLACK
6
CONTINUOUS
10
0.453661
20
0.374764
11
0.453661
21
0.404764
0
LINE
8
BLACK
6
CONTINUOUS
10
0.453661
20
0.404764
11
0.454353
21
0.406434
0
LINE
8
BLACK
6
CONTINUOUS
10
0.454353
20
0.406434
11
0.456024
21
0.407126
0
LINE
8
BLACK
6
CONTINUOUS
10
0.456024
20
0.407126
11
0.457694
21
0.406434
0
LINE
8
BLACK
6
CONTINUOUS
10
0.489308
20
0.391937
11
0.49
21
0.390267
0
LINE
8
BLACK
6
CONTINUOUS
10
0.49
20
0.390267
11
0.49
21
0.37745
0
LINE
8
BLACK
6
CONTINUOUS
10
0.49
20
0.37745
11
0.489308
21
0.375779
0
LINE
8
BLACK
6
CONTINUOUS
10
0.489308
20
0.375779
11
0.487638
21
0.375087
0
LINE
8
BLACK
6
CONTINUOUS
10
0.487638
20
0.375087
11
0.485967
21
0.375779
0
LINE
8
BLACK
6
CONTINUOUS
10
0.485967
20
0.375779
11
0.485276
21
0.37745
0
LINE
8
BLACK
6
CONTINUOUS
10
0.485276
20
0.37745
11
0.485276
21
0.390267
0
LINE
8
BLACK
6
CONTINUOUS
10
0.485276
20
0.390267
11
0.485967
21
0.391937
0
LINE
8
BLACK
6
CONTINUOUS
10
0.485967
20
0.391937
11
0.487638
21
0.392629
0
LINE
8
BLACK
6
CONTINUOUS
10
0.487638
20
0.392629
11
0.489308
21
0.391937
0
LINE
8
BLACK
6
CONTINUOUS
10
0.529466
20
0.391937
11
0.530157
21
0.390267
0
LINE
8
BLACK
6
CONTINUOUS
10
0.530157
20
0.390267
11
0.530157
21
0.37745
0
LINE
8
BLACK
6
CONTINUOUS
10
0.530157
20
0.37745
11
0.529466
21
0.375779
0
LINE
8
BLACK
6
CONTINUOUS
10
0.529466
20
0.375779
11
0.527795
21
0.375087
0
LINE
8
BLACK
6
CONTINUOUS
10
0.527795
20
0.375087
11
0.526125
21
0.375779
0
LINE
8
BLACK
6
CONTINUOUS
10
0.526125
20
0.375779
11
0.525433
21
0.37745
0
LINE
8
BLACK
6
CONTINUOUS
10
0.525433
20
0.37745
11
0.525433
21
0.390267
0
LINE
8
BLACK
6
CONTINUOUS
10
0.525433
20
0.390267
11
0.526125
21
0.391937
0
LINE
8
BLACK
6
CONTINUOUS
10
0.526125
20
0.391937
11
0.527795
21
0.392629
0
LINE
8
BLACK
6
CONTINUOUS
10
0.527795
20
0.392629
11
0.529466
21
0.391937
0
LINE
8
BLACK
6
CONTINUOUS
10
0.273757
20
0.395874
11
0.274449
21
0.394204
0
LINE
8
BLACK
6
CONTINUOUS
10
0.274449
20
0.394204
11
0.274449
21
0.381387
0
LINE
8
BLACK
6
CONTINUOUS
10
0.274449
20
0.381387
11
0.273757
21
0.379716
0
LINE
8
BLACK
6
CONTINUOUS
10
0.273757
20
0.379716
11
0.272087
21
0.379024
0
LINE
8
BLACK
6
CONTINUOUS
10
0.272087
20
0.379024
11
0.270416
21
0.379716
0
LINE
8
BLACK
6
CONTINUOUS
10
0.270416
20
0.379716
11
0.269724
21
0.381387
0
LINE
8
BLACK
6
CONTINUOUS
10
0.269724
20
0.381387
11
0.269724
21
0.394204
0
LINE
8
BLACK
6
CONTINUOUS
10
0.269724
20
0.394204
11
0.270416
21
0.395874
0
LINE
8
BLACK
6
CONTINUOUS
10
0.270416
20
0.395874
11
0.272087
21
0.396566
0
LINE
8
BLACK
6
CONTINUOUS
10
0.272087
20
0.396566
11
0.273757
21
0.395874
0
LINE
8
BLACK
6
CONTINUOUS
10
0.313914
20
0.395874
11
0.314606
21
0.394204
0
LINE
8
BLACK
6
CONTINUOUS
10
0.314606
20
0.394204
11
0.314606
21
0.381387
0
LINE
8
BLACK
6
CONTINUOUS
10
0.314606
20
0.381387
11
0.313914
21
0.379716
0
LINE
8
BLACK
6
CONTINUOUS
10
0.313914
20
0.379716
11
0.312244
21
0.379024
0
LINE
8
BLACK
6
CONTINUOUS
10
0.312244
20
0.379024
11
0.310574
21
0.379716
0
LINE
8
BLACK
6
CONTINUOUS
10
0.310574
20
0.379716
11
0.309882
21
0.381387
0
LINE
8
BLACK
6
CONTINUOUS
10
0.309882
20
0.381387
11
0.309882
21
0.394204
0
LINE
8
BLACK
6
CONTINUOUS
10
0.309882
20
0.394204
11
0.310574
21
0.395874
0
LINE
8
BLACK
6
CONTINUOUS
10
0.310574
20
0.395874
11
0.312244
21
0.396566
0
LINE
8
BLACK
6
CONTINUOUS
10
0.312244
20
0.396566
11
0.313914
21
0.395874
0
LINE
8
BLACK
6
CONTINUOUS
10
0.185323
20
0.46437
11
0.186993
21
0.463678
0
LINE
8
BLACK
6
CONTINUOUS
10
0.186993
20
0.463678
11
0.187685
21
0.462008
0
LINE
8
BLACK
6
CONTINUOUS
10
0.187685
20
0.462008
11
0.187685
21
0.391142
0
LINE
8
BLACK
6
CONTINUOUS
10
0.187685
20
0.391142
11
0.186993
21
0.389471
0
LINE
8
BLACK
6
CONTINUOUS
10
0.186993
20
0.389471
11
0.185323
21
0.38878
0
LINE
8
BLACK
6
CONTINUOUS
10
0.185323
20
0.38878
11
0.183653
21
0.389471
0
LINE
8
BLACK
6
CONTINUOUS
10
0.183653
20
0.389471
11
0.182961
21
0.391142
0
LINE
8
BLACK
6
CONTINUOUS
10
0.182961
20
0.391142
11
0.182961
21
0.459646
0
LINE
8
BLACK
6
CONTINUOUS
10
0.182961
20
0.459646
11
0.128236
21
0.459646
0
LINE
8
BLACK
6
CONTINUOUS
10
0.128236
20
0.459646
11
0.126566
21
0.460338
0
LINE
8
BLACK
6
CONTINUOUS
10
0.126566
20
0.460338
11
0.125874
21
0.462008
0
LINE
8
BLACK
6
CONTINUOUS
10
0.125874
20
0.462008
11
0.126566
21
0.463678
0
LINE
8
BLACK
6
CONTINUOUS
10
0.126566
20
0.463678
11
0.128236
21
0.46437
0
LINE
8
BLACK
6
CONTINUOUS
10
0.128236
20
0.46437
11
0.185323
21
0.46437
0
LINE
8
BLACK
6
CONTINUOUS
10
0.591592
20
0.412075
11
0.592283
21
0.410405
0
LINE
8
BLACK
6
CONTINUOUS
10
0.592283
20
0.410405
11
0.592283
21
0.397587
0
LINE
8
BLACK
6
CONTINUOUS
10
0.592283
20
0.397587
11
0.591592
21
0.395917
0
LINE
8
BLACK
6
CONTINUOUS
10
0.591592
20
0.395917
11
0.589921
21
0.395225
0
LINE
8
BLACK
6
CONTINUOUS
10
0.589921
20
0.395225
11
0.588251
21
0.395917
0
LINE
8
BLACK
6
CONTINUOUS
10
0.588251
20
0.395917
11
0.587559
21
0.397587
0
LINE
8
BLACK
6
CONTINUOUS
10
0.587559
20
0.397587
11
0.587559
21
0.410405
0
LINE
8
BLACK
6
CONTINUOUS
10
0.587559
20
0.410405
11
0.588251
21
0.412075
0
LINE
8
BLACK
6
CONTINUOUS
10
0.588251
20
0.412075
11
0.589921
21
0.412767
0
LINE
8
BLACK
6
CONTINUOUS
10
0.589921
20
0.412767
11
0.591592
21
0.412075
0
LINE
8
BLACK
6
CONTINUOUS
10
0.631749
20
0.412075
11
0.632441
21
0.410405
0
LINE
8
BLACK
6
CONTINUOUS
10
0.632441
20
0.410405
11
0.632441
21
0.397587
0
LINE
8
BLACK
6
CONTINUOUS
10
0.632441
20
0.397587
11
0.631749
21
0.395917
0
LINE
8
BLACK
6
CONTINUOUS
10
0.631749
20
0.395917
11
0.630079
21
0.395225
0
LINE
8
BLACK
6
CONTINUOUS
10
0.630079
20
0.395225
11
0.628408
21
0.395917
0
LINE
8
BLACK
6
CONTINUOUS
10
0.628408
20
0.395917
11
0.627717
21
0.397587
0
LINE
8
BLACK
6
CONTINUOUS
10
0.627717
20
0.397587
11
0.627717
21
0.410405
0
LINE
8
BLACK
6
CONTINUOUS
10
0.627717
20
0.410405
11
0.628408
21
0.412075
0
LINE
8
BLACK
6
CONTINUOUS
10
0.628408
20
0.412075
11
0.630079
21
0.412767
0
LINE
8
BLACK
6
CONTINUOUS
10
0.630079
20
0.412767
11
0.631749
21
0.412075
0
LINE
8
BLACK
6
CONTINUOUS
10
0.681592
20
0.413079
11
0.682283
21
0.411409
0
LINE
8
BLACK
6
CONTINUOUS
10
0.682283
20
0.411409
11
0.682283
21
0.398591
0
LINE
8
BLACK
6
CONTINUOUS
10
0.682283
20
0.398591
11
0.681592
21
0.396921
0
LINE
8
BLACK
6
CONTINUOUS
10
0.681592
20
0.396921
11
0.679921
21
0.396229
0
LINE
8
BLACK
6
CONTINUOUS
10
0.679921
20
0.396229
11
0.678251
21
0.396921
0
LINE
8
BLACK
6
CONTINUOUS
10
0.678251
20
0.396921
11
0.677559
21
0.398591
0
LINE
8
BLACK
6
CONTINUOUS
10
0.677559
20
0.398591
11
0.677559
21
0.411409
0
LINE
8
BLACK
6
CONTINUOUS
10
0.677559
20
0.411409
11
0.678251
21
0.413079
0
LINE
8
BLACK
6
CONTINUOUS
10
0.678251
20
0.413079
11
0.679921
21
0.413771
0
LINE
8
BLACK
6
CONTINUOUS
10
0.679921
20
0.413771
11
0.681592
21
0.413079
0
LINE
8
BLACK
6
CONTINUOUS
10
0.721749
20
0.413079
11
0.722441
21
0.411409
0
LINE
8
BLACK
6
CONTINUOUS
10
0.722441
20
0.411409
11
0.722441
21
0.398591
0
LINE
8
BLACK
6
CONTINUOUS
10
0.722441
20
0.398591
11
0.721749
21
0.396921
0
LINE
8
BLACK
6
CONTINUOUS
10
0.721749
20
0.396921
11
0.720079
21
0.396229
0
LINE
8
BLACK
6
CONTINUOUS
10
0.720079
20
0.396229
11
0.718408
21
0.396921
0
LINE
8
BLACK
6
CONTINUOUS
10
0.718408
20
0.396921
11
0.717717
21
0.398591
0
LINE
8
BLACK
6
CONTINUOUS
10
0.717717
20
0.398591
11
0.717717
21
0.411409
0
LINE
8
BLACK
6
CONTINUOUS
10
0.717717
20
0.411409
11
0.718408
21
0.413079
0
LINE
8
BLACK
6
CONTINUOUS
10
0.718408
20
0.413079
11
0.720079
21
0.413771
0
LINE
8
BLACK
6
CONTINUOUS
10
0.720079
20
0.413771
11
0.721749
21
0.413079
0
LINE
8
BLACK
6
CONTINUOUS
10
1.03957
20
0.438048
11
1.04027
21
0.436378
0
LINE
8
BLACK
6
CONTINUOUS
10
1.04027
20
0.436378
11
1.03957
21
0.434708
0
LINE
8
BLACK
6
CONTINUOUS
10
1.03957
20
0.434708
11
1.0379
21
0.434016
0
LINE
8
BLACK
6
CONTINUOUS
10
1.0379
20
0.434016
11
1.02509
21
0.434016
0
LINE
8
BLACK
6
CONTINUOUS
10
1.02509
20
0.434016
11
1.02342
21
0.434708
0
LINE
8
BLACK
6
CONTINUOUS
10
1.02342
20
0.434708
11
1.02273
21
0.436378
0
LINE
8
BLACK
6
CONTINUOUS
10
1.02273
20
0.436378
11
1.02342
21
0.438048
0
LINE
8
BLACK
6
CONTINUOUS
10
1.02342
20
0.438048
11
1.02509
21
0.43874
0
LINE
8
BLACK
6
CONTINUOUS
10
1.02509
20
0.43874
11
1.0379
21
0.43874
0
LINE
8
BLACK
6
CONTINUOUS
10
1.0379
20
0.43874
11
1.03957
21
0.438048
0
LINE
8
BLACK
6
CONTINUOUS
10
0.457034
20
0.452538
11
0.458581
21
0.45124
0
LINE
8
BLACK
6
CONTINUOUS
10
0.458581
20
0.45124
11
0.458932
21
0.449251
0
LINE
8
BLACK
6
CONTINUOUS
10
0.458932
20
0.449251
11
0.457922
21
0.447502
0
LINE
8
BLACK
6
CONTINUOUS
10
0.457922
20
0.447502
11
0.456024
21
0.446811
0
LINE
8
BLACK
6
CONTINUOUS
10
0.456024
20
0.446811
11
0.396024
21
0.446811
0
LINE
8
BLACK
6
CONTINUOUS
10
0.396024
20
0.446811
11
0.395014
21
0.446989
0
LINE
8
BLACK
6
CONTINUOUS
10
0.395014
20
0.446989
11
0.393466
21
0.448287
0
LINE
8
BLACK
6
CONTINUOUS
10
0.393466
20
0.448287
11
0.393116
21
0.450277
0
LINE
8
BLACK
6
CONTINUOUS
10
0.393116
20
0.450277
11
0.394126
21
0.452026
0
LINE
8
BLACK
6
CONTINUOUS
10
0.394126
20
0.452026
11
0.396024
21
0.452717
0
LINE
8
BLACK
6
CONTINUOUS
10
0.396024
20
0.452717
11
0.456024
21
0.452717
0
LINE
8
BLACK
6
CONTINUOUS
10
0.456024
20
0.452717
11
0.457034
21
0.452538
0
LINE
8
BLACK
6
CONTINUOUS
10
1.03957
20
0.478206
11
1.04027
21
0.476535
0
LINE
8
BLACK
6
CONTINUOUS
10
1.04027
20
0.476535
11
1.03957
21
0.474865
0
LINE
8
BLACK
6
CONTINUOUS
10
1.03957
20
0.474865
11
1.0379
21
0.474173
0
LINE
8
BLACK
6
CONTINUOUS
10
1.0379
20
0.474173
11
1.02509
21
0.474173
0
LINE
8
BLACK
6
CONTINUOUS
10
1.02509
20
0.474173
11
1.02342
21
0.474865
0
LINE
8
BLACK
6
CONTINUOUS
10
1.02342
20
0.474865
11
1.02273
21
0.476535
0
LINE
8
BLACK
6
CONTINUOUS
10
1.02273
20
0.476535
11
1.02342
21
0.478206
0
LINE
8
BLACK
6
CONTINUOUS
10
1.02342
20
0.478206
11
1.02509
21
0.478898
0
LINE
8
BLACK
6
CONTINUOUS
10
1.02509
20
0.478898
11
1.0379
21
0.478898
0
LINE
8
BLACK
6
CONTINUOUS
10
1.0379
20
0.478898
11
1.03957
21
0.478206
0
CIRCLE
8
BLACK
10
0.945
20
0.517
40
0.00688976
0
CIRCLE
8
BLACK
10
0.492126
20
0.590551
40
0.00688976
0
CIRCLE
8
BLACK
10
0.853346
20
0.344488
40
0.00688976
0
CIRCLE
8
BLACK
10
0.492126
20
0
40
0.00688976
0
CIRCLE
8
BLACK
10
0.853346
20
0.246063
40
0.00688976
0
CIRCLE
8
BLACK
10
0.945
20
0.0735512
40
0.00688976
0
CIRCLE
8
BLACK
10
0.853346
20
0.423228
40
0.00688976
0
CIRCLE
8
BLACK
10
0.0984252
20
0.590551
40
0.00688976
0
CIRCLE
8
BLACK
10
0.885827
20
0
40
0.00688976
0
CIRCLE
8
BLACK
10
0.898622
20
0.473551
40
0.00688976
0
CIRCLE
8
BLACK
10
0.885827
20
0.590551
40
0.00688976
0
CIRCLE
8
BLACK
10
0.0984252
20
0
40
0.00688976
0
CIRCLE
8
BLACK
10
0.898
20
0.117
40
0.00688976
0
CIRCLE
8
BLACK
10
0.853346
20
0.167323
40
0.00688976
0
CIRCLE
8
BLACK
10
1.13189
20
0.194882
40
0.00688976
0
CIRCLE
8
BLACK
10
1.13189
20
0.395669
40
0.00688976
0
CIRCLE
8
BLACK
10
0.931102
20
0.194882
40
0.00688976
0
CIRCLE
8
BLACK
10
0.931102
20
0.395669
40
0.00688976
  0
ENDSEC
  0
EOF
