  0
SECTION
  2
HEADER
  9
$ANGBASE
  50
0.0
  9
$ANGDIR
  70
1
  9
$MEASUREMENT
  70
0
  0
ENDSEC
  0
SECTION
  2
TABLES
  0
TABLE
  2
LTYPE
  70
4
  0
LTYPE
  5
40F
  2
CONTINUOUS
  70
0
  3
Solid line
  72
65
  73
0
  40
0.0
  0
LTYPE
  5
410
  2
DASHDOT
 70
0
  3
Dash Dot ____ _ ____ _
 72
65
 73
4
 40
2.0
 49
1.25
 49
-0.25
 49
0.25
 49
-0.25
  0
LTYPE
  5
411
  2
DASHED
 70
0
  3
Dashed __ __ __ __ __
 72
65
 73
2
 40
0.75
 49
0.5
 49
-0.25
  0
LTYPE
  5
43B
  2
DOTTED
 70
0
  3
Dotted .  .  .  .
 72
65
 73
2
 40
0.2
 49
0.0
 49
-0.2
  0
ENDTAB
  0
TABLE
  2
STYLE
  70
4
  0
STYLE
  2
KICAD
  70
0
  40
0
  41
1
  42
1
  50
0
  71
0
  3
isocp.shx
  0
STYLE
  2
KICADB
  70
0
  40
0
  41
1
  42
1
  50
0
  71
0
  3
isocp.shx
  0
STYLE
  2
KICADI
  70
0
  40
0
  41
1
  42
1
  50
15
  71
0
  3
isocp.shx
  0
STYLE
  2
KICADBI
  70
0
  40
0
  41
1
  42
1
  50
15
  71
0
  3
isocp.shx
  0
ENDTAB
  0
TABLE
  2
LAYER
  70
1
  0
LAYER
  2
BLACK
  70
0
  62
7
  6
CONTINUOUS
  0
ENDTAB
  0
ENDSEC
  0
SECTION
  2
ENTITIES
0
LINE
8
BLACK
6
CONTINUOUS
10
0.254866
20
0.384977
11
0.259256
21
0.38274
0
LINE
8
BLACK
6
CONTINUOUS
10
0.259256
20
0.38274
11
0.26274
21
0.379256
0
LINE
8
BLACK
6
CONTINUOUS
10
0.26274
20
0.379256
11
0.264977
21
0.374866
0
LINE
8
BLACK
6
CONTINUOUS
10
0.264977
20
0.374866
11
0.265748
21
0.37
0
LINE
8
BLACK
6
CONTINUOUS
10
0.265748
20
0.37
11
0.264977
21
0.365134
0
LINE
8
BLACK
6
CONTINUOUS
10
0.264977
20
0.365134
11
0.26274
21
0.360744
0
LINE
8
BLACK
6
CONTINUOUS
10
0.26274
20
0.360744
11
0.259256
21
0.35726
0
LINE
8
BLACK
6
CONTINUOUS
10
0.259256
20
0.35726
11
0.254866
21
0.355023
0
LINE
8
BLACK
6
CONTINUOUS
10
0.254866
20
0.355023
11
0.25
21
0.354252
0
LINE
8
BLACK
6
CONTINUOUS
10
0.25
20
0.354252
11
0.245134
21
0.355023
0
LINE
8
BLACK
6
CONTINUOUS
10
0.245134
20
0.355023
11
0.240744
21
0.35726
0
LINE
8
BLACK
6
CONTINUOUS
10
0.240744
20
0.35726
11
0.23726
21
0.360744
0
LINE
8
BLACK
6
CONTINUOUS
10
0.23726
20
0.360744
11
0.237017
21
0.36122
0
LINE
8
BLACK
6
CONTINUOUS
10
0.237017
20
0.36122
11
0.223908
21
0.36122
0
LINE
8
BLACK
6
CONTINUOUS
10
0.223908
20
0.36122
11
0.22385
21
0.360929
0
LINE
8
BLACK
6
CONTINUOUS
10
0.22385
20
0.360929
11
0.22257
21
0.359013
0
LINE
8
BLACK
6
CONTINUOUS
10
0.22257
20
0.359013
11
0.220654
21
0.357733
0
LINE
8
BLACK
6
CONTINUOUS
10
0.220654
20
0.357733
11
0.218394
21
0.357283
0
LINE
8
BLACK
6
CONTINUOUS
10
0.218394
20
0.357283
11
0.163276
21
0.357283
0
LINE
8
BLACK
6
CONTINUOUS
10
0.163276
20
0.357283
11
0.161016
21
0.357733
0
LINE
8
BLACK
6
CONTINUOUS
10
0.161016
20
0.357733
11
0.1591
21
0.359013
0
LINE
8
BLACK
6
CONTINUOUS
10
0.1591
20
0.359013
11
0.15782
21
0.360929
0
LINE
8
BLACK
6
CONTINUOUS
10
0.15782
20
0.360929
11
0.157582
21
0.362126
0
LINE
8
BLACK
6
CONTINUOUS
10
0.157582
20
0.362126
11
0.123445
21
0.362126
0
LINE
8
BLACK
6
CONTINUOUS
10
0.123445
20
0.362126
11
0.12274
21
0.360744
0
LINE
8
BLACK
6
CONTINUOUS
10
0.12274
20
0.360744
11
0.119256
21
0.35726
0
LINE
8
BLACK
6
CONTINUOUS
10
0.119256
20
0.35726
11
0.114866
21
0.355023
0
LINE
8
BLACK
6
CONTINUOUS
10
0.114866
20
0.355023
11
0.11
21
0.354252
0
LINE
8
BLACK
6
CONTINUOUS
10
0.11
20
0.354252
11
0.105134
21
0.355023
0
LINE
8
BLACK
6
CONTINUOUS
10
0.105134
20
0.355023
11
0.100744
21
0.35726
0
LINE
8
BLACK
6
CONTINUOUS
10
0.100744
20
0.35726
11
0.0972596
21
0.360744
0
LINE
8
BLACK
6
CONTINUOUS
10
0.0972596
20
0.360744
11
0.0950227
21
0.365134
0
LINE
8
BLACK
6
CONTINUOUS
10
0.0950227
20
0.365134
11
0.094252
21
0.37
0
LINE
8
BLACK
6
CONTINUOUS
10
0.094252
20
0.37
11
0.0950227
21
0.374866
0
LINE
8
BLACK
6
CONTINUOUS
10
0.0950227
20
0.374866
11
0.0972596
21
0.379256
0
LINE
8
BLACK
6
CONTINUOUS
10
0.0972596
20
0.379256
11
0.100744
21
0.38274
0
LINE
8
BLACK
6
CONTINUOUS
10
0.100744
20
0.38274
11
0.105134
21
0.384977
0
LINE
8
BLACK
6
CONTINUOUS
10
0.105134
20
0.384977
11
0.11
21
0.385748
0
LINE
8
BLACK
6
CONTINUOUS
10
0.11
20
0.385748
11
0.114866
21
0.384977
0
LINE
8
BLACK
6
CONTINUOUS
10
0.114866
20
0.384977
11
0.119256
21
0.38274
0
LINE
8
BLACK
6
CONTINUOUS
10
0.119256
20
0.38274
11
0.12274
21
0.379256
0
LINE
8
BLACK
6
CONTINUOUS
10
0.12274
20
0.379256
11
0.123445
21
0.377874
0
LINE
8
BLACK
6
CONTINUOUS
10
0.123445
20
0.377874
11
0.15823
21
0.377874
0
LINE
8
BLACK
6
CONTINUOUS
10
0.15823
20
0.377874
11
0.1591
21
0.379176
0
LINE
8
BLACK
6
CONTINUOUS
10
0.1591
20
0.379176
11
0.161016
21
0.380456
0
LINE
8
BLACK
6
CONTINUOUS
10
0.161016
20
0.380456
11
0.163276
21
0.380906
0
LINE
8
BLACK
6
CONTINUOUS
10
0.163276
20
0.380906
11
0.218394
21
0.380906
0
LINE
8
BLACK
6
CONTINUOUS
10
0.218394
20
0.380906
11
0.220654
21
0.380456
0
LINE
8
BLACK
6
CONTINUOUS
10
0.220654
20
0.380456
11
0.22257
21
0.379176
0
LINE
8
BLACK
6
CONTINUOUS
10
0.22257
20
0.379176
11
0.22385
21
0.37726
0
LINE
8
BLACK
6
CONTINUOUS
10
0.22385
20
0.37726
11
0.223908
21
0.376969
0
LINE
8
BLACK
6
CONTINUOUS
10
0.223908
20
0.376969
11
0.236094
21
0.376969
0
LINE
8
BLACK
6
CONTINUOUS
10
0.236094
20
0.376969
11
0.23726
21
0.379256
0
LINE
8
BLACK
6
CONTINUOUS
10
0.23726
20
0.379256
11
0.240744
21
0.38274
0
LINE
8
BLACK
6
CONTINUOUS
10
0.240744
20
0.38274
11
0.245134
21
0.384977
0
LINE
8
BLACK
6
CONTINUOUS
10
0.245134
20
0.384977
11
0.25
21
0.385748
0
LINE
8
BLACK
6
CONTINUOUS
10
0.25
20
0.385748
11
0.254866
21
0.384977
0
LINE
8
BLACK
6
CONTINUOUS
10
0.0341899
20
0.570165
11
0.035059
21
0.568918
0
LINE
8
BLACK
6
CONTINUOUS
10
0.035059
20
0.568918
11
0.0371544
21
0.563084
0
LINE
8
BLACK
6
CONTINUOUS
10
0.0371544
20
0.563084
11
0.0391055
21
0.559496
0
LINE
8
BLACK
6
CONTINUOUS
10
0.0391055
20
0.559496
11
0.0420652
21
0.554053
0
LINE
8
BLACK
6
CONTINUOUS
10
0.0420652
20
0.554053
11
0.0420653
21
0.554053
0
LINE
8
BLACK
6
CONTINUOUS
10
0.0420653
20
0.554053
11
0.0420653
21
0.554053
0
LINE
8
BLACK
6
CONTINUOUS
10
0.0420653
20
0.554053
11
0.0482972
21
0.545877
0
LINE
8
BLACK
6
CONTINUOUS
10
0.0482972
20
0.545877
11
0.0557042
21
0.538749
0
LINE
8
BLACK
6
CONTINUOUS
10
0.0557042
20
0.538749
11
0.0601374
21
0.535631
0
LINE
8
BLACK
6
CONTINUOUS
10
0.0601374
20
0.535631
11
0.0641125
21
0.532835
0
LINE
8
BLACK
6
CONTINUOUS
10
0.0641125
20
0.532835
11
0.0641126
21
0.532835
0
LINE
8
BLACK
6
CONTINUOUS
10
0.0641126
20
0.532835
11
0.073325
21
0.528273
0
LINE
8
BLACK
6
CONTINUOUS
10
0.073325
20
0.528273
11
0.0805881
21
0.525975
0
LINE
8
BLACK
6
CONTINUOUS
10
0.0805881
20
0.525975
11
0.0831258
21
0.525172
0
LINE
8
BLACK
6
CONTINUOUS
10
0.0831258
20
0.525172
11
0.0932852
21
0.523602
0
LINE
8
BLACK
6
CONTINUOUS
10
0.0932852
20
0.523602
11
0.100991
21
0.523602
0
LINE
8
BLACK
6
CONTINUOUS
10
0.100991
20
0.523602
11
0.100991
21
0.523602
0
LINE
8
BLACK
6
CONTINUOUS
10
0.100991
20
0.523602
11
0.108675
21
0.524192
0
LINE
8
BLACK
6
CONTINUOUS
10
0.108675
20
0.524192
11
0.108675
21
0.524192
0
LINE
8
BLACK
6
CONTINUOUS
10
0.108675
20
0.524192
11
0.108675
21
0.524192
0
LINE
8
BLACK
6
CONTINUOUS
10
0.108675
20
0.524192
11
0.11286
21
0.525172
0
LINE
8
BLACK
6
CONTINUOUS
10
0.11286
20
0.525172
11
0.118684
21
0.526535
0
LINE
8
BLACK
6
CONTINUOUS
10
0.118684
20
0.526535
11
0.128219
21
0.530377
0
LINE
8
BLACK
6
CONTINUOUS
10
0.128219
20
0.530377
11
0.132352
21
0.532835
0
LINE
8
BLACK
6
CONTINUOUS
10
0.132352
20
0.532835
11
0.137055
21
0.535631
0
LINE
8
BLACK
6
CONTINUOUS
10
0.137055
20
0.535631
11
0.137055
21
0.535631
0
LINE
8
BLACK
6
CONTINUOUS
10
0.137055
20
0.535631
11
0.137055
21
0.535631
0
LINE
8
BLACK
6
CONTINUOUS
10
0.137055
20
0.535631
11
0.144986
21
0.542171
0
LINE
8
BLACK
6
CONTINUOUS
10
0.144986
20
0.542171
11
0.151826
21
0.549846
0
LINE
8
BLACK
6
CONTINUOUS
10
0.151826
20
0.549846
11
0.157414
21
0.558474
0
LINE
8
BLACK
6
CONTINUOUS
10
0.157414
20
0.558474
11
0.161619
21
0.567855
0
LINE
8
BLACK
6
CONTINUOUS
10
0.161619
20
0.567855
11
0.161852
21
0.568705
0
LINE
8
BLACK
6
CONTINUOUS
10
0.161852
20
0.568705
11
0.163006
21
0.57033
0
LINE
8
BLACK
6
CONTINUOUS
10
0.163006
20
0.57033
11
0.164662
21
0.570846
0
LINE
8
BLACK
6
CONTINUOUS
10
0.164662
20
0.570846
11
0.283926
21
0.570846
0
LINE
8
BLACK
6
CONTINUOUS
10
0.283926
20
0.570846
11
0.285799
21
0.570165
0
LINE
8
BLACK
6
CONTINUOUS
10
0.285799
20
0.570165
11
0.286795
21
0.568439
0
LINE
8
BLACK
6
CONTINUOUS
10
0.286795
20
0.568439
11
0.286449
21
0.566476
0
LINE
8
BLACK
6
CONTINUOUS
10
0.286449
20
0.566476
11
0.285545
21
0.565511
0
LINE
8
BLACK
6
CONTINUOUS
10
0.285545
20
0.565511
11
0.283059
21
0.56385
0
LINE
8
BLACK
6
CONTINUOUS
10
0.283059
20
0.56385
11
0.283059
21
0.56385
0
LINE
8
BLACK
6
CONTINUOUS
10
0.283059
20
0.56385
11
0.27867
21
0.55946
0
LINE
8
BLACK
6
CONTINUOUS
10
0.27867
20
0.55946
11
0.27867
21
0.55946
0
LINE
8
BLACK
6
CONTINUOUS
10
0.27867
20
0.55946
11
0.275221
21
0.554298
0
LINE
8
BLACK
6
CONTINUOUS
10
0.275221
20
0.554298
11
0.272845
21
0.548563
0
LINE
8
BLACK
6
CONTINUOUS
10
0.272845
20
0.548563
11
0.272845
21
0.548563
0
LINE
8
BLACK
6
CONTINUOUS
10
0.272845
20
0.548563
11
0.271634
21
0.542474
0
LINE
8
BLACK
6
CONTINUOUS
10
0.271634
20
0.542474
11
0.271634
21
0.481148
0
LINE
8
BLACK
6
CONTINUOUS
10
0.271634
20
0.481148
11
0.272845
21
0.475059
0
LINE
8
BLACK
6
CONTINUOUS
10
0.272845
20
0.475059
11
0.272845
21
0.475059
0
LINE
8
BLACK
6
CONTINUOUS
10
0.272845
20
0.475059
11
0.275221
21
0.469324
0
LINE
8
BLACK
6
CONTINUOUS
10
0.275221
20
0.469324
11
0.275221
21
0.469324
0
LINE
8
BLACK
6
CONTINUOUS
10
0.275221
20
0.469324
11
0.275221
21
0.469324
0
LINE
8
BLACK
6
CONTINUOUS
10
0.275221
20
0.469324
11
0.27867
21
0.464162
0
LINE
8
BLACK
6
CONTINUOUS
10
0.27867
20
0.464162
11
0.283059
21
0.459772
0
LINE
8
BLACK
6
CONTINUOUS
10
0.283059
20
0.459772
11
0.288221
21
0.456323
0
LINE
8
BLACK
6
CONTINUOUS
10
0.288221
20
0.456323
11
0.288221
21
0.456323
0
LINE
8
BLACK
6
CONTINUOUS
10
0.288221
20
0.456323
11
0.288221
21
0.456323
0
LINE
8
BLACK
6
CONTINUOUS
10
0.288221
20
0.456323
11
0.293957
21
0.453947
0
LINE
8
BLACK
6
CONTINUOUS
10
0.293957
20
0.453947
11
0.293957
21
0.453947
0
LINE
8
BLACK
6
CONTINUOUS
10
0.293957
20
0.453947
11
0.300046
21
0.452736
0
LINE
8
BLACK
6
CONTINUOUS
10
0.300046
20
0.452736
11
0.300046
21
0.452736
0
LINE
8
BLACK
6
CONTINUOUS
10
0.300046
20
0.452736
11
0.331582
21
0.452736
0
LINE
8
BLACK
6
CONTINUOUS
10
0.331582
20
0.452736
11
0.333455
21
0.452055
0
LINE
8
BLACK
6
CONTINUOUS
10
0.333455
20
0.452055
11
0.334451
21
0.450329
0
LINE
8
BLACK
6
CONTINUOUS
10
0.334451
20
0.450329
11
0.334496
21
0.449822
0
LINE
8
BLACK
6
CONTINUOUS
10
0.334496
20
0.449822
11
0.334495
21
0.445866
0
LINE
8
BLACK
6
CONTINUOUS
10
0.334495
20
0.445866
11
0.342697
21
0.445866
0
LINE
8
BLACK
6
CONTINUOUS
10
0.342697
20
0.445866
11
0.343401
21
0.447249
0
LINE
8
BLACK
6
CONTINUOUS
10
0.343401
20
0.447249
11
0.346885
21
0.450733
0
LINE
8
BLACK
6
CONTINUOUS
10
0.346885
20
0.450733
11
0.351275
21
0.452969
0
LINE
8
BLACK
6
CONTINUOUS
10
0.351275
20
0.452969
11
0.356142
21
0.45374
0
LINE
8
BLACK
6
CONTINUOUS
10
0.356142
20
0.45374
11
0.361008
21
0.452969
0
LINE
8
BLACK
6
CONTINUOUS
10
0.361008
20
0.452969
11
0.365398
21
0.450733
0
LINE
8
BLACK
6
CONTINUOUS
10
0.365398
20
0.450733
11
0.368882
21
0.447249
0
LINE
8
BLACK
6
CONTINUOUS
10
0.368882
20
0.447249
11
0.371119
21
0.442859
0
LINE
8
BLACK
6
CONTINUOUS
10
0.371119
20
0.442859
11
0.37189
21
0.437992
0
LINE
8
BLACK
6
CONTINUOUS
10
0.37189
20
0.437992
11
0.371119
21
0.433126
0
LINE
8
BLACK
6
CONTINUOUS
10
0.371119
20
0.433126
11
0.368882
21
0.428736
0
LINE
8
BLACK
6
CONTINUOUS
10
0.368882
20
0.428736
11
0.365398
21
0.425252
0
LINE
8
BLACK
6
CONTINUOUS
10
0.365398
20
0.425252
11
0.361008
21
0.423015
0
LINE
8
BLACK
6
CONTINUOUS
10
0.361008
20
0.423015
11
0.356142
21
0.422244
0
LINE
8
BLACK
6
CONTINUOUS
10
0.356142
20
0.422244
11
0.351275
21
0.423015
0
LINE
8
BLACK
6
CONTINUOUS
10
0.351275
20
0.423015
11
0.346885
21
0.425252
0
LINE
8
BLACK
6
CONTINUOUS
10
0.346885
20
0.425252
11
0.343401
21
0.428736
0
LINE
8
BLACK
6
CONTINUOUS
10
0.343401
20
0.428736
11
0.342697
21
0.430118
0
LINE
8
BLACK
6
CONTINUOUS
10
0.342697
20
0.430118
11
0.334491
21
0.430118
0
LINE
8
BLACK
6
CONTINUOUS
10
0.334491
20
0.430118
11
0.33448
21
0.384862
0
LINE
8
BLACK
6
CONTINUOUS
10
0.33448
20
0.384862
11
0.334469
21
0.336838
0
LINE
8
BLACK
6
CONTINUOUS
10
0.334469
20
0.336838
11
0.334469
21
0.336712
0
LINE
8
BLACK
6
CONTINUOUS
10
0.334469
20
0.336712
11
0.333787
21
0.334839
0
LINE
8
BLACK
6
CONTINUOUS
10
0.333787
20
0.334839
11
0.33206
21
0.333843
0
LINE
8
BLACK
6
CONTINUOUS
10
0.33206
20
0.333843
11
0.331555
21
0.333799
0
LINE
8
BLACK
6
CONTINUOUS
10
0.331555
20
0.333799
11
0.2787
21
0.333799
0
LINE
8
BLACK
6
CONTINUOUS
10
0.2787
20
0.333799
11
0.277586
21
0.334021
0
LINE
8
BLACK
6
CONTINUOUS
10
0.277586
20
0.334021
11
0.272746
21
0.336025
0
LINE
8
BLACK
6
CONTINUOUS
10
0.272746
20
0.336025
11
0.266575
21
0.336838
0
LINE
8
BLACK
6
CONTINUOUS
10
0.266575
20
0.336838
11
0.260403
21
0.336025
0
LINE
8
BLACK
6
CONTINUOUS
10
0.260403
20
0.336025
11
0.260403
21
0.336025
0
LINE
8
BLACK
6
CONTINUOUS
10
0.260403
20
0.336025
11
0.254652
21
0.333643
0
LINE
8
BLACK
6
CONTINUOUS
10
0.254652
20
0.333643
11
0.249713
21
0.329854
0
LINE
8
BLACK
6
CONTINUOUS
10
0.249713
20
0.329854
11
0.249713
21
0.329854
0
LINE
8
BLACK
6
CONTINUOUS
10
0.249713
20
0.329854
11
0.245924
21
0.324915
0
LINE
8
BLACK
6
CONTINUOUS
10
0.245924
20
0.324915
11
0.243642
21
0.319406
0
LINE
8
BLACK
6
CONTINUOUS
10
0.243642
20
0.319406
11
0.242296
21
0.317937
0
LINE
8
BLACK
6
CONTINUOUS
10
0.242296
20
0.317937
11
0.24032
21
0.317677
0
LINE
8
BLACK
6
CONTINUOUS
10
0.24032
20
0.317677
11
0.23889
21
0.318461
0
LINE
8
BLACK
6
CONTINUOUS
10
0.23889
20
0.318461
11
0.233046
21
0.324305
0
LINE
8
BLACK
6
CONTINUOUS
10
0.233046
20
0.324305
11
0.232204
21
0.326111
0
LINE
8
BLACK
6
CONTINUOUS
10
0.232204
20
0.326111
11
0.232193
21
0.326365
0
LINE
8
BLACK
6
CONTINUOUS
10
0.232193
20
0.326365
11
0.232193
21
0.327097
0
LINE
8
BLACK
6
CONTINUOUS
10
0.232193
20
0.327097
11
0.232193
21
0.327097
0
LINE
8
BLACK
6
CONTINUOUS
10
0.232193
20
0.327097
11
0.231802
21
0.329779
0
LINE
8
BLACK
6
CONTINUOUS
10
0.231802
20
0.329779
11
0.229779
21
0.333917
0
LINE
8
BLACK
6
CONTINUOUS
10
0.229779
20
0.333917
11
0.226523
21
0.337173
0
LINE
8
BLACK
6
CONTINUOUS
10
0.226523
20
0.337173
11
0.226523
21
0.337173
0
LINE
8
BLACK
6
CONTINUOUS
10
0.226523
20
0.337173
11
0.222386
21
0.339196
0
LINE
8
BLACK
6
CONTINUOUS
10
0.222386
20
0.339196
11
0.219703
21
0.339587
0
LINE
8
BLACK
6
CONTINUOUS
10
0.219703
20
0.339587
11
0.219703
21
0.339587
0
LINE
8
BLACK
6
CONTINUOUS
10
0.219703
20
0.339587
11
0.161966
21
0.339587
0
LINE
8
BLACK
6
CONTINUOUS
10
0.161966
20
0.339587
11
0.161966
21
0.339587
0
LINE
8
BLACK
6
CONTINUOUS
10
0.161966
20
0.339587
11
0.159284
21
0.339196
0
LINE
8
BLACK
6
CONTINUOUS
10
0.159284
20
0.339196
11
0.159284
21
0.339196
0
LINE
8
BLACK
6
CONTINUOUS
10
0.159284
20
0.339196
11
0.155146
21
0.337173
0
LINE
8
BLACK
6
CONTINUOUS
10
0.155146
20
0.337173
11
0.15189
21
0.333917
0
LINE
8
BLACK
6
CONTINUOUS
10
0.15189
20
0.333917
11
0.149867
21
0.329779
0
LINE
8
BLACK
6
CONTINUOUS
10
0.149867
20
0.329779
11
0.149867
21
0.329779
0
LINE
8
BLACK
6
CONTINUOUS
10
0.149867
20
0.329779
11
0.149476
21
0.327097
0
LINE
8
BLACK
6
CONTINUOUS
10
0.149476
20
0.327097
11
0.149476
21
0.312667
0
LINE
8
BLACK
6
CONTINUOUS
10
0.149476
20
0.312667
11
0.149867
21
0.309985
0
LINE
8
BLACK
6
CONTINUOUS
10
0.149867
20
0.309985
11
0.149867
21
0.309984
0
LINE
8
BLACK
6
CONTINUOUS
10
0.149867
20
0.309984
11
0.15189
21
0.305847
0
LINE
8
BLACK
6
CONTINUOUS
10
0.15189
20
0.305847
11
0.15189
21
0.305847
0
LINE
8
BLACK
6
CONTINUOUS
10
0.15189
20
0.305847
11
0.155146
21
0.302591
0
LINE
8
BLACK
6
CONTINUOUS
10
0.155146
20
0.302591
11
0.159284
21
0.300568
0
LINE
8
BLACK
6
CONTINUOUS
10
0.159284
20
0.300568
11
0.161966
21
0.300177
0
LINE
8
BLACK
6
CONTINUOUS
10
0.161966
20
0.300177
11
0.21137
21
0.300177
0
LINE
8
BLACK
6
CONTINUOUS
10
0.21137
20
0.300177
11
0.213242
21
0.299496
0
LINE
8
BLACK
6
CONTINUOUS
10
0.213242
20
0.299496
11
0.21343
21
0.299324
0
LINE
8
BLACK
6
CONTINUOUS
10
0.21343
20
0.299324
11
0.217406
21
0.295347
0
LINE
8
BLACK
6
CONTINUOUS
10
0.217406
20
0.295347
11
0.218248
21
0.293541
0
LINE
8
BLACK
6
CONTINUOUS
10
0.218248
20
0.293541
11
0.217733
21
0.291616
0
LINE
8
BLACK
6
CONTINUOUS
10
0.217733
20
0.291616
11
0.2161
21
0.290473
0
LINE
8
BLACK
6
CONTINUOUS
10
0.2161
20
0.290473
11
0.215346
21
0.290374
0
LINE
8
BLACK
6
CONTINUOUS
10
0.215346
20
0.290374
11
0.161966
21
0.290374
0
LINE
8
BLACK
6
CONTINUOUS
10
0.161966
20
0.290374
11
0.159284
21
0.289983
0
LINE
8
BLACK
6
CONTINUOUS
10
0.159284
20
0.289983
11
0.159284
21
0.289983
0
LINE
8
BLACK
6
CONTINUOUS
10
0.159284
20
0.289983
11
0.155146
21
0.287961
0
LINE
8
BLACK
6
CONTINUOUS
10
0.155146
20
0.287961
11
0.154476
21
0.28729
0
LINE
8
BLACK
6
CONTINUOUS
10
0.154476
20
0.28729
11
0.15267
21
0.286448
0
LINE
8
BLACK
6
CONTINUOUS
10
0.15267
20
0.286448
11
0.152416
21
0.286437
0
LINE
8
BLACK
6
CONTINUOUS
10
0.152416
20
0.286437
11
0.131342
21
0.286437
0
LINE
8
BLACK
6
CONTINUOUS
10
0.131342
20
0.286437
11
0.12947
21
0.287119
0
LINE
8
BLACK
6
CONTINUOUS
10
0.12947
20
0.287119
11
0.129203
21
0.287397
0
LINE
8
BLACK
6
CONTINUOUS
10
0.129203
20
0.287397
11
0.129201
21
0.287396
0
LINE
8
BLACK
6
CONTINUOUS
10
0.129201
20
0.287396
11
0.129066
21
0.287531
0
LINE
8
BLACK
6
CONTINUOUS
10
0.129066
20
0.287531
11
0.124128
21
0.29132
0
LINE
8
BLACK
6
CONTINUOUS
10
0.124128
20
0.29132
11
0.118376
21
0.293703
0
LINE
8
BLACK
6
CONTINUOUS
10
0.118376
20
0.293703
11
0.112205
21
0.294515
0
LINE
8
BLACK
6
CONTINUOUS
10
0.112205
20
0.294515
11
0.106033
21
0.293703
0
LINE
8
BLACK
6
CONTINUOUS
10
0.106033
20
0.293703
11
0.106033
21
0.293703
0
LINE
8
BLACK
6
CONTINUOUS
10
0.106033
20
0.293703
11
0.100282
21
0.29132
0
LINE
8
BLACK
6
CONTINUOUS
10
0.100282
20
0.29132
11
0.0953433
21
0.287531
0
LINE
8
BLACK
6
CONTINUOUS
10
0.0953433
20
0.287531
11
0.0953431
21
0.287531
0
LINE
8
BLACK
6
CONTINUOUS
10
0.0953431
20
0.287531
11
0.0915537
21
0.282592
0
LINE
8
BLACK
6
CONTINUOUS
10
0.0915537
20
0.282592
11
0.0891715
21
0.276841
0
LINE
8
BLACK
6
CONTINUOUS
10
0.0891715
20
0.276841
11
0.0891715
21
0.276841
0
LINE
8
BLACK
6
CONTINUOUS
10
0.0891715
20
0.276841
11
0.088359
21
0.270669
0
LINE
8
BLACK
6
CONTINUOUS
10
0.088359
20
0.270669
11
0.0891715
21
0.264498
0
LINE
8
BLACK
6
CONTINUOUS
10
0.0891715
20
0.264498
11
0.0891715
21
0.264498
0
LINE
8
BLACK
6
CONTINUOUS
10
0.0891715
20
0.264498
11
0.0915537
21
0.258746
0
LINE
8
BLACK
6
CONTINUOUS
10
0.0915537
20
0.258746
11
0.0953431
21
0.253808
0
LINE
8
BLACK
6
CONTINUOUS
10
0.0953431
20
0.253808
11
0.0953433
21
0.253808
0
LINE
8
BLACK
6
CONTINUOUS
10
0.0953433
20
0.253808
11
0.0962156
21
0.253138
0
LINE
8
BLACK
6
CONTINUOUS
10
0.0962156
20
0.253138
11
0.100282
21
0.250018
0
LINE
8
BLACK
6
CONTINUOUS
10
0.100282
20
0.250018
11
0.106033
21
0.247636
0
LINE
8
BLACK
6
CONTINUOUS
10
0.106033
20
0.247636
11
0.112205
21
0.246824
0
LINE
8
BLACK
6
CONTINUOUS
10
0.112205
20
0.246824
11
0.118376
21
0.247636
0
LINE
8
BLACK
6
CONTINUOUS
10
0.118376
20
0.247636
11
0.124128
21
0.250018
0
LINE
8
BLACK
6
CONTINUOUS
10
0.124128
20
0.250018
11
0.128506
21
0.253378
0
LINE
8
BLACK
6
CONTINUOUS
10
0.128506
20
0.253378
11
0.129066
21
0.253808
0
LINE
8
BLACK
6
CONTINUOUS
10
0.129066
20
0.253808
11
0.129066
21
0.253808
0
LINE
8
BLACK
6
CONTINUOUS
10
0.129066
20
0.253808
11
0.129066
21
0.253808
0
LINE
8
BLACK
6
CONTINUOUS
10
0.129066
20
0.253808
11
0.129066
21
0.253808
0
LINE
8
BLACK
6
CONTINUOUS
10
0.129066
20
0.253808
11
0.129201
21
0.253943
0
LINE
8
BLACK
6
CONTINUOUS
10
0.129201
20
0.253943
11
0.129245
21
0.253898
0
LINE
8
BLACK
6
CONTINUOUS
10
0.129245
20
0.253898
11
0.130712
21
0.254833
0
LINE
8
BLACK
6
CONTINUOUS
10
0.130712
20
0.254833
11
0.131342
21
0.254902
0
LINE
8
BLACK
6
CONTINUOUS
10
0.131342
20
0.254902
11
0.148302
21
0.254902
0
LINE
8
BLACK
6
CONTINUOUS
10
0.148302
20
0.254902
11
0.150174
21
0.25422
0
LINE
8
BLACK
6
CONTINUOUS
10
0.150174
20
0.25422
11
0.151171
21
0.252494
0
LINE
8
BLACK
6
CONTINUOUS
10
0.151171
20
0.252494
11
0.150825
21
0.250531
0
LINE
8
BLACK
6
CONTINUOUS
10
0.150825
20
0.250531
11
0.149785
21
0.249481
0
LINE
8
BLACK
6
CONTINUOUS
10
0.149785
20
0.249481
11
0.147272
21
0.247994
0
LINE
8
BLACK
6
CONTINUOUS
10
0.147272
20
0.247994
11
0.142644
21
0.243366
0
LINE
8
BLACK
6
CONTINUOUS
10
0.142644
20
0.243366
11
0.139312
21
0.237732
0
LINE
8
BLACK
6
CONTINUOUS
10
0.139312
20
0.237732
11
0.137488
21
0.231457
0
LINE
8
BLACK
6
CONTINUOUS
10
0.137488
20
0.231457
11
0.159045
21
0.231457
0
LINE
8
BLACK
6
CONTINUOUS
10
0.159045
20
0.231457
11
0.1591
21
0.231538
0
LINE
8
BLACK
6
CONTINUOUS
10
0.1591
20
0.231538
11
0.161016
21
0.232818
0
LINE
8
BLACK
6
CONTINUOUS
10
0.161016
20
0.232818
11
0.163276
21
0.233268
0
LINE
8
BLACK
6
CONTINUOUS
10
0.163276
20
0.233268
11
0.218394
21
0.233268
0
LINE
8
BLACK
6
CONTINUOUS
10
0.218394
20
0.233268
11
0.220654
21
0.232818
0
LINE
8
BLACK
6
CONTINUOUS
10
0.220654
20
0.232818
11
0.22257
21
0.231538
0
LINE
8
BLACK
6
CONTINUOUS
10
0.22257
20
0.231538
11
0.222624
21
0.231457
0
LINE
8
BLACK
6
CONTINUOUS
10
0.222624
20
0.231457
11
0.244181
21
0.231457
0
LINE
8
BLACK
6
CONTINUOUS
10
0.244181
20
0.231457
11
0.242358
21
0.237732
0
LINE
8
BLACK
6
CONTINUOUS
10
0.242358
20
0.237732
11
0.239092
21
0.243253
0
LINE
8
BLACK
6
CONTINUOUS
10
0.239092
20
0.243253
11
0.238726
21
0.245212
0
LINE
8
BLACK
6
CONTINUOUS
10
0.238726
20
0.245212
11
0.239704
21
0.246948
0
LINE
8
BLACK
6
CONTINUOUS
10
0.239704
20
0.246948
11
0.24157
21
0.247649
0
LINE
8
BLACK
6
CONTINUOUS
10
0.24157
20
0.247649
11
0.242715
21
0.247428
0
LINE
8
BLACK
6
CONTINUOUS
10
0.242715
20
0.247428
11
0.243828
21
0.246967
0
LINE
8
BLACK
6
CONTINUOUS
10
0.243828
20
0.246967
11
0.25
21
0.246154
0
LINE
8
BLACK
6
CONTINUOUS
10
0.25
20
0.246154
11
0.256172
21
0.246967
0
LINE
8
BLACK
6
CONTINUOUS
10
0.256172
20
0.246967
11
0.261923
21
0.249349
0
LINE
8
BLACK
6
CONTINUOUS
10
0.261923
20
0.249349
11
0.266861
21
0.253139
0
LINE
8
BLACK
6
CONTINUOUS
10
0.266861
20
0.253139
11
0.267691
21
0.25422
0
LINE
8
BLACK
6
CONTINUOUS
10
0.267691
20
0.25422
11
0.268337
21
0.255061
0
LINE
8
BLACK
6
CONTINUOUS
10
0.268337
20
0.255061
11
0.270017
21
0.256132
0
LINE
8
BLACK
6
CONTINUOUS
10
0.270017
20
0.256132
11
0.270648
21
0.256201
0
LINE
8
BLACK
6
CONTINUOUS
10
0.270648
20
0.256201
11
0.331535
21
0.256201
0
LINE
8
BLACK
6
CONTINUOUS
10
0.331535
20
0.256201
11
0.333408
21
0.255519
0
LINE
8
BLACK
6
CONTINUOUS
10
0.333408
20
0.255519
11
0.334404
21
0.253793
0
LINE
8
BLACK
6
CONTINUOUS
10
0.334404
20
0.253793
11
0.334449
21
0.253287
0
LINE
8
BLACK
6
CONTINUOUS
10
0.334449
20
0.253287
11
0.334445
21
0.239173
0
LINE
8
BLACK
6
CONTINUOUS
10
0.334445
20
0.239173
11
0.34565
21
0.239173
0
LINE
8
BLACK
6
CONTINUOUS
10
0.34565
20
0.239173
11
0.346354
21
0.240556
0
LINE
8
BLACK
6
CONTINUOUS
10
0.346354
20
0.240556
11
0.349838
21
0.24404
0
LINE
8
BLACK
6
CONTINUOUS
10
0.349838
20
0.24404
11
0.354228
21
0.246276
0
LINE
8
BLACK
6
CONTINUOUS
10
0.354228
20
0.246276
11
0.359094
21
0.247047
0
LINE
8
BLACK
6
CONTINUOUS
10
0.359094
20
0.247047
11
0.363961
21
0.246276
0
LINE
8
BLACK
6
CONTINUOUS
10
0.363961
20
0.246276
11
0.368351
21
0.24404
0
LINE
8
BLACK
6
CONTINUOUS
10
0.368351
20
0.24404
11
0.371835
21
0.240556
0
LINE
8
BLACK
6
CONTINUOUS
10
0.371835
20
0.240556
11
0.374072
21
0.236166
0
LINE
8
BLACK
6
CONTINUOUS
10
0.374072
20
0.236166
11
0.374843
21
0.231299
0
LINE
8
BLACK
6
CONTINUOUS
10
0.374843
20
0.231299
11
0.374072
21
0.226433
0
LINE
8
BLACK
6
CONTINUOUS
10
0.374072
20
0.226433
11
0.371835
21
0.222043
0
LINE
8
BLACK
6
CONTINUOUS
10
0.371835
20
0.222043
11
0.368351
21
0.218559
0
LINE
8
BLACK
6
CONTINUOUS
10
0.368351
20
0.218559
11
0.363961
21
0.216322
0
LINE
8
BLACK
6
CONTINUOUS
10
0.363961
20
0.216322
11
0.359094
21
0.215551
0
LINE
8
BLACK
6
CONTINUOUS
10
0.359094
20
0.215551
11
0.354228
21
0.216322
0
LINE
8
BLACK
6
CONTINUOUS
10
0.354228
20
0.216322
11
0.349838
21
0.218559
0
LINE
8
BLACK
6
CONTINUOUS
10
0.349838
20
0.218559
11
0.346354
21
0.222043
0
LINE
8
BLACK
6
CONTINUOUS
10
0.346354
20
0.222043
11
0.34565
21
0.223425
0
LINE
8
BLACK
6
CONTINUOUS
10
0.34565
20
0.223425
11
0.334441
21
0.223425
0
LINE
8
BLACK
6
CONTINUOUS
10
0.334441
20
0.223425
11
0.334429
21
0.169712
0
LINE
8
BLACK
6
CONTINUOUS
10
0.334429
20
0.169712
11
0.333747
21
0.167839
0
LINE
8
BLACK
6
CONTINUOUS
10
0.333747
20
0.167839
11
0.332021
21
0.166843
0
LINE
8
BLACK
6
CONTINUOUS
10
0.332021
20
0.166843
11
0.331515
21
0.166799
0
LINE
8
BLACK
6
CONTINUOUS
10
0.331515
20
0.166799
11
0.284959
21
0.166799
0
LINE
8
BLACK
6
CONTINUOUS
10
0.284959
20
0.166799
11
0.284361
21
0.166861
0
LINE
8
BLACK
6
CONTINUOUS
10
0.284361
20
0.166861
11
0.283804
21
0.166978
0
LINE
8
BLACK
6
CONTINUOUS
10
0.283804
20
0.166978
11
0.282459
21
0.16681
0
LINE
8
BLACK
6
CONTINUOUS
10
0.282459
20
0.16681
11
0.282278
21
0.166799
0
LINE
8
BLACK
6
CONTINUOUS
10
0.282278
20
0.166799
11
0.282082
21
0.166799
0
LINE
8
BLACK
6
CONTINUOUS
10
0.282082
20
0.166799
11
0.281235
21
0.166658
0
LINE
8
BLACK
6
CONTINUOUS
10
0.281235
20
0.166658
11
0.279234
21
0.166408
0
LINE
8
BLACK
6
CONTINUOUS
10
0.279234
20
0.166408
11
0.279002
21
0.16634
0
LINE
8
BLACK
6
CONTINUOUS
10
0.279002
20
0.16634
11
0.278998
21
0.166353
0
LINE
8
BLACK
6
CONTINUOUS
10
0.278998
20
0.166353
11
0.278906
21
0.166324
0
LINE
8
BLACK
6
CONTINUOUS
10
0.278906
20
0.166324
11
0.278911
21
0.16631
0
LINE
8
BLACK
6
CONTINUOUS
10
0.278911
20
0.16631
11
0.278683
21
0.166232
0
LINE
8
BLACK
6
CONTINUOUS
10
0.278683
20
0.166232
11
0.276909
21
0.165272
0
LINE
8
BLACK
6
CONTINUOUS
10
0.276909
20
0.165272
11
0.275096
21
0.164386
0
LINE
8
BLACK
6
CONTINUOUS
10
0.275096
20
0.164386
11
0.2749
21
0.164246
0
LINE
8
BLACK
6
CONTINUOUS
10
0.2749
20
0.164246
11
0.274892
21
0.164257
0
LINE
8
BLACK
6
CONTINUOUS
10
0.274892
20
0.164257
11
0.274815
21
0.164199
0
LINE
8
BLACK
6
CONTINUOUS
10
0.274815
20
0.164199
11
0.274823
21
0.164188
0
LINE
8
BLACK
6
CONTINUOUS
10
0.274823
20
0.164188
11
0.274633
21
0.16404
0
LINE
8
BLACK
6
CONTINUOUS
10
0.274633
20
0.16404
11
0.274018
21
0.163372
0
LINE
8
BLACK
6
CONTINUOUS
10
0.274018
20
0.163372
11
0.272248
21
0.162456
0
LINE
8
BLACK
6
CONTINUOUS
10
0.272248
20
0.162456
11
0.271494
21
0.162457
0
LINE
8
BLACK
6
CONTINUOUS
10
0.271494
20
0.162457
11
0.269146
21
0.162766
0
LINE
8
BLACK
6
CONTINUOUS
10
0.269146
20
0.162766
11
0.262974
21
0.161954
0
LINE
8
BLACK
6
CONTINUOUS
10
0.262974
20
0.161954
11
0.262974
21
0.161954
0
LINE
8
BLACK
6
CONTINUOUS
10
0.262974
20
0.161954
11
0.257223
21
0.159571
0
LINE
8
BLACK
6
CONTINUOUS
10
0.257223
20
0.159571
11
0.252284
21
0.155782
0
LINE
8
BLACK
6
CONTINUOUS
10
0.252284
20
0.155782
11
0.252284
21
0.155782
0
LINE
8
BLACK
6
CONTINUOUS
10
0.252284
20
0.155782
11
0.248495
21
0.150843
0
LINE
8
BLACK
6
CONTINUOUS
10
0.248495
20
0.150843
11
0.246113
21
0.145092
0
LINE
8
BLACK
6
CONTINUOUS
10
0.246113
20
0.145092
11
0.246113
21
0.145092
0
LINE
8
BLACK
6
CONTINUOUS
10
0.246113
20
0.145092
11
0.2453
21
0.13892
0
LINE
8
BLACK
6
CONTINUOUS
10
0.2453
20
0.13892
11
0.246113
21
0.132749
0
LINE
8
BLACK
6
CONTINUOUS
10
0.246113
20
0.132749
11
0.246113
21
0.132749
0
LINE
8
BLACK
6
CONTINUOUS
10
0.246113
20
0.132749
11
0.248495
21
0.126998
0
LINE
8
BLACK
6
CONTINUOUS
10
0.248495
20
0.126998
11
0.252284
21
0.122059
0
LINE
8
BLACK
6
CONTINUOUS
10
0.252284
20
0.122059
11
0.252284
21
0.122059
0
LINE
8
BLACK
6
CONTINUOUS
10
0.252284
20
0.122059
11
0.25478
21
0.120144
0
LINE
8
BLACK
6
CONTINUOUS
10
0.25478
20
0.120144
11
0.257223
21
0.118269
0
LINE
8
BLACK
6
CONTINUOUS
10
0.257223
20
0.118269
11
0.262974
21
0.115887
0
LINE
8
BLACK
6
CONTINUOUS
10
0.262974
20
0.115887
11
0.269146
21
0.115075
0
LINE
8
BLACK
6
CONTINUOUS
10
0.269146
20
0.115075
11
0.269146
21
0.115075
0
LINE
8
BLACK
6
CONTINUOUS
10
0.269146
20
0.115075
11
0.269146
21
0.115075
0
LINE
8
BLACK
6
CONTINUOUS
10
0.269146
20
0.115075
11
0.269212
21
0.115075
0
LINE
8
BLACK
6
CONTINUOUS
10
0.269212
20
0.115075
11
0.269249
21
0.115061
0
LINE
8
BLACK
6
CONTINUOUS
10
0.269249
20
0.115061
11
0.269335
21
0.11505
0
LINE
8
BLACK
6
CONTINUOUS
10
0.269335
20
0.11505
11
0.269333
21
0.115031
0
LINE
8
BLACK
6
CONTINUOUS
10
0.269333
20
0.115031
11
0.271085
21
0.114393
0
LINE
8
BLACK
6
CONTINUOUS
10
0.271085
20
0.114393
11
0.272081
21
0.112667
0
LINE
8
BLACK
6
CONTINUOUS
10
0.272081
20
0.112667
11
0.272069
21
0.111593
0
LINE
8
BLACK
6
CONTINUOUS
10
0.272069
20
0.111593
11
0.271634
21
0.109403
0
LINE
8
BLACK
6
CONTINUOUS
10
0.271634
20
0.109403
11
0.271634
21
0.0480772
0
LINE
8
BLACK
6
CONTINUOUS
10
0.271634
20
0.0480772
11
0.272845
21
0.0419885
0
LINE
8
BLACK
6
CONTINUOUS
10
0.272845
20
0.0419885
11
0.272845
21
0.0419881
0
LINE
8
BLACK
6
CONTINUOUS
10
0.272845
20
0.0419881
11
0.275221
21
0.036253
0
LINE
8
BLACK
6
CONTINUOUS
10
0.275221
20
0.036253
11
0.27867
21
0.031091
0
LINE
8
BLACK
6
CONTINUOUS
10
0.27867
20
0.031091
11
0.283059
21
0.0267012
0
LINE
8
BLACK
6
CONTINUOUS
10
0.283059
20
0.0267012
11
0.285545
21
0.0250405
0
LINE
8
BLACK
6
CONTINUOUS
10
0.285545
20
0.0250405
11
0.286723
21
0.0234333
0
LINE
8
BLACK
6
CONTINUOUS
10
0.286723
20
0.0234333
11
0.286593
21
0.0214448
0
LINE
8
BLACK
6
CONTINUOUS
10
0.286593
20
0.0214448
11
0.285215
21
0.0200052
0
LINE
8
BLACK
6
CONTINUOUS
10
0.285215
20
0.0200052
11
0.283926
21
0.0197047
0
LINE
8
BLACK
6
CONTINUOUS
10
0.283926
20
0.0197047
11
0.164533
21
0.0197047
0
LINE
8
BLACK
6
CONTINUOUS
10
0.164533
20
0.0197047
11
0.162661
21
0.0203863
0
LINE
8
BLACK
6
CONTINUOUS
10
0.162661
20
0.0203863
11
0.161791
21
0.0216332
0
LINE
8
BLACK
6
CONTINUOUS
10
0.161791
20
0.0216332
11
0.159696
21
0.0274672
0
LINE
8
BLACK
6
CONTINUOUS
10
0.159696
20
0.0274672
11
0.154919
21
0.0362528
0
LINE
8
BLACK
6
CONTINUOUS
10
0.154919
20
0.0362528
11
0.154785
21
0.0364982
0
LINE
8
BLACK
6
CONTINUOUS
10
0.154785
20
0.0364982
11
0.154756
21
0.036537
0
LINE
8
BLACK
6
CONTINUOUS
10
0.154756
20
0.036537
11
0.148553
21
0.0446739
0
LINE
8
BLACK
6
CONTINUOUS
10
0.148553
20
0.0446739
11
0.141146
21
0.0518023
0
LINE
8
BLACK
6
CONTINUOUS
10
0.141146
20
0.0518023
11
0.138341
21
0.0537753
0
LINE
8
BLACK
6
CONTINUOUS
10
0.138341
20
0.0537753
11
0.132738
21
0.0577166
0
LINE
8
BLACK
6
CONTINUOUS
10
0.132738
20
0.0577166
11
0.132738
21
0.0577166
0
LINE
8
BLACK
6
CONTINUOUS
10
0.132738
20
0.0577166
11
0.123525
21
0.062278
0
LINE
8
BLACK
6
CONTINUOUS
10
0.123525
20
0.062278
11
0.113725
21
0.0653796
0
LINE
8
BLACK
6
CONTINUOUS
10
0.113725
20
0.0653796
11
0.103565
21
0.0669488
0
LINE
8
BLACK
6
CONTINUOUS
10
0.103565
20
0.0669488
11
0.0958592
21
0.0669488
0
LINE
8
BLACK
6
CONTINUOUS
10
0.0958592
20
0.0669488
11
0.09312
21
0.0667385
0
LINE
8
BLACK
6
CONTINUOUS
10
0.09312
20
0.0667385
11
0.0881756
21
0.0663589
0
LINE
8
BLACK
6
CONTINUOUS
10
0.0881756
20
0.0663589
11
0.088175
21
0.0663589
0
LINE
8
BLACK
6
CONTINUOUS
10
0.088175
20
0.0663589
11
0.0781658
21
0.0640166
0
LINE
8
BLACK
6
CONTINUOUS
10
0.0781658
20
0.0640166
11
0.0686315
21
0.0601739
0
LINE
8
BLACK
6
CONTINUOUS
10
0.0686315
20
0.0601739
11
0.0686308
21
0.0601735
0
LINE
8
BLACK
6
CONTINUOUS
10
0.0686308
20
0.0601735
11
0.0597951
21
0.0549207
0
LINE
8
BLACK
6
CONTINUOUS
10
0.0597951
20
0.0549207
11
0.059795
21
0.0549206
0
LINE
8
BLACK
6
CONTINUOUS
10
0.059795
20
0.0549206
11
0.0518639
21
0.0483799
0
LINE
8
BLACK
6
CONTINUOUS
10
0.0518639
20
0.0483799
11
0.0450247
21
0.0407057
0
LINE
8
BLACK
6
CONTINUOUS
10
0.0450247
20
0.0407057
11
0.0450246
21
0.0407055
0
LINE
8
BLACK
6
CONTINUOUS
10
0.0450246
20
0.0407055
11
0.0394367
21
0.0320769
0
LINE
8
BLACK
6
CONTINUOUS
10
0.0394367
20
0.0320769
11
0.0394367
21
0.0320769
0
LINE
8
BLACK
6
CONTINUOUS
10
0.0394367
20
0.0320769
11
0.0352317
21
0.0226969
0
LINE
8
BLACK
6
CONTINUOUS
10
0.0352317
20
0.0226969
11
0.0352316
21
0.0226965
0
LINE
8
BLACK
6
CONTINUOUS
10
0.0352316
20
0.0226965
11
0.0352316
21
0.0226964
0
LINE
8
BLACK
6
CONTINUOUS
10
0.0352316
20
0.0226964
11
0.0352101
21
0.0226181
0
LINE
8
BLACK
6
CONTINUOUS
10
0.0352101
20
0.0226181
11
0.0349979
21
0.0218461
0
LINE
8
BLACK
6
CONTINUOUS
10
0.0349979
20
0.0218461
11
0.0338444
21
0.020221
0
LINE
8
BLACK
6
CONTINUOUS
10
0.0338444
20
0.020221
11
0.0321887
21
0.0197047
0
LINE
8
BLACK
6
CONTINUOUS
10
0.0321887
20
0.0197047
11
0.0226181
21
0.0197047
0
LINE
8
BLACK
6
CONTINUOUS
10
0.0226181
20
0.0197047
11
0.0207454
21
0.0203863
0
LINE
8
BLACK
6
CONTINUOUS
10
0.0207454
20
0.0203863
11
0.019749
21
0.0221122
0
LINE
8
BLACK
6
CONTINUOUS
10
0.019749
20
0.0221122
11
0.0197047
21
0.0226181
0
LINE
8
BLACK
6
CONTINUOUS
10
0.0197047
20
0.0226181
11
0.0197047
21
0.106024
0
LINE
8
BLACK
6
CONTINUOUS
10
0.0197047
20
0.106024
11
0.0203863
21
0.107896
0
LINE
8
BLACK
6
CONTINUOUS
10
0.0203863
20
0.107896
11
0.0221122
21
0.108893
0
LINE
8
BLACK
6
CONTINUOUS
10
0.0221122
20
0.108893
11
0.0226181
21
0.108937
0
LINE
8
BLACK
6
CONTINUOUS
10
0.0226181
20
0.108937
11
0.0548504
21
0.108937
0
LINE
8
BLACK
6
CONTINUOUS
10
0.0548504
20
0.108937
11
0.0548504
21
0.128937
0
LINE
8
BLACK
6
CONTINUOUS
10
0.0548504
20
0.128937
11
0.0215433
21
0.128937
0
LINE
8
BLACK
6
CONTINUOUS
10
0.0215433
20
0.128937
11
0.0177767
21
0.129686
0
LINE
8
BLACK
6
CONTINUOUS
10
0.0177767
20
0.129686
11
0.0145836
21
0.13182
0
LINE
8
BLACK
6
CONTINUOUS
10
0.0145836
20
0.13182
11
0.01245
21
0.135013
0
LINE
8
BLACK
6
CONTINUOUS
10
0.01245
20
0.135013
11
0.0117008
21
0.13878
0
LINE
8
BLACK
6
CONTINUOUS
10
0.0117008
20
0.13878
11
0.0117008
21
0.158465
0
LINE
8
BLACK
6
CONTINUOUS
10
0.0117008
20
0.158465
11
0.01245
21
0.162231
0
LINE
8
BLACK
6
CONTINUOUS
10
0.01245
20
0.162231
11
0.0145836
21
0.165424
0
LINE
8
BLACK
6
CONTINUOUS
10
0.0145836
20
0.165424
11
0.0177767
21
0.167558
0
LINE
8
BLACK
6
CONTINUOUS
10
0.0177767
20
0.167558
11
0.0215433
21
0.168307
0
LINE
8
BLACK
6
CONTINUOUS
10
0.0215433
20
0.168307
11
0.0548504
21
0.168307
0
LINE
8
BLACK
6
CONTINUOUS
10
0.0548504
20
0.168307
11
0.0548504
21
0.188307
0
LINE
8
BLACK
6
CONTINUOUS
10
0.0548504
20
0.188307
11
0.0226181
21
0.188307
0
LINE
8
BLACK
6
CONTINUOUS
10
0.0226181
20
0.188307
11
0.0207454
21
0.188989
0
LINE
8
BLACK
6
CONTINUOUS
10
0.0207454
20
0.188989
11
0.019749
21
0.190715
0
LINE
8
BLACK
6
CONTINUOUS
10
0.019749
20
0.190715
11
0.0197047
21
0.19122
0
LINE
8
BLACK
6
CONTINUOUS
10
0.0197047
20
0.19122
11
0.0197047
21
0.211457
0
LINE
8
BLACK
6
CONTINUOUS
10
0.0197047
20
0.211457
11
0.0197047
21
0.37
0
LINE
8
BLACK
6
CONTINUOUS
10
0.0197047
20
0.37
11
0.0197047
21
0.399331
0
LINE
8
BLACK
6
CONTINUOUS
10
0.0197047
20
0.399331
11
0.0203863
21
0.401203
0
LINE
8
BLACK
6
CONTINUOUS
10
0.0203863
20
0.401203
11
0.0221122
21
0.4022
0
LINE
8
BLACK
6
CONTINUOUS
10
0.0221122
20
0.4022
11
0.0226181
21
0.402244
0
LINE
8
BLACK
6
CONTINUOUS
10
0.0226181
20
0.402244
11
0.0548504
21
0.402244
0
LINE
8
BLACK
6
CONTINUOUS
10
0.0548504
20
0.402244
11
0.0548504
21
0.422244
0
LINE
8
BLACK
6
CONTINUOUS
10
0.0548504
20
0.422244
11
0.0215433
21
0.422244
0
LINE
8
BLACK
6
CONTINUOUS
10
0.0215433
20
0.422244
11
0.0177767
21
0.422993
0
LINE
8
BLACK
6
CONTINUOUS
10
0.0177767
20
0.422993
11
0.0145836
21
0.425127
0
LINE
8
BLACK
6
CONTINUOUS
10
0.0145836
20
0.425127
11
0.01245
21
0.42832
0
LINE
8
BLACK
6
CONTINUOUS
10
0.01245
20
0.42832
11
0.0117008
21
0.432087
0
LINE
8
BLACK
6
CONTINUOUS
10
0.0117008
20
0.432087
11
0.0117008
21
0.451772
0
LINE
8
BLACK
6
CONTINUOUS
10
0.0117008
20
0.451772
11
0.01245
21
0.455538
0
LINE
8
BLACK
6
CONTINUOUS
10
0.01245
20
0.455538
11
0.0145836
21
0.458731
0
LINE
8
BLACK
6
CONTINUOUS
10
0.0145836
20
0.458731
11
0.0177767
21
0.460865
0
LINE
8
BLACK
6
CONTINUOUS
10
0.0177767
20
0.460865
11
0.0215433
21
0.461614
0
LINE
8
BLACK
6
CONTINUOUS
10
0.0215433
20
0.461614
11
0.0548504
21
0.461614
0
LINE
8
BLACK
6
CONTINUOUS
10
0.0548504
20
0.461614
11
0.0548504
21
0.481614
0
LINE
8
BLACK
6
CONTINUOUS
10
0.0548504
20
0.481614
11
0.0226181
21
0.481614
0
LINE
8
BLACK
6
CONTINUOUS
10
0.0226181
20
0.481614
11
0.0207454
21
0.482296
0
LINE
8
BLACK
6
CONTINUOUS
10
0.0207454
20
0.482296
11
0.019749
21
0.484022
0
LINE
8
BLACK
6
CONTINUOUS
10
0.019749
20
0.484022
11
0.0197047
21
0.484528
0
LINE
8
BLACK
6
CONTINUOUS
10
0.0197047
20
0.484528
11
0.0197047
21
0.567933
0
LINE
8
BLACK
6
CONTINUOUS
10
0.0197047
20
0.567933
11
0.0203863
21
0.569806
0
LINE
8
BLACK
6
CONTINUOUS
10
0.0203863
20
0.569806
11
0.0221122
21
0.570802
0
LINE
8
BLACK
6
CONTINUOUS
10
0.0221122
20
0.570802
11
0.0226181
21
0.570846
0
LINE
8
BLACK
6
CONTINUOUS
10
0.0226181
20
0.570846
11
0.0323172
21
0.570846
0
LINE
8
BLACK
6
CONTINUOUS
10
0.0323172
20
0.570846
11
0.0341899
21
0.570165
0
LINE
8
BLACK
6
CONTINUOUS
10
0.117251
20
0.135013
11
0.115117
21
0.13182
0
LINE
8
BLACK
6
CONTINUOUS
10
0.115117
20
0.13182
11
0.111924
21
0.129686
0
LINE
8
BLACK
6
CONTINUOUS
10
0.111924
20
0.129686
11
0.108157
21
0.128937
0
LINE
8
BLACK
6
CONTINUOUS
10
0.108157
20
0.128937
11
0.0748504
21
0.128937
0
LINE
8
BLACK
6
CONTINUOUS
10
0.0748504
20
0.128937
11
0.0748504
21
0.108937
0
LINE
8
BLACK
6
CONTINUOUS
10
0.0748504
20
0.108937
11
0.110146
21
0.108937
0
LINE
8
BLACK
6
CONTINUOUS
10
0.110146
20
0.108937
11
0.110146
21
0.108937
0
LINE
8
BLACK
6
CONTINUOUS
10
0.110146
20
0.108937
11
0.114233
21
0.109355
0
LINE
8
BLACK
6
CONTINUOUS
10
0.114233
20
0.109355
11
0.120855
21
0.111549
0
LINE
8
BLACK
6
CONTINUOUS
10
0.120855
20
0.111549
11
0.126793
21
0.115211
0
LINE
8
BLACK
6
CONTINUOUS
10
0.126793
20
0.115211
11
0.126793
21
0.115211
0
LINE
8
BLACK
6
CONTINUOUS
10
0.126793
20
0.115211
11
0.131726
21
0.120144
0
LINE
8
BLACK
6
CONTINUOUS
10
0.131726
20
0.120144
11
0.131726
21
0.120144
0
LINE
8
BLACK
6
CONTINUOUS
10
0.131726
20
0.120144
11
0.135388
21
0.126082
0
LINE
8
BLACK
6
CONTINUOUS
10
0.135388
20
0.126082
11
0.137582
21
0.132704
0
LINE
8
BLACK
6
CONTINUOUS
10
0.137582
20
0.132704
11
0.138
21
0.136791
0
LINE
8
BLACK
6
CONTINUOUS
10
0.138
20
0.136791
11
0.138
21
0.136791
0
LINE
8
BLACK
6
CONTINUOUS
10
0.138
20
0.136791
11
0.138
21
0.138622
0
LINE
8
BLACK
6
CONTINUOUS
10
0.138
20
0.138622
11
0.117969
21
0.138622
0
LINE
8
BLACK
6
CONTINUOUS
10
0.117969
20
0.138622
11
0.117251
21
0.135013
0
LINE
8
BLACK
6
CONTINUOUS
10
0.0748504
20
0.168307
11
0.108157
21
0.168307
0
LINE
8
BLACK
6
CONTINUOUS
10
0.108157
20
0.168307
11
0.111924
21
0.167558
0
LINE
8
BLACK
6
CONTINUOUS
10
0.111924
20
0.167558
11
0.115117
21
0.165424
0
LINE
8
BLACK
6
CONTINUOUS
10
0.115117
20
0.165424
11
0.117251
21
0.162231
0
LINE
8
BLACK
6
CONTINUOUS
10
0.117251
20
0.162231
11
0.117969
21
0.158622
0
LINE
8
BLACK
6
CONTINUOUS
10
0.117969
20
0.158622
11
0.138
21
0.158622
0
LINE
8
BLACK
6
CONTINUOUS
10
0.138
20
0.158622
11
0.138
21
0.160453
0
LINE
8
BLACK
6
CONTINUOUS
10
0.138
20
0.160453
11
0.138
21
0.160453
0
LINE
8
BLACK
6
CONTINUOUS
10
0.138
20
0.160453
11
0.137582
21
0.16454
0
LINE
8
BLACK
6
CONTINUOUS
10
0.137582
20
0.16454
11
0.135388
21
0.171162
0
LINE
8
BLACK
6
CONTINUOUS
10
0.135388
20
0.171162
11
0.131726
21
0.1771
0
LINE
8
BLACK
6
CONTINUOUS
10
0.131726
20
0.1771
11
0.131726
21
0.1771
0
LINE
8
BLACK
6
CONTINUOUS
10
0.131726
20
0.1771
11
0.126793
21
0.182033
0
LINE
8
BLACK
6
CONTINUOUS
10
0.126793
20
0.182033
11
0.126793
21
0.182033
0
LINE
8
BLACK
6
CONTINUOUS
10
0.126793
20
0.182033
11
0.120855
21
0.185695
0
LINE
8
BLACK
6
CONTINUOUS
10
0.120855
20
0.185695
11
0.114233
21
0.18789
0
LINE
8
BLACK
6
CONTINUOUS
10
0.114233
20
0.18789
11
0.110146
21
0.188307
0
LINE
8
BLACK
6
CONTINUOUS
10
0.110146
20
0.188307
11
0.0748504
21
0.188307
0
LINE
8
BLACK
6
CONTINUOUS
10
0.0748504
20
0.188307
11
0.0748504
21
0.168307
0
LINE
8
BLACK
6
CONTINUOUS
10
0.139312
20
0.205181
11
0.142644
21
0.199547
0
LINE
8
BLACK
6
CONTINUOUS
10
0.142644
20
0.199547
11
0.147272
21
0.194919
0
LINE
8
BLACK
6
CONTINUOUS
10
0.147272
20
0.194919
11
0.152905
21
0.191587
0
LINE
8
BLACK
6
CONTINUOUS
10
0.152905
20
0.191587
11
0.159191
21
0.189761
0
LINE
8
BLACK
6
CONTINUOUS
10
0.159191
20
0.189761
11
0.160659
21
0.189646
0
LINE
8
BLACK
6
CONTINUOUS
10
0.160659
20
0.189646
11
0.180835
21
0.189646
0
LINE
8
BLACK
6
CONTINUOUS
10
0.180835
20
0.189646
11
0.180835
21
0.189646
0
LINE
8
BLACK
6
CONTINUOUS
10
0.180835
20
0.189646
11
0.180835
21
0.209646
0
LINE
8
BLACK
6
CONTINUOUS
10
0.180835
20
0.209646
11
0.163276
21
0.209646
0
LINE
8
BLACK
6
CONTINUOUS
10
0.163276
20
0.209646
11
0.161016
21
0.210095
0
LINE
8
BLACK
6
CONTINUOUS
10
0.161016
20
0.210095
11
0.1591
21
0.211375
0
LINE
8
BLACK
6
CONTINUOUS
10
0.1591
20
0.211375
11
0.159045
21
0.211457
0
LINE
8
BLACK
6
CONTINUOUS
10
0.159045
20
0.211457
11
0.137488
21
0.211457
0
LINE
8
BLACK
6
CONTINUOUS
10
0.137488
20
0.211457
11
0.139312
21
0.205181
0
LINE
8
BLACK
6
CONTINUOUS
10
0.22257
20
0.211375
11
0.220654
21
0.210095
0
LINE
8
BLACK
6
CONTINUOUS
10
0.220654
20
0.210095
11
0.218394
21
0.209646
0
LINE
8
BLACK
6
CONTINUOUS
10
0.218394
20
0.209646
11
0.200835
21
0.209646
0
LINE
8
BLACK
6
CONTINUOUS
10
0.200835
20
0.209646
11
0.200835
21
0.189646
0
LINE
8
BLACK
6
CONTINUOUS
10
0.200835
20
0.189646
11
0.22101
21
0.189646
0
LINE
8
BLACK
6
CONTINUOUS
10
0.22101
20
0.189646
11
0.222478
21
0.189761
0
LINE
8
BLACK
6
CONTINUOUS
10
0.222478
20
0.189761
11
0.228764
21
0.191587
0
LINE
8
BLACK
6
CONTINUOUS
10
0.228764
20
0.191587
11
0.234398
21
0.194919
0
LINE
8
BLACK
6
CONTINUOUS
10
0.234398
20
0.194919
11
0.239026
21
0.199547
0
LINE
8
BLACK
6
CONTINUOUS
10
0.239026
20
0.199547
11
0.242358
21
0.205181
0
LINE
8
BLACK
6
CONTINUOUS
10
0.242358
20
0.205181
11
0.244181
21
0.211457
0
LINE
8
BLACK
6
CONTINUOUS
10
0.244181
20
0.211457
11
0.222624
21
0.211457
0
LINE
8
BLACK
6
CONTINUOUS
10
0.222624
20
0.211457
11
0.22257
21
0.211375
0
LINE
8
BLACK
6
CONTINUOUS
10
0.243828
20
0.393033
11
0.243828
21
0.393033
0
LINE
8
BLACK
6
CONTINUOUS
10
0.243828
20
0.393033
11
0.238077
21
0.390651
0
LINE
8
BLACK
6
CONTINUOUS
10
0.238077
20
0.390651
11
0.233139
21
0.386862
0
LINE
8
BLACK
6
CONTINUOUS
10
0.233139
20
0.386862
11
0.233139
21
0.386862
0
LINE
8
BLACK
6
CONTINUOUS
10
0.233139
20
0.386862
11
0.233138
21
0.386861
0
LINE
8
BLACK
6
CONTINUOUS
10
0.233138
20
0.386861
11
0.232479
21
0.386002
0
LINE
8
BLACK
6
CONTINUOUS
10
0.232479
20
0.386002
11
0.230798
21
0.384931
0
LINE
8
BLACK
6
CONTINUOUS
10
0.230798
20
0.384931
11
0.230168
21
0.384862
0
LINE
8
BLACK
6
CONTINUOUS
10
0.230168
20
0.384862
11
0.229253
21
0.384862
0
LINE
8
BLACK
6
CONTINUOUS
10
0.229253
20
0.384862
11
0.227381
21
0.385544
0
LINE
8
BLACK
6
CONTINUOUS
10
0.227381
20
0.385544
11
0.227193
21
0.385716
0
LINE
8
BLACK
6
CONTINUOUS
10
0.227193
20
0.385716
11
0.226523
21
0.386386
0
LINE
8
BLACK
6
CONTINUOUS
10
0.226523
20
0.386386
11
0.222386
21
0.388408
0
LINE
8
BLACK
6
CONTINUOUS
10
0.222386
20
0.388408
11
0.219703
21
0.388799
0
LINE
8
BLACK
6
CONTINUOUS
10
0.219703
20
0.388799
11
0.219703
21
0.388799
0
LINE
8
BLACK
6
CONTINUOUS
10
0.219703
20
0.388799
11
0.161966
21
0.388799
0
LINE
8
BLACK
6
CONTINUOUS
10
0.161966
20
0.388799
11
0.161966
21
0.388799
0
LINE
8
BLACK
6
CONTINUOUS
10
0.161966
20
0.388799
11
0.159284
21
0.388408
0
LINE
8
BLACK
6
CONTINUOUS
10
0.159284
20
0.388408
11
0.159284
21
0.388408
0
LINE
8
BLACK
6
CONTINUOUS
10
0.159284
20
0.388408
11
0.155146
21
0.386386
0
LINE
8
BLACK
6
CONTINUOUS
10
0.155146
20
0.386386
11
0.15504
21
0.38631
0
LINE
8
BLACK
6
CONTINUOUS
10
0.15504
20
0.38631
11
0.153347
21
0.385768
0
LINE
8
BLACK
6
CONTINUOUS
10
0.153347
20
0.385768
11
0.129137
21
0.385768
0
LINE
8
BLACK
6
CONTINUOUS
10
0.129137
20
0.385768
11
0.127265
21
0.386449
0
LINE
8
BLACK
6
CONTINUOUS
10
0.127265
20
0.386449
11
0.126998
21
0.386728
0
LINE
8
BLACK
6
CONTINUOUS
10
0.126998
20
0.386728
11
0.126996
21
0.386727
0
LINE
8
BLACK
6
CONTINUOUS
10
0.126996
20
0.386727
11
0.126861
21
0.386862
0
LINE
8
BLACK
6
CONTINUOUS
10
0.126861
20
0.386862
11
0.121923
21
0.390651
0
LINE
8
BLACK
6
CONTINUOUS
10
0.121923
20
0.390651
11
0.116172
21
0.393033
0
LINE
8
BLACK
6
CONTINUOUS
10
0.116172
20
0.393033
11
0.11
21
0.393846
0
LINE
8
BLACK
6
CONTINUOUS
10
0.11
20
0.393846
11
0.103828
21
0.393033
0
LINE
8
BLACK
6
CONTINUOUS
10
0.103828
20
0.393033
11
0.103828
21
0.393033
0
LINE
8
BLACK
6
CONTINUOUS
10
0.103828
20
0.393033
11
0.0980771
21
0.390651
0
LINE
8
BLACK
6
CONTINUOUS
10
0.0980771
20
0.390651
11
0.0931386
21
0.386862
0
LINE
8
BLACK
6
CONTINUOUS
10
0.0931386
20
0.386862
11
0.0931384
21
0.386861
0
LINE
8
BLACK
6
CONTINUOUS
10
0.0931384
20
0.386861
11
0.089349
21
0.381923
0
LINE
8
BLACK
6
CONTINUOUS
10
0.089349
20
0.381923
11
0.0869667
21
0.376172
0
LINE
8
BLACK
6
CONTINUOUS
10
0.0869667
20
0.376172
11
0.0869667
21
0.376172
0
LINE
8
BLACK
6
CONTINUOUS
10
0.0869667
20
0.376172
11
0.0861543
21
0.37
0
LINE
8
BLACK
6
CONTINUOUS
10
0.0861543
20
0.37
11
0.0869667
21
0.363828
0
LINE
8
BLACK
6
CONTINUOUS
10
0.0869667
20
0.363828
11
0.0869667
21
0.363828
0
LINE
8
BLACK
6
CONTINUOUS
10
0.0869667
20
0.363828
11
0.089349
21
0.358077
0
LINE
8
BLACK
6
CONTINUOUS
10
0.089349
20
0.358077
11
0.0931384
21
0.353139
0
LINE
8
BLACK
6
CONTINUOUS
10
0.0931384
20
0.353139
11
0.0931386
21
0.353138
0
LINE
8
BLACK
6
CONTINUOUS
10
0.0931386
20
0.353138
11
0.0940052
21
0.352473
0
LINE
8
BLACK
6
CONTINUOUS
10
0.0940052
20
0.352473
11
0.0980771
21
0.349349
0
LINE
8
BLACK
6
CONTINUOUS
10
0.0980771
20
0.349349
11
0.103828
21
0.346967
0
LINE
8
BLACK
6
CONTINUOUS
10
0.103828
20
0.346967
11
0.11
21
0.346154
0
LINE
8
BLACK
6
CONTINUOUS
10
0.11
20
0.346154
11
0.116172
21
0.346967
0
LINE
8
BLACK
6
CONTINUOUS
10
0.116172
20
0.346967
11
0.121923
21
0.349349
0
LINE
8
BLACK
6
CONTINUOUS
10
0.121923
20
0.349349
11
0.126861
21
0.353139
0
LINE
8
BLACK
6
CONTINUOUS
10
0.126861
20
0.353139
11
0.126862
21
0.353139
0
LINE
8
BLACK
6
CONTINUOUS
10
0.126862
20
0.353139
11
0.126996
21
0.353273
0
LINE
8
BLACK
6
CONTINUOUS
10
0.126996
20
0.353273
11
0.127041
21
0.353229
0
LINE
8
BLACK
6
CONTINUOUS
10
0.127041
20
0.353229
11
0.128507
21
0.354163
0
LINE
8
BLACK
6
CONTINUOUS
10
0.128507
20
0.354163
11
0.129137
21
0.354232
0
LINE
8
BLACK
6
CONTINUOUS
10
0.129137
20
0.354232
11
0.151511
21
0.354232
0
LINE
8
BLACK
6
CONTINUOUS
10
0.151511
20
0.354232
11
0.153383
21
0.353551
0
LINE
8
BLACK
6
CONTINUOUS
10
0.153383
20
0.353551
11
0.153571
21
0.353379
0
LINE
8
BLACK
6
CONTINUOUS
10
0.153571
20
0.353379
11
0.155146
21
0.351803
0
LINE
8
BLACK
6
CONTINUOUS
10
0.155146
20
0.351803
11
0.159284
21
0.349781
0
LINE
8
BLACK
6
CONTINUOUS
10
0.159284
20
0.349781
11
0.161966
21
0.34939
0
LINE
8
BLACK
6
CONTINUOUS
10
0.161966
20
0.34939
11
0.161966
21
0.34939
0
LINE
8
BLACK
6
CONTINUOUS
10
0.161966
20
0.34939
11
0.219703
21
0.34939
0
LINE
8
BLACK
6
CONTINUOUS
10
0.219703
20
0.34939
11
0.219703
21
0.34939
0
LINE
8
BLACK
6
CONTINUOUS
10
0.219703
20
0.34939
11
0.222386
21
0.349781
0
LINE
8
BLACK
6
CONTINUOUS
10
0.222386
20
0.349781
11
0.226523
21
0.351803
0
LINE
8
BLACK
6
CONTINUOUS
10
0.226523
20
0.351803
11
0.227193
21
0.352473
0
LINE
8
BLACK
6
CONTINUOUS
10
0.227193
20
0.352473
11
0.228999
21
0.353316
0
LINE
8
BLACK
6
CONTINUOUS
10
0.228999
20
0.353316
11
0.229253
21
0.353327
0
LINE
8
BLACK
6
CONTINUOUS
10
0.229253
20
0.353327
11
0.231904
21
0.353327
0
LINE
8
BLACK
6
CONTINUOUS
10
0.231904
20
0.353327
11
0.233678
21
0.352725
0
LINE
8
BLACK
6
CONTINUOUS
10
0.233678
20
0.352725
11
0.234879
21
0.351803
0
LINE
8
BLACK
6
CONTINUOUS
10
0.234879
20
0.351803
11
0.238077
21
0.349349
0
LINE
8
BLACK
6
CONTINUOUS
10
0.238077
20
0.349349
11
0.243828
21
0.346967
0
LINE
8
BLACK
6
CONTINUOUS
10
0.243828
20
0.346967
11
0.25
21
0.346154
0
LINE
8
BLACK
6
CONTINUOUS
10
0.25
20
0.346154
11
0.256172
21
0.346967
0
LINE
8
BLACK
6
CONTINUOUS
10
0.256172
20
0.346967
11
0.261923
21
0.349349
0
LINE
8
BLACK
6
CONTINUOUS
10
0.261923
20
0.349349
11
0.266861
21
0.353139
0
LINE
8
BLACK
6
CONTINUOUS
10
0.266861
20
0.353139
11
0.270651
21
0.358077
0
LINE
8
BLACK
6
CONTINUOUS
10
0.270651
20
0.358077
11
0.273033
21
0.363828
0
LINE
8
BLACK
6
CONTINUOUS
10
0.273033
20
0.363828
11
0.273846
21
0.37
0
LINE
8
BLACK
6
CONTINUOUS
10
0.273846
20
0.37
11
0.273033
21
0.376172
0
LINE
8
BLACK
6
CONTINUOUS
10
0.273033
20
0.376172
11
0.270651
21
0.381923
0
LINE
8
BLACK
6
CONTINUOUS
10
0.270651
20
0.381923
11
0.268396
21
0.384862
0
LINE
8
BLACK
6
CONTINUOUS
10
0.268396
20
0.384862
11
0.266862
21
0.386861
0
LINE
8
BLACK
6
CONTINUOUS
10
0.266862
20
0.386861
11
0.266861
21
0.386862
0
LINE
8
BLACK
6
CONTINUOUS
10
0.266861
20
0.386862
11
0.261923
21
0.390651
0
LINE
8
BLACK
6
CONTINUOUS
10
0.261923
20
0.390651
11
0.256172
21
0.393033
0
LINE
8
BLACK
6
CONTINUOUS
10
0.256172
20
0.393033
11
0.25
21
0.393846
0
LINE
8
BLACK
6
CONTINUOUS
10
0.25
20
0.393846
11
0.243828
21
0.393033
0
LINE
8
BLACK
6
CONTINUOUS
10
0.117251
20
0.42832
11
0.115117
21
0.425127
0
LINE
8
BLACK
6
CONTINUOUS
10
0.115117
20
0.425127
11
0.111924
21
0.422993
0
LINE
8
BLACK
6
CONTINUOUS
10
0.111924
20
0.422993
11
0.108157
21
0.422244
0
LINE
8
BLACK
6
CONTINUOUS
10
0.108157
20
0.422244
11
0.0748504
21
0.422244
0
LINE
8
BLACK
6
CONTINUOUS
10
0.0748504
20
0.422244
11
0.0748504
21
0.402244
0
LINE
8
BLACK
6
CONTINUOUS
10
0.0748504
20
0.402244
11
0.110146
21
0.402244
0
LINE
8
BLACK
6
CONTINUOUS
10
0.110146
20
0.402244
11
0.110146
21
0.402244
0
LINE
8
BLACK
6
CONTINUOUS
10
0.110146
20
0.402244
11
0.114233
21
0.402662
0
LINE
8
BLACK
6
CONTINUOUS
10
0.114233
20
0.402662
11
0.120855
21
0.404856
0
LINE
8
BLACK
6
CONTINUOUS
10
0.120855
20
0.404856
11
0.126793
21
0.408518
0
LINE
8
BLACK
6
CONTINUOUS
10
0.126793
20
0.408518
11
0.126793
21
0.408518
0
LINE
8
BLACK
6
CONTINUOUS
10
0.126793
20
0.408518
11
0.131726
21
0.413451
0
LINE
8
BLACK
6
CONTINUOUS
10
0.131726
20
0.413451
11
0.131726
21
0.413451
0
LINE
8
BLACK
6
CONTINUOUS
10
0.131726
20
0.413451
11
0.135388
21
0.419389
0
LINE
8
BLACK
6
CONTINUOUS
10
0.135388
20
0.419389
11
0.137582
21
0.426011
0
LINE
8
BLACK
6
CONTINUOUS
10
0.137582
20
0.426011
11
0.138
21
0.430098
0
LINE
8
BLACK
6
CONTINUOUS
10
0.138
20
0.430098
11
0.138
21
0.430098
0
LINE
8
BLACK
6
CONTINUOUS
10
0.138
20
0.430098
11
0.138
21
0.431929
0
LINE
8
BLACK
6
CONTINUOUS
10
0.138
20
0.431929
11
0.117969
21
0.431929
0
LINE
8
BLACK
6
CONTINUOUS
10
0.117969
20
0.431929
11
0.117251
21
0.42832
0
LINE
8
BLACK
6
CONTINUOUS
10
0.0748504
20
0.461614
11
0.108157
21
0.461614
0
LINE
8
BLACK
6
CONTINUOUS
10
0.108157
20
0.461614
11
0.111924
21
0.460865
0
LINE
8
BLACK
6
CONTINUOUS
10
0.111924
20
0.460865
11
0.115117
21
0.458731
0
LINE
8
BLACK
6
CONTINUOUS
10
0.115117
20
0.458731
11
0.117251
21
0.455538
0
LINE
8
BLACK
6
CONTINUOUS
10
0.117251
20
0.455538
11
0.117969
21
0.451929
0
LINE
8
BLACK
6
CONTINUOUS
10
0.117969
20
0.451929
11
0.138
21
0.451929
0
LINE
8
BLACK
6
CONTINUOUS
10
0.138
20
0.451929
11
0.138
21
0.45376
0
LINE
8
BLACK
6
CONTINUOUS
10
0.138
20
0.45376
11
0.138
21
0.45376
0
LINE
8
BLACK
6
CONTINUOUS
10
0.138
20
0.45376
11
0.137582
21
0.457847
0
LINE
8
BLACK
6
CONTINUOUS
10
0.137582
20
0.457847
11
0.135388
21
0.464469
0
LINE
8
BLACK
6
CONTINUOUS
10
0.135388
20
0.464469
11
0.131726
21
0.470407
0
LINE
8
BLACK
6
CONTINUOUS
10
0.131726
20
0.470407
11
0.131726
21
0.470407
0
LINE
8
BLACK
6
CONTINUOUS
10
0.131726
20
0.470407
11
0.126793
21
0.47534
0
LINE
8
BLACK
6
CONTINUOUS
10
0.126793
20
0.47534
11
0.126793
21
0.47534
0
LINE
8
BLACK
6
CONTINUOUS
10
0.126793
20
0.47534
11
0.120855
21
0.479002
0
LINE
8
BLACK
6
CONTINUOUS
10
0.120855
20
0.479002
11
0.114233
21
0.481197
0
LINE
8
BLACK
6
CONTINUOUS
10
0.114233
20
0.481197
11
0.110146
21
0.481614
0
LINE
8
BLACK
6
CONTINUOUS
10
0.110146
20
0.481614
11
0.0748504
21
0.481614
0
LINE
8
BLACK
6
CONTINUOUS
10
0.0748504
20
0.481614
11
0.0748504
21
0.461614
0
LINE
8
BLACK
6
CONTINUOUS
10
0.546866
20
0.176107
11
0.551256
21
0.17387
0
LINE
8
BLACK
6
CONTINUOUS
10
0.551256
20
0.17387
11
0.55474
21
0.170386
0
LINE
8
BLACK
6
CONTINUOUS
10
0.55474
20
0.170386
11
0.556977
21
0.165996
0
LINE
8
BLACK
6
CONTINUOUS
10
0.556977
20
0.165996
11
0.557748
21
0.16113
0
LINE
8
BLACK
6
CONTINUOUS
10
0.557748
20
0.16113
11
0.556977
21
0.156263
0
LINE
8
BLACK
6
CONTINUOUS
10
0.556977
20
0.156263
11
0.55474
21
0.151873
0
LINE
8
BLACK
6
CONTINUOUS
10
0.55474
20
0.151873
11
0.551256
21
0.148389
0
LINE
8
BLACK
6
CONTINUOUS
10
0.551256
20
0.148389
11
0.546866
21
0.146153
0
LINE
8
BLACK
6
CONTINUOUS
10
0.546866
20
0.146153
11
0.542
21
0.145382
0
LINE
8
BLACK
6
CONTINUOUS
10
0.542
20
0.145382
11
0.537134
21
0.146153
0
LINE
8
BLACK
6
CONTINUOUS
10
0.537134
20
0.146153
11
0.535968
21
0.146746
0
LINE
8
BLACK
6
CONTINUOUS
10
0.535968
20
0.146746
11
0.467046
21
0.0778242
0
LINE
8
BLACK
6
CONTINUOUS
10
0.467046
20
0.0778242
11
0.466373
21
0.0774355
0
LINE
8
BLACK
6
CONTINUOUS
10
0.466373
20
0.0774355
11
0.465823
21
0.0768857
0
LINE
8
BLACK
6
CONTINUOUS
10
0.465823
20
0.0768857
11
0.465072
21
0.0766844
0
LINE
8
BLACK
6
CONTINUOUS
10
0.465072
20
0.0766844
11
0.464399
21
0.0762957
0
LINE
8
BLACK
6
CONTINUOUS
10
0.464399
20
0.0762957
11
0.463621
21
0.0762957
0
LINE
8
BLACK
6
CONTINUOUS
10
0.463621
20
0.0762957
11
0.463539
21
0.0762737
0
LINE
8
BLACK
6
CONTINUOUS
10
0.463539
20
0.0762737
11
0.46174
21
0.0727435
0
LINE
8
BLACK
6
CONTINUOUS
10
0.46174
20
0.0727435
11
0.458256
21
0.0692596
0
LINE
8
BLACK
6
CONTINUOUS
10
0.458256
20
0.0692596
11
0.453866
21
0.0670227
0
LINE
8
BLACK
6
CONTINUOUS
10
0.453866
20
0.0670227
11
0.449
21
0.066252
0
LINE
8
BLACK
6
CONTINUOUS
10
0.449
20
0.066252
11
0.444134
21
0.0670227
0
LINE
8
BLACK
6
CONTINUOUS
10
0.444134
20
0.0670227
11
0.439744
21
0.0692596
0
LINE
8
BLACK
6
CONTINUOUS
10
0.439744
20
0.0692596
11
0.43626
21
0.0727435
0
LINE
8
BLACK
6
CONTINUOUS
10
0.43626
20
0.0727435
11
0.434023
21
0.0771336
0
LINE
8
BLACK
6
CONTINUOUS
10
0.434023
20
0.0771336
11
0.433252
21
0.082
0
LINE
8
BLACK
6
CONTINUOUS
10
0.433252
20
0.082
11
0.434023
21
0.0868664
0
LINE
8
BLACK
6
CONTINUOUS
10
0.434023
20
0.0868664
11
0.43626
21
0.0912565
0
LINE
8
BLACK
6
CONTINUOUS
10
0.43626
20
0.0912565
11
0.439744
21
0.0947404
0
LINE
8
BLACK
6
CONTINUOUS
10
0.439744
20
0.0947404
11
0.444134
21
0.0969773
0
LINE
8
BLACK
6
CONTINUOUS
10
0.444134
20
0.0969773
11
0.449
21
0.097748
0
LINE
8
BLACK
6
CONTINUOUS
10
0.449
20
0.097748
11
0.453866
21
0.0969773
0
LINE
8
BLACK
6
CONTINUOUS
10
0.453866
20
0.0969773
11
0.458256
21
0.0947404
0
LINE
8
BLACK
6
CONTINUOUS
10
0.458256
20
0.0947404
11
0.46174
21
0.0912565
0
LINE
8
BLACK
6
CONTINUOUS
10
0.46174
20
0.0912565
11
0.462427
21
0.0899087
0
LINE
8
BLACK
6
CONTINUOUS
10
0.462427
20
0.0899087
11
0.527616
21
0.155098
0
LINE
8
BLACK
6
CONTINUOUS
10
0.527616
20
0.155098
11
0.527023
21
0.156263
0
LINE
8
BLACK
6
CONTINUOUS
10
0.527023
20
0.156263
11
0.526252
21
0.16113
0
LINE
8
BLACK
6
CONTINUOUS
10
0.526252
20
0.16113
11
0.527023
21
0.165996
0
LINE
8
BLACK
6
CONTINUOUS
10
0.527023
20
0.165996
11
0.52926
21
0.170386
0
LINE
8
BLACK
6
CONTINUOUS
10
0.52926
20
0.170386
11
0.532744
21
0.17387
0
LINE
8
BLACK
6
CONTINUOUS
10
0.532744
20
0.17387
11
0.537134
21
0.176107
0
LINE
8
BLACK
6
CONTINUOUS
10
0.537134
20
0.176107
11
0.542
21
0.176878
0
LINE
8
BLACK
6
CONTINUOUS
10
0.542
20
0.176878
11
0.546866
21
0.176107
0
LINE
8
BLACK
6
CONTINUOUS
10
0.443924
20
0.158704
11
0.444702
21
0.158704
0
LINE
8
BLACK
6
CONTINUOUS
10
0.444702
20
0.158704
11
0.445375
21
0.158316
0
LINE
8
BLACK
6
CONTINUOUS
10
0.445375
20
0.158316
11
0.446126
21
0.158114
0
LINE
8
BLACK
6
CONTINUOUS
10
0.446126
20
0.158114
11
0.446676
21
0.157565
0
LINE
8
BLACK
6
CONTINUOUS
10
0.446676
20
0.157565
11
0.447349
21
0.157176
0
LINE
8
BLACK
6
CONTINUOUS
10
0.447349
20
0.157176
11
0.456812
21
0.147713
0
LINE
8
BLACK
6
CONTINUOUS
10
0.456812
20
0.147713
11
0.457977
21
0.148307
0
LINE
8
BLACK
6
CONTINUOUS
10
0.457977
20
0.148307
11
0.462844
21
0.149077
0
LINE
8
BLACK
6
CONTINUOUS
10
0.462844
20
0.149077
11
0.46771
21
0.148307
0
LINE
8
BLACK
6
CONTINUOUS
10
0.46771
20
0.148307
11
0.4721
21
0.14607
0
LINE
8
BLACK
6
CONTINUOUS
10
0.4721
20
0.14607
11
0.475584
21
0.142586
0
LINE
8
BLACK
6
CONTINUOUS
10
0.475584
20
0.142586
11
0.477821
21
0.138196
0
LINE
8
BLACK
6
CONTINUOUS
10
0.477821
20
0.138196
11
0.478592
21
0.133329
0
LINE
8
BLACK
6
CONTINUOUS
10
0.478592
20
0.133329
11
0.477821
21
0.128463
0
LINE
8
BLACK
6
CONTINUOUS
10
0.477821
20
0.128463
11
0.475584
21
0.124073
0
LINE
8
BLACK
6
CONTINUOUS
10
0.475584
20
0.124073
11
0.4721
21
0.120589
0
LINE
8
BLACK
6
CONTINUOUS
10
0.4721
20
0.120589
11
0.46771
21
0.118352
0
LINE
8
BLACK
6
CONTINUOUS
10
0.46771
20
0.118352
11
0.462844
21
0.117581
0
LINE
8
BLACK
6
CONTINUOUS
10
0.462844
20
0.117581
11
0.457977
21
0.118352
0
LINE
8
BLACK
6
CONTINUOUS
10
0.457977
20
0.118352
11
0.453587
21
0.120589
0
LINE
8
BLACK
6
CONTINUOUS
10
0.453587
20
0.120589
11
0.450103
21
0.124073
0
LINE
8
BLACK
6
CONTINUOUS
10
0.450103
20
0.124073
11
0.447866
21
0.128463
0
LINE
8
BLACK
6
CONTINUOUS
10
0.447866
20
0.128463
11
0.447096
21
0.133329
0
LINE
8
BLACK
6
CONTINUOUS
10
0.447096
20
0.133329
11
0.447866
21
0.138196
0
LINE
8
BLACK
6
CONTINUOUS
10
0.447866
20
0.138196
11
0.44846
21
0.139361
0
LINE
8
BLACK
6
CONTINUOUS
10
0.44846
20
0.139361
11
0.440727
21
0.147094
0
LINE
8
BLACK
6
CONTINUOUS
10
0.440727
20
0.147094
11
0.285672
21
0.147094
0
LINE
8
BLACK
6
CONTINUOUS
10
0.285672
20
0.147094
11
0.283529
21
0.144952
0
LINE
8
BLACK
6
CONTINUOUS
10
0.283529
20
0.144952
11
0.284123
21
0.143787
0
LINE
8
BLACK
6
CONTINUOUS
10
0.284123
20
0.143787
11
0.284894
21
0.13892
0
LINE
8
BLACK
6
CONTINUOUS
10
0.284894
20
0.13892
11
0.284123
21
0.134054
0
LINE
8
BLACK
6
CONTINUOUS
10
0.284123
20
0.134054
11
0.281886
21
0.129664
0
LINE
8
BLACK
6
CONTINUOUS
10
0.281886
20
0.129664
11
0.278402
21
0.12618
0
LINE
8
BLACK
6
CONTINUOUS
10
0.278402
20
0.12618
11
0.274012
21
0.123943
0
LINE
8
BLACK
6
CONTINUOUS
10
0.274012
20
0.123943
11
0.269146
21
0.123172
0
LINE
8
BLACK
6
CONTINUOUS
10
0.269146
20
0.123172
11
0.264279
21
0.123943
0
LINE
8
BLACK
6
CONTINUOUS
10
0.264279
20
0.123943
11
0.259889
21
0.12618
0
LINE
8
BLACK
6
CONTINUOUS
10
0.259889
20
0.12618
11
0.256405
21
0.129664
0
LINE
8
BLACK
6
CONTINUOUS
10
0.256405
20
0.129664
11
0.254169
21
0.134054
0
LINE
8
BLACK
6
CONTINUOUS
10
0.254169
20
0.134054
11
0.253398
21
0.13892
0
LINE
8
BLACK
6
CONTINUOUS
10
0.253398
20
0.13892
11
0.254169
21
0.143787
0
LINE
8
BLACK
6
CONTINUOUS
10
0.254169
20
0.143787
11
0.256405
21
0.148177
0
LINE
8
BLACK
6
CONTINUOUS
10
0.256405
20
0.148177
11
0.259889
21
0.151661
0
LINE
8
BLACK
6
CONTINUOUS
10
0.259889
20
0.151661
11
0.264279
21
0.153898
0
LINE
8
BLACK
6
CONTINUOUS
10
0.264279
20
0.153898
11
0.269146
21
0.154668
0
LINE
8
BLACK
6
CONTINUOUS
10
0.269146
20
0.154668
11
0.274012
21
0.153898
0
LINE
8
BLACK
6
CONTINUOUS
10
0.274012
20
0.153898
11
0.275178
21
0.153304
0
LINE
8
BLACK
6
CONTINUOUS
10
0.275178
20
0.153304
11
0.27905
21
0.157176
0
LINE
8
BLACK
6
CONTINUOUS
10
0.27905
20
0.157176
11
0.279723
21
0.157565
0
LINE
8
BLACK
6
CONTINUOUS
10
0.279723
20
0.157565
11
0.280273
21
0.158114
0
LINE
8
BLACK
6
CONTINUOUS
10
0.280273
20
0.158114
11
0.281024
21
0.158316
0
LINE
8
BLACK
6
CONTINUOUS
10
0.281024
20
0.158316
11
0.281697
21
0.158704
0
LINE
8
BLACK
6
CONTINUOUS
10
0.281697
20
0.158704
11
0.282474
21
0.158704
0
LINE
8
BLACK
6
CONTINUOUS
10
0.282474
20
0.158704
11
0.283225
21
0.158906
0
LINE
8
BLACK
6
CONTINUOUS
10
0.283225
20
0.158906
11
0.443173
21
0.158906
0
LINE
8
BLACK
6
CONTINUOUS
10
0.443173
20
0.158906
11
0.443924
21
0.158704
0
LINE
8
BLACK
6
CONTINUOUS
10
0.887746
20
0.292019
11
0.888524
21
0.292019
0
LINE
8
BLACK
6
CONTINUOUS
10
0.888524
20
0.292019
11
0.889197
21
0.291631
0
LINE
8
BLACK
6
CONTINUOUS
10
0.889197
20
0.291631
11
0.889948
21
0.291429
0
LINE
8
BLACK
6
CONTINUOUS
10
0.889948
20
0.291429
11
0.890498
21
0.29088
0
LINE
8
BLACK
6
CONTINUOUS
10
0.890498
20
0.29088
11
0.891171
21
0.290491
0
LINE
8
BLACK
6
CONTINUOUS
10
0.891171
20
0.290491
11
0.984899
21
0.196763
0
LINE
8
BLACK
6
CONTINUOUS
10
0.984899
20
0.196763
11
1.01851
21
0.196763
0
LINE
8
BLACK
6
CONTINUOUS
10
1.01851
20
0.196763
11
1.02022
21
0.200114
0
LINE
8
BLACK
6
CONTINUOUS
10
1.02022
20
0.200114
11
1.0237
21
0.203598
0
LINE
8
BLACK
6
CONTINUOUS
10
1.0237
20
0.203598
11
1.02809
21
0.205835
0
LINE
8
BLACK
6
CONTINUOUS
10
1.02809
20
0.205835
11
1.03296
21
0.206606
0
LINE
8
BLACK
6
CONTINUOUS
10
1.03296
20
0.206606
11
1.03783
21
0.205835
0
LINE
8
BLACK
6
CONTINUOUS
10
1.03783
20
0.205835
11
1.04222
21
0.203598
0
LINE
8
BLACK
6
CONTINUOUS
10
1.04222
20
0.203598
11
1.0457
21
0.200114
0
LINE
8
BLACK
6
CONTINUOUS
10
1.0457
20
0.200114
11
1.04794
21
0.195724
0
LINE
8
BLACK
6
CONTINUOUS
10
1.04794
20
0.195724
11
1.04871
21
0.190858
0
LINE
8
BLACK
6
CONTINUOUS
10
1.04871
20
0.190858
11
1.04794
21
0.185991
0
LINE
8
BLACK
6
CONTINUOUS
10
1.04794
20
0.185991
11
1.0457
21
0.181601
0
LINE
8
BLACK
6
CONTINUOUS
10
1.0457
20
0.181601
11
1.04222
21
0.178117
0
LINE
8
BLACK
6
CONTINUOUS
10
1.04222
20
0.178117
11
1.03783
21
0.17588
0
LINE
8
BLACK
6
CONTINUOUS
10
1.03783
20
0.17588
11
1.03296
21
0.17511
0
LINE
8
BLACK
6
CONTINUOUS
10
1.03296
20
0.17511
11
1.02809
21
0.17588
0
LINE
8
BLACK
6
CONTINUOUS
10
1.02809
20
0.17588
11
1.0237
21
0.178117
0
LINE
8
BLACK
6
CONTINUOUS
10
1.0237
20
0.178117
11
1.02022
21
0.181601
0
LINE
8
BLACK
6
CONTINUOUS
10
1.02022
20
0.181601
11
1.01851
21
0.184952
0
LINE
8
BLACK
6
CONTINUOUS
10
1.01851
20
0.184952
11
0.982453
21
0.184952
0
LINE
8
BLACK
6
CONTINUOUS
10
0.982453
20
0.184952
11
0.981702
21
0.185153
0
LINE
8
BLACK
6
CONTINUOUS
10
0.981702
20
0.185153
11
0.980924
21
0.185153
0
LINE
8
BLACK
6
CONTINUOUS
10
0.980924
20
0.185153
11
0.980251
21
0.185542
0
LINE
8
BLACK
6
CONTINUOUS
10
0.980251
20
0.185542
11
0.9795
21
0.185743
0
LINE
8
BLACK
6
CONTINUOUS
10
0.9795
20
0.185743
11
0.97895
21
0.186293
0
LINE
8
BLACK
6
CONTINUOUS
10
0.97895
20
0.186293
11
0.978277
21
0.186682
0
LINE
8
BLACK
6
CONTINUOUS
10
0.978277
20
0.186682
11
0.884549
21
0.280409
0
LINE
8
BLACK
6
CONTINUOUS
10
0.884549
20
0.280409
11
0.798761
21
0.280409
0
LINE
8
BLACK
6
CONTINUOUS
10
0.798761
20
0.280409
11
0.715906
21
0.197554
0
LINE
8
BLACK
6
CONTINUOUS
10
0.715906
20
0.197554
11
0.715906
21
0.1562
0
LINE
8
BLACK
6
CONTINUOUS
10
0.715906
20
0.1562
11
0.719256
21
0.154492
0
LINE
8
BLACK
6
CONTINUOUS
10
0.719256
20
0.154492
11
0.72274
21
0.151008
0
LINE
8
BLACK
6
CONTINUOUS
10
0.72274
20
0.151008
11
0.724977
21
0.146618
0
LINE
8
BLACK
6
CONTINUOUS
10
0.724977
20
0.146618
11
0.725748
21
0.141752
0
LINE
8
BLACK
6
CONTINUOUS
10
0.725748
20
0.141752
11
0.724977
21
0.136886
0
LINE
8
BLACK
6
CONTINUOUS
10
0.724977
20
0.136886
11
0.72274
21
0.132496
0
LINE
8
BLACK
6
CONTINUOUS
10
0.72274
20
0.132496
11
0.719256
21
0.129012
0
LINE
8
BLACK
6
CONTINUOUS
10
0.719256
20
0.129012
11
0.714866
21
0.126775
0
LINE
8
BLACK
6
CONTINUOUS
10
0.714866
20
0.126775
11
0.71
21
0.126004
0
LINE
8
BLACK
6
CONTINUOUS
10
0.71
20
0.126004
11
0.705134
21
0.126775
0
LINE
8
BLACK
6
CONTINUOUS
10
0.705134
20
0.126775
11
0.700744
21
0.129012
0
LINE
8
BLACK
6
CONTINUOUS
10
0.700744
20
0.129012
11
0.69726
21
0.132496
0
LINE
8
BLACK
6
CONTINUOUS
10
0.69726
20
0.132496
11
0.695023
21
0.136886
0
LINE
8
BLACK
6
CONTINUOUS
10
0.695023
20
0.136886
11
0.694252
21
0.141752
0
LINE
8
BLACK
6
CONTINUOUS
10
0.694252
20
0.141752
11
0.695023
21
0.146618
0
LINE
8
BLACK
6
CONTINUOUS
10
0.695023
20
0.146618
11
0.69726
21
0.151008
0
LINE
8
BLACK
6
CONTINUOUS
10
0.69726
20
0.151008
11
0.700744
21
0.154492
0
LINE
8
BLACK
6
CONTINUOUS
10
0.700744
20
0.154492
11
0.704094
21
0.1562
0
LINE
8
BLACK
6
CONTINUOUS
10
0.704094
20
0.1562
11
0.704094
21
0.2
0
LINE
8
BLACK
6
CONTINUOUS
10
0.704094
20
0.2
11
0.704296
21
0.200751
0
LINE
8
BLACK
6
CONTINUOUS
10
0.704296
20
0.200751
11
0.704296
21
0.201528
0
LINE
8
BLACK
6
CONTINUOUS
10
0.704296
20
0.201528
11
0.704684
21
0.202202
0
LINE
8
BLACK
6
CONTINUOUS
10
0.704684
20
0.202202
11
0.704886
21
0.202953
0
LINE
8
BLACK
6
CONTINUOUS
10
0.704886
20
0.202953
11
0.705435
21
0.203503
0
LINE
8
BLACK
6
CONTINUOUS
10
0.705435
20
0.203503
11
0.705824
21
0.204176
0
LINE
8
BLACK
6
CONTINUOUS
10
0.705824
20
0.204176
11
0.792139
21
0.290491
0
LINE
8
BLACK
6
CONTINUOUS
10
0.792139
20
0.290491
11
0.792812
21
0.29088
0
LINE
8
BLACK
6
CONTINUOUS
10
0.792812
20
0.29088
11
0.793362
21
0.291429
0
LINE
8
BLACK
6
CONTINUOUS
10
0.793362
20
0.291429
11
0.794113
21
0.291631
0
LINE
8
BLACK
6
CONTINUOUS
10
0.794113
20
0.291631
11
0.794786
21
0.292019
0
LINE
8
BLACK
6
CONTINUOUS
10
0.794786
20
0.292019
11
0.795564
21
0.292019
0
LINE
8
BLACK
6
CONTINUOUS
10
0.795564
20
0.292019
11
0.796315
21
0.29222
0
LINE
8
BLACK
6
CONTINUOUS
10
0.796315
20
0.29222
11
0.886995
21
0.29222
0
LINE
8
BLACK
6
CONTINUOUS
10
0.886995
20
0.29222
11
0.887746
21
0.292019
0
LINE
8
BLACK
6
CONTINUOUS
10
0.628882
20
0.231513
11
0.633272
21
0.229276
0
LINE
8
BLACK
6
CONTINUOUS
10
0.633272
20
0.229276
11
0.636756
21
0.225792
0
LINE
8
BLACK
6
CONTINUOUS
10
0.636756
20
0.225792
11
0.638993
21
0.221402
0
LINE
8
BLACK
6
CONTINUOUS
10
0.638993
20
0.221402
11
0.639764
21
0.216535
0
LINE
8
BLACK
6
CONTINUOUS
10
0.639764
20
0.216535
11
0.638993
21
0.211669
0
LINE
8
BLACK
6
CONTINUOUS
10
0.638993
20
0.211669
11
0.636756
21
0.207279
0
LINE
8
BLACK
6
CONTINUOUS
10
0.636756
20
0.207279
11
0.633272
21
0.203795
0
LINE
8
BLACK
6
CONTINUOUS
10
0.633272
20
0.203795
11
0.628882
21
0.201558
0
LINE
8
BLACK
6
CONTINUOUS
10
0.628882
20
0.201558
11
0.624016
21
0.200787
0
LINE
8
BLACK
6
CONTINUOUS
10
0.624016
20
0.200787
11
0.620034
21
0.201418
0
LINE
8
BLACK
6
CONTINUOUS
10
0.620034
20
0.201418
11
0.605654
21
0.187038
0
LINE
8
BLACK
6
CONTINUOUS
10
0.605654
20
0.187038
11
0.604536
21
0.186336
0
LINE
8
BLACK
6
CONTINUOUS
10
0.604536
20
0.186336
11
0.603503
21
0.185512
0
LINE
8
BLACK
6
CONTINUOUS
10
0.603503
20
0.185512
11
0.603066
21
0.185412
0
LINE
8
BLACK
6
CONTINUOUS
10
0.603066
20
0.185412
11
0.602687
21
0.185174
0
LINE
8
BLACK
6
CONTINUOUS
10
0.602687
20
0.185174
11
0.601374
21
0.185026
0
LINE
8
BLACK
6
CONTINUOUS
10
0.601374
20
0.185026
11
0.600086
21
0.184732
0
LINE
8
BLACK
6
CONTINUOUS
10
0.600086
20
0.184732
11
0.524625
21
0.184732
0
LINE
8
BLACK
6
CONTINUOUS
10
0.524625
20
0.184732
11
0.523921
21
0.18335
0
LINE
8
BLACK
6
CONTINUOUS
10
0.523921
20
0.18335
11
0.520437
21
0.179866
0
LINE
8
BLACK
6
CONTINUOUS
10
0.520437
20
0.179866
11
0.516047
21
0.177629
0
LINE
8
BLACK
6
CONTINUOUS
10
0.516047
20
0.177629
11
0.51118
21
0.176858
0
LINE
8
BLACK
6
CONTINUOUS
10
0.51118
20
0.176858
11
0.506314
21
0.177629
0
LINE
8
BLACK
6
CONTINUOUS
10
0.506314
20
0.177629
11
0.501924
21
0.179866
0
LINE
8
BLACK
6
CONTINUOUS
10
0.501924
20
0.179866
11
0.49844
21
0.18335
0
LINE
8
BLACK
6
CONTINUOUS
10
0.49844
20
0.18335
11
0.496203
21
0.18774
0
LINE
8
BLACK
6
CONTINUOUS
10
0.496203
20
0.18774
11
0.495432
21
0.192606
0
LINE
8
BLACK
6
CONTINUOUS
10
0.495432
20
0.192606
11
0.496203
21
0.197473
0
LINE
8
BLACK
6
CONTINUOUS
10
0.496203
20
0.197473
11
0.49844
21
0.201863
0
LINE
8
BLACK
6
CONTINUOUS
10
0.49844
20
0.201863
11
0.501924
21
0.205347
0
LINE
8
BLACK
6
CONTINUOUS
10
0.501924
20
0.205347
11
0.506314
21
0.207583
0
LINE
8
BLACK
6
CONTINUOUS
10
0.506314
20
0.207583
11
0.51118
21
0.208354
0
LINE
8
BLACK
6
CONTINUOUS
10
0.51118
20
0.208354
11
0.516047
21
0.207583
0
LINE
8
BLACK
6
CONTINUOUS
10
0.516047
20
0.207583
11
0.520437
21
0.205347
0
LINE
8
BLACK
6
CONTINUOUS
10
0.520437
20
0.205347
11
0.523921
21
0.201863
0
LINE
8
BLACK
6
CONTINUOUS
10
0.523921
20
0.201863
11
0.524625
21
0.20048
0
LINE
8
BLACK
6
CONTINUOUS
10
0.524625
20
0.20048
11
0.596825
21
0.20048
0
LINE
8
BLACK
6
CONTINUOUS
10
0.596825
20
0.20048
11
0.608898
21
0.212554
0
LINE
8
BLACK
6
CONTINUOUS
10
0.608898
20
0.212554
11
0.608268
21
0.216535
0
LINE
8
BLACK
6
CONTINUOUS
10
0.608268
20
0.216535
11
0.609038
21
0.221402
0
LINE
8
BLACK
6
CONTINUOUS
10
0.609038
20
0.221402
11
0.611275
21
0.225792
0
LINE
8
BLACK
6
CONTINUOUS
10
0.611275
20
0.225792
11
0.614759
21
0.229276
0
LINE
8
BLACK
6
CONTINUOUS
10
0.614759
20
0.229276
11
0.619149
21
0.231513
0
LINE
8
BLACK
6
CONTINUOUS
10
0.619149
20
0.231513
11
0.624016
21
0.232283
0
LINE
8
BLACK
6
CONTINUOUS
10
0.624016
20
0.232283
11
0.628882
21
0.231513
0
LINE
8
BLACK
6
CONTINUOUS
10
0.614866
20
0.334977
11
0.619256
21
0.33274
0
LINE
8
BLACK
6
CONTINUOUS
10
0.619256
20
0.33274
11
0.62274
21
0.329256
0
LINE
8
BLACK
6
CONTINUOUS
10
0.62274
20
0.329256
11
0.624977
21
0.324866
0
LINE
8
BLACK
6
CONTINUOUS
10
0.624977
20
0.324866
11
0.625748
21
0.32
0
LINE
8
BLACK
6
CONTINUOUS
10
0.625748
20
0.32
11
0.624977
21
0.315134
0
LINE
8
BLACK
6
CONTINUOUS
10
0.624977
20
0.315134
11
0.624383
21
0.313968
0
LINE
8
BLACK
6
CONTINUOUS
10
0.624383
20
0.313968
11
0.626446
21
0.311906
0
LINE
8
BLACK
6
CONTINUOUS
10
0.626446
20
0.311906
11
0.904
21
0.311906
0
LINE
8
BLACK
6
CONTINUOUS
10
0.904
20
0.311906
11
0.904751
21
0.311704
0
LINE
8
BLACK
6
CONTINUOUS
10
0.904751
20
0.311704
11
0.905528
21
0.311704
0
LINE
8
BLACK
6
CONTINUOUS
10
0.905528
20
0.311704
11
0.906202
21
0.311316
0
LINE
8
BLACK
6
CONTINUOUS
10
0.906202
20
0.311316
11
0.906953
21
0.311114
0
LINE
8
BLACK
6
CONTINUOUS
10
0.906953
20
0.311114
11
0.907503
21
0.310565
0
LINE
8
BLACK
6
CONTINUOUS
10
0.907503
20
0.310565
11
0.908176
21
0.310176
0
LINE
8
BLACK
6
CONTINUOUS
10
0.908176
20
0.310176
11
0.992061
21
0.226291
0
LINE
8
BLACK
6
CONTINUOUS
10
0.992061
20
0.226291
11
1.04832
21
0.226291
0
LINE
8
BLACK
6
CONTINUOUS
10
1.04832
20
0.226291
11
1.04907
21
0.22609
0
LINE
8
BLACK
6
CONTINUOUS
10
1.04907
20
0.22609
11
1.04984
21
0.22609
0
LINE
8
BLACK
6
CONTINUOUS
10
1.04984
20
0.22609
11
1.05052
21
0.225701
0
LINE
8
BLACK
6
CONTINUOUS
10
1.05052
20
0.225701
11
1.05127
21
0.2255
0
LINE
8
BLACK
6
CONTINUOUS
10
1.05127
20
0.2255
11
1.05182
21
0.22495
0
LINE
8
BLACK
6
CONTINUOUS
10
1.05182
20
0.22495
11
1.05249
21
0.224561
0
LINE
8
BLACK
6
CONTINUOUS
10
1.05249
20
0.224561
11
1.06582
21
0.211234
0
LINE
8
BLACK
6
CONTINUOUS
10
1.06582
20
0.211234
11
1.06698
21
0.211828
0
LINE
8
BLACK
6
CONTINUOUS
10
1.06698
20
0.211828
11
1.07185
21
0.212598
0
LINE
8
BLACK
6
CONTINUOUS
10
1.07185
20
0.212598
11
1.07672
21
0.211828
0
LINE
8
BLACK
6
CONTINUOUS
10
1.07672
20
0.211828
11
1.08111
21
0.209591
0
LINE
8
BLACK
6
CONTINUOUS
10
1.08111
20
0.209591
11
1.08459
21
0.206107
0
LINE
8
BLACK
6
CONTINUOUS
10
1.08459
20
0.206107
11
1.08683
21
0.201717
0
LINE
8
BLACK
6
CONTINUOUS
10
1.08683
20
0.201717
11
1.0876
21
0.19685
0
LINE
8
BLACK
6
CONTINUOUS
10
1.0876
20
0.19685
11
1.08683
21
0.191984
0
LINE
8
BLACK
6
CONTINUOUS
10
1.08683
20
0.191984
11
1.08459
21
0.187594
0
LINE
8
BLACK
6
CONTINUOUS
10
1.08459
20
0.187594
11
1.08111
21
0.18411
0
LINE
8
BLACK
6
CONTINUOUS
10
1.08111
20
0.18411
11
1.07672
21
0.181873
0
LINE
8
BLACK
6
CONTINUOUS
10
1.07672
20
0.181873
11
1.07185
21
0.181102
0
LINE
8
BLACK
6
CONTINUOUS
10
1.07185
20
0.181102
11
1.06698
21
0.181873
0
LINE
8
BLACK
6
CONTINUOUS
10
1.06698
20
0.181873
11
1.06259
21
0.18411
0
LINE
8
BLACK
6
CONTINUOUS
10
1.06259
20
0.18411
11
1.05911
21
0.187594
0
LINE
8
BLACK
6
CONTINUOUS
10
1.05911
20
0.187594
11
1.05687
21
0.191984
0
LINE
8
BLACK
6
CONTINUOUS
10
1.05687
20
0.191984
11
1.0561
21
0.19685
0
LINE
8
BLACK
6
CONTINUOUS
10
1.0561
20
0.19685
11
1.05687
21
0.201717
0
LINE
8
BLACK
6
CONTINUOUS
10
1.05687
20
0.201717
11
1.05747
21
0.202882
0
LINE
8
BLACK
6
CONTINUOUS
10
1.05747
20
0.202882
11
1.04587
21
0.21448
0
LINE
8
BLACK
6
CONTINUOUS
10
1.04587
20
0.21448
11
0.989615
21
0.21448
0
LINE
8
BLACK
6
CONTINUOUS
10
0.989615
20
0.21448
11
0.988864
21
0.214681
0
LINE
8
BLACK
6
CONTINUOUS
10
0.988864
20
0.214681
11
0.988086
21
0.214681
0
LINE
8
BLACK
6
CONTINUOUS
10
0.988086
20
0.214681
11
0.987413
21
0.21507
0
LINE
8
BLACK
6
CONTINUOUS
10
0.987413
20
0.21507
11
0.986662
21
0.215271
0
LINE
8
BLACK
6
CONTINUOUS
10
0.986662
20
0.215271
11
0.986112
21
0.215821
0
LINE
8
BLACK
6
CONTINUOUS
10
0.986112
20
0.215821
11
0.985439
21
0.216209
0
LINE
8
BLACK
6
CONTINUOUS
10
0.985439
20
0.216209
11
0.901554
21
0.300094
0
LINE
8
BLACK
6
CONTINUOUS
10
0.901554
20
0.300094
11
0.624
21
0.300094
0
LINE
8
BLACK
6
CONTINUOUS
10
0.624
20
0.300094
11
0.623249
21
0.300296
0
LINE
8
BLACK
6
CONTINUOUS
10
0.623249
20
0.300296
11
0.622472
21
0.300296
0
LINE
8
BLACK
6
CONTINUOUS
10
0.622472
20
0.300296
11
0.621798
21
0.300684
0
LINE
8
BLACK
6
CONTINUOUS
10
0.621798
20
0.300684
11
0.621047
21
0.300886
0
LINE
8
BLACK
6
CONTINUOUS
10
0.621047
20
0.300886
11
0.620497
21
0.301435
0
LINE
8
BLACK
6
CONTINUOUS
10
0.620497
20
0.301435
11
0.619824
21
0.301824
0
LINE
8
BLACK
6
CONTINUOUS
10
0.619824
20
0.301824
11
0.616032
21
0.305617
0
LINE
8
BLACK
6
CONTINUOUS
10
0.616032
20
0.305617
11
0.614866
21
0.305023
0
LINE
8
BLACK
6
CONTINUOUS
10
0.614866
20
0.305023
11
0.61
21
0.304252
0
LINE
8
BLACK
6
CONTINUOUS
10
0.61
20
0.304252
11
0.605134
21
0.305023
0
LINE
8
BLACK
6
CONTINUOUS
10
0.605134
20
0.305023
11
0.600744
21
0.30726
0
LINE
8
BLACK
6
CONTINUOUS
10
0.600744
20
0.30726
11
0.59726
21
0.310744
0
LINE
8
BLACK
6
CONTINUOUS
10
0.59726
20
0.310744
11
0.595552
21
0.314094
0
LINE
8
BLACK
6
CONTINUOUS
10
0.595552
20
0.314094
11
0.282148
21
0.314094
0
LINE
8
BLACK
6
CONTINUOUS
10
0.282148
20
0.314094
11
0.282323
21
0.312992
0
LINE
8
BLACK
6
CONTINUOUS
10
0.282323
20
0.312992
11
0.281552
21
0.308126
0
LINE
8
BLACK
6
CONTINUOUS
10
0.281552
20
0.308126
11
0.279315
21
0.303736
0
LINE
8
BLACK
6
CONTINUOUS
10
0.279315
20
0.303736
11
0.275831
21
0.300252
0
LINE
8
BLACK
6
CONTINUOUS
10
0.275831
20
0.300252
11
0.271441
21
0.298015
0
LINE
8
BLACK
6
CONTINUOUS
10
0.271441
20
0.298015
11
0.266575
21
0.297244
0
LINE
8
BLACK
6
CONTINUOUS
10
0.266575
20
0.297244
11
0.261708
21
0.298015
0
LINE
8
BLACK
6
CONTINUOUS
10
0.261708
20
0.298015
11
0.257318
21
0.300252
0
LINE
8
BLACK
6
CONTINUOUS
10
0.257318
20
0.300252
11
0.253834
21
0.303736
0
LINE
8
BLACK
6
CONTINUOUS
10
0.253834
20
0.303736
11
0.251598
21
0.308126
0
LINE
8
BLACK
6
CONTINUOUS
10
0.251598
20
0.308126
11
0.250827
21
0.312992
0
LINE
8
BLACK
6
CONTINUOUS
10
0.250827
20
0.312992
11
0.251598
21
0.317859
0
LINE
8
BLACK
6
CONTINUOUS
10
0.251598
20
0.317859
11
0.253834
21
0.322249
0
LINE
8
BLACK
6
CONTINUOUS
10
0.253834
20
0.322249
11
0.257318
21
0.325733
0
LINE
8
BLACK
6
CONTINUOUS
10
0.257318
20
0.325733
11
0.261708
21
0.327969
0
LINE
8
BLACK
6
CONTINUOUS
10
0.261708
20
0.327969
11
0.266575
21
0.32874
0
LINE
8
BLACK
6
CONTINUOUS
10
0.266575
20
0.32874
11
0.271441
21
0.327969
0
LINE
8
BLACK
6
CONTINUOUS
10
0.271441
20
0.327969
11
0.275492
21
0.325906
0
LINE
8
BLACK
6
CONTINUOUS
10
0.275492
20
0.325906
11
0.595552
21
0.325906
0
LINE
8
BLACK
6
CONTINUOUS
10
0.595552
20
0.325906
11
0.59726
21
0.329256
0
LINE
8
BLACK
6
CONTINUOUS
10
0.59726
20
0.329256
11
0.600744
21
0.33274
0
LINE
8
BLACK
6
CONTINUOUS
10
0.600744
20
0.33274
11
0.605134
21
0.334977
0
LINE
8
BLACK
6
CONTINUOUS
10
0.605134
20
0.334977
11
0.61
21
0.335748
0
LINE
8
BLACK
6
CONTINUOUS
10
0.61
20
0.335748
11
0.614866
21
0.334977
0
LINE
8
BLACK
6
CONTINUOUS
10
0.220654
20
0.331243
11
0.22257
21
0.329963
0
LINE
8
BLACK
6
CONTINUOUS
10
0.22257
20
0.329963
11
0.22385
21
0.328047
0
LINE
8
BLACK
6
CONTINUOUS
10
0.22385
20
0.328047
11
0.224299
21
0.325787
0
LINE
8
BLACK
6
CONTINUOUS
10
0.224299
20
0.325787
11
0.224299
21
0.321889
0
LINE
8
BLACK
6
CONTINUOUS
10
0.224299
20
0.321889
11
0.255568
21
0.29062
0
LINE
8
BLACK
6
CONTINUOUS
10
0.255568
20
0.29062
11
0.256271
21
0.289502
0
LINE
8
BLACK
6
CONTINUOUS
10
0.256271
20
0.289502
11
0.257094
21
0.288469
0
LINE
8
BLACK
6
CONTINUOUS
10
0.257094
20
0.288469
11
0.257194
21
0.288032
0
LINE
8
BLACK
6
CONTINUOUS
10
0.257194
20
0.288032
11
0.257432
21
0.287653
0
LINE
8
BLACK
6
CONTINUOUS
10
0.257432
20
0.287653
11
0.25758
21
0.28634
0
LINE
8
BLACK
6
CONTINUOUS
10
0.25758
20
0.28634
11
0.257874
21
0.285053
0
LINE
8
BLACK
6
CONTINUOUS
10
0.257874
20
0.285053
11
0.257874
21
0.283445
0
LINE
8
BLACK
6
CONTINUOUS
10
0.257874
20
0.283445
11
0.259256
21
0.28274
0
LINE
8
BLACK
6
CONTINUOUS
10
0.259256
20
0.28274
11
0.26274
21
0.279256
0
LINE
8
BLACK
6
CONTINUOUS
10
0.26274
20
0.279256
11
0.264448
21
0.275906
0
LINE
8
BLACK
6
CONTINUOUS
10
0.264448
20
0.275906
11
0.685552
21
0.275906
0
LINE
8
BLACK
6
CONTINUOUS
10
0.685552
20
0.275906
11
0.68726
21
0.279256
0
LINE
8
BLACK
6
CONTINUOUS
10
0.68726
20
0.279256
11
0.690744
21
0.28274
0
LINE
8
BLACK
6
CONTINUOUS
10
0.690744
20
0.28274
11
0.695134
21
0.284977
0
LINE
8
BLACK
6
CONTINUOUS
10
0.695134
20
0.284977
11
0.7
21
0.285748
0
LINE
8
BLACK
6
CONTINUOUS
10
0.7
20
0.285748
11
0.704866
21
0.284977
0
LINE
8
BLACK
6
CONTINUOUS
10
0.704866
20
0.284977
11
0.709256
21
0.28274
0
LINE
8
BLACK
6
CONTINUOUS
10
0.709256
20
0.28274
11
0.71274
21
0.279256
0
LINE
8
BLACK
6
CONTINUOUS
10
0.71274
20
0.279256
11
0.714977
21
0.274866
0
LINE
8
BLACK
6
CONTINUOUS
10
0.714977
20
0.274866
11
0.715748
21
0.27
0
LINE
8
BLACK
6
CONTINUOUS
10
0.715748
20
0.27
11
0.714977
21
0.265134
0
LINE
8
BLACK
6
CONTINUOUS
10
0.714977
20
0.265134
11
0.71274
21
0.260744
0
LINE
8
BLACK
6
CONTINUOUS
10
0.71274
20
0.260744
11
0.709256
21
0.25726
0
LINE
8
BLACK
6
CONTINUOUS
10
0.709256
20
0.25726
11
0.704866
21
0.255023
0
LINE
8
BLACK
6
CONTINUOUS
10
0.704866
20
0.255023
11
0.7
21
0.254252
0
LINE
8
BLACK
6
CONTINUOUS
10
0.7
20
0.254252
11
0.695134
21
0.255023
0
LINE
8
BLACK
6
CONTINUOUS
10
0.695134
20
0.255023
11
0.690744
21
0.25726
0
LINE
8
BLACK
6
CONTINUOUS
10
0.690744
20
0.25726
11
0.68726
21
0.260744
0
LINE
8
BLACK
6
CONTINUOUS
10
0.68726
20
0.260744
11
0.685552
21
0.264094
0
LINE
8
BLACK
6
CONTINUOUS
10
0.685552
20
0.264094
11
0.264448
21
0.264094
0
LINE
8
BLACK
6
CONTINUOUS
10
0.264448
20
0.264094
11
0.26274
21
0.260744
0
LINE
8
BLACK
6
CONTINUOUS
10
0.26274
20
0.260744
11
0.259256
21
0.25726
0
LINE
8
BLACK
6
CONTINUOUS
10
0.259256
20
0.25726
11
0.254866
21
0.255023
0
LINE
8
BLACK
6
CONTINUOUS
10
0.254866
20
0.255023
11
0.25
21
0.254252
0
LINE
8
BLACK
6
CONTINUOUS
10
0.25
20
0.254252
11
0.245134
21
0.255023
0
LINE
8
BLACK
6
CONTINUOUS
10
0.245134
20
0.255023
11
0.240744
21
0.25726
0
LINE
8
BLACK
6
CONTINUOUS
10
0.240744
20
0.25726
11
0.23726
21
0.260744
0
LINE
8
BLACK
6
CONTINUOUS
10
0.23726
20
0.260744
11
0.235023
21
0.265134
0
LINE
8
BLACK
6
CONTINUOUS
10
0.235023
20
0.265134
11
0.234252
21
0.27
0
LINE
8
BLACK
6
CONTINUOUS
10
0.234252
20
0.27
11
0.235023
21
0.274866
0
LINE
8
BLACK
6
CONTINUOUS
10
0.235023
20
0.274866
11
0.23726
21
0.279256
0
LINE
8
BLACK
6
CONTINUOUS
10
0.23726
20
0.279256
11
0.240744
21
0.28274
0
LINE
8
BLACK
6
CONTINUOUS
10
0.240744
20
0.28274
11
0.24103
21
0.282887
0
LINE
8
BLACK
6
CONTINUOUS
10
0.24103
20
0.282887
11
0.215846
21
0.308071
0
LINE
8
BLACK
6
CONTINUOUS
10
0.215846
20
0.308071
11
0.163276
21
0.308071
0
LINE
8
BLACK
6
CONTINUOUS
10
0.163276
20
0.308071
11
0.161016
21
0.30852
0
LINE
8
BLACK
6
CONTINUOUS
10
0.161016
20
0.30852
11
0.1591
21
0.309801
0
LINE
8
BLACK
6
CONTINUOUS
10
0.1591
20
0.309801
11
0.15782
21
0.311716
0
LINE
8
BLACK
6
CONTINUOUS
10
0.15782
20
0.311716
11
0.15737
21
0.313976
0
LINE
8
BLACK
6
CONTINUOUS
10
0.15737
20
0.313976
11
0.15737
21
0.325787
0
LINE
8
BLACK
6
CONTINUOUS
10
0.15737
20
0.325787
11
0.15782
21
0.328047
0
LINE
8
BLACK
6
CONTINUOUS
10
0.15782
20
0.328047
11
0.1591
21
0.329963
0
LINE
8
BLACK
6
CONTINUOUS
10
0.1591
20
0.329963
11
0.161016
21
0.331243
0
LINE
8
BLACK
6
CONTINUOUS
10
0.161016
20
0.331243
11
0.163276
21
0.331693
0
LINE
8
BLACK
6
CONTINUOUS
10
0.163276
20
0.331693
11
0.218394
21
0.331693
0
LINE
8
BLACK
6
CONTINUOUS
10
0.218394
20
0.331693
11
0.220654
21
0.331243
0
LINE
8
BLACK
6
CONTINUOUS
10
0.117071
20
0.285647
11
0.121461
21
0.28341
0
LINE
8
BLACK
6
CONTINUOUS
10
0.121461
20
0.28341
11
0.124945
21
0.279926
0
LINE
8
BLACK
6
CONTINUOUS
10
0.124945
20
0.279926
11
0.12565
21
0.278543
0
LINE
8
BLACK
6
CONTINUOUS
10
0.12565
20
0.278543
11
0.157762
21
0.278543
0
LINE
8
BLACK
6
CONTINUOUS
10
0.157762
20
0.278543
11
0.15782
21
0.278835
0
LINE
8
BLACK
6
CONTINUOUS
10
0.15782
20
0.278835
11
0.1591
21
0.280751
0
LINE
8
BLACK
6
CONTINUOUS
10
0.1591
20
0.280751
11
0.161016
21
0.282031
0
LINE
8
BLACK
6
CONTINUOUS
10
0.161016
20
0.282031
11
0.163276
21
0.28248
0
LINE
8
BLACK
6
CONTINUOUS
10
0.163276
20
0.28248
11
0.218394
21
0.28248
0
LINE
8
BLACK
6
CONTINUOUS
10
0.218394
20
0.28248
11
0.220654
21
0.282031
0
LINE
8
BLACK
6
CONTINUOUS
10
0.220654
20
0.282031
11
0.22257
21
0.280751
0
LINE
8
BLACK
6
CONTINUOUS
10
0.22257
20
0.280751
11
0.22385
21
0.278835
0
LINE
8
BLACK
6
CONTINUOUS
10
0.22385
20
0.278835
11
0.224299
21
0.276575
0
LINE
8
BLACK
6
CONTINUOUS
10
0.224299
20
0.276575
11
0.224299
21
0.264764
0
LINE
8
BLACK
6
CONTINUOUS
10
0.224299
20
0.264764
11
0.22385
21
0.262504
0
LINE
8
BLACK
6
CONTINUOUS
10
0.22385
20
0.262504
11
0.22257
21
0.260588
0
LINE
8
BLACK
6
CONTINUOUS
10
0.22257
20
0.260588
11
0.220654
21
0.259308
0
LINE
8
BLACK
6
CONTINUOUS
10
0.220654
20
0.259308
11
0.218394
21
0.258858
0
LINE
8
BLACK
6
CONTINUOUS
10
0.218394
20
0.258858
11
0.163276
21
0.258858
0
LINE
8
BLACK
6
CONTINUOUS
10
0.163276
20
0.258858
11
0.161016
21
0.259308
0
LINE
8
BLACK
6
CONTINUOUS
10
0.161016
20
0.259308
11
0.1591
21
0.260588
0
LINE
8
BLACK
6
CONTINUOUS
10
0.1591
20
0.260588
11
0.15782
21
0.262504
0
LINE
8
BLACK
6
CONTINUOUS
10
0.15782
20
0.262504
11
0.157762
21
0.262795
0
LINE
8
BLACK
6
CONTINUOUS
10
0.157762
20
0.262795
11
0.12565
21
0.262795
0
LINE
8
BLACK
6
CONTINUOUS
10
0.12565
20
0.262795
11
0.124945
21
0.261413
0
LINE
8
BLACK
6
CONTINUOUS
10
0.124945
20
0.261413
11
0.121461
21
0.257929
0
LINE
8
BLACK
6
CONTINUOUS
10
0.121461
20
0.257929
11
0.117071
21
0.255692
0
LINE
8
BLACK
6
CONTINUOUS
10
0.117071
20
0.255692
11
0.112205
21
0.254921
0
LINE
8
BLACK
6
CONTINUOUS
10
0.112205
20
0.254921
11
0.107338
21
0.255692
0
LINE
8
BLACK
6
CONTINUOUS
10
0.107338
20
0.255692
11
0.102948
21
0.257929
0
LINE
8
BLACK
6
CONTINUOUS
10
0.102948
20
0.257929
11
0.0994643
21
0.261413
0
LINE
8
BLACK
6
CONTINUOUS
10
0.0994643
20
0.261413
11
0.0972274
21
0.265803
0
LINE
8
BLACK
6
CONTINUOUS
10
0.0972274
20
0.265803
11
0.0964567
21
0.270669
0
LINE
8
BLACK
6
CONTINUOUS
10
0.0964567
20
0.270669
11
0.0972274
21
0.275536
0
LINE
8
BLACK
6
CONTINUOUS
10
0.0972274
20
0.275536
11
0.0994643
21
0.279926
0
LINE
8
BLACK
6
CONTINUOUS
10
0.0994643
20
0.279926
11
0.102948
21
0.28341
0
LINE
8
BLACK
6
CONTINUOUS
10
0.102948
20
0.28341
11
0.107338
21
0.285647
0
LINE
8
BLACK
6
CONTINUOUS
10
0.107338
20
0.285647
11
0.112205
21
0.286417
0
LINE
8
BLACK
6
CONTINUOUS
10
0.112205
20
0.286417
11
0.117071
21
0.285647
0
LINE
8
BLACK
6
CONTINUOUS
10
1.00109
20
0.45758
11
1.0024
21
0.457432
0
LINE
8
BLACK
6
CONTINUOUS
10
1.0024
20
0.457432
11
1.00278
21
0.457194
0
LINE
8
BLACK
6
CONTINUOUS
10
1.00278
20
0.457194
11
1.00322
21
0.457094
0
LINE
8
BLACK
6
CONTINUOUS
10
1.00322
20
0.457094
11
1.00425
21
0.456271
0
LINE
8
BLACK
6
CONTINUOUS
10
1.00425
20
0.456271
11
1.00537
21
0.455568
0
LINE
8
BLACK
6
CONTINUOUS
10
1.00537
20
0.455568
11
1.05704
21
0.403897
0
LINE
8
BLACK
6
CONTINUOUS
10
1.05704
20
0.403897
11
1.06102
21
0.404528
0
LINE
8
BLACK
6
CONTINUOUS
10
1.06102
20
0.404528
11
1.06589
21
0.403757
0
LINE
8
BLACK
6
CONTINUOUS
10
1.06589
20
0.403757
11
1.07028
21
0.40152
0
LINE
8
BLACK
6
CONTINUOUS
10
1.07028
20
0.40152
11
1.07376
21
0.398036
0
LINE
8
BLACK
6
CONTINUOUS
10
1.07376
20
0.398036
11
1.076
21
0.393646
0
LINE
8
BLACK
6
CONTINUOUS
10
1.076
20
0.393646
11
1.07677
21
0.38878
0
LINE
8
BLACK
6
CONTINUOUS
10
1.07677
20
0.38878
11
1.076
21
0.383913
0
LINE
8
BLACK
6
CONTINUOUS
10
1.076
20
0.383913
11
1.07376
21
0.379523
0
LINE
8
BLACK
6
CONTINUOUS
10
1.07376
20
0.379523
11
1.07028
21
0.376039
0
LINE
8
BLACK
6
CONTINUOUS
10
1.07028
20
0.376039
11
1.06589
21
0.373802
0
LINE
8
BLACK
6
CONTINUOUS
10
1.06589
20
0.373802
11
1.06102
21
0.373031
0
LINE
8
BLACK
6
CONTINUOUS
10
1.06102
20
0.373031
11
1.05616
21
0.373802
0
LINE
8
BLACK
6
CONTINUOUS
10
1.05616
20
0.373802
11
1.05177
21
0.376039
0
LINE
8
BLACK
6
CONTINUOUS
10
1.05177
20
0.376039
11
1.04828
21
0.379523
0
LINE
8
BLACK
6
CONTINUOUS
10
1.04828
20
0.379523
11
1.04605
21
0.383913
0
LINE
8
BLACK
6
CONTINUOUS
10
1.04605
20
0.383913
11
1.04528
21
0.38878
0
LINE
8
BLACK
6
CONTINUOUS
10
1.04528
20
0.38878
11
1.04591
21
0.392761
0
LINE
8
BLACK
6
CONTINUOUS
10
1.04591
20
0.392761
11
0.996542
21
0.442126
0
LINE
8
BLACK
6
CONTINUOUS
10
0.996542
20
0.442126
11
0.939262
21
0.442126
0
LINE
8
BLACK
6
CONTINUOUS
10
0.939262
20
0.442126
11
0.929568
21
0.432432
0
LINE
8
BLACK
6
CONTINUOUS
10
0.929568
20
0.432432
11
0.928449
21
0.431729
0
LINE
8
BLACK
6
CONTINUOUS
10
0.928449
20
0.431729
11
0.927416
21
0.430906
0
LINE
8
BLACK
6
CONTINUOUS
10
0.927416
20
0.430906
11
0.927349
21
0.43089
0
LINE
8
BLACK
6
CONTINUOUS
10
0.927349
20
0.43089
11
0.874891
21
0.378432
0
LINE
8
BLACK
6
CONTINUOUS
10
0.874891
20
0.378432
11
0.873772
21
0.377729
0
LINE
8
BLACK
6
CONTINUOUS
10
0.873772
20
0.377729
11
0.87274
21
0.376906
0
LINE
8
BLACK
6
CONTINUOUS
10
0.87274
20
0.376906
11
0.872303
21
0.376806
0
LINE
8
BLACK
6
CONTINUOUS
10
0.872303
20
0.376806
11
0.871924
21
0.376568
0
LINE
8
BLACK
6
CONTINUOUS
10
0.871924
20
0.376568
11
0.870611
21
0.37642
0
LINE
8
BLACK
6
CONTINUOUS
10
0.870611
20
0.37642
11
0.869323
21
0.376126
0
LINE
8
BLACK
6
CONTINUOUS
10
0.869323
20
0.376126
11
0.59911
21
0.376126
0
LINE
8
BLACK
6
CONTINUOUS
10
0.59911
20
0.376126
11
0.597822
21
0.37642
0
LINE
8
BLACK
6
CONTINUOUS
10
0.597822
20
0.37642
11
0.59651
21
0.376568
0
LINE
8
BLACK
6
CONTINUOUS
10
0.59651
20
0.376568
11
0.59613
21
0.376806
0
LINE
8
BLACK
6
CONTINUOUS
10
0.59613
20
0.376806
11
0.595694
21
0.376906
0
LINE
8
BLACK
6
CONTINUOUS
10
0.595694
20
0.376906
11
0.594661
21
0.377729
0
LINE
8
BLACK
6
CONTINUOUS
10
0.594661
20
0.377729
11
0.593542
21
0.378432
0
LINE
8
BLACK
6
CONTINUOUS
10
0.593542
20
0.378432
11
0.558942
21
0.413032
0
LINE
8
BLACK
6
CONTINUOUS
10
0.558942
20
0.413032
11
0.554961
21
0.412402
0
LINE
8
BLACK
6
CONTINUOUS
10
0.554961
20
0.412402
11
0.550094
21
0.413172
0
LINE
8
BLACK
6
CONTINUOUS
10
0.550094
20
0.413172
11
0.545704
21
0.415409
0
LINE
8
BLACK
6
CONTINUOUS
10
0.545704
20
0.415409
11
0.54222
21
0.418893
0
LINE
8
BLACK
6
CONTINUOUS
10
0.54222
20
0.418893
11
0.539983
21
0.423283
0
LINE
8
BLACK
6
CONTINUOUS
10
0.539983
20
0.423283
11
0.539213
21
0.42815
0
LINE
8
BLACK
6
CONTINUOUS
10
0.539213
20
0.42815
11
0.539983
21
0.433016
0
LINE
8
BLACK
6
CONTINUOUS
10
0.539983
20
0.433016
11
0.54222
21
0.437406
0
LINE
8
BLACK
6
CONTINUOUS
10
0.54222
20
0.437406
11
0.545704
21
0.44089
0
LINE
8
BLACK
6
CONTINUOUS
10
0.545704
20
0.44089
11
0.550094
21
0.443127
0
LINE
8
BLACK
6
CONTINUOUS
10
0.550094
20
0.443127
11
0.554961
21
0.443898
0
LINE
8
BLACK
6
CONTINUOUS
10
0.554961
20
0.443898
11
0.559827
21
0.443127
0
LINE
8
BLACK
6
CONTINUOUS
10
0.559827
20
0.443127
11
0.564217
21
0.44089
0
LINE
8
BLACK
6
CONTINUOUS
10
0.564217
20
0.44089
11
0.567701
21
0.437406
0
LINE
8
BLACK
6
CONTINUOUS
10
0.567701
20
0.437406
11
0.569938
21
0.433016
0
LINE
8
BLACK
6
CONTINUOUS
10
0.569938
20
0.433016
11
0.570709
21
0.42815
0
LINE
8
BLACK
6
CONTINUOUS
10
0.570709
20
0.42815
11
0.570078
21
0.424168
0
LINE
8
BLACK
6
CONTINUOUS
10
0.570078
20
0.424168
11
0.602372
21
0.391874
0
LINE
8
BLACK
6
CONTINUOUS
10
0.602372
20
0.391874
11
0.866062
21
0.391874
0
LINE
8
BLACK
6
CONTINUOUS
10
0.866062
20
0.391874
11
0.917755
21
0.443568
0
LINE
8
BLACK
6
CONTINUOUS
10
0.917755
20
0.443568
11
0.918874
21
0.444271
0
LINE
8
BLACK
6
CONTINUOUS
10
0.918874
20
0.444271
11
0.919907
21
0.445094
0
LINE
8
BLACK
6
CONTINUOUS
10
0.919907
20
0.445094
11
0.919974
21
0.44511
0
LINE
8
BLACK
6
CONTINUOUS
10
0.919974
20
0.44511
11
0.930432
21
0.455568
0
LINE
8
BLACK
6
CONTINUOUS
10
0.930432
20
0.455568
11
0.931551
21
0.456271
0
LINE
8
BLACK
6
CONTINUOUS
10
0.931551
20
0.456271
11
0.932584
21
0.457094
0
LINE
8
BLACK
6
CONTINUOUS
10
0.932584
20
0.457094
11
0.93302
21
0.457194
0
LINE
8
BLACK
6
CONTINUOUS
10
0.93302
20
0.457194
11
0.933399
21
0.457432
0
LINE
8
BLACK
6
CONTINUOUS
10
0.933399
20
0.457432
11
0.934712
21
0.45758
0
LINE
8
BLACK
6
CONTINUOUS
10
0.934712
20
0.45758
11
0.936
21
0.457874
0
LINE
8
BLACK
6
CONTINUOUS
10
0.936
20
0.457874
11
0.999803
21
0.457874
0
LINE
8
BLACK
6
CONTINUOUS
10
0.999803
20
0.457874
11
1.00109
21
0.45758
0
CIRCLE
8
BLACK
10
0.945
20
0.517
40
0.00688976
0
CIRCLE
8
BLACK
10
0.492126
20
0.590551
40
0.00688976
0
CIRCLE
8
BLACK
10
0.853346
20
0.344488
40
0.00688976
0
CIRCLE
8
BLACK
10
0.492126
20
0
40
0.00688976
0
CIRCLE
8
BLACK
10
0.853346
20
0.246063
40
0.00688976
0
CIRCLE
8
BLACK
10
0.945
20
0.0735512
40
0.00688976
0
CIRCLE
8
BLACK
10
0.853346
20
0.423228
40
0.00688976
0
CIRCLE
8
BLACK
10
0.0984252
20
0.590551
40
0.00688976
0
CIRCLE
8
BLACK
10
0.885827
20
0
40
0.00688976
0
CIRCLE
8
BLACK
10
0.898622
20
0.473551
40
0.00688976
0
CIRCLE
8
BLACK
10
0.885827
20
0.590551
40
0.00688976
0
CIRCLE
8
BLACK
10
0.0984252
20
0
40
0.00688976
0
CIRCLE
8
BLACK
10
0.898
20
0.117
40
0.00688976
0
CIRCLE
8
BLACK
10
0.853346
20
0.167323
40
0.00688976
0
CIRCLE
8
BLACK
10
1.13189
20
0.194882
40
0.00688976
0
CIRCLE
8
BLACK
10
1.13189
20
0.395669
40
0.00688976
0
CIRCLE
8
BLACK
10
0.931102
20
0.194882
40
0.00688976
0
CIRCLE
8
BLACK
10
0.931102
20
0.395669
40
0.00688976
0
CIRCLE
8
BLACK
10
0.554961
20
0.42815
40
0.00787402
0
CIRCLE
8
BLACK
10
0.165
20
0.17
40
0.00787402
0
CIRCLE
8
BLACK
10
0.045
20
0.505
40
0.00787402
0
CIRCLE
8
BLACK
10
0.155
20
0.475
40
0.00787402
0
CIRCLE
8
BLACK
10
0.085
20
0.505
40
0.00787402
0
CIRCLE
8
BLACK
10
0.125
20
0.505
40
0.00787402
0
CIRCLE
8
BLACK
10
0.045
20
0.215
40
0.00787402
0
CIRCLE
8
BLACK
10
0.624016
20
0.216535
40
0.00787402
0
CIRCLE
8
BLACK
10
0.51118
20
0.192606
40
0.00787402
0
CIRCLE
8
BLACK
10
0.045
20
0.09
40
0.00787402
0
CIRCLE
8
BLACK
10
0.065
20
0.385
40
0.00787402
0
CIRCLE
8
BLACK
10
0.135
20
0.09
40
0.00787402
0
CIRCLE
8
BLACK
10
0.165
20
0.125
40
0.00787402
0
CIRCLE
8
BLACK
10
0.04
20
0.35
40
0.00787402
0
CIRCLE
8
BLACK
10
0.09
20
0.09
40
0.00787402
0
CIRCLE
8
BLACK
10
0.2
20
0.42
40
0.00787402
0
CIRCLE
8
BLACK
10
0.04
20
0.305
40
0.00787402
0
CIRCLE
8
BLACK
10
0.356142
20
0.437992
40
0.00787402
0
CIRCLE
8
BLACK
10
1.06102
20
0.38878
40
0.00787402
0
CIRCLE
8
BLACK
10
0.359094
20
0.231299
40
0.00787402
0
CIRCLE
8
BLACK
10
0.04
20
0.26
40
0.00787402
0
CIRCLE
8
BLACK
10
0.16
20
0.42
40
0.00787402
0
CIRCLE
8
BLACK
10
0.449
20
0.082
40
0.00787402
0
CIRCLE
8
BLACK
10
0.542
20
0.16113
40
0.00787402
0
CIRCLE
8
BLACK
10
0.11
20
0.37
40
0.00787402
0
CIRCLE
8
BLACK
10
0.25
20
0.37
40
0.00787402
0
CIRCLE
8
BLACK
10
0.112205
20
0.270669
40
0.00787402
0
CIRCLE
8
BLACK
10
0.266575
20
0.312992
40
0.00787402
0
CIRCLE
8
BLACK
10
0.61
20
0.32
40
0.00787402
0
CIRCLE
8
BLACK
10
1.07185
20
0.19685
40
0.00787402
0
CIRCLE
8
BLACK
10
0.25
20
0.27
40
0.00787402
0
CIRCLE
8
BLACK
10
0.7
20
0.27
40
0.00787402
0
CIRCLE
8
BLACK
10
0.462844
20
0.133329
40
0.00787402
0
CIRCLE
8
BLACK
10
0.269146
20
0.13892
40
0.00787402
0
CIRCLE
8
BLACK
10
1.03296
20
0.190858
40
0.00787402
0
CIRCLE
8
BLACK
10
0.71
20
0.141752
40
0.00787402
  0
ENDSEC
  0
EOF
