  0
SECTION
  2
HEADER
  9
$ANGBASE
  50
0.0
  9
$ANGDIR
  70
1
  9
$MEASUREMENT
  70
0
  0
ENDSEC
  0
SECTION
  2
TABLES
  0
TABLE
  2
LTYPE
  70
4
  0
LTYPE
  5
40F
  2
CONTINUOUS
  70
0
  3
Solid line
  72
65
  73
0
  40
0.0
  0
LTYPE
  5
410
  2
DASHDOT
 70
0
  3
Dash Dot ____ _ ____ _
 72
65
 73
4
 40
2.0
 49
1.25
 49
-0.25
 49
0.25
 49
-0.25
  0
LTYPE
  5
411
  2
DASHED
 70
0
  3
Dashed __ __ __ __ __
 72
65
 73
2
 40
0.75
 49
0.5
 49
-0.25
  0
LTYPE
  5
43B
  2
DOTTED
 70
0
  3
Dotted .  .  .  .
 72
65
 73
2
 40
0.2
 49
0.0
 49
-0.2
  0
ENDTAB
  0
TABLE
  2
STYLE
  70
4
  0
STYLE
  2
KICAD
  70
0
  40
0
  41
1
  42
1
  50
0
  71
0
  3
isocp.shx
  0
STYLE
  2
KICADB
  70
0
  40
0
  41
1
  42
1
  50
0
  71
0
  3
isocp.shx
  0
STYLE
  2
KICADI
  70
0
  40
0
  41
1
  42
1
  50
15
  71
0
  3
isocp.shx
  0
STYLE
  2
KICADBI
  70
0
  40
0
  41
1
  42
1
  50
15
  71
0
  3
isocp.shx
  0
ENDTAB
  0
TABLE
  2
LAYER
  70
1
  0
LAYER
  2
BLACK
  70
0
  62
7
  6
CONTINUOUS
  0
ENDTAB
  0
ENDSEC
  0
SECTION
  2
ENTITIES
0
LINE
8
BLACK
6
CONTINUOUS
10
0.2843351968503937
20
0.1077682283464567
11
0.286463937007874
21
0.1063458267716535
0
LINE
8
BLACK
6
CONTINUOUS
10
0.286463937007874
20
0.1063458267716535
11
0.2878863385826771
21
0.1042170866141732
0
LINE
8
BLACK
6
CONTINUOUS
10
0.2878863385826771
20
0.1042170866141732
11
0.2883857874015748
21
0.1017059842519685
0
LINE
8
BLACK
6
CONTINUOUS
10
0.2883857874015748
20
0.1017059842519685
11
0.2883858267716535
21
0.0557742913385827
0
LINE
8
BLACK
6
CONTINUOUS
10
0.2883858267716535
20
0.0557742913385827
11
0.2878863385826771
21
0.0532632283464567
0
LINE
8
BLACK
6
CONTINUOUS
10
0.2878863385826771
20
0.0532632283464567
11
0.286463937007874
21
0.0511344881889764
0
LINE
8
BLACK
6
CONTINUOUS
10
0.286463937007874
20
0.0511344881889764
11
0.2843351968503937
21
0.0497120866141732
0
LINE
8
BLACK
6
CONTINUOUS
10
0.2843351968503937
20
0.0497120866141732
11
0.281824094488189
21
0.0492126377952756
0
LINE
8
BLACK
6
CONTINUOUS
10
0.281824094488189
20
0.0492126377952756
11
0.2457349212598425
21
0.0492125984251968
0
LINE
8
BLACK
6
CONTINUOUS
10
0.2457349212598425
20
0.0492125984251968
11
0.2432238582677165
21
0.0497120866141732
0
LINE
8
BLACK
6
CONTINUOUS
10
0.2432238582677165
20
0.0497120866141732
11
0.2410951181102362
21
0.0511344881889764
0
LINE
8
BLACK
6
CONTINUOUS
10
0.2410951181102362
20
0.0511344881889764
11
0.2396727165354331
21
0.0532632283464567
0
LINE
8
BLACK
6
CONTINUOUS
10
0.2396727165354331
20
0.0532632283464567
11
0.2391732677165354
21
0.0557743307086614
0
LINE
8
BLACK
6
CONTINUOUS
10
0.2391732677165354
20
0.0557743307086614
11
0.2391732283464567
21
0.1017060236220472
0
LINE
8
BLACK
6
CONTINUOUS
10
0.2391732283464567
20
0.1017060236220472
11
0.2396727165354331
21
0.1042170866141732
0
LINE
8
BLACK
6
CONTINUOUS
10
0.2396727165354331
20
0.1042170866141732
11
0.2410951181102362
21
0.1063458267716535
0
LINE
8
BLACK
6
CONTINUOUS
10
0.2410951181102362
20
0.1063458267716535
11
0.2432238582677165
21
0.1077682283464567
0
LINE
8
BLACK
6
CONTINUOUS
10
0.2432238582677165
20
0.1077682283464567
11
0.2457349606299213
21
0.1082676771653543
0
LINE
8
BLACK
6
CONTINUOUS
10
0.2457349606299213
20
0.1082676771653543
11
0.2818241338582677
21
0.1082677165354331
0
LINE
8
BLACK
6
CONTINUOUS
10
0.2818241338582677
20
0.1082677165354331
11
0.2843351968503937
21
0.1077682283464567
0
LINE
8
BLACK
6
CONTINUOUS
10
0.4260674803149606
20
0.1077682283464567
11
0.4281962204724409
21
0.1063458267716535
0
LINE
8
BLACK
6
CONTINUOUS
10
0.4281962204724409
20
0.1063458267716535
11
0.4296186220472441
21
0.1042170866141732
0
LINE
8
BLACK
6
CONTINUOUS
10
0.4296186220472441
20
0.1042170866141732
11
0.4301180708661417
21
0.1017059842519685
0
LINE
8
BLACK
6
CONTINUOUS
10
0.4301180708661417
20
0.1017059842519685
11
0.4301181102362205
21
0.0557742913385827
0
LINE
8
BLACK
6
CONTINUOUS
10
0.4301181102362205
20
0.0557742913385827
11
0.4296186220472441
21
0.0532632283464567
0
LINE
8
BLACK
6
CONTINUOUS
10
0.4296186220472441
20
0.0532632283464567
11
0.4281962204724409
21
0.0511344881889764
0
LINE
8
BLACK
6
CONTINUOUS
10
0.4281962204724409
20
0.0511344881889764
11
0.4260674803149606
21
0.0497120866141732
0
LINE
8
BLACK
6
CONTINUOUS
10
0.4260674803149606
20
0.0497120866141732
11
0.4235563779527559
21
0.0492126377952756
0
LINE
8
BLACK
6
CONTINUOUS
10
0.4235563779527559
20
0.0492126377952756
11
0.3874672047244094
21
0.0492125984251968
0
LINE
8
BLACK
6
CONTINUOUS
10
0.3874672047244094
20
0.0492125984251968
11
0.3849561417322834
21
0.0497120866141732
0
LINE
8
BLACK
6
CONTINUOUS
10
0.3849561417322834
20
0.0497120866141732
11
0.3828274015748032
21
0.0511344881889764
0
LINE
8
BLACK
6
CONTINUOUS
10
0.3828274015748032
20
0.0511344881889764
11
0.381405
21
0.0532632283464567
0
LINE
8
BLACK
6
CONTINUOUS
10
0.381405
20
0.0532632283464567
11
0.3809055511811024
21
0.0557743307086614
0
LINE
8
BLACK
6
CONTINUOUS
10
0.3809055511811024
20
0.0557743307086614
11
0.3809055118110236
21
0.1017060236220472
0
LINE
8
BLACK
6
CONTINUOUS
10
0.3809055118110236
20
0.1017060236220472
11
0.381405
21
0.1042170866141732
0
LINE
8
BLACK
6
CONTINUOUS
10
0.381405
20
0.1042170866141732
11
0.3828274015748032
21
0.1063458267716535
0
LINE
8
BLACK
6
CONTINUOUS
10
0.3828274015748032
20
0.1063458267716535
11
0.3849561417322834
21
0.1077682283464567
0
LINE
8
BLACK
6
CONTINUOUS
10
0.3849561417322834
20
0.1077682283464567
11
0.3874672440944882
21
0.1082676771653543
0
LINE
8
BLACK
6
CONTINUOUS
10
0.3874672440944882
20
0.1082676771653543
11
0.4235564173228346
21
0.1082677165354331
0
LINE
8
BLACK
6
CONTINUOUS
10
0.4235564173228346
20
0.1082677165354331
11
0.4260674803149606
21
0.1077682283464567
0
LINE
8
BLACK
6
CONTINUOUS
10
0.5049000787401575
20
0.1230452362204724
11
0.5076940944881889
21
0.1211783464566929
0
LINE
8
BLACK
6
CONTINUOUS
10
0.5076940944881889
20
0.1211783464566929
11
0.5095609842519685
21
0.1183843307086614
0
LINE
8
BLACK
6
CONTINUOUS
10
0.5095609842519685
20
0.1183843307086614
11
0.5102165354330709
21
0.1150885826771653
0
LINE
8
BLACK
6
CONTINUOUS
10
0.5102165354330709
20
0.1150885826771653
11
0.5102165354330709
21
0.0949114173228346
0
LINE
8
BLACK
6
CONTINUOUS
10
0.5102165354330709
20
0.0949114173228346
11
0.5095609842519685
21
0.0916156692913386
0
LINE
8
BLACK
6
CONTINUOUS
10
0.5095609842519685
20
0.0916156692913386
11
0.5076940944881889
21
0.0888216535433071
0
LINE
8
BLACK
6
CONTINUOUS
10
0.5076940944881889
20
0.0888216535433071
11
0.5049000787401575
21
0.0869547637795276
0
LINE
8
BLACK
6
CONTINUOUS
10
0.5049000787401575
20
0.0869547637795276
11
0.5016043307086614
21
0.0862992125984252
0
LINE
8
BLACK
6
CONTINUOUS
10
0.5016043307086614
20
0.0862992125984252
11
0.4843799212598425
21
0.0862992125984252
0
LINE
8
BLACK
6
CONTINUOUS
10
0.4843799212598425
20
0.0862992125984252
11
0.4810841732283465
21
0.0869547637795276
0
LINE
8
BLACK
6
CONTINUOUS
10
0.4810841732283465
20
0.0869547637795276
11
0.4782901574803149
21
0.0888216535433071
0
LINE
8
BLACK
6
CONTINUOUS
10
0.4782901574803149
20
0.0888216535433071
11
0.4764232677165354
21
0.0916156692913386
0
LINE
8
BLACK
6
CONTINUOUS
10
0.4764232677165354
20
0.0916156692913386
11
0.475767716535433
21
0.0949114173228346
0
LINE
8
BLACK
6
CONTINUOUS
10
0.475767716535433
20
0.0949114173228346
11
0.475767716535433
21
0.1150885826771653
0
LINE
8
BLACK
6
CONTINUOUS
10
0.475767716535433
20
0.1150885826771653
11
0.4764232677165354
21
0.1183843307086614
0
LINE
8
BLACK
6
CONTINUOUS
10
0.4764232677165354
20
0.1183843307086614
11
0.4782901574803149
21
0.1211783464566929
0
LINE
8
BLACK
6
CONTINUOUS
10
0.4782901574803149
20
0.1211783464566929
11
0.4810841732283465
21
0.1230452362204724
0
LINE
8
BLACK
6
CONTINUOUS
10
0.4810841732283465
20
0.1230452362204724
11
0.4843799212598425
21
0.1237007874015748
0
LINE
8
BLACK
6
CONTINUOUS
10
0.4843799212598425
20
0.1237007874015748
11
0.5016043307086614
21
0.1237007874015748
0
LINE
8
BLACK
6
CONTINUOUS
10
0.5016043307086614
20
0.1237007874015748
11
0.5049000787401575
21
0.1230452362204724
0
LINE
8
BLACK
6
CONTINUOUS
10
0.5669079527559056
20
0.1230452362204724
11
0.569701968503937
21
0.1211783464566929
0
LINE
8
BLACK
6
CONTINUOUS
10
0.569701968503937
20
0.1211783464566929
11
0.5715688582677165
21
0.1183843307086614
0
LINE
8
BLACK
6
CONTINUOUS
10
0.5715688582677165
20
0.1183843307086614
11
0.5722244094488189
21
0.1150885826771653
0
LINE
8
BLACK
6
CONTINUOUS
10
0.5722244094488189
20
0.1150885826771653
11
0.5722244094488189
21
0.0949114173228346
0
LINE
8
BLACK
6
CONTINUOUS
10
0.5722244094488189
20
0.0949114173228346
11
0.5715688582677165
21
0.0916156692913386
0
LINE
8
BLACK
6
CONTINUOUS
10
0.5715688582677165
20
0.0916156692913386
11
0.569701968503937
21
0.0888216535433071
0
LINE
8
BLACK
6
CONTINUOUS
10
0.569701968503937
20
0.0888216535433071
11
0.5669079527559056
21
0.0869547637795276
0
LINE
8
BLACK
6
CONTINUOUS
10
0.5669079527559056
20
0.0869547637795276
11
0.5636122047244094
21
0.0862992125984252
0
LINE
8
BLACK
6
CONTINUOUS
10
0.5636122047244094
20
0.0862992125984252
11
0.5463877952755906
21
0.0862992125984252
0
LINE
8
BLACK
6
CONTINUOUS
10
0.5463877952755906
20
0.0862992125984252
11
0.5430920472440944
21
0.0869547637795276
0
LINE
8
BLACK
6
CONTINUOUS
10
0.5430920472440944
20
0.0869547637795276
11
0.5402980314960629
21
0.0888216535433071
0
LINE
8
BLACK
6
CONTINUOUS
10
0.5402980314960629
20
0.0888216535433071
11
0.5384311417322835
21
0.0916156692913386
0
LINE
8
BLACK
6
CONTINUOUS
10
0.5384311417322835
20
0.0916156692913386
11
0.5377755905511811
21
0.0949114173228346
0
LINE
8
BLACK
6
CONTINUOUS
10
0.5377755905511811
20
0.0949114173228346
11
0.5377755905511811
21
0.1150885826771653
0
LINE
8
BLACK
6
CONTINUOUS
10
0.5377755905511811
20
0.1150885826771653
11
0.5384311417322835
21
0.1183843307086614
0
LINE
8
BLACK
6
CONTINUOUS
10
0.5384311417322835
20
0.1183843307086614
11
0.5402980314960629
21
0.1211783464566929
0
LINE
8
BLACK
6
CONTINUOUS
10
0.5402980314960629
20
0.1211783464566929
11
0.5430920472440944
21
0.1230452362204724
0
LINE
8
BLACK
6
CONTINUOUS
10
0.5430920472440944
20
0.1230452362204724
11
0.5463877952755906
21
0.1237007874015748
0
LINE
8
BLACK
6
CONTINUOUS
10
0.5463877952755906
20
0.1237007874015748
11
0.5636122047244094
21
0.1237007874015748
0
LINE
8
BLACK
6
CONTINUOUS
10
0.5636122047244094
20
0.1237007874015748
11
0.5669079527559056
21
0.1230452362204724
0
LINE
8
BLACK
6
CONTINUOUS
10
0.1119240551181102
20
0.167557874015748
11
0.1151172047244094
21
0.1654242913385827
0
LINE
8
BLACK
6
CONTINUOUS
10
0.1151172047244094
20
0.1654242913385827
11
0.1172507874015748
21
0.1622311417322835
0
LINE
8
BLACK
6
CONTINUOUS
10
0.1172507874015748
20
0.1622311417322835
11
0.118
21
0.1584645669291339
0
LINE
8
BLACK
6
CONTINUOUS
10
0.118
20
0.1584645669291339
11
0.118
21
0.1387795275590551
0
LINE
8
BLACK
6
CONTINUOUS
10
0.118
20
0.1387795275590551
11
0.1172507874015748
21
0.1350129527559055
0
LINE
8
BLACK
6
CONTINUOUS
10
0.1172507874015748
20
0.1350129527559055
11
0.1151172047244094
21
0.1318198031496063
0
LINE
8
BLACK
6
CONTINUOUS
10
0.1151172047244094
20
0.1318198031496063
11
0.1119240551181102
21
0.1296862204724409
0
LINE
8
BLACK
6
CONTINUOUS
10
0.1119240551181102
20
0.1296862204724409
11
0.1081574803149606
21
0.1289370078740157
0
LINE
8
BLACK
6
CONTINUOUS
10
0.1081574803149606
20
0.1289370078740157
11
0.0215433070866142
21
0.1289370078740157
0
LINE
8
BLACK
6
CONTINUOUS
10
0.0215433070866142
20
0.1289370078740157
11
0.0177767322834646
21
0.1296862204724409
0
LINE
8
BLACK
6
CONTINUOUS
10
0.0177767322834646
20
0.1296862204724409
11
0.0145835826771654
21
0.1318198031496063
0
LINE
8
BLACK
6
CONTINUOUS
10
0.0145835826771654
20
0.1318198031496063
11
0.01245
21
0.1350129527559055
0
LINE
8
BLACK
6
CONTINUOUS
10
0.01245
20
0.1350129527559055
11
0.0117007874015748
21
0.1387795275590551
0
LINE
8
BLACK
6
CONTINUOUS
10
0.0117007874015748
20
0.1387795275590551
11
0.0117007874015748
21
0.1584645669291339
0
LINE
8
BLACK
6
CONTINUOUS
10
0.0117007874015748
20
0.1584645669291339
11
0.01245
21
0.1622311417322835
0
LINE
8
BLACK
6
CONTINUOUS
10
0.01245
20
0.1622311417322835
11
0.0145835826771654
21
0.1654242913385827
0
LINE
8
BLACK
6
CONTINUOUS
10
0.0145835826771654
20
0.1654242913385827
11
0.0177767322834646
21
0.167557874015748
0
LINE
8
BLACK
6
CONTINUOUS
10
0.0177767322834646
20
0.167557874015748
11
0.0215433070866142
21
0.1683070866141732
0
LINE
8
BLACK
6
CONTINUOUS
10
0.0215433070866142
20
0.1683070866141732
11
0.1081574803149606
21
0.1683070866141732
0
LINE
8
BLACK
6
CONTINUOUS
10
0.1081574803149606
20
0.1683070866141732
11
0.1119240551181102
21
0.167557874015748
0
LINE
8
BLACK
6
CONTINUOUS
10
0.4783843307086614
20
0.1965688582677165
11
0.4811783464566929
21
0.194701968503937
0
LINE
8
BLACK
6
CONTINUOUS
10
0.4811783464566929
20
0.194701968503937
11
0.4830452362204724
21
0.1919079527559055
0
LINE
8
BLACK
6
CONTINUOUS
10
0.4830452362204724
20
0.1919079527559055
11
0.4837007874015748
21
0.1886122047244095
0
LINE
8
BLACK
6
CONTINUOUS
10
0.4837007874015748
20
0.1886122047244095
11
0.4837007874015748
21
0.1713877952755906
0
LINE
8
BLACK
6
CONTINUOUS
10
0.4837007874015748
20
0.1713877952755906
11
0.4830452362204724
21
0.1680920472440945
0
LINE
8
BLACK
6
CONTINUOUS
10
0.4830452362204724
20
0.1680920472440945
11
0.4811783464566929
21
0.165298031496063
0
LINE
8
BLACK
6
CONTINUOUS
10
0.4811783464566929
20
0.165298031496063
11
0.4783843307086614
21
0.1634311417322835
0
LINE
8
BLACK
6
CONTINUOUS
10
0.4783843307086614
20
0.1634311417322835
11
0.4750885826771654
21
0.1627755905511811
0
LINE
8
BLACK
6
CONTINUOUS
10
0.4750885826771654
20
0.1627755905511811
11
0.4549114173228346
21
0.1627755905511811
0
LINE
8
BLACK
6
CONTINUOUS
10
0.4549114173228346
20
0.1627755905511811
11
0.4516156692913386
21
0.1634311417322835
0
LINE
8
BLACK
6
CONTINUOUS
10
0.4516156692913386
20
0.1634311417322835
11
0.4488216535433071
21
0.165298031496063
0
LINE
8
BLACK
6
CONTINUOUS
10
0.4488216535433071
20
0.165298031496063
11
0.4469547637795275
21
0.1680920472440945
0
LINE
8
BLACK
6
CONTINUOUS
10
0.4469547637795275
20
0.1680920472440945
11
0.4462992125984252
21
0.1713877952755906
0
LINE
8
BLACK
6
CONTINUOUS
10
0.4462992125984252
20
0.1713877952755906
11
0.4462992125984252
21
0.1886122047244095
0
LINE
8
BLACK
6
CONTINUOUS
10
0.4462992125984252
20
0.1886122047244095
11
0.4469547637795275
21
0.1919079527559055
0
LINE
8
BLACK
6
CONTINUOUS
10
0.4469547637795275
20
0.1919079527559055
11
0.4488216535433071
21
0.194701968503937
0
LINE
8
BLACK
6
CONTINUOUS
10
0.4488216535433071
20
0.194701968503937
11
0.4516156692913386
21
0.1965688582677165
0
LINE
8
BLACK
6
CONTINUOUS
10
0.4516156692913386
20
0.1965688582677165
11
0.4549114173228346
21
0.1972244094488189
0
LINE
8
BLACK
6
CONTINUOUS
10
0.4549114173228346
20
0.1972244094488189
11
0.4750885826771654
21
0.1972244094488189
0
LINE
8
BLACK
6
CONTINUOUS
10
0.4750885826771654
20
0.1972244094488189
11
0.4783843307086614
21
0.1965688582677165
0
LINE
8
BLACK
6
CONTINUOUS
10
0.6420866141732283
20
0.1718503937007874
11
0.6066535433070867
21
0.1718503937007874
0
LINE
8
BLACK
6
CONTINUOUS
10
0.6066535433070867
20
0.1718503937007874
11
0.6066535433070867
21
0.2033464566929134
0
LINE
8
BLACK
6
CONTINUOUS
10
0.6066535433070867
20
0.2033464566929134
11
0.6420866141732283
21
0.2033464566929134
0
LINE
8
BLACK
6
CONTINUOUS
10
0.6420866141732283
20
0.2033464566929134
11
0.6420866141732283
21
0.1718503937007874
0
LINE
8
BLACK
6
CONTINUOUS
10
0.3303937007874015
20
0.1758267716535433
11
0.3048031496062992
21
0.1758267716535433
0
LINE
8
BLACK
6
CONTINUOUS
10
0.3048031496062992
20
0.1758267716535433
11
0.3048031496062992
21
0.2175590551181102
0
LINE
8
BLACK
6
CONTINUOUS
10
0.3048031496062992
20
0.2175590551181102
11
0.3303937007874015
21
0.2175590551181102
0
LINE
8
BLACK
6
CONTINUOUS
10
0.3303937007874015
20
0.2175590551181102
11
0.3303937007874015
21
0.1758267716535433
0
LINE
8
BLACK
6
CONTINUOUS
10
0.3677952755905512
20
0.1758267716535433
11
0.3422047244094488
21
0.1758267716535433
0
LINE
8
BLACK
6
CONTINUOUS
10
0.3422047244094488
20
0.1758267716535433
11
0.3422047244094488
21
0.2175590551181102
0
LINE
8
BLACK
6
CONTINUOUS
10
0.3422047244094488
20
0.2175590551181102
11
0.3677952755905512
21
0.2175590551181102
0
LINE
8
BLACK
6
CONTINUOUS
10
0.3677952755905512
20
0.2175590551181102
11
0.3677952755905512
21
0.1758267716535433
0
LINE
8
BLACK
6
CONTINUOUS
10
0.4051968503937008
20
0.1758267716535433
11
0.3796062992125984
21
0.1758267716535433
0
LINE
8
BLACK
6
CONTINUOUS
10
0.3796062992125984
20
0.1758267716535433
11
0.3796062992125984
21
0.2175590551181102
0
LINE
8
BLACK
6
CONTINUOUS
10
0.3796062992125984
20
0.2175590551181102
11
0.4051968503937008
21
0.2175590551181102
0
LINE
8
BLACK
6
CONTINUOUS
10
0.4051968503937008
20
0.2175590551181102
11
0.4051968503937008
21
0.1758267716535433
0
LINE
8
BLACK
6
CONTINUOUS
10
0.7049000787401575
20
0.2280452362204724
11
0.707694094488189
21
0.2261783464566929
0
LINE
8
BLACK
6
CONTINUOUS
10
0.707694094488189
20
0.2261783464566929
11
0.7095609842519685
21
0.2233843307086614
0
LINE
8
BLACK
6
CONTINUOUS
10
0.7095609842519685
20
0.2233843307086614
11
0.7102165354330708
21
0.2200885826771654
0
LINE
8
BLACK
6
CONTINUOUS
10
0.7102165354330708
20
0.2200885826771654
11
0.7102165354330708
21
0.1999114173228346
0
LINE
8
BLACK
6
CONTINUOUS
10
0.7102165354330708
20
0.1999114173228346
11
0.7095609842519685
21
0.1966156692913386
0
LINE
8
BLACK
6
CONTINUOUS
10
0.7095609842519685
20
0.1966156692913386
11
0.707694094488189
21
0.1938216535433071
0
LINE
8
BLACK
6
CONTINUOUS
10
0.707694094488189
20
0.1938216535433071
11
0.7049000787401575
21
0.1919547637795276
0
LINE
8
BLACK
6
CONTINUOUS
10
0.7049000787401575
20
0.1919547637795276
11
0.7016043307086614
21
0.1912992125984252
0
LINE
8
BLACK
6
CONTINUOUS
10
0.7016043307086614
20
0.1912992125984252
11
0.6843799212598425
21
0.1912992125984252
0
LINE
8
BLACK
6
CONTINUOUS
10
0.6843799212598425
20
0.1912992125984252
11
0.6810841732283465
21
0.1919547637795276
0
LINE
8
BLACK
6
CONTINUOUS
10
0.6810841732283465
20
0.1919547637795276
11
0.678290157480315
21
0.1938216535433071
0
LINE
8
BLACK
6
CONTINUOUS
10
0.678290157480315
20
0.1938216535433071
11
0.6764232677165354
21
0.1966156692913386
0
LINE
8
BLACK
6
CONTINUOUS
10
0.6764232677165354
20
0.1966156692913386
11
0.6757677165354331
21
0.1999114173228346
0
LINE
8
BLACK
6
CONTINUOUS
10
0.6757677165354331
20
0.1999114173228346
11
0.6757677165354331
21
0.2200885826771654
0
LINE
8
BLACK
6
CONTINUOUS
10
0.6757677165354331
20
0.2200885826771654
11
0.6764232677165354
21
0.2233843307086614
0
LINE
8
BLACK
6
CONTINUOUS
10
0.6764232677165354
20
0.2233843307086614
11
0.678290157480315
21
0.2261783464566929
0
LINE
8
BLACK
6
CONTINUOUS
10
0.678290157480315
20
0.2261783464566929
11
0.6810841732283465
21
0.2280452362204724
0
LINE
8
BLACK
6
CONTINUOUS
10
0.6810841732283465
20
0.2280452362204724
11
0.6843799212598425
21
0.2287007874015748
0
LINE
8
BLACK
6
CONTINUOUS
10
0.6843799212598425
20
0.2287007874015748
11
0.7016043307086614
21
0.2287007874015748
0
LINE
8
BLACK
6
CONTINUOUS
10
0.7016043307086614
20
0.2287007874015748
11
0.7049000787401575
21
0.2280452362204724
0
LINE
8
BLACK
6
CONTINUOUS
10
0.7669079527559055
20
0.2280452362204724
11
0.769701968503937
21
0.2261783464566929
0
LINE
8
BLACK
6
CONTINUOUS
10
0.769701968503937
20
0.2261783464566929
11
0.7715688582677165
21
0.2233843307086614
0
LINE
8
BLACK
6
CONTINUOUS
10
0.7715688582677165
20
0.2233843307086614
11
0.7722244094488189
21
0.2200885826771654
0
LINE
8
BLACK
6
CONTINUOUS
10
0.7722244094488189
20
0.2200885826771654
11
0.7722244094488189
21
0.1999114173228346
0
LINE
8
BLACK
6
CONTINUOUS
10
0.7722244094488189
20
0.1999114173228346
11
0.7715688582677165
21
0.1966156692913386
0
LINE
8
BLACK
6
CONTINUOUS
10
0.7715688582677165
20
0.1966156692913386
11
0.769701968503937
21
0.1938216535433071
0
LINE
8
BLACK
6
CONTINUOUS
10
0.769701968503937
20
0.1938216535433071
11
0.7669079527559055
21
0.1919547637795276
0
LINE
8
BLACK
6
CONTINUOUS
10
0.7669079527559055
20
0.1919547637795276
11
0.7636122047244094
21
0.1912992125984252
0
LINE
8
BLACK
6
CONTINUOUS
10
0.7636122047244094
20
0.1912992125984252
11
0.7463877952755905
21
0.1912992125984252
0
LINE
8
BLACK
6
CONTINUOUS
10
0.7463877952755905
20
0.1912992125984252
11
0.7430920472440945
21
0.1919547637795276
0
LINE
8
BLACK
6
CONTINUOUS
10
0.7430920472440945
20
0.1919547637795276
11
0.740298031496063
21
0.1938216535433071
0
LINE
8
BLACK
6
CONTINUOUS
10
0.740298031496063
20
0.1938216535433071
11
0.7384311417322834
21
0.1966156692913386
0
LINE
8
BLACK
6
CONTINUOUS
10
0.7384311417322834
20
0.1966156692913386
11
0.7377755905511811
21
0.1999114173228346
0
LINE
8
BLACK
6
CONTINUOUS
10
0.7377755905511811
20
0.1999114173228346
11
0.7377755905511811
21
0.2200885826771654
0
LINE
8
BLACK
6
CONTINUOUS
10
0.7377755905511811
20
0.2200885826771654
11
0.7384311417322834
21
0.2233843307086614
0
LINE
8
BLACK
6
CONTINUOUS
10
0.7384311417322834
20
0.2233843307086614
11
0.740298031496063
21
0.2261783464566929
0
LINE
8
BLACK
6
CONTINUOUS
10
0.740298031496063
20
0.2261783464566929
11
0.7430920472440945
21
0.2280452362204724
0
LINE
8
BLACK
6
CONTINUOUS
10
0.7430920472440945
20
0.2280452362204724
11
0.7463877952755905
21
0.2287007874015748
0
LINE
8
BLACK
6
CONTINUOUS
10
0.7463877952755905
20
0.2287007874015748
11
0.7636122047244094
21
0.2287007874015748
0
LINE
8
BLACK
6
CONTINUOUS
10
0.7636122047244094
20
0.2287007874015748
11
0.7669079527559055
21
0.2280452362204724
0
LINE
8
BLACK
6
CONTINUOUS
10
0.5633464566929134
20
0.209251968503937
11
0.5279133858267716
21
0.209251968503937
0
LINE
8
BLACK
6
CONTINUOUS
10
0.5279133858267716
20
0.209251968503937
11
0.5279133858267716
21
0.240748031496063
0
LINE
8
BLACK
6
CONTINUOUS
10
0.5279133858267716
20
0.240748031496063
11
0.5633464566929134
21
0.240748031496063
0
LINE
8
BLACK
6
CONTINUOUS
10
0.5633464566929134
20
0.240748031496063
11
0.5633464566929134
21
0.209251968503937
0
LINE
8
BLACK
6
CONTINUOUS
10
0.2206536614173228
20
0.232818188976378
11
0.2225695275590551
21
0.231538031496063
0
LINE
8
BLACK
6
CONTINUOUS
10
0.2225695275590551
20
0.231538031496063
11
0.2238496850393701
21
0.2296221653543307
0
LINE
8
BLACK
6
CONTINUOUS
10
0.2238496850393701
20
0.2296221653543307
11
0.2242992125984252
21
0.2273622047244094
0
LINE
8
BLACK
6
CONTINUOUS
10
0.2242992125984252
20
0.2273622047244094
11
0.2242992125984252
21
0.2155511811023622
0
LINE
8
BLACK
6
CONTINUOUS
10
0.2242992125984252
20
0.2155511811023622
11
0.2238496850393701
21
0.213291220472441
0
LINE
8
BLACK
6
CONTINUOUS
10
0.2238496850393701
20
0.213291220472441
11
0.2225695275590551
21
0.2113753543307087
0
LINE
8
BLACK
6
CONTINUOUS
10
0.2225695275590551
20
0.2113753543307087
11
0.2206536614173228
21
0.2100951968503937
0
LINE
8
BLACK
6
CONTINUOUS
10
0.2206536614173228
20
0.2100951968503937
11
0.2183937007874016
21
0.2096456692913386
0
LINE
8
BLACK
6
CONTINUOUS
10
0.2183937007874016
20
0.2096456692913386
11
0.1632755905511811
21
0.2096456692913386
0
LINE
8
BLACK
6
CONTINUOUS
10
0.1632755905511811
20
0.2096456692913386
11
0.1610156299212598
21
0.2100951968503937
0
LINE
8
BLACK
6
CONTINUOUS
10
0.1610156299212598
20
0.2100951968503937
11
0.1590997637795276
21
0.2113753543307087
0
LINE
8
BLACK
6
CONTINUOUS
10
0.1590997637795276
20
0.2113753543307087
11
0.1578196062992126
21
0.213291220472441
0
LINE
8
BLACK
6
CONTINUOUS
10
0.1578196062992126
20
0.213291220472441
11
0.1573700787401575
21
0.2155511811023622
0
LINE
8
BLACK
6
CONTINUOUS
10
0.1573700787401575
20
0.2155511811023622
11
0.1573700787401575
21
0.2273622047244094
0
LINE
8
BLACK
6
CONTINUOUS
10
0.1573700787401575
20
0.2273622047244094
11
0.1578196062992126
21
0.2296221653543307
0
LINE
8
BLACK
6
CONTINUOUS
10
0.1578196062992126
20
0.2296221653543307
11
0.1590997637795276
21
0.231538031496063
0
LINE
8
BLACK
6
CONTINUOUS
10
0.1590997637795276
20
0.231538031496063
11
0.1610156299212598
21
0.232818188976378
0
LINE
8
BLACK
6
CONTINUOUS
10
0.1610156299212598
20
0.232818188976378
11
0.1632755905511811
21
0.2332677165354331
0
LINE
8
BLACK
6
CONTINUOUS
10
0.1632755905511811
20
0.2332677165354331
11
0.2183937007874016
21
0.2332677165354331
0
LINE
8
BLACK
6
CONTINUOUS
10
0.2183937007874016
20
0.2332677165354331
11
0.2206536614173228
21
0.232818188976378
0
LINE
8
BLACK
6
CONTINUOUS
10
0.4783843307086614
20
0.2585767322834646
11
0.4811783464566929
21
0.256709842519685
0
LINE
8
BLACK
6
CONTINUOUS
10
0.4811783464566929
20
0.256709842519685
11
0.4830452362204724
21
0.2539158267716535
0
LINE
8
BLACK
6
CONTINUOUS
10
0.4830452362204724
20
0.2539158267716535
11
0.4837007874015748
21
0.2506200787401575
0
LINE
8
BLACK
6
CONTINUOUS
10
0.4837007874015748
20
0.2506200787401575
11
0.4837007874015748
21
0.2333956692913386
0
LINE
8
BLACK
6
CONTINUOUS
10
0.4837007874015748
20
0.2333956692913386
11
0.4830452362204724
21
0.2300999212598425
0
LINE
8
BLACK
6
CONTINUOUS
10
0.4830452362204724
20
0.2300999212598425
11
0.4811783464566929
21
0.227305905511811
0
LINE
8
BLACK
6
CONTINUOUS
10
0.4811783464566929
20
0.227305905511811
11
0.4783843307086614
21
0.2254390157480315
0
LINE
8
BLACK
6
CONTINUOUS
10
0.4783843307086614
20
0.2254390157480315
11
0.4750885826771654
21
0.2247834645669291
0
LINE
8
BLACK
6
CONTINUOUS
10
0.4750885826771654
20
0.2247834645669291
11
0.4549114173228346
21
0.2247834645669291
0
LINE
8
BLACK
6
CONTINUOUS
10
0.4549114173228346
20
0.2247834645669291
11
0.4516156692913386
21
0.2254390157480315
0
LINE
8
BLACK
6
CONTINUOUS
10
0.4516156692913386
20
0.2254390157480315
11
0.4488216535433071
21
0.227305905511811
0
LINE
8
BLACK
6
CONTINUOUS
10
0.4488216535433071
20
0.227305905511811
11
0.4469547637795275
21
0.2300999212598425
0
LINE
8
BLACK
6
CONTINUOUS
10
0.4469547637795275
20
0.2300999212598425
11
0.4462992125984252
21
0.2333956692913386
0
LINE
8
BLACK
6
CONTINUOUS
10
0.4462992125984252
20
0.2333956692913386
11
0.4462992125984252
21
0.2506200787401575
0
LINE
8
BLACK
6
CONTINUOUS
10
0.4462992125984252
20
0.2506200787401575
11
0.4469547637795275
21
0.2539158267716535
0
LINE
8
BLACK
6
CONTINUOUS
10
0.4469547637795275
20
0.2539158267716535
11
0.4488216535433071
21
0.256709842519685
0
LINE
8
BLACK
6
CONTINUOUS
10
0.4488216535433071
20
0.256709842519685
11
0.4516156692913386
21
0.2585767322834646
0
LINE
8
BLACK
6
CONTINUOUS
10
0.4516156692913386
20
0.2585767322834646
11
0.4549114173228346
21
0.2592322834645669
0
LINE
8
BLACK
6
CONTINUOUS
10
0.4549114173228346
20
0.2592322834645669
11
0.4750885826771654
21
0.2592322834645669
0
LINE
8
BLACK
6
CONTINUOUS
10
0.4750885826771654
20
0.2592322834645669
11
0.4783843307086614
21
0.2585767322834646
0
LINE
8
BLACK
6
CONTINUOUS
10
1.0068897637795275
20
0.2381889763779527
11
0.9970472440944882
21
0.2381889763779527
0
LINE
8
BLACK
6
CONTINUOUS
10
0.9970472440944882
20
0.2381889763779527
11
0.9970472440944882
21
0.2598425196850394
0
LINE
8
BLACK
6
CONTINUOUS
10
0.9970472440944882
20
0.2598425196850394
11
1.0068897637795275
21
0.2598425196850394
0
LINE
8
BLACK
6
CONTINUOUS
10
1.0068897637795275
20
0.2598425196850394
11
1.0068897637795275
21
0.2381889763779527
0
LINE
8
BLACK
6
CONTINUOUS
10
1.0265748031496063
20
0.2381889763779527
11
1.0167322834645669
21
0.2381889763779527
0
LINE
8
BLACK
6
CONTINUOUS
10
1.0167322834645669
20
0.2381889763779527
11
1.0167322834645669
21
0.2598425196850394
0
LINE
8
BLACK
6
CONTINUOUS
10
1.0167322834645669
20
0.2598425196850394
11
1.0265748031496063
21
0.2598425196850394
0
LINE
8
BLACK
6
CONTINUOUS
10
1.0265748031496063
20
0.2598425196850394
11
1.0265748031496063
21
0.2381889763779527
0
LINE
8
BLACK
6
CONTINUOUS
10
1.046259842519685
20
0.2381889763779527
11
1.0364173228346456
21
0.2381889763779527
0
LINE
8
BLACK
6
CONTINUOUS
10
1.0364173228346456
20
0.2381889763779527
11
1.0364173228346456
21
0.2598425196850394
0
LINE
8
BLACK
6
CONTINUOUS
10
1.0364173228346456
20
0.2598425196850394
11
1.046259842519685
21
0.2598425196850394
0
LINE
8
BLACK
6
CONTINUOUS
10
1.046259842519685
20
0.2598425196850394
11
1.046259842519685
21
0.2381889763779527
0
LINE
8
BLACK
6
CONTINUOUS
10
1.0659448818897637
20
0.2381889763779527
11
1.0561023622047243
21
0.2381889763779527
0
LINE
8
BLACK
6
CONTINUOUS
10
1.0561023622047243
20
0.2381889763779527
11
1.0561023622047243
21
0.2598425196850394
0
LINE
8
BLACK
6
CONTINUOUS
10
1.0561023622047243
20
0.2598425196850394
11
1.0659448818897637
21
0.2598425196850394
0
LINE
8
BLACK
6
CONTINUOUS
10
1.0659448818897637
20
0.2598425196850394
11
1.0659448818897637
21
0.2381889763779527
0
LINE
8
BLACK
6
CONTINUOUS
10
0.6420866141732283
20
0.2466535433070866
11
0.6066535433070867
21
0.2466535433070866
0
LINE
8
BLACK
6
CONTINUOUS
10
0.6066535433070867
20
0.2466535433070866
11
0.6066535433070867
21
0.2781496062992126
0
LINE
8
BLACK
6
CONTINUOUS
10
0.6066535433070867
20
0.2781496062992126
11
0.6420866141732283
21
0.2781496062992126
0
LINE
8
BLACK
6
CONTINUOUS
10
0.6420866141732283
20
0.2781496062992126
11
0.6420866141732283
21
0.2466535433070866
0
LINE
8
BLACK
6
CONTINUOUS
10
0.2206536614173228
20
0.2820307874015748
11
0.2225695275590551
21
0.2807506299212598
0
LINE
8
BLACK
6
CONTINUOUS
10
0.2225695275590551
20
0.2807506299212598
11
0.2238496850393701
21
0.2788347637795275
0
LINE
8
BLACK
6
CONTINUOUS
10
0.2238496850393701
20
0.2788347637795275
11
0.2242992125984252
21
0.2765748031496063
0
LINE
8
BLACK
6
CONTINUOUS
10
0.2242992125984252
20
0.2765748031496063
11
0.2242992125984252
21
0.264763779527559
0
LINE
8
BLACK
6
CONTINUOUS
10
0.2242992125984252
20
0.264763779527559
11
0.2238496850393701
21
0.2625038188976378
0
LINE
8
BLACK
6
CONTINUOUS
10
0.2238496850393701
20
0.2625038188976378
11
0.2225695275590551
21
0.2605879527559055
0
LINE
8
BLACK
6
CONTINUOUS
10
0.2225695275590551
20
0.2605879527559055
11
0.2206536614173228
21
0.2593077952755906
0
LINE
8
BLACK
6
CONTINUOUS
10
0.2206536614173228
20
0.2593077952755906
11
0.2183937007874016
21
0.2588582677165354
0
LINE
8
BLACK
6
CONTINUOUS
10
0.2183937007874016
20
0.2588582677165354
11
0.1632755905511811
21
0.2588582677165354
0
LINE
8
BLACK
6
CONTINUOUS
10
0.1632755905511811
20
0.2588582677165354
11
0.1610156299212598
21
0.2593077952755906
0
LINE
8
BLACK
6
CONTINUOUS
10
0.1610156299212598
20
0.2593077952755906
11
0.1590997637795276
21
0.2605879527559055
0
LINE
8
BLACK
6
CONTINUOUS
10
0.1590997637795276
20
0.2605879527559055
11
0.1578196062992126
21
0.2625038188976378
0
LINE
8
BLACK
6
CONTINUOUS
10
0.1578196062992126
20
0.2625038188976378
11
0.1573700787401575
21
0.264763779527559
0
LINE
8
BLACK
6
CONTINUOUS
10
0.1573700787401575
20
0.264763779527559
11
0.1573700787401575
21
0.2765748031496063
0
LINE
8
BLACK
6
CONTINUOUS
10
0.1573700787401575
20
0.2765748031496063
11
0.1578196062992126
21
0.2788347637795275
0
LINE
8
BLACK
6
CONTINUOUS
10
0.1578196062992126
20
0.2788347637795275
11
0.1590997637795276
21
0.2807506299212598
0
LINE
8
BLACK
6
CONTINUOUS
10
0.1590997637795276
20
0.2807506299212598
11
0.1610156299212598
21
0.2820307874015748
0
LINE
8
BLACK
6
CONTINUOUS
10
0.1610156299212598
20
0.2820307874015748
11
0.1632755905511811
21
0.2824803149606299
0
LINE
8
BLACK
6
CONTINUOUS
10
0.1632755905511811
20
0.2824803149606299
11
0.2183937007874016
21
0.2824803149606299
0
LINE
8
BLACK
6
CONTINUOUS
10
0.2183937007874016
20
0.2824803149606299
11
0.2206536614173228
21
0.2820307874015748
0
LINE
8
BLACK
6
CONTINUOUS
10
0.3303937007874015
20
0.2624409448818897
11
0.3048031496062992
21
0.2624409448818897
0
LINE
8
BLACK
6
CONTINUOUS
10
0.3048031496062992
20
0.2624409448818897
11
0.3048031496062992
21
0.3041732283464567
0
LINE
8
BLACK
6
CONTINUOUS
10
0.3048031496062992
20
0.3041732283464567
11
0.3303937007874015
21
0.3041732283464567
0
LINE
8
BLACK
6
CONTINUOUS
10
0.3303937007874015
20
0.3041732283464567
11
0.3303937007874015
21
0.2624409448818897
0
LINE
8
BLACK
6
CONTINUOUS
10
0.4051968503937008
20
0.2624409448818897
11
0.3796062992125984
21
0.2624409448818897
0
LINE
8
BLACK
6
CONTINUOUS
10
0.3796062992125984
20
0.2624409448818897
11
0.3796062992125984
21
0.3041732283464567
0
LINE
8
BLACK
6
CONTINUOUS
10
0.3796062992125984
20
0.3041732283464567
11
0.4051968503937008
21
0.3041732283464567
0
LINE
8
BLACK
6
CONTINUOUS
10
0.4051968503937008
20
0.3041732283464567
11
0.4051968503937008
21
0.2624409448818897
0
LINE
8
BLACK
6
CONTINUOUS
10
1.0629921259842519
20
0.2881889763779528
11
1.0523622047244094
21
0.2775590551181102
0
LINE
8
BLACK
6
CONTINUOUS
10
1.0523622047244094
20
0.2775590551181102
11
1.
21
0.2775590551181102
0
LINE
8
BLACK
6
CONTINUOUS
10
1.
20
0.2775590551181102
11
1.
21
0.312992125984252
0
LINE
8
BLACK
6
CONTINUOUS
10
1.
20
0.312992125984252
11
1.0629921259842519
21
0.312992125984252
0
LINE
8
BLACK
6
CONTINUOUS
10
1.0629921259842519
20
0.312992125984252
11
1.0629921259842519
21
0.2881889763779528
0
LINE
8
BLACK
6
CONTINUOUS
10
0.2206536614173228
20
0.3312433858267717
11
0.2225695275590551
21
0.3299632283464567
0
LINE
8
BLACK
6
CONTINUOUS
10
0.2225695275590551
20
0.3299632283464567
11
0.2238496850393701
21
0.3280473622047244
0
LINE
8
BLACK
6
CONTINUOUS
10
0.2238496850393701
20
0.3280473622047244
11
0.2242992125984252
21
0.3257874015748031
0
LINE
8
BLACK
6
CONTINUOUS
10
0.2242992125984252
20
0.3257874015748031
11
0.2242992125984252
21
0.3139763779527559
0
LINE
8
BLACK
6
CONTINUOUS
10
0.2242992125984252
20
0.3139763779527559
11
0.2238496850393701
21
0.3117164173228346
0
LINE
8
BLACK
6
CONTINUOUS
10
0.2238496850393701
20
0.3117164173228346
11
0.2225695275590551
21
0.3098005511811023
0
LINE
8
BLACK
6
CONTINUOUS
10
0.2225695275590551
20
0.3098005511811023
11
0.2206536614173228
21
0.3085203937007874
0
LINE
8
BLACK
6
CONTINUOUS
10
0.2206536614173228
20
0.3085203937007874
11
0.2183937007874016
21
0.3080708661417323
0
LINE
8
BLACK
6
CONTINUOUS
10
0.2183937007874016
20
0.3080708661417323
11
0.1632755905511811
21
0.3080708661417323
0
LINE
8
BLACK
6
CONTINUOUS
10
0.1632755905511811
20
0.3080708661417323
11
0.1610156299212598
21
0.3085203937007874
0
LINE
8
BLACK
6
CONTINUOUS
10
0.1610156299212598
20
0.3085203937007874
11
0.1590997637795276
21
0.3098005511811023
0
LINE
8
BLACK
6
CONTINUOUS
10
0.1590997637795276
20
0.3098005511811023
11
0.1578196062992126
21
0.3117164173228346
0
LINE
8
BLACK
6
CONTINUOUS
10
0.1578196062992126
20
0.3117164173228346
11
0.1573700787401575
21
0.3139763779527559
0
LINE
8
BLACK
6
CONTINUOUS
10
0.1573700787401575
20
0.3139763779527559
11
0.1573700787401575
21
0.3257874015748031
0
LINE
8
BLACK
6
CONTINUOUS
10
0.1573700787401575
20
0.3257874015748031
11
0.1578196062992126
21
0.3280473622047244
0
LINE
8
BLACK
6
CONTINUOUS
10
0.1578196062992126
20
0.3280473622047244
11
0.1590997637795276
21
0.3299632283464567
0
LINE
8
BLACK
6
CONTINUOUS
10
0.1590997637795276
20
0.3299632283464567
11
0.1610156299212598
21
0.3312433858267717
0
LINE
8
BLACK
6
CONTINUOUS
10
0.1610156299212598
20
0.3312433858267717
11
0.1632755905511811
21
0.3316929133858267
0
LINE
8
BLACK
6
CONTINUOUS
10
0.1632755905511811
20
0.3316929133858267
11
0.2183937007874016
21
0.3316929133858267
0
LINE
8
BLACK
6
CONTINUOUS
10
0.2183937007874016
20
0.3316929133858267
11
0.2206536614173228
21
0.3312433858267717
0
LINE
8
BLACK
6
CONTINUOUS
10
1.0068897637795275
20
0.3307086614173228
11
0.9970472440944882
21
0.3307086614173228
0
LINE
8
BLACK
6
CONTINUOUS
10
0.9970472440944882
20
0.3307086614173228
11
0.9970472440944882
21
0.3523622047244094
0
LINE
8
BLACK
6
CONTINUOUS
10
0.9970472440944882
20
0.3523622047244094
11
1.0068897637795275
21
0.3523622047244094
0
LINE
8
BLACK
6
CONTINUOUS
10
1.0068897637795275
20
0.3523622047244094
11
1.0068897637795275
21
0.3307086614173228
0
LINE
8
BLACK
6
CONTINUOUS
10
1.0265748031496063
20
0.3307086614173228
11
1.0167322834645669
21
0.3307086614173228
0
LINE
8
BLACK
6
CONTINUOUS
10
1.0167322834645669
20
0.3307086614173228
11
1.0167322834645669
21
0.3523622047244094
0
LINE
8
BLACK
6
CONTINUOUS
10
1.0167322834645669
20
0.3523622047244094
11
1.0265748031496063
21
0.3523622047244094
0
LINE
8
BLACK
6
CONTINUOUS
10
1.0265748031496063
20
0.3523622047244094
11
1.0265748031496063
21
0.3307086614173228
0
LINE
8
BLACK
6
CONTINUOUS
10
1.046259842519685
20
0.3307086614173228
11
1.0364173228346456
21
0.3307086614173228
0
LINE
8
BLACK
6
CONTINUOUS
10
1.0364173228346456
20
0.3307086614173228
11
1.0364173228346456
21
0.3523622047244094
0
LINE
8
BLACK
6
CONTINUOUS
10
1.0364173228346456
20
0.3523622047244094
11
1.046259842519685
21
0.3523622047244094
0
LINE
8
BLACK
6
CONTINUOUS
10
1.046259842519685
20
0.3523622047244094
11
1.046259842519685
21
0.3307086614173228
0
LINE
8
BLACK
6
CONTINUOUS
10
1.0659448818897637
20
0.3307086614173228
11
1.0561023622047243
21
0.3307086614173228
0
LINE
8
BLACK
6
CONTINUOUS
10
1.0561023622047243
20
0.3307086614173228
11
1.0561023622047243
21
0.3523622047244094
0
LINE
8
BLACK
6
CONTINUOUS
10
1.0561023622047243
20
0.3523622047244094
11
1.0659448818897637
21
0.3523622047244094
0
LINE
8
BLACK
6
CONTINUOUS
10
1.0659448818897637
20
0.3523622047244094
11
1.0659448818897637
21
0.3307086614173228
0
LINE
8
BLACK
6
CONTINUOUS
10
0.4535236220472441
20
0.334763779527559
11
0.3985236220472441
21
0.334763779527559
0
LINE
8
BLACK
6
CONTINUOUS
10
0.3985236220472441
20
0.334763779527559
11
0.3985236220472441
21
0.3697637795275591
0
LINE
8
BLACK
6
CONTINUOUS
10
0.3985236220472441
20
0.3697637795275591
11
0.4535236220472441
21
0.3697637795275591
0
LINE
8
BLACK
6
CONTINUOUS
10
0.4535236220472441
20
0.3697637795275591
11
0.4535236220472441
21
0.334763779527559
0
LINE
8
BLACK
6
CONTINUOUS
10
0.5211008661417322
20
0.3694231889763779
11
0.5238948818897637
21
0.3675562992125984
0
LINE
8
BLACK
6
CONTINUOUS
10
0.5238948818897637
20
0.3675562992125984
11
0.5257617716535433
21
0.3647622834645669
0
LINE
8
BLACK
6
CONTINUOUS
10
0.5257617716535433
20
0.3647622834645669
11
0.5264173228346457
21
0.3614665354330708
0
LINE
8
BLACK
6
CONTINUOUS
10
0.5264173228346457
20
0.3614665354330708
11
0.5264173228346457
21
0.344242125984252
0
LINE
8
BLACK
6
CONTINUOUS
10
0.5264173228346457
20
0.344242125984252
11
0.5257617716535433
21
0.3409463779527559
0
LINE
8
BLACK
6
CONTINUOUS
10
0.5257617716535433
20
0.3409463779527559
11
0.5238948818897637
21
0.3381523622047244
0
LINE
8
BLACK
6
CONTINUOUS
10
0.5238948818897637
20
0.3381523622047244
11
0.5211008661417322
21
0.3362854724409449
0
LINE
8
BLACK
6
CONTINUOUS
10
0.5211008661417322
20
0.3362854724409449
11
0.5178051181102362
21
0.3356299212598425
0
LINE
8
BLACK
6
CONTINUOUS
10
0.5178051181102362
20
0.3356299212598425
11
0.4976279527559055
21
0.3356299212598425
0
LINE
8
BLACK
6
CONTINUOUS
10
0.4976279527559055
20
0.3356299212598425
11
0.4943322047244094
21
0.3362854724409449
0
LINE
8
BLACK
6
CONTINUOUS
10
0.4943322047244094
20
0.3362854724409449
11
0.491538188976378
21
0.3381523622047244
0
LINE
8
BLACK
6
CONTINUOUS
10
0.491538188976378
20
0.3381523622047244
11
0.4896712992125984
21
0.3409463779527559
0
LINE
8
BLACK
6
CONTINUOUS
10
0.4896712992125984
20
0.3409463779527559
11
0.4890157480314961
21
0.344242125984252
0
LINE
8
BLACK
6
CONTINUOUS
10
0.4890157480314961
20
0.344242125984252
11
0.4890157480314961
21
0.3614665354330708
0
LINE
8
BLACK
6
CONTINUOUS
10
0.4890157480314961
20
0.3614665354330708
11
0.4896712992125984
21
0.3647622834645669
0
LINE
8
BLACK
6
CONTINUOUS
10
0.4896712992125984
20
0.3647622834645669
11
0.491538188976378
21
0.3675562992125984
0
LINE
8
BLACK
6
CONTINUOUS
10
0.491538188976378
20
0.3675562992125984
11
0.4943322047244094
21
0.3694231889763779
0
LINE
8
BLACK
6
CONTINUOUS
10
0.4943322047244094
20
0.3694231889763779
11
0.4976279527559055
21
0.3700787401574803
0
LINE
8
BLACK
6
CONTINUOUS
10
0.4976279527559055
20
0.3700787401574803
11
0.5178051181102362
21
0.3700787401574803
0
LINE
8
BLACK
6
CONTINUOUS
10
0.5178051181102362
20
0.3700787401574803
11
0.5211008661417322
21
0.3694231889763779
0
LINE
8
BLACK
6
CONTINUOUS
10
0.3055496850393701
20
0.3733601968503937
11
0.3083437007874016
21
0.3714933070866142
0
LINE
8
BLACK
6
CONTINUOUS
10
0.3083437007874016
20
0.3714933070866142
11
0.3102105905511811
21
0.3686992913385826
0
LINE
8
BLACK
6
CONTINUOUS
10
0.3102105905511811
20
0.3686992913385826
11
0.3108661417322834
21
0.3654035433070866
0
LINE
8
BLACK
6
CONTINUOUS
10
0.3108661417322834
20
0.3654035433070866
11
0.3108661417322834
21
0.3481791338582677
0
LINE
8
BLACK
6
CONTINUOUS
10
0.3108661417322834
20
0.3481791338582677
11
0.3102105905511811
21
0.3448833858267716
0
LINE
8
BLACK
6
CONTINUOUS
10
0.3102105905511811
20
0.3448833858267716
11
0.3083437007874016
21
0.3420893700787401
0
LINE
8
BLACK
6
CONTINUOUS
10
0.3083437007874016
20
0.3420893700787401
11
0.3055496850393701
21
0.3402224803149606
0
LINE
8
BLACK
6
CONTINUOUS
10
0.3055496850393701
20
0.3402224803149606
11
0.302253937007874
21
0.3395669291338583
0
LINE
8
BLACK
6
CONTINUOUS
10
0.302253937007874
20
0.3395669291338583
11
0.2820767716535433
21
0.3395669291338583
0
LINE
8
BLACK
6
CONTINUOUS
10
0.2820767716535433
20
0.3395669291338583
11
0.2787810236220473
21
0.3402224803149606
0
LINE
8
BLACK
6
CONTINUOUS
10
0.2787810236220473
20
0.3402224803149606
11
0.2759870078740158
21
0.3420893700787401
0
LINE
8
BLACK
6
CONTINUOUS
10
0.2759870078740158
20
0.3420893700787401
11
0.2741201181102362
21
0.3448833858267716
0
LINE
8
BLACK
6
CONTINUOUS
10
0.2741201181102362
20
0.3448833858267716
11
0.2734645669291338
21
0.3481791338582677
0
LINE
8
BLACK
6
CONTINUOUS
10
0.2734645669291338
20
0.3481791338582677
11
0.2734645669291338
21
0.3654035433070866
0
LINE
8
BLACK
6
CONTINUOUS
10
0.2734645669291338
20
0.3654035433070866
11
0.2741201181102362
21
0.3686992913385826
0
LINE
8
BLACK
6
CONTINUOUS
10
0.2741201181102362
20
0.3686992913385826
11
0.2759870078740158
21
0.3714933070866142
0
LINE
8
BLACK
6
CONTINUOUS
10
0.2759870078740158
20
0.3714933070866142
11
0.2787810236220473
21
0.3733601968503937
0
LINE
8
BLACK
6
CONTINUOUS
10
0.2787810236220473
20
0.3733601968503937
11
0.2820767716535433
21
0.3740157480314961
0
LINE
8
BLACK
6
CONTINUOUS
10
0.2820767716535433
20
0.3740157480314961
11
0.302253937007874
21
0.3740157480314961
0
LINE
8
BLACK
6
CONTINUOUS
10
0.302253937007874
20
0.3740157480314961
11
0.3055496850393701
21
0.3733601968503937
0
LINE
8
BLACK
6
CONTINUOUS
10
0.3709055118110236
20
0.3454724409448819
11
0.3433464566929134
21
0.3454724409448819
0
LINE
8
BLACK
6
CONTINUOUS
10
0.3433464566929134
20
0.3454724409448819
11
0.3433464566929134
21
0.3690944881889764
0
LINE
8
BLACK
6
CONTINUOUS
10
0.3433464566929134
20
0.3690944881889764
11
0.3709055118110236
21
0.3690944881889764
0
LINE
8
BLACK
6
CONTINUOUS
10
0.3709055118110236
20
0.3690944881889764
11
0.3709055118110236
21
0.3454724409448819
0
LINE
8
BLACK
6
CONTINUOUS
10
0.6233843307086614
20
0.3895609842519685
11
0.6261783464566929
21
0.387694094488189
0
LINE
8
BLACK
6
CONTINUOUS
10
0.6261783464566929
20
0.387694094488189
11
0.6280452362204725
21
0.3849000787401575
0
LINE
8
BLACK
6
CONTINUOUS
10
0.6280452362204725
20
0.3849000787401575
11
0.6287007874015748
21
0.3816043307086614
0
LINE
8
BLACK
6
CONTINUOUS
10
0.6287007874015748
20
0.3816043307086614
11
0.6287007874015748
21
0.3643799212598425
0
LINE
8
BLACK
6
CONTINUOUS
10
0.6287007874015748
20
0.3643799212598425
11
0.6280452362204725
21
0.3610841732283465
0
LINE
8
BLACK
6
CONTINUOUS
10
0.6280452362204725
20
0.3610841732283465
11
0.6261783464566929
21
0.358290157480315
0
LINE
8
BLACK
6
CONTINUOUS
10
0.6261783464566929
20
0.358290157480315
11
0.6233843307086614
21
0.3564232677165354
0
LINE
8
BLACK
6
CONTINUOUS
10
0.6233843307086614
20
0.3564232677165354
11
0.6200885826771654
21
0.355767716535433
0
LINE
8
BLACK
6
CONTINUOUS
10
0.6200885826771654
20
0.355767716535433
11
0.5999114173228346
21
0.355767716535433
0
LINE
8
BLACK
6
CONTINUOUS
10
0.5999114173228346
20
0.355767716535433
11
0.5966156692913386
21
0.3564232677165354
0
LINE
8
BLACK
6
CONTINUOUS
10
0.5966156692913386
20
0.3564232677165354
11
0.5938216535433071
21
0.358290157480315
0
LINE
8
BLACK
6
CONTINUOUS
10
0.5938216535433071
20
0.358290157480315
11
0.5919547637795275
21
0.3610841732283465
0
LINE
8
BLACK
6
CONTINUOUS
10
0.5919547637795275
20
0.3610841732283465
11
0.5912992125984252
21
0.3643799212598425
0
LINE
8
BLACK
6
CONTINUOUS
10
0.5912992125984252
20
0.3643799212598425
11
0.5912992125984252
21
0.3816043307086614
0
LINE
8
BLACK
6
CONTINUOUS
10
0.5912992125984252
20
0.3816043307086614
11
0.5919547637795275
21
0.3849000787401575
0
LINE
8
BLACK
6
CONTINUOUS
10
0.5919547637795275
20
0.3849000787401575
11
0.5938216535433071
21
0.387694094488189
0
LINE
8
BLACK
6
CONTINUOUS
10
0.5938216535433071
20
0.387694094488189
11
0.5966156692913386
21
0.3895609842519685
0
LINE
8
BLACK
6
CONTINUOUS
10
0.5966156692913386
20
0.3895609842519685
11
0.5999114173228346
21
0.3902165354330708
0
LINE
8
BLACK
6
CONTINUOUS
10
0.5999114173228346
20
0.3902165354330708
11
0.6200885826771654
21
0.3902165354330708
0
LINE
8
BLACK
6
CONTINUOUS
10
0.6200885826771654
20
0.3902165354330708
11
0.6233843307086614
21
0.3895609842519685
0
LINE
8
BLACK
6
CONTINUOUS
10
0.7133843307086614
20
0.3905649212598425
11
0.7161783464566929
21
0.388698031496063
0
LINE
8
BLACK
6
CONTINUOUS
10
0.7161783464566929
20
0.388698031496063
11
0.7180452362204724
21
0.3859040157480315
0
LINE
8
BLACK
6
CONTINUOUS
10
0.7180452362204724
20
0.3859040157480315
11
0.7187007874015748
21
0.3826082677165354
0
LINE
8
BLACK
6
CONTINUOUS
10
0.7187007874015748
20
0.3826082677165354
11
0.7187007874015748
21
0.3653838582677165
0
LINE
8
BLACK
6
CONTINUOUS
10
0.7187007874015748
20
0.3653838582677165
11
0.7180452362204724
21
0.3620881102362205
0
LINE
8
BLACK
6
CONTINUOUS
10
0.7180452362204724
20
0.3620881102362205
11
0.7161783464566929
21
0.3592940944881889
0
LINE
8
BLACK
6
CONTINUOUS
10
0.7161783464566929
20
0.3592940944881889
11
0.7133843307086614
21
0.3574272047244094
0
LINE
8
BLACK
6
CONTINUOUS
10
0.7133843307086614
20
0.3574272047244094
11
0.7100885826771653
21
0.3567716535433071
0
LINE
8
BLACK
6
CONTINUOUS
10
0.7100885826771653
20
0.3567716535433071
11
0.6899114173228347
21
0.3567716535433071
0
LINE
8
BLACK
6
CONTINUOUS
10
0.6899114173228347
20
0.3567716535433071
11
0.6866156692913385
21
0.3574272047244094
0
LINE
8
BLACK
6
CONTINUOUS
10
0.6866156692913385
20
0.3574272047244094
11
0.683821653543307
21
0.3592940944881889
0
LINE
8
BLACK
6
CONTINUOUS
10
0.683821653543307
20
0.3592940944881889
11
0.6819547637795276
21
0.3620881102362205
0
LINE
8
BLACK
6
CONTINUOUS
10
0.6819547637795276
20
0.3620881102362205
11
0.6812992125984252
21
0.3653838582677165
0
LINE
8
BLACK
6
CONTINUOUS
10
0.6812992125984252
20
0.3653838582677165
11
0.6812992125984252
21
0.3826082677165354
0
LINE
8
BLACK
6
CONTINUOUS
10
0.6812992125984252
20
0.3826082677165354
11
0.6819547637795276
21
0.3859040157480315
0
LINE
8
BLACK
6
CONTINUOUS
10
0.6819547637795276
20
0.3859040157480315
11
0.683821653543307
21
0.388698031496063
0
LINE
8
BLACK
6
CONTINUOUS
10
0.683821653543307
20
0.388698031496063
11
0.6866156692913385
21
0.3905649212598425
0
LINE
8
BLACK
6
CONTINUOUS
10
0.6866156692913385
20
0.3905649212598425
11
0.6899114173228347
21
0.3912204724409449
0
LINE
8
BLACK
6
CONTINUOUS
10
0.6899114173228347
20
0.3912204724409449
11
0.7100885826771653
21
0.3912204724409449
0
LINE
8
BLACK
6
CONTINUOUS
10
0.7100885826771653
20
0.3912204724409449
11
0.7133843307086614
21
0.3905649212598425
0
LINE
8
BLACK
6
CONTINUOUS
10
0.2206536614173228
20
0.3804559842519685
11
0.2225695275590551
21
0.3791758267716535
0
LINE
8
BLACK
6
CONTINUOUS
10
0.2225695275590551
20
0.3791758267716535
11
0.2238496850393701
21
0.3772599606299212
0
LINE
8
BLACK
6
CONTINUOUS
10
0.2238496850393701
20
0.3772599606299212
11
0.2242992125984252
21
0.375
0
LINE
8
BLACK
6
CONTINUOUS
10
0.2242992125984252
20
0.375
11
0.2242992125984252
21
0.3631889763779527
0
LINE
8
BLACK
6
CONTINUOUS
10
0.2242992125984252
20
0.3631889763779527
11
0.2238496850393701
21
0.3609290157480315
0
LINE
8
BLACK
6
CONTINUOUS
10
0.2238496850393701
20
0.3609290157480315
11
0.2225695275590551
21
0.3590131496062992
0
LINE
8
BLACK
6
CONTINUOUS
10
0.2225695275590551
20
0.3590131496062992
11
0.2206536614173228
21
0.3577329921259843
0
LINE
8
BLACK
6
CONTINUOUS
10
0.2206536614173228
20
0.3577329921259843
11
0.2183937007874016
21
0.3572834645669291
0
LINE
8
BLACK
6
CONTINUOUS
10
0.2183937007874016
20
0.3572834645669291
11
0.1632755905511811
21
0.3572834645669291
0
LINE
8
BLACK
6
CONTINUOUS
10
0.1632755905511811
20
0.3572834645669291
11
0.1610156299212598
21
0.3577329921259843
0
LINE
8
BLACK
6
CONTINUOUS
10
0.1610156299212598
20
0.3577329921259843
11
0.1590997637795276
21
0.3590131496062992
0
LINE
8
BLACK
6
CONTINUOUS
10
0.1590997637795276
20
0.3590131496062992
11
0.1578196062992126
21
0.3609290157480315
0
LINE
8
BLACK
6
CONTINUOUS
10
0.1578196062992126
20
0.3609290157480315
11
0.1573700787401575
21
0.3631889763779527
0
LINE
8
BLACK
6
CONTINUOUS
10
0.1573700787401575
20
0.3631889763779527
11
0.1573700787401575
21
0.375
0
LINE
8
BLACK
6
CONTINUOUS
10
0.1573700787401575
20
0.375
11
0.1578196062992126
21
0.3772599606299212
0
LINE
8
BLACK
6
CONTINUOUS
10
0.1578196062992126
20
0.3772599606299212
11
0.1590997637795276
21
0.3791758267716535
0
LINE
8
BLACK
6
CONTINUOUS
10
0.1590997637795276
20
0.3791758267716535
11
0.1610156299212598
21
0.3804559842519685
0
LINE
8
BLACK
6
CONTINUOUS
10
0.1610156299212598
20
0.3804559842519685
11
0.1632755905511811
21
0.3809055118110236
0
LINE
8
BLACK
6
CONTINUOUS
10
0.1632755905511811
20
0.3809055118110236
11
0.2183937007874016
21
0.3809055118110236
0
LINE
8
BLACK
6
CONTINUOUS
10
0.2183937007874016
20
0.3809055118110236
11
0.2206536614173228
21
0.3804559842519685
0
LINE
8
BLACK
6
CONTINUOUS
10
0.5211008661417322
20
0.431431062992126
11
0.5238948818897637
21
0.4295641732283464
0
LINE
8
BLACK
6
CONTINUOUS
10
0.5238948818897637
20
0.4295641732283464
11
0.5257617716535433
21
0.4267701574803149
0
LINE
8
BLACK
6
CONTINUOUS
10
0.5257617716535433
20
0.4267701574803149
11
0.5264173228346457
21
0.4234744094488189
0
LINE
8
BLACK
6
CONTINUOUS
10
0.5264173228346457
20
0.4234744094488189
11
0.5264173228346457
21
0.40625
0
LINE
8
BLACK
6
CONTINUOUS
10
0.5264173228346457
20
0.40625
11
0.5257617716535433
21
0.4029542519685039
0
LINE
8
BLACK
6
CONTINUOUS
10
0.5257617716535433
20
0.4029542519685039
11
0.5238948818897637
21
0.4001602362204724
0
LINE
8
BLACK
6
CONTINUOUS
10
0.5238948818897637
20
0.4001602362204724
11
0.5211008661417322
21
0.3982933464566929
0
LINE
8
BLACK
6
CONTINUOUS
10
0.5211008661417322
20
0.3982933464566929
11
0.5178051181102362
21
0.3976377952755906
0
LINE
8
BLACK
6
CONTINUOUS
10
0.5178051181102362
20
0.3976377952755906
11
0.4976279527559055
21
0.3976377952755906
0
LINE
8
BLACK
6
CONTINUOUS
10
0.4976279527559055
20
0.3976377952755906
11
0.4943322047244094
21
0.3982933464566929
0
LINE
8
BLACK
6
CONTINUOUS
10
0.4943322047244094
20
0.3982933464566929
11
0.491538188976378
21
0.4001602362204724
0
LINE
8
BLACK
6
CONTINUOUS
10
0.491538188976378
20
0.4001602362204724
11
0.4896712992125984
21
0.4029542519685039
0
LINE
8
BLACK
6
CONTINUOUS
10
0.4896712992125984
20
0.4029542519685039
11
0.4890157480314961
21
0.40625
0
LINE
8
BLACK
6
CONTINUOUS
10
0.4890157480314961
20
0.40625
11
0.4890157480314961
21
0.4234744094488189
0
LINE
8
BLACK
6
CONTINUOUS
10
0.4890157480314961
20
0.4234744094488189
11
0.4896712992125984
21
0.4267701574803149
0
LINE
8
BLACK
6
CONTINUOUS
10
0.4896712992125984
20
0.4267701574803149
11
0.491538188976378
21
0.4295641732283464
0
LINE
8
BLACK
6
CONTINUOUS
10
0.491538188976378
20
0.4295641732283464
11
0.4943322047244094
21
0.431431062992126
0
LINE
8
BLACK
6
CONTINUOUS
10
0.4943322047244094
20
0.431431062992126
11
0.4976279527559055
21
0.4320866141732284
0
LINE
8
BLACK
6
CONTINUOUS
10
0.4976279527559055
20
0.4320866141732284
11
0.5178051181102362
21
0.4320866141732284
0
LINE
8
BLACK
6
CONTINUOUS
10
0.5178051181102362
20
0.4320866141732284
11
0.5211008661417322
21
0.431431062992126
0
LINE
8
BLACK
6
CONTINUOUS
10
0.3709055118110236
20
0.4005905511811024
11
0.3433464566929134
21
0.4005905511811024
0
LINE
8
BLACK
6
CONTINUOUS
10
0.3433464566929134
20
0.4005905511811024
11
0.3433464566929134
21
0.4242125984251968
0
LINE
8
BLACK
6
CONTINUOUS
10
0.3433464566929134
20
0.4242125984251968
11
0.3709055118110236
21
0.4242125984251968
0
LINE
8
BLACK
6
CONTINUOUS
10
0.3709055118110236
20
0.4242125984251968
11
0.3709055118110236
21
0.4005905511811024
0
LINE
8
BLACK
6
CONTINUOUS
10
0.3055496850393701
20
0.4353680708661417
11
0.3083437007874016
21
0.4335011811023622
0
LINE
8
BLACK
6
CONTINUOUS
10
0.3083437007874016
20
0.4335011811023622
11
0.3102105905511811
21
0.4307071653543307
0
LINE
8
BLACK
6
CONTINUOUS
10
0.3102105905511811
20
0.4307071653543307
11
0.3108661417322834
21
0.4274114173228347
0
LINE
8
BLACK
6
CONTINUOUS
10
0.3108661417322834
20
0.4274114173228347
11
0.3108661417322834
21
0.4101870078740157
0
LINE
8
BLACK
6
CONTINUOUS
10
0.3108661417322834
20
0.4101870078740157
11
0.3102105905511811
21
0.4068912598425197
0
LINE
8
BLACK
6
CONTINUOUS
10
0.3102105905511811
20
0.4068912598425197
11
0.3083437007874016
21
0.4040972440944882
0
LINE
8
BLACK
6
CONTINUOUS
10
0.3083437007874016
20
0.4040972440944882
11
0.3055496850393701
21
0.4022303543307086
0
LINE
8
BLACK
6
CONTINUOUS
10
0.3055496850393701
20
0.4022303543307086
11
0.302253937007874
21
0.4015748031496063
0
LINE
8
BLACK
6
CONTINUOUS
10
0.302253937007874
20
0.4015748031496063
11
0.2820767716535433
21
0.4015748031496063
0
LINE
8
BLACK
6
CONTINUOUS
10
0.2820767716535433
20
0.4015748031496063
11
0.2787810236220473
21
0.4022303543307086
0
LINE
8
BLACK
6
CONTINUOUS
10
0.2787810236220473
20
0.4022303543307086
11
0.2759870078740158
21
0.4040972440944882
0
LINE
8
BLACK
6
CONTINUOUS
10
0.2759870078740158
20
0.4040972440944882
11
0.2741201181102362
21
0.4068912598425197
0
LINE
8
BLACK
6
CONTINUOUS
10
0.2741201181102362
20
0.4068912598425197
11
0.2734645669291338
21
0.4101870078740157
0
LINE
8
BLACK
6
CONTINUOUS
10
0.2734645669291338
20
0.4101870078740157
11
0.2734645669291338
21
0.4274114173228347
0
LINE
8
BLACK
6
CONTINUOUS
10
0.2734645669291338
20
0.4274114173228347
11
0.2741201181102362
21
0.4307071653543307
0
LINE
8
BLACK
6
CONTINUOUS
10
0.2741201181102362
20
0.4307071653543307
11
0.2759870078740158
21
0.4335011811023622
0
LINE
8
BLACK
6
CONTINUOUS
10
0.2759870078740158
20
0.4335011811023622
11
0.2787810236220473
21
0.4353680708661417
0
LINE
8
BLACK
6
CONTINUOUS
10
0.2787810236220473
20
0.4353680708661417
11
0.2820767716535433
21
0.4360236220472441
0
LINE
8
BLACK
6
CONTINUOUS
10
0.2820767716535433
20
0.4360236220472441
11
0.302253937007874
21
0.4360236220472441
0
LINE
8
BLACK
6
CONTINUOUS
10
0.302253937007874
20
0.4360236220472441
11
0.3055496850393701
21
0.4353680708661417
0
LINE
8
BLACK
6
CONTINUOUS
10
0.4535236220472441
20
0.409763779527559
11
0.3985236220472441
21
0.409763779527559
0
LINE
8
BLACK
6
CONTINUOUS
10
0.3985236220472441
20
0.409763779527559
11
0.3985236220472441
21
0.444763779527559
0
LINE
8
BLACK
6
CONTINUOUS
10
0.3985236220472441
20
0.444763779527559
11
0.4535236220472441
21
0.444763779527559
0
LINE
8
BLACK
6
CONTINUOUS
10
0.4535236220472441
20
0.444763779527559
11
0.4535236220472441
21
0.409763779527559
0
LINE
8
BLACK
6
CONTINUOUS
10
0.6233843307086614
20
0.4515688582677165
11
0.6261783464566929
21
0.449701968503937
0
LINE
8
BLACK
6
CONTINUOUS
10
0.6261783464566929
20
0.449701968503937
11
0.6280452362204725
21
0.4469079527559055
0
LINE
8
BLACK
6
CONTINUOUS
10
0.6280452362204725
20
0.4469079527559055
11
0.6287007874015748
21
0.4436122047244094
0
LINE
8
BLACK
6
CONTINUOUS
10
0.6287007874015748
20
0.4436122047244094
11
0.6287007874015748
21
0.4263877952755906
0
LINE
8
BLACK
6
CONTINUOUS
10
0.6287007874015748
20
0.4263877952755906
11
0.6280452362204725
21
0.4230920472440945
0
LINE
8
BLACK
6
CONTINUOUS
10
0.6280452362204725
20
0.4230920472440945
11
0.6261783464566929
21
0.420298031496063
0
LINE
8
BLACK
6
CONTINUOUS
10
0.6261783464566929
20
0.420298031496063
11
0.6233843307086614
21
0.4184311417322835
0
LINE
8
BLACK
6
CONTINUOUS
10
0.6233843307086614
20
0.4184311417322835
11
0.6200885826771654
21
0.4177755905511811
0
LINE
8
BLACK
6
CONTINUOUS
10
0.6200885826771654
20
0.4177755905511811
11
0.5999114173228346
21
0.4177755905511811
0
LINE
8
BLACK
6
CONTINUOUS
10
0.5999114173228346
20
0.4177755905511811
11
0.5966156692913386
21
0.4184311417322835
0
LINE
8
BLACK
6
CONTINUOUS
10
0.5966156692913386
20
0.4184311417322835
11
0.5938216535433071
21
0.420298031496063
0
LINE
8
BLACK
6
CONTINUOUS
10
0.5938216535433071
20
0.420298031496063
11
0.5919547637795275
21
0.4230920472440945
0
LINE
8
BLACK
6
CONTINUOUS
10
0.5919547637795275
20
0.4230920472440945
11
0.5912992125984252
21
0.4263877952755906
0
LINE
8
BLACK
6
CONTINUOUS
10
0.5912992125984252
20
0.4263877952755906
11
0.5912992125984252
21
0.4436122047244094
0
LINE
8
BLACK
6
CONTINUOUS
10
0.5912992125984252
20
0.4436122047244094
11
0.5919547637795275
21
0.4469079527559055
0
LINE
8
BLACK
6
CONTINUOUS
10
0.5919547637795275
20
0.4469079527559055
11
0.5938216535433071
21
0.449701968503937
0
LINE
8
BLACK
6
CONTINUOUS
10
0.5938216535433071
20
0.449701968503937
11
0.5966156692913386
21
0.4515688582677165
0
LINE
8
BLACK
6
CONTINUOUS
10
0.5966156692913386
20
0.4515688582677165
11
0.5999114173228346
21
0.4522244094488189
0
LINE
8
BLACK
6
CONTINUOUS
10
0.5999114173228346
20
0.4522244094488189
11
0.6200885826771654
21
0.4522244094488189
0
LINE
8
BLACK
6
CONTINUOUS
10
0.6200885826771654
20
0.4522244094488189
11
0.6233843307086614
21
0.4515688582677165
0
LINE
8
BLACK
6
CONTINUOUS
10
0.7133843307086614
20
0.4525727952755905
11
0.7161783464566929
21
0.450705905511811
0
LINE
8
BLACK
6
CONTINUOUS
10
0.7161783464566929
20
0.450705905511811
11
0.7180452362204724
21
0.4479118897637795
0
LINE
8
BLACK
6
CONTINUOUS
10
0.7180452362204724
20
0.4479118897637795
11
0.7187007874015748
21
0.4446161417322835
0
LINE
8
BLACK
6
CONTINUOUS
10
0.7187007874015748
20
0.4446161417322835
11
0.7187007874015748
21
0.4273917322834646
0
LINE
8
BLACK
6
CONTINUOUS
10
0.7187007874015748
20
0.4273917322834646
11
0.7180452362204724
21
0.4240959842519685
0
LINE
8
BLACK
6
CONTINUOUS
10
0.7180452362204724
20
0.4240959842519685
11
0.7161783464566929
21
0.421301968503937
0
LINE
8
BLACK
6
CONTINUOUS
10
0.7161783464566929
20
0.421301968503937
11
0.7133843307086614
21
0.4194350787401575
0
LINE
8
BLACK
6
CONTINUOUS
10
0.7133843307086614
20
0.4194350787401575
11
0.7100885826771653
21
0.4187795275590551
0
LINE
8
BLACK
6
CONTINUOUS
10
0.7100885826771653
20
0.4187795275590551
11
0.6899114173228347
21
0.4187795275590551
0
LINE
8
BLACK
6
CONTINUOUS
10
0.6899114173228347
20
0.4187795275590551
11
0.6866156692913385
21
0.4194350787401575
0
LINE
8
BLACK
6
CONTINUOUS
10
0.6866156692913385
20
0.4194350787401575
11
0.683821653543307
21
0.421301968503937
0
LINE
8
BLACK
6
CONTINUOUS
10
0.683821653543307
20
0.421301968503937
11
0.6819547637795276
21
0.4240959842519685
0
LINE
8
BLACK
6
CONTINUOUS
10
0.6819547637795276
20
0.4240959842519685
11
0.6812992125984252
21
0.4273917322834646
0
LINE
8
BLACK
6
CONTINUOUS
10
0.6812992125984252
20
0.4273917322834646
11
0.6812992125984252
21
0.4446161417322835
0
LINE
8
BLACK
6
CONTINUOUS
10
0.6812992125984252
20
0.4446161417322835
11
0.6819547637795276
21
0.4479118897637795
0
LINE
8
BLACK
6
CONTINUOUS
10
0.6819547637795276
20
0.4479118897637795
11
0.683821653543307
21
0.450705905511811
0
LINE
8
BLACK
6
CONTINUOUS
10
0.683821653543307
20
0.450705905511811
11
0.6866156692913385
21
0.4525727952755905
0
LINE
8
BLACK
6
CONTINUOUS
10
0.6866156692913385
20
0.4525727952755905
11
0.6899114173228347
21
0.4532283464566929
0
LINE
8
BLACK
6
CONTINUOUS
10
0.6899114173228347
20
0.4532283464566929
11
0.7100885826771653
21
0.4532283464566929
0
LINE
8
BLACK
6
CONTINUOUS
10
0.7100885826771653
20
0.4532283464566929
11
0.7133843307086614
21
0.4525727952755905
0
LINE
8
BLACK
6
CONTINUOUS
10
0.1119240551181102
20
0.4608649606299213
11
0.1151172047244094
21
0.4587313779527559
0
LINE
8
BLACK
6
CONTINUOUS
10
0.1151172047244094
20
0.4587313779527559
11
0.1172507874015748
21
0.4555382283464567
0
LINE
8
BLACK
6
CONTINUOUS
10
0.1172507874015748
20
0.4555382283464567
11
0.118
21
0.4517716535433071
0
LINE
8
BLACK
6
CONTINUOUS
10
0.118
20
0.4517716535433071
11
0.118
21
0.4320866141732284
0
LINE
8
BLACK
6
CONTINUOUS
10
0.118
20
0.4320866141732284
11
0.1172507874015748
21
0.4283200393700787
0
LINE
8
BLACK
6
CONTINUOUS
10
0.1172507874015748
20
0.4283200393700787
11
0.1151172047244094
21
0.4251268897637795
0
LINE
8
BLACK
6
CONTINUOUS
10
0.1151172047244094
20
0.4251268897637795
11
0.1119240551181102
21
0.4229933070866141
0
LINE
8
BLACK
6
CONTINUOUS
10
0.1119240551181102
20
0.4229933070866141
11
0.1081574803149606
21
0.4222440944881889
0
LINE
8
BLACK
6
CONTINUOUS
10
0.1081574803149606
20
0.4222440944881889
11
0.0215433070866142
21
0.4222440944881889
0
LINE
8
BLACK
6
CONTINUOUS
10
0.0215433070866142
20
0.4222440944881889
11
0.0177767322834646
21
0.4229933070866141
0
LINE
8
BLACK
6
CONTINUOUS
10
0.0177767322834646
20
0.4229933070866141
11
0.0145835826771654
21
0.4251268897637795
0
LINE
8
BLACK
6
CONTINUOUS
10
0.0145835826771654
20
0.4251268897637795
11
0.01245
21
0.4283200393700787
0
LINE
8
BLACK
6
CONTINUOUS
10
0.01245
20
0.4283200393700787
11
0.0117007874015748
21
0.4320866141732284
0
LINE
8
BLACK
6
CONTINUOUS
10
0.0117007874015748
20
0.4320866141732284
11
0.0117007874015748
21
0.4517716535433071
0
LINE
8
BLACK
6
CONTINUOUS
10
0.0117007874015748
20
0.4517716535433071
11
0.01245
21
0.4555382283464567
0
LINE
8
BLACK
6
CONTINUOUS
10
0.01245
20
0.4555382283464567
11
0.0145835826771654
21
0.4587313779527559
0
LINE
8
BLACK
6
CONTINUOUS
10
0.0145835826771654
20
0.4587313779527559
11
0.0177767322834646
21
0.4608649606299213
0
LINE
8
BLACK
6
CONTINUOUS
10
0.0177767322834646
20
0.4608649606299213
11
0.0215433070866142
21
0.4616141732283465
0
LINE
8
BLACK
6
CONTINUOUS
10
0.0215433070866142
20
0.4616141732283465
11
0.1081574803149606
21
0.4616141732283465
0
LINE
8
BLACK
6
CONTINUOUS
10
0.1081574803149606
20
0.4616141732283465
11
0.1119240551181102
21
0.4608649606299213
0
LINE
8
BLACK
6
CONTINUOUS
10
1.0124000787401575
20
0.4745019291338582
11
1.015194094488189
21
0.4726350393700787
0
LINE
8
BLACK
6
CONTINUOUS
10
1.015194094488189
20
0.4726350393700787
11
1.0170609842519684
21
0.4698410236220472
0
LINE
8
BLACK
6
CONTINUOUS
10
1.0170609842519684
20
0.4698410236220472
11
1.0177165354330708
21
0.4665452755905511
0
LINE
8
BLACK
6
CONTINUOUS
10
1.0177165354330708
20
0.4665452755905511
11
1.0177165354330708
21
0.4463681102362205
0
LINE
8
BLACK
6
CONTINUOUS
10
1.0177165354330708
20
0.4463681102362205
11
1.0170609842519684
21
0.4430723622047244
0
LINE
8
BLACK
6
CONTINUOUS
10
1.0170609842519684
20
0.4430723622047244
11
1.015194094488189
21
0.4402783464566929
0
LINE
8
BLACK
6
CONTINUOUS
10
1.015194094488189
20
0.4402783464566929
11
1.0124000787401575
21
0.4384114566929134
0
LINE
8
BLACK
6
CONTINUOUS
10
1.0124000787401575
20
0.4384114566929134
11
1.0091043307086613
21
0.437755905511811
0
LINE
8
BLACK
6
CONTINUOUS
10
1.0091043307086613
20
0.437755905511811
11
0.9918799212598425
21
0.437755905511811
0
LINE
8
BLACK
6
CONTINUOUS
10
0.9918799212598425
20
0.437755905511811
11
0.9885841732283465
21
0.4384114566929134
0
LINE
8
BLACK
6
CONTINUOUS
10
0.9885841732283465
20
0.4384114566929134
11
0.985790157480315
21
0.4402783464566929
0
LINE
8
BLACK
6
CONTINUOUS
10
0.985790157480315
20
0.4402783464566929
11
0.9839232677165354
21
0.4430723622047244
0
LINE
8
BLACK
6
CONTINUOUS
10
0.9839232677165354
20
0.4430723622047244
11
0.9832677165354331
21
0.4463681102362205
0
LINE
8
BLACK
6
CONTINUOUS
10
0.9832677165354331
20
0.4463681102362205
11
0.9832677165354331
21
0.4665452755905511
0
LINE
8
BLACK
6
CONTINUOUS
10
0.9832677165354331
20
0.4665452755905511
11
0.9839232677165354
21
0.4698410236220472
0
LINE
8
BLACK
6
CONTINUOUS
10
0.9839232677165354
20
0.4698410236220472
11
0.985790157480315
21
0.4726350393700787
0
LINE
8
BLACK
6
CONTINUOUS
10
0.985790157480315
20
0.4726350393700787
11
0.9885841732283465
21
0.4745019291338582
0
LINE
8
BLACK
6
CONTINUOUS
10
0.9885841732283465
20
0.4745019291338582
11
0.9918799212598425
21
0.4751574803149606
0
LINE
8
BLACK
6
CONTINUOUS
10
0.9918799212598425
20
0.4751574803149606
11
1.0091043307086613
21
0.4751574803149606
0
LINE
8
BLACK
6
CONTINUOUS
10
1.0091043307086613
20
0.4751574803149606
11
1.0124000787401575
21
0.4745019291338582
0
LINE
8
BLACK
6
CONTINUOUS
10
1.0744079527559054
20
0.4745019291338582
11
1.0772019685039369
21
0.4726350393700787
0
LINE
8
BLACK
6
CONTINUOUS
10
1.0772019685039369
20
0.4726350393700787
11
1.0790688582677166
21
0.4698410236220472
0
LINE
8
BLACK
6
CONTINUOUS
10
1.0790688582677166
20
0.4698410236220472
11
1.079724409448819
21
0.4665452755905511
0
LINE
8
BLACK
6
CONTINUOUS
10
1.079724409448819
20
0.4665452755905511
11
1.079724409448819
21
0.4463681102362205
0
LINE
8
BLACK
6
CONTINUOUS
10
1.079724409448819
20
0.4463681102362205
11
1.0790688582677166
21
0.4430723622047244
0
LINE
8
BLACK
6
CONTINUOUS
10
1.0790688582677166
20
0.4430723622047244
11
1.0772019685039369
21
0.4402783464566929
0
LINE
8
BLACK
6
CONTINUOUS
10
1.0772019685039369
20
0.4402783464566929
11
1.0744079527559054
21
0.4384114566929134
0
LINE
8
BLACK
6
CONTINUOUS
10
1.0744079527559054
20
0.4384114566929134
11
1.0711122047244095
21
0.437755905511811
0
LINE
8
BLACK
6
CONTINUOUS
10
1.0711122047244095
20
0.437755905511811
11
1.0538877952755905
21
0.437755905511811
0
LINE
8
BLACK
6
CONTINUOUS
10
1.0538877952755905
20
0.437755905511811
11
1.0505920472440944
21
0.4384114566929134
0
LINE
8
BLACK
6
CONTINUOUS
10
1.0505920472440944
20
0.4384114566929134
11
1.0477980314960629
21
0.4402783464566929
0
LINE
8
BLACK
6
CONTINUOUS
10
1.0477980314960629
20
0.4402783464566929
11
1.0459311417322834
21
0.4430723622047244
0
LINE
8
BLACK
6
CONTINUOUS
10
1.0459311417322834
20
0.4430723622047244
11
1.045275590551181
21
0.4463681102362205
0
LINE
8
BLACK
6
CONTINUOUS
10
1.045275590551181
20
0.4463681102362205
11
1.045275590551181
21
0.4665452755905511
0
LINE
8
BLACK
6
CONTINUOUS
10
1.045275590551181
20
0.4665452755905511
11
1.0459311417322834
21
0.4698410236220472
0
LINE
8
BLACK
6
CONTINUOUS
10
1.0459311417322834
20
0.4698410236220472
11
1.0477980314960629
21
0.4726350393700787
0
LINE
8
BLACK
6
CONTINUOUS
10
1.0477980314960629
20
0.4726350393700787
11
1.0505920472440944
21
0.4745019291338582
0
LINE
8
BLACK
6
CONTINUOUS
10
1.0505920472440944
20
0.4745019291338582
11
1.0538877952755905
21
0.4751574803149606
0
LINE
8
BLACK
6
CONTINUOUS
10
1.0538877952755905
20
0.4751574803149606
11
1.0711122047244095
21
0.4751574803149606
0
LINE
8
BLACK
6
CONTINUOUS
10
1.0711122047244095
20
0.4751574803149606
11
1.0744079527559054
21
0.4745019291338582
0
LINE
8
BLACK
6
CONTINUOUS
10
0.2843351968503937
20
0.540839094488189
11
0.286463937007874
21
0.5394166929133858
0
LINE
8
BLACK
6
CONTINUOUS
10
0.286463937007874
20
0.5394166929133858
11
0.2878863385826771
21
0.5372879527559055
0
LINE
8
BLACK
6
CONTINUOUS
10
0.2878863385826771
20
0.5372879527559055
11
0.2883857874015748
21
0.5347768503937008
0
LINE
8
BLACK
6
CONTINUOUS
10
0.2883857874015748
20
0.5347768503937008
11
0.2883858267716535
21
0.4888451574803149
0
LINE
8
BLACK
6
CONTINUOUS
10
0.2883858267716535
20
0.4888451574803149
11
0.2878863385826771
21
0.486334094488189
0
LINE
8
BLACK
6
CONTINUOUS
10
0.2878863385826771
20
0.486334094488189
11
0.286463937007874
21
0.4842053543307087
0
LINE
8
BLACK
6
CONTINUOUS
10
0.286463937007874
20
0.4842053543307087
11
0.2843351968503937
21
0.4827829527559055
0
LINE
8
BLACK
6
CONTINUOUS
10
0.2843351968503937
20
0.4827829527559055
11
0.281824094488189
21
0.4822835039370079
0
LINE
8
BLACK
6
CONTINUOUS
10
0.281824094488189
20
0.4822835039370079
11
0.2457349212598425
21
0.4822834645669291
0
LINE
8
BLACK
6
CONTINUOUS
10
0.2457349212598425
20
0.4822834645669291
11
0.2432238582677165
21
0.4827829527559055
0
LINE
8
BLACK
6
CONTINUOUS
10
0.2432238582677165
20
0.4827829527559055
11
0.2410951181102362
21
0.4842053543307087
0
LINE
8
BLACK
6
CONTINUOUS
10
0.2410951181102362
20
0.4842053543307087
11
0.2396727165354331
21
0.486334094488189
0
LINE
8
BLACK
6
CONTINUOUS
10
0.2396727165354331
20
0.486334094488189
11
0.2391732677165354
21
0.4888451968503937
0
LINE
8
BLACK
6
CONTINUOUS
10
0.2391732677165354
20
0.4888451968503937
11
0.2391732283464567
21
0.5347768897637795
0
LINE
8
BLACK
6
CONTINUOUS
10
0.2391732283464567
20
0.5347768897637795
11
0.2396727165354331
21
0.5372879527559055
0
LINE
8
BLACK
6
CONTINUOUS
10
0.2396727165354331
20
0.5372879527559055
11
0.2410951181102362
21
0.5394166929133858
0
LINE
8
BLACK
6
CONTINUOUS
10
0.2410951181102362
20
0.5394166929133858
11
0.2432238582677165
21
0.540839094488189
0
LINE
8
BLACK
6
CONTINUOUS
10
0.2432238582677165
20
0.540839094488189
11
0.2457349606299213
21
0.5413385433070866
0
LINE
8
BLACK
6
CONTINUOUS
10
0.2457349606299213
20
0.5413385433070866
11
0.2818241338582677
21
0.5413385826771654
0
LINE
8
BLACK
6
CONTINUOUS
10
0.2818241338582677
20
0.5413385826771654
11
0.2843351968503937
21
0.540839094488189
0
LINE
8
BLACK
6
CONTINUOUS
10
0.4260674803149606
20
0.540839094488189
11
0.4281962204724409
21
0.5394166929133858
0
LINE
8
BLACK
6
CONTINUOUS
10
0.4281962204724409
20
0.5394166929133858
11
0.4296186220472441
21
0.5372879527559055
0
LINE
8
BLACK
6
CONTINUOUS
10
0.4296186220472441
20
0.5372879527559055
11
0.4301180708661417
21
0.5347768503937008
0
LINE
8
BLACK
6
CONTINUOUS
10
0.4301180708661417
20
0.5347768503937008
11
0.4301181102362205
21
0.4888451574803149
0
LINE
8
BLACK
6
CONTINUOUS
10
0.4301181102362205
20
0.4888451574803149
11
0.4296186220472441
21
0.486334094488189
0
LINE
8
BLACK
6
CONTINUOUS
10
0.4296186220472441
20
0.486334094488189
11
0.4281962204724409
21
0.4842053543307087
0
LINE
8
BLACK
6
CONTINUOUS
10
0.4281962204724409
20
0.4842053543307087
11
0.4260674803149606
21
0.4827829527559055
0
LINE
8
BLACK
6
CONTINUOUS
10
0.4260674803149606
20
0.4827829527559055
11
0.4235563779527559
21
0.4822835039370079
0
LINE
8
BLACK
6
CONTINUOUS
10
0.4235563779527559
20
0.4822835039370079
11
0.3874672047244094
21
0.4822834645669291
0
LINE
8
BLACK
6
CONTINUOUS
10
0.3874672047244094
20
0.4822834645669291
11
0.3849561417322834
21
0.4827829527559055
0
LINE
8
BLACK
6
CONTINUOUS
10
0.3849561417322834
20
0.4827829527559055
11
0.3828274015748032
21
0.4842053543307087
0
LINE
8
BLACK
6
CONTINUOUS
10
0.3828274015748032
20
0.4842053543307087
11
0.381405
21
0.486334094488189
0
LINE
8
BLACK
6
CONTINUOUS
10
0.381405
20
0.486334094488189
11
0.3809055511811024
21
0.4888451968503937
0
LINE
8
BLACK
6
CONTINUOUS
10
0.3809055511811024
20
0.4888451968503937
11
0.3809055118110236
21
0.5347768897637795
0
LINE
8
BLACK
6
CONTINUOUS
10
0.3809055118110236
20
0.5347768897637795
11
0.381405
21
0.5372879527559055
0
LINE
8
BLACK
6
CONTINUOUS
10
0.381405
20
0.5372879527559055
11
0.3828274015748032
21
0.5394166929133858
0
LINE
8
BLACK
6
CONTINUOUS
10
0.3828274015748032
20
0.5394166929133858
11
0.3849561417322834
21
0.540839094488189
0
LINE
8
BLACK
6
CONTINUOUS
10
0.3849561417322834
20
0.540839094488189
11
0.3874672440944882
21
0.5413385433070866
0
LINE
8
BLACK
6
CONTINUOUS
10
0.3874672440944882
20
0.5413385433070866
11
0.4235564173228346
21
0.5413385826771654
0
LINE
8
BLACK
6
CONTINUOUS
10
0.4235564173228346
20
0.5413385826771654
11
0.4260674803149606
21
0.540839094488189
  0
ENDSEC
  0
EOF
