  0
SECTION
  2
HEADER
  9
$ANGBASE
  50
0.0
  9
$ANGDIR
  70
1
  9
$MEASUREMENT
  70
0
  0
ENDSEC
  0
SECTION
  2
TABLES
  0
TABLE
  2
LTYPE
  70
4
  0
LTYPE
  5
40F
  2
CONTINUOUS
  70
0
  3
Solid line
  72
65
  73
0
  40
0.0
  0
LTYPE
  5
410
  2
DASHDOT
 70
0
  3
Dash Dot ____ _ ____ _
 72
65
 73
4
 40
2.0
 49
1.25
 49
-0.25
 49
0.25
 49
-0.25
  0
LTYPE
  5
411
  2
DASHED
 70
0
  3
Dashed __ __ __ __ __
 72
65
 73
2
 40
0.75
 49
0.5
 49
-0.25
  0
LTYPE
  5
43B
  2
DOTTED
 70
0
  3
Dotted .  .  .  .
 72
65
 73
2
 40
0.2
 49
0.0
 49
-0.2
  0
ENDTAB
  0
TABLE
  2
STYLE
  70
4
  0
STYLE
  2
KICAD
  70
0
  40
0
  41
1
  42
1
  50
0
  71
0
  3
isocp.shx
  0
STYLE
  2
KICADB
  70
0
  40
0
  41
1
  42
1
  50
0
  71
0
  3
isocp.shx
  0
STYLE
  2
KICADI
  70
0
  40
0
  41
1
  42
1
  50
15
  71
0
  3
isocp.shx
  0
STYLE
  2
KICADBI
  70
0
  40
0
  41
1
  42
1
  50
15
  71
0
  3
isocp.shx
  0
ENDTAB
  0
TABLE
  2
LAYER
  70
1
  0
LAYER
  2
BLACK
  70
0
  62
7
  6
CONTINUOUS
  0
ENDTAB
  0
ENDSEC
  0
SECTION
  2
ENTITIES
0
LINE
8
BLACK
6
CONTINUOUS
10
0.800551
20
0.130197
11
0.801247
21
0.129909
0
LINE
8
BLACK
6
CONTINUOUS
10
0.801247
20
0.129909
11
0.801535
21
0.129213
0
LINE
8
BLACK
6
CONTINUOUS
10
0.801535
20
0.129213
11
0.801535
21
0.0307874
0
LINE
8
BLACK
6
CONTINUOUS
10
0.801535
20
0.0307874
11
0.801247
21
0.0300914
0
LINE
8
BLACK
6
CONTINUOUS
10
0.801247
20
0.0300914
11
0.800551
21
0.0298031
0
LINE
8
BLACK
6
CONTINUOUS
10
0.800551
20
0.0298031
11
0.619449
21
0.0298031
0
LINE
8
BLACK
6
CONTINUOUS
10
0.619449
20
0.0298031
11
0.618753
21
0.0300914
0
LINE
8
BLACK
6
CONTINUOUS
10
0.618753
20
0.0300914
11
0.618465
21
0.0307874
0
LINE
8
BLACK
6
CONTINUOUS
10
0.618465
20
0.0307874
11
0.618465
21
0.129213
0
LINE
8
BLACK
6
CONTINUOUS
10
0.618465
20
0.129213
11
0.618753
21
0.129909
0
LINE
8
BLACK
6
CONTINUOUS
10
0.618753
20
0.129909
11
0.619449
21
0.130197
0
LINE
8
BLACK
6
CONTINUOUS
10
0.619449
20
0.130197
11
0.800551
21
0.130197
0
LINE
8
BLACK
6
CONTINUOUS
10
0.620433
20
0.128228
11
0.620433
21
0.0317717
0
LINE
8
BLACK
6
CONTINUOUS
10
0.620433
20
0.0317717
11
0.799567
21
0.0317717
0
LINE
8
BLACK
6
CONTINUOUS
10
0.799567
20
0.0317717
11
0.799567
21
0.128228
0
LINE
8
BLACK
6
CONTINUOUS
10
0.799567
20
0.128228
11
0.620433
21
0.128228
0
LINE
8
BLACK
6
CONTINUOUS
10
0.582264
20
0.134724
11
0.58296
21
0.134436
0
LINE
8
BLACK
6
CONTINUOUS
10
0.58296
20
0.134436
11
0.583248
21
0.13374
0
LINE
8
BLACK
6
CONTINUOUS
10
0.583248
20
0.13374
11
0.583248
21
0.0762598
0
LINE
8
BLACK
6
CONTINUOUS
10
0.583248
20
0.0762598
11
0.58296
21
0.0755639
0
LINE
8
BLACK
6
CONTINUOUS
10
0.58296
20
0.0755639
11
0.582264
21
0.0752756
0
LINE
8
BLACK
6
CONTINUOUS
10
0.582264
20
0.0752756
11
0.465728
21
0.0752756
0
LINE
8
BLACK
6
CONTINUOUS
10
0.465728
20
0.0752756
11
0.465032
21
0.0755639
0
LINE
8
BLACK
6
CONTINUOUS
10
0.465032
20
0.0755639
11
0.464744
21
0.0762598
0
LINE
8
BLACK
6
CONTINUOUS
10
0.464744
20
0.0762598
11
0.464744
21
0.13374
0
LINE
8
BLACK
6
CONTINUOUS
10
0.464744
20
0.13374
11
0.465032
21
0.134436
0
LINE
8
BLACK
6
CONTINUOUS
10
0.465032
20
0.134436
11
0.465728
21
0.134724
0
LINE
8
BLACK
6
CONTINUOUS
10
0.465728
20
0.134724
11
0.582264
21
0.134724
0
LINE
8
BLACK
6
CONTINUOUS
10
0.466713
20
0.132756
11
0.466713
21
0.0772441
0
LINE
8
BLACK
6
CONTINUOUS
10
0.466713
20
0.0772441
11
0.58128
21
0.0772441
0
LINE
8
BLACK
6
CONTINUOUS
10
0.58128
20
0.0772441
11
0.58128
21
0.132756
0
LINE
8
BLACK
6
CONTINUOUS
10
0.58128
20
0.132756
11
0.466713
21
0.132756
0
LINE
8
BLACK
6
CONTINUOUS
10
0.243984
20
0.482087
11
0.24468
21
0.481798
0
LINE
8
BLACK
6
CONTINUOUS
10
0.24468
20
0.481798
11
0.244969
21
0.481102
0
LINE
8
BLACK
6
CONTINUOUS
10
0.244969
20
0.481102
11
0.244969
21
0.109449
0
LINE
8
BLACK
6
CONTINUOUS
10
0.244969
20
0.109449
11
0.24468
21
0.108753
0
LINE
8
BLACK
6
CONTINUOUS
10
0.24468
20
0.108753
11
0.243984
21
0.108465
0
LINE
8
BLACK
6
CONTINUOUS
10
0.243984
20
0.108465
11
-0.00798425
21
0.108465
0
LINE
8
BLACK
6
CONTINUOUS
10
-0.00798425
20
0.108465
11
-0.00868024
21
0.108753
0
LINE
8
BLACK
6
CONTINUOUS
10
-0.00868024
20
0.108753
11
-0.0089685
21
0.109449
0
LINE
8
BLACK
6
CONTINUOUS
10
-0.0089685
20
0.109449
11
-0.0089685
21
0.481102
0
LINE
8
BLACK
6
CONTINUOUS
10
-0.0089685
20
0.481102
11
-0.00868024
21
0.481798
0
LINE
8
BLACK
6
CONTINUOUS
10
-0.00868024
20
0.481798
11
-0.00798425
21
0.482087
0
LINE
8
BLACK
6
CONTINUOUS
10
-0.00798425
20
0.482087
11
0.243984
21
0.482087
0
LINE
8
BLACK
6
CONTINUOUS
10
-0.007
20
0.480118
11
-0.007
21
0.110433
0
LINE
8
BLACK
6
CONTINUOUS
10
-0.007
20
0.110433
11
0.243
21
0.110433
0
LINE
8
BLACK
6
CONTINUOUS
10
0.243
20
0.110433
11
0.243
21
0.480118
0
LINE
8
BLACK
6
CONTINUOUS
10
0.243
20
0.480118
11
-0.007
21
0.480118
0
LINE
8
BLACK
6
CONTINUOUS
10
0.49374
20
0.270256
11
0.494436
21
0.269968
0
LINE
8
BLACK
6
CONTINUOUS
10
0.494436
20
0.269968
11
0.494724
21
0.269272
0
LINE
8
BLACK
6
CONTINUOUS
10
0.494724
20
0.269272
11
0.494724
21
0.152736
0
LINE
8
BLACK
6
CONTINUOUS
10
0.494724
20
0.152736
11
0.494436
21
0.15204
0
LINE
8
BLACK
6
CONTINUOUS
10
0.494436
20
0.15204
11
0.49374
21
0.151752
0
LINE
8
BLACK
6
CONTINUOUS
10
0.49374
20
0.151752
11
0.43626
21
0.151752
0
LINE
8
BLACK
6
CONTINUOUS
10
0.43626
20
0.151752
11
0.435564
21
0.15204
0
LINE
8
BLACK
6
CONTINUOUS
10
0.435564
20
0.15204
11
0.435276
21
0.152736
0
LINE
8
BLACK
6
CONTINUOUS
10
0.435276
20
0.152736
11
0.435276
21
0.269272
0
LINE
8
BLACK
6
CONTINUOUS
10
0.435276
20
0.269272
11
0.435564
21
0.269968
0
LINE
8
BLACK
6
CONTINUOUS
10
0.435564
20
0.269968
11
0.43626
21
0.270256
0
LINE
8
BLACK
6
CONTINUOUS
10
0.43626
20
0.270256
11
0.49374
21
0.270256
0
LINE
8
BLACK
6
CONTINUOUS
10
0.437244
20
0.268287
11
0.437244
21
0.15372
0
LINE
8
BLACK
6
CONTINUOUS
10
0.437244
20
0.15372
11
0.492756
21
0.15372
0
LINE
8
BLACK
6
CONTINUOUS
10
0.492756
20
0.15372
11
0.492756
21
0.268287
0
LINE
8
BLACK
6
CONTINUOUS
10
0.492756
20
0.268287
11
0.437244
21
0.268287
0
LINE
8
BLACK
6
CONTINUOUS
10
0.651929
20
0.294882
11
0.652625
21
0.294594
0
LINE
8
BLACK
6
CONTINUOUS
10
0.652625
20
0.294594
11
0.652913
21
0.293898
0
LINE
8
BLACK
6
CONTINUOUS
10
0.652913
20
0.293898
11
0.652913
21
0.156102
0
LINE
8
BLACK
6
CONTINUOUS
10
0.652913
20
0.156102
11
0.652625
21
0.155406
0
LINE
8
BLACK
6
CONTINUOUS
10
0.652625
20
0.155406
11
0.651929
21
0.155118
0
LINE
8
BLACK
6
CONTINUOUS
10
0.651929
20
0.155118
11
0.518071
21
0.155118
0
LINE
8
BLACK
6
CONTINUOUS
10
0.518071
20
0.155118
11
0.517375
21
0.155406
0
LINE
8
BLACK
6
CONTINUOUS
10
0.517375
20
0.155406
11
0.517087
21
0.156102
0
LINE
8
BLACK
6
CONTINUOUS
10
0.517087
20
0.156102
11
0.517087
21
0.293898
0
LINE
8
BLACK
6
CONTINUOUS
10
0.517087
20
0.293898
11
0.517375
21
0.294594
0
LINE
8
BLACK
6
CONTINUOUS
10
0.517375
20
0.294594
11
0.518071
21
0.294882
0
LINE
8
BLACK
6
CONTINUOUS
10
0.518071
20
0.294882
11
0.651929
21
0.294882
0
LINE
8
BLACK
6
CONTINUOUS
10
0.519055
20
0.292913
11
0.519055
21
0.157087
0
LINE
8
BLACK
6
CONTINUOUS
10
0.519055
20
0.157087
11
0.650945
21
0.157087
0
LINE
8
BLACK
6
CONTINUOUS
10
0.650945
20
0.157087
11
0.650945
21
0.292913
0
LINE
8
BLACK
6
CONTINUOUS
10
0.650945
20
0.292913
11
0.519055
21
0.292913
0
LINE
8
BLACK
6
CONTINUOUS
10
0.425866
20
0.315787
11
0.426562
21
0.315499
0
LINE
8
BLACK
6
CONTINUOUS
10
0.426562
20
0.315499
11
0.42685
21
0.314803
0
LINE
8
BLACK
6
CONTINUOUS
10
0.42685
20
0.314803
11
0.42685
21
0.165197
0
LINE
8
BLACK
6
CONTINUOUS
10
0.42685
20
0.165197
11
0.426562
21
0.164501
0
LINE
8
BLACK
6
CONTINUOUS
10
0.426562
20
0.164501
11
0.425866
21
0.164213
0
LINE
8
BLACK
6
CONTINUOUS
10
0.425866
20
0.164213
11
0.284134
21
0.164213
0
LINE
8
BLACK
6
CONTINUOUS
10
0.284134
20
0.164213
11
0.283438
21
0.164501
0
LINE
8
BLACK
6
CONTINUOUS
10
0.283438
20
0.164501
11
0.28315
21
0.165197
0
LINE
8
BLACK
6
CONTINUOUS
10
0.28315
20
0.165197
11
0.28315
21
0.314803
0
LINE
8
BLACK
6
CONTINUOUS
10
0.28315
20
0.314803
11
0.283438
21
0.315499
0
LINE
8
BLACK
6
CONTINUOUS
10
0.283438
20
0.315499
11
0.284134
21
0.315787
0
LINE
8
BLACK
6
CONTINUOUS
10
0.284134
20
0.315787
11
0.425866
21
0.315787
0
LINE
8
BLACK
6
CONTINUOUS
10
0.285118
20
0.313819
11
0.285118
21
0.166181
0
LINE
8
BLACK
6
CONTINUOUS
10
0.285118
20
0.166181
11
0.424882
21
0.166181
0
LINE
8
BLACK
6
CONTINUOUS
10
0.424882
20
0.166181
11
0.424882
21
0.313819
0
LINE
8
BLACK
6
CONTINUOUS
10
0.424882
20
0.313819
11
0.285118
21
0.313819
0
LINE
8
BLACK
6
CONTINUOUS
10
0.782264
20
0.239724
11
0.78296
21
0.239436
0
LINE
8
BLACK
6
CONTINUOUS
10
0.78296
20
0.239436
11
0.783248
21
0.23874
0
LINE
8
BLACK
6
CONTINUOUS
10
0.783248
20
0.23874
11
0.783248
21
0.18126
0
LINE
8
BLACK
6
CONTINUOUS
10
0.783248
20
0.18126
11
0.78296
21
0.180564
0
LINE
8
BLACK
6
CONTINUOUS
10
0.78296
20
0.180564
11
0.782264
21
0.180276
0
LINE
8
BLACK
6
CONTINUOUS
10
0.782264
20
0.180276
11
0.665728
21
0.180276
0
LINE
8
BLACK
6
CONTINUOUS
10
0.665728
20
0.180276
11
0.665032
21
0.180564
0
LINE
8
BLACK
6
CONTINUOUS
10
0.665032
20
0.180564
11
0.664744
21
0.18126
0
LINE
8
BLACK
6
CONTINUOUS
10
0.664744
20
0.18126
11
0.664744
21
0.23874
0
LINE
8
BLACK
6
CONTINUOUS
10
0.664744
20
0.23874
11
0.665032
21
0.239436
0
LINE
8
BLACK
6
CONTINUOUS
10
0.665032
20
0.239436
11
0.665728
21
0.239724
0
LINE
8
BLACK
6
CONTINUOUS
10
0.665728
20
0.239724
11
0.782264
21
0.239724
0
LINE
8
BLACK
6
CONTINUOUS
10
0.666713
20
0.237756
11
0.666713
21
0.182244
0
LINE
8
BLACK
6
CONTINUOUS
10
0.666713
20
0.182244
11
0.78128
21
0.182244
0
LINE
8
BLACK
6
CONTINUOUS
10
0.78128
20
0.182244
11
0.78128
21
0.237756
0
LINE
8
BLACK
6
CONTINUOUS
10
0.78128
20
0.237756
11
0.666713
21
0.237756
0
LINE
8
BLACK
6
CONTINUOUS
10
1.09055
20
0.363189
11
1.09125
21
0.362901
0
LINE
8
BLACK
6
CONTINUOUS
10
1.09125
20
0.362901
11
1.09154
21
0.362205
0
LINE
8
BLACK
6
CONTINUOUS
10
1.09154
20
0.362205
11
1.09154
21
0.228346
0
LINE
8
BLACK
6
CONTINUOUS
10
1.09154
20
0.228346
11
1.09125
21
0.22765
0
LINE
8
BLACK
6
CONTINUOUS
10
1.09125
20
0.22765
11
1.09055
21
0.227362
0
LINE
8
BLACK
6
CONTINUOUS
10
1.09055
20
0.227362
11
0.972441
21
0.227362
0
LINE
8
BLACK
6
CONTINUOUS
10
0.972441
20
0.227362
11
0.971745
21
0.22765
0
LINE
8
BLACK
6
CONTINUOUS
10
0.971745
20
0.22765
11
0.971457
21
0.228346
0
LINE
8
BLACK
6
CONTINUOUS
10
0.971457
20
0.228346
11
0.971457
21
0.362205
0
LINE
8
BLACK
6
CONTINUOUS
10
0.971457
20
0.362205
11
0.971745
21
0.362901
0
LINE
8
BLACK
6
CONTINUOUS
10
0.971745
20
0.362901
11
0.972441
21
0.363189
0
LINE
8
BLACK
6
CONTINUOUS
10
0.972441
20
0.363189
11
1.09055
21
0.363189
0
LINE
8
BLACK
6
CONTINUOUS
10
0.973425
20
0.36122
11
0.973425
21
0.229331
0
LINE
8
BLACK
6
CONTINUOUS
10
0.973425
20
0.229331
11
1.08957
21
0.229331
0
LINE
8
BLACK
6
CONTINUOUS
10
1.08957
20
0.229331
11
1.08957
21
0.36122
0
LINE
8
BLACK
6
CONTINUOUS
10
1.08957
20
0.36122
11
0.973425
21
0.36122
0
LINE
8
BLACK
6
CONTINUOUS
10
0.536457
20
0.44311
11
0.537153
21
0.442822
0
LINE
8
BLACK
6
CONTINUOUS
10
0.537153
20
0.442822
11
0.537441
21
0.442126
0
LINE
8
BLACK
6
CONTINUOUS
10
0.537441
20
0.442126
11
0.537441
21
0.325591
0
LINE
8
BLACK
6
CONTINUOUS
10
0.537441
20
0.325591
11
0.537153
21
0.324895
0
LINE
8
BLACK
6
CONTINUOUS
10
0.537153
20
0.324895
11
0.536457
21
0.324606
0
LINE
8
BLACK
6
CONTINUOUS
10
0.536457
20
0.324606
11
0.478976
21
0.324606
0
LINE
8
BLACK
6
CONTINUOUS
10
0.478976
20
0.324606
11
0.47828
21
0.324895
0
LINE
8
BLACK
6
CONTINUOUS
10
0.47828
20
0.324895
11
0.477992
21
0.325591
0
LINE
8
BLACK
6
CONTINUOUS
10
0.477992
20
0.325591
11
0.477992
21
0.442126
0
LINE
8
BLACK
6
CONTINUOUS
10
0.477992
20
0.442126
11
0.47828
21
0.442822
0
LINE
8
BLACK
6
CONTINUOUS
10
0.47828
20
0.442822
11
0.478976
21
0.44311
0
LINE
8
BLACK
6
CONTINUOUS
10
0.478976
20
0.44311
11
0.536457
21
0.44311
0
LINE
8
BLACK
6
CONTINUOUS
10
0.479961
20
0.441142
11
0.479961
21
0.326575
0
LINE
8
BLACK
6
CONTINUOUS
10
0.479961
20
0.326575
11
0.535472
21
0.326575
0
LINE
8
BLACK
6
CONTINUOUS
10
0.535472
20
0.326575
11
0.535472
21
0.441142
0
LINE
8
BLACK
6
CONTINUOUS
10
0.535472
20
0.441142
11
0.479961
21
0.441142
0
LINE
8
BLACK
6
CONTINUOUS
10
0.320906
20
0.447047
11
0.321601
21
0.446759
0
LINE
8
BLACK
6
CONTINUOUS
10
0.321601
20
0.446759
11
0.32189
21
0.446063
0
LINE
8
BLACK
6
CONTINUOUS
10
0.32189
20
0.446063
11
0.32189
21
0.329528
0
LINE
8
BLACK
6
CONTINUOUS
10
0.32189
20
0.329528
11
0.321601
21
0.328832
0
LINE
8
BLACK
6
CONTINUOUS
10
0.321601
20
0.328832
11
0.320906
21
0.328543
0
LINE
8
BLACK
6
CONTINUOUS
10
0.320906
20
0.328543
11
0.263425
21
0.328543
0
LINE
8
BLACK
6
CONTINUOUS
10
0.263425
20
0.328543
11
0.262729
21
0.328832
0
LINE
8
BLACK
6
CONTINUOUS
10
0.262729
20
0.328832
11
0.262441
21
0.329528
0
LINE
8
BLACK
6
CONTINUOUS
10
0.262441
20
0.329528
11
0.262441
21
0.446063
0
LINE
8
BLACK
6
CONTINUOUS
10
0.262441
20
0.446063
11
0.262729
21
0.446759
0
LINE
8
BLACK
6
CONTINUOUS
10
0.262729
20
0.446759
11
0.263425
21
0.447047
0
LINE
8
BLACK
6
CONTINUOUS
10
0.263425
20
0.447047
11
0.320906
21
0.447047
0
LINE
8
BLACK
6
CONTINUOUS
10
0.264409
20
0.445079
11
0.264409
21
0.330512
0
LINE
8
BLACK
6
CONTINUOUS
10
0.264409
20
0.330512
11
0.319921
21
0.330512
0
LINE
8
BLACK
6
CONTINUOUS
10
0.319921
20
0.330512
11
0.319921
21
0.445079
0
LINE
8
BLACK
6
CONTINUOUS
10
0.319921
20
0.445079
11
0.264409
21
0.445079
0
LINE
8
BLACK
6
CONTINUOUS
10
0.384685
20
0.435039
11
0.385381
21
0.434751
0
LINE
8
BLACK
6
CONTINUOUS
10
0.385381
20
0.434751
11
0.385669
21
0.434055
0
LINE
8
BLACK
6
CONTINUOUS
10
0.385669
20
0.434055
11
0.385669
21
0.33563
0
LINE
8
BLACK
6
CONTINUOUS
10
0.385669
20
0.33563
11
0.385381
21
0.334934
0
LINE
8
BLACK
6
CONTINUOUS
10
0.385381
20
0.334934
11
0.384685
21
0.334646
0
LINE
8
BLACK
6
CONTINUOUS
10
0.384685
20
0.334646
11
0.329567
21
0.334646
0
LINE
8
BLACK
6
CONTINUOUS
10
0.329567
20
0.334646
11
0.328871
21
0.334934
0
LINE
8
BLACK
6
CONTINUOUS
10
0.328871
20
0.334934
11
0.328583
21
0.33563
0
LINE
8
BLACK
6
CONTINUOUS
10
0.328583
20
0.33563
11
0.328583
21
0.434055
0
LINE
8
BLACK
6
CONTINUOUS
10
0.328583
20
0.434055
11
0.328871
21
0.434751
0
LINE
8
BLACK
6
CONTINUOUS
10
0.328871
20
0.434751
11
0.329567
21
0.435039
0
LINE
8
BLACK
6
CONTINUOUS
10
0.329567
20
0.435039
11
0.384685
21
0.435039
0
LINE
8
BLACK
6
CONTINUOUS
10
0.330551
20
0.433071
11
0.330551
21
0.336614
0
LINE
8
BLACK
6
CONTINUOUS
10
0.330551
20
0.336614
11
0.383701
21
0.336614
0
LINE
8
BLACK
6
CONTINUOUS
10
0.383701
20
0.336614
11
0.383701
21
0.433071
0
LINE
8
BLACK
6
CONTINUOUS
10
0.383701
20
0.433071
11
0.330551
21
0.433071
0
LINE
8
BLACK
6
CONTINUOUS
10
0.63874
20
0.463248
11
0.639436
21
0.46296
0
LINE
8
BLACK
6
CONTINUOUS
10
0.639436
20
0.46296
11
0.639724
21
0.462264
0
LINE
8
BLACK
6
CONTINUOUS
10
0.639724
20
0.462264
11
0.639724
21
0.345728
0
LINE
8
BLACK
6
CONTINUOUS
10
0.639724
20
0.345728
11
0.639436
21
0.345032
0
LINE
8
BLACK
6
CONTINUOUS
10
0.639436
20
0.345032
11
0.63874
21
0.344744
0
LINE
8
BLACK
6
CONTINUOUS
10
0.63874
20
0.344744
11
0.58126
21
0.344744
0
LINE
8
BLACK
6
CONTINUOUS
10
0.58126
20
0.344744
11
0.580564
21
0.345032
0
LINE
8
BLACK
6
CONTINUOUS
10
0.580564
20
0.345032
11
0.580276
21
0.345728
0
LINE
8
BLACK
6
CONTINUOUS
10
0.580276
20
0.345728
11
0.580276
21
0.462264
0
LINE
8
BLACK
6
CONTINUOUS
10
0.580276
20
0.462264
11
0.580564
21
0.46296
0
LINE
8
BLACK
6
CONTINUOUS
10
0.580564
20
0.46296
11
0.58126
21
0.463248
0
LINE
8
BLACK
6
CONTINUOUS
10
0.58126
20
0.463248
11
0.63874
21
0.463248
0
LINE
8
BLACK
6
CONTINUOUS
10
0.582244
20
0.46128
11
0.582244
21
0.346713
0
LINE
8
BLACK
6
CONTINUOUS
10
0.582244
20
0.346713
11
0.637756
21
0.346713
0
LINE
8
BLACK
6
CONTINUOUS
10
0.637756
20
0.346713
11
0.637756
21
0.46128
0
LINE
8
BLACK
6
CONTINUOUS
10
0.637756
20
0.46128
11
0.582244
21
0.46128
0
LINE
8
BLACK
6
CONTINUOUS
10
0.72874
20
0.464252
11
0.729436
21
0.463964
0
LINE
8
BLACK
6
CONTINUOUS
10
0.729436
20
0.463964
11
0.729724
21
0.463268
0
LINE
8
BLACK
6
CONTINUOUS
10
0.729724
20
0.463268
11
0.729724
21
0.346732
0
LINE
8
BLACK
6
CONTINUOUS
10
0.729724
20
0.346732
11
0.729436
21
0.346036
0
LINE
8
BLACK
6
CONTINUOUS
10
0.729436
20
0.346036
11
0.72874
21
0.345748
0
LINE
8
BLACK
6
CONTINUOUS
10
0.72874
20
0.345748
11
0.67126
21
0.345748
0
LINE
8
BLACK
6
CONTINUOUS
10
0.67126
20
0.345748
11
0.670564
21
0.346036
0
LINE
8
BLACK
6
CONTINUOUS
10
0.670564
20
0.346036
11
0.670276
21
0.346732
0
LINE
8
BLACK
6
CONTINUOUS
10
0.670276
20
0.346732
11
0.670276
21
0.463268
0
LINE
8
BLACK
6
CONTINUOUS
10
0.670276
20
0.463268
11
0.670564
21
0.463964
0
LINE
8
BLACK
6
CONTINUOUS
10
0.670564
20
0.463964
11
0.67126
21
0.464252
0
LINE
8
BLACK
6
CONTINUOUS
10
0.67126
20
0.464252
11
0.72874
21
0.464252
0
LINE
8
BLACK
6
CONTINUOUS
10
0.672244
20
0.462283
11
0.672244
21
0.347717
0
LINE
8
BLACK
6
CONTINUOUS
10
0.672244
20
0.347717
11
0.727756
21
0.347717
0
LINE
8
BLACK
6
CONTINUOUS
10
0.727756
20
0.347717
11
0.727756
21
0.462283
0
LINE
8
BLACK
6
CONTINUOUS
10
0.727756
20
0.462283
11
0.672244
21
0.462283
0
LINE
8
BLACK
6
CONTINUOUS
10
1.08976
20
0.486181
11
1.09046
21
0.485893
0
LINE
8
BLACK
6
CONTINUOUS
10
1.09046
20
0.485893
11
1.09075
21
0.485197
0
LINE
8
BLACK
6
CONTINUOUS
10
1.09075
20
0.485197
11
1.09075
21
0.427717
0
LINE
8
BLACK
6
CONTINUOUS
10
1.09075
20
0.427717
11
1.09046
21
0.427021
0
LINE
8
BLACK
6
CONTINUOUS
10
1.09046
20
0.427021
11
1.08976
21
0.426732
0
LINE
8
BLACK
6
CONTINUOUS
10
1.08976
20
0.426732
11
0.973228
21
0.426732
0
LINE
8
BLACK
6
CONTINUOUS
10
0.973228
20
0.426732
11
0.972532
21
0.427021
0
LINE
8
BLACK
6
CONTINUOUS
10
0.972532
20
0.427021
11
0.972244
21
0.427717
0
LINE
8
BLACK
6
CONTINUOUS
10
0.972244
20
0.427717
11
0.972244
21
0.485197
0
LINE
8
BLACK
6
CONTINUOUS
10
0.972244
20
0.485197
11
0.972532
21
0.485893
0
LINE
8
BLACK
6
CONTINUOUS
10
0.972532
20
0.485893
11
0.973228
21
0.486181
0
LINE
8
BLACK
6
CONTINUOUS
10
0.973228
20
0.486181
11
1.08976
21
0.486181
0
LINE
8
BLACK
6
CONTINUOUS
10
0.974213
20
0.484213
11
0.974213
21
0.428701
0
LINE
8
BLACK
6
CONTINUOUS
10
0.974213
20
0.428701
11
1.08878
21
0.428701
0
LINE
8
BLACK
6
CONTINUOUS
10
1.08878
20
0.428701
11
1.08878
21
0.484213
0
LINE
8
BLACK
6
CONTINUOUS
10
1.08878
20
0.484213
11
0.974213
21
0.484213
  0
ENDSEC
  0
EOF
