  0
SECTION
  2
HEADER
  9
$ANGBASE
  50
0.0
  9
$ANGDIR
  70
1
  9
$MEASUREMENT
  70
0
  0
ENDSEC
  0
SECTION
  2
TABLES
  0
TABLE
  2
LTYPE
  70
4
  0
LTYPE
  5
40F
  2
CONTINUOUS
  70
0
  3
Solid line
  72
65
  73
0
  40
0.0
  0
LTYPE
  5
410
  2
DASHDOT
 70
0
  3
Dash Dot ____ _ ____ _
 72
65
 73
4
 40
2.0
 49
1.25
 49
-0.25
 49
0.25
 49
-0.25
  0
LTYPE
  5
411
  2
DASHED
 70
0
  3
Dashed __ __ __ __ __
 72
65
 73
2
 40
0.75
 49
0.5
 49
-0.25
  0
LTYPE
  5
43B
  2
DOTTED
 70
0
  3
Dotted .  .  .  .
 72
65
 73
2
 40
0.2
 49
0.0
 49
-0.2
  0
ENDTAB
  0
TABLE
  2
STYLE
  70
4
  0
STYLE
  2
KICAD
  70
0
  40
0
  41
1
  42
1
  50
0
  71
0
  3
isocp.shx
  0
STYLE
  2
KICADB
  70
0
  40
0
  41
1
  42
1
  50
0
  71
0
  3
isocp.shx
  0
STYLE
  2
KICADI
  70
0
  40
0
  41
1
  42
1
  50
15
  71
0
  3
isocp.shx
  0
STYLE
  2
KICADBI
  70
0
  40
0
  41
1
  42
1
  50
15
  71
0
  3
isocp.shx
  0
ENDTAB
  0
TABLE
  2
LAYER
  70
1
  0
LAYER
  2
BLACK
  70
0
  62
7
  6
CONTINUOUS
  0
ENDTAB
  0
ENDSEC
  0
SECTION
  2
ENTITIES
0
LINE
8
BLACK
6
CONTINUOUS
10
0.8009278346456693
20
0.1301219291338583
11
0.8014605118110236
21
0.1295892519685039
0
LINE
8
BLACK
6
CONTINUOUS
10
0.8014605118110236
20
0.1295892519685039
11
0.8015354330708662
21
0.1292125984251968
0
LINE
8
BLACK
6
CONTINUOUS
10
0.8015354330708662
20
0.1292125984251968
11
0.8015354330708662
21
0.0307874015748031
0
LINE
8
BLACK
6
CONTINUOUS
10
0.8015354330708662
20
0.0307874015748031
11
0.8014605118110236
21
0.0304107480314961
0
LINE
8
BLACK
6
CONTINUOUS
10
0.8014605118110236
20
0.0304107480314961
11
0.8009278346456693
21
0.0298780708661417
0
LINE
8
BLACK
6
CONTINUOUS
10
0.8009278346456693
20
0.0298780708661417
11
0.8005511811023622
21
0.0298031496062992
0
LINE
8
BLACK
6
CONTINUOUS
10
0.8005511811023622
20
0.0298031496062992
11
0.6194488188976378
21
0.0298031496062992
0
LINE
8
BLACK
6
CONTINUOUS
10
0.6194488188976378
20
0.0298031496062992
11
0.6190721653543307
21
0.0298780708661417
0
LINE
8
BLACK
6
CONTINUOUS
10
0.6190721653543307
20
0.0298780708661417
11
0.6185394881889764
21
0.0304107480314961
0
LINE
8
BLACK
6
CONTINUOUS
10
0.6185394881889764
20
0.0304107480314961
11
0.6184645669291339
21
0.0307874015748031
0
LINE
8
BLACK
6
CONTINUOUS
10
0.6184645669291339
20
0.0307874015748031
11
0.6184645669291339
21
0.1292125984251968
0
LINE
8
BLACK
6
CONTINUOUS
10
0.6184645669291339
20
0.1292125984251968
11
0.6185394881889764
21
0.1295892519685039
0
LINE
8
BLACK
6
CONTINUOUS
10
0.6185394881889764
20
0.1295892519685039
11
0.6190721653543307
21
0.1301219291338583
0
LINE
8
BLACK
6
CONTINUOUS
10
0.6190721653543307
20
0.1301219291338583
11
0.6194488188976378
21
0.1301968503937008
0
LINE
8
BLACK
6
CONTINUOUS
10
0.6194488188976378
20
0.1301968503937008
11
0.8005511811023622
21
0.1301968503937008
0
LINE
8
BLACK
6
CONTINUOUS
10
0.8005511811023622
20
0.1301968503937008
11
0.8009278346456693
21
0.1301219291338583
0
LINE
8
BLACK
6
CONTINUOUS
10
0.6204330708661417
20
0.1282283464566929
11
0.6204330708661417
21
0.0317716535433071
0
LINE
8
BLACK
6
CONTINUOUS
10
0.6204330708661417
20
0.0317716535433071
11
0.7995669291338583
21
0.0317716535433071
0
LINE
8
BLACK
6
CONTINUOUS
10
0.7995669291338583
20
0.0317716535433071
11
0.7995669291338583
21
0.1282283464566929
0
LINE
8
BLACK
6
CONTINUOUS
10
0.7995669291338583
20
0.1282283464566929
11
0.6204330708661417
21
0.1282283464566929
0
LINE
8
BLACK
6
CONTINUOUS
10
0.5826404330708661
20
0.1346494881889764
11
0.5831731102362204
21
0.1341168110236221
0
LINE
8
BLACK
6
CONTINUOUS
10
0.5831731102362204
20
0.1341168110236221
11
0.583248031496063
21
0.133740157480315
0
LINE
8
BLACK
6
CONTINUOUS
10
0.583248031496063
20
0.133740157480315
11
0.583248031496063
21
0.076259842519685
0
LINE
8
BLACK
6
CONTINUOUS
10
0.583248031496063
20
0.076259842519685
11
0.5831731102362204
21
0.075883188976378
0
LINE
8
BLACK
6
CONTINUOUS
10
0.5831731102362204
20
0.075883188976378
11
0.5826404330708661
21
0.0753505118110236
0
LINE
8
BLACK
6
CONTINUOUS
10
0.5826404330708661
20
0.0753505118110236
11
0.582263779527559
21
0.0752755905511811
0
LINE
8
BLACK
6
CONTINUOUS
10
0.582263779527559
20
0.0752755905511811
11
0.4657283464566929
21
0.0752755905511811
0
LINE
8
BLACK
6
CONTINUOUS
10
0.4657283464566929
20
0.0752755905511811
11
0.4653516929133858
21
0.0753505118110236
0
LINE
8
BLACK
6
CONTINUOUS
10
0.4653516929133858
20
0.0753505118110236
11
0.4648190157480315
21
0.075883188976378
0
LINE
8
BLACK
6
CONTINUOUS
10
0.4648190157480315
20
0.075883188976378
11
0.464744094488189
21
0.076259842519685
0
LINE
8
BLACK
6
CONTINUOUS
10
0.464744094488189
20
0.076259842519685
11
0.464744094488189
21
0.133740157480315
0
LINE
8
BLACK
6
CONTINUOUS
10
0.464744094488189
20
0.133740157480315
11
0.4648190157480315
21
0.1341168110236221
0
LINE
8
BLACK
6
CONTINUOUS
10
0.4648190157480315
20
0.1341168110236221
11
0.4653516929133858
21
0.1346494881889764
0
LINE
8
BLACK
6
CONTINUOUS
10
0.4653516929133858
20
0.1346494881889764
11
0.4657283464566929
21
0.1347244094488189
0
LINE
8
BLACK
6
CONTINUOUS
10
0.4657283464566929
20
0.1347244094488189
11
0.582263779527559
21
0.1347244094488189
0
LINE
8
BLACK
6
CONTINUOUS
10
0.582263779527559
20
0.1347244094488189
11
0.5826404330708661
21
0.1346494881889764
0
LINE
8
BLACK
6
CONTINUOUS
10
0.4667125984251969
20
0.132755905511811
11
0.4667125984251969
21
0.077244094488189
0
LINE
8
BLACK
6
CONTINUOUS
10
0.4667125984251969
20
0.077244094488189
11
0.5812795275590551
21
0.077244094488189
0
LINE
8
BLACK
6
CONTINUOUS
10
0.5812795275590551
20
0.077244094488189
11
0.5812795275590551
21
0.132755905511811
0
LINE
8
BLACK
6
CONTINUOUS
10
0.5812795275590551
20
0.132755905511811
11
0.4667125984251969
21
0.132755905511811
0
LINE
8
BLACK
6
CONTINUOUS
10
0.244360905511811
20
0.4820116929133858
11
0.2448935826771654
21
0.4814790157480315
0
LINE
8
BLACK
6
CONTINUOUS
10
0.2448935826771654
20
0.4814790157480315
11
0.2449685039370079
21
0.4811023622047244
0
LINE
8
BLACK
6
CONTINUOUS
10
0.2449685039370079
20
0.4811023622047244
11
0.2449685039370079
21
0.1094488188976378
0
LINE
8
BLACK
6
CONTINUOUS
10
0.2449685039370079
20
0.1094488188976378
11
0.2448935826771654
21
0.1090721653543307
0
LINE
8
BLACK
6
CONTINUOUS
10
0.2448935826771654
20
0.1090721653543307
11
0.244360905511811
21
0.1085394881889764
0
LINE
8
BLACK
6
CONTINUOUS
10
0.244360905511811
20
0.1085394881889764
11
0.2439842519685039
21
0.1084645669291339
0
LINE
8
BLACK
6
CONTINUOUS
10
0.2439842519685039
20
0.1084645669291339
11
-0.0079842519685039
21
0.1084645669291339
0
LINE
8
BLACK
6
CONTINUOUS
10
-0.0079842519685039
20
0.1084645669291339
11
-0.008360905511811
21
0.1085394881889764
0
LINE
8
BLACK
6
CONTINUOUS
10
-0.008360905511811
20
0.1085394881889764
11
-0.0088935826771654
21
0.1090721653543307
0
LINE
8
BLACK
6
CONTINUOUS
10
-0.0088935826771654
20
0.1090721653543307
11
-0.0089685039370079
21
0.1094488188976378
0
LINE
8
BLACK
6
CONTINUOUS
10
-0.0089685039370079
20
0.1094488188976378
11
-0.0089685039370079
21
0.4811023622047244
0
LINE
8
BLACK
6
CONTINUOUS
10
-0.0089685039370079
20
0.4811023622047244
11
-0.0088935826771654
21
0.4814790157480315
0
LINE
8
BLACK
6
CONTINUOUS
10
-0.0088935826771654
20
0.4814790157480315
11
-0.008360905511811
21
0.4820116929133858
0
LINE
8
BLACK
6
CONTINUOUS
10
-0.008360905511811
20
0.4820116929133858
11
-0.0079842519685039
21
0.4820866141732283
0
LINE
8
BLACK
6
CONTINUOUS
10
-0.0079842519685039
20
0.4820866141732283
11
0.2439842519685039
21
0.4820866141732283
0
LINE
8
BLACK
6
CONTINUOUS
10
0.2439842519685039
20
0.4820866141732283
11
0.244360905511811
21
0.4820116929133858
0
LINE
8
BLACK
6
CONTINUOUS
10
-0.007
20
0.4801181102362205
11
-0.007
21
0.1104330708661417
0
LINE
8
BLACK
6
CONTINUOUS
10
-0.007
20
0.1104330708661417
11
0.243
21
0.1104330708661417
0
LINE
8
BLACK
6
CONTINUOUS
10
0.243
20
0.1104330708661417
11
0.243
21
0.4801181102362205
0
LINE
8
BLACK
6
CONTINUOUS
10
0.243
20
0.4801181102362205
11
-0.007
21
0.4801181102362205
0
LINE
8
BLACK
6
CONTINUOUS
10
0.494116811023622
20
0.2701809842519685
11
0.4946494881889764
21
0.2696483070866142
0
LINE
8
BLACK
6
CONTINUOUS
10
0.4946494881889764
20
0.2696483070866142
11
0.4947244094488189
21
0.2692716535433071
0
LINE
8
BLACK
6
CONTINUOUS
10
0.4947244094488189
20
0.2692716535433071
11
0.4947244094488189
21
0.152736220472441
0
LINE
8
BLACK
6
CONTINUOUS
10
0.4947244094488189
20
0.152736220472441
11
0.4946494881889764
21
0.1523595669291339
0
LINE
8
BLACK
6
CONTINUOUS
10
0.4946494881889764
20
0.1523595669291339
11
0.494116811023622
21
0.1518268897637795
0
LINE
8
BLACK
6
CONTINUOUS
10
0.494116811023622
20
0.1518268897637795
11
0.493740157480315
21
0.151751968503937
0
LINE
8
BLACK
6
CONTINUOUS
10
0.493740157480315
20
0.151751968503937
11
0.436259842519685
21
0.151751968503937
0
LINE
8
BLACK
6
CONTINUOUS
10
0.436259842519685
20
0.151751968503937
11
0.435883188976378
21
0.1518268897637795
0
LINE
8
BLACK
6
CONTINUOUS
10
0.435883188976378
20
0.1518268897637795
11
0.4353505118110236
21
0.1523595669291339
0
LINE
8
BLACK
6
CONTINUOUS
10
0.4353505118110236
20
0.1523595669291339
11
0.4352755905511811
21
0.152736220472441
0
LINE
8
BLACK
6
CONTINUOUS
10
0.4352755905511811
20
0.152736220472441
11
0.4352755905511811
21
0.2692716535433071
0
LINE
8
BLACK
6
CONTINUOUS
10
0.4352755905511811
20
0.2692716535433071
11
0.4353505118110236
21
0.2696483070866142
0
LINE
8
BLACK
6
CONTINUOUS
10
0.4353505118110236
20
0.2696483070866142
11
0.435883188976378
21
0.2701809842519685
0
LINE
8
BLACK
6
CONTINUOUS
10
0.435883188976378
20
0.2701809842519685
11
0.436259842519685
21
0.270255905511811
0
LINE
8
BLACK
6
CONTINUOUS
10
0.436259842519685
20
0.270255905511811
11
0.493740157480315
21
0.270255905511811
0
LINE
8
BLACK
6
CONTINUOUS
10
0.493740157480315
20
0.270255905511811
11
0.494116811023622
21
0.2701809842519685
0
LINE
8
BLACK
6
CONTINUOUS
10
0.437244094488189
20
0.2682874015748031
11
0.437244094488189
21
0.1537204724409449
0
LINE
8
BLACK
6
CONTINUOUS
10
0.437244094488189
20
0.1537204724409449
11
0.492755905511811
21
0.1537204724409449
0
LINE
8
BLACK
6
CONTINUOUS
10
0.492755905511811
20
0.1537204724409449
11
0.492755905511811
21
0.2682874015748031
0
LINE
8
BLACK
6
CONTINUOUS
10
0.492755905511811
20
0.2682874015748031
11
0.437244094488189
21
0.2682874015748031
0
LINE
8
BLACK
6
CONTINUOUS
10
0.6523057874015747
20
0.294806968503937
11
0.6528384645669291
21
0.2942742913385827
0
LINE
8
BLACK
6
CONTINUOUS
10
0.6528384645669291
20
0.2942742913385827
11
0.6529133858267716
21
0.2938976377952756
0
LINE
8
BLACK
6
CONTINUOUS
10
0.6529133858267716
20
0.2938976377952756
11
0.6529133858267716
21
0.1561023622047244
0
LINE
8
BLACK
6
CONTINUOUS
10
0.6529133858267716
20
0.1561023622047244
11
0.6528384645669291
21
0.1557257086614173
0
LINE
8
BLACK
6
CONTINUOUS
10
0.6528384645669291
20
0.1557257086614173
11
0.6523057874015747
21
0.155193031496063
0
LINE
8
BLACK
6
CONTINUOUS
10
0.6523057874015747
20
0.155193031496063
11
0.6519291338582677
21
0.1551181102362205
0
LINE
8
BLACK
6
CONTINUOUS
10
0.6519291338582677
20
0.1551181102362205
11
0.5180708661417323
21
0.1551181102362205
0
LINE
8
BLACK
6
CONTINUOUS
10
0.5180708661417323
20
0.1551181102362205
11
0.5176942125984252
21
0.155193031496063
0
LINE
8
BLACK
6
CONTINUOUS
10
0.5176942125984252
20
0.155193031496063
11
0.5171615354330709
21
0.1557257086614173
0
LINE
8
BLACK
6
CONTINUOUS
10
0.5171615354330709
20
0.1557257086614173
11
0.5170866141732283
21
0.1561023622047244
0
LINE
8
BLACK
6
CONTINUOUS
10
0.5170866141732283
20
0.1561023622047244
11
0.5170866141732283
21
0.2938976377952756
0
LINE
8
BLACK
6
CONTINUOUS
10
0.5170866141732283
20
0.2938976377952756
11
0.5171615354330709
21
0.2942742913385827
0
LINE
8
BLACK
6
CONTINUOUS
10
0.5171615354330709
20
0.2942742913385827
11
0.5176942125984252
21
0.294806968503937
0
LINE
8
BLACK
6
CONTINUOUS
10
0.5176942125984252
20
0.294806968503937
11
0.5180708661417323
21
0.2948818897637795
0
LINE
8
BLACK
6
CONTINUOUS
10
0.5180708661417323
20
0.2948818897637795
11
0.6519291338582677
21
0.2948818897637795
0
LINE
8
BLACK
6
CONTINUOUS
10
0.6519291338582677
20
0.2948818897637795
11
0.6523057874015747
21
0.294806968503937
0
LINE
8
BLACK
6
CONTINUOUS
10
0.5190551181102362
20
0.2929133858267716
11
0.5190551181102362
21
0.1570866141732283
0
LINE
8
BLACK
6
CONTINUOUS
10
0.5190551181102362
20
0.1570866141732283
11
0.6509448818897637
21
0.1570866141732283
0
LINE
8
BLACK
6
CONTINUOUS
10
0.6509448818897637
20
0.1570866141732283
11
0.6509448818897637
21
0.2929133858267716
0
LINE
8
BLACK
6
CONTINUOUS
10
0.6509448818897637
20
0.2929133858267716
11
0.5190551181102362
21
0.2929133858267716
0
LINE
8
BLACK
6
CONTINUOUS
10
0.4262427952755906
20
0.3157124803149606
11
0.4267754724409449
21
0.3151798031496063
0
LINE
8
BLACK
6
CONTINUOUS
10
0.4267754724409449
20
0.3151798031496063
11
0.4268503937007874
21
0.3148031496062992
0
LINE
8
BLACK
6
CONTINUOUS
10
0.4268503937007874
20
0.3148031496062992
11
0.4268503937007874
21
0.1651968503937008
0
LINE
8
BLACK
6
CONTINUOUS
10
0.4268503937007874
20
0.1651968503937008
11
0.4267754724409449
21
0.1648201968503937
0
LINE
8
BLACK
6
CONTINUOUS
10
0.4267754724409449
20
0.1648201968503937
11
0.4262427952755906
21
0.1642875196850394
0
LINE
8
BLACK
6
CONTINUOUS
10
0.4262427952755906
20
0.1642875196850394
11
0.4258661417322834
21
0.1642125984251968
0
LINE
8
BLACK
6
CONTINUOUS
10
0.4258661417322834
20
0.1642125984251968
11
0.2841338582677165
21
0.1642125984251968
0
LINE
8
BLACK
6
CONTINUOUS
10
0.2841338582677165
20
0.1642125984251968
11
0.2837572047244095
21
0.1642875196850394
0
LINE
8
BLACK
6
CONTINUOUS
10
0.2837572047244095
20
0.1642875196850394
11
0.2832245275590551
21
0.1648201968503937
0
LINE
8
BLACK
6
CONTINUOUS
10
0.2832245275590551
20
0.1648201968503937
11
0.2831496062992126
21
0.1651968503937008
0
LINE
8
BLACK
6
CONTINUOUS
10
0.2831496062992126
20
0.1651968503937008
11
0.2831496062992126
21
0.3148031496062992
0
LINE
8
BLACK
6
CONTINUOUS
10
0.2831496062992126
20
0.3148031496062992
11
0.2832245275590551
21
0.3151798031496063
0
LINE
8
BLACK
6
CONTINUOUS
10
0.2832245275590551
20
0.3151798031496063
11
0.2837572047244095
21
0.3157124803149606
0
LINE
8
BLACK
6
CONTINUOUS
10
0.2837572047244095
20
0.3157124803149606
11
0.2841338582677165
21
0.3157874015748031
0
LINE
8
BLACK
6
CONTINUOUS
10
0.2841338582677165
20
0.3157874015748031
11
0.4258661417322834
21
0.3157874015748031
0
LINE
8
BLACK
6
CONTINUOUS
10
0.4258661417322834
20
0.3157874015748031
11
0.4262427952755906
21
0.3157124803149606
0
LINE
8
BLACK
6
CONTINUOUS
10
0.2851181102362205
20
0.3138188976377952
11
0.2851181102362205
21
0.1661811023622047
0
LINE
8
BLACK
6
CONTINUOUS
10
0.2851181102362205
20
0.1661811023622047
11
0.4248818897637795
21
0.1661811023622047
0
LINE
8
BLACK
6
CONTINUOUS
10
0.4248818897637795
20
0.1661811023622047
11
0.4248818897637795
21
0.3138188976377952
0
LINE
8
BLACK
6
CONTINUOUS
10
0.4248818897637795
20
0.3138188976377952
11
0.2851181102362205
21
0.3138188976377952
0
LINE
8
BLACK
6
CONTINUOUS
10
0.7826404330708662
20
0.2396494881889764
11
0.7831731102362205
21
0.239116811023622
0
LINE
8
BLACK
6
CONTINUOUS
10
0.7831731102362205
20
0.239116811023622
11
0.7832480314960629
21
0.238740157480315
0
LINE
8
BLACK
6
CONTINUOUS
10
0.7832480314960629
20
0.238740157480315
11
0.7832480314960629
21
0.181259842519685
0
LINE
8
BLACK
6
CONTINUOUS
10
0.7832480314960629
20
0.181259842519685
11
0.7831731102362205
21
0.180883188976378
0
LINE
8
BLACK
6
CONTINUOUS
10
0.7831731102362205
20
0.180883188976378
11
0.7826404330708662
21
0.1803505118110236
0
LINE
8
BLACK
6
CONTINUOUS
10
0.7826404330708662
20
0.1803505118110236
11
0.782263779527559
21
0.1802755905511811
0
LINE
8
BLACK
6
CONTINUOUS
10
0.782263779527559
20
0.1802755905511811
11
0.6657283464566929
21
0.1802755905511811
0
LINE
8
BLACK
6
CONTINUOUS
10
0.6657283464566929
20
0.1802755905511811
11
0.6653516929133858
21
0.1803505118110236
0
LINE
8
BLACK
6
CONTINUOUS
10
0.6653516929133858
20
0.1803505118110236
11
0.6648190157480315
21
0.180883188976378
0
LINE
8
BLACK
6
CONTINUOUS
10
0.6648190157480315
20
0.180883188976378
11
0.6647440944881889
21
0.181259842519685
0
LINE
8
BLACK
6
CONTINUOUS
10
0.6647440944881889
20
0.181259842519685
11
0.6647440944881889
21
0.238740157480315
0
LINE
8
BLACK
6
CONTINUOUS
10
0.6647440944881889
20
0.238740157480315
11
0.6648190157480315
21
0.239116811023622
0
LINE
8
BLACK
6
CONTINUOUS
10
0.6648190157480315
20
0.239116811023622
11
0.6653516929133858
21
0.2396494881889764
0
LINE
8
BLACK
6
CONTINUOUS
10
0.6653516929133858
20
0.2396494881889764
11
0.6657283464566929
21
0.2397244094488189
0
LINE
8
BLACK
6
CONTINUOUS
10
0.6657283464566929
20
0.2397244094488189
11
0.782263779527559
21
0.2397244094488189
0
LINE
8
BLACK
6
CONTINUOUS
10
0.782263779527559
20
0.2397244094488189
11
0.7826404330708662
21
0.2396494881889764
0
LINE
8
BLACK
6
CONTINUOUS
10
0.6667125984251968
20
0.237755905511811
11
0.6667125984251968
21
0.182244094488189
0
LINE
8
BLACK
6
CONTINUOUS
10
0.6667125984251968
20
0.182244094488189
11
0.7812795275590551
21
0.182244094488189
0
LINE
8
BLACK
6
CONTINUOUS
10
0.7812795275590551
20
0.182244094488189
11
0.7812795275590551
21
0.237755905511811
0
LINE
8
BLACK
6
CONTINUOUS
10
0.7812795275590551
20
0.237755905511811
11
0.6667125984251968
21
0.237755905511811
0
LINE
8
BLACK
6
CONTINUOUS
10
1.0909278346456692
20
0.3631140551181102
11
1.0914605118110237
21
0.3625813779527559
0
LINE
8
BLACK
6
CONTINUOUS
10
1.0914605118110237
20
0.3625813779527559
11
1.0915354330708662
21
0.3622047244094488
0
LINE
8
BLACK
6
CONTINUOUS
10
1.0915354330708662
20
0.3622047244094488
11
1.0915354330708662
21
0.2283464566929134
0
LINE
8
BLACK
6
CONTINUOUS
10
1.0915354330708662
20
0.2283464566929134
11
1.0914605118110237
21
0.2279698031496063
0
LINE
8
BLACK
6
CONTINUOUS
10
1.0914605118110237
20
0.2279698031496063
11
1.0909278346456692
21
0.227437125984252
0
LINE
8
BLACK
6
CONTINUOUS
10
1.0909278346456692
20
0.227437125984252
11
1.0905511811023623
21
0.2273622047244094
0
LINE
8
BLACK
6
CONTINUOUS
10
1.0905511811023623
20
0.2273622047244094
11
0.9724409448818897
21
0.2273622047244094
0
LINE
8
BLACK
6
CONTINUOUS
10
0.9724409448818897
20
0.2273622047244094
11
0.9720642913385826
21
0.227437125984252
0
LINE
8
BLACK
6
CONTINUOUS
10
0.9720642913385826
20
0.227437125984252
11
0.9715316141732283
21
0.2279698031496063
0
LINE
8
BLACK
6
CONTINUOUS
10
0.9715316141732283
20
0.2279698031496063
11
0.9714566929133858
21
0.2283464566929134
0
LINE
8
BLACK
6
CONTINUOUS
10
0.9714566929133858
20
0.2283464566929134
11
0.9714566929133858
21
0.3622047244094488
0
LINE
8
BLACK
6
CONTINUOUS
10
0.9714566929133858
20
0.3622047244094488
11
0.9715316141732283
21
0.3625813779527559
0
LINE
8
BLACK
6
CONTINUOUS
10
0.9715316141732283
20
0.3625813779527559
11
0.9720642913385826
21
0.3631140551181102
0
LINE
8
BLACK
6
CONTINUOUS
10
0.9720642913385826
20
0.3631140551181102
11
0.9724409448818897
21
0.3631889763779527
0
LINE
8
BLACK
6
CONTINUOUS
10
0.9724409448818897
20
0.3631889763779527
11
1.0905511811023623
21
0.3631889763779527
0
LINE
8
BLACK
6
CONTINUOUS
10
1.0905511811023623
20
0.3631889763779527
11
1.0909278346456692
21
0.3631140551181102
0
LINE
8
BLACK
6
CONTINUOUS
10
0.9734251968503936
20
0.3612204724409449
11
0.9734251968503936
21
0.2293307086614173
0
LINE
8
BLACK
6
CONTINUOUS
10
0.9734251968503936
20
0.2293307086614173
11
1.0895669291338583
21
0.2293307086614173
0
LINE
8
BLACK
6
CONTINUOUS
10
1.0895669291338583
20
0.2293307086614173
11
1.0895669291338583
21
0.3612204724409449
0
LINE
8
BLACK
6
CONTINUOUS
10
1.0895669291338583
20
0.3612204724409449
11
0.9734251968503936
21
0.3612204724409449
0
LINE
8
BLACK
6
CONTINUOUS
10
0.5368333464566929
20
0.4430353149606299
11
0.5373660236220472
21
0.4425026377952756
0
LINE
8
BLACK
6
CONTINUOUS
10
0.5373660236220472
20
0.4425026377952756
11
0.5374409448818898
21
0.4421259842519685
0
LINE
8
BLACK
6
CONTINUOUS
10
0.5374409448818898
20
0.4421259842519685
11
0.5374409448818898
21
0.3255905511811024
0
LINE
8
BLACK
6
CONTINUOUS
10
0.5374409448818898
20
0.3255905511811024
11
0.5373660236220472
21
0.3252138976377953
0
LINE
8
BLACK
6
CONTINUOUS
10
0.5373660236220472
20
0.3252138976377953
11
0.5368333464566929
21
0.3246812204724409
0
LINE
8
BLACK
6
CONTINUOUS
10
0.5368333464566929
20
0.3246812204724409
11
0.5364566929133858
21
0.3246062992125984
0
LINE
8
BLACK
6
CONTINUOUS
10
0.5364566929133858
20
0.3246062992125984
11
0.4789763779527559
21
0.3246062992125984
0
LINE
8
BLACK
6
CONTINUOUS
10
0.4789763779527559
20
0.3246062992125984
11
0.4785997244094488
21
0.3246812204724409
0
LINE
8
BLACK
6
CONTINUOUS
10
0.4785997244094488
20
0.3246812204724409
11
0.4780670472440945
21
0.3252138976377953
0
LINE
8
BLACK
6
CONTINUOUS
10
0.4780670472440945
20
0.3252138976377953
11
0.4779921259842519
21
0.3255905511811024
0
LINE
8
BLACK
6
CONTINUOUS
10
0.4779921259842519
20
0.3255905511811024
11
0.4779921259842519
21
0.4421259842519685
0
LINE
8
BLACK
6
CONTINUOUS
10
0.4779921259842519
20
0.4421259842519685
11
0.4780670472440945
21
0.4425026377952756
0
LINE
8
BLACK
6
CONTINUOUS
10
0.4780670472440945
20
0.4425026377952756
11
0.4785997244094488
21
0.4430353149606299
0
LINE
8
BLACK
6
CONTINUOUS
10
0.4785997244094488
20
0.4430353149606299
11
0.4789763779527559
21
0.4431102362204724
0
LINE
8
BLACK
6
CONTINUOUS
10
0.4789763779527559
20
0.4431102362204724
11
0.5364566929133858
21
0.4431102362204724
0
LINE
8
BLACK
6
CONTINUOUS
10
0.5364566929133858
20
0.4431102362204724
11
0.5368333464566929
21
0.4430353149606299
0
LINE
8
BLACK
6
CONTINUOUS
10
0.4799606299212598
20
0.4411417322834645
11
0.4799606299212598
21
0.3265748031496063
0
LINE
8
BLACK
6
CONTINUOUS
10
0.4799606299212598
20
0.3265748031496063
11
0.5354724409448819
21
0.3265748031496063
0
LINE
8
BLACK
6
CONTINUOUS
10
0.5354724409448819
20
0.3265748031496063
11
0.5354724409448819
21
0.4411417322834645
0
LINE
8
BLACK
6
CONTINUOUS
10
0.5354724409448819
20
0.4411417322834645
11
0.4799606299212598
21
0.4411417322834645
0
LINE
8
BLACK
6
CONTINUOUS
10
0.3212821653543307
20
0.4469723228346457
11
0.321814842519685
21
0.4464396456692913
0
LINE
8
BLACK
6
CONTINUOUS
10
0.321814842519685
20
0.4464396456692913
11
0.3218897637795275
21
0.4460629921259842
0
LINE
8
BLACK
6
CONTINUOUS
10
0.3218897637795275
20
0.4460629921259842
11
0.3218897637795275
21
0.3295275590551181
0
LINE
8
BLACK
6
CONTINUOUS
10
0.3218897637795275
20
0.3295275590551181
11
0.321814842519685
21
0.329150905511811
0
LINE
8
BLACK
6
CONTINUOUS
10
0.321814842519685
20
0.329150905511811
11
0.3212821653543307
21
0.3286182283464567
0
LINE
8
BLACK
6
CONTINUOUS
10
0.3212821653543307
20
0.3286182283464567
11
0.3209055118110236
21
0.3285433070866142
0
LINE
8
BLACK
6
CONTINUOUS
10
0.3209055118110236
20
0.3285433070866142
11
0.2634251968503937
21
0.3285433070866142
0
LINE
8
BLACK
6
CONTINUOUS
10
0.2634251968503937
20
0.3285433070866142
11
0.2630485433070866
21
0.3286182283464567
0
LINE
8
BLACK
6
CONTINUOUS
10
0.2630485433070866
20
0.3286182283464567
11
0.2625158661417323
21
0.329150905511811
0
LINE
8
BLACK
6
CONTINUOUS
10
0.2625158661417323
20
0.329150905511811
11
0.2624409448818897
21
0.3295275590551181
0
LINE
8
BLACK
6
CONTINUOUS
10
0.2624409448818897
20
0.3295275590551181
11
0.2624409448818897
21
0.4460629921259842
0
LINE
8
BLACK
6
CONTINUOUS
10
0.2624409448818897
20
0.4460629921259842
11
0.2625158661417323
21
0.4464396456692913
0
LINE
8
BLACK
6
CONTINUOUS
10
0.2625158661417323
20
0.4464396456692913
11
0.2630485433070866
21
0.4469723228346457
0
LINE
8
BLACK
6
CONTINUOUS
10
0.2630485433070866
20
0.4469723228346457
11
0.2634251968503937
21
0.4470472440944882
0
LINE
8
BLACK
6
CONTINUOUS
10
0.2634251968503937
20
0.4470472440944882
11
0.3209055118110236
21
0.4470472440944882
0
LINE
8
BLACK
6
CONTINUOUS
10
0.3209055118110236
20
0.4470472440944882
11
0.3212821653543307
21
0.4469723228346457
0
LINE
8
BLACK
6
CONTINUOUS
10
0.2644094488188976
20
0.4450787401574803
11
0.2644094488188976
21
0.330511811023622
0
LINE
8
BLACK
6
CONTINUOUS
10
0.2644094488188976
20
0.330511811023622
11
0.3199212598425197
21
0.330511811023622
0
LINE
8
BLACK
6
CONTINUOUS
10
0.3199212598425197
20
0.330511811023622
11
0.3199212598425197
21
0.4450787401574803
0
LINE
8
BLACK
6
CONTINUOUS
10
0.3199212598425197
20
0.4450787401574803
11
0.2644094488188976
21
0.4450787401574803
0
LINE
8
BLACK
6
CONTINUOUS
10
0.3850616929133858
20
0.4349644488188976
11
0.3855943700787401
21
0.4344317716535433
0
LINE
8
BLACK
6
CONTINUOUS
10
0.3855943700787401
20
0.4344317716535433
11
0.3856692913385827
21
0.4340551181102362
0
LINE
8
BLACK
6
CONTINUOUS
10
0.3856692913385827
20
0.4340551181102362
11
0.3856692913385827
21
0.3356299212598425
0
LINE
8
BLACK
6
CONTINUOUS
10
0.3856692913385827
20
0.3356299212598425
11
0.3855943700787401
21
0.3352532677165354
0
LINE
8
BLACK
6
CONTINUOUS
10
0.3855943700787401
20
0.3352532677165354
11
0.3850616929133858
21
0.3347205905511811
0
LINE
8
BLACK
6
CONTINUOUS
10
0.3850616929133858
20
0.3347205905511811
11
0.3846850393700788
21
0.3346456692913386
0
LINE
8
BLACK
6
CONTINUOUS
10
0.3846850393700788
20
0.3346456692913386
11
0.3295669291338583
21
0.3346456692913386
0
LINE
8
BLACK
6
CONTINUOUS
10
0.3295669291338583
20
0.3346456692913386
11
0.3291902755905512
21
0.3347205905511811
0
LINE
8
BLACK
6
CONTINUOUS
10
0.3291902755905512
20
0.3347205905511811
11
0.3286575984251968
21
0.3352532677165354
0
LINE
8
BLACK
6
CONTINUOUS
10
0.3286575984251968
20
0.3352532677165354
11
0.3285826771653543
21
0.3356299212598425
0
LINE
8
BLACK
6
CONTINUOUS
10
0.3285826771653543
20
0.3356299212598425
11
0.3285826771653543
21
0.4340551181102362
0
LINE
8
BLACK
6
CONTINUOUS
10
0.3285826771653543
20
0.4340551181102362
11
0.3286575984251968
21
0.4344317716535433
0
LINE
8
BLACK
6
CONTINUOUS
10
0.3286575984251968
20
0.4344317716535433
11
0.3291902755905512
21
0.4349644488188976
0
LINE
8
BLACK
6
CONTINUOUS
10
0.3291902755905512
20
0.4349644488188976
11
0.3295669291338583
21
0.4350393700787402
0
LINE
8
BLACK
6
CONTINUOUS
10
0.3295669291338583
20
0.4350393700787402
11
0.3846850393700788
21
0.4350393700787402
0
LINE
8
BLACK
6
CONTINUOUS
10
0.3846850393700788
20
0.4350393700787402
11
0.3850616929133858
21
0.4349644488188976
0
LINE
8
BLACK
6
CONTINUOUS
10
0.3305511811023622
20
0.4330708661417323
11
0.3305511811023622
21
0.3366141732283465
0
LINE
8
BLACK
6
CONTINUOUS
10
0.3305511811023622
20
0.3366141732283465
11
0.3837007874015748
21
0.3366141732283465
0
LINE
8
BLACK
6
CONTINUOUS
10
0.3837007874015748
20
0.3366141732283465
11
0.3837007874015748
21
0.4330708661417323
0
LINE
8
BLACK
6
CONTINUOUS
10
0.3837007874015748
20
0.4330708661417323
11
0.3305511811023622
21
0.4330708661417323
0
LINE
8
BLACK
6
CONTINUOUS
10
0.6391168110236221
20
0.4631731102362205
11
0.6396494881889764
21
0.4626404330708661
0
LINE
8
BLACK
6
CONTINUOUS
10
0.6396494881889764
20
0.4626404330708661
11
0.6397244094488189
21
0.462263779527559
0
LINE
8
BLACK
6
CONTINUOUS
10
0.6397244094488189
20
0.462263779527559
11
0.6397244094488189
21
0.3457283464566929
0
LINE
8
BLACK
6
CONTINUOUS
10
0.6397244094488189
20
0.3457283464566929
11
0.6396494881889764
21
0.3453516929133858
0
LINE
8
BLACK
6
CONTINUOUS
10
0.6396494881889764
20
0.3453516929133858
11
0.6391168110236221
21
0.3448190157480315
0
LINE
8
BLACK
6
CONTINUOUS
10
0.6391168110236221
20
0.3448190157480315
11
0.638740157480315
21
0.344744094488189
0
LINE
8
BLACK
6
CONTINUOUS
10
0.638740157480315
20
0.344744094488189
11
0.581259842519685
21
0.344744094488189
0
LINE
8
BLACK
6
CONTINUOUS
10
0.581259842519685
20
0.344744094488189
11
0.5808831889763779
21
0.3448190157480315
0
LINE
8
BLACK
6
CONTINUOUS
10
0.5808831889763779
20
0.3448190157480315
11
0.5803505118110236
21
0.3453516929133858
0
LINE
8
BLACK
6
CONTINUOUS
10
0.5803505118110236
20
0.3453516929133858
11
0.5802755905511811
21
0.3457283464566929
0
LINE
8
BLACK
6
CONTINUOUS
10
0.5802755905511811
20
0.3457283464566929
11
0.5802755905511811
21
0.462263779527559
0
LINE
8
BLACK
6
CONTINUOUS
10
0.5802755905511811
20
0.462263779527559
11
0.5803505118110236
21
0.4626404330708661
0
LINE
8
BLACK
6
CONTINUOUS
10
0.5803505118110236
20
0.4626404330708661
11
0.5808831889763779
21
0.4631731102362205
0
LINE
8
BLACK
6
CONTINUOUS
10
0.5808831889763779
20
0.4631731102362205
11
0.581259842519685
21
0.463248031496063
0
LINE
8
BLACK
6
CONTINUOUS
10
0.581259842519685
20
0.463248031496063
11
0.638740157480315
21
0.463248031496063
0
LINE
8
BLACK
6
CONTINUOUS
10
0.638740157480315
20
0.463248031496063
11
0.6391168110236221
21
0.4631731102362205
0
LINE
8
BLACK
6
CONTINUOUS
10
0.5822440944881889
20
0.4612795275590551
11
0.5822440944881889
21
0.3467125984251969
0
LINE
8
BLACK
6
CONTINUOUS
10
0.5822440944881889
20
0.3467125984251969
11
0.637755905511811
21
0.3467125984251969
0
LINE
8
BLACK
6
CONTINUOUS
10
0.637755905511811
20
0.3467125984251969
11
0.637755905511811
21
0.4612795275590551
0
LINE
8
BLACK
6
CONTINUOUS
10
0.637755905511811
20
0.4612795275590551
11
0.5822440944881889
21
0.4612795275590551
0
LINE
8
BLACK
6
CONTINUOUS
10
0.729116811023622
20
0.4641770472440945
11
0.7296494881889763
21
0.4636443700787402
0
LINE
8
BLACK
6
CONTINUOUS
10
0.7296494881889763
20
0.4636443700787402
11
0.7297244094488189
21
0.4632677165354331
0
LINE
8
BLACK
6
CONTINUOUS
10
0.7297244094488189
20
0.4632677165354331
11
0.7297244094488189
21
0.3467322834645669
0
LINE
8
BLACK
6
CONTINUOUS
10
0.7297244094488189
20
0.3467322834645669
11
0.7296494881889763
21
0.3463556299212598
0
LINE
8
BLACK
6
CONTINUOUS
10
0.7296494881889763
20
0.3463556299212598
11
0.729116811023622
21
0.3458229527559055
0
LINE
8
BLACK
6
CONTINUOUS
10
0.729116811023622
20
0.3458229527559055
11
0.728740157480315
21
0.345748031496063
0
LINE
8
BLACK
6
CONTINUOUS
10
0.728740157480315
20
0.345748031496063
11
0.6712598425196851
21
0.345748031496063
0
LINE
8
BLACK
6
CONTINUOUS
10
0.6712598425196851
20
0.345748031496063
11
0.6708831889763779
21
0.3458229527559055
0
LINE
8
BLACK
6
CONTINUOUS
10
0.6708831889763779
20
0.3458229527559055
11
0.6703505118110236
21
0.3463556299212598
0
LINE
8
BLACK
6
CONTINUOUS
10
0.6703505118110236
20
0.3463556299212598
11
0.6702755905511811
21
0.3467322834645669
0
LINE
8
BLACK
6
CONTINUOUS
10
0.6702755905511811
20
0.3467322834645669
11
0.6702755905511811
21
0.4632677165354331
0
LINE
8
BLACK
6
CONTINUOUS
10
0.6702755905511811
20
0.4632677165354331
11
0.6703505118110236
21
0.4636443700787402
0
LINE
8
BLACK
6
CONTINUOUS
10
0.6703505118110236
20
0.4636443700787402
11
0.6708831889763779
21
0.4641770472440945
0
LINE
8
BLACK
6
CONTINUOUS
10
0.6708831889763779
20
0.4641770472440945
11
0.6712598425196851
21
0.464251968503937
0
LINE
8
BLACK
6
CONTINUOUS
10
0.6712598425196851
20
0.464251968503937
11
0.728740157480315
21
0.464251968503937
0
LINE
8
BLACK
6
CONTINUOUS
10
0.728740157480315
20
0.464251968503937
11
0.729116811023622
21
0.4641770472440945
0
LINE
8
BLACK
6
CONTINUOUS
10
0.672244094488189
20
0.4622834645669291
11
0.672244094488189
21
0.3477165354330709
0
LINE
8
BLACK
6
CONTINUOUS
10
0.672244094488189
20
0.3477165354330709
11
0.727755905511811
21
0.3477165354330709
0
LINE
8
BLACK
6
CONTINUOUS
10
0.727755905511811
20
0.3477165354330709
11
0.727755905511811
21
0.4622834645669291
0
LINE
8
BLACK
6
CONTINUOUS
10
0.727755905511811
20
0.4622834645669291
11
0.672244094488189
21
0.4622834645669291
0
LINE
8
BLACK
6
CONTINUOUS
10
1.0901404330708662
20
0.4861061811023622
11
1.0906731102362204
21
0.4855735039370079
0
LINE
8
BLACK
6
CONTINUOUS
10
1.0906731102362204
20
0.4855735039370079
11
1.0907480314960629
21
0.4851968503937008
0
LINE
8
BLACK
6
CONTINUOUS
10
1.0907480314960629
20
0.4851968503937008
11
1.0907480314960629
21
0.4277165354330709
0
LINE
8
BLACK
6
CONTINUOUS
10
1.0907480314960629
20
0.4277165354330709
11
1.0906731102362204
21
0.4273398818897638
0
LINE
8
BLACK
6
CONTINUOUS
10
1.0906731102362204
20
0.4273398818897638
11
1.0901404330708662
21
0.4268072047244094
0
LINE
8
BLACK
6
CONTINUOUS
10
1.0901404330708662
20
0.4268072047244094
11
1.089763779527559
21
0.4267322834645669
0
LINE
8
BLACK
6
CONTINUOUS
10
1.089763779527559
20
0.4267322834645669
11
0.9732283464566929
21
0.4267322834645669
0
LINE
8
BLACK
6
CONTINUOUS
10
0.9732283464566929
20
0.4267322834645669
11
0.9728516929133858
21
0.4268072047244094
0
LINE
8
BLACK
6
CONTINUOUS
10
0.9728516929133858
20
0.4268072047244094
11
0.9723190157480315
21
0.4273398818897638
0
LINE
8
BLACK
6
CONTINUOUS
10
0.9723190157480315
20
0.4273398818897638
11
0.9722440944881889
21
0.4277165354330709
0
LINE
8
BLACK
6
CONTINUOUS
10
0.9722440944881889
20
0.4277165354330709
11
0.9722440944881889
21
0.4851968503937008
0
LINE
8
BLACK
6
CONTINUOUS
10
0.9722440944881889
20
0.4851968503937008
11
0.9723190157480315
21
0.4855735039370079
0
LINE
8
BLACK
6
CONTINUOUS
10
0.9723190157480315
20
0.4855735039370079
11
0.9728516929133858
21
0.4861061811023622
0
LINE
8
BLACK
6
CONTINUOUS
10
0.9728516929133858
20
0.4861061811023622
11
0.9732283464566929
21
0.4861811023622047
0
LINE
8
BLACK
6
CONTINUOUS
10
0.9732283464566929
20
0.4861811023622047
11
1.089763779527559
21
0.4861811023622047
0
LINE
8
BLACK
6
CONTINUOUS
10
1.089763779527559
20
0.4861811023622047
11
1.0901404330708662
21
0.4861061811023622
0
LINE
8
BLACK
6
CONTINUOUS
10
0.9742125984251968
20
0.4842125984251968
11
0.9742125984251968
21
0.4287007874015748
0
LINE
8
BLACK
6
CONTINUOUS
10
0.9742125984251968
20
0.4287007874015748
11
1.088779527559055
21
0.4287007874015748
0
LINE
8
BLACK
6
CONTINUOUS
10
1.088779527559055
20
0.4287007874015748
11
1.088779527559055
21
0.4842125984251968
0
LINE
8
BLACK
6
CONTINUOUS
10
1.088779527559055
20
0.4842125984251968
11
0.9742125984251968
21
0.4842125984251968
0
CIRCLE
8
BLACK
10
0.945
20
0.517
40
0.0068897637795276
0
CIRCLE
8
BLACK
10
0.4921259842519685
20
0.5905511811023622
40
0.0068897637795276
0
CIRCLE
8
BLACK
10
0.8533464566929133
20
0.344488188976378
40
0.0068897637795276
0
CIRCLE
8
BLACK
10
0.4921259842519685
20
0.
40
0.0068897637795276
0
CIRCLE
8
BLACK
10
0.8533464566929133
20
0.2460629921259843
40
0.0068897637795276
0
CIRCLE
8
BLACK
10
0.945
20
0.0735511811023622
40
0.0068897637795276
0
CIRCLE
8
BLACK
10
0.8533464566929133
20
0.4232283464566929
40
0.0068897637795276
0
CIRCLE
8
BLACK
10
0.0984251968503937
20
0.5905511811023622
40
0.0068897637795276
0
CIRCLE
8
BLACK
10
0.8858267716535433
20
0.
40
0.0068897637795276
0
CIRCLE
8
BLACK
10
0.8986220472440944
20
0.4735511811023622
40
0.0068897637795276
0
CIRCLE
8
BLACK
10
0.8858267716535433
20
0.5905511811023622
40
0.0068897637795276
0
CIRCLE
8
BLACK
10
0.0984251968503937
20
0.
40
0.0068897637795276
0
CIRCLE
8
BLACK
10
0.898
20
0.117
40
0.0068897637795276
0
CIRCLE
8
BLACK
10
0.8533464566929133
20
0.1673228346456693
40
0.0068897637795276
0
CIRCLE
8
BLACK
10
1.1318897637795275
20
0.1948818897637795
40
0.0068897637795276
0
CIRCLE
8
BLACK
10
1.1318897637795275
20
0.3956692913385826
40
0.0068897637795276
0
CIRCLE
8
BLACK
10
0.9311023622047244
20
0.1948818897637795
40
0.0068897637795276
0
CIRCLE
8
BLACK
10
0.9311023622047244
20
0.3956692913385826
40
0.0068897637795276
  0
ENDSEC
  0
EOF
