  0
SECTION
  2
HEADER
  9
$ANGBASE
  50
0.0
  9
$ANGDIR
  70
1
  9
$MEASUREMENT
  70
0
  0
ENDSEC
  0
SECTION
  2
TABLES
  0
TABLE
  2
LTYPE
  70
4
  0
LTYPE
  5
40F
  2
CONTINUOUS
  70
0
  3
Solid line
  72
65
  73
0
  40
0.0
  0
LTYPE
  5
410
  2
DASHDOT
 70
0
  3
Dash Dot ____ _ ____ _
 72
65
 73
4
 40
2.0
 49
1.25
 49
-0.25
 49
0.25
 49
-0.25
  0
LTYPE
  5
411
  2
DASHED
 70
0
  3
Dashed __ __ __ __ __
 72
65
 73
2
 40
0.75
 49
0.5
 49
-0.25
  0
LTYPE
  5
43B
  2
DOTTED
 70
0
  3
Dotted .  .  .  .
 72
65
 73
2
 40
0.2
 49
0.0
 49
-0.2
  0
ENDTAB
  0
TABLE
  2
STYLE
  70
4
  0
STYLE
  2
KICAD
  70
0
  40
0
  41
1
  42
1
  50
0
  71
0
  3
isocp.shx
  0
STYLE
  2
KICADB
  70
0
  40
0
  41
1
  42
1
  50
0
  71
0
  3
isocp.shx
  0
STYLE
  2
KICADI
  70
0
  40
0
  41
1
  42
1
  50
15
  71
0
  3
isocp.shx
  0
STYLE
  2
KICADBI
  70
0
  40
0
  41
1
  42
1
  50
15
  71
0
  3
isocp.shx
  0
ENDTAB
  0
TABLE
  2
LAYER
  70
1
  0
LAYER
  2
BLACK
  70
0
  62
7
  6
CONTINUOUS
  0
ENDTAB
  0
ENDSEC
  0
SECTION
  2
ENTITIES
0
LINE
8
BLACK
6
CONTINUOUS
10
1.346517874015748
20
0.5923698425196851
11
1.3475832283464566
21
0.5913044881889764
0
LINE
8
BLACK
6
CONTINUOUS
10
1.3475832283464566
20
0.5913044881889764
11
1.3475832283464566
21
0.589797874015748
0
LINE
8
BLACK
6
CONTINUOUS
10
1.3475832283464566
20
0.589797874015748
11
1.346517874015748
21
0.5887325196850394
0
LINE
8
BLACK
6
CONTINUOUS
10
1.346517874015748
20
0.5887325196850394
11
1.3457645669291338
21
0.5885826771653543
0
LINE
8
BLACK
6
CONTINUOUS
10
1.3457645669291338
20
0.5885826771653543
11
1.3259211811023621
21
0.5885826771653543
0
LINE
8
BLACK
6
CONTINUOUS
10
1.3259211811023621
20
0.5885826771653543
11
1.3475106692913386
21
0.5471096062992126
0
LINE
8
BLACK
6
CONTINUOUS
10
1.3475106692913386
20
0.5471096062992126
11
1.3477256299212599
21
0.5463722047244094
0
LINE
8
BLACK
6
CONTINUOUS
10
1.3477256299212599
20
0.5463722047244094
11
1.347272559055118
21
0.5449353149606299
0
LINE
8
BLACK
6
CONTINUOUS
10
1.347272559055118
20
0.5449353149606299
11
1.3459361811023622
21
0.5442396456692913
0
LINE
8
BLACK
6
CONTINUOUS
10
1.3459361811023622
20
0.5442396456692913
11
1.344499251968504
21
0.5446926771653543
0
LINE
8
BLACK
6
CONTINUOUS
10
1.344499251968504
20
0.5446926771653543
11
1.3440185039370078
21
0.5452916929133859
0
LINE
8
BLACK
6
CONTINUOUS
10
1.3440185039370078
20
0.5452916929133859
11
1.3246456692913386
21
0.5825065748031496
0
LINE
8
BLACK
6
CONTINUOUS
10
1.3246456692913386
20
0.5825065748031496
11
1.3246456692913386
21
0.0080446456692913
0
LINE
8
BLACK
6
CONTINUOUS
10
1.3246456692913386
20
0.0080446456692913
11
1.3440185039370078
21
0.0452594881889764
0
LINE
8
BLACK
6
CONTINUOUS
10
1.3440185039370078
20
0.0452594881889764
11
1.344499251968504
21
0.0458585039370079
0
LINE
8
BLACK
6
CONTINUOUS
10
1.344499251968504
20
0.0458585039370079
11
1.3459361811023622
21
0.0463115354330709
0
LINE
8
BLACK
6
CONTINUOUS
10
1.3459361811023622
20
0.0463115354330709
11
1.347272559055118
21
0.0456158661417323
0
LINE
8
BLACK
6
CONTINUOUS
10
1.347272559055118
20
0.0456158661417323
11
1.3477256299212599
21
0.0441789763779528
0
LINE
8
BLACK
6
CONTINUOUS
10
1.3477256299212599
20
0.0441789763779528
11
1.3475106692913386
21
0.0434415748031496
0
LINE
8
BLACK
6
CONTINUOUS
10
1.3475106692913386
20
0.0434415748031496
11
1.3259211811023621
21
0.0019685039370079
0
LINE
8
BLACK
6
CONTINUOUS
10
1.3259211811023621
20
0.0019685039370079
11
1.3457645669291338
21
0.0019685039370079
0
LINE
8
BLACK
6
CONTINUOUS
10
1.3457645669291338
20
0.0019685039370079
11
1.346517874015748
21
0.0018186614173228
0
LINE
8
BLACK
6
CONTINUOUS
10
1.346517874015748
20
0.0018186614173228
11
1.3475832283464566
21
0.0007533070866142
0
LINE
8
BLACK
6
CONTINUOUS
10
1.3475832283464566
20
0.0007533070866142
11
1.3475832283464566
21
-0.0007533070866142
0
LINE
8
BLACK
6
CONTINUOUS
10
1.3475832283464566
20
-0.0007533070866142
11
1.346517874015748
21
-0.0018186614173228
0
LINE
8
BLACK
6
CONTINUOUS
10
1.346517874015748
20
-0.0018186614173228
11
1.3457645669291338
21
-0.0019685039370079
0
LINE
8
BLACK
6
CONTINUOUS
10
1.3457645669291338
20
-0.0019685039370079
11
1.200787401574803
21
-0.0019685039370079
0
LINE
8
BLACK
6
CONTINUOUS
10
1.200787401574803
20
-0.0019685039370079
11
1.2000340944881889
21
-0.0018186614173228
0
LINE
8
BLACK
6
CONTINUOUS
10
1.2000340944881889
20
-0.0018186614173228
11
1.1989687401574802
21
-0.0007533070866142
0
LINE
8
BLACK
6
CONTINUOUS
10
1.1989687401574802
20
-0.0007533070866142
11
1.1989687401574802
21
0.0007533070866142
0
LINE
8
BLACK
6
CONTINUOUS
10
1.1989687401574802
20
0.0007533070866142
11
1.2000340944881889
21
0.0018186614173228
0
LINE
8
BLACK
6
CONTINUOUS
10
1.2000340944881889
20
0.0018186614173228
11
1.200787401574803
21
0.0019685039370079
0
LINE
8
BLACK
6
CONTINUOUS
10
1.200787401574803
20
0.0019685039370079
11
1.3194331496062992
21
0.0019685039370079
0
LINE
8
BLACK
6
CONTINUOUS
10
1.3194331496062992
20
0.0019685039370079
11
1.297843622047244
21
0.0434416141732283
0
LINE
8
BLACK
6
CONTINUOUS
10
1.297843622047244
20
0.0434416141732283
11
1.2976287007874014
21
0.0441789763779528
0
LINE
8
BLACK
6
CONTINUOUS
10
1.2976287007874014
20
0.0441789763779528
11
1.2980817716535433
21
0.0456158661417323
0
LINE
8
BLACK
6
CONTINUOUS
10
1.2980817716535433
20
0.0456158661417323
11
1.2994181496062991
21
0.0463115748031496
0
LINE
8
BLACK
6
CONTINUOUS
10
1.2994181496062991
20
0.0463115748031496
11
1.3008550393700786
21
0.0458585039370079
0
LINE
8
BLACK
6
CONTINUOUS
10
1.3008550393700786
20
0.0458585039370079
11
1.3013358267716535
21
0.0452594881889764
0
LINE
8
BLACK
6
CONTINUOUS
10
1.3013358267716535
20
0.0452594881889764
11
1.3207086614173229
21
0.0080446062992126
0
LINE
8
BLACK
6
CONTINUOUS
10
1.3207086614173229
20
0.0080446062992126
11
1.3207086614173229
21
0.5825066141732284
0
LINE
8
BLACK
6
CONTINUOUS
10
1.3207086614173229
20
0.5825066141732284
11
1.3013358267716535
21
0.5452916929133859
0
LINE
8
BLACK
6
CONTINUOUS
10
1.3013358267716535
20
0.5452916929133859
11
1.3008550393700786
21
0.5446926771653543
0
LINE
8
BLACK
6
CONTINUOUS
10
1.3008550393700786
20
0.5446926771653543
11
1.2994181496062991
21
0.5442396062992126
0
LINE
8
BLACK
6
CONTINUOUS
10
1.2994181496062991
20
0.5442396062992126
11
1.2980817716535433
21
0.5449353149606299
0
LINE
8
BLACK
6
CONTINUOUS
10
1.2980817716535433
20
0.5449353149606299
11
1.2976287007874014
21
0.5463722047244094
0
LINE
8
BLACK
6
CONTINUOUS
10
1.2976287007874014
20
0.5463722047244094
11
1.297843622047244
21
0.5471095669291338
0
LINE
8
BLACK
6
CONTINUOUS
10
1.297843622047244
20
0.5471095669291338
11
1.3194331496062992
21
0.5885826771653543
0
LINE
8
BLACK
6
CONTINUOUS
10
1.3194331496062992
20
0.5885826771653543
11
1.200787401574803
21
0.5885826771653543
0
LINE
8
BLACK
6
CONTINUOUS
10
1.200787401574803
20
0.5885826771653543
11
1.2000340944881889
21
0.5887325196850394
0
LINE
8
BLACK
6
CONTINUOUS
10
1.2000340944881889
20
0.5887325196850394
11
1.1989687401574802
21
0.589797874015748
0
LINE
8
BLACK
6
CONTINUOUS
10
1.1989687401574802
20
0.589797874015748
11
1.1989687401574802
21
0.5913044881889764
0
LINE
8
BLACK
6
CONTINUOUS
10
1.1989687401574802
20
0.5913044881889764
11
1.2000340944881889
21
0.5923698425196851
0
LINE
8
BLACK
6
CONTINUOUS
10
1.2000340944881889
20
0.5923698425196851
11
1.200787401574803
21
0.59251968503937
0
LINE
8
BLACK
6
CONTINUOUS
10
1.200787401574803
20
0.59251968503937
11
1.3457645669291338
21
0.59251968503937
0
LINE
8
BLACK
6
CONTINUOUS
10
1.3457645669291338
20
0.59251968503937
11
1.346517874015748
21
0.5923698425196851
0
LINE
8
BLACK
6
CONTINUOUS
10
1.2969483070866141
20
0.1946186220472441
11
1.2977629527559056
21
0.1938039763779527
0
LINE
8
BLACK
6
CONTINUOUS
10
1.2977629527559056
20
0.1938039763779527
11
1.2982038582677164
21
0.1927395669291339
0
LINE
8
BLACK
6
CONTINUOUS
10
1.2982038582677164
20
0.1927395669291339
11
1.298260590551181
21
0.1921635039370079
0
LINE
8
BLACK
6
CONTINUOUS
10
1.298260590551181
20
0.1921635039370079
11
1.298260590551181
21
0.1696663385826772
0
LINE
8
BLACK
6
CONTINUOUS
10
1.298260590551181
20
0.1696663385826772
11
1.2982038582677164
21
0.1690902755905512
0
LINE
8
BLACK
6
CONTINUOUS
10
1.2982038582677164
20
0.1690902755905512
11
1.2977629527559056
21
0.1680258661417323
0
LINE
8
BLACK
6
CONTINUOUS
10
1.2977629527559056
20
0.1680258661417323
11
1.2969483070866141
21
0.1672112204724409
0
LINE
8
BLACK
6
CONTINUOUS
10
1.2969483070866141
20
0.1672112204724409
11
1.2958838976377953
21
0.1667703149606299
0
LINE
8
BLACK
6
CONTINUOUS
10
1.2958838976377953
20
0.1667703149606299
11
1.2947317716535434
21
0.1667703149606299
0
LINE
8
BLACK
6
CONTINUOUS
10
1.2947317716535434
20
0.1667703149606299
11
1.2936673622047243
21
0.1672112204724409
0
LINE
8
BLACK
6
CONTINUOUS
10
1.2936673622047243
20
0.1672112204724409
11
1.2928527165354331
21
0.1680258661417323
0
LINE
8
BLACK
6
CONTINUOUS
10
1.2928527165354331
20
0.1680258661417323
11
1.292411811023622
21
0.1690902755905512
0
LINE
8
BLACK
6
CONTINUOUS
10
1.292411811023622
20
0.1690902755905512
11
1.2923550787401574
21
0.1696663385826772
0
LINE
8
BLACK
6
CONTINUOUS
10
1.2923550787401574
20
0.1696663385826772
11
1.2923550787401574
21
0.1779621653543307
0
LINE
8
BLACK
6
CONTINUOUS
10
1.2923550787401574
20
0.1779621653543307
11
1.2649411023622048
21
0.1779621653543307
0
LINE
8
BLACK
6
CONTINUOUS
10
1.2649411023622048
20
0.1779621653543307
11
1.2673994881889763
21
0.1755037795275591
0
LINE
8
BLACK
6
CONTINUOUS
10
1.2673994881889763
20
0.1755037795275591
11
1.26758531496063
21
0.1752774015748031
0
LINE
8
BLACK
6
CONTINUOUS
10
1.26758531496063
20
0.1752774015748031
11
1.2676442519685038
21
0.1752262598425197
0
LINE
8
BLACK
6
CONTINUOUS
10
1.2676442519685038
20
0.1752262598425197
11
1.2677001181102361
21
0.1751375196850394
0
LINE
8
BLACK
6
CONTINUOUS
10
1.2677001181102361
20
0.1751375196850394
11
1.2677667322834645
21
0.1750563385826772
0
LINE
8
BLACK
6
CONTINUOUS
10
1.2677667322834645
20
0.1750563385826772
11
1.2677965748031497
21
0.1749842125984252
0
LINE
8
BLACK
6
CONTINUOUS
10
1.2677965748031497
20
0.1749842125984252
11
1.2679525984251969
21
0.1747363779527559
0
LINE
8
BLACK
6
CONTINUOUS
10
1.2679525984251969
20
0.1747363779527559
11
1.2698273622047245
21
0.1709868503937008
0
LINE
8
BLACK
6
CONTINUOUS
10
1.2698273622047245
20
0.1709868503937008
11
1.2700342519685039
21
0.1704462598425197
0
LINE
8
BLACK
6
CONTINUOUS
10
1.2700342519685039
20
0.1704462598425197
11
1.270115905511811
21
0.1692970472440945
0
LINE
8
BLACK
6
CONTINUOUS
10
1.270115905511811
20
0.1692970472440945
11
1.2697515748031496
21
0.1682040551181102
0
LINE
8
BLACK
6
CONTINUOUS
10
1.2697515748031496
20
0.1682040551181102
11
1.2689967322834645
21
0.1673337007874016
0
LINE
8
BLACK
6
CONTINUOUS
10
1.2689967322834645
20
0.1673337007874016
11
1.2679662204724409
21
0.1668184251968504
0
LINE
8
BLACK
6
CONTINUOUS
10
1.2679662204724409
20
0.1668184251968504
11
1.2668170078740157
21
0.1667367716535433
0
LINE
8
BLACK
6
CONTINUOUS
10
1.2668170078740157
20
0.1667367716535433
11
1.2657240551181101
21
0.1671011023622047
0
LINE
8
BLACK
6
CONTINUOUS
10
1.2657240551181101
20
0.1671011023622047
11
1.2648536614173229
21
0.1678559448818898
0
LINE
8
BLACK
6
CONTINUOUS
10
1.2648536614173229
20
0.1678559448818898
11
1.2645453149606298
21
0.1683458267716536
0
LINE
8
BLACK
6
CONTINUOUS
10
1.2645453149606298
20
0.1683458267716536
11
1.262884842519685
21
0.1716667716535433
0
LINE
8
BLACK
6
CONTINUOUS
10
1.262884842519685
20
0.1716667716535433
11
1.2596808661417322
21
0.174870748031496
0
LINE
8
BLACK
6
CONTINUOUS
10
1.2596808661417322
20
0.174870748031496
11
1.254299842519685
21
0.1784580708661417
0
LINE
8
BLACK
6
CONTINUOUS
10
1.254299842519685
20
0.1784580708661417
11
1.2542981496062993
21
0.1784594488188976
0
LINE
8
BLACK
6
CONTINUOUS
10
1.2542981496062993
20
0.1784594488188976
11
1.2542972834645669
21
0.1784598031496063
0
LINE
8
BLACK
6
CONTINUOUS
10
1.2542972834645669
20
0.1784598031496063
11
1.2542952362204725
21
0.1784618503937008
0
LINE
8
BLACK
6
CONTINUOUS
10
1.2542952362204725
20
0.1784618503937008
11
1.2538520078740156
21
0.178824842519685
0
LINE
8
BLACK
6
CONTINUOUS
10
1.2538520078740156
20
0.178824842519685
11
1.2536893307086614
21
0.1790677559055118
0
LINE
8
BLACK
6
CONTINUOUS
10
1.2536893307086614
20
0.1790677559055118
11
1.2534826377952755
21
0.1792744488188976
0
LINE
8
BLACK
6
CONTINUOUS
10
1.2534826377952755
20
0.1792744488188976
11
1.2533718897637796
21
0.1795417716535433
0
LINE
8
BLACK
6
CONTINUOUS
10
1.2533718897637796
20
0.1795417716535433
11
1.2532109448818898
21
0.179782125984252
0
LINE
8
BLACK
6
CONTINUOUS
10
1.2532109448818898
20
0.179782125984252
11
1.2531535826771654
21
0.1800687795275591
0
LINE
8
BLACK
6
CONTINUOUS
10
1.2531535826771654
20
0.1800687795275591
11
1.2530417322834646
21
0.1803388582677165
0
LINE
8
BLACK
6
CONTINUOUS
10
1.2530417322834646
20
0.1803388582677165
11
1.2530417322834646
21
0.1806281889763779
0
LINE
8
BLACK
6
CONTINUOUS
10
1.2530417322834646
20
0.1806281889763779
11
1.252985
21
0.1809118110236221
0
LINE
8
BLACK
6
CONTINUOUS
10
1.252985
20
0.1809118110236221
11
1.2530417322834646
21
0.1811986220472441
0
LINE
8
BLACK
6
CONTINUOUS
10
1.2530417322834646
20
0.1811986220472441
11
1.2530417322834646
21
0.1814909842519685
0
LINE
8
BLACK
6
CONTINUOUS
10
1.2530417322834646
20
0.1814909842519685
11
1.2531524409448818
21
0.1817582677165354
0
LINE
8
BLACK
6
CONTINUOUS
10
1.2531524409448818
20
0.1817582677165354
11
1.2532085826771653
21
0.1820420472440945
0
LINE
8
BLACK
6
CONTINUOUS
10
1.2532085826771653
20
0.1820420472440945
11
1.253370748031496
21
0.1822853149606299
0
LINE
8
BLACK
6
CONTINUOUS
10
1.253370748031496
20
0.1822853149606299
11
1.2534826377952755
21
0.1825553937007874
0
LINE
8
BLACK
6
CONTINUOUS
10
1.2534826377952755
20
0.1825553937007874
11
1.2536871653543307
21
0.1827599606299213
0
LINE
8
BLACK
6
CONTINUOUS
10
1.2536871653543307
20
0.1827599606299213
11
1.2538476771653544
21
0.1830006692913386
0
LINE
8
BLACK
6
CONTINUOUS
10
1.2538476771653544
20
0.1830006692913386
11
1.2540905511811022
21
0.1831633464566929
0
LINE
8
BLACK
6
CONTINUOUS
10
1.2540905511811022
20
0.1831633464566929
11
1.2542972834645669
21
0.1833700393700787
0
LINE
8
BLACK
6
CONTINUOUS
10
1.2542972834645669
20
0.1833700393700787
11
1.2545645669291339
21
0.1834807874015748
0
LINE
8
BLACK
6
CONTINUOUS
10
1.2545645669291339
20
0.1834807874015748
11
1.2548049606299212
21
0.1836417322834646
0
LINE
8
BLACK
6
CONTINUOUS
10
1.2548049606299212
20
0.1836417322834646
11
1.2550915748031495
21
0.183699094488189
0
LINE
8
BLACK
6
CONTINUOUS
10
1.2550915748031495
20
0.183699094488189
11
1.2553616929133857
21
0.1838109448818898
0
LINE
8
BLACK
6
CONTINUOUS
10
1.2553616929133857
20
0.1838109448818898
11
1.2559316141732284
21
0.1838670866141732
0
LINE
8
BLACK
6
CONTINUOUS
10
1.2559316141732284
20
0.1838670866141732
11
1.2559346456692912
21
0.1838676771653543
0
LINE
8
BLACK
6
CONTINUOUS
10
1.2559346456692912
20
0.1838676771653543
11
1.2559356692913386
21
0.1838674803149606
0
LINE
8
BLACK
6
CONTINUOUS
10
1.2559356692913386
20
0.1838674803149606
11
1.2559377559055118
21
0.1838676771653543
0
LINE
8
BLACK
6
CONTINUOUS
10
1.2559377559055118
20
0.1838676771653543
11
1.2923550787401574
21
0.1838676771653543
0
LINE
8
BLACK
6
CONTINUOUS
10
1.2923550787401574
20
0.1838676771653543
11
1.2923550787401574
21
0.1921635039370079
0
LINE
8
BLACK
6
CONTINUOUS
10
1.2923550787401574
20
0.1921635039370079
11
1.292411811023622
21
0.1927395669291339
0
LINE
8
BLACK
6
CONTINUOUS
10
1.292411811023622
20
0.1927395669291339
11
1.2928527165354331
21
0.1938039763779527
0
LINE
8
BLACK
6
CONTINUOUS
10
1.2928527165354331
20
0.1938039763779527
11
1.2936673622047243
21
0.1946186220472441
0
LINE
8
BLACK
6
CONTINUOUS
10
1.2936673622047243
20
0.1946186220472441
11
1.2947317716535434
21
0.1950595275590551
0
LINE
8
BLACK
6
CONTINUOUS
10
1.2947317716535434
20
0.1950595275590551
11
1.2958838976377953
21
0.1950595275590551
0
LINE
8
BLACK
6
CONTINUOUS
10
1.2958838976377953
20
0.1950595275590551
11
1.2969483070866141
21
0.1946186220472441
0
LINE
8
BLACK
6
CONTINUOUS
10
1.2883848031496064
20
0.232554842519685
11
1.2884827952755906
21
0.2325142519685039
0
LINE
8
BLACK
6
CONTINUOUS
10
1.2884827952755906
20
0.2325142519685039
11
1.288588622047244
21
0.2325067322834646
0
LINE
8
BLACK
6
CONTINUOUS
10
1.288588622047244
20
0.2325067322834646
11
1.2891292519685038
21
0.232299842519685
0
LINE
8
BLACK
6
CONTINUOUS
10
1.2891292519685038
20
0.232299842519685
11
1.2928787795275589
21
0.2304250787401575
0
LINE
8
BLACK
6
CONTINUOUS
10
1.2928787795275589
20
0.2304250787401575
11
1.293126653543307
21
0.2302690551181102
0
LINE
8
BLACK
6
CONTINUOUS
10
1.293126653543307
20
0.2302690551181102
11
1.2931987007874015
21
0.2302392125984252
0
LINE
8
BLACK
6
CONTINUOUS
10
1.2931987007874015
20
0.2302392125984252
11
1.2932797244094487
21
0.2301727165354331
0
LINE
8
BLACK
6
CONTINUOUS
10
1.2932797244094487
20
0.2301727165354331
11
1.2933686614173228
21
0.2301167322834645
0
LINE
8
BLACK
6
CONTINUOUS
10
1.2933686614173228
20
0.2301167322834645
11
1.2934198031496063
21
0.2300577559055118
0
LINE
8
BLACK
6
CONTINUOUS
10
1.2934198031496063
20
0.2300577559055118
11
1.2936461417322835
21
0.2298720078740157
0
LINE
8
BLACK
6
CONTINUOUS
10
1.2936461417322835
20
0.2298720078740157
11
1.2955209448818896
21
0.2279972440944882
0
LINE
8
BLACK
6
CONTINUOUS
10
1.2955209448818896
20
0.2279972440944882
11
1.2957066929133858
21
0.227770905511811
0
LINE
8
BLACK
6
CONTINUOUS
10
1.2957066929133858
20
0.227770905511811
11
1.2957657480314961
21
0.2277196850393701
0
LINE
8
BLACK
6
CONTINUOUS
10
1.2957657480314961
20
0.2277196850393701
11
1.2958217322834646
21
0.227630748031496
0
LINE
8
BLACK
6
CONTINUOUS
10
1.2958217322834646
20
0.227630748031496
11
1.295888188976378
21
0.2275497637795275
0
LINE
8
BLACK
6
CONTINUOUS
10
1.295888188976378
20
0.2275497637795275
11
1.2959179921259842
21
0.2274778346456693
0
LINE
8
BLACK
6
CONTINUOUS
10
1.2959179921259842
20
0.2274778346456693
11
1.296074094488189
21
0.2272298031496063
0
LINE
8
BLACK
6
CONTINUOUS
10
1.296074094488189
20
0.2272298031496063
11
1.2979488582677166
21
0.2234802755905512
0
LINE
8
BLACK
6
CONTINUOUS
10
1.2979488582677166
20
0.2234802755905512
11
1.298155748031496
21
0.2229396850393701
0
LINE
8
BLACK
6
CONTINUOUS
10
1.298155748031496
20
0.2229396850393701
11
1.2981632677165353
21
0.2228338188976378
0
LINE
8
BLACK
6
CONTINUOUS
10
1.2981632677165353
20
0.2228338188976378
11
1.2982038582677164
21
0.2227358267716535
0
LINE
8
BLACK
6
CONTINUOUS
10
1.2982038582677164
20
0.2227358267716535
11
1.298260590551181
21
0.2221597637795276
0
LINE
8
BLACK
6
CONTINUOUS
10
1.298260590551181
20
0.2221597637795276
11
1.298260590551181
21
0.2127859448818898
0
LINE
8
BLACK
6
CONTINUOUS
10
1.298260590551181
20
0.2127859448818898
11
1.2982038582677164
21
0.2122098818897638
0
LINE
8
BLACK
6
CONTINUOUS
10
1.2982038582677164
20
0.2122098818897638
11
1.2981632677165353
21
0.2121119291338583
0
LINE
8
BLACK
6
CONTINUOUS
10
1.2981632677165353
20
0.2121119291338583
11
1.298155748031496
21
0.2120060236220472
0
LINE
8
BLACK
6
CONTINUOUS
10
1.298155748031496
20
0.2120060236220472
11
1.2979488582677166
21
0.2114654330708661
0
LINE
8
BLACK
6
CONTINUOUS
10
1.2979488582677166
20
0.2114654330708661
11
1.296074094488189
21
0.207715905511811
0
LINE
8
BLACK
6
CONTINUOUS
10
1.296074094488189
20
0.207715905511811
11
1.2959179921259842
21
0.2074679133858268
0
LINE
8
BLACK
6
CONTINUOUS
10
1.2959179921259842
20
0.2074679133858268
11
1.295888188976378
21
0.2073959448818898
0
LINE
8
BLACK
6
CONTINUOUS
10
1.295888188976378
20
0.2073959448818898
11
1.2958217322834646
21
0.207315
0
LINE
8
BLACK
6
CONTINUOUS
10
1.2958217322834646
20
0.207315
11
1.2957657480314961
21
0.2072260236220472
0
LINE
8
BLACK
6
CONTINUOUS
10
1.2957657480314961
20
0.2072260236220472
11
1.2957066929133858
21
0.207174842519685
0
LINE
8
BLACK
6
CONTINUOUS
10
1.2957066929133858
20
0.207174842519685
11
1.2955209448818896
21
0.2069484645669291
0
LINE
8
BLACK
6
CONTINUOUS
10
1.2955209448818896
20
0.2069484645669291
11
1.2936461417322835
21
0.2050737007874016
0
LINE
8
BLACK
6
CONTINUOUS
10
1.2936461417322835
20
0.2050737007874016
11
1.2931987007874015
21
0.2047064960629921
0
LINE
8
BLACK
6
CONTINUOUS
10
1.2931987007874015
20
0.2047064960629921
11
1.2921342913385827
21
0.2042656299212599
0
LINE
8
BLACK
6
CONTINUOUS
10
1.2921342913385827
20
0.2042656299212599
11
1.2909822047244095
21
0.2042656299212599
0
LINE
8
BLACK
6
CONTINUOUS
10
1.2909822047244095
20
0.2042656299212599
11
1.2899177952755905
21
0.2047065354330709
0
LINE
8
BLACK
6
CONTINUOUS
10
1.2899177952755905
20
0.2047065354330709
11
1.2891031102362205
21
0.205521220472441
0
LINE
8
BLACK
6
CONTINUOUS
10
1.2891031102362205
20
0.205521220472441
11
1.2886622440944882
21
0.2065856299212598
0
LINE
8
BLACK
6
CONTINUOUS
10
1.2886622440944882
20
0.2065856299212598
11
1.2886622440944882
21
0.2077377165354331
0
LINE
8
BLACK
6
CONTINUOUS
10
1.2886622440944882
20
0.2077377165354331
11
1.2891031496062992
21
0.208802125984252
0
LINE
8
BLACK
6
CONTINUOUS
10
1.2891031496062992
20
0.208802125984252
11
1.2894703937007874
21
0.2092496062992126
0
LINE
8
BLACK
6
CONTINUOUS
10
1.2894703937007874
20
0.2092496062992126
11
1.2910063385826771
21
0.2107855511811024
0
LINE
8
BLACK
6
CONTINUOUS
10
1.2910063385826771
20
0.2107855511811024
11
1.2923550787401574
21
0.2134829921259842
0
LINE
8
BLACK
6
CONTINUOUS
10
1.2923550787401574
20
0.2134829921259842
11
1.2923550787401574
21
0.2214627165354331
0
LINE
8
BLACK
6
CONTINUOUS
10
1.2923550787401574
20
0.2214627165354331
11
1.2910063385826771
21
0.2241601968503937
0
LINE
8
BLACK
6
CONTINUOUS
10
1.2910063385826771
20
0.2241601968503937
11
1.2898091732283463
21
0.2253573228346457
0
LINE
8
BLACK
6
CONTINUOUS
10
1.2898091732283463
20
0.2253573228346457
11
1.2871116929133859
21
0.226706062992126
0
LINE
8
BLACK
6
CONTINUOUS
10
1.2871116929133859
20
0.226706062992126
11
1.2791319685039371
21
0.226706062992126
0
LINE
8
BLACK
6
CONTINUOUS
10
1.2791319685039371
20
0.226706062992126
11
1.2764344881889764
21
0.2253573228346457
0
LINE
8
BLACK
6
CONTINUOUS
10
1.2764344881889764
20
0.2253573228346457
11
1.2752373622047244
21
0.2241601968503937
0
LINE
8
BLACK
6
CONTINUOUS
10
1.2752373622047244
20
0.2241601968503937
11
1.2738886220472441
21
0.2214627165354331
0
LINE
8
BLACK
6
CONTINUOUS
10
1.2738886220472441
20
0.2214627165354331
11
1.2738886220472441
21
0.2134829921259842
0
LINE
8
BLACK
6
CONTINUOUS
10
1.2738886220472441
20
0.2134829921259842
11
1.2752373622047244
21
0.2107855118110236
0
LINE
8
BLACK
6
CONTINUOUS
10
1.2752373622047244
20
0.2107855118110236
11
1.2767733070866141
21
0.2092495669291339
0
LINE
8
BLACK
6
CONTINUOUS
10
1.2767733070866141
20
0.2092495669291339
11
1.2771405118110235
21
0.208802125984252
0
LINE
8
BLACK
6
CONTINUOUS
10
1.2771405118110235
20
0.208802125984252
11
1.2771974015748031
21
0.2086648031496063
0
LINE
8
BLACK
6
CONTINUOUS
10
1.2771974015748031
20
0.2086648031496063
11
1.2772915748031495
21
0.2085496850393701
0
LINE
8
BLACK
6
CONTINUOUS
10
1.2772915748031495
20
0.2085496850393701
11
1.2774162598425196
21
0.2081364173228346
0
LINE
8
BLACK
6
CONTINUOUS
10
1.2774162598425196
20
0.2081364173228346
11
1.2775814173228346
21
0.2077377165354331
0
LINE
8
BLACK
6
CONTINUOUS
10
1.2775814173228346
20
0.2077377165354331
11
1.2775814173228346
21
0.2075890551181102
0
LINE
8
BLACK
6
CONTINUOUS
10
1.2775814173228346
20
0.2075890551181102
11
1.2776243700787402
21
0.2074466929133858
0
LINE
8
BLACK
6
CONTINUOUS
10
1.2776243700787402
20
0.2074466929133858
11
1.2775814173228346
21
0.2070172047244094
0
LINE
8
BLACK
6
CONTINUOUS
10
1.2775814173228346
20
0.2070172047244094
11
1.2775814173228346
21
0.2065856299212598
0
LINE
8
BLACK
6
CONTINUOUS
10
1.2775814173228346
20
0.2065856299212598
11
1.2775244881889765
21
0.2064483070866142
0
LINE
8
BLACK
6
CONTINUOUS
10
1.2775244881889765
20
0.2064483070866142
11
1.2775097244094489
21
0.2063002755905512
0
LINE
8
BLACK
6
CONTINUOUS
10
1.2775097244094489
20
0.2063002755905512
11
1.277305590551181
21
0.205919842519685
0
LINE
8
BLACK
6
CONTINUOUS
10
1.277305590551181
20
0.205919842519685
11
1.2771405118110235
21
0.205521220472441
0
LINE
8
BLACK
6
CONTINUOUS
10
1.2771405118110235
20
0.205521220472441
11
1.2770353543307087
21
0.2054161023622047
0
LINE
8
BLACK
6
CONTINUOUS
10
1.2770353543307087
20
0.2054161023622047
11
1.2769650787401574
21
0.2052850393700787
0
LINE
8
BLACK
6
CONTINUOUS
10
1.2769650787401574
20
0.2052850393700787
11
1.2766308661417323
21
0.2050116141732283
0
LINE
8
BLACK
6
CONTINUOUS
10
1.2766308661417323
20
0.2050116141732283
11
1.2763258267716535
21
0.2047065354330709
0
LINE
8
BLACK
6
CONTINUOUS
10
1.2763258267716535
20
0.2047065354330709
11
1.2761885433070865
21
0.2046496850393701
0
LINE
8
BLACK
6
CONTINUOUS
10
1.2761885433070865
20
0.2046496850393701
11
1.2760734251968504
21
0.2045554724409449
0
LINE
8
BLACK
6
CONTINUOUS
10
1.2760734251968504
20
0.2045554724409449
11
1.27566
21
0.2044307480314961
0
LINE
8
BLACK
6
CONTINUOUS
10
1.27566
20
0.2044307480314961
11
1.2752614173228347
21
0.2042656299212599
0
LINE
8
BLACK
6
CONTINUOUS
10
1.2752614173228347
20
0.2042656299212599
11
1.2751127952755905
21
0.2042656299212599
0
LINE
8
BLACK
6
CONTINUOUS
10
1.2751127952755905
20
0.2042656299212599
11
1.2749704330708662
21
0.2042226771653543
0
LINE
8
BLACK
6
CONTINUOUS
10
1.2749704330708662
20
0.2042226771653543
11
1.2743915748031496
21
0.2042235433070866
0
LINE
8
BLACK
6
CONTINUOUS
10
1.2743915748031496
20
0.2042235433070866
11
1.255643937007874
21
0.2060983070866142
0
LINE
8
BLACK
6
CONTINUOUS
10
1.255643937007874
20
0.2060983070866142
11
1.2554340157480315
21
0.2061403937007874
0
LINE
8
BLACK
6
CONTINUOUS
10
1.2554340157480315
20
0.2061403937007874
11
1.2553616929133857
21
0.2061403937007874
0
LINE
8
BLACK
6
CONTINUOUS
10
1.2553616929133857
20
0.2061403937007874
11
1.2552938582677164
21
0.2061685039370079
0
LINE
8
BLACK
6
CONTINUOUS
10
1.2552938582677164
20
0.2061685039370079
11
1.2550763779527558
21
0.2062120866141732
0
LINE
8
BLACK
6
CONTINUOUS
10
1.2550763779527558
20
0.2062120866141732
11
1.254696062992126
21
0.2064161417322835
0
LINE
8
BLACK
6
CONTINUOUS
10
1.254696062992126
20
0.2064161417322835
11
1.2542972834645669
21
0.2065812992125984
0
LINE
8
BLACK
6
CONTINUOUS
10
1.2542972834645669
20
0.2065812992125984
11
1.2541920866141731
21
0.2066864960629921
0
LINE
8
BLACK
6
CONTINUOUS
10
1.2541920866141731
20
0.2066864960629921
11
1.2540611417322833
21
0.2067567322834646
0
LINE
8
BLACK
6
CONTINUOUS
10
1.2540611417322833
20
0.2067567322834646
11
1.253787874015748
21
0.2070907086614173
0
LINE
8
BLACK
6
CONTINUOUS
10
1.253787874015748
20
0.2070907086614173
11
1.2534826377952755
21
0.2073959448818898
0
LINE
8
BLACK
6
CONTINUOUS
10
1.2534826377952755
20
0.2073959448818898
11
1.2534257086614173
21
0.2075333070866142
0
LINE
8
BLACK
6
CONTINUOUS
10
1.2534257086614173
20
0.2075333070866142
11
1.2533315748031495
21
0.2076483858267716
0
LINE
8
BLACK
6
CONTINUOUS
10
1.2533315748031495
20
0.2076483858267716
11
1.2532068503937008
21
0.2080616929133858
0
LINE
8
BLACK
6
CONTINUOUS
10
1.2532068503937008
20
0.2080616929133858
11
1.2530417322834646
21
0.2084603543307087
0
LINE
8
BLACK
6
CONTINUOUS
10
1.2530417322834646
20
0.2084603543307087
11
1.2530199606299213
21
0.208681062992126
0
LINE
8
BLACK
6
CONTINUOUS
10
1.2530199606299213
20
0.208681062992126
11
1.252998779527559
21
0.2087513779527559
0
LINE
8
BLACK
6
CONTINUOUS
10
1.252998779527559
20
0.2087513779527559
11
1.2530059448818898
21
0.2088233858267717
0
LINE
8
BLACK
6
CONTINUOUS
10
1.2530059448818898
20
0.2088233858267717
11
1.252985
21
0.2090364173228347
0
LINE
8
BLACK
6
CONTINUOUS
10
1.252985
20
0.2090364173228347
11
1.252985
21
0.2277840551181102
0
LINE
8
BLACK
6
CONTINUOUS
10
1.252985
20
0.2277840551181102
11
1.2530417322834646
21
0.2283601181102362
0
LINE
8
BLACK
6
CONTINUOUS
10
1.2530417322834646
20
0.2283601181102362
11
1.2534826377952755
21
0.2294245275590551
0
LINE
8
BLACK
6
CONTINUOUS
10
1.2534826377952755
20
0.2294245275590551
11
1.2542972834645669
21
0.2302391732283464
0
LINE
8
BLACK
6
CONTINUOUS
10
1.2542972834645669
20
0.2302391732283464
11
1.2553616929133857
21
0.2306800787401575
0
LINE
8
BLACK
6
CONTINUOUS
10
1.2553616929133857
20
0.2306800787401575
11
1.2565138188976377
21
0.2306800787401575
0
LINE
8
BLACK
6
CONTINUOUS
10
1.2565138188976377
20
0.2306800787401575
11
1.2575782283464567
21
0.2302391732283464
0
LINE
8
BLACK
6
CONTINUOUS
10
1.2575782283464567
20
0.2302391732283464
11
1.258392874015748
21
0.2294245275590551
0
LINE
8
BLACK
6
CONTINUOUS
10
1.258392874015748
20
0.2294245275590551
11
1.258833779527559
21
0.2283601181102362
0
LINE
8
BLACK
6
CONTINUOUS
10
1.258833779527559
20
0.2283601181102362
11
1.2588905118110236
21
0.2277840551181102
0
LINE
8
BLACK
6
CONTINUOUS
10
1.2588905118110236
20
0.2277840551181102
11
1.2588905118110236
21
0.2117086614173228
0
LINE
8
BLACK
6
CONTINUOUS
10
1.2588905118110236
20
0.2117086614173228
11
1.2686617716535433
21
0.2107315354330709
0
LINE
8
BLACK
6
CONTINUOUS
10
1.2686617716535433
20
0.2107315354330709
11
1.2682948425196849
21
0.2114654330708661
0
LINE
8
BLACK
6
CONTINUOUS
10
1.2682948425196849
20
0.2114654330708661
11
1.2680879527559055
21
0.212006062992126
0
LINE
8
BLACK
6
CONTINUOUS
10
1.2680879527559055
20
0.212006062992126
11
1.2680804330708662
21
0.2121118897637795
0
LINE
8
BLACK
6
CONTINUOUS
10
1.2680804330708662
20
0.2121118897637795
11
1.268039842519685
21
0.2122098818897638
0
LINE
8
BLACK
6
CONTINUOUS
10
1.268039842519685
20
0.2122098818897638
11
1.2679831102362205
21
0.2127859448818898
0
LINE
8
BLACK
6
CONTINUOUS
10
1.2679831102362205
20
0.2127859448818898
11
1.2679831102362205
21
0.2221597637795276
0
LINE
8
BLACK
6
CONTINUOUS
10
1.2679831102362205
20
0.2221597637795276
11
1.268039842519685
21
0.2227358267716535
0
LINE
8
BLACK
6
CONTINUOUS
10
1.268039842519685
20
0.2227358267716535
11
1.2680804330708662
21
0.2228338582677165
0
LINE
8
BLACK
6
CONTINUOUS
10
1.2680804330708662
20
0.2228338582677165
11
1.2680879527559055
21
0.2229396456692913
0
LINE
8
BLACK
6
CONTINUOUS
10
1.2680879527559055
20
0.2229396456692913
11
1.2682948425196849
21
0.2234802755905512
0
LINE
8
BLACK
6
CONTINUOUS
10
1.2682948425196849
20
0.2234802755905512
11
1.2701696062992125
21
0.2272298031496063
0
LINE
8
BLACK
6
CONTINUOUS
10
1.2701696062992125
20
0.2272298031496063
11
1.2703256692913385
21
0.2274778346456693
0
LINE
8
BLACK
6
CONTINUOUS
10
1.2703256692913385
20
0.2274778346456693
11
1.2703555118110237
21
0.2275497637795275
0
LINE
8
BLACK
6
CONTINUOUS
10
1.2703555118110237
20
0.2275497637795275
11
1.2704219685039371
21
0.227630748031496
0
LINE
8
BLACK
6
CONTINUOUS
10
1.2704219685039371
20
0.227630748031496
11
1.2704779527559056
21
0.2277196850393701
0
LINE
8
BLACK
6
CONTINUOUS
10
1.2704779527559056
20
0.2277196850393701
11
1.2705369291338582
21
0.2277708661417323
0
LINE
8
BLACK
6
CONTINUOUS
10
1.2705369291338582
20
0.2277708661417323
11
1.2707227165354331
21
0.2279972047244094
0
LINE
8
BLACK
6
CONTINUOUS
10
1.2707227165354331
20
0.2279972047244094
11
1.2725974803149607
21
0.229871968503937
0
LINE
8
BLACK
6
CONTINUOUS
10
1.2725974803149607
20
0.229871968503937
11
1.2728238188976377
21
0.2300577559055118
0
LINE
8
BLACK
6
CONTINUOUS
10
1.2728238188976377
20
0.2300577559055118
11
1.272875
21
0.2301167322834645
0
LINE
8
BLACK
6
CONTINUOUS
10
1.272875
20
0.2301167322834645
11
1.272963937007874
21
0.2301727165354331
0
LINE
8
BLACK
6
CONTINUOUS
10
1.272963937007874
20
0.2301727165354331
11
1.2730449212598425
21
0.2302391732283464
0
LINE
8
BLACK
6
CONTINUOUS
10
1.2730449212598425
20
0.2302391732283464
11
1.2731168503937007
21
0.2302690157480315
0
LINE
8
BLACK
6
CONTINUOUS
10
1.2731168503937007
20
0.2302690157480315
11
1.2733648818897638
21
0.2304250787401575
0
LINE
8
BLACK
6
CONTINUOUS
10
1.2733648818897638
20
0.2304250787401575
11
1.2771144094488189
21
0.232299842519685
0
LINE
8
BLACK
6
CONTINUOUS
10
1.2771144094488189
20
0.232299842519685
11
1.277655
21
0.2325067322834646
0
LINE
8
BLACK
6
CONTINUOUS
10
1.277655
20
0.2325067322834646
11
1.2777608661417323
21
0.2325142913385827
0
LINE
8
BLACK
6
CONTINUOUS
10
1.2777608661417323
20
0.2325142913385827
11
1.2778588582677166
21
0.232554842519685
0
LINE
8
BLACK
6
CONTINUOUS
10
1.2778588582677166
20
0.232554842519685
11
1.2784349212598425
21
0.2326115748031496
0
LINE
8
BLACK
6
CONTINUOUS
10
1.2784349212598425
20
0.2326115748031496
11
1.2878087401574803
21
0.2326115748031496
0
LINE
8
BLACK
6
CONTINUOUS
10
1.2878087401574803
20
0.2326115748031496
11
1.2883848031496064
21
0.232554842519685
0
LINE
8
BLACK
6
CONTINUOUS
10
1.2950734645669291
20
0.2508616535433071
11
1.2950735433070866
21
0.2508616141732283
0
LINE
8
BLACK
6
CONTINUOUS
10
1.2950735433070866
20
0.2508616141732283
11
1.2955209842519684
21
0.2504944094488189
0
LINE
8
BLACK
6
CONTINUOUS
10
1.2955209842519684
20
0.2504944094488189
11
1.2973957480314959
21
0.2486196456692913
0
LINE
8
BLACK
6
CONTINUOUS
10
1.2973957480314959
20
0.2486196456692913
11
1.2977629527559056
21
0.2481722047244095
0
LINE
8
BLACK
6
CONTINUOUS
10
1.2977629527559056
20
0.2481722047244095
11
1.2979045275590551
21
0.2478304330708661
0
LINE
8
BLACK
6
CONTINUOUS
10
1.2979045275590551
20
0.2478304330708661
11
1.2982038582677164
21
0.2471077559055118
0
LINE
8
BLACK
6
CONTINUOUS
10
1.2982038582677164
20
0.2471077559055118
11
1.2982038582677164
21
0.2459556692913386
0
LINE
8
BLACK
6
CONTINUOUS
10
1.2982038582677164
20
0.2459556692913386
11
1.2977629527559056
21
0.2448912598425197
0
LINE
8
BLACK
6
CONTINUOUS
10
1.2977629527559056
20
0.2448912598425197
11
1.2973957480314959
21
0.2444438188976378
0
LINE
8
BLACK
6
CONTINUOUS
10
1.2973957480314959
20
0.2444438188976378
11
1.2955209842519684
21
0.2425690551181102
0
LINE
8
BLACK
6
CONTINUOUS
10
1.2955209842519684
20
0.2425690551181102
11
1.2950735433070866
21
0.2422018503937008
0
LINE
8
BLACK
6
CONTINUOUS
10
1.2950735433070866
20
0.2422018503937008
11
1.2940091338582678
21
0.2417609448818898
0
LINE
8
BLACK
6
CONTINUOUS
10
1.2940091338582678
20
0.2417609448818898
11
1.2928570472440946
21
0.2417609448818898
0
LINE
8
BLACK
6
CONTINUOUS
10
1.2928570472440946
20
0.2417609448818898
11
1.2917926377952755
21
0.242201811023622
0
LINE
8
BLACK
6
CONTINUOUS
10
1.2917926377952755
20
0.242201811023622
11
1.291345157480315
21
0.2425690551181102
0
LINE
8
BLACK
6
CONTINUOUS
10
1.291345157480315
20
0.2425690551181102
11
1.2894703937007874
21
0.2444437795275591
0
LINE
8
BLACK
6
CONTINUOUS
10
1.2894703937007874
20
0.2444437795275591
11
1.2891031496062992
21
0.2448912598425197
0
LINE
8
BLACK
6
CONTINUOUS
10
1.2891031496062992
20
0.2448912598425197
11
1.2891031102362205
21
0.2448912992125984
0
LINE
8
BLACK
6
CONTINUOUS
10
1.2891031102362205
20
0.2448912992125984
11
1.2886622440944882
21
0.2459557086614173
0
LINE
8
BLACK
6
CONTINUOUS
10
1.2886622440944882
20
0.2459557086614173
11
1.2886622440944882
21
0.2471077952755905
0
LINE
8
BLACK
6
CONTINUOUS
10
1.2886622440944882
20
0.2471077952755905
11
1.2889615748031495
21
0.2478304330708661
0
LINE
8
BLACK
6
CONTINUOUS
10
1.2889615748031495
20
0.2478304330708661
11
1.2891031102362205
21
0.2481721653543307
0
LINE
8
BLACK
6
CONTINUOUS
10
1.2891031102362205
20
0.2481721653543307
11
1.2891031496062992
21
0.2481722047244095
0
LINE
8
BLACK
6
CONTINUOUS
10
1.2891031496062992
20
0.2481722047244095
11
1.2894703937007874
21
0.2486196850393701
0
LINE
8
BLACK
6
CONTINUOUS
10
1.2894703937007874
20
0.2486196850393701
11
1.291345157480315
21
0.2504944094488189
0
LINE
8
BLACK
6
CONTINUOUS
10
1.291345157480315
20
0.2504944094488189
11
1.2917926377952755
21
0.2508616535433071
0
LINE
8
BLACK
6
CONTINUOUS
10
1.2917926377952755
20
0.2508616535433071
11
1.2928570472440946
21
0.2513025196850394
0
LINE
8
BLACK
6
CONTINUOUS
10
1.2928570472440946
20
0.2513025196850394
11
1.2940091338582678
21
0.2513025196850394
0
LINE
8
BLACK
6
CONTINUOUS
10
1.2940091338582678
20
0.2513025196850394
11
1.2950734645669291
21
0.2508616535433071
0
LINE
8
BLACK
6
CONTINUOUS
10
1.2804101968503936
20
0.2888446456692914
11
1.2804532283464567
21
0.2888510236220472
0
LINE
8
BLACK
6
CONTINUOUS
10
1.2804532283464567
20
0.2888510236220472
11
1.2806687007874016
21
0.2888191732283464
0
LINE
8
BLACK
6
CONTINUOUS
10
1.2806687007874016
20
0.2888191732283464
11
1.2808857480314961
21
0.2887977952755905
0
LINE
8
BLACK
6
CONTINUOUS
10
1.2808857480314961
20
0.2887977952755905
11
1.2809259448818897
21
0.2887811811023622
0
LINE
8
BLACK
6
CONTINUOUS
10
1.2809259448818897
20
0.2887811811023622
11
1.2810258267716534
21
0.2887663779527559
0
LINE
8
BLACK
6
CONTINUOUS
10
1.2810258267716534
20
0.2887663779527559
11
1.2885248818897637
21
0.2868916141732283
0
LINE
8
BLACK
6
CONTINUOUS
10
1.2885248818897637
20
0.2868916141732283
11
1.2885673622047245
21
0.2868764566929134
0
LINE
8
BLACK
6
CONTINUOUS
10
1.2885673622047245
20
0.2868764566929134
11
1.288588622047244
21
0.2868749212598425
0
LINE
8
BLACK
6
CONTINUOUS
10
1.288588622047244
20
0.2868749212598425
11
1.288828031496063
21
0.2867833070866141
0
LINE
8
BLACK
6
CONTINUOUS
10
1.288828031496063
20
0.2867833070866141
11
1.2890699999999999
21
0.2866968503937008
0
LINE
8
BLACK
6
CONTINUOUS
10
1.2890699999999999
20
0.2866968503937008
11
1.289087125984252
21
0.2866841732283464
0
LINE
8
BLACK
6
CONTINUOUS
10
1.289087125984252
20
0.2866841732283464
11
1.2891292519685038
21
0.286668031496063
0
LINE
8
BLACK
6
CONTINUOUS
10
1.2891292519685038
20
0.286668031496063
11
1.2928787795275589
21
0.2847932677165354
0
LINE
8
BLACK
6
CONTINUOUS
10
1.2928787795275589
20
0.2847932677165354
11
1.293126653543307
21
0.2846372440944882
0
LINE
8
BLACK
6
CONTINUOUS
10
1.293126653543307
20
0.2846372440944882
11
1.2931987007874015
21
0.2846074015748031
0
LINE
8
BLACK
6
CONTINUOUS
10
1.2931987007874015
20
0.2846074015748031
11
1.2932797244094487
21
0.284540905511811
0
LINE
8
BLACK
6
CONTINUOUS
10
1.2932797244094487
20
0.284540905511811
11
1.2933686614173228
21
0.2844849212598425
0
LINE
8
BLACK
6
CONTINUOUS
10
1.2933686614173228
20
0.2844849212598425
11
1.2934198031496063
21
0.2844259448818898
0
LINE
8
BLACK
6
CONTINUOUS
10
1.2934198031496063
20
0.2844259448818898
11
1.2936461417322835
21
0.2842401968503937
0
LINE
8
BLACK
6
CONTINUOUS
10
1.2936461417322835
20
0.2842401968503937
11
1.2955209448818896
21
0.2823654330708661
0
LINE
8
BLACK
6
CONTINUOUS
10
1.2955209448818896
20
0.2823654330708661
11
1.2957066929133858
21
0.282139094488189
0
LINE
8
BLACK
6
CONTINUOUS
10
1.2957066929133858
20
0.282139094488189
11
1.2957657480314961
21
0.282087874015748
0
LINE
8
BLACK
6
CONTINUOUS
10
1.2957657480314961
20
0.282087874015748
11
1.2958217322834646
21
0.281998937007874
0
LINE
8
BLACK
6
CONTINUOUS
10
1.2958217322834646
20
0.281998937007874
11
1.295888188976378
21
0.2819179527559055
0
LINE
8
BLACK
6
CONTINUOUS
10
1.295888188976378
20
0.2819179527559055
11
1.2959179921259842
21
0.2818460236220472
0
LINE
8
BLACK
6
CONTINUOUS
10
1.2959179921259842
20
0.2818460236220472
11
1.296074094488189
21
0.2815979921259842
0
LINE
8
BLACK
6
CONTINUOUS
10
1.296074094488189
20
0.2815979921259842
11
1.2979488582677166
21
0.2778484645669291
0
LINE
8
BLACK
6
CONTINUOUS
10
1.2979488582677166
20
0.2778484645669291
11
1.298155748031496
21
0.277307874015748
0
LINE
8
BLACK
6
CONTINUOUS
10
1.298155748031496
20
0.277307874015748
11
1.2981632677165353
21
0.2772020078740157
0
LINE
8
BLACK
6
CONTINUOUS
10
1.2981632677165353
20
0.2772020078740157
11
1.2982038582677164
21
0.2771040157480315
0
LINE
8
BLACK
6
CONTINUOUS
10
1.2982038582677164
20
0.2771040157480315
11
1.298260590551181
21
0.2765279527559055
0
LINE
8
BLACK
6
CONTINUOUS
10
1.298260590551181
20
0.2765279527559055
11
1.298260590551181
21
0.2727784251968504
0
LINE
8
BLACK
6
CONTINUOUS
10
1.298260590551181
20
0.2727784251968504
11
1.2982038582677164
21
0.2722023622047244
0
LINE
8
BLACK
6
CONTINUOUS
10
1.2982038582677164
20
0.2722023622047244
11
1.2981632677165353
21
0.2721044094488189
0
LINE
8
BLACK
6
CONTINUOUS
10
1.2981632677165353
20
0.2721044094488189
11
1.298155748031496
21
0.2719985039370079
0
LINE
8
BLACK
6
CONTINUOUS
10
1.298155748031496
20
0.2719985039370079
11
1.2979488582677166
21
0.2714579133858268
0
LINE
8
BLACK
6
CONTINUOUS
10
1.2979488582677166
20
0.2714579133858268
11
1.296074094488189
21
0.2677083858267716
0
LINE
8
BLACK
6
CONTINUOUS
10
1.296074094488189
20
0.2677083858267716
11
1.2959179921259842
21
0.2674603937007874
0
LINE
8
BLACK
6
CONTINUOUS
10
1.2959179921259842
20
0.2674603937007874
11
1.295888188976378
21
0.2673884251968504
0
LINE
8
BLACK
6
CONTINUOUS
10
1.295888188976378
20
0.2673884251968504
11
1.2958217322834646
21
0.2673074803149606
0
LINE
8
BLACK
6
CONTINUOUS
10
1.2958217322834646
20
0.2673074803149606
11
1.2957657480314961
21
0.2672185039370079
0
LINE
8
BLACK
6
CONTINUOUS
10
1.2957657480314961
20
0.2672185039370079
11
1.2957066929133858
21
0.2671673228346457
0
LINE
8
BLACK
6
CONTINUOUS
10
1.2957066929133858
20
0.2671673228346457
11
1.2955209448818896
21
0.2669409448818897
0
LINE
8
BLACK
6
CONTINUOUS
10
1.2955209448818896
20
0.2669409448818897
11
1.2936461417322835
21
0.2650661811023622
0
LINE
8
BLACK
6
CONTINUOUS
10
1.2936461417322835
20
0.2650661811023622
11
1.2934198031496063
21
0.2648804724409449
0
LINE
8
BLACK
6
CONTINUOUS
10
1.2934198031496063
20
0.2648804724409449
11
1.2933686614173228
21
0.2648214566929134
0
LINE
8
BLACK
6
CONTINUOUS
10
1.2933686614173228
20
0.2648214566929134
11
1.2932797244094487
21
0.2647655118110236
0
LINE
8
BLACK
6
CONTINUOUS
10
1.2932797244094487
20
0.2647655118110236
11
1.2931987007874015
21
0.2646989763779528
0
LINE
8
BLACK
6
CONTINUOUS
10
1.2931987007874015
20
0.2646989763779528
11
1.293126653543307
21
0.2646691732283464
0
LINE
8
BLACK
6
CONTINUOUS
10
1.293126653543307
20
0.2646691732283464
11
1.2928787795275589
21
0.2645131102362205
0
LINE
8
BLACK
6
CONTINUOUS
10
1.2928787795275589
20
0.2645131102362205
11
1.2891292519685038
21
0.2626383464566929
0
LINE
8
BLACK
6
CONTINUOUS
10
1.2891292519685038
20
0.2626383464566929
11
1.289087125984252
21
0.2626222440944882
0
LINE
8
BLACK
6
CONTINUOUS
10
1.289087125984252
20
0.2626222440944882
11
1.2890699999999999
21
0.2626095275590551
0
LINE
8
BLACK
6
CONTINUOUS
10
1.2890699999999999
20
0.2626095275590551
11
1.288828031496063
21
0.2625231102362205
0
LINE
8
BLACK
6
CONTINUOUS
10
1.288828031496063
20
0.2625231102362205
11
1.288588622047244
21
0.2624314566929134
0
LINE
8
BLACK
6
CONTINUOUS
10
1.288588622047244
20
0.2624314566929134
11
1.2885673622047245
21
0.2624299606299212
0
LINE
8
BLACK
6
CONTINUOUS
10
1.2885673622047245
20
0.2624299606299212
11
1.2885248818897637
21
0.2624147637795275
0
LINE
8
BLACK
6
CONTINUOUS
10
1.2885248818897637
20
0.2624147637795275
11
1.2810258267716534
21
0.26054
0
LINE
8
BLACK
6
CONTINUOUS
10
1.2810258267716534
20
0.26054
11
1.2809259448818897
21
0.2605252362204724
0
LINE
8
BLACK
6
CONTINUOUS
10
1.2809259448818897
20
0.2605252362204724
11
1.2808857480314961
21
0.2605085826771654
0
LINE
8
BLACK
6
CONTINUOUS
10
1.2808857480314961
20
0.2605085826771654
11
1.2806687007874016
21
0.2604872440944882
0
LINE
8
BLACK
6
CONTINUOUS
10
1.2806687007874016
20
0.2604872440944882
11
1.2804532283464567
21
0.2604553543307087
0
LINE
8
BLACK
6
CONTINUOUS
10
1.2804532283464567
20
0.2604553543307087
11
1.2804101968503936
21
0.2604617716535433
0
LINE
8
BLACK
6
CONTINUOUS
10
1.2804101968503936
20
0.2604617716535433
11
1.28030968503937
21
0.2604518503937008
0
LINE
8
BLACK
6
CONTINUOUS
10
1.28030968503937
20
0.2604518503937008
11
1.2709358661417323
21
0.2604518503937008
0
LINE
8
BLACK
6
CONTINUOUS
10
1.2709358661417323
20
0.2604518503937008
11
1.27083531496063
21
0.2604617716535433
0
LINE
8
BLACK
6
CONTINUOUS
10
1.27083531496063
20
0.2604617716535433
11
1.2707923228346456
21
0.2604553543307087
0
LINE
8
BLACK
6
CONTINUOUS
10
1.2707923228346456
20
0.2604553543307087
11
1.270576811023622
21
0.2604872440944882
0
LINE
8
BLACK
6
CONTINUOUS
10
1.270576811023622
20
0.2604872440944882
11
1.2703598031496062
21
0.2605085826771654
0
LINE
8
BLACK
6
CONTINUOUS
10
1.2703598031496062
20
0.2605085826771654
11
1.2703195669291338
21
0.2605252362204724
0
LINE
8
BLACK
6
CONTINUOUS
10
1.2703195669291338
20
0.2605252362204724
11
1.2702197244094489
21
0.26054
0
LINE
8
BLACK
6
CONTINUOUS
10
1.2702197244094489
20
0.26054
11
1.2627206692913386
21
0.2624147637795275
0
LINE
8
BLACK
6
CONTINUOUS
10
1.2627206692913386
20
0.2624147637795275
11
1.2626781496062991
21
0.2624299606299212
0
LINE
8
BLACK
6
CONTINUOUS
10
1.2626781496062991
20
0.2624299606299212
11
1.2626568897637795
21
0.2624314566929134
0
LINE
8
BLACK
6
CONTINUOUS
10
1.2626568897637795
20
0.2624314566929134
11
1.262417125984252
21
0.2625232283464567
0
LINE
8
BLACK
6
CONTINUOUS
10
1.262417125984252
20
0.2625232283464567
11
1.2621755511811024
21
0.2626095275590551
0
LINE
8
BLACK
6
CONTINUOUS
10
1.2621755511811024
20
0.2626095275590551
11
1.2621583858267715
21
0.2626222440944882
0
LINE
8
BLACK
6
CONTINUOUS
10
1.2621583858267715
20
0.2626222440944882
11
1.2621162992125985
21
0.2626383464566929
0
LINE
8
BLACK
6
CONTINUOUS
10
1.2621162992125985
20
0.2626383464566929
11
1.2583667716535434
21
0.2645131102362205
0
LINE
8
BLACK
6
CONTINUOUS
10
1.2583667716535434
20
0.2645131102362205
11
1.2581187401574803
21
0.2646692125984252
0
LINE
8
BLACK
6
CONTINUOUS
10
1.2581187401574803
20
0.2646692125984252
11
1.258046811023622
21
0.2646990157480315
0
LINE
8
BLACK
6
CONTINUOUS
10
1.258046811023622
20
0.2646990157480315
11
1.2579658267716536
21
0.2647655118110236
0
LINE
8
BLACK
6
CONTINUOUS
10
1.2579658267716536
20
0.2647655118110236
11
1.2578768897637795
21
0.2648214566929134
0
LINE
8
BLACK
6
CONTINUOUS
10
1.2578768897637795
20
0.2648214566929134
11
1.2578257086614173
21
0.2648804724409449
0
LINE
8
BLACK
6
CONTINUOUS
10
1.2578257086614173
20
0.2648804724409449
11
1.2575993700787402
21
0.2650662204724409
0
LINE
8
BLACK
6
CONTINUOUS
10
1.2575993700787402
20
0.2650662204724409
11
1.2557246062992127
21
0.2669409842519685
0
LINE
8
BLACK
6
CONTINUOUS
10
1.2557246062992127
20
0.2669409842519685
11
1.2555388188976377
21
0.2671673622047244
0
LINE
8
BLACK
6
CONTINUOUS
10
1.2555388188976377
20
0.2671673622047244
11
1.2554798425196849
21
0.2672185039370079
0
LINE
8
BLACK
6
CONTINUOUS
10
1.2554798425196849
20
0.2672185039370079
11
1.2554238582677164
21
0.2673074803149606
0
LINE
8
BLACK
6
CONTINUOUS
10
1.2554238582677164
20
0.2673074803149606
11
1.255357401574803
21
0.2673884251968504
0
LINE
8
BLACK
6
CONTINUOUS
10
1.255357401574803
20
0.2673884251968504
11
1.2553275590551181
21
0.2674603937007874
0
LINE
8
BLACK
6
CONTINUOUS
10
1.2553275590551181
20
0.2674603937007874
11
1.2551714960629921
21
0.2677083858267716
0
LINE
8
BLACK
6
CONTINUOUS
10
1.2551714960629921
20
0.2677083858267716
11
1.2532967322834645
21
0.2714579133858268
0
LINE
8
BLACK
6
CONTINUOUS
10
1.2532967322834645
20
0.2714579133858268
11
1.253089842519685
21
0.2719985433070866
0
LINE
8
BLACK
6
CONTINUOUS
10
1.253089842519685
20
0.2719985433070866
11
1.2530823228346457
21
0.2721043700787402
0
LINE
8
BLACK
6
CONTINUOUS
10
1.2530823228346457
20
0.2721043700787402
11
1.2530417322834646
21
0.2722023622047244
0
LINE
8
BLACK
6
CONTINUOUS
10
1.2530417322834646
20
0.2722023622047244
11
1.252985
21
0.2727784251968504
0
LINE
8
BLACK
6
CONTINUOUS
10
1.252985
20
0.2727784251968504
11
1.252985
21
0.2765279527559055
0
LINE
8
BLACK
6
CONTINUOUS
10
1.252985
20
0.2765279527559055
11
1.2530417322834646
21
0.2771040157480315
0
LINE
8
BLACK
6
CONTINUOUS
10
1.2530417322834646
20
0.2771040157480315
11
1.2530823228346457
21
0.2772020472440945
0
LINE
8
BLACK
6
CONTINUOUS
10
1.2530823228346457
20
0.2772020472440945
11
1.253089842519685
21
0.2773078346456693
0
LINE
8
BLACK
6
CONTINUOUS
10
1.253089842519685
20
0.2773078346456693
11
1.2532967322834645
21
0.2778484645669291
0
LINE
8
BLACK
6
CONTINUOUS
10
1.2532967322834645
20
0.2778484645669291
11
1.2551714960629921
21
0.2815979921259842
0
LINE
8
BLACK
6
CONTINUOUS
10
1.2551714960629921
20
0.2815979921259842
11
1.2553275590551181
21
0.2818460236220472
0
LINE
8
BLACK
6
CONTINUOUS
10
1.2553275590551181
20
0.2818460236220472
11
1.255357401574803
21
0.2819179527559055
0
LINE
8
BLACK
6
CONTINUOUS
10
1.255357401574803
20
0.2819179527559055
11
1.2554238582677164
21
0.281998937007874
0
LINE
8
BLACK
6
CONTINUOUS
10
1.2554238582677164
20
0.281998937007874
11
1.2554798425196849
21
0.282087874015748
0
LINE
8
BLACK
6
CONTINUOUS
10
1.2554798425196849
20
0.282087874015748
11
1.2555388188976377
21
0.2821390551181102
0
LINE
8
BLACK
6
CONTINUOUS
10
1.2555388188976377
20
0.2821390551181102
11
1.2557246062992127
21
0.2823653937007874
0
LINE
8
BLACK
6
CONTINUOUS
10
1.2557246062992127
20
0.2823653937007874
11
1.2575993700787402
21
0.2842401574803149
0
LINE
8
BLACK
6
CONTINUOUS
10
1.2575993700787402
20
0.2842401574803149
11
1.2578257086614173
21
0.2844259448818898
0
LINE
8
BLACK
6
CONTINUOUS
10
1.2578257086614173
20
0.2844259448818898
11
1.2578768897637795
21
0.2844849212598425
0
LINE
8
BLACK
6
CONTINUOUS
10
1.2578768897637795
20
0.2844849212598425
11
1.2579658267716536
21
0.284540905511811
0
LINE
8
BLACK
6
CONTINUOUS
10
1.2579658267716536
20
0.284540905511811
11
1.258046811023622
21
0.2846073622047244
0
LINE
8
BLACK
6
CONTINUOUS
10
1.258046811023622
20
0.2846073622047244
11
1.2581187401574803
21
0.2846372047244095
0
LINE
8
BLACK
6
CONTINUOUS
10
1.2581187401574803
20
0.2846372047244095
11
1.2583667716535434
21
0.2847932677165354
0
LINE
8
BLACK
6
CONTINUOUS
10
1.2583667716535434
20
0.2847932677165354
11
1.2621162992125985
21
0.286668031496063
0
LINE
8
BLACK
6
CONTINUOUS
10
1.2621162992125985
20
0.286668031496063
11
1.2621583858267715
21
0.2866841732283464
0
LINE
8
BLACK
6
CONTINUOUS
10
1.2621583858267715
20
0.2866841732283464
11
1.2621755511811024
21
0.2866968503937008
0
LINE
8
BLACK
6
CONTINUOUS
10
1.2621755511811024
20
0.2866968503937008
11
1.262417125984252
21
0.2867831889763779
0
LINE
8
BLACK
6
CONTINUOUS
10
1.262417125984252
20
0.2867831889763779
11
1.2626568897637795
21
0.2868749212598425
0
LINE
8
BLACK
6
CONTINUOUS
10
1.2626568897637795
20
0.2868749212598425
11
1.2626781496062991
21
0.2868764566929134
0
LINE
8
BLACK
6
CONTINUOUS
10
1.2626781496062991
20
0.2868764566929134
11
1.2627206692913386
21
0.2868916141732283
0
LINE
8
BLACK
6
CONTINUOUS
10
1.2627206692913386
20
0.2868916141732283
11
1.2702197244094489
21
0.2887663779527559
0
LINE
8
BLACK
6
CONTINUOUS
10
1.2702197244094489
20
0.2887663779527559
11
1.2703195669291338
21
0.2887811811023622
0
LINE
8
BLACK
6
CONTINUOUS
10
1.2703195669291338
20
0.2887811811023622
11
1.2703598031496062
21
0.2887977952755905
0
LINE
8
BLACK
6
CONTINUOUS
10
1.2703598031496062
20
0.2887977952755905
11
1.270576811023622
21
0.2888191732283464
0
LINE
8
BLACK
6
CONTINUOUS
10
1.270576811023622
20
0.2888191732283464
11
1.2707923228346456
21
0.2888510236220472
0
LINE
8
BLACK
6
CONTINUOUS
10
1.2707923228346456
20
0.2888510236220472
11
1.27083531496063
21
0.2888446456692914
0
LINE
8
BLACK
6
CONTINUOUS
10
1.27083531496063
20
0.2888446456692914
11
1.2709358661417323
21
0.2888545275590551
0
LINE
8
BLACK
6
CONTINUOUS
10
1.2709358661417323
20
0.2888545275590551
11
1.28030968503937
21
0.2888545275590551
0
LINE
8
BLACK
6
CONTINUOUS
10
1.28030968503937
20
0.2888545275590551
11
1.2804101968503936
21
0.2888446456692914
0
LINE
8
BLACK
6
CONTINUOUS
10
1.2644673622047244
20
0.2812410236220472
11
1.261436377952756
21
0.2797255118110236
0
LINE
8
BLACK
6
CONTINUOUS
10
1.261436377952756
20
0.2797255118110236
11
1.2602392519685039
21
0.2785283858267716
0
LINE
8
BLACK
6
CONTINUOUS
10
1.2602392519685039
20
0.2785283858267716
11
1.2588905118110236
21
0.275830905511811
0
LINE
8
BLACK
6
CONTINUOUS
10
1.2588905118110236
20
0.275830905511811
11
1.2588905118110236
21
0.2734754724409449
0
LINE
8
BLACK
6
CONTINUOUS
10
1.2588905118110236
20
0.2734754724409449
11
1.2602392519685039
21
0.2707779921259842
0
LINE
8
BLACK
6
CONTINUOUS
10
1.2602392519685039
20
0.2707779921259842
11
1.261436377952756
21
0.2695808661417323
0
LINE
8
BLACK
6
CONTINUOUS
10
1.261436377952756
20
0.2695808661417323
11
1.2644673622047244
21
0.2680653937007874
0
LINE
8
BLACK
6
CONTINUOUS
10
1.2644673622047244
20
0.2680653937007874
11
1.2712994094488188
21
0.2663573622047244
0
LINE
8
BLACK
6
CONTINUOUS
10
1.2712994094488188
20
0.2663573622047244
11
1.2799461417322835
21
0.2663573622047244
0
LINE
8
BLACK
6
CONTINUOUS
10
1.2799461417322835
20
0.2663573622047244
11
1.2867781889763779
21
0.2680653937007874
0
LINE
8
BLACK
6
CONTINUOUS
10
1.2867781889763779
20
0.2680653937007874
11
1.2898091732283463
21
0.269580905511811
0
LINE
8
BLACK
6
CONTINUOUS
10
1.2898091732283463
20
0.269580905511811
11
1.2910063385826771
21
0.270778031496063
0
LINE
8
BLACK
6
CONTINUOUS
10
1.2910063385826771
20
0.270778031496063
11
1.2923550787401574
21
0.2734754724409449
0
LINE
8
BLACK
6
CONTINUOUS
10
1.2923550787401574
20
0.2734754724409449
11
1.2923550787401574
21
0.275830905511811
0
LINE
8
BLACK
6
CONTINUOUS
10
1.2923550787401574
20
0.275830905511811
11
1.2910063385826771
21
0.2785283858267716
0
LINE
8
BLACK
6
CONTINUOUS
10
1.2910063385826771
20
0.2785283858267716
11
1.2898091732283463
21
0.2797255118110236
0
LINE
8
BLACK
6
CONTINUOUS
10
1.2898091732283463
20
0.2797255118110236
11
1.2867781889763779
21
0.2812410236220472
0
LINE
8
BLACK
6
CONTINUOUS
10
1.2867781889763779
20
0.2812410236220472
11
1.2799461417322835
21
0.2829490157480315
0
LINE
8
BLACK
6
CONTINUOUS
10
1.2799461417322835
20
0.2829490157480315
11
1.2712994094488188
21
0.2829490157480315
0
LINE
8
BLACK
6
CONTINUOUS
10
1.2712994094488188
20
0.2829490157480315
11
1.2644673622047244
21
0.2812410236220472
0
LINE
8
BLACK
6
CONTINUOUS
10
1.2958838976377953
20
0.3694127559055118
11
1.2969483070866141
21
0.3689718503937008
0
LINE
8
BLACK
6
CONTINUOUS
10
1.2969483070866141
20
0.3689718503937008
11
1.2977629527559056
21
0.3681572047244094
0
LINE
8
BLACK
6
CONTINUOUS
10
1.2977629527559056
20
0.3681572047244094
11
1.2982038582677164
21
0.3670927952755905
0
LINE
8
BLACK
6
CONTINUOUS
10
1.2982038582677164
20
0.3670927952755905
11
1.2982038582677164
21
0.3659406692913386
0
LINE
8
BLACK
6
CONTINUOUS
10
1.2982038582677164
20
0.3659406692913386
11
1.2977629527559056
21
0.3648762598425197
0
LINE
8
BLACK
6
CONTINUOUS
10
1.2977629527559056
20
0.3648762598425197
11
1.2969483070866141
21
0.3640616141732284
0
LINE
8
BLACK
6
CONTINUOUS
10
1.2969483070866141
20
0.3640616141732284
11
1.2958838976377953
21
0.3636207086614173
0
LINE
8
BLACK
6
CONTINUOUS
10
1.2958838976377953
20
0.3636207086614173
11
1.2953078346456692
21
0.3635639763779527
0
LINE
8
BLACK
6
CONTINUOUS
10
1.2953078346456692
20
0.3635639763779527
11
1.275382440944882
21
0.3635639763779527
0
LINE
8
BLACK
6
CONTINUOUS
10
1.275382440944882
20
0.3635639763779527
11
1.2731366929133858
21
0.3624411417322835
0
LINE
8
BLACK
6
CONTINUOUS
10
1.2731366929133858
20
0.3624411417322835
11
1.2720138582677165
21
0.3601953937007874
0
LINE
8
BLACK
6
CONTINUOUS
10
1.2720138582677165
20
0.3601953937007874
11
1.2720138582677165
21
0.3559651574803149
0
LINE
8
BLACK
6
CONTINUOUS
10
1.2720138582677165
20
0.3559651574803149
11
1.2731366929133858
21
0.3537194488188976
0
LINE
8
BLACK
6
CONTINUOUS
10
1.2731366929133858
20
0.3537194488188976
11
1.275382440944882
21
0.3525965748031496
0
LINE
8
BLACK
6
CONTINUOUS
10
1.275382440944882
20
0.3525965748031496
11
1.2953078346456692
21
0.3525965748031496
0
LINE
8
BLACK
6
CONTINUOUS
10
1.2953078346456692
20
0.3525965748031496
11
1.2958838976377953
21
0.352539842519685
0
LINE
8
BLACK
6
CONTINUOUS
10
1.2958838976377953
20
0.352539842519685
11
1.2969483070866141
21
0.352098937007874
0
LINE
8
BLACK
6
CONTINUOUS
10
1.2969483070866141
20
0.352098937007874
11
1.2977629527559056
21
0.3512842913385827
0
LINE
8
BLACK
6
CONTINUOUS
10
1.2977629527559056
20
0.3512842913385827
11
1.2982038582677164
21
0.3502198818897638
0
LINE
8
BLACK
6
CONTINUOUS
10
1.2982038582677164
20
0.3502198818897638
11
1.2982038582677164
21
0.3490677559055118
0
LINE
8
BLACK
6
CONTINUOUS
10
1.2982038582677164
20
0.3490677559055118
11
1.2977629527559056
21
0.3480033464566929
0
LINE
8
BLACK
6
CONTINUOUS
10
1.2977629527559056
20
0.3480033464566929
11
1.2969483070866141
21
0.3471887007874015
0
LINE
8
BLACK
6
CONTINUOUS
10
1.2969483070866141
20
0.3471887007874015
11
1.2958838976377953
21
0.3467477952755905
0
LINE
8
BLACK
6
CONTINUOUS
10
1.2958838976377953
20
0.3467477952755905
11
1.2953078346456692
21
0.346691062992126
0
LINE
8
BLACK
6
CONTINUOUS
10
1.2953078346456692
20
0.346691062992126
11
1.275382440944882
21
0.346691062992126
0
LINE
8
BLACK
6
CONTINUOUS
10
1.275382440944882
20
0.346691062992126
11
1.2731366929133858
21
0.3455682283464567
0
LINE
8
BLACK
6
CONTINUOUS
10
1.2731366929133858
20
0.3455682283464567
11
1.2720138582677165
21
0.3433224803149606
0
LINE
8
BLACK
6
CONTINUOUS
10
1.2720138582677165
20
0.3433224803149606
11
1.2720138582677165
21
0.3390922834645669
0
LINE
8
BLACK
6
CONTINUOUS
10
1.2720138582677165
20
0.3390922834645669
11
1.2733625984251968
21
0.3363948031496063
0
LINE
8
BLACK
6
CONTINUOUS
10
1.2733625984251968
20
0.3363948031496063
11
1.2740337007874016
21
0.3357237007874015
0
LINE
8
BLACK
6
CONTINUOUS
10
1.2740337007874016
20
0.3357237007874015
11
1.2953078346456692
21
0.3357237007874015
0
LINE
8
BLACK
6
CONTINUOUS
10
1.2953078346456692
20
0.3357237007874015
11
1.2958838976377953
21
0.335666968503937
0
LINE
8
BLACK
6
CONTINUOUS
10
1.2958838976377953
20
0.335666968503937
11
1.2969483070866141
21
0.335226062992126
0
LINE
8
BLACK
6
CONTINUOUS
10
1.2969483070866141
20
0.335226062992126
11
1.2977629527559056
21
0.3344114173228346
0
LINE
8
BLACK
6
CONTINUOUS
10
1.2977629527559056
20
0.3344114173228346
11
1.2982038582677164
21
0.3333470078740157
0
LINE
8
BLACK
6
CONTINUOUS
10
1.2982038582677164
20
0.3333470078740157
11
1.2982038582677164
21
0.3321948818897638
0
LINE
8
BLACK
6
CONTINUOUS
10
1.2982038582677164
20
0.3321948818897638
11
1.2977629527559056
21
0.3311304724409449
0
LINE
8
BLACK
6
CONTINUOUS
10
1.2977629527559056
20
0.3311304724409449
11
1.2969483070866141
21
0.3303158267716536
0
LINE
8
BLACK
6
CONTINUOUS
10
1.2969483070866141
20
0.3303158267716536
11
1.2958838976377953
21
0.3298749212598425
0
LINE
8
BLACK
6
CONTINUOUS
10
1.2958838976377953
20
0.3298749212598425
11
1.2953078346456692
21
0.3298181889763779
0
LINE
8
BLACK
6
CONTINUOUS
10
1.2953078346456692
20
0.3298181889763779
11
1.2690611023622047
21
0.3298181889763779
0
LINE
8
BLACK
6
CONTINUOUS
10
1.2690611023622047
20
0.3298181889763779
11
1.2684850393700786
21
0.3298749212598425
0
LINE
8
BLACK
6
CONTINUOUS
10
1.2684850393700786
20
0.3298749212598425
11
1.2674206299212598
21
0.3303158267716536
0
LINE
8
BLACK
6
CONTINUOUS
10
1.2674206299212598
20
0.3303158267716536
11
1.2666059842519686
21
0.3311304724409449
0
LINE
8
BLACK
6
CONTINUOUS
10
1.2666059842519686
20
0.3311304724409449
11
1.2661650787401575
21
0.3321948818897638
0
LINE
8
BLACK
6
CONTINUOUS
10
1.2661650787401575
20
0.3321948818897638
11
1.2661650787401575
21
0.3333470078740157
0
LINE
8
BLACK
6
CONTINUOUS
10
1.2661650787401575
20
0.3333470078740157
11
1.2666059842519686
21
0.3344114173228346
0
LINE
8
BLACK
6
CONTINUOUS
10
1.2666059842519686
20
0.3344114173228346
11
1.2673698031496063
21
0.3351752755905512
0
LINE
8
BLACK
6
CONTINUOUS
10
1.2673698031496063
20
0.3351752755905512
11
1.2664200787401574
21
0.3370747244094488
0
LINE
8
BLACK
6
CONTINUOUS
10
1.2664200787401574
20
0.3370747244094488
11
1.2662131889763779
21
0.3376153543307087
0
LINE
8
BLACK
6
CONTINUOUS
10
1.2662131889763779
20
0.3376153543307087
11
1.2662056692913386
21
0.3377211811023622
0
LINE
8
BLACK
6
CONTINUOUS
10
1.2662056692913386
20
0.3377211811023622
11
1.2661650787401575
21
0.3378191732283464
0
LINE
8
BLACK
6
CONTINUOUS
10
1.2661650787401575
20
0.3378191732283464
11
1.2661083464566929
21
0.3383952362204724
0
LINE
8
BLACK
6
CONTINUOUS
10
1.2661083464566929
20
0.3383952362204724
11
1.2661083464566929
21
0.3440195275590551
0
LINE
8
BLACK
6
CONTINUOUS
10
1.2661083464566929
20
0.3440195275590551
11
1.2661650787401575
21
0.3445955905511811
0
LINE
8
BLACK
6
CONTINUOUS
10
1.2661650787401575
20
0.3445955905511811
11
1.2662056692913386
21
0.3446936220472441
0
LINE
8
BLACK
6
CONTINUOUS
10
1.2662056692913386
20
0.3446936220472441
11
1.2662131889763779
21
0.3447994094488189
0
LINE
8
BLACK
6
CONTINUOUS
10
1.2662131889763779
20
0.3447994094488189
11
1.2664200787401574
21
0.3453400393700787
0
LINE
8
BLACK
6
CONTINUOUS
10
1.2664200787401574
20
0.3453400393700787
11
1.2682948425196849
21
0.3490895669291338
0
LINE
8
BLACK
6
CONTINUOUS
10
1.2682948425196849
20
0.3490895669291338
11
1.2683554724409449
21
0.3491859448818898
0
LINE
8
BLACK
6
CONTINUOUS
10
1.2683554724409449
20
0.3491859448818898
11
1.2683706299212598
21
0.3492313385826771
0
LINE
8
BLACK
6
CONTINUOUS
10
1.2683706299212598
20
0.3492313385826771
11
1.2684196456692913
21
0.3492879133858268
0
LINE
8
BLACK
6
CONTINUOUS
10
1.2684196456692913
20
0.3492879133858268
11
1.268603188976378
21
0.3495794488188976
0
LINE
8
BLACK
6
CONTINUOUS
10
1.268603188976378
20
0.3495794488188976
11
1.268677401574803
21
0.3496438188976378
0
LINE
8
BLACK
6
CONTINUOUS
10
1.268677401574803
20
0.3496438188976378
11
1.268603188976378
21
0.349708188976378
0
LINE
8
BLACK
6
CONTINUOUS
10
1.268603188976378
20
0.349708188976378
11
1.2684196456692913
21
0.3499997637795276
0
LINE
8
BLACK
6
CONTINUOUS
10
1.2684196456692913
20
0.3499997637795276
11
1.2683706299212598
21
0.3500562992125984
0
LINE
8
BLACK
6
CONTINUOUS
10
1.2683706299212598
20
0.3500562992125984
11
1.2683554724409449
21
0.3501017322834646
0
LINE
8
BLACK
6
CONTINUOUS
10
1.2683554724409449
20
0.3501017322834646
11
1.2682948425196849
21
0.3501980708661417
0
LINE
8
BLACK
6
CONTINUOUS
10
1.2682948425196849
20
0.3501980708661417
11
1.2664200787401574
21
0.3539475984251969
0
LINE
8
BLACK
6
CONTINUOUS
10
1.2664200787401574
20
0.3539475984251969
11
1.2662131889763779
21
0.3544882283464567
0
LINE
8
BLACK
6
CONTINUOUS
10
1.2662131889763779
20
0.3544882283464567
11
1.2662056692913386
21
0.3545940551181102
0
LINE
8
BLACK
6
CONTINUOUS
10
1.2662056692913386
20
0.3545940551181102
11
1.2661650787401575
21
0.3546920472440945
0
LINE
8
BLACK
6
CONTINUOUS
10
1.2661650787401575
20
0.3546920472440945
11
1.2661083464566929
21
0.3552681102362205
0
LINE
8
BLACK
6
CONTINUOUS
10
1.2661083464566929
20
0.3552681102362205
11
1.2661083464566929
21
0.3608924015748031
0
LINE
8
BLACK
6
CONTINUOUS
10
1.2661083464566929
20
0.3608924015748031
11
1.2661650787401575
21
0.3614684645669291
0
LINE
8
BLACK
6
CONTINUOUS
10
1.2661650787401575
20
0.3614684645669291
11
1.2662056692913386
21
0.3615664960629921
0
LINE
8
BLACK
6
CONTINUOUS
10
1.2662056692913386
20
0.3615664960629921
11
1.2662131889763779
21
0.3616722834645669
0
LINE
8
BLACK
6
CONTINUOUS
10
1.2662131889763779
20
0.3616722834645669
11
1.2664200787401574
21
0.3622129133858268
0
LINE
8
BLACK
6
CONTINUOUS
10
1.2664200787401574
20
0.3622129133858268
11
1.2682948425196849
21
0.3659624803149606
0
LINE
8
BLACK
6
CONTINUOUS
10
1.2682948425196849
20
0.3659624803149606
11
1.2683554724409449
21
0.3660588188976378
0
LINE
8
BLACK
6
CONTINUOUS
10
1.2683554724409449
20
0.3660588188976378
11
1.2683706299212598
21
0.3661042519685039
0
LINE
8
BLACK
6
CONTINUOUS
10
1.2683706299212598
20
0.3661042519685039
11
1.2684196850393701
21
0.3661608661417323
0
LINE
8
BLACK
6
CONTINUOUS
10
1.2684196850393701
20
0.3661608661417323
11
1.268603188976378
21
0.3664523228346457
0
LINE
8
BLACK
6
CONTINUOUS
10
1.268603188976378
20
0.3664523228346457
11
1.2688827952755906
21
0.366694842519685
0
LINE
8
BLACK
6
CONTINUOUS
10
1.2688827952755906
20
0.366694842519685
11
1.2691254724409449
21
0.3669746456692913
0
LINE
8
BLACK
6
CONTINUOUS
10
1.2691254724409449
20
0.3669746456692913
11
1.2694170078740157
21
0.3671581889763779
0
LINE
8
BLACK
6
CONTINUOUS
10
1.2694170078740157
20
0.3671581889763779
11
1.2694735826771653
21
0.3672072047244094
0
LINE
8
BLACK
6
CONTINUOUS
10
1.2694735826771653
20
0.3672072047244094
11
1.2695189763779526
21
0.3672223622047244
0
LINE
8
BLACK
6
CONTINUOUS
10
1.2695189763779526
20
0.3672223622047244
11
1.2696153543307087
21
0.3672829921259843
0
LINE
8
BLACK
6
CONTINUOUS
10
1.2696153543307087
20
0.3672829921259843
11
1.2733648818897638
21
0.3691577559055118
0
LINE
8
BLACK
6
CONTINUOUS
10
1.2733648818897638
20
0.3691577559055118
11
1.2739054724409449
21
0.3693646456692913
0
LINE
8
BLACK
6
CONTINUOUS
10
1.2739054724409449
20
0.3693646456692913
11
1.2740113385826772
21
0.3693722047244095
0
LINE
8
BLACK
6
CONTINUOUS
10
1.2740113385826772
20
0.3693722047244095
11
1.2741093307086613
21
0.3694127559055118
0
LINE
8
BLACK
6
CONTINUOUS
10
1.2741093307086613
20
0.3694127559055118
11
1.2746853937007874
21
0.3694694881889763
0
LINE
8
BLACK
6
CONTINUOUS
10
1.2746853937007874
20
0.3694694881889763
11
1.2953078346456692
21
0.3694694881889763
0
LINE
8
BLACK
6
CONTINUOUS
10
1.2953078346456692
20
0.3694694881889763
11
1.2958838976377953
21
0.3694127559055118
0
LINE
8
BLACK
6
CONTINUOUS
10
1.2958838976377953
20
0.4219061811023622
11
1.2969483070866141
21
0.4214652755905512
0
LINE
8
BLACK
6
CONTINUOUS
10
1.2969483070866141
20
0.4214652755905512
11
1.2977629527559056
21
0.4206506299212598
0
LINE
8
BLACK
6
CONTINUOUS
10
1.2977629527559056
20
0.4206506299212598
11
1.2982038582677164
21
0.4195862204724409
0
LINE
8
BLACK
6
CONTINUOUS
10
1.2982038582677164
20
0.4195862204724409
11
1.2982038582677164
21
0.418434094488189
0
LINE
8
BLACK
6
CONTINUOUS
10
1.2982038582677164
20
0.418434094488189
11
1.2977629527559056
21
0.4173696850393701
0
LINE
8
BLACK
6
CONTINUOUS
10
1.2977629527559056
20
0.4173696850393701
11
1.2969483070866141
21
0.4165550393700787
0
LINE
8
BLACK
6
CONTINUOUS
10
1.2969483070866141
20
0.4165550393700787
11
1.2958838976377953
21
0.4161141338582677
0
LINE
8
BLACK
6
CONTINUOUS
10
1.2958838976377953
20
0.4161141338582677
11
1.2953078346456692
21
0.4160574015748031
0
LINE
8
BLACK
6
CONTINUOUS
10
1.2953078346456692
20
0.4160574015748031
11
1.275382440944882
21
0.4160574015748031
0
LINE
8
BLACK
6
CONTINUOUS
10
1.275382440944882
20
0.4160574015748031
11
1.2731366929133858
21
0.4149345669291338
0
LINE
8
BLACK
6
CONTINUOUS
10
1.2731366929133858
20
0.4149345669291338
11
1.2720138582677165
21
0.4126888188976378
0
LINE
8
BLACK
6
CONTINUOUS
10
1.2720138582677165
20
0.4126888188976378
11
1.2720138582677165
21
0.4084585826771653
0
LINE
8
BLACK
6
CONTINUOUS
10
1.2720138582677165
20
0.4084585826771653
11
1.2731366929133858
21
0.406212874015748
0
LINE
8
BLACK
6
CONTINUOUS
10
1.2731366929133858
20
0.406212874015748
11
1.275382440944882
21
0.40509
0
LINE
8
BLACK
6
CONTINUOUS
10
1.275382440944882
20
0.40509
11
1.2953078346456692
21
0.40509
0
LINE
8
BLACK
6
CONTINUOUS
10
1.2953078346456692
20
0.40509
11
1.2958838976377953
21
0.4050332677165354
0
LINE
8
BLACK
6
CONTINUOUS
10
1.2958838976377953
20
0.4050332677165354
11
1.2969483070866141
21
0.4045923622047244
0
LINE
8
BLACK
6
CONTINUOUS
10
1.2969483070866141
20
0.4045923622047244
11
1.2977629527559056
21
0.403777716535433
0
LINE
8
BLACK
6
CONTINUOUS
10
1.2977629527559056
20
0.403777716535433
11
1.2982038582677164
21
0.4027133070866142
0
LINE
8
BLACK
6
CONTINUOUS
10
1.2982038582677164
20
0.4027133070866142
11
1.2982038582677164
21
0.4015611811023622
0
LINE
8
BLACK
6
CONTINUOUS
10
1.2982038582677164
20
0.4015611811023622
11
1.2977629527559056
21
0.4004967716535433
0
LINE
8
BLACK
6
CONTINUOUS
10
1.2977629527559056
20
0.4004967716535433
11
1.2969483070866141
21
0.399682125984252
0
LINE
8
BLACK
6
CONTINUOUS
10
1.2969483070866141
20
0.399682125984252
11
1.2958838976377953
21
0.3992412204724409
0
LINE
8
BLACK
6
CONTINUOUS
10
1.2958838976377953
20
0.3992412204724409
11
1.2953078346456692
21
0.3991844881889764
0
LINE
8
BLACK
6
CONTINUOUS
10
1.2953078346456692
20
0.3991844881889764
11
1.275382440944882
21
0.3991844881889764
0
LINE
8
BLACK
6
CONTINUOUS
10
1.275382440944882
20
0.3991844881889764
11
1.2731366929133858
21
0.3980616535433071
0
LINE
8
BLACK
6
CONTINUOUS
10
1.2731366929133858
20
0.3980616535433071
11
1.2720138582677165
21
0.395815905511811
0
LINE
8
BLACK
6
CONTINUOUS
10
1.2720138582677165
20
0.395815905511811
11
1.2720138582677165
21
0.3915857086614173
0
LINE
8
BLACK
6
CONTINUOUS
10
1.2720138582677165
20
0.3915857086614173
11
1.2733625984251968
21
0.3888882283464567
0
LINE
8
BLACK
6
CONTINUOUS
10
1.2733625984251968
20
0.3888882283464567
11
1.2740337007874016
21
0.388217125984252
0
LINE
8
BLACK
6
CONTINUOUS
10
1.2740337007874016
20
0.388217125984252
11
1.2953078346456692
21
0.388217125984252
0
LINE
8
BLACK
6
CONTINUOUS
10
1.2953078346456692
20
0.388217125984252
11
1.2958838976377953
21
0.3881603937007874
0
LINE
8
BLACK
6
CONTINUOUS
10
1.2958838976377953
20
0.3881603937007874
11
1.2969483070866141
21
0.3877194881889764
0
LINE
8
BLACK
6
CONTINUOUS
10
1.2969483070866141
20
0.3877194881889764
11
1.2977629527559056
21
0.386904842519685
0
LINE
8
BLACK
6
CONTINUOUS
10
1.2977629527559056
20
0.386904842519685
11
1.2982038582677164
21
0.3858404330708661
0
LINE
8
BLACK
6
CONTINUOUS
10
1.2982038582677164
20
0.3858404330708661
11
1.2982038582677164
21
0.3846883070866142
0
LINE
8
BLACK
6
CONTINUOUS
10
1.2982038582677164
20
0.3846883070866142
11
1.2977629527559056
21
0.3836238976377953
0
LINE
8
BLACK
6
CONTINUOUS
10
1.2977629527559056
20
0.3836238976377953
11
1.2969483070866141
21
0.3828092519685039
0
LINE
8
BLACK
6
CONTINUOUS
10
1.2969483070866141
20
0.3828092519685039
11
1.2958838976377953
21
0.3823683464566929
0
LINE
8
BLACK
6
CONTINUOUS
10
1.2958838976377953
20
0.3823683464566929
11
1.2953078346456692
21
0.3823116141732283
0
LINE
8
BLACK
6
CONTINUOUS
10
1.2953078346456692
20
0.3823116141732283
11
1.2690611023622047
21
0.3823116141732283
0
LINE
8
BLACK
6
CONTINUOUS
10
1.2690611023622047
20
0.3823116141732283
11
1.2684850393700786
21
0.3823683464566929
0
LINE
8
BLACK
6
CONTINUOUS
10
1.2684850393700786
20
0.3823683464566929
11
1.2674206299212598
21
0.3828092519685039
0
LINE
8
BLACK
6
CONTINUOUS
10
1.2674206299212598
20
0.3828092519685039
11
1.2666059842519686
21
0.3836238976377953
0
LINE
8
BLACK
6
CONTINUOUS
10
1.2666059842519686
20
0.3836238976377953
11
1.2661650787401575
21
0.3846883070866142
0
LINE
8
BLACK
6
CONTINUOUS
10
1.2661650787401575
20
0.3846883070866142
11
1.2661650787401575
21
0.3858404330708661
0
LINE
8
BLACK
6
CONTINUOUS
10
1.2661650787401575
20
0.3858404330708661
11
1.2666059842519686
21
0.386904842519685
0
LINE
8
BLACK
6
CONTINUOUS
10
1.2666059842519686
20
0.386904842519685
11
1.2673698031496063
21
0.3876687007874016
0
LINE
8
BLACK
6
CONTINUOUS
10
1.2673698031496063
20
0.3876687007874016
11
1.2664200787401574
21
0.3895681496062992
0
LINE
8
BLACK
6
CONTINUOUS
10
1.2664200787401574
20
0.3895681496062992
11
1.2662131889763779
21
0.3901087795275591
0
LINE
8
BLACK
6
CONTINUOUS
10
1.2662131889763779
20
0.3901087795275591
11
1.2662056692913386
21
0.3902146062992126
0
LINE
8
BLACK
6
CONTINUOUS
10
1.2662056692913386
20
0.3902146062992126
11
1.2661650787401575
21
0.3903125984251968
0
LINE
8
BLACK
6
CONTINUOUS
10
1.2661650787401575
20
0.3903125984251968
11
1.2661083464566929
21
0.3908886614173228
0
LINE
8
BLACK
6
CONTINUOUS
10
1.2661083464566929
20
0.3908886614173228
11
1.2661083464566929
21
0.3965129527559055
0
LINE
8
BLACK
6
CONTINUOUS
10
1.2661083464566929
20
0.3965129527559055
11
1.2661650787401575
21
0.3970890157480315
0
LINE
8
BLACK
6
CONTINUOUS
10
1.2661650787401575
20
0.3970890157480315
11
1.2662056692913386
21
0.3971870472440945
0
LINE
8
BLACK
6
CONTINUOUS
10
1.2662056692913386
20
0.3971870472440945
11
1.2662131889763779
21
0.3972928346456693
0
LINE
8
BLACK
6
CONTINUOUS
10
1.2662131889763779
20
0.3972928346456693
11
1.2664200787401574
21
0.3978334645669291
0
LINE
8
BLACK
6
CONTINUOUS
10
1.2664200787401574
20
0.3978334645669291
11
1.2682948425196849
21
0.4015829921259843
0
LINE
8
BLACK
6
CONTINUOUS
10
1.2682948425196849
20
0.4015829921259843
11
1.2683554724409449
21
0.4016793700787402
0
LINE
8
BLACK
6
CONTINUOUS
10
1.2683554724409449
20
0.4016793700787402
11
1.2683706299212598
21
0.4017247637795275
0
LINE
8
BLACK
6
CONTINUOUS
10
1.2683706299212598
20
0.4017247637795275
11
1.2684196456692913
21
0.4017813385826772
0
LINE
8
BLACK
6
CONTINUOUS
10
1.2684196456692913
20
0.4017813385826772
11
1.268603188976378
21
0.402072874015748
0
LINE
8
BLACK
6
CONTINUOUS
10
1.268603188976378
20
0.402072874015748
11
1.268677401574803
21
0.4021372440944882
0
LINE
8
BLACK
6
CONTINUOUS
10
1.268677401574803
20
0.4021372440944882
11
1.268603188976378
21
0.4022016141732284
0
LINE
8
BLACK
6
CONTINUOUS
10
1.268603188976378
20
0.4022016141732284
11
1.2684196456692913
21
0.4024931889763779
0
LINE
8
BLACK
6
CONTINUOUS
10
1.2684196456692913
20
0.4024931889763779
11
1.2683706299212598
21
0.4025497244094488
0
LINE
8
BLACK
6
CONTINUOUS
10
1.2683706299212598
20
0.4025497244094488
11
1.2683554724409449
21
0.4025951574803149
0
LINE
8
BLACK
6
CONTINUOUS
10
1.2683554724409449
20
0.4025951574803149
11
1.2682948425196849
21
0.4026914960629921
0
LINE
8
BLACK
6
CONTINUOUS
10
1.2682948425196849
20
0.4026914960629921
11
1.2664200787401574
21
0.4064410236220473
0
LINE
8
BLACK
6
CONTINUOUS
10
1.2664200787401574
20
0.4064410236220473
11
1.2662131889763779
21
0.4069816535433071
0
LINE
8
BLACK
6
CONTINUOUS
10
1.2662131889763779
20
0.4069816535433071
11
1.2662056692913386
21
0.4070874803149606
0
LINE
8
BLACK
6
CONTINUOUS
10
1.2662056692913386
20
0.4070874803149606
11
1.2661650787401575
21
0.4071854724409449
0
LINE
8
BLACK
6
CONTINUOUS
10
1.2661650787401575
20
0.4071854724409449
11
1.2661083464566929
21
0.4077615354330709
0
LINE
8
BLACK
6
CONTINUOUS
10
1.2661083464566929
20
0.4077615354330709
11
1.2661083464566929
21
0.4133858267716535
0
LINE
8
BLACK
6
CONTINUOUS
10
1.2661083464566929
20
0.4133858267716535
11
1.2661650787401575
21
0.4139618897637795
0
LINE
8
BLACK
6
CONTINUOUS
10
1.2661650787401575
20
0.4139618897637795
11
1.2662056692913386
21
0.4140599212598425
0
LINE
8
BLACK
6
CONTINUOUS
10
1.2662056692913386
20
0.4140599212598425
11
1.2662131889763779
21
0.4141657086614173
0
LINE
8
BLACK
6
CONTINUOUS
10
1.2662131889763779
20
0.4141657086614173
11
1.2664200787401574
21
0.4147063385826771
0
LINE
8
BLACK
6
CONTINUOUS
10
1.2664200787401574
20
0.4147063385826771
11
1.2682948425196849
21
0.418455905511811
0
LINE
8
BLACK
6
CONTINUOUS
10
1.2682948425196849
20
0.418455905511811
11
1.2683554724409449
21
0.4185522440944882
0
LINE
8
BLACK
6
CONTINUOUS
10
1.2683554724409449
20
0.4185522440944882
11
1.2683706299212598
21
0.4185976771653543
0
LINE
8
BLACK
6
CONTINUOUS
10
1.2683706299212598
20
0.4185976771653543
11
1.2684196850393701
21
0.4186542913385827
0
LINE
8
BLACK
6
CONTINUOUS
10
1.2684196850393701
20
0.4186542913385827
11
1.268603188976378
21
0.418945748031496
0
LINE
8
BLACK
6
CONTINUOUS
10
1.268603188976378
20
0.418945748031496
11
1.2688827952755906
21
0.4191882677165354
0
LINE
8
BLACK
6
CONTINUOUS
10
1.2688827952755906
20
0.4191882677165354
11
1.2691254724409449
21
0.4194680708661417
0
LINE
8
BLACK
6
CONTINUOUS
10
1.2691254724409449
20
0.4194680708661417
11
1.2694170078740157
21
0.4196516141732283
0
LINE
8
BLACK
6
CONTINUOUS
10
1.2694170078740157
20
0.4196516141732283
11
1.2694735826771653
21
0.4197006299212598
0
LINE
8
BLACK
6
CONTINUOUS
10
1.2694735826771653
20
0.4197006299212598
11
1.2695189763779526
21
0.4197157874015748
0
LINE
8
BLACK
6
CONTINUOUS
10
1.2695189763779526
20
0.4197157874015748
11
1.2696153543307087
21
0.4197764173228347
0
LINE
8
BLACK
6
CONTINUOUS
10
1.2696153543307087
20
0.4197764173228347
11
1.2733648818897638
21
0.4216511811023622
0
LINE
8
BLACK
6
CONTINUOUS
10
1.2733648818897638
20
0.4216511811023622
11
1.2739054724409449
21
0.4218580708661417
0
LINE
8
BLACK
6
CONTINUOUS
10
1.2739054724409449
20
0.4218580708661417
11
1.2740113385826772
21
0.4218656299212598
0
LINE
8
BLACK
6
CONTINUOUS
10
1.2740113385826772
20
0.4218656299212598
11
1.2741093307086613
21
0.4219061811023622
0
LINE
8
BLACK
6
CONTINUOUS
10
1.2741093307086613
20
0.4219061811023622
11
1.2746853937007874
21
0.4219629133858268
0
LINE
8
BLACK
6
CONTINUOUS
10
1.2746853937007874
20
0.4219629133858268
11
1.2953078346456692
21
0.4219629133858268
0
LINE
8
BLACK
6
CONTINUOUS
10
1.2953078346456692
20
0.4219629133858268
11
1.2958838976377953
21
0.4219061811023622
0
LINE
8
BLACK
6
CONTINUOUS
10
1.137660748031496
20
0.7667233070866142
11
1.1791338582677164
21
0.745133779527559
0
LINE
8
BLACK
6
CONTINUOUS
10
1.1791338582677164
20
0.745133779527559
11
1.1791338582677164
21
0.7649771653543307
0
LINE
8
BLACK
6
CONTINUOUS
10
1.1791338582677164
20
0.7649771653543307
11
1.1792837007874015
21
0.7657304724409448
0
LINE
8
BLACK
6
CONTINUOUS
10
1.1792837007874015
20
0.7657304724409448
11
1.1803490551181102
21
0.7667958267716535
0
LINE
8
BLACK
6
CONTINUOUS
10
1.1803490551181102
20
0.7667958267716535
11
1.1818556692913385
21
0.7667958267716535
0
LINE
8
BLACK
6
CONTINUOUS
10
1.1818556692913385
20
0.7667958267716535
11
1.1829210236220473
21
0.7657304724409448
0
LINE
8
BLACK
6
CONTINUOUS
10
1.1829210236220473
20
0.7657304724409448
11
1.1830708661417322
21
0.7649771653543307
0
LINE
8
BLACK
6
CONTINUOUS
10
1.1830708661417322
20
0.7649771653543307
11
1.1830708661417322
21
0.610236220472441
0
LINE
8
BLACK
6
CONTINUOUS
10
1.1830708661417322
20
0.610236220472441
11
1.1829210236220473
21
0.6094829133858267
0
LINE
8
BLACK
6
CONTINUOUS
10
1.1829210236220473
20
0.6094829133858267
11
1.1818556692913385
21
0.6084175590551181
0
LINE
8
BLACK
6
CONTINUOUS
10
1.1818556692913385
20
0.6084175590551181
11
1.1803490551181102
21
0.6084175590551181
0
LINE
8
BLACK
6
CONTINUOUS
10
1.1803490551181102
20
0.6084175590551181
11
1.1792837007874015
21
0.6094829133858267
0
LINE
8
BLACK
6
CONTINUOUS
10
1.1792837007874015
20
0.6094829133858267
11
1.1791338582677164
21
0.610236220472441
0
LINE
8
BLACK
6
CONTINUOUS
10
1.1791338582677164
20
0.610236220472441
11
1.1791338582677164
21
0.7386457874015748
0
LINE
8
BLACK
6
CONTINUOUS
10
1.1791338582677164
20
0.7386457874015748
11
1.137660748031496
21
0.7170562204724409
0
LINE
8
BLACK
6
CONTINUOUS
10
1.137660748031496
20
0.7170562204724409
11
1.1369233858267715
21
0.7168412992125984
0
LINE
8
BLACK
6
CONTINUOUS
10
1.1369233858267715
20
0.7168412992125984
11
1.135486496062992
21
0.7172943700787402
0
LINE
8
BLACK
6
CONTINUOUS
10
1.135486496062992
20
0.7172943700787402
11
1.1347907874015748
21
0.7186307480314961
0
LINE
8
BLACK
6
CONTINUOUS
10
1.1347907874015748
20
0.7186307480314961
11
1.1352438582677165
21
0.7200676377952756
0
LINE
8
BLACK
6
CONTINUOUS
10
1.1352438582677165
20
0.7200676377952756
11
1.135842874015748
21
0.7205484251968504
0
LINE
8
BLACK
6
CONTINUOUS
10
1.135842874015748
20
0.7205484251968504
11
1.1730577559055118
21
0.7399212598425197
0
LINE
8
BLACK
6
CONTINUOUS
10
1.1730577559055118
20
0.7399212598425197
11
0.0080446456692913
21
0.7399212598425197
0
LINE
8
BLACK
6
CONTINUOUS
10
0.0080446456692913
20
0.7399212598425197
11
0.0452594881889764
21
0.7205484251968504
0
LINE
8
BLACK
6
CONTINUOUS
10
0.0452594881889764
20
0.7205484251968504
11
0.0458585039370079
21
0.7200676771653544
0
LINE
8
BLACK
6
CONTINUOUS
10
0.0458585039370079
20
0.7200676771653544
11
0.0463115354330709
21
0.7186307480314961
0
LINE
8
BLACK
6
CONTINUOUS
10
0.0463115354330709
20
0.7186307480314961
11
0.0456158661417323
21
0.7172943700787402
0
LINE
8
BLACK
6
CONTINUOUS
10
0.0456158661417323
20
0.7172943700787402
11
0.0441789763779528
21
0.7168412992125984
0
LINE
8
BLACK
6
CONTINUOUS
10
0.0441789763779528
20
0.7168412992125984
11
0.0434415748031496
21
0.7170562598425196
0
LINE
8
BLACK
6
CONTINUOUS
10
0.0434415748031496
20
0.7170562598425196
11
0.0019685039370079
21
0.7386457874015748
0
LINE
8
BLACK
6
CONTINUOUS
10
0.0019685039370079
20
0.7386457874015748
11
0.0019685039370079
21
0.610236220472441
0
LINE
8
BLACK
6
CONTINUOUS
10
0.0019685039370079
20
0.610236220472441
11
0.0018186614173228
21
0.6094829133858267
0
LINE
8
BLACK
6
CONTINUOUS
10
0.0018186614173228
20
0.6094829133858267
11
0.0007533070866142
21
0.6084175590551181
0
LINE
8
BLACK
6
CONTINUOUS
10
0.0007533070866142
20
0.6084175590551181
11
-0.0007533070866142
21
0.6084175590551181
0
LINE
8
BLACK
6
CONTINUOUS
10
-0.0007533070866142
20
0.6084175590551181
11
-0.0018186614173228
21
0.6094829133858267
0
LINE
8
BLACK
6
CONTINUOUS
10
-0.0018186614173228
20
0.6094829133858267
11
-0.0019685039370079
21
0.610236220472441
0
LINE
8
BLACK
6
CONTINUOUS
10
-0.0019685039370079
20
0.610236220472441
11
-0.0019685039370079
21
0.7649771653543307
0
LINE
8
BLACK
6
CONTINUOUS
10
-0.0019685039370079
20
0.7649771653543307
11
-0.0018186614173228
21
0.7657304724409448
0
LINE
8
BLACK
6
CONTINUOUS
10
-0.0018186614173228
20
0.7657304724409448
11
-0.0007533070866142
21
0.7667958267716535
0
LINE
8
BLACK
6
CONTINUOUS
10
-0.0007533070866142
20
0.7667958267716535
11
0.0007533070866142
21
0.7667958267716535
0
LINE
8
BLACK
6
CONTINUOUS
10
0.0007533070866142
20
0.7667958267716535
11
0.0018186614173228
21
0.7657304724409448
0
LINE
8
BLACK
6
CONTINUOUS
10
0.0018186614173228
20
0.7657304724409448
11
0.0019685039370079
21
0.7649771653543307
0
LINE
8
BLACK
6
CONTINUOUS
10
0.0019685039370079
20
0.7649771653543307
11
0.0019685039370079
21
0.745133779527559
0
LINE
8
BLACK
6
CONTINUOUS
10
0.0019685039370079
20
0.745133779527559
11
0.0434415748031496
21
0.7667232677165354
0
LINE
8
BLACK
6
CONTINUOUS
10
0.0434415748031496
20
0.7667232677165354
11
0.0441789763779528
21
0.7669382283464566
0
LINE
8
BLACK
6
CONTINUOUS
10
0.0441789763779528
20
0.7669382283464566
11
0.0456158661417323
21
0.766485157480315
0
LINE
8
BLACK
6
CONTINUOUS
10
0.0456158661417323
20
0.766485157480315
11
0.0463115354330709
21
0.765148779527559
0
LINE
8
BLACK
6
CONTINUOUS
10
0.0463115354330709
20
0.765148779527559
11
0.0458585039370079
21
0.7637118503937008
0
LINE
8
BLACK
6
CONTINUOUS
10
0.0458585039370079
20
0.7637118503937008
11
0.0452594881889764
21
0.7632311023622047
0
LINE
8
BLACK
6
CONTINUOUS
10
0.0452594881889764
20
0.7632311023622047
11
0.0080446456692913
21
0.7438582677165354
0
LINE
8
BLACK
6
CONTINUOUS
10
0.0080446456692913
20
0.7438582677165354
11
1.1730577559055118
21
0.7438582677165354
0
LINE
8
BLACK
6
CONTINUOUS
10
1.1730577559055118
20
0.7438582677165354
11
1.135842874015748
21
0.7632311023622047
0
LINE
8
BLACK
6
CONTINUOUS
10
1.135842874015748
20
0.7632311023622047
11
1.1352438582677165
21
0.7637118897637795
0
LINE
8
BLACK
6
CONTINUOUS
10
1.1352438582677165
20
0.7637118897637795
11
1.1347907874015748
21
0.765148779527559
0
LINE
8
BLACK
6
CONTINUOUS
10
1.1347907874015748
20
0.765148779527559
11
1.135486496062992
21
0.766485157480315
0
LINE
8
BLACK
6
CONTINUOUS
10
1.135486496062992
20
0.766485157480315
11
1.1369233858267715
21
0.7669382283464566
0
LINE
8
BLACK
6
CONTINUOUS
10
1.1369233858267715
20
0.7669382283464566
11
1.137660748031496
21
0.7667233070866142
0
LINE
8
BLACK
6
CONTINUOUS
10
0.4877437007874016
20
0.8115519291338582
11
0.4878211811023622
21
0.8115570866141733
0
LINE
8
BLACK
6
CONTINUOUS
10
0.4878211811023622
20
0.8115570866141733
11
0.4878745275590551
21
0.8115390551181102
0
LINE
8
BLACK
6
CONTINUOUS
10
0.4878745275590551
20
0.8115390551181102
11
0.4880151181102362
21
0.8115251968503937
0
LINE
8
BLACK
6
CONTINUOUS
10
0.4880151181102362
20
0.8115251968503937
11
0.4884583070866141
21
0.8113416141732284
0
LINE
8
BLACK
6
CONTINUOUS
10
0.4884583070866141
20
0.8113416141732284
11
0.4889125590551181
21
0.8111879921259842
0
LINE
8
BLACK
6
CONTINUOUS
10
0.4889125590551181
20
0.8111879921259842
11
0.4889875196850393
21
0.8111224409448818
0
LINE
8
BLACK
6
CONTINUOUS
10
0.4889875196850393
20
0.8111224409448818
11
0.4890795275590551
21
0.8110842913385826
0
LINE
8
BLACK
6
CONTINUOUS
10
0.4890795275590551
20
0.8110842913385826
11
0.4894185039370079
21
0.8107453149606298
0
LINE
8
BLACK
6
CONTINUOUS
10
0.4894185039370079
20
0.8107453149606298
11
0.4897796456692913
21
0.8104293307086614
0
LINE
8
BLACK
6
CONTINUOUS
10
0.4897796456692913
20
0.8104293307086614
11
0.4898238188976378
21
0.8103399999999999
0
LINE
8
BLACK
6
CONTINUOUS
10
0.4898238188976378
20
0.8103399999999999
11
0.4898941732283464
21
0.8102696456692913
0
LINE
8
BLACK
6
CONTINUOUS
10
0.4898941732283464
20
0.8102696456692913
11
0.4900776377952756
21
0.8098267322834646
0
LINE
8
BLACK
6
CONTINUOUS
10
0.4900776377952756
20
0.8098267322834646
11
0.4902903543307087
21
0.8093965748031496
0
LINE
8
BLACK
6
CONTINUOUS
10
0.4902903543307087
20
0.8093965748031496
11
0.490296968503937
21
0.8092972440944882
0
LINE
8
BLACK
6
CONTINUOUS
10
0.490296968503937
20
0.8092972440944882
11
0.4903350787401575
21
0.8092052362204725
0
LINE
8
BLACK
6
CONTINUOUS
10
0.4903350787401575
20
0.8092052362204725
11
0.4903350787401575
21
0.8087255511811023
0
LINE
8
BLACK
6
CONTINUOUS
10
0.4903350787401575
20
0.8087255511811023
11
0.490366968503937
21
0.8082470472440945
0
LINE
8
BLACK
6
CONTINUOUS
10
0.490366968503937
20
0.8082470472440945
11
0.4903350787401575
21
0.8081527559055118
0
LINE
8
BLACK
6
CONTINUOUS
10
0.4903350787401575
20
0.8081527559055118
11
0.4903350787401575
21
0.8080531102362205
0
LINE
8
BLACK
6
CONTINUOUS
10
0.4903350787401575
20
0.8080531102362205
11
0.4901514566929134
21
0.8076099212598425
0
LINE
8
BLACK
6
CONTINUOUS
10
0.4901514566929134
20
0.8076099212598425
11
0.489997874015748
21
0.8071556692913385
0
LINE
8
BLACK
6
CONTINUOUS
10
0.489997874015748
20
0.8071556692913385
11
0.4899157480314961
21
0.8070408267716536
0
LINE
8
BLACK
6
CONTINUOUS
10
0.4899157480314961
20
0.8070408267716536
11
0.4898941732283464
21
0.8069887007874016
0
LINE
8
BLACK
6
CONTINUOUS
10
0.4898941732283464
20
0.8069887007874016
11
0.4898392125984252
21
0.8069337795275591
0
LINE
8
BLACK
6
CONTINUOUS
10
0.4898392125984252
20
0.8069337795275591
11
0.4896612204724409
21
0.8066847637795276
0
LINE
8
BLACK
6
CONTINUOUS
10
0.4896612204724409
20
0.8066847637795276
11
0.4807283070866142
21
0.796475748031496
0
LINE
8
BLACK
6
CONTINUOUS
10
0.4807283070866142
20
0.796475748031496
11
0.4812605118110236
21
0.7962720866141733
0
LINE
8
BLACK
6
CONTINUOUS
10
0.4812605118110236
20
0.7962720866141733
11
0.4850100393700787
21
0.7943973228346457
0
LINE
8
BLACK
6
CONTINUOUS
10
0.4850100393700787
20
0.7943973228346457
11
0.485258031496063
21
0.7942412598425197
0
LINE
8
BLACK
6
CONTINUOUS
10
0.485258031496063
20
0.7942412598425197
11
0.48533
21
0.7942114173228346
0
LINE
8
BLACK
6
CONTINUOUS
10
0.48533
20
0.7942114173228346
11
0.4854109448818897
21
0.7941449606299212
0
LINE
8
BLACK
6
CONTINUOUS
10
0.4854109448818897
20
0.7941449606299212
11
0.4854999212598425
21
0.7940889763779527
0
LINE
8
BLACK
6
CONTINUOUS
10
0.4854999212598425
20
0.7940889763779527
11
0.485551062992126
21
0.79403
0
LINE
8
BLACK
6
CONTINUOUS
10
0.485551062992126
20
0.79403
11
0.4857774409448819
21
0.7938442125984252
0
LINE
8
BLACK
6
CONTINUOUS
10
0.4857774409448819
20
0.7938442125984252
11
0.4876522047244095
21
0.7919694488188976
0
LINE
8
BLACK
6
CONTINUOUS
10
0.4876522047244095
20
0.7919694488188976
11
0.4878379527559055
21
0.7917431102362205
0
LINE
8
BLACK
6
CONTINUOUS
10
0.4878379527559055
20
0.7917431102362205
11
0.487896968503937
21
0.7916919291338582
0
LINE
8
BLACK
6
CONTINUOUS
10
0.487896968503937
20
0.7916919291338582
11
0.4879529133858267
21
0.7916029921259843
0
LINE
8
BLACK
6
CONTINUOUS
10
0.4879529133858267
20
0.7916029921259843
11
0.4880194094488189
21
0.7915220078740157
0
LINE
8
BLACK
6
CONTINUOUS
10
0.4880194094488189
20
0.7915220078740157
11
0.4880492125984252
21
0.7914500787401575
0
LINE
8
BLACK
6
CONTINUOUS
10
0.4880492125984252
20
0.7914500787401575
11
0.4882053149606299
21
0.7912020472440945
0
LINE
8
BLACK
6
CONTINUOUS
10
0.4882053149606299
20
0.7912020472440945
11
0.4900800787401575
21
0.7874525196850394
0
LINE
8
BLACK
6
CONTINUOUS
10
0.4900800787401575
20
0.7874525196850394
11
0.490286968503937
21
0.7869119291338582
0
LINE
8
BLACK
6
CONTINUOUS
10
0.490286968503937
20
0.7869119291338582
11
0.4902944881889764
21
0.786806062992126
0
LINE
8
BLACK
6
CONTINUOUS
10
0.4902944881889764
20
0.786806062992126
11
0.4903350787401575
21
0.7867080708661417
0
LINE
8
BLACK
6
CONTINUOUS
10
0.4903350787401575
20
0.7867080708661417
11
0.4903918110236221
21
0.7861320078740157
0
LINE
8
BLACK
6
CONTINUOUS
10
0.4903918110236221
20
0.7861320078740157
11
0.4903918110236221
21
0.7767581889763779
0
LINE
8
BLACK
6
CONTINUOUS
10
0.4903918110236221
20
0.7767581889763779
11
0.4903350787401575
21
0.776182125984252
0
LINE
8
BLACK
6
CONTINUOUS
10
0.4903350787401575
20
0.776182125984252
11
0.4902944881889764
21
0.7760841732283464
0
LINE
8
BLACK
6
CONTINUOUS
10
0.4902944881889764
20
0.7760841732283464
11
0.490286968503937
21
0.7759782677165354
0
LINE
8
BLACK
6
CONTINUOUS
10
0.490286968503937
20
0.7759782677165354
11
0.4900800787401575
21
0.7754376771653543
0
LINE
8
BLACK
6
CONTINUOUS
10
0.4900800787401575
20
0.7754376771653543
11
0.4882053149606299
21
0.7716881496062992
0
LINE
8
BLACK
6
CONTINUOUS
10
0.4882053149606299
20
0.7716881496062992
11
0.4880492519685039
21
0.7714402755905512
0
LINE
8
BLACK
6
CONTINUOUS
10
0.4880492519685039
20
0.7714402755905512
11
0.4880194488188976
21
0.7713682283464567
0
LINE
8
BLACK
6
CONTINUOUS
10
0.4880194488188976
20
0.7713682283464567
11
0.4879529133858267
21
0.7712872047244095
0
LINE
8
BLACK
6
CONTINUOUS
10
0.4879529133858267
20
0.7712872047244095
11
0.487896968503937
21
0.7711982677165354
0
LINE
8
BLACK
6
CONTINUOUS
10
0.487896968503937
20
0.7711982677165354
11
0.4878379527559055
21
0.7711471259842519
0
LINE
8
BLACK
6
CONTINUOUS
10
0.4878379527559055
20
0.7711471259842519
11
0.4876522047244095
21
0.770920748031496
0
LINE
8
BLACK
6
CONTINUOUS
10
0.4876522047244095
20
0.770920748031496
11
0.4857774803149606
21
0.7690459842519685
0
LINE
8
BLACK
6
CONTINUOUS
10
0.4857774803149606
20
0.7690459842519685
11
0.4855511023622047
21
0.7688602362204724
0
LINE
8
BLACK
6
CONTINUOUS
10
0.4855511023622047
20
0.7688602362204724
11
0.4854999212598425
21
0.7688011811023622
0
LINE
8
BLACK
6
CONTINUOUS
10
0.4854999212598425
20
0.7688011811023622
11
0.4854109448818897
21
0.7687451968503937
0
LINE
8
BLACK
6
CONTINUOUS
10
0.4854109448818897
20
0.7687451968503937
11
0.48533
21
0.7686787401574803
0
LINE
8
BLACK
6
CONTINUOUS
10
0.48533
20
0.7686787401574803
11
0.485258031496063
21
0.768648937007874
0
LINE
8
BLACK
6
CONTINUOUS
10
0.485258031496063
20
0.768648937007874
11
0.4850100393700787
21
0.7684928346456693
0
LINE
8
BLACK
6
CONTINUOUS
10
0.4850100393700787
20
0.7684928346456693
11
0.4812605118110236
21
0.7666180708661418
0
LINE
8
BLACK
6
CONTINUOUS
10
0.4812605118110236
20
0.7666180708661418
11
0.4807198818897638
21
0.7664111811023622
0
LINE
8
BLACK
6
CONTINUOUS
10
0.4807198818897638
20
0.7664111811023622
11
0.4806140551181102
21
0.7664037007874016
0
LINE
8
BLACK
6
CONTINUOUS
10
0.4806140551181102
20
0.7664037007874016
11
0.480516062992126
21
0.7663630708661417
0
LINE
8
BLACK
6
CONTINUOUS
10
0.480516062992126
20
0.7663630708661417
11
0.47994
21
0.7663063385826772
0
LINE
8
BLACK
6
CONTINUOUS
10
0.47994
20
0.7663063385826772
11
0.4686914173228346
21
0.7663063385826772
0
LINE
8
BLACK
6
CONTINUOUS
10
0.4686914173228346
20
0.7663063385826772
11
0.4681153543307087
21
0.7663630708661417
0
LINE
8
BLACK
6
CONTINUOUS
10
0.4681153543307087
20
0.7663630708661417
11
0.4680173622047244
21
0.7664036614173229
0
LINE
8
BLACK
6
CONTINUOUS
10
0.4680173622047244
20
0.7664036614173229
11
0.4679114960629921
21
0.7664111811023622
0
LINE
8
BLACK
6
CONTINUOUS
10
0.4679114960629921
20
0.7664111811023622
11
0.467370905511811
21
0.7666180708661418
0
LINE
8
BLACK
6
CONTINUOUS
10
0.467370905511811
20
0.7666180708661418
11
0.4636213779527559
21
0.7684928346456693
0
LINE
8
BLACK
6
CONTINUOUS
10
0.4636213779527559
20
0.7684928346456693
11
0.4633733464566929
21
0.768648937007874
0
LINE
8
BLACK
6
CONTINUOUS
10
0.4633733464566929
20
0.768648937007874
11
0.4633014173228346
21
0.7686787401574803
0
LINE
8
BLACK
6
CONTINUOUS
10
0.4633014173228346
20
0.7686787401574803
11
0.4632204330708661
21
0.7687451968503937
0
LINE
8
BLACK
6
CONTINUOUS
10
0.4632204330708661
20
0.7687451968503937
11
0.4631314960629921
21
0.7688011811023622
0
LINE
8
BLACK
6
CONTINUOUS
10
0.4631314960629921
20
0.7688011811023622
11
0.4630802755905511
21
0.7688602362204724
0
LINE
8
BLACK
6
CONTINUOUS
10
0.4630802755905511
20
0.7688602362204724
11
0.462853937007874
21
0.7690459842519685
0
LINE
8
BLACK
6
CONTINUOUS
10
0.462853937007874
20
0.7690459842519685
11
0.4609791732283465
21
0.7709207874015748
0
LINE
8
BLACK
6
CONTINUOUS
10
0.4609791732283465
20
0.7709207874015748
11
0.460611968503937
21
0.7713682283464567
0
LINE
8
BLACK
6
CONTINUOUS
10
0.460611968503937
20
0.7713682283464567
11
0.4601711023622047
21
0.7724326377952756
0
LINE
8
BLACK
6
CONTINUOUS
10
0.4601711023622047
20
0.7724326377952756
11
0.4601711023622047
21
0.7735847244094488
0
LINE
8
BLACK
6
CONTINUOUS
10
0.4601711023622047
20
0.7735847244094488
11
0.4606120078740157
21
0.7746491338582677
0
LINE
8
BLACK
6
CONTINUOUS
10
0.4606120078740157
20
0.7746491338582677
11
0.4614266929133858
21
0.7754638188976378
0
LINE
8
BLACK
6
CONTINUOUS
10
0.4614266929133858
20
0.7754638188976378
11
0.4624911023622047
21
0.77590468503937
0
LINE
8
BLACK
6
CONTINUOUS
10
0.4624911023622047
20
0.77590468503937
11
0.463643188976378
21
0.77590468503937
0
LINE
8
BLACK
6
CONTINUOUS
10
0.463643188976378
20
0.77590468503937
11
0.4647075984251968
21
0.7754637795275591
0
LINE
8
BLACK
6
CONTINUOUS
10
0.4647075984251968
20
0.7754637795275591
11
0.4651550787401575
21
0.7750965354330709
0
LINE
8
BLACK
6
CONTINUOUS
10
0.4651550787401575
20
0.7750965354330709
11
0.4666909842519685
21
0.7735605905511811
0
LINE
8
BLACK
6
CONTINUOUS
10
0.4666909842519685
20
0.7735605905511811
11
0.4693884645669291
21
0.7722118503937008
0
LINE
8
BLACK
6
CONTINUOUS
10
0.4693884645669291
20
0.7722118503937008
11
0.4792429527559055
21
0.7722118503937008
0
LINE
8
BLACK
6
CONTINUOUS
10
0.4792429527559055
20
0.7722118503937008
11
0.4819403937007874
21
0.7735605905511811
0
LINE
8
BLACK
6
CONTINUOUS
10
0.4819403937007874
20
0.7735605905511811
11
0.4831375196850394
21
0.7747577559055118
0
LINE
8
BLACK
6
CONTINUOUS
10
0.4831375196850394
20
0.7747577559055118
11
0.4844862992125984
21
0.7774552362204724
0
LINE
8
BLACK
6
CONTINUOUS
10
0.4844862992125984
20
0.7774552362204724
11
0.4844862992125984
21
0.7854349606299212
0
LINE
8
BLACK
6
CONTINUOUS
10
0.4844862992125984
20
0.7854349606299212
11
0.4831375590551181
21
0.7881324409448819
0
LINE
8
BLACK
6
CONTINUOUS
10
0.4831375590551181
20
0.7881324409448819
11
0.4819404330708661
21
0.7893295669291338
0
LINE
8
BLACK
6
CONTINUOUS
10
0.4819404330708661
20
0.7893295669291338
11
0.4792429527559055
21
0.7906783070866141
0
LINE
8
BLACK
6
CONTINUOUS
10
0.4792429527559055
20
0.7906783070866141
11
0.4743157086614173
21
0.7906783070866141
0
LINE
8
BLACK
6
CONTINUOUS
10
0.4743157086614173
20
0.7906783070866141
11
0.4740110236220472
21
0.7907083464566929
0
LINE
8
BLACK
6
CONTINUOUS
10
0.4740110236220472
20
0.7907083464566929
11
0.4739335826771653
21
0.7907031496062992
0
LINE
8
BLACK
6
CONTINUOUS
10
0.4739335826771653
20
0.7907031496062992
11
0.4738801968503937
21
0.790721220472441
0
LINE
8
BLACK
6
CONTINUOUS
10
0.4738801968503937
20
0.790721220472441
11
0.4737396456692913
21
0.7907350393700787
0
LINE
8
BLACK
6
CONTINUOUS
10
0.4737396456692913
20
0.7907350393700787
11
0.4732964173228346
21
0.7909186614173228
0
LINE
8
BLACK
6
CONTINUOUS
10
0.4732964173228346
20
0.7909186614173228
11
0.4728422047244095
21
0.7910722440944882
0
LINE
8
BLACK
6
CONTINUOUS
10
0.4728422047244095
20
0.7910722440944882
11
0.4727672047244094
21
0.7911378346456692
0
LINE
8
BLACK
6
CONTINUOUS
10
0.4727672047244094
20
0.7911378346456692
11
0.4726752362204724
21
0.7911759448818897
0
LINE
8
BLACK
6
CONTINUOUS
10
0.4726752362204724
20
0.7911759448818897
11
0.4723362204724409
21
0.7915149606299212
0
LINE
8
BLACK
6
CONTINUOUS
10
0.4723362204724409
20
0.7915149606299212
11
0.4719751181102362
21
0.791830905511811
0
LINE
8
BLACK
6
CONTINUOUS
10
0.4719751181102362
20
0.791830905511811
11
0.471930905511811
21
0.7919202755905511
0
LINE
8
BLACK
6
CONTINUOUS
10
0.471930905511811
20
0.7919202755905511
11
0.4718605905511811
21
0.791990590551181
0
LINE
8
BLACK
6
CONTINUOUS
10
0.4718605905511811
20
0.791990590551181
11
0.4716770866141732
21
0.7924335433070866
0
LINE
8
BLACK
6
CONTINUOUS
10
0.4716770866141732
20
0.7924335433070866
11
0.4714644094488189
21
0.7928636614173228
0
LINE
8
BLACK
6
CONTINUOUS
10
0.4714644094488189
20
0.7928636614173228
11
0.4714577559055118
21
0.792963031496063
0
LINE
8
BLACK
6
CONTINUOUS
10
0.4714577559055118
20
0.792963031496063
11
0.4714196850393701
21
0.793055
0
LINE
8
BLACK
6
CONTINUOUS
10
0.4714196850393701
20
0.793055
11
0.4714196850393701
21
0.7935347244094488
0
LINE
8
BLACK
6
CONTINUOUS
10
0.4714196850393701
20
0.7935347244094488
11
0.4713877952755905
21
0.794013188976378
0
LINE
8
BLACK
6
CONTINUOUS
10
0.4713877952755905
20
0.794013188976378
11
0.4714196850393701
21
0.7941075196850393
0
LINE
8
BLACK
6
CONTINUOUS
10
0.4714196850393701
20
0.7941075196850393
11
0.4714196850393701
21
0.7942071259842519
0
LINE
8
BLACK
6
CONTINUOUS
10
0.4714196850393701
20
0.7942071259842519
11
0.4716032677165354
21
0.7946503543307086
0
LINE
8
BLACK
6
CONTINUOUS
10
0.4716032677165354
20
0.7946503543307086
11
0.4717568897637795
21
0.7951045669291339
0
LINE
8
BLACK
6
CONTINUOUS
10
0.4717568897637795
20
0.7951045669291339
11
0.4718389763779527
21
0.7952194488188976
0
LINE
8
BLACK
6
CONTINUOUS
10
0.4718389763779527
20
0.7952194488188976
11
0.4718605905511811
21
0.7952715354330708
0
LINE
8
BLACK
6
CONTINUOUS
10
0.4718605905511811
20
0.7952715354330708
11
0.4719155118110236
21
0.7953264960629921
0
LINE
8
BLACK
6
CONTINUOUS
10
0.4719155118110236
20
0.7953264960629921
11
0.4720935433070866
21
0.7955754724409448
0
LINE
8
BLACK
6
CONTINUOUS
10
0.4720935433070866
20
0.7955754724409448
11
0.4809318897637795
21
0.8056764173228347
0
LINE
8
BLACK
6
CONTINUOUS
10
0.4809318897637795
20
0.8056764173228347
11
0.463067125984252
21
0.8056764173228347
0
LINE
8
BLACK
6
CONTINUOUS
10
0.463067125984252
20
0.8056764173228347
11
0.462491062992126
21
0.8057331496062992
0
LINE
8
BLACK
6
CONTINUOUS
10
0.462491062992126
20
0.8057331496062992
11
0.4614266535433071
21
0.8061740551181102
0
LINE
8
BLACK
6
CONTINUOUS
10
0.4614266535433071
20
0.8061740551181102
11
0.4606120078740157
21
0.8069887007874016
0
LINE
8
BLACK
6
CONTINUOUS
10
0.4606120078740157
20
0.8069887007874016
11
0.4601711023622047
21
0.8080531102362205
0
LINE
8
BLACK
6
CONTINUOUS
10
0.4601711023622047
20
0.8080531102362205
11
0.4601711023622047
21
0.8092052362204725
0
LINE
8
BLACK
6
CONTINUOUS
10
0.4601711023622047
20
0.8092052362204725
11
0.4606120078740157
21
0.8102696456692913
0
LINE
8
BLACK
6
CONTINUOUS
10
0.4606120078740157
20
0.8102696456692913
11
0.4614266535433071
21
0.8110842913385826
0
LINE
8
BLACK
6
CONTINUOUS
10
0.4614266535433071
20
0.8110842913385826
11
0.462491062992126
21
0.8115251968503937
0
LINE
8
BLACK
6
CONTINUOUS
10
0.462491062992126
20
0.8115251968503937
11
0.463067125984252
21
0.8115819291338583
0
LINE
8
BLACK
6
CONTINUOUS
10
0.463067125984252
20
0.8115819291338583
11
0.4874390551181102
21
0.8115819291338583
0
LINE
8
BLACK
6
CONTINUOUS
10
0.4874390551181102
20
0.8115819291338583
11
0.4877437007874016
21
0.8115519291338582
0
LINE
8
BLACK
6
CONTINUOUS
10
0.5161366141732283
20
0.8115251968503937
11
0.5162346062992126
21
0.8114846062992126
0
LINE
8
BLACK
6
CONTINUOUS
10
0.5162346062992126
20
0.8114846062992126
11
0.5163404330708661
21
0.8114770866141732
0
LINE
8
BLACK
6
CONTINUOUS
10
0.5163404330708661
20
0.8114770866141732
11
0.516881062992126
21
0.8112701968503937
0
LINE
8
BLACK
6
CONTINUOUS
10
0.516881062992126
20
0.8112701968503937
11
0.5206305905511811
21
0.8093954330708661
0
LINE
8
BLACK
6
CONTINUOUS
10
0.5206305905511811
20
0.8093954330708661
11
0.5208785826771654
21
0.8092393700787401
0
LINE
8
BLACK
6
CONTINUOUS
10
0.5208785826771654
20
0.8092393700787401
11
0.5209505511811023
21
0.8092095275590551
0
LINE
8
BLACK
6
CONTINUOUS
10
0.5209505511811023
20
0.8092095275590551
11
0.5210314960629921
21
0.8091430708661417
0
LINE
8
BLACK
6
CONTINUOUS
10
0.5210314960629921
20
0.8091430708661417
11
0.5211204724409448
21
0.8090870866141732
0
LINE
8
BLACK
6
CONTINUOUS
10
0.5211204724409448
20
0.8090870866141732
11
0.5211716141732283
21
0.8090281102362205
0
LINE
8
BLACK
6
CONTINUOUS
10
0.5211716141732283
20
0.8090281102362205
11
0.5213979921259843
21
0.8088423228346456
0
LINE
8
BLACK
6
CONTINUOUS
10
0.5213979921259843
20
0.8088423228346456
11
0.5232727559055118
21
0.8069675590551181
0
LINE
8
BLACK
6
CONTINUOUS
10
0.5232727559055118
20
0.8069675590551181
11
0.5234585039370079
21
0.8067412204724409
0
LINE
8
BLACK
6
CONTINUOUS
10
0.5234585039370079
20
0.8067412204724409
11
0.5235175196850393
21
0.8066900393700788
0
LINE
8
BLACK
6
CONTINUOUS
10
0.5235175196850393
20
0.8066900393700788
11
0.5235734645669291
21
0.8066011023622047
0
LINE
8
BLACK
6
CONTINUOUS
10
0.5235734645669291
20
0.8066011023622047
11
0.5236399606299212
21
0.8065201181102362
0
LINE
8
BLACK
6
CONTINUOUS
10
0.5236399606299212
20
0.8065201181102362
11
0.5236697637795276
21
0.8064481889763779
0
LINE
8
BLACK
6
CONTINUOUS
10
0.5236697637795276
20
0.8064481889763779
11
0.5238258661417323
21
0.8062001574803149
0
LINE
8
BLACK
6
CONTINUOUS
10
0.5238258661417323
20
0.8062001574803149
11
0.5257006299212599
21
0.8024506299212598
0
LINE
8
BLACK
6
CONTINUOUS
10
0.5257006299212599
20
0.8024506299212598
11
0.5257167322834646
21
0.8024085433070866
0
LINE
8
BLACK
6
CONTINUOUS
10
0.5257167322834646
20
0.8024085433070866
11
0.5257294488188976
21
0.8023913779527558
0
LINE
8
BLACK
6
CONTINUOUS
10
0.5257294488188976
20
0.8023913779527558
11
0.525815748031496
21
0.8021498031496063
0
LINE
8
BLACK
6
CONTINUOUS
10
0.525815748031496
20
0.8021498031496063
11
0.5259075196850393
21
0.8019100393700788
0
LINE
8
BLACK
6
CONTINUOUS
10
0.5259075196850393
20
0.8019100393700788
11
0.5259090157480315
21
0.801888779527559
0
LINE
8
BLACK
6
CONTINUOUS
10
0.5259090157480315
20
0.801888779527559
11
0.5259242125984251
21
0.8018462598425197
0
LINE
8
BLACK
6
CONTINUOUS
10
0.5259242125984251
20
0.8018462598425197
11
0.5277989763779527
21
0.7943472047244095
0
LINE
8
BLACK
6
CONTINUOUS
10
0.5277989763779527
20
0.7943472047244095
11
0.5278137401574803
21
0.7942473622047244
0
LINE
8
BLACK
6
CONTINUOUS
10
0.5278137401574803
20
0.7942473622047244
11
0.5278303937007874
21
0.7942071259842519
0
LINE
8
BLACK
6
CONTINUOUS
10
0.5278303937007874
20
0.7942071259842519
11
0.5278517322834646
21
0.7939901181102362
0
LINE
8
BLACK
6
CONTINUOUS
10
0.5278517322834646
20
0.7939901181102362
11
0.527883622047244
21
0.7937746062992126
0
LINE
8
BLACK
6
CONTINUOUS
10
0.527883622047244
20
0.7937746062992126
11
0.5278772047244095
21
0.7937316141732284
0
LINE
8
BLACK
6
CONTINUOUS
10
0.5278772047244095
20
0.7937316141732284
11
0.5278871259842519
21
0.7936310629921259
0
LINE
8
BLACK
6
CONTINUOUS
10
0.5278871259842519
20
0.7936310629921259
11
0.5278871259842519
21
0.7842572440944882
0
LINE
8
BLACK
6
CONTINUOUS
10
0.5278871259842519
20
0.7842572440944882
11
0.5278772047244095
21
0.7841567322834645
0
LINE
8
BLACK
6
CONTINUOUS
10
0.5278772047244095
20
0.7841567322834645
11
0.527883622047244
21
0.7841137007874015
0
LINE
8
BLACK
6
CONTINUOUS
10
0.527883622047244
20
0.7841137007874015
11
0.5278517322834646
21
0.7838982283464567
0
LINE
8
BLACK
6
CONTINUOUS
10
0.5278517322834646
20
0.7838982283464567
11
0.5278303937007874
21
0.7836811811023622
0
LINE
8
BLACK
6
CONTINUOUS
10
0.5278303937007874
20
0.7836811811023622
11
0.5278137401574803
21
0.7836409842519685
0
LINE
8
BLACK
6
CONTINUOUS
10
0.5278137401574803
20
0.7836409842519685
11
0.5277989763779527
21
0.7835411023622048
0
LINE
8
BLACK
6
CONTINUOUS
10
0.5277989763779527
20
0.7835411023622048
11
0.5259242125984251
21
0.7760420472440944
0
LINE
8
BLACK
6
CONTINUOUS
10
0.5259242125984251
20
0.7760420472440944
11
0.5259090157480315
21
0.7759995669291339
0
LINE
8
BLACK
6
CONTINUOUS
10
0.5259090157480315
20
0.7759995669291339
11
0.5259075196850393
21
0.7759782677165354
0
LINE
8
BLACK
6
CONTINUOUS
10
0.5259075196850393
20
0.7759782677165354
11
0.525815748031496
21
0.7757385433070866
0
LINE
8
BLACK
6
CONTINUOUS
10
0.525815748031496
20
0.7757385433070866
11
0.5257294488188976
21
0.7754969291338583
0
LINE
8
BLACK
6
CONTINUOUS
10
0.5257294488188976
20
0.7754969291338583
11
0.5257167322834646
21
0.7754798031496063
0
LINE
8
BLACK
6
CONTINUOUS
10
0.5257167322834646
20
0.7754798031496063
11
0.5257006299212599
21
0.7754376771653543
0
LINE
8
BLACK
6
CONTINUOUS
10
0.5257006299212599
20
0.7754376771653543
11
0.5238258661417323
21
0.7716881496062992
0
LINE
8
BLACK
6
CONTINUOUS
10
0.5238258661417323
20
0.7716881496062992
11
0.5236698031496063
21
0.7714402755905512
0
LINE
8
BLACK
6
CONTINUOUS
10
0.5236698031496063
20
0.7714402755905512
11
0.52364
21
0.7713682283464567
0
LINE
8
BLACK
6
CONTINUOUS
10
0.52364
20
0.7713682283464567
11
0.5235734645669291
21
0.7712872047244095
0
LINE
8
BLACK
6
CONTINUOUS
10
0.5235734645669291
20
0.7712872047244095
11
0.5235175196850393
21
0.7711982677165354
0
LINE
8
BLACK
6
CONTINUOUS
10
0.5235175196850393
20
0.7711982677165354
11
0.5234585039370079
21
0.7711471259842519
0
LINE
8
BLACK
6
CONTINUOUS
10
0.5234585039370079
20
0.7711471259842519
11
0.5232727559055118
21
0.770920748031496
0
LINE
8
BLACK
6
CONTINUOUS
10
0.5232727559055118
20
0.770920748031496
11
0.521398031496063
21
0.7690459842519685
0
LINE
8
BLACK
6
CONTINUOUS
10
0.521398031496063
20
0.7690459842519685
11
0.5211716535433071
21
0.7688602362204724
0
LINE
8
BLACK
6
CONTINUOUS
10
0.5211716535433071
20
0.7688602362204724
11
0.5211204724409448
21
0.7688011811023622
0
LINE
8
BLACK
6
CONTINUOUS
10
0.5211204724409448
20
0.7688011811023622
11
0.5210314960629921
21
0.7687451968503937
0
LINE
8
BLACK
6
CONTINUOUS
10
0.5210314960629921
20
0.7687451968503937
11
0.5209505511811023
21
0.7686787401574803
0
LINE
8
BLACK
6
CONTINUOUS
10
0.5209505511811023
20
0.7686787401574803
11
0.5208785826771654
21
0.768648937007874
0
LINE
8
BLACK
6
CONTINUOUS
10
0.5208785826771654
20
0.768648937007874
11
0.5206305905511811
21
0.7684928346456693
0
LINE
8
BLACK
6
CONTINUOUS
10
0.5206305905511811
20
0.7684928346456693
11
0.516881062992126
21
0.7666180708661418
0
LINE
8
BLACK
6
CONTINUOUS
10
0.516881062992126
20
0.7666180708661418
11
0.5163404330708661
21
0.7664111811023622
0
LINE
8
BLACK
6
CONTINUOUS
10
0.5163404330708661
20
0.7664111811023622
11
0.5162346062992126
21
0.7664037007874016
0
LINE
8
BLACK
6
CONTINUOUS
10
0.5162346062992126
20
0.7664037007874016
11
0.5161366141732283
21
0.7663630708661417
0
LINE
8
BLACK
6
CONTINUOUS
10
0.5161366141732283
20
0.7663630708661417
11
0.5155605511811023
21
0.7663063385826772
0
LINE
8
BLACK
6
CONTINUOUS
10
0.5155605511811023
20
0.7663063385826772
11
0.5118110236220472
21
0.7663063385826772
0
LINE
8
BLACK
6
CONTINUOUS
10
0.5118110236220472
20
0.7663063385826772
11
0.5112349606299212
21
0.7663630708661417
0
LINE
8
BLACK
6
CONTINUOUS
10
0.5112349606299212
20
0.7663630708661417
11
0.511136968503937
21
0.7664036614173229
0
LINE
8
BLACK
6
CONTINUOUS
10
0.511136968503937
20
0.7664036614173229
11
0.5110311023622047
21
0.7664111811023622
0
LINE
8
BLACK
6
CONTINUOUS
10
0.5110311023622047
20
0.7664111811023622
11
0.5104905118110236
21
0.7666180708661418
0
LINE
8
BLACK
6
CONTINUOUS
10
0.5104905118110236
20
0.7666180708661418
11
0.5067409842519685
21
0.7684928346456693
0
LINE
8
BLACK
6
CONTINUOUS
10
0.5067409842519685
20
0.7684928346456693
11
0.5064929527559054
21
0.768648937007874
0
LINE
8
BLACK
6
CONTINUOUS
10
0.5064929527559054
20
0.768648937007874
11
0.5064210236220472
21
0.7686787401574803
0
LINE
8
BLACK
6
CONTINUOUS
10
0.5064210236220472
20
0.7686787401574803
11
0.5063400393700788
21
0.7687451968503937
0
LINE
8
BLACK
6
CONTINUOUS
10
0.5063400393700788
20
0.7687451968503937
11
0.5062511023622047
21
0.7688011811023622
0
LINE
8
BLACK
6
CONTINUOUS
10
0.5062511023622047
20
0.7688011811023622
11
0.5061998818897637
21
0.7688602362204724
0
LINE
8
BLACK
6
CONTINUOUS
10
0.5061998818897637
20
0.7688602362204724
11
0.5059735433070865
21
0.7690459842519685
0
LINE
8
BLACK
6
CONTINUOUS
10
0.5059735433070865
20
0.7690459842519685
11
0.504098779527559
21
0.7709207874015748
0
LINE
8
BLACK
6
CONTINUOUS
10
0.504098779527559
20
0.7709207874015748
11
0.503913031496063
21
0.7711471259842519
0
LINE
8
BLACK
6
CONTINUOUS
10
0.503913031496063
20
0.7711471259842519
11
0.5038540551181102
21
0.7711982677165354
0
LINE
8
BLACK
6
CONTINUOUS
10
0.5038540551181102
20
0.7711982677165354
11
0.5037980708661417
21
0.7712872047244095
0
LINE
8
BLACK
6
CONTINUOUS
10
0.5037980708661417
20
0.7712872047244095
11
0.5037315748031496
21
0.7713682283464567
0
LINE
8
BLACK
6
CONTINUOUS
10
0.5037315748031496
20
0.7713682283464567
11
0.5037017322834646
21
0.7714402755905512
0
LINE
8
BLACK
6
CONTINUOUS
10
0.5037017322834646
20
0.7714402755905512
11
0.5035457086614173
21
0.7716881496062992
0
LINE
8
BLACK
6
CONTINUOUS
10
0.5035457086614173
20
0.7716881496062992
11
0.5016709448818898
21
0.7754376771653543
0
LINE
8
BLACK
6
CONTINUOUS
10
0.5016709448818898
20
0.7754376771653543
11
0.5016548031496063
21
0.7754798031496063
0
LINE
8
BLACK
6
CONTINUOUS
10
0.5016548031496063
20
0.7754798031496063
11
0.501642125984252
21
0.7754969291338583
0
LINE
8
BLACK
6
CONTINUOUS
10
0.501642125984252
20
0.7754969291338583
11
0.5015556692913385
21
0.7757388976377952
0
LINE
8
BLACK
6
CONTINUOUS
10
0.5015556692913385
20
0.7757388976377952
11
0.5014640551181102
21
0.7759783070866142
0
LINE
8
BLACK
6
CONTINUOUS
10
0.5014640551181102
20
0.7759783070866142
11
0.5014625196850394
21
0.7759995669291339
0
LINE
8
BLACK
6
CONTINUOUS
10
0.5014625196850394
20
0.7759995669291339
11
0.5014473622047244
21
0.7760420472440944
0
LINE
8
BLACK
6
CONTINUOUS
10
0.5014473622047244
20
0.7760420472440944
11
0.4995725984251969
21
0.7835411023622048
0
LINE
8
BLACK
6
CONTINUOUS
10
0.4995725984251969
20
0.7835411023622048
11
0.4995577952755905
21
0.7836409842519685
0
LINE
8
BLACK
6
CONTINUOUS
10
0.4995577952755905
20
0.7836409842519685
11
0.4995411811023622
21
0.7836811811023622
0
LINE
8
BLACK
6
CONTINUOUS
10
0.4995411811023622
20
0.7836811811023622
11
0.4995198031496063
21
0.7838982283464567
0
LINE
8
BLACK
6
CONTINUOUS
10
0.4995198031496063
20
0.7838982283464567
11
0.4994879527559055
21
0.7841137007874015
0
LINE
8
BLACK
6
CONTINUOUS
10
0.4994879527559055
20
0.7841137007874015
11
0.4994943307086614
21
0.7841567322834645
0
LINE
8
BLACK
6
CONTINUOUS
10
0.4994943307086614
20
0.7841567322834645
11
0.4994844488188976
21
0.7842572440944882
0
LINE
8
BLACK
6
CONTINUOUS
10
0.4994844488188976
20
0.7842572440944882
11
0.4994844488188976
21
0.7936310629921259
0
LINE
8
BLACK
6
CONTINUOUS
10
0.4994844488188976
20
0.7936310629921259
11
0.4994943307086614
21
0.7937316141732284
0
LINE
8
BLACK
6
CONTINUOUS
10
0.4994943307086614
20
0.7937316141732284
11
0.4994879527559055
21
0.7937746062992126
0
LINE
8
BLACK
6
CONTINUOUS
10
0.4994879527559055
20
0.7937746062992126
11
0.4995198031496063
21
0.7939901181102362
0
LINE
8
BLACK
6
CONTINUOUS
10
0.4995198031496063
20
0.7939901181102362
11
0.4995411811023622
21
0.7942071259842519
0
LINE
8
BLACK
6
CONTINUOUS
10
0.4995411811023622
20
0.7942071259842519
11
0.4995577952755905
21
0.7942473622047244
0
LINE
8
BLACK
6
CONTINUOUS
10
0.4995577952755905
20
0.7942473622047244
11
0.4995725984251969
21
0.7943472047244095
0
LINE
8
BLACK
6
CONTINUOUS
10
0.4995725984251969
20
0.7943472047244095
11
0.5014473622047244
21
0.8018462598425197
0
LINE
8
BLACK
6
CONTINUOUS
10
0.5014473622047244
20
0.8018462598425197
11
0.5014625196850394
21
0.801888779527559
0
LINE
8
BLACK
6
CONTINUOUS
10
0.5014625196850394
20
0.801888779527559
11
0.5014640551181102
21
0.80191
0
LINE
8
BLACK
6
CONTINUOUS
10
0.5014640551181102
20
0.80191
11
0.5015556692913385
21
0.8021494488188976
0
LINE
8
BLACK
6
CONTINUOUS
10
0.5015556692913385
20
0.8021494488188976
11
0.501642125984252
21
0.8023913779527558
0
LINE
8
BLACK
6
CONTINUOUS
10
0.501642125984252
20
0.8023913779527558
11
0.5016548031496063
21
0.8024085433070866
0
LINE
8
BLACK
6
CONTINUOUS
10
0.5016548031496063
20
0.8024085433070866
11
0.5016709448818898
21
0.8024506299212598
0
LINE
8
BLACK
6
CONTINUOUS
10
0.5016709448818898
20
0.8024506299212598
11
0.5035457086614173
21
0.8062001574803149
0
LINE
8
BLACK
6
CONTINUOUS
10
0.5035457086614173
20
0.8062001574803149
11
0.5037017716535434
21
0.8064481889763779
0
LINE
8
BLACK
6
CONTINUOUS
10
0.5037017716535434
20
0.8064481889763779
11
0.5037316141732283
21
0.8065201181102362
0
LINE
8
BLACK
6
CONTINUOUS
10
0.5037316141732283
20
0.8065201181102362
11
0.5037980708661417
21
0.8066011023622047
0
LINE
8
BLACK
6
CONTINUOUS
10
0.5037980708661417
20
0.8066011023622047
11
0.5038540551181102
21
0.8066900393700788
0
LINE
8
BLACK
6
CONTINUOUS
10
0.5038540551181102
20
0.8066900393700788
11
0.503913031496063
21
0.8067412204724409
0
LINE
8
BLACK
6
CONTINUOUS
10
0.503913031496063
20
0.8067412204724409
11
0.5040988188976377
21
0.8069675590551181
0
LINE
8
BLACK
6
CONTINUOUS
10
0.5040988188976377
20
0.8069675590551181
11
0.5059735826771653
21
0.8088423228346456
0
LINE
8
BLACK
6
CONTINUOUS
10
0.5059735826771653
20
0.8088423228346456
11
0.5061999212598425
21
0.8090281102362205
0
LINE
8
BLACK
6
CONTINUOUS
10
0.5061999212598425
20
0.8090281102362205
11
0.5062511023622047
21
0.8090870866141732
0
LINE
8
BLACK
6
CONTINUOUS
10
0.5062511023622047
20
0.8090870866141732
11
0.5063400393700788
21
0.8091430708661417
0
LINE
8
BLACK
6
CONTINUOUS
10
0.5063400393700788
20
0.8091430708661417
11
0.5064210236220472
21
0.8092095275590551
0
LINE
8
BLACK
6
CONTINUOUS
10
0.5064210236220472
20
0.8092095275590551
11
0.5064929527559054
21
0.8092393700787401
0
LINE
8
BLACK
6
CONTINUOUS
10
0.5064929527559054
20
0.8092393700787401
11
0.5067409842519685
21
0.8093954330708661
0
LINE
8
BLACK
6
CONTINUOUS
10
0.5067409842519685
20
0.8093954330708661
11
0.5104905118110236
21
0.8112701968503937
0
LINE
8
BLACK
6
CONTINUOUS
10
0.5104905118110236
20
0.8112701968503937
11
0.5110311023622047
21
0.8114770866141732
0
LINE
8
BLACK
6
CONTINUOUS
10
0.5110311023622047
20
0.8114770866141732
11
0.511136968503937
21
0.8114846456692913
0
LINE
8
BLACK
6
CONTINUOUS
10
0.511136968503937
20
0.8114846456692913
11
0.5112349606299212
21
0.8115251968503937
0
LINE
8
BLACK
6
CONTINUOUS
10
0.5112349606299212
20
0.8115251968503937
11
0.5118110236220472
21
0.8115819291338583
0
LINE
8
BLACK
6
CONTINUOUS
10
0.5118110236220472
20
0.8115819291338583
11
0.5155605511811023
21
0.8115819291338583
0
LINE
8
BLACK
6
CONTINUOUS
10
0.5155605511811023
20
0.8115819291338583
11
0.5161366141732283
21
0.8115251968503937
0
LINE
8
BLACK
6
CONTINUOUS
10
0.5098105905511811
20
0.8043276771653544
11
0.5086134645669291
21
0.8031305511811023
0
LINE
8
BLACK
6
CONTINUOUS
10
0.5086134645669291
20
0.8031305511811023
11
0.5070979527559055
21
0.8000995669291339
0
LINE
8
BLACK
6
CONTINUOUS
10
0.5070979527559055
20
0.8000995669291339
11
0.5053899606299213
21
0.7932675196850394
0
LINE
8
BLACK
6
CONTINUOUS
10
0.5053899606299213
20
0.7932675196850394
11
0.5053899606299213
21
0.7846207874015748
0
LINE
8
BLACK
6
CONTINUOUS
10
0.5053899606299213
20
0.7846207874015748
11
0.5070979527559055
21
0.7777887401574803
0
LINE
8
BLACK
6
CONTINUOUS
10
0.5070979527559055
20
0.7777887401574803
11
0.5086134645669291
21
0.7747577559055118
0
LINE
8
BLACK
6
CONTINUOUS
10
0.5086134645669291
20
0.7747577559055118
11
0.5098105905511811
21
0.7735605905511811
0
LINE
8
BLACK
6
CONTINUOUS
10
0.5098105905511811
20
0.7735605905511811
11
0.5125080708661417
21
0.7722118503937008
0
LINE
8
BLACK
6
CONTINUOUS
10
0.5125080708661417
20
0.7722118503937008
11
0.5148635039370079
21
0.7722118503937008
0
LINE
8
BLACK
6
CONTINUOUS
10
0.5148635039370079
20
0.7722118503937008
11
0.5175609448818898
21
0.7735605905511811
0
LINE
8
BLACK
6
CONTINUOUS
10
0.5175609448818898
20
0.7735605905511811
11
0.5187580708661417
21
0.7747577559055118
0
LINE
8
BLACK
6
CONTINUOUS
10
0.5187580708661417
20
0.7747577559055118
11
0.5202735826771654
21
0.7777887401574803
0
LINE
8
BLACK
6
CONTINUOUS
10
0.5202735826771654
20
0.7777887401574803
11
0.5219816141732283
21
0.7846207874015748
0
LINE
8
BLACK
6
CONTINUOUS
10
0.5219816141732283
20
0.7846207874015748
11
0.5219816141732283
21
0.7932675196850394
0
LINE
8
BLACK
6
CONTINUOUS
10
0.5219816141732283
20
0.7932675196850394
11
0.5202735826771654
21
0.8000995669291339
0
LINE
8
BLACK
6
CONTINUOUS
10
0.5202735826771654
20
0.8000995669291339
11
0.5187581102362204
21
0.8031305511811023
0
LINE
8
BLACK
6
CONTINUOUS
10
0.5187581102362204
20
0.8031305511811023
11
0.5175609842519685
21
0.8043276771653544
0
LINE
8
BLACK
6
CONTINUOUS
10
0.5175609842519685
20
0.8043276771653544
11
0.5148635039370079
21
0.8056764173228347
0
LINE
8
BLACK
6
CONTINUOUS
10
0.5148635039370079
20
0.8056764173228347
11
0.5125080708661417
21
0.8056764173228347
0
LINE
8
BLACK
6
CONTINUOUS
10
0.5125080708661417
20
0.8056764173228347
11
0.5098105905511811
21
0.8043276771653544
0
LINE
8
BLACK
6
CONTINUOUS
10
0.5723795669291338
20
0.8115251968503937
11
0.5724775590551181
21
0.8114846062992126
0
LINE
8
BLACK
6
CONTINUOUS
10
0.5724775590551181
20
0.8114846062992126
11
0.5725833858267716
21
0.8114770866141732
0
LINE
8
BLACK
6
CONTINUOUS
10
0.5725833858267716
20
0.8114770866141732
11
0.5731240157480315
21
0.8112701968503937
0
LINE
8
BLACK
6
CONTINUOUS
10
0.5731240157480315
20
0.8112701968503937
11
0.5768735433070866
21
0.8093954330708661
0
LINE
8
BLACK
6
CONTINUOUS
10
0.5768735433070866
20
0.8093954330708661
11
0.5771215354330709
21
0.8092393700787401
0
LINE
8
BLACK
6
CONTINUOUS
10
0.5771215354330709
20
0.8092393700787401
11
0.5771935039370079
21
0.8092095275590551
0
LINE
8
BLACK
6
CONTINUOUS
10
0.5771935039370079
20
0.8092095275590551
11
0.5772744488188977
21
0.8091430708661417
0
LINE
8
BLACK
6
CONTINUOUS
10
0.5772744488188977
20
0.8091430708661417
11
0.5773634251968504
21
0.8090870866141732
0
LINE
8
BLACK
6
CONTINUOUS
10
0.5773634251968504
20
0.8090870866141732
11
0.5774145669291338
21
0.8090281102362205
0
LINE
8
BLACK
6
CONTINUOUS
10
0.5774145669291338
20
0.8090281102362205
11
0.5776409448818898
21
0.8088423228346456
0
LINE
8
BLACK
6
CONTINUOUS
10
0.5776409448818898
20
0.8088423228346456
11
0.5795157086614173
21
0.8069675590551181
0
LINE
8
BLACK
6
CONTINUOUS
10
0.5795157086614173
20
0.8069675590551181
11
0.5797014566929134
21
0.8067412204724409
0
LINE
8
BLACK
6
CONTINUOUS
10
0.5797014566929134
20
0.8067412204724409
11
0.5797604724409449
21
0.8066900393700788
0
LINE
8
BLACK
6
CONTINUOUS
10
0.5797604724409449
20
0.8066900393700788
11
0.5798164173228346
21
0.8066011023622047
0
LINE
8
BLACK
6
CONTINUOUS
10
0.5798164173228346
20
0.8066011023622047
11
0.5798829133858268
21
0.8065201181102362
0
LINE
8
BLACK
6
CONTINUOUS
10
0.5798829133858268
20
0.8065201181102362
11
0.5799127165354331
21
0.8064481889763779
0
LINE
8
BLACK
6
CONTINUOUS
10
0.5799127165354331
20
0.8064481889763779
11
0.5800688188976377
21
0.8062001574803149
0
LINE
8
BLACK
6
CONTINUOUS
10
0.5800688188976377
20
0.8062001574803149
11
0.5819435826771654
21
0.8024506299212598
0
LINE
8
BLACK
6
CONTINUOUS
10
0.5819435826771654
20
0.8024506299212598
11
0.58195968503937
21
0.8024085433070866
0
LINE
8
BLACK
6
CONTINUOUS
10
0.58195968503937
20
0.8024085433070866
11
0.5819724015748031
21
0.8023913779527558
0
LINE
8
BLACK
6
CONTINUOUS
10
0.5819724015748031
20
0.8023913779527558
11
0.5820587007874015
21
0.8021498031496063
0
LINE
8
BLACK
6
CONTINUOUS
10
0.5820587007874015
20
0.8021498031496063
11
0.5821504724409449
21
0.8019100393700788
0
LINE
8
BLACK
6
CONTINUOUS
10
0.5821504724409449
20
0.8019100393700788
11
0.582151968503937
21
0.801888779527559
0
LINE
8
BLACK
6
CONTINUOUS
10
0.582151968503937
20
0.801888779527559
11
0.5821671653543307
21
0.8018462598425197
0
LINE
8
BLACK
6
CONTINUOUS
10
0.5821671653543307
20
0.8018462598425197
11
0.5840419291338582
21
0.7943472047244095
0
LINE
8
BLACK
6
CONTINUOUS
10
0.5840419291338582
20
0.7943472047244095
11
0.5840566929133858
21
0.7942473622047244
0
LINE
8
BLACK
6
CONTINUOUS
10
0.5840566929133858
20
0.7942473622047244
11
0.584073346456693
21
0.7942071259842519
0
LINE
8
BLACK
6
CONTINUOUS
10
0.584073346456693
20
0.7942071259842519
11
0.5840946850393701
21
0.7939901181102362
0
LINE
8
BLACK
6
CONTINUOUS
10
0.5840946850393701
20
0.7939901181102362
11
0.5841265748031496
21
0.7937746062992126
0
LINE
8
BLACK
6
CONTINUOUS
10
0.5841265748031496
20
0.7937746062992126
11
0.584120157480315
21
0.7937316141732284
0
LINE
8
BLACK
6
CONTINUOUS
10
0.584120157480315
20
0.7937316141732284
11
0.5841300787401574
21
0.7936310629921259
0
LINE
8
BLACK
6
CONTINUOUS
10
0.5841300787401574
20
0.7936310629921259
11
0.5841300787401574
21
0.7842572440944882
0
LINE
8
BLACK
6
CONTINUOUS
10
0.5841300787401574
20
0.7842572440944882
11
0.584120157480315
21
0.7841567322834645
0
LINE
8
BLACK
6
CONTINUOUS
10
0.584120157480315
20
0.7841567322834645
11
0.5841265748031496
21
0.7841137007874015
0
LINE
8
BLACK
6
CONTINUOUS
10
0.5841265748031496
20
0.7841137007874015
11
0.5840946850393701
21
0.7838982283464567
0
LINE
8
BLACK
6
CONTINUOUS
10
0.5840946850393701
20
0.7838982283464567
11
0.584073346456693
21
0.7836811811023622
0
LINE
8
BLACK
6
CONTINUOUS
10
0.584073346456693
20
0.7836811811023622
11
0.5840566929133858
21
0.7836409842519685
0
LINE
8
BLACK
6
CONTINUOUS
10
0.5840566929133858
20
0.7836409842519685
11
0.5840419291338582
21
0.7835411023622048
0
LINE
8
BLACK
6
CONTINUOUS
10
0.5840419291338582
20
0.7835411023622048
11
0.5821671653543307
21
0.7760420472440944
0
LINE
8
BLACK
6
CONTINUOUS
10
0.5821671653543307
20
0.7760420472440944
11
0.582151968503937
21
0.7759995669291339
0
LINE
8
BLACK
6
CONTINUOUS
10
0.582151968503937
20
0.7759995669291339
11
0.5821504724409449
21
0.7759782677165354
0
LINE
8
BLACK
6
CONTINUOUS
10
0.5821504724409449
20
0.7759782677165354
11
0.5820587007874015
21
0.7757385433070866
0
LINE
8
BLACK
6
CONTINUOUS
10
0.5820587007874015
20
0.7757385433070866
11
0.5819724015748031
21
0.7754969291338583
0
LINE
8
BLACK
6
CONTINUOUS
10
0.5819724015748031
20
0.7754969291338583
11
0.58195968503937
21
0.7754798031496063
0
LINE
8
BLACK
6
CONTINUOUS
10
0.58195968503937
20
0.7754798031496063
11
0.5819435826771654
21
0.7754376771653543
0
LINE
8
BLACK
6
CONTINUOUS
10
0.5819435826771654
20
0.7754376771653543
11
0.5800688188976377
21
0.7716881496062992
0
LINE
8
BLACK
6
CONTINUOUS
10
0.5800688188976377
20
0.7716881496062992
11
0.5799127559055118
21
0.7714402755905512
0
LINE
8
BLACK
6
CONTINUOUS
10
0.5799127559055118
20
0.7714402755905512
11
0.5798829527559055
21
0.7713682283464567
0
LINE
8
BLACK
6
CONTINUOUS
10
0.5798829527559055
20
0.7713682283464567
11
0.5798164173228346
21
0.7712872047244095
0
LINE
8
BLACK
6
CONTINUOUS
10
0.5798164173228346
20
0.7712872047244095
11
0.5797604724409449
21
0.7711982677165354
0
LINE
8
BLACK
6
CONTINUOUS
10
0.5797604724409449
20
0.7711982677165354
11
0.5797014566929134
21
0.7711471259842519
0
LINE
8
BLACK
6
CONTINUOUS
10
0.5797014566929134
20
0.7711471259842519
11
0.5795157086614173
21
0.770920748031496
0
LINE
8
BLACK
6
CONTINUOUS
10
0.5795157086614173
20
0.770920748031496
11
0.5776409842519685
21
0.7690459842519685
0
LINE
8
BLACK
6
CONTINUOUS
10
0.5776409842519685
20
0.7690459842519685
11
0.5774146062992126
21
0.7688602362204724
0
LINE
8
BLACK
6
CONTINUOUS
10
0.5774146062992126
20
0.7688602362204724
11
0.5773634251968504
21
0.7688011811023622
0
LINE
8
BLACK
6
CONTINUOUS
10
0.5773634251968504
20
0.7688011811023622
11
0.5772744488188977
21
0.7687451968503937
0
LINE
8
BLACK
6
CONTINUOUS
10
0.5772744488188977
20
0.7687451968503937
11
0.5771935039370079
21
0.7686787401574803
0
LINE
8
BLACK
6
CONTINUOUS
10
0.5771935039370079
20
0.7686787401574803
11
0.5771215354330709
21
0.768648937007874
0
LINE
8
BLACK
6
CONTINUOUS
10
0.5771215354330709
20
0.768648937007874
11
0.5768735433070866
21
0.7684928346456693
0
LINE
8
BLACK
6
CONTINUOUS
10
0.5768735433070866
20
0.7684928346456693
11
0.5731240157480315
21
0.7666180708661418
0
LINE
8
BLACK
6
CONTINUOUS
10
0.5731240157480315
20
0.7666180708661418
11
0.5725833858267716
21
0.7664111811023622
0
LINE
8
BLACK
6
CONTINUOUS
10
0.5725833858267716
20
0.7664111811023622
11
0.5724775590551181
21
0.7664037007874016
0
LINE
8
BLACK
6
CONTINUOUS
10
0.5724775590551181
20
0.7664037007874016
11
0.5723795669291338
21
0.7663630708661417
0
LINE
8
BLACK
6
CONTINUOUS
10
0.5723795669291338
20
0.7663630708661417
11
0.5718035039370079
21
0.7663063385826772
0
LINE
8
BLACK
6
CONTINUOUS
10
0.5718035039370079
20
0.7663063385826772
11
0.5680539763779527
21
0.7663063385826772
0
LINE
8
BLACK
6
CONTINUOUS
10
0.5680539763779527
20
0.7663063385826772
11
0.5674779133858268
21
0.7663630708661417
0
LINE
8
BLACK
6
CONTINUOUS
10
0.5674779133858268
20
0.7663630708661417
11
0.5673799212598425
21
0.7664036614173229
0
LINE
8
BLACK
6
CONTINUOUS
10
0.5673799212598425
20
0.7664036614173229
11
0.5672740551181102
21
0.7664111811023622
0
LINE
8
BLACK
6
CONTINUOUS
10
0.5672740551181102
20
0.7664111811023622
11
0.5667334645669291
21
0.7666180708661418
0
LINE
8
BLACK
6
CONTINUOUS
10
0.5667334645669291
20
0.7666180708661418
11
0.562983937007874
21
0.7684928346456693
0
LINE
8
BLACK
6
CONTINUOUS
10
0.562983937007874
20
0.7684928346456693
11
0.562735905511811
21
0.768648937007874
0
LINE
8
BLACK
6
CONTINUOUS
10
0.562735905511811
20
0.768648937007874
11
0.5626639763779527
21
0.7686787401574803
0
LINE
8
BLACK
6
CONTINUOUS
10
0.5626639763779527
20
0.7686787401574803
11
0.5625829921259843
21
0.7687451968503937
0
LINE
8
BLACK
6
CONTINUOUS
10
0.5625829921259843
20
0.7687451968503937
11
0.5624940551181102
21
0.7688011811023622
0
LINE
8
BLACK
6
CONTINUOUS
10
0.5624940551181102
20
0.7688011811023622
11
0.5624428346456692
21
0.7688602362204724
0
LINE
8
BLACK
6
CONTINUOUS
10
0.5624428346456692
20
0.7688602362204724
11
0.5622164960629921
21
0.7690459842519685
0
LINE
8
BLACK
6
CONTINUOUS
10
0.5622164960629921
20
0.7690459842519685
11
0.5603417322834645
21
0.7709207874015748
0
LINE
8
BLACK
6
CONTINUOUS
10
0.5603417322834645
20
0.7709207874015748
11
0.5601559842519684
21
0.7711471259842519
0
LINE
8
BLACK
6
CONTINUOUS
10
0.5601559842519684
20
0.7711471259842519
11
0.5600970078740157
21
0.7711982677165354
0
LINE
8
BLACK
6
CONTINUOUS
10
0.5600970078740157
20
0.7711982677165354
11
0.5600410236220472
21
0.7712872047244095
0
LINE
8
BLACK
6
CONTINUOUS
10
0.5600410236220472
20
0.7712872047244095
11
0.5599745275590551
21
0.7713682283464567
0
LINE
8
BLACK
6
CONTINUOUS
10
0.5599745275590551
20
0.7713682283464567
11
0.5599446850393701
21
0.7714402755905512
0
LINE
8
BLACK
6
CONTINUOUS
10
0.5599446850393701
20
0.7714402755905512
11
0.5597886614173229
21
0.7716881496062992
0
LINE
8
BLACK
6
CONTINUOUS
10
0.5597886614173229
20
0.7716881496062992
11
0.5579138976377953
21
0.7754376771653543
0
LINE
8
BLACK
6
CONTINUOUS
10
0.5579138976377953
20
0.7754376771653543
11
0.5578977559055118
21
0.7754798031496063
0
LINE
8
BLACK
6
CONTINUOUS
10
0.5578977559055118
20
0.7754798031496063
11
0.5578850787401575
21
0.7754969291338583
0
LINE
8
BLACK
6
CONTINUOUS
10
0.5578850787401575
20
0.7754969291338583
11
0.5577986220472441
21
0.7757388976377952
0
LINE
8
BLACK
6
CONTINUOUS
10
0.5577986220472441
20
0.7757388976377952
11
0.5577070078740157
21
0.7759783070866142
0
LINE
8
BLACK
6
CONTINUOUS
10
0.5577070078740157
20
0.7759783070866142
11
0.5577054724409448
21
0.7759995669291339
0
LINE
8
BLACK
6
CONTINUOUS
10
0.5577054724409448
20
0.7759995669291339
11
0.5576903149606299
21
0.7760420472440944
0
LINE
8
BLACK
6
CONTINUOUS
10
0.5576903149606299
20
0.7760420472440944
11
0.5558155511811024
21
0.7835411023622048
0
LINE
8
BLACK
6
CONTINUOUS
10
0.5558155511811024
20
0.7835411023622048
11
0.555800748031496
21
0.7836409842519685
0
LINE
8
BLACK
6
CONTINUOUS
10
0.555800748031496
20
0.7836409842519685
11
0.5557841338582677
21
0.7836811811023622
0
LINE
8
BLACK
6
CONTINUOUS
10
0.5557841338582677
20
0.7836811811023622
11
0.5557627559055118
21
0.7838982283464567
0
LINE
8
BLACK
6
CONTINUOUS
10
0.5557627559055118
20
0.7838982283464567
11
0.555730905511811
21
0.7841137007874015
0
LINE
8
BLACK
6
CONTINUOUS
10
0.555730905511811
20
0.7841137007874015
11
0.555737283464567
21
0.7841567322834645
0
LINE
8
BLACK
6
CONTINUOUS
10
0.555737283464567
20
0.7841567322834645
11
0.5557274015748032
21
0.7842572440944882
0
LINE
8
BLACK
6
CONTINUOUS
10
0.5557274015748032
20
0.7842572440944882
11
0.5557274015748032
21
0.7936310629921259
0
LINE
8
BLACK
6
CONTINUOUS
10
0.5557274015748032
20
0.7936310629921259
11
0.555737283464567
21
0.7937316141732284
0
LINE
8
BLACK
6
CONTINUOUS
10
0.555737283464567
20
0.7937316141732284
11
0.555730905511811
21
0.7937746062992126
0
LINE
8
BLACK
6
CONTINUOUS
10
0.555730905511811
20
0.7937746062992126
11
0.5557627559055118
21
0.7939901181102362
0
LINE
8
BLACK
6
CONTINUOUS
10
0.5557627559055118
20
0.7939901181102362
11
0.5557841338582677
21
0.7942071259842519
0
LINE
8
BLACK
6
CONTINUOUS
10
0.5557841338582677
20
0.7942071259842519
11
0.555800748031496
21
0.7942473622047244
0
LINE
8
BLACK
6
CONTINUOUS
10
0.555800748031496
20
0.7942473622047244
11
0.5558155511811024
21
0.7943472047244095
0
LINE
8
BLACK
6
CONTINUOUS
10
0.5558155511811024
20
0.7943472047244095
11
0.5576903149606299
21
0.8018462598425197
0
LINE
8
BLACK
6
CONTINUOUS
10
0.5576903149606299
20
0.8018462598425197
11
0.5577054724409448
21
0.801888779527559
0
LINE
8
BLACK
6
CONTINUOUS
10
0.5577054724409448
20
0.801888779527559
11
0.5577070078740157
21
0.80191
0
LINE
8
BLACK
6
CONTINUOUS
10
0.5577070078740157
20
0.80191
11
0.5577986220472441
21
0.8021494488188976
0
LINE
8
BLACK
6
CONTINUOUS
10
0.5577986220472441
20
0.8021494488188976
11
0.5578850787401575
21
0.8023913779527558
0
LINE
8
BLACK
6
CONTINUOUS
10
0.5578850787401575
20
0.8023913779527558
11
0.5578977559055118
21
0.8024085433070866
0
LINE
8
BLACK
6
CONTINUOUS
10
0.5578977559055118
20
0.8024085433070866
11
0.5579138976377953
21
0.8024506299212598
0
LINE
8
BLACK
6
CONTINUOUS
10
0.5579138976377953
20
0.8024506299212598
11
0.5597886614173229
21
0.8062001574803149
0
LINE
8
BLACK
6
CONTINUOUS
10
0.5597886614173229
20
0.8062001574803149
11
0.5599447244094488
21
0.8064481889763779
0
LINE
8
BLACK
6
CONTINUOUS
10
0.5599447244094488
20
0.8064481889763779
11
0.5599745669291338
21
0.8065201181102362
0
LINE
8
BLACK
6
CONTINUOUS
10
0.5599745669291338
20
0.8065201181102362
11
0.5600410236220472
21
0.8066011023622047
0
LINE
8
BLACK
6
CONTINUOUS
10
0.5600410236220472
20
0.8066011023622047
11
0.5600970078740157
21
0.8066900393700788
0
LINE
8
BLACK
6
CONTINUOUS
10
0.5600970078740157
20
0.8066900393700788
11
0.5601559842519684
21
0.8067412204724409
0
LINE
8
BLACK
6
CONTINUOUS
10
0.5601559842519684
20
0.8067412204724409
11
0.5603417716535433
21
0.8069675590551181
0
LINE
8
BLACK
6
CONTINUOUS
10
0.5603417716535433
20
0.8069675590551181
11
0.5622165354330708
21
0.8088423228346456
0
LINE
8
BLACK
6
CONTINUOUS
10
0.5622165354330708
20
0.8088423228346456
11
0.562442874015748
21
0.8090281102362205
0
LINE
8
BLACK
6
CONTINUOUS
10
0.562442874015748
20
0.8090281102362205
11
0.5624940551181102
21
0.8090870866141732
0
LINE
8
BLACK
6
CONTINUOUS
10
0.5624940551181102
20
0.8090870866141732
11
0.5625829921259843
21
0.8091430708661417
0
LINE
8
BLACK
6
CONTINUOUS
10
0.5625829921259843
20
0.8091430708661417
11
0.5626639763779527
21
0.8092095275590551
0
LINE
8
BLACK
6
CONTINUOUS
10
0.5626639763779527
20
0.8092095275590551
11
0.562735905511811
21
0.8092393700787401
0
LINE
8
BLACK
6
CONTINUOUS
10
0.562735905511811
20
0.8092393700787401
11
0.562983937007874
21
0.8093954330708661
0
LINE
8
BLACK
6
CONTINUOUS
10
0.562983937007874
20
0.8093954330708661
11
0.5667334645669291
21
0.8112701968503937
0
LINE
8
BLACK
6
CONTINUOUS
10
0.5667334645669291
20
0.8112701968503937
11
0.5672740551181102
21
0.8114770866141732
0
LINE
8
BLACK
6
CONTINUOUS
10
0.5672740551181102
20
0.8114770866141732
11
0.5673799212598425
21
0.8114846456692913
0
LINE
8
BLACK
6
CONTINUOUS
10
0.5673799212598425
20
0.8114846456692913
11
0.5674779133858268
21
0.8115251968503937
0
LINE
8
BLACK
6
CONTINUOUS
10
0.5674779133858268
20
0.8115251968503937
11
0.5680539763779527
21
0.8115819291338583
0
LINE
8
BLACK
6
CONTINUOUS
10
0.5680539763779527
20
0.8115819291338583
11
0.5718035039370079
21
0.8115819291338583
0
LINE
8
BLACK
6
CONTINUOUS
10
0.5718035039370079
20
0.8115819291338583
11
0.5723795669291338
21
0.8115251968503937
0
LINE
8
BLACK
6
CONTINUOUS
10
0.5660535433070866
20
0.8043276771653544
11
0.5648564173228346
21
0.8031305511811023
0
LINE
8
BLACK
6
CONTINUOUS
10
0.5648564173228346
20
0.8031305511811023
11
0.563340905511811
21
0.8000995669291339
0
LINE
8
BLACK
6
CONTINUOUS
10
0.563340905511811
20
0.8000995669291339
11
0.5616329133858268
21
0.7932675196850394
0
LINE
8
BLACK
6
CONTINUOUS
10
0.5616329133858268
20
0.7932675196850394
11
0.5616329133858268
21
0.7846207874015748
0
LINE
8
BLACK
6
CONTINUOUS
10
0.5616329133858268
20
0.7846207874015748
11
0.563340905511811
21
0.7777887401574803
0
LINE
8
BLACK
6
CONTINUOUS
10
0.563340905511811
20
0.7777887401574803
11
0.5648564173228346
21
0.7747577559055118
0
LINE
8
BLACK
6
CONTINUOUS
10
0.5648564173228346
20
0.7747577559055118
11
0.5660535433070866
21
0.7735605905511811
0
LINE
8
BLACK
6
CONTINUOUS
10
0.5660535433070866
20
0.7735605905511811
11
0.5687510236220472
21
0.7722118503937008
0
LINE
8
BLACK
6
CONTINUOUS
10
0.5687510236220472
20
0.7722118503937008
11
0.5711064566929134
21
0.7722118503937008
0
LINE
8
BLACK
6
CONTINUOUS
10
0.5711064566929134
20
0.7722118503937008
11
0.5738038976377953
21
0.7735605905511811
0
LINE
8
BLACK
6
CONTINUOUS
10
0.5738038976377953
20
0.7735605905511811
11
0.5750010236220472
21
0.7747577559055118
0
LINE
8
BLACK
6
CONTINUOUS
10
0.5750010236220472
20
0.7747577559055118
11
0.5765165354330708
21
0.7777887401574803
0
LINE
8
BLACK
6
CONTINUOUS
10
0.5765165354330708
20
0.7777887401574803
11
0.5782245669291338
21
0.7846207874015748
0
LINE
8
BLACK
6
CONTINUOUS
10
0.5782245669291338
20
0.7846207874015748
11
0.5782245669291338
21
0.7932675196850394
0
LINE
8
BLACK
6
CONTINUOUS
10
0.5782245669291338
20
0.7932675196850394
11
0.5765165354330708
21
0.8000995669291339
0
LINE
8
BLACK
6
CONTINUOUS
10
0.5765165354330708
20
0.8000995669291339
11
0.5750010629921259
21
0.8031305511811023
0
LINE
8
BLACK
6
CONTINUOUS
10
0.5750010629921259
20
0.8031305511811023
11
0.573803937007874
21
0.8043276771653544
0
LINE
8
BLACK
6
CONTINUOUS
10
0.573803937007874
20
0.8043276771653544
11
0.5711064566929134
21
0.8056764173228347
0
LINE
8
BLACK
6
CONTINUOUS
10
0.5711064566929134
20
0.8056764173228347
11
0.5687510236220472
21
0.8056764173228347
0
LINE
8
BLACK
6
CONTINUOUS
10
0.5687510236220472
20
0.8056764173228347
11
0.5660535433070866
21
0.8043276771653544
0
LINE
8
BLACK
6
CONTINUOUS
10
0.5427274015748031
20
0.7757621653543307
11
0.5434477165354331
21
0.7754638188976378
0
LINE
8
BLACK
6
CONTINUOUS
10
0.5434477165354331
20
0.7754638188976378
11
0.5434477559055118
21
0.7754637795275591
0
LINE
8
BLACK
6
CONTINUOUS
10
0.5434477559055118
20
0.7754637795275591
11
0.5438952362204724
21
0.7750965354330709
0
LINE
8
BLACK
6
CONTINUOUS
10
0.5438952362204724
20
0.7750965354330709
11
0.5457699606299212
21
0.7732217716535433
0
LINE
8
BLACK
6
CONTINUOUS
10
0.5457699606299212
20
0.7732217716535433
11
0.5461372047244094
21
0.7727742913385827
0
LINE
8
BLACK
6
CONTINUOUS
10
0.5461372047244094
20
0.7727742913385827
11
0.5465762598425197
21
0.7717142125984252
0
LINE
8
BLACK
6
CONTINUOUS
10
0.5465762598425197
20
0.7717142125984252
11
0.5465780708661417
21
0.7717098818897637
0
LINE
8
BLACK
6
CONTINUOUS
10
0.5465780708661417
20
0.7717098818897637
11
0.5465780708661417
21
0.7705577952755905
0
LINE
8
BLACK
6
CONTINUOUS
10
0.5465780708661417
20
0.7705577952755905
11
0.5461371653543307
21
0.7694933858267716
0
LINE
8
BLACK
6
CONTINUOUS
10
0.5461371653543307
20
0.7694933858267716
11
0.5457699606299212
21
0.7690459448818897
0
LINE
8
BLACK
6
CONTINUOUS
10
0.5457699606299212
20
0.7690459448818897
11
0.5438951968503937
21
0.7671711811023622
0
LINE
8
BLACK
6
CONTINUOUS
10
0.5438951968503937
20
0.7671711811023622
11
0.5434477559055118
21
0.7668039763779527
0
LINE
8
BLACK
6
CONTINUOUS
10
0.5434477559055118
20
0.7668039763779527
11
0.5423833464566929
21
0.7663630708661417
0
LINE
8
BLACK
6
CONTINUOUS
10
0.5423833464566929
20
0.7663630708661417
11
0.5423833070866142
21
0.7663630708661417
0
LINE
8
BLACK
6
CONTINUOUS
10
0.5423833070866142
20
0.7663630708661417
11
0.5412312598425196
21
0.7663630708661417
0
LINE
8
BLACK
6
CONTINUOUS
10
0.5412312598425196
20
0.7663630708661417
11
0.5412312204724409
21
0.7663630708661417
0
LINE
8
BLACK
6
CONTINUOUS
10
0.5412312204724409
20
0.7663630708661417
11
0.5401668110236221
21
0.7668039763779527
0
LINE
8
BLACK
6
CONTINUOUS
10
0.5401668110236221
20
0.7668039763779527
11
0.5397193700787402
21
0.7671711811023622
0
LINE
8
BLACK
6
CONTINUOUS
10
0.5397193700787402
20
0.7671711811023622
11
0.5378446062992126
21
0.7690459448818897
0
LINE
8
BLACK
6
CONTINUOUS
10
0.5378446062992126
20
0.7690459448818897
11
0.5374774015748032
21
0.7694933858267716
0
LINE
8
BLACK
6
CONTINUOUS
10
0.5374774015748032
20
0.7694933858267716
11
0.5372348031496063
21
0.770079094488189
0
LINE
8
BLACK
6
CONTINUOUS
10
0.5372348031496063
20
0.770079094488189
11
0.5370364960629921
21
0.7705577952755905
0
LINE
8
BLACK
6
CONTINUOUS
10
0.5370364960629921
20
0.7705577952755905
11
0.5370364960629921
21
0.7717098818897637
0
LINE
8
BLACK
6
CONTINUOUS
10
0.5370364960629921
20
0.7717098818897637
11
0.5374773622047244
21
0.7727742913385827
0
LINE
8
BLACK
6
CONTINUOUS
10
0.5374773622047244
20
0.7727742913385827
11
0.5378445669291338
21
0.7732217322834646
0
LINE
8
BLACK
6
CONTINUOUS
10
0.5378445669291338
20
0.7732217322834646
11
0.5397193307086614
21
0.7750965354330709
0
LINE
8
BLACK
6
CONTINUOUS
10
0.5397193307086614
20
0.7750965354330709
11
0.5401668110236221
21
0.7754637795275591
0
LINE
8
BLACK
6
CONTINUOUS
10
0.5401668110236221
20
0.7754637795275591
11
0.5401668503937008
21
0.7754638188976378
0
LINE
8
BLACK
6
CONTINUOUS
10
0.5401668503937008
20
0.7754638188976378
11
0.5408871653543307
21
0.7757621653543307
0
LINE
8
BLACK
6
CONTINUOUS
10
0.5408871653543307
20
0.7757621653543307
11
0.5412312204724409
21
0.77590468503937
0
LINE
8
BLACK
6
CONTINUOUS
10
0.5412312204724409
20
0.77590468503937
11
0.5423833070866142
21
0.77590468503937
0
LINE
8
BLACK
6
CONTINUOUS
10
0.5423833070866142
20
0.77590468503937
11
0.5423833464566929
21
0.77590468503937
0
LINE
8
BLACK
6
CONTINUOUS
10
0.5423833464566929
20
0.77590468503937
11
0.5427274015748031
21
0.7757621653543307
0
LINE
8
BLACK
6
CONTINUOUS
10
0.6398711417322834
20
0.7984018503937008
11
0.6399691338582677
21
0.7983612598425197
0
LINE
8
BLACK
6
CONTINUOUS
10
0.6399691338582677
20
0.7983612598425197
11
0.6400749606299212
21
0.7983537401574803
0
LINE
8
BLACK
6
CONTINUOUS
10
0.6400749606299212
20
0.7983537401574803
11
0.6406155905511811
21
0.7981468503937008
0
LINE
8
BLACK
6
CONTINUOUS
10
0.6406155905511811
20
0.7981468503937008
11
0.6443651181102362
21
0.7962720866141733
0
LINE
8
BLACK
6
CONTINUOUS
10
0.6443651181102362
20
0.7962720866141733
11
0.6444614566929133
21
0.7962114566929134
0
LINE
8
BLACK
6
CONTINUOUS
10
0.6444614566929133
20
0.7962114566929134
11
0.6445068897637796
21
0.7961962992125984
0
LINE
8
BLACK
6
CONTINUOUS
10
0.6445068897637796
20
0.7961962992125984
11
0.6445634251968504
21
0.7961472834645669
0
LINE
8
BLACK
6
CONTINUOUS
10
0.6445634251968504
20
0.7961472834645669
11
0.644855
21
0.7959637401574803
0
LINE
8
BLACK
6
CONTINUOUS
10
0.644855
20
0.7959637401574803
11
0.6449193700787401
21
0.7958895275590551
0
LINE
8
BLACK
6
CONTINUOUS
10
0.6449193700787401
20
0.7958895275590551
11
0.6449837401574803
21
0.7959637401574803
0
LINE
8
BLACK
6
CONTINUOUS
10
0.6449837401574803
20
0.7959637401574803
11
0.6452752755905512
21
0.7961472834645669
0
LINE
8
BLACK
6
CONTINUOUS
10
0.6452752755905512
20
0.7961472834645669
11
0.6453318503937008
21
0.7961962992125984
0
LINE
8
BLACK
6
CONTINUOUS
10
0.6453318503937008
20
0.7961962992125984
11
0.6453772440944882
21
0.7962114566929134
0
LINE
8
BLACK
6
CONTINUOUS
10
0.6453772440944882
20
0.7962114566929134
11
0.6454736220472441
21
0.7962720866141733
0
LINE
8
BLACK
6
CONTINUOUS
10
0.6454736220472441
20
0.7962720866141733
11
0.6492231496062992
21
0.7981468503937008
0
LINE
8
BLACK
6
CONTINUOUS
10
0.6492231496062992
20
0.7981468503937008
11
0.6497637401574803
21
0.7983537401574803
0
LINE
8
BLACK
6
CONTINUOUS
10
0.6497637401574803
20
0.7983537401574803
11
0.6498696062992125
21
0.7983612992125984
0
LINE
8
BLACK
6
CONTINUOUS
10
0.6498696062992125
20
0.7983612992125984
11
0.6499675984251968
21
0.7984018503937008
0
LINE
8
BLACK
6
CONTINUOUS
10
0.6499675984251968
20
0.7984018503937008
11
0.6505436614173228
21
0.7984585826771653
0
LINE
8
BLACK
6
CONTINUOUS
10
0.6505436614173228
20
0.7984585826771653
11
0.6561679527559054
21
0.7984585826771653
0
LINE
8
BLACK
6
CONTINUOUS
10
0.6561679527559054
20
0.7984585826771653
11
0.6567440157480314
21
0.7984018503937008
0
LINE
8
BLACK
6
CONTINUOUS
10
0.6567440157480314
20
0.7984018503937008
11
0.6568420078740157
21
0.7983612598425197
0
LINE
8
BLACK
6
CONTINUOUS
10
0.6568420078740157
20
0.7983612598425197
11
0.6569478346456693
21
0.7983537401574803
0
LINE
8
BLACK
6
CONTINUOUS
10
0.6569478346456693
20
0.7983537401574803
11
0.6574884645669291
21
0.7981468503937008
0
LINE
8
BLACK
6
CONTINUOUS
10
0.6574884645669291
20
0.7981468503937008
11
0.661238031496063
21
0.7962720866141733
0
LINE
8
BLACK
6
CONTINUOUS
10
0.661238031496063
20
0.7962720866141733
11
0.6613343307086614
21
0.7962114566929134
0
LINE
8
BLACK
6
CONTINUOUS
10
0.6613343307086614
20
0.7962114566929134
11
0.6613798031496063
21
0.7961962992125984
0
LINE
8
BLACK
6
CONTINUOUS
10
0.6613798031496063
20
0.7961962992125984
11
0.6614363779527559
21
0.7961472440944881
0
LINE
8
BLACK
6
CONTINUOUS
10
0.6614363779527559
20
0.7961472440944881
11
0.6617278740157481
21
0.7959637401574803
0
LINE
8
BLACK
6
CONTINUOUS
10
0.6617278740157481
20
0.7959637401574803
11
0.6619703543307086
21
0.7956841338582678
0
LINE
8
BLACK
6
CONTINUOUS
10
0.6619703543307086
20
0.7956841338582678
11
0.6622501968503937
21
0.7954414566929133
0
LINE
8
BLACK
6
CONTINUOUS
10
0.6622501968503937
20
0.7954414566929133
11
0.6624337007874016
21
0.7951499212598425
0
LINE
8
BLACK
6
CONTINUOUS
10
0.6624337007874016
20
0.7951499212598425
11
0.6624827559055118
21
0.7950933464566929
0
LINE
8
BLACK
6
CONTINUOUS
10
0.6624827559055118
20
0.7950933464566929
11
0.662497874015748
21
0.7950479527559055
0
LINE
8
BLACK
6
CONTINUOUS
10
0.662497874015748
20
0.7950479527559055
11
0.6625585433070866
21
0.7949515748031496
0
LINE
8
BLACK
6
CONTINUOUS
10
0.6625585433070866
20
0.7949515748031496
11
0.6644333070866142
21
0.7912020472440945
0
LINE
8
BLACK
6
CONTINUOUS
10
0.6644333070866142
20
0.7912020472440945
11
0.6646401968503937
21
0.7906614566929133
0
LINE
8
BLACK
6
CONTINUOUS
10
0.6646401968503937
20
0.7906614566929133
11
0.6646477165354331
21
0.7905555905511811
0
LINE
8
BLACK
6
CONTINUOUS
10
0.6646477165354331
20
0.7905555905511811
11
0.6646883070866142
21
0.7904575984251968
0
LINE
8
BLACK
6
CONTINUOUS
10
0.6646883070866142
20
0.7904575984251968
11
0.6647450393700787
21
0.7898815354330708
0
LINE
8
BLACK
6
CONTINUOUS
10
0.6647450393700787
20
0.7898815354330708
11
0.6647450393700787
21
0.769259094488189
0
LINE
8
BLACK
6
CONTINUOUS
10
0.6647450393700787
20
0.769259094488189
11
0.6646883070866142
21
0.768683031496063
0
LINE
8
BLACK
6
CONTINUOUS
10
0.6646883070866142
20
0.768683031496063
11
0.6642474015748031
21
0.7676186220472441
0
LINE
8
BLACK
6
CONTINUOUS
10
0.6642474015748031
20
0.7676186220472441
11
0.6634327559055118
21
0.7668039763779527
0
LINE
8
BLACK
6
CONTINUOUS
10
0.6634327559055118
20
0.7668039763779527
11
0.6623683464566928
21
0.7663630708661417
0
LINE
8
BLACK
6
CONTINUOUS
10
0.6623683464566928
20
0.7663630708661417
11
0.6612162204724409
21
0.7663630708661417
0
LINE
8
BLACK
6
CONTINUOUS
10
0.6612162204724409
20
0.7663630708661417
11
0.6601518110236221
21
0.7668039763779527
0
LINE
8
BLACK
6
CONTINUOUS
10
0.6601518110236221
20
0.7668039763779527
11
0.6593371653543307
21
0.7676186220472441
0
LINE
8
BLACK
6
CONTINUOUS
10
0.6593371653543307
20
0.7676186220472441
11
0.6588962598425196
21
0.768683031496063
0
LINE
8
BLACK
6
CONTINUOUS
10
0.6588962598425196
20
0.768683031496063
11
0.6588395275590551
21
0.769259094488189
0
LINE
8
BLACK
6
CONTINUOUS
10
0.6588395275590551
20
0.769259094488189
11
0.6588395275590551
21
0.7891844881889764
0
LINE
8
BLACK
6
CONTINUOUS
10
0.6588395275590551
20
0.7891844881889764
11
0.6577166535433071
21
0.7914302362204724
0
LINE
8
BLACK
6
CONTINUOUS
10
0.6577166535433071
20
0.7914302362204724
11
0.655470905511811
21
0.7925530708661417
0
LINE
8
BLACK
6
CONTINUOUS
10
0.655470905511811
20
0.7925530708661417
11
0.6512407086614173
21
0.7925530708661417
0
LINE
8
BLACK
6
CONTINUOUS
10
0.6512407086614173
20
0.7925530708661417
11
0.6489949606299212
21
0.7914302362204724
0
LINE
8
BLACK
6
CONTINUOUS
10
0.6489949606299212
20
0.7914302362204724
11
0.6478721259842519
21
0.7891844881889764
0
LINE
8
BLACK
6
CONTINUOUS
10
0.6478721259842519
20
0.7891844881889764
11
0.6478721259842519
21
0.769259094488189
0
LINE
8
BLACK
6
CONTINUOUS
10
0.6478721259842519
20
0.769259094488189
11
0.6478153937007873
21
0.768683031496063
0
LINE
8
BLACK
6
CONTINUOUS
10
0.6478153937007873
20
0.768683031496063
11
0.6473744881889764
21
0.7676186220472441
0
LINE
8
BLACK
6
CONTINUOUS
10
0.6473744881889764
20
0.7676186220472441
11
0.646559842519685
21
0.7668039763779527
0
LINE
8
BLACK
6
CONTINUOUS
10
0.646559842519685
20
0.7668039763779527
11
0.6454954330708661
21
0.7663630708661417
0
LINE
8
BLACK
6
CONTINUOUS
10
0.6454954330708661
20
0.7663630708661417
11
0.6443433070866141
21
0.7663630708661417
0
LINE
8
BLACK
6
CONTINUOUS
10
0.6443433070866141
20
0.7663630708661417
11
0.6432788976377952
21
0.7668039763779527
0
LINE
8
BLACK
6
CONTINUOUS
10
0.6432788976377952
20
0.7668039763779527
11
0.6424642519685039
21
0.7676186220472441
0
LINE
8
BLACK
6
CONTINUOUS
10
0.6424642519685039
20
0.7676186220472441
11
0.6420233464566929
21
0.768683031496063
0
LINE
8
BLACK
6
CONTINUOUS
10
0.6420233464566929
20
0.768683031496063
11
0.6419666141732283
21
0.769259094488189
0
LINE
8
BLACK
6
CONTINUOUS
10
0.6419666141732283
20
0.769259094488189
11
0.6419666141732283
21
0.7891844881889764
0
LINE
8
BLACK
6
CONTINUOUS
10
0.6419666141732283
20
0.7891844881889764
11
0.6408437401574802
21
0.7914302362204724
0
LINE
8
BLACK
6
CONTINUOUS
10
0.6408437401574802
20
0.7914302362204724
11
0.638598031496063
21
0.7925530708661417
0
LINE
8
BLACK
6
CONTINUOUS
10
0.638598031496063
20
0.7925530708661417
11
0.6343678346456693
21
0.7925530708661417
0
LINE
8
BLACK
6
CONTINUOUS
10
0.6343678346456693
20
0.7925530708661417
11
0.6316703543307086
21
0.7912043307086614
0
LINE
8
BLACK
6
CONTINUOUS
10
0.6316703543307086
20
0.7912043307086614
11
0.6309992519685039
21
0.7905332283464567
0
LINE
8
BLACK
6
CONTINUOUS
10
0.6309992519685039
20
0.7905332283464567
11
0.6309992519685039
21
0.769259094488189
0
LINE
8
BLACK
6
CONTINUOUS
10
0.6309992519685039
20
0.769259094488189
11
0.6309425196850393
21
0.768683031496063
0
LINE
8
BLACK
6
CONTINUOUS
10
0.6309425196850393
20
0.768683031496063
11
0.6305016141732284
21
0.7676186220472441
0
LINE
8
BLACK
6
CONTINUOUS
10
0.6305016141732284
20
0.7676186220472441
11
0.629686968503937
21
0.7668039763779527
0
LINE
8
BLACK
6
CONTINUOUS
10
0.629686968503937
20
0.7668039763779527
11
0.6286225590551181
21
0.7663630708661417
0
LINE
8
BLACK
6
CONTINUOUS
10
0.6286225590551181
20
0.7663630708661417
11
0.6274704330708661
21
0.7663630708661417
0
LINE
8
BLACK
6
CONTINUOUS
10
0.6274704330708661
20
0.7663630708661417
11
0.6264060236220472
21
0.7668039763779527
0
LINE
8
BLACK
6
CONTINUOUS
10
0.6264060236220472
20
0.7668039763779527
11
0.6255913779527559
21
0.7676186220472441
0
LINE
8
BLACK
6
CONTINUOUS
10
0.6255913779527559
20
0.7676186220472441
11
0.6251504724409449
21
0.768683031496063
0
LINE
8
BLACK
6
CONTINUOUS
10
0.6251504724409449
20
0.768683031496063
11
0.6250937401574803
21
0.769259094488189
0
LINE
8
BLACK
6
CONTINUOUS
10
0.6250937401574803
20
0.769259094488189
11
0.6250937401574803
21
0.7955058267716535
0
LINE
8
BLACK
6
CONTINUOUS
10
0.6250937401574803
20
0.7955058267716535
11
0.6251504724409449
21
0.7960818897637795
0
LINE
8
BLACK
6
CONTINUOUS
10
0.6251504724409449
20
0.7960818897637795
11
0.6255913779527559
21
0.7971462992125984
0
LINE
8
BLACK
6
CONTINUOUS
10
0.6255913779527559
20
0.7971462992125984
11
0.6264060236220472
21
0.7979609448818897
0
LINE
8
BLACK
6
CONTINUOUS
10
0.6264060236220472
20
0.7979609448818897
11
0.6274704330708661
21
0.7984018503937008
0
LINE
8
BLACK
6
CONTINUOUS
10
0.6274704330708661
20
0.7984018503937008
11
0.6286225590551181
21
0.7984018503937008
0
LINE
8
BLACK
6
CONTINUOUS
10
0.6286225590551181
20
0.7984018503937008
11
0.629686968503937
21
0.7979609448818897
0
LINE
8
BLACK
6
CONTINUOUS
10
0.629686968503937
20
0.7979609448818897
11
0.6304507874015748
21
0.797197125984252
0
LINE
8
BLACK
6
CONTINUOUS
10
0.6304507874015748
20
0.797197125984252
11
0.6323502755905511
21
0.7981468503937008
0
LINE
8
BLACK
6
CONTINUOUS
10
0.6323502755905511
20
0.7981468503937008
11
0.6328908661417323
21
0.7983537401574803
0
LINE
8
BLACK
6
CONTINUOUS
10
0.6328908661417323
20
0.7983537401574803
11
0.6329967322834645
21
0.7983612992125984
0
LINE
8
BLACK
6
CONTINUOUS
10
0.6329967322834645
20
0.7983612992125984
11
0.6330947244094488
21
0.7984018503937008
0
LINE
8
BLACK
6
CONTINUOUS
10
0.6330947244094488
20
0.7984018503937008
11
0.6336707874015748
21
0.7984585826771653
0
LINE
8
BLACK
6
CONTINUOUS
10
0.6336707874015748
20
0.7984585826771653
11
0.6392950787401575
21
0.7984585826771653
0
LINE
8
BLACK
6
CONTINUOUS
10
0.6392950787401575
20
0.7984585826771653
11
0.6398711417322834
21
0.7984018503937008
0
LINE
8
BLACK
6
CONTINUOUS
10
0.6923645669291338
20
0.7984018503937008
11
0.6924625590551181
21
0.7983612598425197
0
LINE
8
BLACK
6
CONTINUOUS
10
0.6924625590551181
20
0.7983612598425197
11
0.6925683858267716
21
0.7983537401574803
0
LINE
8
BLACK
6
CONTINUOUS
10
0.6925683858267716
20
0.7983537401574803
11
0.6931090157480315
21
0.7981468503937008
0
LINE
8
BLACK
6
CONTINUOUS
10
0.6931090157480315
20
0.7981468503937008
11
0.6968585433070866
21
0.7962720866141733
0
LINE
8
BLACK
6
CONTINUOUS
10
0.6968585433070866
20
0.7962720866141733
11
0.6969548818897637
21
0.7962114566929134
0
LINE
8
BLACK
6
CONTINUOUS
10
0.6969548818897637
20
0.7962114566929134
11
0.6970003149606299
21
0.7961962992125984
0
LINE
8
BLACK
6
CONTINUOUS
10
0.6970003149606299
20
0.7961962992125984
11
0.6970568503937008
21
0.7961472834645669
0
LINE
8
BLACK
6
CONTINUOUS
10
0.6970568503937008
20
0.7961472834645669
11
0.6973484251968504
21
0.7959637401574803
0
LINE
8
BLACK
6
CONTINUOUS
10
0.6973484251968504
20
0.7959637401574803
11
0.6974127952755905
21
0.7958895275590551
0
LINE
8
BLACK
6
CONTINUOUS
10
0.6974127952755905
20
0.7958895275590551
11
0.6974771653543307
21
0.7959637401574803
0
LINE
8
BLACK
6
CONTINUOUS
10
0.6974771653543307
20
0.7959637401574803
11
0.6977687007874016
21
0.7961472834645669
0
LINE
8
BLACK
6
CONTINUOUS
10
0.6977687007874016
20
0.7961472834645669
11
0.6978252755905512
21
0.7961962992125984
0
LINE
8
BLACK
6
CONTINUOUS
10
0.6978252755905512
20
0.7961962992125984
11
0.6978706692913386
21
0.7962114566929134
0
LINE
8
BLACK
6
CONTINUOUS
10
0.6978706692913386
20
0.7962114566929134
11
0.6979670472440944
21
0.7962720866141733
0
LINE
8
BLACK
6
CONTINUOUS
10
0.6979670472440944
20
0.7962720866141733
11
0.7017165748031496
21
0.7981468503937008
0
LINE
8
BLACK
6
CONTINUOUS
10
0.7017165748031496
20
0.7981468503937008
11
0.7022571653543307
21
0.7983537401574803
0
LINE
8
BLACK
6
CONTINUOUS
10
0.7022571653543307
20
0.7983537401574803
11
0.7023630314960629
21
0.7983612992125984
0
LINE
8
BLACK
6
CONTINUOUS
10
0.7023630314960629
20
0.7983612992125984
11
0.7024610236220472
21
0.7984018503937008
0
LINE
8
BLACK
6
CONTINUOUS
10
0.7024610236220472
20
0.7984018503937008
11
0.7030370866141732
21
0.7984585826771653
0
LINE
8
BLACK
6
CONTINUOUS
10
0.7030370866141732
20
0.7984585826771653
11
0.7086613779527559
21
0.7984585826771653
0
LINE
8
BLACK
6
CONTINUOUS
10
0.7086613779527559
20
0.7984585826771653
11
0.7092374409448818
21
0.7984018503937008
0
LINE
8
BLACK
6
CONTINUOUS
10
0.7092374409448818
20
0.7984018503937008
11
0.7093354330708661
21
0.7983612598425197
0
LINE
8
BLACK
6
CONTINUOUS
10
0.7093354330708661
20
0.7983612598425197
11
0.7094412598425197
21
0.7983537401574803
0
LINE
8
BLACK
6
CONTINUOUS
10
0.7094412598425197
20
0.7983537401574803
11
0.7099818897637795
21
0.7981468503937008
0
LINE
8
BLACK
6
CONTINUOUS
10
0.7099818897637795
20
0.7981468503937008
11
0.7137314566929134
21
0.7962720866141733
0
LINE
8
BLACK
6
CONTINUOUS
10
0.7137314566929134
20
0.7962720866141733
11
0.7138277559055118
21
0.7962114566929134
0
LINE
8
BLACK
6
CONTINUOUS
10
0.7138277559055118
20
0.7962114566929134
11
0.7138732283464567
21
0.7961962992125984
0
LINE
8
BLACK
6
CONTINUOUS
10
0.7138732283464567
20
0.7961962992125984
11
0.7139298031496063
21
0.7961472440944881
0
LINE
8
BLACK
6
CONTINUOUS
10
0.7139298031496063
20
0.7961472440944881
11
0.7142212992125984
21
0.7959637401574803
0
LINE
8
BLACK
6
CONTINUOUS
10
0.7142212992125984
20
0.7959637401574803
11
0.714463779527559
21
0.7956841338582678
0
LINE
8
BLACK
6
CONTINUOUS
10
0.714463779527559
20
0.7956841338582678
11
0.7147436220472441
21
0.7954414566929133
0
LINE
8
BLACK
6
CONTINUOUS
10
0.7147436220472441
20
0.7954414566929133
11
0.7149271259842519
21
0.7951499212598425
0
LINE
8
BLACK
6
CONTINUOUS
10
0.7149271259842519
20
0.7951499212598425
11
0.7149761811023622
21
0.7950933464566929
0
LINE
8
BLACK
6
CONTINUOUS
10
0.7149761811023622
20
0.7950933464566929
11
0.7149912992125984
21
0.7950479527559055
0
LINE
8
BLACK
6
CONTINUOUS
10
0.7149912992125984
20
0.7950479527559055
11
0.715051968503937
21
0.7949515748031496
0
LINE
8
BLACK
6
CONTINUOUS
10
0.715051968503937
20
0.7949515748031496
11
0.7169267322834646
21
0.7912020472440945
0
LINE
8
BLACK
6
CONTINUOUS
10
0.7169267322834646
20
0.7912020472440945
11
0.7171336220472441
21
0.7906614566929133
0
LINE
8
BLACK
6
CONTINUOUS
10
0.7171336220472441
20
0.7906614566929133
11
0.7171411417322835
21
0.7905555905511811
0
LINE
8
BLACK
6
CONTINUOUS
10
0.7171411417322835
20
0.7905555905511811
11
0.7171817322834646
21
0.7904575984251968
0
LINE
8
BLACK
6
CONTINUOUS
10
0.7171817322834646
20
0.7904575984251968
11
0.7172384645669291
21
0.7898815354330708
0
LINE
8
BLACK
6
CONTINUOUS
10
0.7172384645669291
20
0.7898815354330708
11
0.7172384645669291
21
0.769259094488189
0
LINE
8
BLACK
6
CONTINUOUS
10
0.7172384645669291
20
0.769259094488189
11
0.7171817322834646
21
0.768683031496063
0
LINE
8
BLACK
6
CONTINUOUS
10
0.7171817322834646
20
0.768683031496063
11
0.7167408267716535
21
0.7676186220472441
0
LINE
8
BLACK
6
CONTINUOUS
10
0.7167408267716535
20
0.7676186220472441
11
0.7159261811023622
21
0.7668039763779527
0
LINE
8
BLACK
6
CONTINUOUS
10
0.7159261811023622
20
0.7668039763779527
11
0.7148617716535433
21
0.7663630708661417
0
LINE
8
BLACK
6
CONTINUOUS
10
0.7148617716535433
20
0.7663630708661417
11
0.7137096456692913
21
0.7663630708661417
0
LINE
8
BLACK
6
CONTINUOUS
10
0.7137096456692913
20
0.7663630708661417
11
0.7126452362204724
21
0.7668039763779527
0
LINE
8
BLACK
6
CONTINUOUS
10
0.7126452362204724
20
0.7668039763779527
11
0.7118305905511811
21
0.7676186220472441
0
LINE
8
BLACK
6
CONTINUOUS
10
0.7118305905511811
20
0.7676186220472441
11
0.7113896850393701
21
0.768683031496063
0
LINE
8
BLACK
6
CONTINUOUS
10
0.7113896850393701
20
0.768683031496063
11
0.7113329527559055
21
0.769259094488189
0
LINE
8
BLACK
6
CONTINUOUS
10
0.7113329527559055
20
0.769259094488189
11
0.7113329527559055
21
0.7891844881889764
0
LINE
8
BLACK
6
CONTINUOUS
10
0.7113329527559055
20
0.7891844881889764
11
0.7102100787401575
21
0.7914302362204724
0
LINE
8
BLACK
6
CONTINUOUS
10
0.7102100787401575
20
0.7914302362204724
11
0.7079643307086614
21
0.7925530708661417
0
LINE
8
BLACK
6
CONTINUOUS
10
0.7079643307086614
20
0.7925530708661417
11
0.7037341338582677
21
0.7925530708661417
0
LINE
8
BLACK
6
CONTINUOUS
10
0.7037341338582677
20
0.7925530708661417
11
0.7014883858267716
21
0.7914302362204724
0
LINE
8
BLACK
6
CONTINUOUS
10
0.7014883858267716
20
0.7914302362204724
11
0.7003655511811023
21
0.7891844881889764
0
LINE
8
BLACK
6
CONTINUOUS
10
0.7003655511811023
20
0.7891844881889764
11
0.7003655511811023
21
0.769259094488189
0
LINE
8
BLACK
6
CONTINUOUS
10
0.7003655511811023
20
0.769259094488189
11
0.7003088188976377
21
0.768683031496063
0
LINE
8
BLACK
6
CONTINUOUS
10
0.7003088188976377
20
0.768683031496063
11
0.6998679133858268
21
0.7676186220472441
0
LINE
8
BLACK
6
CONTINUOUS
10
0.6998679133858268
20
0.7676186220472441
11
0.6990532677165354
21
0.7668039763779527
0
LINE
8
BLACK
6
CONTINUOUS
10
0.6990532677165354
20
0.7668039763779527
11
0.6979888582677165
21
0.7663630708661417
0
LINE
8
BLACK
6
CONTINUOUS
10
0.6979888582677165
20
0.7663630708661417
11
0.6968367322834645
21
0.7663630708661417
0
LINE
8
BLACK
6
CONTINUOUS
10
0.6968367322834645
20
0.7663630708661417
11
0.6957723228346456
21
0.7668039763779527
0
LINE
8
BLACK
6
CONTINUOUS
10
0.6957723228346456
20
0.7668039763779527
11
0.6949576771653543
21
0.7676186220472441
0
LINE
8
BLACK
6
CONTINUOUS
10
0.6949576771653543
20
0.7676186220472441
11
0.6945167716535433
21
0.768683031496063
0
LINE
8
BLACK
6
CONTINUOUS
10
0.6945167716535433
20
0.768683031496063
11
0.6944600393700787
21
0.769259094488189
0
LINE
8
BLACK
6
CONTINUOUS
10
0.6944600393700787
20
0.769259094488189
11
0.6944600393700787
21
0.7891844881889764
0
LINE
8
BLACK
6
CONTINUOUS
10
0.6944600393700787
20
0.7891844881889764
11
0.6933371653543307
21
0.7914302362204724
0
LINE
8
BLACK
6
CONTINUOUS
10
0.6933371653543307
20
0.7914302362204724
11
0.6910914566929134
21
0.7925530708661417
0
LINE
8
BLACK
6
CONTINUOUS
10
0.6910914566929134
20
0.7925530708661417
11
0.6868612598425197
21
0.7925530708661417
0
LINE
8
BLACK
6
CONTINUOUS
10
0.6868612598425197
20
0.7925530708661417
11
0.684163779527559
21
0.7912043307086614
0
LINE
8
BLACK
6
CONTINUOUS
10
0.684163779527559
20
0.7912043307086614
11
0.6834926771653543
21
0.7905332283464567
0
LINE
8
BLACK
6
CONTINUOUS
10
0.6834926771653543
20
0.7905332283464567
11
0.6834926771653543
21
0.769259094488189
0
LINE
8
BLACK
6
CONTINUOUS
10
0.6834926771653543
20
0.769259094488189
11
0.6834359448818897
21
0.768683031496063
0
LINE
8
BLACK
6
CONTINUOUS
10
0.6834359448818897
20
0.768683031496063
11
0.6829950393700788
21
0.7676186220472441
0
LINE
8
BLACK
6
CONTINUOUS
10
0.6829950393700788
20
0.7676186220472441
11
0.6821803937007874
21
0.7668039763779527
0
LINE
8
BLACK
6
CONTINUOUS
10
0.6821803937007874
20
0.7668039763779527
11
0.6811159842519685
21
0.7663630708661417
0
LINE
8
BLACK
6
CONTINUOUS
10
0.6811159842519685
20
0.7663630708661417
11
0.6799638582677165
21
0.7663630708661417
0
LINE
8
BLACK
6
CONTINUOUS
10
0.6799638582677165
20
0.7663630708661417
11
0.6788994488188976
21
0.7668039763779527
0
LINE
8
BLACK
6
CONTINUOUS
10
0.6788994488188976
20
0.7668039763779527
11
0.6780848031496063
21
0.7676186220472441
0
LINE
8
BLACK
6
CONTINUOUS
10
0.6780848031496063
20
0.7676186220472441
11
0.6776438976377953
21
0.768683031496063
0
LINE
8
BLACK
6
CONTINUOUS
10
0.6776438976377953
20
0.768683031496063
11
0.6775871653543307
21
0.769259094488189
0
LINE
8
BLACK
6
CONTINUOUS
10
0.6775871653543307
20
0.769259094488189
11
0.6775871653543307
21
0.7955058267716535
0
LINE
8
BLACK
6
CONTINUOUS
10
0.6775871653543307
20
0.7955058267716535
11
0.6776438976377953
21
0.7960818897637795
0
LINE
8
BLACK
6
CONTINUOUS
10
0.6776438976377953
20
0.7960818897637795
11
0.6780848031496063
21
0.7971462992125984
0
LINE
8
BLACK
6
CONTINUOUS
10
0.6780848031496063
20
0.7971462992125984
11
0.6788994488188976
21
0.7979609448818897
0
LINE
8
BLACK
6
CONTINUOUS
10
0.6788994488188976
20
0.7979609448818897
11
0.6799638582677165
21
0.7984018503937008
0
LINE
8
BLACK
6
CONTINUOUS
10
0.6799638582677165
20
0.7984018503937008
11
0.6811159842519685
21
0.7984018503937008
0
LINE
8
BLACK
6
CONTINUOUS
10
0.6811159842519685
20
0.7984018503937008
11
0.6821803937007874
21
0.7979609448818897
0
LINE
8
BLACK
6
CONTINUOUS
10
0.6821803937007874
20
0.7979609448818897
11
0.6829442125984252
21
0.797197125984252
0
LINE
8
BLACK
6
CONTINUOUS
10
0.6829442125984252
20
0.797197125984252
11
0.6848437007874015
21
0.7981468503937008
0
LINE
8
BLACK
6
CONTINUOUS
10
0.6848437007874015
20
0.7981468503937008
11
0.6853842913385827
21
0.7983537401574803
0
LINE
8
BLACK
6
CONTINUOUS
10
0.6853842913385827
20
0.7983537401574803
11
0.6854901574803149
21
0.7983612992125984
0
LINE
8
BLACK
6
CONTINUOUS
10
0.6854901574803149
20
0.7983612992125984
11
0.6855881496062992
21
0.7984018503937008
0
LINE
8
BLACK
6
CONTINUOUS
10
0.6855881496062992
20
0.7984018503937008
11
0.6861642125984252
21
0.7984585826771653
0
LINE
8
BLACK
6
CONTINUOUS
10
0.6861642125984252
20
0.7984585826771653
11
0.6917885039370079
21
0.7984585826771653
0
LINE
8
BLACK
6
CONTINUOUS
10
0.6917885039370079
20
0.7984585826771653
11
0.6923645669291338
21
0.7984018503937008
0
CIRCLE
8
BLACK
10
0.945
20
0.517
40
0.0068897637795276
0
CIRCLE
8
BLACK
10
0.4921259842519685
20
0.5905511811023622
40
0.0068897637795276
0
CIRCLE
8
BLACK
10
0.8533464566929133
20
0.344488188976378
40
0.0068897637795276
0
CIRCLE
8
BLACK
10
0.4921259842519685
20
0.
40
0.0068897637795276
0
CIRCLE
8
BLACK
10
0.8533464566929133
20
0.2460629921259843
40
0.0068897637795276
0
CIRCLE
8
BLACK
10
0.945
20
0.0735511811023622
40
0.0068897637795276
0
CIRCLE
8
BLACK
10
0.8533464566929133
20
0.4232283464566929
40
0.0068897637795276
0
CIRCLE
8
BLACK
10
0.0984251968503937
20
0.5905511811023622
40
0.0068897637795276
0
CIRCLE
8
BLACK
10
0.8858267716535433
20
0.
40
0.0068897637795276
0
CIRCLE
8
BLACK
10
0.8986220472440944
20
0.4735511811023622
40
0.0068897637795276
0
CIRCLE
8
BLACK
10
0.8858267716535433
20
0.5905511811023622
40
0.0068897637795276
0
CIRCLE
8
BLACK
10
0.0984251968503937
20
0.
40
0.0068897637795276
0
CIRCLE
8
BLACK
10
0.898
20
0.117
40
0.0068897637795276
0
CIRCLE
8
BLACK
10
0.8533464566929133
20
0.1673228346456693
40
0.0068897637795276
0
CIRCLE
8
BLACK
10
1.1318897637795275
20
0.1948818897637795
40
0.0068897637795276
0
CIRCLE
8
BLACK
10
1.1318897637795275
20
0.3956692913385826
40
0.0068897637795276
0
CIRCLE
8
BLACK
10
0.9311023622047244
20
0.1948818897637795
40
0.0068897637795276
0
CIRCLE
8
BLACK
10
0.9311023622047244
20
0.3956692913385826
40
0.0068897637795276
  0
ENDSEC
  0
EOF
