  0
SECTION
  2
HEADER
  9
$ANGBASE
  50
0.0
  9
$ANGDIR
  70
1
  9
$MEASUREMENT
  70
0
  0
ENDSEC
  0
SECTION
  2
TABLES
  0
TABLE
  2
LTYPE
  70
4
  0
LTYPE
  5
40F
  2
CONTINUOUS
  70
0
  3
Solid line
  72
65
  73
0
  40
0.0
  0
LTYPE
  5
410
  2
DASHDOT
 70
0
  3
Dash Dot ____ _ ____ _
 72
65
 73
4
 40
2.0
 49
1.25
 49
-0.25
 49
0.25
 49
-0.25
  0
LTYPE
  5
411
  2
DASHED
 70
0
  3
Dashed __ __ __ __ __
 72
65
 73
2
 40
0.75
 49
0.5
 49
-0.25
  0
LTYPE
  5
43B
  2
DOTTED
 70
0
  3
Dotted .  .  .  .
 72
65
 73
2
 40
0.2
 49
0.0
 49
-0.2
  0
ENDTAB
  0
TABLE
  2
STYLE
  70
4
  0
STYLE
  2
KICAD
  70
0
  40
0
  41
1
  42
1
  50
0
  71
0
  3
isocp.shx
  0
STYLE
  2
KICADB
  70
0
  40
0
  41
1
  42
1
  50
0
  71
0
  3
isocp.shx
  0
STYLE
  2
KICADI
  70
0
  40
0
  41
1
  42
1
  50
15
  71
0
  3
isocp.shx
  0
STYLE
  2
KICADBI
  70
0
  40
0
  41
1
  42
1
  50
15
  71
0
  3
isocp.shx
  0
ENDTAB
  0
TABLE
  2
LAYER
  70
1
  0
LAYER
  2
BLACK
  70
0
  62
7
  6
CONTINUOUS
  0
ENDTAB
  0
ENDSEC
  0
SECTION
  2
ENTITIES
0
LINE
8
BLACK
6
CONTINUOUS
10
0.1129223622047244
20
0.057248031496063
11
0.1221473622047244
21
0.0540811023622047
0
LINE
8
BLACK
6
CONTINUOUS
10
0.1221473622047244
20
0.0540811023622047
11
0.1307252755905512
21
0.0494389763779528
0
LINE
8
BLACK
6
CONTINUOUS
10
0.1307252755905512
20
0.0494389763779528
11
0.138422125984252
21
0.0434482677165354
0
LINE
8
BLACK
6
CONTINUOUS
10
0.138422125984252
20
0.0434482677165354
11
0.1450279921259842
21
0.0362724015748032
0
LINE
8
BLACK
6
CONTINUOUS
10
0.1450279921259842
20
0.0362724015748032
11
0.1503626377952756
21
0.028107125984252
0
LINE
8
BLACK
6
CONTINUOUS
10
0.1503626377952756
20
0.028107125984252
11
0.1542805511811024
21
0.019175157480315
0
LINE
8
BLACK
6
CONTINUOUS
10
0.1542805511811024
20
0.019175157480315
11
0.1566748818897638
21
0.009720157480315
0
LINE
8
BLACK
6
CONTINUOUS
10
0.1566748818897638
20
0.009720157480315
11
0.1574803149606299
21
0.
0
LINE
8
BLACK
6
CONTINUOUS
10
0.1574803149606299
20
0.
11
0.1566748818897638
21
-0.009720157480315
0
LINE
8
BLACK
6
CONTINUOUS
10
0.1566748818897638
20
-0.009720157480315
11
0.1542805511811024
21
-0.019175157480315
0
LINE
8
BLACK
6
CONTINUOUS
10
0.1542805511811024
20
-0.019175157480315
11
0.1503626377952756
21
-0.028107125984252
0
LINE
8
BLACK
6
CONTINUOUS
10
0.1503626377952756
20
-0.028107125984252
11
0.1450279921259842
21
-0.0362724015748032
0
LINE
8
BLACK
6
CONTINUOUS
10
0.1450279921259842
20
-0.0362724015748032
11
0.138422125984252
21
-0.0434482677165354
0
LINE
8
BLACK
6
CONTINUOUS
10
0.138422125984252
20
-0.0434482677165354
11
0.1307252755905512
21
-0.0494389763779528
0
LINE
8
BLACK
6
CONTINUOUS
10
0.1307252755905512
20
-0.0494389763779528
11
0.1221473622047244
21
-0.0540811023622047
0
LINE
8
BLACK
6
CONTINUOUS
10
0.1221473622047244
20
-0.0540811023622047
11
0.1129223622047244
21
-0.057248031496063
0
LINE
8
BLACK
6
CONTINUOUS
10
0.1129223622047244
20
-0.057248031496063
11
0.1033019291338583
21
-0.0588534251968504
0
LINE
8
BLACK
6
CONTINUOUS
10
0.1033019291338583
20
-0.0588534251968504
11
0.0935484645669291
21
-0.0588534251968504
0
LINE
8
BLACK
6
CONTINUOUS
10
0.0935484645669291
20
-0.0588534251968504
11
0.083928031496063
21
-0.057248031496063
0
LINE
8
BLACK
6
CONTINUOUS
10
0.083928031496063
20
-0.057248031496063
11
0.074703031496063
21
-0.0540811023622047
0
LINE
8
BLACK
6
CONTINUOUS
10
0.074703031496063
20
-0.0540811023622047
11
0.0661251181102362
21
-0.0494389763779528
0
LINE
8
BLACK
6
CONTINUOUS
10
0.0661251181102362
20
-0.0494389763779528
11
0.0584282677165354
21
-0.0434482677165354
0
LINE
8
BLACK
6
CONTINUOUS
10
0.0584282677165354
20
-0.0434482677165354
11
0.0518224015748031
21
-0.0362724015748032
0
LINE
8
BLACK
6
CONTINUOUS
10
0.0518224015748031
20
-0.0362724015748032
11
0.0464877559055118
21
-0.028107125984252
0
LINE
8
BLACK
6
CONTINUOUS
10
0.0464877559055118
20
-0.028107125984252
11
0.042569842519685
21
-0.019175157480315
0
LINE
8
BLACK
6
CONTINUOUS
10
0.042569842519685
20
-0.019175157480315
11
0.0401755118110236
21
-0.009720157480315
0
LINE
8
BLACK
6
CONTINUOUS
10
0.0401755118110236
20
-0.009720157480315
11
0.0393700787401575
21
0.
0
LINE
8
BLACK
6
CONTINUOUS
10
0.0393700787401575
20
0.
11
0.0401755118110236
21
0.009720157480315
0
LINE
8
BLACK
6
CONTINUOUS
10
0.0401755118110236
20
0.009720157480315
11
0.042569842519685
21
0.019175157480315
0
LINE
8
BLACK
6
CONTINUOUS
10
0.042569842519685
20
0.019175157480315
11
0.0464877559055118
21
0.028107125984252
0
LINE
8
BLACK
6
CONTINUOUS
10
0.0464877559055118
20
0.028107125984252
11
0.0518224015748031
21
0.0362724015748032
0
LINE
8
BLACK
6
CONTINUOUS
10
0.0518224015748031
20
0.0362724015748032
11
0.0584282677165354
21
0.0434482677165354
0
LINE
8
BLACK
6
CONTINUOUS
10
0.0584282677165354
20
0.0434482677165354
11
0.0661251181102362
21
0.0494389763779528
0
LINE
8
BLACK
6
CONTINUOUS
10
0.0661251181102362
20
0.0494389763779528
11
0.074703031496063
21
0.0540811023622047
0
LINE
8
BLACK
6
CONTINUOUS
10
0.074703031496063
20
0.0540811023622047
11
0.083928031496063
21
0.057248031496063
0
LINE
8
BLACK
6
CONTINUOUS
10
0.083928031496063
20
0.057248031496063
11
0.0935484645669291
21
0.0588534251968504
0
LINE
8
BLACK
6
CONTINUOUS
10
0.0935484645669291
20
0.0588534251968504
11
0.1033019291338583
21
0.0588534251968504
0
LINE
8
BLACK
6
CONTINUOUS
10
0.1033019291338583
20
0.0588534251968504
11
0.1129223622047244
21
0.057248031496063
0
LINE
8
BLACK
6
CONTINUOUS
10
0.5066231496062992
20
0.057248031496063
11
0.5158481496062992
21
0.0540811023622047
0
LINE
8
BLACK
6
CONTINUOUS
10
0.5158481496062992
20
0.0540811023622047
11
0.524426062992126
21
0.0494389763779528
0
LINE
8
BLACK
6
CONTINUOUS
10
0.524426062992126
20
0.0494389763779528
11
0.5321229133858267
21
0.0434482677165354
0
LINE
8
BLACK
6
CONTINUOUS
10
0.5321229133858267
20
0.0434482677165354
11
0.538728779527559
21
0.0362724015748032
0
LINE
8
BLACK
6
CONTINUOUS
10
0.538728779527559
20
0.0362724015748032
11
0.5440634251968504
21
0.028107125984252
0
LINE
8
BLACK
6
CONTINUOUS
10
0.5440634251968504
20
0.028107125984252
11
0.5479813385826772
21
0.019175157480315
0
LINE
8
BLACK
6
CONTINUOUS
10
0.5479813385826772
20
0.019175157480315
11
0.5503756692913385
21
0.009720157480315
0
LINE
8
BLACK
6
CONTINUOUS
10
0.5503756692913385
20
0.009720157480315
11
0.5511811023622047
21
0.
0
LINE
8
BLACK
6
CONTINUOUS
10
0.5511811023622047
20
0.
11
0.5503756692913385
21
-0.009720157480315
0
LINE
8
BLACK
6
CONTINUOUS
10
0.5503756692913385
20
-0.009720157480315
11
0.5479813385826772
21
-0.019175157480315
0
LINE
8
BLACK
6
CONTINUOUS
10
0.5479813385826772
20
-0.019175157480315
11
0.5440634251968504
21
-0.028107125984252
0
LINE
8
BLACK
6
CONTINUOUS
10
0.5440634251968504
20
-0.028107125984252
11
0.538728779527559
21
-0.0362724015748032
0
LINE
8
BLACK
6
CONTINUOUS
10
0.538728779527559
20
-0.0362724015748032
11
0.5321229133858267
21
-0.0434482677165354
0
LINE
8
BLACK
6
CONTINUOUS
10
0.5321229133858267
20
-0.0434482677165354
11
0.524426062992126
21
-0.0494389763779528
0
LINE
8
BLACK
6
CONTINUOUS
10
0.524426062992126
20
-0.0494389763779528
11
0.5158481496062992
21
-0.0540811023622047
0
LINE
8
BLACK
6
CONTINUOUS
10
0.5158481496062992
20
-0.0540811023622047
11
0.5066231496062992
21
-0.057248031496063
0
LINE
8
BLACK
6
CONTINUOUS
10
0.5066231496062992
20
-0.057248031496063
11
0.497002716535433
21
-0.0588534251968504
0
LINE
8
BLACK
6
CONTINUOUS
10
0.497002716535433
20
-0.0588534251968504
11
0.4872492519685039
21
-0.0588534251968504
0
LINE
8
BLACK
6
CONTINUOUS
10
0.4872492519685039
20
-0.0588534251968504
11
0.4776288188976378
21
-0.057248031496063
0
LINE
8
BLACK
6
CONTINUOUS
10
0.4776288188976378
20
-0.057248031496063
11
0.4684038188976378
21
-0.0540811023622047
0
LINE
8
BLACK
6
CONTINUOUS
10
0.4684038188976378
20
-0.0540811023622047
11
0.459825905511811
21
-0.0494389763779528
0
LINE
8
BLACK
6
CONTINUOUS
10
0.459825905511811
20
-0.0494389763779528
11
0.4521290551181102
21
-0.0434482677165354
0
LINE
8
BLACK
6
CONTINUOUS
10
0.4521290551181102
20
-0.0434482677165354
11
0.4455231889763779
21
-0.0362724015748032
0
LINE
8
BLACK
6
CONTINUOUS
10
0.4455231889763779
20
-0.0362724015748032
11
0.4401885433070866
21
-0.028107125984252
0
LINE
8
BLACK
6
CONTINUOUS
10
0.4401885433070866
20
-0.028107125984252
11
0.4362706299212598
21
-0.019175157480315
0
LINE
8
BLACK
6
CONTINUOUS
10
0.4362706299212598
20
-0.019175157480315
11
0.4338762992125984
21
-0.009720157480315
0
LINE
8
BLACK
6
CONTINUOUS
10
0.4338762992125984
20
-0.009720157480315
11
0.4330708661417323
21
0.
0
LINE
8
BLACK
6
CONTINUOUS
10
0.4330708661417323
20
0.
11
0.4338762992125984
21
0.009720157480315
0
LINE
8
BLACK
6
CONTINUOUS
10
0.4338762992125984
20
0.009720157480315
11
0.4362706299212598
21
0.019175157480315
0
LINE
8
BLACK
6
CONTINUOUS
10
0.4362706299212598
20
0.019175157480315
11
0.4401885433070866
21
0.028107125984252
0
LINE
8
BLACK
6
CONTINUOUS
10
0.4401885433070866
20
0.028107125984252
11
0.4455231889763779
21
0.0362724015748032
0
LINE
8
BLACK
6
CONTINUOUS
10
0.4455231889763779
20
0.0362724015748032
11
0.4521290551181102
21
0.0434482677165354
0
LINE
8
BLACK
6
CONTINUOUS
10
0.4521290551181102
20
0.0434482677165354
11
0.459825905511811
21
0.0494389763779528
0
LINE
8
BLACK
6
CONTINUOUS
10
0.459825905511811
20
0.0494389763779528
11
0.4684038188976378
21
0.0540811023622047
0
LINE
8
BLACK
6
CONTINUOUS
10
0.4684038188976378
20
0.0540811023622047
11
0.4776288188976378
21
0.057248031496063
0
LINE
8
BLACK
6
CONTINUOUS
10
0.4776288188976378
20
0.057248031496063
11
0.4872492519685039
21
0.0588534251968504
0
LINE
8
BLACK
6
CONTINUOUS
10
0.4872492519685039
20
0.0588534251968504
11
0.497002716535433
21
0.0588534251968504
0
LINE
8
BLACK
6
CONTINUOUS
10
0.497002716535433
20
0.0588534251968504
11
0.5066231496062992
21
0.057248031496063
0
LINE
8
BLACK
6
CONTINUOUS
10
0.9003239370078739
20
0.057248031496063
11
0.909548937007874
21
0.0540811023622047
0
LINE
8
BLACK
6
CONTINUOUS
10
0.909548937007874
20
0.0540811023622047
11
0.9181268503937008
21
0.0494389763779528
0
LINE
8
BLACK
6
CONTINUOUS
10
0.9181268503937008
20
0.0494389763779528
11
0.9258237007874015
21
0.0434482677165354
0
LINE
8
BLACK
6
CONTINUOUS
10
0.9258237007874015
20
0.0434482677165354
11
0.9324295669291338
21
0.0362724015748032
0
LINE
8
BLACK
6
CONTINUOUS
10
0.9324295669291338
20
0.0362724015748032
11
0.9377642125984251
21
0.028107125984252
0
LINE
8
BLACK
6
CONTINUOUS
10
0.9377642125984251
20
0.028107125984252
11
0.9416821259842519
21
0.019175157480315
0
LINE
8
BLACK
6
CONTINUOUS
10
0.9416821259842519
20
0.019175157480315
11
0.9440764566929134
21
0.009720157480315
0
LINE
8
BLACK
6
CONTINUOUS
10
0.9440764566929134
20
0.009720157480315
11
0.9448818897637795
21
0.
0
LINE
8
BLACK
6
CONTINUOUS
10
0.9448818897637795
20
0.
11
0.9440764566929134
21
-0.009720157480315
0
LINE
8
BLACK
6
CONTINUOUS
10
0.9440764566929134
20
-0.009720157480315
11
0.9416821259842519
21
-0.019175157480315
0
LINE
8
BLACK
6
CONTINUOUS
10
0.9416821259842519
20
-0.019175157480315
11
0.9377642125984251
21
-0.028107125984252
0
LINE
8
BLACK
6
CONTINUOUS
10
0.9377642125984251
20
-0.028107125984252
11
0.9324295669291338
21
-0.0362724015748032
0
LINE
8
BLACK
6
CONTINUOUS
10
0.9324295669291338
20
-0.0362724015748032
11
0.9258237007874015
21
-0.0434482677165354
0
LINE
8
BLACK
6
CONTINUOUS
10
0.9258237007874015
20
-0.0434482677165354
11
0.9181268503937008
21
-0.0494389763779528
0
LINE
8
BLACK
6
CONTINUOUS
10
0.9181268503937008
20
-0.0494389763779528
11
0.909548937007874
21
-0.0540811023622047
0
LINE
8
BLACK
6
CONTINUOUS
10
0.909548937007874
20
-0.0540811023622047
11
0.9003239370078739
21
-0.057248031496063
0
LINE
8
BLACK
6
CONTINUOUS
10
0.9003239370078739
20
-0.057248031496063
11
0.8907035039370078
21
-0.0588534251968504
0
LINE
8
BLACK
6
CONTINUOUS
10
0.8907035039370078
20
-0.0588534251968504
11
0.8809500393700788
21
-0.0588534251968504
0
LINE
8
BLACK
6
CONTINUOUS
10
0.8809500393700788
20
-0.0588534251968504
11
0.8713296062992126
21
-0.057248031496063
0
LINE
8
BLACK
6
CONTINUOUS
10
0.8713296062992126
20
-0.057248031496063
11
0.8621046062992126
21
-0.0540811023622047
0
LINE
8
BLACK
6
CONTINUOUS
10
0.8621046062992126
20
-0.0540811023622047
11
0.8535266929133858
21
-0.0494389763779528
0
LINE
8
BLACK
6
CONTINUOUS
10
0.8535266929133858
20
-0.0494389763779528
11
0.8458298425196851
21
-0.0434482677165354
0
LINE
8
BLACK
6
CONTINUOUS
10
0.8458298425196851
20
-0.0434482677165354
11
0.8392239763779528
21
-0.0362724015748032
0
LINE
8
BLACK
6
CONTINUOUS
10
0.8392239763779528
20
-0.0362724015748032
11
0.8338893307086614
21
-0.028107125984252
0
LINE
8
BLACK
6
CONTINUOUS
10
0.8338893307086614
20
-0.028107125984252
11
0.8299714173228346
21
-0.019175157480315
0
LINE
8
BLACK
6
CONTINUOUS
10
0.8299714173228346
20
-0.019175157480315
11
0.8275770866141732
21
-0.009720157480315
0
LINE
8
BLACK
6
CONTINUOUS
10
0.8275770866141732
20
-0.009720157480315
11
0.8267716535433071
21
0.
0
LINE
8
BLACK
6
CONTINUOUS
10
0.8267716535433071
20
0.
11
0.8275770866141732
21
0.009720157480315
0
LINE
8
BLACK
6
CONTINUOUS
10
0.8275770866141732
20
0.009720157480315
11
0.8299714173228346
21
0.019175157480315
0
LINE
8
BLACK
6
CONTINUOUS
10
0.8299714173228346
20
0.019175157480315
11
0.8338893307086614
21
0.028107125984252
0
LINE
8
BLACK
6
CONTINUOUS
10
0.8338893307086614
20
0.028107125984252
11
0.8392239763779528
21
0.0362724015748032
0
LINE
8
BLACK
6
CONTINUOUS
10
0.8392239763779528
20
0.0362724015748032
11
0.8458298425196851
21
0.0434482677165354
0
LINE
8
BLACK
6
CONTINUOUS
10
0.8458298425196851
20
0.0434482677165354
11
0.8535266929133858
21
0.0494389763779528
0
LINE
8
BLACK
6
CONTINUOUS
10
0.8535266929133858
20
0.0494389763779528
11
0.8621046062992126
21
0.0540811023622047
0
LINE
8
BLACK
6
CONTINUOUS
10
0.8621046062992126
20
0.0540811023622047
11
0.8713296062992126
21
0.057248031496063
0
LINE
8
BLACK
6
CONTINUOUS
10
0.8713296062992126
20
0.057248031496063
11
0.8809500393700788
21
0.0588534251968504
0
LINE
8
BLACK
6
CONTINUOUS
10
0.8809500393700788
20
0.0588534251968504
11
0.8907035039370078
21
0.0588534251968504
0
LINE
8
BLACK
6
CONTINUOUS
10
0.8907035039370078
20
0.0588534251968504
11
0.9003239370078739
21
0.057248031496063
0
LINE
8
BLACK
6
CONTINUOUS
10
0.954772559055118
20
0.0993193307086614
11
0.9606553149606299
21
0.0962318503937008
0
LINE
8
BLACK
6
CONTINUOUS
10
0.9606553149606299
20
0.0962318503937008
11
0.9656282677165354
21
0.0918262204724409
0
LINE
8
BLACK
6
CONTINUOUS
10
0.9656282677165354
20
0.0918262204724409
11
0.9694023228346457
21
0.0863585039370079
0
LINE
8
BLACK
6
CONTINUOUS
10
0.9694023228346457
20
0.0863585039370079
11
0.9717582283464566
21
0.0801464960629921
0
LINE
8
BLACK
6
CONTINUOUS
10
0.9717582283464566
20
0.0801464960629921
11
0.9725590551181102
21
0.0735511811023622
0
LINE
8
BLACK
6
CONTINUOUS
10
0.9725590551181102
20
0.0735511811023622
11
0.9717582283464566
21
0.0669558661417323
0
LINE
8
BLACK
6
CONTINUOUS
10
0.9717582283464566
20
0.0669558661417323
11
0.9694023228346457
21
0.0607438582677165
0
LINE
8
BLACK
6
CONTINUOUS
10
0.9694023228346457
20
0.0607438582677165
11
0.9656282677165354
21
0.0552761417322835
0
LINE
8
BLACK
6
CONTINUOUS
10
0.9656282677165354
20
0.0552761417322835
11
0.9606553149606299
21
0.0508705118110236
0
LINE
8
BLACK
6
CONTINUOUS
10
0.9606553149606299
20
0.0508705118110236
11
0.954772559055118
21
0.047783031496063
0
LINE
8
BLACK
6
CONTINUOUS
10
0.954772559055118
20
0.047783031496063
11
0.9483218897637795
21
0.0461930708661417
0
LINE
8
BLACK
6
CONTINUOUS
10
0.9483218897637795
20
0.0461930708661417
11
0.9416781102362205
21
0.0461930708661417
0
LINE
8
BLACK
6
CONTINUOUS
10
0.9416781102362205
20
0.0461930708661417
11
0.9352274409448819
21
0.047783031496063
0
LINE
8
BLACK
6
CONTINUOUS
10
0.9352274409448819
20
0.047783031496063
11
0.9293446850393701
21
0.0508705118110236
0
LINE
8
BLACK
6
CONTINUOUS
10
0.9293446850393701
20
0.0508705118110236
11
0.9243717322834646
21
0.0552761417322835
0
LINE
8
BLACK
6
CONTINUOUS
10
0.9243717322834646
20
0.0552761417322835
11
0.9205976771653543
21
0.0607438582677165
0
LINE
8
BLACK
6
CONTINUOUS
10
0.9205976771653543
20
0.0607438582677165
11
0.9182417716535433
21
0.0669558661417323
0
LINE
8
BLACK
6
CONTINUOUS
10
0.9182417716535433
20
0.0669558661417323
11
0.9174409448818898
21
0.0735511811023622
0
LINE
8
BLACK
6
CONTINUOUS
10
0.9174409448818898
20
0.0735511811023622
11
0.9182417716535433
21
0.0801464960629921
0
LINE
8
BLACK
6
CONTINUOUS
10
0.9182417716535433
20
0.0801464960629921
11
0.9205976771653543
21
0.0863585039370079
0
LINE
8
BLACK
6
CONTINUOUS
10
0.9205976771653543
20
0.0863585039370079
11
0.9243717322834646
21
0.0918262204724409
0
LINE
8
BLACK
6
CONTINUOUS
10
0.9243717322834646
20
0.0918262204724409
11
0.9293446850393701
21
0.0962318503937008
0
LINE
8
BLACK
6
CONTINUOUS
10
0.9293446850393701
20
0.0962318503937008
11
0.9352274409448819
21
0.0993193307086614
0
LINE
8
BLACK
6
CONTINUOUS
10
0.9352274409448819
20
0.0993193307086614
11
0.9416781102362205
21
0.1009092913385827
0
LINE
8
BLACK
6
CONTINUOUS
10
0.9416781102362205
20
0.1009092913385827
11
0.9483218897637795
21
0.1009092913385827
0
LINE
8
BLACK
6
CONTINUOUS
10
0.9483218897637795
20
0.1009092913385827
11
0.954772559055118
21
0.0993193307086614
0
LINE
8
BLACK
6
CONTINUOUS
10
0.9077725590551181
20
0.1427681496062992
11
0.9136553149606299
21
0.1396806692913386
0
LINE
8
BLACK
6
CONTINUOUS
10
0.9136553149606299
20
0.1396806692913386
11
0.9186282677165354
21
0.1352750393700787
0
LINE
8
BLACK
6
CONTINUOUS
10
0.9186282677165354
20
0.1352750393700787
11
0.9224023228346456
21
0.1298073228346457
0
LINE
8
BLACK
6
CONTINUOUS
10
0.9224023228346456
20
0.1298073228346457
11
0.9247582283464567
21
0.1235953149606299
0
LINE
8
BLACK
6
CONTINUOUS
10
0.9247582283464567
20
0.1235953149606299
11
0.9255590551181102
21
0.117
0
LINE
8
BLACK
6
CONTINUOUS
10
0.9255590551181102
20
0.117
11
0.9247582283464567
21
0.1104046850393701
0
LINE
8
BLACK
6
CONTINUOUS
10
0.9247582283464567
20
0.1104046850393701
11
0.9224023228346456
21
0.1041926771653543
0
LINE
8
BLACK
6
CONTINUOUS
10
0.9224023228346456
20
0.1041926771653543
11
0.9186282677165354
21
0.0987249606299213
0
LINE
8
BLACK
6
CONTINUOUS
10
0.9186282677165354
20
0.0987249606299213
11
0.9136553149606299
21
0.0943193307086614
0
LINE
8
BLACK
6
CONTINUOUS
10
0.9136553149606299
20
0.0943193307086614
11
0.9077725590551181
21
0.0912318503937008
0
LINE
8
BLACK
6
CONTINUOUS
10
0.9077725590551181
20
0.0912318503937008
11
0.9013218897637795
21
0.0896418897637795
0
LINE
8
BLACK
6
CONTINUOUS
10
0.9013218897637795
20
0.0896418897637795
11
0.8946781102362205
21
0.0896418897637795
0
LINE
8
BLACK
6
CONTINUOUS
10
0.8946781102362205
20
0.0896418897637795
11
0.8882274409448818
21
0.0912318503937008
0
LINE
8
BLACK
6
CONTINUOUS
10
0.8882274409448818
20
0.0912318503937008
11
0.88234468503937
21
0.0943193307086614
0
LINE
8
BLACK
6
CONTINUOUS
10
0.88234468503937
20
0.0943193307086614
11
0.8773717322834645
21
0.0987249606299213
0
LINE
8
BLACK
6
CONTINUOUS
10
0.8773717322834645
20
0.0987249606299213
11
0.8735976771653543
21
0.1041926771653543
0
LINE
8
BLACK
6
CONTINUOUS
10
0.8735976771653543
20
0.1041926771653543
11
0.8712417716535433
21
0.1104046850393701
0
LINE
8
BLACK
6
CONTINUOUS
10
0.8712417716535433
20
0.1104046850393701
11
0.8704409448818897
21
0.117
0
LINE
8
BLACK
6
CONTINUOUS
10
0.8704409448818897
20
0.117
11
0.8712417716535433
21
0.1235953149606299
0
LINE
8
BLACK
6
CONTINUOUS
10
0.8712417716535433
20
0.1235953149606299
11
0.8735976771653543
21
0.1298073228346457
0
LINE
8
BLACK
6
CONTINUOUS
10
0.8735976771653543
20
0.1298073228346457
11
0.8773717322834645
21
0.1352750393700787
0
LINE
8
BLACK
6
CONTINUOUS
10
0.8773717322834645
20
0.1352750393700787
11
0.88234468503937
21
0.1396806692913386
0
LINE
8
BLACK
6
CONTINUOUS
10
0.88234468503937
20
0.1396806692913386
11
0.8882274409448818
21
0.1427681496062992
0
LINE
8
BLACK
6
CONTINUOUS
10
0.8882274409448818
20
0.1427681496062992
11
0.8946781102362205
21
0.1443581102362205
0
LINE
8
BLACK
6
CONTINUOUS
10
0.8946781102362205
20
0.1443581102362205
11
0.9013218897637795
21
0.1443581102362205
0
LINE
8
BLACK
6
CONTINUOUS
10
0.9013218897637795
20
0.1443581102362205
11
0.9077725590551181
21
0.1427681496062992
0
LINE
8
BLACK
6
CONTINUOUS
10
0.1114511811023622
20
0.1758722440944882
11
0.1164358661417323
21
0.174128031496063
0
LINE
8
BLACK
6
CONTINUOUS
10
0.1164358661417323
20
0.174128031496063
11
0.1206849606299213
21
0.1709920472440945
0
LINE
8
BLACK
6
CONTINUOUS
10
0.1206849606299213
20
0.1709920472440945
11
0.1238209448818898
21
0.1667429527559055
0
LINE
8
BLACK
6
CONTINUOUS
10
0.1238209448818898
20
0.1667429527559055
11
0.125565157480315
21
0.1617582677165354
0
LINE
8
BLACK
6
CONTINUOUS
10
0.125565157480315
20
0.1617582677165354
11
0.1258740157480315
21
0.1584645669291339
0
LINE
8
BLACK
6
CONTINUOUS
10
0.1258740157480315
20
0.1584645669291339
11
0.1258740157480315
21
0.1387795275590551
0
LINE
8
BLACK
6
CONTINUOUS
10
0.1258740157480315
20
0.1387795275590551
11
0.125565157480315
21
0.1354858267716536
0
LINE
8
BLACK
6
CONTINUOUS
10
0.125565157480315
20
0.1354858267716536
11
0.1238209448818898
21
0.1305011417322835
0
LINE
8
BLACK
6
CONTINUOUS
10
0.1238209448818898
20
0.1305011417322835
11
0.1206849606299213
21
0.1262520472440945
0
LINE
8
BLACK
6
CONTINUOUS
10
0.1206849606299213
20
0.1262520472440945
11
0.1164358661417323
21
0.123116062992126
0
LINE
8
BLACK
6
CONTINUOUS
10
0.1164358661417323
20
0.123116062992126
11
0.1114511811023622
21
0.1213718503937008
0
LINE
8
BLACK
6
CONTINUOUS
10
0.1114511811023622
20
0.1213718503937008
11
0.1081574803149606
21
0.1210629921259842
0
LINE
8
BLACK
6
CONTINUOUS
10
0.1081574803149606
20
0.1210629921259842
11
0.0215433070866142
21
0.1210629921259842
0
LINE
8
BLACK
6
CONTINUOUS
10
0.0215433070866142
20
0.1210629921259842
11
0.0182496062992126
21
0.1213718503937008
0
LINE
8
BLACK
6
CONTINUOUS
10
0.0182496062992126
20
0.1213718503937008
11
0.0132649212598425
21
0.123116062992126
0
LINE
8
BLACK
6
CONTINUOUS
10
0.0132649212598425
20
0.123116062992126
11
0.0090158267716535
21
0.1262520472440945
0
LINE
8
BLACK
6
CONTINUOUS
10
0.0090158267716535
20
0.1262520472440945
11
0.005879842519685
21
0.1305011417322835
0
LINE
8
BLACK
6
CONTINUOUS
10
0.005879842519685
20
0.1305011417322835
11
0.0041356299212598
21
0.1354858267716536
0
LINE
8
BLACK
6
CONTINUOUS
10
0.0041356299212598
20
0.1354858267716536
11
0.0038267716535433
21
0.1387795275590551
0
LINE
8
BLACK
6
CONTINUOUS
10
0.0038267716535433
20
0.1387795275590551
11
0.0038267716535433
21
0.1584645669291339
0
LINE
8
BLACK
6
CONTINUOUS
10
0.0038267716535433
20
0.1584645669291339
11
0.0041356299212598
21
0.1617582677165354
0
LINE
8
BLACK
6
CONTINUOUS
10
0.0041356299212598
20
0.1617582677165354
11
0.005879842519685
21
0.1667429527559055
0
LINE
8
BLACK
6
CONTINUOUS
10
0.005879842519685
20
0.1667429527559055
11
0.0090158267716535
21
0.1709920472440945
0
LINE
8
BLACK
6
CONTINUOUS
10
0.0090158267716535
20
0.1709920472440945
11
0.0132649212598425
21
0.174128031496063
0
LINE
8
BLACK
6
CONTINUOUS
10
0.0132649212598425
20
0.174128031496063
11
0.0182496062992126
21
0.1758722440944882
0
LINE
8
BLACK
6
CONTINUOUS
10
0.0182496062992126
20
0.1758722440944882
11
0.0215433070866142
21
0.1761811023622047
0
LINE
8
BLACK
6
CONTINUOUS
10
0.0215433070866142
20
0.1761811023622047
11
0.1081574803149606
21
0.1761811023622047
0
LINE
8
BLACK
6
CONTINUOUS
10
0.1081574803149606
20
0.1761811023622047
11
0.1114511811023622
21
0.1758722440944882
0
LINE
8
BLACK
6
CONTINUOUS
10
0.8631190157480315
20
0.1930909842519685
11
0.8690017716535433
21
0.1900035039370079
0
LINE
8
BLACK
6
CONTINUOUS
10
0.8690017716535433
20
0.1900035039370079
11
0.8739747244094488
21
0.185597874015748
0
LINE
8
BLACK
6
CONTINUOUS
10
0.8739747244094488
20
0.185597874015748
11
0.877748779527559
21
0.180130157480315
0
LINE
8
BLACK
6
CONTINUOUS
10
0.877748779527559
20
0.180130157480315
11
0.88010468503937
21
0.1739181496062992
0
LINE
8
BLACK
6
CONTINUOUS
10
0.88010468503937
20
0.1739181496062992
11
0.8809055118110236
21
0.1673228346456693
0
LINE
8
BLACK
6
CONTINUOUS
10
0.8809055118110236
20
0.1673228346456693
11
0.88010468503937
21
0.1607275196850394
0
LINE
8
BLACK
6
CONTINUOUS
10
0.88010468503937
20
0.1607275196850394
11
0.877748779527559
21
0.1545155118110236
0
LINE
8
BLACK
6
CONTINUOUS
10
0.877748779527559
20
0.1545155118110236
11
0.8739747244094488
21
0.1490477952755906
0
LINE
8
BLACK
6
CONTINUOUS
10
0.8739747244094488
20
0.1490477952755906
11
0.8690017716535433
21
0.1446421653543307
0
LINE
8
BLACK
6
CONTINUOUS
10
0.8690017716535433
20
0.1446421653543307
11
0.8631190157480315
21
0.1415546850393701
0
LINE
8
BLACK
6
CONTINUOUS
10
0.8631190157480315
20
0.1415546850393701
11
0.8566683464566929
21
0.1399647244094488
0
LINE
8
BLACK
6
CONTINUOUS
10
0.8566683464566929
20
0.1399647244094488
11
0.8500245669291339
21
0.1399647244094488
0
LINE
8
BLACK
6
CONTINUOUS
10
0.8500245669291339
20
0.1399647244094488
11
0.8435738976377952
21
0.1415546850393701
0
LINE
8
BLACK
6
CONTINUOUS
10
0.8435738976377952
20
0.1415546850393701
11
0.8376911417322834
21
0.1446421653543307
0
LINE
8
BLACK
6
CONTINUOUS
10
0.8376911417322834
20
0.1446421653543307
11
0.8327181889763779
21
0.1490477952755906
0
LINE
8
BLACK
6
CONTINUOUS
10
0.8327181889763779
20
0.1490477952755906
11
0.8289441338582677
21
0.1545155118110236
0
LINE
8
BLACK
6
CONTINUOUS
10
0.8289441338582677
20
0.1545155118110236
11
0.8265882283464566
21
0.1607275196850394
0
LINE
8
BLACK
6
CONTINUOUS
10
0.8265882283464566
20
0.1607275196850394
11
0.8257874015748031
21
0.1673228346456693
0
LINE
8
BLACK
6
CONTINUOUS
10
0.8257874015748031
20
0.1673228346456693
11
0.8265882283464566
21
0.1739181496062992
0
LINE
8
BLACK
6
CONTINUOUS
10
0.8265882283464566
20
0.1739181496062992
11
0.8289441338582677
21
0.180130157480315
0
LINE
8
BLACK
6
CONTINUOUS
10
0.8289441338582677
20
0.180130157480315
11
0.8327181889763779
21
0.185597874015748
0
LINE
8
BLACK
6
CONTINUOUS
10
0.8327181889763779
20
0.185597874015748
11
0.8376911417322834
21
0.1900035039370079
0
LINE
8
BLACK
6
CONTINUOUS
10
0.8376911417322834
20
0.1900035039370079
11
0.8435738976377952
21
0.1930909842519685
0
LINE
8
BLACK
6
CONTINUOUS
10
0.8435738976377952
20
0.1930909842519685
11
0.8500245669291339
21
0.1946809448818898
0
LINE
8
BLACK
6
CONTINUOUS
10
0.8500245669291339
20
0.1946809448818898
11
0.8566683464566929
21
0.1946809448818898
0
LINE
8
BLACK
6
CONTINUOUS
10
0.8566683464566929
20
0.1946809448818898
11
0.8631190157480315
21
0.1930909842519685
0
LINE
8
BLACK
6
CONTINUOUS
10
0.939279842519685
20
0.212788031496063
11
0.9439933070866141
21
0.2097588582677165
0
LINE
8
BLACK
6
CONTINUOUS
10
0.9439933070866141
20
0.2097588582677165
11
0.9476624803149606
21
0.2055244094488189
0
LINE
8
BLACK
6
CONTINUOUS
10
0.9476624803149606
20
0.2055244094488189
11
0.94999
21
0.2004277952755905
0
LINE
8
BLACK
6
CONTINUOUS
10
0.94999
20
0.2004277952755905
11
0.9507874015748031
21
0.1948818897637795
0
LINE
8
BLACK
6
CONTINUOUS
10
0.9507874015748031
20
0.1948818897637795
11
0.94999
21
0.1893359842519685
0
LINE
8
BLACK
6
CONTINUOUS
10
0.94999
20
0.1893359842519685
11
0.9476624803149606
21
0.1842393700787402
0
LINE
8
BLACK
6
CONTINUOUS
10
0.9476624803149606
20
0.1842393700787402
11
0.9439933070866141
21
0.1800049212598425
0
LINE
8
BLACK
6
CONTINUOUS
10
0.9439933070866141
20
0.1800049212598425
11
0.939279842519685
21
0.1769757480314961
0
LINE
8
BLACK
6
CONTINUOUS
10
0.939279842519685
20
0.1769757480314961
11
0.9339038188976377
21
0.1753972047244095
0
LINE
8
BLACK
6
CONTINUOUS
10
0.9339038188976377
20
0.1753972047244095
11
0.928300905511811
21
0.1753972047244095
0
LINE
8
BLACK
6
CONTINUOUS
10
0.928300905511811
20
0.1753972047244095
11
0.9229248818897637
21
0.1769757480314961
0
LINE
8
BLACK
6
CONTINUOUS
10
0.9229248818897637
20
0.1769757480314961
11
0.9182114173228346
21
0.1800049212598425
0
LINE
8
BLACK
6
CONTINUOUS
10
0.9182114173228346
20
0.1800049212598425
11
0.9145422440944881
21
0.1842393700787402
0
LINE
8
BLACK
6
CONTINUOUS
10
0.9145422440944881
20
0.1842393700787402
11
0.9122147244094488
21
0.1893359842519685
0
LINE
8
BLACK
6
CONTINUOUS
10
0.9122147244094488
20
0.1893359842519685
11
0.9114173228346456
21
0.1948818897637795
0
LINE
8
BLACK
6
CONTINUOUS
10
0.9114173228346456
20
0.1948818897637795
11
0.9122147244094488
21
0.2004277952755905
0
LINE
8
BLACK
6
CONTINUOUS
10
0.9122147244094488
20
0.2004277952755905
11
0.9145422440944881
21
0.2055244094488189
0
LINE
8
BLACK
6
CONTINUOUS
10
0.9145422440944881
20
0.2055244094488189
11
0.9182114173228346
21
0.2097588582677165
0
LINE
8
BLACK
6
CONTINUOUS
10
0.9182114173228346
20
0.2097588582677165
11
0.9229248818897637
21
0.212788031496063
0
LINE
8
BLACK
6
CONTINUOUS
10
0.9229248818897637
20
0.212788031496063
11
0.928300905511811
21
0.2143665748031496
0
LINE
8
BLACK
6
CONTINUOUS
10
0.928300905511811
20
0.2143665748031496
11
0.9339038188976377
21
0.2143665748031496
0
LINE
8
BLACK
6
CONTINUOUS
10
0.9339038188976377
20
0.2143665748031496
11
0.939279842519685
21
0.212788031496063
0
LINE
8
BLACK
6
CONTINUOUS
10
1.1400672440944881
20
0.212788031496063
11
1.1447807086614172
21
0.2097588582677165
0
LINE
8
BLACK
6
CONTINUOUS
10
1.1447807086614172
20
0.2097588582677165
11
1.1484498818897637
21
0.2055244094488189
0
LINE
8
BLACK
6
CONTINUOUS
10
1.1484498818897637
20
0.2055244094488189
11
1.1507774015748031
21
0.2004277952755905
0
LINE
8
BLACK
6
CONTINUOUS
10
1.1507774015748031
20
0.2004277952755905
11
1.1515748031496063
21
0.1948818897637795
0
LINE
8
BLACK
6
CONTINUOUS
10
1.1515748031496063
20
0.1948818897637795
11
1.1507774015748031
21
0.1893359842519685
0
LINE
8
BLACK
6
CONTINUOUS
10
1.1507774015748031
20
0.1893359842519685
11
1.1484498818897637
21
0.1842393700787402
0
LINE
8
BLACK
6
CONTINUOUS
10
1.1484498818897637
20
0.1842393700787402
11
1.1447807086614172
21
0.1800049212598425
0
LINE
8
BLACK
6
CONTINUOUS
10
1.1447807086614172
20
0.1800049212598425
11
1.1400672440944881
21
0.1769757480314961
0
LINE
8
BLACK
6
CONTINUOUS
10
1.1400672440944881
20
0.1769757480314961
11
1.1346912204724409
21
0.1753972047244095
0
LINE
8
BLACK
6
CONTINUOUS
10
1.1346912204724409
20
0.1753972047244095
11
1.1290883070866142
21
0.1753972047244095
0
LINE
8
BLACK
6
CONTINUOUS
10
1.1290883070866142
20
0.1753972047244095
11
1.123712283464567
21
0.1769757480314961
0
LINE
8
BLACK
6
CONTINUOUS
10
1.123712283464567
20
0.1769757480314961
11
1.1189988188976379
21
0.1800049212598425
0
LINE
8
BLACK
6
CONTINUOUS
10
1.1189988188976379
20
0.1800049212598425
11
1.1153296456692914
21
0.1842393700787402
0
LINE
8
BLACK
6
CONTINUOUS
10
1.1153296456692914
20
0.1842393700787402
11
1.113002125984252
21
0.1893359842519685
0
LINE
8
BLACK
6
CONTINUOUS
10
1.113002125984252
20
0.1893359842519685
11
1.1122047244094488
21
0.1948818897637795
0
LINE
8
BLACK
6
CONTINUOUS
10
1.1122047244094488
20
0.1948818897637795
11
1.113002125984252
21
0.2004277952755905
0
LINE
8
BLACK
6
CONTINUOUS
10
1.113002125984252
20
0.2004277952755905
11
1.1153296456692914
21
0.2055244094488189
0
LINE
8
BLACK
6
CONTINUOUS
10
1.1153296456692914
20
0.2055244094488189
11
1.1189988188976379
21
0.2097588582677165
0
LINE
8
BLACK
6
CONTINUOUS
10
1.1189988188976379
20
0.2097588582677165
11
1.123712283464567
21
0.212788031496063
0
LINE
8
BLACK
6
CONTINUOUS
10
1.123712283464567
20
0.212788031496063
11
1.1290883070866142
21
0.2143665748031496
0
LINE
8
BLACK
6
CONTINUOUS
10
1.1290883070866142
20
0.2143665748031496
11
1.1346912204724409
21
0.2143665748031496
0
LINE
8
BLACK
6
CONTINUOUS
10
1.1346912204724409
20
0.2143665748031496
11
1.1400672440944881
21
0.212788031496063
0
LINE
8
BLACK
6
CONTINUOUS
10
0.2223255118110236
20
0.2405688976377953
11
0.2264006692913386
21
0.2385766535433071
0
LINE
8
BLACK
6
CONTINUOUS
10
0.2264006692913386
20
0.2385766535433071
11
0.2296081496062992
21
0.2353691732283464
0
LINE
8
BLACK
6
CONTINUOUS
10
0.2296081496062992
20
0.2353691732283464
11
0.2316003937007874
21
0.2312940157480315
0
LINE
8
BLACK
6
CONTINUOUS
10
0.2316003937007874
20
0.2312940157480315
11
0.2321732283464567
21
0.2273622047244094
0
LINE
8
BLACK
6
CONTINUOUS
10
0.2321732283464567
20
0.2273622047244094
11
0.2321732283464567
21
0.2155511811023622
0
LINE
8
BLACK
6
CONTINUOUS
10
0.2321732283464567
20
0.2155511811023622
11
0.2316003937007874
21
0.2116193700787402
0
LINE
8
BLACK
6
CONTINUOUS
10
0.2316003937007874
20
0.2116193700787402
11
0.2296081496062992
21
0.2075442125984252
0
LINE
8
BLACK
6
CONTINUOUS
10
0.2296081496062992
20
0.2075442125984252
11
0.2264006692913386
21
0.2043367322834646
0
LINE
8
BLACK
6
CONTINUOUS
10
0.2264006692913386
20
0.2043367322834646
11
0.2223255118110236
21
0.2023444881889764
0
LINE
8
BLACK
6
CONTINUOUS
10
0.2223255118110236
20
0.2023444881889764
11
0.2183937007874016
21
0.2017716535433071
0
LINE
8
BLACK
6
CONTINUOUS
10
0.2183937007874016
20
0.2017716535433071
11
0.1632755905511811
21
0.2017716535433071
0
LINE
8
BLACK
6
CONTINUOUS
10
0.1632755905511811
20
0.2017716535433071
11
0.159343779527559
21
0.2023444881889764
0
LINE
8
BLACK
6
CONTINUOUS
10
0.159343779527559
20
0.2023444881889764
11
0.1552686220472441
21
0.2043367322834646
0
LINE
8
BLACK
6
CONTINUOUS
10
0.1552686220472441
20
0.2043367322834646
11
0.1520611417322835
21
0.2075442125984252
0
LINE
8
BLACK
6
CONTINUOUS
10
0.1520611417322835
20
0.2075442125984252
11
0.1500688976377953
21
0.2116193700787402
0
LINE
8
BLACK
6
CONTINUOUS
10
0.1500688976377953
20
0.2116193700787402
11
0.149496062992126
21
0.2155511811023622
0
LINE
8
BLACK
6
CONTINUOUS
10
0.149496062992126
20
0.2155511811023622
11
0.149496062992126
21
0.2273622047244094
0
LINE
8
BLACK
6
CONTINUOUS
10
0.149496062992126
20
0.2273622047244094
11
0.1500688976377953
21
0.2312940157480315
0
LINE
8
BLACK
6
CONTINUOUS
10
0.1500688976377953
20
0.2312940157480315
11
0.1520611417322835
21
0.2353691732283464
0
LINE
8
BLACK
6
CONTINUOUS
10
0.1520611417322835
20
0.2353691732283464
11
0.1552686220472441
21
0.2385766535433071
0
LINE
8
BLACK
6
CONTINUOUS
10
0.1552686220472441
20
0.2385766535433071
11
0.159343779527559
21
0.2405688976377953
0
LINE
8
BLACK
6
CONTINUOUS
10
0.159343779527559
20
0.2405688976377953
11
0.1632755905511811
21
0.2411417322834646
0
LINE
8
BLACK
6
CONTINUOUS
10
0.1632755905511811
20
0.2411417322834646
11
0.2183937007874016
21
0.2411417322834646
0
LINE
8
BLACK
6
CONTINUOUS
10
0.2183937007874016
20
0.2411417322834646
11
0.2223255118110236
21
0.2405688976377953
0
LINE
8
BLACK
6
CONTINUOUS
10
0.8631190157480315
20
0.2718311417322835
11
0.8690017716535433
21
0.2687436614173228
0
LINE
8
BLACK
6
CONTINUOUS
10
0.8690017716535433
20
0.2687436614173228
11
0.8739747244094488
21
0.264338031496063
0
LINE
8
BLACK
6
CONTINUOUS
10
0.8739747244094488
20
0.264338031496063
11
0.877748779527559
21
0.2588703149606299
0
LINE
8
BLACK
6
CONTINUOUS
10
0.877748779527559
20
0.2588703149606299
11
0.88010468503937
21
0.2526583070866142
0
LINE
8
BLACK
6
CONTINUOUS
10
0.88010468503937
20
0.2526583070866142
11
0.8809055118110236
21
0.2460629921259843
0
LINE
8
BLACK
6
CONTINUOUS
10
0.8809055118110236
20
0.2460629921259843
11
0.88010468503937
21
0.2394676771653543
0
LINE
8
BLACK
6
CONTINUOUS
10
0.88010468503937
20
0.2394676771653543
11
0.877748779527559
21
0.2332556692913386
0
LINE
8
BLACK
6
CONTINUOUS
10
0.877748779527559
20
0.2332556692913386
11
0.8739747244094488
21
0.2277879527559055
0
LINE
8
BLACK
6
CONTINUOUS
10
0.8739747244094488
20
0.2277879527559055
11
0.8690017716535433
21
0.2233823228346457
0
LINE
8
BLACK
6
CONTINUOUS
10
0.8690017716535433
20
0.2233823228346457
11
0.8631190157480315
21
0.220294842519685
0
LINE
8
BLACK
6
CONTINUOUS
10
0.8631190157480315
20
0.220294842519685
11
0.8566683464566929
21
0.2187048818897638
0
LINE
8
BLACK
6
CONTINUOUS
10
0.8566683464566929
20
0.2187048818897638
11
0.8500245669291339
21
0.2187048818897638
0
LINE
8
BLACK
6
CONTINUOUS
10
0.8500245669291339
20
0.2187048818897638
11
0.8435738976377952
21
0.220294842519685
0
LINE
8
BLACK
6
CONTINUOUS
10
0.8435738976377952
20
0.220294842519685
11
0.8376911417322834
21
0.2233823228346457
0
LINE
8
BLACK
6
CONTINUOUS
10
0.8376911417322834
20
0.2233823228346457
11
0.8327181889763779
21
0.2277879527559055
0
LINE
8
BLACK
6
CONTINUOUS
10
0.8327181889763779
20
0.2277879527559055
11
0.8289441338582677
21
0.2332556692913386
0
LINE
8
BLACK
6
CONTINUOUS
10
0.8289441338582677
20
0.2332556692913386
11
0.8265882283464566
21
0.2394676771653543
0
LINE
8
BLACK
6
CONTINUOUS
10
0.8265882283464566
20
0.2394676771653543
11
0.8257874015748031
21
0.2460629921259843
0
LINE
8
BLACK
6
CONTINUOUS
10
0.8257874015748031
20
0.2460629921259843
11
0.8265882283464566
21
0.2526583070866142
0
LINE
8
BLACK
6
CONTINUOUS
10
0.8265882283464566
20
0.2526583070866142
11
0.8289441338582677
21
0.2588703149606299
0
LINE
8
BLACK
6
CONTINUOUS
10
0.8289441338582677
20
0.2588703149606299
11
0.8327181889763779
21
0.264338031496063
0
LINE
8
BLACK
6
CONTINUOUS
10
0.8327181889763779
20
0.264338031496063
11
0.8376911417322834
21
0.2687436614173228
0
LINE
8
BLACK
6
CONTINUOUS
10
0.8376911417322834
20
0.2687436614173228
11
0.8435738976377952
21
0.2718311417322835
0
LINE
8
BLACK
6
CONTINUOUS
10
0.8435738976377952
20
0.2718311417322835
11
0.8500245669291339
21
0.2734211023622047
0
LINE
8
BLACK
6
CONTINUOUS
10
0.8500245669291339
20
0.2734211023622047
11
0.8566683464566929
21
0.2734211023622047
0
LINE
8
BLACK
6
CONTINUOUS
10
0.8566683464566929
20
0.2734211023622047
11
0.8631190157480315
21
0.2718311417322835
0
LINE
8
BLACK
6
CONTINUOUS
10
0.2223255118110236
20
0.2897814960629921
11
0.2264006692913386
21
0.2877892519685039
0
LINE
8
BLACK
6
CONTINUOUS
10
0.2264006692913386
20
0.2877892519685039
11
0.2296081496062992
21
0.2845817716535433
0
LINE
8
BLACK
6
CONTINUOUS
10
0.2296081496062992
20
0.2845817716535433
11
0.2316003937007874
21
0.2805066141732284
0
LINE
8
BLACK
6
CONTINUOUS
10
0.2316003937007874
20
0.2805066141732284
11
0.2321732283464567
21
0.2765748031496063
0
LINE
8
BLACK
6
CONTINUOUS
10
0.2321732283464567
20
0.2765748031496063
11
0.2321732283464567
21
0.264763779527559
0
LINE
8
BLACK
6
CONTINUOUS
10
0.2321732283464567
20
0.264763779527559
11
0.2316003937007874
21
0.260831968503937
0
LINE
8
BLACK
6
CONTINUOUS
10
0.2316003937007874
20
0.260831968503937
11
0.2296081496062992
21
0.256756811023622
0
LINE
8
BLACK
6
CONTINUOUS
10
0.2296081496062992
20
0.256756811023622
11
0.2264006692913386
21
0.2535493307086614
0
LINE
8
BLACK
6
CONTINUOUS
10
0.2264006692913386
20
0.2535493307086614
11
0.2223255118110236
21
0.2515570866141732
0
LINE
8
BLACK
6
CONTINUOUS
10
0.2223255118110236
20
0.2515570866141732
11
0.2183937007874016
21
0.2509842519685039
0
LINE
8
BLACK
6
CONTINUOUS
10
0.2183937007874016
20
0.2509842519685039
11
0.1632755905511811
21
0.2509842519685039
0
LINE
8
BLACK
6
CONTINUOUS
10
0.1632755905511811
20
0.2509842519685039
11
0.159343779527559
21
0.2515570866141732
0
LINE
8
BLACK
6
CONTINUOUS
10
0.159343779527559
20
0.2515570866141732
11
0.1552686220472441
21
0.2535493307086614
0
LINE
8
BLACK
6
CONTINUOUS
10
0.1552686220472441
20
0.2535493307086614
11
0.1520611417322835
21
0.256756811023622
0
LINE
8
BLACK
6
CONTINUOUS
10
0.1520611417322835
20
0.256756811023622
11
0.1500688976377953
21
0.260831968503937
0
LINE
8
BLACK
6
CONTINUOUS
10
0.1500688976377953
20
0.260831968503937
11
0.149496062992126
21
0.264763779527559
0
LINE
8
BLACK
6
CONTINUOUS
10
0.149496062992126
20
0.264763779527559
11
0.149496062992126
21
0.2765748031496063
0
LINE
8
BLACK
6
CONTINUOUS
10
0.149496062992126
20
0.2765748031496063
11
0.1500688976377953
21
0.2805066141732284
0
LINE
8
BLACK
6
CONTINUOUS
10
0.1500688976377953
20
0.2805066141732284
11
0.1520611417322835
21
0.2845817716535433
0
LINE
8
BLACK
6
CONTINUOUS
10
0.1520611417322835
20
0.2845817716535433
11
0.1552686220472441
21
0.2877892519685039
0
LINE
8
BLACK
6
CONTINUOUS
10
0.1552686220472441
20
0.2877892519685039
11
0.159343779527559
21
0.2897814960629921
0
LINE
8
BLACK
6
CONTINUOUS
10
0.159343779527559
20
0.2897814960629921
11
0.1632755905511811
21
0.2903543307086614
0
LINE
8
BLACK
6
CONTINUOUS
10
0.1632755905511811
20
0.2903543307086614
11
0.2183937007874016
21
0.2903543307086614
0
LINE
8
BLACK
6
CONTINUOUS
10
0.2183937007874016
20
0.2903543307086614
11
0.2223255118110236
21
0.2897814960629921
0
LINE
8
BLACK
6
CONTINUOUS
10
0.2223255118110236
20
0.338994094488189
11
0.2264006692913386
21
0.3370018503937008
0
LINE
8
BLACK
6
CONTINUOUS
10
0.2264006692913386
20
0.3370018503937008
11
0.2296081496062992
21
0.3337943700787401
0
LINE
8
BLACK
6
CONTINUOUS
10
0.2296081496062992
20
0.3337943700787401
11
0.2316003937007874
21
0.3297192125984252
0
LINE
8
BLACK
6
CONTINUOUS
10
0.2316003937007874
20
0.3297192125984252
11
0.2321732283464567
21
0.3257874015748031
0
LINE
8
BLACK
6
CONTINUOUS
10
0.2321732283464567
20
0.3257874015748031
11
0.2321732283464567
21
0.3139763779527559
0
LINE
8
BLACK
6
CONTINUOUS
10
0.2321732283464567
20
0.3139763779527559
11
0.2316003937007874
21
0.3100445669291338
0
LINE
8
BLACK
6
CONTINUOUS
10
0.2316003937007874
20
0.3100445669291338
11
0.2296081496062992
21
0.3059694094488189
0
LINE
8
BLACK
6
CONTINUOUS
10
0.2296081496062992
20
0.3059694094488189
11
0.2264006692913386
21
0.3027619291338582
0
LINE
8
BLACK
6
CONTINUOUS
10
0.2264006692913386
20
0.3027619291338582
11
0.2223255118110236
21
0.3007696850393701
0
LINE
8
BLACK
6
CONTINUOUS
10
0.2223255118110236
20
0.3007696850393701
11
0.2183937007874016
21
0.3001968503937008
0
LINE
8
BLACK
6
CONTINUOUS
10
0.2183937007874016
20
0.3001968503937008
11
0.1632755905511811
21
0.3001968503937008
0
LINE
8
BLACK
6
CONTINUOUS
10
0.1632755905511811
20
0.3001968503937008
11
0.159343779527559
21
0.3007696850393701
0
LINE
8
BLACK
6
CONTINUOUS
10
0.159343779527559
20
0.3007696850393701
11
0.1552686220472441
21
0.3027619291338582
0
LINE
8
BLACK
6
CONTINUOUS
10
0.1552686220472441
20
0.3027619291338582
11
0.1520611417322835
21
0.3059694094488189
0
LINE
8
BLACK
6
CONTINUOUS
10
0.1520611417322835
20
0.3059694094488189
11
0.1500688976377953
21
0.3100445669291338
0
LINE
8
BLACK
6
CONTINUOUS
10
0.1500688976377953
20
0.3100445669291338
11
0.149496062992126
21
0.3139763779527559
0
LINE
8
BLACK
6
CONTINUOUS
10
0.149496062992126
20
0.3139763779527559
11
0.149496062992126
21
0.3257874015748031
0
LINE
8
BLACK
6
CONTINUOUS
10
0.149496062992126
20
0.3257874015748031
11
0.1500688976377953
21
0.3297192125984252
0
LINE
8
BLACK
6
CONTINUOUS
10
0.1500688976377953
20
0.3297192125984252
11
0.1520611417322835
21
0.3337943700787401
0
LINE
8
BLACK
6
CONTINUOUS
10
0.1520611417322835
20
0.3337943700787401
11
0.1552686220472441
21
0.3370018503937008
0
LINE
8
BLACK
6
CONTINUOUS
10
0.1552686220472441
20
0.3370018503937008
11
0.159343779527559
21
0.338994094488189
0
LINE
8
BLACK
6
CONTINUOUS
10
0.159343779527559
20
0.338994094488189
11
0.1632755905511811
21
0.3395669291338583
0
LINE
8
BLACK
6
CONTINUOUS
10
0.1632755905511811
20
0.3395669291338583
11
0.2183937007874016
21
0.3395669291338583
0
LINE
8
BLACK
6
CONTINUOUS
10
0.2183937007874016
20
0.3395669291338583
11
0.2223255118110236
21
0.338994094488189
0
LINE
8
BLACK
6
CONTINUOUS
10
0.8631190157480315
20
0.3702563385826771
11
0.8690017716535433
21
0.3671688582677165
0
LINE
8
BLACK
6
CONTINUOUS
10
0.8690017716535433
20
0.3671688582677165
11
0.8739747244094488
21
0.3627632283464567
0
LINE
8
BLACK
6
CONTINUOUS
10
0.8739747244094488
20
0.3627632283464567
11
0.877748779527559
21
0.3572955118110236
0
LINE
8
BLACK
6
CONTINUOUS
10
0.877748779527559
20
0.3572955118110236
11
0.88010468503937
21
0.3510835039370079
0
LINE
8
BLACK
6
CONTINUOUS
10
0.88010468503937
20
0.3510835039370079
11
0.8809055118110236
21
0.344488188976378
0
LINE
8
BLACK
6
CONTINUOUS
10
0.8809055118110236
20
0.344488188976378
11
0.88010468503937
21
0.337892874015748
0
LINE
8
BLACK
6
CONTINUOUS
10
0.88010468503937
20
0.337892874015748
11
0.877748779527559
21
0.3316808661417323
0
LINE
8
BLACK
6
CONTINUOUS
10
0.877748779527559
20
0.3316808661417323
11
0.8739747244094488
21
0.3262131496062992
0
LINE
8
BLACK
6
CONTINUOUS
10
0.8739747244094488
20
0.3262131496062992
11
0.8690017716535433
21
0.3218075196850393
0
LINE
8
BLACK
6
CONTINUOUS
10
0.8690017716535433
20
0.3218075196850393
11
0.8631190157480315
21
0.3187200393700788
0
LINE
8
BLACK
6
CONTINUOUS
10
0.8631190157480315
20
0.3187200393700788
11
0.8566683464566929
21
0.3171300787401575
0
LINE
8
BLACK
6
CONTINUOUS
10
0.8566683464566929
20
0.3171300787401575
11
0.8500245669291339
21
0.3171300787401575
0
LINE
8
BLACK
6
CONTINUOUS
10
0.8500245669291339
20
0.3171300787401575
11
0.8435738976377952
21
0.3187200393700788
0
LINE
8
BLACK
6
CONTINUOUS
10
0.8435738976377952
20
0.3187200393700788
11
0.8376911417322834
21
0.3218075196850393
0
LINE
8
BLACK
6
CONTINUOUS
10
0.8376911417322834
20
0.3218075196850393
11
0.8327181889763779
21
0.3262131496062992
0
LINE
8
BLACK
6
CONTINUOUS
10
0.8327181889763779
20
0.3262131496062992
11
0.8289441338582677
21
0.3316808661417323
0
LINE
8
BLACK
6
CONTINUOUS
10
0.8289441338582677
20
0.3316808661417323
11
0.8265882283464566
21
0.337892874015748
0
LINE
8
BLACK
6
CONTINUOUS
10
0.8265882283464566
20
0.337892874015748
11
0.8257874015748031
21
0.344488188976378
0
LINE
8
BLACK
6
CONTINUOUS
10
0.8257874015748031
20
0.344488188976378
11
0.8265882283464566
21
0.3510835039370079
0
LINE
8
BLACK
6
CONTINUOUS
10
0.8265882283464566
20
0.3510835039370079
11
0.8289441338582677
21
0.3572955118110236
0
LINE
8
BLACK
6
CONTINUOUS
10
0.8289441338582677
20
0.3572955118110236
11
0.8327181889763779
21
0.3627632283464567
0
LINE
8
BLACK
6
CONTINUOUS
10
0.8327181889763779
20
0.3627632283464567
11
0.8376911417322834
21
0.3671688582677165
0
LINE
8
BLACK
6
CONTINUOUS
10
0.8376911417322834
20
0.3671688582677165
11
0.8435738976377952
21
0.3702563385826771
0
LINE
8
BLACK
6
CONTINUOUS
10
0.8435738976377952
20
0.3702563385826771
11
0.8500245669291339
21
0.3718462992125984
0
LINE
8
BLACK
6
CONTINUOUS
10
0.8500245669291339
20
0.3718462992125984
11
0.8566683464566929
21
0.3718462992125984
0
LINE
8
BLACK
6
CONTINUOUS
10
0.8566683464566929
20
0.3718462992125984
11
0.8631190157480315
21
0.3702563385826771
0
LINE
8
BLACK
6
CONTINUOUS
10
0.2223255118110236
20
0.3882066929133858
11
0.2264006692913386
21
0.3862144488188976
0
LINE
8
BLACK
6
CONTINUOUS
10
0.2264006692913386
20
0.3862144488188976
11
0.2296081496062992
21
0.383006968503937
0
LINE
8
BLACK
6
CONTINUOUS
10
0.2296081496062992
20
0.383006968503937
11
0.2316003937007874
21
0.3789318110236221
0
LINE
8
BLACK
6
CONTINUOUS
10
0.2316003937007874
20
0.3789318110236221
11
0.2321732283464567
21
0.375
0
LINE
8
BLACK
6
CONTINUOUS
10
0.2321732283464567
20
0.375
11
0.2321732283464567
21
0.3631889763779527
0
LINE
8
BLACK
6
CONTINUOUS
10
0.2321732283464567
20
0.3631889763779527
11
0.2316003937007874
21
0.3592571653543307
0
LINE
8
BLACK
6
CONTINUOUS
10
0.2316003937007874
20
0.3592571653543307
11
0.2296081496062992
21
0.3551820078740157
0
LINE
8
BLACK
6
CONTINUOUS
10
0.2296081496062992
20
0.3551820078740157
11
0.2264006692913386
21
0.3519745275590551
0
LINE
8
BLACK
6
CONTINUOUS
10
0.2264006692913386
20
0.3519745275590551
11
0.2223255118110236
21
0.3499822834645669
0
LINE
8
BLACK
6
CONTINUOUS
10
0.2223255118110236
20
0.3499822834645669
11
0.2183937007874016
21
0.3494094488188976
0
LINE
8
BLACK
6
CONTINUOUS
10
0.2183937007874016
20
0.3494094488188976
11
0.1632755905511811
21
0.3494094488188976
0
LINE
8
BLACK
6
CONTINUOUS
10
0.1632755905511811
20
0.3494094488188976
11
0.159343779527559
21
0.3499822834645669
0
LINE
8
BLACK
6
CONTINUOUS
10
0.159343779527559
20
0.3499822834645669
11
0.1552686220472441
21
0.3519745275590551
0
LINE
8
BLACK
6
CONTINUOUS
10
0.1552686220472441
20
0.3519745275590551
11
0.1520611417322835
21
0.3551820078740157
0
LINE
8
BLACK
6
CONTINUOUS
10
0.1520611417322835
20
0.3551820078740157
11
0.1500688976377953
21
0.3592571653543307
0
LINE
8
BLACK
6
CONTINUOUS
10
0.1500688976377953
20
0.3592571653543307
11
0.149496062992126
21
0.3631889763779527
0
LINE
8
BLACK
6
CONTINUOUS
10
0.149496062992126
20
0.3631889763779527
11
0.149496062992126
21
0.375
0
LINE
8
BLACK
6
CONTINUOUS
10
0.149496062992126
20
0.375
11
0.1500688976377953
21
0.3789318110236221
0
LINE
8
BLACK
6
CONTINUOUS
10
0.1500688976377953
20
0.3789318110236221
11
0.1520611417322835
21
0.383006968503937
0
LINE
8
BLACK
6
CONTINUOUS
10
0.1520611417322835
20
0.383006968503937
11
0.1552686220472441
21
0.3862144488188976
0
LINE
8
BLACK
6
CONTINUOUS
10
0.1552686220472441
20
0.3862144488188976
11
0.159343779527559
21
0.3882066929133858
0
LINE
8
BLACK
6
CONTINUOUS
10
0.159343779527559
20
0.3882066929133858
11
0.1632755905511811
21
0.3887795275590551
0
LINE
8
BLACK
6
CONTINUOUS
10
0.1632755905511811
20
0.3887795275590551
11
0.2183937007874016
21
0.3887795275590551
0
LINE
8
BLACK
6
CONTINUOUS
10
0.2183937007874016
20
0.3887795275590551
11
0.2223255118110236
21
0.3882066929133858
0
LINE
8
BLACK
6
CONTINUOUS
10
0.939279842519685
20
0.4135754330708661
11
0.9439933070866141
21
0.4105462598425197
0
LINE
8
BLACK
6
CONTINUOUS
10
0.9439933070866141
20
0.4105462598425197
11
0.9476624803149606
21
0.406311811023622
0
LINE
8
BLACK
6
CONTINUOUS
10
0.9476624803149606
20
0.406311811023622
11
0.94999
21
0.4012151968503937
0
LINE
8
BLACK
6
CONTINUOUS
10
0.94999
20
0.4012151968503937
11
0.9507874015748031
21
0.3956692913385826
0
LINE
8
BLACK
6
CONTINUOUS
10
0.9507874015748031
20
0.3956692913385826
11
0.94999
21
0.3901233858267716
0
LINE
8
BLACK
6
CONTINUOUS
10
0.94999
20
0.3901233858267716
11
0.9476624803149606
21
0.3850267716535433
0
LINE
8
BLACK
6
CONTINUOUS
10
0.9476624803149606
20
0.3850267716535433
11
0.9439933070866141
21
0.3807923228346456
0
LINE
8
BLACK
6
CONTINUOUS
10
0.9439933070866141
20
0.3807923228346456
11
0.939279842519685
21
0.3777631496062992
0
LINE
8
BLACK
6
CONTINUOUS
10
0.939279842519685
20
0.3777631496062992
11
0.9339038188976377
21
0.3761846062992126
0
LINE
8
BLACK
6
CONTINUOUS
10
0.9339038188976377
20
0.3761846062992126
11
0.928300905511811
21
0.3761846062992126
0
LINE
8
BLACK
6
CONTINUOUS
10
0.928300905511811
20
0.3761846062992126
11
0.9229248818897637
21
0.3777631496062992
0
LINE
8
BLACK
6
CONTINUOUS
10
0.9229248818897637
20
0.3777631496062992
11
0.9182114173228346
21
0.3807923228346456
0
LINE
8
BLACK
6
CONTINUOUS
10
0.9182114173228346
20
0.3807923228346456
11
0.9145422440944881
21
0.3850267716535433
0
LINE
8
BLACK
6
CONTINUOUS
10
0.9145422440944881
20
0.3850267716535433
11
0.9122147244094488
21
0.3901233858267716
0
LINE
8
BLACK
6
CONTINUOUS
10
0.9122147244094488
20
0.3901233858267716
11
0.9114173228346456
21
0.3956692913385826
0
LINE
8
BLACK
6
CONTINUOUS
10
0.9114173228346456
20
0.3956692913385826
11
0.9122147244094488
21
0.4012151968503937
0
LINE
8
BLACK
6
CONTINUOUS
10
0.9122147244094488
20
0.4012151968503937
11
0.9145422440944881
21
0.406311811023622
0
LINE
8
BLACK
6
CONTINUOUS
10
0.9145422440944881
20
0.406311811023622
11
0.9182114173228346
21
0.4105462598425197
0
LINE
8
BLACK
6
CONTINUOUS
10
0.9182114173228346
20
0.4105462598425197
11
0.9229248818897637
21
0.4135754330708661
0
LINE
8
BLACK
6
CONTINUOUS
10
0.9229248818897637
20
0.4135754330708661
11
0.928300905511811
21
0.4151539763779528
0
LINE
8
BLACK
6
CONTINUOUS
10
0.928300905511811
20
0.4151539763779528
11
0.9339038188976377
21
0.4151539763779528
0
LINE
8
BLACK
6
CONTINUOUS
10
0.9339038188976377
20
0.4151539763779528
11
0.939279842519685
21
0.4135754330708661
0
LINE
8
BLACK
6
CONTINUOUS
10
1.1400672440944881
20
0.4135754330708661
11
1.1447807086614172
21
0.4105462598425197
0
LINE
8
BLACK
6
CONTINUOUS
10
1.1447807086614172
20
0.4105462598425197
11
1.1484498818897637
21
0.406311811023622
0
LINE
8
BLACK
6
CONTINUOUS
10
1.1484498818897637
20
0.406311811023622
11
1.1507774015748031
21
0.4012151968503937
0
LINE
8
BLACK
6
CONTINUOUS
10
1.1507774015748031
20
0.4012151968503937
11
1.1515748031496063
21
0.3956692913385826
0
LINE
8
BLACK
6
CONTINUOUS
10
1.1515748031496063
20
0.3956692913385826
11
1.1507774015748031
21
0.3901233858267716
0
LINE
8
BLACK
6
CONTINUOUS
10
1.1507774015748031
20
0.3901233858267716
11
1.1484498818897637
21
0.3850267716535433
0
LINE
8
BLACK
6
CONTINUOUS
10
1.1484498818897637
20
0.3850267716535433
11
1.1447807086614172
21
0.3807923228346456
0
LINE
8
BLACK
6
CONTINUOUS
10
1.1447807086614172
20
0.3807923228346456
11
1.1400672440944881
21
0.3777631496062992
0
LINE
8
BLACK
6
CONTINUOUS
10
1.1400672440944881
20
0.3777631496062992
11
1.1346912204724409
21
0.3761846062992126
0
LINE
8
BLACK
6
CONTINUOUS
10
1.1346912204724409
20
0.3761846062992126
11
1.1290883070866142
21
0.3761846062992126
0
LINE
8
BLACK
6
CONTINUOUS
10
1.1290883070866142
20
0.3761846062992126
11
1.123712283464567
21
0.3777631496062992
0
LINE
8
BLACK
6
CONTINUOUS
10
1.123712283464567
20
0.3777631496062992
11
1.1189988188976379
21
0.3807923228346456
0
LINE
8
BLACK
6
CONTINUOUS
10
1.1189988188976379
20
0.3807923228346456
11
1.1153296456692914
21
0.3850267716535433
0
LINE
8
BLACK
6
CONTINUOUS
10
1.1153296456692914
20
0.3850267716535433
11
1.113002125984252
21
0.3901233858267716
0
LINE
8
BLACK
6
CONTINUOUS
10
1.113002125984252
20
0.3901233858267716
11
1.1122047244094488
21
0.3956692913385826
0
LINE
8
BLACK
6
CONTINUOUS
10
1.1122047244094488
20
0.3956692913385826
11
1.113002125984252
21
0.4012151968503937
0
LINE
8
BLACK
6
CONTINUOUS
10
1.113002125984252
20
0.4012151968503937
11
1.1153296456692914
21
0.406311811023622
0
LINE
8
BLACK
6
CONTINUOUS
10
1.1153296456692914
20
0.406311811023622
11
1.1189988188976379
21
0.4105462598425197
0
LINE
8
BLACK
6
CONTINUOUS
10
1.1189988188976379
20
0.4105462598425197
11
1.123712283464567
21
0.4135754330708661
0
LINE
8
BLACK
6
CONTINUOUS
10
1.123712283464567
20
0.4135754330708661
11
1.1290883070866142
21
0.4151539763779528
0
LINE
8
BLACK
6
CONTINUOUS
10
1.1290883070866142
20
0.4151539763779528
11
1.1346912204724409
21
0.4151539763779528
0
LINE
8
BLACK
6
CONTINUOUS
10
1.1346912204724409
20
0.4151539763779528
11
1.1400672440944881
21
0.4135754330708661
0
LINE
8
BLACK
6
CONTINUOUS
10
0.8631190157480315
20
0.4489964960629921
11
0.8690017716535433
21
0.4459090157480315
0
LINE
8
BLACK
6
CONTINUOUS
10
0.8690017716535433
20
0.4459090157480315
11
0.8739747244094488
21
0.4415033858267716
0
LINE
8
BLACK
6
CONTINUOUS
10
0.8739747244094488
20
0.4415033858267716
11
0.877748779527559
21
0.4360356692913386
0
LINE
8
BLACK
6
CONTINUOUS
10
0.877748779527559
20
0.4360356692913386
11
0.88010468503937
21
0.4298236614173228
0
LINE
8
BLACK
6
CONTINUOUS
10
0.88010468503937
20
0.4298236614173228
11
0.8809055118110236
21
0.4232283464566929
0
LINE
8
BLACK
6
CONTINUOUS
10
0.8809055118110236
20
0.4232283464566929
11
0.88010468503937
21
0.416633031496063
0
LINE
8
BLACK
6
CONTINUOUS
10
0.88010468503937
20
0.416633031496063
11
0.877748779527559
21
0.4104210236220472
0
LINE
8
BLACK
6
CONTINUOUS
10
0.877748779527559
20
0.4104210236220472
11
0.8739747244094488
21
0.4049533070866141
0
LINE
8
BLACK
6
CONTINUOUS
10
0.8739747244094488
20
0.4049533070866141
11
0.8690017716535433
21
0.4005476771653543
0
LINE
8
BLACK
6
CONTINUOUS
10
0.8690017716535433
20
0.4005476771653543
11
0.8631190157480315
21
0.3974601968503937
0
LINE
8
BLACK
6
CONTINUOUS
10
0.8631190157480315
20
0.3974601968503937
11
0.8566683464566929
21
0.3958702362204724
0
LINE
8
BLACK
6
CONTINUOUS
10
0.8566683464566929
20
0.3958702362204724
11
0.8500245669291339
21
0.3958702362204724
0
LINE
8
BLACK
6
CONTINUOUS
10
0.8500245669291339
20
0.3958702362204724
11
0.8435738976377952
21
0.3974601968503937
0
LINE
8
BLACK
6
CONTINUOUS
10
0.8435738976377952
20
0.3974601968503937
11
0.8376911417322834
21
0.4005476771653543
0
LINE
8
BLACK
6
CONTINUOUS
10
0.8376911417322834
20
0.4005476771653543
11
0.8327181889763779
21
0.4049533070866141
0
LINE
8
BLACK
6
CONTINUOUS
10
0.8327181889763779
20
0.4049533070866141
11
0.8289441338582677
21
0.4104210236220472
0
LINE
8
BLACK
6
CONTINUOUS
10
0.8289441338582677
20
0.4104210236220472
11
0.8265882283464566
21
0.416633031496063
0
LINE
8
BLACK
6
CONTINUOUS
10
0.8265882283464566
20
0.416633031496063
11
0.8257874015748031
21
0.4232283464566929
0
LINE
8
BLACK
6
CONTINUOUS
10
0.8257874015748031
20
0.4232283464566929
11
0.8265882283464566
21
0.4298236614173228
0
LINE
8
BLACK
6
CONTINUOUS
10
0.8265882283464566
20
0.4298236614173228
11
0.8289441338582677
21
0.4360356692913386
0
LINE
8
BLACK
6
CONTINUOUS
10
0.8289441338582677
20
0.4360356692913386
11
0.8327181889763779
21
0.4415033858267716
0
LINE
8
BLACK
6
CONTINUOUS
10
0.8327181889763779
20
0.4415033858267716
11
0.8376911417322834
21
0.4459090157480315
0
LINE
8
BLACK
6
CONTINUOUS
10
0.8376911417322834
20
0.4459090157480315
11
0.8435738976377952
21
0.4489964960629921
0
LINE
8
BLACK
6
CONTINUOUS
10
0.8435738976377952
20
0.4489964960629921
11
0.8500245669291339
21
0.4505864566929134
0
LINE
8
BLACK
6
CONTINUOUS
10
0.8500245669291339
20
0.4505864566929134
11
0.8566683464566929
21
0.4505864566929134
0
LINE
8
BLACK
6
CONTINUOUS
10
0.8566683464566929
20
0.4505864566929134
11
0.8631190157480315
21
0.4489964960629921
0
LINE
8
BLACK
6
CONTINUOUS
10
0.1114511811023622
20
0.4691793307086614
11
0.1164358661417323
21
0.4674351181102362
0
LINE
8
BLACK
6
CONTINUOUS
10
0.1164358661417323
20
0.4674351181102362
11
0.1206849606299213
21
0.4642991338582677
0
LINE
8
BLACK
6
CONTINUOUS
10
0.1206849606299213
20
0.4642991338582677
11
0.1238209448818898
21
0.4600500393700787
0
LINE
8
BLACK
6
CONTINUOUS
10
0.1238209448818898
20
0.4600500393700787
11
0.125565157480315
21
0.4550653543307087
0
LINE
8
BLACK
6
CONTINUOUS
10
0.125565157480315
20
0.4550653543307087
11
0.1258740157480315
21
0.4517716535433071
0
LINE
8
BLACK
6
CONTINUOUS
10
0.1258740157480315
20
0.4517716535433071
11
0.1258740157480315
21
0.4320866141732284
0
LINE
8
BLACK
6
CONTINUOUS
10
0.1258740157480315
20
0.4320866141732284
11
0.125565157480315
21
0.4287929133858268
0
LINE
8
BLACK
6
CONTINUOUS
10
0.125565157480315
20
0.4287929133858268
11
0.1238209448818898
21
0.4238082283464567
0
LINE
8
BLACK
6
CONTINUOUS
10
0.1238209448818898
20
0.4238082283464567
11
0.1206849606299213
21
0.4195591338582677
0
LINE
8
BLACK
6
CONTINUOUS
10
0.1206849606299213
20
0.4195591338582677
11
0.1164358661417323
21
0.4164231496062992
0
LINE
8
BLACK
6
CONTINUOUS
10
0.1164358661417323
20
0.4164231496062992
11
0.1114511811023622
21
0.414678937007874
0
LINE
8
BLACK
6
CONTINUOUS
10
0.1114511811023622
20
0.414678937007874
11
0.1081574803149606
21
0.4143700787401575
0
LINE
8
BLACK
6
CONTINUOUS
10
0.1081574803149606
20
0.4143700787401575
11
0.0215433070866142
21
0.4143700787401575
0
LINE
8
BLACK
6
CONTINUOUS
10
0.0215433070866142
20
0.4143700787401575
11
0.0182496062992126
21
0.414678937007874
0
LINE
8
BLACK
6
CONTINUOUS
10
0.0182496062992126
20
0.414678937007874
11
0.0132649212598425
21
0.4164231496062992
0
LINE
8
BLACK
6
CONTINUOUS
10
0.0132649212598425
20
0.4164231496062992
11
0.0090158267716535
21
0.4195591338582677
0
LINE
8
BLACK
6
CONTINUOUS
10
0.0090158267716535
20
0.4195591338582677
11
0.005879842519685
21
0.4238082283464567
0
LINE
8
BLACK
6
CONTINUOUS
10
0.005879842519685
20
0.4238082283464567
11
0.0041356299212598
21
0.4287929133858268
0
LINE
8
BLACK
6
CONTINUOUS
10
0.0041356299212598
20
0.4287929133858268
11
0.0038267716535433
21
0.4320866141732284
0
LINE
8
BLACK
6
CONTINUOUS
10
0.0038267716535433
20
0.4320866141732284
11
0.0038267716535433
21
0.4517716535433071
0
LINE
8
BLACK
6
CONTINUOUS
10
0.0038267716535433
20
0.4517716535433071
11
0.0041356299212598
21
0.4550653543307087
0
LINE
8
BLACK
6
CONTINUOUS
10
0.0041356299212598
20
0.4550653543307087
11
0.005879842519685
21
0.4600500393700787
0
LINE
8
BLACK
6
CONTINUOUS
10
0.005879842519685
20
0.4600500393700787
11
0.0090158267716535
21
0.4642991338582677
0
LINE
8
BLACK
6
CONTINUOUS
10
0.0090158267716535
20
0.4642991338582677
11
0.0132649212598425
21
0.4674351181102362
0
LINE
8
BLACK
6
CONTINUOUS
10
0.0132649212598425
20
0.4674351181102362
11
0.0182496062992126
21
0.4691793307086614
0
LINE
8
BLACK
6
CONTINUOUS
10
0.0182496062992126
20
0.4691793307086614
11
0.0215433070866142
21
0.469488188976378
0
LINE
8
BLACK
6
CONTINUOUS
10
0.0215433070866142
20
0.469488188976378
11
0.1081574803149606
21
0.469488188976378
0
LINE
8
BLACK
6
CONTINUOUS
10
0.1081574803149606
20
0.469488188976378
11
0.1114511811023622
21
0.4691793307086614
0
LINE
8
BLACK
6
CONTINUOUS
10
0.9083946062992125
20
0.4993193307086614
11
0.9142773622047244
21
0.4962318503937008
0
LINE
8
BLACK
6
CONTINUOUS
10
0.9142773622047244
20
0.4962318503937008
11
0.9192503149606299
21
0.491826220472441
0
LINE
8
BLACK
6
CONTINUOUS
10
0.9192503149606299
20
0.491826220472441
11
0.9230243700787402
21
0.4863585039370079
0
LINE
8
BLACK
6
CONTINUOUS
10
0.9230243700787402
20
0.4863585039370079
11
0.9253802755905511
21
0.4801464960629921
0
LINE
8
BLACK
6
CONTINUOUS
10
0.9253802755905511
20
0.4801464960629921
11
0.9261811023622047
21
0.4735511811023622
0
LINE
8
BLACK
6
CONTINUOUS
10
0.9261811023622047
20
0.4735511811023622
11
0.9253802755905511
21
0.4669558661417323
0
LINE
8
BLACK
6
CONTINUOUS
10
0.9253802755905511
20
0.4669558661417323
11
0.9230243700787402
21
0.4607438582677165
0
LINE
8
BLACK
6
CONTINUOUS
10
0.9230243700787402
20
0.4607438582677165
11
0.9192503149606299
21
0.4552761417322835
0
LINE
8
BLACK
6
CONTINUOUS
10
0.9192503149606299
20
0.4552761417322835
11
0.9142773622047244
21
0.4508705118110236
0
LINE
8
BLACK
6
CONTINUOUS
10
0.9142773622047244
20
0.4508705118110236
11
0.9083946062992125
21
0.447783031496063
0
LINE
8
BLACK
6
CONTINUOUS
10
0.9083946062992125
20
0.447783031496063
11
0.901943937007874
21
0.4461930708661417
0
LINE
8
BLACK
6
CONTINUOUS
10
0.901943937007874
20
0.4461930708661417
11
0.895300157480315
21
0.4461930708661417
0
LINE
8
BLACK
6
CONTINUOUS
10
0.895300157480315
20
0.4461930708661417
11
0.8888494881889764
21
0.447783031496063
0
LINE
8
BLACK
6
CONTINUOUS
10
0.8888494881889764
20
0.447783031496063
11
0.8829667322834646
21
0.4508705118110236
0
LINE
8
BLACK
6
CONTINUOUS
10
0.8829667322834646
20
0.4508705118110236
11
0.8779937795275591
21
0.4552761417322835
0
LINE
8
BLACK
6
CONTINUOUS
10
0.8779937795275591
20
0.4552761417322835
11
0.8742197244094488
21
0.4607438582677165
0
LINE
8
BLACK
6
CONTINUOUS
10
0.8742197244094488
20
0.4607438582677165
11
0.8718638188976378
21
0.4669558661417323
0
LINE
8
BLACK
6
CONTINUOUS
10
0.8718638188976378
20
0.4669558661417323
11
0.8710629921259843
21
0.4735511811023622
0
LINE
8
BLACK
6
CONTINUOUS
10
0.8710629921259843
20
0.4735511811023622
11
0.8718638188976378
21
0.4801464960629921
0
LINE
8
BLACK
6
CONTINUOUS
10
0.8718638188976378
20
0.4801464960629921
11
0.8742197244094488
21
0.4863585039370079
0
LINE
8
BLACK
6
CONTINUOUS
10
0.8742197244094488
20
0.4863585039370079
11
0.8779937795275591
21
0.491826220472441
0
LINE
8
BLACK
6
CONTINUOUS
10
0.8779937795275591
20
0.491826220472441
11
0.8829667322834646
21
0.4962318503937008
0
LINE
8
BLACK
6
CONTINUOUS
10
0.8829667322834646
20
0.4962318503937008
11
0.8888494881889764
21
0.4993193307086614
0
LINE
8
BLACK
6
CONTINUOUS
10
0.8888494881889764
20
0.4993193307086614
11
0.895300157480315
21
0.5009092913385826
0
LINE
8
BLACK
6
CONTINUOUS
10
0.895300157480315
20
0.5009092913385826
11
0.901943937007874
21
0.5009092913385826
0
LINE
8
BLACK
6
CONTINUOUS
10
0.901943937007874
20
0.5009092913385826
11
0.9083946062992125
21
0.4993193307086614
0
LINE
8
BLACK
6
CONTINUOUS
10
0.954772559055118
20
0.5427681496062992
11
0.9606553149606299
21
0.5396806692913386
0
LINE
8
BLACK
6
CONTINUOUS
10
0.9606553149606299
20
0.5396806692913386
11
0.9656282677165354
21
0.5352750393700787
0
LINE
8
BLACK
6
CONTINUOUS
10
0.9656282677165354
20
0.5352750393700787
11
0.9694023228346457
21
0.5298073228346457
0
LINE
8
BLACK
6
CONTINUOUS
10
0.9694023228346457
20
0.5298073228346457
11
0.9717582283464566
21
0.5235953149606299
0
LINE
8
BLACK
6
CONTINUOUS
10
0.9717582283464566
20
0.5235953149606299
11
0.9725590551181102
21
0.517
0
LINE
8
BLACK
6
CONTINUOUS
10
0.9725590551181102
20
0.517
11
0.9717582283464566
21
0.5104046850393701
0
LINE
8
BLACK
6
CONTINUOUS
10
0.9717582283464566
20
0.5104046850393701
11
0.9694023228346457
21
0.5041926771653543
0
LINE
8
BLACK
6
CONTINUOUS
10
0.9694023228346457
20
0.5041926771653543
11
0.9656282677165354
21
0.4987249606299212
0
LINE
8
BLACK
6
CONTINUOUS
10
0.9656282677165354
20
0.4987249606299212
11
0.9606553149606299
21
0.4943193307086614
0
LINE
8
BLACK
6
CONTINUOUS
10
0.9606553149606299
20
0.4943193307086614
11
0.954772559055118
21
0.4912318503937008
0
LINE
8
BLACK
6
CONTINUOUS
10
0.954772559055118
20
0.4912318503937008
11
0.9483218897637795
21
0.4896418897637795
0
LINE
8
BLACK
6
CONTINUOUS
10
0.9483218897637795
20
0.4896418897637795
11
0.9416781102362205
21
0.4896418897637795
0
LINE
8
BLACK
6
CONTINUOUS
10
0.9416781102362205
20
0.4896418897637795
11
0.9352274409448819
21
0.4912318503937008
0
LINE
8
BLACK
6
CONTINUOUS
10
0.9352274409448819
20
0.4912318503937008
11
0.9293446850393701
21
0.4943193307086614
0
LINE
8
BLACK
6
CONTINUOUS
10
0.9293446850393701
20
0.4943193307086614
11
0.9243717322834646
21
0.4987249606299212
0
LINE
8
BLACK
6
CONTINUOUS
10
0.9243717322834646
20
0.4987249606299212
11
0.9205976771653543
21
0.5041926771653543
0
LINE
8
BLACK
6
CONTINUOUS
10
0.9205976771653543
20
0.5041926771653543
11
0.9182417716535433
21
0.5104046850393701
0
LINE
8
BLACK
6
CONTINUOUS
10
0.9182417716535433
20
0.5104046850393701
11
0.9174409448818898
21
0.517
0
LINE
8
BLACK
6
CONTINUOUS
10
0.9174409448818898
20
0.517
11
0.9182417716535433
21
0.5235953149606299
0
LINE
8
BLACK
6
CONTINUOUS
10
0.9182417716535433
20
0.5235953149606299
11
0.9205976771653543
21
0.5298073228346457
0
LINE
8
BLACK
6
CONTINUOUS
10
0.9205976771653543
20
0.5298073228346457
11
0.9243717322834646
21
0.5352750393700787
0
LINE
8
BLACK
6
CONTINUOUS
10
0.9243717322834646
20
0.5352750393700787
11
0.9293446850393701
21
0.5396806692913386
0
LINE
8
BLACK
6
CONTINUOUS
10
0.9293446850393701
20
0.5396806692913386
11
0.9352274409448819
21
0.5427681496062992
0
LINE
8
BLACK
6
CONTINUOUS
10
0.9352274409448819
20
0.5427681496062992
11
0.9416781102362205
21
0.5443581102362205
0
LINE
8
BLACK
6
CONTINUOUS
10
0.9416781102362205
20
0.5443581102362205
11
0.9483218897637795
21
0.5443581102362205
0
LINE
8
BLACK
6
CONTINUOUS
10
0.9483218897637795
20
0.5443581102362205
11
0.954772559055118
21
0.5427681496062992
0
LINE
8
BLACK
6
CONTINUOUS
10
0.1129223622047244
20
0.6477992125984252
11
0.1221473622047244
21
0.6446322834645669
0
LINE
8
BLACK
6
CONTINUOUS
10
0.1221473622047244
20
0.6446322834645669
11
0.1307252755905512
21
0.639990157480315
0
LINE
8
BLACK
6
CONTINUOUS
10
0.1307252755905512
20
0.639990157480315
11
0.138422125984252
21
0.6339994488188976
0
LINE
8
BLACK
6
CONTINUOUS
10
0.138422125984252
20
0.6339994488188976
11
0.1450279921259842
21
0.6268235826771653
0
LINE
8
BLACK
6
CONTINUOUS
10
0.1450279921259842
20
0.6268235826771653
11
0.1503626377952756
21
0.6186583070866142
0
LINE
8
BLACK
6
CONTINUOUS
10
0.1503626377952756
20
0.6186583070866142
11
0.1542805511811024
21
0.6097263385826771
0
LINE
8
BLACK
6
CONTINUOUS
10
0.1542805511811024
20
0.6097263385826771
11
0.1566748818897638
21
0.6002713385826771
0
LINE
8
BLACK
6
CONTINUOUS
10
0.1566748818897638
20
0.6002713385826771
11
0.1574803149606299
21
0.5905511811023622
0
LINE
8
BLACK
6
CONTINUOUS
10
0.1574803149606299
20
0.5905511811023622
11
0.1566748818897638
21
0.5808310236220472
0
LINE
8
BLACK
6
CONTINUOUS
10
0.1566748818897638
20
0.5808310236220472
11
0.1542805511811024
21
0.5713760236220472
0
LINE
8
BLACK
6
CONTINUOUS
10
0.1542805511811024
20
0.5713760236220472
11
0.1503626377952756
21
0.5624440551181102
0
LINE
8
BLACK
6
CONTINUOUS
10
0.1503626377952756
20
0.5624440551181102
11
0.1450279921259842
21
0.554278779527559
0
LINE
8
BLACK
6
CONTINUOUS
10
0.1450279921259842
20
0.554278779527559
11
0.138422125984252
21
0.5471029133858267
0
LINE
8
BLACK
6
CONTINUOUS
10
0.138422125984252
20
0.5471029133858267
11
0.1307252755905512
21
0.5411122047244095
0
LINE
8
BLACK
6
CONTINUOUS
10
0.1307252755905512
20
0.5411122047244095
11
0.1221473622047244
21
0.5364700787401575
0
LINE
8
BLACK
6
CONTINUOUS
10
0.1221473622047244
20
0.5364700787401575
11
0.1129223622047244
21
0.5333031496062992
0
LINE
8
BLACK
6
CONTINUOUS
10
0.1129223622047244
20
0.5333031496062992
11
0.1033019291338583
21
0.5316977559055118
0
LINE
8
BLACK
6
CONTINUOUS
10
0.1033019291338583
20
0.5316977559055118
11
0.0935484645669291
21
0.5316977559055118
0
LINE
8
BLACK
6
CONTINUOUS
10
0.0935484645669291
20
0.5316977559055118
11
0.083928031496063
21
0.5333031496062992
0
LINE
8
BLACK
6
CONTINUOUS
10
0.083928031496063
20
0.5333031496062992
11
0.074703031496063
21
0.5364700787401575
0
LINE
8
BLACK
6
CONTINUOUS
10
0.074703031496063
20
0.5364700787401575
11
0.0661251181102362
21
0.5411122047244095
0
LINE
8
BLACK
6
CONTINUOUS
10
0.0661251181102362
20
0.5411122047244095
11
0.0584282677165354
21
0.5471029133858267
0
LINE
8
BLACK
6
CONTINUOUS
10
0.0584282677165354
20
0.5471029133858267
11
0.0518224015748031
21
0.554278779527559
0
LINE
8
BLACK
6
CONTINUOUS
10
0.0518224015748031
20
0.554278779527559
11
0.0464877559055118
21
0.5624440551181102
0
LINE
8
BLACK
6
CONTINUOUS
10
0.0464877559055118
20
0.5624440551181102
11
0.042569842519685
21
0.5713760236220472
0
LINE
8
BLACK
6
CONTINUOUS
10
0.042569842519685
20
0.5713760236220472
11
0.0401755118110236
21
0.5808310236220472
0
LINE
8
BLACK
6
CONTINUOUS
10
0.0401755118110236
20
0.5808310236220472
11
0.0393700787401575
21
0.5905511811023622
0
LINE
8
BLACK
6
CONTINUOUS
10
0.0393700787401575
20
0.5905511811023622
11
0.0401755118110236
21
0.6002713385826771
0
LINE
8
BLACK
6
CONTINUOUS
10
0.0401755118110236
20
0.6002713385826771
11
0.042569842519685
21
0.6097263385826771
0
LINE
8
BLACK
6
CONTINUOUS
10
0.042569842519685
20
0.6097263385826771
11
0.0464877559055118
21
0.6186583070866142
0
LINE
8
BLACK
6
CONTINUOUS
10
0.0464877559055118
20
0.6186583070866142
11
0.0518224015748031
21
0.6268235826771653
0
LINE
8
BLACK
6
CONTINUOUS
10
0.0518224015748031
20
0.6268235826771653
11
0.0584282677165354
21
0.6339994488188976
0
LINE
8
BLACK
6
CONTINUOUS
10
0.0584282677165354
20
0.6339994488188976
11
0.0661251181102362
21
0.639990157480315
0
LINE
8
BLACK
6
CONTINUOUS
10
0.0661251181102362
20
0.639990157480315
11
0.074703031496063
21
0.6446322834645669
0
LINE
8
BLACK
6
CONTINUOUS
10
0.074703031496063
20
0.6446322834645669
11
0.083928031496063
21
0.6477992125984252
0
LINE
8
BLACK
6
CONTINUOUS
10
0.083928031496063
20
0.6477992125984252
11
0.0935484645669291
21
0.6494046062992126
0
LINE
8
BLACK
6
CONTINUOUS
10
0.0935484645669291
20
0.6494046062992126
11
0.1033019291338583
21
0.6494046062992126
0
LINE
8
BLACK
6
CONTINUOUS
10
0.1033019291338583
20
0.6494046062992126
11
0.1129223622047244
21
0.6477992125984252
0
LINE
8
BLACK
6
CONTINUOUS
10
0.5066231496062992
20
0.6477992125984252
11
0.5158481496062992
21
0.6446322834645669
0
LINE
8
BLACK
6
CONTINUOUS
10
0.5158481496062992
20
0.6446322834645669
11
0.524426062992126
21
0.639990157480315
0
LINE
8
BLACK
6
CONTINUOUS
10
0.524426062992126
20
0.639990157480315
11
0.5321229133858267
21
0.6339994488188976
0
LINE
8
BLACK
6
CONTINUOUS
10
0.5321229133858267
20
0.6339994488188976
11
0.538728779527559
21
0.6268235826771653
0
LINE
8
BLACK
6
CONTINUOUS
10
0.538728779527559
20
0.6268235826771653
11
0.5440634251968504
21
0.6186583070866142
0
LINE
8
BLACK
6
CONTINUOUS
10
0.5440634251968504
20
0.6186583070866142
11
0.5479813385826772
21
0.6097263385826771
0
LINE
8
BLACK
6
CONTINUOUS
10
0.5479813385826772
20
0.6097263385826771
11
0.5503756692913385
21
0.6002713385826771
0
LINE
8
BLACK
6
CONTINUOUS
10
0.5503756692913385
20
0.6002713385826771
11
0.5511811023622047
21
0.5905511811023622
0
LINE
8
BLACK
6
CONTINUOUS
10
0.5511811023622047
20
0.5905511811023622
11
0.5503756692913385
21
0.5808310236220472
0
LINE
8
BLACK
6
CONTINUOUS
10
0.5503756692913385
20
0.5808310236220472
11
0.5479813385826772
21
0.5713760236220472
0
LINE
8
BLACK
6
CONTINUOUS
10
0.5479813385826772
20
0.5713760236220472
11
0.5440634251968504
21
0.5624440551181102
0
LINE
8
BLACK
6
CONTINUOUS
10
0.5440634251968504
20
0.5624440551181102
11
0.538728779527559
21
0.554278779527559
0
LINE
8
BLACK
6
CONTINUOUS
10
0.538728779527559
20
0.554278779527559
11
0.5321229133858267
21
0.5471029133858267
0
LINE
8
BLACK
6
CONTINUOUS
10
0.5321229133858267
20
0.5471029133858267
11
0.524426062992126
21
0.5411122047244095
0
LINE
8
BLACK
6
CONTINUOUS
10
0.524426062992126
20
0.5411122047244095
11
0.5158481496062992
21
0.5364700787401575
0
LINE
8
BLACK
6
CONTINUOUS
10
0.5158481496062992
20
0.5364700787401575
11
0.5066231496062992
21
0.5333031496062992
0
LINE
8
BLACK
6
CONTINUOUS
10
0.5066231496062992
20
0.5333031496062992
11
0.497002716535433
21
0.5316977559055118
0
LINE
8
BLACK
6
CONTINUOUS
10
0.497002716535433
20
0.5316977559055118
11
0.4872492519685039
21
0.5316977559055118
0
LINE
8
BLACK
6
CONTINUOUS
10
0.4872492519685039
20
0.5316977559055118
11
0.4776288188976378
21
0.5333031496062992
0
LINE
8
BLACK
6
CONTINUOUS
10
0.4776288188976378
20
0.5333031496062992
11
0.4684038188976378
21
0.5364700787401575
0
LINE
8
BLACK
6
CONTINUOUS
10
0.4684038188976378
20
0.5364700787401575
11
0.459825905511811
21
0.5411122047244095
0
LINE
8
BLACK
6
CONTINUOUS
10
0.459825905511811
20
0.5411122047244095
11
0.4521290551181102
21
0.5471029133858267
0
LINE
8
BLACK
6
CONTINUOUS
10
0.4521290551181102
20
0.5471029133858267
11
0.4455231889763779
21
0.554278779527559
0
LINE
8
BLACK
6
CONTINUOUS
10
0.4455231889763779
20
0.554278779527559
11
0.4401885433070866
21
0.5624440551181102
0
LINE
8
BLACK
6
CONTINUOUS
10
0.4401885433070866
20
0.5624440551181102
11
0.4362706299212598
21
0.5713760236220472
0
LINE
8
BLACK
6
CONTINUOUS
10
0.4362706299212598
20
0.5713760236220472
11
0.4338762992125984
21
0.5808310236220472
0
LINE
8
BLACK
6
CONTINUOUS
10
0.4338762992125984
20
0.5808310236220472
11
0.4330708661417323
21
0.5905511811023622
0
LINE
8
BLACK
6
CONTINUOUS
10
0.4330708661417323
20
0.5905511811023622
11
0.4338762992125984
21
0.6002713385826771
0
LINE
8
BLACK
6
CONTINUOUS
10
0.4338762992125984
20
0.6002713385826771
11
0.4362706299212598
21
0.6097263385826771
0
LINE
8
BLACK
6
CONTINUOUS
10
0.4362706299212598
20
0.6097263385826771
11
0.4401885433070866
21
0.6186583070866142
0
LINE
8
BLACK
6
CONTINUOUS
10
0.4401885433070866
20
0.6186583070866142
11
0.4455231889763779
21
0.6268235826771653
0
LINE
8
BLACK
6
CONTINUOUS
10
0.4455231889763779
20
0.6268235826771653
11
0.4521290551181102
21
0.6339994488188976
0
LINE
8
BLACK
6
CONTINUOUS
10
0.4521290551181102
20
0.6339994488188976
11
0.459825905511811
21
0.639990157480315
0
LINE
8
BLACK
6
CONTINUOUS
10
0.459825905511811
20
0.639990157480315
11
0.4684038188976378
21
0.6446322834645669
0
LINE
8
BLACK
6
CONTINUOUS
10
0.4684038188976378
20
0.6446322834645669
11
0.4776288188976378
21
0.6477992125984252
0
LINE
8
BLACK
6
CONTINUOUS
10
0.4776288188976378
20
0.6477992125984252
11
0.4872492519685039
21
0.6494046062992126
0
LINE
8
BLACK
6
CONTINUOUS
10
0.4872492519685039
20
0.6494046062992126
11
0.497002716535433
21
0.6494046062992126
0
LINE
8
BLACK
6
CONTINUOUS
10
0.497002716535433
20
0.6494046062992126
11
0.5066231496062992
21
0.6477992125984252
0
LINE
8
BLACK
6
CONTINUOUS
10
0.9003239370078739
20
0.6477992125984252
11
0.909548937007874
21
0.6446322834645669
0
LINE
8
BLACK
6
CONTINUOUS
10
0.909548937007874
20
0.6446322834645669
11
0.9181268503937008
21
0.639990157480315
0
LINE
8
BLACK
6
CONTINUOUS
10
0.9181268503937008
20
0.639990157480315
11
0.9258237007874015
21
0.6339994488188976
0
LINE
8
BLACK
6
CONTINUOUS
10
0.9258237007874015
20
0.6339994488188976
11
0.9324295669291338
21
0.6268235826771653
0
LINE
8
BLACK
6
CONTINUOUS
10
0.9324295669291338
20
0.6268235826771653
11
0.9377642125984251
21
0.6186583070866142
0
LINE
8
BLACK
6
CONTINUOUS
10
0.9377642125984251
20
0.6186583070866142
11
0.9416821259842519
21
0.6097263385826771
0
LINE
8
BLACK
6
CONTINUOUS
10
0.9416821259842519
20
0.6097263385826771
11
0.9440764566929134
21
0.6002713385826771
0
LINE
8
BLACK
6
CONTINUOUS
10
0.9440764566929134
20
0.6002713385826771
11
0.9448818897637795
21
0.5905511811023622
0
LINE
8
BLACK
6
CONTINUOUS
10
0.9448818897637795
20
0.5905511811023622
11
0.9440764566929134
21
0.5808310236220472
0
LINE
8
BLACK
6
CONTINUOUS
10
0.9440764566929134
20
0.5808310236220472
11
0.9416821259842519
21
0.5713760236220472
0
LINE
8
BLACK
6
CONTINUOUS
10
0.9416821259842519
20
0.5713760236220472
11
0.9377642125984251
21
0.5624440551181102
0
LINE
8
BLACK
6
CONTINUOUS
10
0.9377642125984251
20
0.5624440551181102
11
0.9324295669291338
21
0.554278779527559
0
LINE
8
BLACK
6
CONTINUOUS
10
0.9324295669291338
20
0.554278779527559
11
0.9258237007874015
21
0.5471029133858267
0
LINE
8
BLACK
6
CONTINUOUS
10
0.9258237007874015
20
0.5471029133858267
11
0.9181268503937008
21
0.5411122047244095
0
LINE
8
BLACK
6
CONTINUOUS
10
0.9181268503937008
20
0.5411122047244095
11
0.909548937007874
21
0.5364700787401575
0
LINE
8
BLACK
6
CONTINUOUS
10
0.909548937007874
20
0.5364700787401575
11
0.9003239370078739
21
0.5333031496062992
0
LINE
8
BLACK
6
CONTINUOUS
10
0.9003239370078739
20
0.5333031496062992
11
0.8907035039370078
21
0.5316977559055118
0
LINE
8
BLACK
6
CONTINUOUS
10
0.8907035039370078
20
0.5316977559055118
11
0.8809500393700788
21
0.5316977559055118
0
LINE
8
BLACK
6
CONTINUOUS
10
0.8809500393700788
20
0.5316977559055118
11
0.8713296062992126
21
0.5333031496062992
0
LINE
8
BLACK
6
CONTINUOUS
10
0.8713296062992126
20
0.5333031496062992
11
0.8621046062992126
21
0.5364700787401575
0
LINE
8
BLACK
6
CONTINUOUS
10
0.8621046062992126
20
0.5364700787401575
11
0.8535266929133858
21
0.5411122047244095
0
LINE
8
BLACK
6
CONTINUOUS
10
0.8535266929133858
20
0.5411122047244095
11
0.8458298425196851
21
0.5471029133858267
0
LINE
8
BLACK
6
CONTINUOUS
10
0.8458298425196851
20
0.5471029133858267
11
0.8392239763779528
21
0.554278779527559
0
LINE
8
BLACK
6
CONTINUOUS
10
0.8392239763779528
20
0.554278779527559
11
0.8338893307086614
21
0.5624440551181102
0
LINE
8
BLACK
6
CONTINUOUS
10
0.8338893307086614
20
0.5624440551181102
11
0.8299714173228346
21
0.5713760236220472
0
LINE
8
BLACK
6
CONTINUOUS
10
0.8299714173228346
20
0.5713760236220472
11
0.8275770866141732
21
0.5808310236220472
0
LINE
8
BLACK
6
CONTINUOUS
10
0.8275770866141732
20
0.5808310236220472
11
0.8267716535433071
21
0.5905511811023622
0
LINE
8
BLACK
6
CONTINUOUS
10
0.8267716535433071
20
0.5905511811023622
11
0.8275770866141732
21
0.6002713385826771
0
LINE
8
BLACK
6
CONTINUOUS
10
0.8275770866141732
20
0.6002713385826771
11
0.8299714173228346
21
0.6097263385826771
0
LINE
8
BLACK
6
CONTINUOUS
10
0.8299714173228346
20
0.6097263385826771
11
0.8338893307086614
21
0.6186583070866142
0
LINE
8
BLACK
6
CONTINUOUS
10
0.8338893307086614
20
0.6186583070866142
11
0.8392239763779528
21
0.6268235826771653
0
LINE
8
BLACK
6
CONTINUOUS
10
0.8392239763779528
20
0.6268235826771653
11
0.8458298425196851
21
0.6339994488188976
0
LINE
8
BLACK
6
CONTINUOUS
10
0.8458298425196851
20
0.6339994488188976
11
0.8535266929133858
21
0.639990157480315
0
LINE
8
BLACK
6
CONTINUOUS
10
0.8535266929133858
20
0.639990157480315
11
0.8621046062992126
21
0.6446322834645669
0
LINE
8
BLACK
6
CONTINUOUS
10
0.8621046062992126
20
0.6446322834645669
11
0.8713296062992126
21
0.6477992125984252
0
LINE
8
BLACK
6
CONTINUOUS
10
0.8713296062992126
20
0.6477992125984252
11
0.8809500393700788
21
0.6494046062992126
0
LINE
8
BLACK
6
CONTINUOUS
10
0.8809500393700788
20
0.6494046062992126
11
0.8907035039370078
21
0.6494046062992126
0
LINE
8
BLACK
6
CONTINUOUS
10
0.8907035039370078
20
0.6494046062992126
11
0.9003239370078739
21
0.6477992125984252
  0
ENDSEC
  0
EOF
