  0
SECTION
  2
HEADER
  9
$ANGBASE
  50
0.0
  9
$ANGDIR
  70
1
  9
$MEASUREMENT
  70
0
  0
ENDSEC
  0
SECTION
  2
TABLES
  0
TABLE
  2
LTYPE
  70
4
  0
LTYPE
  5
40F
  2
CONTINUOUS
  70
0
  3
Solid line
  72
65
  73
0
  40
0.0
  0
LTYPE
  5
410
  2
DASHDOT
 70
0
  3
Dash Dot ____ _ ____ _
 72
65
 73
4
 40
2.0
 49
1.25
 49
-0.25
 49
0.25
 49
-0.25
  0
LTYPE
  5
411
  2
DASHED
 70
0
  3
Dashed __ __ __ __ __
 72
65
 73
2
 40
0.75
 49
0.5
 49
-0.25
  0
LTYPE
  5
43B
  2
DOTTED
 70
0
  3
Dotted .  .  .  .
 72
65
 73
2
 40
0.2
 49
0.0
 49
-0.2
  0
ENDTAB
  0
TABLE
  2
STYLE
  70
4
  0
STYLE
  2
KICAD
  70
0
  40
0
  41
1
  42
1
  50
0
  71
0
  3
isocp.shx
  0
STYLE
  2
KICADB
  70
0
  40
0
  41
1
  42
1
  50
0
  71
0
  3
isocp.shx
  0
STYLE
  2
KICADI
  70
0
  40
0
  41
1
  42
1
  50
15
  71
0
  3
isocp.shx
  0
STYLE
  2
KICADBI
  70
0
  40
0
  41
1
  42
1
  50
15
  71
0
  3
isocp.shx
  0
ENDTAB
  0
TABLE
  2
LAYER
  70
1
  0
LAYER
  2
BLACK
  70
0
  62
7
  6
CONTINUOUS
  0
ENDTAB
  0
ENDSEC
  0
SECTION
  2
ENTITIES
0
LINE
8
BLACK
6
CONTINUOUS
10
0.781031
20
-0.0373809
11
0.781166
21
-0.0374944
0
LINE
8
BLACK
6
CONTINUOUS
10
0.781166
20
-0.0374944
11
0.781341
21
-0.0375146
0
LINE
8
BLACK
6
CONTINUOUS
10
0.781341
20
-0.0375146
11
0.785091
21
-0.0393893
0
LINE
8
BLACK
6
CONTINUOUS
10
0.785091
20
-0.0393893
11
0.785914
21
-0.0400002
0
LINE
8
BLACK
6
CONTINUOUS
10
0.785914
20
-0.0400002
11
0.78609
21
-0.0404059
0
LINE
8
BLACK
6
CONTINUOUS
10
0.78609
20
-0.0404059
11
0.786411
21
-0.0407098
0
LINE
8
BLACK
6
CONTINUOUS
10
0.786411
20
-0.0407098
11
0.788286
21
-0.0444594
0
LINE
8
BLACK
6
CONTINUOUS
10
0.788286
20
-0.0444594
11
0.788578
21
-0.0454423
0
LINE
8
BLACK
6
CONTINUOUS
10
0.788578
20
-0.0454423
11
0.788537
21
-0.045614
0
LINE
8
BLACK
6
CONTINUOUS
10
0.788537
20
-0.045614
11
0.788598
21
-0.0457799
0
LINE
8
BLACK
6
CONTINUOUS
10
0.788598
20
-0.0457799
11
0.788598
21
-0.0495294
0
LINE
8
BLACK
6
CONTINUOUS
10
0.788598
20
-0.0495294
11
0.78842
21
-0.0505393
0
LINE
8
BLACK
6
CONTINUOUS
10
0.78842
20
-0.0505393
11
0.788106
21
-0.0509131
0
LINE
8
BLACK
6
CONTINUOUS
10
0.788106
20
-0.0509131
11
0.78795
21
-0.0513752
0
LINE
8
BLACK
6
CONTINUOUS
10
0.78795
20
-0.0513752
11
0.787477
21
-0.0516627
0
LINE
8
BLACK
6
CONTINUOUS
10
0.787477
20
-0.0516627
11
0.787121
21
-0.0520866
0
LINE
8
BLACK
6
CONTINUOUS
10
0.787121
20
-0.0520866
11
0.786641
21
-0.0521713
0
LINE
8
BLACK
6
CONTINUOUS
10
0.786641
20
-0.0521713
11
0.786224
21
-0.0524248
0
LINE
8
BLACK
6
CONTINUOUS
10
0.786224
20
-0.0524248
11
0.76985
21
-0.0556996
0
LINE
8
BLACK
6
CONTINUOUS
10
0.76985
20
-0.0556996
11
0.76985
21
-0.0600809
0
LINE
8
BLACK
6
CONTINUOUS
10
0.76985
20
-0.0600809
11
0.770973
21
-0.0623267
0
LINE
8
BLACK
6
CONTINUOUS
10
0.770973
20
-0.0623267
11
0.773219
21
-0.0634496
0
LINE
8
BLACK
6
CONTINUOUS
10
0.773219
20
-0.0634496
11
0.779324
21
-0.0634496
0
LINE
8
BLACK
6
CONTINUOUS
10
0.779324
20
-0.0634496
11
0.78245
21
-0.0618865
0
LINE
8
BLACK
6
CONTINUOUS
10
0.78245
20
-0.0618865
11
0.783433
21
-0.0615942
0
LINE
8
BLACK
6
CONTINUOUS
10
0.783433
20
-0.0615942
11
0.785397
21
-0.0620635
0
LINE
8
BLACK
6
CONTINUOUS
10
0.785397
20
-0.0620635
11
0.7866
21
-0.0636857
0
LINE
8
BLACK
6
CONTINUOUS
10
0.7866
20
-0.0636857
11
0.786479
21
-0.0657019
0
LINE
8
BLACK
6
CONTINUOUS
10
0.786479
20
-0.0657019
11
0.785091
21
-0.0671686
0
LINE
8
BLACK
6
CONTINUOUS
10
0.785091
20
-0.0671686
11
0.781341
21
-0.0690433
0
LINE
8
BLACK
6
CONTINUOUS
10
0.781341
20
-0.0690433
11
0.780358
21
-0.0693357
0
LINE
8
BLACK
6
CONTINUOUS
10
0.780358
20
-0.0693357
11
0.780186
21
-0.0692947
0
LINE
8
BLACK
6
CONTINUOUS
10
0.780186
20
-0.0692947
11
0.780021
21
-0.0693551
0
LINE
8
BLACK
6
CONTINUOUS
10
0.780021
20
-0.0693551
11
0.772522
21
-0.0693551
0
LINE
8
BLACK
6
CONTINUOUS
10
0.772522
20
-0.0693551
11
0.771512
21
-0.069177
0
LINE
8
BLACK
6
CONTINUOUS
10
0.771512
20
-0.069177
11
0.771376
21
-0.0690635
0
LINE
8
BLACK
6
CONTINUOUS
10
0.771376
20
-0.0690635
11
0.771201
21
-0.0690433
0
LINE
8
BLACK
6
CONTINUOUS
10
0.771201
20
-0.0690433
11
0.767451
21
-0.0671686
0
LINE
8
BLACK
6
CONTINUOUS
10
0.767451
20
-0.0671686
11
0.766628
21
-0.0665577
0
LINE
8
BLACK
6
CONTINUOUS
10
0.766628
20
-0.0665577
11
0.766452
21
-0.066152
0
LINE
8
BLACK
6
CONTINUOUS
10
0.766452
20
-0.066152
11
0.766131
21
-0.0658481
0
LINE
8
BLACK
6
CONTINUOUS
10
0.766131
20
-0.0658481
11
0.764256
21
-0.0620985
0
LINE
8
BLACK
6
CONTINUOUS
10
0.764256
20
-0.0620985
11
0.763964
21
-0.0611156
0
LINE
8
BLACK
6
CONTINUOUS
10
0.763964
20
-0.0611156
11
0.764005
21
-0.0609438
0
LINE
8
BLACK
6
CONTINUOUS
10
0.764005
20
-0.0609438
11
0.763944
21
-0.060778
0
LINE
8
BLACK
6
CONTINUOUS
10
0.763944
20
-0.060778
11
0.763944
21
-0.0457799
0
LINE
8
BLACK
6
CONTINUOUS
10
0.763944
20
-0.0457799
11
0.764123
21
-0.04477
0
LINE
8
BLACK
6
CONTINUOUS
10
0.764123
20
-0.04477
11
0.764236
21
-0.0446347
0
LINE
8
BLACK
6
CONTINUOUS
10
0.764236
20
-0.0446347
11
0.764256
21
-0.0444594
0
LINE
8
BLACK
6
CONTINUOUS
10
0.764256
20
-0.0444594
11
0.766131
21
-0.0407098
0
LINE
8
BLACK
6
CONTINUOUS
10
0.766131
20
-0.0407098
11
0.766742
21
-0.0398862
0
LINE
8
BLACK
6
CONTINUOUS
10
0.766742
20
-0.0398862
11
0.767148
21
-0.0397103
0
LINE
8
BLACK
6
CONTINUOUS
10
0.767148
20
-0.0397103
11
0.767451
21
-0.0393893
0
LINE
8
BLACK
6
CONTINUOUS
10
0.767451
20
-0.0393893
11
0.771201
21
-0.0375146
0
LINE
8
BLACK
6
CONTINUOUS
10
0.771201
20
-0.0375146
11
0.772184
21
-0.0372222
0
LINE
8
BLACK
6
CONTINUOUS
10
0.772184
20
-0.0372222
11
0.772356
21
-0.0372632
0
LINE
8
BLACK
6
CONTINUOUS
10
0.772356
20
-0.0372632
11
0.772522
21
-0.0372028
0
LINE
8
BLACK
6
CONTINUOUS
10
0.772522
20
-0.0372028
11
0.780021
21
-0.0372028
0
LINE
8
BLACK
6
CONTINUOUS
10
0.780021
20
-0.0372028
11
0.781031
21
-0.0373809
0
LINE
8
BLACK
6
CONTINUOUS
10
0.770973
20
-0.0442312
11
0.76985
21
-0.0464769
0
LINE
8
BLACK
6
CONTINUOUS
10
0.76985
20
-0.0464769
11
0.76985
21
-0.0496771
0
LINE
8
BLACK
6
CONTINUOUS
10
0.76985
20
-0.0496771
11
0.782692
21
-0.0471087
0
LINE
8
BLACK
6
CONTINUOUS
10
0.782692
20
-0.0471087
11
0.782692
21
-0.0464769
0
LINE
8
BLACK
6
CONTINUOUS
10
0.782692
20
-0.0464769
11
0.781569
21
-0.0442312
0
LINE
8
BLACK
6
CONTINUOUS
10
0.781569
20
-0.0442312
11
0.779324
21
-0.0431083
0
LINE
8
BLACK
6
CONTINUOUS
10
0.779324
20
-0.0431083
11
0.773219
21
-0.0431083
0
LINE
8
BLACK
6
CONTINUOUS
10
0.773219
20
-0.0431083
11
0.770973
21
-0.0442312
0
LINE
8
BLACK
6
CONTINUOUS
10
0.814776
20
-0.0373809
11
0.814912
21
-0.0374944
0
LINE
8
BLACK
6
CONTINUOUS
10
0.814912
20
-0.0374944
11
0.815087
21
-0.0375146
0
LINE
8
BLACK
6
CONTINUOUS
10
0.815087
20
-0.0375146
11
0.818836
21
-0.0393893
0
LINE
8
BLACK
6
CONTINUOUS
10
0.818836
20
-0.0393893
11
0.81966
21
-0.0400002
0
LINE
8
BLACK
6
CONTINUOUS
10
0.81966
20
-0.0400002
11
0.819836
21
-0.0404059
0
LINE
8
BLACK
6
CONTINUOUS
10
0.819836
20
-0.0404059
11
0.820157
21
-0.0407098
0
LINE
8
BLACK
6
CONTINUOUS
10
0.820157
20
-0.0407098
11
0.822032
21
-0.0444594
0
LINE
8
BLACK
6
CONTINUOUS
10
0.822032
20
-0.0444594
11
0.822324
21
-0.0454423
0
LINE
8
BLACK
6
CONTINUOUS
10
0.822324
20
-0.0454423
11
0.822283
21
-0.045614
0
LINE
8
BLACK
6
CONTINUOUS
10
0.822283
20
-0.045614
11
0.822343
21
-0.0457799
0
LINE
8
BLACK
6
CONTINUOUS
10
0.822343
20
-0.0457799
11
0.822343
21
-0.0664023
0
LINE
8
BLACK
6
CONTINUOUS
10
0.822343
20
-0.0664023
11
0.822165
21
-0.0674122
0
LINE
8
BLACK
6
CONTINUOUS
10
0.822165
20
-0.0674122
11
0.820867
21
-0.0689595
0
LINE
8
BLACK
6
CONTINUOUS
10
0.820867
20
-0.0689595
11
0.818878
21
-0.0693102
0
LINE
8
BLACK
6
CONTINUOUS
10
0.818878
20
-0.0693102
11
0.817741
21
-0.0686537
0
LINE
8
BLACK
6
CONTINUOUS
10
0.817741
20
-0.0686537
11
0.816962
21
-0.0690433
0
LINE
8
BLACK
6
CONTINUOUS
10
0.816962
20
-0.0690433
11
0.815979
21
-0.0693357
0
LINE
8
BLACK
6
CONTINUOUS
10
0.815979
20
-0.0693357
11
0.815807
21
-0.0692947
0
LINE
8
BLACK
6
CONTINUOUS
10
0.815807
20
-0.0692947
11
0.815641
21
-0.0693551
0
LINE
8
BLACK
6
CONTINUOUS
10
0.815641
20
-0.0693551
11
0.806267
21
-0.0693551
0
LINE
8
BLACK
6
CONTINUOUS
10
0.806267
20
-0.0693551
11
0.805257
21
-0.069177
0
LINE
8
BLACK
6
CONTINUOUS
10
0.805257
20
-0.069177
11
0.805122
21
-0.0690635
0
LINE
8
BLACK
6
CONTINUOUS
10
0.805122
20
-0.0690635
11
0.804947
21
-0.0690433
0
LINE
8
BLACK
6
CONTINUOUS
10
0.804947
20
-0.0690433
11
0.801197
21
-0.0671686
0
LINE
8
BLACK
6
CONTINUOUS
10
0.801197
20
-0.0671686
11
0.800374
21
-0.0665577
0
LINE
8
BLACK
6
CONTINUOUS
10
0.800374
20
-0.0665577
11
0.800198
21
-0.066152
0
LINE
8
BLACK
6
CONTINUOUS
10
0.800198
20
-0.066152
11
0.799877
21
-0.0658481
0
LINE
8
BLACK
6
CONTINUOUS
10
0.799877
20
-0.0658481
11
0.798002
21
-0.0620985
0
LINE
8
BLACK
6
CONTINUOUS
10
0.798002
20
-0.0620985
11
0.79771
21
-0.0611156
0
LINE
8
BLACK
6
CONTINUOUS
10
0.79771
20
-0.0611156
11
0.797751
21
-0.0609438
0
LINE
8
BLACK
6
CONTINUOUS
10
0.797751
20
-0.0609438
11
0.79769
21
-0.060778
0
LINE
8
BLACK
6
CONTINUOUS
10
0.79769
20
-0.060778
11
0.79769
21
-0.0570285
0
LINE
8
BLACK
6
CONTINUOUS
10
0.79769
20
-0.0570285
11
0.797868
21
-0.0560185
0
LINE
8
BLACK
6
CONTINUOUS
10
0.797868
20
-0.0560185
11
0.797982
21
-0.0558833
0
LINE
8
BLACK
6
CONTINUOUS
10
0.797982
20
-0.0558833
11
0.798002
21
-0.055708
0
LINE
8
BLACK
6
CONTINUOUS
10
0.798002
20
-0.055708
11
0.799877
21
-0.0519584
0
LINE
8
BLACK
6
CONTINUOUS
10
0.799877
20
-0.0519584
11
0.800488
21
-0.0511348
0
LINE
8
BLACK
6
CONTINUOUS
10
0.800488
20
-0.0511348
11
0.800893
21
-0.0509589
0
LINE
8
BLACK
6
CONTINUOUS
10
0.800893
20
-0.0509589
11
0.801197
21
-0.0506379
0
LINE
8
BLACK
6
CONTINUOUS
10
0.801197
20
-0.0506379
11
0.804947
21
-0.0487631
0
LINE
8
BLACK
6
CONTINUOUS
10
0.804947
20
-0.0487631
11
0.80593
21
-0.0484708
0
LINE
8
BLACK
6
CONTINUOUS
10
0.80593
20
-0.0484708
11
0.806101
21
-0.0485118
0
LINE
8
BLACK
6
CONTINUOUS
10
0.806101
20
-0.0485118
11
0.806267
21
-0.0484514
0
LINE
8
BLACK
6
CONTINUOUS
10
0.806267
20
-0.0484514
11
0.814944
21
-0.0484514
0
LINE
8
BLACK
6
CONTINUOUS
10
0.814944
20
-0.0484514
11
0.816438
21
-0.0477045
0
LINE
8
BLACK
6
CONTINUOUS
10
0.816438
20
-0.0477045
11
0.816438
21
-0.0464769
0
LINE
8
BLACK
6
CONTINUOUS
10
0.816438
20
-0.0464769
11
0.815315
21
-0.0442312
0
LINE
8
BLACK
6
CONTINUOUS
10
0.815315
20
-0.0442312
11
0.813069
21
-0.0431083
0
LINE
8
BLACK
6
CONTINUOUS
10
0.813069
20
-0.0431083
11
0.806964
21
-0.0431083
0
LINE
8
BLACK
6
CONTINUOUS
10
0.806964
20
-0.0431083
11
0.803838
21
-0.0446714
0
LINE
8
BLACK
6
CONTINUOUS
10
0.803838
20
-0.0446714
11
0.802855
21
-0.0449637
0
LINE
8
BLACK
6
CONTINUOUS
10
0.802855
20
-0.0449637
11
0.800891
21
-0.0444944
0
LINE
8
BLACK
6
CONTINUOUS
10
0.800891
20
-0.0444944
11
0.799688
21
-0.0428722
0
LINE
8
BLACK
6
CONTINUOUS
10
0.799688
20
-0.0428722
11
0.799809
21
-0.040856
0
LINE
8
BLACK
6
CONTINUOUS
10
0.799809
20
-0.040856
11
0.801197
21
-0.0393893
0
LINE
8
BLACK
6
CONTINUOUS
10
0.801197
20
-0.0393893
11
0.804947
21
-0.0375146
0
LINE
8
BLACK
6
CONTINUOUS
10
0.804947
20
-0.0375146
11
0.80593
21
-0.0372222
0
LINE
8
BLACK
6
CONTINUOUS
10
0.80593
20
-0.0372222
11
0.806101
21
-0.0372632
0
LINE
8
BLACK
6
CONTINUOUS
10
0.806101
20
-0.0372632
11
0.806267
21
-0.0372028
0
LINE
8
BLACK
6
CONTINUOUS
10
0.806267
20
-0.0372028
11
0.813766
21
-0.0372028
0
LINE
8
BLACK
6
CONTINUOUS
10
0.813766
20
-0.0372028
11
0.814776
21
-0.0373809
0
LINE
8
BLACK
6
CONTINUOUS
10
0.815979
20
-0.0543376
11
0.815807
21
-0.0542965
0
LINE
8
BLACK
6
CONTINUOUS
10
0.815807
20
-0.0542965
11
0.815641
21
-0.0543569
0
LINE
8
BLACK
6
CONTINUOUS
10
0.815641
20
-0.0543569
11
0.806964
21
-0.0543569
0
LINE
8
BLACK
6
CONTINUOUS
10
0.806964
20
-0.0543569
11
0.804719
21
-0.0554798
0
LINE
8
BLACK
6
CONTINUOUS
10
0.804719
20
-0.0554798
11
0.803596
21
-0.0577255
0
LINE
8
BLACK
6
CONTINUOUS
10
0.803596
20
-0.0577255
11
0.803596
21
-0.0600809
0
LINE
8
BLACK
6
CONTINUOUS
10
0.803596
20
-0.0600809
11
0.804719
21
-0.0623267
0
LINE
8
BLACK
6
CONTINUOUS
10
0.804719
20
-0.0623267
11
0.806964
21
-0.0634496
0
LINE
8
BLACK
6
CONTINUOUS
10
0.806964
20
-0.0634496
11
0.814944
21
-0.0634496
0
LINE
8
BLACK
6
CONTINUOUS
10
0.814944
20
-0.0634496
11
0.816438
21
-0.0627026
0
LINE
8
BLACK
6
CONTINUOUS
10
0.816438
20
-0.0627026
11
0.816438
21
-0.0542009
0
LINE
8
BLACK
6
CONTINUOUS
10
0.816438
20
-0.0542009
11
0.815979
21
-0.0543376
0
LINE
8
BLACK
6
CONTINUOUS
10
0.8404
20
-0.0251343
11
0.841091
21
-0.0270322
0
LINE
8
BLACK
6
CONTINUOUS
10
0.841091
20
-0.0270322
11
0.841091
21
-0.0372028
0
LINE
8
BLACK
6
CONTINUOUS
10
0.841091
20
-0.0372028
11
0.847512
21
-0.0372028
0
LINE
8
BLACK
6
CONTINUOUS
10
0.847512
20
-0.0372028
11
0.848522
21
-0.0373809
0
LINE
8
BLACK
6
CONTINUOUS
10
0.848522
20
-0.0373809
11
0.850069
21
-0.0386792
0
LINE
8
BLACK
6
CONTINUOUS
10
0.850069
20
-0.0386792
11
0.85042
21
-0.0406683
0
LINE
8
BLACK
6
CONTINUOUS
10
0.85042
20
-0.0406683
11
0.84941
21
-0.0424175
0
LINE
8
BLACK
6
CONTINUOUS
10
0.84941
20
-0.0424175
11
0.847512
21
-0.0431083
0
LINE
8
BLACK
6
CONTINUOUS
10
0.847512
20
-0.0431083
11
0.841091
21
-0.0431083
0
LINE
8
BLACK
6
CONTINUOUS
10
0.841091
20
-0.0431083
11
0.841091
21
-0.0600809
0
LINE
8
BLACK
6
CONTINUOUS
10
0.841091
20
-0.0600809
11
0.842214
21
-0.0623267
0
LINE
8
BLACK
6
CONTINUOUS
10
0.842214
20
-0.0623267
11
0.84446
21
-0.0634496
0
LINE
8
BLACK
6
CONTINUOUS
10
0.84446
20
-0.0634496
11
0.847512
21
-0.0634496
0
LINE
8
BLACK
6
CONTINUOUS
10
0.847512
20
-0.0634496
11
0.848522
21
-0.0636276
0
LINE
8
BLACK
6
CONTINUOUS
10
0.848522
20
-0.0636276
11
0.850069
21
-0.0649259
0
LINE
8
BLACK
6
CONTINUOUS
10
0.850069
20
-0.0649259
11
0.85042
21
-0.0669151
0
LINE
8
BLACK
6
CONTINUOUS
10
0.85042
20
-0.0669151
11
0.84941
21
-0.0686643
0
LINE
8
BLACK
6
CONTINUOUS
10
0.84941
20
-0.0686643
11
0.847512
21
-0.0693551
0
LINE
8
BLACK
6
CONTINUOUS
10
0.847512
20
-0.0693551
11
0.843763
21
-0.0693551
0
LINE
8
BLACK
6
CONTINUOUS
10
0.843763
20
-0.0693551
11
0.842753
21
-0.069177
0
LINE
8
BLACK
6
CONTINUOUS
10
0.842753
20
-0.069177
11
0.842617
21
-0.0690635
0
LINE
8
BLACK
6
CONTINUOUS
10
0.842617
20
-0.0690635
11
0.842442
21
-0.0690433
0
LINE
8
BLACK
6
CONTINUOUS
10
0.842442
20
-0.0690433
11
0.838693
21
-0.0671686
0
LINE
8
BLACK
6
CONTINUOUS
10
0.838693
20
-0.0671686
11
0.837869
21
-0.0665577
0
LINE
8
BLACK
6
CONTINUOUS
10
0.837869
20
-0.0665577
11
0.837693
21
-0.066152
0
LINE
8
BLACK
6
CONTINUOUS
10
0.837693
20
-0.066152
11
0.837372
21
-0.0658481
0
LINE
8
BLACK
6
CONTINUOUS
10
0.837372
20
-0.0658481
11
0.835497
21
-0.0620985
0
LINE
8
BLACK
6
CONTINUOUS
10
0.835497
20
-0.0620985
11
0.835205
21
-0.0611156
0
LINE
8
BLACK
6
CONTINUOUS
10
0.835205
20
-0.0611156
11
0.835246
21
-0.0609438
0
LINE
8
BLACK
6
CONTINUOUS
10
0.835246
20
-0.0609438
11
0.835186
21
-0.060778
0
LINE
8
BLACK
6
CONTINUOUS
10
0.835186
20
-0.060778
11
0.835186
21
-0.0431083
0
LINE
8
BLACK
6
CONTINUOUS
10
0.835186
20
-0.0431083
11
0.832514
21
-0.0431083
0
LINE
8
BLACK
6
CONTINUOUS
10
0.832514
20
-0.0431083
11
0.831504
21
-0.0429303
0
LINE
8
BLACK
6
CONTINUOUS
10
0.831504
20
-0.0429303
11
0.829957
21
-0.041632
0
LINE
8
BLACK
6
CONTINUOUS
10
0.829957
20
-0.041632
11
0.829606
21
-0.0396428
0
LINE
8
BLACK
6
CONTINUOUS
10
0.829606
20
-0.0396428
11
0.830616
21
-0.0378937
0
LINE
8
BLACK
6
CONTINUOUS
10
0.830616
20
-0.0378937
11
0.832514
21
-0.0372028
0
LINE
8
BLACK
6
CONTINUOUS
10
0.832514
20
-0.0372028
11
0.835186
21
-0.0372028
0
LINE
8
BLACK
6
CONTINUOUS
10
0.835186
20
-0.0372028
11
0.835186
21
-0.0270322
0
LINE
8
BLACK
6
CONTINUOUS
10
0.835186
20
-0.0270322
11
0.835364
21
-0.0260223
0
LINE
8
BLACK
6
CONTINUOUS
10
0.835364
20
-0.0260223
11
0.836662
21
-0.0244751
0
LINE
8
BLACK
6
CONTINUOUS
10
0.836662
20
-0.0244751
11
0.838651
21
-0.0241243
0
LINE
8
BLACK
6
CONTINUOUS
10
0.838651
20
-0.0241243
11
0.8404
21
-0.0251343
0
LINE
8
BLACK
6
CONTINUOUS
10
0.955384
20
-0.0373809
11
0.955519
21
-0.0374944
0
LINE
8
BLACK
6
CONTINUOUS
10
0.955519
20
-0.0374944
11
0.955694
21
-0.0375146
0
LINE
8
BLACK
6
CONTINUOUS
10
0.955694
20
-0.0375146
11
0.959444
21
-0.0393893
0
LINE
8
BLACK
6
CONTINUOUS
10
0.959444
20
-0.0393893
11
0.960268
21
-0.0400002
0
LINE
8
BLACK
6
CONTINUOUS
10
0.960268
20
-0.0400002
11
0.961071
21
-0.0418534
0
LINE
8
BLACK
6
CONTINUOUS
10
0.961071
20
-0.0418534
11
0.960495
21
-0.0437894
0
LINE
8
BLACK
6
CONTINUOUS
10
0.960495
20
-0.0437894
11
0.958809
21
-0.0449023
0
LINE
8
BLACK
6
CONTINUOUS
10
0.958809
20
-0.0449023
11
0.956803
21
-0.0446714
0
LINE
8
BLACK
6
CONTINUOUS
10
0.956803
20
-0.0446714
11
0.953677
21
-0.0431083
0
LINE
8
BLACK
6
CONTINUOUS
10
0.953677
20
-0.0431083
11
0.949447
21
-0.0431083
0
LINE
8
BLACK
6
CONTINUOUS
10
0.949447
20
-0.0431083
11
0.947201
21
-0.0442312
0
LINE
8
BLACK
6
CONTINUOUS
10
0.947201
20
-0.0442312
11
0.946078
21
-0.0464769
0
LINE
8
BLACK
6
CONTINUOUS
10
0.946078
20
-0.0464769
11
0.946078
21
-0.0469576
0
LINE
8
BLACK
6
CONTINUOUS
10
0.946078
20
-0.0469576
11
0.947201
21
-0.0492033
0
LINE
8
BLACK
6
CONTINUOUS
10
0.947201
20
-0.0492033
11
0.949447
21
-0.0503262
0
LINE
8
BLACK
6
CONTINUOUS
10
0.949447
20
-0.0503262
11
0.954374
21
-0.0503262
0
LINE
8
BLACK
6
CONTINUOUS
10
0.954374
20
-0.0503262
11
0.955384
21
-0.0505043
0
LINE
8
BLACK
6
CONTINUOUS
10
0.955384
20
-0.0505043
11
0.955519
21
-0.0506177
0
LINE
8
BLACK
6
CONTINUOUS
10
0.955519
20
-0.0506177
11
0.955694
21
-0.0506379
0
LINE
8
BLACK
6
CONTINUOUS
10
0.955694
20
-0.0506379
11
0.959444
21
-0.0525127
0
LINE
8
BLACK
6
CONTINUOUS
10
0.959444
20
-0.0525127
11
0.960268
21
-0.0531236
0
LINE
8
BLACK
6
CONTINUOUS
10
0.960268
20
-0.0531236
11
0.960443
21
-0.0535293
0
LINE
8
BLACK
6
CONTINUOUS
10
0.960443
20
-0.0535293
11
0.960764
21
-0.0538332
0
LINE
8
BLACK
6
CONTINUOUS
10
0.960764
20
-0.0538332
11
0.962639
21
-0.0575827
0
LINE
8
BLACK
6
CONTINUOUS
10
0.962639
20
-0.0575827
11
0.962931
21
-0.0585656
0
LINE
8
BLACK
6
CONTINUOUS
10
0.962931
20
-0.0585656
11
0.96289
21
-0.0587373
0
LINE
8
BLACK
6
CONTINUOUS
10
0.96289
20
-0.0587373
11
0.962951
21
-0.0589032
0
LINE
8
BLACK
6
CONTINUOUS
10
0.962951
20
-0.0589032
11
0.962951
21
-0.060778
0
LINE
8
BLACK
6
CONTINUOUS
10
0.962951
20
-0.060778
11
0.962773
21
-0.0617879
0
LINE
8
BLACK
6
CONTINUOUS
10
0.962773
20
-0.0617879
11
0.962659
21
-0.0619231
0
LINE
8
BLACK
6
CONTINUOUS
10
0.962659
20
-0.0619231
11
0.962639
21
-0.0620985
0
LINE
8
BLACK
6
CONTINUOUS
10
0.962639
20
-0.0620985
11
0.960764
21
-0.0658481
0
LINE
8
BLACK
6
CONTINUOUS
10
0.960764
20
-0.0658481
11
0.960153
21
-0.0666717
0
LINE
8
BLACK
6
CONTINUOUS
10
0.960153
20
-0.0666717
11
0.959748
21
-0.0668476
0
LINE
8
BLACK
6
CONTINUOUS
10
0.959748
20
-0.0668476
11
0.959444
21
-0.0671686
0
LINE
8
BLACK
6
CONTINUOUS
10
0.959444
20
-0.0671686
11
0.955694
21
-0.0690433
0
LINE
8
BLACK
6
CONTINUOUS
10
0.955694
20
-0.0690433
11
0.954711
21
-0.0693357
0
LINE
8
BLACK
6
CONTINUOUS
10
0.954711
20
-0.0693357
11
0.95454
21
-0.0692947
0
LINE
8
BLACK
6
CONTINUOUS
10
0.95454
20
-0.0692947
11
0.954374
21
-0.0693551
0
LINE
8
BLACK
6
CONTINUOUS
10
0.954374
20
-0.0693551
11
0.946875
21
-0.0693551
0
LINE
8
BLACK
6
CONTINUOUS
10
0.946875
20
-0.0693551
11
0.945865
21
-0.069177
0
LINE
8
BLACK
6
CONTINUOUS
10
0.945865
20
-0.069177
11
0.94573
21
-0.0690635
0
LINE
8
BLACK
6
CONTINUOUS
10
0.94573
20
-0.0690635
11
0.945554
21
-0.0690433
0
LINE
8
BLACK
6
CONTINUOUS
10
0.945554
20
-0.0690433
11
0.941805
21
-0.0671686
0
LINE
8
BLACK
6
CONTINUOUS
10
0.941805
20
-0.0671686
11
0.940981
21
-0.0665577
0
LINE
8
BLACK
6
CONTINUOUS
10
0.940981
20
-0.0665577
11
0.940178
21
-0.0647045
0
LINE
8
BLACK
6
CONTINUOUS
10
0.940178
20
-0.0647045
11
0.940754
21
-0.0627685
0
LINE
8
BLACK
6
CONTINUOUS
10
0.940754
20
-0.0627685
11
0.942439
21
-0.0616556
0
LINE
8
BLACK
6
CONTINUOUS
10
0.942439
20
-0.0616556
11
0.944446
21
-0.0618865
0
LINE
8
BLACK
6
CONTINUOUS
10
0.944446
20
-0.0618865
11
0.947572
21
-0.0634496
0
LINE
8
BLACK
6
CONTINUOUS
10
0.947572
20
-0.0634496
11
0.953677
21
-0.0634496
0
LINE
8
BLACK
6
CONTINUOUS
10
0.953677
20
-0.0634496
11
0.955922
21
-0.0623267
0
LINE
8
BLACK
6
CONTINUOUS
10
0.955922
20
-0.0623267
11
0.957045
21
-0.0600809
0
LINE
8
BLACK
6
CONTINUOUS
10
0.957045
20
-0.0600809
11
0.957045
21
-0.0596003
0
LINE
8
BLACK
6
CONTINUOUS
10
0.957045
20
-0.0596003
11
0.955922
21
-0.0573545
0
LINE
8
BLACK
6
CONTINUOUS
10
0.955922
20
-0.0573545
11
0.953677
21
-0.0562317
0
LINE
8
BLACK
6
CONTINUOUS
10
0.953677
20
-0.0562317
11
0.94875
21
-0.0562317
0
LINE
8
BLACK
6
CONTINUOUS
10
0.94875
20
-0.0562317
11
0.94774
21
-0.0560536
0
LINE
8
BLACK
6
CONTINUOUS
10
0.94774
20
-0.0560536
11
0.947604
21
-0.0559401
0
LINE
8
BLACK
6
CONTINUOUS
10
0.947604
20
-0.0559401
11
0.947429
21
-0.05592
0
LINE
8
BLACK
6
CONTINUOUS
10
0.947429
20
-0.05592
11
0.943679
21
-0.0540452
0
LINE
8
BLACK
6
CONTINUOUS
10
0.943679
20
-0.0540452
11
0.942856
21
-0.0534343
0
LINE
8
BLACK
6
CONTINUOUS
10
0.942856
20
-0.0534343
11
0.94268
21
-0.0530286
0
LINE
8
BLACK
6
CONTINUOUS
10
0.94268
20
-0.0530286
11
0.942359
21
-0.0527247
0
LINE
8
BLACK
6
CONTINUOUS
10
0.942359
20
-0.0527247
11
0.940484
21
-0.0489752
0
LINE
8
BLACK
6
CONTINUOUS
10
0.940484
20
-0.0489752
11
0.940192
21
-0.0479922
0
LINE
8
BLACK
6
CONTINUOUS
10
0.940192
20
-0.0479922
11
0.940233
21
-0.0478205
0
LINE
8
BLACK
6
CONTINUOUS
10
0.940233
20
-0.0478205
11
0.940172
21
-0.0476546
0
LINE
8
BLACK
6
CONTINUOUS
10
0.940172
20
-0.0476546
11
0.940172
21
-0.0457799
0
LINE
8
BLACK
6
CONTINUOUS
10
0.940172
20
-0.0457799
11
0.940351
21
-0.04477
0
LINE
8
BLACK
6
CONTINUOUS
10
0.940351
20
-0.04477
11
0.940464
21
-0.0446347
0
LINE
8
BLACK
6
CONTINUOUS
10
0.940464
20
-0.0446347
11
0.940484
21
-0.0444594
0
LINE
8
BLACK
6
CONTINUOUS
10
0.940484
20
-0.0444594
11
0.942359
21
-0.0407098
0
LINE
8
BLACK
6
CONTINUOUS
10
0.942359
20
-0.0407098
11
0.94297
21
-0.0398862
0
LINE
8
BLACK
6
CONTINUOUS
10
0.94297
20
-0.0398862
11
0.943376
21
-0.0397103
0
LINE
8
BLACK
6
CONTINUOUS
10
0.943376
20
-0.0397103
11
0.943679
21
-0.0393893
0
LINE
8
BLACK
6
CONTINUOUS
10
0.943679
20
-0.0393893
11
0.947429
21
-0.0375146
0
LINE
8
BLACK
6
CONTINUOUS
10
0.947429
20
-0.0375146
11
0.948412
21
-0.0372222
0
LINE
8
BLACK
6
CONTINUOUS
10
0.948412
20
-0.0372222
11
0.948584
21
-0.0372632
0
LINE
8
BLACK
6
CONTINUOUS
10
0.948584
20
-0.0372632
11
0.94875
21
-0.0372028
0
LINE
8
BLACK
6
CONTINUOUS
10
0.94875
20
-0.0372028
11
0.954374
21
-0.0372028
0
LINE
8
BLACK
6
CONTINUOUS
10
0.954374
20
-0.0372028
11
0.955384
21
-0.0373809
0
LINE
8
BLACK
6
CONTINUOUS
10
0.996006
20
-0.0382576
11
0.996697
21
-0.0401556
0
LINE
8
BLACK
6
CONTINUOUS
10
0.996697
20
-0.0401556
11
0.996697
21
-0.0664023
0
LINE
8
BLACK
6
CONTINUOUS
10
0.996697
20
-0.0664023
11
0.996519
21
-0.0674122
0
LINE
8
BLACK
6
CONTINUOUS
10
0.996519
20
-0.0674122
11
0.99522
21
-0.0689595
0
LINE
8
BLACK
6
CONTINUOUS
10
0.99522
20
-0.0689595
11
0.993231
21
-0.0693102
0
LINE
8
BLACK
6
CONTINUOUS
10
0.993231
20
-0.0693102
11
0.991482
21
-0.0683003
0
LINE
8
BLACK
6
CONTINUOUS
10
0.991482
20
-0.0683003
11
0.991396
21
-0.0680652
0
LINE
8
BLACK
6
CONTINUOUS
10
0.991396
20
-0.0680652
11
0.98944
21
-0.0690433
0
LINE
8
BLACK
6
CONTINUOUS
10
0.98944
20
-0.0690433
11
0.988457
21
-0.0693357
0
LINE
8
BLACK
6
CONTINUOUS
10
0.988457
20
-0.0693357
11
0.988285
21
-0.0692947
0
LINE
8
BLACK
6
CONTINUOUS
10
0.988285
20
-0.0692947
11
0.98812
21
-0.0693551
0
LINE
8
BLACK
6
CONTINUOUS
10
0.98812
20
-0.0693551
11
0.982495
21
-0.0693551
0
LINE
8
BLACK
6
CONTINUOUS
10
0.982495
20
-0.0693551
11
0.981485
21
-0.069177
0
LINE
8
BLACK
6
CONTINUOUS
10
0.981485
20
-0.069177
11
0.98135
21
-0.0690635
0
LINE
8
BLACK
6
CONTINUOUS
10
0.98135
20
-0.0690635
11
0.981175
21
-0.0690433
0
LINE
8
BLACK
6
CONTINUOUS
10
0.981175
20
-0.0690433
11
0.977425
21
-0.0671686
0
LINE
8
BLACK
6
CONTINUOUS
10
0.977425
20
-0.0671686
11
0.976602
21
-0.0665577
0
LINE
8
BLACK
6
CONTINUOUS
10
0.976602
20
-0.0665577
11
0.976426
21
-0.066152
0
LINE
8
BLACK
6
CONTINUOUS
10
0.976426
20
-0.066152
11
0.976105
21
-0.0658481
0
LINE
8
BLACK
6
CONTINUOUS
10
0.976105
20
-0.0658481
11
0.97423
21
-0.0620985
0
LINE
8
BLACK
6
CONTINUOUS
10
0.97423
20
-0.0620985
11
0.973938
21
-0.0611156
0
LINE
8
BLACK
6
CONTINUOUS
10
0.973938
20
-0.0611156
11
0.973979
21
-0.0609438
0
LINE
8
BLACK
6
CONTINUOUS
10
0.973979
20
-0.0609438
11
0.973918
21
-0.060778
0
LINE
8
BLACK
6
CONTINUOUS
10
0.973918
20
-0.060778
11
0.973918
21
-0.0401556
0
LINE
8
BLACK
6
CONTINUOUS
10
0.973918
20
-0.0401556
11
0.974096
21
-0.0391457
0
LINE
8
BLACK
6
CONTINUOUS
10
0.974096
20
-0.0391457
11
0.975395
21
-0.0375984
0
LINE
8
BLACK
6
CONTINUOUS
10
0.975395
20
-0.0375984
11
0.977384
21
-0.0372477
0
LINE
8
BLACK
6
CONTINUOUS
10
0.977384
20
-0.0372477
11
0.979133
21
-0.0382576
0
LINE
8
BLACK
6
CONTINUOUS
10
0.979133
20
-0.0382576
11
0.979824
21
-0.0401556
0
LINE
8
BLACK
6
CONTINUOUS
10
0.979824
20
-0.0401556
11
0.979824
21
-0.0600809
0
LINE
8
BLACK
6
CONTINUOUS
10
0.979824
20
-0.0600809
11
0.980947
21
-0.0623267
0
LINE
8
BLACK
6
CONTINUOUS
10
0.980947
20
-0.0623267
11
0.983192
21
-0.0634496
0
LINE
8
BLACK
6
CONTINUOUS
10
0.983192
20
-0.0634496
11
0.987423
21
-0.0634496
0
LINE
8
BLACK
6
CONTINUOUS
10
0.987423
20
-0.0634496
11
0.99012
21
-0.0621008
0
LINE
8
BLACK
6
CONTINUOUS
10
0.99012
20
-0.0621008
11
0.990791
21
-0.0614297
0
LINE
8
BLACK
6
CONTINUOUS
10
0.990791
20
-0.0614297
11
0.990791
21
-0.0401556
0
LINE
8
BLACK
6
CONTINUOUS
10
0.990791
20
-0.0401556
11
0.990969
21
-0.0391457
0
LINE
8
BLACK
6
CONTINUOUS
10
0.990969
20
-0.0391457
11
0.992268
21
-0.0375984
0
LINE
8
BLACK
6
CONTINUOUS
10
0.992268
20
-0.0375984
11
0.994257
21
-0.0372477
0
LINE
8
BLACK
6
CONTINUOUS
10
0.994257
20
-0.0372477
11
0.996006
21
-0.0382576
0
LINE
8
BLACK
6
CONTINUOUS
10
1.04537
20
-0.0373809
11
1.04551
21
-0.0374944
0
LINE
8
BLACK
6
CONTINUOUS
10
1.04551
20
-0.0374944
11
1.04568
21
-0.0375146
0
LINE
8
BLACK
6
CONTINUOUS
10
1.04568
20
-0.0375146
11
1.04943
21
-0.0393893
0
LINE
8
BLACK
6
CONTINUOUS
10
1.04943
20
-0.0393893
11
1.05026
21
-0.0400002
0
LINE
8
BLACK
6
CONTINUOUS
10
1.05026
20
-0.0400002
11
1.05043
21
-0.0404059
0
LINE
8
BLACK
6
CONTINUOUS
10
1.05043
20
-0.0404059
11
1.05075
21
-0.0407098
0
LINE
8
BLACK
6
CONTINUOUS
10
1.05075
20
-0.0407098
11
1.05263
21
-0.0444594
0
LINE
8
BLACK
6
CONTINUOUS
10
1.05263
20
-0.0444594
11
1.05292
21
-0.0454423
0
LINE
8
BLACK
6
CONTINUOUS
10
1.05292
20
-0.0454423
11
1.05288
21
-0.045614
0
LINE
8
BLACK
6
CONTINUOUS
10
1.05288
20
-0.045614
11
1.05294
21
-0.0457799
0
LINE
8
BLACK
6
CONTINUOUS
10
1.05294
20
-0.0457799
11
1.05294
21
-0.0664023
0
LINE
8
BLACK
6
CONTINUOUS
10
1.05294
20
-0.0664023
11
1.05276
21
-0.0674122
0
LINE
8
BLACK
6
CONTINUOUS
10
1.05276
20
-0.0674122
11
1.05146
21
-0.0689595
0
LINE
8
BLACK
6
CONTINUOUS
10
1.05146
20
-0.0689595
11
1.04947
21
-0.0693102
0
LINE
8
BLACK
6
CONTINUOUS
10
1.04947
20
-0.0693102
11
1.04834
21
-0.0686537
0
LINE
8
BLACK
6
CONTINUOUS
10
1.04834
20
-0.0686537
11
1.04756
21
-0.0690433
0
LINE
8
BLACK
6
CONTINUOUS
10
1.04756
20
-0.0690433
11
1.04657
21
-0.0693357
0
LINE
8
BLACK
6
CONTINUOUS
10
1.04657
20
-0.0693357
11
1.0464
21
-0.0692947
0
LINE
8
BLACK
6
CONTINUOUS
10
1.0464
20
-0.0692947
11
1.04624
21
-0.0693551
0
LINE
8
BLACK
6
CONTINUOUS
10
1.04624
20
-0.0693551
11
1.03686
21
-0.0693551
0
LINE
8
BLACK
6
CONTINUOUS
10
1.03686
20
-0.0693551
11
1.03585
21
-0.069177
0
LINE
8
BLACK
6
CONTINUOUS
10
1.03585
20
-0.069177
11
1.03572
21
-0.0690635
0
LINE
8
BLACK
6
CONTINUOUS
10
1.03572
20
-0.0690635
11
1.03554
21
-0.0690433
0
LINE
8
BLACK
6
CONTINUOUS
10
1.03554
20
-0.0690433
11
1.03179
21
-0.0671686
0
LINE
8
BLACK
6
CONTINUOUS
10
1.03179
20
-0.0671686
11
1.03097
21
-0.0665577
0
LINE
8
BLACK
6
CONTINUOUS
10
1.03097
20
-0.0665577
11
1.03079
21
-0.066152
0
LINE
8
BLACK
6
CONTINUOUS
10
1.03079
20
-0.066152
11
1.03047
21
-0.0658481
0
LINE
8
BLACK
6
CONTINUOUS
10
1.03047
20
-0.0658481
11
1.0286
21
-0.0620985
0
LINE
8
BLACK
6
CONTINUOUS
10
1.0286
20
-0.0620985
11
1.02831
21
-0.0611156
0
LINE
8
BLACK
6
CONTINUOUS
10
1.02831
20
-0.0611156
11
1.02835
21
-0.0609438
0
LINE
8
BLACK
6
CONTINUOUS
10
1.02835
20
-0.0609438
11
1.02829
21
-0.060778
0
LINE
8
BLACK
6
CONTINUOUS
10
1.02829
20
-0.060778
11
1.02829
21
-0.0570285
0
LINE
8
BLACK
6
CONTINUOUS
10
1.02829
20
-0.0570285
11
1.02846
21
-0.0560185
0
LINE
8
BLACK
6
CONTINUOUS
10
1.02846
20
-0.0560185
11
1.02858
21
-0.0558833
0
LINE
8
BLACK
6
CONTINUOUS
10
1.02858
20
-0.0558833
11
1.0286
21
-0.055708
0
LINE
8
BLACK
6
CONTINUOUS
10
1.0286
20
-0.055708
11
1.03047
21
-0.0519584
0
LINE
8
BLACK
6
CONTINUOUS
10
1.03047
20
-0.0519584
11
1.03108
21
-0.0511348
0
LINE
8
BLACK
6
CONTINUOUS
10
1.03108
20
-0.0511348
11
1.03149
21
-0.0509589
0
LINE
8
BLACK
6
CONTINUOUS
10
1.03149
20
-0.0509589
11
1.03179
21
-0.0506379
0
LINE
8
BLACK
6
CONTINUOUS
10
1.03179
20
-0.0506379
11
1.03554
21
-0.0487631
0
LINE
8
BLACK
6
CONTINUOUS
10
1.03554
20
-0.0487631
11
1.03653
21
-0.0484708
0
LINE
8
BLACK
6
CONTINUOUS
10
1.03653
20
-0.0484708
11
1.0367
21
-0.0485118
0
LINE
8
BLACK
6
CONTINUOUS
10
1.0367
20
-0.0485118
11
1.03686
21
-0.0484514
0
LINE
8
BLACK
6
CONTINUOUS
10
1.03686
20
-0.0484514
11
1.04554
21
-0.0484514
0
LINE
8
BLACK
6
CONTINUOUS
10
1.04554
20
-0.0484514
11
1.04703
21
-0.0477045
0
LINE
8
BLACK
6
CONTINUOUS
10
1.04703
20
-0.0477045
11
1.04703
21
-0.0464769
0
LINE
8
BLACK
6
CONTINUOUS
10
1.04703
20
-0.0464769
11
1.04591
21
-0.0442312
0
LINE
8
BLACK
6
CONTINUOUS
10
1.04591
20
-0.0442312
11
1.04367
21
-0.0431083
0
LINE
8
BLACK
6
CONTINUOUS
10
1.04367
20
-0.0431083
11
1.03756
21
-0.0431083
0
LINE
8
BLACK
6
CONTINUOUS
10
1.03756
20
-0.0431083
11
1.03443
21
-0.0446714
0
LINE
8
BLACK
6
CONTINUOUS
10
1.03443
20
-0.0446714
11
1.03345
21
-0.0449637
0
LINE
8
BLACK
6
CONTINUOUS
10
1.03345
20
-0.0449637
11
1.03149
21
-0.0444944
0
LINE
8
BLACK
6
CONTINUOUS
10
1.03149
20
-0.0444944
11
1.03028
21
-0.0428722
0
LINE
8
BLACK
6
CONTINUOUS
10
1.03028
20
-0.0428722
11
1.0304
21
-0.040856
0
LINE
8
BLACK
6
CONTINUOUS
10
1.0304
20
-0.040856
11
1.03179
21
-0.0393893
0
LINE
8
BLACK
6
CONTINUOUS
10
1.03179
20
-0.0393893
11
1.03554
21
-0.0375146
0
LINE
8
BLACK
6
CONTINUOUS
10
1.03554
20
-0.0375146
11
1.03653
21
-0.0372222
0
LINE
8
BLACK
6
CONTINUOUS
10
1.03653
20
-0.0372222
11
1.0367
21
-0.0372632
0
LINE
8
BLACK
6
CONTINUOUS
10
1.0367
20
-0.0372632
11
1.03686
21
-0.0372028
0
LINE
8
BLACK
6
CONTINUOUS
10
1.03686
20
-0.0372028
11
1.04436
21
-0.0372028
0
LINE
8
BLACK
6
CONTINUOUS
10
1.04436
20
-0.0372028
11
1.04537
21
-0.0373809
0
LINE
8
BLACK
6
CONTINUOUS
10
1.04657
20
-0.0543376
11
1.0464
21
-0.0542965
0
LINE
8
BLACK
6
CONTINUOUS
10
1.0464
20
-0.0542965
11
1.04624
21
-0.0543569
0
LINE
8
BLACK
6
CONTINUOUS
10
1.04624
20
-0.0543569
11
1.03756
21
-0.0543569
0
LINE
8
BLACK
6
CONTINUOUS
10
1.03756
20
-0.0543569
11
1.03531
21
-0.0554798
0
LINE
8
BLACK
6
CONTINUOUS
10
1.03531
20
-0.0554798
11
1.03419
21
-0.0577255
0
LINE
8
BLACK
6
CONTINUOUS
10
1.03419
20
-0.0577255
11
1.03419
21
-0.0600809
0
LINE
8
BLACK
6
CONTINUOUS
10
1.03419
20
-0.0600809
11
1.03531
21
-0.0623267
0
LINE
8
BLACK
6
CONTINUOUS
10
1.03531
20
-0.0623267
11
1.03756
21
-0.0634496
0
LINE
8
BLACK
6
CONTINUOUS
10
1.03756
20
-0.0634496
11
1.04554
21
-0.0634496
0
LINE
8
BLACK
6
CONTINUOUS
10
1.04554
20
-0.0634496
11
1.04703
21
-0.0627026
0
LINE
8
BLACK
6
CONTINUOUS
10
1.04703
20
-0.0627026
11
1.04703
21
-0.0542009
0
LINE
8
BLACK
6
CONTINUOUS
10
1.04703
20
-0.0542009
11
1.04657
21
-0.0543376
0
LINE
8
BLACK
6
CONTINUOUS
10
1.071
20
-0.0251343
11
1.07169
21
-0.0270322
0
LINE
8
BLACK
6
CONTINUOUS
10
1.07169
20
-0.0270322
11
1.07169
21
-0.0372028
0
LINE
8
BLACK
6
CONTINUOUS
10
1.07169
20
-0.0372028
11
1.07811
21
-0.0372028
0
LINE
8
BLACK
6
CONTINUOUS
10
1.07811
20
-0.0372028
11
1.07912
21
-0.0373809
0
LINE
8
BLACK
6
CONTINUOUS
10
1.07912
20
-0.0373809
11
1.08067
21
-0.0386792
0
LINE
8
BLACK
6
CONTINUOUS
10
1.08067
20
-0.0386792
11
1.08102
21
-0.0406683
0
LINE
8
BLACK
6
CONTINUOUS
10
1.08102
20
-0.0406683
11
1.08001
21
-0.0424175
0
LINE
8
BLACK
6
CONTINUOUS
10
1.08001
20
-0.0424175
11
1.07811
21
-0.0431083
0
LINE
8
BLACK
6
CONTINUOUS
10
1.07811
20
-0.0431083
11
1.07169
21
-0.0431083
0
LINE
8
BLACK
6
CONTINUOUS
10
1.07169
20
-0.0431083
11
1.07169
21
-0.0600809
0
LINE
8
BLACK
6
CONTINUOUS
10
1.07169
20
-0.0600809
11
1.07281
21
-0.0623267
0
LINE
8
BLACK
6
CONTINUOUS
10
1.07281
20
-0.0623267
11
1.07506
21
-0.0634496
0
LINE
8
BLACK
6
CONTINUOUS
10
1.07506
20
-0.0634496
11
1.07811
21
-0.0634496
0
LINE
8
BLACK
6
CONTINUOUS
10
1.07811
20
-0.0634496
11
1.07912
21
-0.0636276
0
LINE
8
BLACK
6
CONTINUOUS
10
1.07912
20
-0.0636276
11
1.08067
21
-0.0649259
0
LINE
8
BLACK
6
CONTINUOUS
10
1.08067
20
-0.0649259
11
1.08102
21
-0.0669151
0
LINE
8
BLACK
6
CONTINUOUS
10
1.08102
20
-0.0669151
11
1.08001
21
-0.0686643
0
LINE
8
BLACK
6
CONTINUOUS
10
1.08001
20
-0.0686643
11
1.07811
21
-0.0693551
0
LINE
8
BLACK
6
CONTINUOUS
10
1.07811
20
-0.0693551
11
1.07436
21
-0.0693551
0
LINE
8
BLACK
6
CONTINUOUS
10
1.07436
20
-0.0693551
11
1.07335
21
-0.069177
0
LINE
8
BLACK
6
CONTINUOUS
10
1.07335
20
-0.069177
11
1.07321
21
-0.0690635
0
LINE
8
BLACK
6
CONTINUOUS
10
1.07321
20
-0.0690635
11
1.07304
21
-0.0690433
0
LINE
8
BLACK
6
CONTINUOUS
10
1.07304
20
-0.0690433
11
1.06929
21
-0.0671686
0
LINE
8
BLACK
6
CONTINUOUS
10
1.06929
20
-0.0671686
11
1.06847
21
-0.0665577
0
LINE
8
BLACK
6
CONTINUOUS
10
1.06847
20
-0.0665577
11
1.06829
21
-0.066152
0
LINE
8
BLACK
6
CONTINUOUS
10
1.06829
20
-0.066152
11
1.06797
21
-0.0658481
0
LINE
8
BLACK
6
CONTINUOUS
10
1.06797
20
-0.0658481
11
1.06609
21
-0.0620985
0
LINE
8
BLACK
6
CONTINUOUS
10
1.06609
20
-0.0620985
11
1.0658
21
-0.0611156
0
LINE
8
BLACK
6
CONTINUOUS
10
1.0658
20
-0.0611156
11
1.06584
21
-0.0609438
0
LINE
8
BLACK
6
CONTINUOUS
10
1.06584
20
-0.0609438
11
1.06578
21
-0.060778
0
LINE
8
BLACK
6
CONTINUOUS
10
1.06578
20
-0.060778
11
1.06578
21
-0.0431083
0
LINE
8
BLACK
6
CONTINUOUS
10
1.06578
20
-0.0431083
11
1.06311
21
-0.0431083
0
LINE
8
BLACK
6
CONTINUOUS
10
1.06311
20
-0.0431083
11
1.0621
21
-0.0429303
0
LINE
8
BLACK
6
CONTINUOUS
10
1.0621
20
-0.0429303
11
1.06055
21
-0.041632
0
LINE
8
BLACK
6
CONTINUOUS
10
1.06055
20
-0.041632
11
1.0602
21
-0.0396428
0
LINE
8
BLACK
6
CONTINUOUS
10
1.0602
20
-0.0396428
11
1.06121
21
-0.0378937
0
LINE
8
BLACK
6
CONTINUOUS
10
1.06121
20
-0.0378937
11
1.06311
21
-0.0372028
0
LINE
8
BLACK
6
CONTINUOUS
10
1.06311
20
-0.0372028
11
1.06578
21
-0.0372028
0
LINE
8
BLACK
6
CONTINUOUS
10
1.06578
20
-0.0372028
11
1.06578
21
-0.0270322
0
LINE
8
BLACK
6
CONTINUOUS
10
1.06578
20
-0.0270322
11
1.06596
21
-0.0260223
0
LINE
8
BLACK
6
CONTINUOUS
10
1.06596
20
-0.0260223
11
1.06726
21
-0.0244751
0
LINE
8
BLACK
6
CONTINUOUS
10
1.06726
20
-0.0244751
11
1.06925
21
-0.0241243
0
LINE
8
BLACK
6
CONTINUOUS
10
1.06925
20
-0.0241243
11
1.071
21
-0.0251343
0
LINE
8
BLACK
6
CONTINUOUS
10
1.12224
20
-0.0373809
11
1.12237
21
-0.0374944
0
LINE
8
BLACK
6
CONTINUOUS
10
1.12237
20
-0.0374944
11
1.12255
21
-0.0375146
0
LINE
8
BLACK
6
CONTINUOUS
10
1.12255
20
-0.0375146
11
1.1263
21
-0.0393893
0
LINE
8
BLACK
6
CONTINUOUS
10
1.1263
20
-0.0393893
11
1.12701
21
-0.0399152
0
LINE
8
BLACK
6
CONTINUOUS
10
1.12701
20
-0.0399152
11
1.12707
21
-0.0399424
0
LINE
8
BLACK
6
CONTINUOUS
10
1.12707
20
-0.0399424
11
1.12894
21
-0.0418172
0
LINE
8
BLACK
6
CONTINUOUS
10
1.12894
20
-0.0418172
11
1.12945
21
-0.0425403
0
LINE
8
BLACK
6
CONTINUOUS
10
1.12945
20
-0.0425403
11
1.12949
21
-0.0425846
0
LINE
8
BLACK
6
CONTINUOUS
10
1.12949
20
-0.0425846
11
1.13137
21
-0.0463341
0
LINE
8
BLACK
6
CONTINUOUS
10
1.13137
20
-0.0463341
11
1.13166
21
-0.047317
0
LINE
8
BLACK
6
CONTINUOUS
10
1.13166
20
-0.047317
11
1.13162
21
-0.0474887
0
LINE
8
BLACK
6
CONTINUOUS
10
1.13162
20
-0.0474887
11
1.13168
21
-0.0476546
0
LINE
8
BLACK
6
CONTINUOUS
10
1.13168
20
-0.0476546
11
1.13168
21
-0.0589032
0
LINE
8
BLACK
6
CONTINUOUS
10
1.13168
20
-0.0589032
11
1.1315
21
-0.0599131
0
LINE
8
BLACK
6
CONTINUOUS
10
1.1315
20
-0.0599131
11
1.13139
21
-0.0600484
0
LINE
8
BLACK
6
CONTINUOUS
10
1.13139
20
-0.0600484
11
1.13137
21
-0.0602237
0
LINE
8
BLACK
6
CONTINUOUS
10
1.13137
20
-0.0602237
11
1.12949
21
-0.0639733
0
LINE
8
BLACK
6
CONTINUOUS
10
1.12949
20
-0.0639733
11
1.12897
21
-0.0646823
0
LINE
8
BLACK
6
CONTINUOUS
10
1.12897
20
-0.0646823
11
1.12894
21
-0.0647407
0
LINE
8
BLACK
6
CONTINUOUS
10
1.12894
20
-0.0647407
11
1.12707
21
-0.0666154
0
LINE
8
BLACK
6
CONTINUOUS
10
1.12707
20
-0.0666154
11
1.12634
21
-0.0671218
0
LINE
8
BLACK
6
CONTINUOUS
10
1.12634
20
-0.0671218
11
1.1263
21
-0.0671686
0
LINE
8
BLACK
6
CONTINUOUS
10
1.1263
20
-0.0671686
11
1.12255
21
-0.0690433
0
LINE
8
BLACK
6
CONTINUOUS
10
1.12255
20
-0.0690433
11
1.12157
21
-0.0693357
0
LINE
8
BLACK
6
CONTINUOUS
10
1.12157
20
-0.0693357
11
1.12139
21
-0.0692947
0
LINE
8
BLACK
6
CONTINUOUS
10
1.12139
20
-0.0692947
11
1.12123
21
-0.0693551
0
LINE
8
BLACK
6
CONTINUOUS
10
1.12123
20
-0.0693551
11
1.1156
21
-0.0693551
0
LINE
8
BLACK
6
CONTINUOUS
10
1.1156
20
-0.0693551
11
1.11459
21
-0.069177
0
LINE
8
BLACK
6
CONTINUOUS
10
1.11459
20
-0.069177
11
1.11446
21
-0.0690635
0
LINE
8
BLACK
6
CONTINUOUS
10
1.11446
20
-0.0690635
11
1.11428
21
-0.0690433
0
LINE
8
BLACK
6
CONTINUOUS
10
1.11428
20
-0.0690433
11
1.11053
21
-0.0671686
0
LINE
8
BLACK
6
CONTINUOUS
10
1.11053
20
-0.0671686
11
1.10982
21
-0.0666426
0
LINE
8
BLACK
6
CONTINUOUS
10
1.10982
20
-0.0666426
11
1.10977
21
-0.0666154
0
LINE
8
BLACK
6
CONTINUOUS
10
1.10977
20
-0.0666154
11
1.10789
21
-0.0647406
0
LINE
8
BLACK
6
CONTINUOUS
10
1.10789
20
-0.0647406
11
1.10739
21
-0.0640176
0
LINE
8
BLACK
6
CONTINUOUS
10
1.10739
20
-0.0640176
11
1.10734
21
-0.0639733
0
LINE
8
BLACK
6
CONTINUOUS
10
1.10734
20
-0.0639733
11
1.10546
21
-0.0602237
0
LINE
8
BLACK
6
CONTINUOUS
10
1.10546
20
-0.0602237
11
1.10517
21
-0.0592408
0
LINE
8
BLACK
6
CONTINUOUS
10
1.10517
20
-0.0592408
11
1.10521
21
-0.0590691
0
LINE
8
BLACK
6
CONTINUOUS
10
1.10521
20
-0.0590691
11
1.10515
21
-0.0589032
0
LINE
8
BLACK
6
CONTINUOUS
10
1.10515
20
-0.0589032
11
1.10515
21
-0.0476546
0
LINE
8
BLACK
6
CONTINUOUS
10
1.10515
20
-0.0476546
11
1.10533
21
-0.0466447
0
LINE
8
BLACK
6
CONTINUOUS
10
1.10533
20
-0.0466447
11
1.10544
21
-0.0465094
0
LINE
8
BLACK
6
CONTINUOUS
10
1.10544
20
-0.0465094
11
1.10546
21
-0.0463341
0
LINE
8
BLACK
6
CONTINUOUS
10
1.10546
20
-0.0463341
11
1.10734
21
-0.0425846
0
LINE
8
BLACK
6
CONTINUOUS
10
1.10734
20
-0.0425846
11
1.10786
21
-0.0418755
0
LINE
8
BLACK
6
CONTINUOUS
10
1.10786
20
-0.0418755
11
1.10789
21
-0.0418172
0
LINE
8
BLACK
6
CONTINUOUS
10
1.10789
20
-0.0418172
11
1.10977
21
-0.0399424
0
LINE
8
BLACK
6
CONTINUOUS
10
1.10977
20
-0.0399424
11
1.11049
21
-0.0394361
0
LINE
8
BLACK
6
CONTINUOUS
10
1.11049
20
-0.0394361
11
1.11053
21
-0.0393893
0
LINE
8
BLACK
6
CONTINUOUS
10
1.11053
20
-0.0393893
11
1.11428
21
-0.0375146
0
LINE
8
BLACK
6
CONTINUOUS
10
1.11428
20
-0.0375146
11
1.11527
21
-0.0372222
0
LINE
8
BLACK
6
CONTINUOUS
10
1.11527
20
-0.0372222
11
1.11544
21
-0.0372632
0
LINE
8
BLACK
6
CONTINUOUS
10
1.11544
20
-0.0372632
11
1.1156
21
-0.0372028
0
LINE
8
BLACK
6
CONTINUOUS
10
1.1156
20
-0.0372028
11
1.12123
21
-0.0372028
0
LINE
8
BLACK
6
CONTINUOUS
10
1.12123
20
-0.0372028
11
1.12224
21
-0.0373809
0
LINE
8
BLACK
6
CONTINUOUS
10
1.1136
20
-0.0444571
11
1.11241
21
-0.0456542
0
LINE
8
BLACK
6
CONTINUOUS
10
1.11241
20
-0.0456542
11
1.11106
21
-0.0483517
0
LINE
8
BLACK
6
CONTINUOUS
10
1.11106
20
-0.0483517
11
1.11106
21
-0.0582062
0
LINE
8
BLACK
6
CONTINUOUS
10
1.11106
20
-0.0582062
11
1.11241
21
-0.0609037
0
LINE
8
BLACK
6
CONTINUOUS
10
1.11241
20
-0.0609037
11
1.1136
21
-0.0621008
0
LINE
8
BLACK
6
CONTINUOUS
10
1.1136
20
-0.0621008
11
1.1163
21
-0.0634496
0
LINE
8
BLACK
6
CONTINUOUS
10
1.1163
20
-0.0634496
11
1.12053
21
-0.0634496
0
LINE
8
BLACK
6
CONTINUOUS
10
1.12053
20
-0.0634496
11
1.12323
21
-0.0621008
0
LINE
8
BLACK
6
CONTINUOUS
10
1.12323
20
-0.0621008
11
1.12443
21
-0.0609037
0
LINE
8
BLACK
6
CONTINUOUS
10
1.12443
20
-0.0609037
11
1.12577
21
-0.0582062
0
LINE
8
BLACK
6
CONTINUOUS
10
1.12577
20
-0.0582062
11
1.12577
21
-0.0483517
0
LINE
8
BLACK
6
CONTINUOUS
10
1.12577
20
-0.0483517
11
1.12443
21
-0.0456542
0
LINE
8
BLACK
6
CONTINUOUS
10
1.12443
20
-0.0456542
11
1.12323
21
-0.0444571
0
LINE
8
BLACK
6
CONTINUOUS
10
1.12323
20
-0.0444571
11
1.12053
21
-0.0431083
0
LINE
8
BLACK
6
CONTINUOUS
10
1.12053
20
-0.0431083
11
1.1163
21
-0.0431083
0
LINE
8
BLACK
6
CONTINUOUS
10
1.1163
20
-0.0431083
11
1.1136
21
-0.0444571
0
LINE
8
BLACK
6
CONTINUOUS
10
0.752286
20
-0.0251343
11
0.752977
21
-0.0270322
0
LINE
8
BLACK
6
CONTINUOUS
10
0.752977
20
-0.0270322
11
0.752977
21
-0.0664023
0
LINE
8
BLACK
6
CONTINUOUS
10
0.752977
20
-0.0664023
11
0.752799
21
-0.0674122
0
LINE
8
BLACK
6
CONTINUOUS
10
0.752799
20
-0.0674122
11
0.751501
21
-0.0689595
0
LINE
8
BLACK
6
CONTINUOUS
10
0.751501
20
-0.0689595
11
0.749512
21
-0.0693102
0
LINE
8
BLACK
6
CONTINUOUS
10
0.749512
20
-0.0693102
11
0.747762
21
-0.0683003
0
LINE
8
BLACK
6
CONTINUOUS
10
0.747762
20
-0.0683003
11
0.747072
21
-0.0664023
0
LINE
8
BLACK
6
CONTINUOUS
10
0.747072
20
-0.0664023
11
0.747072
21
-0.0487326
0
LINE
8
BLACK
6
CONTINUOUS
10
0.747072
20
-0.0487326
11
0.73048
21
-0.0487326
0
LINE
8
BLACK
6
CONTINUOUS
10
0.73048
20
-0.0487326
11
0.73048
21
-0.0664023
0
LINE
8
BLACK
6
CONTINUOUS
10
0.73048
20
-0.0664023
11
0.730302
21
-0.0674122
0
LINE
8
BLACK
6
CONTINUOUS
10
0.730302
20
-0.0674122
11
0.729004
21
-0.0689595
0
LINE
8
BLACK
6
CONTINUOUS
10
0.729004
20
-0.0689595
11
0.727014
21
-0.0693102
0
LINE
8
BLACK
6
CONTINUOUS
10
0.727014
20
-0.0693102
11
0.725265
21
-0.0683003
0
LINE
8
BLACK
6
CONTINUOUS
10
0.725265
20
-0.0683003
11
0.724574
21
-0.0664023
0
LINE
8
BLACK
6
CONTINUOUS
10
0.724574
20
-0.0664023
11
0.724574
21
-0.0270322
0
LINE
8
BLACK
6
CONTINUOUS
10
0.724574
20
-0.0270322
11
0.724752
21
-0.0260223
0
LINE
8
BLACK
6
CONTINUOUS
10
0.724752
20
-0.0260223
11
0.726051
21
-0.0244751
0
LINE
8
BLACK
6
CONTINUOUS
10
0.726051
20
-0.0244751
11
0.72804
21
-0.0241243
0
LINE
8
BLACK
6
CONTINUOUS
10
0.72804
20
-0.0241243
11
0.729789
21
-0.0251343
0
LINE
8
BLACK
6
CONTINUOUS
10
0.729789
20
-0.0251343
11
0.73048
21
-0.0270322
0
LINE
8
BLACK
6
CONTINUOUS
10
0.73048
20
-0.0270322
11
0.73048
21
-0.0428271
0
LINE
8
BLACK
6
CONTINUOUS
10
0.73048
20
-0.0428271
11
0.747072
21
-0.0428271
0
LINE
8
BLACK
6
CONTINUOUS
10
0.747072
20
-0.0428271
11
0.747072
21
-0.0270322
0
LINE
8
BLACK
6
CONTINUOUS
10
0.747072
20
-0.0270322
11
0.74725
21
-0.0260223
0
LINE
8
BLACK
6
CONTINUOUS
10
0.74725
20
-0.0260223
11
0.748548
21
-0.0244751
0
LINE
8
BLACK
6
CONTINUOUS
10
0.748548
20
-0.0244751
11
0.750537
21
-0.0241243
0
LINE
8
BLACK
6
CONTINUOUS
10
0.750537
20
-0.0241243
11
0.752286
21
-0.0251343
0
LINE
8
BLACK
6
CONTINUOUS
10
0.892894
20
-0.0382576
11
0.893585
21
-0.0401556
0
LINE
8
BLACK
6
CONTINUOUS
10
0.893585
20
-0.0401556
11
0.893585
21
-0.0664023
0
LINE
8
BLACK
6
CONTINUOUS
10
0.893585
20
-0.0664023
11
0.893406
21
-0.0674122
0
LINE
8
BLACK
6
CONTINUOUS
10
0.893406
20
-0.0674122
11
0.892108
21
-0.0689595
0
LINE
8
BLACK
6
CONTINUOUS
10
0.892108
20
-0.0689595
11
0.890119
21
-0.0693102
0
LINE
8
BLACK
6
CONTINUOUS
10
0.890119
20
-0.0693102
11
0.88837
21
-0.0683003
0
LINE
8
BLACK
6
CONTINUOUS
10
0.88837
20
-0.0683003
11
0.887679
21
-0.0664023
0
LINE
8
BLACK
6
CONTINUOUS
10
0.887679
20
-0.0664023
11
0.887679
21
-0.0401556
0
LINE
8
BLACK
6
CONTINUOUS
10
0.887679
20
-0.0401556
11
0.887857
21
-0.0391457
0
LINE
8
BLACK
6
CONTINUOUS
10
0.887857
20
-0.0391457
11
0.889155
21
-0.0375984
0
LINE
8
BLACK
6
CONTINUOUS
10
0.889155
20
-0.0375984
11
0.891145
21
-0.0372477
0
LINE
8
BLACK
6
CONTINUOUS
10
0.891145
20
-0.0372477
11
0.892894
21
-0.0382576
0
LINE
8
BLACK
6
CONTINUOUS
10
0.921638
20
-0.0373809
11
0.921773
21
-0.0374944
0
LINE
8
BLACK
6
CONTINUOUS
10
0.921773
20
-0.0374944
11
0.921949
21
-0.0375146
0
LINE
8
BLACK
6
CONTINUOUS
10
0.921949
20
-0.0375146
11
0.925698
21
-0.0393893
0
LINE
8
BLACK
6
CONTINUOUS
10
0.925698
20
-0.0393893
11
0.926522
21
-0.0400002
0
LINE
8
BLACK
6
CONTINUOUS
10
0.926522
20
-0.0400002
11
0.926698
21
-0.0404059
0
LINE
8
BLACK
6
CONTINUOUS
10
0.926698
20
-0.0404059
11
0.927019
21
-0.0407098
0
LINE
8
BLACK
6
CONTINUOUS
10
0.927019
20
-0.0407098
11
0.928893
21
-0.0444594
0
LINE
8
BLACK
6
CONTINUOUS
10
0.928893
20
-0.0444594
11
0.929186
21
-0.0454423
0
LINE
8
BLACK
6
CONTINUOUS
10
0.929186
20
-0.0454423
11
0.929145
21
-0.045614
0
LINE
8
BLACK
6
CONTINUOUS
10
0.929145
20
-0.045614
11
0.929205
21
-0.0457799
0
LINE
8
BLACK
6
CONTINUOUS
10
0.929205
20
-0.0457799
11
0.929205
21
-0.0664023
0
LINE
8
BLACK
6
CONTINUOUS
10
0.929205
20
-0.0664023
11
0.929027
21
-0.0674122
0
LINE
8
BLACK
6
CONTINUOUS
10
0.929027
20
-0.0674122
11
0.927729
21
-0.0689595
0
LINE
8
BLACK
6
CONTINUOUS
10
0.927729
20
-0.0689595
11
0.92574
21
-0.0693102
0
LINE
8
BLACK
6
CONTINUOUS
10
0.92574
20
-0.0693102
11
0.92399
21
-0.0683003
0
LINE
8
BLACK
6
CONTINUOUS
10
0.92399
20
-0.0683003
11
0.9233
21
-0.0664023
0
LINE
8
BLACK
6
CONTINUOUS
10
0.9233
20
-0.0664023
11
0.9233
21
-0.0464769
0
LINE
8
BLACK
6
CONTINUOUS
10
0.9233
20
-0.0464769
11
0.922177
21
-0.0442312
0
LINE
8
BLACK
6
CONTINUOUS
10
0.922177
20
-0.0442312
11
0.919931
21
-0.0431083
0
LINE
8
BLACK
6
CONTINUOUS
10
0.919931
20
-0.0431083
11
0.915701
21
-0.0431083
0
LINE
8
BLACK
6
CONTINUOUS
10
0.915701
20
-0.0431083
11
0.913003
21
-0.0444571
0
LINE
8
BLACK
6
CONTINUOUS
10
0.913003
20
-0.0444571
11
0.912332
21
-0.0451282
0
LINE
8
BLACK
6
CONTINUOUS
10
0.912332
20
-0.0451282
11
0.912332
21
-0.0664023
0
LINE
8
BLACK
6
CONTINUOUS
10
0.912332
20
-0.0664023
11
0.912154
21
-0.0674122
0
LINE
8
BLACK
6
CONTINUOUS
10
0.912154
20
-0.0674122
11
0.910856
21
-0.0689595
0
LINE
8
BLACK
6
CONTINUOUS
10
0.910856
20
-0.0689595
11
0.908867
21
-0.0693102
0
LINE
8
BLACK
6
CONTINUOUS
10
0.908867
20
-0.0693102
11
0.907118
21
-0.0683003
0
LINE
8
BLACK
6
CONTINUOUS
10
0.907118
20
-0.0683003
11
0.906427
21
-0.0664023
0
LINE
8
BLACK
6
CONTINUOUS
10
0.906427
20
-0.0664023
11
0.906427
21
-0.0401556
0
LINE
8
BLACK
6
CONTINUOUS
10
0.906427
20
-0.0401556
11
0.906605
21
-0.0391457
0
LINE
8
BLACK
6
CONTINUOUS
10
0.906605
20
-0.0391457
11
0.907903
21
-0.0375984
0
LINE
8
BLACK
6
CONTINUOUS
10
0.907903
20
-0.0375984
11
0.909892
21
-0.0372477
0
LINE
8
BLACK
6
CONTINUOUS
10
0.909892
20
-0.0372477
11
0.911641
21
-0.0382576
0
LINE
8
BLACK
6
CONTINUOUS
10
0.911641
20
-0.0382576
11
0.911727
21
-0.0384927
0
LINE
8
BLACK
6
CONTINUOUS
10
0.911727
20
-0.0384927
11
0.913683
21
-0.0375146
0
LINE
8
BLACK
6
CONTINUOUS
10
0.913683
20
-0.0375146
11
0.914666
21
-0.0372222
0
LINE
8
BLACK
6
CONTINUOUS
10
0.914666
20
-0.0372222
11
0.914838
21
-0.0372632
0
LINE
8
BLACK
6
CONTINUOUS
10
0.914838
20
-0.0372632
11
0.915004
21
-0.0372028
0
LINE
8
BLACK
6
CONTINUOUS
10
0.915004
20
-0.0372028
11
0.920628
21
-0.0372028
0
LINE
8
BLACK
6
CONTINUOUS
10
0.920628
20
-0.0372028
11
0.921638
21
-0.0373809
0
LINE
8
BLACK
6
CONTINUOUS
10
1.09349
20
-0.0382576
11
1.09418
21
-0.0401556
0
LINE
8
BLACK
6
CONTINUOUS
10
1.09418
20
-0.0401556
11
1.09418
21
-0.0664023
0
LINE
8
BLACK
6
CONTINUOUS
10
1.09418
20
-0.0664023
11
1.09401
21
-0.0674122
0
LINE
8
BLACK
6
CONTINUOUS
10
1.09401
20
-0.0674122
11
1.09271
21
-0.0689595
0
LINE
8
BLACK
6
CONTINUOUS
10
1.09271
20
-0.0689595
11
1.09072
21
-0.0693102
0
LINE
8
BLACK
6
CONTINUOUS
10
1.09072
20
-0.0693102
11
1.08897
21
-0.0683003
0
LINE
8
BLACK
6
CONTINUOUS
10
1.08897
20
-0.0683003
11
1.08828
21
-0.0664023
0
LINE
8
BLACK
6
CONTINUOUS
10
1.08828
20
-0.0664023
11
1.08828
21
-0.0401556
0
LINE
8
BLACK
6
CONTINUOUS
10
1.08828
20
-0.0401556
11
1.08846
21
-0.0391457
0
LINE
8
BLACK
6
CONTINUOUS
10
1.08846
20
-0.0391457
11
1.08976
21
-0.0375984
0
LINE
8
BLACK
6
CONTINUOUS
10
1.08976
20
-0.0375984
11
1.09174
21
-0.0372477
0
LINE
8
BLACK
6
CONTINUOUS
10
1.09174
20
-0.0372477
11
1.09349
21
-0.0382576
0
LINE
8
BLACK
6
CONTINUOUS
10
1.15786
20
-0.0373809
11
1.15799
21
-0.0374944
0
LINE
8
BLACK
6
CONTINUOUS
10
1.15799
20
-0.0374944
11
1.15817
21
-0.0375146
0
LINE
8
BLACK
6
CONTINUOUS
10
1.15817
20
-0.0375146
11
1.16192
21
-0.0393893
0
LINE
8
BLACK
6
CONTINUOUS
10
1.16192
20
-0.0393893
11
1.16274
21
-0.0400002
0
LINE
8
BLACK
6
CONTINUOUS
10
1.16274
20
-0.0400002
11
1.16292
21
-0.0404059
0
LINE
8
BLACK
6
CONTINUOUS
10
1.16292
20
-0.0404059
11
1.16324
21
-0.0407098
0
LINE
8
BLACK
6
CONTINUOUS
10
1.16324
20
-0.0407098
11
1.16511
21
-0.0444594
0
LINE
8
BLACK
6
CONTINUOUS
10
1.16511
20
-0.0444594
11
1.16541
21
-0.0454423
0
LINE
8
BLACK
6
CONTINUOUS
10
1.16541
20
-0.0454423
11
1.16537
21
-0.045614
0
LINE
8
BLACK
6
CONTINUOUS
10
1.16537
20
-0.045614
11
1.16543
21
-0.0457799
0
LINE
8
BLACK
6
CONTINUOUS
10
1.16543
20
-0.0457799
11
1.16543
21
-0.0664023
0
LINE
8
BLACK
6
CONTINUOUS
10
1.16543
20
-0.0664023
11
1.16525
21
-0.0674122
0
LINE
8
BLACK
6
CONTINUOUS
10
1.16525
20
-0.0674122
11
1.16395
21
-0.0689595
0
LINE
8
BLACK
6
CONTINUOUS
10
1.16395
20
-0.0689595
11
1.16196
21
-0.0693102
0
LINE
8
BLACK
6
CONTINUOUS
10
1.16196
20
-0.0693102
11
1.16021
21
-0.0683003
0
LINE
8
BLACK
6
CONTINUOUS
10
1.16021
20
-0.0683003
11
1.15952
21
-0.0664023
0
LINE
8
BLACK
6
CONTINUOUS
10
1.15952
20
-0.0664023
11
1.15952
21
-0.0464769
0
LINE
8
BLACK
6
CONTINUOUS
10
1.15952
20
-0.0464769
11
1.1584
21
-0.0442312
0
LINE
8
BLACK
6
CONTINUOUS
10
1.1584
20
-0.0442312
11
1.15615
21
-0.0431083
0
LINE
8
BLACK
6
CONTINUOUS
10
1.15615
20
-0.0431083
11
1.15192
21
-0.0431083
0
LINE
8
BLACK
6
CONTINUOUS
10
1.15192
20
-0.0431083
11
1.14922
21
-0.0444571
0
LINE
8
BLACK
6
CONTINUOUS
10
1.14922
20
-0.0444571
11
1.14855
21
-0.0451282
0
LINE
8
BLACK
6
CONTINUOUS
10
1.14855
20
-0.0451282
11
1.14855
21
-0.0664023
0
LINE
8
BLACK
6
CONTINUOUS
10
1.14855
20
-0.0664023
11
1.14837
21
-0.0674122
0
LINE
8
BLACK
6
CONTINUOUS
10
1.14837
20
-0.0674122
11
1.14708
21
-0.0689595
0
LINE
8
BLACK
6
CONTINUOUS
10
1.14708
20
-0.0689595
11
1.14509
21
-0.0693102
0
LINE
8
BLACK
6
CONTINUOUS
10
1.14509
20
-0.0693102
11
1.14334
21
-0.0683003
0
LINE
8
BLACK
6
CONTINUOUS
10
1.14334
20
-0.0683003
11
1.14265
21
-0.0664023
0
LINE
8
BLACK
6
CONTINUOUS
10
1.14265
20
-0.0664023
11
1.14265
21
-0.0401556
0
LINE
8
BLACK
6
CONTINUOUS
10
1.14265
20
-0.0401556
11
1.14283
21
-0.0391457
0
LINE
8
BLACK
6
CONTINUOUS
10
1.14283
20
-0.0391457
11
1.14412
21
-0.0375984
0
LINE
8
BLACK
6
CONTINUOUS
10
1.14412
20
-0.0375984
11
1.14611
21
-0.0372477
0
LINE
8
BLACK
6
CONTINUOUS
10
1.14611
20
-0.0372477
11
1.14786
21
-0.0382576
0
LINE
8
BLACK
6
CONTINUOUS
10
1.14786
20
-0.0382576
11
1.14795
21
-0.0384927
0
LINE
8
BLACK
6
CONTINUOUS
10
1.14795
20
-0.0384927
11
1.1499
21
-0.0375146
0
LINE
8
BLACK
6
CONTINUOUS
10
1.1499
20
-0.0375146
11
1.15089
21
-0.0372222
0
LINE
8
BLACK
6
CONTINUOUS
10
1.15089
20
-0.0372222
11
1.15106
21
-0.0372632
0
LINE
8
BLACK
6
CONTINUOUS
10
1.15106
20
-0.0372632
11
1.15122
21
-0.0372028
0
LINE
8
BLACK
6
CONTINUOUS
10
1.15122
20
-0.0372028
11
1.15685
21
-0.0372028
0
LINE
8
BLACK
6
CONTINUOUS
10
1.15685
20
-0.0372028
11
1.15786
21
-0.0373809
0
LINE
8
BLACK
6
CONTINUOUS
10
1.01475
20
-0.0251343
11
1.01544
21
-0.0270322
0
LINE
8
BLACK
6
CONTINUOUS
10
1.01544
20
-0.0270322
11
1.01544
21
-0.0600809
0
LINE
8
BLACK
6
CONTINUOUS
10
1.01544
20
-0.0600809
11
1.01657
21
-0.0623267
0
LINE
8
BLACK
6
CONTINUOUS
10
1.01657
20
-0.0623267
11
1.01944
21
-0.0637613
0
LINE
8
BLACK
6
CONTINUOUS
10
1.01944
20
-0.0637613
11
1.02026
21
-0.0643722
0
LINE
8
BLACK
6
CONTINUOUS
10
1.02026
20
-0.0643722
11
1.02106
21
-0.0662254
0
LINE
8
BLACK
6
CONTINUOUS
10
1.02106
20
-0.0662254
11
1.02049
21
-0.0681614
0
LINE
8
BLACK
6
CONTINUOUS
10
1.02049
20
-0.0681614
11
1.0188
21
-0.0692743
0
LINE
8
BLACK
6
CONTINUOUS
10
1.0188
20
-0.0692743
11
1.0168
21
-0.0690433
0
LINE
8
BLACK
6
CONTINUOUS
10
1.0168
20
-0.0690433
11
1.01305
21
-0.0671686
0
LINE
8
BLACK
6
CONTINUOUS
10
1.01305
20
-0.0671686
11
1.01222
21
-0.0665577
0
LINE
8
BLACK
6
CONTINUOUS
10
1.01222
20
-0.0665577
11
1.01205
21
-0.066152
0
LINE
8
BLACK
6
CONTINUOUS
10
1.01205
20
-0.066152
11
1.01173
21
-0.0658481
0
LINE
8
BLACK
6
CONTINUOUS
10
1.01173
20
-0.0658481
11
1.00985
21
-0.0620985
0
LINE
8
BLACK
6
CONTINUOUS
10
1.00985
20
-0.0620985
11
1.00956
21
-0.0611156
0
LINE
8
BLACK
6
CONTINUOUS
10
1.00956
20
-0.0611156
11
1.0096
21
-0.0609438
0
LINE
8
BLACK
6
CONTINUOUS
10
1.0096
20
-0.0609438
11
1.00954
21
-0.060778
0
LINE
8
BLACK
6
CONTINUOUS
10
1.00954
20
-0.060778
11
1.00954
21
-0.0270322
0
LINE
8
BLACK
6
CONTINUOUS
10
1.00954
20
-0.0270322
11
1.00972
21
-0.0260223
0
LINE
8
BLACK
6
CONTINUOUS
10
1.00972
20
-0.0260223
11
1.01102
21
-0.0244751
0
LINE
8
BLACK
6
CONTINUOUS
10
1.01102
20
-0.0244751
11
1.013
21
-0.0241243
0
LINE
8
BLACK
6
CONTINUOUS
10
1.013
20
-0.0241243
11
1.01475
21
-0.0251343
0
LINE
8
BLACK
6
CONTINUOUS
10
0.891011
20
-0.0241478
11
0.891145
21
-0.0241243
0
LINE
8
BLACK
6
CONTINUOUS
10
0.891145
20
-0.0241243
11
0.891262
21
-0.0241919
0
LINE
8
BLACK
6
CONTINUOUS
10
0.891262
20
-0.0241919
11
0.891396
21
-0.0241801
0
LINE
8
BLACK
6
CONTINUOUS
10
0.891396
20
-0.0241801
11
0.892024
21
-0.0246201
0
LINE
8
BLACK
6
CONTINUOUS
10
0.892024
20
-0.0246201
11
0.89272
21
-0.0249443
0
LINE
8
BLACK
6
CONTINUOUS
10
0.89272
20
-0.0249443
11
0.894594
21
-0.0268191
0
LINE
8
BLACK
6
CONTINUOUS
10
0.894594
20
-0.0268191
11
0.894818
21
-0.0271381
0
LINE
8
BLACK
6
CONTINUOUS
10
0.894818
20
-0.0271381
11
0.894925
21
-0.0272134
0
LINE
8
BLACK
6
CONTINUOUS
10
0.894925
20
-0.0272134
11
0.894959
21
-0.0273401
0
LINE
8
BLACK
6
CONTINUOUS
10
0.894959
20
-0.0273401
11
0.895183
21
-0.0276591
0
LINE
8
BLACK
6
CONTINUOUS
10
0.895183
20
-0.0276591
11
0.89525
21
-0.0284233
0
LINE
8
BLACK
6
CONTINUOUS
10
0.89525
20
-0.0284233
11
0.895448
21
-0.0291644
0
LINE
8
BLACK
6
CONTINUOUS
10
0.895448
20
-0.0291644
11
0.895335
21
-0.0294058
0
LINE
8
BLACK
6
CONTINUOUS
10
0.895335
20
-0.0294058
11
0.895359
21
-0.0296712
0
LINE
8
BLACK
6
CONTINUOUS
10
0.895359
20
-0.0296712
11
0.894919
21
-0.0302996
0
LINE
8
BLACK
6
CONTINUOUS
10
0.894919
20
-0.0302996
11
0.894594
21
-0.0309949
0
LINE
8
BLACK
6
CONTINUOUS
10
0.894594
20
-0.0309949
11
0.89272
21
-0.0328697
0
LINE
8
BLACK
6
CONTINUOUS
10
0.89272
20
-0.0328697
11
0.892401
21
-0.0330931
0
LINE
8
BLACK
6
CONTINUOUS
10
0.892401
20
-0.0330931
11
0.892325
21
-0.0332006
0
LINE
8
BLACK
6
CONTINUOUS
10
0.892325
20
-0.0332006
11
0.892199
21
-0.0332345
0
LINE
8
BLACK
6
CONTINUOUS
10
0.892199
20
-0.0332345
11
0.892192
21
-0.0332394
0
LINE
8
BLACK
6
CONTINUOUS
10
0.892192
20
-0.0332394
11
0.892108
21
-0.0333389
0
LINE
8
BLACK
6
CONTINUOUS
10
0.892108
20
-0.0333389
11
0.89203
21
-0.0333528
0
LINE
8
BLACK
6
CONTINUOUS
10
0.89203
20
-0.0333528
11
0.89188
21
-0.0334579
0
LINE
8
BLACK
6
CONTINUOUS
10
0.89188
20
-0.0334579
11
0.891115
21
-0.0335247
0
LINE
8
BLACK
6
CONTINUOUS
10
0.891115
20
-0.0335247
11
0.890374
21
-0.0337233
0
LINE
8
BLACK
6
CONTINUOUS
10
0.890374
20
-0.0337233
11
0.890252
21
-0.0336662
0
LINE
8
BLACK
6
CONTINUOUS
10
0.890252
20
-0.0336662
11
0.890119
21
-0.0336897
0
LINE
8
BLACK
6
CONTINUOUS
10
0.890119
20
-0.0336897
11
0.890002
21
-0.0336222
0
LINE
8
BLACK
6
CONTINUOUS
10
0.890002
20
-0.0336222
11
0.889868
21
-0.0336339
0
LINE
8
BLACK
6
CONTINUOUS
10
0.889868
20
-0.0336339
11
0.889239
21
-0.0331938
0
LINE
8
BLACK
6
CONTINUOUS
10
0.889239
20
-0.0331938
11
0.888544
21
-0.0328697
0
LINE
8
BLACK
6
CONTINUOUS
10
0.888544
20
-0.0328697
11
0.886669
21
-0.0309949
0
LINE
8
BLACK
6
CONTINUOUS
10
0.886669
20
-0.0309949
11
0.886446
21
-0.0306759
0
LINE
8
BLACK
6
CONTINUOUS
10
0.886446
20
-0.0306759
11
0.886338
21
-0.0306006
0
LINE
8
BLACK
6
CONTINUOUS
10
0.886338
20
-0.0306006
11
0.886304
21
-0.0304739
0
LINE
8
BLACK
6
CONTINUOUS
10
0.886304
20
-0.0304739
11
0.886081
21
-0.0301549
0
LINE
8
BLACK
6
CONTINUOUS
10
0.886081
20
-0.0301549
11
0.886014
21
-0.0293906
0
LINE
8
BLACK
6
CONTINUOUS
10
0.886014
20
-0.0293906
11
0.885816
21
-0.0286497
0
LINE
8
BLACK
6
CONTINUOUS
10
0.885816
20
-0.0286497
11
0.885928
21
-0.0284083
0
LINE
8
BLACK
6
CONTINUOUS
10
0.885928
20
-0.0284083
11
0.885905
21
-0.0281428
0
LINE
8
BLACK
6
CONTINUOUS
10
0.885905
20
-0.0281428
11
0.886345
21
-0.0275143
0
LINE
8
BLACK
6
CONTINUOUS
10
0.886345
20
-0.0275143
11
0.886669
21
-0.0268191
0
LINE
8
BLACK
6
CONTINUOUS
10
0.886669
20
-0.0268191
11
0.888544
21
-0.0249443
0
LINE
8
BLACK
6
CONTINUOUS
10
0.888544
20
-0.0249443
11
0.888863
21
-0.0247209
0
LINE
8
BLACK
6
CONTINUOUS
10
0.888863
20
-0.0247209
11
0.888938
21
-0.0246135
0
LINE
8
BLACK
6
CONTINUOUS
10
0.888938
20
-0.0246135
11
0.889065
21
-0.0245795
0
LINE
8
BLACK
6
CONTINUOUS
10
0.889065
20
-0.0245795
11
0.889072
21
-0.0245746
0
LINE
8
BLACK
6
CONTINUOUS
10
0.889072
20
-0.0245746
11
0.889155
21
-0.0244751
0
LINE
8
BLACK
6
CONTINUOUS
10
0.889155
20
-0.0244751
11
0.889234
21
-0.0244612
0
LINE
8
BLACK
6
CONTINUOUS
10
0.889234
20
-0.0244612
11
0.889384
21
-0.0243561
0
LINE
8
BLACK
6
CONTINUOUS
10
0.889384
20
-0.0243561
11
0.890148
21
-0.0242893
0
LINE
8
BLACK
6
CONTINUOUS
10
0.890148
20
-0.0242893
11
0.890889
21
-0.0240907
0
LINE
8
BLACK
6
CONTINUOUS
10
0.890889
20
-0.0240907
11
0.891011
21
-0.0241478
0
LINE
8
BLACK
6
CONTINUOUS
10
1.09161
20
-0.0241478
11
1.09174
21
-0.0241243
0
LINE
8
BLACK
6
CONTINUOUS
10
1.09174
20
-0.0241243
11
1.09186
21
-0.0241919
0
LINE
8
BLACK
6
CONTINUOUS
10
1.09186
20
-0.0241919
11
1.092
21
-0.0241801
0
LINE
8
BLACK
6
CONTINUOUS
10
1.092
20
-0.0241801
11
1.09262
21
-0.0246201
0
LINE
8
BLACK
6
CONTINUOUS
10
1.09262
20
-0.0246201
11
1.09332
21
-0.0249443
0
LINE
8
BLACK
6
CONTINUOUS
10
1.09332
20
-0.0249443
11
1.09519
21
-0.0268191
0
LINE
8
BLACK
6
CONTINUOUS
10
1.09519
20
-0.0268191
11
1.09542
21
-0.0271381
0
LINE
8
BLACK
6
CONTINUOUS
10
1.09542
20
-0.0271381
11
1.09553
21
-0.0272134
0
LINE
8
BLACK
6
CONTINUOUS
10
1.09553
20
-0.0272134
11
1.09556
21
-0.0273401
0
LINE
8
BLACK
6
CONTINUOUS
10
1.09556
20
-0.0273401
11
1.09578
21
-0.0276591
0
LINE
8
BLACK
6
CONTINUOUS
10
1.09578
20
-0.0276591
11
1.09585
21
-0.0284233
0
LINE
8
BLACK
6
CONTINUOUS
10
1.09585
20
-0.0284233
11
1.09605
21
-0.0291644
0
LINE
8
BLACK
6
CONTINUOUS
10
1.09605
20
-0.0291644
11
1.09594
21
-0.0294058
0
LINE
8
BLACK
6
CONTINUOUS
10
1.09594
20
-0.0294058
11
1.09596
21
-0.0296712
0
LINE
8
BLACK
6
CONTINUOUS
10
1.09596
20
-0.0296712
11
1.09552
21
-0.0302996
0
LINE
8
BLACK
6
CONTINUOUS
10
1.09552
20
-0.0302996
11
1.09519
21
-0.0309949
0
LINE
8
BLACK
6
CONTINUOUS
10
1.09519
20
-0.0309949
11
1.09332
21
-0.0328697
0
LINE
8
BLACK
6
CONTINUOUS
10
1.09332
20
-0.0328697
11
1.093
21
-0.0330931
0
LINE
8
BLACK
6
CONTINUOUS
10
1.093
20
-0.0330931
11
1.09293
21
-0.0332006
0
LINE
8
BLACK
6
CONTINUOUS
10
1.09293
20
-0.0332006
11
1.0928
21
-0.0332345
0
LINE
8
BLACK
6
CONTINUOUS
10
1.0928
20
-0.0332345
11
1.09279
21
-0.0332394
0
LINE
8
BLACK
6
CONTINUOUS
10
1.09279
20
-0.0332394
11
1.09271
21
-0.0333389
0
LINE
8
BLACK
6
CONTINUOUS
10
1.09271
20
-0.0333389
11
1.09263
21
-0.0333528
0
LINE
8
BLACK
6
CONTINUOUS
10
1.09263
20
-0.0333528
11
1.09248
21
-0.0334579
0
LINE
8
BLACK
6
CONTINUOUS
10
1.09248
20
-0.0334579
11
1.09172
21
-0.0335247
0
LINE
8
BLACK
6
CONTINUOUS
10
1.09172
20
-0.0335247
11
1.09097
21
-0.0337233
0
LINE
8
BLACK
6
CONTINUOUS
10
1.09097
20
-0.0337233
11
1.09085
21
-0.0336662
0
LINE
8
BLACK
6
CONTINUOUS
10
1.09085
20
-0.0336662
11
1.09072
21
-0.0336897
0
LINE
8
BLACK
6
CONTINUOUS
10
1.09072
20
-0.0336897
11
1.0906
21
-0.0336222
0
LINE
8
BLACK
6
CONTINUOUS
10
1.0906
20
-0.0336222
11
1.09047
21
-0.0336339
0
LINE
8
BLACK
6
CONTINUOUS
10
1.09047
20
-0.0336339
11
1.08984
21
-0.0331938
0
LINE
8
BLACK
6
CONTINUOUS
10
1.08984
20
-0.0331938
11
1.08914
21
-0.0328697
0
LINE
8
BLACK
6
CONTINUOUS
10
1.08914
20
-0.0328697
11
1.08727
21
-0.0309949
0
LINE
8
BLACK
6
CONTINUOUS
10
1.08727
20
-0.0309949
11
1.08705
21
-0.0306759
0
LINE
8
BLACK
6
CONTINUOUS
10
1.08705
20
-0.0306759
11
1.08694
21
-0.0306006
0
LINE
8
BLACK
6
CONTINUOUS
10
1.08694
20
-0.0306006
11
1.0869
21
-0.0304739
0
LINE
8
BLACK
6
CONTINUOUS
10
1.0869
20
-0.0304739
11
1.08668
21
-0.0301549
0
LINE
8
BLACK
6
CONTINUOUS
10
1.08668
20
-0.0301549
11
1.08661
21
-0.0293906
0
LINE
8
BLACK
6
CONTINUOUS
10
1.08661
20
-0.0293906
11
1.08642
21
-0.0286497
0
LINE
8
BLACK
6
CONTINUOUS
10
1.08642
20
-0.0286497
11
1.08653
21
-0.0284083
0
LINE
8
BLACK
6
CONTINUOUS
10
1.08653
20
-0.0284083
11
1.0865
21
-0.0281428
0
LINE
8
BLACK
6
CONTINUOUS
10
1.0865
20
-0.0281428
11
1.08694
21
-0.0275143
0
LINE
8
BLACK
6
CONTINUOUS
10
1.08694
20
-0.0275143
11
1.08727
21
-0.0268191
0
LINE
8
BLACK
6
CONTINUOUS
10
1.08727
20
-0.0268191
11
1.08914
21
-0.0249443
0
LINE
8
BLACK
6
CONTINUOUS
10
1.08914
20
-0.0249443
11
1.08946
21
-0.0247209
0
LINE
8
BLACK
6
CONTINUOUS
10
1.08946
20
-0.0247209
11
1.08954
21
-0.0246135
0
LINE
8
BLACK
6
CONTINUOUS
10
1.08954
20
-0.0246135
11
1.08966
21
-0.0245795
0
LINE
8
BLACK
6
CONTINUOUS
10
1.08966
20
-0.0245795
11
1.08967
21
-0.0245746
0
LINE
8
BLACK
6
CONTINUOUS
10
1.08967
20
-0.0245746
11
1.08976
21
-0.0244751
0
LINE
8
BLACK
6
CONTINUOUS
10
1.08976
20
-0.0244751
11
1.08983
21
-0.0244612
0
LINE
8
BLACK
6
CONTINUOUS
10
1.08983
20
-0.0244612
11
1.08998
21
-0.0243561
0
LINE
8
BLACK
6
CONTINUOUS
10
1.08998
20
-0.0243561
11
1.09075
21
-0.0242893
0
LINE
8
BLACK
6
CONTINUOUS
10
1.09075
20
-0.0242893
11
1.09149
21
-0.0240907
0
LINE
8
BLACK
6
CONTINUOUS
10
1.09149
20
-0.0240907
11
1.09161
21
-0.0241478
0
LINE
8
BLACK
6
CONTINUOUS
10
0.428987
20
0.100665
11
0.42978
21
0.0988077
0
LINE
8
BLACK
6
CONTINUOUS
10
0.42978
20
0.0988077
11
0.429194
21
0.0968748
0
LINE
8
BLACK
6
CONTINUOUS
10
0.429194
20
0.0968748
11
0.413857
21
0.0764263
0
LINE
8
BLACK
6
CONTINUOUS
10
0.413857
20
0.0764263
11
0.42892
21
0.0613643
0
LINE
8
BLACK
6
CONTINUOUS
10
0.42892
20
0.0613643
11
0.429508
21
0.0605243
0
LINE
8
BLACK
6
CONTINUOUS
10
0.429508
20
0.0605243
11
0.429684
21
0.0585122
0
LINE
8
BLACK
6
CONTINUOUS
10
0.429684
20
0.0585122
11
0.428525
21
0.0568576
0
LINE
8
BLACK
6
CONTINUOUS
10
0.428525
20
0.0568576
11
0.426574
21
0.0563349
0
LINE
8
BLACK
6
CONTINUOUS
10
0.426574
20
0.0563349
11
0.424744
21
0.0571885
0
LINE
8
BLACK
6
CONTINUOUS
10
0.424744
20
0.0571885
11
0.407287
21
0.074645
0
LINE
8
BLACK
6
CONTINUOUS
10
0.407287
20
0.074645
11
0.407287
21
0.0592764
0
LINE
8
BLACK
6
CONTINUOUS
10
0.407287
20
0.0592764
11
0.407109
21
0.0582665
0
LINE
8
BLACK
6
CONTINUOUS
10
0.407109
20
0.0582665
11
0.405811
21
0.0567192
0
LINE
8
BLACK
6
CONTINUOUS
10
0.405811
20
0.0567192
11
0.403822
21
0.0563685
0
LINE
8
BLACK
6
CONTINUOUS
10
0.403822
20
0.0563685
11
0.402073
21
0.0573784
0
LINE
8
BLACK
6
CONTINUOUS
10
0.402073
20
0.0573784
11
0.401382
21
0.0592764
0
LINE
8
BLACK
6
CONTINUOUS
10
0.401382
20
0.0592764
11
0.401382
21
0.0986465
0
LINE
8
BLACK
6
CONTINUOUS
10
0.401382
20
0.0986465
11
0.40156
21
0.0996564
0
LINE
8
BLACK
6
CONTINUOUS
10
0.40156
20
0.0996564
11
0.402858
21
0.101204
0
LINE
8
BLACK
6
CONTINUOUS
10
0.402858
20
0.101204
11
0.404847
21
0.101554
0
LINE
8
BLACK
6
CONTINUOUS
10
0.404847
20
0.101554
11
0.406596
21
0.100544
0
LINE
8
BLACK
6
CONTINUOUS
10
0.406596
20
0.100544
11
0.407287
21
0.0986465
0
LINE
8
BLACK
6
CONTINUOUS
10
0.407287
20
0.0986465
11
0.407287
21
0.0829966
0
LINE
8
BLACK
6
CONTINUOUS
10
0.407287
20
0.0829966
11
0.409639
21
0.0806446
0
LINE
8
BLACK
6
CONTINUOUS
10
0.409639
20
0.0806446
11
0.424469
21
0.100418
0
LINE
8
BLACK
6
CONTINUOUS
10
0.424469
20
0.100418
11
0.425218
21
0.101119
0
LINE
8
BLACK
6
CONTINUOUS
10
0.425218
20
0.101119
11
0.427185
21
0.101578
0
LINE
8
BLACK
6
CONTINUOUS
10
0.427185
20
0.101578
11
0.428987
21
0.100665
0
LINE
8
BLACK
6
CONTINUOUS
10
0.125527
20
0.284952
11
0.125591
21
0.284953
0
LINE
8
BLACK
6
CONTINUOUS
10
0.125591
20
0.284953
11
0.131216
21
0.283079
0
LINE
8
BLACK
6
CONTINUOUS
10
0.131216
20
0.283079
11
0.132117
21
0.28259
0
LINE
8
BLACK
6
CONTINUOUS
10
0.132117
20
0.28259
11
0.13221
21
0.28244
0
LINE
8
BLACK
6
CONTINUOUS
10
0.13221
20
0.28244
11
0.13237
21
0.282365
0
LINE
8
BLACK
6
CONTINUOUS
10
0.13237
20
0.282365
11
0.136119
21
0.278616
0
LINE
8
BLACK
6
CONTINUOUS
10
0.136119
20
0.278616
11
0.136708
21
0.277776
0
LINE
8
BLACK
6
CONTINUOUS
10
0.136708
20
0.277776
11
0.136723
21
0.2776
0
LINE
8
BLACK
6
CONTINUOUS
10
0.136723
20
0.2776
11
0.136833
21
0.277462
0
LINE
8
BLACK
6
CONTINUOUS
10
0.136833
20
0.277462
11
0.138707
21
0.271837
0
LINE
8
BLACK
6
CONTINUOUS
10
0.138707
20
0.271837
11
0.138837
21
0.270964
0
LINE
8
BLACK
6
CONTINUOUS
10
0.138837
20
0.270964
11
0.138859
21
0.270904
0
LINE
8
BLACK
6
CONTINUOUS
10
0.138859
20
0.270904
11
0.138859
21
0.267154
0
LINE
8
BLACK
6
CONTINUOUS
10
0.138859
20
0.267154
11
0.138681
21
0.266144
0
LINE
8
BLACK
6
CONTINUOUS
10
0.138681
20
0.266144
11
0.137383
21
0.264597
0
LINE
8
BLACK
6
CONTINUOUS
10
0.137383
20
0.264597
11
0.135394
21
0.264246
0
LINE
8
BLACK
6
CONTINUOUS
10
0.135394
20
0.264246
11
0.133644
21
0.265256
0
LINE
8
BLACK
6
CONTINUOUS
10
0.133644
20
0.265256
11
0.132954
21
0.267154
0
LINE
8
BLACK
6
CONTINUOUS
10
0.132954
20
0.267154
11
0.132954
21
0.270425
0
LINE
8
BLACK
6
CONTINUOUS
10
0.132954
20
0.270425
11
0.131451
21
0.274933
0
LINE
8
BLACK
6
CONTINUOUS
10
0.131451
20
0.274933
11
0.128687
21
0.277697
0
LINE
8
BLACK
6
CONTINUOUS
10
0.128687
20
0.277697
11
0.124179
21
0.279199
0
LINE
8
BLACK
6
CONTINUOUS
10
0.124179
20
0.279199
11
0.0965362
21
0.279199
0
LINE
8
BLACK
6
CONTINUOUS
10
0.0965362
20
0.279199
11
0.0955263
21
0.279378
0
LINE
8
BLACK
6
CONTINUOUS
10
0.0955263
20
0.279378
11
0.093979
21
0.280676
0
LINE
8
BLACK
6
CONTINUOUS
10
0.093979
20
0.280676
11
0.0936283
21
0.282665
0
LINE
8
BLACK
6
CONTINUOUS
10
0.0936283
20
0.282665
11
0.0946382
21
0.284414
0
LINE
8
BLACK
6
CONTINUOUS
10
0.0946382
20
0.284414
11
0.0965362
21
0.285105
0
LINE
8
BLACK
6
CONTINUOUS
10
0.0965362
20
0.285105
11
0.124658
21
0.285105
0
LINE
8
BLACK
6
CONTINUOUS
10
0.124658
20
0.285105
11
0.125527
21
0.284952
0
LINE
8
BLACK
6
CONTINUOUS
10
0.108654
20
0.324322
11
0.108719
21
0.324324
0
LINE
8
BLACK
6
CONTINUOUS
10
0.108719
20
0.324324
11
0.114343
21
0.322449
0
LINE
8
BLACK
6
CONTINUOUS
10
0.114343
20
0.322449
11
0.115245
21
0.321961
0
LINE
8
BLACK
6
CONTINUOUS
10
0.115245
20
0.321961
11
0.115337
21
0.32181
0
LINE
8
BLACK
6
CONTINUOUS
10
0.115337
20
0.32181
11
0.115497
21
0.321735
0
LINE
8
BLACK
6
CONTINUOUS
10
0.115497
20
0.321735
11
0.132954
21
0.304279
0
LINE
8
BLACK
6
CONTINUOUS
10
0.132954
20
0.304279
11
0.132954
21
0.321522
0
LINE
8
BLACK
6
CONTINUOUS
10
0.132954
20
0.321522
11
0.133132
21
0.322532
0
LINE
8
BLACK
6
CONTINUOUS
10
0.133132
20
0.322532
11
0.13443
21
0.324079
0
LINE
8
BLACK
6
CONTINUOUS
10
0.13443
20
0.324079
11
0.136419
21
0.32443
0
LINE
8
BLACK
6
CONTINUOUS
10
0.136419
20
0.32443
11
0.138168
21
0.32342
0
LINE
8
BLACK
6
CONTINUOUS
10
0.138168
20
0.32342
11
0.138859
21
0.321522
0
LINE
8
BLACK
6
CONTINUOUS
10
0.138859
20
0.321522
11
0.138859
21
0.29715
0
LINE
8
BLACK
6
CONTINUOUS
10
0.138859
20
0.29715
11
0.138747
21
0.296516
0
LINE
8
BLACK
6
CONTINUOUS
10
0.138747
20
0.296516
11
0.138758
21
0.296386
0
LINE
8
BLACK
6
CONTINUOUS
10
0.138758
20
0.296386
11
0.138713
21
0.296321
0
LINE
8
BLACK
6
CONTINUOUS
10
0.138713
20
0.296321
11
0.138681
21
0.29614
0
LINE
8
BLACK
6
CONTINUOUS
10
0.138681
20
0.29614
11
0.13811
21
0.29546
0
LINE
8
BLACK
6
CONTINUOUS
10
0.13811
20
0.29546
11
0.1376
21
0.294732
0
LINE
8
BLACK
6
CONTINUOUS
10
0.1376
20
0.294732
11
0.137469
21
0.294697
0
LINE
8
BLACK
6
CONTINUOUS
10
0.137469
20
0.294697
11
0.137383
21
0.294593
0
LINE
8
BLACK
6
CONTINUOUS
10
0.137383
20
0.294593
11
0.136507
21
0.294439
0
LINE
8
BLACK
6
CONTINUOUS
10
0.136507
20
0.294439
11
0.135649
21
0.294209
0
LINE
8
BLACK
6
CONTINUOUS
10
0.135649
20
0.294209
11
0.135527
21
0.294266
0
LINE
8
BLACK
6
CONTINUOUS
10
0.135527
20
0.294266
11
0.135394
21
0.294242
0
LINE
8
BLACK
6
CONTINUOUS
10
0.135394
20
0.294242
11
0.134624
21
0.294687
0
LINE
8
BLACK
6
CONTINUOUS
10
0.134624
20
0.294687
11
0.133818
21
0.295062
0
LINE
8
BLACK
6
CONTINUOUS
10
0.133818
20
0.295062
11
0.111814
21
0.317067
0
LINE
8
BLACK
6
CONTINUOUS
10
0.111814
20
0.317067
11
0.107306
21
0.31857
0
LINE
8
BLACK
6
CONTINUOUS
10
0.107306
20
0.31857
11
0.104732
21
0.31857
0
LINE
8
BLACK
6
CONTINUOUS
10
0.104732
20
0.31857
11
0.102035
21
0.317221
0
LINE
8
BLACK
6
CONTINUOUS
10
0.102035
20
0.317221
11
0.100838
21
0.316024
0
LINE
8
BLACK
6
CONTINUOUS
10
0.100838
20
0.316024
11
0.0994889
21
0.313326
0
LINE
8
BLACK
6
CONTINUOUS
10
0.0994889
20
0.313326
11
0.0994889
21
0.305346
0
LINE
8
BLACK
6
CONTINUOUS
10
0.0994889
20
0.305346
11
0.100838
21
0.302649
0
LINE
8
BLACK
6
CONTINUOUS
10
0.100838
20
0.302649
11
0.102374
21
0.301113
0
LINE
8
BLACK
6
CONTINUOUS
10
0.102374
20
0.301113
11
0.102962
21
0.300273
0
LINE
8
BLACK
6
CONTINUOUS
10
0.102962
20
0.300273
11
0.103138
21
0.298261
0
LINE
8
BLACK
6
CONTINUOUS
10
0.103138
20
0.298261
11
0.101979
21
0.296606
0
LINE
8
BLACK
6
CONTINUOUS
10
0.101979
20
0.296606
11
0.100028
21
0.296084
0
LINE
8
BLACK
6
CONTINUOUS
10
0.100028
20
0.296084
11
0.0981978
21
0.296937
0
LINE
8
BLACK
6
CONTINUOUS
10
0.0981978
20
0.296937
11
0.096323
21
0.298812
0
LINE
8
BLACK
6
CONTINUOUS
10
0.096323
20
0.298812
11
0.0958167
21
0.299535
0
LINE
8
BLACK
6
CONTINUOUS
10
0.0958167
20
0.299535
11
0.0957699
21
0.299579
0
LINE
8
BLACK
6
CONTINUOUS
10
0.0957699
20
0.299579
11
0.0938952
21
0.303329
0
LINE
8
BLACK
6
CONTINUOUS
10
0.0938952
20
0.303329
11
0.0936028
21
0.304312
0
LINE
8
BLACK
6
CONTINUOUS
10
0.0936028
20
0.304312
11
0.0936438
21
0.304484
0
LINE
8
BLACK
6
CONTINUOUS
10
0.0936438
20
0.304484
11
0.0935834
21
0.304649
0
LINE
8
BLACK
6
CONTINUOUS
10
0.0935834
20
0.304649
11
0.0935834
21
0.314023
0
LINE
8
BLACK
6
CONTINUOUS
10
0.0935834
20
0.314023
11
0.0937615
21
0.315033
0
LINE
8
BLACK
6
CONTINUOUS
10
0.0937615
20
0.315033
11
0.093875
21
0.315168
0
LINE
8
BLACK
6
CONTINUOUS
10
0.093875
20
0.315168
11
0.0938952
21
0.315344
0
LINE
8
BLACK
6
CONTINUOUS
10
0.0938952
20
0.315344
11
0.0957699
21
0.319093
0
LINE
8
BLACK
6
CONTINUOUS
10
0.0957699
20
0.319093
11
0.0962958
21
0.319802
0
LINE
8
BLACK
6
CONTINUOUS
10
0.0962958
20
0.319802
11
0.096323
21
0.319861
0
LINE
8
BLACK
6
CONTINUOUS
10
0.096323
20
0.319861
11
0.0981978
21
0.321735
0
LINE
8
BLACK
6
CONTINUOUS
10
0.0981978
20
0.321735
11
0.0989209
21
0.322242
0
LINE
8
BLACK
6
CONTINUOUS
10
0.0989209
20
0.322242
11
0.0989652
21
0.322289
0
LINE
8
BLACK
6
CONTINUOUS
10
0.0989652
20
0.322289
11
0.102715
21
0.324163
0
LINE
8
BLACK
6
CONTINUOUS
10
0.102715
20
0.324163
11
0.103698
21
0.324456
0
LINE
8
BLACK
6
CONTINUOUS
10
0.103698
20
0.324456
11
0.103869
21
0.324415
0
LINE
8
BLACK
6
CONTINUOUS
10
0.103869
20
0.324415
11
0.104035
21
0.324475
0
LINE
8
BLACK
6
CONTINUOUS
10
0.104035
20
0.324475
11
0.107785
21
0.324475
0
LINE
8
BLACK
6
CONTINUOUS
10
0.107785
20
0.324475
11
0.108654
21
0.324322
0
LINE
8
BLACK
6
CONTINUOUS
10
0.180992
20
0.459646
11
0.182384
21
0.459069
0
LINE
8
BLACK
6
CONTINUOUS
10
0.182384
20
0.459069
11
0.182961
21
0.457677
0
LINE
8
BLACK
6
CONTINUOUS
10
0.182961
20
0.457677
11
0.182961
21
0.132874
0
LINE
8
BLACK
6
CONTINUOUS
10
0.182961
20
0.132874
11
0.182384
21
0.131482
0
LINE
8
BLACK
6
CONTINUOUS
10
0.182384
20
0.131482
11
0.180992
21
0.130906
0
LINE
8
BLACK
6
CONTINUOUS
10
0.180992
20
0.130906
11
0.0215433
21
0.130906
0
LINE
8
BLACK
6
CONTINUOUS
10
0.0215433
20
0.130906
11
0.0201514
21
0.131482
0
LINE
8
BLACK
6
CONTINUOUS
10
0.0201514
20
0.131482
11
0.0195748
21
0.132874
0
LINE
8
BLACK
6
CONTINUOUS
10
0.0195748
20
0.132874
11
0.0195748
21
0.457677
0
LINE
8
BLACK
6
CONTINUOUS
10
0.0195748
20
0.457677
11
0.0201514
21
0.459069
0
LINE
8
BLACK
6
CONTINUOUS
10
0.0201514
20
0.459069
11
0.0215433
21
0.459646
0
LINE
8
BLACK
6
CONTINUOUS
10
0.0215433
20
0.459646
11
0.180992
21
0.459646
0
LINE
8
BLACK
6
CONTINUOUS
10
0.0235118
20
0.455709
11
0.0235118
21
0.134843
0
LINE
8
BLACK
6
CONTINUOUS
10
0.0235118
20
0.134843
11
0.179024
21
0.134843
0
LINE
8
BLACK
6
CONTINUOUS
10
0.179024
20
0.134843
11
0.179024
21
0.348391
0
LINE
8
BLACK
6
CONTINUOUS
10
0.179024
20
0.348391
11
0.152017
21
0.367487
0
LINE
8
BLACK
6
CONTINUOUS
10
0.152017
20
0.367487
11
0.151835
21
0.367776
0
LINE
8
BLACK
6
CONTINUOUS
10
0.151835
20
0.367776
11
0.151546
21
0.367958
0
LINE
8
BLACK
6
CONTINUOUS
10
0.151546
20
0.367958
11
0.151448
21
0.368388
0
LINE
8
BLACK
6
CONTINUOUS
10
0.151448
20
0.368388
11
0.151213
21
0.368762
0
LINE
8
BLACK
6
CONTINUOUS
10
0.151213
20
0.368762
11
0.151289
21
0.369094
0
LINE
8
BLACK
6
CONTINUOUS
10
0.151289
20
0.369094
11
0.151213
21
0.369427
0
LINE
8
BLACK
6
CONTINUOUS
10
0.151213
20
0.369427
11
0.151448
21
0.369801
0
LINE
8
BLACK
6
CONTINUOUS
10
0.151448
20
0.369801
11
0.151546
21
0.370231
0
LINE
8
BLACK
6
CONTINUOUS
10
0.151546
20
0.370231
11
0.151835
21
0.370413
0
LINE
8
BLACK
6
CONTINUOUS
10
0.151835
20
0.370413
11
0.152017
21
0.370702
0
LINE
8
BLACK
6
CONTINUOUS
10
0.152017
20
0.370702
11
0.179024
21
0.389799
0
LINE
8
BLACK
6
CONTINUOUS
10
0.179024
20
0.389799
11
0.179024
21
0.455709
0
LINE
8
BLACK
6
CONTINUOUS
10
0.179024
20
0.455709
11
0.0235118
21
0.455709
0
LINE
8
BLACK
6
CONTINUOUS
10
0.156563
20
0.369094
11
0.179024
21
0.353212
0
LINE
8
BLACK
6
CONTINUOUS
10
0.179024
20
0.353212
11
0.179024
21
0.384977
0
LINE
8
BLACK
6
CONTINUOUS
10
0.179024
20
0.384977
11
0.156563
21
0.369094
0
LINE
8
BLACK
6
CONTINUOUS
10
0.428987
20
0.533736
11
0.42978
21
0.531879
0
LINE
8
BLACK
6
CONTINUOUS
10
0.42978
20
0.531879
11
0.429194
21
0.529946
0
LINE
8
BLACK
6
CONTINUOUS
10
0.429194
20
0.529946
11
0.413857
21
0.509497
0
LINE
8
BLACK
6
CONTINUOUS
10
0.413857
20
0.509497
11
0.42892
21
0.494435
0
LINE
8
BLACK
6
CONTINUOUS
10
0.42892
20
0.494435
11
0.429508
21
0.493595
0
LINE
8
BLACK
6
CONTINUOUS
10
0.429508
20
0.493595
11
0.429684
21
0.491583
0
LINE
8
BLACK
6
CONTINUOUS
10
0.429684
20
0.491583
11
0.428525
21
0.489928
0
LINE
8
BLACK
6
CONTINUOUS
10
0.428525
20
0.489928
11
0.426574
21
0.489406
0
LINE
8
BLACK
6
CONTINUOUS
10
0.426574
20
0.489406
11
0.424744
21
0.490259
0
LINE
8
BLACK
6
CONTINUOUS
10
0.424744
20
0.490259
11
0.407287
21
0.507716
0
LINE
8
BLACK
6
CONTINUOUS
10
0.407287
20
0.507716
11
0.407287
21
0.492347
0
LINE
8
BLACK
6
CONTINUOUS
10
0.407287
20
0.492347
11
0.407109
21
0.491337
0
LINE
8
BLACK
6
CONTINUOUS
10
0.407109
20
0.491337
11
0.405811
21
0.48979
0
LINE
8
BLACK
6
CONTINUOUS
10
0.405811
20
0.48979
11
0.403822
21
0.489439
0
LINE
8
BLACK
6
CONTINUOUS
10
0.403822
20
0.489439
11
0.402073
21
0.490449
0
LINE
8
BLACK
6
CONTINUOUS
10
0.402073
20
0.490449
11
0.401382
21
0.492347
0
LINE
8
BLACK
6
CONTINUOUS
10
0.401382
20
0.492347
11
0.401382
21
0.531717
0
LINE
8
BLACK
6
CONTINUOUS
10
0.401382
20
0.531717
11
0.40156
21
0.532727
0
LINE
8
BLACK
6
CONTINUOUS
10
0.40156
20
0.532727
11
0.402858
21
0.534274
0
LINE
8
BLACK
6
CONTINUOUS
10
0.402858
20
0.534274
11
0.404847
21
0.534625
0
LINE
8
BLACK
6
CONTINUOUS
10
0.404847
20
0.534625
11
0.406596
21
0.533615
0
LINE
8
BLACK
6
CONTINUOUS
10
0.406596
20
0.533615
11
0.407287
21
0.531717
0
LINE
8
BLACK
6
CONTINUOUS
10
0.407287
20
0.531717
11
0.407287
21
0.516067
0
LINE
8
BLACK
6
CONTINUOUS
10
0.407287
20
0.516067
11
0.409639
21
0.513715
0
LINE
8
BLACK
6
CONTINUOUS
10
0.409639
20
0.513715
11
0.424469
21
0.533489
0
LINE
8
BLACK
6
CONTINUOUS
10
0.424469
20
0.533489
11
0.425218
21
0.53419
0
LINE
8
BLACK
6
CONTINUOUS
10
0.425218
20
0.53419
11
0.427185
21
0.534649
0
LINE
8
BLACK
6
CONTINUOUS
10
0.427185
20
0.534649
11
0.428987
21
0.533736
  0
ENDSEC
  0
EOF
