  0
SECTION
  2
HEADER
  9
$ANGBASE
  50
0.0
  9
$ANGDIR
  70
1
  9
$MEASUREMENT
  70
0
  0
ENDSEC
  0
SECTION
  2
TABLES
  0
TABLE
  2
LTYPE
  70
4
  0
LTYPE
  5
40F
  2
CONTINUOUS
  70
0
  3
Solid line
  72
65
  73
0
  40
0.0
  0
LTYPE
  5
410
  2
DASHDOT
 70
0
  3
Dash Dot ____ _ ____ _
 72
65
 73
4
 40
2.0
 49
1.25
 49
-0.25
 49
0.25
 49
-0.25
  0
LTYPE
  5
411
  2
DASHED
 70
0
  3
Dashed __ __ __ __ __
 72
65
 73
2
 40
0.75
 49
0.5
 49
-0.25
  0
LTYPE
  5
43B
  2
DOTTED
 70
0
  3
Dotted .  .  .  .
 72
65
 73
2
 40
0.2
 49
0.0
 49
-0.2
  0
ENDTAB
  0
TABLE
  2
STYLE
  70
4
  0
STYLE
  2
KICAD
  70
0
  40
0
  41
1
  42
1
  50
0
  71
0
  3
isocp.shx
  0
STYLE
  2
KICADB
  70
0
  40
0
  41
1
  42
1
  50
0
  71
0
  3
isocp.shx
  0
STYLE
  2
KICADI
  70
0
  40
0
  41
1
  42
1
  50
15
  71
0
  3
isocp.shx
  0
STYLE
  2
KICADBI
  70
0
  40
0
  41
1
  42
1
  50
15
  71
0
  3
isocp.shx
  0
ENDTAB
  0
TABLE
  2
LAYER
  70
1
  0
LAYER
  2
BLACK
  70
0
  62
7
  6
CONTINUOUS
  0
ENDTAB
  0
ENDSEC
  0
SECTION
  2
ENTITIES
0
LINE
8
BLACK
6
CONTINUOUS
10
0.200291
20
0.0596761
11
0.200355
21
0.0596779
0
LINE
8
BLACK
6
CONTINUOUS
10
0.200355
20
0.0596779
11
0.205979
21
0.0578031
0
LINE
8
BLACK
6
CONTINUOUS
10
0.205979
20
0.0578031
11
0.206881
21
0.0573148
0
LINE
8
BLACK
6
CONTINUOUS
10
0.206881
20
0.0573148
11
0.206974
21
0.0571644
0
LINE
8
BLACK
6
CONTINUOUS
10
0.206974
20
0.0571644
11
0.207134
21
0.0570898
0
LINE
8
BLACK
6
CONTINUOUS
10
0.207134
20
0.0570898
11
0.210883
21
0.0533403
0
LINE
8
BLACK
6
CONTINUOUS
10
0.210883
20
0.0533403
11
0.211471
21
0.0525002
0
LINE
8
BLACK
6
CONTINUOUS
10
0.211471
20
0.0525002
11
0.211487
21
0.0523243
0
LINE
8
BLACK
6
CONTINUOUS
10
0.211487
20
0.0523243
11
0.211596
21
0.0521861
0
LINE
8
BLACK
6
CONTINUOUS
10
0.211596
20
0.0521861
11
0.213471
21
0.0465619
0
LINE
8
BLACK
6
CONTINUOUS
10
0.213471
20
0.0465619
11
0.213601
21
0.0456886
0
LINE
8
BLACK
6
CONTINUOUS
10
0.213601
20
0.0456886
11
0.213623
21
0.0456281
0
LINE
8
BLACK
6
CONTINUOUS
10
0.213623
20
0.0456281
11
0.213623
21
0.0418785
0
LINE
8
BLACK
6
CONTINUOUS
10
0.213623
20
0.0418785
11
0.213445
21
0.0408686
0
LINE
8
BLACK
6
CONTINUOUS
10
0.213445
20
0.0408686
11
0.212146
21
0.0393214
0
LINE
8
BLACK
6
CONTINUOUS
10
0.212146
20
0.0393214
11
0.210157
21
0.0389706
0
LINE
8
BLACK
6
CONTINUOUS
10
0.210157
20
0.0389706
11
0.208408
21
0.0399806
0
LINE
8
BLACK
6
CONTINUOUS
10
0.208408
20
0.0399806
11
0.207717
21
0.0418785
0
LINE
8
BLACK
6
CONTINUOUS
10
0.207717
20
0.0418785
11
0.207717
21
0.0451489
0
LINE
8
BLACK
6
CONTINUOUS
10
0.207717
20
0.0451489
11
0.206214
21
0.0496573
0
LINE
8
BLACK
6
CONTINUOUS
10
0.206214
20
0.0496573
11
0.203451
21
0.0524211
0
LINE
8
BLACK
6
CONTINUOUS
10
0.203451
20
0.0524211
11
0.198942
21
0.0539239
0
LINE
8
BLACK
6
CONTINUOUS
10
0.198942
20
0.0539239
11
0.1713
21
0.0539239
0
LINE
8
BLACK
6
CONTINUOUS
10
0.1713
20
0.0539239
11
0.17029
21
0.054102
0
LINE
8
BLACK
6
CONTINUOUS
10
0.17029
20
0.054102
11
0.168743
21
0.0554003
0
LINE
8
BLACK
6
CONTINUOUS
10
0.168743
20
0.0554003
11
0.168392
21
0.0573894
0
LINE
8
BLACK
6
CONTINUOUS
10
0.168392
20
0.0573894
11
0.169402
21
0.0591386
0
LINE
8
BLACK
6
CONTINUOUS
10
0.169402
20
0.0591386
11
0.1713
21
0.0598294
0
LINE
8
BLACK
6
CONTINUOUS
10
0.1713
20
0.0598294
11
0.199421
21
0.0598294
0
LINE
8
BLACK
6
CONTINUOUS
10
0.199421
20
0.0598294
11
0.200291
21
0.0596761
0
LINE
8
BLACK
6
CONTINUOUS
10
1.04357
20
0.0928585
11
1.09057
21
0.0928585
0
LINE
8
BLACK
6
CONTINUOUS
10
1.09057
20
0.0928585
11
1.09057
21
0.0823741
0
LINE
8
BLACK
6
CONTINUOUS
10
1.09057
20
0.0823741
11
1.04357
21
0.0823741
0
LINE
8
BLACK
6
CONTINUOUS
10
1.04357
20
0.0823741
11
1.04357
21
0.0661051
0
LINE
8
BLACK
6
CONTINUOUS
10
1.04357
20
0.0661051
11
1.03309
21
0.0661051
0
LINE
8
BLACK
6
CONTINUOUS
10
1.03309
20
0.0661051
11
1.03309
21
0.109127
0
LINE
8
BLACK
6
CONTINUOUS
10
1.03309
20
0.109127
11
1.04357
21
0.109127
0
LINE
8
BLACK
6
CONTINUOUS
10
1.04357
20
0.109127
11
1.04357
21
0.0928585
0
LINE
8
BLACK
6
CONTINUOUS
10
0.183418
20
0.0990462
11
0.183482
21
0.099048
0
LINE
8
BLACK
6
CONTINUOUS
10
0.183482
20
0.099048
11
0.189107
21
0.0971732
0
LINE
8
BLACK
6
CONTINUOUS
10
0.189107
20
0.0971732
11
0.190008
21
0.0966849
0
LINE
8
BLACK
6
CONTINUOUS
10
0.190008
20
0.0966849
11
0.190101
21
0.0965345
0
LINE
8
BLACK
6
CONTINUOUS
10
0.190101
20
0.0965345
11
0.190261
21
0.0964599
0
LINE
8
BLACK
6
CONTINUOUS
10
0.190261
20
0.0964599
11
0.207717
21
0.0790034
0
LINE
8
BLACK
6
CONTINUOUS
10
0.207717
20
0.0790034
11
0.207717
21
0.0962467
0
LINE
8
BLACK
6
CONTINUOUS
10
0.207717
20
0.0962467
11
0.207895
21
0.0972567
0
LINE
8
BLACK
6
CONTINUOUS
10
0.207895
20
0.0972567
11
0.209194
21
0.0988039
0
LINE
8
BLACK
6
CONTINUOUS
10
0.209194
20
0.0988039
11
0.211183
21
0.0991546
0
LINE
8
BLACK
6
CONTINUOUS
10
0.211183
20
0.0991546
11
0.212932
21
0.0981447
0
LINE
8
BLACK
6
CONTINUOUS
10
0.212932
20
0.0981447
11
0.213623
21
0.0962467
0
LINE
8
BLACK
6
CONTINUOUS
10
0.213623
20
0.0962467
11
0.213623
21
0.0718748
0
LINE
8
BLACK
6
CONTINUOUS
10
0.213623
20
0.0718748
11
0.213511
21
0.0712401
0
LINE
8
BLACK
6
CONTINUOUS
10
0.213511
20
0.0712401
11
0.213522
21
0.0711106
0
LINE
8
BLACK
6
CONTINUOUS
10
0.213522
20
0.0711106
11
0.213477
21
0.0710454
0
LINE
8
BLACK
6
CONTINUOUS
10
0.213477
20
0.0710454
11
0.213445
21
0.0708649
0
LINE
8
BLACK
6
CONTINUOUS
10
0.213445
20
0.0708649
11
0.212873
21
0.0701841
0
LINE
8
BLACK
6
CONTINUOUS
10
0.212873
20
0.0701841
11
0.212364
21
0.069456
0
LINE
8
BLACK
6
CONTINUOUS
10
0.212364
20
0.069456
11
0.212233
21
0.0694211
0
LINE
8
BLACK
6
CONTINUOUS
10
0.212233
20
0.0694211
11
0.212146
21
0.0693176
0
LINE
8
BLACK
6
CONTINUOUS
10
0.212146
20
0.0693176
11
0.211271
21
0.0691633
0
LINE
8
BLACK
6
CONTINUOUS
10
0.211271
20
0.0691633
11
0.210413
21
0.0689333
0
LINE
8
BLACK
6
CONTINUOUS
10
0.210413
20
0.0689333
11
0.21029
21
0.0689904
0
LINE
8
BLACK
6
CONTINUOUS
10
0.21029
20
0.0689904
11
0.210157
21
0.0689669
0
LINE
8
BLACK
6
CONTINUOUS
10
0.210157
20
0.0689669
11
0.209387
21
0.0694114
0
LINE
8
BLACK
6
CONTINUOUS
10
0.209387
20
0.0694114
11
0.208582
21
0.0697869
0
LINE
8
BLACK
6
CONTINUOUS
10
0.208582
20
0.0697869
11
0.186578
21
0.0917912
0
LINE
8
BLACK
6
CONTINUOUS
10
0.186578
20
0.0917912
11
0.182069
21
0.093294
0
LINE
8
BLACK
6
CONTINUOUS
10
0.182069
20
0.093294
11
0.179496
21
0.093294
0
LINE
8
BLACK
6
CONTINUOUS
10
0.179496
20
0.093294
11
0.176799
21
0.0919452
0
LINE
8
BLACK
6
CONTINUOUS
10
0.176799
20
0.0919452
11
0.175601
21
0.0907481
0
LINE
8
BLACK
6
CONTINUOUS
10
0.175601
20
0.0907481
11
0.174253
21
0.0880506
0
LINE
8
BLACK
6
CONTINUOUS
10
0.174253
20
0.0880506
11
0.174253
21
0.0800709
0
LINE
8
BLACK
6
CONTINUOUS
10
0.174253
20
0.0800709
11
0.175601
21
0.0773734
0
LINE
8
BLACK
6
CONTINUOUS
10
0.175601
20
0.0773734
11
0.177137
21
0.0758375
0
LINE
8
BLACK
6
CONTINUOUS
10
0.177137
20
0.0758375
11
0.177726
21
0.0749974
0
LINE
8
BLACK
6
CONTINUOUS
10
0.177726
20
0.0749974
11
0.177902
21
0.0729854
0
LINE
8
BLACK
6
CONTINUOUS
10
0.177902
20
0.0729854
11
0.176743
21
0.0713308
0
LINE
8
BLACK
6
CONTINUOUS
10
0.176743
20
0.0713308
11
0.174792
21
0.0708081
0
LINE
8
BLACK
6
CONTINUOUS
10
0.174792
20
0.0708081
11
0.172962
21
0.0716617
0
LINE
8
BLACK
6
CONTINUOUS
10
0.172962
20
0.0716617
11
0.171087
21
0.0735364
0
LINE
8
BLACK
6
CONTINUOUS
10
0.171087
20
0.0735364
11
0.170581
21
0.0742595
0
LINE
8
BLACK
6
CONTINUOUS
10
0.170581
20
0.0742595
11
0.170534
21
0.0743038
0
LINE
8
BLACK
6
CONTINUOUS
10
0.170534
20
0.0743038
11
0.168659
21
0.0780533
0
LINE
8
BLACK
6
CONTINUOUS
10
0.168659
20
0.0780533
11
0.168367
21
0.0790363
0
LINE
8
BLACK
6
CONTINUOUS
10
0.168367
20
0.0790363
11
0.168408
21
0.079208
0
LINE
8
BLACK
6
CONTINUOUS
10
0.168408
20
0.079208
11
0.168347
21
0.0793739
0
LINE
8
BLACK
6
CONTINUOUS
10
0.168347
20
0.0793739
11
0.168347
21
0.0887477
0
LINE
8
BLACK
6
CONTINUOUS
10
0.168347
20
0.0887477
11
0.168525
21
0.0897576
0
LINE
8
BLACK
6
CONTINUOUS
10
0.168525
20
0.0897576
11
0.168639
21
0.0898929
0
LINE
8
BLACK
6
CONTINUOUS
10
0.168639
20
0.0898929
11
0.168659
21
0.0900682
0
LINE
8
BLACK
6
CONTINUOUS
10
0.168659
20
0.0900682
11
0.170534
21
0.0938177
0
LINE
8
BLACK
6
CONTINUOUS
10
0.170534
20
0.0938177
11
0.17106
21
0.0945268
0
LINE
8
BLACK
6
CONTINUOUS
10
0.17106
20
0.0945268
11
0.171087
21
0.0945851
0
LINE
8
BLACK
6
CONTINUOUS
10
0.171087
20
0.0945851
11
0.172962
21
0.0964599
0
LINE
8
BLACK
6
CONTINUOUS
10
0.172962
20
0.0964599
11
0.173685
21
0.0969662
0
LINE
8
BLACK
6
CONTINUOUS
10
0.173685
20
0.0969662
11
0.173729
21
0.097013
0
LINE
8
BLACK
6
CONTINUOUS
10
0.173729
20
0.097013
11
0.177479
21
0.0988878
0
LINE
8
BLACK
6
CONTINUOUS
10
0.177479
20
0.0988878
11
0.178461
21
0.0991801
0
LINE
8
BLACK
6
CONTINUOUS
10
0.178461
20
0.0991801
11
0.178633
21
0.0991391
0
LINE
8
BLACK
6
CONTINUOUS
10
0.178633
20
0.0991391
11
0.178799
21
0.0991995
0
LINE
8
BLACK
6
CONTINUOUS
10
0.178799
20
0.0991995
11
0.182549
21
0.0991995
0
LINE
8
BLACK
6
CONTINUOUS
10
0.182549
20
0.0991995
11
0.183418
21
0.0990462
0
LINE
8
BLACK
6
CONTINUOUS
10
0.670603
20
0.148579
11
0.672765
21
0.146417
0
LINE
8
BLACK
6
CONTINUOUS
10
0.672765
20
0.146417
11
0.673556
21
0.143465
0
LINE
8
BLACK
6
CONTINUOUS
10
0.673556
20
0.143465
11
0.673556
21
0.132497
0
LINE
8
BLACK
6
CONTINUOUS
10
0.673556
20
0.132497
11
0.726706
21
0.132497
0
LINE
8
BLACK
6
CONTINUOUS
10
0.726706
20
0.132497
11
0.729659
21
0.131706
0
LINE
8
BLACK
6
CONTINUOUS
10
0.729659
20
0.131706
11
0.73182
21
0.129544
0
LINE
8
BLACK
6
CONTINUOUS
10
0.73182
20
0.129544
11
0.732611
21
0.126592
0
LINE
8
BLACK
6
CONTINUOUS
10
0.732611
20
0.126592
11
0.73182
21
0.123639
0
LINE
8
BLACK
6
CONTINUOUS
10
0.73182
20
0.123639
11
0.729659
21
0.121477
0
LINE
8
BLACK
6
CONTINUOUS
10
0.729659
20
0.121477
11
0.726706
21
0.120686
0
LINE
8
BLACK
6
CONTINUOUS
10
0.726706
20
0.120686
11
0.673556
21
0.120686
0
LINE
8
BLACK
6
CONTINUOUS
10
0.673556
20
0.120686
11
0.673556
21
0.109719
0
LINE
8
BLACK
6
CONTINUOUS
10
0.673556
20
0.109719
11
0.672765
21
0.106766
0
LINE
8
BLACK
6
CONTINUOUS
10
0.672765
20
0.106766
11
0.670603
21
0.104605
0
LINE
8
BLACK
6
CONTINUOUS
10
0.670603
20
0.104605
11
0.667651
21
0.103813
0
LINE
8
BLACK
6
CONTINUOUS
10
0.667651
20
0.103813
11
0.664698
21
0.104605
0
LINE
8
BLACK
6
CONTINUOUS
10
0.664698
20
0.104605
11
0.662536
21
0.106766
0
LINE
8
BLACK
6
CONTINUOUS
10
0.662536
20
0.106766
11
0.661745
21
0.109719
0
LINE
8
BLACK
6
CONTINUOUS
10
0.661745
20
0.109719
11
0.661745
21
0.143465
0
LINE
8
BLACK
6
CONTINUOUS
10
0.661745
20
0.143465
11
0.662536
21
0.146417
0
LINE
8
BLACK
6
CONTINUOUS
10
0.662536
20
0.146417
11
0.664698
21
0.148579
0
LINE
8
BLACK
6
CONTINUOUS
10
0.664698
20
0.148579
11
0.667651
21
0.14937
0
LINE
8
BLACK
6
CONTINUOUS
10
0.667651
20
0.14937
11
0.670603
21
0.148579
0
LINE
8
BLACK
6
CONTINUOUS
10
1.09057
20
0.151427
11
1.06598
21
0.151427
0
LINE
8
BLACK
6
CONTINUOUS
10
1.06598
20
0.151427
11
1.06598
21
0.125396
0
LINE
8
BLACK
6
CONTINUOUS
10
1.06598
20
0.125396
11
1.09057
21
0.125396
0
LINE
8
BLACK
6
CONTINUOUS
10
1.09057
20
0.125396
11
1.09057
21
0.114912
0
LINE
8
BLACK
6
CONTINUOUS
10
1.09057
20
0.114912
11
1.03309
21
0.114912
0
LINE
8
BLACK
6
CONTINUOUS
10
1.03309
20
0.114912
11
1.03309
21
0.125396
0
LINE
8
BLACK
6
CONTINUOUS
10
1.03309
20
0.125396
11
1.05586
21
0.125396
0
LINE
8
BLACK
6
CONTINUOUS
10
1.05586
20
0.125396
11
1.05586
21
0.151417
0
LINE
8
BLACK
6
CONTINUOUS
10
1.05586
20
0.151417
11
1.04456
21
0.151512
0
LINE
8
BLACK
6
CONTINUOUS
10
1.04456
20
0.151512
11
1.03327
21
0.151608
0
LINE
8
BLACK
6
CONTINUOUS
10
1.03327
20
0.151608
11
1.03317
21
0.15694
0
LINE
8
BLACK
6
CONTINUOUS
10
1.03317
20
0.15694
11
1.03307
21
0.162273
0
LINE
8
BLACK
6
CONTINUOUS
10
1.03307
20
0.162273
11
1.09057
21
0.162273
0
LINE
8
BLACK
6
CONTINUOUS
10
1.09057
20
0.162273
11
1.09057
21
0.151427
0
LINE
8
BLACK
6
CONTINUOUS
10
0.186993
20
0.20108
11
0.187685
21
0.199409
0
LINE
8
BLACK
6
CONTINUOUS
10
0.187685
20
0.199409
11
0.187685
21
0.128543
0
LINE
8
BLACK
6
CONTINUOUS
10
0.187685
20
0.128543
11
0.186993
21
0.126873
0
LINE
8
BLACK
6
CONTINUOUS
10
0.186993
20
0.126873
11
0.185323
21
0.126181
0
LINE
8
BLACK
6
CONTINUOUS
10
0.185323
20
0.126181
11
0.128236
21
0.126181
0
LINE
8
BLACK
6
CONTINUOUS
10
0.128236
20
0.126181
11
0.126566
21
0.126873
0
LINE
8
BLACK
6
CONTINUOUS
10
0.126566
20
0.126873
11
0.125874
21
0.128543
0
LINE
8
BLACK
6
CONTINUOUS
10
0.125874
20
0.128543
11
0.126566
21
0.130214
0
LINE
8
BLACK
6
CONTINUOUS
10
0.126566
20
0.130214
11
0.128236
21
0.130906
0
LINE
8
BLACK
6
CONTINUOUS
10
0.128236
20
0.130906
11
0.182961
21
0.130906
0
LINE
8
BLACK
6
CONTINUOUS
10
0.182961
20
0.130906
11
0.182961
21
0.199409
0
LINE
8
BLACK
6
CONTINUOUS
10
0.182961
20
0.199409
11
0.183653
21
0.20108
0
LINE
8
BLACK
6
CONTINUOUS
10
0.183653
20
0.20108
11
0.185323
21
0.201772
0
LINE
8
BLACK
6
CONTINUOUS
10
0.185323
20
0.201772
11
0.186993
21
0.20108
0
LINE
8
BLACK
6
CONTINUOUS
10
0.307403
20
0.220464
11
0.309564
21
0.218302
0
LINE
8
BLACK
6
CONTINUOUS
10
0.309564
20
0.218302
11
0.310355
21
0.215349
0
LINE
8
BLACK
6
CONTINUOUS
10
0.310355
20
0.215349
11
0.310355
21
0.1622
0
LINE
8
BLACK
6
CONTINUOUS
10
0.310355
20
0.1622
11
0.332571
21
0.1622
0
LINE
8
BLACK
6
CONTINUOUS
10
0.332571
20
0.1622
11
0.335524
21
0.161409
0
LINE
8
BLACK
6
CONTINUOUS
10
0.335524
20
0.161409
11
0.337686
21
0.159247
0
LINE
8
BLACK
6
CONTINUOUS
10
0.337686
20
0.159247
11
0.338477
21
0.156294
0
LINE
8
BLACK
6
CONTINUOUS
10
0.338477
20
0.156294
11
0.337686
21
0.153341
0
LINE
8
BLACK
6
CONTINUOUS
10
0.337686
20
0.153341
11
0.335524
21
0.15118
0
LINE
8
BLACK
6
CONTINUOUS
10
0.335524
20
0.15118
11
0.332571
21
0.150389
0
LINE
8
BLACK
6
CONTINUOUS
10
0.332571
20
0.150389
11
0.30445
21
0.150389
0
LINE
8
BLACK
6
CONTINUOUS
10
0.30445
20
0.150389
11
0.301497
21
0.15118
0
LINE
8
BLACK
6
CONTINUOUS
10
0.301497
20
0.15118
11
0.299335
21
0.153341
0
LINE
8
BLACK
6
CONTINUOUS
10
0.299335
20
0.153341
11
0.298544
21
0.156294
0
LINE
8
BLACK
6
CONTINUOUS
10
0.298544
20
0.156294
11
0.298544
21
0.215349
0
LINE
8
BLACK
6
CONTINUOUS
10
0.298544
20
0.215349
11
0.299335
21
0.218302
0
LINE
8
BLACK
6
CONTINUOUS
10
0.299335
20
0.218302
11
0.301497
21
0.220464
0
LINE
8
BLACK
6
CONTINUOUS
10
0.301497
20
0.220464
11
0.30445
21
0.221255
0
LINE
8
BLACK
6
CONTINUOUS
10
0.30445
20
0.221255
11
0.307403
21
0.220464
0
LINE
8
BLACK
6
CONTINUOUS
10
0.383331
20
0.220464
11
0.385492
21
0.218302
0
LINE
8
BLACK
6
CONTINUOUS
10
0.385492
20
0.218302
11
0.386283
21
0.215349
0
LINE
8
BLACK
6
CONTINUOUS
10
0.386283
20
0.215349
11
0.385492
21
0.212397
0
LINE
8
BLACK
6
CONTINUOUS
10
0.385492
20
0.212397
11
0.383331
21
0.210235
0
LINE
8
BLACK
6
CONTINUOUS
10
0.383331
20
0.210235
11
0.380378
21
0.209444
0
LINE
8
BLACK
6
CONTINUOUS
10
0.380378
20
0.209444
11
0.358162
21
0.209444
0
LINE
8
BLACK
6
CONTINUOUS
10
0.358162
20
0.209444
11
0.358162
21
0.193133
0
LINE
8
BLACK
6
CONTINUOUS
10
0.358162
20
0.193133
11
0.371941
21
0.193133
0
LINE
8
BLACK
6
CONTINUOUS
10
0.371941
20
0.193133
11
0.374894
21
0.192342
0
LINE
8
BLACK
6
CONTINUOUS
10
0.374894
20
0.192342
11
0.377056
21
0.190181
0
LINE
8
BLACK
6
CONTINUOUS
10
0.377056
20
0.190181
11
0.377847
21
0.187228
0
LINE
8
BLACK
6
CONTINUOUS
10
0.377847
20
0.187228
11
0.377056
21
0.184275
0
LINE
8
BLACK
6
CONTINUOUS
10
0.377056
20
0.184275
11
0.374894
21
0.182113
0
LINE
8
BLACK
6
CONTINUOUS
10
0.374894
20
0.182113
11
0.371941
21
0.181322
0
LINE
8
BLACK
6
CONTINUOUS
10
0.371941
20
0.181322
11
0.358162
21
0.181322
0
LINE
8
BLACK
6
CONTINUOUS
10
0.358162
20
0.181322
11
0.358162
21
0.1622
0
LINE
8
BLACK
6
CONTINUOUS
10
0.358162
20
0.1622
11
0.380378
21
0.1622
0
LINE
8
BLACK
6
CONTINUOUS
10
0.380378
20
0.1622
11
0.383331
21
0.161409
0
LINE
8
BLACK
6
CONTINUOUS
10
0.383331
20
0.161409
11
0.385492
21
0.159247
0
LINE
8
BLACK
6
CONTINUOUS
10
0.385492
20
0.159247
11
0.386283
21
0.156294
0
LINE
8
BLACK
6
CONTINUOUS
10
0.386283
20
0.156294
11
0.385492
21
0.153341
0
LINE
8
BLACK
6
CONTINUOUS
10
0.385492
20
0.153341
11
0.383331
21
0.15118
0
LINE
8
BLACK
6
CONTINUOUS
10
0.383331
20
0.15118
11
0.380378
21
0.150389
0
LINE
8
BLACK
6
CONTINUOUS
10
0.380378
20
0.150389
11
0.352256
21
0.150389
0
LINE
8
BLACK
6
CONTINUOUS
10
0.352256
20
0.150389
11
0.349304
21
0.15118
0
LINE
8
BLACK
6
CONTINUOUS
10
0.349304
20
0.15118
11
0.347142
21
0.153341
0
LINE
8
BLACK
6
CONTINUOUS
10
0.347142
20
0.153341
11
0.346351
21
0.156294
0
LINE
8
BLACK
6
CONTINUOUS
10
0.346351
20
0.156294
11
0.346351
21
0.215349
0
LINE
8
BLACK
6
CONTINUOUS
10
0.346351
20
0.215349
11
0.347142
21
0.218302
0
LINE
8
BLACK
6
CONTINUOUS
10
0.347142
20
0.218302
11
0.349304
21
0.220464
0
LINE
8
BLACK
6
CONTINUOUS
10
0.349304
20
0.220464
11
0.352256
21
0.221255
0
LINE
8
BLACK
6
CONTINUOUS
10
0.352256
20
0.221255
11
0.380378
21
0.221255
0
LINE
8
BLACK
6
CONTINUOUS
10
0.380378
20
0.221255
11
0.383331
21
0.220464
0
LINE
8
BLACK
6
CONTINUOUS
10
0.429495
20
0.220904
11
0.430825
21
0.220631
0
LINE
8
BLACK
6
CONTINUOUS
10
0.430825
20
0.220631
11
0.43645
21
0.217819
0
LINE
8
BLACK
6
CONTINUOUS
10
0.43645
20
0.217819
11
0.437161
21
0.217188
0
LINE
8
BLACK
6
CONTINUOUS
10
0.437161
20
0.217188
11
0.437984
21
0.216713
0
LINE
8
BLACK
6
CONTINUOUS
10
0.437984
20
0.216713
11
0.440797
21
0.213901
0
LINE
8
BLACK
6
CONTINUOUS
10
0.440797
20
0.213901
11
0.441272
21
0.213077
0
LINE
8
BLACK
6
CONTINUOUS
10
0.441272
20
0.213077
11
0.441903
21
0.212366
0
LINE
8
BLACK
6
CONTINUOUS
10
0.441903
20
0.212366
11
0.444715
21
0.206742
0
LINE
8
BLACK
6
CONTINUOUS
10
0.444715
20
0.206742
11
0.444987
21
0.205412
0
LINE
8
BLACK
6
CONTINUOUS
10
0.444987
20
0.205412
11
0.445338
21
0.204101
0
LINE
8
BLACK
6
CONTINUOUS
10
0.445338
20
0.204101
11
0.445338
21
0.195664
0
LINE
8
BLACK
6
CONTINUOUS
10
0.445338
20
0.195664
11
0.444987
21
0.194353
0
LINE
8
BLACK
6
CONTINUOUS
10
0.444987
20
0.194353
11
0.444715
21
0.193023
0
LINE
8
BLACK
6
CONTINUOUS
10
0.444715
20
0.193023
11
0.441903
21
0.187399
0
LINE
8
BLACK
6
CONTINUOUS
10
0.441903
20
0.187399
11
0.441272
21
0.186688
0
LINE
8
BLACK
6
CONTINUOUS
10
0.441272
20
0.186688
11
0.440797
21
0.185864
0
LINE
8
BLACK
6
CONTINUOUS
10
0.440797
20
0.185864
11
0.437984
21
0.183052
0
LINE
8
BLACK
6
CONTINUOUS
10
0.437984
20
0.183052
11
0.437161
21
0.182577
0
LINE
8
BLACK
6
CONTINUOUS
10
0.437161
20
0.182577
11
0.43645
21
0.181946
0
LINE
8
BLACK
6
CONTINUOUS
10
0.43645
20
0.181946
11
0.430825
21
0.179134
0
LINE
8
BLACK
6
CONTINUOUS
10
0.430825
20
0.179134
11
0.430675
21
0.179103
0
LINE
8
BLACK
6
CONTINUOUS
10
0.430675
20
0.179103
11
0.444271
21
0.159681
0
LINE
8
BLACK
6
CONTINUOUS
10
0.444271
20
0.159681
11
0.445316
21
0.156808
0
LINE
8
BLACK
6
CONTINUOUS
10
0.445316
20
0.156808
11
0.444785
21
0.153798
0
LINE
8
BLACK
6
CONTINUOUS
10
0.444785
20
0.153798
11
0.442819
21
0.151456
0
LINE
8
BLACK
6
CONTINUOUS
10
0.442819
20
0.151456
11
0.439947
21
0.150411
0
LINE
8
BLACK
6
CONTINUOUS
10
0.439947
20
0.150411
11
0.436936
21
0.150942
0
LINE
8
BLACK
6
CONTINUOUS
10
0.436936
20
0.150942
11
0.434595
21
0.152908
0
LINE
8
BLACK
6
CONTINUOUS
10
0.434595
20
0.152908
11
0.416673
21
0.17851
0
LINE
8
BLACK
6
CONTINUOUS
10
0.416673
20
0.17851
11
0.411593
21
0.17851
0
LINE
8
BLACK
6
CONTINUOUS
10
0.411593
20
0.17851
11
0.411593
21
0.156294
0
LINE
8
BLACK
6
CONTINUOUS
10
0.411593
20
0.156294
11
0.410801
21
0.153341
0
LINE
8
BLACK
6
CONTINUOUS
10
0.410801
20
0.153341
11
0.40864
21
0.15118
0
LINE
8
BLACK
6
CONTINUOUS
10
0.40864
20
0.15118
11
0.405687
21
0.150389
0
LINE
8
BLACK
6
CONTINUOUS
10
0.405687
20
0.150389
11
0.402734
21
0.15118
0
LINE
8
BLACK
6
CONTINUOUS
10
0.402734
20
0.15118
11
0.400573
21
0.153341
0
LINE
8
BLACK
6
CONTINUOUS
10
0.400573
20
0.153341
11
0.399782
21
0.156294
0
LINE
8
BLACK
6
CONTINUOUS
10
0.399782
20
0.156294
11
0.399782
21
0.215349
0
LINE
8
BLACK
6
CONTINUOUS
10
0.399782
20
0.215349
11
0.400573
21
0.218302
0
LINE
8
BLACK
6
CONTINUOUS
10
0.400573
20
0.218302
11
0.402734
21
0.220464
0
LINE
8
BLACK
6
CONTINUOUS
10
0.402734
20
0.220464
11
0.405687
21
0.221255
0
LINE
8
BLACK
6
CONTINUOUS
10
0.405687
20
0.221255
11
0.428184
21
0.221255
0
LINE
8
BLACK
6
CONTINUOUS
10
0.428184
20
0.221255
11
0.429495
21
0.220904
0
LINE
8
BLACK
6
CONTINUOUS
10
0.411593
20
0.190321
11
0.42679
21
0.190321
0
LINE
8
BLACK
6
CONTINUOUS
10
0.42679
20
0.190321
11
0.43031
21
0.192081
0
LINE
8
BLACK
6
CONTINUOUS
10
0.43031
20
0.192081
11
0.431767
21
0.193538
0
LINE
8
BLACK
6
CONTINUOUS
10
0.431767
20
0.193538
11
0.433527
21
0.197058
0
LINE
8
BLACK
6
CONTINUOUS
10
0.433527
20
0.197058
11
0.433527
21
0.202707
0
LINE
8
BLACK
6
CONTINUOUS
10
0.433527
20
0.202707
11
0.431767
21
0.206227
0
LINE
8
BLACK
6
CONTINUOUS
10
0.431767
20
0.206227
11
0.43031
21
0.207684
0
LINE
8
BLACK
6
CONTINUOUS
10
0.43031
20
0.207684
11
0.42679
21
0.209444
0
LINE
8
BLACK
6
CONTINUOUS
10
0.42679
20
0.209444
11
0.411593
21
0.209444
0
LINE
8
BLACK
6
CONTINUOUS
10
0.411593
20
0.209444
11
0.411593
21
0.190321
0
LINE
8
BLACK
6
CONTINUOUS
10
0.493004
20
0.220464
11
0.495166
21
0.218302
0
LINE
8
BLACK
6
CONTINUOUS
10
0.495166
20
0.218302
11
0.495957
21
0.215349
0
LINE
8
BLACK
6
CONTINUOUS
10
0.495957
20
0.215349
11
0.495166
21
0.212397
0
LINE
8
BLACK
6
CONTINUOUS
10
0.495166
20
0.212397
11
0.493004
21
0.210235
0
LINE
8
BLACK
6
CONTINUOUS
10
0.493004
20
0.210235
11
0.490052
21
0.209444
0
LINE
8
BLACK
6
CONTINUOUS
10
0.490052
20
0.209444
11
0.479084
21
0.209444
0
LINE
8
BLACK
6
CONTINUOUS
10
0.479084
20
0.209444
11
0.479084
21
0.156294
0
LINE
8
BLACK
6
CONTINUOUS
10
0.479084
20
0.156294
11
0.478293
21
0.153341
0
LINE
8
BLACK
6
CONTINUOUS
10
0.478293
20
0.153341
11
0.476131
21
0.15118
0
LINE
8
BLACK
6
CONTINUOUS
10
0.476131
20
0.15118
11
0.473179
21
0.150389
0
LINE
8
BLACK
6
CONTINUOUS
10
0.473179
20
0.150389
11
0.470226
21
0.15118
0
LINE
8
BLACK
6
CONTINUOUS
10
0.470226
20
0.15118
11
0.468064
21
0.153341
0
LINE
8
BLACK
6
CONTINUOUS
10
0.468064
20
0.153341
11
0.467273
21
0.156294
0
LINE
8
BLACK
6
CONTINUOUS
10
0.467273
20
0.156294
11
0.467273
21
0.209444
0
LINE
8
BLACK
6
CONTINUOUS
10
0.467273
20
0.209444
11
0.456306
21
0.209444
0
LINE
8
BLACK
6
CONTINUOUS
10
0.456306
20
0.209444
11
0.453353
21
0.210235
0
LINE
8
BLACK
6
CONTINUOUS
10
0.453353
20
0.210235
11
0.451191
21
0.212397
0
LINE
8
BLACK
6
CONTINUOUS
10
0.451191
20
0.212397
11
0.4504
21
0.215349
0
LINE
8
BLACK
6
CONTINUOUS
10
0.4504
20
0.215349
11
0.451191
21
0.218302
0
LINE
8
BLACK
6
CONTINUOUS
10
0.451191
20
0.218302
11
0.453353
21
0.220464
0
LINE
8
BLACK
6
CONTINUOUS
10
0.453353
20
0.220464
11
0.456306
21
0.221255
0
LINE
8
BLACK
6
CONTINUOUS
10
0.456306
20
0.221255
11
0.490052
21
0.221255
0
LINE
8
BLACK
6
CONTINUOUS
10
0.490052
20
0.221255
11
0.493004
21
0.220464
0
LINE
8
BLACK
6
CONTINUOUS
10
0.266587
20
0.220973
11
0.266947
21
0.220952
0
LINE
8
BLACK
6
CONTINUOUS
10
0.266947
20
0.220952
11
0.267937
21
0.220298
0
LINE
8
BLACK
6
CONTINUOUS
10
0.267937
20
0.220298
11
0.268998
21
0.219768
0
LINE
8
BLACK
6
CONTINUOUS
10
0.268998
20
0.219768
11
0.269197
21
0.219466
0
LINE
8
BLACK
6
CONTINUOUS
10
0.269197
20
0.219466
11
0.269498
21
0.219267
0
LINE
8
BLACK
6
CONTINUOUS
10
0.269498
20
0.219267
11
0.270029
21
0.218206
0
LINE
8
BLACK
6
CONTINUOUS
10
0.270029
20
0.218206
11
0.270682
21
0.217217
0
LINE
8
BLACK
6
CONTINUOUS
10
0.270682
20
0.217217
11
0.290367
21
0.158162
0
LINE
8
BLACK
6
CONTINUOUS
10
0.290367
20
0.158162
11
0.29055
21
0.15511
0
LINE
8
BLACK
6
CONTINUOUS
10
0.29055
20
0.15511
11
0.289183
21
0.152376
0
LINE
8
BLACK
6
CONTINUOUS
10
0.289183
20
0.152376
11
0.286632
21
0.150692
0
LINE
8
BLACK
6
CONTINUOUS
10
0.286632
20
0.150692
11
0.283581
21
0.150509
0
LINE
8
BLACK
6
CONTINUOUS
10
0.283581
20
0.150509
11
0.280847
21
0.151876
0
LINE
8
BLACK
6
CONTINUOUS
10
0.280847
20
0.151876
11
0.279162
21
0.154427
0
LINE
8
BLACK
6
CONTINUOUS
10
0.279162
20
0.154427
11
0.274884
21
0.167262
0
LINE
8
BLACK
6
CONTINUOUS
10
0.274884
20
0.167262
11
0.255275
21
0.167262
0
LINE
8
BLACK
6
CONTINUOUS
10
0.255275
20
0.167262
11
0.250997
21
0.154427
0
LINE
8
BLACK
6
CONTINUOUS
10
0.250997
20
0.154427
11
0.249313
21
0.151876
0
LINE
8
BLACK
6
CONTINUOUS
10
0.249313
20
0.151876
11
0.246579
21
0.150509
0
LINE
8
BLACK
6
CONTINUOUS
10
0.246579
20
0.150509
11
0.243527
21
0.150692
0
LINE
8
BLACK
6
CONTINUOUS
10
0.243527
20
0.150692
11
0.240976
21
0.152376
0
LINE
8
BLACK
6
CONTINUOUS
10
0.240976
20
0.152376
11
0.239609
21
0.15511
0
LINE
8
BLACK
6
CONTINUOUS
10
0.239609
20
0.15511
11
0.239792
21
0.158162
0
LINE
8
BLACK
6
CONTINUOUS
10
0.239792
20
0.158162
11
0.259477
21
0.217217
0
LINE
8
BLACK
6
CONTINUOUS
10
0.259477
20
0.217217
11
0.260131
21
0.218207
0
LINE
8
BLACK
6
CONTINUOUS
10
0.260131
20
0.218207
11
0.260661
21
0.219267
0
LINE
8
BLACK
6
CONTINUOUS
10
0.260661
20
0.219267
11
0.260963
21
0.219466
0
LINE
8
BLACK
6
CONTINUOUS
10
0.260963
20
0.219466
11
0.261162
21
0.219768
0
LINE
8
BLACK
6
CONTINUOUS
10
0.261162
20
0.219768
11
0.262223
21
0.220298
0
LINE
8
BLACK
6
CONTINUOUS
10
0.262223
20
0.220298
11
0.263212
21
0.220952
0
LINE
8
BLACK
6
CONTINUOUS
10
0.263212
20
0.220952
11
0.263573
21
0.220973
0
LINE
8
BLACK
6
CONTINUOUS
10
0.263573
20
0.220973
11
0.263896
21
0.221135
0
LINE
8
BLACK
6
CONTINUOUS
10
0.263896
20
0.221135
11
0.26508
21
0.221064
0
LINE
8
BLACK
6
CONTINUOUS
10
0.26508
20
0.221064
11
0.266264
21
0.221135
0
LINE
8
BLACK
6
CONTINUOUS
10
0.266264
20
0.221135
11
0.266587
21
0.220973
0
LINE
8
BLACK
6
CONTINUOUS
10
0.259212
20
0.179073
11
0.270947
21
0.179073
0
LINE
8
BLACK
6
CONTINUOUS
10
0.270947
20
0.179073
11
0.26508
21
0.196674
0
LINE
8
BLACK
6
CONTINUOUS
10
0.26508
20
0.196674
11
0.259212
21
0.179073
0
LINE
8
BLACK
6
CONTINUOUS
10
0.670603
20
0.196385
11
0.672765
21
0.194224
0
LINE
8
BLACK
6
CONTINUOUS
10
0.672765
20
0.194224
11
0.673556
21
0.191271
0
LINE
8
BLACK
6
CONTINUOUS
10
0.673556
20
0.191271
11
0.673556
21
0.169055
0
LINE
8
BLACK
6
CONTINUOUS
10
0.673556
20
0.169055
11
0.689867
21
0.169055
0
LINE
8
BLACK
6
CONTINUOUS
10
0.689867
20
0.169055
11
0.689867
21
0.182835
0
LINE
8
BLACK
6
CONTINUOUS
10
0.689867
20
0.182835
11
0.690658
21
0.185787
0
LINE
8
BLACK
6
CONTINUOUS
10
0.690658
20
0.185787
11
0.692819
21
0.187949
0
LINE
8
BLACK
6
CONTINUOUS
10
0.692819
20
0.187949
11
0.695772
21
0.18874
0
LINE
8
BLACK
6
CONTINUOUS
10
0.695772
20
0.18874
11
0.698725
21
0.187949
0
LINE
8
BLACK
6
CONTINUOUS
10
0.698725
20
0.187949
11
0.700887
21
0.185787
0
LINE
8
BLACK
6
CONTINUOUS
10
0.700887
20
0.185787
11
0.701678
21
0.182835
0
LINE
8
BLACK
6
CONTINUOUS
10
0.701678
20
0.182835
11
0.701678
21
0.169055
0
LINE
8
BLACK
6
CONTINUOUS
10
0.701678
20
0.169055
11
0.726706
21
0.169055
0
LINE
8
BLACK
6
CONTINUOUS
10
0.726706
20
0.169055
11
0.729659
21
0.168264
0
LINE
8
BLACK
6
CONTINUOUS
10
0.729659
20
0.168264
11
0.73182
21
0.166102
0
LINE
8
BLACK
6
CONTINUOUS
10
0.73182
20
0.166102
11
0.732611
21
0.16315
0
LINE
8
BLACK
6
CONTINUOUS
10
0.732611
20
0.16315
11
0.73182
21
0.160197
0
LINE
8
BLACK
6
CONTINUOUS
10
0.73182
20
0.160197
11
0.729659
21
0.158035
0
LINE
8
BLACK
6
CONTINUOUS
10
0.729659
20
0.158035
11
0.726706
21
0.157244
0
LINE
8
BLACK
6
CONTINUOUS
10
0.726706
20
0.157244
11
0.695772
21
0.157244
0
LINE
8
BLACK
6
CONTINUOUS
10
0.695772
20
0.157244
11
0.667651
21
0.157244
0
LINE
8
BLACK
6
CONTINUOUS
10
0.667651
20
0.157244
11
0.664698
21
0.158035
0
LINE
8
BLACK
6
CONTINUOUS
10
0.664698
20
0.158035
11
0.662536
21
0.160197
0
LINE
8
BLACK
6
CONTINUOUS
10
0.662536
20
0.160197
11
0.661745
21
0.16315
0
LINE
8
BLACK
6
CONTINUOUS
10
0.661745
20
0.16315
11
0.661745
21
0.191271
0
LINE
8
BLACK
6
CONTINUOUS
10
0.661745
20
0.191271
11
0.662536
21
0.194224
0
LINE
8
BLACK
6
CONTINUOUS
10
0.662536
20
0.194224
11
0.664698
21
0.196385
0
LINE
8
BLACK
6
CONTINUOUS
10
0.664698
20
0.196385
11
0.667651
21
0.197177
0
LINE
8
BLACK
6
CONTINUOUS
10
0.667651
20
0.197177
11
0.670603
21
0.196385
0
LINE
8
BLACK
6
CONTINUOUS
10
1.05306
20
0.220392
11
1.05737
21
0.220364
0
LINE
8
BLACK
6
CONTINUOUS
10
1.05737
20
0.220364
11
1.06102
21
0.220337
0
LINE
8
BLACK
6
CONTINUOUS
10
1.06102
20
0.220337
11
1.06408
21
0.220309
0
LINE
8
BLACK
6
CONTINUOUS
10
1.06408
20
0.220309
11
1.06661
21
0.220276
0
LINE
8
BLACK
6
CONTINUOUS
10
1.06661
20
0.220276
11
1.06867
21
0.220237
0
LINE
8
BLACK
6
CONTINUOUS
10
1.06867
20
0.220237
11
1.07033
21
0.220189
0
LINE
8
BLACK
6
CONTINUOUS
10
1.07033
20
0.220189
11
1.07164
21
0.220128
0
LINE
8
BLACK
6
CONTINUOUS
10
1.07164
20
0.220128
11
1.07269
21
0.220052
0
LINE
8
BLACK
6
CONTINUOUS
10
1.07269
20
0.220052
11
1.07352
21
0.21996
0
LINE
8
BLACK
6
CONTINUOUS
10
1.07352
20
0.21996
11
1.0742
21
0.219847
0
LINE
8
BLACK
6
CONTINUOUS
10
1.0742
20
0.219847
11
1.0748
21
0.219711
0
LINE
8
BLACK
6
CONTINUOUS
10
1.0748
20
0.219711
11
1.07539
21
0.219549
0
LINE
8
BLACK
6
CONTINUOUS
10
1.07539
20
0.219549
11
1.07574
21
0.219444
0
LINE
8
BLACK
6
CONTINUOUS
10
1.07574
20
0.219444
11
1.07968
21
0.217931
0
LINE
8
BLACK
6
CONTINUOUS
10
1.07968
20
0.217931
11
1.0831
21
0.21595
0
LINE
8
BLACK
6
CONTINUOUS
10
1.0831
20
0.21595
11
1.08598
21
0.213521
0
LINE
8
BLACK
6
CONTINUOUS
10
1.08598
20
0.213521
11
1.0883
21
0.210666
0
LINE
8
BLACK
6
CONTINUOUS
10
1.0883
20
0.210666
11
1.09004
21
0.207407
0
LINE
8
BLACK
6
CONTINUOUS
10
1.09004
20
0.207407
11
1.09076
21
0.205342
0
LINE
8
BLACK
6
CONTINUOUS
10
1.09076
20
0.205342
11
1.09109
21
0.203961
0
LINE
8
BLACK
6
CONTINUOUS
10
1.09109
20
0.203961
11
1.09141
21
0.202152
0
LINE
8
BLACK
6
CONTINUOUS
10
1.09141
20
0.202152
11
1.09168
21
0.200173
0
LINE
8
BLACK
6
CONTINUOUS
10
1.09168
20
0.200173
11
1.09188
21
0.198281
0
LINE
8
BLACK
6
CONTINUOUS
10
1.09188
20
0.198281
11
1.09197
21
0.196733
0
LINE
8
BLACK
6
CONTINUOUS
10
1.09197
20
0.196733
11
1.09197
21
0.196266
0
LINE
8
BLACK
6
CONTINUOUS
10
1.09197
20
0.196266
11
1.0919
21
0.195236
0
LINE
8
BLACK
6
CONTINUOUS
10
1.0919
20
0.195236
11
1.09177
21
0.193815
0
LINE
8
BLACK
6
CONTINUOUS
10
1.09177
20
0.193815
11
1.09163
21
0.192482
0
LINE
8
BLACK
6
CONTINUOUS
10
1.09163
20
0.192482
11
1.09085
21
0.188533
0
LINE
8
BLACK
6
CONTINUOUS
10
1.09085
20
0.188533
11
1.08947
21
0.184948
0
LINE
8
BLACK
6
CONTINUOUS
10
1.08947
20
0.184948
11
1.08753
21
0.18177
0
LINE
8
BLACK
6
CONTINUOUS
10
1.08753
20
0.18177
11
1.08506
21
0.179042
0
LINE
8
BLACK
6
CONTINUOUS
10
1.08506
20
0.179042
11
1.08208
21
0.176805
0
LINE
8
BLACK
6
CONTINUOUS
10
1.08208
20
0.176805
11
1.08034
21
0.175847
0
LINE
8
BLACK
6
CONTINUOUS
10
1.08034
20
0.175847
11
1.07895
21
0.175205
0
LINE
8
BLACK
6
CONTINUOUS
10
1.07895
20
0.175205
11
1.07757
21
0.174656
0
LINE
8
BLACK
6
CONTINUOUS
10
1.07757
20
0.174656
11
1.07612
21
0.174192
0
LINE
8
BLACK
6
CONTINUOUS
10
1.07612
20
0.174192
11
1.07455
21
0.173808
0
LINE
8
BLACK
6
CONTINUOUS
10
1.07455
20
0.173808
11
1.07279
21
0.173498
0
LINE
8
BLACK
6
CONTINUOUS
10
1.07279
20
0.173498
11
1.07076
21
0.173254
0
LINE
8
BLACK
6
CONTINUOUS
10
1.07076
20
0.173254
11
1.06842
21
0.17307
0
LINE
8
BLACK
6
CONTINUOUS
10
1.06842
20
0.17307
11
1.06568
21
0.17294
0
LINE
8
BLACK
6
CONTINUOUS
10
1.06568
20
0.17294
11
1.06248
21
0.172858
0
LINE
8
BLACK
6
CONTINUOUS
10
1.06248
20
0.172858
11
1.05877
21
0.172817
0
LINE
8
BLACK
6
CONTINUOUS
10
1.05877
20
0.172817
11
1.05446
21
0.172811
0
LINE
8
BLACK
6
CONTINUOUS
10
1.05446
20
0.172811
11
1.0495
21
0.172833
0
LINE
8
BLACK
6
CONTINUOUS
10
1.0495
20
0.172833
11
1.04935
21
0.172834
0
LINE
8
BLACK
6
CONTINUOUS
10
1.04935
20
0.172834
11
1.03327
21
0.172938
0
LINE
8
BLACK
6
CONTINUOUS
10
1.03327
20
0.172938
11
1.03317
21
0.178271
0
LINE
8
BLACK
6
CONTINUOUS
10
1.03317
20
0.178271
11
1.03307
21
0.183603
0
LINE
8
BLACK
6
CONTINUOUS
10
1.03307
20
0.183603
11
1.05004
21
0.183603
0
LINE
8
BLACK
6
CONTINUOUS
10
1.05004
20
0.183603
11
1.05412
21
0.183612
0
LINE
8
BLACK
6
CONTINUOUS
10
1.05412
20
0.183612
11
1.05788
21
0.183638
0
LINE
8
BLACK
6
CONTINUOUS
10
1.05788
20
0.183638
11
1.06126
21
0.183679
0
LINE
8
BLACK
6
CONTINUOUS
10
1.06126
20
0.183679
11
1.06419
21
0.183734
0
LINE
8
BLACK
6
CONTINUOUS
10
1.06419
20
0.183734
11
1.06661
21
0.183802
0
LINE
8
BLACK
6
CONTINUOUS
10
1.06661
20
0.183802
11
1.06845
21
0.183881
0
LINE
8
BLACK
6
CONTINUOUS
10
1.06845
20
0.183881
11
1.06964
21
0.183971
0
LINE
8
BLACK
6
CONTINUOUS
10
1.06964
20
0.183971
11
1.06981
21
0.183992
0
LINE
8
BLACK
6
CONTINUOUS
10
1.06981
20
0.183992
11
1.07315
21
0.184667
0
LINE
8
BLACK
6
CONTINUOUS
10
1.07315
20
0.184667
11
1.07586
21
0.185701
0
LINE
8
BLACK
6
CONTINUOUS
10
1.07586
20
0.185701
11
1.078
21
0.187129
0
LINE
8
BLACK
6
CONTINUOUS
10
1.078
20
0.187129
11
1.0796
21
0.188986
0
LINE
8
BLACK
6
CONTINUOUS
10
1.0796
20
0.188986
11
1.08069
21
0.191309
0
LINE
8
BLACK
6
CONTINUOUS
10
1.08069
20
0.191309
11
1.08131
21
0.194132
0
LINE
8
BLACK
6
CONTINUOUS
10
1.08131
20
0.194132
11
1.08146
21
0.195936
0
LINE
8
BLACK
6
CONTINUOUS
10
1.08146
20
0.195936
11
1.08138
21
0.199233
0
LINE
8
BLACK
6
CONTINUOUS
10
1.08138
20
0.199233
11
1.08083
21
0.20201
0
LINE
8
BLACK
6
CONTINUOUS
10
1.08083
20
0.20201
11
1.07977
21
0.20431
0
LINE
8
BLACK
6
CONTINUOUS
10
1.07977
20
0.20431
11
1.07816
21
0.206179
0
LINE
8
BLACK
6
CONTINUOUS
10
1.07816
20
0.206179
11
1.07597
21
0.207662
0
LINE
8
BLACK
6
CONTINUOUS
10
1.07597
20
0.207662
11
1.07318
21
0.208804
0
LINE
8
BLACK
6
CONTINUOUS
10
1.07318
20
0.208804
11
1.07231
21
0.209062
0
LINE
8
BLACK
6
CONTINUOUS
10
1.07231
20
0.209062
11
1.07169
21
0.209221
0
LINE
8
BLACK
6
CONTINUOUS
10
1.07169
20
0.209221
11
1.07103
21
0.209355
0
LINE
8
BLACK
6
CONTINUOUS
10
1.07103
20
0.209355
11
1.07025
21
0.209467
0
LINE
8
BLACK
6
CONTINUOUS
10
1.07025
20
0.209467
11
1.06931
21
0.209561
0
LINE
8
BLACK
6
CONTINUOUS
10
1.06931
20
0.209561
11
1.06811
21
0.209637
0
LINE
8
BLACK
6
CONTINUOUS
10
1.06811
20
0.209637
11
1.06661
21
0.2097
0
LINE
8
BLACK
6
CONTINUOUS
10
1.06661
20
0.2097
11
1.06473
21
0.209752
0
LINE
8
BLACK
6
CONTINUOUS
10
1.06473
20
0.209752
11
1.0624
21
0.209795
0
LINE
8
BLACK
6
CONTINUOUS
10
1.0624
20
0.209795
11
1.05957
21
0.209833
0
LINE
8
BLACK
6
CONTINUOUS
10
1.05957
20
0.209833
11
1.05615
21
0.209868
0
LINE
8
BLACK
6
CONTINUOUS
10
1.05615
20
0.209868
11
1.05209
21
0.209902
0
LINE
8
BLACK
6
CONTINUOUS
10
1.05209
20
0.209902
11
1.05143
21
0.209907
0
LINE
8
BLACK
6
CONTINUOUS
10
1.05143
20
0.209907
11
1.03309
21
0.210053
0
LINE
8
BLACK
6
CONTINUOUS
10
1.03309
20
0.210053
11
1.03309
21
0.220519
0
LINE
8
BLACK
6
CONTINUOUS
10
1.03309
20
0.220519
11
1.05306
21
0.220392
0
LINE
8
BLACK
6
CONTINUOUS
10
0.0188829
20
0.413678
11
0.0195748
21
0.412008
0
LINE
8
BLACK
6
CONTINUOUS
10
0.0195748
20
0.412008
11
0.0195748
21
0.178543
0
LINE
8
BLACK
6
CONTINUOUS
10
0.0195748
20
0.178543
11
0.0188829
21
0.176873
0
LINE
8
BLACK
6
CONTINUOUS
10
0.0188829
20
0.176873
11
0.0172126
21
0.176181
0
LINE
8
BLACK
6
CONTINUOUS
10
0.0172126
20
0.176181
11
0.0155423
21
0.176873
0
LINE
8
BLACK
6
CONTINUOUS
10
0.0155423
20
0.176873
11
0.0148504
21
0.178543
0
LINE
8
BLACK
6
CONTINUOUS
10
0.0148504
20
0.178543
11
0.0148504
21
0.412008
0
LINE
8
BLACK
6
CONTINUOUS
10
0.0148504
20
0.412008
11
0.0155423
21
0.413678
0
LINE
8
BLACK
6
CONTINUOUS
10
0.0155423
20
0.413678
11
0.0172126
21
0.41437
0
LINE
8
BLACK
6
CONTINUOUS
10
0.0172126
20
0.41437
11
0.0188829
21
0.413678
0
LINE
8
BLACK
6
CONTINUOUS
10
0.729659
20
0.252628
11
0.73182
21
0.250467
0
LINE
8
BLACK
6
CONTINUOUS
10
0.73182
20
0.250467
11
0.732611
21
0.247514
0
LINE
8
BLACK
6
CONTINUOUS
10
0.732611
20
0.247514
11
0.73182
21
0.244561
0
LINE
8
BLACK
6
CONTINUOUS
10
0.73182
20
0.244561
11
0.729659
21
0.2424
0
LINE
8
BLACK
6
CONTINUOUS
10
0.729659
20
0.2424
11
0.726706
21
0.241609
0
LINE
8
BLACK
6
CONTINUOUS
10
0.726706
20
0.241609
11
0.701678
21
0.241609
0
LINE
8
BLACK
6
CONTINUOUS
10
0.701678
20
0.241609
11
0.701678
21
0.219674
0
LINE
8
BLACK
6
CONTINUOUS
10
0.701678
20
0.219674
11
0.726706
21
0.219674
0
LINE
8
BLACK
6
CONTINUOUS
10
0.726706
20
0.219674
11
0.729659
21
0.218883
0
LINE
8
BLACK
6
CONTINUOUS
10
0.729659
20
0.218883
11
0.73182
21
0.216721
0
LINE
8
BLACK
6
CONTINUOUS
10
0.73182
20
0.216721
11
0.732611
21
0.213768
0
LINE
8
BLACK
6
CONTINUOUS
10
0.732611
20
0.213768
11
0.73182
21
0.210816
0
LINE
8
BLACK
6
CONTINUOUS
10
0.73182
20
0.210816
11
0.729659
21
0.208654
0
LINE
8
BLACK
6
CONTINUOUS
10
0.729659
20
0.208654
11
0.726706
21
0.207863
0
LINE
8
BLACK
6
CONTINUOUS
10
0.726706
20
0.207863
11
0.695772
21
0.207863
0
LINE
8
BLACK
6
CONTINUOUS
10
0.695772
20
0.207863
11
0.667651
21
0.207863
0
LINE
8
BLACK
6
CONTINUOUS
10
0.667651
20
0.207863
11
0.664698
21
0.208654
0
LINE
8
BLACK
6
CONTINUOUS
10
0.664698
20
0.208654
11
0.662536
21
0.210816
0
LINE
8
BLACK
6
CONTINUOUS
10
0.662536
20
0.210816
11
0.661745
21
0.213768
0
LINE
8
BLACK
6
CONTINUOUS
10
0.661745
20
0.213768
11
0.662536
21
0.216721
0
LINE
8
BLACK
6
CONTINUOUS
10
0.662536
20
0.216721
11
0.664698
21
0.218883
0
LINE
8
BLACK
6
CONTINUOUS
10
0.664698
20
0.218883
11
0.667651
21
0.219674
0
LINE
8
BLACK
6
CONTINUOUS
10
0.667651
20
0.219674
11
0.689867
21
0.219674
0
LINE
8
BLACK
6
CONTINUOUS
10
0.689867
20
0.219674
11
0.689867
21
0.241609
0
LINE
8
BLACK
6
CONTINUOUS
10
0.689867
20
0.241609
11
0.667651
21
0.241609
0
LINE
8
BLACK
6
CONTINUOUS
10
0.667651
20
0.241609
11
0.664698
21
0.2424
0
LINE
8
BLACK
6
CONTINUOUS
10
0.664698
20
0.2424
11
0.662536
21
0.244561
0
LINE
8
BLACK
6
CONTINUOUS
10
0.662536
20
0.244561
11
0.661745
21
0.247514
0
LINE
8
BLACK
6
CONTINUOUS
10
0.661745
20
0.247514
11
0.662536
21
0.250467
0
LINE
8
BLACK
6
CONTINUOUS
10
0.662536
20
0.250467
11
0.664698
21
0.252628
0
LINE
8
BLACK
6
CONTINUOUS
10
0.664698
20
0.252628
11
0.667651
21
0.25342
0
LINE
8
BLACK
6
CONTINUOUS
10
0.667651
20
0.25342
11
0.726706
21
0.25342
0
LINE
8
BLACK
6
CONTINUOUS
10
0.726706
20
0.25342
11
0.729659
21
0.252628
0
LINE
8
BLACK
6
CONTINUOUS
10
1.09057
20
0.267841
11
1.07118
21
0.254916
0
LINE
8
BLACK
6
CONTINUOUS
10
1.07118
20
0.254916
11
1.05179
21
0.241991
0
LINE
8
BLACK
6
CONTINUOUS
10
1.05179
20
0.241991
11
1.07118
21
0.241897
0
LINE
8
BLACK
6
CONTINUOUS
10
1.07118
20
0.241897
11
1.09057
21
0.241804
0
LINE
8
BLACK
6
CONTINUOUS
10
1.09057
20
0.241804
11
1.09057
21
0.231326
0
LINE
8
BLACK
6
CONTINUOUS
10
1.09057
20
0.231326
11
1.03309
21
0.231326
0
LINE
8
BLACK
6
CONTINUOUS
10
1.03309
20
0.231326
11
1.03309
21
0.236477
0
LINE
8
BLACK
6
CONTINUOUS
10
1.03309
20
0.236477
11
1.03309
21
0.241629
0
LINE
8
BLACK
6
CONTINUOUS
10
1.03309
20
0.241629
11
1.0514
21
0.253741
0
LINE
8
BLACK
6
CONTINUOUS
10
1.0514
20
0.253741
11
1.06971
21
0.265852
0
LINE
8
BLACK
6
CONTINUOUS
10
1.06971
20
0.265852
11
1.05139
21
0.265946
0
LINE
8
BLACK
6
CONTINUOUS
10
1.05139
20
0.265946
11
1.03307
21
0.266039
0
LINE
8
BLACK
6
CONTINUOUS
10
1.03307
20
0.266039
11
1.03327
21
0.276698
0
LINE
8
BLACK
6
CONTINUOUS
10
1.03327
20
0.276698
11
1.06192
21
0.276791
0
LINE
8
BLACK
6
CONTINUOUS
10
1.06192
20
0.276791
11
1.09057
21
0.276883
0
LINE
8
BLACK
6
CONTINUOUS
10
1.09057
20
0.276883
11
1.09057
21
0.267841
0
LINE
8
BLACK
6
CONTINUOUS
10
0.670603
20
0.306059
11
0.672765
21
0.303898
0
LINE
8
BLACK
6
CONTINUOUS
10
0.672765
20
0.303898
11
0.673556
21
0.300945
0
LINE
8
BLACK
6
CONTINUOUS
10
0.673556
20
0.300945
11
0.673556
21
0.289978
0
LINE
8
BLACK
6
CONTINUOUS
10
0.673556
20
0.289978
11
0.726706
21
0.289978
0
LINE
8
BLACK
6
CONTINUOUS
10
0.726706
20
0.289978
11
0.729659
21
0.289186
0
LINE
8
BLACK
6
CONTINUOUS
10
0.729659
20
0.289186
11
0.73182
21
0.287025
0
LINE
8
BLACK
6
CONTINUOUS
10
0.73182
20
0.287025
11
0.732611
21
0.284072
0
LINE
8
BLACK
6
CONTINUOUS
10
0.732611
20
0.284072
11
0.73182
21
0.281119
0
LINE
8
BLACK
6
CONTINUOUS
10
0.73182
20
0.281119
11
0.729659
21
0.278958
0
LINE
8
BLACK
6
CONTINUOUS
10
0.729659
20
0.278958
11
0.726706
21
0.278167
0
LINE
8
BLACK
6
CONTINUOUS
10
0.726706
20
0.278167
11
0.673556
21
0.278167
0
LINE
8
BLACK
6
CONTINUOUS
10
0.673556
20
0.278167
11
0.673556
21
0.267199
0
LINE
8
BLACK
6
CONTINUOUS
10
0.673556
20
0.267199
11
0.672765
21
0.264246
0
LINE
8
BLACK
6
CONTINUOUS
10
0.672765
20
0.264246
11
0.670603
21
0.262085
0
LINE
8
BLACK
6
CONTINUOUS
10
0.670603
20
0.262085
11
0.667651
21
0.261294
0
LINE
8
BLACK
6
CONTINUOUS
10
0.667651
20
0.261294
11
0.664698
21
0.262085
0
LINE
8
BLACK
6
CONTINUOUS
10
0.664698
20
0.262085
11
0.662536
21
0.264246
0
LINE
8
BLACK
6
CONTINUOUS
10
0.662536
20
0.264246
11
0.661745
21
0.267199
0
LINE
8
BLACK
6
CONTINUOUS
10
0.661745
20
0.267199
11
0.661745
21
0.300945
0
LINE
8
BLACK
6
CONTINUOUS
10
0.661745
20
0.300945
11
0.662536
21
0.303898
0
LINE
8
BLACK
6
CONTINUOUS
10
0.662536
20
0.303898
11
0.664698
21
0.306059
0
LINE
8
BLACK
6
CONTINUOUS
10
0.664698
20
0.306059
11
0.667651
21
0.30685
0
LINE
8
BLACK
6
CONTINUOUS
10
0.667651
20
0.30685
11
0.670603
21
0.306059
0
LINE
8
BLACK
6
CONTINUOUS
10
1.06408
20
0.337721
11
1.06771
21
0.337391
0
LINE
8
BLACK
6
CONTINUOUS
10
1.06771
20
0.337391
11
1.07013
21
0.336934
0
LINE
8
BLACK
6
CONTINUOUS
10
1.07013
20
0.336934
11
1.07437
21
0.335566
0
LINE
8
BLACK
6
CONTINUOUS
10
1.07437
20
0.335566
11
1.07821
21
0.333632
0
LINE
8
BLACK
6
CONTINUOUS
10
1.07821
20
0.333632
11
1.08161
21
0.331168
0
LINE
8
BLACK
6
CONTINUOUS
10
1.08161
20
0.331168
11
1.08453
21
0.328208
0
LINE
8
BLACK
6
CONTINUOUS
10
1.08453
20
0.328208
11
1.08691
21
0.324786
0
LINE
8
BLACK
6
CONTINUOUS
10
1.08691
20
0.324786
11
1.08783
21
0.323047
0
LINE
8
BLACK
6
CONTINUOUS
10
1.08783
20
0.323047
11
1.08843
21
0.321774
0
LINE
8
BLACK
6
CONTINUOUS
10
1.08843
20
0.321774
11
1.08892
21
0.320645
0
LINE
8
BLACK
6
CONTINUOUS
10
1.08892
20
0.320645
11
1.08932
21
0.319575
0
LINE
8
BLACK
6
CONTINUOUS
10
1.08932
20
0.319575
11
1.08964
21
0.318479
0
LINE
8
BLACK
6
CONTINUOUS
10
1.08964
20
0.318479
11
1.08989
21
0.317273
0
LINE
8
BLACK
6
CONTINUOUS
10
1.08989
20
0.317273
11
1.09008
21
0.315871
0
LINE
8
BLACK
6
CONTINUOUS
10
1.09008
20
0.315871
11
1.09021
21
0.314188
0
LINE
8
BLACK
6
CONTINUOUS
10
1.09021
20
0.314188
11
1.09031
21
0.31214
0
LINE
8
BLACK
6
CONTINUOUS
10
1.09031
20
0.31214
11
1.09038
21
0.309641
0
LINE
8
BLACK
6
CONTINUOUS
10
1.09038
20
0.309641
11
1.09042
21
0.306607
0
LINE
8
BLACK
6
CONTINUOUS
10
1.09042
20
0.306607
11
1.09047
21
0.302953
0
LINE
8
BLACK
6
CONTINUOUS
10
1.09047
20
0.302953
11
1.09047
21
0.302096
0
LINE
8
BLACK
6
CONTINUOUS
10
1.09047
20
0.302096
11
1.09061
21
0.288086
0
LINE
8
BLACK
6
CONTINUOUS
10
1.09061
20
0.288086
11
1.08117
21
0.288086
0
LINE
8
BLACK
6
CONTINUOUS
10
1.08117
20
0.288086
11
1.033
21
0.288086
0
LINE
8
BLACK
6
CONTINUOUS
10
1.033
20
0.288086
11
1.03318
21
0.301192
0
LINE
8
BLACK
6
CONTINUOUS
10
1.03318
20
0.301192
11
1.03324
21
0.30469
0
LINE
8
BLACK
6
CONTINUOUS
10
1.03324
20
0.30469
11
1.03329
21
0.307553
0
LINE
8
BLACK
6
CONTINUOUS
10
1.03329
20
0.307553
11
1.03334
21
0.309867
0
LINE
8
BLACK
6
CONTINUOUS
10
1.03334
20
0.309867
11
1.03341
21
0.311722
0
LINE
8
BLACK
6
CONTINUOUS
10
1.03341
20
0.311722
11
1.0335
21
0.313203
0
LINE
8
BLACK
6
CONTINUOUS
10
1.0335
20
0.313203
11
1.0336
21
0.314399
0
LINE
8
BLACK
6
CONTINUOUS
10
1.0336
20
0.314399
11
1.03373
21
0.315397
0
LINE
8
BLACK
6
CONTINUOUS
10
1.03373
20
0.315397
11
1.03389
21
0.316285
0
LINE
8
BLACK
6
CONTINUOUS
10
1.03389
20
0.316285
11
1.03409
21
0.31715
0
LINE
8
BLACK
6
CONTINUOUS
10
1.03409
20
0.31715
11
1.03414
21
0.31737
0
LINE
8
BLACK
6
CONTINUOUS
10
1.03414
20
0.31737
11
1.03557
21
0.321682
0
LINE
8
BLACK
6
CONTINUOUS
10
1.03557
20
0.321682
11
1.03755
21
0.325537
0
LINE
8
BLACK
6
CONTINUOUS
10
1.03755
20
0.325537
11
1.04006
21
0.328912
0
LINE
8
BLACK
6
CONTINUOUS
10
1.04006
20
0.328912
11
1.04308
21
0.331785
0
LINE
8
BLACK
6
CONTINUOUS
10
1.04308
20
0.331785
11
1.04657
21
0.334132
0
LINE
8
BLACK
6
CONTINUOUS
10
1.04657
20
0.334132
11
1.05053
21
0.335929
0
LINE
8
BLACK
6
CONTINUOUS
10
1.05053
20
0.335929
11
1.0532
21
0.336757
0
LINE
8
BLACK
6
CONTINUOUS
10
1.0532
20
0.336757
11
1.05656
21
0.337401
0
LINE
8
BLACK
6
CONTINUOUS
10
1.05656
20
0.337401
11
1.06027
21
0.337724
0
LINE
8
BLACK
6
CONTINUOUS
10
1.06027
20
0.337724
11
1.06408
21
0.337721
0
LINE
8
BLACK
6
CONTINUOUS
10
1.06078
20
0.326024
11
1.05805
21
0.325843
0
LINE
8
BLACK
6
CONTINUOUS
10
1.05805
20
0.325843
11
1.05566
21
0.325489
0
LINE
8
BLACK
6
CONTINUOUS
10
1.05566
20
0.325489
11
1.05505
21
0.325346
0
LINE
8
BLACK
6
CONTINUOUS
10
1.05505
20
0.325346
11
1.05254
21
0.324592
0
LINE
8
BLACK
6
CONTINUOUS
10
1.05254
20
0.324592
11
1.05052
21
0.32369
0
LINE
8
BLACK
6
CONTINUOUS
10
1.05052
20
0.32369
11
1.04875
21
0.322515
0
LINE
8
BLACK
6
CONTINUOUS
10
1.04875
20
0.322515
11
1.04737
21
0.321323
0
LINE
8
BLACK
6
CONTINUOUS
10
1.04737
20
0.321323
11
1.04603
21
0.319925
0
LINE
8
BLACK
6
CONTINUOUS
10
1.04603
20
0.319925
11
1.04497
21
0.318491
0
LINE
8
BLACK
6
CONTINUOUS
10
1.04497
20
0.318491
11
1.04416
21
0.316915
0
LINE
8
BLACK
6
CONTINUOUS
10
1.04416
20
0.316915
11
1.04358
21
0.31509
0
LINE
8
BLACK
6
CONTINUOUS
10
1.04358
20
0.31509
11
1.04319
21
0.31291
0
LINE
8
BLACK
6
CONTINUOUS
10
1.04319
20
0.31291
11
1.04296
21
0.310269
0
LINE
8
BLACK
6
CONTINUOUS
10
1.04296
20
0.310269
11
1.04286
21
0.307062
0
LINE
8
BLACK
6
CONTINUOUS
10
1.04286
20
0.307062
11
1.04285
21
0.30553
0
LINE
8
BLACK
6
CONTINUOUS
10
1.04285
20
0.30553
11
1.04285
21
0.298571
0
LINE
8
BLACK
6
CONTINUOUS
10
1.04285
20
0.298571
11
1.08117
21
0.298571
0
LINE
8
BLACK
6
CONTINUOUS
10
1.08117
20
0.298571
11
1.08117
21
0.305241
0
LINE
8
BLACK
6
CONTINUOUS
10
1.08117
20
0.305241
11
1.08115
21
0.307519
0
LINE
8
BLACK
6
CONTINUOUS
10
1.08115
20
0.307519
11
1.08109
21
0.309686
0
LINE
8
BLACK
6
CONTINUOUS
10
1.08109
20
0.309686
11
1.08099
21
0.311584
0
LINE
8
BLACK
6
CONTINUOUS
10
1.08099
20
0.311584
11
1.08087
21
0.313052
0
LINE
8
BLACK
6
CONTINUOUS
10
1.08087
20
0.313052
11
1.08076
21
0.313828
0
LINE
8
BLACK
6
CONTINUOUS
10
1.08076
20
0.313828
11
1.07976
21
0.316905
0
LINE
8
BLACK
6
CONTINUOUS
10
1.07976
20
0.316905
11
1.07816
21
0.319595
0
LINE
8
BLACK
6
CONTINUOUS
10
1.07816
20
0.319595
11
1.076
21
0.321867
0
LINE
8
BLACK
6
CONTINUOUS
10
1.076
20
0.321867
11
1.0733
21
0.323693
0
LINE
8
BLACK
6
CONTINUOUS
10
1.0733
20
0.323693
11
1.0701
21
0.325042
0
LINE
8
BLACK
6
CONTINUOUS
10
1.0701
20
0.325042
11
1.06845
21
0.325498
0
LINE
8
BLACK
6
CONTINUOUS
10
1.06845
20
0.325498
11
1.06624
21
0.325854
0
LINE
8
BLACK
6
CONTINUOUS
10
1.06624
20
0.325854
11
1.0636
21
0.326028
0
LINE
8
BLACK
6
CONTINUOUS
10
1.0636
20
0.326028
11
1.06078
21
0.326024
0
LINE
8
BLACK
6
CONTINUOUS
10
0.704912
20
0.357281
11
0.705641
21
0.357293
0
LINE
8
BLACK
6
CONTINUOUS
10
0.705641
20
0.357293
11
0.71689
21
0.354481
0
LINE
8
BLACK
6
CONTINUOUS
10
0.71689
20
0.354481
11
0.717459
21
0.354164
0
LINE
8
BLACK
6
CONTINUOUS
10
0.717459
20
0.354164
11
0.718098
21
0.354034
0
LINE
8
BLACK
6
CONTINUOUS
10
0.718098
20
0.354034
11
0.723723
21
0.351221
0
LINE
8
BLACK
6
CONTINUOUS
10
0.723723
20
0.351221
11
0.724434
21
0.350591
0
LINE
8
BLACK
6
CONTINUOUS
10
0.724434
20
0.350591
11
0.725257
21
0.350115
0
LINE
8
BLACK
6
CONTINUOUS
10
0.725257
20
0.350115
11
0.728069
21
0.347303
0
LINE
8
BLACK
6
CONTINUOUS
10
0.728069
20
0.347303
11
0.728545
21
0.34648
0
LINE
8
BLACK
6
CONTINUOUS
10
0.728545
20
0.34648
11
0.729176
21
0.345768
0
LINE
8
BLACK
6
CONTINUOUS
10
0.729176
20
0.345768
11
0.731988
21
0.340144
0
LINE
8
BLACK
6
CONTINUOUS
10
0.731988
20
0.340144
11
0.73226
21
0.338814
0
LINE
8
BLACK
6
CONTINUOUS
10
0.73226
20
0.338814
11
0.732611
21
0.337503
0
LINE
8
BLACK
6
CONTINUOUS
10
0.732611
20
0.337503
11
0.732611
21
0.331879
0
LINE
8
BLACK
6
CONTINUOUS
10
0.732611
20
0.331879
11
0.73226
21
0.330568
0
LINE
8
BLACK
6
CONTINUOUS
10
0.73226
20
0.330568
11
0.731988
21
0.329238
0
LINE
8
BLACK
6
CONTINUOUS
10
0.731988
20
0.329238
11
0.729176
21
0.323613
0
LINE
8
BLACK
6
CONTINUOUS
10
0.729176
20
0.323613
11
0.728545
21
0.322902
0
LINE
8
BLACK
6
CONTINUOUS
10
0.728545
20
0.322902
11
0.728069
21
0.322078
0
LINE
8
BLACK
6
CONTINUOUS
10
0.728069
20
0.322078
11
0.725257
21
0.319266
0
LINE
8
BLACK
6
CONTINUOUS
10
0.725257
20
0.319266
11
0.724434
21
0.318791
0
LINE
8
BLACK
6
CONTINUOUS
10
0.724434
20
0.318791
11
0.723723
21
0.31816
0
LINE
8
BLACK
6
CONTINUOUS
10
0.723723
20
0.31816
11
0.718098
21
0.315348
0
LINE
8
BLACK
6
CONTINUOUS
10
0.718098
20
0.315348
11
0.717459
21
0.315217
0
LINE
8
BLACK
6
CONTINUOUS
10
0.717459
20
0.315217
11
0.71689
21
0.314901
0
LINE
8
BLACK
6
CONTINUOUS
10
0.71689
20
0.314901
11
0.705641
21
0.312089
0
LINE
8
BLACK
6
CONTINUOUS
10
0.705641
20
0.312089
11
0.704912
21
0.312101
0
LINE
8
BLACK
6
CONTINUOUS
10
0.704912
20
0.312101
11
0.704209
21
0.311912
0
LINE
8
BLACK
6
CONTINUOUS
10
0.704209
20
0.311912
11
0.690148
21
0.311912
0
LINE
8
BLACK
6
CONTINUOUS
10
0.690148
20
0.311912
11
0.689444
21
0.312101
0
LINE
8
BLACK
6
CONTINUOUS
10
0.689444
20
0.312101
11
0.688716
21
0.312089
0
LINE
8
BLACK
6
CONTINUOUS
10
0.688716
20
0.312089
11
0.677467
21
0.314901
0
LINE
8
BLACK
6
CONTINUOUS
10
0.677467
20
0.314901
11
0.676897
21
0.315217
0
LINE
8
BLACK
6
CONTINUOUS
10
0.676897
20
0.315217
11
0.676258
21
0.315348
0
LINE
8
BLACK
6
CONTINUOUS
10
0.676258
20
0.315348
11
0.670634
21
0.31816
0
LINE
8
BLACK
6
CONTINUOUS
10
0.670634
20
0.31816
11
0.669923
21
0.318791
0
LINE
8
BLACK
6
CONTINUOUS
10
0.669923
20
0.318791
11
0.669099
21
0.319266
0
LINE
8
BLACK
6
CONTINUOUS
10
0.669099
20
0.319266
11
0.666287
21
0.322078
0
LINE
8
BLACK
6
CONTINUOUS
10
0.666287
20
0.322078
11
0.665812
21
0.322902
0
LINE
8
BLACK
6
CONTINUOUS
10
0.665812
20
0.322902
11
0.665181
21
0.323613
0
LINE
8
BLACK
6
CONTINUOUS
10
0.665181
20
0.323613
11
0.662369
21
0.329238
0
LINE
8
BLACK
6
CONTINUOUS
10
0.662369
20
0.329238
11
0.662096
21
0.330568
0
LINE
8
BLACK
6
CONTINUOUS
10
0.662096
20
0.330568
11
0.661745
21
0.331879
0
LINE
8
BLACK
6
CONTINUOUS
10
0.661745
20
0.331879
11
0.661745
21
0.337503
0
LINE
8
BLACK
6
CONTINUOUS
10
0.661745
20
0.337503
11
0.662096
21
0.338814
0
LINE
8
BLACK
6
CONTINUOUS
10
0.662096
20
0.338814
11
0.662369
21
0.340144
0
LINE
8
BLACK
6
CONTINUOUS
10
0.662369
20
0.340144
11
0.665181
21
0.345768
0
LINE
8
BLACK
6
CONTINUOUS
10
0.665181
20
0.345768
11
0.665812
21
0.34648
0
LINE
8
BLACK
6
CONTINUOUS
10
0.665812
20
0.34648
11
0.666287
21
0.347303
0
LINE
8
BLACK
6
CONTINUOUS
10
0.666287
20
0.347303
11
0.669099
21
0.350115
0
LINE
8
BLACK
6
CONTINUOUS
10
0.669099
20
0.350115
11
0.669923
21
0.350591
0
LINE
8
BLACK
6
CONTINUOUS
10
0.669923
20
0.350591
11
0.670634
21
0.351221
0
LINE
8
BLACK
6
CONTINUOUS
10
0.670634
20
0.351221
11
0.676258
21
0.354034
0
LINE
8
BLACK
6
CONTINUOUS
10
0.676258
20
0.354034
11
0.676897
21
0.354164
0
LINE
8
BLACK
6
CONTINUOUS
10
0.676897
20
0.354164
11
0.677467
21
0.354481
0
LINE
8
BLACK
6
CONTINUOUS
10
0.677467
20
0.354481
11
0.688716
21
0.357293
0
LINE
8
BLACK
6
CONTINUOUS
10
0.688716
20
0.357293
11
0.689444
21
0.357281
0
LINE
8
BLACK
6
CONTINUOUS
10
0.689444
20
0.357281
11
0.690148
21
0.357469
0
LINE
8
BLACK
6
CONTINUOUS
10
0.690148
20
0.357469
11
0.704209
21
0.357469
0
LINE
8
BLACK
6
CONTINUOUS
10
0.704209
20
0.357469
11
0.704912
21
0.357281
0
LINE
8
BLACK
6
CONTINUOUS
10
0.680961
20
0.34318
11
0.676773
21
0.341086
0
LINE
8
BLACK
6
CONTINUOUS
10
0.676773
20
0.341086
11
0.675316
21
0.339629
0
LINE
8
BLACK
6
CONTINUOUS
10
0.675316
20
0.339629
11
0.673556
21
0.336109
0
LINE
8
BLACK
6
CONTINUOUS
10
0.673556
20
0.336109
11
0.673556
21
0.333273
0
LINE
8
BLACK
6
CONTINUOUS
10
0.673556
20
0.333273
11
0.675316
21
0.329752
0
LINE
8
BLACK
6
CONTINUOUS
10
0.675316
20
0.329752
11
0.676773
21
0.328296
0
LINE
8
BLACK
6
CONTINUOUS
10
0.676773
20
0.328296
11
0.680961
21
0.326202
0
LINE
8
BLACK
6
CONTINUOUS
10
0.680961
20
0.326202
11
0.690875
21
0.323723
0
LINE
8
BLACK
6
CONTINUOUS
10
0.690875
20
0.323723
11
0.703482
21
0.323723
0
LINE
8
BLACK
6
CONTINUOUS
10
0.703482
20
0.323723
11
0.713396
21
0.326202
0
LINE
8
BLACK
6
CONTINUOUS
10
0.713396
20
0.326202
11
0.717583
21
0.328296
0
LINE
8
BLACK
6
CONTINUOUS
10
0.717583
20
0.328296
11
0.71904
21
0.329753
0
LINE
8
BLACK
6
CONTINUOUS
10
0.71904
20
0.329753
11
0.7208
21
0.333273
0
LINE
8
BLACK
6
CONTINUOUS
10
0.7208
20
0.333273
11
0.7208
21
0.336109
0
LINE
8
BLACK
6
CONTINUOUS
10
0.7208
20
0.336109
11
0.71904
21
0.339629
0
LINE
8
BLACK
6
CONTINUOUS
10
0.71904
20
0.339629
11
0.717583
21
0.341086
0
LINE
8
BLACK
6
CONTINUOUS
10
0.717583
20
0.341086
11
0.713396
21
0.34318
0
LINE
8
BLACK
6
CONTINUOUS
10
0.713396
20
0.34318
11
0.703482
21
0.345658
0
LINE
8
BLACK
6
CONTINUOUS
10
0.703482
20
0.345658
11
0.690875
21
0.345658
0
LINE
8
BLACK
6
CONTINUOUS
10
0.690875
20
0.345658
11
0.680961
21
0.34318
0
LINE
8
BLACK
6
CONTINUOUS
10
1.09057
20
0.345932
11
1.03309
21
0.345932
0
LINE
8
BLACK
6
CONTINUOUS
10
1.03309
20
0.345932
11
1.03309
21
0.382808
0
LINE
8
BLACK
6
CONTINUOUS
10
1.03309
20
0.382808
11
1.04357
21
0.382808
0
LINE
8
BLACK
6
CONTINUOUS
10
1.04357
20
0.382808
11
1.04357
21
0.356778
0
LINE
8
BLACK
6
CONTINUOUS
10
1.04357
20
0.356778
11
1.05549
21
0.356778
0
LINE
8
BLACK
6
CONTINUOUS
10
1.05549
20
0.356778
11
1.05558
21
0.36681
0
LINE
8
BLACK
6
CONTINUOUS
10
1.05558
20
0.36681
11
1.05568
21
0.376843
0
LINE
8
BLACK
6
CONTINUOUS
10
1.05568
20
0.376843
11
1.06598
21
0.377043
0
LINE
8
BLACK
6
CONTINUOUS
10
1.06598
20
0.377043
11
1.06598
21
0.356778
0
LINE
8
BLACK
6
CONTINUOUS
10
1.06598
20
0.356778
11
1.08045
21
0.356778
0
LINE
8
BLACK
6
CONTINUOUS
10
1.08045
20
0.356778
11
1.08045
21
0.383531
0
LINE
8
BLACK
6
CONTINUOUS
10
1.08045
20
0.383531
11
1.09057
21
0.383531
0
LINE
8
BLACK
6
CONTINUOUS
10
1.09057
20
0.383531
11
1.09057
21
0.345932
0
LINE
8
BLACK
6
CONTINUOUS
10
0.729659
20
0.412921
11
0.73182
21
0.410759
0
LINE
8
BLACK
6
CONTINUOUS
10
0.73182
20
0.410759
11
0.732611
21
0.407807
0
LINE
8
BLACK
6
CONTINUOUS
10
0.732611
20
0.407807
11
0.732611
21
0.374061
0
LINE
8
BLACK
6
CONTINUOUS
10
0.732611
20
0.374061
11
0.73182
21
0.371108
0
LINE
8
BLACK
6
CONTINUOUS
10
0.73182
20
0.371108
11
0.729659
21
0.368946
0
LINE
8
BLACK
6
CONTINUOUS
10
0.729659
20
0.368946
11
0.726706
21
0.368155
0
LINE
8
BLACK
6
CONTINUOUS
10
0.726706
20
0.368155
11
0.723753
21
0.368946
0
LINE
8
BLACK
6
CONTINUOUS
10
0.723753
20
0.368946
11
0.721591
21
0.371108
0
LINE
8
BLACK
6
CONTINUOUS
10
0.721591
20
0.371108
11
0.7208
21
0.374061
0
LINE
8
BLACK
6
CONTINUOUS
10
0.7208
20
0.374061
11
0.7208
21
0.385028
0
LINE
8
BLACK
6
CONTINUOUS
10
0.7208
20
0.385028
11
0.68472
21
0.385028
0
LINE
8
BLACK
6
CONTINUOUS
10
0.68472
20
0.385028
11
0.685887
21
0.383861
0
LINE
8
BLACK
6
CONTINUOUS
10
0.685887
20
0.383861
11
0.686363
21
0.383037
0
LINE
8
BLACK
6
CONTINUOUS
10
0.686363
20
0.383037
11
0.686994
21
0.382326
0
LINE
8
BLACK
6
CONTINUOUS
10
0.686994
20
0.382326
11
0.689806
21
0.376702
0
LINE
8
BLACK
6
CONTINUOUS
10
0.689806
20
0.376702
11
0.690419
21
0.373707
0
LINE
8
BLACK
6
CONTINUOUS
10
0.690419
20
0.373707
11
0.689452
21
0.370807
0
LINE
8
BLACK
6
CONTINUOUS
10
0.689452
20
0.370807
11
0.687165
21
0.368779
0
LINE
8
BLACK
6
CONTINUOUS
10
0.687165
20
0.368779
11
0.68417
21
0.368166
0
LINE
8
BLACK
6
CONTINUOUS
10
0.68417
20
0.368166
11
0.68127
21
0.369133
0
LINE
8
BLACK
6
CONTINUOUS
10
0.68127
20
0.369133
11
0.679242
21
0.37142
0
LINE
8
BLACK
6
CONTINUOUS
10
0.679242
20
0.37142
11
0.676858
21
0.376187
0
LINE
8
BLACK
6
CONTINUOUS
10
0.676858
20
0.376187
11
0.672325
21
0.38072
0
LINE
8
BLACK
6
CONTINUOUS
10
0.672325
20
0.38072
11
0.664375
21
0.38602
0
LINE
8
BLACK
6
CONTINUOUS
10
0.664375
20
0.38602
11
0.663487
21
0.38703
0
LINE
8
BLACK
6
CONTINUOUS
10
0.663487
20
0.38703
11
0.662536
21
0.387981
0
LINE
8
BLACK
6
CONTINUOUS
10
0.662536
20
0.387981
11
0.662486
21
0.38817
0
LINE
8
BLACK
6
CONTINUOUS
10
0.662486
20
0.38817
11
0.662357
21
0.388316
0
LINE
8
BLACK
6
CONTINUOUS
10
0.662357
20
0.388316
11
0.662093
21
0.389635
0
LINE
8
BLACK
6
CONTINUOUS
10
0.662093
20
0.389635
11
0.661745
21
0.390934
0
LINE
8
BLACK
6
CONTINUOUS
10
0.661745
20
0.390934
11
0.661796
21
0.391122
0
LINE
8
BLACK
6
CONTINUOUS
10
0.661796
20
0.391122
11
0.661757
21
0.391314
0
LINE
8
BLACK
6
CONTINUOUS
10
0.661757
20
0.391314
11
0.662188
21
0.392588
0
LINE
8
BLACK
6
CONTINUOUS
10
0.662188
20
0.392588
11
0.662536
21
0.393886
0
LINE
8
BLACK
6
CONTINUOUS
10
0.662536
20
0.393886
11
0.662674
21
0.394024
0
LINE
8
BLACK
6
CONTINUOUS
10
0.662674
20
0.394024
11
0.662737
21
0.394209
0
LINE
8
BLACK
6
CONTINUOUS
10
0.662737
20
0.394209
11
0.663747
21
0.395097
0
LINE
8
BLACK
6
CONTINUOUS
10
0.663747
20
0.395097
11
0.664698
21
0.396048
0
LINE
8
BLACK
6
CONTINUOUS
10
0.664698
20
0.396048
11
0.664887
21
0.396099
0
LINE
8
BLACK
6
CONTINUOUS
10
0.664887
20
0.396099
11
0.665033
21
0.396227
0
LINE
8
BLACK
6
CONTINUOUS
10
0.665033
20
0.396227
11
0.666352
21
0.396491
0
LINE
8
BLACK
6
CONTINUOUS
10
0.666352
20
0.396491
11
0.667651
21
0.396839
0
LINE
8
BLACK
6
CONTINUOUS
10
0.667651
20
0.396839
11
0.7208
21
0.396839
0
LINE
8
BLACK
6
CONTINUOUS
10
0.7208
20
0.396839
11
0.7208
21
0.407807
0
LINE
8
BLACK
6
CONTINUOUS
10
0.7208
20
0.407807
11
0.721591
21
0.410759
0
LINE
8
BLACK
6
CONTINUOUS
10
0.721591
20
0.410759
11
0.723753
21
0.412921
0
LINE
8
BLACK
6
CONTINUOUS
10
0.723753
20
0.412921
11
0.726706
21
0.413712
0
LINE
8
BLACK
6
CONTINUOUS
10
0.726706
20
0.413712
11
0.729659
21
0.412921
0
LINE
8
BLACK
6
CONTINUOUS
10
0.293639
20
0.451904
11
0.294969
21
0.451631
0
LINE
8
BLACK
6
CONTINUOUS
10
0.294969
20
0.451631
11
0.300594
21
0.448819
0
LINE
8
BLACK
6
CONTINUOUS
10
0.300594
20
0.448819
11
0.301305
21
0.448188
0
LINE
8
BLACK
6
CONTINUOUS
10
0.301305
20
0.448188
11
0.302128
21
0.447713
0
LINE
8
BLACK
6
CONTINUOUS
10
0.302128
20
0.447713
11
0.304941
21
0.444901
0
LINE
8
BLACK
6
CONTINUOUS
10
0.304941
20
0.444901
11
0.305416
21
0.444077
0
LINE
8
BLACK
6
CONTINUOUS
10
0.305416
20
0.444077
11
0.306047
21
0.443366
0
LINE
8
BLACK
6
CONTINUOUS
10
0.306047
20
0.443366
11
0.308859
21
0.437742
0
LINE
8
BLACK
6
CONTINUOUS
10
0.308859
20
0.437742
11
0.309131
21
0.436412
0
LINE
8
BLACK
6
CONTINUOUS
10
0.309131
20
0.436412
11
0.309482
21
0.435101
0
LINE
8
BLACK
6
CONTINUOUS
10
0.309482
20
0.435101
11
0.309482
21
0.426664
0
LINE
8
BLACK
6
CONTINUOUS
10
0.309482
20
0.426664
11
0.309131
21
0.425353
0
LINE
8
BLACK
6
CONTINUOUS
10
0.309131
20
0.425353
11
0.308859
21
0.424023
0
LINE
8
BLACK
6
CONTINUOUS
10
0.308859
20
0.424023
11
0.306047
21
0.418399
0
LINE
8
BLACK
6
CONTINUOUS
10
0.306047
20
0.418399
11
0.305416
21
0.417688
0
LINE
8
BLACK
6
CONTINUOUS
10
0.305416
20
0.417688
11
0.304941
21
0.416864
0
LINE
8
BLACK
6
CONTINUOUS
10
0.304941
20
0.416864
11
0.302128
21
0.414052
0
LINE
8
BLACK
6
CONTINUOUS
10
0.302128
20
0.414052
11
0.301305
21
0.413577
0
LINE
8
BLACK
6
CONTINUOUS
10
0.301305
20
0.413577
11
0.300594
21
0.412946
0
LINE
8
BLACK
6
CONTINUOUS
10
0.300594
20
0.412946
11
0.294969
21
0.410134
0
LINE
8
BLACK
6
CONTINUOUS
10
0.294969
20
0.410134
11
0.293639
21
0.409861
0
LINE
8
BLACK
6
CONTINUOUS
10
0.293639
20
0.409861
11
0.292328
21
0.40951
0
LINE
8
BLACK
6
CONTINUOUS
10
0.292328
20
0.40951
11
0.275737
21
0.40951
0
LINE
8
BLACK
6
CONTINUOUS
10
0.275737
20
0.40951
11
0.275737
21
0.387294
0
LINE
8
BLACK
6
CONTINUOUS
10
0.275737
20
0.387294
11
0.274945
21
0.384341
0
LINE
8
BLACK
6
CONTINUOUS
10
0.274945
20
0.384341
11
0.272784
21
0.38218
0
LINE
8
BLACK
6
CONTINUOUS
10
0.272784
20
0.38218
11
0.269831
21
0.381389
0
LINE
8
BLACK
6
CONTINUOUS
10
0.269831
20
0.381389
11
0.266878
21
0.38218
0
LINE
8
BLACK
6
CONTINUOUS
10
0.266878
20
0.38218
11
0.264717
21
0.384341
0
LINE
8
BLACK
6
CONTINUOUS
10
0.264717
20
0.384341
11
0.263926
21
0.387294
0
LINE
8
BLACK
6
CONTINUOUS
10
0.263926
20
0.387294
11
0.263926
21
0.446349
0
LINE
8
BLACK
6
CONTINUOUS
10
0.263926
20
0.446349
11
0.264717
21
0.449302
0
LINE
8
BLACK
6
CONTINUOUS
10
0.264717
20
0.449302
11
0.266878
21
0.451464
0
LINE
8
BLACK
6
CONTINUOUS
10
0.266878
20
0.451464
11
0.269831
21
0.452255
0
LINE
8
BLACK
6
CONTINUOUS
10
0.269831
20
0.452255
11
0.292328
21
0.452255
0
LINE
8
BLACK
6
CONTINUOUS
10
0.292328
20
0.452255
11
0.293639
21
0.451904
0
LINE
8
BLACK
6
CONTINUOUS
10
0.275737
20
0.421321
11
0.290934
21
0.421321
0
LINE
8
BLACK
6
CONTINUOUS
10
0.290934
20
0.421321
11
0.294454
21
0.423081
0
LINE
8
BLACK
6
CONTINUOUS
10
0.294454
20
0.423081
11
0.295911
21
0.424538
0
LINE
8
BLACK
6
CONTINUOUS
10
0.295911
20
0.424538
11
0.297671
21
0.428058
0
LINE
8
BLACK
6
CONTINUOUS
10
0.297671
20
0.428058
11
0.297671
21
0.433707
0
LINE
8
BLACK
6
CONTINUOUS
10
0.297671
20
0.433707
11
0.295911
21
0.437227
0
LINE
8
BLACK
6
CONTINUOUS
10
0.295911
20
0.437227
11
0.294454
21
0.438684
0
LINE
8
BLACK
6
CONTINUOUS
10
0.294454
20
0.438684
11
0.290934
21
0.440444
0
LINE
8
BLACK
6
CONTINUOUS
10
0.290934
20
0.440444
11
0.275737
21
0.440444
0
LINE
8
BLACK
6
CONTINUOUS
10
0.275737
20
0.440444
11
0.275737
21
0.421321
0
LINE
8
BLACK
6
CONTINUOUS
10
0.420186
20
0.451904
11
0.421516
21
0.451631
0
LINE
8
BLACK
6
CONTINUOUS
10
0.421516
20
0.451631
11
0.42714
21
0.448819
0
LINE
8
BLACK
6
CONTINUOUS
10
0.42714
20
0.448819
11
0.427852
21
0.448188
0
LINE
8
BLACK
6
CONTINUOUS
10
0.427852
20
0.448188
11
0.428675
21
0.447713
0
LINE
8
BLACK
6
CONTINUOUS
10
0.428675
20
0.447713
11
0.431487
21
0.444901
0
LINE
8
BLACK
6
CONTINUOUS
10
0.431487
20
0.444901
11
0.431963
21
0.444077
0
LINE
8
BLACK
6
CONTINUOUS
10
0.431963
20
0.444077
11
0.432594
21
0.443366
0
LINE
8
BLACK
6
CONTINUOUS
10
0.432594
20
0.443366
11
0.435406
21
0.437742
0
LINE
8
BLACK
6
CONTINUOUS
10
0.435406
20
0.437742
11
0.435678
21
0.436412
0
LINE
8
BLACK
6
CONTINUOUS
10
0.435678
20
0.436412
11
0.436029
21
0.435101
0
LINE
8
BLACK
6
CONTINUOUS
10
0.436029
20
0.435101
11
0.436029
21
0.426664
0
LINE
8
BLACK
6
CONTINUOUS
10
0.436029
20
0.426664
11
0.435678
21
0.425353
0
LINE
8
BLACK
6
CONTINUOUS
10
0.435678
20
0.425353
11
0.435406
21
0.424023
0
LINE
8
BLACK
6
CONTINUOUS
10
0.435406
20
0.424023
11
0.432594
21
0.418399
0
LINE
8
BLACK
6
CONTINUOUS
10
0.432594
20
0.418399
11
0.431963
21
0.417688
0
LINE
8
BLACK
6
CONTINUOUS
10
0.431963
20
0.417688
11
0.431487
21
0.416864
0
LINE
8
BLACK
6
CONTINUOUS
10
0.431487
20
0.416864
11
0.428675
21
0.414052
0
LINE
8
BLACK
6
CONTINUOUS
10
0.428675
20
0.414052
11
0.427852
21
0.413577
0
LINE
8
BLACK
6
CONTINUOUS
10
0.427852
20
0.413577
11
0.42714
21
0.412946
0
LINE
8
BLACK
6
CONTINUOUS
10
0.42714
20
0.412946
11
0.421516
21
0.410134
0
LINE
8
BLACK
6
CONTINUOUS
10
0.421516
20
0.410134
11
0.421366
21
0.410103
0
LINE
8
BLACK
6
CONTINUOUS
10
0.421366
20
0.410103
11
0.434962
21
0.390681
0
LINE
8
BLACK
6
CONTINUOUS
10
0.434962
20
0.390681
11
0.436007
21
0.387808
0
LINE
8
BLACK
6
CONTINUOUS
10
0.436007
20
0.387808
11
0.435475
21
0.384798
0
LINE
8
BLACK
6
CONTINUOUS
10
0.435475
20
0.384798
11
0.43351
21
0.382456
0
LINE
8
BLACK
6
CONTINUOUS
10
0.43351
20
0.382456
11
0.430637
21
0.381411
0
LINE
8
BLACK
6
CONTINUOUS
10
0.430637
20
0.381411
11
0.427627
21
0.381942
0
LINE
8
BLACK
6
CONTINUOUS
10
0.427627
20
0.381942
11
0.425286
21
0.383908
0
LINE
8
BLACK
6
CONTINUOUS
10
0.425286
20
0.383908
11
0.407364
21
0.40951
0
LINE
8
BLACK
6
CONTINUOUS
10
0.407364
20
0.40951
11
0.402283
21
0.40951
0
LINE
8
BLACK
6
CONTINUOUS
10
0.402283
20
0.40951
11
0.402283
21
0.387294
0
LINE
8
BLACK
6
CONTINUOUS
10
0.402283
20
0.387294
11
0.401492
21
0.384341
0
LINE
8
BLACK
6
CONTINUOUS
10
0.401492
20
0.384341
11
0.399331
21
0.38218
0
LINE
8
BLACK
6
CONTINUOUS
10
0.399331
20
0.38218
11
0.396378
21
0.381389
0
LINE
8
BLACK
6
CONTINUOUS
10
0.396378
20
0.381389
11
0.393425
21
0.38218
0
LINE
8
BLACK
6
CONTINUOUS
10
0.393425
20
0.38218
11
0.391263
21
0.384341
0
LINE
8
BLACK
6
CONTINUOUS
10
0.391263
20
0.384341
11
0.390472
21
0.387294
0
LINE
8
BLACK
6
CONTINUOUS
10
0.390472
20
0.387294
11
0.390472
21
0.446349
0
LINE
8
BLACK
6
CONTINUOUS
10
0.390472
20
0.446349
11
0.391263
21
0.449302
0
LINE
8
BLACK
6
CONTINUOUS
10
0.391263
20
0.449302
11
0.393425
21
0.451464
0
LINE
8
BLACK
6
CONTINUOUS
10
0.393425
20
0.451464
11
0.396378
21
0.452255
0
LINE
8
BLACK
6
CONTINUOUS
10
0.396378
20
0.452255
11
0.418875
21
0.452255
0
LINE
8
BLACK
6
CONTINUOUS
10
0.418875
20
0.452255
11
0.420186
21
0.451904
0
LINE
8
BLACK
6
CONTINUOUS
10
0.402283
20
0.421321
11
0.417481
21
0.421321
0
LINE
8
BLACK
6
CONTINUOUS
10
0.417481
20
0.421321
11
0.421001
21
0.423081
0
LINE
8
BLACK
6
CONTINUOUS
10
0.421001
20
0.423081
11
0.422458
21
0.424538
0
LINE
8
BLACK
6
CONTINUOUS
10
0.422458
20
0.424538
11
0.424218
21
0.428058
0
LINE
8
BLACK
6
CONTINUOUS
10
0.424218
20
0.428058
11
0.424218
21
0.433707
0
LINE
8
BLACK
6
CONTINUOUS
10
0.424218
20
0.433707
11
0.422458
21
0.437227
0
LINE
8
BLACK
6
CONTINUOUS
10
0.422458
20
0.437227
11
0.421001
21
0.438684
0
LINE
8
BLACK
6
CONTINUOUS
10
0.421001
20
0.438684
11
0.417481
21
0.440444
0
LINE
8
BLACK
6
CONTINUOUS
10
0.417481
20
0.440444
11
0.402283
21
0.440444
0
LINE
8
BLACK
6
CONTINUOUS
10
0.402283
20
0.440444
11
0.402283
21
0.421321
0
LINE
8
BLACK
6
CONTINUOUS
10
0.377938
20
0.450641
11
0.37954
21
0.448037
0
LINE
8
BLACK
6
CONTINUOUS
10
0.37954
20
0.448037
11
0.379626
21
0.444981
0
LINE
8
BLACK
6
CONTINUOUS
10
0.379626
20
0.444981
11
0.365565
21
0.385926
0
LINE
8
BLACK
6
CONTINUOUS
10
0.365565
20
0.385926
11
0.365522
21
0.385848
0
LINE
8
BLACK
6
CONTINUOUS
10
0.365522
20
0.385848
11
0.365522
21
0.385759
0
LINE
8
BLACK
6
CONTINUOUS
10
0.365522
20
0.385759
11
0.364799
21
0.384509
0
LINE
8
BLACK
6
CONTINUOUS
10
0.364799
20
0.384509
11
0.364111
21
0.383237
0
LINE
8
BLACK
6
CONTINUOUS
10
0.364111
20
0.383237
11
0.364035
21
0.38319
0
LINE
8
BLACK
6
CONTINUOUS
10
0.364035
20
0.38319
11
0.363991
21
0.383113
0
LINE
8
BLACK
6
CONTINUOUS
10
0.363991
20
0.383113
11
0.362739
21
0.382393
0
LINE
8
BLACK
6
CONTINUOUS
10
0.362739
20
0.382393
11
0.361508
21
0.381635
0
LINE
8
BLACK
6
CONTINUOUS
10
0.361508
20
0.381635
11
0.361419
21
0.381633
0
LINE
8
BLACK
6
CONTINUOUS
10
0.361419
20
0.381633
11
0.361341
21
0.381588
0
LINE
8
BLACK
6
CONTINUOUS
10
0.361341
20
0.381588
11
0.359897
21
0.38159
0
LINE
8
BLACK
6
CONTINUOUS
10
0.359897
20
0.38159
11
0.358452
21
0.381549
0
LINE
8
BLACK
6
CONTINUOUS
10
0.358452
20
0.381549
11
0.358374
21
0.381592
0
LINE
8
BLACK
6
CONTINUOUS
10
0.358374
20
0.381592
11
0.358285
21
0.381592
0
LINE
8
BLACK
6
CONTINUOUS
10
0.358285
20
0.381592
11
0.357034
21
0.382316
0
LINE
8
BLACK
6
CONTINUOUS
10
0.357034
20
0.382316
11
0.355763
21
0.383003
0
LINE
8
BLACK
6
CONTINUOUS
10
0.355763
20
0.383003
11
0.355716
21
0.383079
0
LINE
8
BLACK
6
CONTINUOUS
10
0.355716
20
0.383079
11
0.355639
21
0.383123
0
LINE
8
BLACK
6
CONTINUOUS
10
0.355639
20
0.383123
11
0.354918
21
0.384375
0
LINE
8
BLACK
6
CONTINUOUS
10
0.354918
20
0.384375
11
0.354161
21
0.385606
0
LINE
8
BLACK
6
CONTINUOUS
10
0.354161
20
0.385606
11
0.354158
21
0.385695
0
LINE
8
BLACK
6
CONTINUOUS
10
0.354158
20
0.385695
11
0.354114
21
0.385773
0
LINE
8
BLACK
6
CONTINUOUS
10
0.354114
20
0.385773
11
0.348571
21
0.406557
0
LINE
8
BLACK
6
CONTINUOUS
10
0.348571
20
0.406557
11
0.343029
21
0.385773
0
LINE
8
BLACK
6
CONTINUOUS
10
0.343029
20
0.385773
11
0.342984
21
0.385695
0
LINE
8
BLACK
6
CONTINUOUS
10
0.342984
20
0.385695
11
0.342982
21
0.385606
0
LINE
8
BLACK
6
CONTINUOUS
10
0.342982
20
0.385606
11
0.342224
21
0.384375
0
LINE
8
BLACK
6
CONTINUOUS
10
0.342224
20
0.384375
11
0.341504
21
0.383123
0
LINE
8
BLACK
6
CONTINUOUS
10
0.341504
20
0.383123
11
0.341426
21
0.383079
0
LINE
8
BLACK
6
CONTINUOUS
10
0.341426
20
0.383079
11
0.34138
21
0.383003
0
LINE
8
BLACK
6
CONTINUOUS
10
0.34138
20
0.383003
11
0.340108
21
0.382316
0
LINE
8
BLACK
6
CONTINUOUS
10
0.340108
20
0.382316
11
0.338858
21
0.381592
0
LINE
8
BLACK
6
CONTINUOUS
10
0.338858
20
0.381592
11
0.338769
21
0.381592
0
LINE
8
BLACK
6
CONTINUOUS
10
0.338769
20
0.381592
11
0.338691
21
0.381549
0
LINE
8
BLACK
6
CONTINUOUS
10
0.338691
20
0.381549
11
0.337245
21
0.38159
0
LINE
8
BLACK
6
CONTINUOUS
10
0.337245
20
0.38159
11
0.335801
21
0.381588
0
LINE
8
BLACK
6
CONTINUOUS
10
0.335801
20
0.381588
11
0.335724
21
0.381633
0
LINE
8
BLACK
6
CONTINUOUS
10
0.335724
20
0.381633
11
0.335635
21
0.381635
0
LINE
8
BLACK
6
CONTINUOUS
10
0.335635
20
0.381635
11
0.334404
21
0.382393
0
LINE
8
BLACK
6
CONTINUOUS
10
0.334404
20
0.382393
11
0.333152
21
0.383113
0
LINE
8
BLACK
6
CONTINUOUS
10
0.333152
20
0.383113
11
0.333107
21
0.38319
0
LINE
8
BLACK
6
CONTINUOUS
10
0.333107
20
0.38319
11
0.333031
21
0.383237
0
LINE
8
BLACK
6
CONTINUOUS
10
0.333031
20
0.383237
11
0.332344
21
0.384509
0
LINE
8
BLACK
6
CONTINUOUS
10
0.332344
20
0.384509
11
0.33162
21
0.385759
0
LINE
8
BLACK
6
CONTINUOUS
10
0.33162
20
0.385759
11
0.33162
21
0.385848
0
LINE
8
BLACK
6
CONTINUOUS
10
0.33162
20
0.385848
11
0.331578
21
0.385926
0
LINE
8
BLACK
6
CONTINUOUS
10
0.331578
20
0.385926
11
0.317517
21
0.444981
0
LINE
8
BLACK
6
CONTINUOUS
10
0.317517
20
0.444981
11
0.317603
21
0.448037
0
LINE
8
BLACK
6
CONTINUOUS
10
0.317603
20
0.448037
11
0.319205
21
0.450641
0
LINE
8
BLACK
6
CONTINUOUS
10
0.319205
20
0.450641
11
0.321894
21
0.452094
0
LINE
8
BLACK
6
CONTINUOUS
10
0.321894
20
0.452094
11
0.32495
21
0.452008
0
LINE
8
BLACK
6
CONTINUOUS
10
0.32495
20
0.452008
11
0.327553
21
0.450406
0
LINE
8
BLACK
6
CONTINUOUS
10
0.327553
20
0.450406
11
0.329007
21
0.447717
0
LINE
8
BLACK
6
CONTINUOUS
10
0.329007
20
0.447717
11
0.337647
21
0.411429
0
LINE
8
BLACK
6
CONTINUOUS
10
0.337647
20
0.411429
11
0.342865
21
0.430998
0
LINE
8
BLACK
6
CONTINUOUS
10
0.342865
20
0.430998
11
0.342869
21
0.431004
0
LINE
8
BLACK
6
CONTINUOUS
10
0.342869
20
0.431004
11
0.342869
21
0.431012
0
LINE
8
BLACK
6
CONTINUOUS
10
0.342869
20
0.431012
11
0.343635
21
0.432335
0
LINE
8
BLACK
6
CONTINUOUS
10
0.343635
20
0.432335
11
0.34439
21
0.433647
0
LINE
8
BLACK
6
CONTINUOUS
10
0.34439
20
0.433647
11
0.344397
21
0.433651
0
LINE
8
BLACK
6
CONTINUOUS
10
0.344397
20
0.433651
11
0.3444
21
0.433657
0
LINE
8
BLACK
6
CONTINUOUS
10
0.3444
20
0.433657
11
0.345723
21
0.434419
0
LINE
8
BLACK
6
CONTINUOUS
10
0.345723
20
0.434419
11
0.347036
21
0.435179
0
LINE
8
BLACK
6
CONTINUOUS
10
0.347036
20
0.435179
11
0.347043
21
0.435179
0
LINE
8
BLACK
6
CONTINUOUS
10
0.347043
20
0.435179
11
0.34705
21
0.435182
0
LINE
8
BLACK
6
CONTINUOUS
10
0.34705
20
0.435182
11
0.348579
21
0.435181
0
LINE
8
BLACK
6
CONTINUOUS
10
0.348579
20
0.435181
11
0.350093
21
0.435182
0
LINE
8
BLACK
6
CONTINUOUS
10
0.350093
20
0.435182
11
0.350099
21
0.435179
0
LINE
8
BLACK
6
CONTINUOUS
10
0.350099
20
0.435179
11
0.350107
21
0.435179
0
LINE
8
BLACK
6
CONTINUOUS
10
0.350107
20
0.435179
11
0.351429
21
0.434413
0
LINE
8
BLACK
6
CONTINUOUS
10
0.351429
20
0.434413
11
0.352742
21
0.433657
0
LINE
8
BLACK
6
CONTINUOUS
10
0.352742
20
0.433657
11
0.352746
21
0.433651
0
LINE
8
BLACK
6
CONTINUOUS
10
0.352746
20
0.433651
11
0.352752
21
0.433647
0
LINE
8
BLACK
6
CONTINUOUS
10
0.352752
20
0.433647
11
0.353513
21
0.432325
0
LINE
8
BLACK
6
CONTINUOUS
10
0.353513
20
0.432325
11
0.354274
21
0.431012
0
LINE
8
BLACK
6
CONTINUOUS
10
0.354274
20
0.431012
11
0.354274
21
0.431004
0
LINE
8
BLACK
6
CONTINUOUS
10
0.354274
20
0.431004
11
0.354277
21
0.430998
0
LINE
8
BLACK
6
CONTINUOUS
10
0.354277
20
0.430998
11
0.359496
21
0.411429
0
LINE
8
BLACK
6
CONTINUOUS
10
0.359496
20
0.411429
11
0.368136
21
0.447717
0
LINE
8
BLACK
6
CONTINUOUS
10
0.368136
20
0.447717
11
0.369589
21
0.450406
0
LINE
8
BLACK
6
CONTINUOUS
10
0.369589
20
0.450406
11
0.372193
21
0.452008
0
LINE
8
BLACK
6
CONTINUOUS
10
0.372193
20
0.452008
11
0.375248
21
0.452094
0
LINE
8
BLACK
6
CONTINUOUS
10
0.375248
20
0.452094
11
0.377938
21
0.450641
0
LINE
8
BLACK
6
CONTINUOUS
10
0.185323
20
0.46437
11
0.186993
21
0.463678
0
LINE
8
BLACK
6
CONTINUOUS
10
0.186993
20
0.463678
11
0.187685
21
0.462008
0
LINE
8
BLACK
6
CONTINUOUS
10
0.187685
20
0.462008
11
0.187685
21
0.393504
0
LINE
8
BLACK
6
CONTINUOUS
10
0.187685
20
0.393504
11
0.224299
21
0.393504
0
LINE
8
BLACK
6
CONTINUOUS
10
0.224299
20
0.393504
11
0.22597
21
0.392812
0
LINE
8
BLACK
6
CONTINUOUS
10
0.22597
20
0.392812
11
0.226661
21
0.391142
0
LINE
8
BLACK
6
CONTINUOUS
10
0.226661
20
0.391142
11
0.22597
21
0.389471
0
LINE
8
BLACK
6
CONTINUOUS
10
0.22597
20
0.389471
11
0.224299
21
0.38878
0
LINE
8
BLACK
6
CONTINUOUS
10
0.224299
20
0.38878
11
0.185323
21
0.38878
0
LINE
8
BLACK
6
CONTINUOUS
10
0.185323
20
0.38878
11
0.183653
21
0.389471
0
LINE
8
BLACK
6
CONTINUOUS
10
0.183653
20
0.389471
11
0.182961
21
0.391142
0
LINE
8
BLACK
6
CONTINUOUS
10
0.182961
20
0.391142
11
0.182961
21
0.459646
0
LINE
8
BLACK
6
CONTINUOUS
10
0.182961
20
0.459646
11
0.128236
21
0.459646
0
LINE
8
BLACK
6
CONTINUOUS
10
0.128236
20
0.459646
11
0.126566
21
0.460338
0
LINE
8
BLACK
6
CONTINUOUS
10
0.126566
20
0.460338
11
0.125874
21
0.462008
0
LINE
8
BLACK
6
CONTINUOUS
10
0.125874
20
0.462008
11
0.126566
21
0.463678
0
LINE
8
BLACK
6
CONTINUOUS
10
0.126566
20
0.463678
11
0.128236
21
0.46437
0
LINE
8
BLACK
6
CONTINUOUS
10
0.128236
20
0.46437
11
0.185323
21
0.46437
0
LINE
8
BLACK
6
CONTINUOUS
10
1.09037
20
0.435231
11
1.09046
21
0.434324
0
LINE
8
BLACK
6
CONTINUOUS
10
1.09046
20
0.434324
11
1.09052
21
0.432926
0
LINE
8
BLACK
6
CONTINUOUS
10
1.09052
20
0.432926
11
1.09056
21
0.431152
0
LINE
8
BLACK
6
CONTINUOUS
10
1.09056
20
0.431152
11
1.09057
21
0.429688
0
LINE
8
BLACK
6
CONTINUOUS
10
1.09057
20
0.429688
11
1.09057
21
0.423723
0
LINE
8
BLACK
6
CONTINUOUS
10
1.09057
20
0.423723
11
1.08017
21
0.418335
0
LINE
8
BLACK
6
CONTINUOUS
10
1.08017
20
0.418335
11
1.06978
21
0.412947
0
LINE
8
BLACK
6
CONTINUOUS
10
1.06978
20
0.412947
11
1.06958
21
0.402331
0
LINE
8
BLACK
6
CONTINUOUS
10
1.06958
20
0.402331
11
1.09057
21
0.402331
0
LINE
8
BLACK
6
CONTINUOUS
10
1.09057
20
0.402331
11
1.09057
21
0.39148
0
LINE
8
BLACK
6
CONTINUOUS
10
1.09057
20
0.39148
11
1.06192
21
0.391573
0
LINE
8
BLACK
6
CONTINUOUS
10
1.06192
20
0.391573
11
1.06065
21
0.391577
0
LINE
8
BLACK
6
CONTINUOUS
10
1.06065
20
0.391577
11
1.03327
21
0.391665
0
LINE
8
BLACK
6
CONTINUOUS
10
1.03327
20
0.391665
11
1.03329
21
0.404319
0
LINE
8
BLACK
6
CONTINUOUS
10
1.03329
20
0.404319
11
1.03331
21
0.408107
0
LINE
8
BLACK
6
CONTINUOUS
10
1.03331
20
0.408107
11
1.03335
21
0.411258
0
LINE
8
BLACK
6
CONTINUOUS
10
1.03335
20
0.411258
11
1.03341
21
0.413857
0
LINE
8
BLACK
6
CONTINUOUS
10
1.03341
20
0.413857
11
1.03351
21
0.415991
0
LINE
8
BLACK
6
CONTINUOUS
10
1.03351
20
0.415991
11
1.03367
21
0.417744
0
LINE
8
BLACK
6
CONTINUOUS
10
1.03367
20
0.417744
11
1.03388
21
0.419204
0
LINE
8
BLACK
6
CONTINUOUS
10
1.03388
20
0.419204
11
1.03416
21
0.420455
0
LINE
8
BLACK
6
CONTINUOUS
10
1.03416
20
0.420455
11
1.03452
21
0.421584
0
LINE
8
BLACK
6
CONTINUOUS
10
1.03452
20
0.421584
11
1.03497
21
0.422677
0
LINE
8
BLACK
6
CONTINUOUS
10
1.03497
20
0.422677
11
1.03552
21
0.423818
0
LINE
8
BLACK
6
CONTINUOUS
10
1.03552
20
0.423818
11
1.03557
21
0.423932
0
LINE
8
BLACK
6
CONTINUOUS
10
1.03557
20
0.423932
11
1.03738
21
0.426795
0
LINE
8
BLACK
6
CONTINUOUS
10
1.03738
20
0.426795
11
1.03963
21
0.429078
0
LINE
8
BLACK
6
CONTINUOUS
10
1.03963
20
0.429078
11
1.0423
21
0.430781
0
LINE
8
BLACK
6
CONTINUOUS
10
1.0423
20
0.430781
11
1.04514
21
0.431834
0
LINE
8
BLACK
6
CONTINUOUS
10
1.04514
20
0.431834
11
1.04703
21
0.43217
0
LINE
8
BLACK
6
CONTINUOUS
10
1.04703
20
0.43217
11
1.04932
21
0.432333
0
LINE
8
BLACK
6
CONTINUOUS
10
1.04932
20
0.432333
11
1.05177
21
0.432326
0
LINE
8
BLACK
6
CONTINUOUS
10
1.05177
20
0.432326
11
1.05413
21
0.432156
0
LINE
8
BLACK
6
CONTINUOUS
10
1.05413
20
0.432156
11
1.05617
21
0.431826
0
LINE
8
BLACK
6
CONTINUOUS
10
1.05617
20
0.431826
11
1.05702
21
0.431591
0
LINE
8
BLACK
6
CONTINUOUS
10
1.05702
20
0.431591
11
1.06005
21
0.430198
0
LINE
8
BLACK
6
CONTINUOUS
10
1.06005
20
0.430198
11
1.06269
21
0.428204
0
LINE
8
BLACK
6
CONTINUOUS
10
1.06269
20
0.428204
11
1.06491
21
0.425629
0
LINE
8
BLACK
6
CONTINUOUS
10
1.06491
20
0.425629
11
1.0656
21
0.424565
0
LINE
8
BLACK
6
CONTINUOUS
10
1.0656
20
0.424565
11
1.06614
21
0.423682
0
LINE
8
BLACK
6
CONTINUOUS
10
1.06614
20
0.423682
11
1.0665
21
0.423099
0
LINE
8
BLACK
6
CONTINUOUS
10
1.0665
20
0.423099
11
1.06657
21
0.422989
0
LINE
8
BLACK
6
CONTINUOUS
10
1.06657
20
0.422989
11
1.0669
21
0.423124
0
LINE
8
BLACK
6
CONTINUOUS
10
1.0669
20
0.423124
11
1.06779
21
0.423567
0
LINE
8
BLACK
6
CONTINUOUS
10
1.06779
20
0.423567
11
1.06918
21
0.42428
0
LINE
8
BLACK
6
CONTINUOUS
10
1.06918
20
0.42428
11
1.07099
21
0.425226
0
LINE
8
BLACK
6
CONTINUOUS
10
1.07099
20
0.425226
11
1.07315
21
0.426369
0
LINE
8
BLACK
6
CONTINUOUS
10
1.07315
20
0.426369
11
1.07559
21
0.427669
0
LINE
8
BLACK
6
CONTINUOUS
10
1.07559
20
0.427669
11
1.07824
21
0.429092
0
LINE
8
BLACK
6
CONTINUOUS
10
1.07824
20
0.429092
11
1.07832
21
0.429135
0
LINE
8
BLACK
6
CONTINUOUS
10
1.07832
20
0.429135
11
1.08099
21
0.43057
0
LINE
8
BLACK
6
CONTINUOUS
10
1.08099
20
0.43057
11
1.08346
21
0.431897
0
LINE
8
BLACK
6
CONTINUOUS
10
1.08346
20
0.431897
11
1.08565
21
0.433075
0
LINE
8
BLACK
6
CONTINUOUS
10
1.08565
20
0.433075
11
1.08751
21
0.434067
0
LINE
8
BLACK
6
CONTINUOUS
10
1.08751
20
0.434067
11
1.08894
21
0.434833
0
LINE
8
BLACK
6
CONTINUOUS
10
1.08894
20
0.434833
11
1.08989
21
0.435334
0
LINE
8
BLACK
6
CONTINUOUS
10
1.08989
20
0.435334
11
1.09027
21
0.435531
0
LINE
8
BLACK
6
CONTINUOUS
10
1.09027
20
0.435531
11
1.09027
21
0.435531
0
LINE
8
BLACK
6
CONTINUOUS
10
1.09027
20
0.435531
11
1.09037
21
0.435231
0
LINE
8
BLACK
6
CONTINUOUS
10
1.04869
20
0.420991
11
1.04644
21
0.420167
0
LINE
8
BLACK
6
CONTINUOUS
10
1.04644
20
0.420167
11
1.04466
21
0.4188
0
LINE
8
BLACK
6
CONTINUOUS
10
1.04466
20
0.4188
11
1.04335
21
0.416899
0
LINE
8
BLACK
6
CONTINUOUS
10
1.04335
20
0.416899
11
1.043
21
0.416064
0
LINE
8
BLACK
6
CONTINUOUS
10
1.043
20
0.416064
11
1.04273
21
0.415081
0
LINE
8
BLACK
6
CONTINUOUS
10
1.04273
20
0.415081
11
1.04252
21
0.413694
0
LINE
8
BLACK
6
CONTINUOUS
10
1.04252
20
0.413694
11
1.04236
21
0.411809
0
LINE
8
BLACK
6
CONTINUOUS
10
1.04236
20
0.411809
11
1.04224
21
0.409328
0
LINE
8
BLACK
6
CONTINUOUS
10
1.04224
20
0.409328
11
1.04221
21
0.408386
0
LINE
8
BLACK
6
CONTINUOUS
10
1.04221
20
0.408386
11
1.04203
21
0.402331
0
LINE
8
BLACK
6
CONTINUOUS
10
1.04203
20
0.402331
11
1.06065
21
0.402331
0
LINE
8
BLACK
6
CONTINUOUS
10
1.06065
20
0.402331
11
1.06047
21
0.408206
0
LINE
8
BLACK
6
CONTINUOUS
10
1.06047
20
0.408206
11
1.06037
21
0.410867
0
LINE
8
BLACK
6
CONTINUOUS
10
1.06037
20
0.410867
11
1.06022
21
0.412903
0
LINE
8
BLACK
6
CONTINUOUS
10
1.06022
20
0.412903
11
1.06003
21
0.414411
0
LINE
8
BLACK
6
CONTINUOUS
10
1.06003
20
0.414411
11
1.05977
21
0.415488
0
LINE
8
BLACK
6
CONTINUOUS
10
1.05977
20
0.415488
11
1.0597
21
0.415683
0
LINE
8
BLACK
6
CONTINUOUS
10
1.0597
20
0.415683
11
1.05856
21
0.417932
0
LINE
8
BLACK
6
CONTINUOUS
10
1.05856
20
0.417932
11
1.05704
21
0.419585
0
LINE
8
BLACK
6
CONTINUOUS
10
1.05704
20
0.419585
11
1.0551
21
0.420664
0
LINE
8
BLACK
6
CONTINUOUS
10
1.0551
20
0.420664
11
1.0527
21
0.421194
0
LINE
8
BLACK
6
CONTINUOUS
10
1.0527
20
0.421194
11
1.05138
21
0.421259
0
LINE
8
BLACK
6
CONTINUOUS
10
1.05138
20
0.421259
11
1.04869
21
0.420991
0
LINE
8
BLACK
6
CONTINUOUS
10
0.716768
20
0.472416
11
0.718098
21
0.472144
0
LINE
8
BLACK
6
CONTINUOUS
10
0.718098
20
0.472144
11
0.723723
21
0.469332
0
LINE
8
BLACK
6
CONTINUOUS
10
0.723723
20
0.469332
11
0.724434
21
0.468701
0
LINE
8
BLACK
6
CONTINUOUS
10
0.724434
20
0.468701
11
0.725257
21
0.468225
0
LINE
8
BLACK
6
CONTINUOUS
10
0.725257
20
0.468225
11
0.72807
21
0.465413
0
LINE
8
BLACK
6
CONTINUOUS
10
0.72807
20
0.465413
11
0.728545
21
0.46459
0
LINE
8
BLACK
6
CONTINUOUS
10
0.728545
20
0.46459
11
0.729176
21
0.463878
0
LINE
8
BLACK
6
CONTINUOUS
10
0.729176
20
0.463878
11
0.731988
21
0.458254
0
LINE
8
BLACK
6
CONTINUOUS
10
0.731988
20
0.458254
11
0.73226
21
0.456924
0
LINE
8
BLACK
6
CONTINUOUS
10
0.73226
20
0.456924
11
0.732611
21
0.455613
0
LINE
8
BLACK
6
CONTINUOUS
10
0.732611
20
0.455613
11
0.732611
21
0.433116
0
LINE
8
BLACK
6
CONTINUOUS
10
0.732611
20
0.433116
11
0.73182
21
0.430163
0
LINE
8
BLACK
6
CONTINUOUS
10
0.73182
20
0.430163
11
0.729659
21
0.428002
0
LINE
8
BLACK
6
CONTINUOUS
10
0.729659
20
0.428002
11
0.726706
21
0.42721
0
LINE
8
BLACK
6
CONTINUOUS
10
0.726706
20
0.42721
11
0.695772
21
0.42721
0
LINE
8
BLACK
6
CONTINUOUS
10
0.695772
20
0.42721
11
0.667651
21
0.42721
0
LINE
8
BLACK
6
CONTINUOUS
10
0.667651
20
0.42721
11
0.664698
21
0.428002
0
LINE
8
BLACK
6
CONTINUOUS
10
0.664698
20
0.428002
11
0.662536
21
0.430163
0
LINE
8
BLACK
6
CONTINUOUS
10
0.662536
20
0.430163
11
0.661745
21
0.433116
0
LINE
8
BLACK
6
CONTINUOUS
10
0.661745
20
0.433116
11
0.661745
21
0.452801
0
LINE
8
BLACK
6
CONTINUOUS
10
0.661745
20
0.452801
11
0.662096
21
0.454112
0
LINE
8
BLACK
6
CONTINUOUS
10
0.662096
20
0.454112
11
0.662369
21
0.455442
0
LINE
8
BLACK
6
CONTINUOUS
10
0.662369
20
0.455442
11
0.665181
21
0.461066
0
LINE
8
BLACK
6
CONTINUOUS
10
0.665181
20
0.461066
11
0.665812
21
0.461778
0
LINE
8
BLACK
6
CONTINUOUS
10
0.665812
20
0.461778
11
0.666287
21
0.462601
0
LINE
8
BLACK
6
CONTINUOUS
10
0.666287
20
0.462601
11
0.669099
21
0.465413
0
LINE
8
BLACK
6
CONTINUOUS
10
0.669099
20
0.465413
11
0.669923
21
0.465889
0
LINE
8
BLACK
6
CONTINUOUS
10
0.669923
20
0.465889
11
0.670634
21
0.466519
0
LINE
8
BLACK
6
CONTINUOUS
10
0.670634
20
0.466519
11
0.676258
21
0.469332
0
LINE
8
BLACK
6
CONTINUOUS
10
0.676258
20
0.469332
11
0.677588
21
0.469604
0
LINE
8
BLACK
6
CONTINUOUS
10
0.677588
20
0.469604
11
0.678899
21
0.469955
0
LINE
8
BLACK
6
CONTINUOUS
10
0.678899
20
0.469955
11
0.684524
21
0.469955
0
LINE
8
BLACK
6
CONTINUOUS
10
0.684524
20
0.469955
11
0.685835
21
0.469604
0
LINE
8
BLACK
6
CONTINUOUS
10
0.685835
20
0.469604
11
0.687165
21
0.469332
0
LINE
8
BLACK
6
CONTINUOUS
10
0.687165
20
0.469332
11
0.692789
21
0.466519
0
LINE
8
BLACK
6
CONTINUOUS
10
0.692789
20
0.466519
11
0.6935
21
0.465889
0
LINE
8
BLACK
6
CONTINUOUS
10
0.6935
20
0.465889
11
0.694324
21
0.465413
0
LINE
8
BLACK
6
CONTINUOUS
10
0.694324
20
0.465413
11
0.694377
21
0.465359
0
LINE
8
BLACK
6
CONTINUOUS
10
0.694377
20
0.465359
11
0.694409
21
0.465413
0
LINE
8
BLACK
6
CONTINUOUS
10
0.694409
20
0.465413
11
0.697221
21
0.468225
0
LINE
8
BLACK
6
CONTINUOUS
10
0.697221
20
0.468225
11
0.698044
21
0.468701
0
LINE
8
BLACK
6
CONTINUOUS
10
0.698044
20
0.468701
11
0.698755
21
0.469332
0
LINE
8
BLACK
6
CONTINUOUS
10
0.698755
20
0.469332
11
0.70438
21
0.472144
0
LINE
8
BLACK
6
CONTINUOUS
10
0.70438
20
0.472144
11
0.70571
21
0.472416
0
LINE
8
BLACK
6
CONTINUOUS
10
0.70571
20
0.472416
11
0.707021
21
0.472767
0
LINE
8
BLACK
6
CONTINUOUS
10
0.707021
20
0.472767
11
0.715457
21
0.472767
0
LINE
8
BLACK
6
CONTINUOUS
10
0.715457
20
0.472767
11
0.716768
21
0.472416
0
LINE
8
BLACK
6
CONTINUOUS
10
0.676773
20
0.456384
11
0.675316
21
0.454927
0
LINE
8
BLACK
6
CONTINUOUS
10
0.675316
20
0.454927
11
0.673556
21
0.451407
0
LINE
8
BLACK
6
CONTINUOUS
10
0.673556
20
0.451407
11
0.673556
21
0.439021
0
LINE
8
BLACK
6
CONTINUOUS
10
0.673556
20
0.439021
11
0.689867
21
0.439021
0
LINE
8
BLACK
6
CONTINUOUS
10
0.689867
20
0.439021
11
0.689867
21
0.451407
0
LINE
8
BLACK
6
CONTINUOUS
10
0.689867
20
0.451407
11
0.688107
21
0.454927
0
LINE
8
BLACK
6
CONTINUOUS
10
0.688107
20
0.454927
11
0.68665
21
0.456384
0
LINE
8
BLACK
6
CONTINUOUS
10
0.68665
20
0.456384
11
0.68313
21
0.458144
0
LINE
8
BLACK
6
CONTINUOUS
10
0.68313
20
0.458144
11
0.680293
21
0.458144
0
LINE
8
BLACK
6
CONTINUOUS
10
0.680293
20
0.458144
11
0.676773
21
0.456384
0
LINE
8
BLACK
6
CONTINUOUS
10
0.704895
20
0.459196
11
0.703746
21
0.458047
0
LINE
8
BLACK
6
CONTINUOUS
10
0.703746
20
0.458047
11
0.701678
21
0.451843
0
LINE
8
BLACK
6
CONTINUOUS
10
0.701678
20
0.451843
11
0.701678
21
0.439021
0
LINE
8
BLACK
6
CONTINUOUS
10
0.701678
20
0.439021
11
0.7208
21
0.439021
0
LINE
8
BLACK
6
CONTINUOUS
10
0.7208
20
0.439021
11
0.7208
21
0.454219
0
LINE
8
BLACK
6
CONTINUOUS
10
0.7208
20
0.454219
11
0.71904
21
0.457739
0
LINE
8
BLACK
6
CONTINUOUS
10
0.71904
20
0.457739
11
0.717583
21
0.459196
0
LINE
8
BLACK
6
CONTINUOUS
10
0.717583
20
0.459196
11
0.714063
21
0.460956
0
LINE
8
BLACK
6
CONTINUOUS
10
0.714063
20
0.460956
11
0.708415
21
0.460956
0
LINE
8
BLACK
6
CONTINUOUS
10
0.708415
20
0.460956
11
0.704895
21
0.459196
0
LINE
8
BLACK
6
CONTINUOUS
10
1.1298
20
0.44332
11
1.13408
21
0.442567
0
LINE
8
BLACK
6
CONTINUOUS
10
1.13408
20
0.442567
11
1.13823
21
0.441838
0
LINE
8
BLACK
6
CONTINUOUS
10
1.13823
20
0.441838
11
1.14218
21
0.441144
0
LINE
8
BLACK
6
CONTINUOUS
10
1.14218
20
0.441144
11
1.14586
21
0.440496
0
LINE
8
BLACK
6
CONTINUOUS
10
1.14586
20
0.440496
11
1.14921
21
0.439906
0
LINE
8
BLACK
6
CONTINUOUS
10
1.14921
20
0.439906
11
1.15216
21
0.439387
0
LINE
8
BLACK
6
CONTINUOUS
10
1.15216
20
0.439387
11
1.15464
21
0.43895
0
LINE
8
BLACK
6
CONTINUOUS
10
1.15464
20
0.43895
11
1.15658
21
0.438606
0
LINE
8
BLACK
6
CONTINUOUS
10
1.15658
20
0.438606
11
1.15793
21
0.438368
0
LINE
8
BLACK
6
CONTINUOUS
10
1.15793
20
0.438368
11
1.15845
21
0.438275
0
LINE
8
BLACK
6
CONTINUOUS
10
1.15845
20
0.438275
11
1.16179
21
0.437676
0
LINE
8
BLACK
6
CONTINUOUS
10
1.16179
20
0.437676
11
1.16179
21
0.432476
0
LINE
8
BLACK
6
CONTINUOUS
10
1.16179
20
0.432476
11
1.16179
21
0.430444
0
LINE
8
BLACK
6
CONTINUOUS
10
1.16179
20
0.430444
11
1.16176
21
0.429024
0
LINE
8
BLACK
6
CONTINUOUS
10
1.16176
20
0.429024
11
1.1617
21
0.428108
0
LINE
8
BLACK
6
CONTINUOUS
10
1.1617
20
0.428108
11
1.16159
21
0.427585
0
LINE
8
BLACK
6
CONTINUOUS
10
1.16159
20
0.427585
11
1.16142
21
0.427346
0
LINE
8
BLACK
6
CONTINUOUS
10
1.16142
20
0.427346
11
1.16115
21
0.427279
0
LINE
8
BLACK
6
CONTINUOUS
10
1.16115
20
0.427279
11
1.16102
21
0.427276
0
LINE
8
BLACK
6
CONTINUOUS
10
1.16102
20
0.427276
11
1.16056
21
0.427337
0
LINE
8
BLACK
6
CONTINUOUS
10
1.16056
20
0.427337
11
1.15946
21
0.427511
0
LINE
8
BLACK
6
CONTINUOUS
10
1.15946
20
0.427511
11
1.15779
21
0.427788
0
LINE
8
BLACK
6
CONTINUOUS
10
1.15779
20
0.427788
11
1.15561
21
0.428155
0
LINE
8
BLACK
6
CONTINUOUS
10
1.15561
20
0.428155
11
1.15299
21
0.428601
0
LINE
8
BLACK
6
CONTINUOUS
10
1.15299
20
0.428601
11
1.15
21
0.429115
0
LINE
8
BLACK
6
CONTINUOUS
10
1.15
20
0.429115
11
1.14669
21
0.429686
0
LINE
8
BLACK
6
CONTINUOUS
10
1.14669
20
0.429686
11
1.14314
21
0.430301
0
LINE
8
BLACK
6
CONTINUOUS
10
1.14314
20
0.430301
11
1.13941
21
0.430949
0
LINE
8
BLACK
6
CONTINUOUS
10
1.13941
20
0.430949
11
1.13557
21
0.43162
0
LINE
8
BLACK
6
CONTINUOUS
10
1.13557
20
0.43162
11
1.13168
21
0.4323
0
LINE
8
BLACK
6
CONTINUOUS
10
1.13168
20
0.4323
11
1.1278
21
0.43298
0
LINE
8
BLACK
6
CONTINUOUS
10
1.1278
20
0.43298
11
1.12401
21
0.433646
0
LINE
8
BLACK
6
CONTINUOUS
10
1.12401
20
0.433646
11
1.12037
21
0.434289
0
LINE
8
BLACK
6
CONTINUOUS
10
1.12037
20
0.434289
11
1.11694
21
0.434896
0
LINE
8
BLACK
6
CONTINUOUS
10
1.11694
20
0.434896
11
1.11379
21
0.435456
0
LINE
8
BLACK
6
CONTINUOUS
10
1.11379
20
0.435456
11
1.11099
21
0.435958
0
LINE
8
BLACK
6
CONTINUOUS
10
1.11099
20
0.435958
11
1.1086
21
0.436389
0
LINE
8
BLACK
6
CONTINUOUS
10
1.1086
20
0.436389
11
1.10668
21
0.43674
0
LINE
8
BLACK
6
CONTINUOUS
10
1.10668
20
0.43674
11
1.10531
21
0.436997
0
LINE
8
BLACK
6
CONTINUOUS
10
1.10531
20
0.436997
11
1.10454
21
0.437149
0
LINE
8
BLACK
6
CONTINUOUS
10
1.10454
20
0.437149
11
1.1044
21
0.437186
0
LINE
8
BLACK
6
CONTINUOUS
10
1.1044
20
0.437186
11
1.10437
21
0.437568
0
LINE
8
BLACK
6
CONTINUOUS
10
1.10437
20
0.437568
11
1.10435
21
0.438542
0
LINE
8
BLACK
6
CONTINUOUS
10
1.10435
20
0.438542
11
1.10435
21
0.439977
0
LINE
8
BLACK
6
CONTINUOUS
10
1.10435
20
0.439977
11
1.10437
21
0.441742
0
LINE
8
BLACK
6
CONTINUOUS
10
1.10437
20
0.441742
11
1.10439
21
0.442531
0
LINE
8
BLACK
6
CONTINUOUS
10
1.10439
20
0.442531
11
1.10449
21
0.447764
0
LINE
8
BLACK
6
CONTINUOUS
10
1.10449
20
0.447764
11
1.1298
21
0.44332
0
LINE
8
BLACK
6
CONTINUOUS
10
1.03467
20
0.483291
11
1.03608
21
0.483087
0
LINE
8
BLACK
6
CONTINUOUS
10
1.03608
20
0.483087
11
1.0378
21
0.482804
0
LINE
8
BLACK
6
CONTINUOUS
10
1.0378
20
0.482804
11
1.03825
21
0.482725
0
LINE
8
BLACK
6
CONTINUOUS
10
1.03825
20
0.482725
11
1.04003
21
0.48241
0
LINE
8
BLACK
6
CONTINUOUS
10
1.04003
20
0.48241
11
1.04155
21
0.482148
0
LINE
8
BLACK
6
CONTINUOUS
10
1.04155
20
0.482148
11
1.04267
21
0.481961
0
LINE
8
BLACK
6
CONTINUOUS
10
1.04267
20
0.481961
11
1.04326
21
0.481873
0
LINE
8
BLACK
6
CONTINUOUS
10
1.04326
20
0.481873
11
1.0433
21
0.48187
0
LINE
8
BLACK
6
CONTINUOUS
10
1.0433
20
0.48187
11
1.04336
21
0.481522
0
LINE
8
BLACK
6
CONTINUOUS
10
1.04336
20
0.481522
11
1.04342
21
0.480536
0
LINE
8
BLACK
6
CONTINUOUS
10
1.04342
20
0.480536
11
1.04348
21
0.478997
0
LINE
8
BLACK
6
CONTINUOUS
10
1.04348
20
0.478997
11
1.04352
21
0.47699
0
LINE
8
BLACK
6
CONTINUOUS
10
1.04352
20
0.47699
11
1.04355
21
0.4746
0
LINE
8
BLACK
6
CONTINUOUS
10
1.04355
20
0.4746
11
1.04357
21
0.471912
0
LINE
8
BLACK
6
CONTINUOUS
10
1.04357
20
0.471912
11
1.04357
21
0.470144
0
LINE
8
BLACK
6
CONTINUOUS
10
1.04357
20
0.470144
11
1.04357
21
0.45842
0
LINE
8
BLACK
6
CONTINUOUS
10
1.04357
20
0.45842
11
1.04547
21
0.458043
0
LINE
8
BLACK
6
CONTINUOUS
10
1.04547
20
0.458043
11
1.04673
21
0.457803
0
LINE
8
BLACK
6
CONTINUOUS
10
1.04673
20
0.457803
11
1.0484
21
0.457497
0
LINE
8
BLACK
6
CONTINUOUS
10
1.0484
20
0.457497
11
1.05016
21
0.457183
0
LINE
8
BLACK
6
CONTINUOUS
10
1.05016
20
0.457183
11
1.05062
21
0.457102
0
LINE
8
BLACK
6
CONTINUOUS
10
1.05062
20
0.457102
11
1.05217
21
0.45683
0
LINE
8
BLACK
6
CONTINUOUS
10
1.05217
20
0.45683
11
1.05352
21
0.456585
0
LINE
8
BLACK
6
CONTINUOUS
10
1.05352
20
0.456585
11
1.05447
21
0.456406
0
LINE
8
BLACK
6
CONTINUOUS
10
1.05447
20
0.456406
11
1.05469
21
0.456361
0
LINE
8
BLACK
6
CONTINUOUS
10
1.05469
20
0.456361
11
1.0555
21
0.456185
0
LINE
8
BLACK
6
CONTINUOUS
10
1.0555
20
0.456185
11
1.0555
21
0.465231
0
LINE
8
BLACK
6
CONTINUOUS
10
1.0555
20
0.465231
11
1.05551
21
0.468156
0
LINE
8
BLACK
6
CONTINUOUS
10
1.05551
20
0.468156
11
1.05553
21
0.470424
0
LINE
8
BLACK
6
CONTINUOUS
10
1.05553
20
0.470424
11
1.05558
21
0.472101
0
LINE
8
BLACK
6
CONTINUOUS
10
1.05558
20
0.472101
11
1.05566
21
0.473254
0
LINE
8
BLACK
6
CONTINUOUS
10
1.05566
20
0.473254
11
1.05576
21
0.473948
0
LINE
8
BLACK
6
CONTINUOUS
10
1.05576
20
0.473948
11
1.05589
21
0.47425
0
LINE
8
BLACK
6
CONTINUOUS
10
1.05589
20
0.47425
11
1.05595
21
0.474275
0
LINE
8
BLACK
6
CONTINUOUS
10
1.05595
20
0.474275
11
1.05645
21
0.474213
0
LINE
8
BLACK
6
CONTINUOUS
10
1.05645
20
0.474213
11
1.05749
21
0.474046
0
LINE
8
BLACK
6
CONTINUOUS
10
1.05749
20
0.474046
11
1.05889
21
0.473806
0
LINE
8
BLACK
6
CONTINUOUS
10
1.05889
20
0.473806
11
1.0605
21
0.473522
0
LINE
8
BLACK
6
CONTINUOUS
10
1.0605
20
0.473522
11
1.06213
21
0.473226
0
LINE
8
BLACK
6
CONTINUOUS
10
1.06213
20
0.473226
11
1.06361
21
0.472948
0
LINE
8
BLACK
6
CONTINUOUS
10
1.06361
20
0.472948
11
1.06478
21
0.472717
0
LINE
8
BLACK
6
CONTINUOUS
10
1.06478
20
0.472717
11
1.06517
21
0.472634
0
LINE
8
BLACK
6
CONTINUOUS
10
1.06517
20
0.472634
11
1.06598
21
0.472454
0
LINE
8
BLACK
6
CONTINUOUS
10
1.06598
20
0.472454
11
1.06598
21
0.454405
0
LINE
8
BLACK
6
CONTINUOUS
10
1.06598
20
0.454405
11
1.0668
21
0.454221
0
LINE
8
BLACK
6
CONTINUOUS
10
1.0668
20
0.454221
11
1.06736
21
0.454112
0
LINE
8
BLACK
6
CONTINUOUS
10
1.06736
20
0.454112
11
1.06854
21
0.4539
0
LINE
8
BLACK
6
CONTINUOUS
10
1.06854
20
0.4539
11
1.07022
21
0.453603
0
LINE
8
BLACK
6
CONTINUOUS
10
1.07022
20
0.453603
11
1.0723
21
0.453238
0
LINE
8
BLACK
6
CONTINUOUS
10
1.0723
20
0.453238
11
1.07469
21
0.452825
0
LINE
8
BLACK
6
CONTINUOUS
10
1.07469
20
0.452825
11
1.07719
21
0.452395
0
LINE
8
BLACK
6
CONTINUOUS
10
1.07719
20
0.452395
11
1.07985
21
0.451938
0
LINE
8
BLACK
6
CONTINUOUS
10
1.07985
20
0.451938
11
1.08237
21
0.451501
0
LINE
8
BLACK
6
CONTINUOUS
10
1.08237
20
0.451501
11
1.08463
21
0.451105
0
LINE
8
BLACK
6
CONTINUOUS
10
1.08463
20
0.451105
11
1.08653
21
0.45077
0
LINE
8
BLACK
6
CONTINUOUS
10
1.08653
20
0.45077
11
1.08793
21
0.450517
0
LINE
8
BLACK
6
CONTINUOUS
10
1.08793
20
0.450517
11
1.08867
21
0.450378
0
LINE
8
BLACK
6
CONTINUOUS
10
1.08867
20
0.450378
11
1.09057
21
0.450002
0
LINE
8
BLACK
6
CONTINUOUS
10
1.09057
20
0.450002
11
1.09057
21
0.444785
0
LINE
8
BLACK
6
CONTINUOUS
10
1.09057
20
0.444785
11
1.09056
21
0.442724
0
LINE
8
BLACK
6
CONTINUOUS
10
1.09056
20
0.442724
11
1.09053
21
0.441281
0
LINE
8
BLACK
6
CONTINUOUS
10
1.09053
20
0.441281
11
1.09045
21
0.440349
0
LINE
8
BLACK
6
CONTINUOUS
10
1.09045
20
0.440349
11
1.09033
21
0.439825
0
LINE
8
BLACK
6
CONTINUOUS
10
1.09033
20
0.439825
11
1.09015
21
0.439602
0
LINE
8
BLACK
6
CONTINUOUS
10
1.09015
20
0.439602
11
1.08999
21
0.439569
0
LINE
8
BLACK
6
CONTINUOUS
10
1.08999
20
0.439569
11
1.08953
21
0.43963
0
LINE
8
BLACK
6
CONTINUOUS
10
1.08953
20
0.43963
11
1.08843
21
0.439806
0
LINE
8
BLACK
6
CONTINUOUS
10
1.08843
20
0.439806
11
1.08675
21
0.440085
0
LINE
8
BLACK
6
CONTINUOUS
10
1.08675
20
0.440085
11
1.08457
21
0.440456
0
LINE
8
BLACK
6
CONTINUOUS
10
1.08457
20
0.440456
11
1.08194
21
0.440907
0
LINE
8
BLACK
6
CONTINUOUS
10
1.08194
20
0.440907
11
1.07894
21
0.441426
0
LINE
8
BLACK
6
CONTINUOUS
10
1.07894
20
0.441426
11
1.07563
21
0.442002
0
LINE
8
BLACK
6
CONTINUOUS
10
1.07563
20
0.442002
11
1.07207
21
0.442623
0
LINE
8
BLACK
6
CONTINUOUS
10
1.07207
20
0.442623
11
1.06833
21
0.443278
0
LINE
8
BLACK
6
CONTINUOUS
10
1.06833
20
0.443278
11
1.06448
21
0.443954
0
LINE
8
BLACK
6
CONTINUOUS
10
1.06448
20
0.443954
11
1.06059
21
0.444641
0
LINE
8
BLACK
6
CONTINUOUS
10
1.06059
20
0.444641
11
1.05671
21
0.445326
0
LINE
8
BLACK
6
CONTINUOUS
10
1.05671
20
0.445326
11
1.05291
21
0.445999
0
LINE
8
BLACK
6
CONTINUOUS
10
1.05291
20
0.445999
11
1.04927
21
0.446647
0
LINE
8
BLACK
6
CONTINUOUS
10
1.04927
20
0.446647
11
1.04584
21
0.447259
0
LINE
8
BLACK
6
CONTINUOUS
10
1.04584
20
0.447259
11
1.0427
21
0.447823
0
LINE
8
BLACK
6
CONTINUOUS
10
1.0427
20
0.447823
11
1.0399
21
0.448327
0
LINE
8
BLACK
6
CONTINUOUS
10
1.0399
20
0.448327
11
1.03752
21
0.448761
0
LINE
8
BLACK
6
CONTINUOUS
10
1.03752
20
0.448761
11
1.03561
21
0.449112
0
LINE
8
BLACK
6
CONTINUOUS
10
1.03561
20
0.449112
11
1.03425
21
0.449369
0
LINE
8
BLACK
6
CONTINUOUS
10
1.03425
20
0.449369
11
1.0335
21
0.44952
0
LINE
8
BLACK
6
CONTINUOUS
10
1.0335
20
0.44952
11
1.03338
21
0.449553
0
LINE
8
BLACK
6
CONTINUOUS
10
1.03338
20
0.449553
11
1.03332
21
0.449935
0
LINE
8
BLACK
6
CONTINUOUS
10
1.03332
20
0.449935
11
1.03327
21
0.450954
0
LINE
8
BLACK
6
CONTINUOUS
10
1.03327
20
0.450954
11
1.03323
21
0.452521
0
LINE
8
BLACK
6
CONTINUOUS
10
1.03323
20
0.452521
11
1.03319
21
0.454551
0
LINE
8
BLACK
6
CONTINUOUS
10
1.03319
20
0.454551
11
1.03316
21
0.456955
0
LINE
8
BLACK
6
CONTINUOUS
10
1.03316
20
0.456955
11
1.03313
21
0.459647
0
LINE
8
BLACK
6
CONTINUOUS
10
1.03313
20
0.459647
11
1.03311
21
0.462539
0
LINE
8
BLACK
6
CONTINUOUS
10
1.03311
20
0.462539
11
1.03309
21
0.465545
0
LINE
8
BLACK
6
CONTINUOUS
10
1.03309
20
0.465545
11
1.03309
21
0.468578
0
LINE
8
BLACK
6
CONTINUOUS
10
1.03309
20
0.468578
11
1.03308
21
0.47155
0
LINE
8
BLACK
6
CONTINUOUS
10
1.03308
20
0.47155
11
1.03309
21
0.474374
0
LINE
8
BLACK
6
CONTINUOUS
10
1.03309
20
0.474374
11
1.03311
21
0.476964
0
LINE
8
BLACK
6
CONTINUOUS
10
1.03311
20
0.476964
11
1.03313
21
0.479232
0
LINE
8
BLACK
6
CONTINUOUS
10
1.03313
20
0.479232
11
1.03316
21
0.481091
0
LINE
8
BLACK
6
CONTINUOUS
10
1.03316
20
0.481091
11
1.0332
21
0.482454
0
LINE
8
BLACK
6
CONTINUOUS
10
1.0332
20
0.482454
11
1.03325
21
0.483235
0
LINE
8
BLACK
6
CONTINUOUS
10
1.03325
20
0.483235
11
1.03328
21
0.483386
0
LINE
8
BLACK
6
CONTINUOUS
10
1.03328
20
0.483386
11
1.03368
21
0.483396
0
LINE
8
BLACK
6
CONTINUOUS
10
1.03368
20
0.483396
11
1.03467
21
0.483291
0
LINE
8
BLACK
6
CONTINUOUS
10
0.963571
20
0.472301
11
0.96414
21
0.472202
0
LINE
8
BLACK
6
CONTINUOUS
10
0.96414
20
0.472202
11
0.965363
21
0.471988
0
LINE
8
BLACK
6
CONTINUOUS
10
0.965363
20
0.471988
11
0.967182
21
0.471669
0
LINE
8
BLACK
6
CONTINUOUS
10
0.967182
20
0.471669
11
0.969539
21
0.471256
0
LINE
8
BLACK
6
CONTINUOUS
10
0.969539
20
0.471256
11
0.972375
21
0.470758
0
LINE
8
BLACK
6
CONTINUOUS
10
0.972375
20
0.470758
11
0.975632
21
0.470185
0
LINE
8
BLACK
6
CONTINUOUS
10
0.975632
20
0.470185
11
0.979254
21
0.469549
0
LINE
8
BLACK
6
CONTINUOUS
10
0.979254
20
0.469549
11
0.98318
21
0.468859
0
LINE
8
BLACK
6
CONTINUOUS
10
0.98318
20
0.468859
11
0.987353
21
0.468125
0
LINE
8
BLACK
6
CONTINUOUS
10
0.987353
20
0.468125
11
0.991715
21
0.467358
0
LINE
8
BLACK
6
CONTINUOUS
10
0.991715
20
0.467358
11
0.992232
21
0.467267
0
LINE
8
BLACK
6
CONTINUOUS
10
0.992232
20
0.467267
11
1.01953
21
0.462466
0
LINE
8
BLACK
6
CONTINUOUS
10
1.01953
20
0.462466
11
1.01963
21
0.457164
0
LINE
8
BLACK
6
CONTINUOUS
10
1.01963
20
0.457164
11
1.01965
21
0.455009
0
LINE
8
BLACK
6
CONTINUOUS
10
1.01965
20
0.455009
11
1.01964
21
0.453489
0
LINE
8
BLACK
6
CONTINUOUS
10
1.01964
20
0.453489
11
1.01957
21
0.452518
0
LINE
8
BLACK
6
CONTINUOUS
10
1.01957
20
0.452518
11
1.01944
21
0.452008
0
LINE
8
BLACK
6
CONTINUOUS
10
1.01944
20
0.452008
11
1.01927
21
0.451872
0
LINE
8
BLACK
6
CONTINUOUS
10
1.01927
20
0.451872
11
1.01885
21
0.451935
0
LINE
8
BLACK
6
CONTINUOUS
10
1.01885
20
0.451935
11
1.01777
21
0.452115
0
LINE
8
BLACK
6
CONTINUOUS
10
1.01777
20
0.452115
11
1.01609
21
0.452401
0
LINE
8
BLACK
6
CONTINUOUS
10
1.01609
20
0.452401
11
1.01386
21
0.452784
0
LINE
8
BLACK
6
CONTINUOUS
10
1.01386
20
0.452784
11
1.01114
21
0.453255
0
LINE
8
BLACK
6
CONTINUOUS
10
1.01114
20
0.453255
11
1.00798
21
0.453804
0
LINE
8
BLACK
6
CONTINUOUS
10
1.00798
20
0.453804
11
1.00443
21
0.454422
0
LINE
8
BLACK
6
CONTINUOUS
10
1.00443
20
0.454422
11
1.00056
21
0.4551
0
LINE
8
BLACK
6
CONTINUOUS
10
1.00056
20
0.4551
11
0.996414
21
0.455826
0
LINE
8
BLACK
6
CONTINUOUS
10
0.996414
20
0.455826
11
0.992048
21
0.456594
0
LINE
8
BLACK
6
CONTINUOUS
10
0.992048
20
0.456594
11
0.990605
21
0.456848
0
LINE
8
BLACK
6
CONTINUOUS
10
0.990605
20
0.456848
11
0.962406
21
0.461812
0
LINE
8
BLACK
6
CONTINUOUS
10
0.962406
20
0.461812
11
0.962205
21
0.472535
0
LINE
8
BLACK
6
CONTINUOUS
10
0.962205
20
0.472535
11
0.963571
21
0.472301
0
LINE
8
BLACK
6
CONTINUOUS
10
1.10517
20
0.488662
11
1.10625
21
0.488482
0
LINE
8
BLACK
6
CONTINUOUS
10
1.10625
20
0.488482
11
1.10793
21
0.488196
0
LINE
8
BLACK
6
CONTINUOUS
10
1.10793
20
0.488196
11
1.11016
21
0.487813
0
LINE
8
BLACK
6
CONTINUOUS
10
1.11016
20
0.487813
11
1.11288
21
0.487341
0
LINE
8
BLACK
6
CONTINUOUS
10
1.11288
20
0.487341
11
1.11604
21
0.486791
0
LINE
8
BLACK
6
CONTINUOUS
10
1.11604
20
0.486791
11
1.11958
21
0.486173
0
LINE
8
BLACK
6
CONTINUOUS
10
1.11958
20
0.486173
11
1.12345
21
0.485495
0
LINE
8
BLACK
6
CONTINUOUS
10
1.12345
20
0.485495
11
1.1276
21
0.484768
0
LINE
8
BLACK
6
CONTINUOUS
10
1.1276
20
0.484768
11
1.13197
21
0.484
0
LINE
8
BLACK
6
CONTINUOUS
10
1.13197
20
0.484
11
1.13341
21
0.483746
0
LINE
8
BLACK
6
CONTINUOUS
10
1.13341
20
0.483746
11
1.16161
21
0.478778
0
LINE
8
BLACK
6
CONTINUOUS
10
1.16161
20
0.478778
11
1.16181
21
0.468063
0
LINE
8
BLACK
6
CONTINUOUS
10
1.16181
20
0.468063
11
1.16045
21
0.468297
0
LINE
8
BLACK
6
CONTINUOUS
10
1.16045
20
0.468297
11
1.15988
21
0.468396
0
LINE
8
BLACK
6
CONTINUOUS
10
1.15988
20
0.468396
11
1.15865
21
0.46861
0
LINE
8
BLACK
6
CONTINUOUS
10
1.15865
20
0.46861
11
1.15683
21
0.468929
0
LINE
8
BLACK
6
CONTINUOUS
10
1.15683
20
0.468929
11
1.15448
21
0.469342
0
LINE
8
BLACK
6
CONTINUOUS
10
1.15448
20
0.469342
11
1.15164
21
0.46984
0
LINE
8
BLACK
6
CONTINUOUS
10
1.15164
20
0.46984
11
1.14838
21
0.470412
0
LINE
8
BLACK
6
CONTINUOUS
10
1.14838
20
0.470412
11
1.14476
21
0.471048
0
LINE
8
BLACK
6
CONTINUOUS
10
1.14476
20
0.471048
11
1.14084
21
0.471737
0
LINE
8
BLACK
6
CONTINUOUS
10
1.14084
20
0.471737
11
1.13666
21
0.47247
0
LINE
8
BLACK
6
CONTINUOUS
10
1.13666
20
0.47247
11
1.1323
21
0.473237
0
LINE
8
BLACK
6
CONTINUOUS
10
1.1323
20
0.473237
11
1.13178
21
0.473327
0
LINE
8
BLACK
6
CONTINUOUS
10
1.13178
20
0.473327
11
1.10449
21
0.478124
0
LINE
8
BLACK
6
CONTINUOUS
10
1.10449
20
0.478124
11
1.10439
21
0.48343
0
LINE
8
BLACK
6
CONTINUOUS
10
1.10439
20
0.48343
11
1.10436
21
0.485586
0
LINE
8
BLACK
6
CONTINUOUS
10
1.10436
20
0.485586
11
1.10438
21
0.487106
0
LINE
8
BLACK
6
CONTINUOUS
10
1.10438
20
0.487106
11
1.10445
21
0.488078
0
LINE
8
BLACK
6
CONTINUOUS
10
1.10445
20
0.488078
11
1.10457
21
0.488589
0
LINE
8
BLACK
6
CONTINUOUS
10
1.10457
20
0.488589
11
1.10475
21
0.488725
0
LINE
8
BLACK
6
CONTINUOUS
10
1.10475
20
0.488725
11
1.10517
21
0.488662
0
LINE
8
BLACK
6
CONTINUOUS
10
1.08126
20
0.512436
11
1.08197
21
0.512296
0
LINE
8
BLACK
6
CONTINUOUS
10
1.08197
20
0.512296
11
1.08319
21
0.512074
0
LINE
8
BLACK
6
CONTINUOUS
10
1.08319
20
0.512074
11
1.08468
21
0.511809
0
LINE
8
BLACK
6
CONTINUOUS
10
1.08468
20
0.511809
11
1.08533
21
0.511696
0
LINE
8
BLACK
6
CONTINUOUS
10
1.08533
20
0.511696
11
1.0869
21
0.51142
0
LINE
8
BLACK
6
CONTINUOUS
10
1.0869
20
0.51142
11
1.08832
21
0.511167
0
LINE
8
BLACK
6
CONTINUOUS
10
1.08832
20
0.511167
11
1.08933
21
0.510979
0
LINE
8
BLACK
6
CONTINUOUS
10
1.08933
20
0.510979
11
1.08957
21
0.510933
0
LINE
8
BLACK
6
CONTINUOUS
10
1.08957
20
0.510933
11
1.09057
21
0.510733
0
LINE
8
BLACK
6
CONTINUOUS
10
1.09057
20
0.510733
11
1.09057
21
0.495577
0
LINE
8
BLACK
6
CONTINUOUS
10
1.09057
20
0.495577
11
1.09056
21
0.491714
0
LINE
8
BLACK
6
CONTINUOUS
10
1.09056
20
0.491714
11
1.09055
21
0.488521
0
LINE
8
BLACK
6
CONTINUOUS
10
1.09055
20
0.488521
11
1.09053
21
0.485945
0
LINE
8
BLACK
6
CONTINUOUS
10
1.09053
20
0.485945
11
1.09049
21
0.483933
0
LINE
8
BLACK
6
CONTINUOUS
10
1.09049
20
0.483933
11
1.09043
21
0.482431
0
LINE
8
BLACK
6
CONTINUOUS
10
1.09043
20
0.482431
11
1.09037
21
0.481388
0
LINE
8
BLACK
6
CONTINUOUS
10
1.09037
20
0.481388
11
1.09028
21
0.480749
0
LINE
8
BLACK
6
CONTINUOUS
10
1.09028
20
0.480749
11
1.09017
21
0.480462
0
LINE
8
BLACK
6
CONTINUOUS
10
1.09017
20
0.480462
11
1.09012
21
0.480434
0
LINE
8
BLACK
6
CONTINUOUS
10
1.09012
20
0.480434
11
1.0897
21
0.480497
0
LINE
8
BLACK
6
CONTINUOUS
10
1.0897
20
0.480497
11
1.08862
21
0.480676
0
LINE
8
BLACK
6
CONTINUOUS
10
1.08862
20
0.480676
11
1.08694
21
0.480963
0
LINE
8
BLACK
6
CONTINUOUS
10
1.08694
20
0.480963
11
1.08472
21
0.481346
0
LINE
8
BLACK
6
CONTINUOUS
10
1.08472
20
0.481346
11
1.082
21
0.481818
0
LINE
8
BLACK
6
CONTINUOUS
10
1.082
20
0.481818
11
1.07884
21
0.482367
0
LINE
8
BLACK
6
CONTINUOUS
10
1.07884
20
0.482367
11
1.07529
21
0.482986
0
LINE
8
BLACK
6
CONTINUOUS
10
1.07529
20
0.482986
11
1.07142
21
0.483663
0
LINE
8
BLACK
6
CONTINUOUS
10
1.07142
20
0.483663
11
1.06728
21
0.484391
0
LINE
8
BLACK
6
CONTINUOUS
10
1.06728
20
0.484391
11
1.06291
21
0.485158
0
LINE
8
BLACK
6
CONTINUOUS
10
1.06291
20
0.485158
11
1.06147
21
0.485413
0
LINE
8
BLACK
6
CONTINUOUS
10
1.06147
20
0.485413
11
1.03327
21
0.49038
0
LINE
8
BLACK
6
CONTINUOUS
10
1.03327
20
0.49038
11
1.03317
21
0.495705
0
LINE
8
BLACK
6
CONTINUOUS
10
1.03317
20
0.495705
11
1.03315
21
0.497573
0
LINE
8
BLACK
6
CONTINUOUS
10
1.03315
20
0.497573
11
1.03316
21
0.499155
0
LINE
8
BLACK
6
CONTINUOUS
10
1.03316
20
0.499155
11
1.0332
21
0.500324
0
LINE
8
BLACK
6
CONTINUOUS
10
1.0332
20
0.500324
11
1.03326
21
0.500955
0
LINE
8
BLACK
6
CONTINUOUS
10
1.03326
20
0.500955
11
1.0333
21
0.501029
0
LINE
8
BLACK
6
CONTINUOUS
10
1.0333
20
0.501029
11
1.03371
21
0.500968
0
LINE
8
BLACK
6
CONTINUOUS
10
1.03371
20
0.500968
11
1.03476
21
0.500794
0
LINE
8
BLACK
6
CONTINUOUS
10
1.03476
20
0.500794
11
1.03637
21
0.500518
0
LINE
8
BLACK
6
CONTINUOUS
10
1.03637
20
0.500518
11
1.03848
21
0.500155
0
LINE
8
BLACK
6
CONTINUOUS
10
1.03848
20
0.500155
11
1.04101
21
0.499717
0
LINE
8
BLACK
6
CONTINUOUS
10
1.04101
20
0.499717
11
1.04389
21
0.499217
0
LINE
8
BLACK
6
CONTINUOUS
10
1.04389
20
0.499217
11
1.04704
21
0.498667
0
LINE
8
BLACK
6
CONTINUOUS
10
1.04704
20
0.498667
11
1.05039
21
0.49808
0
LINE
8
BLACK
6
CONTINUOUS
10
1.05039
20
0.49808
11
1.05387
21
0.49747
0
LINE
8
BLACK
6
CONTINUOUS
10
1.05387
20
0.49747
11
1.05741
21
0.496849
0
LINE
8
BLACK
6
CONTINUOUS
10
1.05741
20
0.496849
11
1.06093
21
0.49623
0
LINE
8
BLACK
6
CONTINUOUS
10
1.06093
20
0.49623
11
1.06435
21
0.495625
0
LINE
8
BLACK
6
CONTINUOUS
10
1.06435
20
0.495625
11
1.06762
21
0.495048
0
LINE
8
BLACK
6
CONTINUOUS
10
1.06762
20
0.495048
11
1.07065
21
0.494511
0
LINE
8
BLACK
6
CONTINUOUS
10
1.07065
20
0.494511
11
1.07337
21
0.494027
0
LINE
8
BLACK
6
CONTINUOUS
10
1.07337
20
0.494027
11
1.0757
21
0.49361
0
LINE
8
BLACK
6
CONTINUOUS
10
1.0757
20
0.49361
11
1.07758
21
0.493271
0
LINE
8
BLACK
6
CONTINUOUS
10
1.07758
20
0.493271
11
1.07894
21
0.493024
0
LINE
8
BLACK
6
CONTINUOUS
10
1.07894
20
0.493024
11
1.07969
21
0.492881
0
LINE
8
BLACK
6
CONTINUOUS
10
1.07969
20
0.492881
11
1.07981
21
0.492853
0
LINE
8
BLACK
6
CONTINUOUS
10
1.07981
20
0.492853
11
1.08
21
0.492838
0
LINE
8
BLACK
6
CONTINUOUS
10
1.08
20
0.492838
11
1.08015
21
0.492966
0
LINE
8
BLACK
6
CONTINUOUS
10
1.08015
20
0.492966
11
1.08026
21
0.493317
0
LINE
8
BLACK
6
CONTINUOUS
10
1.08026
20
0.493317
11
1.08034
21
0.493966
0
LINE
8
BLACK
6
CONTINUOUS
10
1.08034
20
0.493966
11
1.08039
21
0.494991
0
LINE
8
BLACK
6
CONTINUOUS
10
1.08039
20
0.494991
11
1.08042
21
0.496469
0
LINE
8
BLACK
6
CONTINUOUS
10
1.08042
20
0.496469
11
1.08044
21
0.498478
0
LINE
8
BLACK
6
CONTINUOUS
10
1.08044
20
0.498478
11
1.08045
21
0.501094
0
LINE
8
BLACK
6
CONTINUOUS
10
1.08045
20
0.501094
11
1.08045
21
0.502639
0
LINE
8
BLACK
6
CONTINUOUS
10
1.08045
20
0.502639
11
1.08045
21
0.512612
0
LINE
8
BLACK
6
CONTINUOUS
10
1.08045
20
0.512612
11
1.08126
21
0.512436
0
LINE
8
BLACK
6
CONTINUOUS
10
0.988617
20
0.508936
11
0.992943
21
0.508175
0
LINE
8
BLACK
6
CONTINUOUS
10
0.992943
20
0.508175
11
0.997113
21
0.507441
0
LINE
8
BLACK
6
CONTINUOUS
10
0.997113
20
0.507441
11
1.00106
21
0.506747
0
LINE
8
BLACK
6
CONTINUOUS
10
1.00106
20
0.506747
11
1.00473
21
0.506103
0
LINE
8
BLACK
6
CONTINUOUS
10
1.00473
20
0.506103
11
1.00806
21
0.505519
0
LINE
8
BLACK
6
CONTINUOUS
10
1.00806
20
0.505519
11
1.01097
21
0.505008
0
LINE
8
BLACK
6
CONTINUOUS
10
1.01097
20
0.505008
11
1.01342
21
0.504579
0
LINE
8
BLACK
6
CONTINUOUS
10
1.01342
20
0.504579
11
1.01534
21
0.504244
0
LINE
8
BLACK
6
CONTINUOUS
10
1.01534
20
0.504244
11
1.01666
21
0.504015
0
LINE
8
BLACK
6
CONTINUOUS
10
1.01666
20
0.504015
11
1.01727
21
0.503909
0
LINE
8
BLACK
6
CONTINUOUS
10
1.01727
20
0.503909
11
1.01971
21
0.503495
0
LINE
8
BLACK
6
CONTINUOUS
10
1.01971
20
0.503495
11
1.01971
21
0.4927
0
LINE
8
BLACK
6
CONTINUOUS
10
1.01971
20
0.4927
11
1.0189
21
0.492895
0
LINE
8
BLACK
6
CONTINUOUS
10
1.0189
20
0.492895
11
1.01842
21
0.492987
0
LINE
8
BLACK
6
CONTINUOUS
10
1.01842
20
0.492987
11
1.01728
21
0.493194
0
LINE
8
BLACK
6
CONTINUOUS
10
1.01728
20
0.493194
11
1.01555
21
0.493506
0
LINE
8
BLACK
6
CONTINUOUS
10
1.01555
20
0.493506
11
1.01327
21
0.493913
0
LINE
8
BLACK
6
CONTINUOUS
10
1.01327
20
0.493913
11
1.0105
21
0.494404
0
LINE
8
BLACK
6
CONTINUOUS
10
1.0105
20
0.494404
11
1.00731
21
0.49497
0
LINE
8
BLACK
6
CONTINUOUS
10
1.00731
20
0.49497
11
1.00373
21
0.495602
0
LINE
8
BLACK
6
CONTINUOUS
10
1.00373
20
0.495602
11
0.999839
21
0.496288
0
LINE
8
BLACK
6
CONTINUOUS
10
0.999839
20
0.496288
11
0.995682
21
0.49702
0
LINE
8
BLACK
6
CONTINUOUS
10
0.995682
20
0.49702
11
0.991317
21
0.497787
0
LINE
8
BLACK
6
CONTINUOUS
10
0.991317
20
0.497787
11
0.990266
21
0.497972
0
LINE
8
BLACK
6
CONTINUOUS
10
0.990266
20
0.497972
11
0.985881
21
0.498742
0
LINE
8
BLACK
6
CONTINUOUS
10
0.985881
20
0.498742
11
0.981705
21
0.499479
0
LINE
8
BLACK
6
CONTINUOUS
10
0.981705
20
0.499479
11
0.977793
21
0.500171
0
LINE
8
BLACK
6
CONTINUOUS
10
0.977793
20
0.500171
11
0.9742
21
0.500809
0
LINE
8
BLACK
6
CONTINUOUS
10
0.9742
20
0.500809
11
0.970978
21
0.501384
0
LINE
8
BLACK
6
CONTINUOUS
10
0.970978
20
0.501384
11
0.968184
21
0.501886
0
LINE
8
BLACK
6
CONTINUOUS
10
0.968184
20
0.501886
11
0.96587
21
0.502305
0
LINE
8
BLACK
6
CONTINUOUS
10
0.96587
20
0.502305
11
0.964092
21
0.502631
0
LINE
8
BLACK
6
CONTINUOUS
10
0.964092
20
0.502631
11
0.962902
21
0.502854
0
LINE
8
BLACK
6
CONTINUOUS
10
0.962902
20
0.502854
11
0.962357
21
0.502966
0
LINE
8
BLACK
6
CONTINUOUS
10
0.962357
20
0.502966
11
0.962327
21
0.502975
0
LINE
8
BLACK
6
CONTINUOUS
10
0.962327
20
0.502975
11
0.96229
21
0.503361
0
LINE
8
BLACK
6
CONTINUOUS
10
0.96229
20
0.503361
11
0.962272
21
0.504338
0
LINE
8
BLACK
6
CONTINUOUS
10
0.962272
20
0.504338
11
0.962272
21
0.505775
0
LINE
8
BLACK
6
CONTINUOUS
10
0.962272
20
0.505775
11
0.962292
21
0.507541
0
LINE
8
BLACK
6
CONTINUOUS
10
0.962292
20
0.507541
11
0.962305
21
0.508323
0
LINE
8
BLACK
6
CONTINUOUS
10
0.962305
20
0.508323
11
0.962406
21
0.513548
0
LINE
8
BLACK
6
CONTINUOUS
10
0.962406
20
0.513548
11
0.988617
21
0.508936
0
LINE
8
BLACK
6
CONTINUOUS
10
1.10512
20
0.530144
11
1.1056
21
0.530053
0
LINE
8
BLACK
6
CONTINUOUS
10
1.1056
20
0.530053
11
1.10674
21
0.529849
0
LINE
8
BLACK
6
CONTINUOUS
10
1.10674
20
0.529849
11
1.10847
21
0.52954
0
LINE
8
BLACK
6
CONTINUOUS
10
1.10847
20
0.52954
11
1.11074
21
0.529137
0
LINE
8
BLACK
6
CONTINUOUS
10
1.11074
20
0.529137
11
1.1135
21
0.528651
0
LINE
8
BLACK
6
CONTINUOUS
10
1.1135
20
0.528651
11
1.11669
21
0.52809
0
LINE
8
BLACK
6
CONTINUOUS
10
1.11669
20
0.52809
11
1.12024
21
0.527466
0
LINE
8
BLACK
6
CONTINUOUS
10
1.12024
20
0.527466
11
1.12411
21
0.526787
0
LINE
8
BLACK
6
CONTINUOUS
10
1.12411
20
0.526787
11
1.12824
21
0.526065
0
LINE
8
BLACK
6
CONTINUOUS
10
1.12824
20
0.526065
11
1.13256
21
0.52531
0
LINE
8
BLACK
6
CONTINUOUS
10
1.13256
20
0.52531
11
1.13287
21
0.525256
0
LINE
8
BLACK
6
CONTINUOUS
10
1.13287
20
0.525256
11
1.13721
21
0.524497
0
LINE
8
BLACK
6
CONTINUOUS
10
1.13721
20
0.524497
11
1.14136
21
0.523771
0
LINE
8
BLACK
6
CONTINUOUS
10
1.14136
20
0.523771
11
1.14526
21
0.523087
0
LINE
8
BLACK
6
CONTINUOUS
10
1.14526
20
0.523087
11
1.14886
21
0.522456
0
LINE
8
BLACK
6
CONTINUOUS
10
1.14886
20
0.522456
11
1.15209
21
0.521888
0
LINE
8
BLACK
6
CONTINUOUS
10
1.15209
20
0.521888
11
1.1549
21
0.521393
0
LINE
8
BLACK
6
CONTINUOUS
10
1.1549
20
0.521393
11
1.15723
21
0.520981
0
LINE
8
BLACK
6
CONTINUOUS
10
1.15723
20
0.520981
11
1.15903
21
0.520662
0
LINE
8
BLACK
6
CONTINUOUS
10
1.15903
20
0.520662
11
1.16023
21
0.520446
0
LINE
8
BLACK
6
CONTINUOUS
10
1.16023
20
0.520446
11
1.16079
21
0.520344
0
LINE
8
BLACK
6
CONTINUOUS
10
1.16079
20
0.520344
11
1.1608
21
0.520342
0
LINE
8
BLACK
6
CONTINUOUS
10
1.1608
20
0.520342
11
1.16179
21
0.520133
0
LINE
8
BLACK
6
CONTINUOUS
10
1.16179
20
0.520133
11
1.16179
21
0.514919
0
LINE
8
BLACK
6
CONTINUOUS
10
1.16179
20
0.514919
11
1.16177
21
0.512749
0
LINE
8
BLACK
6
CONTINUOUS
10
1.16177
20
0.512749
11
1.16172
21
0.511222
0
LINE
8
BLACK
6
CONTINUOUS
10
1.16172
20
0.511222
11
1.16162
21
0.510259
0
LINE
8
BLACK
6
CONTINUOUS
10
1.16162
20
0.510259
11
1.16147
21
0.509781
0
LINE
8
BLACK
6
CONTINUOUS
10
1.16147
20
0.509781
11
1.16134
21
0.509693
0
LINE
8
BLACK
6
CONTINUOUS
10
1.16134
20
0.509693
11
1.16092
21
0.509752
0
LINE
8
BLACK
6
CONTINUOUS
10
1.16092
20
0.509752
11
1.15984
21
0.509926
0
LINE
8
BLACK
6
CONTINUOUS
10
1.15984
20
0.509926
11
1.15816
21
0.510208
0
LINE
8
BLACK
6
CONTINUOUS
10
1.15816
20
0.510208
11
1.15594
21
0.510587
0
LINE
8
BLACK
6
CONTINUOUS
10
1.15594
20
0.510587
11
1.15321
21
0.511053
0
LINE
8
BLACK
6
CONTINUOUS
10
1.15321
20
0.511053
11
1.15005
21
0.511598
0
LINE
8
BLACK
6
CONTINUOUS
10
1.15005
20
0.511598
11
1.14651
21
0.512211
0
LINE
8
BLACK
6
CONTINUOUS
10
1.14651
20
0.512211
11
1.14264
21
0.512885
0
LINE
8
BLACK
6
CONTINUOUS
10
1.14264
20
0.512885
11
1.13849
21
0.513608
0
LINE
8
BLACK
6
CONTINUOUS
10
1.13849
20
0.513608
11
1.13412
21
0.514372
0
LINE
8
BLACK
6
CONTINUOUS
10
1.13412
20
0.514372
11
1.1326
21
0.514638
0
LINE
8
BLACK
6
CONTINUOUS
10
1.1326
20
0.514638
11
1.10431
21
0.519597
0
LINE
8
BLACK
6
CONTINUOUS
10
1.10431
20
0.519597
11
1.10431
21
0.530327
0
LINE
8
BLACK
6
CONTINUOUS
10
1.10431
20
0.530327
11
1.10512
21
0.530144
0
LINE
8
BLACK
6
CONTINUOUS
10
1.04881
20
0.549809
11
1.05177
21
0.547526
0
LINE
8
BLACK
6
CONTINUOUS
10
1.05177
20
0.547526
11
1.05457
21
0.545366
0
LINE
8
BLACK
6
CONTINUOUS
10
1.05457
20
0.545366
11
1.05717
21
0.543374
0
LINE
8
BLACK
6
CONTINUOUS
10
1.05717
20
0.543374
11
1.0595
21
0.54159
0
LINE
8
BLACK
6
CONTINUOUS
10
1.0595
20
0.54159
11
1.06152
21
0.540058
0
LINE
8
BLACK
6
CONTINUOUS
10
1.06152
20
0.540058
11
1.06316
21
0.53882
0
LINE
8
BLACK
6
CONTINUOUS
10
1.06316
20
0.53882
11
1.06437
21
0.537919
0
LINE
8
BLACK
6
CONTINUOUS
10
1.06437
20
0.537919
11
1.06509
21
0.537397
0
LINE
8
BLACK
6
CONTINUOUS
10
1.06509
20
0.537397
11
1.06526
21
0.53729
0
LINE
8
BLACK
6
CONTINUOUS
10
1.06526
20
0.53729
11
1.06583
21
0.537112
0
LINE
8
BLACK
6
CONTINUOUS
10
1.06583
20
0.537112
11
1.06702
21
0.536835
0
LINE
8
BLACK
6
CONTINUOUS
10
1.06702
20
0.536835
11
1.06874
21
0.536475
0
LINE
8
BLACK
6
CONTINUOUS
10
1.06874
20
0.536475
11
1.07089
21
0.536052
0
LINE
8
BLACK
6
CONTINUOUS
10
1.07089
20
0.536052
11
1.07338
21
0.535584
0
LINE
8
BLACK
6
CONTINUOUS
10
1.07338
20
0.535584
11
1.07612
21
0.535089
0
LINE
8
BLACK
6
CONTINUOUS
10
1.07612
20
0.535089
11
1.07773
21
0.534807
0
LINE
8
BLACK
6
CONTINUOUS
10
1.07773
20
0.534807
11
1.08056
21
0.534316
0
LINE
8
BLACK
6
CONTINUOUS
10
1.08056
20
0.534316
11
1.08317
21
0.533858
0
LINE
8
BLACK
6
CONTINUOUS
10
1.08317
20
0.533858
11
1.08549
21
0.533447
0
LINE
8
BLACK
6
CONTINUOUS
10
1.08549
20
0.533447
11
1.08741
21
0.533101
0
LINE
8
BLACK
6
CONTINUOUS
10
1.08741
20
0.533101
11
1.08886
21
0.532836
0
LINE
8
BLACK
6
CONTINUOUS
10
1.08886
20
0.532836
11
1.08973
21
0.532667
0
LINE
8
BLACK
6
CONTINUOUS
10
1.08973
20
0.532667
11
1.08994
21
0.53262
0
LINE
8
BLACK
6
CONTINUOUS
10
1.08994
20
0.53262
11
1.09019
21
0.532479
0
LINE
8
BLACK
6
CONTINUOUS
10
1.09019
20
0.532479
11
1.09036
21
0.532153
0
LINE
8
BLACK
6
CONTINUOUS
10
1.09036
20
0.532153
11
1.09047
21
0.53153
0
LINE
8
BLACK
6
CONTINUOUS
10
1.09047
20
0.53153
11
1.09054
21
0.530498
0
LINE
8
BLACK
6
CONTINUOUS
10
1.09054
20
0.530498
11
1.09056
21
0.528947
0
LINE
8
BLACK
6
CONTINUOUS
10
1.09056
20
0.528947
11
1.09057
21
0.527216
0
LINE
8
BLACK
6
CONTINUOUS
10
1.09057
20
0.527216
11
1.09055
21
0.525367
0
LINE
8
BLACK
6
CONTINUOUS
10
1.09055
20
0.525367
11
1.09051
21
0.523806
0
LINE
8
BLACK
6
CONTINUOUS
10
1.09051
20
0.523806
11
1.09045
21
0.522661
0
LINE
8
BLACK
6
CONTINUOUS
10
1.09045
20
0.522661
11
1.09038
21
0.522059
0
LINE
8
BLACK
6
CONTINUOUS
10
1.09038
20
0.522059
11
1.09035
21
0.521998
0
LINE
8
BLACK
6
CONTINUOUS
10
1.09035
20
0.521998
11
1.08995
21
0.522058
0
LINE
8
BLACK
6
CONTINUOUS
10
1.08995
20
0.522058
11
1.08892
21
0.52223
0
LINE
8
BLACK
6
CONTINUOUS
10
1.08892
20
0.52223
11
1.08735
21
0.522499
0
LINE
8
BLACK
6
CONTINUOUS
10
1.08735
20
0.522499
11
1.08532
21
0.52285
0
LINE
8
BLACK
6
CONTINUOUS
10
1.08532
20
0.52285
11
1.0829
21
0.52327
0
LINE
8
BLACK
6
CONTINUOUS
10
1.0829
20
0.52327
11
1.08018
21
0.523743
0
LINE
8
BLACK
6
CONTINUOUS
10
1.08018
20
0.523743
11
1.07773
21
0.524173
0
LINE
8
BLACK
6
CONTINUOUS
10
1.07773
20
0.524173
11
1.06534
21
0.526347
0
LINE
8
BLACK
6
CONTINUOUS
10
1.06534
20
0.526347
11
1.04941
21
0.519654
0
LINE
8
BLACK
6
CONTINUOUS
10
1.04941
20
0.519654
11
1.04621
21
0.518313
0
LINE
8
BLACK
6
CONTINUOUS
10
1.04621
20
0.518313
11
1.04322
21
0.517062
0
LINE
8
BLACK
6
CONTINUOUS
10
1.04322
20
0.517062
11
1.0405
21
0.515928
0
LINE
8
BLACK
6
CONTINUOUS
10
1.0405
20
0.515928
11
1.03812
21
0.514937
0
LINE
8
BLACK
6
CONTINUOUS
10
1.03812
20
0.514937
11
1.03614
21
0.514118
0
LINE
8
BLACK
6
CONTINUOUS
10
1.03614
20
0.514118
11
1.03463
21
0.513497
0
LINE
8
BLACK
6
CONTINUOUS
10
1.03463
20
0.513497
11
1.03365
21
0.513102
0
LINE
8
BLACK
6
CONTINUOUS
10
1.03365
20
0.513102
11
1.03327
21
0.51296
0
LINE
8
BLACK
6
CONTINUOUS
10
1.03327
20
0.51296
11
1.03327
21
0.51296
0
LINE
8
BLACK
6
CONTINUOUS
10
1.03327
20
0.51296
11
1.0332
21
0.513301
0
LINE
8
BLACK
6
CONTINUOUS
10
1.0332
20
0.513301
11
1.03316
21
0.514242
0
LINE
8
BLACK
6
CONTINUOUS
10
1.03316
20
0.514242
11
1.03314
21
0.515662
0
LINE
8
BLACK
6
CONTINUOUS
10
1.03314
20
0.515662
11
1.03315
21
0.517437
0
LINE
8
BLACK
6
CONTINUOUS
10
1.03315
20
0.517437
11
1.03317
21
0.518606
0
LINE
8
BLACK
6
CONTINUOUS
10
1.03317
20
0.518606
11
1.03327
21
0.524252
0
LINE
8
BLACK
6
CONTINUOUS
10
1.03327
20
0.524252
11
1.04456
21
0.528819
0
LINE
8
BLACK
6
CONTINUOUS
10
1.04456
20
0.528819
11
1.04723
21
0.529907
0
LINE
8
BLACK
6
CONTINUOUS
10
1.04723
20
0.529907
11
1.04968
21
0.530913
0
LINE
8
BLACK
6
CONTINUOUS
10
1.04968
20
0.530913
11
1.05183
21
0.531804
0
LINE
8
BLACK
6
CONTINUOUS
10
1.05183
20
0.531804
11
1.05359
21
0.532548
0
LINE
8
BLACK
6
CONTINUOUS
10
1.05359
20
0.532548
11
1.0549
21
0.533112
0
LINE
8
BLACK
6
CONTINUOUS
10
1.0549
20
0.533112
11
1.05566
21
0.533463
0
LINE
8
BLACK
6
CONTINUOUS
10
1.05566
20
0.533463
11
1.05584
21
0.533567
0
LINE
8
BLACK
6
CONTINUOUS
10
1.05584
20
0.533567
11
1.05556
21
0.533815
0
LINE
8
BLACK
6
CONTINUOUS
10
1.05556
20
0.533815
11
1.05476
21
0.534444
0
LINE
8
BLACK
6
CONTINUOUS
10
1.05476
20
0.534444
11
1.0535
21
0.535406
0
LINE
8
BLACK
6
CONTINUOUS
10
1.0535
20
0.535406
11
1.05185
21
0.536655
0
LINE
8
BLACK
6
CONTINUOUS
10
1.05185
20
0.536655
11
1.04986
21
0.538142
0
LINE
8
BLACK
6
CONTINUOUS
10
1.04986
20
0.538142
11
1.04761
21
0.539821
0
LINE
8
BLACK
6
CONTINUOUS
10
1.04761
20
0.539821
11
1.04515
21
0.541644
0
LINE
8
BLACK
6
CONTINUOUS
10
1.04515
20
0.541644
11
1.0446
21
0.542055
0
LINE
8
BLACK
6
CONTINUOUS
10
1.0446
20
0.542055
11
1.0421
21
0.543911
0
LINE
8
BLACK
6
CONTINUOUS
10
1.0421
20
0.543911
11
1.03978
21
0.545643
0
LINE
8
BLACK
6
CONTINUOUS
10
1.03978
20
0.545643
11
1.03771
21
0.547201
0
LINE
8
BLACK
6
CONTINUOUS
10
1.03771
20
0.547201
11
1.03596
21
0.548537
0
LINE
8
BLACK
6
CONTINUOUS
10
1.03596
20
0.548537
11
1.03459
21
0.549601
0
LINE
8
BLACK
6
CONTINUOUS
10
1.03459
20
0.549601
11
1.03366
21
0.550345
0
LINE
8
BLACK
6
CONTINUOUS
10
1.03366
20
0.550345
11
1.03323
21
0.550721
0
LINE
8
BLACK
6
CONTINUOUS
10
1.03323
20
0.550721
11
1.03321
21
0.550747
0
LINE
8
BLACK
6
CONTINUOUS
10
1.03321
20
0.550747
11
1.03317
21
0.551229
0
LINE
8
BLACK
6
CONTINUOUS
10
1.03317
20
0.551229
11
1.03314
21
0.552296
0
LINE
8
BLACK
6
CONTINUOUS
10
1.03314
20
0.552296
11
1.03314
21
0.553809
0
LINE
8
BLACK
6
CONTINUOUS
10
1.03314
20
0.553809
11
1.03315
21
0.555632
0
LINE
8
BLACK
6
CONTINUOUS
10
1.03315
20
0.555632
11
1.03317
21
0.55649
0
LINE
8
BLACK
6
CONTINUOUS
10
1.03317
20
0.55649
11
1.03327
21
0.561848
0
LINE
8
BLACK
6
CONTINUOUS
10
1.03327
20
0.561848
11
1.04881
21
0.549809
0
LINE
8
BLACK
6
CONTINUOUS
10
0.962886
20
0.554859
11
0.963935
21
0.554685
0
LINE
8
BLACK
6
CONTINUOUS
10
0.963935
20
0.554685
11
0.965587
21
0.554405
0
LINE
8
BLACK
6
CONTINUOUS
10
0.965587
20
0.554405
11
0.96779
21
0.554028
0
LINE
8
BLACK
6
CONTINUOUS
10
0.96779
20
0.554028
11
0.970489
21
0.553563
0
LINE
8
BLACK
6
CONTINUOUS
10
0.970489
20
0.553563
11
0.97363
21
0.55302
0
LINE
8
BLACK
6
CONTINUOUS
10
0.97363
20
0.55302
11
0.977159
21
0.552408
0
LINE
8
BLACK
6
CONTINUOUS
10
0.977159
20
0.552408
11
0.981023
21
0.551735
0
LINE
8
BLACK
6
CONTINUOUS
10
0.981023
20
0.551735
11
0.985166
21
0.551013
0
LINE
8
BLACK
6
CONTINUOUS
10
0.985166
20
0.551013
11
0.989536
21
0.550249
0
LINE
8
BLACK
6
CONTINUOUS
10
0.989536
20
0.550249
11
0.991238
21
0.549951
0
LINE
8
BLACK
6
CONTINUOUS
10
0.991238
20
0.549951
11
1.01971
21
0.544967
0
LINE
8
BLACK
6
CONTINUOUS
10
1.01971
20
0.544967
11
1.01971
21
0.534233
0
LINE
8
BLACK
6
CONTINUOUS
10
1.01971
20
0.534233
11
1.01871
21
0.534441
0
LINE
8
BLACK
6
CONTINUOUS
10
1.01871
20
0.534441
11
1.0182
21
0.534535
0
LINE
8
BLACK
6
CONTINUOUS
10
1.0182
20
0.534535
11
1.01704
21
0.534744
0
LINE
8
BLACK
6
CONTINUOUS
10
1.01704
20
0.534744
11
1.01528
21
0.535056
0
LINE
8
BLACK
6
CONTINUOUS
10
1.01528
20
0.535056
11
1.01298
21
0.535463
0
LINE
8
BLACK
6
CONTINUOUS
10
1.01298
20
0.535463
11
1.01019
21
0.535953
0
LINE
8
BLACK
6
CONTINUOUS
10
1.01019
20
0.535953
11
1.00699
21
0.536517
0
LINE
8
BLACK
6
CONTINUOUS
10
1.00699
20
0.536517
11
1.00341
21
0.537144
0
LINE
8
BLACK
6
CONTINUOUS
10
1.00341
20
0.537144
11
0.999528
21
0.537824
0
LINE
8
BLACK
6
CONTINUOUS
10
0.999528
20
0.537824
11
0.995392
21
0.538548
0
LINE
8
BLACK
6
CONTINUOUS
10
0.995392
20
0.538548
11
0.991062
21
0.539305
0
LINE
8
BLACK
6
CONTINUOUS
10
0.991062
20
0.539305
11
0.990786
21
0.539353
0
LINE
8
BLACK
6
CONTINUOUS
10
0.990786
20
0.539353
11
0.986451
21
0.540111
0
LINE
8
BLACK
6
CONTINUOUS
10
0.986451
20
0.540111
11
0.982311
21
0.540835
0
LINE
8
BLACK
6
CONTINUOUS
10
0.982311
20
0.540835
11
0.978423
21
0.541517
0
LINE
8
BLACK
6
CONTINUOUS
10
0.978423
20
0.541517
11
0.974843
21
0.542146
0
LINE
8
BLACK
6
CONTINUOUS
10
0.974843
20
0.542146
11
0.97163
21
0.542711
0
LINE
8
BLACK
6
CONTINUOUS
10
0.97163
20
0.542711
11
0.96884
21
0.543203
0
LINE
8
BLACK
6
CONTINUOUS
10
0.96884
20
0.543203
11
0.966529
21
0.543612
0
LINE
8
BLACK
6
CONTINUOUS
10
0.966529
20
0.543612
11
0.964756
21
0.543928
0
LINE
8
BLACK
6
CONTINUOUS
10
0.964756
20
0.543928
11
0.963577
21
0.544141
0
LINE
8
BLACK
6
CONTINUOUS
10
0.963577
20
0.544141
11
0.963049
21
0.54424
0
LINE
8
BLACK
6
CONTINUOUS
10
0.963049
20
0.54424
11
0.963038
21
0.544242
0
LINE
8
BLACK
6
CONTINUOUS
10
0.963038
20
0.544242
11
0.962721
21
0.54434
0
LINE
8
BLACK
6
CONTINUOUS
10
0.962721
20
0.54434
11
0.962499
21
0.54454
0
LINE
8
BLACK
6
CONTINUOUS
10
0.962499
20
0.54454
11
0.962356
21
0.544957
0
LINE
8
BLACK
6
CONTINUOUS
10
0.962356
20
0.544957
11
0.962274
21
0.545704
0
LINE
8
BLACK
6
CONTINUOUS
10
0.962274
20
0.545704
11
0.962236
21
0.546894
0
LINE
8
BLACK
6
CONTINUOUS
10
0.962236
20
0.546894
11
0.962225
21
0.548642
0
LINE
8
BLACK
6
CONTINUOUS
10
0.962225
20
0.548642
11
0.962225
21
0.549662
0
LINE
8
BLACK
6
CONTINUOUS
10
0.962225
20
0.549662
11
0.962242
21
0.551516
0
LINE
8
BLACK
6
CONTINUOUS
10
0.962242
20
0.551516
11
0.962291
21
0.553084
0
LINE
8
BLACK
6
CONTINUOUS
10
0.962291
20
0.553084
11
0.962364
21
0.554239
0
LINE
8
BLACK
6
CONTINUOUS
10
0.962364
20
0.554239
11
0.962454
21
0.554852
0
LINE
8
BLACK
6
CONTINUOUS
10
0.962454
20
0.554852
11
0.962496
21
0.554917
0
LINE
8
BLACK
6
CONTINUOUS
10
0.962496
20
0.554917
11
0.962886
21
0.554859
0
CIRCLE
8
BLACK
10
0.945
20
0.517
40
0.00688976
0
CIRCLE
8
BLACK
10
0.492126
20
0.590551
40
0.00688976
0
CIRCLE
8
BLACK
10
0.853346
20
0.344488
40
0.00688976
0
CIRCLE
8
BLACK
10
0.492126
20
0
40
0.00688976
0
CIRCLE
8
BLACK
10
0.853346
20
0.246063
40
0.00688976
0
CIRCLE
8
BLACK
10
0.945
20
0.0735512
40
0.00688976
0
CIRCLE
8
BLACK
10
0.853346
20
0.423228
40
0.00688976
0
CIRCLE
8
BLACK
10
0.0984252
20
0.590551
40
0.00688976
0
CIRCLE
8
BLACK
10
0.885827
20
0
40
0.00688976
0
CIRCLE
8
BLACK
10
0.898622
20
0.473551
40
0.00688976
0
CIRCLE
8
BLACK
10
0.885827
20
0.590551
40
0.00688976
0
CIRCLE
8
BLACK
10
0.0984252
20
0
40
0.00688976
0
CIRCLE
8
BLACK
10
0.898
20
0.117
40
0.00688976
0
CIRCLE
8
BLACK
10
0.853346
20
0.167323
40
0.00688976
0
CIRCLE
8
BLACK
10
1.13189
20
0.194882
40
0.00688976
0
CIRCLE
8
BLACK
10
1.13189
20
0.395669
40
0.00688976
0
CIRCLE
8
BLACK
10
0.931102
20
0.194882
40
0.00688976
0
CIRCLE
8
BLACK
10
0.931102
20
0.395669
40
0.00688976
  0
ENDSEC
  0
EOF
