  0
SECTION
  2
HEADER
  9
$ANGBASE
  50
0.0
  9
$ANGDIR
  70
1
  9
$MEASUREMENT
  70
0
  0
ENDSEC
  0
SECTION
  2
TABLES
  0
TABLE
  2
LTYPE
  70
4
  0
LTYPE
  5
40F
  2
CONTINUOUS
  70
0
  3
Solid line
  72
65
  73
0
  40
0.0
  0
LTYPE
  5
410
  2
DASHDOT
 70
0
  3
Dash Dot ____ _ ____ _
 72
65
 73
4
 40
2.0
 49
1.25
 49
-0.25
 49
0.25
 49
-0.25
  0
LTYPE
  5
411
  2
DASHED
 70
0
  3
Dashed __ __ __ __ __
 72
65
 73
2
 40
0.75
 49
0.5
 49
-0.25
  0
LTYPE
  5
43B
  2
DOTTED
 70
0
  3
Dotted .  .  .  .
 72
65
 73
2
 40
0.2
 49
0.0
 49
-0.2
  0
ENDTAB
  0
TABLE
  2
STYLE
  70
4
  0
STYLE
  2
KICAD
  70
0
  40
0
  41
1
  42
1
  50
0
  71
0
  3
isocp.shx
  0
STYLE
  2
KICADB
  70
0
  40
0
  41
1
  42
1
  50
0
  71
0
  3
isocp.shx
  0
STYLE
  2
KICADI
  70
0
  40
0
  41
1
  42
1
  50
15
  71
0
  3
isocp.shx
  0
STYLE
  2
KICADBI
  70
0
  40
0
  41
1
  42
1
  50
15
  71
0
  3
isocp.shx
  0
ENDTAB
  0
TABLE
  2
LAYER
  70
1
  0
LAYER
  2
BLACK
  70
0
  62
7
  6
CONTINUOUS
  0
ENDTAB
  0
ENDSEC
  0
SECTION
  2
ENTITIES
0
LINE
8
BLACK
6
CONTINUOUS
10
0.112922
20
0.057248
11
0.122147
21
0.0540811
0
LINE
8
BLACK
6
CONTINUOUS
10
0.122147
20
0.0540811
11
0.130725
21
0.049439
0
LINE
8
BLACK
6
CONTINUOUS
10
0.130725
20
0.049439
11
0.138422
21
0.0434483
0
LINE
8
BLACK
6
CONTINUOUS
10
0.138422
20
0.0434483
11
0.145028
21
0.0362724
0
LINE
8
BLACK
6
CONTINUOUS
10
0.145028
20
0.0362724
11
0.150363
21
0.0281071
0
LINE
8
BLACK
6
CONTINUOUS
10
0.150363
20
0.0281071
11
0.154281
21
0.0191752
0
LINE
8
BLACK
6
CONTINUOUS
10
0.154281
20
0.0191752
11
0.156675
21
0.00972016
0
LINE
8
BLACK
6
CONTINUOUS
10
0.156675
20
0.00972016
11
0.15748
21
0
0
LINE
8
BLACK
6
CONTINUOUS
10
0.15748
20
0
11
0.156675
21
-0.00972016
0
LINE
8
BLACK
6
CONTINUOUS
10
0.156675
20
-0.00972016
11
0.154281
21
-0.0191752
0
LINE
8
BLACK
6
CONTINUOUS
10
0.154281
20
-0.0191752
11
0.150363
21
-0.0281071
0
LINE
8
BLACK
6
CONTINUOUS
10
0.150363
20
-0.0281071
11
0.145028
21
-0.0362724
0
LINE
8
BLACK
6
CONTINUOUS
10
0.145028
20
-0.0362724
11
0.138422
21
-0.0434483
0
LINE
8
BLACK
6
CONTINUOUS
10
0.138422
20
-0.0434483
11
0.130725
21
-0.049439
0
LINE
8
BLACK
6
CONTINUOUS
10
0.130725
20
-0.049439
11
0.122147
21
-0.0540811
0
LINE
8
BLACK
6
CONTINUOUS
10
0.122147
20
-0.0540811
11
0.112922
21
-0.057248
0
LINE
8
BLACK
6
CONTINUOUS
10
0.112922
20
-0.057248
11
0.103302
21
-0.0588534
0
LINE
8
BLACK
6
CONTINUOUS
10
0.103302
20
-0.0588534
11
0.0935485
21
-0.0588534
0
LINE
8
BLACK
6
CONTINUOUS
10
0.0935485
20
-0.0588534
11
0.083928
21
-0.057248
0
LINE
8
BLACK
6
CONTINUOUS
10
0.083928
20
-0.057248
11
0.074703
21
-0.0540811
0
LINE
8
BLACK
6
CONTINUOUS
10
0.074703
20
-0.0540811
11
0.0661251
21
-0.049439
0
LINE
8
BLACK
6
CONTINUOUS
10
0.0661251
20
-0.049439
11
0.0584283
21
-0.0434483
0
LINE
8
BLACK
6
CONTINUOUS
10
0.0584283
20
-0.0434483
11
0.0518224
21
-0.0362724
0
LINE
8
BLACK
6
CONTINUOUS
10
0.0518224
20
-0.0362724
11
0.0464878
21
-0.0281071
0
LINE
8
BLACK
6
CONTINUOUS
10
0.0464878
20
-0.0281071
11
0.0425698
21
-0.0191752
0
LINE
8
BLACK
6
CONTINUOUS
10
0.0425698
20
-0.0191752
11
0.0401755
21
-0.00972016
0
LINE
8
BLACK
6
CONTINUOUS
10
0.0401755
20
-0.00972016
11
0.0393701
21
0
0
LINE
8
BLACK
6
CONTINUOUS
10
0.0393701
20
0
11
0.0401755
21
0.00972016
0
LINE
8
BLACK
6
CONTINUOUS
10
0.0401755
20
0.00972016
11
0.0425698
21
0.0191752
0
LINE
8
BLACK
6
CONTINUOUS
10
0.0425698
20
0.0191752
11
0.0464878
21
0.0281071
0
LINE
8
BLACK
6
CONTINUOUS
10
0.0464878
20
0.0281071
11
0.0518224
21
0.0362724
0
LINE
8
BLACK
6
CONTINUOUS
10
0.0518224
20
0.0362724
11
0.0584283
21
0.0434483
0
LINE
8
BLACK
6
CONTINUOUS
10
0.0584283
20
0.0434483
11
0.0661251
21
0.049439
0
LINE
8
BLACK
6
CONTINUOUS
10
0.0661251
20
0.049439
11
0.074703
21
0.0540811
0
LINE
8
BLACK
6
CONTINUOUS
10
0.074703
20
0.0540811
11
0.083928
21
0.057248
0
LINE
8
BLACK
6
CONTINUOUS
10
0.083928
20
0.057248
11
0.0935485
21
0.0588534
0
LINE
8
BLACK
6
CONTINUOUS
10
0.0935485
20
0.0588534
11
0.103302
21
0.0588534
0
LINE
8
BLACK
6
CONTINUOUS
10
0.103302
20
0.0588534
11
0.112922
21
0.057248
0
LINE
8
BLACK
6
CONTINUOUS
10
0.506623
20
0.057248
11
0.515848
21
0.0540811
0
LINE
8
BLACK
6
CONTINUOUS
10
0.515848
20
0.0540811
11
0.524426
21
0.049439
0
LINE
8
BLACK
6
CONTINUOUS
10
0.524426
20
0.049439
11
0.532123
21
0.0434483
0
LINE
8
BLACK
6
CONTINUOUS
10
0.532123
20
0.0434483
11
0.538729
21
0.0362724
0
LINE
8
BLACK
6
CONTINUOUS
10
0.538729
20
0.0362724
11
0.544063
21
0.0281071
0
LINE
8
BLACK
6
CONTINUOUS
10
0.544063
20
0.0281071
11
0.547981
21
0.0191752
0
LINE
8
BLACK
6
CONTINUOUS
10
0.547981
20
0.0191752
11
0.550376
21
0.00972016
0
LINE
8
BLACK
6
CONTINUOUS
10
0.550376
20
0.00972016
11
0.551181
21
0
0
LINE
8
BLACK
6
CONTINUOUS
10
0.551181
20
0
11
0.550376
21
-0.00972016
0
LINE
8
BLACK
6
CONTINUOUS
10
0.550376
20
-0.00972016
11
0.547981
21
-0.0191752
0
LINE
8
BLACK
6
CONTINUOUS
10
0.547981
20
-0.0191752
11
0.544063
21
-0.0281071
0
LINE
8
BLACK
6
CONTINUOUS
10
0.544063
20
-0.0281071
11
0.538729
21
-0.0362724
0
LINE
8
BLACK
6
CONTINUOUS
10
0.538729
20
-0.0362724
11
0.532123
21
-0.0434483
0
LINE
8
BLACK
6
CONTINUOUS
10
0.532123
20
-0.0434483
11
0.524426
21
-0.049439
0
LINE
8
BLACK
6
CONTINUOUS
10
0.524426
20
-0.049439
11
0.515848
21
-0.0540811
0
LINE
8
BLACK
6
CONTINUOUS
10
0.515848
20
-0.0540811
11
0.506623
21
-0.057248
0
LINE
8
BLACK
6
CONTINUOUS
10
0.506623
20
-0.057248
11
0.497003
21
-0.0588534
0
LINE
8
BLACK
6
CONTINUOUS
10
0.497003
20
-0.0588534
11
0.487249
21
-0.0588534
0
LINE
8
BLACK
6
CONTINUOUS
10
0.487249
20
-0.0588534
11
0.477629
21
-0.057248
0
LINE
8
BLACK
6
CONTINUOUS
10
0.477629
20
-0.057248
11
0.468404
21
-0.0540811
0
LINE
8
BLACK
6
CONTINUOUS
10
0.468404
20
-0.0540811
11
0.459826
21
-0.049439
0
LINE
8
BLACK
6
CONTINUOUS
10
0.459826
20
-0.049439
11
0.452129
21
-0.0434483
0
LINE
8
BLACK
6
CONTINUOUS
10
0.452129
20
-0.0434483
11
0.445523
21
-0.0362724
0
LINE
8
BLACK
6
CONTINUOUS
10
0.445523
20
-0.0362724
11
0.440189
21
-0.0281071
0
LINE
8
BLACK
6
CONTINUOUS
10
0.440189
20
-0.0281071
11
0.436271
21
-0.0191752
0
LINE
8
BLACK
6
CONTINUOUS
10
0.436271
20
-0.0191752
11
0.433876
21
-0.00972016
0
LINE
8
BLACK
6
CONTINUOUS
10
0.433876
20
-0.00972016
11
0.433071
21
0
0
LINE
8
BLACK
6
CONTINUOUS
10
0.433071
20
0
11
0.433876
21
0.00972016
0
LINE
8
BLACK
6
CONTINUOUS
10
0.433876
20
0.00972016
11
0.436271
21
0.0191752
0
LINE
8
BLACK
6
CONTINUOUS
10
0.436271
20
0.0191752
11
0.440189
21
0.0281071
0
LINE
8
BLACK
6
CONTINUOUS
10
0.440189
20
0.0281071
11
0.445523
21
0.0362724
0
LINE
8
BLACK
6
CONTINUOUS
10
0.445523
20
0.0362724
11
0.452129
21
0.0434483
0
LINE
8
BLACK
6
CONTINUOUS
10
0.452129
20
0.0434483
11
0.459826
21
0.049439
0
LINE
8
BLACK
6
CONTINUOUS
10
0.459826
20
0.049439
11
0.468404
21
0.0540811
0
LINE
8
BLACK
6
CONTINUOUS
10
0.468404
20
0.0540811
11
0.477629
21
0.057248
0
LINE
8
BLACK
6
CONTINUOUS
10
0.477629
20
0.057248
11
0.487249
21
0.0588534
0
LINE
8
BLACK
6
CONTINUOUS
10
0.487249
20
0.0588534
11
0.497003
21
0.0588534
0
LINE
8
BLACK
6
CONTINUOUS
10
0.497003
20
0.0588534
11
0.506623
21
0.057248
0
LINE
8
BLACK
6
CONTINUOUS
10
0.900324
20
0.057248
11
0.909549
21
0.0540811
0
LINE
8
BLACK
6
CONTINUOUS
10
0.909549
20
0.0540811
11
0.918127
21
0.049439
0
LINE
8
BLACK
6
CONTINUOUS
10
0.918127
20
0.049439
11
0.925824
21
0.0434483
0
LINE
8
BLACK
6
CONTINUOUS
10
0.925824
20
0.0434483
11
0.93243
21
0.0362724
0
LINE
8
BLACK
6
CONTINUOUS
10
0.93243
20
0.0362724
11
0.937764
21
0.0281071
0
LINE
8
BLACK
6
CONTINUOUS
10
0.937764
20
0.0281071
11
0.941682
21
0.0191752
0
LINE
8
BLACK
6
CONTINUOUS
10
0.941682
20
0.0191752
11
0.944076
21
0.00972016
0
LINE
8
BLACK
6
CONTINUOUS
10
0.944076
20
0.00972016
11
0.944882
21
0
0
LINE
8
BLACK
6
CONTINUOUS
10
0.944882
20
0
11
0.944076
21
-0.00972016
0
LINE
8
BLACK
6
CONTINUOUS
10
0.944076
20
-0.00972016
11
0.941682
21
-0.0191752
0
LINE
8
BLACK
6
CONTINUOUS
10
0.941682
20
-0.0191752
11
0.937764
21
-0.0281071
0
LINE
8
BLACK
6
CONTINUOUS
10
0.937764
20
-0.0281071
11
0.93243
21
-0.0362724
0
LINE
8
BLACK
6
CONTINUOUS
10
0.93243
20
-0.0362724
11
0.925824
21
-0.0434483
0
LINE
8
BLACK
6
CONTINUOUS
10
0.925824
20
-0.0434483
11
0.918127
21
-0.049439
0
LINE
8
BLACK
6
CONTINUOUS
10
0.918127
20
-0.049439
11
0.909549
21
-0.0540811
0
LINE
8
BLACK
6
CONTINUOUS
10
0.909549
20
-0.0540811
11
0.900324
21
-0.057248
0
LINE
8
BLACK
6
CONTINUOUS
10
0.900324
20
-0.057248
11
0.890704
21
-0.0588534
0
LINE
8
BLACK
6
CONTINUOUS
10
0.890704
20
-0.0588534
11
0.88095
21
-0.0588534
0
LINE
8
BLACK
6
CONTINUOUS
10
0.88095
20
-0.0588534
11
0.87133
21
-0.057248
0
LINE
8
BLACK
6
CONTINUOUS
10
0.87133
20
-0.057248
11
0.862105
21
-0.0540811
0
LINE
8
BLACK
6
CONTINUOUS
10
0.862105
20
-0.0540811
11
0.853527
21
-0.049439
0
LINE
8
BLACK
6
CONTINUOUS
10
0.853527
20
-0.049439
11
0.84583
21
-0.0434483
0
LINE
8
BLACK
6
CONTINUOUS
10
0.84583
20
-0.0434483
11
0.839224
21
-0.0362724
0
LINE
8
BLACK
6
CONTINUOUS
10
0.839224
20
-0.0362724
11
0.833889
21
-0.0281071
0
LINE
8
BLACK
6
CONTINUOUS
10
0.833889
20
-0.0281071
11
0.829971
21
-0.0191752
0
LINE
8
BLACK
6
CONTINUOUS
10
0.829971
20
-0.0191752
11
0.827577
21
-0.00972016
0
LINE
8
BLACK
6
CONTINUOUS
10
0.827577
20
-0.00972016
11
0.826772
21
0
0
LINE
8
BLACK
6
CONTINUOUS
10
0.826772
20
0
11
0.827577
21
0.00972016
0
LINE
8
BLACK
6
CONTINUOUS
10
0.827577
20
0.00972016
11
0.829971
21
0.0191752
0
LINE
8
BLACK
6
CONTINUOUS
10
0.829971
20
0.0191752
11
0.833889
21
0.0281071
0
LINE
8
BLACK
6
CONTINUOUS
10
0.833889
20
0.0281071
11
0.839224
21
0.0362724
0
LINE
8
BLACK
6
CONTINUOUS
10
0.839224
20
0.0362724
11
0.84583
21
0.0434483
0
LINE
8
BLACK
6
CONTINUOUS
10
0.84583
20
0.0434483
11
0.853527
21
0.049439
0
LINE
8
BLACK
6
CONTINUOUS
10
0.853527
20
0.049439
11
0.862105
21
0.0540811
0
LINE
8
BLACK
6
CONTINUOUS
10
0.862105
20
0.0540811
11
0.87133
21
0.057248
0
LINE
8
BLACK
6
CONTINUOUS
10
0.87133
20
0.057248
11
0.88095
21
0.0588534
0
LINE
8
BLACK
6
CONTINUOUS
10
0.88095
20
0.0588534
11
0.890704
21
0.0588534
0
LINE
8
BLACK
6
CONTINUOUS
10
0.890704
20
0.0588534
11
0.900324
21
0.057248
0
LINE
8
BLACK
6
CONTINUOUS
10
0.285943
20
0.115542
11
0.290212
21
0.113454
0
LINE
8
BLACK
6
CONTINUOUS
10
0.290212
20
0.113454
11
0.293573
21
0.110094
0
LINE
8
BLACK
6
CONTINUOUS
10
0.293573
20
0.110094
11
0.29566
21
0.105825
0
LINE
8
BLACK
6
CONTINUOUS
10
0.29566
20
0.105825
11
0.29626
21
0.101706
0
LINE
8
BLACK
6
CONTINUOUS
10
0.29626
20
0.101706
11
0.29626
21
0.0557743
0
LINE
8
BLACK
6
CONTINUOUS
10
0.29626
20
0.0557743
11
0.29566
21
0.0516553
0
LINE
8
BLACK
6
CONTINUOUS
10
0.29566
20
0.0516553
11
0.293573
21
0.047386
0
LINE
8
BLACK
6
CONTINUOUS
10
0.293573
20
0.047386
11
0.290212
21
0.0440258
0
LINE
8
BLACK
6
CONTINUOUS
10
0.290212
20
0.0440258
11
0.285943
21
0.0419387
0
LINE
8
BLACK
6
CONTINUOUS
10
0.285943
20
0.0419387
11
0.281824
21
0.0413386
0
LINE
8
BLACK
6
CONTINUOUS
10
0.281824
20
0.0413386
11
0.245735
21
0.0413386
0
LINE
8
BLACK
6
CONTINUOUS
10
0.245735
20
0.0413386
11
0.241616
21
0.0419387
0
LINE
8
BLACK
6
CONTINUOUS
10
0.241616
20
0.0419387
11
0.237347
21
0.0440258
0
LINE
8
BLACK
6
CONTINUOUS
10
0.237347
20
0.0440258
11
0.233986
21
0.047386
0
LINE
8
BLACK
6
CONTINUOUS
10
0.233986
20
0.047386
11
0.231899
21
0.0516553
0
LINE
8
BLACK
6
CONTINUOUS
10
0.231899
20
0.0516553
11
0.231299
21
0.0557743
0
LINE
8
BLACK
6
CONTINUOUS
10
0.231299
20
0.0557743
11
0.231299
21
0.101706
0
LINE
8
BLACK
6
CONTINUOUS
10
0.231299
20
0.101706
11
0.231899
21
0.105825
0
LINE
8
BLACK
6
CONTINUOUS
10
0.231899
20
0.105825
11
0.233986
21
0.110094
0
LINE
8
BLACK
6
CONTINUOUS
10
0.233986
20
0.110094
11
0.237347
21
0.113454
0
LINE
8
BLACK
6
CONTINUOUS
10
0.237347
20
0.113454
11
0.241616
21
0.115542
0
LINE
8
BLACK
6
CONTINUOUS
10
0.241616
20
0.115542
11
0.245735
21
0.116142
0
LINE
8
BLACK
6
CONTINUOUS
10
0.245735
20
0.116142
11
0.281824
21
0.116142
0
LINE
8
BLACK
6
CONTINUOUS
10
0.281824
20
0.116142
11
0.285943
21
0.115542
0
LINE
8
BLACK
6
CONTINUOUS
10
0.427675
20
0.115542
11
0.431945
21
0.113454
0
LINE
8
BLACK
6
CONTINUOUS
10
0.431945
20
0.113454
11
0.435305
21
0.110094
0
LINE
8
BLACK
6
CONTINUOUS
10
0.435305
20
0.110094
11
0.437392
21
0.105825
0
LINE
8
BLACK
6
CONTINUOUS
10
0.437392
20
0.105825
11
0.437992
21
0.101706
0
LINE
8
BLACK
6
CONTINUOUS
10
0.437992
20
0.101706
11
0.437992
21
0.0557743
0
LINE
8
BLACK
6
CONTINUOUS
10
0.437992
20
0.0557743
11
0.437392
21
0.0516553
0
LINE
8
BLACK
6
CONTINUOUS
10
0.437392
20
0.0516553
11
0.435305
21
0.047386
0
LINE
8
BLACK
6
CONTINUOUS
10
0.435305
20
0.047386
11
0.431945
21
0.0440258
0
LINE
8
BLACK
6
CONTINUOUS
10
0.431945
20
0.0440258
11
0.427675
21
0.0419387
0
LINE
8
BLACK
6
CONTINUOUS
10
0.427675
20
0.0419387
11
0.423556
21
0.0413386
0
LINE
8
BLACK
6
CONTINUOUS
10
0.423556
20
0.0413386
11
0.387467
21
0.0413386
0
LINE
8
BLACK
6
CONTINUOUS
10
0.387467
20
0.0413386
11
0.383348
21
0.0419387
0
LINE
8
BLACK
6
CONTINUOUS
10
0.383348
20
0.0419387
11
0.379079
21
0.0440258
0
LINE
8
BLACK
6
CONTINUOUS
10
0.379079
20
0.0440258
11
0.375719
21
0.047386
0
LINE
8
BLACK
6
CONTINUOUS
10
0.375719
20
0.047386
11
0.373632
21
0.0516553
0
LINE
8
BLACK
6
CONTINUOUS
10
0.373632
20
0.0516553
11
0.373032
21
0.0557743
0
LINE
8
BLACK
6
CONTINUOUS
10
0.373032
20
0.0557743
11
0.373031
21
0.101706
0
LINE
8
BLACK
6
CONTINUOUS
10
0.373031
20
0.101706
11
0.373632
21
0.105825
0
LINE
8
BLACK
6
CONTINUOUS
10
0.373632
20
0.105825
11
0.375719
21
0.110094
0
LINE
8
BLACK
6
CONTINUOUS
10
0.375719
20
0.110094
11
0.379079
21
0.113454
0
LINE
8
BLACK
6
CONTINUOUS
10
0.379079
20
0.113454
11
0.383348
21
0.115542
0
LINE
8
BLACK
6
CONTINUOUS
10
0.383348
20
0.115542
11
0.387467
21
0.116142
0
LINE
8
BLACK
6
CONTINUOUS
10
0.387467
20
0.116142
11
0.423556
21
0.116142
0
LINE
8
BLACK
6
CONTINUOUS
10
0.423556
20
0.116142
11
0.427675
21
0.115542
0
LINE
8
BLACK
6
CONTINUOUS
10
0.683486
20
0.116802
11
0.685394
21
0.115527
0
LINE
8
BLACK
6
CONTINUOUS
10
0.685394
20
0.115527
11
0.687302
21
0.116802
0
LINE
8
BLACK
6
CONTINUOUS
10
0.687302
20
0.116802
11
0.690315
21
0.117402
0
LINE
8
BLACK
6
CONTINUOUS
10
0.690315
20
0.117402
11
0.729685
21
0.117402
0
LINE
8
BLACK
6
CONTINUOUS
10
0.729685
20
0.117402
11
0.732698
21
0.116802
0
LINE
8
BLACK
6
CONTINUOUS
10
0.732698
20
0.116802
11
0.734606
21
0.115527
0
LINE
8
BLACK
6
CONTINUOUS
10
0.734606
20
0.115527
11
0.736514
21
0.116802
0
LINE
8
BLACK
6
CONTINUOUS
10
0.736514
20
0.116802
11
0.739528
21
0.117402
0
LINE
8
BLACK
6
CONTINUOUS
10
0.739528
20
0.117402
11
0.761181
21
0.117402
0
LINE
8
BLACK
6
CONTINUOUS
10
0.761181
20
0.117402
11
0.762188
21
0.117201
0
LINE
8
BLACK
6
CONTINUOUS
10
0.762188
20
0.117201
11
0.763983
21
0.117201
0
LINE
8
BLACK
6
CONTINUOUS
10
0.763983
20
0.117201
11
0.766201
21
0.116882
0
LINE
8
BLACK
6
CONTINUOUS
10
0.766201
20
0.116882
11
0.771577
21
0.115304
0
LINE
8
BLACK
6
CONTINUOUS
10
0.771577
20
0.115304
11
0.773616
21
0.114373
0
LINE
8
BLACK
6
CONTINUOUS
10
0.773616
20
0.114373
11
0.778329
21
0.111344
0
LINE
8
BLACK
6
CONTINUOUS
10
0.778329
20
0.111344
11
0.780023
21
0.109876
0
LINE
8
BLACK
6
CONTINUOUS
10
0.780023
20
0.109876
11
0.783692
21
0.105641
0
LINE
8
BLACK
6
CONTINUOUS
10
0.783692
20
0.105641
11
0.784904
21
0.103756
0
LINE
8
BLACK
6
CONTINUOUS
10
0.784904
20
0.103756
11
0.787231
21
0.0986594
0
LINE
8
BLACK
6
CONTINUOUS
10
0.787231
20
0.0986594
11
0.787863
21
0.0965091
0
LINE
8
BLACK
6
CONTINUOUS
10
0.787863
20
0.0965091
11
0.78866
21
0.0909631
0
LINE
8
BLACK
6
CONTINUOUS
10
0.78866
20
0.0909631
11
0.78874
21
0.0898425
0
LINE
8
BLACK
6
CONTINUOUS
10
0.78874
20
0.0898425
11
0.78874
21
0.0701575
0
LINE
8
BLACK
6
CONTINUOUS
10
0.78874
20
0.0701575
11
0.78866
21
0.0690369
0
LINE
8
BLACK
6
CONTINUOUS
10
0.78866
20
0.0690369
11
0.787863
21
0.0634909
0
LINE
8
BLACK
6
CONTINUOUS
10
0.787863
20
0.0634909
11
0.787231
21
0.0613406
0
LINE
8
BLACK
6
CONTINUOUS
10
0.787231
20
0.0613406
11
0.784904
21
0.056244
0
LINE
8
BLACK
6
CONTINUOUS
10
0.784904
20
0.056244
11
0.783692
21
0.0543586
0
LINE
8
BLACK
6
CONTINUOUS
10
0.783692
20
0.0543586
11
0.780023
21
0.0501241
0
LINE
8
BLACK
6
CONTINUOUS
10
0.780023
20
0.0501241
11
0.778329
21
0.0486565
0
LINE
8
BLACK
6
CONTINUOUS
10
0.778329
20
0.0486565
11
0.773616
21
0.0456273
0
LINE
8
BLACK
6
CONTINUOUS
10
0.773616
20
0.0456273
11
0.771577
21
0.0446963
0
LINE
8
BLACK
6
CONTINUOUS
10
0.771577
20
0.0446963
11
0.766201
21
0.0431177
0
LINE
8
BLACK
6
CONTINUOUS
10
0.766201
20
0.0431177
11
0.763983
21
0.0427988
0
LINE
8
BLACK
6
CONTINUOUS
10
0.763983
20
0.0427988
11
0.762188
21
0.0427988
0
LINE
8
BLACK
6
CONTINUOUS
10
0.762188
20
0.0427988
11
0.761181
21
0.0425984
0
LINE
8
BLACK
6
CONTINUOUS
10
0.761181
20
0.0425984
11
0.739528
21
0.0425984
0
LINE
8
BLACK
6
CONTINUOUS
10
0.739528
20
0.0425984
11
0.736514
21
0.0431978
0
LINE
8
BLACK
6
CONTINUOUS
10
0.736514
20
0.0431978
11
0.734606
21
0.0444727
0
LINE
8
BLACK
6
CONTINUOUS
10
0.734606
20
0.0444727
11
0.732698
21
0.0431978
0
LINE
8
BLACK
6
CONTINUOUS
10
0.732698
20
0.0431978
11
0.729685
21
0.0425984
0
LINE
8
BLACK
6
CONTINUOUS
10
0.729685
20
0.0425984
11
0.690315
21
0.0425984
0
LINE
8
BLACK
6
CONTINUOUS
10
0.690315
20
0.0425984
11
0.687302
21
0.0431978
0
LINE
8
BLACK
6
CONTINUOUS
10
0.687302
20
0.0431978
11
0.685394
21
0.0444727
0
LINE
8
BLACK
6
CONTINUOUS
10
0.685394
20
0.0444727
11
0.683486
21
0.0431978
0
LINE
8
BLACK
6
CONTINUOUS
10
0.683486
20
0.0431978
11
0.680472
21
0.0425984
0
LINE
8
BLACK
6
CONTINUOUS
10
0.680472
20
0.0425984
11
0.658819
21
0.0425984
0
LINE
8
BLACK
6
CONTINUOUS
10
0.658819
20
0.0425984
11
0.657812
21
0.0427988
0
LINE
8
BLACK
6
CONTINUOUS
10
0.657812
20
0.0427988
11
0.656017
21
0.0427988
0
LINE
8
BLACK
6
CONTINUOUS
10
0.656017
20
0.0427988
11
0.653799
21
0.0431177
0
LINE
8
BLACK
6
CONTINUOUS
10
0.653799
20
0.0431177
11
0.648423
21
0.0446963
0
LINE
8
BLACK
6
CONTINUOUS
10
0.648423
20
0.0446963
11
0.646384
21
0.0456273
0
LINE
8
BLACK
6
CONTINUOUS
10
0.646384
20
0.0456273
11
0.641671
21
0.0486565
0
LINE
8
BLACK
6
CONTINUOUS
10
0.641671
20
0.0486565
11
0.639977
21
0.0501241
0
LINE
8
BLACK
6
CONTINUOUS
10
0.639977
20
0.0501241
11
0.636308
21
0.0543586
0
LINE
8
BLACK
6
CONTINUOUS
10
0.636308
20
0.0543586
11
0.635096
21
0.056244
0
LINE
8
BLACK
6
CONTINUOUS
10
0.635096
20
0.056244
11
0.632769
21
0.0613406
0
LINE
8
BLACK
6
CONTINUOUS
10
0.632769
20
0.0613406
11
0.632137
21
0.0634909
0
LINE
8
BLACK
6
CONTINUOUS
10
0.632137
20
0.0634909
11
0.63134
21
0.0690369
0
LINE
8
BLACK
6
CONTINUOUS
10
0.63134
20
0.0690369
11
0.63126
21
0.0701575
0
LINE
8
BLACK
6
CONTINUOUS
10
0.63126
20
0.0701575
11
0.63126
21
0.0898425
0
LINE
8
BLACK
6
CONTINUOUS
10
0.63126
20
0.0898425
11
0.63134
21
0.0909631
0
LINE
8
BLACK
6
CONTINUOUS
10
0.63134
20
0.0909631
11
0.632137
21
0.0965091
0
LINE
8
BLACK
6
CONTINUOUS
10
0.632137
20
0.0965091
11
0.632769
21
0.0986594
0
LINE
8
BLACK
6
CONTINUOUS
10
0.632769
20
0.0986594
11
0.635096
21
0.103756
0
LINE
8
BLACK
6
CONTINUOUS
10
0.635096
20
0.103756
11
0.636308
21
0.105641
0
LINE
8
BLACK
6
CONTINUOUS
10
0.636308
20
0.105641
11
0.639977
21
0.109876
0
LINE
8
BLACK
6
CONTINUOUS
10
0.639977
20
0.109876
11
0.641671
21
0.111344
0
LINE
8
BLACK
6
CONTINUOUS
10
0.641671
20
0.111344
11
0.646384
21
0.114373
0
LINE
8
BLACK
6
CONTINUOUS
10
0.646384
20
0.114373
11
0.648423
21
0.115304
0
LINE
8
BLACK
6
CONTINUOUS
10
0.648423
20
0.115304
11
0.653799
21
0.116882
0
LINE
8
BLACK
6
CONTINUOUS
10
0.653799
20
0.116882
11
0.656017
21
0.117201
0
LINE
8
BLACK
6
CONTINUOUS
10
0.656017
20
0.117201
11
0.657812
21
0.117201
0
LINE
8
BLACK
6
CONTINUOUS
10
0.657812
20
0.117201
11
0.658819
21
0.117402
0
LINE
8
BLACK
6
CONTINUOUS
10
0.658819
20
0.117402
11
0.680472
21
0.117402
0
LINE
8
BLACK
6
CONTINUOUS
10
0.680472
20
0.117402
11
0.683486
21
0.116802
0
LINE
8
BLACK
6
CONTINUOUS
10
0.954773
20
0.0993193
11
0.960655
21
0.0962319
0
LINE
8
BLACK
6
CONTINUOUS
10
0.960655
20
0.0962319
11
0.965628
21
0.0918262
0
LINE
8
BLACK
6
CONTINUOUS
10
0.965628
20
0.0918262
11
0.969402
21
0.0863585
0
LINE
8
BLACK
6
CONTINUOUS
10
0.969402
20
0.0863585
11
0.971758
21
0.0801465
0
LINE
8
BLACK
6
CONTINUOUS
10
0.971758
20
0.0801465
11
0.972559
21
0.0735512
0
LINE
8
BLACK
6
CONTINUOUS
10
0.972559
20
0.0735512
11
0.971758
21
0.0669559
0
LINE
8
BLACK
6
CONTINUOUS
10
0.971758
20
0.0669559
11
0.969402
21
0.0607439
0
LINE
8
BLACK
6
CONTINUOUS
10
0.969402
20
0.0607439
11
0.965628
21
0.0552761
0
LINE
8
BLACK
6
CONTINUOUS
10
0.965628
20
0.0552761
11
0.960655
21
0.0508705
0
LINE
8
BLACK
6
CONTINUOUS
10
0.960655
20
0.0508705
11
0.954773
21
0.047783
0
LINE
8
BLACK
6
CONTINUOUS
10
0.954773
20
0.047783
11
0.948322
21
0.0461931
0
LINE
8
BLACK
6
CONTINUOUS
10
0.948322
20
0.0461931
11
0.941678
21
0.0461931
0
LINE
8
BLACK
6
CONTINUOUS
10
0.941678
20
0.0461931
11
0.935227
21
0.047783
0
LINE
8
BLACK
6
CONTINUOUS
10
0.935227
20
0.047783
11
0.929345
21
0.0508705
0
LINE
8
BLACK
6
CONTINUOUS
10
0.929345
20
0.0508705
11
0.924372
21
0.0552761
0
LINE
8
BLACK
6
CONTINUOUS
10
0.924372
20
0.0552761
11
0.920598
21
0.0607439
0
LINE
8
BLACK
6
CONTINUOUS
10
0.920598
20
0.0607439
11
0.918242
21
0.0669559
0
LINE
8
BLACK
6
CONTINUOUS
10
0.918242
20
0.0669559
11
0.917441
21
0.0735512
0
LINE
8
BLACK
6
CONTINUOUS
10
0.917441
20
0.0735512
11
0.918242
21
0.0801465
0
LINE
8
BLACK
6
CONTINUOUS
10
0.918242
20
0.0801465
11
0.920598
21
0.0863585
0
LINE
8
BLACK
6
CONTINUOUS
10
0.920598
20
0.0863585
11
0.924372
21
0.0918262
0
LINE
8
BLACK
6
CONTINUOUS
10
0.924372
20
0.0918262
11
0.929345
21
0.0962319
0
LINE
8
BLACK
6
CONTINUOUS
10
0.929345
20
0.0962319
11
0.935227
21
0.0993193
0
LINE
8
BLACK
6
CONTINUOUS
10
0.935227
20
0.0993193
11
0.941678
21
0.100909
0
LINE
8
BLACK
6
CONTINUOUS
10
0.941678
20
0.100909
11
0.948322
21
0.100909
0
LINE
8
BLACK
6
CONTINUOUS
10
0.948322
20
0.100909
11
0.954773
21
0.0993193
0
LINE
8
BLACK
6
CONTINUOUS
10
0.506699
20
0.130768
11
0.511295
21
0.128426
0
LINE
8
BLACK
6
CONTINUOUS
10
0.511295
20
0.128426
11
0.514942
21
0.124779
0
LINE
8
BLACK
6
CONTINUOUS
10
0.514942
20
0.124779
11
0.517284
21
0.120183
0
LINE
8
BLACK
6
CONTINUOUS
10
0.517284
20
0.120183
11
0.518091
21
0.115089
0
LINE
8
BLACK
6
CONTINUOUS
10
0.518091
20
0.115089
11
0.518091
21
0.0949114
0
LINE
8
BLACK
6
CONTINUOUS
10
0.518091
20
0.0949114
11
0.517284
21
0.0898169
0
LINE
8
BLACK
6
CONTINUOUS
10
0.517284
20
0.0898169
11
0.514942
21
0.0852211
0
LINE
8
BLACK
6
CONTINUOUS
10
0.514942
20
0.0852211
11
0.511295
21
0.0815738
0
LINE
8
BLACK
6
CONTINUOUS
10
0.511295
20
0.0815738
11
0.506699
21
0.0792321
0
LINE
8
BLACK
6
CONTINUOUS
10
0.506699
20
0.0792321
11
0.501604
21
0.0784252
0
LINE
8
BLACK
6
CONTINUOUS
10
0.501604
20
0.0784252
11
0.48438
21
0.0784252
0
LINE
8
BLACK
6
CONTINUOUS
10
0.48438
20
0.0784252
11
0.479285
21
0.0792321
0
LINE
8
BLACK
6
CONTINUOUS
10
0.479285
20
0.0792321
11
0.47469
21
0.0815738
0
LINE
8
BLACK
6
CONTINUOUS
10
0.47469
20
0.0815738
11
0.471042
21
0.0852211
0
LINE
8
BLACK
6
CONTINUOUS
10
0.471042
20
0.0852211
11
0.468701
21
0.0898169
0
LINE
8
BLACK
6
CONTINUOUS
10
0.468701
20
0.0898169
11
0.467894
21
0.0949114
0
LINE
8
BLACK
6
CONTINUOUS
10
0.467894
20
0.0949114
11
0.467894
21
0.115089
0
LINE
8
BLACK
6
CONTINUOUS
10
0.467894
20
0.115089
11
0.468701
21
0.120183
0
LINE
8
BLACK
6
CONTINUOUS
10
0.468701
20
0.120183
11
0.471042
21
0.124779
0
LINE
8
BLACK
6
CONTINUOUS
10
0.471042
20
0.124779
11
0.47469
21
0.128426
0
LINE
8
BLACK
6
CONTINUOUS
10
0.47469
20
0.128426
11
0.479285
21
0.130768
0
LINE
8
BLACK
6
CONTINUOUS
10
0.479285
20
0.130768
11
0.48438
21
0.131575
0
LINE
8
BLACK
6
CONTINUOUS
10
0.48438
20
0.131575
11
0.501604
21
0.131575
0
LINE
8
BLACK
6
CONTINUOUS
10
0.501604
20
0.131575
11
0.506699
21
0.130768
0
LINE
8
BLACK
6
CONTINUOUS
10
0.568707
20
0.130768
11
0.573303
21
0.128426
0
LINE
8
BLACK
6
CONTINUOUS
10
0.573303
20
0.128426
11
0.57695
21
0.124779
0
LINE
8
BLACK
6
CONTINUOUS
10
0.57695
20
0.124779
11
0.579292
21
0.120183
0
LINE
8
BLACK
6
CONTINUOUS
10
0.579292
20
0.120183
11
0.580098
21
0.115089
0
LINE
8
BLACK
6
CONTINUOUS
10
0.580098
20
0.115089
11
0.580098
21
0.0949114
0
LINE
8
BLACK
6
CONTINUOUS
10
0.580098
20
0.0949114
11
0.579292
21
0.0898169
0
LINE
8
BLACK
6
CONTINUOUS
10
0.579292
20
0.0898169
11
0.57695
21
0.0852211
0
LINE
8
BLACK
6
CONTINUOUS
10
0.57695
20
0.0852211
11
0.573303
21
0.0815738
0
LINE
8
BLACK
6
CONTINUOUS
10
0.573303
20
0.0815738
11
0.568707
21
0.0792321
0
LINE
8
BLACK
6
CONTINUOUS
10
0.568707
20
0.0792321
11
0.563612
21
0.0784252
0
LINE
8
BLACK
6
CONTINUOUS
10
0.563612
20
0.0784252
11
0.546388
21
0.0784252
0
LINE
8
BLACK
6
CONTINUOUS
10
0.546388
20
0.0784252
11
0.541293
21
0.0792321
0
LINE
8
BLACK
6
CONTINUOUS
10
0.541293
20
0.0792321
11
0.536697
21
0.0815738
0
LINE
8
BLACK
6
CONTINUOUS
10
0.536697
20
0.0815738
11
0.53305
21
0.0852211
0
LINE
8
BLACK
6
CONTINUOUS
10
0.53305
20
0.0852211
11
0.530708
21
0.0898169
0
LINE
8
BLACK
6
CONTINUOUS
10
0.530708
20
0.0898169
11
0.529902
21
0.0949114
0
LINE
8
BLACK
6
CONTINUOUS
10
0.529902
20
0.0949114
11
0.529902
21
0.115089
0
LINE
8
BLACK
6
CONTINUOUS
10
0.529902
20
0.115089
11
0.530708
21
0.120183
0
LINE
8
BLACK
6
CONTINUOUS
10
0.530708
20
0.120183
11
0.53305
21
0.124779
0
LINE
8
BLACK
6
CONTINUOUS
10
0.53305
20
0.124779
11
0.536697
21
0.128426
0
LINE
8
BLACK
6
CONTINUOUS
10
0.536697
20
0.128426
11
0.541293
21
0.130768
0
LINE
8
BLACK
6
CONTINUOUS
10
0.541293
20
0.130768
11
0.546388
21
0.131575
0
LINE
8
BLACK
6
CONTINUOUS
10
0.546388
20
0.131575
11
0.563612
21
0.131575
0
LINE
8
BLACK
6
CONTINUOUS
10
0.563612
20
0.131575
11
0.568707
21
0.130768
0
LINE
8
BLACK
6
CONTINUOUS
10
0.907773
20
0.142768
11
0.913655
21
0.139681
0
LINE
8
BLACK
6
CONTINUOUS
10
0.913655
20
0.139681
11
0.918628
21
0.135275
0
LINE
8
BLACK
6
CONTINUOUS
10
0.918628
20
0.135275
11
0.922402
21
0.129807
0
LINE
8
BLACK
6
CONTINUOUS
10
0.922402
20
0.129807
11
0.924758
21
0.123595
0
LINE
8
BLACK
6
CONTINUOUS
10
0.924758
20
0.123595
11
0.925559
21
0.117
0
LINE
8
BLACK
6
CONTINUOUS
10
0.925559
20
0.117
11
0.924758
21
0.110405
0
LINE
8
BLACK
6
CONTINUOUS
10
0.924758
20
0.110405
11
0.922402
21
0.104193
0
LINE
8
BLACK
6
CONTINUOUS
10
0.922402
20
0.104193
11
0.918628
21
0.098725
0
LINE
8
BLACK
6
CONTINUOUS
10
0.918628
20
0.098725
11
0.913655
21
0.0943193
0
LINE
8
BLACK
6
CONTINUOUS
10
0.913655
20
0.0943193
11
0.907773
21
0.0912319
0
LINE
8
BLACK
6
CONTINUOUS
10
0.907773
20
0.0912319
11
0.901322
21
0.0896419
0
LINE
8
BLACK
6
CONTINUOUS
10
0.901322
20
0.0896419
11
0.894678
21
0.0896419
0
LINE
8
BLACK
6
CONTINUOUS
10
0.894678
20
0.0896419
11
0.888227
21
0.0912319
0
LINE
8
BLACK
6
CONTINUOUS
10
0.888227
20
0.0912319
11
0.882345
21
0.0943193
0
LINE
8
BLACK
6
CONTINUOUS
10
0.882345
20
0.0943193
11
0.877372
21
0.098725
0
LINE
8
BLACK
6
CONTINUOUS
10
0.877372
20
0.098725
11
0.873598
21
0.104193
0
LINE
8
BLACK
6
CONTINUOUS
10
0.873598
20
0.104193
11
0.871242
21
0.110405
0
LINE
8
BLACK
6
CONTINUOUS
10
0.871242
20
0.110405
11
0.870441
21
0.117
0
LINE
8
BLACK
6
CONTINUOUS
10
0.870441
20
0.117
11
0.871242
21
0.123595
0
LINE
8
BLACK
6
CONTINUOUS
10
0.871242
20
0.123595
11
0.873598
21
0.129807
0
LINE
8
BLACK
6
CONTINUOUS
10
0.873598
20
0.129807
11
0.877372
21
0.135275
0
LINE
8
BLACK
6
CONTINUOUS
10
0.877372
20
0.135275
11
0.882345
21
0.139681
0
LINE
8
BLACK
6
CONTINUOUS
10
0.882345
20
0.139681
11
0.888227
21
0.142768
0
LINE
8
BLACK
6
CONTINUOUS
10
0.888227
20
0.142768
11
0.894678
21
0.144358
0
LINE
8
BLACK
6
CONTINUOUS
10
0.894678
20
0.144358
11
0.901322
21
0.144358
0
LINE
8
BLACK
6
CONTINUOUS
10
0.901322
20
0.144358
11
0.907773
21
0.142768
0
LINE
8
BLACK
6
CONTINUOUS
10
0.111451
20
0.175872
11
0.116436
21
0.174128
0
LINE
8
BLACK
6
CONTINUOUS
10
0.116436
20
0.174128
11
0.120685
21
0.170992
0
LINE
8
BLACK
6
CONTINUOUS
10
0.120685
20
0.170992
11
0.123821
21
0.166743
0
LINE
8
BLACK
6
CONTINUOUS
10
0.123821
20
0.166743
11
0.125565
21
0.161758
0
LINE
8
BLACK
6
CONTINUOUS
10
0.125565
20
0.161758
11
0.125874
21
0.158465
0
LINE
8
BLACK
6
CONTINUOUS
10
0.125874
20
0.158465
11
0.125874
21
0.13878
0
LINE
8
BLACK
6
CONTINUOUS
10
0.125874
20
0.13878
11
0.125565
21
0.135486
0
LINE
8
BLACK
6
CONTINUOUS
10
0.125565
20
0.135486
11
0.123821
21
0.130501
0
LINE
8
BLACK
6
CONTINUOUS
10
0.123821
20
0.130501
11
0.120685
21
0.126252
0
LINE
8
BLACK
6
CONTINUOUS
10
0.120685
20
0.126252
11
0.116436
21
0.123116
0
LINE
8
BLACK
6
CONTINUOUS
10
0.116436
20
0.123116
11
0.111451
21
0.121372
0
LINE
8
BLACK
6
CONTINUOUS
10
0.111451
20
0.121372
11
0.108157
21
0.121063
0
LINE
8
BLACK
6
CONTINUOUS
10
0.108157
20
0.121063
11
0.0215433
21
0.121063
0
LINE
8
BLACK
6
CONTINUOUS
10
0.0215433
20
0.121063
11
0.0182496
21
0.121372
0
LINE
8
BLACK
6
CONTINUOUS
10
0.0182496
20
0.121372
11
0.0132649
21
0.123116
0
LINE
8
BLACK
6
CONTINUOUS
10
0.0132649
20
0.123116
11
0.00901583
21
0.126252
0
LINE
8
BLACK
6
CONTINUOUS
10
0.00901583
20
0.126252
11
0.00587984
21
0.130501
0
LINE
8
BLACK
6
CONTINUOUS
10
0.00587984
20
0.130501
11
0.00413563
21
0.135486
0
LINE
8
BLACK
6
CONTINUOUS
10
0.00413563
20
0.135486
11
0.00382677
21
0.13878
0
LINE
8
BLACK
6
CONTINUOUS
10
0.00382677
20
0.13878
11
0.00382677
21
0.158465
0
LINE
8
BLACK
6
CONTINUOUS
10
0.00382677
20
0.158465
11
0.00413563
21
0.161758
0
LINE
8
BLACK
6
CONTINUOUS
10
0.00413563
20
0.161758
11
0.00587984
21
0.166743
0
LINE
8
BLACK
6
CONTINUOUS
10
0.00587984
20
0.166743
11
0.00901583
21
0.170992
0
LINE
8
BLACK
6
CONTINUOUS
10
0.00901583
20
0.170992
11
0.0132649
21
0.174128
0
LINE
8
BLACK
6
CONTINUOUS
10
0.0132649
20
0.174128
11
0.0182496
21
0.175872
0
LINE
8
BLACK
6
CONTINUOUS
10
0.0182496
20
0.175872
11
0.0215433
21
0.176181
0
LINE
8
BLACK
6
CONTINUOUS
10
0.0215433
20
0.176181
11
0.108157
21
0.176181
0
LINE
8
BLACK
6
CONTINUOUS
10
0.108157
20
0.176181
11
0.111451
21
0.175872
0
LINE
8
BLACK
6
CONTINUOUS
10
0.863119
20
0.193091
11
0.869002
21
0.190004
0
LINE
8
BLACK
6
CONTINUOUS
10
0.869002
20
0.190004
11
0.873975
21
0.185598
0
LINE
8
BLACK
6
CONTINUOUS
10
0.873975
20
0.185598
11
0.877749
21
0.18013
0
LINE
8
BLACK
6
CONTINUOUS
10
0.877749
20
0.18013
11
0.880105
21
0.173918
0
LINE
8
BLACK
6
CONTINUOUS
10
0.880105
20
0.173918
11
0.880906
21
0.167323
0
LINE
8
BLACK
6
CONTINUOUS
10
0.880906
20
0.167323
11
0.880105
21
0.160728
0
LINE
8
BLACK
6
CONTINUOUS
10
0.880105
20
0.160728
11
0.877749
21
0.154516
0
LINE
8
BLACK
6
CONTINUOUS
10
0.877749
20
0.154516
11
0.873975
21
0.149048
0
LINE
8
BLACK
6
CONTINUOUS
10
0.873975
20
0.149048
11
0.869002
21
0.144642
0
LINE
8
BLACK
6
CONTINUOUS
10
0.869002
20
0.144642
11
0.863119
21
0.141555
0
LINE
8
BLACK
6
CONTINUOUS
10
0.863119
20
0.141555
11
0.856668
21
0.139965
0
LINE
8
BLACK
6
CONTINUOUS
10
0.856668
20
0.139965
11
0.850025
21
0.139965
0
LINE
8
BLACK
6
CONTINUOUS
10
0.850025
20
0.139965
11
0.843574
21
0.141555
0
LINE
8
BLACK
6
CONTINUOUS
10
0.843574
20
0.141555
11
0.837691
21
0.144642
0
LINE
8
BLACK
6
CONTINUOUS
10
0.837691
20
0.144642
11
0.832718
21
0.149048
0
LINE
8
BLACK
6
CONTINUOUS
10
0.832718
20
0.149048
11
0.828944
21
0.154516
0
LINE
8
BLACK
6
CONTINUOUS
10
0.828944
20
0.154516
11
0.826588
21
0.160728
0
LINE
8
BLACK
6
CONTINUOUS
10
0.826588
20
0.160728
11
0.825787
21
0.167323
0
LINE
8
BLACK
6
CONTINUOUS
10
0.825787
20
0.167323
11
0.826588
21
0.173918
0
LINE
8
BLACK
6
CONTINUOUS
10
0.826588
20
0.173918
11
0.828944
21
0.18013
0
LINE
8
BLACK
6
CONTINUOUS
10
0.828944
20
0.18013
11
0.832718
21
0.185598
0
LINE
8
BLACK
6
CONTINUOUS
10
0.832718
20
0.185598
11
0.837691
21
0.190004
0
LINE
8
BLACK
6
CONTINUOUS
10
0.837691
20
0.190004
11
0.843574
21
0.193091
0
LINE
8
BLACK
6
CONTINUOUS
10
0.843574
20
0.193091
11
0.850025
21
0.194681
0
LINE
8
BLACK
6
CONTINUOUS
10
0.850025
20
0.194681
11
0.856668
21
0.194681
0
LINE
8
BLACK
6
CONTINUOUS
10
0.856668
20
0.194681
11
0.863119
21
0.193091
0
LINE
8
BLACK
6
CONTINUOUS
10
0.480183
20
0.204292
11
0.484779
21
0.20195
0
LINE
8
BLACK
6
CONTINUOUS
10
0.484779
20
0.20195
11
0.488426
21
0.198303
0
LINE
8
BLACK
6
CONTINUOUS
10
0.488426
20
0.198303
11
0.490768
21
0.193707
0
LINE
8
BLACK
6
CONTINUOUS
10
0.490768
20
0.193707
11
0.491575
21
0.188612
0
LINE
8
BLACK
6
CONTINUOUS
10
0.491575
20
0.188612
11
0.491575
21
0.171388
0
LINE
8
BLACK
6
CONTINUOUS
10
0.491575
20
0.171388
11
0.490768
21
0.166293
0
LINE
8
BLACK
6
CONTINUOUS
10
0.490768
20
0.166293
11
0.488426
21
0.161697
0
LINE
8
BLACK
6
CONTINUOUS
10
0.488426
20
0.161697
11
0.484779
21
0.15805
0
LINE
8
BLACK
6
CONTINUOUS
10
0.484779
20
0.15805
11
0.480183
21
0.155708
0
LINE
8
BLACK
6
CONTINUOUS
10
0.480183
20
0.155708
11
0.475089
21
0.154902
0
LINE
8
BLACK
6
CONTINUOUS
10
0.475089
20
0.154902
11
0.454911
21
0.154902
0
LINE
8
BLACK
6
CONTINUOUS
10
0.454911
20
0.154902
11
0.449817
21
0.155708
0
LINE
8
BLACK
6
CONTINUOUS
10
0.449817
20
0.155708
11
0.445221
21
0.15805
0
LINE
8
BLACK
6
CONTINUOUS
10
0.445221
20
0.15805
11
0.441574
21
0.161697
0
LINE
8
BLACK
6
CONTINUOUS
10
0.441574
20
0.161697
11
0.439232
21
0.166293
0
LINE
8
BLACK
6
CONTINUOUS
10
0.439232
20
0.166293
11
0.438425
21
0.171388
0
LINE
8
BLACK
6
CONTINUOUS
10
0.438425
20
0.171388
11
0.438425
21
0.188612
0
LINE
8
BLACK
6
CONTINUOUS
10
0.438425
20
0.188612
11
0.439232
21
0.193707
0
LINE
8
BLACK
6
CONTINUOUS
10
0.439232
20
0.193707
11
0.441574
21
0.198303
0
LINE
8
BLACK
6
CONTINUOUS
10
0.441574
20
0.198303
11
0.445221
21
0.20195
0
LINE
8
BLACK
6
CONTINUOUS
10
0.445221
20
0.20195
11
0.449817
21
0.204292
0
LINE
8
BLACK
6
CONTINUOUS
10
0.449817
20
0.204292
11
0.454911
21
0.205098
0
LINE
8
BLACK
6
CONTINUOUS
10
0.454911
20
0.205098
11
0.475089
21
0.205098
0
LINE
8
BLACK
6
CONTINUOUS
10
0.475089
20
0.205098
11
0.480183
21
0.204292
0
LINE
8
BLACK
6
CONTINUOUS
10
0.6451
20
0.210621
11
0.647654
21
0.208914
0
LINE
8
BLACK
6
CONTINUOUS
10
0.647654
20
0.208914
11
0.649361
21
0.20636
0
LINE
8
BLACK
6
CONTINUOUS
10
0.649361
20
0.20636
11
0.649961
21
0.203346
0
LINE
8
BLACK
6
CONTINUOUS
10
0.649961
20
0.203346
11
0.649961
21
0.17185
0
LINE
8
BLACK
6
CONTINUOUS
10
0.649961
20
0.17185
11
0.649361
21
0.168837
0
LINE
8
BLACK
6
CONTINUOUS
10
0.649361
20
0.168837
11
0.647654
21
0.166283
0
LINE
8
BLACK
6
CONTINUOUS
10
0.647654
20
0.166283
11
0.6451
21
0.164576
0
LINE
8
BLACK
6
CONTINUOUS
10
0.6451
20
0.164576
11
0.642087
21
0.163976
0
LINE
8
BLACK
6
CONTINUOUS
10
0.642087
20
0.163976
11
0.606654
21
0.163976
0
LINE
8
BLACK
6
CONTINUOUS
10
0.606654
20
0.163976
11
0.60364
21
0.164576
0
LINE
8
BLACK
6
CONTINUOUS
10
0.60364
20
0.164576
11
0.601086
21
0.166283
0
LINE
8
BLACK
6
CONTINUOUS
10
0.601086
20
0.166283
11
0.599379
21
0.168837
0
LINE
8
BLACK
6
CONTINUOUS
10
0.599379
20
0.168837
11
0.59878
21
0.17185
0
LINE
8
BLACK
6
CONTINUOUS
10
0.59878
20
0.17185
11
0.59878
21
0.203346
0
LINE
8
BLACK
6
CONTINUOUS
10
0.59878
20
0.203346
11
0.599379
21
0.20636
0
LINE
8
BLACK
6
CONTINUOUS
10
0.599379
20
0.20636
11
0.601086
21
0.208914
0
LINE
8
BLACK
6
CONTINUOUS
10
0.601086
20
0.208914
11
0.60364
21
0.210621
0
LINE
8
BLACK
6
CONTINUOUS
10
0.60364
20
0.210621
11
0.606654
21
0.21122
0
LINE
8
BLACK
6
CONTINUOUS
10
0.606654
20
0.21122
11
0.642087
21
0.21122
0
LINE
8
BLACK
6
CONTINUOUS
10
0.642087
20
0.21122
11
0.6451
21
0.210621
0
LINE
8
BLACK
6
CONTINUOUS
10
0.333407
20
0.224834
11
0.335961
21
0.223127
0
LINE
8
BLACK
6
CONTINUOUS
10
0.335961
20
0.223127
11
0.336299
21
0.222621
0
LINE
8
BLACK
6
CONTINUOUS
10
0.336299
20
0.222621
11
0.336637
21
0.223127
0
LINE
8
BLACK
6
CONTINUOUS
10
0.336637
20
0.223127
11
0.339191
21
0.224834
0
LINE
8
BLACK
6
CONTINUOUS
10
0.339191
20
0.224834
11
0.342205
21
0.225433
0
LINE
8
BLACK
6
CONTINUOUS
10
0.342205
20
0.225433
11
0.367795
21
0.225433
0
LINE
8
BLACK
6
CONTINUOUS
10
0.367795
20
0.225433
11
0.370809
21
0.224834
0
LINE
8
BLACK
6
CONTINUOUS
10
0.370809
20
0.224834
11
0.373363
21
0.223127
0
LINE
8
BLACK
6
CONTINUOUS
10
0.373363
20
0.223127
11
0.373701
21
0.222621
0
LINE
8
BLACK
6
CONTINUOUS
10
0.373701
20
0.222621
11
0.374039
21
0.223127
0
LINE
8
BLACK
6
CONTINUOUS
10
0.374039
20
0.223127
11
0.376593
21
0.224834
0
LINE
8
BLACK
6
CONTINUOUS
10
0.376593
20
0.224834
11
0.379606
21
0.225433
0
LINE
8
BLACK
6
CONTINUOUS
10
0.379606
20
0.225433
11
0.405197
21
0.225433
0
LINE
8
BLACK
6
CONTINUOUS
10
0.405197
20
0.225433
11
0.40821
21
0.224834
0
LINE
8
BLACK
6
CONTINUOUS
10
0.40821
20
0.224834
11
0.410765
21
0.223127
0
LINE
8
BLACK
6
CONTINUOUS
10
0.410765
20
0.223127
11
0.412471
21
0.220572
0
LINE
8
BLACK
6
CONTINUOUS
10
0.412471
20
0.220572
11
0.413071
21
0.217559
0
LINE
8
BLACK
6
CONTINUOUS
10
0.413071
20
0.217559
11
0.413071
21
0.175827
0
LINE
8
BLACK
6
CONTINUOUS
10
0.413071
20
0.175827
11
0.412471
21
0.172814
0
LINE
8
BLACK
6
CONTINUOUS
10
0.412471
20
0.172814
11
0.410765
21
0.170259
0
LINE
8
BLACK
6
CONTINUOUS
10
0.410765
20
0.170259
11
0.40821
21
0.168552
0
LINE
8
BLACK
6
CONTINUOUS
10
0.40821
20
0.168552
11
0.405197
21
0.167953
0
LINE
8
BLACK
6
CONTINUOUS
10
0.405197
20
0.167953
11
0.379606
21
0.167953
0
LINE
8
BLACK
6
CONTINUOUS
10
0.379606
20
0.167953
11
0.376593
21
0.168552
0
LINE
8
BLACK
6
CONTINUOUS
10
0.376593
20
0.168552
11
0.374039
21
0.170259
0
LINE
8
BLACK
6
CONTINUOUS
10
0.374039
20
0.170259
11
0.373701
21
0.170765
0
LINE
8
BLACK
6
CONTINUOUS
10
0.373701
20
0.170765
11
0.373363
21
0.170259
0
LINE
8
BLACK
6
CONTINUOUS
10
0.373363
20
0.170259
11
0.370809
21
0.168552
0
LINE
8
BLACK
6
CONTINUOUS
10
0.370809
20
0.168552
11
0.367795
21
0.167953
0
LINE
8
BLACK
6
CONTINUOUS
10
0.367795
20
0.167953
11
0.342205
21
0.167953
0
LINE
8
BLACK
6
CONTINUOUS
10
0.342205
20
0.167953
11
0.339191
21
0.168552
0
LINE
8
BLACK
6
CONTINUOUS
10
0.339191
20
0.168552
11
0.336637
21
0.170259
0
LINE
8
BLACK
6
CONTINUOUS
10
0.336637
20
0.170259
11
0.336299
21
0.170765
0
LINE
8
BLACK
6
CONTINUOUS
10
0.336299
20
0.170765
11
0.335961
21
0.170259
0
LINE
8
BLACK
6
CONTINUOUS
10
0.335961
20
0.170259
11
0.333407
21
0.168552
0
LINE
8
BLACK
6
CONTINUOUS
10
0.333407
20
0.168552
11
0.330394
21
0.167953
0
LINE
8
BLACK
6
CONTINUOUS
10
0.330394
20
0.167953
11
0.304803
21
0.167953
0
LINE
8
BLACK
6
CONTINUOUS
10
0.304803
20
0.167953
11
0.30179
21
0.168552
0
LINE
8
BLACK
6
CONTINUOUS
10
0.30179
20
0.168552
11
0.299235
21
0.170259
0
LINE
8
BLACK
6
CONTINUOUS
10
0.299235
20
0.170259
11
0.297529
21
0.172814
0
LINE
8
BLACK
6
CONTINUOUS
10
0.297529
20
0.172814
11
0.296929
21
0.175827
0
LINE
8
BLACK
6
CONTINUOUS
10
0.296929
20
0.175827
11
0.296929
21
0.217559
0
LINE
8
BLACK
6
CONTINUOUS
10
0.296929
20
0.217559
11
0.297529
21
0.220572
0
LINE
8
BLACK
6
CONTINUOUS
10
0.297529
20
0.220572
11
0.299235
21
0.223127
0
LINE
8
BLACK
6
CONTINUOUS
10
0.299235
20
0.223127
11
0.30179
21
0.224834
0
LINE
8
BLACK
6
CONTINUOUS
10
0.30179
20
0.224834
11
0.304803
21
0.225433
0
LINE
8
BLACK
6
CONTINUOUS
10
0.304803
20
0.225433
11
0.330394
21
0.225433
0
LINE
8
BLACK
6
CONTINUOUS
10
0.330394
20
0.225433
11
0.333407
21
0.224834
0
LINE
8
BLACK
6
CONTINUOUS
10
0.93928
20
0.212788
11
0.943993
21
0.209759
0
LINE
8
BLACK
6
CONTINUOUS
10
0.943993
20
0.209759
11
0.947662
21
0.205524
0
LINE
8
BLACK
6
CONTINUOUS
10
0.947662
20
0.205524
11
0.94999
21
0.200428
0
LINE
8
BLACK
6
CONTINUOUS
10
0.94999
20
0.200428
11
0.950787
21
0.194882
0
LINE
8
BLACK
6
CONTINUOUS
10
0.950787
20
0.194882
11
0.94999
21
0.189336
0
LINE
8
BLACK
6
CONTINUOUS
10
0.94999
20
0.189336
11
0.947662
21
0.184239
0
LINE
8
BLACK
6
CONTINUOUS
10
0.947662
20
0.184239
11
0.943993
21
0.180005
0
LINE
8
BLACK
6
CONTINUOUS
10
0.943993
20
0.180005
11
0.93928
21
0.176976
0
LINE
8
BLACK
6
CONTINUOUS
10
0.93928
20
0.176976
11
0.933904
21
0.175397
0
LINE
8
BLACK
6
CONTINUOUS
10
0.933904
20
0.175397
11
0.928301
21
0.175397
0
LINE
8
BLACK
6
CONTINUOUS
10
0.928301
20
0.175397
11
0.922925
21
0.176976
0
LINE
8
BLACK
6
CONTINUOUS
10
0.922925
20
0.176976
11
0.918211
21
0.180005
0
LINE
8
BLACK
6
CONTINUOUS
10
0.918211
20
0.180005
11
0.914542
21
0.184239
0
LINE
8
BLACK
6
CONTINUOUS
10
0.914542
20
0.184239
11
0.912215
21
0.189336
0
LINE
8
BLACK
6
CONTINUOUS
10
0.912215
20
0.189336
11
0.911417
21
0.194882
0
LINE
8
BLACK
6
CONTINUOUS
10
0.911417
20
0.194882
11
0.912215
21
0.200428
0
LINE
8
BLACK
6
CONTINUOUS
10
0.912215
20
0.200428
11
0.914542
21
0.205524
0
LINE
8
BLACK
6
CONTINUOUS
10
0.914542
20
0.205524
11
0.918211
21
0.209759
0
LINE
8
BLACK
6
CONTINUOUS
10
0.918211
20
0.209759
11
0.922925
21
0.212788
0
LINE
8
BLACK
6
CONTINUOUS
10
0.922925
20
0.212788
11
0.928301
21
0.214367
0
LINE
8
BLACK
6
CONTINUOUS
10
0.928301
20
0.214367
11
0.933904
21
0.214367
0
LINE
8
BLACK
6
CONTINUOUS
10
0.933904
20
0.214367
11
0.93928
21
0.212788
0
LINE
8
BLACK
6
CONTINUOUS
10
1.14007
20
0.212788
11
1.14478
21
0.209759
0
LINE
8
BLACK
6
CONTINUOUS
10
1.14478
20
0.209759
11
1.14845
21
0.205524
0
LINE
8
BLACK
6
CONTINUOUS
10
1.14845
20
0.205524
11
1.15078
21
0.200428
0
LINE
8
BLACK
6
CONTINUOUS
10
1.15078
20
0.200428
11
1.15157
21
0.194882
0
LINE
8
BLACK
6
CONTINUOUS
10
1.15157
20
0.194882
11
1.15078
21
0.189336
0
LINE
8
BLACK
6
CONTINUOUS
10
1.15078
20
0.189336
11
1.14845
21
0.184239
0
LINE
8
BLACK
6
CONTINUOUS
10
1.14845
20
0.184239
11
1.14478
21
0.180005
0
LINE
8
BLACK
6
CONTINUOUS
10
1.14478
20
0.180005
11
1.14007
21
0.176976
0
LINE
8
BLACK
6
CONTINUOUS
10
1.14007
20
0.176976
11
1.13469
21
0.175397
0
LINE
8
BLACK
6
CONTINUOUS
10
1.13469
20
0.175397
11
1.12909
21
0.175397
0
LINE
8
BLACK
6
CONTINUOUS
10
1.12909
20
0.175397
11
1.12371
21
0.176976
0
LINE
8
BLACK
6
CONTINUOUS
10
1.12371
20
0.176976
11
1.119
21
0.180005
0
LINE
8
BLACK
6
CONTINUOUS
10
1.119
20
0.180005
11
1.11533
21
0.184239
0
LINE
8
BLACK
6
CONTINUOUS
10
1.11533
20
0.184239
11
1.113
21
0.189336
0
LINE
8
BLACK
6
CONTINUOUS
10
1.113
20
0.189336
11
1.1122
21
0.194882
0
LINE
8
BLACK
6
CONTINUOUS
10
1.1122
20
0.194882
11
1.113
21
0.200428
0
LINE
8
BLACK
6
CONTINUOUS
10
1.113
20
0.200428
11
1.11533
21
0.205524
0
LINE
8
BLACK
6
CONTINUOUS
10
1.11533
20
0.205524
11
1.119
21
0.209759
0
LINE
8
BLACK
6
CONTINUOUS
10
1.119
20
0.209759
11
1.12371
21
0.212788
0
LINE
8
BLACK
6
CONTINUOUS
10
1.12371
20
0.212788
11
1.12909
21
0.214367
0
LINE
8
BLACK
6
CONTINUOUS
10
1.12909
20
0.214367
11
1.13469
21
0.214367
0
LINE
8
BLACK
6
CONTINUOUS
10
1.13469
20
0.214367
11
1.14007
21
0.212788
0
LINE
8
BLACK
6
CONTINUOUS
10
0.706699
20
0.235768
11
0.711295
21
0.233426
0
LINE
8
BLACK
6
CONTINUOUS
10
0.711295
20
0.233426
11
0.714942
21
0.229779
0
LINE
8
BLACK
6
CONTINUOUS
10
0.714942
20
0.229779
11
0.717284
21
0.225183
0
LINE
8
BLACK
6
CONTINUOUS
10
0.717284
20
0.225183
11
0.718091
21
0.220089
0
LINE
8
BLACK
6
CONTINUOUS
10
0.718091
20
0.220089
11
0.718091
21
0.199911
0
LINE
8
BLACK
6
CONTINUOUS
10
0.718091
20
0.199911
11
0.717284
21
0.194817
0
LINE
8
BLACK
6
CONTINUOUS
10
0.717284
20
0.194817
11
0.714942
21
0.190221
0
LINE
8
BLACK
6
CONTINUOUS
10
0.714942
20
0.190221
11
0.711295
21
0.186574
0
LINE
8
BLACK
6
CONTINUOUS
10
0.711295
20
0.186574
11
0.706699
21
0.184232
0
LINE
8
BLACK
6
CONTINUOUS
10
0.706699
20
0.184232
11
0.701604
21
0.183425
0
LINE
8
BLACK
6
CONTINUOUS
10
0.701604
20
0.183425
11
0.68438
21
0.183425
0
LINE
8
BLACK
6
CONTINUOUS
10
0.68438
20
0.183425
11
0.679285
21
0.184232
0
LINE
8
BLACK
6
CONTINUOUS
10
0.679285
20
0.184232
11
0.67469
21
0.186574
0
LINE
8
BLACK
6
CONTINUOUS
10
0.67469
20
0.186574
11
0.671042
21
0.190221
0
LINE
8
BLACK
6
CONTINUOUS
10
0.671042
20
0.190221
11
0.668701
21
0.194817
0
LINE
8
BLACK
6
CONTINUOUS
10
0.668701
20
0.194817
11
0.667894
21
0.199911
0
LINE
8
BLACK
6
CONTINUOUS
10
0.667894
20
0.199911
11
0.667894
21
0.220089
0
LINE
8
BLACK
6
CONTINUOUS
10
0.667894
20
0.220089
11
0.668701
21
0.225183
0
LINE
8
BLACK
6
CONTINUOUS
10
0.668701
20
0.225183
11
0.671042
21
0.229779
0
LINE
8
BLACK
6
CONTINUOUS
10
0.671042
20
0.229779
11
0.67469
21
0.233426
0
LINE
8
BLACK
6
CONTINUOUS
10
0.67469
20
0.233426
11
0.679285
21
0.235768
0
LINE
8
BLACK
6
CONTINUOUS
10
0.679285
20
0.235768
11
0.68438
21
0.236575
0
LINE
8
BLACK
6
CONTINUOUS
10
0.68438
20
0.236575
11
0.701604
21
0.236575
0
LINE
8
BLACK
6
CONTINUOUS
10
0.701604
20
0.236575
11
0.706699
21
0.235768
0
LINE
8
BLACK
6
CONTINUOUS
10
0.768707
20
0.235768
11
0.773303
21
0.233426
0
LINE
8
BLACK
6
CONTINUOUS
10
0.773303
20
0.233426
11
0.77695
21
0.229779
0
LINE
8
BLACK
6
CONTINUOUS
10
0.77695
20
0.229779
11
0.779292
21
0.225183
0
LINE
8
BLACK
6
CONTINUOUS
10
0.779292
20
0.225183
11
0.780098
21
0.220089
0
LINE
8
BLACK
6
CONTINUOUS
10
0.780098
20
0.220089
11
0.780098
21
0.199911
0
LINE
8
BLACK
6
CONTINUOUS
10
0.780098
20
0.199911
11
0.779292
21
0.194817
0
LINE
8
BLACK
6
CONTINUOUS
10
0.779292
20
0.194817
11
0.77695
21
0.190221
0
LINE
8
BLACK
6
CONTINUOUS
10
0.77695
20
0.190221
11
0.773303
21
0.186574
0
LINE
8
BLACK
6
CONTINUOUS
10
0.773303
20
0.186574
11
0.768707
21
0.184232
0
LINE
8
BLACK
6
CONTINUOUS
10
0.768707
20
0.184232
11
0.763612
21
0.183425
0
LINE
8
BLACK
6
CONTINUOUS
10
0.763612
20
0.183425
11
0.746388
21
0.183425
0
LINE
8
BLACK
6
CONTINUOUS
10
0.746388
20
0.183425
11
0.741293
21
0.184232
0
LINE
8
BLACK
6
CONTINUOUS
10
0.741293
20
0.184232
11
0.736697
21
0.186574
0
LINE
8
BLACK
6
CONTINUOUS
10
0.736697
20
0.186574
11
0.73305
21
0.190221
0
LINE
8
BLACK
6
CONTINUOUS
10
0.73305
20
0.190221
11
0.730708
21
0.194817
0
LINE
8
BLACK
6
CONTINUOUS
10
0.730708
20
0.194817
11
0.729902
21
0.199911
0
LINE
8
BLACK
6
CONTINUOUS
10
0.729902
20
0.199911
11
0.729902
21
0.220089
0
LINE
8
BLACK
6
CONTINUOUS
10
0.729902
20
0.220089
11
0.730708
21
0.225183
0
LINE
8
BLACK
6
CONTINUOUS
10
0.730708
20
0.225183
11
0.73305
21
0.229779
0
LINE
8
BLACK
6
CONTINUOUS
10
0.73305
20
0.229779
11
0.736697
21
0.233426
0
LINE
8
BLACK
6
CONTINUOUS
10
0.736697
20
0.233426
11
0.741293
21
0.235768
0
LINE
8
BLACK
6
CONTINUOUS
10
0.741293
20
0.235768
11
0.746388
21
0.236575
0
LINE
8
BLACK
6
CONTINUOUS
10
0.746388
20
0.236575
11
0.763612
21
0.236575
0
LINE
8
BLACK
6
CONTINUOUS
10
0.763612
20
0.236575
11
0.768707
21
0.235768
0
LINE
8
BLACK
6
CONTINUOUS
10
0.56636
20
0.248023
11
0.568914
21
0.246316
0
LINE
8
BLACK
6
CONTINUOUS
10
0.568914
20
0.246316
11
0.570621
21
0.243761
0
LINE
8
BLACK
6
CONTINUOUS
10
0.570621
20
0.243761
11
0.57122
21
0.240748
0
LINE
8
BLACK
6
CONTINUOUS
10
0.57122
20
0.240748
11
0.57122
21
0.209252
0
LINE
8
BLACK
6
CONTINUOUS
10
0.57122
20
0.209252
11
0.570621
21
0.206239
0
LINE
8
BLACK
6
CONTINUOUS
10
0.570621
20
0.206239
11
0.568914
21
0.203684
0
LINE
8
BLACK
6
CONTINUOUS
10
0.568914
20
0.203684
11
0.56636
21
0.201977
0
LINE
8
BLACK
6
CONTINUOUS
10
0.56636
20
0.201977
11
0.563346
21
0.201378
0
LINE
8
BLACK
6
CONTINUOUS
10
0.563346
20
0.201378
11
0.527913
21
0.201378
0
LINE
8
BLACK
6
CONTINUOUS
10
0.527913
20
0.201378
11
0.5249
21
0.201977
0
LINE
8
BLACK
6
CONTINUOUS
10
0.5249
20
0.201977
11
0.522346
21
0.203684
0
LINE
8
BLACK
6
CONTINUOUS
10
0.522346
20
0.203684
11
0.520639
21
0.206239
0
LINE
8
BLACK
6
CONTINUOUS
10
0.520639
20
0.206239
11
0.520039
21
0.209252
0
LINE
8
BLACK
6
CONTINUOUS
10
0.520039
20
0.209252
11
0.520039
21
0.240748
0
LINE
8
BLACK
6
CONTINUOUS
10
0.520039
20
0.240748
11
0.520639
21
0.243761
0
LINE
8
BLACK
6
CONTINUOUS
10
0.520639
20
0.243761
11
0.522346
21
0.246316
0
LINE
8
BLACK
6
CONTINUOUS
10
0.522346
20
0.246316
11
0.5249
21
0.248023
0
LINE
8
BLACK
6
CONTINUOUS
10
0.5249
20
0.248023
11
0.527913
21
0.248622
0
LINE
8
BLACK
6
CONTINUOUS
10
0.527913
20
0.248622
11
0.563346
21
0.248622
0
LINE
8
BLACK
6
CONTINUOUS
10
0.563346
20
0.248622
11
0.56636
21
0.248023
0
LINE
8
BLACK
6
CONTINUOUS
10
0.222326
20
0.240569
11
0.226401
21
0.238577
0
LINE
8
BLACK
6
CONTINUOUS
10
0.226401
20
0.238577
11
0.229608
21
0.235369
0
LINE
8
BLACK
6
CONTINUOUS
10
0.229608
20
0.235369
11
0.2316
21
0.231294
0
LINE
8
BLACK
6
CONTINUOUS
10
0.2316
20
0.231294
11
0.232173
21
0.227362
0
LINE
8
BLACK
6
CONTINUOUS
10
0.232173
20
0.227362
11
0.232173
21
0.215551
0
LINE
8
BLACK
6
CONTINUOUS
10
0.232173
20
0.215551
11
0.2316
21
0.211619
0
LINE
8
BLACK
6
CONTINUOUS
10
0.2316
20
0.211619
11
0.229608
21
0.207544
0
LINE
8
BLACK
6
CONTINUOUS
10
0.229608
20
0.207544
11
0.226401
21
0.204337
0
LINE
8
BLACK
6
CONTINUOUS
10
0.226401
20
0.204337
11
0.222326
21
0.202344
0
LINE
8
BLACK
6
CONTINUOUS
10
0.222326
20
0.202344
11
0.218394
21
0.201772
0
LINE
8
BLACK
6
CONTINUOUS
10
0.218394
20
0.201772
11
0.163276
21
0.201772
0
LINE
8
BLACK
6
CONTINUOUS
10
0.163276
20
0.201772
11
0.159344
21
0.202344
0
LINE
8
BLACK
6
CONTINUOUS
10
0.159344
20
0.202344
11
0.155269
21
0.204337
0
LINE
8
BLACK
6
CONTINUOUS
10
0.155269
20
0.204337
11
0.152061
21
0.207544
0
LINE
8
BLACK
6
CONTINUOUS
10
0.152061
20
0.207544
11
0.150069
21
0.211619
0
LINE
8
BLACK
6
CONTINUOUS
10
0.150069
20
0.211619
11
0.149496
21
0.215551
0
LINE
8
BLACK
6
CONTINUOUS
10
0.149496
20
0.215551
11
0.149496
21
0.227362
0
LINE
8
BLACK
6
CONTINUOUS
10
0.149496
20
0.227362
11
0.150069
21
0.231294
0
LINE
8
BLACK
6
CONTINUOUS
10
0.150069
20
0.231294
11
0.152061
21
0.235369
0
LINE
8
BLACK
6
CONTINUOUS
10
0.152061
20
0.235369
11
0.155269
21
0.238577
0
LINE
8
BLACK
6
CONTINUOUS
10
0.155269
20
0.238577
11
0.159344
21
0.240569
0
LINE
8
BLACK
6
CONTINUOUS
10
0.159344
20
0.240569
11
0.163276
21
0.241142
0
LINE
8
BLACK
6
CONTINUOUS
10
0.163276
20
0.241142
11
0.218394
21
0.241142
0
LINE
8
BLACK
6
CONTINUOUS
10
0.218394
20
0.241142
11
0.222326
21
0.240569
0
LINE
8
BLACK
6
CONTINUOUS
10
0.480183
20
0.266299
11
0.484779
21
0.263958
0
LINE
8
BLACK
6
CONTINUOUS
10
0.484779
20
0.263958
11
0.488426
21
0.26031
0
LINE
8
BLACK
6
CONTINUOUS
10
0.488426
20
0.26031
11
0.490768
21
0.255715
0
LINE
8
BLACK
6
CONTINUOUS
10
0.490768
20
0.255715
11
0.491575
21
0.25062
0
LINE
8
BLACK
6
CONTINUOUS
10
0.491575
20
0.25062
11
0.491575
21
0.233396
0
LINE
8
BLACK
6
CONTINUOUS
10
0.491575
20
0.233396
11
0.490768
21
0.228301
0
LINE
8
BLACK
6
CONTINUOUS
10
0.490768
20
0.228301
11
0.488426
21
0.223705
0
LINE
8
BLACK
6
CONTINUOUS
10
0.488426
20
0.223705
11
0.484779
21
0.220058
0
LINE
8
BLACK
6
CONTINUOUS
10
0.484779
20
0.220058
11
0.480183
21
0.217716
0
LINE
8
BLACK
6
CONTINUOUS
10
0.480183
20
0.217716
11
0.475089
21
0.216909
0
LINE
8
BLACK
6
CONTINUOUS
10
0.475089
20
0.216909
11
0.454911
21
0.216909
0
LINE
8
BLACK
6
CONTINUOUS
10
0.454911
20
0.216909
11
0.449817
21
0.217716
0
LINE
8
BLACK
6
CONTINUOUS
10
0.449817
20
0.217716
11
0.445221
21
0.220058
0
LINE
8
BLACK
6
CONTINUOUS
10
0.445221
20
0.220058
11
0.441574
21
0.223705
0
LINE
8
BLACK
6
CONTINUOUS
10
0.441574
20
0.223705
11
0.439232
21
0.228301
0
LINE
8
BLACK
6
CONTINUOUS
10
0.439232
20
0.228301
11
0.438425
21
0.233396
0
LINE
8
BLACK
6
CONTINUOUS
10
0.438425
20
0.233396
11
0.438425
21
0.25062
0
LINE
8
BLACK
6
CONTINUOUS
10
0.438425
20
0.25062
11
0.439232
21
0.255715
0
LINE
8
BLACK
6
CONTINUOUS
10
0.439232
20
0.255715
11
0.441574
21
0.26031
0
LINE
8
BLACK
6
CONTINUOUS
10
0.441574
20
0.26031
11
0.445221
21
0.263958
0
LINE
8
BLACK
6
CONTINUOUS
10
0.445221
20
0.263958
11
0.449817
21
0.266299
0
LINE
8
BLACK
6
CONTINUOUS
10
0.449817
20
0.266299
11
0.454911
21
0.267106
0
LINE
8
BLACK
6
CONTINUOUS
10
0.454911
20
0.267106
11
0.475089
21
0.267106
0
LINE
8
BLACK
6
CONTINUOUS
10
0.475089
20
0.267106
11
0.480183
21
0.266299
0
LINE
8
BLACK
6
CONTINUOUS
10
0.863119
20
0.271831
11
0.869002
21
0.268744
0
LINE
8
BLACK
6
CONTINUOUS
10
0.869002
20
0.268744
11
0.873975
21
0.264338
0
LINE
8
BLACK
6
CONTINUOUS
10
0.873975
20
0.264338
11
0.877749
21
0.25887
0
LINE
8
BLACK
6
CONTINUOUS
10
0.877749
20
0.25887
11
0.880105
21
0.252658
0
LINE
8
BLACK
6
CONTINUOUS
10
0.880105
20
0.252658
11
0.880906
21
0.246063
0
LINE
8
BLACK
6
CONTINUOUS
10
0.880906
20
0.246063
11
0.880105
21
0.239468
0
LINE
8
BLACK
6
CONTINUOUS
10
0.880105
20
0.239468
11
0.877749
21
0.233256
0
LINE
8
BLACK
6
CONTINUOUS
10
0.877749
20
0.233256
11
0.873975
21
0.227788
0
LINE
8
BLACK
6
CONTINUOUS
10
0.873975
20
0.227788
11
0.869002
21
0.223382
0
LINE
8
BLACK
6
CONTINUOUS
10
0.869002
20
0.223382
11
0.863119
21
0.220295
0
LINE
8
BLACK
6
CONTINUOUS
10
0.863119
20
0.220295
11
0.856668
21
0.218705
0
LINE
8
BLACK
6
CONTINUOUS
10
0.856668
20
0.218705
11
0.850025
21
0.218705
0
LINE
8
BLACK
6
CONTINUOUS
10
0.850025
20
0.218705
11
0.843574
21
0.220295
0
LINE
8
BLACK
6
CONTINUOUS
10
0.843574
20
0.220295
11
0.837691
21
0.223382
0
LINE
8
BLACK
6
CONTINUOUS
10
0.837691
20
0.223382
11
0.832718
21
0.227788
0
LINE
8
BLACK
6
CONTINUOUS
10
0.832718
20
0.227788
11
0.828944
21
0.233256
0
LINE
8
BLACK
6
CONTINUOUS
10
0.828944
20
0.233256
11
0.826588
21
0.239468
0
LINE
8
BLACK
6
CONTINUOUS
10
0.826588
20
0.239468
11
0.825787
21
0.246063
0
LINE
8
BLACK
6
CONTINUOUS
10
0.825787
20
0.246063
11
0.826588
21
0.252658
0
LINE
8
BLACK
6
CONTINUOUS
10
0.826588
20
0.252658
11
0.828944
21
0.25887
0
LINE
8
BLACK
6
CONTINUOUS
10
0.828944
20
0.25887
11
0.832718
21
0.264338
0
LINE
8
BLACK
6
CONTINUOUS
10
0.832718
20
0.264338
11
0.837691
21
0.268744
0
LINE
8
BLACK
6
CONTINUOUS
10
0.837691
20
0.268744
11
0.843574
21
0.271831
0
LINE
8
BLACK
6
CONTINUOUS
10
0.843574
20
0.271831
11
0.850025
21
0.273421
0
LINE
8
BLACK
6
CONTINUOUS
10
0.850025
20
0.273421
11
0.856668
21
0.273421
0
LINE
8
BLACK
6
CONTINUOUS
10
0.856668
20
0.273421
11
0.863119
21
0.271831
0
LINE
8
BLACK
6
CONTINUOUS
10
1.06797
20
0.322235
11
1.07053
21
0.320528
0
LINE
8
BLACK
6
CONTINUOUS
10
1.07053
20
0.320528
11
1.07224
21
0.317974
0
LINE
8
BLACK
6
CONTINUOUS
10
1.07224
20
0.317974
11
1.07283
21
0.314961
0
LINE
8
BLACK
6
CONTINUOUS
10
1.07283
20
0.314961
11
1.07283
21
0.287402
0
LINE
8
BLACK
6
CONTINUOUS
10
1.07283
20
0.287402
11
1.07224
21
0.284388
0
LINE
8
BLACK
6
CONTINUOUS
10
1.07224
20
0.284388
11
1.07053
21
0.281834
0
LINE
8
BLACK
6
CONTINUOUS
10
1.07053
20
0.281834
11
1.05872
21
0.270023
0
LINE
8
BLACK
6
CONTINUOUS
10
1.05872
20
0.270023
11
1.05616
21
0.268316
0
LINE
8
BLACK
6
CONTINUOUS
10
1.05616
20
0.268316
11
1.05315
21
0.267717
0
LINE
8
BLACK
6
CONTINUOUS
10
1.05315
20
0.267717
11
1.04626
21
0.267717
0
LINE
8
BLACK
6
CONTINUOUS
10
1.04626
20
0.267717
11
1.04927
21
0.267117
0
LINE
8
BLACK
6
CONTINUOUS
10
1.04927
20
0.267117
11
1.05118
21
0.265842
0
LINE
8
BLACK
6
CONTINUOUS
10
1.05118
20
0.265842
11
1.05309
21
0.267117
0
LINE
8
BLACK
6
CONTINUOUS
10
1.05309
20
0.267117
11
1.0561
21
0.267717
0
LINE
8
BLACK
6
CONTINUOUS
10
1.0561
20
0.267717
11
1.06594
21
0.267717
0
LINE
8
BLACK
6
CONTINUOUS
10
1.06594
20
0.267717
11
1.06896
21
0.267117
0
LINE
8
BLACK
6
CONTINUOUS
10
1.06896
20
0.267117
11
1.07151
21
0.26541
0
LINE
8
BLACK
6
CONTINUOUS
10
1.07151
20
0.26541
11
1.07322
21
0.262856
0
LINE
8
BLACK
6
CONTINUOUS
10
1.07322
20
0.262856
11
1.07382
21
0.259843
0
LINE
8
BLACK
6
CONTINUOUS
10
1.07382
20
0.259843
11
1.07382
21
0.238189
0
LINE
8
BLACK
6
CONTINUOUS
10
1.07382
20
0.238189
11
1.07322
21
0.235176
0
LINE
8
BLACK
6
CONTINUOUS
10
1.07322
20
0.235176
11
1.07151
21
0.232621
0
LINE
8
BLACK
6
CONTINUOUS
10
1.07151
20
0.232621
11
1.06896
21
0.230914
0
LINE
8
BLACK
6
CONTINUOUS
10
1.06896
20
0.230914
11
1.06594
21
0.230315
0
LINE
8
BLACK
6
CONTINUOUS
10
1.06594
20
0.230315
11
1.0561
21
0.230315
0
LINE
8
BLACK
6
CONTINUOUS
10
1.0561
20
0.230315
11
1.05309
21
0.230914
0
LINE
8
BLACK
6
CONTINUOUS
10
1.05309
20
0.230914
11
1.05118
21
0.232189
0
LINE
8
BLACK
6
CONTINUOUS
10
1.05118
20
0.232189
11
1.04927
21
0.230914
0
LINE
8
BLACK
6
CONTINUOUS
10
1.04927
20
0.230914
11
1.04626
21
0.230315
0
LINE
8
BLACK
6
CONTINUOUS
10
1.04626
20
0.230315
11
1.03642
21
0.230315
0
LINE
8
BLACK
6
CONTINUOUS
10
1.03642
20
0.230315
11
1.0334
21
0.230914
0
LINE
8
BLACK
6
CONTINUOUS
10
1.0334
20
0.230914
11
1.0315
21
0.232189
0
LINE
8
BLACK
6
CONTINUOUS
10
1.0315
20
0.232189
11
1.02959
21
0.230914
0
LINE
8
BLACK
6
CONTINUOUS
10
1.02959
20
0.230914
11
1.02657
21
0.230315
0
LINE
8
BLACK
6
CONTINUOUS
10
1.02657
20
0.230315
11
1.01673
21
0.230315
0
LINE
8
BLACK
6
CONTINUOUS
10
1.01673
20
0.230315
11
1.01372
21
0.230914
0
LINE
8
BLACK
6
CONTINUOUS
10
1.01372
20
0.230914
11
1.01181
21
0.232189
0
LINE
8
BLACK
6
CONTINUOUS
10
1.01181
20
0.232189
11
1.0099
21
0.230914
0
LINE
8
BLACK
6
CONTINUOUS
10
1.0099
20
0.230914
11
1.00689
21
0.230315
0
LINE
8
BLACK
6
CONTINUOUS
10
1.00689
20
0.230315
11
0.997047
21
0.230315
0
LINE
8
BLACK
6
CONTINUOUS
10
0.997047
20
0.230315
11
0.994034
21
0.230914
0
LINE
8
BLACK
6
CONTINUOUS
10
0.994034
20
0.230914
11
0.991479
21
0.232621
0
LINE
8
BLACK
6
CONTINUOUS
10
0.991479
20
0.232621
11
0.989773
21
0.235176
0
LINE
8
BLACK
6
CONTINUOUS
10
0.989773
20
0.235176
11
0.989173
21
0.238189
0
LINE
8
BLACK
6
CONTINUOUS
10
0.989173
20
0.238189
11
0.989173
21
0.259843
0
LINE
8
BLACK
6
CONTINUOUS
10
0.989173
20
0.259843
11
0.989773
21
0.262856
0
LINE
8
BLACK
6
CONTINUOUS
10
0.989773
20
0.262856
11
0.991479
21
0.26541
0
LINE
8
BLACK
6
CONTINUOUS
10
0.991479
20
0.26541
11
0.994034
21
0.267117
0
LINE
8
BLACK
6
CONTINUOUS
10
0.994034
20
0.267117
11
0.997047
21
0.267717
0
LINE
8
BLACK
6
CONTINUOUS
10
0.997047
20
0.267717
11
0.998031
21
0.267717
0
LINE
8
BLACK
6
CONTINUOUS
10
0.998031
20
0.267717
11
0.995018
21
0.268316
0
LINE
8
BLACK
6
CONTINUOUS
10
0.995018
20
0.268316
11
0.992464
21
0.270023
0
LINE
8
BLACK
6
CONTINUOUS
10
0.992464
20
0.270023
11
0.990757
21
0.272577
0
LINE
8
BLACK
6
CONTINUOUS
10
0.990757
20
0.272577
11
0.990157
21
0.275591
0
LINE
8
BLACK
6
CONTINUOUS
10
0.990157
20
0.275591
11
0.990157
21
0.314961
0
LINE
8
BLACK
6
CONTINUOUS
10
0.990157
20
0.314961
11
0.990757
21
0.317974
0
LINE
8
BLACK
6
CONTINUOUS
10
0.990757
20
0.317974
11
0.992464
21
0.320528
0
LINE
8
BLACK
6
CONTINUOUS
10
0.992464
20
0.320528
11
0.995018
21
0.322235
0
LINE
8
BLACK
6
CONTINUOUS
10
0.995018
20
0.322235
11
0.998031
21
0.322835
0
LINE
8
BLACK
6
CONTINUOUS
10
0.998031
20
0.322835
11
0.997047
21
0.322835
0
LINE
8
BLACK
6
CONTINUOUS
10
0.997047
20
0.322835
11
0.994034
21
0.323434
0
LINE
8
BLACK
6
CONTINUOUS
10
0.994034
20
0.323434
11
0.991479
21
0.325141
0
LINE
8
BLACK
6
CONTINUOUS
10
0.991479
20
0.325141
11
0.989773
21
0.327695
0
LINE
8
BLACK
6
CONTINUOUS
10
0.989773
20
0.327695
11
0.989173
21
0.330709
0
LINE
8
BLACK
6
CONTINUOUS
10
0.989173
20
0.330709
11
0.989173
21
0.352362
0
LINE
8
BLACK
6
CONTINUOUS
10
0.989173
20
0.352362
11
0.989773
21
0.355375
0
LINE
8
BLACK
6
CONTINUOUS
10
0.989773
20
0.355375
11
0.991479
21
0.35793
0
LINE
8
BLACK
6
CONTINUOUS
10
0.991479
20
0.35793
11
0.994034
21
0.359637
0
LINE
8
BLACK
6
CONTINUOUS
10
0.994034
20
0.359637
11
0.997047
21
0.360236
0
LINE
8
BLACK
6
CONTINUOUS
10
0.997047
20
0.360236
11
1.00689
21
0.360236
0
LINE
8
BLACK
6
CONTINUOUS
10
1.00689
20
0.360236
11
1.0099
21
0.359637
0
LINE
8
BLACK
6
CONTINUOUS
10
1.0099
20
0.359637
11
1.01181
21
0.358362
0
LINE
8
BLACK
6
CONTINUOUS
10
1.01181
20
0.358362
11
1.01372
21
0.359637
0
LINE
8
BLACK
6
CONTINUOUS
10
1.01372
20
0.359637
11
1.01673
21
0.360236
0
LINE
8
BLACK
6
CONTINUOUS
10
1.01673
20
0.360236
11
1.02657
21
0.360236
0
LINE
8
BLACK
6
CONTINUOUS
10
1.02657
20
0.360236
11
1.02959
21
0.359637
0
LINE
8
BLACK
6
CONTINUOUS
10
1.02959
20
0.359637
11
1.0315
21
0.358362
0
LINE
8
BLACK
6
CONTINUOUS
10
1.0315
20
0.358362
11
1.0334
21
0.359637
0
LINE
8
BLACK
6
CONTINUOUS
10
1.0334
20
0.359637
11
1.03642
21
0.360236
0
LINE
8
BLACK
6
CONTINUOUS
10
1.03642
20
0.360236
11
1.04626
21
0.360236
0
LINE
8
BLACK
6
CONTINUOUS
10
1.04626
20
0.360236
11
1.04927
21
0.359637
0
LINE
8
BLACK
6
CONTINUOUS
10
1.04927
20
0.359637
11
1.05118
21
0.358362
0
LINE
8
BLACK
6
CONTINUOUS
10
1.05118
20
0.358362
11
1.05309
21
0.359637
0
LINE
8
BLACK
6
CONTINUOUS
10
1.05309
20
0.359637
11
1.0561
21
0.360236
0
LINE
8
BLACK
6
CONTINUOUS
10
1.0561
20
0.360236
11
1.06594
21
0.360236
0
LINE
8
BLACK
6
CONTINUOUS
10
1.06594
20
0.360236
11
1.06896
21
0.359637
0
LINE
8
BLACK
6
CONTINUOUS
10
1.06896
20
0.359637
11
1.07151
21
0.35793
0
LINE
8
BLACK
6
CONTINUOUS
10
1.07151
20
0.35793
11
1.07322
21
0.355375
0
LINE
8
BLACK
6
CONTINUOUS
10
1.07322
20
0.355375
11
1.07382
21
0.352362
0
LINE
8
BLACK
6
CONTINUOUS
10
1.07382
20
0.352362
11
1.07382
21
0.330709
0
LINE
8
BLACK
6
CONTINUOUS
10
1.07382
20
0.330709
11
1.07322
21
0.327695
0
LINE
8
BLACK
6
CONTINUOUS
10
1.07322
20
0.327695
11
1.07151
21
0.325141
0
LINE
8
BLACK
6
CONTINUOUS
10
1.07151
20
0.325141
11
1.06896
21
0.323434
0
LINE
8
BLACK
6
CONTINUOUS
10
1.06896
20
0.323434
11
1.06594
21
0.322835
0
LINE
8
BLACK
6
CONTINUOUS
10
1.06594
20
0.322835
11
1.06496
21
0.322835
0
LINE
8
BLACK
6
CONTINUOUS
10
1.06496
20
0.322835
11
1.06797
21
0.322235
0
LINE
8
BLACK
6
CONTINUOUS
10
1.0099
20
0.267117
11
1.01181
21
0.265842
0
LINE
8
BLACK
6
CONTINUOUS
10
1.01181
20
0.265842
11
1.01372
21
0.267117
0
LINE
8
BLACK
6
CONTINUOUS
10
1.01372
20
0.267117
11
1.01673
21
0.267717
0
LINE
8
BLACK
6
CONTINUOUS
10
1.01673
20
0.267717
11
1.00689
21
0.267717
0
LINE
8
BLACK
6
CONTINUOUS
10
1.00689
20
0.267717
11
1.0099
21
0.267117
0
LINE
8
BLACK
6
CONTINUOUS
10
1.02959
20
0.267117
11
1.0315
21
0.265842
0
LINE
8
BLACK
6
CONTINUOUS
10
1.0315
20
0.265842
11
1.0334
21
0.267117
0
LINE
8
BLACK
6
CONTINUOUS
10
1.0334
20
0.267117
11
1.03642
21
0.267717
0
LINE
8
BLACK
6
CONTINUOUS
10
1.03642
20
0.267717
11
1.02657
21
0.267717
0
LINE
8
BLACK
6
CONTINUOUS
10
1.02657
20
0.267717
11
1.02959
21
0.267117
0
LINE
8
BLACK
6
CONTINUOUS
10
1.01673
20
0.322835
11
1.01372
21
0.323434
0
LINE
8
BLACK
6
CONTINUOUS
10
1.01372
20
0.323434
11
1.01181
21
0.324709
0
LINE
8
BLACK
6
CONTINUOUS
10
1.01181
20
0.324709
11
1.0099
21
0.323434
0
LINE
8
BLACK
6
CONTINUOUS
10
1.0099
20
0.323434
11
1.00689
21
0.322835
0
LINE
8
BLACK
6
CONTINUOUS
10
1.00689
20
0.322835
11
1.01673
21
0.322835
0
LINE
8
BLACK
6
CONTINUOUS
10
1.03642
20
0.322835
11
1.0334
21
0.323434
0
LINE
8
BLACK
6
CONTINUOUS
10
1.0334
20
0.323434
11
1.0315
21
0.324709
0
LINE
8
BLACK
6
CONTINUOUS
10
1.0315
20
0.324709
11
1.02959
21
0.323434
0
LINE
8
BLACK
6
CONTINUOUS
10
1.02959
20
0.323434
11
1.02657
21
0.322835
0
LINE
8
BLACK
6
CONTINUOUS
10
1.02657
20
0.322835
11
1.03642
21
0.322835
0
LINE
8
BLACK
6
CONTINUOUS
10
1.0561
20
0.322835
11
1.05309
21
0.323434
0
LINE
8
BLACK
6
CONTINUOUS
10
1.05309
20
0.323434
11
1.05118
21
0.324709
0
LINE
8
BLACK
6
CONTINUOUS
10
1.05118
20
0.324709
11
1.04927
21
0.323434
0
LINE
8
BLACK
6
CONTINUOUS
10
1.04927
20
0.323434
11
1.04626
21
0.322835
0
LINE
8
BLACK
6
CONTINUOUS
10
1.04626
20
0.322835
11
1.0561
21
0.322835
0
LINE
8
BLACK
6
CONTINUOUS
10
0.6451
20
0.285424
11
0.647654
21
0.283717
0
LINE
8
BLACK
6
CONTINUOUS
10
0.647654
20
0.283717
11
0.649361
21
0.281163
0
LINE
8
BLACK
6
CONTINUOUS
10
0.649361
20
0.281163
11
0.649961
21
0.27815
0
LINE
8
BLACK
6
CONTINUOUS
10
0.649961
20
0.27815
11
0.649961
21
0.246654
0
LINE
8
BLACK
6
CONTINUOUS
10
0.649961
20
0.246654
11
0.649361
21
0.24364
0
LINE
8
BLACK
6
CONTINUOUS
10
0.649361
20
0.24364
11
0.647654
21
0.241086
0
LINE
8
BLACK
6
CONTINUOUS
10
0.647654
20
0.241086
11
0.6451
21
0.239379
0
LINE
8
BLACK
6
CONTINUOUS
10
0.6451
20
0.239379
11
0.642087
21
0.23878
0
LINE
8
BLACK
6
CONTINUOUS
10
0.642087
20
0.23878
11
0.606654
21
0.23878
0
LINE
8
BLACK
6
CONTINUOUS
10
0.606654
20
0.23878
11
0.60364
21
0.239379
0
LINE
8
BLACK
6
CONTINUOUS
10
0.60364
20
0.239379
11
0.601086
21
0.241086
0
LINE
8
BLACK
6
CONTINUOUS
10
0.601086
20
0.241086
11
0.599379
21
0.24364
0
LINE
8
BLACK
6
CONTINUOUS
10
0.599379
20
0.24364
11
0.59878
21
0.246654
0
LINE
8
BLACK
6
CONTINUOUS
10
0.59878
20
0.246654
11
0.59878
21
0.27815
0
LINE
8
BLACK
6
CONTINUOUS
10
0.59878
20
0.27815
11
0.599379
21
0.281163
0
LINE
8
BLACK
6
CONTINUOUS
10
0.599379
20
0.281163
11
0.601086
21
0.283717
0
LINE
8
BLACK
6
CONTINUOUS
10
0.601086
20
0.283717
11
0.60364
21
0.285424
0
LINE
8
BLACK
6
CONTINUOUS
10
0.60364
20
0.285424
11
0.606654
21
0.286024
0
LINE
8
BLACK
6
CONTINUOUS
10
0.606654
20
0.286024
11
0.642087
21
0.286024
0
LINE
8
BLACK
6
CONTINUOUS
10
0.642087
20
0.286024
11
0.6451
21
0.285424
0
LINE
8
BLACK
6
CONTINUOUS
10
0.222326
20
0.289781
11
0.226401
21
0.287789
0
LINE
8
BLACK
6
CONTINUOUS
10
0.226401
20
0.287789
11
0.229608
21
0.284582
0
LINE
8
BLACK
6
CONTINUOUS
10
0.229608
20
0.284582
11
0.2316
21
0.280507
0
LINE
8
BLACK
6
CONTINUOUS
10
0.2316
20
0.280507
11
0.232173
21
0.276575
0
LINE
8
BLACK
6
CONTINUOUS
10
0.232173
20
0.276575
11
0.232173
21
0.264764
0
LINE
8
BLACK
6
CONTINUOUS
10
0.232173
20
0.264764
11
0.2316
21
0.260832
0
LINE
8
BLACK
6
CONTINUOUS
10
0.2316
20
0.260832
11
0.229608
21
0.256757
0
LINE
8
BLACK
6
CONTINUOUS
10
0.229608
20
0.256757
11
0.226401
21
0.253549
0
LINE
8
BLACK
6
CONTINUOUS
10
0.226401
20
0.253549
11
0.222326
21
0.251557
0
LINE
8
BLACK
6
CONTINUOUS
10
0.222326
20
0.251557
11
0.218394
21
0.250984
0
LINE
8
BLACK
6
CONTINUOUS
10
0.218394
20
0.250984
11
0.163276
21
0.250984
0
LINE
8
BLACK
6
CONTINUOUS
10
0.163276
20
0.250984
11
0.159344
21
0.251557
0
LINE
8
BLACK
6
CONTINUOUS
10
0.159344
20
0.251557
11
0.155269
21
0.253549
0
LINE
8
BLACK
6
CONTINUOUS
10
0.155269
20
0.253549
11
0.152061
21
0.256757
0
LINE
8
BLACK
6
CONTINUOUS
10
0.152061
20
0.256757
11
0.150069
21
0.260832
0
LINE
8
BLACK
6
CONTINUOUS
10
0.150069
20
0.260832
11
0.149496
21
0.264764
0
LINE
8
BLACK
6
CONTINUOUS
10
0.149496
20
0.264764
11
0.149496
21
0.276575
0
LINE
8
BLACK
6
CONTINUOUS
10
0.149496
20
0.276575
11
0.150069
21
0.280507
0
LINE
8
BLACK
6
CONTINUOUS
10
0.150069
20
0.280507
11
0.152061
21
0.284582
0
LINE
8
BLACK
6
CONTINUOUS
10
0.152061
20
0.284582
11
0.155269
21
0.287789
0
LINE
8
BLACK
6
CONTINUOUS
10
0.155269
20
0.287789
11
0.159344
21
0.289781
0
LINE
8
BLACK
6
CONTINUOUS
10
0.159344
20
0.289781
11
0.163276
21
0.290354
0
LINE
8
BLACK
6
CONTINUOUS
10
0.163276
20
0.290354
11
0.218394
21
0.290354
0
LINE
8
BLACK
6
CONTINUOUS
10
0.218394
20
0.290354
11
0.222326
21
0.289781
0
LINE
8
BLACK
6
CONTINUOUS
10
0.333407
20
0.311448
11
0.335961
21
0.309741
0
LINE
8
BLACK
6
CONTINUOUS
10
0.335961
20
0.309741
11
0.337668
21
0.307186
0
LINE
8
BLACK
6
CONTINUOUS
10
0.337668
20
0.307186
11
0.338268
21
0.304173
0
LINE
8
BLACK
6
CONTINUOUS
10
0.338268
20
0.304173
11
0.338268
21
0.262441
0
LINE
8
BLACK
6
CONTINUOUS
10
0.338268
20
0.262441
11
0.337668
21
0.259428
0
LINE
8
BLACK
6
CONTINUOUS
10
0.337668
20
0.259428
11
0.335961
21
0.256873
0
LINE
8
BLACK
6
CONTINUOUS
10
0.335961
20
0.256873
11
0.333407
21
0.255166
0
LINE
8
BLACK
6
CONTINUOUS
10
0.333407
20
0.255166
11
0.330394
21
0.254567
0
LINE
8
BLACK
6
CONTINUOUS
10
0.330394
20
0.254567
11
0.304803
21
0.254567
0
LINE
8
BLACK
6
CONTINUOUS
10
0.304803
20
0.254567
11
0.30179
21
0.255166
0
LINE
8
BLACK
6
CONTINUOUS
10
0.30179
20
0.255166
11
0.299235
21
0.256873
0
LINE
8
BLACK
6
CONTINUOUS
10
0.299235
20
0.256873
11
0.297529
21
0.259428
0
LINE
8
BLACK
6
CONTINUOUS
10
0.297529
20
0.259428
11
0.296929
21
0.262441
0
LINE
8
BLACK
6
CONTINUOUS
10
0.296929
20
0.262441
11
0.296929
21
0.304173
0
LINE
8
BLACK
6
CONTINUOUS
10
0.296929
20
0.304173
11
0.297529
21
0.307186
0
LINE
8
BLACK
6
CONTINUOUS
10
0.297529
20
0.307186
11
0.299235
21
0.309741
0
LINE
8
BLACK
6
CONTINUOUS
10
0.299235
20
0.309741
11
0.30179
21
0.311448
0
LINE
8
BLACK
6
CONTINUOUS
10
0.30179
20
0.311448
11
0.304803
21
0.312047
0
LINE
8
BLACK
6
CONTINUOUS
10
0.304803
20
0.312047
11
0.330394
21
0.312047
0
LINE
8
BLACK
6
CONTINUOUS
10
0.330394
20
0.312047
11
0.333407
21
0.311448
0
LINE
8
BLACK
6
CONTINUOUS
10
0.40821
20
0.311448
11
0.410765
21
0.309741
0
LINE
8
BLACK
6
CONTINUOUS
10
0.410765
20
0.309741
11
0.412471
21
0.307186
0
LINE
8
BLACK
6
CONTINUOUS
10
0.412471
20
0.307186
11
0.413071
21
0.304173
0
LINE
8
BLACK
6
CONTINUOUS
10
0.413071
20
0.304173
11
0.413071
21
0.262441
0
LINE
8
BLACK
6
CONTINUOUS
10
0.413071
20
0.262441
11
0.412471
21
0.259428
0
LINE
8
BLACK
6
CONTINUOUS
10
0.412471
20
0.259428
11
0.410765
21
0.256873
0
LINE
8
BLACK
6
CONTINUOUS
10
0.410765
20
0.256873
11
0.40821
21
0.255166
0
LINE
8
BLACK
6
CONTINUOUS
10
0.40821
20
0.255166
11
0.405197
21
0.254567
0
LINE
8
BLACK
6
CONTINUOUS
10
0.405197
20
0.254567
11
0.379606
21
0.254567
0
LINE
8
BLACK
6
CONTINUOUS
10
0.379606
20
0.254567
11
0.376593
21
0.255166
0
LINE
8
BLACK
6
CONTINUOUS
10
0.376593
20
0.255166
11
0.374039
21
0.256873
0
LINE
8
BLACK
6
CONTINUOUS
10
0.374039
20
0.256873
11
0.372332
21
0.259428
0
LINE
8
BLACK
6
CONTINUOUS
10
0.372332
20
0.259428
11
0.371732
21
0.262441
0
LINE
8
BLACK
6
CONTINUOUS
10
0.371732
20
0.262441
11
0.371732
21
0.304173
0
LINE
8
BLACK
6
CONTINUOUS
10
0.371732
20
0.304173
11
0.372332
21
0.307186
0
LINE
8
BLACK
6
CONTINUOUS
10
0.372332
20
0.307186
11
0.374039
21
0.309741
0
LINE
8
BLACK
6
CONTINUOUS
10
0.374039
20
0.309741
11
0.376593
21
0.311448
0
LINE
8
BLACK
6
CONTINUOUS
10
0.376593
20
0.311448
11
0.379606
21
0.312047
0
LINE
8
BLACK
6
CONTINUOUS
10
0.379606
20
0.312047
11
0.405197
21
0.312047
0
LINE
8
BLACK
6
CONTINUOUS
10
0.405197
20
0.312047
11
0.40821
21
0.311448
0
LINE
8
BLACK
6
CONTINUOUS
10
0.222326
20
0.338994
11
0.226401
21
0.337002
0
LINE
8
BLACK
6
CONTINUOUS
10
0.226401
20
0.337002
11
0.229608
21
0.333794
0
LINE
8
BLACK
6
CONTINUOUS
10
0.229608
20
0.333794
11
0.2316
21
0.329719
0
LINE
8
BLACK
6
CONTINUOUS
10
0.2316
20
0.329719
11
0.232173
21
0.325787
0
LINE
8
BLACK
6
CONTINUOUS
10
0.232173
20
0.325787
11
0.232173
21
0.313976
0
LINE
8
BLACK
6
CONTINUOUS
10
0.232173
20
0.313976
11
0.2316
21
0.310045
0
LINE
8
BLACK
6
CONTINUOUS
10
0.2316
20
0.310045
11
0.229608
21
0.305969
0
LINE
8
BLACK
6
CONTINUOUS
10
0.229608
20
0.305969
11
0.226401
21
0.302762
0
LINE
8
BLACK
6
CONTINUOUS
10
0.226401
20
0.302762
11
0.222326
21
0.30077
0
LINE
8
BLACK
6
CONTINUOUS
10
0.222326
20
0.30077
11
0.218394
21
0.300197
0
LINE
8
BLACK
6
CONTINUOUS
10
0.218394
20
0.300197
11
0.163276
21
0.300197
0
LINE
8
BLACK
6
CONTINUOUS
10
0.163276
20
0.300197
11
0.159344
21
0.30077
0
LINE
8
BLACK
6
CONTINUOUS
10
0.159344
20
0.30077
11
0.155269
21
0.302762
0
LINE
8
BLACK
6
CONTINUOUS
10
0.155269
20
0.302762
11
0.152061
21
0.305969
0
LINE
8
BLACK
6
CONTINUOUS
10
0.152061
20
0.305969
11
0.150069
21
0.310045
0
LINE
8
BLACK
6
CONTINUOUS
10
0.150069
20
0.310045
11
0.149496
21
0.313976
0
LINE
8
BLACK
6
CONTINUOUS
10
0.149496
20
0.313976
11
0.149496
21
0.325787
0
LINE
8
BLACK
6
CONTINUOUS
10
0.149496
20
0.325787
11
0.150069
21
0.329719
0
LINE
8
BLACK
6
CONTINUOUS
10
0.150069
20
0.329719
11
0.152061
21
0.333794
0
LINE
8
BLACK
6
CONTINUOUS
10
0.152061
20
0.333794
11
0.155269
21
0.337002
0
LINE
8
BLACK
6
CONTINUOUS
10
0.155269
20
0.337002
11
0.159344
21
0.338994
0
LINE
8
BLACK
6
CONTINUOUS
10
0.159344
20
0.338994
11
0.163276
21
0.339567
0
LINE
8
BLACK
6
CONTINUOUS
10
0.163276
20
0.339567
11
0.218394
21
0.339567
0
LINE
8
BLACK
6
CONTINUOUS
10
0.218394
20
0.339567
11
0.222326
21
0.338994
0
LINE
8
BLACK
6
CONTINUOUS
10
0.863119
20
0.370256
11
0.869002
21
0.367169
0
LINE
8
BLACK
6
CONTINUOUS
10
0.869002
20
0.367169
11
0.873975
21
0.362763
0
LINE
8
BLACK
6
CONTINUOUS
10
0.873975
20
0.362763
11
0.877749
21
0.357296
0
LINE
8
BLACK
6
CONTINUOUS
10
0.877749
20
0.357296
11
0.880105
21
0.351084
0
LINE
8
BLACK
6
CONTINUOUS
10
0.880105
20
0.351084
11
0.880906
21
0.344488
0
LINE
8
BLACK
6
CONTINUOUS
10
0.880906
20
0.344488
11
0.880105
21
0.337893
0
LINE
8
BLACK
6
CONTINUOUS
10
0.880105
20
0.337893
11
0.877749
21
0.331681
0
LINE
8
BLACK
6
CONTINUOUS
10
0.877749
20
0.331681
11
0.873975
21
0.326213
0
LINE
8
BLACK
6
CONTINUOUS
10
0.873975
20
0.326213
11
0.869002
21
0.321808
0
LINE
8
BLACK
6
CONTINUOUS
10
0.869002
20
0.321808
11
0.863119
21
0.31872
0
LINE
8
BLACK
6
CONTINUOUS
10
0.863119
20
0.31872
11
0.856668
21
0.31713
0
LINE
8
BLACK
6
CONTINUOUS
10
0.856668
20
0.31713
11
0.850025
21
0.31713
0
LINE
8
BLACK
6
CONTINUOUS
10
0.850025
20
0.31713
11
0.843574
21
0.31872
0
LINE
8
BLACK
6
CONTINUOUS
10
0.843574
20
0.31872
11
0.837691
21
0.321808
0
LINE
8
BLACK
6
CONTINUOUS
10
0.837691
20
0.321808
11
0.832718
21
0.326213
0
LINE
8
BLACK
6
CONTINUOUS
10
0.832718
20
0.326213
11
0.828944
21
0.331681
0
LINE
8
BLACK
6
CONTINUOUS
10
0.828944
20
0.331681
11
0.826588
21
0.337893
0
LINE
8
BLACK
6
CONTINUOUS
10
0.826588
20
0.337893
11
0.825787
21
0.344488
0
LINE
8
BLACK
6
CONTINUOUS
10
0.825787
20
0.344488
11
0.826588
21
0.351084
0
LINE
8
BLACK
6
CONTINUOUS
10
0.826588
20
0.351084
11
0.828944
21
0.357296
0
LINE
8
BLACK
6
CONTINUOUS
10
0.828944
20
0.357296
11
0.832718
21
0.362763
0
LINE
8
BLACK
6
CONTINUOUS
10
0.832718
20
0.362763
11
0.837691
21
0.367169
0
LINE
8
BLACK
6
CONTINUOUS
10
0.837691
20
0.367169
11
0.843574
21
0.370256
0
LINE
8
BLACK
6
CONTINUOUS
10
0.843574
20
0.370256
11
0.850025
21
0.371846
0
LINE
8
BLACK
6
CONTINUOUS
10
0.850025
20
0.371846
11
0.856668
21
0.371846
0
LINE
8
BLACK
6
CONTINUOUS
10
0.856668
20
0.371846
11
0.863119
21
0.370256
0
LINE
8
BLACK
6
CONTINUOUS
10
0.456537
20
0.377038
11
0.459091
21
0.375332
0
LINE
8
BLACK
6
CONTINUOUS
10
0.459091
20
0.375332
11
0.460798
21
0.372777
0
LINE
8
BLACK
6
CONTINUOUS
10
0.460798
20
0.372777
11
0.461398
21
0.369764
0
LINE
8
BLACK
6
CONTINUOUS
10
0.461398
20
0.369764
11
0.461398
21
0.334764
0
LINE
8
BLACK
6
CONTINUOUS
10
0.461398
20
0.334764
11
0.460798
21
0.331751
0
LINE
8
BLACK
6
CONTINUOUS
10
0.460798
20
0.331751
11
0.459091
21
0.329196
0
LINE
8
BLACK
6
CONTINUOUS
10
0.459091
20
0.329196
11
0.456537
21
0.327489
0
LINE
8
BLACK
6
CONTINUOUS
10
0.456537
20
0.327489
11
0.453524
21
0.32689
0
LINE
8
BLACK
6
CONTINUOUS
10
0.453524
20
0.32689
11
0.398524
21
0.32689
0
LINE
8
BLACK
6
CONTINUOUS
10
0.398524
20
0.32689
11
0.39551
21
0.327489
0
LINE
8
BLACK
6
CONTINUOUS
10
0.39551
20
0.327489
11
0.392956
21
0.329196
0
LINE
8
BLACK
6
CONTINUOUS
10
0.392956
20
0.329196
11
0.391249
21
0.331751
0
LINE
8
BLACK
6
CONTINUOUS
10
0.391249
20
0.331751
11
0.39065
21
0.334764
0
LINE
8
BLACK
6
CONTINUOUS
10
0.39065
20
0.334764
11
0.39065
21
0.369764
0
LINE
8
BLACK
6
CONTINUOUS
10
0.39065
20
0.369764
11
0.391249
21
0.372777
0
LINE
8
BLACK
6
CONTINUOUS
10
0.391249
20
0.372777
11
0.392956
21
0.375332
0
LINE
8
BLACK
6
CONTINUOUS
10
0.392956
20
0.375332
11
0.39551
21
0.377038
0
LINE
8
BLACK
6
CONTINUOUS
10
0.39551
20
0.377038
11
0.398524
21
0.377638
0
LINE
8
BLACK
6
CONTINUOUS
10
0.398524
20
0.377638
11
0.453524
21
0.377638
0
LINE
8
BLACK
6
CONTINUOUS
10
0.453524
20
0.377638
11
0.456537
21
0.377038
0
LINE
8
BLACK
6
CONTINUOUS
10
0.5229
20
0.377146
11
0.527495
21
0.374804
0
LINE
8
BLACK
6
CONTINUOUS
10
0.527495
20
0.374804
11
0.531143
21
0.371157
0
LINE
8
BLACK
6
CONTINUOUS
10
0.531143
20
0.371157
11
0.533484
21
0.366561
0
LINE
8
BLACK
6
CONTINUOUS
10
0.533484
20
0.366561
11
0.534291
21
0.361467
0
LINE
8
BLACK
6
CONTINUOUS
10
0.534291
20
0.361467
11
0.534291
21
0.344242
0
LINE
8
BLACK
6
CONTINUOUS
10
0.534291
20
0.344242
11
0.533484
21
0.339148
0
LINE
8
BLACK
6
CONTINUOUS
10
0.533484
20
0.339148
11
0.531143
21
0.334552
0
LINE
8
BLACK
6
CONTINUOUS
10
0.531143
20
0.334552
11
0.527495
21
0.330904
0
LINE
8
BLACK
6
CONTINUOUS
10
0.527495
20
0.330904
11
0.5229
21
0.328563
0
LINE
8
BLACK
6
CONTINUOUS
10
0.5229
20
0.328563
11
0.517805
21
0.327756
0
LINE
8
BLACK
6
CONTINUOUS
10
0.517805
20
0.327756
11
0.497628
21
0.327756
0
LINE
8
BLACK
6
CONTINUOUS
10
0.497628
20
0.327756
11
0.492533
21
0.328563
0
LINE
8
BLACK
6
CONTINUOUS
10
0.492533
20
0.328563
11
0.487938
21
0.330904
0
LINE
8
BLACK
6
CONTINUOUS
10
0.487938
20
0.330904
11
0.48429
21
0.334552
0
LINE
8
BLACK
6
CONTINUOUS
10
0.48429
20
0.334552
11
0.481949
21
0.339148
0
LINE
8
BLACK
6
CONTINUOUS
10
0.481949
20
0.339148
11
0.481142
21
0.344242
0
LINE
8
BLACK
6
CONTINUOUS
10
0.481142
20
0.344242
11
0.481142
21
0.361467
0
LINE
8
BLACK
6
CONTINUOUS
10
0.481142
20
0.361467
11
0.481949
21
0.366561
0
LINE
8
BLACK
6
CONTINUOUS
10
0.481949
20
0.366561
11
0.48429
21
0.371157
0
LINE
8
BLACK
6
CONTINUOUS
10
0.48429
20
0.371157
11
0.487938
21
0.374804
0
LINE
8
BLACK
6
CONTINUOUS
10
0.487938
20
0.374804
11
0.492533
21
0.377146
0
LINE
8
BLACK
6
CONTINUOUS
10
0.492533
20
0.377146
11
0.497628
21
0.377953
0
LINE
8
BLACK
6
CONTINUOUS
10
0.497628
20
0.377953
11
0.517805
21
0.377953
0
LINE
8
BLACK
6
CONTINUOUS
10
0.517805
20
0.377953
11
0.5229
21
0.377146
0
LINE
8
BLACK
6
CONTINUOUS
10
0.307348
20
0.381083
11
0.311944
21
0.378741
0
LINE
8
BLACK
6
CONTINUOUS
10
0.311944
20
0.378741
11
0.315592
21
0.375094
0
LINE
8
BLACK
6
CONTINUOUS
10
0.315592
20
0.375094
11
0.317933
21
0.370498
0
LINE
8
BLACK
6
CONTINUOUS
10
0.317933
20
0.370498
11
0.31874
21
0.365404
0
LINE
8
BLACK
6
CONTINUOUS
10
0.31874
20
0.365404
11
0.31874
21
0.348179
0
LINE
8
BLACK
6
CONTINUOUS
10
0.31874
20
0.348179
11
0.317933
21
0.343085
0
LINE
8
BLACK
6
CONTINUOUS
10
0.317933
20
0.343085
11
0.315592
21
0.338489
0
LINE
8
BLACK
6
CONTINUOUS
10
0.315592
20
0.338489
11
0.311944
21
0.334841
0
LINE
8
BLACK
6
CONTINUOUS
10
0.311944
20
0.334841
11
0.307348
21
0.3325
0
LINE
8
BLACK
6
CONTINUOUS
10
0.307348
20
0.3325
11
0.302254
21
0.331693
0
LINE
8
BLACK
6
CONTINUOUS
10
0.302254
20
0.331693
11
0.282077
21
0.331693
0
LINE
8
BLACK
6
CONTINUOUS
10
0.282077
20
0.331693
11
0.276982
21
0.3325
0
LINE
8
BLACK
6
CONTINUOUS
10
0.276982
20
0.3325
11
0.272386
21
0.334841
0
LINE
8
BLACK
6
CONTINUOUS
10
0.272386
20
0.334841
11
0.268739
21
0.338489
0
LINE
8
BLACK
6
CONTINUOUS
10
0.268739
20
0.338489
11
0.266397
21
0.343085
0
LINE
8
BLACK
6
CONTINUOUS
10
0.266397
20
0.343085
11
0.265591
21
0.348179
0
LINE
8
BLACK
6
CONTINUOUS
10
0.265591
20
0.348179
11
0.265591
21
0.365404
0
LINE
8
BLACK
6
CONTINUOUS
10
0.265591
20
0.365404
11
0.266397
21
0.370498
0
LINE
8
BLACK
6
CONTINUOUS
10
0.266397
20
0.370498
11
0.268739
21
0.375094
0
LINE
8
BLACK
6
CONTINUOUS
10
0.268739
20
0.375094
11
0.272386
21
0.378741
0
LINE
8
BLACK
6
CONTINUOUS
10
0.272386
20
0.378741
11
0.276982
21
0.381083
0
LINE
8
BLACK
6
CONTINUOUS
10
0.276982
20
0.381083
11
0.282077
21
0.38189
0
LINE
8
BLACK
6
CONTINUOUS
10
0.282077
20
0.38189
11
0.302254
21
0.38189
0
LINE
8
BLACK
6
CONTINUOUS
10
0.302254
20
0.38189
11
0.307348
21
0.381083
0
LINE
8
BLACK
6
CONTINUOUS
10
0.373919
20
0.376369
11
0.376473
21
0.374662
0
LINE
8
BLACK
6
CONTINUOUS
10
0.376473
20
0.374662
11
0.37818
21
0.372108
0
LINE
8
BLACK
6
CONTINUOUS
10
0.37818
20
0.372108
11
0.37878
21
0.369094
0
LINE
8
BLACK
6
CONTINUOUS
10
0.37878
20
0.369094
11
0.37878
21
0.345472
0
LINE
8
BLACK
6
CONTINUOUS
10
0.37878
20
0.345472
11
0.37818
21
0.342459
0
LINE
8
BLACK
6
CONTINUOUS
10
0.37818
20
0.342459
11
0.376473
21
0.339905
0
LINE
8
BLACK
6
CONTINUOUS
10
0.376473
20
0.339905
11
0.373919
21
0.338198
0
LINE
8
BLACK
6
CONTINUOUS
10
0.373919
20
0.338198
11
0.370906
21
0.337598
0
LINE
8
BLACK
6
CONTINUOUS
10
0.370906
20
0.337598
11
0.343346
21
0.337598
0
LINE
8
BLACK
6
CONTINUOUS
10
0.343346
20
0.337598
11
0.340333
21
0.338198
0
LINE
8
BLACK
6
CONTINUOUS
10
0.340333
20
0.338198
11
0.337779
21
0.339905
0
LINE
8
BLACK
6
CONTINUOUS
10
0.337779
20
0.339905
11
0.336072
21
0.342459
0
LINE
8
BLACK
6
CONTINUOUS
10
0.336072
20
0.342459
11
0.335472
21
0.345472
0
LINE
8
BLACK
6
CONTINUOUS
10
0.335472
20
0.345472
11
0.335472
21
0.369094
0
LINE
8
BLACK
6
CONTINUOUS
10
0.335472
20
0.369094
11
0.336072
21
0.372108
0
LINE
8
BLACK
6
CONTINUOUS
10
0.336072
20
0.372108
11
0.337779
21
0.374662
0
LINE
8
BLACK
6
CONTINUOUS
10
0.337779
20
0.374662
11
0.340333
21
0.376369
0
LINE
8
BLACK
6
CONTINUOUS
10
0.340333
20
0.376369
11
0.343346
21
0.376969
0
LINE
8
BLACK
6
CONTINUOUS
10
0.343346
20
0.376969
11
0.370906
21
0.376969
0
LINE
8
BLACK
6
CONTINUOUS
10
0.370906
20
0.376969
11
0.373919
21
0.376369
0
LINE
8
BLACK
6
CONTINUOUS
10
0.625183
20
0.397284
11
0.629779
21
0.394942
0
LINE
8
BLACK
6
CONTINUOUS
10
0.629779
20
0.394942
11
0.633426
21
0.391295
0
LINE
8
BLACK
6
CONTINUOUS
10
0.633426
20
0.391295
11
0.635768
21
0.386699
0
LINE
8
BLACK
6
CONTINUOUS
10
0.635768
20
0.386699
11
0.636575
21
0.381604
0
LINE
8
BLACK
6
CONTINUOUS
10
0.636575
20
0.381604
11
0.636575
21
0.36438
0
LINE
8
BLACK
6
CONTINUOUS
10
0.636575
20
0.36438
11
0.635768
21
0.359285
0
LINE
8
BLACK
6
CONTINUOUS
10
0.635768
20
0.359285
11
0.633426
21
0.35469
0
LINE
8
BLACK
6
CONTINUOUS
10
0.633426
20
0.35469
11
0.629779
21
0.351042
0
LINE
8
BLACK
6
CONTINUOUS
10
0.629779
20
0.351042
11
0.625183
21
0.348701
0
LINE
8
BLACK
6
CONTINUOUS
10
0.625183
20
0.348701
11
0.620089
21
0.347894
0
LINE
8
BLACK
6
CONTINUOUS
10
0.620089
20
0.347894
11
0.599911
21
0.347894
0
LINE
8
BLACK
6
CONTINUOUS
10
0.599911
20
0.347894
11
0.594817
21
0.348701
0
LINE
8
BLACK
6
CONTINUOUS
10
0.594817
20
0.348701
11
0.590221
21
0.351042
0
LINE
8
BLACK
6
CONTINUOUS
10
0.590221
20
0.351042
11
0.586574
21
0.35469
0
LINE
8
BLACK
6
CONTINUOUS
10
0.586574
20
0.35469
11
0.584232
21
0.359285
0
LINE
8
BLACK
6
CONTINUOUS
10
0.584232
20
0.359285
11
0.583425
21
0.36438
0
LINE
8
BLACK
6
CONTINUOUS
10
0.583425
20
0.36438
11
0.583425
21
0.381604
0
LINE
8
BLACK
6
CONTINUOUS
10
0.583425
20
0.381604
11
0.584232
21
0.386699
0
LINE
8
BLACK
6
CONTINUOUS
10
0.584232
20
0.386699
11
0.586574
21
0.391295
0
LINE
8
BLACK
6
CONTINUOUS
10
0.586574
20
0.391295
11
0.590221
21
0.394942
0
LINE
8
BLACK
6
CONTINUOUS
10
0.590221
20
0.394942
11
0.594817
21
0.397284
0
LINE
8
BLACK
6
CONTINUOUS
10
0.594817
20
0.397284
11
0.599911
21
0.398091
0
LINE
8
BLACK
6
CONTINUOUS
10
0.599911
20
0.398091
11
0.620089
21
0.398091
0
LINE
8
BLACK
6
CONTINUOUS
10
0.620089
20
0.398091
11
0.625183
21
0.397284
0
LINE
8
BLACK
6
CONTINUOUS
10
0.715183
20
0.398288
11
0.719779
21
0.395946
0
LINE
8
BLACK
6
CONTINUOUS
10
0.719779
20
0.395946
11
0.723426
21
0.392299
0
LINE
8
BLACK
6
CONTINUOUS
10
0.723426
20
0.392299
11
0.725768
21
0.387703
0
LINE
8
BLACK
6
CONTINUOUS
10
0.725768
20
0.387703
11
0.726575
21
0.382608
0
LINE
8
BLACK
6
CONTINUOUS
10
0.726575
20
0.382608
11
0.726575
21
0.365384
0
LINE
8
BLACK
6
CONTINUOUS
10
0.726575
20
0.365384
11
0.725768
21
0.360289
0
LINE
8
BLACK
6
CONTINUOUS
10
0.725768
20
0.360289
11
0.723426
21
0.355694
0
LINE
8
BLACK
6
CONTINUOUS
10
0.723426
20
0.355694
11
0.719779
21
0.352046
0
LINE
8
BLACK
6
CONTINUOUS
10
0.719779
20
0.352046
11
0.715183
21
0.349705
0
LINE
8
BLACK
6
CONTINUOUS
10
0.715183
20
0.349705
11
0.710089
21
0.348898
0
LINE
8
BLACK
6
CONTINUOUS
10
0.710089
20
0.348898
11
0.689911
21
0.348898
0
LINE
8
BLACK
6
CONTINUOUS
10
0.689911
20
0.348898
11
0.684817
21
0.349705
0
LINE
8
BLACK
6
CONTINUOUS
10
0.684817
20
0.349705
11
0.680221
21
0.352046
0
LINE
8
BLACK
6
CONTINUOUS
10
0.680221
20
0.352046
11
0.676574
21
0.355694
0
LINE
8
BLACK
6
CONTINUOUS
10
0.676574
20
0.355694
11
0.674232
21
0.360289
0
LINE
8
BLACK
6
CONTINUOUS
10
0.674232
20
0.360289
11
0.673425
21
0.365384
0
LINE
8
BLACK
6
CONTINUOUS
10
0.673425
20
0.365384
11
0.673425
21
0.382608
0
LINE
8
BLACK
6
CONTINUOUS
10
0.673425
20
0.382608
11
0.674232
21
0.387703
0
LINE
8
BLACK
6
CONTINUOUS
10
0.674232
20
0.387703
11
0.676574
21
0.392299
0
LINE
8
BLACK
6
CONTINUOUS
10
0.676574
20
0.392299
11
0.680221
21
0.395946
0
LINE
8
BLACK
6
CONTINUOUS
10
0.680221
20
0.395946
11
0.684817
21
0.398288
0
LINE
8
BLACK
6
CONTINUOUS
10
0.684817
20
0.398288
11
0.689911
21
0.399094
0
LINE
8
BLACK
6
CONTINUOUS
10
0.689911
20
0.399094
11
0.710089
21
0.399094
0
LINE
8
BLACK
6
CONTINUOUS
10
0.710089
20
0.399094
11
0.715183
21
0.398288
0
LINE
8
BLACK
6
CONTINUOUS
10
0.222326
20
0.388207
11
0.226401
21
0.386214
0
LINE
8
BLACK
6
CONTINUOUS
10
0.226401
20
0.386214
11
0.229608
21
0.383007
0
LINE
8
BLACK
6
CONTINUOUS
10
0.229608
20
0.383007
11
0.2316
21
0.378932
0
LINE
8
BLACK
6
CONTINUOUS
10
0.2316
20
0.378932
11
0.232173
21
0.375
0
LINE
8
BLACK
6
CONTINUOUS
10
0.232173
20
0.375
11
0.232173
21
0.363189
0
LINE
8
BLACK
6
CONTINUOUS
10
0.232173
20
0.363189
11
0.2316
21
0.359257
0
LINE
8
BLACK
6
CONTINUOUS
10
0.2316
20
0.359257
11
0.229608
21
0.355182
0
LINE
8
BLACK
6
CONTINUOUS
10
0.229608
20
0.355182
11
0.226401
21
0.351975
0
LINE
8
BLACK
6
CONTINUOUS
10
0.226401
20
0.351975
11
0.222326
21
0.349982
0
LINE
8
BLACK
6
CONTINUOUS
10
0.222326
20
0.349982
11
0.218394
21
0.349409
0
LINE
8
BLACK
6
CONTINUOUS
10
0.218394
20
0.349409
11
0.163276
21
0.349409
0
LINE
8
BLACK
6
CONTINUOUS
10
0.163276
20
0.349409
11
0.159344
21
0.349982
0
LINE
8
BLACK
6
CONTINUOUS
10
0.159344
20
0.349982
11
0.155269
21
0.351975
0
LINE
8
BLACK
6
CONTINUOUS
10
0.155269
20
0.351975
11
0.152061
21
0.355182
0
LINE
8
BLACK
6
CONTINUOUS
10
0.152061
20
0.355182
11
0.150069
21
0.359257
0
LINE
8
BLACK
6
CONTINUOUS
10
0.150069
20
0.359257
11
0.149496
21
0.363189
0
LINE
8
BLACK
6
CONTINUOUS
10
0.149496
20
0.363189
11
0.149496
21
0.375
0
LINE
8
BLACK
6
CONTINUOUS
10
0.149496
20
0.375
11
0.150069
21
0.378932
0
LINE
8
BLACK
6
CONTINUOUS
10
0.150069
20
0.378932
11
0.152061
21
0.383007
0
LINE
8
BLACK
6
CONTINUOUS
10
0.152061
20
0.383007
11
0.155269
21
0.386214
0
LINE
8
BLACK
6
CONTINUOUS
10
0.155269
20
0.386214
11
0.159344
21
0.388207
0
LINE
8
BLACK
6
CONTINUOUS
10
0.159344
20
0.388207
11
0.163276
21
0.38878
0
LINE
8
BLACK
6
CONTINUOUS
10
0.163276
20
0.38878
11
0.218394
21
0.38878
0
LINE
8
BLACK
6
CONTINUOUS
10
0.218394
20
0.38878
11
0.222326
21
0.388207
0
LINE
8
BLACK
6
CONTINUOUS
10
0.93928
20
0.413575
11
0.943993
21
0.410546
0
LINE
8
BLACK
6
CONTINUOUS
10
0.943993
20
0.410546
11
0.947662
21
0.406312
0
LINE
8
BLACK
6
CONTINUOUS
10
0.947662
20
0.406312
11
0.94999
21
0.401215
0
LINE
8
BLACK
6
CONTINUOUS
10
0.94999
20
0.401215
11
0.950787
21
0.395669
0
LINE
8
BLACK
6
CONTINUOUS
10
0.950787
20
0.395669
11
0.94999
21
0.390123
0
LINE
8
BLACK
6
CONTINUOUS
10
0.94999
20
0.390123
11
0.947662
21
0.385027
0
LINE
8
BLACK
6
CONTINUOUS
10
0.947662
20
0.385027
11
0.943993
21
0.380792
0
LINE
8
BLACK
6
CONTINUOUS
10
0.943993
20
0.380792
11
0.93928
21
0.377763
0
LINE
8
BLACK
6
CONTINUOUS
10
0.93928
20
0.377763
11
0.933904
21
0.376185
0
LINE
8
BLACK
6
CONTINUOUS
10
0.933904
20
0.376185
11
0.928301
21
0.376185
0
LINE
8
BLACK
6
CONTINUOUS
10
0.928301
20
0.376185
11
0.922925
21
0.377763
0
LINE
8
BLACK
6
CONTINUOUS
10
0.922925
20
0.377763
11
0.918211
21
0.380792
0
LINE
8
BLACK
6
CONTINUOUS
10
0.918211
20
0.380792
11
0.914542
21
0.385027
0
LINE
8
BLACK
6
CONTINUOUS
10
0.914542
20
0.385027
11
0.912215
21
0.390123
0
LINE
8
BLACK
6
CONTINUOUS
10
0.912215
20
0.390123
11
0.911417
21
0.395669
0
LINE
8
BLACK
6
CONTINUOUS
10
0.911417
20
0.395669
11
0.912215
21
0.401215
0
LINE
8
BLACK
6
CONTINUOUS
10
0.912215
20
0.401215
11
0.914542
21
0.406312
0
LINE
8
BLACK
6
CONTINUOUS
10
0.914542
20
0.406312
11
0.918211
21
0.410546
0
LINE
8
BLACK
6
CONTINUOUS
10
0.918211
20
0.410546
11
0.922925
21
0.413575
0
LINE
8
BLACK
6
CONTINUOUS
10
0.922925
20
0.413575
11
0.928301
21
0.415154
0
LINE
8
BLACK
6
CONTINUOUS
10
0.928301
20
0.415154
11
0.933904
21
0.415154
0
LINE
8
BLACK
6
CONTINUOUS
10
0.933904
20
0.415154
11
0.93928
21
0.413575
0
LINE
8
BLACK
6
CONTINUOUS
10
1.14007
20
0.413575
11
1.14478
21
0.410546
0
LINE
8
BLACK
6
CONTINUOUS
10
1.14478
20
0.410546
11
1.14845
21
0.406312
0
LINE
8
BLACK
6
CONTINUOUS
10
1.14845
20
0.406312
11
1.15078
21
0.401215
0
LINE
8
BLACK
6
CONTINUOUS
10
1.15078
20
0.401215
11
1.15157
21
0.395669
0
LINE
8
BLACK
6
CONTINUOUS
10
1.15157
20
0.395669
11
1.15078
21
0.390123
0
LINE
8
BLACK
6
CONTINUOUS
10
1.15078
20
0.390123
11
1.14845
21
0.385027
0
LINE
8
BLACK
6
CONTINUOUS
10
1.14845
20
0.385027
11
1.14478
21
0.380792
0
LINE
8
BLACK
6
CONTINUOUS
10
1.14478
20
0.380792
11
1.14007
21
0.377763
0
LINE
8
BLACK
6
CONTINUOUS
10
1.14007
20
0.377763
11
1.13469
21
0.376185
0
LINE
8
BLACK
6
CONTINUOUS
10
1.13469
20
0.376185
11
1.12909
21
0.376185
0
LINE
8
BLACK
6
CONTINUOUS
10
1.12909
20
0.376185
11
1.12371
21
0.377763
0
LINE
8
BLACK
6
CONTINUOUS
10
1.12371
20
0.377763
11
1.119
21
0.380792
0
LINE
8
BLACK
6
CONTINUOUS
10
1.119
20
0.380792
11
1.11533
21
0.385027
0
LINE
8
BLACK
6
CONTINUOUS
10
1.11533
20
0.385027
11
1.113
21
0.390123
0
LINE
8
BLACK
6
CONTINUOUS
10
1.113
20
0.390123
11
1.1122
21
0.395669
0
LINE
8
BLACK
6
CONTINUOUS
10
1.1122
20
0.395669
11
1.113
21
0.401215
0
LINE
8
BLACK
6
CONTINUOUS
10
1.113
20
0.401215
11
1.11533
21
0.406312
0
LINE
8
BLACK
6
CONTINUOUS
10
1.11533
20
0.406312
11
1.119
21
0.410546
0
LINE
8
BLACK
6
CONTINUOUS
10
1.119
20
0.410546
11
1.12371
21
0.413575
0
LINE
8
BLACK
6
CONTINUOUS
10
1.12371
20
0.413575
11
1.12909
21
0.415154
0
LINE
8
BLACK
6
CONTINUOUS
10
1.12909
20
0.415154
11
1.13469
21
0.415154
0
LINE
8
BLACK
6
CONTINUOUS
10
1.13469
20
0.415154
11
1.14007
21
0.413575
0
LINE
8
BLACK
6
CONTINUOUS
10
0.5229
20
0.439154
11
0.527495
21
0.436812
0
LINE
8
BLACK
6
CONTINUOUS
10
0.527495
20
0.436812
11
0.531143
21
0.433165
0
LINE
8
BLACK
6
CONTINUOUS
10
0.531143
20
0.433165
11
0.533484
21
0.428569
0
LINE
8
BLACK
6
CONTINUOUS
10
0.533484
20
0.428569
11
0.534291
21
0.423474
0
LINE
8
BLACK
6
CONTINUOUS
10
0.534291
20
0.423474
11
0.534291
21
0.40625
0
LINE
8
BLACK
6
CONTINUOUS
10
0.534291
20
0.40625
11
0.533484
21
0.401155
0
LINE
8
BLACK
6
CONTINUOUS
10
0.533484
20
0.401155
11
0.531143
21
0.39656
0
LINE
8
BLACK
6
CONTINUOUS
10
0.531143
20
0.39656
11
0.527495
21
0.392912
0
LINE
8
BLACK
6
CONTINUOUS
10
0.527495
20
0.392912
11
0.5229
21
0.390571
0
LINE
8
BLACK
6
CONTINUOUS
10
0.5229
20
0.390571
11
0.517805
21
0.389764
0
LINE
8
BLACK
6
CONTINUOUS
10
0.517805
20
0.389764
11
0.497628
21
0.389764
0
LINE
8
BLACK
6
CONTINUOUS
10
0.497628
20
0.389764
11
0.492533
21
0.390571
0
LINE
8
BLACK
6
CONTINUOUS
10
0.492533
20
0.390571
11
0.487938
21
0.392912
0
LINE
8
BLACK
6
CONTINUOUS
10
0.487938
20
0.392912
11
0.48429
21
0.39656
0
LINE
8
BLACK
6
CONTINUOUS
10
0.48429
20
0.39656
11
0.481949
21
0.401155
0
LINE
8
BLACK
6
CONTINUOUS
10
0.481949
20
0.401155
11
0.481142
21
0.40625
0
LINE
8
BLACK
6
CONTINUOUS
10
0.481142
20
0.40625
11
0.481142
21
0.423474
0
LINE
8
BLACK
6
CONTINUOUS
10
0.481142
20
0.423474
11
0.481949
21
0.428569
0
LINE
8
BLACK
6
CONTINUOUS
10
0.481949
20
0.428569
11
0.48429
21
0.433165
0
LINE
8
BLACK
6
CONTINUOUS
10
0.48429
20
0.433165
11
0.487938
21
0.436812
0
LINE
8
BLACK
6
CONTINUOUS
10
0.487938
20
0.436812
11
0.492533
21
0.439154
0
LINE
8
BLACK
6
CONTINUOUS
10
0.492533
20
0.439154
11
0.497628
21
0.439961
0
LINE
8
BLACK
6
CONTINUOUS
10
0.497628
20
0.439961
11
0.517805
21
0.439961
0
LINE
8
BLACK
6
CONTINUOUS
10
0.517805
20
0.439961
11
0.5229
21
0.439154
0
LINE
8
BLACK
6
CONTINUOUS
10
0.373919
20
0.431487
11
0.376473
21
0.42978
0
LINE
8
BLACK
6
CONTINUOUS
10
0.376473
20
0.42978
11
0.37818
21
0.427226
0
LINE
8
BLACK
6
CONTINUOUS
10
0.37818
20
0.427226
11
0.37878
21
0.424213
0
LINE
8
BLACK
6
CONTINUOUS
10
0.37878
20
0.424213
11
0.37878
21
0.400591
0
LINE
8
BLACK
6
CONTINUOUS
10
0.37878
20
0.400591
11
0.37818
21
0.397577
0
LINE
8
BLACK
6
CONTINUOUS
10
0.37818
20
0.397577
11
0.376473
21
0.395023
0
LINE
8
BLACK
6
CONTINUOUS
10
0.376473
20
0.395023
11
0.373919
21
0.393316
0
LINE
8
BLACK
6
CONTINUOUS
10
0.373919
20
0.393316
11
0.370906
21
0.392717
0
LINE
8
BLACK
6
CONTINUOUS
10
0.370906
20
0.392717
11
0.343346
21
0.392717
0
LINE
8
BLACK
6
CONTINUOUS
10
0.343346
20
0.392717
11
0.340333
21
0.393316
0
LINE
8
BLACK
6
CONTINUOUS
10
0.340333
20
0.393316
11
0.337779
21
0.395023
0
LINE
8
BLACK
6
CONTINUOUS
10
0.337779
20
0.395023
11
0.336072
21
0.397577
0
LINE
8
BLACK
6
CONTINUOUS
10
0.336072
20
0.397577
11
0.335472
21
0.400591
0
LINE
8
BLACK
6
CONTINUOUS
10
0.335472
20
0.400591
11
0.335472
21
0.424213
0
LINE
8
BLACK
6
CONTINUOUS
10
0.335472
20
0.424213
11
0.336072
21
0.427226
0
LINE
8
BLACK
6
CONTINUOUS
10
0.336072
20
0.427226
11
0.337779
21
0.42978
0
LINE
8
BLACK
6
CONTINUOUS
10
0.337779
20
0.42978
11
0.340333
21
0.431487
0
LINE
8
BLACK
6
CONTINUOUS
10
0.340333
20
0.431487
11
0.343346
21
0.432087
0
LINE
8
BLACK
6
CONTINUOUS
10
0.343346
20
0.432087
11
0.370906
21
0.432087
0
LINE
8
BLACK
6
CONTINUOUS
10
0.370906
20
0.432087
11
0.373919
21
0.431487
0
LINE
8
BLACK
6
CONTINUOUS
10
0.307348
20
0.443091
11
0.311944
21
0.440749
0
LINE
8
BLACK
6
CONTINUOUS
10
0.311944
20
0.440749
11
0.315592
21
0.437102
0
LINE
8
BLACK
6
CONTINUOUS
10
0.315592
20
0.437102
11
0.317933
21
0.432506
0
LINE
8
BLACK
6
CONTINUOUS
10
0.317933
20
0.432506
11
0.31874
21
0.427411
0
LINE
8
BLACK
6
CONTINUOUS
10
0.31874
20
0.427411
11
0.31874
21
0.410187
0
LINE
8
BLACK
6
CONTINUOUS
10
0.31874
20
0.410187
11
0.317933
21
0.405092
0
LINE
8
BLACK
6
CONTINUOUS
10
0.317933
20
0.405092
11
0.315592
21
0.400497
0
LINE
8
BLACK
6
CONTINUOUS
10
0.315592
20
0.400497
11
0.311944
21
0.396849
0
LINE
8
BLACK
6
CONTINUOUS
10
0.311944
20
0.396849
11
0.307348
21
0.394508
0
LINE
8
BLACK
6
CONTINUOUS
10
0.307348
20
0.394508
11
0.302254
21
0.393701
0
LINE
8
BLACK
6
CONTINUOUS
10
0.302254
20
0.393701
11
0.282077
21
0.393701
0
LINE
8
BLACK
6
CONTINUOUS
10
0.282077
20
0.393701
11
0.276982
21
0.394508
0
LINE
8
BLACK
6
CONTINUOUS
10
0.276982
20
0.394508
11
0.272386
21
0.396849
0
LINE
8
BLACK
6
CONTINUOUS
10
0.272386
20
0.396849
11
0.268739
21
0.400497
0
LINE
8
BLACK
6
CONTINUOUS
10
0.268739
20
0.400497
11
0.266397
21
0.405092
0
LINE
8
BLACK
6
CONTINUOUS
10
0.266397
20
0.405092
11
0.265591
21
0.410187
0
LINE
8
BLACK
6
CONTINUOUS
10
0.265591
20
0.410187
11
0.265591
21
0.427411
0
LINE
8
BLACK
6
CONTINUOUS
10
0.265591
20
0.427411
11
0.266397
21
0.432506
0
LINE
8
BLACK
6
CONTINUOUS
10
0.266397
20
0.432506
11
0.268739
21
0.437102
0
LINE
8
BLACK
6
CONTINUOUS
10
0.268739
20
0.437102
11
0.272386
21
0.440749
0
LINE
8
BLACK
6
CONTINUOUS
10
0.272386
20
0.440749
11
0.276982
21
0.443091
0
LINE
8
BLACK
6
CONTINUOUS
10
0.276982
20
0.443091
11
0.282077
21
0.443898
0
LINE
8
BLACK
6
CONTINUOUS
10
0.282077
20
0.443898
11
0.302254
21
0.443898
0
LINE
8
BLACK
6
CONTINUOUS
10
0.302254
20
0.443898
11
0.307348
21
0.443091
0
LINE
8
BLACK
6
CONTINUOUS
10
0.863119
20
0.448996
11
0.869002
21
0.445909
0
LINE
8
BLACK
6
CONTINUOUS
10
0.869002
20
0.445909
11
0.873975
21
0.441503
0
LINE
8
BLACK
6
CONTINUOUS
10
0.873975
20
0.441503
11
0.877749
21
0.436036
0
LINE
8
BLACK
6
CONTINUOUS
10
0.877749
20
0.436036
11
0.880105
21
0.429824
0
LINE
8
BLACK
6
CONTINUOUS
10
0.880105
20
0.429824
11
0.880906
21
0.423228
0
LINE
8
BLACK
6
CONTINUOUS
10
0.880906
20
0.423228
11
0.880105
21
0.416633
0
LINE
8
BLACK
6
CONTINUOUS
10
0.880105
20
0.416633
11
0.877749
21
0.410421
0
LINE
8
BLACK
6
CONTINUOUS
10
0.877749
20
0.410421
11
0.873975
21
0.404953
0
LINE
8
BLACK
6
CONTINUOUS
10
0.873975
20
0.404953
11
0.869002
21
0.400548
0
LINE
8
BLACK
6
CONTINUOUS
10
0.869002
20
0.400548
11
0.863119
21
0.39746
0
LINE
8
BLACK
6
CONTINUOUS
10
0.863119
20
0.39746
11
0.856668
21
0.39587
0
LINE
8
BLACK
6
CONTINUOUS
10
0.856668
20
0.39587
11
0.850025
21
0.39587
0
LINE
8
BLACK
6
CONTINUOUS
10
0.850025
20
0.39587
11
0.843574
21
0.39746
0
LINE
8
BLACK
6
CONTINUOUS
10
0.843574
20
0.39746
11
0.837691
21
0.400548
0
LINE
8
BLACK
6
CONTINUOUS
10
0.837691
20
0.400548
11
0.832718
21
0.404953
0
LINE
8
BLACK
6
CONTINUOUS
10
0.832718
20
0.404953
11
0.828944
21
0.410421
0
LINE
8
BLACK
6
CONTINUOUS
10
0.828944
20
0.410421
11
0.826588
21
0.416633
0
LINE
8
BLACK
6
CONTINUOUS
10
0.826588
20
0.416633
11
0.825787
21
0.423228
0
LINE
8
BLACK
6
CONTINUOUS
10
0.825787
20
0.423228
11
0.826588
21
0.429824
0
LINE
8
BLACK
6
CONTINUOUS
10
0.826588
20
0.429824
11
0.828944
21
0.436036
0
LINE
8
BLACK
6
CONTINUOUS
10
0.828944
20
0.436036
11
0.832718
21
0.441503
0
LINE
8
BLACK
6
CONTINUOUS
10
0.832718
20
0.441503
11
0.837691
21
0.445909
0
LINE
8
BLACK
6
CONTINUOUS
10
0.837691
20
0.445909
11
0.843574
21
0.448996
0
LINE
8
BLACK
6
CONTINUOUS
10
0.843574
20
0.448996
11
0.850025
21
0.450586
0
LINE
8
BLACK
6
CONTINUOUS
10
0.850025
20
0.450586
11
0.856668
21
0.450586
0
LINE
8
BLACK
6
CONTINUOUS
10
0.856668
20
0.450586
11
0.863119
21
0.448996
0
LINE
8
BLACK
6
CONTINUOUS
10
0.456537
20
0.452038
11
0.459091
21
0.450332
0
LINE
8
BLACK
6
CONTINUOUS
10
0.459091
20
0.450332
11
0.460798
21
0.447777
0
LINE
8
BLACK
6
CONTINUOUS
10
0.460798
20
0.447777
11
0.461398
21
0.444764
0
LINE
8
BLACK
6
CONTINUOUS
10
0.461398
20
0.444764
11
0.461398
21
0.409764
0
LINE
8
BLACK
6
CONTINUOUS
10
0.461398
20
0.409764
11
0.460798
21
0.406751
0
LINE
8
BLACK
6
CONTINUOUS
10
0.460798
20
0.406751
11
0.459091
21
0.404196
0
LINE
8
BLACK
6
CONTINUOUS
10
0.459091
20
0.404196
11
0.456537
21
0.402489
0
LINE
8
BLACK
6
CONTINUOUS
10
0.456537
20
0.402489
11
0.453524
21
0.40189
0
LINE
8
BLACK
6
CONTINUOUS
10
0.453524
20
0.40189
11
0.398524
21
0.40189
0
LINE
8
BLACK
6
CONTINUOUS
10
0.398524
20
0.40189
11
0.39551
21
0.402489
0
LINE
8
BLACK
6
CONTINUOUS
10
0.39551
20
0.402489
11
0.392956
21
0.404196
0
LINE
8
BLACK
6
CONTINUOUS
10
0.392956
20
0.404196
11
0.391249
21
0.406751
0
LINE
8
BLACK
6
CONTINUOUS
10
0.391249
20
0.406751
11
0.39065
21
0.409764
0
LINE
8
BLACK
6
CONTINUOUS
10
0.39065
20
0.409764
11
0.39065
21
0.444764
0
LINE
8
BLACK
6
CONTINUOUS
10
0.39065
20
0.444764
11
0.391249
21
0.447777
0
LINE
8
BLACK
6
CONTINUOUS
10
0.391249
20
0.447777
11
0.392956
21
0.450332
0
LINE
8
BLACK
6
CONTINUOUS
10
0.392956
20
0.450332
11
0.39551
21
0.452038
0
LINE
8
BLACK
6
CONTINUOUS
10
0.39551
20
0.452038
11
0.398524
21
0.452638
0
LINE
8
BLACK
6
CONTINUOUS
10
0.398524
20
0.452638
11
0.453524
21
0.452638
0
LINE
8
BLACK
6
CONTINUOUS
10
0.453524
20
0.452638
11
0.456537
21
0.452038
0
LINE
8
BLACK
6
CONTINUOUS
10
0.625183
20
0.459292
11
0.629779
21
0.45695
0
LINE
8
BLACK
6
CONTINUOUS
10
0.629779
20
0.45695
11
0.633426
21
0.453303
0
LINE
8
BLACK
6
CONTINUOUS
10
0.633426
20
0.453303
11
0.635768
21
0.448707
0
LINE
8
BLACK
6
CONTINUOUS
10
0.635768
20
0.448707
11
0.636575
21
0.443612
0
LINE
8
BLACK
6
CONTINUOUS
10
0.636575
20
0.443612
11
0.636575
21
0.426388
0
LINE
8
BLACK
6
CONTINUOUS
10
0.636575
20
0.426388
11
0.635768
21
0.421293
0
LINE
8
BLACK
6
CONTINUOUS
10
0.635768
20
0.421293
11
0.633426
21
0.416697
0
LINE
8
BLACK
6
CONTINUOUS
10
0.633426
20
0.416697
11
0.629779
21
0.41305
0
LINE
8
BLACK
6
CONTINUOUS
10
0.629779
20
0.41305
11
0.625183
21
0.410708
0
LINE
8
BLACK
6
CONTINUOUS
10
0.625183
20
0.410708
11
0.620089
21
0.409902
0
LINE
8
BLACK
6
CONTINUOUS
10
0.620089
20
0.409902
11
0.599911
21
0.409902
0
LINE
8
BLACK
6
CONTINUOUS
10
0.599911
20
0.409902
11
0.594817
21
0.410708
0
LINE
8
BLACK
6
CONTINUOUS
10
0.594817
20
0.410708
11
0.590221
21
0.41305
0
LINE
8
BLACK
6
CONTINUOUS
10
0.590221
20
0.41305
11
0.586574
21
0.416697
0
LINE
8
BLACK
6
CONTINUOUS
10
0.586574
20
0.416697
11
0.584232
21
0.421293
0
LINE
8
BLACK
6
CONTINUOUS
10
0.584232
20
0.421293
11
0.583425
21
0.426388
0
LINE
8
BLACK
6
CONTINUOUS
10
0.583425
20
0.426388
11
0.583425
21
0.443612
0
LINE
8
BLACK
6
CONTINUOUS
10
0.583425
20
0.443612
11
0.584232
21
0.448707
0
LINE
8
BLACK
6
CONTINUOUS
10
0.584232
20
0.448707
11
0.586574
21
0.453303
0
LINE
8
BLACK
6
CONTINUOUS
10
0.586574
20
0.453303
11
0.590221
21
0.45695
0
LINE
8
BLACK
6
CONTINUOUS
10
0.590221
20
0.45695
11
0.594817
21
0.459292
0
LINE
8
BLACK
6
CONTINUOUS
10
0.594817
20
0.459292
11
0.599911
21
0.460098
0
LINE
8
BLACK
6
CONTINUOUS
10
0.599911
20
0.460098
11
0.620089
21
0.460098
0
LINE
8
BLACK
6
CONTINUOUS
10
0.620089
20
0.460098
11
0.625183
21
0.459292
0
LINE
8
BLACK
6
CONTINUOUS
10
0.715183
20
0.460295
11
0.719779
21
0.457954
0
LINE
8
BLACK
6
CONTINUOUS
10
0.719779
20
0.457954
11
0.723426
21
0.454306
0
LINE
8
BLACK
6
CONTINUOUS
10
0.723426
20
0.454306
11
0.725768
21
0.449711
0
LINE
8
BLACK
6
CONTINUOUS
10
0.725768
20
0.449711
11
0.726575
21
0.444616
0
LINE
8
BLACK
6
CONTINUOUS
10
0.726575
20
0.444616
11
0.726575
21
0.427392
0
LINE
8
BLACK
6
CONTINUOUS
10
0.726575
20
0.427392
11
0.725768
21
0.422297
0
LINE
8
BLACK
6
CONTINUOUS
10
0.725768
20
0.422297
11
0.723426
21
0.417701
0
LINE
8
BLACK
6
CONTINUOUS
10
0.723426
20
0.417701
11
0.719779
21
0.414054
0
LINE
8
BLACK
6
CONTINUOUS
10
0.719779
20
0.414054
11
0.715183
21
0.411712
0
LINE
8
BLACK
6
CONTINUOUS
10
0.715183
20
0.411712
11
0.710089
21
0.410906
0
LINE
8
BLACK
6
CONTINUOUS
10
0.710089
20
0.410906
11
0.689911
21
0.410906
0
LINE
8
BLACK
6
CONTINUOUS
10
0.689911
20
0.410906
11
0.684817
21
0.411712
0
LINE
8
BLACK
6
CONTINUOUS
10
0.684817
20
0.411712
11
0.680221
21
0.414054
0
LINE
8
BLACK
6
CONTINUOUS
10
0.680221
20
0.414054
11
0.676574
21
0.417701
0
LINE
8
BLACK
6
CONTINUOUS
10
0.676574
20
0.417701
11
0.674232
21
0.422297
0
LINE
8
BLACK
6
CONTINUOUS
10
0.674232
20
0.422297
11
0.673425
21
0.427392
0
LINE
8
BLACK
6
CONTINUOUS
10
0.673425
20
0.427392
11
0.673425
21
0.444616
0
LINE
8
BLACK
6
CONTINUOUS
10
0.673425
20
0.444616
11
0.674232
21
0.449711
0
LINE
8
BLACK
6
CONTINUOUS
10
0.674232
20
0.449711
11
0.676574
21
0.454306
0
LINE
8
BLACK
6
CONTINUOUS
10
0.676574
20
0.454306
11
0.680221
21
0.457954
0
LINE
8
BLACK
6
CONTINUOUS
10
0.680221
20
0.457954
11
0.684817
21
0.460295
0
LINE
8
BLACK
6
CONTINUOUS
10
0.684817
20
0.460295
11
0.689911
21
0.461102
0
LINE
8
BLACK
6
CONTINUOUS
10
0.689911
20
0.461102
11
0.710089
21
0.461102
0
LINE
8
BLACK
6
CONTINUOUS
10
0.710089
20
0.461102
11
0.715183
21
0.460295
0
LINE
8
BLACK
6
CONTINUOUS
10
0.111451
20
0.469179
11
0.116436
21
0.467435
0
LINE
8
BLACK
6
CONTINUOUS
10
0.116436
20
0.467435
11
0.120685
21
0.464299
0
LINE
8
BLACK
6
CONTINUOUS
10
0.120685
20
0.464299
11
0.123821
21
0.46005
0
LINE
8
BLACK
6
CONTINUOUS
10
0.123821
20
0.46005
11
0.125565
21
0.455065
0
LINE
8
BLACK
6
CONTINUOUS
10
0.125565
20
0.455065
11
0.125874
21
0.451772
0
LINE
8
BLACK
6
CONTINUOUS
10
0.125874
20
0.451772
11
0.125874
21
0.432087
0
LINE
8
BLACK
6
CONTINUOUS
10
0.125874
20
0.432087
11
0.125565
21
0.428793
0
LINE
8
BLACK
6
CONTINUOUS
10
0.125565
20
0.428793
11
0.123821
21
0.423808
0
LINE
8
BLACK
6
CONTINUOUS
10
0.123821
20
0.423808
11
0.120685
21
0.419559
0
LINE
8
BLACK
6
CONTINUOUS
10
0.120685
20
0.419559
11
0.116436
21
0.416423
0
LINE
8
BLACK
6
CONTINUOUS
10
0.116436
20
0.416423
11
0.111451
21
0.414679
0
LINE
8
BLACK
6
CONTINUOUS
10
0.111451
20
0.414679
11
0.108157
21
0.41437
0
LINE
8
BLACK
6
CONTINUOUS
10
0.108157
20
0.41437
11
0.0215433
21
0.41437
0
LINE
8
BLACK
6
CONTINUOUS
10
0.0215433
20
0.41437
11
0.0182496
21
0.414679
0
LINE
8
BLACK
6
CONTINUOUS
10
0.0182496
20
0.414679
11
0.0132649
21
0.416423
0
LINE
8
BLACK
6
CONTINUOUS
10
0.0132649
20
0.416423
11
0.00901583
21
0.419559
0
LINE
8
BLACK
6
CONTINUOUS
10
0.00901583
20
0.419559
11
0.00587984
21
0.423808
0
LINE
8
BLACK
6
CONTINUOUS
10
0.00587984
20
0.423808
11
0.00413563
21
0.428793
0
LINE
8
BLACK
6
CONTINUOUS
10
0.00413563
20
0.428793
11
0.00382677
21
0.432087
0
LINE
8
BLACK
6
CONTINUOUS
10
0.00382677
20
0.432087
11
0.00382677
21
0.451772
0
LINE
8
BLACK
6
CONTINUOUS
10
0.00382677
20
0.451772
11
0.00413563
21
0.455065
0
LINE
8
BLACK
6
CONTINUOUS
10
0.00413563
20
0.455065
11
0.00587984
21
0.46005
0
LINE
8
BLACK
6
CONTINUOUS
10
0.00587984
20
0.46005
11
0.00901583
21
0.464299
0
LINE
8
BLACK
6
CONTINUOUS
10
0.00901583
20
0.464299
11
0.0132649
21
0.467435
0
LINE
8
BLACK
6
CONTINUOUS
10
0.0132649
20
0.467435
11
0.0182496
21
0.469179
0
LINE
8
BLACK
6
CONTINUOUS
10
0.0182496
20
0.469179
11
0.0215433
21
0.469488
0
LINE
8
BLACK
6
CONTINUOUS
10
0.0215433
20
0.469488
11
0.108157
21
0.469488
0
LINE
8
BLACK
6
CONTINUOUS
10
0.108157
20
0.469488
11
0.111451
21
0.469179
0
LINE
8
BLACK
6
CONTINUOUS
10
1.0142
20
0.482225
11
1.01879
21
0.479883
0
LINE
8
BLACK
6
CONTINUOUS
10
1.01879
20
0.479883
11
1.02244
21
0.476236
0
LINE
8
BLACK
6
CONTINUOUS
10
1.02244
20
0.476236
11
1.02478
21
0.47164
0
LINE
8
BLACK
6
CONTINUOUS
10
1.02478
20
0.47164
11
1.02559
21
0.466545
0
LINE
8
BLACK
6
CONTINUOUS
10
1.02559
20
0.466545
11
1.02559
21
0.446368
0
LINE
8
BLACK
6
CONTINUOUS
10
1.02559
20
0.446368
11
1.02478
21
0.441274
0
LINE
8
BLACK
6
CONTINUOUS
10
1.02478
20
0.441274
11
1.02244
21
0.436678
0
LINE
8
BLACK
6
CONTINUOUS
10
1.02244
20
0.436678
11
1.01879
21
0.43303
0
LINE
8
BLACK
6
CONTINUOUS
10
1.01879
20
0.43303
11
1.0142
21
0.430689
0
LINE
8
BLACK
6
CONTINUOUS
10
1.0142
20
0.430689
11
1.0091
21
0.429882
0
LINE
8
BLACK
6
CONTINUOUS
10
1.0091
20
0.429882
11
0.99188
21
0.429882
0
LINE
8
BLACK
6
CONTINUOUS
10
0.99188
20
0.429882
11
0.986785
21
0.430689
0
LINE
8
BLACK
6
CONTINUOUS
10
0.986785
20
0.430689
11
0.98219
21
0.43303
0
LINE
8
BLACK
6
CONTINUOUS
10
0.98219
20
0.43303
11
0.978542
21
0.436678
0
LINE
8
BLACK
6
CONTINUOUS
10
0.978542
20
0.436678
11
0.976201
21
0.441274
0
LINE
8
BLACK
6
CONTINUOUS
10
0.976201
20
0.441274
11
0.975394
21
0.446368
0
LINE
8
BLACK
6
CONTINUOUS
10
0.975394
20
0.446368
11
0.975394
21
0.466545
0
LINE
8
BLACK
6
CONTINUOUS
10
0.975394
20
0.466545
11
0.976201
21
0.47164
0
LINE
8
BLACK
6
CONTINUOUS
10
0.976201
20
0.47164
11
0.978542
21
0.476236
0
LINE
8
BLACK
6
CONTINUOUS
10
0.978542
20
0.476236
11
0.98219
21
0.479883
0
LINE
8
BLACK
6
CONTINUOUS
10
0.98219
20
0.479883
11
0.986785
21
0.482225
0
LINE
8
BLACK
6
CONTINUOUS
10
0.986785
20
0.482225
11
0.99188
21
0.483031
0
LINE
8
BLACK
6
CONTINUOUS
10
0.99188
20
0.483031
11
1.0091
21
0.483031
0
LINE
8
BLACK
6
CONTINUOUS
10
1.0091
20
0.483031
11
1.0142
21
0.482225
0
LINE
8
BLACK
6
CONTINUOUS
10
1.07621
20
0.482225
11
1.0808
21
0.479883
0
LINE
8
BLACK
6
CONTINUOUS
10
1.0808
20
0.479883
11
1.08445
21
0.476236
0
LINE
8
BLACK
6
CONTINUOUS
10
1.08445
20
0.476236
11
1.08679
21
0.47164
0
LINE
8
BLACK
6
CONTINUOUS
10
1.08679
20
0.47164
11
1.0876
21
0.466545
0
LINE
8
BLACK
6
CONTINUOUS
10
1.0876
20
0.466545
11
1.0876
21
0.446368
0
LINE
8
BLACK
6
CONTINUOUS
10
1.0876
20
0.446368
11
1.08679
21
0.441274
0
LINE
8
BLACK
6
CONTINUOUS
10
1.08679
20
0.441274
11
1.08445
21
0.436678
0
LINE
8
BLACK
6
CONTINUOUS
10
1.08445
20
0.436678
11
1.0808
21
0.43303
0
LINE
8
BLACK
6
CONTINUOUS
10
1.0808
20
0.43303
11
1.07621
21
0.430689
0
LINE
8
BLACK
6
CONTINUOUS
10
1.07621
20
0.430689
11
1.07111
21
0.429882
0
LINE
8
BLACK
6
CONTINUOUS
10
1.07111
20
0.429882
11
1.05389
21
0.429882
0
LINE
8
BLACK
6
CONTINUOUS
10
1.05389
20
0.429882
11
1.04879
21
0.430689
0
LINE
8
BLACK
6
CONTINUOUS
10
1.04879
20
0.430689
11
1.0442
21
0.43303
0
LINE
8
BLACK
6
CONTINUOUS
10
1.0442
20
0.43303
11
1.04055
21
0.436678
0
LINE
8
BLACK
6
CONTINUOUS
10
1.04055
20
0.436678
11
1.03821
21
0.441274
0
LINE
8
BLACK
6
CONTINUOUS
10
1.03821
20
0.441274
11
1.0374
21
0.446368
0
LINE
8
BLACK
6
CONTINUOUS
10
1.0374
20
0.446368
11
1.0374
21
0.466545
0
LINE
8
BLACK
6
CONTINUOUS
10
1.0374
20
0.466545
11
1.03821
21
0.47164
0
LINE
8
BLACK
6
CONTINUOUS
10
1.03821
20
0.47164
11
1.04055
21
0.476236
0
LINE
8
BLACK
6
CONTINUOUS
10
1.04055
20
0.476236
11
1.0442
21
0.479883
0
LINE
8
BLACK
6
CONTINUOUS
10
1.0442
20
0.479883
11
1.04879
21
0.482225
0
LINE
8
BLACK
6
CONTINUOUS
10
1.04879
20
0.482225
11
1.05389
21
0.483031
0
LINE
8
BLACK
6
CONTINUOUS
10
1.05389
20
0.483031
11
1.07111
21
0.483031
0
LINE
8
BLACK
6
CONTINUOUS
10
1.07111
20
0.483031
11
1.07621
21
0.482225
0
LINE
8
BLACK
6
CONTINUOUS
10
0.908395
20
0.499319
11
0.914277
21
0.496232
0
LINE
8
BLACK
6
CONTINUOUS
10
0.914277
20
0.496232
11
0.91925
21
0.491826
0
LINE
8
BLACK
6
CONTINUOUS
10
0.91925
20
0.491826
11
0.923024
21
0.486359
0
LINE
8
BLACK
6
CONTINUOUS
10
0.923024
20
0.486359
11
0.92538
21
0.480146
0
LINE
8
BLACK
6
CONTINUOUS
10
0.92538
20
0.480146
11
0.926181
21
0.473551
0
LINE
8
BLACK
6
CONTINUOUS
10
0.926181
20
0.473551
11
0.92538
21
0.466956
0
LINE
8
BLACK
6
CONTINUOUS
10
0.92538
20
0.466956
11
0.923024
21
0.460744
0
LINE
8
BLACK
6
CONTINUOUS
10
0.923024
20
0.460744
11
0.91925
21
0.455276
0
LINE
8
BLACK
6
CONTINUOUS
10
0.91925
20
0.455276
11
0.914277
21
0.450871
0
LINE
8
BLACK
6
CONTINUOUS
10
0.914277
20
0.450871
11
0.908395
21
0.447783
0
LINE
8
BLACK
6
CONTINUOUS
10
0.908395
20
0.447783
11
0.901944
21
0.446193
0
LINE
8
BLACK
6
CONTINUOUS
10
0.901944
20
0.446193
11
0.8953
21
0.446193
0
LINE
8
BLACK
6
CONTINUOUS
10
0.8953
20
0.446193
11
0.888849
21
0.447783
0
LINE
8
BLACK
6
CONTINUOUS
10
0.888849
20
0.447783
11
0.882967
21
0.450871
0
LINE
8
BLACK
6
CONTINUOUS
10
0.882967
20
0.450871
11
0.877994
21
0.455276
0
LINE
8
BLACK
6
CONTINUOUS
10
0.877994
20
0.455276
11
0.87422
21
0.460744
0
LINE
8
BLACK
6
CONTINUOUS
10
0.87422
20
0.460744
11
0.871864
21
0.466956
0
LINE
8
BLACK
6
CONTINUOUS
10
0.871864
20
0.466956
11
0.871063
21
0.473551
0
LINE
8
BLACK
6
CONTINUOUS
10
0.871063
20
0.473551
11
0.871864
21
0.480146
0
LINE
8
BLACK
6
CONTINUOUS
10
0.871864
20
0.480146
11
0.87422
21
0.486359
0
LINE
8
BLACK
6
CONTINUOUS
10
0.87422
20
0.486359
11
0.877994
21
0.491826
0
LINE
8
BLACK
6
CONTINUOUS
10
0.877994
20
0.491826
11
0.882967
21
0.496232
0
LINE
8
BLACK
6
CONTINUOUS
10
0.882967
20
0.496232
11
0.888849
21
0.499319
0
LINE
8
BLACK
6
CONTINUOUS
10
0.888849
20
0.499319
11
0.8953
21
0.500909
0
LINE
8
BLACK
6
CONTINUOUS
10
0.8953
20
0.500909
11
0.901944
21
0.500909
0
LINE
8
BLACK
6
CONTINUOUS
10
0.901944
20
0.500909
11
0.908395
21
0.499319
0
LINE
8
BLACK
6
CONTINUOUS
10
0.285943
20
0.548612
11
0.290212
21
0.546525
0
LINE
8
BLACK
6
CONTINUOUS
10
0.290212
20
0.546525
11
0.293573
21
0.543165
0
LINE
8
BLACK
6
CONTINUOUS
10
0.293573
20
0.543165
11
0.29566
21
0.538896
0
LINE
8
BLACK
6
CONTINUOUS
10
0.29566
20
0.538896
11
0.29626
21
0.534777
0
LINE
8
BLACK
6
CONTINUOUS
10
0.29626
20
0.534777
11
0.29626
21
0.488845
0
LINE
8
BLACK
6
CONTINUOUS
10
0.29626
20
0.488845
11
0.29566
21
0.484726
0
LINE
8
BLACK
6
CONTINUOUS
10
0.29566
20
0.484726
11
0.293573
21
0.480457
0
LINE
8
BLACK
6
CONTINUOUS
10
0.293573
20
0.480457
11
0.290212
21
0.477097
0
LINE
8
BLACK
6
CONTINUOUS
10
0.290212
20
0.477097
11
0.285943
21
0.47501
0
LINE
8
BLACK
6
CONTINUOUS
10
0.285943
20
0.47501
11
0.281824
21
0.474409
0
LINE
8
BLACK
6
CONTINUOUS
10
0.281824
20
0.474409
11
0.245735
21
0.474409
0
LINE
8
BLACK
6
CONTINUOUS
10
0.245735
20
0.474409
11
0.241616
21
0.47501
0
LINE
8
BLACK
6
CONTINUOUS
10
0.241616
20
0.47501
11
0.237347
21
0.477097
0
LINE
8
BLACK
6
CONTINUOUS
10
0.237347
20
0.477097
11
0.233986
21
0.480457
0
LINE
8
BLACK
6
CONTINUOUS
10
0.233986
20
0.480457
11
0.231899
21
0.484726
0
LINE
8
BLACK
6
CONTINUOUS
10
0.231899
20
0.484726
11
0.231299
21
0.488845
0
LINE
8
BLACK
6
CONTINUOUS
10
0.231299
20
0.488845
11
0.231299
21
0.534777
0
LINE
8
BLACK
6
CONTINUOUS
10
0.231299
20
0.534777
11
0.231899
21
0.538896
0
LINE
8
BLACK
6
CONTINUOUS
10
0.231899
20
0.538896
11
0.233986
21
0.543165
0
LINE
8
BLACK
6
CONTINUOUS
10
0.233986
20
0.543165
11
0.237347
21
0.546525
0
LINE
8
BLACK
6
CONTINUOUS
10
0.237347
20
0.546525
11
0.241616
21
0.548612
0
LINE
8
BLACK
6
CONTINUOUS
10
0.241616
20
0.548612
11
0.245735
21
0.549213
0
LINE
8
BLACK
6
CONTINUOUS
10
0.245735
20
0.549213
11
0.281824
21
0.549213
0
LINE
8
BLACK
6
CONTINUOUS
10
0.281824
20
0.549213
11
0.285943
21
0.548612
0
LINE
8
BLACK
6
CONTINUOUS
10
0.427675
20
0.548612
11
0.431945
21
0.546525
0
LINE
8
BLACK
6
CONTINUOUS
10
0.431945
20
0.546525
11
0.435305
21
0.543165
0
LINE
8
BLACK
6
CONTINUOUS
10
0.435305
20
0.543165
11
0.437392
21
0.538896
0
LINE
8
BLACK
6
CONTINUOUS
10
0.437392
20
0.538896
11
0.437992
21
0.534777
0
LINE
8
BLACK
6
CONTINUOUS
10
0.437992
20
0.534777
11
0.437992
21
0.488845
0
LINE
8
BLACK
6
CONTINUOUS
10
0.437992
20
0.488845
11
0.437392
21
0.484726
0
LINE
8
BLACK
6
CONTINUOUS
10
0.437392
20
0.484726
11
0.435305
21
0.480457
0
LINE
8
BLACK
6
CONTINUOUS
10
0.435305
20
0.480457
11
0.431945
21
0.477097
0
LINE
8
BLACK
6
CONTINUOUS
10
0.431945
20
0.477097
11
0.427675
21
0.47501
0
LINE
8
BLACK
6
CONTINUOUS
10
0.427675
20
0.47501
11
0.423556
21
0.474409
0
LINE
8
BLACK
6
CONTINUOUS
10
0.423556
20
0.474409
11
0.387467
21
0.474409
0
LINE
8
BLACK
6
CONTINUOUS
10
0.387467
20
0.474409
11
0.383348
21
0.47501
0
LINE
8
BLACK
6
CONTINUOUS
10
0.383348
20
0.47501
11
0.379079
21
0.477097
0
LINE
8
BLACK
6
CONTINUOUS
10
0.379079
20
0.477097
11
0.375719
21
0.480457
0
LINE
8
BLACK
6
CONTINUOUS
10
0.375719
20
0.480457
11
0.373632
21
0.484726
0
LINE
8
BLACK
6
CONTINUOUS
10
0.373632
20
0.484726
11
0.373032
21
0.488845
0
LINE
8
BLACK
6
CONTINUOUS
10
0.373032
20
0.488845
11
0.373031
21
0.534777
0
LINE
8
BLACK
6
CONTINUOUS
10
0.373031
20
0.534777
11
0.373632
21
0.538896
0
LINE
8
BLACK
6
CONTINUOUS
10
0.373632
20
0.538896
11
0.375719
21
0.543165
0
LINE
8
BLACK
6
CONTINUOUS
10
0.375719
20
0.543165
11
0.379079
21
0.546525
0
LINE
8
BLACK
6
CONTINUOUS
10
0.379079
20
0.546525
11
0.383348
21
0.548612
0
LINE
8
BLACK
6
CONTINUOUS
10
0.383348
20
0.548612
11
0.387467
21
0.549213
0
LINE
8
BLACK
6
CONTINUOUS
10
0.387467
20
0.549213
11
0.423556
21
0.549213
0
LINE
8
BLACK
6
CONTINUOUS
10
0.423556
20
0.549213
11
0.427675
21
0.548612
0
LINE
8
BLACK
6
CONTINUOUS
10
0.954773
20
0.542768
11
0.960655
21
0.539681
0
LINE
8
BLACK
6
CONTINUOUS
10
0.960655
20
0.539681
11
0.965628
21
0.535275
0
LINE
8
BLACK
6
CONTINUOUS
10
0.965628
20
0.535275
11
0.969402
21
0.529807
0
LINE
8
BLACK
6
CONTINUOUS
10
0.969402
20
0.529807
11
0.971758
21
0.523595
0
LINE
8
BLACK
6
CONTINUOUS
10
0.971758
20
0.523595
11
0.972559
21
0.517
0
LINE
8
BLACK
6
CONTINUOUS
10
0.972559
20
0.517
11
0.971758
21
0.510405
0
LINE
8
BLACK
6
CONTINUOUS
10
0.971758
20
0.510405
11
0.969402
21
0.504193
0
LINE
8
BLACK
6
CONTINUOUS
10
0.969402
20
0.504193
11
0.965628
21
0.498725
0
LINE
8
BLACK
6
CONTINUOUS
10
0.965628
20
0.498725
11
0.960655
21
0.494319
0
LINE
8
BLACK
6
CONTINUOUS
10
0.960655
20
0.494319
11
0.954773
21
0.491232
0
LINE
8
BLACK
6
CONTINUOUS
10
0.954773
20
0.491232
11
0.948322
21
0.489642
0
LINE
8
BLACK
6
CONTINUOUS
10
0.948322
20
0.489642
11
0.941678
21
0.489642
0
LINE
8
BLACK
6
CONTINUOUS
10
0.941678
20
0.489642
11
0.935227
21
0.491232
0
LINE
8
BLACK
6
CONTINUOUS
10
0.935227
20
0.491232
11
0.929345
21
0.494319
0
LINE
8
BLACK
6
CONTINUOUS
10
0.929345
20
0.494319
11
0.924372
21
0.498725
0
LINE
8
BLACK
6
CONTINUOUS
10
0.924372
20
0.498725
11
0.920598
21
0.504193
0
LINE
8
BLACK
6
CONTINUOUS
10
0.920598
20
0.504193
11
0.918242
21
0.510405
0
LINE
8
BLACK
6
CONTINUOUS
10
0.918242
20
0.510405
11
0.917441
21
0.517
0
LINE
8
BLACK
6
CONTINUOUS
10
0.917441
20
0.517
11
0.918242
21
0.523595
0
LINE
8
BLACK
6
CONTINUOUS
10
0.918242
20
0.523595
11
0.920598
21
0.529807
0
LINE
8
BLACK
6
CONTINUOUS
10
0.920598
20
0.529807
11
0.924372
21
0.535275
0
LINE
8
BLACK
6
CONTINUOUS
10
0.924372
20
0.535275
11
0.929345
21
0.539681
0
LINE
8
BLACK
6
CONTINUOUS
10
0.929345
20
0.539681
11
0.935227
21
0.542768
0
LINE
8
BLACK
6
CONTINUOUS
10
0.935227
20
0.542768
11
0.941678
21
0.544358
0
LINE
8
BLACK
6
CONTINUOUS
10
0.941678
20
0.544358
11
0.948322
21
0.544358
0
LINE
8
BLACK
6
CONTINUOUS
10
0.948322
20
0.544358
11
0.954773
21
0.542768
0
LINE
8
BLACK
6
CONTINUOUS
10
0.112922
20
0.647799
11
0.122147
21
0.644632
0
LINE
8
BLACK
6
CONTINUOUS
10
0.122147
20
0.644632
11
0.130725
21
0.63999
0
LINE
8
BLACK
6
CONTINUOUS
10
0.130725
20
0.63999
11
0.138422
21
0.633999
0
LINE
8
BLACK
6
CONTINUOUS
10
0.138422
20
0.633999
11
0.145028
21
0.626824
0
LINE
8
BLACK
6
CONTINUOUS
10
0.145028
20
0.626824
11
0.150363
21
0.618658
0
LINE
8
BLACK
6
CONTINUOUS
10
0.150363
20
0.618658
11
0.154281
21
0.609726
0
LINE
8
BLACK
6
CONTINUOUS
10
0.154281
20
0.609726
11
0.156675
21
0.600271
0
LINE
8
BLACK
6
CONTINUOUS
10
0.156675
20
0.600271
11
0.15748
21
0.590551
0
LINE
8
BLACK
6
CONTINUOUS
10
0.15748
20
0.590551
11
0.156675
21
0.580831
0
LINE
8
BLACK
6
CONTINUOUS
10
0.156675
20
0.580831
11
0.154281
21
0.571376
0
LINE
8
BLACK
6
CONTINUOUS
10
0.154281
20
0.571376
11
0.150363
21
0.562444
0
LINE
8
BLACK
6
CONTINUOUS
10
0.150363
20
0.562444
11
0.145028
21
0.554279
0
LINE
8
BLACK
6
CONTINUOUS
10
0.145028
20
0.554279
11
0.138422
21
0.547103
0
LINE
8
BLACK
6
CONTINUOUS
10
0.138422
20
0.547103
11
0.130725
21
0.541112
0
LINE
8
BLACK
6
CONTINUOUS
10
0.130725
20
0.541112
11
0.122147
21
0.53647
0
LINE
8
BLACK
6
CONTINUOUS
10
0.122147
20
0.53647
11
0.112922
21
0.533303
0
LINE
8
BLACK
6
CONTINUOUS
10
0.112922
20
0.533303
11
0.103302
21
0.531698
0
LINE
8
BLACK
6
CONTINUOUS
10
0.103302
20
0.531698
11
0.0935485
21
0.531698
0
LINE
8
BLACK
6
CONTINUOUS
10
0.0935485
20
0.531698
11
0.083928
21
0.533303
0
LINE
8
BLACK
6
CONTINUOUS
10
0.083928
20
0.533303
11
0.074703
21
0.53647
0
LINE
8
BLACK
6
CONTINUOUS
10
0.074703
20
0.53647
11
0.0661251
21
0.541112
0
LINE
8
BLACK
6
CONTINUOUS
10
0.0661251
20
0.541112
11
0.0584283
21
0.547103
0
LINE
8
BLACK
6
CONTINUOUS
10
0.0584283
20
0.547103
11
0.0518224
21
0.554279
0
LINE
8
BLACK
6
CONTINUOUS
10
0.0518224
20
0.554279
11
0.0464878
21
0.562444
0
LINE
8
BLACK
6
CONTINUOUS
10
0.0464878
20
0.562444
11
0.0425698
21
0.571376
0
LINE
8
BLACK
6
CONTINUOUS
10
0.0425698
20
0.571376
11
0.0401755
21
0.580831
0
LINE
8
BLACK
6
CONTINUOUS
10
0.0401755
20
0.580831
11
0.0393701
21
0.590551
0
LINE
8
BLACK
6
CONTINUOUS
10
0.0393701
20
0.590551
11
0.0401755
21
0.600271
0
LINE
8
BLACK
6
CONTINUOUS
10
0.0401755
20
0.600271
11
0.0425698
21
0.609726
0
LINE
8
BLACK
6
CONTINUOUS
10
0.0425698
20
0.609726
11
0.0464878
21
0.618658
0
LINE
8
BLACK
6
CONTINUOUS
10
0.0464878
20
0.618658
11
0.0518224
21
0.626824
0
LINE
8
BLACK
6
CONTINUOUS
10
0.0518224
20
0.626824
11
0.0584283
21
0.633999
0
LINE
8
BLACK
6
CONTINUOUS
10
0.0584283
20
0.633999
11
0.0661251
21
0.63999
0
LINE
8
BLACK
6
CONTINUOUS
10
0.0661251
20
0.63999
11
0.074703
21
0.644632
0
LINE
8
BLACK
6
CONTINUOUS
10
0.074703
20
0.644632
11
0.083928
21
0.647799
0
LINE
8
BLACK
6
CONTINUOUS
10
0.083928
20
0.647799
11
0.0935485
21
0.649405
0
LINE
8
BLACK
6
CONTINUOUS
10
0.0935485
20
0.649405
11
0.103302
21
0.649405
0
LINE
8
BLACK
6
CONTINUOUS
10
0.103302
20
0.649405
11
0.112922
21
0.647799
0
LINE
8
BLACK
6
CONTINUOUS
10
0.506623
20
0.647799
11
0.515848
21
0.644632
0
LINE
8
BLACK
6
CONTINUOUS
10
0.515848
20
0.644632
11
0.524426
21
0.63999
0
LINE
8
BLACK
6
CONTINUOUS
10
0.524426
20
0.63999
11
0.532123
21
0.633999
0
LINE
8
BLACK
6
CONTINUOUS
10
0.532123
20
0.633999
11
0.538729
21
0.626824
0
LINE
8
BLACK
6
CONTINUOUS
10
0.538729
20
0.626824
11
0.544063
21
0.618658
0
LINE
8
BLACK
6
CONTINUOUS
10
0.544063
20
0.618658
11
0.547981
21
0.609726
0
LINE
8
BLACK
6
CONTINUOUS
10
0.547981
20
0.609726
11
0.550376
21
0.600271
0
LINE
8
BLACK
6
CONTINUOUS
10
0.550376
20
0.600271
11
0.551181
21
0.590551
0
LINE
8
BLACK
6
CONTINUOUS
10
0.551181
20
0.590551
11
0.550376
21
0.580831
0
LINE
8
BLACK
6
CONTINUOUS
10
0.550376
20
0.580831
11
0.547981
21
0.571376
0
LINE
8
BLACK
6
CONTINUOUS
10
0.547981
20
0.571376
11
0.544063
21
0.562444
0
LINE
8
BLACK
6
CONTINUOUS
10
0.544063
20
0.562444
11
0.538729
21
0.554279
0
LINE
8
BLACK
6
CONTINUOUS
10
0.538729
20
0.554279
11
0.532123
21
0.547103
0
LINE
8
BLACK
6
CONTINUOUS
10
0.532123
20
0.547103
11
0.524426
21
0.541112
0
LINE
8
BLACK
6
CONTINUOUS
10
0.524426
20
0.541112
11
0.515848
21
0.53647
0
LINE
8
BLACK
6
CONTINUOUS
10
0.515848
20
0.53647
11
0.506623
21
0.533303
0
LINE
8
BLACK
6
CONTINUOUS
10
0.506623
20
0.533303
11
0.497003
21
0.531698
0
LINE
8
BLACK
6
CONTINUOUS
10
0.497003
20
0.531698
11
0.487249
21
0.531698
0
LINE
8
BLACK
6
CONTINUOUS
10
0.487249
20
0.531698
11
0.477629
21
0.533303
0
LINE
8
BLACK
6
CONTINUOUS
10
0.477629
20
0.533303
11
0.468404
21
0.53647
0
LINE
8
BLACK
6
CONTINUOUS
10
0.468404
20
0.53647
11
0.459826
21
0.541112
0
LINE
8
BLACK
6
CONTINUOUS
10
0.459826
20
0.541112
11
0.452129
21
0.547103
0
LINE
8
BLACK
6
CONTINUOUS
10
0.452129
20
0.547103
11
0.445523
21
0.554279
0
LINE
8
BLACK
6
CONTINUOUS
10
0.445523
20
0.554279
11
0.440189
21
0.562444
0
LINE
8
BLACK
6
CONTINUOUS
10
0.440189
20
0.562444
11
0.436271
21
0.571376
0
LINE
8
BLACK
6
CONTINUOUS
10
0.436271
20
0.571376
11
0.433876
21
0.580831
0
LINE
8
BLACK
6
CONTINUOUS
10
0.433876
20
0.580831
11
0.433071
21
0.590551
0
LINE
8
BLACK
6
CONTINUOUS
10
0.433071
20
0.590551
11
0.433876
21
0.600271
0
LINE
8
BLACK
6
CONTINUOUS
10
0.433876
20
0.600271
11
0.436271
21
0.609726
0
LINE
8
BLACK
6
CONTINUOUS
10
0.436271
20
0.609726
11
0.440189
21
0.618658
0
LINE
8
BLACK
6
CONTINUOUS
10
0.440189
20
0.618658
11
0.445523
21
0.626824
0
LINE
8
BLACK
6
CONTINUOUS
10
0.445523
20
0.626824
11
0.452129
21
0.633999
0
LINE
8
BLACK
6
CONTINUOUS
10
0.452129
20
0.633999
11
0.459826
21
0.63999
0
LINE
8
BLACK
6
CONTINUOUS
10
0.459826
20
0.63999
11
0.468404
21
0.644632
0
LINE
8
BLACK
6
CONTINUOUS
10
0.468404
20
0.644632
11
0.477629
21
0.647799
0
LINE
8
BLACK
6
CONTINUOUS
10
0.477629
20
0.647799
11
0.487249
21
0.649405
0
LINE
8
BLACK
6
CONTINUOUS
10
0.487249
20
0.649405
11
0.497003
21
0.649405
0
LINE
8
BLACK
6
CONTINUOUS
10
0.497003
20
0.649405
11
0.506623
21
0.647799
0
LINE
8
BLACK
6
CONTINUOUS
10
0.900324
20
0.647799
11
0.909549
21
0.644632
0
LINE
8
BLACK
6
CONTINUOUS
10
0.909549
20
0.644632
11
0.918127
21
0.63999
0
LINE
8
BLACK
6
CONTINUOUS
10
0.918127
20
0.63999
11
0.925824
21
0.633999
0
LINE
8
BLACK
6
CONTINUOUS
10
0.925824
20
0.633999
11
0.93243
21
0.626824
0
LINE
8
BLACK
6
CONTINUOUS
10
0.93243
20
0.626824
11
0.937764
21
0.618658
0
LINE
8
BLACK
6
CONTINUOUS
10
0.937764
20
0.618658
11
0.941682
21
0.609726
0
LINE
8
BLACK
6
CONTINUOUS
10
0.941682
20
0.609726
11
0.944076
21
0.600271
0
LINE
8
BLACK
6
CONTINUOUS
10
0.944076
20
0.600271
11
0.944882
21
0.590551
0
LINE
8
BLACK
6
CONTINUOUS
10
0.944882
20
0.590551
11
0.944076
21
0.580831
0
LINE
8
BLACK
6
CONTINUOUS
10
0.944076
20
0.580831
11
0.941682
21
0.571376
0
LINE
8
BLACK
6
CONTINUOUS
10
0.941682
20
0.571376
11
0.937764
21
0.562444
0
LINE
8
BLACK
6
CONTINUOUS
10
0.937764
20
0.562444
11
0.93243
21
0.554279
0
LINE
8
BLACK
6
CONTINUOUS
10
0.93243
20
0.554279
11
0.925824
21
0.547103
0
LINE
8
BLACK
6
CONTINUOUS
10
0.925824
20
0.547103
11
0.918127
21
0.541112
0
LINE
8
BLACK
6
CONTINUOUS
10
0.918127
20
0.541112
11
0.909549
21
0.53647
0
LINE
8
BLACK
6
CONTINUOUS
10
0.909549
20
0.53647
11
0.900324
21
0.533303
0
LINE
8
BLACK
6
CONTINUOUS
10
0.900324
20
0.533303
11
0.890704
21
0.531698
0
LINE
8
BLACK
6
CONTINUOUS
10
0.890704
20
0.531698
11
0.88095
21
0.531698
0
LINE
8
BLACK
6
CONTINUOUS
10
0.88095
20
0.531698
11
0.87133
21
0.533303
0
LINE
8
BLACK
6
CONTINUOUS
10
0.87133
20
0.533303
11
0.862105
21
0.53647
0
LINE
8
BLACK
6
CONTINUOUS
10
0.862105
20
0.53647
11
0.853527
21
0.541112
0
LINE
8
BLACK
6
CONTINUOUS
10
0.853527
20
0.541112
11
0.84583
21
0.547103
0
LINE
8
BLACK
6
CONTINUOUS
10
0.84583
20
0.547103
11
0.839224
21
0.554279
0
LINE
8
BLACK
6
CONTINUOUS
10
0.839224
20
0.554279
11
0.833889
21
0.562444
0
LINE
8
BLACK
6
CONTINUOUS
10
0.833889
20
0.562444
11
0.829971
21
0.571376
0
LINE
8
BLACK
6
CONTINUOUS
10
0.829971
20
0.571376
11
0.827577
21
0.580831
0
LINE
8
BLACK
6
CONTINUOUS
10
0.827577
20
0.580831
11
0.826772
21
0.590551
0
LINE
8
BLACK
6
CONTINUOUS
10
0.826772
20
0.590551
11
0.827577
21
0.600271
0
LINE
8
BLACK
6
CONTINUOUS
10
0.827577
20
0.600271
11
0.829971
21
0.609726
0
LINE
8
BLACK
6
CONTINUOUS
10
0.829971
20
0.609726
11
0.833889
21
0.618658
0
LINE
8
BLACK
6
CONTINUOUS
10
0.833889
20
0.618658
11
0.839224
21
0.626824
0
LINE
8
BLACK
6
CONTINUOUS
10
0.839224
20
0.626824
11
0.84583
21
0.633999
0
LINE
8
BLACK
6
CONTINUOUS
10
0.84583
20
0.633999
11
0.853527
21
0.63999
0
LINE
8
BLACK
6
CONTINUOUS
10
0.853527
20
0.63999
11
0.862105
21
0.644632
0
LINE
8
BLACK
6
CONTINUOUS
10
0.862105
20
0.644632
11
0.87133
21
0.647799
0
LINE
8
BLACK
6
CONTINUOUS
10
0.87133
20
0.647799
11
0.88095
21
0.649405
0
LINE
8
BLACK
6
CONTINUOUS
10
0.88095
20
0.649405
11
0.890704
21
0.649405
0
LINE
8
BLACK
6
CONTINUOUS
10
0.890704
20
0.649405
11
0.900324
21
0.647799
  0
ENDSEC
  0
EOF
