  0
SECTION
  2
HEADER
  9
$ANGBASE
  50
0.0
  9
$ANGDIR
  70
1
  9
$MEASUREMENT
  70
0
  0
ENDSEC
  0
SECTION
  2
TABLES
  0
TABLE
  2
LTYPE
  70
4
  0
LTYPE
  5
40F
  2
CONTINUOUS
  70
0
  3
Solid line
  72
65
  73
0
  40
0.0
  0
LTYPE
  5
410
  2
DASHDOT
 70
0
  3
Dash Dot ____ _ ____ _
 72
65
 73
4
 40
2.0
 49
1.25
 49
-0.25
 49
0.25
 49
-0.25
  0
LTYPE
  5
411
  2
DASHED
 70
0
  3
Dashed __ __ __ __ __
 72
65
 73
2
 40
0.75
 49
0.5
 49
-0.25
  0
LTYPE
  5
43B
  2
DOTTED
 70
0
  3
Dotted .  .  .  .
 72
65
 73
2
 40
0.2
 49
0.0
 49
-0.2
  0
ENDTAB
  0
TABLE
  2
STYLE
  70
4
  0
STYLE
  2
KICAD
  70
0
  40
0
  41
1
  42
1
  50
0
  71
0
  3
isocp.shx
  0
STYLE
  2
KICADB
  70
0
  40
0
  41
1
  42
1
  50
0
  71
0
  3
isocp.shx
  0
STYLE
  2
KICADI
  70
0
  40
0
  41
1
  42
1
  50
15
  71
0
  3
isocp.shx
  0
STYLE
  2
KICADBI
  70
0
  40
0
  41
1
  42
1
  50
15
  71
0
  3
isocp.shx
  0
ENDTAB
  0
TABLE
  2
LAYER
  70
1
  0
LAYER
  2
BLACK
  70
0
  62
7
  6
CONTINUOUS
  0
ENDTAB
  0
ENDSEC
  0
SECTION
  2
ENTITIES
0
LINE
8
BLACK
6
CONTINUOUS
10
0.2548664173228347
20
0.3849772834645669
11
0.2592564566929134
21
0.3827404330708661
0
LINE
8
BLACK
6
CONTINUOUS
10
0.2592564566929134
20
0.3827404330708661
11
0.2627404330708661
21
0.3792564566929134
0
LINE
8
BLACK
6
CONTINUOUS
10
0.2627404330708661
20
0.3792564566929134
11
0.2649772834645669
21
0.3748664173228347
0
LINE
8
BLACK
6
CONTINUOUS
10
0.2649772834645669
20
0.3748664173228347
11
0.265748031496063
21
0.37
0
LINE
8
BLACK
6
CONTINUOUS
10
0.265748031496063
20
0.37
11
0.2649772834645669
21
0.3651335826771653
0
LINE
8
BLACK
6
CONTINUOUS
10
0.2649772834645669
20
0.3651335826771653
11
0.2627404330708661
21
0.3607435433070866
0
LINE
8
BLACK
6
CONTINUOUS
10
0.2627404330708661
20
0.3607435433070866
11
0.2592564566929134
21
0.3572595669291339
0
LINE
8
BLACK
6
CONTINUOUS
10
0.2592564566929134
20
0.3572595669291339
11
0.2548664173228347
21
0.355022716535433
0
LINE
8
BLACK
6
CONTINUOUS
10
0.2548664173228347
20
0.355022716535433
11
0.25
21
0.354251968503937
0
LINE
8
BLACK
6
CONTINUOUS
10
0.25
20
0.354251968503937
11
0.2451335826771653
21
0.355022716535433
0
LINE
8
BLACK
6
CONTINUOUS
10
0.2451335826771653
20
0.355022716535433
11
0.2407435433070866
21
0.3572595669291339
0
LINE
8
BLACK
6
CONTINUOUS
10
0.2407435433070866
20
0.3572595669291339
11
0.2372595669291339
21
0.3607435433070866
0
LINE
8
BLACK
6
CONTINUOUS
10
0.2372595669291339
20
0.3607435433070866
11
0.2370165748031496
21
0.3612204724409449
0
LINE
8
BLACK
6
CONTINUOUS
10
0.2370165748031496
20
0.3612204724409449
11
0.2239076771653543
21
0.3612204724409449
0
LINE
8
BLACK
6
CONTINUOUS
10
0.2239076771653543
20
0.3612204724409449
11
0.2238496850393701
21
0.3609290157480315
0
LINE
8
BLACK
6
CONTINUOUS
10
0.2238496850393701
20
0.3609290157480315
11
0.2225695275590551
21
0.3590131496062992
0
LINE
8
BLACK
6
CONTINUOUS
10
0.2225695275590551
20
0.3590131496062992
11
0.2206536614173228
21
0.3577329921259843
0
LINE
8
BLACK
6
CONTINUOUS
10
0.2206536614173228
20
0.3577329921259843
11
0.2183937007874016
21
0.3572834645669291
0
LINE
8
BLACK
6
CONTINUOUS
10
0.2183937007874016
20
0.3572834645669291
11
0.1632755905511811
21
0.3572834645669291
0
LINE
8
BLACK
6
CONTINUOUS
10
0.1632755905511811
20
0.3572834645669291
11
0.1610156299212598
21
0.3577329921259843
0
LINE
8
BLACK
6
CONTINUOUS
10
0.1610156299212598
20
0.3577329921259843
11
0.1590997637795276
21
0.3590131496062992
0
LINE
8
BLACK
6
CONTINUOUS
10
0.1590997637795276
20
0.3590131496062992
11
0.1578196062992126
21
0.3609290157480315
0
LINE
8
BLACK
6
CONTINUOUS
10
0.1578196062992126
20
0.3609290157480315
11
0.1575815354330709
21
0.3621259842519685
0
LINE
8
BLACK
6
CONTINUOUS
10
0.1575815354330709
20
0.3621259842519685
11
0.123444842519685
21
0.3621259842519685
0
LINE
8
BLACK
6
CONTINUOUS
10
0.123444842519685
20
0.3621259842519685
11
0.1227404330708661
21
0.3607435433070866
0
LINE
8
BLACK
6
CONTINUOUS
10
0.1227404330708661
20
0.3607435433070866
11
0.1192564566929134
21
0.3572595669291339
0
LINE
8
BLACK
6
CONTINUOUS
10
0.1192564566929134
20
0.3572595669291339
11
0.1148664173228346
21
0.355022716535433
0
LINE
8
BLACK
6
CONTINUOUS
10
0.1148664173228346
20
0.355022716535433
11
0.11
21
0.354251968503937
0
LINE
8
BLACK
6
CONTINUOUS
10
0.11
20
0.354251968503937
11
0.1051335826771654
21
0.355022716535433
0
LINE
8
BLACK
6
CONTINUOUS
10
0.1051335826771654
20
0.355022716535433
11
0.1007435433070866
21
0.3572595669291339
0
LINE
8
BLACK
6
CONTINUOUS
10
0.1007435433070866
20
0.3572595669291339
11
0.0972595669291339
21
0.3607435433070866
0
LINE
8
BLACK
6
CONTINUOUS
10
0.0972595669291339
20
0.3607435433070866
11
0.0950227165354331
21
0.3651335826771653
0
LINE
8
BLACK
6
CONTINUOUS
10
0.0950227165354331
20
0.3651335826771653
11
0.094251968503937
21
0.37
0
LINE
8
BLACK
6
CONTINUOUS
10
0.094251968503937
20
0.37
11
0.0950227165354331
21
0.3748664173228347
0
LINE
8
BLACK
6
CONTINUOUS
10
0.0950227165354331
20
0.3748664173228347
11
0.0972595669291339
21
0.3792564566929134
0
LINE
8
BLACK
6
CONTINUOUS
10
0.0972595669291339
20
0.3792564566929134
11
0.1007435433070866
21
0.3827404330708661
0
LINE
8
BLACK
6
CONTINUOUS
10
0.1007435433070866
20
0.3827404330708661
11
0.1051335826771654
21
0.3849772834645669
0
LINE
8
BLACK
6
CONTINUOUS
10
0.1051335826771654
20
0.3849772834645669
11
0.11
21
0.385748031496063
0
LINE
8
BLACK
6
CONTINUOUS
10
0.11
20
0.385748031496063
11
0.1148664173228346
21
0.3849772834645669
0
LINE
8
BLACK
6
CONTINUOUS
10
0.1148664173228346
20
0.3849772834645669
11
0.1192564566929134
21
0.3827404330708661
0
LINE
8
BLACK
6
CONTINUOUS
10
0.1192564566929134
20
0.3827404330708661
11
0.1227404330708661
21
0.3792564566929134
0
LINE
8
BLACK
6
CONTINUOUS
10
0.1227404330708661
20
0.3792564566929134
11
0.123444842519685
21
0.3778740157480315
0
LINE
8
BLACK
6
CONTINUOUS
10
0.123444842519685
20
0.3778740157480315
11
0.1582299212598425
21
0.3778740157480315
0
LINE
8
BLACK
6
CONTINUOUS
10
0.1582299212598425
20
0.3778740157480315
11
0.1590997637795276
21
0.3791758267716535
0
LINE
8
BLACK
6
CONTINUOUS
10
0.1590997637795276
20
0.3791758267716535
11
0.1610156299212598
21
0.3804559842519685
0
LINE
8
BLACK
6
CONTINUOUS
10
0.1610156299212598
20
0.3804559842519685
11
0.1632755905511811
21
0.3809055118110236
0
LINE
8
BLACK
6
CONTINUOUS
10
0.1632755905511811
20
0.3809055118110236
11
0.2183937007874016
21
0.3809055118110236
0
LINE
8
BLACK
6
CONTINUOUS
10
0.2183937007874016
20
0.3809055118110236
11
0.2206536614173228
21
0.3804559842519685
0
LINE
8
BLACK
6
CONTINUOUS
10
0.2206536614173228
20
0.3804559842519685
11
0.2225695275590551
21
0.3791758267716535
0
LINE
8
BLACK
6
CONTINUOUS
10
0.2225695275590551
20
0.3791758267716535
11
0.2238496850393701
21
0.3772599606299212
0
LINE
8
BLACK
6
CONTINUOUS
10
0.2238496850393701
20
0.3772599606299212
11
0.2239076771653543
21
0.3769685039370079
0
LINE
8
BLACK
6
CONTINUOUS
10
0.2239076771653543
20
0.3769685039370079
11
0.2360937795275591
21
0.3769685039370079
0
LINE
8
BLACK
6
CONTINUOUS
10
0.2360937795275591
20
0.3769685039370079
11
0.2372595669291339
21
0.3792564566929134
0
LINE
8
BLACK
6
CONTINUOUS
10
0.2372595669291339
20
0.3792564566929134
11
0.2407435433070866
21
0.3827404330708661
0
LINE
8
BLACK
6
CONTINUOUS
10
0.2407435433070866
20
0.3827404330708661
11
0.2451335826771653
21
0.3849772834645669
0
LINE
8
BLACK
6
CONTINUOUS
10
0.2451335826771653
20
0.3849772834645669
11
0.25
21
0.385748031496063
0
LINE
8
BLACK
6
CONTINUOUS
10
0.25
20
0.385748031496063
11
0.2548664173228347
21
0.3849772834645669
0
LINE
8
BLACK
6
CONTINUOUS
10
0.0342357086614173
20
0.5699931496062992
11
0.0348672440944882
21
0.5690479527559055
0
LINE
8
BLACK
6
CONTINUOUS
10
0.0348672440944882
20
0.5690479527559055
11
0.0348932677165354
21
0.5689851181102362
0
LINE
8
BLACK
6
CONTINUOUS
10
0.0348932677165354
20
0.5689851181102362
11
0.0348933070866142
21
0.568985
0
LINE
8
BLACK
6
CONTINUOUS
10
0.0348933070866142
20
0.568985
11
0.0363324015748031
21
0.5655106692913385
0
LINE
8
BLACK
6
CONTINUOUS
10
0.0363324015748031
20
0.5655106692913385
11
0.0382516141732283
21
0.5608772834645669
0
LINE
8
BLACK
6
CONTINUOUS
10
0.0382516141732283
20
0.5608772834645669
11
0.0382517322834646
21
0.560876968503937
0
LINE
8
BLACK
6
CONTINUOUS
10
0.0382517322834646
20
0.560876968503937
11
0.0426397244094488
21
0.5532767716535433
0
LINE
8
BLACK
6
CONTINUOUS
10
0.0426397244094488
20
0.5532767716535433
11
0.0426398818897638
21
0.5532765354330709
0
LINE
8
BLACK
6
CONTINUOUS
10
0.0426398818897638
20
0.5532765354330709
11
0.0479821653543307
21
0.5463142519685039
0
LINE
8
BLACK
6
CONTINUOUS
10
0.0479821653543307
20
0.5463142519685039
11
0.0541882283464567
21
0.5401081889763779
0
LINE
8
BLACK
6
CONTINUOUS
10
0.0541882283464567
20
0.5401081889763779
11
0.0603066929133858
21
0.5354133858267717
0
LINE
8
BLACK
6
CONTINUOUS
10
0.0603066929133858
20
0.5354133858267717
11
0.0611506299212598
21
0.5347658267716535
0
LINE
8
BLACK
6
CONTINUOUS
10
0.0611506299212598
20
0.5347658267716535
11
0.0687509448818898
21
0.5303777559055118
0
LINE
8
BLACK
6
CONTINUOUS
10
0.0687509448818898
20
0.5303777559055118
11
0.0768590157480315
21
0.5270192913385827
0
LINE
8
BLACK
6
CONTINUOUS
10
0.0768590157480315
20
0.5270192913385827
11
0.0853361023622047
21
0.5247478740157481
0
LINE
8
BLACK
6
CONTINUOUS
10
0.0853361023622047
20
0.5247478740157481
11
0.094037125984252
21
0.5236023622047244
0
LINE
8
BLACK
6
CONTINUOUS
10
0.094037125984252
20
0.5236023622047244
11
0.0940372047244094
21
0.5236023622047244
0
LINE
8
BLACK
6
CONTINUOUS
10
0.0940372047244094
20
0.5236023622047244
11
0.102813188976378
21
0.5236023622047244
0
LINE
8
BLACK
6
CONTINUOUS
10
0.102813188976378
20
0.5236023622047244
11
0.1028132677165354
21
0.5236023622047244
0
LINE
8
BLACK
6
CONTINUOUS
10
0.1028132677165354
20
0.5236023622047244
11
0.1115142913385827
21
0.5247478740157481
0
LINE
8
BLACK
6
CONTINUOUS
10
0.1115142913385827
20
0.5247478740157481
11
0.1199913779527559
21
0.5270192913385827
0
LINE
8
BLACK
6
CONTINUOUS
10
0.1199913779527559
20
0.5270192913385827
11
0.1280994488188976
21
0.5303777559055118
0
LINE
8
BLACK
6
CONTINUOUS
10
0.1280994488188976
20
0.5303777559055118
11
0.1356997637795276
21
0.5347658267716535
0
LINE
8
BLACK
6
CONTINUOUS
10
0.1356997637795276
20
0.5347658267716535
11
0.1413249212598425
21
0.539082125984252
0
LINE
8
BLACK
6
CONTINUOUS
10
0.1413249212598425
20
0.539082125984252
11
0.142662125984252
21
0.5401081889763779
0
LINE
8
BLACK
6
CONTINUOUS
10
0.142662125984252
20
0.5401081889763779
11
0.1426621653543307
21
0.5401082677165354
0
LINE
8
BLACK
6
CONTINUOUS
10
0.1426621653543307
20
0.5401082677165354
11
0.1426623622047244
21
0.5401083858267717
0
LINE
8
BLACK
6
CONTINUOUS
10
0.1426623622047244
20
0.5401083858267717
11
0.1488679921259843
21
0.5463140157480315
0
LINE
8
BLACK
6
CONTINUOUS
10
0.1488679921259843
20
0.5463140157480315
11
0.1505934645669291
21
0.5485626771653543
0
LINE
8
BLACK
6
CONTINUOUS
10
0.1505934645669291
20
0.5485626771653543
11
0.1542104724409449
21
0.5532765354330709
0
LINE
8
BLACK
6
CONTINUOUS
10
0.1542104724409449
20
0.5532765354330709
11
0.1542105511811024
21
0.5532766141732284
0
LINE
8
BLACK
6
CONTINUOUS
10
0.1542105511811024
20
0.5532766141732284
11
0.1585986220472441
21
0.5608769291338582
0
LINE
8
BLACK
6
CONTINUOUS
10
0.1585986220472441
20
0.5608769291338582
11
0.1619570866141732
21
0.568985
0
LINE
8
BLACK
6
CONTINUOUS
10
0.1619570866141732
20
0.568985
11
0.1619570866141732
21
0.5689851181102362
0
LINE
8
BLACK
6
CONTINUOUS
10
0.1619570866141732
20
0.5689851181102362
11
0.1619831496062992
21
0.5690479527559055
0
LINE
8
BLACK
6
CONTINUOUS
10
0.1619831496062992
20
0.5690479527559055
11
0.163559842519685
21
0.57062468503937
0
LINE
8
BLACK
6
CONTINUOUS
10
0.163559842519685
20
0.57062468503937
11
0.1646747637795276
21
0.5708464566929133
0
LINE
8
BLACK
6
CONTINUOUS
10
0.1646747637795276
20
0.5708464566929133
11
0.2839263385826772
21
0.5708464566929133
0
LINE
8
BLACK
6
CONTINUOUS
10
0.2839263385826772
20
0.5708464566929133
11
0.2859864173228346
21
0.5699931496062992
0
LINE
8
BLACK
6
CONTINUOUS
10
0.2859864173228346
20
0.5699931496062992
11
0.2868397244094488
21
0.5679330708661418
0
LINE
8
BLACK
6
CONTINUOUS
10
0.2868397244094488
20
0.5679330708661418
11
0.2859864173228346
21
0.5658729921259842
0
LINE
8
BLACK
6
CONTINUOUS
10
0.2859864173228346
20
0.5658729921259842
11
0.2855449212598425
21
0.5655106692913385
0
LINE
8
BLACK
6
CONTINUOUS
10
0.2855449212598425
20
0.5655106692913385
11
0.2830594881889764
21
0.56385
0
LINE
8
BLACK
6
CONTINUOUS
10
0.2830594881889764
20
0.56385
11
0.2830594488188976
21
0.5638499212598425
0
LINE
8
BLACK
6
CONTINUOUS
10
0.2830594488188976
20
0.5638499212598425
11
0.2786697637795276
21
0.5594602362204725
0
LINE
8
BLACK
6
CONTINUOUS
10
0.2786697637795276
20
0.5594602362204725
11
0.2786696850393701
21
0.5594601968503937
0
LINE
8
BLACK
6
CONTINUOUS
10
0.2786696850393701
20
0.5594601968503937
11
0.2752205905511811
21
0.5542982283464567
0
LINE
8
BLACK
6
CONTINUOUS
10
0.2752205905511811
20
0.5542982283464567
11
0.2728450393700788
21
0.5485630708661418
0
LINE
8
BLACK
6
CONTINUOUS
10
0.2728450393700788
20
0.5485630708661418
11
0.2728449212598425
21
0.5485626771653543
0
LINE
8
BLACK
6
CONTINUOUS
10
0.2728449212598425
20
0.5485626771653543
11
0.2716338582677165
21
0.5424740551181102
0
LINE
8
BLACK
6
CONTINUOUS
10
0.2716338582677165
20
0.5424740551181102
11
0.2716338582677165
21
0.481148031496063
0
LINE
8
BLACK
6
CONTINUOUS
10
0.2716338582677165
20
0.481148031496063
11
0.2728449212598425
21
0.4750594094488189
0
LINE
8
BLACK
6
CONTINUOUS
10
0.2728449212598425
20
0.4750594094488189
11
0.2728450393700788
21
0.4750590157480315
0
LINE
8
BLACK
6
CONTINUOUS
10
0.2728450393700788
20
0.4750590157480315
11
0.2752205905511811
21
0.4693238582677165
0
LINE
8
BLACK
6
CONTINUOUS
10
0.2752205905511811
20
0.4693238582677165
11
0.2752206692913386
21
0.4693237401574803
0
LINE
8
BLACK
6
CONTINUOUS
10
0.2752206692913386
20
0.4693237401574803
11
0.2752207086614173
21
0.4693236614173228
0
LINE
8
BLACK
6
CONTINUOUS
10
0.2752207086614173
20
0.4693236614173228
11
0.2786697244094488
21
0.4641618503937008
0
LINE
8
BLACK
6
CONTINUOUS
10
0.2786697244094488
20
0.4641618503937008
11
0.2830594881889764
21
0.4597720866141732
0
LINE
8
BLACK
6
CONTINUOUS
10
0.2830594881889764
20
0.4597720866141732
11
0.2882212992125984
21
0.4563230708661417
0
LINE
8
BLACK
6
CONTINUOUS
10
0.2882212992125984
20
0.4563230708661417
11
0.2882214960629921
21
0.4563229921259843
0
LINE
8
BLACK
6
CONTINUOUS
10
0.2882214960629921
20
0.4563229921259843
11
0.2882214566929134
21
0.4563229921259843
0
LINE
8
BLACK
6
CONTINUOUS
10
0.2882214566929134
20
0.4563229921259843
11
0.2936388582677165
21
0.4540790551181103
0
LINE
8
BLACK
6
CONTINUOUS
10
0.2936388582677165
20
0.4540790551181103
11
0.293956811023622
21
0.4539473622047244
0
LINE
8
BLACK
6
CONTINUOUS
10
0.293956811023622
20
0.4539473622047244
11
0.3000455905511811
21
0.4527362204724409
0
LINE
8
BLACK
6
CONTINUOUS
10
0.3000455905511811
20
0.4527362204724409
11
0.3000456692913386
21
0.4527362204724409
0
LINE
8
BLACK
6
CONTINUOUS
10
0.3000456692913386
20
0.4527362204724409
11
0.3315822440944882
21
0.4527362204724409
0
LINE
8
BLACK
6
CONTINUOUS
10
0.3315822440944882
20
0.4527362204724409
11
0.3336423228346457
21
0.4518829133858268
0
LINE
8
BLACK
6
CONTINUOUS
10
0.3336423228346457
20
0.4518829133858268
11
0.3344956299212598
21
0.4498228346456693
0
LINE
8
BLACK
6
CONTINUOUS
10
0.3344956299212598
20
0.4498228346456693
11
0.3344956299212598
21
0.449822125984252
0
LINE
8
BLACK
6
CONTINUOUS
10
0.3344956299212598
20
0.449822125984252
11
0.3344946850393701
21
0.4458661417322834
0
LINE
8
BLACK
6
CONTINUOUS
10
0.3344946850393701
20
0.4458661417322834
11
0.3426968897637795
21
0.4458661417322834
0
LINE
8
BLACK
6
CONTINUOUS
10
0.3426968897637795
20
0.4458661417322834
11
0.3434012992125984
21
0.4472485826771653
0
LINE
8
BLACK
6
CONTINUOUS
10
0.3434012992125984
20
0.4472485826771653
11
0.3468852755905512
21
0.4507325590551181
0
LINE
8
BLACK
6
CONTINUOUS
10
0.3468852755905512
20
0.4507325590551181
11
0.3512753149606299
21
0.4529694094488189
0
LINE
8
BLACK
6
CONTINUOUS
10
0.3512753149606299
20
0.4529694094488189
11
0.3561417322834646
21
0.4537401574803149
0
LINE
8
BLACK
6
CONTINUOUS
10
0.3561417322834646
20
0.4537401574803149
11
0.3610081496062992
21
0.4529694094488189
0
LINE
8
BLACK
6
CONTINUOUS
10
0.3610081496062992
20
0.4529694094488189
11
0.3653981889763779
21
0.4507325590551181
0
LINE
8
BLACK
6
CONTINUOUS
10
0.3653981889763779
20
0.4507325590551181
11
0.3688821653543307
21
0.4472485826771653
0
LINE
8
BLACK
6
CONTINUOUS
10
0.3688821653543307
20
0.4472485826771653
11
0.3711190157480315
21
0.4428585433070866
0
LINE
8
BLACK
6
CONTINUOUS
10
0.3711190157480315
20
0.4428585433070866
11
0.3718897637795275
21
0.437992125984252
0
LINE
8
BLACK
6
CONTINUOUS
10
0.3718897637795275
20
0.437992125984252
11
0.3711190157480315
21
0.4331257086614173
0
LINE
8
BLACK
6
CONTINUOUS
10
0.3711190157480315
20
0.4331257086614173
11
0.3688821653543307
21
0.4287356692913386
0
LINE
8
BLACK
6
CONTINUOUS
10
0.3688821653543307
20
0.4287356692913386
11
0.3653981889763779
21
0.4252516929133858
0
LINE
8
BLACK
6
CONTINUOUS
10
0.3653981889763779
20
0.4252516929133858
11
0.3610081496062992
21
0.423014842519685
0
LINE
8
BLACK
6
CONTINUOUS
10
0.3610081496062992
20
0.423014842519685
11
0.3561417322834646
21
0.4222440944881889
0
LINE
8
BLACK
6
CONTINUOUS
10
0.3561417322834646
20
0.4222440944881889
11
0.3512753149606299
21
0.423014842519685
0
LINE
8
BLACK
6
CONTINUOUS
10
0.3512753149606299
20
0.423014842519685
11
0.3468852755905512
21
0.4252516929133858
0
LINE
8
BLACK
6
CONTINUOUS
10
0.3468852755905512
20
0.4252516929133858
11
0.3434012992125984
21
0.4287356692913386
0
LINE
8
BLACK
6
CONTINUOUS
10
0.3434012992125984
20
0.4287356692913386
11
0.3426968897637795
21
0.4301181102362205
0
LINE
8
BLACK
6
CONTINUOUS
10
0.3426968897637795
20
0.4301181102362205
11
0.334490905511811
21
0.4301181102362205
0
LINE
8
BLACK
6
CONTINUOUS
10
0.334490905511811
20
0.4301181102362205
11
0.3344840551181102
21
0.4013907874015748
0
LINE
8
BLACK
6
CONTINUOUS
10
0.3344840551181102
20
0.4013907874015748
11
0.3344686614173228
21
0.3368378740157481
0
LINE
8
BLACK
6
CONTINUOUS
10
0.3344686614173228
20
0.3368378740157481
11
0.3344686220472441
21
0.3367118897637795
0
LINE
8
BLACK
6
CONTINUOUS
10
0.3344686220472441
20
0.3367118897637795
11
0.3336148031496063
21
0.3346520472440945
0
LINE
8
BLACK
6
CONTINUOUS
10
0.3336148031496063
20
0.3346520472440945
11
0.3315552362204724
21
0.3337992125984252
0
LINE
8
BLACK
6
CONTINUOUS
10
0.3315552362204724
20
0.3337992125984252
11
0.2787004330708661
21
0.3337992125984252
0
LINE
8
BLACK
6
CONTINUOUS
10
0.2787004330708661
20
0.3337992125984252
11
0.2775855118110236
21
0.3340209842519685
0
LINE
8
BLACK
6
CONTINUOUS
10
0.2775855118110236
20
0.3340209842519685
11
0.2727464960629921
21
0.3360253937007874
0
LINE
8
BLACK
6
CONTINUOUS
10
0.2727464960629921
20
0.3360253937007874
11
0.2665748031496063
21
0.3368378740157481
0
LINE
8
BLACK
6
CONTINUOUS
10
0.2665748031496063
20
0.3368378740157481
11
0.2604031102362205
21
0.3360253937007874
0
LINE
8
BLACK
6
CONTINUOUS
10
0.2604031102362205
20
0.3360253937007874
11
0.2604030708661417
21
0.3360253937007874
0
LINE
8
BLACK
6
CONTINUOUS
10
0.2604030708661417
20
0.3360253937007874
11
0.2546518897637795
21
0.3336431496062992
0
LINE
8
BLACK
6
CONTINUOUS
10
0.2546518897637795
20
0.3336431496062992
11
0.2497133858267717
21
0.3298537401574803
0
LINE
8
BLACK
6
CONTINUOUS
10
0.2497133858267717
20
0.3298537401574803
11
0.249713188976378
21
0.3298535433070866
0
LINE
8
BLACK
6
CONTINUOUS
10
0.249713188976378
20
0.3298535433070866
11
0.2459237795275591
21
0.3249150393700787
0
LINE
8
BLACK
6
CONTINUOUS
10
0.2459237795275591
20
0.3249150393700787
11
0.243641968503937
21
0.3194063385826771
0
LINE
8
BLACK
6
CONTINUOUS
10
0.243641968503937
20
0.3194063385826771
11
0.2420652362204724
21
0.3178296456692913
0
LINE
8
BLACK
6
CONTINUOUS
10
0.2420652362204724
20
0.3178296456692913
11
0.2398354330708661
21
0.3178296456692913
0
LINE
8
BLACK
6
CONTINUOUS
10
0.2398354330708661
20
0.3178296456692913
11
0.2388902755905512
21
0.3184611811023622
0
LINE
8
BLACK
6
CONTINUOUS
10
0.2388902755905512
20
0.3184611811023622
11
0.2330462204724409
21
0.3243052362204724
0
LINE
8
BLACK
6
CONTINUOUS
10
0.2330462204724409
20
0.3243052362204724
11
0.2321929133858268
21
0.3263653149606299
0
LINE
8
BLACK
6
CONTINUOUS
10
0.2321929133858268
20
0.3263653149606299
11
0.2321929133858268
21
0.3270966141732283
0
LINE
8
BLACK
6
CONTINUOUS
10
0.2321929133858268
20
0.3270966141732283
11
0.2321929133858268
21
0.3270968503937008
0
LINE
8
BLACK
6
CONTINUOUS
10
0.2321929133858268
20
0.3270968503937008
11
0.2318020866141732
21
0.3297792519685039
0
LINE
8
BLACK
6
CONTINUOUS
10
0.2318020866141732
20
0.3297792519685039
11
0.2297794488188976
21
0.3339166535433071
0
LINE
8
BLACK
6
CONTINUOUS
10
0.2297794488188976
20
0.3339166535433071
11
0.2265229527559055
21
0.3371731496062992
0
LINE
8
BLACK
6
CONTINUOUS
10
0.2265229527559055
20
0.3371731496062992
11
0.2265229133858268
21
0.3371731889763779
0
LINE
8
BLACK
6
CONTINUOUS
10
0.2265229133858268
20
0.3371731889763779
11
0.2223855905511811
21
0.3391957874015748
0
LINE
8
BLACK
6
CONTINUOUS
10
0.2223855905511811
20
0.3391957874015748
11
0.2197033070866142
21
0.3395866141732283
0
LINE
8
BLACK
6
CONTINUOUS
10
0.2197033070866142
20
0.3395866141732283
11
0.2197031496062992
21
0.3395866141732283
0
LINE
8
BLACK
6
CONTINUOUS
10
0.2197031496062992
20
0.3395866141732283
11
0.1619661417322835
21
0.3395866141732283
0
LINE
8
BLACK
6
CONTINUOUS
10
0.1619661417322835
20
0.3395866141732283
11
0.1619659448818898
21
0.3395866141732283
0
LINE
8
BLACK
6
CONTINUOUS
10
0.1619659448818898
20
0.3395866141732283
11
0.1592837007874016
21
0.3391957874015748
0
LINE
8
BLACK
6
CONTINUOUS
10
0.1592837007874016
20
0.3391957874015748
11
0.1592836614173228
21
0.3391957874015748
0
LINE
8
BLACK
6
CONTINUOUS
10
0.1592836614173228
20
0.3391957874015748
11
0.1551463385826772
21
0.3371731889763779
0
LINE
8
BLACK
6
CONTINUOUS
10
0.1551463385826772
20
0.3371731889763779
11
0.1518898031496063
21
0.3339166535433071
0
LINE
8
BLACK
6
CONTINUOUS
10
0.1518898031496063
20
0.3339166535433071
11
0.1498672047244095
21
0.3297793307086614
0
LINE
8
BLACK
6
CONTINUOUS
10
0.1498672047244095
20
0.3297793307086614
11
0.1498672047244095
21
0.3297792913385827
0
LINE
8
BLACK
6
CONTINUOUS
10
0.1498672047244095
20
0.3297792913385827
11
0.1494763779527559
21
0.3270970472440945
0
LINE
8
BLACK
6
CONTINUOUS
10
0.1494763779527559
20
0.3270970472440945
11
0.1494763779527559
21
0.3126667716535433
0
LINE
8
BLACK
6
CONTINUOUS
10
0.1494763779527559
20
0.3126667716535433
11
0.1498672047244095
21
0.3099845275590551
0
LINE
8
BLACK
6
CONTINUOUS
10
0.1498672047244095
20
0.3099845275590551
11
0.1498672047244095
21
0.3099844881889764
0
LINE
8
BLACK
6
CONTINUOUS
10
0.1498672047244095
20
0.3099844881889764
11
0.1518898031496063
21
0.3058471653543307
0
LINE
8
BLACK
6
CONTINUOUS
10
0.1518898031496063
20
0.3058471653543307
11
0.151889842519685
21
0.305847125984252
0
LINE
8
BLACK
6
CONTINUOUS
10
0.151889842519685
20
0.305847125984252
11
0.1551463385826772
21
0.3025906299212598
0
LINE
8
BLACK
6
CONTINUOUS
10
0.1551463385826772
20
0.3025906299212598
11
0.1592837401574803
21
0.3005679921259842
0
LINE
8
BLACK
6
CONTINUOUS
10
0.1592837401574803
20
0.3005679921259842
11
0.1619661417322835
21
0.3001771653543307
0
LINE
8
BLACK
6
CONTINUOUS
10
0.1619661417322835
20
0.3001771653543307
11
0.2113696456692913
21
0.3001771653543307
0
LINE
8
BLACK
6
CONTINUOUS
10
0.2113696456692913
20
0.3001771653543307
11
0.2134297244094488
21
0.2993238582677165
0
LINE
8
BLACK
6
CONTINUOUS
10
0.2134297244094488
20
0.2993238582677165
11
0.2174061023622047
21
0.2953474803149606
0
LINE
8
BLACK
6
CONTINUOUS
10
0.2174061023622047
20
0.2953474803149606
11
0.2182594094488189
21
0.2932874015748032
0
LINE
8
BLACK
6
CONTINUOUS
10
0.2182594094488189
20
0.2932874015748032
11
0.2174061023622047
21
0.2912273228346456
0
LINE
8
BLACK
6
CONTINUOUS
10
0.2174061023622047
20
0.2912273228346456
11
0.2153460236220472
21
0.2903740157480315
0
LINE
8
BLACK
6
CONTINUOUS
10
0.2153460236220472
20
0.2903740157480315
11
0.1619659448818898
21
0.2903740157480315
0
LINE
8
BLACK
6
CONTINUOUS
10
0.1619659448818898
20
0.2903740157480315
11
0.1592837007874016
21
0.2899831889763779
0
LINE
8
BLACK
6
CONTINUOUS
10
0.1592837007874016
20
0.2899831889763779
11
0.1592836614173228
21
0.2899831889763779
0
LINE
8
BLACK
6
CONTINUOUS
10
0.1592836614173228
20
0.2899831889763779
11
0.1551463385826772
21
0.2879605905511811
0
LINE
8
BLACK
6
CONTINUOUS
10
0.1551463385826772
20
0.2879605905511811
11
0.1544761023622047
21
0.2872903149606299
0
LINE
8
BLACK
6
CONTINUOUS
10
0.1544761023622047
20
0.2872903149606299
11
0.1524160236220472
21
0.2864370078740157
0
LINE
8
BLACK
6
CONTINUOUS
10
0.1524160236220472
20
0.2864370078740157
11
0.1313422047244094
21
0.2864370078740157
0
LINE
8
BLACK
6
CONTINUOUS
10
0.1313422047244094
20
0.2864370078740157
11
0.129282125984252
21
0.2872903149606299
0
LINE
8
BLACK
6
CONTINUOUS
10
0.129282125984252
20
0.2872903149606299
11
0.129107125984252
21
0.287489842519685
0
LINE
8
BLACK
6
CONTINUOUS
10
0.129107125984252
20
0.287489842519685
11
0.1290660236220472
21
0.2875309842519685
0
LINE
8
BLACK
6
CONTINUOUS
10
0.1290660236220472
20
0.2875309842519685
11
0.1241275984251968
21
0.2913203149606299
0
LINE
8
BLACK
6
CONTINUOUS
10
0.1241275984251968
20
0.2913203149606299
11
0.1183764173228346
21
0.2937025590551181
0
LINE
8
BLACK
6
CONTINUOUS
10
0.1183764173228346
20
0.2937025590551181
11
0.1122047244094488
21
0.2945150393700787
0
LINE
8
BLACK
6
CONTINUOUS
10
0.1122047244094488
20
0.2945150393700787
11
0.106033031496063
21
0.2937025590551181
0
LINE
8
BLACK
6
CONTINUOUS
10
0.106033031496063
20
0.2937025590551181
11
0.1060329921259842
21
0.2937025590551181
0
LINE
8
BLACK
6
CONTINUOUS
10
0.1060329921259842
20
0.2937025590551181
11
0.100281811023622
21
0.2913203149606299
0
LINE
8
BLACK
6
CONTINUOUS
10
0.100281811023622
20
0.2913203149606299
11
0.0953433070866142
21
0.287530905511811
0
LINE
8
BLACK
6
CONTINUOUS
10
0.0953433070866142
20
0.287530905511811
11
0.0953431102362205
21
0.2875307086614173
0
LINE
8
BLACK
6
CONTINUOUS
10
0.0953431102362205
20
0.2875307086614173
11
0.0915537007874016
21
0.2825922047244094
0
LINE
8
BLACK
6
CONTINUOUS
10
0.0915537007874016
20
0.2825922047244094
11
0.0891714566929134
21
0.2768410236220472
0
LINE
8
BLACK
6
CONTINUOUS
10
0.0891714566929134
20
0.2768410236220472
11
0.0891714566929134
21
0.2768409842519685
0
LINE
8
BLACK
6
CONTINUOUS
10
0.0891714566929134
20
0.2768409842519685
11
0.0883589763779528
21
0.2706692913385827
0
LINE
8
BLACK
6
CONTINUOUS
10
0.0883589763779528
20
0.2706692913385827
11
0.0891714566929134
21
0.2644976377952756
0
LINE
8
BLACK
6
CONTINUOUS
10
0.0891714566929134
20
0.2644976377952756
11
0.0891714566929134
21
0.2644975984251968
0
LINE
8
BLACK
6
CONTINUOUS
10
0.0891714566929134
20
0.2644975984251968
11
0.0915537007874016
21
0.2587464173228347
0
LINE
8
BLACK
6
CONTINUOUS
10
0.0915537007874016
20
0.2587464173228347
11
0.0953431102362205
21
0.2538079133858268
0
LINE
8
BLACK
6
CONTINUOUS
10
0.0953431102362205
20
0.2538079133858268
11
0.0953433070866142
21
0.253807716535433
0
LINE
8
BLACK
6
CONTINUOUS
10
0.0953433070866142
20
0.253807716535433
11
0.0985392519685039
21
0.2513553937007874
0
LINE
8
BLACK
6
CONTINUOUS
10
0.0985392519685039
20
0.2513553937007874
11
0.1002818503937008
21
0.2500182677165354
0
LINE
8
BLACK
6
CONTINUOUS
10
0.1002818503937008
20
0.2500182677165354
11
0.1060329921259842
21
0.247636062992126
0
LINE
8
BLACK
6
CONTINUOUS
10
0.1060329921259842
20
0.247636062992126
11
0.1122047244094488
21
0.2468235433070866
0
LINE
8
BLACK
6
CONTINUOUS
10
0.1122047244094488
20
0.2468235433070866
11
0.1183764566929134
21
0.247636062992126
0
LINE
8
BLACK
6
CONTINUOUS
10
0.1183764566929134
20
0.247636062992126
11
0.1241275984251968
21
0.2500182677165354
0
LINE
8
BLACK
6
CONTINUOUS
10
0.1241275984251968
20
0.2500182677165354
11
0.1290662204724409
21
0.2538077952755906
0
LINE
8
BLACK
6
CONTINUOUS
10
0.1290662204724409
20
0.2538077952755906
11
0.1290663385826772
21
0.2538079921259843
0
LINE
8
BLACK
6
CONTINUOUS
10
0.1290663385826772
20
0.2538079921259843
11
0.129201062992126
21
0.2539426771653543
0
LINE
8
BLACK
6
CONTINUOUS
10
0.129201062992126
20
0.2539426771653543
11
0.1292534251968504
21
0.2538903149606299
0
LINE
8
BLACK
6
CONTINUOUS
10
0.1292534251968504
20
0.2538903149606299
11
0.1309620078740157
21
0.2548766535433071
0
LINE
8
BLACK
6
CONTINUOUS
10
0.1309620078740157
20
0.2548766535433071
11
0.1313422047244094
21
0.2549015748031496
0
LINE
8
BLACK
6
CONTINUOUS
10
0.1313422047244094
20
0.2549015748031496
11
0.1483018110236221
21
0.2549015748031496
0
LINE
8
BLACK
6
CONTINUOUS
10
0.1483018110236221
20
0.2549015748031496
11
0.1503618897637795
21
0.2540482677165354
0
LINE
8
BLACK
6
CONTINUOUS
10
0.1503618897637795
20
0.2540482677165354
11
0.1512151968503937
21
0.2519881889763779
0
LINE
8
BLACK
6
CONTINUOUS
10
0.1512151968503937
20
0.2519881889763779
11
0.1503618897637795
21
0.2499281102362205
0
LINE
8
BLACK
6
CONTINUOUS
10
0.1503618897637795
20
0.2499281102362205
11
0.149784842519685
21
0.2494805118110236
0
LINE
8
BLACK
6
CONTINUOUS
10
0.149784842519685
20
0.2494805118110236
11
0.1472716929133858
21
0.2479942913385827
0
LINE
8
BLACK
6
CONTINUOUS
10
0.1472716929133858
20
0.2479942913385827
11
0.1426435039370079
21
0.2433661023622047
0
LINE
8
BLACK
6
CONTINUOUS
10
0.1426435039370079
20
0.2433661023622047
11
0.1393117322834646
21
0.2377323622047244
0
LINE
8
BLACK
6
CONTINUOUS
10
0.1393117322834646
20
0.2377323622047244
11
0.1374884645669291
21
0.2314566929133858
0
LINE
8
BLACK
6
CONTINUOUS
10
0.1374884645669291
20
0.2314566929133858
11
0.1590454330708661
21
0.2314566929133858
0
LINE
8
BLACK
6
CONTINUOUS
10
0.1590454330708661
20
0.2314566929133858
11
0.1590997637795276
21
0.231538031496063
0
LINE
8
BLACK
6
CONTINUOUS
10
0.1590997637795276
20
0.231538031496063
11
0.1610156299212598
21
0.232818188976378
0
LINE
8
BLACK
6
CONTINUOUS
10
0.1610156299212598
20
0.232818188976378
11
0.1632755905511811
21
0.2332677165354331
0
LINE
8
BLACK
6
CONTINUOUS
10
0.1632755905511811
20
0.2332677165354331
11
0.2183937007874016
21
0.2332677165354331
0
LINE
8
BLACK
6
CONTINUOUS
10
0.2183937007874016
20
0.2332677165354331
11
0.2206536614173228
21
0.232818188976378
0
LINE
8
BLACK
6
CONTINUOUS
10
0.2206536614173228
20
0.232818188976378
11
0.2225695275590551
21
0.231538031496063
0
LINE
8
BLACK
6
CONTINUOUS
10
0.2225695275590551
20
0.231538031496063
11
0.2226238582677165
21
0.2314566929133858
0
LINE
8
BLACK
6
CONTINUOUS
10
0.2226238582677165
20
0.2314566929133858
11
0.2441807874015748
21
0.2314566929133858
0
LINE
8
BLACK
6
CONTINUOUS
10
0.2441807874015748
20
0.2314566929133858
11
0.2423575196850394
21
0.2377323622047244
0
LINE
8
BLACK
6
CONTINUOUS
10
0.2423575196850394
20
0.2377323622047244
11
0.2390924803149606
21
0.2432532283464567
0
LINE
8
BLACK
6
CONTINUOUS
10
0.2390924803149606
20
0.2432532283464567
11
0.2387783070866142
21
0.2454607874015748
0
LINE
8
BLACK
6
CONTINUOUS
10
0.2387783070866142
20
0.2454607874015748
11
0.240117125984252
21
0.247243937007874
0
LINE
8
BLACK
6
CONTINUOUS
10
0.240117125984252
20
0.247243937007874
11
0.2423246850393701
21
0.2475581102362205
0
LINE
8
BLACK
6
CONTINUOUS
10
0.2423246850393701
20
0.2475581102362205
11
0.242715
21
0.2474279133858268
0
LINE
8
BLACK
6
CONTINUOUS
10
0.242715
20
0.2474279133858268
11
0.2438282677165354
21
0.2469667716535433
0
LINE
8
BLACK
6
CONTINUOUS
10
0.2438282677165354
20
0.2469667716535433
11
0.25
21
0.2461542519685039
0
LINE
8
BLACK
6
CONTINUOUS
10
0.25
20
0.2461542519685039
11
0.2561717322834646
21
0.2469667716535433
0
LINE
8
BLACK
6
CONTINUOUS
10
0.2561717322834646
20
0.2469667716535433
11
0.261922874015748
21
0.2493489763779528
0
LINE
8
BLACK
6
CONTINUOUS
10
0.261922874015748
20
0.2493489763779528
11
0.2668614960629921
21
0.2531385039370079
0
LINE
8
BLACK
6
CONTINUOUS
10
0.2668614960629921
20
0.2531385039370079
11
0.2681952362204724
21
0.2548766535433071
0
LINE
8
BLACK
6
CONTINUOUS
10
0.2681952362204724
20
0.2548766535433071
11
0.2683366535433071
21
0.2550609448818897
0
LINE
8
BLACK
6
CONTINUOUS
10
0.2683366535433071
20
0.2550609448818897
11
0.2702677165354331
21
0.2561758661417323
0
LINE
8
BLACK
6
CONTINUOUS
10
0.2702677165354331
20
0.2561758661417323
11
0.2706479921259842
21
0.2562007874015748
0
LINE
8
BLACK
6
CONTINUOUS
10
0.2706479921259842
20
0.2562007874015748
11
0.3315352755905512
21
0.2562007874015748
0
LINE
8
BLACK
6
CONTINUOUS
10
0.3315352755905512
20
0.2562007874015748
11
0.3335953543307086
21
0.2553474803149606
0
LINE
8
BLACK
6
CONTINUOUS
10
0.3335953543307086
20
0.2553474803149606
11
0.3344486220472441
21
0.2532874409448819
0
LINE
8
BLACK
6
CONTINUOUS
10
0.3344486220472441
20
0.2532874409448819
11
0.3344452362204725
21
0.2391732283464567
0
LINE
8
BLACK
6
CONTINUOUS
10
0.3344452362204725
20
0.2391732283464567
11
0.3456496456692913
21
0.2391732283464567
0
LINE
8
BLACK
6
CONTINUOUS
10
0.3456496456692913
20
0.2391732283464567
11
0.3463540551181102
21
0.2405556692913386
0
LINE
8
BLACK
6
CONTINUOUS
10
0.3463540551181102
20
0.2405556692913386
11
0.349838031496063
21
0.2440396456692913
0
LINE
8
BLACK
6
CONTINUOUS
10
0.349838031496063
20
0.2440396456692913
11
0.3542280708661417
21
0.2462764960629921
0
LINE
8
BLACK
6
CONTINUOUS
10
0.3542280708661417
20
0.2462764960629921
11
0.3590944881889764
21
0.2470472440944882
0
LINE
8
BLACK
6
CONTINUOUS
10
0.3590944881889764
20
0.2470472440944882
11
0.363960905511811
21
0.2462764960629921
0
LINE
8
BLACK
6
CONTINUOUS
10
0.363960905511811
20
0.2462764960629921
11
0.3683509448818897
21
0.2440396456692913
0
LINE
8
BLACK
6
CONTINUOUS
10
0.3683509448818897
20
0.2440396456692913
11
0.3718349212598425
21
0.2405556692913386
0
LINE
8
BLACK
6
CONTINUOUS
10
0.3718349212598425
20
0.2405556692913386
11
0.3740717716535433
21
0.2361656299212598
0
LINE
8
BLACK
6
CONTINUOUS
10
0.3740717716535433
20
0.2361656299212598
11
0.3748425196850393
21
0.2312992125984252
0
LINE
8
BLACK
6
CONTINUOUS
10
0.3748425196850393
20
0.2312992125984252
11
0.3740717716535433
21
0.2264327952755905
0
LINE
8
BLACK
6
CONTINUOUS
10
0.3740717716535433
20
0.2264327952755905
11
0.3718349212598425
21
0.2220427559055118
0
LINE
8
BLACK
6
CONTINUOUS
10
0.3718349212598425
20
0.2220427559055118
11
0.3683509448818897
21
0.2185587795275591
0
LINE
8
BLACK
6
CONTINUOUS
10
0.3683509448818897
20
0.2185587795275591
11
0.363960905511811
21
0.2163219291338583
0
LINE
8
BLACK
6
CONTINUOUS
10
0.363960905511811
20
0.2163219291338583
11
0.3590944881889764
21
0.2155511811023622
0
LINE
8
BLACK
6
CONTINUOUS
10
0.3590944881889764
20
0.2155511811023622
11
0.3542280708661417
21
0.2163219291338583
0
LINE
8
BLACK
6
CONTINUOUS
10
0.3542280708661417
20
0.2163219291338583
11
0.349838031496063
21
0.2185587795275591
0
LINE
8
BLACK
6
CONTINUOUS
10
0.349838031496063
20
0.2185587795275591
11
0.3463540551181102
21
0.2220427559055118
0
LINE
8
BLACK
6
CONTINUOUS
10
0.3463540551181102
20
0.2220427559055118
11
0.3456496456692913
21
0.2234251968503937
0
LINE
8
BLACK
6
CONTINUOUS
10
0.3456496456692913
20
0.2234251968503937
11
0.3344414960629921
21
0.2234251968503937
0
LINE
8
BLACK
6
CONTINUOUS
10
0.3344414960629921
20
0.2234251968503937
11
0.3344286614173228
21
0.1697118503937008
0
LINE
8
BLACK
6
CONTINUOUS
10
0.3344286614173228
20
0.1697118503937008
11
0.3335748818897638
21
0.1676520472440945
0
LINE
8
BLACK
6
CONTINUOUS
10
0.3335748818897638
20
0.1676520472440945
11
0.3315153149606299
21
0.1667992125984252
0
LINE
8
BLACK
6
CONTINUOUS
10
0.3315153149606299
20
0.1667992125984252
11
0.2814086220472441
21
0.1667992125984252
0
LINE
8
BLACK
6
CONTINUOUS
10
0.2814086220472441
20
0.1667992125984252
11
0.2778992125984252
21
0.1658588976377953
0
LINE
8
BLACK
6
CONTINUOUS
10
0.2778992125984252
20
0.1658588976377953
11
0.2778990157480315
21
0.1658588188976378
0
LINE
8
BLACK
6
CONTINUOUS
10
0.2778990157480315
20
0.1658588188976378
11
0.2747524015748031
21
0.1640420866141732
0
LINE
8
BLACK
6
CONTINUOUS
10
0.2747524015748031
20
0.1640420866141732
11
0.2739885826771654
21
0.1632782677165354
0
LINE
8
BLACK
6
CONTINUOUS
10
0.2739885826771654
20
0.1632782677165354
11
0.2719284645669292
21
0.162425
0
LINE
8
BLACK
6
CONTINUOUS
10
0.2719284645669292
20
0.162425
11
0.2715483070866141
21
0.1624499212598425
0
LINE
8
BLACK
6
CONTINUOUS
10
0.2715483070866141
20
0.1624499212598425
11
0.2691458661417323
21
0.1627661811023622
0
LINE
8
BLACK
6
CONTINUOUS
10
0.2691458661417323
20
0.1627661811023622
11
0.2691458267716536
21
0.1627661811023622
0
LINE
8
BLACK
6
CONTINUOUS
10
0.2691458267716536
20
0.1627661811023622
11
0.2683333464566929
21
0.1626592519685039
0
LINE
8
BLACK
6
CONTINUOUS
10
0.2683333464566929
20
0.1626592519685039
11
0.2629741338582677
21
0.1619537007874016
0
LINE
8
BLACK
6
CONTINUOUS
10
0.2629741338582677
20
0.1619537007874016
11
0.262974094488189
21
0.1619537007874016
0
LINE
8
BLACK
6
CONTINUOUS
10
0.262974094488189
20
0.1619537007874016
11
0.2572229133858268
21
0.1595714566929134
0
LINE
8
BLACK
6
CONTINUOUS
10
0.2572229133858268
20
0.1595714566929134
11
0.2522844094488189
21
0.1557820472440945
0
LINE
8
BLACK
6
CONTINUOUS
10
0.2522844094488189
20
0.1557820472440945
11
0.2522842125984252
21
0.1557818503937008
0
LINE
8
BLACK
6
CONTINUOUS
10
0.2522842125984252
20
0.1557818503937008
11
0.2484948031496063
21
0.1508433464566929
0
LINE
8
BLACK
6
CONTINUOUS
10
0.2484948031496063
20
0.1508433464566929
11
0.2461125590551181
21
0.1450921653543307
0
LINE
8
BLACK
6
CONTINUOUS
10
0.2461125590551181
20
0.1450921653543307
11
0.2461125590551181
21
0.145092125984252
0
LINE
8
BLACK
6
CONTINUOUS
10
0.2461125590551181
20
0.145092125984252
11
0.2453000787401575
21
0.1389204330708661
0
LINE
8
BLACK
6
CONTINUOUS
10
0.2453000787401575
20
0.1389204330708661
11
0.2461125590551181
21
0.1327487795275591
0
LINE
8
BLACK
6
CONTINUOUS
10
0.2461125590551181
20
0.1327487795275591
11
0.2461125590551181
21
0.1327487401574803
0
LINE
8
BLACK
6
CONTINUOUS
10
0.2461125590551181
20
0.1327487401574803
11
0.2484948031496063
21
0.1269975590551181
0
LINE
8
BLACK
6
CONTINUOUS
10
0.2484948031496063
20
0.1269975590551181
11
0.2522842125984252
21
0.1220590551181102
0
LINE
8
BLACK
6
CONTINUOUS
10
0.2522842125984252
20
0.1220590551181102
11
0.2522844094488189
21
0.1220588582677165
0
LINE
8
BLACK
6
CONTINUOUS
10
0.2522844094488189
20
0.1220588582677165
11
0.2547799212598425
21
0.1201440157480315
0
LINE
8
BLACK
6
CONTINUOUS
10
0.2547799212598425
20
0.1201440157480315
11
0.2572229527559055
21
0.1182694094488189
0
LINE
8
BLACK
6
CONTINUOUS
10
0.2572229527559055
20
0.1182694094488189
11
0.262974094488189
21
0.1158872047244094
0
LINE
8
BLACK
6
CONTINUOUS
10
0.262974094488189
20
0.1158872047244094
11
0.2691458267716536
21
0.1150746850393701
0
LINE
8
BLACK
6
CONTINUOUS
10
0.2691458267716536
20
0.1150746850393701
11
0.2691458267716536
21
0.1150747244094488
0
LINE
8
BLACK
6
CONTINUOUS
10
0.2691458267716536
20
0.1150747244094488
11
0.2691458661417323
21
0.1150746850393701
0
LINE
8
BLACK
6
CONTINUOUS
10
0.2691458661417323
20
0.1150746850393701
11
0.2692120078740157
21
0.1150746850393701
0
LINE
8
BLACK
6
CONTINUOUS
10
0.2692120078740157
20
0.1150746850393701
11
0.2692427952755905
21
0.1150619291338583
0
LINE
8
BLACK
6
CONTINUOUS
10
0.2692427952755905
20
0.1150619291338583
11
0.2693351574803149
21
0.1150497637795276
0
LINE
8
BLACK
6
CONTINUOUS
10
0.2693351574803149
20
0.1150497637795276
11
0.2693318897637795
21
0.1150250393700787
0
LINE
8
BLACK
6
CONTINUOUS
10
0.2693318897637795
20
0.1150250393700787
11
0.2712720866141732
21
0.1142213779527559
0
LINE
8
BLACK
6
CONTINUOUS
10
0.2712720866141732
20
0.1142213779527559
11
0.2721253937007874
21
0.1121612992125984
0
LINE
8
BLACK
6
CONTINUOUS
10
0.2721253937007874
20
0.1121612992125984
11
0.2720694094488189
21
0.1115929527559055
0
LINE
8
BLACK
6
CONTINUOUS
10
0.2720694094488189
20
0.1115929527559055
11
0.2716338582677165
21
0.1094032283464567
0
LINE
8
BLACK
6
CONTINUOUS
10
0.2716338582677165
20
0.1094032283464567
11
0.2716338582677165
21
0.0480771653543307
0
LINE
8
BLACK
6
CONTINUOUS
10
0.2716338582677165
20
0.0480771653543307
11
0.2728449212598425
21
0.0419885433070866
0
LINE
8
BLACK
6
CONTINUOUS
10
0.2728449212598425
20
0.0419885433070866
11
0.2728450393700788
21
0.0419881496062992
0
LINE
8
BLACK
6
CONTINUOUS
10
0.2728450393700788
20
0.0419881496062992
11
0.2752205905511811
21
0.0362529921259842
0
LINE
8
BLACK
6
CONTINUOUS
10
0.2752205905511811
20
0.0362529921259842
11
0.2786696850393701
21
0.0310910236220472
0
LINE
8
BLACK
6
CONTINUOUS
10
0.2786696850393701
20
0.0310910236220472
11
0.2830594881889764
21
0.0267012204724409
0
LINE
8
BLACK
6
CONTINUOUS
10
0.2830594881889764
20
0.0267012204724409
11
0.2855449212598425
21
0.0250405118110236
0
LINE
8
BLACK
6
CONTINUOUS
10
0.2855449212598425
20
0.0250405118110236
11
0.2867837401574803
21
0.0231864960629921
0
LINE
8
BLACK
6
CONTINUOUS
10
0.2867837401574803
20
0.0231864960629921
11
0.2863487401574803
21
0.0209995275590551
0
LINE
8
BLACK
6
CONTINUOUS
10
0.2863487401574803
20
0.0209995275590551
11
0.2844947244094488
21
0.0197607086614173
0
LINE
8
BLACK
6
CONTINUOUS
10
0.2844947244094488
20
0.0197607086614173
11
0.2839263385826772
21
0.0197047244094488
0
LINE
8
BLACK
6
CONTINUOUS
10
0.2839263385826772
20
0.0197047244094488
11
0.1646747637795276
21
0.0197047244094488
0
LINE
8
BLACK
6
CONTINUOUS
10
0.1646747637795276
20
0.0197047244094488
11
0.1626146850393701
21
0.020558031496063
0
LINE
8
BLACK
6
CONTINUOUS
10
0.1626146850393701
20
0.020558031496063
11
0.1619831496062992
21
0.0215032283464567
0
LINE
8
BLACK
6
CONTINUOUS
10
0.1619831496062992
20
0.0215032283464567
11
0.1615213385826772
21
0.0226181102362205
0
LINE
8
BLACK
6
CONTINUOUS
10
0.1615213385826772
20
0.0226181102362205
11
0.1585986220472441
21
0.0296742519685039
0
LINE
8
BLACK
6
CONTINUOUS
10
0.1585986220472441
20
0.0296742519685039
11
0.1577806299212599
21
0.0310910236220472
0
LINE
8
BLACK
6
CONTINUOUS
10
0.1577806299212599
20
0.0310910236220472
11
0.1542106299212598
21
0.0372744488188976
0
LINE
8
BLACK
6
CONTINUOUS
10
0.1542106299212598
20
0.0372744488188976
11
0.1542104724409449
21
0.0372746850393701
0
LINE
8
BLACK
6
CONTINUOUS
10
0.1542104724409449
20
0.0372746850393701
11
0.148868188976378
21
0.044236968503937
0
LINE
8
BLACK
6
CONTINUOUS
10
0.148868188976378
20
0.044236968503937
11
0.142662125984252
21
0.050443031496063
0
LINE
8
BLACK
6
CONTINUOUS
10
0.142662125984252
20
0.050443031496063
11
0.135699842519685
21
0.0557853149606299
0
LINE
8
BLACK
6
CONTINUOUS
10
0.135699842519685
20
0.0557853149606299
11
0.1356996062992126
21
0.0557854724409449
0
LINE
8
BLACK
6
CONTINUOUS
10
0.1356996062992126
20
0.0557854724409449
11
0.1280994094488189
21
0.0601734645669291
0
LINE
8
BLACK
6
CONTINUOUS
10
0.1280994094488189
20
0.0601734645669291
11
0.128099094488189
21
0.0601735826771654
0
LINE
8
BLACK
6
CONTINUOUS
10
0.128099094488189
20
0.0601735826771654
11
0.1199914173228346
21
0.0635318897637795
0
LINE
8
BLACK
6
CONTINUOUS
10
0.1199914173228346
20
0.0635318897637795
11
0.1115142125984252
21
0.0658033464566929
0
LINE
8
BLACK
6
CONTINUOUS
10
0.1115142125984252
20
0.0658033464566929
11
0.1051042125984252
21
0.0666472440944882
0
LINE
8
BLACK
6
CONTINUOUS
10
0.1051042125984252
20
0.0666472440944882
11
0.1028132677165354
21
0.0669488188976378
0
LINE
8
BLACK
6
CONTINUOUS
10
0.1028132677165354
20
0.0669488188976378
11
0.094037125984252
21
0.0669488188976378
0
LINE
8
BLACK
6
CONTINUOUS
10
0.094037125984252
20
0.0669488188976378
11
0.0920126771653543
21
0.0666823228346457
0
LINE
8
BLACK
6
CONTINUOUS
10
0.0920126771653543
20
0.0666823228346457
11
0.0853361417322835
21
0.0658033464566929
0
LINE
8
BLACK
6
CONTINUOUS
10
0.0853361417322835
20
0.0658033464566929
11
0.076858937007874
21
0.0635318897637795
0
LINE
8
BLACK
6
CONTINUOUS
10
0.076858937007874
20
0.0635318897637795
11
0.0687512598425197
21
0.0601735826771654
0
LINE
8
BLACK
6
CONTINUOUS
10
0.0687512598425197
20
0.0601735826771654
11
0.0687509448818898
21
0.0601734645669291
0
LINE
8
BLACK
6
CONTINUOUS
10
0.0687509448818898
20
0.0601734645669291
11
0.0611507480314961
21
0.0557854724409449
0
LINE
8
BLACK
6
CONTINUOUS
10
0.0611507480314961
20
0.0557854724409449
11
0.0611505118110236
21
0.0557853149606299
0
LINE
8
BLACK
6
CONTINUOUS
10
0.0611505118110236
20
0.0557853149606299
11
0.0541882283464567
21
0.050443031496063
0
LINE
8
BLACK
6
CONTINUOUS
10
0.0541882283464567
20
0.050443031496063
11
0.0479821653543307
21
0.044236968503937
0
LINE
8
BLACK
6
CONTINUOUS
10
0.0479821653543307
20
0.044236968503937
11
0.0426398818897638
21
0.0372746850393701
0
LINE
8
BLACK
6
CONTINUOUS
10
0.0426398818897638
20
0.0372746850393701
11
0.0426397244094488
21
0.0372744488188976
0
LINE
8
BLACK
6
CONTINUOUS
10
0.0426397244094488
20
0.0372744488188976
11
0.0382517322834646
21
0.0296742519685039
0
LINE
8
BLACK
6
CONTINUOUS
10
0.0382517322834646
20
0.0296742519685039
11
0.0382516141732283
21
0.029673937007874
0
LINE
8
BLACK
6
CONTINUOUS
10
0.0382516141732283
20
0.029673937007874
11
0.0363324015748031
21
0.0250405118110236
0
LINE
8
BLACK
6
CONTINUOUS
10
0.0363324015748031
20
0.0250405118110236
11
0.0353290551181102
21
0.0226181102362205
0
LINE
8
BLACK
6
CONTINUOUS
10
0.0353290551181102
20
0.0226181102362205
11
0.0348672440944882
21
0.0215032283464567
0
LINE
8
BLACK
6
CONTINUOUS
10
0.0348672440944882
20
0.0215032283464567
11
0.0332905511811024
21
0.0199264960629921
0
LINE
8
BLACK
6
CONTINUOUS
10
0.0332905511811024
20
0.0199264960629921
11
0.0321756299212598
21
0.0197047244094488
0
LINE
8
BLACK
6
CONTINUOUS
10
0.0321756299212598
20
0.0197047244094488
11
0.0226181102362205
21
0.0197047244094488
0
LINE
8
BLACK
6
CONTINUOUS
10
0.0226181102362205
20
0.0197047244094488
11
0.020558031496063
21
0.020558031496063
0
LINE
8
BLACK
6
CONTINUOUS
10
0.020558031496063
20
0.020558031496063
11
0.0197047244094488
21
0.0226181102362205
0
LINE
8
BLACK
6
CONTINUOUS
10
0.0197047244094488
20
0.0226181102362205
11
0.0197047244094488
21
0.1060236220472441
0
LINE
8
BLACK
6
CONTINUOUS
10
0.0197047244094488
20
0.1060236220472441
11
0.020558031496063
21
0.1080837007874016
0
LINE
8
BLACK
6
CONTINUOUS
10
0.020558031496063
20
0.1080837007874016
11
0.0226181102362205
21
0.1089370078740158
0
LINE
8
BLACK
6
CONTINUOUS
10
0.0226181102362205
20
0.1089370078740158
11
0.0548503937007874
21
0.1089370078740158
0
LINE
8
BLACK
6
CONTINUOUS
10
0.0548503937007874
20
0.1089370078740158
11
0.0548503937007874
21
0.1289370078740157
0
LINE
8
BLACK
6
CONTINUOUS
10
0.0548503937007874
20
0.1289370078740157
11
0.0215433070866142
21
0.1289370078740157
0
LINE
8
BLACK
6
CONTINUOUS
10
0.0215433070866142
20
0.1289370078740157
11
0.0177767322834646
21
0.1296862204724409
0
LINE
8
BLACK
6
CONTINUOUS
10
0.0177767322834646
20
0.1296862204724409
11
0.0145835826771654
21
0.1318198031496063
0
LINE
8
BLACK
6
CONTINUOUS
10
0.0145835826771654
20
0.1318198031496063
11
0.01245
21
0.1350129527559055
0
LINE
8
BLACK
6
CONTINUOUS
10
0.01245
20
0.1350129527559055
11
0.0117007874015748
21
0.1387795275590551
0
LINE
8
BLACK
6
CONTINUOUS
10
0.0117007874015748
20
0.1387795275590551
11
0.0117007874015748
21
0.1584645669291339
0
LINE
8
BLACK
6
CONTINUOUS
10
0.0117007874015748
20
0.1584645669291339
11
0.01245
21
0.1622311417322835
0
LINE
8
BLACK
6
CONTINUOUS
10
0.01245
20
0.1622311417322835
11
0.0145835826771654
21
0.1654242913385827
0
LINE
8
BLACK
6
CONTINUOUS
10
0.0145835826771654
20
0.1654242913385827
11
0.0177767322834646
21
0.167557874015748
0
LINE
8
BLACK
6
CONTINUOUS
10
0.0177767322834646
20
0.167557874015748
11
0.0215433070866142
21
0.1683070866141732
0
LINE
8
BLACK
6
CONTINUOUS
10
0.0215433070866142
20
0.1683070866141732
11
0.0548503937007874
21
0.1683070866141732
0
LINE
8
BLACK
6
CONTINUOUS
10
0.0548503937007874
20
0.1683070866141732
11
0.0548503937007874
21
0.1883070866141732
0
LINE
8
BLACK
6
CONTINUOUS
10
0.0548503937007874
20
0.1883070866141732
11
0.0226181102362205
21
0.1883070866141732
0
LINE
8
BLACK
6
CONTINUOUS
10
0.0226181102362205
20
0.1883070866141732
11
0.020558031496063
21
0.1891603937007874
0
LINE
8
BLACK
6
CONTINUOUS
10
0.020558031496063
20
0.1891603937007874
11
0.0197047244094488
21
0.1912204724409449
0
LINE
8
BLACK
6
CONTINUOUS
10
0.0197047244094488
20
0.1912204724409449
11
0.0197047244094488
21
0.2114566929133858
0
LINE
8
BLACK
6
CONTINUOUS
10
0.0197047244094488
20
0.2114566929133858
11
0.0197047244094488
21
0.37
0
LINE
8
BLACK
6
CONTINUOUS
10
0.0197047244094488
20
0.37
11
0.0197047244094488
21
0.3993307086614173
0
LINE
8
BLACK
6
CONTINUOUS
10
0.0197047244094488
20
0.3993307086614173
11
0.020558031496063
21
0.4013907874015748
0
LINE
8
BLACK
6
CONTINUOUS
10
0.020558031496063
20
0.4013907874015748
11
0.0226181102362205
21
0.402244094488189
0
LINE
8
BLACK
6
CONTINUOUS
10
0.0226181102362205
20
0.402244094488189
11
0.0548503937007874
21
0.402244094488189
0
LINE
8
BLACK
6
CONTINUOUS
10
0.0548503937007874
20
0.402244094488189
11
0.0548503937007874
21
0.4222440944881889
0
LINE
8
BLACK
6
CONTINUOUS
10
0.0548503937007874
20
0.4222440944881889
11
0.0215433070866142
21
0.4222440944881889
0
LINE
8
BLACK
6
CONTINUOUS
10
0.0215433070866142
20
0.4222440944881889
11
0.0177767322834646
21
0.4229933070866141
0
LINE
8
BLACK
6
CONTINUOUS
10
0.0177767322834646
20
0.4229933070866141
11
0.0145835826771654
21
0.4251268897637795
0
LINE
8
BLACK
6
CONTINUOUS
10
0.0145835826771654
20
0.4251268897637795
11
0.01245
21
0.4283200393700787
0
LINE
8
BLACK
6
CONTINUOUS
10
0.01245
20
0.4283200393700787
11
0.0117007874015748
21
0.4320866141732284
0
LINE
8
BLACK
6
CONTINUOUS
10
0.0117007874015748
20
0.4320866141732284
11
0.0117007874015748
21
0.4517716535433071
0
LINE
8
BLACK
6
CONTINUOUS
10
0.0117007874015748
20
0.4517716535433071
11
0.01245
21
0.4555382283464567
0
LINE
8
BLACK
6
CONTINUOUS
10
0.01245
20
0.4555382283464567
11
0.0145835826771654
21
0.4587313779527559
0
LINE
8
BLACK
6
CONTINUOUS
10
0.0145835826771654
20
0.4587313779527559
11
0.0177767322834646
21
0.4608649606299213
0
LINE
8
BLACK
6
CONTINUOUS
10
0.0177767322834646
20
0.4608649606299213
11
0.0215433070866142
21
0.4616141732283465
0
LINE
8
BLACK
6
CONTINUOUS
10
0.0215433070866142
20
0.4616141732283465
11
0.0548503937007874
21
0.4616141732283465
0
LINE
8
BLACK
6
CONTINUOUS
10
0.0548503937007874
20
0.4616141732283465
11
0.0548503937007874
21
0.4816141732283464
0
LINE
8
BLACK
6
CONTINUOUS
10
0.0548503937007874
20
0.4816141732283464
11
0.0226181102362205
21
0.4816141732283464
0
LINE
8
BLACK
6
CONTINUOUS
10
0.0226181102362205
20
0.4816141732283464
11
0.020558031496063
21
0.4824674803149606
0
LINE
8
BLACK
6
CONTINUOUS
10
0.020558031496063
20
0.4824674803149606
11
0.0197047244094488
21
0.4845275590551181
0
LINE
8
BLACK
6
CONTINUOUS
10
0.0197047244094488
20
0.4845275590551181
11
0.0197047244094488
21
0.5679330708661418
0
LINE
8
BLACK
6
CONTINUOUS
10
0.0197047244094488
20
0.5679330708661418
11
0.020558031496063
21
0.5699931496062992
0
LINE
8
BLACK
6
CONTINUOUS
10
0.020558031496063
20
0.5699931496062992
11
0.0226181102362205
21
0.5708464566929133
0
LINE
8
BLACK
6
CONTINUOUS
10
0.0226181102362205
20
0.5708464566929133
11
0.0321756299212598
21
0.5708464566929133
0
LINE
8
BLACK
6
CONTINUOUS
10
0.0321756299212598
20
0.5708464566929133
11
0.0342357086614173
21
0.5699931496062992
0
LINE
8
BLACK
6
CONTINUOUS
10
0.0748503937007874
20
0.1683070866141732
11
0.1081574803149606
21
0.1683070866141732
0
LINE
8
BLACK
6
CONTINUOUS
10
0.1081574803149606
20
0.1683070866141732
11
0.1119240551181102
21
0.167557874015748
0
LINE
8
BLACK
6
CONTINUOUS
10
0.1119240551181102
20
0.167557874015748
11
0.1151172047244094
21
0.1654242913385827
0
LINE
8
BLACK
6
CONTINUOUS
10
0.1151172047244094
20
0.1654242913385827
11
0.1172507874015748
21
0.1622311417322835
0
LINE
8
BLACK
6
CONTINUOUS
10
0.1172507874015748
20
0.1622311417322835
11
0.1179686614173228
21
0.1586220472440945
0
LINE
8
BLACK
6
CONTINUOUS
10
0.1179686614173228
20
0.1586220472440945
11
0.138
21
0.1586220472440945
0
LINE
8
BLACK
6
CONTINUOUS
10
0.138
20
0.1586220472440945
11
0.138
21
0.160452874015748
0
LINE
8
BLACK
6
CONTINUOUS
10
0.138
20
0.160452874015748
11
0.1379999606299213
21
0.1604529527559055
0
LINE
8
BLACK
6
CONTINUOUS
10
0.1379999606299213
20
0.1604529527559055
11
0.1375824015748031
21
0.1645403937007874
0
LINE
8
BLACK
6
CONTINUOUS
10
0.1375824015748031
20
0.1645403937007874
11
0.1353880708661417
21
0.1711624015748031
0
LINE
8
BLACK
6
CONTINUOUS
10
0.1353880708661417
20
0.1711624015748031
11
0.1317257480314961
21
0.1770999606299213
0
LINE
8
BLACK
6
CONTINUOUS
10
0.1317257480314961
20
0.1770999606299213
11
0.1317256692913386
21
0.1771000787401575
0
LINE
8
BLACK
6
CONTINUOUS
10
0.1317256692913386
20
0.1771000787401575
11
0.1267929921259842
21
0.1820327559055118
0
LINE
8
BLACK
6
CONTINUOUS
10
0.1267929921259842
20
0.1820327559055118
11
0.1267928346456693
21
0.182032874015748
0
LINE
8
BLACK
6
CONTINUOUS
10
0.1267928346456693
20
0.182032874015748
11
0.1208552755905512
21
0.1856951968503937
0
LINE
8
BLACK
6
CONTINUOUS
10
0.1208552755905512
20
0.1856951968503937
11
0.1142332677165354
21
0.1878895275590551
0
LINE
8
BLACK
6
CONTINUOUS
10
0.1142332677165354
20
0.1878895275590551
11
0.1101458267716535
21
0.1883070866141732
0
LINE
8
BLACK
6
CONTINUOUS
10
0.1101458267716535
20
0.1883070866141732
11
0.0748503937007874
21
0.1883070866141732
0
LINE
8
BLACK
6
CONTINUOUS
10
0.0748503937007874
20
0.1883070866141732
11
0.0748503937007874
21
0.1683070866141732
0
LINE
8
BLACK
6
CONTINUOUS
10
0.2225695275590551
20
0.2113753543307087
11
0.2206536614173228
21
0.2100951968503937
0
LINE
8
BLACK
6
CONTINUOUS
10
0.2206536614173228
20
0.2100951968503937
11
0.2183937007874016
21
0.2096456692913386
0
LINE
8
BLACK
6
CONTINUOUS
10
0.2183937007874016
20
0.2096456692913386
11
0.2008346456692913
21
0.2096456692913386
0
LINE
8
BLACK
6
CONTINUOUS
10
0.2008346456692913
20
0.2096456692913386
11
0.2008346456692913
21
0.1896457086614173
0
LINE
8
BLACK
6
CONTINUOUS
10
0.2008346456692913
20
0.1896457086614173
11
0.2210100393700787
21
0.1896457086614173
0
LINE
8
BLACK
6
CONTINUOUS
10
0.2210100393700787
20
0.1896457086614173
11
0.2210100787401575
21
0.1896457480314961
0
LINE
8
BLACK
6
CONTINUOUS
10
0.2210100787401575
20
0.1896457480314961
11
0.2224784251968504
21
0.1897612598425197
0
LINE
8
BLACK
6
CONTINUOUS
10
0.2224784251968504
20
0.1897612598425197
11
0.2287638188976378
21
0.1915873622047244
0
LINE
8
BLACK
6
CONTINUOUS
10
0.2287638188976378
20
0.1915873622047244
11
0.2343975590551181
21
0.1949191338582677
0
LINE
8
BLACK
6
CONTINUOUS
10
0.2343975590551181
20
0.1949191338582677
11
0.2390257480314961
21
0.1995473228346457
0
LINE
8
BLACK
6
CONTINUOUS
10
0.2390257480314961
20
0.1995473228346457
11
0.2423575196850394
21
0.205181062992126
0
LINE
8
BLACK
6
CONTINUOUS
10
0.2423575196850394
20
0.205181062992126
11
0.2441808267716535
21
0.2114566929133858
0
LINE
8
BLACK
6
CONTINUOUS
10
0.2441808267716535
20
0.2114566929133858
11
0.2226238582677165
21
0.2114566929133858
0
LINE
8
BLACK
6
CONTINUOUS
10
0.2226238582677165
20
0.2114566929133858
11
0.2225695275590551
21
0.2113753543307087
0
LINE
8
BLACK
6
CONTINUOUS
10
0.1393117322834646
20
0.205181062992126
11
0.1426435039370079
21
0.1995473228346457
0
LINE
8
BLACK
6
CONTINUOUS
10
0.1426435039370079
20
0.1995473228346457
11
0.1472716929133858
21
0.1949191338582677
0
LINE
8
BLACK
6
CONTINUOUS
10
0.1472716929133858
20
0.1949191338582677
11
0.1529054330708661
21
0.1915873622047244
0
LINE
8
BLACK
6
CONTINUOUS
10
0.1529054330708661
20
0.1915873622047244
11
0.159190748031496
21
0.1897612598425197
0
LINE
8
BLACK
6
CONTINUOUS
10
0.159190748031496
20
0.1897612598425197
11
0.1606591732283464
21
0.1896457086614173
0
LINE
8
BLACK
6
CONTINUOUS
10
0.1606591732283464
20
0.1896457086614173
11
0.1808346456692913
21
0.1896457086614173
0
LINE
8
BLACK
6
CONTINUOUS
10
0.1808346456692913
20
0.1896457086614173
11
0.1808346456692913
21
0.2096456692913386
0
LINE
8
BLACK
6
CONTINUOUS
10
0.1808346456692913
20
0.2096456692913386
11
0.1632755905511811
21
0.2096456692913386
0
LINE
8
BLACK
6
CONTINUOUS
10
0.1632755905511811
20
0.2096456692913386
11
0.1610156299212598
21
0.2100951968503937
0
LINE
8
BLACK
6
CONTINUOUS
10
0.1610156299212598
20
0.2100951968503937
11
0.1590997637795276
21
0.2113753543307087
0
LINE
8
BLACK
6
CONTINUOUS
10
0.1590997637795276
20
0.2113753543307087
11
0.1590454330708661
21
0.2114566929133858
0
LINE
8
BLACK
6
CONTINUOUS
10
0.1590454330708661
20
0.2114566929133858
11
0.1374884645669291
21
0.2114566929133858
0
LINE
8
BLACK
6
CONTINUOUS
10
0.1374884645669291
20
0.2114566929133858
11
0.1393117322834646
21
0.205181062992126
0
LINE
8
BLACK
6
CONTINUOUS
10
0.2438283070866142
20
0.3930332677165354
11
0.2438282677165354
21
0.3930332677165354
0
LINE
8
BLACK
6
CONTINUOUS
10
0.2438282677165354
20
0.3930332677165354
11
0.2380770866141732
21
0.3906510236220472
0
LINE
8
BLACK
6
CONTINUOUS
10
0.2380770866141732
20
0.3906510236220472
11
0.2331385826771654
21
0.3868616141732283
0
LINE
8
BLACK
6
CONTINUOUS
10
0.2331385826771654
20
0.3868616141732283
11
0.2331385433070866
21
0.3868615748031496
0
LINE
8
BLACK
6
CONTINUOUS
10
0.2331385433070866
20
0.3868615748031496
11
0.2331384251968504
21
0.3868614173228346
0
LINE
8
BLACK
6
CONTINUOUS
10
0.2331384251968504
20
0.3868614173228346
11
0.2324789763779528
21
0.3860020472440945
0
LINE
8
BLACK
6
CONTINUOUS
10
0.2324789763779528
20
0.3860020472440945
11
0.2305479921259843
21
0.384887125984252
0
LINE
8
BLACK
6
CONTINUOUS
10
0.2305479921259843
20
0.384887125984252
11
0.2301676771653543
21
0.3848622047244095
0
LINE
8
BLACK
6
CONTINUOUS
10
0.2301676771653543
20
0.3848622047244095
11
0.2292532677165354
21
0.3848622047244095
0
LINE
8
BLACK
6
CONTINUOUS
10
0.2292532677165354
20
0.3848622047244095
11
0.2271931889763779
21
0.3857155118110236
0
LINE
8
BLACK
6
CONTINUOUS
10
0.2271931889763779
20
0.3857155118110236
11
0.2265229133858268
21
0.3863857874015748
0
LINE
8
BLACK
6
CONTINUOUS
10
0.2265229133858268
20
0.3863857874015748
11
0.2223855905511811
21
0.3884083858267716
0
LINE
8
BLACK
6
CONTINUOUS
10
0.2223855905511811
20
0.3884083858267716
11
0.2197033070866142
21
0.3887992125984252
0
LINE
8
BLACK
6
CONTINUOUS
10
0.2197033070866142
20
0.3887992125984252
11
0.2197031496062992
21
0.3887992125984252
0
LINE
8
BLACK
6
CONTINUOUS
10
0.2197031496062992
20
0.3887992125984252
11
0.1619661417322835
21
0.3887992125984252
0
LINE
8
BLACK
6
CONTINUOUS
10
0.1619661417322835
20
0.3887992125984252
11
0.1619659448818898
21
0.3887992125984252
0
LINE
8
BLACK
6
CONTINUOUS
10
0.1619659448818898
20
0.3887992125984252
11
0.1592837007874016
21
0.3884083858267716
0
LINE
8
BLACK
6
CONTINUOUS
10
0.1592837007874016
20
0.3884083858267716
11
0.1592836614173228
21
0.3884083858267716
0
LINE
8
BLACK
6
CONTINUOUS
10
0.1592836614173228
20
0.3884083858267716
11
0.1551463385826772
21
0.3863857874015748
0
LINE
8
BLACK
6
CONTINUOUS
10
0.1551463385826772
20
0.3863857874015748
11
0.1550402362204724
21
0.38631
0
LINE
8
BLACK
6
CONTINUOUS
10
0.1550402362204724
20
0.38631
11
0.1533474015748031
21
0.3857677165354331
0
LINE
8
BLACK
6
CONTINUOUS
10
0.1533474015748031
20
0.3857677165354331
11
0.1291374803149606
21
0.3857677165354331
0
LINE
8
BLACK
6
CONTINUOUS
10
0.1291374803149606
20
0.3857677165354331
11
0.1270774015748032
21
0.3866210236220473
0
LINE
8
BLACK
6
CONTINUOUS
10
0.1270774015748032
20
0.3866210236220473
11
0.1269024015748031
21
0.3868205511811024
0
LINE
8
BLACK
6
CONTINUOUS
10
0.1269024015748031
20
0.3868205511811024
11
0.1268612992125984
21
0.3868616929133858
0
LINE
8
BLACK
6
CONTINUOUS
10
0.1268612992125984
20
0.3868616929133858
11
0.121922874015748
21
0.3906510236220472
0
LINE
8
BLACK
6
CONTINUOUS
10
0.121922874015748
20
0.3906510236220472
11
0.1161716929133858
21
0.3930332677165354
0
LINE
8
BLACK
6
CONTINUOUS
10
0.1161716929133858
20
0.3930332677165354
11
0.11
21
0.3938457480314961
0
LINE
8
BLACK
6
CONTINUOUS
10
0.11
20
0.3938457480314961
11
0.1038283070866142
21
0.3930332677165354
0
LINE
8
BLACK
6
CONTINUOUS
10
0.1038283070866142
20
0.3930332677165354
11
0.1038282677165354
21
0.3930332677165354
0
LINE
8
BLACK
6
CONTINUOUS
10
0.1038282677165354
20
0.3930332677165354
11
0.0980770866141732
21
0.3906510236220472
0
LINE
8
BLACK
6
CONTINUOUS
10
0.0980770866141732
20
0.3906510236220472
11
0.0931385826771653
21
0.3868616141732283
0
LINE
8
BLACK
6
CONTINUOUS
10
0.0931385826771653
20
0.3868616141732283
11
0.0931383858267717
21
0.3868614173228346
0
LINE
8
BLACK
6
CONTINUOUS
10
0.0931383858267717
20
0.3868614173228346
11
0.0893489763779527
21
0.3819229133858268
0
LINE
8
BLACK
6
CONTINUOUS
10
0.0893489763779527
20
0.3819229133858268
11
0.0869667322834646
21
0.3761717322834646
0
LINE
8
BLACK
6
CONTINUOUS
10
0.0869667322834646
20
0.3761717322834646
11
0.0869667322834646
21
0.3761716929133858
0
LINE
8
BLACK
6
CONTINUOUS
10
0.0869667322834646
20
0.3761716929133858
11
0.0861542519685039
21
0.37
0
LINE
8
BLACK
6
CONTINUOUS
10
0.0861542519685039
20
0.37
11
0.0869667322834646
21
0.3638283464566929
0
LINE
8
BLACK
6
CONTINUOUS
10
0.0869667322834646
20
0.3638283464566929
11
0.0869667322834646
21
0.3638283070866142
0
LINE
8
BLACK
6
CONTINUOUS
10
0.0869667322834646
20
0.3638283070866142
11
0.0893489763779527
21
0.358077125984252
0
LINE
8
BLACK
6
CONTINUOUS
10
0.0893489763779527
20
0.358077125984252
11
0.0931383858267717
21
0.3531386220472441
0
LINE
8
BLACK
6
CONTINUOUS
10
0.0931383858267717
20
0.3531386220472441
11
0.0931385826771653
21
0.3531384251968504
0
LINE
8
BLACK
6
CONTINUOUS
10
0.0931385826771653
20
0.3531384251968504
11
0.0940051968503937
21
0.3524734645669291
0
LINE
8
BLACK
6
CONTINUOUS
10
0.0940051968503937
20
0.3524734645669291
11
0.098077125984252
21
0.3493489763779528
0
LINE
8
BLACK
6
CONTINUOUS
10
0.098077125984252
20
0.3493489763779528
11
0.1038282677165354
21
0.3469667716535433
0
LINE
8
BLACK
6
CONTINUOUS
10
0.1038282677165354
20
0.3469667716535433
11
0.11
21
0.3461542519685039
0
LINE
8
BLACK
6
CONTINUOUS
10
0.11
20
0.3461542519685039
11
0.1161717322834646
21
0.3469667716535433
0
LINE
8
BLACK
6
CONTINUOUS
10
0.1161717322834646
20
0.3469667716535433
11
0.121922874015748
21
0.3493489763779528
0
LINE
8
BLACK
6
CONTINUOUS
10
0.121922874015748
20
0.3493489763779528
11
0.1268614960629921
21
0.3531385039370079
0
LINE
8
BLACK
6
CONTINUOUS
10
0.1268614960629921
20
0.3531385039370079
11
0.1268616141732283
21
0.3531387007874016
0
LINE
8
BLACK
6
CONTINUOUS
10
0.1268616141732283
20
0.3531387007874016
11
0.1269963385826772
21
0.3532733858267716
0
LINE
8
BLACK
6
CONTINUOUS
10
0.1269963385826772
20
0.3532733858267716
11
0.1270487007874016
21
0.3532210236220472
0
LINE
8
BLACK
6
CONTINUOUS
10
0.1270487007874016
20
0.3532210236220472
11
0.1287572834645669
21
0.3542073622047244
0
LINE
8
BLACK
6
CONTINUOUS
10
0.1287572834645669
20
0.3542073622047244
11
0.1291374803149606
21
0.3542322834645669
0
LINE
8
BLACK
6
CONTINUOUS
10
0.1291374803149606
20
0.3542322834645669
11
0.1515105118110236
21
0.3542322834645669
0
LINE
8
BLACK
6
CONTINUOUS
10
0.1515105118110236
20
0.3542322834645669
11
0.1535705905511811
21
0.3533789763779527
0
LINE
8
BLACK
6
CONTINUOUS
10
0.1535705905511811
20
0.3533789763779527
11
0.1551463385826772
21
0.3518032283464567
0
LINE
8
BLACK
6
CONTINUOUS
10
0.1551463385826772
20
0.3518032283464567
11
0.1592837401574803
21
0.3497805905511811
0
LINE
8
BLACK
6
CONTINUOUS
10
0.1592837401574803
20
0.3497805905511811
11
0.1619661417322835
21
0.3493897637795276
0
LINE
8
BLACK
6
CONTINUOUS
10
0.1619661417322835
20
0.3493897637795276
11
0.1619663779527559
21
0.3493897637795276
0
LINE
8
BLACK
6
CONTINUOUS
10
0.1619663779527559
20
0.3493897637795276
11
0.2197029133858268
21
0.3493897637795276
0
LINE
8
BLACK
6
CONTINUOUS
10
0.2197029133858268
20
0.3493897637795276
11
0.2197031496062992
21
0.3493897637795276
0
LINE
8
BLACK
6
CONTINUOUS
10
0.2197031496062992
20
0.3493897637795276
11
0.2223855511811024
21
0.3497805905511811
0
LINE
8
BLACK
6
CONTINUOUS
10
0.2223855511811024
20
0.3497805905511811
11
0.2265229527559055
21
0.3518032283464567
0
LINE
8
BLACK
6
CONTINUOUS
10
0.2265229527559055
20
0.3518032283464567
11
0.2271931889763779
21
0.3524734645669291
0
LINE
8
BLACK
6
CONTINUOUS
10
0.2271931889763779
20
0.3524734645669291
11
0.2292532677165354
21
0.3533267716535433
0
LINE
8
BLACK
6
CONTINUOUS
10
0.2292532677165354
20
0.3533267716535433
11
0.2319041732283464
21
0.3533267716535433
0
LINE
8
BLACK
6
CONTINUOUS
10
0.2319041732283464
20
0.3533267716535433
11
0.2336777165354331
21
0.3527247244094488
0
LINE
8
BLACK
6
CONTINUOUS
10
0.2336777165354331
20
0.3527247244094488
11
0.2348786614173228
21
0.3518032283464567
0
LINE
8
BLACK
6
CONTINUOUS
10
0.2348786614173228
20
0.3518032283464567
11
0.238077125984252
21
0.3493489763779528
0
LINE
8
BLACK
6
CONTINUOUS
10
0.238077125984252
20
0.3493489763779528
11
0.2438282677165354
21
0.3469667716535433
0
LINE
8
BLACK
6
CONTINUOUS
10
0.2438282677165354
20
0.3469667716535433
11
0.25
21
0.3461542519685039
0
LINE
8
BLACK
6
CONTINUOUS
10
0.25
20
0.3461542519685039
11
0.2561717322834646
21
0.3469667716535433
0
LINE
8
BLACK
6
CONTINUOUS
10
0.2561717322834646
20
0.3469667716535433
11
0.261922874015748
21
0.3493489763779528
0
LINE
8
BLACK
6
CONTINUOUS
10
0.261922874015748
20
0.3493489763779528
11
0.2668614960629921
21
0.3531385039370079
0
LINE
8
BLACK
6
CONTINUOUS
10
0.2668614960629921
20
0.3531385039370079
11
0.2706510236220472
21
0.358077125984252
0
LINE
8
BLACK
6
CONTINUOUS
10
0.2706510236220472
20
0.358077125984252
11
0.2730332283464567
21
0.3638282677165354
0
LINE
8
BLACK
6
CONTINUOUS
10
0.2730332283464567
20
0.3638282677165354
11
0.2738457480314961
21
0.37
0
LINE
8
BLACK
6
CONTINUOUS
10
0.2738457480314961
20
0.37
11
0.2730332283464567
21
0.3761717322834646
0
LINE
8
BLACK
6
CONTINUOUS
10
0.2730332283464567
20
0.3761717322834646
11
0.2706510236220472
21
0.381922874015748
0
LINE
8
BLACK
6
CONTINUOUS
10
0.2706510236220472
20
0.381922874015748
11
0.2683764960629921
21
0.384887125984252
0
LINE
8
BLACK
6
CONTINUOUS
10
0.2683764960629921
20
0.384887125984252
11
0.2668615748031496
21
0.3868614173228346
0
LINE
8
BLACK
6
CONTINUOUS
10
0.2668615748031496
20
0.3868614173228346
11
0.2668613779527559
21
0.3868616141732283
0
LINE
8
BLACK
6
CONTINUOUS
10
0.2668613779527559
20
0.3868616141732283
11
0.261922874015748
21
0.3906510236220472
0
LINE
8
BLACK
6
CONTINUOUS
10
0.261922874015748
20
0.3906510236220472
11
0.2561716929133858
21
0.3930332677165354
0
LINE
8
BLACK
6
CONTINUOUS
10
0.2561716929133858
20
0.3930332677165354
11
0.25
21
0.3938457480314961
0
LINE
8
BLACK
6
CONTINUOUS
10
0.25
20
0.3938457480314961
11
0.2438283070866142
21
0.3930332677165354
0
LINE
8
BLACK
6
CONTINUOUS
10
0.0748503937007874
20
0.4616141732283465
11
0.1081574803149606
21
0.4616141732283465
0
LINE
8
BLACK
6
CONTINUOUS
10
0.1081574803149606
20
0.4616141732283465
11
0.1119240551181102
21
0.4608649606299213
0
LINE
8
BLACK
6
CONTINUOUS
10
0.1119240551181102
20
0.4608649606299213
11
0.1151172047244094
21
0.4587313779527559
0
LINE
8
BLACK
6
CONTINUOUS
10
0.1151172047244094
20
0.4587313779527559
11
0.1172507874015748
21
0.4555382283464567
0
LINE
8
BLACK
6
CONTINUOUS
10
0.1172507874015748
20
0.4555382283464567
11
0.1179686614173228
21
0.4519291338582677
0
LINE
8
BLACK
6
CONTINUOUS
10
0.1179686614173228
20
0.4519291338582677
11
0.138
21
0.4519291338582677
0
LINE
8
BLACK
6
CONTINUOUS
10
0.138
20
0.4519291338582677
11
0.138
21
0.4537599606299212
0
LINE
8
BLACK
6
CONTINUOUS
10
0.138
20
0.4537599606299212
11
0.1379999606299213
21
0.4537600393700787
0
LINE
8
BLACK
6
CONTINUOUS
10
0.1379999606299213
20
0.4537600393700787
11
0.1375824015748031
21
0.4578474803149606
0
LINE
8
BLACK
6
CONTINUOUS
10
0.1375824015748031
20
0.4578474803149606
11
0.1353880708661417
21
0.4644694881889764
0
LINE
8
BLACK
6
CONTINUOUS
10
0.1353880708661417
20
0.4644694881889764
11
0.1317257480314961
21
0.4704070472440945
0
LINE
8
BLACK
6
CONTINUOUS
10
0.1317257480314961
20
0.4704070472440945
11
0.1317256692913386
21
0.4704071653543307
0
LINE
8
BLACK
6
CONTINUOUS
10
0.1317256692913386
20
0.4704071653543307
11
0.1267929921259842
21
0.475339842519685
0
LINE
8
BLACK
6
CONTINUOUS
10
0.1267929921259842
20
0.475339842519685
11
0.1267928346456693
21
0.4753399606299212
0
LINE
8
BLACK
6
CONTINUOUS
10
0.1267928346456693
20
0.4753399606299212
11
0.1208552755905512
21
0.4790022834645669
0
LINE
8
BLACK
6
CONTINUOUS
10
0.1208552755905512
20
0.4790022834645669
11
0.1142332677165354
21
0.4811966141732283
0
LINE
8
BLACK
6
CONTINUOUS
10
0.1142332677165354
20
0.4811966141732283
11
0.1101458267716535
21
0.4816141732283464
0
LINE
8
BLACK
6
CONTINUOUS
10
0.1101458267716535
20
0.4816141732283464
11
0.0748503937007874
21
0.4816141732283464
0
LINE
8
BLACK
6
CONTINUOUS
10
0.0748503937007874
20
0.4816141732283464
11
0.0748503937007874
21
0.4616141732283465
0
LINE
8
BLACK
6
CONTINUOUS
10
0.1101457874015748
20
0.1089370078740158
11
0.1101458267716535
21
0.1089370472440945
0
LINE
8
BLACK
6
CONTINUOUS
10
0.1101458267716535
20
0.1089370472440945
11
0.1142332677165354
21
0.1093546062992126
0
LINE
8
BLACK
6
CONTINUOUS
10
0.1142332677165354
20
0.1093546062992126
11
0.1208552755905512
21
0.111548937007874
0
LINE
8
BLACK
6
CONTINUOUS
10
0.1208552755905512
20
0.111548937007874
11
0.1267928346456693
21
0.1152112598425197
0
LINE
8
BLACK
6
CONTINUOUS
10
0.1267928346456693
20
0.1152112598425197
11
0.1267929921259842
21
0.1152113385826772
0
LINE
8
BLACK
6
CONTINUOUS
10
0.1267929921259842
20
0.1152113385826772
11
0.1317256692913386
21
0.1201440157480315
0
LINE
8
BLACK
6
CONTINUOUS
10
0.1317256692913386
20
0.1201440157480315
11
0.1317257480314961
21
0.1201441732283465
0
LINE
8
BLACK
6
CONTINUOUS
10
0.1317257480314961
20
0.1201441732283465
11
0.1353880708661417
21
0.1260817322834646
0
LINE
8
BLACK
6
CONTINUOUS
10
0.1353880708661417
20
0.1260817322834646
11
0.1375824015748031
21
0.1327037401574803
0
LINE
8
BLACK
6
CONTINUOUS
10
0.1375824015748031
20
0.1327037401574803
11
0.1379999606299213
21
0.1367911811023622
0
LINE
8
BLACK
6
CONTINUOUS
10
0.1379999606299213
20
0.1367911811023622
11
0.138
21
0.1367912598425197
0
LINE
8
BLACK
6
CONTINUOUS
10
0.138
20
0.1367912598425197
11
0.138
21
0.1386220472440945
0
LINE
8
BLACK
6
CONTINUOUS
10
0.138
20
0.1386220472440945
11
0.1179686614173228
21
0.1386220472440945
0
LINE
8
BLACK
6
CONTINUOUS
10
0.1179686614173228
20
0.1386220472440945
11
0.1172507874015748
21
0.1350129527559055
0
LINE
8
BLACK
6
CONTINUOUS
10
0.1172507874015748
20
0.1350129527559055
11
0.1151172047244094
21
0.1318198031496063
0
LINE
8
BLACK
6
CONTINUOUS
10
0.1151172047244094
20
0.1318198031496063
11
0.1119240551181102
21
0.1296862204724409
0
LINE
8
BLACK
6
CONTINUOUS
10
0.1119240551181102
20
0.1296862204724409
11
0.1081574803149606
21
0.1289370078740157
0
LINE
8
BLACK
6
CONTINUOUS
10
0.1081574803149606
20
0.1289370078740157
11
0.0748503937007874
21
0.1289370078740157
0
LINE
8
BLACK
6
CONTINUOUS
10
0.0748503937007874
20
0.1289370078740157
11
0.0748503937007874
21
0.1089370078740158
0
LINE
8
BLACK
6
CONTINUOUS
10
0.0748503937007874
20
0.1089370078740158
11
0.1101457874015748
21
0.1089370078740158
0
LINE
8
BLACK
6
CONTINUOUS
10
0.1101457874015748
20
0.402244094488189
11
0.1101458267716535
21
0.4022441338582677
0
LINE
8
BLACK
6
CONTINUOUS
10
0.1101458267716535
20
0.4022441338582677
11
0.1142332677165354
21
0.4026616929133858
0
LINE
8
BLACK
6
CONTINUOUS
10
0.1142332677165354
20
0.4026616929133858
11
0.1208552755905512
21
0.4048560236220473
0
LINE
8
BLACK
6
CONTINUOUS
10
0.1208552755905512
20
0.4048560236220473
11
0.1267928346456693
21
0.4085183464566929
0
LINE
8
BLACK
6
CONTINUOUS
10
0.1267928346456693
20
0.4085183464566929
11
0.1267929921259842
21
0.4085184251968504
0
LINE
8
BLACK
6
CONTINUOUS
10
0.1267929921259842
20
0.4085184251968504
11
0.1317256692913386
21
0.4134511023622047
0
LINE
8
BLACK
6
CONTINUOUS
10
0.1317256692913386
20
0.4134511023622047
11
0.1317257480314961
21
0.4134512598425197
0
LINE
8
BLACK
6
CONTINUOUS
10
0.1317257480314961
20
0.4134512598425197
11
0.1353880708661417
21
0.4193888188976378
0
LINE
8
BLACK
6
CONTINUOUS
10
0.1353880708661417
20
0.4193888188976378
11
0.1375824015748031
21
0.4260108267716535
0
LINE
8
BLACK
6
CONTINUOUS
10
0.1375824015748031
20
0.4260108267716535
11
0.1379999606299213
21
0.4300982677165354
0
LINE
8
BLACK
6
CONTINUOUS
10
0.1379999606299213
20
0.4300982677165354
11
0.138
21
0.4300983464566929
0
LINE
8
BLACK
6
CONTINUOUS
10
0.138
20
0.4300983464566929
11
0.138
21
0.4319291338582677
0
LINE
8
BLACK
6
CONTINUOUS
10
0.138
20
0.4319291338582677
11
0.1179686614173228
21
0.4319291338582677
0
LINE
8
BLACK
6
CONTINUOUS
10
0.1179686614173228
20
0.4319291338582677
11
0.1172507874015748
21
0.4283200393700787
0
LINE
8
BLACK
6
CONTINUOUS
10
0.1172507874015748
20
0.4283200393700787
11
0.1151172047244094
21
0.4251268897637795
0
LINE
8
BLACK
6
CONTINUOUS
10
0.1151172047244094
20
0.4251268897637795
11
0.1119240551181102
21
0.4229933070866141
0
LINE
8
BLACK
6
CONTINUOUS
10
0.1119240551181102
20
0.4229933070866141
11
0.1081574803149606
21
0.4222440944881889
0
LINE
8
BLACK
6
CONTINUOUS
10
0.1081574803149606
20
0.4222440944881889
11
0.0748503937007874
21
0.4222440944881889
0
LINE
8
BLACK
6
CONTINUOUS
10
0.0748503937007874
20
0.4222440944881889
11
0.0748503937007874
21
0.402244094488189
0
LINE
8
BLACK
6
CONTINUOUS
10
0.0748503937007874
20
0.402244094488189
11
0.1101457874015748
21
0.402244094488189
0
LINE
8
BLACK
6
CONTINUOUS
10
0.5468664173228346
20
0.1761070866141732
11
0.5512564566929133
21
0.1738702362204724
0
LINE
8
BLACK
6
CONTINUOUS
10
0.5512564566929133
20
0.1738702362204724
11
0.5547404330708662
21
0.1703862598425197
0
LINE
8
BLACK
6
CONTINUOUS
10
0.5547404330708662
20
0.1703862598425197
11
0.5569772834645669
21
0.1659962204724409
0
LINE
8
BLACK
6
CONTINUOUS
10
0.5569772834645669
20
0.1659962204724409
11
0.557748031496063
21
0.1611298031496063
0
LINE
8
BLACK
6
CONTINUOUS
10
0.557748031496063
20
0.1611298031496063
11
0.5569772834645669
21
0.1562633858267717
0
LINE
8
BLACK
6
CONTINUOUS
10
0.5569772834645669
20
0.1562633858267717
11
0.5547404330708662
21
0.1518733464566929
0
LINE
8
BLACK
6
CONTINUOUS
10
0.5547404330708662
20
0.1518733464566929
11
0.5512564566929133
21
0.1483893700787401
0
LINE
8
BLACK
6
CONTINUOUS
10
0.5512564566929133
20
0.1483893700787401
11
0.5468664173228346
21
0.1461525196850394
0
LINE
8
BLACK
6
CONTINUOUS
10
0.5468664173228346
20
0.1461525196850394
11
0.542
21
0.1453817716535433
0
LINE
8
BLACK
6
CONTINUOUS
10
0.542
20
0.1453817716535433
11
0.5371335826771654
21
0.1461525196850394
0
LINE
8
BLACK
6
CONTINUOUS
10
0.5371335826771654
20
0.1461525196850394
11
0.5359681496062992
21
0.1467463385826772
0
LINE
8
BLACK
6
CONTINUOUS
10
0.5359681496062992
20
0.1467463385826772
11
0.4670460236220472
21
0.0778241732283464
0
LINE
8
BLACK
6
CONTINUOUS
10
0.4670460236220472
20
0.0778241732283464
11
0.4661511023622047
21
0.0770897244094488
0
LINE
8
BLACK
6
CONTINUOUS
10
0.4661511023622047
20
0.0770897244094488
11
0.464904094488189
21
0.0765732283464567
0
LINE
8
BLACK
6
CONTINUOUS
10
0.464904094488189
20
0.0765732283464567
11
0.4640223228346457
21
0.0762079527559055
0
LINE
8
BLACK
6
CONTINUOUS
10
0.4640223228346457
20
0.0762079527559055
11
0.4634783464566929
21
0.0761544094488189
0
LINE
8
BLACK
6
CONTINUOUS
10
0.4634783464566929
20
0.0761544094488189
11
0.4617404330708662
21
0.0727435433070866
0
LINE
8
BLACK
6
CONTINUOUS
10
0.4617404330708662
20
0.0727435433070866
11
0.4582564566929134
21
0.0692595669291339
0
LINE
8
BLACK
6
CONTINUOUS
10
0.4582564566929134
20
0.0692595669291339
11
0.4538664173228346
21
0.0670227165354331
0
LINE
8
BLACK
6
CONTINUOUS
10
0.4538664173228346
20
0.0670227165354331
11
0.449
21
0.066251968503937
0
LINE
8
BLACK
6
CONTINUOUS
10
0.449
20
0.066251968503937
11
0.4441335826771654
21
0.0670227165354331
0
LINE
8
BLACK
6
CONTINUOUS
10
0.4441335826771654
20
0.0670227165354331
11
0.4397435433070866
21
0.0692595669291339
0
LINE
8
BLACK
6
CONTINUOUS
10
0.4397435433070866
20
0.0692595669291339
11
0.4362595669291339
21
0.0727435433070866
0
LINE
8
BLACK
6
CONTINUOUS
10
0.4362595669291339
20
0.0727435433070866
11
0.4340227165354331
21
0.0771335826771654
0
LINE
8
BLACK
6
CONTINUOUS
10
0.4340227165354331
20
0.0771335826771654
11
0.433251968503937
21
0.082
0
LINE
8
BLACK
6
CONTINUOUS
10
0.433251968503937
20
0.082
11
0.4340227165354331
21
0.0868664173228346
0
LINE
8
BLACK
6
CONTINUOUS
10
0.4340227165354331
20
0.0868664173228346
11
0.4362595669291339
21
0.0912564566929134
0
LINE
8
BLACK
6
CONTINUOUS
10
0.4362595669291339
20
0.0912564566929134
11
0.4397435433070866
21
0.0947404330708661
0
LINE
8
BLACK
6
CONTINUOUS
10
0.4397435433070866
20
0.0947404330708661
11
0.4441335826771654
21
0.0969772834645669
0
LINE
8
BLACK
6
CONTINUOUS
10
0.4441335826771654
20
0.0969772834645669
11
0.449
21
0.097748031496063
0
LINE
8
BLACK
6
CONTINUOUS
10
0.449
20
0.097748031496063
11
0.4538664173228346
21
0.0969772834645669
0
LINE
8
BLACK
6
CONTINUOUS
10
0.4538664173228346
20
0.0969772834645669
11
0.4582564566929134
21
0.0947404330708661
0
LINE
8
BLACK
6
CONTINUOUS
10
0.4582564566929134
20
0.0947404330708661
11
0.4617404330708662
21
0.0912564566929134
0
LINE
8
BLACK
6
CONTINUOUS
10
0.4617404330708662
20
0.0912564566929134
11
0.4624271653543307
21
0.0899086614173228
0
LINE
8
BLACK
6
CONTINUOUS
10
0.4624271653543307
20
0.0899086614173228
11
0.5276164960629921
21
0.1550979921259842
0
LINE
8
BLACK
6
CONTINUOUS
10
0.5276164960629921
20
0.1550979921259842
11
0.5270227165354331
21
0.1562633858267717
0
LINE
8
BLACK
6
CONTINUOUS
10
0.5270227165354331
20
0.1562633858267717
11
0.526251968503937
21
0.1611298031496063
0
LINE
8
BLACK
6
CONTINUOUS
10
0.526251968503937
20
0.1611298031496063
11
0.5270227165354331
21
0.1659962204724409
0
LINE
8
BLACK
6
CONTINUOUS
10
0.5270227165354331
20
0.1659962204724409
11
0.5292595669291339
21
0.1703862598425197
0
LINE
8
BLACK
6
CONTINUOUS
10
0.5292595669291339
20
0.1703862598425197
11
0.5327435433070866
21
0.1738702362204724
0
LINE
8
BLACK
6
CONTINUOUS
10
0.5327435433070866
20
0.1738702362204724
11
0.5371335826771654
21
0.1761070866141732
0
LINE
8
BLACK
6
CONTINUOUS
10
0.5371335826771654
20
0.1761070866141732
11
0.542
21
0.1768778346456693
0
LINE
8
BLACK
6
CONTINUOUS
10
0.542
20
0.1768778346456693
11
0.5468664173228346
21
0.1761070866141732
0
LINE
8
BLACK
6
CONTINUOUS
10
0.4443253543307086
20
0.1587920472440945
11
0.4447357480314961
21
0.1586220472440945
0
LINE
8
BLACK
6
CONTINUOUS
10
0.4447357480314961
20
0.1586220472440945
11
0.4464541338582677
21
0.1579102755905512
0
LINE
8
BLACK
6
CONTINUOUS
10
0.4464541338582677
20
0.1579102755905512
11
0.4473490551181102
21
0.1571758267716535
0
LINE
8
BLACK
6
CONTINUOUS
10
0.4473490551181102
20
0.1571758267716535
11
0.4568119291338583
21
0.1477129527559055
0
LINE
8
BLACK
6
CONTINUOUS
10
0.4568119291338583
20
0.1477129527559055
11
0.4579773622047244
21
0.1483067322834646
0
LINE
8
BLACK
6
CONTINUOUS
10
0.4579773622047244
20
0.1483067322834646
11
0.4628437795275591
21
0.1490774803149606
0
LINE
8
BLACK
6
CONTINUOUS
10
0.4628437795275591
20
0.1490774803149606
11
0.4677101968503937
21
0.1483067322834646
0
LINE
8
BLACK
6
CONTINUOUS
10
0.4677101968503937
20
0.1483067322834646
11
0.4721002362204724
21
0.1460698818897638
0
LINE
8
BLACK
6
CONTINUOUS
10
0.4721002362204724
20
0.1460698818897638
11
0.4755842125984252
21
0.142585905511811
0
LINE
8
BLACK
6
CONTINUOUS
10
0.4755842125984252
20
0.142585905511811
11
0.477821062992126
21
0.1381958661417323
0
LINE
8
BLACK
6
CONTINUOUS
10
0.477821062992126
20
0.1381958661417323
11
0.478591811023622
21
0.1333294488188976
0
LINE
8
BLACK
6
CONTINUOUS
10
0.478591811023622
20
0.1333294488188976
11
0.477821062992126
21
0.128463031496063
0
LINE
8
BLACK
6
CONTINUOUS
10
0.477821062992126
20
0.128463031496063
11
0.4755842125984252
21
0.1240729921259842
0
LINE
8
BLACK
6
CONTINUOUS
10
0.4755842125984252
20
0.1240729921259842
11
0.4721002362204724
21
0.1205890157480315
0
LINE
8
BLACK
6
CONTINUOUS
10
0.4721002362204724
20
0.1205890157480315
11
0.4677101968503937
21
0.1183521653543307
0
LINE
8
BLACK
6
CONTINUOUS
10
0.4677101968503937
20
0.1183521653543307
11
0.4628437795275591
21
0.1175814173228346
0
LINE
8
BLACK
6
CONTINUOUS
10
0.4628437795275591
20
0.1175814173228346
11
0.4579773622047244
21
0.1183521653543307
0
LINE
8
BLACK
6
CONTINUOUS
10
0.4579773622047244
20
0.1183521653543307
11
0.4535873228346456
21
0.1205890157480315
0
LINE
8
BLACK
6
CONTINUOUS
10
0.4535873228346456
20
0.1205890157480315
11
0.4501033464566929
21
0.1240729921259842
0
LINE
8
BLACK
6
CONTINUOUS
10
0.4501033464566929
20
0.1240729921259842
11
0.4478664960629921
21
0.128463031496063
0
LINE
8
BLACK
6
CONTINUOUS
10
0.4478664960629921
20
0.128463031496063
11
0.447095748031496
21
0.1333294488188976
0
LINE
8
BLACK
6
CONTINUOUS
10
0.447095748031496
20
0.1333294488188976
11
0.4478664960629921
21
0.1381958661417323
0
LINE
8
BLACK
6
CONTINUOUS
10
0.4478664960629921
20
0.1381958661417323
11
0.4484602755905512
21
0.1393612992125984
0
LINE
8
BLACK
6
CONTINUOUS
10
0.4484602755905512
20
0.1393612992125984
11
0.4407270866141732
21
0.1470944881889764
0
LINE
8
BLACK
6
CONTINUOUS
10
0.4407270866141732
20
0.1470944881889764
11
0.2856715354330708
21
0.1470944881889764
0
LINE
8
BLACK
6
CONTINUOUS
10
0.2856715354330708
20
0.1470944881889764
11
0.2835292913385827
21
0.1449522834645669
0
LINE
8
BLACK
6
CONTINUOUS
10
0.2835292913385827
20
0.1449522834645669
11
0.2841231102362204
21
0.1437868503937008
0
LINE
8
BLACK
6
CONTINUOUS
10
0.2841231102362204
20
0.1437868503937008
11
0.2848938582677165
21
0.1389204330708661
0
LINE
8
BLACK
6
CONTINUOUS
10
0.2848938582677165
20
0.1389204330708661
11
0.2841231102362204
21
0.1340540157480315
0
LINE
8
BLACK
6
CONTINUOUS
10
0.2841231102362204
20
0.1340540157480315
11
0.2818862598425197
21
0.1296639763779528
0
LINE
8
BLACK
6
CONTINUOUS
10
0.2818862598425197
20
0.1296639763779528
11
0.2784022834645669
21
0.12618
0
LINE
8
BLACK
6
CONTINUOUS
10
0.2784022834645669
20
0.12618
11
0.2740122440944882
21
0.1239431496062992
0
LINE
8
BLACK
6
CONTINUOUS
10
0.2740122440944882
20
0.1239431496062992
11
0.2691458267716536
21
0.1231724015748032
0
LINE
8
BLACK
6
CONTINUOUS
10
0.2691458267716536
20
0.1231724015748032
11
0.2642794094488189
21
0.1239431496062992
0
LINE
8
BLACK
6
CONTINUOUS
10
0.2642794094488189
20
0.1239431496062992
11
0.2598893700787401
21
0.12618
0
LINE
8
BLACK
6
CONTINUOUS
10
0.2598893700787401
20
0.12618
11
0.2564053937007874
21
0.1296639763779528
0
LINE
8
BLACK
6
CONTINUOUS
10
0.2564053937007874
20
0.1296639763779528
11
0.2541685433070866
21
0.1340540157480315
0
LINE
8
BLACK
6
CONTINUOUS
10
0.2541685433070866
20
0.1340540157480315
11
0.2533977952755905
21
0.1389204330708661
0
LINE
8
BLACK
6
CONTINUOUS
10
0.2533977952755905
20
0.1389204330708661
11
0.2541685433070866
21
0.1437868503937008
0
LINE
8
BLACK
6
CONTINUOUS
10
0.2541685433070866
20
0.1437868503937008
11
0.2564053937007874
21
0.1481768897637795
0
LINE
8
BLACK
6
CONTINUOUS
10
0.2564053937007874
20
0.1481768897637795
11
0.2598893700787401
21
0.1516608661417323
0
LINE
8
BLACK
6
CONTINUOUS
10
0.2598893700787401
20
0.1516608661417323
11
0.2642794094488189
21
0.1538977165354331
0
LINE
8
BLACK
6
CONTINUOUS
10
0.2642794094488189
20
0.1538977165354331
11
0.2691458267716536
21
0.1546684645669291
0
LINE
8
BLACK
6
CONTINUOUS
10
0.2691458267716536
20
0.1546684645669291
11
0.2740122440944882
21
0.1538977165354331
0
LINE
8
BLACK
6
CONTINUOUS
10
0.2740122440944882
20
0.1538977165354331
11
0.2751776377952756
21
0.153303937007874
0
LINE
8
BLACK
6
CONTINUOUS
10
0.2751776377952756
20
0.153303937007874
11
0.2790495669291339
21
0.1571758267716535
0
LINE
8
BLACK
6
CONTINUOUS
10
0.2790495669291339
20
0.1571758267716535
11
0.2799444488188976
21
0.1579102755905512
0
LINE
8
BLACK
6
CONTINUOUS
10
0.2799444488188976
20
0.1579102755905512
11
0.2808262204724409
21
0.1582755118110236
0
LINE
8
BLACK
6
CONTINUOUS
10
0.2808262204724409
20
0.1582755118110236
11
0.2820732677165354
21
0.1587920472440945
0
LINE
8
BLACK
6
CONTINUOUS
10
0.2820732677165354
20
0.1587920472440945
11
0.2832253937007874
21
0.1589055118110236
0
LINE
8
BLACK
6
CONTINUOUS
10
0.2832253937007874
20
0.1589055118110236
11
0.4431732283464567
21
0.1589055118110236
0
LINE
8
BLACK
6
CONTINUOUS
10
0.4431732283464567
20
0.1589055118110236
11
0.4443253543307086
21
0.1587920472440945
0
LINE
8
BLACK
6
CONTINUOUS
10
0.8881474803149606
20
0.2921070078740157
11
0.8890292519685039
21
0.2917417716535433
0
LINE
8
BLACK
6
CONTINUOUS
10
0.8890292519685039
20
0.2917417716535433
11
0.8902762598425197
21
0.2912252362204724
0
LINE
8
BLACK
6
CONTINUOUS
10
0.8902762598425197
20
0.2912252362204724
11
0.8911711811023622
21
0.2904907874015748
0
LINE
8
BLACK
6
CONTINUOUS
10
0.8911711811023622
20
0.2904907874015748
11
0.9848987007874016
21
0.1967632677165354
0
LINE
8
BLACK
6
CONTINUOUS
10
0.9848987007874016
20
0.1967632677165354
11
1.0185110236220472
21
0.1967632677165354
0
LINE
8
BLACK
6
CONTINUOUS
10
1.0185110236220472
20
0.1967632677165354
11
1.0202184251968505
21
0.2001142125984252
0
LINE
8
BLACK
6
CONTINUOUS
10
1.0202184251968505
20
0.2001142125984252
11
1.0237024015748031
21
0.2035981889763779
0
LINE
8
BLACK
6
CONTINUOUS
10
1.0237024015748031
20
0.2035981889763779
11
1.0280924409448819
21
0.2058350393700787
0
LINE
8
BLACK
6
CONTINUOUS
10
1.0280924409448819
20
0.2058350393700787
11
1.0329588582677165
21
0.2066057874015748
0
LINE
8
BLACK
6
CONTINUOUS
10
1.0329588582677165
20
0.2066057874015748
11
1.0378252755905513
21
0.2058350393700787
0
LINE
8
BLACK
6
CONTINUOUS
10
1.0378252755905513
20
0.2058350393700787
11
1.0422153149606299
21
0.2035981889763779
0
LINE
8
BLACK
6
CONTINUOUS
10
1.0422153149606299
20
0.2035981889763779
11
1.0456992913385827
21
0.2001142125984252
0
LINE
8
BLACK
6
CONTINUOUS
10
1.0456992913385827
20
0.2001142125984252
11
1.0479361417322834
21
0.1957241732283465
0
LINE
8
BLACK
6
CONTINUOUS
10
1.0479361417322834
20
0.1957241732283465
11
1.0487068897637795
21
0.1908577559055118
0
LINE
8
BLACK
6
CONTINUOUS
10
1.0487068897637795
20
0.1908577559055118
11
1.0479361417322834
21
0.1859913385826772
0
LINE
8
BLACK
6
CONTINUOUS
10
1.0479361417322834
20
0.1859913385826772
11
1.0456992913385827
21
0.1816012992125984
0
LINE
8
BLACK
6
CONTINUOUS
10
1.0456992913385827
20
0.1816012992125984
11
1.0422153149606299
21
0.1781173228346457
0
LINE
8
BLACK
6
CONTINUOUS
10
1.0422153149606299
20
0.1781173228346457
11
1.0378252755905513
21
0.1758804724409449
0
LINE
8
BLACK
6
CONTINUOUS
10
1.0378252755905513
20
0.1758804724409449
11
1.0329588582677165
21
0.1751097244094488
0
LINE
8
BLACK
6
CONTINUOUS
10
1.0329588582677165
20
0.1751097244094488
11
1.0280924409448819
21
0.1758804724409449
0
LINE
8
BLACK
6
CONTINUOUS
10
1.0280924409448819
20
0.1758804724409449
11
1.0237024015748031
21
0.1781173228346457
0
LINE
8
BLACK
6
CONTINUOUS
10
1.0237024015748031
20
0.1781173228346457
11
1.0202184251968505
21
0.1816012992125984
0
LINE
8
BLACK
6
CONTINUOUS
10
1.0202184251968505
20
0.1816012992125984
11
1.0185110236220472
21
0.1849522440944882
0
LINE
8
BLACK
6
CONTINUOUS
10
1.0185110236220472
20
0.1849522440944882
11
0.9824525590551181
21
0.1849522440944882
0
LINE
8
BLACK
6
CONTINUOUS
10
0.9824525590551181
20
0.1849522440944882
11
0.9813004330708661
21
0.1850657086614173
0
LINE
8
BLACK
6
CONTINUOUS
10
0.9813004330708661
20
0.1850657086614173
11
0.9796531889763779
21
0.185748031496063
0
LINE
8
BLACK
6
CONTINUOUS
10
0.9796531889763779
20
0.185748031496063
11
0.979171653543307
21
0.1859474803149606
0
LINE
8
BLACK
6
CONTINUOUS
10
0.979171653543307
20
0.1859474803149606
11
0.9782767322834646
21
0.1866819291338583
0
LINE
8
BLACK
6
CONTINUOUS
10
0.9782767322834646
20
0.1866819291338583
11
0.8845492125984252
21
0.2804094488188976
0
LINE
8
BLACK
6
CONTINUOUS
10
0.8845492125984252
20
0.2804094488188976
11
0.7987611023622047
21
0.2804094488188976
0
LINE
8
BLACK
6
CONTINUOUS
10
0.7987611023622047
20
0.2804094488188976
11
0.7159055118110236
21
0.1975538582677165
0
LINE
8
BLACK
6
CONTINUOUS
10
0.7159055118110236
20
0.1975538582677165
11
0.7159055118110236
21
0.156199842519685
0
LINE
8
BLACK
6
CONTINUOUS
10
0.7159055118110236
20
0.156199842519685
11
0.7192564566929134
21
0.1544924015748032
0
LINE
8
BLACK
6
CONTINUOUS
10
0.7192564566929134
20
0.1544924015748032
11
0.7227404330708661
21
0.1510084251968504
0
LINE
8
BLACK
6
CONTINUOUS
10
0.7227404330708661
20
0.1510084251968504
11
0.7249772834645669
21
0.1466183858267716
0
LINE
8
BLACK
6
CONTINUOUS
10
0.7249772834645669
20
0.1466183858267716
11
0.7257480314960629
21
0.141751968503937
0
LINE
8
BLACK
6
CONTINUOUS
10
0.7257480314960629
20
0.141751968503937
11
0.7249772834645669
21
0.1368855511811023
0
LINE
8
BLACK
6
CONTINUOUS
10
0.7249772834645669
20
0.1368855511811023
11
0.7227404330708661
21
0.1324955118110236
0
LINE
8
BLACK
6
CONTINUOUS
10
0.7227404330708661
20
0.1324955118110236
11
0.7192564566929134
21
0.1290115354330709
0
LINE
8
BLACK
6
CONTINUOUS
10
0.7192564566929134
20
0.1290115354330709
11
0.7148664173228346
21
0.1267746850393701
0
LINE
8
BLACK
6
CONTINUOUS
10
0.7148664173228346
20
0.1267746850393701
11
0.71
21
0.126003937007874
0
LINE
8
BLACK
6
CONTINUOUS
10
0.71
20
0.126003937007874
11
0.7051335826771653
21
0.1267746850393701
0
LINE
8
BLACK
6
CONTINUOUS
10
0.7051335826771653
20
0.1267746850393701
11
0.7007435433070865
21
0.1290115354330709
0
LINE
8
BLACK
6
CONTINUOUS
10
0.7007435433070865
20
0.1290115354330709
11
0.6972595669291338
21
0.1324955118110236
0
LINE
8
BLACK
6
CONTINUOUS
10
0.6972595669291338
20
0.1324955118110236
11
0.695022716535433
21
0.1368855511811023
0
LINE
8
BLACK
6
CONTINUOUS
10
0.695022716535433
20
0.1368855511811023
11
0.694251968503937
21
0.141751968503937
0
LINE
8
BLACK
6
CONTINUOUS
10
0.694251968503937
20
0.141751968503937
11
0.695022716535433
21
0.1466183858267716
0
LINE
8
BLACK
6
CONTINUOUS
10
0.695022716535433
20
0.1466183858267716
11
0.6972595669291338
21
0.1510084251968504
0
LINE
8
BLACK
6
CONTINUOUS
10
0.6972595669291338
20
0.1510084251968504
11
0.7007435433070865
21
0.1544924015748032
0
LINE
8
BLACK
6
CONTINUOUS
10
0.7007435433070865
20
0.1544924015748032
11
0.7040944881889764
21
0.156199842519685
0
LINE
8
BLACK
6
CONTINUOUS
10
0.7040944881889764
20
0.156199842519685
11
0.7040944881889764
21
0.2
0
LINE
8
BLACK
6
CONTINUOUS
10
0.7040944881889764
20
0.2
11
0.7042079527559055
21
0.201152125984252
0
LINE
8
BLACK
6
CONTINUOUS
10
0.7042079527559055
20
0.201152125984252
11
0.7046666929133858
21
0.2022595669291339
0
LINE
8
BLACK
6
CONTINUOUS
10
0.7046666929133858
20
0.2022595669291339
11
0.7050897244094488
21
0.203280905511811
0
LINE
8
BLACK
6
CONTINUOUS
10
0.7050897244094488
20
0.203280905511811
11
0.7058241732283465
21
0.2041758267716536
0
LINE
8
BLACK
6
CONTINUOUS
10
0.7058241732283465
20
0.2041758267716536
11
0.7921391338582677
21
0.2904907874015748
0
LINE
8
BLACK
6
CONTINUOUS
10
0.7921391338582677
20
0.2904907874015748
11
0.7930340551181102
21
0.2912252362204724
0
LINE
8
BLACK
6
CONTINUOUS
10
0.7930340551181102
20
0.2912252362204724
11
0.794281062992126
21
0.2917417716535433
0
LINE
8
BLACK
6
CONTINUOUS
10
0.794281062992126
20
0.2917417716535433
11
0.7951628346456693
21
0.2921070078740157
0
LINE
8
BLACK
6
CONTINUOUS
10
0.7951628346456693
20
0.2921070078740157
11
0.7963149606299212
21
0.2922204724409449
0
LINE
8
BLACK
6
CONTINUOUS
10
0.7963149606299212
20
0.2922204724409449
11
0.8869953543307086
21
0.2922204724409449
0
LINE
8
BLACK
6
CONTINUOUS
10
0.8869953543307086
20
0.2922204724409449
11
0.8881474803149606
21
0.2921070078740157
0
LINE
8
BLACK
6
CONTINUOUS
10
0.6288821653543307
20
0.2315127165354331
11
0.6332722047244095
21
0.2292758661417323
0
LINE
8
BLACK
6
CONTINUOUS
10
0.6332722047244095
20
0.2292758661417323
11
0.6367561811023622
21
0.2257918897637795
0
LINE
8
BLACK
6
CONTINUOUS
10
0.6367561811023622
20
0.2257918897637795
11
0.638993031496063
21
0.2214018503937008
0
LINE
8
BLACK
6
CONTINUOUS
10
0.638993031496063
20
0.2214018503937008
11
0.639763779527559
21
0.2165354330708661
0
LINE
8
BLACK
6
CONTINUOUS
10
0.639763779527559
20
0.2165354330708661
11
0.638993031496063
21
0.2116690157480315
0
LINE
8
BLACK
6
CONTINUOUS
10
0.638993031496063
20
0.2116690157480315
11
0.6367561811023622
21
0.2072789763779528
0
LINE
8
BLACK
6
CONTINUOUS
10
0.6367561811023622
20
0.2072789763779528
11
0.6332722047244095
21
0.203795
0
LINE
8
BLACK
6
CONTINUOUS
10
0.6332722047244095
20
0.203795
11
0.6288821653543307
21
0.2015581496062992
0
LINE
8
BLACK
6
CONTINUOUS
10
0.6288821653543307
20
0.2015581496062992
11
0.6240157480314961
21
0.2007874015748032
0
LINE
8
BLACK
6
CONTINUOUS
10
0.6240157480314961
20
0.2007874015748032
11
0.6200338976377953
21
0.2014180708661417
0
LINE
8
BLACK
6
CONTINUOUS
10
0.6200338976377953
20
0.2014180708661417
11
0.605654251968504
21
0.1870384251968504
0
LINE
8
BLACK
6
CONTINUOUS
10
0.605654251968504
20
0.1870384251968504
11
0.604461062992126
21
0.1860591732283464
0
LINE
8
BLACK
6
CONTINUOUS
10
0.604461062992126
20
0.1860591732283464
11
0.6016226377952756
21
0.1848834645669291
0
LINE
8
BLACK
6
CONTINUOUS
10
0.6016226377952756
20
0.1848834645669291
11
0.6000864960629921
21
0.1847321653543307
0
LINE
8
BLACK
6
CONTINUOUS
10
0.6000864960629921
20
0.1847321653543307
11
0.5246252755905512
21
0.1847321653543307
0
LINE
8
BLACK
6
CONTINUOUS
10
0.5246252755905512
20
0.1847321653543307
11
0.5239208661417323
21
0.1833497244094488
0
LINE
8
BLACK
6
CONTINUOUS
10
0.5239208661417323
20
0.1833497244094488
11
0.5204368897637796
21
0.179865748031496
0
LINE
8
BLACK
6
CONTINUOUS
10
0.5204368897637796
20
0.179865748031496
11
0.5160468503937008
21
0.1776288976377953
0
LINE
8
BLACK
6
CONTINUOUS
10
0.5160468503937008
20
0.1776288976377953
11
0.5111804330708661
21
0.1768581496062992
0
LINE
8
BLACK
6
CONTINUOUS
10
0.5111804330708661
20
0.1768581496062992
11
0.5063140157480315
21
0.1776288976377953
0
LINE
8
BLACK
6
CONTINUOUS
10
0.5063140157480315
20
0.1776288976377953
11
0.5019239763779527
21
0.179865748031496
0
LINE
8
BLACK
6
CONTINUOUS
10
0.5019239763779527
20
0.179865748031496
11
0.49844
21
0.1833497244094488
0
LINE
8
BLACK
6
CONTINUOUS
10
0.49844
20
0.1833497244094488
11
0.4962031496062992
21
0.1877397637795276
0
LINE
8
BLACK
6
CONTINUOUS
10
0.4962031496062992
20
0.1877397637795276
11
0.4954324015748031
21
0.1926061811023622
0
LINE
8
BLACK
6
CONTINUOUS
10
0.4954324015748031
20
0.1926061811023622
11
0.4962031496062992
21
0.1974725984251968
0
LINE
8
BLACK
6
CONTINUOUS
10
0.4962031496062992
20
0.1974725984251968
11
0.49844
21
0.2018626377952756
0
LINE
8
BLACK
6
CONTINUOUS
10
0.49844
20
0.2018626377952756
11
0.5019239763779527
21
0.2053466141732283
0
LINE
8
BLACK
6
CONTINUOUS
10
0.5019239763779527
20
0.2053466141732283
11
0.5063140157480315
21
0.2075834645669291
0
LINE
8
BLACK
6
CONTINUOUS
10
0.5063140157480315
20
0.2075834645669291
11
0.5111804330708661
21
0.2083542125984252
0
LINE
8
BLACK
6
CONTINUOUS
10
0.5111804330708661
20
0.2083542125984252
11
0.5160468503937008
21
0.2075834645669291
0
LINE
8
BLACK
6
CONTINUOUS
10
0.5160468503937008
20
0.2075834645669291
11
0.5204368897637796
21
0.2053466141732283
0
LINE
8
BLACK
6
CONTINUOUS
10
0.5204368897637796
20
0.2053466141732283
11
0.5239208661417323
21
0.2018626377952756
0
LINE
8
BLACK
6
CONTINUOUS
10
0.5239208661417323
20
0.2018626377952756
11
0.5246252755905512
21
0.2004801968503937
0
LINE
8
BLACK
6
CONTINUOUS
10
0.5246252755905512
20
0.2004801968503937
11
0.5968249999999999
21
0.2004801968503937
0
LINE
8
BLACK
6
CONTINUOUS
10
0.5968249999999999
20
0.2004801968503937
11
0.6088983464566929
21
0.2125536220472441
0
LINE
8
BLACK
6
CONTINUOUS
10
0.6088983464566929
20
0.2125536220472441
11
0.6082677165354331
21
0.2165354330708661
0
LINE
8
BLACK
6
CONTINUOUS
10
0.6082677165354331
20
0.2165354330708661
11
0.6090384645669291
21
0.2214018503937008
0
LINE
8
BLACK
6
CONTINUOUS
10
0.6090384645669291
20
0.2214018503937008
11
0.6112753149606299
21
0.2257918897637795
0
LINE
8
BLACK
6
CONTINUOUS
10
0.6112753149606299
20
0.2257918897637795
11
0.6147592913385826
21
0.2292758661417323
0
LINE
8
BLACK
6
CONTINUOUS
10
0.6147592913385826
20
0.2292758661417323
11
0.6191493307086614
21
0.2315127165354331
0
LINE
8
BLACK
6
CONTINUOUS
10
0.6191493307086614
20
0.2315127165354331
11
0.6240157480314961
21
0.2322834645669291
0
LINE
8
BLACK
6
CONTINUOUS
10
0.6240157480314961
20
0.2322834645669291
11
0.6288821653543307
21
0.2315127165354331
0
LINE
8
BLACK
6
CONTINUOUS
10
0.6148664173228346
20
0.3349772834645669
11
0.6192564566929134
21
0.3327404330708661
0
LINE
8
BLACK
6
CONTINUOUS
10
0.6192564566929134
20
0.3327404330708661
11
0.6227404330708661
21
0.3292564566929134
0
LINE
8
BLACK
6
CONTINUOUS
10
0.6227404330708661
20
0.3292564566929134
11
0.6249772834645669
21
0.3248664173228346
0
LINE
8
BLACK
6
CONTINUOUS
10
0.6249772834645669
20
0.3248664173228346
11
0.625748031496063
21
0.32
0
LINE
8
BLACK
6
CONTINUOUS
10
0.625748031496063
20
0.32
11
0.6249772834645669
21
0.3151335826771653
0
LINE
8
BLACK
6
CONTINUOUS
10
0.6249772834645669
20
0.3151335826771653
11
0.6243834645669292
21
0.313968188976378
0
LINE
8
BLACK
6
CONTINUOUS
10
0.6243834645669292
20
0.313968188976378
11
0.6264461417322834
21
0.3119055118110236
0
LINE
8
BLACK
6
CONTINUOUS
10
0.6264461417322834
20
0.3119055118110236
11
0.904
21
0.3119055118110236
0
LINE
8
BLACK
6
CONTINUOUS
10
0.904
20
0.3119055118110236
11
0.905152125984252
21
0.3117920472440945
0
LINE
8
BLACK
6
CONTINUOUS
10
0.905152125984252
20
0.3117920472440945
11
0.9060338976377953
21
0.311426811023622
0
LINE
8
BLACK
6
CONTINUOUS
10
0.9060338976377953
20
0.311426811023622
11
0.907280905511811
21
0.3109102755905512
0
LINE
8
BLACK
6
CONTINUOUS
10
0.907280905511811
20
0.3109102755905512
11
0.9081758267716535
21
0.3101758267716536
0
LINE
8
BLACK
6
CONTINUOUS
10
0.9081758267716535
20
0.3101758267716536
11
0.9920608267716535
21
0.2262908267716535
0
LINE
8
BLACK
6
CONTINUOUS
10
0.9920608267716535
20
0.2262908267716535
11
1.0483154724409449
21
0.2262908267716535
0
LINE
8
BLACK
6
CONTINUOUS
10
1.0483154724409449
20
0.2262908267716535
11
1.0494675984251969
21
0.2261773622047244
0
LINE
8
BLACK
6
CONTINUOUS
10
1.0494675984251969
20
0.2261773622047244
11
1.0503031496062991
21
0.2258312598425197
0
LINE
8
BLACK
6
CONTINUOUS
10
1.0503031496062991
20
0.2258312598425197
11
1.051596377952756
21
0.2252955905511811
0
LINE
8
BLACK
6
CONTINUOUS
10
1.051596377952756
20
0.2252955905511811
11
1.0524912992125983
21
0.2245611417322834
0
LINE
8
BLACK
6
CONTINUOUS
10
1.0524912992125983
20
0.2245611417322834
11
1.0658185433070866
21
0.2112338976377953
0
LINE
8
BLACK
6
CONTINUOUS
10
1.0658185433070866
20
0.2112338976377953
11
1.0669839763779527
21
0.2118276771653543
0
LINE
8
BLACK
6
CONTINUOUS
10
1.0669839763779527
20
0.2118276771653543
11
1.0718503937007873
21
0.2125984251968504
0
LINE
8
BLACK
6
CONTINUOUS
10
1.0718503937007873
20
0.2125984251968504
11
1.076716811023622
21
0.2118276771653543
0
LINE
8
BLACK
6
CONTINUOUS
10
1.076716811023622
20
0.2118276771653543
11
1.0811068503937007
21
0.2095908267716535
0
LINE
8
BLACK
6
CONTINUOUS
10
1.0811068503937007
20
0.2095908267716535
11
1.0845908267716535
21
0.2061068503937008
0
LINE
8
BLACK
6
CONTINUOUS
10
1.0845908267716535
20
0.2061068503937008
11
1.0868276771653542
21
0.201716811023622
0
LINE
8
BLACK
6
CONTINUOUS
10
1.0868276771653542
20
0.201716811023622
11
1.0875984251968505
21
0.1968503937007874
0
LINE
8
BLACK
6
CONTINUOUS
10
1.0875984251968505
20
0.1968503937007874
11
1.0868276771653542
21
0.1919839763779528
0
LINE
8
BLACK
6
CONTINUOUS
10
1.0868276771653542
20
0.1919839763779528
11
1.0845908267716535
21
0.187593937007874
0
LINE
8
BLACK
6
CONTINUOUS
10
1.0845908267716535
20
0.187593937007874
11
1.0811068503937007
21
0.1841099606299212
0
LINE
8
BLACK
6
CONTINUOUS
10
1.0811068503937007
20
0.1841099606299212
11
1.076716811023622
21
0.1818731102362205
0
LINE
8
BLACK
6
CONTINUOUS
10
1.076716811023622
20
0.1818731102362205
11
1.0718503937007873
21
0.1811023622047244
0
LINE
8
BLACK
6
CONTINUOUS
10
1.0718503937007873
20
0.1811023622047244
11
1.0669839763779527
21
0.1818731102362205
0
LINE
8
BLACK
6
CONTINUOUS
10
1.0669839763779527
20
0.1818731102362205
11
1.0625939370078741
21
0.1841099606299212
0
LINE
8
BLACK
6
CONTINUOUS
10
1.0625939370078741
20
0.1841099606299212
11
1.0591099606299212
21
0.187593937007874
0
LINE
8
BLACK
6
CONTINUOUS
10
1.0591099606299212
20
0.187593937007874
11
1.0568731102362205
21
0.1919839763779528
0
LINE
8
BLACK
6
CONTINUOUS
10
1.0568731102362205
20
0.1919839763779528
11
1.0561023622047243
21
0.1968503937007874
0
LINE
8
BLACK
6
CONTINUOUS
10
1.0561023622047243
20
0.1968503937007874
11
1.0568731102362205
21
0.201716811023622
0
LINE
8
BLACK
6
CONTINUOUS
10
1.0568731102362205
20
0.201716811023622
11
1.0574668897637796
21
0.2028822440944882
0
LINE
8
BLACK
6
CONTINUOUS
10
1.0574668897637796
20
0.2028822440944882
11
1.0458693307086615
21
0.2144798031496063
0
LINE
8
BLACK
6
CONTINUOUS
10
1.0458693307086615
20
0.2144798031496063
11
0.98961468503937
21
0.2144798031496063
0
LINE
8
BLACK
6
CONTINUOUS
10
0.98961468503937
20
0.2144798031496063
11
0.988462559055118
21
0.2145932677165354
0
LINE
8
BLACK
6
CONTINUOUS
10
0.988462559055118
20
0.2145932677165354
11
0.9878390551181102
21
0.2148515748031496
0
LINE
8
BLACK
6
CONTINUOUS
10
0.9878390551181102
20
0.2148515748031496
11
0.9863337401574803
21
0.2154750393700787
0
LINE
8
BLACK
6
CONTINUOUS
10
0.9863337401574803
20
0.2154750393700787
11
0.9854388582677165
21
0.2162094881889764
0
LINE
8
BLACK
6
CONTINUOUS
10
0.9854388582677165
20
0.2162094881889764
11
0.9015538582677165
21
0.3000944881889764
0
LINE
8
BLACK
6
CONTINUOUS
10
0.9015538582677165
20
0.3000944881889764
11
0.624
21
0.3000944881889764
0
LINE
8
BLACK
6
CONTINUOUS
10
0.624
20
0.3000944881889764
11
0.622847874015748
21
0.3002079527559055
0
LINE
8
BLACK
6
CONTINUOUS
10
0.622847874015748
20
0.3002079527559055
11
0.6222243700787401
21
0.3004662598425197
0
LINE
8
BLACK
6
CONTINUOUS
10
0.6222243700787401
20
0.3004662598425197
11
0.6207190551181102
21
0.3010897244094488
0
LINE
8
BLACK
6
CONTINUOUS
10
0.6207190551181102
20
0.3010897244094488
11
0.6198241732283465
21
0.3018241732283464
0
LINE
8
BLACK
6
CONTINUOUS
10
0.6198241732283465
20
0.3018241732283464
11
0.616031811023622
21
0.3056165354330709
0
LINE
8
BLACK
6
CONTINUOUS
10
0.616031811023622
20
0.3056165354330709
11
0.6148664173228346
21
0.3050227165354331
0
LINE
8
BLACK
6
CONTINUOUS
10
0.6148664173228346
20
0.3050227165354331
11
0.61
21
0.304251968503937
0
LINE
8
BLACK
6
CONTINUOUS
10
0.61
20
0.304251968503937
11
0.6051335826771653
21
0.3050227165354331
0
LINE
8
BLACK
6
CONTINUOUS
10
0.6051335826771653
20
0.3050227165354331
11
0.6007435433070866
21
0.3072595669291339
0
LINE
8
BLACK
6
CONTINUOUS
10
0.6007435433070866
20
0.3072595669291339
11
0.5972595669291338
21
0.3107435433070866
0
LINE
8
BLACK
6
CONTINUOUS
10
0.5972595669291338
20
0.3107435433070866
11
0.5955521653543306
21
0.3140944881889764
0
LINE
8
BLACK
6
CONTINUOUS
10
0.5955521653543306
20
0.3140944881889764
11
0.2821482283464567
21
0.3140944881889764
0
LINE
8
BLACK
6
CONTINUOUS
10
0.2821482283464567
20
0.3140944881889764
11
0.2823228346456693
21
0.312992125984252
0
LINE
8
BLACK
6
CONTINUOUS
10
0.2823228346456693
20
0.312992125984252
11
0.2815520866141732
21
0.3081257086614173
0
LINE
8
BLACK
6
CONTINUOUS
10
0.2815520866141732
20
0.3081257086614173
11
0.2793152362204724
21
0.3037356692913386
0
LINE
8
BLACK
6
CONTINUOUS
10
0.2793152362204724
20
0.3037356692913386
11
0.2758312598425197
21
0.3002516929133858
0
LINE
8
BLACK
6
CONTINUOUS
10
0.2758312598425197
20
0.3002516929133858
11
0.271441220472441
21
0.298014842519685
0
LINE
8
BLACK
6
CONTINUOUS
10
0.271441220472441
20
0.298014842519685
11
0.2665748031496063
21
0.2972440944881889
0
LINE
8
BLACK
6
CONTINUOUS
10
0.2665748031496063
20
0.2972440944881889
11
0.2617083858267716
21
0.298014842519685
0
LINE
8
BLACK
6
CONTINUOUS
10
0.2617083858267716
20
0.298014842519685
11
0.2573183464566929
21
0.3002516929133858
0
LINE
8
BLACK
6
CONTINUOUS
10
0.2573183464566929
20
0.3002516929133858
11
0.2538343700787402
21
0.3037356692913386
0
LINE
8
BLACK
6
CONTINUOUS
10
0.2538343700787402
20
0.3037356692913386
11
0.2515975196850394
21
0.3081257086614173
0
LINE
8
BLACK
6
CONTINUOUS
10
0.2515975196850394
20
0.3081257086614173
11
0.2508267716535433
21
0.312992125984252
0
LINE
8
BLACK
6
CONTINUOUS
10
0.2508267716535433
20
0.312992125984252
11
0.2515975196850394
21
0.3178585433070866
0
LINE
8
BLACK
6
CONTINUOUS
10
0.2515975196850394
20
0.3178585433070866
11
0.2538343700787402
21
0.3222485826771653
0
LINE
8
BLACK
6
CONTINUOUS
10
0.2538343700787402
20
0.3222485826771653
11
0.2573183464566929
21
0.3257325590551181
0
LINE
8
BLACK
6
CONTINUOUS
10
0.2573183464566929
20
0.3257325590551181
11
0.2617083858267716
21
0.3279694094488189
0
LINE
8
BLACK
6
CONTINUOUS
10
0.2617083858267716
20
0.3279694094488189
11
0.2665748031496063
21
0.3287401574803149
0
LINE
8
BLACK
6
CONTINUOUS
10
0.2665748031496063
20
0.3287401574803149
11
0.271441220472441
21
0.3279694094488189
0
LINE
8
BLACK
6
CONTINUOUS
10
0.271441220472441
20
0.3279694094488189
11
0.275491811023622
21
0.3259055118110236
0
LINE
8
BLACK
6
CONTINUOUS
10
0.275491811023622
20
0.3259055118110236
11
0.5955521653543306
21
0.3259055118110236
0
LINE
8
BLACK
6
CONTINUOUS
10
0.5955521653543306
20
0.3259055118110236
11
0.5972595669291338
21
0.3292564566929134
0
LINE
8
BLACK
6
CONTINUOUS
10
0.5972595669291338
20
0.3292564566929134
11
0.6007435433070866
21
0.3327404330708661
0
LINE
8
BLACK
6
CONTINUOUS
10
0.6007435433070866
20
0.3327404330708661
11
0.6051335826771653
21
0.3349772834645669
0
LINE
8
BLACK
6
CONTINUOUS
10
0.6051335826771653
20
0.3349772834645669
11
0.61
21
0.335748031496063
0
LINE
8
BLACK
6
CONTINUOUS
10
0.61
20
0.335748031496063
11
0.6148664173228346
21
0.3349772834645669
0
LINE
8
BLACK
6
CONTINUOUS
10
0.2206536614173228
20
0.3312433858267717
11
0.2225695275590551
21
0.3299632283464567
0
LINE
8
BLACK
6
CONTINUOUS
10
0.2225695275590551
20
0.3299632283464567
11
0.2238496850393701
21
0.3280473622047244
0
LINE
8
BLACK
6
CONTINUOUS
10
0.2238496850393701
20
0.3280473622047244
11
0.2242992125984252
21
0.3257874015748031
0
LINE
8
BLACK
6
CONTINUOUS
10
0.2242992125984252
20
0.3257874015748031
11
0.2242992125984252
21
0.3218888582677165
0
LINE
8
BLACK
6
CONTINUOUS
10
0.2242992125984252
20
0.3218888582677165
11
0.2555677952755905
21
0.2906202755905511
0
LINE
8
BLACK
6
CONTINUOUS
10
0.2555677952755905
20
0.2906202755905511
11
0.2565470078740157
21
0.2894270866141732
0
LINE
8
BLACK
6
CONTINUOUS
10
0.2565470078740157
20
0.2894270866141732
11
0.257722716535433
21
0.2865886614173228
0
LINE
8
BLACK
6
CONTINUOUS
10
0.257722716535433
20
0.2865886614173228
11
0.2578740157480315
21
0.2850525196850394
0
LINE
8
BLACK
6
CONTINUOUS
10
0.2578740157480315
20
0.2850525196850394
11
0.2578740157480315
21
0.283444842519685
0
LINE
8
BLACK
6
CONTINUOUS
10
0.2578740157480315
20
0.283444842519685
11
0.2592564566929134
21
0.2827404330708662
0
LINE
8
BLACK
6
CONTINUOUS
10
0.2592564566929134
20
0.2827404330708662
11
0.2627404330708661
21
0.2792564566929134
0
LINE
8
BLACK
6
CONTINUOUS
10
0.2627404330708661
20
0.2792564566929134
11
0.2644478346456693
21
0.2759055118110236
0
LINE
8
BLACK
6
CONTINUOUS
10
0.2644478346456693
20
0.2759055118110236
11
0.6855521653543307
21
0.2759055118110236
0
LINE
8
BLACK
6
CONTINUOUS
10
0.6855521653543307
20
0.2759055118110236
11
0.6872595669291338
21
0.2792564566929134
0
LINE
8
BLACK
6
CONTINUOUS
10
0.6872595669291338
20
0.2792564566929134
11
0.6907435433070866
21
0.2827404330708662
0
LINE
8
BLACK
6
CONTINUOUS
10
0.6907435433070866
20
0.2827404330708662
11
0.6951335826771653
21
0.2849772834645669
0
LINE
8
BLACK
6
CONTINUOUS
10
0.6951335826771653
20
0.2849772834645669
11
0.7
21
0.285748031496063
0
LINE
8
BLACK
6
CONTINUOUS
10
0.7
20
0.285748031496063
11
0.7048664173228346
21
0.2849772834645669
0
LINE
8
BLACK
6
CONTINUOUS
10
0.7048664173228346
20
0.2849772834645669
11
0.7092564566929134
21
0.2827404330708662
0
LINE
8
BLACK
6
CONTINUOUS
10
0.7092564566929134
20
0.2827404330708662
11
0.7127404330708661
21
0.2792564566929134
0
LINE
8
BLACK
6
CONTINUOUS
10
0.7127404330708661
20
0.2792564566929134
11
0.7149772834645669
21
0.2748664173228346
0
LINE
8
BLACK
6
CONTINUOUS
10
0.7149772834645669
20
0.2748664173228346
11
0.715748031496063
21
0.27
0
LINE
8
BLACK
6
CONTINUOUS
10
0.715748031496063
20
0.27
11
0.7149772834645669
21
0.2651335826771654
0
LINE
8
BLACK
6
CONTINUOUS
10
0.7149772834645669
20
0.2651335826771654
11
0.7127404330708661
21
0.2607435433070866
0
LINE
8
BLACK
6
CONTINUOUS
10
0.7127404330708661
20
0.2607435433070866
11
0.7092564566929134
21
0.2572595669291339
0
LINE
8
BLACK
6
CONTINUOUS
10
0.7092564566929134
20
0.2572595669291339
11
0.7048664173228346
21
0.2550227165354331
0
LINE
8
BLACK
6
CONTINUOUS
10
0.7048664173228346
20
0.2550227165354331
11
0.7
21
0.254251968503937
0
LINE
8
BLACK
6
CONTINUOUS
10
0.7
20
0.254251968503937
11
0.6951335826771653
21
0.2550227165354331
0
LINE
8
BLACK
6
CONTINUOUS
10
0.6951335826771653
20
0.2550227165354331
11
0.6907435433070866
21
0.2572595669291339
0
LINE
8
BLACK
6
CONTINUOUS
10
0.6907435433070866
20
0.2572595669291339
11
0.6872595669291338
21
0.2607435433070866
0
LINE
8
BLACK
6
CONTINUOUS
10
0.6872595669291338
20
0.2607435433070866
11
0.6855521653543307
21
0.2640944881889764
0
LINE
8
BLACK
6
CONTINUOUS
10
0.6855521653543307
20
0.2640944881889764
11
0.2644478346456693
21
0.2640944881889764
0
LINE
8
BLACK
6
CONTINUOUS
10
0.2644478346456693
20
0.2640944881889764
11
0.2627404330708661
21
0.2607435433070866
0
LINE
8
BLACK
6
CONTINUOUS
10
0.2627404330708661
20
0.2607435433070866
11
0.2592564566929134
21
0.2572595669291339
0
LINE
8
BLACK
6
CONTINUOUS
10
0.2592564566929134
20
0.2572595669291339
11
0.2548664173228347
21
0.2550227165354331
0
LINE
8
BLACK
6
CONTINUOUS
10
0.2548664173228347
20
0.2550227165354331
11
0.25
21
0.254251968503937
0
LINE
8
BLACK
6
CONTINUOUS
10
0.25
20
0.254251968503937
11
0.2451335826771653
21
0.2550227165354331
0
LINE
8
BLACK
6
CONTINUOUS
10
0.2451335826771653
20
0.2550227165354331
11
0.2407435433070866
21
0.2572595669291339
0
LINE
8
BLACK
6
CONTINUOUS
10
0.2407435433070866
20
0.2572595669291339
11
0.2372595669291339
21
0.2607435433070866
0
LINE
8
BLACK
6
CONTINUOUS
10
0.2372595669291339
20
0.2607435433070866
11
0.2350227165354331
21
0.2651335826771654
0
LINE
8
BLACK
6
CONTINUOUS
10
0.2350227165354331
20
0.2651335826771654
11
0.234251968503937
21
0.27
0
LINE
8
BLACK
6
CONTINUOUS
10
0.234251968503937
20
0.27
11
0.2350227165354331
21
0.2748664173228346
0
LINE
8
BLACK
6
CONTINUOUS
10
0.2350227165354331
20
0.2748664173228346
11
0.2372595669291339
21
0.2792564566929134
0
LINE
8
BLACK
6
CONTINUOUS
10
0.2372595669291339
20
0.2792564566929134
11
0.2407435433070866
21
0.2827404330708662
0
LINE
8
BLACK
6
CONTINUOUS
10
0.2407435433070866
20
0.2827404330708662
11
0.2410303543307087
21
0.2828866141732284
0
LINE
8
BLACK
6
CONTINUOUS
10
0.2410303543307087
20
0.2828866141732284
11
0.2158461417322834
21
0.3080708661417323
0
LINE
8
BLACK
6
CONTINUOUS
10
0.2158461417322834
20
0.3080708661417323
11
0.1632755905511811
21
0.3080708661417323
0
LINE
8
BLACK
6
CONTINUOUS
10
0.1632755905511811
20
0.3080708661417323
11
0.1610156299212598
21
0.3085203937007874
0
LINE
8
BLACK
6
CONTINUOUS
10
0.1610156299212598
20
0.3085203937007874
11
0.1590997637795276
21
0.3098005511811023
0
LINE
8
BLACK
6
CONTINUOUS
10
0.1590997637795276
20
0.3098005511811023
11
0.1578196062992126
21
0.3117164173228346
0
LINE
8
BLACK
6
CONTINUOUS
10
0.1578196062992126
20
0.3117164173228346
11
0.1573700787401575
21
0.3139763779527559
0
LINE
8
BLACK
6
CONTINUOUS
10
0.1573700787401575
20
0.3139763779527559
11
0.1573700787401575
21
0.3257874015748031
0
LINE
8
BLACK
6
CONTINUOUS
10
0.1573700787401575
20
0.3257874015748031
11
0.1578196062992126
21
0.3280473622047244
0
LINE
8
BLACK
6
CONTINUOUS
10
0.1578196062992126
20
0.3280473622047244
11
0.1590997637795276
21
0.3299632283464567
0
LINE
8
BLACK
6
CONTINUOUS
10
0.1590997637795276
20
0.3299632283464567
11
0.1610156299212598
21
0.3312433858267717
0
LINE
8
BLACK
6
CONTINUOUS
10
0.1610156299212598
20
0.3312433858267717
11
0.1632755905511811
21
0.3316929133858267
0
LINE
8
BLACK
6
CONTINUOUS
10
0.1632755905511811
20
0.3316929133858267
11
0.2183937007874016
21
0.3316929133858267
0
LINE
8
BLACK
6
CONTINUOUS
10
0.2183937007874016
20
0.3316929133858267
11
0.2206536614173228
21
0.3312433858267717
0
LINE
8
BLACK
6
CONTINUOUS
10
0.1170711417322835
20
0.2856465748031496
11
0.1214611811023622
21
0.2834097244094488
0
LINE
8
BLACK
6
CONTINUOUS
10
0.1214611811023622
20
0.2834097244094488
11
0.124945157480315
21
0.2799257480314961
0
LINE
8
BLACK
6
CONTINUOUS
10
0.124945157480315
20
0.2799257480314961
11
0.1256495669291338
21
0.2785433070866142
0
LINE
8
BLACK
6
CONTINUOUS
10
0.1256495669291338
20
0.2785433070866142
11
0.1577616141732283
21
0.2785433070866142
0
LINE
8
BLACK
6
CONTINUOUS
10
0.1577616141732283
20
0.2785433070866142
11
0.1578196062992126
21
0.2788347637795275
0
LINE
8
BLACK
6
CONTINUOUS
10
0.1578196062992126
20
0.2788347637795275
11
0.1590997637795276
21
0.2807506299212598
0
LINE
8
BLACK
6
CONTINUOUS
10
0.1590997637795276
20
0.2807506299212598
11
0.1610156299212598
21
0.2820307874015748
0
LINE
8
BLACK
6
CONTINUOUS
10
0.1610156299212598
20
0.2820307874015748
11
0.1632755905511811
21
0.2824803149606299
0
LINE
8
BLACK
6
CONTINUOUS
10
0.1632755905511811
20
0.2824803149606299
11
0.2183937007874016
21
0.2824803149606299
0
LINE
8
BLACK
6
CONTINUOUS
10
0.2183937007874016
20
0.2824803149606299
11
0.2206536614173228
21
0.2820307874015748
0
LINE
8
BLACK
6
CONTINUOUS
10
0.2206536614173228
20
0.2820307874015748
11
0.2225695275590551
21
0.2807506299212598
0
LINE
8
BLACK
6
CONTINUOUS
10
0.2225695275590551
20
0.2807506299212598
11
0.2238496850393701
21
0.2788347637795275
0
LINE
8
BLACK
6
CONTINUOUS
10
0.2238496850393701
20
0.2788347637795275
11
0.2242992125984252
21
0.2765748031496063
0
LINE
8
BLACK
6
CONTINUOUS
10
0.2242992125984252
20
0.2765748031496063
11
0.2242992125984252
21
0.264763779527559
0
LINE
8
BLACK
6
CONTINUOUS
10
0.2242992125984252
20
0.264763779527559
11
0.2238496850393701
21
0.2625038188976378
0
LINE
8
BLACK
6
CONTINUOUS
10
0.2238496850393701
20
0.2625038188976378
11
0.2225695275590551
21
0.2605879527559055
0
LINE
8
BLACK
6
CONTINUOUS
10
0.2225695275590551
20
0.2605879527559055
11
0.2206536614173228
21
0.2593077952755906
0
LINE
8
BLACK
6
CONTINUOUS
10
0.2206536614173228
20
0.2593077952755906
11
0.2183937007874016
21
0.2588582677165354
0
LINE
8
BLACK
6
CONTINUOUS
10
0.2183937007874016
20
0.2588582677165354
11
0.1632755905511811
21
0.2588582677165354
0
LINE
8
BLACK
6
CONTINUOUS
10
0.1632755905511811
20
0.2588582677165354
11
0.1610156299212598
21
0.2593077952755906
0
LINE
8
BLACK
6
CONTINUOUS
10
0.1610156299212598
20
0.2593077952755906
11
0.1590997637795276
21
0.2605879527559055
0
LINE
8
BLACK
6
CONTINUOUS
10
0.1590997637795276
20
0.2605879527559055
11
0.1578196062992126
21
0.2625038188976378
0
LINE
8
BLACK
6
CONTINUOUS
10
0.1578196062992126
20
0.2625038188976378
11
0.1577616141732283
21
0.2627952755905512
0
LINE
8
BLACK
6
CONTINUOUS
10
0.1577616141732283
20
0.2627952755905512
11
0.1256495669291338
21
0.2627952755905512
0
LINE
8
BLACK
6
CONTINUOUS
10
0.1256495669291338
20
0.2627952755905512
11
0.124945157480315
21
0.2614128346456693
0
LINE
8
BLACK
6
CONTINUOUS
10
0.124945157480315
20
0.2614128346456693
11
0.1214611811023622
21
0.2579288582677166
0
LINE
8
BLACK
6
CONTINUOUS
10
0.1214611811023622
20
0.2579288582677166
11
0.1170711417322835
21
0.2556920078740157
0
LINE
8
BLACK
6
CONTINUOUS
10
0.1170711417322835
20
0.2556920078740157
11
0.1122047244094488
21
0.2549212598425197
0
LINE
8
BLACK
6
CONTINUOUS
10
0.1122047244094488
20
0.2549212598425197
11
0.1073383070866142
21
0.2556920078740157
0
LINE
8
BLACK
6
CONTINUOUS
10
0.1073383070866142
20
0.2556920078740157
11
0.1029482677165354
21
0.2579288582677166
0
LINE
8
BLACK
6
CONTINUOUS
10
0.1029482677165354
20
0.2579288582677166
11
0.0994642913385827
21
0.2614128346456693
0
LINE
8
BLACK
6
CONTINUOUS
10
0.0994642913385827
20
0.2614128346456693
11
0.0972274409448819
21
0.265802874015748
0
LINE
8
BLACK
6
CONTINUOUS
10
0.0972274409448819
20
0.265802874015748
11
0.0964566929133858
21
0.2706692913385827
0
LINE
8
BLACK
6
CONTINUOUS
10
0.0964566929133858
20
0.2706692913385827
11
0.0972274409448819
21
0.2755357086614173
0
LINE
8
BLACK
6
CONTINUOUS
10
0.0972274409448819
20
0.2755357086614173
11
0.0994642913385827
21
0.2799257480314961
0
LINE
8
BLACK
6
CONTINUOUS
10
0.0994642913385827
20
0.2799257480314961
11
0.1029482677165354
21
0.2834097244094488
0
LINE
8
BLACK
6
CONTINUOUS
10
0.1029482677165354
20
0.2834097244094488
11
0.1073383070866142
21
0.2856465748031496
0
LINE
8
BLACK
6
CONTINUOUS
10
0.1073383070866142
20
0.2856465748031496
11
0.1122047244094488
21
0.2864173228346457
0
LINE
8
BLACK
6
CONTINUOUS
10
0.1122047244094488
20
0.2864173228346457
11
0.1170711417322835
21
0.2856465748031496
0
LINE
8
BLACK
6
CONTINUOUS
10
1.0013392913385826
20
0.4577227165354331
11
1.0041777165354331
21
0.4565470078740158
0
LINE
8
BLACK
6
CONTINUOUS
10
1.0041777165354331
20
0.4565470078740158
11
1.005370905511811
21
0.4555677559055118
0
LINE
8
BLACK
6
CONTINUOUS
10
1.005370905511811
20
0.4555677559055118
11
1.0570417322834647
21
0.4038969291338583
0
LINE
8
BLACK
6
CONTINUOUS
10
1.0570417322834647
20
0.4038969291338583
11
1.061023622047244
21
0.4045275590551181
0
LINE
8
BLACK
6
CONTINUOUS
10
1.061023622047244
20
0.4045275590551181
11
1.0658900393700788
21
0.403756811023622
0
LINE
8
BLACK
6
CONTINUOUS
10
1.0658900393700788
20
0.403756811023622
11
1.0702800787401574
21
0.4015199606299212
0
LINE
8
BLACK
6
CONTINUOUS
10
1.0702800787401574
20
0.4015199606299212
11
1.0737640551181102
21
0.3980359842519685
0
LINE
8
BLACK
6
CONTINUOUS
10
1.0737640551181102
20
0.3980359842519685
11
1.0760009055118109
21
0.3936459448818898
0
LINE
8
BLACK
6
CONTINUOUS
10
1.0760009055118109
20
0.3936459448818898
11
1.0767716535433072
21
0.3887795275590551
0
LINE
8
BLACK
6
CONTINUOUS
10
1.0767716535433072
20
0.3887795275590551
11
1.0760009055118109
21
0.3839131102362205
0
LINE
8
BLACK
6
CONTINUOUS
10
1.0760009055118109
20
0.3839131102362205
11
1.0737640551181102
21
0.3795230708661417
0
LINE
8
BLACK
6
CONTINUOUS
10
1.0737640551181102
20
0.3795230708661417
11
1.0702800787401574
21
0.376039094488189
0
LINE
8
BLACK
6
CONTINUOUS
10
1.0702800787401574
20
0.376039094488189
11
1.0658900393700788
21
0.3738022440944882
0
LINE
8
BLACK
6
CONTINUOUS
10
1.0658900393700788
20
0.3738022440944882
11
1.061023622047244
21
0.3730314960629921
0
LINE
8
BLACK
6
CONTINUOUS
10
1.061023622047244
20
0.3730314960629921
11
1.0561572047244094
21
0.3738022440944882
0
LINE
8
BLACK
6
CONTINUOUS
10
1.0561572047244094
20
0.3738022440944882
11
1.0517671653543308
21
0.376039094488189
0
LINE
8
BLACK
6
CONTINUOUS
10
1.0517671653543308
20
0.376039094488189
11
1.048283188976378
21
0.3795230708661417
0
LINE
8
BLACK
6
CONTINUOUS
10
1.048283188976378
20
0.3795230708661417
11
1.046046338582677
21
0.3839131102362205
0
LINE
8
BLACK
6
CONTINUOUS
10
1.046046338582677
20
0.3839131102362205
11
1.045275590551181
21
0.3887795275590551
0
LINE
8
BLACK
6
CONTINUOUS
10
1.045275590551181
20
0.3887795275590551
11
1.045906220472441
21
0.3927614173228346
0
LINE
8
BLACK
6
CONTINUOUS
10
1.045906220472441
20
0.3927614173228346
11
0.996541653543307
21
0.4421259842519685
0
LINE
8
BLACK
6
CONTINUOUS
10
0.996541653543307
20
0.4421259842519685
11
0.9392615354330709
21
0.4421259842519685
0
LINE
8
BLACK
6
CONTINUOUS
10
0.9392615354330709
20
0.4421259842519685
11
0.9295677559055118
21
0.4324322440944882
0
LINE
8
BLACK
6
CONTINUOUS
10
0.9295677559055118
20
0.4324322440944882
11
0.9283745669291338
21
0.4314529921259843
0
LINE
8
BLACK
6
CONTINUOUS
10
0.9283745669291338
20
0.4314529921259843
11
0.9275843700787402
21
0.4311257086614173
0
LINE
8
BLACK
6
CONTINUOUS
10
0.9275843700787402
20
0.4311257086614173
11
0.874890905511811
21
0.3784322440944882
0
LINE
8
BLACK
6
CONTINUOUS
10
0.874890905511811
20
0.3784322440944882
11
0.873697716535433
21
0.3774529921259843
0
LINE
8
BLACK
6
CONTINUOUS
10
0.873697716535433
20
0.3774529921259843
11
0.8708592913385826
21
0.3762772834645669
0
LINE
8
BLACK
6
CONTINUOUS
10
0.8708592913385826
20
0.3762772834645669
11
0.8693231496062992
21
0.3761259842519685
0
LINE
8
BLACK
6
CONTINUOUS
10
0.8693231496062992
20
0.3761259842519685
11
0.5991102362204724
21
0.3761259842519685
0
LINE
8
BLACK
6
CONTINUOUS
10
0.5991102362204724
20
0.3761259842519685
11
0.597574094488189
21
0.3762772834645669
0
LINE
8
BLACK
6
CONTINUOUS
10
0.597574094488189
20
0.3762772834645669
11
0.5947356692913386
21
0.3774529921259843
0
LINE
8
BLACK
6
CONTINUOUS
10
0.5947356692913386
20
0.3774529921259843
11
0.5935424803149606
21
0.3784322440944882
0
LINE
8
BLACK
6
CONTINUOUS
10
0.5935424803149606
20
0.3784322440944882
11
0.5589424803149606
21
0.4130322440944882
0
LINE
8
BLACK
6
CONTINUOUS
10
0.5589424803149606
20
0.4130322440944882
11
0.5549606299212598
21
0.4124015748031496
0
LINE
8
BLACK
6
CONTINUOUS
10
0.5549606299212598
20
0.4124015748031496
11
0.5500942125984252
21
0.4131723228346457
0
LINE
8
BLACK
6
CONTINUOUS
10
0.5500942125984252
20
0.4131723228346457
11
0.5457041732283464
21
0.4154091732283465
0
LINE
8
BLACK
6
CONTINUOUS
10
0.5457041732283464
20
0.4154091732283465
11
0.5422201968503937
21
0.4188931496062992
0
LINE
8
BLACK
6
CONTINUOUS
10
0.5422201968503937
20
0.4188931496062992
11
0.5399833464566929
21
0.423283188976378
0
LINE
8
BLACK
6
CONTINUOUS
10
0.5399833464566929
20
0.423283188976378
11
0.5392125984251969
21
0.4281496062992126
0
LINE
8
BLACK
6
CONTINUOUS
10
0.5392125984251969
20
0.4281496062992126
11
0.5399833464566929
21
0.4330160236220472
0
LINE
8
BLACK
6
CONTINUOUS
10
0.5399833464566929
20
0.4330160236220472
11
0.5422201968503937
21
0.437406062992126
0
LINE
8
BLACK
6
CONTINUOUS
10
0.5422201968503937
20
0.437406062992126
11
0.5457041732283464
21
0.4408900393700788
0
LINE
8
BLACK
6
CONTINUOUS
10
0.5457041732283464
20
0.4408900393700788
11
0.5500942125984252
21
0.4431268897637795
0
LINE
8
BLACK
6
CONTINUOUS
10
0.5500942125984252
20
0.4431268897637795
11
0.5549606299212598
21
0.4438976377952756
0
LINE
8
BLACK
6
CONTINUOUS
10
0.5549606299212598
20
0.4438976377952756
11
0.5598270472440945
21
0.4431268897637795
0
LINE
8
BLACK
6
CONTINUOUS
10
0.5598270472440945
20
0.4431268897637795
11
0.5642170866141732
21
0.4408900393700788
0
LINE
8
BLACK
6
CONTINUOUS
10
0.5642170866141732
20
0.4408900393700788
11
0.567701062992126
21
0.437406062992126
0
LINE
8
BLACK
6
CONTINUOUS
10
0.567701062992126
20
0.437406062992126
11
0.5699379133858268
21
0.4330160236220472
0
LINE
8
BLACK
6
CONTINUOUS
10
0.5699379133858268
20
0.4330160236220472
11
0.5707086614173228
21
0.4281496062992126
0
LINE
8
BLACK
6
CONTINUOUS
10
0.5707086614173228
20
0.4281496062992126
11
0.5700779921259842
21
0.4241677559055118
0
LINE
8
BLACK
6
CONTINUOUS
10
0.5700779921259842
20
0.4241677559055118
11
0.6023717322834645
21
0.3918740157480315
0
LINE
8
BLACK
6
CONTINUOUS
10
0.6023717322834645
20
0.3918740157480315
11
0.8660616535433071
21
0.3918740157480315
0
LINE
8
BLACK
6
CONTINUOUS
10
0.8660616535433071
20
0.3918740157480315
11
0.9177553543307087
21
0.4435677559055118
0
LINE
8
BLACK
6
CONTINUOUS
10
0.9177553543307087
20
0.4435677559055118
11
0.9189485826771653
21
0.4445470078740157
0
LINE
8
BLACK
6
CONTINUOUS
10
0.9189485826771653
20
0.4445470078740157
11
0.919738779527559
21
0.4448743700787401
0
LINE
8
BLACK
6
CONTINUOUS
10
0.919738779527559
20
0.4448743700787401
11
0.9304322047244095
21
0.4555677559055118
0
LINE
8
BLACK
6
CONTINUOUS
10
0.9304322047244095
20
0.4555677559055118
11
0.9316254330708661
21
0.4565470078740158
0
LINE
8
BLACK
6
CONTINUOUS
10
0.9316254330708661
20
0.4565470078740158
11
0.9344638582677165
21
0.4577227165354331
0
LINE
8
BLACK
6
CONTINUOUS
10
0.9344638582677165
20
0.4577227165354331
11
0.9359999999999999
21
0.4578740157480315
0
LINE
8
BLACK
6
CONTINUOUS
10
0.9359999999999999
20
0.4578740157480315
11
0.9998031496062992
21
0.4578740157480315
0
LINE
8
BLACK
6
CONTINUOUS
10
0.9998031496062992
20
0.4578740157480315
11
1.0013392913385826
21
0.4577227165354331
0
CIRCLE
8
BLACK
10
0.945
20
0.517
40
0.0068897637795276
0
CIRCLE
8
BLACK
10
0.4921259842519685
20
0.5905511811023622
40
0.0068897637795276
0
CIRCLE
8
BLACK
10
0.8533464566929133
20
0.344488188976378
40
0.0068897637795276
0
CIRCLE
8
BLACK
10
0.4921259842519685
20
0.
40
0.0068897637795276
0
CIRCLE
8
BLACK
10
0.8533464566929133
20
0.2460629921259843
40
0.0068897637795276
0
CIRCLE
8
BLACK
10
0.945
20
0.0735511811023622
40
0.0068897637795276
0
CIRCLE
8
BLACK
10
0.8533464566929133
20
0.4232283464566929
40
0.0068897637795276
0
CIRCLE
8
BLACK
10
0.0984251968503937
20
0.5905511811023622
40
0.0068897637795276
0
CIRCLE
8
BLACK
10
0.8858267716535433
20
0.
40
0.0068897637795276
0
CIRCLE
8
BLACK
10
0.8986220472440944
20
0.4735511811023622
40
0.0068897637795276
0
CIRCLE
8
BLACK
10
0.8858267716535433
20
0.5905511811023622
40
0.0068897637795276
0
CIRCLE
8
BLACK
10
0.0984251968503937
20
0.
40
0.0068897637795276
0
CIRCLE
8
BLACK
10
0.898
20
0.117
40
0.0068897637795276
0
CIRCLE
8
BLACK
10
0.8533464566929133
20
0.1673228346456693
40
0.0068897637795276
0
CIRCLE
8
BLACK
10
1.1318897637795275
20
0.1948818897637795
40
0.0068897637795276
0
CIRCLE
8
BLACK
10
1.1318897637795275
20
0.3956692913385826
40
0.0068897637795276
0
CIRCLE
8
BLACK
10
0.9311023622047244
20
0.1948818897637795
40
0.0068897637795276
0
CIRCLE
8
BLACK
10
0.9311023622047244
20
0.3956692913385826
40
0.0068897637795276
0
CIRCLE
8
BLACK
10
0.5549606299212598
20
0.4281496062992126
40
0.0078740157480315
0
CIRCLE
8
BLACK
10
0.165
20
0.17
40
0.0078740157480315
0
CIRCLE
8
BLACK
10
0.045
20
0.505
40
0.0078740157480315
0
CIRCLE
8
BLACK
10
0.155
20
0.475
40
0.0078740157480315
0
CIRCLE
8
BLACK
10
0.085
20
0.505
40
0.0078740157480315
0
CIRCLE
8
BLACK
10
0.125
20
0.505
40
0.0078740157480315
0
CIRCLE
8
BLACK
10
0.045
20
0.215
40
0.0078740157480315
0
CIRCLE
8
BLACK
10
0.6240157480314961
20
0.2165354330708661
40
0.0078740157480315
0
CIRCLE
8
BLACK
10
0.5111804330708661
20
0.1926061811023622
40
0.0078740157480315
0
CIRCLE
8
BLACK
10
0.045
20
0.09
40
0.0078740157480315
0
CIRCLE
8
BLACK
10
0.065
20
0.385
40
0.0078740157480315
0
CIRCLE
8
BLACK
10
0.135
20
0.09
40
0.0078740157480315
0
CIRCLE
8
BLACK
10
0.165
20
0.125
40
0.0078740157480315
0
CIRCLE
8
BLACK
10
0.04
20
0.35
40
0.0078740157480315
0
CIRCLE
8
BLACK
10
0.09
20
0.09
40
0.0078740157480315
0
CIRCLE
8
BLACK
10
0.2
20
0.42
40
0.0078740157480315
0
CIRCLE
8
BLACK
10
0.04
20
0.305
40
0.0078740157480315
0
CIRCLE
8
BLACK
10
0.3561417322834646
20
0.437992125984252
40
0.0078740157480315
0
CIRCLE
8
BLACK
10
1.061023622047244
20
0.3887795275590551
40
0.0078740157480315
0
CIRCLE
8
BLACK
10
0.3590944881889764
20
0.2312992125984252
40
0.0078740157480315
0
CIRCLE
8
BLACK
10
0.04
20
0.26
40
0.0078740157480315
0
CIRCLE
8
BLACK
10
0.16
20
0.42
40
0.0078740157480315
0
CIRCLE
8
BLACK
10
0.449
20
0.082
40
0.0078740157480315
0
CIRCLE
8
BLACK
10
0.542
20
0.1611298031496063
40
0.0078740157480315
0
CIRCLE
8
BLACK
10
0.11
20
0.37
40
0.0078740157480315
0
CIRCLE
8
BLACK
10
0.25
20
0.37
40
0.0078740157480315
0
CIRCLE
8
BLACK
10
0.1122047244094488
20
0.2706692913385827
40
0.0078740157480315
0
CIRCLE
8
BLACK
10
0.2665748031496063
20
0.312992125984252
40
0.0078740157480315
0
CIRCLE
8
BLACK
10
0.61
20
0.32
40
0.0078740157480315
0
CIRCLE
8
BLACK
10
1.0718503937007873
20
0.1968503937007874
40
0.0078740157480315
0
CIRCLE
8
BLACK
10
0.25
20
0.27
40
0.0078740157480315
0
CIRCLE
8
BLACK
10
0.7
20
0.27
40
0.0078740157480315
0
CIRCLE
8
BLACK
10
0.4628437795275591
20
0.1333294488188976
40
0.0078740157480315
0
CIRCLE
8
BLACK
10
0.2691458267716536
20
0.1389204330708661
40
0.0078740157480315
0
CIRCLE
8
BLACK
10
1.0329588582677165
20
0.1908577559055118
40
0.0078740157480315
0
CIRCLE
8
BLACK
10
0.71
20
0.141751968503937
40
0.0078740157480315
  0
ENDSEC
  0
EOF
