  0
SECTION
  2
HEADER
  9
$ANGBASE
  50
0.0
  9
$ANGDIR
  70
1
  9
$MEASUREMENT
  70
0
  0
ENDSEC
  0
SECTION
  2
TABLES
  0
TABLE
  2
LTYPE
  70
4
  0
LTYPE
  5
40F
  2
CONTINUOUS
  70
0
  3
Solid line
  72
65
  73
0
  40
0.0
  0
LTYPE
  5
410
  2
DASHDOT
 70
0
  3
Dash Dot ____ _ ____ _
 72
65
 73
4
 40
2.0
 49
1.25
 49
-0.25
 49
0.25
 49
-0.25
  0
LTYPE
  5
411
  2
DASHED
 70
0
  3
Dashed __ __ __ __ __
 72
65
 73
2
 40
0.75
 49
0.5
 49
-0.25
  0
LTYPE
  5
43B
  2
DOTTED
 70
0
  3
Dotted .  .  .  .
 72
65
 73
2
 40
0.2
 49
0.0
 49
-0.2
  0
ENDTAB
  0
TABLE
  2
STYLE
  70
4
  0
STYLE
  2
KICAD
  70
0
  40
0
  41
1
  42
1
  50
0
  71
0
  3
isocp.shx
  0
STYLE
  2
KICADB
  70
0
  40
0
  41
1
  42
1
  50
0
  71
0
  3
isocp.shx
  0
STYLE
  2
KICADI
  70
0
  40
0
  41
1
  42
1
  50
15
  71
0
  3
isocp.shx
  0
STYLE
  2
KICADBI
  70
0
  40
0
  41
1
  42
1
  50
15
  71
0
  3
isocp.shx
  0
ENDTAB
  0
TABLE
  2
LAYER
  70
1
  0
LAYER
  2
BLACK
  70
0
  62
7
  6
CONTINUOUS
  0
ENDTAB
  0
ENDSEC
  0
SECTION
  2
ENTITIES
0
LINE
8
BLACK
6
CONTINUOUS
10
0.689031
20
0.0850679
11
0.689166
21
0.0849544
0
LINE
8
BLACK
6
CONTINUOUS
10
0.689166
20
0.0849544
11
0.689341
21
0.0849343
0
LINE
8
BLACK
6
CONTINUOUS
10
0.689341
20
0.0849343
11
0.693091
21
0.0830595
0
LINE
8
BLACK
6
CONTINUOUS
10
0.693091
20
0.0830595
11
0.693914
21
0.0824486
0
LINE
8
BLACK
6
CONTINUOUS
10
0.693914
20
0.0824486
11
0.69409
21
0.0820429
0
LINE
8
BLACK
6
CONTINUOUS
10
0.69409
20
0.0820429
11
0.694411
21
0.081739
0
LINE
8
BLACK
6
CONTINUOUS
10
0.694411
20
0.081739
11
0.696286
21
0.0779894
0
LINE
8
BLACK
6
CONTINUOUS
10
0.696286
20
0.0779894
11
0.696578
21
0.0770065
0
LINE
8
BLACK
6
CONTINUOUS
10
0.696578
20
0.0770065
11
0.696537
21
0.0768348
0
LINE
8
BLACK
6
CONTINUOUS
10
0.696537
20
0.0768348
11
0.696598
21
0.0766689
0
LINE
8
BLACK
6
CONTINUOUS
10
0.696598
20
0.0766689
11
0.696598
21
0.0729194
0
LINE
8
BLACK
6
CONTINUOUS
10
0.696598
20
0.0729194
11
0.69642
21
0.0719095
0
LINE
8
BLACK
6
CONTINUOUS
10
0.69642
20
0.0719095
11
0.696106
21
0.0715357
0
LINE
8
BLACK
6
CONTINUOUS
10
0.696106
20
0.0715357
11
0.69595
21
0.0710736
0
LINE
8
BLACK
6
CONTINUOUS
10
0.69595
20
0.0710736
11
0.695477
21
0.0707861
0
LINE
8
BLACK
6
CONTINUOUS
10
0.695477
20
0.0707861
11
0.695121
21
0.0703622
0
LINE
8
BLACK
6
CONTINUOUS
10
0.695121
20
0.0703622
11
0.694641
21
0.0702775
0
LINE
8
BLACK
6
CONTINUOUS
10
0.694641
20
0.0702775
11
0.694224
21
0.070024
0
LINE
8
BLACK
6
CONTINUOUS
10
0.694224
20
0.070024
11
0.67785
21
0.0667492
0
LINE
8
BLACK
6
CONTINUOUS
10
0.67785
20
0.0667492
11
0.67785
21
0.0623679
0
LINE
8
BLACK
6
CONTINUOUS
10
0.67785
20
0.0623679
11
0.678973
21
0.0601221
0
LINE
8
BLACK
6
CONTINUOUS
10
0.678973
20
0.0601221
11
0.681219
21
0.0589993
0
LINE
8
BLACK
6
CONTINUOUS
10
0.681219
20
0.0589993
11
0.687324
21
0.0589993
0
LINE
8
BLACK
6
CONTINUOUS
10
0.687324
20
0.0589993
11
0.69045
21
0.0605623
0
LINE
8
BLACK
6
CONTINUOUS
10
0.69045
20
0.0605623
11
0.691433
21
0.0608546
0
LINE
8
BLACK
6
CONTINUOUS
10
0.691433
20
0.0608546
11
0.693397
21
0.0603854
0
LINE
8
BLACK
6
CONTINUOUS
10
0.693397
20
0.0603854
11
0.6946
21
0.0587631
0
LINE
8
BLACK
6
CONTINUOUS
10
0.6946
20
0.0587631
11
0.694479
21
0.0567469
0
LINE
8
BLACK
6
CONTINUOUS
10
0.694479
20
0.0567469
11
0.693091
21
0.0552802
0
LINE
8
BLACK
6
CONTINUOUS
10
0.693091
20
0.0552802
11
0.689341
21
0.0534055
0
LINE
8
BLACK
6
CONTINUOUS
10
0.689341
20
0.0534055
11
0.688358
21
0.0531131
0
LINE
8
BLACK
6
CONTINUOUS
10
0.688358
20
0.0531131
11
0.688186
21
0.0531541
0
LINE
8
BLACK
6
CONTINUOUS
10
0.688186
20
0.0531541
11
0.688021
21
0.0530937
0
LINE
8
BLACK
6
CONTINUOUS
10
0.688021
20
0.0530937
11
0.680522
21
0.0530937
0
LINE
8
BLACK
6
CONTINUOUS
10
0.680522
20
0.0530937
11
0.679512
21
0.0532718
0
LINE
8
BLACK
6
CONTINUOUS
10
0.679512
20
0.0532718
11
0.679376
21
0.0533853
0
LINE
8
BLACK
6
CONTINUOUS
10
0.679376
20
0.0533853
11
0.679201
21
0.0534055
0
LINE
8
BLACK
6
CONTINUOUS
10
0.679201
20
0.0534055
11
0.675451
21
0.0552802
0
LINE
8
BLACK
6
CONTINUOUS
10
0.675451
20
0.0552802
11
0.674628
21
0.0558911
0
LINE
8
BLACK
6
CONTINUOUS
10
0.674628
20
0.0558911
11
0.674452
21
0.0562969
0
LINE
8
BLACK
6
CONTINUOUS
10
0.674452
20
0.0562969
11
0.674131
21
0.0566007
0
LINE
8
BLACK
6
CONTINUOUS
10
0.674131
20
0.0566007
11
0.672256
21
0.0603503
0
LINE
8
BLACK
6
CONTINUOUS
10
0.672256
20
0.0603503
11
0.671964
21
0.0613333
0
LINE
8
BLACK
6
CONTINUOUS
10
0.671964
20
0.0613333
11
0.672005
21
0.061505
0
LINE
8
BLACK
6
CONTINUOUS
10
0.672005
20
0.061505
11
0.671944
21
0.0616708
0
LINE
8
BLACK
6
CONTINUOUS
10
0.671944
20
0.0616708
11
0.671944
21
0.0766689
0
LINE
8
BLACK
6
CONTINUOUS
10
0.671944
20
0.0766689
11
0.672123
21
0.0776789
0
LINE
8
BLACK
6
CONTINUOUS
10
0.672123
20
0.0776789
11
0.672236
21
0.0778141
0
LINE
8
BLACK
6
CONTINUOUS
10
0.672236
20
0.0778141
11
0.672256
21
0.0779894
0
LINE
8
BLACK
6
CONTINUOUS
10
0.672256
20
0.0779894
11
0.674131
21
0.081739
0
LINE
8
BLACK
6
CONTINUOUS
10
0.674131
20
0.081739
11
0.674742
21
0.0825626
0
LINE
8
BLACK
6
CONTINUOUS
10
0.674742
20
0.0825626
11
0.675148
21
0.0827385
0
LINE
8
BLACK
6
CONTINUOUS
10
0.675148
20
0.0827385
11
0.675451
21
0.0830595
0
LINE
8
BLACK
6
CONTINUOUS
10
0.675451
20
0.0830595
11
0.679201
21
0.0849343
0
LINE
8
BLACK
6
CONTINUOUS
10
0.679201
20
0.0849343
11
0.680184
21
0.0852266
0
LINE
8
BLACK
6
CONTINUOUS
10
0.680184
20
0.0852266
11
0.680356
21
0.0851856
0
LINE
8
BLACK
6
CONTINUOUS
10
0.680356
20
0.0851856
11
0.680522
21
0.085246
0
LINE
8
BLACK
6
CONTINUOUS
10
0.680522
20
0.085246
11
0.688021
21
0.085246
0
LINE
8
BLACK
6
CONTINUOUS
10
0.688021
20
0.085246
11
0.689031
21
0.0850679
0
LINE
8
BLACK
6
CONTINUOUS
10
0.678973
20
0.0782176
11
0.67785
21
0.0759719
0
LINE
8
BLACK
6
CONTINUOUS
10
0.67785
20
0.0759719
11
0.67785
21
0.0727717
0
LINE
8
BLACK
6
CONTINUOUS
10
0.67785
20
0.0727717
11
0.690692
21
0.0753401
0
LINE
8
BLACK
6
CONTINUOUS
10
0.690692
20
0.0753401
11
0.690692
21
0.0759719
0
LINE
8
BLACK
6
CONTINUOUS
10
0.690692
20
0.0759719
11
0.689569
21
0.0782176
0
LINE
8
BLACK
6
CONTINUOUS
10
0.689569
20
0.0782176
11
0.687324
21
0.0793405
0
LINE
8
BLACK
6
CONTINUOUS
10
0.687324
20
0.0793405
11
0.681219
21
0.0793405
0
LINE
8
BLACK
6
CONTINUOUS
10
0.681219
20
0.0793405
11
0.678973
21
0.0782176
0
LINE
8
BLACK
6
CONTINUOUS
10
0.722776
20
0.0850679
11
0.722912
21
0.0849544
0
LINE
8
BLACK
6
CONTINUOUS
10
0.722912
20
0.0849544
11
0.723087
21
0.0849343
0
LINE
8
BLACK
6
CONTINUOUS
10
0.723087
20
0.0849343
11
0.726836
21
0.0830595
0
LINE
8
BLACK
6
CONTINUOUS
10
0.726836
20
0.0830595
11
0.72766
21
0.0824486
0
LINE
8
BLACK
6
CONTINUOUS
10
0.72766
20
0.0824486
11
0.727836
21
0.0820429
0
LINE
8
BLACK
6
CONTINUOUS
10
0.727836
20
0.0820429
11
0.728157
21
0.081739
0
LINE
8
BLACK
6
CONTINUOUS
10
0.728157
20
0.081739
11
0.730032
21
0.0779894
0
LINE
8
BLACK
6
CONTINUOUS
10
0.730032
20
0.0779894
11
0.730324
21
0.0770065
0
LINE
8
BLACK
6
CONTINUOUS
10
0.730324
20
0.0770065
11
0.730283
21
0.0768348
0
LINE
8
BLACK
6
CONTINUOUS
10
0.730283
20
0.0768348
11
0.730343
21
0.0766689
0
LINE
8
BLACK
6
CONTINUOUS
10
0.730343
20
0.0766689
11
0.730343
21
0.0560465
0
LINE
8
BLACK
6
CONTINUOUS
10
0.730343
20
0.0560465
11
0.730165
21
0.0550366
0
LINE
8
BLACK
6
CONTINUOUS
10
0.730165
20
0.0550366
11
0.728867
21
0.0534893
0
LINE
8
BLACK
6
CONTINUOUS
10
0.728867
20
0.0534893
11
0.726878
21
0.0531386
0
LINE
8
BLACK
6
CONTINUOUS
10
0.726878
20
0.0531386
11
0.725741
21
0.0537951
0
LINE
8
BLACK
6
CONTINUOUS
10
0.725741
20
0.0537951
11
0.724962
21
0.0534055
0
LINE
8
BLACK
6
CONTINUOUS
10
0.724962
20
0.0534055
11
0.723979
21
0.0531131
0
LINE
8
BLACK
6
CONTINUOUS
10
0.723979
20
0.0531131
11
0.723807
21
0.0531541
0
LINE
8
BLACK
6
CONTINUOUS
10
0.723807
20
0.0531541
11
0.723641
21
0.0530937
0
LINE
8
BLACK
6
CONTINUOUS
10
0.723641
20
0.0530937
11
0.714267
21
0.0530937
0
LINE
8
BLACK
6
CONTINUOUS
10
0.714267
20
0.0530937
11
0.713257
21
0.0532718
0
LINE
8
BLACK
6
CONTINUOUS
10
0.713257
20
0.0532718
11
0.713122
21
0.0533853
0
LINE
8
BLACK
6
CONTINUOUS
10
0.713122
20
0.0533853
11
0.712947
21
0.0534055
0
LINE
8
BLACK
6
CONTINUOUS
10
0.712947
20
0.0534055
11
0.709197
21
0.0552802
0
LINE
8
BLACK
6
CONTINUOUS
10
0.709197
20
0.0552802
11
0.708374
21
0.0558911
0
LINE
8
BLACK
6
CONTINUOUS
10
0.708374
20
0.0558911
11
0.708198
21
0.0562969
0
LINE
8
BLACK
6
CONTINUOUS
10
0.708198
20
0.0562969
11
0.707877
21
0.0566007
0
LINE
8
BLACK
6
CONTINUOUS
10
0.707877
20
0.0566007
11
0.706002
21
0.0603503
0
LINE
8
BLACK
6
CONTINUOUS
10
0.706002
20
0.0603503
11
0.70571
21
0.0613333
0
LINE
8
BLACK
6
CONTINUOUS
10
0.70571
20
0.0613333
11
0.705751
21
0.061505
0
LINE
8
BLACK
6
CONTINUOUS
10
0.705751
20
0.061505
11
0.70569
21
0.0616708
0
LINE
8
BLACK
6
CONTINUOUS
10
0.70569
20
0.0616708
11
0.70569
21
0.0654204
0
LINE
8
BLACK
6
CONTINUOUS
10
0.70569
20
0.0654204
11
0.705868
21
0.0664303
0
LINE
8
BLACK
6
CONTINUOUS
10
0.705868
20
0.0664303
11
0.705982
21
0.0665656
0
LINE
8
BLACK
6
CONTINUOUS
10
0.705982
20
0.0665656
11
0.706002
21
0.0667409
0
LINE
8
BLACK
6
CONTINUOUS
10
0.706002
20
0.0667409
11
0.707877
21
0.0704904
0
LINE
8
BLACK
6
CONTINUOUS
10
0.707877
20
0.0704904
11
0.708488
21
0.0713141
0
LINE
8
BLACK
6
CONTINUOUS
10
0.708488
20
0.0713141
11
0.708893
21
0.0714899
0
LINE
8
BLACK
6
CONTINUOUS
10
0.708893
20
0.0714899
11
0.709197
21
0.0718109
0
LINE
8
BLACK
6
CONTINUOUS
10
0.709197
20
0.0718109
11
0.712947
21
0.0736857
0
LINE
8
BLACK
6
CONTINUOUS
10
0.712947
20
0.0736857
11
0.71393
21
0.073978
0
LINE
8
BLACK
6
CONTINUOUS
10
0.71393
20
0.073978
11
0.714101
21
0.073937
0
LINE
8
BLACK
6
CONTINUOUS
10
0.714101
20
0.073937
11
0.714267
21
0.0739974
0
LINE
8
BLACK
6
CONTINUOUS
10
0.714267
20
0.0739974
11
0.722944
21
0.0739974
0
LINE
8
BLACK
6
CONTINUOUS
10
0.722944
20
0.0739974
11
0.724438
21
0.0747443
0
LINE
8
BLACK
6
CONTINUOUS
10
0.724438
20
0.0747443
11
0.724438
21
0.0759719
0
LINE
8
BLACK
6
CONTINUOUS
10
0.724438
20
0.0759719
11
0.723315
21
0.0782176
0
LINE
8
BLACK
6
CONTINUOUS
10
0.723315
20
0.0782176
11
0.721069
21
0.0793405
0
LINE
8
BLACK
6
CONTINUOUS
10
0.721069
20
0.0793405
11
0.714964
21
0.0793405
0
LINE
8
BLACK
6
CONTINUOUS
10
0.714964
20
0.0793405
11
0.711838
21
0.0777774
0
LINE
8
BLACK
6
CONTINUOUS
10
0.711838
20
0.0777774
11
0.710855
21
0.0774851
0
LINE
8
BLACK
6
CONTINUOUS
10
0.710855
20
0.0774851
11
0.708891
21
0.0779544
0
LINE
8
BLACK
6
CONTINUOUS
10
0.708891
20
0.0779544
11
0.707688
21
0.0795766
0
LINE
8
BLACK
6
CONTINUOUS
10
0.707688
20
0.0795766
11
0.707809
21
0.0815928
0
LINE
8
BLACK
6
CONTINUOUS
10
0.707809
20
0.0815928
11
0.709197
21
0.0830595
0
LINE
8
BLACK
6
CONTINUOUS
10
0.709197
20
0.0830595
11
0.712947
21
0.0849343
0
LINE
8
BLACK
6
CONTINUOUS
10
0.712947
20
0.0849343
11
0.71393
21
0.0852266
0
LINE
8
BLACK
6
CONTINUOUS
10
0.71393
20
0.0852266
11
0.714101
21
0.0851856
0
LINE
8
BLACK
6
CONTINUOUS
10
0.714101
20
0.0851856
11
0.714267
21
0.085246
0
LINE
8
BLACK
6
CONTINUOUS
10
0.714267
20
0.085246
11
0.721766
21
0.085246
0
LINE
8
BLACK
6
CONTINUOUS
10
0.721766
20
0.085246
11
0.722776
21
0.0850679
0
LINE
8
BLACK
6
CONTINUOUS
10
0.723979
20
0.0681113
11
0.723807
21
0.0681523
0
LINE
8
BLACK
6
CONTINUOUS
10
0.723807
20
0.0681523
11
0.723641
21
0.0680919
0
LINE
8
BLACK
6
CONTINUOUS
10
0.723641
20
0.0680919
11
0.714964
21
0.0680919
0
LINE
8
BLACK
6
CONTINUOUS
10
0.714964
20
0.0680919
11
0.712719
21
0.0669691
0
LINE
8
BLACK
6
CONTINUOUS
10
0.712719
20
0.0669691
11
0.711596
21
0.0647233
0
LINE
8
BLACK
6
CONTINUOUS
10
0.711596
20
0.0647233
11
0.711596
21
0.0623679
0
LINE
8
BLACK
6
CONTINUOUS
10
0.711596
20
0.0623679
11
0.712719
21
0.0601221
0
LINE
8
BLACK
6
CONTINUOUS
10
0.712719
20
0.0601221
11
0.714964
21
0.0589993
0
LINE
8
BLACK
6
CONTINUOUS
10
0.714964
20
0.0589993
11
0.722944
21
0.0589993
0
LINE
8
BLACK
6
CONTINUOUS
10
0.722944
20
0.0589993
11
0.724438
21
0.0597462
0
LINE
8
BLACK
6
CONTINUOUS
10
0.724438
20
0.0597462
11
0.724438
21
0.0682479
0
LINE
8
BLACK
6
CONTINUOUS
10
0.724438
20
0.0682479
11
0.723979
21
0.0681113
0
LINE
8
BLACK
6
CONTINUOUS
10
0.7484
20
0.0973146
11
0.749091
21
0.0954166
0
LINE
8
BLACK
6
CONTINUOUS
10
0.749091
20
0.0954166
11
0.749091
21
0.085246
0
LINE
8
BLACK
6
CONTINUOUS
10
0.749091
20
0.085246
11
0.755512
21
0.085246
0
LINE
8
BLACK
6
CONTINUOUS
10
0.755512
20
0.085246
11
0.756522
21
0.0850679
0
LINE
8
BLACK
6
CONTINUOUS
10
0.756522
20
0.0850679
11
0.758069
21
0.0837696
0
LINE
8
BLACK
6
CONTINUOUS
10
0.758069
20
0.0837696
11
0.75842
21
0.0817805
0
LINE
8
BLACK
6
CONTINUOUS
10
0.75842
20
0.0817805
11
0.75741
21
0.0800313
0
LINE
8
BLACK
6
CONTINUOUS
10
0.75741
20
0.0800313
11
0.755512
21
0.0793405
0
LINE
8
BLACK
6
CONTINUOUS
10
0.755512
20
0.0793405
11
0.749091
21
0.0793405
0
LINE
8
BLACK
6
CONTINUOUS
10
0.749091
20
0.0793405
11
0.749091
21
0.0623679
0
LINE
8
BLACK
6
CONTINUOUS
10
0.749091
20
0.0623679
11
0.750214
21
0.0601221
0
LINE
8
BLACK
6
CONTINUOUS
10
0.750214
20
0.0601221
11
0.75246
21
0.0589993
0
LINE
8
BLACK
6
CONTINUOUS
10
0.75246
20
0.0589993
11
0.755512
21
0.0589993
0
LINE
8
BLACK
6
CONTINUOUS
10
0.755512
20
0.0589993
11
0.756522
21
0.0588212
0
LINE
8
BLACK
6
CONTINUOUS
10
0.756522
20
0.0588212
11
0.758069
21
0.0575229
0
LINE
8
BLACK
6
CONTINUOUS
10
0.758069
20
0.0575229
11
0.75842
21
0.0555337
0
LINE
8
BLACK
6
CONTINUOUS
10
0.75842
20
0.0555337
11
0.75741
21
0.0537846
0
LINE
8
BLACK
6
CONTINUOUS
10
0.75741
20
0.0537846
11
0.755512
21
0.0530937
0
LINE
8
BLACK
6
CONTINUOUS
10
0.755512
20
0.0530937
11
0.751763
21
0.0530937
0
LINE
8
BLACK
6
CONTINUOUS
10
0.751763
20
0.0530937
11
0.750753
21
0.0532718
0
LINE
8
BLACK
6
CONTINUOUS
10
0.750753
20
0.0532718
11
0.750617
21
0.0533853
0
LINE
8
BLACK
6
CONTINUOUS
10
0.750617
20
0.0533853
11
0.750442
21
0.0534055
0
LINE
8
BLACK
6
CONTINUOUS
10
0.750442
20
0.0534055
11
0.746693
21
0.0552802
0
LINE
8
BLACK
6
CONTINUOUS
10
0.746693
20
0.0552802
11
0.745869
21
0.0558911
0
LINE
8
BLACK
6
CONTINUOUS
10
0.745869
20
0.0558911
11
0.745693
21
0.0562969
0
LINE
8
BLACK
6
CONTINUOUS
10
0.745693
20
0.0562969
11
0.745372
21
0.0566007
0
LINE
8
BLACK
6
CONTINUOUS
10
0.745372
20
0.0566007
11
0.743497
21
0.0603503
0
LINE
8
BLACK
6
CONTINUOUS
10
0.743497
20
0.0603503
11
0.743205
21
0.0613333
0
LINE
8
BLACK
6
CONTINUOUS
10
0.743205
20
0.0613333
11
0.743246
21
0.061505
0
LINE
8
BLACK
6
CONTINUOUS
10
0.743246
20
0.061505
11
0.743186
21
0.0616708
0
LINE
8
BLACK
6
CONTINUOUS
10
0.743186
20
0.0616708
11
0.743186
21
0.0793405
0
LINE
8
BLACK
6
CONTINUOUS
10
0.743186
20
0.0793405
11
0.740514
21
0.0793405
0
LINE
8
BLACK
6
CONTINUOUS
10
0.740514
20
0.0793405
11
0.739504
21
0.0795185
0
LINE
8
BLACK
6
CONTINUOUS
10
0.739504
20
0.0795185
11
0.737957
21
0.0808169
0
LINE
8
BLACK
6
CONTINUOUS
10
0.737957
20
0.0808169
11
0.737606
21
0.082806
0
LINE
8
BLACK
6
CONTINUOUS
10
0.737606
20
0.082806
11
0.738616
21
0.0845552
0
LINE
8
BLACK
6
CONTINUOUS
10
0.738616
20
0.0845552
11
0.740514
21
0.085246
0
LINE
8
BLACK
6
CONTINUOUS
10
0.740514
20
0.085246
11
0.743186
21
0.085246
0
LINE
8
BLACK
6
CONTINUOUS
10
0.743186
20
0.085246
11
0.743186
21
0.0954166
0
LINE
8
BLACK
6
CONTINUOUS
10
0.743186
20
0.0954166
11
0.743364
21
0.0964265
0
LINE
8
BLACK
6
CONTINUOUS
10
0.743364
20
0.0964265
11
0.744662
21
0.0979737
0
LINE
8
BLACK
6
CONTINUOUS
10
0.744662
20
0.0979737
11
0.746651
21
0.0983245
0
LINE
8
BLACK
6
CONTINUOUS
10
0.746651
20
0.0983245
11
0.7484
21
0.0973146
0
LINE
8
BLACK
6
CONTINUOUS
10
0.863384
20
0.0850679
11
0.863519
21
0.0849544
0
LINE
8
BLACK
6
CONTINUOUS
10
0.863519
20
0.0849544
11
0.863694
21
0.0849343
0
LINE
8
BLACK
6
CONTINUOUS
10
0.863694
20
0.0849343
11
0.867444
21
0.0830595
0
LINE
8
BLACK
6
CONTINUOUS
10
0.867444
20
0.0830595
11
0.868268
21
0.0824486
0
LINE
8
BLACK
6
CONTINUOUS
10
0.868268
20
0.0824486
11
0.869071
21
0.0805954
0
LINE
8
BLACK
6
CONTINUOUS
10
0.869071
20
0.0805954
11
0.868495
21
0.0786594
0
LINE
8
BLACK
6
CONTINUOUS
10
0.868495
20
0.0786594
11
0.866809
21
0.0775465
0
LINE
8
BLACK
6
CONTINUOUS
10
0.866809
20
0.0775465
11
0.864803
21
0.0777774
0
LINE
8
BLACK
6
CONTINUOUS
10
0.864803
20
0.0777774
11
0.861677
21
0.0793405
0
LINE
8
BLACK
6
CONTINUOUS
10
0.861677
20
0.0793405
11
0.857447
21
0.0793405
0
LINE
8
BLACK
6
CONTINUOUS
10
0.857447
20
0.0793405
11
0.855201
21
0.0782176
0
LINE
8
BLACK
6
CONTINUOUS
10
0.855201
20
0.0782176
11
0.854078
21
0.0759719
0
LINE
8
BLACK
6
CONTINUOUS
10
0.854078
20
0.0759719
11
0.854078
21
0.0754913
0
LINE
8
BLACK
6
CONTINUOUS
10
0.854078
20
0.0754913
11
0.855201
21
0.0732455
0
LINE
8
BLACK
6
CONTINUOUS
10
0.855201
20
0.0732455
11
0.857447
21
0.0721226
0
LINE
8
BLACK
6
CONTINUOUS
10
0.857447
20
0.0721226
11
0.862374
21
0.0721226
0
LINE
8
BLACK
6
CONTINUOUS
10
0.862374
20
0.0721226
11
0.863384
21
0.0719446
0
LINE
8
BLACK
6
CONTINUOUS
10
0.863384
20
0.0719446
11
0.863519
21
0.0718311
0
LINE
8
BLACK
6
CONTINUOUS
10
0.863519
20
0.0718311
11
0.863694
21
0.0718109
0
LINE
8
BLACK
6
CONTINUOUS
10
0.863694
20
0.0718109
11
0.867444
21
0.0699361
0
LINE
8
BLACK
6
CONTINUOUS
10
0.867444
20
0.0699361
11
0.868268
21
0.0693252
0
LINE
8
BLACK
6
CONTINUOUS
10
0.868268
20
0.0693252
11
0.868443
21
0.0689196
0
LINE
8
BLACK
6
CONTINUOUS
10
0.868443
20
0.0689196
11
0.868764
21
0.0686156
0
LINE
8
BLACK
6
CONTINUOUS
10
0.868764
20
0.0686156
11
0.870639
21
0.0648661
0
LINE
8
BLACK
6
CONTINUOUS
10
0.870639
20
0.0648661
11
0.870931
21
0.0638832
0
LINE
8
BLACK
6
CONTINUOUS
10
0.870931
20
0.0638832
11
0.87089
21
0.0637115
0
LINE
8
BLACK
6
CONTINUOUS
10
0.87089
20
0.0637115
11
0.870951
21
0.0635456
0
LINE
8
BLACK
6
CONTINUOUS
10
0.870951
20
0.0635456
11
0.870951
21
0.0616708
0
LINE
8
BLACK
6
CONTINUOUS
10
0.870951
20
0.0616708
11
0.870773
21
0.0606609
0
LINE
8
BLACK
6
CONTINUOUS
10
0.870773
20
0.0606609
11
0.870659
21
0.0605257
0
LINE
8
BLACK
6
CONTINUOUS
10
0.870659
20
0.0605257
11
0.870639
21
0.0603503
0
LINE
8
BLACK
6
CONTINUOUS
10
0.870639
20
0.0603503
11
0.868764
21
0.0566007
0
LINE
8
BLACK
6
CONTINUOUS
10
0.868764
20
0.0566007
11
0.868153
21
0.0557771
0
LINE
8
BLACK
6
CONTINUOUS
10
0.868153
20
0.0557771
11
0.867748
21
0.0556013
0
LINE
8
BLACK
6
CONTINUOUS
10
0.867748
20
0.0556013
11
0.867444
21
0.0552802
0
LINE
8
BLACK
6
CONTINUOUS
10
0.867444
20
0.0552802
11
0.863694
21
0.0534055
0
LINE
8
BLACK
6
CONTINUOUS
10
0.863694
20
0.0534055
11
0.862711
21
0.0531131
0
LINE
8
BLACK
6
CONTINUOUS
10
0.862711
20
0.0531131
11
0.86254
21
0.0531541
0
LINE
8
BLACK
6
CONTINUOUS
10
0.86254
20
0.0531541
11
0.862374
21
0.0530937
0
LINE
8
BLACK
6
CONTINUOUS
10
0.862374
20
0.0530937
11
0.854875
21
0.0530937
0
LINE
8
BLACK
6
CONTINUOUS
10
0.854875
20
0.0530937
11
0.853865
21
0.0532718
0
LINE
8
BLACK
6
CONTINUOUS
10
0.853865
20
0.0532718
11
0.85373
21
0.0533853
0
LINE
8
BLACK
6
CONTINUOUS
10
0.85373
20
0.0533853
11
0.853554
21
0.0534055
0
LINE
8
BLACK
6
CONTINUOUS
10
0.853554
20
0.0534055
11
0.849805
21
0.0552802
0
LINE
8
BLACK
6
CONTINUOUS
10
0.849805
20
0.0552802
11
0.848981
21
0.0558911
0
LINE
8
BLACK
6
CONTINUOUS
10
0.848981
20
0.0558911
11
0.848178
21
0.0577443
0
LINE
8
BLACK
6
CONTINUOUS
10
0.848178
20
0.0577443
11
0.848754
21
0.0596804
0
LINE
8
BLACK
6
CONTINUOUS
10
0.848754
20
0.0596804
11
0.850439
21
0.0607932
0
LINE
8
BLACK
6
CONTINUOUS
10
0.850439
20
0.0607932
11
0.852446
21
0.0605623
0
LINE
8
BLACK
6
CONTINUOUS
10
0.852446
20
0.0605623
11
0.855572
21
0.0589993
0
LINE
8
BLACK
6
CONTINUOUS
10
0.855572
20
0.0589993
11
0.861677
21
0.0589993
0
LINE
8
BLACK
6
CONTINUOUS
10
0.861677
20
0.0589993
11
0.863922
21
0.0601221
0
LINE
8
BLACK
6
CONTINUOUS
10
0.863922
20
0.0601221
11
0.865045
21
0.0623679
0
LINE
8
BLACK
6
CONTINUOUS
10
0.865045
20
0.0623679
11
0.865045
21
0.0628486
0
LINE
8
BLACK
6
CONTINUOUS
10
0.865045
20
0.0628486
11
0.863922
21
0.0650943
0
LINE
8
BLACK
6
CONTINUOUS
10
0.863922
20
0.0650943
11
0.861677
21
0.0662171
0
LINE
8
BLACK
6
CONTINUOUS
10
0.861677
20
0.0662171
11
0.85675
21
0.0662171
0
LINE
8
BLACK
6
CONTINUOUS
10
0.85675
20
0.0662171
11
0.85574
21
0.0663952
0
LINE
8
BLACK
6
CONTINUOUS
10
0.85574
20
0.0663952
11
0.855604
21
0.0665087
0
LINE
8
BLACK
6
CONTINUOUS
10
0.855604
20
0.0665087
11
0.855429
21
0.0665289
0
LINE
8
BLACK
6
CONTINUOUS
10
0.855429
20
0.0665289
11
0.851679
21
0.0684036
0
LINE
8
BLACK
6
CONTINUOUS
10
0.851679
20
0.0684036
11
0.850856
21
0.0690145
0
LINE
8
BLACK
6
CONTINUOUS
10
0.850856
20
0.0690145
11
0.85068
21
0.0694202
0
LINE
8
BLACK
6
CONTINUOUS
10
0.85068
20
0.0694202
11
0.850359
21
0.0697241
0
LINE
8
BLACK
6
CONTINUOUS
10
0.850359
20
0.0697241
11
0.848484
21
0.0734737
0
LINE
8
BLACK
6
CONTINUOUS
10
0.848484
20
0.0734737
11
0.848192
21
0.0744566
0
LINE
8
BLACK
6
CONTINUOUS
10
0.848192
20
0.0744566
11
0.848233
21
0.0746283
0
LINE
8
BLACK
6
CONTINUOUS
10
0.848233
20
0.0746283
11
0.848172
21
0.0747942
0
LINE
8
BLACK
6
CONTINUOUS
10
0.848172
20
0.0747942
11
0.848172
21
0.0766689
0
LINE
8
BLACK
6
CONTINUOUS
10
0.848172
20
0.0766689
11
0.848351
21
0.0776789
0
LINE
8
BLACK
6
CONTINUOUS
10
0.848351
20
0.0776789
11
0.848464
21
0.0778141
0
LINE
8
BLACK
6
CONTINUOUS
10
0.848464
20
0.0778141
11
0.848484
21
0.0779894
0
LINE
8
BLACK
6
CONTINUOUS
10
0.848484
20
0.0779894
11
0.850359
21
0.081739
0
LINE
8
BLACK
6
CONTINUOUS
10
0.850359
20
0.081739
11
0.85097
21
0.0825626
0
LINE
8
BLACK
6
CONTINUOUS
10
0.85097
20
0.0825626
11
0.851376
21
0.0827385
0
LINE
8
BLACK
6
CONTINUOUS
10
0.851376
20
0.0827385
11
0.851679
21
0.0830595
0
LINE
8
BLACK
6
CONTINUOUS
10
0.851679
20
0.0830595
11
0.855429
21
0.0849343
0
LINE
8
BLACK
6
CONTINUOUS
10
0.855429
20
0.0849343
11
0.856412
21
0.0852266
0
LINE
8
BLACK
6
CONTINUOUS
10
0.856412
20
0.0852266
11
0.856584
21
0.0851856
0
LINE
8
BLACK
6
CONTINUOUS
10
0.856584
20
0.0851856
11
0.85675
21
0.085246
0
LINE
8
BLACK
6
CONTINUOUS
10
0.85675
20
0.085246
11
0.862374
21
0.085246
0
LINE
8
BLACK
6
CONTINUOUS
10
0.862374
20
0.085246
11
0.863384
21
0.0850679
0
LINE
8
BLACK
6
CONTINUOUS
10
0.904006
20
0.0841912
11
0.904697
21
0.0822932
0
LINE
8
BLACK
6
CONTINUOUS
10
0.904697
20
0.0822932
11
0.904697
21
0.0560465
0
LINE
8
BLACK
6
CONTINUOUS
10
0.904697
20
0.0560465
11
0.904519
21
0.0550366
0
LINE
8
BLACK
6
CONTINUOUS
10
0.904519
20
0.0550366
11
0.90322
21
0.0534893
0
LINE
8
BLACK
6
CONTINUOUS
10
0.90322
20
0.0534893
11
0.901231
21
0.0531386
0
LINE
8
BLACK
6
CONTINUOUS
10
0.901231
20
0.0531386
11
0.899482
21
0.0541485
0
LINE
8
BLACK
6
CONTINUOUS
10
0.899482
20
0.0541485
11
0.899396
21
0.0543836
0
LINE
8
BLACK
6
CONTINUOUS
10
0.899396
20
0.0543836
11
0.89744
21
0.0534055
0
LINE
8
BLACK
6
CONTINUOUS
10
0.89744
20
0.0534055
11
0.896457
21
0.0531131
0
LINE
8
BLACK
6
CONTINUOUS
10
0.896457
20
0.0531131
11
0.896285
21
0.0531541
0
LINE
8
BLACK
6
CONTINUOUS
10
0.896285
20
0.0531541
11
0.89612
21
0.0530937
0
LINE
8
BLACK
6
CONTINUOUS
10
0.89612
20
0.0530937
11
0.890495
21
0.0530937
0
LINE
8
BLACK
6
CONTINUOUS
10
0.890495
20
0.0530937
11
0.889485
21
0.0532718
0
LINE
8
BLACK
6
CONTINUOUS
10
0.889485
20
0.0532718
11
0.88935
21
0.0533853
0
LINE
8
BLACK
6
CONTINUOUS
10
0.88935
20
0.0533853
11
0.889175
21
0.0534055
0
LINE
8
BLACK
6
CONTINUOUS
10
0.889175
20
0.0534055
11
0.885425
21
0.0552802
0
LINE
8
BLACK
6
CONTINUOUS
10
0.885425
20
0.0552802
11
0.884602
21
0.0558911
0
LINE
8
BLACK
6
CONTINUOUS
10
0.884602
20
0.0558911
11
0.884426
21
0.0562969
0
LINE
8
BLACK
6
CONTINUOUS
10
0.884426
20
0.0562969
11
0.884105
21
0.0566007
0
LINE
8
BLACK
6
CONTINUOUS
10
0.884105
20
0.0566007
11
0.88223
21
0.0603503
0
LINE
8
BLACK
6
CONTINUOUS
10
0.88223
20
0.0603503
11
0.881938
21
0.0613333
0
LINE
8
BLACK
6
CONTINUOUS
10
0.881938
20
0.0613333
11
0.881979
21
0.061505
0
LINE
8
BLACK
6
CONTINUOUS
10
0.881979
20
0.061505
11
0.881918
21
0.0616708
0
LINE
8
BLACK
6
CONTINUOUS
10
0.881918
20
0.0616708
11
0.881918
21
0.0822932
0
LINE
8
BLACK
6
CONTINUOUS
10
0.881918
20
0.0822932
11
0.882096
21
0.0833031
0
LINE
8
BLACK
6
CONTINUOUS
10
0.882096
20
0.0833031
11
0.883395
21
0.0848504
0
LINE
8
BLACK
6
CONTINUOUS
10
0.883395
20
0.0848504
11
0.885384
21
0.0852011
0
LINE
8
BLACK
6
CONTINUOUS
10
0.885384
20
0.0852011
11
0.887133
21
0.0841912
0
LINE
8
BLACK
6
CONTINUOUS
10
0.887133
20
0.0841912
11
0.887824
21
0.0822932
0
LINE
8
BLACK
6
CONTINUOUS
10
0.887824
20
0.0822932
11
0.887824
21
0.0623679
0
LINE
8
BLACK
6
CONTINUOUS
10
0.887824
20
0.0623679
11
0.888947
21
0.0601221
0
LINE
8
BLACK
6
CONTINUOUS
10
0.888947
20
0.0601221
11
0.891192
21
0.0589993
0
LINE
8
BLACK
6
CONTINUOUS
10
0.891192
20
0.0589993
11
0.895423
21
0.0589993
0
LINE
8
BLACK
6
CONTINUOUS
10
0.895423
20
0.0589993
11
0.89812
21
0.060348
0
LINE
8
BLACK
6
CONTINUOUS
10
0.89812
20
0.060348
11
0.898791
21
0.0610191
0
LINE
8
BLACK
6
CONTINUOUS
10
0.898791
20
0.0610191
11
0.898791
21
0.0822932
0
LINE
8
BLACK
6
CONTINUOUS
10
0.898791
20
0.0822932
11
0.898969
21
0.0833031
0
LINE
8
BLACK
6
CONTINUOUS
10
0.898969
20
0.0833031
11
0.900268
21
0.0848504
0
LINE
8
BLACK
6
CONTINUOUS
10
0.900268
20
0.0848504
11
0.902257
21
0.0852011
0
LINE
8
BLACK
6
CONTINUOUS
10
0.902257
20
0.0852011
11
0.904006
21
0.0841912
0
LINE
8
BLACK
6
CONTINUOUS
10
0.953373
20
0.0850679
11
0.953508
21
0.0849544
0
LINE
8
BLACK
6
CONTINUOUS
10
0.953508
20
0.0849544
11
0.953683
21
0.0849343
0
LINE
8
BLACK
6
CONTINUOUS
10
0.953683
20
0.0849343
11
0.957433
21
0.0830595
0
LINE
8
BLACK
6
CONTINUOUS
10
0.957433
20
0.0830595
11
0.958256
21
0.0824486
0
LINE
8
BLACK
6
CONTINUOUS
10
0.958256
20
0.0824486
11
0.958432
21
0.0820429
0
LINE
8
BLACK
6
CONTINUOUS
10
0.958432
20
0.0820429
11
0.958753
21
0.081739
0
LINE
8
BLACK
6
CONTINUOUS
10
0.958753
20
0.081739
11
0.960628
21
0.0779894
0
LINE
8
BLACK
6
CONTINUOUS
10
0.960628
20
0.0779894
11
0.96092
21
0.0770065
0
LINE
8
BLACK
6
CONTINUOUS
10
0.96092
20
0.0770065
11
0.960879
21
0.0768348
0
LINE
8
BLACK
6
CONTINUOUS
10
0.960879
20
0.0768348
11
0.96094
21
0.0766689
0
LINE
8
BLACK
6
CONTINUOUS
10
0.96094
20
0.0766689
11
0.96094
21
0.0560465
0
LINE
8
BLACK
6
CONTINUOUS
10
0.96094
20
0.0560465
11
0.960762
21
0.0550366
0
LINE
8
BLACK
6
CONTINUOUS
10
0.960762
20
0.0550366
11
0.959463
21
0.0534893
0
LINE
8
BLACK
6
CONTINUOUS
10
0.959463
20
0.0534893
11
0.957474
21
0.0531386
0
LINE
8
BLACK
6
CONTINUOUS
10
0.957474
20
0.0531386
11
0.956337
21
0.0537951
0
LINE
8
BLACK
6
CONTINUOUS
10
0.956337
20
0.0537951
11
0.955558
21
0.0534055
0
LINE
8
BLACK
6
CONTINUOUS
10
0.955558
20
0.0534055
11
0.954575
21
0.0531131
0
LINE
8
BLACK
6
CONTINUOUS
10
0.954575
20
0.0531131
11
0.954403
21
0.0531541
0
LINE
8
BLACK
6
CONTINUOUS
10
0.954403
20
0.0531541
11
0.954237
21
0.0530937
0
LINE
8
BLACK
6
CONTINUOUS
10
0.954237
20
0.0530937
11
0.944864
21
0.0530937
0
LINE
8
BLACK
6
CONTINUOUS
10
0.944864
20
0.0530937
11
0.943854
21
0.0532718
0
LINE
8
BLACK
6
CONTINUOUS
10
0.943854
20
0.0532718
11
0.943718
21
0.0533853
0
LINE
8
BLACK
6
CONTINUOUS
10
0.943718
20
0.0533853
11
0.943543
21
0.0534055
0
LINE
8
BLACK
6
CONTINUOUS
10
0.943543
20
0.0534055
11
0.939794
21
0.0552802
0
LINE
8
BLACK
6
CONTINUOUS
10
0.939794
20
0.0552802
11
0.93897
21
0.0558911
0
LINE
8
BLACK
6
CONTINUOUS
10
0.93897
20
0.0558911
11
0.938794
21
0.0562969
0
LINE
8
BLACK
6
CONTINUOUS
10
0.938794
20
0.0562969
11
0.938473
21
0.0566007
0
LINE
8
BLACK
6
CONTINUOUS
10
0.938473
20
0.0566007
11
0.936598
21
0.0603503
0
LINE
8
BLACK
6
CONTINUOUS
10
0.936598
20
0.0603503
11
0.936306
21
0.0613333
0
LINE
8
BLACK
6
CONTINUOUS
10
0.936306
20
0.0613333
11
0.936347
21
0.061505
0
LINE
8
BLACK
6
CONTINUOUS
10
0.936347
20
0.061505
11
0.936286
21
0.0616708
0
LINE
8
BLACK
6
CONTINUOUS
10
0.936286
20
0.0616708
11
0.936286
21
0.0654204
0
LINE
8
BLACK
6
CONTINUOUS
10
0.936286
20
0.0654204
11
0.936465
21
0.0664303
0
LINE
8
BLACK
6
CONTINUOUS
10
0.936465
20
0.0664303
11
0.936578
21
0.0665656
0
LINE
8
BLACK
6
CONTINUOUS
10
0.936578
20
0.0665656
11
0.936598
21
0.0667409
0
LINE
8
BLACK
6
CONTINUOUS
10
0.936598
20
0.0667409
11
0.938473
21
0.0704904
0
LINE
8
BLACK
6
CONTINUOUS
10
0.938473
20
0.0704904
11
0.939084
21
0.0713141
0
LINE
8
BLACK
6
CONTINUOUS
10
0.939084
20
0.0713141
11
0.93949
21
0.0714899
0
LINE
8
BLACK
6
CONTINUOUS
10
0.93949
20
0.0714899
11
0.939794
21
0.0718109
0
LINE
8
BLACK
6
CONTINUOUS
10
0.939794
20
0.0718109
11
0.943543
21
0.0736857
0
LINE
8
BLACK
6
CONTINUOUS
10
0.943543
20
0.0736857
11
0.944526
21
0.073978
0
LINE
8
BLACK
6
CONTINUOUS
10
0.944526
20
0.073978
11
0.944698
21
0.073937
0
LINE
8
BLACK
6
CONTINUOUS
10
0.944698
20
0.073937
11
0.944864
21
0.0739974
0
LINE
8
BLACK
6
CONTINUOUS
10
0.944864
20
0.0739974
11
0.95354
21
0.0739974
0
LINE
8
BLACK
6
CONTINUOUS
10
0.95354
20
0.0739974
11
0.955034
21
0.0747443
0
LINE
8
BLACK
6
CONTINUOUS
10
0.955034
20
0.0747443
11
0.955034
21
0.0759719
0
LINE
8
BLACK
6
CONTINUOUS
10
0.955034
20
0.0759719
11
0.953911
21
0.0782176
0
LINE
8
BLACK
6
CONTINUOUS
10
0.953911
20
0.0782176
11
0.951666
21
0.0793405
0
LINE
8
BLACK
6
CONTINUOUS
10
0.951666
20
0.0793405
11
0.945561
21
0.0793405
0
LINE
8
BLACK
6
CONTINUOUS
10
0.945561
20
0.0793405
11
0.942435
21
0.0777774
0
LINE
8
BLACK
6
CONTINUOUS
10
0.942435
20
0.0777774
11
0.941452
21
0.0774851
0
LINE
8
BLACK
6
CONTINUOUS
10
0.941452
20
0.0774851
11
0.939487
21
0.0779544
0
LINE
8
BLACK
6
CONTINUOUS
10
0.939487
20
0.0779544
11
0.938284
21
0.0795766
0
LINE
8
BLACK
6
CONTINUOUS
10
0.938284
20
0.0795766
11
0.938405
21
0.0815928
0
LINE
8
BLACK
6
CONTINUOUS
10
0.938405
20
0.0815928
11
0.939794
21
0.0830595
0
LINE
8
BLACK
6
CONTINUOUS
10
0.939794
20
0.0830595
11
0.943543
21
0.0849343
0
LINE
8
BLACK
6
CONTINUOUS
10
0.943543
20
0.0849343
11
0.944526
21
0.0852266
0
LINE
8
BLACK
6
CONTINUOUS
10
0.944526
20
0.0852266
11
0.944698
21
0.0851856
0
LINE
8
BLACK
6
CONTINUOUS
10
0.944698
20
0.0851856
11
0.944864
21
0.085246
0
LINE
8
BLACK
6
CONTINUOUS
10
0.944864
20
0.085246
11
0.952363
21
0.085246
0
LINE
8
BLACK
6
CONTINUOUS
10
0.952363
20
0.085246
11
0.953373
21
0.0850679
0
LINE
8
BLACK
6
CONTINUOUS
10
0.954575
20
0.0681113
11
0.954403
21
0.0681523
0
LINE
8
BLACK
6
CONTINUOUS
10
0.954403
20
0.0681523
11
0.954237
21
0.0680919
0
LINE
8
BLACK
6
CONTINUOUS
10
0.954237
20
0.0680919
11
0.945561
21
0.0680919
0
LINE
8
BLACK
6
CONTINUOUS
10
0.945561
20
0.0680919
11
0.943315
21
0.0669691
0
LINE
8
BLACK
6
CONTINUOUS
10
0.943315
20
0.0669691
11
0.942192
21
0.0647233
0
LINE
8
BLACK
6
CONTINUOUS
10
0.942192
20
0.0647233
11
0.942192
21
0.0623679
0
LINE
8
BLACK
6
CONTINUOUS
10
0.942192
20
0.0623679
11
0.943315
21
0.0601221
0
LINE
8
BLACK
6
CONTINUOUS
10
0.943315
20
0.0601221
11
0.945561
21
0.0589993
0
LINE
8
BLACK
6
CONTINUOUS
10
0.945561
20
0.0589993
11
0.95354
21
0.0589993
0
LINE
8
BLACK
6
CONTINUOUS
10
0.95354
20
0.0589993
11
0.955034
21
0.0597462
0
LINE
8
BLACK
6
CONTINUOUS
10
0.955034
20
0.0597462
11
0.955034
21
0.0682479
0
LINE
8
BLACK
6
CONTINUOUS
10
0.955034
20
0.0682479
11
0.954575
21
0.0681113
0
LINE
8
BLACK
6
CONTINUOUS
10
0.978996
20
0.0973146
11
0.979687
21
0.0954166
0
LINE
8
BLACK
6
CONTINUOUS
10
0.979687
20
0.0954166
11
0.979687
21
0.085246
0
LINE
8
BLACK
6
CONTINUOUS
10
0.979687
20
0.085246
11
0.986108
21
0.085246
0
LINE
8
BLACK
6
CONTINUOUS
10
0.986108
20
0.085246
11
0.987118
21
0.0850679
0
LINE
8
BLACK
6
CONTINUOUS
10
0.987118
20
0.0850679
11
0.988666
21
0.0837696
0
LINE
8
BLACK
6
CONTINUOUS
10
0.988666
20
0.0837696
11
0.989016
21
0.0817805
0
LINE
8
BLACK
6
CONTINUOUS
10
0.989016
20
0.0817805
11
0.988006
21
0.0800313
0
LINE
8
BLACK
6
CONTINUOUS
10
0.988006
20
0.0800313
11
0.986108
21
0.0793405
0
LINE
8
BLACK
6
CONTINUOUS
10
0.986108
20
0.0793405
11
0.979687
21
0.0793405
0
LINE
8
BLACK
6
CONTINUOUS
10
0.979687
20
0.0793405
11
0.979687
21
0.0623679
0
LINE
8
BLACK
6
CONTINUOUS
10
0.979687
20
0.0623679
11
0.98081
21
0.0601221
0
LINE
8
BLACK
6
CONTINUOUS
10
0.98081
20
0.0601221
11
0.983056
21
0.0589993
0
LINE
8
BLACK
6
CONTINUOUS
10
0.983056
20
0.0589993
11
0.986108
21
0.0589993
0
LINE
8
BLACK
6
CONTINUOUS
10
0.986108
20
0.0589993
11
0.987118
21
0.0588212
0
LINE
8
BLACK
6
CONTINUOUS
10
0.987118
20
0.0588212
11
0.988666
21
0.0575229
0
LINE
8
BLACK
6
CONTINUOUS
10
0.988666
20
0.0575229
11
0.989016
21
0.0555337
0
LINE
8
BLACK
6
CONTINUOUS
10
0.989016
20
0.0555337
11
0.988006
21
0.0537846
0
LINE
8
BLACK
6
CONTINUOUS
10
0.988006
20
0.0537846
11
0.986108
21
0.0530937
0
LINE
8
BLACK
6
CONTINUOUS
10
0.986108
20
0.0530937
11
0.982359
21
0.0530937
0
LINE
8
BLACK
6
CONTINUOUS
10
0.982359
20
0.0530937
11
0.981349
21
0.0532718
0
LINE
8
BLACK
6
CONTINUOUS
10
0.981349
20
0.0532718
11
0.981214
21
0.0533853
0
LINE
8
BLACK
6
CONTINUOUS
10
0.981214
20
0.0533853
11
0.981038
21
0.0534055
0
LINE
8
BLACK
6
CONTINUOUS
10
0.981038
20
0.0534055
11
0.977289
21
0.0552802
0
LINE
8
BLACK
6
CONTINUOUS
10
0.977289
20
0.0552802
11
0.976465
21
0.0558911
0
LINE
8
BLACK
6
CONTINUOUS
10
0.976465
20
0.0558911
11
0.976289
21
0.0562969
0
LINE
8
BLACK
6
CONTINUOUS
10
0.976289
20
0.0562969
11
0.975968
21
0.0566007
0
LINE
8
BLACK
6
CONTINUOUS
10
0.975968
20
0.0566007
11
0.974094
21
0.0603503
0
LINE
8
BLACK
6
CONTINUOUS
10
0.974094
20
0.0603503
11
0.973801
21
0.0613333
0
LINE
8
BLACK
6
CONTINUOUS
10
0.973801
20
0.0613333
11
0.973842
21
0.061505
0
LINE
8
BLACK
6
CONTINUOUS
10
0.973842
20
0.061505
11
0.973782
21
0.0616708
0
LINE
8
BLACK
6
CONTINUOUS
10
0.973782
20
0.0616708
11
0.973782
21
0.0793405
0
LINE
8
BLACK
6
CONTINUOUS
10
0.973782
20
0.0793405
11
0.97111
21
0.0793405
0
LINE
8
BLACK
6
CONTINUOUS
10
0.97111
20
0.0793405
11
0.9701
21
0.0795185
0
LINE
8
BLACK
6
CONTINUOUS
10
0.9701
20
0.0795185
11
0.968553
21
0.0808169
0
LINE
8
BLACK
6
CONTINUOUS
10
0.968553
20
0.0808169
11
0.968202
21
0.082806
0
LINE
8
BLACK
6
CONTINUOUS
10
0.968202
20
0.082806
11
0.969212
21
0.0845552
0
LINE
8
BLACK
6
CONTINUOUS
10
0.969212
20
0.0845552
11
0.97111
21
0.085246
0
LINE
8
BLACK
6
CONTINUOUS
10
0.97111
20
0.085246
11
0.973782
21
0.085246
0
LINE
8
BLACK
6
CONTINUOUS
10
0.973782
20
0.085246
11
0.973782
21
0.0954166
0
LINE
8
BLACK
6
CONTINUOUS
10
0.973782
20
0.0954166
11
0.97396
21
0.0964265
0
LINE
8
BLACK
6
CONTINUOUS
10
0.97396
20
0.0964265
11
0.975258
21
0.0979737
0
LINE
8
BLACK
6
CONTINUOUS
10
0.975258
20
0.0979737
11
0.977247
21
0.0983245
0
LINE
8
BLACK
6
CONTINUOUS
10
0.977247
20
0.0983245
11
0.978996
21
0.0973146
0
LINE
8
BLACK
6
CONTINUOUS
10
1.03024
20
0.0850679
11
1.03037
21
0.0849544
0
LINE
8
BLACK
6
CONTINUOUS
10
1.03037
20
0.0849544
11
1.03055
21
0.0849343
0
LINE
8
BLACK
6
CONTINUOUS
10
1.03055
20
0.0849343
11
1.0343
21
0.0830595
0
LINE
8
BLACK
6
CONTINUOUS
10
1.0343
20
0.0830595
11
1.03501
21
0.0825336
0
LINE
8
BLACK
6
CONTINUOUS
10
1.03501
20
0.0825336
11
1.03507
21
0.0825064
0
LINE
8
BLACK
6
CONTINUOUS
10
1.03507
20
0.0825064
11
1.03694
21
0.0806316
0
LINE
8
BLACK
6
CONTINUOUS
10
1.03694
20
0.0806316
11
1.03745
21
0.0799085
0
LINE
8
BLACK
6
CONTINUOUS
10
1.03745
20
0.0799085
11
1.03749
21
0.0798642
0
LINE
8
BLACK
6
CONTINUOUS
10
1.03749
20
0.0798642
11
1.03937
21
0.0761147
0
LINE
8
BLACK
6
CONTINUOUS
10
1.03937
20
0.0761147
11
1.03966
21
0.0751318
0
LINE
8
BLACK
6
CONTINUOUS
10
1.03966
20
0.0751318
11
1.03962
21
0.0749601
0
LINE
8
BLACK
6
CONTINUOUS
10
1.03962
20
0.0749601
11
1.03968
21
0.0747942
0
LINE
8
BLACK
6
CONTINUOUS
10
1.03968
20
0.0747942
11
1.03968
21
0.0635456
0
LINE
8
BLACK
6
CONTINUOUS
10
1.03968
20
0.0635456
11
1.0395
21
0.0625357
0
LINE
8
BLACK
6
CONTINUOUS
10
1.0395
20
0.0625357
11
1.03939
21
0.0624004
0
LINE
8
BLACK
6
CONTINUOUS
10
1.03939
20
0.0624004
11
1.03937
21
0.0622251
0
LINE
8
BLACK
6
CONTINUOUS
10
1.03937
20
0.0622251
11
1.03749
21
0.0584756
0
LINE
8
BLACK
6
CONTINUOUS
10
1.03749
20
0.0584756
11
1.03697
21
0.0577665
0
LINE
8
BLACK
6
CONTINUOUS
10
1.03697
20
0.0577665
11
1.03694
21
0.0577081
0
LINE
8
BLACK
6
CONTINUOUS
10
1.03694
20
0.0577081
11
1.03507
21
0.0558334
0
LINE
8
BLACK
6
CONTINUOUS
10
1.03507
20
0.0558334
11
1.03434
21
0.055327
0
LINE
8
BLACK
6
CONTINUOUS
10
1.03434
20
0.055327
11
1.0343
21
0.0552802
0
LINE
8
BLACK
6
CONTINUOUS
10
1.0343
20
0.0552802
11
1.03055
21
0.0534055
0
LINE
8
BLACK
6
CONTINUOUS
10
1.03055
20
0.0534055
11
1.02957
21
0.0531131
0
LINE
8
BLACK
6
CONTINUOUS
10
1.02957
20
0.0531131
11
1.02939
21
0.0531541
0
LINE
8
BLACK
6
CONTINUOUS
10
1.02939
20
0.0531541
11
1.02923
21
0.0530937
0
LINE
8
BLACK
6
CONTINUOUS
10
1.02923
20
0.0530937
11
1.0236
21
0.0530937
0
LINE
8
BLACK
6
CONTINUOUS
10
1.0236
20
0.0530937
11
1.02259
21
0.0532718
0
LINE
8
BLACK
6
CONTINUOUS
10
1.02259
20
0.0532718
11
1.02246
21
0.0533853
0
LINE
8
BLACK
6
CONTINUOUS
10
1.02246
20
0.0533853
11
1.02228
21
0.0534055
0
LINE
8
BLACK
6
CONTINUOUS
10
1.02228
20
0.0534055
11
1.01853
21
0.0552802
0
LINE
8
BLACK
6
CONTINUOUS
10
1.01853
20
0.0552802
11
1.01782
21
0.0558062
0
LINE
8
BLACK
6
CONTINUOUS
10
1.01782
20
0.0558062
11
1.01777
21
0.0558334
0
LINE
8
BLACK
6
CONTINUOUS
10
1.01777
20
0.0558334
11
1.01589
21
0.0577082
0
LINE
8
BLACK
6
CONTINUOUS
10
1.01589
20
0.0577082
11
1.01539
21
0.0584313
0
LINE
8
BLACK
6
CONTINUOUS
10
1.01539
20
0.0584313
11
1.01534
21
0.0584756
0
LINE
8
BLACK
6
CONTINUOUS
10
1.01534
20
0.0584756
11
1.01346
21
0.0622251
0
LINE
8
BLACK
6
CONTINUOUS
10
1.01346
20
0.0622251
11
1.01317
21
0.063208
0
LINE
8
BLACK
6
CONTINUOUS
10
1.01317
20
0.063208
11
1.01321
21
0.0633797
0
LINE
8
BLACK
6
CONTINUOUS
10
1.01321
20
0.0633797
11
1.01315
21
0.0635456
0
LINE
8
BLACK
6
CONTINUOUS
10
1.01315
20
0.0635456
11
1.01315
21
0.0747942
0
LINE
8
BLACK
6
CONTINUOUS
10
1.01315
20
0.0747942
11
1.01333
21
0.0758041
0
LINE
8
BLACK
6
CONTINUOUS
10
1.01333
20
0.0758041
11
1.01344
21
0.0759394
0
LINE
8
BLACK
6
CONTINUOUS
10
1.01344
20
0.0759394
11
1.01346
21
0.0761147
0
LINE
8
BLACK
6
CONTINUOUS
10
1.01346
20
0.0761147
11
1.01534
21
0.0798642
0
LINE
8
BLACK
6
CONTINUOUS
10
1.01534
20
0.0798642
11
1.01586
21
0.0805733
0
LINE
8
BLACK
6
CONTINUOUS
10
1.01586
20
0.0805733
11
1.01589
21
0.0806316
0
LINE
8
BLACK
6
CONTINUOUS
10
1.01589
20
0.0806316
11
1.01777
21
0.0825064
0
LINE
8
BLACK
6
CONTINUOUS
10
1.01777
20
0.0825064
11
1.01849
21
0.0830127
0
LINE
8
BLACK
6
CONTINUOUS
10
1.01849
20
0.0830127
11
1.01853
21
0.0830595
0
LINE
8
BLACK
6
CONTINUOUS
10
1.01853
20
0.0830595
11
1.02228
21
0.0849343
0
LINE
8
BLACK
6
CONTINUOUS
10
1.02228
20
0.0849343
11
1.02327
21
0.0852266
0
LINE
8
BLACK
6
CONTINUOUS
10
1.02327
20
0.0852266
11
1.02344
21
0.0851856
0
LINE
8
BLACK
6
CONTINUOUS
10
1.02344
20
0.0851856
11
1.0236
21
0.085246
0
LINE
8
BLACK
6
CONTINUOUS
10
1.0236
20
0.085246
11
1.02923
21
0.085246
0
LINE
8
BLACK
6
CONTINUOUS
10
1.02923
20
0.085246
11
1.03024
21
0.0850679
0
LINE
8
BLACK
6
CONTINUOUS
10
1.0216
20
0.0779918
11
1.02041
21
0.0767946
0
LINE
8
BLACK
6
CONTINUOUS
10
1.02041
20
0.0767946
11
1.01906
21
0.0740972
0
LINE
8
BLACK
6
CONTINUOUS
10
1.01906
20
0.0740972
11
1.01906
21
0.0642426
0
LINE
8
BLACK
6
CONTINUOUS
10
1.01906
20
0.0642426
11
1.02041
21
0.0615452
0
LINE
8
BLACK
6
CONTINUOUS
10
1.02041
20
0.0615452
11
1.0216
21
0.060348
0
LINE
8
BLACK
6
CONTINUOUS
10
1.0216
20
0.060348
11
1.0243
21
0.0589993
0
LINE
8
BLACK
6
CONTINUOUS
10
1.0243
20
0.0589993
11
1.02853
21
0.0589993
0
LINE
8
BLACK
6
CONTINUOUS
10
1.02853
20
0.0589993
11
1.03123
21
0.060348
0
LINE
8
BLACK
6
CONTINUOUS
10
1.03123
20
0.060348
11
1.03243
21
0.0615452
0
LINE
8
BLACK
6
CONTINUOUS
10
1.03243
20
0.0615452
11
1.03377
21
0.0642427
0
LINE
8
BLACK
6
CONTINUOUS
10
1.03377
20
0.0642427
11
1.03377
21
0.0740971
0
LINE
8
BLACK
6
CONTINUOUS
10
1.03377
20
0.0740971
11
1.03243
21
0.0767946
0
LINE
8
BLACK
6
CONTINUOUS
10
1.03243
20
0.0767946
11
1.03123
21
0.0779917
0
LINE
8
BLACK
6
CONTINUOUS
10
1.03123
20
0.0779917
11
1.02853
21
0.0793405
0
LINE
8
BLACK
6
CONTINUOUS
10
1.02853
20
0.0793405
11
1.0243
21
0.0793405
0
LINE
8
BLACK
6
CONTINUOUS
10
1.0243
20
0.0793405
11
1.0216
21
0.0779918
0
LINE
8
BLACK
6
CONTINUOUS
10
0.660286
20
0.0973146
11
0.660977
21
0.0954166
0
LINE
8
BLACK
6
CONTINUOUS
10
0.660977
20
0.0954166
11
0.660977
21
0.0560465
0
LINE
8
BLACK
6
CONTINUOUS
10
0.660977
20
0.0560465
11
0.660799
21
0.0550366
0
LINE
8
BLACK
6
CONTINUOUS
10
0.660799
20
0.0550366
11
0.659501
21
0.0534893
0
LINE
8
BLACK
6
CONTINUOUS
10
0.659501
20
0.0534893
11
0.657512
21
0.0531386
0
LINE
8
BLACK
6
CONTINUOUS
10
0.657512
20
0.0531386
11
0.655762
21
0.0541485
0
LINE
8
BLACK
6
CONTINUOUS
10
0.655762
20
0.0541485
11
0.655072
21
0.0560465
0
LINE
8
BLACK
6
CONTINUOUS
10
0.655072
20
0.0560465
11
0.655072
21
0.0737162
0
LINE
8
BLACK
6
CONTINUOUS
10
0.655072
20
0.0737162
11
0.63848
21
0.0737162
0
LINE
8
BLACK
6
CONTINUOUS
10
0.63848
20
0.0737162
11
0.63848
21
0.0560465
0
LINE
8
BLACK
6
CONTINUOUS
10
0.63848
20
0.0560465
11
0.638302
21
0.0550366
0
LINE
8
BLACK
6
CONTINUOUS
10
0.638302
20
0.0550366
11
0.637004
21
0.0534893
0
LINE
8
BLACK
6
CONTINUOUS
10
0.637004
20
0.0534893
11
0.635014
21
0.0531386
0
LINE
8
BLACK
6
CONTINUOUS
10
0.635014
20
0.0531386
11
0.633265
21
0.0541485
0
LINE
8
BLACK
6
CONTINUOUS
10
0.633265
20
0.0541485
11
0.632574
21
0.0560465
0
LINE
8
BLACK
6
CONTINUOUS
10
0.632574
20
0.0560465
11
0.632574
21
0.0954166
0
LINE
8
BLACK
6
CONTINUOUS
10
0.632574
20
0.0954166
11
0.632752
21
0.0964265
0
LINE
8
BLACK
6
CONTINUOUS
10
0.632752
20
0.0964265
11
0.634051
21
0.0979737
0
LINE
8
BLACK
6
CONTINUOUS
10
0.634051
20
0.0979737
11
0.63604
21
0.0983245
0
LINE
8
BLACK
6
CONTINUOUS
10
0.63604
20
0.0983245
11
0.637789
21
0.0973146
0
LINE
8
BLACK
6
CONTINUOUS
10
0.637789
20
0.0973146
11
0.63848
21
0.0954166
0
LINE
8
BLACK
6
CONTINUOUS
10
0.63848
20
0.0954166
11
0.63848
21
0.0796217
0
LINE
8
BLACK
6
CONTINUOUS
10
0.63848
20
0.0796217
11
0.655072
21
0.0796217
0
LINE
8
BLACK
6
CONTINUOUS
10
0.655072
20
0.0796217
11
0.655072
21
0.0954166
0
LINE
8
BLACK
6
CONTINUOUS
10
0.655072
20
0.0954166
11
0.65525
21
0.0964265
0
LINE
8
BLACK
6
CONTINUOUS
10
0.65525
20
0.0964265
11
0.656548
21
0.0979737
0
LINE
8
BLACK
6
CONTINUOUS
10
0.656548
20
0.0979737
11
0.658537
21
0.0983245
0
LINE
8
BLACK
6
CONTINUOUS
10
0.658537
20
0.0983245
11
0.660286
21
0.0973146
0
LINE
8
BLACK
6
CONTINUOUS
10
0.800894
20
0.0841912
11
0.801585
21
0.0822932
0
LINE
8
BLACK
6
CONTINUOUS
10
0.801585
20
0.0822932
11
0.801585
21
0.0560465
0
LINE
8
BLACK
6
CONTINUOUS
10
0.801585
20
0.0560465
11
0.801406
21
0.0550366
0
LINE
8
BLACK
6
CONTINUOUS
10
0.801406
20
0.0550366
11
0.800108
21
0.0534893
0
LINE
8
BLACK
6
CONTINUOUS
10
0.800108
20
0.0534893
11
0.798119
21
0.0531386
0
LINE
8
BLACK
6
CONTINUOUS
10
0.798119
20
0.0531386
11
0.79637
21
0.0541485
0
LINE
8
BLACK
6
CONTINUOUS
10
0.79637
20
0.0541485
11
0.795679
21
0.0560465
0
LINE
8
BLACK
6
CONTINUOUS
10
0.795679
20
0.0560465
11
0.795679
21
0.0822932
0
LINE
8
BLACK
6
CONTINUOUS
10
0.795679
20
0.0822932
11
0.795857
21
0.0833031
0
LINE
8
BLACK
6
CONTINUOUS
10
0.795857
20
0.0833031
11
0.797155
21
0.0848504
0
LINE
8
BLACK
6
CONTINUOUS
10
0.797155
20
0.0848504
11
0.799145
21
0.0852011
0
LINE
8
BLACK
6
CONTINUOUS
10
0.799145
20
0.0852011
11
0.800894
21
0.0841912
0
LINE
8
BLACK
6
CONTINUOUS
10
0.829638
20
0.0850679
11
0.829773
21
0.0849544
0
LINE
8
BLACK
6
CONTINUOUS
10
0.829773
20
0.0849544
11
0.829949
21
0.0849343
0
LINE
8
BLACK
6
CONTINUOUS
10
0.829949
20
0.0849343
11
0.833698
21
0.0830595
0
LINE
8
BLACK
6
CONTINUOUS
10
0.833698
20
0.0830595
11
0.834522
21
0.0824486
0
LINE
8
BLACK
6
CONTINUOUS
10
0.834522
20
0.0824486
11
0.834698
21
0.0820429
0
LINE
8
BLACK
6
CONTINUOUS
10
0.834698
20
0.0820429
11
0.835019
21
0.081739
0
LINE
8
BLACK
6
CONTINUOUS
10
0.835019
20
0.081739
11
0.836893
21
0.0779894
0
LINE
8
BLACK
6
CONTINUOUS
10
0.836893
20
0.0779894
11
0.837186
21
0.0770065
0
LINE
8
BLACK
6
CONTINUOUS
10
0.837186
20
0.0770065
11
0.837145
21
0.0768348
0
LINE
8
BLACK
6
CONTINUOUS
10
0.837145
20
0.0768348
11
0.837205
21
0.0766689
0
LINE
8
BLACK
6
CONTINUOUS
10
0.837205
20
0.0766689
11
0.837205
21
0.0560465
0
LINE
8
BLACK
6
CONTINUOUS
10
0.837205
20
0.0560465
11
0.837027
21
0.0550366
0
LINE
8
BLACK
6
CONTINUOUS
10
0.837027
20
0.0550366
11
0.835729
21
0.0534893
0
LINE
8
BLACK
6
CONTINUOUS
10
0.835729
20
0.0534893
11
0.83374
21
0.0531386
0
LINE
8
BLACK
6
CONTINUOUS
10
0.83374
20
0.0531386
11
0.83199
21
0.0541485
0
LINE
8
BLACK
6
CONTINUOUS
10
0.83199
20
0.0541485
11
0.8313
21
0.0560465
0
LINE
8
BLACK
6
CONTINUOUS
10
0.8313
20
0.0560465
11
0.8313
21
0.0759719
0
LINE
8
BLACK
6
CONTINUOUS
10
0.8313
20
0.0759719
11
0.830177
21
0.0782176
0
LINE
8
BLACK
6
CONTINUOUS
10
0.830177
20
0.0782176
11
0.827931
21
0.0793405
0
LINE
8
BLACK
6
CONTINUOUS
10
0.827931
20
0.0793405
11
0.823701
21
0.0793405
0
LINE
8
BLACK
6
CONTINUOUS
10
0.823701
20
0.0793405
11
0.821003
21
0.0779918
0
LINE
8
BLACK
6
CONTINUOUS
10
0.821003
20
0.0779918
11
0.820332
21
0.0773207
0
LINE
8
BLACK
6
CONTINUOUS
10
0.820332
20
0.0773207
11
0.820332
21
0.0560465
0
LINE
8
BLACK
6
CONTINUOUS
10
0.820332
20
0.0560465
11
0.820154
21
0.0550366
0
LINE
8
BLACK
6
CONTINUOUS
10
0.820154
20
0.0550366
11
0.818856
21
0.0534893
0
LINE
8
BLACK
6
CONTINUOUS
10
0.818856
20
0.0534893
11
0.816867
21
0.0531386
0
LINE
8
BLACK
6
CONTINUOUS
10
0.816867
20
0.0531386
11
0.815118
21
0.0541485
0
LINE
8
BLACK
6
CONTINUOUS
10
0.815118
20
0.0541485
11
0.814427
21
0.0560465
0
LINE
8
BLACK
6
CONTINUOUS
10
0.814427
20
0.0560465
11
0.814427
21
0.0822932
0
LINE
8
BLACK
6
CONTINUOUS
10
0.814427
20
0.0822932
11
0.814605
21
0.0833031
0
LINE
8
BLACK
6
CONTINUOUS
10
0.814605
20
0.0833031
11
0.815903
21
0.0848504
0
LINE
8
BLACK
6
CONTINUOUS
10
0.815903
20
0.0848504
11
0.817892
21
0.0852011
0
LINE
8
BLACK
6
CONTINUOUS
10
0.817892
20
0.0852011
11
0.819641
21
0.0841912
0
LINE
8
BLACK
6
CONTINUOUS
10
0.819641
20
0.0841912
11
0.819727
21
0.0839561
0
LINE
8
BLACK
6
CONTINUOUS
10
0.819727
20
0.0839561
11
0.821683
21
0.0849343
0
LINE
8
BLACK
6
CONTINUOUS
10
0.821683
20
0.0849343
11
0.822666
21
0.0852266
0
LINE
8
BLACK
6
CONTINUOUS
10
0.822666
20
0.0852266
11
0.822838
21
0.0851856
0
LINE
8
BLACK
6
CONTINUOUS
10
0.822838
20
0.0851856
11
0.823004
21
0.085246
0
LINE
8
BLACK
6
CONTINUOUS
10
0.823004
20
0.085246
11
0.828628
21
0.085246
0
LINE
8
BLACK
6
CONTINUOUS
10
0.828628
20
0.085246
11
0.829638
21
0.0850679
0
LINE
8
BLACK
6
CONTINUOUS
10
1.00149
20
0.0841912
11
1.00218
21
0.0822932
0
LINE
8
BLACK
6
CONTINUOUS
10
1.00218
20
0.0822932
11
1.00218
21
0.0560465
0
LINE
8
BLACK
6
CONTINUOUS
10
1.00218
20
0.0560465
11
1.00201
21
0.0550366
0
LINE
8
BLACK
6
CONTINUOUS
10
1.00201
20
0.0550366
11
1.00071
21
0.0534893
0
LINE
8
BLACK
6
CONTINUOUS
10
1.00071
20
0.0534893
11
0.998719
21
0.0531386
0
LINE
8
BLACK
6
CONTINUOUS
10
0.998719
20
0.0531386
11
0.99697
21
0.0541485
0
LINE
8
BLACK
6
CONTINUOUS
10
0.99697
20
0.0541485
11
0.996279
21
0.0560465
0
LINE
8
BLACK
6
CONTINUOUS
10
0.996279
20
0.0560465
11
0.996279
21
0.0822932
0
LINE
8
BLACK
6
CONTINUOUS
10
0.996279
20
0.0822932
11
0.996457
21
0.0833031
0
LINE
8
BLACK
6
CONTINUOUS
10
0.996457
20
0.0833031
11
0.997755
21
0.0848504
0
LINE
8
BLACK
6
CONTINUOUS
10
0.997755
20
0.0848504
11
0.999745
21
0.0852011
0
LINE
8
BLACK
6
CONTINUOUS
10
0.999745
20
0.0852011
11
1.00149
21
0.0841912
0
LINE
8
BLACK
6
CONTINUOUS
10
1.06586
20
0.0850679
11
1.06599
21
0.0849544
0
LINE
8
BLACK
6
CONTINUOUS
10
1.06599
20
0.0849544
11
1.06617
21
0.0849343
0
LINE
8
BLACK
6
CONTINUOUS
10
1.06617
20
0.0849343
11
1.06992
21
0.0830595
0
LINE
8
BLACK
6
CONTINUOUS
10
1.06992
20
0.0830595
11
1.07074
21
0.0824486
0
LINE
8
BLACK
6
CONTINUOUS
10
1.07074
20
0.0824486
11
1.07092
21
0.0820429
0
LINE
8
BLACK
6
CONTINUOUS
10
1.07092
20
0.0820429
11
1.07124
21
0.081739
0
LINE
8
BLACK
6
CONTINUOUS
10
1.07124
20
0.081739
11
1.07311
21
0.0779894
0
LINE
8
BLACK
6
CONTINUOUS
10
1.07311
20
0.0779894
11
1.07341
21
0.0770065
0
LINE
8
BLACK
6
CONTINUOUS
10
1.07341
20
0.0770065
11
1.07337
21
0.0768348
0
LINE
8
BLACK
6
CONTINUOUS
10
1.07337
20
0.0768348
11
1.07343
21
0.0766689
0
LINE
8
BLACK
6
CONTINUOUS
10
1.07343
20
0.0766689
11
1.07343
21
0.0560465
0
LINE
8
BLACK
6
CONTINUOUS
10
1.07343
20
0.0560465
11
1.07325
21
0.0550366
0
LINE
8
BLACK
6
CONTINUOUS
10
1.07325
20
0.0550366
11
1.07195
21
0.0534893
0
LINE
8
BLACK
6
CONTINUOUS
10
1.07195
20
0.0534893
11
1.06996
21
0.0531386
0
LINE
8
BLACK
6
CONTINUOUS
10
1.06996
20
0.0531386
11
1.06821
21
0.0541485
0
LINE
8
BLACK
6
CONTINUOUS
10
1.06821
20
0.0541485
11
1.06752
21
0.0560465
0
LINE
8
BLACK
6
CONTINUOUS
10
1.06752
20
0.0560465
11
1.06752
21
0.0759719
0
LINE
8
BLACK
6
CONTINUOUS
10
1.06752
20
0.0759719
11
1.0664
21
0.0782176
0
LINE
8
BLACK
6
CONTINUOUS
10
1.0664
20
0.0782176
11
1.06415
21
0.0793405
0
LINE
8
BLACK
6
CONTINUOUS
10
1.06415
20
0.0793405
11
1.05992
21
0.0793405
0
LINE
8
BLACK
6
CONTINUOUS
10
1.05992
20
0.0793405
11
1.05722
21
0.0779917
0
LINE
8
BLACK
6
CONTINUOUS
10
1.05722
20
0.0779917
11
1.05655
21
0.0773207
0
LINE
8
BLACK
6
CONTINUOUS
10
1.05655
20
0.0773207
11
1.05655
21
0.0560465
0
LINE
8
BLACK
6
CONTINUOUS
10
1.05655
20
0.0560465
11
1.05637
21
0.0550366
0
LINE
8
BLACK
6
CONTINUOUS
10
1.05637
20
0.0550366
11
1.05508
21
0.0534893
0
LINE
8
BLACK
6
CONTINUOUS
10
1.05508
20
0.0534893
11
1.05309
21
0.0531386
0
LINE
8
BLACK
6
CONTINUOUS
10
1.05309
20
0.0531386
11
1.05134
21
0.0541485
0
LINE
8
BLACK
6
CONTINUOUS
10
1.05134
20
0.0541485
11
1.05065
21
0.0560465
0
LINE
8
BLACK
6
CONTINUOUS
10
1.05065
20
0.0560465
11
1.05065
21
0.0822932
0
LINE
8
BLACK
6
CONTINUOUS
10
1.05065
20
0.0822932
11
1.05083
21
0.0833031
0
LINE
8
BLACK
6
CONTINUOUS
10
1.05083
20
0.0833031
11
1.05212
21
0.0848504
0
LINE
8
BLACK
6
CONTINUOUS
10
1.05212
20
0.0848504
11
1.05411
21
0.0852011
0
LINE
8
BLACK
6
CONTINUOUS
10
1.05411
20
0.0852011
11
1.05586
21
0.0841912
0
LINE
8
BLACK
6
CONTINUOUS
10
1.05586
20
0.0841912
11
1.05595
21
0.0839561
0
LINE
8
BLACK
6
CONTINUOUS
10
1.05595
20
0.0839561
11
1.0579
21
0.0849343
0
LINE
8
BLACK
6
CONTINUOUS
10
1.0579
20
0.0849343
11
1.05889
21
0.0852266
0
LINE
8
BLACK
6
CONTINUOUS
10
1.05889
20
0.0852266
11
1.05906
21
0.0851856
0
LINE
8
BLACK
6
CONTINUOUS
10
1.05906
20
0.0851856
11
1.05922
21
0.085246
0
LINE
8
BLACK
6
CONTINUOUS
10
1.05922
20
0.085246
11
1.06485
21
0.085246
0
LINE
8
BLACK
6
CONTINUOUS
10
1.06485
20
0.085246
11
1.06586
21
0.0850679
0
LINE
8
BLACK
6
CONTINUOUS
10
0.922754
20
0.0973146
11
0.923444
21
0.0954166
0
LINE
8
BLACK
6
CONTINUOUS
10
0.923444
20
0.0954166
11
0.923444
21
0.0623679
0
LINE
8
BLACK
6
CONTINUOUS
10
0.923444
20
0.0623679
11
0.924567
21
0.0601221
0
LINE
8
BLACK
6
CONTINUOUS
10
0.924567
20
0.0601221
11
0.927436
21
0.0586875
0
LINE
8
BLACK
6
CONTINUOUS
10
0.927436
20
0.0586875
11
0.92826
21
0.0580766
0
LINE
8
BLACK
6
CONTINUOUS
10
0.92826
20
0.0580766
11
0.929063
21
0.0562234
0
LINE
8
BLACK
6
CONTINUOUS
10
0.929063
20
0.0562234
11
0.928487
21
0.0542874
0
LINE
8
BLACK
6
CONTINUOUS
10
0.928487
20
0.0542874
11
0.926802
21
0.0531746
0
LINE
8
BLACK
6
CONTINUOUS
10
0.926802
20
0.0531746
11
0.924795
21
0.0534055
0
LINE
8
BLACK
6
CONTINUOUS
10
0.924795
20
0.0534055
11
0.921046
21
0.0552802
0
LINE
8
BLACK
6
CONTINUOUS
10
0.921046
20
0.0552802
11
0.920222
21
0.0558911
0
LINE
8
BLACK
6
CONTINUOUS
10
0.920222
20
0.0558911
11
0.920046
21
0.0562969
0
LINE
8
BLACK
6
CONTINUOUS
10
0.920046
20
0.0562969
11
0.919725
21
0.0566007
0
LINE
8
BLACK
6
CONTINUOUS
10
0.919725
20
0.0566007
11
0.917851
21
0.0603503
0
LINE
8
BLACK
6
CONTINUOUS
10
0.917851
20
0.0603503
11
0.917558
21
0.0613333
0
LINE
8
BLACK
6
CONTINUOUS
10
0.917558
20
0.0613333
11
0.917599
21
0.061505
0
LINE
8
BLACK
6
CONTINUOUS
10
0.917599
20
0.061505
11
0.917539
21
0.0616708
0
LINE
8
BLACK
6
CONTINUOUS
10
0.917539
20
0.0616708
11
0.917539
21
0.0954166
0
LINE
8
BLACK
6
CONTINUOUS
10
0.917539
20
0.0954166
11
0.917717
21
0.0964265
0
LINE
8
BLACK
6
CONTINUOUS
10
0.917717
20
0.0964265
11
0.919015
21
0.0979737
0
LINE
8
BLACK
6
CONTINUOUS
10
0.919015
20
0.0979737
11
0.921004
21
0.0983245
0
LINE
8
BLACK
6
CONTINUOUS
10
0.921004
20
0.0983245
11
0.922754
21
0.0973146
0
LINE
8
BLACK
6
CONTINUOUS
10
0.428987
20
0.100665
11
0.42978
21
0.0988077
0
LINE
8
BLACK
6
CONTINUOUS
10
0.42978
20
0.0988077
11
0.429194
21
0.0968748
0
LINE
8
BLACK
6
CONTINUOUS
10
0.429194
20
0.0968748
11
0.413857
21
0.0764263
0
LINE
8
BLACK
6
CONTINUOUS
10
0.413857
20
0.0764263
11
0.42892
21
0.0613643
0
LINE
8
BLACK
6
CONTINUOUS
10
0.42892
20
0.0613643
11
0.429508
21
0.0605243
0
LINE
8
BLACK
6
CONTINUOUS
10
0.429508
20
0.0605243
11
0.429684
21
0.0585122
0
LINE
8
BLACK
6
CONTINUOUS
10
0.429684
20
0.0585122
11
0.428525
21
0.0568576
0
LINE
8
BLACK
6
CONTINUOUS
10
0.428525
20
0.0568576
11
0.426574
21
0.0563349
0
LINE
8
BLACK
6
CONTINUOUS
10
0.426574
20
0.0563349
11
0.424744
21
0.0571885
0
LINE
8
BLACK
6
CONTINUOUS
10
0.424744
20
0.0571885
11
0.407287
21
0.074645
0
LINE
8
BLACK
6
CONTINUOUS
10
0.407287
20
0.074645
11
0.407287
21
0.0592764
0
LINE
8
BLACK
6
CONTINUOUS
10
0.407287
20
0.0592764
11
0.407109
21
0.0582665
0
LINE
8
BLACK
6
CONTINUOUS
10
0.407109
20
0.0582665
11
0.405811
21
0.0567192
0
LINE
8
BLACK
6
CONTINUOUS
10
0.405811
20
0.0567192
11
0.403822
21
0.0563685
0
LINE
8
BLACK
6
CONTINUOUS
10
0.403822
20
0.0563685
11
0.402073
21
0.0573784
0
LINE
8
BLACK
6
CONTINUOUS
10
0.402073
20
0.0573784
11
0.401382
21
0.0592764
0
LINE
8
BLACK
6
CONTINUOUS
10
0.401382
20
0.0592764
11
0.401382
21
0.0986465
0
LINE
8
BLACK
6
CONTINUOUS
10
0.401382
20
0.0986465
11
0.40156
21
0.0996564
0
LINE
8
BLACK
6
CONTINUOUS
10
0.40156
20
0.0996564
11
0.402858
21
0.101204
0
LINE
8
BLACK
6
CONTINUOUS
10
0.402858
20
0.101204
11
0.404847
21
0.101554
0
LINE
8
BLACK
6
CONTINUOUS
10
0.404847
20
0.101554
11
0.406596
21
0.100544
0
LINE
8
BLACK
6
CONTINUOUS
10
0.406596
20
0.100544
11
0.407287
21
0.0986465
0
LINE
8
BLACK
6
CONTINUOUS
10
0.407287
20
0.0986465
11
0.407287
21
0.0829966
0
LINE
8
BLACK
6
CONTINUOUS
10
0.407287
20
0.0829966
11
0.409639
21
0.0806446
0
LINE
8
BLACK
6
CONTINUOUS
10
0.409639
20
0.0806446
11
0.424469
21
0.100418
0
LINE
8
BLACK
6
CONTINUOUS
10
0.424469
20
0.100418
11
0.425218
21
0.101119
0
LINE
8
BLACK
6
CONTINUOUS
10
0.425218
20
0.101119
11
0.427185
21
0.101578
0
LINE
8
BLACK
6
CONTINUOUS
10
0.427185
20
0.101578
11
0.428987
21
0.100665
0
LINE
8
BLACK
6
CONTINUOUS
10
0.799011
20
0.098301
11
0.799145
21
0.0983245
0
LINE
8
BLACK
6
CONTINUOUS
10
0.799145
20
0.0983245
11
0.799262
21
0.098257
0
LINE
8
BLACK
6
CONTINUOUS
10
0.799262
20
0.098257
11
0.799396
21
0.0982687
0
LINE
8
BLACK
6
CONTINUOUS
10
0.799396
20
0.0982687
11
0.800024
21
0.0978287
0
LINE
8
BLACK
6
CONTINUOUS
10
0.800024
20
0.0978287
11
0.80072
21
0.0975045
0
LINE
8
BLACK
6
CONTINUOUS
10
0.80072
20
0.0975045
11
0.802594
21
0.0956297
0
LINE
8
BLACK
6
CONTINUOUS
10
0.802594
20
0.0956297
11
0.802818
21
0.0953107
0
LINE
8
BLACK
6
CONTINUOUS
10
0.802818
20
0.0953107
11
0.802925
21
0.0952354
0
LINE
8
BLACK
6
CONTINUOUS
10
0.802925
20
0.0952354
11
0.802959
21
0.0951087
0
LINE
8
BLACK
6
CONTINUOUS
10
0.802959
20
0.0951087
11
0.803183
21
0.0947897
0
LINE
8
BLACK
6
CONTINUOUS
10
0.803183
20
0.0947897
11
0.80325
21
0.0940255
0
LINE
8
BLACK
6
CONTINUOUS
10
0.80325
20
0.0940255
11
0.803448
21
0.0932844
0
LINE
8
BLACK
6
CONTINUOUS
10
0.803448
20
0.0932844
11
0.803335
21
0.093043
0
LINE
8
BLACK
6
CONTINUOUS
10
0.803335
20
0.093043
11
0.803359
21
0.0927776
0
LINE
8
BLACK
6
CONTINUOUS
10
0.803359
20
0.0927776
11
0.802919
21
0.0921492
0
LINE
8
BLACK
6
CONTINUOUS
10
0.802919
20
0.0921492
11
0.802594
21
0.0914539
0
LINE
8
BLACK
6
CONTINUOUS
10
0.802594
20
0.0914539
11
0.80072
21
0.0895791
0
LINE
8
BLACK
6
CONTINUOUS
10
0.80072
20
0.0895791
11
0.800401
21
0.0893557
0
LINE
8
BLACK
6
CONTINUOUS
10
0.800401
20
0.0893557
11
0.800325
21
0.0892483
0
LINE
8
BLACK
6
CONTINUOUS
10
0.800325
20
0.0892483
11
0.800199
21
0.0892143
0
LINE
8
BLACK
6
CONTINUOUS
10
0.800199
20
0.0892143
11
0.800192
21
0.0892094
0
LINE
8
BLACK
6
CONTINUOUS
10
0.800192
20
0.0892094
11
0.800108
21
0.0891099
0
LINE
8
BLACK
6
CONTINUOUS
10
0.800108
20
0.0891099
11
0.80003
21
0.0890961
0
LINE
8
BLACK
6
CONTINUOUS
10
0.80003
20
0.0890961
11
0.79988
21
0.0889909
0
LINE
8
BLACK
6
CONTINUOUS
10
0.79988
20
0.0889909
11
0.799115
21
0.0889241
0
LINE
8
BLACK
6
CONTINUOUS
10
0.799115
20
0.0889241
11
0.798374
21
0.0887256
0
LINE
8
BLACK
6
CONTINUOUS
10
0.798374
20
0.0887256
11
0.798252
21
0.0887826
0
LINE
8
BLACK
6
CONTINUOUS
10
0.798252
20
0.0887826
11
0.798119
21
0.0887591
0
LINE
8
BLACK
6
CONTINUOUS
10
0.798119
20
0.0887591
11
0.798002
21
0.0888267
0
LINE
8
BLACK
6
CONTINUOUS
10
0.798002
20
0.0888267
11
0.797868
21
0.0888149
0
LINE
8
BLACK
6
CONTINUOUS
10
0.797868
20
0.0888149
11
0.797239
21
0.089255
0
LINE
8
BLACK
6
CONTINUOUS
10
0.797239
20
0.089255
11
0.796544
21
0.0895791
0
LINE
8
BLACK
6
CONTINUOUS
10
0.796544
20
0.0895791
11
0.794669
21
0.0914539
0
LINE
8
BLACK
6
CONTINUOUS
10
0.794669
20
0.0914539
11
0.794446
21
0.091773
0
LINE
8
BLACK
6
CONTINUOUS
10
0.794446
20
0.091773
11
0.794338
21
0.0918482
0
LINE
8
BLACK
6
CONTINUOUS
10
0.794338
20
0.0918482
11
0.794304
21
0.091975
0
LINE
8
BLACK
6
CONTINUOUS
10
0.794304
20
0.091975
11
0.794081
21
0.0922939
0
LINE
8
BLACK
6
CONTINUOUS
10
0.794081
20
0.0922939
11
0.794014
21
0.0930582
0
LINE
8
BLACK
6
CONTINUOUS
10
0.794014
20
0.0930582
11
0.793816
21
0.0937991
0
LINE
8
BLACK
6
CONTINUOUS
10
0.793816
20
0.0937991
11
0.793928
21
0.0940406
0
LINE
8
BLACK
6
CONTINUOUS
10
0.793928
20
0.0940406
11
0.793905
21
0.094306
0
LINE
8
BLACK
6
CONTINUOUS
10
0.793905
20
0.094306
11
0.794345
21
0.0949346
0
LINE
8
BLACK
6
CONTINUOUS
10
0.794345
20
0.0949346
11
0.794669
21
0.0956297
0
LINE
8
BLACK
6
CONTINUOUS
10
0.794669
20
0.0956297
11
0.796544
21
0.0975045
0
LINE
8
BLACK
6
CONTINUOUS
10
0.796544
20
0.0975045
11
0.796863
21
0.0977279
0
LINE
8
BLACK
6
CONTINUOUS
10
0.796863
20
0.0977279
11
0.796938
21
0.0978354
0
LINE
8
BLACK
6
CONTINUOUS
10
0.796938
20
0.0978354
11
0.797065
21
0.0978693
0
LINE
8
BLACK
6
CONTINUOUS
10
0.797065
20
0.0978693
11
0.797072
21
0.0978742
0
LINE
8
BLACK
6
CONTINUOUS
10
0.797072
20
0.0978742
11
0.797155
21
0.0979737
0
LINE
8
BLACK
6
CONTINUOUS
10
0.797155
20
0.0979737
11
0.797234
21
0.0979876
0
LINE
8
BLACK
6
CONTINUOUS
10
0.797234
20
0.0979876
11
0.797384
21
0.0980927
0
LINE
8
BLACK
6
CONTINUOUS
10
0.797384
20
0.0980927
11
0.798148
21
0.0981596
0
LINE
8
BLACK
6
CONTINUOUS
10
0.798148
20
0.0981596
11
0.798889
21
0.0983581
0
LINE
8
BLACK
6
CONTINUOUS
10
0.798889
20
0.0983581
11
0.799011
21
0.098301
0
LINE
8
BLACK
6
CONTINUOUS
10
0.999611
20
0.098301
11
0.999745
21
0.0983245
0
LINE
8
BLACK
6
CONTINUOUS
10
0.999745
20
0.0983245
11
0.999861
21
0.098257
0
LINE
8
BLACK
6
CONTINUOUS
10
0.999861
20
0.098257
11
0.999996
21
0.0982687
0
LINE
8
BLACK
6
CONTINUOUS
10
0.999996
20
0.0982687
11
1.00062
21
0.0978287
0
LINE
8
BLACK
6
CONTINUOUS
10
1.00062
20
0.0978287
11
1.00132
21
0.0975045
0
LINE
8
BLACK
6
CONTINUOUS
10
1.00132
20
0.0975045
11
1.00319
21
0.0956297
0
LINE
8
BLACK
6
CONTINUOUS
10
1.00319
20
0.0956297
11
1.00342
21
0.0953107
0
LINE
8
BLACK
6
CONTINUOUS
10
1.00342
20
0.0953107
11
1.00353
21
0.0952354
0
LINE
8
BLACK
6
CONTINUOUS
10
1.00353
20
0.0952354
11
1.00356
21
0.0951087
0
LINE
8
BLACK
6
CONTINUOUS
10
1.00356
20
0.0951087
11
1.00378
21
0.0947897
0
LINE
8
BLACK
6
CONTINUOUS
10
1.00378
20
0.0947897
11
1.00385
21
0.0940255
0
LINE
8
BLACK
6
CONTINUOUS
10
1.00385
20
0.0940255
11
1.00405
21
0.0932844
0
LINE
8
BLACK
6
CONTINUOUS
10
1.00405
20
0.0932844
11
1.00394
21
0.093043
0
LINE
8
BLACK
6
CONTINUOUS
10
1.00394
20
0.093043
11
1.00396
21
0.0927776
0
LINE
8
BLACK
6
CONTINUOUS
10
1.00396
20
0.0927776
11
1.00352
21
0.0921492
0
LINE
8
BLACK
6
CONTINUOUS
10
1.00352
20
0.0921492
11
1.00319
21
0.0914539
0
LINE
8
BLACK
6
CONTINUOUS
10
1.00319
20
0.0914539
11
1.00132
21
0.0895791
0
LINE
8
BLACK
6
CONTINUOUS
10
1.00132
20
0.0895791
11
1.001
21
0.0893557
0
LINE
8
BLACK
6
CONTINUOUS
10
1.001
20
0.0893557
11
1.00093
21
0.0892483
0
LINE
8
BLACK
6
CONTINUOUS
10
1.00093
20
0.0892483
11
1.0008
21
0.0892143
0
LINE
8
BLACK
6
CONTINUOUS
10
1.0008
20
0.0892143
11
1.00079
21
0.0892094
0
LINE
8
BLACK
6
CONTINUOUS
10
1.00079
20
0.0892094
11
1.00071
21
0.0891099
0
LINE
8
BLACK
6
CONTINUOUS
10
1.00071
20
0.0891099
11
1.00063
21
0.0890961
0
LINE
8
BLACK
6
CONTINUOUS
10
1.00063
20
0.0890961
11
1.00048
21
0.0889909
0
LINE
8
BLACK
6
CONTINUOUS
10
1.00048
20
0.0889909
11
0.999715
21
0.0889241
0
LINE
8
BLACK
6
CONTINUOUS
10
0.999715
20
0.0889241
11
0.998974
21
0.0887256
0
LINE
8
BLACK
6
CONTINUOUS
10
0.998974
20
0.0887256
11
0.998852
21
0.0887826
0
LINE
8
BLACK
6
CONTINUOUS
10
0.998852
20
0.0887826
11
0.998719
21
0.0887591
0
LINE
8
BLACK
6
CONTINUOUS
10
0.998719
20
0.0887591
11
0.998602
21
0.0888267
0
LINE
8
BLACK
6
CONTINUOUS
10
0.998602
20
0.0888267
11
0.998468
21
0.0888149
0
LINE
8
BLACK
6
CONTINUOUS
10
0.998468
20
0.0888149
11
0.997839
21
0.089255
0
LINE
8
BLACK
6
CONTINUOUS
10
0.997839
20
0.089255
11
0.997144
21
0.0895791
0
LINE
8
BLACK
6
CONTINUOUS
10
0.997144
20
0.0895791
11
0.995269
21
0.0914539
0
LINE
8
BLACK
6
CONTINUOUS
10
0.995269
20
0.0914539
11
0.995046
21
0.091773
0
LINE
8
BLACK
6
CONTINUOUS
10
0.995046
20
0.091773
11
0.994938
21
0.0918482
0
LINE
8
BLACK
6
CONTINUOUS
10
0.994938
20
0.0918482
11
0.994904
21
0.091975
0
LINE
8
BLACK
6
CONTINUOUS
10
0.994904
20
0.091975
11
0.994681
21
0.0922939
0
LINE
8
BLACK
6
CONTINUOUS
10
0.994681
20
0.0922939
11
0.994614
21
0.0930582
0
LINE
8
BLACK
6
CONTINUOUS
10
0.994614
20
0.0930582
11
0.994416
21
0.0937991
0
LINE
8
BLACK
6
CONTINUOUS
10
0.994416
20
0.0937991
11
0.994528
21
0.0940406
0
LINE
8
BLACK
6
CONTINUOUS
10
0.994528
20
0.0940406
11
0.994505
21
0.094306
0
LINE
8
BLACK
6
CONTINUOUS
10
0.994505
20
0.094306
11
0.994945
21
0.0949346
0
LINE
8
BLACK
6
CONTINUOUS
10
0.994945
20
0.0949346
11
0.995269
21
0.0956297
0
LINE
8
BLACK
6
CONTINUOUS
10
0.995269
20
0.0956297
11
0.997144
21
0.0975045
0
LINE
8
BLACK
6
CONTINUOUS
10
0.997144
20
0.0975045
11
0.997463
21
0.0977279
0
LINE
8
BLACK
6
CONTINUOUS
10
0.997463
20
0.0977279
11
0.997538
21
0.0978354
0
LINE
8
BLACK
6
CONTINUOUS
10
0.997538
20
0.0978354
11
0.997665
21
0.0978693
0
LINE
8
BLACK
6
CONTINUOUS
10
0.997665
20
0.0978693
11
0.997672
21
0.0978742
0
LINE
8
BLACK
6
CONTINUOUS
10
0.997672
20
0.0978742
11
0.997755
21
0.0979737
0
LINE
8
BLACK
6
CONTINUOUS
10
0.997755
20
0.0979737
11
0.997834
21
0.0979876
0
LINE
8
BLACK
6
CONTINUOUS
10
0.997834
20
0.0979876
11
0.997984
21
0.0980927
0
LINE
8
BLACK
6
CONTINUOUS
10
0.997984
20
0.0980927
11
0.998748
21
0.0981596
0
LINE
8
BLACK
6
CONTINUOUS
10
0.998748
20
0.0981596
11
0.999489
21
0.0983581
0
LINE
8
BLACK
6
CONTINUOUS
10
0.999489
20
0.0983581
11
0.999611
21
0.098301
0
LINE
8
BLACK
6
CONTINUOUS
10
0.125527
20
0.284952
11
0.125591
21
0.284953
0
LINE
8
BLACK
6
CONTINUOUS
10
0.125591
20
0.284953
11
0.131216
21
0.283079
0
LINE
8
BLACK
6
CONTINUOUS
10
0.131216
20
0.283079
11
0.132117
21
0.28259
0
LINE
8
BLACK
6
CONTINUOUS
10
0.132117
20
0.28259
11
0.13221
21
0.28244
0
LINE
8
BLACK
6
CONTINUOUS
10
0.13221
20
0.28244
11
0.13237
21
0.282365
0
LINE
8
BLACK
6
CONTINUOUS
10
0.13237
20
0.282365
11
0.136119
21
0.278616
0
LINE
8
BLACK
6
CONTINUOUS
10
0.136119
20
0.278616
11
0.136708
21
0.277776
0
LINE
8
BLACK
6
CONTINUOUS
10
0.136708
20
0.277776
11
0.136723
21
0.2776
0
LINE
8
BLACK
6
CONTINUOUS
10
0.136723
20
0.2776
11
0.136833
21
0.277462
0
LINE
8
BLACK
6
CONTINUOUS
10
0.136833
20
0.277462
11
0.138707
21
0.271837
0
LINE
8
BLACK
6
CONTINUOUS
10
0.138707
20
0.271837
11
0.138837
21
0.270964
0
LINE
8
BLACK
6
CONTINUOUS
10
0.138837
20
0.270964
11
0.138859
21
0.270904
0
LINE
8
BLACK
6
CONTINUOUS
10
0.138859
20
0.270904
11
0.138859
21
0.267154
0
LINE
8
BLACK
6
CONTINUOUS
10
0.138859
20
0.267154
11
0.138681
21
0.266144
0
LINE
8
BLACK
6
CONTINUOUS
10
0.138681
20
0.266144
11
0.137383
21
0.264597
0
LINE
8
BLACK
6
CONTINUOUS
10
0.137383
20
0.264597
11
0.135394
21
0.264246
0
LINE
8
BLACK
6
CONTINUOUS
10
0.135394
20
0.264246
11
0.133644
21
0.265256
0
LINE
8
BLACK
6
CONTINUOUS
10
0.133644
20
0.265256
11
0.132954
21
0.267154
0
LINE
8
BLACK
6
CONTINUOUS
10
0.132954
20
0.267154
11
0.132954
21
0.270425
0
LINE
8
BLACK
6
CONTINUOUS
10
0.132954
20
0.270425
11
0.131451
21
0.274933
0
LINE
8
BLACK
6
CONTINUOUS
10
0.131451
20
0.274933
11
0.128687
21
0.277697
0
LINE
8
BLACK
6
CONTINUOUS
10
0.128687
20
0.277697
11
0.124179
21
0.279199
0
LINE
8
BLACK
6
CONTINUOUS
10
0.124179
20
0.279199
11
0.0965362
21
0.279199
0
LINE
8
BLACK
6
CONTINUOUS
10
0.0965362
20
0.279199
11
0.0955263
21
0.279378
0
LINE
8
BLACK
6
CONTINUOUS
10
0.0955263
20
0.279378
11
0.093979
21
0.280676
0
LINE
8
BLACK
6
CONTINUOUS
10
0.093979
20
0.280676
11
0.0936283
21
0.282665
0
LINE
8
BLACK
6
CONTINUOUS
10
0.0936283
20
0.282665
11
0.0946382
21
0.284414
0
LINE
8
BLACK
6
CONTINUOUS
10
0.0946382
20
0.284414
11
0.0965362
21
0.285105
0
LINE
8
BLACK
6
CONTINUOUS
10
0.0965362
20
0.285105
11
0.124658
21
0.285105
0
LINE
8
BLACK
6
CONTINUOUS
10
0.124658
20
0.285105
11
0.125527
21
0.284952
0
LINE
8
BLACK
6
CONTINUOUS
10
0.108654
20
0.324322
11
0.108719
21
0.324324
0
LINE
8
BLACK
6
CONTINUOUS
10
0.108719
20
0.324324
11
0.114343
21
0.322449
0
LINE
8
BLACK
6
CONTINUOUS
10
0.114343
20
0.322449
11
0.115245
21
0.321961
0
LINE
8
BLACK
6
CONTINUOUS
10
0.115245
20
0.321961
11
0.115337
21
0.32181
0
LINE
8
BLACK
6
CONTINUOUS
10
0.115337
20
0.32181
11
0.115497
21
0.321735
0
LINE
8
BLACK
6
CONTINUOUS
10
0.115497
20
0.321735
11
0.132954
21
0.304279
0
LINE
8
BLACK
6
CONTINUOUS
10
0.132954
20
0.304279
11
0.132954
21
0.321522
0
LINE
8
BLACK
6
CONTINUOUS
10
0.132954
20
0.321522
11
0.133132
21
0.322532
0
LINE
8
BLACK
6
CONTINUOUS
10
0.133132
20
0.322532
11
0.13443
21
0.324079
0
LINE
8
BLACK
6
CONTINUOUS
10
0.13443
20
0.324079
11
0.136419
21
0.32443
0
LINE
8
BLACK
6
CONTINUOUS
10
0.136419
20
0.32443
11
0.138168
21
0.32342
0
LINE
8
BLACK
6
CONTINUOUS
10
0.138168
20
0.32342
11
0.138859
21
0.321522
0
LINE
8
BLACK
6
CONTINUOUS
10
0.138859
20
0.321522
11
0.138859
21
0.29715
0
LINE
8
BLACK
6
CONTINUOUS
10
0.138859
20
0.29715
11
0.138747
21
0.296516
0
LINE
8
BLACK
6
CONTINUOUS
10
0.138747
20
0.296516
11
0.138758
21
0.296386
0
LINE
8
BLACK
6
CONTINUOUS
10
0.138758
20
0.296386
11
0.138713
21
0.296321
0
LINE
8
BLACK
6
CONTINUOUS
10
0.138713
20
0.296321
11
0.138681
21
0.29614
0
LINE
8
BLACK
6
CONTINUOUS
10
0.138681
20
0.29614
11
0.13811
21
0.29546
0
LINE
8
BLACK
6
CONTINUOUS
10
0.13811
20
0.29546
11
0.1376
21
0.294732
0
LINE
8
BLACK
6
CONTINUOUS
10
0.1376
20
0.294732
11
0.137469
21
0.294697
0
LINE
8
BLACK
6
CONTINUOUS
10
0.137469
20
0.294697
11
0.137383
21
0.294593
0
LINE
8
BLACK
6
CONTINUOUS
10
0.137383
20
0.294593
11
0.136507
21
0.294439
0
LINE
8
BLACK
6
CONTINUOUS
10
0.136507
20
0.294439
11
0.135649
21
0.294209
0
LINE
8
BLACK
6
CONTINUOUS
10
0.135649
20
0.294209
11
0.135527
21
0.294266
0
LINE
8
BLACK
6
CONTINUOUS
10
0.135527
20
0.294266
11
0.135394
21
0.294242
0
LINE
8
BLACK
6
CONTINUOUS
10
0.135394
20
0.294242
11
0.134624
21
0.294687
0
LINE
8
BLACK
6
CONTINUOUS
10
0.134624
20
0.294687
11
0.133818
21
0.295062
0
LINE
8
BLACK
6
CONTINUOUS
10
0.133818
20
0.295062
11
0.111814
21
0.317067
0
LINE
8
BLACK
6
CONTINUOUS
10
0.111814
20
0.317067
11
0.107306
21
0.31857
0
LINE
8
BLACK
6
CONTINUOUS
10
0.107306
20
0.31857
11
0.104732
21
0.31857
0
LINE
8
BLACK
6
CONTINUOUS
10
0.104732
20
0.31857
11
0.102035
21
0.317221
0
LINE
8
BLACK
6
CONTINUOUS
10
0.102035
20
0.317221
11
0.100838
21
0.316024
0
LINE
8
BLACK
6
CONTINUOUS
10
0.100838
20
0.316024
11
0.0994889
21
0.313326
0
LINE
8
BLACK
6
CONTINUOUS
10
0.0994889
20
0.313326
11
0.0994889
21
0.305346
0
LINE
8
BLACK
6
CONTINUOUS
10
0.0994889
20
0.305346
11
0.100838
21
0.302649
0
LINE
8
BLACK
6
CONTINUOUS
10
0.100838
20
0.302649
11
0.102374
21
0.301113
0
LINE
8
BLACK
6
CONTINUOUS
10
0.102374
20
0.301113
11
0.102962
21
0.300273
0
LINE
8
BLACK
6
CONTINUOUS
10
0.102962
20
0.300273
11
0.103138
21
0.298261
0
LINE
8
BLACK
6
CONTINUOUS
10
0.103138
20
0.298261
11
0.101979
21
0.296606
0
LINE
8
BLACK
6
CONTINUOUS
10
0.101979
20
0.296606
11
0.100028
21
0.296084
0
LINE
8
BLACK
6
CONTINUOUS
10
0.100028
20
0.296084
11
0.0981978
21
0.296937
0
LINE
8
BLACK
6
CONTINUOUS
10
0.0981978
20
0.296937
11
0.096323
21
0.298812
0
LINE
8
BLACK
6
CONTINUOUS
10
0.096323
20
0.298812
11
0.0958167
21
0.299535
0
LINE
8
BLACK
6
CONTINUOUS
10
0.0958167
20
0.299535
11
0.0957699
21
0.299579
0
LINE
8
BLACK
6
CONTINUOUS
10
0.0957699
20
0.299579
11
0.0938952
21
0.303329
0
LINE
8
BLACK
6
CONTINUOUS
10
0.0938952
20
0.303329
11
0.0936028
21
0.304312
0
LINE
8
BLACK
6
CONTINUOUS
10
0.0936028
20
0.304312
11
0.0936438
21
0.304484
0
LINE
8
BLACK
6
CONTINUOUS
10
0.0936438
20
0.304484
11
0.0935834
21
0.304649
0
LINE
8
BLACK
6
CONTINUOUS
10
0.0935834
20
0.304649
11
0.0935834
21
0.314023
0
LINE
8
BLACK
6
CONTINUOUS
10
0.0935834
20
0.314023
11
0.0937615
21
0.315033
0
LINE
8
BLACK
6
CONTINUOUS
10
0.0937615
20
0.315033
11
0.093875
21
0.315168
0
LINE
8
BLACK
6
CONTINUOUS
10
0.093875
20
0.315168
11
0.0938952
21
0.315344
0
LINE
8
BLACK
6
CONTINUOUS
10
0.0938952
20
0.315344
11
0.0957699
21
0.319093
0
LINE
8
BLACK
6
CONTINUOUS
10
0.0957699
20
0.319093
11
0.0962958
21
0.319802
0
LINE
8
BLACK
6
CONTINUOUS
10
0.0962958
20
0.319802
11
0.096323
21
0.319861
0
LINE
8
BLACK
6
CONTINUOUS
10
0.096323
20
0.319861
11
0.0981978
21
0.321735
0
LINE
8
BLACK
6
CONTINUOUS
10
0.0981978
20
0.321735
11
0.0989209
21
0.322242
0
LINE
8
BLACK
6
CONTINUOUS
10
0.0989209
20
0.322242
11
0.0989652
21
0.322289
0
LINE
8
BLACK
6
CONTINUOUS
10
0.0989652
20
0.322289
11
0.102715
21
0.324163
0
LINE
8
BLACK
6
CONTINUOUS
10
0.102715
20
0.324163
11
0.103698
21
0.324456
0
LINE
8
BLACK
6
CONTINUOUS
10
0.103698
20
0.324456
11
0.103869
21
0.324415
0
LINE
8
BLACK
6
CONTINUOUS
10
0.103869
20
0.324415
11
0.104035
21
0.324475
0
LINE
8
BLACK
6
CONTINUOUS
10
0.104035
20
0.324475
11
0.107785
21
0.324475
0
LINE
8
BLACK
6
CONTINUOUS
10
0.107785
20
0.324475
11
0.108654
21
0.324322
0
LINE
8
BLACK
6
CONTINUOUS
10
0.180992
20
0.459646
11
0.182384
21
0.459069
0
LINE
8
BLACK
6
CONTINUOUS
10
0.182384
20
0.459069
11
0.182961
21
0.457677
0
LINE
8
BLACK
6
CONTINUOUS
10
0.182961
20
0.457677
11
0.182961
21
0.132874
0
LINE
8
BLACK
6
CONTINUOUS
10
0.182961
20
0.132874
11
0.182384
21
0.131482
0
LINE
8
BLACK
6
CONTINUOUS
10
0.182384
20
0.131482
11
0.180992
21
0.130906
0
LINE
8
BLACK
6
CONTINUOUS
10
0.180992
20
0.130906
11
0.0215433
21
0.130906
0
LINE
8
BLACK
6
CONTINUOUS
10
0.0215433
20
0.130906
11
0.0201514
21
0.131482
0
LINE
8
BLACK
6
CONTINUOUS
10
0.0201514
20
0.131482
11
0.0195748
21
0.132874
0
LINE
8
BLACK
6
CONTINUOUS
10
0.0195748
20
0.132874
11
0.0195748
21
0.457677
0
LINE
8
BLACK
6
CONTINUOUS
10
0.0195748
20
0.457677
11
0.0201514
21
0.459069
0
LINE
8
BLACK
6
CONTINUOUS
10
0.0201514
20
0.459069
11
0.0215433
21
0.459646
0
LINE
8
BLACK
6
CONTINUOUS
10
0.0215433
20
0.459646
11
0.180992
21
0.459646
0
LINE
8
BLACK
6
CONTINUOUS
10
0.0235118
20
0.455709
11
0.0235118
21
0.134843
0
LINE
8
BLACK
6
CONTINUOUS
10
0.0235118
20
0.134843
11
0.179024
21
0.134843
0
LINE
8
BLACK
6
CONTINUOUS
10
0.179024
20
0.134843
11
0.179024
21
0.348391
0
LINE
8
BLACK
6
CONTINUOUS
10
0.179024
20
0.348391
11
0.152017
21
0.367487
0
LINE
8
BLACK
6
CONTINUOUS
10
0.152017
20
0.367487
11
0.151835
21
0.367776
0
LINE
8
BLACK
6
CONTINUOUS
10
0.151835
20
0.367776
11
0.151546
21
0.367958
0
LINE
8
BLACK
6
CONTINUOUS
10
0.151546
20
0.367958
11
0.151448
21
0.368388
0
LINE
8
BLACK
6
CONTINUOUS
10
0.151448
20
0.368388
11
0.151213
21
0.368762
0
LINE
8
BLACK
6
CONTINUOUS
10
0.151213
20
0.368762
11
0.151289
21
0.369094
0
LINE
8
BLACK
6
CONTINUOUS
10
0.151289
20
0.369094
11
0.151213
21
0.369427
0
LINE
8
BLACK
6
CONTINUOUS
10
0.151213
20
0.369427
11
0.151448
21
0.369801
0
LINE
8
BLACK
6
CONTINUOUS
10
0.151448
20
0.369801
11
0.151546
21
0.370231
0
LINE
8
BLACK
6
CONTINUOUS
10
0.151546
20
0.370231
11
0.151835
21
0.370413
0
LINE
8
BLACK
6
CONTINUOUS
10
0.151835
20
0.370413
11
0.152017
21
0.370702
0
LINE
8
BLACK
6
CONTINUOUS
10
0.152017
20
0.370702
11
0.179024
21
0.389799
0
LINE
8
BLACK
6
CONTINUOUS
10
0.179024
20
0.389799
11
0.179024
21
0.455709
0
LINE
8
BLACK
6
CONTINUOUS
10
0.179024
20
0.455709
11
0.0235118
21
0.455709
0
LINE
8
BLACK
6
CONTINUOUS
10
0.156563
20
0.369094
11
0.179024
21
0.353212
0
LINE
8
BLACK
6
CONTINUOUS
10
0.179024
20
0.353212
11
0.179024
21
0.384977
0
LINE
8
BLACK
6
CONTINUOUS
10
0.179024
20
0.384977
11
0.156563
21
0.369094
0
LINE
8
BLACK
6
CONTINUOUS
10
0.689031
20
0.247068
11
0.689166
21
0.246954
0
LINE
8
BLACK
6
CONTINUOUS
10
0.689166
20
0.246954
11
0.689341
21
0.246934
0
LINE
8
BLACK
6
CONTINUOUS
10
0.689341
20
0.246934
11
0.693091
21
0.245059
0
LINE
8
BLACK
6
CONTINUOUS
10
0.693091
20
0.245059
11
0.693914
21
0.244449
0
LINE
8
BLACK
6
CONTINUOUS
10
0.693914
20
0.244449
11
0.69409
21
0.244043
0
LINE
8
BLACK
6
CONTINUOUS
10
0.69409
20
0.244043
11
0.694411
21
0.243739
0
LINE
8
BLACK
6
CONTINUOUS
10
0.694411
20
0.243739
11
0.696286
21
0.239989
0
LINE
8
BLACK
6
CONTINUOUS
10
0.696286
20
0.239989
11
0.696578
21
0.239007
0
LINE
8
BLACK
6
CONTINUOUS
10
0.696578
20
0.239007
11
0.696537
21
0.238835
0
LINE
8
BLACK
6
CONTINUOUS
10
0.696537
20
0.238835
11
0.696598
21
0.238669
0
LINE
8
BLACK
6
CONTINUOUS
10
0.696598
20
0.238669
11
0.696598
21
0.234919
0
LINE
8
BLACK
6
CONTINUOUS
10
0.696598
20
0.234919
11
0.69642
21
0.233909
0
LINE
8
BLACK
6
CONTINUOUS
10
0.69642
20
0.233909
11
0.696106
21
0.233536
0
LINE
8
BLACK
6
CONTINUOUS
10
0.696106
20
0.233536
11
0.69595
21
0.233074
0
LINE
8
BLACK
6
CONTINUOUS
10
0.69595
20
0.233074
11
0.695477
21
0.232786
0
LINE
8
BLACK
6
CONTINUOUS
10
0.695477
20
0.232786
11
0.695121
21
0.232362
0
LINE
8
BLACK
6
CONTINUOUS
10
0.695121
20
0.232362
11
0.694641
21
0.232278
0
LINE
8
BLACK
6
CONTINUOUS
10
0.694641
20
0.232278
11
0.694224
21
0.232024
0
LINE
8
BLACK
6
CONTINUOUS
10
0.694224
20
0.232024
11
0.67785
21
0.228749
0
LINE
8
BLACK
6
CONTINUOUS
10
0.67785
20
0.228749
11
0.67785
21
0.224368
0
LINE
8
BLACK
6
CONTINUOUS
10
0.67785
20
0.224368
11
0.678973
21
0.222122
0
LINE
8
BLACK
6
CONTINUOUS
10
0.678973
20
0.222122
11
0.681219
21
0.220999
0
LINE
8
BLACK
6
CONTINUOUS
10
0.681219
20
0.220999
11
0.687324
21
0.220999
0
LINE
8
BLACK
6
CONTINUOUS
10
0.687324
20
0.220999
11
0.69045
21
0.222562
0
LINE
8
BLACK
6
CONTINUOUS
10
0.69045
20
0.222562
11
0.691433
21
0.222855
0
LINE
8
BLACK
6
CONTINUOUS
10
0.691433
20
0.222855
11
0.693397
21
0.222385
0
LINE
8
BLACK
6
CONTINUOUS
10
0.693397
20
0.222385
11
0.6946
21
0.220763
0
LINE
8
BLACK
6
CONTINUOUS
10
0.6946
20
0.220763
11
0.694479
21
0.218747
0
LINE
8
BLACK
6
CONTINUOUS
10
0.694479
20
0.218747
11
0.693091
21
0.21728
0
LINE
8
BLACK
6
CONTINUOUS
10
0.693091
20
0.21728
11
0.689341
21
0.215405
0
LINE
8
BLACK
6
CONTINUOUS
10
0.689341
20
0.215405
11
0.688358
21
0.215113
0
LINE
8
BLACK
6
CONTINUOUS
10
0.688358
20
0.215113
11
0.688186
21
0.215154
0
LINE
8
BLACK
6
CONTINUOUS
10
0.688186
20
0.215154
11
0.688021
21
0.215094
0
LINE
8
BLACK
6
CONTINUOUS
10
0.688021
20
0.215094
11
0.680522
21
0.215094
0
LINE
8
BLACK
6
CONTINUOUS
10
0.680522
20
0.215094
11
0.679512
21
0.215272
0
LINE
8
BLACK
6
CONTINUOUS
10
0.679512
20
0.215272
11
0.679376
21
0.215385
0
LINE
8
BLACK
6
CONTINUOUS
10
0.679376
20
0.215385
11
0.679201
21
0.215405
0
LINE
8
BLACK
6
CONTINUOUS
10
0.679201
20
0.215405
11
0.675451
21
0.21728
0
LINE
8
BLACK
6
CONTINUOUS
10
0.675451
20
0.21728
11
0.674628
21
0.217891
0
LINE
8
BLACK
6
CONTINUOUS
10
0.674628
20
0.217891
11
0.674452
21
0.218297
0
LINE
8
BLACK
6
CONTINUOUS
10
0.674452
20
0.218297
11
0.674131
21
0.218601
0
LINE
8
BLACK
6
CONTINUOUS
10
0.674131
20
0.218601
11
0.672256
21
0.22235
0
LINE
8
BLACK
6
CONTINUOUS
10
0.672256
20
0.22235
11
0.671964
21
0.223333
0
LINE
8
BLACK
6
CONTINUOUS
10
0.671964
20
0.223333
11
0.672005
21
0.223505
0
LINE
8
BLACK
6
CONTINUOUS
10
0.672005
20
0.223505
11
0.671944
21
0.223671
0
LINE
8
BLACK
6
CONTINUOUS
10
0.671944
20
0.223671
11
0.671944
21
0.238669
0
LINE
8
BLACK
6
CONTINUOUS
10
0.671944
20
0.238669
11
0.672123
21
0.239679
0
LINE
8
BLACK
6
CONTINUOUS
10
0.672123
20
0.239679
11
0.672236
21
0.239814
0
LINE
8
BLACK
6
CONTINUOUS
10
0.672236
20
0.239814
11
0.672256
21
0.239989
0
LINE
8
BLACK
6
CONTINUOUS
10
0.672256
20
0.239989
11
0.674131
21
0.243739
0
LINE
8
BLACK
6
CONTINUOUS
10
0.674131
20
0.243739
11
0.674742
21
0.244563
0
LINE
8
BLACK
6
CONTINUOUS
10
0.674742
20
0.244563
11
0.675148
21
0.244739
0
LINE
8
BLACK
6
CONTINUOUS
10
0.675148
20
0.244739
11
0.675451
21
0.245059
0
LINE
8
BLACK
6
CONTINUOUS
10
0.675451
20
0.245059
11
0.679201
21
0.246934
0
LINE
8
BLACK
6
CONTINUOUS
10
0.679201
20
0.246934
11
0.680184
21
0.247227
0
LINE
8
BLACK
6
CONTINUOUS
10
0.680184
20
0.247227
11
0.680356
21
0.247186
0
LINE
8
BLACK
6
CONTINUOUS
10
0.680356
20
0.247186
11
0.680522
21
0.247246
0
LINE
8
BLACK
6
CONTINUOUS
10
0.680522
20
0.247246
11
0.688021
21
0.247246
0
LINE
8
BLACK
6
CONTINUOUS
10
0.688021
20
0.247246
11
0.689031
21
0.247068
0
LINE
8
BLACK
6
CONTINUOUS
10
0.678973
20
0.240218
11
0.67785
21
0.237972
0
LINE
8
BLACK
6
CONTINUOUS
10
0.67785
20
0.237972
11
0.67785
21
0.234772
0
LINE
8
BLACK
6
CONTINUOUS
10
0.67785
20
0.234772
11
0.690692
21
0.23734
0
LINE
8
BLACK
6
CONTINUOUS
10
0.690692
20
0.23734
11
0.690692
21
0.237972
0
LINE
8
BLACK
6
CONTINUOUS
10
0.690692
20
0.237972
11
0.689569
21
0.240218
0
LINE
8
BLACK
6
CONTINUOUS
10
0.689569
20
0.240218
11
0.687324
21
0.24134
0
LINE
8
BLACK
6
CONTINUOUS
10
0.687324
20
0.24134
11
0.681219
21
0.24134
0
LINE
8
BLACK
6
CONTINUOUS
10
0.681219
20
0.24134
11
0.678973
21
0.240218
0
LINE
8
BLACK
6
CONTINUOUS
10
0.722776
20
0.247068
11
0.722912
21
0.246954
0
LINE
8
BLACK
6
CONTINUOUS
10
0.722912
20
0.246954
11
0.723087
21
0.246934
0
LINE
8
BLACK
6
CONTINUOUS
10
0.723087
20
0.246934
11
0.726836
21
0.245059
0
LINE
8
BLACK
6
CONTINUOUS
10
0.726836
20
0.245059
11
0.72766
21
0.244449
0
LINE
8
BLACK
6
CONTINUOUS
10
0.72766
20
0.244449
11
0.727836
21
0.244043
0
LINE
8
BLACK
6
CONTINUOUS
10
0.727836
20
0.244043
11
0.728157
21
0.243739
0
LINE
8
BLACK
6
CONTINUOUS
10
0.728157
20
0.243739
11
0.730032
21
0.239989
0
LINE
8
BLACK
6
CONTINUOUS
10
0.730032
20
0.239989
11
0.730324
21
0.239007
0
LINE
8
BLACK
6
CONTINUOUS
10
0.730324
20
0.239007
11
0.730283
21
0.238835
0
LINE
8
BLACK
6
CONTINUOUS
10
0.730283
20
0.238835
11
0.730343
21
0.238669
0
LINE
8
BLACK
6
CONTINUOUS
10
0.730343
20
0.238669
11
0.730343
21
0.218046
0
LINE
8
BLACK
6
CONTINUOUS
10
0.730343
20
0.218046
11
0.730165
21
0.217037
0
LINE
8
BLACK
6
CONTINUOUS
10
0.730165
20
0.217037
11
0.728867
21
0.215489
0
LINE
8
BLACK
6
CONTINUOUS
10
0.728867
20
0.215489
11
0.726878
21
0.215139
0
LINE
8
BLACK
6
CONTINUOUS
10
0.726878
20
0.215139
11
0.725741
21
0.215795
0
LINE
8
BLACK
6
CONTINUOUS
10
0.725741
20
0.215795
11
0.724962
21
0.215405
0
LINE
8
BLACK
6
CONTINUOUS
10
0.724962
20
0.215405
11
0.723979
21
0.215113
0
LINE
8
BLACK
6
CONTINUOUS
10
0.723979
20
0.215113
11
0.723807
21
0.215154
0
LINE
8
BLACK
6
CONTINUOUS
10
0.723807
20
0.215154
11
0.723641
21
0.215094
0
LINE
8
BLACK
6
CONTINUOUS
10
0.723641
20
0.215094
11
0.714267
21
0.215094
0
LINE
8
BLACK
6
CONTINUOUS
10
0.714267
20
0.215094
11
0.713257
21
0.215272
0
LINE
8
BLACK
6
CONTINUOUS
10
0.713257
20
0.215272
11
0.713122
21
0.215385
0
LINE
8
BLACK
6
CONTINUOUS
10
0.713122
20
0.215385
11
0.712947
21
0.215405
0
LINE
8
BLACK
6
CONTINUOUS
10
0.712947
20
0.215405
11
0.709197
21
0.21728
0
LINE
8
BLACK
6
CONTINUOUS
10
0.709197
20
0.21728
11
0.708374
21
0.217891
0
LINE
8
BLACK
6
CONTINUOUS
10
0.708374
20
0.217891
11
0.708198
21
0.218297
0
LINE
8
BLACK
6
CONTINUOUS
10
0.708198
20
0.218297
11
0.707877
21
0.218601
0
LINE
8
BLACK
6
CONTINUOUS
10
0.707877
20
0.218601
11
0.706002
21
0.22235
0
LINE
8
BLACK
6
CONTINUOUS
10
0.706002
20
0.22235
11
0.70571
21
0.223333
0
LINE
8
BLACK
6
CONTINUOUS
10
0.70571
20
0.223333
11
0.705751
21
0.223505
0
LINE
8
BLACK
6
CONTINUOUS
10
0.705751
20
0.223505
11
0.70569
21
0.223671
0
LINE
8
BLACK
6
CONTINUOUS
10
0.70569
20
0.223671
11
0.70569
21
0.22742
0
LINE
8
BLACK
6
CONTINUOUS
10
0.70569
20
0.22742
11
0.705868
21
0.22843
0
LINE
8
BLACK
6
CONTINUOUS
10
0.705868
20
0.22843
11
0.705982
21
0.228566
0
LINE
8
BLACK
6
CONTINUOUS
10
0.705982
20
0.228566
11
0.706002
21
0.228741
0
LINE
8
BLACK
6
CONTINUOUS
10
0.706002
20
0.228741
11
0.707877
21
0.23249
0
LINE
8
BLACK
6
CONTINUOUS
10
0.707877
20
0.23249
11
0.708488
21
0.233314
0
LINE
8
BLACK
6
CONTINUOUS
10
0.708488
20
0.233314
11
0.708893
21
0.23349
0
LINE
8
BLACK
6
CONTINUOUS
10
0.708893
20
0.23349
11
0.709197
21
0.233811
0
LINE
8
BLACK
6
CONTINUOUS
10
0.709197
20
0.233811
11
0.712947
21
0.235686
0
LINE
8
BLACK
6
CONTINUOUS
10
0.712947
20
0.235686
11
0.71393
21
0.235978
0
LINE
8
BLACK
6
CONTINUOUS
10
0.71393
20
0.235978
11
0.714101
21
0.235937
0
LINE
8
BLACK
6
CONTINUOUS
10
0.714101
20
0.235937
11
0.714267
21
0.235997
0
LINE
8
BLACK
6
CONTINUOUS
10
0.714267
20
0.235997
11
0.722944
21
0.235997
0
LINE
8
BLACK
6
CONTINUOUS
10
0.722944
20
0.235997
11
0.724438
21
0.236744
0
LINE
8
BLACK
6
CONTINUOUS
10
0.724438
20
0.236744
11
0.724438
21
0.237972
0
LINE
8
BLACK
6
CONTINUOUS
10
0.724438
20
0.237972
11
0.723315
21
0.240218
0
LINE
8
BLACK
6
CONTINUOUS
10
0.723315
20
0.240218
11
0.721069
21
0.24134
0
LINE
8
BLACK
6
CONTINUOUS
10
0.721069
20
0.24134
11
0.714964
21
0.24134
0
LINE
8
BLACK
6
CONTINUOUS
10
0.714964
20
0.24134
11
0.711838
21
0.239777
0
LINE
8
BLACK
6
CONTINUOUS
10
0.711838
20
0.239777
11
0.710855
21
0.239485
0
LINE
8
BLACK
6
CONTINUOUS
10
0.710855
20
0.239485
11
0.708891
21
0.239954
0
LINE
8
BLACK
6
CONTINUOUS
10
0.708891
20
0.239954
11
0.707688
21
0.241577
0
LINE
8
BLACK
6
CONTINUOUS
10
0.707688
20
0.241577
11
0.707809
21
0.243593
0
LINE
8
BLACK
6
CONTINUOUS
10
0.707809
20
0.243593
11
0.709197
21
0.245059
0
LINE
8
BLACK
6
CONTINUOUS
10
0.709197
20
0.245059
11
0.712947
21
0.246934
0
LINE
8
BLACK
6
CONTINUOUS
10
0.712947
20
0.246934
11
0.71393
21
0.247227
0
LINE
8
BLACK
6
CONTINUOUS
10
0.71393
20
0.247227
11
0.714101
21
0.247186
0
LINE
8
BLACK
6
CONTINUOUS
10
0.714101
20
0.247186
11
0.714267
21
0.247246
0
LINE
8
BLACK
6
CONTINUOUS
10
0.714267
20
0.247246
11
0.721766
21
0.247246
0
LINE
8
BLACK
6
CONTINUOUS
10
0.721766
20
0.247246
11
0.722776
21
0.247068
0
LINE
8
BLACK
6
CONTINUOUS
10
0.723979
20
0.230111
11
0.723807
21
0.230152
0
LINE
8
BLACK
6
CONTINUOUS
10
0.723807
20
0.230152
11
0.723641
21
0.230092
0
LINE
8
BLACK
6
CONTINUOUS
10
0.723641
20
0.230092
11
0.714964
21
0.230092
0
LINE
8
BLACK
6
CONTINUOUS
10
0.714964
20
0.230092
11
0.712719
21
0.228969
0
LINE
8
BLACK
6
CONTINUOUS
10
0.712719
20
0.228969
11
0.711596
21
0.226723
0
LINE
8
BLACK
6
CONTINUOUS
10
0.711596
20
0.226723
11
0.711596
21
0.224368
0
LINE
8
BLACK
6
CONTINUOUS
10
0.711596
20
0.224368
11
0.712719
21
0.222122
0
LINE
8
BLACK
6
CONTINUOUS
10
0.712719
20
0.222122
11
0.714964
21
0.220999
0
LINE
8
BLACK
6
CONTINUOUS
10
0.714964
20
0.220999
11
0.722944
21
0.220999
0
LINE
8
BLACK
6
CONTINUOUS
10
0.722944
20
0.220999
11
0.724438
21
0.221746
0
LINE
8
BLACK
6
CONTINUOUS
10
0.724438
20
0.221746
11
0.724438
21
0.230248
0
LINE
8
BLACK
6
CONTINUOUS
10
0.724438
20
0.230248
11
0.723979
21
0.230111
0
LINE
8
BLACK
6
CONTINUOUS
10
0.7484
20
0.259315
11
0.749091
21
0.257417
0
LINE
8
BLACK
6
CONTINUOUS
10
0.749091
20
0.257417
11
0.749091
21
0.247246
0
LINE
8
BLACK
6
CONTINUOUS
10
0.749091
20
0.247246
11
0.755512
21
0.247246
0
LINE
8
BLACK
6
CONTINUOUS
10
0.755512
20
0.247246
11
0.756522
21
0.247068
0
LINE
8
BLACK
6
CONTINUOUS
10
0.756522
20
0.247068
11
0.758069
21
0.24577
0
LINE
8
BLACK
6
CONTINUOUS
10
0.758069
20
0.24577
11
0.75842
21
0.24378
0
LINE
8
BLACK
6
CONTINUOUS
10
0.75842
20
0.24378
11
0.75741
21
0.242031
0
LINE
8
BLACK
6
CONTINUOUS
10
0.75741
20
0.242031
11
0.755512
21
0.24134
0
LINE
8
BLACK
6
CONTINUOUS
10
0.755512
20
0.24134
11
0.749091
21
0.24134
0
LINE
8
BLACK
6
CONTINUOUS
10
0.749091
20
0.24134
11
0.749091
21
0.224368
0
LINE
8
BLACK
6
CONTINUOUS
10
0.749091
20
0.224368
11
0.750214
21
0.222122
0
LINE
8
BLACK
6
CONTINUOUS
10
0.750214
20
0.222122
11
0.75246
21
0.220999
0
LINE
8
BLACK
6
CONTINUOUS
10
0.75246
20
0.220999
11
0.755512
21
0.220999
0
LINE
8
BLACK
6
CONTINUOUS
10
0.755512
20
0.220999
11
0.756522
21
0.220821
0
LINE
8
BLACK
6
CONTINUOUS
10
0.756522
20
0.220821
11
0.758069
21
0.219523
0
LINE
8
BLACK
6
CONTINUOUS
10
0.758069
20
0.219523
11
0.75842
21
0.217534
0
LINE
8
BLACK
6
CONTINUOUS
10
0.75842
20
0.217534
11
0.75741
21
0.215785
0
LINE
8
BLACK
6
CONTINUOUS
10
0.75741
20
0.215785
11
0.755512
21
0.215094
0
LINE
8
BLACK
6
CONTINUOUS
10
0.755512
20
0.215094
11
0.751763
21
0.215094
0
LINE
8
BLACK
6
CONTINUOUS
10
0.751763
20
0.215094
11
0.750753
21
0.215272
0
LINE
8
BLACK
6
CONTINUOUS
10
0.750753
20
0.215272
11
0.750617
21
0.215385
0
LINE
8
BLACK
6
CONTINUOUS
10
0.750617
20
0.215385
11
0.750442
21
0.215405
0
LINE
8
BLACK
6
CONTINUOUS
10
0.750442
20
0.215405
11
0.746693
21
0.21728
0
LINE
8
BLACK
6
CONTINUOUS
10
0.746693
20
0.21728
11
0.745869
21
0.217891
0
LINE
8
BLACK
6
CONTINUOUS
10
0.745869
20
0.217891
11
0.745693
21
0.218297
0
LINE
8
BLACK
6
CONTINUOUS
10
0.745693
20
0.218297
11
0.745372
21
0.218601
0
LINE
8
BLACK
6
CONTINUOUS
10
0.745372
20
0.218601
11
0.743497
21
0.22235
0
LINE
8
BLACK
6
CONTINUOUS
10
0.743497
20
0.22235
11
0.743205
21
0.223333
0
LINE
8
BLACK
6
CONTINUOUS
10
0.743205
20
0.223333
11
0.743246
21
0.223505
0
LINE
8
BLACK
6
CONTINUOUS
10
0.743246
20
0.223505
11
0.743186
21
0.223671
0
LINE
8
BLACK
6
CONTINUOUS
10
0.743186
20
0.223671
11
0.743186
21
0.24134
0
LINE
8
BLACK
6
CONTINUOUS
10
0.743186
20
0.24134
11
0.740514
21
0.24134
0
LINE
8
BLACK
6
CONTINUOUS
10
0.740514
20
0.24134
11
0.739504
21
0.241519
0
LINE
8
BLACK
6
CONTINUOUS
10
0.739504
20
0.241519
11
0.737957
21
0.242817
0
LINE
8
BLACK
6
CONTINUOUS
10
0.737957
20
0.242817
11
0.737606
21
0.244806
0
LINE
8
BLACK
6
CONTINUOUS
10
0.737606
20
0.244806
11
0.738616
21
0.246555
0
LINE
8
BLACK
6
CONTINUOUS
10
0.738616
20
0.246555
11
0.740514
21
0.247246
0
LINE
8
BLACK
6
CONTINUOUS
10
0.740514
20
0.247246
11
0.743186
21
0.247246
0
LINE
8
BLACK
6
CONTINUOUS
10
0.743186
20
0.247246
11
0.743186
21
0.257417
0
LINE
8
BLACK
6
CONTINUOUS
10
0.743186
20
0.257417
11
0.743364
21
0.258426
0
LINE
8
BLACK
6
CONTINUOUS
10
0.743364
20
0.258426
11
0.744662
21
0.259974
0
LINE
8
BLACK
6
CONTINUOUS
10
0.744662
20
0.259974
11
0.746651
21
0.260324
0
LINE
8
BLACK
6
CONTINUOUS
10
0.746651
20
0.260324
11
0.7484
21
0.259315
0
LINE
8
BLACK
6
CONTINUOUS
10
0.863384
20
0.247068
11
0.863519
21
0.246954
0
LINE
8
BLACK
6
CONTINUOUS
10
0.863519
20
0.246954
11
0.863694
21
0.246934
0
LINE
8
BLACK
6
CONTINUOUS
10
0.863694
20
0.246934
11
0.867444
21
0.245059
0
LINE
8
BLACK
6
CONTINUOUS
10
0.867444
20
0.245059
11
0.868268
21
0.244449
0
LINE
8
BLACK
6
CONTINUOUS
10
0.868268
20
0.244449
11
0.869071
21
0.242595
0
LINE
8
BLACK
6
CONTINUOUS
10
0.869071
20
0.242595
11
0.868495
21
0.240659
0
LINE
8
BLACK
6
CONTINUOUS
10
0.868495
20
0.240659
11
0.866809
21
0.239547
0
LINE
8
BLACK
6
CONTINUOUS
10
0.866809
20
0.239547
11
0.864803
21
0.239777
0
LINE
8
BLACK
6
CONTINUOUS
10
0.864803
20
0.239777
11
0.861677
21
0.24134
0
LINE
8
BLACK
6
CONTINUOUS
10
0.861677
20
0.24134
11
0.857447
21
0.24134
0
LINE
8
BLACK
6
CONTINUOUS
10
0.857447
20
0.24134
11
0.855201
21
0.240218
0
LINE
8
BLACK
6
CONTINUOUS
10
0.855201
20
0.240218
11
0.854078
21
0.237972
0
LINE
8
BLACK
6
CONTINUOUS
10
0.854078
20
0.237972
11
0.854078
21
0.237491
0
LINE
8
BLACK
6
CONTINUOUS
10
0.854078
20
0.237491
11
0.855201
21
0.235246
0
LINE
8
BLACK
6
CONTINUOUS
10
0.855201
20
0.235246
11
0.857447
21
0.234123
0
LINE
8
BLACK
6
CONTINUOUS
10
0.857447
20
0.234123
11
0.862374
21
0.234123
0
LINE
8
BLACK
6
CONTINUOUS
10
0.862374
20
0.234123
11
0.863384
21
0.233945
0
LINE
8
BLACK
6
CONTINUOUS
10
0.863384
20
0.233945
11
0.863519
21
0.233831
0
LINE
8
BLACK
6
CONTINUOUS
10
0.863519
20
0.233831
11
0.863694
21
0.233811
0
LINE
8
BLACK
6
CONTINUOUS
10
0.863694
20
0.233811
11
0.867444
21
0.231936
0
LINE
8
BLACK
6
CONTINUOUS
10
0.867444
20
0.231936
11
0.868268
21
0.231325
0
LINE
8
BLACK
6
CONTINUOUS
10
0.868268
20
0.231325
11
0.868443
21
0.23092
0
LINE
8
BLACK
6
CONTINUOUS
10
0.868443
20
0.23092
11
0.868764
21
0.230616
0
LINE
8
BLACK
6
CONTINUOUS
10
0.868764
20
0.230616
11
0.870639
21
0.226866
0
LINE
8
BLACK
6
CONTINUOUS
10
0.870639
20
0.226866
11
0.870931
21
0.225883
0
LINE
8
BLACK
6
CONTINUOUS
10
0.870931
20
0.225883
11
0.87089
21
0.225711
0
LINE
8
BLACK
6
CONTINUOUS
10
0.87089
20
0.225711
11
0.870951
21
0.225546
0
LINE
8
BLACK
6
CONTINUOUS
10
0.870951
20
0.225546
11
0.870951
21
0.223671
0
LINE
8
BLACK
6
CONTINUOUS
10
0.870951
20
0.223671
11
0.870773
21
0.222661
0
LINE
8
BLACK
6
CONTINUOUS
10
0.870773
20
0.222661
11
0.870659
21
0.222526
0
LINE
8
BLACK
6
CONTINUOUS
10
0.870659
20
0.222526
11
0.870639
21
0.22235
0
LINE
8
BLACK
6
CONTINUOUS
10
0.870639
20
0.22235
11
0.868764
21
0.218601
0
LINE
8
BLACK
6
CONTINUOUS
10
0.868764
20
0.218601
11
0.868153
21
0.217777
0
LINE
8
BLACK
6
CONTINUOUS
10
0.868153
20
0.217777
11
0.867748
21
0.217601
0
LINE
8
BLACK
6
CONTINUOUS
10
0.867748
20
0.217601
11
0.867444
21
0.21728
0
LINE
8
BLACK
6
CONTINUOUS
10
0.867444
20
0.21728
11
0.863694
21
0.215405
0
LINE
8
BLACK
6
CONTINUOUS
10
0.863694
20
0.215405
11
0.862711
21
0.215113
0
LINE
8
BLACK
6
CONTINUOUS
10
0.862711
20
0.215113
11
0.86254
21
0.215154
0
LINE
8
BLACK
6
CONTINUOUS
10
0.86254
20
0.215154
11
0.862374
21
0.215094
0
LINE
8
BLACK
6
CONTINUOUS
10
0.862374
20
0.215094
11
0.854875
21
0.215094
0
LINE
8
BLACK
6
CONTINUOUS
10
0.854875
20
0.215094
11
0.853865
21
0.215272
0
LINE
8
BLACK
6
CONTINUOUS
10
0.853865
20
0.215272
11
0.85373
21
0.215385
0
LINE
8
BLACK
6
CONTINUOUS
10
0.85373
20
0.215385
11
0.853554
21
0.215405
0
LINE
8
BLACK
6
CONTINUOUS
10
0.853554
20
0.215405
11
0.849805
21
0.21728
0
LINE
8
BLACK
6
CONTINUOUS
10
0.849805
20
0.21728
11
0.848981
21
0.217891
0
LINE
8
BLACK
6
CONTINUOUS
10
0.848981
20
0.217891
11
0.848178
21
0.219744
0
LINE
8
BLACK
6
CONTINUOUS
10
0.848178
20
0.219744
11
0.848754
21
0.22168
0
LINE
8
BLACK
6
CONTINUOUS
10
0.848754
20
0.22168
11
0.850439
21
0.222793
0
LINE
8
BLACK
6
CONTINUOUS
10
0.850439
20
0.222793
11
0.852446
21
0.222562
0
LINE
8
BLACK
6
CONTINUOUS
10
0.852446
20
0.222562
11
0.855572
21
0.220999
0
LINE
8
BLACK
6
CONTINUOUS
10
0.855572
20
0.220999
11
0.861677
21
0.220999
0
LINE
8
BLACK
6
CONTINUOUS
10
0.861677
20
0.220999
11
0.863922
21
0.222122
0
LINE
8
BLACK
6
CONTINUOUS
10
0.863922
20
0.222122
11
0.865045
21
0.224368
0
LINE
8
BLACK
6
CONTINUOUS
10
0.865045
20
0.224368
11
0.865045
21
0.224849
0
LINE
8
BLACK
6
CONTINUOUS
10
0.865045
20
0.224849
11
0.863922
21
0.227094
0
LINE
8
BLACK
6
CONTINUOUS
10
0.863922
20
0.227094
11
0.861677
21
0.228217
0
LINE
8
BLACK
6
CONTINUOUS
10
0.861677
20
0.228217
11
0.85675
21
0.228217
0
LINE
8
BLACK
6
CONTINUOUS
10
0.85675
20
0.228217
11
0.85574
21
0.228395
0
LINE
8
BLACK
6
CONTINUOUS
10
0.85574
20
0.228395
11
0.855604
21
0.228509
0
LINE
8
BLACK
6
CONTINUOUS
10
0.855604
20
0.228509
11
0.855429
21
0.228529
0
LINE
8
BLACK
6
CONTINUOUS
10
0.855429
20
0.228529
11
0.851679
21
0.230404
0
LINE
8
BLACK
6
CONTINUOUS
10
0.851679
20
0.230404
11
0.850856
21
0.231015
0
LINE
8
BLACK
6
CONTINUOUS
10
0.850856
20
0.231015
11
0.85068
21
0.23142
0
LINE
8
BLACK
6
CONTINUOUS
10
0.85068
20
0.23142
11
0.850359
21
0.231724
0
LINE
8
BLACK
6
CONTINUOUS
10
0.850359
20
0.231724
11
0.848484
21
0.235474
0
LINE
8
BLACK
6
CONTINUOUS
10
0.848484
20
0.235474
11
0.848192
21
0.236457
0
LINE
8
BLACK
6
CONTINUOUS
10
0.848192
20
0.236457
11
0.848233
21
0.236628
0
LINE
8
BLACK
6
CONTINUOUS
10
0.848233
20
0.236628
11
0.848172
21
0.236794
0
LINE
8
BLACK
6
CONTINUOUS
10
0.848172
20
0.236794
11
0.848172
21
0.238669
0
LINE
8
BLACK
6
CONTINUOUS
10
0.848172
20
0.238669
11
0.848351
21
0.239679
0
LINE
8
BLACK
6
CONTINUOUS
10
0.848351
20
0.239679
11
0.848464
21
0.239814
0
LINE
8
BLACK
6
CONTINUOUS
10
0.848464
20
0.239814
11
0.848484
21
0.239989
0
LINE
8
BLACK
6
CONTINUOUS
10
0.848484
20
0.239989
11
0.850359
21
0.243739
0
LINE
8
BLACK
6
CONTINUOUS
10
0.850359
20
0.243739
11
0.85097
21
0.244563
0
LINE
8
BLACK
6
CONTINUOUS
10
0.85097
20
0.244563
11
0.851376
21
0.244739
0
LINE
8
BLACK
6
CONTINUOUS
10
0.851376
20
0.244739
11
0.851679
21
0.245059
0
LINE
8
BLACK
6
CONTINUOUS
10
0.851679
20
0.245059
11
0.855429
21
0.246934
0
LINE
8
BLACK
6
CONTINUOUS
10
0.855429
20
0.246934
11
0.856412
21
0.247227
0
LINE
8
BLACK
6
CONTINUOUS
10
0.856412
20
0.247227
11
0.856584
21
0.247186
0
LINE
8
BLACK
6
CONTINUOUS
10
0.856584
20
0.247186
11
0.85675
21
0.247246
0
LINE
8
BLACK
6
CONTINUOUS
10
0.85675
20
0.247246
11
0.862374
21
0.247246
0
LINE
8
BLACK
6
CONTINUOUS
10
0.862374
20
0.247246
11
0.863384
21
0.247068
0
LINE
8
BLACK
6
CONTINUOUS
10
0.904006
20
0.246191
11
0.904697
21
0.244293
0
LINE
8
BLACK
6
CONTINUOUS
10
0.904697
20
0.244293
11
0.904697
21
0.218046
0
LINE
8
BLACK
6
CONTINUOUS
10
0.904697
20
0.218046
11
0.904519
21
0.217037
0
LINE
8
BLACK
6
CONTINUOUS
10
0.904519
20
0.217037
11
0.90322
21
0.215489
0
LINE
8
BLACK
6
CONTINUOUS
10
0.90322
20
0.215489
11
0.901231
21
0.215139
0
LINE
8
BLACK
6
CONTINUOUS
10
0.901231
20
0.215139
11
0.899482
21
0.216149
0
LINE
8
BLACK
6
CONTINUOUS
10
0.899482
20
0.216149
11
0.899396
21
0.216384
0
LINE
8
BLACK
6
CONTINUOUS
10
0.899396
20
0.216384
11
0.89744
21
0.215405
0
LINE
8
BLACK
6
CONTINUOUS
10
0.89744
20
0.215405
11
0.896457
21
0.215113
0
LINE
8
BLACK
6
CONTINUOUS
10
0.896457
20
0.215113
11
0.896285
21
0.215154
0
LINE
8
BLACK
6
CONTINUOUS
10
0.896285
20
0.215154
11
0.89612
21
0.215094
0
LINE
8
BLACK
6
CONTINUOUS
10
0.89612
20
0.215094
11
0.890495
21
0.215094
0
LINE
8
BLACK
6
CONTINUOUS
10
0.890495
20
0.215094
11
0.889485
21
0.215272
0
LINE
8
BLACK
6
CONTINUOUS
10
0.889485
20
0.215272
11
0.88935
21
0.215385
0
LINE
8
BLACK
6
CONTINUOUS
10
0.88935
20
0.215385
11
0.889175
21
0.215405
0
LINE
8
BLACK
6
CONTINUOUS
10
0.889175
20
0.215405
11
0.885425
21
0.21728
0
LINE
8
BLACK
6
CONTINUOUS
10
0.885425
20
0.21728
11
0.884602
21
0.217891
0
LINE
8
BLACK
6
CONTINUOUS
10
0.884602
20
0.217891
11
0.884426
21
0.218297
0
LINE
8
BLACK
6
CONTINUOUS
10
0.884426
20
0.218297
11
0.884105
21
0.218601
0
LINE
8
BLACK
6
CONTINUOUS
10
0.884105
20
0.218601
11
0.88223
21
0.22235
0
LINE
8
BLACK
6
CONTINUOUS
10
0.88223
20
0.22235
11
0.881938
21
0.223333
0
LINE
8
BLACK
6
CONTINUOUS
10
0.881938
20
0.223333
11
0.881979
21
0.223505
0
LINE
8
BLACK
6
CONTINUOUS
10
0.881979
20
0.223505
11
0.881918
21
0.223671
0
LINE
8
BLACK
6
CONTINUOUS
10
0.881918
20
0.223671
11
0.881918
21
0.244293
0
LINE
8
BLACK
6
CONTINUOUS
10
0.881918
20
0.244293
11
0.882096
21
0.245303
0
LINE
8
BLACK
6
CONTINUOUS
10
0.882096
20
0.245303
11
0.883395
21
0.24685
0
LINE
8
BLACK
6
CONTINUOUS
10
0.883395
20
0.24685
11
0.885384
21
0.247201
0
LINE
8
BLACK
6
CONTINUOUS
10
0.885384
20
0.247201
11
0.887133
21
0.246191
0
LINE
8
BLACK
6
CONTINUOUS
10
0.887133
20
0.246191
11
0.887824
21
0.244293
0
LINE
8
BLACK
6
CONTINUOUS
10
0.887824
20
0.244293
11
0.887824
21
0.224368
0
LINE
8
BLACK
6
CONTINUOUS
10
0.887824
20
0.224368
11
0.888947
21
0.222122
0
LINE
8
BLACK
6
CONTINUOUS
10
0.888947
20
0.222122
11
0.891192
21
0.220999
0
LINE
8
BLACK
6
CONTINUOUS
10
0.891192
20
0.220999
11
0.895423
21
0.220999
0
LINE
8
BLACK
6
CONTINUOUS
10
0.895423
20
0.220999
11
0.89812
21
0.222348
0
LINE
8
BLACK
6
CONTINUOUS
10
0.89812
20
0.222348
11
0.898791
21
0.223019
0
LINE
8
BLACK
6
CONTINUOUS
10
0.898791
20
0.223019
11
0.898791
21
0.244293
0
LINE
8
BLACK
6
CONTINUOUS
10
0.898791
20
0.244293
11
0.898969
21
0.245303
0
LINE
8
BLACK
6
CONTINUOUS
10
0.898969
20
0.245303
11
0.900268
21
0.24685
0
LINE
8
BLACK
6
CONTINUOUS
10
0.900268
20
0.24685
11
0.902257
21
0.247201
0
LINE
8
BLACK
6
CONTINUOUS
10
0.902257
20
0.247201
11
0.904006
21
0.246191
0
LINE
8
BLACK
6
CONTINUOUS
10
0.953373
20
0.247068
11
0.953508
21
0.246954
0
LINE
8
BLACK
6
CONTINUOUS
10
0.953508
20
0.246954
11
0.953683
21
0.246934
0
LINE
8
BLACK
6
CONTINUOUS
10
0.953683
20
0.246934
11
0.957433
21
0.245059
0
LINE
8
BLACK
6
CONTINUOUS
10
0.957433
20
0.245059
11
0.958256
21
0.244449
0
LINE
8
BLACK
6
CONTINUOUS
10
0.958256
20
0.244449
11
0.958432
21
0.244043
0
LINE
8
BLACK
6
CONTINUOUS
10
0.958432
20
0.244043
11
0.958753
21
0.243739
0
LINE
8
BLACK
6
CONTINUOUS
10
0.958753
20
0.243739
11
0.960628
21
0.239989
0
LINE
8
BLACK
6
CONTINUOUS
10
0.960628
20
0.239989
11
0.96092
21
0.239007
0
LINE
8
BLACK
6
CONTINUOUS
10
0.96092
20
0.239007
11
0.960879
21
0.238835
0
LINE
8
BLACK
6
CONTINUOUS
10
0.960879
20
0.238835
11
0.96094
21
0.238669
0
LINE
8
BLACK
6
CONTINUOUS
10
0.96094
20
0.238669
11
0.96094
21
0.218046
0
LINE
8
BLACK
6
CONTINUOUS
10
0.96094
20
0.218046
11
0.960762
21
0.217037
0
LINE
8
BLACK
6
CONTINUOUS
10
0.960762
20
0.217037
11
0.959463
21
0.215489
0
LINE
8
BLACK
6
CONTINUOUS
10
0.959463
20
0.215489
11
0.957474
21
0.215139
0
LINE
8
BLACK
6
CONTINUOUS
10
0.957474
20
0.215139
11
0.956337
21
0.215795
0
LINE
8
BLACK
6
CONTINUOUS
10
0.956337
20
0.215795
11
0.955558
21
0.215405
0
LINE
8
BLACK
6
CONTINUOUS
10
0.955558
20
0.215405
11
0.954575
21
0.215113
0
LINE
8
BLACK
6
CONTINUOUS
10
0.954575
20
0.215113
11
0.954403
21
0.215154
0
LINE
8
BLACK
6
CONTINUOUS
10
0.954403
20
0.215154
11
0.954237
21
0.215094
0
LINE
8
BLACK
6
CONTINUOUS
10
0.954237
20
0.215094
11
0.944864
21
0.215094
0
LINE
8
BLACK
6
CONTINUOUS
10
0.944864
20
0.215094
11
0.943854
21
0.215272
0
LINE
8
BLACK
6
CONTINUOUS
10
0.943854
20
0.215272
11
0.943718
21
0.215385
0
LINE
8
BLACK
6
CONTINUOUS
10
0.943718
20
0.215385
11
0.943543
21
0.215405
0
LINE
8
BLACK
6
CONTINUOUS
10
0.943543
20
0.215405
11
0.939794
21
0.21728
0
LINE
8
BLACK
6
CONTINUOUS
10
0.939794
20
0.21728
11
0.93897
21
0.217891
0
LINE
8
BLACK
6
CONTINUOUS
10
0.93897
20
0.217891
11
0.938794
21
0.218297
0
LINE
8
BLACK
6
CONTINUOUS
10
0.938794
20
0.218297
11
0.938473
21
0.218601
0
LINE
8
BLACK
6
CONTINUOUS
10
0.938473
20
0.218601
11
0.936598
21
0.22235
0
LINE
8
BLACK
6
CONTINUOUS
10
0.936598
20
0.22235
11
0.936306
21
0.223333
0
LINE
8
BLACK
6
CONTINUOUS
10
0.936306
20
0.223333
11
0.936347
21
0.223505
0
LINE
8
BLACK
6
CONTINUOUS
10
0.936347
20
0.223505
11
0.936286
21
0.223671
0
LINE
8
BLACK
6
CONTINUOUS
10
0.936286
20
0.223671
11
0.936286
21
0.22742
0
LINE
8
BLACK
6
CONTINUOUS
10
0.936286
20
0.22742
11
0.936465
21
0.22843
0
LINE
8
BLACK
6
CONTINUOUS
10
0.936465
20
0.22843
11
0.936578
21
0.228566
0
LINE
8
BLACK
6
CONTINUOUS
10
0.936578
20
0.228566
11
0.936598
21
0.228741
0
LINE
8
BLACK
6
CONTINUOUS
10
0.936598
20
0.228741
11
0.938473
21
0.23249
0
LINE
8
BLACK
6
CONTINUOUS
10
0.938473
20
0.23249
11
0.939084
21
0.233314
0
LINE
8
BLACK
6
CONTINUOUS
10
0.939084
20
0.233314
11
0.93949
21
0.23349
0
LINE
8
BLACK
6
CONTINUOUS
10
0.93949
20
0.23349
11
0.939794
21
0.233811
0
LINE
8
BLACK
6
CONTINUOUS
10
0.939794
20
0.233811
11
0.943543
21
0.235686
0
LINE
8
BLACK
6
CONTINUOUS
10
0.943543
20
0.235686
11
0.944526
21
0.235978
0
LINE
8
BLACK
6
CONTINUOUS
10
0.944526
20
0.235978
11
0.944698
21
0.235937
0
LINE
8
BLACK
6
CONTINUOUS
10
0.944698
20
0.235937
11
0.944864
21
0.235997
0
LINE
8
BLACK
6
CONTINUOUS
10
0.944864
20
0.235997
11
0.95354
21
0.235997
0
LINE
8
BLACK
6
CONTINUOUS
10
0.95354
20
0.235997
11
0.955034
21
0.236744
0
LINE
8
BLACK
6
CONTINUOUS
10
0.955034
20
0.236744
11
0.955034
21
0.237972
0
LINE
8
BLACK
6
CONTINUOUS
10
0.955034
20
0.237972
11
0.953911
21
0.240218
0
LINE
8
BLACK
6
CONTINUOUS
10
0.953911
20
0.240218
11
0.951666
21
0.24134
0
LINE
8
BLACK
6
CONTINUOUS
10
0.951666
20
0.24134
11
0.945561
21
0.24134
0
LINE
8
BLACK
6
CONTINUOUS
10
0.945561
20
0.24134
11
0.942435
21
0.239777
0
LINE
8
BLACK
6
CONTINUOUS
10
0.942435
20
0.239777
11
0.941452
21
0.239485
0
LINE
8
BLACK
6
CONTINUOUS
10
0.941452
20
0.239485
11
0.939487
21
0.239954
0
LINE
8
BLACK
6
CONTINUOUS
10
0.939487
20
0.239954
11
0.938284
21
0.241577
0
LINE
8
BLACK
6
CONTINUOUS
10
0.938284
20
0.241577
11
0.938405
21
0.243593
0
LINE
8
BLACK
6
CONTINUOUS
10
0.938405
20
0.243593
11
0.939794
21
0.245059
0
LINE
8
BLACK
6
CONTINUOUS
10
0.939794
20
0.245059
11
0.943543
21
0.246934
0
LINE
8
BLACK
6
CONTINUOUS
10
0.943543
20
0.246934
11
0.944526
21
0.247227
0
LINE
8
BLACK
6
CONTINUOUS
10
0.944526
20
0.247227
11
0.944698
21
0.247186
0
LINE
8
BLACK
6
CONTINUOUS
10
0.944698
20
0.247186
11
0.944864
21
0.247246
0
LINE
8
BLACK
6
CONTINUOUS
10
0.944864
20
0.247246
11
0.952363
21
0.247246
0
LINE
8
BLACK
6
CONTINUOUS
10
0.952363
20
0.247246
11
0.953373
21
0.247068
0
LINE
8
BLACK
6
CONTINUOUS
10
0.954575
20
0.230111
11
0.954403
21
0.230152
0
LINE
8
BLACK
6
CONTINUOUS
10
0.954403
20
0.230152
11
0.954237
21
0.230092
0
LINE
8
BLACK
6
CONTINUOUS
10
0.954237
20
0.230092
11
0.945561
21
0.230092
0
LINE
8
BLACK
6
CONTINUOUS
10
0.945561
20
0.230092
11
0.943315
21
0.228969
0
LINE
8
BLACK
6
CONTINUOUS
10
0.943315
20
0.228969
11
0.942192
21
0.226723
0
LINE
8
BLACK
6
CONTINUOUS
10
0.942192
20
0.226723
11
0.942192
21
0.224368
0
LINE
8
BLACK
6
CONTINUOUS
10
0.942192
20
0.224368
11
0.943315
21
0.222122
0
LINE
8
BLACK
6
CONTINUOUS
10
0.943315
20
0.222122
11
0.945561
21
0.220999
0
LINE
8
BLACK
6
CONTINUOUS
10
0.945561
20
0.220999
11
0.95354
21
0.220999
0
LINE
8
BLACK
6
CONTINUOUS
10
0.95354
20
0.220999
11
0.955034
21
0.221746
0
LINE
8
BLACK
6
CONTINUOUS
10
0.955034
20
0.221746
11
0.955034
21
0.230248
0
LINE
8
BLACK
6
CONTINUOUS
10
0.955034
20
0.230248
11
0.954575
21
0.230111
0
LINE
8
BLACK
6
CONTINUOUS
10
0.978996
20
0.259315
11
0.979687
21
0.257417
0
LINE
8
BLACK
6
CONTINUOUS
10
0.979687
20
0.257417
11
0.979687
21
0.247246
0
LINE
8
BLACK
6
CONTINUOUS
10
0.979687
20
0.247246
11
0.986108
21
0.247246
0
LINE
8
BLACK
6
CONTINUOUS
10
0.986108
20
0.247246
11
0.987118
21
0.247068
0
LINE
8
BLACK
6
CONTINUOUS
10
0.987118
20
0.247068
11
0.988666
21
0.24577
0
LINE
8
BLACK
6
CONTINUOUS
10
0.988666
20
0.24577
11
0.989016
21
0.24378
0
LINE
8
BLACK
6
CONTINUOUS
10
0.989016
20
0.24378
11
0.988006
21
0.242031
0
LINE
8
BLACK
6
CONTINUOUS
10
0.988006
20
0.242031
11
0.986108
21
0.24134
0
LINE
8
BLACK
6
CONTINUOUS
10
0.986108
20
0.24134
11
0.979687
21
0.24134
0
LINE
8
BLACK
6
CONTINUOUS
10
0.979687
20
0.24134
11
0.979687
21
0.224368
0
LINE
8
BLACK
6
CONTINUOUS
10
0.979687
20
0.224368
11
0.98081
21
0.222122
0
LINE
8
BLACK
6
CONTINUOUS
10
0.98081
20
0.222122
11
0.983056
21
0.220999
0
LINE
8
BLACK
6
CONTINUOUS
10
0.983056
20
0.220999
11
0.986108
21
0.220999
0
LINE
8
BLACK
6
CONTINUOUS
10
0.986108
20
0.220999
11
0.987118
21
0.220821
0
LINE
8
BLACK
6
CONTINUOUS
10
0.987118
20
0.220821
11
0.988666
21
0.219523
0
LINE
8
BLACK
6
CONTINUOUS
10
0.988666
20
0.219523
11
0.989016
21
0.217534
0
LINE
8
BLACK
6
CONTINUOUS
10
0.989016
20
0.217534
11
0.988006
21
0.215785
0
LINE
8
BLACK
6
CONTINUOUS
10
0.988006
20
0.215785
11
0.986108
21
0.215094
0
LINE
8
BLACK
6
CONTINUOUS
10
0.986108
20
0.215094
11
0.982359
21
0.215094
0
LINE
8
BLACK
6
CONTINUOUS
10
0.982359
20
0.215094
11
0.981349
21
0.215272
0
LINE
8
BLACK
6
CONTINUOUS
10
0.981349
20
0.215272
11
0.981214
21
0.215385
0
LINE
8
BLACK
6
CONTINUOUS
10
0.981214
20
0.215385
11
0.981038
21
0.215405
0
LINE
8
BLACK
6
CONTINUOUS
10
0.981038
20
0.215405
11
0.977289
21
0.21728
0
LINE
8
BLACK
6
CONTINUOUS
10
0.977289
20
0.21728
11
0.976465
21
0.217891
0
LINE
8
BLACK
6
CONTINUOUS
10
0.976465
20
0.217891
11
0.976289
21
0.218297
0
LINE
8
BLACK
6
CONTINUOUS
10
0.976289
20
0.218297
11
0.975968
21
0.218601
0
LINE
8
BLACK
6
CONTINUOUS
10
0.975968
20
0.218601
11
0.974094
21
0.22235
0
LINE
8
BLACK
6
CONTINUOUS
10
0.974094
20
0.22235
11
0.973801
21
0.223333
0
LINE
8
BLACK
6
CONTINUOUS
10
0.973801
20
0.223333
11
0.973842
21
0.223505
0
LINE
8
BLACK
6
CONTINUOUS
10
0.973842
20
0.223505
11
0.973782
21
0.223671
0
LINE
8
BLACK
6
CONTINUOUS
10
0.973782
20
0.223671
11
0.973782
21
0.24134
0
LINE
8
BLACK
6
CONTINUOUS
10
0.973782
20
0.24134
11
0.97111
21
0.24134
0
LINE
8
BLACK
6
CONTINUOUS
10
0.97111
20
0.24134
11
0.9701
21
0.241519
0
LINE
8
BLACK
6
CONTINUOUS
10
0.9701
20
0.241519
11
0.968553
21
0.242817
0
LINE
8
BLACK
6
CONTINUOUS
10
0.968553
20
0.242817
11
0.968202
21
0.244806
0
LINE
8
BLACK
6
CONTINUOUS
10
0.968202
20
0.244806
11
0.969212
21
0.246555
0
LINE
8
BLACK
6
CONTINUOUS
10
0.969212
20
0.246555
11
0.97111
21
0.247246
0
LINE
8
BLACK
6
CONTINUOUS
10
0.97111
20
0.247246
11
0.973782
21
0.247246
0
LINE
8
BLACK
6
CONTINUOUS
10
0.973782
20
0.247246
11
0.973782
21
0.257417
0
LINE
8
BLACK
6
CONTINUOUS
10
0.973782
20
0.257417
11
0.97396
21
0.258426
0
LINE
8
BLACK
6
CONTINUOUS
10
0.97396
20
0.258426
11
0.975258
21
0.259974
0
LINE
8
BLACK
6
CONTINUOUS
10
0.975258
20
0.259974
11
0.977247
21
0.260324
0
LINE
8
BLACK
6
CONTINUOUS
10
0.977247
20
0.260324
11
0.978996
21
0.259315
0
LINE
8
BLACK
6
CONTINUOUS
10
1.03024
20
0.247068
11
1.03037
21
0.246954
0
LINE
8
BLACK
6
CONTINUOUS
10
1.03037
20
0.246954
11
1.03055
21
0.246934
0
LINE
8
BLACK
6
CONTINUOUS
10
1.03055
20
0.246934
11
1.0343
21
0.245059
0
LINE
8
BLACK
6
CONTINUOUS
10
1.0343
20
0.245059
11
1.03501
21
0.244534
0
LINE
8
BLACK
6
CONTINUOUS
10
1.03501
20
0.244534
11
1.03507
21
0.244506
0
LINE
8
BLACK
6
CONTINUOUS
10
1.03507
20
0.244506
11
1.03694
21
0.242632
0
LINE
8
BLACK
6
CONTINUOUS
10
1.03694
20
0.242632
11
1.03745
21
0.241909
0
LINE
8
BLACK
6
CONTINUOUS
10
1.03745
20
0.241909
11
1.03749
21
0.241864
0
LINE
8
BLACK
6
CONTINUOUS
10
1.03749
20
0.241864
11
1.03937
21
0.238115
0
LINE
8
BLACK
6
CONTINUOUS
10
1.03937
20
0.238115
11
1.03966
21
0.237132
0
LINE
8
BLACK
6
CONTINUOUS
10
1.03966
20
0.237132
11
1.03962
21
0.23696
0
LINE
8
BLACK
6
CONTINUOUS
10
1.03962
20
0.23696
11
1.03968
21
0.236794
0
LINE
8
BLACK
6
CONTINUOUS
10
1.03968
20
0.236794
11
1.03968
21
0.225546
0
LINE
8
BLACK
6
CONTINUOUS
10
1.03968
20
0.225546
11
1.0395
21
0.224536
0
LINE
8
BLACK
6
CONTINUOUS
10
1.0395
20
0.224536
11
1.03939
21
0.2244
0
LINE
8
BLACK
6
CONTINUOUS
10
1.03939
20
0.2244
11
1.03937
21
0.224225
0
LINE
8
BLACK
6
CONTINUOUS
10
1.03937
20
0.224225
11
1.03749
21
0.220476
0
LINE
8
BLACK
6
CONTINUOUS
10
1.03749
20
0.220476
11
1.03697
21
0.219766
0
LINE
8
BLACK
6
CONTINUOUS
10
1.03697
20
0.219766
11
1.03694
21
0.219708
0
LINE
8
BLACK
6
CONTINUOUS
10
1.03694
20
0.219708
11
1.03507
21
0.217833
0
LINE
8
BLACK
6
CONTINUOUS
10
1.03507
20
0.217833
11
1.03434
21
0.217327
0
LINE
8
BLACK
6
CONTINUOUS
10
1.03434
20
0.217327
11
1.0343
21
0.21728
0
LINE
8
BLACK
6
CONTINUOUS
10
1.0343
20
0.21728
11
1.03055
21
0.215405
0
LINE
8
BLACK
6
CONTINUOUS
10
1.03055
20
0.215405
11
1.02957
21
0.215113
0
LINE
8
BLACK
6
CONTINUOUS
10
1.02957
20
0.215113
11
1.02939
21
0.215154
0
LINE
8
BLACK
6
CONTINUOUS
10
1.02939
20
0.215154
11
1.02923
21
0.215094
0
LINE
8
BLACK
6
CONTINUOUS
10
1.02923
20
0.215094
11
1.0236
21
0.215094
0
LINE
8
BLACK
6
CONTINUOUS
10
1.0236
20
0.215094
11
1.02259
21
0.215272
0
LINE
8
BLACK
6
CONTINUOUS
10
1.02259
20
0.215272
11
1.02246
21
0.215385
0
LINE
8
BLACK
6
CONTINUOUS
10
1.02246
20
0.215385
11
1.02228
21
0.215405
0
LINE
8
BLACK
6
CONTINUOUS
10
1.02228
20
0.215405
11
1.01853
21
0.21728
0
LINE
8
BLACK
6
CONTINUOUS
10
1.01853
20
0.21728
11
1.01782
21
0.217806
0
LINE
8
BLACK
6
CONTINUOUS
10
1.01782
20
0.217806
11
1.01777
21
0.217833
0
LINE
8
BLACK
6
CONTINUOUS
10
1.01777
20
0.217833
11
1.01589
21
0.219708
0
LINE
8
BLACK
6
CONTINUOUS
10
1.01589
20
0.219708
11
1.01539
21
0.220431
0
LINE
8
BLACK
6
CONTINUOUS
10
1.01539
20
0.220431
11
1.01534
21
0.220476
0
LINE
8
BLACK
6
CONTINUOUS
10
1.01534
20
0.220476
11
1.01346
21
0.224225
0
LINE
8
BLACK
6
CONTINUOUS
10
1.01346
20
0.224225
11
1.01317
21
0.225208
0
LINE
8
BLACK
6
CONTINUOUS
10
1.01317
20
0.225208
11
1.01321
21
0.22538
0
LINE
8
BLACK
6
CONTINUOUS
10
1.01321
20
0.22538
11
1.01315
21
0.225546
0
LINE
8
BLACK
6
CONTINUOUS
10
1.01315
20
0.225546
11
1.01315
21
0.236794
0
LINE
8
BLACK
6
CONTINUOUS
10
1.01315
20
0.236794
11
1.01333
21
0.237804
0
LINE
8
BLACK
6
CONTINUOUS
10
1.01333
20
0.237804
11
1.01344
21
0.237939
0
LINE
8
BLACK
6
CONTINUOUS
10
1.01344
20
0.237939
11
1.01346
21
0.238115
0
LINE
8
BLACK
6
CONTINUOUS
10
1.01346
20
0.238115
11
1.01534
21
0.241864
0
LINE
8
BLACK
6
CONTINUOUS
10
1.01534
20
0.241864
11
1.01586
21
0.242573
0
LINE
8
BLACK
6
CONTINUOUS
10
1.01586
20
0.242573
11
1.01589
21
0.242632
0
LINE
8
BLACK
6
CONTINUOUS
10
1.01589
20
0.242632
11
1.01777
21
0.244506
0
LINE
8
BLACK
6
CONTINUOUS
10
1.01777
20
0.244506
11
1.01849
21
0.245013
0
LINE
8
BLACK
6
CONTINUOUS
10
1.01849
20
0.245013
11
1.01853
21
0.245059
0
LINE
8
BLACK
6
CONTINUOUS
10
1.01853
20
0.245059
11
1.02228
21
0.246934
0
LINE
8
BLACK
6
CONTINUOUS
10
1.02228
20
0.246934
11
1.02327
21
0.247227
0
LINE
8
BLACK
6
CONTINUOUS
10
1.02327
20
0.247227
11
1.02344
21
0.247186
0
LINE
8
BLACK
6
CONTINUOUS
10
1.02344
20
0.247186
11
1.0236
21
0.247246
0
LINE
8
BLACK
6
CONTINUOUS
10
1.0236
20
0.247246
11
1.02923
21
0.247246
0
LINE
8
BLACK
6
CONTINUOUS
10
1.02923
20
0.247246
11
1.03024
21
0.247068
0
LINE
8
BLACK
6
CONTINUOUS
10
1.0216
20
0.239992
11
1.02041
21
0.238795
0
LINE
8
BLACK
6
CONTINUOUS
10
1.02041
20
0.238795
11
1.01906
21
0.236097
0
LINE
8
BLACK
6
CONTINUOUS
10
1.01906
20
0.236097
11
1.01906
21
0.226243
0
LINE
8
BLACK
6
CONTINUOUS
10
1.01906
20
0.226243
11
1.02041
21
0.223545
0
LINE
8
BLACK
6
CONTINUOUS
10
1.02041
20
0.223545
11
1.0216
21
0.222348
0
LINE
8
BLACK
6
CONTINUOUS
10
1.0216
20
0.222348
11
1.0243
21
0.220999
0
LINE
8
BLACK
6
CONTINUOUS
10
1.0243
20
0.220999
11
1.02853
21
0.220999
0
LINE
8
BLACK
6
CONTINUOUS
10
1.02853
20
0.220999
11
1.03123
21
0.222348
0
LINE
8
BLACK
6
CONTINUOUS
10
1.03123
20
0.222348
11
1.03243
21
0.223545
0
LINE
8
BLACK
6
CONTINUOUS
10
1.03243
20
0.223545
11
1.03377
21
0.226243
0
LINE
8
BLACK
6
CONTINUOUS
10
1.03377
20
0.226243
11
1.03377
21
0.236097
0
LINE
8
BLACK
6
CONTINUOUS
10
1.03377
20
0.236097
11
1.03243
21
0.238795
0
LINE
8
BLACK
6
CONTINUOUS
10
1.03243
20
0.238795
11
1.03123
21
0.239992
0
LINE
8
BLACK
6
CONTINUOUS
10
1.03123
20
0.239992
11
1.02853
21
0.24134
0
LINE
8
BLACK
6
CONTINUOUS
10
1.02853
20
0.24134
11
1.0243
21
0.24134
0
LINE
8
BLACK
6
CONTINUOUS
10
1.0243
20
0.24134
11
1.0216
21
0.239992
0
LINE
8
BLACK
6
CONTINUOUS
10
0.660286
20
0.259315
11
0.660977
21
0.257417
0
LINE
8
BLACK
6
CONTINUOUS
10
0.660977
20
0.257417
11
0.660977
21
0.218046
0
LINE
8
BLACK
6
CONTINUOUS
10
0.660977
20
0.218046
11
0.660799
21
0.217037
0
LINE
8
BLACK
6
CONTINUOUS
10
0.660799
20
0.217037
11
0.659501
21
0.215489
0
LINE
8
BLACK
6
CONTINUOUS
10
0.659501
20
0.215489
11
0.657512
21
0.215139
0
LINE
8
BLACK
6
CONTINUOUS
10
0.657512
20
0.215139
11
0.655762
21
0.216149
0
LINE
8
BLACK
6
CONTINUOUS
10
0.655762
20
0.216149
11
0.655072
21
0.218046
0
LINE
8
BLACK
6
CONTINUOUS
10
0.655072
20
0.218046
11
0.655072
21
0.235716
0
LINE
8
BLACK
6
CONTINUOUS
10
0.655072
20
0.235716
11
0.63848
21
0.235716
0
LINE
8
BLACK
6
CONTINUOUS
10
0.63848
20
0.235716
11
0.63848
21
0.218046
0
LINE
8
BLACK
6
CONTINUOUS
10
0.63848
20
0.218046
11
0.638302
21
0.217037
0
LINE
8
BLACK
6
CONTINUOUS
10
0.638302
20
0.217037
11
0.637004
21
0.215489
0
LINE
8
BLACK
6
CONTINUOUS
10
0.637004
20
0.215489
11
0.635014
21
0.215139
0
LINE
8
BLACK
6
CONTINUOUS
10
0.635014
20
0.215139
11
0.633265
21
0.216149
0
LINE
8
BLACK
6
CONTINUOUS
10
0.633265
20
0.216149
11
0.632574
21
0.218046
0
LINE
8
BLACK
6
CONTINUOUS
10
0.632574
20
0.218046
11
0.632574
21
0.257417
0
LINE
8
BLACK
6
CONTINUOUS
10
0.632574
20
0.257417
11
0.632752
21
0.258426
0
LINE
8
BLACK
6
CONTINUOUS
10
0.632752
20
0.258426
11
0.634051
21
0.259974
0
LINE
8
BLACK
6
CONTINUOUS
10
0.634051
20
0.259974
11
0.63604
21
0.260324
0
LINE
8
BLACK
6
CONTINUOUS
10
0.63604
20
0.260324
11
0.637789
21
0.259315
0
LINE
8
BLACK
6
CONTINUOUS
10
0.637789
20
0.259315
11
0.63848
21
0.257417
0
LINE
8
BLACK
6
CONTINUOUS
10
0.63848
20
0.257417
11
0.63848
21
0.241622
0
LINE
8
BLACK
6
CONTINUOUS
10
0.63848
20
0.241622
11
0.655072
21
0.241622
0
LINE
8
BLACK
6
CONTINUOUS
10
0.655072
20
0.241622
11
0.655072
21
0.257417
0
LINE
8
BLACK
6
CONTINUOUS
10
0.655072
20
0.257417
11
0.65525
21
0.258426
0
LINE
8
BLACK
6
CONTINUOUS
10
0.65525
20
0.258426
11
0.656548
21
0.259974
0
LINE
8
BLACK
6
CONTINUOUS
10
0.656548
20
0.259974
11
0.658537
21
0.260324
0
LINE
8
BLACK
6
CONTINUOUS
10
0.658537
20
0.260324
11
0.660286
21
0.259315
0
LINE
8
BLACK
6
CONTINUOUS
10
0.800894
20
0.246191
11
0.801585
21
0.244293
0
LINE
8
BLACK
6
CONTINUOUS
10
0.801585
20
0.244293
11
0.801585
21
0.218046
0
LINE
8
BLACK
6
CONTINUOUS
10
0.801585
20
0.218046
11
0.801406
21
0.217037
0
LINE
8
BLACK
6
CONTINUOUS
10
0.801406
20
0.217037
11
0.800108
21
0.215489
0
LINE
8
BLACK
6
CONTINUOUS
10
0.800108
20
0.215489
11
0.798119
21
0.215139
0
LINE
8
BLACK
6
CONTINUOUS
10
0.798119
20
0.215139
11
0.79637
21
0.216149
0
LINE
8
BLACK
6
CONTINUOUS
10
0.79637
20
0.216149
11
0.795679
21
0.218046
0
LINE
8
BLACK
6
CONTINUOUS
10
0.795679
20
0.218046
11
0.795679
21
0.244293
0
LINE
8
BLACK
6
CONTINUOUS
10
0.795679
20
0.244293
11
0.795857
21
0.245303
0
LINE
8
BLACK
6
CONTINUOUS
10
0.795857
20
0.245303
11
0.797155
21
0.24685
0
LINE
8
BLACK
6
CONTINUOUS
10
0.797155
20
0.24685
11
0.799145
21
0.247201
0
LINE
8
BLACK
6
CONTINUOUS
10
0.799145
20
0.247201
11
0.800894
21
0.246191
0
LINE
8
BLACK
6
CONTINUOUS
10
0.829638
20
0.247068
11
0.829773
21
0.246954
0
LINE
8
BLACK
6
CONTINUOUS
10
0.829773
20
0.246954
11
0.829949
21
0.246934
0
LINE
8
BLACK
6
CONTINUOUS
10
0.829949
20
0.246934
11
0.833698
21
0.245059
0
LINE
8
BLACK
6
CONTINUOUS
10
0.833698
20
0.245059
11
0.834522
21
0.244449
0
LINE
8
BLACK
6
CONTINUOUS
10
0.834522
20
0.244449
11
0.834698
21
0.244043
0
LINE
8
BLACK
6
CONTINUOUS
10
0.834698
20
0.244043
11
0.835019
21
0.243739
0
LINE
8
BLACK
6
CONTINUOUS
10
0.835019
20
0.243739
11
0.836893
21
0.239989
0
LINE
8
BLACK
6
CONTINUOUS
10
0.836893
20
0.239989
11
0.837186
21
0.239007
0
LINE
8
BLACK
6
CONTINUOUS
10
0.837186
20
0.239007
11
0.837145
21
0.238835
0
LINE
8
BLACK
6
CONTINUOUS
10
0.837145
20
0.238835
11
0.837205
21
0.238669
0
LINE
8
BLACK
6
CONTINUOUS
10
0.837205
20
0.238669
11
0.837205
21
0.218046
0
LINE
8
BLACK
6
CONTINUOUS
10
0.837205
20
0.218046
11
0.837027
21
0.217037
0
LINE
8
BLACK
6
CONTINUOUS
10
0.837027
20
0.217037
11
0.835729
21
0.215489
0
LINE
8
BLACK
6
CONTINUOUS
10
0.835729
20
0.215489
11
0.83374
21
0.215139
0
LINE
8
BLACK
6
CONTINUOUS
10
0.83374
20
0.215139
11
0.83199
21
0.216149
0
LINE
8
BLACK
6
CONTINUOUS
10
0.83199
20
0.216149
11
0.8313
21
0.218046
0
LINE
8
BLACK
6
CONTINUOUS
10
0.8313
20
0.218046
11
0.8313
21
0.237972
0
LINE
8
BLACK
6
CONTINUOUS
10
0.8313
20
0.237972
11
0.830177
21
0.240218
0
LINE
8
BLACK
6
CONTINUOUS
10
0.830177
20
0.240218
11
0.827931
21
0.24134
0
LINE
8
BLACK
6
CONTINUOUS
10
0.827931
20
0.24134
11
0.823701
21
0.24134
0
LINE
8
BLACK
6
CONTINUOUS
10
0.823701
20
0.24134
11
0.821003
21
0.239992
0
LINE
8
BLACK
6
CONTINUOUS
10
0.821003
20
0.239992
11
0.820332
21
0.239321
0
LINE
8
BLACK
6
CONTINUOUS
10
0.820332
20
0.239321
11
0.820332
21
0.218046
0
LINE
8
BLACK
6
CONTINUOUS
10
0.820332
20
0.218046
11
0.820154
21
0.217037
0
LINE
8
BLACK
6
CONTINUOUS
10
0.820154
20
0.217037
11
0.818856
21
0.215489
0
LINE
8
BLACK
6
CONTINUOUS
10
0.818856
20
0.215489
11
0.816867
21
0.215139
0
LINE
8
BLACK
6
CONTINUOUS
10
0.816867
20
0.215139
11
0.815118
21
0.216149
0
LINE
8
BLACK
6
CONTINUOUS
10
0.815118
20
0.216149
11
0.814427
21
0.218046
0
LINE
8
BLACK
6
CONTINUOUS
10
0.814427
20
0.218046
11
0.814427
21
0.244293
0
LINE
8
BLACK
6
CONTINUOUS
10
0.814427
20
0.244293
11
0.814605
21
0.245303
0
LINE
8
BLACK
6
CONTINUOUS
10
0.814605
20
0.245303
11
0.815903
21
0.24685
0
LINE
8
BLACK
6
CONTINUOUS
10
0.815903
20
0.24685
11
0.817892
21
0.247201
0
LINE
8
BLACK
6
CONTINUOUS
10
0.817892
20
0.247201
11
0.819641
21
0.246191
0
LINE
8
BLACK
6
CONTINUOUS
10
0.819641
20
0.246191
11
0.819727
21
0.245956
0
LINE
8
BLACK
6
CONTINUOUS
10
0.819727
20
0.245956
11
0.821683
21
0.246934
0
LINE
8
BLACK
6
CONTINUOUS
10
0.821683
20
0.246934
11
0.822666
21
0.247227
0
LINE
8
BLACK
6
CONTINUOUS
10
0.822666
20
0.247227
11
0.822838
21
0.247186
0
LINE
8
BLACK
6
CONTINUOUS
10
0.822838
20
0.247186
11
0.823004
21
0.247246
0
LINE
8
BLACK
6
CONTINUOUS
10
0.823004
20
0.247246
11
0.828628
21
0.247246
0
LINE
8
BLACK
6
CONTINUOUS
10
0.828628
20
0.247246
11
0.829638
21
0.247068
0
LINE
8
BLACK
6
CONTINUOUS
10
1.00149
20
0.246191
11
1.00218
21
0.244293
0
LINE
8
BLACK
6
CONTINUOUS
10
1.00218
20
0.244293
11
1.00218
21
0.218046
0
LINE
8
BLACK
6
CONTINUOUS
10
1.00218
20
0.218046
11
1.00201
21
0.217037
0
LINE
8
BLACK
6
CONTINUOUS
10
1.00201
20
0.217037
11
1.00071
21
0.215489
0
LINE
8
BLACK
6
CONTINUOUS
10
1.00071
20
0.215489
11
0.998719
21
0.215139
0
LINE
8
BLACK
6
CONTINUOUS
10
0.998719
20
0.215139
11
0.99697
21
0.216149
0
LINE
8
BLACK
6
CONTINUOUS
10
0.99697
20
0.216149
11
0.996279
21
0.218046
0
LINE
8
BLACK
6
CONTINUOUS
10
0.996279
20
0.218046
11
0.996279
21
0.244293
0
LINE
8
BLACK
6
CONTINUOUS
10
0.996279
20
0.244293
11
0.996457
21
0.245303
0
LINE
8
BLACK
6
CONTINUOUS
10
0.996457
20
0.245303
11
0.997755
21
0.24685
0
LINE
8
BLACK
6
CONTINUOUS
10
0.997755
20
0.24685
11
0.999745
21
0.247201
0
LINE
8
BLACK
6
CONTINUOUS
10
0.999745
20
0.247201
11
1.00149
21
0.246191
0
LINE
8
BLACK
6
CONTINUOUS
10
1.06586
20
0.247068
11
1.06599
21
0.246954
0
LINE
8
BLACK
6
CONTINUOUS
10
1.06599
20
0.246954
11
1.06617
21
0.246934
0
LINE
8
BLACK
6
CONTINUOUS
10
1.06617
20
0.246934
11
1.06992
21
0.245059
0
LINE
8
BLACK
6
CONTINUOUS
10
1.06992
20
0.245059
11
1.07074
21
0.244449
0
LINE
8
BLACK
6
CONTINUOUS
10
1.07074
20
0.244449
11
1.07092
21
0.244043
0
LINE
8
BLACK
6
CONTINUOUS
10
1.07092
20
0.244043
11
1.07124
21
0.243739
0
LINE
8
BLACK
6
CONTINUOUS
10
1.07124
20
0.243739
11
1.07311
21
0.239989
0
LINE
8
BLACK
6
CONTINUOUS
10
1.07311
20
0.239989
11
1.07341
21
0.239007
0
LINE
8
BLACK
6
CONTINUOUS
10
1.07341
20
0.239007
11
1.07337
21
0.238835
0
LINE
8
BLACK
6
CONTINUOUS
10
1.07337
20
0.238835
11
1.07343
21
0.238669
0
LINE
8
BLACK
6
CONTINUOUS
10
1.07343
20
0.238669
11
1.07343
21
0.218046
0
LINE
8
BLACK
6
CONTINUOUS
10
1.07343
20
0.218046
11
1.07325
21
0.217037
0
LINE
8
BLACK
6
CONTINUOUS
10
1.07325
20
0.217037
11
1.07195
21
0.215489
0
LINE
8
BLACK
6
CONTINUOUS
10
1.07195
20
0.215489
11
1.06996
21
0.215139
0
LINE
8
BLACK
6
CONTINUOUS
10
1.06996
20
0.215139
11
1.06821
21
0.216149
0
LINE
8
BLACK
6
CONTINUOUS
10
1.06821
20
0.216149
11
1.06752
21
0.218046
0
LINE
8
BLACK
6
CONTINUOUS
10
1.06752
20
0.218046
11
1.06752
21
0.237972
0
LINE
8
BLACK
6
CONTINUOUS
10
1.06752
20
0.237972
11
1.0664
21
0.240218
0
LINE
8
BLACK
6
CONTINUOUS
10
1.0664
20
0.240218
11
1.06415
21
0.24134
0
LINE
8
BLACK
6
CONTINUOUS
10
1.06415
20
0.24134
11
1.05992
21
0.24134
0
LINE
8
BLACK
6
CONTINUOUS
10
1.05992
20
0.24134
11
1.05722
21
0.239992
0
LINE
8
BLACK
6
CONTINUOUS
10
1.05722
20
0.239992
11
1.05655
21
0.239321
0
LINE
8
BLACK
6
CONTINUOUS
10
1.05655
20
0.239321
11
1.05655
21
0.218046
0
LINE
8
BLACK
6
CONTINUOUS
10
1.05655
20
0.218046
11
1.05637
21
0.217037
0
LINE
8
BLACK
6
CONTINUOUS
10
1.05637
20
0.217037
11
1.05508
21
0.215489
0
LINE
8
BLACK
6
CONTINUOUS
10
1.05508
20
0.215489
11
1.05309
21
0.215139
0
LINE
8
BLACK
6
CONTINUOUS
10
1.05309
20
0.215139
11
1.05134
21
0.216149
0
LINE
8
BLACK
6
CONTINUOUS
10
1.05134
20
0.216149
11
1.05065
21
0.218046
0
LINE
8
BLACK
6
CONTINUOUS
10
1.05065
20
0.218046
11
1.05065
21
0.244293
0
LINE
8
BLACK
6
CONTINUOUS
10
1.05065
20
0.244293
11
1.05083
21
0.245303
0
LINE
8
BLACK
6
CONTINUOUS
10
1.05083
20
0.245303
11
1.05212
21
0.24685
0
LINE
8
BLACK
6
CONTINUOUS
10
1.05212
20
0.24685
11
1.05411
21
0.247201
0
LINE
8
BLACK
6
CONTINUOUS
10
1.05411
20
0.247201
11
1.05586
21
0.246191
0
LINE
8
BLACK
6
CONTINUOUS
10
1.05586
20
0.246191
11
1.05595
21
0.245956
0
LINE
8
BLACK
6
CONTINUOUS
10
1.05595
20
0.245956
11
1.0579
21
0.246934
0
LINE
8
BLACK
6
CONTINUOUS
10
1.0579
20
0.246934
11
1.05889
21
0.247227
0
LINE
8
BLACK
6
CONTINUOUS
10
1.05889
20
0.247227
11
1.05906
21
0.247186
0
LINE
8
BLACK
6
CONTINUOUS
10
1.05906
20
0.247186
11
1.05922
21
0.247246
0
LINE
8
BLACK
6
CONTINUOUS
10
1.05922
20
0.247246
11
1.06485
21
0.247246
0
LINE
8
BLACK
6
CONTINUOUS
10
1.06485
20
0.247246
11
1.06586
21
0.247068
0
LINE
8
BLACK
6
CONTINUOUS
10
0.922754
20
0.259315
11
0.923444
21
0.257417
0
LINE
8
BLACK
6
CONTINUOUS
10
0.923444
20
0.257417
11
0.923444
21
0.224368
0
LINE
8
BLACK
6
CONTINUOUS
10
0.923444
20
0.224368
11
0.924567
21
0.222122
0
LINE
8
BLACK
6
CONTINUOUS
10
0.924567
20
0.222122
11
0.927436
21
0.220688
0
LINE
8
BLACK
6
CONTINUOUS
10
0.927436
20
0.220688
11
0.92826
21
0.220077
0
LINE
8
BLACK
6
CONTINUOUS
10
0.92826
20
0.220077
11
0.929063
21
0.218223
0
LINE
8
BLACK
6
CONTINUOUS
10
0.929063
20
0.218223
11
0.928487
21
0.216287
0
LINE
8
BLACK
6
CONTINUOUS
10
0.928487
20
0.216287
11
0.926802
21
0.215175
0
LINE
8
BLACK
6
CONTINUOUS
10
0.926802
20
0.215175
11
0.924795
21
0.215405
0
LINE
8
BLACK
6
CONTINUOUS
10
0.924795
20
0.215405
11
0.921046
21
0.21728
0
LINE
8
BLACK
6
CONTINUOUS
10
0.921046
20
0.21728
11
0.920222
21
0.217891
0
LINE
8
BLACK
6
CONTINUOUS
10
0.920222
20
0.217891
11
0.920046
21
0.218297
0
LINE
8
BLACK
6
CONTINUOUS
10
0.920046
20
0.218297
11
0.919725
21
0.218601
0
LINE
8
BLACK
6
CONTINUOUS
10
0.919725
20
0.218601
11
0.917851
21
0.22235
0
LINE
8
BLACK
6
CONTINUOUS
10
0.917851
20
0.22235
11
0.917558
21
0.223333
0
LINE
8
BLACK
6
CONTINUOUS
10
0.917558
20
0.223333
11
0.917599
21
0.223505
0
LINE
8
BLACK
6
CONTINUOUS
10
0.917599
20
0.223505
11
0.917539
21
0.223671
0
LINE
8
BLACK
6
CONTINUOUS
10
0.917539
20
0.223671
11
0.917539
21
0.257417
0
LINE
8
BLACK
6
CONTINUOUS
10
0.917539
20
0.257417
11
0.917717
21
0.258426
0
LINE
8
BLACK
6
CONTINUOUS
10
0.917717
20
0.258426
11
0.919015
21
0.259974
0
LINE
8
BLACK
6
CONTINUOUS
10
0.919015
20
0.259974
11
0.921004
21
0.260324
0
LINE
8
BLACK
6
CONTINUOUS
10
0.921004
20
0.260324
11
0.922754
21
0.259315
0
LINE
8
BLACK
6
CONTINUOUS
10
0.799011
20
0.260301
11
0.799145
21
0.260324
0
LINE
8
BLACK
6
CONTINUOUS
10
0.799145
20
0.260324
11
0.799262
21
0.260257
0
LINE
8
BLACK
6
CONTINUOUS
10
0.799262
20
0.260257
11
0.799396
21
0.260269
0
LINE
8
BLACK
6
CONTINUOUS
10
0.799396
20
0.260269
11
0.800024
21
0.259829
0
LINE
8
BLACK
6
CONTINUOUS
10
0.800024
20
0.259829
11
0.80072
21
0.259504
0
LINE
8
BLACK
6
CONTINUOUS
10
0.80072
20
0.259504
11
0.802594
21
0.25763
0
LINE
8
BLACK
6
CONTINUOUS
10
0.802594
20
0.25763
11
0.802818
21
0.257311
0
LINE
8
BLACK
6
CONTINUOUS
10
0.802818
20
0.257311
11
0.802925
21
0.257235
0
LINE
8
BLACK
6
CONTINUOUS
10
0.802925
20
0.257235
11
0.802959
21
0.257109
0
LINE
8
BLACK
6
CONTINUOUS
10
0.802959
20
0.257109
11
0.803183
21
0.25679
0
LINE
8
BLACK
6
CONTINUOUS
10
0.803183
20
0.25679
11
0.80325
21
0.256025
0
LINE
8
BLACK
6
CONTINUOUS
10
0.80325
20
0.256025
11
0.803448
21
0.255284
0
LINE
8
BLACK
6
CONTINUOUS
10
0.803448
20
0.255284
11
0.803335
21
0.255043
0
LINE
8
BLACK
6
CONTINUOUS
10
0.803335
20
0.255043
11
0.803359
21
0.254778
0
LINE
8
BLACK
6
CONTINUOUS
10
0.803359
20
0.254778
11
0.802919
21
0.254149
0
LINE
8
BLACK
6
CONTINUOUS
10
0.802919
20
0.254149
11
0.802594
21
0.253454
0
LINE
8
BLACK
6
CONTINUOUS
10
0.802594
20
0.253454
11
0.80072
21
0.251579
0
LINE
8
BLACK
6
CONTINUOUS
10
0.80072
20
0.251579
11
0.800401
21
0.251356
0
LINE
8
BLACK
6
CONTINUOUS
10
0.800401
20
0.251356
11
0.800325
21
0.251248
0
LINE
8
BLACK
6
CONTINUOUS
10
0.800325
20
0.251248
11
0.800199
21
0.251214
0
LINE
8
BLACK
6
CONTINUOUS
10
0.800199
20
0.251214
11
0.800192
21
0.251209
0
LINE
8
BLACK
6
CONTINUOUS
10
0.800192
20
0.251209
11
0.800108
21
0.25111
0
LINE
8
BLACK
6
CONTINUOUS
10
0.800108
20
0.25111
11
0.80003
21
0.251096
0
LINE
8
BLACK
6
CONTINUOUS
10
0.80003
20
0.251096
11
0.79988
21
0.250991
0
LINE
8
BLACK
6
CONTINUOUS
10
0.79988
20
0.250991
11
0.799115
21
0.250924
0
LINE
8
BLACK
6
CONTINUOUS
10
0.799115
20
0.250924
11
0.798374
21
0.250726
0
LINE
8
BLACK
6
CONTINUOUS
10
0.798374
20
0.250726
11
0.798252
21
0.250783
0
LINE
8
BLACK
6
CONTINUOUS
10
0.798252
20
0.250783
11
0.798119
21
0.250759
0
LINE
8
BLACK
6
CONTINUOUS
10
0.798119
20
0.250759
11
0.798002
21
0.250827
0
LINE
8
BLACK
6
CONTINUOUS
10
0.798002
20
0.250827
11
0.797868
21
0.250815
0
LINE
8
BLACK
6
CONTINUOUS
10
0.797868
20
0.250815
11
0.797239
21
0.251255
0
LINE
8
BLACK
6
CONTINUOUS
10
0.797239
20
0.251255
11
0.796544
21
0.251579
0
LINE
8
BLACK
6
CONTINUOUS
10
0.796544
20
0.251579
11
0.794669
21
0.253454
0
LINE
8
BLACK
6
CONTINUOUS
10
0.794669
20
0.253454
11
0.794446
21
0.253773
0
LINE
8
BLACK
6
CONTINUOUS
10
0.794446
20
0.253773
11
0.794338
21
0.253848
0
LINE
8
BLACK
6
CONTINUOUS
10
0.794338
20
0.253848
11
0.794304
21
0.253975
0
LINE
8
BLACK
6
CONTINUOUS
10
0.794304
20
0.253975
11
0.794081
21
0.254294
0
LINE
8
BLACK
6
CONTINUOUS
10
0.794081
20
0.254294
11
0.794014
21
0.255058
0
LINE
8
BLACK
6
CONTINUOUS
10
0.794014
20
0.255058
11
0.793816
21
0.255799
0
LINE
8
BLACK
6
CONTINUOUS
10
0.793816
20
0.255799
11
0.793928
21
0.256041
0
LINE
8
BLACK
6
CONTINUOUS
10
0.793928
20
0.256041
11
0.793905
21
0.256306
0
LINE
8
BLACK
6
CONTINUOUS
10
0.793905
20
0.256306
11
0.794345
21
0.256935
0
LINE
8
BLACK
6
CONTINUOUS
10
0.794345
20
0.256935
11
0.794669
21
0.25763
0
LINE
8
BLACK
6
CONTINUOUS
10
0.794669
20
0.25763
11
0.796544
21
0.259504
0
LINE
8
BLACK
6
CONTINUOUS
10
0.796544
20
0.259504
11
0.796863
21
0.259728
0
LINE
8
BLACK
6
CONTINUOUS
10
0.796863
20
0.259728
11
0.796938
21
0.259835
0
LINE
8
BLACK
6
CONTINUOUS
10
0.796938
20
0.259835
11
0.797065
21
0.259869
0
LINE
8
BLACK
6
CONTINUOUS
10
0.797065
20
0.259869
11
0.797072
21
0.259874
0
LINE
8
BLACK
6
CONTINUOUS
10
0.797072
20
0.259874
11
0.797155
21
0.259974
0
LINE
8
BLACK
6
CONTINUOUS
10
0.797155
20
0.259974
11
0.797234
21
0.259988
0
LINE
8
BLACK
6
CONTINUOUS
10
0.797234
20
0.259988
11
0.797384
21
0.260093
0
LINE
8
BLACK
6
CONTINUOUS
10
0.797384
20
0.260093
11
0.798148
21
0.26016
0
LINE
8
BLACK
6
CONTINUOUS
10
0.798148
20
0.26016
11
0.798889
21
0.260358
0
LINE
8
BLACK
6
CONTINUOUS
10
0.798889
20
0.260358
11
0.799011
21
0.260301
0
LINE
8
BLACK
6
CONTINUOUS
10
0.999611
20
0.260301
11
0.999745
21
0.260324
0
LINE
8
BLACK
6
CONTINUOUS
10
0.999745
20
0.260324
11
0.999861
21
0.260257
0
LINE
8
BLACK
6
CONTINUOUS
10
0.999861
20
0.260257
11
0.999996
21
0.260269
0
LINE
8
BLACK
6
CONTINUOUS
10
0.999996
20
0.260269
11
1.00062
21
0.259829
0
LINE
8
BLACK
6
CONTINUOUS
10
1.00062
20
0.259829
11
1.00132
21
0.259504
0
LINE
8
BLACK
6
CONTINUOUS
10
1.00132
20
0.259504
11
1.00319
21
0.25763
0
LINE
8
BLACK
6
CONTINUOUS
10
1.00319
20
0.25763
11
1.00342
21
0.257311
0
LINE
8
BLACK
6
CONTINUOUS
10
1.00342
20
0.257311
11
1.00353
21
0.257235
0
LINE
8
BLACK
6
CONTINUOUS
10
1.00353
20
0.257235
11
1.00356
21
0.257109
0
LINE
8
BLACK
6
CONTINUOUS
10
1.00356
20
0.257109
11
1.00378
21
0.25679
0
LINE
8
BLACK
6
CONTINUOUS
10
1.00378
20
0.25679
11
1.00385
21
0.256025
0
LINE
8
BLACK
6
CONTINUOUS
10
1.00385
20
0.256025
11
1.00405
21
0.255284
0
LINE
8
BLACK
6
CONTINUOUS
10
1.00405
20
0.255284
11
1.00394
21
0.255043
0
LINE
8
BLACK
6
CONTINUOUS
10
1.00394
20
0.255043
11
1.00396
21
0.254778
0
LINE
8
BLACK
6
CONTINUOUS
10
1.00396
20
0.254778
11
1.00352
21
0.254149
0
LINE
8
BLACK
6
CONTINUOUS
10
1.00352
20
0.254149
11
1.00319
21
0.253454
0
LINE
8
BLACK
6
CONTINUOUS
10
1.00319
20
0.253454
11
1.00132
21
0.251579
0
LINE
8
BLACK
6
CONTINUOUS
10
1.00132
20
0.251579
11
1.001
21
0.251356
0
LINE
8
BLACK
6
CONTINUOUS
10
1.001
20
0.251356
11
1.00093
21
0.251248
0
LINE
8
BLACK
6
CONTINUOUS
10
1.00093
20
0.251248
11
1.0008
21
0.251214
0
LINE
8
BLACK
6
CONTINUOUS
10
1.0008
20
0.251214
11
1.00079
21
0.251209
0
LINE
8
BLACK
6
CONTINUOUS
10
1.00079
20
0.251209
11
1.00071
21
0.25111
0
LINE
8
BLACK
6
CONTINUOUS
10
1.00071
20
0.25111
11
1.00063
21
0.251096
0
LINE
8
BLACK
6
CONTINUOUS
10
1.00063
20
0.251096
11
1.00048
21
0.250991
0
LINE
8
BLACK
6
CONTINUOUS
10
1.00048
20
0.250991
11
0.999715
21
0.250924
0
LINE
8
BLACK
6
CONTINUOUS
10
0.999715
20
0.250924
11
0.998974
21
0.250726
0
LINE
8
BLACK
6
CONTINUOUS
10
0.998974
20
0.250726
11
0.998852
21
0.250783
0
LINE
8
BLACK
6
CONTINUOUS
10
0.998852
20
0.250783
11
0.998719
21
0.250759
0
LINE
8
BLACK
6
CONTINUOUS
10
0.998719
20
0.250759
11
0.998602
21
0.250827
0
LINE
8
BLACK
6
CONTINUOUS
10
0.998602
20
0.250827
11
0.998468
21
0.250815
0
LINE
8
BLACK
6
CONTINUOUS
10
0.998468
20
0.250815
11
0.997839
21
0.251255
0
LINE
8
BLACK
6
CONTINUOUS
10
0.997839
20
0.251255
11
0.997144
21
0.251579
0
LINE
8
BLACK
6
CONTINUOUS
10
0.997144
20
0.251579
11
0.995269
21
0.253454
0
LINE
8
BLACK
6
CONTINUOUS
10
0.995269
20
0.253454
11
0.995046
21
0.253773
0
LINE
8
BLACK
6
CONTINUOUS
10
0.995046
20
0.253773
11
0.994938
21
0.253848
0
LINE
8
BLACK
6
CONTINUOUS
10
0.994938
20
0.253848
11
0.994904
21
0.253975
0
LINE
8
BLACK
6
CONTINUOUS
10
0.994904
20
0.253975
11
0.994681
21
0.254294
0
LINE
8
BLACK
6
CONTINUOUS
10
0.994681
20
0.254294
11
0.994614
21
0.255058
0
LINE
8
BLACK
6
CONTINUOUS
10
0.994614
20
0.255058
11
0.994416
21
0.255799
0
LINE
8
BLACK
6
CONTINUOUS
10
0.994416
20
0.255799
11
0.994528
21
0.256041
0
LINE
8
BLACK
6
CONTINUOUS
10
0.994528
20
0.256041
11
0.994505
21
0.256306
0
LINE
8
BLACK
6
CONTINUOUS
10
0.994505
20
0.256306
11
0.994945
21
0.256935
0
LINE
8
BLACK
6
CONTINUOUS
10
0.994945
20
0.256935
11
0.995269
21
0.25763
0
LINE
8
BLACK
6
CONTINUOUS
10
0.995269
20
0.25763
11
0.997144
21
0.259504
0
LINE
8
BLACK
6
CONTINUOUS
10
0.997144
20
0.259504
11
0.997463
21
0.259728
0
LINE
8
BLACK
6
CONTINUOUS
10
0.997463
20
0.259728
11
0.997538
21
0.259835
0
LINE
8
BLACK
6
CONTINUOUS
10
0.997538
20
0.259835
11
0.997665
21
0.259869
0
LINE
8
BLACK
6
CONTINUOUS
10
0.997665
20
0.259869
11
0.997672
21
0.259874
0
LINE
8
BLACK
6
CONTINUOUS
10
0.997672
20
0.259874
11
0.997755
21
0.259974
0
LINE
8
BLACK
6
CONTINUOUS
10
0.997755
20
0.259974
11
0.997834
21
0.259988
0
LINE
8
BLACK
6
CONTINUOUS
10
0.997834
20
0.259988
11
0.997984
21
0.260093
0
LINE
8
BLACK
6
CONTINUOUS
10
0.997984
20
0.260093
11
0.998748
21
0.26016
0
LINE
8
BLACK
6
CONTINUOUS
10
0.998748
20
0.26016
11
0.999489
21
0.260358
0
LINE
8
BLACK
6
CONTINUOUS
10
0.999489
20
0.260358
11
0.999611
21
0.260301
0
LINE
8
BLACK
6
CONTINUOUS
10
0.687031
20
0.347068
11
0.687166
21
0.346954
0
LINE
8
BLACK
6
CONTINUOUS
10
0.687166
20
0.346954
11
0.687341
21
0.346934
0
LINE
8
BLACK
6
CONTINUOUS
10
0.687341
20
0.346934
11
0.691091
21
0.345059
0
LINE
8
BLACK
6
CONTINUOUS
10
0.691091
20
0.345059
11
0.691914
21
0.344449
0
LINE
8
BLACK
6
CONTINUOUS
10
0.691914
20
0.344449
11
0.69209
21
0.344043
0
LINE
8
BLACK
6
CONTINUOUS
10
0.69209
20
0.344043
11
0.692411
21
0.343739
0
LINE
8
BLACK
6
CONTINUOUS
10
0.692411
20
0.343739
11
0.694286
21
0.339989
0
LINE
8
BLACK
6
CONTINUOUS
10
0.694286
20
0.339989
11
0.694578
21
0.339007
0
LINE
8
BLACK
6
CONTINUOUS
10
0.694578
20
0.339007
11
0.694537
21
0.338835
0
LINE
8
BLACK
6
CONTINUOUS
10
0.694537
20
0.338835
11
0.694598
21
0.338669
0
LINE
8
BLACK
6
CONTINUOUS
10
0.694598
20
0.338669
11
0.694598
21
0.334919
0
LINE
8
BLACK
6
CONTINUOUS
10
0.694598
20
0.334919
11
0.69442
21
0.333909
0
LINE
8
BLACK
6
CONTINUOUS
10
0.69442
20
0.333909
11
0.694106
21
0.333536
0
LINE
8
BLACK
6
CONTINUOUS
10
0.694106
20
0.333536
11
0.69395
21
0.333074
0
LINE
8
BLACK
6
CONTINUOUS
10
0.69395
20
0.333074
11
0.693477
21
0.332786
0
LINE
8
BLACK
6
CONTINUOUS
10
0.693477
20
0.332786
11
0.693121
21
0.332362
0
LINE
8
BLACK
6
CONTINUOUS
10
0.693121
20
0.332362
11
0.692641
21
0.332278
0
LINE
8
BLACK
6
CONTINUOUS
10
0.692641
20
0.332278
11
0.692224
21
0.332024
0
LINE
8
BLACK
6
CONTINUOUS
10
0.692224
20
0.332024
11
0.67585
21
0.328749
0
LINE
8
BLACK
6
CONTINUOUS
10
0.67585
20
0.328749
11
0.67585
21
0.324368
0
LINE
8
BLACK
6
CONTINUOUS
10
0.67585
20
0.324368
11
0.676973
21
0.322122
0
LINE
8
BLACK
6
CONTINUOUS
10
0.676973
20
0.322122
11
0.679219
21
0.320999
0
LINE
8
BLACK
6
CONTINUOUS
10
0.679219
20
0.320999
11
0.685324
21
0.320999
0
LINE
8
BLACK
6
CONTINUOUS
10
0.685324
20
0.320999
11
0.68845
21
0.322562
0
LINE
8
BLACK
6
CONTINUOUS
10
0.68845
20
0.322562
11
0.689433
21
0.322855
0
LINE
8
BLACK
6
CONTINUOUS
10
0.689433
20
0.322855
11
0.691397
21
0.322385
0
LINE
8
BLACK
6
CONTINUOUS
10
0.691397
20
0.322385
11
0.6926
21
0.320763
0
LINE
8
BLACK
6
CONTINUOUS
10
0.6926
20
0.320763
11
0.692479
21
0.318747
0
LINE
8
BLACK
6
CONTINUOUS
10
0.692479
20
0.318747
11
0.691091
21
0.31728
0
LINE
8
BLACK
6
CONTINUOUS
10
0.691091
20
0.31728
11
0.687341
21
0.315405
0
LINE
8
BLACK
6
CONTINUOUS
10
0.687341
20
0.315405
11
0.686358
21
0.315113
0
LINE
8
BLACK
6
CONTINUOUS
10
0.686358
20
0.315113
11
0.686186
21
0.315154
0
LINE
8
BLACK
6
CONTINUOUS
10
0.686186
20
0.315154
11
0.686021
21
0.315094
0
LINE
8
BLACK
6
CONTINUOUS
10
0.686021
20
0.315094
11
0.678522
21
0.315094
0
LINE
8
BLACK
6
CONTINUOUS
10
0.678522
20
0.315094
11
0.677512
21
0.315272
0
LINE
8
BLACK
6
CONTINUOUS
10
0.677512
20
0.315272
11
0.677376
21
0.315385
0
LINE
8
BLACK
6
CONTINUOUS
10
0.677376
20
0.315385
11
0.677201
21
0.315405
0
LINE
8
BLACK
6
CONTINUOUS
10
0.677201
20
0.315405
11
0.673451
21
0.31728
0
LINE
8
BLACK
6
CONTINUOUS
10
0.673451
20
0.31728
11
0.672628
21
0.317891
0
LINE
8
BLACK
6
CONTINUOUS
10
0.672628
20
0.317891
11
0.672452
21
0.318297
0
LINE
8
BLACK
6
CONTINUOUS
10
0.672452
20
0.318297
11
0.672131
21
0.318601
0
LINE
8
BLACK
6
CONTINUOUS
10
0.672131
20
0.318601
11
0.670256
21
0.32235
0
LINE
8
BLACK
6
CONTINUOUS
10
0.670256
20
0.32235
11
0.669964
21
0.323333
0
LINE
8
BLACK
6
CONTINUOUS
10
0.669964
20
0.323333
11
0.670005
21
0.323505
0
LINE
8
BLACK
6
CONTINUOUS
10
0.670005
20
0.323505
11
0.669944
21
0.323671
0
LINE
8
BLACK
6
CONTINUOUS
10
0.669944
20
0.323671
11
0.669944
21
0.338669
0
LINE
8
BLACK
6
CONTINUOUS
10
0.669944
20
0.338669
11
0.670123
21
0.339679
0
LINE
8
BLACK
6
CONTINUOUS
10
0.670123
20
0.339679
11
0.670236
21
0.339814
0
LINE
8
BLACK
6
CONTINUOUS
10
0.670236
20
0.339814
11
0.670256
21
0.339989
0
LINE
8
BLACK
6
CONTINUOUS
10
0.670256
20
0.339989
11
0.672131
21
0.343739
0
LINE
8
BLACK
6
CONTINUOUS
10
0.672131
20
0.343739
11
0.672742
21
0.344563
0
LINE
8
BLACK
6
CONTINUOUS
10
0.672742
20
0.344563
11
0.673148
21
0.344739
0
LINE
8
BLACK
6
CONTINUOUS
10
0.673148
20
0.344739
11
0.673451
21
0.345059
0
LINE
8
BLACK
6
CONTINUOUS
10
0.673451
20
0.345059
11
0.677201
21
0.346934
0
LINE
8
BLACK
6
CONTINUOUS
10
0.677201
20
0.346934
11
0.678184
21
0.347227
0
LINE
8
BLACK
6
CONTINUOUS
10
0.678184
20
0.347227
11
0.678356
21
0.347186
0
LINE
8
BLACK
6
CONTINUOUS
10
0.678356
20
0.347186
11
0.678522
21
0.347246
0
LINE
8
BLACK
6
CONTINUOUS
10
0.678522
20
0.347246
11
0.686021
21
0.347246
0
LINE
8
BLACK
6
CONTINUOUS
10
0.686021
20
0.347246
11
0.687031
21
0.347068
0
LINE
8
BLACK
6
CONTINUOUS
10
0.676973
20
0.340218
11
0.67585
21
0.337972
0
LINE
8
BLACK
6
CONTINUOUS
10
0.67585
20
0.337972
11
0.67585
21
0.334772
0
LINE
8
BLACK
6
CONTINUOUS
10
0.67585
20
0.334772
11
0.688692
21
0.33734
0
LINE
8
BLACK
6
CONTINUOUS
10
0.688692
20
0.33734
11
0.688692
21
0.337972
0
LINE
8
BLACK
6
CONTINUOUS
10
0.688692
20
0.337972
11
0.687569
21
0.340218
0
LINE
8
BLACK
6
CONTINUOUS
10
0.687569
20
0.340218
11
0.685324
21
0.34134
0
LINE
8
BLACK
6
CONTINUOUS
10
0.685324
20
0.34134
11
0.679219
21
0.34134
0
LINE
8
BLACK
6
CONTINUOUS
10
0.679219
20
0.34134
11
0.676973
21
0.340218
0
LINE
8
BLACK
6
CONTINUOUS
10
0.720776
20
0.347068
11
0.720912
21
0.346954
0
LINE
8
BLACK
6
CONTINUOUS
10
0.720912
20
0.346954
11
0.721087
21
0.346934
0
LINE
8
BLACK
6
CONTINUOUS
10
0.721087
20
0.346934
11
0.724836
21
0.345059
0
LINE
8
BLACK
6
CONTINUOUS
10
0.724836
20
0.345059
11
0.72566
21
0.344449
0
LINE
8
BLACK
6
CONTINUOUS
10
0.72566
20
0.344449
11
0.725836
21
0.344043
0
LINE
8
BLACK
6
CONTINUOUS
10
0.725836
20
0.344043
11
0.726157
21
0.343739
0
LINE
8
BLACK
6
CONTINUOUS
10
0.726157
20
0.343739
11
0.728032
21
0.339989
0
LINE
8
BLACK
6
CONTINUOUS
10
0.728032
20
0.339989
11
0.728324
21
0.339007
0
LINE
8
BLACK
6
CONTINUOUS
10
0.728324
20
0.339007
11
0.728283
21
0.338835
0
LINE
8
BLACK
6
CONTINUOUS
10
0.728283
20
0.338835
11
0.728343
21
0.338669
0
LINE
8
BLACK
6
CONTINUOUS
10
0.728343
20
0.338669
11
0.728343
21
0.318046
0
LINE
8
BLACK
6
CONTINUOUS
10
0.728343
20
0.318046
11
0.728165
21
0.317037
0
LINE
8
BLACK
6
CONTINUOUS
10
0.728165
20
0.317037
11
0.726867
21
0.315489
0
LINE
8
BLACK
6
CONTINUOUS
10
0.726867
20
0.315489
11
0.724878
21
0.315139
0
LINE
8
BLACK
6
CONTINUOUS
10
0.724878
20
0.315139
11
0.723741
21
0.315795
0
LINE
8
BLACK
6
CONTINUOUS
10
0.723741
20
0.315795
11
0.722962
21
0.315405
0
LINE
8
BLACK
6
CONTINUOUS
10
0.722962
20
0.315405
11
0.721979
21
0.315113
0
LINE
8
BLACK
6
CONTINUOUS
10
0.721979
20
0.315113
11
0.721807
21
0.315154
0
LINE
8
BLACK
6
CONTINUOUS
10
0.721807
20
0.315154
11
0.721641
21
0.315094
0
LINE
8
BLACK
6
CONTINUOUS
10
0.721641
20
0.315094
11
0.712267
21
0.315094
0
LINE
8
BLACK
6
CONTINUOUS
10
0.712267
20
0.315094
11
0.711257
21
0.315272
0
LINE
8
BLACK
6
CONTINUOUS
10
0.711257
20
0.315272
11
0.711122
21
0.315385
0
LINE
8
BLACK
6
CONTINUOUS
10
0.711122
20
0.315385
11
0.710947
21
0.315405
0
LINE
8
BLACK
6
CONTINUOUS
10
0.710947
20
0.315405
11
0.707197
21
0.31728
0
LINE
8
BLACK
6
CONTINUOUS
10
0.707197
20
0.31728
11
0.706374
21
0.317891
0
LINE
8
BLACK
6
CONTINUOUS
10
0.706374
20
0.317891
11
0.706198
21
0.318297
0
LINE
8
BLACK
6
CONTINUOUS
10
0.706198
20
0.318297
11
0.705877
21
0.318601
0
LINE
8
BLACK
6
CONTINUOUS
10
0.705877
20
0.318601
11
0.704002
21
0.32235
0
LINE
8
BLACK
6
CONTINUOUS
10
0.704002
20
0.32235
11
0.70371
21
0.323333
0
LINE
8
BLACK
6
CONTINUOUS
10
0.70371
20
0.323333
11
0.703751
21
0.323505
0
LINE
8
BLACK
6
CONTINUOUS
10
0.703751
20
0.323505
11
0.70369
21
0.323671
0
LINE
8
BLACK
6
CONTINUOUS
10
0.70369
20
0.323671
11
0.70369
21
0.32742
0
LINE
8
BLACK
6
CONTINUOUS
10
0.70369
20
0.32742
11
0.703868
21
0.32843
0
LINE
8
BLACK
6
CONTINUOUS
10
0.703868
20
0.32843
11
0.703982
21
0.328566
0
LINE
8
BLACK
6
CONTINUOUS
10
0.703982
20
0.328566
11
0.704002
21
0.328741
0
LINE
8
BLACK
6
CONTINUOUS
10
0.704002
20
0.328741
11
0.705877
21
0.33249
0
LINE
8
BLACK
6
CONTINUOUS
10
0.705877
20
0.33249
11
0.706488
21
0.333314
0
LINE
8
BLACK
6
CONTINUOUS
10
0.706488
20
0.333314
11
0.706893
21
0.33349
0
LINE
8
BLACK
6
CONTINUOUS
10
0.706893
20
0.33349
11
0.707197
21
0.333811
0
LINE
8
BLACK
6
CONTINUOUS
10
0.707197
20
0.333811
11
0.710947
21
0.335686
0
LINE
8
BLACK
6
CONTINUOUS
10
0.710947
20
0.335686
11
0.71193
21
0.335978
0
LINE
8
BLACK
6
CONTINUOUS
10
0.71193
20
0.335978
11
0.712101
21
0.335937
0
LINE
8
BLACK
6
CONTINUOUS
10
0.712101
20
0.335937
11
0.712267
21
0.335997
0
LINE
8
BLACK
6
CONTINUOUS
10
0.712267
20
0.335997
11
0.720944
21
0.335997
0
LINE
8
BLACK
6
CONTINUOUS
10
0.720944
20
0.335997
11
0.722438
21
0.336744
0
LINE
8
BLACK
6
CONTINUOUS
10
0.722438
20
0.336744
11
0.722438
21
0.337972
0
LINE
8
BLACK
6
CONTINUOUS
10
0.722438
20
0.337972
11
0.721315
21
0.340218
0
LINE
8
BLACK
6
CONTINUOUS
10
0.721315
20
0.340218
11
0.719069
21
0.34134
0
LINE
8
BLACK
6
CONTINUOUS
10
0.719069
20
0.34134
11
0.712964
21
0.34134
0
LINE
8
BLACK
6
CONTINUOUS
10
0.712964
20
0.34134
11
0.709838
21
0.339777
0
LINE
8
BLACK
6
CONTINUOUS
10
0.709838
20
0.339777
11
0.708855
21
0.339485
0
LINE
8
BLACK
6
CONTINUOUS
10
0.708855
20
0.339485
11
0.706891
21
0.339954
0
LINE
8
BLACK
6
CONTINUOUS
10
0.706891
20
0.339954
11
0.705688
21
0.341577
0
LINE
8
BLACK
6
CONTINUOUS
10
0.705688
20
0.341577
11
0.705809
21
0.343593
0
LINE
8
BLACK
6
CONTINUOUS
10
0.705809
20
0.343593
11
0.707197
21
0.345059
0
LINE
8
BLACK
6
CONTINUOUS
10
0.707197
20
0.345059
11
0.710947
21
0.346934
0
LINE
8
BLACK
6
CONTINUOUS
10
0.710947
20
0.346934
11
0.71193
21
0.347227
0
LINE
8
BLACK
6
CONTINUOUS
10
0.71193
20
0.347227
11
0.712101
21
0.347186
0
LINE
8
BLACK
6
CONTINUOUS
10
0.712101
20
0.347186
11
0.712267
21
0.347246
0
LINE
8
BLACK
6
CONTINUOUS
10
0.712267
20
0.347246
11
0.719766
21
0.347246
0
LINE
8
BLACK
6
CONTINUOUS
10
0.719766
20
0.347246
11
0.720776
21
0.347068
0
LINE
8
BLACK
6
CONTINUOUS
10
0.721979
20
0.330111
11
0.721807
21
0.330152
0
LINE
8
BLACK
6
CONTINUOUS
10
0.721807
20
0.330152
11
0.721641
21
0.330092
0
LINE
8
BLACK
6
CONTINUOUS
10
0.721641
20
0.330092
11
0.712964
21
0.330092
0
LINE
8
BLACK
6
CONTINUOUS
10
0.712964
20
0.330092
11
0.710719
21
0.328969
0
LINE
8
BLACK
6
CONTINUOUS
10
0.710719
20
0.328969
11
0.709596
21
0.326723
0
LINE
8
BLACK
6
CONTINUOUS
10
0.709596
20
0.326723
11
0.709596
21
0.324368
0
LINE
8
BLACK
6
CONTINUOUS
10
0.709596
20
0.324368
11
0.710719
21
0.322122
0
LINE
8
BLACK
6
CONTINUOUS
10
0.710719
20
0.322122
11
0.712964
21
0.320999
0
LINE
8
BLACK
6
CONTINUOUS
10
0.712964
20
0.320999
11
0.720944
21
0.320999
0
LINE
8
BLACK
6
CONTINUOUS
10
0.720944
20
0.320999
11
0.722438
21
0.321746
0
LINE
8
BLACK
6
CONTINUOUS
10
0.722438
20
0.321746
11
0.722438
21
0.330248
0
LINE
8
BLACK
6
CONTINUOUS
10
0.722438
20
0.330248
11
0.721979
21
0.330111
0
LINE
8
BLACK
6
CONTINUOUS
10
0.7464
20
0.359315
11
0.747091
21
0.357417
0
LINE
8
BLACK
6
CONTINUOUS
10
0.747091
20
0.357417
11
0.747091
21
0.347246
0
LINE
8
BLACK
6
CONTINUOUS
10
0.747091
20
0.347246
11
0.753512
21
0.347246
0
LINE
8
BLACK
6
CONTINUOUS
10
0.753512
20
0.347246
11
0.754522
21
0.347068
0
LINE
8
BLACK
6
CONTINUOUS
10
0.754522
20
0.347068
11
0.756069
21
0.34577
0
LINE
8
BLACK
6
CONTINUOUS
10
0.756069
20
0.34577
11
0.75642
21
0.34378
0
LINE
8
BLACK
6
CONTINUOUS
10
0.75642
20
0.34378
11
0.75541
21
0.342031
0
LINE
8
BLACK
6
CONTINUOUS
10
0.75541
20
0.342031
11
0.753512
21
0.34134
0
LINE
8
BLACK
6
CONTINUOUS
10
0.753512
20
0.34134
11
0.747091
21
0.34134
0
LINE
8
BLACK
6
CONTINUOUS
10
0.747091
20
0.34134
11
0.747091
21
0.324368
0
LINE
8
BLACK
6
CONTINUOUS
10
0.747091
20
0.324368
11
0.748214
21
0.322122
0
LINE
8
BLACK
6
CONTINUOUS
10
0.748214
20
0.322122
11
0.75046
21
0.320999
0
LINE
8
BLACK
6
CONTINUOUS
10
0.75046
20
0.320999
11
0.753512
21
0.320999
0
LINE
8
BLACK
6
CONTINUOUS
10
0.753512
20
0.320999
11
0.754522
21
0.320821
0
LINE
8
BLACK
6
CONTINUOUS
10
0.754522
20
0.320821
11
0.756069
21
0.319523
0
LINE
8
BLACK
6
CONTINUOUS
10
0.756069
20
0.319523
11
0.75642
21
0.317534
0
LINE
8
BLACK
6
CONTINUOUS
10
0.75642
20
0.317534
11
0.75541
21
0.315785
0
LINE
8
BLACK
6
CONTINUOUS
10
0.75541
20
0.315785
11
0.753512
21
0.315094
0
LINE
8
BLACK
6
CONTINUOUS
10
0.753512
20
0.315094
11
0.749763
21
0.315094
0
LINE
8
BLACK
6
CONTINUOUS
10
0.749763
20
0.315094
11
0.748753
21
0.315272
0
LINE
8
BLACK
6
CONTINUOUS
10
0.748753
20
0.315272
11
0.748617
21
0.315385
0
LINE
8
BLACK
6
CONTINUOUS
10
0.748617
20
0.315385
11
0.748442
21
0.315405
0
LINE
8
BLACK
6
CONTINUOUS
10
0.748442
20
0.315405
11
0.744693
21
0.31728
0
LINE
8
BLACK
6
CONTINUOUS
10
0.744693
20
0.31728
11
0.743869
21
0.317891
0
LINE
8
BLACK
6
CONTINUOUS
10
0.743869
20
0.317891
11
0.743693
21
0.318297
0
LINE
8
BLACK
6
CONTINUOUS
10
0.743693
20
0.318297
11
0.743372
21
0.318601
0
LINE
8
BLACK
6
CONTINUOUS
10
0.743372
20
0.318601
11
0.741497
21
0.32235
0
LINE
8
BLACK
6
CONTINUOUS
10
0.741497
20
0.32235
11
0.741205
21
0.323333
0
LINE
8
BLACK
6
CONTINUOUS
10
0.741205
20
0.323333
11
0.741246
21
0.323505
0
LINE
8
BLACK
6
CONTINUOUS
10
0.741246
20
0.323505
11
0.741186
21
0.323671
0
LINE
8
BLACK
6
CONTINUOUS
10
0.741186
20
0.323671
11
0.741186
21
0.34134
0
LINE
8
BLACK
6
CONTINUOUS
10
0.741186
20
0.34134
11
0.738514
21
0.34134
0
LINE
8
BLACK
6
CONTINUOUS
10
0.738514
20
0.34134
11
0.737504
21
0.341519
0
LINE
8
BLACK
6
CONTINUOUS
10
0.737504
20
0.341519
11
0.735957
21
0.342817
0
LINE
8
BLACK
6
CONTINUOUS
10
0.735957
20
0.342817
11
0.735606
21
0.344806
0
LINE
8
BLACK
6
CONTINUOUS
10
0.735606
20
0.344806
11
0.736616
21
0.346555
0
LINE
8
BLACK
6
CONTINUOUS
10
0.736616
20
0.346555
11
0.738514
21
0.347246
0
LINE
8
BLACK
6
CONTINUOUS
10
0.738514
20
0.347246
11
0.741186
21
0.347246
0
LINE
8
BLACK
6
CONTINUOUS
10
0.741186
20
0.347246
11
0.741186
21
0.357417
0
LINE
8
BLACK
6
CONTINUOUS
10
0.741186
20
0.357417
11
0.741364
21
0.358426
0
LINE
8
BLACK
6
CONTINUOUS
10
0.741364
20
0.358426
11
0.742662
21
0.359974
0
LINE
8
BLACK
6
CONTINUOUS
10
0.742662
20
0.359974
11
0.744651
21
0.360324
0
LINE
8
BLACK
6
CONTINUOUS
10
0.744651
20
0.360324
11
0.7464
21
0.359315
0
LINE
8
BLACK
6
CONTINUOUS
10
0.861384
20
0.347068
11
0.861519
21
0.346954
0
LINE
8
BLACK
6
CONTINUOUS
10
0.861519
20
0.346954
11
0.861694
21
0.346934
0
LINE
8
BLACK
6
CONTINUOUS
10
0.861694
20
0.346934
11
0.865444
21
0.345059
0
LINE
8
BLACK
6
CONTINUOUS
10
0.865444
20
0.345059
11
0.866268
21
0.344449
0
LINE
8
BLACK
6
CONTINUOUS
10
0.866268
20
0.344449
11
0.867071
21
0.342595
0
LINE
8
BLACK
6
CONTINUOUS
10
0.867071
20
0.342595
11
0.866495
21
0.340659
0
LINE
8
BLACK
6
CONTINUOUS
10
0.866495
20
0.340659
11
0.864809
21
0.339547
0
LINE
8
BLACK
6
CONTINUOUS
10
0.864809
20
0.339547
11
0.862803
21
0.339777
0
LINE
8
BLACK
6
CONTINUOUS
10
0.862803
20
0.339777
11
0.859677
21
0.34134
0
LINE
8
BLACK
6
CONTINUOUS
10
0.859677
20
0.34134
11
0.855447
21
0.34134
0
LINE
8
BLACK
6
CONTINUOUS
10
0.855447
20
0.34134
11
0.853201
21
0.340218
0
LINE
8
BLACK
6
CONTINUOUS
10
0.853201
20
0.340218
11
0.852078
21
0.337972
0
LINE
8
BLACK
6
CONTINUOUS
10
0.852078
20
0.337972
11
0.852078
21
0.337491
0
LINE
8
BLACK
6
CONTINUOUS
10
0.852078
20
0.337491
11
0.853201
21
0.335246
0
LINE
8
BLACK
6
CONTINUOUS
10
0.853201
20
0.335246
11
0.855447
21
0.334123
0
LINE
8
BLACK
6
CONTINUOUS
10
0.855447
20
0.334123
11
0.860374
21
0.334123
0
LINE
8
BLACK
6
CONTINUOUS
10
0.860374
20
0.334123
11
0.861384
21
0.333945
0
LINE
8
BLACK
6
CONTINUOUS
10
0.861384
20
0.333945
11
0.861519
21
0.333831
0
LINE
8
BLACK
6
CONTINUOUS
10
0.861519
20
0.333831
11
0.861694
21
0.333811
0
LINE
8
BLACK
6
CONTINUOUS
10
0.861694
20
0.333811
11
0.865444
21
0.331936
0
LINE
8
BLACK
6
CONTINUOUS
10
0.865444
20
0.331936
11
0.866268
21
0.331325
0
LINE
8
BLACK
6
CONTINUOUS
10
0.866268
20
0.331325
11
0.866443
21
0.33092
0
LINE
8
BLACK
6
CONTINUOUS
10
0.866443
20
0.33092
11
0.866764
21
0.330616
0
LINE
8
BLACK
6
CONTINUOUS
10
0.866764
20
0.330616
11
0.868639
21
0.326866
0
LINE
8
BLACK
6
CONTINUOUS
10
0.868639
20
0.326866
11
0.868931
21
0.325883
0
LINE
8
BLACK
6
CONTINUOUS
10
0.868931
20
0.325883
11
0.86889
21
0.325711
0
LINE
8
BLACK
6
CONTINUOUS
10
0.86889
20
0.325711
11
0.868951
21
0.325546
0
LINE
8
BLACK
6
CONTINUOUS
10
0.868951
20
0.325546
11
0.868951
21
0.323671
0
LINE
8
BLACK
6
CONTINUOUS
10
0.868951
20
0.323671
11
0.868773
21
0.322661
0
LINE
8
BLACK
6
CONTINUOUS
10
0.868773
20
0.322661
11
0.868659
21
0.322526
0
LINE
8
BLACK
6
CONTINUOUS
10
0.868659
20
0.322526
11
0.868639
21
0.32235
0
LINE
8
BLACK
6
CONTINUOUS
10
0.868639
20
0.32235
11
0.866764
21
0.318601
0
LINE
8
BLACK
6
CONTINUOUS
10
0.866764
20
0.318601
11
0.866153
21
0.317777
0
LINE
8
BLACK
6
CONTINUOUS
10
0.866153
20
0.317777
11
0.865748
21
0.317601
0
LINE
8
BLACK
6
CONTINUOUS
10
0.865748
20
0.317601
11
0.865444
21
0.31728
0
LINE
8
BLACK
6
CONTINUOUS
10
0.865444
20
0.31728
11
0.861694
21
0.315405
0
LINE
8
BLACK
6
CONTINUOUS
10
0.861694
20
0.315405
11
0.860711
21
0.315113
0
LINE
8
BLACK
6
CONTINUOUS
10
0.860711
20
0.315113
11
0.86054
21
0.315154
0
LINE
8
BLACK
6
CONTINUOUS
10
0.86054
20
0.315154
11
0.860374
21
0.315094
0
LINE
8
BLACK
6
CONTINUOUS
10
0.860374
20
0.315094
11
0.852875
21
0.315094
0
LINE
8
BLACK
6
CONTINUOUS
10
0.852875
20
0.315094
11
0.851865
21
0.315272
0
LINE
8
BLACK
6
CONTINUOUS
10
0.851865
20
0.315272
11
0.85173
21
0.315385
0
LINE
8
BLACK
6
CONTINUOUS
10
0.85173
20
0.315385
11
0.851554
21
0.315405
0
LINE
8
BLACK
6
CONTINUOUS
10
0.851554
20
0.315405
11
0.847805
21
0.31728
0
LINE
8
BLACK
6
CONTINUOUS
10
0.847805
20
0.31728
11
0.846981
21
0.317891
0
LINE
8
BLACK
6
CONTINUOUS
10
0.846981
20
0.317891
11
0.846178
21
0.319744
0
LINE
8
BLACK
6
CONTINUOUS
10
0.846178
20
0.319744
11
0.846754
21
0.32168
0
LINE
8
BLACK
6
CONTINUOUS
10
0.846754
20
0.32168
11
0.848439
21
0.322793
0
LINE
8
BLACK
6
CONTINUOUS
10
0.848439
20
0.322793
11
0.850446
21
0.322562
0
LINE
8
BLACK
6
CONTINUOUS
10
0.850446
20
0.322562
11
0.853572
21
0.320999
0
LINE
8
BLACK
6
CONTINUOUS
10
0.853572
20
0.320999
11
0.859677
21
0.320999
0
LINE
8
BLACK
6
CONTINUOUS
10
0.859677
20
0.320999
11
0.861922
21
0.322122
0
LINE
8
BLACK
6
CONTINUOUS
10
0.861922
20
0.322122
11
0.863045
21
0.324368
0
LINE
8
BLACK
6
CONTINUOUS
10
0.863045
20
0.324368
11
0.863045
21
0.324849
0
LINE
8
BLACK
6
CONTINUOUS
10
0.863045
20
0.324849
11
0.861922
21
0.327094
0
LINE
8
BLACK
6
CONTINUOUS
10
0.861922
20
0.327094
11
0.859677
21
0.328217
0
LINE
8
BLACK
6
CONTINUOUS
10
0.859677
20
0.328217
11
0.85475
21
0.328217
0
LINE
8
BLACK
6
CONTINUOUS
10
0.85475
20
0.328217
11
0.85374
21
0.328395
0
LINE
8
BLACK
6
CONTINUOUS
10
0.85374
20
0.328395
11
0.853604
21
0.328509
0
LINE
8
BLACK
6
CONTINUOUS
10
0.853604
20
0.328509
11
0.853429
21
0.328529
0
LINE
8
BLACK
6
CONTINUOUS
10
0.853429
20
0.328529
11
0.849679
21
0.330404
0
LINE
8
BLACK
6
CONTINUOUS
10
0.849679
20
0.330404
11
0.848856
21
0.331015
0
LINE
8
BLACK
6
CONTINUOUS
10
0.848856
20
0.331015
11
0.84868
21
0.33142
0
LINE
8
BLACK
6
CONTINUOUS
10
0.84868
20
0.33142
11
0.848359
21
0.331724
0
LINE
8
BLACK
6
CONTINUOUS
10
0.848359
20
0.331724
11
0.846484
21
0.335474
0
LINE
8
BLACK
6
CONTINUOUS
10
0.846484
20
0.335474
11
0.846192
21
0.336457
0
LINE
8
BLACK
6
CONTINUOUS
10
0.846192
20
0.336457
11
0.846233
21
0.336628
0
LINE
8
BLACK
6
CONTINUOUS
10
0.846233
20
0.336628
11
0.846172
21
0.336794
0
LINE
8
BLACK
6
CONTINUOUS
10
0.846172
20
0.336794
11
0.846172
21
0.338669
0
LINE
8
BLACK
6
CONTINUOUS
10
0.846172
20
0.338669
11
0.846351
21
0.339679
0
LINE
8
BLACK
6
CONTINUOUS
10
0.846351
20
0.339679
11
0.846464
21
0.339814
0
LINE
8
BLACK
6
CONTINUOUS
10
0.846464
20
0.339814
11
0.846484
21
0.339989
0
LINE
8
BLACK
6
CONTINUOUS
10
0.846484
20
0.339989
11
0.848359
21
0.343739
0
LINE
8
BLACK
6
CONTINUOUS
10
0.848359
20
0.343739
11
0.84897
21
0.344563
0
LINE
8
BLACK
6
CONTINUOUS
10
0.84897
20
0.344563
11
0.849376
21
0.344739
0
LINE
8
BLACK
6
CONTINUOUS
10
0.849376
20
0.344739
11
0.849679
21
0.345059
0
LINE
8
BLACK
6
CONTINUOUS
10
0.849679
20
0.345059
11
0.853429
21
0.346934
0
LINE
8
BLACK
6
CONTINUOUS
10
0.853429
20
0.346934
11
0.854412
21
0.347227
0
LINE
8
BLACK
6
CONTINUOUS
10
0.854412
20
0.347227
11
0.854584
21
0.347186
0
LINE
8
BLACK
6
CONTINUOUS
10
0.854584
20
0.347186
11
0.85475
21
0.347246
0
LINE
8
BLACK
6
CONTINUOUS
10
0.85475
20
0.347246
11
0.860374
21
0.347246
0
LINE
8
BLACK
6
CONTINUOUS
10
0.860374
20
0.347246
11
0.861384
21
0.347068
0
LINE
8
BLACK
6
CONTINUOUS
10
0.902006
20
0.346191
11
0.902697
21
0.344293
0
LINE
8
BLACK
6
CONTINUOUS
10
0.902697
20
0.344293
11
0.902697
21
0.318046
0
LINE
8
BLACK
6
CONTINUOUS
10
0.902697
20
0.318046
11
0.902519
21
0.317037
0
LINE
8
BLACK
6
CONTINUOUS
10
0.902519
20
0.317037
11
0.90122
21
0.315489
0
LINE
8
BLACK
6
CONTINUOUS
10
0.90122
20
0.315489
11
0.899231
21
0.315139
0
LINE
8
BLACK
6
CONTINUOUS
10
0.899231
20
0.315139
11
0.897482
21
0.316149
0
LINE
8
BLACK
6
CONTINUOUS
10
0.897482
20
0.316149
11
0.897396
21
0.316384
0
LINE
8
BLACK
6
CONTINUOUS
10
0.897396
20
0.316384
11
0.89544
21
0.315405
0
LINE
8
BLACK
6
CONTINUOUS
10
0.89544
20
0.315405
11
0.894457
21
0.315113
0
LINE
8
BLACK
6
CONTINUOUS
10
0.894457
20
0.315113
11
0.894285
21
0.315154
0
LINE
8
BLACK
6
CONTINUOUS
10
0.894285
20
0.315154
11
0.89412
21
0.315094
0
LINE
8
BLACK
6
CONTINUOUS
10
0.89412
20
0.315094
11
0.888495
21
0.315094
0
LINE
8
BLACK
6
CONTINUOUS
10
0.888495
20
0.315094
11
0.887485
21
0.315272
0
LINE
8
BLACK
6
CONTINUOUS
10
0.887485
20
0.315272
11
0.88735
21
0.315385
0
LINE
8
BLACK
6
CONTINUOUS
10
0.88735
20
0.315385
11
0.887175
21
0.315405
0
LINE
8
BLACK
6
CONTINUOUS
10
0.887175
20
0.315405
11
0.883425
21
0.31728
0
LINE
8
BLACK
6
CONTINUOUS
10
0.883425
20
0.31728
11
0.882602
21
0.317891
0
LINE
8
BLACK
6
CONTINUOUS
10
0.882602
20
0.317891
11
0.882426
21
0.318297
0
LINE
8
BLACK
6
CONTINUOUS
10
0.882426
20
0.318297
11
0.882105
21
0.318601
0
LINE
8
BLACK
6
CONTINUOUS
10
0.882105
20
0.318601
11
0.88023
21
0.32235
0
LINE
8
BLACK
6
CONTINUOUS
10
0.88023
20
0.32235
11
0.879938
21
0.323333
0
LINE
8
BLACK
6
CONTINUOUS
10
0.879938
20
0.323333
11
0.879979
21
0.323505
0
LINE
8
BLACK
6
CONTINUOUS
10
0.879979
20
0.323505
11
0.879918
21
0.323671
0
LINE
8
BLACK
6
CONTINUOUS
10
0.879918
20
0.323671
11
0.879918
21
0.344293
0
LINE
8
BLACK
6
CONTINUOUS
10
0.879918
20
0.344293
11
0.880096
21
0.345303
0
LINE
8
BLACK
6
CONTINUOUS
10
0.880096
20
0.345303
11
0.881395
21
0.34685
0
LINE
8
BLACK
6
CONTINUOUS
10
0.881395
20
0.34685
11
0.883384
21
0.347201
0
LINE
8
BLACK
6
CONTINUOUS
10
0.883384
20
0.347201
11
0.885133
21
0.346191
0
LINE
8
BLACK
6
CONTINUOUS
10
0.885133
20
0.346191
11
0.885824
21
0.344293
0
LINE
8
BLACK
6
CONTINUOUS
10
0.885824
20
0.344293
11
0.885824
21
0.324368
0
LINE
8
BLACK
6
CONTINUOUS
10
0.885824
20
0.324368
11
0.886947
21
0.322122
0
LINE
8
BLACK
6
CONTINUOUS
10
0.886947
20
0.322122
11
0.889192
21
0.320999
0
LINE
8
BLACK
6
CONTINUOUS
10
0.889192
20
0.320999
11
0.893423
21
0.320999
0
LINE
8
BLACK
6
CONTINUOUS
10
0.893423
20
0.320999
11
0.89612
21
0.322348
0
LINE
8
BLACK
6
CONTINUOUS
10
0.89612
20
0.322348
11
0.896791
21
0.323019
0
LINE
8
BLACK
6
CONTINUOUS
10
0.896791
20
0.323019
11
0.896791
21
0.344293
0
LINE
8
BLACK
6
CONTINUOUS
10
0.896791
20
0.344293
11
0.896969
21
0.345303
0
LINE
8
BLACK
6
CONTINUOUS
10
0.896969
20
0.345303
11
0.898268
21
0.34685
0
LINE
8
BLACK
6
CONTINUOUS
10
0.898268
20
0.34685
11
0.900257
21
0.347201
0
LINE
8
BLACK
6
CONTINUOUS
10
0.900257
20
0.347201
11
0.902006
21
0.346191
0
LINE
8
BLACK
6
CONTINUOUS
10
0.951373
20
0.347068
11
0.951508
21
0.346954
0
LINE
8
BLACK
6
CONTINUOUS
10
0.951508
20
0.346954
11
0.951683
21
0.346934
0
LINE
8
BLACK
6
CONTINUOUS
10
0.951683
20
0.346934
11
0.955433
21
0.345059
0
LINE
8
BLACK
6
CONTINUOUS
10
0.955433
20
0.345059
11
0.956256
21
0.344449
0
LINE
8
BLACK
6
CONTINUOUS
10
0.956256
20
0.344449
11
0.956432
21
0.344043
0
LINE
8
BLACK
6
CONTINUOUS
10
0.956432
20
0.344043
11
0.956753
21
0.343739
0
LINE
8
BLACK
6
CONTINUOUS
10
0.956753
20
0.343739
11
0.958628
21
0.339989
0
LINE
8
BLACK
6
CONTINUOUS
10
0.958628
20
0.339989
11
0.95892
21
0.339007
0
LINE
8
BLACK
6
CONTINUOUS
10
0.95892
20
0.339007
11
0.958879
21
0.338835
0
LINE
8
BLACK
6
CONTINUOUS
10
0.958879
20
0.338835
11
0.95894
21
0.338669
0
LINE
8
BLACK
6
CONTINUOUS
10
0.95894
20
0.338669
11
0.95894
21
0.318046
0
LINE
8
BLACK
6
CONTINUOUS
10
0.95894
20
0.318046
11
0.958762
21
0.317037
0
LINE
8
BLACK
6
CONTINUOUS
10
0.958762
20
0.317037
11
0.957463
21
0.315489
0
LINE
8
BLACK
6
CONTINUOUS
10
0.957463
20
0.315489
11
0.955474
21
0.315139
0
LINE
8
BLACK
6
CONTINUOUS
10
0.955474
20
0.315139
11
0.954337
21
0.315795
0
LINE
8
BLACK
6
CONTINUOUS
10
0.954337
20
0.315795
11
0.953558
21
0.315405
0
LINE
8
BLACK
6
CONTINUOUS
10
0.953558
20
0.315405
11
0.952575
21
0.315113
0
LINE
8
BLACK
6
CONTINUOUS
10
0.952575
20
0.315113
11
0.952403
21
0.315154
0
LINE
8
BLACK
6
CONTINUOUS
10
0.952403
20
0.315154
11
0.952237
21
0.315094
0
LINE
8
BLACK
6
CONTINUOUS
10
0.952237
20
0.315094
11
0.942864
21
0.315094
0
LINE
8
BLACK
6
CONTINUOUS
10
0.942864
20
0.315094
11
0.941854
21
0.315272
0
LINE
8
BLACK
6
CONTINUOUS
10
0.941854
20
0.315272
11
0.941718
21
0.315385
0
LINE
8
BLACK
6
CONTINUOUS
10
0.941718
20
0.315385
11
0.941543
21
0.315405
0
LINE
8
BLACK
6
CONTINUOUS
10
0.941543
20
0.315405
11
0.937794
21
0.31728
0
LINE
8
BLACK
6
CONTINUOUS
10
0.937794
20
0.31728
11
0.93697
21
0.317891
0
LINE
8
BLACK
6
CONTINUOUS
10
0.93697
20
0.317891
11
0.936794
21
0.318297
0
LINE
8
BLACK
6
CONTINUOUS
10
0.936794
20
0.318297
11
0.936473
21
0.318601
0
LINE
8
BLACK
6
CONTINUOUS
10
0.936473
20
0.318601
11
0.934598
21
0.32235
0
LINE
8
BLACK
6
CONTINUOUS
10
0.934598
20
0.32235
11
0.934306
21
0.323333
0
LINE
8
BLACK
6
CONTINUOUS
10
0.934306
20
0.323333
11
0.934347
21
0.323505
0
LINE
8
BLACK
6
CONTINUOUS
10
0.934347
20
0.323505
11
0.934286
21
0.323671
0
LINE
8
BLACK
6
CONTINUOUS
10
0.934286
20
0.323671
11
0.934286
21
0.32742
0
LINE
8
BLACK
6
CONTINUOUS
10
0.934286
20
0.32742
11
0.934465
21
0.32843
0
LINE
8
BLACK
6
CONTINUOUS
10
0.934465
20
0.32843
11
0.934578
21
0.328566
0
LINE
8
BLACK
6
CONTINUOUS
10
0.934578
20
0.328566
11
0.934598
21
0.328741
0
LINE
8
BLACK
6
CONTINUOUS
10
0.934598
20
0.328741
11
0.936473
21
0.33249
0
LINE
8
BLACK
6
CONTINUOUS
10
0.936473
20
0.33249
11
0.937084
21
0.333314
0
LINE
8
BLACK
6
CONTINUOUS
10
0.937084
20
0.333314
11
0.93749
21
0.33349
0
LINE
8
BLACK
6
CONTINUOUS
10
0.93749
20
0.33349
11
0.937794
21
0.333811
0
LINE
8
BLACK
6
CONTINUOUS
10
0.937794
20
0.333811
11
0.941543
21
0.335686
0
LINE
8
BLACK
6
CONTINUOUS
10
0.941543
20
0.335686
11
0.942526
21
0.335978
0
LINE
8
BLACK
6
CONTINUOUS
10
0.942526
20
0.335978
11
0.942698
21
0.335937
0
LINE
8
BLACK
6
CONTINUOUS
10
0.942698
20
0.335937
11
0.942864
21
0.335997
0
LINE
8
BLACK
6
CONTINUOUS
10
0.942864
20
0.335997
11
0.95154
21
0.335997
0
LINE
8
BLACK
6
CONTINUOUS
10
0.95154
20
0.335997
11
0.953034
21
0.336744
0
LINE
8
BLACK
6
CONTINUOUS
10
0.953034
20
0.336744
11
0.953034
21
0.337972
0
LINE
8
BLACK
6
CONTINUOUS
10
0.953034
20
0.337972
11
0.951911
21
0.340218
0
LINE
8
BLACK
6
CONTINUOUS
10
0.951911
20
0.340218
11
0.949666
21
0.34134
0
LINE
8
BLACK
6
CONTINUOUS
10
0.949666
20
0.34134
11
0.943561
21
0.34134
0
LINE
8
BLACK
6
CONTINUOUS
10
0.943561
20
0.34134
11
0.940435
21
0.339777
0
LINE
8
BLACK
6
CONTINUOUS
10
0.940435
20
0.339777
11
0.939452
21
0.339485
0
LINE
8
BLACK
6
CONTINUOUS
10
0.939452
20
0.339485
11
0.937487
21
0.339954
0
LINE
8
BLACK
6
CONTINUOUS
10
0.937487
20
0.339954
11
0.936284
21
0.341577
0
LINE
8
BLACK
6
CONTINUOUS
10
0.936284
20
0.341577
11
0.936405
21
0.343593
0
LINE
8
BLACK
6
CONTINUOUS
10
0.936405
20
0.343593
11
0.937794
21
0.345059
0
LINE
8
BLACK
6
CONTINUOUS
10
0.937794
20
0.345059
11
0.941543
21
0.346934
0
LINE
8
BLACK
6
CONTINUOUS
10
0.941543
20
0.346934
11
0.942526
21
0.347227
0
LINE
8
BLACK
6
CONTINUOUS
10
0.942526
20
0.347227
11
0.942698
21
0.347186
0
LINE
8
BLACK
6
CONTINUOUS
10
0.942698
20
0.347186
11
0.942864
21
0.347246
0
LINE
8
BLACK
6
CONTINUOUS
10
0.942864
20
0.347246
11
0.950363
21
0.347246
0
LINE
8
BLACK
6
CONTINUOUS
10
0.950363
20
0.347246
11
0.951373
21
0.347068
0
LINE
8
BLACK
6
CONTINUOUS
10
0.952575
20
0.330111
11
0.952403
21
0.330152
0
LINE
8
BLACK
6
CONTINUOUS
10
0.952403
20
0.330152
11
0.952237
21
0.330092
0
LINE
8
BLACK
6
CONTINUOUS
10
0.952237
20
0.330092
11
0.943561
21
0.330092
0
LINE
8
BLACK
6
CONTINUOUS
10
0.943561
20
0.330092
11
0.941315
21
0.328969
0
LINE
8
BLACK
6
CONTINUOUS
10
0.941315
20
0.328969
11
0.940192
21
0.326723
0
LINE
8
BLACK
6
CONTINUOUS
10
0.940192
20
0.326723
11
0.940192
21
0.324368
0
LINE
8
BLACK
6
CONTINUOUS
10
0.940192
20
0.324368
11
0.941315
21
0.322122
0
LINE
8
BLACK
6
CONTINUOUS
10
0.941315
20
0.322122
11
0.943561
21
0.320999
0
LINE
8
BLACK
6
CONTINUOUS
10
0.943561
20
0.320999
11
0.95154
21
0.320999
0
LINE
8
BLACK
6
CONTINUOUS
10
0.95154
20
0.320999
11
0.953034
21
0.321746
0
LINE
8
BLACK
6
CONTINUOUS
10
0.953034
20
0.321746
11
0.953034
21
0.330248
0
LINE
8
BLACK
6
CONTINUOUS
10
0.953034
20
0.330248
11
0.952575
21
0.330111
0
LINE
8
BLACK
6
CONTINUOUS
10
0.976996
20
0.359315
11
0.977687
21
0.357417
0
LINE
8
BLACK
6
CONTINUOUS
10
0.977687
20
0.357417
11
0.977687
21
0.347246
0
LINE
8
BLACK
6
CONTINUOUS
10
0.977687
20
0.347246
11
0.984108
21
0.347246
0
LINE
8
BLACK
6
CONTINUOUS
10
0.984108
20
0.347246
11
0.985118
21
0.347068
0
LINE
8
BLACK
6
CONTINUOUS
10
0.985118
20
0.347068
11
0.986666
21
0.34577
0
LINE
8
BLACK
6
CONTINUOUS
10
0.986666
20
0.34577
11
0.987016
21
0.34378
0
LINE
8
BLACK
6
CONTINUOUS
10
0.987016
20
0.34378
11
0.986006
21
0.342031
0
LINE
8
BLACK
6
CONTINUOUS
10
0.986006
20
0.342031
11
0.984108
21
0.34134
0
LINE
8
BLACK
6
CONTINUOUS
10
0.984108
20
0.34134
11
0.977687
21
0.34134
0
LINE
8
BLACK
6
CONTINUOUS
10
0.977687
20
0.34134
11
0.977687
21
0.324368
0
LINE
8
BLACK
6
CONTINUOUS
10
0.977687
20
0.324368
11
0.97881
21
0.322122
0
LINE
8
BLACK
6
CONTINUOUS
10
0.97881
20
0.322122
11
0.981056
21
0.320999
0
LINE
8
BLACK
6
CONTINUOUS
10
0.981056
20
0.320999
11
0.984108
21
0.320999
0
LINE
8
BLACK
6
CONTINUOUS
10
0.984108
20
0.320999
11
0.985118
21
0.320821
0
LINE
8
BLACK
6
CONTINUOUS
10
0.985118
20
0.320821
11
0.986666
21
0.319523
0
LINE
8
BLACK
6
CONTINUOUS
10
0.986666
20
0.319523
11
0.987016
21
0.317534
0
LINE
8
BLACK
6
CONTINUOUS
10
0.987016
20
0.317534
11
0.986006
21
0.315785
0
LINE
8
BLACK
6
CONTINUOUS
10
0.986006
20
0.315785
11
0.984108
21
0.315094
0
LINE
8
BLACK
6
CONTINUOUS
10
0.984108
20
0.315094
11
0.980359
21
0.315094
0
LINE
8
BLACK
6
CONTINUOUS
10
0.980359
20
0.315094
11
0.979349
21
0.315272
0
LINE
8
BLACK
6
CONTINUOUS
10
0.979349
20
0.315272
11
0.979214
21
0.315385
0
LINE
8
BLACK
6
CONTINUOUS
10
0.979214
20
0.315385
11
0.979038
21
0.315405
0
LINE
8
BLACK
6
CONTINUOUS
10
0.979038
20
0.315405
11
0.975289
21
0.31728
0
LINE
8
BLACK
6
CONTINUOUS
10
0.975289
20
0.31728
11
0.974465
21
0.317891
0
LINE
8
BLACK
6
CONTINUOUS
10
0.974465
20
0.317891
11
0.974289
21
0.318297
0
LINE
8
BLACK
6
CONTINUOUS
10
0.974289
20
0.318297
11
0.973968
21
0.318601
0
LINE
8
BLACK
6
CONTINUOUS
10
0.973968
20
0.318601
11
0.972094
21
0.32235
0
LINE
8
BLACK
6
CONTINUOUS
10
0.972094
20
0.32235
11
0.971801
21
0.323333
0
LINE
8
BLACK
6
CONTINUOUS
10
0.971801
20
0.323333
11
0.971842
21
0.323505
0
LINE
8
BLACK
6
CONTINUOUS
10
0.971842
20
0.323505
11
0.971782
21
0.323671
0
LINE
8
BLACK
6
CONTINUOUS
10
0.971782
20
0.323671
11
0.971782
21
0.34134
0
LINE
8
BLACK
6
CONTINUOUS
10
0.971782
20
0.34134
11
0.96911
21
0.34134
0
LINE
8
BLACK
6
CONTINUOUS
10
0.96911
20
0.34134
11
0.9681
21
0.341519
0
LINE
8
BLACK
6
CONTINUOUS
10
0.9681
20
0.341519
11
0.966553
21
0.342817
0
LINE
8
BLACK
6
CONTINUOUS
10
0.966553
20
0.342817
11
0.966202
21
0.344806
0
LINE
8
BLACK
6
CONTINUOUS
10
0.966202
20
0.344806
11
0.967212
21
0.346555
0
LINE
8
BLACK
6
CONTINUOUS
10
0.967212
20
0.346555
11
0.96911
21
0.347246
0
LINE
8
BLACK
6
CONTINUOUS
10
0.96911
20
0.347246
11
0.971782
21
0.347246
0
LINE
8
BLACK
6
CONTINUOUS
10
0.971782
20
0.347246
11
0.971782
21
0.357417
0
LINE
8
BLACK
6
CONTINUOUS
10
0.971782
20
0.357417
11
0.97196
21
0.358426
0
LINE
8
BLACK
6
CONTINUOUS
10
0.97196
20
0.358426
11
0.973258
21
0.359974
0
LINE
8
BLACK
6
CONTINUOUS
10
0.973258
20
0.359974
11
0.975247
21
0.360324
0
LINE
8
BLACK
6
CONTINUOUS
10
0.975247
20
0.360324
11
0.976996
21
0.359315
0
LINE
8
BLACK
6
CONTINUOUS
10
1.02824
20
0.347068
11
1.02837
21
0.346954
0
LINE
8
BLACK
6
CONTINUOUS
10
1.02837
20
0.346954
11
1.02855
21
0.346934
0
LINE
8
BLACK
6
CONTINUOUS
10
1.02855
20
0.346934
11
1.0323
21
0.345059
0
LINE
8
BLACK
6
CONTINUOUS
10
1.0323
20
0.345059
11
1.03301
21
0.344534
0
LINE
8
BLACK
6
CONTINUOUS
10
1.03301
20
0.344534
11
1.03307
21
0.344506
0
LINE
8
BLACK
6
CONTINUOUS
10
1.03307
20
0.344506
11
1.03494
21
0.342632
0
LINE
8
BLACK
6
CONTINUOUS
10
1.03494
20
0.342632
11
1.03545
21
0.341909
0
LINE
8
BLACK
6
CONTINUOUS
10
1.03545
20
0.341909
11
1.03549
21
0.341864
0
LINE
8
BLACK
6
CONTINUOUS
10
1.03549
20
0.341864
11
1.03737
21
0.338115
0
LINE
8
BLACK
6
CONTINUOUS
10
1.03737
20
0.338115
11
1.03766
21
0.337132
0
LINE
8
BLACK
6
CONTINUOUS
10
1.03766
20
0.337132
11
1.03762
21
0.33696
0
LINE
8
BLACK
6
CONTINUOUS
10
1.03762
20
0.33696
11
1.03768
21
0.336794
0
LINE
8
BLACK
6
CONTINUOUS
10
1.03768
20
0.336794
11
1.03768
21
0.325546
0
LINE
8
BLACK
6
CONTINUOUS
10
1.03768
20
0.325546
11
1.0375
21
0.324536
0
LINE
8
BLACK
6
CONTINUOUS
10
1.0375
20
0.324536
11
1.03739
21
0.3244
0
LINE
8
BLACK
6
CONTINUOUS
10
1.03739
20
0.3244
11
1.03737
21
0.324225
0
LINE
8
BLACK
6
CONTINUOUS
10
1.03737
20
0.324225
11
1.03549
21
0.320476
0
LINE
8
BLACK
6
CONTINUOUS
10
1.03549
20
0.320476
11
1.03497
21
0.319766
0
LINE
8
BLACK
6
CONTINUOUS
10
1.03497
20
0.319766
11
1.03494
21
0.319708
0
LINE
8
BLACK
6
CONTINUOUS
10
1.03494
20
0.319708
11
1.03307
21
0.317833
0
LINE
8
BLACK
6
CONTINUOUS
10
1.03307
20
0.317833
11
1.03234
21
0.317327
0
LINE
8
BLACK
6
CONTINUOUS
10
1.03234
20
0.317327
11
1.0323
21
0.31728
0
LINE
8
BLACK
6
CONTINUOUS
10
1.0323
20
0.31728
11
1.02855
21
0.315405
0
LINE
8
BLACK
6
CONTINUOUS
10
1.02855
20
0.315405
11
1.02757
21
0.315113
0
LINE
8
BLACK
6
CONTINUOUS
10
1.02757
20
0.315113
11
1.02739
21
0.315154
0
LINE
8
BLACK
6
CONTINUOUS
10
1.02739
20
0.315154
11
1.02723
21
0.315094
0
LINE
8
BLACK
6
CONTINUOUS
10
1.02723
20
0.315094
11
1.0216
21
0.315094
0
LINE
8
BLACK
6
CONTINUOUS
10
1.0216
20
0.315094
11
1.02059
21
0.315272
0
LINE
8
BLACK
6
CONTINUOUS
10
1.02059
20
0.315272
11
1.02046
21
0.315385
0
LINE
8
BLACK
6
CONTINUOUS
10
1.02046
20
0.315385
11
1.02028
21
0.315405
0
LINE
8
BLACK
6
CONTINUOUS
10
1.02028
20
0.315405
11
1.01653
21
0.31728
0
LINE
8
BLACK
6
CONTINUOUS
10
1.01653
20
0.31728
11
1.01582
21
0.317806
0
LINE
8
BLACK
6
CONTINUOUS
10
1.01582
20
0.317806
11
1.01577
21
0.317833
0
LINE
8
BLACK
6
CONTINUOUS
10
1.01577
20
0.317833
11
1.01389
21
0.319708
0
LINE
8
BLACK
6
CONTINUOUS
10
1.01389
20
0.319708
11
1.01339
21
0.320431
0
LINE
8
BLACK
6
CONTINUOUS
10
1.01339
20
0.320431
11
1.01334
21
0.320476
0
LINE
8
BLACK
6
CONTINUOUS
10
1.01334
20
0.320476
11
1.01146
21
0.324225
0
LINE
8
BLACK
6
CONTINUOUS
10
1.01146
20
0.324225
11
1.01117
21
0.325208
0
LINE
8
BLACK
6
CONTINUOUS
10
1.01117
20
0.325208
11
1.01121
21
0.32538
0
LINE
8
BLACK
6
CONTINUOUS
10
1.01121
20
0.32538
11
1.01115
21
0.325546
0
LINE
8
BLACK
6
CONTINUOUS
10
1.01115
20
0.325546
11
1.01115
21
0.336794
0
LINE
8
BLACK
6
CONTINUOUS
10
1.01115
20
0.336794
11
1.01133
21
0.337804
0
LINE
8
BLACK
6
CONTINUOUS
10
1.01133
20
0.337804
11
1.01144
21
0.337939
0
LINE
8
BLACK
6
CONTINUOUS
10
1.01144
20
0.337939
11
1.01146
21
0.338115
0
LINE
8
BLACK
6
CONTINUOUS
10
1.01146
20
0.338115
11
1.01334
21
0.341864
0
LINE
8
BLACK
6
CONTINUOUS
10
1.01334
20
0.341864
11
1.01386
21
0.342573
0
LINE
8
BLACK
6
CONTINUOUS
10
1.01386
20
0.342573
11
1.01389
21
0.342632
0
LINE
8
BLACK
6
CONTINUOUS
10
1.01389
20
0.342632
11
1.01577
21
0.344506
0
LINE
8
BLACK
6
CONTINUOUS
10
1.01577
20
0.344506
11
1.01649
21
0.345013
0
LINE
8
BLACK
6
CONTINUOUS
10
1.01649
20
0.345013
11
1.01653
21
0.345059
0
LINE
8
BLACK
6
CONTINUOUS
10
1.01653
20
0.345059
11
1.02028
21
0.346934
0
LINE
8
BLACK
6
CONTINUOUS
10
1.02028
20
0.346934
11
1.02127
21
0.347227
0
LINE
8
BLACK
6
CONTINUOUS
10
1.02127
20
0.347227
11
1.02144
21
0.347186
0
LINE
8
BLACK
6
CONTINUOUS
10
1.02144
20
0.347186
11
1.0216
21
0.347246
0
LINE
8
BLACK
6
CONTINUOUS
10
1.0216
20
0.347246
11
1.02723
21
0.347246
0
LINE
8
BLACK
6
CONTINUOUS
10
1.02723
20
0.347246
11
1.02824
21
0.347068
0
LINE
8
BLACK
6
CONTINUOUS
10
1.0196
20
0.339992
11
1.01841
21
0.338795
0
LINE
8
BLACK
6
CONTINUOUS
10
1.01841
20
0.338795
11
1.01706
21
0.336097
0
LINE
8
BLACK
6
CONTINUOUS
10
1.01706
20
0.336097
11
1.01706
21
0.326243
0
LINE
8
BLACK
6
CONTINUOUS
10
1.01706
20
0.326243
11
1.01841
21
0.323545
0
LINE
8
BLACK
6
CONTINUOUS
10
1.01841
20
0.323545
11
1.0196
21
0.322348
0
LINE
8
BLACK
6
CONTINUOUS
10
1.0196
20
0.322348
11
1.0223
21
0.320999
0
LINE
8
BLACK
6
CONTINUOUS
10
1.0223
20
0.320999
11
1.02653
21
0.320999
0
LINE
8
BLACK
6
CONTINUOUS
10
1.02653
20
0.320999
11
1.02923
21
0.322348
0
LINE
8
BLACK
6
CONTINUOUS
10
1.02923
20
0.322348
11
1.03043
21
0.323545
0
LINE
8
BLACK
6
CONTINUOUS
10
1.03043
20
0.323545
11
1.03177
21
0.326243
0
LINE
8
BLACK
6
CONTINUOUS
10
1.03177
20
0.326243
11
1.03177
21
0.336097
0
LINE
8
BLACK
6
CONTINUOUS
10
1.03177
20
0.336097
11
1.03043
21
0.338795
0
LINE
8
BLACK
6
CONTINUOUS
10
1.03043
20
0.338795
11
1.02923
21
0.339992
0
LINE
8
BLACK
6
CONTINUOUS
10
1.02923
20
0.339992
11
1.02653
21
0.34134
0
LINE
8
BLACK
6
CONTINUOUS
10
1.02653
20
0.34134
11
1.0223
21
0.34134
0
LINE
8
BLACK
6
CONTINUOUS
10
1.0223
20
0.34134
11
1.0196
21
0.339992
0
LINE
8
BLACK
6
CONTINUOUS
10
0.658286
20
0.359315
11
0.658977
21
0.357417
0
LINE
8
BLACK
6
CONTINUOUS
10
0.658977
20
0.357417
11
0.658977
21
0.318046
0
LINE
8
BLACK
6
CONTINUOUS
10
0.658977
20
0.318046
11
0.658799
21
0.317037
0
LINE
8
BLACK
6
CONTINUOUS
10
0.658799
20
0.317037
11
0.657501
21
0.315489
0
LINE
8
BLACK
6
CONTINUOUS
10
0.657501
20
0.315489
11
0.655512
21
0.315139
0
LINE
8
BLACK
6
CONTINUOUS
10
0.655512
20
0.315139
11
0.653762
21
0.316149
0
LINE
8
BLACK
6
CONTINUOUS
10
0.653762
20
0.316149
11
0.653072
21
0.318046
0
LINE
8
BLACK
6
CONTINUOUS
10
0.653072
20
0.318046
11
0.653072
21
0.335716
0
LINE
8
BLACK
6
CONTINUOUS
10
0.653072
20
0.335716
11
0.63648
21
0.335716
0
LINE
8
BLACK
6
CONTINUOUS
10
0.63648
20
0.335716
11
0.63648
21
0.318046
0
LINE
8
BLACK
6
CONTINUOUS
10
0.63648
20
0.318046
11
0.636302
21
0.317037
0
LINE
8
BLACK
6
CONTINUOUS
10
0.636302
20
0.317037
11
0.635004
21
0.315489
0
LINE
8
BLACK
6
CONTINUOUS
10
0.635004
20
0.315489
11
0.633014
21
0.315139
0
LINE
8
BLACK
6
CONTINUOUS
10
0.633014
20
0.315139
11
0.631265
21
0.316149
0
LINE
8
BLACK
6
CONTINUOUS
10
0.631265
20
0.316149
11
0.630574
21
0.318046
0
LINE
8
BLACK
6
CONTINUOUS
10
0.630574
20
0.318046
11
0.630574
21
0.357417
0
LINE
8
BLACK
6
CONTINUOUS
10
0.630574
20
0.357417
11
0.630752
21
0.358426
0
LINE
8
BLACK
6
CONTINUOUS
10
0.630752
20
0.358426
11
0.632051
21
0.359974
0
LINE
8
BLACK
6
CONTINUOUS
10
0.632051
20
0.359974
11
0.63404
21
0.360324
0
LINE
8
BLACK
6
CONTINUOUS
10
0.63404
20
0.360324
11
0.635789
21
0.359315
0
LINE
8
BLACK
6
CONTINUOUS
10
0.635789
20
0.359315
11
0.63648
21
0.357417
0
LINE
8
BLACK
6
CONTINUOUS
10
0.63648
20
0.357417
11
0.63648
21
0.341622
0
LINE
8
BLACK
6
CONTINUOUS
10
0.63648
20
0.341622
11
0.653072
21
0.341622
0
LINE
8
BLACK
6
CONTINUOUS
10
0.653072
20
0.341622
11
0.653072
21
0.357417
0
LINE
8
BLACK
6
CONTINUOUS
10
0.653072
20
0.357417
11
0.65325
21
0.358426
0
LINE
8
BLACK
6
CONTINUOUS
10
0.65325
20
0.358426
11
0.654548
21
0.359974
0
LINE
8
BLACK
6
CONTINUOUS
10
0.654548
20
0.359974
11
0.656537
21
0.360324
0
LINE
8
BLACK
6
CONTINUOUS
10
0.656537
20
0.360324
11
0.658286
21
0.359315
0
LINE
8
BLACK
6
CONTINUOUS
10
0.798894
20
0.346191
11
0.799585
21
0.344293
0
LINE
8
BLACK
6
CONTINUOUS
10
0.799585
20
0.344293
11
0.799585
21
0.318046
0
LINE
8
BLACK
6
CONTINUOUS
10
0.799585
20
0.318046
11
0.799406
21
0.317037
0
LINE
8
BLACK
6
CONTINUOUS
10
0.799406
20
0.317037
11
0.798108
21
0.315489
0
LINE
8
BLACK
6
CONTINUOUS
10
0.798108
20
0.315489
11
0.796119
21
0.315139
0
LINE
8
BLACK
6
CONTINUOUS
10
0.796119
20
0.315139
11
0.79437
21
0.316149
0
LINE
8
BLACK
6
CONTINUOUS
10
0.79437
20
0.316149
11
0.793679
21
0.318046
0
LINE
8
BLACK
6
CONTINUOUS
10
0.793679
20
0.318046
11
0.793679
21
0.344293
0
LINE
8
BLACK
6
CONTINUOUS
10
0.793679
20
0.344293
11
0.793857
21
0.345303
0
LINE
8
BLACK
6
CONTINUOUS
10
0.793857
20
0.345303
11
0.795155
21
0.34685
0
LINE
8
BLACK
6
CONTINUOUS
10
0.795155
20
0.34685
11
0.797145
21
0.347201
0
LINE
8
BLACK
6
CONTINUOUS
10
0.797145
20
0.347201
11
0.798894
21
0.346191
0
LINE
8
BLACK
6
CONTINUOUS
10
0.827638
20
0.347068
11
0.827773
21
0.346954
0
LINE
8
BLACK
6
CONTINUOUS
10
0.827773
20
0.346954
11
0.827949
21
0.346934
0
LINE
8
BLACK
6
CONTINUOUS
10
0.827949
20
0.346934
11
0.831698
21
0.345059
0
LINE
8
BLACK
6
CONTINUOUS
10
0.831698
20
0.345059
11
0.832522
21
0.344449
0
LINE
8
BLACK
6
CONTINUOUS
10
0.832522
20
0.344449
11
0.832698
21
0.344043
0
LINE
8
BLACK
6
CONTINUOUS
10
0.832698
20
0.344043
11
0.833019
21
0.343739
0
LINE
8
BLACK
6
CONTINUOUS
10
0.833019
20
0.343739
11
0.834893
21
0.339989
0
LINE
8
BLACK
6
CONTINUOUS
10
0.834893
20
0.339989
11
0.835186
21
0.339007
0
LINE
8
BLACK
6
CONTINUOUS
10
0.835186
20
0.339007
11
0.835145
21
0.338835
0
LINE
8
BLACK
6
CONTINUOUS
10
0.835145
20
0.338835
11
0.835205
21
0.338669
0
LINE
8
BLACK
6
CONTINUOUS
10
0.835205
20
0.338669
11
0.835205
21
0.318046
0
LINE
8
BLACK
6
CONTINUOUS
10
0.835205
20
0.318046
11
0.835027
21
0.317037
0
LINE
8
BLACK
6
CONTINUOUS
10
0.835027
20
0.317037
11
0.833729
21
0.315489
0
LINE
8
BLACK
6
CONTINUOUS
10
0.833729
20
0.315489
11
0.83174
21
0.315139
0
LINE
8
BLACK
6
CONTINUOUS
10
0.83174
20
0.315139
11
0.82999
21
0.316149
0
LINE
8
BLACK
6
CONTINUOUS
10
0.82999
20
0.316149
11
0.8293
21
0.318046
0
LINE
8
BLACK
6
CONTINUOUS
10
0.8293
20
0.318046
11
0.8293
21
0.337972
0
LINE
8
BLACK
6
CONTINUOUS
10
0.8293
20
0.337972
11
0.828177
21
0.340218
0
LINE
8
BLACK
6
CONTINUOUS
10
0.828177
20
0.340218
11
0.825931
21
0.34134
0
LINE
8
BLACK
6
CONTINUOUS
10
0.825931
20
0.34134
11
0.821701
21
0.34134
0
LINE
8
BLACK
6
CONTINUOUS
10
0.821701
20
0.34134
11
0.819003
21
0.339992
0
LINE
8
BLACK
6
CONTINUOUS
10
0.819003
20
0.339992
11
0.818332
21
0.339321
0
LINE
8
BLACK
6
CONTINUOUS
10
0.818332
20
0.339321
11
0.818332
21
0.318046
0
LINE
8
BLACK
6
CONTINUOUS
10
0.818332
20
0.318046
11
0.818154
21
0.317037
0
LINE
8
BLACK
6
CONTINUOUS
10
0.818154
20
0.317037
11
0.816856
21
0.315489
0
LINE
8
BLACK
6
CONTINUOUS
10
0.816856
20
0.315489
11
0.814867
21
0.315139
0
LINE
8
BLACK
6
CONTINUOUS
10
0.814867
20
0.315139
11
0.813118
21
0.316149
0
LINE
8
BLACK
6
CONTINUOUS
10
0.813118
20
0.316149
11
0.812427
21
0.318046
0
LINE
8
BLACK
6
CONTINUOUS
10
0.812427
20
0.318046
11
0.812427
21
0.344293
0
LINE
8
BLACK
6
CONTINUOUS
10
0.812427
20
0.344293
11
0.812605
21
0.345303
0
LINE
8
BLACK
6
CONTINUOUS
10
0.812605
20
0.345303
11
0.813903
21
0.34685
0
LINE
8
BLACK
6
CONTINUOUS
10
0.813903
20
0.34685
11
0.815892
21
0.347201
0
LINE
8
BLACK
6
CONTINUOUS
10
0.815892
20
0.347201
11
0.817641
21
0.346191
0
LINE
8
BLACK
6
CONTINUOUS
10
0.817641
20
0.346191
11
0.817727
21
0.345956
0
LINE
8
BLACK
6
CONTINUOUS
10
0.817727
20
0.345956
11
0.819683
21
0.346934
0
LINE
8
BLACK
6
CONTINUOUS
10
0.819683
20
0.346934
11
0.820666
21
0.347227
0
LINE
8
BLACK
6
CONTINUOUS
10
0.820666
20
0.347227
11
0.820838
21
0.347186
0
LINE
8
BLACK
6
CONTINUOUS
10
0.820838
20
0.347186
11
0.821004
21
0.347246
0
LINE
8
BLACK
6
CONTINUOUS
10
0.821004
20
0.347246
11
0.826628
21
0.347246
0
LINE
8
BLACK
6
CONTINUOUS
10
0.826628
20
0.347246
11
0.827638
21
0.347068
0
LINE
8
BLACK
6
CONTINUOUS
10
0.999494
20
0.346191
11
1.00018
21
0.344293
0
LINE
8
BLACK
6
CONTINUOUS
10
1.00018
20
0.344293
11
1.00018
21
0.318046
0
LINE
8
BLACK
6
CONTINUOUS
10
1.00018
20
0.318046
11
1.00001
21
0.317037
0
LINE
8
BLACK
6
CONTINUOUS
10
1.00001
20
0.317037
11
0.998708
21
0.315489
0
LINE
8
BLACK
6
CONTINUOUS
10
0.998708
20
0.315489
11
0.996719
21
0.315139
0
LINE
8
BLACK
6
CONTINUOUS
10
0.996719
20
0.315139
11
0.99497
21
0.316149
0
LINE
8
BLACK
6
CONTINUOUS
10
0.99497
20
0.316149
11
0.994279
21
0.318046
0
LINE
8
BLACK
6
CONTINUOUS
10
0.994279
20
0.318046
11
0.994279
21
0.344293
0
LINE
8
BLACK
6
CONTINUOUS
10
0.994279
20
0.344293
11
0.994457
21
0.345303
0
LINE
8
BLACK
6
CONTINUOUS
10
0.994457
20
0.345303
11
0.995755
21
0.34685
0
LINE
8
BLACK
6
CONTINUOUS
10
0.995755
20
0.34685
11
0.997745
21
0.347201
0
LINE
8
BLACK
6
CONTINUOUS
10
0.997745
20
0.347201
11
0.999494
21
0.346191
0
LINE
8
BLACK
6
CONTINUOUS
10
1.06386
20
0.347068
11
1.06399
21
0.346954
0
LINE
8
BLACK
6
CONTINUOUS
10
1.06399
20
0.346954
11
1.06417
21
0.346934
0
LINE
8
BLACK
6
CONTINUOUS
10
1.06417
20
0.346934
11
1.06792
21
0.345059
0
LINE
8
BLACK
6
CONTINUOUS
10
1.06792
20
0.345059
11
1.06874
21
0.344449
0
LINE
8
BLACK
6
CONTINUOUS
10
1.06874
20
0.344449
11
1.06892
21
0.344043
0
LINE
8
BLACK
6
CONTINUOUS
10
1.06892
20
0.344043
11
1.06924
21
0.343739
0
LINE
8
BLACK
6
CONTINUOUS
10
1.06924
20
0.343739
11
1.07111
21
0.339989
0
LINE
8
BLACK
6
CONTINUOUS
10
1.07111
20
0.339989
11
1.07141
21
0.339007
0
LINE
8
BLACK
6
CONTINUOUS
10
1.07141
20
0.339007
11
1.07137
21
0.338835
0
LINE
8
BLACK
6
CONTINUOUS
10
1.07137
20
0.338835
11
1.07143
21
0.338669
0
LINE
8
BLACK
6
CONTINUOUS
10
1.07143
20
0.338669
11
1.07143
21
0.318046
0
LINE
8
BLACK
6
CONTINUOUS
10
1.07143
20
0.318046
11
1.07125
21
0.317037
0
LINE
8
BLACK
6
CONTINUOUS
10
1.07125
20
0.317037
11
1.06995
21
0.315489
0
LINE
8
BLACK
6
CONTINUOUS
10
1.06995
20
0.315489
11
1.06796
21
0.315139
0
LINE
8
BLACK
6
CONTINUOUS
10
1.06796
20
0.315139
11
1.06621
21
0.316149
0
LINE
8
BLACK
6
CONTINUOUS
10
1.06621
20
0.316149
11
1.06552
21
0.318046
0
LINE
8
BLACK
6
CONTINUOUS
10
1.06552
20
0.318046
11
1.06552
21
0.337972
0
LINE
8
BLACK
6
CONTINUOUS
10
1.06552
20
0.337972
11
1.0644
21
0.340218
0
LINE
8
BLACK
6
CONTINUOUS
10
1.0644
20
0.340218
11
1.06215
21
0.34134
0
LINE
8
BLACK
6
CONTINUOUS
10
1.06215
20
0.34134
11
1.05792
21
0.34134
0
LINE
8
BLACK
6
CONTINUOUS
10
1.05792
20
0.34134
11
1.05522
21
0.339992
0
LINE
8
BLACK
6
CONTINUOUS
10
1.05522
20
0.339992
11
1.05455
21
0.339321
0
LINE
8
BLACK
6
CONTINUOUS
10
1.05455
20
0.339321
11
1.05455
21
0.318046
0
LINE
8
BLACK
6
CONTINUOUS
10
1.05455
20
0.318046
11
1.05437
21
0.317037
0
LINE
8
BLACK
6
CONTINUOUS
10
1.05437
20
0.317037
11
1.05308
21
0.315489
0
LINE
8
BLACK
6
CONTINUOUS
10
1.05308
20
0.315489
11
1.05109
21
0.315139
0
LINE
8
BLACK
6
CONTINUOUS
10
1.05109
20
0.315139
11
1.04934
21
0.316149
0
LINE
8
BLACK
6
CONTINUOUS
10
1.04934
20
0.316149
11
1.04865
21
0.318046
0
LINE
8
BLACK
6
CONTINUOUS
10
1.04865
20
0.318046
11
1.04865
21
0.344293
0
LINE
8
BLACK
6
CONTINUOUS
10
1.04865
20
0.344293
11
1.04883
21
0.345303
0
LINE
8
BLACK
6
CONTINUOUS
10
1.04883
20
0.345303
11
1.05012
21
0.34685
0
LINE
8
BLACK
6
CONTINUOUS
10
1.05012
20
0.34685
11
1.05211
21
0.347201
0
LINE
8
BLACK
6
CONTINUOUS
10
1.05211
20
0.347201
11
1.05386
21
0.346191
0
LINE
8
BLACK
6
CONTINUOUS
10
1.05386
20
0.346191
11
1.05395
21
0.345956
0
LINE
8
BLACK
6
CONTINUOUS
10
1.05395
20
0.345956
11
1.0559
21
0.346934
0
LINE
8
BLACK
6
CONTINUOUS
10
1.0559
20
0.346934
11
1.05689
21
0.347227
0
LINE
8
BLACK
6
CONTINUOUS
10
1.05689
20
0.347227
11
1.05706
21
0.347186
0
LINE
8
BLACK
6
CONTINUOUS
10
1.05706
20
0.347186
11
1.05722
21
0.347246
0
LINE
8
BLACK
6
CONTINUOUS
10
1.05722
20
0.347246
11
1.06285
21
0.347246
0
LINE
8
BLACK
6
CONTINUOUS
10
1.06285
20
0.347246
11
1.06386
21
0.347068
0
LINE
8
BLACK
6
CONTINUOUS
10
0.920754
20
0.359315
11
0.921444
21
0.357417
0
LINE
8
BLACK
6
CONTINUOUS
10
0.921444
20
0.357417
11
0.921444
21
0.324368
0
LINE
8
BLACK
6
CONTINUOUS
10
0.921444
20
0.324368
11
0.922567
21
0.322122
0
LINE
8
BLACK
6
CONTINUOUS
10
0.922567
20
0.322122
11
0.925436
21
0.320688
0
LINE
8
BLACK
6
CONTINUOUS
10
0.925436
20
0.320688
11
0.92626
21
0.320077
0
LINE
8
BLACK
6
CONTINUOUS
10
0.92626
20
0.320077
11
0.927063
21
0.318223
0
LINE
8
BLACK
6
CONTINUOUS
10
0.927063
20
0.318223
11
0.926487
21
0.316287
0
LINE
8
BLACK
6
CONTINUOUS
10
0.926487
20
0.316287
11
0.924802
21
0.315175
0
LINE
8
BLACK
6
CONTINUOUS
10
0.924802
20
0.315175
11
0.922795
21
0.315405
0
LINE
8
BLACK
6
CONTINUOUS
10
0.922795
20
0.315405
11
0.919046
21
0.31728
0
LINE
8
BLACK
6
CONTINUOUS
10
0.919046
20
0.31728
11
0.918222
21
0.317891
0
LINE
8
BLACK
6
CONTINUOUS
10
0.918222
20
0.317891
11
0.918046
21
0.318297
0
LINE
8
BLACK
6
CONTINUOUS
10
0.918046
20
0.318297
11
0.917725
21
0.318601
0
LINE
8
BLACK
6
CONTINUOUS
10
0.917725
20
0.318601
11
0.915851
21
0.32235
0
LINE
8
BLACK
6
CONTINUOUS
10
0.915851
20
0.32235
11
0.915558
21
0.323333
0
LINE
8
BLACK
6
CONTINUOUS
10
0.915558
20
0.323333
11
0.915599
21
0.323505
0
LINE
8
BLACK
6
CONTINUOUS
10
0.915599
20
0.323505
11
0.915539
21
0.323671
0
LINE
8
BLACK
6
CONTINUOUS
10
0.915539
20
0.323671
11
0.915539
21
0.357417
0
LINE
8
BLACK
6
CONTINUOUS
10
0.915539
20
0.357417
11
0.915717
21
0.358426
0
LINE
8
BLACK
6
CONTINUOUS
10
0.915717
20
0.358426
11
0.917015
21
0.359974
0
LINE
8
BLACK
6
CONTINUOUS
10
0.917015
20
0.359974
11
0.919004
21
0.360324
0
LINE
8
BLACK
6
CONTINUOUS
10
0.919004
20
0.360324
11
0.920754
21
0.359315
0
LINE
8
BLACK
6
CONTINUOUS
10
0.797011
20
0.360301
11
0.797145
21
0.360324
0
LINE
8
BLACK
6
CONTINUOUS
10
0.797145
20
0.360324
11
0.797262
21
0.360257
0
LINE
8
BLACK
6
CONTINUOUS
10
0.797262
20
0.360257
11
0.797396
21
0.360269
0
LINE
8
BLACK
6
CONTINUOUS
10
0.797396
20
0.360269
11
0.798024
21
0.359829
0
LINE
8
BLACK
6
CONTINUOUS
10
0.798024
20
0.359829
11
0.79872
21
0.359504
0
LINE
8
BLACK
6
CONTINUOUS
10
0.79872
20
0.359504
11
0.800594
21
0.35763
0
LINE
8
BLACK
6
CONTINUOUS
10
0.800594
20
0.35763
11
0.800818
21
0.357311
0
LINE
8
BLACK
6
CONTINUOUS
10
0.800818
20
0.357311
11
0.800925
21
0.357235
0
LINE
8
BLACK
6
CONTINUOUS
10
0.800925
20
0.357235
11
0.800959
21
0.357109
0
LINE
8
BLACK
6
CONTINUOUS
10
0.800959
20
0.357109
11
0.801183
21
0.35679
0
LINE
8
BLACK
6
CONTINUOUS
10
0.801183
20
0.35679
11
0.80125
21
0.356025
0
LINE
8
BLACK
6
CONTINUOUS
10
0.80125
20
0.356025
11
0.801448
21
0.355284
0
LINE
8
BLACK
6
CONTINUOUS
10
0.801448
20
0.355284
11
0.801335
21
0.355043
0
LINE
8
BLACK
6
CONTINUOUS
10
0.801335
20
0.355043
11
0.801359
21
0.354778
0
LINE
8
BLACK
6
CONTINUOUS
10
0.801359
20
0.354778
11
0.800919
21
0.354149
0
LINE
8
BLACK
6
CONTINUOUS
10
0.800919
20
0.354149
11
0.800594
21
0.353454
0
LINE
8
BLACK
6
CONTINUOUS
10
0.800594
20
0.353454
11
0.79872
21
0.351579
0
LINE
8
BLACK
6
CONTINUOUS
10
0.79872
20
0.351579
11
0.798401
21
0.351356
0
LINE
8
BLACK
6
CONTINUOUS
10
0.798401
20
0.351356
11
0.798325
21
0.351248
0
LINE
8
BLACK
6
CONTINUOUS
10
0.798325
20
0.351248
11
0.798199
21
0.351214
0
LINE
8
BLACK
6
CONTINUOUS
10
0.798199
20
0.351214
11
0.798192
21
0.351209
0
LINE
8
BLACK
6
CONTINUOUS
10
0.798192
20
0.351209
11
0.798108
21
0.35111
0
LINE
8
BLACK
6
CONTINUOUS
10
0.798108
20
0.35111
11
0.79803
21
0.351096
0
LINE
8
BLACK
6
CONTINUOUS
10
0.79803
20
0.351096
11
0.79788
21
0.350991
0
LINE
8
BLACK
6
CONTINUOUS
10
0.79788
20
0.350991
11
0.797115
21
0.350924
0
LINE
8
BLACK
6
CONTINUOUS
10
0.797115
20
0.350924
11
0.796374
21
0.350726
0
LINE
8
BLACK
6
CONTINUOUS
10
0.796374
20
0.350726
11
0.796252
21
0.350783
0
LINE
8
BLACK
6
CONTINUOUS
10
0.796252
20
0.350783
11
0.796119
21
0.350759
0
LINE
8
BLACK
6
CONTINUOUS
10
0.796119
20
0.350759
11
0.796002
21
0.350827
0
LINE
8
BLACK
6
CONTINUOUS
10
0.796002
20
0.350827
11
0.795868
21
0.350815
0
LINE
8
BLACK
6
CONTINUOUS
10
0.795868
20
0.350815
11
0.795239
21
0.351255
0
LINE
8
BLACK
6
CONTINUOUS
10
0.795239
20
0.351255
11
0.794544
21
0.351579
0
LINE
8
BLACK
6
CONTINUOUS
10
0.794544
20
0.351579
11
0.792669
21
0.353454
0
LINE
8
BLACK
6
CONTINUOUS
10
0.792669
20
0.353454
11
0.792446
21
0.353773
0
LINE
8
BLACK
6
CONTINUOUS
10
0.792446
20
0.353773
11
0.792338
21
0.353848
0
LINE
8
BLACK
6
CONTINUOUS
10
0.792338
20
0.353848
11
0.792304
21
0.353975
0
LINE
8
BLACK
6
CONTINUOUS
10
0.792304
20
0.353975
11
0.792081
21
0.354294
0
LINE
8
BLACK
6
CONTINUOUS
10
0.792081
20
0.354294
11
0.792014
21
0.355058
0
LINE
8
BLACK
6
CONTINUOUS
10
0.792014
20
0.355058
11
0.791816
21
0.355799
0
LINE
8
BLACK
6
CONTINUOUS
10
0.791816
20
0.355799
11
0.791928
21
0.356041
0
LINE
8
BLACK
6
CONTINUOUS
10
0.791928
20
0.356041
11
0.791905
21
0.356306
0
LINE
8
BLACK
6
CONTINUOUS
10
0.791905
20
0.356306
11
0.792345
21
0.356935
0
LINE
8
BLACK
6
CONTINUOUS
10
0.792345
20
0.356935
11
0.792669
21
0.35763
0
LINE
8
BLACK
6
CONTINUOUS
10
0.792669
20
0.35763
11
0.794544
21
0.359504
0
LINE
8
BLACK
6
CONTINUOUS
10
0.794544
20
0.359504
11
0.794863
21
0.359728
0
LINE
8
BLACK
6
CONTINUOUS
10
0.794863
20
0.359728
11
0.794938
21
0.359835
0
LINE
8
BLACK
6
CONTINUOUS
10
0.794938
20
0.359835
11
0.795065
21
0.359869
0
LINE
8
BLACK
6
CONTINUOUS
10
0.795065
20
0.359869
11
0.795072
21
0.359874
0
LINE
8
BLACK
6
CONTINUOUS
10
0.795072
20
0.359874
11
0.795155
21
0.359974
0
LINE
8
BLACK
6
CONTINUOUS
10
0.795155
20
0.359974
11
0.795234
21
0.359988
0
LINE
8
BLACK
6
CONTINUOUS
10
0.795234
20
0.359988
11
0.795384
21
0.360093
0
LINE
8
BLACK
6
CONTINUOUS
10
0.795384
20
0.360093
11
0.796148
21
0.36016
0
LINE
8
BLACK
6
CONTINUOUS
10
0.796148
20
0.36016
11
0.796889
21
0.360358
0
LINE
8
BLACK
6
CONTINUOUS
10
0.796889
20
0.360358
11
0.797011
21
0.360301
0
LINE
8
BLACK
6
CONTINUOUS
10
0.997611
20
0.360301
11
0.997745
21
0.360324
0
LINE
8
BLACK
6
CONTINUOUS
10
0.997745
20
0.360324
11
0.997861
21
0.360257
0
LINE
8
BLACK
6
CONTINUOUS
10
0.997861
20
0.360257
11
0.997996
21
0.360269
0
LINE
8
BLACK
6
CONTINUOUS
10
0.997996
20
0.360269
11
0.998624
21
0.359829
0
LINE
8
BLACK
6
CONTINUOUS
10
0.998624
20
0.359829
11
0.99932
21
0.359504
0
LINE
8
BLACK
6
CONTINUOUS
10
0.99932
20
0.359504
11
1.00119
21
0.35763
0
LINE
8
BLACK
6
CONTINUOUS
10
1.00119
20
0.35763
11
1.00142
21
0.357311
0
LINE
8
BLACK
6
CONTINUOUS
10
1.00142
20
0.357311
11
1.00153
21
0.357235
0
LINE
8
BLACK
6
CONTINUOUS
10
1.00153
20
0.357235
11
1.00156
21
0.357109
0
LINE
8
BLACK
6
CONTINUOUS
10
1.00156
20
0.357109
11
1.00178
21
0.35679
0
LINE
8
BLACK
6
CONTINUOUS
10
1.00178
20
0.35679
11
1.00185
21
0.356025
0
LINE
8
BLACK
6
CONTINUOUS
10
1.00185
20
0.356025
11
1.00205
21
0.355284
0
LINE
8
BLACK
6
CONTINUOUS
10
1.00205
20
0.355284
11
1.00194
21
0.355043
0
LINE
8
BLACK
6
CONTINUOUS
10
1.00194
20
0.355043
11
1.00196
21
0.354778
0
LINE
8
BLACK
6
CONTINUOUS
10
1.00196
20
0.354778
11
1.00152
21
0.354149
0
LINE
8
BLACK
6
CONTINUOUS
10
1.00152
20
0.354149
11
1.00119
21
0.353454
0
LINE
8
BLACK
6
CONTINUOUS
10
1.00119
20
0.353454
11
0.99932
21
0.351579
0
LINE
8
BLACK
6
CONTINUOUS
10
0.99932
20
0.351579
11
0.999001
21
0.351356
0
LINE
8
BLACK
6
CONTINUOUS
10
0.999001
20
0.351356
11
0.998925
21
0.351248
0
LINE
8
BLACK
6
CONTINUOUS
10
0.998925
20
0.351248
11
0.998799
21
0.351214
0
LINE
8
BLACK
6
CONTINUOUS
10
0.998799
20
0.351214
11
0.998792
21
0.351209
0
LINE
8
BLACK
6
CONTINUOUS
10
0.998792
20
0.351209
11
0.998708
21
0.35111
0
LINE
8
BLACK
6
CONTINUOUS
10
0.998708
20
0.35111
11
0.99863
21
0.351096
0
LINE
8
BLACK
6
CONTINUOUS
10
0.99863
20
0.351096
11
0.99848
21
0.350991
0
LINE
8
BLACK
6
CONTINUOUS
10
0.99848
20
0.350991
11
0.997715
21
0.350924
0
LINE
8
BLACK
6
CONTINUOUS
10
0.997715
20
0.350924
11
0.996974
21
0.350726
0
LINE
8
BLACK
6
CONTINUOUS
10
0.996974
20
0.350726
11
0.996852
21
0.350783
0
LINE
8
BLACK
6
CONTINUOUS
10
0.996852
20
0.350783
11
0.996719
21
0.350759
0
LINE
8
BLACK
6
CONTINUOUS
10
0.996719
20
0.350759
11
0.996602
21
0.350827
0
LINE
8
BLACK
6
CONTINUOUS
10
0.996602
20
0.350827
11
0.996468
21
0.350815
0
LINE
8
BLACK
6
CONTINUOUS
10
0.996468
20
0.350815
11
0.995839
21
0.351255
0
LINE
8
BLACK
6
CONTINUOUS
10
0.995839
20
0.351255
11
0.995144
21
0.351579
0
LINE
8
BLACK
6
CONTINUOUS
10
0.995144
20
0.351579
11
0.993269
21
0.353454
0
LINE
8
BLACK
6
CONTINUOUS
10
0.993269
20
0.353454
11
0.993046
21
0.353773
0
LINE
8
BLACK
6
CONTINUOUS
10
0.993046
20
0.353773
11
0.992938
21
0.353848
0
LINE
8
BLACK
6
CONTINUOUS
10
0.992938
20
0.353848
11
0.992904
21
0.353975
0
LINE
8
BLACK
6
CONTINUOUS
10
0.992904
20
0.353975
11
0.992681
21
0.354294
0
LINE
8
BLACK
6
CONTINUOUS
10
0.992681
20
0.354294
11
0.992614
21
0.355058
0
LINE
8
BLACK
6
CONTINUOUS
10
0.992614
20
0.355058
11
0.992416
21
0.355799
0
LINE
8
BLACK
6
CONTINUOUS
10
0.992416
20
0.355799
11
0.992528
21
0.356041
0
LINE
8
BLACK
6
CONTINUOUS
10
0.992528
20
0.356041
11
0.992505
21
0.356306
0
LINE
8
BLACK
6
CONTINUOUS
10
0.992505
20
0.356306
11
0.992945
21
0.356935
0
LINE
8
BLACK
6
CONTINUOUS
10
0.992945
20
0.356935
11
0.993269
21
0.35763
0
LINE
8
BLACK
6
CONTINUOUS
10
0.993269
20
0.35763
11
0.995144
21
0.359504
0
LINE
8
BLACK
6
CONTINUOUS
10
0.995144
20
0.359504
11
0.995463
21
0.359728
0
LINE
8
BLACK
6
CONTINUOUS
10
0.995463
20
0.359728
11
0.995538
21
0.359835
0
LINE
8
BLACK
6
CONTINUOUS
10
0.995538
20
0.359835
11
0.995665
21
0.359869
0
LINE
8
BLACK
6
CONTINUOUS
10
0.995665
20
0.359869
11
0.995672
21
0.359874
0
LINE
8
BLACK
6
CONTINUOUS
10
0.995672
20
0.359874
11
0.995755
21
0.359974
0
LINE
8
BLACK
6
CONTINUOUS
10
0.995755
20
0.359974
11
0.995834
21
0.359988
0
LINE
8
BLACK
6
CONTINUOUS
10
0.995834
20
0.359988
11
0.995984
21
0.360093
0
LINE
8
BLACK
6
CONTINUOUS
10
0.995984
20
0.360093
11
0.996748
21
0.36016
0
LINE
8
BLACK
6
CONTINUOUS
10
0.996748
20
0.36016
11
0.997489
21
0.360358
0
LINE
8
BLACK
6
CONTINUOUS
10
0.997489
20
0.360358
11
0.997611
21
0.360301
0
LINE
8
BLACK
6
CONTINUOUS
10
0.876382
20
0.482239
11
0.876517
21
0.482125
0
LINE
8
BLACK
6
CONTINUOUS
10
0.876517
20
0.482125
11
0.876692
21
0.482105
0
LINE
8
BLACK
6
CONTINUOUS
10
0.876692
20
0.482105
11
0.880442
21
0.48023
0
LINE
8
BLACK
6
CONTINUOUS
10
0.880442
20
0.48023
11
0.881151
21
0.479704
0
LINE
8
BLACK
6
CONTINUOUS
10
0.881151
20
0.479704
11
0.881209
21
0.479677
0
LINE
8
BLACK
6
CONTINUOUS
10
0.881209
20
0.479677
11
0.883084
21
0.477802
0
LINE
8
BLACK
6
CONTINUOUS
10
0.883084
20
0.477802
11
0.88359
21
0.477079
0
LINE
8
BLACK
6
CONTINUOUS
10
0.88359
20
0.477079
11
0.883637
21
0.477035
0
LINE
8
BLACK
6
CONTINUOUS
10
0.883637
20
0.477035
11
0.885512
21
0.473285
0
LINE
8
BLACK
6
CONTINUOUS
10
0.885512
20
0.473285
11
0.885804
21
0.472302
0
LINE
8
BLACK
6
CONTINUOUS
10
0.885804
20
0.472302
11
0.885763
21
0.472131
0
LINE
8
BLACK
6
CONTINUOUS
10
0.885763
20
0.472131
11
0.885824
21
0.471965
0
LINE
8
BLACK
6
CONTINUOUS
10
0.885824
20
0.471965
11
0.885824
21
0.468215
0
LINE
8
BLACK
6
CONTINUOUS
10
0.885824
20
0.468215
11
0.88567
21
0.467346
0
LINE
8
BLACK
6
CONTINUOUS
10
0.88567
20
0.467346
11
0.885672
21
0.467281
0
LINE
8
BLACK
6
CONTINUOUS
10
0.885672
20
0.467281
11
0.883797
21
0.461657
0
LINE
8
BLACK
6
CONTINUOUS
10
0.883797
20
0.461657
11
0.883309
21
0.460755
0
LINE
8
BLACK
6
CONTINUOUS
10
0.883309
20
0.460755
11
0.883159
21
0.460663
0
LINE
8
BLACK
6
CONTINUOUS
10
0.883159
20
0.460663
11
0.883084
21
0.460503
0
LINE
8
BLACK
6
CONTINUOUS
10
0.883084
20
0.460503
11
0.865628
21
0.443046
0
LINE
8
BLACK
6
CONTINUOUS
10
0.865628
20
0.443046
11
0.882871
21
0.443046
0
LINE
8
BLACK
6
CONTINUOUS
10
0.882871
20
0.443046
11
0.883881
21
0.442868
0
LINE
8
BLACK
6
CONTINUOUS
10
0.883881
20
0.442868
11
0.885428
21
0.44157
0
LINE
8
BLACK
6
CONTINUOUS
10
0.885428
20
0.44157
11
0.885779
21
0.439581
0
LINE
8
BLACK
6
CONTINUOUS
10
0.885779
20
0.439581
11
0.884769
21
0.437832
0
LINE
8
BLACK
6
CONTINUOUS
10
0.884769
20
0.437832
11
0.882871
21
0.437141
0
LINE
8
BLACK
6
CONTINUOUS
10
0.882871
20
0.437141
11
0.858499
21
0.437141
0
LINE
8
BLACK
6
CONTINUOUS
10
0.858499
20
0.437141
11
0.857864
21
0.437253
0
LINE
8
BLACK
6
CONTINUOUS
10
0.857864
20
0.437253
11
0.857735
21
0.437242
0
LINE
8
BLACK
6
CONTINUOUS
10
0.857735
20
0.437242
11
0.85767
21
0.437287
0
LINE
8
BLACK
6
CONTINUOUS
10
0.85767
20
0.437287
11
0.857489
21
0.437319
0
LINE
8
BLACK
6
CONTINUOUS
10
0.857489
20
0.437319
11
0.856808
21
0.43789
0
LINE
8
BLACK
6
CONTINUOUS
10
0.856808
20
0.43789
11
0.85608
21
0.4384
0
LINE
8
BLACK
6
CONTINUOUS
10
0.85608
20
0.4384
11
0.856045
21
0.438531
0
LINE
8
BLACK
6
CONTINUOUS
10
0.856045
20
0.438531
11
0.855942
21
0.438617
0
LINE
8
BLACK
6
CONTINUOUS
10
0.855942
20
0.438617
11
0.855788
21
0.439493
0
LINE
8
BLACK
6
CONTINUOUS
10
0.855788
20
0.439493
11
0.855558
21
0.440351
0
LINE
8
BLACK
6
CONTINUOUS
10
0.855558
20
0.440351
11
0.855615
21
0.440473
0
LINE
8
BLACK
6
CONTINUOUS
10
0.855615
20
0.440473
11
0.855591
21
0.440606
0
LINE
8
BLACK
6
CONTINUOUS
10
0.855591
20
0.440606
11
0.856036
21
0.441376
0
LINE
8
BLACK
6
CONTINUOUS
10
0.856036
20
0.441376
11
0.856411
21
0.442182
0
LINE
8
BLACK
6
CONTINUOUS
10
0.856411
20
0.442182
11
0.878415
21
0.464186
0
LINE
8
BLACK
6
CONTINUOUS
10
0.878415
20
0.464186
11
0.879918
21
0.468694
0
LINE
8
BLACK
6
CONTINUOUS
10
0.879918
20
0.468694
11
0.879918
21
0.471268
0
LINE
8
BLACK
6
CONTINUOUS
10
0.879918
20
0.471268
11
0.878569
21
0.473965
0
LINE
8
BLACK
6
CONTINUOUS
10
0.878569
20
0.473965
11
0.877372
21
0.475162
0
LINE
8
BLACK
6
CONTINUOUS
10
0.877372
20
0.475162
11
0.874675
21
0.476511
0
LINE
8
BLACK
6
CONTINUOUS
10
0.874675
20
0.476511
11
0.866695
21
0.476511
0
LINE
8
BLACK
6
CONTINUOUS
10
0.866695
20
0.476511
11
0.863998
21
0.475162
0
LINE
8
BLACK
6
CONTINUOUS
10
0.863998
20
0.475162
11
0.862462
21
0.473626
0
LINE
8
BLACK
6
CONTINUOUS
10
0.862462
20
0.473626
11
0.861622
21
0.473038
0
LINE
8
BLACK
6
CONTINUOUS
10
0.861622
20
0.473038
11
0.85961
21
0.472862
0
LINE
8
BLACK
6
CONTINUOUS
10
0.85961
20
0.472862
11
0.857955
21
0.474021
0
LINE
8
BLACK
6
CONTINUOUS
10
0.857955
20
0.474021
11
0.857432
21
0.475972
0
LINE
8
BLACK
6
CONTINUOUS
10
0.857432
20
0.475972
11
0.858286
21
0.477802
0
LINE
8
BLACK
6
CONTINUOUS
10
0.858286
20
0.477802
11
0.860161
21
0.479677
0
LINE
8
BLACK
6
CONTINUOUS
10
0.860161
20
0.479677
11
0.860884
21
0.480183
0
LINE
8
BLACK
6
CONTINUOUS
10
0.860884
20
0.480183
11
0.860928
21
0.48023
0
LINE
8
BLACK
6
CONTINUOUS
10
0.860928
20
0.48023
11
0.864678
21
0.482105
0
LINE
8
BLACK
6
CONTINUOUS
10
0.864678
20
0.482105
11
0.865661
21
0.482397
0
LINE
8
BLACK
6
CONTINUOUS
10
0.865661
20
0.482397
11
0.865832
21
0.482356
0
LINE
8
BLACK
6
CONTINUOUS
10
0.865832
20
0.482356
11
0.865998
21
0.482417
0
LINE
8
BLACK
6
CONTINUOUS
10
0.865998
20
0.482417
11
0.875372
21
0.482417
0
LINE
8
BLACK
6
CONTINUOUS
10
0.875372
20
0.482417
11
0.876382
21
0.482239
0
LINE
8
BLACK
6
CONTINUOUS
10
0.845763
20
0.481362
11
0.846454
21
0.479464
0
LINE
8
BLACK
6
CONTINUOUS
10
0.846454
20
0.479464
11
0.846454
21
0.440094
0
LINE
8
BLACK
6
CONTINUOUS
10
0.846454
20
0.440094
11
0.846276
21
0.439084
0
LINE
8
BLACK
6
CONTINUOUS
10
0.846276
20
0.439084
11
0.844977
21
0.437537
0
LINE
8
BLACK
6
CONTINUOUS
10
0.844977
20
0.437537
11
0.842988
21
0.437186
0
LINE
8
BLACK
6
CONTINUOUS
10
0.842988
20
0.437186
11
0.841239
21
0.438196
0
LINE
8
BLACK
6
CONTINUOUS
10
0.841239
20
0.438196
11
0.840548
21
0.440094
0
LINE
8
BLACK
6
CONTINUOUS
10
0.840548
20
0.440094
11
0.840548
21
0.457763
0
LINE
8
BLACK
6
CONTINUOUS
10
0.840548
20
0.457763
11
0.823956
21
0.457763
0
LINE
8
BLACK
6
CONTINUOUS
10
0.823956
20
0.457763
11
0.823956
21
0.440094
0
LINE
8
BLACK
6
CONTINUOUS
10
0.823956
20
0.440094
11
0.823778
21
0.439084
0
LINE
8
BLACK
6
CONTINUOUS
10
0.823778
20
0.439084
11
0.82248
21
0.437537
0
LINE
8
BLACK
6
CONTINUOUS
10
0.82248
20
0.437537
11
0.820491
21
0.437186
0
LINE
8
BLACK
6
CONTINUOUS
10
0.820491
20
0.437186
11
0.818742
21
0.438196
0
LINE
8
BLACK
6
CONTINUOUS
10
0.818742
20
0.438196
11
0.818051
21
0.440094
0
LINE
8
BLACK
6
CONTINUOUS
10
0.818051
20
0.440094
11
0.818051
21
0.479464
0
LINE
8
BLACK
6
CONTINUOUS
10
0.818051
20
0.479464
11
0.818229
21
0.480474
0
LINE
8
BLACK
6
CONTINUOUS
10
0.818229
20
0.480474
11
0.819527
21
0.482021
0
LINE
8
BLACK
6
CONTINUOUS
10
0.819527
20
0.482021
11
0.821516
21
0.482372
0
LINE
8
BLACK
6
CONTINUOUS
10
0.821516
20
0.482372
11
0.823266
21
0.481362
0
LINE
8
BLACK
6
CONTINUOUS
10
0.823266
20
0.481362
11
0.823956
21
0.479464
0
LINE
8
BLACK
6
CONTINUOUS
10
0.823956
20
0.479464
11
0.823956
21
0.463669
0
LINE
8
BLACK
6
CONTINUOUS
10
0.823956
20
0.463669
11
0.840548
21
0.463669
0
LINE
8
BLACK
6
CONTINUOUS
10
0.840548
20
0.463669
11
0.840548
21
0.479464
0
LINE
8
BLACK
6
CONTINUOUS
10
0.840548
20
0.479464
11
0.840726
21
0.480474
0
LINE
8
BLACK
6
CONTINUOUS
10
0.840726
20
0.480474
11
0.842025
21
0.482021
0
LINE
8
BLACK
6
CONTINUOUS
10
0.842025
20
0.482021
11
0.844014
21
0.482372
0
LINE
8
BLACK
6
CONTINUOUS
10
0.844014
20
0.482372
11
0.845763
21
0.481362
0
LINE
8
BLACK
6
CONTINUOUS
10
0.428987
20
0.533736
11
0.42978
21
0.531879
0
LINE
8
BLACK
6
CONTINUOUS
10
0.42978
20
0.531879
11
0.429194
21
0.529946
0
LINE
8
BLACK
6
CONTINUOUS
10
0.429194
20
0.529946
11
0.413857
21
0.509497
0
LINE
8
BLACK
6
CONTINUOUS
10
0.413857
20
0.509497
11
0.42892
21
0.494435
0
LINE
8
BLACK
6
CONTINUOUS
10
0.42892
20
0.494435
11
0.429508
21
0.493595
0
LINE
8
BLACK
6
CONTINUOUS
10
0.429508
20
0.493595
11
0.429684
21
0.491583
0
LINE
8
BLACK
6
CONTINUOUS
10
0.429684
20
0.491583
11
0.428525
21
0.489928
0
LINE
8
BLACK
6
CONTINUOUS
10
0.428525
20
0.489928
11
0.426574
21
0.489406
0
LINE
8
BLACK
6
CONTINUOUS
10
0.426574
20
0.489406
11
0.424744
21
0.490259
0
LINE
8
BLACK
6
CONTINUOUS
10
0.424744
20
0.490259
11
0.407287
21
0.507716
0
LINE
8
BLACK
6
CONTINUOUS
10
0.407287
20
0.507716
11
0.407287
21
0.492347
0
LINE
8
BLACK
6
CONTINUOUS
10
0.407287
20
0.492347
11
0.407109
21
0.491337
0
LINE
8
BLACK
6
CONTINUOUS
10
0.407109
20
0.491337
11
0.405811
21
0.48979
0
LINE
8
BLACK
6
CONTINUOUS
10
0.405811
20
0.48979
11
0.403822
21
0.489439
0
LINE
8
BLACK
6
CONTINUOUS
10
0.403822
20
0.489439
11
0.402073
21
0.490449
0
LINE
8
BLACK
6
CONTINUOUS
10
0.402073
20
0.490449
11
0.401382
21
0.492347
0
LINE
8
BLACK
6
CONTINUOUS
10
0.401382
20
0.492347
11
0.401382
21
0.531717
0
LINE
8
BLACK
6
CONTINUOUS
10
0.401382
20
0.531717
11
0.40156
21
0.532727
0
LINE
8
BLACK
6
CONTINUOUS
10
0.40156
20
0.532727
11
0.402858
21
0.534274
0
LINE
8
BLACK
6
CONTINUOUS
10
0.402858
20
0.534274
11
0.404847
21
0.534625
0
LINE
8
BLACK
6
CONTINUOUS
10
0.404847
20
0.534625
11
0.406596
21
0.533615
0
LINE
8
BLACK
6
CONTINUOUS
10
0.406596
20
0.533615
11
0.407287
21
0.531717
0
LINE
8
BLACK
6
CONTINUOUS
10
0.407287
20
0.531717
11
0.407287
21
0.516067
0
LINE
8
BLACK
6
CONTINUOUS
10
0.407287
20
0.516067
11
0.409639
21
0.513715
0
LINE
8
BLACK
6
CONTINUOUS
10
0.409639
20
0.513715
11
0.424469
21
0.533489
0
LINE
8
BLACK
6
CONTINUOUS
10
0.424469
20
0.533489
11
0.425218
21
0.53419
0
LINE
8
BLACK
6
CONTINUOUS
10
0.425218
20
0.53419
11
0.427185
21
0.534649
0
LINE
8
BLACK
6
CONTINUOUS
10
0.427185
20
0.534649
11
0.428987
21
0.533736
  0
ENDSEC
  0
EOF
