  0
SECTION
  2
HEADER
  9
$ANGBASE
  50
0.0
  9
$ANGDIR
  70
1
  9
$MEASUREMENT
  70
0
  0
ENDSEC
  0
SECTION
  2
TABLES
  0
TABLE
  2
LTYPE
  70
4
  0
LTYPE
  5
40F
  2
CONTINUOUS
  70
0
  3
Solid line
  72
65
  73
0
  40
0.0
  0
LTYPE
  5
410
  2
DASHDOT
 70
0
  3
Dash Dot ____ _ ____ _
 72
65
 73
4
 40
2.0
 49
1.25
 49
-0.25
 49
0.25
 49
-0.25
  0
LTYPE
  5
411
  2
DASHED
 70
0
  3
Dashed __ __ __ __ __
 72
65
 73
2
 40
0.75
 49
0.5
 49
-0.25
  0
LTYPE
  5
43B
  2
DOTTED
 70
0
  3
Dotted .  .  .  .
 72
65
 73
2
 40
0.2
 49
0.0
 49
-0.2
  0
ENDTAB
  0
TABLE
  2
STYLE
  70
4
  0
STYLE
  2
KICAD
  70
0
  40
0
  41
1
  42
1
  50
0
  71
0
  3
isocp.shx
  0
STYLE
  2
KICADB
  70
0
  40
0
  41
1
  42
1
  50
0
  71
0
  3
isocp.shx
  0
STYLE
  2
KICADI
  70
0
  40
0
  41
1
  42
1
  50
15
  71
0
  3
isocp.shx
  0
STYLE
  2
KICADBI
  70
0
  40
0
  41
1
  42
1
  50
15
  71
0
  3
isocp.shx
  0
ENDTAB
  0
TABLE
  2
LAYER
  70
1
  0
LAYER
  2
BLACK
  70
0
  62
7
  6
CONTINUOUS
  0
ENDTAB
  0
ENDSEC
  0
SECTION
  2
ENTITIES
0
LINE
8
BLACK
6
CONTINUOUS
10
0.112922
20
0.057248
11
0.122147
21
0.0540811
0
LINE
8
BLACK
6
CONTINUOUS
10
0.122147
20
0.0540811
11
0.130725
21
0.049439
0
LINE
8
BLACK
6
CONTINUOUS
10
0.130725
20
0.049439
11
0.138422
21
0.0434483
0
LINE
8
BLACK
6
CONTINUOUS
10
0.138422
20
0.0434483
11
0.145028
21
0.0362724
0
LINE
8
BLACK
6
CONTINUOUS
10
0.145028
20
0.0362724
11
0.150363
21
0.0281071
0
LINE
8
BLACK
6
CONTINUOUS
10
0.150363
20
0.0281071
11
0.154281
21
0.0191752
0
LINE
8
BLACK
6
CONTINUOUS
10
0.154281
20
0.0191752
11
0.156675
21
0.00972016
0
LINE
8
BLACK
6
CONTINUOUS
10
0.156675
20
0.00972016
11
0.15748
21
0
0
LINE
8
BLACK
6
CONTINUOUS
10
0.15748
20
0
11
0.156675
21
-0.00972016
0
LINE
8
BLACK
6
CONTINUOUS
10
0.156675
20
-0.00972016
11
0.154281
21
-0.0191752
0
LINE
8
BLACK
6
CONTINUOUS
10
0.154281
20
-0.0191752
11
0.150363
21
-0.0281071
0
LINE
8
BLACK
6
CONTINUOUS
10
0.150363
20
-0.0281071
11
0.145028
21
-0.0362724
0
LINE
8
BLACK
6
CONTINUOUS
10
0.145028
20
-0.0362724
11
0.138422
21
-0.0434483
0
LINE
8
BLACK
6
CONTINUOUS
10
0.138422
20
-0.0434483
11
0.130725
21
-0.049439
0
LINE
8
BLACK
6
CONTINUOUS
10
0.130725
20
-0.049439
11
0.122147
21
-0.0540811
0
LINE
8
BLACK
6
CONTINUOUS
10
0.122147
20
-0.0540811
11
0.112922
21
-0.057248
0
LINE
8
BLACK
6
CONTINUOUS
10
0.112922
20
-0.057248
11
0.103302
21
-0.0588534
0
LINE
8
BLACK
6
CONTINUOUS
10
0.103302
20
-0.0588534
11
0.0935485
21
-0.0588534
0
LINE
8
BLACK
6
CONTINUOUS
10
0.0935485
20
-0.0588534
11
0.083928
21
-0.057248
0
LINE
8
BLACK
6
CONTINUOUS
10
0.083928
20
-0.057248
11
0.074703
21
-0.0540811
0
LINE
8
BLACK
6
CONTINUOUS
10
0.074703
20
-0.0540811
11
0.0661251
21
-0.049439
0
LINE
8
BLACK
6
CONTINUOUS
10
0.0661251
20
-0.049439
11
0.0584283
21
-0.0434483
0
LINE
8
BLACK
6
CONTINUOUS
10
0.0584283
20
-0.0434483
11
0.0518224
21
-0.0362724
0
LINE
8
BLACK
6
CONTINUOUS
10
0.0518224
20
-0.0362724
11
0.0464878
21
-0.0281071
0
LINE
8
BLACK
6
CONTINUOUS
10
0.0464878
20
-0.0281071
11
0.0425698
21
-0.0191752
0
LINE
8
BLACK
6
CONTINUOUS
10
0.0425698
20
-0.0191752
11
0.0401755
21
-0.00972016
0
LINE
8
BLACK
6
CONTINUOUS
10
0.0401755
20
-0.00972016
11
0.0393701
21
0
0
LINE
8
BLACK
6
CONTINUOUS
10
0.0393701
20
0
11
0.0401755
21
0.00972016
0
LINE
8
BLACK
6
CONTINUOUS
10
0.0401755
20
0.00972016
11
0.0425698
21
0.0191752
0
LINE
8
BLACK
6
CONTINUOUS
10
0.0425698
20
0.0191752
11
0.0464878
21
0.0281071
0
LINE
8
BLACK
6
CONTINUOUS
10
0.0464878
20
0.0281071
11
0.0518224
21
0.0362724
0
LINE
8
BLACK
6
CONTINUOUS
10
0.0518224
20
0.0362724
11
0.0584283
21
0.0434483
0
LINE
8
BLACK
6
CONTINUOUS
10
0.0584283
20
0.0434483
11
0.0661251
21
0.049439
0
LINE
8
BLACK
6
CONTINUOUS
10
0.0661251
20
0.049439
11
0.074703
21
0.0540811
0
LINE
8
BLACK
6
CONTINUOUS
10
0.074703
20
0.0540811
11
0.083928
21
0.057248
0
LINE
8
BLACK
6
CONTINUOUS
10
0.083928
20
0.057248
11
0.0935485
21
0.0588534
0
LINE
8
BLACK
6
CONTINUOUS
10
0.0935485
20
0.0588534
11
0.103302
21
0.0588534
0
LINE
8
BLACK
6
CONTINUOUS
10
0.103302
20
0.0588534
11
0.112922
21
0.057248
0
LINE
8
BLACK
6
CONTINUOUS
10
0.506623
20
0.057248
11
0.515848
21
0.0540811
0
LINE
8
BLACK
6
CONTINUOUS
10
0.515848
20
0.0540811
11
0.524426
21
0.049439
0
LINE
8
BLACK
6
CONTINUOUS
10
0.524426
20
0.049439
11
0.532123
21
0.0434483
0
LINE
8
BLACK
6
CONTINUOUS
10
0.532123
20
0.0434483
11
0.538729
21
0.0362724
0
LINE
8
BLACK
6
CONTINUOUS
10
0.538729
20
0.0362724
11
0.544063
21
0.0281071
0
LINE
8
BLACK
6
CONTINUOUS
10
0.544063
20
0.0281071
11
0.547981
21
0.0191752
0
LINE
8
BLACK
6
CONTINUOUS
10
0.547981
20
0.0191752
11
0.550376
21
0.00972016
0
LINE
8
BLACK
6
CONTINUOUS
10
0.550376
20
0.00972016
11
0.551181
21
0
0
LINE
8
BLACK
6
CONTINUOUS
10
0.551181
20
0
11
0.550376
21
-0.00972016
0
LINE
8
BLACK
6
CONTINUOUS
10
0.550376
20
-0.00972016
11
0.547981
21
-0.0191752
0
LINE
8
BLACK
6
CONTINUOUS
10
0.547981
20
-0.0191752
11
0.544063
21
-0.0281071
0
LINE
8
BLACK
6
CONTINUOUS
10
0.544063
20
-0.0281071
11
0.538729
21
-0.0362724
0
LINE
8
BLACK
6
CONTINUOUS
10
0.538729
20
-0.0362724
11
0.532123
21
-0.0434483
0
LINE
8
BLACK
6
CONTINUOUS
10
0.532123
20
-0.0434483
11
0.524426
21
-0.049439
0
LINE
8
BLACK
6
CONTINUOUS
10
0.524426
20
-0.049439
11
0.515848
21
-0.0540811
0
LINE
8
BLACK
6
CONTINUOUS
10
0.515848
20
-0.0540811
11
0.506623
21
-0.057248
0
LINE
8
BLACK
6
CONTINUOUS
10
0.506623
20
-0.057248
11
0.497003
21
-0.0588534
0
LINE
8
BLACK
6
CONTINUOUS
10
0.497003
20
-0.0588534
11
0.487249
21
-0.0588534
0
LINE
8
BLACK
6
CONTINUOUS
10
0.487249
20
-0.0588534
11
0.477629
21
-0.057248
0
LINE
8
BLACK
6
CONTINUOUS
10
0.477629
20
-0.057248
11
0.468404
21
-0.0540811
0
LINE
8
BLACK
6
CONTINUOUS
10
0.468404
20
-0.0540811
11
0.459826
21
-0.049439
0
LINE
8
BLACK
6
CONTINUOUS
10
0.459826
20
-0.049439
11
0.452129
21
-0.0434483
0
LINE
8
BLACK
6
CONTINUOUS
10
0.452129
20
-0.0434483
11
0.445523
21
-0.0362724
0
LINE
8
BLACK
6
CONTINUOUS
10
0.445523
20
-0.0362724
11
0.440189
21
-0.0281071
0
LINE
8
BLACK
6
CONTINUOUS
10
0.440189
20
-0.0281071
11
0.436271
21
-0.0191752
0
LINE
8
BLACK
6
CONTINUOUS
10
0.436271
20
-0.0191752
11
0.433876
21
-0.00972016
0
LINE
8
BLACK
6
CONTINUOUS
10
0.433876
20
-0.00972016
11
0.433071
21
0
0
LINE
8
BLACK
6
CONTINUOUS
10
0.433071
20
0
11
0.433876
21
0.00972016
0
LINE
8
BLACK
6
CONTINUOUS
10
0.433876
20
0.00972016
11
0.436271
21
0.0191752
0
LINE
8
BLACK
6
CONTINUOUS
10
0.436271
20
0.0191752
11
0.440189
21
0.0281071
0
LINE
8
BLACK
6
CONTINUOUS
10
0.440189
20
0.0281071
11
0.445523
21
0.0362724
0
LINE
8
BLACK
6
CONTINUOUS
10
0.445523
20
0.0362724
11
0.452129
21
0.0434483
0
LINE
8
BLACK
6
CONTINUOUS
10
0.452129
20
0.0434483
11
0.459826
21
0.049439
0
LINE
8
BLACK
6
CONTINUOUS
10
0.459826
20
0.049439
11
0.468404
21
0.0540811
0
LINE
8
BLACK
6
CONTINUOUS
10
0.468404
20
0.0540811
11
0.477629
21
0.057248
0
LINE
8
BLACK
6
CONTINUOUS
10
0.477629
20
0.057248
11
0.487249
21
0.0588534
0
LINE
8
BLACK
6
CONTINUOUS
10
0.487249
20
0.0588534
11
0.497003
21
0.0588534
0
LINE
8
BLACK
6
CONTINUOUS
10
0.497003
20
0.0588534
11
0.506623
21
0.057248
0
LINE
8
BLACK
6
CONTINUOUS
10
0.900324
20
0.057248
11
0.909549
21
0.0540811
0
LINE
8
BLACK
6
CONTINUOUS
10
0.909549
20
0.0540811
11
0.918127
21
0.049439
0
LINE
8
BLACK
6
CONTINUOUS
10
0.918127
20
0.049439
11
0.925824
21
0.0434483
0
LINE
8
BLACK
6
CONTINUOUS
10
0.925824
20
0.0434483
11
0.93243
21
0.0362724
0
LINE
8
BLACK
6
CONTINUOUS
10
0.93243
20
0.0362724
11
0.937764
21
0.0281071
0
LINE
8
BLACK
6
CONTINUOUS
10
0.937764
20
0.0281071
11
0.941682
21
0.0191752
0
LINE
8
BLACK
6
CONTINUOUS
10
0.941682
20
0.0191752
11
0.944076
21
0.00972016
0
LINE
8
BLACK
6
CONTINUOUS
10
0.944076
20
0.00972016
11
0.944882
21
0
0
LINE
8
BLACK
6
CONTINUOUS
10
0.944882
20
0
11
0.944076
21
-0.00972016
0
LINE
8
BLACK
6
CONTINUOUS
10
0.944076
20
-0.00972016
11
0.941682
21
-0.0191752
0
LINE
8
BLACK
6
CONTINUOUS
10
0.941682
20
-0.0191752
11
0.937764
21
-0.0281071
0
LINE
8
BLACK
6
CONTINUOUS
10
0.937764
20
-0.0281071
11
0.93243
21
-0.0362724
0
LINE
8
BLACK
6
CONTINUOUS
10
0.93243
20
-0.0362724
11
0.925824
21
-0.0434483
0
LINE
8
BLACK
6
CONTINUOUS
10
0.925824
20
-0.0434483
11
0.918127
21
-0.049439
0
LINE
8
BLACK
6
CONTINUOUS
10
0.918127
20
-0.049439
11
0.909549
21
-0.0540811
0
LINE
8
BLACK
6
CONTINUOUS
10
0.909549
20
-0.0540811
11
0.900324
21
-0.057248
0
LINE
8
BLACK
6
CONTINUOUS
10
0.900324
20
-0.057248
11
0.890704
21
-0.0588534
0
LINE
8
BLACK
6
CONTINUOUS
10
0.890704
20
-0.0588534
11
0.88095
21
-0.0588534
0
LINE
8
BLACK
6
CONTINUOUS
10
0.88095
20
-0.0588534
11
0.87133
21
-0.057248
0
LINE
8
BLACK
6
CONTINUOUS
10
0.87133
20
-0.057248
11
0.862105
21
-0.0540811
0
LINE
8
BLACK
6
CONTINUOUS
10
0.862105
20
-0.0540811
11
0.853527
21
-0.049439
0
LINE
8
BLACK
6
CONTINUOUS
10
0.853527
20
-0.049439
11
0.84583
21
-0.0434483
0
LINE
8
BLACK
6
CONTINUOUS
10
0.84583
20
-0.0434483
11
0.839224
21
-0.0362724
0
LINE
8
BLACK
6
CONTINUOUS
10
0.839224
20
-0.0362724
11
0.833889
21
-0.0281071
0
LINE
8
BLACK
6
CONTINUOUS
10
0.833889
20
-0.0281071
11
0.829971
21
-0.0191752
0
LINE
8
BLACK
6
CONTINUOUS
10
0.829971
20
-0.0191752
11
0.827577
21
-0.00972016
0
LINE
8
BLACK
6
CONTINUOUS
10
0.827577
20
-0.00972016
11
0.826772
21
0
0
LINE
8
BLACK
6
CONTINUOUS
10
0.826772
20
0
11
0.827577
21
0.00972016
0
LINE
8
BLACK
6
CONTINUOUS
10
0.827577
20
0.00972016
11
0.829971
21
0.0191752
0
LINE
8
BLACK
6
CONTINUOUS
10
0.829971
20
0.0191752
11
0.833889
21
0.0281071
0
LINE
8
BLACK
6
CONTINUOUS
10
0.833889
20
0.0281071
11
0.839224
21
0.0362724
0
LINE
8
BLACK
6
CONTINUOUS
10
0.839224
20
0.0362724
11
0.84583
21
0.0434483
0
LINE
8
BLACK
6
CONTINUOUS
10
0.84583
20
0.0434483
11
0.853527
21
0.049439
0
LINE
8
BLACK
6
CONTINUOUS
10
0.853527
20
0.049439
11
0.862105
21
0.0540811
0
LINE
8
BLACK
6
CONTINUOUS
10
0.862105
20
0.0540811
11
0.87133
21
0.057248
0
LINE
8
BLACK
6
CONTINUOUS
10
0.87133
20
0.057248
11
0.88095
21
0.0588534
0
LINE
8
BLACK
6
CONTINUOUS
10
0.88095
20
0.0588534
11
0.890704
21
0.0588534
0
LINE
8
BLACK
6
CONTINUOUS
10
0.890704
20
0.0588534
11
0.900324
21
0.057248
0
LINE
8
BLACK
6
CONTINUOUS
10
0.954773
20
0.0993193
11
0.960655
21
0.0962319
0
LINE
8
BLACK
6
CONTINUOUS
10
0.960655
20
0.0962319
11
0.965628
21
0.0918262
0
LINE
8
BLACK
6
CONTINUOUS
10
0.965628
20
0.0918262
11
0.969402
21
0.0863585
0
LINE
8
BLACK
6
CONTINUOUS
10
0.969402
20
0.0863585
11
0.971758
21
0.0801465
0
LINE
8
BLACK
6
CONTINUOUS
10
0.971758
20
0.0801465
11
0.972559
21
0.0735512
0
LINE
8
BLACK
6
CONTINUOUS
10
0.972559
20
0.0735512
11
0.971758
21
0.0669559
0
LINE
8
BLACK
6
CONTINUOUS
10
0.971758
20
0.0669559
11
0.969402
21
0.0607439
0
LINE
8
BLACK
6
CONTINUOUS
10
0.969402
20
0.0607439
11
0.965628
21
0.0552761
0
LINE
8
BLACK
6
CONTINUOUS
10
0.965628
20
0.0552761
11
0.960655
21
0.0508705
0
LINE
8
BLACK
6
CONTINUOUS
10
0.960655
20
0.0508705
11
0.954773
21
0.047783
0
LINE
8
BLACK
6
CONTINUOUS
10
0.954773
20
0.047783
11
0.948322
21
0.0461931
0
LINE
8
BLACK
6
CONTINUOUS
10
0.948322
20
0.0461931
11
0.941678
21
0.0461931
0
LINE
8
BLACK
6
CONTINUOUS
10
0.941678
20
0.0461931
11
0.935227
21
0.047783
0
LINE
8
BLACK
6
CONTINUOUS
10
0.935227
20
0.047783
11
0.929345
21
0.0508705
0
LINE
8
BLACK
6
CONTINUOUS
10
0.929345
20
0.0508705
11
0.924372
21
0.0552761
0
LINE
8
BLACK
6
CONTINUOUS
10
0.924372
20
0.0552761
11
0.920598
21
0.0607439
0
LINE
8
BLACK
6
CONTINUOUS
10
0.920598
20
0.0607439
11
0.918242
21
0.0669559
0
LINE
8
BLACK
6
CONTINUOUS
10
0.918242
20
0.0669559
11
0.917441
21
0.0735512
0
LINE
8
BLACK
6
CONTINUOUS
10
0.917441
20
0.0735512
11
0.918242
21
0.0801465
0
LINE
8
BLACK
6
CONTINUOUS
10
0.918242
20
0.0801465
11
0.920598
21
0.0863585
0
LINE
8
BLACK
6
CONTINUOUS
10
0.920598
20
0.0863585
11
0.924372
21
0.0918262
0
LINE
8
BLACK
6
CONTINUOUS
10
0.924372
20
0.0918262
11
0.929345
21
0.0962319
0
LINE
8
BLACK
6
CONTINUOUS
10
0.929345
20
0.0962319
11
0.935227
21
0.0993193
0
LINE
8
BLACK
6
CONTINUOUS
10
0.935227
20
0.0993193
11
0.941678
21
0.100909
0
LINE
8
BLACK
6
CONTINUOUS
10
0.941678
20
0.100909
11
0.948322
21
0.100909
0
LINE
8
BLACK
6
CONTINUOUS
10
0.948322
20
0.100909
11
0.954773
21
0.0993193
0
LINE
8
BLACK
6
CONTINUOUS
10
0.907773
20
0.142768
11
0.913655
21
0.139681
0
LINE
8
BLACK
6
CONTINUOUS
10
0.913655
20
0.139681
11
0.918628
21
0.135275
0
LINE
8
BLACK
6
CONTINUOUS
10
0.918628
20
0.135275
11
0.922402
21
0.129807
0
LINE
8
BLACK
6
CONTINUOUS
10
0.922402
20
0.129807
11
0.924758
21
0.123595
0
LINE
8
BLACK
6
CONTINUOUS
10
0.924758
20
0.123595
11
0.925559
21
0.117
0
LINE
8
BLACK
6
CONTINUOUS
10
0.925559
20
0.117
11
0.924758
21
0.110405
0
LINE
8
BLACK
6
CONTINUOUS
10
0.924758
20
0.110405
11
0.922402
21
0.104193
0
LINE
8
BLACK
6
CONTINUOUS
10
0.922402
20
0.104193
11
0.918628
21
0.098725
0
LINE
8
BLACK
6
CONTINUOUS
10
0.918628
20
0.098725
11
0.913655
21
0.0943193
0
LINE
8
BLACK
6
CONTINUOUS
10
0.913655
20
0.0943193
11
0.907773
21
0.0912319
0
LINE
8
BLACK
6
CONTINUOUS
10
0.907773
20
0.0912319
11
0.901322
21
0.0896419
0
LINE
8
BLACK
6
CONTINUOUS
10
0.901322
20
0.0896419
11
0.894678
21
0.0896419
0
LINE
8
BLACK
6
CONTINUOUS
10
0.894678
20
0.0896419
11
0.888227
21
0.0912319
0
LINE
8
BLACK
6
CONTINUOUS
10
0.888227
20
0.0912319
11
0.882345
21
0.0943193
0
LINE
8
BLACK
6
CONTINUOUS
10
0.882345
20
0.0943193
11
0.877372
21
0.098725
0
LINE
8
BLACK
6
CONTINUOUS
10
0.877372
20
0.098725
11
0.873598
21
0.104193
0
LINE
8
BLACK
6
CONTINUOUS
10
0.873598
20
0.104193
11
0.871242
21
0.110405
0
LINE
8
BLACK
6
CONTINUOUS
10
0.871242
20
0.110405
11
0.870441
21
0.117
0
LINE
8
BLACK
6
CONTINUOUS
10
0.870441
20
0.117
11
0.871242
21
0.123595
0
LINE
8
BLACK
6
CONTINUOUS
10
0.871242
20
0.123595
11
0.873598
21
0.129807
0
LINE
8
BLACK
6
CONTINUOUS
10
0.873598
20
0.129807
11
0.877372
21
0.135275
0
LINE
8
BLACK
6
CONTINUOUS
10
0.877372
20
0.135275
11
0.882345
21
0.139681
0
LINE
8
BLACK
6
CONTINUOUS
10
0.882345
20
0.139681
11
0.888227
21
0.142768
0
LINE
8
BLACK
6
CONTINUOUS
10
0.888227
20
0.142768
11
0.894678
21
0.144358
0
LINE
8
BLACK
6
CONTINUOUS
10
0.894678
20
0.144358
11
0.901322
21
0.144358
0
LINE
8
BLACK
6
CONTINUOUS
10
0.901322
20
0.144358
11
0.907773
21
0.142768
0
LINE
8
BLACK
6
CONTINUOUS
10
0.111451
20
0.175872
11
0.116436
21
0.174128
0
LINE
8
BLACK
6
CONTINUOUS
10
0.116436
20
0.174128
11
0.120685
21
0.170992
0
LINE
8
BLACK
6
CONTINUOUS
10
0.120685
20
0.170992
11
0.123821
21
0.166743
0
LINE
8
BLACK
6
CONTINUOUS
10
0.123821
20
0.166743
11
0.125565
21
0.161758
0
LINE
8
BLACK
6
CONTINUOUS
10
0.125565
20
0.161758
11
0.125874
21
0.158465
0
LINE
8
BLACK
6
CONTINUOUS
10
0.125874
20
0.158465
11
0.125874
21
0.13878
0
LINE
8
BLACK
6
CONTINUOUS
10
0.125874
20
0.13878
11
0.125565
21
0.135486
0
LINE
8
BLACK
6
CONTINUOUS
10
0.125565
20
0.135486
11
0.123821
21
0.130501
0
LINE
8
BLACK
6
CONTINUOUS
10
0.123821
20
0.130501
11
0.120685
21
0.126252
0
LINE
8
BLACK
6
CONTINUOUS
10
0.120685
20
0.126252
11
0.116436
21
0.123116
0
LINE
8
BLACK
6
CONTINUOUS
10
0.116436
20
0.123116
11
0.111451
21
0.121372
0
LINE
8
BLACK
6
CONTINUOUS
10
0.111451
20
0.121372
11
0.108157
21
0.121063
0
LINE
8
BLACK
6
CONTINUOUS
10
0.108157
20
0.121063
11
0.0215433
21
0.121063
0
LINE
8
BLACK
6
CONTINUOUS
10
0.0215433
20
0.121063
11
0.0182496
21
0.121372
0
LINE
8
BLACK
6
CONTINUOUS
10
0.0182496
20
0.121372
11
0.0132649
21
0.123116
0
LINE
8
BLACK
6
CONTINUOUS
10
0.0132649
20
0.123116
11
0.00901583
21
0.126252
0
LINE
8
BLACK
6
CONTINUOUS
10
0.00901583
20
0.126252
11
0.00587984
21
0.130501
0
LINE
8
BLACK
6
CONTINUOUS
10
0.00587984
20
0.130501
11
0.00413563
21
0.135486
0
LINE
8
BLACK
6
CONTINUOUS
10
0.00413563
20
0.135486
11
0.00382677
21
0.13878
0
LINE
8
BLACK
6
CONTINUOUS
10
0.00382677
20
0.13878
11
0.00382677
21
0.158465
0
LINE
8
BLACK
6
CONTINUOUS
10
0.00382677
20
0.158465
11
0.00413563
21
0.161758
0
LINE
8
BLACK
6
CONTINUOUS
10
0.00413563
20
0.161758
11
0.00587984
21
0.166743
0
LINE
8
BLACK
6
CONTINUOUS
10
0.00587984
20
0.166743
11
0.00901583
21
0.170992
0
LINE
8
BLACK
6
CONTINUOUS
10
0.00901583
20
0.170992
11
0.0132649
21
0.174128
0
LINE
8
BLACK
6
CONTINUOUS
10
0.0132649
20
0.174128
11
0.0182496
21
0.175872
0
LINE
8
BLACK
6
CONTINUOUS
10
0.0182496
20
0.175872
11
0.0215433
21
0.176181
0
LINE
8
BLACK
6
CONTINUOUS
10
0.0215433
20
0.176181
11
0.108157
21
0.176181
0
LINE
8
BLACK
6
CONTINUOUS
10
0.108157
20
0.176181
11
0.111451
21
0.175872
0
LINE
8
BLACK
6
CONTINUOUS
10
0.863119
20
0.193091
11
0.869002
21
0.190004
0
LINE
8
BLACK
6
CONTINUOUS
10
0.869002
20
0.190004
11
0.873975
21
0.185598
0
LINE
8
BLACK
6
CONTINUOUS
10
0.873975
20
0.185598
11
0.877749
21
0.18013
0
LINE
8
BLACK
6
CONTINUOUS
10
0.877749
20
0.18013
11
0.880105
21
0.173918
0
LINE
8
BLACK
6
CONTINUOUS
10
0.880105
20
0.173918
11
0.880906
21
0.167323
0
LINE
8
BLACK
6
CONTINUOUS
10
0.880906
20
0.167323
11
0.880105
21
0.160728
0
LINE
8
BLACK
6
CONTINUOUS
10
0.880105
20
0.160728
11
0.877749
21
0.154516
0
LINE
8
BLACK
6
CONTINUOUS
10
0.877749
20
0.154516
11
0.873975
21
0.149048
0
LINE
8
BLACK
6
CONTINUOUS
10
0.873975
20
0.149048
11
0.869002
21
0.144642
0
LINE
8
BLACK
6
CONTINUOUS
10
0.869002
20
0.144642
11
0.863119
21
0.141555
0
LINE
8
BLACK
6
CONTINUOUS
10
0.863119
20
0.141555
11
0.856668
21
0.139965
0
LINE
8
BLACK
6
CONTINUOUS
10
0.856668
20
0.139965
11
0.850025
21
0.139965
0
LINE
8
BLACK
6
CONTINUOUS
10
0.850025
20
0.139965
11
0.843574
21
0.141555
0
LINE
8
BLACK
6
CONTINUOUS
10
0.843574
20
0.141555
11
0.837691
21
0.144642
0
LINE
8
BLACK
6
CONTINUOUS
10
0.837691
20
0.144642
11
0.832718
21
0.149048
0
LINE
8
BLACK
6
CONTINUOUS
10
0.832718
20
0.149048
11
0.828944
21
0.154516
0
LINE
8
BLACK
6
CONTINUOUS
10
0.828944
20
0.154516
11
0.826588
21
0.160728
0
LINE
8
BLACK
6
CONTINUOUS
10
0.826588
20
0.160728
11
0.825787
21
0.167323
0
LINE
8
BLACK
6
CONTINUOUS
10
0.825787
20
0.167323
11
0.826588
21
0.173918
0
LINE
8
BLACK
6
CONTINUOUS
10
0.826588
20
0.173918
11
0.828944
21
0.18013
0
LINE
8
BLACK
6
CONTINUOUS
10
0.828944
20
0.18013
11
0.832718
21
0.185598
0
LINE
8
BLACK
6
CONTINUOUS
10
0.832718
20
0.185598
11
0.837691
21
0.190004
0
LINE
8
BLACK
6
CONTINUOUS
10
0.837691
20
0.190004
11
0.843574
21
0.193091
0
LINE
8
BLACK
6
CONTINUOUS
10
0.843574
20
0.193091
11
0.850025
21
0.194681
0
LINE
8
BLACK
6
CONTINUOUS
10
0.850025
20
0.194681
11
0.856668
21
0.194681
0
LINE
8
BLACK
6
CONTINUOUS
10
0.856668
20
0.194681
11
0.863119
21
0.193091
0
LINE
8
BLACK
6
CONTINUOUS
10
0.93928
20
0.212788
11
0.943993
21
0.209759
0
LINE
8
BLACK
6
CONTINUOUS
10
0.943993
20
0.209759
11
0.947662
21
0.205524
0
LINE
8
BLACK
6
CONTINUOUS
10
0.947662
20
0.205524
11
0.94999
21
0.200428
0
LINE
8
BLACK
6
CONTINUOUS
10
0.94999
20
0.200428
11
0.950787
21
0.194882
0
LINE
8
BLACK
6
CONTINUOUS
10
0.950787
20
0.194882
11
0.94999
21
0.189336
0
LINE
8
BLACK
6
CONTINUOUS
10
0.94999
20
0.189336
11
0.947662
21
0.184239
0
LINE
8
BLACK
6
CONTINUOUS
10
0.947662
20
0.184239
11
0.943993
21
0.180005
0
LINE
8
BLACK
6
CONTINUOUS
10
0.943993
20
0.180005
11
0.93928
21
0.176976
0
LINE
8
BLACK
6
CONTINUOUS
10
0.93928
20
0.176976
11
0.933904
21
0.175397
0
LINE
8
BLACK
6
CONTINUOUS
10
0.933904
20
0.175397
11
0.928301
21
0.175397
0
LINE
8
BLACK
6
CONTINUOUS
10
0.928301
20
0.175397
11
0.922925
21
0.176976
0
LINE
8
BLACK
6
CONTINUOUS
10
0.922925
20
0.176976
11
0.918211
21
0.180005
0
LINE
8
BLACK
6
CONTINUOUS
10
0.918211
20
0.180005
11
0.914542
21
0.184239
0
LINE
8
BLACK
6
CONTINUOUS
10
0.914542
20
0.184239
11
0.912215
21
0.189336
0
LINE
8
BLACK
6
CONTINUOUS
10
0.912215
20
0.189336
11
0.911417
21
0.194882
0
LINE
8
BLACK
6
CONTINUOUS
10
0.911417
20
0.194882
11
0.912215
21
0.200428
0
LINE
8
BLACK
6
CONTINUOUS
10
0.912215
20
0.200428
11
0.914542
21
0.205524
0
LINE
8
BLACK
6
CONTINUOUS
10
0.914542
20
0.205524
11
0.918211
21
0.209759
0
LINE
8
BLACK
6
CONTINUOUS
10
0.918211
20
0.209759
11
0.922925
21
0.212788
0
LINE
8
BLACK
6
CONTINUOUS
10
0.922925
20
0.212788
11
0.928301
21
0.214367
0
LINE
8
BLACK
6
CONTINUOUS
10
0.928301
20
0.214367
11
0.933904
21
0.214367
0
LINE
8
BLACK
6
CONTINUOUS
10
0.933904
20
0.214367
11
0.93928
21
0.212788
0
LINE
8
BLACK
6
CONTINUOUS
10
1.14007
20
0.212788
11
1.14478
21
0.209759
0
LINE
8
BLACK
6
CONTINUOUS
10
1.14478
20
0.209759
11
1.14845
21
0.205524
0
LINE
8
BLACK
6
CONTINUOUS
10
1.14845
20
0.205524
11
1.15078
21
0.200428
0
LINE
8
BLACK
6
CONTINUOUS
10
1.15078
20
0.200428
11
1.15157
21
0.194882
0
LINE
8
BLACK
6
CONTINUOUS
10
1.15157
20
0.194882
11
1.15078
21
0.189336
0
LINE
8
BLACK
6
CONTINUOUS
10
1.15078
20
0.189336
11
1.14845
21
0.184239
0
LINE
8
BLACK
6
CONTINUOUS
10
1.14845
20
0.184239
11
1.14478
21
0.180005
0
LINE
8
BLACK
6
CONTINUOUS
10
1.14478
20
0.180005
11
1.14007
21
0.176976
0
LINE
8
BLACK
6
CONTINUOUS
10
1.14007
20
0.176976
11
1.13469
21
0.175397
0
LINE
8
BLACK
6
CONTINUOUS
10
1.13469
20
0.175397
11
1.12909
21
0.175397
0
LINE
8
BLACK
6
CONTINUOUS
10
1.12909
20
0.175397
11
1.12371
21
0.176976
0
LINE
8
BLACK
6
CONTINUOUS
10
1.12371
20
0.176976
11
1.119
21
0.180005
0
LINE
8
BLACK
6
CONTINUOUS
10
1.119
20
0.180005
11
1.11533
21
0.184239
0
LINE
8
BLACK
6
CONTINUOUS
10
1.11533
20
0.184239
11
1.113
21
0.189336
0
LINE
8
BLACK
6
CONTINUOUS
10
1.113
20
0.189336
11
1.1122
21
0.194882
0
LINE
8
BLACK
6
CONTINUOUS
10
1.1122
20
0.194882
11
1.113
21
0.200428
0
LINE
8
BLACK
6
CONTINUOUS
10
1.113
20
0.200428
11
1.11533
21
0.205524
0
LINE
8
BLACK
6
CONTINUOUS
10
1.11533
20
0.205524
11
1.119
21
0.209759
0
LINE
8
BLACK
6
CONTINUOUS
10
1.119
20
0.209759
11
1.12371
21
0.212788
0
LINE
8
BLACK
6
CONTINUOUS
10
1.12371
20
0.212788
11
1.12909
21
0.214367
0
LINE
8
BLACK
6
CONTINUOUS
10
1.12909
20
0.214367
11
1.13469
21
0.214367
0
LINE
8
BLACK
6
CONTINUOUS
10
1.13469
20
0.214367
11
1.14007
21
0.212788
0
LINE
8
BLACK
6
CONTINUOUS
10
0.222326
20
0.240569
11
0.226401
21
0.238577
0
LINE
8
BLACK
6
CONTINUOUS
10
0.226401
20
0.238577
11
0.229608
21
0.235369
0
LINE
8
BLACK
6
CONTINUOUS
10
0.229608
20
0.235369
11
0.2316
21
0.231294
0
LINE
8
BLACK
6
CONTINUOUS
10
0.2316
20
0.231294
11
0.232173
21
0.227362
0
LINE
8
BLACK
6
CONTINUOUS
10
0.232173
20
0.227362
11
0.232173
21
0.215551
0
LINE
8
BLACK
6
CONTINUOUS
10
0.232173
20
0.215551
11
0.2316
21
0.211619
0
LINE
8
BLACK
6
CONTINUOUS
10
0.2316
20
0.211619
11
0.229608
21
0.207544
0
LINE
8
BLACK
6
CONTINUOUS
10
0.229608
20
0.207544
11
0.226401
21
0.204337
0
LINE
8
BLACK
6
CONTINUOUS
10
0.226401
20
0.204337
11
0.222326
21
0.202344
0
LINE
8
BLACK
6
CONTINUOUS
10
0.222326
20
0.202344
11
0.218394
21
0.201772
0
LINE
8
BLACK
6
CONTINUOUS
10
0.218394
20
0.201772
11
0.163276
21
0.201772
0
LINE
8
BLACK
6
CONTINUOUS
10
0.163276
20
0.201772
11
0.159344
21
0.202344
0
LINE
8
BLACK
6
CONTINUOUS
10
0.159344
20
0.202344
11
0.155269
21
0.204337
0
LINE
8
BLACK
6
CONTINUOUS
10
0.155269
20
0.204337
11
0.152061
21
0.207544
0
LINE
8
BLACK
6
CONTINUOUS
10
0.152061
20
0.207544
11
0.150069
21
0.211619
0
LINE
8
BLACK
6
CONTINUOUS
10
0.150069
20
0.211619
11
0.149496
21
0.215551
0
LINE
8
BLACK
6
CONTINUOUS
10
0.149496
20
0.215551
11
0.149496
21
0.227362
0
LINE
8
BLACK
6
CONTINUOUS
10
0.149496
20
0.227362
11
0.150069
21
0.231294
0
LINE
8
BLACK
6
CONTINUOUS
10
0.150069
20
0.231294
11
0.152061
21
0.235369
0
LINE
8
BLACK
6
CONTINUOUS
10
0.152061
20
0.235369
11
0.155269
21
0.238577
0
LINE
8
BLACK
6
CONTINUOUS
10
0.155269
20
0.238577
11
0.159344
21
0.240569
0
LINE
8
BLACK
6
CONTINUOUS
10
0.159344
20
0.240569
11
0.163276
21
0.241142
0
LINE
8
BLACK
6
CONTINUOUS
10
0.163276
20
0.241142
11
0.218394
21
0.241142
0
LINE
8
BLACK
6
CONTINUOUS
10
0.218394
20
0.241142
11
0.222326
21
0.240569
0
LINE
8
BLACK
6
CONTINUOUS
10
0.863119
20
0.271831
11
0.869002
21
0.268744
0
LINE
8
BLACK
6
CONTINUOUS
10
0.869002
20
0.268744
11
0.873975
21
0.264338
0
LINE
8
BLACK
6
CONTINUOUS
10
0.873975
20
0.264338
11
0.877749
21
0.25887
0
LINE
8
BLACK
6
CONTINUOUS
10
0.877749
20
0.25887
11
0.880105
21
0.252658
0
LINE
8
BLACK
6
CONTINUOUS
10
0.880105
20
0.252658
11
0.880906
21
0.246063
0
LINE
8
BLACK
6
CONTINUOUS
10
0.880906
20
0.246063
11
0.880105
21
0.239468
0
LINE
8
BLACK
6
CONTINUOUS
10
0.880105
20
0.239468
11
0.877749
21
0.233256
0
LINE
8
BLACK
6
CONTINUOUS
10
0.877749
20
0.233256
11
0.873975
21
0.227788
0
LINE
8
BLACK
6
CONTINUOUS
10
0.873975
20
0.227788
11
0.869002
21
0.223382
0
LINE
8
BLACK
6
CONTINUOUS
10
0.869002
20
0.223382
11
0.863119
21
0.220295
0
LINE
8
BLACK
6
CONTINUOUS
10
0.863119
20
0.220295
11
0.856668
21
0.218705
0
LINE
8
BLACK
6
CONTINUOUS
10
0.856668
20
0.218705
11
0.850025
21
0.218705
0
LINE
8
BLACK
6
CONTINUOUS
10
0.850025
20
0.218705
11
0.843574
21
0.220295
0
LINE
8
BLACK
6
CONTINUOUS
10
0.843574
20
0.220295
11
0.837691
21
0.223382
0
LINE
8
BLACK
6
CONTINUOUS
10
0.837691
20
0.223382
11
0.832718
21
0.227788
0
LINE
8
BLACK
6
CONTINUOUS
10
0.832718
20
0.227788
11
0.828944
21
0.233256
0
LINE
8
BLACK
6
CONTINUOUS
10
0.828944
20
0.233256
11
0.826588
21
0.239468
0
LINE
8
BLACK
6
CONTINUOUS
10
0.826588
20
0.239468
11
0.825787
21
0.246063
0
LINE
8
BLACK
6
CONTINUOUS
10
0.825787
20
0.246063
11
0.826588
21
0.252658
0
LINE
8
BLACK
6
CONTINUOUS
10
0.826588
20
0.252658
11
0.828944
21
0.25887
0
LINE
8
BLACK
6
CONTINUOUS
10
0.828944
20
0.25887
11
0.832718
21
0.264338
0
LINE
8
BLACK
6
CONTINUOUS
10
0.832718
20
0.264338
11
0.837691
21
0.268744
0
LINE
8
BLACK
6
CONTINUOUS
10
0.837691
20
0.268744
11
0.843574
21
0.271831
0
LINE
8
BLACK
6
CONTINUOUS
10
0.843574
20
0.271831
11
0.850025
21
0.273421
0
LINE
8
BLACK
6
CONTINUOUS
10
0.850025
20
0.273421
11
0.856668
21
0.273421
0
LINE
8
BLACK
6
CONTINUOUS
10
0.856668
20
0.273421
11
0.863119
21
0.271831
0
LINE
8
BLACK
6
CONTINUOUS
10
0.222326
20
0.289781
11
0.226401
21
0.287789
0
LINE
8
BLACK
6
CONTINUOUS
10
0.226401
20
0.287789
11
0.229608
21
0.284582
0
LINE
8
BLACK
6
CONTINUOUS
10
0.229608
20
0.284582
11
0.2316
21
0.280507
0
LINE
8
BLACK
6
CONTINUOUS
10
0.2316
20
0.280507
11
0.232173
21
0.276575
0
LINE
8
BLACK
6
CONTINUOUS
10
0.232173
20
0.276575
11
0.232173
21
0.264764
0
LINE
8
BLACK
6
CONTINUOUS
10
0.232173
20
0.264764
11
0.2316
21
0.260832
0
LINE
8
BLACK
6
CONTINUOUS
10
0.2316
20
0.260832
11
0.229608
21
0.256757
0
LINE
8
BLACK
6
CONTINUOUS
10
0.229608
20
0.256757
11
0.226401
21
0.253549
0
LINE
8
BLACK
6
CONTINUOUS
10
0.226401
20
0.253549
11
0.222326
21
0.251557
0
LINE
8
BLACK
6
CONTINUOUS
10
0.222326
20
0.251557
11
0.218394
21
0.250984
0
LINE
8
BLACK
6
CONTINUOUS
10
0.218394
20
0.250984
11
0.163276
21
0.250984
0
LINE
8
BLACK
6
CONTINUOUS
10
0.163276
20
0.250984
11
0.159344
21
0.251557
0
LINE
8
BLACK
6
CONTINUOUS
10
0.159344
20
0.251557
11
0.155269
21
0.253549
0
LINE
8
BLACK
6
CONTINUOUS
10
0.155269
20
0.253549
11
0.152061
21
0.256757
0
LINE
8
BLACK
6
CONTINUOUS
10
0.152061
20
0.256757
11
0.150069
21
0.260832
0
LINE
8
BLACK
6
CONTINUOUS
10
0.150069
20
0.260832
11
0.149496
21
0.264764
0
LINE
8
BLACK
6
CONTINUOUS
10
0.149496
20
0.264764
11
0.149496
21
0.276575
0
LINE
8
BLACK
6
CONTINUOUS
10
0.149496
20
0.276575
11
0.150069
21
0.280507
0
LINE
8
BLACK
6
CONTINUOUS
10
0.150069
20
0.280507
11
0.152061
21
0.284582
0
LINE
8
BLACK
6
CONTINUOUS
10
0.152061
20
0.284582
11
0.155269
21
0.287789
0
LINE
8
BLACK
6
CONTINUOUS
10
0.155269
20
0.287789
11
0.159344
21
0.289781
0
LINE
8
BLACK
6
CONTINUOUS
10
0.159344
20
0.289781
11
0.163276
21
0.290354
0
LINE
8
BLACK
6
CONTINUOUS
10
0.163276
20
0.290354
11
0.218394
21
0.290354
0
LINE
8
BLACK
6
CONTINUOUS
10
0.218394
20
0.290354
11
0.222326
21
0.289781
0
LINE
8
BLACK
6
CONTINUOUS
10
0.222326
20
0.338994
11
0.226401
21
0.337002
0
LINE
8
BLACK
6
CONTINUOUS
10
0.226401
20
0.337002
11
0.229608
21
0.333794
0
LINE
8
BLACK
6
CONTINUOUS
10
0.229608
20
0.333794
11
0.2316
21
0.329719
0
LINE
8
BLACK
6
CONTINUOUS
10
0.2316
20
0.329719
11
0.232173
21
0.325787
0
LINE
8
BLACK
6
CONTINUOUS
10
0.232173
20
0.325787
11
0.232173
21
0.313976
0
LINE
8
BLACK
6
CONTINUOUS
10
0.232173
20
0.313976
11
0.2316
21
0.310045
0
LINE
8
BLACK
6
CONTINUOUS
10
0.2316
20
0.310045
11
0.229608
21
0.305969
0
LINE
8
BLACK
6
CONTINUOUS
10
0.229608
20
0.305969
11
0.226401
21
0.302762
0
LINE
8
BLACK
6
CONTINUOUS
10
0.226401
20
0.302762
11
0.222326
21
0.30077
0
LINE
8
BLACK
6
CONTINUOUS
10
0.222326
20
0.30077
11
0.218394
21
0.300197
0
LINE
8
BLACK
6
CONTINUOUS
10
0.218394
20
0.300197
11
0.163276
21
0.300197
0
LINE
8
BLACK
6
CONTINUOUS
10
0.163276
20
0.300197
11
0.159344
21
0.30077
0
LINE
8
BLACK
6
CONTINUOUS
10
0.159344
20
0.30077
11
0.155269
21
0.302762
0
LINE
8
BLACK
6
CONTINUOUS
10
0.155269
20
0.302762
11
0.152061
21
0.305969
0
LINE
8
BLACK
6
CONTINUOUS
10
0.152061
20
0.305969
11
0.150069
21
0.310045
0
LINE
8
BLACK
6
CONTINUOUS
10
0.150069
20
0.310045
11
0.149496
21
0.313976
0
LINE
8
BLACK
6
CONTINUOUS
10
0.149496
20
0.313976
11
0.149496
21
0.325787
0
LINE
8
BLACK
6
CONTINUOUS
10
0.149496
20
0.325787
11
0.150069
21
0.329719
0
LINE
8
BLACK
6
CONTINUOUS
10
0.150069
20
0.329719
11
0.152061
21
0.333794
0
LINE
8
BLACK
6
CONTINUOUS
10
0.152061
20
0.333794
11
0.155269
21
0.337002
0
LINE
8
BLACK
6
CONTINUOUS
10
0.155269
20
0.337002
11
0.159344
21
0.338994
0
LINE
8
BLACK
6
CONTINUOUS
10
0.159344
20
0.338994
11
0.163276
21
0.339567
0
LINE
8
BLACK
6
CONTINUOUS
10
0.163276
20
0.339567
11
0.218394
21
0.339567
0
LINE
8
BLACK
6
CONTINUOUS
10
0.218394
20
0.339567
11
0.222326
21
0.338994
0
LINE
8
BLACK
6
CONTINUOUS
10
0.863119
20
0.370256
11
0.869002
21
0.367169
0
LINE
8
BLACK
6
CONTINUOUS
10
0.869002
20
0.367169
11
0.873975
21
0.362763
0
LINE
8
BLACK
6
CONTINUOUS
10
0.873975
20
0.362763
11
0.877749
21
0.357296
0
LINE
8
BLACK
6
CONTINUOUS
10
0.877749
20
0.357296
11
0.880105
21
0.351084
0
LINE
8
BLACK
6
CONTINUOUS
10
0.880105
20
0.351084
11
0.880906
21
0.344488
0
LINE
8
BLACK
6
CONTINUOUS
10
0.880906
20
0.344488
11
0.880105
21
0.337893
0
LINE
8
BLACK
6
CONTINUOUS
10
0.880105
20
0.337893
11
0.877749
21
0.331681
0
LINE
8
BLACK
6
CONTINUOUS
10
0.877749
20
0.331681
11
0.873975
21
0.326213
0
LINE
8
BLACK
6
CONTINUOUS
10
0.873975
20
0.326213
11
0.869002
21
0.321808
0
LINE
8
BLACK
6
CONTINUOUS
10
0.869002
20
0.321808
11
0.863119
21
0.31872
0
LINE
8
BLACK
6
CONTINUOUS
10
0.863119
20
0.31872
11
0.856668
21
0.31713
0
LINE
8
BLACK
6
CONTINUOUS
10
0.856668
20
0.31713
11
0.850025
21
0.31713
0
LINE
8
BLACK
6
CONTINUOUS
10
0.850025
20
0.31713
11
0.843574
21
0.31872
0
LINE
8
BLACK
6
CONTINUOUS
10
0.843574
20
0.31872
11
0.837691
21
0.321808
0
LINE
8
BLACK
6
CONTINUOUS
10
0.837691
20
0.321808
11
0.832718
21
0.326213
0
LINE
8
BLACK
6
CONTINUOUS
10
0.832718
20
0.326213
11
0.828944
21
0.331681
0
LINE
8
BLACK
6
CONTINUOUS
10
0.828944
20
0.331681
11
0.826588
21
0.337893
0
LINE
8
BLACK
6
CONTINUOUS
10
0.826588
20
0.337893
11
0.825787
21
0.344488
0
LINE
8
BLACK
6
CONTINUOUS
10
0.825787
20
0.344488
11
0.826588
21
0.351084
0
LINE
8
BLACK
6
CONTINUOUS
10
0.826588
20
0.351084
11
0.828944
21
0.357296
0
LINE
8
BLACK
6
CONTINUOUS
10
0.828944
20
0.357296
11
0.832718
21
0.362763
0
LINE
8
BLACK
6
CONTINUOUS
10
0.832718
20
0.362763
11
0.837691
21
0.367169
0
LINE
8
BLACK
6
CONTINUOUS
10
0.837691
20
0.367169
11
0.843574
21
0.370256
0
LINE
8
BLACK
6
CONTINUOUS
10
0.843574
20
0.370256
11
0.850025
21
0.371846
0
LINE
8
BLACK
6
CONTINUOUS
10
0.850025
20
0.371846
11
0.856668
21
0.371846
0
LINE
8
BLACK
6
CONTINUOUS
10
0.856668
20
0.371846
11
0.863119
21
0.370256
0
LINE
8
BLACK
6
CONTINUOUS
10
0.222326
20
0.388207
11
0.226401
21
0.386214
0
LINE
8
BLACK
6
CONTINUOUS
10
0.226401
20
0.386214
11
0.229608
21
0.383007
0
LINE
8
BLACK
6
CONTINUOUS
10
0.229608
20
0.383007
11
0.2316
21
0.378932
0
LINE
8
BLACK
6
CONTINUOUS
10
0.2316
20
0.378932
11
0.232173
21
0.375
0
LINE
8
BLACK
6
CONTINUOUS
10
0.232173
20
0.375
11
0.232173
21
0.363189
0
LINE
8
BLACK
6
CONTINUOUS
10
0.232173
20
0.363189
11
0.2316
21
0.359257
0
LINE
8
BLACK
6
CONTINUOUS
10
0.2316
20
0.359257
11
0.229608
21
0.355182
0
LINE
8
BLACK
6
CONTINUOUS
10
0.229608
20
0.355182
11
0.226401
21
0.351975
0
LINE
8
BLACK
6
CONTINUOUS
10
0.226401
20
0.351975
11
0.222326
21
0.349982
0
LINE
8
BLACK
6
CONTINUOUS
10
0.222326
20
0.349982
11
0.218394
21
0.349409
0
LINE
8
BLACK
6
CONTINUOUS
10
0.218394
20
0.349409
11
0.163276
21
0.349409
0
LINE
8
BLACK
6
CONTINUOUS
10
0.163276
20
0.349409
11
0.159344
21
0.349982
0
LINE
8
BLACK
6
CONTINUOUS
10
0.159344
20
0.349982
11
0.155269
21
0.351975
0
LINE
8
BLACK
6
CONTINUOUS
10
0.155269
20
0.351975
11
0.152061
21
0.355182
0
LINE
8
BLACK
6
CONTINUOUS
10
0.152061
20
0.355182
11
0.150069
21
0.359257
0
LINE
8
BLACK
6
CONTINUOUS
10
0.150069
20
0.359257
11
0.149496
21
0.363189
0
LINE
8
BLACK
6
CONTINUOUS
10
0.149496
20
0.363189
11
0.149496
21
0.375
0
LINE
8
BLACK
6
CONTINUOUS
10
0.149496
20
0.375
11
0.150069
21
0.378932
0
LINE
8
BLACK
6
CONTINUOUS
10
0.150069
20
0.378932
11
0.152061
21
0.383007
0
LINE
8
BLACK
6
CONTINUOUS
10
0.152061
20
0.383007
11
0.155269
21
0.386214
0
LINE
8
BLACK
6
CONTINUOUS
10
0.155269
20
0.386214
11
0.159344
21
0.388207
0
LINE
8
BLACK
6
CONTINUOUS
10
0.159344
20
0.388207
11
0.163276
21
0.38878
0
LINE
8
BLACK
6
CONTINUOUS
10
0.163276
20
0.38878
11
0.218394
21
0.38878
0
LINE
8
BLACK
6
CONTINUOUS
10
0.218394
20
0.38878
11
0.222326
21
0.388207
0
LINE
8
BLACK
6
CONTINUOUS
10
0.93928
20
0.413575
11
0.943993
21
0.410546
0
LINE
8
BLACK
6
CONTINUOUS
10
0.943993
20
0.410546
11
0.947662
21
0.406312
0
LINE
8
BLACK
6
CONTINUOUS
10
0.947662
20
0.406312
11
0.94999
21
0.401215
0
LINE
8
BLACK
6
CONTINUOUS
10
0.94999
20
0.401215
11
0.950787
21
0.395669
0
LINE
8
BLACK
6
CONTINUOUS
10
0.950787
20
0.395669
11
0.94999
21
0.390123
0
LINE
8
BLACK
6
CONTINUOUS
10
0.94999
20
0.390123
11
0.947662
21
0.385027
0
LINE
8
BLACK
6
CONTINUOUS
10
0.947662
20
0.385027
11
0.943993
21
0.380792
0
LINE
8
BLACK
6
CONTINUOUS
10
0.943993
20
0.380792
11
0.93928
21
0.377763
0
LINE
8
BLACK
6
CONTINUOUS
10
0.93928
20
0.377763
11
0.933904
21
0.376185
0
LINE
8
BLACK
6
CONTINUOUS
10
0.933904
20
0.376185
11
0.928301
21
0.376185
0
LINE
8
BLACK
6
CONTINUOUS
10
0.928301
20
0.376185
11
0.922925
21
0.377763
0
LINE
8
BLACK
6
CONTINUOUS
10
0.922925
20
0.377763
11
0.918211
21
0.380792
0
LINE
8
BLACK
6
CONTINUOUS
10
0.918211
20
0.380792
11
0.914542
21
0.385027
0
LINE
8
BLACK
6
CONTINUOUS
10
0.914542
20
0.385027
11
0.912215
21
0.390123
0
LINE
8
BLACK
6
CONTINUOUS
10
0.912215
20
0.390123
11
0.911417
21
0.395669
0
LINE
8
BLACK
6
CONTINUOUS
10
0.911417
20
0.395669
11
0.912215
21
0.401215
0
LINE
8
BLACK
6
CONTINUOUS
10
0.912215
20
0.401215
11
0.914542
21
0.406312
0
LINE
8
BLACK
6
CONTINUOUS
10
0.914542
20
0.406312
11
0.918211
21
0.410546
0
LINE
8
BLACK
6
CONTINUOUS
10
0.918211
20
0.410546
11
0.922925
21
0.413575
0
LINE
8
BLACK
6
CONTINUOUS
10
0.922925
20
0.413575
11
0.928301
21
0.415154
0
LINE
8
BLACK
6
CONTINUOUS
10
0.928301
20
0.415154
11
0.933904
21
0.415154
0
LINE
8
BLACK
6
CONTINUOUS
10
0.933904
20
0.415154
11
0.93928
21
0.413575
0
LINE
8
BLACK
6
CONTINUOUS
10
1.14007
20
0.413575
11
1.14478
21
0.410546
0
LINE
8
BLACK
6
CONTINUOUS
10
1.14478
20
0.410546
11
1.14845
21
0.406312
0
LINE
8
BLACK
6
CONTINUOUS
10
1.14845
20
0.406312
11
1.15078
21
0.401215
0
LINE
8
BLACK
6
CONTINUOUS
10
1.15078
20
0.401215
11
1.15157
21
0.395669
0
LINE
8
BLACK
6
CONTINUOUS
10
1.15157
20
0.395669
11
1.15078
21
0.390123
0
LINE
8
BLACK
6
CONTINUOUS
10
1.15078
20
0.390123
11
1.14845
21
0.385027
0
LINE
8
BLACK
6
CONTINUOUS
10
1.14845
20
0.385027
11
1.14478
21
0.380792
0
LINE
8
BLACK
6
CONTINUOUS
10
1.14478
20
0.380792
11
1.14007
21
0.377763
0
LINE
8
BLACK
6
CONTINUOUS
10
1.14007
20
0.377763
11
1.13469
21
0.376185
0
LINE
8
BLACK
6
CONTINUOUS
10
1.13469
20
0.376185
11
1.12909
21
0.376185
0
LINE
8
BLACK
6
CONTINUOUS
10
1.12909
20
0.376185
11
1.12371
21
0.377763
0
LINE
8
BLACK
6
CONTINUOUS
10
1.12371
20
0.377763
11
1.119
21
0.380792
0
LINE
8
BLACK
6
CONTINUOUS
10
1.119
20
0.380792
11
1.11533
21
0.385027
0
LINE
8
BLACK
6
CONTINUOUS
10
1.11533
20
0.385027
11
1.113
21
0.390123
0
LINE
8
BLACK
6
CONTINUOUS
10
1.113
20
0.390123
11
1.1122
21
0.395669
0
LINE
8
BLACK
6
CONTINUOUS
10
1.1122
20
0.395669
11
1.113
21
0.401215
0
LINE
8
BLACK
6
CONTINUOUS
10
1.113
20
0.401215
11
1.11533
21
0.406312
0
LINE
8
BLACK
6
CONTINUOUS
10
1.11533
20
0.406312
11
1.119
21
0.410546
0
LINE
8
BLACK
6
CONTINUOUS
10
1.119
20
0.410546
11
1.12371
21
0.413575
0
LINE
8
BLACK
6
CONTINUOUS
10
1.12371
20
0.413575
11
1.12909
21
0.415154
0
LINE
8
BLACK
6
CONTINUOUS
10
1.12909
20
0.415154
11
1.13469
21
0.415154
0
LINE
8
BLACK
6
CONTINUOUS
10
1.13469
20
0.415154
11
1.14007
21
0.413575
0
LINE
8
BLACK
6
CONTINUOUS
10
0.863119
20
0.448996
11
0.869002
21
0.445909
0
LINE
8
BLACK
6
CONTINUOUS
10
0.869002
20
0.445909
11
0.873975
21
0.441503
0
LINE
8
BLACK
6
CONTINUOUS
10
0.873975
20
0.441503
11
0.877749
21
0.436036
0
LINE
8
BLACK
6
CONTINUOUS
10
0.877749
20
0.436036
11
0.880105
21
0.429824
0
LINE
8
BLACK
6
CONTINUOUS
10
0.880105
20
0.429824
11
0.880906
21
0.423228
0
LINE
8
BLACK
6
CONTINUOUS
10
0.880906
20
0.423228
11
0.880105
21
0.416633
0
LINE
8
BLACK
6
CONTINUOUS
10
0.880105
20
0.416633
11
0.877749
21
0.410421
0
LINE
8
BLACK
6
CONTINUOUS
10
0.877749
20
0.410421
11
0.873975
21
0.404953
0
LINE
8
BLACK
6
CONTINUOUS
10
0.873975
20
0.404953
11
0.869002
21
0.400548
0
LINE
8
BLACK
6
CONTINUOUS
10
0.869002
20
0.400548
11
0.863119
21
0.39746
0
LINE
8
BLACK
6
CONTINUOUS
10
0.863119
20
0.39746
11
0.856668
21
0.39587
0
LINE
8
BLACK
6
CONTINUOUS
10
0.856668
20
0.39587
11
0.850025
21
0.39587
0
LINE
8
BLACK
6
CONTINUOUS
10
0.850025
20
0.39587
11
0.843574
21
0.39746
0
LINE
8
BLACK
6
CONTINUOUS
10
0.843574
20
0.39746
11
0.837691
21
0.400548
0
LINE
8
BLACK
6
CONTINUOUS
10
0.837691
20
0.400548
11
0.832718
21
0.404953
0
LINE
8
BLACK
6
CONTINUOUS
10
0.832718
20
0.404953
11
0.828944
21
0.410421
0
LINE
8
BLACK
6
CONTINUOUS
10
0.828944
20
0.410421
11
0.826588
21
0.416633
0
LINE
8
BLACK
6
CONTINUOUS
10
0.826588
20
0.416633
11
0.825787
21
0.423228
0
LINE
8
BLACK
6
CONTINUOUS
10
0.825787
20
0.423228
11
0.826588
21
0.429824
0
LINE
8
BLACK
6
CONTINUOUS
10
0.826588
20
0.429824
11
0.828944
21
0.436036
0
LINE
8
BLACK
6
CONTINUOUS
10
0.828944
20
0.436036
11
0.832718
21
0.441503
0
LINE
8
BLACK
6
CONTINUOUS
10
0.832718
20
0.441503
11
0.837691
21
0.445909
0
LINE
8
BLACK
6
CONTINUOUS
10
0.837691
20
0.445909
11
0.843574
21
0.448996
0
LINE
8
BLACK
6
CONTINUOUS
10
0.843574
20
0.448996
11
0.850025
21
0.450586
0
LINE
8
BLACK
6
CONTINUOUS
10
0.850025
20
0.450586
11
0.856668
21
0.450586
0
LINE
8
BLACK
6
CONTINUOUS
10
0.856668
20
0.450586
11
0.863119
21
0.448996
0
LINE
8
BLACK
6
CONTINUOUS
10
0.111451
20
0.469179
11
0.116436
21
0.467435
0
LINE
8
BLACK
6
CONTINUOUS
10
0.116436
20
0.467435
11
0.120685
21
0.464299
0
LINE
8
BLACK
6
CONTINUOUS
10
0.120685
20
0.464299
11
0.123821
21
0.46005
0
LINE
8
BLACK
6
CONTINUOUS
10
0.123821
20
0.46005
11
0.125565
21
0.455065
0
LINE
8
BLACK
6
CONTINUOUS
10
0.125565
20
0.455065
11
0.125874
21
0.451772
0
LINE
8
BLACK
6
CONTINUOUS
10
0.125874
20
0.451772
11
0.125874
21
0.432087
0
LINE
8
BLACK
6
CONTINUOUS
10
0.125874
20
0.432087
11
0.125565
21
0.428793
0
LINE
8
BLACK
6
CONTINUOUS
10
0.125565
20
0.428793
11
0.123821
21
0.423808
0
LINE
8
BLACK
6
CONTINUOUS
10
0.123821
20
0.423808
11
0.120685
21
0.419559
0
LINE
8
BLACK
6
CONTINUOUS
10
0.120685
20
0.419559
11
0.116436
21
0.416423
0
LINE
8
BLACK
6
CONTINUOUS
10
0.116436
20
0.416423
11
0.111451
21
0.414679
0
LINE
8
BLACK
6
CONTINUOUS
10
0.111451
20
0.414679
11
0.108157
21
0.41437
0
LINE
8
BLACK
6
CONTINUOUS
10
0.108157
20
0.41437
11
0.0215433
21
0.41437
0
LINE
8
BLACK
6
CONTINUOUS
10
0.0215433
20
0.41437
11
0.0182496
21
0.414679
0
LINE
8
BLACK
6
CONTINUOUS
10
0.0182496
20
0.414679
11
0.0132649
21
0.416423
0
LINE
8
BLACK
6
CONTINUOUS
10
0.0132649
20
0.416423
11
0.00901583
21
0.419559
0
LINE
8
BLACK
6
CONTINUOUS
10
0.00901583
20
0.419559
11
0.00587984
21
0.423808
0
LINE
8
BLACK
6
CONTINUOUS
10
0.00587984
20
0.423808
11
0.00413563
21
0.428793
0
LINE
8
BLACK
6
CONTINUOUS
10
0.00413563
20
0.428793
11
0.00382677
21
0.432087
0
LINE
8
BLACK
6
CONTINUOUS
10
0.00382677
20
0.432087
11
0.00382677
21
0.451772
0
LINE
8
BLACK
6
CONTINUOUS
10
0.00382677
20
0.451772
11
0.00413563
21
0.455065
0
LINE
8
BLACK
6
CONTINUOUS
10
0.00413563
20
0.455065
11
0.00587984
21
0.46005
0
LINE
8
BLACK
6
CONTINUOUS
10
0.00587984
20
0.46005
11
0.00901583
21
0.464299
0
LINE
8
BLACK
6
CONTINUOUS
10
0.00901583
20
0.464299
11
0.0132649
21
0.467435
0
LINE
8
BLACK
6
CONTINUOUS
10
0.0132649
20
0.467435
11
0.0182496
21
0.469179
0
LINE
8
BLACK
6
CONTINUOUS
10
0.0182496
20
0.469179
11
0.0215433
21
0.469488
0
LINE
8
BLACK
6
CONTINUOUS
10
0.0215433
20
0.469488
11
0.108157
21
0.469488
0
LINE
8
BLACK
6
CONTINUOUS
10
0.108157
20
0.469488
11
0.111451
21
0.469179
0
LINE
8
BLACK
6
CONTINUOUS
10
0.908395
20
0.499319
11
0.914277
21
0.496232
0
LINE
8
BLACK
6
CONTINUOUS
10
0.914277
20
0.496232
11
0.91925
21
0.491826
0
LINE
8
BLACK
6
CONTINUOUS
10
0.91925
20
0.491826
11
0.923024
21
0.486359
0
LINE
8
BLACK
6
CONTINUOUS
10
0.923024
20
0.486359
11
0.92538
21
0.480146
0
LINE
8
BLACK
6
CONTINUOUS
10
0.92538
20
0.480146
11
0.926181
21
0.473551
0
LINE
8
BLACK
6
CONTINUOUS
10
0.926181
20
0.473551
11
0.92538
21
0.466956
0
LINE
8
BLACK
6
CONTINUOUS
10
0.92538
20
0.466956
11
0.923024
21
0.460744
0
LINE
8
BLACK
6
CONTINUOUS
10
0.923024
20
0.460744
11
0.91925
21
0.455276
0
LINE
8
BLACK
6
CONTINUOUS
10
0.91925
20
0.455276
11
0.914277
21
0.450871
0
LINE
8
BLACK
6
CONTINUOUS
10
0.914277
20
0.450871
11
0.908395
21
0.447783
0
LINE
8
BLACK
6
CONTINUOUS
10
0.908395
20
0.447783
11
0.901944
21
0.446193
0
LINE
8
BLACK
6
CONTINUOUS
10
0.901944
20
0.446193
11
0.8953
21
0.446193
0
LINE
8
BLACK
6
CONTINUOUS
10
0.8953
20
0.446193
11
0.888849
21
0.447783
0
LINE
8
BLACK
6
CONTINUOUS
10
0.888849
20
0.447783
11
0.882967
21
0.450871
0
LINE
8
BLACK
6
CONTINUOUS
10
0.882967
20
0.450871
11
0.877994
21
0.455276
0
LINE
8
BLACK
6
CONTINUOUS
10
0.877994
20
0.455276
11
0.87422
21
0.460744
0
LINE
8
BLACK
6
CONTINUOUS
10
0.87422
20
0.460744
11
0.871864
21
0.466956
0
LINE
8
BLACK
6
CONTINUOUS
10
0.871864
20
0.466956
11
0.871063
21
0.473551
0
LINE
8
BLACK
6
CONTINUOUS
10
0.871063
20
0.473551
11
0.871864
21
0.480146
0
LINE
8
BLACK
6
CONTINUOUS
10
0.871864
20
0.480146
11
0.87422
21
0.486359
0
LINE
8
BLACK
6
CONTINUOUS
10
0.87422
20
0.486359
11
0.877994
21
0.491826
0
LINE
8
BLACK
6
CONTINUOUS
10
0.877994
20
0.491826
11
0.882967
21
0.496232
0
LINE
8
BLACK
6
CONTINUOUS
10
0.882967
20
0.496232
11
0.888849
21
0.499319
0
LINE
8
BLACK
6
CONTINUOUS
10
0.888849
20
0.499319
11
0.8953
21
0.500909
0
LINE
8
BLACK
6
CONTINUOUS
10
0.8953
20
0.500909
11
0.901944
21
0.500909
0
LINE
8
BLACK
6
CONTINUOUS
10
0.901944
20
0.500909
11
0.908395
21
0.499319
0
LINE
8
BLACK
6
CONTINUOUS
10
0.954773
20
0.542768
11
0.960655
21
0.539681
0
LINE
8
BLACK
6
CONTINUOUS
10
0.960655
20
0.539681
11
0.965628
21
0.535275
0
LINE
8
BLACK
6
CONTINUOUS
10
0.965628
20
0.535275
11
0.969402
21
0.529807
0
LINE
8
BLACK
6
CONTINUOUS
10
0.969402
20
0.529807
11
0.971758
21
0.523595
0
LINE
8
BLACK
6
CONTINUOUS
10
0.971758
20
0.523595
11
0.972559
21
0.517
0
LINE
8
BLACK
6
CONTINUOUS
10
0.972559
20
0.517
11
0.971758
21
0.510405
0
LINE
8
BLACK
6
CONTINUOUS
10
0.971758
20
0.510405
11
0.969402
21
0.504193
0
LINE
8
BLACK
6
CONTINUOUS
10
0.969402
20
0.504193
11
0.965628
21
0.498725
0
LINE
8
BLACK
6
CONTINUOUS
10
0.965628
20
0.498725
11
0.960655
21
0.494319
0
LINE
8
BLACK
6
CONTINUOUS
10
0.960655
20
0.494319
11
0.954773
21
0.491232
0
LINE
8
BLACK
6
CONTINUOUS
10
0.954773
20
0.491232
11
0.948322
21
0.489642
0
LINE
8
BLACK
6
CONTINUOUS
10
0.948322
20
0.489642
11
0.941678
21
0.489642
0
LINE
8
BLACK
6
CONTINUOUS
10
0.941678
20
0.489642
11
0.935227
21
0.491232
0
LINE
8
BLACK
6
CONTINUOUS
10
0.935227
20
0.491232
11
0.929345
21
0.494319
0
LINE
8
BLACK
6
CONTINUOUS
10
0.929345
20
0.494319
11
0.924372
21
0.498725
0
LINE
8
BLACK
6
CONTINUOUS
10
0.924372
20
0.498725
11
0.920598
21
0.504193
0
LINE
8
BLACK
6
CONTINUOUS
10
0.920598
20
0.504193
11
0.918242
21
0.510405
0
LINE
8
BLACK
6
CONTINUOUS
10
0.918242
20
0.510405
11
0.917441
21
0.517
0
LINE
8
BLACK
6
CONTINUOUS
10
0.917441
20
0.517
11
0.918242
21
0.523595
0
LINE
8
BLACK
6
CONTINUOUS
10
0.918242
20
0.523595
11
0.920598
21
0.529807
0
LINE
8
BLACK
6
CONTINUOUS
10
0.920598
20
0.529807
11
0.924372
21
0.535275
0
LINE
8
BLACK
6
CONTINUOUS
10
0.924372
20
0.535275
11
0.929345
21
0.539681
0
LINE
8
BLACK
6
CONTINUOUS
10
0.929345
20
0.539681
11
0.935227
21
0.542768
0
LINE
8
BLACK
6
CONTINUOUS
10
0.935227
20
0.542768
11
0.941678
21
0.544358
0
LINE
8
BLACK
6
CONTINUOUS
10
0.941678
20
0.544358
11
0.948322
21
0.544358
0
LINE
8
BLACK
6
CONTINUOUS
10
0.948322
20
0.544358
11
0.954773
21
0.542768
0
LINE
8
BLACK
6
CONTINUOUS
10
0.112922
20
0.647799
11
0.122147
21
0.644632
0
LINE
8
BLACK
6
CONTINUOUS
10
0.122147
20
0.644632
11
0.130725
21
0.63999
0
LINE
8
BLACK
6
CONTINUOUS
10
0.130725
20
0.63999
11
0.138422
21
0.633999
0
LINE
8
BLACK
6
CONTINUOUS
10
0.138422
20
0.633999
11
0.145028
21
0.626824
0
LINE
8
BLACK
6
CONTINUOUS
10
0.145028
20
0.626824
11
0.150363
21
0.618658
0
LINE
8
BLACK
6
CONTINUOUS
10
0.150363
20
0.618658
11
0.154281
21
0.609726
0
LINE
8
BLACK
6
CONTINUOUS
10
0.154281
20
0.609726
11
0.156675
21
0.600271
0
LINE
8
BLACK
6
CONTINUOUS
10
0.156675
20
0.600271
11
0.15748
21
0.590551
0
LINE
8
BLACK
6
CONTINUOUS
10
0.15748
20
0.590551
11
0.156675
21
0.580831
0
LINE
8
BLACK
6
CONTINUOUS
10
0.156675
20
0.580831
11
0.154281
21
0.571376
0
LINE
8
BLACK
6
CONTINUOUS
10
0.154281
20
0.571376
11
0.150363
21
0.562444
0
LINE
8
BLACK
6
CONTINUOUS
10
0.150363
20
0.562444
11
0.145028
21
0.554279
0
LINE
8
BLACK
6
CONTINUOUS
10
0.145028
20
0.554279
11
0.138422
21
0.547103
0
LINE
8
BLACK
6
CONTINUOUS
10
0.138422
20
0.547103
11
0.130725
21
0.541112
0
LINE
8
BLACK
6
CONTINUOUS
10
0.130725
20
0.541112
11
0.122147
21
0.53647
0
LINE
8
BLACK
6
CONTINUOUS
10
0.122147
20
0.53647
11
0.112922
21
0.533303
0
LINE
8
BLACK
6
CONTINUOUS
10
0.112922
20
0.533303
11
0.103302
21
0.531698
0
LINE
8
BLACK
6
CONTINUOUS
10
0.103302
20
0.531698
11
0.0935485
21
0.531698
0
LINE
8
BLACK
6
CONTINUOUS
10
0.0935485
20
0.531698
11
0.083928
21
0.533303
0
LINE
8
BLACK
6
CONTINUOUS
10
0.083928
20
0.533303
11
0.074703
21
0.53647
0
LINE
8
BLACK
6
CONTINUOUS
10
0.074703
20
0.53647
11
0.0661251
21
0.541112
0
LINE
8
BLACK
6
CONTINUOUS
10
0.0661251
20
0.541112
11
0.0584283
21
0.547103
0
LINE
8
BLACK
6
CONTINUOUS
10
0.0584283
20
0.547103
11
0.0518224
21
0.554279
0
LINE
8
BLACK
6
CONTINUOUS
10
0.0518224
20
0.554279
11
0.0464878
21
0.562444
0
LINE
8
BLACK
6
CONTINUOUS
10
0.0464878
20
0.562444
11
0.0425698
21
0.571376
0
LINE
8
BLACK
6
CONTINUOUS
10
0.0425698
20
0.571376
11
0.0401755
21
0.580831
0
LINE
8
BLACK
6
CONTINUOUS
10
0.0401755
20
0.580831
11
0.0393701
21
0.590551
0
LINE
8
BLACK
6
CONTINUOUS
10
0.0393701
20
0.590551
11
0.0401755
21
0.600271
0
LINE
8
BLACK
6
CONTINUOUS
10
0.0401755
20
0.600271
11
0.0425698
21
0.609726
0
LINE
8
BLACK
6
CONTINUOUS
10
0.0425698
20
0.609726
11
0.0464878
21
0.618658
0
LINE
8
BLACK
6
CONTINUOUS
10
0.0464878
20
0.618658
11
0.0518224
21
0.626824
0
LINE
8
BLACK
6
CONTINUOUS
10
0.0518224
20
0.626824
11
0.0584283
21
0.633999
0
LINE
8
BLACK
6
CONTINUOUS
10
0.0584283
20
0.633999
11
0.0661251
21
0.63999
0
LINE
8
BLACK
6
CONTINUOUS
10
0.0661251
20
0.63999
11
0.074703
21
0.644632
0
LINE
8
BLACK
6
CONTINUOUS
10
0.074703
20
0.644632
11
0.083928
21
0.647799
0
LINE
8
BLACK
6
CONTINUOUS
10
0.083928
20
0.647799
11
0.0935485
21
0.649405
0
LINE
8
BLACK
6
CONTINUOUS
10
0.0935485
20
0.649405
11
0.103302
21
0.649405
0
LINE
8
BLACK
6
CONTINUOUS
10
0.103302
20
0.649405
11
0.112922
21
0.647799
0
LINE
8
BLACK
6
CONTINUOUS
10
0.506623
20
0.647799
11
0.515848
21
0.644632
0
LINE
8
BLACK
6
CONTINUOUS
10
0.515848
20
0.644632
11
0.524426
21
0.63999
0
LINE
8
BLACK
6
CONTINUOUS
10
0.524426
20
0.63999
11
0.532123
21
0.633999
0
LINE
8
BLACK
6
CONTINUOUS
10
0.532123
20
0.633999
11
0.538729
21
0.626824
0
LINE
8
BLACK
6
CONTINUOUS
10
0.538729
20
0.626824
11
0.544063
21
0.618658
0
LINE
8
BLACK
6
CONTINUOUS
10
0.544063
20
0.618658
11
0.547981
21
0.609726
0
LINE
8
BLACK
6
CONTINUOUS
10
0.547981
20
0.609726
11
0.550376
21
0.600271
0
LINE
8
BLACK
6
CONTINUOUS
10
0.550376
20
0.600271
11
0.551181
21
0.590551
0
LINE
8
BLACK
6
CONTINUOUS
10
0.551181
20
0.590551
11
0.550376
21
0.580831
0
LINE
8
BLACK
6
CONTINUOUS
10
0.550376
20
0.580831
11
0.547981
21
0.571376
0
LINE
8
BLACK
6
CONTINUOUS
10
0.547981
20
0.571376
11
0.544063
21
0.562444
0
LINE
8
BLACK
6
CONTINUOUS
10
0.544063
20
0.562444
11
0.538729
21
0.554279
0
LINE
8
BLACK
6
CONTINUOUS
10
0.538729
20
0.554279
11
0.532123
21
0.547103
0
LINE
8
BLACK
6
CONTINUOUS
10
0.532123
20
0.547103
11
0.524426
21
0.541112
0
LINE
8
BLACK
6
CONTINUOUS
10
0.524426
20
0.541112
11
0.515848
21
0.53647
0
LINE
8
BLACK
6
CONTINUOUS
10
0.515848
20
0.53647
11
0.506623
21
0.533303
0
LINE
8
BLACK
6
CONTINUOUS
10
0.506623
20
0.533303
11
0.497003
21
0.531698
0
LINE
8
BLACK
6
CONTINUOUS
10
0.497003
20
0.531698
11
0.487249
21
0.531698
0
LINE
8
BLACK
6
CONTINUOUS
10
0.487249
20
0.531698
11
0.477629
21
0.533303
0
LINE
8
BLACK
6
CONTINUOUS
10
0.477629
20
0.533303
11
0.468404
21
0.53647
0
LINE
8
BLACK
6
CONTINUOUS
10
0.468404
20
0.53647
11
0.459826
21
0.541112
0
LINE
8
BLACK
6
CONTINUOUS
10
0.459826
20
0.541112
11
0.452129
21
0.547103
0
LINE
8
BLACK
6
CONTINUOUS
10
0.452129
20
0.547103
11
0.445523
21
0.554279
0
LINE
8
BLACK
6
CONTINUOUS
10
0.445523
20
0.554279
11
0.440189
21
0.562444
0
LINE
8
BLACK
6
CONTINUOUS
10
0.440189
20
0.562444
11
0.436271
21
0.571376
0
LINE
8
BLACK
6
CONTINUOUS
10
0.436271
20
0.571376
11
0.433876
21
0.580831
0
LINE
8
BLACK
6
CONTINUOUS
10
0.433876
20
0.580831
11
0.433071
21
0.590551
0
LINE
8
BLACK
6
CONTINUOUS
10
0.433071
20
0.590551
11
0.433876
21
0.600271
0
LINE
8
BLACK
6
CONTINUOUS
10
0.433876
20
0.600271
11
0.436271
21
0.609726
0
LINE
8
BLACK
6
CONTINUOUS
10
0.436271
20
0.609726
11
0.440189
21
0.618658
0
LINE
8
BLACK
6
CONTINUOUS
10
0.440189
20
0.618658
11
0.445523
21
0.626824
0
LINE
8
BLACK
6
CONTINUOUS
10
0.445523
20
0.626824
11
0.452129
21
0.633999
0
LINE
8
BLACK
6
CONTINUOUS
10
0.452129
20
0.633999
11
0.459826
21
0.63999
0
LINE
8
BLACK
6
CONTINUOUS
10
0.459826
20
0.63999
11
0.468404
21
0.644632
0
LINE
8
BLACK
6
CONTINUOUS
10
0.468404
20
0.644632
11
0.477629
21
0.647799
0
LINE
8
BLACK
6
CONTINUOUS
10
0.477629
20
0.647799
11
0.487249
21
0.649405
0
LINE
8
BLACK
6
CONTINUOUS
10
0.487249
20
0.649405
11
0.497003
21
0.649405
0
LINE
8
BLACK
6
CONTINUOUS
10
0.497003
20
0.649405
11
0.506623
21
0.647799
0
LINE
8
BLACK
6
CONTINUOUS
10
0.900324
20
0.647799
11
0.909549
21
0.644632
0
LINE
8
BLACK
6
CONTINUOUS
10
0.909549
20
0.644632
11
0.918127
21
0.63999
0
LINE
8
BLACK
6
CONTINUOUS
10
0.918127
20
0.63999
11
0.925824
21
0.633999
0
LINE
8
BLACK
6
CONTINUOUS
10
0.925824
20
0.633999
11
0.93243
21
0.626824
0
LINE
8
BLACK
6
CONTINUOUS
10
0.93243
20
0.626824
11
0.937764
21
0.618658
0
LINE
8
BLACK
6
CONTINUOUS
10
0.937764
20
0.618658
11
0.941682
21
0.609726
0
LINE
8
BLACK
6
CONTINUOUS
10
0.941682
20
0.609726
11
0.944076
21
0.600271
0
LINE
8
BLACK
6
CONTINUOUS
10
0.944076
20
0.600271
11
0.944882
21
0.590551
0
LINE
8
BLACK
6
CONTINUOUS
10
0.944882
20
0.590551
11
0.944076
21
0.580831
0
LINE
8
BLACK
6
CONTINUOUS
10
0.944076
20
0.580831
11
0.941682
21
0.571376
0
LINE
8
BLACK
6
CONTINUOUS
10
0.941682
20
0.571376
11
0.937764
21
0.562444
0
LINE
8
BLACK
6
CONTINUOUS
10
0.937764
20
0.562444
11
0.93243
21
0.554279
0
LINE
8
BLACK
6
CONTINUOUS
10
0.93243
20
0.554279
11
0.925824
21
0.547103
0
LINE
8
BLACK
6
CONTINUOUS
10
0.925824
20
0.547103
11
0.918127
21
0.541112
0
LINE
8
BLACK
6
CONTINUOUS
10
0.918127
20
0.541112
11
0.909549
21
0.53647
0
LINE
8
BLACK
6
CONTINUOUS
10
0.909549
20
0.53647
11
0.900324
21
0.533303
0
LINE
8
BLACK
6
CONTINUOUS
10
0.900324
20
0.533303
11
0.890704
21
0.531698
0
LINE
8
BLACK
6
CONTINUOUS
10
0.890704
20
0.531698
11
0.88095
21
0.531698
0
LINE
8
BLACK
6
CONTINUOUS
10
0.88095
20
0.531698
11
0.87133
21
0.533303
0
LINE
8
BLACK
6
CONTINUOUS
10
0.87133
20
0.533303
11
0.862105
21
0.53647
0
LINE
8
BLACK
6
CONTINUOUS
10
0.862105
20
0.53647
11
0.853527
21
0.541112
0
LINE
8
BLACK
6
CONTINUOUS
10
0.853527
20
0.541112
11
0.84583
21
0.547103
0
LINE
8
BLACK
6
CONTINUOUS
10
0.84583
20
0.547103
11
0.839224
21
0.554279
0
LINE
8
BLACK
6
CONTINUOUS
10
0.839224
20
0.554279
11
0.833889
21
0.562444
0
LINE
8
BLACK
6
CONTINUOUS
10
0.833889
20
0.562444
11
0.829971
21
0.571376
0
LINE
8
BLACK
6
CONTINUOUS
10
0.829971
20
0.571376
11
0.827577
21
0.580831
0
LINE
8
BLACK
6
CONTINUOUS
10
0.827577
20
0.580831
11
0.826772
21
0.590551
0
LINE
8
BLACK
6
CONTINUOUS
10
0.826772
20
0.590551
11
0.827577
21
0.600271
0
LINE
8
BLACK
6
CONTINUOUS
10
0.827577
20
0.600271
11
0.829971
21
0.609726
0
LINE
8
BLACK
6
CONTINUOUS
10
0.829971
20
0.609726
11
0.833889
21
0.618658
0
LINE
8
BLACK
6
CONTINUOUS
10
0.833889
20
0.618658
11
0.839224
21
0.626824
0
LINE
8
BLACK
6
CONTINUOUS
10
0.839224
20
0.626824
11
0.84583
21
0.633999
0
LINE
8
BLACK
6
CONTINUOUS
10
0.84583
20
0.633999
11
0.853527
21
0.63999
0
LINE
8
BLACK
6
CONTINUOUS
10
0.853527
20
0.63999
11
0.862105
21
0.644632
0
LINE
8
BLACK
6
CONTINUOUS
10
0.862105
20
0.644632
11
0.87133
21
0.647799
0
LINE
8
BLACK
6
CONTINUOUS
10
0.87133
20
0.647799
11
0.88095
21
0.649405
0
LINE
8
BLACK
6
CONTINUOUS
10
0.88095
20
0.649405
11
0.890704
21
0.649405
0
LINE
8
BLACK
6
CONTINUOUS
10
0.890704
20
0.649405
11
0.900324
21
0.647799
  0
ENDSEC
  0
EOF
