  0
SECTION
  2
HEADER
  9
$ANGBASE
  50
0.0
  9
$ANGDIR
  70
1
  9
$MEASUREMENT
  70
0
  0
ENDSEC
  0
SECTION
  2
TABLES
  0
TABLE
  2
LTYPE
  70
4
  0
LTYPE
  5
40F
  2
CONTINUOUS
  70
0
  3
Solid line
  72
65
  73
0
  40
0.0
  0
LTYPE
  5
410
  2
DASHDOT
 70
0
  3
Dash Dot ____ _ ____ _
 72
65
 73
4
 40
2.0
 49
1.25
 49
-0.25
 49
0.25
 49
-0.25
  0
LTYPE
  5
411
  2
DASHED
 70
0
  3
Dashed __ __ __ __ __
 72
65
 73
2
 40
0.75
 49
0.5
 49
-0.25
  0
LTYPE
  5
43B
  2
DOTTED
 70
0
  3
Dotted .  .  .  .
 72
65
 73
2
 40
0.2
 49
0.0
 49
-0.2
  0
ENDTAB
  0
TABLE
  2
STYLE
  70
4
  0
STYLE
  2
KICAD
  70
0
  40
0
  41
1
  42
1
  50
0
  71
0
  3
isocp.shx
  0
STYLE
  2
KICADB
  70
0
  40
0
  41
1
  42
1
  50
0
  71
0
  3
isocp.shx
  0
STYLE
  2
KICADI
  70
0
  40
0
  41
1
  42
1
  50
15
  71
0
  3
isocp.shx
  0
STYLE
  2
KICADBI
  70
0
  40
0
  41
1
  42
1
  50
15
  71
0
  3
isocp.shx
  0
ENDTAB
  0
TABLE
  2
LAYER
  70
1
  0
LAYER
  2
BLACK
  70
0
  62
7
  6
CONTINUOUS
  0
ENDTAB
  0
ENDSEC
  0
SECTION
  2
ENTITIES
0
LINE
8
BLACK
6
CONTINUOUS
10
0.906726
20
0.140007
11
0.911978
21
0.137251
0
LINE
8
BLACK
6
CONTINUOUS
10
0.911978
20
0.137251
11
0.916418
21
0.133317
0
LINE
8
BLACK
6
CONTINUOUS
10
0.916418
20
0.133317
11
0.919788
21
0.128435
0
LINE
8
BLACK
6
CONTINUOUS
10
0.919788
20
0.128435
11
0.921891
21
0.122889
0
LINE
8
BLACK
6
CONTINUOUS
10
0.921891
20
0.122889
11
0.922606
21
0.117
0
LINE
8
BLACK
6
CONTINUOUS
10
0.922606
20
0.117
11
0.921891
21
0.111111
0
LINE
8
BLACK
6
CONTINUOUS
10
0.921891
20
0.111111
11
0.919788
21
0.105565
0
LINE
8
BLACK
6
CONTINUOUS
10
0.919788
20
0.105565
11
0.916418
21
0.100683
0
LINE
8
BLACK
6
CONTINUOUS
10
0.916418
20
0.100683
11
0.911978
21
0.0967494
0
LINE
8
BLACK
6
CONTINUOUS
10
0.911978
20
0.0967494
11
0.906726
21
0.0939927
0
LINE
8
BLACK
6
CONTINUOUS
10
0.906726
20
0.0939927
11
0.900966
21
0.0925731
0
LINE
8
BLACK
6
CONTINUOUS
10
0.900966
20
0.0925731
11
0.895034
21
0.0925731
0
LINE
8
BLACK
6
CONTINUOUS
10
0.895034
20
0.0925731
11
0.889274
21
0.0939927
0
LINE
8
BLACK
6
CONTINUOUS
10
0.889274
20
0.0939927
11
0.884022
21
0.0967494
0
LINE
8
BLACK
6
CONTINUOUS
10
0.884022
20
0.0967494
11
0.879582
21
0.100683
0
LINE
8
BLACK
6
CONTINUOUS
10
0.879582
20
0.100683
11
0.876212
21
0.105565
0
LINE
8
BLACK
6
CONTINUOUS
10
0.876212
20
0.105565
11
0.874109
21
0.111111
0
LINE
8
BLACK
6
CONTINUOUS
10
0.874109
20
0.111111
11
0.873394
21
0.117
0
LINE
8
BLACK
6
CONTINUOUS
10
0.873394
20
0.117
11
0.874109
21
0.122889
0
LINE
8
BLACK
6
CONTINUOUS
10
0.874109
20
0.122889
11
0.876212
21
0.128435
0
LINE
8
BLACK
6
CONTINUOUS
10
0.876212
20
0.128435
11
0.879582
21
0.133317
0
LINE
8
BLACK
6
CONTINUOUS
10
0.879582
20
0.133317
11
0.884022
21
0.137251
0
LINE
8
BLACK
6
CONTINUOUS
10
0.884022
20
0.137251
11
0.889274
21
0.140007
0
LINE
8
BLACK
6
CONTINUOUS
10
0.889274
20
0.140007
11
0.895034
21
0.141427
0
LINE
8
BLACK
6
CONTINUOUS
10
0.895034
20
0.141427
11
0.900966
21
0.141427
0
LINE
8
BLACK
6
CONTINUOUS
10
0.900966
20
0.141427
11
0.906726
21
0.140007
0
LINE
8
BLACK
6
CONTINUOUS
10
0.875945
20
0.11109
11
0.878226
21
0.105583
0
LINE
8
BLACK
6
CONTINUOUS
10
0.878226
20
0.105583
11
0.881855
21
0.100855
0
LINE
8
BLACK
6
CONTINUOUS
10
0.881855
20
0.100855
11
0.886583
21
0.0972259
0
LINE
8
BLACK
6
CONTINUOUS
10
0.886583
20
0.0972259
11
0.89209
21
0.0949449
0
LINE
8
BLACK
6
CONTINUOUS
10
0.89209
20
0.0949449
11
0.898
21
0.0941669
0
LINE
8
BLACK
6
CONTINUOUS
10
0.898
20
0.0941669
11
0.90391
21
0.0949449
0
LINE
8
BLACK
6
CONTINUOUS
10
0.90391
20
0.0949449
11
0.909417
21
0.0972259
0
LINE
8
BLACK
6
CONTINUOUS
10
0.909417
20
0.0972259
11
0.914145
21
0.100855
0
LINE
8
BLACK
6
CONTINUOUS
10
0.914145
20
0.100855
11
0.917774
21
0.105583
0
LINE
8
BLACK
6
CONTINUOUS
10
0.917774
20
0.105583
11
0.920055
21
0.11109
0
LINE
8
BLACK
6
CONTINUOUS
10
0.920055
20
0.11109
11
0.920833
21
0.117
0
LINE
8
BLACK
6
CONTINUOUS
10
0.920833
20
0.117
11
0.920055
21
0.12291
0
LINE
8
BLACK
6
CONTINUOUS
10
0.920055
20
0.12291
11
0.917774
21
0.128417
0
LINE
8
BLACK
6
CONTINUOUS
10
0.917774
20
0.128417
11
0.914145
21
0.133145
0
LINE
8
BLACK
6
CONTINUOUS
10
0.914145
20
0.133145
11
0.909417
21
0.136774
0
LINE
8
BLACK
6
CONTINUOUS
10
0.909417
20
0.136774
11
0.90391
21
0.139055
0
LINE
8
BLACK
6
CONTINUOUS
10
0.90391
20
0.139055
11
0.898
21
0.139833
0
LINE
8
BLACK
6
CONTINUOUS
10
0.898
20
0.139833
11
0.89209
21
0.139055
0
LINE
8
BLACK
6
CONTINUOUS
10
0.89209
20
0.139055
11
0.886583
21
0.136774
0
LINE
8
BLACK
6
CONTINUOUS
10
0.886583
20
0.136774
11
0.881855
21
0.133145
0
LINE
8
BLACK
6
CONTINUOUS
10
0.881855
20
0.133145
11
0.878226
21
0.128417
0
LINE
8
BLACK
6
CONTINUOUS
10
0.878226
20
0.128417
11
0.875945
21
0.12291
0
LINE
8
BLACK
6
CONTINUOUS
10
0.875945
20
0.12291
11
0.875167
21
0.117
0
LINE
8
BLACK
6
CONTINUOUS
10
0.875167
20
0.117
11
0.875945
21
0.11109
0
LINE
8
BLACK
6
CONTINUOUS
10
0.243984
20
0.482087
11
0.24468
21
0.481798
0
LINE
8
BLACK
6
CONTINUOUS
10
0.24468
20
0.481798
11
0.244969
21
0.481102
0
LINE
8
BLACK
6
CONTINUOUS
10
0.244969
20
0.481102
11
0.244969
21
0.109449
0
LINE
8
BLACK
6
CONTINUOUS
10
0.244969
20
0.109449
11
0.24468
21
0.108753
0
LINE
8
BLACK
6
CONTINUOUS
10
0.24468
20
0.108753
11
0.243984
21
0.108465
0
LINE
8
BLACK
6
CONTINUOUS
10
0.243984
20
0.108465
11
-0.00798425
21
0.108465
0
LINE
8
BLACK
6
CONTINUOUS
10
-0.00798425
20
0.108465
11
-0.00868024
21
0.108753
0
LINE
8
BLACK
6
CONTINUOUS
10
-0.00868024
20
0.108753
11
-0.0089685
21
0.109449
0
LINE
8
BLACK
6
CONTINUOUS
10
-0.0089685
20
0.109449
11
-0.0089685
21
0.481102
0
LINE
8
BLACK
6
CONTINUOUS
10
-0.0089685
20
0.481102
11
-0.00868024
21
0.481798
0
LINE
8
BLACK
6
CONTINUOUS
10
-0.00868024
20
0.481798
11
-0.00798425
21
0.482087
0
LINE
8
BLACK
6
CONTINUOUS
10
-0.00798425
20
0.482087
11
0.243984
21
0.482087
0
LINE
8
BLACK
6
CONTINUOUS
10
-0.007
20
0.480118
11
-0.007
21
0.110433
0
LINE
8
BLACK
6
CONTINUOUS
10
-0.007
20
0.110433
11
0.243
21
0.110433
0
LINE
8
BLACK
6
CONTINUOUS
10
0.243
20
0.110433
11
0.243
21
0.480118
0
LINE
8
BLACK
6
CONTINUOUS
10
0.243
20
0.480118
11
-0.007
21
0.480118
0
LINE
8
BLACK
6
CONTINUOUS
10
0.861726
20
0.219007
11
0.866978
21
0.216251
0
LINE
8
BLACK
6
CONTINUOUS
10
0.866978
20
0.216251
11
0.871418
21
0.212317
0
LINE
8
BLACK
6
CONTINUOUS
10
0.871418
20
0.212317
11
0.874788
21
0.207435
0
LINE
8
BLACK
6
CONTINUOUS
10
0.874788
20
0.207435
11
0.876891
21
0.201889
0
LINE
8
BLACK
6
CONTINUOUS
10
0.876891
20
0.201889
11
0.877606
21
0.196
0
LINE
8
BLACK
6
CONTINUOUS
10
0.877606
20
0.196
11
0.876891
21
0.190111
0
LINE
8
BLACK
6
CONTINUOUS
10
0.876891
20
0.190111
11
0.874788
21
0.184565
0
LINE
8
BLACK
6
CONTINUOUS
10
0.874788
20
0.184565
11
0.871418
21
0.179683
0
LINE
8
BLACK
6
CONTINUOUS
10
0.871418
20
0.179683
11
0.866978
21
0.175749
0
LINE
8
BLACK
6
CONTINUOUS
10
0.866978
20
0.175749
11
0.861726
21
0.172993
0
LINE
8
BLACK
6
CONTINUOUS
10
0.861726
20
0.172993
11
0.855966
21
0.171573
0
LINE
8
BLACK
6
CONTINUOUS
10
0.855966
20
0.171573
11
0.850034
21
0.171573
0
LINE
8
BLACK
6
CONTINUOUS
10
0.850034
20
0.171573
11
0.844274
21
0.172993
0
LINE
8
BLACK
6
CONTINUOUS
10
0.844274
20
0.172993
11
0.839022
21
0.175749
0
LINE
8
BLACK
6
CONTINUOUS
10
0.839022
20
0.175749
11
0.834582
21
0.179683
0
LINE
8
BLACK
6
CONTINUOUS
10
0.834582
20
0.179683
11
0.831212
21
0.184565
0
LINE
8
BLACK
6
CONTINUOUS
10
0.831212
20
0.184565
11
0.829109
21
0.190111
0
LINE
8
BLACK
6
CONTINUOUS
10
0.829109
20
0.190111
11
0.828394
21
0.196
0
LINE
8
BLACK
6
CONTINUOUS
10
0.828394
20
0.196
11
0.829109
21
0.201889
0
LINE
8
BLACK
6
CONTINUOUS
10
0.829109
20
0.201889
11
0.831212
21
0.207435
0
LINE
8
BLACK
6
CONTINUOUS
10
0.831212
20
0.207435
11
0.834582
21
0.212317
0
LINE
8
BLACK
6
CONTINUOUS
10
0.834582
20
0.212317
11
0.839022
21
0.216251
0
LINE
8
BLACK
6
CONTINUOUS
10
0.839022
20
0.216251
11
0.844274
21
0.219007
0
LINE
8
BLACK
6
CONTINUOUS
10
0.844274
20
0.219007
11
0.850034
21
0.220427
0
LINE
8
BLACK
6
CONTINUOUS
10
0.850034
20
0.220427
11
0.855966
21
0.220427
0
LINE
8
BLACK
6
CONTINUOUS
10
0.855966
20
0.220427
11
0.861726
21
0.219007
0
LINE
8
BLACK
6
CONTINUOUS
10
0.830945
20
0.19009
11
0.833226
21
0.184583
0
LINE
8
BLACK
6
CONTINUOUS
10
0.833226
20
0.184583
11
0.836855
21
0.179855
0
LINE
8
BLACK
6
CONTINUOUS
10
0.836855
20
0.179855
11
0.841583
21
0.176226
0
LINE
8
BLACK
6
CONTINUOUS
10
0.841583
20
0.176226
11
0.84709
21
0.173945
0
LINE
8
BLACK
6
CONTINUOUS
10
0.84709
20
0.173945
11
0.853
21
0.173167
0
LINE
8
BLACK
6
CONTINUOUS
10
0.853
20
0.173167
11
0.85891
21
0.173945
0
LINE
8
BLACK
6
CONTINUOUS
10
0.85891
20
0.173945
11
0.864417
21
0.176226
0
LINE
8
BLACK
6
CONTINUOUS
10
0.864417
20
0.176226
11
0.869145
21
0.179855
0
LINE
8
BLACK
6
CONTINUOUS
10
0.869145
20
0.179855
11
0.872774
21
0.184583
0
LINE
8
BLACK
6
CONTINUOUS
10
0.872774
20
0.184583
11
0.875055
21
0.19009
0
LINE
8
BLACK
6
CONTINUOUS
10
0.875055
20
0.19009
11
0.875833
21
0.196
0
LINE
8
BLACK
6
CONTINUOUS
10
0.875833
20
0.196
11
0.875055
21
0.20191
0
LINE
8
BLACK
6
CONTINUOUS
10
0.875055
20
0.20191
11
0.872774
21
0.207417
0
LINE
8
BLACK
6
CONTINUOUS
10
0.872774
20
0.207417
11
0.869145
21
0.212145
0
LINE
8
BLACK
6
CONTINUOUS
10
0.869145
20
0.212145
11
0.864417
21
0.215774
0
LINE
8
BLACK
6
CONTINUOUS
10
0.864417
20
0.215774
11
0.85891
21
0.218055
0
LINE
8
BLACK
6
CONTINUOUS
10
0.85891
20
0.218055
11
0.853
21
0.218833
0
LINE
8
BLACK
6
CONTINUOUS
10
0.853
20
0.218833
11
0.84709
21
0.218055
0
LINE
8
BLACK
6
CONTINUOUS
10
0.84709
20
0.218055
11
0.841583
21
0.215774
0
LINE
8
BLACK
6
CONTINUOUS
10
0.841583
20
0.215774
11
0.836855
21
0.212145
0
LINE
8
BLACK
6
CONTINUOUS
10
0.836855
20
0.212145
11
0.833226
21
0.207417
0
LINE
8
BLACK
6
CONTINUOUS
10
0.833226
20
0.207417
11
0.830945
21
0.20191
0
LINE
8
BLACK
6
CONTINUOUS
10
0.830945
20
0.20191
11
0.830167
21
0.196
0
LINE
8
BLACK
6
CONTINUOUS
10
0.830167
20
0.196
11
0.830945
21
0.19009
0
LINE
8
BLACK
6
CONTINUOUS
10
0.861726
20
0.301007
11
0.866978
21
0.298251
0
LINE
8
BLACK
6
CONTINUOUS
10
0.866978
20
0.298251
11
0.871418
21
0.294317
0
LINE
8
BLACK
6
CONTINUOUS
10
0.871418
20
0.294317
11
0.874788
21
0.289435
0
LINE
8
BLACK
6
CONTINUOUS
10
0.874788
20
0.289435
11
0.876891
21
0.283889
0
LINE
8
BLACK
6
CONTINUOUS
10
0.876891
20
0.283889
11
0.877606
21
0.278
0
LINE
8
BLACK
6
CONTINUOUS
10
0.877606
20
0.278
11
0.876891
21
0.272111
0
LINE
8
BLACK
6
CONTINUOUS
10
0.876891
20
0.272111
11
0.874788
21
0.266565
0
LINE
8
BLACK
6
CONTINUOUS
10
0.874788
20
0.266565
11
0.871418
21
0.261683
0
LINE
8
BLACK
6
CONTINUOUS
10
0.871418
20
0.261683
11
0.866978
21
0.257749
0
LINE
8
BLACK
6
CONTINUOUS
10
0.866978
20
0.257749
11
0.861726
21
0.254993
0
LINE
8
BLACK
6
CONTINUOUS
10
0.861726
20
0.254993
11
0.855966
21
0.253573
0
LINE
8
BLACK
6
CONTINUOUS
10
0.855966
20
0.253573
11
0.850034
21
0.253573
0
LINE
8
BLACK
6
CONTINUOUS
10
0.850034
20
0.253573
11
0.844274
21
0.254993
0
LINE
8
BLACK
6
CONTINUOUS
10
0.844274
20
0.254993
11
0.839022
21
0.257749
0
LINE
8
BLACK
6
CONTINUOUS
10
0.839022
20
0.257749
11
0.834582
21
0.261683
0
LINE
8
BLACK
6
CONTINUOUS
10
0.834582
20
0.261683
11
0.831212
21
0.266565
0
LINE
8
BLACK
6
CONTINUOUS
10
0.831212
20
0.266565
11
0.829109
21
0.272111
0
LINE
8
BLACK
6
CONTINUOUS
10
0.829109
20
0.272111
11
0.828394
21
0.278
0
LINE
8
BLACK
6
CONTINUOUS
10
0.828394
20
0.278
11
0.829109
21
0.283889
0
LINE
8
BLACK
6
CONTINUOUS
10
0.829109
20
0.283889
11
0.831212
21
0.289435
0
LINE
8
BLACK
6
CONTINUOUS
10
0.831212
20
0.289435
11
0.834582
21
0.294317
0
LINE
8
BLACK
6
CONTINUOUS
10
0.834582
20
0.294317
11
0.839022
21
0.298251
0
LINE
8
BLACK
6
CONTINUOUS
10
0.839022
20
0.298251
11
0.844274
21
0.301007
0
LINE
8
BLACK
6
CONTINUOUS
10
0.844274
20
0.301007
11
0.850034
21
0.302427
0
LINE
8
BLACK
6
CONTINUOUS
10
0.850034
20
0.302427
11
0.855966
21
0.302427
0
LINE
8
BLACK
6
CONTINUOUS
10
0.855966
20
0.302427
11
0.861726
21
0.301007
0
LINE
8
BLACK
6
CONTINUOUS
10
0.830945
20
0.27209
11
0.833226
21
0.266583
0
LINE
8
BLACK
6
CONTINUOUS
10
0.833226
20
0.266583
11
0.836855
21
0.261855
0
LINE
8
BLACK
6
CONTINUOUS
10
0.836855
20
0.261855
11
0.841583
21
0.258226
0
LINE
8
BLACK
6
CONTINUOUS
10
0.841583
20
0.258226
11
0.84709
21
0.255945
0
LINE
8
BLACK
6
CONTINUOUS
10
0.84709
20
0.255945
11
0.853
21
0.255167
0
LINE
8
BLACK
6
CONTINUOUS
10
0.853
20
0.255167
11
0.85891
21
0.255945
0
LINE
8
BLACK
6
CONTINUOUS
10
0.85891
20
0.255945
11
0.864417
21
0.258226
0
LINE
8
BLACK
6
CONTINUOUS
10
0.864417
20
0.258226
11
0.869145
21
0.261855
0
LINE
8
BLACK
6
CONTINUOUS
10
0.869145
20
0.261855
11
0.872774
21
0.266583
0
LINE
8
BLACK
6
CONTINUOUS
10
0.872774
20
0.266583
11
0.875055
21
0.27209
0
LINE
8
BLACK
6
CONTINUOUS
10
0.875055
20
0.27209
11
0.875833
21
0.278
0
LINE
8
BLACK
6
CONTINUOUS
10
0.875833
20
0.278
11
0.875055
21
0.28391
0
LINE
8
BLACK
6
CONTINUOUS
10
0.875055
20
0.28391
11
0.872774
21
0.289417
0
LINE
8
BLACK
6
CONTINUOUS
10
0.872774
20
0.289417
11
0.869145
21
0.294145
0
LINE
8
BLACK
6
CONTINUOUS
10
0.869145
20
0.294145
11
0.864417
21
0.297774
0
LINE
8
BLACK
6
CONTINUOUS
10
0.864417
20
0.297774
11
0.85891
21
0.300055
0
LINE
8
BLACK
6
CONTINUOUS
10
0.85891
20
0.300055
11
0.853
21
0.300833
0
LINE
8
BLACK
6
CONTINUOUS
10
0.853
20
0.300833
11
0.84709
21
0.300055
0
LINE
8
BLACK
6
CONTINUOUS
10
0.84709
20
0.300055
11
0.841583
21
0.297774
0
LINE
8
BLACK
6
CONTINUOUS
10
0.841583
20
0.297774
11
0.836855
21
0.294145
0
LINE
8
BLACK
6
CONTINUOUS
10
0.836855
20
0.294145
11
0.833226
21
0.289417
0
LINE
8
BLACK
6
CONTINUOUS
10
0.833226
20
0.289417
11
0.830945
21
0.28391
0
LINE
8
BLACK
6
CONTINUOUS
10
0.830945
20
0.28391
11
0.830167
21
0.278
0
LINE
8
BLACK
6
CONTINUOUS
10
0.830167
20
0.278
11
0.830945
21
0.27209
0
LINE
8
BLACK
6
CONTINUOUS
10
0.862691
20
0.546801
11
0.874182
21
0.544515
0
LINE
8
BLACK
6
CONTINUOUS
10
0.874182
20
0.544515
11
0.885276
21
0.540749
0
LINE
8
BLACK
6
CONTINUOUS
10
0.885276
20
0.540749
11
0.895783
21
0.535567
0
LINE
8
BLACK
6
CONTINUOUS
10
0.895783
20
0.535567
11
0.905525
21
0.529058
0
LINE
8
BLACK
6
CONTINUOUS
10
0.905525
20
0.529058
11
0.914333
21
0.521333
0
LINE
8
BLACK
6
CONTINUOUS
10
0.914333
20
0.521333
11
0.922058
21
0.512525
0
LINE
8
BLACK
6
CONTINUOUS
10
0.922058
20
0.512525
11
0.928567
21
0.502783
0
LINE
8
BLACK
6
CONTINUOUS
10
0.928567
20
0.502783
11
0.933749
21
0.492276
0
LINE
8
BLACK
6
CONTINUOUS
10
0.933749
20
0.492276
11
0.937515
21
0.481182
0
LINE
8
BLACK
6
CONTINUOUS
10
0.937515
20
0.481182
11
0.939801
21
0.469691
0
LINE
8
BLACK
6
CONTINUOUS
10
0.939801
20
0.469691
11
0.940567
21
0.458
0
LINE
8
BLACK
6
CONTINUOUS
10
0.940567
20
0.458
11
0.939801
21
0.446309
0
LINE
8
BLACK
6
CONTINUOUS
10
0.939801
20
0.446309
11
0.937515
21
0.434818
0
LINE
8
BLACK
6
CONTINUOUS
10
0.937515
20
0.434818
11
0.933749
21
0.423724
0
LINE
8
BLACK
6
CONTINUOUS
10
0.933749
20
0.423724
11
0.928567
21
0.413217
0
LINE
8
BLACK
6
CONTINUOUS
10
0.928567
20
0.413217
11
0.922058
21
0.403475
0
LINE
8
BLACK
6
CONTINUOUS
10
0.922058
20
0.403475
11
0.914333
21
0.394667
0
LINE
8
BLACK
6
CONTINUOUS
10
0.914333
20
0.394667
11
0.905525
21
0.386942
0
LINE
8
BLACK
6
CONTINUOUS
10
0.905525
20
0.386942
11
0.895783
21
0.380433
0
LINE
8
BLACK
6
CONTINUOUS
10
0.895783
20
0.380433
11
0.885276
21
0.375251
0
LINE
8
BLACK
6
CONTINUOUS
10
0.885276
20
0.375251
11
0.874182
21
0.371485
0
LINE
8
BLACK
6
CONTINUOUS
10
0.874182
20
0.371485
11
0.87347
21
0.371344
0
LINE
8
BLACK
6
CONTINUOUS
10
0.87347
20
0.371344
11
0.874788
21
0.369435
0
LINE
8
BLACK
6
CONTINUOUS
10
0.874788
20
0.369435
11
0.876891
21
0.363889
0
LINE
8
BLACK
6
CONTINUOUS
10
0.876891
20
0.363889
11
0.877606
21
0.358
0
LINE
8
BLACK
6
CONTINUOUS
10
0.877606
20
0.358
11
0.876891
21
0.352111
0
LINE
8
BLACK
6
CONTINUOUS
10
0.876891
20
0.352111
11
0.874788
21
0.346565
0
LINE
8
BLACK
6
CONTINUOUS
10
0.874788
20
0.346565
11
0.871418
21
0.341683
0
LINE
8
BLACK
6
CONTINUOUS
10
0.871418
20
0.341683
11
0.866978
21
0.337749
0
LINE
8
BLACK
6
CONTINUOUS
10
0.866978
20
0.337749
11
0.861726
21
0.334993
0
LINE
8
BLACK
6
CONTINUOUS
10
0.861726
20
0.334993
11
0.855966
21
0.333573
0
LINE
8
BLACK
6
CONTINUOUS
10
0.855966
20
0.333573
11
0.850034
21
0.333573
0
LINE
8
BLACK
6
CONTINUOUS
10
0.850034
20
0.333573
11
0.844274
21
0.334993
0
LINE
8
BLACK
6
CONTINUOUS
10
0.844274
20
0.334993
11
0.839022
21
0.337749
0
LINE
8
BLACK
6
CONTINUOUS
10
0.839022
20
0.337749
11
0.834582
21
0.341683
0
LINE
8
BLACK
6
CONTINUOUS
10
0.834582
20
0.341683
11
0.831212
21
0.346565
0
LINE
8
BLACK
6
CONTINUOUS
10
0.831212
20
0.346565
11
0.829109
21
0.352111
0
LINE
8
BLACK
6
CONTINUOUS
10
0.829109
20
0.352111
11
0.828394
21
0.358
0
LINE
8
BLACK
6
CONTINUOUS
10
0.828394
20
0.358
11
0.829109
21
0.363889
0
LINE
8
BLACK
6
CONTINUOUS
10
0.829109
20
0.363889
11
0.831212
21
0.369435
0
LINE
8
BLACK
6
CONTINUOUS
10
0.831212
20
0.369435
11
0.832047
21
0.370644
0
LINE
8
BLACK
6
CONTINUOUS
10
0.832047
20
0.370644
11
0.827818
21
0.371485
0
LINE
8
BLACK
6
CONTINUOUS
10
0.827818
20
0.371485
11
0.816724
21
0.375251
0
LINE
8
BLACK
6
CONTINUOUS
10
0.816724
20
0.375251
11
0.806217
21
0.380433
0
LINE
8
BLACK
6
CONTINUOUS
10
0.806217
20
0.380433
11
0.796475
21
0.386942
0
LINE
8
BLACK
6
CONTINUOUS
10
0.796475
20
0.386942
11
0.787667
21
0.394667
0
LINE
8
BLACK
6
CONTINUOUS
10
0.787667
20
0.394667
11
0.779942
21
0.403475
0
LINE
8
BLACK
6
CONTINUOUS
10
0.779942
20
0.403475
11
0.773433
21
0.413217
0
LINE
8
BLACK
6
CONTINUOUS
10
0.773433
20
0.413217
11
0.768251
21
0.423724
0
LINE
8
BLACK
6
CONTINUOUS
10
0.768251
20
0.423724
11
0.764485
21
0.434818
0
LINE
8
BLACK
6
CONTINUOUS
10
0.764485
20
0.434818
11
0.762199
21
0.446309
0
LINE
8
BLACK
6
CONTINUOUS
10
0.762199
20
0.446309
11
0.761433
21
0.458
0
LINE
8
BLACK
6
CONTINUOUS
10
0.761433
20
0.458
11
0.762199
21
0.469691
0
LINE
8
BLACK
6
CONTINUOUS
10
0.762199
20
0.469691
11
0.764485
21
0.481182
0
LINE
8
BLACK
6
CONTINUOUS
10
0.764485
20
0.481182
11
0.768251
21
0.492276
0
LINE
8
BLACK
6
CONTINUOUS
10
0.768251
20
0.492276
11
0.773433
21
0.502783
0
LINE
8
BLACK
6
CONTINUOUS
10
0.773433
20
0.502783
11
0.779942
21
0.512525
0
LINE
8
BLACK
6
CONTINUOUS
10
0.779942
20
0.512525
11
0.787667
21
0.521333
0
LINE
8
BLACK
6
CONTINUOUS
10
0.787667
20
0.521333
11
0.796475
21
0.529058
0
LINE
8
BLACK
6
CONTINUOUS
10
0.796475
20
0.529058
11
0.806217
21
0.535567
0
LINE
8
BLACK
6
CONTINUOUS
10
0.806217
20
0.535567
11
0.816724
21
0.540749
0
LINE
8
BLACK
6
CONTINUOUS
10
0.816724
20
0.540749
11
0.827818
21
0.544515
0
LINE
8
BLACK
6
CONTINUOUS
10
0.827818
20
0.544515
11
0.839309
21
0.546801
0
LINE
8
BLACK
6
CONTINUOUS
10
0.839309
20
0.546801
11
0.851
21
0.547567
0
LINE
8
BLACK
6
CONTINUOUS
10
0.851
20
0.547567
11
0.862691
21
0.546801
0
LINE
8
BLACK
6
CONTINUOUS
10
0.84709
20
0.380055
11
0.841583
21
0.377774
0
LINE
8
BLACK
6
CONTINUOUS
10
0.841583
20
0.377774
11
0.836855
21
0.374145
0
LINE
8
BLACK
6
CONTINUOUS
10
0.836855
20
0.374145
11
0.835093
21
0.37185
0
LINE
8
BLACK
6
CONTINUOUS
10
0.835093
20
0.37185
11
0.839542
21
0.370965
0
LINE
8
BLACK
6
CONTINUOUS
10
0.839542
20
0.370965
11
0.851
21
0.370214
0
LINE
8
BLACK
6
CONTINUOUS
10
0.851
20
0.370214
11
0.862458
21
0.370965
0
LINE
8
BLACK
6
CONTINUOUS
10
0.862458
20
0.370965
11
0.870377
21
0.37254
0
LINE
8
BLACK
6
CONTINUOUS
10
0.870377
20
0.37254
11
0.869145
21
0.374145
0
LINE
8
BLACK
6
CONTINUOUS
10
0.869145
20
0.374145
11
0.864417
21
0.377774
0
LINE
8
BLACK
6
CONTINUOUS
10
0.864417
20
0.377774
11
0.85891
21
0.380055
0
LINE
8
BLACK
6
CONTINUOUS
10
0.85891
20
0.380055
11
0.853
21
0.380833
0
LINE
8
BLACK
6
CONTINUOUS
10
0.853
20
0.380833
11
0.84709
21
0.380055
0
LINE
8
BLACK
6
CONTINUOUS
10
0.830945
20
0.35209
11
0.833226
21
0.346583
0
LINE
8
BLACK
6
CONTINUOUS
10
0.833226
20
0.346583
11
0.836855
21
0.341855
0
LINE
8
BLACK
6
CONTINUOUS
10
0.836855
20
0.341855
11
0.841583
21
0.338226
0
LINE
8
BLACK
6
CONTINUOUS
10
0.841583
20
0.338226
11
0.84709
21
0.335945
0
LINE
8
BLACK
6
CONTINUOUS
10
0.84709
20
0.335945
11
0.853
21
0.335167
0
LINE
8
BLACK
6
CONTINUOUS
10
0.853
20
0.335167
11
0.85891
21
0.335945
0
LINE
8
BLACK
6
CONTINUOUS
10
0.85891
20
0.335945
11
0.864417
21
0.338226
0
LINE
8
BLACK
6
CONTINUOUS
10
0.864417
20
0.338226
11
0.869145
21
0.341855
0
LINE
8
BLACK
6
CONTINUOUS
10
0.869145
20
0.341855
11
0.872774
21
0.346583
0
LINE
8
BLACK
6
CONTINUOUS
10
0.872774
20
0.346583
11
0.875055
21
0.35209
0
LINE
8
BLACK
6
CONTINUOUS
10
0.875055
20
0.35209
11
0.875833
21
0.358
0
LINE
8
BLACK
6
CONTINUOUS
10
0.875833
20
0.358
11
0.875055
21
0.36391
0
LINE
8
BLACK
6
CONTINUOUS
10
0.875055
20
0.36391
11
0.872774
21
0.369417
0
LINE
8
BLACK
6
CONTINUOUS
10
0.872774
20
0.369417
11
0.871583
21
0.370968
0
LINE
8
BLACK
6
CONTINUOUS
10
0.871583
20
0.370968
11
0.862691
21
0.369199
0
LINE
8
BLACK
6
CONTINUOUS
10
0.862691
20
0.369199
11
0.851
21
0.368433
0
LINE
8
BLACK
6
CONTINUOUS
10
0.851
20
0.368433
11
0.839309
21
0.369199
0
LINE
8
BLACK
6
CONTINUOUS
10
0.839309
20
0.369199
11
0.833887
21
0.370278
0
LINE
8
BLACK
6
CONTINUOUS
10
0.833887
20
0.370278
11
0.833226
21
0.369417
0
LINE
8
BLACK
6
CONTINUOUS
10
0.833226
20
0.369417
11
0.830945
21
0.36391
0
LINE
8
BLACK
6
CONTINUOUS
10
0.830945
20
0.36391
11
0.830167
21
0.358
0
LINE
8
BLACK
6
CONTINUOUS
10
0.830167
20
0.358
11
0.830945
21
0.35209
0
LINE
8
BLACK
6
CONTINUOUS
10
0.763965
20
0.446542
11
0.766205
21
0.435279
0
LINE
8
BLACK
6
CONTINUOUS
10
0.766205
20
0.435279
11
0.769896
21
0.424406
0
LINE
8
BLACK
6
CONTINUOUS
10
0.769896
20
0.424406
11
0.774975
21
0.414107
0
LINE
8
BLACK
6
CONTINUOUS
10
0.774975
20
0.414107
11
0.781354
21
0.404559
0
LINE
8
BLACK
6
CONTINUOUS
10
0.781354
20
0.404559
11
0.788926
21
0.395926
0
LINE
8
BLACK
6
CONTINUOUS
10
0.788926
20
0.395926
11
0.797559
21
0.388354
0
LINE
8
BLACK
6
CONTINUOUS
10
0.797559
20
0.388354
11
0.807107
21
0.381975
0
LINE
8
BLACK
6
CONTINUOUS
10
0.807107
20
0.381975
11
0.817406
21
0.376896
0
LINE
8
BLACK
6
CONTINUOUS
10
0.817406
20
0.376896
11
0.828279
21
0.373205
0
LINE
8
BLACK
6
CONTINUOUS
10
0.828279
20
0.373205
11
0.833146
21
0.372237
0
LINE
8
BLACK
6
CONTINUOUS
10
0.833146
20
0.372237
11
0.834582
21
0.374317
0
LINE
8
BLACK
6
CONTINUOUS
10
0.834582
20
0.374317
11
0.839022
21
0.378251
0
LINE
8
BLACK
6
CONTINUOUS
10
0.839022
20
0.378251
11
0.844274
21
0.381007
0
LINE
8
BLACK
6
CONTINUOUS
10
0.844274
20
0.381007
11
0.850034
21
0.382427
0
LINE
8
BLACK
6
CONTINUOUS
10
0.850034
20
0.382427
11
0.855966
21
0.382427
0
LINE
8
BLACK
6
CONTINUOUS
10
0.855966
20
0.382427
11
0.861726
21
0.381007
0
LINE
8
BLACK
6
CONTINUOUS
10
0.861726
20
0.381007
11
0.866978
21
0.378251
0
LINE
8
BLACK
6
CONTINUOUS
10
0.866978
20
0.378251
11
0.871418
21
0.374317
0
LINE
8
BLACK
6
CONTINUOUS
10
0.871418
20
0.374317
11
0.872371
21
0.372936
0
LINE
8
BLACK
6
CONTINUOUS
10
0.872371
20
0.372936
11
0.873721
21
0.373205
0
LINE
8
BLACK
6
CONTINUOUS
10
0.873721
20
0.373205
11
0.884594
21
0.376896
0
LINE
8
BLACK
6
CONTINUOUS
10
0.884594
20
0.376896
11
0.894893
21
0.381975
0
LINE
8
BLACK
6
CONTINUOUS
10
0.894893
20
0.381975
11
0.904441
21
0.388354
0
LINE
8
BLACK
6
CONTINUOUS
10
0.904441
20
0.388354
11
0.913074
21
0.395926
0
LINE
8
BLACK
6
CONTINUOUS
10
0.913074
20
0.395926
11
0.920646
21
0.404559
0
LINE
8
BLACK
6
CONTINUOUS
10
0.920646
20
0.404559
11
0.927025
21
0.414107
0
LINE
8
BLACK
6
CONTINUOUS
10
0.927025
20
0.414107
11
0.932104
21
0.424406
0
LINE
8
BLACK
6
CONTINUOUS
10
0.932104
20
0.424406
11
0.935795
21
0.435279
0
LINE
8
BLACK
6
CONTINUOUS
10
0.935795
20
0.435279
11
0.938035
21
0.446542
0
LINE
8
BLACK
6
CONTINUOUS
10
0.938035
20
0.446542
11
0.938786
21
0.458
0
LINE
8
BLACK
6
CONTINUOUS
10
0.938786
20
0.458
11
0.938035
21
0.469458
0
LINE
8
BLACK
6
CONTINUOUS
10
0.938035
20
0.469458
11
0.935795
21
0.480721
0
LINE
8
BLACK
6
CONTINUOUS
10
0.935795
20
0.480721
11
0.932104
21
0.491594
0
LINE
8
BLACK
6
CONTINUOUS
10
0.932104
20
0.491594
11
0.927025
21
0.501893
0
LINE
8
BLACK
6
CONTINUOUS
10
0.927025
20
0.501893
11
0.920646
21
0.511441
0
LINE
8
BLACK
6
CONTINUOUS
10
0.920646
20
0.511441
11
0.913074
21
0.520074
0
LINE
8
BLACK
6
CONTINUOUS
10
0.913074
20
0.520074
11
0.904441
21
0.527646
0
LINE
8
BLACK
6
CONTINUOUS
10
0.904441
20
0.527646
11
0.894893
21
0.534025
0
LINE
8
BLACK
6
CONTINUOUS
10
0.894893
20
0.534025
11
0.884594
21
0.539104
0
LINE
8
BLACK
6
CONTINUOUS
10
0.884594
20
0.539104
11
0.873721
21
0.542795
0
LINE
8
BLACK
6
CONTINUOUS
10
0.873721
20
0.542795
11
0.862458
21
0.545035
0
LINE
8
BLACK
6
CONTINUOUS
10
0.862458
20
0.545035
11
0.851
21
0.545786
0
LINE
8
BLACK
6
CONTINUOUS
10
0.851
20
0.545786
11
0.839542
21
0.545035
0
LINE
8
BLACK
6
CONTINUOUS
10
0.839542
20
0.545035
11
0.828279
21
0.542795
0
LINE
8
BLACK
6
CONTINUOUS
10
0.828279
20
0.542795
11
0.817406
21
0.539104
0
LINE
8
BLACK
6
CONTINUOUS
10
0.817406
20
0.539104
11
0.807107
21
0.534025
0
LINE
8
BLACK
6
CONTINUOUS
10
0.807107
20
0.534025
11
0.797559
21
0.527646
0
LINE
8
BLACK
6
CONTINUOUS
10
0.797559
20
0.527646
11
0.788926
21
0.520074
0
LINE
8
BLACK
6
CONTINUOUS
10
0.788926
20
0.520074
11
0.781354
21
0.511441
0
LINE
8
BLACK
6
CONTINUOUS
10
0.781354
20
0.511441
11
0.774975
21
0.501893
0
LINE
8
BLACK
6
CONTINUOUS
10
0.774975
20
0.501893
11
0.769896
21
0.491594
0
LINE
8
BLACK
6
CONTINUOUS
10
0.769896
20
0.491594
11
0.766205
21
0.480721
0
LINE
8
BLACK
6
CONTINUOUS
10
0.766205
20
0.480721
11
0.763965
21
0.469458
0
LINE
8
BLACK
6
CONTINUOUS
10
0.763965
20
0.469458
11
0.763214
21
0.458
0
LINE
8
BLACK
6
CONTINUOUS
10
0.763214
20
0.458
11
0.763965
21
0.446542
  0
ENDSEC
  0
EOF
