  0
SECTION
  2
HEADER
  9
$ANGBASE
  50
0.0
  9
$ANGDIR
  70
1
  9
$MEASUREMENT
  70
0
  0
ENDSEC
  0
SECTION
  2
TABLES
  0
TABLE
  2
LTYPE
  70
4
  0
LTYPE
  5
40F
  2
CONTINUOUS
  70
0
  3
Solid line
  72
65
  73
0
  40
0.0
  0
LTYPE
  5
410
  2
DASHDOT
 70
0
  3
Dash Dot ____ _ ____ _
 72
65
 73
4
 40
2.0
 49
1.25
 49
-0.25
 49
0.25
 49
-0.25
  0
LTYPE
  5
411
  2
DASHED
 70
0
  3
Dashed __ __ __ __ __
 72
65
 73
2
 40
0.75
 49
0.5
 49
-0.25
  0
LTYPE
  5
43B
  2
DOTTED
 70
0
  3
Dotted .  .  .  .
 72
65
 73
2
 40
0.2
 49
0.0
 49
-0.2
  0
ENDTAB
  0
TABLE
  2
STYLE
  70
4
  0
STYLE
  2
KICAD
  70
0
  40
0
  41
1
  42
1
  50
0
  71
0
  3
isocp.shx
  0
STYLE
  2
KICADB
  70
0
  40
0
  41
1
  42
1
  50
0
  71
0
  3
isocp.shx
  0
STYLE
  2
KICADI
  70
0
  40
0
  41
1
  42
1
  50
15
  71
0
  3
isocp.shx
  0
STYLE
  2
KICADBI
  70
0
  40
0
  41
1
  42
1
  50
15
  71
0
  3
isocp.shx
  0
ENDTAB
  0
TABLE
  2
LAYER
  70
1
  0
LAYER
  2
BLACK
  70
0
  62
7
  6
CONTINUOUS
  0
ENDTAB
  0
ENDSEC
  0
SECTION
  2
ENTITIES
0
LINE
8
BLACK
6
CONTINUOUS
10
1.34716
20
0.591943
11
1.34773
21
0.590551
0
LINE
8
BLACK
6
CONTINUOUS
10
1.34773
20
0.590551
11
1.34716
21
0.589159
0
LINE
8
BLACK
6
CONTINUOUS
10
1.34716
20
0.589159
11
1.34576
21
0.588583
0
LINE
8
BLACK
6
CONTINUOUS
10
1.34576
20
0.588583
11
1.32592
21
0.588583
0
LINE
8
BLACK
6
CONTINUOUS
10
1.32592
20
0.588583
11
1.34751
21
0.54711
0
LINE
8
BLACK
6
CONTINUOUS
10
1.34751
20
0.54711
11
1.34764
21
0.545609
0
LINE
8
BLACK
6
CONTINUOUS
10
1.34764
20
0.545609
11
1.34667
21
0.544455
0
LINE
8
BLACK
6
CONTINUOUS
10
1.34667
20
0.544455
11
1.34517
21
0.544323
0
LINE
8
BLACK
6
CONTINUOUS
10
1.34517
20
0.544323
11
1.34402
21
0.545292
0
LINE
8
BLACK
6
CONTINUOUS
10
1.34402
20
0.545292
11
1.32465
21
0.582507
0
LINE
8
BLACK
6
CONTINUOUS
10
1.32465
20
0.582507
11
1.32465
21
0.00804465
0
LINE
8
BLACK
6
CONTINUOUS
10
1.32465
20
0.00804465
11
1.34402
21
0.0452595
0
LINE
8
BLACK
6
CONTINUOUS
10
1.34402
20
0.0452595
11
1.34517
21
0.0462279
0
LINE
8
BLACK
6
CONTINUOUS
10
1.34517
20
0.0462279
11
1.34667
21
0.0460966
0
LINE
8
BLACK
6
CONTINUOUS
10
1.34667
20
0.0460966
11
1.34764
21
0.0449425
0
LINE
8
BLACK
6
CONTINUOUS
10
1.34764
20
0.0449425
11
1.34751
21
0.0434416
0
LINE
8
BLACK
6
CONTINUOUS
10
1.34751
20
0.0434416
11
1.32592
21
0.0019685
0
LINE
8
BLACK
6
CONTINUOUS
10
1.32592
20
0.0019685
11
1.34576
21
0.0019685
0
LINE
8
BLACK
6
CONTINUOUS
10
1.34576
20
0.0019685
11
1.34716
21
0.00139193
0
LINE
8
BLACK
6
CONTINUOUS
10
1.34716
20
0.00139193
11
1.34773
21
0
0
LINE
8
BLACK
6
CONTINUOUS
10
1.34773
20
0
11
1.34716
21
-0.00139193
0
LINE
8
BLACK
6
CONTINUOUS
10
1.34716
20
-0.00139193
11
1.34576
21
-0.0019685
0
LINE
8
BLACK
6
CONTINUOUS
10
1.34576
20
-0.0019685
11
1.32268
21
-0.0019685
0
LINE
8
BLACK
6
CONTINUOUS
10
1.32268
20
-0.0019685
11
1.20079
21
-0.0019685
0
LINE
8
BLACK
6
CONTINUOUS
10
1.20079
20
-0.0019685
11
1.1994
21
-0.00139193
0
LINE
8
BLACK
6
CONTINUOUS
10
1.1994
20
-0.00139193
11
1.19882
21
0
0
LINE
8
BLACK
6
CONTINUOUS
10
1.19882
20
0
11
1.1994
21
0.00139193
0
LINE
8
BLACK
6
CONTINUOUS
10
1.1994
20
0.00139193
11
1.20079
21
0.0019685
0
LINE
8
BLACK
6
CONTINUOUS
10
1.20079
20
0.0019685
11
1.31943
21
0.0019685
0
LINE
8
BLACK
6
CONTINUOUS
10
1.31943
20
0.0019685
11
1.29784
21
0.0434416
0
LINE
8
BLACK
6
CONTINUOUS
10
1.29784
20
0.0434416
11
1.29771
21
0.0449425
0
LINE
8
BLACK
6
CONTINUOUS
10
1.29771
20
0.0449425
11
1.29868
21
0.0460967
0
LINE
8
BLACK
6
CONTINUOUS
10
1.29868
20
0.0460967
11
1.30018
21
0.0462279
0
LINE
8
BLACK
6
CONTINUOUS
10
1.30018
20
0.0462279
11
1.30134
21
0.0452595
0
LINE
8
BLACK
6
CONTINUOUS
10
1.30134
20
0.0452595
11
1.32071
21
0.00804461
0
LINE
8
BLACK
6
CONTINUOUS
10
1.32071
20
0.00804461
11
1.32071
21
0.582507
0
LINE
8
BLACK
6
CONTINUOUS
10
1.32071
20
0.582507
11
1.30134
21
0.545292
0
LINE
8
BLACK
6
CONTINUOUS
10
1.30134
20
0.545292
11
1.30018
21
0.544323
0
LINE
8
BLACK
6
CONTINUOUS
10
1.30018
20
0.544323
11
1.29868
21
0.544455
0
LINE
8
BLACK
6
CONTINUOUS
10
1.29868
20
0.544455
11
1.29771
21
0.545609
0
LINE
8
BLACK
6
CONTINUOUS
10
1.29771
20
0.545609
11
1.29784
21
0.54711
0
LINE
8
BLACK
6
CONTINUOUS
10
1.29784
20
0.54711
11
1.31943
21
0.588583
0
LINE
8
BLACK
6
CONTINUOUS
10
1.31943
20
0.588583
11
1.20079
21
0.588583
0
LINE
8
BLACK
6
CONTINUOUS
10
1.20079
20
0.588583
11
1.1994
21
0.589159
0
LINE
8
BLACK
6
CONTINUOUS
10
1.1994
20
0.589159
11
1.19882
21
0.590551
0
LINE
8
BLACK
6
CONTINUOUS
10
1.19882
20
0.590551
11
1.1994
21
0.591943
0
LINE
8
BLACK
6
CONTINUOUS
10
1.1994
20
0.591943
11
1.20079
21
0.59252
0
LINE
8
BLACK
6
CONTINUOUS
10
1.20079
20
0.59252
11
1.34576
21
0.59252
0
LINE
8
BLACK
6
CONTINUOUS
10
1.34576
20
0.59252
11
1.34716
21
0.591943
0
LINE
8
BLACK
6
CONTINUOUS
10
1.29757
20
0.194061
11
1.29826
21
0.192164
0
LINE
8
BLACK
6
CONTINUOUS
10
1.29826
20
0.192164
11
1.29826
21
0.169666
0
LINE
8
BLACK
6
CONTINUOUS
10
1.29826
20
0.169666
11
1.29808
21
0.168656
0
LINE
8
BLACK
6
CONTINUOUS
10
1.29808
20
0.168656
11
1.29678
21
0.167109
0
LINE
8
BLACK
6
CONTINUOUS
10
1.29678
20
0.167109
11
1.2948
21
0.166758
0
LINE
8
BLACK
6
CONTINUOUS
10
1.2948
20
0.166758
11
1.29305
21
0.167768
0
LINE
8
BLACK
6
CONTINUOUS
10
1.29305
20
0.167768
11
1.29236
21
0.169666
0
LINE
8
BLACK
6
CONTINUOUS
10
1.29236
20
0.169666
11
1.29236
21
0.177962
0
LINE
8
BLACK
6
CONTINUOUS
10
1.29236
20
0.177962
11
1.26494
21
0.177962
0
LINE
8
BLACK
6
CONTINUOUS
10
1.26494
20
0.177962
11
1.2674
21
0.175504
0
LINE
8
BLACK
6
CONTINUOUS
10
1.2674
20
0.175504
11
1.26791
21
0.174781
0
LINE
8
BLACK
6
CONTINUOUS
10
1.26791
20
0.174781
11
1.26795
21
0.174736
0
LINE
8
BLACK
6
CONTINUOUS
10
1.26795
20
0.174736
11
1.26983
21
0.170987
0
LINE
8
BLACK
6
CONTINUOUS
10
1.26983
20
0.170987
11
1.27012
21
0.170004
0
LINE
8
BLACK
6
CONTINUOUS
10
1.27012
20
0.170004
11
1.26965
21
0.168039
0
LINE
8
BLACK
6
CONTINUOUS
10
1.26965
20
0.168039
11
1.26803
21
0.166836
0
LINE
8
BLACK
6
CONTINUOUS
10
1.26803
20
0.166836
11
1.26601
21
0.166957
0
LINE
8
BLACK
6
CONTINUOUS
10
1.26601
20
0.166957
11
1.26455
21
0.168346
0
LINE
8
BLACK
6
CONTINUOUS
10
1.26455
20
0.168346
11
1.26288
21
0.171667
0
LINE
8
BLACK
6
CONTINUOUS
10
1.26288
20
0.171667
11
1.25968
21
0.174871
0
LINE
8
BLACK
6
CONTINUOUS
10
1.25968
20
0.174871
11
1.2543
21
0.178458
0
LINE
8
BLACK
6
CONTINUOUS
10
1.2543
20
0.178458
11
1.25356
21
0.179166
0
LINE
8
BLACK
6
CONTINUOUS
10
1.25356
20
0.179166
11
1.25351
21
0.179329
0
LINE
8
BLACK
6
CONTINUOUS
10
1.25351
20
0.179329
11
1.25338
21
0.179439
0
LINE
8
BLACK
6
CONTINUOUS
10
1.25338
20
0.179439
11
1.25323
21
0.180282
0
LINE
8
BLACK
6
CONTINUOUS
10
1.25323
20
0.180282
11
1.25299
21
0.181105
0
LINE
8
BLACK
6
CONTINUOUS
10
1.25299
20
0.181105
11
1.25306
21
0.18126
0
LINE
8
BLACK
6
CONTINUOUS
10
1.25306
20
0.18126
11
1.25303
21
0.181428
0
LINE
8
BLACK
6
CONTINUOUS
10
1.25303
20
0.181428
11
1.25346
21
0.18217
0
LINE
8
BLACK
6
CONTINUOUS
10
1.25346
20
0.18217
11
1.2538
21
0.182955
0
LINE
8
BLACK
6
CONTINUOUS
10
1.2538
20
0.182955
11
1.25395
21
0.18303
0
LINE
8
BLACK
6
CONTINUOUS
10
1.25395
20
0.18303
11
1.25404
21
0.183177
0
LINE
8
BLACK
6
CONTINUOUS
10
1.25404
20
0.183177
11
1.25484
21
0.18347
0
LINE
8
BLACK
6
CONTINUOUS
10
1.25484
20
0.18347
11
1.25561
21
0.18385
0
LINE
8
BLACK
6
CONTINUOUS
10
1.25561
20
0.18385
11
1.25578
21
0.18381
0
LINE
8
BLACK
6
CONTINUOUS
10
1.25578
20
0.18381
11
1.25594
21
0.183868
0
LINE
8
BLACK
6
CONTINUOUS
10
1.25594
20
0.183868
11
1.29236
21
0.183868
0
LINE
8
BLACK
6
CONTINUOUS
10
1.29236
20
0.183868
11
1.29236
21
0.192164
0
LINE
8
BLACK
6
CONTINUOUS
10
1.29236
20
0.192164
11
1.29253
21
0.193173
0
LINE
8
BLACK
6
CONTINUOUS
10
1.29253
20
0.193173
11
1.29383
21
0.194721
0
LINE
8
BLACK
6
CONTINUOUS
10
1.29383
20
0.194721
11
1.29582
21
0.195071
0
LINE
8
BLACK
6
CONTINUOUS
10
1.29582
20
0.195071
11
1.29757
21
0.194061
0
LINE
8
BLACK
6
CONTINUOUS
10
1.28882
20
0.232434
11
1.28895
21
0.23232
0
LINE
8
BLACK
6
CONTINUOUS
10
1.28895
20
0.23232
11
1.28913
21
0.2323
0
LINE
8
BLACK
6
CONTINUOUS
10
1.28913
20
0.2323
11
1.29288
21
0.230425
0
LINE
8
BLACK
6
CONTINUOUS
10
1.29288
20
0.230425
11
1.29359
21
0.229899
0
LINE
8
BLACK
6
CONTINUOUS
10
1.29359
20
0.229899
11
1.29365
21
0.229872
0
LINE
8
BLACK
6
CONTINUOUS
10
1.29365
20
0.229872
11
1.29552
21
0.227997
0
LINE
8
BLACK
6
CONTINUOUS
10
1.29552
20
0.227997
11
1.29603
21
0.227274
0
LINE
8
BLACK
6
CONTINUOUS
10
1.29603
20
0.227274
11
1.29607
21
0.22723
0
LINE
8
BLACK
6
CONTINUOUS
10
1.29607
20
0.22723
11
1.29795
21
0.22348
0
LINE
8
BLACK
6
CONTINUOUS
10
1.29795
20
0.22348
11
1.29824
21
0.222497
0
LINE
8
BLACK
6
CONTINUOUS
10
1.29824
20
0.222497
11
1.2982
21
0.222326
0
LINE
8
BLACK
6
CONTINUOUS
10
1.2982
20
0.222326
11
1.29826
21
0.22216
0
LINE
8
BLACK
6
CONTINUOUS
10
1.29826
20
0.22216
11
1.29826
21
0.212786
0
LINE
8
BLACK
6
CONTINUOUS
10
1.29826
20
0.212786
11
1.29808
21
0.211776
0
LINE
8
BLACK
6
CONTINUOUS
10
1.29808
20
0.211776
11
1.29797
21
0.211641
0
LINE
8
BLACK
6
CONTINUOUS
10
1.29797
20
0.211641
11
1.29795
21
0.211465
0
LINE
8
BLACK
6
CONTINUOUS
10
1.29795
20
0.211465
11
1.29607
21
0.207716
0
LINE
8
BLACK
6
CONTINUOUS
10
1.29607
20
0.207716
11
1.29555
21
0.207007
0
LINE
8
BLACK
6
CONTINUOUS
10
1.29555
20
0.207007
11
1.29552
21
0.206948
0
LINE
8
BLACK
6
CONTINUOUS
10
1.29552
20
0.206948
11
1.29365
21
0.205074
0
LINE
8
BLACK
6
CONTINUOUS
10
1.29365
20
0.205074
11
1.29281
21
0.204486
0
LINE
8
BLACK
6
CONTINUOUS
10
1.29281
20
0.204486
11
1.29079
21
0.20431
0
LINE
8
BLACK
6
CONTINUOUS
10
1.29079
20
0.20431
11
1.28914
21
0.205468
0
LINE
8
BLACK
6
CONTINUOUS
10
1.28914
20
0.205468
11
1.28862
21
0.207419
0
LINE
8
BLACK
6
CONTINUOUS
10
1.28862
20
0.207419
11
1.28947
21
0.20925
0
LINE
8
BLACK
6
CONTINUOUS
10
1.28947
20
0.20925
11
1.29101
21
0.210786
0
LINE
8
BLACK
6
CONTINUOUS
10
1.29101
20
0.210786
11
1.29236
21
0.213483
0
LINE
8
BLACK
6
CONTINUOUS
10
1.29236
20
0.213483
11
1.29236
21
0.221463
0
LINE
8
BLACK
6
CONTINUOUS
10
1.29236
20
0.221463
11
1.29101
21
0.22416
0
LINE
8
BLACK
6
CONTINUOUS
10
1.29101
20
0.22416
11
1.28981
21
0.225357
0
LINE
8
BLACK
6
CONTINUOUS
10
1.28981
20
0.225357
11
1.28711
21
0.226706
0
LINE
8
BLACK
6
CONTINUOUS
10
1.28711
20
0.226706
11
1.27913
21
0.226706
0
LINE
8
BLACK
6
CONTINUOUS
10
1.27913
20
0.226706
11
1.27643
21
0.225357
0
LINE
8
BLACK
6
CONTINUOUS
10
1.27643
20
0.225357
11
1.27524
21
0.22416
0
LINE
8
BLACK
6
CONTINUOUS
10
1.27524
20
0.22416
11
1.27389
21
0.221463
0
LINE
8
BLACK
6
CONTINUOUS
10
1.27389
20
0.221463
11
1.27389
21
0.213483
0
LINE
8
BLACK
6
CONTINUOUS
10
1.27389
20
0.213483
11
1.27524
21
0.210786
0
LINE
8
BLACK
6
CONTINUOUS
10
1.27524
20
0.210786
11
1.27677
21
0.20925
0
LINE
8
BLACK
6
CONTINUOUS
10
1.27677
20
0.20925
11
1.27736
21
0.20841
0
LINE
8
BLACK
6
CONTINUOUS
10
1.27736
20
0.20841
11
1.27736
21
0.20839
0
LINE
8
BLACK
6
CONTINUOUS
10
1.27736
20
0.20839
11
1.27738
21
0.208376
0
LINE
8
BLACK
6
CONTINUOUS
10
1.27738
20
0.208376
11
1.27745
21
0.207386
0
LINE
8
BLACK
6
CONTINUOUS
10
1.27745
20
0.207386
11
1.27754
21
0.206397
0
LINE
8
BLACK
6
CONTINUOUS
10
1.27754
20
0.206397
11
1.27753
21
0.206382
0
LINE
8
BLACK
6
CONTINUOUS
10
1.27753
20
0.206382
11
1.27753
21
0.206362
0
LINE
8
BLACK
6
CONTINUOUS
10
1.27753
20
0.206362
11
1.27695
21
0.205555
0
LINE
8
BLACK
6
CONTINUOUS
10
1.27695
20
0.205555
11
1.27638
21
0.204743
0
LINE
8
BLACK
6
CONTINUOUS
10
1.27638
20
0.204743
11
1.27636
21
0.204738
0
LINE
8
BLACK
6
CONTINUOUS
10
1.27636
20
0.204738
11
1.27635
21
0.204722
0
LINE
8
BLACK
6
CONTINUOUS
10
1.27635
20
0.204722
11
1.27539
21
0.204477
0
LINE
8
BLACK
6
CONTINUOUS
10
1.27539
20
0.204477
11
1.27443
21
0.20422
0
LINE
8
BLACK
6
CONTINUOUS
10
1.27443
20
0.20422
11
1.27441
21
0.204228
0
LINE
8
BLACK
6
CONTINUOUS
10
1.27441
20
0.204228
11
1.27439
21
0.204224
0
LINE
8
BLACK
6
CONTINUOUS
10
1.27439
20
0.204224
11
1.25564
21
0.206098
0
LINE
8
BLACK
6
CONTINUOUS
10
1.25564
20
0.206098
11
1.25549
21
0.206141
0
LINE
8
BLACK
6
CONTINUOUS
10
1.25549
20
0.206141
11
1.25543
21
0.206129
0
LINE
8
BLACK
6
CONTINUOUS
10
1.25543
20
0.206129
11
1.25532
21
0.20619
0
LINE
8
BLACK
6
CONTINUOUS
10
1.25532
20
0.20619
11
1.25466
21
0.206376
0
LINE
8
BLACK
6
CONTINUOUS
10
1.25466
20
0.206376
11
1.25422
21
0.206825
0
LINE
8
BLACK
6
CONTINUOUS
10
1.25422
20
0.206825
11
1.25368
21
0.207138
0
LINE
8
BLACK
6
CONTINUOUS
10
1.25368
20
0.207138
11
1.25353
21
0.207526
0
LINE
8
BLACK
6
CONTINUOUS
10
1.25353
20
0.207526
11
1.25325
21
0.207822
0
LINE
8
BLACK
6
CONTINUOUS
10
1.25325
20
0.207822
11
1.2532
21
0.208447
0
LINE
8
BLACK
6
CONTINUOUS
10
1.2532
20
0.208447
11
1.25299
21
0.209036
0
LINE
8
BLACK
6
CONTINUOUS
10
1.25299
20
0.209036
11
1.25299
21
0.227784
0
LINE
8
BLACK
6
CONTINUOUS
10
1.25299
20
0.227784
11
1.25316
21
0.228794
0
LINE
8
BLACK
6
CONTINUOUS
10
1.25316
20
0.228794
11
1.25446
21
0.230341
0
LINE
8
BLACK
6
CONTINUOUS
10
1.25446
20
0.230341
11
1.25645
21
0.230692
0
LINE
8
BLACK
6
CONTINUOUS
10
1.25645
20
0.230692
11
1.2582
21
0.229682
0
LINE
8
BLACK
6
CONTINUOUS
10
1.2582
20
0.229682
11
1.25889
21
0.227784
0
LINE
8
BLACK
6
CONTINUOUS
10
1.25889
20
0.227784
11
1.25889
21
0.211709
0
LINE
8
BLACK
6
CONTINUOUS
10
1.25889
20
0.211709
11
1.26866
21
0.210732
0
LINE
8
BLACK
6
CONTINUOUS
10
1.26866
20
0.210732
11
1.26829
21
0.211465
0
LINE
8
BLACK
6
CONTINUOUS
10
1.26829
20
0.211465
11
1.268
21
0.212448
0
LINE
8
BLACK
6
CONTINUOUS
10
1.268
20
0.212448
11
1.26804
21
0.21262
0
LINE
8
BLACK
6
CONTINUOUS
10
1.26804
20
0.21262
11
1.26798
21
0.212786
0
LINE
8
BLACK
6
CONTINUOUS
10
1.26798
20
0.212786
11
1.26798
21
0.22216
0
LINE
8
BLACK
6
CONTINUOUS
10
1.26798
20
0.22216
11
1.26816
21
0.22317
0
LINE
8
BLACK
6
CONTINUOUS
10
1.26816
20
0.22317
11
1.26827
21
0.223305
0
LINE
8
BLACK
6
CONTINUOUS
10
1.26827
20
0.223305
11
1.26829
21
0.22348
0
LINE
8
BLACK
6
CONTINUOUS
10
1.26829
20
0.22348
11
1.27017
21
0.22723
0
LINE
8
BLACK
6
CONTINUOUS
10
1.27017
20
0.22723
11
1.2707
21
0.227939
0
LINE
8
BLACK
6
CONTINUOUS
10
1.2707
20
0.227939
11
1.27072
21
0.227997
0
LINE
8
BLACK
6
CONTINUOUS
10
1.27072
20
0.227997
11
1.2726
21
0.229872
0
LINE
8
BLACK
6
CONTINUOUS
10
1.2726
20
0.229872
11
1.27332
21
0.230378
0
LINE
8
BLACK
6
CONTINUOUS
10
1.27332
20
0.230378
11
1.27336
21
0.230425
0
LINE
8
BLACK
6
CONTINUOUS
10
1.27336
20
0.230425
11
1.27711
21
0.2323
0
LINE
8
BLACK
6
CONTINUOUS
10
1.27711
20
0.2323
11
1.2781
21
0.232592
0
LINE
8
BLACK
6
CONTINUOUS
10
1.2781
20
0.232592
11
1.27827
21
0.232551
0
LINE
8
BLACK
6
CONTINUOUS
10
1.27827
20
0.232551
11
1.27843
21
0.232612
0
LINE
8
BLACK
6
CONTINUOUS
10
1.27843
20
0.232612
11
1.28781
21
0.232612
0
LINE
8
BLACK
6
CONTINUOUS
10
1.28781
20
0.232612
11
1.28882
21
0.232434
0
LINE
8
BLACK
6
CONTINUOUS
10
1.29393
20
0.251235
11
1.2942
21
0.251259
0
LINE
8
BLACK
6
CONTINUOUS
10
1.2942
20
0.251259
11
1.29483
21
0.250819
0
LINE
8
BLACK
6
CONTINUOUS
10
1.29483
20
0.250819
11
1.29552
21
0.250494
0
LINE
8
BLACK
6
CONTINUOUS
10
1.29552
20
0.250494
11
1.2974
21
0.24862
0
LINE
8
BLACK
6
CONTINUOUS
10
1.2974
20
0.24862
11
1.29762
21
0.248301
0
LINE
8
BLACK
6
CONTINUOUS
10
1.29762
20
0.248301
11
1.29773
21
0.248225
0
LINE
8
BLACK
6
CONTINUOUS
10
1.29773
20
0.248225
11
1.29776
21
0.248099
0
LINE
8
BLACK
6
CONTINUOUS
10
1.29776
20
0.248099
11
1.29777
21
0.248092
0
LINE
8
BLACK
6
CONTINUOUS
10
1.29777
20
0.248092
11
1.29787
21
0.248008
0
LINE
8
BLACK
6
CONTINUOUS
10
1.29787
20
0.248008
11
1.29788
21
0.24793
0
LINE
8
BLACK
6
CONTINUOUS
10
1.29788
20
0.24793
11
1.29798
21
0.24778
0
LINE
8
BLACK
6
CONTINUOUS
10
1.29798
20
0.24778
11
1.29805
21
0.247015
0
LINE
8
BLACK
6
CONTINUOUS
10
1.29805
20
0.247015
11
1.29825
21
0.246274
0
LINE
8
BLACK
6
CONTINUOUS
10
1.29825
20
0.246274
11
1.29819
21
0.246152
0
LINE
8
BLACK
6
CONTINUOUS
10
1.29819
20
0.246152
11
1.29822
21
0.246019
0
LINE
8
BLACK
6
CONTINUOUS
10
1.29822
20
0.246019
11
1.29815
21
0.245902
0
LINE
8
BLACK
6
CONTINUOUS
10
1.29815
20
0.245902
11
1.29816
21
0.245768
0
LINE
8
BLACK
6
CONTINUOUS
10
1.29816
20
0.245768
11
1.29772
21
0.245139
0
LINE
8
BLACK
6
CONTINUOUS
10
1.29772
20
0.245139
11
1.2974
21
0.244444
0
LINE
8
BLACK
6
CONTINUOUS
10
1.2974
20
0.244444
11
1.29552
21
0.242569
0
LINE
8
BLACK
6
CONTINUOUS
10
1.29552
20
0.242569
11
1.2952
21
0.242346
0
LINE
8
BLACK
6
CONTINUOUS
10
1.2952
20
0.242346
11
1.29513
21
0.242238
0
LINE
8
BLACK
6
CONTINUOUS
10
1.29513
20
0.242238
11
1.295
21
0.242204
0
LINE
8
BLACK
6
CONTINUOUS
10
1.295
20
0.242204
11
1.29468
21
0.241981
0
LINE
8
BLACK
6
CONTINUOUS
10
1.29468
20
0.241981
11
1.29392
21
0.241914
0
LINE
8
BLACK
6
CONTINUOUS
10
1.29392
20
0.241914
11
1.29318
21
0.241715
0
LINE
8
BLACK
6
CONTINUOUS
10
1.29318
20
0.241715
11
1.29293
21
0.241828
0
LINE
8
BLACK
6
CONTINUOUS
10
1.29293
20
0.241828
11
1.29267
21
0.241805
0
LINE
8
BLACK
6
CONTINUOUS
10
1.29267
20
0.241805
11
1.29204
21
0.242245
0
LINE
8
BLACK
6
CONTINUOUS
10
1.29204
20
0.242245
11
1.29135
21
0.242569
0
LINE
8
BLACK
6
CONTINUOUS
10
1.29135
20
0.242569
11
1.28947
21
0.244444
0
LINE
8
BLACK
6
CONTINUOUS
10
1.28947
20
0.244444
11
1.28925
21
0.244763
0
LINE
8
BLACK
6
CONTINUOUS
10
1.28925
20
0.244763
11
1.28914
21
0.244838
0
LINE
8
BLACK
6
CONTINUOUS
10
1.28914
20
0.244838
11
1.28911
21
0.244965
0
LINE
8
BLACK
6
CONTINUOUS
10
1.28911
20
0.244965
11
1.2891
21
0.244972
0
LINE
8
BLACK
6
CONTINUOUS
10
1.2891
20
0.244972
11
1.289
21
0.245055
0
LINE
8
BLACK
6
CONTINUOUS
10
1.289
20
0.245055
11
1.28899
21
0.245134
0
LINE
8
BLACK
6
CONTINUOUS
10
1.28899
20
0.245134
11
1.28888
21
0.245284
0
LINE
8
BLACK
6
CONTINUOUS
10
1.28888
20
0.245284
11
1.28882
21
0.246048
0
LINE
8
BLACK
6
CONTINUOUS
10
1.28882
20
0.246048
11
1.28862
21
0.246789
0
LINE
8
BLACK
6
CONTINUOUS
10
1.28862
20
0.246789
11
1.28867
21
0.246911
0
LINE
8
BLACK
6
CONTINUOUS
10
1.28867
20
0.246911
11
1.28865
21
0.247044
0
LINE
8
BLACK
6
CONTINUOUS
10
1.28865
20
0.247044
11
1.28872
21
0.247161
0
LINE
8
BLACK
6
CONTINUOUS
10
1.28872
20
0.247161
11
1.28871
21
0.247296
0
LINE
8
BLACK
6
CONTINUOUS
10
1.28871
20
0.247296
11
1.28915
21
0.247925
0
LINE
8
BLACK
6
CONTINUOUS
10
1.28915
20
0.247925
11
1.28947
21
0.24862
0
LINE
8
BLACK
6
CONTINUOUS
10
1.28947
20
0.24862
11
1.29135
21
0.250494
0
LINE
8
BLACK
6
CONTINUOUS
10
1.29135
20
0.250494
11
1.29166
21
0.250718
0
LINE
8
BLACK
6
CONTINUOUS
10
1.29166
20
0.250718
11
1.29174
21
0.250825
0
LINE
8
BLACK
6
CONTINUOUS
10
1.29174
20
0.250825
11
1.29187
21
0.250859
0
LINE
8
BLACK
6
CONTINUOUS
10
1.29187
20
0.250859
11
1.29219
21
0.251083
0
LINE
8
BLACK
6
CONTINUOUS
10
1.29219
20
0.251083
11
1.29295
21
0.251149
0
LINE
8
BLACK
6
CONTINUOUS
10
1.29295
20
0.251149
11
1.29369
21
0.251348
0
LINE
8
BLACK
6
CONTINUOUS
10
1.29369
20
0.251348
11
1.29393
21
0.251235
0
LINE
8
BLACK
6
CONTINUOUS
10
1.28089
20
0.288752
11
1.28103
21
0.288766
0
LINE
8
BLACK
6
CONTINUOUS
10
1.28103
20
0.288766
11
1.28852
21
0.286892
0
LINE
8
BLACK
6
CONTINUOUS
10
1.28852
20
0.286892
11
1.28899
21
0.286684
0
LINE
8
BLACK
6
CONTINUOUS
10
1.28899
20
0.286684
11
1.28913
21
0.286668
0
LINE
8
BLACK
6
CONTINUOUS
10
1.28913
20
0.286668
11
1.29288
21
0.284793
0
LINE
8
BLACK
6
CONTINUOUS
10
1.29288
20
0.284793
11
1.29359
21
0.284267
0
LINE
8
BLACK
6
CONTINUOUS
10
1.29359
20
0.284267
11
1.29365
21
0.28424
0
LINE
8
BLACK
6
CONTINUOUS
10
1.29365
20
0.28424
11
1.29552
21
0.282365
0
LINE
8
BLACK
6
CONTINUOUS
10
1.29552
20
0.282365
11
1.29603
21
0.281642
0
LINE
8
BLACK
6
CONTINUOUS
10
1.29603
20
0.281642
11
1.29607
21
0.281598
0
LINE
8
BLACK
6
CONTINUOUS
10
1.29607
20
0.281598
11
1.29795
21
0.277848
0
LINE
8
BLACK
6
CONTINUOUS
10
1.29795
20
0.277848
11
1.29824
21
0.276866
0
LINE
8
BLACK
6
CONTINUOUS
10
1.29824
20
0.276866
11
1.2982
21
0.276694
0
LINE
8
BLACK
6
CONTINUOUS
10
1.2982
20
0.276694
11
1.29826
21
0.276528
0
LINE
8
BLACK
6
CONTINUOUS
10
1.29826
20
0.276528
11
1.29826
21
0.272778
0
LINE
8
BLACK
6
CONTINUOUS
10
1.29826
20
0.272778
11
1.29808
21
0.271769
0
LINE
8
BLACK
6
CONTINUOUS
10
1.29808
20
0.271769
11
1.29797
21
0.271633
0
LINE
8
BLACK
6
CONTINUOUS
10
1.29797
20
0.271633
11
1.29795
21
0.271458
0
LINE
8
BLACK
6
CONTINUOUS
10
1.29795
20
0.271458
11
1.29607
21
0.267708
0
LINE
8
BLACK
6
CONTINUOUS
10
1.29607
20
0.267708
11
1.29555
21
0.266999
0
LINE
8
BLACK
6
CONTINUOUS
10
1.29555
20
0.266999
11
1.29552
21
0.266941
0
LINE
8
BLACK
6
CONTINUOUS
10
1.29552
20
0.266941
11
1.29365
21
0.265066
0
LINE
8
BLACK
6
CONTINUOUS
10
1.29365
20
0.265066
11
1.29292
21
0.26456
0
LINE
8
BLACK
6
CONTINUOUS
10
1.29292
20
0.26456
11
1.29288
21
0.264513
0
LINE
8
BLACK
6
CONTINUOUS
10
1.29288
20
0.264513
11
1.28913
21
0.262638
0
LINE
8
BLACK
6
CONTINUOUS
10
1.28913
20
0.262638
11
1.28864
21
0.262493
0
LINE
8
BLACK
6
CONTINUOUS
10
1.28864
20
0.262493
11
1.28852
21
0.262415
0
LINE
8
BLACK
6
CONTINUOUS
10
1.28852
20
0.262415
11
1.28103
21
0.26054
0
LINE
8
BLACK
6
CONTINUOUS
10
1.28103
20
0.26054
11
1.28044
21
0.260499
0
LINE
8
BLACK
6
CONTINUOUS
10
1.28044
20
0.260499
11
1.28031
21
0.260452
0
LINE
8
BLACK
6
CONTINUOUS
10
1.28031
20
0.260452
11
1.27094
21
0.260452
0
LINE
8
BLACK
6
CONTINUOUS
10
1.27094
20
0.260452
11
1.27036
21
0.260554
0
LINE
8
BLACK
6
CONTINUOUS
10
1.27036
20
0.260554
11
1.27022
21
0.26054
0
LINE
8
BLACK
6
CONTINUOUS
10
1.27022
20
0.26054
11
1.26272
21
0.262415
0
LINE
8
BLACK
6
CONTINUOUS
10
1.26272
20
0.262415
11
1.26226
21
0.262622
0
LINE
8
BLACK
6
CONTINUOUS
10
1.26226
20
0.262622
11
1.26212
21
0.262638
0
LINE
8
BLACK
6
CONTINUOUS
10
1.26212
20
0.262638
11
1.25837
21
0.264513
0
LINE
8
BLACK
6
CONTINUOUS
10
1.25837
20
0.264513
11
1.25766
21
0.265039
0
LINE
8
BLACK
6
CONTINUOUS
10
1.25766
20
0.265039
11
1.2576
21
0.265066
0
LINE
8
BLACK
6
CONTINUOUS
10
1.2576
20
0.265066
11
1.25572
21
0.266941
0
LINE
8
BLACK
6
CONTINUOUS
10
1.25572
20
0.266941
11
1.25522
21
0.267664
0
LINE
8
BLACK
6
CONTINUOUS
10
1.25522
20
0.267664
11
1.25517
21
0.267708
0
LINE
8
BLACK
6
CONTINUOUS
10
1.25517
20
0.267708
11
1.2533
21
0.271458
0
LINE
8
BLACK
6
CONTINUOUS
10
1.2533
20
0.271458
11
1.253
21
0.272441
0
LINE
8
BLACK
6
CONTINUOUS
10
1.253
20
0.272441
11
1.25305
21
0.272613
0
LINE
8
BLACK
6
CONTINUOUS
10
1.25305
20
0.272613
11
1.25299
21
0.272778
0
LINE
8
BLACK
6
CONTINUOUS
10
1.25299
20
0.272778
11
1.25299
21
0.276528
0
LINE
8
BLACK
6
CONTINUOUS
10
1.25299
20
0.276528
11
1.25316
21
0.277538
0
LINE
8
BLACK
6
CONTINUOUS
10
1.25316
20
0.277538
11
1.25328
21
0.277673
0
LINE
8
BLACK
6
CONTINUOUS
10
1.25328
20
0.277673
11
1.2533
21
0.277848
0
LINE
8
BLACK
6
CONTINUOUS
10
1.2533
20
0.277848
11
1.25517
21
0.281598
0
LINE
8
BLACK
6
CONTINUOUS
10
1.25517
20
0.281598
11
1.2557
21
0.282307
0
LINE
8
BLACK
6
CONTINUOUS
10
1.2557
20
0.282307
11
1.25572
21
0.282365
0
LINE
8
BLACK
6
CONTINUOUS
10
1.25572
20
0.282365
11
1.2576
21
0.28424
0
LINE
8
BLACK
6
CONTINUOUS
10
1.2576
20
0.28424
11
1.25832
21
0.284746
0
LINE
8
BLACK
6
CONTINUOUS
10
1.25832
20
0.284746
11
1.25837
21
0.284793
0
LINE
8
BLACK
6
CONTINUOUS
10
1.25837
20
0.284793
11
1.26212
21
0.286668
0
LINE
8
BLACK
6
CONTINUOUS
10
1.26212
20
0.286668
11
1.2626
21
0.286813
0
LINE
8
BLACK
6
CONTINUOUS
10
1.2626
20
0.286813
11
1.26272
21
0.286892
0
LINE
8
BLACK
6
CONTINUOUS
10
1.26272
20
0.286892
11
1.27022
21
0.288766
0
LINE
8
BLACK
6
CONTINUOUS
10
1.27022
20
0.288766
11
1.27081
21
0.288808
0
LINE
8
BLACK
6
CONTINUOUS
10
1.27081
20
0.288808
11
1.27094
21
0.288855
0
LINE
8
BLACK
6
CONTINUOUS
10
1.27094
20
0.288855
11
1.28031
21
0.288855
0
LINE
8
BLACK
6
CONTINUOUS
10
1.28031
20
0.288855
11
1.28089
21
0.288752
0
LINE
8
BLACK
6
CONTINUOUS
10
1.26447
20
0.281241
11
1.26144
21
0.279726
0
LINE
8
BLACK
6
CONTINUOUS
10
1.26144
20
0.279726
11
1.26024
21
0.278528
0
LINE
8
BLACK
6
CONTINUOUS
10
1.26024
20
0.278528
11
1.25889
21
0.275831
0
LINE
8
BLACK
6
CONTINUOUS
10
1.25889
20
0.275831
11
1.25889
21
0.273475
0
LINE
8
BLACK
6
CONTINUOUS
10
1.25889
20
0.273475
11
1.26024
21
0.270778
0
LINE
8
BLACK
6
CONTINUOUS
10
1.26024
20
0.270778
11
1.26144
21
0.269581
0
LINE
8
BLACK
6
CONTINUOUS
10
1.26144
20
0.269581
11
1.26447
21
0.268065
0
LINE
8
BLACK
6
CONTINUOUS
10
1.26447
20
0.268065
11
1.2713
21
0.266357
0
LINE
8
BLACK
6
CONTINUOUS
10
1.2713
20
0.266357
11
1.27995
21
0.266357
0
LINE
8
BLACK
6
CONTINUOUS
10
1.27995
20
0.266357
11
1.28678
21
0.268065
0
LINE
8
BLACK
6
CONTINUOUS
10
1.28678
20
0.268065
11
1.28981
21
0.269581
0
LINE
8
BLACK
6
CONTINUOUS
10
1.28981
20
0.269581
11
1.29101
21
0.270778
0
LINE
8
BLACK
6
CONTINUOUS
10
1.29101
20
0.270778
11
1.29236
21
0.273475
0
LINE
8
BLACK
6
CONTINUOUS
10
1.29236
20
0.273475
11
1.29236
21
0.275831
0
LINE
8
BLACK
6
CONTINUOUS
10
1.29236
20
0.275831
11
1.29101
21
0.278528
0
LINE
8
BLACK
6
CONTINUOUS
10
1.29101
20
0.278528
11
1.28981
21
0.279726
0
LINE
8
BLACK
6
CONTINUOUS
10
1.28981
20
0.279726
11
1.28678
21
0.281241
0
LINE
8
BLACK
6
CONTINUOUS
10
1.28678
20
0.281241
11
1.27995
21
0.282949
0
LINE
8
BLACK
6
CONTINUOUS
10
1.27995
20
0.282949
11
1.2713
21
0.282949
0
LINE
8
BLACK
6
CONTINUOUS
10
1.2713
20
0.282949
11
1.26447
21
0.281241
0
LINE
8
BLACK
6
CONTINUOUS
10
1.29632
20
0.369291
11
1.29787
21
0.367993
0
LINE
8
BLACK
6
CONTINUOUS
10
1.29787
20
0.367993
11
1.29822
21
0.366004
0
LINE
8
BLACK
6
CONTINUOUS
10
1.29822
20
0.366004
11
1.29721
21
0.364255
0
LINE
8
BLACK
6
CONTINUOUS
10
1.29721
20
0.364255
11
1.29531
21
0.363564
0
LINE
8
BLACK
6
CONTINUOUS
10
1.29531
20
0.363564
11
1.27538
21
0.363564
0
LINE
8
BLACK
6
CONTINUOUS
10
1.27538
20
0.363564
11
1.27314
21
0.362441
0
LINE
8
BLACK
6
CONTINUOUS
10
1.27314
20
0.362441
11
1.27201
21
0.360195
0
LINE
8
BLACK
6
CONTINUOUS
10
1.27201
20
0.360195
11
1.27201
21
0.355965
0
LINE
8
BLACK
6
CONTINUOUS
10
1.27201
20
0.355965
11
1.27314
21
0.353719
0
LINE
8
BLACK
6
CONTINUOUS
10
1.27314
20
0.353719
11
1.27538
21
0.352597
0
LINE
8
BLACK
6
CONTINUOUS
10
1.27538
20
0.352597
11
1.29531
21
0.352597
0
LINE
8
BLACK
6
CONTINUOUS
10
1.29531
20
0.352597
11
1.29632
21
0.352419
0
LINE
8
BLACK
6
CONTINUOUS
10
1.29632
20
0.352419
11
1.29787
21
0.35112
0
LINE
8
BLACK
6
CONTINUOUS
10
1.29787
20
0.35112
11
1.29822
21
0.349131
0
LINE
8
BLACK
6
CONTINUOUS
10
1.29822
20
0.349131
11
1.29721
21
0.347382
0
LINE
8
BLACK
6
CONTINUOUS
10
1.29721
20
0.347382
11
1.29531
21
0.346691
0
LINE
8
BLACK
6
CONTINUOUS
10
1.29531
20
0.346691
11
1.27538
21
0.346691
0
LINE
8
BLACK
6
CONTINUOUS
10
1.27538
20
0.346691
11
1.27314
21
0.345568
0
LINE
8
BLACK
6
CONTINUOUS
10
1.27314
20
0.345568
11
1.27201
21
0.343322
0
LINE
8
BLACK
6
CONTINUOUS
10
1.27201
20
0.343322
11
1.27201
21
0.339092
0
LINE
8
BLACK
6
CONTINUOUS
10
1.27201
20
0.339092
11
1.27336
21
0.336395
0
LINE
8
BLACK
6
CONTINUOUS
10
1.27336
20
0.336395
11
1.27403
21
0.335724
0
LINE
8
BLACK
6
CONTINUOUS
10
1.27403
20
0.335724
11
1.29531
21
0.335724
0
LINE
8
BLACK
6
CONTINUOUS
10
1.29531
20
0.335724
11
1.29632
21
0.335546
0
LINE
8
BLACK
6
CONTINUOUS
10
1.29632
20
0.335546
11
1.29787
21
0.334247
0
LINE
8
BLACK
6
CONTINUOUS
10
1.29787
20
0.334247
11
1.29822
21
0.332258
0
LINE
8
BLACK
6
CONTINUOUS
10
1.29822
20
0.332258
11
1.29721
21
0.330509
0
LINE
8
BLACK
6
CONTINUOUS
10
1.29721
20
0.330509
11
1.29531
21
0.329818
0
LINE
8
BLACK
6
CONTINUOUS
10
1.29531
20
0.329818
11
1.26906
21
0.329818
0
LINE
8
BLACK
6
CONTINUOUS
10
1.26906
20
0.329818
11
1.26805
21
0.329996
0
LINE
8
BLACK
6
CONTINUOUS
10
1.26805
20
0.329996
11
1.2665
21
0.331295
0
LINE
8
BLACK
6
CONTINUOUS
10
1.2665
20
0.331295
11
1.26615
21
0.333284
0
LINE
8
BLACK
6
CONTINUOUS
10
1.26615
20
0.333284
11
1.26716
21
0.335033
0
LINE
8
BLACK
6
CONTINUOUS
10
1.26716
20
0.335033
11
1.2674
21
0.335118
0
LINE
8
BLACK
6
CONTINUOUS
10
1.2674
20
0.335118
11
1.26642
21
0.337075
0
LINE
8
BLACK
6
CONTINUOUS
10
1.26642
20
0.337075
11
1.26613
21
0.338058
0
LINE
8
BLACK
6
CONTINUOUS
10
1.26613
20
0.338058
11
1.26617
21
0.338229
0
LINE
8
BLACK
6
CONTINUOUS
10
1.26617
20
0.338229
11
1.26611
21
0.338395
0
LINE
8
BLACK
6
CONTINUOUS
10
1.26611
20
0.338395
11
1.26611
21
0.34402
0
LINE
8
BLACK
6
CONTINUOUS
10
1.26611
20
0.34402
11
1.26629
21
0.345029
0
LINE
8
BLACK
6
CONTINUOUS
10
1.26629
20
0.345029
11
1.2664
21
0.345165
0
LINE
8
BLACK
6
CONTINUOUS
10
1.2664
20
0.345165
11
1.26642
21
0.34534
0
LINE
8
BLACK
6
CONTINUOUS
10
1.26642
20
0.34534
11
1.26829
21
0.34909
0
LINE
8
BLACK
6
CONTINUOUS
10
1.26829
20
0.34909
11
1.26872
21
0.34966
0
LINE
8
BLACK
6
CONTINUOUS
10
1.26872
20
0.34966
11
1.26862
21
0.349894
0
LINE
8
BLACK
6
CONTINUOUS
10
1.26862
20
0.349894
11
1.26829
21
0.350198
0
LINE
8
BLACK
6
CONTINUOUS
10
1.26829
20
0.350198
11
1.26642
21
0.353948
0
LINE
8
BLACK
6
CONTINUOUS
10
1.26642
20
0.353948
11
1.26613
21
0.354931
0
LINE
8
BLACK
6
CONTINUOUS
10
1.26613
20
0.354931
11
1.26617
21
0.355102
0
LINE
8
BLACK
6
CONTINUOUS
10
1.26617
20
0.355102
11
1.26611
21
0.355268
0
LINE
8
BLACK
6
CONTINUOUS
10
1.26611
20
0.355268
11
1.26611
21
0.360892
0
LINE
8
BLACK
6
CONTINUOUS
10
1.26611
20
0.360892
11
1.26629
21
0.361902
0
LINE
8
BLACK
6
CONTINUOUS
10
1.26629
20
0.361902
11
1.2664
21
0.362038
0
LINE
8
BLACK
6
CONTINUOUS
10
1.2664
20
0.362038
11
1.26642
21
0.362213
0
LINE
8
BLACK
6
CONTINUOUS
10
1.26642
20
0.362213
11
1.26829
21
0.365962
0
LINE
8
BLACK
6
CONTINUOUS
10
1.26829
20
0.365962
11
1.26891
21
0.366786
0
LINE
8
BLACK
6
CONTINUOUS
10
1.26891
20
0.366786
11
1.26931
21
0.366962
0
LINE
8
BLACK
6
CONTINUOUS
10
1.26931
20
0.366962
11
1.26962
21
0.367283
0
LINE
8
BLACK
6
CONTINUOUS
10
1.26962
20
0.367283
11
1.27336
21
0.369158
0
LINE
8
BLACK
6
CONTINUOUS
10
1.27336
20
0.369158
11
1.27435
21
0.36945
0
LINE
8
BLACK
6
CONTINUOUS
10
1.27435
20
0.36945
11
1.27452
21
0.369409
0
LINE
8
BLACK
6
CONTINUOUS
10
1.27452
20
0.369409
11
1.27469
21
0.369469
0
LINE
8
BLACK
6
CONTINUOUS
10
1.27469
20
0.369469
11
1.29531
21
0.369469
0
LINE
8
BLACK
6
CONTINUOUS
10
1.29531
20
0.369469
11
1.29632
21
0.369291
0
LINE
8
BLACK
6
CONTINUOUS
10
1.29632
20
0.421785
11
1.29787
21
0.420487
0
LINE
8
BLACK
6
CONTINUOUS
10
1.29787
20
0.420487
11
1.29822
21
0.418497
0
LINE
8
BLACK
6
CONTINUOUS
10
1.29822
20
0.418497
11
1.29721
21
0.416748
0
LINE
8
BLACK
6
CONTINUOUS
10
1.29721
20
0.416748
11
1.29531
21
0.416057
0
LINE
8
BLACK
6
CONTINUOUS
10
1.29531
20
0.416057
11
1.27538
21
0.416057
0
LINE
8
BLACK
6
CONTINUOUS
10
1.27538
20
0.416057
11
1.27314
21
0.414935
0
LINE
8
BLACK
6
CONTINUOUS
10
1.27314
20
0.414935
11
1.27201
21
0.412689
0
LINE
8
BLACK
6
CONTINUOUS
10
1.27201
20
0.412689
11
1.27201
21
0.408459
0
LINE
8
BLACK
6
CONTINUOUS
10
1.27201
20
0.408459
11
1.27314
21
0.406213
0
LINE
8
BLACK
6
CONTINUOUS
10
1.27314
20
0.406213
11
1.27538
21
0.40509
0
LINE
8
BLACK
6
CONTINUOUS
10
1.27538
20
0.40509
11
1.29531
21
0.40509
0
LINE
8
BLACK
6
CONTINUOUS
10
1.29531
20
0.40509
11
1.29632
21
0.404912
0
LINE
8
BLACK
6
CONTINUOUS
10
1.29632
20
0.404912
11
1.29787
21
0.403614
0
LINE
8
BLACK
6
CONTINUOUS
10
1.29787
20
0.403614
11
1.29822
21
0.401624
0
LINE
8
BLACK
6
CONTINUOUS
10
1.29822
20
0.401624
11
1.29721
21
0.399875
0
LINE
8
BLACK
6
CONTINUOUS
10
1.29721
20
0.399875
11
1.29531
21
0.399184
0
LINE
8
BLACK
6
CONTINUOUS
10
1.29531
20
0.399184
11
1.27538
21
0.399184
0
LINE
8
BLACK
6
CONTINUOUS
10
1.27538
20
0.399184
11
1.27314
21
0.398062
0
LINE
8
BLACK
6
CONTINUOUS
10
1.27314
20
0.398062
11
1.27201
21
0.395816
0
LINE
8
BLACK
6
CONTINUOUS
10
1.27201
20
0.395816
11
1.27201
21
0.391586
0
LINE
8
BLACK
6
CONTINUOUS
10
1.27201
20
0.391586
11
1.27336
21
0.388888
0
LINE
8
BLACK
6
CONTINUOUS
10
1.27336
20
0.388888
11
1.27403
21
0.388217
0
LINE
8
BLACK
6
CONTINUOUS
10
1.27403
20
0.388217
11
1.29531
21
0.388217
0
LINE
8
BLACK
6
CONTINUOUS
10
1.29531
20
0.388217
11
1.29632
21
0.388039
0
LINE
8
BLACK
6
CONTINUOUS
10
1.29632
20
0.388039
11
1.29787
21
0.386741
0
LINE
8
BLACK
6
CONTINUOUS
10
1.29787
20
0.386741
11
1.29822
21
0.384752
0
LINE
8
BLACK
6
CONTINUOUS
10
1.29822
20
0.384752
11
1.29721
21
0.383002
0
LINE
8
BLACK
6
CONTINUOUS
10
1.29721
20
0.383002
11
1.29531
21
0.382312
0
LINE
8
BLACK
6
CONTINUOUS
10
1.29531
20
0.382312
11
1.26906
21
0.382312
0
LINE
8
BLACK
6
CONTINUOUS
10
1.26906
20
0.382312
11
1.26805
21
0.38249
0
LINE
8
BLACK
6
CONTINUOUS
10
1.26805
20
0.38249
11
1.2665
21
0.383788
0
LINE
8
BLACK
6
CONTINUOUS
10
1.2665
20
0.383788
11
1.26615
21
0.385777
0
LINE
8
BLACK
6
CONTINUOUS
10
1.26615
20
0.385777
11
1.26716
21
0.387526
0
LINE
8
BLACK
6
CONTINUOUS
10
1.26716
20
0.387526
11
1.2674
21
0.387612
0
LINE
8
BLACK
6
CONTINUOUS
10
1.2674
20
0.387612
11
1.26642
21
0.389568
0
LINE
8
BLACK
6
CONTINUOUS
10
1.26642
20
0.389568
11
1.26613
21
0.390551
0
LINE
8
BLACK
6
CONTINUOUS
10
1.26613
20
0.390551
11
1.26617
21
0.390723
0
LINE
8
BLACK
6
CONTINUOUS
10
1.26617
20
0.390723
11
1.26611
21
0.390889
0
LINE
8
BLACK
6
CONTINUOUS
10
1.26611
20
0.390889
11
1.26611
21
0.396513
0
LINE
8
BLACK
6
CONTINUOUS
10
1.26611
20
0.396513
11
1.26629
21
0.397523
0
LINE
8
BLACK
6
CONTINUOUS
10
1.26629
20
0.397523
11
1.2664
21
0.397658
0
LINE
8
BLACK
6
CONTINUOUS
10
1.2664
20
0.397658
11
1.26642
21
0.397833
0
LINE
8
BLACK
6
CONTINUOUS
10
1.26642
20
0.397833
11
1.26829
21
0.401583
0
LINE
8
BLACK
6
CONTINUOUS
10
1.26829
20
0.401583
11
1.26872
21
0.402153
0
LINE
8
BLACK
6
CONTINUOUS
10
1.26872
20
0.402153
11
1.26862
21
0.402388
0
LINE
8
BLACK
6
CONTINUOUS
10
1.26862
20
0.402388
11
1.26829
21
0.402691
0
LINE
8
BLACK
6
CONTINUOUS
10
1.26829
20
0.402691
11
1.26642
21
0.406441
0
LINE
8
BLACK
6
CONTINUOUS
10
1.26642
20
0.406441
11
1.26613
21
0.407424
0
LINE
8
BLACK
6
CONTINUOUS
10
1.26613
20
0.407424
11
1.26617
21
0.407596
0
LINE
8
BLACK
6
CONTINUOUS
10
1.26617
20
0.407596
11
1.26611
21
0.407762
0
LINE
8
BLACK
6
CONTINUOUS
10
1.26611
20
0.407762
11
1.26611
21
0.413386
0
LINE
8
BLACK
6
CONTINUOUS
10
1.26611
20
0.413386
11
1.26629
21
0.414396
0
LINE
8
BLACK
6
CONTINUOUS
10
1.26629
20
0.414396
11
1.2664
21
0.414531
0
LINE
8
BLACK
6
CONTINUOUS
10
1.2664
20
0.414531
11
1.26642
21
0.414706
0
LINE
8
BLACK
6
CONTINUOUS
10
1.26642
20
0.414706
11
1.26829
21
0.418456
0
LINE
8
BLACK
6
CONTINUOUS
10
1.26829
20
0.418456
11
1.26891
21
0.41928
0
LINE
8
BLACK
6
CONTINUOUS
10
1.26891
20
0.41928
11
1.26931
21
0.419455
0
LINE
8
BLACK
6
CONTINUOUS
10
1.26931
20
0.419455
11
1.26962
21
0.419776
0
LINE
8
BLACK
6
CONTINUOUS
10
1.26962
20
0.419776
11
1.27336
21
0.421651
0
LINE
8
BLACK
6
CONTINUOUS
10
1.27336
20
0.421651
11
1.27435
21
0.421944
0
LINE
8
BLACK
6
CONTINUOUS
10
1.27435
20
0.421944
11
1.27452
21
0.421903
0
LINE
8
BLACK
6
CONTINUOUS
10
1.27452
20
0.421903
11
1.27469
21
0.421963
0
LINE
8
BLACK
6
CONTINUOUS
10
1.27469
20
0.421963
11
1.29531
21
0.421963
0
LINE
8
BLACK
6
CONTINUOUS
10
1.29531
20
0.421963
11
1.29632
21
0.421785
0
LINE
8
BLACK
6
CONTINUOUS
10
1.18249
20
0.766369
11
1.18307
21
0.764977
0
LINE
8
BLACK
6
CONTINUOUS
10
1.18307
20
0.764977
11
1.18307
21
0.610236
0
LINE
8
BLACK
6
CONTINUOUS
10
1.18307
20
0.610236
11
1.18249
21
0.608844
0
LINE
8
BLACK
6
CONTINUOUS
10
1.18249
20
0.608844
11
1.1811
21
0.608268
0
LINE
8
BLACK
6
CONTINUOUS
10
1.1811
20
0.608268
11
1.17971
21
0.608844
0
LINE
8
BLACK
6
CONTINUOUS
10
1.17971
20
0.608844
11
1.17913
21
0.610236
0
LINE
8
BLACK
6
CONTINUOUS
10
1.17913
20
0.610236
11
1.17913
21
0.738646
0
LINE
8
BLACK
6
CONTINUOUS
10
1.17913
20
0.738646
11
1.13766
21
0.717056
0
LINE
8
BLACK
6
CONTINUOUS
10
1.13766
20
0.717056
11
1.13616
21
0.716925
0
LINE
8
BLACK
6
CONTINUOUS
10
1.13616
20
0.716925
11
1.13501
21
0.717893
0
LINE
8
BLACK
6
CONTINUOUS
10
1.13501
20
0.717893
11
1.13487
21
0.719394
0
LINE
8
BLACK
6
CONTINUOUS
10
1.13487
20
0.719394
11
1.13584
21
0.720548
0
LINE
8
BLACK
6
CONTINUOUS
10
1.13584
20
0.720548
11
1.17306
21
0.739921
0
LINE
8
BLACK
6
CONTINUOUS
10
1.17306
20
0.739921
11
0.00804465
21
0.739921
0
LINE
8
BLACK
6
CONTINUOUS
10
0.00804465
20
0.739921
11
0.0452595
21
0.720548
0
LINE
8
BLACK
6
CONTINUOUS
10
0.0452595
20
0.720548
11
0.0462279
21
0.719394
0
LINE
8
BLACK
6
CONTINUOUS
10
0.0462279
20
0.719394
11
0.0460966
21
0.717893
0
LINE
8
BLACK
6
CONTINUOUS
10
0.0460966
20
0.717893
11
0.0449425
21
0.716925
0
LINE
8
BLACK
6
CONTINUOUS
10
0.0449425
20
0.716925
11
0.0434416
21
0.717056
0
LINE
8
BLACK
6
CONTINUOUS
10
0.0434416
20
0.717056
11
0.0019685
21
0.738646
0
LINE
8
BLACK
6
CONTINUOUS
10
0.0019685
20
0.738646
11
0.0019685
21
0.610236
0
LINE
8
BLACK
6
CONTINUOUS
10
0.0019685
20
0.610236
11
0.00139193
21
0.608844
0
LINE
8
BLACK
6
CONTINUOUS
10
0.00139193
20
0.608844
11
0
21
0.608268
0
LINE
8
BLACK
6
CONTINUOUS
10
0
20
0.608268
11
-0.00139193
21
0.608844
0
LINE
8
BLACK
6
CONTINUOUS
10
-0.00139193
20
0.608844
11
-0.0019685
21
0.610236
0
LINE
8
BLACK
6
CONTINUOUS
10
-0.0019685
20
0.610236
11
-0.0019685
21
0.764977
0
LINE
8
BLACK
6
CONTINUOUS
10
-0.0019685
20
0.764977
11
-0.00139193
21
0.766369
0
LINE
8
BLACK
6
CONTINUOUS
10
-0.00139193
20
0.766369
11
0
21
0.766946
0
LINE
8
BLACK
6
CONTINUOUS
10
0
20
0.766946
11
0.00139193
21
0.766369
0
LINE
8
BLACK
6
CONTINUOUS
10
0.00139193
20
0.766369
11
0.0019685
21
0.764977
0
LINE
8
BLACK
6
CONTINUOUS
10
0.0019685
20
0.764977
11
0.0019685
21
0.745134
0
LINE
8
BLACK
6
CONTINUOUS
10
0.0019685
20
0.745134
11
0.0434416
21
0.766723
0
LINE
8
BLACK
6
CONTINUOUS
10
0.0434416
20
0.766723
11
0.0449425
21
0.766855
0
LINE
8
BLACK
6
CONTINUOUS
10
0.0449425
20
0.766855
11
0.0460966
21
0.765886
0
LINE
8
BLACK
6
CONTINUOUS
10
0.0460966
20
0.765886
11
0.0462279
21
0.764385
0
LINE
8
BLACK
6
CONTINUOUS
10
0.0462279
20
0.764385
11
0.0452595
21
0.763231
0
LINE
8
BLACK
6
CONTINUOUS
10
0.0452595
20
0.763231
11
0.00804465
21
0.743858
0
LINE
8
BLACK
6
CONTINUOUS
10
0.00804465
20
0.743858
11
1.17306
21
0.743858
0
LINE
8
BLACK
6
CONTINUOUS
10
1.17306
20
0.743858
11
1.13584
21
0.763231
0
LINE
8
BLACK
6
CONTINUOUS
10
1.13584
20
0.763231
11
1.13487
21
0.764385
0
LINE
8
BLACK
6
CONTINUOUS
10
1.13487
20
0.764385
11
1.13501
21
0.765886
0
LINE
8
BLACK
6
CONTINUOUS
10
1.13501
20
0.765886
11
1.13616
21
0.766855
0
LINE
8
BLACK
6
CONTINUOUS
10
1.13616
20
0.766855
11
1.13766
21
0.766723
0
LINE
8
BLACK
6
CONTINUOUS
10
1.13766
20
0.766723
11
1.17913
21
0.745134
0
LINE
8
BLACK
6
CONTINUOUS
10
1.17913
20
0.745134
11
1.17913
21
0.764977
0
LINE
8
BLACK
6
CONTINUOUS
10
1.17913
20
0.764977
11
1.17971
21
0.766369
0
LINE
8
BLACK
6
CONTINUOUS
10
1.17971
20
0.766369
11
1.1811
21
0.766946
0
LINE
8
BLACK
6
CONTINUOUS
10
1.1811
20
0.766946
11
1.18249
21
0.766369
0
LINE
8
BLACK
6
CONTINUOUS
10
0.487876
20
0.811505
11
0.488012
21
0.811526
0
LINE
8
BLACK
6
CONTINUOUS
10
0.488012
20
0.811526
11
0.488117
21
0.811462
0
LINE
8
BLACK
6
CONTINUOUS
10
0.488117
20
0.811462
11
0.488449
21
0.811404
0
LINE
8
BLACK
6
CONTINUOUS
10
0.488449
20
0.811404
11
0.489059
21
0.810892
0
LINE
8
BLACK
6
CONTINUOUS
10
0.489059
20
0.810892
11
0.48974
21
0.81048
0
LINE
8
BLACK
6
CONTINUOUS
10
0.48974
20
0.81048
11
0.489816
21
0.810257
0
LINE
8
BLACK
6
CONTINUOUS
10
0.489816
20
0.810257
11
0.489996
21
0.810106
0
LINE
8
BLACK
6
CONTINUOUS
10
0.489996
20
0.810106
11
0.490134
21
0.809322
0
LINE
8
BLACK
6
CONTINUOUS
10
0.490134
20
0.809322
11
0.490391
21
0.808568
0
LINE
8
BLACK
6
CONTINUOUS
10
0.490391
20
0.808568
11
0.490306
21
0.808348
0
LINE
8
BLACK
6
CONTINUOUS
10
0.490306
20
0.808348
11
0.490347
21
0.808116
0
LINE
8
BLACK
6
CONTINUOUS
10
0.490347
20
0.808116
11
0.489949
21
0.807427
0
LINE
8
BLACK
6
CONTINUOUS
10
0.489949
20
0.807427
11
0.489661
21
0.806685
0
LINE
8
BLACK
6
CONTINUOUS
10
0.489661
20
0.806685
11
0.480705
21
0.796449
0
LINE
8
BLACK
6
CONTINUOUS
10
0.480705
20
0.796449
11
0.48095
21
0.796406
0
LINE
8
BLACK
6
CONTINUOUS
10
0.48095
20
0.796406
11
0.481085
21
0.796292
0
LINE
8
BLACK
6
CONTINUOUS
10
0.481085
20
0.796292
11
0.481261
21
0.796272
0
LINE
8
BLACK
6
CONTINUOUS
10
0.481261
20
0.796272
11
0.48501
21
0.794397
0
LINE
8
BLACK
6
CONTINUOUS
10
0.48501
20
0.794397
11
0.485719
21
0.793871
0
LINE
8
BLACK
6
CONTINUOUS
10
0.485719
20
0.793871
11
0.485777
21
0.793844
0
LINE
8
BLACK
6
CONTINUOUS
10
0.485777
20
0.793844
11
0.487652
21
0.791969
0
LINE
8
BLACK
6
CONTINUOUS
10
0.487652
20
0.791969
11
0.488158
21
0.791246
0
LINE
8
BLACK
6
CONTINUOUS
10
0.488158
20
0.791246
11
0.488205
21
0.791202
0
LINE
8
BLACK
6
CONTINUOUS
10
0.488205
20
0.791202
11
0.49008
21
0.787453
0
LINE
8
BLACK
6
CONTINUOUS
10
0.49008
20
0.787453
11
0.490372
21
0.78647
0
LINE
8
BLACK
6
CONTINUOUS
10
0.490372
20
0.78647
11
0.490331
21
0.786298
0
LINE
8
BLACK
6
CONTINUOUS
10
0.490331
20
0.786298
11
0.490392
21
0.786132
0
LINE
8
BLACK
6
CONTINUOUS
10
0.490392
20
0.786132
11
0.490392
21
0.776758
0
LINE
8
BLACK
6
CONTINUOUS
10
0.490392
20
0.776758
11
0.490214
21
0.775748
0
LINE
8
BLACK
6
CONTINUOUS
10
0.490214
20
0.775748
11
0.4901
21
0.775613
0
LINE
8
BLACK
6
CONTINUOUS
10
0.4901
20
0.775613
11
0.49008
21
0.775438
0
LINE
8
BLACK
6
CONTINUOUS
10
0.49008
20
0.775438
11
0.488205
21
0.771688
0
LINE
8
BLACK
6
CONTINUOUS
10
0.488205
20
0.771688
11
0.487679
21
0.770979
0
LINE
8
BLACK
6
CONTINUOUS
10
0.487679
20
0.770979
11
0.487652
21
0.770921
0
LINE
8
BLACK
6
CONTINUOUS
10
0.487652
20
0.770921
11
0.485777
21
0.769046
0
LINE
8
BLACK
6
CONTINUOUS
10
0.485777
20
0.769046
11
0.485054
21
0.76854
0
LINE
8
BLACK
6
CONTINUOUS
10
0.485054
20
0.76854
11
0.48501
21
0.768493
0
LINE
8
BLACK
6
CONTINUOUS
10
0.48501
20
0.768493
11
0.481261
21
0.766618
0
LINE
8
BLACK
6
CONTINUOUS
10
0.481261
20
0.766618
11
0.480278
21
0.766326
0
LINE
8
BLACK
6
CONTINUOUS
10
0.480278
20
0.766326
11
0.480106
21
0.766367
0
LINE
8
BLACK
6
CONTINUOUS
10
0.480106
20
0.766367
11
0.47994
21
0.766306
0
LINE
8
BLACK
6
CONTINUOUS
10
0.47994
20
0.766306
11
0.468691
21
0.766306
0
LINE
8
BLACK
6
CONTINUOUS
10
0.468691
20
0.766306
11
0.467681
21
0.766484
0
LINE
8
BLACK
6
CONTINUOUS
10
0.467681
20
0.766484
11
0.467546
21
0.766598
0
LINE
8
BLACK
6
CONTINUOUS
10
0.467546
20
0.766598
11
0.467371
21
0.766618
0
LINE
8
BLACK
6
CONTINUOUS
10
0.467371
20
0.766618
11
0.463621
21
0.768493
0
LINE
8
BLACK
6
CONTINUOUS
10
0.463621
20
0.768493
11
0.462912
21
0.769019
0
LINE
8
BLACK
6
CONTINUOUS
10
0.462912
20
0.769019
11
0.462854
21
0.769046
0
LINE
8
BLACK
6
CONTINUOUS
10
0.462854
20
0.769046
11
0.460979
21
0.770921
0
LINE
8
BLACK
6
CONTINUOUS
10
0.460979
20
0.770921
11
0.460391
21
0.771761
0
LINE
8
BLACK
6
CONTINUOUS
10
0.460391
20
0.771761
11
0.460215
21
0.773773
0
LINE
8
BLACK
6
CONTINUOUS
10
0.460215
20
0.773773
11
0.461374
21
0.775427
0
LINE
8
BLACK
6
CONTINUOUS
10
0.461374
20
0.775427
11
0.463324
21
0.77595
0
LINE
8
BLACK
6
CONTINUOUS
10
0.463324
20
0.77595
11
0.465155
21
0.775097
0
LINE
8
BLACK
6
CONTINUOUS
10
0.465155
20
0.775097
11
0.466691
21
0.773561
0
LINE
8
BLACK
6
CONTINUOUS
10
0.466691
20
0.773561
11
0.469388
21
0.772212
0
LINE
8
BLACK
6
CONTINUOUS
10
0.469388
20
0.772212
11
0.479243
21
0.772212
0
LINE
8
BLACK
6
CONTINUOUS
10
0.479243
20
0.772212
11
0.48194
21
0.773561
0
LINE
8
BLACK
6
CONTINUOUS
10
0.48194
20
0.773561
11
0.483138
21
0.774758
0
LINE
8
BLACK
6
CONTINUOUS
10
0.483138
20
0.774758
11
0.484486
21
0.777455
0
LINE
8
BLACK
6
CONTINUOUS
10
0.484486
20
0.777455
11
0.484486
21
0.785435
0
LINE
8
BLACK
6
CONTINUOUS
10
0.484486
20
0.785435
11
0.483138
21
0.788132
0
LINE
8
BLACK
6
CONTINUOUS
10
0.483138
20
0.788132
11
0.48194
21
0.78933
0
LINE
8
BLACK
6
CONTINUOUS
10
0.48194
20
0.78933
11
0.479243
21
0.790678
0
LINE
8
BLACK
6
CONTINUOUS
10
0.479243
20
0.790678
11
0.474316
21
0.790678
0
LINE
8
BLACK
6
CONTINUOUS
10
0.474316
20
0.790678
11
0.473878
21
0.790755
0
LINE
8
BLACK
6
CONTINUOUS
10
0.473878
20
0.790755
11
0.473743
21
0.790734
0
LINE
8
BLACK
6
CONTINUOUS
10
0.473743
20
0.790734
11
0.473638
21
0.790798
0
LINE
8
BLACK
6
CONTINUOUS
10
0.473638
20
0.790798
11
0.473306
21
0.790856
0
LINE
8
BLACK
6
CONTINUOUS
10
0.473306
20
0.790856
11
0.472696
21
0.791368
0
LINE
8
BLACK
6
CONTINUOUS
10
0.472696
20
0.791368
11
0.472015
21
0.79178
0
LINE
8
BLACK
6
CONTINUOUS
10
0.472015
20
0.79178
11
0.471939
21
0.792003
0
LINE
8
BLACK
6
CONTINUOUS
10
0.471939
20
0.792003
11
0.471759
21
0.792155
0
LINE
8
BLACK
6
CONTINUOUS
10
0.471759
20
0.792155
11
0.47162
21
0.792939
0
LINE
8
BLACK
6
CONTINUOUS
10
0.47162
20
0.792939
11
0.471364
21
0.793692
0
LINE
8
BLACK
6
CONTINUOUS
10
0.471364
20
0.793692
11
0.471449
21
0.793912
0
LINE
8
BLACK
6
CONTINUOUS
10
0.471449
20
0.793912
11
0.471408
21
0.794144
0
LINE
8
BLACK
6
CONTINUOUS
10
0.471408
20
0.794144
11
0.471806
21
0.794833
0
LINE
8
BLACK
6
CONTINUOUS
10
0.471806
20
0.794833
11
0.472094
21
0.795575
0
LINE
8
BLACK
6
CONTINUOUS
10
0.472094
20
0.795575
11
0.480932
21
0.805676
0
LINE
8
BLACK
6
CONTINUOUS
10
0.480932
20
0.805676
11
0.463067
21
0.805676
0
LINE
8
BLACK
6
CONTINUOUS
10
0.463067
20
0.805676
11
0.462057
21
0.805854
0
LINE
8
BLACK
6
CONTINUOUS
10
0.462057
20
0.805854
11
0.46051
21
0.807153
0
LINE
8
BLACK
6
CONTINUOUS
10
0.46051
20
0.807153
11
0.460159
21
0.809142
0
LINE
8
BLACK
6
CONTINUOUS
10
0.460159
20
0.809142
11
0.461169
21
0.810891
0
LINE
8
BLACK
6
CONTINUOUS
10
0.461169
20
0.810891
11
0.463067
21
0.811582
0
LINE
8
BLACK
6
CONTINUOUS
10
0.463067
20
0.811582
11
0.487439
21
0.811582
0
LINE
8
BLACK
6
CONTINUOUS
10
0.487439
20
0.811582
11
0.487876
21
0.811505
0
LINE
8
BLACK
6
CONTINUOUS
10
0.51657
20
0.811404
11
0.516706
21
0.81129
0
LINE
8
BLACK
6
CONTINUOUS
10
0.516706
20
0.81129
11
0.516881
21
0.81127
0
LINE
8
BLACK
6
CONTINUOUS
10
0.516881
20
0.81127
11
0.520631
21
0.809395
0
LINE
8
BLACK
6
CONTINUOUS
10
0.520631
20
0.809395
11
0.52134
21
0.80887
0
LINE
8
BLACK
6
CONTINUOUS
10
0.52134
20
0.80887
11
0.521398
21
0.808842
0
LINE
8
BLACK
6
CONTINUOUS
10
0.521398
20
0.808842
11
0.523273
21
0.806968
0
LINE
8
BLACK
6
CONTINUOUS
10
0.523273
20
0.806968
11
0.523779
21
0.806244
0
LINE
8
BLACK
6
CONTINUOUS
10
0.523779
20
0.806244
11
0.523826
21
0.8062
0
LINE
8
BLACK
6
CONTINUOUS
10
0.523826
20
0.8062
11
0.525701
21
0.802451
0
LINE
8
BLACK
6
CONTINUOUS
10
0.525701
20
0.802451
11
0.525846
21
0.801962
0
LINE
8
BLACK
6
CONTINUOUS
10
0.525846
20
0.801962
11
0.525924
21
0.801846
0
LINE
8
BLACK
6
CONTINUOUS
10
0.525924
20
0.801846
11
0.527799
21
0.794347
0
LINE
8
BLACK
6
CONTINUOUS
10
0.527799
20
0.794347
11
0.52784
21
0.793759
0
LINE
8
BLACK
6
CONTINUOUS
10
0.52784
20
0.793759
11
0.527887
21
0.793631
0
LINE
8
BLACK
6
CONTINUOUS
10
0.527887
20
0.793631
11
0.527887
21
0.784257
0
LINE
8
BLACK
6
CONTINUOUS
10
0.527887
20
0.784257
11
0.527785
21
0.783677
0
LINE
8
BLACK
6
CONTINUOUS
10
0.527785
20
0.783677
11
0.527799
21
0.783541
0
LINE
8
BLACK
6
CONTINUOUS
10
0.527799
20
0.783541
11
0.525924
21
0.776042
0
LINE
8
BLACK
6
CONTINUOUS
10
0.525924
20
0.776042
11
0.525717
21
0.775577
0
LINE
8
BLACK
6
CONTINUOUS
10
0.525717
20
0.775577
11
0.525701
21
0.775438
0
LINE
8
BLACK
6
CONTINUOUS
10
0.525701
20
0.775438
11
0.523826
21
0.771688
0
LINE
8
BLACK
6
CONTINUOUS
10
0.523826
20
0.771688
11
0.5233
21
0.770979
0
LINE
8
BLACK
6
CONTINUOUS
10
0.5233
20
0.770979
11
0.523273
21
0.770921
0
LINE
8
BLACK
6
CONTINUOUS
10
0.523273
20
0.770921
11
0.521398
21
0.769046
0
LINE
8
BLACK
6
CONTINUOUS
10
0.521398
20
0.769046
11
0.520675
21
0.76854
0
LINE
8
BLACK
6
CONTINUOUS
10
0.520675
20
0.76854
11
0.520631
21
0.768493
0
LINE
8
BLACK
6
CONTINUOUS
10
0.520631
20
0.768493
11
0.516881
21
0.766618
0
LINE
8
BLACK
6
CONTINUOUS
10
0.516881
20
0.766618
11
0.515898
21
0.766326
0
LINE
8
BLACK
6
CONTINUOUS
10
0.515898
20
0.766326
11
0.515726
21
0.766367
0
LINE
8
BLACK
6
CONTINUOUS
10
0.515726
20
0.766367
11
0.515561
21
0.766306
0
LINE
8
BLACK
6
CONTINUOUS
10
0.515561
20
0.766306
11
0.511811
21
0.766306
0
LINE
8
BLACK
6
CONTINUOUS
10
0.511811
20
0.766306
11
0.510801
21
0.766484
0
LINE
8
BLACK
6
CONTINUOUS
10
0.510801
20
0.766484
11
0.510666
21
0.766598
0
LINE
8
BLACK
6
CONTINUOUS
10
0.510666
20
0.766598
11
0.510491
21
0.766618
0
LINE
8
BLACK
6
CONTINUOUS
10
0.510491
20
0.766618
11
0.506741
21
0.768493
0
LINE
8
BLACK
6
CONTINUOUS
10
0.506741
20
0.768493
11
0.506032
21
0.769019
0
LINE
8
BLACK
6
CONTINUOUS
10
0.506032
20
0.769019
11
0.505974
21
0.769046
0
LINE
8
BLACK
6
CONTINUOUS
10
0.505974
20
0.769046
11
0.504099
21
0.770921
0
LINE
8
BLACK
6
CONTINUOUS
10
0.504099
20
0.770921
11
0.503592
21
0.771644
0
LINE
8
BLACK
6
CONTINUOUS
10
0.503592
20
0.771644
11
0.503546
21
0.771688
0
LINE
8
BLACK
6
CONTINUOUS
10
0.503546
20
0.771688
11
0.501671
21
0.775438
0
LINE
8
BLACK
6
CONTINUOUS
10
0.501671
20
0.775438
11
0.501526
21
0.775926
0
LINE
8
BLACK
6
CONTINUOUS
10
0.501526
20
0.775926
11
0.501447
21
0.776042
0
LINE
8
BLACK
6
CONTINUOUS
10
0.501447
20
0.776042
11
0.499573
21
0.783541
0
LINE
8
BLACK
6
CONTINUOUS
10
0.499573
20
0.783541
11
0.499531
21
0.784129
0
LINE
8
BLACK
6
CONTINUOUS
10
0.499531
20
0.784129
11
0.499484
21
0.784257
0
LINE
8
BLACK
6
CONTINUOUS
10
0.499484
20
0.784257
11
0.499484
21
0.793631
0
LINE
8
BLACK
6
CONTINUOUS
10
0.499484
20
0.793631
11
0.499587
21
0.794211
0
LINE
8
BLACK
6
CONTINUOUS
10
0.499587
20
0.794211
11
0.499573
21
0.794347
0
LINE
8
BLACK
6
CONTINUOUS
10
0.499573
20
0.794347
11
0.501447
21
0.801846
0
LINE
8
BLACK
6
CONTINUOUS
10
0.501447
20
0.801846
11
0.501655
21
0.802312
0
LINE
8
BLACK
6
CONTINUOUS
10
0.501655
20
0.802312
11
0.501671
21
0.802451
0
LINE
8
BLACK
6
CONTINUOUS
10
0.501671
20
0.802451
11
0.503546
21
0.8062
0
LINE
8
BLACK
6
CONTINUOUS
10
0.503546
20
0.8062
11
0.504072
21
0.806909
0
LINE
8
BLACK
6
CONTINUOUS
10
0.504072
20
0.806909
11
0.504099
21
0.806968
0
LINE
8
BLACK
6
CONTINUOUS
10
0.504099
20
0.806968
11
0.505974
21
0.808842
0
LINE
8
BLACK
6
CONTINUOUS
10
0.505974
20
0.808842
11
0.506697
21
0.809349
0
LINE
8
BLACK
6
CONTINUOUS
10
0.506697
20
0.809349
11
0.506741
21
0.809395
0
LINE
8
BLACK
6
CONTINUOUS
10
0.506741
20
0.809395
11
0.510491
21
0.81127
0
LINE
8
BLACK
6
CONTINUOUS
10
0.510491
20
0.81127
11
0.511473
21
0.811563
0
LINE
8
BLACK
6
CONTINUOUS
10
0.511473
20
0.811563
11
0.511645
21
0.811522
0
LINE
8
BLACK
6
CONTINUOUS
10
0.511645
20
0.811522
11
0.511811
21
0.811582
0
LINE
8
BLACK
6
CONTINUOUS
10
0.511811
20
0.811582
11
0.515561
21
0.811582
0
LINE
8
BLACK
6
CONTINUOUS
10
0.515561
20
0.811582
11
0.51657
21
0.811404
0
LINE
8
BLACK
6
CONTINUOUS
10
0.509811
20
0.804328
11
0.508613
21
0.803131
0
LINE
8
BLACK
6
CONTINUOUS
10
0.508613
20
0.803131
11
0.507098
21
0.8001
0
LINE
8
BLACK
6
CONTINUOUS
10
0.507098
20
0.8001
11
0.50539
21
0.793268
0
LINE
8
BLACK
6
CONTINUOUS
10
0.50539
20
0.793268
11
0.50539
21
0.784621
0
LINE
8
BLACK
6
CONTINUOUS
10
0.50539
20
0.784621
11
0.507098
21
0.777789
0
LINE
8
BLACK
6
CONTINUOUS
10
0.507098
20
0.777789
11
0.508613
21
0.774758
0
LINE
8
BLACK
6
CONTINUOUS
10
0.508613
20
0.774758
11
0.509811
21
0.773561
0
LINE
8
BLACK
6
CONTINUOUS
10
0.509811
20
0.773561
11
0.512508
21
0.772212
0
LINE
8
BLACK
6
CONTINUOUS
10
0.512508
20
0.772212
11
0.514864
21
0.772212
0
LINE
8
BLACK
6
CONTINUOUS
10
0.514864
20
0.772212
11
0.517561
21
0.773561
0
LINE
8
BLACK
6
CONTINUOUS
10
0.517561
20
0.773561
11
0.518758
21
0.774758
0
LINE
8
BLACK
6
CONTINUOUS
10
0.518758
20
0.774758
11
0.520274
21
0.777789
0
LINE
8
BLACK
6
CONTINUOUS
10
0.520274
20
0.777789
11
0.521982
21
0.784621
0
LINE
8
BLACK
6
CONTINUOUS
10
0.521982
20
0.784621
11
0.521982
21
0.793268
0
LINE
8
BLACK
6
CONTINUOUS
10
0.521982
20
0.793268
11
0.520274
21
0.8001
0
LINE
8
BLACK
6
CONTINUOUS
10
0.520274
20
0.8001
11
0.518758
21
0.803131
0
LINE
8
BLACK
6
CONTINUOUS
10
0.518758
20
0.803131
11
0.517561
21
0.804328
0
LINE
8
BLACK
6
CONTINUOUS
10
0.517561
20
0.804328
11
0.514864
21
0.805676
0
LINE
8
BLACK
6
CONTINUOUS
10
0.514864
20
0.805676
11
0.512508
21
0.805676
0
LINE
8
BLACK
6
CONTINUOUS
10
0.512508
20
0.805676
11
0.509811
21
0.804328
0
LINE
8
BLACK
6
CONTINUOUS
10
0.572813
20
0.811404
11
0.572949
21
0.81129
0
LINE
8
BLACK
6
CONTINUOUS
10
0.572949
20
0.81129
11
0.573124
21
0.81127
0
LINE
8
BLACK
6
CONTINUOUS
10
0.573124
20
0.81127
11
0.576874
21
0.809395
0
LINE
8
BLACK
6
CONTINUOUS
10
0.576874
20
0.809395
11
0.577583
21
0.80887
0
LINE
8
BLACK
6
CONTINUOUS
10
0.577583
20
0.80887
11
0.577641
21
0.808842
0
LINE
8
BLACK
6
CONTINUOUS
10
0.577641
20
0.808842
11
0.579516
21
0.806968
0
LINE
8
BLACK
6
CONTINUOUS
10
0.579516
20
0.806968
11
0.580022
21
0.806244
0
LINE
8
BLACK
6
CONTINUOUS
10
0.580022
20
0.806244
11
0.580069
21
0.8062
0
LINE
8
BLACK
6
CONTINUOUS
10
0.580069
20
0.8062
11
0.581944
21
0.802451
0
LINE
8
BLACK
6
CONTINUOUS
10
0.581944
20
0.802451
11
0.582089
21
0.801962
0
LINE
8
BLACK
6
CONTINUOUS
10
0.582089
20
0.801962
11
0.582167
21
0.801846
0
LINE
8
BLACK
6
CONTINUOUS
10
0.582167
20
0.801846
11
0.584042
21
0.794347
0
LINE
8
BLACK
6
CONTINUOUS
10
0.584042
20
0.794347
11
0.584083
21
0.793759
0
LINE
8
BLACK
6
CONTINUOUS
10
0.584083
20
0.793759
11
0.58413
21
0.793631
0
LINE
8
BLACK
6
CONTINUOUS
10
0.58413
20
0.793631
11
0.58413
21
0.784257
0
LINE
8
BLACK
6
CONTINUOUS
10
0.58413
20
0.784257
11
0.584028
21
0.783677
0
LINE
8
BLACK
6
CONTINUOUS
10
0.584028
20
0.783677
11
0.584042
21
0.783541
0
LINE
8
BLACK
6
CONTINUOUS
10
0.584042
20
0.783541
11
0.582167
21
0.776042
0
LINE
8
BLACK
6
CONTINUOUS
10
0.582167
20
0.776042
11
0.58196
21
0.775577
0
LINE
8
BLACK
6
CONTINUOUS
10
0.58196
20
0.775577
11
0.581944
21
0.775438
0
LINE
8
BLACK
6
CONTINUOUS
10
0.581944
20
0.775438
11
0.580069
21
0.771688
0
LINE
8
BLACK
6
CONTINUOUS
10
0.580069
20
0.771688
11
0.579543
21
0.770979
0
LINE
8
BLACK
6
CONTINUOUS
10
0.579543
20
0.770979
11
0.579516
21
0.770921
0
LINE
8
BLACK
6
CONTINUOUS
10
0.579516
20
0.770921
11
0.577641
21
0.769046
0
LINE
8
BLACK
6
CONTINUOUS
10
0.577641
20
0.769046
11
0.576918
21
0.76854
0
LINE
8
BLACK
6
CONTINUOUS
10
0.576918
20
0.76854
11
0.576874
21
0.768493
0
LINE
8
BLACK
6
CONTINUOUS
10
0.576874
20
0.768493
11
0.573124
21
0.766618
0
LINE
8
BLACK
6
CONTINUOUS
10
0.573124
20
0.766618
11
0.572141
21
0.766326
0
LINE
8
BLACK
6
CONTINUOUS
10
0.572141
20
0.766326
11
0.571969
21
0.766367
0
LINE
8
BLACK
6
CONTINUOUS
10
0.571969
20
0.766367
11
0.571804
21
0.766306
0
LINE
8
BLACK
6
CONTINUOUS
10
0.571804
20
0.766306
11
0.568054
21
0.766306
0
LINE
8
BLACK
6
CONTINUOUS
10
0.568054
20
0.766306
11
0.567044
21
0.766484
0
LINE
8
BLACK
6
CONTINUOUS
10
0.567044
20
0.766484
11
0.566909
21
0.766598
0
LINE
8
BLACK
6
CONTINUOUS
10
0.566909
20
0.766598
11
0.566733
21
0.766618
0
LINE
8
BLACK
6
CONTINUOUS
10
0.566733
20
0.766618
11
0.562984
21
0.768493
0
LINE
8
BLACK
6
CONTINUOUS
10
0.562984
20
0.768493
11
0.562275
21
0.769019
0
LINE
8
BLACK
6
CONTINUOUS
10
0.562275
20
0.769019
11
0.562216
21
0.769046
0
LINE
8
BLACK
6
CONTINUOUS
10
0.562216
20
0.769046
11
0.560342
21
0.770921
0
LINE
8
BLACK
6
CONTINUOUS
10
0.560342
20
0.770921
11
0.559835
21
0.771644
0
LINE
8
BLACK
6
CONTINUOUS
10
0.559835
20
0.771644
11
0.559789
21
0.771688
0
LINE
8
BLACK
6
CONTINUOUS
10
0.559789
20
0.771688
11
0.557914
21
0.775438
0
LINE
8
BLACK
6
CONTINUOUS
10
0.557914
20
0.775438
11
0.557769
21
0.775926
0
LINE
8
BLACK
6
CONTINUOUS
10
0.557769
20
0.775926
11
0.55769
21
0.776042
0
LINE
8
BLACK
6
CONTINUOUS
10
0.55769
20
0.776042
11
0.555816
21
0.783541
0
LINE
8
BLACK
6
CONTINUOUS
10
0.555816
20
0.783541
11
0.555774
21
0.784129
0
LINE
8
BLACK
6
CONTINUOUS
10
0.555774
20
0.784129
11
0.555727
21
0.784257
0
LINE
8
BLACK
6
CONTINUOUS
10
0.555727
20
0.784257
11
0.555727
21
0.793631
0
LINE
8
BLACK
6
CONTINUOUS
10
0.555727
20
0.793631
11
0.55583
21
0.794211
0
LINE
8
BLACK
6
CONTINUOUS
10
0.55583
20
0.794211
11
0.555816
21
0.794347
0
LINE
8
BLACK
6
CONTINUOUS
10
0.555816
20
0.794347
11
0.55769
21
0.801846
0
LINE
8
BLACK
6
CONTINUOUS
10
0.55769
20
0.801846
11
0.557898
21
0.802312
0
LINE
8
BLACK
6
CONTINUOUS
10
0.557898
20
0.802312
11
0.557914
21
0.802451
0
LINE
8
BLACK
6
CONTINUOUS
10
0.557914
20
0.802451
11
0.559789
21
0.8062
0
LINE
8
BLACK
6
CONTINUOUS
10
0.559789
20
0.8062
11
0.560315
21
0.806909
0
LINE
8
BLACK
6
CONTINUOUS
10
0.560315
20
0.806909
11
0.560342
21
0.806968
0
LINE
8
BLACK
6
CONTINUOUS
10
0.560342
20
0.806968
11
0.562217
21
0.808842
0
LINE
8
BLACK
6
CONTINUOUS
10
0.562217
20
0.808842
11
0.56294
21
0.809349
0
LINE
8
BLACK
6
CONTINUOUS
10
0.56294
20
0.809349
11
0.562984
21
0.809395
0
LINE
8
BLACK
6
CONTINUOUS
10
0.562984
20
0.809395
11
0.566733
21
0.81127
0
LINE
8
BLACK
6
CONTINUOUS
10
0.566733
20
0.81127
11
0.567716
21
0.811563
0
LINE
8
BLACK
6
CONTINUOUS
10
0.567716
20
0.811563
11
0.567888
21
0.811522
0
LINE
8
BLACK
6
CONTINUOUS
10
0.567888
20
0.811522
11
0.568054
21
0.811582
0
LINE
8
BLACK
6
CONTINUOUS
10
0.568054
20
0.811582
11
0.571804
21
0.811582
0
LINE
8
BLACK
6
CONTINUOUS
10
0.571804
20
0.811582
11
0.572813
21
0.811404
0
LINE
8
BLACK
6
CONTINUOUS
10
0.566054
20
0.804328
11
0.564856
21
0.803131
0
LINE
8
BLACK
6
CONTINUOUS
10
0.564856
20
0.803131
11
0.563341
21
0.8001
0
LINE
8
BLACK
6
CONTINUOUS
10
0.563341
20
0.8001
11
0.561633
21
0.793268
0
LINE
8
BLACK
6
CONTINUOUS
10
0.561633
20
0.793268
11
0.561633
21
0.784621
0
LINE
8
BLACK
6
CONTINUOUS
10
0.561633
20
0.784621
11
0.563341
21
0.777789
0
LINE
8
BLACK
6
CONTINUOUS
10
0.563341
20
0.777789
11
0.564856
21
0.774758
0
LINE
8
BLACK
6
CONTINUOUS
10
0.564856
20
0.774758
11
0.566054
21
0.773561
0
LINE
8
BLACK
6
CONTINUOUS
10
0.566054
20
0.773561
11
0.568751
21
0.772212
0
LINE
8
BLACK
6
CONTINUOUS
10
0.568751
20
0.772212
11
0.571106
21
0.772212
0
LINE
8
BLACK
6
CONTINUOUS
10
0.571106
20
0.772212
11
0.573804
21
0.773561
0
LINE
8
BLACK
6
CONTINUOUS
10
0.573804
20
0.773561
11
0.575001
21
0.774758
0
LINE
8
BLACK
6
CONTINUOUS
10
0.575001
20
0.774758
11
0.576517
21
0.777789
0
LINE
8
BLACK
6
CONTINUOUS
10
0.576517
20
0.777789
11
0.578225
21
0.784621
0
LINE
8
BLACK
6
CONTINUOUS
10
0.578225
20
0.784621
11
0.578225
21
0.793268
0
LINE
8
BLACK
6
CONTINUOUS
10
0.578225
20
0.793268
11
0.576517
21
0.8001
0
LINE
8
BLACK
6
CONTINUOUS
10
0.576517
20
0.8001
11
0.575001
21
0.803131
0
LINE
8
BLACK
6
CONTINUOUS
10
0.575001
20
0.803131
11
0.573804
21
0.804328
0
LINE
8
BLACK
6
CONTINUOUS
10
0.573804
20
0.804328
11
0.571106
21
0.805676
0
LINE
8
BLACK
6
CONTINUOUS
10
0.571106
20
0.805676
11
0.568751
21
0.805676
0
LINE
8
BLACK
6
CONTINUOUS
10
0.568751
20
0.805676
11
0.566054
21
0.804328
0
LINE
8
BLACK
6
CONTINUOUS
10
0.542187
20
0.775893
11
0.54232
21
0.775917
0
LINE
8
BLACK
6
CONTINUOUS
10
0.54232
20
0.775917
11
0.542437
21
0.775849
0
LINE
8
BLACK
6
CONTINUOUS
10
0.542437
20
0.775849
11
0.542571
21
0.775861
0
LINE
8
BLACK
6
CONTINUOUS
10
0.542571
20
0.775861
11
0.5432
21
0.775421
0
LINE
8
BLACK
6
CONTINUOUS
10
0.5432
20
0.775421
11
0.543895
21
0.775097
0
LINE
8
BLACK
6
CONTINUOUS
10
0.543895
20
0.775097
11
0.54577
21
0.773222
0
LINE
8
BLACK
6
CONTINUOUS
10
0.54577
20
0.773222
11
0.545993
21
0.772903
0
LINE
8
BLACK
6
CONTINUOUS
10
0.545993
20
0.772903
11
0.546101
21
0.772827
0
LINE
8
BLACK
6
CONTINUOUS
10
0.546101
20
0.772827
11
0.546135
21
0.772701
0
LINE
8
BLACK
6
CONTINUOUS
10
0.546135
20
0.772701
11
0.546358
21
0.772382
0
LINE
8
BLACK
6
CONTINUOUS
10
0.546358
20
0.772382
11
0.546425
21
0.771617
0
LINE
8
BLACK
6
CONTINUOUS
10
0.546425
20
0.771617
11
0.546624
21
0.770876
0
LINE
8
BLACK
6
CONTINUOUS
10
0.546624
20
0.770876
11
0.546511
21
0.770635
0
LINE
8
BLACK
6
CONTINUOUS
10
0.546511
20
0.770635
11
0.546534
21
0.77037
0
LINE
8
BLACK
6
CONTINUOUS
10
0.546534
20
0.77037
11
0.546094
21
0.769741
0
LINE
8
BLACK
6
CONTINUOUS
10
0.546094
20
0.769741
11
0.54577
21
0.769046
0
LINE
8
BLACK
6
CONTINUOUS
10
0.54577
20
0.769046
11
0.543895
21
0.767171
0
LINE
8
BLACK
6
CONTINUOUS
10
0.543895
20
0.767171
11
0.543576
21
0.766948
0
LINE
8
BLACK
6
CONTINUOUS
10
0.543576
20
0.766948
11
0.543501
21
0.76684
0
LINE
8
BLACK
6
CONTINUOUS
10
0.543501
20
0.76684
11
0.543374
21
0.766806
0
LINE
8
BLACK
6
CONTINUOUS
10
0.543374
20
0.766806
11
0.543367
21
0.766801
0
LINE
8
BLACK
6
CONTINUOUS
10
0.543367
20
0.766801
11
0.543284
21
0.766702
0
LINE
8
BLACK
6
CONTINUOUS
10
0.543284
20
0.766702
11
0.543205
21
0.766688
0
LINE
8
BLACK
6
CONTINUOUS
10
0.543205
20
0.766688
11
0.543055
21
0.766583
0
LINE
8
BLACK
6
CONTINUOUS
10
0.543055
20
0.766583
11
0.542291
21
0.766516
0
LINE
8
BLACK
6
CONTINUOUS
10
0.542291
20
0.766516
11
0.54155
21
0.766318
0
LINE
8
BLACK
6
CONTINUOUS
10
0.54155
20
0.766318
11
0.541428
21
0.766375
0
LINE
8
BLACK
6
CONTINUOUS
10
0.541428
20
0.766375
11
0.541295
21
0.766351
0
LINE
8
BLACK
6
CONTINUOUS
10
0.541295
20
0.766351
11
0.541178
21
0.766419
0
LINE
8
BLACK
6
CONTINUOUS
10
0.541178
20
0.766419
11
0.541043
21
0.766407
0
LINE
8
BLACK
6
CONTINUOUS
10
0.541043
20
0.766407
11
0.540415
21
0.766847
0
LINE
8
BLACK
6
CONTINUOUS
10
0.540415
20
0.766847
11
0.539719
21
0.767171
0
LINE
8
BLACK
6
CONTINUOUS
10
0.539719
20
0.767171
11
0.537845
21
0.769046
0
LINE
8
BLACK
6
CONTINUOUS
10
0.537845
20
0.769046
11
0.537621
21
0.769365
0
LINE
8
BLACK
6
CONTINUOUS
10
0.537621
20
0.769365
11
0.537514
21
0.76944
0
LINE
8
BLACK
6
CONTINUOUS
10
0.537514
20
0.76944
11
0.53748
21
0.769567
0
LINE
8
BLACK
6
CONTINUOUS
10
0.53748
20
0.769567
11
0.537256
21
0.769886
0
LINE
8
BLACK
6
CONTINUOUS
10
0.537256
20
0.769886
11
0.53719
21
0.77065
0
LINE
8
BLACK
6
CONTINUOUS
10
0.53719
20
0.77065
11
0.536991
21
0.771391
0
LINE
8
BLACK
6
CONTINUOUS
10
0.536991
20
0.771391
11
0.537104
21
0.771633
0
LINE
8
BLACK
6
CONTINUOUS
10
0.537104
20
0.771633
11
0.53708
21
0.771898
0
LINE
8
BLACK
6
CONTINUOUS
10
0.53708
20
0.771898
11
0.53752
21
0.772527
0
LINE
8
BLACK
6
CONTINUOUS
10
0.53752
20
0.772527
11
0.537845
21
0.773222
0
LINE
8
BLACK
6
CONTINUOUS
10
0.537845
20
0.773222
11
0.539719
21
0.775097
0
LINE
8
BLACK
6
CONTINUOUS
10
0.539719
20
0.775097
11
0.540038
21
0.77532
0
LINE
8
BLACK
6
CONTINUOUS
10
0.540038
20
0.77532
11
0.540114
21
0.775427
0
LINE
8
BLACK
6
CONTINUOUS
10
0.540114
20
0.775427
11
0.54024
21
0.775461
0
LINE
8
BLACK
6
CONTINUOUS
10
0.54024
20
0.775461
11
0.540247
21
0.775466
0
LINE
8
BLACK
6
CONTINUOUS
10
0.540247
20
0.775466
11
0.540331
21
0.775566
0
LINE
8
BLACK
6
CONTINUOUS
10
0.540331
20
0.775566
11
0.540409
21
0.77558
0
LINE
8
BLACK
6
CONTINUOUS
10
0.540409
20
0.77558
11
0.540559
21
0.775685
0
LINE
8
BLACK
6
CONTINUOUS
10
0.540559
20
0.775685
11
0.541324
21
0.775752
0
LINE
8
BLACK
6
CONTINUOUS
10
0.541324
20
0.775752
11
0.542065
21
0.77595
0
LINE
8
BLACK
6
CONTINUOUS
10
0.542065
20
0.77595
11
0.542187
21
0.775893
0
LINE
8
BLACK
6
CONTINUOUS
10
0.640305
20
0.798281
11
0.64044
21
0.798167
0
LINE
8
BLACK
6
CONTINUOUS
10
0.64044
20
0.798167
11
0.640616
21
0.798147
0
LINE
8
BLACK
6
CONTINUOUS
10
0.640616
20
0.798147
11
0.644365
21
0.796272
0
LINE
8
BLACK
6
CONTINUOUS
10
0.644365
20
0.796272
11
0.644935
21
0.795849
0
LINE
8
BLACK
6
CONTINUOUS
10
0.644935
20
0.795849
11
0.64517
21
0.795951
0
LINE
8
BLACK
6
CONTINUOUS
10
0.64517
20
0.795951
11
0.645474
21
0.796272
0
LINE
8
BLACK
6
CONTINUOUS
10
0.645474
20
0.796272
11
0.649223
21
0.798147
0
LINE
8
BLACK
6
CONTINUOUS
10
0.649223
20
0.798147
11
0.650206
21
0.798439
0
LINE
8
BLACK
6
CONTINUOUS
10
0.650206
20
0.798439
11
0.650378
21
0.798398
0
LINE
8
BLACK
6
CONTINUOUS
10
0.650378
20
0.798398
11
0.650544
21
0.798459
0
LINE
8
BLACK
6
CONTINUOUS
10
0.650544
20
0.798459
11
0.656168
21
0.798459
0
LINE
8
BLACK
6
CONTINUOUS
10
0.656168
20
0.798459
11
0.657178
21
0.798281
0
LINE
8
BLACK
6
CONTINUOUS
10
0.657178
20
0.798281
11
0.657313
21
0.798167
0
LINE
8
BLACK
6
CONTINUOUS
10
0.657313
20
0.798167
11
0.657488
21
0.798147
0
LINE
8
BLACK
6
CONTINUOUS
10
0.657488
20
0.798147
11
0.661238
21
0.796272
0
LINE
8
BLACK
6
CONTINUOUS
10
0.661238
20
0.796272
11
0.662062
21
0.795661
0
LINE
8
BLACK
6
CONTINUOUS
10
0.662062
20
0.795661
11
0.662238
21
0.795256
0
LINE
8
BLACK
6
CONTINUOUS
10
0.662238
20
0.795256
11
0.662559
21
0.794952
0
LINE
8
BLACK
6
CONTINUOUS
10
0.662559
20
0.794952
11
0.664433
21
0.791202
0
LINE
8
BLACK
6
CONTINUOUS
10
0.664433
20
0.791202
11
0.664726
21
0.790219
0
LINE
8
BLACK
6
CONTINUOUS
10
0.664726
20
0.790219
11
0.664685
21
0.790047
0
LINE
8
BLACK
6
CONTINUOUS
10
0.664685
20
0.790047
11
0.664745
21
0.789882
0
LINE
8
BLACK
6
CONTINUOUS
10
0.664745
20
0.789882
11
0.664745
21
0.769259
0
LINE
8
BLACK
6
CONTINUOUS
10
0.664745
20
0.769259
11
0.664567
21
0.768249
0
LINE
8
BLACK
6
CONTINUOUS
10
0.664567
20
0.768249
11
0.663269
21
0.766702
0
LINE
8
BLACK
6
CONTINUOUS
10
0.663269
20
0.766702
11
0.66128
21
0.766351
0
LINE
8
BLACK
6
CONTINUOUS
10
0.66128
20
0.766351
11
0.65953
21
0.767361
0
LINE
8
BLACK
6
CONTINUOUS
10
0.65953
20
0.767361
11
0.65884
21
0.769259
0
LINE
8
BLACK
6
CONTINUOUS
10
0.65884
20
0.769259
11
0.65884
21
0.789184
0
LINE
8
BLACK
6
CONTINUOUS
10
0.65884
20
0.789184
11
0.657717
21
0.79143
0
LINE
8
BLACK
6
CONTINUOUS
10
0.657717
20
0.79143
11
0.655471
21
0.792553
0
LINE
8
BLACK
6
CONTINUOUS
10
0.655471
20
0.792553
11
0.651241
21
0.792553
0
LINE
8
BLACK
6
CONTINUOUS
10
0.651241
20
0.792553
11
0.648995
21
0.79143
0
LINE
8
BLACK
6
CONTINUOUS
10
0.648995
20
0.79143
11
0.647872
21
0.789184
0
LINE
8
BLACK
6
CONTINUOUS
10
0.647872
20
0.789184
11
0.647872
21
0.769259
0
LINE
8
BLACK
6
CONTINUOUS
10
0.647872
20
0.769259
11
0.647694
21
0.768249
0
LINE
8
BLACK
6
CONTINUOUS
10
0.647694
20
0.768249
11
0.646396
21
0.766702
0
LINE
8
BLACK
6
CONTINUOUS
10
0.646396
20
0.766702
11
0.644407
21
0.766351
0
LINE
8
BLACK
6
CONTINUOUS
10
0.644407
20
0.766351
11
0.642657
21
0.767361
0
LINE
8
BLACK
6
CONTINUOUS
10
0.642657
20
0.767361
11
0.641967
21
0.769259
0
LINE
8
BLACK
6
CONTINUOUS
10
0.641967
20
0.769259
11
0.641967
21
0.789184
0
LINE
8
BLACK
6
CONTINUOUS
10
0.641967
20
0.789184
11
0.640844
21
0.79143
0
LINE
8
BLACK
6
CONTINUOUS
10
0.640844
20
0.79143
11
0.638598
21
0.792553
0
LINE
8
BLACK
6
CONTINUOUS
10
0.638598
20
0.792553
11
0.634368
21
0.792553
0
LINE
8
BLACK
6
CONTINUOUS
10
0.634368
20
0.792553
11
0.63167
21
0.791204
0
LINE
8
BLACK
6
CONTINUOUS
10
0.63167
20
0.791204
11
0.630999
21
0.790533
0
LINE
8
BLACK
6
CONTINUOUS
10
0.630999
20
0.790533
11
0.630999
21
0.769259
0
LINE
8
BLACK
6
CONTINUOUS
10
0.630999
20
0.769259
11
0.630821
21
0.768249
0
LINE
8
BLACK
6
CONTINUOUS
10
0.630821
20
0.768249
11
0.629523
21
0.766702
0
LINE
8
BLACK
6
CONTINUOUS
10
0.629523
20
0.766702
11
0.627534
21
0.766351
0
LINE
8
BLACK
6
CONTINUOUS
10
0.627534
20
0.766351
11
0.625785
21
0.767361
0
LINE
8
BLACK
6
CONTINUOUS
10
0.625785
20
0.767361
11
0.625094
21
0.769259
0
LINE
8
BLACK
6
CONTINUOUS
10
0.625094
20
0.769259
11
0.625094
21
0.795506
0
LINE
8
BLACK
6
CONTINUOUS
10
0.625094
20
0.795506
11
0.625272
21
0.796516
0
LINE
8
BLACK
6
CONTINUOUS
10
0.625272
20
0.796516
11
0.62657
21
0.798063
0
LINE
8
BLACK
6
CONTINUOUS
10
0.62657
20
0.798063
11
0.628559
21
0.798414
0
LINE
8
BLACK
6
CONTINUOUS
10
0.628559
20
0.798414
11
0.630308
21
0.797404
0
LINE
8
BLACK
6
CONTINUOUS
10
0.630308
20
0.797404
11
0.630394
21
0.797169
0
LINE
8
BLACK
6
CONTINUOUS
10
0.630394
20
0.797169
11
0.63235
21
0.798147
0
LINE
8
BLACK
6
CONTINUOUS
10
0.63235
20
0.798147
11
0.633333
21
0.798439
0
LINE
8
BLACK
6
CONTINUOUS
10
0.633333
20
0.798439
11
0.633505
21
0.798398
0
LINE
8
BLACK
6
CONTINUOUS
10
0.633505
20
0.798398
11
0.633671
21
0.798459
0
LINE
8
BLACK
6
CONTINUOUS
10
0.633671
20
0.798459
11
0.639295
21
0.798459
0
LINE
8
BLACK
6
CONTINUOUS
10
0.639295
20
0.798459
11
0.640305
21
0.798281
0
LINE
8
BLACK
6
CONTINUOUS
10
0.692798
20
0.798281
11
0.692934
21
0.798167
0
LINE
8
BLACK
6
CONTINUOUS
10
0.692934
20
0.798167
11
0.693109
21
0.798147
0
LINE
8
BLACK
6
CONTINUOUS
10
0.693109
20
0.798147
11
0.696859
21
0.796272
0
LINE
8
BLACK
6
CONTINUOUS
10
0.696859
20
0.796272
11
0.697428
21
0.795849
0
LINE
8
BLACK
6
CONTINUOUS
10
0.697428
20
0.795849
11
0.697663
21
0.795951
0
LINE
8
BLACK
6
CONTINUOUS
10
0.697663
20
0.795951
11
0.697967
21
0.796272
0
LINE
8
BLACK
6
CONTINUOUS
10
0.697967
20
0.796272
11
0.701717
21
0.798147
0
LINE
8
BLACK
6
CONTINUOUS
10
0.701717
20
0.798147
11
0.702699
21
0.798439
0
LINE
8
BLACK
6
CONTINUOUS
10
0.702699
20
0.798439
11
0.702871
21
0.798398
0
LINE
8
BLACK
6
CONTINUOUS
10
0.702871
20
0.798398
11
0.703037
21
0.798459
0
LINE
8
BLACK
6
CONTINUOUS
10
0.703037
20
0.798459
11
0.708661
21
0.798459
0
LINE
8
BLACK
6
CONTINUOUS
10
0.708661
20
0.798459
11
0.709671
21
0.798281
0
LINE
8
BLACK
6
CONTINUOUS
10
0.709671
20
0.798281
11
0.709807
21
0.798167
0
LINE
8
BLACK
6
CONTINUOUS
10
0.709807
20
0.798167
11
0.709982
21
0.798147
0
LINE
8
BLACK
6
CONTINUOUS
10
0.709982
20
0.798147
11
0.713731
21
0.796272
0
LINE
8
BLACK
6
CONTINUOUS
10
0.713731
20
0.796272
11
0.714555
21
0.795661
0
LINE
8
BLACK
6
CONTINUOUS
10
0.714555
20
0.795661
11
0.714731
21
0.795256
0
LINE
8
BLACK
6
CONTINUOUS
10
0.714731
20
0.795256
11
0.715052
21
0.794952
0
LINE
8
BLACK
6
CONTINUOUS
10
0.715052
20
0.794952
11
0.716927
21
0.791202
0
LINE
8
BLACK
6
CONTINUOUS
10
0.716927
20
0.791202
11
0.717219
21
0.790219
0
LINE
8
BLACK
6
CONTINUOUS
10
0.717219
20
0.790219
11
0.717178
21
0.790047
0
LINE
8
BLACK
6
CONTINUOUS
10
0.717178
20
0.790047
11
0.717238
21
0.789882
0
LINE
8
BLACK
6
CONTINUOUS
10
0.717238
20
0.789882
11
0.717238
21
0.769259
0
LINE
8
BLACK
6
CONTINUOUS
10
0.717238
20
0.769259
11
0.71706
21
0.768249
0
LINE
8
BLACK
6
CONTINUOUS
10
0.71706
20
0.768249
11
0.715762
21
0.766702
0
LINE
8
BLACK
6
CONTINUOUS
10
0.715762
20
0.766702
11
0.713773
21
0.766351
0
LINE
8
BLACK
6
CONTINUOUS
10
0.713773
20
0.766351
11
0.712024
21
0.767361
0
LINE
8
BLACK
6
CONTINUOUS
10
0.712024
20
0.767361
11
0.711333
21
0.769259
0
LINE
8
BLACK
6
CONTINUOUS
10
0.711333
20
0.769259
11
0.711333
21
0.789184
0
LINE
8
BLACK
6
CONTINUOUS
10
0.711333
20
0.789184
11
0.71021
21
0.79143
0
LINE
8
BLACK
6
CONTINUOUS
10
0.71021
20
0.79143
11
0.707964
21
0.792553
0
LINE
8
BLACK
6
CONTINUOUS
10
0.707964
20
0.792553
11
0.703734
21
0.792553
0
LINE
8
BLACK
6
CONTINUOUS
10
0.703734
20
0.792553
11
0.701488
21
0.79143
0
LINE
8
BLACK
6
CONTINUOUS
10
0.701488
20
0.79143
11
0.700366
21
0.789184
0
LINE
8
BLACK
6
CONTINUOUS
10
0.700366
20
0.789184
11
0.700366
21
0.769259
0
LINE
8
BLACK
6
CONTINUOUS
10
0.700366
20
0.769259
11
0.700187
21
0.768249
0
LINE
8
BLACK
6
CONTINUOUS
10
0.700187
20
0.768249
11
0.698889
21
0.766702
0
LINE
8
BLACK
6
CONTINUOUS
10
0.698889
20
0.766702
11
0.6969
21
0.766351
0
LINE
8
BLACK
6
CONTINUOUS
10
0.6969
20
0.766351
11
0.695151
21
0.767361
0
LINE
8
BLACK
6
CONTINUOUS
10
0.695151
20
0.767361
11
0.69446
21
0.769259
0
LINE
8
BLACK
6
CONTINUOUS
10
0.69446
20
0.769259
11
0.69446
21
0.789184
0
LINE
8
BLACK
6
CONTINUOUS
10
0.69446
20
0.789184
11
0.693337
21
0.79143
0
LINE
8
BLACK
6
CONTINUOUS
10
0.693337
20
0.79143
11
0.691091
21
0.792553
0
LINE
8
BLACK
6
CONTINUOUS
10
0.691091
20
0.792553
11
0.686861
21
0.792553
0
LINE
8
BLACK
6
CONTINUOUS
10
0.686861
20
0.792553
11
0.684164
21
0.791204
0
LINE
8
BLACK
6
CONTINUOUS
10
0.684164
20
0.791204
11
0.683493
21
0.790533
0
LINE
8
BLACK
6
CONTINUOUS
10
0.683493
20
0.790533
11
0.683493
21
0.769259
0
LINE
8
BLACK
6
CONTINUOUS
10
0.683493
20
0.769259
11
0.683315
21
0.768249
0
LINE
8
BLACK
6
CONTINUOUS
10
0.683315
20
0.768249
11
0.682016
21
0.766702
0
LINE
8
BLACK
6
CONTINUOUS
10
0.682016
20
0.766702
11
0.680027
21
0.766351
0
LINE
8
BLACK
6
CONTINUOUS
10
0.680027
20
0.766351
11
0.678278
21
0.767361
0
LINE
8
BLACK
6
CONTINUOUS
10
0.678278
20
0.767361
11
0.677587
21
0.769259
0
LINE
8
BLACK
6
CONTINUOUS
10
0.677587
20
0.769259
11
0.677587
21
0.795506
0
LINE
8
BLACK
6
CONTINUOUS
10
0.677587
20
0.795506
11
0.677765
21
0.796516
0
LINE
8
BLACK
6
CONTINUOUS
10
0.677765
20
0.796516
11
0.679064
21
0.798063
0
LINE
8
BLACK
6
CONTINUOUS
10
0.679064
20
0.798063
11
0.681053
21
0.798414
0
LINE
8
BLACK
6
CONTINUOUS
10
0.681053
20
0.798414
11
0.682802
21
0.797404
0
LINE
8
BLACK
6
CONTINUOUS
10
0.682802
20
0.797404
11
0.682887
21
0.797169
0
LINE
8
BLACK
6
CONTINUOUS
10
0.682887
20
0.797169
11
0.684844
21
0.798147
0
LINE
8
BLACK
6
CONTINUOUS
10
0.684844
20
0.798147
11
0.685827
21
0.798439
0
LINE
8
BLACK
6
CONTINUOUS
10
0.685827
20
0.798439
11
0.685998
21
0.798398
0
LINE
8
BLACK
6
CONTINUOUS
10
0.685998
20
0.798398
11
0.686164
21
0.798459
0
LINE
8
BLACK
6
CONTINUOUS
10
0.686164
20
0.798459
11
0.691789
21
0.798459
0
LINE
8
BLACK
6
CONTINUOUS
10
0.691789
20
0.798459
11
0.692798
21
0.798281
  0
ENDSEC
  0
EOF
