  0
SECTION
  2
HEADER
  9
$ANGBASE
  50
0.0
  9
$ANGDIR
  70
1
  9
$MEASUREMENT
  70
0
  0
ENDSEC
  0
SECTION
  2
TABLES
  0
TABLE
  2
LTYPE
  70
4
  0
LTYPE
  5
40F
  2
CONTINUOUS
  70
0
  3
Solid line
  72
65
  73
0
  40
0.0
  0
LTYPE
  5
410
  2
DASHDOT
 70
0
  3
Dash Dot ____ _ ____ _
 72
65
 73
4
 40
2.0
 49
1.25
 49
-0.25
 49
0.25
 49
-0.25
  0
LTYPE
  5
411
  2
DASHED
 70
0
  3
Dashed __ __ __ __ __
 72
65
 73
2
 40
0.75
 49
0.5
 49
-0.25
  0
LTYPE
  5
43B
  2
DOTTED
 70
0
  3
Dotted .  .  .  .
 72
65
 73
2
 40
0.2
 49
0.0
 49
-0.2
  0
ENDTAB
  0
TABLE
  2
STYLE
  70
4
  0
STYLE
  2
KICAD
  70
0
  40
0
  41
1
  42
1
  50
0
  71
0
  3
isocp.shx
  0
STYLE
  2
KICADB
  70
0
  40
0
  41
1
  42
1
  50
0
  71
0
  3
isocp.shx
  0
STYLE
  2
KICADI
  70
0
  40
0
  41
1
  42
1
  50
15
  71
0
  3
isocp.shx
  0
STYLE
  2
KICADBI
  70
0
  40
0
  41
1
  42
1
  50
15
  71
0
  3
isocp.shx
  0
ENDTAB
  0
TABLE
  2
LAYER
  70
1
  0
LAYER
  2
BLACK
  70
0
  62
7
  6
CONTINUOUS
  0
ENDTAB
  0
ENDSEC
  0
SECTION
  2
ENTITIES
0
LINE
8
BLACK
6
CONTINUOUS
10
0.111924
20
0.167558
11
0.115117
21
0.165424
0
LINE
8
BLACK
6
CONTINUOUS
10
0.115117
20
0.165424
11
0.117251
21
0.162231
0
LINE
8
BLACK
6
CONTINUOUS
10
0.117251
20
0.162231
11
0.118
21
0.158465
0
LINE
8
BLACK
6
CONTINUOUS
10
0.118
20
0.158465
11
0.118
21
0.13878
0
LINE
8
BLACK
6
CONTINUOUS
10
0.118
20
0.13878
11
0.117251
21
0.135013
0
LINE
8
BLACK
6
CONTINUOUS
10
0.117251
20
0.135013
11
0.115117
21
0.13182
0
LINE
8
BLACK
6
CONTINUOUS
10
0.115117
20
0.13182
11
0.111924
21
0.129686
0
LINE
8
BLACK
6
CONTINUOUS
10
0.111924
20
0.129686
11
0.108157
21
0.128937
0
LINE
8
BLACK
6
CONTINUOUS
10
0.108157
20
0.128937
11
0.0215433
21
0.128937
0
LINE
8
BLACK
6
CONTINUOUS
10
0.0215433
20
0.128937
11
0.0177767
21
0.129686
0
LINE
8
BLACK
6
CONTINUOUS
10
0.0177767
20
0.129686
11
0.0145836
21
0.13182
0
LINE
8
BLACK
6
CONTINUOUS
10
0.0145836
20
0.13182
11
0.01245
21
0.135013
0
LINE
8
BLACK
6
CONTINUOUS
10
0.01245
20
0.135013
11
0.0117008
21
0.13878
0
LINE
8
BLACK
6
CONTINUOUS
10
0.0117008
20
0.13878
11
0.0117008
21
0.158465
0
LINE
8
BLACK
6
CONTINUOUS
10
0.0117008
20
0.158465
11
0.01245
21
0.162231
0
LINE
8
BLACK
6
CONTINUOUS
10
0.01245
20
0.162231
11
0.0145836
21
0.165424
0
LINE
8
BLACK
6
CONTINUOUS
10
0.0145836
20
0.165424
11
0.0177767
21
0.167558
0
LINE
8
BLACK
6
CONTINUOUS
10
0.0177767
20
0.167558
11
0.0215433
21
0.168307
0
LINE
8
BLACK
6
CONTINUOUS
10
0.0215433
20
0.168307
11
0.108157
21
0.168307
0
LINE
8
BLACK
6
CONTINUOUS
10
0.108157
20
0.168307
11
0.111924
21
0.167558
0
LINE
8
BLACK
6
CONTINUOUS
10
0.220654
20
0.232818
11
0.22257
21
0.231538
0
LINE
8
BLACK
6
CONTINUOUS
10
0.22257
20
0.231538
11
0.22385
21
0.229622
0
LINE
8
BLACK
6
CONTINUOUS
10
0.22385
20
0.229622
11
0.224299
21
0.227362
0
LINE
8
BLACK
6
CONTINUOUS
10
0.224299
20
0.227362
11
0.224299
21
0.215551
0
LINE
8
BLACK
6
CONTINUOUS
10
0.224299
20
0.215551
11
0.22385
21
0.213291
0
LINE
8
BLACK
6
CONTINUOUS
10
0.22385
20
0.213291
11
0.22257
21
0.211375
0
LINE
8
BLACK
6
CONTINUOUS
10
0.22257
20
0.211375
11
0.220654
21
0.210095
0
LINE
8
BLACK
6
CONTINUOUS
10
0.220654
20
0.210095
11
0.218394
21
0.209646
0
LINE
8
BLACK
6
CONTINUOUS
10
0.218394
20
0.209646
11
0.163276
21
0.209646
0
LINE
8
BLACK
6
CONTINUOUS
10
0.163276
20
0.209646
11
0.161016
21
0.210095
0
LINE
8
BLACK
6
CONTINUOUS
10
0.161016
20
0.210095
11
0.1591
21
0.211375
0
LINE
8
BLACK
6
CONTINUOUS
10
0.1591
20
0.211375
11
0.15782
21
0.213291
0
LINE
8
BLACK
6
CONTINUOUS
10
0.15782
20
0.213291
11
0.15737
21
0.215551
0
LINE
8
BLACK
6
CONTINUOUS
10
0.15737
20
0.215551
11
0.15737
21
0.227362
0
LINE
8
BLACK
6
CONTINUOUS
10
0.15737
20
0.227362
11
0.15782
21
0.229622
0
LINE
8
BLACK
6
CONTINUOUS
10
0.15782
20
0.229622
11
0.1591
21
0.231538
0
LINE
8
BLACK
6
CONTINUOUS
10
0.1591
20
0.231538
11
0.161016
21
0.232818
0
LINE
8
BLACK
6
CONTINUOUS
10
0.161016
20
0.232818
11
0.163276
21
0.233268
0
LINE
8
BLACK
6
CONTINUOUS
10
0.163276
20
0.233268
11
0.218394
21
0.233268
0
LINE
8
BLACK
6
CONTINUOUS
10
0.218394
20
0.233268
11
0.220654
21
0.232818
0
LINE
8
BLACK
6
CONTINUOUS
10
0.220654
20
0.282031
11
0.22257
21
0.280751
0
LINE
8
BLACK
6
CONTINUOUS
10
0.22257
20
0.280751
11
0.22385
21
0.278835
0
LINE
8
BLACK
6
CONTINUOUS
10
0.22385
20
0.278835
11
0.224299
21
0.276575
0
LINE
8
BLACK
6
CONTINUOUS
10
0.224299
20
0.276575
11
0.224299
21
0.264764
0
LINE
8
BLACK
6
CONTINUOUS
10
0.224299
20
0.264764
11
0.22385
21
0.262504
0
LINE
8
BLACK
6
CONTINUOUS
10
0.22385
20
0.262504
11
0.22257
21
0.260588
0
LINE
8
BLACK
6
CONTINUOUS
10
0.22257
20
0.260588
11
0.220654
21
0.259308
0
LINE
8
BLACK
6
CONTINUOUS
10
0.220654
20
0.259308
11
0.218394
21
0.258858
0
LINE
8
BLACK
6
CONTINUOUS
10
0.218394
20
0.258858
11
0.163276
21
0.258858
0
LINE
8
BLACK
6
CONTINUOUS
10
0.163276
20
0.258858
11
0.161016
21
0.259308
0
LINE
8
BLACK
6
CONTINUOUS
10
0.161016
20
0.259308
11
0.1591
21
0.260588
0
LINE
8
BLACK
6
CONTINUOUS
10
0.1591
20
0.260588
11
0.15782
21
0.262504
0
LINE
8
BLACK
6
CONTINUOUS
10
0.15782
20
0.262504
11
0.15737
21
0.264764
0
LINE
8
BLACK
6
CONTINUOUS
10
0.15737
20
0.264764
11
0.15737
21
0.276575
0
LINE
8
BLACK
6
CONTINUOUS
10
0.15737
20
0.276575
11
0.15782
21
0.278835
0
LINE
8
BLACK
6
CONTINUOUS
10
0.15782
20
0.278835
11
0.1591
21
0.280751
0
LINE
8
BLACK
6
CONTINUOUS
10
0.1591
20
0.280751
11
0.161016
21
0.282031
0
LINE
8
BLACK
6
CONTINUOUS
10
0.161016
20
0.282031
11
0.163276
21
0.28248
0
LINE
8
BLACK
6
CONTINUOUS
10
0.163276
20
0.28248
11
0.218394
21
0.28248
0
LINE
8
BLACK
6
CONTINUOUS
10
0.218394
20
0.28248
11
0.220654
21
0.282031
0
LINE
8
BLACK
6
CONTINUOUS
10
0.220654
20
0.331243
11
0.22257
21
0.329963
0
LINE
8
BLACK
6
CONTINUOUS
10
0.22257
20
0.329963
11
0.22385
21
0.328047
0
LINE
8
BLACK
6
CONTINUOUS
10
0.22385
20
0.328047
11
0.224299
21
0.325787
0
LINE
8
BLACK
6
CONTINUOUS
10
0.224299
20
0.325787
11
0.224299
21
0.313976
0
LINE
8
BLACK
6
CONTINUOUS
10
0.224299
20
0.313976
11
0.22385
21
0.311716
0
LINE
8
BLACK
6
CONTINUOUS
10
0.22385
20
0.311716
11
0.22257
21
0.309801
0
LINE
8
BLACK
6
CONTINUOUS
10
0.22257
20
0.309801
11
0.220654
21
0.30852
0
LINE
8
BLACK
6
CONTINUOUS
10
0.220654
20
0.30852
11
0.218394
21
0.308071
0
LINE
8
BLACK
6
CONTINUOUS
10
0.218394
20
0.308071
11
0.163276
21
0.308071
0
LINE
8
BLACK
6
CONTINUOUS
10
0.163276
20
0.308071
11
0.161016
21
0.30852
0
LINE
8
BLACK
6
CONTINUOUS
10
0.161016
20
0.30852
11
0.1591
21
0.309801
0
LINE
8
BLACK
6
CONTINUOUS
10
0.1591
20
0.309801
11
0.15782
21
0.311716
0
LINE
8
BLACK
6
CONTINUOUS
10
0.15782
20
0.311716
11
0.15737
21
0.313976
0
LINE
8
BLACK
6
CONTINUOUS
10
0.15737
20
0.313976
11
0.15737
21
0.325787
0
LINE
8
BLACK
6
CONTINUOUS
10
0.15737
20
0.325787
11
0.15782
21
0.328047
0
LINE
8
BLACK
6
CONTINUOUS
10
0.15782
20
0.328047
11
0.1591
21
0.329963
0
LINE
8
BLACK
6
CONTINUOUS
10
0.1591
20
0.329963
11
0.161016
21
0.331243
0
LINE
8
BLACK
6
CONTINUOUS
10
0.161016
20
0.331243
11
0.163276
21
0.331693
0
LINE
8
BLACK
6
CONTINUOUS
10
0.163276
20
0.331693
11
0.218394
21
0.331693
0
LINE
8
BLACK
6
CONTINUOUS
10
0.218394
20
0.331693
11
0.220654
21
0.331243
0
LINE
8
BLACK
6
CONTINUOUS
10
0.220654
20
0.380456
11
0.22257
21
0.379176
0
LINE
8
BLACK
6
CONTINUOUS
10
0.22257
20
0.379176
11
0.22385
21
0.37726
0
LINE
8
BLACK
6
CONTINUOUS
10
0.22385
20
0.37726
11
0.224299
21
0.375
0
LINE
8
BLACK
6
CONTINUOUS
10
0.224299
20
0.375
11
0.224299
21
0.363189
0
LINE
8
BLACK
6
CONTINUOUS
10
0.224299
20
0.363189
11
0.22385
21
0.360929
0
LINE
8
BLACK
6
CONTINUOUS
10
0.22385
20
0.360929
11
0.22257
21
0.359013
0
LINE
8
BLACK
6
CONTINUOUS
10
0.22257
20
0.359013
11
0.220654
21
0.357733
0
LINE
8
BLACK
6
CONTINUOUS
10
0.220654
20
0.357733
11
0.218394
21
0.357283
0
LINE
8
BLACK
6
CONTINUOUS
10
0.218394
20
0.357283
11
0.163276
21
0.357283
0
LINE
8
BLACK
6
CONTINUOUS
10
0.163276
20
0.357283
11
0.161016
21
0.357733
0
LINE
8
BLACK
6
CONTINUOUS
10
0.161016
20
0.357733
11
0.1591
21
0.359013
0
LINE
8
BLACK
6
CONTINUOUS
10
0.1591
20
0.359013
11
0.15782
21
0.360929
0
LINE
8
BLACK
6
CONTINUOUS
10
0.15782
20
0.360929
11
0.15737
21
0.363189
0
LINE
8
BLACK
6
CONTINUOUS
10
0.15737
20
0.363189
11
0.15737
21
0.375
0
LINE
8
BLACK
6
CONTINUOUS
10
0.15737
20
0.375
11
0.15782
21
0.37726
0
LINE
8
BLACK
6
CONTINUOUS
10
0.15782
20
0.37726
11
0.1591
21
0.379176
0
LINE
8
BLACK
6
CONTINUOUS
10
0.1591
20
0.379176
11
0.161016
21
0.380456
0
LINE
8
BLACK
6
CONTINUOUS
10
0.161016
20
0.380456
11
0.163276
21
0.380906
0
LINE
8
BLACK
6
CONTINUOUS
10
0.163276
20
0.380906
11
0.218394
21
0.380906
0
LINE
8
BLACK
6
CONTINUOUS
10
0.218394
20
0.380906
11
0.220654
21
0.380456
0
LINE
8
BLACK
6
CONTINUOUS
10
0.111924
20
0.460865
11
0.115117
21
0.458731
0
LINE
8
BLACK
6
CONTINUOUS
10
0.115117
20
0.458731
11
0.117251
21
0.455538
0
LINE
8
BLACK
6
CONTINUOUS
10
0.117251
20
0.455538
11
0.118
21
0.451772
0
LINE
8
BLACK
6
CONTINUOUS
10
0.118
20
0.451772
11
0.118
21
0.432087
0
LINE
8
BLACK
6
CONTINUOUS
10
0.118
20
0.432087
11
0.117251
21
0.42832
0
LINE
8
BLACK
6
CONTINUOUS
10
0.117251
20
0.42832
11
0.115117
21
0.425127
0
LINE
8
BLACK
6
CONTINUOUS
10
0.115117
20
0.425127
11
0.111924
21
0.422993
0
LINE
8
BLACK
6
CONTINUOUS
10
0.111924
20
0.422993
11
0.108157
21
0.422244
0
LINE
8
BLACK
6
CONTINUOUS
10
0.108157
20
0.422244
11
0.0215433
21
0.422244
0
LINE
8
BLACK
6
CONTINUOUS
10
0.0215433
20
0.422244
11
0.0177767
21
0.422993
0
LINE
8
BLACK
6
CONTINUOUS
10
0.0177767
20
0.422993
11
0.0145836
21
0.425127
0
LINE
8
BLACK
6
CONTINUOUS
10
0.0145836
20
0.425127
11
0.01245
21
0.42832
0
LINE
8
BLACK
6
CONTINUOUS
10
0.01245
20
0.42832
11
0.0117008
21
0.432087
0
LINE
8
BLACK
6
CONTINUOUS
10
0.0117008
20
0.432087
11
0.0117008
21
0.451772
0
LINE
8
BLACK
6
CONTINUOUS
10
0.0117008
20
0.451772
11
0.01245
21
0.455538
0
LINE
8
BLACK
6
CONTINUOUS
10
0.01245
20
0.455538
11
0.0145836
21
0.458731
0
LINE
8
BLACK
6
CONTINUOUS
10
0.0145836
20
0.458731
11
0.0177767
21
0.460865
0
LINE
8
BLACK
6
CONTINUOUS
10
0.0177767
20
0.460865
11
0.0215433
21
0.461614
0
LINE
8
BLACK
6
CONTINUOUS
10
0.0215433
20
0.461614
11
0.108157
21
0.461614
0
LINE
8
BLACK
6
CONTINUOUS
10
0.108157
20
0.461614
11
0.111924
21
0.460865
  0
ENDSEC
  0
EOF
