  0
SECTION
  2
HEADER
  9
$ANGBASE
  50
0.0
  9
$ANGDIR
  70
1
  9
$MEASUREMENT
  70
0
  0
ENDSEC
  0
SECTION
  2
TABLES
  0
TABLE
  2
LTYPE
  70
4
  0
LTYPE
  5
40F
  2
CONTINUOUS
  70
0
  3
Solid line
  72
65
  73
0
  40
0.0
  0
LTYPE
  5
410
  2
DASHDOT
 70
0
  3
Dash Dot ____ _ ____ _
 72
65
 73
4
 40
2.0
 49
1.25
 49
-0.25
 49
0.25
 49
-0.25
  0
LTYPE
  5
411
  2
DASHED
 70
0
  3
Dashed __ __ __ __ __
 72
65
 73
2
 40
0.75
 49
0.5
 49
-0.25
  0
LTYPE
  5
43B
  2
DOTTED
 70
0
  3
Dotted .  .  .  .
 72
65
 73
2
 40
0.2
 49
0.0
 49
-0.2
  0
ENDTAB
  0
TABLE
  2
STYLE
  70
4
  0
STYLE
  2
KICAD
  70
0
  40
0
  41
1
  42
1
  50
0
  71
0
  3
isocp.shx
  0
STYLE
  2
KICADB
  70
0
  40
0
  41
1
  42
1
  50
0
  71
0
  3
isocp.shx
  0
STYLE
  2
KICADI
  70
0
  40
0
  41
1
  42
1
  50
15
  71
0
  3
isocp.shx
  0
STYLE
  2
KICADBI
  70
0
  40
0
  41
1
  42
1
  50
15
  71
0
  3
isocp.shx
  0
ENDTAB
  0
TABLE
  2
LAYER
  70
1
  0
LAYER
  2
BLACK
  70
0
  62
7
  6
CONTINUOUS
  0
ENDTAB
  0
ENDSEC
  0
SECTION
  2
ENTITIES
0
LINE
8
BLACK
6
CONTINUOUS
10
0.7581480708661417
20
0.0349383070866142
11
0.7589144094488188
21
0.0344262204724409
0
LINE
8
BLACK
6
CONTINUOUS
10
0.7589144094488188
20
0.0344262204724409
11
0.7707254330708662
21
0.0226151968503937
0
LINE
8
BLACK
6
CONTINUOUS
10
0.7707254330708662
20
0.0226151968503937
11
0.7712375196850394
21
0.0218488582677165
0
LINE
8
BLACK
6
CONTINUOUS
10
0.7712375196850394
20
0.0218488582677165
11
0.7712375196850394
21
0.020040905511811
0
LINE
8
BLACK
6
CONTINUOUS
10
0.7712375196850394
20
0.020040905511811
11
0.769959094488189
21
0.0187624803149606
0
LINE
8
BLACK
6
CONTINUOUS
10
0.769959094488189
20
0.0187624803149606
11
0.7690551181102362
21
0.0185826771653543
0
LINE
8
BLACK
6
CONTINUOUS
10
0.7690551181102362
20
0.0185826771653543
11
0.7454330708661417
21
0.0185826771653543
0
LINE
8
BLACK
6
CONTINUOUS
10
0.7454330708661417
20
0.0185826771653543
11
0.7445290944881889
21
0.0187624803149606
0
LINE
8
BLACK
6
CONTINUOUS
10
0.7445290944881889
20
0.0187624803149606
11
0.7432506692913385
21
0.020040905511811
0
LINE
8
BLACK
6
CONTINUOUS
10
0.7432506692913385
20
0.020040905511811
11
0.7432506692913385
21
0.0218488582677165
0
LINE
8
BLACK
6
CONTINUOUS
10
0.7432506692913385
20
0.0218488582677165
11
0.7437627559055118
21
0.0226151968503937
0
LINE
8
BLACK
6
CONTINUOUS
10
0.7437627559055118
20
0.0226151968503937
11
0.755573779527559
21
0.0344262204724409
0
LINE
8
BLACK
6
CONTINUOUS
10
0.755573779527559
20
0.0344262204724409
11
0.7563401181102362
21
0.0349383070866142
0
LINE
8
BLACK
6
CONTINUOUS
10
0.7563401181102362
20
0.0349383070866142
11
0.7581480708661417
21
0.0349383070866142
0
LINE
8
BLACK
6
CONTINUOUS
10
0.751135905511811
20
0.0233070866141732
11
0.763352283464567
21
0.0233070866141732
0
LINE
8
BLACK
6
CONTINUOUS
10
0.763352283464567
20
0.0233070866141732
11
0.757244094488189
21
0.0294152755905512
0
LINE
8
BLACK
6
CONTINUOUS
10
0.757244094488189
20
0.0294152755905512
11
0.751135905511811
21
0.0233070866141732
0
LINE
8
BLACK
6
CONTINUOUS
10
0.7660220866141733
20
0.1215524803149606
11
0.7661364566929134
21
0.1214381102362205
0
LINE
8
BLACK
6
CONTINUOUS
10
0.7661364566929134
20
0.1214381102362205
11
0.768986968503937
21
0.1211573622047244
0
LINE
8
BLACK
6
CONTINUOUS
10
0.768986968503937
20
0.1211573622047244
11
0.7745999606299212
21
0.1194546456692913
0
LINE
8
BLACK
6
CONTINUOUS
10
0.7745999606299212
20
0.1194546456692913
11
0.7797729527559055
21
0.1166896456692913
0
LINE
8
BLACK
6
CONTINUOUS
10
0.7797729527559055
20
0.1166896456692913
11
0.7843071259842519
21
0.1129685433070866
0
LINE
8
BLACK
6
CONTINUOUS
10
0.7843071259842519
20
0.1129685433070866
11
0.7880282283464567
21
0.1084343700787402
0
LINE
8
BLACK
6
CONTINUOUS
10
0.7880282283464567
20
0.1084343700787402
11
0.7907932283464567
21
0.1032613779527559
0
LINE
8
BLACK
6
CONTINUOUS
10
0.7907932283464567
20
0.1032613779527559
11
0.7924959448818898
21
0.0976483858267717
0
LINE
8
BLACK
6
CONTINUOUS
10
0.7924959448818898
20
0.0976483858267717
11
0.7930708661417323
21
0.0918110236220472
0
LINE
8
BLACK
6
CONTINUOUS
10
0.7930708661417323
20
0.0918110236220472
11
0.7930708661417323
21
0.0681889763779528
0
LINE
8
BLACK
6
CONTINUOUS
10
0.7930708661417323
20
0.0681889763779528
11
0.7924959448818898
21
0.0623516141732283
0
LINE
8
BLACK
6
CONTINUOUS
10
0.7924959448818898
20
0.0623516141732283
11
0.7907932283464567
21
0.0567386220472441
0
LINE
8
BLACK
6
CONTINUOUS
10
0.7907932283464567
20
0.0567386220472441
11
0.7880282283464567
21
0.0515656299212598
0
LINE
8
BLACK
6
CONTINUOUS
10
0.7880282283464567
20
0.0515656299212598
11
0.7843071259842519
21
0.0470314566929134
0
LINE
8
BLACK
6
CONTINUOUS
10
0.7843071259842519
20
0.0470314566929134
11
0.7797729527559055
21
0.0433103543307087
0
LINE
8
BLACK
6
CONTINUOUS
10
0.7797729527559055
20
0.0433103543307087
11
0.7745999606299212
21
0.0405453543307087
0
LINE
8
BLACK
6
CONTINUOUS
10
0.7745999606299212
20
0.0405453543307087
11
0.768986968503937
21
0.0388426377952756
0
LINE
8
BLACK
6
CONTINUOUS
10
0.768986968503937
20
0.0388426377952756
11
0.7661364566929134
21
0.0385619291338583
0
LINE
8
BLACK
6
CONTINUOUS
10
0.7661364566929134
20
0.0385619291338583
11
0.7660220866141733
21
0.0384475196850394
0
LINE
8
BLACK
6
CONTINUOUS
10
0.7660220866141733
20
0.0384475196850394
11
0.7651181102362205
21
0.0382677165354331
0
LINE
8
BLACK
6
CONTINUOUS
10
0.7651181102362205
20
0.0382677165354331
11
0.7631496062992126
21
0.0382677165354331
0
LINE
8
BLACK
6
CONTINUOUS
10
0.7631496062992126
20
0.0382677165354331
11
0.6568503937007873
21
0.0382677165354331
0
LINE
8
BLACK
6
CONTINUOUS
10
0.6568503937007873
20
0.0382677165354331
11
0.6548818897637795
21
0.0382677165354331
0
LINE
8
BLACK
6
CONTINUOUS
10
0.6548818897637795
20
0.0382677165354331
11
0.6539779133858268
21
0.0384475196850394
0
LINE
8
BLACK
6
CONTINUOUS
10
0.6539779133858268
20
0.0384475196850394
11
0.6538635039370079
21
0.0385619291338583
0
LINE
8
BLACK
6
CONTINUOUS
10
0.6538635039370079
20
0.0385619291338583
11
0.6510130314960629
21
0.0388426377952756
0
LINE
8
BLACK
6
CONTINUOUS
10
0.6510130314960629
20
0.0388426377952756
11
0.6454000393700787
21
0.0405453543307087
0
LINE
8
BLACK
6
CONTINUOUS
10
0.6454000393700787
20
0.0405453543307087
11
0.6402270472440945
21
0.0433103543307087
0
LINE
8
BLACK
6
CONTINUOUS
10
0.6402270472440945
20
0.0433103543307087
11
0.635692874015748
21
0.0470314566929134
0
LINE
8
BLACK
6
CONTINUOUS
10
0.635692874015748
20
0.0470314566929134
11
0.6319717716535433
21
0.0515656299212598
0
LINE
8
BLACK
6
CONTINUOUS
10
0.6319717716535433
20
0.0515656299212598
11
0.6292067716535433
21
0.0567386220472441
0
LINE
8
BLACK
6
CONTINUOUS
10
0.6292067716535433
20
0.0567386220472441
11
0.6275040551181102
21
0.0623516141732283
0
LINE
8
BLACK
6
CONTINUOUS
10
0.6275040551181102
20
0.0623516141732283
11
0.6269291338582677
21
0.0681889763779528
0
LINE
8
BLACK
6
CONTINUOUS
10
0.6269291338582677
20
0.0681889763779528
11
0.6269291338582677
21
0.0918110236220472
0
LINE
8
BLACK
6
CONTINUOUS
10
0.6269291338582677
20
0.0918110236220472
11
0.6275040551181102
21
0.0976483858267717
0
LINE
8
BLACK
6
CONTINUOUS
10
0.6275040551181102
20
0.0976483858267717
11
0.6292067716535433
21
0.1032613779527559
0
LINE
8
BLACK
6
CONTINUOUS
10
0.6292067716535433
20
0.1032613779527559
11
0.6319717716535433
21
0.1084343700787402
0
LINE
8
BLACK
6
CONTINUOUS
10
0.6319717716535433
20
0.1084343700787402
11
0.635692874015748
21
0.1129685433070866
0
LINE
8
BLACK
6
CONTINUOUS
10
0.635692874015748
20
0.1129685433070866
11
0.6402270472440945
21
0.1166896456692913
0
LINE
8
BLACK
6
CONTINUOUS
10
0.6402270472440945
20
0.1166896456692913
11
0.6454000393700787
21
0.1194546456692913
0
LINE
8
BLACK
6
CONTINUOUS
10
0.6454000393700787
20
0.1194546456692913
11
0.6510130314960629
21
0.1211573622047244
0
LINE
8
BLACK
6
CONTINUOUS
10
0.6510130314960629
20
0.1211573622047244
11
0.6538635039370079
21
0.1214381102362205
0
LINE
8
BLACK
6
CONTINUOUS
10
0.6538635039370079
20
0.1214381102362205
11
0.6539779133858268
21
0.1215524803149606
0
LINE
8
BLACK
6
CONTINUOUS
10
0.6539779133858268
20
0.1215524803149606
11
0.6548818897637795
21
0.1217322834645669
0
LINE
8
BLACK
6
CONTINUOUS
10
0.6548818897637795
20
0.1217322834645669
11
0.7651181102362205
21
0.1217322834645669
0
LINE
8
BLACK
6
CONTINUOUS
10
0.7651181102362205
20
0.1217322834645669
11
0.7660220866141733
21
0.1215524803149606
0
LINE
8
BLACK
6
CONTINUOUS
10
0.6568503937007873
20
0.117007874015748
11
0.6540113779527559
21
0.117007874015748
0
LINE
8
BLACK
6
CONTINUOUS
10
0.6540113779527559
20
0.117007874015748
11
0.6484757480314961
21
0.1157444094488189
0
LINE
8
BLACK
6
CONTINUOUS
10
0.6484757480314961
20
0.1157444094488189
11
0.6433600393700787
21
0.1132808267716535
0
LINE
8
BLACK
6
CONTINUOUS
10
0.6433600393700787
20
0.1132808267716535
11
0.6389207874015748
21
0.1097406299212598
0
LINE
8
BLACK
6
CONTINUOUS
10
0.6389207874015748
20
0.1097406299212598
11
0.6353805905511811
21
0.1053013779527559
0
LINE
8
BLACK
6
CONTINUOUS
10
0.6353805905511811
20
0.1053013779527559
11
0.6329170078740157
21
0.1001856692913386
0
LINE
8
BLACK
6
CONTINUOUS
10
0.6329170078740157
20
0.1001856692913386
11
0.6316535433070866
21
0.0946500393700787
0
LINE
8
BLACK
6
CONTINUOUS
10
0.6316535433070866
20
0.0946500393700787
11
0.6316535433070866
21
0.0918110236220472
0
LINE
8
BLACK
6
CONTINUOUS
10
0.6316535433070866
20
0.0918110236220472
11
0.6316535433070866
21
0.0681889763779528
0
LINE
8
BLACK
6
CONTINUOUS
10
0.6316535433070866
20
0.0681889763779528
11
0.6316535433070866
21
0.0653499606299213
0
LINE
8
BLACK
6
CONTINUOUS
10
0.6316535433070866
20
0.0653499606299213
11
0.6329170078740157
21
0.0598143307086614
0
LINE
8
BLACK
6
CONTINUOUS
10
0.6329170078740157
20
0.0598143307086614
11
0.6353805905511811
21
0.0546986220472441
0
LINE
8
BLACK
6
CONTINUOUS
10
0.6353805905511811
20
0.0546986220472441
11
0.6389207874015748
21
0.0502593700787402
0
LINE
8
BLACK
6
CONTINUOUS
10
0.6389207874015748
20
0.0502593700787402
11
0.6433600393700787
21
0.0467191732283465
0
LINE
8
BLACK
6
CONTINUOUS
10
0.6433600393700787
20
0.0467191732283465
11
0.6484757480314961
21
0.0442555905511811
0
LINE
8
BLACK
6
CONTINUOUS
10
0.6484757480314961
20
0.0442555905511811
11
0.6540113779527559
21
0.042992125984252
0
LINE
8
BLACK
6
CONTINUOUS
10
0.6540113779527559
20
0.042992125984252
11
0.6548818897637795
21
0.042992125984252
0
LINE
8
BLACK
6
CONTINUOUS
10
0.6548818897637795
20
0.042992125984252
11
0.7651181102362205
21
0.042992125984252
0
LINE
8
BLACK
6
CONTINUOUS
10
0.7651181102362205
20
0.042992125984252
11
0.765988622047244
21
0.042992125984252
0
LINE
8
BLACK
6
CONTINUOUS
10
0.765988622047244
20
0.042992125984252
11
0.7715242519685039
21
0.0442555905511811
0
LINE
8
BLACK
6
CONTINUOUS
10
0.7715242519685039
20
0.0442555905511811
11
0.7766399606299212
21
0.0467191732283465
0
LINE
8
BLACK
6
CONTINUOUS
10
0.7766399606299212
20
0.0467191732283465
11
0.7810792125984252
21
0.0502593700787402
0
LINE
8
BLACK
6
CONTINUOUS
10
0.7810792125984252
20
0.0502593700787402
11
0.7846194094488189
21
0.0546986220472441
0
LINE
8
BLACK
6
CONTINUOUS
10
0.7846194094488189
20
0.0546986220472441
11
0.7870829921259842
21
0.0598143307086614
0
LINE
8
BLACK
6
CONTINUOUS
10
0.7870829921259842
20
0.0598143307086614
11
0.7883464566929134
21
0.0653499606299213
0
LINE
8
BLACK
6
CONTINUOUS
10
0.7883464566929134
20
0.0653499606299213
11
0.7883464566929134
21
0.0681889763779528
0
LINE
8
BLACK
6
CONTINUOUS
10
0.7883464566929134
20
0.0681889763779528
11
0.7883464566929134
21
0.0918110236220472
0
LINE
8
BLACK
6
CONTINUOUS
10
0.7883464566929134
20
0.0918110236220472
11
0.7883464566929134
21
0.0946500393700787
0
LINE
8
BLACK
6
CONTINUOUS
10
0.7883464566929134
20
0.0946500393700787
11
0.7870829921259842
21
0.1001856692913386
0
LINE
8
BLACK
6
CONTINUOUS
10
0.7870829921259842
20
0.1001856692913386
11
0.7846194094488189
21
0.1053013779527559
0
LINE
8
BLACK
6
CONTINUOUS
10
0.7846194094488189
20
0.1053013779527559
11
0.7810792125984252
21
0.1097406299212598
0
LINE
8
BLACK
6
CONTINUOUS
10
0.7810792125984252
20
0.1097406299212598
11
0.7766399606299212
21
0.1132808267716535
0
LINE
8
BLACK
6
CONTINUOUS
10
0.7766399606299212
20
0.1132808267716535
11
0.7715242519685039
21
0.1157444094488189
0
LINE
8
BLACK
6
CONTINUOUS
10
0.7715242519685039
20
0.1157444094488189
11
0.765988622047244
21
0.117007874015748
0
LINE
8
BLACK
6
CONTINUOUS
10
0.765988622047244
20
0.117007874015748
11
0.7631496062992126
21
0.117007874015748
0
LINE
8
BLACK
6
CONTINUOUS
10
0.7631496062992126
20
0.117007874015748
11
0.6568503937007873
21
0.117007874015748
0
LINE
8
BLACK
6
CONTINUOUS
10
0.1833284251968504
20
0.0790983858267717
11
0.184358937007874
21
0.0785831102362205
0
LINE
8
BLACK
6
CONTINUOUS
10
0.184358937007874
20
0.0785831102362205
11
0.1851137795275591
21
0.0777127559055118
0
LINE
8
BLACK
6
CONTINUOUS
10
0.1851137795275591
20
0.0777127559055118
11
0.1854781102362205
21
0.0766197637795276
0
LINE
8
BLACK
6
CONTINUOUS
10
0.1854781102362205
20
0.0766197637795276
11
0.1853964566929134
21
0.0754705511811024
0
LINE
8
BLACK
6
CONTINUOUS
10
0.1853964566929134
20
0.0754705511811024
11
0.1851895669291339
21
0.0749299606299213
0
LINE
8
BLACK
6
CONTINUOUS
10
0.1851895669291339
20
0.0749299606299213
11
0.1833148031496063
21
0.0711804330708661
0
LINE
8
BLACK
6
CONTINUOUS
10
0.1833148031496063
20
0.0711804330708661
11
0.183158779527559
21
0.0709326377952756
0
LINE
8
BLACK
6
CONTINUOUS
10
0.183158779527559
20
0.0709326377952756
11
0.183128937007874
21
0.0708604724409449
0
LINE
8
BLACK
6
CONTINUOUS
10
0.183128937007874
20
0.0708604724409449
11
0.1830623228346457
21
0.0707793307086614
0
LINE
8
BLACK
6
CONTINUOUS
10
0.1830623228346457
20
0.0707793307086614
11
0.1830064566929134
21
0.0706905511811024
0
LINE
8
BLACK
6
CONTINUOUS
10
0.1830064566929134
20
0.0706905511811024
11
0.1829475196850394
21
0.0706394488188976
0
LINE
8
BLACK
6
CONTINUOUS
10
0.1829475196850394
20
0.0706394488188976
11
0.1827616929133858
21
0.070413031496063
0
LINE
8
BLACK
6
CONTINUOUS
10
0.1827616929133858
20
0.070413031496063
11
0.1803033070866142
21
0.0679546456692913
0
LINE
8
BLACK
6
CONTINUOUS
10
0.1803033070866142
20
0.0679546456692913
11
0.2077172834645669
21
0.0679546456692913
0
LINE
8
BLACK
6
CONTINUOUS
10
0.2077172834645669
20
0.0679546456692913
11
0.2077172834645669
21
0.0762504724409449
0
LINE
8
BLACK
6
CONTINUOUS
10
0.2077172834645669
20
0.0762504724409449
11
0.2077740157480315
21
0.0768265354330709
0
LINE
8
BLACK
6
CONTINUOUS
10
0.2077740157480315
20
0.0768265354330709
11
0.2082149212598425
21
0.0778909448818898
0
LINE
8
BLACK
6
CONTINUOUS
10
0.2082149212598425
20
0.0778909448818898
11
0.2090295669291339
21
0.0787055905511811
0
LINE
8
BLACK
6
CONTINUOUS
10
0.2090295669291339
20
0.0787055905511811
11
0.2100939763779527
21
0.0791464960629921
0
LINE
8
BLACK
6
CONTINUOUS
10
0.2100939763779527
20
0.0791464960629921
11
0.2112461023622047
21
0.0791464960629921
0
LINE
8
BLACK
6
CONTINUOUS
10
0.2112461023622047
20
0.0791464960629921
11
0.2123105118110236
21
0.0787055905511811
0
LINE
8
BLACK
6
CONTINUOUS
10
0.2123105118110236
20
0.0787055905511811
11
0.213125157480315
21
0.0778909448818898
0
LINE
8
BLACK
6
CONTINUOUS
10
0.213125157480315
20
0.0778909448818898
11
0.213566062992126
21
0.0768265354330709
0
LINE
8
BLACK
6
CONTINUOUS
10
0.213566062992126
20
0.0768265354330709
11
0.2136227952755906
21
0.0762504724409449
0
LINE
8
BLACK
6
CONTINUOUS
10
0.2136227952755906
20
0.0762504724409449
11
0.2136227952755906
21
0.0537533070866142
0
LINE
8
BLACK
6
CONTINUOUS
10
0.2136227952755906
20
0.0537533070866142
11
0.213566062992126
21
0.0531772440944882
0
LINE
8
BLACK
6
CONTINUOUS
10
0.213566062992126
20
0.0531772440944882
11
0.213125157480315
21
0.0521128346456693
0
LINE
8
BLACK
6
CONTINUOUS
10
0.213125157480315
20
0.0521128346456693
11
0.2123105118110236
21
0.051298188976378
0
LINE
8
BLACK
6
CONTINUOUS
10
0.2123105118110236
20
0.051298188976378
11
0.2112461023622047
21
0.0508572834645669
0
LINE
8
BLACK
6
CONTINUOUS
10
0.2112461023622047
20
0.0508572834645669
11
0.2100939763779527
21
0.0508572834645669
0
LINE
8
BLACK
6
CONTINUOUS
10
0.2100939763779527
20
0.0508572834645669
11
0.2090295669291339
21
0.051298188976378
0
LINE
8
BLACK
6
CONTINUOUS
10
0.2090295669291339
20
0.051298188976378
11
0.2082149212598425
21
0.0521128346456693
0
LINE
8
BLACK
6
CONTINUOUS
10
0.2082149212598425
20
0.0521128346456693
11
0.2077740157480315
21
0.0531772440944882
0
LINE
8
BLACK
6
CONTINUOUS
10
0.2077740157480315
20
0.0531772440944882
11
0.2077172834645669
21
0.0537533070866142
0
LINE
8
BLACK
6
CONTINUOUS
10
0.2077172834645669
20
0.0537533070866142
11
0.2077172834645669
21
0.0620491338582677
0
LINE
8
BLACK
6
CONTINUOUS
10
0.2077172834645669
20
0.0620491338582677
11
0.1712999606299213
21
0.0620491338582677
0
LINE
8
BLACK
6
CONTINUOUS
10
0.1712999606299213
20
0.0620491338582677
11
0.171297874015748
21
0.0620493700787402
0
LINE
8
BLACK
6
CONTINUOUS
10
0.171297874015748
20
0.0620493700787402
11
0.1712968503937008
21
0.0620491338582677
0
LINE
8
BLACK
6
CONTINUOUS
10
0.1712968503937008
20
0.0620491338582677
11
0.1712938188976378
21
0.0620497637795276
0
LINE
8
BLACK
6
CONTINUOUS
10
0.1712938188976378
20
0.0620497637795276
11
0.1707238976377953
21
0.0621058661417323
0
LINE
8
BLACK
6
CONTINUOUS
10
0.1707238976377953
20
0.0621058661417323
11
0.1704537795275591
21
0.0622177559055118
0
LINE
8
BLACK
6
CONTINUOUS
10
0.1704537795275591
20
0.0622177559055118
11
0.1701671653543307
21
0.0622750787401575
0
LINE
8
BLACK
6
CONTINUOUS
10
0.1701671653543307
20
0.0622750787401575
11
0.1699267716535433
21
0.062436062992126
0
LINE
8
BLACK
6
CONTINUOUS
10
0.1699267716535433
20
0.062436062992126
11
0.1696594881889764
21
0.0625467716535433
0
LINE
8
BLACK
6
CONTINUOUS
10
0.1696594881889764
20
0.0625467716535433
11
0.1694527559055118
21
0.0627535039370079
0
LINE
8
BLACK
6
CONTINUOUS
10
0.1694527559055118
20
0.0627535039370079
11
0.1692098818897638
21
0.0629161417322835
0
LINE
8
BLACK
6
CONTINUOUS
10
0.1692098818897638
20
0.0629161417322835
11
0.1690493700787402
21
0.0631568897637795
0
LINE
8
BLACK
6
CONTINUOUS
10
0.1690493700787402
20
0.0631568897637795
11
0.168844842519685
21
0.0633614173228347
0
LINE
8
BLACK
6
CONTINUOUS
10
0.168844842519685
20
0.0633614173228347
11
0.1687329527559055
21
0.0636315354330709
0
LINE
8
BLACK
6
CONTINUOUS
10
0.1687329527559055
20
0.0636315354330709
11
0.1685707874015748
21
0.0638747637795276
0
LINE
8
BLACK
6
CONTINUOUS
10
0.1685707874015748
20
0.0638747637795276
11
0.1685146456692913
21
0.0641585826771654
0
LINE
8
BLACK
6
CONTINUOUS
10
0.1685146456692913
20
0.0641585826771654
11
0.168403937007874
21
0.0644258267716535
0
LINE
8
BLACK
6
CONTINUOUS
10
0.168403937007874
20
0.0644258267716535
11
0.168403937007874
21
0.0647182283464567
0
LINE
8
BLACK
6
CONTINUOUS
10
0.168403937007874
20
0.0647182283464567
11
0.1683472047244094
21
0.065005
0
LINE
8
BLACK
6
CONTINUOUS
10
0.1683472047244094
20
0.065005
11
0.168403937007874
21
0.0652886614173228
0
LINE
8
BLACK
6
CONTINUOUS
10
0.168403937007874
20
0.0652886614173228
11
0.168403937007874
21
0.0655779527559055
0
LINE
8
BLACK
6
CONTINUOUS
10
0.168403937007874
20
0.0655779527559055
11
0.1685157874015748
21
0.0658480708661417
0
LINE
8
BLACK
6
CONTINUOUS
10
0.1685157874015748
20
0.0658480708661417
11
0.1685731496062992
21
0.0661346850393701
0
LINE
8
BLACK
6
CONTINUOUS
10
0.1685731496062992
20
0.0661346850393701
11
0.168734094488189
21
0.0663750787401575
0
LINE
8
BLACK
6
CONTINUOUS
10
0.168734094488189
20
0.0663750787401575
11
0.168844842519685
21
0.0666423622047244
0
LINE
8
BLACK
6
CONTINUOUS
10
0.168844842519685
20
0.0666423622047244
11
0.1690515354330709
21
0.066849094488189
0
LINE
8
BLACK
6
CONTINUOUS
10
0.1690515354330709
20
0.066849094488189
11
0.1692142125984252
21
0.067091968503937
0
LINE
8
BLACK
6
CONTINUOUS
10
0.1692142125984252
20
0.067091968503937
11
0.1696574409448819
21
0.067455
0
LINE
8
BLACK
6
CONTINUOUS
10
0.1696574409448819
20
0.067455
11
0.1696594881889764
21
0.0674570078740157
0
LINE
8
BLACK
6
CONTINUOUS
10
0.1696594881889764
20
0.0674570078740157
11
0.1696603543307087
21
0.0674574015748031
0
LINE
8
BLACK
6
CONTINUOUS
10
0.1696603543307087
20
0.0674574015748031
11
0.1696620472440945
21
0.0674587401574803
0
LINE
8
BLACK
6
CONTINUOUS
10
0.1696620472440945
20
0.0674587401574803
11
0.1750430708661417
21
0.0710461023622047
0
LINE
8
BLACK
6
CONTINUOUS
10
0.1750430708661417
20
0.0710461023622047
11
0.1782470472440945
21
0.0742500393700787
0
LINE
8
BLACK
6
CONTINUOUS
10
0.1782470472440945
20
0.0742500393700787
11
0.1799075196850394
21
0.0775709842519685
0
LINE
8
BLACK
6
CONTINUOUS
10
0.1799075196850394
20
0.0775709842519685
11
0.1802158661417323
21
0.0780608661417323
0
LINE
8
BLACK
6
CONTINUOUS
10
0.1802158661417323
20
0.0780608661417323
11
0.1810862598425197
21
0.0788157086614173
0
LINE
8
BLACK
6
CONTINUOUS
10
0.1810862598425197
20
0.0788157086614173
11
0.1821792125984252
21
0.0791800393700787
0
LINE
8
BLACK
6
CONTINUOUS
10
0.1821792125984252
20
0.0791800393700787
11
0.1833284251968504
21
0.0790983858267717
0
LINE
8
BLACK
6
CONTINUOUS
10
0.5313086614173228
20
0.0871036614173228
11
0.5325870866141732
21
0.0858252362204724
0
LINE
8
BLACK
6
CONTINUOUS
10
0.5325870866141732
20
0.0858252362204724
11
0.5325870866141732
21
0.0840172834645669
0
LINE
8
BLACK
6
CONTINUOUS
10
0.5325870866141732
20
0.0840172834645669
11
0.5313086614173228
21
0.0827388582677165
0
LINE
8
BLACK
6
CONTINUOUS
10
0.5313086614173228
20
0.0827388582677165
11
0.5304046850393701
21
0.0825590551181102
0
LINE
8
BLACK
6
CONTINUOUS
10
0.5304046850393701
20
0.0825590551181102
11
0.5175874409448818
21
0.0825590551181102
0
LINE
8
BLACK
6
CONTINUOUS
10
0.5175874409448818
20
0.0825590551181102
11
0.5166834645669292
21
0.0827388582677165
0
LINE
8
BLACK
6
CONTINUOUS
10
0.5166834645669292
20
0.0827388582677165
11
0.5154050393700788
21
0.0840172834645669
0
LINE
8
BLACK
6
CONTINUOUS
10
0.5154050393700788
20
0.0840172834645669
11
0.5154050393700788
21
0.0858252362204724
0
LINE
8
BLACK
6
CONTINUOUS
10
0.5154050393700788
20
0.0858252362204724
11
0.5166834645669292
21
0.0871036614173228
0
LINE
8
BLACK
6
CONTINUOUS
10
0.5166834645669292
20
0.0871036614173228
11
0.5175874409448818
21
0.0872834645669291
0
LINE
8
BLACK
6
CONTINUOUS
10
0.5175874409448818
20
0.0872834645669291
11
0.5304046850393701
21
0.0872834645669291
0
LINE
8
BLACK
6
CONTINUOUS
10
0.5304046850393701
20
0.0872834645669291
11
0.5313086614173228
21
0.0871036614173228
0
LINE
8
BLACK
6
CONTINUOUS
10
0.2123105118110236
20
0.1105766141732283
11
0.213125157480315
21
0.109761968503937
0
LINE
8
BLACK
6
CONTINUOUS
10
0.213125157480315
20
0.109761968503937
11
0.213566062992126
21
0.1086975590551181
0
LINE
8
BLACK
6
CONTINUOUS
10
0.213566062992126
20
0.1086975590551181
11
0.2136227952755906
21
0.1081214960629921
0
LINE
8
BLACK
6
CONTINUOUS
10
0.2136227952755906
20
0.1081214960629921
11
0.2136227952755906
21
0.104371968503937
0
LINE
8
BLACK
6
CONTINUOUS
10
0.2136227952755906
20
0.104371968503937
11
0.2135940551181102
21
0.1040803937007874
0
LINE
8
BLACK
6
CONTINUOUS
10
0.2135940551181102
20
0.1040803937007874
11
0.2135996062992126
21
0.1040026377952756
0
LINE
8
BLACK
6
CONTINUOUS
10
0.2135996062992126
20
0.1040026377952756
11
0.2135763385826772
21
0.1039003937007874
0
LINE
8
BLACK
6
CONTINUOUS
10
0.2135763385826772
20
0.1039003937007874
11
0.213566062992126
21
0.103795905511811
0
LINE
8
BLACK
6
CONTINUOUS
10
0.213566062992126
20
0.103795905511811
11
0.2135361811023622
21
0.1037238582677165
0
LINE
8
BLACK
6
CONTINUOUS
10
0.2135361811023622
20
0.1037238582677165
11
0.2134712598425197
21
0.103438188976378
0
LINE
8
BLACK
6
CONTINUOUS
10
0.2134712598425197
20
0.103438188976378
11
0.2115964960629921
21
0.097813937007874
0
LINE
8
BLACK
6
CONTINUOUS
10
0.2115964960629921
20
0.097813937007874
11
0.2113605118110236
21
0.0972853543307087
0
LINE
8
BLACK
6
CONTINUOUS
10
0.2113605118110236
20
0.0972853543307087
11
0.2112910236220472
21
0.0972052755905512
0
LINE
8
BLACK
6
CONTINUOUS
10
0.2112910236220472
20
0.0972052755905512
11
0.2112504330708661
21
0.0971072047244095
0
LINE
8
BLACK
6
CONTINUOUS
10
0.2112504330708661
20
0.0971072047244095
11
0.2108831889763779
21
0.0966597637795276
0
LINE
8
BLACK
6
CONTINUOUS
10
0.2108831889763779
20
0.0966597637795276
11
0.2071336220472441
21
0.0929102362204724
0
LINE
8
BLACK
6
CONTINUOUS
10
0.2071336220472441
20
0.0929102362204724
11
0.2066861417322834
21
0.0925429921259843
0
LINE
8
BLACK
6
CONTINUOUS
10
0.2066861417322834
20
0.0925429921259843
11
0.2065880708661417
21
0.0925024015748031
0
LINE
8
BLACK
6
CONTINUOUS
10
0.2065880708661417
20
0.0925024015748031
11
0.2065079921259843
21
0.0924329133858268
0
LINE
8
BLACK
6
CONTINUOUS
10
0.2065079921259843
20
0.0924329133858268
11
0.2059794488188976
21
0.0921969291338583
0
LINE
8
BLACK
6
CONTINUOUS
10
0.2059794488188976
20
0.0921969291338583
11
0.200355157480315
21
0.0903221653543307
0
LINE
8
BLACK
6
CONTINUOUS
10
0.200355157480315
20
0.0903221653543307
11
0.2000695669291339
21
0.0902572440944882
0
LINE
8
BLACK
6
CONTINUOUS
10
0.2000695669291339
20
0.0902572440944882
11
0.1999974803149606
21
0.0902273622047244
0
LINE
8
BLACK
6
CONTINUOUS
10
0.1999974803149606
20
0.0902273622047244
11
0.1998929527559055
21
0.0902170866141732
0
LINE
8
BLACK
6
CONTINUOUS
10
0.1998929527559055
20
0.0902170866141732
11
0.1997907086614173
21
0.0901938188976378
0
LINE
8
BLACK
6
CONTINUOUS
10
0.1997907086614173
20
0.0901938188976378
11
0.1997129527559055
21
0.0901993700787402
0
LINE
8
BLACK
6
CONTINUOUS
10
0.1997129527559055
20
0.0901993700787402
11
0.1994214173228346
21
0.0901706299212598
0
LINE
8
BLACK
6
CONTINUOUS
10
0.1994214173228346
20
0.0901706299212598
11
0.1712999606299213
21
0.0901706299212598
0
LINE
8
BLACK
6
CONTINUOUS
10
0.1712999606299213
20
0.0901706299212598
11
0.1707238976377953
21
0.0902273622047244
0
LINE
8
BLACK
6
CONTINUOUS
10
0.1707238976377953
20
0.0902273622047244
11
0.1696594881889764
21
0.0906682677165354
0
LINE
8
BLACK
6
CONTINUOUS
10
0.1696594881889764
20
0.0906682677165354
11
0.168844842519685
21
0.0914829133858268
0
LINE
8
BLACK
6
CONTINUOUS
10
0.168844842519685
20
0.0914829133858268
11
0.168403937007874
21
0.0925473228346457
0
LINE
8
BLACK
6
CONTINUOUS
10
0.168403937007874
20
0.0925473228346457
11
0.168403937007874
21
0.0936994488188976
0
LINE
8
BLACK
6
CONTINUOUS
10
0.168403937007874
20
0.0936994488188976
11
0.168844842519685
21
0.0947638582677165
0
LINE
8
BLACK
6
CONTINUOUS
10
0.168844842519685
20
0.0947638582677165
11
0.1696594881889764
21
0.0955785039370079
0
LINE
8
BLACK
6
CONTINUOUS
10
0.1696594881889764
20
0.0955785039370079
11
0.1707238976377953
21
0.0960194094488189
0
LINE
8
BLACK
6
CONTINUOUS
10
0.1707238976377953
20
0.0960194094488189
11
0.1712999606299213
21
0.0960761417322835
0
LINE
8
BLACK
6
CONTINUOUS
10
0.1712999606299213
20
0.0960761417322835
11
0.1989422834645669
21
0.0960761417322835
0
LINE
8
BLACK
6
CONTINUOUS
10
0.1989422834645669
20
0.0960761417322835
11
0.2034506692913386
21
0.0975789763779528
0
LINE
8
BLACK
6
CONTINUOUS
10
0.2034506692913386
20
0.0975789763779528
11
0.2062144881889764
21
0.1003427559055118
0
LINE
8
BLACK
6
CONTINUOUS
10
0.2062144881889764
20
0.1003427559055118
11
0.2077172834645669
21
0.1048511023622047
0
LINE
8
BLACK
6
CONTINUOUS
10
0.2077172834645669
20
0.1048511023622047
11
0.2077172834645669
21
0.1081214960629921
0
LINE
8
BLACK
6
CONTINUOUS
10
0.2077172834645669
20
0.1081214960629921
11
0.2077740157480315
21
0.1086975590551181
0
LINE
8
BLACK
6
CONTINUOUS
10
0.2077740157480315
20
0.1086975590551181
11
0.2082149212598425
21
0.109761968503937
0
LINE
8
BLACK
6
CONTINUOUS
10
0.2082149212598425
20
0.109761968503937
11
0.2090295669291339
21
0.1105766141732283
0
LINE
8
BLACK
6
CONTINUOUS
10
0.2090295669291339
20
0.1105766141732283
11
0.2100939763779527
21
0.1110175196850394
0
LINE
8
BLACK
6
CONTINUOUS
10
0.2100939763779527
20
0.1110175196850394
11
0.2112461023622047
21
0.1110175196850394
0
LINE
8
BLACK
6
CONTINUOUS
10
0.2112461023622047
20
0.1110175196850394
11
0.2123105118110236
21
0.1105766141732283
0
LINE
8
BLACK
6
CONTINUOUS
10
1.0090344094488188
20
0.1601866141732284
11
1.0093237007874016
21
0.1601866141732284
0
LINE
8
BLACK
6
CONTINUOUS
10
1.0093237007874016
20
0.1601866141732284
11
1.0095937795275591
21
0.1600747637795276
0
LINE
8
BLACK
6
CONTINUOUS
10
1.0095937795275591
20
0.1600747637795276
11
1.0098804330708662
21
0.1600174015748032
0
LINE
8
BLACK
6
CONTINUOUS
10
1.0098804330708662
20
0.1600174015748032
11
1.0101207874015747
21
0.1598564566929134
0
LINE
8
BLACK
6
CONTINUOUS
10
1.0101207874015747
20
0.1598564566929134
11
1.0103881102362204
21
0.1597457086614173
0
LINE
8
BLACK
6
CONTINUOUS
10
1.0103881102362204
20
0.1597457086614173
11
1.0105948031496064
21
0.1595390157480315
0
LINE
8
BLACK
6
CONTINUOUS
10
1.0105948031496064
20
0.1595390157480315
11
1.010837716535433
21
0.1593763385826772
0
LINE
8
BLACK
6
CONTINUOUS
10
1.010837716535433
20
0.1593763385826772
11
1.0112007086614172
21
0.1589331102362205
0
LINE
8
BLACK
6
CONTINUOUS
10
1.0112007086614172
20
0.1589331102362205
11
1.0112027559055119
21
0.158931062992126
0
LINE
8
BLACK
6
CONTINUOUS
10
1.0112027559055119
20
0.158931062992126
11
1.0112031102362204
21
0.1589301968503937
0
LINE
8
BLACK
6
CONTINUOUS
10
1.0112031102362204
20
0.1589301968503937
11
1.0112044881889763
21
0.1589285039370079
0
LINE
8
BLACK
6
CONTINUOUS
10
1.0112044881889763
20
0.1589285039370079
11
1.014791811023622
21
0.1535474803149606
0
LINE
8
BLACK
6
CONTINUOUS
10
1.014791811023622
20
0.1535474803149606
11
1.0179957874015748
21
0.1503435039370079
0
LINE
8
BLACK
6
CONTINUOUS
10
1.0179957874015748
20
0.1503435039370079
11
1.0213167322834646
21
0.148683031496063
0
LINE
8
BLACK
6
CONTINUOUS
10
1.0213167322834646
20
0.148683031496063
11
1.0218066141732283
21
0.1483746850393701
0
LINE
8
BLACK
6
CONTINUOUS
10
1.0218066141732283
20
0.1483746850393701
11
1.0225614566929133
21
0.1475042913385827
0
LINE
8
BLACK
6
CONTINUOUS
10
1.0225614566929133
20
0.1475042913385827
11
1.0229257874015747
21
0.1464113385826772
0
LINE
8
BLACK
6
CONTINUOUS
10
1.0229257874015747
20
0.1464113385826772
11
1.0228441338582677
21
0.145262125984252
0
LINE
8
BLACK
6
CONTINUOUS
10
1.0228441338582677
20
0.145262125984252
11
1.0223288582677166
21
0.1442316141732284
0
LINE
8
BLACK
6
CONTINUOUS
10
1.0223288582677166
20
0.1442316141732284
11
1.0214585039370079
21
0.1434767716535433
0
LINE
8
BLACK
6
CONTINUOUS
10
1.0214585039370079
20
0.1434767716535433
11
1.0203655118110235
21
0.1431124409448819
0
LINE
8
BLACK
6
CONTINUOUS
10
1.0203655118110235
20
0.1431124409448819
11
1.0192162992125984
21
0.143194094488189
0
LINE
8
BLACK
6
CONTINUOUS
10
1.0192162992125984
20
0.143194094488189
11
1.0186757086614173
21
0.1434009842519685
0
LINE
8
BLACK
6
CONTINUOUS
10
1.0186757086614173
20
0.1434009842519685
11
1.0149261811023622
21
0.1452757480314961
0
LINE
8
BLACK
6
CONTINUOUS
10
1.0149261811023622
20
0.1452757480314961
11
1.0146783464566929
21
0.1454317716535433
0
LINE
8
BLACK
6
CONTINUOUS
10
1.0146783464566929
20
0.1454317716535433
11
1.0146062204724409
21
0.1454616141732283
0
LINE
8
BLACK
6
CONTINUOUS
10
1.0146062204724409
20
0.1454616141732283
11
1.0145250393700787
21
0.1455282283464567
0
LINE
8
BLACK
6
CONTINUOUS
10
1.0145250393700787
20
0.1455282283464567
11
1.0144362992125984
21
0.145584094488189
0
LINE
8
BLACK
6
CONTINUOUS
10
1.0144362992125984
20
0.145584094488189
11
1.0143851574803149
21
0.145643031496063
0
LINE
8
BLACK
6
CONTINUOUS
10
1.0143851574803149
20
0.145643031496063
11
1.0141587795275591
21
0.1458288582677165
0
LINE
8
BLACK
6
CONTINUOUS
10
1.0141587795275591
20
0.1458288582677165
11
1.0117003937007873
21
0.1482872440944882
0
LINE
8
BLACK
6
CONTINUOUS
10
1.0117003937007873
20
0.1482872440944882
11
1.0117003937007873
21
0.1208732677165354
0
LINE
8
BLACK
6
CONTINUOUS
10
1.0117003937007873
20
0.1208732677165354
11
1.0199962204724409
21
0.1208732677165354
0
LINE
8
BLACK
6
CONTINUOUS
10
1.0199962204724409
20
0.1208732677165354
11
1.020572283464567
21
0.1208165354330709
0
LINE
8
BLACK
6
CONTINUOUS
10
1.020572283464567
20
0.1208165354330709
11
1.0216366929133858
21
0.1203756299212598
0
LINE
8
BLACK
6
CONTINUOUS
10
1.0216366929133858
20
0.1203756299212598
11
1.0224513385826772
21
0.1195609842519685
0
LINE
8
BLACK
6
CONTINUOUS
10
1.0224513385826772
20
0.1195609842519685
11
1.0228922440944881
21
0.1184965748031496
0
LINE
8
BLACK
6
CONTINUOUS
10
1.0228922440944881
20
0.1184965748031496
11
1.0228922440944881
21
0.1173444488188976
0
LINE
8
BLACK
6
CONTINUOUS
10
1.0228922440944881
20
0.1173444488188976
11
1.0224513385826772
21
0.1162800393700787
0
LINE
8
BLACK
6
CONTINUOUS
10
1.0224513385826772
20
0.1162800393700787
11
1.0216366929133858
21
0.1154653937007874
0
LINE
8
BLACK
6
CONTINUOUS
10
1.0216366929133858
20
0.1154653937007874
11
1.020572283464567
21
0.1150244881889764
0
LINE
8
BLACK
6
CONTINUOUS
10
1.020572283464567
20
0.1150244881889764
11
1.0199962204724409
21
0.1149677559055118
0
LINE
8
BLACK
6
CONTINUOUS
10
1.0199962204724409
20
0.1149677559055118
11
0.9974990551181102
21
0.1149677559055118
0
LINE
8
BLACK
6
CONTINUOUS
10
0.9974990551181102
20
0.1149677559055118
11
0.9969229921259842
21
0.1150244881889764
0
LINE
8
BLACK
6
CONTINUOUS
10
0.9969229921259842
20
0.1150244881889764
11
0.9958585826771653
21
0.1154653937007874
0
LINE
8
BLACK
6
CONTINUOUS
10
0.9958585826771653
20
0.1154653937007874
11
0.995043937007874
21
0.1162800393700787
0
LINE
8
BLACK
6
CONTINUOUS
10
0.995043937007874
20
0.1162800393700787
11
0.994603031496063
21
0.1173444488188976
0
LINE
8
BLACK
6
CONTINUOUS
10
0.994603031496063
20
0.1173444488188976
11
0.994603031496063
21
0.1184965748031496
0
LINE
8
BLACK
6
CONTINUOUS
10
0.994603031496063
20
0.1184965748031496
11
0.995043937007874
21
0.1195609842519685
0
LINE
8
BLACK
6
CONTINUOUS
10
0.995043937007874
20
0.1195609842519685
11
0.9958585826771653
21
0.1203756299212598
0
LINE
8
BLACK
6
CONTINUOUS
10
0.9958585826771653
20
0.1203756299212598
11
0.9969229921259842
21
0.1208165354330709
0
LINE
8
BLACK
6
CONTINUOUS
10
0.9969229921259842
20
0.1208165354330709
11
0.9974990551181102
21
0.1208732677165354
0
LINE
8
BLACK
6
CONTINUOUS
10
0.9974990551181102
20
0.1208732677165354
11
1.0057948818897637
21
0.1208732677165354
0
LINE
8
BLACK
6
CONTINUOUS
10
1.0057948818897637
20
0.1208732677165354
11
1.0057948818897637
21
0.1572905905511811
0
LINE
8
BLACK
6
CONTINUOUS
10
1.0057948818897637
20
0.1572905905511811
11
1.0057950787401575
21
0.1572926771653543
0
LINE
8
BLACK
6
CONTINUOUS
10
1.0057950787401575
20
0.1572926771653543
11
1.0057948818897637
21
0.1572937007874016
0
LINE
8
BLACK
6
CONTINUOUS
10
1.0057948818897637
20
0.1572937007874016
11
1.0057954724409448
21
0.1572967322834646
0
LINE
8
BLACK
6
CONTINUOUS
10
1.0057954724409448
20
0.1572967322834646
11
1.0058516141732283
21
0.1578666535433071
0
LINE
8
BLACK
6
CONTINUOUS
10
1.0058516141732283
20
0.1578666535433071
11
1.0059634645669291
21
0.1581367716535433
0
LINE
8
BLACK
6
CONTINUOUS
10
1.0059634645669291
20
0.1581367716535433
11
1.0060208267716535
21
0.1584233858267717
0
LINE
8
BLACK
6
CONTINUOUS
10
1.0060208267716535
20
0.1584233858267717
11
1.0061817716535433
21
0.1586637795275591
0
LINE
8
BLACK
6
CONTINUOUS
10
1.0061817716535433
20
0.1586637795275591
11
1.0062925196850394
21
0.158931062992126
0
LINE
8
BLACK
6
CONTINUOUS
10
1.0062925196850394
20
0.158931062992126
11
1.0064992125984251
21
0.1591377952755905
0
LINE
8
BLACK
6
CONTINUOUS
10
1.0064992125984251
20
0.1591377952755905
11
1.0066618897637796
21
0.1593806692913386
0
LINE
8
BLACK
6
CONTINUOUS
10
1.0066618897637796
20
0.1593806692913386
11
1.0069025984251969
21
0.1595411811023622
0
LINE
8
BLACK
6
CONTINUOUS
10
1.0069025984251969
20
0.1595411811023622
11
1.0071071653543306
21
0.1597457086614173
0
LINE
8
BLACK
6
CONTINUOUS
10
1.0071071653543306
20
0.1597457086614173
11
1.0073772440944881
21
0.1598575984251968
0
LINE
8
BLACK
6
CONTINUOUS
10
1.0073772440944881
20
0.1598575984251968
11
1.0076205118110235
21
0.1600197637795276
0
LINE
8
BLACK
6
CONTINUOUS
10
1.0076205118110235
20
0.1600197637795276
11
1.0079042913385827
21
0.160075905511811
0
LINE
8
BLACK
6
CONTINUOUS
10
1.0079042913385827
20
0.160075905511811
11
1.0081715748031497
21
0.1601866141732284
0
LINE
8
BLACK
6
CONTINUOUS
10
1.0081715748031497
20
0.1601866141732284
11
1.0084639763779528
21
0.1601866141732284
0
LINE
8
BLACK
6
CONTINUOUS
10
1.0084639763779528
20
0.1601866141732284
11
1.0087507480314961
21
0.1602433464566929
0
LINE
8
BLACK
6
CONTINUOUS
10
1.0087507480314961
20
0.1602433464566929
11
1.0090344094488188
21
0.1601866141732284
0
LINE
8
BLACK
6
CONTINUOUS
10
1.0385096062992125
20
0.1597457086614173
11
1.039324251968504
21
0.158931062992126
0
LINE
8
BLACK
6
CONTINUOUS
10
1.039324251968504
20
0.158931062992126
11
1.0397651574803148
21
0.1578666535433071
0
LINE
8
BLACK
6
CONTINUOUS
10
1.0397651574803148
20
0.1578666535433071
11
1.0398218897637794
21
0.1572905905511811
0
LINE
8
BLACK
6
CONTINUOUS
10
1.0398218897637794
20
0.1572905905511811
11
1.0398218897637794
21
0.1261166535433071
0
LINE
8
BLACK
6
CONTINUOUS
10
1.0398218897637794
20
0.1261166535433071
11
1.0411706299212597
21
0.1234191732283465
0
LINE
8
BLACK
6
CONTINUOUS
10
1.0411706299212597
20
0.1234191732283465
11
1.0423677559055118
21
0.1222220078740157
0
LINE
8
BLACK
6
CONTINUOUS
10
1.0423677559055118
20
0.1222220078740157
11
1.0450652362204724
21
0.1208732677165354
0
LINE
8
BLACK
6
CONTINUOUS
10
1.0450652362204724
20
0.1208732677165354
11
1.0511701968503937
21
0.1208732677165354
0
LINE
8
BLACK
6
CONTINUOUS
10
1.0511701968503937
20
0.1208732677165354
11
1.0538676377952756
21
0.1222220078740157
0
LINE
8
BLACK
6
CONTINUOUS
10
1.0538676377952756
20
0.1222220078740157
11
1.0550647637795276
21
0.1234191732283465
0
LINE
8
BLACK
6
CONTINUOUS
10
1.0550647637795276
20
0.1234191732283465
11
1.0564135433070867
21
0.1261166535433071
0
LINE
8
BLACK
6
CONTINUOUS
10
1.0564135433070867
20
0.1261166535433071
11
1.0564135433070867
21
0.1572905905511811
0
LINE
8
BLACK
6
CONTINUOUS
10
1.0564135433070867
20
0.1572905905511811
11
1.0564702755905511
21
0.1578666535433071
0
LINE
8
BLACK
6
CONTINUOUS
10
1.0564702755905511
20
0.1578666535433071
11
1.0569111811023622
21
0.158931062992126
0
LINE
8
BLACK
6
CONTINUOUS
10
1.0569111811023622
20
0.158931062992126
11
1.0577258267716536
21
0.1597457086614173
0
LINE
8
BLACK
6
CONTINUOUS
10
1.0577258267716536
20
0.1597457086614173
11
1.0587902362204724
21
0.1601866141732284
0
LINE
8
BLACK
6
CONTINUOUS
10
1.0587902362204724
20
0.1601866141732284
11
1.0599423622047244
21
0.1601866141732284
0
LINE
8
BLACK
6
CONTINUOUS
10
1.0599423622047244
20
0.1601866141732284
11
1.0610067716535432
21
0.1597457086614173
0
LINE
8
BLACK
6
CONTINUOUS
10
1.0610067716535432
20
0.1597457086614173
11
1.0618214173228346
21
0.158931062992126
0
LINE
8
BLACK
6
CONTINUOUS
10
1.0618214173228346
20
0.158931062992126
11
1.0622623228346457
21
0.1578666535433071
0
LINE
8
BLACK
6
CONTINUOUS
10
1.0622623228346457
20
0.1578666535433071
11
1.0623190551181103
21
0.1572905905511811
0
LINE
8
BLACK
6
CONTINUOUS
10
1.0623190551181103
20
0.1572905905511811
11
1.0623190551181103
21
0.1254196062992126
0
LINE
8
BLACK
6
CONTINUOUS
10
1.0623190551181103
20
0.1254196062992126
11
1.0622623228346457
21
0.1248435433070866
0
LINE
8
BLACK
6
CONTINUOUS
10
1.0622623228346457
20
0.1248435433070866
11
1.0622217322834646
21
0.1247455905511811
0
LINE
8
BLACK
6
CONTINUOUS
10
1.0622217322834646
20
0.1247455905511811
11
1.0622142125984251
21
0.1246396850393701
0
LINE
8
BLACK
6
CONTINUOUS
10
1.0622142125984251
20
0.1246396850393701
11
1.0620073228346456
21
0.124099094488189
0
LINE
8
BLACK
6
CONTINUOUS
10
1.0620073228346456
20
0.124099094488189
11
1.0601325590551181
21
0.1203495669291339
0
LINE
8
BLACK
6
CONTINUOUS
10
1.0601325590551181
20
0.1203495669291339
11
1.059976496062992
21
0.1201016929133858
0
LINE
8
BLACK
6
CONTINUOUS
10
1.059976496062992
20
0.1201016929133858
11
1.0599466929133858
21
0.1200296456692913
0
LINE
8
BLACK
6
CONTINUOUS
10
1.0599466929133858
20
0.1200296456692913
11
1.0598801574803149
21
0.1199486220472441
0
LINE
8
BLACK
6
CONTINUOUS
10
1.0598801574803149
20
0.1199486220472441
11
1.0598242125984252
21
0.1198596850393701
0
LINE
8
BLACK
6
CONTINUOUS
10
1.0598242125984252
20
0.1198596850393701
11
1.0597651968503936
21
0.1198085433070866
0
LINE
8
BLACK
6
CONTINUOUS
10
1.0597651968503936
20
0.1198085433070866
11
1.0595794488188977
21
0.1195821653543307
0
LINE
8
BLACK
6
CONTINUOUS
10
1.0595794488188977
20
0.1195821653543307
11
1.0577047244094488
21
0.1177074015748032
0
LINE
8
BLACK
6
CONTINUOUS
10
1.0577047244094488
20
0.1177074015748032
11
1.0574783464566928
21
0.1175216535433071
0
LINE
8
BLACK
6
CONTINUOUS
10
1.0574783464566928
20
0.1175216535433071
11
1.0574271653543308
21
0.1174625984251969
0
LINE
8
BLACK
6
CONTINUOUS
10
1.0574271653543308
20
0.1174625984251969
11
1.057338188976378
21
0.1174066141732283
0
LINE
8
BLACK
6
CONTINUOUS
10
1.057338188976378
20
0.1174066141732283
11
1.0572572440944881
21
0.117340157480315
0
LINE
8
BLACK
6
CONTINUOUS
10
1.0572572440944881
20
0.117340157480315
11
1.0571852755905511
21
0.1173103543307087
0
LINE
8
BLACK
6
CONTINUOUS
10
1.0571852755905511
20
0.1173103543307087
11
1.0569372834645669
21
0.1171542519685039
0
LINE
8
BLACK
6
CONTINUOUS
10
1.0569372834645669
20
0.1171542519685039
11
1.0531877559055118
21
0.1152794881889764
0
LINE
8
BLACK
6
CONTINUOUS
10
1.0531877559055118
20
0.1152794881889764
11
1.052647125984252
21
0.1150725984251968
0
LINE
8
BLACK
6
CONTINUOUS
10
1.052647125984252
20
0.1150725984251968
11
1.0525412992125984
21
0.1150651181102362
0
LINE
8
BLACK
6
CONTINUOUS
10
1.0525412992125984
20
0.1150651181102362
11
1.0524433070866142
21
0.1150244881889764
0
LINE
8
BLACK
6
CONTINUOUS
10
1.0524433070866142
20
0.1150244881889764
11
1.0518672440944881
21
0.1149677559055118
0
LINE
8
BLACK
6
CONTINUOUS
10
1.0518672440944881
20
0.1149677559055118
11
1.0443681889763778
21
0.1149677559055118
0
LINE
8
BLACK
6
CONTINUOUS
10
1.0443681889763778
20
0.1149677559055118
11
1.043792125984252
21
0.1150244881889764
0
LINE
8
BLACK
6
CONTINUOUS
10
1.043792125984252
20
0.1150244881889764
11
1.0436941338582677
21
0.1150650787401575
0
LINE
8
BLACK
6
CONTINUOUS
10
1.0436941338582677
20
0.1150650787401575
11
1.0435882677165353
21
0.1150725984251968
0
LINE
8
BLACK
6
CONTINUOUS
10
1.0435882677165353
20
0.1150725984251968
11
1.0430476771653543
21
0.1152794881889764
0
LINE
8
BLACK
6
CONTINUOUS
10
1.0430476771653543
20
0.1152794881889764
11
1.0392981496062992
21
0.1171542519685039
0
LINE
8
BLACK
6
CONTINUOUS
10
1.0392981496062992
20
0.1171542519685039
11
1.0390501181102363
21
0.1173103543307087
0
LINE
8
BLACK
6
CONTINUOUS
10
1.0390501181102363
20
0.1173103543307087
11
1.0389781889763778
21
0.117340157480315
0
LINE
8
BLACK
6
CONTINUOUS
10
1.0389781889763778
20
0.117340157480315
11
1.0388972047244094
21
0.1174066141732283
0
LINE
8
BLACK
6
CONTINUOUS
10
1.0388972047244094
20
0.1174066141732283
11
1.0388082677165353
21
0.1174625984251969
0
LINE
8
BLACK
6
CONTINUOUS
10
1.0388082677165353
20
0.1174625984251969
11
1.0387570472440946
21
0.1175216535433071
0
LINE
8
BLACK
6
CONTINUOUS
10
1.0387570472440946
20
0.1175216535433071
11
1.0385307086614173
21
0.1177074015748032
0
LINE
8
BLACK
6
CONTINUOUS
10
1.0385307086614173
20
0.1177074015748032
11
1.0366559448818897
21
0.1195822047244094
0
LINE
8
BLACK
6
CONTINUOUS
10
1.0366559448818897
20
0.1195822047244094
11
1.0364701968503938
21
0.1198085433070866
0
LINE
8
BLACK
6
CONTINUOUS
10
1.0364701968503938
20
0.1198085433070866
11
1.0364112204724409
21
0.1198596850393701
0
LINE
8
BLACK
6
CONTINUOUS
10
1.0364112204724409
20
0.1198596850393701
11
1.0363552362204724
21
0.1199486220472441
0
LINE
8
BLACK
6
CONTINUOUS
10
1.0363552362204724
20
0.1199486220472441
11
1.0362887401574803
21
0.1200296456692913
0
LINE
8
BLACK
6
CONTINUOUS
10
1.0362887401574803
20
0.1200296456692913
11
1.0362588976377953
21
0.1201016929133858
0
LINE
8
BLACK
6
CONTINUOUS
10
1.0362588976377953
20
0.1201016929133858
11
1.0361028740157481
21
0.1203495669291339
0
LINE
8
BLACK
6
CONTINUOUS
10
1.0361028740157481
20
0.1203495669291339
11
1.0342281102362205
21
0.124099094488189
0
LINE
8
BLACK
6
CONTINUOUS
10
1.0342281102362205
20
0.124099094488189
11
1.0340212204724408
21
0.1246397244094488
0
LINE
8
BLACK
6
CONTINUOUS
10
1.0340212204724408
20
0.1246397244094488
11
1.0340137007874015
21
0.1247455511811024
0
LINE
8
BLACK
6
CONTINUOUS
10
1.0340137007874015
20
0.1247455511811024
11
1.0339731102362204
21
0.1248435433070866
0
LINE
8
BLACK
6
CONTINUOUS
10
1.0339731102362204
20
0.1248435433070866
11
1.0339163779527558
21
0.1254196062992126
0
LINE
8
BLACK
6
CONTINUOUS
10
1.0339163779527558
20
0.1254196062992126
11
1.0339163779527558
21
0.1572905905511811
0
LINE
8
BLACK
6
CONTINUOUS
10
1.0339163779527558
20
0.1572905905511811
11
1.0339731102362204
21
0.1578666535433071
0
LINE
8
BLACK
6
CONTINUOUS
10
1.0339731102362204
20
0.1578666535433071
11
1.0344140157480315
21
0.158931062992126
0
LINE
8
BLACK
6
CONTINUOUS
10
1.0344140157480315
20
0.158931062992126
11
1.0352286614173227
21
0.1597457086614173
0
LINE
8
BLACK
6
CONTINUOUS
10
1.0352286614173227
20
0.1597457086614173
11
1.0362930708661418
21
0.1601866141732284
0
LINE
8
BLACK
6
CONTINUOUS
10
1.0362930708661418
20
0.1601866141732284
11
1.0374451968503937
21
0.1601866141732284
0
LINE
8
BLACK
6
CONTINUOUS
10
1.0374451968503937
20
0.1601866141732284
11
1.0385096062992125
21
0.1597457086614173
0
LINE
8
BLACK
6
CONTINUOUS
10
0.5313086614173228
20
0.1272611417322835
11
0.5325870866141732
21
0.1259827165354331
0
LINE
8
BLACK
6
CONTINUOUS
10
0.5325870866141732
20
0.1259827165354331
11
0.5325870866141732
21
0.1241747637795276
0
LINE
8
BLACK
6
CONTINUOUS
10
0.5325870866141732
20
0.1241747637795276
11
0.5313086614173228
21
0.1228963385826772
0
LINE
8
BLACK
6
CONTINUOUS
10
0.5313086614173228
20
0.1228963385826772
11
0.5304046850393701
21
0.1227165354330709
0
LINE
8
BLACK
6
CONTINUOUS
10
0.5304046850393701
20
0.1227165354330709
11
0.5175874409448818
21
0.1227165354330709
0
LINE
8
BLACK
6
CONTINUOUS
10
0.5175874409448818
20
0.1227165354330709
11
0.5166834645669292
21
0.1228963385826772
0
LINE
8
BLACK
6
CONTINUOUS
10
0.5166834645669292
20
0.1228963385826772
11
0.5154050393700788
21
0.1241747637795276
0
LINE
8
BLACK
6
CONTINUOUS
10
0.5154050393700788
20
0.1241747637795276
11
0.5154050393700788
21
0.1259827165354331
0
LINE
8
BLACK
6
CONTINUOUS
10
0.5154050393700788
20
0.1259827165354331
11
0.5166834645669292
21
0.1272611417322835
0
LINE
8
BLACK
6
CONTINUOUS
10
0.5166834645669292
20
0.1272611417322835
11
0.5175874409448818
21
0.1274409448818898
0
LINE
8
BLACK
6
CONTINUOUS
10
0.5175874409448818
20
0.1274409448818898
11
0.5304046850393701
21
0.1274409448818898
0
LINE
8
BLACK
6
CONTINUOUS
10
0.5304046850393701
20
0.1274409448818898
11
0.5313086614173228
21
0.1272611417322835
0
LINE
8
BLACK
6
CONTINUOUS
10
0.2252031889763779
20
0.2015918503937008
11
0.2264816141732283
21
0.2003134251968504
0
LINE
8
BLACK
6
CONTINUOUS
10
0.2264816141732283
20
0.2003134251968504
11
0.2264816141732283
21
0.1985054724409449
0
LINE
8
BLACK
6
CONTINUOUS
10
0.2264816141732283
20
0.1985054724409449
11
0.2252031889763779
21
0.1972270472440945
0
LINE
8
BLACK
6
CONTINUOUS
10
0.2252031889763779
20
0.1972270472440945
11
0.2242992125984252
21
0.1970472440944882
0
LINE
8
BLACK
6
CONTINUOUS
10
0.2242992125984252
20
0.1970472440944882
11
0.1876850393700787
21
0.1970472440944882
0
LINE
8
BLACK
6
CONTINUOUS
10
0.1876850393700787
20
0.1970472440944882
11
0.1876850393700787
21
0.1285433070866142
0
LINE
8
BLACK
6
CONTINUOUS
10
0.1876850393700787
20
0.1285433070866142
11
0.1875052362204724
21
0.1276393307086614
0
LINE
8
BLACK
6
CONTINUOUS
10
0.1875052362204724
20
0.1276393307086614
11
0.186226811023622
21
0.126360905511811
0
LINE
8
BLACK
6
CONTINUOUS
10
0.186226811023622
20
0.126360905511811
11
0.1853228346456693
21
0.1261811023622047
0
LINE
8
BLACK
6
CONTINUOUS
10
0.1853228346456693
20
0.1261811023622047
11
0.1282362204724409
21
0.1261811023622047
0
LINE
8
BLACK
6
CONTINUOUS
10
0.1282362204724409
20
0.1261811023622047
11
0.1273322440944882
21
0.126360905511811
0
LINE
8
BLACK
6
CONTINUOUS
10
0.1273322440944882
20
0.126360905511811
11
0.1260538188976378
21
0.1276393307086614
0
LINE
8
BLACK
6
CONTINUOUS
10
0.1260538188976378
20
0.1276393307086614
11
0.1260538188976378
21
0.1294472834645669
0
LINE
8
BLACK
6
CONTINUOUS
10
0.1260538188976378
20
0.1294472834645669
11
0.1273322440944882
21
0.1307257086614173
0
LINE
8
BLACK
6
CONTINUOUS
10
0.1273322440944882
20
0.1307257086614173
11
0.1282362204724409
21
0.1309055118110236
0
LINE
8
BLACK
6
CONTINUOUS
10
0.1282362204724409
20
0.1309055118110236
11
0.1829606299212598
21
0.1309055118110236
0
LINE
8
BLACK
6
CONTINUOUS
10
0.1829606299212598
20
0.1309055118110236
11
0.1829606299212598
21
0.1994094488188976
0
LINE
8
BLACK
6
CONTINUOUS
10
0.1829606299212598
20
0.1994094488188976
11
0.1831404330708661
21
0.2003134251968504
0
LINE
8
BLACK
6
CONTINUOUS
10
0.1831404330708661
20
0.2003134251968504
11
0.1844188582677165
21
0.2015918503937008
0
LINE
8
BLACK
6
CONTINUOUS
10
0.1844188582677165
20
0.2015918503937008
11
0.1853228346456693
21
0.2017716535433071
0
LINE
8
BLACK
6
CONTINUOUS
10
0.1853228346456693
20
0.2017716535433071
11
0.2242992125984252
21
0.2017716535433071
0
LINE
8
BLACK
6
CONTINUOUS
10
0.2242992125984252
20
0.2017716535433071
11
0.2252031889763779
21
0.2015918503937008
0
LINE
8
BLACK
6
CONTINUOUS
10
0.6770602755905512
20
0.181840157480315
11
0.6773495669291338
21
0.181840157480315
0
LINE
8
BLACK
6
CONTINUOUS
10
0.6773495669291338
20
0.181840157480315
11
0.6776196456692913
21
0.1817283070866142
0
LINE
8
BLACK
6
CONTINUOUS
10
0.6776196456692913
20
0.1817283070866142
11
0.6779062992125984
21
0.1816709448818898
0
LINE
8
BLACK
6
CONTINUOUS
10
0.6779062992125984
20
0.1816709448818898
11
0.6781466535433071
21
0.18151
0
LINE
8
BLACK
6
CONTINUOUS
10
0.6781466535433071
20
0.18151
11
0.6784139763779528
21
0.1813992519685039
0
LINE
8
BLACK
6
CONTINUOUS
10
0.6784139763779528
20
0.1813992519685039
11
0.6786206692913386
21
0.1811925590551181
0
LINE
8
BLACK
6
CONTINUOUS
10
0.6786206692913386
20
0.1811925590551181
11
0.6788635826771653
21
0.1810298818897638
0
LINE
8
BLACK
6
CONTINUOUS
10
0.6788635826771653
20
0.1810298818897638
11
0.6792265748031496
21
0.1805866535433071
0
LINE
8
BLACK
6
CONTINUOUS
10
0.6792265748031496
20
0.1805866535433071
11
0.6792286220472441
21
0.1805846062992126
0
LINE
8
BLACK
6
CONTINUOUS
10
0.6792286220472441
20
0.1805846062992126
11
0.6792289763779528
21
0.1805837401574803
0
LINE
8
BLACK
6
CONTINUOUS
10
0.6792289763779528
20
0.1805837401574803
11
0.6792303543307087
21
0.1805820472440945
0
LINE
8
BLACK
6
CONTINUOUS
10
0.6792303543307087
20
0.1805820472440945
11
0.6828176771653544
21
0.1752010236220472
0
LINE
8
BLACK
6
CONTINUOUS
10
0.6828176771653544
20
0.1752010236220472
11
0.686021653543307
21
0.1719970472440945
0
LINE
8
BLACK
6
CONTINUOUS
10
0.686021653543307
20
0.1719970472440945
11
0.6893425984251969
21
0.1703365748031496
0
LINE
8
BLACK
6
CONTINUOUS
10
0.6893425984251969
20
0.1703365748031496
11
0.6898324803149606
21
0.1700282283464567
0
LINE
8
BLACK
6
CONTINUOUS
10
0.6898324803149606
20
0.1700282283464567
11
0.6905873228346456
21
0.1691578346456693
0
LINE
8
BLACK
6
CONTINUOUS
10
0.6905873228346456
20
0.1691578346456693
11
0.6909516535433071
21
0.1680648818897638
0
LINE
8
BLACK
6
CONTINUOUS
10
0.6909516535433071
20
0.1680648818897638
11
0.69087
21
0.1669156692913386
0
LINE
8
BLACK
6
CONTINUOUS
10
0.69087
20
0.1669156692913386
11
0.6903547244094488
21
0.165885157480315
0
LINE
8
BLACK
6
CONTINUOUS
10
0.6903547244094488
20
0.165885157480315
11
0.6894843700787402
21
0.1651303149606299
0
LINE
8
BLACK
6
CONTINUOUS
10
0.6894843700787402
20
0.1651303149606299
11
0.6883913779527558
21
0.1647659842519685
0
LINE
8
BLACK
6
CONTINUOUS
10
0.6883913779527558
20
0.1647659842519685
11
0.6872421653543307
21
0.1648476377952756
0
LINE
8
BLACK
6
CONTINUOUS
10
0.6872421653543307
20
0.1648476377952756
11
0.6867015748031496
21
0.1650545275590551
0
LINE
8
BLACK
6
CONTINUOUS
10
0.6867015748031496
20
0.1650545275590551
11
0.6829520472440944
21
0.1669292913385827
0
LINE
8
BLACK
6
CONTINUOUS
10
0.6829520472440944
20
0.1669292913385827
11
0.6827042125984252
21
0.1670853149606299
0
LINE
8
BLACK
6
CONTINUOUS
10
0.6827042125984252
20
0.1670853149606299
11
0.6826320866141732
21
0.167115157480315
0
LINE
8
BLACK
6
CONTINUOUS
10
0.6826320866141732
20
0.167115157480315
11
0.682550905511811
21
0.1671817716535433
0
LINE
8
BLACK
6
CONTINUOUS
10
0.682550905511811
20
0.1671817716535433
11
0.6824621653543307
21
0.1672376377952756
0
LINE
8
BLACK
6
CONTINUOUS
10
0.6824621653543307
20
0.1672376377952756
11
0.6824110236220472
21
0.1672965748031496
0
LINE
8
BLACK
6
CONTINUOUS
10
0.6824110236220472
20
0.1672965748031496
11
0.6821846456692914
21
0.1674824015748032
0
LINE
8
BLACK
6
CONTINUOUS
10
0.6821846456692914
20
0.1674824015748032
11
0.6797262598425197
21
0.1699407874015748
0
LINE
8
BLACK
6
CONTINUOUS
10
0.6797262598425197
20
0.1699407874015748
11
0.6797262598425197
21
0.1425268110236221
0
LINE
8
BLACK
6
CONTINUOUS
10
0.6797262598425197
20
0.1425268110236221
11
0.6880220866141732
21
0.1425268110236221
0
LINE
8
BLACK
6
CONTINUOUS
10
0.6880220866141732
20
0.1425268110236221
11
0.6885981496062992
21
0.1424700787401575
0
LINE
8
BLACK
6
CONTINUOUS
10
0.6885981496062992
20
0.1424700787401575
11
0.6896625590551181
21
0.1420291732283465
0
LINE
8
BLACK
6
CONTINUOUS
10
0.6896625590551181
20
0.1420291732283465
11
0.6904772047244094
21
0.1412145275590551
0
LINE
8
BLACK
6
CONTINUOUS
10
0.6904772047244094
20
0.1412145275590551
11
0.6909181102362204
21
0.1401501181102362
0
LINE
8
BLACK
6
CONTINUOUS
10
0.6909181102362204
20
0.1401501181102362
11
0.6909181102362204
21
0.1389979921259842
0
LINE
8
BLACK
6
CONTINUOUS
10
0.6909181102362204
20
0.1389979921259842
11
0.6904772047244094
21
0.1379335826771654
0
LINE
8
BLACK
6
CONTINUOUS
10
0.6904772047244094
20
0.1379335826771654
11
0.6896625590551181
21
0.137118937007874
0
LINE
8
BLACK
6
CONTINUOUS
10
0.6896625590551181
20
0.137118937007874
11
0.6885981496062992
21
0.136678031496063
0
LINE
8
BLACK
6
CONTINUOUS
10
0.6885981496062992
20
0.136678031496063
11
0.6880220866141732
21
0.1366212992125984
0
LINE
8
BLACK
6
CONTINUOUS
10
0.6880220866141732
20
0.1366212992125984
11
0.6655249212598425
21
0.1366212992125984
0
LINE
8
BLACK
6
CONTINUOUS
10
0.6655249212598425
20
0.1366212992125984
11
0.6649488582677165
21
0.136678031496063
0
LINE
8
BLACK
6
CONTINUOUS
10
0.6649488582677165
20
0.136678031496063
11
0.6638844488188976
21
0.137118937007874
0
LINE
8
BLACK
6
CONTINUOUS
10
0.6638844488188976
20
0.137118937007874
11
0.6630698031496063
21
0.1379335826771654
0
LINE
8
BLACK
6
CONTINUOUS
10
0.6630698031496063
20
0.1379335826771654
11
0.6626288976377953
21
0.1389979921259842
0
LINE
8
BLACK
6
CONTINUOUS
10
0.6626288976377953
20
0.1389979921259842
11
0.6626288976377953
21
0.1401501181102362
0
LINE
8
BLACK
6
CONTINUOUS
10
0.6626288976377953
20
0.1401501181102362
11
0.6630698031496063
21
0.1412145275590551
0
LINE
8
BLACK
6
CONTINUOUS
10
0.6630698031496063
20
0.1412145275590551
11
0.6638844488188976
21
0.1420291732283465
0
LINE
8
BLACK
6
CONTINUOUS
10
0.6638844488188976
20
0.1420291732283465
11
0.6649488582677165
21
0.1424700787401575
0
LINE
8
BLACK
6
CONTINUOUS
10
0.6649488582677165
20
0.1424700787401575
11
0.6655249212598425
21
0.1425268110236221
0
LINE
8
BLACK
6
CONTINUOUS
10
0.6655249212598425
20
0.1425268110236221
11
0.6738207480314961
21
0.1425268110236221
0
LINE
8
BLACK
6
CONTINUOUS
10
0.6738207480314961
20
0.1425268110236221
11
0.6738207480314961
21
0.1789441338582677
0
LINE
8
BLACK
6
CONTINUOUS
10
0.6738207480314961
20
0.1789441338582677
11
0.6738209448818897
21
0.1789462204724409
0
LINE
8
BLACK
6
CONTINUOUS
10
0.6738209448818897
20
0.1789462204724409
11
0.6738207480314961
21
0.1789472440944882
0
LINE
8
BLACK
6
CONTINUOUS
10
0.6738207480314961
20
0.1789472440944882
11
0.6738213385826771
21
0.1789502755905512
0
LINE
8
BLACK
6
CONTINUOUS
10
0.6738213385826771
20
0.1789502755905512
11
0.6738774803149606
21
0.1795201968503937
0
LINE
8
BLACK
6
CONTINUOUS
10
0.6738774803149606
20
0.1795201968503937
11
0.6739893307086614
21
0.1797903149606299
0
LINE
8
BLACK
6
CONTINUOUS
10
0.6739893307086614
20
0.1797903149606299
11
0.6740466929133858
21
0.1800769291338583
0
LINE
8
BLACK
6
CONTINUOUS
10
0.6740466929133858
20
0.1800769291338583
11
0.6742076377952756
21
0.1803173228346457
0
LINE
8
BLACK
6
CONTINUOUS
10
0.6742076377952756
20
0.1803173228346457
11
0.6743183858267716
21
0.1805846062992126
0
LINE
8
BLACK
6
CONTINUOUS
10
0.6743183858267716
20
0.1805846062992126
11
0.6745250787401574
21
0.1807913385826772
0
LINE
8
BLACK
6
CONTINUOUS
10
0.6745250787401574
20
0.1807913385826772
11
0.6746877559055118
21
0.1810342125984252
0
LINE
8
BLACK
6
CONTINUOUS
10
0.6746877559055118
20
0.1810342125984252
11
0.6749284645669291
21
0.1811947244094488
0
LINE
8
BLACK
6
CONTINUOUS
10
0.6749284645669291
20
0.1811947244094488
11
0.675133031496063
21
0.1813992519685039
0
LINE
8
BLACK
6
CONTINUOUS
10
0.675133031496063
20
0.1813992519685039
11
0.6754031102362205
21
0.1815111417322835
0
LINE
8
BLACK
6
CONTINUOUS
10
0.6754031102362205
20
0.1815111417322835
11
0.6756463779527558
21
0.1816733070866142
0
LINE
8
BLACK
6
CONTINUOUS
10
0.6756463779527558
20
0.1816733070866142
11
0.6759301574803149
21
0.1817294488188976
0
LINE
8
BLACK
6
CONTINUOUS
10
0.6759301574803149
20
0.1817294488188976
11
0.6761974409448819
21
0.181840157480315
0
LINE
8
BLACK
6
CONTINUOUS
10
0.6761974409448819
20
0.181840157480315
11
0.676489842519685
21
0.181840157480315
0
LINE
8
BLACK
6
CONTINUOUS
10
0.676489842519685
20
0.181840157480315
11
0.6767766141732283
21
0.1818968897637795
0
LINE
8
BLACK
6
CONTINUOUS
10
0.6767766141732283
20
0.1818968897637795
11
0.6770602755905512
21
0.181840157480315
0
LINE
8
BLACK
6
CONTINUOUS
10
0.7459055511811024
20
0.1813992519685039
11
0.7467201968503937
21
0.1805846062992126
0
LINE
8
BLACK
6
CONTINUOUS
10
0.7467201968503937
20
0.1805846062992126
11
0.7471611023622047
21
0.1795201968503937
0
LINE
8
BLACK
6
CONTINUOUS
10
0.7471611023622047
20
0.1795201968503937
11
0.7472178346456693
21
0.1789441338582677
0
LINE
8
BLACK
6
CONTINUOUS
10
0.7472178346456693
20
0.1789441338582677
11
0.7472178346456693
21
0.1513018503937008
0
LINE
8
BLACK
6
CONTINUOUS
10
0.7472178346456693
20
0.1513018503937008
11
0.7487206299212599
21
0.1467934251968504
0
LINE
8
BLACK
6
CONTINUOUS
10
0.7487206299212599
20
0.1467934251968504
11
0.7514844094488189
21
0.1440296062992126
0
LINE
8
BLACK
6
CONTINUOUS
10
0.7514844094488189
20
0.1440296062992126
11
0.7559927952755905
21
0.1425268110236221
0
LINE
8
BLACK
6
CONTINUOUS
10
0.7559927952755905
20
0.1425268110236221
11
0.7592631889763779
21
0.1425268110236221
0
LINE
8
BLACK
6
CONTINUOUS
10
0.7592631889763779
20
0.1425268110236221
11
0.7598392519685039
21
0.1424700787401575
0
LINE
8
BLACK
6
CONTINUOUS
10
0.7598392519685039
20
0.1424700787401575
11
0.7609036614173228
21
0.1420291732283465
0
LINE
8
BLACK
6
CONTINUOUS
10
0.7609036614173228
20
0.1420291732283465
11
0.7617183070866141
21
0.1412145275590551
0
LINE
8
BLACK
6
CONTINUOUS
10
0.7617183070866141
20
0.1412145275590551
11
0.7621592125984252
21
0.1401501181102362
0
LINE
8
BLACK
6
CONTINUOUS
10
0.7621592125984252
20
0.1401501181102362
11
0.7621592125984252
21
0.1389979921259842
0
LINE
8
BLACK
6
CONTINUOUS
10
0.7621592125984252
20
0.1389979921259842
11
0.7617183070866141
21
0.1379335826771654
0
LINE
8
BLACK
6
CONTINUOUS
10
0.7617183070866141
20
0.1379335826771654
11
0.7609036614173228
21
0.137118937007874
0
LINE
8
BLACK
6
CONTINUOUS
10
0.7609036614173228
20
0.137118937007874
11
0.7598392519685039
21
0.136678031496063
0
LINE
8
BLACK
6
CONTINUOUS
10
0.7598392519685039
20
0.136678031496063
11
0.7592631889763779
21
0.1366212992125984
0
LINE
8
BLACK
6
CONTINUOUS
10
0.7592631889763779
20
0.1366212992125984
11
0.7555136614173228
21
0.1366212992125984
0
LINE
8
BLACK
6
CONTINUOUS
10
0.7555136614173228
20
0.1366212992125984
11
0.7552220472440945
21
0.1366500393700787
0
LINE
8
BLACK
6
CONTINUOUS
10
0.7552220472440945
20
0.1366500393700787
11
0.7551443307086614
21
0.1366444881889764
0
LINE
8
BLACK
6
CONTINUOUS
10
0.7551443307086614
20
0.1366444881889764
11
0.7550420472440945
21
0.1366677559055118
0
LINE
8
BLACK
6
CONTINUOUS
10
0.7550420472440945
20
0.1366677559055118
11
0.7549375984251968
21
0.136678031496063
0
LINE
8
BLACK
6
CONTINUOUS
10
0.7549375984251968
20
0.136678031496063
11
0.7548655118110236
21
0.1367079133858268
0
LINE
8
BLACK
6
CONTINUOUS
10
0.7548655118110236
20
0.1367079133858268
11
0.7545798818897638
21
0.1367728346456693
0
LINE
8
BLACK
6
CONTINUOUS
10
0.7545798818897638
20
0.1367728346456693
11
0.7489556299212599
21
0.1386475984251969
0
LINE
8
BLACK
6
CONTINUOUS
10
0.7489556299212599
20
0.1386475984251969
11
0.7484270472440945
21
0.1388835826771654
0
LINE
8
BLACK
6
CONTINUOUS
10
0.7484270472440945
20
0.1388835826771654
11
0.7483469291338583
21
0.1389530708661417
0
LINE
8
BLACK
6
CONTINUOUS
10
0.7483469291338583
20
0.1389530708661417
11
0.7482488976377952
21
0.1389936614173228
0
LINE
8
BLACK
6
CONTINUOUS
10
0.7482488976377952
20
0.1389936614173228
11
0.7478014566929133
21
0.139360905511811
0
LINE
8
BLACK
6
CONTINUOUS
10
0.7478014566929133
20
0.139360905511811
11
0.7440519291338582
21
0.1431104724409449
0
LINE
8
BLACK
6
CONTINUOUS
10
0.7440519291338582
20
0.1431104724409449
11
0.74368468503937
21
0.1435579527559055
0
LINE
8
BLACK
6
CONTINUOUS
10
0.74368468503937
20
0.1435579527559055
11
0.7436440551181103
21
0.1436560236220472
0
LINE
8
BLACK
6
CONTINUOUS
10
0.7436440551181103
20
0.1436560236220472
11
0.7435746062992126
21
0.1437361023622047
0
LINE
8
BLACK
6
CONTINUOUS
10
0.7435746062992126
20
0.1437361023622047
11
0.7433386220472441
21
0.1442646456692913
0
LINE
8
BLACK
6
CONTINUOUS
10
0.7433386220472441
20
0.1442646456692913
11
0.7414638582677165
21
0.149888937007874
0
LINE
8
BLACK
6
CONTINUOUS
10
0.7414638582677165
20
0.149888937007874
11
0.7413988976377952
21
0.1501745275590551
0
LINE
8
BLACK
6
CONTINUOUS
10
0.7413988976377952
20
0.1501745275590551
11
0.7413690551181102
21
0.1502466141732283
0
LINE
8
BLACK
6
CONTINUOUS
10
0.7413690551181102
20
0.1502466141732283
11
0.7413587401574803
21
0.1503511417322834
0
LINE
8
BLACK
6
CONTINUOUS
10
0.7413587401574803
20
0.1503511417322834
11
0.7413355118110236
21
0.1504533858267716
0
LINE
8
BLACK
6
CONTINUOUS
10
0.7413355118110236
20
0.1504533858267716
11
0.7413410236220472
21
0.1505311417322835
0
LINE
8
BLACK
6
CONTINUOUS
10
0.7413410236220472
20
0.1505311417322835
11
0.7413123228346457
21
0.1508226771653543
0
LINE
8
BLACK
6
CONTINUOUS
10
0.7413123228346457
20
0.1508226771653543
11
0.7413123228346457
21
0.1789441338582677
0
LINE
8
BLACK
6
CONTINUOUS
10
0.7413123228346457
20
0.1789441338582677
11
0.7413690551181102
21
0.1795201968503937
0
LINE
8
BLACK
6
CONTINUOUS
10
0.7413690551181102
20
0.1795201968503937
11
0.7418099606299212
21
0.1805846062992126
0
LINE
8
BLACK
6
CONTINUOUS
10
0.7418099606299212
20
0.1805846062992126
11
0.7426246062992126
21
0.1813992519685039
0
LINE
8
BLACK
6
CONTINUOUS
10
0.7426246062992126
20
0.1813992519685039
11
0.7436890157480315
21
0.181840157480315
0
LINE
8
BLACK
6
CONTINUOUS
10
0.7436890157480315
20
0.181840157480315
11
0.7448411417322834
21
0.181840157480315
0
LINE
8
BLACK
6
CONTINUOUS
10
0.7448411417322834
20
0.181840157480315
11
0.7459055511811024
21
0.1813992519685039
0
LINE
8
BLACK
6
CONTINUOUS
10
0.7260934645669291
20
0.181840157480315
11
0.7271578740157481
21
0.1813992519685039
0
LINE
8
BLACK
6
CONTINUOUS
10
0.7271578740157481
20
0.1813992519685039
11
0.7279725196850394
21
0.1805846062992126
0
LINE
8
BLACK
6
CONTINUOUS
10
0.7279725196850394
20
0.1805846062992126
11
0.7284134251968504
21
0.1795201968503937
0
LINE
8
BLACK
6
CONTINUOUS
10
0.7284134251968504
20
0.1795201968503937
11
0.728470157480315
21
0.1789441338582677
0
LINE
8
BLACK
6
CONTINUOUS
10
0.728470157480315
20
0.1789441338582677
11
0.728470157480315
21
0.1395740551181102
0
LINE
8
BLACK
6
CONTINUOUS
10
0.728470157480315
20
0.1395740551181102
11
0.7284134251968504
21
0.1389979921259842
0
LINE
8
BLACK
6
CONTINUOUS
10
0.7284134251968504
20
0.1389979921259842
11
0.7279725196850394
21
0.1379335826771654
0
LINE
8
BLACK
6
CONTINUOUS
10
0.7279725196850394
20
0.1379335826771654
11
0.7271578740157481
21
0.137118937007874
0
LINE
8
BLACK
6
CONTINUOUS
10
0.7271578740157481
20
0.137118937007874
11
0.7260934645669291
21
0.136678031496063
0
LINE
8
BLACK
6
CONTINUOUS
10
0.7260934645669291
20
0.136678031496063
11
0.7249413385826772
21
0.136678031496063
0
LINE
8
BLACK
6
CONTINUOUS
10
0.7249413385826772
20
0.136678031496063
11
0.7238769291338583
21
0.137118937007874
0
LINE
8
BLACK
6
CONTINUOUS
10
0.7238769291338583
20
0.137118937007874
11
0.7230622834645669
21
0.1379335826771654
0
LINE
8
BLACK
6
CONTINUOUS
10
0.7230622834645669
20
0.1379335826771654
11
0.7226213779527559
21
0.1389979921259842
0
LINE
8
BLACK
6
CONTINUOUS
10
0.7226213779527559
20
0.1389979921259842
11
0.7225646456692913
21
0.1395740551181102
0
LINE
8
BLACK
6
CONTINUOUS
10
0.7225646456692913
20
0.1395740551181102
11
0.7225646456692913
21
0.1553689763779527
0
LINE
8
BLACK
6
CONTINUOUS
10
0.7225646456692913
20
0.1553689763779527
11
0.7105192913385827
21
0.1553689763779527
0
LINE
8
BLACK
6
CONTINUOUS
10
0.7105192913385827
20
0.1553689763779527
11
0.7099432283464566
21
0.1554257086614173
0
LINE
8
BLACK
6
CONTINUOUS
10
0.7099432283464566
20
0.1554257086614173
11
0.7098452362204725
21
0.1554662992125984
0
LINE
8
BLACK
6
CONTINUOUS
10
0.7098452362204725
20
0.1554662992125984
11
0.7097393700787401
21
0.1554738188976378
0
LINE
8
BLACK
6
CONTINUOUS
10
0.7097393700787401
20
0.1554738188976378
11
0.7091987795275591
21
0.1556807086614173
0
LINE
8
BLACK
6
CONTINUOUS
10
0.7091987795275591
20
0.1556807086614173
11
0.7054492519685039
21
0.1575554724409449
0
LINE
8
BLACK
6
CONTINUOUS
10
0.7054492519685039
20
0.1575554724409449
11
0.7052012204724409
21
0.1577115748031496
0
LINE
8
BLACK
6
CONTINUOUS
10
0.7052012204724409
20
0.1577115748031496
11
0.7051292913385827
21
0.1577413779527559
0
LINE
8
BLACK
6
CONTINUOUS
10
0.7051292913385827
20
0.1577413779527559
11
0.7050483070866141
21
0.157807874015748
0
LINE
8
BLACK
6
CONTINUOUS
10
0.7050483070866141
20
0.157807874015748
11
0.7049593700787401
21
0.1578638188976378
0
LINE
8
BLACK
6
CONTINUOUS
10
0.7049593700787401
20
0.1578638188976378
11
0.704908188976378
21
0.1579228346456693
0
LINE
8
BLACK
6
CONTINUOUS
10
0.704908188976378
20
0.1579228346456693
11
0.7046818503937008
21
0.1581085826771653
0
LINE
8
BLACK
6
CONTINUOUS
10
0.7046818503937008
20
0.1581085826771653
11
0.7028070866141732
21
0.1599833464566929
0
LINE
8
BLACK
6
CONTINUOUS
10
0.7028070866141732
20
0.1599833464566929
11
0.7026212992125984
21
0.1602097244094488
0
LINE
8
BLACK
6
CONTINUOUS
10
0.7026212992125984
20
0.1602097244094488
11
0.7025623228346457
21
0.1602608661417323
0
LINE
8
BLACK
6
CONTINUOUS
10
0.7025623228346457
20
0.1602608661417323
11
0.7025063385826772
21
0.160349842519685
0
LINE
8
BLACK
6
CONTINUOUS
10
0.7025063385826772
20
0.160349842519685
11
0.7024398818897638
21
0.1604307874015748
0
LINE
8
BLACK
6
CONTINUOUS
10
0.7024398818897638
20
0.1604307874015748
11
0.7024100393700787
21
0.1605027559055118
0
LINE
8
BLACK
6
CONTINUOUS
10
0.7024100393700787
20
0.1605027559055118
11
0.7022539763779527
21
0.1607507480314961
0
LINE
8
BLACK
6
CONTINUOUS
10
0.7022539763779527
20
0.1607507480314961
11
0.7003792125984252
21
0.1645002755905512
0
LINE
8
BLACK
6
CONTINUOUS
10
0.7003792125984252
20
0.1645002755905512
11
0.7001723228346457
21
0.165040905511811
0
LINE
8
BLACK
6
CONTINUOUS
10
0.7001723228346457
20
0.165040905511811
11
0.7001648031496063
21
0.1651467322834646
0
LINE
8
BLACK
6
CONTINUOUS
10
0.7001648031496063
20
0.1651467322834646
11
0.7001242125984252
21
0.1652447244094488
0
LINE
8
BLACK
6
CONTINUOUS
10
0.7001242125984252
20
0.1652447244094488
11
0.7000674803149606
21
0.1658207874015748
0
LINE
8
BLACK
6
CONTINUOUS
10
0.7000674803149606
20
0.1658207874015748
11
0.7000674803149606
21
0.1714450787401575
0
LINE
8
BLACK
6
CONTINUOUS
10
0.7000674803149606
20
0.1714450787401575
11
0.7001242125984252
21
0.1720211417322835
0
LINE
8
BLACK
6
CONTINUOUS
10
0.7001242125984252
20
0.1720211417322835
11
0.7001648031496063
21
0.1721191732283464
0
LINE
8
BLACK
6
CONTINUOUS
10
0.7001648031496063
20
0.1721191732283464
11
0.7001723228346457
21
0.1722249606299213
0
LINE
8
BLACK
6
CONTINUOUS
10
0.7001723228346457
20
0.1722249606299213
11
0.7003792125984252
21
0.1727655905511811
0
LINE
8
BLACK
6
CONTINUOUS
10
0.7003792125984252
20
0.1727655905511811
11
0.7022539763779527
21
0.1765151181102362
0
LINE
8
BLACK
6
CONTINUOUS
10
0.7022539763779527
20
0.1765151181102362
11
0.7024100393700787
21
0.1767631496062992
0
LINE
8
BLACK
6
CONTINUOUS
10
0.7024100393700787
20
0.1767631496062992
11
0.7024398818897638
21
0.1768350787401575
0
LINE
8
BLACK
6
CONTINUOUS
10
0.7024398818897638
20
0.1768350787401575
11
0.7025063385826772
21
0.176916062992126
0
LINE
8
BLACK
6
CONTINUOUS
10
0.7025063385826772
20
0.176916062992126
11
0.7025623228346457
21
0.177005
0
LINE
8
BLACK
6
CONTINUOUS
10
0.7025623228346457
20
0.177005
11
0.7026212992125984
21
0.1770561811023622
0
LINE
8
BLACK
6
CONTINUOUS
10
0.7026212992125984
20
0.1770561811023622
11
0.7028070866141732
21
0.1772825196850394
0
LINE
8
BLACK
6
CONTINUOUS
10
0.7028070866141732
20
0.1772825196850394
11
0.7046818503937008
21
0.1791572834645669
0
LINE
8
BLACK
6
CONTINUOUS
10
0.7046818503937008
20
0.1791572834645669
11
0.704908188976378
21
0.1793430708661417
0
LINE
8
BLACK
6
CONTINUOUS
10
0.704908188976378
20
0.1793430708661417
11
0.7049593700787401
21
0.1794020472440945
0
LINE
8
BLACK
6
CONTINUOUS
10
0.7049593700787401
20
0.1794020472440945
11
0.7050483070866141
21
0.179458031496063
0
LINE
8
BLACK
6
CONTINUOUS
10
0.7050483070866141
20
0.179458031496063
11
0.7051292913385827
21
0.1795244881889764
0
LINE
8
BLACK
6
CONTINUOUS
10
0.7051292913385827
20
0.1795244881889764
11
0.7052012204724409
21
0.1795543307086614
0
LINE
8
BLACK
6
CONTINUOUS
10
0.7052012204724409
20
0.1795543307086614
11
0.7054492519685039
21
0.1797103937007874
0
LINE
8
BLACK
6
CONTINUOUS
10
0.7054492519685039
20
0.1797103937007874
11
0.7091987795275591
21
0.181585157480315
0
LINE
8
BLACK
6
CONTINUOUS
10
0.7091987795275591
20
0.181585157480315
11
0.7097393700787401
21
0.1817920472440945
0
LINE
8
BLACK
6
CONTINUOUS
10
0.7097393700787401
20
0.1817920472440945
11
0.7098452362204725
21
0.1817996062992126
0
LINE
8
BLACK
6
CONTINUOUS
10
0.7098452362204725
20
0.1817996062992126
11
0.7099432283464566
21
0.181840157480315
0
LINE
8
BLACK
6
CONTINUOUS
10
0.7099432283464566
20
0.181840157480315
11
0.7105192913385827
21
0.1818968897637795
0
LINE
8
BLACK
6
CONTINUOUS
10
0.7105192913385827
20
0.1818968897637795
11
0.7255174015748032
21
0.1818968897637795
0
LINE
8
BLACK
6
CONTINUOUS
10
0.7255174015748032
20
0.1818968897637795
11
0.7260934645669291
21
0.181840157480315
0
LINE
8
BLACK
6
CONTINUOUS
10
0.7085188582677165
20
0.1746426377952756
11
0.7073217322834645
21
0.1734455118110236
0
LINE
8
BLACK
6
CONTINUOUS
10
0.7073217322834645
20
0.1734455118110236
11
0.7059729921259842
21
0.170748031496063
0
LINE
8
BLACK
6
CONTINUOUS
10
0.7059729921259842
20
0.170748031496063
11
0.7059729921259842
21
0.1665178346456693
0
LINE
8
BLACK
6
CONTINUOUS
10
0.7059729921259842
20
0.1665178346456693
11
0.7073217322834645
21
0.1638203543307087
0
LINE
8
BLACK
6
CONTINUOUS
10
0.7073217322834645
20
0.1638203543307087
11
0.7085188582677165
21
0.1626232283464567
0
LINE
8
BLACK
6
CONTINUOUS
10
0.7085188582677165
20
0.1626232283464567
11
0.7112163385826772
21
0.1612744881889764
0
LINE
8
BLACK
6
CONTINUOUS
10
0.7112163385826772
20
0.1612744881889764
11
0.7225646456692913
21
0.1612744881889764
0
LINE
8
BLACK
6
CONTINUOUS
10
0.7225646456692913
20
0.1612744881889764
11
0.7225646456692913
21
0.1759913779527559
0
LINE
8
BLACK
6
CONTINUOUS
10
0.7225646456692913
20
0.1759913779527559
11
0.7112163385826772
21
0.1759913779527559
0
LINE
8
BLACK
6
CONTINUOUS
10
0.7112163385826772
20
0.1759913779527559
11
0.7085188582677165
21
0.1746426377952756
0
LINE
8
BLACK
6
CONTINUOUS
10
0.5572611417322835
20
0.2003134251968504
11
0.5574409448818898
21
0.1994094488188976
0
LINE
8
BLACK
6
CONTINUOUS
10
0.5574409448818898
20
0.1994094488188976
11
0.5574409448818898
21
0.1651574803149606
0
LINE
8
BLACK
6
CONTINUOUS
10
0.5574409448818898
20
0.1651574803149606
11
0.6125590551181103
21
0.1651574803149606
0
LINE
8
BLACK
6
CONTINUOUS
10
0.6125590551181103
20
0.1651574803149606
11
0.613463031496063
21
0.1649776771653543
0
LINE
8
BLACK
6
CONTINUOUS
10
0.613463031496063
20
0.1649776771653543
11
0.6147414566929134
21
0.1636992519685039
0
LINE
8
BLACK
6
CONTINUOUS
10
0.6147414566929134
20
0.1636992519685039
11
0.6147414566929134
21
0.1618912992125984
0
LINE
8
BLACK
6
CONTINUOUS
10
0.6147414566929134
20
0.1618912992125984
11
0.613463031496063
21
0.160612874015748
0
LINE
8
BLACK
6
CONTINUOUS
10
0.613463031496063
20
0.160612874015748
11
0.6125590551181103
21
0.1604330708661417
0
LINE
8
BLACK
6
CONTINUOUS
10
0.6125590551181103
20
0.1604330708661417
11
0.5550787401574803
21
0.1604330708661417
0
LINE
8
BLACK
6
CONTINUOUS
10
0.5550787401574803
20
0.1604330708661417
11
0.5541747637795276
21
0.160612874015748
0
LINE
8
BLACK
6
CONTINUOUS
10
0.5541747637795276
20
0.160612874015748
11
0.5528963385826772
21
0.1618912992125984
0
LINE
8
BLACK
6
CONTINUOUS
10
0.5528963385826772
20
0.1618912992125984
11
0.5527165354330709
21
0.1627952755905512
0
LINE
8
BLACK
6
CONTINUOUS
10
0.5527165354330709
20
0.1627952755905512
11
0.5527165354330709
21
0.1994094488188976
0
LINE
8
BLACK
6
CONTINUOUS
10
0.5527165354330709
20
0.1994094488188976
11
0.5528963385826772
21
0.2003134251968504
0
LINE
8
BLACK
6
CONTINUOUS
10
0.5528963385826772
20
0.2003134251968504
11
0.5541747637795276
21
0.2015918503937008
0
LINE
8
BLACK
6
CONTINUOUS
10
0.5541747637795276
20
0.2015918503937008
11
0.5559827165354331
21
0.2015918503937008
0
LINE
8
BLACK
6
CONTINUOUS
10
0.5559827165354331
20
0.2015918503937008
11
0.5572611417322835
21
0.2003134251968504
0
LINE
8
BLACK
6
CONTINUOUS
10
1.0891902755905511
20
0.3217701181102362
11
1.0893700787401575
21
0.3208661417322834
0
LINE
8
BLACK
6
CONTINUOUS
10
1.0893700787401575
20
0.3208661417322834
11
1.0893700787401575
21
0.2523622047244095
0
LINE
8
BLACK
6
CONTINUOUS
10
1.0893700787401575
20
0.2523622047244095
11
1.0891902755905511
21
0.2514582283464567
0
LINE
8
BLACK
6
CONTINUOUS
10
1.0891902755905511
20
0.2514582283464567
11
1.0879118503937009
21
0.2501798031496063
0
LINE
8
BLACK
6
CONTINUOUS
10
1.0879118503937009
20
0.2501798031496063
11
1.0861038976377952
21
0.2501798031496063
0
LINE
8
BLACK
6
CONTINUOUS
10
1.0861038976377952
20
0.2501798031496063
11
1.084825472440945
21
0.2514582283464567
0
LINE
8
BLACK
6
CONTINUOUS
10
1.084825472440945
20
0.2514582283464567
11
1.0846456692913387
21
0.2523622047244095
0
LINE
8
BLACK
6
CONTINUOUS
10
1.0846456692913387
20
0.2523622047244095
11
1.0846456692913387
21
0.3208661417322834
0
LINE
8
BLACK
6
CONTINUOUS
10
1.0846456692913387
20
0.3208661417322834
11
1.084825472440945
21
0.3217701181102362
0
LINE
8
BLACK
6
CONTINUOUS
10
1.084825472440945
20
0.3217701181102362
11
1.0861038976377952
21
0.3230485433070866
0
LINE
8
BLACK
6
CONTINUOUS
10
1.0861038976377952
20
0.3230485433070866
11
1.0879118503937009
21
0.3230485433070866
0
LINE
8
BLACK
6
CONTINUOUS
10
1.0879118503937009
20
0.3230485433070866
11
1.0891902755905511
21
0.3217701181102362
0
LINE
8
BLACK
6
CONTINUOUS
10
0.9781666535433071
20
0.3217701181102362
11
0.9783464566929133
21
0.3208661417322834
0
LINE
8
BLACK
6
CONTINUOUS
10
0.9783464566929133
20
0.3208661417322834
11
0.9783464566929133
21
0.2696850393700788
0
LINE
8
BLACK
6
CONTINUOUS
10
0.9783464566929133
20
0.2696850393700788
11
0.9781666535433071
21
0.268781062992126
0
LINE
8
BLACK
6
CONTINUOUS
10
0.9781666535433071
20
0.268781062992126
11
0.9768882283464567
21
0.2675026377952756
0
LINE
8
BLACK
6
CONTINUOUS
10
0.9768882283464567
20
0.2675026377952756
11
0.9750802755905511
21
0.2675026377952756
0
LINE
8
BLACK
6
CONTINUOUS
10
0.9750802755905511
20
0.2675026377952756
11
0.9738018503937008
21
0.268781062992126
0
LINE
8
BLACK
6
CONTINUOUS
10
0.9738018503937008
20
0.268781062992126
11
0.9736220472440945
21
0.2696850393700788
0
LINE
8
BLACK
6
CONTINUOUS
10
0.9736220472440945
20
0.2696850393700788
11
0.9736220472440945
21
0.3208661417322834
0
LINE
8
BLACK
6
CONTINUOUS
10
0.9736220472440945
20
0.3208661417322834
11
0.9738018503937008
21
0.3217701181102362
0
LINE
8
BLACK
6
CONTINUOUS
10
0.9738018503937008
20
0.3217701181102362
11
0.9750802755905511
21
0.3230485433070866
0
LINE
8
BLACK
6
CONTINUOUS
10
0.9750802755905511
20
0.3230485433070866
11
0.9768882283464567
21
0.3230485433070866
0
LINE
8
BLACK
6
CONTINUOUS
10
0.9768882283464567
20
0.3230485433070866
11
0.9781666535433071
21
0.3217701181102362
0
LINE
8
BLACK
6
CONTINUOUS
10
1.1111401968503938
20
0.3761981496062992
11
1.1124186220472441
21
0.3749197244094488
0
LINE
8
BLACK
6
CONTINUOUS
10
1.1124186220472441
20
0.3749197244094488
11
1.1125984251968504
21
0.3740157480314961
0
LINE
8
BLACK
6
CONTINUOUS
10
1.1125984251968504
20
0.3740157480314961
11
1.1125984251968504
21
0.2165354330708661
0
LINE
8
BLACK
6
CONTINUOUS
10
1.1125984251968504
20
0.2165354330708661
11
1.1124186220472441
21
0.2156314566929134
0
LINE
8
BLACK
6
CONTINUOUS
10
1.1124186220472441
20
0.2156314566929134
11
1.1111401968503938
21
0.214353031496063
0
LINE
8
BLACK
6
CONTINUOUS
10
1.1111401968503938
20
0.214353031496063
11
1.110236220472441
21
0.2141732283464567
0
LINE
8
BLACK
6
CONTINUOUS
10
1.110236220472441
20
0.2141732283464567
11
0.952755905511811
21
0.2141732283464567
0
LINE
8
BLACK
6
CONTINUOUS
10
0.952755905511811
20
0.2141732283464567
11
0.9518519291338583
21
0.214353031496063
0
LINE
8
BLACK
6
CONTINUOUS
10
0.9518519291338583
20
0.214353031496063
11
0.9505735039370079
21
0.2156314566929134
0
LINE
8
BLACK
6
CONTINUOUS
10
0.9505735039370079
20
0.2156314566929134
11
0.9503937007874016
21
0.2165354330708661
0
LINE
8
BLACK
6
CONTINUOUS
10
0.9503937007874016
20
0.2165354330708661
11
0.9503937007874016
21
0.3740157480314961
0
LINE
8
BLACK
6
CONTINUOUS
10
0.9503937007874016
20
0.3740157480314961
11
0.9505735039370079
21
0.3749197244094488
0
LINE
8
BLACK
6
CONTINUOUS
10
0.9505735039370079
20
0.3749197244094488
11
0.9518519291338583
21
0.3761981496062992
0
LINE
8
BLACK
6
CONTINUOUS
10
0.9518519291338583
20
0.3761981496062992
11
0.952755905511811
21
0.3763779527559055
0
LINE
8
BLACK
6
CONTINUOUS
10
0.952755905511811
20
0.3763779527559055
11
1.110236220472441
21
0.3763779527559055
0
LINE
8
BLACK
6
CONTINUOUS
10
1.110236220472441
20
0.3763779527559055
11
1.1111401968503938
21
0.3761981496062992
0
LINE
8
BLACK
6
CONTINUOUS
10
0.9551181102362204
20
0.3716535433070866
11
0.9551181102362204
21
0.2188976377952756
0
LINE
8
BLACK
6
CONTINUOUS
10
0.9551181102362204
20
0.2188976377952756
11
1.1078740157480316
21
0.2188976377952756
0
LINE
8
BLACK
6
CONTINUOUS
10
1.1078740157480316
20
0.2188976377952756
11
1.1078740157480316
21
0.3716535433070866
0
LINE
8
BLACK
6
CONTINUOUS
10
1.1078740157480316
20
0.3716535433070866
11
0.9551181102362204
21
0.3716535433070866
0
LINE
8
BLACK
6
CONTINUOUS
10
1.0522601968503937
20
0.4219312598425197
11
1.0658323622047243
21
0.4189438188976378
0
LINE
8
BLACK
6
CONTINUOUS
10
1.0658323622047243
20
0.4189438188976378
11
1.075317125984252
21
0.415748031496063
0
LINE
8
BLACK
6
CONTINUOUS
10
1.075317125984252
20
0.415748031496063
11
1.1496062992125984
21
0.415748031496063
0
LINE
8
BLACK
6
CONTINUOUS
10
1.1496062992125984
20
0.415748031496063
11
1.1505102755905512
21
0.4155682283464567
0
LINE
8
BLACK
6
CONTINUOUS
10
1.1505102755905512
20
0.4155682283464567
11
1.1517887007874015
21
0.4142898031496063
0
LINE
8
BLACK
6
CONTINUOUS
10
1.1517887007874015
20
0.4142898031496063
11
1.1519685039370078
21
0.4133858267716535
0
LINE
8
BLACK
6
CONTINUOUS
10
1.1519685039370078
20
0.4133858267716535
11
1.1519685039370078
21
0.3391568503937008
0
LINE
8
BLACK
6
CONTINUOUS
10
1.1519685039370078
20
0.3391568503937008
11
1.1531239763779528
21
0.336256811023622
0
LINE
8
BLACK
6
CONTINUOUS
10
1.1531239763779528
20
0.336256811023622
11
1.1568418503937008
21
0.3228662992125984
0
LINE
8
BLACK
6
CONTINUOUS
10
1.1568418503937008
20
0.3228662992125984
11
1.159090157480315
21
0.3091522834645669
0
LINE
8
BLACK
6
CONTINUOUS
10
1.159090157480315
20
0.3091522834645669
11
1.1598425196850393
21
0.2952755905511811
0
LINE
8
BLACK
6
CONTINUOUS
10
1.1598425196850393
20
0.2952755905511811
11
1.159090157480315
21
0.2813988976377952
0
LINE
8
BLACK
6
CONTINUOUS
10
1.159090157480315
20
0.2813988976377952
11
1.1568418503937008
21
0.2676848818897637
0
LINE
8
BLACK
6
CONTINUOUS
10
1.1568418503937008
20
0.2676848818897637
11
1.1531239763779528
21
0.2542943700787402
0
LINE
8
BLACK
6
CONTINUOUS
10
1.1531239763779528
20
0.2542943700787402
11
1.1519685039370078
21
0.2513943700787402
0
LINE
8
BLACK
6
CONTINUOUS
10
1.1519685039370078
20
0.2513943700787402
11
1.1519685039370078
21
0.1771653543307087
0
LINE
8
BLACK
6
CONTINUOUS
10
1.1519685039370078
20
0.1771653543307087
11
1.1517887007874015
21
0.1762613779527559
0
LINE
8
BLACK
6
CONTINUOUS
10
1.1517887007874015
20
0.1762613779527559
11
1.1505102755905512
21
0.1749829527559055
0
LINE
8
BLACK
6
CONTINUOUS
10
1.1505102755905512
20
0.1749829527559055
11
1.1496062992125984
21
0.1748031496062992
0
LINE
8
BLACK
6
CONTINUOUS
10
1.1496062992125984
20
0.1748031496062992
11
1.075317125984252
21
0.1748031496062992
0
LINE
8
BLACK
6
CONTINUOUS
10
1.075317125984252
20
0.1748031496062992
11
1.0658323622047243
21
0.1716073622047244
0
LINE
8
BLACK
6
CONTINUOUS
10
1.0658323622047243
20
0.1716073622047244
11
1.0522601968503937
21
0.1686199212598425
0
LINE
8
BLACK
6
CONTINUOUS
10
1.0522601968503937
20
0.1686199212598425
11
1.0384446062992125
21
0.1671173622047244
0
LINE
8
BLACK
6
CONTINUOUS
10
1.0384446062992125
20
0.1671173622047244
11
1.0245475196850393
21
0.1671173622047244
0
LINE
8
BLACK
6
CONTINUOUS
10
1.0245475196850393
20
0.1671173622047244
11
1.0107319291338583
21
0.1686199212598425
0
LINE
8
BLACK
6
CONTINUOUS
10
1.0107319291338583
20
0.1686199212598425
11
0.9971597637795275
21
0.1716073622047244
0
LINE
8
BLACK
6
CONTINUOUS
10
0.9971597637795275
20
0.1716073622047244
11
0.987675
21
0.1748031496062992
0
LINE
8
BLACK
6
CONTINUOUS
10
0.987675
20
0.1748031496062992
11
0.9133858267716535
21
0.1748031496062992
0
LINE
8
BLACK
6
CONTINUOUS
10
0.9133858267716535
20
0.1748031496062992
11
0.9124818503937008
21
0.1749829527559055
0
LINE
8
BLACK
6
CONTINUOUS
10
0.9124818503937008
20
0.1749829527559055
11
0.9112034251968504
21
0.1762613779527559
0
LINE
8
BLACK
6
CONTINUOUS
10
0.9112034251968504
20
0.1762613779527559
11
0.9110236220472441
21
0.1771653543307087
0
LINE
8
BLACK
6
CONTINUOUS
10
0.9110236220472441
20
0.1771653543307087
11
0.9110236220472441
21
0.2513943700787402
0
LINE
8
BLACK
6
CONTINUOUS
10
0.9110236220472441
20
0.2513943700787402
11
0.9098681496062991
21
0.2542943700787402
0
LINE
8
BLACK
6
CONTINUOUS
10
0.9098681496062991
20
0.2542943700787402
11
0.9061502755905512
21
0.2676848818897637
0
LINE
8
BLACK
6
CONTINUOUS
10
0.9061502755905512
20
0.2676848818897637
11
0.903901968503937
21
0.2813988976377952
0
LINE
8
BLACK
6
CONTINUOUS
10
0.903901968503937
20
0.2813988976377952
11
0.9031496062992126
21
0.2952755905511811
0
LINE
8
BLACK
6
CONTINUOUS
10
0.9031496062992126
20
0.2952755905511811
11
0.903901968503937
21
0.3091522834645669
0
LINE
8
BLACK
6
CONTINUOUS
10
0.903901968503937
20
0.3091522834645669
11
0.9061502755905512
21
0.3228662992125984
0
LINE
8
BLACK
6
CONTINUOUS
10
0.9061502755905512
20
0.3228662992125984
11
0.9098681496062991
21
0.336256811023622
0
LINE
8
BLACK
6
CONTINUOUS
10
0.9098681496062991
20
0.336256811023622
11
0.9110236220472441
21
0.3391568503937008
0
LINE
8
BLACK
6
CONTINUOUS
10
0.9110236220472441
20
0.3391568503937008
11
0.9110236220472441
21
0.4133858267716535
0
LINE
8
BLACK
6
CONTINUOUS
10
0.9110236220472441
20
0.4133858267716535
11
0.9112034251968504
21
0.4142898031496063
0
LINE
8
BLACK
6
CONTINUOUS
10
0.9112034251968504
20
0.4142898031496063
11
0.9124818503937008
21
0.4155682283464567
0
LINE
8
BLACK
6
CONTINUOUS
10
0.9124818503937008
20
0.4155682283464567
11
0.9133858267716535
21
0.415748031496063
0
LINE
8
BLACK
6
CONTINUOUS
10
0.9133858267716535
20
0.415748031496063
11
0.987675
21
0.415748031496063
0
LINE
8
BLACK
6
CONTINUOUS
10
0.987675
20
0.415748031496063
11
0.9971597637795275
21
0.4189438188976378
0
LINE
8
BLACK
6
CONTINUOUS
10
0.9971597637795275
20
0.4189438188976378
11
1.0107319291338583
21
0.4219312598425197
0
LINE
8
BLACK
6
CONTINUOUS
10
1.0107319291338583
20
0.4219312598425197
11
1.0245475196850393
21
0.4234338188976378
0
LINE
8
BLACK
6
CONTINUOUS
10
1.0245475196850393
20
0.4234338188976378
11
1.0384446062992125
21
0.4234338188976378
0
LINE
8
BLACK
6
CONTINUOUS
10
1.0384446062992125
20
0.4234338188976378
11
1.0522601968503937
21
0.4219312598425197
0
LINE
8
BLACK
6
CONTINUOUS
10
1.003110905511811
20
0.1748031496062992
11
1.0039442125984253
21
0.1745630708661417
0
LINE
8
BLACK
6
CONTINUOUS
10
1.0039442125984253
20
0.1745630708661417
11
1.0176329921259841
21
0.1722372834645669
0
LINE
8
BLACK
6
CONTINUOUS
10
1.0176329921259841
20
0.1722372834645669
11
1.0314960629921259
21
0.1714587401574803
0
LINE
8
BLACK
6
CONTINUOUS
10
1.0314960629921259
20
0.1714587401574803
11
1.0453591338582677
21
0.1722372834645669
0
LINE
8
BLACK
6
CONTINUOUS
10
1.0453591338582677
20
0.1722372834645669
11
1.0590479133858268
21
0.1745630708661417
0
LINE
8
BLACK
6
CONTINUOUS
10
1.0590479133858268
20
0.1745630708661417
11
1.0598812204724408
21
0.1748031496062992
0
LINE
8
BLACK
6
CONTINUOUS
10
1.0598812204724408
20
0.1748031496062992
11
1.003110905511811
21
0.1748031496062992
0
LINE
8
BLACK
6
CONTINUOUS
10
0.915748031496063
20
0.1795275590551181
11
0.976462125984252
21
0.1795275590551181
0
LINE
8
BLACK
6
CONTINUOUS
10
0.976462125984252
20
0.1795275590551181
11
0.9713774803149606
21
0.1818799606299213
0
LINE
8
BLACK
6
CONTINUOUS
10
0.9713774803149606
20
0.1818799606299213
11
0.95946968503937
21
0.1890446456692913
0
LINE
8
BLACK
6
CONTINUOUS
10
0.95946968503937
20
0.1890446456692913
11
0.9484063385826771
21
0.1974548031496063
0
LINE
8
BLACK
6
CONTINUOUS
10
0.9484063385826771
20
0.1974548031496063
11
0.938317125984252
21
0.207011811023622
0
LINE
8
BLACK
6
CONTINUOUS
10
0.938317125984252
20
0.207011811023622
11
0.9293203543307086
21
0.2176036220472441
0
LINE
8
BLACK
6
CONTINUOUS
10
0.9293203543307086
20
0.2176036220472441
11
0.9215214960629921
21
0.229106062992126
0
LINE
8
BLACK
6
CONTINUOUS
10
0.9215214960629921
20
0.229106062992126
11
0.915748031496063
21
0.2399959842519685
0
LINE
8
BLACK
6
CONTINUOUS
10
0.915748031496063
20
0.2399959842519685
11
0.915748031496063
21
0.1795275590551181
0
LINE
8
BLACK
6
CONTINUOUS
10
0.9878965354330709
20
0.4110236220472441
11
0.977773937007874
21
0.4068307086614173
0
LINE
8
BLACK
6
CONTINUOUS
10
0.977773937007874
20
0.4068307086614173
11
0.9656215354330708
21
0.4001143307086614
0
LINE
8
BLACK
6
CONTINUOUS
10
0.9656215354330708
20
0.4001143307086614
11
0.9542975196850394
21
0.3920794881889764
0
LINE
8
BLACK
6
CONTINUOUS
10
0.9542975196850394
20
0.3920794881889764
11
0.9439443307086613
21
0.3828273228346457
0
LINE
8
BLACK
6
CONTINUOUS
10
0.9439443307086613
20
0.3828273228346457
11
0.9346921653543306
21
0.3724741338582677
0
LINE
8
BLACK
6
CONTINUOUS
10
0.9346921653543306
20
0.3724741338582677
11
0.9266573228346456
21
0.3611501181102362
0
LINE
8
BLACK
6
CONTINUOUS
10
0.9266573228346456
20
0.3611501181102362
11
0.9199409448818897
21
0.348997716535433
0
LINE
8
BLACK
6
CONTINUOUS
10
0.9199409448818897
20
0.348997716535433
11
0.915748031496063
21
0.3388751574803149
0
LINE
8
BLACK
6
CONTINUOUS
10
0.915748031496063
20
0.3388751574803149
11
0.915748031496063
21
0.251676062992126
0
LINE
8
BLACK
6
CONTINUOUS
10
0.915748031496063
20
0.251676062992126
11
0.9199409448818897
21
0.2415534645669291
0
LINE
8
BLACK
6
CONTINUOUS
10
0.9199409448818897
20
0.2415534645669291
11
0.9266573228346456
21
0.229401062992126
0
LINE
8
BLACK
6
CONTINUOUS
10
0.9266573228346456
20
0.229401062992126
11
0.9346921653543306
21
0.2180770472440945
0
LINE
8
BLACK
6
CONTINUOUS
10
0.9346921653543306
20
0.2180770472440945
11
0.9439443307086613
21
0.2077238582677165
0
LINE
8
BLACK
6
CONTINUOUS
10
0.9439443307086613
20
0.2077238582677165
11
0.9542975196850394
21
0.1984716929133858
0
LINE
8
BLACK
6
CONTINUOUS
10
0.9542975196850394
20
0.1984716929133858
11
0.9656215354330708
21
0.1904368503937008
0
LINE
8
BLACK
6
CONTINUOUS
10
0.9656215354330708
20
0.1904368503937008
11
0.977773937007874
21
0.1837204724409449
0
LINE
8
BLACK
6
CONTINUOUS
10
0.977773937007874
20
0.1837204724409449
11
0.9878965354330709
21
0.1795275590551181
0
LINE
8
BLACK
6
CONTINUOUS
10
0.9878965354330709
20
0.1795275590551181
11
1.075095590551181
21
0.1795275590551181
0
LINE
8
BLACK
6
CONTINUOUS
10
1.075095590551181
20
0.1795275590551181
11
1.0852181889763779
21
0.1837204724409449
0
LINE
8
BLACK
6
CONTINUOUS
10
1.0852181889763779
20
0.1837204724409449
11
1.097370590551181
21
0.1904368503937008
0
LINE
8
BLACK
6
CONTINUOUS
10
1.097370590551181
20
0.1904368503937008
11
1.1086946062992127
21
0.1984716929133858
0
LINE
8
BLACK
6
CONTINUOUS
10
1.1086946062992127
20
0.1984716929133858
11
1.1190477952755906
21
0.2077238582677165
0
LINE
8
BLACK
6
CONTINUOUS
10
1.1190477952755906
20
0.2077238582677165
11
1.1282999606299213
21
0.2180770472440945
0
LINE
8
BLACK
6
CONTINUOUS
10
1.1282999606299213
20
0.2180770472440945
11
1.1363348031496063
21
0.229401062992126
0
LINE
8
BLACK
6
CONTINUOUS
10
1.1363348031496063
20
0.229401062992126
11
1.1430511811023623
21
0.2415534645669291
0
LINE
8
BLACK
6
CONTINUOUS
10
1.1430511811023623
20
0.2415534645669291
11
1.147244094488189
21
0.251676062992126
0
LINE
8
BLACK
6
CONTINUOUS
10
1.147244094488189
20
0.251676062992126
11
1.147244094488189
21
0.3388751574803149
0
LINE
8
BLACK
6
CONTINUOUS
10
1.147244094488189
20
0.3388751574803149
11
1.1430511811023623
21
0.348997716535433
0
LINE
8
BLACK
6
CONTINUOUS
10
1.1430511811023623
20
0.348997716535433
11
1.1363348031496063
21
0.3611501181102362
0
LINE
8
BLACK
6
CONTINUOUS
10
1.1363348031496063
20
0.3611501181102362
11
1.1282999606299213
21
0.3724741338582677
0
LINE
8
BLACK
6
CONTINUOUS
10
1.1282999606299213
20
0.3724741338582677
11
1.1190477952755906
21
0.3828273228346457
0
LINE
8
BLACK
6
CONTINUOUS
10
1.1190477952755906
20
0.3828273228346457
11
1.1086946062992127
21
0.3920794881889764
0
LINE
8
BLACK
6
CONTINUOUS
10
1.1086946062992127
20
0.3920794881889764
11
1.097370590551181
21
0.4001143307086614
0
LINE
8
BLACK
6
CONTINUOUS
10
1.097370590551181
20
0.4001143307086614
11
1.0852181889763779
21
0.4068307086614173
0
LINE
8
BLACK
6
CONTINUOUS
10
1.0852181889763779
20
0.4068307086614173
11
1.075095590551181
21
0.4110236220472441
0
LINE
8
BLACK
6
CONTINUOUS
10
1.075095590551181
20
0.4110236220472441
11
0.9878965354330709
21
0.4110236220472441
0
LINE
8
BLACK
6
CONTINUOUS
10
1.1414706299212598
20
0.229106062992126
11
1.1336717716535434
21
0.2176036220472441
0
LINE
8
BLACK
6
CONTINUOUS
10
1.1336717716535434
20
0.2176036220472441
11
1.1246749999999999
21
0.207011811023622
0
LINE
8
BLACK
6
CONTINUOUS
10
1.1246749999999999
20
0.207011811023622
11
1.1145857874015748
21
0.1974548031496063
0
LINE
8
BLACK
6
CONTINUOUS
10
1.1145857874015748
20
0.1974548031496063
11
1.1035224409448818
21
0.1890446456692913
0
LINE
8
BLACK
6
CONTINUOUS
10
1.1035224409448818
20
0.1890446456692913
11
1.0916146456692912
21
0.1818799606299213
0
LINE
8
BLACK
6
CONTINUOUS
10
1.0916146456692912
20
0.1818799606299213
11
1.08653
21
0.1795275590551181
0
LINE
8
BLACK
6
CONTINUOUS
10
1.08653
20
0.1795275590551181
11
1.147244094488189
21
0.1795275590551181
0
LINE
8
BLACK
6
CONTINUOUS
10
1.147244094488189
20
0.1795275590551181
11
1.147244094488189
21
0.2399959842519685
0
LINE
8
BLACK
6
CONTINUOUS
10
1.147244094488189
20
0.2399959842519685
11
1.1414706299212598
21
0.229106062992126
0
LINE
8
BLACK
6
CONTINUOUS
10
1.1519685039370078
20
0.2668904330708661
11
1.1522085826771653
21
0.2677237401574803
0
LINE
8
BLACK
6
CONTINUOUS
10
1.1522085826771653
20
0.2677237401574803
11
1.15453437007874
21
0.2814125196850394
0
LINE
8
BLACK
6
CONTINUOUS
10
1.15453437007874
20
0.2814125196850394
11
1.1553129133858266
21
0.2952755905511811
0
LINE
8
BLACK
6
CONTINUOUS
10
1.1553129133858266
20
0.2952755905511811
11
1.15453437007874
21
0.3091386614173228
0
LINE
8
BLACK
6
CONTINUOUS
10
1.15453437007874
20
0.3091386614173228
11
1.1522085826771653
21
0.3228274409448819
0
LINE
8
BLACK
6
CONTINUOUS
10
1.1522085826771653
20
0.3228274409448819
11
1.1519685039370078
21
0.3236607874015748
0
LINE
8
BLACK
6
CONTINUOUS
10
1.1519685039370078
20
0.3236607874015748
11
1.1519685039370078
21
0.2668904330708661
0
LINE
8
BLACK
6
CONTINUOUS
10
0.915748031496063
20
0.4110236220472441
11
0.915748031496063
21
0.3505552362204724
0
LINE
8
BLACK
6
CONTINUOUS
10
0.915748031496063
20
0.3505552362204724
11
0.9215214960629921
21
0.3614451181102362
0
LINE
8
BLACK
6
CONTINUOUS
10
0.9215214960629921
20
0.3614451181102362
11
0.9293203543307086
21
0.3729475590551181
0
LINE
8
BLACK
6
CONTINUOUS
10
0.9293203543307086
20
0.3729475590551181
11
0.938317125984252
21
0.3835393700787402
0
LINE
8
BLACK
6
CONTINUOUS
10
0.938317125984252
20
0.3835393700787402
11
0.9484063385826771
21
0.3930963779527559
0
LINE
8
BLACK
6
CONTINUOUS
10
0.9484063385826771
20
0.3930963779527559
11
0.95946968503937
21
0.4015065354330709
0
LINE
8
BLACK
6
CONTINUOUS
10
0.95946968503937
20
0.4015065354330709
11
0.9713774803149606
21
0.4086712204724409
0
LINE
8
BLACK
6
CONTINUOUS
10
0.9713774803149606
20
0.4086712204724409
11
0.976462125984252
21
0.4110236220472441
0
LINE
8
BLACK
6
CONTINUOUS
10
0.976462125984252
20
0.4110236220472441
11
0.915748031496063
21
0.4110236220472441
0
LINE
8
BLACK
6
CONTINUOUS
10
1.08653
20
0.4110236220472441
11
1.0916146456692912
21
0.4086712204724409
0
LINE
8
BLACK
6
CONTINUOUS
10
1.0916146456692912
20
0.4086712204724409
11
1.1035224409448818
21
0.4015065354330709
0
LINE
8
BLACK
6
CONTINUOUS
10
1.1035224409448818
20
0.4015065354330709
11
1.1145857874015748
21
0.3930963779527559
0
LINE
8
BLACK
6
CONTINUOUS
10
1.1145857874015748
20
0.3930963779527559
11
1.1246749999999999
21
0.3835393700787402
0
LINE
8
BLACK
6
CONTINUOUS
10
1.1246749999999999
20
0.3835393700787402
11
1.1336717716535434
21
0.3729475590551181
0
LINE
8
BLACK
6
CONTINUOUS
10
1.1336717716535434
20
0.3729475590551181
11
1.1414706299212598
21
0.3614451181102362
0
LINE
8
BLACK
6
CONTINUOUS
10
1.1414706299212598
20
0.3614451181102362
11
1.147244094488189
21
0.3505552362204724
0
LINE
8
BLACK
6
CONTINUOUS
10
1.147244094488189
20
0.3505552362204724
11
1.147244094488189
21
0.4110236220472441
0
LINE
8
BLACK
6
CONTINUOUS
10
1.147244094488189
20
0.4110236220472441
11
1.08653
21
0.4110236220472441
0
LINE
8
BLACK
6
CONTINUOUS
10
1.0176329921259841
20
0.4183138976377953
11
1.0039442125984253
21
0.4159881102362205
0
LINE
8
BLACK
6
CONTINUOUS
10
1.0039442125984253
20
0.4159881102362205
11
1.003110905511811
21
0.415748031496063
0
LINE
8
BLACK
6
CONTINUOUS
10
1.003110905511811
20
0.415748031496063
11
1.0598812204724408
21
0.415748031496063
0
LINE
8
BLACK
6
CONTINUOUS
10
1.0598812204724408
20
0.415748031496063
11
1.0590479133858268
21
0.4159881102362205
0
LINE
8
BLACK
6
CONTINUOUS
10
1.0590479133858268
20
0.4159881102362205
11
1.0453591338582677
21
0.4183138976377953
0
LINE
8
BLACK
6
CONTINUOUS
10
1.0453591338582677
20
0.4183138976377953
11
1.0314960629921259
21
0.4190924409448819
0
LINE
8
BLACK
6
CONTINUOUS
10
1.0314960629921259
20
0.4190924409448819
11
1.0176329921259841
21
0.4183138976377953
0
LINE
8
BLACK
6
CONTINUOUS
10
0.9084577559055118
20
0.2814125196850394
11
0.9107835433070866
21
0.2677237401574803
0
LINE
8
BLACK
6
CONTINUOUS
10
0.9107835433070866
20
0.2677237401574803
11
0.9110236220472441
21
0.2668904330708661
0
LINE
8
BLACK
6
CONTINUOUS
10
0.9110236220472441
20
0.2668904330708661
11
0.9110236220472441
21
0.3236607874015748
0
LINE
8
BLACK
6
CONTINUOUS
10
0.9110236220472441
20
0.3236607874015748
11
0.9107835433070866
21
0.3228274409448819
0
LINE
8
BLACK
6
CONTINUOUS
10
0.9107835433070866
20
0.3228274409448819
11
0.9084577559055118
21
0.3091386614173228
0
LINE
8
BLACK
6
CONTINUOUS
10
0.9084577559055118
20
0.3091386614173228
11
0.9076792125984252
21
0.2952755905511811
0
LINE
8
BLACK
6
CONTINUOUS
10
0.9076792125984252
20
0.2952755905511811
11
0.9084577559055118
21
0.2814125196850394
0
LINE
8
BLACK
6
CONTINUOUS
10
0.019395
20
0.4129118503937008
11
0.0195748031496063
21
0.412007874015748
0
LINE
8
BLACK
6
CONTINUOUS
10
0.0195748031496063
20
0.412007874015748
11
0.0195748031496063
21
0.1785433070866142
0
LINE
8
BLACK
6
CONTINUOUS
10
0.0195748031496063
20
0.1785433070866142
11
0.019395
21
0.1776393307086614
0
LINE
8
BLACK
6
CONTINUOUS
10
0.019395
20
0.1776393307086614
11
0.0181165748031496
21
0.176360905511811
0
LINE
8
BLACK
6
CONTINUOUS
10
0.0181165748031496
20
0.176360905511811
11
0.0163086220472441
21
0.176360905511811
0
LINE
8
BLACK
6
CONTINUOUS
10
0.0163086220472441
20
0.176360905511811
11
0.0150301968503937
21
0.1776393307086614
0
LINE
8
BLACK
6
CONTINUOUS
10
0.0150301968503937
20
0.1776393307086614
11
0.0148503937007874
21
0.1785433070866142
0
LINE
8
BLACK
6
CONTINUOUS
10
0.0148503937007874
20
0.1785433070866142
11
0.0148503937007874
21
0.412007874015748
0
LINE
8
BLACK
6
CONTINUOUS
10
0.0148503937007874
20
0.412007874015748
11
0.0150301968503937
21
0.4129118503937008
0
LINE
8
BLACK
6
CONTINUOUS
10
0.0150301968503937
20
0.4129118503937008
11
0.0163086220472441
21
0.4141902755905512
0
LINE
8
BLACK
6
CONTINUOUS
10
0.0163086220472441
20
0.4141902755905512
11
0.0181165748031496
21
0.4141902755905512
0
LINE
8
BLACK
6
CONTINUOUS
10
0.0181165748031496
20
0.4141902755905512
11
0.019395
21
0.4129118503937008
0
LINE
8
BLACK
6
CONTINUOUS
10
0.4205682283464567
20
0.2763370472440945
11
0.420748031496063
21
0.2754330708661417
0
LINE
8
BLACK
6
CONTINUOUS
10
0.420748031496063
20
0.2754330708661417
11
0.420748031496063
21
0.1789763779527559
0
LINE
8
BLACK
6
CONTINUOUS
10
0.420748031496063
20
0.1789763779527559
11
0.4205682283464567
21
0.1780724015748031
0
LINE
8
BLACK
6
CONTINUOUS
10
0.4205682283464567
20
0.1780724015748031
11
0.4192898031496063
21
0.1767939763779527
0
LINE
8
BLACK
6
CONTINUOUS
10
0.4192898031496063
20
0.1767939763779527
11
0.4174818503937008
21
0.1767939763779527
0
LINE
8
BLACK
6
CONTINUOUS
10
0.4174818503937008
20
0.1767939763779527
11
0.4162034251968504
21
0.1780724015748031
0
LINE
8
BLACK
6
CONTINUOUS
10
0.4162034251968504
20
0.1780724015748031
11
0.4160236220472441
21
0.1789763779527559
0
LINE
8
BLACK
6
CONTINUOUS
10
0.4160236220472441
20
0.1789763779527559
11
0.4160236220472441
21
0.2754330708661417
0
LINE
8
BLACK
6
CONTINUOUS
10
0.4160236220472441
20
0.2754330708661417
11
0.4162034251968504
21
0.2763370472440945
0
LINE
8
BLACK
6
CONTINUOUS
10
0.4162034251968504
20
0.2763370472440945
11
0.4174818503937008
21
0.2776154724409449
0
LINE
8
BLACK
6
CONTINUOUS
10
0.4174818503937008
20
0.2776154724409449
11
0.4192898031496063
21
0.2776154724409449
0
LINE
8
BLACK
6
CONTINUOUS
10
0.4192898031496063
20
0.2776154724409449
11
0.4205682283464567
21
0.2763370472440945
0
LINE
8
BLACK
6
CONTINUOUS
10
0.7313086614173229
20
0.1921036614173228
11
0.7325870866141733
21
0.1908252362204724
0
LINE
8
BLACK
6
CONTINUOUS
10
0.7325870866141733
20
0.1908252362204724
11
0.7325870866141733
21
0.1890172834645669
0
LINE
8
BLACK
6
CONTINUOUS
10
0.7325870866141733
20
0.1890172834645669
11
0.7313086614173229
21
0.1877388582677165
0
LINE
8
BLACK
6
CONTINUOUS
10
0.7313086614173229
20
0.1877388582677165
11
0.7304046850393701
21
0.1875590551181102
0
LINE
8
BLACK
6
CONTINUOUS
10
0.7304046850393701
20
0.1875590551181102
11
0.7175874409448819
21
0.1875590551181102
0
LINE
8
BLACK
6
CONTINUOUS
10
0.7175874409448819
20
0.1875590551181102
11
0.7166834645669291
21
0.1877388582677165
0
LINE
8
BLACK
6
CONTINUOUS
10
0.7166834645669291
20
0.1877388582677165
11
0.7154050393700787
21
0.1890172834645669
0
LINE
8
BLACK
6
CONTINUOUS
10
0.7154050393700787
20
0.1890172834645669
11
0.7154050393700787
21
0.1908252362204724
0
LINE
8
BLACK
6
CONTINUOUS
10
0.7154050393700787
20
0.1908252362204724
11
0.7166834645669291
21
0.1921036614173228
0
LINE
8
BLACK
6
CONTINUOUS
10
0.7166834645669291
20
0.1921036614173228
11
0.7175874409448819
21
0.1922834645669291
0
LINE
8
BLACK
6
CONTINUOUS
10
0.7175874409448819
20
0.1922834645669291
11
0.7304046850393701
21
0.1922834645669291
0
LINE
8
BLACK
6
CONTINUOUS
10
0.7304046850393701
20
0.1922834645669291
11
0.7313086614173229
21
0.1921036614173228
0
LINE
8
BLACK
6
CONTINUOUS
10
0.2937965748031496
20
0.2763370472440945
11
0.2939763779527559
21
0.2754330708661417
0
LINE
8
BLACK
6
CONTINUOUS
10
0.2939763779527559
20
0.2754330708661417
11
0.2939763779527559
21
0.2045669291338583
0
LINE
8
BLACK
6
CONTINUOUS
10
0.2939763779527559
20
0.2045669291338583
11
0.2937965748031496
21
0.2036629527559055
0
LINE
8
BLACK
6
CONTINUOUS
10
0.2937965748031496
20
0.2036629527559055
11
0.2925181496062992
21
0.2023845275590551
0
LINE
8
BLACK
6
CONTINUOUS
10
0.2925181496062992
20
0.2023845275590551
11
0.2907101968503937
21
0.2023845275590551
0
LINE
8
BLACK
6
CONTINUOUS
10
0.2907101968503937
20
0.2023845275590551
11
0.2894317716535433
21
0.2036629527559055
0
LINE
8
BLACK
6
CONTINUOUS
10
0.2894317716535433
20
0.2036629527559055
11
0.289251968503937
21
0.2045669291338583
0
LINE
8
BLACK
6
CONTINUOUS
10
0.289251968503937
20
0.2045669291338583
11
0.289251968503937
21
0.2754330708661417
0
LINE
8
BLACK
6
CONTINUOUS
10
0.289251968503937
20
0.2754330708661417
11
0.2894317716535433
21
0.2763370472440945
0
LINE
8
BLACK
6
CONTINUOUS
10
0.2894317716535433
20
0.2763370472440945
11
0.2907101968503937
21
0.2776154724409449
0
LINE
8
BLACK
6
CONTINUOUS
10
0.2907101968503937
20
0.2776154724409449
11
0.2925181496062992
21
0.2776154724409449
0
LINE
8
BLACK
6
CONTINUOUS
10
0.2925181496062992
20
0.2776154724409449
11
0.2937965748031496
21
0.2763370472440945
0
LINE
8
BLACK
6
CONTINUOUS
10
0.4471036614173228
20
0.2183165354330709
11
0.4472834645669291
21
0.2174125590551181
0
LINE
8
BLACK
6
CONTINUOUS
10
0.4472834645669291
20
0.2174125590551181
11
0.4472834645669291
21
0.2045953149606299
0
LINE
8
BLACK
6
CONTINUOUS
10
0.4472834645669291
20
0.2045953149606299
11
0.4471036614173228
21
0.2036913385826772
0
LINE
8
BLACK
6
CONTINUOUS
10
0.4471036614173228
20
0.2036913385826772
11
0.4458252362204724
21
0.2024129133858268
0
LINE
8
BLACK
6
CONTINUOUS
10
0.4458252362204724
20
0.2024129133858268
11
0.4440172834645669
21
0.2024129133858268
0
LINE
8
BLACK
6
CONTINUOUS
10
0.4440172834645669
20
0.2024129133858268
11
0.4427388582677165
21
0.2036913385826772
0
LINE
8
BLACK
6
CONTINUOUS
10
0.4427388582677165
20
0.2036913385826772
11
0.4425590551181102
21
0.2045953149606299
0
LINE
8
BLACK
6
CONTINUOUS
10
0.4425590551181102
20
0.2045953149606299
11
0.4425590551181102
21
0.2174125590551181
0
LINE
8
BLACK
6
CONTINUOUS
10
0.4425590551181102
20
0.2174125590551181
11
0.4427388582677165
21
0.2183165354330709
0
LINE
8
BLACK
6
CONTINUOUS
10
0.4427388582677165
20
0.2183165354330709
11
0.4440172834645669
21
0.2195949606299213
0
LINE
8
BLACK
6
CONTINUOUS
10
0.4440172834645669
20
0.2195949606299213
11
0.4458252362204724
21
0.2195949606299213
0
LINE
8
BLACK
6
CONTINUOUS
10
0.4458252362204724
20
0.2195949606299213
11
0.4471036614173228
21
0.2183165354330709
0
LINE
8
BLACK
6
CONTINUOUS
10
0.4872611417322835
20
0.2183165354330709
11
0.4874409448818898
21
0.2174125590551181
0
LINE
8
BLACK
6
CONTINUOUS
10
0.4874409448818898
20
0.2174125590551181
11
0.4874409448818898
21
0.2045953149606299
0
LINE
8
BLACK
6
CONTINUOUS
10
0.4874409448818898
20
0.2045953149606299
11
0.4872611417322835
21
0.2036913385826772
0
LINE
8
BLACK
6
CONTINUOUS
10
0.4872611417322835
20
0.2036913385826772
11
0.4859827165354331
21
0.2024129133858268
0
LINE
8
BLACK
6
CONTINUOUS
10
0.4859827165354331
20
0.2024129133858268
11
0.4841747637795276
21
0.2024129133858268
0
LINE
8
BLACK
6
CONTINUOUS
10
0.4841747637795276
20
0.2024129133858268
11
0.4828963385826772
21
0.2036913385826772
0
LINE
8
BLACK
6
CONTINUOUS
10
0.4828963385826772
20
0.2036913385826772
11
0.4827165354330709
21
0.2045953149606299
0
LINE
8
BLACK
6
CONTINUOUS
10
0.4827165354330709
20
0.2045953149606299
11
0.4827165354330709
21
0.2174125590551181
0
LINE
8
BLACK
6
CONTINUOUS
10
0.4827165354330709
20
0.2174125590551181
11
0.4828963385826772
21
0.2183165354330709
0
LINE
8
BLACK
6
CONTINUOUS
10
0.4828963385826772
20
0.2183165354330709
11
0.4841747637795276
21
0.2195949606299213
0
LINE
8
BLACK
6
CONTINUOUS
10
0.4841747637795276
20
0.2195949606299213
11
0.4859827165354331
21
0.2195949606299213
0
LINE
8
BLACK
6
CONTINUOUS
10
0.4859827165354331
20
0.2195949606299213
11
0.4872611417322835
21
0.2183165354330709
0
LINE
8
BLACK
6
CONTINUOUS
10
0.7313086614173229
20
0.2322611417322835
11
0.7325870866141733
21
0.2309827165354331
0
LINE
8
BLACK
6
CONTINUOUS
10
0.7325870866141733
20
0.2309827165354331
11
0.7325870866141733
21
0.2291747637795276
0
LINE
8
BLACK
6
CONTINUOUS
10
0.7325870866141733
20
0.2291747637795276
11
0.7313086614173229
21
0.2278963385826772
0
LINE
8
BLACK
6
CONTINUOUS
10
0.7313086614173229
20
0.2278963385826772
11
0.7304046850393701
21
0.2277165354330709
0
LINE
8
BLACK
6
CONTINUOUS
10
0.7304046850393701
20
0.2277165354330709
11
0.7175874409448819
21
0.2277165354330709
0
LINE
8
BLACK
6
CONTINUOUS
10
0.7175874409448819
20
0.2277165354330709
11
0.7166834645669291
21
0.2278963385826772
0
LINE
8
BLACK
6
CONTINUOUS
10
0.7166834645669291
20
0.2278963385826772
11
0.7154050393700787
21
0.2291747637795276
0
LINE
8
BLACK
6
CONTINUOUS
10
0.7154050393700787
20
0.2291747637795276
11
0.7154050393700787
21
0.2309827165354331
0
LINE
8
BLACK
6
CONTINUOUS
10
0.7154050393700787
20
0.2309827165354331
11
0.7166834645669291
21
0.2322611417322835
0
LINE
8
BLACK
6
CONTINUOUS
10
0.7166834645669291
20
0.2322611417322835
11
0.7175874409448819
21
0.2324409448818898
0
LINE
8
BLACK
6
CONTINUOUS
10
0.7175874409448819
20
0.2324409448818898
11
0.7304046850393701
21
0.2324409448818898
0
LINE
8
BLACK
6
CONTINUOUS
10
0.7304046850393701
20
0.2324409448818898
11
0.7313086614173229
21
0.2322611417322835
0
LINE
8
BLACK
6
CONTINUOUS
10
0.6410220866141733
20
0.289387125984252
11
0.6423005118110237
21
0.2881087007874016
0
LINE
8
BLACK
6
CONTINUOUS
10
0.6423005118110237
20
0.2881087007874016
11
0.6423005118110237
21
0.2863007480314961
0
LINE
8
BLACK
6
CONTINUOUS
10
0.6423005118110237
20
0.2863007480314961
11
0.6410220866141733
21
0.2850223228346457
0
LINE
8
BLACK
6
CONTINUOUS
10
0.6410220866141733
20
0.2850223228346457
11
0.6401181102362205
21
0.2848425196850394
0
LINE
8
BLACK
6
CONTINUOUS
10
0.6401181102362205
20
0.2848425196850394
11
0.5574409448818898
21
0.2848425196850394
0
LINE
8
BLACK
6
CONTINUOUS
10
0.5574409448818898
20
0.2848425196850394
11
0.5574409448818898
21
0.2505905511811024
0
LINE
8
BLACK
6
CONTINUOUS
10
0.5574409448818898
20
0.2505905511811024
11
0.5572611417322835
21
0.2496865748031496
0
LINE
8
BLACK
6
CONTINUOUS
10
0.5572611417322835
20
0.2496865748031496
11
0.5559827165354331
21
0.2484081496062992
0
LINE
8
BLACK
6
CONTINUOUS
10
0.5559827165354331
20
0.2484081496062992
11
0.5541747637795276
21
0.2484081496062992
0
LINE
8
BLACK
6
CONTINUOUS
10
0.5541747637795276
20
0.2484081496062992
11
0.5528963385826772
21
0.2496865748031496
0
LINE
8
BLACK
6
CONTINUOUS
10
0.5528963385826772
20
0.2496865748031496
11
0.5527165354330709
21
0.2505905511811024
0
LINE
8
BLACK
6
CONTINUOUS
10
0.5527165354330709
20
0.2505905511811024
11
0.5527165354330709
21
0.2872047244094488
0
LINE
8
BLACK
6
CONTINUOUS
10
0.5527165354330709
20
0.2872047244094488
11
0.5528963385826772
21
0.2881087007874016
0
LINE
8
BLACK
6
CONTINUOUS
10
0.5528963385826772
20
0.2881087007874016
11
0.5541747637795276
21
0.289387125984252
0
LINE
8
BLACK
6
CONTINUOUS
10
0.5541747637795276
20
0.289387125984252
11
0.5550787401574803
21
0.2895669291338583
0
LINE
8
BLACK
6
CONTINUOUS
10
0.5550787401574803
20
0.2895669291338583
11
0.6401181102362205
21
0.2895669291338583
0
LINE
8
BLACK
6
CONTINUOUS
10
0.6401181102362205
20
0.2895669291338583
11
0.6410220866141733
21
0.289387125984252
0
LINE
8
BLACK
6
CONTINUOUS
10
0.4565996850393701
20
0.3326598031496063
11
0.457664094488189
21
0.3322188976377953
0
LINE
8
BLACK
6
CONTINUOUS
10
0.457664094488189
20
0.3322188976377953
11
0.4584787401574803
21
0.3314042519685039
0
LINE
8
BLACK
6
CONTINUOUS
10
0.4584787401574803
20
0.3314042519685039
11
0.4589196456692913
21
0.330339842519685
0
LINE
8
BLACK
6
CONTINUOUS
10
0.4589196456692913
20
0.330339842519685
11
0.4589196456692913
21
0.3291877165354331
0
LINE
8
BLACK
6
CONTINUOUS
10
0.4589196456692913
20
0.3291877165354331
11
0.4584787401574803
21
0.3281233070866142
0
LINE
8
BLACK
6
CONTINUOUS
10
0.4584787401574803
20
0.3281233070866142
11
0.457664094488189
21
0.3273086614173228
0
LINE
8
BLACK
6
CONTINUOUS
10
0.457664094488189
20
0.3273086614173228
11
0.4565996850393701
21
0.3268677559055118
0
LINE
8
BLACK
6
CONTINUOUS
10
0.4565996850393701
20
0.3268677559055118
11
0.4560236220472441
21
0.3268110236220472
0
LINE
8
BLACK
6
CONTINUOUS
10
0.4560236220472441
20
0.3268110236220472
11
0.3960236220472441
21
0.3268110236220472
0
LINE
8
BLACK
6
CONTINUOUS
10
0.3960236220472441
20
0.3268110236220472
11
0.3954475590551181
21
0.3268677559055118
0
LINE
8
BLACK
6
CONTINUOUS
10
0.3954475590551181
20
0.3268677559055118
11
0.3943831496062992
21
0.3273086614173228
0
LINE
8
BLACK
6
CONTINUOUS
10
0.3943831496062992
20
0.3273086614173228
11
0.3935685039370079
21
0.3281233070866142
0
LINE
8
BLACK
6
CONTINUOUS
10
0.3935685039370079
20
0.3281233070866142
11
0.3931275984251968
21
0.3291877165354331
0
LINE
8
BLACK
6
CONTINUOUS
10
0.3931275984251968
20
0.3291877165354331
11
0.3931275984251968
21
0.330339842519685
0
LINE
8
BLACK
6
CONTINUOUS
10
0.3931275984251968
20
0.330339842519685
11
0.3935685039370079
21
0.3314042519685039
0
LINE
8
BLACK
6
CONTINUOUS
10
0.3935685039370079
20
0.3314042519685039
11
0.3943831496062992
21
0.3322188976377953
0
LINE
8
BLACK
6
CONTINUOUS
10
0.3943831496062992
20
0.3322188976377953
11
0.3954475590551181
21
0.3326598031496063
0
LINE
8
BLACK
6
CONTINUOUS
10
0.3954475590551181
20
0.3326598031496063
11
0.3960236220472441
21
0.3327165354330708
0
LINE
8
BLACK
6
CONTINUOUS
10
0.3960236220472441
20
0.3327165354330708
11
0.4560236220472441
21
0.3327165354330708
0
LINE
8
BLACK
6
CONTINUOUS
10
0.4560236220472441
20
0.3327165354330708
11
0.4565996850393701
21
0.3326598031496063
0
LINE
8
BLACK
6
CONTINUOUS
10
0.3356863385826772
20
0.4133055511811023
11
0.3358661417322835
21
0.4124015748031496
0
LINE
8
BLACK
6
CONTINUOUS
10
0.3358661417322835
20
0.4124015748031496
11
0.3358661417322835
21
0.3419291338582677
0
LINE
8
BLACK
6
CONTINUOUS
10
0.3358661417322835
20
0.3419291338582677
11
0.3783858267716536
21
0.3419291338582677
0
LINE
8
BLACK
6
CONTINUOUS
10
0.3783858267716536
20
0.3419291338582677
11
0.3783858267716536
21
0.4124015748031496
0
LINE
8
BLACK
6
CONTINUOUS
10
0.3783858267716536
20
0.4124015748031496
11
0.3785656299212599
21
0.4133055511811023
0
LINE
8
BLACK
6
CONTINUOUS
10
0.3785656299212599
20
0.4133055511811023
11
0.3798440551181102
21
0.4145839763779527
0
LINE
8
BLACK
6
CONTINUOUS
10
0.3798440551181102
20
0.4145839763779527
11
0.3816520078740158
21
0.4145839763779527
0
LINE
8
BLACK
6
CONTINUOUS
10
0.3816520078740158
20
0.4145839763779527
11
0.3829304330708661
21
0.4133055511811023
0
LINE
8
BLACK
6
CONTINUOUS
10
0.3829304330708661
20
0.4133055511811023
11
0.3831102362204724
21
0.4124015748031496
0
LINE
8
BLACK
6
CONTINUOUS
10
0.3831102362204724
20
0.4124015748031496
11
0.3831102362204724
21
0.3395669291338583
0
LINE
8
BLACK
6
CONTINUOUS
10
0.3831102362204724
20
0.3395669291338583
11
0.3829304330708661
21
0.3386629527559055
0
LINE
8
BLACK
6
CONTINUOUS
10
0.3829304330708661
20
0.3386629527559055
11
0.3816520078740158
21
0.3373845275590551
0
LINE
8
BLACK
6
CONTINUOUS
10
0.3816520078740158
20
0.3373845275590551
11
0.380748031496063
21
0.3372047244094488
0
LINE
8
BLACK
6
CONTINUOUS
10
0.380748031496063
20
0.3372047244094488
11
0.333503937007874
21
0.3372047244094488
0
LINE
8
BLACK
6
CONTINUOUS
10
0.333503937007874
20
0.3372047244094488
11
0.3325999606299213
21
0.3373845275590551
0
LINE
8
BLACK
6
CONTINUOUS
10
0.3325999606299213
20
0.3373845275590551
11
0.3313215354330709
21
0.3386629527559055
0
LINE
8
BLACK
6
CONTINUOUS
10
0.3313215354330709
20
0.3386629527559055
11
0.3311417322834646
21
0.3395669291338583
0
LINE
8
BLACK
6
CONTINUOUS
10
0.3311417322834646
20
0.3395669291338583
11
0.3311417322834646
21
0.4124015748031496
0
LINE
8
BLACK
6
CONTINUOUS
10
0.3311417322834646
20
0.4124015748031496
11
0.3313215354330709
21
0.4133055511811023
0
LINE
8
BLACK
6
CONTINUOUS
10
0.3313215354330709
20
0.4133055511811023
11
0.3325999606299213
21
0.4145839763779527
0
LINE
8
BLACK
6
CONTINUOUS
10
0.3325999606299213
20
0.4145839763779527
11
0.3344079133858268
21
0.4145839763779527
0
LINE
8
BLACK
6
CONTINUOUS
10
0.3344079133858268
20
0.4145839763779527
11
0.3356863385826772
21
0.4133055511811023
0
LINE
8
BLACK
6
CONTINUOUS
10
0.3982060236220472
20
0.4056677559055118
11
0.3983858267716535
21
0.404763779527559
0
LINE
8
BLACK
6
CONTINUOUS
10
0.3983858267716535
20
0.404763779527559
11
0.3983858267716535
21
0.3747637795275591
0
LINE
8
BLACK
6
CONTINUOUS
10
0.3983858267716535
20
0.3747637795275591
11
0.3982060236220472
21
0.3738598031496063
0
LINE
8
BLACK
6
CONTINUOUS
10
0.3982060236220472
20
0.3738598031496063
11
0.3969275984251968
21
0.3725813779527559
0
LINE
8
BLACK
6
CONTINUOUS
10
0.3969275984251968
20
0.3725813779527559
11
0.3951196456692913
21
0.3725813779527559
0
LINE
8
BLACK
6
CONTINUOUS
10
0.3951196456692913
20
0.3725813779527559
11
0.3938412204724409
21
0.3738598031496063
0
LINE
8
BLACK
6
CONTINUOUS
10
0.3938412204724409
20
0.3738598031496063
11
0.3936614173228347
21
0.3747637795275591
0
LINE
8
BLACK
6
CONTINUOUS
10
0.3936614173228347
20
0.3747637795275591
11
0.3936614173228347
21
0.404763779527559
0
LINE
8
BLACK
6
CONTINUOUS
10
0.3936614173228347
20
0.404763779527559
11
0.3938412204724409
21
0.4056677559055118
0
LINE
8
BLACK
6
CONTINUOUS
10
0.3938412204724409
20
0.4056677559055118
11
0.3951196456692913
21
0.4069461811023622
0
LINE
8
BLACK
6
CONTINUOUS
10
0.3951196456692913
20
0.4069461811023622
11
0.3969275984251968
21
0.4069461811023622
0
LINE
8
BLACK
6
CONTINUOUS
10
0.3969275984251968
20
0.4069461811023622
11
0.3982060236220472
21
0.4056677559055118
0
LINE
8
BLACK
6
CONTINUOUS
10
0.4582060236220472
20
0.4056677559055118
11
0.4583858267716535
21
0.404763779527559
0
LINE
8
BLACK
6
CONTINUOUS
10
0.4583858267716535
20
0.404763779527559
11
0.4583858267716535
21
0.3747637795275591
0
LINE
8
BLACK
6
CONTINUOUS
10
0.4583858267716535
20
0.3747637795275591
11
0.4582060236220472
21
0.3738598031496063
0
LINE
8
BLACK
6
CONTINUOUS
10
0.4582060236220472
20
0.3738598031496063
11
0.4569275984251968
21
0.3725813779527559
0
LINE
8
BLACK
6
CONTINUOUS
10
0.4569275984251968
20
0.3725813779527559
11
0.4551196456692913
21
0.3725813779527559
0
LINE
8
BLACK
6
CONTINUOUS
10
0.4551196456692913
20
0.3725813779527559
11
0.4538412204724409
21
0.3738598031496063
0
LINE
8
BLACK
6
CONTINUOUS
10
0.4538412204724409
20
0.3738598031496063
11
0.4536614173228347
21
0.3747637795275591
0
LINE
8
BLACK
6
CONTINUOUS
10
0.4536614173228347
20
0.3747637795275591
11
0.4536614173228347
21
0.404763779527559
0
LINE
8
BLACK
6
CONTINUOUS
10
0.4536614173228347
20
0.404763779527559
11
0.4538412204724409
21
0.4056677559055118
0
LINE
8
BLACK
6
CONTINUOUS
10
0.4538412204724409
20
0.4056677559055118
11
0.4551196456692913
21
0.4069461811023622
0
LINE
8
BLACK
6
CONTINUOUS
10
0.4551196456692913
20
0.4069461811023622
11
0.4569275984251968
21
0.4069461811023622
0
LINE
8
BLACK
6
CONTINUOUS
10
0.4569275984251968
20
0.4069461811023622
11
0.4582060236220472
21
0.4056677559055118
0
LINE
8
BLACK
6
CONTINUOUS
10
0.4898201968503937
20
0.3911708661417323
11
0.49
21
0.3902668897637795
0
LINE
8
BLACK
6
CONTINUOUS
10
0.49
20
0.3902668897637795
11
0.49
21
0.3774496456692913
0
LINE
8
BLACK
6
CONTINUOUS
10
0.49
20
0.3774496456692913
11
0.4898201968503937
21
0.3765456692913386
0
LINE
8
BLACK
6
CONTINUOUS
10
0.4898201968503937
20
0.3765456692913386
11
0.4885417716535433
21
0.3752672440944882
0
LINE
8
BLACK
6
CONTINUOUS
10
0.4885417716535433
20
0.3752672440944882
11
0.4867338188976378
21
0.3752672440944882
0
LINE
8
BLACK
6
CONTINUOUS
10
0.4867338188976378
20
0.3752672440944882
11
0.4854553937007874
21
0.3765456692913386
0
LINE
8
BLACK
6
CONTINUOUS
10
0.4854553937007874
20
0.3765456692913386
11
0.4852755905511811
21
0.3774496456692913
0
LINE
8
BLACK
6
CONTINUOUS
10
0.4852755905511811
20
0.3774496456692913
11
0.4852755905511811
21
0.3902668897637795
0
LINE
8
BLACK
6
CONTINUOUS
10
0.4852755905511811
20
0.3902668897637795
11
0.4854553937007874
21
0.3911708661417323
0
LINE
8
BLACK
6
CONTINUOUS
10
0.4854553937007874
20
0.3911708661417323
11
0.4867338188976378
21
0.3924492913385827
0
LINE
8
BLACK
6
CONTINUOUS
10
0.4867338188976378
20
0.3924492913385827
11
0.4885417716535433
21
0.3924492913385827
0
LINE
8
BLACK
6
CONTINUOUS
10
0.4885417716535433
20
0.3924492913385827
11
0.4898201968503937
21
0.3911708661417323
0
LINE
8
BLACK
6
CONTINUOUS
10
0.5299776771653543
20
0.3911708661417323
11
0.5301574803149606
21
0.3902668897637795
0
LINE
8
BLACK
6
CONTINUOUS
10
0.5301574803149606
20
0.3902668897637795
11
0.5301574803149606
21
0.3774496456692913
0
LINE
8
BLACK
6
CONTINUOUS
10
0.5301574803149606
20
0.3774496456692913
11
0.5299776771653543
21
0.3765456692913386
0
LINE
8
BLACK
6
CONTINUOUS
10
0.5299776771653543
20
0.3765456692913386
11
0.528699251968504
21
0.3752672440944882
0
LINE
8
BLACK
6
CONTINUOUS
10
0.528699251968504
20
0.3752672440944882
11
0.5268912992125984
21
0.3752672440944882
0
LINE
8
BLACK
6
CONTINUOUS
10
0.5268912992125984
20
0.3752672440944882
11
0.525612874015748
21
0.3765456692913386
0
LINE
8
BLACK
6
CONTINUOUS
10
0.525612874015748
20
0.3765456692913386
11
0.5254330708661418
21
0.3774496456692913
0
LINE
8
BLACK
6
CONTINUOUS
10
0.5254330708661418
20
0.3774496456692913
11
0.5254330708661418
21
0.3902668897637795
0
LINE
8
BLACK
6
CONTINUOUS
10
0.5254330708661418
20
0.3902668897637795
11
0.525612874015748
21
0.3911708661417323
0
LINE
8
BLACK
6
CONTINUOUS
10
0.525612874015748
20
0.3911708661417323
11
0.5268912992125984
21
0.3924492913385827
0
LINE
8
BLACK
6
CONTINUOUS
10
0.5268912992125984
20
0.3924492913385827
11
0.528699251968504
21
0.3924492913385827
0
LINE
8
BLACK
6
CONTINUOUS
10
0.528699251968504
20
0.3924492913385827
11
0.5299776771653543
21
0.3911708661417323
0
LINE
8
BLACK
6
CONTINUOUS
10
0.2742690157480315
20
0.395107874015748
11
0.2744488188976378
21
0.3942038976377953
0
LINE
8
BLACK
6
CONTINUOUS
10
0.2744488188976378
20
0.3942038976377953
11
0.2744488188976378
21
0.3813866535433071
0
LINE
8
BLACK
6
CONTINUOUS
10
0.2744488188976378
20
0.3813866535433071
11
0.2742690157480315
21
0.3804826771653543
0
LINE
8
BLACK
6
CONTINUOUS
10
0.2742690157480315
20
0.3804826771653543
11
0.2729905905511811
21
0.3792042519685039
0
LINE
8
BLACK
6
CONTINUOUS
10
0.2729905905511811
20
0.3792042519685039
11
0.2711826377952756
21
0.3792042519685039
0
LINE
8
BLACK
6
CONTINUOUS
10
0.2711826377952756
20
0.3792042519685039
11
0.2699042125984252
21
0.3804826771653543
0
LINE
8
BLACK
6
CONTINUOUS
10
0.2699042125984252
20
0.3804826771653543
11
0.2697244094488189
21
0.3813866535433071
0
LINE
8
BLACK
6
CONTINUOUS
10
0.2697244094488189
20
0.3813866535433071
11
0.2697244094488189
21
0.3942038976377953
0
LINE
8
BLACK
6
CONTINUOUS
10
0.2697244094488189
20
0.3942038976377953
11
0.2699042125984252
21
0.395107874015748
0
LINE
8
BLACK
6
CONTINUOUS
10
0.2699042125984252
20
0.395107874015748
11
0.2711826377952756
21
0.3963862992125984
0
LINE
8
BLACK
6
CONTINUOUS
10
0.2711826377952756
20
0.3963862992125984
11
0.2729905905511811
21
0.3963862992125984
0
LINE
8
BLACK
6
CONTINUOUS
10
0.2729905905511811
20
0.3963862992125984
11
0.2742690157480315
21
0.395107874015748
0
LINE
8
BLACK
6
CONTINUOUS
10
0.3144264960629921
20
0.395107874015748
11
0.3146062992125984
21
0.3942038976377953
0
LINE
8
BLACK
6
CONTINUOUS
10
0.3146062992125984
20
0.3942038976377953
11
0.3146062992125984
21
0.3813866535433071
0
LINE
8
BLACK
6
CONTINUOUS
10
0.3146062992125984
20
0.3813866535433071
11
0.3144264960629921
21
0.3804826771653543
0
LINE
8
BLACK
6
CONTINUOUS
10
0.3144264960629921
20
0.3804826771653543
11
0.3131480708661417
21
0.3792042519685039
0
LINE
8
BLACK
6
CONTINUOUS
10
0.3131480708661417
20
0.3792042519685039
11
0.3113401181102362
21
0.3792042519685039
0
LINE
8
BLACK
6
CONTINUOUS
10
0.3113401181102362
20
0.3792042519685039
11
0.3100616929133858
21
0.3804826771653543
0
LINE
8
BLACK
6
CONTINUOUS
10
0.3100616929133858
20
0.3804826771653543
11
0.3098818897637795
21
0.3813866535433071
0
LINE
8
BLACK
6
CONTINUOUS
10
0.3098818897637795
20
0.3813866535433071
11
0.3098818897637795
21
0.3942038976377953
0
LINE
8
BLACK
6
CONTINUOUS
10
0.3098818897637795
20
0.3942038976377953
11
0.3100616929133858
21
0.395107874015748
0
LINE
8
BLACK
6
CONTINUOUS
10
0.3100616929133858
20
0.395107874015748
11
0.3113401181102362
21
0.3963862992125984
0
LINE
8
BLACK
6
CONTINUOUS
10
0.3113401181102362
20
0.3963862992125984
11
0.3131480708661417
21
0.3963862992125984
0
LINE
8
BLACK
6
CONTINUOUS
10
0.3131480708661417
20
0.3963862992125984
11
0.3144264960629921
21
0.395107874015748
0
LINE
8
BLACK
6
CONTINUOUS
10
0.186226811023622
20
0.4641902755905511
11
0.1875052362204724
21
0.4629118503937008
0
LINE
8
BLACK
6
CONTINUOUS
10
0.1875052362204724
20
0.4629118503937008
11
0.1876850393700787
21
0.462007874015748
0
LINE
8
BLACK
6
CONTINUOUS
10
0.1876850393700787
20
0.462007874015748
11
0.1876850393700787
21
0.3911417322834645
0
LINE
8
BLACK
6
CONTINUOUS
10
0.1876850393700787
20
0.3911417322834645
11
0.1875052362204724
21
0.3902377559055118
0
LINE
8
BLACK
6
CONTINUOUS
10
0.1875052362204724
20
0.3902377559055118
11
0.186226811023622
21
0.3889593307086614
0
LINE
8
BLACK
6
CONTINUOUS
10
0.186226811023622
20
0.3889593307086614
11
0.1844188582677165
21
0.3889593307086614
0
LINE
8
BLACK
6
CONTINUOUS
10
0.1844188582677165
20
0.3889593307086614
11
0.1831404330708661
21
0.3902377559055118
0
LINE
8
BLACK
6
CONTINUOUS
10
0.1831404330708661
20
0.3902377559055118
11
0.1829606299212598
21
0.3911417322834645
0
LINE
8
BLACK
6
CONTINUOUS
10
0.1829606299212598
20
0.3911417322834645
11
0.1829606299212598
21
0.4596456692913386
0
LINE
8
BLACK
6
CONTINUOUS
10
0.1829606299212598
20
0.4596456692913386
11
0.1282362204724409
21
0.4596456692913386
0
LINE
8
BLACK
6
CONTINUOUS
10
0.1282362204724409
20
0.4596456692913386
11
0.1273322440944882
21
0.4598254724409448
0
LINE
8
BLACK
6
CONTINUOUS
10
0.1273322440944882
20
0.4598254724409448
11
0.1260538188976378
21
0.4611038976377952
0
LINE
8
BLACK
6
CONTINUOUS
10
0.1260538188976378
20
0.4611038976377952
11
0.1260538188976378
21
0.4629118503937008
0
LINE
8
BLACK
6
CONTINUOUS
10
0.1260538188976378
20
0.4629118503937008
11
0.1273322440944882
21
0.4641902755905511
0
LINE
8
BLACK
6
CONTINUOUS
10
0.1273322440944882
20
0.4641902755905511
11
0.1282362204724409
21
0.4643700787401575
0
LINE
8
BLACK
6
CONTINUOUS
10
0.1282362204724409
20
0.4643700787401575
11
0.1853228346456693
21
0.4643700787401575
0
LINE
8
BLACK
6
CONTINUOUS
10
0.1853228346456693
20
0.4643700787401575
11
0.186226811023622
21
0.4641902755905511
0
LINE
8
BLACK
6
CONTINUOUS
10
0.5921036614173228
20
0.4113086614173228
11
0.5922834645669292
21
0.4104046850393701
0
LINE
8
BLACK
6
CONTINUOUS
10
0.5922834645669292
20
0.4104046850393701
11
0.5922834645669292
21
0.3975874409448819
0
LINE
8
BLACK
6
CONTINUOUS
10
0.5922834645669292
20
0.3975874409448819
11
0.5921036614173228
21
0.3966834645669291
0
LINE
8
BLACK
6
CONTINUOUS
10
0.5921036614173228
20
0.3966834645669291
11
0.5908252362204724
21
0.3954050393700787
0
LINE
8
BLACK
6
CONTINUOUS
10
0.5908252362204724
20
0.3954050393700787
11
0.5890172834645669
21
0.3954050393700787
0
LINE
8
BLACK
6
CONTINUOUS
10
0.5890172834645669
20
0.3954050393700787
11
0.5877388582677165
21
0.3966834645669291
0
LINE
8
BLACK
6
CONTINUOUS
10
0.5877388582677165
20
0.3966834645669291
11
0.5875590551181102
21
0.3975874409448819
0
LINE
8
BLACK
6
CONTINUOUS
10
0.5875590551181102
20
0.3975874409448819
11
0.5875590551181102
21
0.4104046850393701
0
LINE
8
BLACK
6
CONTINUOUS
10
0.5875590551181102
20
0.4104046850393701
11
0.5877388582677165
21
0.4113086614173228
0
LINE
8
BLACK
6
CONTINUOUS
10
0.5877388582677165
20
0.4113086614173228
11
0.5890172834645669
21
0.4125870866141732
0
LINE
8
BLACK
6
CONTINUOUS
10
0.5890172834645669
20
0.4125870866141732
11
0.5908252362204724
21
0.4125870866141732
0
LINE
8
BLACK
6
CONTINUOUS
10
0.5908252362204724
20
0.4125870866141732
11
0.5921036614173228
21
0.4113086614173228
0
LINE
8
BLACK
6
CONTINUOUS
10
0.6322611417322834
20
0.4113086614173228
11
0.6324409448818897
21
0.4104046850393701
0
LINE
8
BLACK
6
CONTINUOUS
10
0.6324409448818897
20
0.4104046850393701
11
0.6324409448818897
21
0.3975874409448819
0
LINE
8
BLACK
6
CONTINUOUS
10
0.6324409448818897
20
0.3975874409448819
11
0.6322611417322834
21
0.3966834645669291
0
LINE
8
BLACK
6
CONTINUOUS
10
0.6322611417322834
20
0.3966834645669291
11
0.630982716535433
21
0.3954050393700787
0
LINE
8
BLACK
6
CONTINUOUS
10
0.630982716535433
20
0.3954050393700787
11
0.6291747637795275
21
0.3954050393700787
0
LINE
8
BLACK
6
CONTINUOUS
10
0.6291747637795275
20
0.3954050393700787
11
0.6278963385826771
21
0.3966834645669291
0
LINE
8
BLACK
6
CONTINUOUS
10
0.6278963385826771
20
0.3966834645669291
11
0.6277165354330708
21
0.3975874409448819
0
LINE
8
BLACK
6
CONTINUOUS
10
0.6277165354330708
20
0.3975874409448819
11
0.6277165354330708
21
0.4104046850393701
0
LINE
8
BLACK
6
CONTINUOUS
10
0.6277165354330708
20
0.4104046850393701
11
0.6278963385826771
21
0.4113086614173228
0
LINE
8
BLACK
6
CONTINUOUS
10
0.6278963385826771
20
0.4113086614173228
11
0.6291747637795275
21
0.4125870866141732
0
LINE
8
BLACK
6
CONTINUOUS
10
0.6291747637795275
20
0.4125870866141732
11
0.630982716535433
21
0.4125870866141732
0
LINE
8
BLACK
6
CONTINUOUS
10
0.630982716535433
20
0.4125870866141732
11
0.6322611417322834
21
0.4113086614173228
0
LINE
8
BLACK
6
CONTINUOUS
10
0.6821036614173228
20
0.4123125984251969
11
0.6822834645669291
21
0.4114086220472441
0
LINE
8
BLACK
6
CONTINUOUS
10
0.6822834645669291
20
0.4114086220472441
11
0.6822834645669291
21
0.3985913779527559
0
LINE
8
BLACK
6
CONTINUOUS
10
0.6822834645669291
20
0.3985913779527559
11
0.6821036614173228
21
0.3976874015748031
0
LINE
8
BLACK
6
CONTINUOUS
10
0.6821036614173228
20
0.3976874015748031
11
0.6808252362204724
21
0.3964089763779527
0
LINE
8
BLACK
6
CONTINUOUS
10
0.6808252362204724
20
0.3964089763779527
11
0.6790172834645669
21
0.3964089763779527
0
LINE
8
BLACK
6
CONTINUOUS
10
0.6790172834645669
20
0.3964089763779527
11
0.6777388582677165
21
0.3976874015748031
0
LINE
8
BLACK
6
CONTINUOUS
10
0.6777388582677165
20
0.3976874015748031
11
0.6775590551181102
21
0.3985913779527559
0
LINE
8
BLACK
6
CONTINUOUS
10
0.6775590551181102
20
0.3985913779527559
11
0.6775590551181102
21
0.4114086220472441
0
LINE
8
BLACK
6
CONTINUOUS
10
0.6775590551181102
20
0.4114086220472441
11
0.6777388582677165
21
0.4123125984251969
0
LINE
8
BLACK
6
CONTINUOUS
10
0.6777388582677165
20
0.4123125984251969
11
0.6790172834645669
21
0.4135910236220472
0
LINE
8
BLACK
6
CONTINUOUS
10
0.6790172834645669
20
0.4135910236220472
11
0.6808252362204724
21
0.4135910236220472
0
LINE
8
BLACK
6
CONTINUOUS
10
0.6808252362204724
20
0.4135910236220472
11
0.6821036614173228
21
0.4123125984251969
0
LINE
8
BLACK
6
CONTINUOUS
10
0.7222611417322834
20
0.4123125984251969
11
0.7224409448818897
21
0.4114086220472441
0
LINE
8
BLACK
6
CONTINUOUS
10
0.7224409448818897
20
0.4114086220472441
11
0.7224409448818897
21
0.3985913779527559
0
LINE
8
BLACK
6
CONTINUOUS
10
0.7224409448818897
20
0.3985913779527559
11
0.7222611417322834
21
0.3976874015748031
0
LINE
8
BLACK
6
CONTINUOUS
10
0.7222611417322834
20
0.3976874015748031
11
0.720982716535433
21
0.3964089763779527
0
LINE
8
BLACK
6
CONTINUOUS
10
0.720982716535433
20
0.3964089763779527
11
0.7191747637795275
21
0.3964089763779527
0
LINE
8
BLACK
6
CONTINUOUS
10
0.7191747637795275
20
0.3964089763779527
11
0.7178963385826771
21
0.3976874015748031
0
LINE
8
BLACK
6
CONTINUOUS
10
0.7178963385826771
20
0.3976874015748031
11
0.7177165354330709
21
0.3985913779527559
0
LINE
8
BLACK
6
CONTINUOUS
10
0.7177165354330709
20
0.3985913779527559
11
0.7177165354330709
21
0.4114086220472441
0
LINE
8
BLACK
6
CONTINUOUS
10
0.7177165354330709
20
0.4114086220472441
11
0.7178963385826771
21
0.4123125984251969
0
LINE
8
BLACK
6
CONTINUOUS
10
0.7178963385826771
20
0.4123125984251969
11
0.7191747637795275
21
0.4135910236220472
0
LINE
8
BLACK
6
CONTINUOUS
10
0.7191747637795275
20
0.4135910236220472
11
0.720982716535433
21
0.4135910236220472
0
LINE
8
BLACK
6
CONTINUOUS
10
0.720982716535433
20
0.4135910236220472
11
0.7222611417322834
21
0.4123125984251969
0
LINE
8
BLACK
6
CONTINUOUS
10
1.0388086614173229
20
0.4385603543307087
11
1.0400870866141732
21
0.4372819291338583
0
LINE
8
BLACK
6
CONTINUOUS
10
1.0400870866141732
20
0.4372819291338583
11
1.0400870866141732
21
0.4354739763779528
0
LINE
8
BLACK
6
CONTINUOUS
10
1.0400870866141732
20
0.4354739763779528
11
1.0388086614173229
21
0.4341955511811024
0
LINE
8
BLACK
6
CONTINUOUS
10
1.0388086614173229
20
0.4341955511811024
11
1.0379046850393701
21
0.4340157480314961
0
LINE
8
BLACK
6
CONTINUOUS
10
1.0379046850393701
20
0.4340157480314961
11
1.0250874409448818
21
0.4340157480314961
0
LINE
8
BLACK
6
CONTINUOUS
10
1.0250874409448818
20
0.4340157480314961
11
1.0241834645669292
21
0.4341955511811024
0
LINE
8
BLACK
6
CONTINUOUS
10
1.0241834645669292
20
0.4341955511811024
11
1.0229050393700787
21
0.4354739763779528
0
LINE
8
BLACK
6
CONTINUOUS
10
1.0229050393700787
20
0.4354739763779528
11
1.0229050393700787
21
0.4372819291338583
0
LINE
8
BLACK
6
CONTINUOUS
10
1.0229050393700787
20
0.4372819291338583
11
1.0241834645669292
21
0.4385603543307087
0
LINE
8
BLACK
6
CONTINUOUS
10
1.0241834645669292
20
0.4385603543307087
11
1.0250874409448818
21
0.438740157480315
0
LINE
8
BLACK
6
CONTINUOUS
10
1.0250874409448818
20
0.438740157480315
11
1.0379046850393701
21
0.438740157480315
0
LINE
8
BLACK
6
CONTINUOUS
10
1.0379046850393701
20
0.438740157480315
11
1.0388086614173229
21
0.4385603543307087
0
LINE
8
BLACK
6
CONTINUOUS
10
0.4565996850393701
20
0.4526598031496063
11
0.457664094488189
21
0.4522188976377953
0
LINE
8
BLACK
6
CONTINUOUS
10
0.457664094488189
20
0.4522188976377953
11
0.4584787401574803
21
0.4514042519685039
0
LINE
8
BLACK
6
CONTINUOUS
10
0.4584787401574803
20
0.4514042519685039
11
0.4589196456692913
21
0.450339842519685
0
LINE
8
BLACK
6
CONTINUOUS
10
0.4589196456692913
20
0.450339842519685
11
0.4589196456692913
21
0.449187716535433
0
LINE
8
BLACK
6
CONTINUOUS
10
0.4589196456692913
20
0.449187716535433
11
0.4584787401574803
21
0.4481233070866142
0
LINE
8
BLACK
6
CONTINUOUS
10
0.4584787401574803
20
0.4481233070866142
11
0.457664094488189
21
0.4473086614173228
0
LINE
8
BLACK
6
CONTINUOUS
10
0.457664094488189
20
0.4473086614173228
11
0.4565996850393701
21
0.4468677559055118
0
LINE
8
BLACK
6
CONTINUOUS
10
0.4565996850393701
20
0.4468677559055118
11
0.4560236220472441
21
0.4468110236220472
0
LINE
8
BLACK
6
CONTINUOUS
10
0.4560236220472441
20
0.4468110236220472
11
0.3960236220472441
21
0.4468110236220472
0
LINE
8
BLACK
6
CONTINUOUS
10
0.3960236220472441
20
0.4468110236220472
11
0.3954475590551181
21
0.4468677559055118
0
LINE
8
BLACK
6
CONTINUOUS
10
0.3954475590551181
20
0.4468677559055118
11
0.3943831496062992
21
0.4473086614173228
0
LINE
8
BLACK
6
CONTINUOUS
10
0.3943831496062992
20
0.4473086614173228
11
0.3935685039370079
21
0.4481233070866142
0
LINE
8
BLACK
6
CONTINUOUS
10
0.3935685039370079
20
0.4481233070866142
11
0.3931275984251968
21
0.449187716535433
0
LINE
8
BLACK
6
CONTINUOUS
10
0.3931275984251968
20
0.449187716535433
11
0.3931275984251968
21
0.450339842519685
0
LINE
8
BLACK
6
CONTINUOUS
10
0.3931275984251968
20
0.450339842519685
11
0.3935685039370079
21
0.4514042519685039
0
LINE
8
BLACK
6
CONTINUOUS
10
0.3935685039370079
20
0.4514042519685039
11
0.3943831496062992
21
0.4522188976377953
0
LINE
8
BLACK
6
CONTINUOUS
10
0.3943831496062992
20
0.4522188976377953
11
0.3954475590551181
21
0.4526598031496063
0
LINE
8
BLACK
6
CONTINUOUS
10
0.3954475590551181
20
0.4526598031496063
11
0.3960236220472441
21
0.4527165354330708
0
LINE
8
BLACK
6
CONTINUOUS
10
0.3960236220472441
20
0.4527165354330708
11
0.4560236220472441
21
0.4527165354330708
0
LINE
8
BLACK
6
CONTINUOUS
10
0.4560236220472441
20
0.4527165354330708
11
0.4565996850393701
21
0.4526598031496063
0
LINE
8
BLACK
6
CONTINUOUS
10
1.0388086614173229
20
0.4787178346456693
11
1.0400870866141732
21
0.4774394094488189
0
LINE
8
BLACK
6
CONTINUOUS
10
1.0400870866141732
20
0.4774394094488189
11
1.0400870866141732
21
0.4756314566929134
0
LINE
8
BLACK
6
CONTINUOUS
10
1.0400870866141732
20
0.4756314566929134
11
1.0388086614173229
21
0.474353031496063
0
LINE
8
BLACK
6
CONTINUOUS
10
1.0388086614173229
20
0.474353031496063
11
1.0379046850393701
21
0.4741732283464567
0
LINE
8
BLACK
6
CONTINUOUS
10
1.0379046850393701
20
0.4741732283464567
11
1.0250874409448818
21
0.4741732283464567
0
LINE
8
BLACK
6
CONTINUOUS
10
1.0250874409448818
20
0.4741732283464567
11
1.0241834645669292
21
0.474353031496063
0
LINE
8
BLACK
6
CONTINUOUS
10
1.0241834645669292
20
0.474353031496063
11
1.0229050393700787
21
0.4756314566929134
0
LINE
8
BLACK
6
CONTINUOUS
10
1.0229050393700787
20
0.4756314566929134
11
1.0229050393700787
21
0.4774394094488189
0
LINE
8
BLACK
6
CONTINUOUS
10
1.0229050393700787
20
0.4774394094488189
11
1.0241834645669292
21
0.4787178346456693
0
LINE
8
BLACK
6
CONTINUOUS
10
1.0241834645669292
20
0.4787178346456693
11
1.0250874409448818
21
0.4788976377952756
0
LINE
8
BLACK
6
CONTINUOUS
10
1.0250874409448818
20
0.4788976377952756
11
1.0379046850393701
21
0.4788976377952756
0
LINE
8
BLACK
6
CONTINUOUS
10
1.0379046850393701
20
0.4788976377952756
11
1.0388086614173229
21
0.4787178346456693
0
CIRCLE
8
BLACK
10
0.945
20
0.517
40
0.0068897637795276
0
CIRCLE
8
BLACK
10
0.4921259842519685
20
0.5905511811023622
40
0.0068897637795276
0
CIRCLE
8
BLACK
10
0.8533464566929133
20
0.344488188976378
40
0.0068897637795276
0
CIRCLE
8
BLACK
10
0.4921259842519685
20
0.
40
0.0068897637795276
0
CIRCLE
8
BLACK
10
0.8533464566929133
20
0.2460629921259843
40
0.0068897637795276
0
CIRCLE
8
BLACK
10
0.945
20
0.0735511811023622
40
0.0068897637795276
0
CIRCLE
8
BLACK
10
0.8533464566929133
20
0.4232283464566929
40
0.0068897637795276
0
CIRCLE
8
BLACK
10
0.0984251968503937
20
0.5905511811023622
40
0.0068897637795276
0
CIRCLE
8
BLACK
10
0.8858267716535433
20
0.
40
0.0068897637795276
0
CIRCLE
8
BLACK
10
0.8986220472440944
20
0.4735511811023622
40
0.0068897637795276
0
CIRCLE
8
BLACK
10
0.8858267716535433
20
0.5905511811023622
40
0.0068897637795276
0
CIRCLE
8
BLACK
10
0.0984251968503937
20
0.
40
0.0068897637795276
0
CIRCLE
8
BLACK
10
0.898
20
0.117
40
0.0068897637795276
0
CIRCLE
8
BLACK
10
0.8533464566929133
20
0.1673228346456693
40
0.0068897637795276
0
CIRCLE
8
BLACK
10
1.1318897637795275
20
0.1948818897637795
40
0.0068897637795276
0
CIRCLE
8
BLACK
10
1.1318897637795275
20
0.3956692913385826
40
0.0068897637795276
0
CIRCLE
8
BLACK
10
0.9311023622047244
20
0.1948818897637795
40
0.0068897637795276
0
CIRCLE
8
BLACK
10
0.9311023622047244
20
0.3956692913385826
40
0.0068897637795276
  0
ENDSEC
  0
EOF
