  0
SECTION
  2
HEADER
  9
$ANGBASE
  50
0.0
  9
$ANGDIR
  70
1
  9
$MEASUREMENT
  70
0
  0
ENDSEC
  0
SECTION
  2
TABLES
  0
TABLE
  2
LTYPE
  70
4
  0
LTYPE
  5
40F
  2
CONTINUOUS
  70
0
  3
Solid line
  72
65
  73
0
  40
0.0
  0
LTYPE
  5
410
  2
DASHDOT
 70
0
  3
Dash Dot ____ _ ____ _
 72
65
 73
4
 40
2.0
 49
1.25
 49
-0.25
 49
0.25
 49
-0.25
  0
LTYPE
  5
411
  2
DASHED
 70
0
  3
Dashed __ __ __ __ __
 72
65
 73
2
 40
0.75
 49
0.5
 49
-0.25
  0
LTYPE
  5
43B
  2
DOTTED
 70
0
  3
Dotted .  .  .  .
 72
65
 73
2
 40
0.2
 49
0.0
 49
-0.2
  0
ENDTAB
  0
TABLE
  2
STYLE
  70
4
  0
STYLE
  2
KICAD
  70
0
  40
0
  41
1
  42
1
  50
0
  71
0
  3
isocp.shx
  0
STYLE
  2
KICADB
  70
0
  40
0
  41
1
  42
1
  50
0
  71
0
  3
isocp.shx
  0
STYLE
  2
KICADI
  70
0
  40
0
  41
1
  42
1
  50
15
  71
0
  3
isocp.shx
  0
STYLE
  2
KICADBI
  70
0
  40
0
  41
1
  42
1
  50
15
  71
0
  3
isocp.shx
  0
ENDTAB
  0
TABLE
  2
LAYER
  70
1
  0
LAYER
  2
BLACK
  70
0
  62
7
  6
CONTINUOUS
  0
ENDTAB
  0
ENDSEC
  0
SECTION
  2
ENTITIES
0
LINE
8
BLACK
6
CONTINUOUS
10
0.0341899
20
0.570165
11
0.035059
21
0.568918
0
LINE
8
BLACK
6
CONTINUOUS
10
0.035059
20
0.568918
11
0.0371544
21
0.563084
0
LINE
8
BLACK
6
CONTINUOUS
10
0.0371544
20
0.563084
11
0.0391055
21
0.559496
0
LINE
8
BLACK
6
CONTINUOUS
10
0.0391055
20
0.559496
11
0.0420652
21
0.554053
0
LINE
8
BLACK
6
CONTINUOUS
10
0.0420652
20
0.554053
11
0.0420653
21
0.554053
0
LINE
8
BLACK
6
CONTINUOUS
10
0.0420653
20
0.554053
11
0.0420653
21
0.554053
0
LINE
8
BLACK
6
CONTINUOUS
10
0.0420653
20
0.554053
11
0.0482972
21
0.545877
0
LINE
8
BLACK
6
CONTINUOUS
10
0.0482972
20
0.545877
11
0.0557042
21
0.538749
0
LINE
8
BLACK
6
CONTINUOUS
10
0.0557042
20
0.538749
11
0.0594004
21
0.536149
0
LINE
8
BLACK
6
CONTINUOUS
10
0.0594004
20
0.536149
11
0.0641125
21
0.532835
0
LINE
8
BLACK
6
CONTINUOUS
10
0.0641125
20
0.532835
11
0.0641126
21
0.532835
0
LINE
8
BLACK
6
CONTINUOUS
10
0.0641126
20
0.532835
11
0.073325
21
0.528273
0
LINE
8
BLACK
6
CONTINUOUS
10
0.073325
20
0.528273
11
0.0805881
21
0.525975
0
LINE
8
BLACK
6
CONTINUOUS
10
0.0805881
20
0.525975
11
0.0831258
21
0.525172
0
LINE
8
BLACK
6
CONTINUOUS
10
0.0831258
20
0.525172
11
0.0932852
21
0.523602
0
LINE
8
BLACK
6
CONTINUOUS
10
0.0932852
20
0.523602
11
0.100991
21
0.523602
0
LINE
8
BLACK
6
CONTINUOUS
10
0.100991
20
0.523602
11
0.100991
21
0.523602
0
LINE
8
BLACK
6
CONTINUOUS
10
0.100991
20
0.523602
11
0.108675
21
0.524192
0
LINE
8
BLACK
6
CONTINUOUS
10
0.108675
20
0.524192
11
0.108675
21
0.524192
0
LINE
8
BLACK
6
CONTINUOUS
10
0.108675
20
0.524192
11
0.108675
21
0.524192
0
LINE
8
BLACK
6
CONTINUOUS
10
0.108675
20
0.524192
11
0.11286
21
0.525172
0
LINE
8
BLACK
6
CONTINUOUS
10
0.11286
20
0.525172
11
0.118684
21
0.526535
0
LINE
8
BLACK
6
CONTINUOUS
10
0.118684
20
0.526535
11
0.128219
21
0.530377
0
LINE
8
BLACK
6
CONTINUOUS
10
0.128219
20
0.530377
11
0.132352
21
0.532835
0
LINE
8
BLACK
6
CONTINUOUS
10
0.132352
20
0.532835
11
0.137055
21
0.535631
0
LINE
8
BLACK
6
CONTINUOUS
10
0.137055
20
0.535631
11
0.137055
21
0.535631
0
LINE
8
BLACK
6
CONTINUOUS
10
0.137055
20
0.535631
11
0.137055
21
0.535631
0
LINE
8
BLACK
6
CONTINUOUS
10
0.137055
20
0.535631
11
0.144986
21
0.542171
0
LINE
8
BLACK
6
CONTINUOUS
10
0.144986
20
0.542171
11
0.151826
21
0.549846
0
LINE
8
BLACK
6
CONTINUOUS
10
0.151826
20
0.549846
11
0.157414
21
0.558474
0
LINE
8
BLACK
6
CONTINUOUS
10
0.157414
20
0.558474
11
0.161619
21
0.567855
0
LINE
8
BLACK
6
CONTINUOUS
10
0.161619
20
0.567855
11
0.161852
21
0.568705
0
LINE
8
BLACK
6
CONTINUOUS
10
0.161852
20
0.568705
11
0.163006
21
0.57033
0
LINE
8
BLACK
6
CONTINUOUS
10
0.163006
20
0.57033
11
0.164662
21
0.570846
0
LINE
8
BLACK
6
CONTINUOUS
10
0.164662
20
0.570846
11
0.283926
21
0.570846
0
LINE
8
BLACK
6
CONTINUOUS
10
0.283926
20
0.570846
11
0.285799
21
0.570165
0
LINE
8
BLACK
6
CONTINUOUS
10
0.285799
20
0.570165
11
0.286795
21
0.568439
0
LINE
8
BLACK
6
CONTINUOUS
10
0.286795
20
0.568439
11
0.286449
21
0.566476
0
LINE
8
BLACK
6
CONTINUOUS
10
0.286449
20
0.566476
11
0.285545
21
0.565511
0
LINE
8
BLACK
6
CONTINUOUS
10
0.285545
20
0.565511
11
0.283059
21
0.56385
0
LINE
8
BLACK
6
CONTINUOUS
10
0.283059
20
0.56385
11
0.283059
21
0.56385
0
LINE
8
BLACK
6
CONTINUOUS
10
0.283059
20
0.56385
11
0.27867
21
0.55946
0
LINE
8
BLACK
6
CONTINUOUS
10
0.27867
20
0.55946
11
0.27867
21
0.55946
0
LINE
8
BLACK
6
CONTINUOUS
10
0.27867
20
0.55946
11
0.275221
21
0.554298
0
LINE
8
BLACK
6
CONTINUOUS
10
0.275221
20
0.554298
11
0.273867
21
0.551031
0
LINE
8
BLACK
6
CONTINUOUS
10
0.273867
20
0.551031
11
0.272521
21
0.549561
0
LINE
8
BLACK
6
CONTINUOUS
10
0.272521
20
0.549561
11
0.271176
21
0.549232
0
LINE
8
BLACK
6
CONTINUOUS
10
0.271176
20
0.549232
11
0.244363
21
0.549232
0
LINE
8
BLACK
6
CONTINUOUS
10
0.244363
20
0.549232
11
0.241553
21
0.548823
0
LINE
8
BLACK
6
CONTINUOUS
10
0.241553
20
0.548823
11
0.237219
21
0.546704
0
LINE
8
BLACK
6
CONTINUOUS
10
0.237219
20
0.546704
11
0.233808
21
0.543293
0
LINE
8
BLACK
6
CONTINUOUS
10
0.233808
20
0.543293
11
0.231689
21
0.538959
0
LINE
8
BLACK
6
CONTINUOUS
10
0.231689
20
0.538959
11
0.23128
21
0.536149
0
LINE
8
BLACK
6
CONTINUOUS
10
0.23128
20
0.536149
11
0.23128
21
0.487473
0
LINE
8
BLACK
6
CONTINUOUS
10
0.23128
20
0.487473
11
0.231689
21
0.484663
0
LINE
8
BLACK
6
CONTINUOUS
10
0.231689
20
0.484663
11
0.233808
21
0.480329
0
LINE
8
BLACK
6
CONTINUOUS
10
0.233808
20
0.480329
11
0.233808
21
0.480329
0
LINE
8
BLACK
6
CONTINUOUS
10
0.233808
20
0.480329
11
0.237219
21
0.476918
0
LINE
8
BLACK
6
CONTINUOUS
10
0.237219
20
0.476918
11
0.23752
21
0.476771
0
LINE
8
BLACK
6
CONTINUOUS
10
0.23752
20
0.476771
11
0.238903
21
0.475336
0
LINE
8
BLACK
6
CONTINUOUS
10
0.238903
20
0.475336
11
0.239154
21
0.474154
0
LINE
8
BLACK
6
CONTINUOUS
10
0.239154
20
0.474154
11
0.239154
21
0.459745
0
LINE
8
BLACK
6
CONTINUOUS
10
0.239154
20
0.459745
11
0.239092
21
0.459147
0
LINE
8
BLACK
6
CONTINUOUS
10
0.239092
20
0.459147
11
0.238975
21
0.45859
0
LINE
8
BLACK
6
CONTINUOUS
10
0.238975
20
0.45859
11
0.238975
21
0.45859
0
LINE
8
BLACK
6
CONTINUOUS
10
0.238975
20
0.45859
11
0.239142
21
0.457245
0
LINE
8
BLACK
6
CONTINUOUS
10
0.239142
20
0.457245
11
0.239154
21
0.457065
0
LINE
8
BLACK
6
CONTINUOUS
10
0.239154
20
0.457065
11
0.239154
21
0.456868
0
LINE
8
BLACK
6
CONTINUOUS
10
0.239154
20
0.456868
11
0.239295
21
0.456022
0
LINE
8
BLACK
6
CONTINUOUS
10
0.239295
20
0.456022
11
0.239544
21
0.45402
0
LINE
8
BLACK
6
CONTINUOUS
10
0.239544
20
0.45402
11
0.239544
21
0.45402
0
LINE
8
BLACK
6
CONTINUOUS
10
0.239544
20
0.45402
11
0.239613
21
0.453789
0
LINE
8
BLACK
6
CONTINUOUS
10
0.239613
20
0.453789
11
0.2396
21
0.453785
0
LINE
8
BLACK
6
CONTINUOUS
10
0.2396
20
0.453785
11
0.239629
21
0.453693
0
LINE
8
BLACK
6
CONTINUOUS
10
0.239629
20
0.453693
11
0.239642
21
0.453698
0
LINE
8
BLACK
6
CONTINUOUS
10
0.239642
20
0.453698
11
0.239721
21
0.453469
0
LINE
8
BLACK
6
CONTINUOUS
10
0.239721
20
0.453469
11
0.240681
21
0.451695
0
LINE
8
BLACK
6
CONTINUOUS
10
0.240681
20
0.451695
11
0.241567
21
0.449883
0
LINE
8
BLACK
6
CONTINUOUS
10
0.241567
20
0.449883
11
0.241707
21
0.449686
0
LINE
8
BLACK
6
CONTINUOUS
10
0.241707
20
0.449686
11
0.241696
21
0.449678
0
LINE
8
BLACK
6
CONTINUOUS
10
0.241696
20
0.449678
11
0.241753
21
0.449601
0
LINE
8
BLACK
6
CONTINUOUS
10
0.241753
20
0.449601
11
0.241764
21
0.449609
0
LINE
8
BLACK
6
CONTINUOUS
10
0.241764
20
0.449609
11
0.241913
21
0.449419
0
LINE
8
BLACK
6
CONTINUOUS
10
0.241913
20
0.449419
11
0.242624
21
0.448764
0
LINE
8
BLACK
6
CONTINUOUS
10
0.242624
20
0.448764
11
0.243397
21
0.448053
0
LINE
8
BLACK
6
CONTINUOUS
10
0.243397
20
0.448053
11
0.264718
21
0.426732
0
LINE
8
BLACK
6
CONTINUOUS
10
0.264718
20
0.426732
11
0.26556
21
0.424926
0
LINE
8
BLACK
6
CONTINUOUS
10
0.26556
20
0.424926
11
0.265571
21
0.424672
0
LINE
8
BLACK
6
CONTINUOUS
10
0.265571
20
0.424672
11
0.265571
21
0.408888
0
LINE
8
BLACK
6
CONTINUOUS
10
0.265571
20
0.408888
11
0.266183
21
0.405023
0
LINE
8
BLACK
6
CONTINUOUS
10
0.266183
20
0.405023
11
0.268557
21
0.400364
0
LINE
8
BLACK
6
CONTINUOUS
10
0.268557
20
0.400364
11
0.272254
21
0.396667
0
LINE
8
BLACK
6
CONTINUOUS
10
0.272254
20
0.396667
11
0.274285
21
0.395632
0
LINE
8
BLACK
6
CONTINUOUS
10
0.274285
20
0.395632
11
0.276913
21
0.394293
0
LINE
8
BLACK
6
CONTINUOUS
10
0.276913
20
0.394293
11
0.276913
21
0.394293
0
LINE
8
BLACK
6
CONTINUOUS
10
0.276913
20
0.394293
11
0.280778
21
0.393681
0
LINE
8
BLACK
6
CONTINUOUS
10
0.280778
20
0.393681
11
0.280778
21
0.393681
0
LINE
8
BLACK
6
CONTINUOUS
10
0.280778
20
0.393681
11
0.303553
21
0.393681
0
LINE
8
BLACK
6
CONTINUOUS
10
0.303553
20
0.393681
11
0.307418
21
0.394293
0
LINE
8
BLACK
6
CONTINUOUS
10
0.307418
20
0.394293
11
0.312077
21
0.396667
0
LINE
8
BLACK
6
CONTINUOUS
10
0.312077
20
0.396667
11
0.315774
21
0.400364
0
LINE
8
BLACK
6
CONTINUOUS
10
0.315774
20
0.400364
11
0.317837
21
0.404414
0
LINE
8
BLACK
6
CONTINUOUS
10
0.317837
20
0.404414
11
0.319295
21
0.405773
0
LINE
8
BLACK
6
CONTINUOUS
10
0.319295
20
0.405773
11
0.321285
21
0.405877
0
LINE
8
BLACK
6
CONTINUOUS
10
0.321285
20
0.405877
11
0.322876
21
0.404678
0
LINE
8
BLACK
6
CONTINUOUS
10
0.322876
20
0.404678
11
0.323346
21
0.403091
0
LINE
8
BLACK
6
CONTINUOUS
10
0.323346
20
0.403091
11
0.323346
21
0.398678
0
LINE
8
BLACK
6
CONTINUOUS
10
0.323346
20
0.398678
11
0.323603
21
0.396296
0
LINE
8
BLACK
6
CONTINUOUS
10
0.323603
20
0.396296
11
0.323603
21
0.396295
0
LINE
8
BLACK
6
CONTINUOUS
10
0.323603
20
0.396295
11
0.325612
21
0.390907
0
LINE
8
BLACK
6
CONTINUOUS
10
0.325612
20
0.390907
11
0.325612
21
0.390907
0
LINE
8
BLACK
6
CONTINUOUS
10
0.325612
20
0.390907
11
0.329059
21
0.386303
0
LINE
8
BLACK
6
CONTINUOUS
10
0.329059
20
0.386303
11
0.329059
21
0.386303
0
LINE
8
BLACK
6
CONTINUOUS
10
0.329059
20
0.386303
11
0.333312
21
0.383119
0
LINE
8
BLACK
6
CONTINUOUS
10
0.333312
20
0.383119
11
0.334402
21
0.381451
0
LINE
8
BLACK
6
CONTINUOUS
10
0.334402
20
0.381451
11
0.334479
21
0.380786
0
LINE
8
BLACK
6
CONTINUOUS
10
0.334479
20
0.380786
11
0.334478
21
0.375472
0
LINE
8
BLACK
6
CONTINUOUS
10
0.334478
20
0.375472
11
0.333796
21
0.373599
0
LINE
8
BLACK
6
CONTINUOUS
10
0.333796
20
0.373599
11
0.33207
21
0.372603
0
LINE
8
BLACK
6
CONTINUOUS
10
0.33207
20
0.372603
11
0.331564
21
0.372559
0
LINE
8
BLACK
6
CONTINUOUS
10
0.331564
20
0.372559
11
0.318918
21
0.372559
0
LINE
8
BLACK
6
CONTINUOUS
10
0.318918
20
0.372559
11
0.317046
21
0.373241
0
LINE
8
BLACK
6
CONTINUOUS
10
0.317046
20
0.373241
11
0.316323
21
0.37415
0
LINE
8
BLACK
6
CONTINUOUS
10
0.316323
20
0.37415
11
0.315774
21
0.375226
0
LINE
8
BLACK
6
CONTINUOUS
10
0.315774
20
0.375226
11
0.312077
21
0.378924
0
LINE
8
BLACK
6
CONTINUOUS
10
0.312077
20
0.378924
11
0.307418
21
0.381297
0
LINE
8
BLACK
6
CONTINUOUS
10
0.307418
20
0.381297
11
0.307418
21
0.381297
0
LINE
8
BLACK
6
CONTINUOUS
10
0.307418
20
0.381297
11
0.303553
21
0.381909
0
LINE
8
BLACK
6
CONTINUOUS
10
0.303553
20
0.381909
11
0.303553
21
0.381909
0
LINE
8
BLACK
6
CONTINUOUS
10
0.303553
20
0.381909
11
0.290553
21
0.381909
0
LINE
8
BLACK
6
CONTINUOUS
10
0.290553
20
0.381909
11
0.28868
21
0.382591
0
LINE
8
BLACK
6
CONTINUOUS
10
0.28868
20
0.382591
11
0.288493
21
0.382763
0
LINE
8
BLACK
6
CONTINUOUS
10
0.288493
20
0.382763
11
0.28834
21
0.382915
0
LINE
8
BLACK
6
CONTINUOUS
10
0.28834
20
0.382915
11
0.287425
21
0.383382
0
LINE
8
BLACK
6
CONTINUOUS
10
0.287425
20
0.383382
11
0.287035
21
0.383621
0
LINE
8
BLACK
6
CONTINUOUS
10
0.287035
20
0.383621
11
0.286204
21
0.384224
0
LINE
8
BLACK
6
CONTINUOUS
10
0.286204
20
0.384224
11
0.286204
21
0.384224
0
LINE
8
BLACK
6
CONTINUOUS
10
0.286204
20
0.384224
11
0.285227
21
0.384542
0
LINE
8
BLACK
6
CONTINUOUS
10
0.285227
20
0.384542
11
0.284805
21
0.384717
0
LINE
8
BLACK
6
CONTINUOUS
10
0.284805
20
0.384717
11
0.28389
21
0.385183
0
LINE
8
BLACK
6
CONTINUOUS
10
0.28389
20
0.385183
11
0.28389
21
0.385183
0
LINE
8
BLACK
6
CONTINUOUS
10
0.28389
20
0.385183
11
0.282875
21
0.385344
0
LINE
8
BLACK
6
CONTINUOUS
10
0.282875
20
0.385344
11
0.282431
21
0.38545
0
LINE
8
BLACK
6
CONTINUOUS
10
0.282431
20
0.38545
11
0.281768
21
0.385666
0
LINE
8
BLACK
6
CONTINUOUS
10
0.281768
20
0.385666
11
0.281454
21
0.385768
0
LINE
8
BLACK
6
CONTINUOUS
10
0.281454
20
0.385768
11
0.281454
21
0.385768
0
LINE
8
BLACK
6
CONTINUOUS
10
0.281454
20
0.385768
11
0.269137
21
0.385768
0
LINE
8
BLACK
6
CONTINUOUS
10
0.269137
20
0.385768
11
0.267265
21
0.386449
0
LINE
8
BLACK
6
CONTINUOUS
10
0.267265
20
0.386449
11
0.266998
21
0.386728
0
LINE
8
BLACK
6
CONTINUOUS
10
0.266998
20
0.386728
11
0.266996
21
0.386727
0
LINE
8
BLACK
6
CONTINUOUS
10
0.266996
20
0.386727
11
0.266861
21
0.386862
0
LINE
8
BLACK
6
CONTINUOUS
10
0.266861
20
0.386862
11
0.261923
21
0.390651
0
LINE
8
BLACK
6
CONTINUOUS
10
0.261923
20
0.390651
11
0.256172
21
0.393033
0
LINE
8
BLACK
6
CONTINUOUS
10
0.256172
20
0.393033
11
0.25
21
0.393846
0
LINE
8
BLACK
6
CONTINUOUS
10
0.25
20
0.393846
11
0.243828
21
0.393033
0
LINE
8
BLACK
6
CONTINUOUS
10
0.243828
20
0.393033
11
0.240796
21
0.391777
0
LINE
8
BLACK
6
CONTINUOUS
10
0.240796
20
0.391777
11
0.238805
21
0.39169
0
LINE
8
BLACK
6
CONTINUOUS
10
0.238805
20
0.39169
11
0.237621
21
0.392409
0
LINE
8
BLACK
6
CONTINUOUS
10
0.237621
20
0.392409
11
0.234398
21
0.395632
0
LINE
8
BLACK
6
CONTINUOUS
10
0.234398
20
0.395632
11
0.228764
21
0.398964
0
LINE
8
BLACK
6
CONTINUOUS
10
0.228764
20
0.398964
11
0.222478
21
0.40079
0
LINE
8
BLACK
6
CONTINUOUS
10
0.222478
20
0.40079
11
0.22101
21
0.400906
0
LINE
8
BLACK
6
CONTINUOUS
10
0.22101
20
0.400906
11
0.200835
21
0.400906
0
LINE
8
BLACK
6
CONTINUOUS
10
0.200835
20
0.400906
11
0.200835
21
0.380906
0
LINE
8
BLACK
6
CONTINUOUS
10
0.200835
20
0.380906
11
0.218394
21
0.380906
0
LINE
8
BLACK
6
CONTINUOUS
10
0.218394
20
0.380906
11
0.220654
21
0.380456
0
LINE
8
BLACK
6
CONTINUOUS
10
0.220654
20
0.380456
11
0.22257
21
0.379176
0
LINE
8
BLACK
6
CONTINUOUS
10
0.22257
20
0.379176
11
0.22385
21
0.37726
0
LINE
8
BLACK
6
CONTINUOUS
10
0.22385
20
0.37726
11
0.224299
21
0.375
0
LINE
8
BLACK
6
CONTINUOUS
10
0.224299
20
0.375
11
0.224299
21
0.363189
0
LINE
8
BLACK
6
CONTINUOUS
10
0.224299
20
0.363189
11
0.22385
21
0.360929
0
LINE
8
BLACK
6
CONTINUOUS
10
0.22385
20
0.360929
11
0.22257
21
0.359013
0
LINE
8
BLACK
6
CONTINUOUS
10
0.22257
20
0.359013
11
0.220654
21
0.357733
0
LINE
8
BLACK
6
CONTINUOUS
10
0.220654
20
0.357733
11
0.218394
21
0.357283
0
LINE
8
BLACK
6
CONTINUOUS
10
0.218394
20
0.357283
11
0.163276
21
0.357283
0
LINE
8
BLACK
6
CONTINUOUS
10
0.163276
20
0.357283
11
0.161016
21
0.357733
0
LINE
8
BLACK
6
CONTINUOUS
10
0.161016
20
0.357733
11
0.1591
21
0.359013
0
LINE
8
BLACK
6
CONTINUOUS
10
0.1591
20
0.359013
11
0.15782
21
0.360929
0
LINE
8
BLACK
6
CONTINUOUS
10
0.15782
20
0.360929
11
0.15737
21
0.363189
0
LINE
8
BLACK
6
CONTINUOUS
10
0.15737
20
0.363189
11
0.15737
21
0.375
0
LINE
8
BLACK
6
CONTINUOUS
10
0.15737
20
0.375
11
0.15782
21
0.37726
0
LINE
8
BLACK
6
CONTINUOUS
10
0.15782
20
0.37726
11
0.1591
21
0.379176
0
LINE
8
BLACK
6
CONTINUOUS
10
0.1591
20
0.379176
11
0.161016
21
0.380456
0
LINE
8
BLACK
6
CONTINUOUS
10
0.161016
20
0.380456
11
0.163276
21
0.380906
0
LINE
8
BLACK
6
CONTINUOUS
10
0.163276
20
0.380906
11
0.180835
21
0.380906
0
LINE
8
BLACK
6
CONTINUOUS
10
0.180835
20
0.380906
11
0.180835
21
0.400906
0
LINE
8
BLACK
6
CONTINUOUS
10
0.180835
20
0.400906
11
0.160659
21
0.400905
0
LINE
8
BLACK
6
CONTINUOUS
10
0.160659
20
0.400905
11
0.160659
21
0.400905
0
LINE
8
BLACK
6
CONTINUOUS
10
0.160659
20
0.400905
11
0.159191
21
0.40079
0
LINE
8
BLACK
6
CONTINUOUS
10
0.159191
20
0.40079
11
0.152905
21
0.398964
0
LINE
8
BLACK
6
CONTINUOUS
10
0.152905
20
0.398964
11
0.147272
21
0.395632
0
LINE
8
BLACK
6
CONTINUOUS
10
0.147272
20
0.395632
11
0.142644
21
0.391004
0
LINE
8
BLACK
6
CONTINUOUS
10
0.142644
20
0.391004
11
0.139312
21
0.38537
0
LINE
8
BLACK
6
CONTINUOUS
10
0.139312
20
0.38537
11
0.137467
21
0.379022
0
LINE
8
BLACK
6
CONTINUOUS
10
0.137467
20
0.379022
11
0.13629
21
0.377413
0
LINE
8
BLACK
6
CONTINUOUS
10
0.13629
20
0.377413
11
0.134355
21
0.376938
0
LINE
8
BLACK
6
CONTINUOUS
10
0.134355
20
0.376938
11
0.132567
21
0.377818
0
LINE
8
BLACK
6
CONTINUOUS
10
0.132567
20
0.377818
11
0.131978
21
0.378719
0
LINE
8
BLACK
6
CONTINUOUS
10
0.131978
20
0.378719
11
0.130651
21
0.381923
0
LINE
8
BLACK
6
CONTINUOUS
10
0.130651
20
0.381923
11
0.126862
21
0.386861
0
LINE
8
BLACK
6
CONTINUOUS
10
0.126862
20
0.386861
11
0.126861
21
0.386862
0
LINE
8
BLACK
6
CONTINUOUS
10
0.126861
20
0.386862
11
0.121923
21
0.390651
0
LINE
8
BLACK
6
CONTINUOUS
10
0.121923
20
0.390651
11
0.116172
21
0.393033
0
LINE
8
BLACK
6
CONTINUOUS
10
0.116172
20
0.393033
11
0.11
21
0.393846
0
LINE
8
BLACK
6
CONTINUOUS
10
0.11
20
0.393846
11
0.103828
21
0.393033
0
LINE
8
BLACK
6
CONTINUOUS
10
0.103828
20
0.393033
11
0.103828
21
0.393033
0
LINE
8
BLACK
6
CONTINUOUS
10
0.103828
20
0.393033
11
0.0980771
21
0.390651
0
LINE
8
BLACK
6
CONTINUOUS
10
0.0980771
20
0.390651
11
0.0931386
21
0.386862
0
LINE
8
BLACK
6
CONTINUOUS
10
0.0931386
20
0.386862
11
0.0931384
21
0.386861
0
LINE
8
BLACK
6
CONTINUOUS
10
0.0931384
20
0.386861
11
0.089349
21
0.381923
0
LINE
8
BLACK
6
CONTINUOUS
10
0.089349
20
0.381923
11
0.0869667
21
0.376172
0
LINE
8
BLACK
6
CONTINUOUS
10
0.0869667
20
0.376172
11
0.0869667
21
0.376172
0
LINE
8
BLACK
6
CONTINUOUS
10
0.0869667
20
0.376172
11
0.0861543
21
0.37
0
LINE
8
BLACK
6
CONTINUOUS
10
0.0861543
20
0.37
11
0.0861543
21
0.369809
0
LINE
8
BLACK
6
CONTINUOUS
10
0.0861543
20
0.369809
11
0.0860917
21
0.369809
0
LINE
8
BLACK
6
CONTINUOUS
10
0.0860917
20
0.369809
11
0.0857151
21
0.368112
0
LINE
8
BLACK
6
CONTINUOUS
10
0.0857151
20
0.368112
11
0.0853183
21
0.367617
0
LINE
8
BLACK
6
CONTINUOUS
10
0.0853183
20
0.367617
11
0.0657291
21
0.348028
0
LINE
8
BLACK
6
CONTINUOUS
10
0.0657291
20
0.348028
11
0.065729
21
0.348028
0
LINE
8
BLACK
6
CONTINUOUS
10
0.065729
20
0.348028
11
0.065729
21
0.348028
0
LINE
8
BLACK
6
CONTINUOUS
10
0.065729
20
0.348028
11
0.0657289
21
0.348028
0
LINE
8
BLACK
6
CONTINUOUS
10
0.0657289
20
0.348028
11
0.0648862
21
0.347185
0
LINE
8
BLACK
6
CONTINUOUS
10
0.0648862
20
0.347185
11
0.0648405
21
0.347139
0
LINE
8
BLACK
6
CONTINUOUS
10
0.0648405
20
0.347139
11
0.0643743
21
0.346224
0
LINE
8
BLACK
6
CONTINUOUS
10
0.0643743
20
0.346224
11
0.0641356
21
0.345835
0
LINE
8
BLACK
6
CONTINUOUS
10
0.0641356
20
0.345835
11
0.0635316
21
0.345004
0
LINE
8
BLACK
6
CONTINUOUS
10
0.0635316
20
0.345004
11
0.0635316
21
0.345003
0
LINE
8
BLACK
6
CONTINUOUS
10
0.0635316
20
0.345003
11
0.0632142
21
0.344027
0
LINE
8
BLACK
6
CONTINUOUS
10
0.0632142
20
0.344027
11
0.0630394
21
0.343604
0
LINE
8
BLACK
6
CONTINUOUS
10
0.0630394
20
0.343604
11
0.0625729
21
0.342689
0
LINE
8
BLACK
6
CONTINUOUS
10
0.0625729
20
0.342689
11
0.0625729
21
0.342689
0
LINE
8
BLACK
6
CONTINUOUS
10
0.0625729
20
0.342689
11
0.0624122
21
0.341675
0
LINE
8
BLACK
6
CONTINUOUS
10
0.0624122
20
0.341675
11
0.0623056
21
0.34123
0
LINE
8
BLACK
6
CONTINUOUS
10
0.0623056
20
0.34123
11
0.062017
21
0.340342
0
LINE
8
BLACK
6
CONTINUOUS
10
0.062017
20
0.340342
11
0.0619882
21
0.340253
0
LINE
8
BLACK
6
CONTINUOUS
10
0.0619882
20
0.340253
11
0.0619882
21
0.249747
0
LINE
8
BLACK
6
CONTINUOUS
10
0.0619882
20
0.249747
11
0.0623056
21
0.24877
0
LINE
8
BLACK
6
CONTINUOUS
10
0.0623056
20
0.24877
11
0.0624122
21
0.248325
0
LINE
8
BLACK
6
CONTINUOUS
10
0.0624122
20
0.248325
11
0.0625729
21
0.247311
0
LINE
8
BLACK
6
CONTINUOUS
10
0.0625729
20
0.247311
11
0.062573
21
0.247311
0
LINE
8
BLACK
6
CONTINUOUS
10
0.062573
20
0.247311
11
0.0630393
21
0.246396
0
LINE
8
BLACK
6
CONTINUOUS
10
0.0630393
20
0.246396
11
0.0632142
21
0.245973
0
LINE
8
BLACK
6
CONTINUOUS
10
0.0632142
20
0.245973
11
0.0635316
21
0.244997
0
LINE
8
BLACK
6
CONTINUOUS
10
0.0635316
20
0.244997
11
0.0635316
21
0.244996
0
LINE
8
BLACK
6
CONTINUOUS
10
0.0635316
20
0.244996
11
0.0641354
21
0.244165
0
LINE
8
BLACK
6
CONTINUOUS
10
0.0641354
20
0.244165
11
0.0643741
21
0.243776
0
LINE
8
BLACK
6
CONTINUOUS
10
0.0643741
20
0.243776
11
0.0648405
21
0.242861
0
LINE
8
BLACK
6
CONTINUOUS
10
0.0648405
20
0.242861
11
0.0656899
21
0.242011
0
LINE
8
BLACK
6
CONTINUOUS
10
0.0656899
20
0.242011
11
0.0656904
21
0.242011
0
LINE
8
BLACK
6
CONTINUOUS
10
0.0656904
20
0.242011
11
0.0983158
21
0.209385
0
LINE
8
BLACK
6
CONTINUOUS
10
0.0983158
20
0.209385
11
0.0983162
21
0.209385
0
LINE
8
BLACK
6
CONTINUOUS
10
0.0983162
20
0.209385
11
0.0991598
21
0.208541
0
LINE
8
BLACK
6
CONTINUOUS
10
0.0991598
20
0.208541
11
0.100075
21
0.208075
0
LINE
8
BLACK
6
CONTINUOUS
10
0.100075
20
0.208075
11
0.100464
21
0.207836
0
LINE
8
BLACK
6
CONTINUOUS
10
0.100464
20
0.207836
11
0.101296
21
0.207232
0
LINE
8
BLACK
6
CONTINUOUS
10
0.101296
20
0.207232
11
0.102273
21
0.206915
0
LINE
8
BLACK
6
CONTINUOUS
10
0.102273
20
0.206915
11
0.102695
21
0.20674
0
LINE
8
BLACK
6
CONTINUOUS
10
0.102695
20
0.20674
11
0.10361
21
0.206274
0
LINE
8
BLACK
6
CONTINUOUS
10
0.10361
20
0.206274
11
0.10361
21
0.206274
0
LINE
8
BLACK
6
CONTINUOUS
10
0.10361
20
0.206274
11
0.104625
21
0.206113
0
LINE
8
BLACK
6
CONTINUOUS
10
0.104625
20
0.206113
11
0.105069
21
0.206006
0
LINE
8
BLACK
6
CONTINUOUS
10
0.105069
20
0.206006
11
0.106046
21
0.205689
0
LINE
8
BLACK
6
CONTINUOUS
10
0.106046
20
0.205689
11
0.107302
21
0.205689
0
LINE
8
BLACK
6
CONTINUOUS
10
0.107302
20
0.205689
11
0.152416
21
0.205689
0
LINE
8
BLACK
6
CONTINUOUS
10
0.152416
20
0.205689
11
0.154289
21
0.205007
0
LINE
8
BLACK
6
CONTINUOUS
10
0.154289
20
0.205007
11
0.154476
21
0.204836
0
LINE
8
BLACK
6
CONTINUOUS
10
0.154476
20
0.204836
11
0.155146
21
0.204165
0
LINE
8
BLACK
6
CONTINUOUS
10
0.155146
20
0.204165
11
0.159284
21
0.202143
0
LINE
8
BLACK
6
CONTINUOUS
10
0.159284
20
0.202143
11
0.161966
21
0.201752
0
LINE
8
BLACK
6
CONTINUOUS
10
0.161966
20
0.201752
11
0.161966
21
0.201752
0
LINE
8
BLACK
6
CONTINUOUS
10
0.161966
20
0.201752
11
0.219703
21
0.201752
0
LINE
8
BLACK
6
CONTINUOUS
10
0.219703
20
0.201752
11
0.219703
21
0.201752
0
LINE
8
BLACK
6
CONTINUOUS
10
0.219703
20
0.201752
11
0.222386
21
0.202143
0
LINE
8
BLACK
6
CONTINUOUS
10
0.222386
20
0.202143
11
0.226523
21
0.204165
0
LINE
8
BLACK
6
CONTINUOUS
10
0.226523
20
0.204165
11
0.227193
21
0.204836
0
LINE
8
BLACK
6
CONTINUOUS
10
0.227193
20
0.204836
11
0.228999
21
0.205678
0
LINE
8
BLACK
6
CONTINUOUS
10
0.228999
20
0.205678
11
0.229253
21
0.205689
0
LINE
8
BLACK
6
CONTINUOUS
10
0.229253
20
0.205689
11
0.235805
21
0.205689
0
LINE
8
BLACK
6
CONTINUOUS
10
0.235805
20
0.205689
11
0.237678
21
0.205007
0
LINE
8
BLACK
6
CONTINUOUS
10
0.237678
20
0.205007
11
0.237865
21
0.204836
0
LINE
8
BLACK
6
CONTINUOUS
10
0.237865
20
0.204836
11
0.255392
21
0.187309
0
LINE
8
BLACK
6
CONTINUOUS
10
0.255392
20
0.187309
11
0.258924
21
0.183778
0
LINE
8
BLACK
6
CONTINUOUS
10
0.258924
20
0.183778
11
0.259839
21
0.183311
0
LINE
8
BLACK
6
CONTINUOUS
10
0.259839
20
0.183311
11
0.260228
21
0.183072
0
LINE
8
BLACK
6
CONTINUOUS
10
0.260228
20
0.183072
11
0.261059
21
0.182469
0
LINE
8
BLACK
6
CONTINUOUS
10
0.261059
20
0.182469
11
0.261528
21
0.182316
0
LINE
8
BLACK
6
CONTINUOUS
10
0.261528
20
0.182316
11
0.262036
21
0.182151
0
LINE
8
BLACK
6
CONTINUOUS
10
0.262036
20
0.182151
11
0.262459
21
0.181976
0
LINE
8
BLACK
6
CONTINUOUS
10
0.262459
20
0.181976
11
0.263374
21
0.18151
0
LINE
8
BLACK
6
CONTINUOUS
10
0.263374
20
0.18151
11
0.263374
21
0.18151
0
LINE
8
BLACK
6
CONTINUOUS
10
0.263374
20
0.18151
11
0.263374
21
0.18151
0
LINE
8
BLACK
6
CONTINUOUS
10
0.263374
20
0.18151
11
0.264388
21
0.181349
0
LINE
8
BLACK
6
CONTINUOUS
10
0.264388
20
0.181349
11
0.264833
21
0.181243
0
LINE
8
BLACK
6
CONTINUOUS
10
0.264833
20
0.181243
11
0.26581
21
0.180925
0
LINE
8
BLACK
6
CONTINUOUS
10
0.26581
20
0.180925
11
0.267006
21
0.180925
0
LINE
8
BLACK
6
CONTINUOUS
10
0.267006
20
0.180925
11
0.267007
21
0.180925
0
LINE
8
BLACK
6
CONTINUOUS
10
0.267007
20
0.180925
11
0.267066
21
0.180925
0
LINE
8
BLACK
6
CONTINUOUS
10
0.267066
20
0.180925
11
0.293996
21
0.180925
0
LINE
8
BLACK
6
CONTINUOUS
10
0.293996
20
0.180925
11
0.295869
21
0.180244
0
LINE
8
BLACK
6
CONTINUOUS
10
0.295869
20
0.180244
11
0.296865
21
0.178518
0
LINE
8
BLACK
6
CONTINUOUS
10
0.296865
20
0.178518
11
0.296909
21
0.178012
0
LINE
8
BLACK
6
CONTINUOUS
10
0.296909
20
0.178012
11
0.296909
21
0.175049
0
LINE
8
BLACK
6
CONTINUOUS
10
0.296909
20
0.175049
11
0.297367
21
0.172747
0
LINE
8
BLACK
6
CONTINUOUS
10
0.297367
20
0.172747
11
0.298426
21
0.171162
0
LINE
8
BLACK
6
CONTINUOUS
10
0.298426
20
0.171162
11
0.299112
21
0.170136
0
LINE
8
BLACK
6
CONTINUOUS
10
0.299112
20
0.170136
11
0.300536
21
0.169184
0
LINE
8
BLACK
6
CONTINUOUS
10
0.300536
20
0.169184
11
0.301714
21
0.167577
0
LINE
8
BLACK
6
CONTINUOUS
10
0.301714
20
0.167577
11
0.301831
21
0.166762
0
LINE
8
BLACK
6
CONTINUOUS
10
0.301831
20
0.166762
11
0.301831
21
0.159904
0
LINE
8
BLACK
6
CONTINUOUS
10
0.301831
20
0.159904
11
0.302148
21
0.158927
0
LINE
8
BLACK
6
CONTINUOUS
10
0.302148
20
0.158927
11
0.302255
21
0.158483
0
LINE
8
BLACK
6
CONTINUOUS
10
0.302255
20
0.158483
11
0.302415
21
0.157469
0
LINE
8
BLACK
6
CONTINUOUS
10
0.302415
20
0.157469
11
0.302415
21
0.157468
0
LINE
8
BLACK
6
CONTINUOUS
10
0.302415
20
0.157468
11
0.302882
21
0.156553
0
LINE
8
BLACK
6
CONTINUOUS
10
0.302882
20
0.156553
11
0.303057
21
0.156131
0
LINE
8
BLACK
6
CONTINUOUS
10
0.303057
20
0.156131
11
0.303374
21
0.155154
0
LINE
8
BLACK
6
CONTINUOUS
10
0.303374
20
0.155154
11
0.303374
21
0.155154
0
LINE
8
BLACK
6
CONTINUOUS
10
0.303374
20
0.155154
11
0.303978
21
0.154323
0
LINE
8
BLACK
6
CONTINUOUS
10
0.303978
20
0.154323
11
0.304217
21
0.153933
0
LINE
8
BLACK
6
CONTINUOUS
10
0.304217
20
0.153933
11
0.304683
21
0.153018
0
LINE
8
BLACK
6
CONTINUOUS
10
0.304683
20
0.153018
11
0.305532
21
0.152169
0
LINE
8
BLACK
6
CONTINUOUS
10
0.305532
20
0.152169
11
0.305533
21
0.152168
0
LINE
8
BLACK
6
CONTINUOUS
10
0.305533
20
0.152168
11
0.314913
21
0.142788
0
LINE
8
BLACK
6
CONTINUOUS
10
0.314913
20
0.142788
11
0.315755
21
0.140982
0
LINE
8
BLACK
6
CONTINUOUS
10
0.315755
20
0.140982
11
0.315239
21
0.139057
0
LINE
8
BLACK
6
CONTINUOUS
10
0.315239
20
0.139057
11
0.313607
21
0.137914
0
LINE
8
BLACK
6
CONTINUOUS
10
0.313607
20
0.137914
11
0.312853
21
0.137815
0
LINE
8
BLACK
6
CONTINUOUS
10
0.312853
20
0.137815
11
0.300046
21
0.137815
0
LINE
8
BLACK
6
CONTINUOUS
10
0.300046
20
0.137815
11
0.296364
21
0.137083
0
LINE
8
BLACK
6
CONTINUOUS
10
0.296364
20
0.137083
11
0.294394
21
0.137386
0
LINE
8
BLACK
6
CONTINUOUS
10
0.294394
20
0.137386
11
0.293081
21
0.138884
0
LINE
8
BLACK
6
CONTINUOUS
10
0.293081
20
0.138884
11
0.292907
21
0.13956
0
LINE
8
BLACK
6
CONTINUOUS
10
0.292907
20
0.13956
11
0.292179
21
0.145092
0
LINE
8
BLACK
6
CONTINUOUS
10
0.292179
20
0.145092
11
0.289797
21
0.150843
0
LINE
8
BLACK
6
CONTINUOUS
10
0.289797
20
0.150843
11
0.287127
21
0.154323
0
LINE
8
BLACK
6
CONTINUOUS
10
0.287127
20
0.154323
11
0.286007
21
0.155782
0
LINE
8
BLACK
6
CONTINUOUS
10
0.286007
20
0.155782
11
0.286007
21
0.155782
0
LINE
8
BLACK
6
CONTINUOUS
10
0.286007
20
0.155782
11
0.281069
21
0.159571
0
LINE
8
BLACK
6
CONTINUOUS
10
0.281069
20
0.159571
11
0.275318
21
0.161954
0
LINE
8
BLACK
6
CONTINUOUS
10
0.275318
20
0.161954
11
0.269146
21
0.162766
0
LINE
8
BLACK
6
CONTINUOUS
10
0.269146
20
0.162766
11
0.262974
21
0.161954
0
LINE
8
BLACK
6
CONTINUOUS
10
0.262974
20
0.161954
11
0.262974
21
0.161954
0
LINE
8
BLACK
6
CONTINUOUS
10
0.262974
20
0.161954
11
0.257223
21
0.159571
0
LINE
8
BLACK
6
CONTINUOUS
10
0.257223
20
0.159571
11
0.252284
21
0.155782
0
LINE
8
BLACK
6
CONTINUOUS
10
0.252284
20
0.155782
11
0.252284
21
0.155782
0
LINE
8
BLACK
6
CONTINUOUS
10
0.252284
20
0.155782
11
0.248495
21
0.150843
0
LINE
8
BLACK
6
CONTINUOUS
10
0.248495
20
0.150843
11
0.246113
21
0.145092
0
LINE
8
BLACK
6
CONTINUOUS
10
0.246113
20
0.145092
11
0.246113
21
0.145092
0
LINE
8
BLACK
6
CONTINUOUS
10
0.246113
20
0.145092
11
0.2453
21
0.13892
0
LINE
8
BLACK
6
CONTINUOUS
10
0.2453
20
0.13892
11
0.246113
21
0.132749
0
LINE
8
BLACK
6
CONTINUOUS
10
0.246113
20
0.132749
11
0.246113
21
0.132749
0
LINE
8
BLACK
6
CONTINUOUS
10
0.246113
20
0.132749
11
0.248495
21
0.126998
0
LINE
8
BLACK
6
CONTINUOUS
10
0.248495
20
0.126998
11
0.249378
21
0.125846
0
LINE
8
BLACK
6
CONTINUOUS
10
0.249378
20
0.125846
11
0.24998
21
0.124073
0
LINE
8
BLACK
6
CONTINUOUS
10
0.24998
20
0.124073
11
0.24998
21
0.119075
0
LINE
8
BLACK
6
CONTINUOUS
10
0.24998
20
0.119075
11
0.249299
21
0.117202
0
LINE
8
BLACK
6
CONTINUOUS
10
0.249299
20
0.117202
11
0.247573
21
0.116206
0
LINE
8
BLACK
6
CONTINUOUS
10
0.247573
20
0.116206
11
0.247067
21
0.116161
0
LINE
8
BLACK
6
CONTINUOUS
10
0.247067
20
0.116161
11
0.244363
21
0.116161
0
LINE
8
BLACK
6
CONTINUOUS
10
0.244363
20
0.116161
11
0.241553
21
0.115752
0
LINE
8
BLACK
6
CONTINUOUS
10
0.241553
20
0.115752
11
0.237219
21
0.113633
0
LINE
8
BLACK
6
CONTINUOUS
10
0.237219
20
0.113633
11
0.233808
21
0.110222
0
LINE
8
BLACK
6
CONTINUOUS
10
0.233808
20
0.110222
11
0.231689
21
0.105888
0
LINE
8
BLACK
6
CONTINUOUS
10
0.231689
20
0.105888
11
0.23128
21
0.103078
0
LINE
8
BLACK
6
CONTINUOUS
10
0.23128
20
0.103078
11
0.23128
21
0.0544022
0
LINE
8
BLACK
6
CONTINUOUS
10
0.23128
20
0.0544022
11
0.231689
21
0.0515926
0
LINE
8
BLACK
6
CONTINUOUS
10
0.231689
20
0.0515926
11
0.233808
21
0.0472585
0
LINE
8
BLACK
6
CONTINUOUS
10
0.233808
20
0.0472585
11
0.233808
21
0.0472585
0
LINE
8
BLACK
6
CONTINUOUS
10
0.233808
20
0.0472585
11
0.237219
21
0.0438471
0
LINE
8
BLACK
6
CONTINUOUS
10
0.237219
20
0.0438471
11
0.241553
21
0.0417283
0
LINE
8
BLACK
6
CONTINUOUS
10
0.241553
20
0.0417283
11
0.244363
21
0.0413189
0
LINE
8
BLACK
6
CONTINUOUS
10
0.244363
20
0.0413189
11
0.271176
21
0.0413189
0
LINE
8
BLACK
6
CONTINUOUS
10
0.271176
20
0.0413189
11
0.273048
21
0.0406373
0
LINE
8
BLACK
6
CONTINUOUS
10
0.273048
20
0.0406373
11
0.273867
21
0.0395204
0
LINE
8
BLACK
6
CONTINUOUS
10
0.273867
20
0.0395204
11
0.275221
21
0.036253
0
LINE
8
BLACK
6
CONTINUOUS
10
0.275221
20
0.036253
11
0.27867
21
0.031091
0
LINE
8
BLACK
6
CONTINUOUS
10
0.27867
20
0.031091
11
0.283059
21
0.0267012
0
LINE
8
BLACK
6
CONTINUOUS
10
0.283059
20
0.0267012
11
0.285545
21
0.0250405
0
LINE
8
BLACK
6
CONTINUOUS
10
0.285545
20
0.0250405
11
0.286723
21
0.0234333
0
LINE
8
BLACK
6
CONTINUOUS
10
0.286723
20
0.0234333
11
0.286593
21
0.0214448
0
LINE
8
BLACK
6
CONTINUOUS
10
0.286593
20
0.0214448
11
0.285215
21
0.0200052
0
LINE
8
BLACK
6
CONTINUOUS
10
0.285215
20
0.0200052
11
0.283926
21
0.0197047
0
LINE
8
BLACK
6
CONTINUOUS
10
0.283926
20
0.0197047
11
0.164533
21
0.0197047
0
LINE
8
BLACK
6
CONTINUOUS
10
0.164533
20
0.0197047
11
0.162661
21
0.0203863
0
LINE
8
BLACK
6
CONTINUOUS
10
0.162661
20
0.0203863
11
0.161791
21
0.0216332
0
LINE
8
BLACK
6
CONTINUOUS
10
0.161791
20
0.0216332
11
0.159696
21
0.0274672
0
LINE
8
BLACK
6
CONTINUOUS
10
0.159696
20
0.0274672
11
0.154919
21
0.0362528
0
LINE
8
BLACK
6
CONTINUOUS
10
0.154919
20
0.0362528
11
0.154785
21
0.0364982
0
LINE
8
BLACK
6
CONTINUOUS
10
0.154785
20
0.0364982
11
0.154756
21
0.036537
0
LINE
8
BLACK
6
CONTINUOUS
10
0.154756
20
0.036537
11
0.148553
21
0.0446739
0
LINE
8
BLACK
6
CONTINUOUS
10
0.148553
20
0.0446739
11
0.141146
21
0.0518023
0
LINE
8
BLACK
6
CONTINUOUS
10
0.141146
20
0.0518023
11
0.138869
21
0.0534039
0
LINE
8
BLACK
6
CONTINUOUS
10
0.138869
20
0.0534039
11
0.132738
21
0.0577166
0
LINE
8
BLACK
6
CONTINUOUS
10
0.132738
20
0.0577166
11
0.132738
21
0.0577166
0
LINE
8
BLACK
6
CONTINUOUS
10
0.132738
20
0.0577166
11
0.123525
21
0.062278
0
LINE
8
BLACK
6
CONTINUOUS
10
0.123525
20
0.062278
11
0.113725
21
0.0653796
0
LINE
8
BLACK
6
CONTINUOUS
10
0.113725
20
0.0653796
11
0.103565
21
0.0669488
0
LINE
8
BLACK
6
CONTINUOUS
10
0.103565
20
0.0669488
11
0.0958592
21
0.0669488
0
LINE
8
BLACK
6
CONTINUOUS
10
0.0958592
20
0.0669488
11
0.09312
21
0.0667385
0
LINE
8
BLACK
6
CONTINUOUS
10
0.09312
20
0.0667385
11
0.0881756
21
0.0663589
0
LINE
8
BLACK
6
CONTINUOUS
10
0.0881756
20
0.0663589
11
0.088175
21
0.0663589
0
LINE
8
BLACK
6
CONTINUOUS
10
0.088175
20
0.0663589
11
0.0781658
21
0.0640166
0
LINE
8
BLACK
6
CONTINUOUS
10
0.0781658
20
0.0640166
11
0.0686315
21
0.0601739
0
LINE
8
BLACK
6
CONTINUOUS
10
0.0686315
20
0.0601739
11
0.0686308
21
0.0601735
0
LINE
8
BLACK
6
CONTINUOUS
10
0.0686308
20
0.0601735
11
0.0597951
21
0.0549207
0
LINE
8
BLACK
6
CONTINUOUS
10
0.0597951
20
0.0549207
11
0.059795
21
0.0549206
0
LINE
8
BLACK
6
CONTINUOUS
10
0.059795
20
0.0549206
11
0.0518639
21
0.0483799
0
LINE
8
BLACK
6
CONTINUOUS
10
0.0518639
20
0.0483799
11
0.0450247
21
0.0407057
0
LINE
8
BLACK
6
CONTINUOUS
10
0.0450247
20
0.0407057
11
0.0450246
21
0.0407055
0
LINE
8
BLACK
6
CONTINUOUS
10
0.0450246
20
0.0407055
11
0.0394367
21
0.0320769
0
LINE
8
BLACK
6
CONTINUOUS
10
0.0394367
20
0.0320769
11
0.0394367
21
0.0320769
0
LINE
8
BLACK
6
CONTINUOUS
10
0.0394367
20
0.0320769
11
0.0352317
21
0.0226969
0
LINE
8
BLACK
6
CONTINUOUS
10
0.0352317
20
0.0226969
11
0.0352316
21
0.0226965
0
LINE
8
BLACK
6
CONTINUOUS
10
0.0352316
20
0.0226965
11
0.0352316
21
0.0226964
0
LINE
8
BLACK
6
CONTINUOUS
10
0.0352316
20
0.0226964
11
0.0352101
21
0.0226181
0
LINE
8
BLACK
6
CONTINUOUS
10
0.0352101
20
0.0226181
11
0.0349979
21
0.0218461
0
LINE
8
BLACK
6
CONTINUOUS
10
0.0349979
20
0.0218461
11
0.0338444
21
0.020221
0
LINE
8
BLACK
6
CONTINUOUS
10
0.0338444
20
0.020221
11
0.0321887
21
0.0197047
0
LINE
8
BLACK
6
CONTINUOUS
10
0.0321887
20
0.0197047
11
0.0226181
21
0.0197047
0
LINE
8
BLACK
6
CONTINUOUS
10
0.0226181
20
0.0197047
11
0.0207454
21
0.0203863
0
LINE
8
BLACK
6
CONTINUOUS
10
0.0207454
20
0.0203863
11
0.019749
21
0.0221122
0
LINE
8
BLACK
6
CONTINUOUS
10
0.019749
20
0.0221122
11
0.0197047
21
0.0226181
0
LINE
8
BLACK
6
CONTINUOUS
10
0.0197047
20
0.0226181
11
0.0197047
21
0.106024
0
LINE
8
BLACK
6
CONTINUOUS
10
0.0197047
20
0.106024
11
0.0203863
21
0.107896
0
LINE
8
BLACK
6
CONTINUOUS
10
0.0203863
20
0.107896
11
0.0221122
21
0.108893
0
LINE
8
BLACK
6
CONTINUOUS
10
0.0221122
20
0.108893
11
0.0226181
21
0.108937
0
LINE
8
BLACK
6
CONTINUOUS
10
0.0226181
20
0.108937
11
0.0548504
21
0.108937
0
LINE
8
BLACK
6
CONTINUOUS
10
0.0548504
20
0.108937
11
0.0548504
21
0.128937
0
LINE
8
BLACK
6
CONTINUOUS
10
0.0548504
20
0.128937
11
0.0215433
21
0.128937
0
LINE
8
BLACK
6
CONTINUOUS
10
0.0215433
20
0.128937
11
0.0177767
21
0.129686
0
LINE
8
BLACK
6
CONTINUOUS
10
0.0177767
20
0.129686
11
0.0145836
21
0.13182
0
LINE
8
BLACK
6
CONTINUOUS
10
0.0145836
20
0.13182
11
0.01245
21
0.135013
0
LINE
8
BLACK
6
CONTINUOUS
10
0.01245
20
0.135013
11
0.0117008
21
0.13878
0
LINE
8
BLACK
6
CONTINUOUS
10
0.0117008
20
0.13878
11
0.0117008
21
0.158465
0
LINE
8
BLACK
6
CONTINUOUS
10
0.0117008
20
0.158465
11
0.01245
21
0.162231
0
LINE
8
BLACK
6
CONTINUOUS
10
0.01245
20
0.162231
11
0.0145836
21
0.165424
0
LINE
8
BLACK
6
CONTINUOUS
10
0.0145836
20
0.165424
11
0.0177767
21
0.167558
0
LINE
8
BLACK
6
CONTINUOUS
10
0.0177767
20
0.167558
11
0.0215433
21
0.168307
0
LINE
8
BLACK
6
CONTINUOUS
10
0.0215433
20
0.168307
11
0.0548504
21
0.168307
0
LINE
8
BLACK
6
CONTINUOUS
10
0.0548504
20
0.168307
11
0.0548504
21
0.188307
0
LINE
8
BLACK
6
CONTINUOUS
10
0.0548504
20
0.188307
11
0.0226181
21
0.188307
0
LINE
8
BLACK
6
CONTINUOUS
10
0.0226181
20
0.188307
11
0.0207454
21
0.188989
0
LINE
8
BLACK
6
CONTINUOUS
10
0.0207454
20
0.188989
11
0.019749
21
0.190715
0
LINE
8
BLACK
6
CONTINUOUS
10
0.019749
20
0.190715
11
0.0197047
21
0.19122
0
LINE
8
BLACK
6
CONTINUOUS
10
0.0197047
20
0.19122
11
0.0197047
21
0.399331
0
LINE
8
BLACK
6
CONTINUOUS
10
0.0197047
20
0.399331
11
0.0203863
21
0.401203
0
LINE
8
BLACK
6
CONTINUOUS
10
0.0203863
20
0.401203
11
0.0221122
21
0.4022
0
LINE
8
BLACK
6
CONTINUOUS
10
0.0221122
20
0.4022
11
0.0226181
21
0.402244
0
LINE
8
BLACK
6
CONTINUOUS
10
0.0226181
20
0.402244
11
0.0548504
21
0.402244
0
LINE
8
BLACK
6
CONTINUOUS
10
0.0548504
20
0.402244
11
0.0548504
21
0.422244
0
LINE
8
BLACK
6
CONTINUOUS
10
0.0548504
20
0.422244
11
0.0215433
21
0.422244
0
LINE
8
BLACK
6
CONTINUOUS
10
0.0215433
20
0.422244
11
0.0177767
21
0.422993
0
LINE
8
BLACK
6
CONTINUOUS
10
0.0177767
20
0.422993
11
0.0145836
21
0.425127
0
LINE
8
BLACK
6
CONTINUOUS
10
0.0145836
20
0.425127
11
0.01245
21
0.42832
0
LINE
8
BLACK
6
CONTINUOUS
10
0.01245
20
0.42832
11
0.0117008
21
0.432087
0
LINE
8
BLACK
6
CONTINUOUS
10
0.0117008
20
0.432087
11
0.0117008
21
0.451772
0
LINE
8
BLACK
6
CONTINUOUS
10
0.0117008
20
0.451772
11
0.01245
21
0.455538
0
LINE
8
BLACK
6
CONTINUOUS
10
0.01245
20
0.455538
11
0.0145836
21
0.458731
0
LINE
8
BLACK
6
CONTINUOUS
10
0.0145836
20
0.458731
11
0.0177767
21
0.460865
0
LINE
8
BLACK
6
CONTINUOUS
10
0.0177767
20
0.460865
11
0.0215433
21
0.461614
0
LINE
8
BLACK
6
CONTINUOUS
10
0.0215433
20
0.461614
11
0.0548504
21
0.461614
0
LINE
8
BLACK
6
CONTINUOUS
10
0.0548504
20
0.461614
11
0.0548504
21
0.481614
0
LINE
8
BLACK
6
CONTINUOUS
10
0.0548504
20
0.481614
11
0.0226181
21
0.481614
0
LINE
8
BLACK
6
CONTINUOUS
10
0.0226181
20
0.481614
11
0.0207454
21
0.482296
0
LINE
8
BLACK
6
CONTINUOUS
10
0.0207454
20
0.482296
11
0.019749
21
0.484022
0
LINE
8
BLACK
6
CONTINUOUS
10
0.019749
20
0.484022
11
0.0197047
21
0.484528
0
LINE
8
BLACK
6
CONTINUOUS
10
0.0197047
20
0.484528
11
0.0197047
21
0.567933
0
LINE
8
BLACK
6
CONTINUOUS
10
0.0197047
20
0.567933
11
0.0203863
21
0.569806
0
LINE
8
BLACK
6
CONTINUOUS
10
0.0203863
20
0.569806
11
0.0221122
21
0.570802
0
LINE
8
BLACK
6
CONTINUOUS
10
0.0221122
20
0.570802
11
0.0226181
21
0.570846
0
LINE
8
BLACK
6
CONTINUOUS
10
0.0226181
20
0.570846
11
0.0323172
21
0.570846
0
LINE
8
BLACK
6
CONTINUOUS
10
0.0323172
20
0.570846
11
0.0341899
21
0.570165
0
LINE
8
BLACK
6
CONTINUOUS
10
0.117251
20
0.135013
11
0.115117
21
0.13182
0
LINE
8
BLACK
6
CONTINUOUS
10
0.115117
20
0.13182
11
0.111924
21
0.129686
0
LINE
8
BLACK
6
CONTINUOUS
10
0.111924
20
0.129686
11
0.108157
21
0.128937
0
LINE
8
BLACK
6
CONTINUOUS
10
0.108157
20
0.128937
11
0.0748504
21
0.128937
0
LINE
8
BLACK
6
CONTINUOUS
10
0.0748504
20
0.128937
11
0.0748504
21
0.108937
0
LINE
8
BLACK
6
CONTINUOUS
10
0.0748504
20
0.108937
11
0.110146
21
0.108937
0
LINE
8
BLACK
6
CONTINUOUS
10
0.110146
20
0.108937
11
0.110146
21
0.108937
0
LINE
8
BLACK
6
CONTINUOUS
10
0.110146
20
0.108937
11
0.114233
21
0.109355
0
LINE
8
BLACK
6
CONTINUOUS
10
0.114233
20
0.109355
11
0.120855
21
0.111549
0
LINE
8
BLACK
6
CONTINUOUS
10
0.120855
20
0.111549
11
0.126793
21
0.115211
0
LINE
8
BLACK
6
CONTINUOUS
10
0.126793
20
0.115211
11
0.126793
21
0.115211
0
LINE
8
BLACK
6
CONTINUOUS
10
0.126793
20
0.115211
11
0.131726
21
0.120144
0
LINE
8
BLACK
6
CONTINUOUS
10
0.131726
20
0.120144
11
0.131726
21
0.120144
0
LINE
8
BLACK
6
CONTINUOUS
10
0.131726
20
0.120144
11
0.135388
21
0.126082
0
LINE
8
BLACK
6
CONTINUOUS
10
0.135388
20
0.126082
11
0.137582
21
0.132704
0
LINE
8
BLACK
6
CONTINUOUS
10
0.137582
20
0.132704
11
0.138
21
0.136791
0
LINE
8
BLACK
6
CONTINUOUS
10
0.138
20
0.136791
11
0.138
21
0.136791
0
LINE
8
BLACK
6
CONTINUOUS
10
0.138
20
0.136791
11
0.138
21
0.138622
0
LINE
8
BLACK
6
CONTINUOUS
10
0.138
20
0.138622
11
0.117969
21
0.138622
0
LINE
8
BLACK
6
CONTINUOUS
10
0.117969
20
0.138622
11
0.117251
21
0.135013
0
LINE
8
BLACK
6
CONTINUOUS
10
0.0748504
20
0.168307
11
0.108157
21
0.168307
0
LINE
8
BLACK
6
CONTINUOUS
10
0.108157
20
0.168307
11
0.111924
21
0.167558
0
LINE
8
BLACK
6
CONTINUOUS
10
0.111924
20
0.167558
11
0.115117
21
0.165424
0
LINE
8
BLACK
6
CONTINUOUS
10
0.115117
20
0.165424
11
0.117251
21
0.162231
0
LINE
8
BLACK
6
CONTINUOUS
10
0.117251
20
0.162231
11
0.117969
21
0.158622
0
LINE
8
BLACK
6
CONTINUOUS
10
0.117969
20
0.158622
11
0.138
21
0.158622
0
LINE
8
BLACK
6
CONTINUOUS
10
0.138
20
0.158622
11
0.138
21
0.160453
0
LINE
8
BLACK
6
CONTINUOUS
10
0.138
20
0.160453
11
0.138
21
0.160453
0
LINE
8
BLACK
6
CONTINUOUS
10
0.138
20
0.160453
11
0.137582
21
0.16454
0
LINE
8
BLACK
6
CONTINUOUS
10
0.137582
20
0.16454
11
0.135388
21
0.171162
0
LINE
8
BLACK
6
CONTINUOUS
10
0.135388
20
0.171162
11
0.131726
21
0.1771
0
LINE
8
BLACK
6
CONTINUOUS
10
0.131726
20
0.1771
11
0.131726
21
0.1771
0
LINE
8
BLACK
6
CONTINUOUS
10
0.131726
20
0.1771
11
0.126793
21
0.182033
0
LINE
8
BLACK
6
CONTINUOUS
10
0.126793
20
0.182033
11
0.126793
21
0.182033
0
LINE
8
BLACK
6
CONTINUOUS
10
0.126793
20
0.182033
11
0.120855
21
0.185695
0
LINE
8
BLACK
6
CONTINUOUS
10
0.120855
20
0.185695
11
0.114233
21
0.18789
0
LINE
8
BLACK
6
CONTINUOUS
10
0.114233
20
0.18789
11
0.110146
21
0.188307
0
LINE
8
BLACK
6
CONTINUOUS
10
0.110146
20
0.188307
11
0.0748504
21
0.188307
0
LINE
8
BLACK
6
CONTINUOUS
10
0.0748504
20
0.188307
11
0.0748504
21
0.168307
0
LINE
8
BLACK
6
CONTINUOUS
10
0.117251
20
0.42832
11
0.115117
21
0.425127
0
LINE
8
BLACK
6
CONTINUOUS
10
0.115117
20
0.425127
11
0.111924
21
0.422993
0
LINE
8
BLACK
6
CONTINUOUS
10
0.111924
20
0.422993
11
0.108157
21
0.422244
0
LINE
8
BLACK
6
CONTINUOUS
10
0.108157
20
0.422244
11
0.0748504
21
0.422244
0
LINE
8
BLACK
6
CONTINUOUS
10
0.0748504
20
0.422244
11
0.0748504
21
0.402244
0
LINE
8
BLACK
6
CONTINUOUS
10
0.0748504
20
0.402244
11
0.110146
21
0.402244
0
LINE
8
BLACK
6
CONTINUOUS
10
0.110146
20
0.402244
11
0.110146
21
0.402244
0
LINE
8
BLACK
6
CONTINUOUS
10
0.110146
20
0.402244
11
0.114233
21
0.402662
0
LINE
8
BLACK
6
CONTINUOUS
10
0.114233
20
0.402662
11
0.120855
21
0.404856
0
LINE
8
BLACK
6
CONTINUOUS
10
0.120855
20
0.404856
11
0.126793
21
0.408518
0
LINE
8
BLACK
6
CONTINUOUS
10
0.126793
20
0.408518
11
0.126793
21
0.408518
0
LINE
8
BLACK
6
CONTINUOUS
10
0.126793
20
0.408518
11
0.131726
21
0.413451
0
LINE
8
BLACK
6
CONTINUOUS
10
0.131726
20
0.413451
11
0.131726
21
0.413451
0
LINE
8
BLACK
6
CONTINUOUS
10
0.131726
20
0.413451
11
0.135388
21
0.419389
0
LINE
8
BLACK
6
CONTINUOUS
10
0.135388
20
0.419389
11
0.137582
21
0.426011
0
LINE
8
BLACK
6
CONTINUOUS
10
0.137582
20
0.426011
11
0.138
21
0.430098
0
LINE
8
BLACK
6
CONTINUOUS
10
0.138
20
0.430098
11
0.138
21
0.430098
0
LINE
8
BLACK
6
CONTINUOUS
10
0.138
20
0.430098
11
0.138
21
0.431929
0
LINE
8
BLACK
6
CONTINUOUS
10
0.138
20
0.431929
11
0.117969
21
0.431929
0
LINE
8
BLACK
6
CONTINUOUS
10
0.117969
20
0.431929
11
0.117251
21
0.42832
0
LINE
8
BLACK
6
CONTINUOUS
10
0.0748504
20
0.461614
11
0.108157
21
0.461614
0
LINE
8
BLACK
6
CONTINUOUS
10
0.108157
20
0.461614
11
0.111924
21
0.460865
0
LINE
8
BLACK
6
CONTINUOUS
10
0.111924
20
0.460865
11
0.115117
21
0.458731
0
LINE
8
BLACK
6
CONTINUOUS
10
0.115117
20
0.458731
11
0.117251
21
0.455538
0
LINE
8
BLACK
6
CONTINUOUS
10
0.117251
20
0.455538
11
0.117969
21
0.451929
0
LINE
8
BLACK
6
CONTINUOUS
10
0.117969
20
0.451929
11
0.138
21
0.451929
0
LINE
8
BLACK
6
CONTINUOUS
10
0.138
20
0.451929
11
0.138
21
0.45376
0
LINE
8
BLACK
6
CONTINUOUS
10
0.138
20
0.45376
11
0.138
21
0.45376
0
LINE
8
BLACK
6
CONTINUOUS
10
0.138
20
0.45376
11
0.137582
21
0.457847
0
LINE
8
BLACK
6
CONTINUOUS
10
0.137582
20
0.457847
11
0.135388
21
0.464469
0
LINE
8
BLACK
6
CONTINUOUS
10
0.135388
20
0.464469
11
0.131726
21
0.470407
0
LINE
8
BLACK
6
CONTINUOUS
10
0.131726
20
0.470407
11
0.131726
21
0.470407
0
LINE
8
BLACK
6
CONTINUOUS
10
0.131726
20
0.470407
11
0.126793
21
0.47534
0
LINE
8
BLACK
6
CONTINUOUS
10
0.126793
20
0.47534
11
0.126793
21
0.47534
0
LINE
8
BLACK
6
CONTINUOUS
10
0.126793
20
0.47534
11
0.120855
21
0.479002
0
LINE
8
BLACK
6
CONTINUOUS
10
0.120855
20
0.479002
11
0.114233
21
0.481197
0
LINE
8
BLACK
6
CONTINUOUS
10
0.114233
20
0.481197
11
0.110146
21
0.481614
0
LINE
8
BLACK
6
CONTINUOUS
10
0.110146
20
0.481614
11
0.0748504
21
0.481614
0
LINE
8
BLACK
6
CONTINUOUS
10
0.0748504
20
0.481614
11
0.0748504
21
0.461614
0
LINE
8
BLACK
6
CONTINUOUS
10
0.274012
20
0.153898
11
0.278402
21
0.151661
0
LINE
8
BLACK
6
CONTINUOUS
10
0.278402
20
0.151661
11
0.281886
21
0.148177
0
LINE
8
BLACK
6
CONTINUOUS
10
0.281886
20
0.148177
11
0.284123
21
0.143787
0
LINE
8
BLACK
6
CONTINUOUS
10
0.284123
20
0.143787
11
0.284894
21
0.13892
0
LINE
8
BLACK
6
CONTINUOUS
10
0.284894
20
0.13892
11
0.284123
21
0.134054
0
LINE
8
BLACK
6
CONTINUOUS
10
0.284123
20
0.134054
11
0.281886
21
0.129664
0
LINE
8
BLACK
6
CONTINUOUS
10
0.281886
20
0.129664
11
0.278402
21
0.12618
0
LINE
8
BLACK
6
CONTINUOUS
10
0.278402
20
0.12618
11
0.274012
21
0.123943
0
LINE
8
BLACK
6
CONTINUOUS
10
0.274012
20
0.123943
11
0.269685
21
0.123258
0
LINE
8
BLACK
6
CONTINUOUS
10
0.269685
20
0.123258
11
0.269685
21
0.108268
0
LINE
8
BLACK
6
CONTINUOUS
10
0.269685
20
0.108268
11
0.281824
21
0.108268
0
LINE
8
BLACK
6
CONTINUOUS
10
0.281824
20
0.108268
11
0.284335
21
0.107768
0
LINE
8
BLACK
6
CONTINUOUS
10
0.284335
20
0.107768
11
0.286464
21
0.106346
0
LINE
8
BLACK
6
CONTINUOUS
10
0.286464
20
0.106346
11
0.287886
21
0.104217
0
LINE
8
BLACK
6
CONTINUOUS
10
0.287886
20
0.104217
11
0.288386
21
0.101706
0
LINE
8
BLACK
6
CONTINUOUS
10
0.288386
20
0.101706
11
0.288386
21
0.0557743
0
LINE
8
BLACK
6
CONTINUOUS
10
0.288386
20
0.0557743
11
0.287886
21
0.0532632
0
LINE
8
BLACK
6
CONTINUOUS
10
0.287886
20
0.0532632
11
0.286464
21
0.0511345
0
LINE
8
BLACK
6
CONTINUOUS
10
0.286464
20
0.0511345
11
0.284335
21
0.0497121
0
LINE
8
BLACK
6
CONTINUOUS
10
0.284335
20
0.0497121
11
0.281824
21
0.0492126
0
LINE
8
BLACK
6
CONTINUOUS
10
0.281824
20
0.0492126
11
0.245735
21
0.0492126
0
LINE
8
BLACK
6
CONTINUOUS
10
0.245735
20
0.0492126
11
0.243224
21
0.0497121
0
LINE
8
BLACK
6
CONTINUOUS
10
0.243224
20
0.0497121
11
0.241095
21
0.0511345
0
LINE
8
BLACK
6
CONTINUOUS
10
0.241095
20
0.0511345
11
0.239673
21
0.0532632
0
LINE
8
BLACK
6
CONTINUOUS
10
0.239673
20
0.0532632
11
0.239173
21
0.0557743
0
LINE
8
BLACK
6
CONTINUOUS
10
0.239173
20
0.0557743
11
0.239173
21
0.101706
0
LINE
8
BLACK
6
CONTINUOUS
10
0.239173
20
0.101706
11
0.239673
21
0.104217
0
LINE
8
BLACK
6
CONTINUOUS
10
0.239673
20
0.104217
11
0.241095
21
0.106346
0
LINE
8
BLACK
6
CONTINUOUS
10
0.241095
20
0.106346
11
0.243224
21
0.107768
0
LINE
8
BLACK
6
CONTINUOUS
10
0.243224
20
0.107768
11
0.245735
21
0.108268
0
LINE
8
BLACK
6
CONTINUOUS
10
0.245735
20
0.108268
11
0.257874
21
0.108268
0
LINE
8
BLACK
6
CONTINUOUS
10
0.257874
20
0.108268
11
0.257874
21
0.128195
0
LINE
8
BLACK
6
CONTINUOUS
10
0.257874
20
0.128195
11
0.256405
21
0.129664
0
LINE
8
BLACK
6
CONTINUOUS
10
0.256405
20
0.129664
11
0.254169
21
0.134054
0
LINE
8
BLACK
6
CONTINUOUS
10
0.254169
20
0.134054
11
0.253398
21
0.13892
0
LINE
8
BLACK
6
CONTINUOUS
10
0.253398
20
0.13892
11
0.254169
21
0.143787
0
LINE
8
BLACK
6
CONTINUOUS
10
0.254169
20
0.143787
11
0.256405
21
0.148177
0
LINE
8
BLACK
6
CONTINUOUS
10
0.256405
20
0.148177
11
0.259889
21
0.151661
0
LINE
8
BLACK
6
CONTINUOUS
10
0.259889
20
0.151661
11
0.264279
21
0.153898
0
LINE
8
BLACK
6
CONTINUOUS
10
0.264279
20
0.153898
11
0.269146
21
0.154668
0
LINE
8
BLACK
6
CONTINUOUS
10
0.269146
20
0.154668
11
0.274012
21
0.153898
0
LINE
8
BLACK
6
CONTINUOUS
10
0.426067
20
0.107768
11
0.428196
21
0.106346
0
LINE
8
BLACK
6
CONTINUOUS
10
0.428196
20
0.106346
11
0.429619
21
0.104217
0
LINE
8
BLACK
6
CONTINUOUS
10
0.429619
20
0.104217
11
0.430118
21
0.101706
0
LINE
8
BLACK
6
CONTINUOUS
10
0.430118
20
0.101706
11
0.430118
21
0.0879055
0
LINE
8
BLACK
6
CONTINUOUS
10
0.430118
20
0.0879055
11
0.434552
21
0.0879055
0
LINE
8
BLACK
6
CONTINUOUS
10
0.434552
20
0.0879055
11
0.43626
21
0.0912565
0
LINE
8
BLACK
6
CONTINUOUS
10
0.43626
20
0.0912565
11
0.439744
21
0.0947404
0
LINE
8
BLACK
6
CONTINUOUS
10
0.439744
20
0.0947404
11
0.444134
21
0.0969773
0
LINE
8
BLACK
6
CONTINUOUS
10
0.444134
20
0.0969773
11
0.449
21
0.097748
0
LINE
8
BLACK
6
CONTINUOUS
10
0.449
20
0.097748
11
0.453866
21
0.0969773
0
LINE
8
BLACK
6
CONTINUOUS
10
0.453866
20
0.0969773
11
0.458256
21
0.0947404
0
LINE
8
BLACK
6
CONTINUOUS
10
0.458256
20
0.0947404
11
0.46174
21
0.0912565
0
LINE
8
BLACK
6
CONTINUOUS
10
0.46174
20
0.0912565
11
0.463977
21
0.0868664
0
LINE
8
BLACK
6
CONTINUOUS
10
0.463977
20
0.0868664
11
0.464748
21
0.082
0
LINE
8
BLACK
6
CONTINUOUS
10
0.464748
20
0.082
11
0.463977
21
0.0771336
0
LINE
8
BLACK
6
CONTINUOUS
10
0.463977
20
0.0771336
11
0.46174
21
0.0727435
0
LINE
8
BLACK
6
CONTINUOUS
10
0.46174
20
0.0727435
11
0.458256
21
0.0692596
0
LINE
8
BLACK
6
CONTINUOUS
10
0.458256
20
0.0692596
11
0.453866
21
0.0670227
0
LINE
8
BLACK
6
CONTINUOUS
10
0.453866
20
0.0670227
11
0.449
21
0.066252
0
LINE
8
BLACK
6
CONTINUOUS
10
0.449
20
0.066252
11
0.444134
21
0.0670227
0
LINE
8
BLACK
6
CONTINUOUS
10
0.444134
20
0.0670227
11
0.439744
21
0.0692596
0
LINE
8
BLACK
6
CONTINUOUS
10
0.439744
20
0.0692596
11
0.43626
21
0.0727435
0
LINE
8
BLACK
6
CONTINUOUS
10
0.43626
20
0.0727435
11
0.434552
21
0.0760945
0
LINE
8
BLACK
6
CONTINUOUS
10
0.434552
20
0.0760945
11
0.430118
21
0.0760945
0
LINE
8
BLACK
6
CONTINUOUS
10
0.430118
20
0.0760945
11
0.430118
21
0.0557743
0
LINE
8
BLACK
6
CONTINUOUS
10
0.430118
20
0.0557743
11
0.429619
21
0.0532632
0
LINE
8
BLACK
6
CONTINUOUS
10
0.429619
20
0.0532632
11
0.428196
21
0.0511345
0
LINE
8
BLACK
6
CONTINUOUS
10
0.428196
20
0.0511345
11
0.426067
21
0.0497121
0
LINE
8
BLACK
6
CONTINUOUS
10
0.426067
20
0.0497121
11
0.423556
21
0.0492126
0
LINE
8
BLACK
6
CONTINUOUS
10
0.423556
20
0.0492126
11
0.387467
21
0.0492126
0
LINE
8
BLACK
6
CONTINUOUS
10
0.387467
20
0.0492126
11
0.384956
21
0.0497121
0
LINE
8
BLACK
6
CONTINUOUS
10
0.384956
20
0.0497121
11
0.382827
21
0.0511345
0
LINE
8
BLACK
6
CONTINUOUS
10
0.382827
20
0.0511345
11
0.381405
21
0.0532632
0
LINE
8
BLACK
6
CONTINUOUS
10
0.381405
20
0.0532632
11
0.380906
21
0.0557743
0
LINE
8
BLACK
6
CONTINUOUS
10
0.380906
20
0.0557743
11
0.380906
21
0.101706
0
LINE
8
BLACK
6
CONTINUOUS
10
0.380906
20
0.101706
11
0.381405
21
0.104217
0
LINE
8
BLACK
6
CONTINUOUS
10
0.381405
20
0.104217
11
0.382827
21
0.106346
0
LINE
8
BLACK
6
CONTINUOUS
10
0.382827
20
0.106346
11
0.384956
21
0.107768
0
LINE
8
BLACK
6
CONTINUOUS
10
0.384956
20
0.107768
11
0.387467
21
0.108268
0
LINE
8
BLACK
6
CONTINUOUS
10
0.387467
20
0.108268
11
0.423556
21
0.108268
0
LINE
8
BLACK
6
CONTINUOUS
10
0.423556
20
0.108268
11
0.426067
21
0.107768
0
LINE
8
BLACK
6
CONTINUOUS
10
1.0124
20
0.474502
11
1.01519
21
0.472635
0
LINE
8
BLACK
6
CONTINUOUS
10
1.01519
20
0.472635
11
1.01706
21
0.469841
0
LINE
8
BLACK
6
CONTINUOUS
10
1.01706
20
0.469841
11
1.01772
21
0.466545
0
LINE
8
BLACK
6
CONTINUOUS
10
1.01772
20
0.466545
11
1.01772
21
0.446368
0
LINE
8
BLACK
6
CONTINUOUS
10
1.01772
20
0.446368
11
1.01706
21
0.443072
0
LINE
8
BLACK
6
CONTINUOUS
10
1.01706
20
0.443072
11
1.01519
21
0.440278
0
LINE
8
BLACK
6
CONTINUOUS
10
1.01519
20
0.440278
11
1.0124
21
0.438411
0
LINE
8
BLACK
6
CONTINUOUS
10
1.0124
20
0.438411
11
1.0091
21
0.437756
0
LINE
8
BLACK
6
CONTINUOUS
10
1.0091
20
0.437756
11
1.00837
21
0.437756
0
LINE
8
BLACK
6
CONTINUOUS
10
1.00837
20
0.437756
11
1.00837
21
0.378263
0
LINE
8
BLACK
6
CONTINUOUS
10
1.00837
20
0.378263
11
1.0094
21
0.376616
0
LINE
8
BLACK
6
CONTINUOUS
10
1.0094
20
0.376616
11
1.00979
21
0.373134
0
LINE
8
BLACK
6
CONTINUOUS
10
1.00979
20
0.373134
11
1.00864
21
0.369826
0
LINE
8
BLACK
6
CONTINUOUS
10
1.00864
20
0.369826
11
1.00787
21
0.369065
0
LINE
8
BLACK
6
CONTINUOUS
10
1.00787
20
0.369065
11
1.00787
21
0.341535
0
LINE
8
BLACK
6
CONTINUOUS
10
1.00787
20
0.341535
11
1.00708
21
0.338583
0
LINE
8
BLACK
6
CONTINUOUS
10
1.00708
20
0.338583
11
1.00689
21
0.33839
0
LINE
8
BLACK
6
CONTINUOUS
10
1.00689
20
0.33839
11
1.00689
21
0.330709
0
LINE
8
BLACK
6
CONTINUOUS
10
1.00689
20
0.330709
11
0.997047
21
0.330709
0
LINE
8
BLACK
6
CONTINUOUS
10
0.997047
20
0.330709
11
0.997047
21
0.33839
0
LINE
8
BLACK
6
CONTINUOUS
10
0.997047
20
0.33839
11
0.996854
21
0.338583
0
LINE
8
BLACK
6
CONTINUOUS
10
0.996854
20
0.338583
11
0.996063
21
0.341535
0
LINE
8
BLACK
6
CONTINUOUS
10
0.996063
20
0.341535
11
0.996063
21
0.368786
0
LINE
8
BLACK
6
CONTINUOUS
10
0.996063
20
0.368786
11
0.994924
21
0.369924
0
LINE
8
BLACK
6
CONTINUOUS
10
0.994924
20
0.369924
11
0.994222
21
0.371043
0
LINE
8
BLACK
6
CONTINUOUS
10
0.994222
20
0.371043
11
0.993398
21
0.372076
0
LINE
8
BLACK
6
CONTINUOUS
10
0.993398
20
0.372076
11
0.993298
21
0.372512
0
LINE
8
BLACK
6
CONTINUOUS
10
0.993298
20
0.372512
11
0.99306
21
0.372891
0
LINE
8
BLACK
6
CONTINUOUS
10
0.99306
20
0.372891
11
0.992912
21
0.374204
0
LINE
8
BLACK
6
CONTINUOUS
10
0.992912
20
0.374204
11
0.992618
21
0.375492
0
LINE
8
BLACK
6
CONTINUOUS
10
0.992618
20
0.375492
11
0.992618
21
0.437756
0
LINE
8
BLACK
6
CONTINUOUS
10
0.992618
20
0.437756
11
0.99188
21
0.437756
0
LINE
8
BLACK
6
CONTINUOUS
10
0.99188
20
0.437756
11
0.988584
21
0.438411
0
LINE
8
BLACK
6
CONTINUOUS
10
0.988584
20
0.438411
11
0.98579
21
0.440278
0
LINE
8
BLACK
6
CONTINUOUS
10
0.98579
20
0.440278
11
0.983923
21
0.443072
0
LINE
8
BLACK
6
CONTINUOUS
10
0.983923
20
0.443072
11
0.983268
21
0.446368
0
LINE
8
BLACK
6
CONTINUOUS
10
0.983268
20
0.446368
11
0.983268
21
0.448583
0
LINE
8
BLACK
6
CONTINUOUS
10
0.983268
20
0.448583
11
0.945068
21
0.448583
0
LINE
8
BLACK
6
CONTINUOUS
10
0.945068
20
0.448583
11
0.874918
21
0.378432
0
LINE
8
BLACK
6
CONTINUOUS
10
0.874918
20
0.378432
11
0.873799
21
0.377729
0
LINE
8
BLACK
6
CONTINUOUS
10
0.873799
20
0.377729
11
0.872766
21
0.376906
0
LINE
8
BLACK
6
CONTINUOUS
10
0.872766
20
0.376906
11
0.87233
21
0.376806
0
LINE
8
BLACK
6
CONTINUOUS
10
0.87233
20
0.376806
11
0.87195
21
0.376568
0
LINE
8
BLACK
6
CONTINUOUS
10
0.87195
20
0.376568
11
0.870638
21
0.37642
0
LINE
8
BLACK
6
CONTINUOUS
10
0.870638
20
0.37642
11
0.86935
21
0.376126
0
LINE
8
BLACK
6
CONTINUOUS
10
0.86935
20
0.376126
11
0.752004
21
0.376126
0
LINE
8
BLACK
6
CONTINUOUS
10
0.752004
20
0.376126
11
0.750716
21
0.37642
0
LINE
8
BLACK
6
CONTINUOUS
10
0.750716
20
0.37642
11
0.749403
21
0.376568
0
LINE
8
BLACK
6
CONTINUOUS
10
0.749403
20
0.376568
11
0.749024
21
0.376806
0
LINE
8
BLACK
6
CONTINUOUS
10
0.749024
20
0.376806
11
0.748588
21
0.376906
0
LINE
8
BLACK
6
CONTINUOUS
10
0.748588
20
0.376906
11
0.747555
21
0.377729
0
LINE
8
BLACK
6
CONTINUOUS
10
0.747555
20
0.377729
11
0.746436
21
0.378432
0
LINE
8
BLACK
6
CONTINUOUS
10
0.746436
20
0.378432
11
0.706089
21
0.41878
0
LINE
8
BLACK
6
CONTINUOUS
10
0.706089
20
0.41878
11
0.689911
21
0.41878
0
LINE
8
BLACK
6
CONTINUOUS
10
0.689911
20
0.41878
11
0.686616
21
0.419435
0
LINE
8
BLACK
6
CONTINUOUS
10
0.686616
20
0.419435
11
0.683822
21
0.421302
0
LINE
8
BLACK
6
CONTINUOUS
10
0.683822
20
0.421302
11
0.681955
21
0.424096
0
LINE
8
BLACK
6
CONTINUOUS
10
0.681955
20
0.424096
11
0.681352
21
0.427126
0
LINE
8
BLACK
6
CONTINUOUS
10
0.681352
20
0.427126
11
0.628701
21
0.427126
0
LINE
8
BLACK
6
CONTINUOUS
10
0.628701
20
0.427126
11
0.628701
21
0.426388
0
LINE
8
BLACK
6
CONTINUOUS
10
0.628701
20
0.426388
11
0.628045
21
0.423092
0
LINE
8
BLACK
6
CONTINUOUS
10
0.628045
20
0.423092
11
0.626178
21
0.420298
0
LINE
8
BLACK
6
CONTINUOUS
10
0.626178
20
0.420298
11
0.623384
21
0.418431
0
LINE
8
BLACK
6
CONTINUOUS
10
0.623384
20
0.418431
11
0.620089
21
0.417776
0
LINE
8
BLACK
6
CONTINUOUS
10
0.620089
20
0.417776
11
0.603911
21
0.417776
0
LINE
8
BLACK
6
CONTINUOUS
10
0.603911
20
0.417776
11
0.566772
21
0.380636
0
LINE
8
BLACK
6
CONTINUOUS
10
0.566772
20
0.380636
11
0.566772
21
0.356299
0
LINE
8
BLACK
6
CONTINUOUS
10
0.566772
20
0.356299
11
0.566772
21
0.289364
0
LINE
8
BLACK
6
CONTINUOUS
10
0.566772
20
0.289364
11
0.590213
21
0.265922
0
LINE
8
BLACK
6
CONTINUOUS
10
0.590213
20
0.265922
11
0.590916
21
0.264804
0
LINE
8
BLACK
6
CONTINUOUS
10
0.590916
20
0.264804
11
0.59174
21
0.263771
0
LINE
8
BLACK
6
CONTINUOUS
10
0.59174
20
0.263771
11
0.59184
21
0.263334
0
LINE
8
BLACK
6
CONTINUOUS
10
0.59184
20
0.263334
11
0.592078
21
0.262955
0
LINE
8
BLACK
6
CONTINUOUS
10
0.592078
20
0.262955
11
0.592226
21
0.261642
0
LINE
8
BLACK
6
CONTINUOUS
10
0.592226
20
0.261642
11
0.59252
21
0.260354
0
LINE
8
BLACK
6
CONTINUOUS
10
0.59252
20
0.260354
11
0.59252
21
0.153616
0
LINE
8
BLACK
6
CONTINUOUS
10
0.59252
20
0.153616
11
0.605568
21
0.140568
0
LINE
8
BLACK
6
CONTINUOUS
10
0.605568
20
0.140568
11
0.606271
21
0.139449
0
LINE
8
BLACK
6
CONTINUOUS
10
0.606271
20
0.139449
11
0.607094
21
0.138416
0
LINE
8
BLACK
6
CONTINUOUS
10
0.607094
20
0.138416
11
0.607194
21
0.13798
0
LINE
8
BLACK
6
CONTINUOUS
10
0.607194
20
0.13798
11
0.607432
21
0.137601
0
LINE
8
BLACK
6
CONTINUOUS
10
0.607432
20
0.137601
11
0.60758
21
0.136288
0
LINE
8
BLACK
6
CONTINUOUS
10
0.60758
20
0.136288
11
0.607874
21
0.135
0
LINE
8
BLACK
6
CONTINUOUS
10
0.607874
20
0.135
11
0.607874
21
0.103262
0
LINE
8
BLACK
6
CONTINUOUS
10
0.607874
20
0.103262
11
0.623262
21
0.087874
0
LINE
8
BLACK
6
CONTINUOUS
10
0.623262
20
0.087874
11
0.639134
21
0.087874
0
LINE
8
BLACK
6
CONTINUOUS
10
0.639134
20
0.087874
11
0.639134
21
0.0898425
0
LINE
8
BLACK
6
CONTINUOUS
10
0.639134
20
0.0898425
11
0.639931
21
0.0953884
0
LINE
8
BLACK
6
CONTINUOUS
10
0.639931
20
0.0953884
11
0.642259
21
0.100485
0
LINE
8
BLACK
6
CONTINUOUS
10
0.642259
20
0.100485
11
0.645928
21
0.104719
0
LINE
8
BLACK
6
CONTINUOUS
10
0.645928
20
0.104719
11
0.650641
21
0.107749
0
LINE
8
BLACK
6
CONTINUOUS
10
0.650641
20
0.107749
11
0.656017
21
0.109327
0
LINE
8
BLACK
6
CONTINUOUS
10
0.656017
20
0.109327
11
0.658819
21
0.109327
0
LINE
8
BLACK
6
CONTINUOUS
10
0.658819
20
0.109327
11
0.658819
21
0.109528
0
LINE
8
BLACK
6
CONTINUOUS
10
0.658819
20
0.109528
11
0.680472
21
0.109528
0
LINE
8
BLACK
6
CONTINUOUS
10
0.680472
20
0.109528
11
0.680472
21
0.0504724
0
LINE
8
BLACK
6
CONTINUOUS
10
0.680472
20
0.0504724
11
0.658819
21
0.0504724
0
LINE
8
BLACK
6
CONTINUOUS
10
0.658819
20
0.0504724
11
0.658819
21
0.0506728
0
LINE
8
BLACK
6
CONTINUOUS
10
0.658819
20
0.0506728
11
0.656017
21
0.0506728
0
LINE
8
BLACK
6
CONTINUOUS
10
0.656017
20
0.0506728
11
0.650641
21
0.0522513
0
LINE
8
BLACK
6
CONTINUOUS
10
0.650641
20
0.0522513
11
0.645928
21
0.0552805
0
LINE
8
BLACK
6
CONTINUOUS
10
0.645928
20
0.0552805
11
0.642259
21
0.059515
0
LINE
8
BLACK
6
CONTINUOUS
10
0.642259
20
0.059515
11
0.639931
21
0.0646116
0
LINE
8
BLACK
6
CONTINUOUS
10
0.639931
20
0.0646116
11
0.639134
21
0.0701575
0
LINE
8
BLACK
6
CONTINUOUS
10
0.639134
20
0.0701575
11
0.639134
21
0.072126
0
LINE
8
BLACK
6
CONTINUOUS
10
0.639134
20
0.072126
11
0.62
21
0.072126
0
LINE
8
BLACK
6
CONTINUOUS
10
0.62
20
0.072126
11
0.618712
21
0.07242
0
LINE
8
BLACK
6
CONTINUOUS
10
0.618712
20
0.07242
11
0.617399
21
0.0725678
0
LINE
8
BLACK
6
CONTINUOUS
10
0.617399
20
0.0725678
11
0.61702
21
0.0728061
0
LINE
8
BLACK
6
CONTINUOUS
10
0.61702
20
0.0728061
11
0.616584
21
0.0729057
0
LINE
8
BLACK
6
CONTINUOUS
10
0.616584
20
0.0729057
11
0.615551
21
0.0737294
0
LINE
8
BLACK
6
CONTINUOUS
10
0.615551
20
0.0737294
11
0.614432
21
0.0744322
0
LINE
8
BLACK
6
CONTINUOUS
10
0.614432
20
0.0744322
11
0.594432
21
0.0944322
0
LINE
8
BLACK
6
CONTINUOUS
10
0.594432
20
0.0944322
11
0.593729
21
0.0955507
0
LINE
8
BLACK
6
CONTINUOUS
10
0.593729
20
0.0955507
11
0.592906
21
0.0965836
0
LINE
8
BLACK
6
CONTINUOUS
10
0.592906
20
0.0965836
11
0.592806
21
0.0970202
0
LINE
8
BLACK
6
CONTINUOUS
10
0.592806
20
0.0970202
11
0.592568
21
0.0973994
0
LINE
8
BLACK
6
CONTINUOUS
10
0.592568
20
0.0973994
11
0.59242
21
0.0987121
0
LINE
8
BLACK
6
CONTINUOUS
10
0.59242
20
0.0987121
11
0.592126
21
0.1
0
LINE
8
BLACK
6
CONTINUOUS
10
0.592126
20
0.1
11
0.592126
21
0.131739
0
LINE
8
BLACK
6
CONTINUOUS
10
0.592126
20
0.131739
11
0.579078
21
0.144787
0
LINE
8
BLACK
6
CONTINUOUS
10
0.579078
20
0.144787
11
0.578375
21
0.145905
0
LINE
8
BLACK
6
CONTINUOUS
10
0.578375
20
0.145905
11
0.577551
21
0.146938
0
LINE
8
BLACK
6
CONTINUOUS
10
0.577551
20
0.146938
11
0.577452
21
0.147375
0
LINE
8
BLACK
6
CONTINUOUS
10
0.577452
20
0.147375
11
0.577214
21
0.147754
0
LINE
8
BLACK
6
CONTINUOUS
10
0.577214
20
0.147754
11
0.577066
21
0.149066
0
LINE
8
BLACK
6
CONTINUOUS
10
0.577066
20
0.149066
11
0.576772
21
0.150354
0
LINE
8
BLACK
6
CONTINUOUS
10
0.576772
20
0.150354
11
0.576772
21
0.257093
0
LINE
8
BLACK
6
CONTINUOUS
10
0.576772
20
0.257093
11
0.55333
21
0.280535
0
LINE
8
BLACK
6
CONTINUOUS
10
0.55333
20
0.280535
11
0.552627
21
0.281653
0
LINE
8
BLACK
6
CONTINUOUS
10
0.552627
20
0.281653
11
0.551803
21
0.282686
0
LINE
8
BLACK
6
CONTINUOUS
10
0.551803
20
0.282686
11
0.551704
21
0.283123
0
LINE
8
BLACK
6
CONTINUOUS
10
0.551704
20
0.283123
11
0.551465
21
0.283502
0
LINE
8
BLACK
6
CONTINUOUS
10
0.551465
20
0.283502
11
0.551318
21
0.284814
0
LINE
8
BLACK
6
CONTINUOUS
10
0.551318
20
0.284814
11
0.551024
21
0.286102
0
LINE
8
BLACK
6
CONTINUOUS
10
0.551024
20
0.286102
11
0.551024
21
0.34498
0
LINE
8
BLACK
6
CONTINUOUS
10
0.551024
20
0.34498
11
0.526417
21
0.34498
0
LINE
8
BLACK
6
CONTINUOUS
10
0.526417
20
0.34498
11
0.526417
21
0.344242
0
LINE
8
BLACK
6
CONTINUOUS
10
0.526417
20
0.344242
11
0.525762
21
0.340946
0
LINE
8
BLACK
6
CONTINUOUS
10
0.525762
20
0.340946
11
0.523895
21
0.338152
0
LINE
8
BLACK
6
CONTINUOUS
10
0.523895
20
0.338152
11
0.521101
21
0.336285
0
LINE
8
BLACK
6
CONTINUOUS
10
0.521101
20
0.336285
11
0.517805
21
0.33563
0
LINE
8
BLACK
6
CONTINUOUS
10
0.517805
20
0.33563
11
0.515591
21
0.33563
0
LINE
8
BLACK
6
CONTINUOUS
10
0.515591
20
0.33563
11
0.515591
21
0.327756
0
LINE
8
BLACK
6
CONTINUOUS
10
0.515591
20
0.327756
11
0.515297
21
0.326468
0
LINE
8
BLACK
6
CONTINUOUS
10
0.515297
20
0.326468
11
0.515149
21
0.325155
0
LINE
8
BLACK
6
CONTINUOUS
10
0.515149
20
0.325155
11
0.51491
21
0.324776
0
LINE
8
BLACK
6
CONTINUOUS
10
0.51491
20
0.324776
11
0.514811
21
0.324339
0
LINE
8
BLACK
6
CONTINUOUS
10
0.514811
20
0.324339
11
0.513987
21
0.323307
0
LINE
8
BLACK
6
CONTINUOUS
10
0.513987
20
0.323307
11
0.513284
21
0.322188
0
LINE
8
BLACK
6
CONTINUOUS
10
0.513284
20
0.322188
11
0.468835
21
0.277739
0
LINE
8
BLACK
6
CONTINUOUS
10
0.468835
20
0.277739
11
0.467717
21
0.277037
0
LINE
8
BLACK
6
CONTINUOUS
10
0.467717
20
0.277037
11
0.466684
21
0.276213
0
LINE
8
BLACK
6
CONTINUOUS
10
0.466684
20
0.276213
11
0.466248
21
0.276113
0
LINE
8
BLACK
6
CONTINUOUS
10
0.466248
20
0.276113
11
0.465868
21
0.275875
0
LINE
8
BLACK
6
CONTINUOUS
10
0.465868
20
0.275875
11
0.464556
21
0.275727
0
LINE
8
BLACK
6
CONTINUOUS
10
0.464556
20
0.275727
11
0.463268
21
0.275433
0
LINE
8
BLACK
6
CONTINUOUS
10
0.463268
20
0.275433
11
0.405197
21
0.275433
0
LINE
8
BLACK
6
CONTINUOUS
10
0.405197
20
0.275433
11
0.405197
21
0.262441
0
LINE
8
BLACK
6
CONTINUOUS
10
0.405197
20
0.262441
11
0.379606
21
0.262441
0
LINE
8
BLACK
6
CONTINUOUS
10
0.379606
20
0.262441
11
0.379606
21
0.304173
0
LINE
8
BLACK
6
CONTINUOUS
10
0.379606
20
0.304173
11
0.405197
21
0.304173
0
LINE
8
BLACK
6
CONTINUOUS
10
0.405197
20
0.304173
11
0.405197
21
0.291181
0
LINE
8
BLACK
6
CONTINUOUS
10
0.405197
20
0.291181
11
0.460006
21
0.291181
0
LINE
8
BLACK
6
CONTINUOUS
10
0.460006
20
0.291181
11
0.499843
21
0.331017
0
LINE
8
BLACK
6
CONTINUOUS
10
0.499843
20
0.331017
11
0.499843
21
0.33563
0
LINE
8
BLACK
6
CONTINUOUS
10
0.499843
20
0.33563
11
0.497628
21
0.33563
0
LINE
8
BLACK
6
CONTINUOUS
10
0.497628
20
0.33563
11
0.494332
21
0.336285
0
LINE
8
BLACK
6
CONTINUOUS
10
0.494332
20
0.336285
11
0.491538
21
0.338152
0
LINE
8
BLACK
6
CONTINUOUS
10
0.491538
20
0.338152
11
0.489671
21
0.340946
0
LINE
8
BLACK
6
CONTINUOUS
10
0.489671
20
0.340946
11
0.489016
21
0.344242
0
LINE
8
BLACK
6
CONTINUOUS
10
0.489016
20
0.344242
11
0.489016
21
0.361467
0
LINE
8
BLACK
6
CONTINUOUS
10
0.489016
20
0.361467
11
0.489671
21
0.364762
0
LINE
8
BLACK
6
CONTINUOUS
10
0.489671
20
0.364762
11
0.491538
21
0.367556
0
LINE
8
BLACK
6
CONTINUOUS
10
0.491538
20
0.367556
11
0.494332
21
0.369423
0
LINE
8
BLACK
6
CONTINUOUS
10
0.494332
20
0.369423
11
0.497628
21
0.370079
0
LINE
8
BLACK
6
CONTINUOUS
10
0.497628
20
0.370079
11
0.517805
21
0.370079
0
LINE
8
BLACK
6
CONTINUOUS
10
0.517805
20
0.370079
11
0.521101
21
0.369423
0
LINE
8
BLACK
6
CONTINUOUS
10
0.521101
20
0.369423
11
0.523895
21
0.367556
0
LINE
8
BLACK
6
CONTINUOUS
10
0.523895
20
0.367556
11
0.525762
21
0.364762
0
LINE
8
BLACK
6
CONTINUOUS
10
0.525762
20
0.364762
11
0.526417
21
0.361467
0
LINE
8
BLACK
6
CONTINUOUS
10
0.526417
20
0.361467
11
0.526417
21
0.360728
0
LINE
8
BLACK
6
CONTINUOUS
10
0.526417
20
0.360728
11
0.551024
21
0.360728
0
LINE
8
BLACK
6
CONTINUOUS
10
0.551024
20
0.360728
11
0.551024
21
0.383898
0
LINE
8
BLACK
6
CONTINUOUS
10
0.551024
20
0.383898
11
0.551318
21
0.385186
0
LINE
8
BLACK
6
CONTINUOUS
10
0.551318
20
0.385186
11
0.551465
21
0.386498
0
LINE
8
BLACK
6
CONTINUOUS
10
0.551465
20
0.386498
11
0.551704
21
0.386877
0
LINE
8
BLACK
6
CONTINUOUS
10
0.551704
20
0.386877
11
0.551803
21
0.387314
0
LINE
8
BLACK
6
CONTINUOUS
10
0.551803
20
0.387314
11
0.552627
21
0.388347
0
LINE
8
BLACK
6
CONTINUOUS
10
0.552627
20
0.388347
11
0.55333
21
0.389465
0
LINE
8
BLACK
6
CONTINUOUS
10
0.55333
20
0.389465
11
0.591299
21
0.427435
0
LINE
8
BLACK
6
CONTINUOUS
10
0.591299
20
0.427435
11
0.591299
21
0.443612
0
LINE
8
BLACK
6
CONTINUOUS
10
0.591299
20
0.443612
11
0.591955
21
0.446908
0
LINE
8
BLACK
6
CONTINUOUS
10
0.591955
20
0.446908
11
0.593822
21
0.449702
0
LINE
8
BLACK
6
CONTINUOUS
10
0.593822
20
0.449702
11
0.596616
21
0.451569
0
LINE
8
BLACK
6
CONTINUOUS
10
0.596616
20
0.451569
11
0.599911
21
0.452224
0
LINE
8
BLACK
6
CONTINUOUS
10
0.599911
20
0.452224
11
0.620089
21
0.452224
0
LINE
8
BLACK
6
CONTINUOUS
10
0.620089
20
0.452224
11
0.623384
21
0.451569
0
LINE
8
BLACK
6
CONTINUOUS
10
0.623384
20
0.451569
11
0.626178
21
0.449702
0
LINE
8
BLACK
6
CONTINUOUS
10
0.626178
20
0.449702
11
0.628045
21
0.446908
0
LINE
8
BLACK
6
CONTINUOUS
10
0.628045
20
0.446908
11
0.628701
21
0.443612
0
LINE
8
BLACK
6
CONTINUOUS
10
0.628701
20
0.443612
11
0.628701
21
0.442874
0
LINE
8
BLACK
6
CONTINUOUS
10
0.628701
20
0.442874
11
0.681299
21
0.442874
0
LINE
8
BLACK
6
CONTINUOUS
10
0.681299
20
0.442874
11
0.681299
21
0.444616
0
LINE
8
BLACK
6
CONTINUOUS
10
0.681299
20
0.444616
11
0.681955
21
0.447912
0
LINE
8
BLACK
6
CONTINUOUS
10
0.681955
20
0.447912
11
0.683822
21
0.450706
0
LINE
8
BLACK
6
CONTINUOUS
10
0.683822
20
0.450706
11
0.686616
21
0.452573
0
LINE
8
BLACK
6
CONTINUOUS
10
0.686616
20
0.452573
11
0.689911
21
0.453228
0
LINE
8
BLACK
6
CONTINUOUS
10
0.689911
20
0.453228
11
0.710089
21
0.453228
0
LINE
8
BLACK
6
CONTINUOUS
10
0.710089
20
0.453228
11
0.713384
21
0.452573
0
LINE
8
BLACK
6
CONTINUOUS
10
0.713384
20
0.452573
11
0.716178
21
0.450706
0
LINE
8
BLACK
6
CONTINUOUS
10
0.716178
20
0.450706
11
0.718045
21
0.447912
0
LINE
8
BLACK
6
CONTINUOUS
10
0.718045
20
0.447912
11
0.718701
21
0.444616
0
LINE
8
BLACK
6
CONTINUOUS
10
0.718701
20
0.444616
11
0.718701
21
0.428439
0
LINE
8
BLACK
6
CONTINUOUS
10
0.718701
20
0.428439
11
0.755265
21
0.391874
0
LINE
8
BLACK
6
CONTINUOUS
10
0.755265
20
0.391874
11
0.866088
21
0.391874
0
LINE
8
BLACK
6
CONTINUOUS
10
0.866088
20
0.391874
11
0.936239
21
0.462024
0
LINE
8
BLACK
6
CONTINUOUS
10
0.936239
20
0.462024
11
0.937357
21
0.462727
0
LINE
8
BLACK
6
CONTINUOUS
10
0.937357
20
0.462727
11
0.93839
21
0.463551
0
LINE
8
BLACK
6
CONTINUOUS
10
0.93839
20
0.463551
11
0.938827
21
0.463651
0
LINE
8
BLACK
6
CONTINUOUS
10
0.938827
20
0.463651
11
0.939206
21
0.463889
0
LINE
8
BLACK
6
CONTINUOUS
10
0.939206
20
0.463889
11
0.940519
21
0.464037
0
LINE
8
BLACK
6
CONTINUOUS
10
0.940519
20
0.464037
11
0.941806
21
0.464331
0
LINE
8
BLACK
6
CONTINUOUS
10
0.941806
20
0.464331
11
0.983268
21
0.464331
0
LINE
8
BLACK
6
CONTINUOUS
10
0.983268
20
0.464331
11
0.983268
21
0.466545
0
LINE
8
BLACK
6
CONTINUOUS
10
0.983268
20
0.466545
11
0.983923
21
0.469841
0
LINE
8
BLACK
6
CONTINUOUS
10
0.983923
20
0.469841
11
0.98579
21
0.472635
0
LINE
8
BLACK
6
CONTINUOUS
10
0.98579
20
0.472635
11
0.988584
21
0.474502
0
LINE
8
BLACK
6
CONTINUOUS
10
0.988584
20
0.474502
11
0.99188
21
0.475157
0
LINE
8
BLACK
6
CONTINUOUS
10
0.99188
20
0.475157
11
1.0091
21
0.475157
0
LINE
8
BLACK
6
CONTINUOUS
10
1.0091
20
0.475157
11
1.0124
21
0.474502
0
LINE
8
BLACK
6
CONTINUOUS
10
0.628882
20
0.231513
11
0.633272
21
0.229276
0
LINE
8
BLACK
6
CONTINUOUS
10
0.633272
20
0.229276
11
0.636756
21
0.225792
0
LINE
8
BLACK
6
CONTINUOUS
10
0.636756
20
0.225792
11
0.638993
21
0.221402
0
LINE
8
BLACK
6
CONTINUOUS
10
0.638993
20
0.221402
11
0.639764
21
0.216535
0
LINE
8
BLACK
6
CONTINUOUS
10
0.639764
20
0.216535
11
0.638993
21
0.211669
0
LINE
8
BLACK
6
CONTINUOUS
10
0.638993
20
0.211669
11
0.636756
21
0.207279
0
LINE
8
BLACK
6
CONTINUOUS
10
0.636756
20
0.207279
11
0.633272
21
0.203795
0
LINE
8
BLACK
6
CONTINUOUS
10
0.633272
20
0.203795
11
0.632392
21
0.203346
0
LINE
8
BLACK
6
CONTINUOUS
10
0.632392
20
0.203346
11
0.642087
21
0.203346
0
LINE
8
BLACK
6
CONTINUOUS
10
0.642087
20
0.203346
11
0.642087
21
0.181102
0
LINE
8
BLACK
6
CONTINUOUS
10
0.642087
20
0.181102
11
0.735079
21
0.181102
0
LINE
8
BLACK
6
CONTINUOUS
10
0.735079
20
0.181102
11
0.736367
21
0.180808
0
LINE
8
BLACK
6
CONTINUOUS
10
0.736367
20
0.180808
11
0.737679
21
0.180661
0
LINE
8
BLACK
6
CONTINUOUS
10
0.737679
20
0.180661
11
0.738059
21
0.180422
0
LINE
8
BLACK
6
CONTINUOUS
10
0.738059
20
0.180422
11
0.738495
21
0.180323
0
LINE
8
BLACK
6
CONTINUOUS
10
0.738495
20
0.180323
11
0.739528
21
0.179499
0
LINE
8
BLACK
6
CONTINUOUS
10
0.739528
20
0.179499
11
0.740646
21
0.178796
0
LINE
8
BLACK
6
CONTINUOUS
10
0.740646
20
0.178796
11
0.766749
21
0.152694
0
LINE
8
BLACK
6
CONTINUOUS
10
0.766749
20
0.152694
11
0.767452
21
0.151575
0
LINE
8
BLACK
6
CONTINUOUS
10
0.767452
20
0.151575
11
0.768275
21
0.150542
0
LINE
8
BLACK
6
CONTINUOUS
10
0.768275
20
0.150542
11
0.768375
21
0.150106
0
LINE
8
BLACK
6
CONTINUOUS
10
0.768375
20
0.150106
11
0.768613
21
0.149727
0
LINE
8
BLACK
6
CONTINUOUS
10
0.768613
20
0.149727
11
0.768761
21
0.148414
0
LINE
8
BLACK
6
CONTINUOUS
10
0.768761
20
0.148414
11
0.769055
21
0.147126
0
LINE
8
BLACK
6
CONTINUOUS
10
0.769055
20
0.147126
11
0.769055
21
0.107838
0
LINE
8
BLACK
6
CONTINUOUS
10
0.769055
20
0.107838
11
0.769359
21
0.107749
0
LINE
8
BLACK
6
CONTINUOUS
10
0.769359
20
0.107749
11
0.774072
21
0.104719
0
LINE
8
BLACK
6
CONTINUOUS
10
0.774072
20
0.104719
11
0.777741
21
0.100485
0
LINE
8
BLACK
6
CONTINUOUS
10
0.777741
20
0.100485
11
0.780069
21
0.0953884
0
LINE
8
BLACK
6
CONTINUOUS
10
0.780069
20
0.0953884
11
0.780866
21
0.0898425
0
LINE
8
BLACK
6
CONTINUOUS
10
0.780866
20
0.0898425
11
0.780866
21
0.0701575
0
LINE
8
BLACK
6
CONTINUOUS
10
0.780866
20
0.0701575
11
0.780069
21
0.0646116
0
LINE
8
BLACK
6
CONTINUOUS
10
0.780069
20
0.0646116
11
0.777741
21
0.059515
0
LINE
8
BLACK
6
CONTINUOUS
10
0.777741
20
0.059515
11
0.774072
21
0.0552805
0
LINE
8
BLACK
6
CONTINUOUS
10
0.774072
20
0.0552805
11
0.769359
21
0.0522513
0
LINE
8
BLACK
6
CONTINUOUS
10
0.769359
20
0.0522513
11
0.763983
21
0.0506728
0
LINE
8
BLACK
6
CONTINUOUS
10
0.763983
20
0.0506728
11
0.761181
21
0.0506728
0
LINE
8
BLACK
6
CONTINUOUS
10
0.761181
20
0.0506728
11
0.761181
21
0.0504724
0
LINE
8
BLACK
6
CONTINUOUS
10
0.761181
20
0.0504724
11
0.739528
21
0.0504724
0
LINE
8
BLACK
6
CONTINUOUS
10
0.739528
20
0.0504724
11
0.739528
21
0.068189
0
LINE
8
BLACK
6
CONTINUOUS
10
0.739528
20
0.068189
11
0.729685
21
0.068189
0
LINE
8
BLACK
6
CONTINUOUS
10
0.729685
20
0.068189
11
0.729685
21
0.0504724
0
LINE
8
BLACK
6
CONTINUOUS
10
0.729685
20
0.0504724
11
0.690315
21
0.0504724
0
LINE
8
BLACK
6
CONTINUOUS
10
0.690315
20
0.0504724
11
0.690315
21
0.109528
0
LINE
8
BLACK
6
CONTINUOUS
10
0.690315
20
0.109528
11
0.704094
21
0.109528
0
LINE
8
BLACK
6
CONTINUOUS
10
0.704094
20
0.109528
11
0.704094
21
0.127304
0
LINE
8
BLACK
6
CONTINUOUS
10
0.704094
20
0.127304
11
0.700744
21
0.129012
0
LINE
8
BLACK
6
CONTINUOUS
10
0.700744
20
0.129012
11
0.69726
21
0.132496
0
LINE
8
BLACK
6
CONTINUOUS
10
0.69726
20
0.132496
11
0.695023
21
0.136886
0
LINE
8
BLACK
6
CONTINUOUS
10
0.695023
20
0.136886
11
0.694252
21
0.141752
0
LINE
8
BLACK
6
CONTINUOUS
10
0.694252
20
0.141752
11
0.695023
21
0.146618
0
LINE
8
BLACK
6
CONTINUOUS
10
0.695023
20
0.146618
11
0.69726
21
0.151008
0
LINE
8
BLACK
6
CONTINUOUS
10
0.69726
20
0.151008
11
0.700744
21
0.154492
0
LINE
8
BLACK
6
CONTINUOUS
10
0.700744
20
0.154492
11
0.705134
21
0.156729
0
LINE
8
BLACK
6
CONTINUOUS
10
0.705134
20
0.156729
11
0.71
21
0.1575
0
LINE
8
BLACK
6
CONTINUOUS
10
0.71
20
0.1575
11
0.714866
21
0.156729
0
LINE
8
BLACK
6
CONTINUOUS
10
0.714866
20
0.156729
11
0.719256
21
0.154492
0
LINE
8
BLACK
6
CONTINUOUS
10
0.719256
20
0.154492
11
0.72274
21
0.151008
0
LINE
8
BLACK
6
CONTINUOUS
10
0.72274
20
0.151008
11
0.724977
21
0.146618
0
LINE
8
BLACK
6
CONTINUOUS
10
0.724977
20
0.146618
11
0.725748
21
0.141752
0
LINE
8
BLACK
6
CONTINUOUS
10
0.725748
20
0.141752
11
0.724977
21
0.136886
0
LINE
8
BLACK
6
CONTINUOUS
10
0.724977
20
0.136886
11
0.72274
21
0.132496
0
LINE
8
BLACK
6
CONTINUOUS
10
0.72274
20
0.132496
11
0.719256
21
0.129012
0
LINE
8
BLACK
6
CONTINUOUS
10
0.719256
20
0.129012
11
0.715906
21
0.127304
0
LINE
8
BLACK
6
CONTINUOUS
10
0.715906
20
0.127304
11
0.715906
21
0.109528
0
LINE
8
BLACK
6
CONTINUOUS
10
0.715906
20
0.109528
11
0.729685
21
0.109528
0
LINE
8
BLACK
6
CONTINUOUS
10
0.729685
20
0.109528
11
0.729685
21
0.091811
0
LINE
8
BLACK
6
CONTINUOUS
10
0.729685
20
0.091811
11
0.739528
21
0.091811
0
LINE
8
BLACK
6
CONTINUOUS
10
0.739528
20
0.091811
11
0.739528
21
0.109528
0
LINE
8
BLACK
6
CONTINUOUS
10
0.739528
20
0.109528
11
0.753307
21
0.109528
0
LINE
8
BLACK
6
CONTINUOUS
10
0.753307
20
0.109528
11
0.753307
21
0.143864
0
LINE
8
BLACK
6
CONTINUOUS
10
0.753307
20
0.143864
11
0.731817
21
0.165354
0
LINE
8
BLACK
6
CONTINUOUS
10
0.731817
20
0.165354
11
0.63874
21
0.165354
0
LINE
8
BLACK
6
CONTINUOUS
10
0.63874
20
0.165354
11
0.637452
21
0.165648
0
LINE
8
BLACK
6
CONTINUOUS
10
0.637452
20
0.165648
11
0.63614
21
0.165796
0
LINE
8
BLACK
6
CONTINUOUS
10
0.63614
20
0.165796
11
0.63576
21
0.166034
0
LINE
8
BLACK
6
CONTINUOUS
10
0.63576
20
0.166034
11
0.635324
21
0.166134
0
LINE
8
BLACK
6
CONTINUOUS
10
0.635324
20
0.166134
11
0.634291
21
0.166958
0
LINE
8
BLACK
6
CONTINUOUS
10
0.634291
20
0.166958
11
0.633172
21
0.167661
0
LINE
8
BLACK
6
CONTINUOUS
10
0.633172
20
0.167661
11
0.628983
21
0.17185
0
LINE
8
BLACK
6
CONTINUOUS
10
0.628983
20
0.17185
11
0.606654
21
0.17185
0
LINE
8
BLACK
6
CONTINUOUS
10
0.606654
20
0.17185
11
0.606654
21
0.203346
0
LINE
8
BLACK
6
CONTINUOUS
10
0.606654
20
0.203346
11
0.61564
21
0.203346
0
LINE
8
BLACK
6
CONTINUOUS
10
0.61564
20
0.203346
11
0.614759
21
0.203795
0
LINE
8
BLACK
6
CONTINUOUS
10
0.614759
20
0.203795
11
0.611275
21
0.207279
0
LINE
8
BLACK
6
CONTINUOUS
10
0.611275
20
0.207279
11
0.609038
21
0.211669
0
LINE
8
BLACK
6
CONTINUOUS
10
0.609038
20
0.211669
11
0.608268
21
0.216535
0
LINE
8
BLACK
6
CONTINUOUS
10
0.608268
20
0.216535
11
0.609038
21
0.221402
0
LINE
8
BLACK
6
CONTINUOUS
10
0.609038
20
0.221402
11
0.611275
21
0.225792
0
LINE
8
BLACK
6
CONTINUOUS
10
0.611275
20
0.225792
11
0.614759
21
0.229276
0
LINE
8
BLACK
6
CONTINUOUS
10
0.614759
20
0.229276
11
0.619149
21
0.231513
0
LINE
8
BLACK
6
CONTINUOUS
10
0.619149
20
0.231513
11
0.624016
21
0.232283
0
LINE
8
BLACK
6
CONTINUOUS
10
0.624016
20
0.232283
11
0.628882
21
0.231513
0
LINE
8
BLACK
6
CONTINUOUS
10
0.46771
20
0.148307
11
0.4721
21
0.14607
0
LINE
8
BLACK
6
CONTINUOUS
10
0.4721
20
0.14607
11
0.475584
21
0.142586
0
LINE
8
BLACK
6
CONTINUOUS
10
0.475584
20
0.142586
11
0.477821
21
0.138196
0
LINE
8
BLACK
6
CONTINUOUS
10
0.477821
20
0.138196
11
0.478592
21
0.133329
0
LINE
8
BLACK
6
CONTINUOUS
10
0.478592
20
0.133329
11
0.477829
21
0.128515
0
LINE
8
BLACK
6
CONTINUOUS
10
0.477829
20
0.128515
11
0.482931
21
0.123413
0
LINE
8
BLACK
6
CONTINUOUS
10
0.482931
20
0.123413
11
0.48438
21
0.123701
0
LINE
8
BLACK
6
CONTINUOUS
10
0.48438
20
0.123701
11
0.501604
21
0.123701
0
LINE
8
BLACK
6
CONTINUOUS
10
0.501604
20
0.123701
11
0.5049
21
0.123045
0
LINE
8
BLACK
6
CONTINUOUS
10
0.5049
20
0.123045
11
0.507694
21
0.121178
0
LINE
8
BLACK
6
CONTINUOUS
10
0.507694
20
0.121178
11
0.509561
21
0.118384
0
LINE
8
BLACK
6
CONTINUOUS
10
0.509561
20
0.118384
11
0.510217
21
0.115089
0
LINE
8
BLACK
6
CONTINUOUS
10
0.510217
20
0.115089
11
0.510217
21
0.0949114
0
LINE
8
BLACK
6
CONTINUOUS
10
0.510217
20
0.0949114
11
0.509561
21
0.0916157
0
LINE
8
BLACK
6
CONTINUOUS
10
0.509561
20
0.0916157
11
0.507694
21
0.0888217
0
LINE
8
BLACK
6
CONTINUOUS
10
0.507694
20
0.0888217
11
0.5049
21
0.0869548
0
LINE
8
BLACK
6
CONTINUOUS
10
0.5049
20
0.0869548
11
0.501604
21
0.0862992
0
LINE
8
BLACK
6
CONTINUOUS
10
0.501604
20
0.0862992
11
0.48438
21
0.0862992
0
LINE
8
BLACK
6
CONTINUOUS
10
0.48438
20
0.0862992
11
0.481084
21
0.0869548
0
LINE
8
BLACK
6
CONTINUOUS
10
0.481084
20
0.0869548
11
0.47829
21
0.0888217
0
LINE
8
BLACK
6
CONTINUOUS
10
0.47829
20
0.0888217
11
0.476423
21
0.0916157
0
LINE
8
BLACK
6
CONTINUOUS
10
0.476423
20
0.0916157
11
0.475768
21
0.0949114
0
LINE
8
BLACK
6
CONTINUOUS
10
0.475768
20
0.0949114
11
0.475768
21
0.113873
0
LINE
8
BLACK
6
CONTINUOUS
10
0.475768
20
0.113873
11
0.470081
21
0.11956
0
LINE
8
BLACK
6
CONTINUOUS
10
0.470081
20
0.11956
11
0.46771
21
0.118352
0
LINE
8
BLACK
6
CONTINUOUS
10
0.46771
20
0.118352
11
0.462844
21
0.117581
0
LINE
8
BLACK
6
CONTINUOUS
10
0.462844
20
0.117581
11
0.457977
21
0.118352
0
LINE
8
BLACK
6
CONTINUOUS
10
0.457977
20
0.118352
11
0.453587
21
0.120589
0
LINE
8
BLACK
6
CONTINUOUS
10
0.453587
20
0.120589
11
0.450103
21
0.124073
0
LINE
8
BLACK
6
CONTINUOUS
10
0.450103
20
0.124073
11
0.447866
21
0.128463
0
LINE
8
BLACK
6
CONTINUOUS
10
0.447866
20
0.128463
11
0.447096
21
0.133329
0
LINE
8
BLACK
6
CONTINUOUS
10
0.447096
20
0.133329
11
0.447866
21
0.138196
0
LINE
8
BLACK
6
CONTINUOUS
10
0.447866
20
0.138196
11
0.450103
21
0.142586
0
LINE
8
BLACK
6
CONTINUOUS
10
0.450103
20
0.142586
11
0.453587
21
0.14607
0
LINE
8
BLACK
6
CONTINUOUS
10
0.453587
20
0.14607
11
0.457977
21
0.148307
0
LINE
8
BLACK
6
CONTINUOUS
10
0.457977
20
0.148307
11
0.462844
21
0.149077
0
LINE
8
BLACK
6
CONTINUOUS
10
0.462844
20
0.149077
11
0.46771
21
0.148307
0
LINE
8
BLACK
6
CONTINUOUS
10
0.114866
20
0.384977
11
0.119256
21
0.38274
0
LINE
8
BLACK
6
CONTINUOUS
10
0.119256
20
0.38274
11
0.12274
21
0.379256
0
LINE
8
BLACK
6
CONTINUOUS
10
0.12274
20
0.379256
11
0.124977
21
0.374866
0
LINE
8
BLACK
6
CONTINUOUS
10
0.124977
20
0.374866
11
0.125748
21
0.37
0
LINE
8
BLACK
6
CONTINUOUS
10
0.125748
20
0.37
11
0.124977
21
0.365134
0
LINE
8
BLACK
6
CONTINUOUS
10
0.124977
20
0.365134
11
0.12274
21
0.360744
0
LINE
8
BLACK
6
CONTINUOUS
10
0.12274
20
0.360744
11
0.119256
21
0.35726
0
LINE
8
BLACK
6
CONTINUOUS
10
0.119256
20
0.35726
11
0.114866
21
0.355023
0
LINE
8
BLACK
6
CONTINUOUS
10
0.114866
20
0.355023
11
0.11
21
0.354252
0
LINE
8
BLACK
6
CONTINUOUS
10
0.11
20
0.354252
11
0.106018
21
0.354883
0
LINE
8
BLACK
6
CONTINUOUS
10
0.106018
20
0.354883
11
0.0856299
21
0.334494
0
LINE
8
BLACK
6
CONTINUOUS
10
0.0856299
20
0.334494
11
0.0856299
21
0.255506
0
LINE
8
BLACK
6
CONTINUOUS
10
0.0856299
20
0.255506
11
0.111805
21
0.229331
0
LINE
8
BLACK
6
CONTINUOUS
10
0.111805
20
0.229331
11
0.157762
21
0.229331
0
LINE
8
BLACK
6
CONTINUOUS
10
0.157762
20
0.229331
11
0.15782
21
0.229622
0
LINE
8
BLACK
6
CONTINUOUS
10
0.15782
20
0.229622
11
0.1591
21
0.231538
0
LINE
8
BLACK
6
CONTINUOUS
10
0.1591
20
0.231538
11
0.161016
21
0.232818
0
LINE
8
BLACK
6
CONTINUOUS
10
0.161016
20
0.232818
11
0.163276
21
0.233268
0
LINE
8
BLACK
6
CONTINUOUS
10
0.163276
20
0.233268
11
0.218394
21
0.233268
0
LINE
8
BLACK
6
CONTINUOUS
10
0.218394
20
0.233268
11
0.220654
21
0.232818
0
LINE
8
BLACK
6
CONTINUOUS
10
0.220654
20
0.232818
11
0.22257
21
0.231538
0
LINE
8
BLACK
6
CONTINUOUS
10
0.22257
20
0.231538
11
0.22385
21
0.229622
0
LINE
8
BLACK
6
CONTINUOUS
10
0.22385
20
0.229622
11
0.223908
21
0.229331
0
LINE
8
BLACK
6
CONTINUOUS
10
0.223908
20
0.229331
11
0.243543
21
0.229331
0
LINE
8
BLACK
6
CONTINUOUS
10
0.243543
20
0.229331
11
0.244831
21
0.229037
0
LINE
8
BLACK
6
CONTINUOUS
10
0.244831
20
0.229037
11
0.246144
21
0.228889
0
LINE
8
BLACK
6
CONTINUOUS
10
0.246144
20
0.228889
11
0.246523
21
0.228651
0
LINE
8
BLACK
6
CONTINUOUS
10
0.246523
20
0.228651
11
0.24696
21
0.228551
0
LINE
8
BLACK
6
CONTINUOUS
10
0.24696
20
0.228551
11
0.247993
21
0.227727
0
LINE
8
BLACK
6
CONTINUOUS
10
0.247993
20
0.227727
11
0.249111
21
0.227024
0
LINE
8
BLACK
6
CONTINUOUS
10
0.249111
20
0.227024
11
0.271569
21
0.204567
0
LINE
8
BLACK
6
CONTINUOUS
10
0.271569
20
0.204567
11
0.304803
21
0.204567
0
LINE
8
BLACK
6
CONTINUOUS
10
0.304803
20
0.204567
11
0.304803
21
0.217559
0
LINE
8
BLACK
6
CONTINUOUS
10
0.304803
20
0.217559
11
0.330394
21
0.217559
0
LINE
8
BLACK
6
CONTINUOUS
10
0.330394
20
0.217559
11
0.330394
21
0.175827
0
LINE
8
BLACK
6
CONTINUOUS
10
0.330394
20
0.175827
11
0.325472
21
0.175827
0
LINE
8
BLACK
6
CONTINUOUS
10
0.325472
20
0.175827
11
0.325472
21
0.165663
0
LINE
8
BLACK
6
CONTINUOUS
10
0.325472
20
0.165663
11
0.333262
21
0.157874
0
LINE
8
BLACK
6
CONTINUOUS
10
0.333262
20
0.157874
11
0.379061
21
0.157874
0
LINE
8
BLACK
6
CONTINUOUS
10
0.379061
20
0.157874
11
0.384528
21
0.16334
0
LINE
8
BLACK
6
CONTINUOUS
10
0.384528
20
0.16334
11
0.384528
21
0.167598
0
LINE
8
BLACK
6
CONTINUOUS
10
0.384528
20
0.167598
11
0.384528
21
0.175827
0
LINE
8
BLACK
6
CONTINUOUS
10
0.384528
20
0.175827
11
0.379606
21
0.175827
0
LINE
8
BLACK
6
CONTINUOUS
10
0.379606
20
0.175827
11
0.379606
21
0.217559
0
LINE
8
BLACK
6
CONTINUOUS
10
0.379606
20
0.217559
11
0.405197
21
0.217559
0
LINE
8
BLACK
6
CONTINUOUS
10
0.405197
20
0.217559
11
0.405197
21
0.175827
0
LINE
8
BLACK
6
CONTINUOUS
10
0.405197
20
0.175827
11
0.400276
21
0.175827
0
LINE
8
BLACK
6
CONTINUOUS
10
0.400276
20
0.175827
11
0.400276
21
0.167598
0
LINE
8
BLACK
6
CONTINUOUS
10
0.400276
20
0.167598
11
0.400276
21
0.16586
0
LINE
8
BLACK
6
CONTINUOUS
10
0.400276
20
0.16586
11
0.408262
21
0.157874
0
LINE
8
BLACK
6
CONTINUOUS
10
0.408262
20
0.157874
11
0.42
21
0.157874
0
LINE
8
BLACK
6
CONTINUOUS
10
0.42
20
0.157874
11
0.431739
21
0.157874
0
LINE
8
BLACK
6
CONTINUOUS
10
0.431739
20
0.157874
11
0.446299
21
0.172435
0
LINE
8
BLACK
6
CONTINUOUS
10
0.446299
20
0.172435
11
0.446299
21
0.188612
0
LINE
8
BLACK
6
CONTINUOUS
10
0.446299
20
0.188612
11
0.446955
21
0.191908
0
LINE
8
BLACK
6
CONTINUOUS
10
0.446955
20
0.191908
11
0.448822
21
0.194702
0
LINE
8
BLACK
6
CONTINUOUS
10
0.448822
20
0.194702
11
0.451616
21
0.196569
0
LINE
8
BLACK
6
CONTINUOUS
10
0.451616
20
0.196569
11
0.454911
21
0.197224
0
LINE
8
BLACK
6
CONTINUOUS
10
0.454911
20
0.197224
11
0.475089
21
0.197224
0
LINE
8
BLACK
6
CONTINUOUS
10
0.475089
20
0.197224
11
0.478384
21
0.196569
0
LINE
8
BLACK
6
CONTINUOUS
10
0.478384
20
0.196569
11
0.481178
21
0.194702
0
LINE
8
BLACK
6
CONTINUOUS
10
0.481178
20
0.194702
11
0.483045
21
0.191908
0
LINE
8
BLACK
6
CONTINUOUS
10
0.483045
20
0.191908
11
0.483701
21
0.188612
0
LINE
8
BLACK
6
CONTINUOUS
10
0.483701
20
0.188612
11
0.483701
21
0.18445
0
LINE
8
BLACK
6
CONTINUOUS
10
0.483701
20
0.18445
11
0.484176
21
0.184176
0
LINE
8
BLACK
6
CONTINUOUS
10
0.484176
20
0.184176
11
0.544939
21
0.123413
0
LINE
8
BLACK
6
CONTINUOUS
10
0.544939
20
0.123413
11
0.546388
21
0.123701
0
LINE
8
BLACK
6
CONTINUOUS
10
0.546388
20
0.123701
11
0.563612
21
0.123701
0
LINE
8
BLACK
6
CONTINUOUS
10
0.563612
20
0.123701
11
0.566908
21
0.123045
0
LINE
8
BLACK
6
CONTINUOUS
10
0.566908
20
0.123045
11
0.569702
21
0.121178
0
LINE
8
BLACK
6
CONTINUOUS
10
0.569702
20
0.121178
11
0.571569
21
0.118384
0
LINE
8
BLACK
6
CONTINUOUS
10
0.571569
20
0.118384
11
0.572224
21
0.115089
0
LINE
8
BLACK
6
CONTINUOUS
10
0.572224
20
0.115089
11
0.572224
21
0.0949114
0
LINE
8
BLACK
6
CONTINUOUS
10
0.572224
20
0.0949114
11
0.571569
21
0.0916157
0
LINE
8
BLACK
6
CONTINUOUS
10
0.571569
20
0.0916157
11
0.569702
21
0.0888217
0
LINE
8
BLACK
6
CONTINUOUS
10
0.569702
20
0.0888217
11
0.566908
21
0.0869548
0
LINE
8
BLACK
6
CONTINUOUS
10
0.566908
20
0.0869548
11
0.563612
21
0.0862992
0
LINE
8
BLACK
6
CONTINUOUS
10
0.563612
20
0.0862992
11
0.546388
21
0.0862992
0
LINE
8
BLACK
6
CONTINUOUS
10
0.546388
20
0.0862992
11
0.543092
21
0.0869548
0
LINE
8
BLACK
6
CONTINUOUS
10
0.543092
20
0.0869548
11
0.540298
21
0.0888217
0
LINE
8
BLACK
6
CONTINUOUS
10
0.540298
20
0.0888217
11
0.538431
21
0.0916157
0
LINE
8
BLACK
6
CONTINUOUS
10
0.538431
20
0.0916157
11
0.537776
21
0.0949114
0
LINE
8
BLACK
6
CONTINUOUS
10
0.537776
20
0.0949114
11
0.537776
21
0.113873
0
LINE
8
BLACK
6
CONTINUOUS
10
0.537776
20
0.113873
11
0.48313
21
0.168518
0
LINE
8
BLACK
6
CONTINUOUS
10
0.48313
20
0.168518
11
0.483045
21
0.168092
0
LINE
8
BLACK
6
CONTINUOUS
10
0.483045
20
0.168092
11
0.481178
21
0.165298
0
LINE
8
BLACK
6
CONTINUOUS
10
0.481178
20
0.165298
11
0.478384
21
0.163431
0
LINE
8
BLACK
6
CONTINUOUS
10
0.478384
20
0.163431
11
0.475089
21
0.162776
0
LINE
8
BLACK
6
CONTINUOUS
10
0.475089
20
0.162776
11
0.458911
21
0.162776
0
LINE
8
BLACK
6
CONTINUOUS
10
0.458911
20
0.162776
11
0.440568
21
0.144432
0
LINE
8
BLACK
6
CONTINUOUS
10
0.440568
20
0.144432
11
0.439449
21
0.143729
0
LINE
8
BLACK
6
CONTINUOUS
10
0.439449
20
0.143729
11
0.438416
21
0.142906
0
LINE
8
BLACK
6
CONTINUOUS
10
0.438416
20
0.142906
11
0.43798
21
0.142806
0
LINE
8
BLACK
6
CONTINUOUS
10
0.43798
20
0.142806
11
0.437601
21
0.142568
0
LINE
8
BLACK
6
CONTINUOUS
10
0.437601
20
0.142568
11
0.436288
21
0.14242
0
LINE
8
BLACK
6
CONTINUOUS
10
0.436288
20
0.14242
11
0.435
21
0.142126
0
LINE
8
BLACK
6
CONTINUOUS
10
0.435
20
0.142126
11
0.42
21
0.142126
0
LINE
8
BLACK
6
CONTINUOUS
10
0.42
20
0.142126
11
0.405
21
0.142126
0
LINE
8
BLACK
6
CONTINUOUS
10
0.405
20
0.142126
11
0.382323
21
0.142126
0
LINE
8
BLACK
6
CONTINUOUS
10
0.382323
20
0.142126
11
0.33
21
0.142126
0
LINE
8
BLACK
6
CONTINUOUS
10
0.33
20
0.142126
11
0.328712
21
0.14242
0
LINE
8
BLACK
6
CONTINUOUS
10
0.328712
20
0.14242
11
0.327399
21
0.142568
0
LINE
8
BLACK
6
CONTINUOUS
10
0.327399
20
0.142568
11
0.32702
21
0.142806
0
LINE
8
BLACK
6
CONTINUOUS
10
0.32702
20
0.142806
11
0.326584
21
0.142906
0
LINE
8
BLACK
6
CONTINUOUS
10
0.326584
20
0.142906
11
0.325551
21
0.143729
0
LINE
8
BLACK
6
CONTINUOUS
10
0.325551
20
0.143729
11
0.324432
21
0.144432
0
LINE
8
BLACK
6
CONTINUOUS
10
0.324432
20
0.144432
11
0.312031
21
0.156834
0
LINE
8
BLACK
6
CONTINUOUS
10
0.312031
20
0.156834
11
0.311328
21
0.157952
0
LINE
8
BLACK
6
CONTINUOUS
10
0.311328
20
0.157952
11
0.310504
21
0.158985
0
LINE
8
BLACK
6
CONTINUOUS
10
0.310504
20
0.158985
11
0.310404
21
0.159422
0
LINE
8
BLACK
6
CONTINUOUS
10
0.310404
20
0.159422
11
0.310166
21
0.159801
0
LINE
8
BLACK
6
CONTINUOUS
10
0.310166
20
0.159801
11
0.310018
21
0.161114
0
LINE
8
BLACK
6
CONTINUOUS
10
0.310018
20
0.161114
11
0.309724
21
0.162402
0
LINE
8
BLACK
6
CONTINUOUS
10
0.309724
20
0.162402
11
0.309724
21
0.175827
0
LINE
8
BLACK
6
CONTINUOUS
10
0.309724
20
0.175827
11
0.304803
21
0.175827
0
LINE
8
BLACK
6
CONTINUOUS
10
0.304803
20
0.175827
11
0.304803
21
0.188819
0
LINE
8
BLACK
6
CONTINUOUS
10
0.304803
20
0.188819
11
0.268307
21
0.188819
0
LINE
8
BLACK
6
CONTINUOUS
10
0.268307
20
0.188819
11
0.267019
21
0.189113
0
LINE
8
BLACK
6
CONTINUOUS
10
0.267019
20
0.189113
11
0.265706
21
0.189261
0
LINE
8
BLACK
6
CONTINUOUS
10
0.265706
20
0.189261
11
0.265327
21
0.189499
0
LINE
8
BLACK
6
CONTINUOUS
10
0.265327
20
0.189499
11
0.264891
21
0.189599
0
LINE
8
BLACK
6
CONTINUOUS
10
0.264891
20
0.189599
11
0.263858
21
0.190422
0
LINE
8
BLACK
6
CONTINUOUS
10
0.263858
20
0.190422
11
0.262739
21
0.191125
0
LINE
8
BLACK
6
CONTINUOUS
10
0.262739
20
0.191125
11
0.240282
21
0.213583
0
LINE
8
BLACK
6
CONTINUOUS
10
0.240282
20
0.213583
11
0.223908
21
0.213583
0
LINE
8
BLACK
6
CONTINUOUS
10
0.223908
20
0.213583
11
0.22385
21
0.213291
0
LINE
8
BLACK
6
CONTINUOUS
10
0.22385
20
0.213291
11
0.22257
21
0.211375
0
LINE
8
BLACK
6
CONTINUOUS
10
0.22257
20
0.211375
11
0.220654
21
0.210095
0
LINE
8
BLACK
6
CONTINUOUS
10
0.220654
20
0.210095
11
0.218394
21
0.209646
0
LINE
8
BLACK
6
CONTINUOUS
10
0.218394
20
0.209646
11
0.163276
21
0.209646
0
LINE
8
BLACK
6
CONTINUOUS
10
0.163276
20
0.209646
11
0.161016
21
0.210095
0
LINE
8
BLACK
6
CONTINUOUS
10
0.161016
20
0.210095
11
0.1591
21
0.211375
0
LINE
8
BLACK
6
CONTINUOUS
10
0.1591
20
0.211375
11
0.15782
21
0.213291
0
LINE
8
BLACK
6
CONTINUOUS
10
0.15782
20
0.213291
11
0.157762
21
0.213583
0
LINE
8
BLACK
6
CONTINUOUS
10
0.157762
20
0.213583
11
0.108543
21
0.213583
0
LINE
8
BLACK
6
CONTINUOUS
10
0.108543
20
0.213583
11
0.107255
21
0.213877
0
LINE
8
BLACK
6
CONTINUOUS
10
0.107255
20
0.213877
11
0.105943
21
0.214025
0
LINE
8
BLACK
6
CONTINUOUS
10
0.105943
20
0.214025
11
0.105563
21
0.214263
0
LINE
8
BLACK
6
CONTINUOUS
10
0.105563
20
0.214263
11
0.105127
21
0.214362
0
LINE
8
BLACK
6
CONTINUOUS
10
0.105127
20
0.214362
11
0.104094
21
0.215186
0
LINE
8
BLACK
6
CONTINUOUS
10
0.104094
20
0.215186
11
0.102976
21
0.215889
0
LINE
8
BLACK
6
CONTINUOUS
10
0.102976
20
0.215889
11
0.0721881
21
0.246676
0
LINE
8
BLACK
6
CONTINUOUS
10
0.0721881
20
0.246676
11
0.0714854
21
0.247795
0
LINE
8
BLACK
6
CONTINUOUS
10
0.0714854
20
0.247795
11
0.0706617
21
0.248828
0
LINE
8
BLACK
6
CONTINUOUS
10
0.0706617
20
0.248828
11
0.070562
21
0.249264
0
LINE
8
BLACK
6
CONTINUOUS
10
0.070562
20
0.249264
11
0.0703237
21
0.249643
0
LINE
8
BLACK
6
CONTINUOUS
10
0.0703237
20
0.249643
11
0.0701758
21
0.250956
0
LINE
8
BLACK
6
CONTINUOUS
10
0.0701758
20
0.250956
11
0.0698819
21
0.252244
0
LINE
8
BLACK
6
CONTINUOUS
10
0.0698819
20
0.252244
11
0.0698819
21
0.337756
0
LINE
8
BLACK
6
CONTINUOUS
10
0.0698819
20
0.337756
11
0.0701758
21
0.339044
0
LINE
8
BLACK
6
CONTINUOUS
10
0.0701758
20
0.339044
11
0.0703237
21
0.340357
0
LINE
8
BLACK
6
CONTINUOUS
10
0.0703237
20
0.340357
11
0.070562
21
0.340736
0
LINE
8
BLACK
6
CONTINUOUS
10
0.070562
20
0.340736
11
0.0706617
21
0.341172
0
LINE
8
BLACK
6
CONTINUOUS
10
0.0706617
20
0.341172
11
0.0714854
21
0.342205
0
LINE
8
BLACK
6
CONTINUOUS
10
0.0714854
20
0.342205
11
0.0721881
21
0.343324
0
LINE
8
BLACK
6
CONTINUOUS
10
0.0721881
20
0.343324
11
0.0948826
21
0.366018
0
LINE
8
BLACK
6
CONTINUOUS
10
0.0948826
20
0.366018
11
0.094252
21
0.37
0
LINE
8
BLACK
6
CONTINUOUS
10
0.094252
20
0.37
11
0.0950227
21
0.374866
0
LINE
8
BLACK
6
CONTINUOUS
10
0.0950227
20
0.374866
11
0.0972596
21
0.379256
0
LINE
8
BLACK
6
CONTINUOUS
10
0.0972596
20
0.379256
11
0.100744
21
0.38274
0
LINE
8
BLACK
6
CONTINUOUS
10
0.100744
20
0.38274
11
0.105134
21
0.384977
0
LINE
8
BLACK
6
CONTINUOUS
10
0.105134
20
0.384977
11
0.11
21
0.385748
0
LINE
8
BLACK
6
CONTINUOUS
10
0.11
20
0.385748
11
0.114866
21
0.384977
0
LINE
8
BLACK
6
CONTINUOUS
10
0.563346
20
0.209252
11
0.551535
21
0.209252
0
LINE
8
BLACK
6
CONTINUOUS
10
0.551535
20
0.209252
11
0.551535
21
0.173591
0
LINE
8
BLACK
6
CONTINUOUS
10
0.551535
20
0.173591
11
0.55474
21
0.170386
0
LINE
8
BLACK
6
CONTINUOUS
10
0.55474
20
0.170386
11
0.556977
21
0.165996
0
LINE
8
BLACK
6
CONTINUOUS
10
0.556977
20
0.165996
11
0.557748
21
0.16113
0
LINE
8
BLACK
6
CONTINUOUS
10
0.557748
20
0.16113
11
0.556977
21
0.156263
0
LINE
8
BLACK
6
CONTINUOUS
10
0.556977
20
0.156263
11
0.55474
21
0.151873
0
LINE
8
BLACK
6
CONTINUOUS
10
0.55474
20
0.151873
11
0.551256
21
0.148389
0
LINE
8
BLACK
6
CONTINUOUS
10
0.551256
20
0.148389
11
0.546866
21
0.146153
0
LINE
8
BLACK
6
CONTINUOUS
10
0.546866
20
0.146153
11
0.542
21
0.145382
0
LINE
8
BLACK
6
CONTINUOUS
10
0.542
20
0.145382
11
0.537134
21
0.146153
0
LINE
8
BLACK
6
CONTINUOUS
10
0.537134
20
0.146153
11
0.532744
21
0.148389
0
LINE
8
BLACK
6
CONTINUOUS
10
0.532744
20
0.148389
11
0.52926
21
0.151873
0
LINE
8
BLACK
6
CONTINUOUS
10
0.52926
20
0.151873
11
0.527023
21
0.156263
0
LINE
8
BLACK
6
CONTINUOUS
10
0.527023
20
0.156263
11
0.526252
21
0.16113
0
LINE
8
BLACK
6
CONTINUOUS
10
0.526252
20
0.16113
11
0.527023
21
0.165996
0
LINE
8
BLACK
6
CONTINUOUS
10
0.527023
20
0.165996
11
0.52926
21
0.170386
0
LINE
8
BLACK
6
CONTINUOUS
10
0.52926
20
0.170386
11
0.532744
21
0.17387
0
LINE
8
BLACK
6
CONTINUOUS
10
0.532744
20
0.17387
11
0.537134
21
0.176107
0
LINE
8
BLACK
6
CONTINUOUS
10
0.537134
20
0.176107
11
0.539724
21
0.176517
0
LINE
8
BLACK
6
CONTINUOUS
10
0.539724
20
0.176517
11
0.539724
21
0.209252
0
LINE
8
BLACK
6
CONTINUOUS
10
0.539724
20
0.209252
11
0.527913
21
0.209252
0
LINE
8
BLACK
6
CONTINUOUS
10
0.527913
20
0.209252
11
0.527913
21
0.240748
0
LINE
8
BLACK
6
CONTINUOUS
10
0.527913
20
0.240748
11
0.563346
21
0.240748
0
LINE
8
BLACK
6
CONTINUOUS
10
0.563346
20
0.240748
11
0.563346
21
0.209252
0
LINE
8
BLACK
6
CONTINUOUS
10
1.04626
20
0.252162
11
1.04645
21
0.251969
0
LINE
8
BLACK
6
CONTINUOUS
10
1.04645
20
0.251969
11
1.04724
21
0.249016
0
LINE
8
BLACK
6
CONTINUOUS
10
1.04724
20
0.249016
11
1.04724
21
0.199237
0
LINE
8
BLACK
6
CONTINUOUS
10
1.04724
20
0.199237
11
1.04704
21
0.198487
0
LINE
8
BLACK
6
CONTINUOUS
10
1.04704
20
0.198487
11
1.04704
21
0.197709
0
LINE
8
BLACK
6
CONTINUOUS
10
1.04704
20
0.197709
11
1.04698
21
0.1976
0
LINE
8
BLACK
6
CONTINUOUS
10
1.04698
20
0.1976
11
1.04794
21
0.195724
0
LINE
8
BLACK
6
CONTINUOUS
10
1.04794
20
0.195724
11
1.04871
21
0.190858
0
LINE
8
BLACK
6
CONTINUOUS
10
1.04871
20
0.190858
11
1.04794
21
0.185991
0
LINE
8
BLACK
6
CONTINUOUS
10
1.04794
20
0.185991
11
1.0457
21
0.181601
0
LINE
8
BLACK
6
CONTINUOUS
10
1.0457
20
0.181601
11
1.04222
21
0.178117
0
LINE
8
BLACK
6
CONTINUOUS
10
1.04222
20
0.178117
11
1.03783
21
0.17588
0
LINE
8
BLACK
6
CONTINUOUS
10
1.03783
20
0.17588
11
1.03296
21
0.17511
0
LINE
8
BLACK
6
CONTINUOUS
10
1.03296
20
0.17511
11
1.02809
21
0.17588
0
LINE
8
BLACK
6
CONTINUOUS
10
1.02809
20
0.17588
11
1.0237
21
0.178117
0
LINE
8
BLACK
6
CONTINUOUS
10
1.0237
20
0.178117
11
1.02022
21
0.181601
0
LINE
8
BLACK
6
CONTINUOUS
10
1.02022
20
0.181601
11
1.01798
21
0.185991
0
LINE
8
BLACK
6
CONTINUOUS
10
1.01798
20
0.185991
11
1.01721
21
0.190858
0
LINE
8
BLACK
6
CONTINUOUS
10
1.01721
20
0.190858
11
1.01798
21
0.195724
0
LINE
8
BLACK
6
CONTINUOUS
10
1.01798
20
0.195724
11
1.02022
21
0.200114
0
LINE
8
BLACK
6
CONTINUOUS
10
1.02022
20
0.200114
11
1.0237
21
0.203598
0
LINE
8
BLACK
6
CONTINUOUS
10
1.0237
20
0.203598
11
1.02809
21
0.205835
0
LINE
8
BLACK
6
CONTINUOUS
10
1.02809
20
0.205835
11
1.03296
21
0.206606
0
LINE
8
BLACK
6
CONTINUOUS
10
1.03296
20
0.206606
11
1.03543
21
0.206214
0
LINE
8
BLACK
6
CONTINUOUS
10
1.03543
20
0.206214
11
1.03543
21
0.249016
0
LINE
8
BLACK
6
CONTINUOUS
10
1.03543
20
0.249016
11
1.03622
21
0.251969
0
LINE
8
BLACK
6
CONTINUOUS
10
1.03622
20
0.251969
11
1.03642
21
0.252162
0
LINE
8
BLACK
6
CONTINUOUS
10
1.03642
20
0.252162
11
1.03642
21
0.259843
0
LINE
8
BLACK
6
CONTINUOUS
10
1.03642
20
0.259843
11
1.04626
21
0.259843
0
LINE
8
BLACK
6
CONTINUOUS
10
1.04626
20
0.259843
11
1.04626
21
0.252162
0
LINE
8
BLACK
6
CONTINUOUS
10
0.478384
20
0.258577
11
0.481178
21
0.25671
0
LINE
8
BLACK
6
CONTINUOUS
10
0.481178
20
0.25671
11
0.483045
21
0.253916
0
LINE
8
BLACK
6
CONTINUOUS
10
0.483045
20
0.253916
11
0.483701
21
0.25062
0
LINE
8
BLACK
6
CONTINUOUS
10
0.483701
20
0.25062
11
0.483701
21
0.234443
0
LINE
8
BLACK
6
CONTINUOUS
10
0.483701
20
0.234443
11
0.509979
21
0.208164
0
LINE
8
BLACK
6
CONTINUOUS
10
0.509979
20
0.208164
11
0.51118
21
0.208354
0
LINE
8
BLACK
6
CONTINUOUS
10
0.51118
20
0.208354
11
0.516047
21
0.207583
0
LINE
8
BLACK
6
CONTINUOUS
10
0.516047
20
0.207583
11
0.520437
21
0.205347
0
LINE
8
BLACK
6
CONTINUOUS
10
0.520437
20
0.205347
11
0.523921
21
0.201863
0
LINE
8
BLACK
6
CONTINUOUS
10
0.523921
20
0.201863
11
0.526158
21
0.197473
0
LINE
8
BLACK
6
CONTINUOUS
10
0.526158
20
0.197473
11
0.526928
21
0.192606
0
LINE
8
BLACK
6
CONTINUOUS
10
0.526928
20
0.192606
11
0.526158
21
0.18774
0
LINE
8
BLACK
6
CONTINUOUS
10
0.526158
20
0.18774
11
0.523921
21
0.18335
0
LINE
8
BLACK
6
CONTINUOUS
10
0.523921
20
0.18335
11
0.520437
21
0.179866
0
LINE
8
BLACK
6
CONTINUOUS
10
0.520437
20
0.179866
11
0.516047
21
0.177629
0
LINE
8
BLACK
6
CONTINUOUS
10
0.516047
20
0.177629
11
0.51118
21
0.176858
0
LINE
8
BLACK
6
CONTINUOUS
10
0.51118
20
0.176858
11
0.506314
21
0.177629
0
LINE
8
BLACK
6
CONTINUOUS
10
0.506314
20
0.177629
11
0.501924
21
0.179866
0
LINE
8
BLACK
6
CONTINUOUS
10
0.501924
20
0.179866
11
0.49844
21
0.18335
0
LINE
8
BLACK
6
CONTINUOUS
10
0.49844
20
0.18335
11
0.496203
21
0.18774
0
LINE
8
BLACK
6
CONTINUOUS
10
0.496203
20
0.18774
11
0.495432
21
0.192606
0
LINE
8
BLACK
6
CONTINUOUS
10
0.495432
20
0.192606
11
0.496203
21
0.197473
0
LINE
8
BLACK
6
CONTINUOUS
10
0.496203
20
0.197473
11
0.496945
21
0.198928
0
LINE
8
BLACK
6
CONTINUOUS
10
0.496945
20
0.198928
11
0.471089
21
0.224783
0
LINE
8
BLACK
6
CONTINUOUS
10
0.471089
20
0.224783
11
0.454911
21
0.224783
0
LINE
8
BLACK
6
CONTINUOUS
10
0.454911
20
0.224783
11
0.451616
21
0.225439
0
LINE
8
BLACK
6
CONTINUOUS
10
0.451616
20
0.225439
11
0.448822
21
0.227306
0
LINE
8
BLACK
6
CONTINUOUS
10
0.448822
20
0.227306
11
0.446955
21
0.2301
0
LINE
8
BLACK
6
CONTINUOUS
10
0.446955
20
0.2301
11
0.446299
21
0.233396
0
LINE
8
BLACK
6
CONTINUOUS
10
0.446299
20
0.233396
11
0.446299
21
0.234134
0
LINE
8
BLACK
6
CONTINUOUS
10
0.446299
20
0.234134
11
0.374394
21
0.234134
0
LINE
8
BLACK
6
CONTINUOUS
10
0.374394
20
0.234134
11
0.374843
21
0.231299
0
LINE
8
BLACK
6
CONTINUOUS
10
0.374843
20
0.231299
11
0.374072
21
0.226433
0
LINE
8
BLACK
6
CONTINUOUS
10
0.374072
20
0.226433
11
0.371835
21
0.222043
0
LINE
8
BLACK
6
CONTINUOUS
10
0.371835
20
0.222043
11
0.368351
21
0.218559
0
LINE
8
BLACK
6
CONTINUOUS
10
0.368351
20
0.218559
11
0.366389
21
0.217559
0
LINE
8
BLACK
6
CONTINUOUS
10
0.366389
20
0.217559
11
0.367795
21
0.217559
0
LINE
8
BLACK
6
CONTINUOUS
10
0.367795
20
0.217559
11
0.367795
21
0.175827
0
LINE
8
BLACK
6
CONTINUOUS
10
0.367795
20
0.175827
11
0.342205
21
0.175827
0
LINE
8
BLACK
6
CONTINUOUS
10
0.342205
20
0.175827
11
0.342205
21
0.217559
0
LINE
8
BLACK
6
CONTINUOUS
10
0.342205
20
0.217559
11
0.347126
21
0.217559
0
LINE
8
BLACK
6
CONTINUOUS
10
0.347126
20
0.217559
11
0.347126
21
0.221271
0
LINE
8
BLACK
6
CONTINUOUS
10
0.347126
20
0.221271
11
0.346354
21
0.222043
0
LINE
8
BLACK
6
CONTINUOUS
10
0.346354
20
0.222043
11
0.344117
21
0.226433
0
LINE
8
BLACK
6
CONTINUOUS
10
0.344117
20
0.226433
11
0.343346
21
0.231299
0
LINE
8
BLACK
6
CONTINUOUS
10
0.343346
20
0.231299
11
0.344117
21
0.236166
0
LINE
8
BLACK
6
CONTINUOUS
10
0.344117
20
0.236166
11
0.346354
21
0.240556
0
LINE
8
BLACK
6
CONTINUOUS
10
0.346354
20
0.240556
11
0.349838
21
0.24404
0
LINE
8
BLACK
6
CONTINUOUS
10
0.349838
20
0.24404
11
0.354228
21
0.246276
0
LINE
8
BLACK
6
CONTINUOUS
10
0.354228
20
0.246276
11
0.359094
21
0.247047
0
LINE
8
BLACK
6
CONTINUOUS
10
0.359094
20
0.247047
11
0.363076
21
0.246417
0
LINE
8
BLACK
6
CONTINUOUS
10
0.363076
20
0.246417
11
0.364235
21
0.247576
0
LINE
8
BLACK
6
CONTINUOUS
10
0.364235
20
0.247576
11
0.365354
21
0.248278
0
LINE
8
BLACK
6
CONTINUOUS
10
0.365354
20
0.248278
11
0.366387
21
0.249102
0
LINE
8
BLACK
6
CONTINUOUS
10
0.366387
20
0.249102
11
0.366823
21
0.249202
0
LINE
8
BLACK
6
CONTINUOUS
10
0.366823
20
0.249202
11
0.367203
21
0.24944
0
LINE
8
BLACK
6
CONTINUOUS
10
0.367203
20
0.24944
11
0.368515
21
0.249588
0
LINE
8
BLACK
6
CONTINUOUS
10
0.368515
20
0.249588
11
0.369803
21
0.249882
0
LINE
8
BLACK
6
CONTINUOUS
10
0.369803
20
0.249882
11
0.446299
21
0.249882
0
LINE
8
BLACK
6
CONTINUOUS
10
0.446299
20
0.249882
11
0.446299
21
0.25062
0
LINE
8
BLACK
6
CONTINUOUS
10
0.446299
20
0.25062
11
0.446955
21
0.253916
0
LINE
8
BLACK
6
CONTINUOUS
10
0.446955
20
0.253916
11
0.448822
21
0.25671
0
LINE
8
BLACK
6
CONTINUOUS
10
0.448822
20
0.25671
11
0.451616
21
0.258577
0
LINE
8
BLACK
6
CONTINUOUS
10
0.451616
20
0.258577
11
0.454911
21
0.259232
0
LINE
8
BLACK
6
CONTINUOUS
10
0.454911
20
0.259232
11
0.475089
21
0.259232
0
LINE
8
BLACK
6
CONTINUOUS
10
0.475089
20
0.259232
11
0.478384
21
0.258577
0
LINE
8
BLACK
6
CONTINUOUS
10
1.06594
20
0.252162
11
1.06614
21
0.251969
0
LINE
8
BLACK
6
CONTINUOUS
10
1.06614
20
0.251969
11
1.06693
21
0.249016
0
LINE
8
BLACK
6
CONTINUOUS
10
1.06693
20
0.249016
11
1.06693
21
0.2118
0
LINE
8
BLACK
6
CONTINUOUS
10
1.06693
20
0.2118
11
1.06698
21
0.211828
0
LINE
8
BLACK
6
CONTINUOUS
10
1.06698
20
0.211828
11
1.07185
21
0.212598
0
LINE
8
BLACK
6
CONTINUOUS
10
1.07185
20
0.212598
11
1.07672
21
0.211828
0
LINE
8
BLACK
6
CONTINUOUS
10
1.07672
20
0.211828
11
1.08111
21
0.209591
0
LINE
8
BLACK
6
CONTINUOUS
10
1.08111
20
0.209591
11
1.08459
21
0.206107
0
LINE
8
BLACK
6
CONTINUOUS
10
1.08459
20
0.206107
11
1.08683
21
0.201717
0
LINE
8
BLACK
6
CONTINUOUS
10
1.08683
20
0.201717
11
1.0876
21
0.19685
0
LINE
8
BLACK
6
CONTINUOUS
10
1.0876
20
0.19685
11
1.08683
21
0.191984
0
LINE
8
BLACK
6
CONTINUOUS
10
1.08683
20
0.191984
11
1.08459
21
0.187594
0
LINE
8
BLACK
6
CONTINUOUS
10
1.08459
20
0.187594
11
1.08111
21
0.18411
0
LINE
8
BLACK
6
CONTINUOUS
10
1.08111
20
0.18411
11
1.07672
21
0.181873
0
LINE
8
BLACK
6
CONTINUOUS
10
1.07672
20
0.181873
11
1.07185
21
0.181102
0
LINE
8
BLACK
6
CONTINUOUS
10
1.07185
20
0.181102
11
1.06698
21
0.181873
0
LINE
8
BLACK
6
CONTINUOUS
10
1.06698
20
0.181873
11
1.06259
21
0.18411
0
LINE
8
BLACK
6
CONTINUOUS
10
1.06259
20
0.18411
11
1.05911
21
0.187594
0
LINE
8
BLACK
6
CONTINUOUS
10
1.05911
20
0.187594
11
1.05687
21
0.191984
0
LINE
8
BLACK
6
CONTINUOUS
10
1.05687
20
0.191984
11
1.0561
21
0.19685
0
LINE
8
BLACK
6
CONTINUOUS
10
1.0561
20
0.19685
11
1.05687
21
0.201717
0
LINE
8
BLACK
6
CONTINUOUS
10
1.05687
20
0.201717
11
1.05747
21
0.202882
0
LINE
8
BLACK
6
CONTINUOUS
10
1.05747
20
0.202882
11
1.05685
21
0.203501
0
LINE
8
BLACK
6
CONTINUOUS
10
1.05685
20
0.203501
11
1.05646
21
0.204175
0
LINE
8
BLACK
6
CONTINUOUS
10
1.05646
20
0.204175
11
1.05591
21
0.204724
0
LINE
8
BLACK
6
CONTINUOUS
10
1.05591
20
0.204724
11
1.05571
21
0.205475
0
LINE
8
BLACK
6
CONTINUOUS
10
1.05571
20
0.205475
11
1.05532
21
0.206149
0
LINE
8
BLACK
6
CONTINUOUS
10
1.05532
20
0.206149
11
1.05532
21
0.206926
0
LINE
8
BLACK
6
CONTINUOUS
10
1.05532
20
0.206926
11
1.05512
21
0.207677
0
LINE
8
BLACK
6
CONTINUOUS
10
1.05512
20
0.207677
11
1.05512
21
0.249016
0
LINE
8
BLACK
6
CONTINUOUS
10
1.05512
20
0.249016
11
1.05591
21
0.251969
0
LINE
8
BLACK
6
CONTINUOUS
10
1.05591
20
0.251969
11
1.0561
21
0.252162
0
LINE
8
BLACK
6
CONTINUOUS
10
1.0561
20
0.252162
11
1.0561
21
0.259843
0
LINE
8
BLACK
6
CONTINUOUS
10
1.0561
20
0.259843
11
1.06594
21
0.259843
0
LINE
8
BLACK
6
CONTINUOUS
10
1.06594
20
0.259843
11
1.06594
21
0.252162
0
LINE
8
BLACK
6
CONTINUOUS
10
0.642087
20
0.259049
11
0.655761
21
0.245374
0
LINE
8
BLACK
6
CONTINUOUS
10
0.655761
20
0.245374
11
0.6675
21
0.245374
0
LINE
8
BLACK
6
CONTINUOUS
10
0.6675
20
0.245374
11
0.668788
21
0.24508
0
LINE
8
BLACK
6
CONTINUOUS
10
0.668788
20
0.24508
11
0.670101
21
0.244932
0
LINE
8
BLACK
6
CONTINUOUS
10
0.670101
20
0.244932
11
0.67048
21
0.244694
0
LINE
8
BLACK
6
CONTINUOUS
10
0.67048
20
0.244694
11
0.670916
21
0.244594
0
LINE
8
BLACK
6
CONTINUOUS
10
0.670916
20
0.244594
11
0.671949
21
0.243771
0
LINE
8
BLACK
6
CONTINUOUS
10
0.671949
20
0.243771
11
0.673068
21
0.243068
0
LINE
8
BLACK
6
CONTINUOUS
10
0.673068
20
0.243068
11
0.687435
21
0.228701
0
LINE
8
BLACK
6
CONTINUOUS
10
0.687435
20
0.228701
11
0.701604
21
0.228701
0
LINE
8
BLACK
6
CONTINUOUS
10
0.701604
20
0.228701
11
0.7049
21
0.228045
0
LINE
8
BLACK
6
CONTINUOUS
10
0.7049
20
0.228045
11
0.707694
21
0.226178
0
LINE
8
BLACK
6
CONTINUOUS
10
0.707694
20
0.226178
11
0.709561
21
0.223384
0
LINE
8
BLACK
6
CONTINUOUS
10
0.709561
20
0.223384
11
0.710217
21
0.220089
0
LINE
8
BLACK
6
CONTINUOUS
10
0.710217
20
0.220089
11
0.710217
21
0.199911
0
LINE
8
BLACK
6
CONTINUOUS
10
0.710217
20
0.199911
11
0.709561
21
0.196616
0
LINE
8
BLACK
6
CONTINUOUS
10
0.709561
20
0.196616
11
0.707694
21
0.193822
0
LINE
8
BLACK
6
CONTINUOUS
10
0.707694
20
0.193822
11
0.7049
21
0.191955
0
LINE
8
BLACK
6
CONTINUOUS
10
0.7049
20
0.191955
11
0.701604
21
0.191299
0
LINE
8
BLACK
6
CONTINUOUS
10
0.701604
20
0.191299
11
0.68438
21
0.191299
0
LINE
8
BLACK
6
CONTINUOUS
10
0.68438
20
0.191299
11
0.681084
21
0.191955
0
LINE
8
BLACK
6
CONTINUOUS
10
0.681084
20
0.191955
11
0.67829
21
0.193822
0
LINE
8
BLACK
6
CONTINUOUS
10
0.67829
20
0.193822
11
0.676423
21
0.196616
0
LINE
8
BLACK
6
CONTINUOUS
10
0.676423
20
0.196616
11
0.675768
21
0.199911
0
LINE
8
BLACK
6
CONTINUOUS
10
0.675768
20
0.199911
11
0.675768
21
0.218097
0
LINE
8
BLACK
6
CONTINUOUS
10
0.675768
20
0.218097
11
0.664239
21
0.229626
0
LINE
8
BLACK
6
CONTINUOUS
10
0.664239
20
0.229626
11
0.6525
21
0.229626
0
LINE
8
BLACK
6
CONTINUOUS
10
0.6525
20
0.229626
11
0.651212
21
0.22992
0
LINE
8
BLACK
6
CONTINUOUS
10
0.651212
20
0.22992
11
0.649899
21
0.230068
0
LINE
8
BLACK
6
CONTINUOUS
10
0.649899
20
0.230068
11
0.64952
21
0.230306
0
LINE
8
BLACK
6
CONTINUOUS
10
0.64952
20
0.230306
11
0.649084
21
0.230406
0
LINE
8
BLACK
6
CONTINUOUS
10
0.649084
20
0.230406
11
0.648051
21
0.231229
0
LINE
8
BLACK
6
CONTINUOUS
10
0.648051
20
0.231229
11
0.646932
21
0.231932
0
LINE
8
BLACK
6
CONTINUOUS
10
0.646932
20
0.231932
11
0.632211
21
0.246654
0
LINE
8
BLACK
6
CONTINUOUS
10
0.632211
20
0.246654
11
0.606654
21
0.246654
0
LINE
8
BLACK
6
CONTINUOUS
10
0.606654
20
0.246654
11
0.606654
21
0.27815
0
LINE
8
BLACK
6
CONTINUOUS
10
0.606654
20
0.27815
11
0.642087
21
0.27815
0
LINE
8
BLACK
6
CONTINUOUS
10
0.642087
20
0.27815
11
0.642087
21
0.259049
0
LINE
8
BLACK
6
CONTINUOUS
10
0.872597
20
0.292019
11
0.873375
21
0.292019
0
LINE
8
BLACK
6
CONTINUOUS
10
0.873375
20
0.292019
11
0.874048
21
0.291631
0
LINE
8
BLACK
6
CONTINUOUS
10
0.874048
20
0.291631
11
0.874799
21
0.291429
0
LINE
8
BLACK
6
CONTINUOUS
10
0.874799
20
0.291429
11
0.875349
21
0.29088
0
LINE
8
BLACK
6
CONTINUOUS
10
0.875349
20
0.29088
11
0.876022
21
0.290491
0
LINE
8
BLACK
6
CONTINUOUS
10
0.876022
20
0.290491
11
0.931277
21
0.235236
0
LINE
8
BLACK
6
CONTINUOUS
10
0.931277
20
0.235236
11
0.946
21
0.235236
0
LINE
8
BLACK
6
CONTINUOUS
10
0.946
20
0.235236
11
0.946751
21
0.235035
0
LINE
8
BLACK
6
CONTINUOUS
10
0.946751
20
0.235035
11
0.947528
21
0.235035
0
LINE
8
BLACK
6
CONTINUOUS
10
0.947528
20
0.235035
11
0.948202
21
0.234646
0
LINE
8
BLACK
6
CONTINUOUS
10
0.948202
20
0.234646
11
0.948953
21
0.234445
0
LINE
8
BLACK
6
CONTINUOUS
10
0.948953
20
0.234445
11
0.949503
21
0.233895
0
LINE
8
BLACK
6
CONTINUOUS
10
0.949503
20
0.233895
11
0.950176
21
0.233507
0
LINE
8
BLACK
6
CONTINUOUS
10
0.950176
20
0.233507
11
0.973777
21
0.209906
0
LINE
8
BLACK
6
CONTINUOUS
10
0.973777
20
0.209906
11
0.995554
21
0.209906
0
LINE
8
BLACK
6
CONTINUOUS
10
0.995554
20
0.209906
11
1.01575
21
0.2301
0
LINE
8
BLACK
6
CONTINUOUS
10
1.01575
20
0.2301
11
1.01575
21
0.249016
0
LINE
8
BLACK
6
CONTINUOUS
10
1.01575
20
0.249016
11
1.01654
21
0.251969
0
LINE
8
BLACK
6
CONTINUOUS
10
1.01654
20
0.251969
11
1.01673
21
0.252162
0
LINE
8
BLACK
6
CONTINUOUS
10
1.01673
20
0.252162
11
1.01673
21
0.259843
0
LINE
8
BLACK
6
CONTINUOUS
10
1.01673
20
0.259843
11
1.02657
21
0.259843
0
LINE
8
BLACK
6
CONTINUOUS
10
1.02657
20
0.259843
11
1.02657
21
0.252162
0
LINE
8
BLACK
6
CONTINUOUS
10
1.02657
20
0.252162
11
1.02677
21
0.251969
0
LINE
8
BLACK
6
CONTINUOUS
10
1.02677
20
0.251969
11
1.02756
21
0.249016
0
LINE
8
BLACK
6
CONTINUOUS
10
1.02756
20
0.249016
11
1.02756
21
0.227654
0
LINE
8
BLACK
6
CONTINUOUS
10
1.02756
20
0.227654
11
1.02736
21
0.226903
0
LINE
8
BLACK
6
CONTINUOUS
10
1.02736
20
0.226903
11
1.02736
21
0.226125
0
LINE
8
BLACK
6
CONTINUOUS
10
1.02736
20
0.226125
11
1.02697
21
0.225452
0
LINE
8
BLACK
6
CONTINUOUS
10
1.02697
20
0.225452
11
1.02677
21
0.224701
0
LINE
8
BLACK
6
CONTINUOUS
10
1.02677
20
0.224701
11
1.02622
21
0.224151
0
LINE
8
BLACK
6
CONTINUOUS
10
1.02622
20
0.224151
11
1.02583
21
0.223478
0
LINE
8
BLACK
6
CONTINUOUS
10
1.02583
20
0.223478
11
1.00218
21
0.199824
0
LINE
8
BLACK
6
CONTINUOUS
10
1.00218
20
0.199824
11
1.0015
21
0.199435
0
LINE
8
BLACK
6
CONTINUOUS
10
1.0015
20
0.199435
11
1.00095
21
0.198886
0
LINE
8
BLACK
6
CONTINUOUS
10
1.00095
20
0.198886
11
1.0002
21
0.198684
0
LINE
8
BLACK
6
CONTINUOUS
10
1.0002
20
0.198684
11
0.999528
21
0.198296
0
LINE
8
BLACK
6
CONTINUOUS
10
0.999528
20
0.198296
11
0.998751
21
0.198296
0
LINE
8
BLACK
6
CONTINUOUS
10
0.998751
20
0.198296
11
0.998
21
0.198094
0
LINE
8
BLACK
6
CONTINUOUS
10
0.998
20
0.198094
11
0.971331
21
0.198094
0
LINE
8
BLACK
6
CONTINUOUS
10
0.971331
20
0.198094
11
0.97058
21
0.198296
0
LINE
8
BLACK
6
CONTINUOUS
10
0.97058
20
0.198296
11
0.969802
21
0.198296
0
LINE
8
BLACK
6
CONTINUOUS
10
0.969802
20
0.198296
11
0.969129
21
0.198684
0
LINE
8
BLACK
6
CONTINUOUS
10
0.969129
20
0.198684
11
0.968378
21
0.198886
0
LINE
8
BLACK
6
CONTINUOUS
10
0.968378
20
0.198886
11
0.967828
21
0.199435
0
LINE
8
BLACK
6
CONTINUOUS
10
0.967828
20
0.199435
11
0.967155
21
0.199824
0
LINE
8
BLACK
6
CONTINUOUS
10
0.967155
20
0.199824
11
0.943554
21
0.223425
0
LINE
8
BLACK
6
CONTINUOUS
10
0.943554
20
0.223425
11
0.92883
21
0.223425
0
LINE
8
BLACK
6
CONTINUOUS
10
0.92883
20
0.223425
11
0.928079
21
0.223626
0
LINE
8
BLACK
6
CONTINUOUS
10
0.928079
20
0.223626
11
0.927302
21
0.223626
0
LINE
8
BLACK
6
CONTINUOUS
10
0.927302
20
0.223626
11
0.926629
21
0.224015
0
LINE
8
BLACK
6
CONTINUOUS
10
0.926629
20
0.224015
11
0.925878
21
0.224216
0
LINE
8
BLACK
6
CONTINUOUS
10
0.925878
20
0.224216
11
0.925328
21
0.224766
0
LINE
8
BLACK
6
CONTINUOUS
10
0.925328
20
0.224766
11
0.924655
21
0.225155
0
LINE
8
BLACK
6
CONTINUOUS
10
0.924655
20
0.225155
11
0.8694
21
0.280409
0
LINE
8
BLACK
6
CONTINUOUS
10
0.8694
20
0.280409
11
0.833761
21
0.280409
0
LINE
8
BLACK
6
CONTINUOUS
10
0.833761
20
0.280409
11
0.772224
21
0.218873
0
LINE
8
BLACK
6
CONTINUOUS
10
0.772224
20
0.218873
11
0.772224
21
0.199911
0
LINE
8
BLACK
6
CONTINUOUS
10
0.772224
20
0.199911
11
0.771569
21
0.196616
0
LINE
8
BLACK
6
CONTINUOUS
10
0.771569
20
0.196616
11
0.769702
21
0.193822
0
LINE
8
BLACK
6
CONTINUOUS
10
0.769702
20
0.193822
11
0.766908
21
0.191955
0
LINE
8
BLACK
6
CONTINUOUS
10
0.766908
20
0.191955
11
0.763612
21
0.191299
0
LINE
8
BLACK
6
CONTINUOUS
10
0.763612
20
0.191299
11
0.746388
21
0.191299
0
LINE
8
BLACK
6
CONTINUOUS
10
0.746388
20
0.191299
11
0.743092
21
0.191955
0
LINE
8
BLACK
6
CONTINUOUS
10
0.743092
20
0.191955
11
0.740298
21
0.193822
0
LINE
8
BLACK
6
CONTINUOUS
10
0.740298
20
0.193822
11
0.738431
21
0.196616
0
LINE
8
BLACK
6
CONTINUOUS
10
0.738431
20
0.196616
11
0.737776
21
0.199911
0
LINE
8
BLACK
6
CONTINUOUS
10
0.737776
20
0.199911
11
0.737776
21
0.220089
0
LINE
8
BLACK
6
CONTINUOUS
10
0.737776
20
0.220089
11
0.738431
21
0.223384
0
LINE
8
BLACK
6
CONTINUOUS
10
0.738431
20
0.223384
11
0.740298
21
0.226178
0
LINE
8
BLACK
6
CONTINUOUS
10
0.740298
20
0.226178
11
0.743092
21
0.228045
0
LINE
8
BLACK
6
CONTINUOUS
10
0.743092
20
0.228045
11
0.746388
21
0.228701
0
LINE
8
BLACK
6
CONTINUOUS
10
0.746388
20
0.228701
11
0.763612
21
0.228701
0
LINE
8
BLACK
6
CONTINUOUS
10
0.763612
20
0.228701
11
0.765061
21
0.228413
0
LINE
8
BLACK
6
CONTINUOUS
10
0.765061
20
0.228413
11
0.827139
21
0.290491
0
LINE
8
BLACK
6
CONTINUOUS
10
0.827139
20
0.290491
11
0.827812
21
0.29088
0
LINE
8
BLACK
6
CONTINUOUS
10
0.827812
20
0.29088
11
0.828362
21
0.291429
0
LINE
8
BLACK
6
CONTINUOUS
10
0.828362
20
0.291429
11
0.829113
21
0.291631
0
LINE
8
BLACK
6
CONTINUOUS
10
0.829113
20
0.291631
11
0.829786
21
0.292019
0
LINE
8
BLACK
6
CONTINUOUS
10
0.829786
20
0.292019
11
0.830564
21
0.292019
0
LINE
8
BLACK
6
CONTINUOUS
10
0.830564
20
0.292019
11
0.831315
21
0.29222
0
LINE
8
BLACK
6
CONTINUOUS
10
0.831315
20
0.29222
11
0.871846
21
0.29222
0
LINE
8
BLACK
6
CONTINUOUS
10
0.871846
20
0.29222
11
0.872597
21
0.292019
0
LINE
8
BLACK
6
CONTINUOUS
10
0.713384
20
0.390565
11
0.716178
21
0.388698
0
LINE
8
BLACK
6
CONTINUOUS
10
0.716178
20
0.388698
11
0.718045
21
0.385904
0
LINE
8
BLACK
6
CONTINUOUS
10
0.718045
20
0.385904
11
0.718701
21
0.382608
0
LINE
8
BLACK
6
CONTINUOUS
10
0.718701
20
0.382608
11
0.718701
21
0.365384
0
LINE
8
BLACK
6
CONTINUOUS
10
0.718701
20
0.365384
11
0.718045
21
0.362088
0
LINE
8
BLACK
6
CONTINUOUS
10
0.718045
20
0.362088
11
0.716178
21
0.359294
0
LINE
8
BLACK
6
CONTINUOUS
10
0.716178
20
0.359294
11
0.713384
21
0.357427
0
LINE
8
BLACK
6
CONTINUOUS
10
0.713384
20
0.357427
11
0.710089
21
0.356772
0
LINE
8
BLACK
6
CONTINUOUS
10
0.710089
20
0.356772
11
0.707874
21
0.356772
0
LINE
8
BLACK
6
CONTINUOUS
10
0.707874
20
0.356772
11
0.707874
21
0.286226
0
LINE
8
BLACK
6
CONTINUOUS
10
0.707874
20
0.286226
11
0.731824
21
0.310176
0
LINE
8
BLACK
6
CONTINUOUS
10
0.731824
20
0.310176
11
0.732497
21
0.310565
0
LINE
8
BLACK
6
CONTINUOUS
10
0.732497
20
0.310565
11
0.733047
21
0.311114
0
LINE
8
BLACK
6
CONTINUOUS
10
0.733047
20
0.311114
11
0.733798
21
0.311316
0
LINE
8
BLACK
6
CONTINUOUS
10
0.733798
20
0.311316
11
0.734472
21
0.311704
0
LINE
8
BLACK
6
CONTINUOUS
10
0.734472
20
0.311704
11
0.735249
21
0.311704
0
LINE
8
BLACK
6
CONTINUOUS
10
0.735249
20
0.311704
11
0.736
21
0.311906
0
LINE
8
BLACK
6
CONTINUOUS
10
0.736
20
0.311906
11
0.88
21
0.311906
0
LINE
8
BLACK
6
CONTINUOUS
10
0.88
20
0.311906
11
0.880751
21
0.311704
0
LINE
8
BLACK
6
CONTINUOUS
10
0.880751
20
0.311704
11
0.881528
21
0.311704
0
LINE
8
BLACK
6
CONTINUOUS
10
0.881528
20
0.311704
11
0.882202
21
0.311316
0
LINE
8
BLACK
6
CONTINUOUS
10
0.882202
20
0.311316
11
0.882953
21
0.311114
0
LINE
8
BLACK
6
CONTINUOUS
10
0.882953
20
0.311114
11
0.883503
21
0.310565
0
LINE
8
BLACK
6
CONTINUOUS
10
0.883503
20
0.310565
11
0.884176
21
0.310176
0
LINE
8
BLACK
6
CONTINUOUS
10
0.884176
20
0.310176
11
0.93943
21
0.254921
0
LINE
8
BLACK
6
CONTINUOUS
10
0.93943
20
0.254921
11
0.997047
21
0.254921
0
LINE
8
BLACK
6
CONTINUOUS
10
0.997047
20
0.254921
11
0.997047
21
0.259843
0
LINE
8
BLACK
6
CONTINUOUS
10
0.997047
20
0.259843
11
1.00689
21
0.259843
0
LINE
8
BLACK
6
CONTINUOUS
10
1.00689
20
0.259843
11
1.00689
21
0.252162
0
LINE
8
BLACK
6
CONTINUOUS
10
1.00689
20
0.252162
11
1.00708
21
0.251969
0
LINE
8
BLACK
6
CONTINUOUS
10
1.00708
20
0.251969
11
1.00787
21
0.249016
0
LINE
8
BLACK
6
CONTINUOUS
10
1.00787
20
0.249016
11
1.00708
21
0.246063
0
LINE
8
BLACK
6
CONTINUOUS
10
1.00708
20
0.246063
11
1.00689
21
0.24587
0
LINE
8
BLACK
6
CONTINUOUS
10
1.00689
20
0.24587
11
1.00689
21
0.238189
0
LINE
8
BLACK
6
CONTINUOUS
10
1.00689
20
0.238189
11
0.997047
21
0.238189
0
LINE
8
BLACK
6
CONTINUOUS
10
0.997047
20
0.238189
11
0.997047
21
0.24311
0
LINE
8
BLACK
6
CONTINUOUS
10
0.997047
20
0.24311
11
0.936984
21
0.24311
0
LINE
8
BLACK
6
CONTINUOUS
10
0.936984
20
0.24311
11
0.936233
21
0.243311
0
LINE
8
BLACK
6
CONTINUOUS
10
0.936233
20
0.243311
11
0.935456
21
0.243311
0
LINE
8
BLACK
6
CONTINUOUS
10
0.935456
20
0.243311
11
0.934782
21
0.2437
0
LINE
8
BLACK
6
CONTINUOUS
10
0.934782
20
0.2437
11
0.934031
21
0.243901
0
LINE
8
BLACK
6
CONTINUOUS
10
0.934031
20
0.243901
11
0.933482
21
0.244451
0
LINE
8
BLACK
6
CONTINUOUS
10
0.933482
20
0.244451
11
0.932808
21
0.24484
0
LINE
8
BLACK
6
CONTINUOUS
10
0.932808
20
0.24484
11
0.877554
21
0.300094
0
LINE
8
BLACK
6
CONTINUOUS
10
0.877554
20
0.300094
11
0.738446
21
0.300094
0
LINE
8
BLACK
6
CONTINUOUS
10
0.738446
20
0.300094
11
0.714383
21
0.276032
0
LINE
8
BLACK
6
CONTINUOUS
10
0.714383
20
0.276032
11
0.714977
21
0.274866
0
LINE
8
BLACK
6
CONTINUOUS
10
0.714977
20
0.274866
11
0.715748
21
0.27
0
LINE
8
BLACK
6
CONTINUOUS
10
0.715748
20
0.27
11
0.714977
21
0.265134
0
LINE
8
BLACK
6
CONTINUOUS
10
0.714977
20
0.265134
11
0.71274
21
0.260744
0
LINE
8
BLACK
6
CONTINUOUS
10
0.71274
20
0.260744
11
0.709256
21
0.25726
0
LINE
8
BLACK
6
CONTINUOUS
10
0.709256
20
0.25726
11
0.704866
21
0.255023
0
LINE
8
BLACK
6
CONTINUOUS
10
0.704866
20
0.255023
11
0.7
21
0.254252
0
LINE
8
BLACK
6
CONTINUOUS
10
0.7
20
0.254252
11
0.695134
21
0.255023
0
LINE
8
BLACK
6
CONTINUOUS
10
0.695134
20
0.255023
11
0.690744
21
0.25726
0
LINE
8
BLACK
6
CONTINUOUS
10
0.690744
20
0.25726
11
0.68726
21
0.260744
0
LINE
8
BLACK
6
CONTINUOUS
10
0.68726
20
0.260744
11
0.685023
21
0.265134
0
LINE
8
BLACK
6
CONTINUOUS
10
0.685023
20
0.265134
11
0.684252
21
0.27
0
LINE
8
BLACK
6
CONTINUOUS
10
0.684252
20
0.27
11
0.685023
21
0.274866
0
LINE
8
BLACK
6
CONTINUOUS
10
0.685023
20
0.274866
11
0.68726
21
0.279256
0
LINE
8
BLACK
6
CONTINUOUS
10
0.68726
20
0.279256
11
0.690744
21
0.28274
0
LINE
8
BLACK
6
CONTINUOUS
10
0.690744
20
0.28274
11
0.692126
21
0.283445
0
LINE
8
BLACK
6
CONTINUOUS
10
0.692126
20
0.283445
11
0.692126
21
0.356772
0
LINE
8
BLACK
6
CONTINUOUS
10
0.692126
20
0.356772
11
0.689911
21
0.356772
0
LINE
8
BLACK
6
CONTINUOUS
10
0.689911
20
0.356772
11
0.686616
21
0.357427
0
LINE
8
BLACK
6
CONTINUOUS
10
0.686616
20
0.357427
11
0.683822
21
0.359294
0
LINE
8
BLACK
6
CONTINUOUS
10
0.683822
20
0.359294
11
0.681955
21
0.362088
0
LINE
8
BLACK
6
CONTINUOUS
10
0.681955
20
0.362088
11
0.681299
21
0.365384
0
LINE
8
BLACK
6
CONTINUOUS
10
0.681299
20
0.365384
11
0.681299
21
0.382608
0
LINE
8
BLACK
6
CONTINUOUS
10
0.681299
20
0.382608
11
0.681955
21
0.385904
0
LINE
8
BLACK
6
CONTINUOUS
10
0.681955
20
0.385904
11
0.683822
21
0.388698
0
LINE
8
BLACK
6
CONTINUOUS
10
0.683822
20
0.388698
11
0.686616
21
0.390565
0
LINE
8
BLACK
6
CONTINUOUS
10
0.686616
20
0.390565
11
0.689911
21
0.39122
0
LINE
8
BLACK
6
CONTINUOUS
10
0.689911
20
0.39122
11
0.710089
21
0.39122
0
LINE
8
BLACK
6
CONTINUOUS
10
0.710089
20
0.39122
11
0.713384
21
0.390565
0
LINE
8
BLACK
6
CONTINUOUS
10
0.254866
20
0.284977
11
0.259256
21
0.28274
0
LINE
8
BLACK
6
CONTINUOUS
10
0.259256
20
0.28274
11
0.26274
21
0.279256
0
LINE
8
BLACK
6
CONTINUOUS
10
0.26274
20
0.279256
11
0.264977
21
0.274866
0
LINE
8
BLACK
6
CONTINUOUS
10
0.264977
20
0.274866
11
0.265748
21
0.27
0
LINE
8
BLACK
6
CONTINUOUS
10
0.265748
20
0.27
11
0.264977
21
0.265134
0
LINE
8
BLACK
6
CONTINUOUS
10
0.264977
20
0.265134
11
0.26274
21
0.260744
0
LINE
8
BLACK
6
CONTINUOUS
10
0.26274
20
0.260744
11
0.259256
21
0.25726
0
LINE
8
BLACK
6
CONTINUOUS
10
0.259256
20
0.25726
11
0.254866
21
0.255023
0
LINE
8
BLACK
6
CONTINUOUS
10
0.254866
20
0.255023
11
0.25
21
0.254252
0
LINE
8
BLACK
6
CONTINUOUS
10
0.25
20
0.254252
11
0.245134
21
0.255023
0
LINE
8
BLACK
6
CONTINUOUS
10
0.245134
20
0.255023
11
0.240744
21
0.25726
0
LINE
8
BLACK
6
CONTINUOUS
10
0.240744
20
0.25726
11
0.23726
21
0.260744
0
LINE
8
BLACK
6
CONTINUOUS
10
0.23726
20
0.260744
11
0.236214
21
0.262795
0
LINE
8
BLACK
6
CONTINUOUS
10
0.236214
20
0.262795
11
0.223908
21
0.262795
0
LINE
8
BLACK
6
CONTINUOUS
10
0.223908
20
0.262795
11
0.22385
21
0.262504
0
LINE
8
BLACK
6
CONTINUOUS
10
0.22385
20
0.262504
11
0.22257
21
0.260588
0
LINE
8
BLACK
6
CONTINUOUS
10
0.22257
20
0.260588
11
0.220654
21
0.259308
0
LINE
8
BLACK
6
CONTINUOUS
10
0.220654
20
0.259308
11
0.218394
21
0.258858
0
LINE
8
BLACK
6
CONTINUOUS
10
0.218394
20
0.258858
11
0.163276
21
0.258858
0
LINE
8
BLACK
6
CONTINUOUS
10
0.163276
20
0.258858
11
0.161016
21
0.259308
0
LINE
8
BLACK
6
CONTINUOUS
10
0.161016
20
0.259308
11
0.1591
21
0.260588
0
LINE
8
BLACK
6
CONTINUOUS
10
0.1591
20
0.260588
11
0.15782
21
0.262504
0
LINE
8
BLACK
6
CONTINUOUS
10
0.15782
20
0.262504
11
0.15737
21
0.264764
0
LINE
8
BLACK
6
CONTINUOUS
10
0.15737
20
0.264764
11
0.15737
21
0.276575
0
LINE
8
BLACK
6
CONTINUOUS
10
0.15737
20
0.276575
11
0.15782
21
0.278835
0
LINE
8
BLACK
6
CONTINUOUS
10
0.15782
20
0.278835
11
0.1591
21
0.280751
0
LINE
8
BLACK
6
CONTINUOUS
10
0.1591
20
0.280751
11
0.161016
21
0.282031
0
LINE
8
BLACK
6
CONTINUOUS
10
0.161016
20
0.282031
11
0.163276
21
0.28248
0
LINE
8
BLACK
6
CONTINUOUS
10
0.163276
20
0.28248
11
0.218394
21
0.28248
0
LINE
8
BLACK
6
CONTINUOUS
10
0.218394
20
0.28248
11
0.220654
21
0.282031
0
LINE
8
BLACK
6
CONTINUOUS
10
0.220654
20
0.282031
11
0.22257
21
0.280751
0
LINE
8
BLACK
6
CONTINUOUS
10
0.22257
20
0.280751
11
0.22385
21
0.278835
0
LINE
8
BLACK
6
CONTINUOUS
10
0.22385
20
0.278835
11
0.223908
21
0.278543
0
LINE
8
BLACK
6
CONTINUOUS
10
0.223908
20
0.278543
11
0.236896
21
0.278543
0
LINE
8
BLACK
6
CONTINUOUS
10
0.236896
20
0.278543
11
0.23726
21
0.279256
0
LINE
8
BLACK
6
CONTINUOUS
10
0.23726
20
0.279256
11
0.240744
21
0.28274
0
LINE
8
BLACK
6
CONTINUOUS
10
0.240744
20
0.28274
11
0.245134
21
0.284977
0
LINE
8
BLACK
6
CONTINUOUS
10
0.245134
20
0.284977
11
0.25
21
0.285748
0
LINE
8
BLACK
6
CONTINUOUS
10
0.25
20
0.285748
11
0.254866
21
0.284977
0
LINE
8
BLACK
6
CONTINUOUS
10
0.220654
20
0.331243
11
0.22257
21
0.329963
0
LINE
8
BLACK
6
CONTINUOUS
10
0.22257
20
0.329963
11
0.22385
21
0.328047
0
LINE
8
BLACK
6
CONTINUOUS
10
0.22385
20
0.328047
11
0.223908
21
0.327756
0
LINE
8
BLACK
6
CONTINUOUS
10
0.223908
20
0.327756
11
0.259685
21
0.327756
0
LINE
8
BLACK
6
CONTINUOUS
10
0.259685
20
0.327756
11
0.260793
21
0.327503
0
LINE
8
BLACK
6
CONTINUOUS
10
0.260793
20
0.327503
11
0.261708
21
0.327969
0
LINE
8
BLACK
6
CONTINUOUS
10
0.261708
20
0.327969
11
0.266575
21
0.32874
0
LINE
8
BLACK
6
CONTINUOUS
10
0.266575
20
0.32874
11
0.271441
21
0.327969
0
LINE
8
BLACK
6
CONTINUOUS
10
0.271441
20
0.327969
11
0.275831
21
0.325733
0
LINE
8
BLACK
6
CONTINUOUS
10
0.275831
20
0.325733
11
0.279315
21
0.322249
0
LINE
8
BLACK
6
CONTINUOUS
10
0.279315
20
0.322249
11
0.281552
21
0.317859
0
LINE
8
BLACK
6
CONTINUOUS
10
0.281552
20
0.317859
11
0.282323
21
0.312992
0
LINE
8
BLACK
6
CONTINUOUS
10
0.282323
20
0.312992
11
0.281552
21
0.308126
0
LINE
8
BLACK
6
CONTINUOUS
10
0.281552
20
0.308126
11
0.279315
21
0.303736
0
LINE
8
BLACK
6
CONTINUOUS
10
0.279315
20
0.303736
11
0.275831
21
0.300252
0
LINE
8
BLACK
6
CONTINUOUS
10
0.275831
20
0.300252
11
0.271441
21
0.298015
0
LINE
8
BLACK
6
CONTINUOUS
10
0.271441
20
0.298015
11
0.266575
21
0.297244
0
LINE
8
BLACK
6
CONTINUOUS
10
0.266575
20
0.297244
11
0.261708
21
0.298015
0
LINE
8
BLACK
6
CONTINUOUS
10
0.261708
20
0.298015
11
0.257318
21
0.300252
0
LINE
8
BLACK
6
CONTINUOUS
10
0.257318
20
0.300252
11
0.253834
21
0.303736
0
LINE
8
BLACK
6
CONTINUOUS
10
0.253834
20
0.303736
11
0.251598
21
0.308126
0
LINE
8
BLACK
6
CONTINUOUS
10
0.251598
20
0.308126
11
0.250983
21
0.312008
0
LINE
8
BLACK
6
CONTINUOUS
10
0.250983
20
0.312008
11
0.223908
21
0.312008
0
LINE
8
BLACK
6
CONTINUOUS
10
0.223908
20
0.312008
11
0.22385
21
0.311716
0
LINE
8
BLACK
6
CONTINUOUS
10
0.22385
20
0.311716
11
0.22257
21
0.309801
0
LINE
8
BLACK
6
CONTINUOUS
10
0.22257
20
0.309801
11
0.220654
21
0.30852
0
LINE
8
BLACK
6
CONTINUOUS
10
0.220654
20
0.30852
11
0.218394
21
0.308071
0
LINE
8
BLACK
6
CONTINUOUS
10
0.218394
20
0.308071
11
0.163276
21
0.308071
0
LINE
8
BLACK
6
CONTINUOUS
10
0.163276
20
0.308071
11
0.161016
21
0.30852
0
LINE
8
BLACK
6
CONTINUOUS
10
0.161016
20
0.30852
11
0.1591
21
0.309801
0
LINE
8
BLACK
6
CONTINUOUS
10
0.1591
20
0.309801
11
0.15782
21
0.311716
0
LINE
8
BLACK
6
CONTINUOUS
10
0.15782
20
0.311716
11
0.157762
21
0.312008
0
LINE
8
BLACK
6
CONTINUOUS
10
0.157762
20
0.312008
11
0.123143
21
0.312008
0
LINE
8
BLACK
6
CONTINUOUS
10
0.123143
20
0.312008
11
0.120079
21
0.308943
0
LINE
8
BLACK
6
CONTINUOUS
10
0.120079
20
0.308943
11
0.120079
21
0.284114
0
LINE
8
BLACK
6
CONTINUOUS
10
0.120079
20
0.284114
11
0.121461
21
0.28341
0
LINE
8
BLACK
6
CONTINUOUS
10
0.121461
20
0.28341
11
0.124945
21
0.279926
0
LINE
8
BLACK
6
CONTINUOUS
10
0.124945
20
0.279926
11
0.127182
21
0.275536
0
LINE
8
BLACK
6
CONTINUOUS
10
0.127182
20
0.275536
11
0.127953
21
0.270669
0
LINE
8
BLACK
6
CONTINUOUS
10
0.127953
20
0.270669
11
0.127182
21
0.265803
0
LINE
8
BLACK
6
CONTINUOUS
10
0.127182
20
0.265803
11
0.124945
21
0.261413
0
LINE
8
BLACK
6
CONTINUOUS
10
0.124945
20
0.261413
11
0.121461
21
0.257929
0
LINE
8
BLACK
6
CONTINUOUS
10
0.121461
20
0.257929
11
0.117071
21
0.255692
0
LINE
8
BLACK
6
CONTINUOUS
10
0.117071
20
0.255692
11
0.112205
21
0.254921
0
LINE
8
BLACK
6
CONTINUOUS
10
0.112205
20
0.254921
11
0.107338
21
0.255692
0
LINE
8
BLACK
6
CONTINUOUS
10
0.107338
20
0.255692
11
0.102948
21
0.257929
0
LINE
8
BLACK
6
CONTINUOUS
10
0.102948
20
0.257929
11
0.0994643
21
0.261413
0
LINE
8
BLACK
6
CONTINUOUS
10
0.0994643
20
0.261413
11
0.0972274
21
0.265803
0
LINE
8
BLACK
6
CONTINUOUS
10
0.0972274
20
0.265803
11
0.0964567
21
0.270669
0
LINE
8
BLACK
6
CONTINUOUS
10
0.0964567
20
0.270669
11
0.0972274
21
0.275536
0
LINE
8
BLACK
6
CONTINUOUS
10
0.0972274
20
0.275536
11
0.0994643
21
0.279926
0
LINE
8
BLACK
6
CONTINUOUS
10
0.0994643
20
0.279926
11
0.102948
21
0.28341
0
LINE
8
BLACK
6
CONTINUOUS
10
0.102948
20
0.28341
11
0.104331
21
0.284114
0
LINE
8
BLACK
6
CONTINUOUS
10
0.104331
20
0.284114
11
0.104331
21
0.312205
0
LINE
8
BLACK
6
CONTINUOUS
10
0.104331
20
0.312205
11
0.104625
21
0.313493
0
LINE
8
BLACK
6
CONTINUOUS
10
0.104625
20
0.313493
11
0.104773
21
0.314805
0
LINE
8
BLACK
6
CONTINUOUS
10
0.104773
20
0.314805
11
0.105011
21
0.315185
0
LINE
8
BLACK
6
CONTINUOUS
10
0.105011
20
0.315185
11
0.10511
21
0.315621
0
LINE
8
BLACK
6
CONTINUOUS
10
0.10511
20
0.315621
11
0.105934
21
0.316654
0
LINE
8
BLACK
6
CONTINUOUS
10
0.105934
20
0.316654
11
0.106637
21
0.317772
0
LINE
8
BLACK
6
CONTINUOUS
10
0.106637
20
0.317772
11
0.114314
21
0.32545
0
LINE
8
BLACK
6
CONTINUOUS
10
0.114314
20
0.32545
11
0.115433
21
0.326153
0
LINE
8
BLACK
6
CONTINUOUS
10
0.115433
20
0.326153
11
0.116465
21
0.326976
0
LINE
8
BLACK
6
CONTINUOUS
10
0.116465
20
0.326976
11
0.116902
21
0.327076
0
LINE
8
BLACK
6
CONTINUOUS
10
0.116902
20
0.327076
11
0.117281
21
0.327314
0
LINE
8
BLACK
6
CONTINUOUS
10
0.117281
20
0.327314
11
0.118594
21
0.327462
0
LINE
8
BLACK
6
CONTINUOUS
10
0.118594
20
0.327462
11
0.119882
21
0.327756
0
LINE
8
BLACK
6
CONTINUOUS
10
0.119882
20
0.327756
11
0.157762
21
0.327756
0
LINE
8
BLACK
6
CONTINUOUS
10
0.157762
20
0.327756
11
0.15782
21
0.328047
0
LINE
8
BLACK
6
CONTINUOUS
10
0.15782
20
0.328047
11
0.1591
21
0.329963
0
LINE
8
BLACK
6
CONTINUOUS
10
0.1591
20
0.329963
11
0.161016
21
0.331243
0
LINE
8
BLACK
6
CONTINUOUS
10
0.161016
20
0.331243
11
0.163276
21
0.331693
0
LINE
8
BLACK
6
CONTINUOUS
10
0.163276
20
0.331693
11
0.218394
21
0.331693
0
LINE
8
BLACK
6
CONTINUOUS
10
0.218394
20
0.331693
11
0.220654
21
0.331243
0
LINE
8
BLACK
6
CONTINUOUS
10
0.330394
20
0.262441
11
0.304803
21
0.262441
0
LINE
8
BLACK
6
CONTINUOUS
10
0.304803
20
0.262441
11
0.304803
21
0.304173
0
LINE
8
BLACK
6
CONTINUOUS
10
0.304803
20
0.304173
11
0.330394
21
0.304173
0
LINE
8
BLACK
6
CONTINUOUS
10
0.330394
20
0.304173
11
0.330394
21
0.262441
0
LINE
8
BLACK
6
CONTINUOUS
10
1.07441
20
0.474502
11
1.0772
21
0.472635
0
LINE
8
BLACK
6
CONTINUOUS
10
1.0772
20
0.472635
11
1.07907
21
0.469841
0
LINE
8
BLACK
6
CONTINUOUS
10
1.07907
20
0.469841
11
1.07972
21
0.466545
0
LINE
8
BLACK
6
CONTINUOUS
10
1.07972
20
0.466545
11
1.07972
21
0.446368
0
LINE
8
BLACK
6
CONTINUOUS
10
1.07972
20
0.446368
11
1.07907
21
0.443072
0
LINE
8
BLACK
6
CONTINUOUS
10
1.07907
20
0.443072
11
1.0772
21
0.440278
0
LINE
8
BLACK
6
CONTINUOUS
10
1.0772
20
0.440278
11
1.07441
21
0.438411
0
LINE
8
BLACK
6
CONTINUOUS
10
1.07441
20
0.438411
11
1.07111
21
0.437756
0
LINE
8
BLACK
6
CONTINUOUS
10
1.07111
20
0.437756
11
1.07037
21
0.437756
0
LINE
8
BLACK
6
CONTINUOUS
10
1.07037
20
0.437756
11
1.07037
21
0.401426
0
LINE
8
BLACK
6
CONTINUOUS
10
1.07037
20
0.401426
11
1.07376
21
0.398036
0
LINE
8
BLACK
6
CONTINUOUS
10
1.07376
20
0.398036
11
1.076
21
0.393646
0
LINE
8
BLACK
6
CONTINUOUS
10
1.076
20
0.393646
11
1.07677
21
0.38878
0
LINE
8
BLACK
6
CONTINUOUS
10
1.07677
20
0.38878
11
1.076
21
0.383913
0
LINE
8
BLACK
6
CONTINUOUS
10
1.076
20
0.383913
11
1.07376
21
0.379523
0
LINE
8
BLACK
6
CONTINUOUS
10
1.07376
20
0.379523
11
1.07028
21
0.376039
0
LINE
8
BLACK
6
CONTINUOUS
10
1.07028
20
0.376039
11
1.06693
21
0.374332
0
LINE
8
BLACK
6
CONTINUOUS
10
1.06693
20
0.374332
11
1.06693
21
0.341535
0
LINE
8
BLACK
6
CONTINUOUS
10
1.06693
20
0.341535
11
1.06614
21
0.338583
0
LINE
8
BLACK
6
CONTINUOUS
10
1.06614
20
0.338583
11
1.06594
21
0.33839
0
LINE
8
BLACK
6
CONTINUOUS
10
1.06594
20
0.33839
11
1.06594
21
0.330709
0
LINE
8
BLACK
6
CONTINUOUS
10
1.06594
20
0.330709
11
1.0561
21
0.330709
0
LINE
8
BLACK
6
CONTINUOUS
10
1.0561
20
0.330709
11
1.0561
21
0.33839
0
LINE
8
BLACK
6
CONTINUOUS
10
1.0561
20
0.33839
11
1.05591
21
0.338583
0
LINE
8
BLACK
6
CONTINUOUS
10
1.05591
20
0.338583
11
1.05512
21
0.341535
0
LINE
8
BLACK
6
CONTINUOUS
10
1.05512
20
0.341535
11
1.05512
21
0.374332
0
LINE
8
BLACK
6
CONTINUOUS
10
1.05512
20
0.374332
11
1.05238
21
0.375725
0
LINE
8
BLACK
6
CONTINUOUS
10
1.05238
20
0.375725
11
1.04724
21
0.370585
0
LINE
8
BLACK
6
CONTINUOUS
10
1.04724
20
0.370585
11
1.04724
21
0.341535
0
LINE
8
BLACK
6
CONTINUOUS
10
1.04724
20
0.341535
11
1.04724
21
0.314961
0
LINE
8
BLACK
6
CONTINUOUS
10
1.04724
20
0.314961
11
1.06496
21
0.314961
0
LINE
8
BLACK
6
CONTINUOUS
10
1.06496
20
0.314961
11
1.06496
21
0.287402
0
LINE
8
BLACK
6
CONTINUOUS
10
1.06496
20
0.287402
11
1.05315
21
0.275591
0
LINE
8
BLACK
6
CONTINUOUS
10
1.05315
20
0.275591
11
0.998031
21
0.275591
0
LINE
8
BLACK
6
CONTINUOUS
10
0.998031
20
0.275591
11
0.998031
21
0.314961
0
LINE
8
BLACK
6
CONTINUOUS
10
0.998031
20
0.314961
11
1.03543
21
0.314961
0
LINE
8
BLACK
6
CONTINUOUS
10
1.03543
20
0.314961
11
1.03543
21
0.341535
0
LINE
8
BLACK
6
CONTINUOUS
10
1.03543
20
0.341535
11
1.03543
21
0.373031
0
LINE
8
BLACK
6
CONTINUOUS
10
1.03543
20
0.373031
11
1.03563
21
0.373782
0
LINE
8
BLACK
6
CONTINUOUS
10
1.03563
20
0.373782
11
1.03563
21
0.37456
0
LINE
8
BLACK
6
CONTINUOUS
10
1.03563
20
0.37456
11
1.03602
21
0.375233
0
LINE
8
BLACK
6
CONTINUOUS
10
1.03602
20
0.375233
11
1.03622
21
0.375984
0
LINE
8
BLACK
6
CONTINUOUS
10
1.03622
20
0.375984
11
1.03677
21
0.376534
0
LINE
8
BLACK
6
CONTINUOUS
10
1.03677
20
0.376534
11
1.03716
21
0.377207
0
LINE
8
BLACK
6
CONTINUOUS
10
1.03716
20
0.377207
11
1.04575
21
0.385793
0
LINE
8
BLACK
6
CONTINUOUS
10
1.04575
20
0.385793
11
1.04528
21
0.38878
0
LINE
8
BLACK
6
CONTINUOUS
10
1.04528
20
0.38878
11
1.04605
21
0.393646
0
LINE
8
BLACK
6
CONTINUOUS
10
1.04605
20
0.393646
11
1.04828
21
0.398036
0
LINE
8
BLACK
6
CONTINUOUS
10
1.04828
20
0.398036
11
1.05177
21
0.40152
0
LINE
8
BLACK
6
CONTINUOUS
10
1.05177
20
0.40152
11
1.05463
21
0.402977
0
LINE
8
BLACK
6
CONTINUOUS
10
1.05463
20
0.402977
11
1.05463
21
0.437756
0
LINE
8
BLACK
6
CONTINUOUS
10
1.05463
20
0.437756
11
1.05389
21
0.437756
0
LINE
8
BLACK
6
CONTINUOUS
10
1.05389
20
0.437756
11
1.05059
21
0.438411
0
LINE
8
BLACK
6
CONTINUOUS
10
1.05059
20
0.438411
11
1.0478
21
0.440278
0
LINE
8
BLACK
6
CONTINUOUS
10
1.0478
20
0.440278
11
1.04593
21
0.443072
0
LINE
8
BLACK
6
CONTINUOUS
10
1.04593
20
0.443072
11
1.04528
21
0.446368
0
LINE
8
BLACK
6
CONTINUOUS
10
1.04528
20
0.446368
11
1.04528
21
0.466545
0
LINE
8
BLACK
6
CONTINUOUS
10
1.04528
20
0.466545
11
1.04593
21
0.469841
0
LINE
8
BLACK
6
CONTINUOUS
10
1.04593
20
0.469841
11
1.0478
21
0.472635
0
LINE
8
BLACK
6
CONTINUOUS
10
1.0478
20
0.472635
11
1.05059
21
0.474502
0
LINE
8
BLACK
6
CONTINUOUS
10
1.05059
20
0.474502
11
1.05389
21
0.475157
0
LINE
8
BLACK
6
CONTINUOUS
10
1.05389
20
0.475157
11
1.07111
21
0.475157
0
LINE
8
BLACK
6
CONTINUOUS
10
1.07111
20
0.475157
11
1.07441
21
0.474502
0
LINE
8
BLACK
6
CONTINUOUS
10
0.623384
20
0.389561
11
0.626178
21
0.387694
0
LINE
8
BLACK
6
CONTINUOUS
10
0.626178
20
0.387694
11
0.628045
21
0.3849
0
LINE
8
BLACK
6
CONTINUOUS
10
0.628045
20
0.3849
11
0.628701
21
0.381604
0
LINE
8
BLACK
6
CONTINUOUS
10
0.628701
20
0.381604
11
0.628701
21
0.36438
0
LINE
8
BLACK
6
CONTINUOUS
10
0.628701
20
0.36438
11
0.628045
21
0.361084
0
LINE
8
BLACK
6
CONTINUOUS
10
0.628045
20
0.361084
11
0.626178
21
0.35829
0
LINE
8
BLACK
6
CONTINUOUS
10
0.626178
20
0.35829
11
0.623384
21
0.356423
0
LINE
8
BLACK
6
CONTINUOUS
10
0.623384
20
0.356423
11
0.620089
21
0.355768
0
LINE
8
BLACK
6
CONTINUOUS
10
0.620089
20
0.355768
11
0.617874
21
0.355768
0
LINE
8
BLACK
6
CONTINUOUS
10
0.617874
20
0.355768
11
0.617874
21
0.333445
0
LINE
8
BLACK
6
CONTINUOUS
10
0.617874
20
0.333445
11
0.619256
21
0.33274
0
LINE
8
BLACK
6
CONTINUOUS
10
0.619256
20
0.33274
11
0.62274
21
0.329256
0
LINE
8
BLACK
6
CONTINUOUS
10
0.62274
20
0.329256
11
0.624977
21
0.324866
0
LINE
8
BLACK
6
CONTINUOUS
10
0.624977
20
0.324866
11
0.625748
21
0.32
0
LINE
8
BLACK
6
CONTINUOUS
10
0.625748
20
0.32
11
0.624977
21
0.315134
0
LINE
8
BLACK
6
CONTINUOUS
10
0.624977
20
0.315134
11
0.62274
21
0.310744
0
LINE
8
BLACK
6
CONTINUOUS
10
0.62274
20
0.310744
11
0.619256
21
0.30726
0
LINE
8
BLACK
6
CONTINUOUS
10
0.619256
20
0.30726
11
0.614866
21
0.305023
0
LINE
8
BLACK
6
CONTINUOUS
10
0.614866
20
0.305023
11
0.61
21
0.304252
0
LINE
8
BLACK
6
CONTINUOUS
10
0.61
20
0.304252
11
0.605134
21
0.305023
0
LINE
8
BLACK
6
CONTINUOUS
10
0.605134
20
0.305023
11
0.600744
21
0.30726
0
LINE
8
BLACK
6
CONTINUOUS
10
0.600744
20
0.30726
11
0.59726
21
0.310744
0
LINE
8
BLACK
6
CONTINUOUS
10
0.59726
20
0.310744
11
0.595023
21
0.315134
0
LINE
8
BLACK
6
CONTINUOUS
10
0.595023
20
0.315134
11
0.594252
21
0.32
0
LINE
8
BLACK
6
CONTINUOUS
10
0.594252
20
0.32
11
0.595023
21
0.324866
0
LINE
8
BLACK
6
CONTINUOUS
10
0.595023
20
0.324866
11
0.59726
21
0.329256
0
LINE
8
BLACK
6
CONTINUOUS
10
0.59726
20
0.329256
11
0.600744
21
0.33274
0
LINE
8
BLACK
6
CONTINUOUS
10
0.600744
20
0.33274
11
0.602126
21
0.333445
0
LINE
8
BLACK
6
CONTINUOUS
10
0.602126
20
0.333445
11
0.602126
21
0.355768
0
LINE
8
BLACK
6
CONTINUOUS
10
0.602126
20
0.355768
11
0.599911
21
0.355768
0
LINE
8
BLACK
6
CONTINUOUS
10
0.599911
20
0.355768
11
0.596616
21
0.356423
0
LINE
8
BLACK
6
CONTINUOUS
10
0.596616
20
0.356423
11
0.593822
21
0.35829
0
LINE
8
BLACK
6
CONTINUOUS
10
0.593822
20
0.35829
11
0.591955
21
0.361084
0
LINE
8
BLACK
6
CONTINUOUS
10
0.591955
20
0.361084
11
0.591299
21
0.36438
0
LINE
8
BLACK
6
CONTINUOUS
10
0.591299
20
0.36438
11
0.591299
21
0.381604
0
LINE
8
BLACK
6
CONTINUOUS
10
0.591299
20
0.381604
11
0.591955
21
0.3849
0
LINE
8
BLACK
6
CONTINUOUS
10
0.591955
20
0.3849
11
0.593822
21
0.387694
0
LINE
8
BLACK
6
CONTINUOUS
10
0.593822
20
0.387694
11
0.596616
21
0.389561
0
LINE
8
BLACK
6
CONTINUOUS
10
0.596616
20
0.389561
11
0.599911
21
0.390217
0
LINE
8
BLACK
6
CONTINUOUS
10
0.599911
20
0.390217
11
0.620089
21
0.390217
0
LINE
8
BLACK
6
CONTINUOUS
10
0.620089
20
0.390217
11
0.623384
21
0.389561
0
LINE
8
BLACK
6
CONTINUOUS
10
1.02657
20
0.330709
11
1.01673
21
0.330709
0
LINE
8
BLACK
6
CONTINUOUS
10
1.01673
20
0.330709
11
1.01673
21
0.352362
0
LINE
8
BLACK
6
CONTINUOUS
10
1.01673
20
0.352362
11
1.02657
21
0.352362
0
LINE
8
BLACK
6
CONTINUOUS
10
1.02657
20
0.352362
11
1.02657
21
0.330709
0
LINE
8
BLACK
6
CONTINUOUS
10
0.254866
20
0.384977
11
0.259256
21
0.38274
0
LINE
8
BLACK
6
CONTINUOUS
10
0.259256
20
0.38274
11
0.26274
21
0.379256
0
LINE
8
BLACK
6
CONTINUOUS
10
0.26274
20
0.379256
11
0.263445
21
0.377874
0
LINE
8
BLACK
6
CONTINUOUS
10
0.263445
20
0.377874
11
0.278957
21
0.377874
0
LINE
8
BLACK
6
CONTINUOUS
10
0.278957
20
0.377874
11
0.280245
21
0.37758
0
LINE
8
BLACK
6
CONTINUOUS
10
0.280245
20
0.37758
11
0.281557
21
0.377432
0
LINE
8
BLACK
6
CONTINUOUS
10
0.281557
20
0.377432
11
0.281936
21
0.377194
0
LINE
8
BLACK
6
CONTINUOUS
10
0.281936
20
0.377194
11
0.282373
21
0.377094
0
LINE
8
BLACK
6
CONTINUOUS
10
0.282373
20
0.377094
11
0.283406
21
0.376271
0
LINE
8
BLACK
6
CONTINUOUS
10
0.283406
20
0.376271
11
0.284524
21
0.375568
0
LINE
8
BLACK
6
CONTINUOUS
10
0.284524
20
0.375568
11
0.286076
21
0.374016
0
LINE
8
BLACK
6
CONTINUOUS
10
0.286076
20
0.374016
11
0.302254
21
0.374016
0
LINE
8
BLACK
6
CONTINUOUS
10
0.302254
20
0.374016
11
0.30555
21
0.37336
0
LINE
8
BLACK
6
CONTINUOUS
10
0.30555
20
0.37336
11
0.308344
21
0.371493
0
LINE
8
BLACK
6
CONTINUOUS
10
0.308344
20
0.371493
11
0.310211
21
0.368699
0
LINE
8
BLACK
6
CONTINUOUS
10
0.310211
20
0.368699
11
0.310866
21
0.365404
0
LINE
8
BLACK
6
CONTINUOUS
10
0.310866
20
0.365404
11
0.310866
21
0.364665
0
LINE
8
BLACK
6
CONTINUOUS
10
0.310866
20
0.364665
11
0.343346
21
0.364665
0
LINE
8
BLACK
6
CONTINUOUS
10
0.343346
20
0.364665
11
0.343346
21
0.369094
0
LINE
8
BLACK
6
CONTINUOUS
10
0.343346
20
0.369094
11
0.370906
21
0.369094
0
LINE
8
BLACK
6
CONTINUOUS
10
0.370906
20
0.369094
11
0.370906
21
0.365157
0
LINE
8
BLACK
6
CONTINUOUS
10
0.370906
20
0.365157
11
0.398524
21
0.365157
0
LINE
8
BLACK
6
CONTINUOUS
10
0.398524
20
0.365157
11
0.398524
21
0.369764
0
LINE
8
BLACK
6
CONTINUOUS
10
0.398524
20
0.369764
11
0.453524
21
0.369764
0
LINE
8
BLACK
6
CONTINUOUS
10
0.453524
20
0.369764
11
0.453524
21
0.334764
0
LINE
8
BLACK
6
CONTINUOUS
10
0.453524
20
0.334764
11
0.398524
21
0.334764
0
LINE
8
BLACK
6
CONTINUOUS
10
0.398524
20
0.334764
11
0.398524
21
0.349409
0
LINE
8
BLACK
6
CONTINUOUS
10
0.398524
20
0.349409
11
0.370906
21
0.349409
0
LINE
8
BLACK
6
CONTINUOUS
10
0.370906
20
0.349409
11
0.370906
21
0.345472
0
LINE
8
BLACK
6
CONTINUOUS
10
0.370906
20
0.345472
11
0.343346
21
0.345472
0
LINE
8
BLACK
6
CONTINUOUS
10
0.343346
20
0.345472
11
0.343346
21
0.348917
0
LINE
8
BLACK
6
CONTINUOUS
10
0.343346
20
0.348917
11
0.310866
21
0.348917
0
LINE
8
BLACK
6
CONTINUOUS
10
0.310866
20
0.348917
11
0.310866
21
0.348179
0
LINE
8
BLACK
6
CONTINUOUS
10
0.310866
20
0.348179
11
0.310211
21
0.344883
0
LINE
8
BLACK
6
CONTINUOUS
10
0.310211
20
0.344883
11
0.308344
21
0.342089
0
LINE
8
BLACK
6
CONTINUOUS
10
0.308344
20
0.342089
11
0.30555
21
0.340222
0
LINE
8
BLACK
6
CONTINUOUS
10
0.30555
20
0.340222
11
0.302254
21
0.339567
0
LINE
8
BLACK
6
CONTINUOUS
10
0.302254
20
0.339567
11
0.282077
21
0.339567
0
LINE
8
BLACK
6
CONTINUOUS
10
0.282077
20
0.339567
11
0.278781
21
0.340222
0
LINE
8
BLACK
6
CONTINUOUS
10
0.278781
20
0.340222
11
0.275987
21
0.342089
0
LINE
8
BLACK
6
CONTINUOUS
10
0.275987
20
0.342089
11
0.27412
21
0.344883
0
LINE
8
BLACK
6
CONTINUOUS
10
0.27412
20
0.344883
11
0.273465
21
0.348179
0
LINE
8
BLACK
6
CONTINUOUS
10
0.273465
20
0.348179
11
0.273465
21
0.362126
0
LINE
8
BLACK
6
CONTINUOUS
10
0.273465
20
0.362126
11
0.263445
21
0.362126
0
LINE
8
BLACK
6
CONTINUOUS
10
0.263445
20
0.362126
11
0.26274
21
0.360744
0
LINE
8
BLACK
6
CONTINUOUS
10
0.26274
20
0.360744
11
0.259256
21
0.35726
0
LINE
8
BLACK
6
CONTINUOUS
10
0.259256
20
0.35726
11
0.254866
21
0.355023
0
LINE
8
BLACK
6
CONTINUOUS
10
0.254866
20
0.355023
11
0.25
21
0.354252
0
LINE
8
BLACK
6
CONTINUOUS
10
0.25
20
0.354252
11
0.245134
21
0.355023
0
LINE
8
BLACK
6
CONTINUOUS
10
0.245134
20
0.355023
11
0.240744
21
0.35726
0
LINE
8
BLACK
6
CONTINUOUS
10
0.240744
20
0.35726
11
0.23726
21
0.360744
0
LINE
8
BLACK
6
CONTINUOUS
10
0.23726
20
0.360744
11
0.235023
21
0.365134
0
LINE
8
BLACK
6
CONTINUOUS
10
0.235023
20
0.365134
11
0.234252
21
0.37
0
LINE
8
BLACK
6
CONTINUOUS
10
0.234252
20
0.37
11
0.235023
21
0.374866
0
LINE
8
BLACK
6
CONTINUOUS
10
0.235023
20
0.374866
11
0.23726
21
0.379256
0
LINE
8
BLACK
6
CONTINUOUS
10
0.23726
20
0.379256
11
0.240744
21
0.38274
0
LINE
8
BLACK
6
CONTINUOUS
10
0.240744
20
0.38274
11
0.245134
21
0.384977
0
LINE
8
BLACK
6
CONTINUOUS
10
0.245134
20
0.384977
11
0.25
21
0.385748
0
LINE
8
BLACK
6
CONTINUOUS
10
0.25
20
0.385748
11
0.254866
21
0.384977
0
LINE
8
BLACK
6
CONTINUOUS
10
0.426067
20
0.540839
11
0.428196
21
0.539417
0
LINE
8
BLACK
6
CONTINUOUS
10
0.428196
20
0.539417
11
0.429619
21
0.537288
0
LINE
8
BLACK
6
CONTINUOUS
10
0.429619
20
0.537288
11
0.430118
21
0.534777
0
LINE
8
BLACK
6
CONTINUOUS
10
0.430118
20
0.534777
11
0.430118
21
0.488845
0
LINE
8
BLACK
6
CONTINUOUS
10
0.430118
20
0.488845
11
0.429619
21
0.486334
0
LINE
8
BLACK
6
CONTINUOUS
10
0.429619
20
0.486334
11
0.428196
21
0.484205
0
LINE
8
BLACK
6
CONTINUOUS
10
0.428196
20
0.484205
11
0.426067
21
0.482783
0
LINE
8
BLACK
6
CONTINUOUS
10
0.426067
20
0.482783
11
0.424213
21
0.482414
0
LINE
8
BLACK
6
CONTINUOUS
10
0.424213
20
0.482414
11
0.424213
21
0.444764
0
LINE
8
BLACK
6
CONTINUOUS
10
0.424213
20
0.444764
11
0.453524
21
0.444764
0
LINE
8
BLACK
6
CONTINUOUS
10
0.453524
20
0.444764
11
0.453524
21
0.435138
0
LINE
8
BLACK
6
CONTINUOUS
10
0.453524
20
0.435138
11
0.463327
21
0.435138
0
LINE
8
BLACK
6
CONTINUOUS
10
0.463327
20
0.435138
11
0.464615
21
0.434844
0
LINE
8
BLACK
6
CONTINUOUS
10
0.464615
20
0.434844
11
0.465927
21
0.434696
0
LINE
8
BLACK
6
CONTINUOUS
10
0.465927
20
0.434696
11
0.466307
21
0.434458
0
LINE
8
BLACK
6
CONTINUOUS
10
0.466307
20
0.434458
11
0.466743
21
0.434358
0
LINE
8
BLACK
6
CONTINUOUS
10
0.466743
20
0.434358
11
0.467776
21
0.433534
0
LINE
8
BLACK
6
CONTINUOUS
10
0.467776
20
0.433534
11
0.468895
21
0.432832
0
LINE
8
BLACK
6
CONTINUOUS
10
0.468895
20
0.432832
11
0.479482
21
0.422244
0
LINE
8
BLACK
6
CONTINUOUS
10
0.479482
20
0.422244
11
0.489016
21
0.422244
0
LINE
8
BLACK
6
CONTINUOUS
10
0.489016
20
0.422244
11
0.489016
21
0.423474
0
LINE
8
BLACK
6
CONTINUOUS
10
0.489016
20
0.423474
11
0.489671
21
0.42677
0
LINE
8
BLACK
6
CONTINUOUS
10
0.489671
20
0.42677
11
0.491538
21
0.429564
0
LINE
8
BLACK
6
CONTINUOUS
10
0.491538
20
0.429564
11
0.494332
21
0.431431
0
LINE
8
BLACK
6
CONTINUOUS
10
0.494332
20
0.431431
11
0.497628
21
0.432087
0
LINE
8
BLACK
6
CONTINUOUS
10
0.497628
20
0.432087
11
0.517805
21
0.432087
0
LINE
8
BLACK
6
CONTINUOUS
10
0.517805
20
0.432087
11
0.521101
21
0.431431
0
LINE
8
BLACK
6
CONTINUOUS
10
0.521101
20
0.431431
11
0.523895
21
0.429564
0
LINE
8
BLACK
6
CONTINUOUS
10
0.523895
20
0.429564
11
0.525762
21
0.42677
0
LINE
8
BLACK
6
CONTINUOUS
10
0.525762
20
0.42677
11
0.526417
21
0.423474
0
LINE
8
BLACK
6
CONTINUOUS
10
0.526417
20
0.423474
11
0.526417
21
0.422736
0
LINE
8
BLACK
6
CONTINUOUS
10
0.526417
20
0.422736
11
0.538412
21
0.422736
0
LINE
8
BLACK
6
CONTINUOUS
10
0.538412
20
0.422736
11
0.539843
21
0.424168
0
LINE
8
BLACK
6
CONTINUOUS
10
0.539843
20
0.424168
11
0.539213
21
0.42815
0
LINE
8
BLACK
6
CONTINUOUS
10
0.539213
20
0.42815
11
0.539983
21
0.433016
0
LINE
8
BLACK
6
CONTINUOUS
10
0.539983
20
0.433016
11
0.54222
21
0.437406
0
LINE
8
BLACK
6
CONTINUOUS
10
0.54222
20
0.437406
11
0.545704
21
0.44089
0
LINE
8
BLACK
6
CONTINUOUS
10
0.545704
20
0.44089
11
0.550094
21
0.443127
0
LINE
8
BLACK
6
CONTINUOUS
10
0.550094
20
0.443127
11
0.554961
21
0.443898
0
LINE
8
BLACK
6
CONTINUOUS
10
0.554961
20
0.443898
11
0.559827
21
0.443127
0
LINE
8
BLACK
6
CONTINUOUS
10
0.559827
20
0.443127
11
0.564217
21
0.44089
0
LINE
8
BLACK
6
CONTINUOUS
10
0.564217
20
0.44089
11
0.567701
21
0.437406
0
LINE
8
BLACK
6
CONTINUOUS
10
0.567701
20
0.437406
11
0.569938
21
0.433016
0
LINE
8
BLACK
6
CONTINUOUS
10
0.569938
20
0.433016
11
0.570709
21
0.42815
0
LINE
8
BLACK
6
CONTINUOUS
10
0.570709
20
0.42815
11
0.569938
21
0.423283
0
LINE
8
BLACK
6
CONTINUOUS
10
0.569938
20
0.423283
11
0.567701
21
0.418893
0
LINE
8
BLACK
6
CONTINUOUS
10
0.567701
20
0.418893
11
0.564217
21
0.415409
0
LINE
8
BLACK
6
CONTINUOUS
10
0.564217
20
0.415409
11
0.559827
21
0.413172
0
LINE
8
BLACK
6
CONTINUOUS
10
0.559827
20
0.413172
11
0.554961
21
0.412402
0
LINE
8
BLACK
6
CONTINUOUS
10
0.554961
20
0.412402
11
0.550979
21
0.413032
0
LINE
8
BLACK
6
CONTINUOUS
10
0.550979
20
0.413032
11
0.547241
21
0.409294
0
LINE
8
BLACK
6
CONTINUOUS
10
0.547241
20
0.409294
11
0.546123
21
0.408592
0
LINE
8
BLACK
6
CONTINUOUS
10
0.546123
20
0.408592
11
0.54509
21
0.407768
0
LINE
8
BLACK
6
CONTINUOUS
10
0.54509
20
0.407768
11
0.544653
21
0.407668
0
LINE
8
BLACK
6
CONTINUOUS
10
0.544653
20
0.407668
11
0.544274
21
0.40743
0
LINE
8
BLACK
6
CONTINUOUS
10
0.544274
20
0.40743
11
0.542961
21
0.407282
0
LINE
8
BLACK
6
CONTINUOUS
10
0.542961
20
0.407282
11
0.541673
21
0.406988
0
LINE
8
BLACK
6
CONTINUOUS
10
0.541673
20
0.406988
11
0.526417
21
0.406988
0
LINE
8
BLACK
6
CONTINUOUS
10
0.526417
20
0.406988
11
0.526417
21
0.40625
0
LINE
8
BLACK
6
CONTINUOUS
10
0.526417
20
0.40625
11
0.525762
21
0.402954
0
LINE
8
BLACK
6
CONTINUOUS
10
0.525762
20
0.402954
11
0.523895
21
0.40016
0
LINE
8
BLACK
6
CONTINUOUS
10
0.523895
20
0.40016
11
0.521101
21
0.398293
0
LINE
8
BLACK
6
CONTINUOUS
10
0.521101
20
0.398293
11
0.517805
21
0.397638
0
LINE
8
BLACK
6
CONTINUOUS
10
0.517805
20
0.397638
11
0.497628
21
0.397638
0
LINE
8
BLACK
6
CONTINUOUS
10
0.497628
20
0.397638
11
0.494332
21
0.398293
0
LINE
8
BLACK
6
CONTINUOUS
10
0.494332
20
0.398293
11
0.491538
21
0.40016
0
LINE
8
BLACK
6
CONTINUOUS
10
0.491538
20
0.40016
11
0.489671
21
0.402954
0
LINE
8
BLACK
6
CONTINUOUS
10
0.489671
20
0.402954
11
0.489016
21
0.40625
0
LINE
8
BLACK
6
CONTINUOUS
10
0.489016
20
0.40625
11
0.489016
21
0.406496
0
LINE
8
BLACK
6
CONTINUOUS
10
0.489016
20
0.406496
11
0.47622
21
0.406496
0
LINE
8
BLACK
6
CONTINUOUS
10
0.47622
20
0.406496
11
0.474933
21
0.40679
0
LINE
8
BLACK
6
CONTINUOUS
10
0.474933
20
0.40679
11
0.47362
21
0.406938
0
LINE
8
BLACK
6
CONTINUOUS
10
0.47362
20
0.406938
11
0.473241
21
0.407176
0
LINE
8
BLACK
6
CONTINUOUS
10
0.473241
20
0.407176
11
0.472804
21
0.407276
0
LINE
8
BLACK
6
CONTINUOUS
10
0.472804
20
0.407276
11
0.471771
21
0.4081
0
LINE
8
BLACK
6
CONTINUOUS
10
0.471771
20
0.4081
11
0.470653
21
0.408802
0
LINE
8
BLACK
6
CONTINUOUS
10
0.470653
20
0.408802
11
0.460065
21
0.41939
0
LINE
8
BLACK
6
CONTINUOUS
10
0.460065
20
0.41939
11
0.453524
21
0.41939
0
LINE
8
BLACK
6
CONTINUOUS
10
0.453524
20
0.41939
11
0.453524
21
0.409764
0
LINE
8
BLACK
6
CONTINUOUS
10
0.453524
20
0.409764
11
0.398524
21
0.409764
0
LINE
8
BLACK
6
CONTINUOUS
10
0.398524
20
0.409764
11
0.398524
21
0.41939
0
LINE
8
BLACK
6
CONTINUOUS
10
0.398524
20
0.41939
11
0.37525
21
0.41939
0
LINE
8
BLACK
6
CONTINUOUS
10
0.37525
20
0.41939
11
0.370906
21
0.415046
0
LINE
8
BLACK
6
CONTINUOUS
10
0.370906
20
0.415046
11
0.370906
21
0.400591
0
LINE
8
BLACK
6
CONTINUOUS
10
0.370906
20
0.400591
11
0.343346
21
0.400591
0
LINE
8
BLACK
6
CONTINUOUS
10
0.343346
20
0.400591
11
0.343346
21
0.424213
0
LINE
8
BLACK
6
CONTINUOUS
10
0.343346
20
0.424213
11
0.348925
21
0.424213
0
LINE
8
BLACK
6
CONTINUOUS
10
0.348925
20
0.424213
11
0.346885
21
0.425252
0
LINE
8
BLACK
6
CONTINUOUS
10
0.346885
20
0.425252
11
0.343401
21
0.428736
0
LINE
8
BLACK
6
CONTINUOUS
10
0.343401
20
0.428736
11
0.341164
21
0.433126
0
LINE
8
BLACK
6
CONTINUOUS
10
0.341164
20
0.433126
11
0.340394
21
0.437992
0
LINE
8
BLACK
6
CONTINUOUS
10
0.340394
20
0.437992
11
0.341164
21
0.442859
0
LINE
8
BLACK
6
CONTINUOUS
10
0.341164
20
0.442859
11
0.343401
21
0.447249
0
LINE
8
BLACK
6
CONTINUOUS
10
0.343401
20
0.447249
11
0.346885
21
0.450733
0
LINE
8
BLACK
6
CONTINUOUS
10
0.346885
20
0.450733
11
0.351275
21
0.452969
0
LINE
8
BLACK
6
CONTINUOUS
10
0.351275
20
0.452969
11
0.356142
21
0.45374
0
LINE
8
BLACK
6
CONTINUOUS
10
0.356142
20
0.45374
11
0.361008
21
0.452969
0
LINE
8
BLACK
6
CONTINUOUS
10
0.361008
20
0.452969
11
0.365398
21
0.450733
0
LINE
8
BLACK
6
CONTINUOUS
10
0.365398
20
0.450733
11
0.368882
21
0.447249
0
LINE
8
BLACK
6
CONTINUOUS
10
0.368882
20
0.447249
11
0.371119
21
0.442859
0
LINE
8
BLACK
6
CONTINUOUS
10
0.371119
20
0.442859
11
0.37189
21
0.437992
0
LINE
8
BLACK
6
CONTINUOUS
10
0.37189
20
0.437992
11
0.371417
21
0.435007
0
LINE
8
BLACK
6
CONTINUOUS
10
0.371417
20
0.435007
11
0.371988
21
0.435138
0
LINE
8
BLACK
6
CONTINUOUS
10
0.371988
20
0.435138
11
0.398524
21
0.435138
0
LINE
8
BLACK
6
CONTINUOUS
10
0.398524
20
0.435138
11
0.398524
21
0.444764
0
LINE
8
BLACK
6
CONTINUOUS
10
0.398524
20
0.444764
11
0.408465
21
0.444764
0
LINE
8
BLACK
6
CONTINUOUS
10
0.408465
20
0.444764
11
0.408465
21
0.482284
0
LINE
8
BLACK
6
CONTINUOUS
10
0.408465
20
0.482284
11
0.387467
21
0.482283
0
LINE
8
BLACK
6
CONTINUOUS
10
0.387467
20
0.482283
11
0.384956
21
0.482783
0
LINE
8
BLACK
6
CONTINUOUS
10
0.384956
20
0.482783
11
0.382827
21
0.484205
0
LINE
8
BLACK
6
CONTINUOUS
10
0.382827
20
0.484205
11
0.381405
21
0.486334
0
LINE
8
BLACK
6
CONTINUOUS
10
0.381405
20
0.486334
11
0.380906
21
0.488845
0
LINE
8
BLACK
6
CONTINUOUS
10
0.380906
20
0.488845
11
0.380906
21
0.534777
0
LINE
8
BLACK
6
CONTINUOUS
10
0.380906
20
0.534777
11
0.381405
21
0.537288
0
LINE
8
BLACK
6
CONTINUOUS
10
0.381405
20
0.537288
11
0.382827
21
0.539417
0
LINE
8
BLACK
6
CONTINUOUS
10
0.382827
20
0.539417
11
0.384956
21
0.540839
0
LINE
8
BLACK
6
CONTINUOUS
10
0.384956
20
0.540839
11
0.387467
21
0.541339
0
LINE
8
BLACK
6
CONTINUOUS
10
0.387467
20
0.541339
11
0.423556
21
0.541339
0
LINE
8
BLACK
6
CONTINUOUS
10
0.423556
20
0.541339
11
0.426067
21
0.540839
0
LINE
8
BLACK
6
CONTINUOUS
10
0.284335
20
0.540839
11
0.286464
21
0.539417
0
LINE
8
BLACK
6
CONTINUOUS
10
0.286464
20
0.539417
11
0.287886
21
0.537288
0
LINE
8
BLACK
6
CONTINUOUS
10
0.287886
20
0.537288
11
0.288386
21
0.534777
0
LINE
8
BLACK
6
CONTINUOUS
10
0.288386
20
0.534777
11
0.288386
21
0.488845
0
LINE
8
BLACK
6
CONTINUOUS
10
0.288386
20
0.488845
11
0.287886
21
0.486334
0
LINE
8
BLACK
6
CONTINUOUS
10
0.287886
20
0.486334
11
0.286464
21
0.484205
0
LINE
8
BLACK
6
CONTINUOUS
10
0.286464
20
0.484205
11
0.284335
21
0.482783
0
LINE
8
BLACK
6
CONTINUOUS
10
0.284335
20
0.482783
11
0.281824
21
0.482284
0
LINE
8
BLACK
6
CONTINUOUS
10
0.281824
20
0.482284
11
0.258858
21
0.482284
0
LINE
8
BLACK
6
CONTINUOUS
10
0.258858
20
0.482284
11
0.258858
21
0.460458
0
LINE
8
BLACK
6
CONTINUOUS
10
0.258858
20
0.460458
11
0.283293
21
0.436024
0
LINE
8
BLACK
6
CONTINUOUS
10
0.283293
20
0.436024
11
0.302254
21
0.436024
0
LINE
8
BLACK
6
CONTINUOUS
10
0.302254
20
0.436024
11
0.30555
21
0.435368
0
LINE
8
BLACK
6
CONTINUOUS
10
0.30555
20
0.435368
11
0.308344
21
0.433501
0
LINE
8
BLACK
6
CONTINUOUS
10
0.308344
20
0.433501
11
0.310211
21
0.430707
0
LINE
8
BLACK
6
CONTINUOUS
10
0.310211
20
0.430707
11
0.310866
21
0.427411
0
LINE
8
BLACK
6
CONTINUOUS
10
0.310866
20
0.427411
11
0.310866
21
0.410187
0
LINE
8
BLACK
6
CONTINUOUS
10
0.310866
20
0.410187
11
0.310211
21
0.406891
0
LINE
8
BLACK
6
CONTINUOUS
10
0.310211
20
0.406891
11
0.308344
21
0.404097
0
LINE
8
BLACK
6
CONTINUOUS
10
0.308344
20
0.404097
11
0.30555
21
0.40223
0
LINE
8
BLACK
6
CONTINUOUS
10
0.30555
20
0.40223
11
0.302254
21
0.401575
0
LINE
8
BLACK
6
CONTINUOUS
10
0.302254
20
0.401575
11
0.282077
21
0.401575
0
LINE
8
BLACK
6
CONTINUOUS
10
0.282077
20
0.401575
11
0.278781
21
0.40223
0
LINE
8
BLACK
6
CONTINUOUS
10
0.278781
20
0.40223
11
0.275987
21
0.404097
0
LINE
8
BLACK
6
CONTINUOUS
10
0.275987
20
0.404097
11
0.27412
21
0.406891
0
LINE
8
BLACK
6
CONTINUOUS
10
0.27412
20
0.406891
11
0.273465
21
0.410187
0
LINE
8
BLACK
6
CONTINUOUS
10
0.273465
20
0.410187
11
0.273465
21
0.427411
0
LINE
8
BLACK
6
CONTINUOUS
10
0.273465
20
0.427411
11
0.273753
21
0.42886
0
LINE
8
BLACK
6
CONTINUOUS
10
0.273753
20
0.42886
11
0.248777
21
0.453836
0
LINE
8
BLACK
6
CONTINUOUS
10
0.248777
20
0.453836
11
0.248388
21
0.454509
0
LINE
8
BLACK
6
CONTINUOUS
10
0.248388
20
0.454509
11
0.247838
21
0.455059
0
LINE
8
BLACK
6
CONTINUOUS
10
0.247838
20
0.455059
11
0.247637
21
0.45581
0
LINE
8
BLACK
6
CONTINUOUS
10
0.247637
20
0.45581
11
0.247248
21
0.456483
0
LINE
8
BLACK
6
CONTINUOUS
10
0.247248
20
0.456483
11
0.247248
21
0.457261
0
LINE
8
BLACK
6
CONTINUOUS
10
0.247248
20
0.457261
11
0.247047
21
0.458012
0
LINE
8
BLACK
6
CONTINUOUS
10
0.247047
20
0.458012
11
0.247047
21
0.482284
0
LINE
8
BLACK
6
CONTINUOUS
10
0.247047
20
0.482284
11
0.245735
21
0.482283
0
LINE
8
BLACK
6
CONTINUOUS
10
0.245735
20
0.482283
11
0.243224
21
0.482783
0
LINE
8
BLACK
6
CONTINUOUS
10
0.243224
20
0.482783
11
0.241095
21
0.484205
0
LINE
8
BLACK
6
CONTINUOUS
10
0.241095
20
0.484205
11
0.239673
21
0.486334
0
LINE
8
BLACK
6
CONTINUOUS
10
0.239673
20
0.486334
11
0.239173
21
0.488845
0
LINE
8
BLACK
6
CONTINUOUS
10
0.239173
20
0.488845
11
0.239173
21
0.534777
0
LINE
8
BLACK
6
CONTINUOUS
10
0.239173
20
0.534777
11
0.239673
21
0.537288
0
LINE
8
BLACK
6
CONTINUOUS
10
0.239673
20
0.537288
11
0.241095
21
0.539417
0
LINE
8
BLACK
6
CONTINUOUS
10
0.241095
20
0.539417
11
0.243224
21
0.540839
0
LINE
8
BLACK
6
CONTINUOUS
10
0.243224
20
0.540839
11
0.245735
21
0.541339
0
LINE
8
BLACK
6
CONTINUOUS
10
0.245735
20
0.541339
11
0.281824
21
0.541339
0
LINE
8
BLACK
6
CONTINUOUS
10
0.281824
20
0.541339
11
0.284335
21
0.540839
0
CIRCLE
8
BLACK
10
0.945
20
0.517
40
0.00688976
0
CIRCLE
8
BLACK
10
0.492126
20
0.590551
40
0.00688976
0
CIRCLE
8
BLACK
10
0.853346
20
0.344488
40
0.00688976
0
CIRCLE
8
BLACK
10
0.492126
20
0
40
0.00688976
0
CIRCLE
8
BLACK
10
0.853346
20
0.246063
40
0.00688976
0
CIRCLE
8
BLACK
10
0.945
20
0.0735512
40
0.00688976
0
CIRCLE
8
BLACK
10
0.853346
20
0.423228
40
0.00688976
0
CIRCLE
8
BLACK
10
0.0984252
20
0.590551
40
0.00688976
0
CIRCLE
8
BLACK
10
0.885827
20
0
40
0.00688976
0
CIRCLE
8
BLACK
10
0.898622
20
0.473551
40
0.00688976
0
CIRCLE
8
BLACK
10
0.885827
20
0.590551
40
0.00688976
0
CIRCLE
8
BLACK
10
0.0984252
20
0
40
0.00688976
0
CIRCLE
8
BLACK
10
0.898
20
0.117
40
0.00688976
0
CIRCLE
8
BLACK
10
0.853346
20
0.167323
40
0.00688976
0
CIRCLE
8
BLACK
10
1.13189
20
0.194882
40
0.00688976
0
CIRCLE
8
BLACK
10
1.13189
20
0.395669
40
0.00688976
0
CIRCLE
8
BLACK
10
0.931102
20
0.194882
40
0.00688976
0
CIRCLE
8
BLACK
10
0.931102
20
0.395669
40
0.00688976
0
CIRCLE
8
BLACK
10
0.554961
20
0.42815
40
0.00787402
0
CIRCLE
8
BLACK
10
0.165
20
0.17
40
0.00787402
0
CIRCLE
8
BLACK
10
0.045
20
0.505
40
0.00787402
0
CIRCLE
8
BLACK
10
0.155
20
0.475
40
0.00787402
0
CIRCLE
8
BLACK
10
0.085
20
0.505
40
0.00787402
0
CIRCLE
8
BLACK
10
0.125
20
0.505
40
0.00787402
0
CIRCLE
8
BLACK
10
0.045
20
0.215
40
0.00787402
0
CIRCLE
8
BLACK
10
0.624016
20
0.216535
40
0.00787402
0
CIRCLE
8
BLACK
10
0.51118
20
0.192606
40
0.00787402
0
CIRCLE
8
BLACK
10
0.045
20
0.09
40
0.00787402
0
CIRCLE
8
BLACK
10
0.065
20
0.385
40
0.00787402
0
CIRCLE
8
BLACK
10
0.135
20
0.09
40
0.00787402
0
CIRCLE
8
BLACK
10
0.165
20
0.125
40
0.00787402
0
CIRCLE
8
BLACK
10
0.04
20
0.35
40
0.00787402
0
CIRCLE
8
BLACK
10
0.09
20
0.09
40
0.00787402
0
CIRCLE
8
BLACK
10
0.2
20
0.42
40
0.00787402
0
CIRCLE
8
BLACK
10
0.04
20
0.305
40
0.00787402
0
CIRCLE
8
BLACK
10
0.356142
20
0.437992
40
0.00787402
0
CIRCLE
8
BLACK
10
1.06102
20
0.38878
40
0.00787402
0
CIRCLE
8
BLACK
10
0.359094
20
0.231299
40
0.00787402
0
CIRCLE
8
BLACK
10
0.04
20
0.26
40
0.00787402
0
CIRCLE
8
BLACK
10
0.16
20
0.42
40
0.00787402
0
CIRCLE
8
BLACK
10
0.449
20
0.082
40
0.00787402
0
CIRCLE
8
BLACK
10
0.542
20
0.16113
40
0.00787402
0
CIRCLE
8
BLACK
10
0.11
20
0.37
40
0.00787402
0
CIRCLE
8
BLACK
10
0.25
20
0.37
40
0.00787402
0
CIRCLE
8
BLACK
10
0.112205
20
0.270669
40
0.00787402
0
CIRCLE
8
BLACK
10
0.266575
20
0.312992
40
0.00787402
0
CIRCLE
8
BLACK
10
0.61
20
0.32
40
0.00787402
0
CIRCLE
8
BLACK
10
1.07185
20
0.19685
40
0.00787402
0
CIRCLE
8
BLACK
10
0.25
20
0.27
40
0.00787402
0
CIRCLE
8
BLACK
10
0.7
20
0.27
40
0.00787402
0
CIRCLE
8
BLACK
10
0.462844
20
0.133329
40
0.00787402
0
CIRCLE
8
BLACK
10
0.269146
20
0.13892
40
0.00787402
0
CIRCLE
8
BLACK
10
1.03296
20
0.190858
40
0.00787402
0
CIRCLE
8
BLACK
10
0.71
20
0.141752
40
0.00787402
  0
ENDSEC
  0
EOF
