  0
SECTION
  2
HEADER
  9
$ANGBASE
  50
0.0
  9
$ANGDIR
  70
1
  9
$MEASUREMENT
  70
0
  0
ENDSEC
  0
SECTION
  2
TABLES
  0
TABLE
  2
LTYPE
  70
4
  0
LTYPE
  5
40F
  2
CONTINUOUS
  70
0
  3
Solid line
  72
65
  73
0
  40
0.0
  0
LTYPE
  5
410
  2
DASHDOT
 70
0
  3
Dash Dot ____ _ ____ _
 72
65
 73
4
 40
2.0
 49
1.25
 49
-0.25
 49
0.25
 49
-0.25
  0
LTYPE
  5
411
  2
DASHED
 70
0
  3
Dashed __ __ __ __ __
 72
65
 73
2
 40
0.75
 49
0.5
 49
-0.25
  0
LTYPE
  5
43B
  2
DOTTED
 70
0
  3
Dotted .  .  .  .
 72
65
 73
2
 40
0.2
 49
0.0
 49
-0.2
  0
ENDTAB
  0
TABLE
  2
STYLE
  70
4
  0
STYLE
  2
KICAD
  70
0
  40
0
  41
1
  42
1
  50
0
  71
0
  3
isocp.shx
  0
STYLE
  2
KICADB
  70
0
  40
0
  41
1
  42
1
  50
0
  71
0
  3
isocp.shx
  0
STYLE
  2
KICADI
  70
0
  40
0
  41
1
  42
1
  50
15
  71
0
  3
isocp.shx
  0
STYLE
  2
KICADBI
  70
0
  40
0
  41
1
  42
1
  50
15
  71
0
  3
isocp.shx
  0
ENDTAB
  0
TABLE
  2
LAYER
  70
1
  0
LAYER
  2
BLACK
  70
0
  62
7
  6
CONTINUOUS
  0
ENDTAB
  0
ENDSEC
  0
SECTION
  2
ENTITIES
0
LINE
8
BLACK
6
CONTINUOUS
10
0.758914
20
0.0344262
11
0.770725
21
0.0226152
0
LINE
8
BLACK
6
CONTINUOUS
10
0.770725
20
0.0226152
11
0.771417
21
0.0209449
0
LINE
8
BLACK
6
CONTINUOUS
10
0.771417
20
0.0209449
11
0.770725
21
0.0192746
0
LINE
8
BLACK
6
CONTINUOUS
10
0.770725
20
0.0192746
11
0.769055
21
0.0185827
0
LINE
8
BLACK
6
CONTINUOUS
10
0.769055
20
0.0185827
11
0.745433
21
0.0185827
0
LINE
8
BLACK
6
CONTINUOUS
10
0.745433
20
0.0185827
11
0.743763
21
0.0192746
0
LINE
8
BLACK
6
CONTINUOUS
10
0.743763
20
0.0192746
11
0.743071
21
0.0209449
0
LINE
8
BLACK
6
CONTINUOUS
10
0.743071
20
0.0209449
11
0.743763
21
0.0226152
0
LINE
8
BLACK
6
CONTINUOUS
10
0.743763
20
0.0226152
11
0.755574
21
0.0344262
0
LINE
8
BLACK
6
CONTINUOUS
10
0.755574
20
0.0344262
11
0.757244
21
0.0351181
0
LINE
8
BLACK
6
CONTINUOUS
10
0.757244
20
0.0351181
11
0.758914
21
0.0344262
0
LINE
8
BLACK
6
CONTINUOUS
10
0.751136
20
0.0233071
11
0.763352
21
0.0233071
0
LINE
8
BLACK
6
CONTINUOUS
10
0.763352
20
0.0233071
11
0.757244
21
0.0294153
0
LINE
8
BLACK
6
CONTINUOUS
10
0.757244
20
0.0294153
11
0.751136
21
0.0233071
0
LINE
8
BLACK
6
CONTINUOUS
10
0.654268
20
0.0385221
11
0.651013
21
0.0388426
0
LINE
8
BLACK
6
CONTINUOUS
10
0.651013
20
0.0388426
11
0.6454
21
0.0405454
0
LINE
8
BLACK
6
CONTINUOUS
10
0.6454
20
0.0405454
11
0.640227
21
0.0433104
0
LINE
8
BLACK
6
CONTINUOUS
10
0.640227
20
0.0433104
11
0.635693
21
0.0470315
0
LINE
8
BLACK
6
CONTINUOUS
10
0.635693
20
0.0470315
11
0.631972
21
0.0515656
0
LINE
8
BLACK
6
CONTINUOUS
10
0.631972
20
0.0515656
11
0.629207
21
0.0567386
0
LINE
8
BLACK
6
CONTINUOUS
10
0.629207
20
0.0567386
11
0.627504
21
0.0623516
0
LINE
8
BLACK
6
CONTINUOUS
10
0.627504
20
0.0623516
11
0.626929
21
0.068189
0
LINE
8
BLACK
6
CONTINUOUS
10
0.626929
20
0.068189
11
0.626929
21
0.091811
0
LINE
8
BLACK
6
CONTINUOUS
10
0.626929
20
0.091811
11
0.627504
21
0.0976484
0
LINE
8
BLACK
6
CONTINUOUS
10
0.627504
20
0.0976484
11
0.629207
21
0.103261
0
LINE
8
BLACK
6
CONTINUOUS
10
0.629207
20
0.103261
11
0.631972
21
0.108434
0
LINE
8
BLACK
6
CONTINUOUS
10
0.631972
20
0.108434
11
0.635693
21
0.112969
0
LINE
8
BLACK
6
CONTINUOUS
10
0.635693
20
0.112969
11
0.640227
21
0.11669
0
LINE
8
BLACK
6
CONTINUOUS
10
0.640227
20
0.11669
11
0.6454
21
0.119455
0
LINE
8
BLACK
6
CONTINUOUS
10
0.6454
20
0.119455
11
0.651013
21
0.121157
0
LINE
8
BLACK
6
CONTINUOUS
10
0.651013
20
0.121157
11
0.654268
21
0.121478
0
LINE
8
BLACK
6
CONTINUOUS
10
0.654268
20
0.121478
11
0.654882
21
0.121732
0
LINE
8
BLACK
6
CONTINUOUS
10
0.654882
20
0.121732
11
0.765118
21
0.121732
0
LINE
8
BLACK
6
CONTINUOUS
10
0.765118
20
0.121732
11
0.765732
21
0.121478
0
LINE
8
BLACK
6
CONTINUOUS
10
0.765732
20
0.121478
11
0.768987
21
0.121157
0
LINE
8
BLACK
6
CONTINUOUS
10
0.768987
20
0.121157
11
0.7746
21
0.119455
0
LINE
8
BLACK
6
CONTINUOUS
10
0.7746
20
0.119455
11
0.779773
21
0.11669
0
LINE
8
BLACK
6
CONTINUOUS
10
0.779773
20
0.11669
11
0.784307
21
0.112969
0
LINE
8
BLACK
6
CONTINUOUS
10
0.784307
20
0.112969
11
0.788028
21
0.108434
0
LINE
8
BLACK
6
CONTINUOUS
10
0.788028
20
0.108434
11
0.790793
21
0.103261
0
LINE
8
BLACK
6
CONTINUOUS
10
0.790793
20
0.103261
11
0.792496
21
0.0976484
0
LINE
8
BLACK
6
CONTINUOUS
10
0.792496
20
0.0976484
11
0.793071
21
0.091811
0
LINE
8
BLACK
6
CONTINUOUS
10
0.793071
20
0.091811
11
0.793071
21
0.068189
0
LINE
8
BLACK
6
CONTINUOUS
10
0.793071
20
0.068189
11
0.792496
21
0.0623516
0
LINE
8
BLACK
6
CONTINUOUS
10
0.792496
20
0.0623516
11
0.790793
21
0.0567386
0
LINE
8
BLACK
6
CONTINUOUS
10
0.790793
20
0.0567386
11
0.788028
21
0.0515656
0
LINE
8
BLACK
6
CONTINUOUS
10
0.788028
20
0.0515656
11
0.784307
21
0.0470315
0
LINE
8
BLACK
6
CONTINUOUS
10
0.784307
20
0.0470315
11
0.779773
21
0.0433104
0
LINE
8
BLACK
6
CONTINUOUS
10
0.779773
20
0.0433104
11
0.7746
21
0.0405454
0
LINE
8
BLACK
6
CONTINUOUS
10
0.7746
20
0.0405454
11
0.768987
21
0.0388426
0
LINE
8
BLACK
6
CONTINUOUS
10
0.768987
20
0.0388426
11
0.765732
21
0.0385221
0
LINE
8
BLACK
6
CONTINUOUS
10
0.765732
20
0.0385221
11
0.765118
21
0.0382677
0
LINE
8
BLACK
6
CONTINUOUS
10
0.765118
20
0.0382677
11
0.654882
21
0.0382677
0
LINE
8
BLACK
6
CONTINUOUS
10
0.654882
20
0.0382677
11
0.654268
21
0.0385221
0
LINE
8
BLACK
6
CONTINUOUS
10
0.651208
20
0.116532
11
0.645849
21
0.114656
0
LINE
8
BLACK
6
CONTINUOUS
10
0.645849
20
0.114656
11
0.641041
21
0.111635
0
LINE
8
BLACK
6
CONTINUOUS
10
0.641041
20
0.111635
11
0.637026
21
0.10762
0
LINE
8
BLACK
6
CONTINUOUS
10
0.637026
20
0.10762
11
0.634005
21
0.102813
0
LINE
8
BLACK
6
CONTINUOUS
10
0.634005
20
0.102813
11
0.63213
21
0.0974533
0
LINE
8
BLACK
6
CONTINUOUS
10
0.63213
20
0.0974533
11
0.631528
21
0.0921136
0
LINE
8
BLACK
6
CONTINUOUS
10
0.631528
20
0.0921136
11
0.631654
21
0.091811
0
LINE
8
BLACK
6
CONTINUOUS
10
0.631654
20
0.091811
11
0.631654
21
0.068189
0
LINE
8
BLACK
6
CONTINUOUS
10
0.631654
20
0.068189
11
0.631556
21
0.0679546
0
LINE
8
BLACK
6
CONTINUOUS
10
0.631556
20
0.0679546
11
0.631528
21
0.0678864
0
LINE
8
BLACK
6
CONTINUOUS
10
0.631528
20
0.0678864
11
0.63213
21
0.0625467
0
LINE
8
BLACK
6
CONTINUOUS
10
0.63213
20
0.0625467
11
0.634005
21
0.0571873
0
LINE
8
BLACK
6
CONTINUOUS
10
0.634005
20
0.0571873
11
0.637026
21
0.0523796
0
LINE
8
BLACK
6
CONTINUOUS
10
0.637026
20
0.0523796
11
0.641041
21
0.0483646
0
LINE
8
BLACK
6
CONTINUOUS
10
0.641041
20
0.0483646
11
0.645849
21
0.0453437
0
LINE
8
BLACK
6
CONTINUOUS
10
0.645849
20
0.0453437
11
0.651208
21
0.0434684
0
LINE
8
BLACK
6
CONTINUOUS
10
0.651208
20
0.0434684
11
0.655435
21
0.0429921
0
LINE
8
BLACK
6
CONTINUOUS
10
0.655435
20
0.0429921
11
0.764565
21
0.0429921
0
LINE
8
BLACK
6
CONTINUOUS
10
0.764565
20
0.0429921
11
0.768792
21
0.0434684
0
LINE
8
BLACK
6
CONTINUOUS
10
0.768792
20
0.0434684
11
0.774151
21
0.0453437
0
LINE
8
BLACK
6
CONTINUOUS
10
0.774151
20
0.0453437
11
0.778959
21
0.0483646
0
LINE
8
BLACK
6
CONTINUOUS
10
0.778959
20
0.0483646
11
0.782974
21
0.0523796
0
LINE
8
BLACK
6
CONTINUOUS
10
0.782974
20
0.0523796
11
0.785995
21
0.0571873
0
LINE
8
BLACK
6
CONTINUOUS
10
0.785995
20
0.0571873
11
0.78787
21
0.0625467
0
LINE
8
BLACK
6
CONTINUOUS
10
0.78787
20
0.0625467
11
0.788472
21
0.0678864
0
LINE
8
BLACK
6
CONTINUOUS
10
0.788472
20
0.0678864
11
0.788444
21
0.0679546
0
LINE
8
BLACK
6
CONTINUOUS
10
0.788444
20
0.0679546
11
0.788346
21
0.068189
0
LINE
8
BLACK
6
CONTINUOUS
10
0.788346
20
0.068189
11
0.788346
21
0.091811
0
LINE
8
BLACK
6
CONTINUOUS
10
0.788346
20
0.091811
11
0.788472
21
0.0921136
0
LINE
8
BLACK
6
CONTINUOUS
10
0.788472
20
0.0921136
11
0.78787
21
0.0974533
0
LINE
8
BLACK
6
CONTINUOUS
10
0.78787
20
0.0974533
11
0.785995
21
0.102813
0
LINE
8
BLACK
6
CONTINUOUS
10
0.785995
20
0.102813
11
0.782974
21
0.10762
0
LINE
8
BLACK
6
CONTINUOUS
10
0.782974
20
0.10762
11
0.778959
21
0.111635
0
LINE
8
BLACK
6
CONTINUOUS
10
0.778959
20
0.111635
11
0.774151
21
0.114656
0
LINE
8
BLACK
6
CONTINUOUS
10
0.774151
20
0.114656
11
0.768792
21
0.116532
0
LINE
8
BLACK
6
CONTINUOUS
10
0.768792
20
0.116532
11
0.764565
21
0.117008
0
LINE
8
BLACK
6
CONTINUOUS
10
0.764565
20
0.117008
11
0.655435
21
0.117008
0
LINE
8
BLACK
6
CONTINUOUS
10
0.655435
20
0.117008
11
0.651208
21
0.116532
0
LINE
8
BLACK
6
CONTINUOUS
10
0.176448
20
0.078622
11
0.177561
21
0.0769365
0
LINE
8
BLACK
6
CONTINUOUS
10
0.177561
20
0.0769365
11
0.17733
21
0.07493
0
LINE
8
BLACK
6
CONTINUOUS
10
0.17733
20
0.07493
11
0.175455
21
0.0711804
0
LINE
8
BLACK
6
CONTINUOUS
10
0.175455
20
0.0711804
11
0.174929
21
0.0704714
0
LINE
8
BLACK
6
CONTINUOUS
10
0.174929
20
0.0704714
11
0.174902
21
0.070413
0
LINE
8
BLACK
6
CONTINUOUS
10
0.174902
20
0.070413
11
0.172444
21
0.0679546
0
LINE
8
BLACK
6
CONTINUOUS
10
0.172444
20
0.0679546
11
0.199857
21
0.0679546
0
LINE
8
BLACK
6
CONTINUOUS
10
0.199857
20
0.0679546
11
0.199857
21
0.0762505
0
LINE
8
BLACK
6
CONTINUOUS
10
0.199857
20
0.0762505
11
0.200036
21
0.0772604
0
LINE
8
BLACK
6
CONTINUOUS
10
0.200036
20
0.0772604
11
0.201334
21
0.0788076
0
LINE
8
BLACK
6
CONTINUOUS
10
0.201334
20
0.0788076
11
0.203323
21
0.0791584
0
LINE
8
BLACK
6
CONTINUOUS
10
0.203323
20
0.0791584
11
0.205072
21
0.0781485
0
LINE
8
BLACK
6
CONTINUOUS
10
0.205072
20
0.0781485
11
0.205763
21
0.0762505
0
LINE
8
BLACK
6
CONTINUOUS
10
0.205763
20
0.0762505
11
0.205763
21
0.0537533
0
LINE
8
BLACK
6
CONTINUOUS
10
0.205763
20
0.0537533
11
0.205585
21
0.0527434
0
LINE
8
BLACK
6
CONTINUOUS
10
0.205585
20
0.0527434
11
0.204287
21
0.0511961
0
LINE
8
BLACK
6
CONTINUOUS
10
0.204287
20
0.0511961
11
0.202297
21
0.0508454
0
LINE
8
BLACK
6
CONTINUOUS
10
0.202297
20
0.0508454
11
0.200548
21
0.0518553
0
LINE
8
BLACK
6
CONTINUOUS
10
0.200548
20
0.0518553
11
0.199857
21
0.0537533
0
LINE
8
BLACK
6
CONTINUOUS
10
0.199857
20
0.0537533
11
0.199857
21
0.0620491
0
LINE
8
BLACK
6
CONTINUOUS
10
0.199857
20
0.0620491
11
0.16344
21
0.0620491
0
LINE
8
BLACK
6
CONTINUOUS
10
0.16344
20
0.0620491
11
0.16243
21
0.0622272
0
LINE
8
BLACK
6
CONTINUOUS
10
0.16243
20
0.0622272
11
0.1623
21
0.0623363
0
LINE
8
BLACK
6
CONTINUOUS
10
0.1623
20
0.0623363
11
0.162131
21
0.062355
0
LINE
8
BLACK
6
CONTINUOUS
10
0.162131
20
0.062355
11
0.161539
21
0.0629747
0
LINE
8
BLACK
6
CONTINUOUS
10
0.161539
20
0.0629747
11
0.160883
21
0.0635255
0
LINE
8
BLACK
6
CONTINUOUS
10
0.160883
20
0.0635255
11
0.160854
21
0.0636927
0
LINE
8
BLACK
6
CONTINUOUS
10
0.160854
20
0.0636927
11
0.160736
21
0.0638155
0
LINE
8
BLACK
6
CONTINUOUS
10
0.160736
20
0.0638155
11
0.160681
21
0.0646707
0
LINE
8
BLACK
6
CONTINUOUS
10
0.160681
20
0.0646707
11
0.160532
21
0.0655146
0
LINE
8
BLACK
6
CONTINUOUS
10
0.160532
20
0.0655146
11
0.160617
21
0.0656617
0
LINE
8
BLACK
6
CONTINUOUS
10
0.160617
20
0.0656617
11
0.160606
21
0.0658311
0
LINE
8
BLACK
6
CONTINUOUS
10
0.160606
20
0.0658311
11
0.161114
21
0.0665215
0
LINE
8
BLACK
6
CONTINUOUS
10
0.161114
20
0.0665215
11
0.161542
21
0.0672638
0
LINE
8
BLACK
6
CONTINUOUS
10
0.161542
20
0.0672638
11
0.161702
21
0.0673219
0
LINE
8
BLACK
6
CONTINUOUS
10
0.161702
20
0.0673219
11
0.161802
21
0.0674587
0
LINE
8
BLACK
6
CONTINUOUS
10
0.161802
20
0.0674587
11
0.167183
21
0.0710461
0
LINE
8
BLACK
6
CONTINUOUS
10
0.167183
20
0.0710461
11
0.170387
21
0.07425
0
LINE
8
BLACK
6
CONTINUOUS
10
0.170387
20
0.07425
11
0.172048
21
0.077571
0
LINE
8
BLACK
6
CONTINUOUS
10
0.172048
20
0.077571
11
0.172659
21
0.0783946
0
LINE
8
BLACK
6
CONTINUOUS
10
0.172659
20
0.0783946
11
0.174512
21
0.0791979
0
LINE
8
BLACK
6
CONTINUOUS
10
0.174512
20
0.0791979
11
0.176448
21
0.078622
0
LINE
8
BLACK
6
CONTINUOUS
10
0.532075
20
0.0865916
11
0.532767
21
0.0849213
0
LINE
8
BLACK
6
CONTINUOUS
10
0.532767
20
0.0849213
11
0.532075
21
0.0832509
0
LINE
8
BLACK
6
CONTINUOUS
10
0.532075
20
0.0832509
11
0.530405
21
0.0825591
0
LINE
8
BLACK
6
CONTINUOUS
10
0.530405
20
0.0825591
11
0.517587
21
0.0825591
0
LINE
8
BLACK
6
CONTINUOUS
10
0.517587
20
0.0825591
11
0.515917
21
0.0832509
0
LINE
8
BLACK
6
CONTINUOUS
10
0.515917
20
0.0832509
11
0.515225
21
0.0849213
0
LINE
8
BLACK
6
CONTINUOUS
10
0.515225
20
0.0849213
11
0.515917
21
0.0865916
0
LINE
8
BLACK
6
CONTINUOUS
10
0.515917
20
0.0865916
11
0.517587
21
0.0872835
0
LINE
8
BLACK
6
CONTINUOUS
10
0.517587
20
0.0872835
11
0.530405
21
0.0872835
0
LINE
8
BLACK
6
CONTINUOUS
10
0.530405
20
0.0872835
11
0.532075
21
0.0865916
0
LINE
8
BLACK
6
CONTINUOUS
10
0.205072
20
0.110019
11
0.205763
21
0.108121
0
LINE
8
BLACK
6
CONTINUOUS
10
0.205763
20
0.108121
11
0.205763
21
0.104372
0
LINE
8
BLACK
6
CONTINUOUS
10
0.205763
20
0.104372
11
0.20561
21
0.103503
0
LINE
8
BLACK
6
CONTINUOUS
10
0.20561
20
0.103503
11
0.205611
21
0.103438
0
LINE
8
BLACK
6
CONTINUOUS
10
0.205611
20
0.103438
11
0.203737
21
0.0978139
0
LINE
8
BLACK
6
CONTINUOUS
10
0.203737
20
0.0978139
11
0.203248
21
0.0969122
0
LINE
8
BLACK
6
CONTINUOUS
10
0.203248
20
0.0969122
11
0.203098
21
0.0968198
0
LINE
8
BLACK
6
CONTINUOUS
10
0.203098
20
0.0968198
11
0.203023
21
0.0966598
0
LINE
8
BLACK
6
CONTINUOUS
10
0.203023
20
0.0966598
11
0.199274
21
0.0929102
0
LINE
8
BLACK
6
CONTINUOUS
10
0.199274
20
0.0929102
11
0.198434
21
0.092322
0
LINE
8
BLACK
6
CONTINUOUS
10
0.198434
20
0.092322
11
0.198258
21
0.0923067
0
LINE
8
BLACK
6
CONTINUOUS
10
0.198258
20
0.0923067
11
0.19812
21
0.0921969
0
LINE
8
BLACK
6
CONTINUOUS
10
0.19812
20
0.0921969
11
0.192495
21
0.0903222
0
LINE
8
BLACK
6
CONTINUOUS
10
0.192495
20
0.0903222
11
0.191622
21
0.0901927
0
LINE
8
BLACK
6
CONTINUOUS
10
0.191622
20
0.0901927
11
0.191562
21
0.0901706
0
LINE
8
BLACK
6
CONTINUOUS
10
0.191562
20
0.0901706
11
0.16344
21
0.0901706
0
LINE
8
BLACK
6
CONTINUOUS
10
0.16344
20
0.0901706
11
0.16243
21
0.0903487
0
LINE
8
BLACK
6
CONTINUOUS
10
0.16243
20
0.0903487
11
0.160883
21
0.091647
0
LINE
8
BLACK
6
CONTINUOUS
10
0.160883
20
0.091647
11
0.160532
21
0.0936361
0
LINE
8
BLACK
6
CONTINUOUS
10
0.160532
20
0.0936361
11
0.161542
21
0.0953853
0
LINE
8
BLACK
6
CONTINUOUS
10
0.161542
20
0.0953853
11
0.16344
21
0.0960761
0
LINE
8
BLACK
6
CONTINUOUS
10
0.16344
20
0.0960761
11
0.191083
21
0.0960761
0
LINE
8
BLACK
6
CONTINUOUS
10
0.191083
20
0.0960761
11
0.195591
21
0.0975789
0
LINE
8
BLACK
6
CONTINUOUS
10
0.195591
20
0.0975789
11
0.198355
21
0.100343
0
LINE
8
BLACK
6
CONTINUOUS
10
0.198355
20
0.100343
11
0.199857
21
0.104851
0
LINE
8
BLACK
6
CONTINUOUS
10
0.199857
20
0.104851
11
0.199857
21
0.108121
0
LINE
8
BLACK
6
CONTINUOUS
10
0.199857
20
0.108121
11
0.200036
21
0.109131
0
LINE
8
BLACK
6
CONTINUOUS
10
0.200036
20
0.109131
11
0.201334
21
0.110679
0
LINE
8
BLACK
6
CONTINUOUS
10
0.201334
20
0.110679
11
0.203323
21
0.111029
0
LINE
8
BLACK
6
CONTINUOUS
10
0.203323
20
0.111029
11
0.205072
21
0.110019
0
LINE
8
BLACK
6
CONTINUOUS
10
1.06163
20
0.159285
11
1.06232
21
0.157387
0
LINE
8
BLACK
6
CONTINUOUS
10
1.06232
20
0.157387
11
1.06232
21
0.125516
0
LINE
8
BLACK
6
CONTINUOUS
10
1.06232
20
0.125516
11
1.06214
21
0.124506
0
LINE
8
BLACK
6
CONTINUOUS
10
1.06214
20
0.124506
11
1.06203
21
0.12437
0
LINE
8
BLACK
6
CONTINUOUS
10
1.06203
20
0.12437
11
1.06201
21
0.124195
0
LINE
8
BLACK
6
CONTINUOUS
10
1.06201
20
0.124195
11
1.06013
21
0.120446
0
LINE
8
BLACK
6
CONTINUOUS
10
1.06013
20
0.120446
11
1.05961
21
0.119736
0
LINE
8
BLACK
6
CONTINUOUS
10
1.05961
20
0.119736
11
1.05958
21
0.119678
0
LINE
8
BLACK
6
CONTINUOUS
10
1.05958
20
0.119678
11
1.0577
21
0.117803
0
LINE
8
BLACK
6
CONTINUOUS
10
1.0577
20
0.117803
11
1.05698
21
0.117297
0
LINE
8
BLACK
6
CONTINUOUS
10
1.05698
20
0.117297
11
1.05694
21
0.11725
0
LINE
8
BLACK
6
CONTINUOUS
10
1.05694
20
0.11725
11
1.05319
21
0.115376
0
LINE
8
BLACK
6
CONTINUOUS
10
1.05319
20
0.115376
11
1.0522
21
0.115083
0
LINE
8
BLACK
6
CONTINUOUS
10
1.0522
20
0.115083
11
1.05203
21
0.115124
0
LINE
8
BLACK
6
CONTINUOUS
10
1.05203
20
0.115124
11
1.05187
21
0.115064
0
LINE
8
BLACK
6
CONTINUOUS
10
1.05187
20
0.115064
11
1.04437
21
0.115064
0
LINE
8
BLACK
6
CONTINUOUS
10
1.04437
20
0.115064
11
1.04336
21
0.115242
0
LINE
8
BLACK
6
CONTINUOUS
10
1.04336
20
0.115242
11
1.04322
21
0.115355
0
LINE
8
BLACK
6
CONTINUOUS
10
1.04322
20
0.115355
11
1.04305
21
0.115376
0
LINE
8
BLACK
6
CONTINUOUS
10
1.04305
20
0.115376
11
1.0393
21
0.11725
0
LINE
8
BLACK
6
CONTINUOUS
10
1.0393
20
0.11725
11
1.03859
21
0.117776
0
LINE
8
BLACK
6
CONTINUOUS
10
1.03859
20
0.117776
11
1.03853
21
0.117803
0
LINE
8
BLACK
6
CONTINUOUS
10
1.03853
20
0.117803
11
1.03666
21
0.119678
0
LINE
8
BLACK
6
CONTINUOUS
10
1.03666
20
0.119678
11
1.03615
21
0.120401
0
LINE
8
BLACK
6
CONTINUOUS
10
1.03615
20
0.120401
11
1.0361
21
0.120446
0
LINE
8
BLACK
6
CONTINUOUS
10
1.0361
20
0.120446
11
1.03423
21
0.124195
0
LINE
8
BLACK
6
CONTINUOUS
10
1.03423
20
0.124195
11
1.03394
21
0.125178
0
LINE
8
BLACK
6
CONTINUOUS
10
1.03394
20
0.125178
11
1.03398
21
0.12535
0
LINE
8
BLACK
6
CONTINUOUS
10
1.03398
20
0.12535
11
1.03392
21
0.125516
0
LINE
8
BLACK
6
CONTINUOUS
10
1.03392
20
0.125516
11
1.03392
21
0.157387
0
LINE
8
BLACK
6
CONTINUOUS
10
1.03392
20
0.157387
11
1.03409
21
0.158397
0
LINE
8
BLACK
6
CONTINUOUS
10
1.03409
20
0.158397
11
1.03539
21
0.159944
0
LINE
8
BLACK
6
CONTINUOUS
10
1.03539
20
0.159944
11
1.03738
21
0.160295
0
LINE
8
BLACK
6
CONTINUOUS
10
1.03738
20
0.160295
11
1.03913
21
0.159285
0
LINE
8
BLACK
6
CONTINUOUS
10
1.03913
20
0.159285
11
1.03982
21
0.157387
0
LINE
8
BLACK
6
CONTINUOUS
10
1.03982
20
0.157387
11
1.03982
21
0.126213
0
LINE
8
BLACK
6
CONTINUOUS
10
1.03982
20
0.126213
11
1.04117
21
0.123515
0
LINE
8
BLACK
6
CONTINUOUS
10
1.04117
20
0.123515
11
1.04237
21
0.122318
0
LINE
8
BLACK
6
CONTINUOUS
10
1.04237
20
0.122318
11
1.04507
21
0.120969
0
LINE
8
BLACK
6
CONTINUOUS
10
1.04507
20
0.120969
11
1.05117
21
0.120969
0
LINE
8
BLACK
6
CONTINUOUS
10
1.05117
20
0.120969
11
1.05387
21
0.122318
0
LINE
8
BLACK
6
CONTINUOUS
10
1.05387
20
0.122318
11
1.05506
21
0.123515
0
LINE
8
BLACK
6
CONTINUOUS
10
1.05506
20
0.123515
11
1.05641
21
0.126213
0
LINE
8
BLACK
6
CONTINUOUS
10
1.05641
20
0.126213
11
1.05641
21
0.157387
0
LINE
8
BLACK
6
CONTINUOUS
10
1.05641
20
0.157387
11
1.05659
21
0.158397
0
LINE
8
BLACK
6
CONTINUOUS
10
1.05659
20
0.158397
11
1.05789
21
0.159944
0
LINE
8
BLACK
6
CONTINUOUS
10
1.05789
20
0.159944
11
1.05988
21
0.160295
0
LINE
8
BLACK
6
CONTINUOUS
10
1.05988
20
0.160295
11
1.06163
21
0.159285
0
LINE
8
BLACK
6
CONTINUOUS
10
1.00941
20
0.16021
11
1.00958
21
0.160221
0
LINE
8
BLACK
6
CONTINUOUS
10
1.00958
20
0.160221
11
1.01027
21
0.159713
0
LINE
8
BLACK
6
CONTINUOUS
10
1.01027
20
0.159713
11
1.01101
21
0.159285
0
LINE
8
BLACK
6
CONTINUOUS
10
1.01101
20
0.159285
11
1.01107
21
0.159125
0
LINE
8
BLACK
6
CONTINUOUS
10
1.01107
20
0.159125
11
1.0112
21
0.159024
0
LINE
8
BLACK
6
CONTINUOUS
10
1.0112
20
0.159024
11
1.01479
21
0.153643
0
LINE
8
BLACK
6
CONTINUOUS
10
1.01479
20
0.153643
11
1.018
21
0.150439
0
LINE
8
BLACK
6
CONTINUOUS
10
1.018
20
0.150439
11
1.02132
21
0.148779
0
LINE
8
BLACK
6
CONTINUOUS
10
1.02132
20
0.148779
11
1.02214
21
0.148168
0
LINE
8
BLACK
6
CONTINUOUS
10
1.02214
20
0.148168
11
1.02294
21
0.146315
0
LINE
8
BLACK
6
CONTINUOUS
10
1.02294
20
0.146315
11
1.02237
21
0.144379
0
LINE
8
BLACK
6
CONTINUOUS
10
1.02237
20
0.144379
11
1.02068
21
0.143266
0
LINE
8
BLACK
6
CONTINUOUS
10
1.02068
20
0.143266
11
1.01868
21
0.143497
0
LINE
8
BLACK
6
CONTINUOUS
10
1.01868
20
0.143497
11
1.01493
21
0.145372
0
LINE
8
BLACK
6
CONTINUOUS
10
1.01493
20
0.145372
11
1.01422
21
0.145898
0
LINE
8
BLACK
6
CONTINUOUS
10
1.01422
20
0.145898
11
1.01416
21
0.145925
0
LINE
8
BLACK
6
CONTINUOUS
10
1.01416
20
0.145925
11
1.0117
21
0.148383
0
LINE
8
BLACK
6
CONTINUOUS
10
1.0117
20
0.148383
11
1.0117
21
0.120969
0
LINE
8
BLACK
6
CONTINUOUS
10
1.0117
20
0.120969
11
1.02
21
0.120969
0
LINE
8
BLACK
6
CONTINUOUS
10
1.02
20
0.120969
11
1.02101
21
0.120791
0
LINE
8
BLACK
6
CONTINUOUS
10
1.02101
20
0.120791
11
1.02255
21
0.119493
0
LINE
8
BLACK
6
CONTINUOUS
10
1.02255
20
0.119493
11
1.0229
21
0.117504
0
LINE
8
BLACK
6
CONTINUOUS
10
1.0229
20
0.117504
11
1.02189
21
0.115755
0
LINE
8
BLACK
6
CONTINUOUS
10
1.02189
20
0.115755
11
1.02
21
0.115064
0
LINE
8
BLACK
6
CONTINUOUS
10
1.02
20
0.115064
11
0.997499
21
0.115064
0
LINE
8
BLACK
6
CONTINUOUS
10
0.997499
20
0.115064
11
0.996489
21
0.115242
0
LINE
8
BLACK
6
CONTINUOUS
10
0.996489
20
0.115242
11
0.994942
21
0.11654
0
LINE
8
BLACK
6
CONTINUOUS
10
0.994942
20
0.11654
11
0.994591
21
0.118529
0
LINE
8
BLACK
6
CONTINUOUS
10
0.994591
20
0.118529
11
0.995601
21
0.120278
0
LINE
8
BLACK
6
CONTINUOUS
10
0.995601
20
0.120278
11
0.997499
21
0.120969
0
LINE
8
BLACK
6
CONTINUOUS
10
0.997499
20
0.120969
11
1.00579
21
0.120969
0
LINE
8
BLACK
6
CONTINUOUS
10
1.00579
20
0.120969
11
1.00579
21
0.157387
0
LINE
8
BLACK
6
CONTINUOUS
10
1.00579
20
0.157387
11
1.00597
21
0.158397
0
LINE
8
BLACK
6
CONTINUOUS
10
1.00597
20
0.158397
11
1.00608
21
0.158527
0
LINE
8
BLACK
6
CONTINUOUS
10
1.00608
20
0.158527
11
1.0061
21
0.158695
0
LINE
8
BLACK
6
CONTINUOUS
10
1.0061
20
0.158695
11
1.00672
21
0.159287
0
LINE
8
BLACK
6
CONTINUOUS
10
1.00672
20
0.159287
11
1.00727
21
0.159944
0
LINE
8
BLACK
6
CONTINUOUS
10
1.00727
20
0.159944
11
1.00744
21
0.159973
0
LINE
8
BLACK
6
CONTINUOUS
10
1.00744
20
0.159973
11
1.00756
21
0.160091
0
LINE
8
BLACK
6
CONTINUOUS
10
1.00756
20
0.160091
11
1.00842
21
0.160146
0
LINE
8
BLACK
6
CONTINUOUS
10
1.00842
20
0.160146
11
1.00926
21
0.160295
0
LINE
8
BLACK
6
CONTINUOUS
10
1.00926
20
0.160295
11
1.00941
21
0.16021
0
LINE
8
BLACK
6
CONTINUOUS
10
0.532075
20
0.126749
11
0.532767
21
0.125079
0
LINE
8
BLACK
6
CONTINUOUS
10
0.532767
20
0.125079
11
0.532075
21
0.123408
0
LINE
8
BLACK
6
CONTINUOUS
10
0.532075
20
0.123408
11
0.530405
21
0.122717
0
LINE
8
BLACK
6
CONTINUOUS
10
0.530405
20
0.122717
11
0.517587
21
0.122717
0
LINE
8
BLACK
6
CONTINUOUS
10
0.517587
20
0.122717
11
0.515917
21
0.123408
0
LINE
8
BLACK
6
CONTINUOUS
10
0.515917
20
0.123408
11
0.515225
21
0.125079
0
LINE
8
BLACK
6
CONTINUOUS
10
0.515225
20
0.125079
11
0.515917
21
0.126749
0
LINE
8
BLACK
6
CONTINUOUS
10
0.515917
20
0.126749
11
0.517587
21
0.127441
0
LINE
8
BLACK
6
CONTINUOUS
10
0.517587
20
0.127441
11
0.530405
21
0.127441
0
LINE
8
BLACK
6
CONTINUOUS
10
0.530405
20
0.127441
11
0.532075
21
0.126749
0
LINE
8
BLACK
6
CONTINUOUS
10
0.118802
20
0.126873
11
0.11811
21
0.128543
0
LINE
8
BLACK
6
CONTINUOUS
10
0.11811
20
0.128543
11
0.118802
21
0.130214
0
LINE
8
BLACK
6
CONTINUOUS
10
0.118802
20
0.130214
11
0.120472
21
0.130906
0
LINE
8
BLACK
6
CONTINUOUS
10
0.120472
20
0.130906
11
0.175197
21
0.130906
0
LINE
8
BLACK
6
CONTINUOUS
10
0.175197
20
0.130906
11
0.175197
21
0.199409
0
LINE
8
BLACK
6
CONTINUOUS
10
0.175197
20
0.199409
11
0.175889
21
0.20108
0
LINE
8
BLACK
6
CONTINUOUS
10
0.175889
20
0.20108
11
0.177559
21
0.201772
0
LINE
8
BLACK
6
CONTINUOUS
10
0.177559
20
0.201772
11
0.216535
21
0.201772
0
LINE
8
BLACK
6
CONTINUOUS
10
0.216535
20
0.201772
11
0.218206
21
0.20108
0
LINE
8
BLACK
6
CONTINUOUS
10
0.218206
20
0.20108
11
0.218898
21
0.199409
0
LINE
8
BLACK
6
CONTINUOUS
10
0.218898
20
0.199409
11
0.218206
21
0.197739
0
LINE
8
BLACK
6
CONTINUOUS
10
0.218206
20
0.197739
11
0.216535
21
0.197047
0
LINE
8
BLACK
6
CONTINUOUS
10
0.216535
20
0.197047
11
0.179921
21
0.197047
0
LINE
8
BLACK
6
CONTINUOUS
10
0.179921
20
0.197047
11
0.179921
21
0.128543
0
LINE
8
BLACK
6
CONTINUOUS
10
0.179921
20
0.128543
11
0.179229
21
0.126873
0
LINE
8
BLACK
6
CONTINUOUS
10
0.179229
20
0.126873
11
0.177559
21
0.126181
0
LINE
8
BLACK
6
CONTINUOUS
10
0.177559
20
0.126181
11
0.120472
21
0.126181
0
LINE
8
BLACK
6
CONTINUOUS
10
0.120472
20
0.126181
11
0.118802
21
0.126873
0
LINE
8
BLACK
6
CONTINUOUS
10
0.746527
20
0.180938
11
0.747218
21
0.17904
0
LINE
8
BLACK
6
CONTINUOUS
10
0.747218
20
0.17904
11
0.747218
21
0.151398
0
LINE
8
BLACK
6
CONTINUOUS
10
0.747218
20
0.151398
11
0.748721
21
0.146889
0
LINE
8
BLACK
6
CONTINUOUS
10
0.748721
20
0.146889
11
0.751484
21
0.144126
0
LINE
8
BLACK
6
CONTINUOUS
10
0.751484
20
0.144126
11
0.755993
21
0.142623
0
LINE
8
BLACK
6
CONTINUOUS
10
0.755993
20
0.142623
11
0.759263
21
0.142623
0
LINE
8
BLACK
6
CONTINUOUS
10
0.759263
20
0.142623
11
0.760273
21
0.142445
0
LINE
8
BLACK
6
CONTINUOUS
10
0.760273
20
0.142445
11
0.76182
21
0.141146
0
LINE
8
BLACK
6
CONTINUOUS
10
0.76182
20
0.141146
11
0.762171
21
0.139157
0
LINE
8
BLACK
6
CONTINUOUS
10
0.762171
20
0.139157
11
0.761161
21
0.137408
0
LINE
8
BLACK
6
CONTINUOUS
10
0.761161
20
0.137408
11
0.759263
21
0.136717
0
LINE
8
BLACK
6
CONTINUOUS
10
0.759263
20
0.136717
11
0.755514
21
0.136717
0
LINE
8
BLACK
6
CONTINUOUS
10
0.755514
20
0.136717
11
0.754644
21
0.136871
0
LINE
8
BLACK
6
CONTINUOUS
10
0.754644
20
0.136871
11
0.75458
21
0.136869
0
LINE
8
BLACK
6
CONTINUOUS
10
0.75458
20
0.136869
11
0.748956
21
0.138744
0
LINE
8
BLACK
6
CONTINUOUS
10
0.748956
20
0.138744
11
0.748054
21
0.139232
0
LINE
8
BLACK
6
CONTINUOUS
10
0.748054
20
0.139232
11
0.747961
21
0.139382
0
LINE
8
BLACK
6
CONTINUOUS
10
0.747961
20
0.139382
11
0.747801
21
0.139457
0
LINE
8
BLACK
6
CONTINUOUS
10
0.747801
20
0.139457
11
0.744052
21
0.143206
0
LINE
8
BLACK
6
CONTINUOUS
10
0.744052
20
0.143206
11
0.743464
21
0.144046
0
LINE
8
BLACK
6
CONTINUOUS
10
0.743464
20
0.144046
11
0.743448
21
0.144222
0
LINE
8
BLACK
6
CONTINUOUS
10
0.743448
20
0.144222
11
0.743339
21
0.144361
0
LINE
8
BLACK
6
CONTINUOUS
10
0.743339
20
0.144361
11
0.741464
21
0.149985
0
LINE
8
BLACK
6
CONTINUOUS
10
0.741464
20
0.149985
11
0.741334
21
0.150858
0
LINE
8
BLACK
6
CONTINUOUS
10
0.741334
20
0.150858
11
0.741312
21
0.150919
0
LINE
8
BLACK
6
CONTINUOUS
10
0.741312
20
0.150919
11
0.741312
21
0.17904
0
LINE
8
BLACK
6
CONTINUOUS
10
0.741312
20
0.17904
11
0.74149
21
0.18005
0
LINE
8
BLACK
6
CONTINUOUS
10
0.74149
20
0.18005
11
0.742789
21
0.181597
0
LINE
8
BLACK
6
CONTINUOUS
10
0.742789
20
0.181597
11
0.744778
21
0.181948
0
LINE
8
BLACK
6
CONTINUOUS
10
0.744778
20
0.181948
11
0.746527
21
0.180938
0
LINE
8
BLACK
6
CONTINUOUS
10
0.677433
20
0.181863
11
0.677603
21
0.181874
0
LINE
8
BLACK
6
CONTINUOUS
10
0.677603
20
0.181874
11
0.678293
21
0.181367
0
LINE
8
BLACK
6
CONTINUOUS
10
0.678293
20
0.181367
11
0.679035
21
0.180938
0
LINE
8
BLACK
6
CONTINUOUS
10
0.679035
20
0.180938
11
0.679094
21
0.180779
0
LINE
8
BLACK
6
CONTINUOUS
10
0.679094
20
0.180779
11
0.67923
21
0.180678
0
LINE
8
BLACK
6
CONTINUOUS
10
0.67923
20
0.180678
11
0.682818
21
0.175297
0
LINE
8
BLACK
6
CONTINUOUS
10
0.682818
20
0.175297
11
0.686022
21
0.172093
0
LINE
8
BLACK
6
CONTINUOUS
10
0.686022
20
0.172093
11
0.689343
21
0.170433
0
LINE
8
BLACK
6
CONTINUOUS
10
0.689343
20
0.170433
11
0.690166
21
0.169822
0
LINE
8
BLACK
6
CONTINUOUS
10
0.690166
20
0.169822
11
0.69097
21
0.167968
0
LINE
8
BLACK
6
CONTINUOUS
10
0.69097
20
0.167968
11
0.690394
21
0.166032
0
LINE
8
BLACK
6
CONTINUOUS
10
0.690394
20
0.166032
11
0.688708
21
0.16492
0
LINE
8
BLACK
6
CONTINUOUS
10
0.688708
20
0.16492
11
0.686702
21
0.165151
0
LINE
8
BLACK
6
CONTINUOUS
10
0.686702
20
0.165151
11
0.682952
21
0.167025
0
LINE
8
BLACK
6
CONTINUOUS
10
0.682952
20
0.167025
11
0.682243
21
0.167551
0
LINE
8
BLACK
6
CONTINUOUS
10
0.682243
20
0.167551
11
0.682185
21
0.167578
0
LINE
8
BLACK
6
CONTINUOUS
10
0.682185
20
0.167578
11
0.679726
21
0.170037
0
LINE
8
BLACK
6
CONTINUOUS
10
0.679726
20
0.170037
11
0.679726
21
0.142623
0
LINE
8
BLACK
6
CONTINUOUS
10
0.679726
20
0.142623
11
0.688022
21
0.142623
0
LINE
8
BLACK
6
CONTINUOUS
10
0.688022
20
0.142623
11
0.689032
21
0.142445
0
LINE
8
BLACK
6
CONTINUOUS
10
0.689032
20
0.142445
11
0.690579
21
0.141146
0
LINE
8
BLACK
6
CONTINUOUS
10
0.690579
20
0.141146
11
0.69093
21
0.139157
0
LINE
8
BLACK
6
CONTINUOUS
10
0.69093
20
0.139157
11
0.68992
21
0.137408
0
LINE
8
BLACK
6
CONTINUOUS
10
0.68992
20
0.137408
11
0.688022
21
0.136717
0
LINE
8
BLACK
6
CONTINUOUS
10
0.688022
20
0.136717
11
0.665525
21
0.136717
0
LINE
8
BLACK
6
CONTINUOUS
10
0.665525
20
0.136717
11
0.664515
21
0.136895
0
LINE
8
BLACK
6
CONTINUOUS
10
0.664515
20
0.136895
11
0.662968
21
0.138194
0
LINE
8
BLACK
6
CONTINUOUS
10
0.662968
20
0.138194
11
0.662617
21
0.140183
0
LINE
8
BLACK
6
CONTINUOUS
10
0.662617
20
0.140183
11
0.663627
21
0.141932
0
LINE
8
BLACK
6
CONTINUOUS
10
0.663627
20
0.141932
11
0.665525
21
0.142623
0
LINE
8
BLACK
6
CONTINUOUS
10
0.665525
20
0.142623
11
0.673821
21
0.142623
0
LINE
8
BLACK
6
CONTINUOUS
10
0.673821
20
0.142623
11
0.673821
21
0.17904
0
LINE
8
BLACK
6
CONTINUOUS
10
0.673821
20
0.17904
11
0.673999
21
0.18005
0
LINE
8
BLACK
6
CONTINUOUS
10
0.673999
20
0.18005
11
0.674108
21
0.18018
0
LINE
8
BLACK
6
CONTINUOUS
10
0.674108
20
0.18018
11
0.674127
21
0.180349
0
LINE
8
BLACK
6
CONTINUOUS
10
0.674127
20
0.180349
11
0.674746
21
0.180941
0
LINE
8
BLACK
6
CONTINUOUS
10
0.674746
20
0.180941
11
0.675297
21
0.181597
0
LINE
8
BLACK
6
CONTINUOUS
10
0.675297
20
0.181597
11
0.675464
21
0.181627
0
LINE
8
BLACK
6
CONTINUOUS
10
0.675464
20
0.181627
11
0.675587
21
0.181744
0
LINE
8
BLACK
6
CONTINUOUS
10
0.675587
20
0.181744
11
0.676442
21
0.181799
0
LINE
8
BLACK
6
CONTINUOUS
10
0.676442
20
0.181799
11
0.677286
21
0.181948
0
LINE
8
BLACK
6
CONTINUOUS
10
0.677286
20
0.181948
11
0.677433
21
0.181863
0
LINE
8
BLACK
6
CONTINUOUS
10
0.725901
20
0.181925
11
0.72603
21
0.181948
0
LINE
8
BLACK
6
CONTINUOUS
10
0.72603
20
0.181948
11
0.726144
21
0.181882
0
LINE
8
BLACK
6
CONTINUOUS
10
0.726144
20
0.181882
11
0.726527
21
0.181815
0
LINE
8
BLACK
6
CONTINUOUS
10
0.726527
20
0.181815
11
0.727115
21
0.181322
0
LINE
8
BLACK
6
CONTINUOUS
10
0.727115
20
0.181322
11
0.727779
21
0.180938
0
LINE
8
BLACK
6
CONTINUOUS
10
0.727779
20
0.180938
11
0.72787
21
0.180688
0
LINE
8
BLACK
6
CONTINUOUS
10
0.72787
20
0.180688
11
0.728075
21
0.180517
0
LINE
8
BLACK
6
CONTINUOUS
10
0.728075
20
0.180517
11
0.728208
21
0.179761
0
LINE
8
BLACK
6
CONTINUOUS
10
0.728208
20
0.179761
11
0.72847
21
0.17904
0
LINE
8
BLACK
6
CONTINUOUS
10
0.72847
20
0.17904
11
0.72847
21
0.13967
0
LINE
8
BLACK
6
CONTINUOUS
10
0.72847
20
0.13967
11
0.728292
21
0.13866
0
LINE
8
BLACK
6
CONTINUOUS
10
0.728292
20
0.13866
11
0.726994
21
0.137113
0
LINE
8
BLACK
6
CONTINUOUS
10
0.726994
20
0.137113
11
0.725005
21
0.136762
0
LINE
8
BLACK
6
CONTINUOUS
10
0.725005
20
0.136762
11
0.723255
21
0.137772
0
LINE
8
BLACK
6
CONTINUOUS
10
0.723255
20
0.137772
11
0.722565
21
0.13967
0
LINE
8
BLACK
6
CONTINUOUS
10
0.722565
20
0.13967
11
0.722565
21
0.155465
0
LINE
8
BLACK
6
CONTINUOUS
10
0.722565
20
0.155465
11
0.710519
21
0.155465
0
LINE
8
BLACK
6
CONTINUOUS
10
0.710519
20
0.155465
11
0.709509
21
0.155643
0
LINE
8
BLACK
6
CONTINUOUS
10
0.709509
20
0.155643
11
0.709374
21
0.155756
0
LINE
8
BLACK
6
CONTINUOUS
10
0.709374
20
0.155756
11
0.709199
21
0.155777
0
LINE
8
BLACK
6
CONTINUOUS
10
0.709199
20
0.155777
11
0.705449
21
0.157651
0
LINE
8
BLACK
6
CONTINUOUS
10
0.705449
20
0.157651
11
0.70474
21
0.158177
0
LINE
8
BLACK
6
CONTINUOUS
10
0.70474
20
0.158177
11
0.704682
21
0.158205
0
LINE
8
BLACK
6
CONTINUOUS
10
0.704682
20
0.158205
11
0.702807
21
0.160079
0
LINE
8
BLACK
6
CONTINUOUS
10
0.702807
20
0.160079
11
0.702301
21
0.160802
0
LINE
8
BLACK
6
CONTINUOUS
10
0.702301
20
0.160802
11
0.702254
21
0.160847
0
LINE
8
BLACK
6
CONTINUOUS
10
0.702254
20
0.160847
11
0.700379
21
0.164596
0
LINE
8
BLACK
6
CONTINUOUS
10
0.700379
20
0.164596
11
0.700087
21
0.165579
0
LINE
8
BLACK
6
CONTINUOUS
10
0.700087
20
0.165579
11
0.700128
21
0.165751
0
LINE
8
BLACK
6
CONTINUOUS
10
0.700128
20
0.165751
11
0.700067
21
0.165917
0
LINE
8
BLACK
6
CONTINUOUS
10
0.700067
20
0.165917
11
0.700067
21
0.171541
0
LINE
8
BLACK
6
CONTINUOUS
10
0.700067
20
0.171541
11
0.700246
21
0.172551
0
LINE
8
BLACK
6
CONTINUOUS
10
0.700246
20
0.172551
11
0.700359
21
0.172686
0
LINE
8
BLACK
6
CONTINUOUS
10
0.700359
20
0.172686
11
0.700379
21
0.172862
0
LINE
8
BLACK
6
CONTINUOUS
10
0.700379
20
0.172862
11
0.702254
21
0.176611
0
LINE
8
BLACK
6
CONTINUOUS
10
0.702254
20
0.176611
11
0.70278
21
0.17732
0
LINE
8
BLACK
6
CONTINUOUS
10
0.70278
20
0.17732
11
0.702807
21
0.177379
0
LINE
8
BLACK
6
CONTINUOUS
10
0.702807
20
0.177379
11
0.704682
21
0.179253
0
LINE
8
BLACK
6
CONTINUOUS
10
0.704682
20
0.179253
11
0.705405
21
0.179759
0
LINE
8
BLACK
6
CONTINUOUS
10
0.705405
20
0.179759
11
0.705449
21
0.179806
0
LINE
8
BLACK
6
CONTINUOUS
10
0.705449
20
0.179806
11
0.709199
21
0.181681
0
LINE
8
BLACK
6
CONTINUOUS
10
0.709199
20
0.181681
11
0.710182
21
0.181974
0
LINE
8
BLACK
6
CONTINUOUS
10
0.710182
20
0.181974
11
0.710353
21
0.181933
0
LINE
8
BLACK
6
CONTINUOUS
10
0.710353
20
0.181933
11
0.710519
21
0.181993
0
LINE
8
BLACK
6
CONTINUOUS
10
0.710519
20
0.181993
11
0.725517
21
0.181993
0
LINE
8
BLACK
6
CONTINUOUS
10
0.725517
20
0.181993
11
0.725901
21
0.181925
0
LINE
8
BLACK
6
CONTINUOUS
10
0.711216
20
0.176087
11
0.708519
21
0.174739
0
LINE
8
BLACK
6
CONTINUOUS
10
0.708519
20
0.174739
11
0.707322
21
0.173541
0
LINE
8
BLACK
6
CONTINUOUS
10
0.707322
20
0.173541
11
0.705973
21
0.170844
0
LINE
8
BLACK
6
CONTINUOUS
10
0.705973
20
0.170844
11
0.705973
21
0.166614
0
LINE
8
BLACK
6
CONTINUOUS
10
0.705973
20
0.166614
11
0.707322
21
0.163916
0
LINE
8
BLACK
6
CONTINUOUS
10
0.707322
20
0.163916
11
0.708519
21
0.162719
0
LINE
8
BLACK
6
CONTINUOUS
10
0.708519
20
0.162719
11
0.711216
21
0.16137
0
LINE
8
BLACK
6
CONTINUOUS
10
0.711216
20
0.16137
11
0.722565
21
0.16137
0
LINE
8
BLACK
6
CONTINUOUS
10
0.722565
20
0.16137
11
0.722565
21
0.176087
0
LINE
8
BLACK
6
CONTINUOUS
10
0.722565
20
0.176087
11
0.711216
21
0.176087
0
LINE
8
BLACK
6
CONTINUOUS
10
0.556749
20
0.20108
11
0.557441
21
0.199409
0
LINE
8
BLACK
6
CONTINUOUS
10
0.557441
20
0.199409
11
0.557441
21
0.165157
0
LINE
8
BLACK
6
CONTINUOUS
10
0.557441
20
0.165157
11
0.612559
21
0.165157
0
LINE
8
BLACK
6
CONTINUOUS
10
0.612559
20
0.165157
11
0.614229
21
0.164466
0
LINE
8
BLACK
6
CONTINUOUS
10
0.614229
20
0.164466
11
0.614921
21
0.162795
0
LINE
8
BLACK
6
CONTINUOUS
10
0.614921
20
0.162795
11
0.614229
21
0.161125
0
LINE
8
BLACK
6
CONTINUOUS
10
0.614229
20
0.161125
11
0.612559
21
0.160433
0
LINE
8
BLACK
6
CONTINUOUS
10
0.612559
20
0.160433
11
0.555079
21
0.160433
0
LINE
8
BLACK
6
CONTINUOUS
10
0.555079
20
0.160433
11
0.553408
21
0.161125
0
LINE
8
BLACK
6
CONTINUOUS
10
0.553408
20
0.161125
11
0.552717
21
0.162795
0
LINE
8
BLACK
6
CONTINUOUS
10
0.552717
20
0.162795
11
0.552717
21
0.199409
0
LINE
8
BLACK
6
CONTINUOUS
10
0.552717
20
0.199409
11
0.553408
21
0.20108
0
LINE
8
BLACK
6
CONTINUOUS
10
0.553408
20
0.20108
11
0.555079
21
0.201772
0
LINE
8
BLACK
6
CONTINUOUS
10
0.555079
20
0.201772
11
0.556749
21
0.20108
0
LINE
8
BLACK
6
CONTINUOUS
10
0.0111191
20
0.413678
11
0.011811
21
0.412008
0
LINE
8
BLACK
6
CONTINUOUS
10
0.011811
20
0.412008
11
0.011811
21
0.178543
0
LINE
8
BLACK
6
CONTINUOUS
10
0.011811
20
0.178543
11
0.0111191
21
0.176873
0
LINE
8
BLACK
6
CONTINUOUS
10
0.0111191
20
0.176873
11
0.00944882
21
0.176181
0
LINE
8
BLACK
6
CONTINUOUS
10
0.00944882
20
0.176181
11
0.0077785
21
0.176873
0
LINE
8
BLACK
6
CONTINUOUS
10
0.0077785
20
0.176873
11
0.00708661
21
0.178543
0
LINE
8
BLACK
6
CONTINUOUS
10
0.00708661
20
0.178543
11
0.00708661
21
0.412008
0
LINE
8
BLACK
6
CONTINUOUS
10
0.00708661
20
0.412008
11
0.0077785
21
0.413678
0
LINE
8
BLACK
6
CONTINUOUS
10
0.0077785
20
0.413678
11
0.00944882
21
0.41437
0
LINE
8
BLACK
6
CONTINUOUS
10
0.00944882
20
0.41437
11
0.0111191
21
0.413678
0
LINE
8
BLACK
6
CONTINUOUS
10
0.420056
20
0.277103
11
0.420748
21
0.275433
0
LINE
8
BLACK
6
CONTINUOUS
10
0.420748
20
0.275433
11
0.420748
21
0.178976
0
LINE
8
BLACK
6
CONTINUOUS
10
0.420748
20
0.178976
11
0.420056
21
0.177306
0
LINE
8
BLACK
6
CONTINUOUS
10
0.420056
20
0.177306
11
0.418386
21
0.176614
0
LINE
8
BLACK
6
CONTINUOUS
10
0.418386
20
0.176614
11
0.416716
21
0.177306
0
LINE
8
BLACK
6
CONTINUOUS
10
0.416716
20
0.177306
11
0.416024
21
0.178976
0
LINE
8
BLACK
6
CONTINUOUS
10
0.416024
20
0.178976
11
0.416024
21
0.275433
0
LINE
8
BLACK
6
CONTINUOUS
10
0.416024
20
0.275433
11
0.416716
21
0.277103
0
LINE
8
BLACK
6
CONTINUOUS
10
0.416716
20
0.277103
11
0.418386
21
0.277795
0
LINE
8
BLACK
6
CONTINUOUS
10
0.418386
20
0.277795
11
0.420056
21
0.277103
0
LINE
8
BLACK
6
CONTINUOUS
10
0.732075
20
0.191592
11
0.732767
21
0.189921
0
LINE
8
BLACK
6
CONTINUOUS
10
0.732767
20
0.189921
11
0.732075
21
0.188251
0
LINE
8
BLACK
6
CONTINUOUS
10
0.732075
20
0.188251
11
0.730405
21
0.187559
0
LINE
8
BLACK
6
CONTINUOUS
10
0.730405
20
0.187559
11
0.717587
21
0.187559
0
LINE
8
BLACK
6
CONTINUOUS
10
0.717587
20
0.187559
11
0.715917
21
0.188251
0
LINE
8
BLACK
6
CONTINUOUS
10
0.715917
20
0.188251
11
0.715225
21
0.189921
0
LINE
8
BLACK
6
CONTINUOUS
10
0.715225
20
0.189921
11
0.715917
21
0.191592
0
LINE
8
BLACK
6
CONTINUOUS
10
0.715917
20
0.191592
11
0.717587
21
0.192283
0
LINE
8
BLACK
6
CONTINUOUS
10
0.717587
20
0.192283
11
0.730405
21
0.192283
0
LINE
8
BLACK
6
CONTINUOUS
10
0.730405
20
0.192283
11
0.732075
21
0.191592
0
LINE
8
BLACK
6
CONTINUOUS
10
0.293284
20
0.277103
11
0.293976
21
0.275433
0
LINE
8
BLACK
6
CONTINUOUS
10
0.293976
20
0.275433
11
0.293976
21
0.204567
0
LINE
8
BLACK
6
CONTINUOUS
10
0.293976
20
0.204567
11
0.293284
21
0.202897
0
LINE
8
BLACK
6
CONTINUOUS
10
0.293284
20
0.202897
11
0.291614
21
0.202205
0
LINE
8
BLACK
6
CONTINUOUS
10
0.291614
20
0.202205
11
0.289944
21
0.202897
0
LINE
8
BLACK
6
CONTINUOUS
10
0.289944
20
0.202897
11
0.289252
21
0.204567
0
LINE
8
BLACK
6
CONTINUOUS
10
0.289252
20
0.204567
11
0.289252
21
0.275433
0
LINE
8
BLACK
6
CONTINUOUS
10
0.289252
20
0.275433
11
0.289944
21
0.277103
0
LINE
8
BLACK
6
CONTINUOUS
10
0.289944
20
0.277103
11
0.291614
21
0.277795
0
LINE
8
BLACK
6
CONTINUOUS
10
0.291614
20
0.277795
11
0.293284
21
0.277103
0
LINE
8
BLACK
6
CONTINUOUS
10
0.446592
20
0.219083
11
0.447283
21
0.217413
0
LINE
8
BLACK
6
CONTINUOUS
10
0.447283
20
0.217413
11
0.447283
21
0.204595
0
LINE
8
BLACK
6
CONTINUOUS
10
0.447283
20
0.204595
11
0.446592
21
0.202925
0
LINE
8
BLACK
6
CONTINUOUS
10
0.446592
20
0.202925
11
0.444921
21
0.202233
0
LINE
8
BLACK
6
CONTINUOUS
10
0.444921
20
0.202233
11
0.443251
21
0.202925
0
LINE
8
BLACK
6
CONTINUOUS
10
0.443251
20
0.202925
11
0.442559
21
0.204595
0
LINE
8
BLACK
6
CONTINUOUS
10
0.442559
20
0.204595
11
0.442559
21
0.217413
0
LINE
8
BLACK
6
CONTINUOUS
10
0.442559
20
0.217413
11
0.443251
21
0.219083
0
LINE
8
BLACK
6
CONTINUOUS
10
0.443251
20
0.219083
11
0.444921
21
0.219775
0
LINE
8
BLACK
6
CONTINUOUS
10
0.444921
20
0.219775
11
0.446592
21
0.219083
0
LINE
8
BLACK
6
CONTINUOUS
10
0.486749
20
0.219083
11
0.487441
21
0.217413
0
LINE
8
BLACK
6
CONTINUOUS
10
0.487441
20
0.217413
11
0.487441
21
0.204595
0
LINE
8
BLACK
6
CONTINUOUS
10
0.487441
20
0.204595
11
0.486749
21
0.202925
0
LINE
8
BLACK
6
CONTINUOUS
10
0.486749
20
0.202925
11
0.485079
21
0.202233
0
LINE
8
BLACK
6
CONTINUOUS
10
0.485079
20
0.202233
11
0.483408
21
0.202925
0
LINE
8
BLACK
6
CONTINUOUS
10
0.483408
20
0.202925
11
0.482717
21
0.204595
0
LINE
8
BLACK
6
CONTINUOUS
10
0.482717
20
0.204595
11
0.482717
21
0.217413
0
LINE
8
BLACK
6
CONTINUOUS
10
0.482717
20
0.217413
11
0.483408
21
0.219083
0
LINE
8
BLACK
6
CONTINUOUS
10
0.483408
20
0.219083
11
0.485079
21
0.219775
0
LINE
8
BLACK
6
CONTINUOUS
10
0.485079
20
0.219775
11
0.486749
21
0.219083
0
LINE
8
BLACK
6
CONTINUOUS
10
0.732075
20
0.231749
11
0.732767
21
0.230079
0
LINE
8
BLACK
6
CONTINUOUS
10
0.732767
20
0.230079
11
0.732075
21
0.228408
0
LINE
8
BLACK
6
CONTINUOUS
10
0.732075
20
0.228408
11
0.730405
21
0.227717
0
LINE
8
BLACK
6
CONTINUOUS
10
0.730405
20
0.227717
11
0.717587
21
0.227717
0
LINE
8
BLACK
6
CONTINUOUS
10
0.717587
20
0.227717
11
0.715917
21
0.228408
0
LINE
8
BLACK
6
CONTINUOUS
10
0.715917
20
0.228408
11
0.715225
21
0.230079
0
LINE
8
BLACK
6
CONTINUOUS
10
0.715225
20
0.230079
11
0.715917
21
0.231749
0
LINE
8
BLACK
6
CONTINUOUS
10
0.715917
20
0.231749
11
0.717587
21
0.232441
0
LINE
8
BLACK
6
CONTINUOUS
10
0.717587
20
0.232441
11
0.730405
21
0.232441
0
LINE
8
BLACK
6
CONTINUOUS
10
0.730405
20
0.232441
11
0.732075
21
0.231749
0
LINE
8
BLACK
6
CONTINUOUS
10
0.641788
20
0.288875
11
0.64248
21
0.287205
0
LINE
8
BLACK
6
CONTINUOUS
10
0.64248
20
0.287205
11
0.641788
21
0.285534
0
LINE
8
BLACK
6
CONTINUOUS
10
0.641788
20
0.285534
11
0.640118
21
0.284843
0
LINE
8
BLACK
6
CONTINUOUS
10
0.640118
20
0.284843
11
0.557441
21
0.284843
0
LINE
8
BLACK
6
CONTINUOUS
10
0.557441
20
0.284843
11
0.557441
21
0.250591
0
LINE
8
BLACK
6
CONTINUOUS
10
0.557441
20
0.250591
11
0.556749
21
0.24892
0
LINE
8
BLACK
6
CONTINUOUS
10
0.556749
20
0.24892
11
0.555079
21
0.248228
0
LINE
8
BLACK
6
CONTINUOUS
10
0.555079
20
0.248228
11
0.553408
21
0.24892
0
LINE
8
BLACK
6
CONTINUOUS
10
0.553408
20
0.24892
11
0.552717
21
0.250591
0
LINE
8
BLACK
6
CONTINUOUS
10
0.552717
20
0.250591
11
0.552717
21
0.287205
0
LINE
8
BLACK
6
CONTINUOUS
10
0.552717
20
0.287205
11
0.553408
21
0.288875
0
LINE
8
BLACK
6
CONTINUOUS
10
0.553408
20
0.288875
11
0.555079
21
0.289567
0
LINE
8
BLACK
6
CONTINUOUS
10
0.555079
20
0.289567
11
0.640118
21
0.289567
0
LINE
8
BLACK
6
CONTINUOUS
10
0.640118
20
0.289567
11
0.641788
21
0.288875
0
LINE
8
BLACK
6
CONTINUOUS
10
0.457034
20
0.332538
11
0.458581
21
0.33124
0
LINE
8
BLACK
6
CONTINUOUS
10
0.458581
20
0.33124
11
0.458932
21
0.329251
0
LINE
8
BLACK
6
CONTINUOUS
10
0.458932
20
0.329251
11
0.457922
21
0.327502
0
LINE
8
BLACK
6
CONTINUOUS
10
0.457922
20
0.327502
11
0.456024
21
0.326811
0
LINE
8
BLACK
6
CONTINUOUS
10
0.456024
20
0.326811
11
0.396024
21
0.326811
0
LINE
8
BLACK
6
CONTINUOUS
10
0.396024
20
0.326811
11
0.395014
21
0.326989
0
LINE
8
BLACK
6
CONTINUOUS
10
0.395014
20
0.326989
11
0.393466
21
0.328287
0
LINE
8
BLACK
6
CONTINUOUS
10
0.393466
20
0.328287
11
0.393116
21
0.330277
0
LINE
8
BLACK
6
CONTINUOUS
10
0.393116
20
0.330277
11
0.394126
21
0.332026
0
LINE
8
BLACK
6
CONTINUOUS
10
0.394126
20
0.332026
11
0.396024
21
0.332717
0
LINE
8
BLACK
6
CONTINUOUS
10
0.396024
20
0.332717
11
0.456024
21
0.332717
0
LINE
8
BLACK
6
CONTINUOUS
10
0.456024
20
0.332717
11
0.457034
21
0.332538
0
LINE
8
BLACK
6
CONTINUOUS
10
0.331834
20
0.337897
11
0.331142
21
0.339567
0
LINE
8
BLACK
6
CONTINUOUS
10
0.331142
20
0.339567
11
0.331142
21
0.412402
0
LINE
8
BLACK
6
CONTINUOUS
10
0.331142
20
0.412402
11
0.331834
21
0.414072
0
LINE
8
BLACK
6
CONTINUOUS
10
0.331834
20
0.414072
11
0.333504
21
0.414764
0
LINE
8
BLACK
6
CONTINUOUS
10
0.333504
20
0.414764
11
0.335174
21
0.414072
0
LINE
8
BLACK
6
CONTINUOUS
10
0.335174
20
0.414072
11
0.335866
21
0.412402
0
LINE
8
BLACK
6
CONTINUOUS
10
0.335866
20
0.412402
11
0.335866
21
0.341929
0
LINE
8
BLACK
6
CONTINUOUS
10
0.335866
20
0.341929
11
0.378386
21
0.341929
0
LINE
8
BLACK
6
CONTINUOUS
10
0.378386
20
0.341929
11
0.378386
21
0.412402
0
LINE
8
BLACK
6
CONTINUOUS
10
0.378386
20
0.412402
11
0.379078
21
0.414072
0
LINE
8
BLACK
6
CONTINUOUS
10
0.379078
20
0.414072
11
0.380748
21
0.414764
0
LINE
8
BLACK
6
CONTINUOUS
10
0.380748
20
0.414764
11
0.382418
21
0.414072
0
LINE
8
BLACK
6
CONTINUOUS
10
0.382418
20
0.414072
11
0.38311
21
0.412402
0
LINE
8
BLACK
6
CONTINUOUS
10
0.38311
20
0.412402
11
0.38311
21
0.339567
0
LINE
8
BLACK
6
CONTINUOUS
10
0.38311
20
0.339567
11
0.382418
21
0.337897
0
LINE
8
BLACK
6
CONTINUOUS
10
0.382418
20
0.337897
11
0.380748
21
0.337205
0
LINE
8
BLACK
6
CONTINUOUS
10
0.380748
20
0.337205
11
0.333504
21
0.337205
0
LINE
8
BLACK
6
CONTINUOUS
10
0.333504
20
0.337205
11
0.331834
21
0.337897
0
LINE
8
BLACK
6
CONTINUOUS
10
0.457694
20
0.406434
11
0.458386
21
0.404764
0
LINE
8
BLACK
6
CONTINUOUS
10
0.458386
20
0.404764
11
0.458386
21
0.374764
0
LINE
8
BLACK
6
CONTINUOUS
10
0.458386
20
0.374764
11
0.457694
21
0.373093
0
LINE
8
BLACK
6
CONTINUOUS
10
0.457694
20
0.373093
11
0.456024
21
0.372402
0
LINE
8
BLACK
6
CONTINUOUS
10
0.456024
20
0.372402
11
0.454353
21
0.373093
0
LINE
8
BLACK
6
CONTINUOUS
10
0.454353
20
0.373093
11
0.453661
21
0.374764
0
LINE
8
BLACK
6
CONTINUOUS
10
0.453661
20
0.374764
11
0.453661
21
0.404764
0
LINE
8
BLACK
6
CONTINUOUS
10
0.453661
20
0.404764
11
0.454353
21
0.406434
0
LINE
8
BLACK
6
CONTINUOUS
10
0.454353
20
0.406434
11
0.456024
21
0.407126
0
LINE
8
BLACK
6
CONTINUOUS
10
0.456024
20
0.407126
11
0.457694
21
0.406434
0
LINE
8
BLACK
6
CONTINUOUS
10
0.397694
20
0.406434
11
0.398386
21
0.404764
0
LINE
8
BLACK
6
CONTINUOUS
10
0.398386
20
0.404764
11
0.398386
21
0.374764
0
LINE
8
BLACK
6
CONTINUOUS
10
0.398386
20
0.374764
11
0.397694
21
0.373093
0
LINE
8
BLACK
6
CONTINUOUS
10
0.397694
20
0.373093
11
0.396024
21
0.372402
0
LINE
8
BLACK
6
CONTINUOUS
10
0.396024
20
0.372402
11
0.394353
21
0.373093
0
LINE
8
BLACK
6
CONTINUOUS
10
0.394353
20
0.373093
11
0.393661
21
0.374764
0
LINE
8
BLACK
6
CONTINUOUS
10
0.393661
20
0.374764
11
0.393661
21
0.404764
0
LINE
8
BLACK
6
CONTINUOUS
10
0.393661
20
0.404764
11
0.394353
21
0.406434
0
LINE
8
BLACK
6
CONTINUOUS
10
0.394353
20
0.406434
11
0.396024
21
0.407126
0
LINE
8
BLACK
6
CONTINUOUS
10
0.396024
20
0.407126
11
0.397694
21
0.406434
0
LINE
8
BLACK
6
CONTINUOUS
10
0.489308
20
0.391937
11
0.49
21
0.390267
0
LINE
8
BLACK
6
CONTINUOUS
10
0.49
20
0.390267
11
0.49
21
0.37745
0
LINE
8
BLACK
6
CONTINUOUS
10
0.49
20
0.37745
11
0.489308
21
0.375779
0
LINE
8
BLACK
6
CONTINUOUS
10
0.489308
20
0.375779
11
0.487638
21
0.375087
0
LINE
8
BLACK
6
CONTINUOUS
10
0.487638
20
0.375087
11
0.485967
21
0.375779
0
LINE
8
BLACK
6
CONTINUOUS
10
0.485967
20
0.375779
11
0.485276
21
0.37745
0
LINE
8
BLACK
6
CONTINUOUS
10
0.485276
20
0.37745
11
0.485276
21
0.390267
0
LINE
8
BLACK
6
CONTINUOUS
10
0.485276
20
0.390267
11
0.485967
21
0.391937
0
LINE
8
BLACK
6
CONTINUOUS
10
0.485967
20
0.391937
11
0.487638
21
0.392629
0
LINE
8
BLACK
6
CONTINUOUS
10
0.487638
20
0.392629
11
0.489308
21
0.391937
0
LINE
8
BLACK
6
CONTINUOUS
10
0.529466
20
0.391937
11
0.530157
21
0.390267
0
LINE
8
BLACK
6
CONTINUOUS
10
0.530157
20
0.390267
11
0.530157
21
0.37745
0
LINE
8
BLACK
6
CONTINUOUS
10
0.530157
20
0.37745
11
0.529466
21
0.375779
0
LINE
8
BLACK
6
CONTINUOUS
10
0.529466
20
0.375779
11
0.527795
21
0.375087
0
LINE
8
BLACK
6
CONTINUOUS
10
0.527795
20
0.375087
11
0.526125
21
0.375779
0
LINE
8
BLACK
6
CONTINUOUS
10
0.526125
20
0.375779
11
0.525433
21
0.37745
0
LINE
8
BLACK
6
CONTINUOUS
10
0.525433
20
0.37745
11
0.525433
21
0.390267
0
LINE
8
BLACK
6
CONTINUOUS
10
0.525433
20
0.390267
11
0.526125
21
0.391937
0
LINE
8
BLACK
6
CONTINUOUS
10
0.526125
20
0.391937
11
0.527795
21
0.392629
0
LINE
8
BLACK
6
CONTINUOUS
10
0.527795
20
0.392629
11
0.529466
21
0.391937
0
LINE
8
BLACK
6
CONTINUOUS
10
0.313914
20
0.395874
11
0.314606
21
0.394204
0
LINE
8
BLACK
6
CONTINUOUS
10
0.314606
20
0.394204
11
0.314606
21
0.381387
0
LINE
8
BLACK
6
CONTINUOUS
10
0.314606
20
0.381387
11
0.313914
21
0.379716
0
LINE
8
BLACK
6
CONTINUOUS
10
0.313914
20
0.379716
11
0.312244
21
0.379024
0
LINE
8
BLACK
6
CONTINUOUS
10
0.312244
20
0.379024
11
0.310574
21
0.379716
0
LINE
8
BLACK
6
CONTINUOUS
10
0.310574
20
0.379716
11
0.309882
21
0.381387
0
LINE
8
BLACK
6
CONTINUOUS
10
0.309882
20
0.381387
11
0.309882
21
0.394204
0
LINE
8
BLACK
6
CONTINUOUS
10
0.309882
20
0.394204
11
0.310574
21
0.395874
0
LINE
8
BLACK
6
CONTINUOUS
10
0.310574
20
0.395874
11
0.312244
21
0.396566
0
LINE
8
BLACK
6
CONTINUOUS
10
0.312244
20
0.396566
11
0.313914
21
0.395874
0
LINE
8
BLACK
6
CONTINUOUS
10
0.273757
20
0.395874
11
0.274449
21
0.394204
0
LINE
8
BLACK
6
CONTINUOUS
10
0.274449
20
0.394204
11
0.274449
21
0.381387
0
LINE
8
BLACK
6
CONTINUOUS
10
0.274449
20
0.381387
11
0.273757
21
0.379716
0
LINE
8
BLACK
6
CONTINUOUS
10
0.273757
20
0.379716
11
0.272087
21
0.379024
0
LINE
8
BLACK
6
CONTINUOUS
10
0.272087
20
0.379024
11
0.270416
21
0.379716
0
LINE
8
BLACK
6
CONTINUOUS
10
0.270416
20
0.379716
11
0.269724
21
0.381387
0
LINE
8
BLACK
6
CONTINUOUS
10
0.269724
20
0.381387
11
0.269724
21
0.394204
0
LINE
8
BLACK
6
CONTINUOUS
10
0.269724
20
0.394204
11
0.270416
21
0.395874
0
LINE
8
BLACK
6
CONTINUOUS
10
0.270416
20
0.395874
11
0.272087
21
0.396566
0
LINE
8
BLACK
6
CONTINUOUS
10
0.272087
20
0.396566
11
0.273757
21
0.395874
0
LINE
8
BLACK
6
CONTINUOUS
10
0.179229
20
0.463678
11
0.179921
21
0.462008
0
LINE
8
BLACK
6
CONTINUOUS
10
0.179921
20
0.462008
11
0.179921
21
0.391142
0
LINE
8
BLACK
6
CONTINUOUS
10
0.179921
20
0.391142
11
0.179229
21
0.389471
0
LINE
8
BLACK
6
CONTINUOUS
10
0.179229
20
0.389471
11
0.177559
21
0.38878
0
LINE
8
BLACK
6
CONTINUOUS
10
0.177559
20
0.38878
11
0.175889
21
0.389471
0
LINE
8
BLACK
6
CONTINUOUS
10
0.175889
20
0.389471
11
0.175197
21
0.391142
0
LINE
8
BLACK
6
CONTINUOUS
10
0.175197
20
0.391142
11
0.175197
21
0.459646
0
LINE
8
BLACK
6
CONTINUOUS
10
0.175197
20
0.459646
11
0.120472
21
0.459646
0
LINE
8
BLACK
6
CONTINUOUS
10
0.120472
20
0.459646
11
0.118802
21
0.460338
0
LINE
8
BLACK
6
CONTINUOUS
10
0.118802
20
0.460338
11
0.11811
21
0.462008
0
LINE
8
BLACK
6
CONTINUOUS
10
0.11811
20
0.462008
11
0.118802
21
0.463678
0
LINE
8
BLACK
6
CONTINUOUS
10
0.118802
20
0.463678
11
0.120472
21
0.46437
0
LINE
8
BLACK
6
CONTINUOUS
10
0.120472
20
0.46437
11
0.177559
21
0.46437
0
LINE
8
BLACK
6
CONTINUOUS
10
0.177559
20
0.46437
11
0.179229
21
0.463678
0
LINE
8
BLACK
6
CONTINUOUS
10
0.631749
20
0.412075
11
0.632441
21
0.410405
0
LINE
8
BLACK
6
CONTINUOUS
10
0.632441
20
0.410405
11
0.632441
21
0.397587
0
LINE
8
BLACK
6
CONTINUOUS
10
0.632441
20
0.397587
11
0.631749
21
0.395917
0
LINE
8
BLACK
6
CONTINUOUS
10
0.631749
20
0.395917
11
0.630079
21
0.395225
0
LINE
8
BLACK
6
CONTINUOUS
10
0.630079
20
0.395225
11
0.628408
21
0.395917
0
LINE
8
BLACK
6
CONTINUOUS
10
0.628408
20
0.395917
11
0.627717
21
0.397587
0
LINE
8
BLACK
6
CONTINUOUS
10
0.627717
20
0.397587
11
0.627717
21
0.410405
0
LINE
8
BLACK
6
CONTINUOUS
10
0.627717
20
0.410405
11
0.628408
21
0.412075
0
LINE
8
BLACK
6
CONTINUOUS
10
0.628408
20
0.412075
11
0.630079
21
0.412767
0
LINE
8
BLACK
6
CONTINUOUS
10
0.630079
20
0.412767
11
0.631749
21
0.412075
0
LINE
8
BLACK
6
CONTINUOUS
10
0.591592
20
0.412075
11
0.592283
21
0.410405
0
LINE
8
BLACK
6
CONTINUOUS
10
0.592283
20
0.410405
11
0.592283
21
0.397587
0
LINE
8
BLACK
6
CONTINUOUS
10
0.592283
20
0.397587
11
0.591592
21
0.395917
0
LINE
8
BLACK
6
CONTINUOUS
10
0.591592
20
0.395917
11
0.589921
21
0.395225
0
LINE
8
BLACK
6
CONTINUOUS
10
0.589921
20
0.395225
11
0.588251
21
0.395917
0
LINE
8
BLACK
6
CONTINUOUS
10
0.588251
20
0.395917
11
0.587559
21
0.397587
0
LINE
8
BLACK
6
CONTINUOUS
10
0.587559
20
0.397587
11
0.587559
21
0.410405
0
LINE
8
BLACK
6
CONTINUOUS
10
0.587559
20
0.410405
11
0.588251
21
0.412075
0
LINE
8
BLACK
6
CONTINUOUS
10
0.588251
20
0.412075
11
0.589921
21
0.412767
0
LINE
8
BLACK
6
CONTINUOUS
10
0.589921
20
0.412767
11
0.591592
21
0.412075
0
LINE
8
BLACK
6
CONTINUOUS
10
0.681592
20
0.413079
11
0.682283
21
0.411409
0
LINE
8
BLACK
6
CONTINUOUS
10
0.682283
20
0.411409
11
0.682283
21
0.398591
0
LINE
8
BLACK
6
CONTINUOUS
10
0.682283
20
0.398591
11
0.681592
21
0.396921
0
LINE
8
BLACK
6
CONTINUOUS
10
0.681592
20
0.396921
11
0.679921
21
0.396229
0
LINE
8
BLACK
6
CONTINUOUS
10
0.679921
20
0.396229
11
0.678251
21
0.396921
0
LINE
8
BLACK
6
CONTINUOUS
10
0.678251
20
0.396921
11
0.677559
21
0.398591
0
LINE
8
BLACK
6
CONTINUOUS
10
0.677559
20
0.398591
11
0.677559
21
0.411409
0
LINE
8
BLACK
6
CONTINUOUS
10
0.677559
20
0.411409
11
0.678251
21
0.413079
0
LINE
8
BLACK
6
CONTINUOUS
10
0.678251
20
0.413079
11
0.679921
21
0.413771
0
LINE
8
BLACK
6
CONTINUOUS
10
0.679921
20
0.413771
11
0.681592
21
0.413079
0
LINE
8
BLACK
6
CONTINUOUS
10
0.721749
20
0.413079
11
0.722441
21
0.411409
0
LINE
8
BLACK
6
CONTINUOUS
10
0.722441
20
0.411409
11
0.722441
21
0.398591
0
LINE
8
BLACK
6
CONTINUOUS
10
0.722441
20
0.398591
11
0.721749
21
0.396921
0
LINE
8
BLACK
6
CONTINUOUS
10
0.721749
20
0.396921
11
0.720079
21
0.396229
0
LINE
8
BLACK
6
CONTINUOUS
10
0.720079
20
0.396229
11
0.718408
21
0.396921
0
LINE
8
BLACK
6
CONTINUOUS
10
0.718408
20
0.396921
11
0.717717
21
0.398591
0
LINE
8
BLACK
6
CONTINUOUS
10
0.717717
20
0.398591
11
0.717717
21
0.411409
0
LINE
8
BLACK
6
CONTINUOUS
10
0.717717
20
0.411409
11
0.718408
21
0.413079
0
LINE
8
BLACK
6
CONTINUOUS
10
0.718408
20
0.413079
11
0.720079
21
0.413771
0
LINE
8
BLACK
6
CONTINUOUS
10
0.720079
20
0.413771
11
0.721749
21
0.413079
0
LINE
8
BLACK
6
CONTINUOUS
10
1.03957
20
0.438048
11
1.04027
21
0.436378
0
LINE
8
BLACK
6
CONTINUOUS
10
1.04027
20
0.436378
11
1.03957
21
0.434708
0
LINE
8
BLACK
6
CONTINUOUS
10
1.03957
20
0.434708
11
1.0379
21
0.434016
0
LINE
8
BLACK
6
CONTINUOUS
10
1.0379
20
0.434016
11
1.02509
21
0.434016
0
LINE
8
BLACK
6
CONTINUOUS
10
1.02509
20
0.434016
11
1.02342
21
0.434708
0
LINE
8
BLACK
6
CONTINUOUS
10
1.02342
20
0.434708
11
1.02273
21
0.436378
0
LINE
8
BLACK
6
CONTINUOUS
10
1.02273
20
0.436378
11
1.02342
21
0.438048
0
LINE
8
BLACK
6
CONTINUOUS
10
1.02342
20
0.438048
11
1.02509
21
0.43874
0
LINE
8
BLACK
6
CONTINUOUS
10
1.02509
20
0.43874
11
1.0379
21
0.43874
0
LINE
8
BLACK
6
CONTINUOUS
10
1.0379
20
0.43874
11
1.03957
21
0.438048
0
LINE
8
BLACK
6
CONTINUOUS
10
0.457034
20
0.452538
11
0.458581
21
0.45124
0
LINE
8
BLACK
6
CONTINUOUS
10
0.458581
20
0.45124
11
0.458932
21
0.449251
0
LINE
8
BLACK
6
CONTINUOUS
10
0.458932
20
0.449251
11
0.457922
21
0.447502
0
LINE
8
BLACK
6
CONTINUOUS
10
0.457922
20
0.447502
11
0.456024
21
0.446811
0
LINE
8
BLACK
6
CONTINUOUS
10
0.456024
20
0.446811
11
0.396024
21
0.446811
0
LINE
8
BLACK
6
CONTINUOUS
10
0.396024
20
0.446811
11
0.395014
21
0.446989
0
LINE
8
BLACK
6
CONTINUOUS
10
0.395014
20
0.446989
11
0.393466
21
0.448287
0
LINE
8
BLACK
6
CONTINUOUS
10
0.393466
20
0.448287
11
0.393116
21
0.450277
0
LINE
8
BLACK
6
CONTINUOUS
10
0.393116
20
0.450277
11
0.394126
21
0.452026
0
LINE
8
BLACK
6
CONTINUOUS
10
0.394126
20
0.452026
11
0.396024
21
0.452717
0
LINE
8
BLACK
6
CONTINUOUS
10
0.396024
20
0.452717
11
0.456024
21
0.452717
0
LINE
8
BLACK
6
CONTINUOUS
10
0.456024
20
0.452717
11
0.457034
21
0.452538
0
LINE
8
BLACK
6
CONTINUOUS
10
1.03957
20
0.478206
11
1.04027
21
0.476535
0
LINE
8
BLACK
6
CONTINUOUS
10
1.04027
20
0.476535
11
1.03957
21
0.474865
0
LINE
8
BLACK
6
CONTINUOUS
10
1.03957
20
0.474865
11
1.0379
21
0.474173
0
LINE
8
BLACK
6
CONTINUOUS
10
1.0379
20
0.474173
11
1.02509
21
0.474173
0
LINE
8
BLACK
6
CONTINUOUS
10
1.02509
20
0.474173
11
1.02342
21
0.474865
0
LINE
8
BLACK
6
CONTINUOUS
10
1.02342
20
0.474865
11
1.02273
21
0.476535
0
LINE
8
BLACK
6
CONTINUOUS
10
1.02273
20
0.476535
11
1.02342
21
0.478206
0
LINE
8
BLACK
6
CONTINUOUS
10
1.02342
20
0.478206
11
1.02509
21
0.478898
0
LINE
8
BLACK
6
CONTINUOUS
10
1.02509
20
0.478898
11
1.0379
21
0.478898
0
LINE
8
BLACK
6
CONTINUOUS
10
1.0379
20
0.478898
11
1.03957
21
0.478206
0
LINE
8
BLACK
6
CONTINUOUS
10
1.15197
20
0.413386
11
1.15197
21
0.339154
0
LINE
8
BLACK
6
CONTINUOUS
10
1.15197
20
0.339154
11
1.15314
21
0.336213
0
LINE
8
BLACK
6
CONTINUOUS
10
1.15314
20
0.336213
11
1.15685
21
0.322836
0
LINE
8
BLACK
6
CONTINUOUS
10
1.15685
20
0.322836
11
1.15909
21
0.309137
0
LINE
8
BLACK
6
CONTINUOUS
10
1.15909
20
0.309137
11
1.15984
21
0.295276
0
LINE
8
BLACK
6
CONTINUOUS
10
1.15984
20
0.295276
11
1.15984
21
0.29438
0
LINE
8
BLACK
6
CONTINUOUS
10
1.15984
20
0.29438
11
1.15899
21
0.280524
0
LINE
8
BLACK
6
CONTINUOUS
10
1.15899
20
0.280524
11
1.15665
21
0.266841
0
LINE
8
BLACK
6
CONTINUOUS
10
1.15665
20
0.266841
11
1.15285
21
0.25349
0
LINE
8
BLACK
6
CONTINUOUS
10
1.15285
20
0.25349
11
1.15197
21
0.251319
0
LINE
8
BLACK
6
CONTINUOUS
10
1.15197
20
0.251319
11
1.15197
21
0.177165
0
LINE
8
BLACK
6
CONTINUOUS
10
1.15197
20
0.177165
11
1.15128
21
0.175495
0
LINE
8
BLACK
6
CONTINUOUS
10
1.15128
20
0.175495
11
1.14961
21
0.174803
0
LINE
8
BLACK
6
CONTINUOUS
10
1.14961
20
0.174803
11
1.07538
21
0.174803
0
LINE
8
BLACK
6
CONTINUOUS
10
1.07538
20
0.174803
11
1.06515
21
0.171419
0
LINE
8
BLACK
6
CONTINUOUS
10
1.06515
20
0.171419
11
1.05157
21
0.168509
0
LINE
8
BLACK
6
CONTINUOUS
10
1.05157
20
0.168509
11
1.03777
21
0.167082
0
LINE
8
BLACK
6
CONTINUOUS
10
1.03777
20
0.167082
11
1.02388
21
0.167155
0
LINE
8
BLACK
6
CONTINUOUS
10
1.02388
20
0.167155
11
1.01009
21
0.168726
0
LINE
8
BLACK
6
CONTINUOUS
10
1.01009
20
0.168726
11
0.99655
21
0.171778
0
LINE
8
BLACK
6
CONTINUOUS
10
0.99655
20
0.171778
11
0.987715
21
0.174803
0
LINE
8
BLACK
6
CONTINUOUS
10
0.987715
20
0.174803
11
0.913386
21
0.174803
0
LINE
8
BLACK
6
CONTINUOUS
10
0.913386
20
0.174803
11
0.911716
21
0.175495
0
LINE
8
BLACK
6
CONTINUOUS
10
0.911716
20
0.175495
11
0.911024
21
0.177165
0
LINE
8
BLACK
6
CONTINUOUS
10
0.911024
20
0.177165
11
0.911024
21
0.251431
0
LINE
8
BLACK
6
CONTINUOUS
10
0.911024
20
0.251431
11
0.909711
21
0.254763
0
LINE
8
BLACK
6
CONTINUOUS
10
0.909711
20
0.254763
11
0.906048
21
0.268153
0
LINE
8
BLACK
6
CONTINUOUS
10
0.906048
20
0.268153
11
0.903853
21
0.28186
0
LINE
8
BLACK
6
CONTINUOUS
10
0.903853
20
0.28186
11
0.90315
21
0.295724
0
LINE
8
BLACK
6
CONTINUOUS
10
0.90315
20
0.295724
11
0.903224
21
0.297004
0
LINE
8
BLACK
6
CONTINUOUS
10
0.903224
20
0.297004
11
0.903949
21
0.309582
0
LINE
8
BLACK
6
CONTINUOUS
10
0.903949
20
0.309582
11
0.906241
21
0.323274
0
LINE
8
BLACK
6
CONTINUOUS
10
0.906241
20
0.323274
11
0.909997
21
0.336637
0
LINE
8
BLACK
6
CONTINUOUS
10
0.909997
20
0.336637
11
0.911024
21
0.339191
0
LINE
8
BLACK
6
CONTINUOUS
10
0.911024
20
0.339191
11
0.911024
21
0.413386
0
LINE
8
BLACK
6
CONTINUOUS
10
0.911024
20
0.413386
11
0.911716
21
0.415056
0
LINE
8
BLACK
6
CONTINUOUS
10
0.911716
20
0.415056
11
0.913386
21
0.415748
0
LINE
8
BLACK
6
CONTINUOUS
10
0.913386
20
0.415748
11
0.987652
21
0.415748
0
LINE
8
BLACK
6
CONTINUOUS
10
0.987652
20
0.415748
11
0.997413
21
0.419014
0
LINE
8
BLACK
6
CONTINUOUS
10
0.997413
20
0.419014
11
1.01098
21
0.421971
0
LINE
8
BLACK
6
CONTINUOUS
10
1.01098
20
0.421971
11
1.02478
21
0.423446
0
LINE
8
BLACK
6
CONTINUOUS
10
1.02478
20
0.423446
11
1.03866
21
0.423422
0
LINE
8
BLACK
6
CONTINUOUS
10
1.03866
20
0.423422
11
1.05246
21
0.421899
0
LINE
8
BLACK
6
CONTINUOUS
10
1.05246
20
0.421899
11
1.06601
21
0.418894
0
LINE
8
BLACK
6
CONTINUOUS
10
1.06601
20
0.418894
11
1.07531
21
0.415748
0
LINE
8
BLACK
6
CONTINUOUS
10
1.07531
20
0.415748
11
1.14961
21
0.415748
0
LINE
8
BLACK
6
CONTINUOUS
10
1.14961
20
0.415748
11
1.15128
21
0.415056
0
LINE
8
BLACK
6
CONTINUOUS
10
1.15128
20
0.415056
11
1.15197
21
0.413386
0
LINE
8
BLACK
6
CONTINUOUS
10
0.910385
20
0.269533
11
0.911024
21
0.267182
0
LINE
8
BLACK
6
CONTINUOUS
10
0.911024
20
0.267182
11
0.911024
21
0.323697
0
LINE
8
BLACK
6
CONTINUOUS
10
0.911024
20
0.323697
11
0.908656
21
0.310794
0
LINE
8
BLACK
6
CONTINUOUS
10
0.908656
20
0.310794
11
0.907691
21
0.297004
0
LINE
8
BLACK
6
CONTINUOUS
10
0.907691
20
0.297004
11
0.90827
21
0.283193
0
LINE
8
BLACK
6
CONTINUOUS
10
0.90827
20
0.283193
11
0.910385
21
0.269533
0
LINE
8
BLACK
6
CONTINUOUS
10
1.00329
20
0.174803
11
1.01512
21
0.172546
0
LINE
8
BLACK
6
CONTINUOUS
10
1.01512
20
0.172546
11
1.0289
21
0.171486
0
LINE
8
BLACK
6
CONTINUOUS
10
1.0289
20
0.171486
11
1.04272
21
0.171968
0
LINE
8
BLACK
6
CONTINUOUS
10
1.04272
20
0.171968
11
1.05639
21
0.173988
0
LINE
8
BLACK
6
CONTINUOUS
10
1.05639
20
0.173988
11
1.05948
21
0.174803
0
LINE
8
BLACK
6
CONTINUOUS
10
1.05948
20
0.174803
11
1.00329
21
0.174803
0
LINE
8
BLACK
6
CONTINUOUS
10
0.915748
20
0.179528
11
0.976473
21
0.179528
0
LINE
8
BLACK
6
CONTINUOUS
10
0.976473
20
0.179528
11
0.970846
21
0.182163
0
LINE
8
BLACK
6
CONTINUOUS
10
0.970846
20
0.182163
11
0.958985
21
0.189375
0
LINE
8
BLACK
6
CONTINUOUS
10
0.958985
20
0.189375
11
0.947971
21
0.197826
0
LINE
8
BLACK
6
CONTINUOUS
10
0.947971
20
0.197826
11
0.937936
21
0.207416
0
LINE
8
BLACK
6
CONTINUOUS
10
0.937936
20
0.207416
11
0.928994
21
0.218035
0
LINE
8
BLACK
6
CONTINUOUS
10
0.928994
20
0.218035
11
0.921252
21
0.229557
0
LINE
8
BLACK
6
CONTINUOUS
10
0.921252
20
0.229557
11
0.915748
21
0.240039
0
LINE
8
BLACK
6
CONTINUOUS
10
0.915748
20
0.240039
11
0.915748
21
0.179528
0
LINE
8
BLACK
6
CONTINUOUS
10
0.987973
20
0.411024
11
0.978777
21
0.407308
0
LINE
8
BLACK
6
CONTINUOUS
10
0.978777
20
0.407308
11
0.966618
21
0.400734
0
LINE
8
BLACK
6
CONTINUOUS
10
0.966618
20
0.400734
11
0.955267
21
0.392845
0
LINE
8
BLACK
6
CONTINUOUS
10
0.955267
20
0.392845
11
0.944866
21
0.383739
0
LINE
8
BLACK
6
CONTINUOUS
10
0.944866
20
0.383739
11
0.935545
21
0.373531
0
LINE
8
BLACK
6
CONTINUOUS
10
0.935545
20
0.373531
11
0.92742
21
0.362348
0
LINE
8
BLACK
6
CONTINUOUS
10
0.92742
20
0.362348
11
0.920592
21
0.350329
0
LINE
8
BLACK
6
CONTINUOUS
10
0.920592
20
0.350329
11
0.915748
21
0.339027
0
LINE
8
BLACK
6
CONTINUOUS
10
0.915748
20
0.339027
11
0.915748
21
0.251801
0
LINE
8
BLACK
6
CONTINUOUS
10
0.915748
20
0.251801
11
0.919098
21
0.24334
0
LINE
8
BLACK
6
CONTINUOUS
10
0.919098
20
0.24334
11
0.925588
21
0.231135
0
LINE
8
BLACK
6
CONTINUOUS
10
0.925588
20
0.231135
11
0.933397
21
0.219729
0
LINE
8
BLACK
6
CONTINUOUS
10
0.933397
20
0.219729
11
0.94243
21
0.209265
0
LINE
8
BLACK
6
CONTINUOUS
10
0.94243
20
0.209265
11
0.952572
21
0.199873
0
LINE
8
BLACK
6
CONTINUOUS
10
0.952572
20
0.199873
11
0.963699
21
0.19167
0
LINE
8
BLACK
6
CONTINUOUS
10
0.963699
20
0.19167
11
0.97567
21
0.184758
0
LINE
8
BLACK
6
CONTINUOUS
10
0.97567
20
0.184758
11
0.987643
21
0.179528
0
LINE
8
BLACK
6
CONTINUOUS
10
0.987643
20
0.179528
11
1.07494
21
0.179528
0
LINE
8
BLACK
6
CONTINUOUS
10
1.07494
20
0.179528
11
1.08265
21
0.182518
0
LINE
8
BLACK
6
CONTINUOUS
10
1.08265
20
0.182518
11
1.0949
21
0.188922
0
LINE
8
BLACK
6
CONTINUOUS
10
1.0949
20
0.188922
11
1.10636
21
0.196652
0
LINE
8
BLACK
6
CONTINUOUS
10
1.10636
20
0.196652
11
1.11688
21
0.205611
0
LINE
8
BLACK
6
CONTINUOUS
10
1.11688
20
0.205611
11
1.12635
21
0.215688
0
LINE
8
BLACK
6
CONTINUOUS
10
1.12635
20
0.215688
11
1.13463
21
0.226756
0
LINE
8
BLACK
6
CONTINUOUS
10
1.13463
20
0.226756
11
1.14162
21
0.238679
0
LINE
8
BLACK
6
CONTINUOUS
10
1.14162
20
0.238679
11
1.14724
21
0.251307
0
LINE
8
BLACK
6
CONTINUOUS
10
1.14724
20
0.251307
11
1.14724
21
0.25131
0
LINE
8
BLACK
6
CONTINUOUS
10
1.14724
20
0.25131
11
1.14724
21
0.338862
0
LINE
8
BLACK
6
CONTINUOUS
10
1.14724
20
0.338862
11
1.14316
21
0.348775
0
LINE
8
BLACK
6
CONTINUOUS
10
1.14316
20
0.348775
11
1.1365
21
0.360889
0
LINE
8
BLACK
6
CONTINUOUS
10
1.1365
20
0.360889
11
1.12853
21
0.372184
0
LINE
8
BLACK
6
CONTINUOUS
10
1.12853
20
0.372184
11
1.11935
21
0.382521
0
LINE
8
BLACK
6
CONTINUOUS
10
1.11935
20
0.382521
11
1.10908
21
0.391771
0
LINE
8
BLACK
6
CONTINUOUS
10
1.10908
20
0.391771
11
1.09784
21
0.399818
0
LINE
8
BLACK
6
CONTINUOUS
10
1.09784
20
0.399818
11
1.08577
21
0.406561
0
LINE
8
BLACK
6
CONTINUOUS
10
1.08577
20
0.406561
11
1.07516
21
0.411024
0
LINE
8
BLACK
6
CONTINUOUS
10
1.07516
20
0.411024
11
0.987973
21
0.411024
0
LINE
8
BLACK
6
CONTINUOUS
10
1.14105
20
0.228406
11
1.13318
21
0.216966
0
LINE
8
BLACK
6
CONTINUOUS
10
1.13318
20
0.216966
11
1.12413
21
0.206441
0
LINE
8
BLACK
6
CONTINUOUS
10
1.12413
20
0.206441
11
1.114
21
0.196956
0
LINE
8
BLACK
6
CONTINUOUS
10
1.114
20
0.196956
11
1.10289
21
0.188622
0
LINE
8
BLACK
6
CONTINUOUS
10
1.10289
20
0.188622
11
1.09096
21
0.181534
0
LINE
8
BLACK
6
CONTINUOUS
10
1.09096
20
0.181534
11
1.08655
21
0.179528
0
LINE
8
BLACK
6
CONTINUOUS
10
1.08655
20
0.179528
11
1.14724
21
0.179528
0
LINE
8
BLACK
6
CONTINUOUS
10
1.14724
20
0.179528
11
1.14724
21
0.239916
0
LINE
8
BLACK
6
CONTINUOUS
10
1.14724
20
0.239916
11
1.14105
21
0.228406
0
LINE
8
BLACK
6
CONTINUOUS
10
1.15197
20
0.267239
11
1.15411
21
0.278044
0
LINE
8
BLACK
6
CONTINUOUS
10
1.15411
20
0.278044
11
1.15526
21
0.291818
0
LINE
8
BLACK
6
CONTINUOUS
10
1.15526
20
0.291818
11
1.15531
21
0.295276
0
LINE
8
BLACK
6
CONTINUOUS
10
1.15531
20
0.295276
11
1.15454
21
0.309077
0
LINE
8
BLACK
6
CONTINUOUS
10
1.15454
20
0.309077
11
1.15224
21
0.322707
0
LINE
8
BLACK
6
CONTINUOUS
10
1.15224
20
0.322707
11
1.15197
21
0.32364
0
LINE
8
BLACK
6
CONTINUOUS
10
1.15197
20
0.32364
11
1.15197
21
0.267239
0
LINE
8
BLACK
6
CONTINUOUS
10
1.08653
20
0.411024
11
1.09175
21
0.408599
0
LINE
8
BLACK
6
CONTINUOUS
10
1.09175
20
0.408599
11
1.10364
21
0.401428
0
LINE
8
BLACK
6
CONTINUOUS
10
1.10364
20
0.401428
11
1.11468
21
0.393016
0
LINE
8
BLACK
6
CONTINUOUS
10
1.11468
20
0.393016
11
1.12475
21
0.383461
0
LINE
8
BLACK
6
CONTINUOUS
10
1.12475
20
0.383461
11
1.13373
21
0.372874
0
LINE
8
BLACK
6
CONTINUOUS
10
1.13373
20
0.372874
11
1.14151
21
0.361379
0
LINE
8
BLACK
6
CONTINUOUS
10
1.14151
20
0.361379
11
1.14724
21
0.35055
0
LINE
8
BLACK
6
CONTINUOUS
10
1.14724
20
0.35055
11
1.14724
21
0.411024
0
LINE
8
BLACK
6
CONTINUOUS
10
1.14724
20
0.411024
11
1.08653
21
0.411024
0
LINE
8
BLACK
6
CONTINUOUS
10
0.915748
20
0.411024
11
0.915748
21
0.350591
0
LINE
8
BLACK
6
CONTINUOUS
10
0.915748
20
0.350591
11
0.921713
21
0.361763
0
LINE
8
BLACK
6
CONTINUOUS
10
0.921713
20
0.361763
11
0.929536
21
0.37323
0
LINE
8
BLACK
6
CONTINUOUS
10
0.929536
20
0.37323
11
0.938551
21
0.383786
0
LINE
8
BLACK
6
CONTINUOUS
10
0.938551
20
0.383786
11
0.948654
21
0.393306
0
LINE
8
BLACK
6
CONTINUOUS
10
0.948654
20
0.393306
11
0.959726
21
0.40168
0
LINE
8
BLACK
6
CONTINUOUS
10
0.959726
20
0.40168
11
0.971637
21
0.408808
0
LINE
8
BLACK
6
CONTINUOUS
10
0.971637
20
0.408808
11
0.976453
21
0.411024
0
LINE
8
BLACK
6
CONTINUOUS
10
0.976453
20
0.411024
11
0.915748
21
0.411024
0
LINE
8
BLACK
6
CONTINUOUS
10
1.01855
20
0.418414
11
1.00491
21
0.416204
0
LINE
8
BLACK
6
CONTINUOUS
10
1.00491
20
0.416204
11
1.00327
21
0.415748
0
LINE
8
BLACK
6
CONTINUOUS
10
1.00327
20
0.415748
11
1.06002
21
0.415748
0
LINE
8
BLACK
6
CONTINUOUS
10
1.06002
20
0.415748
11
1.05977
21
0.415821
0
LINE
8
BLACK
6
CONTINUOUS
10
1.05977
20
0.415821
11
1.04616
21
0.418221
0
LINE
8
BLACK
6
CONTINUOUS
10
1.04616
20
0.418221
11
1.03236
21
0.419089
0
LINE
8
BLACK
6
CONTINUOUS
10
1.03236
20
0.419089
11
1.01855
21
0.418414
0
LINE
8
BLACK
6
CONTINUOUS
10
0.951086
20
0.214865
11
0.950394
21
0.216535
0
LINE
8
BLACK
6
CONTINUOUS
10
0.950394
20
0.216535
11
0.950394
21
0.374016
0
LINE
8
BLACK
6
CONTINUOUS
10
0.950394
20
0.374016
11
0.951086
21
0.375686
0
LINE
8
BLACK
6
CONTINUOUS
10
0.951086
20
0.375686
11
0.952756
21
0.376378
0
LINE
8
BLACK
6
CONTINUOUS
10
0.952756
20
0.376378
11
1.11024
21
0.376378
0
LINE
8
BLACK
6
CONTINUOUS
10
1.11024
20
0.376378
11
1.11191
21
0.375686
0
LINE
8
BLACK
6
CONTINUOUS
10
1.11191
20
0.375686
11
1.1126
21
0.374016
0
LINE
8
BLACK
6
CONTINUOUS
10
1.1126
20
0.374016
11
1.1126
21
0.216535
0
LINE
8
BLACK
6
CONTINUOUS
10
1.1126
20
0.216535
11
1.11191
21
0.214865
0
LINE
8
BLACK
6
CONTINUOUS
10
1.11191
20
0.214865
11
1.11024
21
0.214173
0
LINE
8
BLACK
6
CONTINUOUS
10
1.11024
20
0.214173
11
0.952756
21
0.214173
0
LINE
8
BLACK
6
CONTINUOUS
10
0.952756
20
0.214173
11
0.951086
21
0.214865
0
LINE
8
BLACK
6
CONTINUOUS
10
0.955118
20
0.371654
11
0.955118
21
0.218898
0
LINE
8
BLACK
6
CONTINUOUS
10
0.955118
20
0.218898
11
1.10787
21
0.218898
0
LINE
8
BLACK
6
CONTINUOUS
10
1.10787
20
0.218898
11
1.10787
21
0.371654
0
LINE
8
BLACK
6
CONTINUOUS
10
1.10787
20
0.371654
11
0.955118
21
0.371654
0
LINE
8
BLACK
6
CONTINUOUS
10
1.08868
20
0.322536
11
1.08937
21
0.320866
0
LINE
8
BLACK
6
CONTINUOUS
10
1.08937
20
0.320866
11
1.08937
21
0.252362
0
LINE
8
BLACK
6
CONTINUOUS
10
1.08937
20
0.252362
11
1.08868
21
0.250692
0
LINE
8
BLACK
6
CONTINUOUS
10
1.08868
20
0.250692
11
1.08701
21
0.25
0
LINE
8
BLACK
6
CONTINUOUS
10
1.08701
20
0.25
11
1.08534
21
0.250692
0
LINE
8
BLACK
6
CONTINUOUS
10
1.08534
20
0.250692
11
1.08465
21
0.252362
0
LINE
8
BLACK
6
CONTINUOUS
10
1.08465
20
0.252362
11
1.08465
21
0.320866
0
LINE
8
BLACK
6
CONTINUOUS
10
1.08465
20
0.320866
11
1.08534
21
0.322536
0
LINE
8
BLACK
6
CONTINUOUS
10
1.08534
20
0.322536
11
1.08701
21
0.323228
0
LINE
8
BLACK
6
CONTINUOUS
10
1.08701
20
0.323228
11
1.08868
21
0.322536
0
LINE
8
BLACK
6
CONTINUOUS
10
0.977655
20
0.322536
11
0.978346
21
0.320866
0
LINE
8
BLACK
6
CONTINUOUS
10
0.978346
20
0.320866
11
0.978346
21
0.269685
0
LINE
8
BLACK
6
CONTINUOUS
10
0.978346
20
0.269685
11
0.977655
21
0.268015
0
LINE
8
BLACK
6
CONTINUOUS
10
0.977655
20
0.268015
11
0.975984
21
0.267323
0
LINE
8
BLACK
6
CONTINUOUS
10
0.975984
20
0.267323
11
0.974314
21
0.268015
0
LINE
8
BLACK
6
CONTINUOUS
10
0.974314
20
0.268015
11
0.973622
21
0.269685
0
LINE
8
BLACK
6
CONTINUOUS
10
0.973622
20
0.269685
11
0.973622
21
0.320866
0
LINE
8
BLACK
6
CONTINUOUS
10
0.973622
20
0.320866
11
0.974314
21
0.322536
0
LINE
8
BLACK
6
CONTINUOUS
10
0.974314
20
0.322536
11
0.975984
21
0.323228
0
LINE
8
BLACK
6
CONTINUOUS
10
0.975984
20
0.323228
11
0.977655
21
0.322536
  0
ENDSEC
  0
EOF
