  0
SECTION
  2
HEADER
  9
$ANGBASE
  50
0.0
  9
$ANGDIR
  70
1
  9
$MEASUREMENT
  70
0
  0
ENDSEC
  0
SECTION
  2
TABLES
  0
TABLE
  2
LTYPE
  70
4
  0
LTYPE
  5
40F
  2
CONTINUOUS
  70
0
  3
Solid line
  72
65
  73
0
  40
0.0
  0
LTYPE
  5
410
  2
DASHDOT
 70
0
  3
Dash Dot ____ _ ____ _
 72
65
 73
4
 40
2.0
 49
1.25
 49
-0.25
 49
0.25
 49
-0.25
  0
LTYPE
  5
411
  2
DASHED
 70
0
  3
Dashed __ __ __ __ __
 72
65
 73
2
 40
0.75
 49
0.5
 49
-0.25
  0
LTYPE
  5
43B
  2
DOTTED
 70
0
  3
Dotted .  .  .  .
 72
65
 73
2
 40
0.2
 49
0.0
 49
-0.2
  0
ENDTAB
  0
TABLE
  2
STYLE
  70
4
  0
STYLE
  2
KICAD
  70
0
  40
0
  41
1
  42
1
  50
0
  71
0
  3
isocp.shx
  0
STYLE
  2
KICADB
  70
0
  40
0
  41
1
  42
1
  50
0
  71
0
  3
isocp.shx
  0
STYLE
  2
KICADI
  70
0
  40
0
  41
1
  42
1
  50
15
  71
0
  3
isocp.shx
  0
STYLE
  2
KICADBI
  70
0
  40
0
  41
1
  42
1
  50
15
  71
0
  3
isocp.shx
  0
ENDTAB
  0
TABLE
  2
LAYER
  70
1
  0
LAYER
  2
BLACK
  70
0
  62
7
  6
CONTINUOUS
  0
ENDTAB
  0
ENDSEC
  0
SECTION
  2
ENTITIES
0
LINE
8
BLACK
6
CONTINUOUS
10
0.3661417322834646
20
0.1190944881889764
11
0.3700957086614173
21
0.1184682283464567
0
LINE
8
BLACK
6
CONTINUOUS
10
0.3700957086614173
20
0.1184682283464567
11
0.3736625984251968
21
0.1166508267716535
0
LINE
8
BLACK
6
CONTINUOUS
10
0.3736625984251968
20
0.1166508267716535
11
0.3764933464566929
21
0.1138200787401575
0
LINE
8
BLACK
6
CONTINUOUS
10
0.3764933464566929
20
0.1138200787401575
11
0.3783107480314961
21
0.110253188976378
0
LINE
8
BLACK
6
CONTINUOUS
10
0.3783107480314961
20
0.110253188976378
11
0.3789370078740157
21
0.1062992125984252
0
LINE
8
BLACK
6
CONTINUOUS
10
0.3789370078740157
20
0.1062992125984252
11
0.3789370078740157
21
0.0511811023622047
0
LINE
8
BLACK
6
CONTINUOUS
10
0.3789370078740157
20
0.0511811023622047
11
0.3783107480314961
21
0.047227125984252
0
LINE
8
BLACK
6
CONTINUOUS
10
0.3783107480314961
20
0.047227125984252
11
0.3764933464566929
21
0.0436602362204724
0
LINE
8
BLACK
6
CONTINUOUS
10
0.3764933464566929
20
0.0436602362204724
11
0.3736625984251968
21
0.0408294881889764
0
LINE
8
BLACK
6
CONTINUOUS
10
0.3736625984251968
20
0.0408294881889764
11
0.3700957086614173
21
0.0390120866141732
0
LINE
8
BLACK
6
CONTINUOUS
10
0.3700957086614173
20
0.0390120866141732
11
0.3661417322834646
21
0.0383858267716535
0
LINE
8
BLACK
6
CONTINUOUS
10
0.3661417322834646
20
0.0383858267716535
11
0.3031496062992126
21
0.0383858267716535
0
LINE
8
BLACK
6
CONTINUOUS
10
0.3031496062992126
20
0.0383858267716535
11
0.2991956299212598
21
0.0390120866141732
0
LINE
8
BLACK
6
CONTINUOUS
10
0.2991956299212598
20
0.0390120866141732
11
0.2956287401574803
21
0.0408294881889764
0
LINE
8
BLACK
6
CONTINUOUS
10
0.2956287401574803
20
0.0408294881889764
11
0.2927979921259842
21
0.0436602362204724
0
LINE
8
BLACK
6
CONTINUOUS
10
0.2927979921259842
20
0.0436602362204724
11
0.2909805905511811
21
0.047227125984252
0
LINE
8
BLACK
6
CONTINUOUS
10
0.2909805905511811
20
0.047227125984252
11
0.2903543307086614
21
0.0511811023622047
0
LINE
8
BLACK
6
CONTINUOUS
10
0.2903543307086614
20
0.0511811023622047
11
0.2903543307086614
21
0.1062992125984252
0
LINE
8
BLACK
6
CONTINUOUS
10
0.2903543307086614
20
0.1062992125984252
11
0.2909805905511811
21
0.110253188976378
0
LINE
8
BLACK
6
CONTINUOUS
10
0.2909805905511811
20
0.110253188976378
11
0.2927979921259842
21
0.1138200787401575
0
LINE
8
BLACK
6
CONTINUOUS
10
0.2927979921259842
20
0.1138200787401575
11
0.2956287401574803
21
0.1166508267716535
0
LINE
8
BLACK
6
CONTINUOUS
10
0.2956287401574803
20
0.1166508267716535
11
0.2991956299212598
21
0.1184682283464567
0
LINE
8
BLACK
6
CONTINUOUS
10
0.2991956299212598
20
0.1184682283464567
11
0.3031496062992126
21
0.1190944881889764
0
LINE
8
BLACK
6
CONTINUOUS
10
0.3031496062992126
20
0.1190944881889764
11
0.3661417322834646
21
0.1190944881889764
0
LINE
8
BLACK
6
CONTINUOUS
10
0.3031496062992126
20
0.1171259842519685
11
0.3014348031496063
21
0.1171259842519685
0
LINE
8
BLACK
6
CONTINUOUS
10
0.3014348031496063
20
0.1171259842519685
11
0.2981730708661417
21
0.1160661811023622
0
LINE
8
BLACK
6
CONTINUOUS
10
0.2981730708661417
20
0.1160661811023622
11
0.2953985039370079
21
0.1140503149606299
0
LINE
8
BLACK
6
CONTINUOUS
10
0.2953985039370079
20
0.1140503149606299
11
0.2933826377952756
21
0.1112757480314961
0
LINE
8
BLACK
6
CONTINUOUS
10
0.2933826377952756
20
0.1112757480314961
11
0.2923228346456693
21
0.1080140157480315
0
LINE
8
BLACK
6
CONTINUOUS
10
0.2923228346456693
20
0.1080140157480315
11
0.2923228346456693
21
0.1062992125984252
0
LINE
8
BLACK
6
CONTINUOUS
10
0.2923228346456693
20
0.1062992125984252
11
0.2923228346456693
21
0.0511811023622047
0
LINE
8
BLACK
6
CONTINUOUS
10
0.2923228346456693
20
0.0511811023622047
11
0.2923228346456693
21
0.0494662992125984
0
LINE
8
BLACK
6
CONTINUOUS
10
0.2923228346456693
20
0.0494662992125984
11
0.2933826377952756
21
0.0462045669291339
0
LINE
8
BLACK
6
CONTINUOUS
10
0.2933826377952756
20
0.0462045669291339
11
0.2953985039370079
21
0.04343
0
LINE
8
BLACK
6
CONTINUOUS
10
0.2953985039370079
20
0.04343
11
0.2981730708661417
21
0.0414141338582677
0
LINE
8
BLACK
6
CONTINUOUS
10
0.2981730708661417
20
0.0414141338582677
11
0.3014348031496063
21
0.0403543307086614
0
LINE
8
BLACK
6
CONTINUOUS
10
0.3014348031496063
20
0.0403543307086614
11
0.3031496062992126
21
0.0403543307086614
0
LINE
8
BLACK
6
CONTINUOUS
10
0.3031496062992126
20
0.0403543307086614
11
0.3661417322834646
21
0.0403543307086614
0
LINE
8
BLACK
6
CONTINUOUS
10
0.3661417322834646
20
0.0403543307086614
11
0.3678565354330708
21
0.0403543307086614
0
LINE
8
BLACK
6
CONTINUOUS
10
0.3678565354330708
20
0.0403543307086614
11
0.3711182677165354
21
0.0414141338582677
0
LINE
8
BLACK
6
CONTINUOUS
10
0.3711182677165354
20
0.0414141338582677
11
0.3738928346456693
21
0.04343
0
LINE
8
BLACK
6
CONTINUOUS
10
0.3738928346456693
20
0.04343
11
0.3759087007874016
21
0.0462045669291339
0
LINE
8
BLACK
6
CONTINUOUS
10
0.3759087007874016
20
0.0462045669291339
11
0.3769685039370079
21
0.0494662992125984
0
LINE
8
BLACK
6
CONTINUOUS
10
0.3769685039370079
20
0.0494662992125984
11
0.3769685039370079
21
0.0511811023622047
0
LINE
8
BLACK
6
CONTINUOUS
10
0.3769685039370079
20
0.0511811023622047
11
0.3769685039370079
21
0.1062992125984252
0
LINE
8
BLACK
6
CONTINUOUS
10
0.3769685039370079
20
0.1062992125984252
11
0.3769685039370079
21
0.1080140157480315
0
LINE
8
BLACK
6
CONTINUOUS
10
0.3769685039370079
20
0.1080140157480315
11
0.3759087007874016
21
0.1112757480314961
0
LINE
8
BLACK
6
CONTINUOUS
10
0.3759087007874016
20
0.1112757480314961
11
0.3738928346456693
21
0.1140503149606299
0
LINE
8
BLACK
6
CONTINUOUS
10
0.3738928346456693
20
0.1140503149606299
11
0.3711182677165354
21
0.1160661811023622
0
LINE
8
BLACK
6
CONTINUOUS
10
0.3711182677165354
20
0.1160661811023622
11
0.3678565354330708
21
0.1171259842519685
0
LINE
8
BLACK
6
CONTINUOUS
10
0.3678565354330708
20
0.1171259842519685
11
0.3661417322834646
21
0.1171259842519685
0
LINE
8
BLACK
6
CONTINUOUS
10
0.3661417322834646
20
0.1171259842519685
11
0.3031496062992126
21
0.1171259842519685
0
LINE
8
BLACK
6
CONTINUOUS
10
0.3661417322834646
20
0.5521653543307087
11
0.3700957086614173
21
0.5515390944881889
0
LINE
8
BLACK
6
CONTINUOUS
10
0.3700957086614173
20
0.5515390944881889
11
0.3736625984251968
21
0.5497216929133858
0
LINE
8
BLACK
6
CONTINUOUS
10
0.3736625984251968
20
0.5497216929133858
11
0.3764933464566929
21
0.5468909448818897
0
LINE
8
BLACK
6
CONTINUOUS
10
0.3764933464566929
20
0.5468909448818897
11
0.3783107480314961
21
0.5433240551181102
0
LINE
8
BLACK
6
CONTINUOUS
10
0.3783107480314961
20
0.5433240551181102
11
0.3789370078740157
21
0.5393700787401575
0
LINE
8
BLACK
6
CONTINUOUS
10
0.3789370078740157
20
0.5393700787401575
11
0.3789370078740157
21
0.484251968503937
0
LINE
8
BLACK
6
CONTINUOUS
10
0.3789370078740157
20
0.484251968503937
11
0.3783107480314961
21
0.4802979921259842
0
LINE
8
BLACK
6
CONTINUOUS
10
0.3783107480314961
20
0.4802979921259842
11
0.3764933464566929
21
0.4767311023622047
0
LINE
8
BLACK
6
CONTINUOUS
10
0.3764933464566929
20
0.4767311023622047
11
0.3736625984251968
21
0.4739003543307087
0
LINE
8
BLACK
6
CONTINUOUS
10
0.3736625984251968
20
0.4739003543307087
11
0.3700957086614173
21
0.4720829527559055
0
LINE
8
BLACK
6
CONTINUOUS
10
0.3700957086614173
20
0.4720829527559055
11
0.3661417322834646
21
0.4714566929133858
0
LINE
8
BLACK
6
CONTINUOUS
10
0.3661417322834646
20
0.4714566929133858
11
0.3031496062992126
21
0.4714566929133858
0
LINE
8
BLACK
6
CONTINUOUS
10
0.3031496062992126
20
0.4714566929133858
11
0.2991956299212598
21
0.4720829527559055
0
LINE
8
BLACK
6
CONTINUOUS
10
0.2991956299212598
20
0.4720829527559055
11
0.2956287401574803
21
0.4739003543307087
0
LINE
8
BLACK
6
CONTINUOUS
10
0.2956287401574803
20
0.4739003543307087
11
0.2927979921259842
21
0.4767311023622047
0
LINE
8
BLACK
6
CONTINUOUS
10
0.2927979921259842
20
0.4767311023622047
11
0.2909805905511811
21
0.4802979921259842
0
LINE
8
BLACK
6
CONTINUOUS
10
0.2909805905511811
20
0.4802979921259842
11
0.2903543307086614
21
0.484251968503937
0
LINE
8
BLACK
6
CONTINUOUS
10
0.2903543307086614
20
0.484251968503937
11
0.2903543307086614
21
0.5393700787401575
0
LINE
8
BLACK
6
CONTINUOUS
10
0.2903543307086614
20
0.5393700787401575
11
0.2909805905511811
21
0.5433240551181102
0
LINE
8
BLACK
6
CONTINUOUS
10
0.2909805905511811
20
0.5433240551181102
11
0.2927979921259842
21
0.5468909448818897
0
LINE
8
BLACK
6
CONTINUOUS
10
0.2927979921259842
20
0.5468909448818897
11
0.2956287401574803
21
0.5497216929133858
0
LINE
8
BLACK
6
CONTINUOUS
10
0.2956287401574803
20
0.5497216929133858
11
0.2991956299212598
21
0.5515390944881889
0
LINE
8
BLACK
6
CONTINUOUS
10
0.2991956299212598
20
0.5515390944881889
11
0.3031496062992126
21
0.5521653543307087
0
LINE
8
BLACK
6
CONTINUOUS
10
0.3031496062992126
20
0.5521653543307087
11
0.3661417322834646
21
0.5521653543307087
0
LINE
8
BLACK
6
CONTINUOUS
10
0.3031496062992126
20
0.5501968503937008
11
0.3014348031496063
21
0.5501968503937008
0
LINE
8
BLACK
6
CONTINUOUS
10
0.3014348031496063
20
0.5501968503937008
11
0.2981730708661417
21
0.5491370472440945
0
LINE
8
BLACK
6
CONTINUOUS
10
0.2981730708661417
20
0.5491370472440945
11
0.2953985039370079
21
0.5471211811023622
0
LINE
8
BLACK
6
CONTINUOUS
10
0.2953985039370079
20
0.5471211811023622
11
0.2933826377952756
21
0.5443466141732284
0
LINE
8
BLACK
6
CONTINUOUS
10
0.2933826377952756
20
0.5443466141732284
11
0.2923228346456693
21
0.5410848818897638
0
LINE
8
BLACK
6
CONTINUOUS
10
0.2923228346456693
20
0.5410848818897638
11
0.2923228346456693
21
0.5393700787401575
0
LINE
8
BLACK
6
CONTINUOUS
10
0.2923228346456693
20
0.5393700787401575
11
0.2923228346456693
21
0.484251968503937
0
LINE
8
BLACK
6
CONTINUOUS
10
0.2923228346456693
20
0.484251968503937
11
0.2923228346456693
21
0.4825371653543307
0
LINE
8
BLACK
6
CONTINUOUS
10
0.2923228346456693
20
0.4825371653543307
11
0.2933826377952756
21
0.4792754330708661
0
LINE
8
BLACK
6
CONTINUOUS
10
0.2933826377952756
20
0.4792754330708661
11
0.2953985039370079
21
0.4765008661417323
0
LINE
8
BLACK
6
CONTINUOUS
10
0.2953985039370079
20
0.4765008661417323
11
0.2981730708661417
21
0.474485
0
LINE
8
BLACK
6
CONTINUOUS
10
0.2981730708661417
20
0.474485
11
0.3014348031496063
21
0.4734251968503937
0
LINE
8
BLACK
6
CONTINUOUS
10
0.3014348031496063
20
0.4734251968503937
11
0.3031496062992126
21
0.4734251968503937
0
LINE
8
BLACK
6
CONTINUOUS
10
0.3031496062992126
20
0.4734251968503937
11
0.3661417322834646
21
0.4734251968503937
0
LINE
8
BLACK
6
CONTINUOUS
10
0.3661417322834646
20
0.4734251968503937
11
0.3678565354330708
21
0.4734251968503937
0
LINE
8
BLACK
6
CONTINUOUS
10
0.3678565354330708
20
0.4734251968503937
11
0.3711182677165354
21
0.474485
0
LINE
8
BLACK
6
CONTINUOUS
10
0.3711182677165354
20
0.474485
11
0.3738928346456693
21
0.4765008661417323
0
LINE
8
BLACK
6
CONTINUOUS
10
0.3738928346456693
20
0.4765008661417323
11
0.3759087007874016
21
0.4792754330708661
0
LINE
8
BLACK
6
CONTINUOUS
10
0.3759087007874016
20
0.4792754330708661
11
0.3769685039370079
21
0.4825371653543307
0
LINE
8
BLACK
6
CONTINUOUS
10
0.3769685039370079
20
0.4825371653543307
11
0.3769685039370079
21
0.484251968503937
0
LINE
8
BLACK
6
CONTINUOUS
10
0.3769685039370079
20
0.484251968503937
11
0.3769685039370079
21
0.5393700787401575
0
LINE
8
BLACK
6
CONTINUOUS
10
0.3769685039370079
20
0.5393700787401575
11
0.3769685039370079
21
0.5410848818897638
0
LINE
8
BLACK
6
CONTINUOUS
10
0.3769685039370079
20
0.5410848818897638
11
0.3759087007874016
21
0.5443466141732284
0
LINE
8
BLACK
6
CONTINUOUS
10
0.3759087007874016
20
0.5443466141732284
11
0.3738928346456693
21
0.5471211811023622
0
LINE
8
BLACK
6
CONTINUOUS
10
0.3738928346456693
20
0.5471211811023622
11
0.3711182677165354
21
0.5491370472440945
0
LINE
8
BLACK
6
CONTINUOUS
10
0.3711182677165354
20
0.5491370472440945
11
0.3678565354330708
21
0.5501968503937008
0
LINE
8
BLACK
6
CONTINUOUS
10
0.3678565354330708
20
0.5501968503937008
11
0.3661417322834646
21
0.5501968503937008
0
LINE
8
BLACK
6
CONTINUOUS
10
0.3661417322834646
20
0.5501968503937008
11
0.3031496062992126
21
0.5501968503937008
0
LINE
8
BLACK
6
CONTINUOUS
10
1.1816784251968504
20
0.5934472047244095
11
1.1827428346456692
21
0.5930062992125984
0
LINE
8
BLACK
6
CONTINUOUS
10
1.1827428346456692
20
0.5930062992125984
11
1.1835574803149607
21
0.5921916535433071
0
LINE
8
BLACK
6
CONTINUOUS
10
1.1835574803149607
20
0.5921916535433071
11
1.1839983858267715
21
0.5911272440944881
0
LINE
8
BLACK
6
CONTINUOUS
10
1.1839983858267715
20
0.5911272440944881
11
1.1840551181102361
21
0.5905511811023622
0
LINE
8
BLACK
6
CONTINUOUS
10
1.1840551181102361
20
0.5905511811023622
11
1.1840551181102361
21
0.
0
LINE
8
BLACK
6
CONTINUOUS
10
1.1840551181102361
20
0.
11
1.1839983858267715
21
-0.000576062992126
0
LINE
8
BLACK
6
CONTINUOUS
10
1.1839983858267715
20
-0.000576062992126
11
1.1835574803149607
21
-0.0016404724409449
0
LINE
8
BLACK
6
CONTINUOUS
10
1.1835574803149607
20
-0.0016404724409449
11
1.1827428346456692
21
-0.0024551181102362
0
LINE
8
BLACK
6
CONTINUOUS
10
1.1827428346456692
20
-0.0024551181102362
11
1.1816784251968504
21
-0.0028960236220472
0
LINE
8
BLACK
6
CONTINUOUS
10
1.1816784251968504
20
-0.0028960236220472
11
1.1811023622047243
21
-0.0029527559055118
0
LINE
8
BLACK
6
CONTINUOUS
10
1.1811023622047243
20
-0.0029527559055118
11
0.
21
-0.0029527559055118
0
LINE
8
BLACK
6
CONTINUOUS
10
0.
20
-0.0029527559055118
11
-0.000576062992126
21
-0.0028960236220472
0
LINE
8
BLACK
6
CONTINUOUS
10
-0.000576062992126
20
-0.0028960236220472
11
-0.0016404724409449
21
-0.0024551181102362
0
LINE
8
BLACK
6
CONTINUOUS
10
-0.0016404724409449
20
-0.0024551181102362
11
-0.0024551181102362
21
-0.0016404724409449
0
LINE
8
BLACK
6
CONTINUOUS
10
-0.0024551181102362
20
-0.0016404724409449
11
-0.0028960236220472
21
-0.000576062992126
0
LINE
8
BLACK
6
CONTINUOUS
10
-0.0028960236220472
20
-0.000576062992126
11
-0.0029527559055118
21
0.
0
LINE
8
BLACK
6
CONTINUOUS
10
-0.0029527559055118
20
0.
11
-0.0029527559055118
21
0.5905511811023622
0
LINE
8
BLACK
6
CONTINUOUS
10
-0.0029527559055118
20
0.5905511811023622
11
-0.0028960236220472
21
0.5911272440944881
0
LINE
8
BLACK
6
CONTINUOUS
10
-0.0028960236220472
20
0.5911272440944881
11
-0.0024551181102362
21
0.5921916535433071
0
LINE
8
BLACK
6
CONTINUOUS
10
-0.0024551181102362
20
0.5921916535433071
11
-0.0016404724409449
21
0.5930062992125984
0
LINE
8
BLACK
6
CONTINUOUS
10
-0.0016404724409449
20
0.5930062992125984
11
-0.000576062992126
21
0.5934472047244095
0
LINE
8
BLACK
6
CONTINUOUS
10
-0.000576062992126
20
0.5934472047244095
11
0.
21
0.593503937007874
0
LINE
8
BLACK
6
CONTINUOUS
10
0.
20
0.593503937007874
11
1.1811023622047243
21
0.593503937007874
0
LINE
8
BLACK
6
CONTINUOUS
10
1.1811023622047243
20
0.593503937007874
11
1.1816784251968504
21
0.5934472047244095
0
LINE
8
BLACK
6
CONTINUOUS
10
0.0029527559055118
20
0.5875984251968503
11
0.0029527559055118
21
0.0029527559055118
0
LINE
8
BLACK
6
CONTINUOUS
10
0.0029527559055118
20
0.0029527559055118
11
1.1781496062992125
21
0.0029527559055118
0
LINE
8
BLACK
6
CONTINUOUS
10
1.1781496062992125
20
0.0029527559055118
11
1.1781496062992125
21
0.5875984251968503
0
LINE
8
BLACK
6
CONTINUOUS
10
1.1781496062992125
20
0.5875984251968503
11
0.0029527559055118
21
0.5875984251968503
0
CIRCLE
8
BLACK
10
0.945
20
0.517
40
0.0068897637795276
0
CIRCLE
8
BLACK
10
0.4921259842519685
20
0.5905511811023622
40
0.0068897637795276
0
CIRCLE
8
BLACK
10
0.8533464566929133
20
0.344488188976378
40
0.0068897637795276
0
CIRCLE
8
BLACK
10
0.4921259842519685
20
0.
40
0.0068897637795276
0
CIRCLE
8
BLACK
10
0.8533464566929133
20
0.2460629921259843
40
0.0068897637795276
0
CIRCLE
8
BLACK
10
0.945
20
0.0735511811023622
40
0.0068897637795276
0
CIRCLE
8
BLACK
10
0.8533464566929133
20
0.4232283464566929
40
0.0068897637795276
0
CIRCLE
8
BLACK
10
0.0984251968503937
20
0.5905511811023622
40
0.0068897637795276
0
CIRCLE
8
BLACK
10
0.8858267716535433
20
0.
40
0.0068897637795276
0
CIRCLE
8
BLACK
10
0.8986220472440944
20
0.4735511811023622
40
0.0068897637795276
0
CIRCLE
8
BLACK
10
0.8858267716535433
20
0.5905511811023622
40
0.0068897637795276
0
CIRCLE
8
BLACK
10
0.0984251968503937
20
0.
40
0.0068897637795276
0
CIRCLE
8
BLACK
10
0.898
20
0.117
40
0.0068897637795276
0
CIRCLE
8
BLACK
10
0.8533464566929133
20
0.1673228346456693
40
0.0068897637795276
0
CIRCLE
8
BLACK
10
1.1318897637795275
20
0.1948818897637795
40
0.0068897637795276
0
CIRCLE
8
BLACK
10
1.1318897637795275
20
0.3956692913385826
40
0.0068897637795276
0
CIRCLE
8
BLACK
10
0.9311023622047244
20
0.1948818897637795
40
0.0068897637795276
0
CIRCLE
8
BLACK
10
0.9311023622047244
20
0.3956692913385826
40
0.0068897637795276
  0
ENDSEC
  0
EOF
