<?xml version='1.0' encoding='ASCII' standalone='yes'?>
<svg xmlns:svg="http://www.w3.org/2000/svg" xmlns="http://www.w3.org/2000/svg" xmlns:xlink="http://www.w3.org/1999/xlink" version="1.1" width="297.0022mm" height="210.0072mm" viewBox="0.0000 0.0000 297.0022 210.0072">
<title>SVG Image created as TFHT01-F_Fab.svg date 2023/09/24 12:08:32 </title>
  <desc>Image generated by PCBNEW </desc>
<g style="fill:#848484; fill-opacity:1.0000;stroke:#848484; stroke-opacity:1.0000; stroke-linecap:round; stroke-linejoin:round;" transform="translate(0 0) scale(1 1)">
</g>
<g style="fill:#848484; fill-opacity:0.0;  stroke:#848484; stroke-width:0.0000; stroke-opacity:1;  stroke-linecap:round; stroke-linejoin:round;">
</g>
<g style="fill:#848484; fill-opacity:0.01;  stroke:#848484; stroke-width:1.4776; stroke-opacity:1;  stroke-linecap:round; stroke-linejoin:round;">
<g transform="rotate(-90.000000 30.2646 105.0036)">
<text x="30.2646" y="109.9290" textLength="19.3497" font-size="13.1343" lengthAdjust="spacingAndGlyphs" text-anchor="middle" opacity="0.01" style="font-family:monospace">J2</text>
</g>
<g class="stroked-text"><desc>J2</desc>
<path d="M24.8941 108.2872 L31.9304 108.2872 "/>
<path d="M31.9304 108.2872 L33.3376 108.7563 "/>
<path d="M33.3376 108.7563 L34.2758 109.6944 "/>
<path d="M34.2758 109.6944 L34.7449 111.1017 "/>
<path d="M34.7449 111.1017 L34.7449 112.0398 "/>
<path d="M25.8323 104.0654 L25.3632 103.5963 "/>
<path d="M25.3632 103.5963 L24.8941 102.6582 "/>
<path d="M24.8941 102.6582 L24.8941 100.3128 "/>
<path d="M24.8941 100.3128 L25.3632 99.3746 "/>
<path d="M25.3632 99.3746 L25.8323 98.9055 "/>
<path d="M25.8323 98.9055 L26.7705 98.4364 "/>
<path d="M26.7705 98.4364 L27.7086 98.4364 "/>
<path d="M27.7086 98.4364 L29.1159 98.9055 "/>
<path d="M29.1159 98.9055 L34.7449 104.5345 "/>
<path d="M34.7449 104.5345 L34.7449 98.4364 "/>
</g><text x="214.1681" y="124.7721" textLength="115.9808" font-size="13.1343" lengthAdjust="spacingAndGlyphs" text-anchor="middle" opacity="0.01" style="font-family:monospace">Heat insulation</text>
<g class="stroked-text"><desc>Heat insulation</desc>
<path d="M159.7545 124.3270 L159.7545 114.4763 "/>
<path d="M159.7545 119.1671 L165.3835 119.1671 "/>
<path d="M165.3835 124.3270 L165.3835 114.4763 "/>
<path d="M173.8270 123.8579 L172.8888 124.3270 "/>
<path d="M172.8888 124.3270 L171.0125 124.3270 "/>
<path d="M171.0125 124.3270 L170.0743 123.8579 "/>
<path d="M170.0743 123.8579 L169.6052 122.9197 "/>
<path d="M169.6052 122.9197 L169.6052 119.1671 "/>
<path d="M169.6052 119.1671 L170.0743 118.2289 "/>
<path d="M170.0743 118.2289 L171.0125 117.7598 "/>
<path d="M171.0125 117.7598 L172.8888 117.7598 "/>
<path d="M172.8888 117.7598 L173.8270 118.2289 "/>
<path d="M173.8270 118.2289 L174.2961 119.1671 "/>
<path d="M174.2961 119.1671 L174.2961 120.1053 "/>
<path d="M174.2961 120.1053 L169.6052 121.0434 "/>
<path d="M182.7396 124.3270 L182.7396 119.1671 "/>
<path d="M182.7396 119.1671 L182.2705 118.2289 "/>
<path d="M182.2705 118.2289 L181.3323 117.7598 "/>
<path d="M181.3323 117.7598 L179.4560 117.7598 "/>
<path d="M179.4560 117.7598 L178.5178 118.2289 "/>
<path d="M182.7396 123.8579 L181.8014 124.3270 "/>
<path d="M181.8014 124.3270 L179.4560 124.3270 "/>
<path d="M179.4560 124.3270 L178.5178 123.8579 "/>
<path d="M178.5178 123.8579 L178.0487 122.9197 "/>
<path d="M178.0487 122.9197 L178.0487 121.9816 "/>
<path d="M178.0487 121.9816 L178.5178 121.0434 "/>
<path d="M178.5178 121.0434 L179.4560 120.5743 "/>
<path d="M179.4560 120.5743 L181.8014 120.5743 "/>
<path d="M181.8014 120.5743 L182.7396 120.1053 "/>
<path d="M186.0232 117.7598 L189.7758 117.7598 "/>
<path d="M187.4304 114.4763 L187.4304 122.9197 "/>
<path d="M187.4304 122.9197 L187.8995 123.8579 "/>
<path d="M187.8995 123.8579 L188.8377 124.3270 "/>
<path d="M188.8377 124.3270 L189.7758 124.3270 "/>
<path d="M200.5647 124.3270 L200.5647 117.7598 "/>
<path d="M200.5647 114.4763 L200.0957 114.9453 "/>
<path d="M200.0957 114.9453 L200.5647 115.4144 "/>
<path d="M200.5647 115.4144 L201.0338 114.9453 "/>
<path d="M201.0338 114.9453 L200.5647 114.4763 "/>
<path d="M200.5647 114.4763 L200.5647 115.4144 "/>
<path d="M205.2556 117.7598 L205.2556 124.3270 "/>
<path d="M205.2556 118.6980 L205.7246 118.2289 "/>
<path d="M205.7246 118.2289 L206.6628 117.7598 "/>
<path d="M206.6628 117.7598 L208.0701 117.7598 "/>
<path d="M208.0701 117.7598 L209.0082 118.2289 "/>
<path d="M209.0082 118.2289 L209.4773 119.1671 "/>
<path d="M209.4773 119.1671 L209.4773 124.3270 "/>
<path d="M213.6991 123.8579 L214.6372 124.3270 "/>
<path d="M214.6372 124.3270 L216.5136 124.3270 "/>
<path d="M216.5136 124.3270 L217.4517 123.8579 "/>
<path d="M217.4517 123.8579 L217.9208 122.9197 "/>
<path d="M217.9208 122.9197 L217.9208 122.4507 "/>
<path d="M217.9208 122.4507 L217.4517 121.5125 "/>
<path d="M217.4517 121.5125 L216.5136 121.0434 "/>
<path d="M216.5136 121.0434 L215.1063 121.0434 "/>
<path d="M215.1063 121.0434 L214.1681 120.5743 "/>
<path d="M214.1681 120.5743 L213.6991 119.6362 "/>
<path d="M213.6991 119.6362 L213.6991 119.1671 "/>
<path d="M213.6991 119.1671 L214.1681 118.2289 "/>
<path d="M214.1681 118.2289 L215.1063 117.7598 "/>
<path d="M215.1063 117.7598 L216.5136 117.7598 "/>
<path d="M216.5136 117.7598 L217.4517 118.2289 "/>
<path d="M226.3643 117.7598 L226.3643 124.3270 "/>
<path d="M222.1426 117.7598 L222.1426 122.9197 "/>
<path d="M222.1426 122.9197 L222.6116 123.8579 "/>
<path d="M222.6116 123.8579 L223.5498 124.3270 "/>
<path d="M223.5498 124.3270 L224.9571 124.3270 "/>
<path d="M224.9571 124.3270 L225.8952 123.8579 "/>
<path d="M225.8952 123.8579 L226.3643 123.3888 "/>
<path d="M232.4624 124.3270 L231.5242 123.8579 "/>
<path d="M231.5242 123.8579 L231.0551 122.9197 "/>
<path d="M231.0551 122.9197 L231.0551 114.4763 "/>
<path d="M240.4368 124.3270 L240.4368 119.1671 "/>
<path d="M240.4368 119.1671 L239.9677 118.2289 "/>
<path d="M239.9677 118.2289 L239.0296 117.7598 "/>
<path d="M239.0296 117.7598 L237.1532 117.7598 "/>
<path d="M237.1532 117.7598 L236.2151 118.2289 "/>
<path d="M240.4368 123.8579 L239.4986 124.3270 "/>
<path d="M239.4986 124.3270 L237.1532 124.3270 "/>
<path d="M237.1532 124.3270 L236.2151 123.8579 "/>
<path d="M236.2151 123.8579 L235.7460 122.9197 "/>
<path d="M235.7460 122.9197 L235.7460 121.9816 "/>
<path d="M235.7460 121.9816 L236.2151 121.0434 "/>
<path d="M236.2151 121.0434 L237.1532 120.5743 "/>
<path d="M237.1532 120.5743 L239.4986 120.5743 "/>
<path d="M239.4986 120.5743 L240.4368 120.1053 "/>
<path d="M243.7204 117.7598 L247.4731 117.7598 "/>
<path d="M245.1276 114.4763 L245.1276 122.9197 "/>
<path d="M245.1276 122.9197 L245.5967 123.8579 "/>
<path d="M245.5967 123.8579 L246.5349 124.3270 "/>
<path d="M246.5349 124.3270 L247.4731 124.3270 "/>
<path d="M250.7566 124.3270 L250.7566 117.7598 "/>
<path d="M250.7566 114.4763 L250.2876 114.9453 "/>
<path d="M250.2876 114.9453 L250.7566 115.4144 "/>
<path d="M250.7566 115.4144 L251.2257 114.9453 "/>
<path d="M251.2257 114.9453 L250.7566 114.4763 "/>
<path d="M250.7566 114.4763 L250.7566 115.4144 "/>
<path d="M256.8547 124.3270 L255.9166 123.8579 "/>
<path d="M255.9166 123.8579 L255.4475 123.3888 "/>
<path d="M255.4475 123.3888 L254.9784 122.4507 "/>
<path d="M254.9784 122.4507 L254.9784 119.6362 "/>
<path d="M254.9784 119.6362 L255.4475 118.6980 "/>
<path d="M255.4475 118.6980 L255.9166 118.2289 "/>
<path d="M255.9166 118.2289 L256.8547 117.7598 "/>
<path d="M256.8547 117.7598 L258.2620 117.7598 "/>
<path d="M258.2620 117.7598 L259.2001 118.2289 "/>
<path d="M259.2001 118.2289 L259.6692 118.6980 "/>
<path d="M259.6692 118.6980 L260.1383 119.6362 "/>
<path d="M260.1383 119.6362 L260.1383 122.4507 "/>
<path d="M260.1383 122.4507 L259.6692 123.3888 "/>
<path d="M259.6692 123.3888 L259.2001 123.8579 "/>
<path d="M259.2001 123.8579 L258.2620 124.3270 "/>
<path d="M258.2620 124.3270 L256.8547 124.3270 "/>
<path d="M264.3601 117.7598 L264.3601 124.3270 "/>
<path d="M264.3601 118.6980 L264.8291 118.2289 "/>
<path d="M264.8291 118.2289 L265.7673 117.7598 "/>
<path d="M265.7673 117.7598 L267.1746 117.7598 "/>
<path d="M267.1746 117.7598 L268.1127 118.2289 "/>
<path d="M268.1127 118.2289 L268.5818 119.1671 "/>
<path d="M268.5818 119.1671 L268.5818 124.3270 "/>
</g><text x="214.1681" y="165.3059" textLength="115.9808" font-size="13.1343" lengthAdjust="spacingAndGlyphs" text-anchor="middle" opacity="0.01" style="font-family:monospace">Heat insulation</text>
<g class="stroked-text"><desc>Heat insulation</desc>
<path d="M159.7545 164.8609 L159.7545 155.0101 "/>
<path d="M159.7545 159.7009 L165.3835 159.7009 "/>
<path d="M165.3835 164.8609 L165.3835 155.0101 "/>
<path d="M173.8270 164.3918 L172.8888 164.8609 "/>
<path d="M172.8888 164.8609 L171.0125 164.8609 "/>
<path d="M171.0125 164.8609 L170.0743 164.3918 "/>
<path d="M170.0743 164.3918 L169.6052 163.4536 "/>
<path d="M169.6052 163.4536 L169.6052 159.7009 "/>
<path d="M169.6052 159.7009 L170.0743 158.7628 "/>
<path d="M170.0743 158.7628 L171.0125 158.2937 "/>
<path d="M171.0125 158.2937 L172.8888 158.2937 "/>
<path d="M172.8888 158.2937 L173.8270 158.7628 "/>
<path d="M173.8270 158.7628 L174.2961 159.7009 "/>
<path d="M174.2961 159.7009 L174.2961 160.6391 "/>
<path d="M174.2961 160.6391 L169.6052 161.5773 "/>
<path d="M182.7396 164.8609 L182.7396 159.7009 "/>
<path d="M182.7396 159.7009 L182.2705 158.7628 "/>
<path d="M182.2705 158.7628 L181.3323 158.2937 "/>
<path d="M181.3323 158.2937 L179.4560 158.2937 "/>
<path d="M179.4560 158.2937 L178.5178 158.7628 "/>
<path d="M182.7396 164.3918 L181.8014 164.8609 "/>
<path d="M181.8014 164.8609 L179.4560 164.8609 "/>
<path d="M179.4560 164.8609 L178.5178 164.3918 "/>
<path d="M178.5178 164.3918 L178.0487 163.4536 "/>
<path d="M178.0487 163.4536 L178.0487 162.5154 "/>
<path d="M178.0487 162.5154 L178.5178 161.5773 "/>
<path d="M178.5178 161.5773 L179.4560 161.1082 "/>
<path d="M179.4560 161.1082 L181.8014 161.1082 "/>
<path d="M181.8014 161.1082 L182.7396 160.6391 "/>
<path d="M186.0232 158.2937 L189.7758 158.2937 "/>
<path d="M187.4304 155.0101 L187.4304 163.4536 "/>
<path d="M187.4304 163.4536 L187.8995 164.3918 "/>
<path d="M187.8995 164.3918 L188.8377 164.8609 "/>
<path d="M188.8377 164.8609 L189.7758 164.8609 "/>
<path d="M200.5647 164.8609 L200.5647 158.2937 "/>
<path d="M200.5647 155.0101 L200.0957 155.4792 "/>
<path d="M200.0957 155.4792 L200.5647 155.9483 "/>
<path d="M200.5647 155.9483 L201.0338 155.4792 "/>
<path d="M201.0338 155.4792 L200.5647 155.0101 "/>
<path d="M200.5647 155.0101 L200.5647 155.9483 "/>
<path d="M205.2556 158.2937 L205.2556 164.8609 "/>
<path d="M205.2556 159.2319 L205.7246 158.7628 "/>
<path d="M205.7246 158.7628 L206.6628 158.2937 "/>
<path d="M206.6628 158.2937 L208.0701 158.2937 "/>
<path d="M208.0701 158.2937 L209.0082 158.7628 "/>
<path d="M209.0082 158.7628 L209.4773 159.7009 "/>
<path d="M209.4773 159.7009 L209.4773 164.8609 "/>
<path d="M213.6991 164.3918 L214.6372 164.8609 "/>
<path d="M214.6372 164.8609 L216.5136 164.8609 "/>
<path d="M216.5136 164.8609 L217.4517 164.3918 "/>
<path d="M217.4517 164.3918 L217.9208 163.4536 "/>
<path d="M217.9208 163.4536 L217.9208 162.9845 "/>
<path d="M217.9208 162.9845 L217.4517 162.0464 "/>
<path d="M217.4517 162.0464 L216.5136 161.5773 "/>
<path d="M216.5136 161.5773 L215.1063 161.5773 "/>
<path d="M215.1063 161.5773 L214.1681 161.1082 "/>
<path d="M214.1681 161.1082 L213.6991 160.1700 "/>
<path d="M213.6991 160.1700 L213.6991 159.7009 "/>
<path d="M213.6991 159.7009 L214.1681 158.7628 "/>
<path d="M214.1681 158.7628 L215.1063 158.2937 "/>
<path d="M215.1063 158.2937 L216.5136 158.2937 "/>
<path d="M216.5136 158.2937 L217.4517 158.7628 "/>
<path d="M226.3643 158.2937 L226.3643 164.8609 "/>
<path d="M222.1426 158.2937 L222.1426 163.4536 "/>
<path d="M222.1426 163.4536 L222.6116 164.3918 "/>
<path d="M222.6116 164.3918 L223.5498 164.8609 "/>
<path d="M223.5498 164.8609 L224.9571 164.8609 "/>
<path d="M224.9571 164.8609 L225.8952 164.3918 "/>
<path d="M225.8952 164.3918 L226.3643 163.9227 "/>
<path d="M232.4624 164.8609 L231.5242 164.3918 "/>
<path d="M231.5242 164.3918 L231.0551 163.4536 "/>
<path d="M231.0551 163.4536 L231.0551 155.0101 "/>
<path d="M240.4368 164.8609 L240.4368 159.7009 "/>
<path d="M240.4368 159.7009 L239.9677 158.7628 "/>
<path d="M239.9677 158.7628 L239.0296 158.2937 "/>
<path d="M239.0296 158.2937 L237.1532 158.2937 "/>
<path d="M237.1532 158.2937 L236.2151 158.7628 "/>
<path d="M240.4368 164.3918 L239.4986 164.8609 "/>
<path d="M239.4986 164.8609 L237.1532 164.8609 "/>
<path d="M237.1532 164.8609 L236.2151 164.3918 "/>
<path d="M236.2151 164.3918 L235.7460 163.4536 "/>
<path d="M235.7460 163.4536 L235.7460 162.5154 "/>
<path d="M235.7460 162.5154 L236.2151 161.5773 "/>
<path d="M236.2151 161.5773 L237.1532 161.1082 "/>
<path d="M237.1532 161.1082 L239.4986 161.1082 "/>
<path d="M239.4986 161.1082 L240.4368 160.6391 "/>
<path d="M243.7204 158.2937 L247.4731 158.2937 "/>
<path d="M245.1276 155.0101 L245.1276 163.4536 "/>
<path d="M245.1276 163.4536 L245.5967 164.3918 "/>
<path d="M245.5967 164.3918 L246.5349 164.8609 "/>
<path d="M246.5349 164.8609 L247.4731 164.8609 "/>
<path d="M250.7566 164.8609 L250.7566 158.2937 "/>
<path d="M250.7566 155.0101 L250.2876 155.4792 "/>
<path d="M250.2876 155.4792 L250.7566 155.9483 "/>
<path d="M250.7566 155.9483 L251.2257 155.4792 "/>
<path d="M251.2257 155.4792 L250.7566 155.0101 "/>
<path d="M250.7566 155.0101 L250.7566 155.9483 "/>
<path d="M256.8547 164.8609 L255.9166 164.3918 "/>
<path d="M255.9166 164.3918 L255.4475 163.9227 "/>
<path d="M255.4475 163.9227 L254.9784 162.9845 "/>
<path d="M254.9784 162.9845 L254.9784 160.1700 "/>
<path d="M254.9784 160.1700 L255.4475 159.2319 "/>
<path d="M255.4475 159.2319 L255.9166 158.7628 "/>
<path d="M255.9166 158.7628 L256.8547 158.2937 "/>
<path d="M256.8547 158.2937 L258.2620 158.2937 "/>
<path d="M258.2620 158.2937 L259.2001 158.7628 "/>
<path d="M259.2001 158.7628 L259.6692 159.2319 "/>
<path d="M259.6692 159.2319 L260.1383 160.1700 "/>
<path d="M260.1383 160.1700 L260.1383 162.9845 "/>
<path d="M260.1383 162.9845 L259.6692 163.9227 "/>
<path d="M259.6692 163.9227 L259.2001 164.3918 "/>
<path d="M259.2001 164.3918 L258.2620 164.8609 "/>
<path d="M258.2620 164.8609 L256.8547 164.8609 "/>
<path d="M264.3601 158.2937 L264.3601 164.8609 "/>
<path d="M264.3601 159.2319 L264.8291 158.7628 "/>
<path d="M264.8291 158.7628 L265.7673 158.2937 "/>
<path d="M265.7673 158.2937 L267.1746 158.2937 "/>
<path d="M267.1746 158.2937 L268.1127 158.7628 "/>
<path d="M268.1127 158.7628 L268.5818 159.7009 "/>
<path d="M268.5818 159.7009 L268.5818 164.8609 "/>
</g><text x="213.6677" y="99.7512" textLength="115.9808" font-size="13.1343" lengthAdjust="spacingAndGlyphs" text-anchor="middle" opacity="0.01" style="font-family:monospace">Heat insulation</text>
<g class="stroked-text"><desc>Heat insulation</desc>
<path d="M159.2541 99.3061 L159.2541 89.4554 "/>
<path d="M159.2541 94.1462 L164.8831 94.1462 "/>
<path d="M164.8831 99.3061 L164.8831 89.4554 "/>
<path d="M173.3266 98.8370 L172.3884 99.3061 "/>
<path d="M172.3884 99.3061 L170.5121 99.3061 "/>
<path d="M170.5121 99.3061 L169.5739 98.8370 "/>
<path d="M169.5739 98.8370 L169.1048 97.8989 "/>
<path d="M169.1048 97.8989 L169.1048 94.1462 "/>
<path d="M169.1048 94.1462 L169.5739 93.2080 "/>
<path d="M169.5739 93.2080 L170.5121 92.7389 "/>
<path d="M170.5121 92.7389 L172.3884 92.7389 "/>
<path d="M172.3884 92.7389 L173.3266 93.2080 "/>
<path d="M173.3266 93.2080 L173.7957 94.1462 "/>
<path d="M173.7957 94.1462 L173.7957 95.0844 "/>
<path d="M173.7957 95.0844 L169.1048 96.0225 "/>
<path d="M182.2392 99.3061 L182.2392 94.1462 "/>
<path d="M182.2392 94.1462 L181.7701 93.2080 "/>
<path d="M181.7701 93.2080 L180.8319 92.7389 "/>
<path d="M180.8319 92.7389 L178.9556 92.7389 "/>
<path d="M178.9556 92.7389 L178.0174 93.2080 "/>
<path d="M182.2392 98.8370 L181.3010 99.3061 "/>
<path d="M181.3010 99.3061 L178.9556 99.3061 "/>
<path d="M178.9556 99.3061 L178.0174 98.8370 "/>
<path d="M178.0174 98.8370 L177.5483 97.8989 "/>
<path d="M177.5483 97.8989 L177.5483 96.9607 "/>
<path d="M177.5483 96.9607 L178.0174 96.0225 "/>
<path d="M178.0174 96.0225 L178.9556 95.5534 "/>
<path d="M178.9556 95.5534 L181.3010 95.5534 "/>
<path d="M181.3010 95.5534 L182.2392 95.0844 "/>
<path d="M185.5227 92.7389 L189.2754 92.7389 "/>
<path d="M186.9300 89.4554 L186.9300 97.8989 "/>
<path d="M186.9300 97.8989 L187.3991 98.8370 "/>
<path d="M187.3991 98.8370 L188.3372 99.3061 "/>
<path d="M188.3372 99.3061 L189.2754 99.3061 "/>
<path d="M200.0643 99.3061 L200.0643 92.7389 "/>
<path d="M200.0643 89.4554 L199.5952 89.9244 "/>
<path d="M199.5952 89.9244 L200.0643 90.3935 "/>
<path d="M200.0643 90.3935 L200.5334 89.9244 "/>
<path d="M200.5334 89.9244 L200.0643 89.4554 "/>
<path d="M200.0643 89.4554 L200.0643 90.3935 "/>
<path d="M204.7551 92.7389 L204.7551 99.3061 "/>
<path d="M204.7551 93.6771 L205.2242 93.2080 "/>
<path d="M205.2242 93.2080 L206.1624 92.7389 "/>
<path d="M206.1624 92.7389 L207.5696 92.7389 "/>
<path d="M207.5696 92.7389 L208.5078 93.2080 "/>
<path d="M208.5078 93.2080 L208.9769 94.1462 "/>
<path d="M208.9769 94.1462 L208.9769 99.3061 "/>
<path d="M213.1986 98.8370 L214.1368 99.3061 "/>
<path d="M214.1368 99.3061 L216.0131 99.3061 "/>
<path d="M216.0131 99.3061 L216.9513 98.8370 "/>
<path d="M216.9513 98.8370 L217.4204 97.8989 "/>
<path d="M217.4204 97.8989 L217.4204 97.4298 "/>
<path d="M217.4204 97.4298 L216.9513 96.4916 "/>
<path d="M216.9513 96.4916 L216.0131 96.0225 "/>
<path d="M216.0131 96.0225 L214.6059 96.0225 "/>
<path d="M214.6059 96.0225 L213.6677 95.5534 "/>
<path d="M213.6677 95.5534 L213.1986 94.6153 "/>
<path d="M213.1986 94.6153 L213.1986 94.1462 "/>
<path d="M213.1986 94.1462 L213.6677 93.2080 "/>
<path d="M213.6677 93.2080 L214.6059 92.7389 "/>
<path d="M214.6059 92.7389 L216.0131 92.7389 "/>
<path d="M216.0131 92.7389 L216.9513 93.2080 "/>
<path d="M225.8639 92.7389 L225.8639 99.3061 "/>
<path d="M221.6421 92.7389 L221.6421 97.8989 "/>
<path d="M221.6421 97.8989 L222.1112 98.8370 "/>
<path d="M222.1112 98.8370 L223.0494 99.3061 "/>
<path d="M223.0494 99.3061 L224.4566 99.3061 "/>
<path d="M224.4566 99.3061 L225.3948 98.8370 "/>
<path d="M225.3948 98.8370 L225.8639 98.3679 "/>
<path d="M231.9620 99.3061 L231.0238 98.8370 "/>
<path d="M231.0238 98.8370 L230.5547 97.8989 "/>
<path d="M230.5547 97.8989 L230.5547 89.4554 "/>
<path d="M239.9364 99.3061 L239.9364 94.1462 "/>
<path d="M239.9364 94.1462 L239.4673 93.2080 "/>
<path d="M239.4673 93.2080 L238.5291 92.7389 "/>
<path d="M238.5291 92.7389 L236.6528 92.7389 "/>
<path d="M236.6528 92.7389 L235.7146 93.2080 "/>
<path d="M239.9364 98.8370 L238.9982 99.3061 "/>
<path d="M238.9982 99.3061 L236.6528 99.3061 "/>
<path d="M236.6528 99.3061 L235.7146 98.8370 "/>
<path d="M235.7146 98.8370 L235.2456 97.8989 "/>
<path d="M235.2456 97.8989 L235.2456 96.9607 "/>
<path d="M235.2456 96.9607 L235.7146 96.0225 "/>
<path d="M235.7146 96.0225 L236.6528 95.5534 "/>
<path d="M236.6528 95.5534 L238.9982 95.5534 "/>
<path d="M238.9982 95.5534 L239.9364 95.0844 "/>
<path d="M243.2200 92.7389 L246.9726 92.7389 "/>
<path d="M244.6272 89.4554 L244.6272 97.8989 "/>
<path d="M244.6272 97.8989 L245.0963 98.8370 "/>
<path d="M245.0963 98.8370 L246.0345 99.3061 "/>
<path d="M246.0345 99.3061 L246.9726 99.3061 "/>
<path d="M250.2562 99.3061 L250.2562 92.7389 "/>
<path d="M250.2562 89.4554 L249.7871 89.9244 "/>
<path d="M249.7871 89.9244 L250.2562 90.3935 "/>
<path d="M250.2562 90.3935 L250.7253 89.9244 "/>
<path d="M250.7253 89.9244 L250.2562 89.4554 "/>
<path d="M250.2562 89.4554 L250.2562 90.3935 "/>
<path d="M256.3543 99.3061 L255.4161 98.8370 "/>
<path d="M255.4161 98.8370 L254.9471 98.3679 "/>
<path d="M254.9471 98.3679 L254.4780 97.4298 "/>
<path d="M254.4780 97.4298 L254.4780 94.6153 "/>
<path d="M254.4780 94.6153 L254.9471 93.6771 "/>
<path d="M254.9471 93.6771 L255.4161 93.2080 "/>
<path d="M255.4161 93.2080 L256.3543 92.7389 "/>
<path d="M256.3543 92.7389 L257.7616 92.7389 "/>
<path d="M257.7616 92.7389 L258.6997 93.2080 "/>
<path d="M258.6997 93.2080 L259.1688 93.6771 "/>
<path d="M259.1688 93.6771 L259.6379 94.6153 "/>
<path d="M259.6379 94.6153 L259.6379 97.4298 "/>
<path d="M259.6379 97.4298 L259.1688 98.3679 "/>
<path d="M259.1688 98.3679 L258.6997 98.8370 "/>
<path d="M258.6997 98.8370 L257.7616 99.3061 "/>
<path d="M257.7616 99.3061 L256.3543 99.3061 "/>
<path d="M263.8596 92.7389 L263.8596 99.3061 "/>
<path d="M263.8596 93.6771 L264.3287 93.2080 "/>
<path d="M264.3287 93.2080 L265.2669 92.7389 "/>
<path d="M265.2669 92.7389 L266.6741 92.7389 "/>
<path d="M266.6741 92.7389 L267.6123 93.2080 "/>
<path d="M267.6123 93.2080 L268.0814 94.1462 "/>
<path d="M268.0814 94.1462 L268.0814 99.3061 "/>
</g><text x="213.6677" y="69.2139" textLength="22.1642" font-size="13.1343" lengthAdjust="spacingAndGlyphs" text-anchor="middle" opacity="0.01" style="font-family:monospace">H2</text>
<g class="stroked-text"><desc>H2</desc>
<path d="M206.1624 68.7688 L206.1624 58.9181 "/>
<path d="M206.1624 63.6089 L211.7914 63.6089 "/>
<path d="M211.7914 68.7688 L211.7914 58.9181 "/>
<path d="M216.0131 59.8562 L216.4822 59.3871 "/>
<path d="M216.4822 59.3871 L217.4204 58.9181 "/>
<path d="M217.4204 58.9181 L219.7658 58.9181 "/>
<path d="M219.7658 58.9181 L220.7040 59.3871 "/>
<path d="M220.7040 59.3871 L221.1731 59.8562 "/>
<path d="M221.1731 59.8562 L221.6421 60.7944 "/>
<path d="M221.6421 60.7944 L221.6421 61.7325 "/>
<path d="M221.6421 61.7325 L221.1731 63.1398 "/>
<path d="M221.1731 63.1398 L215.5441 68.7688 "/>
<path d="M215.5441 68.7688 L221.6421 68.7688 "/>
</g><g transform="rotate(-180.000000 104.4880 50.3241)">
<text x="104.4880" y="55.2494" transform="scale(-1 1) translate(-208.975938 0)" textLength="12.3134" font-size="13.1343" lengthAdjust="spacingAndGlyphs" text-anchor="middle" opacity="0.01" style="font-family:monospace">K</text>
</g>
<g class="stroked-text"><desc>K</desc>
<path d="M101.9080 45.8438 L101.9080 55.6945 "/>
<path d="M107.5370 45.8438 L103.3153 51.4728 "/>
<path d="M107.5370 55.6945 L101.9080 50.0655 "/>
</g><g transform="rotate(-180.000000 104.4880 158.6823)">
<text x="104.4880" y="163.6077" transform="scale(-1 1) translate(-208.975938 0)" textLength="12.3134" font-size="13.1343" lengthAdjust="spacingAndGlyphs" text-anchor="middle" opacity="0.01" style="font-family:monospace">K</text>
</g>
<g class="stroked-text"><desc>K</desc>
<path d="M101.9080 154.2020 L101.9080 164.0527 "/>
<path d="M107.5370 154.2020 L103.3153 159.8310 "/>
<path d="M107.5370 164.0527 L101.9080 158.4237 "/>
</g></g>
<g style="fill:#848484; fill-opacity:0.0;  stroke:#848484; stroke-width:0.9851; stroke-opacity:1;  stroke-linecap:round; stroke-linejoin:round;">
<path d="M46.0258 64.3693 L6.1302 64.3693 "/>
<path d="M46.0258 64.3693 L46.0258 145.6379 "/>
<path d="M6.1302 64.3693 L6.1302 145.6379 "/>
<path d="M46.0258 81.6081 L39.0602 86.5334 "/>
<path d="M39.0602 86.5334 L46.0258 91.4588 "/>
<path d="M46.0258 145.6379 L6.1302 145.6379 "/>
<g>
</g>
<g>
</g>
<g>
</g>
<g>
</g>
<g>
</g>
<g>
</g>
<g>
</g>
<g>
</g>
<g>
</g>
<g>
</g>
<g>
</g>
<g>
</g>
<g>
</g>
<g>
</g>
<g>
</g>
<g>
</g>
<g>
</g>
<g>
</g>
<g>
</g>
<g>
</g>
<g>
</g>
<g>
</g>
<g>
</g>
<g>
</g>
<g>
</g>
<g>
</g>
<g>
</g>
<g>
</g>
<g>
</g>
<g>
</g>
<g>
</g>
<g>
</g>
<g>
</g>
<g>
</g>
</g> 
<svg:g><svg:g><svg:title>SVG Image created as TFHT01-Edge_Cuts.svg date 2023/09/24 12:08:32 </svg:title>
  <svg:desc>Image generated by PCBNEW </svg:desc>
<svg:g style="fill:#C2C200; fill-opacity:1.0000;stroke:#C2C200; stroke-opacity:1.0000; stroke-linecap:round; stroke-linejoin:round;" transform="translate(0 0) scale(1 1)">
</svg:g>
<svg:g style="fill:#C2C200; fill-opacity:0.0;  stroke:#C2C200; stroke-width:0.0000; stroke-opacity:1;  stroke-linecap:round; stroke-linejoin:round;">
</svg:g>
<svg:g style="fill:#C2C200; fill-opacity:0.0;  stroke:#C2C200; stroke-width:1.4776; stroke-opacity:1;  stroke-linecap:round; stroke-linejoin:round;">
<svg:path style="fill:#C2C200; fill-opacity:0.0;  stroke:#C2C200; stroke-width:1.4776; stroke-opacity:1;  stroke-linecap:round; stroke-linejoin:round;fill:none" d="M 0.7399,31.1230 296.2623,31.1230 296.2623,178.8842 0.7399,178.8842 Z"/> 
</svg:g>
<svg:g style="fill:#C2C200; fill-opacity:0.0;  stroke:#C2C200; stroke-width:0.4925; stroke-opacity:1;  stroke-linecap:round; stroke-linejoin:round;">
<svg:path d="M73.6354 57.7200 L73.6354 43.9290 "/>
<svg:path d="M76.5907 40.9737 L92.3518 40.9737 "/>
<svg:path d="M92.3518 60.6752 L76.5907 60.6752 "/>
<svg:path d="M95.3071 43.9290 L95.3071 57.7200 "/>
<svg:path d="M76.5907 40.9737 A2.9552 2.9552 0.0 0 0 73.6354 43.9290"/>
<svg:path d="M73.6354 57.7200 A2.9552 2.9552 0.0 0 0 76.5907 60.6752"/>
<svg:path d="M95.3071 43.9290 A2.9552 2.9552 0.0 0 0 92.3518 40.9737"/>
<svg:path d="M92.3518 60.6752 A2.9552 2.9552 0.0 0 0 95.3071 57.7200"/>
<svg:path d="M73.6354 166.0782 L73.6354 152.2872 "/>
<svg:path d="M76.5907 149.3320 L92.3518 149.3320 "/>
<svg:path d="M92.3518 169.0334 L76.5907 169.0334 "/>
<svg:path d="M95.3071 152.2872 L95.3071 166.0782 "/>
<svg:path d="M76.5907 149.3320 A2.9552 2.9552 0.0 0 0 73.6354 152.2872"/>
<svg:path d="M73.6354 166.0782 A2.9552 2.9552 0.0 0 0 76.5907 169.0334"/>
<svg:path d="M95.3071 152.2872 A2.9552 2.9552 0.0 0 0 92.3518 149.3320"/>
<svg:path d="M92.3518 169.0334 A2.9552 2.9552 0.0 0 0 95.3071 166.0782"/>
<svg:g>
</svg:g>
<svg:g>
</svg:g>
<svg:g>
</svg:g>
<svg:g>
</svg:g>
<svg:g>
</svg:g>
<svg:g>
</svg:g>
<svg:g>
</svg:g>
<svg:g>
</svg:g>
<svg:g>
</svg:g>
<svg:g>
</svg:g>
<svg:g>
</svg:g>
<svg:g>
</svg:g>
<svg:g>
</svg:g>
<svg:g>
</svg:g>
<svg:g>
</svg:g>
<svg:g>
</svg:g>
<svg:g>
</svg:g>
<svg:g>
</svg:g>
<svg:g>
</svg:g>
<svg:g>
</svg:g>
<svg:g>
</svg:g>
<svg:g>
</svg:g>
<svg:g>
</svg:g>
<svg:g>
</svg:g>
<svg:g>
</svg:g>
<svg:g>
</svg:g>
<svg:g>
</svg:g>
<svg:g>
</svg:g>
<svg:g>
</svg:g>
<svg:g>
</svg:g>
<svg:g>
</svg:g>
<svg:g>
</svg:g>
<svg:g>
</svg:g>
<svg:g>
</svg:g>
</svg:g> 
</svg:g></svg:g></svg>
