<?xml version='1.0' encoding='ASCII' standalone='yes'?>
<svg xmlns:svg="http://www.w3.org/2000/svg" xmlns="http://www.w3.org/2000/svg" xmlns:xlink="http://www.w3.org/1999/xlink" version="1.1" width="297.0022mm" height="210.0072mm" viewBox="0.0000 0.0000 297.0022 210.0072">
<title>SVG Image created as TFHT01-F_Fab.svg date 2023/11/13 01:10:22 </title>
  <desc>Image generated by PCBNEW </desc>
<g style="fill:#848484; fill-opacity:1.0000;stroke:#848484; stroke-opacity:1.0000; stroke-linecap:round; stroke-linejoin:round;" transform="translate(0 0) scale(1 1)">
</g>
<g style="fill:#848484; fill-opacity:0.0;  stroke:#848484; stroke-width:0.0000; stroke-opacity:1;  stroke-linecap:round; stroke-linejoin:round;">
</g>
<g style="fill:#848484; fill-opacity:0.01;  stroke:#848484; stroke-width:1.4776; stroke-opacity:1;  stroke-linecap:round; stroke-linejoin:round;">
<g transform="rotate(-90.000000 30.2646 105.0036)">
<text x="30.2646" y="109.9290" textLength="19.3497" font-size="13.1343" lengthAdjust="spacingAndGlyphs" text-anchor="middle" opacity="0.01" style="font-family:monospace">J2</text>
</g>
<g class="stroked-text"><desc>J2</desc>
<path d="M24.8941 108.2872 L31.9304 108.2872 "/>
<path d="M31.9304 108.2872 L33.3376 108.7563 "/>
<path d="M33.3376 108.7563 L34.2758 109.6944 "/>
<path d="M34.2758 109.6944 L34.7449 111.1017 "/>
<path d="M34.7449 111.1017 L34.7449 112.0398 "/>
<path d="M25.8323 104.0654 L25.3632 103.5963 "/>
<path d="M25.3632 103.5963 L24.8941 102.6582 "/>
<path d="M24.8941 102.6582 L24.8941 100.3128 "/>
<path d="M24.8941 100.3128 L25.3632 99.3746 "/>
<path d="M25.3632 99.3746 L25.8323 98.9055 "/>
<path d="M25.8323 98.9055 L26.7705 98.4364 "/>
<path d="M26.7705 98.4364 L27.7086 98.4364 "/>
<path d="M27.7086 98.4364 L29.1159 98.9055 "/>
<path d="M29.1159 98.9055 L34.7449 104.5345 "/>
<path d="M34.7449 104.5345 L34.7449 98.4364 "/>
</g><text x="237.1874" y="195.9437" textLength="115.9808" font-size="13.1343" lengthAdjust="spacingAndGlyphs" text-anchor="middle" opacity="0.01" style="font-family:monospace">Heat insulation</text>
<g class="stroked-text"><desc>Heat insulation</desc>
<path d="M182.7737 195.4986 L182.7737 185.6479 "/>
<path d="M182.7737 190.3387 L188.4027 190.3387 "/>
<path d="M188.4027 195.4986 L188.4027 185.6479 "/>
<path d="M196.8462 195.0296 L195.9080 195.4986 "/>
<path d="M195.9080 195.4986 L194.0317 195.4986 "/>
<path d="M194.0317 195.4986 L193.0936 195.0296 "/>
<path d="M193.0936 195.0296 L192.6245 194.0914 "/>
<path d="M192.6245 194.0914 L192.6245 190.3387 "/>
<path d="M192.6245 190.3387 L193.0936 189.4006 "/>
<path d="M193.0936 189.4006 L194.0317 188.9315 "/>
<path d="M194.0317 188.9315 L195.9080 188.9315 "/>
<path d="M195.9080 188.9315 L196.8462 189.4006 "/>
<path d="M196.8462 189.4006 L197.3153 190.3387 "/>
<path d="M197.3153 190.3387 L197.3153 191.2769 "/>
<path d="M197.3153 191.2769 L192.6245 192.2151 "/>
<path d="M205.7588 195.4986 L205.7588 190.3387 "/>
<path d="M205.7588 190.3387 L205.2897 189.4006 "/>
<path d="M205.2897 189.4006 L204.3515 188.9315 "/>
<path d="M204.3515 188.9315 L202.4752 188.9315 "/>
<path d="M202.4752 188.9315 L201.5370 189.4006 "/>
<path d="M205.7588 195.0296 L204.8206 195.4986 "/>
<path d="M204.8206 195.4986 L202.4752 195.4986 "/>
<path d="M202.4752 195.4986 L201.5370 195.0296 "/>
<path d="M201.5370 195.0296 L201.0680 194.0914 "/>
<path d="M201.0680 194.0914 L201.0680 193.1532 "/>
<path d="M201.0680 193.1532 L201.5370 192.2151 "/>
<path d="M201.5370 192.2151 L202.4752 191.7460 "/>
<path d="M202.4752 191.7460 L204.8206 191.7460 "/>
<path d="M204.8206 191.7460 L205.7588 191.2769 "/>
<path d="M209.0424 188.9315 L212.7950 188.9315 "/>
<path d="M210.4496 185.6479 L210.4496 194.0914 "/>
<path d="M210.4496 194.0914 L210.9187 195.0296 "/>
<path d="M210.9187 195.0296 L211.8569 195.4986 "/>
<path d="M211.8569 195.4986 L212.7950 195.4986 "/>
<path d="M223.5840 195.4986 L223.5840 188.9315 "/>
<path d="M223.5840 185.6479 L223.1149 186.1170 "/>
<path d="M223.1149 186.1170 L223.5840 186.5861 "/>
<path d="M223.5840 186.5861 L224.0530 186.1170 "/>
<path d="M224.0530 186.1170 L223.5840 185.6479 "/>
<path d="M223.5840 185.6479 L223.5840 186.5861 "/>
<path d="M228.2748 188.9315 L228.2748 195.4986 "/>
<path d="M228.2748 189.8696 L228.7439 189.4006 "/>
<path d="M228.7439 189.4006 L229.6820 188.9315 "/>
<path d="M229.6820 188.9315 L231.0893 188.9315 "/>
<path d="M231.0893 188.9315 L232.0275 189.4006 "/>
<path d="M232.0275 189.4006 L232.4965 190.3387 "/>
<path d="M232.4965 190.3387 L232.4965 195.4986 "/>
<path d="M236.7183 195.0296 L237.6565 195.4986 "/>
<path d="M237.6565 195.4986 L239.5328 195.4986 "/>
<path d="M239.5328 195.4986 L240.4710 195.0296 "/>
<path d="M240.4710 195.0296 L240.9400 194.0914 "/>
<path d="M240.9400 194.0914 L240.9400 193.6223 "/>
<path d="M240.9400 193.6223 L240.4710 192.6841 "/>
<path d="M240.4710 192.6841 L239.5328 192.2151 "/>
<path d="M239.5328 192.2151 L238.1255 192.2151 "/>
<path d="M238.1255 192.2151 L237.1874 191.7460 "/>
<path d="M237.1874 191.7460 L236.7183 190.8078 "/>
<path d="M236.7183 190.8078 L236.7183 190.3387 "/>
<path d="M236.7183 190.3387 L237.1874 189.4006 "/>
<path d="M237.1874 189.4006 L238.1255 188.9315 "/>
<path d="M238.1255 188.9315 L239.5328 188.9315 "/>
<path d="M239.5328 188.9315 L240.4710 189.4006 "/>
<path d="M249.3835 188.9315 L249.3835 195.4986 "/>
<path d="M245.1618 188.9315 L245.1618 194.0914 "/>
<path d="M245.1618 194.0914 L245.6309 195.0296 "/>
<path d="M245.6309 195.0296 L246.5690 195.4986 "/>
<path d="M246.5690 195.4986 L247.9763 195.4986 "/>
<path d="M247.9763 195.4986 L248.9144 195.0296 "/>
<path d="M248.9144 195.0296 L249.3835 194.5605 "/>
<path d="M255.4816 195.4986 L254.5435 195.0296 "/>
<path d="M254.5435 195.0296 L254.0744 194.0914 "/>
<path d="M254.0744 194.0914 L254.0744 185.6479 "/>
<path d="M263.4560 195.4986 L263.4560 190.3387 "/>
<path d="M263.4560 190.3387 L262.9869 189.4006 "/>
<path d="M262.9869 189.4006 L262.0488 188.9315 "/>
<path d="M262.0488 188.9315 L260.1725 188.9315 "/>
<path d="M260.1725 188.9315 L259.2343 189.4006 "/>
<path d="M263.4560 195.0296 L262.5179 195.4986 "/>
<path d="M262.5179 195.4986 L260.1725 195.4986 "/>
<path d="M260.1725 195.4986 L259.2343 195.0296 "/>
<path d="M259.2343 195.0296 L258.7652 194.0914 "/>
<path d="M258.7652 194.0914 L258.7652 193.1532 "/>
<path d="M258.7652 193.1532 L259.2343 192.2151 "/>
<path d="M259.2343 192.2151 L260.1725 191.7460 "/>
<path d="M260.1725 191.7460 L262.5179 191.7460 "/>
<path d="M262.5179 191.7460 L263.4560 191.2769 "/>
<path d="M266.7396 188.9315 L270.4923 188.9315 "/>
<path d="M268.1469 185.6479 L268.1469 194.0914 "/>
<path d="M268.1469 194.0914 L268.6160 195.0296 "/>
<path d="M268.6160 195.0296 L269.5541 195.4986 "/>
<path d="M269.5541 195.4986 L270.4923 195.4986 "/>
<path d="M273.7759 195.4986 L273.7759 188.9315 "/>
<path d="M273.7759 185.6479 L273.3068 186.1170 "/>
<path d="M273.3068 186.1170 L273.7759 186.5861 "/>
<path d="M273.7759 186.5861 L274.2450 186.1170 "/>
<path d="M274.2450 186.1170 L273.7759 185.6479 "/>
<path d="M273.7759 185.6479 L273.7759 186.5861 "/>
<path d="M279.8739 195.4986 L278.9358 195.0296 "/>
<path d="M278.9358 195.0296 L278.4667 194.5605 "/>
<path d="M278.4667 194.5605 L277.9976 193.6223 "/>
<path d="M277.9976 193.6223 L277.9976 190.8078 "/>
<path d="M277.9976 190.8078 L278.4667 189.8696 "/>
<path d="M278.4667 189.8696 L278.9358 189.4006 "/>
<path d="M278.9358 189.4006 L279.8739 188.9315 "/>
<path d="M279.8739 188.9315 L281.2812 188.9315 "/>
<path d="M281.2812 188.9315 L282.2194 189.4006 "/>
<path d="M282.2194 189.4006 L282.6884 189.8696 "/>
<path d="M282.6884 189.8696 L283.1575 190.8078 "/>
<path d="M283.1575 190.8078 L283.1575 193.6223 "/>
<path d="M283.1575 193.6223 L282.6884 194.5605 "/>
<path d="M282.6884 194.5605 L282.2194 195.0296 "/>
<path d="M282.2194 195.0296 L281.2812 195.4986 "/>
<path d="M281.2812 195.4986 L279.8739 195.4986 "/>
<path d="M287.3793 188.9315 L287.3793 195.4986 "/>
<path d="M287.3793 189.8696 L287.8484 189.4006 "/>
<path d="M287.8484 189.4006 L288.7865 188.9315 "/>
<path d="M288.7865 188.9315 L290.1938 188.9315 "/>
<path d="M290.1938 188.9315 L291.1319 189.4006 "/>
<path d="M291.1319 189.4006 L291.6010 190.3387 "/>
<path d="M291.6010 190.3387 L291.6010 195.4986 "/>
</g><g transform="rotate(-180.000000 104.4880 50.3241)">
<text x="104.4880" y="55.2494" transform="scale(-1 1) translate(-208.975938 0)" textLength="12.3134" font-size="13.1343" lengthAdjust="spacingAndGlyphs" text-anchor="middle" opacity="0.01" style="font-family:monospace">K</text>
</g>
<g class="stroked-text"><desc>K</desc>
<path d="M101.9080 45.8438 L101.9080 55.6945 "/>
<path d="M107.5370 45.8438 L103.3153 51.4728 "/>
<path d="M107.5370 55.6945 L101.9080 50.0655 "/>
</g><g transform="rotate(-180.000000 104.4880 158.6823)">
<text x="104.4880" y="163.6077" transform="scale(-1 1) translate(-208.975938 0)" textLength="12.3134" font-size="13.1343" lengthAdjust="spacingAndGlyphs" text-anchor="middle" opacity="0.01" style="font-family:monospace">K</text>
</g>
<g class="stroked-text"><desc>K</desc>
<path d="M101.9080 154.2020 L101.9080 164.0527 "/>
<path d="M107.5370 154.2020 L103.3153 159.8310 "/>
<path d="M107.5370 164.0527 L101.9080 158.4237 "/>
</g></g>
<g style="fill:#848484; fill-opacity:0.0;  stroke:#848484; stroke-width:0.9851; stroke-opacity:1;  stroke-linecap:round; stroke-linejoin:round;">
<path d="M46.0258 64.3693 L6.1302 64.3693 "/>
<path d="M46.0258 64.3693 L46.0258 145.6379 "/>
<path d="M6.1302 64.3693 L6.1302 145.6379 "/>
<path d="M46.0258 81.6081 L39.0602 86.5334 "/>
<path d="M39.0602 86.5334 L46.0258 91.4588 "/>
<path d="M46.0258 145.6379 L6.1302 145.6379 "/>
<g>
</g>
<g>
</g>
<g>
</g>
<g>
</g>
<g>
</g>
<g>
</g>
<g>
</g>
<g>
</g>
<g>
</g>
<g>
</g>
<g>
</g>
<g>
</g>
<g>
</g>
<g>
</g>
<g>
</g>
<g>
</g>
<g>
</g>
<g>
</g>
<g>
</g>
<g>
</g>
<g>
</g>
<g>
</g>
<g>
</g>
<g>
</g>
<g>
</g>
<g>
</g>
<g>
</g>
<g>
</g>
<g>
</g>
<g>
</g>
<g>
</g>
<g>
</g>
<g>
</g>
<g>
</g>
<g>
</g>
<g>
</g>
<g>
</g>
</g> 
<svg:g><svg:g><svg:title>SVG Image created as TFHT01-Edge_Cuts.svg date 2023/11/13 01:10:22 </svg:title>
  <svg:desc>Image generated by PCBNEW </svg:desc>
<svg:g style="fill:#C2C200; fill-opacity:1.0000;stroke:#C2C200; stroke-opacity:1.0000; stroke-linecap:round; stroke-linejoin:round;" transform="translate(0 0) scale(1 1)">
</svg:g>
<svg:g style="fill:#C2C200; fill-opacity:0.0;  stroke:#C2C200; stroke-width:0.0000; stroke-opacity:1;  stroke-linecap:round; stroke-linejoin:round;">
</svg:g>
<svg:g style="fill:#C2C200; fill-opacity:0.0;  stroke:#C2C200; stroke-width:1.4776; stroke-opacity:1;  stroke-linecap:round; stroke-linejoin:round;">
<svg:path style="fill:#C2C200; fill-opacity:0.0;  stroke:#C2C200; stroke-width:1.4776; stroke-opacity:1;  stroke-linecap:round; stroke-linejoin:round;fill:none" d="M 0.7399,31.1230 296.2623,31.1230 296.2623,178.8842 0.7399,178.8842 Z"/> 
</svg:g>
<svg:g style="fill:#C2C200; fill-opacity:0.0;  stroke:#C2C200; stroke-width:0.4925; stroke-opacity:1;  stroke-linecap:round; stroke-linejoin:round;">
<svg:path d="M73.6354 57.7200 L73.6354 43.9290 "/>
<svg:path d="M76.5907 40.9737 L92.3518 40.9737 "/>
<svg:path d="M92.3518 60.6752 L76.5907 60.6752 "/>
<svg:path d="M95.3071 43.9290 L95.3071 57.7200 "/>
<svg:path d="M76.5907 40.9737 A2.9552 2.9552 0.0 0 0 73.6354 43.9290"/>
<svg:path d="M73.6354 57.7200 A2.9552 2.9552 0.0 0 0 76.5907 60.6752"/>
<svg:path d="M95.3071 43.9290 A2.9552 2.9552 0.0 0 0 92.3518 40.9737"/>
<svg:path d="M92.3518 60.6752 A2.9552 2.9552 0.0 0 0 95.3071 57.7200"/>
<svg:path d="M73.6354 166.0782 L73.6354 152.2872 "/>
<svg:path d="M76.5907 149.3320 L92.3518 149.3320 "/>
<svg:path d="M92.3518 169.0334 L76.5907 169.0334 "/>
<svg:path d="M95.3071 152.2872 L95.3071 166.0782 "/>
<svg:path d="M76.5907 149.3320 A2.9552 2.9552 0.0 0 0 73.6354 152.2872"/>
<svg:path d="M73.6354 166.0782 A2.9552 2.9552 0.0 0 0 76.5907 169.0334"/>
<svg:path d="M95.3071 152.2872 A2.9552 2.9552 0.0 0 0 92.3518 149.3320"/>
<svg:path d="M92.3518 169.0334 A2.9552 2.9552 0.0 0 0 95.3071 166.0782"/>
<svg:g>
</svg:g>
<svg:g>
</svg:g>
<svg:g>
</svg:g>
<svg:g>
</svg:g>
<svg:g>
</svg:g>
<svg:g>
</svg:g>
<svg:g>
</svg:g>
<svg:g>
</svg:g>
<svg:g>
</svg:g>
<svg:g>
</svg:g>
<svg:g>
</svg:g>
<svg:g>
</svg:g>
<svg:g>
</svg:g>
<svg:g>
</svg:g>
<svg:g>
</svg:g>
<svg:g>
</svg:g>
<svg:g>
</svg:g>
<svg:g>
</svg:g>
<svg:g>
</svg:g>
<svg:g>
</svg:g>
<svg:g>
</svg:g>
<svg:g>
</svg:g>
<svg:g>
</svg:g>
<svg:g>
</svg:g>
<svg:g>
</svg:g>
<svg:g>
</svg:g>
<svg:g>
</svg:g>
<svg:g>
</svg:g>
<svg:g>
</svg:g>
<svg:g>
</svg:g>
<svg:g>
</svg:g>
<svg:g>
</svg:g>
<svg:g>
</svg:g>
<svg:g>
</svg:g>
<svg:g>
</svg:g>
<svg:g>
</svg:g>
<svg:g>
</svg:g>
</svg:g> 
</svg:g></svg:g></svg>
