<?xml version='1.0' encoding='ASCII' standalone='yes'?>
<svg xmlns:svg="http://www.w3.org/2000/svg" xmlns="http://www.w3.org/2000/svg" xmlns:xlink="http://www.w3.org/1999/xlink" version="1.1" width="297.0022mm" height="210.0072mm" viewBox="0.0000 0.0000 297.0022 210.0072">
<title>SVG Image created as TFHT01-B_Fab.svg date 2023/11/13 01:10:22 </title>
  <desc>Image generated by PCBNEW </desc>
<g style="fill:#000084; fill-opacity:1.0000;stroke:#000084; stroke-opacity:1.0000; stroke-linecap:round; stroke-linejoin:round;" transform="translate(0 0) scale(1 1)">
</g>
<g style="fill:#000084; fill-opacity:0.0;  stroke:#000084; stroke-width:0.0000; stroke-opacity:1;  stroke-linecap:round; stroke-linejoin:round;">
</g>
<g style="fill:#000084; fill-opacity:0.01;  stroke:#000084; stroke-width:1.4776; stroke-opacity:1;  stroke-linecap:round; stroke-linejoin:round;">
<text x="194.2657" y="56.5793" transform="scale(-1 1) translate(-388.531387 0)" textLength="14.4412" font-size="16.6806" lengthAdjust="spacingAndGlyphs" text-anchor="middle" opacity="0.01" style="font-family:monospace">K</text>
<g class="stroked-text"><desc>K</desc>
<path d="M190.9891 56.0348 L190.9891 43.5244 "/>
<path d="M198.1380 56.0348 L192.7764 48.8860 "/>
<path d="M198.1380 43.5244 L190.9891 50.6732 "/>
</g></g>
<g style="fill:#000084; fill-opacity:0.0;  stroke:#000084; stroke-width:0.5910; stroke-opacity:1;  stroke-linecap:round; stroke-linejoin:round;">
<g transform="rotate(-90.000000 179.9151 126.0891)">
<text x="179.9151" y="128.0593" transform="scale(-1 1) translate(-359.830253 0)" textLength="8.6780" font-size="5.2537" lengthAdjust="spacingAndGlyphs" text-anchor="middle" opacity="0.01" style="font-family:monospace">C4</text>
</g>
<g class="stroked-text"><desc>C4</desc>
<path d="M178.4983 125.4324 L178.3106 125.2448 "/>
<path d="M178.3106 125.2448 L178.1230 124.6819 "/>
<path d="M178.1230 124.6819 L178.1230 124.3066 "/>
<path d="M178.1230 124.3066 L178.3106 123.7437 "/>
<path d="M178.3106 123.7437 L178.6859 123.3684 "/>
<path d="M178.6859 123.3684 L179.0612 123.1808 "/>
<path d="M179.0612 123.1808 L179.8117 122.9932 "/>
<path d="M179.8117 122.9932 L180.3746 122.9932 "/>
<path d="M180.3746 122.9932 L181.1251 123.1808 "/>
<path d="M181.1251 123.1808 L181.5004 123.3684 "/>
<path d="M181.5004 123.3684 L181.8757 123.7437 "/>
<path d="M181.8757 123.7437 L182.0633 124.3066 "/>
<path d="M182.0633 124.3066 L182.0633 124.6819 "/>
<path d="M182.0633 124.6819 L181.8757 125.2448 "/>
<path d="M181.8757 125.2448 L181.6880 125.4324 "/>
<path d="M180.7499 128.8098 L178.1230 128.8098 "/>
<path d="M182.2509 127.8716 L179.4364 126.9335 "/>
<path d="M179.4364 126.9335 L179.4364 129.3727 "/>
</g><g transform="rotate(-90.000000 38.1727 105.0036)">
<text x="38.1727" y="106.9737" transform="scale(-1 1) translate(-76.345477 0)" textLength="8.8657" font-size="5.2537" lengthAdjust="spacingAndGlyphs" text-anchor="middle" opacity="0.01" style="font-family:monospace">U1</text>
</g>
<g class="stroked-text"><desc>U1</desc>
<path d="M40.3209 102.0015 L37.1312 102.0015 "/>
<path d="M37.1312 102.0015 L36.7559 102.1891 "/>
<path d="M36.7559 102.1891 L36.5682 102.3767 "/>
<path d="M36.5682 102.3767 L36.3806 102.7520 "/>
<path d="M36.3806 102.7520 L36.3806 103.5025 "/>
<path d="M36.3806 103.5025 L36.5682 103.8778 "/>
<path d="M36.5682 103.8778 L36.7559 104.0654 "/>
<path d="M36.7559 104.0654 L37.1312 104.2531 "/>
<path d="M37.1312 104.2531 L40.3209 104.2531 "/>
<path d="M36.3806 108.1934 L36.3806 105.9418 "/>
<path d="M36.3806 107.0676 L40.3209 107.0676 "/>
<path d="M40.3209 107.0676 L39.7580 106.6923 "/>
<path d="M39.7580 106.6923 L39.3828 106.3170 "/>
<path d="M39.3828 106.3170 L39.1951 105.9418 "/>
</g></g>
<g style="fill:#000084; fill-opacity:0.01;  stroke:#000084; stroke-width:1.4776; stroke-opacity:1;  stroke-linecap:round; stroke-linejoin:round;">
<g transform="rotate(-90.000000 206.1871 98.8173)">
<text x="206.1871" y="103.7427" transform="scale(-1 1) translate(-412.374134 0)" textLength="21.6951" font-size="13.1343" lengthAdjust="spacingAndGlyphs" text-anchor="middle" opacity="0.01" style="font-family:monospace">D1</text>
</g>
<g class="stroked-text"><desc>D1</desc>
<path d="M201.7068 91.5465 L211.5575 91.5465 "/>
<path d="M211.5575 91.5465 L211.5575 93.8920 "/>
<path d="M211.5575 93.8920 L211.0884 95.2992 "/>
<path d="M211.0884 95.2992 L210.1503 96.2374 "/>
<path d="M210.1503 96.2374 L209.2121 96.7065 "/>
<path d="M209.2121 96.7065 L207.3358 97.1755 "/>
<path d="M207.3358 97.1755 L205.9285 97.1755 "/>
<path d="M205.9285 97.1755 L204.0522 96.7065 "/>
<path d="M204.0522 96.7065 L203.1140 96.2374 "/>
<path d="M203.1140 96.2374 L202.1758 95.2992 "/>
<path d="M202.1758 95.2992 L201.7068 93.8920 "/>
<path d="M201.7068 93.8920 L201.7068 91.5465 "/>
<path d="M201.7068 106.5572 L201.7068 100.9282 "/>
<path d="M201.7068 103.7427 L211.5575 103.7427 "/>
<path d="M211.5575 103.7427 L210.1503 102.8045 "/>
<path d="M210.1503 102.8045 L209.2121 101.8664 "/>
<path d="M209.2121 101.8664 L208.7430 100.9282 "/>
</g><text x="194.2657" y="164.9375" transform="scale(-1 1) translate(-388.531387 0)" textLength="14.4412" font-size="16.6806" lengthAdjust="spacingAndGlyphs" text-anchor="middle" opacity="0.01" style="font-family:monospace">K</text>
<g class="stroked-text"><desc>K</desc>
<path d="M190.9891 164.3930 L190.9891 151.8826 "/>
<path d="M198.1380 164.3930 L192.7764 157.2442 "/>
<path d="M198.1380 151.8826 L190.9891 159.0314 "/>
</g><g transform="rotate(-90.000000 266.7376 105.0036)">
<text x="266.7376" y="109.9290" transform="scale(-1 1) translate(-533.475268 0)" textLength="19.3497" font-size="13.1343" lengthAdjust="spacingAndGlyphs" text-anchor="middle" opacity="0.01" style="font-family:monospace">J1</text>
</g>
<g class="stroked-text"><desc>J1</desc>
<path d="M272.1081 101.7200 L265.0718 101.7200 "/>
<path d="M265.0718 101.7200 L263.6646 101.2509 "/>
<path d="M263.6646 101.2509 L262.7264 100.3128 "/>
<path d="M262.7264 100.3128 L262.2573 98.9055 "/>
<path d="M262.2573 98.9055 L262.2573 97.9673 "/>
<path d="M262.2573 111.5708 L262.2573 105.9418 "/>
<path d="M262.2573 108.7563 L272.1081 108.7563 "/>
<path d="M272.1081 108.7563 L270.7008 107.8181 "/>
<path d="M270.7008 107.8181 L269.7627 106.8799 "/>
<path d="M269.7627 106.8799 L269.2936 105.9418 "/>
</g></g>
<g style="fill:#000084; fill-opacity:0.01;  stroke:#000084; stroke-width:0.5910; stroke-opacity:1;  stroke-linecap:round; stroke-linejoin:round;">
<text x="115.1120" y="128.3105" transform="scale(-1 1) translate(-230.223984 0)" textLength="8.6780" font-size="5.2537" lengthAdjust="spacingAndGlyphs" text-anchor="middle" opacity="0.01" style="font-family:monospace">R2</text>
<g class="stroked-text"><desc>R2</desc>
<path d="M114.4553 128.1324 L113.1419 126.2561 "/>
<path d="M112.2037 128.1324 L112.2037 124.1921 "/>
<path d="M112.2037 124.1921 L113.7048 124.1921 "/>
<path d="M113.7048 124.1921 L114.0800 124.3798 "/>
<path d="M114.0800 124.3798 L114.2676 124.5674 "/>
<path d="M114.2676 124.5674 L114.4553 124.9427 "/>
<path d="M114.4553 124.9427 L114.4553 125.5056 "/>
<path d="M114.4553 125.5056 L114.2676 125.8808 "/>
<path d="M114.2676 125.8808 L114.0800 126.0685 "/>
<path d="M114.0800 126.0685 L113.7048 126.2561 "/>
<path d="M113.7048 126.2561 L112.2037 126.2561 "/>
<path d="M115.9563 124.5674 L116.1440 124.3798 "/>
<path d="M116.1440 124.3798 L116.5193 124.1921 "/>
<path d="M116.5193 124.1921 L117.4574 124.1921 "/>
<path d="M117.4574 124.1921 L117.8327 124.3798 "/>
<path d="M117.8327 124.3798 L118.0203 124.5674 "/>
<path d="M118.0203 124.5674 L118.2079 124.9427 "/>
<path d="M118.2079 124.9427 L118.2079 125.3179 "/>
<path d="M118.2079 125.3179 L118.0203 125.8808 "/>
<path d="M118.0203 125.8808 L115.7687 128.1324 "/>
<path d="M115.7687 128.1324 L118.2079 128.1324 "/>
</g><text x="38.1727" y="66.6448" transform="scale(-1 1) translate(-76.345477 0)" textLength="8.6780" font-size="5.2537" lengthAdjust="spacingAndGlyphs" text-anchor="middle" opacity="0.01" style="font-family:monospace">C5</text>
<g class="stroked-text"><desc>C5</desc>
<path d="M37.5160 66.0915 L37.3284 66.2791 "/>
<path d="M37.3284 66.2791 L36.7655 66.4668 "/>
<path d="M36.7655 66.4668 L36.3902 66.4668 "/>
<path d="M36.3902 66.4668 L35.8273 66.2791 "/>
<path d="M35.8273 66.2791 L35.4521 65.9039 "/>
<path d="M35.4521 65.9039 L35.2644 65.5286 "/>
<path d="M35.2644 65.5286 L35.0768 64.7781 "/>
<path d="M35.0768 64.7781 L35.0768 64.2152 "/>
<path d="M35.0768 64.2152 L35.2644 63.4646 "/>
<path d="M35.2644 63.4646 L35.4521 63.0894 "/>
<path d="M35.4521 63.0894 L35.8273 62.7141 "/>
<path d="M35.8273 62.7141 L36.3902 62.5265 "/>
<path d="M36.3902 62.5265 L36.7655 62.5265 "/>
<path d="M36.7655 62.5265 L37.3284 62.7141 "/>
<path d="M37.3284 62.7141 L37.5160 62.9017 "/>
<path d="M41.0811 62.5265 L39.2047 62.5265 "/>
<path d="M39.2047 62.5265 L39.0171 64.4028 "/>
<path d="M39.0171 64.4028 L39.2047 64.2152 "/>
<path d="M39.2047 64.2152 L39.5800 64.0275 "/>
<path d="M39.5800 64.0275 L40.5182 64.0275 "/>
<path d="M40.5182 64.0275 L40.8934 64.2152 "/>
<path d="M40.8934 64.2152 L41.0811 64.4028 "/>
<path d="M41.0811 64.4028 L41.2687 64.7781 "/>
<path d="M41.2687 64.7781 L41.2687 65.7162 "/>
<path d="M41.2687 65.7162 L41.0811 66.0915 "/>
<path d="M41.0811 66.0915 L40.8934 66.2791 "/>
<path d="M40.8934 66.2791 L40.5182 66.4668 "/>
<path d="M40.5182 66.4668 L39.5800 66.4668 "/>
<path d="M39.5800 66.4668 L39.2047 66.2791 "/>
<path d="M39.2047 66.2791 L39.0171 66.0915 "/>
</g><text x="165.1538" y="154.5824" transform="scale(-1 1) translate(-330.307567 0)" textLength="8.6780" font-size="5.2537" lengthAdjust="spacingAndGlyphs" text-anchor="middle" opacity="0.01" style="font-family:monospace">R4</text>
<g class="stroked-text"><desc>R4</desc>
<path d="M164.4971 154.4044 L163.1836 152.5280 "/>
<path d="M162.2455 154.4044 L162.2455 150.4641 "/>
<path d="M162.2455 150.4641 L163.7465 150.4641 "/>
<path d="M163.7465 150.4641 L164.1218 150.6517 "/>
<path d="M164.1218 150.6517 L164.3094 150.8393 "/>
<path d="M164.3094 150.8393 L164.4971 151.2146 "/>
<path d="M164.4971 151.2146 L164.4971 151.7775 "/>
<path d="M164.4971 151.7775 L164.3094 152.1528 "/>
<path d="M164.3094 152.1528 L164.1218 152.3404 "/>
<path d="M164.1218 152.3404 L163.7465 152.5280 "/>
<path d="M163.7465 152.5280 L162.2455 152.5280 "/>
<path d="M167.8745 151.7775 L167.8745 154.4044 "/>
<path d="M166.9363 150.2764 L165.9981 153.0909 "/>
<path d="M165.9981 153.0909 L168.4374 153.0909 "/>
</g><g transform="rotate(-90.000000 169.2271 82.8394)">
<text x="169.2271" y="84.8096" transform="scale(-1 1) translate(-338.454134 0)" textLength="8.6780" font-size="5.2537" lengthAdjust="spacingAndGlyphs" text-anchor="middle" opacity="0.01" style="font-family:monospace">C1</text>
</g>
<g class="stroked-text"><desc>C1</desc>
<path d="M167.8102 82.1827 L167.6226 81.9951 "/>
<path d="M167.6226 81.9951 L167.4350 81.4322 "/>
<path d="M167.4350 81.4322 L167.4350 81.0569 "/>
<path d="M167.4350 81.0569 L167.6226 80.4940 "/>
<path d="M167.6226 80.4940 L167.9979 80.1187 "/>
<path d="M167.9979 80.1187 L168.3731 79.9311 "/>
<path d="M168.3731 79.9311 L169.1236 79.7435 "/>
<path d="M169.1236 79.7435 L169.6865 79.7435 "/>
<path d="M169.6865 79.7435 L170.4371 79.9311 "/>
<path d="M170.4371 79.9311 L170.8123 80.1187 "/>
<path d="M170.8123 80.1187 L171.1876 80.4940 "/>
<path d="M171.1876 80.4940 L171.3752 81.0569 "/>
<path d="M171.3752 81.0569 L171.3752 81.4322 "/>
<path d="M171.3752 81.4322 L171.1876 81.9951 "/>
<path d="M171.1876 81.9951 L171.0000 82.1827 "/>
<path d="M167.4350 85.9354 L167.4350 83.6838 "/>
<path d="M167.4350 84.8096 L171.3752 84.8096 "/>
<path d="M171.3752 84.8096 L170.8123 84.4343 "/>
<path d="M170.8123 84.4343 L170.4371 84.0590 "/>
<path d="M170.4371 84.0590 L170.2494 83.6838 "/>
</g></g>
<g style="fill:#000084; fill-opacity:0.0;  stroke:#000084; stroke-width:0.7388; stroke-opacity:1;  stroke-linecap:round; stroke-linejoin:round;">
<g transform="rotate(-90.000000 149.8901 122.5872)">
<text x="149.8901" y="125.0499" transform="scale(-1 1) translate(-299.780104 0)" textLength="11.0821" font-size="6.5672" lengthAdjust="spacingAndGlyphs" text-anchor="middle" opacity="0.01" style="font-family:monospace">Q1</text>
</g>
<g class="stroked-text"><desc>Q1</desc>
<path d="M147.1808 122.1181 L147.4154 121.6490 "/>
<path d="M147.4154 121.6490 L147.8844 121.1799 "/>
<path d="M147.8844 121.1799 L148.5881 120.4763 "/>
<path d="M148.5881 120.4763 L148.8226 120.0072 "/>
<path d="M148.8226 120.0072 L148.8226 119.5381 "/>
<path d="M147.6499 119.7727 L147.8844 119.3036 "/>
<path d="M147.8844 119.3036 L148.3535 118.8345 "/>
<path d="M148.3535 118.8345 L149.2917 118.6000 "/>
<path d="M149.2917 118.6000 L150.9335 118.6000 "/>
<path d="M150.9335 118.6000 L151.8716 118.8345 "/>
<path d="M151.8716 118.8345 L152.3407 119.3036 "/>
<path d="M152.3407 119.3036 L152.5753 119.7727 "/>
<path d="M152.5753 119.7727 L152.5753 120.7108 "/>
<path d="M152.5753 120.7108 L152.3407 121.1799 "/>
<path d="M152.3407 121.1799 L151.8716 121.6490 "/>
<path d="M151.8716 121.6490 L150.9335 121.8835 "/>
<path d="M150.9335 121.8835 L149.2917 121.8835 "/>
<path d="M149.2917 121.8835 L148.3535 121.6490 "/>
<path d="M148.3535 121.6490 L147.8844 121.1799 "/>
<path d="M147.8844 121.1799 L147.6499 120.7108 "/>
<path d="M147.6499 120.7108 L147.6499 119.7727 "/>
<path d="M147.6499 126.5744 L147.6499 123.7599 "/>
<path d="M147.6499 125.1671 L152.5753 125.1671 "/>
<path d="M152.5753 125.1671 L151.8716 124.6981 "/>
<path d="M151.8716 124.6981 L151.4026 124.2290 "/>
<path d="M151.4026 124.2290 L151.1680 123.7599 "/>
</g></g>
<g style="fill:#000084; fill-opacity:0.0;  stroke:#000084; stroke-width:1.0759; stroke-opacity:1;  stroke-linecap:round; stroke-linejoin:round;">
<g transform="rotate(-90.000000 189.4605 81.8396)">
<text x="189.4605" y="84.3041" transform="scale(-1 1) translate(-378.920999 0)" textLength="11.8654" font-size="6.5722" lengthAdjust="spacingAndGlyphs" text-anchor="middle" opacity="0.01" style="font-family:monospace">C3</text>
</g>
<g class="stroked-text"><desc>C3</desc>
<path d="M187.7056 81.0180 L187.4709 80.7833 "/>
<path d="M187.4709 80.7833 L187.2362 80.0792 "/>
<path d="M187.2362 80.0792 L187.2362 79.6097 "/>
<path d="M187.2362 79.6097 L187.4709 78.9056 "/>
<path d="M187.4709 78.9056 L187.9403 78.4361 "/>
<path d="M187.9403 78.4361 L188.4098 78.2014 "/>
<path d="M188.4098 78.2014 L189.3486 77.9667 "/>
<path d="M189.3486 77.9667 L190.0528 77.9667 "/>
<path d="M190.0528 77.9667 L190.9917 78.2014 "/>
<path d="M190.9917 78.2014 L191.4611 78.4361 "/>
<path d="M191.4611 78.4361 L191.9305 78.9056 "/>
<path d="M191.9305 78.9056 L192.1653 79.6097 "/>
<path d="M192.1653 79.6097 L192.1653 80.0792 "/>
<path d="M192.1653 80.0792 L191.9305 80.7833 "/>
<path d="M191.9305 80.7833 L191.6958 81.0180 "/>
<path d="M192.1653 82.6611 L192.1653 85.7124 "/>
<path d="M192.1653 85.7124 L190.2875 84.0694 "/>
<path d="M190.2875 84.0694 L190.2875 84.7736 "/>
<path d="M190.2875 84.7736 L190.0528 85.2430 "/>
<path d="M190.0528 85.2430 L189.8181 85.4777 "/>
<path d="M189.8181 85.4777 L189.3486 85.7124 "/>
<path d="M189.3486 85.7124 L188.1750 85.7124 "/>
<path d="M188.1750 85.7124 L187.7056 85.4777 "/>
<path d="M187.7056 85.4777 L187.4709 85.2430 "/>
<path d="M187.4709 85.2430 L187.2362 84.7736 "/>
<path d="M187.2362 84.7736 L187.2362 83.3652 "/>
<path d="M187.2362 83.3652 L187.4709 82.8958 "/>
<path d="M187.4709 82.8958 L187.7056 82.6611 "/>
</g></g>
<g style="fill:#000084; fill-opacity:0.01;  stroke:#000084; stroke-width:0.7388; stroke-opacity:1;  stroke-linecap:round; stroke-linejoin:round;">
<text x="207.4381" y="121.2967" transform="scale(-1 1) translate(-414.876223 0)" textLength="11.0821" font-size="6.5672" lengthAdjust="spacingAndGlyphs" text-anchor="middle" opacity="0.01" style="font-family:monospace">U3</text>
<g class="stroked-text"><desc>U3</desc>
<path d="M203.6855 116.1488 L203.6855 120.1360 "/>
<path d="M203.6855 120.1360 L203.9200 120.6051 "/>
<path d="M203.9200 120.6051 L204.1545 120.8397 "/>
<path d="M204.1545 120.8397 L204.6236 121.0742 "/>
<path d="M204.6236 121.0742 L205.5618 121.0742 "/>
<path d="M205.5618 121.0742 L206.0309 120.8397 "/>
<path d="M206.0309 120.8397 L206.2654 120.6051 "/>
<path d="M206.2654 120.6051 L206.4999 120.1360 "/>
<path d="M206.4999 120.1360 L206.4999 116.1488 "/>
<path d="M208.3763 116.1488 L211.4253 116.1488 "/>
<path d="M211.4253 116.1488 L209.7835 118.0252 "/>
<path d="M209.7835 118.0252 L210.4872 118.0252 "/>
<path d="M210.4872 118.0252 L210.9562 118.2597 "/>
<path d="M210.9562 118.2597 L211.1908 118.4942 "/>
<path d="M211.1908 118.4942 L211.4253 118.9633 "/>
<path d="M211.4253 118.9633 L211.4253 120.1360 "/>
<path d="M211.4253 120.1360 L211.1908 120.6051 "/>
<path d="M211.1908 120.6051 L210.9562 120.8397 "/>
<path d="M210.9562 120.8397 L210.4872 121.0742 "/>
<path d="M210.4872 121.0742 L209.0799 121.0742 "/>
<path d="M209.0799 121.0742 L208.6108 120.8397 "/>
<path d="M208.6108 120.8397 L208.3763 120.6051 "/>
</g></g>
<g style="fill:#000084; fill-opacity:0.0;  stroke:#000084; stroke-width:0.5910; stroke-opacity:1;  stroke-linecap:round; stroke-linejoin:round;">
<g transform="rotate(-90.000000 121.1160 77.5496)">
<text x="121.1160" y="79.5197" transform="scale(-1 1) translate(-242.232044 0)" textLength="8.6780" font-size="5.2537" lengthAdjust="spacingAndGlyphs" text-anchor="middle" opacity="0.01" style="font-family:monospace">R3</text>
</g>
<g class="stroked-text"><desc>R3</desc>
<path d="M119.3239 76.8928 L121.2002 75.5794 "/>
<path d="M119.3239 74.6413 L123.2642 74.6413 "/>
<path d="M123.2642 74.6413 L123.2642 76.1423 "/>
<path d="M123.2642 76.1423 L123.0766 76.5176 "/>
<path d="M123.0766 76.5176 L122.8889 76.7052 "/>
<path d="M122.8889 76.7052 L122.5137 76.8928 "/>
<path d="M122.5137 76.8928 L121.9508 76.8928 "/>
<path d="M121.9508 76.8928 L121.5755 76.7052 "/>
<path d="M121.5755 76.7052 L121.3879 76.5176 "/>
<path d="M121.3879 76.5176 L121.2002 76.1423 "/>
<path d="M121.2002 76.1423 L121.2002 74.6413 "/>
<path d="M123.2642 78.2063 L123.2642 80.6455 "/>
<path d="M123.2642 80.6455 L121.7631 79.3321 "/>
<path d="M121.7631 79.3321 L121.7631 79.8950 "/>
<path d="M121.7631 79.8950 L121.5755 80.2702 "/>
<path d="M121.5755 80.2702 L121.3879 80.4579 "/>
<path d="M121.3879 80.4579 L121.0126 80.6455 "/>
<path d="M121.0126 80.6455 L120.0744 80.6455 "/>
<path d="M120.0744 80.6455 L119.6992 80.4579 "/>
<path d="M119.6992 80.4579 L119.5115 80.2702 "/>
<path d="M119.5115 80.2702 L119.3239 79.8950 "/>
<path d="M119.3239 79.8950 L119.3239 78.7692 "/>
<path d="M119.3239 78.7692 L119.5115 78.3939 "/>
<path d="M119.5115 78.3939 L119.6992 78.2063 "/>
</g><g transform="rotate(-90.000000 143.6348 77.8008)">
<text x="143.6348" y="79.7709" transform="scale(-1 1) translate(-287.269656 0)" textLength="12.4307" font-size="5.2537" lengthAdjust="spacingAndGlyphs" text-anchor="middle" opacity="0.01" style="font-family:monospace">R10</text>
</g>
<g class="stroked-text"><desc>R10</desc>
<path d="M141.8427 75.2677 L143.7190 73.9543 "/>
<path d="M141.8427 73.0161 L145.7830 73.0161 "/>
<path d="M145.7830 73.0161 L145.7830 74.5172 "/>
<path d="M145.7830 74.5172 L145.5954 74.8924 "/>
<path d="M145.5954 74.8924 L145.4077 75.0801 "/>
<path d="M145.4077 75.0801 L145.0325 75.2677 "/>
<path d="M145.0325 75.2677 L144.4696 75.2677 "/>
<path d="M144.4696 75.2677 L144.0943 75.0801 "/>
<path d="M144.0943 75.0801 L143.9067 74.8924 "/>
<path d="M143.9067 74.8924 L143.7190 74.5172 "/>
<path d="M143.7190 74.5172 L143.7190 73.0161 "/>
<path d="M141.8427 79.0204 L141.8427 76.7688 "/>
<path d="M141.8427 77.8946 L145.7830 77.8946 "/>
<path d="M145.7830 77.8946 L145.2201 77.5193 "/>
<path d="M145.2201 77.5193 L144.8448 77.1440 "/>
<path d="M144.8448 77.1440 L144.6572 76.7688 "/>
<path d="M145.7830 81.4596 L145.7830 81.8349 "/>
<path d="M145.7830 81.8349 L145.5954 82.2101 "/>
<path d="M145.5954 82.2101 L145.4077 82.3978 "/>
<path d="M145.4077 82.3978 L145.0325 82.5854 "/>
<path d="M145.0325 82.5854 L144.2819 82.7730 "/>
<path d="M144.2819 82.7730 L143.3438 82.7730 "/>
<path d="M143.3438 82.7730 L142.5932 82.5854 "/>
<path d="M142.5932 82.5854 L142.2180 82.3978 "/>
<path d="M142.2180 82.3978 L142.0303 82.2101 "/>
<path d="M142.0303 82.2101 L141.8427 81.8349 "/>
<path d="M141.8427 81.8349 L141.8427 81.4596 "/>
<path d="M141.8427 81.4596 L142.0303 81.0843 "/>
<path d="M142.0303 81.0843 L142.2180 80.8967 "/>
<path d="M142.2180 80.8967 L142.5932 80.7091 "/>
<path d="M142.5932 80.7091 L143.3438 80.5214 "/>
<path d="M143.3438 80.5214 L144.2819 80.5214 "/>
<path d="M144.2819 80.5214 L145.0325 80.7091 "/>
<path d="M145.0325 80.7091 L145.4077 80.8967 "/>
<path d="M145.4077 80.8967 L145.5954 81.0843 "/>
<path d="M145.5954 81.0843 L145.7830 81.4596 "/>
</g><g transform="rotate(-90.000000 223.1599 81.8543)">
<text x="223.1599" y="83.8245" transform="scale(-1 1) translate(-446.319805 0)" textLength="8.6780" font-size="5.2537" lengthAdjust="spacingAndGlyphs" text-anchor="middle" opacity="0.01" style="font-family:monospace">R1</text>
</g>
<g class="stroked-text"><desc>R1</desc>
<path d="M221.3678 81.1976 L223.2441 79.8842 "/>
<path d="M221.3678 78.9460 L225.3081 78.9460 "/>
<path d="M225.3081 78.9460 L225.3081 80.4471 "/>
<path d="M225.3081 80.4471 L225.1204 80.8224 "/>
<path d="M225.1204 80.8224 L224.9328 81.0100 "/>
<path d="M224.9328 81.0100 L224.5575 81.1976 "/>
<path d="M224.5575 81.1976 L223.9947 81.1976 "/>
<path d="M223.9947 81.1976 L223.6194 81.0100 "/>
<path d="M223.6194 81.0100 L223.4318 80.8224 "/>
<path d="M223.4318 80.8224 L223.2441 80.4471 "/>
<path d="M223.2441 80.4471 L223.2441 78.9460 "/>
<path d="M221.3678 84.9503 L221.3678 82.6987 "/>
<path d="M221.3678 83.8245 L225.3081 83.8245 "/>
<path d="M225.3081 83.8245 L224.7452 83.4492 "/>
<path d="M224.7452 83.4492 L224.3699 83.0740 "/>
<path d="M224.3699 83.0740 L224.1823 82.6987 "/>
</g></g>
<g style="fill:#000084; fill-opacity:0.0;  stroke:#000084; stroke-width:1.4776; stroke-opacity:1;  stroke-linecap:round; stroke-linejoin:round;">
<path d="M237.1578 39.0036 L237.1578 62.6454 "/>
<path d="M237.1578 62.6454 L187.9041 62.6454 "/>
<path d="M187.9041 39.0036 L237.1578 39.0036 "/>
<path d="M187.9041 62.6454 L187.9041 39.0036 "/>
</g>
<g style="fill:#000084; fill-opacity:0.0;  stroke:#000084; stroke-width:0.9851; stroke-opacity:1;  stroke-linecap:round; stroke-linejoin:round;">
<path d="M183.8554 133.9697 L175.9748 133.9697 "/>
<path d="M175.9748 133.9697 L175.9748 118.2085 "/>
<path d="M183.8554 118.2085 L183.8554 133.9697 "/>
<path d="M175.9748 118.2085 L183.8554 118.2085 "/>
<path d="M50.4862 117.3170 L30.7847 117.3170 "/>
<path d="M30.7847 117.3170 L25.8593 112.3917 "/>
<path d="M25.8593 112.3917 L25.8593 92.6902 "/>
<path d="M50.4862 92.6902 L50.4862 117.3170 "/>
<path d="M25.8593 92.6902 L50.4862 92.6902 "/>
<path d="M211.3390 88.9961 L202.4733 88.9961 "/>
<path d="M202.4733 88.9961 L202.4733 76.1902 "/>
<path d="M208.8763 84.5633 L204.9360 84.5633 "/>
<path d="M206.9062 84.5633 L206.9062 86.0409 "/>
<path d="M206.9062 84.5633 L208.8763 81.6081 "/>
<path d="M208.8763 81.6081 L204.9360 81.6081 "/>
<path d="M206.9062 81.6081 L206.9062 80.1305 "/>
<path d="M204.9360 81.6081 L206.9062 84.5633 "/>
<path d="M211.3390 76.1902 L211.3390 88.9961 "/>
<path d="M202.4733 76.1902 L211.3390 76.1902 "/>
</g>
<g style="fill:#000084; fill-opacity:0.0;  stroke:#000084; stroke-width:1.4776; stroke-opacity:1;  stroke-linecap:round; stroke-linejoin:round;">
<path d="M237.1578 147.3618 L237.1578 171.0036 "/>
<path d="M237.1578 171.0036 L187.9041 171.0036 "/>
<path d="M187.9041 147.3618 L237.1578 147.3618 "/>
<path d="M187.9041 171.0036 L187.9041 147.3618 "/>
</g>
<g style="fill:#000084; fill-opacity:0.0;  stroke:#000084; stroke-width:0.9851; stroke-opacity:1;  stroke-linecap:round; stroke-linejoin:round;">
<path d="M290.8720 145.6379 L290.8720 64.3693 "/>
<path d="M250.9764 145.6379 L290.8720 145.6379 "/>
<path d="M250.9764 145.6379 L250.9764 64.3693 "/>
<path d="M250.9764 128.3991 L257.9420 123.4737 "/>
<path d="M257.9420 123.4737 L250.9764 118.5484 "/>
<path d="M250.9764 64.3693 L290.8720 64.3693 "/>
<path d="M107.2314 130.2806 L107.2314 122.4000 "/>
<path d="M107.2314 122.4000 L122.9926 122.4000 "/>
<path d="M122.9926 130.2806 L107.2314 130.2806 "/>
<path d="M122.9926 122.4000 L122.9926 130.2806 "/>
<path d="M46.0533 60.7343 L46.0533 68.6149 "/>
<path d="M46.0533 68.6149 L30.2921 68.6149 "/>
<path d="M30.2921 60.7343 L46.0533 60.7343 "/>
<path d="M30.2921 68.6149 L30.2921 60.7343 "/>
<path d="M157.2732 156.5526 L157.2732 148.6720 "/>
<path d="M157.2732 148.6720 L173.0344 148.6720 "/>
<path d="M173.0344 156.5526 L157.2732 156.5526 "/>
<path d="M173.0344 148.6720 L173.0344 156.5526 "/>
<path d="M173.1674 90.7200 L165.2868 90.7200 "/>
<path d="M165.2868 90.7200 L165.2868 74.9588 "/>
<path d="M173.1674 74.9588 L173.1674 90.7200 "/>
<path d="M165.2868 74.9588 L173.1674 74.9588 "/>
<path d="M142.9945 137.5603 L156.7856 137.5603 "/>
<path d="M142.9945 113.2290 L142.9945 137.3633 "/>
<path d="M142.9945 113.2290 L148.4124 107.6140 "/>
<path d="M148.4124 107.6140 L156.7856 107.6140 "/>
<path d="M156.7856 107.6140 L156.7856 137.5603 "/>
</g>
<g style="fill:#000084; fill-opacity:0.0;  stroke:#000084; stroke-width:1.4776; stroke-opacity:1;  stroke-linecap:round; stroke-linejoin:round;">
<path d="M197.1736 96.3743 L182.1611 96.3743 "/>
<path d="M182.1611 96.3743 L182.1611 86.3660 "/>
<path d="M197.1736 86.3660 L197.1736 96.3743 "/>
<path d="M182.1611 76.3576 L182.1611 66.3493 "/>
<path d="M197.1736 66.3493 L197.1736 76.3576 "/>
<path d="M182.1611 66.3493 L197.1736 66.3493 "/>
</g>
<g style="fill:#000084; fill-opacity:0.0;  stroke:#000084; stroke-width:0.9851; stroke-opacity:1;  stroke-linecap:round; stroke-linejoin:round;">
<path d="M198.5724 127.6997 L222.7068 127.6997 "/>
<path d="M198.5724 127.6997 L192.1695 121.2967 "/>
<path d="M222.7068 109.9684 L222.7068 127.6997 "/>
<path d="M192.1695 109.9684 L192.1695 121.2967 "/>
<path d="M192.1695 109.9684 L222.7068 109.9684 "/>
<path d="M117.1757 69.6690 L125.0563 69.6690 "/>
<path d="M125.0563 69.6690 L125.0563 85.4302 "/>
<path d="M117.1757 85.4302 L117.1757 69.6690 "/>
<path d="M125.0563 85.4302 L117.1757 85.4302 "/>
<path d="M139.6945 69.9202 L147.5751 69.9202 "/>
<path d="M147.5751 69.9202 L147.5751 85.6814 "/>
<path d="M139.6945 85.6814 L139.6945 69.9202 "/>
<path d="M147.5751 85.6814 L139.6945 85.6814 "/>
<path d="M227.1002 89.7349 L219.2196 89.7349 "/>
<path d="M219.2196 89.7349 L219.2196 73.9737 "/>
<path d="M227.1002 73.9737 L227.1002 89.7349 "/>
<path d="M219.2196 73.9737 L227.1002 73.9737 "/>
<g>
</g>
<g>
</g>
<g>
</g>
<g>
</g>
<g>
</g>
<g>
</g>
<g>
</g>
<g>
</g>
<g>
</g>
<g>
</g>
<g>
</g>
<g>
</g>
<g>
</g>
<g>
</g>
<g>
</g>
<g>
</g>
<g>
</g>
<g>
</g>
<g>
</g>
<g>
</g>
<g>
</g>
<g>
</g>
<g>
</g>
<g>
</g>
<g>
</g>
<g>
</g>
<g>
</g>
<g>
</g>
<g>
</g>
<g>
</g>
<g>
</g>
<g>
</g>
<g>
</g>
<g>
</g>
<g>
</g>
<g>
</g>
<g>
</g>
</g> 
<svg:g><svg:g><svg:title>SVG Image created as TFHT01-Edge_Cuts.svg date 2023/11/13 01:10:22 </svg:title>
  <svg:desc>Image generated by PCBNEW </svg:desc>
<svg:g style="fill:#C2C200; fill-opacity:1.0000;stroke:#C2C200; stroke-opacity:1.0000; stroke-linecap:round; stroke-linejoin:round;" transform="translate(0 0) scale(1 1)">
</svg:g>
<svg:g style="fill:#C2C200; fill-opacity:0.0;  stroke:#C2C200; stroke-width:0.0000; stroke-opacity:1;  stroke-linecap:round; stroke-linejoin:round;">
</svg:g>
<svg:g style="fill:#C2C200; fill-opacity:0.0;  stroke:#C2C200; stroke-width:1.4776; stroke-opacity:1;  stroke-linecap:round; stroke-linejoin:round;">
<svg:path style="fill:#C2C200; fill-opacity:0.0;  stroke:#C2C200; stroke-width:1.4776; stroke-opacity:1;  stroke-linecap:round; stroke-linejoin:round;fill:none" d="M 296.2623,31.1230 0.7399,31.1230 0.7399,178.8842 296.2623,178.8842 Z"/> 
</svg:g>
<svg:g style="fill:#C2C200; fill-opacity:0.0;  stroke:#C2C200; stroke-width:0.4925; stroke-opacity:1;  stroke-linecap:round; stroke-linejoin:round;">
<svg:path d="M223.3668 57.7200 L223.3668 43.9290 "/>
<svg:path d="M220.4115 40.9737 L204.6504 40.9737 "/>
<svg:path d="M204.6504 60.6752 L220.4115 60.6752 "/>
<svg:path d="M201.6951 43.9290 L201.6951 57.7200 "/>
<svg:path d="M223.3668 43.9290 A2.9552 2.9552 0.0 0 0 220.4115 40.9737"/>
<svg:path d="M220.4115 60.6752 A2.9552 2.9552 0.0 0 0 223.3668 57.7200"/>
<svg:path d="M204.6504 40.9737 A2.9552 2.9552 0.0 0 0 201.6951 43.9290"/>
<svg:path d="M201.6951 57.7200 A2.9552 2.9552 0.0 0 0 204.6504 60.6752"/>
<svg:path d="M223.3668 166.0782 L223.3668 152.2872 "/>
<svg:path d="M220.4115 149.3320 L204.6504 149.3320 "/>
<svg:path d="M204.6504 169.0334 L220.4115 169.0334 "/>
<svg:path d="M201.6951 152.2872 L201.6951 166.0782 "/>
<svg:path d="M223.3668 152.2872 A2.9552 2.9552 0.0 0 0 220.4115 149.3320"/>
<svg:path d="M220.4115 169.0334 A2.9552 2.9552 0.0 0 0 223.3668 166.0782"/>
<svg:path d="M204.6504 149.3320 A2.9552 2.9552 0.0 0 0 201.6951 152.2872"/>
<svg:path d="M201.6951 166.0782 A2.9552 2.9552 0.0 0 0 204.6504 169.0334"/>
<svg:g>
</svg:g>
<svg:g>
</svg:g>
<svg:g>
</svg:g>
<svg:g>
</svg:g>
<svg:g>
</svg:g>
<svg:g>
</svg:g>
<svg:g>
</svg:g>
<svg:g>
</svg:g>
<svg:g>
</svg:g>
<svg:g>
</svg:g>
<svg:g>
</svg:g>
<svg:g>
</svg:g>
<svg:g>
</svg:g>
<svg:g>
</svg:g>
<svg:g>
</svg:g>
<svg:g>
</svg:g>
<svg:g>
</svg:g>
<svg:g>
</svg:g>
<svg:g>
</svg:g>
<svg:g>
</svg:g>
<svg:g>
</svg:g>
<svg:g>
</svg:g>
<svg:g>
</svg:g>
<svg:g>
</svg:g>
<svg:g>
</svg:g>
<svg:g>
</svg:g>
<svg:g>
</svg:g>
<svg:g>
</svg:g>
<svg:g>
</svg:g>
<svg:g>
</svg:g>
<svg:g>
</svg:g>
<svg:g>
</svg:g>
<svg:g>
</svg:g>
<svg:g>
</svg:g>
<svg:g>
</svg:g>
<svg:g>
</svg:g>
<svg:g>
</svg:g>
</svg:g> 
</svg:g></svg:g></svg>
