%TF.GenerationSoftware,KiCad,Pcbnew,7.0.8-7.0.8~ubuntu23.04.1*%
%TF.CreationDate,2023-11-13T01:09:08+00:00*%
%TF.ProjectId,TFHT01,54464854-3031-42e6-9b69-6361645f7063,rev?*%
%TF.SameCoordinates,Original*%
%TF.FileFunction,Legend,Bot*%
%TF.FilePolarity,Positive*%
%FSLAX46Y46*%
G04 Gerber Fmt 4.6, Leading zero omitted, Abs format (unit mm)*
G04 Created by KiCad (PCBNEW 7.0.8-7.0.8~ubuntu23.04.1) date 2023-11-13 01:09:08*
%MOMM*%
%LPD*%
G01*
G04 APERTURE LIST*
%ADD10C,0.150000*%
%ADD11C,0.120000*%
G04 APERTURE END LIST*
D10*
X18904333Y4545181D02*
X18904333Y3830896D01*
X18904333Y3830896D02*
X18951952Y3688039D01*
X18951952Y3688039D02*
X19047190Y3592800D01*
X19047190Y3592800D02*
X19190047Y3545181D01*
X19190047Y3545181D02*
X19285285Y3545181D01*
X18428142Y3545181D02*
X18428142Y4545181D01*
X18428142Y4545181D02*
X18047190Y4545181D01*
X18047190Y4545181D02*
X17951952Y4497562D01*
X17951952Y4497562D02*
X17904333Y4449943D01*
X17904333Y4449943D02*
X17856714Y4354705D01*
X17856714Y4354705D02*
X17856714Y4211848D01*
X17856714Y4211848D02*
X17904333Y4116610D01*
X17904333Y4116610D02*
X17951952Y4068991D01*
X17951952Y4068991D02*
X18047190Y4021372D01*
X18047190Y4021372D02*
X18428142Y4021372D01*
X16904333Y3545181D02*
X17475761Y3545181D01*
X17190047Y3545181D02*
X17190047Y4545181D01*
X17190047Y4545181D02*
X17285285Y4402324D01*
X17285285Y4402324D02*
X17380523Y4307086D01*
X17380523Y4307086D02*
X17475761Y4259467D01*
X26907904Y3995181D02*
X26907904Y3185658D01*
X26907904Y3185658D02*
X26860285Y3090420D01*
X26860285Y3090420D02*
X26812666Y3042800D01*
X26812666Y3042800D02*
X26717428Y2995181D01*
X26717428Y2995181D02*
X26526952Y2995181D01*
X26526952Y2995181D02*
X26431714Y3042800D01*
X26431714Y3042800D02*
X26384095Y3090420D01*
X26384095Y3090420D02*
X26336476Y3185658D01*
X26336476Y3185658D02*
X26336476Y3995181D01*
X25336476Y2995181D02*
X25907904Y2995181D01*
X25622190Y2995181D02*
X25622190Y3995181D01*
X25622190Y3995181D02*
X25717428Y3852324D01*
X25717428Y3852324D02*
X25812666Y3757086D01*
X25812666Y3757086D02*
X25907904Y3709467D01*
X4351019Y2365334D02*
X5065304Y2365334D01*
X5065304Y2365334D02*
X5208161Y2412953D01*
X5208161Y2412953D02*
X5303400Y2508191D01*
X5303400Y2508191D02*
X5351019Y2651048D01*
X5351019Y2651048D02*
X5351019Y2746286D01*
X5351019Y1365334D02*
X5351019Y1936762D01*
X5351019Y1651048D02*
X4351019Y1651048D01*
X4351019Y1651048D02*
X4493876Y1746286D01*
X4493876Y1746286D02*
X4589114Y1841524D01*
X4589114Y1841524D02*
X4636733Y1936762D01*
D11*
%TO.C,JP1*%
X20084000Y1732000D02*
X20084000Y2332000D01*
X19534000Y532000D02*
X18934000Y532000D01*
X19434000Y3032000D02*
X16634000Y3032000D01*
X19234000Y832000D02*
X19534000Y532000D01*
X19234000Y832000D02*
X18934000Y532000D01*
X16634000Y1032000D02*
X19434000Y1032000D01*
X15984000Y2332000D02*
X15984000Y1732000D01*
X19384000Y1032000D02*
G75*
G03*
X20084000Y1732000I1J699999D01*
G01*
X20084000Y2332000D02*
G75*
G03*
X19384000Y3032000I-699999J1D01*
G01*
X15984000Y1732000D02*
G75*
G03*
X16684000Y1032000I700000J0D01*
G01*
X16684000Y3032000D02*
G75*
G03*
X15984000Y2332000I0J-700000D01*
G01*
%TO.C,C4*%
X11301000Y5196721D02*
X11301000Y5522279D01*
X12321000Y5196721D02*
X12321000Y5522279D01*
%TO.C,U1*%
X27610000Y6410000D02*
X27610000Y8150000D01*
X24790000Y6850000D02*
X24790000Y8150000D01*
%TO.C,D1*%
X9671000Y8625000D02*
X8471000Y8625000D01*
X8471000Y10475000D02*
X8471000Y8625000D01*
X9671000Y10475000D02*
X9671000Y8625000D01*
%TO.C,J1*%
X3257200Y3265000D02*
X4707200Y3265000D01*
X4707200Y3265000D02*
X4707200Y5065000D01*
X437200Y4535000D02*
X437200Y10465000D01*
X4707200Y5065000D02*
X5697200Y5065000D01*
X3257200Y11735000D02*
X4707200Y11735000D01*
X4707200Y11735000D02*
X4707200Y9935000D01*
%TO.C,R2*%
X18552279Y4824000D02*
X18226721Y4824000D01*
X18552279Y5844000D02*
X18226721Y5844000D01*
%TO.C,C5*%
X26037221Y12104000D02*
X26362779Y12104000D01*
X26037221Y11084000D02*
X26362779Y11084000D01*
%TO.C,R4*%
X13472279Y2157000D02*
X13146721Y2157000D01*
X13472279Y3177000D02*
X13146721Y3177000D01*
%TO.C,C1*%
X12386000Y9587221D02*
X12386000Y9912779D01*
X13406000Y9587221D02*
X13406000Y9912779D01*
%TO.C,Q1*%
X14099000Y4135000D02*
X15559000Y4135000D01*
X14099000Y4135000D02*
X14099000Y5065000D01*
X14099000Y7295000D02*
X16259000Y7295000D01*
X14099000Y7295000D02*
X14099000Y6365000D01*
D10*
%TO.C,C3*%
X10059000Y8376000D02*
X11583000Y8376000D01*
D11*
X10059000Y9519000D02*
X10059000Y10281000D01*
X11583000Y9519000D02*
X11583000Y10281000D01*
D10*
X11583000Y11424000D02*
X10059000Y11424000D01*
D11*
%TO.C,U3*%
X7407000Y5196000D02*
X7407000Y6996000D01*
X10627000Y6996000D02*
X10627000Y4546000D01*
%TO.C,R3*%
X18290000Y10449779D02*
X18290000Y10124221D01*
X17270000Y10449779D02*
X17270000Y10124221D01*
%TO.C,R10*%
X16004000Y10424279D02*
X16004000Y10098721D01*
X14984000Y10424279D02*
X14984000Y10098721D01*
%TO.C,R1*%
X6911000Y9687221D02*
X6911000Y10012779D01*
X7931000Y9687221D02*
X7931000Y10012779D01*
%TO.C,M7*%
X29200000Y10500000D02*
X23200000Y10500000D01*
X23200000Y10500000D02*
X23200000Y4500000D01*
X23200000Y4500000D02*
X29200000Y4500000D01*
X29200000Y4500000D02*
X29200000Y10500000D01*
X28200000Y9500000D02*
X24200000Y9500000D01*
X24200000Y9500000D02*
X24200000Y5500000D01*
X24200000Y5500000D02*
X28200000Y5500000D01*
X28200000Y5500000D02*
X28200000Y9500000D01*
X29400000Y7500000D02*
G75*
G03*
X29400000Y7500000I-3200000J0D01*
G01*
%TD*%
M02*
