%TF.GenerationSoftware,KiCad,Pcbnew,7.0.8-7.0.8~ubuntu23.04.1*%
%TF.CreationDate,2023-11-13T01:09:08+00:00*%
%TF.ProjectId,TFHT01,54464854-3031-42e6-9b69-6361645f7063,rev?*%
%TF.SameCoordinates,Original*%
%TF.FileFunction,Soldermask,Bot*%
%TF.FilePolarity,Negative*%
%FSLAX46Y46*%
G04 Gerber Fmt 4.6, Leading zero omitted, Abs format (unit mm)*
G04 Created by KiCad (PCBNEW 7.0.8-7.0.8~ubuntu23.04.1) date 2023-11-13 01:09:08*
%MOMM*%
%LPD*%
G01*
G04 APERTURE LIST*
G04 Aperture macros list*
%AMRoundRect*
0 Rectangle with rounded corners*
0 $1 Rounding radius*
0 $2 $3 $4 $5 $6 $7 $8 $9 X,Y pos of 4 corners*
0 Add a 4 corners polygon primitive as box body*
4,1,4,$2,$3,$4,$5,$6,$7,$8,$9,$2,$3,0*
0 Add four circle primitives for the rounded corners*
1,1,$1+$1,$2,$3*
1,1,$1+$1,$4,$5*
1,1,$1+$1,$6,$7*
1,1,$1+$1,$8,$9*
0 Add four rect primitives between the rounded corners*
20,1,$1+$1,$2,$3,$4,$5,0*
20,1,$1+$1,$4,$5,$6,$7,0*
20,1,$1+$1,$6,$7,$8,$9,0*
20,1,$1+$1,$8,$9,$2,$3,0*%
%AMFreePoly0*
4,1,40,0.636777,0.930194,0.706366,0.874698,0.744986,0.794504,0.750000,0.750000,0.750000,-0.750000,0.730194,-0.836777,0.674698,-0.906366,0.594504,-0.944986,0.550000,-0.950000,0.000000,-0.950000,-0.022297,-0.944911,-0.071157,-0.944911,-0.127504,-0.936810,-0.264055,-0.896715,-0.315837,-0.873066,-0.435559,-0.796125,-0.478580,-0.758847,-0.571777,-0.651292,-0.602554,-0.603402,-0.661673,-0.473948,
-0.677710,-0.419330,-0.697964,-0.278464,-0.700000,-0.250000,-0.700000,0.250000,-0.697964,0.278464,-0.677710,0.419330,-0.661673,0.473948,-0.602554,0.603402,-0.571777,0.651292,-0.478580,0.758847,-0.435559,0.796125,-0.315837,0.873066,-0.264055,0.896715,-0.127504,0.936810,-0.071157,0.944911,-0.044660,0.944911,-0.044504,0.944986,0.000000,0.950000,0.550000,0.950000,0.636777,0.930194,
0.636777,0.930194,$1*%
%AMFreePoly1*
4,1,40,0.022297,0.944911,0.071157,0.944911,0.127504,0.936810,0.264055,0.896715,0.315837,0.873066,0.435559,0.796125,0.478580,0.758847,0.571777,0.651292,0.602554,0.603402,0.661673,0.473948,0.677710,0.419330,0.697964,0.278464,0.700000,0.250000,0.700000,-0.250000,0.697964,-0.278464,0.677710,-0.419330,0.661673,-0.473948,0.602554,-0.603402,0.571777,-0.651292,0.478580,-0.758847,
0.435559,-0.796125,0.315837,-0.873066,0.264055,-0.896715,0.127504,-0.936810,0.071157,-0.944911,0.044660,-0.944911,0.044504,-0.944986,0.000000,-0.950000,-0.550000,-0.950000,-0.636777,-0.930194,-0.706366,-0.874698,-0.744986,-0.794504,-0.750000,-0.750000,-0.750000,0.750000,-0.730194,0.836777,-0.674698,0.906366,-0.594504,0.944986,-0.550000,0.950000,0.000000,0.950000,0.022297,0.944911,
0.022297,0.944911,$1*%
%AMFreePoly2*
4,1,22,0.586777,1.030194,0.656366,0.974698,0.694986,0.894504,0.700000,0.850000,0.700000,-0.850000,0.680194,-0.936777,0.624698,-1.006366,0.544504,-1.044986,0.500000,-1.050000,-0.200000,-1.050000,-0.286777,-1.030194,-0.341421,-0.991421,-0.641421,-0.691421,-0.688777,-0.616056,-0.700000,-0.550000,-0.700000,0.850000,-0.680194,0.936777,-0.624698,1.006366,-0.544504,1.044986,-0.500000,1.050000,
0.500000,1.050000,0.586777,1.030194,0.586777,1.030194,$1*%
G04 Aperture macros list end*
%ADD10C,1.400000*%
%ADD11C,3.000000*%
%ADD12FreePoly0,180.000000*%
%ADD13RoundRect,0.200000X0.500000X0.750000X-0.500000X0.750000X-0.500000X-0.750000X0.500000X-0.750000X0*%
%ADD14FreePoly1,180.000000*%
%ADD15RoundRect,0.366667X0.458333X0.583333X-0.458333X0.583333X-0.458333X-0.583333X0.458333X-0.583333X0*%
%ADD16RoundRect,0.366667X-0.458333X-0.583333X0.458333X-0.583333X0.458333X0.583333X-0.458333X0.583333X0*%
%ADD17RoundRect,0.418750X0.256250X-0.218750X0.256250X0.218750X-0.256250X0.218750X-0.256250X-0.218750X0*%
%ADD18RoundRect,0.200000X0.125000X-0.275000X0.125000X0.275000X-0.125000X0.275000X-0.125000X-0.275000X0*%
%ADD19RoundRect,0.200000X-0.125000X0.275000X-0.125000X-0.275000X0.125000X-0.275000X0.125000X0.275000X0*%
%ADD20FreePoly2,90.000000*%
%ADD21RoundRect,0.200000X-0.350000X0.300000X-0.350000X-0.300000X0.350000X-0.300000X0.350000X0.300000X0*%
%ADD22RoundRect,0.350000X0.700000X-0.150000X0.700000X0.150000X-0.700000X0.150000X-0.700000X-0.150000X0*%
%ADD23RoundRect,0.450000X1.100000X-0.250000X1.100000X0.250000X-1.100000X0.250000X-1.100000X-0.250000X0*%
%ADD24RoundRect,0.418750X0.218750X0.256250X-0.218750X0.256250X-0.218750X-0.256250X0.218750X-0.256250X0*%
%ADD25RoundRect,0.418750X-0.218750X-0.256250X0.218750X-0.256250X0.218750X0.256250X-0.218750X0.256250X0*%
%ADD26RoundRect,0.200000X0.450000X0.400000X-0.450000X0.400000X-0.450000X-0.400000X0.450000X-0.400000X0*%
%ADD27RoundRect,0.200000X0.698500X-0.444500X0.698500X0.444500X-0.698500X0.444500X-0.698500X-0.444500X0*%
%ADD28RoundRect,0.200000X0.325000X-0.530000X0.325000X0.530000X-0.325000X0.530000X-0.325000X-0.530000X0*%
%ADD29RoundRect,0.418750X-0.256250X0.218750X-0.256250X-0.218750X0.256250X-0.218750X0.256250X0.218750X0*%
%ADD30C,1.000000*%
G04 APERTURE END LIST*
D10*
%TO.C,H7*%
X24003000Y13131800D03*
%TD*%
D11*
%TO.C,M4*%
X12500000Y15000000D03*
%TD*%
D10*
%TO.C,H5*%
X21675000Y8750000D03*
%TD*%
D11*
%TO.C,M2*%
X12500000Y0D03*
%TD*%
D10*
%TO.C,H1*%
X21675000Y6250000D03*
%TD*%
%TO.C,H8*%
X24003000Y1868200D03*
%TD*%
%TO.C,H2*%
X21675000Y10750000D03*
%TD*%
D11*
%TO.C,M6*%
X2500000Y15000000D03*
%TD*%
%TO.C,M5*%
X22500000Y0D03*
%TD*%
D10*
%TO.C,H6*%
X22825000Y12028200D03*
%TD*%
D11*
%TO.C,M1*%
X22500000Y15000000D03*
%TD*%
%TO.C,M3*%
X2500000Y0D03*
%TD*%
D10*
%TO.C,H3*%
X22809200Y2971800D03*
%TD*%
%TO.C,H4*%
X21675000Y4250000D03*
%TD*%
D12*
%TO.C,JP1*%
X19334000Y2032000D03*
D13*
X18034000Y2032000D03*
D14*
X16734000Y2032000D03*
%TD*%
D15*
%TO.C,D2*%
X10300000Y13000000D03*
D16*
X6700000Y13000000D03*
%TD*%
D17*
%TO.C,C4*%
X11811000Y4572000D03*
X11811000Y6147000D03*
%TD*%
D18*
%TO.C,U1*%
X26950000Y6325000D03*
X26450000Y6325000D03*
X25950000Y6325000D03*
D19*
X25450000Y6325000D03*
D18*
X25450000Y8675000D03*
X25950000Y8675000D03*
X26450000Y8675000D03*
X26950000Y8675000D03*
D20*
X26200000Y7500000D03*
%TD*%
D21*
%TO.C,D1*%
X9071000Y9075000D03*
X9071000Y10475000D03*
%TD*%
D15*
%TO.C,D3*%
X10300000Y2000000D03*
D16*
X6700000Y2000000D03*
%TD*%
D22*
%TO.C,J1*%
X4847200Y5625000D03*
X4847200Y6875000D03*
X4847200Y8125000D03*
X4847200Y9375000D03*
D23*
X1647200Y3775000D03*
X1647200Y11225000D03*
%TD*%
D24*
%TO.C,R2*%
X19177000Y5334000D03*
X17602000Y5334000D03*
%TD*%
D25*
%TO.C,C5*%
X25412500Y11594000D03*
X26987500Y11594000D03*
%TD*%
D24*
%TO.C,R4*%
X14097000Y2667000D03*
X12522000Y2667000D03*
%TD*%
D17*
%TO.C,C1*%
X12896000Y8962500D03*
X12896000Y10537500D03*
%TD*%
D26*
%TO.C,Q1*%
X15859000Y6665000D03*
X15859000Y4765000D03*
X13859000Y5715000D03*
%TD*%
D27*
%TO.C,C3*%
X10821000Y8947500D03*
X10821000Y10852500D03*
%TD*%
D28*
%TO.C,U3*%
X9967000Y4996000D03*
X9017000Y4996000D03*
X8067000Y4996000D03*
X8067000Y7196000D03*
X9967000Y7196000D03*
%TD*%
D29*
%TO.C,R3*%
X17780000Y11074500D03*
X17780000Y9499500D03*
%TD*%
%TO.C,R10*%
X15494000Y11049000D03*
X15494000Y9474000D03*
%TD*%
D17*
%TO.C,R1*%
X7421000Y9062500D03*
X7421000Y10637500D03*
%TD*%
D30*
%TO.C,M7*%
X28750000Y4950000D03*
X28750000Y10050000D03*
X23650000Y4950000D03*
X23650000Y10050000D03*
%TD*%
M02*
