M48
; DRILL file {KiCad 7.0.8-7.0.8~ubuntu23.04.1} date Mon Nov 13 01:09:08 2023
; FORMAT={3:3/ absolute / metric / suppress leading zeros}
; #@! TF.CreationDate,2023-11-13T01:09:08+00:00
; #@! TF.GenerationSoftware,Kicad,Pcbnew,7.0.8-7.0.8~ubuntu23.04.1
; #@! TF.FileFunction,Plated,1,2,PTH
FMAT,2
METRIC,TZ
; #@! TA.AperFunction,Plated,PTH,ViaDrill
T1C0.400
%
G90
G05
T1
X1016Y8890
X1016Y7747
X1016Y6604
X1143Y12827
X1143Y5461
X1143Y2286
X1651Y9779
X2159Y12827
X2286Y2286
X2794Y9398
X2850Y6875
X3175Y12827
X3429Y2286
X3937Y12065
X4064Y10668
X4191Y4318
X4191Y3175
X5080Y10668
X6350Y9398
X6350Y6858
X6771Y7950
X6836Y3529
X9046Y11125
X9121Y5875
X11405Y2083
X11756Y3387
X12984Y4892
X13767Y4093
X14096Y10875
X15494Y8128
X15850Y5500
X17780Y6858
X18034Y3600
X26237Y4848
X26950Y9875
X27225Y5000
T0
M30
