%TF.GenerationSoftware,KiCad,Pcbnew,8.0.8+1*%
%TF.CreationDate,2025-02-01T22:00:19+00:00*%
%TF.ProjectId,TFHT01,54464854-3031-42e6-9b69-6361645f7063,rev?*%
%TF.SameCoordinates,Original*%
%TF.FileFunction,Copper,L2,Bot*%
%TF.FilePolarity,Positive*%
%FSLAX46Y46*%
G04 Gerber Fmt 4.6, Leading zero omitted, Abs format (unit mm)*
G04 Created by KiCad (PCBNEW 8.0.8+1) date 2025-02-01 22:00:19*
%MOMM*%
%LPD*%
G01*
G04 APERTURE LIST*
G04 Aperture macros list*
%AMRoundRect*
0 Rectangle with rounded corners*
0 $1 Rounding radius*
0 $2 $3 $4 $5 $6 $7 $8 $9 X,Y pos of 4 corners*
0 Add a 4 corners polygon primitive as box body*
4,1,4,$2,$3,$4,$5,$6,$7,$8,$9,$2,$3,0*
0 Add four circle primitives for the rounded corners*
1,1,$1+$1,$2,$3*
1,1,$1+$1,$4,$5*
1,1,$1+$1,$6,$7*
1,1,$1+$1,$8,$9*
0 Add four rect primitives between the rounded corners*
20,1,$1+$1,$2,$3,$4,$5,0*
20,1,$1+$1,$4,$5,$6,$7,0*
20,1,$1+$1,$6,$7,$8,$9,0*
20,1,$1+$1,$8,$9,$2,$3,0*%
%AMFreePoly0*
4,1,19,0.550000,-0.750000,0.000000,-0.750000,0.000000,-0.744911,-0.071157,-0.744911,-0.207708,-0.704816,-0.327430,-0.627875,-0.420627,-0.520320,-0.479746,-0.390866,-0.500000,-0.250000,-0.500000,0.250000,-0.479746,0.390866,-0.420627,0.520320,-0.327430,0.627875,-0.207708,0.704816,-0.071157,0.744911,0.000000,0.744911,0.000000,0.750000,0.550000,0.750000,0.550000,-0.750000,0.550000,-0.750000,
$1*%
%AMFreePoly1*
4,1,19,0.000000,0.744911,0.071157,0.744911,0.207708,0.704816,0.327430,0.627875,0.420627,0.520320,0.479746,0.390866,0.500000,0.250000,0.500000,-0.250000,0.479746,-0.390866,0.420627,-0.520320,0.327430,-0.627875,0.207708,-0.704816,0.071157,-0.744911,0.000000,-0.744911,0.000000,-0.750000,-0.550000,-0.750000,-0.550000,0.750000,0.000000,0.750000,0.000000,0.744911,0.000000,0.744911,
$1*%
%AMFreePoly2*
4,1,6,0.500000,-0.850000,-0.200000,-0.850000,-0.500000,-0.550000,-0.500000,0.850000,0.500000,0.850000,0.500000,-0.850000,0.500000,-0.850000,$1*%
G04 Aperture macros list end*
%TA.AperFunction,EtchedComponent*%
%ADD10C,0.000000*%
%TD*%
%TA.AperFunction,SMDPad,CuDef*%
%ADD11FreePoly0,180.000000*%
%TD*%
%TA.AperFunction,SMDPad,CuDef*%
%ADD12R,1.000000X1.500000*%
%TD*%
%TA.AperFunction,SMDPad,CuDef*%
%ADD13FreePoly1,180.000000*%
%TD*%
%TA.AperFunction,SMDPad,CuDef*%
%ADD14RoundRect,0.166667X0.458333X0.583333X-0.458333X0.583333X-0.458333X-0.583333X0.458333X-0.583333X0*%
%TD*%
%TA.AperFunction,SMDPad,CuDef*%
%ADD15RoundRect,0.166667X-0.458333X-0.583333X0.458333X-0.583333X0.458333X0.583333X-0.458333X0.583333X0*%
%TD*%
%TA.AperFunction,SMDPad,CuDef*%
%ADD16RoundRect,0.218750X0.256250X-0.218750X0.256250X0.218750X-0.256250X0.218750X-0.256250X-0.218750X0*%
%TD*%
%TA.AperFunction,SMDPad,CuDef*%
%ADD17R,0.250000X0.550000*%
%TD*%
%TA.AperFunction,SMDPad,CuDef*%
%ADD18FreePoly2,90.000000*%
%TD*%
%TA.AperFunction,SMDPad,CuDef*%
%ADD19R,0.700000X0.600000*%
%TD*%
%TA.AperFunction,SMDPad,CuDef*%
%ADD20RoundRect,0.150000X0.700000X-0.150000X0.700000X0.150000X-0.700000X0.150000X-0.700000X-0.150000X0*%
%TD*%
%TA.AperFunction,SMDPad,CuDef*%
%ADD21RoundRect,0.250000X1.100000X-0.250000X1.100000X0.250000X-1.100000X0.250000X-1.100000X-0.250000X0*%
%TD*%
%TA.AperFunction,SMDPad,CuDef*%
%ADD22RoundRect,0.218750X0.218750X0.256250X-0.218750X0.256250X-0.218750X-0.256250X0.218750X-0.256250X0*%
%TD*%
%TA.AperFunction,SMDPad,CuDef*%
%ADD23RoundRect,0.218750X-0.218750X-0.256250X0.218750X-0.256250X0.218750X0.256250X-0.218750X0.256250X0*%
%TD*%
%TA.AperFunction,SMDPad,CuDef*%
%ADD24R,0.900000X0.800000*%
%TD*%
%TA.AperFunction,SMDPad,CuDef*%
%ADD25R,1.397000X0.889000*%
%TD*%
%TA.AperFunction,SMDPad,CuDef*%
%ADD26R,0.650000X1.060000*%
%TD*%
%TA.AperFunction,SMDPad,CuDef*%
%ADD27RoundRect,0.218750X-0.256250X0.218750X-0.256250X-0.218750X0.256250X-0.218750X0.256250X0.218750X0*%
%TD*%
%TA.AperFunction,ViaPad*%
%ADD28C,0.800000*%
%TD*%
%TA.AperFunction,Conductor*%
%ADD29C,0.400000*%
%TD*%
%TA.AperFunction,Conductor*%
%ADD30C,0.300000*%
%TD*%
G04 APERTURE END LIST*
D10*
%TA.AperFunction,EtchedComponent*%
%TO.C,JP1*%
G36*
X18934000Y1732000D02*
G01*
X18434000Y1732000D01*
X18434000Y2332000D01*
X18934000Y2332000D01*
X18934000Y1732000D01*
G37*
%TD.AperFunction*%
%TD*%
D11*
%TO.P,JP1,1,A*%
%TO.N,GND*%
X19334000Y2032000D03*
D12*
%TO.P,JP1,2,C*%
%TO.N,Net-(JP1-C)*%
X18034000Y2032000D03*
D13*
%TO.P,JP1,3,B*%
%TO.N,+3V3*%
X16734000Y2032000D03*
%TD*%
D14*
%TO.P,D2,1,K*%
%TO.N,GND*%
X10300000Y13000000D03*
D15*
%TO.P,D2,2,A*%
%TO.N,Net-(D2-A)*%
X6700000Y13000000D03*
%TD*%
D16*
%TO.P,C4,1*%
%TO.N,+5V*%
X11811000Y4572000D03*
%TO.P,C4,2*%
%TO.N,GND*%
X11811000Y6147000D03*
%TD*%
D17*
%TO.P,U1,1,SDA*%
%TO.N,/SDA*%
X26950000Y6325000D03*
%TO.P,U1,2,ADDR*%
%TO.N,Net-(JP1-C)*%
X26450000Y6325000D03*
%TO.P,U1,3,ALERT*%
%TO.N,/ALERT*%
X25950000Y6325000D03*
%TO.P,U1,4,SCL*%
%TO.N,/SCL*%
X25450000Y6325000D03*
%TO.P,U1,5,VDD*%
%TO.N,+3V3*%
X25450000Y8675000D03*
%TO.P,U1,6,~{RESET}*%
%TO.N,unconnected-(U1-~{RESET}-Pad6)*%
X25950000Y8675000D03*
%TO.P,U1,7,R*%
%TO.N,GND*%
X26450000Y8675000D03*
%TO.P,U1,8,VSS*%
X26950000Y8675000D03*
D18*
%TO.P,U1,9,VSS*%
X26200000Y7500000D03*
%TD*%
D19*
%TO.P,D1,1,K*%
%TO.N,+5V*%
X9071000Y9075000D03*
%TO.P,D1,2,A*%
%TO.N,GND*%
X9071000Y10475000D03*
%TD*%
D14*
%TO.P,D3,1,K*%
%TO.N,Net-(D3-K)*%
X10300000Y2000000D03*
D15*
%TO.P,D3,2,A*%
%TO.N,Net-(D3-A)*%
X6700000Y2000000D03*
%TD*%
D20*
%TO.P,J1,1*%
%TO.N,+5V*%
X4847200Y5625000D03*
%TO.P,J1,2*%
%TO.N,/SCL*%
X4847200Y6875000D03*
%TO.P,J1,3*%
%TO.N,/SDA*%
X4847200Y8125000D03*
%TO.P,J1,4*%
%TO.N,GND*%
X4847200Y9375000D03*
D21*
%TO.P,J1,MP*%
X1647200Y3775000D03*
X1647200Y11225000D03*
%TD*%
D22*
%TO.P,R2,1*%
%TO.N,/ALERT*%
X19177000Y5334000D03*
%TO.P,R2,2*%
%TO.N,Net-(Q1-B)*%
X17602000Y5334000D03*
%TD*%
D23*
%TO.P,C5,1*%
%TO.N,+3V3*%
X25412500Y11594000D03*
%TO.P,C5,2*%
%TO.N,GND*%
X26987500Y11594000D03*
%TD*%
D22*
%TO.P,R4,1*%
%TO.N,+5V*%
X14097000Y2667000D03*
%TO.P,R4,2*%
%TO.N,Net-(D3-A)*%
X12522000Y2667000D03*
%TD*%
D16*
%TO.P,C1,1*%
%TO.N,+3V3*%
X12896000Y8962500D03*
%TO.P,C1,2*%
%TO.N,GND*%
X12896000Y10537500D03*
%TD*%
D24*
%TO.P,Q1,1,B*%
%TO.N,Net-(Q1-B)*%
X15859000Y6665000D03*
%TO.P,Q1,2,E*%
%TO.N,GND*%
X15859000Y4765000D03*
%TO.P,Q1,3,C*%
%TO.N,Net-(D3-K)*%
X13859000Y5715000D03*
%TD*%
D25*
%TO.P,C3,1*%
%TO.N,+5V*%
X10821000Y8947500D03*
%TO.P,C3,2*%
%TO.N,GND*%
X10821000Y10852500D03*
%TD*%
D26*
%TO.P,U3,1,VIN*%
%TO.N,+5V*%
X9967000Y4996000D03*
%TO.P,U3,2,GND*%
%TO.N,GND*%
X9017000Y4996000D03*
%TO.P,U3,3,EN*%
%TO.N,+5V*%
X8067000Y4996000D03*
%TO.P,U3,4,NC*%
%TO.N,unconnected-(U3-NC-Pad4)*%
X8067000Y7196000D03*
%TO.P,U3,5,VOUT*%
%TO.N,+3V3*%
X9967000Y7196000D03*
%TD*%
D27*
%TO.P,R3,1*%
%TO.N,+3V3*%
X17780000Y11074500D03*
%TO.P,R3,2*%
%TO.N,/SCL*%
X17780000Y9499500D03*
%TD*%
%TO.P,R10,1*%
%TO.N,+3V3*%
X15494000Y11049000D03*
%TO.P,R10,2*%
%TO.N,/SDA*%
X15494000Y9474000D03*
%TD*%
D16*
%TO.P,R1,1*%
%TO.N,+5V*%
X7421000Y9062500D03*
%TO.P,R1,2*%
%TO.N,Net-(D2-A)*%
X7421000Y10637500D03*
%TD*%
D28*
%TO.N,GND*%
X14096000Y10875000D03*
X4191000Y4318000D03*
X1143000Y12827000D03*
X3937000Y12065000D03*
X2159000Y12827000D03*
X3175000Y12827000D03*
X1143000Y5461000D03*
X15850000Y5500000D03*
X12983983Y4892197D03*
X1143000Y2286000D03*
X1651000Y9779000D03*
X3429000Y2286000D03*
X4191000Y3175000D03*
X1016000Y8890000D03*
X2286000Y2286000D03*
X5080000Y10668000D03*
X1016000Y7747000D03*
X9046000Y11125000D03*
X26950000Y9875000D03*
X9121000Y5875000D03*
X1016000Y6604000D03*
X4064000Y10668000D03*
%TO.N,Net-(D3-K)*%
X11404600Y2082800D03*
X13766800Y4092697D03*
%TO.N,+5V*%
X2794000Y9398000D03*
X6350000Y9398000D03*
%TO.N,/SDA*%
X2850000Y6875000D03*
X6771000Y7950000D03*
X15494000Y8128000D03*
X27225000Y5000000D03*
%TO.N,/SCL*%
X6350000Y6858000D03*
X17780000Y6858000D03*
%TO.N,Net-(D3-A)*%
X11756232Y3386568D03*
X6836304Y3528579D03*
%TO.N,Net-(JP1-C)*%
X26237155Y4847787D03*
X18034000Y3600500D03*
%TD*%
D29*
%TO.N,GND*%
X9071000Y10475000D02*
X9448500Y10852500D01*
D30*
X26950000Y8675000D02*
X26950000Y9875000D01*
D29*
X9121000Y5875000D02*
X9393000Y6147000D01*
X26987500Y9912500D02*
X26950000Y9875000D01*
X15859000Y4765000D02*
X15850000Y4774000D01*
X9448500Y10852500D02*
X10821000Y10852500D01*
X15859000Y4765000D02*
X16224000Y4400000D01*
X12983983Y4892197D02*
X12983983Y4974017D01*
X12983983Y4974017D02*
X11811000Y6147000D01*
X13758500Y10537500D02*
X12896000Y10537500D01*
X14096000Y10875000D02*
X13758500Y10537500D01*
X4627000Y9398000D02*
X4650000Y9375000D01*
X9017000Y5771000D02*
X9121000Y5875000D01*
X19334000Y3737000D02*
X19334000Y2032000D01*
X26987500Y11594000D02*
X26987500Y9912500D01*
X10575000Y11098500D02*
X10821000Y10852500D01*
X9071000Y11100000D02*
X9046000Y11125000D01*
X11768500Y10852500D02*
X12096000Y10525000D01*
X12096000Y10525000D02*
X12883500Y10525000D01*
D30*
X26450000Y9475000D02*
X26850000Y9875000D01*
D29*
X9393000Y6147000D02*
X11811000Y6147000D01*
D30*
X26850000Y9875000D02*
X26950000Y9875000D01*
X26450000Y8675000D02*
X26450000Y7750000D01*
D29*
X16224000Y4400000D02*
X18671000Y4400000D01*
X10575000Y13000000D02*
X10575000Y11098500D01*
D30*
X26450000Y7750000D02*
X26200000Y7500000D01*
D29*
X12883500Y10525000D02*
X12896000Y10537500D01*
X18671000Y4400000D02*
X19334000Y3737000D01*
X9017000Y4996000D02*
X9017000Y5771000D01*
X15850000Y4774000D02*
X15850000Y5500000D01*
X9071000Y10475000D02*
X9071000Y11100000D01*
X10821000Y10852500D02*
X11768500Y10852500D01*
D30*
X26450000Y8675000D02*
X26450000Y9475000D01*
%TO.N,Net-(D2-A)*%
X6425000Y11633500D02*
X7421000Y10637500D01*
X6425000Y13000000D02*
X6425000Y11633500D01*
%TO.N,Net-(D3-K)*%
X13859000Y5715000D02*
X13859000Y4184897D01*
X11404600Y2082800D02*
X10382800Y2082800D01*
X10382800Y2082800D02*
X10300000Y2000000D01*
X13859000Y4184897D02*
X13766800Y4092697D01*
D29*
%TO.N,+3V3*%
X9967000Y7196000D02*
X11767000Y7196000D01*
X14850000Y6613000D02*
X14196000Y7267000D01*
X23921884Y11594000D02*
X25412500Y11594000D01*
X17754500Y11049000D02*
X17780000Y11074500D01*
X15748000Y2032000D02*
X15240000Y2540000D01*
X19100900Y9753600D02*
X22081484Y9753600D01*
X12896000Y8962500D02*
X14108500Y8962500D01*
X14108500Y8962500D02*
X14196000Y9050000D01*
X12896000Y8325000D02*
X12896000Y8962500D01*
X15240000Y3429000D02*
X14850000Y3819000D01*
X14196000Y7267000D02*
X14196000Y9050000D01*
X15494000Y11049000D02*
X17754500Y11049000D01*
X22081484Y9753600D02*
X23921884Y11594000D01*
X17780000Y11074500D02*
X19100900Y9753600D01*
X16734000Y2032000D02*
X15748000Y2032000D01*
X14196000Y9751000D02*
X15494000Y11049000D01*
X14196000Y9050000D02*
X14196000Y9751000D01*
X15240000Y2540000D02*
X15240000Y3429000D01*
X25412500Y9537500D02*
X25450000Y9500000D01*
X11767000Y7196000D02*
X12896000Y8325000D01*
X25412500Y11594000D02*
X25412500Y9537500D01*
D30*
X25450000Y8675000D02*
X25450000Y9500000D01*
D29*
X14850000Y3819000D02*
X14850000Y6613000D01*
%TO.N,+5V*%
X9071000Y9075000D02*
X10693500Y9075000D01*
X4650000Y5625000D02*
X2757000Y5625000D01*
X9058500Y9062500D02*
X9071000Y9075000D01*
X9711000Y3810000D02*
X10287000Y3810000D01*
X8067000Y4996000D02*
X8067000Y4125000D01*
X9711000Y3810000D02*
X9967000Y4066000D01*
X8382000Y3810000D02*
X9711000Y3810000D01*
X4650000Y5625000D02*
X6186000Y5625000D01*
X7085500Y9398000D02*
X7421000Y9062500D01*
X10668000Y3810000D02*
X11049000Y3810000D01*
X1975000Y6407000D02*
X1975000Y8579000D01*
X13859000Y2905000D02*
X14097000Y2667000D01*
X6186000Y5625000D02*
X6815000Y4996000D01*
D30*
X12192000Y4572000D02*
X14097000Y2667000D01*
D29*
X10693500Y9075000D02*
X10821000Y8947500D01*
X7421000Y9062500D02*
X9058500Y9062500D01*
X8067000Y4125000D02*
X8382000Y3810000D01*
X2757000Y5625000D02*
X1975000Y6407000D01*
X1975000Y8579000D02*
X2794000Y9398000D01*
X10287000Y3810000D02*
X10668000Y3810000D01*
X9967000Y4257000D02*
X9967000Y4130000D01*
X6350000Y9398000D02*
X7085500Y9398000D01*
D30*
X11811000Y4572000D02*
X12192000Y4572000D01*
D29*
X9967000Y4066000D02*
X9967000Y4257000D01*
X9967000Y4130000D02*
X10287000Y3810000D01*
X9967000Y4257000D02*
X9967000Y4996000D01*
X11811000Y4572000D02*
X11049000Y3810000D01*
X6815000Y4996000D02*
X8067000Y4996000D01*
D30*
%TO.N,/SDA*%
X26950000Y5275000D02*
X27225000Y5000000D01*
X26950000Y6325000D02*
X26950000Y5275000D01*
D29*
X6596000Y8125000D02*
X6771000Y7950000D01*
X3045000Y8125000D02*
X2850000Y7930000D01*
X4650000Y8125000D02*
X3045000Y8125000D01*
X2850000Y7930000D02*
X2850000Y6875000D01*
X15494000Y9474000D02*
X15494000Y8128000D01*
X4650000Y8125000D02*
X6596000Y8125000D01*
%TO.N,/SCL*%
X6350000Y6858000D02*
X6333000Y6875000D01*
D30*
X25450000Y6325000D02*
X23799400Y6325000D01*
X23799400Y6325000D02*
X22352000Y7772400D01*
D29*
X17780000Y9499500D02*
X17780000Y6858000D01*
D30*
X22352000Y7772400D02*
X18694400Y7772400D01*
D29*
X6333000Y6875000D02*
X4650000Y6875000D01*
D30*
X18694400Y7772400D02*
X17780000Y6858000D01*
%TO.N,Net-(D3-A)*%
X11756232Y3386568D02*
X11802432Y3386568D01*
X11802432Y3386568D02*
X12522000Y2667000D01*
X6700000Y2000000D02*
X6700000Y3392275D01*
X6700000Y3392275D02*
X6836304Y3528579D01*
%TO.N,Net-(JP1-C)*%
X18034000Y2032000D02*
X18034000Y3600500D01*
X26450000Y6325000D02*
X26450000Y5060632D01*
X26450000Y5060632D02*
X26237155Y4847787D01*
D29*
%TO.N,Net-(Q1-B)*%
X15941000Y6665000D02*
X16573500Y6032500D01*
X17602000Y5334000D02*
X17602000Y5385000D01*
X16954500Y6032500D02*
X16573500Y6032500D01*
X15859000Y6665000D02*
X15941000Y6665000D01*
X17602000Y5385000D02*
X16954500Y6032500D01*
D30*
%TO.N,/ALERT*%
X22144894Y7272400D02*
X23592294Y5825000D01*
X24671800Y5181600D02*
X25349200Y5181600D01*
X24028400Y5825000D02*
X24671800Y5181600D01*
X19177000Y5334000D02*
X21115400Y7272400D01*
X21115400Y7272400D02*
X22144894Y7272400D01*
X25950000Y5782400D02*
X25950000Y6325000D01*
X25349200Y5181600D02*
X25950000Y5782400D01*
X23592294Y5825000D02*
X24028400Y5825000D01*
%TD*%
%TA.AperFunction,Conductor*%
%TO.N,GND*%
G36*
X869587Y14477826D02*
G01*
X885628Y14453818D01*
X886289Y14452222D01*
X886290Y14452219D01*
X922843Y14363971D01*
X971591Y14246283D01*
X971594Y14246275D01*
X1083049Y14053230D01*
X1083053Y14053224D01*
X1218747Y13876382D01*
X1376381Y13718748D01*
X1531790Y13599500D01*
X1553226Y13583052D01*
X1746274Y13471595D01*
X1952219Y13386290D01*
X2167537Y13328596D01*
X2388543Y13299500D01*
X2388545Y13299500D01*
X2611455Y13299500D01*
X2611457Y13299500D01*
X2832463Y13328596D01*
X3047781Y13386290D01*
X3253726Y13471595D01*
X3446774Y13583052D01*
X3589653Y13692686D01*
X3623618Y13718748D01*
X3623619Y13718750D01*
X3623624Y13718753D01*
X3781247Y13876376D01*
X3916948Y14053226D01*
X4028405Y14246274D01*
X4113710Y14452219D01*
X4113710Y14452222D01*
X4114372Y14453818D01*
X4154420Y14493867D01*
X4182739Y14499500D01*
X7211729Y14499500D01*
X7264055Y14477826D01*
X7285729Y14425500D01*
X7264055Y14373174D01*
X7252841Y14363971D01*
X7189711Y14321790D01*
X7189710Y14321788D01*
X7078212Y14210290D01*
X7078210Y14210289D01*
X6990603Y14079175D01*
X6956228Y13996182D01*
X6916180Y13956133D01*
X6887861Y13950500D01*
X6206815Y13950500D01*
X6135450Y13940102D01*
X6025365Y13886284D01*
X5938716Y13799635D01*
X5884898Y13689550D01*
X5874500Y13618185D01*
X5874500Y12381816D01*
X5884898Y12310451D01*
X5938716Y12200366D01*
X5938717Y12200365D01*
X6025365Y12113717D01*
X6032998Y12109986D01*
X6070489Y12067535D01*
X6074500Y12043504D01*
X6074500Y11587354D01*
X6088901Y11533610D01*
X6088901Y11533609D01*
X6098384Y11498217D01*
X6098386Y11498212D01*
X6144530Y11418288D01*
X6723826Y10838992D01*
X6745500Y10786666D01*
X6745500Y10385754D01*
X6761049Y10287580D01*
X6821340Y10169251D01*
X6915250Y10075341D01*
X6966840Y10049055D01*
X7033579Y10015050D01*
X7033579Y10015049D01*
X7131753Y9999500D01*
X7131754Y9999500D01*
X7710247Y9999500D01*
X7808420Y10015049D01*
X7926751Y10075342D01*
X8020658Y10169249D01*
X8080951Y10287580D01*
X8096500Y10385754D01*
X8096500Y10889246D01*
X8080951Y10987420D01*
X8020658Y11105751D01*
X7926751Y11199658D01*
X7926749Y11199660D01*
X7808420Y11259951D01*
X7808420Y11259952D01*
X7710247Y11275500D01*
X7710246Y11275500D01*
X7309334Y11275500D01*
X7257008Y11297174D01*
X6797174Y11757008D01*
X6775500Y11809334D01*
X6775500Y11975500D01*
X6797174Y12027826D01*
X6849500Y12049500D01*
X6887861Y12049500D01*
X6940187Y12027826D01*
X6956228Y12003818D01*
X6990603Y11920826D01*
X6990605Y11920823D01*
X6990606Y11920821D01*
X7078211Y11789711D01*
X7189711Y11678211D01*
X7320821Y11590606D01*
X7320826Y11590604D01*
X7320825Y11590604D01*
X7458425Y11533609D01*
X7466503Y11530263D01*
X7621158Y11499500D01*
X7621160Y11499500D01*
X8422189Y11499500D01*
X8474515Y11477826D01*
X8496189Y11425500D01*
X8496189Y11425482D01*
X8495738Y9536982D01*
X8474051Y9484662D01*
X8421738Y9463000D01*
X8100526Y9463000D01*
X8048200Y9484674D01*
X8034592Y9503405D01*
X8020659Y9530750D01*
X7926749Y9624660D01*
X7808420Y9684951D01*
X7808420Y9684952D01*
X7710247Y9700500D01*
X7710246Y9700500D01*
X7379964Y9700500D01*
X7334910Y9715796D01*
X7331410Y9718483D01*
X7240092Y9771205D01*
X7240088Y9771207D01*
X7138227Y9798500D01*
X7138226Y9798500D01*
X6836092Y9798500D01*
X6783766Y9820174D01*
X6779321Y9825242D01*
X6778277Y9826287D01*
X6652841Y9922536D01*
X6506761Y9983045D01*
X6350000Y10003682D01*
X6193238Y9983045D01*
X6116215Y9951141D01*
X6059578Y9951141D01*
X6035571Y9967182D01*
X5953698Y10049055D01*
X5810601Y10133682D01*
X5650954Y10180065D01*
X5613656Y10183000D01*
X5101200Y10183000D01*
X5101200Y9449000D01*
X5079526Y9396674D01*
X5027200Y9375000D01*
X4667200Y9375000D01*
X4614874Y9396674D01*
X4593200Y9449000D01*
X4593200Y10183000D01*
X4080745Y10183000D01*
X4080743Y10182999D01*
X4043447Y10180065D01*
X3883798Y10133682D01*
X3740701Y10049055D01*
X3623145Y9931499D01*
X3538518Y9788402D01*
X3491668Y9627147D01*
X3456255Y9582946D01*
X3399960Y9576731D01*
X3355759Y9612144D01*
X3352239Y9619475D01*
X3318536Y9700841D01*
X3222284Y9826280D01*
X3222279Y9826285D01*
X3096841Y9922536D01*
X2950761Y9983045D01*
X2794000Y10003682D01*
X2637239Y9983045D01*
X2637238Y9983045D01*
X2491158Y9922536D01*
X2365720Y9826285D01*
X2365715Y9826280D01*
X2269464Y9700842D01*
X2208955Y9554762D01*
X2208955Y9554761D01*
X2188318Y9398001D01*
X2188318Y9393151D01*
X2186436Y9393151D01*
X2173459Y9344748D01*
X2167084Y9337479D01*
X1654518Y8824912D01*
X1601795Y8733593D01*
X1601791Y8733584D01*
X1582610Y8662001D01*
X1582611Y8662000D01*
X1582611Y8661999D01*
X1574500Y8631727D01*
X1574500Y6459727D01*
X1574500Y6354273D01*
X1596288Y6272956D01*
X1601793Y6252412D01*
X1601795Y6252408D01*
X1654517Y6161091D01*
X1654518Y6161090D01*
X1654520Y6161087D01*
X2511087Y5304520D01*
X2602412Y5251793D01*
X2704273Y5224500D01*
X2809727Y5224500D01*
X3871367Y5224500D01*
X3923693Y5202826D01*
X3940717Y5185802D01*
X4045807Y5134427D01*
X4113940Y5124500D01*
X4113946Y5124500D01*
X5580454Y5124500D01*
X5580460Y5124500D01*
X5648593Y5134427D01*
X5753683Y5185802D01*
X5770707Y5202826D01*
X5823033Y5224500D01*
X5989455Y5224500D01*
X6041781Y5202826D01*
X6494519Y4750088D01*
X6494520Y4750087D01*
X6569087Y4675520D01*
X6660413Y4622793D01*
X6762270Y4595501D01*
X6762271Y4595500D01*
X6762273Y4595500D01*
X7467500Y4595500D01*
X7519826Y4573826D01*
X7541500Y4521500D01*
X7541500Y4446254D01*
X7553133Y4387768D01*
X7580024Y4347525D01*
X7597448Y4321448D01*
X7633613Y4297283D01*
X7665078Y4250191D01*
X7666500Y4235755D01*
X7666500Y4177727D01*
X7666500Y4072273D01*
X7678095Y4029000D01*
X7693793Y3970412D01*
X7693795Y3970408D01*
X7746517Y3879091D01*
X7746518Y3879090D01*
X7746520Y3879087D01*
X7940266Y3685341D01*
X7998781Y3626826D01*
X8020455Y3574500D01*
X7998781Y3522174D01*
X7946455Y3500500D01*
X7621158Y3500500D01*
X7527650Y3481901D01*
X7472101Y3492951D01*
X7440636Y3540043D01*
X7439850Y3544800D01*
X7421348Y3685341D01*
X7360840Y3831420D01*
X7264586Y3956861D01*
X7264583Y3956864D01*
X7139145Y4053115D01*
X6993065Y4113624D01*
X6836304Y4134261D01*
X6679543Y4113624D01*
X6679542Y4113624D01*
X6533462Y4053115D01*
X6408024Y3956864D01*
X6408019Y3956859D01*
X6311768Y3831421D01*
X6251259Y3685341D01*
X6251259Y3685340D01*
X6230622Y3528579D01*
X6251259Y3371819D01*
X6251259Y3371818D01*
X6311768Y3225738D01*
X6334208Y3196494D01*
X6349500Y3151445D01*
X6349500Y3024500D01*
X6327826Y2972174D01*
X6275500Y2950500D01*
X6206815Y2950500D01*
X6135450Y2940102D01*
X6025365Y2886284D01*
X5938716Y2799635D01*
X5884898Y2689550D01*
X5874500Y2618185D01*
X5874500Y1381816D01*
X5884898Y1310451D01*
X5938716Y1200366D01*
X5938717Y1200365D01*
X6025365Y1113717D01*
X6135452Y1059898D01*
X6206820Y1049500D01*
X6887861Y1049500D01*
X6940187Y1027826D01*
X6956228Y1003818D01*
X6990603Y920826D01*
X7078210Y789712D01*
X7189711Y678211D01*
X7252841Y636029D01*
X7284307Y588937D01*
X7273258Y533388D01*
X7226166Y501922D01*
X7211729Y500500D01*
X4182739Y500500D01*
X4130413Y522174D01*
X4114372Y546182D01*
X4102642Y574500D01*
X4028405Y753726D01*
X4007628Y789712D01*
X3916950Y946771D01*
X3916946Y946777D01*
X3781252Y1123619D01*
X3623618Y1281253D01*
X3446776Y1416947D01*
X3446770Y1416951D01*
X3253725Y1528406D01*
X3253717Y1528409D01*
X3047782Y1613710D01*
X2832461Y1671405D01*
X2669647Y1692840D01*
X2611457Y1700500D01*
X2388543Y1700500D01*
X2337122Y1693731D01*
X2167538Y1671405D01*
X1952217Y1613710D01*
X1746282Y1528409D01*
X1746274Y1528406D01*
X1553229Y1416951D01*
X1553223Y1416947D01*
X1376381Y1281253D01*
X1218747Y1123619D01*
X1083053Y946777D01*
X1083049Y946771D01*
X971594Y753726D01*
X971591Y753718D01*
X922843Y636029D01*
X897358Y574500D01*
X885628Y546182D01*
X845580Y506133D01*
X817261Y500500D01*
X574500Y500500D01*
X522174Y522174D01*
X500500Y574500D01*
X500500Y2693000D01*
X522174Y2745326D01*
X574500Y2767000D01*
X1393200Y2767000D01*
X1901200Y2767000D01*
X2797703Y2767000D01*
X2797704Y2767001D01*
X2901525Y2777607D01*
X3069724Y2833343D01*
X3220538Y2926366D01*
X3220542Y2926368D01*
X3345832Y3051658D01*
X3345834Y3051662D01*
X3438857Y3202476D01*
X3494593Y3370675D01*
X3505199Y3474496D01*
X3505200Y3474498D01*
X3505200Y3521000D01*
X1901200Y3521000D01*
X1901200Y2767000D01*
X1393200Y2767000D01*
X1393200Y4029000D01*
X1901200Y4029000D01*
X3505200Y4029000D01*
X3505200Y4075503D01*
X3505199Y4075505D01*
X3494593Y4179326D01*
X3438857Y4347525D01*
X3345834Y4498339D01*
X3345832Y4498342D01*
X3220542Y4623632D01*
X3220538Y4623635D01*
X3069724Y4716658D01*
X2901525Y4772394D01*
X2797704Y4783000D01*
X1901200Y4783000D01*
X1901200Y4029000D01*
X1393200Y4029000D01*
X1393200Y4783000D01*
X574500Y4783000D01*
X522174Y4804674D01*
X500500Y4857000D01*
X500500Y10143000D01*
X522174Y10195326D01*
X574500Y10217000D01*
X1393200Y10217000D01*
X1901200Y10217000D01*
X2797703Y10217000D01*
X2797704Y10217001D01*
X2901525Y10227607D01*
X3069724Y10283343D01*
X3220538Y10376366D01*
X3220542Y10376368D01*
X3345832Y10501658D01*
X3345834Y10501662D01*
X3438857Y10652476D01*
X3494593Y10820675D01*
X3505199Y10924496D01*
X3505200Y10924498D01*
X3505200Y10971000D01*
X1901200Y10971000D01*
X1901200Y10217000D01*
X1393200Y10217000D01*
X1393200Y11479000D01*
X1901200Y11479000D01*
X3505200Y11479000D01*
X3505200Y11525503D01*
X3505199Y11525505D01*
X3494593Y11629326D01*
X3438857Y11797525D01*
X3345834Y11948339D01*
X3345832Y11948342D01*
X3220542Y12073632D01*
X3220538Y12073635D01*
X3069724Y12166658D01*
X2901525Y12222394D01*
X2797704Y12233000D01*
X1901200Y12233000D01*
X1901200Y11479000D01*
X1393200Y11479000D01*
X1393200Y12233000D01*
X574500Y12233000D01*
X522174Y12254674D01*
X500500Y12307000D01*
X500500Y14425500D01*
X522174Y14477826D01*
X574500Y14499500D01*
X817261Y14499500D01*
X869587Y14477826D01*
G37*
%TD.AperFunction*%
%TD*%
M02*
