%TF.GenerationSoftware,KiCad,Pcbnew,7.0.8-7.0.8~ubuntu23.04.1*%
%TF.CreationDate,2023-11-13T01:09:08+00:00*%
%TF.ProjectId,TFHT01,54464854-3031-42e6-9b69-6361645f7063,rev?*%
%TF.SameCoordinates,Original*%
%TF.FileFunction,Copper,L1,Top*%
%TF.FilePolarity,Positive*%
%FSLAX46Y46*%
G04 Gerber Fmt 4.6, Leading zero omitted, Abs format (unit mm)*
G04 Created by KiCad (PCBNEW 7.0.8-7.0.8~ubuntu23.04.1) date 2023-11-13 01:09:08*
%MOMM*%
%LPD*%
G01*
G04 APERTURE LIST*
G04 Aperture macros list*
%AMRoundRect*
0 Rectangle with rounded corners*
0 $1 Rounding radius*
0 $2 $3 $4 $5 $6 $7 $8 $9 X,Y pos of 4 corners*
0 Add a 4 corners polygon primitive as box body*
4,1,4,$2,$3,$4,$5,$6,$7,$8,$9,$2,$3,0*
0 Add four circle primitives for the rounded corners*
1,1,$1+$1,$2,$3*
1,1,$1+$1,$4,$5*
1,1,$1+$1,$6,$7*
1,1,$1+$1,$8,$9*
0 Add four rect primitives between the rounded corners*
20,1,$1+$1,$2,$3,$4,$5,0*
20,1,$1+$1,$4,$5,$6,$7,0*
20,1,$1+$1,$6,$7,$8,$9,0*
20,1,$1+$1,$8,$9,$2,$3,0*%
G04 Aperture macros list end*
%TA.AperFunction,SMDPad,CuDef*%
%ADD10RoundRect,0.150000X-0.700000X0.150000X-0.700000X-0.150000X0.700000X-0.150000X0.700000X0.150000X0*%
%TD*%
%TA.AperFunction,SMDPad,CuDef*%
%ADD11RoundRect,0.250000X-1.100000X0.250000X-1.100000X-0.250000X1.100000X-0.250000X1.100000X0.250000X0*%
%TD*%
%TA.AperFunction,ViaPad*%
%ADD12C,0.800000*%
%TD*%
%TA.AperFunction,Conductor*%
%ADD13C,0.400000*%
%TD*%
%TA.AperFunction,Conductor*%
%ADD14C,0.300000*%
%TD*%
G04 APERTURE END LIST*
D10*
%TO.P,J2,1*%
%TO.N,+5V*%
X4847200Y9375000D03*
%TO.P,J2,2*%
%TO.N,/SCL*%
X4847200Y8125000D03*
%TO.P,J2,3*%
%TO.N,/SDA*%
X4847200Y6875000D03*
%TO.P,J2,4*%
%TO.N,GND*%
X4847200Y5625000D03*
D11*
%TO.P,J2,MP*%
X1647200Y11225000D03*
X1647200Y3775000D03*
%TD*%
D12*
%TO.N,GND*%
X14096000Y10875000D03*
X4191000Y4318000D03*
X1143000Y12827000D03*
X3937000Y12065000D03*
X2159000Y12827000D03*
X3175000Y12827000D03*
X1143000Y5461000D03*
X15850000Y5500000D03*
X12983983Y4892197D03*
X1143000Y2286000D03*
X1651000Y9779000D03*
X3429000Y2286000D03*
X4191000Y3175000D03*
X1016000Y8890000D03*
X2286000Y2286000D03*
X5080000Y10668000D03*
X1016000Y7747000D03*
X9046000Y11125000D03*
X26950000Y9875000D03*
X9121000Y5875000D03*
X1016000Y6604000D03*
X4064000Y10668000D03*
%TO.N,Net-(D3-K)*%
X11404600Y2082800D03*
X13766800Y4092697D03*
%TO.N,+5V*%
X2794000Y9398000D03*
X6350000Y9398000D03*
%TO.N,/SDA*%
X2850000Y6875000D03*
X6771000Y7950000D03*
X15494000Y8128000D03*
X27225000Y5000000D03*
%TO.N,/SCL*%
X6350000Y6858000D03*
X17780000Y6858000D03*
%TO.N,Net-(D3-A)*%
X11756232Y3386568D03*
X6836304Y3528579D03*
%TO.N,Net-(JP1-C)*%
X26237155Y4847787D03*
X18034000Y3600500D03*
%TD*%
D13*
%TO.N,GND*%
X22080808Y9753600D02*
X15217400Y9753600D01*
X23452408Y11125200D02*
X22080808Y9753600D01*
X5537000Y11125000D02*
X5080000Y10668000D01*
X12983983Y4892197D02*
X15242197Y4892197D01*
X6796000Y5625000D02*
X4650000Y5625000D01*
X25395000Y11430000D02*
X23774400Y11430000D01*
X15217400Y9753600D02*
X14096000Y10875000D01*
X23774400Y11430000D02*
X23469600Y11125200D01*
X9046000Y11125000D02*
X5537000Y11125000D01*
X9121000Y5875000D02*
X7046000Y5875000D01*
X23469600Y11125200D02*
X23452408Y11125200D01*
X26950000Y9875000D02*
X25395000Y11430000D01*
X7046000Y5875000D02*
X6796000Y5625000D01*
X15242197Y4892197D02*
X15850000Y5500000D01*
D14*
%TO.N,Net-(D3-K)*%
X11756903Y2082800D02*
X11404600Y2082800D01*
X13766800Y4092697D02*
X11756903Y2082800D01*
D13*
%TO.N,+5V*%
X4627000Y9398000D02*
X4650000Y9375000D01*
X6327000Y9375000D02*
X6350000Y9398000D01*
X4650000Y9375000D02*
X6327000Y9375000D01*
X2794000Y9398000D02*
X4627000Y9398000D01*
D14*
%TO.N,/SDA*%
X27225000Y5000000D02*
X26627213Y5597787D01*
D13*
X4650000Y6875000D02*
X2850000Y6875000D01*
D14*
X6949000Y8128000D02*
X6771000Y7950000D01*
X26627213Y5597787D02*
X25136213Y5597787D01*
X15494000Y8128000D02*
X6949000Y8128000D01*
X15849600Y7772400D02*
X15494000Y8128000D01*
X25136213Y5597787D02*
X22961600Y7772400D01*
X22961600Y7772400D02*
X15849600Y7772400D01*
D13*
%TO.N,/SCL*%
X4650000Y8125000D02*
X5465334Y8125000D01*
D14*
X17780000Y6858000D02*
X6350000Y6858000D01*
D13*
X6350000Y7240334D02*
X6350000Y6858000D01*
X5465334Y8125000D02*
X6350000Y7240334D01*
D14*
%TO.N,Net-(D3-A)*%
X11256600Y3886200D02*
X7193925Y3886200D01*
X11756232Y3386568D02*
X11256600Y3886200D01*
X7193925Y3886200D02*
X6836304Y3528579D01*
%TO.N,Net-(JP1-C)*%
X20226400Y7272400D02*
X22529682Y7272400D01*
X18034000Y5080000D02*
X20226400Y7272400D01*
X24954295Y4847787D02*
X26237155Y4847787D01*
X18034000Y3600500D02*
X18034000Y5080000D01*
X22529682Y7272400D02*
X24954295Y4847787D01*
%TD*%
%TA.AperFunction,Conductor*%
%TO.N,GND*%
G36*
X868423Y14482187D02*
G01*
X890499Y14450517D01*
X943721Y14302332D01*
X993279Y14211195D01*
X1068456Y14072947D01*
X1068458Y14072944D01*
X1068459Y14072943D01*
X1226750Y13865284D01*
X1414886Y13684222D01*
X1527491Y13605018D01*
X1628457Y13534000D01*
X1628459Y13533999D01*
X1862456Y13418139D01*
X2046937Y13359758D01*
X2111395Y13339359D01*
X2369445Y13299500D01*
X2565172Y13299500D01*
X2565177Y13299500D01*
X2760344Y13314484D01*
X2760350Y13314486D01*
X2760354Y13314486D01*
X2866647Y13339360D01*
X3014586Y13373979D01*
X3256766Y13471586D01*
X3361752Y13534001D01*
X3481204Y13605015D01*
X3481205Y13605017D01*
X3481208Y13605018D01*
X3682652Y13771148D01*
X3856375Y13966080D01*
X3998306Y14185247D01*
X4105118Y14423511D01*
X4111053Y14445110D01*
X4140352Y14486387D01*
X4182408Y14499500D01*
X7211729Y14499500D01*
X7259295Y14482187D01*
X7284605Y14438350D01*
X7275815Y14388500D01*
X7252841Y14363971D01*
X7189711Y14321790D01*
X7189710Y14321788D01*
X7078212Y14210290D01*
X7078210Y14210289D01*
X6990603Y14079175D01*
X6930264Y13933502D01*
X6930261Y13933492D01*
X6899500Y13778841D01*
X6899500Y12221160D01*
X6930261Y12066509D01*
X6930264Y12066499D01*
X6990603Y11920826D01*
X6990605Y11920823D01*
X6990606Y11920821D01*
X7078211Y11789711D01*
X7189711Y11678211D01*
X7320821Y11590606D01*
X7320826Y11590604D01*
X7320825Y11590604D01*
X7466498Y11530265D01*
X7466503Y11530263D01*
X7621158Y11499500D01*
X7621160Y11499500D01*
X8422189Y11499500D01*
X8469755Y11482187D01*
X8495065Y11438350D01*
X8496189Y11425482D01*
X8495795Y9775500D01*
X8495504Y8555682D01*
X8495503Y8552482D01*
X8478179Y8504920D01*
X8434336Y8479621D01*
X8421503Y8478500D01*
X7078991Y8478500D01*
X7050672Y8484133D01*
X6927761Y8535045D01*
X6771000Y8555682D01*
X6614239Y8535045D01*
X6614238Y8535045D01*
X6468158Y8474536D01*
X6342720Y8378285D01*
X6342715Y8378280D01*
X6246464Y8252842D01*
X6188506Y8112921D01*
X6154308Y8075601D01*
X6104122Y8068994D01*
X6067813Y8088914D01*
X5919374Y8237353D01*
X5897982Y8283229D01*
X5897700Y8289679D01*
X5897700Y8308254D01*
X5897700Y8308260D01*
X5887773Y8376393D01*
X5836398Y8481483D01*
X5753683Y8564198D01*
X5753682Y8564199D01*
X5648594Y8615573D01*
X5580464Y8625500D01*
X5580460Y8625500D01*
X4113940Y8625500D01*
X4113935Y8625500D01*
X4045806Y8615573D01*
X4045805Y8615573D01*
X3940717Y8564199D01*
X3858001Y8481483D01*
X3806627Y8376395D01*
X3806627Y8376394D01*
X3796700Y8308265D01*
X3796700Y7941736D01*
X3806627Y7873607D01*
X3806627Y7873606D01*
X3858001Y7768518D01*
X3858002Y7768517D01*
X3940717Y7685802D01*
X4045807Y7634427D01*
X4113940Y7624500D01*
X5368789Y7624500D01*
X5416355Y7607187D01*
X5421115Y7602826D01*
X5522115Y7501826D01*
X5543507Y7455950D01*
X5530406Y7407055D01*
X5488942Y7378021D01*
X5469789Y7375500D01*
X4113935Y7375500D01*
X4045806Y7365573D01*
X4045805Y7365573D01*
X3940717Y7314199D01*
X3923693Y7297174D01*
X3877817Y7275782D01*
X3871367Y7275500D01*
X3336092Y7275500D01*
X3288526Y7292813D01*
X3281745Y7299895D01*
X3281707Y7299856D01*
X3278277Y7303287D01*
X3152841Y7399536D01*
X3006761Y7460045D01*
X2850000Y7480682D01*
X2693239Y7460045D01*
X2693238Y7460045D01*
X2547158Y7399536D01*
X2421720Y7303285D01*
X2421715Y7303280D01*
X2325464Y7177842D01*
X2264955Y7031762D01*
X2264955Y7031761D01*
X2244318Y6875000D01*
X2264955Y6718240D01*
X2264955Y6718239D01*
X2325464Y6572159D01*
X2421715Y6446721D01*
X2421720Y6446716D01*
X2443875Y6429716D01*
X2547159Y6350464D01*
X2693238Y6289956D01*
X2850000Y6269318D01*
X3006762Y6289956D01*
X3152841Y6350464D01*
X3264056Y6435802D01*
X3278277Y6446714D01*
X3278279Y6446716D01*
X3278282Y6446718D01*
X3278285Y6446723D01*
X3281707Y6450144D01*
X3282831Y6449020D01*
X3320077Y6472746D01*
X3336092Y6474500D01*
X3766866Y6474500D01*
X3814432Y6457187D01*
X3839742Y6413350D01*
X3830952Y6363500D01*
X3804535Y6336805D01*
X3740701Y6299055D01*
X3623145Y6181499D01*
X3538518Y6038402D01*
X3492207Y5879000D01*
X6202192Y5879000D01*
X6155881Y6038402D01*
X6072949Y6178632D01*
X6063638Y6228387D01*
X6088487Y6272487D01*
X6135869Y6290297D01*
X6164962Y6284669D01*
X6193238Y6272956D01*
X6350000Y6252318D01*
X6506762Y6272956D01*
X6652841Y6333464D01*
X6778282Y6429718D01*
X6799360Y6457187D01*
X6815751Y6478548D01*
X6858442Y6505746D01*
X6874459Y6507500D01*
X8420996Y6507500D01*
X8468562Y6490187D01*
X8493872Y6446350D01*
X8494995Y6433483D01*
X8494488Y4310681D01*
X8477165Y4263120D01*
X8433322Y4237821D01*
X8420489Y4236700D01*
X7237946Y4236700D01*
X7222761Y4238275D01*
X7208610Y4241242D01*
X7174449Y4236984D01*
X7169871Y4236700D01*
X7164877Y4236700D01*
X7143374Y4233112D01*
X7092531Y4226774D01*
X7086654Y4225024D01*
X7086553Y4225363D01*
X7084225Y4224617D01*
X7084340Y4224282D01*
X7078544Y4222293D01*
X7033479Y4197905D01*
X6987441Y4175399D01*
X6982454Y4171838D01*
X6982249Y4172125D01*
X6980290Y4170665D01*
X6980507Y4170386D01*
X6975670Y4166621D01*
X6960051Y4149655D01*
X6915097Y4126387D01*
X6895951Y4126409D01*
X6836304Y4134261D01*
X6679543Y4113624D01*
X6679542Y4113624D01*
X6533462Y4053115D01*
X6408024Y3956864D01*
X6408019Y3956859D01*
X6311768Y3831421D01*
X6251259Y3685341D01*
X6251259Y3685340D01*
X6230622Y3528579D01*
X6251259Y3371819D01*
X6251259Y3371818D01*
X6311768Y3225738D01*
X6408019Y3100300D01*
X6408024Y3100295D01*
X6471410Y3051658D01*
X6533463Y3004043D01*
X6679542Y2943535D01*
X6836304Y2922897D01*
X6836304Y2922898D01*
X6836305Y2922897D01*
X6837985Y2922897D01*
X6838937Y2922551D01*
X6841113Y2922264D01*
X6841049Y2921782D01*
X6885551Y2905584D01*
X6910861Y2861747D01*
X6910563Y2834461D01*
X6899500Y2778842D01*
X6899500Y1221160D01*
X6930261Y1066509D01*
X6930264Y1066499D01*
X6990603Y920826D01*
X7078210Y789712D01*
X7189711Y678211D01*
X7252841Y636029D01*
X7282773Y595207D01*
X7279462Y544697D01*
X7244458Y508131D01*
X7211729Y500500D01*
X4179143Y500500D01*
X4131577Y517813D01*
X4109500Y549484D01*
X4056279Y697668D01*
X3934932Y920821D01*
X3931543Y927054D01*
X3930792Y928039D01*
X3773250Y1134716D01*
X3585114Y1315778D01*
X3513867Y1365892D01*
X3371542Y1466001D01*
X3371540Y1466002D01*
X3137543Y1581862D01*
X2888606Y1660641D01*
X2630555Y1700500D01*
X2434823Y1700500D01*
X2365249Y1695159D01*
X2239660Y1685517D01*
X2239645Y1685515D01*
X1985412Y1626021D01*
X1743239Y1528417D01*
X1743222Y1528408D01*
X1518795Y1394986D01*
X1518792Y1394983D01*
X1317344Y1228849D01*
X1143628Y1033925D01*
X1143624Y1033919D01*
X1001693Y814753D01*
X1001693Y814752D01*
X894886Y576500D01*
X894883Y576492D01*
X894882Y576489D01*
X894336Y574500D01*
X888947Y554891D01*
X859648Y513613D01*
X817592Y500500D01*
X574500Y500500D01*
X526934Y517813D01*
X501624Y561650D01*
X500500Y574500D01*
X500500Y2693000D01*
X517813Y2740566D01*
X561650Y2765876D01*
X574500Y2767000D01*
X1393200Y2767000D01*
X1393200Y3521000D01*
X1901200Y3521000D01*
X1901200Y2767000D01*
X2797703Y2767000D01*
X2797704Y2767001D01*
X2901525Y2777607D01*
X3069724Y2833343D01*
X3220538Y2926366D01*
X3220542Y2926368D01*
X3345832Y3051658D01*
X3345834Y3051662D01*
X3438857Y3202476D01*
X3494593Y3370675D01*
X3505199Y3474496D01*
X3505200Y3474498D01*
X3505200Y3521000D01*
X1901200Y3521000D01*
X1393200Y3521000D01*
X1393200Y4783000D01*
X1901200Y4783000D01*
X1901200Y4029000D01*
X3505200Y4029000D01*
X3505200Y4075503D01*
X3505199Y4075505D01*
X3494593Y4179326D01*
X3438857Y4347525D01*
X3345834Y4498339D01*
X3345832Y4498342D01*
X3220542Y4623632D01*
X3220538Y4623635D01*
X3069724Y4716658D01*
X2901525Y4772394D01*
X2797704Y4783000D01*
X1901200Y4783000D01*
X1393200Y4783000D01*
X574500Y4783000D01*
X526934Y4800313D01*
X501624Y4844150D01*
X500500Y4857000D01*
X500500Y5371000D01*
X3492207Y5371000D01*
X3538518Y5211599D01*
X3623145Y5068502D01*
X3740701Y4950946D01*
X3883798Y4866319D01*
X4043446Y4819936D01*
X4080742Y4817000D01*
X4593199Y4817001D01*
X4593200Y4817001D01*
X4593200Y5371000D01*
X5101200Y5371000D01*
X5101200Y4817001D01*
X5613655Y4817001D01*
X5650952Y4819936D01*
X5810601Y4866319D01*
X5953698Y4950946D01*
X6071254Y5068502D01*
X6155881Y5211599D01*
X6202193Y5371000D01*
X5101200Y5371000D01*
X4593200Y5371000D01*
X3492207Y5371000D01*
X500500Y5371000D01*
X500500Y9398000D01*
X2188318Y9398000D01*
X2208955Y9241240D01*
X2208955Y9241239D01*
X2269464Y9095159D01*
X2365715Y8969721D01*
X2365720Y8969716D01*
X2387732Y8952826D01*
X2491159Y8873464D01*
X2637238Y8812956D01*
X2794000Y8792318D01*
X2950762Y8812956D01*
X3096841Y8873464D01*
X3222282Y8969718D01*
X3222285Y8969723D01*
X3225707Y8973144D01*
X3226831Y8972020D01*
X3264077Y8995746D01*
X3280092Y8997500D01*
X3848367Y8997500D01*
X3895933Y8980187D01*
X3900693Y8975826D01*
X3940717Y8935802D01*
X4045807Y8884427D01*
X4113940Y8874500D01*
X4113946Y8874500D01*
X5580454Y8874500D01*
X5580460Y8874500D01*
X5648593Y8884427D01*
X5753683Y8935802D01*
X5770707Y8952826D01*
X5816583Y8974218D01*
X5823033Y8974500D01*
X5890366Y8974500D01*
X5935414Y8959208D01*
X5965918Y8935802D01*
X6047159Y8873464D01*
X6193238Y8812956D01*
X6350000Y8792318D01*
X6506762Y8812956D01*
X6652841Y8873464D01*
X6778282Y8969718D01*
X6874536Y9095159D01*
X6935044Y9241238D01*
X6955682Y9398000D01*
X6935044Y9554762D01*
X6874536Y9700841D01*
X6817248Y9775500D01*
X6778284Y9826280D01*
X6778279Y9826285D01*
X6652841Y9922536D01*
X6506761Y9983045D01*
X6350000Y10003682D01*
X6193239Y9983045D01*
X6193238Y9983045D01*
X6047158Y9922536D01*
X5921720Y9826285D01*
X5921719Y9826284D01*
X5921716Y9826280D01*
X5904966Y9804452D01*
X5862276Y9777254D01*
X5846259Y9775500D01*
X5823033Y9775500D01*
X5775467Y9792813D01*
X5770707Y9797174D01*
X5753682Y9814199D01*
X5648594Y9865573D01*
X5580464Y9875500D01*
X5580460Y9875500D01*
X4113940Y9875500D01*
X4113935Y9875500D01*
X4045806Y9865573D01*
X4045805Y9865573D01*
X3940717Y9814199D01*
X3938022Y9812274D01*
X3895024Y9798500D01*
X3280092Y9798500D01*
X3232526Y9815813D01*
X3225745Y9822895D01*
X3225707Y9822856D01*
X3222277Y9826287D01*
X3096841Y9922536D01*
X2950761Y9983045D01*
X2794000Y10003682D01*
X2637239Y9983045D01*
X2637238Y9983045D01*
X2491158Y9922536D01*
X2365720Y9826285D01*
X2365715Y9826280D01*
X2269464Y9700842D01*
X2208955Y9554762D01*
X2208955Y9554761D01*
X2188318Y9398000D01*
X500500Y9398000D01*
X500500Y10143000D01*
X517813Y10190566D01*
X561650Y10215876D01*
X574500Y10217000D01*
X1393200Y10217000D01*
X1393200Y10971000D01*
X1901200Y10971000D01*
X1901200Y10217000D01*
X2797703Y10217000D01*
X2797704Y10217001D01*
X2901525Y10227607D01*
X3069724Y10283343D01*
X3220538Y10376366D01*
X3220542Y10376368D01*
X3345832Y10501658D01*
X3345834Y10501662D01*
X3438857Y10652476D01*
X3494593Y10820675D01*
X3505199Y10924496D01*
X3505200Y10924498D01*
X3505200Y10971000D01*
X1901200Y10971000D01*
X1393200Y10971000D01*
X1393200Y12233000D01*
X1901200Y12233000D01*
X1901200Y11479000D01*
X3505200Y11479000D01*
X3505200Y11525503D01*
X3505199Y11525505D01*
X3494593Y11629326D01*
X3438857Y11797525D01*
X3345834Y11948339D01*
X3345832Y11948342D01*
X3220542Y12073632D01*
X3220538Y12073635D01*
X3069724Y12166658D01*
X2901525Y12222394D01*
X2797704Y12233000D01*
X1901200Y12233000D01*
X1393200Y12233000D01*
X574500Y12233000D01*
X526934Y12250313D01*
X501624Y12294150D01*
X500500Y12307000D01*
X500500Y14425500D01*
X517813Y14473066D01*
X561650Y14498376D01*
X574500Y14499500D01*
X820857Y14499500D01*
X868423Y14482187D01*
G37*
%TD.AperFunction*%
%TD*%
M02*
