%TF.GenerationSoftware,KiCad,Pcbnew,7.0.8-7.0.8~ubuntu23.04.1*%
%TF.CreationDate,2023-11-13T01:09:08+00:00*%
%TF.ProjectId,TFHT01,54464854-3031-42e6-9b69-6361645f7063,rev?*%
%TF.SameCoordinates,Original*%
%TF.FileFunction,Copper,L2,Bot*%
%TF.FilePolarity,Positive*%
%FSLAX46Y46*%
G04 Gerber Fmt 4.6, Leading zero omitted, Abs format (unit mm)*
G04 Created by KiCad (PCBNEW 7.0.8-7.0.8~ubuntu23.04.1) date 2023-11-13 01:09:08*
%MOMM*%
%LPD*%
G01*
G04 APERTURE LIST*
G04 Aperture macros list*
%AMRoundRect*
0 Rectangle with rounded corners*
0 $1 Rounding radius*
0 $2 $3 $4 $5 $6 $7 $8 $9 X,Y pos of 4 corners*
0 Add a 4 corners polygon primitive as box body*
4,1,4,$2,$3,$4,$5,$6,$7,$8,$9,$2,$3,0*
0 Add four circle primitives for the rounded corners*
1,1,$1+$1,$2,$3*
1,1,$1+$1,$4,$5*
1,1,$1+$1,$6,$7*
1,1,$1+$1,$8,$9*
0 Add four rect primitives between the rounded corners*
20,1,$1+$1,$2,$3,$4,$5,0*
20,1,$1+$1,$4,$5,$6,$7,0*
20,1,$1+$1,$6,$7,$8,$9,0*
20,1,$1+$1,$8,$9,$2,$3,0*%
%AMFreePoly0*
4,1,19,0.550000,-0.750000,0.000000,-0.750000,0.000000,-0.744911,-0.071157,-0.744911,-0.207708,-0.704816,-0.327430,-0.627875,-0.420627,-0.520320,-0.479746,-0.390866,-0.500000,-0.250000,-0.500000,0.250000,-0.479746,0.390866,-0.420627,0.520320,-0.327430,0.627875,-0.207708,0.704816,-0.071157,0.744911,0.000000,0.744911,0.000000,0.750000,0.550000,0.750000,0.550000,-0.750000,0.550000,-0.750000,
$1*%
%AMFreePoly1*
4,1,19,0.000000,0.744911,0.071157,0.744911,0.207708,0.704816,0.327430,0.627875,0.420627,0.520320,0.479746,0.390866,0.500000,0.250000,0.500000,-0.250000,0.479746,-0.390866,0.420627,-0.520320,0.327430,-0.627875,0.207708,-0.704816,0.071157,-0.744911,0.000000,-0.744911,0.000000,-0.750000,-0.550000,-0.750000,-0.550000,0.750000,0.000000,0.750000,0.000000,0.744911,0.000000,0.744911,
$1*%
%AMFreePoly2*
4,1,6,0.500000,-0.850000,-0.200000,-0.850000,-0.500000,-0.550000,-0.500000,0.850000,0.500000,0.850000,0.500000,-0.850000,0.500000,-0.850000,$1*%
G04 Aperture macros list end*
%TA.AperFunction,SMDPad,CuDef*%
%ADD10FreePoly0,180.000000*%
%TD*%
%TA.AperFunction,SMDPad,CuDef*%
%ADD11R,1.000000X1.500000*%
%TD*%
%TA.AperFunction,SMDPad,CuDef*%
%ADD12FreePoly1,180.000000*%
%TD*%
%TA.AperFunction,SMDPad,CuDef*%
%ADD13RoundRect,0.166667X0.458333X0.583333X-0.458333X0.583333X-0.458333X-0.583333X0.458333X-0.583333X0*%
%TD*%
%TA.AperFunction,SMDPad,CuDef*%
%ADD14RoundRect,0.166667X-0.458333X-0.583333X0.458333X-0.583333X0.458333X0.583333X-0.458333X0.583333X0*%
%TD*%
%TA.AperFunction,SMDPad,CuDef*%
%ADD15RoundRect,0.218750X0.256250X-0.218750X0.256250X0.218750X-0.256250X0.218750X-0.256250X-0.218750X0*%
%TD*%
%TA.AperFunction,SMDPad,CuDef*%
%ADD16R,0.250000X0.550000*%
%TD*%
%TA.AperFunction,SMDPad,CuDef*%
%ADD17FreePoly2,90.000000*%
%TD*%
%TA.AperFunction,SMDPad,CuDef*%
%ADD18R,0.700000X0.600000*%
%TD*%
%TA.AperFunction,SMDPad,CuDef*%
%ADD19RoundRect,0.150000X0.700000X-0.150000X0.700000X0.150000X-0.700000X0.150000X-0.700000X-0.150000X0*%
%TD*%
%TA.AperFunction,SMDPad,CuDef*%
%ADD20RoundRect,0.250000X1.100000X-0.250000X1.100000X0.250000X-1.100000X0.250000X-1.100000X-0.250000X0*%
%TD*%
%TA.AperFunction,SMDPad,CuDef*%
%ADD21RoundRect,0.218750X0.218750X0.256250X-0.218750X0.256250X-0.218750X-0.256250X0.218750X-0.256250X0*%
%TD*%
%TA.AperFunction,SMDPad,CuDef*%
%ADD22RoundRect,0.218750X-0.218750X-0.256250X0.218750X-0.256250X0.218750X0.256250X-0.218750X0.256250X0*%
%TD*%
%TA.AperFunction,SMDPad,CuDef*%
%ADD23R,0.900000X0.800000*%
%TD*%
%TA.AperFunction,SMDPad,CuDef*%
%ADD24R,1.397000X0.889000*%
%TD*%
%TA.AperFunction,SMDPad,CuDef*%
%ADD25R,0.650000X1.060000*%
%TD*%
%TA.AperFunction,SMDPad,CuDef*%
%ADD26RoundRect,0.218750X-0.256250X0.218750X-0.256250X-0.218750X0.256250X-0.218750X0.256250X0.218750X0*%
%TD*%
%TA.AperFunction,ViaPad*%
%ADD27C,0.800000*%
%TD*%
%TA.AperFunction,Conductor*%
%ADD28C,0.400000*%
%TD*%
%TA.AperFunction,Conductor*%
%ADD29C,0.300000*%
%TD*%
G04 APERTURE END LIST*
%TA.AperFunction,EtchedComponent*%
%TO.C,JP1*%
G36*
X18934000Y1732000D02*
G01*
X18434000Y1732000D01*
X18434000Y2332000D01*
X18934000Y2332000D01*
X18934000Y1732000D01*
G37*
%TD.AperFunction*%
%TD*%
D10*
%TO.P,JP1,1,A*%
%TO.N,GND*%
X19334000Y2032000D03*
D11*
%TO.P,JP1,2,C*%
%TO.N,Net-(JP1-C)*%
X18034000Y2032000D03*
D12*
%TO.P,JP1,3,B*%
%TO.N,+3V3*%
X16734000Y2032000D03*
%TD*%
D13*
%TO.P,D2,1,K*%
%TO.N,GND*%
X10300000Y13000000D03*
D14*
%TO.P,D2,2,A*%
%TO.N,Net-(D2-A)*%
X6700000Y13000000D03*
%TD*%
D15*
%TO.P,C4,1*%
%TO.N,+5V*%
X11811000Y4572000D03*
%TO.P,C4,2*%
%TO.N,GND*%
X11811000Y6147000D03*
%TD*%
D16*
%TO.P,U1,1,SDA*%
%TO.N,/SDA*%
X26950000Y6325000D03*
%TO.P,U1,2,ADDR*%
%TO.N,Net-(JP1-C)*%
X26450000Y6325000D03*
%TO.P,U1,3,ALERT*%
%TO.N,/ALERT*%
X25950000Y6325000D03*
%TO.P,U1,4,SCL*%
%TO.N,/SCL*%
X25450000Y6325000D03*
%TO.P,U1,5,VDD*%
%TO.N,+3V3*%
X25450000Y8675000D03*
%TO.P,U1,6,~{RESET}*%
%TO.N,unconnected-(U1-~{RESET}-Pad6)*%
X25950000Y8675000D03*
%TO.P,U1,7,R*%
%TO.N,GND*%
X26450000Y8675000D03*
%TO.P,U1,8,VSS*%
X26950000Y8675000D03*
D17*
%TO.P,U1,9,VSS*%
X26200000Y7500000D03*
%TD*%
D18*
%TO.P,D1,1,K*%
%TO.N,+5V*%
X9071000Y9075000D03*
%TO.P,D1,2,A*%
%TO.N,GND*%
X9071000Y10475000D03*
%TD*%
D13*
%TO.P,D3,1,K*%
%TO.N,Net-(D3-K)*%
X10300000Y2000000D03*
D14*
%TO.P,D3,2,A*%
%TO.N,Net-(D3-A)*%
X6700000Y2000000D03*
%TD*%
D19*
%TO.P,J1,1*%
%TO.N,+5V*%
X4847200Y5625000D03*
%TO.P,J1,2*%
%TO.N,/SCL*%
X4847200Y6875000D03*
%TO.P,J1,3*%
%TO.N,/SDA*%
X4847200Y8125000D03*
%TO.P,J1,4*%
%TO.N,GND*%
X4847200Y9375000D03*
D20*
%TO.P,J1,MP*%
X1647200Y3775000D03*
X1647200Y11225000D03*
%TD*%
D21*
%TO.P,R2,1*%
%TO.N,/ALERT*%
X19177000Y5334000D03*
%TO.P,R2,2*%
%TO.N,Net-(Q1-B)*%
X17602000Y5334000D03*
%TD*%
D22*
%TO.P,C5,1*%
%TO.N,+3V3*%
X25412500Y11594000D03*
%TO.P,C5,2*%
%TO.N,GND*%
X26987500Y11594000D03*
%TD*%
D21*
%TO.P,R4,1*%
%TO.N,+5V*%
X14097000Y2667000D03*
%TO.P,R4,2*%
%TO.N,Net-(D3-A)*%
X12522000Y2667000D03*
%TD*%
D15*
%TO.P,C1,1*%
%TO.N,+3V3*%
X12896000Y8962500D03*
%TO.P,C1,2*%
%TO.N,GND*%
X12896000Y10537500D03*
%TD*%
D23*
%TO.P,Q1,1,B*%
%TO.N,Net-(Q1-B)*%
X15859000Y6665000D03*
%TO.P,Q1,2,E*%
%TO.N,GND*%
X15859000Y4765000D03*
%TO.P,Q1,3,C*%
%TO.N,Net-(D3-K)*%
X13859000Y5715000D03*
%TD*%
D24*
%TO.P,C3,1*%
%TO.N,+5V*%
X10821000Y8947500D03*
%TO.P,C3,2*%
%TO.N,GND*%
X10821000Y10852500D03*
%TD*%
D25*
%TO.P,U3,1,VIN*%
%TO.N,+5V*%
X9967000Y4996000D03*
%TO.P,U3,2,GND*%
%TO.N,GND*%
X9017000Y4996000D03*
%TO.P,U3,3,EN*%
%TO.N,+5V*%
X8067000Y4996000D03*
%TO.P,U3,4,NC*%
%TO.N,unconnected-(U3-NC-Pad4)*%
X8067000Y7196000D03*
%TO.P,U3,5,VOUT*%
%TO.N,+3V3*%
X9967000Y7196000D03*
%TD*%
D26*
%TO.P,R3,1*%
%TO.N,+3V3*%
X17780000Y11074500D03*
%TO.P,R3,2*%
%TO.N,/SCL*%
X17780000Y9499500D03*
%TD*%
%TO.P,R10,1*%
%TO.N,+3V3*%
X15494000Y11049000D03*
%TO.P,R10,2*%
%TO.N,/SDA*%
X15494000Y9474000D03*
%TD*%
D15*
%TO.P,R1,1*%
%TO.N,+5V*%
X7421000Y9062500D03*
%TO.P,R1,2*%
%TO.N,Net-(D2-A)*%
X7421000Y10637500D03*
%TD*%
D27*
%TO.N,GND*%
X14096000Y10875000D03*
X4191000Y4318000D03*
X1143000Y12827000D03*
X3937000Y12065000D03*
X2159000Y12827000D03*
X3175000Y12827000D03*
X1143000Y5461000D03*
X15850000Y5500000D03*
X12983983Y4892197D03*
X1143000Y2286000D03*
X1651000Y9779000D03*
X3429000Y2286000D03*
X4191000Y3175000D03*
X1016000Y8890000D03*
X2286000Y2286000D03*
X5080000Y10668000D03*
X1016000Y7747000D03*
X9046000Y11125000D03*
X26950000Y9875000D03*
X9121000Y5875000D03*
X1016000Y6604000D03*
X4064000Y10668000D03*
%TO.N,Net-(D3-K)*%
X11404600Y2082800D03*
X13766800Y4092697D03*
%TO.N,+5V*%
X2794000Y9398000D03*
X6350000Y9398000D03*
%TO.N,/SDA*%
X2850000Y6875000D03*
X6771000Y7950000D03*
X15494000Y8128000D03*
X27225000Y5000000D03*
%TO.N,/SCL*%
X6350000Y6858000D03*
X17780000Y6858000D03*
%TO.N,Net-(D3-A)*%
X11756232Y3386568D03*
X6836304Y3528579D03*
%TO.N,Net-(JP1-C)*%
X26237155Y4847787D03*
X18034000Y3600500D03*
%TD*%
D28*
%TO.N,GND*%
X9071000Y10475000D02*
X9448500Y10852500D01*
D29*
X26950000Y8675000D02*
X26950000Y9875000D01*
D28*
X9121000Y5875000D02*
X9393000Y6147000D01*
X26987500Y9912500D02*
X26950000Y9875000D01*
X15859000Y4765000D02*
X15850000Y4774000D01*
X9448500Y10852500D02*
X10821000Y10852500D01*
X15859000Y4765000D02*
X16224000Y4400000D01*
X12983983Y4892197D02*
X12983983Y4974017D01*
X12983983Y4974017D02*
X11811000Y6147000D01*
X13758500Y10537500D02*
X12896000Y10537500D01*
X14096000Y10875000D02*
X13758500Y10537500D01*
X4627000Y9398000D02*
X4650000Y9375000D01*
X9017000Y5771000D02*
X9121000Y5875000D01*
X19334000Y3737000D02*
X19334000Y2032000D01*
X26987500Y11594000D02*
X26987500Y9912500D01*
X10575000Y11098500D02*
X10821000Y10852500D01*
X9071000Y11100000D02*
X9046000Y11125000D01*
X11768500Y10852500D02*
X12096000Y10525000D01*
X12096000Y10525000D02*
X12883500Y10525000D01*
D29*
X26450000Y9475000D02*
X26850000Y9875000D01*
D28*
X9393000Y6147000D02*
X11811000Y6147000D01*
D29*
X26850000Y9875000D02*
X26950000Y9875000D01*
X26450000Y8675000D02*
X26450000Y7750000D01*
D28*
X16224000Y4400000D02*
X18671000Y4400000D01*
X10575000Y13000000D02*
X10575000Y11098500D01*
D29*
X26450000Y7750000D02*
X26200000Y7500000D01*
D28*
X12883500Y10525000D02*
X12896000Y10537500D01*
X18671000Y4400000D02*
X19334000Y3737000D01*
X9017000Y4996000D02*
X9017000Y5771000D01*
X15850000Y4774000D02*
X15850000Y5500000D01*
X9071000Y10475000D02*
X9071000Y11100000D01*
X10821000Y10852500D02*
X11768500Y10852500D01*
D29*
X26450000Y8675000D02*
X26450000Y9475000D01*
%TO.N,Net-(D2-A)*%
X6425000Y11633500D02*
X7421000Y10637500D01*
X6425000Y13000000D02*
X6425000Y11633500D01*
%TO.N,Net-(D3-K)*%
X13859000Y5715000D02*
X13859000Y4184897D01*
X11404600Y2082800D02*
X10382800Y2082800D01*
X10382800Y2082800D02*
X10300000Y2000000D01*
X13859000Y4184897D02*
X13766800Y4092697D01*
D28*
%TO.N,+3V3*%
X9967000Y7196000D02*
X11767000Y7196000D01*
X14850000Y6613000D02*
X14196000Y7267000D01*
X23921884Y11594000D02*
X25412500Y11594000D01*
X17754500Y11049000D02*
X17780000Y11074500D01*
X15748000Y2032000D02*
X15240000Y2540000D01*
X19100900Y9753600D02*
X22081484Y9753600D01*
X12896000Y8962500D02*
X14108500Y8962500D01*
X14108500Y8962500D02*
X14196000Y9050000D01*
X12896000Y8325000D02*
X12896000Y8962500D01*
X15240000Y3429000D02*
X14850000Y3819000D01*
X14196000Y7267000D02*
X14196000Y9050000D01*
X15494000Y11049000D02*
X17754500Y11049000D01*
X22081484Y9753600D02*
X23921884Y11594000D01*
X17780000Y11074500D02*
X19100900Y9753600D01*
X16734000Y2032000D02*
X15748000Y2032000D01*
X14196000Y9751000D02*
X15494000Y11049000D01*
X14196000Y9050000D02*
X14196000Y9751000D01*
X15240000Y2540000D02*
X15240000Y3429000D01*
X25412500Y9537500D02*
X25450000Y9500000D01*
X11767000Y7196000D02*
X12896000Y8325000D01*
X25412500Y11594000D02*
X25412500Y9537500D01*
D29*
X25450000Y8675000D02*
X25450000Y9500000D01*
D28*
X14850000Y3819000D02*
X14850000Y6613000D01*
%TO.N,+5V*%
X9071000Y9075000D02*
X10693500Y9075000D01*
X4650000Y5625000D02*
X2757000Y5625000D01*
X9058500Y9062500D02*
X9071000Y9075000D01*
X9711000Y3810000D02*
X10287000Y3810000D01*
X8067000Y4996000D02*
X8067000Y4125000D01*
X9711000Y3810000D02*
X9967000Y4066000D01*
X8382000Y3810000D02*
X9711000Y3810000D01*
X4650000Y5625000D02*
X6186000Y5625000D01*
X7085500Y9398000D02*
X7421000Y9062500D01*
X10668000Y3810000D02*
X11049000Y3810000D01*
X1975000Y6407000D02*
X1975000Y8579000D01*
X13859000Y2905000D02*
X14097000Y2667000D01*
X6186000Y5625000D02*
X6815000Y4996000D01*
D29*
X12192000Y4572000D02*
X14097000Y2667000D01*
D28*
X10693500Y9075000D02*
X10821000Y8947500D01*
X7421000Y9062500D02*
X9058500Y9062500D01*
X8067000Y4125000D02*
X8382000Y3810000D01*
X2757000Y5625000D02*
X1975000Y6407000D01*
X1975000Y8579000D02*
X2794000Y9398000D01*
X10287000Y3810000D02*
X10668000Y3810000D01*
X9967000Y4257000D02*
X9967000Y4130000D01*
X6350000Y9398000D02*
X7085500Y9398000D01*
D29*
X11811000Y4572000D02*
X12192000Y4572000D01*
D28*
X9967000Y4066000D02*
X9967000Y4257000D01*
X9967000Y4130000D02*
X10287000Y3810000D01*
X9967000Y4257000D02*
X9967000Y4996000D01*
X11811000Y4572000D02*
X11049000Y3810000D01*
X6815000Y4996000D02*
X8067000Y4996000D01*
D29*
%TO.N,/SDA*%
X26950000Y5275000D02*
X27225000Y5000000D01*
X26950000Y6325000D02*
X26950000Y5275000D01*
D28*
X6596000Y8125000D02*
X6771000Y7950000D01*
X3045000Y8125000D02*
X2850000Y7930000D01*
X4650000Y8125000D02*
X3045000Y8125000D01*
X2850000Y7930000D02*
X2850000Y6875000D01*
X15494000Y9474000D02*
X15494000Y8128000D01*
X4650000Y8125000D02*
X6596000Y8125000D01*
%TO.N,/SCL*%
X6350000Y6858000D02*
X6333000Y6875000D01*
D29*
X25450000Y6325000D02*
X23799400Y6325000D01*
X23799400Y6325000D02*
X22352000Y7772400D01*
D28*
X17780000Y9499500D02*
X17780000Y6858000D01*
D29*
X22352000Y7772400D02*
X18694400Y7772400D01*
D28*
X6333000Y6875000D02*
X4650000Y6875000D01*
D29*
X18694400Y7772400D02*
X17780000Y6858000D01*
%TO.N,Net-(D3-A)*%
X11756232Y3386568D02*
X11802432Y3386568D01*
X11802432Y3386568D02*
X12522000Y2667000D01*
X6700000Y2000000D02*
X6700000Y3392275D01*
X6700000Y3392275D02*
X6836304Y3528579D01*
%TO.N,Net-(JP1-C)*%
X18034000Y2032000D02*
X18034000Y3600500D01*
X26450000Y6325000D02*
X26450000Y5060632D01*
X26450000Y5060632D02*
X26237155Y4847787D01*
D28*
%TO.N,Net-(Q1-B)*%
X15941000Y6665000D02*
X16573500Y6032500D01*
X17602000Y5334000D02*
X17602000Y5385000D01*
X16954500Y6032500D02*
X16573500Y6032500D01*
X15859000Y6665000D02*
X15941000Y6665000D01*
X17602000Y5385000D02*
X16954500Y6032500D01*
D29*
%TO.N,/ALERT*%
X22144894Y7272400D02*
X23592294Y5825000D01*
X24671800Y5181600D02*
X25349200Y5181600D01*
X24028400Y5825000D02*
X24671800Y5181600D01*
X19177000Y5334000D02*
X21115400Y7272400D01*
X21115400Y7272400D02*
X22144894Y7272400D01*
X25950000Y5782400D02*
X25950000Y6325000D01*
X25349200Y5181600D02*
X25950000Y5782400D01*
X23592294Y5825000D02*
X24028400Y5825000D01*
%TD*%
%TA.AperFunction,Conductor*%
%TO.N,GND*%
G36*
X868423Y14482187D02*
G01*
X890499Y14450517D01*
X943721Y14302332D01*
X993279Y14211195D01*
X1068456Y14072947D01*
X1068458Y14072944D01*
X1068459Y14072943D01*
X1226750Y13865284D01*
X1414886Y13684222D01*
X1508771Y13618185D01*
X1628457Y13534000D01*
X1628459Y13533999D01*
X1862456Y13418139D01*
X2046937Y13359758D01*
X2111395Y13339359D01*
X2369445Y13299500D01*
X2565172Y13299500D01*
X2565177Y13299500D01*
X2760344Y13314484D01*
X2760350Y13314486D01*
X2760354Y13314486D01*
X2866647Y13339360D01*
X3014586Y13373979D01*
X3256766Y13471586D01*
X3361752Y13534001D01*
X3481204Y13605015D01*
X3481205Y13605017D01*
X3481208Y13605018D01*
X3682652Y13771148D01*
X3856375Y13966080D01*
X3998306Y14185247D01*
X4105118Y14423511D01*
X4111053Y14445110D01*
X4140352Y14486387D01*
X4182408Y14499500D01*
X7211729Y14499500D01*
X7259295Y14482187D01*
X7284605Y14438350D01*
X7275815Y14388500D01*
X7252841Y14363971D01*
X7189711Y14321790D01*
X7189710Y14321788D01*
X7078212Y14210290D01*
X7078210Y14210289D01*
X6990603Y14079175D01*
X6956228Y13996182D01*
X6922031Y13958861D01*
X6887861Y13950500D01*
X6206815Y13950500D01*
X6135450Y13940102D01*
X6025365Y13886284D01*
X5938716Y13799635D01*
X5884898Y13689550D01*
X5874500Y13618185D01*
X5874500Y12381816D01*
X5884898Y12310451D01*
X5938716Y12200366D01*
X5938717Y12200365D01*
X6025365Y12113717D01*
X6032998Y12109986D01*
X6068129Y12073543D01*
X6074500Y12043504D01*
X6074500Y11677526D01*
X6072925Y11662341D01*
X6069957Y11648189D01*
X6069957Y11648185D01*
X6074216Y11614021D01*
X6074500Y11609440D01*
X6074500Y11604453D01*
X6078087Y11582960D01*
X6084427Y11532107D01*
X6084429Y11532103D01*
X6086176Y11526235D01*
X6085834Y11526134D01*
X6086580Y11523805D01*
X6086916Y11523920D01*
X6088907Y11518120D01*
X6113295Y11473055D01*
X6135801Y11427017D01*
X6139366Y11422024D01*
X6139075Y11421817D01*
X6140533Y11419861D01*
X6140816Y11420080D01*
X6144581Y11415242D01*
X6162648Y11398611D01*
X6182275Y11380543D01*
X6723826Y10838992D01*
X6745218Y10793117D01*
X6745500Y10786667D01*
X6745500Y10385754D01*
X6761049Y10287580D01*
X6821340Y10169251D01*
X6915250Y10075341D01*
X6966840Y10049055D01*
X7033579Y10015050D01*
X7033579Y10015049D01*
X7131753Y9999500D01*
X7131754Y9999500D01*
X7710247Y9999500D01*
X7808420Y10015049D01*
X7926751Y10075342D01*
X8020658Y10169249D01*
X8073066Y10272107D01*
X8110086Y10306627D01*
X8160635Y10309277D01*
X8201062Y10278813D01*
X8213000Y10238510D01*
X8213000Y10126410D01*
X8219505Y10065907D01*
X8219506Y10065902D01*
X8270552Y9929040D01*
X8270553Y9929039D01*
X8358096Y9812096D01*
X8358098Y9812094D01*
X8466116Y9731233D01*
X8493820Y9688868D01*
X8495770Y9671975D01*
X8495738Y9536982D01*
X8478414Y9489420D01*
X8434571Y9464121D01*
X8421738Y9463000D01*
X8100526Y9463000D01*
X8052960Y9480313D01*
X8034592Y9503405D01*
X8020659Y9530750D01*
X7926749Y9624660D01*
X7808420Y9684951D01*
X7808420Y9684952D01*
X7710247Y9700500D01*
X7710246Y9700500D01*
X7380044Y9700500D01*
X7332478Y9717813D01*
X7327718Y9722174D01*
X7323841Y9726051D01*
X7300594Y9737897D01*
X7290697Y9743962D01*
X7269589Y9759297D01*
X7269588Y9759298D01*
X7244777Y9767359D01*
X7234049Y9771802D01*
X7210802Y9783647D01*
X7210796Y9783649D01*
X7185033Y9787730D01*
X7173749Y9790438D01*
X7156909Y9795909D01*
X7148933Y9798500D01*
X7148932Y9798500D01*
X6836092Y9798500D01*
X6788526Y9815813D01*
X6781745Y9822895D01*
X6781707Y9822856D01*
X6778277Y9826287D01*
X6652841Y9922536D01*
X6506761Y9983045D01*
X6350000Y10003682D01*
X6193238Y9983045D01*
X6116215Y9951141D01*
X6065644Y9948933D01*
X6035571Y9967182D01*
X5953698Y10049055D01*
X5810601Y10133682D01*
X5650953Y10180065D01*
X5613658Y10183000D01*
X5101200Y10183000D01*
X5101200Y9195000D01*
X5083887Y9147434D01*
X5040050Y9122124D01*
X5027200Y9121000D01*
X4667200Y9121000D01*
X4619634Y9138313D01*
X4594324Y9182150D01*
X4593200Y9195000D01*
X4593200Y10183000D01*
X4080744Y10182999D01*
X4080745Y10182999D01*
X4043447Y10180065D01*
X3883798Y10133682D01*
X3740701Y10049055D01*
X3623145Y9931499D01*
X3538518Y9788402D01*
X3491668Y9627147D01*
X3461771Y9586300D01*
X3412613Y9574226D01*
X3367195Y9596575D01*
X3352239Y9619475D01*
X3318536Y9700841D01*
X3222284Y9826280D01*
X3222279Y9826285D01*
X3096841Y9922536D01*
X2950761Y9983045D01*
X2794000Y10003682D01*
X2637239Y9983045D01*
X2637238Y9983045D01*
X2491158Y9922536D01*
X2365720Y9826285D01*
X2365715Y9826280D01*
X2269464Y9700842D01*
X2208955Y9554762D01*
X2208955Y9554761D01*
X2188318Y9398001D01*
X2188318Y9393151D01*
X2186728Y9393151D01*
X2177163Y9350035D01*
X2167084Y9337479D01*
X1669520Y8839914D01*
X1669517Y8839911D01*
X1669516Y8839909D01*
X1669513Y8839906D01*
X1648110Y8818502D01*
X1646949Y8817341D01*
X1635107Y8794100D01*
X1629043Y8784204D01*
X1613703Y8763089D01*
X1613702Y8763088D01*
X1605641Y8738278D01*
X1601200Y8727554D01*
X1589352Y8704301D01*
X1589351Y8704298D01*
X1585270Y8678533D01*
X1582562Y8667249D01*
X1575233Y8644687D01*
X1574500Y8642432D01*
X1574500Y6343568D01*
X1582562Y6318751D01*
X1585270Y6307467D01*
X1589351Y6281704D01*
X1589353Y6281698D01*
X1601198Y6258451D01*
X1605641Y6247723D01*
X1613702Y6222912D01*
X1613703Y6222911D01*
X1629038Y6201803D01*
X1635103Y6191906D01*
X1646949Y6168659D01*
X1668523Y6147085D01*
X1668537Y6147070D01*
X2497222Y5318385D01*
X2497232Y5318376D01*
X2518658Y5296950D01*
X2541906Y5285105D01*
X2551793Y5279046D01*
X2572910Y5263704D01*
X2597726Y5255642D01*
X2608454Y5251197D01*
X2631696Y5239354D01*
X2631695Y5239354D01*
X2657463Y5235273D01*
X2668751Y5232564D01*
X2693567Y5224500D01*
X2725481Y5224500D01*
X3871367Y5224500D01*
X3918933Y5207187D01*
X3923693Y5202826D01*
X3940717Y5185802D01*
X4045807Y5134427D01*
X4113940Y5124500D01*
X4113946Y5124500D01*
X5580454Y5124500D01*
X5580460Y5124500D01*
X5648593Y5134427D01*
X5753683Y5185802D01*
X5770707Y5202826D01*
X5816583Y5224218D01*
X5823033Y5224500D01*
X5989455Y5224500D01*
X6037021Y5207187D01*
X6041781Y5202826D01*
X6486950Y4757658D01*
X6576658Y4667950D01*
X6599899Y4656109D01*
X6609803Y4650040D01*
X6630909Y4634704D01*
X6642814Y4630837D01*
X6655721Y4626643D01*
X6666449Y4622199D01*
X6689691Y4610356D01*
X6689693Y4610356D01*
X6689696Y4610354D01*
X6715464Y4606274D01*
X6726754Y4603564D01*
X6751567Y4595501D01*
X6781950Y4595501D01*
X6781974Y4595500D01*
X6783481Y4595500D01*
X7467500Y4595500D01*
X7515066Y4578187D01*
X7540376Y4534350D01*
X7541500Y4521500D01*
X7541500Y4446254D01*
X7553133Y4387768D01*
X7580024Y4347525D01*
X7597448Y4321448D01*
X7633613Y4297283D01*
X7663544Y4256461D01*
X7666500Y4235755D01*
X7666500Y4061568D01*
X7674562Y4036751D01*
X7677270Y4025467D01*
X7681351Y3999704D01*
X7681353Y3999698D01*
X7693198Y3976451D01*
X7697641Y3965723D01*
X7705702Y3940912D01*
X7705703Y3940911D01*
X7721038Y3919803D01*
X7727103Y3909906D01*
X7738949Y3886659D01*
X7760523Y3865085D01*
X7760537Y3865070D01*
X7998782Y3626826D01*
X8020174Y3580950D01*
X8007073Y3532055D01*
X7965609Y3503022D01*
X7946456Y3500500D01*
X7621158Y3500500D01*
X7527650Y3481901D01*
X7477620Y3489602D01*
X7444245Y3527659D01*
X7439848Y3544816D01*
X7421348Y3685341D01*
X7360840Y3831420D01*
X7293022Y3919803D01*
X7264588Y3956859D01*
X7264583Y3956864D01*
X7139145Y4053115D01*
X6993065Y4113624D01*
X6836304Y4134261D01*
X6679543Y4113624D01*
X6679542Y4113624D01*
X6533462Y4053115D01*
X6408024Y3956864D01*
X6408019Y3956859D01*
X6311768Y3831421D01*
X6251259Y3685341D01*
X6251259Y3685340D01*
X6230622Y3528579D01*
X6251259Y3371819D01*
X6251259Y3371818D01*
X6311768Y3225738D01*
X6334208Y3196494D01*
X6349500Y3151445D01*
X6349500Y3024500D01*
X6332187Y2976934D01*
X6288350Y2951624D01*
X6275500Y2950500D01*
X6206815Y2950500D01*
X6135450Y2940102D01*
X6025365Y2886284D01*
X5938716Y2799635D01*
X5884898Y2689550D01*
X5874500Y2618185D01*
X5874500Y1381816D01*
X5884898Y1310451D01*
X5938716Y1200366D01*
X5938717Y1200365D01*
X6025365Y1113717D01*
X6135452Y1059898D01*
X6206820Y1049500D01*
X6887861Y1049500D01*
X6935427Y1032187D01*
X6956228Y1003818D01*
X6990603Y920826D01*
X7078210Y789712D01*
X7189711Y678211D01*
X7252841Y636029D01*
X7282773Y595207D01*
X7279462Y544697D01*
X7244458Y508131D01*
X7211729Y500500D01*
X4179143Y500500D01*
X4131577Y517813D01*
X4109500Y549484D01*
X4056279Y697668D01*
X3934932Y920821D01*
X3931543Y927054D01*
X3930792Y928039D01*
X3773250Y1134716D01*
X3585114Y1315778D01*
X3527279Y1356458D01*
X3371542Y1466001D01*
X3371540Y1466002D01*
X3137543Y1581862D01*
X2888606Y1660641D01*
X2630555Y1700500D01*
X2434823Y1700500D01*
X2365249Y1695159D01*
X2239660Y1685517D01*
X2239645Y1685515D01*
X1985412Y1626021D01*
X1743239Y1528417D01*
X1743222Y1528408D01*
X1518795Y1394986D01*
X1518792Y1394983D01*
X1317344Y1228849D01*
X1143628Y1033925D01*
X1143624Y1033919D01*
X1001693Y814753D01*
X1001693Y814752D01*
X894886Y576500D01*
X894883Y576492D01*
X894882Y576489D01*
X894336Y574500D01*
X888947Y554891D01*
X859648Y513613D01*
X817592Y500500D01*
X574500Y500500D01*
X526934Y517813D01*
X501624Y561650D01*
X500500Y574500D01*
X500500Y2693000D01*
X517813Y2740566D01*
X561650Y2765876D01*
X574500Y2767000D01*
X1393200Y2767000D01*
X1393200Y3521000D01*
X1901200Y3521000D01*
X1901200Y2767000D01*
X2797703Y2767000D01*
X2797704Y2767001D01*
X2901525Y2777607D01*
X3069724Y2833343D01*
X3220538Y2926366D01*
X3220542Y2926368D01*
X3345832Y3051658D01*
X3345834Y3051662D01*
X3438857Y3202476D01*
X3494593Y3370675D01*
X3505199Y3474496D01*
X3505200Y3474498D01*
X3505200Y3521000D01*
X1901200Y3521000D01*
X1393200Y3521000D01*
X1393200Y4783000D01*
X1901200Y4783000D01*
X1901200Y4029000D01*
X3505200Y4029000D01*
X3505200Y4075503D01*
X3505199Y4075505D01*
X3494593Y4179326D01*
X3438857Y4347525D01*
X3345834Y4498339D01*
X3345832Y4498342D01*
X3220542Y4623632D01*
X3220538Y4623635D01*
X3069724Y4716658D01*
X2901525Y4772394D01*
X2797704Y4783000D01*
X1901200Y4783000D01*
X1393200Y4783000D01*
X574500Y4783000D01*
X526934Y4800313D01*
X501624Y4844150D01*
X500500Y4857000D01*
X500500Y10143000D01*
X517813Y10190566D01*
X561650Y10215876D01*
X574500Y10217000D01*
X1393200Y10217000D01*
X1393200Y10971000D01*
X1901200Y10971000D01*
X1901200Y10217000D01*
X2797703Y10217000D01*
X2797704Y10217001D01*
X2901525Y10227607D01*
X3069724Y10283343D01*
X3220538Y10376366D01*
X3220542Y10376368D01*
X3345832Y10501658D01*
X3345834Y10501662D01*
X3438857Y10652476D01*
X3494593Y10820675D01*
X3505199Y10924496D01*
X3505200Y10924498D01*
X3505200Y10971000D01*
X1901200Y10971000D01*
X1393200Y10971000D01*
X1393200Y12233000D01*
X1901200Y12233000D01*
X1901200Y11479000D01*
X3505200Y11479000D01*
X3505200Y11525503D01*
X3505199Y11525505D01*
X3494593Y11629326D01*
X3438857Y11797525D01*
X3345834Y11948339D01*
X3345832Y11948342D01*
X3220542Y12073632D01*
X3220538Y12073635D01*
X3069724Y12166658D01*
X2901525Y12222394D01*
X2797704Y12233000D01*
X1901200Y12233000D01*
X1393200Y12233000D01*
X574500Y12233000D01*
X526934Y12250313D01*
X501624Y12294150D01*
X500500Y12307000D01*
X500500Y14425500D01*
X517813Y14473066D01*
X561650Y14498376D01*
X574500Y14499500D01*
X820857Y14499500D01*
X868423Y14482187D01*
G37*
%TD.AperFunction*%
%TD*%
M02*
